<?xml version="1.0" encoding="utf-8"?>
<!-- Generator: Adobe Illustrator 22.0.1, SVG Export Plug-In . SVG Version: 6.00 Build 0)  -->
<svg version="1.1" id="Layer_1" xmlns="http://www.w3.org/2000/svg" xmlns:xlink="http://www.w3.org/1999/xlink" x="0px" y="0px"
	 viewBox="0 0 400 500" style="enable-background:new 0 0 400 500;" xml:space="preserve">
<style type="text/css">
	.st0{fill:#A0AAB4;}
	.st1{fill:#FFFFFF;}
	.st2{fill:#3D4449;}
	.st3{font-family:'Nunito-Bold';}
	.st4{font-size:37.6447px;}
	.st5{letter-spacing:-1;}
	.st6{fill:none;stroke:#D6DEE4;stroke-width:2;stroke-linecap:round;stroke-linejoin:round;stroke-dasharray:1.0171,7.1194;}
	.st7{fill:#490A3D;}
	.st8{font-size:19.2448px;}
	.st9{fill:#AEB9C1;}
	.st10{fill:#FCC62D;}
	.st11{fill:none;stroke:#F9DC39;stroke-width:2;stroke-linecap:round;stroke-linejoin:round;stroke-dasharray:1.0171,7.1194;}
	.st12{fill:#FADC3C;stroke:#E7C42A;stroke-width:1.93;stroke-miterlimit:10;}
	.st13{fill:none;stroke:#F9DC39;stroke-width:2.0075;stroke-linecap:round;stroke-linejoin:round;stroke-dasharray:1.0209,7.1461;}
	.st14{fill:#7C6608;}
	.st15{font-size:35.1152px;}
	.st16{fill:#76CEE4;}
	.st17{fill:#60C1D8;}
	.st18{fill:#1EAFD8;}
	.st19{fill:#033333;}
	.st20{font-size:32.773px;}
	.st21{fill:#8DC449;}
	.st22{fill:#9CD34F;}
	.st23{fill:#3EB24F;}
	.st24{fill:#E8A434;}
	.st25{fill:#E58E34;}
	.st26{fill:#E5852E;}
	.st27{fill:#BC6415;}
	.st28{font-size:29px;}
</style>
<g>
	<g>
		<g>
			<circle class="st0" cx="91.8" cy="48.7" r="40.3"/>
			<path class="st1" d="M91.8,12.3c20.1,0,36.3,16.3,36.3,36.3c0,20.1-16.3,36.3-36.3,36.3S55.5,68.7,55.5,48.7
				C55.5,28.6,71.8,12.3,91.8,12.3 M91.8,4.3c-24.4,0-44.3,19.9-44.3,44.3C47.5,73.1,67.4,93,91.8,93s44.3-19.9,44.3-44.3
				C136.2,24.2,116.3,4.3,91.8,4.3L91.8,4.3z"/>
		</g>
		<circle class="st0" cx="91.8" cy="48.7" r="26.4"/>
		<g>
			<text transform="matrix(1 0 0 1 84.8607 60.4258)" class="st2 st3 st4 st5">1</text>
		</g>
	</g>
	<g>
		<path class="st1" d="M133.6,89.7H52.1c-8.5,0-15.5,7-15.5,15.5l0,0c0,8.5,7,15.5,15.5,15.5h81.5c8.5,0,15.5-7,15.5-15.5l0,0
			C149.1,96.6,142.1,89.7,133.6,89.7z"/>
		<g>
			<ellipse class="st6" cx="91.8" cy="48.7" rx="32.4" ry="32.4"/>
		</g>
		<g>
			<text transform="matrix(1 0 0 1 62.3549 111.6928)" class="st7 st3 st8">1 peso</text>
		</g>
	</g>
	<path id="XMLID_105_" class="st2" d="M79,57.4c-0.4,0-0.6-0.2-0.6-0.6V56c-1.2-0.2-2-0.4-3-1.2v0.8c0,0.4-0.2,0.6-0.6,0.6
		s-0.6-0.2-0.6-0.6v-3.7c0-0.4,0.2-0.6,0.6-0.6s0.6,0.2,0.6,0.6v1.3c0.6,0.7,1.1,0.9,2.2,1.3c0.3,0.1,0.5,0.2,0.9,0.2V49
		c-1.2-0.3-2-0.6-2.6-0.9c-0.6-0.3-1.1-0.7-1.5-1.2s-0.5-1-0.5-1.7c0-1.2,0.4-2.1,1.2-2.8c0.7-0.7,1.9-1,3.4-1.1v-0.8
		c0-0.4,0.2-0.6,0.6-0.6s0.6,0.2,0.6,0.6v0.9c1.1,0.2,2,0.6,2.8,1.1c0.2,0.1,0.1,0.3,0.2,0.4v-0.8c0-0.4,0.2-0.6,0.6-0.6
		s0.6,0.2,0.6,0.6v3.7c0,0.4-0.2,0.6-0.6,0.6s-0.6-0.2-0.6-0.6v-1.3c-0.7-0.7-1.3-1.3-2.2-1.7c-0.2-0.1-0.5-0.2-0.8-0.2V48
		c0.2,0,0.5,0.1,0.9,0.2c0.7,0.2,1.4,0.4,2,0.7s1.1,0.7,1.5,1.2s0.5,1.1,0.5,1.7c0,1.3-0.4,2.3-1.3,3c-0.8,0.7-2.1,1.1-3.6,1.1v0.8
		C79.6,57.2,79.3,57.4,79,57.4 M76.6,54.8c0.1,0,0.2,0.1,0.3,0.1C76.8,54.9,76.7,54.8,76.6,54.8 M79.6,49.3v5.5
		c1.2,0,2.2-0.3,2.8-0.8c0.7-0.5,1-1.2,1-2c0-0.4-0.1-0.8-0.4-1.1s-0.6-0.6-1.1-0.8c-0.4-0.2-0.9-0.4-1.4-0.5L79.6,49.3z M83,54.3
		c-0.1,0.1-0.2,0.2-0.3,0.2c-0.1,0.1-0.3,0.2-0.5,0.3c0.2-0.1,0.4-0.2,0.5-0.4C82.9,54.4,83,54.3,83,54.3 M78.4,42.6
		c-1.2,0-2,0.3-2.6,0.7c-0.6,0.5-0.9,1.1-0.9,1.8c0,0.4,0.1,0.8,0.4,1.1s0.6,0.6,1.1,0.8c0.4,0.2,0.9,0.4,1.3,0.5
		c0.2,0.1,0.5,0.1,0.7,0.2V42.6L78.4,42.6z"/>
</g>
<g>
	<g>
		<g>
			<path class="st0" d="M297.8,89c-22.2,0-40.3-18.1-40.3-40.3s18.1-40.3,40.3-40.3c22.2,0,40.3,18.1,40.3,40.3S320.1,89,297.8,89z"
				/>
			<path class="st1" d="M297.8,12.3c20.1,0,36.3,16.3,36.3,36.3c0,20.1-16.3,36.3-36.3,36.3s-36.3-16.3-36.3-36.3
				S277.8,12.3,297.8,12.3 M297.8,4.3c-24.4,0-44.3,19.9-44.3,44.3s19.9,44.3,44.3,44.3s44.3-19.9,44.3-44.3
				C342.2,24.2,322.3,4.3,297.8,4.3L297.8,4.3z"/>
		</g>
		<circle class="st9" cx="297.8" cy="48.7" r="26.4"/>
		<g>
			<g>
				<text transform="matrix(1 0 0 1 290.8607 60.4258)" class="st2 st3 st4 st5">2</text>
			</g>
		</g>
	</g>
	<g>
		<path class="st1" d="M339.6,89.7h-81.5c-8.5,0-15.5,7-15.5,15.5l0,0c0,8.5,7,15.5,15.5,15.5h81.5c8.5,0,15.5-7,15.5-15.5l0,0
			C355.1,96.6,348.1,89.7,339.6,89.7z"/>
		<g>
			
				<ellipse transform="matrix(0.9871 -0.1602 0.1602 0.9871 -3.9553 48.3374)" class="st6" cx="297.8" cy="48.7" rx="32.4" ry="32.4"/>
		</g>
		<g>
			<text transform="matrix(1 0 0 1 263.6786 111.6928)" class="st7 st3 st8">2 pesos</text>
		</g>
	</g>
</g>
<path id="XMLID_1_" class="st2" d="M285,57.4c-0.4,0-0.6-0.2-0.6-0.6V56c-1.2-0.2-2-0.4-3-1.2v0.8c0,0.4-0.2,0.6-0.6,0.6
	s-0.6-0.2-0.6-0.6v-3.7c0-0.4,0.2-0.6,0.6-0.6s0.6,0.2,0.6,0.6v1.3c0.6,0.7,1.1,0.9,2.2,1.3c0.3,0.1,0.5,0.2,0.9,0.2V49
	c-1.2-0.3-2-0.6-2.6-0.9c-0.6-0.3-1.1-0.7-1.5-1.2s-0.5-1-0.5-1.7c0-1.2,0.4-2.1,1.2-2.8c0.7-0.7,1.9-1,3.4-1.1v-0.8
	c0-0.4,0.2-0.6,0.6-0.6s0.6,0.2,0.6,0.6v0.9c1.1,0.2,2,0.6,2.8,1.1c0.2,0.1,0.1,0.3,0.2,0.4v-0.8c0-0.4,0.2-0.6,0.6-0.6
	s0.6,0.2,0.6,0.6v3.7c0,0.4-0.2,0.6-0.6,0.6s-0.6-0.2-0.6-0.6v-1.3c-0.7-0.7-1.3-1.3-2.2-1.7c-0.2-0.1-0.5-0.2-0.8-0.2V48
	c0.2,0,0.5,0.1,0.9,0.2c0.7,0.2,1.4,0.4,2,0.7s1.1,0.7,1.5,1.2s0.5,1.1,0.5,1.7c0,1.3-0.4,2.3-1.3,3c-0.8,0.7-2.1,1.1-3.6,1.1v0.8
	C285.6,57.2,285.3,57.4,285,57.4 M282.6,54.8c0.1,0,0.2,0.1,0.3,0.1C282.8,54.9,282.7,54.8,282.6,54.8 M285.6,49.3v5.5
	c1.2,0,2.2-0.3,2.8-0.8c0.7-0.5,1-1.2,1-2c0-0.4-0.1-0.8-0.4-1.1s-0.6-0.6-1.1-0.8c-0.4-0.2-0.9-0.4-1.4-0.5L285.6,49.3z M289,54.3
	c-0.1,0.1-0.2,0.2-0.3,0.2c-0.1,0.1-0.3,0.2-0.5,0.3c0.2-0.1,0.4-0.2,0.5-0.4C288.9,54.4,288.9,54.3,289,54.3 M284.4,42.6
	c-1.2,0-2,0.3-2.6,0.7c-0.6,0.5-0.9,1.1-0.9,1.8c0,0.4,0.1,0.8,0.4,1.1s0.6,0.6,1.1,0.8c0.4,0.2,0.9,0.4,1.3,0.5
	c0.2,0.1,0.5,0.1,0.7,0.2V42.6L284.4,42.6z"/>
<g>
	<g>
		<g>
			<circle class="st10" cx="91.8" cy="178.2" r="40.3"/>
			<path class="st1" d="M91.8,141.8c20.1,0,36.3,16.3,36.3,36.3c0,20.1-16.3,36.3-36.3,36.3s-36.3-16.3-36.3-36.3
				C55.5,158.1,71.8,141.8,91.8,141.8 M91.8,133.8c-24.4,0-44.3,19.9-44.3,44.3s19.9,44.3,44.3,44.3s44.3-19.9,44.3-44.3
				C136.2,153.7,116.3,133.8,91.8,133.8L91.8,133.8z"/>
		</g>
		<circle class="st9" cx="91.8" cy="178.2" r="26.4"/>
		<g>
			<text transform="matrix(1 0 0 1 84.8607 189.9258)" class="st2 st3 st4 st5">5</text>
		</g>
	</g>
	<g>
		<path class="st1" d="M133.6,216.2H52.1c-8.5,0-15.5,7-15.5,15.5l0,0c0,8.5,7,15.5,15.5,15.5h81.5c8.5,0,15.5-7,15.5-15.5l0,0
			C149.1,223.1,142.1,216.2,133.6,216.2z"/>
		<g>
			<ellipse class="st11" cx="91.8" cy="178.2" rx="32.4" ry="32.4"/>
		</g>
		<g>
			<text transform="matrix(1 0 0 1 57.6884 238.1928)" class="st7 st3 st8">5 pesos</text>
		</g>
	</g>
	<path id="XMLID_6_" class="st2" d="M79,186.9c-0.4,0-0.6-0.2-0.6-0.6v-0.8c-1.2-0.2-2-0.4-3-1.2v0.8c0,0.4-0.2,0.6-0.6,0.6
		s-0.6-0.2-0.6-0.6v-3.7c0-0.4,0.2-0.6,0.6-0.6s0.6,0.2,0.6,0.6v1.3c0.6,0.7,1.1,0.9,2.2,1.3c0.3,0.1,0.5,0.2,0.9,0.2v-5.7
		c-1.2-0.3-2-0.6-2.6-0.9c-0.6-0.3-1.1-0.7-1.5-1.2s-0.5-1-0.5-1.7c0-1.2,0.4-2.1,1.2-2.8c0.7-0.7,1.9-1,3.4-1.1V170
		c0-0.4,0.2-0.6,0.6-0.6s0.6,0.2,0.6,0.6v0.9c1.1,0.2,2,0.6,2.8,1.1c0.2,0.1,0.1,0.3,0.2,0.4v-0.8c0-0.4,0.2-0.6,0.6-0.6
		s0.6,0.2,0.6,0.6v3.7c0,0.4-0.2,0.6-0.6,0.6s-0.6-0.2-0.6-0.6V174c-0.7-0.7-1.3-1.3-2.2-1.7c-0.2-0.1-0.5-0.2-0.8-0.2v5.4
		c0.2,0,0.5,0.1,0.9,0.2c0.7,0.2,1.4,0.4,2,0.7s1.1,0.7,1.5,1.2s0.5,1.1,0.5,1.7c0,1.3-0.4,2.3-1.3,3c-0.8,0.7-2.1,1.1-3.6,1.1v0.8
		C79.6,186.7,79.3,186.9,79,186.9 M76.6,184.3c0.1,0,0.2,0.1,0.3,0.1C76.8,184.4,76.7,184.3,76.6,184.3 M79.6,178.8v5.5
		c1.2,0,2.2-0.3,2.8-0.8c0.7-0.5,1-1.2,1-2c0-0.4-0.1-0.8-0.4-1.1s-0.6-0.6-1.1-0.8c-0.4-0.2-0.9-0.4-1.4-0.5L79.6,178.8z M83,183.8
		c-0.1,0.1-0.2,0.2-0.3,0.2c-0.1,0.1-0.3,0.2-0.5,0.3c0.2-0.1,0.4-0.2,0.5-0.4C82.9,183.9,83,183.8,83,183.8 M78.4,172.1
		c-1.2,0-2,0.3-2.6,0.7c-0.6,0.5-0.9,1.1-0.9,1.8c0,0.4,0.1,0.8,0.4,1.1s0.6,0.6,1.1,0.8c0.4,0.2,0.9,0.4,1.3,0.5
		c0.2,0.1,0.5,0.1,0.7,0.2V172.1L78.4,172.1z"/>
</g>
<g>
	<g>
		<g>
			<path class="st10" d="M297.8,218.5c-22.2,0-40.3-18.1-40.3-40.3s18.1-40.3,40.3-40.3c22.2,0,40.3,18.1,40.3,40.3
				S320.1,218.5,297.8,218.5z"/>
			<path class="st1" d="M297.8,141.8c20.1,0,36.3,16.3,36.3,36.3c0,20.1-16.3,36.3-36.3,36.3s-36.3-16.3-36.3-36.3
				S277.8,141.8,297.8,141.8 M297.8,133.8c-24.4,0-44.3,19.9-44.3,44.3s19.9,44.3,44.3,44.3s44.3-19.9,44.3-44.3
				C342.2,153.7,322.3,133.8,297.8,133.8L297.8,133.8z"/>
		</g>
		<circle class="st12" cx="297.8" cy="178.2" r="29.1"/>
	</g>
	<g>
		<path class="st1" d="M339.6,216.2h-81.5c-8.5,0-15.5,7-15.5,15.5l0,0c0,8.5,7,15.5,15.5,15.5h81.5c8.5,0,15.5-7,15.5-15.5l0,0
			C355.1,223.1,348.1,216.2,339.6,216.2z"/>
		<g>
			<ellipse class="st13" cx="297.8" cy="178.2" rx="32.5" ry="32.5"/>
		</g>
		<g>
			<text transform="matrix(1 0 0 1 257.9149 238.1928)" class="st7 st3 st8">10 pesos</text>
		</g>
	</g>
	<g>
		<text transform="matrix(1 0 0 1 280.8141 188.9351)" class="st14 st3 st15 st5">10</text>
	</g>
</g>
<g>
	<g>
		<path class="st1" d="M133.6,339.2H52.1c-8.5,0-15.5,7-15.5,15.5l0,0c0,8.5,7,15.5,15.5,15.5h81.5c8.5,0,15.5-7,15.5-15.5l0,0
			C149.1,346.1,142.1,339.2,133.6,339.2z"/>
		<g>
			<text transform="matrix(1 0 0 1 51.9052 361.1928)" class="st7 st3 st8">20 pesos</text>
		</g>
	</g>
	<g>
		<g>
			<g>
				<path class="st16" d="M43,339.8c-4.9,0-8.9-4-8.9-8.9v-53.5c0-4.9,4-8.9,8.9-8.9h97.2c4.9,0,8.9,4,8.9,8.9V331
					c0,4.9-4,8.9-8.9,8.9H43V339.8z"/>
				<path class="st1" d="M140.3,272.6c2.7,0,4.9,2.2,4.9,4.9V331c0,2.7-2.2,4.9-4.9,4.9H43c-2.7,0-4.9-2.2-4.9-4.9v-53.5
					c0-2.7,2.2-4.9,4.9-4.9H140.3 M140.3,264.6H43c-7.1,0-12.9,5.8-12.9,12.9V331c0,7.1,5.8,12.9,12.9,12.9h97.2
					c7.1,0,12.9-5.8,12.9-12.9v-53.5C153.2,270.4,147.4,264.6,140.3,264.6L140.3,264.6z"/>
			</g>
			<g>
				<path class="st17" d="M130.6,331H52.8c0-5.3-4.4-9.7-9.7-9.7v-34c5.3,0,9.7-4.4,9.7-9.7h77.8c0,5.3,4.4,9.7,9.7,9.7v34
					C134.9,321.2,130.6,325.6,130.6,331z"/>
			</g>
		</g>
		<g>
			<circle class="st18" cx="45.1" cy="279.6" r="3.9"/>
			<circle class="st18" cx="138.7" cy="279.6" r="3.9"/>
		</g>
		<g>
			<circle class="st18" cx="45.1" cy="329.3" r="3.9"/>
			<circle class="st18" cx="138.7" cy="329.3" r="3.9"/>
		</g>
		<g>
			<circle class="st16" cx="58.3" cy="286.6" r="2.2"/>
		</g>
		<g>
			
				<ellipse transform="matrix(3.327804e-02 -0.9994 0.9994 3.327804e-02 -226.0161 345.1331)" class="st16" cx="65.4" cy="289.4" rx="2.2" ry="2.2"/>
		</g>
		<g>
			<circle class="st16" cx="116.8" cy="286.3" r="2.2"/>
		</g>
		<g>
			<circle class="st16" cx="48.9" cy="294.3" r="2.2"/>
		</g>
		<g>
			<circle class="st16" cx="57.2" cy="324.3" r="2.2"/>
		</g>
		<g>
			
				<ellipse transform="matrix(3.327804e-02 -0.9994 0.9994 3.327804e-02 -255.603 373.9447)" class="st16" cx="65.5" cy="319.1" rx="2.2" ry="2.2"/>
		</g>
		<g>
			<circle class="st16" cx="49.1" cy="317.5" r="2.2"/>
		</g>
		<g>
			<circle class="st16" cx="47.8" cy="307" r="2.2"/>
		</g>
		<g>
			<circle class="st16" cx="128" cy="288.9" r="2.2"/>
		</g>
		<g>
			<circle class="st16" cx="123.3" cy="301.8" r="2.2"/>
		</g>
		<g>
			<circle class="st16" cx="134.2" cy="297.4" r="2.2"/>
		</g>
		<g>
			<circle class="st16" cx="132.9" cy="310.9" r="2.2"/>
		</g>
		<g>
			<circle class="st16" cx="124.6" cy="312.2" r="2.2"/>
		</g>
		<g>
			<circle class="st16" cx="115.9" cy="320.2" r="2.2"/>
		</g>
		<g>
			
				<ellipse transform="matrix(0.9951 -9.853780e-02 9.853780e-02 0.9951 -31.1929 14.0261)" class="st16" cx="126.4" cy="322.8" rx="2.2" ry="2.2"/>
		</g>
		<path id="XMLID_2_" class="st1" d="M57.8,314.2c-0.4,0-0.7-0.3-0.7-0.7v-0.9c-1.4-0.2-2.2-0.4-3.3-1.3v0.9c0,0.4-0.3,0.7-0.7,0.7
			s-0.7-0.3-0.7-0.7v-4.1c0-0.4,0.3-0.7,0.7-0.7s0.7,0.3,0.7,0.7v1.5c0.7,0.8,1.2,1,2.4,1.5c0.3,0.1,0.6,0.2,0.9,0.3V305
			c-1.3-0.4-2.2-0.7-2.8-1c-0.7-0.3-1.2-0.8-1.6-1.3c-0.4-0.5-0.6-1.1-0.6-1.8c0-1.3,0.4-2.3,1.3-3.1c0.8-0.7,2.1-1.1,3.8-1.2v-0.8
			c0-0.4,0.3-0.7,0.7-0.7s0.7,0.3,0.7,0.7v0.9c1.2,0.2,2.2,0.6,3.1,1.2c0.2,0.2,0.1,0.3,0.3,0.4v-0.9c0-0.4,0.3-0.7,0.7-0.7
			s0.7,0.3,0.7,0.7v4.1c0,0.4-0.3,0.7-0.7,0.7s-0.7-0.3-0.7-0.7v-1.4c-0.7-0.8-1.4-1.5-2.5-1.9c-0.3-0.1-0.6-0.2-0.9-0.3v5.9
			c0.2,0.1,0.5,0.1,1,0.3c0.8,0.2,1.6,0.5,2.2,0.8c0.7,0.3,1.2,0.8,1.6,1.3c0.4,0.5,0.6,1.2,0.6,1.9c0,1.4-0.5,2.5-1.5,3.3
			c-0.9,0.8-2.3,1.2-4,1.2v0.8C58.5,314,58.2,314.2,57.8,314.2 M55.2,311.4c0.1,0.1,0.2,0.1,0.3,0.1
			C55.5,311.5,55.3,311.4,55.2,311.4 M58.5,305.4v6c1.3,0,2.4-0.3,3.1-0.9c0.7-0.6,1.1-1.3,1.1-2.2c0-0.5-0.1-0.9-0.4-1.2
			c-0.3-0.4-0.7-0.7-1.2-0.9c-0.5-0.2-1-0.4-1.5-0.5L58.5,305.4z M62.2,310.8c-0.1,0.1-0.2,0.2-0.3,0.3c-0.2,0.1-0.3,0.2-0.5,0.3
			c0.2-0.1,0.4-0.2,0.6-0.4C62.1,310.9,62.2,310.9,62.2,310.8 M57.2,297.9c-1.3,0-2.2,0.3-2.8,0.8s-0.9,1.2-0.9,2
			c0,0.5,0.1,0.9,0.4,1.2c0.3,0.4,0.7,0.7,1.2,0.9c0.5,0.2,1,0.4,1.4,0.5c0.3,0.1,0.5,0.2,0.7,0.2L57.2,297.9L57.2,297.9z"/>
		<g id="XMLID_3360_">
			<g id="XMLID_3377_">
				<path id="XMLID_3378_" class="st19" d="M91.2,330c-1.1,0-2,0.9-2,2h1c0-0.6,0.4-1,1-1s1,0.4,1,1h1C93.2,330.9,92.3,330,91.2,330
					z"/>
			</g>
			<g id="XMLID_3375_">
				<path id="XMLID_3376_" class="st19" d="M86,330c-1.1,0-2,0.9-2,2h1c0-0.6,0.4-1,1-1s1,0.4,1,1h1C88,330.9,87.1,330,86,330z"/>
			</g>
			<g id="XMLID_3373_">
				<path id="XMLID_3374_" class="st19" d="M96.5,330c-1.1,0-2,0.9-2,2h1c0-0.6,0.4-1,1-1s1,0.4,1,1h1C98.5,330.9,97.6,330,96.5,330
					z"/>
			</g>
			<g id="XMLID_3371_">
				<path id="XMLID_3372_" class="st19" d="M75.5,330c-1.1,0-2,0.9-2,2h1c0-0.6,0.4-1,1-1s1,0.4,1,1h1C77.5,330.9,76.6,330,75.5,330
					z"/>
			</g>
			<g id="XMLID_3369_">
				<path id="XMLID_3370_" class="st19" d="M70.2,330c-1.1,0-2,0.9-2,2h1c0-0.6,0.4-1,1-1s1,0.4,1,1h1C72.2,330.9,71.3,330,70.2,330
					z"/>
			</g>
			<g id="XMLID_3367_">
				<path id="XMLID_3368_" class="st19" d="M80.7,330c-1.1,0-2,0.9-2,2h1c0-0.6,0.4-1,1-1s1,0.4,1,1h1C82.7,330.9,81.8,330,80.7,330
					z"/>
			</g>
			<g id="XMLID_3365_">
				<path id="XMLID_3366_" class="st19" d="M107,330c-1.1,0-2,0.9-2,2h1c0-0.6,0.4-1,1-1s1,0.4,1,1h1C109,330.9,108.1,330,107,330z"
					/>
			</g>
			<g id="XMLID_3363_">
				<path id="XMLID_3364_" class="st19" d="M101.7,330c-1.1,0-2,0.9-2,2h1c0-0.6,0.4-1,1-1s1,0.4,1,1h1
					C103.7,330.9,102.8,330,101.7,330z"/>
			</g>
			<g id="XMLID_3361_">
				<path id="XMLID_3362_" class="st19" d="M112.2,330c-1.1,0-2,0.9-2,2h1c0-0.6,0.4-1,1-1s1,0.4,1,1h1
					C114.2,330.9,113.3,330,112.2,330z"/>
			</g>
		</g>
		<g id="XMLID_9_">
			<g id="XMLID_27_">
				<path id="XMLID_28_" class="st19" d="M91.2,278.3c1.1,0,2-0.9,2-2h-1c0,0.6-0.4,1-1,1s-1-0.4-1-1h-1
					C89.2,277.4,90.1,278.3,91.2,278.3z"/>
			</g>
			<g id="XMLID_25_">
				<path id="XMLID_26_" class="st19" d="M96.5,278.3c1.1,0,2-0.9,2-2h-1c0,0.6-0.4,1-1,1s-1-0.4-1-1h-1
					C94.5,277.4,95.4,278.3,96.5,278.3z"/>
			</g>
			<g id="XMLID_23_">
				<path id="XMLID_24_" class="st19" d="M86,278.3c1.1,0,2-0.9,2-2h-1c0,0.6-0.4,1-1,1s-1-0.4-1-1h-1C84,277.4,84.9,278.3,86,278.3
					z"/>
			</g>
			<g id="XMLID_21_">
				<path id="XMLID_22_" class="st19" d="M107,278.3c1.1,0,2-0.9,2-2h-1c0,0.6-0.4,1-1,1s-1-0.4-1-1h-1
					C105,277.4,105.9,278.3,107,278.3z"/>
			</g>
			<g id="XMLID_19_">
				<path id="XMLID_20_" class="st19" d="M112.2,278.3c1.1,0,2-0.9,2-2h-1c0,0.6-0.4,1-1,1s-1-0.4-1-1h-1
					C110.2,277.4,111.1,278.3,112.2,278.3z"/>
			</g>
			<g id="XMLID_17_">
				<path id="XMLID_18_" class="st19" d="M101.7,278.3c1.1,0,2-0.9,2-2h-1c0,0.6-0.4,1-1,1s-1-0.4-1-1h-1
					C99.7,277.4,100.6,278.3,101.7,278.3z"/>
			</g>
			<g id="XMLID_15_">
				<path id="XMLID_16_" class="st19" d="M75.5,278.3c1.1,0,2-0.9,2-2h-1c0,0.6-0.4,1-1,1s-1-0.4-1-1h-1
					C73.5,277.4,74.4,278.3,75.5,278.3z"/>
			</g>
			<g id="XMLID_13_">
				<path id="XMLID_14_" class="st19" d="M80.7,278.3c1.1,0,2-0.9,2-2h-1c0,0.6-0.4,1-1,1s-1-0.4-1-1h-1
					C78.7,277.4,79.6,278.3,80.7,278.3z"/>
			</g>
			<g id="XMLID_11_">
				<path id="XMLID_12_" class="st19" d="M70.2,278.3c1.1,0,2-0.9,2-2h-1c0,0.6-0.4,1-1,1s-1-0.4-1-1h-1
					C68.2,277.4,69.1,278.3,70.2,278.3z"/>
			</g>
		</g>
	</g>
	<circle class="st18" cx="91.5" cy="303.7" r="24.5"/>
	<g>
		<circle class="st17" cx="91.5" cy="303.7" r="21.2"/>
	</g>
	<g>
		<text transform="matrix(1 0 0 1 72.408 314.4755)" class="st1 st3 st20 st5">20</text>
	</g>
</g>
<g>
	<g>
		<path class="st1" d="M240.8,459.2h-81.5c-8.5,0-15.5,7-15.5,15.5l0,0c0,8.5,7,15.5,15.5,15.5h81.5c8.5,0,15.5-7,15.5-15.5l0,0
			C256.2,466.1,249.3,459.2,240.8,459.2z"/>
		<g>
			<text transform="matrix(1 0 0 1 153.3139 481.1928)" class="st7 st3 st8">100 pesos</text>
		</g>
	</g>
	<g>
		<g>
			<g>
				<path class="st21" d="M150.2,460.8c-4.9,0-8.9-4-8.9-8.9v-53.5c0-4.9,4-8.9,8.9-8.9h97.2c4.9,0,8.9,4,8.9,8.9V452
					c0,4.9-4,8.9-8.9,8.9h-97.2V460.8z"/>
				<path class="st1" d="M247.5,393.6c2.7,0,4.9,2.2,4.9,4.9V452c0,2.7-2.2,4.9-4.9,4.9h-97.2c-2.7,0-4.9-2.2-4.9-4.9v-53.5
					c0-2.7,2.2-4.9,4.9-4.9H247.5 M247.5,385.6h-97.2c-7.1,0-12.9,5.8-12.9,12.9V452c0,7.1,5.8,12.9,12.9,12.9h97.2
					c7.1,0,12.9-5.8,12.9-12.9v-53.5C260.3,391.4,254.6,385.6,247.5,385.6L247.5,385.6z"/>
			</g>
			<g>
				<path class="st22" d="M237.7,452h-77.8c0-5.3-4.4-9.7-9.7-9.7v-34c5.3,0,9.7-4.4,9.7-9.7h77.8c0,5.3,4.4,9.7,9.7,9.7v34
					C242.1,442.2,237.7,446.6,237.7,452z"/>
			</g>
		</g>
		<g>
			<g>
				<circle class="st23" cx="152.3" cy="400.6" r="3.9"/>
			</g>
			<g>
				<circle class="st23" cx="245.8" cy="400.6" r="3.9"/>
			</g>
		</g>
		<g>
			<g>
				<circle class="st23" cx="152.5" cy="450.5" r="3.9"/>
			</g>
			<g>
				<circle class="st23" cx="246" cy="450.5" r="3.9"/>
			</g>
		</g>
		<g>
			<circle class="st23" cx="165.5" cy="407.6" r="2.2"/>
		</g>
		<g>
			<circle class="st23" cx="172.6" cy="410.4" r="2.2"/>
		</g>
		<g>
			<circle class="st23" cx="224" cy="407.3" r="2.2"/>
		</g>
		<g>
			<circle class="st23" cx="156.1" cy="415.3" r="2.2"/>
		</g>
		<g>
			<circle class="st23" cx="164.4" cy="445.3" r="2.2"/>
		</g>
		<g>
			<circle class="st23" cx="172.7" cy="440.1" r="2.2"/>
		</g>
		<g>
			<circle class="st23" cx="156.3" cy="438.5" r="2.2"/>
		</g>
		<g>
			<circle class="st23" cx="155" cy="428" r="2.2"/>
		</g>
		<g>
			<circle class="st23" cx="235.2" cy="409.9" r="2.2"/>
		</g>
		<g>
			<circle class="st23" cx="230.5" cy="422.8" r="2.2"/>
		</g>
		<g>
			<circle class="st23" cx="241.3" cy="418.4" r="2.2"/>
		</g>
		<g>
			<circle class="st23" cx="240" cy="431.9" r="2.2"/>
		</g>
		<g>
			<circle class="st23" cx="231.8" cy="433.2" r="2.2"/>
		</g>
		<g>
			<circle class="st23" cx="223" cy="441.2" r="2.2"/>
		</g>
		<g>
			<circle class="st23" cx="233.6" cy="443.8" r="2.2"/>
		</g>
		<path id="XMLID_108_" class="st1" d="M165,435.2c-0.4,0-0.7-0.3-0.7-0.7v-0.9c-1.4-0.2-2.2-0.4-3.3-1.3v0.9c0,0.4-0.3,0.7-0.7,0.7
			s-0.7-0.3-0.7-0.7v-4.1c0-0.4,0.3-0.7,0.7-0.7s0.7,0.3,0.7,0.7v1.5c0.7,0.8,1.2,1,2.4,1.5c0.3,0.1,0.6,0.2,0.9,0.3V426
			c-1.3-0.4-2.2-0.7-2.8-1c-0.7-0.3-1.2-0.8-1.6-1.3c-0.4-0.5-0.6-1.1-0.6-1.8c0-1.3,0.4-2.3,1.3-3.1c0.8-0.7,2.1-1.1,3.8-1.2v-0.8
			c0-0.4,0.3-0.7,0.7-0.7s0.7,0.3,0.7,0.7v0.9c1.2,0.2,2.2,0.6,3.1,1.2c0.2,0.2,0.1,0.3,0.3,0.4v-0.9c0-0.4,0.3-0.7,0.7-0.7
			s0.7,0.3,0.7,0.7v4.1c0,0.4-0.3,0.7-0.7,0.7s-0.7-0.3-0.7-0.7v-1.4c-0.7-0.8-1.4-1.5-2.5-1.9c-0.3-0.1-0.6-0.2-0.9-0.3v5.9
			c0.2,0.1,0.5,0.1,1,0.3c0.8,0.2,1.6,0.5,2.2,0.8c0.7,0.3,1.2,0.8,1.6,1.3c0.4,0.5,0.6,1.2,0.6,1.9c0,1.4-0.5,2.5-1.5,3.3
			c-0.9,0.8-2.3,1.2-4,1.2v0.8C165.6,435,165.4,435.2,165,435.2 M162.4,432.4c0.1,0.1,0.2,0.1,0.3,0.1
			C162.6,432.5,162.5,432.4,162.4,432.4 M165.6,426.4v6c1.3,0,2.4-0.3,3.1-0.9c0.7-0.6,1.1-1.3,1.1-2.2c0-0.5-0.1-0.9-0.4-1.2
			c-0.3-0.4-0.7-0.7-1.2-0.9c-0.5-0.2-1-0.4-1.5-0.5L165.6,426.4z M169.4,431.8c-0.1,0.1-0.2,0.2-0.3,0.3c-0.2,0.1-0.3,0.2-0.5,0.3
			c0.2-0.1,0.4-0.2,0.6-0.4C169.3,431.9,169.3,431.9,169.4,431.8 M164.3,418.9c-1.3,0-2.2,0.3-2.8,0.8s-0.9,1.2-0.9,2
			c0,0.5,0.1,0.9,0.4,1.2c0.3,0.4,0.7,0.7,1.2,0.9c0.5,0.2,1,0.4,1.4,0.5c0.3,0.1,0.5,0.2,0.7,0.2L164.3,418.9L164.3,418.9z"/>
		<g id="XMLID_88_">
			<g id="XMLID_106_">
				<path id="XMLID_107_" class="st19" d="M198.4,451c-1.1,0-2,0.9-2,2h1c0-0.6,0.4-1,1-1s1,0.4,1,1h1
					C200.4,451.9,199.5,451,198.4,451z"/>
			</g>
			<g id="XMLID_103_">
				<path id="XMLID_104_" class="st19" d="M193.1,451c-1.1,0-2,0.9-2,2h1c0-0.6,0.4-1,1-1s1,0.4,1,1h1
					C195.1,451.9,194.2,451,193.1,451z"/>
			</g>
			<g id="XMLID_101_">
				<path id="XMLID_102_" class="st19" d="M203.6,451c-1.1,0-2,0.9-2,2h1c0-0.6,0.4-1,1-1s1,0.4,1,1h1
					C205.6,451.9,204.7,451,203.6,451z"/>
			</g>
			<g id="XMLID_99_">
				<path id="XMLID_100_" class="st19" d="M182.6,451c-1.1,0-2,0.9-2,2h1c0-0.6,0.4-1,1-1s1,0.4,1,1h1
					C184.6,451.9,183.7,451,182.6,451z"/>
			</g>
			<g id="XMLID_97_">
				<path id="XMLID_98_" class="st19" d="M177.4,451c-1.1,0-2,0.9-2,2h1c0-0.6,0.4-1,1-1s1,0.4,1,1h1
					C179.4,451.9,178.5,451,177.4,451z"/>
			</g>
			<g id="XMLID_95_">
				<path id="XMLID_96_" class="st19" d="M187.9,451c-1.1,0-2,0.9-2,2h1c0-0.6,0.4-1,1-1s1,0.4,1,1h1C189.9,451.9,189,451,187.9,451
					z"/>
			</g>
			<g id="XMLID_93_">
				<path id="XMLID_94_" class="st19" d="M214.1,451c-1.1,0-2,0.9-2,2h1c0-0.6,0.4-1,1-1s1,0.4,1,1h1
					C216.1,451.9,215.2,451,214.1,451z"/>
			</g>
			<g id="XMLID_91_">
				<path id="XMLID_92_" class="st19" d="M208.9,451c-1.1,0-2,0.9-2,2h1c0-0.6,0.4-1,1-1s1,0.4,1,1h1C210.9,451.9,210,451,208.9,451
					z"/>
			</g>
			<g id="XMLID_89_">
				<path id="XMLID_90_" class="st19" d="M219.4,451c-1.1,0-2,0.9-2,2h1c0-0.6,0.4-1,1-1s1,0.4,1,1h1
					C221.4,451.9,220.5,451,219.4,451z"/>
			</g>
		</g>
		<g id="XMLID_7_">
			<g id="XMLID_86_">
				<path id="XMLID_87_" class="st19" d="M198.4,399.3c1.1,0,2-0.9,2-2h-1c0,0.6-0.4,1-1,1s-1-0.4-1-1h-1
					C196.4,398.4,197.3,399.3,198.4,399.3z"/>
			</g>
			<g id="XMLID_84_">
				<path id="XMLID_85_" class="st19" d="M203.6,399.3c1.1,0,2-0.9,2-2h-1c0,0.6-0.4,1-1,1s-1-0.4-1-1h-1
					C201.6,398.4,202.5,399.3,203.6,399.3z"/>
			</g>
			<g id="XMLID_82_">
				<path id="XMLID_83_" class="st19" d="M193.1,399.3c1.1,0,2-0.9,2-2h-1c0,0.6-0.4,1-1,1s-1-0.4-1-1h-1
					C191.1,398.4,192,399.3,193.1,399.3z"/>
			</g>
			<g id="XMLID_80_">
				<path id="XMLID_81_" class="st19" d="M214.1,399.3c1.1,0,2-0.9,2-2h-1c0,0.6-0.4,1-1,1s-1-0.4-1-1h-1
					C212.1,398.4,213,399.3,214.1,399.3z"/>
			</g>
			<g id="XMLID_78_">
				<path id="XMLID_79_" class="st19" d="M219.4,399.3c1.1,0,2-0.9,2-2h-1c0,0.6-0.4,1-1,1s-1-0.4-1-1h-1
					C217.4,398.4,218.3,399.3,219.4,399.3z"/>
			</g>
			<g id="XMLID_76_">
				<path id="XMLID_77_" class="st19" d="M208.9,399.3c1.1,0,2-0.9,2-2h-1c0,0.6-0.4,1-1,1s-1-0.4-1-1h-1
					C206.9,398.4,207.8,399.3,208.9,399.3z"/>
			</g>
			<g id="XMLID_74_">
				<path id="XMLID_75_" class="st19" d="M182.6,399.3c1.1,0,2-0.9,2-2h-1c0,0.6-0.4,1-1,1s-1-0.4-1-1h-1
					C180.6,398.4,181.5,399.3,182.6,399.3z"/>
			</g>
			<g id="XMLID_72_">
				<path id="XMLID_73_" class="st19" d="M187.9,399.3c1.1,0,2-0.9,2-2h-1c0,0.6-0.4,1-1,1s-1-0.4-1-1h-1
					C185.9,398.4,186.8,399.3,187.9,399.3z"/>
			</g>
			<g id="XMLID_70_">
				<path id="XMLID_71_" class="st19" d="M177.4,399.3c1.1,0,2-0.9,2-2h-1c0,0.6-0.4,1-1,1s-1-0.4-1-1h-1
					C175.4,398.4,176.3,399.3,177.4,399.3z"/>
			</g>
		</g>
	</g>
</g>
<g>
	<g>
		<path class="st1" d="M339.6,339.2h-81.5c-8.5,0-15.5,7-15.5,15.5l0,0c0,8.5,7,15.5,15.5,15.5h81.5c8.5,0,15.5-7,15.5-15.5l0,0
			C355.1,346.1,348.1,339.2,339.6,339.2z"/>
		<g>
			<text transform="matrix(1 0 0 1 257.9149 361.1928)" class="st7 st3 st8">50 pesos</text>
		</g>
	</g>
	<g>
		<g>
			<g>
				<path class="st24" d="M249,339.8c-4.9,0-8.9-4-8.9-8.9v-53.5c0-4.9,4-8.9,8.9-8.9h97.2c4.9,0,8.9,4,8.9,8.9V331
					c0,4.9-4,8.9-8.9,8.9H249V339.8z"/>
				<path class="st1" d="M346.3,272.6c2.7,0,4.9,2.2,4.9,4.9V331c0,2.7-2.2,4.9-4.9,4.9H249c-2.7,0-4.9-2.2-4.9-4.9v-53.5
					c0-2.7,2.2-4.9,4.9-4.9H346.3 M346.3,264.6H249c-7.1,0-12.9,5.8-12.9,12.9V331c0,7.1,5.8,12.9,12.9,12.9h97.2
					c7.1,0,12.9-5.8,12.9-12.9v-53.5C359.2,270.4,353.4,264.6,346.3,264.6L346.3,264.6z"/>
			</g>
			<g>
				<path class="st25" d="M336.6,331h-77.8c0-5.3-4.4-9.7-9.7-9.7v-34c5.3,0,9.7-4.4,9.7-9.7h77.8c0,5.3,4.4,9.7,9.7,9.7v34
					C340.9,321.2,336.6,325.6,336.6,331z"/>
			</g>
		</g>
		<g>
			<circle class="st26" cx="251.1" cy="279.6" r="3.9"/>
			<circle class="st26" cx="344.7" cy="279.6" r="3.9"/>
		</g>
		<g>
			<circle class="st26" cx="251.1" cy="329.3" r="3.9"/>
			<circle class="st26" cx="344.7" cy="329.3" r="3.9"/>
		</g>
		<g>
			<circle class="st24" cx="264.3" cy="286.6" r="2.2"/>
		</g>
		<g>
			<circle class="st24" cx="271.4" cy="289.4" r="2.2"/>
		</g>
		<g>
			<circle class="st24" cx="322.8" cy="286.3" r="2.2"/>
		</g>
		<g>
			<circle class="st24" cx="254.9" cy="294.3" r="2.2"/>
		</g>
		<g>
			<circle class="st24" cx="263.2" cy="324.3" r="2.2"/>
		</g>
		<g>
			<circle class="st24" cx="271.5" cy="319.1" r="2.2"/>
		</g>
		<g>
			<circle class="st24" cx="255.1" cy="317.5" r="2.2"/>
		</g>
		<g>
			<circle class="st24" cx="253.8" cy="307" r="2.2"/>
		</g>
		<g>
			<circle class="st24" cx="334" cy="288.9" r="2.2"/>
		</g>
		<g>
			<circle class="st24" cx="329.3" cy="301.8" r="2.2"/>
		</g>
		<g>
			<circle class="st24" cx="340.2" cy="297.4" r="2.2"/>
		</g>
		<g>
			<circle class="st24" cx="338.9" cy="310.9" r="2.2"/>
		</g>
		<g>
			<circle class="st24" cx="330.6" cy="312.2" r="2.2"/>
		</g>
		<g>
			<circle class="st24" cx="321.9" cy="320.2" r="2.2"/>
		</g>
		<g>
			<circle class="st24" cx="332.4" cy="322.8" r="2.2"/>
		</g>
		<path id="XMLID_67_" class="st1" d="M263.8,314.2c-0.4,0-0.7-0.3-0.7-0.7v-0.9c-1.4-0.2-2.2-0.4-3.3-1.3v0.9
			c0,0.4-0.3,0.7-0.7,0.7c-0.4,0-0.7-0.3-0.7-0.7v-4.1c0-0.4,0.3-0.7,0.7-0.7c0.4,0,0.7,0.3,0.7,0.7v1.5c0.7,0.8,1.2,1,2.4,1.5
			c0.3,0.1,0.6,0.2,0.9,0.3V305c-1.3-0.4-2.2-0.7-2.8-1c-0.7-0.3-1.2-0.8-1.6-1.3s-0.6-1.1-0.6-1.8c0-1.3,0.4-2.3,1.3-3.1
			c0.8-0.7,2.1-1.1,3.8-1.2v-0.8c0-0.4,0.3-0.7,0.7-0.7c0.4,0,0.7,0.3,0.7,0.7v0.9c1.2,0.2,2.2,0.6,3.1,1.2c0.2,0.2,0.1,0.3,0.3,0.4
			v-0.9c0-0.4,0.3-0.7,0.7-0.7c0.4,0,0.7,0.3,0.7,0.7v4.1c0,0.4-0.3,0.7-0.7,0.7c-0.4,0-0.7-0.3-0.7-0.7v-1.4
			c-0.7-0.8-1.4-1.5-2.5-1.9c-0.3-0.1-0.6-0.2-0.9-0.3v5.9c0.2,0.1,0.5,0.1,1,0.3c0.8,0.2,1.6,0.5,2.2,0.8c0.7,0.3,1.2,0.8,1.6,1.3
			s0.6,1.2,0.6,1.9c0,1.4-0.5,2.5-1.5,3.3c-0.9,0.8-2.3,1.2-4,1.2v0.8C264.5,314,264.2,314.2,263.8,314.2 M261.2,311.4
			c0.1,0.1,0.2,0.1,0.3,0.1C261.5,311.5,261.3,311.4,261.2,311.4 M264.5,305.4v6c1.3,0,2.4-0.3,3.1-0.9s1.1-1.3,1.1-2.2
			c0-0.5-0.1-0.9-0.4-1.2c-0.3-0.4-0.7-0.7-1.2-0.9c-0.5-0.2-1-0.4-1.5-0.5L264.5,305.4z M268.2,310.8c-0.1,0.1-0.2,0.2-0.3,0.3
			c-0.2,0.1-0.3,0.2-0.5,0.3c0.2-0.1,0.4-0.2,0.6-0.4C268.1,310.9,268.2,310.9,268.2,310.8 M263.2,297.9c-1.3,0-2.2,0.3-2.8,0.8
			c-0.6,0.5-0.9,1.2-0.9,2c0,0.5,0.1,0.9,0.4,1.2c0.3,0.4,0.7,0.7,1.2,0.9c0.5,0.2,1,0.4,1.4,0.5c0.3,0.1,0.5,0.2,0.7,0.2
			L263.2,297.9L263.2,297.9z"/>
		<g id="XMLID_48_">
			<g id="XMLID_65_">
				<g id="XMLID_66_">
					<path class="st27" d="M297.2,330c-1.1,0-2,0.9-2,2h1c0-0.6,0.4-1,1-1s1,0.4,1,1h1C299.2,330.9,298.3,330,297.2,330z"/>
				</g>
			</g>
			<g id="XMLID_63_">
				<g id="XMLID_64_">
					<path class="st27" d="M292,330c-1.1,0-2,0.9-2,2h1c0-0.6,0.4-1,1-1s1,0.4,1,1h1C294,330.9,293.1,330,292,330z"/>
				</g>
			</g>
			<g id="XMLID_61_">
				<g id="XMLID_62_">
					<path class="st27" d="M302.5,330c-1.1,0-2,0.9-2,2h1c0-0.6,0.4-1,1-1s1,0.4,1,1h1C304.5,330.9,303.6,330,302.5,330z"/>
				</g>
			</g>
			<g id="XMLID_59_">
				<g id="XMLID_60_">
					<path class="st27" d="M281.5,330c-1.1,0-2,0.9-2,2h1c0-0.6,0.4-1,1-1s1,0.4,1,1h1C283.5,330.9,282.6,330,281.5,330z"/>
				</g>
			</g>
			<g id="XMLID_57_">
				<g id="XMLID_58_">
					<path class="st27" d="M276.2,330c-1.1,0-2,0.9-2,2h1c0-0.6,0.4-1,1-1s1,0.4,1,1h1C278.2,330.9,277.3,330,276.2,330z"/>
				</g>
			</g>
			<g id="XMLID_55_">
				<g id="XMLID_56_">
					<path class="st27" d="M286.7,330c-1.1,0-2,0.9-2,2h1c0-0.6,0.4-1,1-1s1,0.4,1,1h1C288.7,330.9,287.8,330,286.7,330z"/>
				</g>
			</g>
			<g id="XMLID_53_">
				<g id="XMLID_54_">
					<path class="st27" d="M313,330c-1.1,0-2,0.9-2,2h1c0-0.6,0.4-1,1-1s1,0.4,1,1h1C315,330.9,314.1,330,313,330z"/>
				</g>
			</g>
			<g id="XMLID_51_">
				<g id="XMLID_52_">
					<path class="st27" d="M307.7,330c-1.1,0-2,0.9-2,2h1c0-0.6,0.4-1,1-1s1,0.4,1,1h1C309.7,330.9,308.8,330,307.7,330z"/>
				</g>
			</g>
			<g id="XMLID_49_">
				<g id="XMLID_50_">
					<path class="st27" d="M318.2,330c-1.1,0-2,0.9-2,2h1c0-0.6,0.4-1,1-1s1,0.4,1,1h1C320.2,330.9,319.3,330,318.2,330z"/>
				</g>
			</g>
		</g>
		<g id="XMLID_10_">
			<g id="XMLID_46_">
				<g id="XMLID_47_">
					<path class="st27" d="M297.2,278.3c1.1,0,2-0.9,2-2h-1c0,0.6-0.4,1-1,1s-1-0.4-1-1h-1C295.2,277.4,296.1,278.3,297.2,278.3z"/>
				</g>
			</g>
			<g id="XMLID_44_">
				<g id="XMLID_45_">
					<path class="st27" d="M302.5,278.3c1.1,0,2-0.9,2-2h-1c0,0.6-0.4,1-1,1s-1-0.4-1-1h-1C300.5,277.4,301.4,278.3,302.5,278.3z"/>
				</g>
			</g>
			<g id="XMLID_42_">
				<g id="XMLID_43_">
					<path class="st27" d="M292,278.3c1.1,0,2-0.9,2-2h-1c0,0.6-0.4,1-1,1s-1-0.4-1-1h-1C290,277.4,290.9,278.3,292,278.3z"/>
				</g>
			</g>
			<g id="XMLID_40_">
				<g id="XMLID_41_">
					<path class="st27" d="M313,278.3c1.1,0,2-0.9,2-2h-1c0,0.6-0.4,1-1,1s-1-0.4-1-1h-1C311,277.4,311.9,278.3,313,278.3z"/>
				</g>
			</g>
			<g id="XMLID_38_">
				<g id="XMLID_39_">
					<path class="st27" d="M318.2,278.3c1.1,0,2-0.9,2-2h-1c0,0.6-0.4,1-1,1s-1-0.4-1-1h-1C316.2,277.4,317.1,278.3,318.2,278.3z"/>
				</g>
			</g>
			<g id="XMLID_36_">
				<g id="XMLID_37_">
					<path class="st27" d="M307.7,278.3c1.1,0,2-0.9,2-2h-1c0,0.6-0.4,1-1,1s-1-0.4-1-1h-1C305.7,277.4,306.6,278.3,307.7,278.3z"/>
				</g>
			</g>
			<g id="XMLID_34_">
				<g id="XMLID_35_">
					<path class="st27" d="M281.5,278.3c1.1,0,2-0.9,2-2h-1c0,0.6-0.4,1-1,1s-1-0.4-1-1h-1C279.5,277.4,280.4,278.3,281.5,278.3z"/>
				</g>
			</g>
			<g id="XMLID_32_">
				<g id="XMLID_33_">
					<path class="st27" d="M286.7,278.3c1.1,0,2-0.9,2-2h-1c0,0.6-0.4,1-1,1s-1-0.4-1-1h-1C284.7,277.4,285.6,278.3,286.7,278.3z"/>
				</g>
			</g>
			<g id="XMLID_30_">
				<g id="XMLID_31_">
					<path class="st27" d="M276.2,278.3c1.1,0,2-0.9,2-2h-1c0,0.6-0.4,1-1,1s-1-0.4-1-1h-1C274.2,277.4,275.1,278.3,276.2,278.3z"/>
				</g>
			</g>
		</g>
	</g>
	<g>
		<circle class="st24" cx="297.5" cy="303.7" r="24.5"/>
	</g>
	<circle class="st26" cx="297.5" cy="303.7" r="21.2"/>
	<g>
		<text transform="matrix(1 0 0 1 280.033 314.8505)" class="st1 st3 st28">50</text>
	</g>
</g>
<g>
	<text transform="matrix(1 0 0 1 172.8304 435.4755)" class="st1 st3 st28">100</text>
</g>
<path id="XMLID_3_" class="st14" d="M277.1,184.2c-0.3,0-0.5-0.2-0.5-0.5v-0.6c-0.9-0.2-1.5-0.3-2.3-0.9v0.6c0,0.3-0.2,0.5-0.5,0.5
	s-0.5-0.2-0.5-0.5v-2.9c0-0.3,0.2-0.5,0.5-0.5s0.5,0.2,0.5,0.5v1c0.5,0.5,0.8,0.7,1.7,1c0.2,0.1,0.4,0.2,0.7,0.2v-4.4
	c-0.9-0.2-1.5-0.5-2-0.7s-0.8-0.5-1.2-0.9s-0.4-0.8-0.4-1.3c0-0.9,0.3-1.6,0.9-2.2c0.5-0.5,1.5-0.8,2.6-0.8v-0.6
	c0-0.3,0.2-0.5,0.5-0.5c0.3,0,0.5,0.2,0.5,0.5v0.7c0.8,0.2,1.5,0.5,2.2,0.8c0.2,0.1,0.1,0.2,0.2,0.3v-0.6c0-0.3,0.2-0.5,0.5-0.5
	s0.5,0.2,0.5,0.5v2.9c0,0.3-0.2,0.5-0.5,0.5s-0.5-0.2-0.5-0.5v-1c-0.5-0.5-1-1-1.7-1.3c-0.2-0.1-0.4-0.2-0.6-0.2v4.2
	c0.2,0,0.4,0.1,0.7,0.2c0.5,0.2,1.1,0.3,1.5,0.5s0.8,0.5,1.2,0.9c0.3,0.4,0.4,0.8,0.4,1.3c0,1-0.3,1.8-1,2.3
	c-0.6,0.5-1.6,0.8-2.8,0.8v0.6C277.5,184,277.3,184.2,277.1,184.2 M275.2,182.2c0.1,0,0.2,0.1,0.2,0.1
	C275.4,182.2,275.3,182.2,275.2,182.2 M277.5,177.9v4.2c0.9,0,1.7-0.2,2.2-0.6c0.5-0.4,0.8-0.9,0.8-1.5c0-0.3-0.1-0.6-0.3-0.8
	c-0.2-0.2-0.5-0.5-0.8-0.6c-0.3-0.2-0.7-0.3-1.1-0.4L277.5,177.9z M280.1,181.8c-0.1,0.1-0.2,0.2-0.2,0.2c-0.1,0.1-0.2,0.2-0.4,0.2
	c0.2-0.1,0.3-0.2,0.4-0.3C280.1,181.9,280.1,181.8,280.1,181.8 M276.6,172.7c-0.9,0-1.5,0.2-2,0.5c-0.5,0.4-0.7,0.8-0.7,1.4
	c0,0.3,0.1,0.6,0.3,0.8c0.2,0.2,0.5,0.5,0.8,0.6c0.3,0.2,0.7,0.3,1,0.4c0.2,0.1,0.4,0.1,0.5,0.2V172.7L276.6,172.7z"/>
</svg>
