<?xml version="1.0" encoding="utf-8"?>
<!-- Generator: Adobe Illustrator 22.0.1, SVG Export Plug-In . SVG Version: 6.00 Build 0)  -->
<svg version="1.1" id="Layer_1" xmlns="http://www.w3.org/2000/svg" xmlns:xlink="http://www.w3.org/1999/xlink" x="0px" y="0px"
	 viewBox="0 0 336.7 400" style="enable-background:new 0 0 336.7 400;" xml:space="preserve">
<style type="text/css">
	.st0{fill:#FFFFFF;}
	
		.st1{fill:none;stroke:#FFFFFF;stroke-width:2;stroke-linecap:round;stroke-linejoin:round;stroke-miterlimit:10;stroke-dasharray:6,10;}
	.st2{fill:#D6707A;}
	.st3{fill:#F19CA2;}
	.st4{fill:#804047;}
	.st5{fill:none;stroke:#F19CA2;stroke-width:4.6194;stroke-linecap:round;stroke-linejoin:round;stroke-miterlimit:10;}
	.st6{fill:#76CEE4;}
	.st7{fill:#60C1D8;}
	.st8{fill:#1EAFD8;}
	.st9{fill:#033333;}
	.st10{font-family:'Nunito-Bold';}
	.st11{font-size:17.1672px;}
	.st12{fill:#FCC62D;}
	.st13{fill:#FADC3C;stroke:#E7C42A;stroke-width:0.6562;stroke-miterlimit:10;}
	.st14{fill:none;stroke:#F9DC39;stroke-width:0.6825;stroke-linecap:round;stroke-linejoin:round;stroke-dasharray:0.3471,2.4296;}
	.st15{fill:#7C6608;}
	.st16{font-size:11.939px;}
	.st17{fill:#AEB9C1;}
	.st18{fill:#3D4449;}
	.st19{font-size:12.076px;}
	.st20{fill:none;stroke:#F9DC39;stroke-width:0.5662;stroke-linecap:round;stroke-linejoin:round;stroke-dasharray:0.2879,2.0155;}
	.st21{fill:#4E6584;}
	.st22{fill:#849CB8;}
	.st23{font-family:'Nunito-SemiBold';}
	.st24{font-size:40.7449px;}
	.st25{fill:#A0AAB4;}
	.st26{font-size:12.7195px;}
	.st27{fill:none;stroke:#D6DEE4;stroke-width:0.4956;stroke-linecap:round;stroke-linejoin:round;stroke-dasharray:0.252,1.764;}
	.st28{font-size:11.9478px;}
	.st29{font-size:12.451px;}
	.st30{font-size:12.8982px;}
	.st31{fill:none;stroke:#D6DEE4;stroke-width:0.5913;stroke-linecap:round;stroke-linejoin:round;stroke-dasharray:0.3007,2.1049;}
</style>
<g>
	<g>
		<path class="st0" d="M201.9,178c-6.2,0-11.2-5-11.2-11.2v-1.2h-9.3v0.9c0,5.7-4.6,10.3-10.3,10.3h-12.2c-2.1,0-4-0.6-5.6-1.7
			c-2,1.8-4.7,2.9-7.6,2.9h-12.5c-3.7,0-7.1-1.8-9.2-4.7c-5.6-8-24-36.7-24-72.1c0-0.5,0-1,0-1.5l0-0.4c0-0.4,0-0.7,0-1.1l0-0.4
			c0-0.5,0.1-0.9,0.1-1.3l0-0.2c0-0.5,0.1-1,0.1-1.4c0,0,0.1-1.1,0.2-1.5l0.1-0.5c0-0.3,0.1-0.7,0.1-1.1l0.1-0.4
			c0.1-0.5,0.1-0.9,0.2-1.3l0.3-1.4l0.1-0.6c0,0,0.2-1,0.3-1.1c-1.5,1-3.3,1.5-5.2,1.5c-2,0-3.8-0.6-5.3-1.9
			c-3.1-2.5-4-7.1-2.1-10.9c0,0,0-0.1,0.1-0.1l-0.4-0.2c-2.3-1-3.4-3.6-2.7-6c0.6-2.2,2.6-3.6,4.8-3.6c0.2,0,0.5,0,0.8,0.1
			c3,0.4,5.9,1.2,8.7,2.1c0.5,0.2,1.4,0.5,2.3,1c1.9,0.1,3.8,0.6,5.6,1.3c11.3-20.4,32.8-33.3,56.3-33.3h37v-9.9
			c0-4.1,3.4-7.5,7.5-7.5c0.8,0,1.7,0.1,2.5,0.4c6.2,2.2,14,8.9,18.3,19.3l1.8-8.2c0.7-3.4,3.8-6,7.3-6c1.4,0,2.7,0.4,3.9,1.1
			c5.1,3.1,14.4,13.3,14.6,30.2c4.7,4.8,8.6,10.2,11.5,16.2c4.7,0.4,8.4,4.4,8.4,9.2c0,1.9-0.6,3.6-1.5,5.1
			c6.9,0.2,11.7,8.6,11.7,20.7c0,12.2-4.9,20.7-11.9,20.7c-0.4,0-0.7,0-1.1-0.1c-0.2,0-0.4,0-0.6,0h-4c-4.3,9.2-10.6,17.3-18.6,23.6
			l2.1,14.8c0,0.2,0,0.5,0,0.7c0,5.7-4.6,10.3-10.3,10.3h-12.9c-2.6,0-4.9-0.9-6.7-2.5c-2,1.9-4.7,3-7.6,3H201.9z"/>
		<path class="st0" d="M208.8,24.4c0.3,0,0.5,0,0.8,0.1c4.5,1.6,12.5,7.6,16.4,19.1c2.5,0.6,4.9,1.4,7.2,2.4l3-14.1
			c0.3-1.2,1.3-2,2.4-2c0.4,0,0.9,0.1,1.3,0.4c4.7,2.9,12.7,12.4,12.2,28c5.8,5.5,10.4,12.2,13.6,19.7c0.6-0.4,1.3-0.6,2.1-0.6
			c2.3,0,4.2,1.9,4.2,4.2c0,2.1-1.6,3.9-3.6,4.2c0.5,2,1,3.9,1.3,6h3.9c0.3,0,0.5,0,0.8,0.1c0.3-0.1,0.6-0.2,0.9-0.2
			c3.8,0,6.9,7,6.9,15.7c0,8.7-3.1,15.7-6.9,15.7c-0.3,0-0.6-0.1-0.8-0.1c-0.3,0-0.6,0.1-0.9,0.1h-7.3
			c-4.3,10.7-11.5,19.8-20.7,26.4c0.1,0.5,0.2,1,0.2,1.5l2.3,16.3c0,2.9-2.4,5.3-5.3,5.3h-12.9c-2.9,0-5.3-2.4-5.3-5.3l-0.4-8.1
			c-0.2,0-0.4,0.1-0.6,0.2l-1.9,8.9c-0.6,2.9-3.2,4.9-6.1,4.9h-13.7c-3.5,0-6.2-2.8-6.2-6.2v-6.2h-19.3v5.9c0,2.9-2.4,5.3-5.3,5.3
			h-12.2c-2.9,0-5.3-2.4-5.3-5.3v-6.9c-0.5-0.1-1.1-0.2-1.6-0.3v7.6c0,3.5-2.8,6.2-6.2,6.2h-12.5c-2,0-3.9-1-5.1-2.6
			c-5.9-8.3-23-35.5-23-69.2c0,0,0,0,0,0c0,0,0,0,0,0c0,0,0,0,0,0c0-0.5,0-0.9,0-1.4c0-0.1,0-0.3,0-0.4c0-0.3,0-0.7,0-1
			c0-0.1,0-0.3,0-0.4c0-0.4,0-0.8,0.1-1.2c0-0.1,0-0.1,0-0.2c0-0.4,0.1-0.9,0.1-1.3c0-0.1,0-0.3,0-0.4c0-0.3,0.1-0.6,0.1-0.9
			c0-0.2,0-0.3,0.1-0.5c0-0.3,0.1-0.7,0.1-1c0-0.1,0-0.2,0.1-0.4c0.1-0.4,0.1-0.8,0.2-1.2c0-0.2,0.1-0.4,0.1-0.5
			c0-0.3,0.1-0.5,0.1-0.8c0-0.2,0.1-0.4,0.1-0.6c0.1-0.2,0.1-0.5,0.2-0.7c0.1-0.3,0.1-0.5,0.2-0.8c0.1-0.3,0.1-0.6,0.2-0.9
			c0.1-0.2,0.1-0.5,0.2-0.7c0-0.2,0.1-0.3,0.1-0.5c0.1-0.3,0.1-0.5,0.2-0.8c0-0.1,0.1-0.3,0.1-0.4c0.3-0.9,0.6-1.9,0.9-2.8
			c0,0,0-0.1,0-0.1c0.1-0.3,0.2-0.7,0.4-1c0,0,0,0,0,0c0.2-0.4,0.3-0.8,0.5-1.3l-7.8-3.5c0.1,0.5,0.1,1.1,0.1,1.7
			c-0.1,1.9-0.8,3.8-2.2,5c-0.8,0.7-1.9,1.1-3,1.1c-0.8,0-1.6-0.2-2.2-0.7c-1.4-1.1-1.6-3.3-0.8-4.9c0.8-1.6,2.4-2.7,4-3.3
			c0.3-0.1,0.6-0.2,0.9-0.3l-7.7-3.5c2.7,0.4,5.3,1,7.9,1.9c0.7,0.2,1.5,0.5,2,1.1c0.1,0,0.1,0.1,0.1,0.2c0.2,0,0.5,0,0.7,0
			c3.2,0,6.4,1.3,8.7,3.5c9.2-20.8,30.1-35.4,54.3-35.4h42V26.9C206.3,25.5,207.5,24.4,208.8,24.4 M208.8,14.4
			C208.8,14.4,208.8,14.4,208.8,14.4C208.8,14.4,208.8,14.4,208.8,14.4c-3.3,0-6.4,1.3-8.8,3.6c-2.4,2.4-3.7,5.5-3.7,8.9v4.9h-32
			c-23.9,0-46,12.4-58.6,32.4c-0.6-0.1-1.3-0.2-1.9-0.3c-0.9-0.4-1.6-0.7-2.1-0.8c-3.1-1-6.3-1.8-9.6-2.3c-0.5-0.1-1-0.1-1.5-0.1
			c-4.4,0-8.3,2.9-9.6,7.2c-1,3.4-0.1,7,2.1,9.5c-0.8,4.9,0.9,9.9,4.7,13.1c2.1,1.7,4.7,2.7,7.5,2.9c0,0.1,0,0.3,0,0.4l0,0.1l0,0.4
			c-0.1,0.5-0.1,1-0.1,1.6l0,0.2c0,0.5-0.1,0.9-0.1,1.4l0,0.4l0,0.1c0,0.4,0,0.8,0,1.2l0,0.1l0,0.4c0,0.5,0,1.1,0,1.6
			c0,35.8,17.4,64.4,24.9,75c3,4.3,8,6.9,13.3,6.9h12.5c2.9,0,5.7-0.8,8.1-2.2c1.6,0.6,3.3,0.9,5.1,0.9H171c7,0,13-4.8,14.8-11.2
			h0.3c1.7,7.2,8.1,12.5,15.8,12.5h13.7c2.8,0,5.4-0.7,7.8-2c2,1,4.2,1.5,6.6,1.5h12.9c8.5,0,15.3-6.9,15.3-15.3
			c0-0.5,0-0.9-0.1-1.4l-1.7-12.1c6.8-5.8,12.3-12.8,16.4-20.7h0.9c0.1,0,0.3,0,0.4,0c0.4,0,0.9,0.1,1.3,0.1
			c9.9,0,16.9-10.6,16.9-25.7c0-11.5-4-20.3-10.3-23.9c0.1-0.6,0.1-1.2,0.1-1.8c0-6.4-4.3-11.8-10.1-13.6c-2.7-5-6.1-9.6-9.9-13.8
			c-0.9-17.9-10.8-28.7-17-32.4c-2-1.2-4.2-1.8-6.5-1.8c-4.6,0-8.7,2.5-10.9,6.4c-4.8-6-10.4-9.6-14.9-11.2
			C211.6,14.6,210.2,14.4,208.8,14.4L208.8,14.4L208.8,14.4z"/>
	</g>
	<g>
		<path class="st0" d="M54.7,177.5c-11.4,0-20.6-9.3-20.6-20.6v-30.3c0-11.4,9.3-20.6,20.6-20.6H85c11.4,0,20.6,9.3,20.6,20.6v30.3
			c0,11.4-9.3,20.6-20.6,20.6H54.7z"/>
		<path class="st0" d="M85,110.9c8.6,0,15.6,7,15.6,15.6v30.3c0,8.6-7,15.6-15.6,15.6H54.7c-8.6,0-15.6-7-15.6-15.6v-30.3
			c0-8.6,7-15.6,15.6-15.6H85 M85,100.9H54.7c-14.1,0-25.6,11.5-25.6,25.6v30.3c0,14.1,11.5,25.6,25.6,25.6H85
			c14.1,0,25.6-11.5,25.6-25.6v-30.3C110.7,112.4,99.2,100.9,85,100.9L85,100.9z"/>
	</g>
</g>
<g>
	<g>
		<path class="st0" d="M181.5,376.7c-2.9,0-5.6-1.1-7.6-2.9c-1.6,1-3.5,1.7-5.6,1.7h-12.2c-5.7,0-10.3-4.6-10.3-10.3v-0.9h-9.3v1.2
			c0,6.2-5,11.2-11.2,11.2h-13.7c-2.9,0-5.6-1.1-7.6-3c-1.8,1.6-4.2,2.5-6.7,2.5H84.3c-5.7,0-10.3-4.6-10.3-10.3c0-0.2,0-0.5,0-0.7
			l2.1-14.8c-8-6.3-14.4-14.4-18.6-23.6h-4c-0.2,0-0.4,0-0.6,0c-0.4,0.1-0.7,0.1-1.1,0.1c-7,0-11.9-8.5-11.9-20.7
			c0-12.1,4.8-20.5,11.7-20.7c-1-1.5-1.5-3.2-1.5-5.1c0-4.8,3.7-8.8,8.4-9.2c3-6,6.9-11.4,11.6-16.2c0.1-6.9,1.7-13.5,4.8-19.1
			c2.6-4.8,6.2-8.9,9.9-11.1c1.2-0.7,2.5-1.1,3.9-1.1c3.5,0,6.6,2.5,7.3,6l1.8,8.2c4.4-10.4,12.1-17.1,18.3-19.3
			c0.8-0.3,1.6-0.4,2.5-0.4c4.1,0,7.5,3.4,7.5,7.5v9.9h37c22.4,0,43.5,12.1,55.1,31.2c2-0.8,4-1.4,6.2-1.5c0.8-0.4,1.5-0.7,2.2-0.9
			c3-1,6-1.7,9.1-2.2c0.4-0.1,0.7-0.1,1.1-0.1c3.6,0,6.7,2.6,7.2,6.2c0.4,2.7-0.7,5.3-2.7,6.8c1.3,4.3,0,9.1-3.5,11.9
			c-1.9,1.5-4.3,2.4-6.8,2.4c-1.6,0-3.1-0.3-4.5-0.9l0,0.3c0.1,0.4,0.2,0.9,0.2,1.3c0,0,0.2,1.1,0.2,1.4l0.1,0.5
			c0,0.3,0.1,0.7,0.1,1l0,0.5c0,0.5,0.1,1,0.1,1.4c0,0,0,0.1,0,0.2c0,0.4,0.1,0.9,0.1,1.3l0,0.5c0,0.4,0.1,1.5,0.1,1.5
			c0,0.5,0,1,0,1.5c0,35.4-18.3,64.1-24,72.1c-2.1,3-5.5,4.7-9.2,4.7H181.5z"/>
		<path class="st0" d="M118.3,223.1c1.3,0,2.5,1.1,2.5,2.5v14.9h42c23.3,0,43.5,13.6,53.2,33.2c2.6-2.2,6.1-3.6,9.5-3.6
			c0.7-0.5,1.5-0.8,2.3-1.1c2.7-0.9,5.5-1.6,8.3-2c0.1,0,0.2,0,0.3,0c1.1,0,2.1,0.8,2.3,2c0.2,1.3-0.7,2.4-1.9,2.6
			c-1.2,0.2-2.5,0.4-3.7,0.7c1,0.7,2,1.7,2.7,3.1c1.3,2.7,0.7,6-1.4,7.7c-1,0.8-2.3,1.2-3.7,1.2c-1.6,0-3.2-0.6-4.5-1.7
			c-2.2-1.9-2.8-4.6-2.9-6.6c0-0.4,0-0.7,0-1c-2,0.5-3.9,1.6-5.2,3.2c0.1,0.3,0.2,0.5,0.3,0.7c0,0,0,0,0,0c0.1,0.3,0.2,0.7,0.4,1
			c0,0,0,0.1,0,0.1c0.3,0.9,0.6,1.9,0.9,2.8c0,0.1,0.1,0.3,0.1,0.4c0.1,0.3,0.1,0.5,0.2,0.8c0,0.2,0.1,0.3,0.1,0.5
			c0.1,0.2,0.1,0.5,0.2,0.7c0.1,0.3,0.1,0.6,0.2,0.9c0.1,0.3,0.1,0.5,0.2,0.8c0.1,0.2,0.1,0.5,0.2,0.7c0,0.2,0.1,0.4,0.1,0.6
			c0.1,0.3,0.1,0.5,0.1,0.8c0,0.2,0.1,0.4,0.1,0.5c0.1,0.4,0.1,0.8,0.2,1.2c0,0.1,0,0.2,0.1,0.4c0,0.3,0.1,0.7,0.1,1
			c0,0.2,0,0.3,0.1,0.5c0,0.3,0.1,0.6,0.1,0.9c0,0.1,0,0.3,0,0.4c0,0.4,0.1,0.9,0.1,1.3c0,0.1,0,0.1,0,0.2c0,0.4,0.1,0.8,0.1,1.2
			c0,0.1,0,0.3,0,0.4c0,0.3,0,0.7,0,1c0,0.1,0,0.3,0,0.4c0,0.5,0,0.9,0,1.4c0,0,0,0,0,0c0,0,0,0,0,0c0,0,0,0,0,0
			c0,33.7-17.2,60.9-23,69.2c-1.2,1.7-3.1,2.6-5.1,2.6h-12.5c-3.4,0-6.2-2.8-6.2-6.2v-7.6c-0.5,0.1-1.1,0.2-1.6,0.3v6.9
			c0,2.9-2.4,5.3-5.3,5.3h-12.2c-2.9,0-5.3-2.4-5.3-5.3v-5.9h-19.3v6.2c0,3.4-2.8,6.2-6.2,6.2h-13.7c-2.9,0-5.5-2.1-6.1-4.9
			l-1.9-8.9c-0.2,0-0.4-0.1-0.6-0.2l-0.4,8.1c0,2.9-2.4,5.3-5.3,5.3H84.3c-2.9,0-5.3-2.4-5.3-5.3l2.3-16.3c0-0.5,0.1-1,0.2-1.5
			c-9.2-6.6-16.5-15.7-20.7-26.4h-7.3c-0.3,0-0.6,0-0.9-0.1c-0.3,0.1-0.6,0.1-0.8,0.1c-3.8,0-6.9-7-6.9-15.7
			c0-8.7,3.1-15.7,6.9-15.7c0.3,0,0.6,0.1,0.9,0.2c0.3,0,0.5-0.1,0.8-0.1h3.9c0.3-2,0.8-4,1.3-6c-2.1-0.3-3.6-2-3.6-4.2
			c0-2.3,1.9-4.2,4.2-4.2c0.8,0,1.5,0.2,2.1,0.6c3.2-7.5,7.9-14.1,13.6-19.7c-0.5-15.6,7.5-25.2,12.2-28c0.4-0.2,0.8-0.4,1.3-0.4
			c1.1,0,2.2,0.8,2.4,2l3,14.1c2.3-0.9,4.8-1.7,7.2-2.4c3.9-11.6,11.8-17.6,16.4-19.1C117.7,223.1,118,223.1,118.3,223.1
			 M230.6,279.7c0.3,0,0.5-0.1,0.7-0.2c0.4-0.4,0.5-1.3,0.2-2c-0.6-1.2-2-1.9-2.8-2.2c-0.3-0.1-0.6-0.2-1-0.3c0,0.2,0,0.4,0,0.7
			c0.1,0.9,0.3,2.5,1.4,3.5C229.6,279.5,230.1,279.7,230.6,279.7 M118.3,213.1c-1.4,0-2.8,0.2-4.1,0.7c-4.5,1.6-10.1,5.3-14.9,11.2
			c-2.2-3.8-6.3-6.4-10.9-6.4c-2.3,0-4.5,0.6-6.5,1.8c-6.1,3.7-16.1,14.6-17,32.4c-3.9,4.2-7.2,8.8-9.9,13.8
			c-5.8,1.8-10.1,7.2-10.1,13.6c0,0.6,0,1.2,0.1,1.8c-6.3,3.6-10.3,12.5-10.3,23.9c0,15.1,6.9,25.7,16.9,25.7c0.4,0,0.9,0,1.3-0.1
			c0.1,0,0.3,0,0.4,0h0.9c4.1,7.8,9.6,14.8,16.4,20.7L69,364.4c-0.1,0.5-0.1,0.9-0.1,1.4c0,8.5,6.9,15.3,15.3,15.3h12.9
			c2.4,0,4.6-0.5,6.6-1.5c2.3,1.3,5,2,7.8,2h13.7c7.7,0,14.1-5.3,15.8-12.5h0.3c1.8,6.5,7.7,11.2,14.8,11.2h12.2
			c1.8,0,3.5-0.3,5.1-0.9c2.4,1.4,5.1,2.2,8.1,2.2h12.5c5.3,0,10.2-2.6,13.3-6.9c7.5-10.6,24.9-39.1,24.9-75c0-0.5,0-1.1,0-1.6
			l0-0.4l0-0.1c0-0.4,0-0.8,0-1.2l0-0.1l0-0.4c0-0.5-0.1-0.9-0.1-1.4l0-0.2c0-0.1,0-0.2,0-0.2c3.2-0.2,6.3-1.4,8.7-3.4
			c4.2-3.4,6.3-8.8,5.7-14.2c1.9-2.5,2.8-5.8,2.3-9.1c-0.9-6.1-6-10.5-12.2-10.5c-0.6,0-1.2,0-1.8,0.1c-3.4,0.5-6.7,1.3-10,2.4
			c-0.6,0.2-1.2,0.4-1.9,0.7c-0.9,0.1-1.8,0.3-2.7,0.5c-5.3-7.7-12.1-14.4-20.1-19.5c-11.1-7.1-23.9-10.8-37.1-10.8h-32v-4.9
			C130.8,218.7,125.2,213.1,118.3,213.1L118.3,213.1z"/>
	</g>
	<g>
		<path class="st0" d="M239.7,374.3c-11.4,0-20.6-9.3-20.6-20.6v-30.3c0-11.4,9.3-20.6,20.6-20.6h30.3c11.4,0,20.6,9.3,20.6,20.6
			v30.3c0,11.4-9.3,20.6-20.6,20.6H239.7z"/>
		<path class="st0" d="M270.1,307.7c8.6,0,15.6,7,15.6,15.6v30.3c0,8.6-7,15.6-15.6,15.6h-30.3c-8.6,0-15.6-7-15.6-15.6v-30.3
			c0-8.6,7-15.6,15.6-15.6H270.1 M270.1,297.7h-30.3c-14.1,0-25.6,11.5-25.6,25.6v30.3c0,14.1,11.5,25.6,25.6,25.6h30.3
			c14.1,0,25.6-11.5,25.6-25.6v-30.3C295.7,309.2,284.2,297.7,270.1,297.7L270.1,297.7z"/>
	</g>
</g>
<line class="st1" x1="28.3" y1="203.7" x2="312.3" y2="203.7"/>
<path class="st2" d="M171,171.7h-12.2c-2.9,0-5.3-2.4-5.3-5.3v-14.7c0-2.9,2.4-5.3,5.3-5.3H171c2.9,0,5.3,2.4,5.3,5.3v14.7
	C176.3,169.3,173.9,171.7,171,171.7z"/>
<path class="st2" d="M242.8,172.5h-12.9c-2.9,0-5.3-2.4-5.3-5.3l-0.8-16.3c0-2.9,2.4-5.3,5.3-5.3h11.4c2.9,0,5.3,2.4,5.3,5.3
	l2.3,16.3C248.2,170.1,245.8,172.5,242.8,172.5z"/>
<g>
	<path class="st3" d="M273.7,91.8h-3.9c-4.5-28.2-29.1-50-58.6-50h-46.9c-25.3,0-47,16.1-55.5,38.5c0,0,0,0,0,0
		c-0.1,0.3-0.2,0.7-0.4,1c0,0,0,0.1,0,0.1c-0.3,0.9-0.6,1.9-0.9,2.8c0,0.1-0.1,0.3-0.1,0.4c-0.1,0.3-0.1,0.5-0.2,0.8
		c0,0.2-0.1,0.3-0.1,0.5c-0.1,0.2-0.1,0.5-0.2,0.7c-0.1,0.3-0.1,0.6-0.2,0.9c-0.1,0.3-0.1,0.5-0.2,0.8c-0.1,0.2-0.1,0.5-0.2,0.7
		c0,0.2-0.1,0.4-0.1,0.6c-0.1,0.3-0.1,0.5-0.1,0.8c0,0.2-0.1,0.4-0.1,0.5c-0.1,0.4-0.1,0.8-0.2,1.2c0,0.1,0,0.2-0.1,0.4
		c0,0.3-0.1,0.7-0.1,1c0,0.2,0,0.3-0.1,0.5c0,0.3-0.1,0.6-0.1,0.9c0,0.1,0,0.3,0,0.4c0,0.4-0.1,0.9-0.1,1.3c0,0.1,0,0.1,0,0.2
		c0,0.4-0.1,0.8-0.1,1.2c0,0.1,0,0.3,0,0.4c0,0.3,0,0.7,0,1c0,0.1,0,0.3,0,0.4c0,0.5,0,0.9,0,1.4c0,0,0,0,0,0c0,0,0,0,0,0
		c0,0,0,0,0,0c0,33.7,17.2,60.9,23,69.2c1.2,1.7,3.1,2.6,5.1,2.6h12.5c3.4,0,6.2-2.8,6.2-6.2v-7.6c4,0.9,8.2,1.3,12.5,1.3h31.2v6.2
		c0,3.4,2.8,6.2,6.2,6.2h13.7c2.9,0,5.5-2.1,6.1-4.9l1.9-8.9c19.5-4.2,35.5-18,42.8-36.2h7.3c3.5,0,6.2-2.8,6.2-6.2V98
		C279.9,94.6,277.1,91.8,273.7,91.8z"/>
	<path class="st3" d="M236.2,31.9l-5.2,24.3c-0.7,3.4,1.4,6.7,4.8,7.4l8.7,1.9c3.7,0.8,7.3-1.8,7.5-5.6c1.1-16.6-7.3-26.7-12.2-29.6
		C238.5,29.4,236.6,30.3,236.2,31.9z"/>
	<path class="st3" d="M206.3,26.9v24.9c0,3.5,2.8,6.2,6.2,6.2h8.9c3.8,0,6.7-3.3,6.2-7c-2.4-16.5-12.7-24.5-18.1-26.4
		C208,24,206.3,25.2,206.3,26.9z"/>
	<g>
		<path class="st4" d="M195.5,52.5h-28.3c-1.7,0-3.1-1.4-3.1-3.1l0,0c0-1.7,1.4-3.1,3.1-3.1h28.3c1.7,0,3.1,1.4,3.1,3.1l0,0
			C198.6,51.1,197.2,52.5,195.5,52.5z"/>
	</g>
</g>
<circle class="st4" cx="267.9" cy="81.6" r="4.2"/>
<circle class="st4" cx="255.4" cy="81.6" r="4.2"/>
<ellipse class="st2" cx="275.4" cy="107.4" rx="6.9" ry="15.7"/>
<circle class="st3" cx="272.6" cy="108" r="2.1"/>
<circle class="st3" cx="279" cy="108" r="2.1"/>
<g>
	<path class="st2" d="M199.9,149.4h-43.4c-24.4,0-44.4-20-44.4-44.4v-4.1c0-24.4,20-44.4,44.4-44.4h43.4c24.4,0,44.4,20,44.4,44.4
		v4.1C244.3,129.4,224.3,149.4,199.9,149.4z"/>
	<g>
		<path class="st4" d="M120.5,107.3c0-23.6,20.6-43,45.8-43h40.5c10.5,0,20.2,3.4,27.9,9c-8.4-10.2-21.6-16.8-36.3-16.8H158
			c-25.2,0-45.8,19.3-45.8,43v7c0,13.8,7,26.1,17.9,34c-6-7.3-9.6-16.3-9.6-26.2V107.3z"/>
	</g>
</g>
<path class="st5" d="M112.5,80.5c-2.5-5.3-9.4-8.1-14.9-6c-1.7,0.6-3.2,1.7-4,3.3c-0.8,1.6-0.6,3.7,0.8,4.9c1.4,1.2,3.7,0.8,5.1-0.4
	c1.4-1.2,2-3.2,2.2-5c0.1-1.3-0.1-2.7-1-3.6c-0.5-0.5-1.3-0.8-2-1.1c-2.6-0.9-5.2-1.5-7.9-1.9"/>
<g>
	<path class="st4" d="M225.4,103.2l-4.1-27.8c-0.4-2.5-2.8-4.3-5.3-3.9l-50.4,7.5c-2.5,0.4-4.3,2.8-3.9,5.3l4.1,27.7
		c0.4,2.5,2.8,4.3,5.3,3.9l0,0.1l50.4-7.5C224,108.2,225.8,105.8,225.4,103.2z"/>
	
		<ellipse transform="matrix(0.7071 -0.7071 0.7071 0.7071 -46.1294 141.7892)" class="st4" cx="148.1" cy="126.6" rx="13.7" ry="13.7"/>
	
		<ellipse transform="matrix(0.9732 -0.2298 0.2298 0.9732 -23.7228 50.6938)" class="st4" cx="205.8" cy="127.2" rx="13.7" ry="13.7"/>
	<circle class="st4" cx="178.3" cy="134.4" r="11.4"/>
</g>
<g>
	<g>
		<g>
			<g>
				<path class="st6" d="M168.8,114.5c-2.5,0.4-4.9-1.4-5.3-3.9l-4.1-27.7c-0.4-2.5,1.4-4.9,3.9-5.3l50.4-7.5
					c2.5-0.4,4.9,1.4,5.3,3.9l4.1,27.8c0.4,2.5-1.4,4.9-3.9,5.3L168.8,114.5L168.8,114.5z"/>
			</g>
			<g>
				<path class="st7" d="M213.5,103.1l-40.3,6c-0.4-2.7-3-4.7-5.8-4.3l-2.6-17.6c2.7-0.4,4.7-3,4.3-5.8l40.3-6
					c0.4,2.7,3,4.7,5.8,4.3l2.6,17.6C215,97.7,213.1,100.3,213.5,103.1z"/>
			</g>
		</g>
		<g>
			<circle class="st8" cx="165.2" cy="83.1" r="2"/>
			<circle class="st8" cx="213.7" cy="75.9" r="2"/>
		</g>
		<g>
			<circle class="st8" cx="169.1" cy="108.9" r="2"/>
			<circle class="st8" cx="217.6" cy="101.6" r="2"/>
		</g>
		<g>
			<circle class="st6" cx="172.6" cy="85.7" r="1.2"/>
		</g>
		<g>
			<ellipse class="st6" cx="176.5" cy="86.6" rx="1.2" ry="1.2"/>
		</g>
		<g>
			<ellipse transform="matrix(0.989 -0.1476 0.1476 0.989 -9.7399 30.8363)" class="st6" cx="202.9" cy="81" rx="1.2" ry="1.2"/>
		</g>
		<g>
			<circle class="st6" cx="168.4" cy="90.4" r="1.2"/>
		</g>
		<g>
			<circle class="st6" cx="175" cy="105.3" r="1.2"/>
		</g>
		<g>
			<ellipse class="st6" cx="178.9" cy="102" rx="1.2" ry="1.2"/>
		</g>
		<g>
			<circle class="st6" cx="170.2" cy="102.4" r="1.2"/>
		</g>
		<g>
			<circle class="st6" cx="168.8" cy="97.1" r="1.2"/>
		</g>
		<g>
			<ellipse transform="matrix(0.989 -0.1476 0.1476 0.989 -9.7451 31.7277)" class="st6" cx="208.9" cy="81.5" rx="1.2" ry="1.2"/>
		</g>
		<g>
			<ellipse transform="matrix(0.989 -0.1476 0.1476 0.989 -10.8009 31.5927)" class="st6" cx="207.5" cy="88.6" rx="1.2" ry="1.2"/>
		</g>
		<g>
			<ellipse transform="matrix(0.989 -0.1476 0.1476 0.989 -10.282 32.3418)" class="st6" cx="212.8" cy="85.5" rx="1.2" ry="1.2"/>
		</g>
		<g>
			<ellipse transform="matrix(0.989 -0.1476 0.1476 0.989 -11.3251 32.4741)" class="st6" cx="213.2" cy="92.5" rx="1.2" ry="1.2"/>
		</g>
		<g>
			<ellipse transform="matrix(0.989 -0.1476 0.1476 0.989 -11.5652 31.8687)" class="st6" cx="209" cy="93.9" rx="1.2" ry="1.2"/>
		</g>
		<g>
			<ellipse transform="matrix(0.989 -0.1476 0.1476 0.989 -12.3188 31.3475)" class="st6" cx="205.1" cy="98.7" rx="1.2" ry="1.2"/>
		</g>
		<g>
			<ellipse class="st6" cx="210.7" cy="99.2" rx="1.2" ry="1.2"/>
		</g>
		<path id="XMLID_104_" class="st0" d="M174.5,100.1c-0.2,0-0.4-0.1-0.4-0.3l-0.1-0.5c-0.7,0-1.2,0-1.8-0.4l0.1,0.5
			c0,0.2-0.1,0.4-0.3,0.4c-0.2,0-0.4-0.1-0.4-0.3l-0.3-2.1c0-0.2,0.1-0.4,0.3-0.4c0.2,0,0.4,0.1,0.4,0.3l0.1,0.8
			c0.4,0.4,0.7,0.4,1.4,0.6c0.2,0,0.3,0.1,0.5,0.1l-0.5-3.3c-0.7-0.1-1.2-0.2-1.5-0.3c-0.4-0.1-0.7-0.3-0.9-0.5
			c-0.2-0.2-0.4-0.5-0.5-0.9c-0.1-0.7,0-1.2,0.4-1.7c0.4-0.4,1-0.7,1.9-0.9l-0.1-0.4c0-0.2,0.1-0.4,0.3-0.4c0.2,0,0.4,0.1,0.4,0.3
			l0.1,0.5c0.6,0,1.2,0.1,1.7,0.4c0.1,0.1,0.1,0.1,0.2,0.2l-0.1-0.5c0-0.2,0.1-0.4,0.3-0.4c0.2,0,0.4,0.1,0.4,0.3l0.3,2.1
			c0,0.2-0.1,0.4-0.3,0.4c-0.2,0-0.4-0.1-0.4-0.3l-0.1-0.7c-0.4-0.4-0.8-0.7-1.4-0.8c-0.2,0-0.3-0.1-0.5-0.1l0.5,3.1
			c0.1,0,0.3,0,0.5,0.1c0.4,0,0.9,0.1,1.2,0.2c0.4,0.1,0.7,0.3,0.9,0.5c0.2,0.2,0.4,0.6,0.5,0.9c0.1,0.7-0.1,1.3-0.5,1.8
			c-0.4,0.5-1.1,0.8-2,0.9l0.1,0.4C174.8,99.9,174.7,100,174.5,100.1 M172.9,98.8c0.1,0,0.1,0,0.2,0C173.1,98.8,173,98.8,172.9,98.8
			 M174.2,95.5l0.5,3.1c0.7-0.1,1.2-0.3,1.5-0.7c0.3-0.4,0.5-0.8,0.4-1.2c0-0.3-0.1-0.5-0.3-0.6c-0.2-0.2-0.4-0.3-0.7-0.4
			c-0.3-0.1-0.5-0.1-0.8-0.1L174.2,95.5z M176.5,98c0,0.1-0.1,0.1-0.1,0.2c-0.1,0.1-0.1,0.1-0.2,0.2c0.1-0.1,0.2-0.1,0.3-0.3
			C176.5,98,176.5,98,176.5,98 M172.9,91.7c-0.7,0.1-1.1,0.3-1.4,0.6c-0.3,0.3-0.4,0.7-0.3,1.1c0,0.3,0.1,0.5,0.3,0.6
			c0.2,0.2,0.4,0.3,0.7,0.4c0.3,0.1,0.5,0.1,0.8,0.2c0.2,0,0.3,0.1,0.4,0L172.9,91.7L172.9,91.7z"/>
		<g id="XMLID_85_">
			<g id="XMLID_102_">
				<path id="XMLID_103_" class="st9" d="M193,105.7c-0.6,0.1-1,0.6-0.9,1.2l0.5-0.1c0-0.3,0.1-0.5,0.4-0.6s0.5,0.1,0.6,0.4l0.5-0.1
					C194.1,106,193.6,105.6,193,105.7z"/>
			</g>
			<g id="XMLID_100_">
				<path id="XMLID_101_" class="st9" d="M190.3,106.1c-0.6,0.1-1,0.6-0.9,1.2l0.5-0.1c0-0.3,0.1-0.5,0.4-0.6s0.5,0.1,0.6,0.4
					l0.5-0.1C191.4,106.4,190.9,106,190.3,106.1z"/>
			</g>
			<g id="XMLID_98_">
				<path id="XMLID_99_" class="st9" d="M195.8,105.3c-0.6,0.1-1,0.6-0.9,1.2l0.5-0.1c0-0.3,0.1-0.5,0.4-0.6c0.3,0,0.5,0.1,0.6,0.4
					l0.5-0.1C196.9,105.6,196.3,105.2,195.8,105.3z"/>
			</g>
			<g id="XMLID_96_">
				<path id="XMLID_97_" class="st9" d="M184.9,106.9c-0.6,0.1-1,0.6-0.9,1.2l0.5-0.1c0-0.3,0.1-0.5,0.4-0.6s0.5,0.1,0.6,0.4
					l0.5-0.1C186,107.2,185.5,106.8,184.9,106.9z"/>
			</g>
			<g id="XMLID_94_">
				<path id="XMLID_95_" class="st9" d="M182.1,107.3c-0.6,0.1-1,0.6-0.9,1.2l0.5-0.1c0-0.3,0.1-0.5,0.4-0.6c0.3,0,0.5,0.1,0.6,0.4
					l0.5-0.1C183.3,107.6,182.7,107.2,182.1,107.3z"/>
			</g>
			<g id="XMLID_92_">
				<path id="XMLID_93_" class="st9" d="M187.6,106.5c-0.6,0.1-1,0.6-0.9,1.2l0.5-0.1c0-0.3,0.1-0.5,0.4-0.6s0.5,0.1,0.6,0.4
					l0.5-0.1C188.7,106.8,188.2,106.4,187.6,106.5z"/>
			</g>
			<g id="XMLID_90_">
				<path id="XMLID_91_" class="st9" d="M201.2,104.4c-0.6,0.1-1,0.6-0.9,1.2l0.5-0.1c0-0.3,0.1-0.5,0.4-0.6c0.3,0,0.5,0.1,0.6,0.4
					l0.5-0.1C202.3,104.8,201.8,104.4,201.2,104.4z"/>
			</g>
			<g id="XMLID_88_">
				<path id="XMLID_89_" class="st9" d="M198.5,104.9c-0.6,0.1-1,0.6-0.9,1.2l0.5-0.1c0-0.3,0.1-0.5,0.4-0.6s0.5,0.1,0.6,0.4
					l0.5-0.1C199.6,105.2,199,104.8,198.5,104.9z"/>
			</g>
			<g id="XMLID_86_">
				<path id="XMLID_87_" class="st9" d="M203.9,104c-0.6,0.1-1,0.6-0.9,1.2l0.5-0.1c0-0.3,0.1-0.5,0.4-0.6c0.3,0,0.5,0.1,0.6,0.4
					l0.5-0.1C205,104.4,204.5,104,203.9,104z"/>
			</g>
		</g>
		<g id="XMLID_8_">
			<g id="XMLID_83_">
				<path id="XMLID_84_" class="st9" d="M189,78.9c0.6-0.1,1-0.6,0.9-1.2l-0.5,0.1c0,0.3-0.1,0.5-0.4,0.6c-0.3,0-0.5-0.1-0.6-0.4
					l-0.5,0.1C187.9,78.6,188.5,79,189,78.9z"/>
			</g>
			<g id="XMLID_81_">
				<path id="XMLID_82_" class="st9" d="M191.8,78.5c0.6-0.1,1-0.6,0.9-1.2l-0.5,0.1c0,0.3-0.1,0.5-0.4,0.6s-0.5-0.1-0.6-0.4
					l-0.5,0.1C190.7,78.2,191.2,78.6,191.8,78.5z"/>
			</g>
			<g id="XMLID_79_">
				<path id="XMLID_80_" class="st9" d="M186.3,79.3c0.6-0.1,1-0.6,0.9-1.2l-0.5,0.1c0,0.3-0.1,0.5-0.4,0.6s-0.5-0.1-0.6-0.4
					l-0.5,0.1C185.2,79,185.8,79.4,186.3,79.3z"/>
			</g>
			<g id="XMLID_77_">
				<path id="XMLID_78_" class="st9" d="M197.2,77.7c0.6-0.1,1-0.6,0.9-1.2l-0.5,0.1c0,0.3-0.1,0.5-0.4,0.6s-0.5-0.1-0.6-0.4
					l-0.5,0.1C196.1,77.3,196.6,77.7,197.2,77.7z"/>
			</g>
			<g id="XMLID_75_">
				<path id="XMLID_76_" class="st9" d="M199.9,77.3c0.6-0.1,1-0.6,0.9-1.2l-0.5,0.1c0,0.3-0.1,0.5-0.4,0.6c-0.3,0-0.5-0.1-0.6-0.4
					l-0.5,0.1C198.8,76.9,199.3,77.3,199.9,77.3z"/>
			</g>
			<g id="XMLID_73_">
				<path id="XMLID_74_" class="st9" d="M194.5,78.1c0.6-0.1,1-0.6,0.9-1.2l-0.5,0.1c0,0.3-0.1,0.5-0.4,0.6s-0.5-0.1-0.6-0.4
					l-0.5,0.1C193.4,77.8,193.9,78.2,194.5,78.1z"/>
			</g>
			<g id="XMLID_71_">
				<path id="XMLID_72_" class="st9" d="M180.9,80.1c0.6-0.1,1-0.6,0.9-1.2l-0.5,0.1c0,0.3-0.1,0.5-0.4,0.6c-0.3,0-0.5-0.1-0.6-0.4
					l-0.5,0.1C179.8,79.8,180.3,80.2,180.9,80.1z"/>
			</g>
			<g id="XMLID_69_">
				<path id="XMLID_70_" class="st9" d="M183.6,79.7c0.6-0.1,1-0.6,0.9-1.2l-0.5,0.1c0,0.3-0.1,0.5-0.4,0.6c-0.3,0-0.5-0.1-0.6-0.4
					l-0.5,0.1C182.5,79.4,183,79.8,183.6,79.7z"/>
			</g>
			<g id="XMLID_29_">
				<path id="XMLID_68_" class="st9" d="M178.2,80.5c0.6-0.1,1-0.6,0.9-1.2l-0.5,0.1c0,0.3-0.1,0.5-0.4,0.6s-0.5-0.1-0.6-0.4
					l-0.5,0.1C177,80.2,177.6,80.6,178.2,80.5z"/>
			</g>
		</g>
	</g>
	<circle class="st8" cx="191.1" cy="92" r="12.8"/>
	<g>
		<ellipse transform="matrix(0.989 -0.1476 0.1476 0.989 -11.4879 29.2204)" class="st7" cx="191.1" cy="92" rx="11.1" ry="11.1"/>
	</g>
	<g>
		<text transform="matrix(0.989 -0.1476 0.1476 0.989 182.0916 99.0763)" class="st0 st10 st11">20</text>
	</g>
</g>
<g>
	<g>
		<g>
			<path class="st12" d="M145.8,138.7c-7.5,0-13.7-6.2-13.7-13.7c0-7.5,6.2-13.7,13.7-13.7c7.5,0,13.7,6.2,13.7,13.7
				C159.5,132.6,153.4,138.7,145.8,138.7z"/>
		</g>
		<circle class="st13" cx="145.8" cy="125" r="9.9"/>
	</g>
	<g>
		<g>
			<ellipse class="st14" cx="145.8" cy="125" rx="11" ry="11"/>
		</g>
	</g>
	<g>
		<text transform="matrix(1 0 0 1 138.8807 129.0625)" class="st15 st10 st16">10</text>
	</g>
</g>
<g>
	<g>
		<g>
			<path class="st12" d="M203.5,139.4c-7.5,0-13.7-6.2-13.7-13.7c0-7.5,6.2-13.7,13.7-13.7c7.5,0,13.7,6.2,13.7,13.7
				C217.2,133.2,211.1,139.4,203.5,139.4z"/>
		</g>
		<circle class="st13" cx="203.5" cy="125.7" r="9.9"/>
	</g>
	<g>
		<g>
			<ellipse class="st14" cx="203.5" cy="125.7" rx="11" ry="11"/>
		</g>
	</g>
	<g>
		<text transform="matrix(1 0 0 1 196.6224 129.7046)" class="st15 st10 st16">10</text>
	</g>
</g>
<g>
	<g>
		<g>
			<circle class="st12" cx="176" cy="132.8" r="11.4"/>
		</g>
		<circle class="st17" cx="176" cy="132.8" r="7.5"/>
		<g>
			<text transform="matrix(1 0 0 1 172.3602 137.1699)" class="st18 st10 st19">5</text>
		</g>
	</g>
	<g>
		<g>
			<ellipse class="st20" cx="176" cy="132.8" rx="9.2" ry="9.2"/>
		</g>
	</g>
	<path id="XMLID_7_" class="st18" d="M171.7,134.5C171.7,134.5,171.7,134.6,171.7,134.5C171.7,134.6,171.7,134.5,171.7,134.5
		 M173.5,134.4C173.5,134.4,173.4,134.5,173.5,134.4c-0.1,0.1-0.2,0.1-0.2,0.1C173.3,134.5,173.4,134.5,173.5,134.4
		C173.5,134.4,173.5,134.4,173.5,134.4"/>
</g>
<g>
	<g>
		<path class="st21" d="M54.7,170.2c-7.3,0-13.3-6-13.3-13.3v-30.3c0-7.3,6-13.3,13.3-13.3H85c7.3,0,13.3,6,13.3,13.3v30.3
			c0,7.3-6,13.3-13.3,13.3H54.7z"/>
		<path class="st22" d="M85,115.5c6.1,0,11,5,11,11v30.3c0,6.1-5,11-11,11H54.7c-6.1,0-11-5-11-11v-30.3c0-6.1,5-11,11-11H85
			 M85,110.9H54.7c-8.6,0-15.6,7-15.6,15.6v30.3c0,8.6,7,15.6,15.6,15.6H85c8.6,0,15.6-7,15.6-15.6v-30.3
			C100.7,118,93.6,110.9,85,110.9L85,110.9z"/>
	</g>
	<text transform="matrix(1 0 0 1 54.9085 153.5049)" class="st0 st23 st24">A</text>
</g>
<ellipse transform="matrix(0.9732 -0.2298 0.2298 0.9732 -17.3578 35.9061)" class="st4" cx="145.5" cy="92.5" rx="10" ry="10"/>
<g>
	<g>
		<g>
			<circle class="st25" cx="143.8" cy="91.4" r="10"/>
		</g>
		<circle class="st25" cx="143.8" cy="91.4" r="6.5"/>
		<g>
			<text transform="matrix(1 0 0 1 139.5472 95.4678)" class="st18 st10 st26">1</text>
		</g>
	</g>
	<g>
		<g>
			<ellipse class="st27" cx="143.8" cy="91.4" rx="8" ry="8"/>
		</g>
	</g>
	<path id="XMLID_106_" class="st18" d="M140.1,92.9C140.1,92.9,140.1,92.9,140.1,92.9C140.1,92.9,140.1,92.9,140.1,92.9"/>
</g>
<path class="st2" d="M156.1,370.4h12.2c2.9,0,5.3-2.4,5.3-5.3v-14.7c0-2.9-2.4-5.3-5.3-5.3h-12.2c-2.9,0-5.3,2.4-5.3,5.3V365
	C150.8,368,153.2,370.4,156.1,370.4z"/>
<path class="st2" d="M84.3,371.1h12.9c2.9,0,5.3-2.4,5.3-5.3l0.8-16.3c0-2.9-2.4-5.3-5.3-5.3H86.6c-2.9,0-5.3,2.4-5.3,5.3l-2.3,16.3
	C78.9,368.7,81.3,371.1,84.3,371.1z"/>
<g>
	<path class="st3" d="M53.4,290.4h3.9c4.5-28.2,29.1-50,58.6-50h46.9c25.3,0,47,16.1,55.5,38.5c0,0,0,0,0,0c0.1,0.3,0.2,0.7,0.4,1
		c0,0,0,0.1,0,0.1c0.3,0.9,0.6,1.9,0.9,2.8c0,0.1,0.1,0.3,0.1,0.4c0.1,0.3,0.1,0.5,0.2,0.8c0,0.2,0.1,0.3,0.1,0.5
		c0.1,0.2,0.1,0.5,0.2,0.7c0.1,0.3,0.1,0.6,0.2,0.9c0.1,0.3,0.1,0.5,0.2,0.8c0.1,0.2,0.1,0.5,0.2,0.7c0,0.2,0.1,0.4,0.1,0.6
		c0.1,0.3,0.1,0.5,0.1,0.8c0,0.2,0.1,0.4,0.1,0.5c0.1,0.4,0.1,0.8,0.2,1.2c0,0.1,0,0.2,0.1,0.4c0,0.3,0.1,0.7,0.1,1
		c0,0.2,0,0.3,0.1,0.5c0,0.3,0.1,0.6,0.1,0.9c0,0.1,0,0.3,0,0.4c0,0.4,0.1,0.9,0.1,1.3c0,0.1,0,0.1,0,0.2c0,0.4,0.1,0.8,0.1,1.2
		c0,0.1,0,0.3,0,0.4c0,0.3,0,0.7,0,1c0,0.1,0,0.3,0,0.4c0,0.5,0,0.9,0,1.4c0,0,0,0,0,0c0,0,0,0,0,0c0,0,0,0,0,0
		c0,33.7-17.2,60.9-23,69.2c-1.2,1.7-3.1,2.6-5.1,2.6h-12.5c-3.4,0-6.2-2.8-6.2-6.2v-7.6c-4,0.9-8.2,1.3-12.5,1.3h-31.2v6.2
		c0,3.4-2.8,6.2-6.2,6.2h-13.7c-2.9,0-5.5-2.1-6.1-4.9l-1.9-8.9c-19.5-4.2-35.5-18-42.8-36.2h-7.3c-3.5,0-6.2-2.8-6.2-6.2v-18.7
		C47.1,293.2,49.9,290.4,53.4,290.4z"/>
	<path class="st3" d="M87.1,228.9c-4.9,3-13.3,13-12.2,29.6c0.3,3.8,3.9,6.4,7.5,5.6l8.7-1.9c3.4-0.7,5.5-4,4.8-7.4l-5.2-24.3
		C90.5,228.9,88.6,228.1,87.1,228.9z"/>
	<path class="st3" d="M117.5,223.2c-5.4,1.9-15.7,10-18.1,26.4c-0.5,3.7,2.4,7,6.2,7h8.9c3.5,0,6.2-2.8,6.2-6.2v-24.9
		C120.8,223.9,119.1,222.6,117.5,223.2z"/>
	<g>
		<path class="st4" d="M128.5,248L128.5,248c0-1.7,1.4-3.1,3.1-3.1H160c1.7,0,3.1,1.4,3.1,3.1l0,0c0,1.7-1.4,3.1-3.1,3.1h-28.3
			C129.9,251.1,128.5,249.7,128.5,248z"/>
	</g>
</g>
<circle class="st4" cx="59.2" cy="280.3" r="4.2"/>
<circle class="st4" cx="71.7" cy="280.3" r="4.2"/>
<ellipse class="st2" cx="51.7" cy="306" rx="6.9" ry="15.7"/>
<circle class="st3" cx="54.5" cy="306.7" r="2.1"/>
<circle class="st3" cx="48.1" cy="306.7" r="2.1"/>
<g>
	<path class="st2" d="M127.2,348h43.4c24.4,0,44.4-20,44.4-44.4v-4.1c0-24.4-20-44.4-44.4-44.4h-43.4c-24.4,0-44.4,20-44.4,44.4v4.1
		C82.8,328.1,102.7,348,127.2,348z"/>
	<g>
		<path class="st4" d="M206.6,305.9c0-23.6-20.6-43-45.8-43h-40.5c-10.5,0-20.2,3.4-27.9,9c8.4-10.2,21.6-16.8,36.3-16.8h40.5
			c25.2,0,45.8,19.3,45.8,43v7c0,13.8-7,26.1-17.9,34c6-7.3,9.6-16.3,9.6-26.2V305.9z"/>
	</g>
</g>
<path class="st5" d="M214.6,279.1c2.5-5.3,9.4-8.1,14.9-6c1.7,0.6,3.2,1.7,4,3.3c0.8,1.6,0.6,3.7-0.8,4.9c-1.4,1.2-3.7,0.8-5.1-0.4
	c-1.4-1.2-2-3.2-2.2-5c-0.1-1.3,0.1-2.7,1-3.6c0.5-0.5,1.3-0.8,2-1.1c2.6-0.9,5.2-1.5,7.9-1.9"/>
<g>
	<g>
		<path class="st21" d="M239.7,367c-7.3,0-13.3-6-13.3-13.3v-30.3c0-7.3,6-13.3,13.3-13.3h30.3c7.3,0,13.3,6,13.3,13.3v30.3
			c0,7.3-6,13.3-13.3,13.3H239.7z"/>
		<path class="st22" d="M270.1,312.3c6.1,0,11,5,11,11v30.3c0,6.1-5,11-11,11h-30.3c-6.1,0-11-5-11-11v-30.3c0-6.1,5-11,11-11H270.1
			 M270.1,307.7h-30.3c-8.6,0-15.6,7-15.6,15.6v30.3c0,8.6,7,15.6,15.6,15.6h30.3c8.6,0,15.6-7,15.6-15.6v-30.3
			C285.7,314.7,278.7,307.7,270.1,307.7L270.1,307.7z"/>
	</g>
	<text transform="matrix(1 0 0 1 239.9574 353.0391)" class="st0 st23 st24">B</text>
</g>
<g>
	<path class="st4" d="M164.3,274.2c-0.2-2.6-2.4-4.5-5-4.3l-50.8,3.5c-2.6,0.2-4.5,2.4-4.3,5l1.9,28c0.2,2.6,2.4,4.5,5,4.3l0,0.1
		l50.8-3.5c2.6-0.2,4.5-2.4,4.3-5L164.3,274.2z"/>
	
		<ellipse transform="matrix(0.4541 -0.8909 0.8909 0.4541 -230.3004 283.6609)" class="st4" cx="116.3" cy="329.8" rx="11.4" ry="11.4"/>
	
		<ellipse transform="matrix(0.9966 -8.211459e-02 8.211459e-02 0.9966 -23.7904 16.0913)" class="st4" cx="183.7" cy="297.3" rx="11.4" ry="11.4"/>
	<circle class="st4" cx="152.1" cy="329.4" r="11.9"/>
	<circle class="st4" cx="181.6" cy="325.8" r="11.9"/>
</g>
<g>
	<g>
		<g>
			<g>
				<path class="st6" d="M109.5,308.5c-2.6,0.2-4.8-1.8-5-4.3l-1.9-28c-0.2-2.6,1.8-4.8,4.3-5l50.8-3.5c2.6-0.2,4.8,1.8,5,4.3
					l1.9,28c0.2,2.6-1.8,4.8-4.3,5L109.5,308.5L109.5,308.5z"/>
			</g>
			<g>
				<path class="st7" d="M154.9,300.7l-40.7,2.8c-0.2-2.8-2.7-4.9-5.4-4.7l-1.2-17.8c2.8-0.2,4.9-2.7,4.7-5.4l40.7-2.8
					c0.2,2.8,2.7,4.9,5.4,4.7l1.2,17.8C156.8,295.4,154.7,297.9,154.9,300.7z"/>
			</g>
		</g>
		<g>
			<circle class="st8" cx="108.4" cy="277" r="2"/>
			<circle class="st8" cx="157.3" cy="273.6" r="2"/>
		</g>
		<g>
			<circle class="st8" cx="110.2" cy="302.9" r="2"/>
			<circle class="st8" cx="159.1" cy="299.5" r="2"/>
		</g>
		<g>
			<circle class="st6" cx="115.5" cy="280.1" r="1.2"/>
		</g>
		<g>
			<ellipse class="st6" cx="119.4" cy="281.3" rx="1.2" ry="1.2"/>
		</g>
		<g>
			
				<ellipse transform="matrix(0.9976 -6.941186e-02 6.941186e-02 0.9976 -18.9341 10.8117)" class="st6" cx="146.1" cy="277.9" rx="1.2" ry="1.2"/>
		</g>
		<g>
			<circle class="st6" cx="110.9" cy="284.5" r="1.2"/>
		</g>
		<g>
			<circle class="st6" cx="116.3" cy="299.9" r="1.2"/>
		</g>
		<g>
			<ellipse class="st6" cx="120.5" cy="296.9" rx="1.2" ry="1.2"/>
		</g>
		<g>
			<circle class="st6" cx="111.9" cy="296.6" r="1.2"/>
		</g>
		<g>
			<circle class="st6" cx="110.8" cy="291.2" r="1.2"/>
		</g>
		<g>
			
				<ellipse transform="matrix(0.9976 -6.941198e-02 6.941198e-02 0.9976 -18.9858 11.2268)" class="st6" cx="152.1" cy="278.8" rx="1.2" ry="1.2"/>
		</g>
		<g>
			
				<ellipse transform="matrix(0.9976 -6.941193e-02 6.941193e-02 0.9976 -19.4704 11.1055)" class="st6" cx="150.1" cy="285.7" rx="1.2" ry="1.2"/>
		</g>
		<g>
			
				<ellipse transform="matrix(0.9976 -6.941206e-02 6.941206e-02 0.9976 -19.27 11.4833)" class="st6" cx="155.6" cy="283" rx="1.2" ry="1.2"/>
		</g>
		<g>
			
				<ellipse transform="matrix(0.9976 -6.941192e-02 6.941192e-02 0.9976 -19.7633 11.4873)" class="st6" cx="155.4" cy="290.1" rx="1.2" ry="1.2"/>
		</g>
		<g>
			
				<ellipse transform="matrix(0.9976 -6.941185e-02 6.941185e-02 0.9976 -19.8418 11.1919)" class="st6" cx="151.1" cy="291.1" rx="1.2" ry="1.2"/>
		</g>
		<g>
			
				<ellipse transform="matrix(0.9976 -6.941195e-02 6.941195e-02 0.9976 -20.1642 10.9074)" class="st6" cx="146.9" cy="295.6" rx="1.2" ry="1.2"/>
		</g>
		<g>
			<ellipse class="st6" cx="152.4" cy="296.6" rx="1.2" ry="1.2"/>
		</g>
		<path id="XMLID_122_" class="st0" d="M116.3,294.6c-0.2,0-0.4-0.1-0.4-0.3l0-0.5c-0.7-0.1-1.2-0.1-1.8-0.6l0,0.5
			c0,0.2-0.1,0.4-0.3,0.4c-0.2,0-0.4-0.1-0.4-0.3l-0.1-2.1c0-0.2,0.1-0.4,0.3-0.4c0.2,0,0.4,0.1,0.4,0.3l0.1,0.8
			c0.4,0.4,0.7,0.5,1.3,0.7c0.2,0,0.3,0.1,0.5,0.1l-0.2-3.3c-0.7-0.2-1.2-0.3-1.5-0.4c-0.4-0.1-0.7-0.4-0.9-0.6
			c-0.2-0.2-0.4-0.6-0.4-0.9c0-0.7,0.1-1.2,0.6-1.7c0.4-0.4,1.1-0.7,1.9-0.8l0-0.4c0-0.2,0.1-0.4,0.3-0.4c0.2,0,0.4,0.1,0.4,0.3
			l0,0.5c0.6,0.1,1.2,0.2,1.7,0.5c0.1,0.1,0.1,0.2,0.2,0.2l0-0.5c0-0.2,0.1-0.4,0.3-0.4c0.2,0,0.4,0.1,0.4,0.3l0.1,2.1
			c0,0.2-0.1,0.4-0.3,0.4s-0.4-0.1-0.4-0.3l-0.1-0.7c-0.4-0.4-0.8-0.7-1.4-0.9c-0.2,0-0.3-0.1-0.5-0.1l0.2,3.1c0.1,0,0.3,0,0.5,0.1
			c0.4,0.1,0.9,0.2,1.2,0.3c0.4,0.1,0.7,0.4,0.9,0.6s0.4,0.6,0.4,1c0.1,0.7-0.2,1.3-0.7,1.8c-0.4,0.5-1.2,0.7-2,0.8l0,0.4
			C116.6,294.5,116.5,294.6,116.3,294.6 M114.8,293.2c0.1,0,0.1,0,0.2,0C115,293.3,114.9,293.2,114.8,293.2 M116.3,290l0.2,3.1
			c0.7,0,1.2-0.2,1.6-0.6c0.3-0.3,0.5-0.7,0.5-1.2c0-0.3-0.1-0.5-0.3-0.6c-0.2-0.2-0.4-0.3-0.7-0.4c-0.3-0.1-0.5-0.2-0.8-0.2
			L116.3,290z M118.5,292.6c0,0.1-0.1,0.1-0.1,0.2c-0.1,0.1-0.1,0.1-0.3,0.2c0.1-0.1,0.2-0.1,0.3-0.2
			C118.4,292.7,118.5,292.7,118.5,292.6 M115.4,286.1c-0.7,0-1.1,0.2-1.4,0.5c-0.3,0.3-0.4,0.7-0.4,1.1c0,0.3,0.1,0.5,0.3,0.6
			c0.2,0.2,0.4,0.3,0.7,0.4c0.3,0.1,0.5,0.2,0.7,0.2c0.2,0,0.3,0.1,0.4,0.1L115.4,286.1L115.4,286.1z"/>
		<g id="XMLID_26_">
			<g id="XMLID_120_">
				<path id="XMLID_121_" class="st9" d="M134.3,301.6c-0.6,0-1,0.5-1,1.1l0.5,0c0-0.3,0.2-0.5,0.5-0.6c0.3,0,0.5,0.2,0.6,0.5l0.5,0
					C135.4,302,134.9,301.6,134.3,301.6z"/>
			</g>
			<g id="XMLID_118_">
				<path id="XMLID_119_" class="st9" d="M131.6,301.8c-0.6,0-1,0.5-1,1.1l0.5,0c0-0.3,0.2-0.5,0.5-0.6c0.3,0,0.5,0.2,0.6,0.5l0.5,0
					C132.7,302.2,132.2,301.8,131.6,301.8z"/>
			</g>
			<g id="XMLID_116_">
				<path id="XMLID_117_" class="st9" d="M137.1,301.4c-0.6,0-1,0.5-1,1.1l0.5,0c0-0.3,0.2-0.5,0.5-0.6c0.3,0,0.5,0.2,0.6,0.5l0.5,0
					C138.2,301.8,137.7,301.4,137.1,301.4z"/>
			</g>
			<g id="XMLID_114_">
				<path id="XMLID_115_" class="st9" d="M126.1,302.2c-0.6,0-1,0.5-1,1.1l0.5,0c0-0.3,0.2-0.5,0.5-0.6c0.3,0,0.5,0.2,0.6,0.5l0.5,0
					C127.2,302.6,126.7,302.2,126.1,302.2z"/>
			</g>
			<g id="XMLID_112_">
				<path id="XMLID_113_" class="st9" d="M123.3,302.4c-0.6,0-1,0.5-1,1.1l0.5,0c0-0.3,0.2-0.5,0.5-0.6c0.3,0,0.5,0.2,0.6,0.5l0.5,0
					C124.4,302.8,123.9,302.3,123.3,302.4z"/>
			</g>
			<g id="XMLID_110_">
				<path id="XMLID_111_" class="st9" d="M128.8,302c-0.6,0-1,0.5-1,1.1l0.5,0c0-0.3,0.2-0.5,0.5-0.6s0.5,0.2,0.6,0.5l0.5,0
					C129.9,302.4,129.4,302,128.8,302z"/>
			</g>
			<g id="XMLID_108_">
				<path id="XMLID_109_" class="st9" d="M142.6,301c-0.6,0-1,0.5-1,1.1l0.5,0c0-0.3,0.2-0.5,0.5-0.6c0.3,0,0.5,0.2,0.6,0.5l0.5,0
					C143.7,301.4,143.1,301,142.6,301z"/>
			</g>
			<g id="XMLID_105_">
				<path id="XMLID_107_" class="st9" d="M139.8,301.2c-0.6,0-1,0.5-1,1.1l0.5,0c0-0.3,0.2-0.5,0.5-0.6c0.3,0,0.5,0.2,0.6,0.5l0.5,0
					C140.9,301.6,140.4,301.2,139.8,301.2z"/>
			</g>
			<g id="XMLID_27_">
				<path id="XMLID_28_" class="st9" d="M145.3,300.9c-0.6,0-1,0.5-1,1.1l0.5,0c0-0.3,0.2-0.5,0.5-0.6c0.3,0,0.5,0.2,0.6,0.5l0.5,0
					C146.4,301.3,145.9,300.8,145.3,300.9z"/>
			</g>
		</g>
		<g id="XMLID_2_">
			<g id="XMLID_24_">
				<path id="XMLID_25_" class="st9" d="M132.4,274.6c0.6,0,1-0.5,1-1.1l-0.5,0c0,0.3-0.2,0.5-0.5,0.6s-0.5-0.2-0.6-0.5l-0.5,0
					C131.4,274.2,131.9,274.6,132.4,274.6z"/>
			</g>
			<g id="XMLID_22_">
				<path id="XMLID_23_" class="st9" d="M135.2,274.4c0.6,0,1-0.5,1-1.1l-0.5,0c0,0.3-0.2,0.5-0.5,0.6c-0.3,0-0.5-0.2-0.6-0.5
					l-0.5,0C134.1,274,134.6,274.5,135.2,274.4z"/>
			</g>
			<g id="XMLID_20_">
				<path id="XMLID_21_" class="st9" d="M129.7,274.8c0.6,0,1-0.5,1-1.1l-0.5,0c0,0.3-0.2,0.5-0.5,0.6c-0.3,0-0.5-0.2-0.6-0.5
					l-0.5,0C128.6,274.4,129.1,274.8,129.7,274.8z"/>
			</g>
			<g id="XMLID_18_">
				<path id="XMLID_19_" class="st9" d="M140.7,274c0.6,0,1-0.5,1-1.1l-0.5,0c0,0.3-0.2,0.5-0.5,0.6c-0.3,0-0.5-0.2-0.6-0.5l-0.5,0
					C139.6,273.6,140.1,274.1,140.7,274z"/>
			</g>
			<g id="XMLID_16_">
				<path id="XMLID_17_" class="st9" d="M143.4,273.8c0.6,0,1-0.5,1-1.1l-0.5,0c0,0.3-0.2,0.5-0.5,0.6s-0.5-0.2-0.6-0.5l-0.5,0
					C142.3,273.4,142.8,273.9,143.4,273.8z"/>
			</g>
			<g id="XMLID_14_">
				<path id="XMLID_15_" class="st9" d="M137.9,274.2c0.6,0,1-0.5,1-1.1l-0.5,0c0,0.3-0.2,0.5-0.5,0.6s-0.5-0.2-0.6-0.5l-0.5,0
					C136.8,273.8,137.3,274.3,137.9,274.2z"/>
			</g>
			<g id="XMLID_12_">
				<path id="XMLID_13_" class="st9" d="M124.2,275.2c0.6,0,1-0.5,1-1.1l-0.5,0c0,0.3-0.2,0.5-0.5,0.6c-0.3,0-0.5-0.2-0.6-0.5
					l-0.5,0C123.2,274.8,123.7,275.2,124.2,275.2z"/>
			</g>
			<g id="XMLID_9_">
				<path id="XMLID_11_" class="st9" d="M127,275c0.6,0,1-0.5,1-1.1l-0.5,0c0,0.3-0.2,0.5-0.5,0.6c-0.3,0-0.5-0.2-0.6-0.5l-0.5,0
					C125.9,274.6,126.4,275,127,275z"/>
			</g>
			<g id="XMLID_4_">
				<path id="XMLID_5_" class="st9" d="M121.5,275.4c0.6,0,1-0.5,1-1.1l-0.5,0c0,0.3-0.2,0.5-0.5,0.6c-0.3,0-0.5-0.2-0.6-0.5l-0.5,0
					C120.4,275,120.9,275.4,121.5,275.4z"/>
			</g>
		</g>
	</g>
	<circle class="st8" cx="133.5" cy="287.9" r="12.8"/>
	<g>
		
			<ellipse transform="matrix(0.9976 -6.941193e-02 6.941193e-02 0.9976 -19.6595 9.9621)" class="st7" cx="133.5" cy="287.9" rx="11.1" ry="11.1"/>
	</g>
	<g>
		<text transform="matrix(0.9976 -6.941196e-02 6.941196e-02 0.9976 123.9334 294.1937)" class="st0 st10 st11">20</text>
	</g>
</g>
<g>
	<g>
		<g>
			<circle class="st12" cx="114.7" cy="327.6" r="11.4"/>
		</g>
		<circle class="st17" cx="114.7" cy="327.6" r="7.5"/>
		<g>
			<text transform="matrix(0.9969 7.858683e-02 -7.858683e-02 0.9969 110.9064 331.2518)" class="st18 st10 st28">5</text>
		</g>
	</g>
	<g>
		<g>
			<ellipse class="st20" cx="114.7" cy="327.6" rx="9.2" ry="9.2"/>
		</g>
	</g>
	<path id="XMLID_123_" class="st18" d="M110.3,329C110.3,329,110.4,329,110.3,329C110.4,329,110.3,329,110.3,329 M112.1,329
		C112.1,329,112.1,329,112.1,329c-0.1,0.1-0.2,0.1-0.2,0.1C111.9,329.1,112,329,112.1,329C112.1,329,112.1,329,112.1,329"/>
</g>
<g>
	<g>
		<g>
			<circle class="st12" cx="182.1" cy="295.1" r="11.4"/>
		</g>
		<circle class="st17" cx="182.1" cy="295.1" r="7.5"/>
		<g>
			<text transform="matrix(0.9969 7.858683e-02 -7.858683e-02 0.9969 178.1063 298.9691)" class="st18 st10 st29">5</text>
		</g>
	</g>
	<g>
		<g>
			<ellipse class="st20" cx="182.1" cy="295.1" rx="9.2" ry="9.2"/>
		</g>
	</g>
	<path id="XMLID_124_" class="st18" d="M179.5,296.5C179.5,296.5,179.5,296.5,179.5,296.5c-0.1,0.1-0.2,0.1-0.2,0.1
		C179.3,296.6,179.4,296.5,179.5,296.5C179.5,296.5,179.5,296.5,179.5,296.5"/>
</g>
<g>
	<g>
		<g>
			<g>
				<path class="st25" d="M149.5,339.1c-6.5-0.5-11.5-6.3-10.9-12.8c0.5-6.5,6.3-11.5,12.8-10.9s11.5,6.3,10.9,12.8
					C161.8,334.7,156.1,339.6,149.5,339.1z"/>
			</g>
			<circle class="st17" cx="150.5" cy="327.2" r="7.8"/>
			<g>
				<g>
					<text transform="matrix(0.9969 7.858682e-02 -7.858682e-02 0.9969 146.0774 330.6099)" class="st18 st10 st30">2</text>
				</g>
			</g>
		</g>
		<g>
			<g>
				<ellipse class="st31" cx="150.5" cy="327.2" rx="9.6" ry="9.6"/>
			</g>
		</g>
	</g>
	<path id="XMLID_125_" class="st18" d="M145.9,328.6C145.9,328.6,145.9,328.7,145.9,328.6C145.9,328.7,145.9,328.6,145.9,328.6
		 M147.8,328.6C147.7,328.6,147.7,328.7,147.8,328.6c-0.1,0.1-0.2,0.1-0.2,0.1C147.6,328.7,147.6,328.7,147.8,328.6
		C147.7,328.6,147.7,328.6,147.8,328.6"/>
</g>
<g>
	<g>
		<g>
			<g>
				<path class="st25" d="M179,335.5c-6.5-0.5-11.5-6.3-10.9-12.8c0.5-6.5,6.3-11.5,12.8-10.9c6.5,0.5,11.5,6.3,10.9,12.8
					C191.3,331.1,185.6,336.1,179,335.5z"/>
			</g>
			<circle class="st17" cx="180" cy="323.7" r="7.8"/>
			<g>
				<g>
					<text transform="matrix(0.9969 7.858683e-02 -7.858683e-02 0.9969 175.8847 327.4519)" class="st18 st10 st30">2</text>
				</g>
			</g>
		</g>
		<g>
			<g>
				<ellipse class="st31" cx="180" cy="323.7" rx="9.6" ry="9.6"/>
			</g>
		</g>
	</g>
	<path id="XMLID_126_" class="st18" d="M175.3,325.1C175.4,325.1,175.4,325.1,175.3,325.1C175.4,325.1,175.4,325.1,175.3,325.1"/>
</g>
</svg>
