<?xml version="1.0" encoding="utf-8"?>
<!-- Generator: Adobe Illustrator 22.0.1, SVG Export Plug-In . SVG Version: 6.00 Build 0)  -->
<svg version="1.1" id="Layer_1" xmlns="http://www.w3.org/2000/svg" xmlns:xlink="http://www.w3.org/1999/xlink" x="0px" y="0px"
	 viewBox="0 0 336.7 400" style="enable-background:new 0 0 336.7 400;" xml:space="preserve">
<style type="text/css">
	.st0{fill:#A0AAB4;}
	.st1{fill:#AEB9C1;}
	.st2{fill:none;stroke:#D6DEE4;stroke-width:0.8832;stroke-linecap:round;stroke-linejoin:round;stroke-dasharray:0.4492,3.144;}
	.st3{fill:#3D4449;}
	.st4{fill:#FCC62D;}
	.st5{fill:none;stroke:#F9DC39;stroke-width:0.8832;stroke-linecap:round;stroke-linejoin:round;stroke-dasharray:0.4492,3.144;}
	.st6{fill:#FADC3C;stroke:#E7C42A;stroke-width:0.8523;stroke-miterlimit:10;}
	.st7{fill:none;stroke:#F9DC39;stroke-width:0.8865;stroke-linecap:round;stroke-linejoin:round;stroke-dasharray:0.4508,3.1558;}
	.st8{fill:#7C6608;}
	.st9{fill:#FFFFFF;}
	
		.st10{fill:none;stroke:#FFFFFF;stroke-width:2;stroke-linecap:round;stroke-linejoin:round;stroke-miterlimit:10;stroke-dasharray:6,10;}
	.st11{fill:#D6707A;}
	.st12{fill:#F19CA2;}
	.st13{fill:#804047;}
	.st14{fill:none;stroke:#F19CA2;stroke-width:4.6194;stroke-linecap:round;stroke-linejoin:round;stroke-miterlimit:10;}
	.st15{fill:#4E6584;}
	.st16{fill:#849CB8;}
	.st17{enable-background:new    ;}
	.st18{fill:#76CEE4;}
	.st19{fill:#60C1D8;}
	.st20{fill:#1EAFD8;}
	.st21{fill:#033333;}
	.st22{fill:#FADC3C;}
	.st23{fill:#E7C42A;}
	.st24{fill:#F9DC39;}
	.st25{fill:#E8A434;}
	.st26{fill:#E58E34;}
	.st27{fill:#E5852E;}
	.st28{fill:#BC6415;}
	.st29{fill:none;stroke:#D6DEE4;stroke-width:0.4956;stroke-linecap:round;stroke-linejoin:round;stroke-dasharray:0.252,1.764;}
	.st30{font-family:'Nunito-Bold';}
	.st31{font-size:12.8982px;}
	.st32{fill:none;stroke:#D6DEE4;stroke-width:0.5913;stroke-linecap:round;stroke-linejoin:round;stroke-dasharray:0.3007,2.1049;}
</style>
<g>
	<g>
		<g>
			<path class="st0" d="M234.5-330.7c-9.8,0-17.8-8-17.8-17.8s8-17.8,17.8-17.8s17.8,8,17.8,17.8S244.4-330.7,234.5-330.7z"/>
		</g>
		<circle class="st1" cx="234.5" cy="-348.5" r="11.7"/>
		<g>
			<g>
				<text transform="matrix(1 0 0 1 231.4759 -343.3579)" class="st3 st30" style="font-size:16.6243px;">2</text>
			</g>
		</g>
	</g>
	<g>
		<g>
			<ellipse class="st2" cx="234.5" cy="-348.5" rx="14.3" ry="14.3"/>
		</g>
	</g>
</g>
<path id="XMLID_1_" class="st3" d="M228.9-344.7c-0.2,0-0.3-0.1-0.3-0.3v-0.4c-0.5-0.1-0.9-0.2-1.3-0.5v0.4c0,0.2-0.1,0.3-0.3,0.3
	s-0.3-0.1-0.3-0.3v-1.6c0-0.2,0.1-0.3,0.3-0.3s0.3,0.1,0.3,0.3v0.6c0.3,0.3,0.5,0.4,1,0.6c0.1,0,0.2,0.1,0.4,0.1v-2.5
	c-0.5-0.1-0.9-0.3-1.1-0.4s-0.5-0.3-0.7-0.5s-0.2-0.4-0.2-0.8c0-0.5,0.2-0.9,0.5-1.2c0.3-0.3,0.8-0.4,1.5-0.5v-0.4
	c0-0.2,0.1-0.3,0.3-0.3s0.3,0.1,0.3,0.3v0.4c0.5,0.1,0.9,0.3,1.2,0.5c0.1,0,0,0.1,0.1,0.2v-0.4c0-0.2,0.1-0.3,0.3-0.3
	s0.3,0.1,0.3,0.3v1.6c0,0.2-0.1,0.3-0.3,0.3s-0.3-0.1-0.3-0.3v-0.6c-0.3-0.3-0.6-0.6-1-0.8c-0.1,0-0.2-0.1-0.4-0.1v2.4
	c0.1,0,0.2,0,0.4,0.1c0.3,0.1,0.6,0.2,0.9,0.3c0.3,0.1,0.5,0.3,0.7,0.5s0.2,0.5,0.2,0.8c0,0.6-0.2,1-0.6,1.3
	c-0.4,0.3-0.9,0.5-1.6,0.5v0.4C229.2-344.8,229-344.7,228.9-344.7 M227.8-345.8h0.1C227.9-345.8,227.9-345.8,227.8-345.8
	 M229.2-348.3v2.4c0.5,0,1-0.1,1.2-0.4c0.3-0.2,0.4-0.5,0.4-0.9c0-0.2,0-0.4-0.2-0.5c-0.1-0.1-0.3-0.3-0.5-0.4s-0.4-0.2-0.6-0.2
	H229.2z M230.7-346.1l-0.1,0.1c0,0-0.1,0.1-0.2,0.1c0.1,0,0.2-0.1,0.2-0.2C230.6-346,230.6-346.1,230.7-346.1 M228.6-351.2
	c-0.5,0-0.9,0.1-1.1,0.3c-0.3,0.2-0.4,0.5-0.4,0.8c0,0.2,0,0.4,0.2,0.5c0.1,0.1,0.3,0.3,0.5,0.4s0.4,0.2,0.6,0.2
	c0.1,0,0.2,0,0.3,0.1v-2.3H228.6z"/>
<g>
	<g>
		<g>
			<circle class="st4" cx="143.6" cy="-291.3" r="17.8"/>
		</g>
		<circle class="st1" cx="143.6" cy="-291.3" r="11.7"/>
		<g>
			<text transform="matrix(1 0 0 1 140.5042 -286.1694)" class="st3 st30" style="font-size:16.6243px;">5</text>
		</g>
	</g>
	<g>
		<g>
			<ellipse class="st5" cx="143.6" cy="-291.3" rx="14.3" ry="14.3"/>
		</g>
	</g>
	<path id="XMLID_6_" class="st3" d="M137.9-287.5c-0.2,0-0.3-0.1-0.3-0.3v-0.4c-0.5-0.1-0.9-0.2-1.3-0.5v0.4c0,0.2-0.1,0.3-0.3,0.3
		s-0.3-0.1-0.3-0.3v-1.6c0-0.2,0.1-0.3,0.3-0.3s0.3,0.1,0.3,0.3v0.6c0.3,0.3,0.5,0.4,1,0.6c0.1,0,0.2,0.1,0.4,0.1v-2.5
		c-0.5-0.1-0.9-0.3-1.1-0.4s-0.5-0.3-0.7-0.5s-0.2-0.4-0.2-0.8c0-0.5,0.2-0.9,0.5-1.2c0.3-0.3,0.8-0.4,1.5-0.5v-0.4
		c0-0.2,0.1-0.3,0.3-0.3s0.3,0.1,0.3,0.3v0.4c0.5,0.1,0.9,0.3,1.2,0.5c0.1,0,0,0.1,0.1,0.2v-0.4c0-0.2,0.1-0.3,0.3-0.3
		s0.3,0.1,0.3,0.3v1.6c0,0.2-0.1,0.3-0.3,0.3s-0.3-0.1-0.3-0.3v-0.6c-0.3-0.3-0.6-0.6-1-0.8c-0.1,0-0.2-0.1-0.4-0.1v2.4
		c0.1,0,0.2,0,0.4,0.1c0.3,0.1,0.6,0.2,0.9,0.3c0.3,0.1,0.5,0.3,0.7,0.5s0.2,0.5,0.2,0.8c0,0.6-0.2,1-0.6,1.3
		c-0.4,0.3-0.9,0.5-1.6,0.5v0.4C138.2-287.6,138-287.5,137.9-287.5 M136.9-288.7h0.1C136.9-288.6,136.9-288.7,136.9-288.7
		 M138.2-291.1v2.4c0.5,0,1-0.1,1.2-0.4c0.3-0.2,0.4-0.5,0.4-0.9c0-0.2,0-0.4-0.2-0.5c-0.1-0.1-0.3-0.3-0.5-0.4s-0.4-0.2-0.6-0.2
		H138.2z M139.7-288.9l-0.1,0.1c0,0-0.1,0.1-0.2,0.1c0.1,0,0.2-0.1,0.2-0.2C139.6-288.8,139.7-288.9,139.7-288.9 M137.7-294
		c-0.5,0-0.9,0.1-1.1,0.3c-0.3,0.2-0.4,0.5-0.4,0.8c0,0.2,0,0.4,0.2,0.5c0.1,0.1,0.3,0.3,0.5,0.4s0.4,0.2,0.6,0.2
		c0.1,0,0.2,0,0.3,0.1v-2.3H137.7z"/>
</g>
<g>
	<g>
		<g>
			<path class="st4" d="M233.7-271.8c-9.8,0-17.8-8-17.8-17.8s8-17.8,17.8-17.8s17.8,8,17.8,17.8S243.5-271.8,233.7-271.8z"/>
		</g>
		<circle class="st6" cx="233.7" cy="-289.6" r="12.9"/>
	</g>
	<g>
		<g>
			<ellipse class="st7" cx="233.7" cy="-289.6" rx="14.4" ry="14.4"/>
		</g>
	</g>
	<g>
		<text transform="matrix(1 0 0 1 226.1741 -284.876)" class="st8 st30" style="font-size:15.5072px;">10</text>
	</g>
</g>
<path id="XMLID_3_" class="st8" d="M225.4-288.7c-0.1,0-0.2-0.1-0.2-0.2v-0.3c-0.4-0.1-0.7-0.1-1-0.4v0.3c0,0.1-0.1,0.2-0.2,0.2
	s-0.2-0.1-0.2-0.2v-1.3c0-0.1,0.1-0.2,0.2-0.2s0.2,0.1,0.2,0.2v0.4c0.2,0.2,0.4,0.3,0.8,0.4c0.1,0,0.2,0.1,0.3,0.1v-1.9
	c-0.4-0.1-0.7-0.2-0.9-0.3s-0.4-0.2-0.5-0.4c-0.2-0.2-0.2-0.4-0.2-0.6c0-0.4,0.1-0.7,0.4-1c0.2-0.2,0.7-0.4,1.1-0.4v-0.3
	c0-0.1,0.1-0.2,0.2-0.2s0.2,0.1,0.2,0.2v0.3c0.4,0.1,0.7,0.2,1,0.4c0.1,0,0,0.1,0.1,0.1v-0.3c0-0.1,0.1-0.2,0.2-0.2s0.2,0.1,0.2,0.2
	v1.3c0,0.1-0.1,0.2-0.2,0.2s-0.2-0.1-0.2-0.2v-0.4c-0.2-0.2-0.4-0.4-0.8-0.6c-0.1,0-0.2-0.1-0.3-0.1v1.9c0.1,0,0.2,0,0.3,0.1
	c0.2,0.1,0.5,0.1,0.7,0.2s0.4,0.2,0.5,0.4c0.1,0.2,0.2,0.4,0.2,0.6c0,0.4-0.1,0.8-0.4,1c-0.3,0.2-0.7,0.4-1.2,0.4v0.3
	C225.6-288.8,225.5-288.7,225.4-288.7 M224.6-289.6C224.6-289.6,224.6-289.5,224.6-289.6L224.6-289.6 M225.6-291.5v1.9
	c0.4,0,0.8-0.1,1-0.3c0.2-0.2,0.4-0.4,0.4-0.7c0-0.1,0-0.3-0.1-0.4s-0.2-0.2-0.4-0.3c-0.1-0.1-0.3-0.1-0.5-0.2H225.6z M226.7-289.8
	C226.7-289.7,226.6-289.7,226.7-289.8c-0.1,0.1-0.2,0.2-0.3,0.2C226.5-289.6,226.6-289.7,226.7-289.8
	C226.7-289.7,226.7-289.8,226.7-289.8 M225.2-293.8c-0.4,0-0.7,0.1-0.9,0.2c-0.2,0.2-0.3,0.4-0.3,0.6c0,0.1,0,0.3,0.1,0.4
	s0.2,0.2,0.4,0.3c0.1,0.1,0.3,0.1,0.4,0.2c0.1,0,0.2,0,0.2,0.1L225.2-293.8L225.2-293.8z"/>
<g>
	<g>
		<path class="st9" d="M201.9,178c-6.2,0-11.2-5-11.2-11.2v-1.2h-9.3v0.9c0,5.7-4.6,10.3-10.3,10.3h-12.2c-2.1,0-4-0.6-5.6-1.7
			c-2,1.8-4.7,2.9-7.6,2.9h-12.5c-3.7,0-7.1-1.8-9.2-4.7c-5.6-8-24-36.7-24-72.1c0-0.5,0-1,0-1.5v-0.4c0-0.4,0-0.7,0-1.1v-0.4
			c0-0.5,0.1-0.9,0.1-1.3v-0.2c0-0.5,0.1-1,0.1-1.4c0,0,0.1-1.1,0.2-1.5l0.1-0.5c0-0.3,0.1-0.7,0.1-1.1l0.1-0.4
			c0.1-0.5,0.1-0.9,0.2-1.3l0.3-1.4l0.1-0.6c0,0,0.2-1,0.3-1.1c-1.5,1-3.3,1.5-5.2,1.5c-2,0-3.8-0.6-5.3-1.9
			c-3.1-2.5-4-7.1-2.1-10.9c0,0,0-0.1,0.1-0.1l-0.4-0.2c-2.3-1-3.4-3.6-2.7-6c0.6-2.2,2.6-3.6,4.8-3.6c0.2,0,0.5,0,0.8,0.1
			c3,0.4,5.9,1.2,8.7,2.1c0.5,0.2,1.4,0.5,2.3,1c1.9,0.1,3.8,0.6,5.6,1.3C119.5,49.9,141,37,164.5,37h37v-9.9c0-4.1,3.4-7.5,7.5-7.5
			c0.8,0,1.7,0.1,2.5,0.4c6.2,2.2,14,8.9,18.3,19.3l1.8-8.2c0.7-3.4,3.8-6,7.3-6c1.4,0,2.7,0.4,3.9,1.1c5.1,3.1,14.4,13.3,14.6,30.2
			c4.7,4.8,8.6,10.2,11.5,16.2c4.7,0.4,8.4,4.4,8.4,9.2c0,1.9-0.6,3.6-1.5,5.1c6.9,0.2,11.7,8.6,11.7,20.7
			c0,12.2-4.9,20.7-11.9,20.7c-0.4,0-0.7,0-1.1-0.1c-0.2,0-0.4,0-0.6,0h-4c-4.3,9.2-10.6,17.3-18.6,23.6l2.1,14.8c0,0.2,0,0.5,0,0.7
			c0,5.7-4.6,10.3-10.3,10.3h-12.9c-2.6,0-4.9-0.9-6.7-2.5c-2,1.9-4.7,3-7.6,3h-14V178z"/>
		<path class="st9" d="M208.8,24.4c0.3,0,0.5,0,0.8,0.1c4.5,1.6,12.5,7.6,16.4,19.1c2.5,0.6,4.9,1.4,7.2,2.4l3-14.1
			c0.3-1.2,1.3-2,2.4-2c0.4,0,0.9,0.1,1.3,0.4c4.7,2.9,12.7,12.4,12.2,28c5.8,5.5,10.4,12.2,13.6,19.7c0.6-0.4,1.3-0.6,2.1-0.6
			c2.3,0,4.2,1.9,4.2,4.2c0,2.1-1.6,3.9-3.6,4.2c0.5,2,1,3.9,1.3,6h3.9c0.3,0,0.5,0,0.8,0.1c0.3-0.1,0.6-0.2,0.9-0.2
			c3.8,0,6.9,7,6.9,15.7s-3.1,15.7-6.9,15.7c-0.3,0-0.6-0.1-0.8-0.1c-0.3,0-0.6,0.1-0.9,0.1h-7.3c-4.3,10.7-11.5,19.8-20.7,26.4
			c0.1,0.5,0.2,1,0.2,1.5l2.3,16.3c0,2.9-2.4,5.3-5.3,5.3h-12.9c-2.9,0-5.3-2.4-5.3-5.3l-0.4-8.1c-0.2,0-0.4,0.1-0.6,0.2l-1.9,8.9
			c-0.6,2.9-3.2,4.9-6.1,4.9h-13.7c-3.5,0-6.2-2.8-6.2-6.2v-6.2h-19.3v5.9c0,2.9-2.4,5.3-5.3,5.3h-12.2c-2.9,0-5.3-2.4-5.3-5.3v-6.9
			c-0.5-0.1-1.1-0.2-1.6-0.3v7.6c0,3.5-2.8,6.2-6.2,6.2h-12.5c-2,0-3.9-1-5.1-2.6c-5.9-8.3-23-35.5-23-69.2l0,0l0,0l0,0
			c0-0.5,0-0.9,0-1.4c0-0.1,0-0.3,0-0.4c0-0.3,0-0.7,0-1c0-0.1,0-0.3,0-0.4c0-0.4,0-0.8,0.1-1.2c0-0.1,0-0.1,0-0.2
			c0-0.4,0.1-0.9,0.1-1.3c0-0.1,0-0.3,0-0.4c0-0.3,0.1-0.6,0.1-0.9c0-0.2,0-0.3,0.1-0.5c0-0.3,0.1-0.7,0.1-1c0-0.1,0-0.2,0.1-0.4
			c0.1-0.4,0.1-0.8,0.2-1.2c0-0.2,0.1-0.4,0.1-0.5c0-0.3,0.1-0.5,0.1-0.8c0-0.2,0.1-0.4,0.1-0.6c0.1-0.2,0.1-0.5,0.2-0.7
			c0.1-0.3,0.1-0.5,0.2-0.8s0.1-0.6,0.2-0.9c0.1-0.2,0.1-0.5,0.2-0.7c0-0.2,0.1-0.3,0.1-0.5c0.1-0.3,0.1-0.5,0.2-0.8
			c0-0.1,0.1-0.3,0.1-0.4c0.3-0.9,0.6-1.9,0.9-2.8v-0.1c0.1-0.3,0.2-0.7,0.4-1l0,0c0.2-0.4,0.3-0.8,0.5-1.3l-7.8-3.5
			c0.1,0.5,0.1,1.1,0.1,1.7c-0.1,1.9-0.8,3.8-2.2,5c-0.8,0.7-1.9,1.1-3,1.1c-0.8,0-1.6-0.2-2.2-0.7c-1.4-1.1-1.6-3.3-0.8-4.9
			c0.8-1.6,2.4-2.7,4-3.3c0.3-0.1,0.6-0.2,0.9-0.3l-7.7-3.5c2.7,0.4,5.3,1,7.9,1.9c0.7,0.2,1.5,0.5,2,1.1c0.1,0,0.1,0.1,0.1,0.2
			c0.2,0,0.5,0,0.7,0c3.2,0,6.4,1.3,8.7,3.5c9.2-20.8,30.1-35.4,54.3-35.4h42V26.9C206.3,25.5,207.5,24.4,208.8,24.4 M208.8,14.4
			L208.8,14.4L208.8,14.4c-3.3,0-6.4,1.3-8.8,3.6c-2.4,2.4-3.7,5.5-3.7,8.9v4.9h-32c-23.9,0-46,12.4-58.6,32.4
			c-0.6-0.1-1.3-0.2-1.9-0.3c-0.9-0.4-1.6-0.7-2.1-0.8c-3.1-1-6.3-1.8-9.6-2.3c-0.5-0.1-1-0.1-1.5-0.1c-4.4,0-8.3,2.9-9.6,7.2
			c-1,3.4-0.1,7,2.1,9.5c-0.8,4.9,0.9,9.9,4.7,13.1c2.1,1.7,4.7,2.7,7.5,2.9c0,0.1,0,0.3,0,0.4v0.1v0.4c-0.1,0.5-0.1,1-0.1,1.6v0.2
			c0,0.5-0.1,0.9-0.1,1.4v0.4V98c0,0.4,0,0.8,0,1.2v0.1v0.4c0,0.5,0,1.1,0,1.6c0,35.8,17.4,64.4,24.9,75c3,4.3,8,6.9,13.3,6.9h12.5
			c2.9,0,5.7-0.8,8.1-2.2c1.6,0.6,3.3,0.9,5.1,0.9h12c7,0,13-4.8,14.8-11.2h0.3c1.7,7.2,8.1,12.5,15.8,12.5h13.7
			c2.8,0,5.4-0.7,7.8-2c2,1,4.2,1.5,6.6,1.5h12.9c8.5,0,15.3-6.9,15.3-15.3c0-0.5,0-0.9-0.1-1.4l-1.7-12.1
			c6.8-5.8,12.3-12.8,16.4-20.7h0.9c0.1,0,0.3,0,0.4,0c0.4,0,0.9,0.1,1.3,0.1c9.9,0,16.9-10.6,16.9-25.7c0-11.5-4-20.3-10.3-23.9
			c0.1-0.6,0.1-1.2,0.1-1.8c0-6.4-4.3-11.8-10.1-13.6c-2.7-5-6.1-9.6-9.9-13.8c-0.9-17.9-10.8-28.7-17-32.4c-2-1.2-4.2-1.8-6.5-1.8
			c-4.6,0-8.7,2.5-10.9,6.4c-4.8-6-10.4-9.6-14.9-11.2C211.6,14.6,210.2,14.4,208.8,14.4L208.8,14.4L208.8,14.4z"/>
	</g>
	<g>
		<path class="st9" d="M54.7,177.5c-11.4,0-20.6-9.3-20.6-20.6v-30.3c0-11.4,9.3-20.6,20.6-20.6H85c11.4,0,20.6,9.3,20.6,20.6v30.3
			c0,11.4-9.3,20.6-20.6,20.6H54.7z"/>
		<path class="st9" d="M85,110.9c8.6,0,15.6,7,15.6,15.6v30.3c0,8.6-7,15.6-15.6,15.6H54.7c-8.6,0-15.6-7-15.6-15.6v-30.3
			c0-8.6,7-15.6,15.6-15.6H85 M85,100.9H54.7c-14.1,0-25.6,11.5-25.6,25.6v30.3c0,14.1,11.5,25.6,25.6,25.6H85
			c14.1,0,25.6-11.5,25.6-25.6v-30.3C110.7,112.4,99.2,100.9,85,100.9L85,100.9z"/>
	</g>
</g>
<g>
	<g>
		<path class="st9" d="M181.5,376.7c-2.9,0-5.6-1.1-7.6-2.9c-1.6,1-3.5,1.7-5.6,1.7h-12.2c-5.7,0-10.3-4.6-10.3-10.3v-0.9h-9.3v1.2
			c0,6.2-5,11.2-11.2,11.2h-13.7c-2.9,0-5.6-1.1-7.6-3c-1.8,1.6-4.2,2.5-6.7,2.5h-13c-5.7,0-10.3-4.6-10.3-10.3c0-0.2,0-0.5,0-0.7
			l2.1-14.8c-8-6.3-14.4-14.4-18.6-23.6h-4c-0.2,0-0.4,0-0.6,0c-0.4,0.1-0.7,0.1-1.1,0.1c-7,0-11.9-8.5-11.9-20.7
			c0-12.1,4.8-20.5,11.7-20.7c-1-1.5-1.5-3.2-1.5-5.1c0-4.8,3.7-8.8,8.4-9.2c3-6,6.9-11.4,11.6-16.2c0.1-6.9,1.7-13.5,4.8-19.1
			c2.6-4.8,6.2-8.9,9.9-11.1c1.2-0.7,2.5-1.1,3.9-1.1c3.5,0,6.6,2.5,7.3,6l1.8,8.2c4.4-10.4,12.1-17.1,18.3-19.3
			c0.8-0.3,1.6-0.4,2.5-0.4c4.1,0,7.5,3.4,7.5,7.5v9.9h37c22.4,0,43.5,12.1,55.1,31.2c2-0.8,4-1.4,6.2-1.5c0.8-0.4,1.5-0.7,2.2-0.9
			c3-1,6-1.7,9.1-2.2c0.4-0.1,0.7-0.1,1.1-0.1c3.6,0,6.7,2.6,7.2,6.2c0.4,2.7-0.7,5.3-2.7,6.8c1.3,4.3,0,9.1-3.5,11.9
			c-1.9,1.5-4.3,2.4-6.8,2.4c-1.6,0-3.1-0.3-4.5-0.9v0.3c0.1,0.4,0.2,0.9,0.2,1.3c0,0,0.2,1.1,0.2,1.4l0.1,0.5c0,0.3,0.1,0.7,0.1,1
			v0.5c0,0.5,0.1,1,0.1,1.4c0,0,0,0.1,0,0.2c0,0.4,0.1,0.9,0.1,1.3v0.5c0,0.4,0.1,1.5,0.1,1.5c0,0.5,0,1,0,1.5
			c0,35.4-18.3,64.1-24,72.1c-2.1,3-5.5,4.7-9.2,4.7L181.5,376.7L181.5,376.7z"/>
		<path class="st9" d="M118.3,223.1c1.3,0,2.5,1.1,2.5,2.5v14.9h42c23.3,0,43.5,13.6,53.2,33.2c2.6-2.2,6.1-3.6,9.5-3.6
			c0.7-0.5,1.5-0.8,2.3-1.1c2.7-0.9,5.5-1.6,8.3-2c0.1,0,0.2,0,0.3,0c1.1,0,2.1,0.8,2.3,2c0.2,1.3-0.7,2.4-1.9,2.6s-2.5,0.4-3.7,0.7
			c1,0.7,2,1.7,2.7,3.1c1.3,2.7,0.7,6-1.4,7.7c-1,0.8-2.3,1.2-3.7,1.2c-1.6,0-3.2-0.6-4.5-1.7c-2.2-1.9-2.8-4.6-2.9-6.6
			c0-0.4,0-0.7,0-1c-2,0.5-3.9,1.6-5.2,3.2c0.1,0.3,0.2,0.5,0.3,0.7l0,0c0.1,0.3,0.2,0.7,0.4,1v0.1c0.3,0.9,0.6,1.9,0.9,2.8
			c0,0.1,0.1,0.3,0.1,0.4c0.1,0.3,0.1,0.5,0.2,0.8c0,0.2,0.1,0.3,0.1,0.5c0.1,0.2,0.1,0.5,0.2,0.7c0.1,0.3,0.1,0.6,0.2,0.9
			c0.1,0.3,0.1,0.5,0.2,0.8c0.1,0.2,0.1,0.5,0.2,0.7c0,0.2,0.1,0.4,0.1,0.6c0.1,0.3,0.1,0.5,0.1,0.8c0,0.2,0.1,0.4,0.1,0.5
			c0.1,0.4,0.1,0.8,0.2,1.2c0,0.1,0,0.2,0.1,0.4c0,0.3,0.1,0.7,0.1,1c0,0.2,0,0.3,0.1,0.5c0,0.3,0.1,0.6,0.1,0.9c0,0.1,0,0.3,0,0.4
			c0,0.4,0.1,0.9,0.1,1.3c0,0.1,0,0.1,0,0.2c0,0.4,0.1,0.8,0.1,1.2c0,0.1,0,0.3,0,0.4c0,0.3,0,0.7,0,1c0,0.1,0,0.3,0,0.4
			c0,0.5,0,0.9,0,1.4l0,0l0,0l0,0c0,33.7-17.2,60.9-23,69.2c-1.2,1.7-3.1,2.6-5.1,2.6h-12.5c-3.4,0-6.2-2.8-6.2-6.2v-7.6
			c-0.5,0.1-1.1,0.2-1.6,0.3v6.9c0,2.9-2.4,5.3-5.3,5.3h-12.2c-2.9,0-5.3-2.4-5.3-5.3v-5.9h-19.3v6.2c0,3.4-2.8,6.2-6.2,6.2h-13.7
			c-2.9,0-5.5-2.1-6.1-4.9l-1.9-8.9c-0.2,0-0.4-0.1-0.6-0.2l-0.4,8.1c0,2.9-2.4,5.3-5.3,5.3h-13c-2.9,0-5.3-2.4-5.3-5.3l2.3-16.3
			c0-0.5,0.1-1,0.2-1.5c-9.2-6.6-16.5-15.7-20.7-26.4h-7.3c-0.3,0-0.6,0-0.9-0.1c-0.3,0.1-0.6,0.1-0.8,0.1c-3.8,0-6.9-7-6.9-15.7
			S48,290,51.8,290c0.3,0,0.6,0.1,0.9,0.2c0.3,0,0.5-0.1,0.8-0.1h3.9c0.3-2,0.8-4,1.3-6c-2.1-0.3-3.6-2-3.6-4.2
			c0-2.3,1.9-4.2,4.2-4.2c0.8,0,1.5,0.2,2.1,0.6c3.2-7.5,7.9-14.1,13.6-19.7c-0.5-15.6,7.5-25.2,12.2-28c0.4-0.2,0.8-0.4,1.3-0.4
			c1.1,0,2.2,0.8,2.4,2l3,14.1c2.3-0.9,4.8-1.7,7.2-2.4c3.9-11.6,11.8-17.6,16.4-19.1C117.7,223.1,118,223.1,118.3,223.1
			 M230.6,279.7c0.3,0,0.5-0.1,0.7-0.2c0.4-0.4,0.5-1.3,0.2-2c-0.6-1.2-2-1.9-2.8-2.2c-0.3-0.1-0.6-0.2-1-0.3c0,0.2,0,0.4,0,0.7
			c0.1,0.9,0.3,2.5,1.4,3.5C229.6,279.5,230.1,279.7,230.6,279.7 M118.3,213.1c-1.4,0-2.8,0.2-4.1,0.7c-4.5,1.6-10.1,5.3-14.9,11.2
			c-2.2-3.8-6.3-6.4-10.9-6.4c-2.3,0-4.5,0.6-6.5,1.8c-6.1,3.7-16.1,14.6-17,32.4c-3.9,4.2-7.2,8.8-9.9,13.8
			c-5.8,1.8-10.1,7.2-10.1,13.6c0,0.6,0,1.2,0.1,1.8c-6.3,3.6-10.3,12.5-10.3,23.9c0,15.1,6.9,25.7,16.9,25.7c0.4,0,0.9,0,1.3-0.1
			c0.1,0,0.3,0,0.4,0h0.9c4.1,7.8,9.6,14.8,16.4,20.7L69,364.4c-0.1,0.5-0.1,0.9-0.1,1.4c0,8.5,6.9,15.3,15.3,15.3h12.9
			c2.4,0,4.6-0.5,6.6-1.5c2.3,1.3,5,2,7.8,2h13.7c7.7,0,14.1-5.3,15.8-12.5h0.3c1.8,6.5,7.7,11.2,14.8,11.2h12.2
			c1.8,0,3.5-0.3,5.1-0.9c2.4,1.4,5.1,2.2,8.1,2.2H194c5.3,0,10.2-2.6,13.3-6.9c7.5-10.6,24.9-39.1,24.9-75c0-0.5,0-1.1,0-1.6v-0.4
			v-0.1c0-0.4,0-0.8,0-1.2v-0.1v-0.4c0-0.5-0.1-0.9-0.1-1.4v-0.2c0-0.1,0-0.2,0-0.2c3.2-0.2,6.3-1.4,8.7-3.4
			c4.2-3.4,6.3-8.8,5.7-14.2c1.9-2.5,2.8-5.8,2.3-9.1c-0.9-6.1-6-10.5-12.2-10.5c-0.6,0-1.2,0-1.8,0.1c-3.4,0.5-6.7,1.3-10,2.4
			c-0.6,0.2-1.2,0.4-1.9,0.7c-0.9,0.1-1.8,0.3-2.7,0.5c-5.3-7.7-12.1-14.4-20.1-19.5c-11.1-7.1-23.9-10.8-37.1-10.8h-32v-4.9
			C130.8,218.7,125.2,213.1,118.3,213.1L118.3,213.1z"/>
	</g>
	<g>
		<path class="st9" d="M239.7,374.3c-11.4,0-20.6-9.3-20.6-20.6v-30.3c0-11.4,9.3-20.6,20.6-20.6H270c11.4,0,20.6,9.3,20.6,20.6
			v30.3c0,11.4-9.3,20.6-20.6,20.6H239.7z"/>
		<path class="st9" d="M270.1,307.7c8.6,0,15.6,7,15.6,15.6v30.3c0,8.6-7,15.6-15.6,15.6h-30.3c-8.6,0-15.6-7-15.6-15.6v-30.3
			c0-8.6,7-15.6,15.6-15.6H270.1 M270.1,297.7h-30.3c-14.1,0-25.6,11.5-25.6,25.6v30.3c0,14.1,11.5,25.6,25.6,25.6h30.3
			c14.1,0,25.6-11.5,25.6-25.6v-30.3C295.7,309.2,284.2,297.7,270.1,297.7L270.1,297.7z"/>
	</g>
</g>
<line class="st10" x1="28.3" y1="203.7" x2="312.3" y2="203.7"/>
<path class="st11" d="M171,171.7h-12.2c-2.9,0-5.3-2.4-5.3-5.3v-14.7c0-2.9,2.4-5.3,5.3-5.3H171c2.9,0,5.3,2.4,5.3,5.3v14.7
	C176.3,169.3,173.9,171.7,171,171.7z"/>
<path class="st11" d="M242.8,172.5h-12.9c-2.9,0-5.3-2.4-5.3-5.3l-0.8-16.3c0-2.9,2.4-5.3,5.3-5.3h11.4c2.9,0,5.3,2.4,5.3,5.3
	l2.3,16.3C248.2,170.1,245.8,172.5,242.8,172.5z"/>
<g>
	<path class="st12" d="M273.7,91.8h-3.9c-4.5-28.2-29.1-50-58.6-50h-46.9c-25.3,0-47,16.1-55.5,38.5l0,0c-0.1,0.3-0.2,0.7-0.4,1v0.1
		c-0.3,0.9-0.6,1.9-0.9,2.8c0,0.1-0.1,0.3-0.1,0.4c-0.1,0.3-0.1,0.5-0.2,0.8c0,0.2-0.1,0.3-0.1,0.5c-0.1,0.2-0.1,0.5-0.2,0.7
		c-0.1,0.3-0.1,0.6-0.2,0.9s-0.1,0.5-0.2,0.8c-0.1,0.2-0.1,0.5-0.2,0.7c0,0.2-0.1,0.4-0.1,0.6c-0.1,0.3-0.1,0.5-0.1,0.8
		c0,0.2-0.1,0.4-0.1,0.5c-0.1,0.4-0.1,0.8-0.2,1.2c0,0.1,0,0.2-0.1,0.4c0,0.3-0.1,0.7-0.1,1c0,0.2,0,0.3-0.1,0.5
		c0,0.3-0.1,0.6-0.1,0.9c0,0.1,0,0.3,0,0.4c0,0.4-0.1,0.9-0.1,1.3c0,0.1,0,0.1,0,0.2c0,0.4-0.1,0.8-0.1,1.2c0,0.1,0,0.3,0,0.4
		c0,0.3,0,0.7,0,1c0,0.1,0,0.3,0,0.4c0,0.5,0,0.9,0,1.4l0,0l0,0l0,0c0,33.7,17.2,60.9,23,69.2c1.2,1.7,3.1,2.6,5.1,2.6h12.5
		c3.4,0,6.2-2.8,6.2-6.2v-7.6c4,0.9,8.2,1.3,12.5,1.3h31.2v6.2c0,3.4,2.8,6.2,6.2,6.2h13.7c2.9,0,5.5-2.1,6.1-4.9l1.9-8.9
		c19.5-4.2,35.5-18,42.8-36.2h7.3c3.5,0,6.2-2.8,6.2-6.2V98C279.9,94.6,277.1,91.8,273.7,91.8z"/>
	<path class="st12" d="M236.2,31.9L231,56.2c-0.7,3.4,1.4,6.7,4.8,7.4l8.7,1.9c3.7,0.8,7.3-1.8,7.5-5.6c1.1-16.6-7.3-26.7-12.2-29.6
		C238.5,29.4,236.6,30.3,236.2,31.9z"/>
	<path class="st12" d="M206.3,26.9v24.9c0,3.5,2.8,6.2,6.2,6.2h8.9c3.8,0,6.7-3.3,6.2-7c-2.4-16.5-12.7-24.5-18.1-26.4
		C208,24,206.3,25.2,206.3,26.9z"/>
	<g>
		<path class="st13" d="M195.5,52.5h-28.3c-1.7,0-3.1-1.4-3.1-3.1l0,0c0-1.7,1.4-3.1,3.1-3.1h28.3c1.7,0,3.1,1.4,3.1,3.1l0,0
			C198.6,51.1,197.2,52.5,195.5,52.5z"/>
	</g>
</g>
<circle class="st13" cx="267.9" cy="81.6" r="4.2"/>
<ellipse transform="matrix(0.1602 -0.9871 0.9871 0.1602 133.9431 320.6313)" class="st13" cx="255.4" cy="81.6" rx="4.2" ry="4.2"/>
<ellipse class="st11" cx="275.4" cy="107.4" rx="6.9" ry="15.7"/>
<circle class="st12" cx="272.6" cy="108" r="2.1"/>
<circle class="st12" cx="279" cy="108" r="2.1"/>
<g>
	<path class="st11" d="M199.9,149.4h-43.4c-24.4,0-44.4-20-44.4-44.4v-4.1c0-24.4,20-44.4,44.4-44.4h43.4c24.4,0,44.4,20,44.4,44.4
		v4.1C244.3,129.4,224.3,149.4,199.9,149.4z"/>
	<g>
		<path class="st13" d="M120.5,107.3c0-23.6,20.6-43,45.8-43h40.5c10.5,0,20.2,3.4,27.9,9c-8.4-10.2-21.6-16.8-36.3-16.8H158
			c-25.2,0-45.8,19.3-45.8,43v7c0,13.8,7,26.1,17.9,34c-6-7.3-9.6-16.3-9.6-26.2C120.5,114.3,120.5,107.3,120.5,107.3z"/>
	</g>
</g>
<path class="st14" d="M112.5,80.5c-2.5-5.3-9.4-8.1-14.9-6c-1.7,0.6-3.2,1.7-4,3.3c-0.8,1.6-0.6,3.7,0.8,4.9
	c1.4,1.2,3.7,0.8,5.1-0.4c1.4-1.2,2-3.2,2.2-5c0.1-1.3-0.1-2.7-1-3.6c-0.5-0.5-1.3-0.8-2-1.1c-2.6-0.9-5.2-1.5-7.9-1.9"/>
<g>
	<g>
		<path class="st15" d="M54.7,170.2c-7.3,0-13.3-6-13.3-13.3v-30.3c0-7.3,6-13.3,13.3-13.3H85c7.3,0,13.3,6,13.3,13.3v30.3
			c0,7.3-6,13.3-13.3,13.3H54.7z"/>
		<path class="st16" d="M85,115.5c6.1,0,11,5,11,11v30.3c0,6.1-5,11-11,11H54.7c-6.1,0-11-5-11-11v-30.3c0-6.1,5-11,11-11H85
			 M85,110.9H54.7c-8.6,0-15.6,7-15.6,15.6v30.3c0,8.6,7,15.6,15.6,15.6H85c8.6,0,15.6-7,15.6-15.6v-30.3
			C100.7,118,93.6,110.9,85,110.9L85,110.9z"/>
	</g>
	<g class="st17">
		<path class="st9" d="M62.6,154.1c-2-1.2-3.6-2.9-4.7-5.1c-1.1-2.2-1.6-4.8-1.6-7.8c0-3,0.5-5.6,1.6-7.8c1.1-2.2,2.6-3.9,4.7-5.1
			s4.4-1.8,7.2-1.8c1.8,0,3.5,0.3,5.1,0.8c1.6,0.6,3,1.4,4.2,2.4c0.5,0.4,0.8,1,0.8,1.6c0,0.5-0.1,0.9-0.4,1.2
			c-0.3,0.3-0.6,0.5-1,0.5c-0.5,0-0.9-0.2-1.3-0.5c-1.3-1-2.5-1.7-3.6-2.1c-1.1-0.4-2.3-0.6-3.6-0.6c-3,0-5.3,1-6.9,2.9
			c-1.6,1.9-2.4,4.7-2.4,8.3c0,3.6,0.8,6.4,2.4,8.4c1.6,1.9,3.9,2.9,6.9,2.9c1.3,0,2.5-0.2,3.6-0.6c1.1-0.4,2.3-1.1,3.6-2
			c0.5-0.4,1-0.5,1.3-0.5c0.4,0,0.7,0.2,1,0.5c0.3,0.3,0.4,0.8,0.4,1.2c0,0.7-0.3,1.2-0.8,1.6c-1.2,1.1-2.6,1.9-4.2,2.4
			c-1.6,0.6-3.3,0.8-5.1,0.8C67,155.8,64.6,155.2,62.6,154.1z"/>
	</g>
</g>
<path class="st11" d="M156.1,370.4h12.2c2.9,0,5.3-2.4,5.3-5.3v-14.7c0-2.9-2.4-5.3-5.3-5.3h-12.2c-2.9,0-5.3,2.4-5.3,5.3V365
	C150.8,368,153.2,370.4,156.1,370.4z"/>
<path class="st11" d="M84.3,371.1h12.9c2.9,0,5.3-2.4,5.3-5.3l0.8-16.3c0-2.9-2.4-5.3-5.3-5.3H86.6c-2.9,0-5.3,2.4-5.3,5.3L79,365.8
	C78.9,368.7,81.3,371.1,84.3,371.1z"/>
<g>
	<path class="st12" d="M53.4,290.4h3.9c4.5-28.2,29.1-50,58.6-50h46.9c25.3,0,47,16.1,55.5,38.5l0,0c0.1,0.3,0.2,0.7,0.4,1v0.1
		c0.3,0.9,0.6,1.9,0.9,2.8c0,0.1,0.1,0.3,0.1,0.4c0.1,0.3,0.1,0.5,0.2,0.8c0,0.2,0.1,0.3,0.1,0.5c0.1,0.2,0.1,0.5,0.2,0.7
		c0.1,0.3,0.1,0.6,0.2,0.9c0.1,0.3,0.1,0.5,0.2,0.8c0.1,0.2,0.1,0.5,0.2,0.7c0,0.2,0.1,0.4,0.1,0.6c0.1,0.3,0.1,0.5,0.1,0.8
		c0,0.2,0.1,0.4,0.1,0.5c0.1,0.4,0.1,0.8,0.2,1.2c0,0.1,0,0.2,0.1,0.4c0,0.3,0.1,0.7,0.1,1c0,0.2,0,0.3,0.1,0.5
		c0,0.3,0.1,0.6,0.1,0.9c0,0.1,0,0.3,0,0.4c0,0.4,0.1,0.9,0.1,1.3c0,0.1,0,0.1,0,0.2c0,0.4,0.1,0.8,0.1,1.2c0,0.1,0,0.3,0,0.4
		c0,0.3,0,0.7,0,1c0,0.1,0,0.3,0,0.4c0,0.5,0,0.9,0,1.4l0,0l0,0l0,0c0,33.7-17.2,60.9-23,69.2c-1.2,1.7-3.1,2.6-5.1,2.6h-12.5
		c-3.4,0-6.2-2.8-6.2-6.2v-7.6c-4,0.9-8.2,1.3-12.5,1.3h-31.2v6.2c0,3.4-2.8,6.2-6.2,6.2h-13.7c-2.9,0-5.5-2.1-6.1-4.9l-1.9-8.9
		c-19.5-4.2-35.5-18-42.8-36.2h-7.3c-3.5,0-6.2-2.8-6.2-6.2v-18.7C47.1,293.2,49.9,290.4,53.4,290.4z"/>
	<path class="st12" d="M87.1,228.9c-4.9,3-13.3,13-12.2,29.6c0.3,3.8,3.9,6.4,7.5,5.6l8.7-1.9c3.4-0.7,5.5-4,4.8-7.4l-5.2-24.3
		C90.5,228.9,88.6,228.1,87.1,228.9z"/>
	<path class="st12" d="M117.5,223.2c-5.4,1.9-15.7,10-18.1,26.4c-0.5,3.7,2.4,7,6.2,7h8.9c3.5,0,6.2-2.8,6.2-6.2v-24.9
		C120.8,223.9,119.1,222.6,117.5,223.2z"/>
	<g>
		<path class="st13" d="M128.5,248L128.5,248c0-1.7,1.4-3.1,3.1-3.1H160c1.7,0,3.1,1.4,3.1,3.1l0,0c0,1.7-1.4,3.1-3.1,3.1h-28.3
			C129.9,251.1,128.5,249.7,128.5,248z"/>
	</g>
</g>
<circle class="st13" cx="59.2" cy="280.3" r="4.2"/>
<circle class="st13" cx="71.7" cy="280.3" r="4.2"/>
<ellipse class="st11" cx="51.7" cy="306" rx="6.9" ry="15.7"/>
<circle class="st12" cx="54.5" cy="306.7" r="2.1"/>
<circle class="st12" cx="48.1" cy="306.7" r="2.1"/>
<g>
	<path class="st11" d="M127.2,348h43.4c24.4,0,44.4-20,44.4-44.4v-4.1c0-24.4-20-44.4-44.4-44.4h-43.4c-24.4,0-44.4,20-44.4,44.4
		v4.1C82.8,328.1,102.7,348,127.2,348z"/>
	<g>
		<path class="st13" d="M206.6,305.9c0-23.6-20.6-43-45.8-43h-40.5c-10.5,0-20.2,3.4-27.9,9c8.4-10.2,21.6-16.8,36.3-16.8h40.5
			c25.2,0,45.8,19.3,45.8,43v7c0,13.8-7,26.1-17.9,34c6-7.3,9.6-16.3,9.6-26.2v-7H206.6z"/>
	</g>
</g>
<path class="st14" d="M214.6,279.1c2.5-5.3,9.4-8.1,14.9-6c1.7,0.6,3.2,1.7,4,3.3c0.8,1.6,0.6,3.7-0.8,4.9c-1.4,1.2-3.7,0.8-5.1-0.4
	c-1.4-1.2-2-3.2-2.2-5c-0.1-1.3,0.1-2.7,1-3.6c0.5-0.5,1.3-0.8,2-1.1c2.6-0.9,5.2-1.5,7.9-1.9"/>
<g>
	<g>
		<path class="st15" d="M239.7,367c-7.3,0-13.3-6-13.3-13.3v-30.3c0-7.3,6-13.3,13.3-13.3H270c7.3,0,13.3,6,13.3,13.3v30.3
			c0,7.3-6,13.3-13.3,13.3H239.7z"/>
		<path class="st16" d="M270.1,312.3c6.1,0,11,5,11,11v30.3c0,6.1-5,11-11,11h-30.3c-6.1,0-11-5-11-11v-30.3c0-6.1,5-11,11-11H270.1
			 M270.1,307.7h-30.3c-8.6,0-15.6,7-15.6,15.6v30.3c0,8.6,7,15.6,15.6,15.6h30.3c8.6,0,15.6-7,15.6-15.6v-30.3
			C285.7,314.7,278.7,307.7,270.1,307.7L270.1,307.7z"/>
	</g>
	<g class="st17">
		<path class="st9" d="M243.8,352.5c-0.4-0.4-0.5-0.9-0.5-1.5v-24.7c0-0.6,0.2-1.1,0.5-1.5c0.4-0.4,0.9-0.6,1.5-0.6h8
			c4.6,0,8.2,1.2,10.8,3.7c2.6,2.5,3.8,6,3.8,10.6s-1.3,8.1-3.8,10.6c-2.6,2.5-6.2,3.8-10.8,3.8h-8
			C244.7,353,244.2,352.9,243.8,352.5z M253.1,349.5c7.1,0,10.6-3.6,10.6-10.9c0-7.2-3.5-10.8-10.6-10.8h-5.6v21.7H253.1z"/>
	</g>
</g>
<g>
	<circle class="st13" cx="209" cy="129.4" r="13.7"/>
	<circle class="st13" cx="145.6" cy="87.6" r="10"/>
	<path class="st13" d="M226.2,89.7c-1.2,0-2.3,0.2-3.4,0.5l-2.6-17.7c-0.4-2.5-2.8-4.3-5.3-3.9l-50.4,7.5c-2.5,0.4-4.3,2.8-3.9,5.3
		l3.5,23.4l-21.7-5.3c-2.5-0.6-5,1-5.6,3.4l-6.6,26.9c-0.6,2.5,1,5,3.4,5.6l48.8,12.1c2.5,0.6,5-1,5.6-3.4l6.6-27
		c0.6-2.5-1-5-3.4-5.6l-3.9-1l28.8-4.2c1.9,3.7,5.7,6.2,10.1,6.2c6.3,0,11.4-5.1,11.4-11.4C237.7,94.8,232.5,89.7,226.2,89.7z"/>
</g>
<g>
	<g>
		<g>
			<g>
				<g>
					<g>
						<path class="st18" d="M168.1,111c-2.5,0.4-4.9-1.4-5.3-3.9l-4.1-27.7c-0.4-2.5,1.4-4.9,3.9-5.3l50.4-7.5
							c2.5-0.4,4.9,1.4,5.3,3.9l4.1,27.8c0.4,2.5-1.4,4.9-3.9,5.3L168.1,111L168.1,111z"/>
					</g>
				</g>
				<g>
					<g>
						<path class="st19" d="M212.8,99.6l-40.3,6c-0.4-2.7-3-4.7-5.8-4.3L164,83.7c2.7-0.4,4.7-3,4.3-5.8l40.3-6
							c0.4,2.7,3,4.7,5.8,4.3l2.6,17.6C214.2,94.2,212.4,96.8,212.8,99.6z"/>
					</g>
				</g>
			</g>
			<g>
				<g>
					<circle class="st20" cx="164.4" cy="79.6" r="2"/>
				</g>
				<g>
					<circle class="st20" cx="212.9" cy="72.4" r="2"/>
				</g>
			</g>
			<g>
				<g>
					<circle class="st20" cx="168.4" cy="105.4" r="2"/>
				</g>
				<g>
					<circle class="st20" cx="216.9" cy="98.1" r="2"/>
				</g>
			</g>
			<g>
				<g>
					<circle class="st18" cx="171.9" cy="82.2" r="1.2"/>
				</g>
			</g>
			<g>
				<g>
					<ellipse class="st18" cx="175.8" cy="83.1" rx="1.2" ry="1.2"/>
				</g>
			</g>
			<g>
				<g>
					<ellipse class="st18" cx="202.1" cy="77.5" rx="1.2" ry="1.2"/>
				</g>
			</g>
			<g>
				<g>
					<circle class="st18" cx="167.6" cy="86.9" r="1.2"/>
				</g>
			</g>
			<g>
				<g>
					<circle class="st18" cx="174.2" cy="101.8" r="1.2"/>
				</g>
			</g>
			<g>
				<g>
					<ellipse class="st18" cx="178.1" cy="98.5" rx="1.2" ry="1.2"/>
				</g>
			</g>
			<g>
				<g>
					<circle class="st18" cx="169.4" cy="98.9" r="1.2"/>
				</g>
			</g>
			<g>
				<g>
					<circle class="st18" cx="168.1" cy="93.6" r="1.2"/>
				</g>
			</g>
			<g>
				<g>
					<ellipse class="st18" cx="208.1" cy="78" rx="1.2" ry="1.2"/>
				</g>
			</g>
			<g>
				<g>
					<ellipse class="st18" cx="206.7" cy="85.1" rx="1.2" ry="1.2"/>
				</g>
			</g>
			<g>
				<g>
					<ellipse class="st18" cx="212" cy="82" rx="1.2" ry="1.2"/>
				</g>
			</g>
			<g>
				<g>
					<ellipse class="st18" cx="212.4" cy="89" rx="1.2" ry="1.2"/>
				</g>
			</g>
			<g>
				<g>
					<ellipse class="st18" cx="208.2" cy="90.4" rx="1.2" ry="1.2"/>
				</g>
			</g>
			<g>
				<g>
					<ellipse class="st18" cx="204.3" cy="95.2" rx="1.2" ry="1.2"/>
				</g>
			</g>
			<g>
				<g>
					<ellipse class="st18" cx="209.9" cy="95.7" rx="1.2" ry="1.2"/>
				</g>
			</g>
			<g id="XMLID_104_">
				<path class="st9" d="M173.8,96.6c-0.2,0-0.4-0.1-0.4-0.3l-0.1-0.5c-0.7,0-1.2,0-1.8-0.4l0.1,0.5c0,0.2-0.1,0.4-0.3,0.4
					s-0.4-0.1-0.4-0.3l-0.3-2.1c0-0.2,0.1-0.4,0.3-0.4s0.4,0.1,0.4,0.3l0.1,0.8c0.4,0.4,0.7,0.4,1.4,0.6c0.2,0,0.3,0.1,0.5,0.1
					l-0.5-3.3c-0.7-0.1-1.2-0.2-1.5-0.3c-0.4-0.1-0.7-0.3-0.9-0.5s-0.4-0.5-0.5-0.9c-0.1-0.7,0-1.2,0.4-1.7c0.4-0.4,1-0.7,1.9-0.9
					l-0.1-0.4c0-0.2,0.1-0.4,0.3-0.4s0.4,0.1,0.4,0.3l0.1,0.5c0.6,0,1.2,0.1,1.7,0.4c0.1,0.1,0.1,0.1,0.2,0.2l-0.1-0.5
					c0-0.2,0.1-0.4,0.3-0.4s0.4,0.1,0.4,0.3l0.3,2.1c0,0.2-0.1,0.4-0.3,0.4s-0.4-0.1-0.4-0.3l-0.1-0.7c-0.4-0.4-0.8-0.7-1.4-0.8
					c-0.2,0-0.3-0.1-0.5-0.1l0.5,3.1c0.1,0,0.3,0,0.5,0.1c0.4,0,0.9,0.1,1.2,0.2c0.4,0.1,0.7,0.3,0.9,0.5s0.4,0.6,0.5,0.9
					c0.1,0.7-0.1,1.3-0.5,1.8s-1.1,0.8-2,0.9l0.1,0.4C174.1,96.4,173.9,96.5,173.8,96.6 M172.1,95.3c0.1,0,0.1,0,0.2,0
					C172.4,95.3,172.2,95.3,172.1,95.3 M173.4,92l0.5,3.1c0.7-0.1,1.2-0.3,1.5-0.7c0.3-0.4,0.5-0.8,0.4-1.2c0-0.3-0.1-0.5-0.3-0.6
					c-0.2-0.2-0.4-0.3-0.7-0.4s-0.5-0.1-0.8-0.1L173.4,92z M175.8,94.5c0,0.1-0.1,0.1-0.1,0.2c-0.1,0.1-0.1,0.1-0.2,0.2
					C175.6,94.8,175.6,94.8,175.8,94.5C175.8,94.5,175.8,94.5,175.8,94.5 M172.1,88.2c-0.7,0.1-1.1,0.3-1.4,0.6
					c-0.3,0.3-0.4,0.7-0.3,1.1c0,0.3,0.1,0.5,0.3,0.6c0.2,0.2,0.4,0.3,0.7,0.4s0.5,0.1,0.8,0.2c0.2,0,0.3,0.1,0.4,0L172.1,88.2
					L172.1,88.2z"/>
			</g>
			<g id="XMLID_85_">
				<g id="XMLID_102_">
					<g id="XMLID_103_">
						<path class="st21" d="M192.2,102.2c-0.6,0.1-1,0.6-0.9,1.2l0.5-0.1c0-0.3,0.1-0.5,0.4-0.6s0.5,0.1,0.6,0.4l0.5-0.1
							C193.4,102.5,192.9,102.1,192.2,102.2z"/>
					</g>
				</g>
				<g id="XMLID_100_">
					<g id="XMLID_101_">
						<path class="st21" d="M189.6,102.6c-0.6,0.1-1,0.6-0.9,1.2l0.5-0.1c0-0.3,0.1-0.5,0.4-0.6s0.5,0.1,0.6,0.4l0.5-0.1
							C190.6,102.9,190.1,102.5,189.6,102.6z"/>
					</g>
				</g>
				<g id="XMLID_98_">
					<g id="XMLID_99_">
						<path class="st21" d="M195.1,101.8c-0.6,0.1-1,0.6-0.9,1.2l0.5-0.1c0-0.3,0.1-0.5,0.4-0.6c0.3,0,0.5,0.1,0.6,0.4l0.5-0.1
							C196.1,102.1,195.6,101.7,195.1,101.8z"/>
					</g>
				</g>
				<g id="XMLID_96_">
					<g id="XMLID_97_">
						<path class="st21" d="M184.1,103.4c-0.6,0.1-1,0.6-0.9,1.2l0.5-0.1c0-0.3,0.1-0.5,0.4-0.6s0.5,0.1,0.6,0.4l0.5-0.1
							C185.2,103.7,184.8,103.3,184.1,103.4z"/>
					</g>
				</g>
				<g id="XMLID_94_">
					<g id="XMLID_95_">
						<path class="st21" d="M181.4,103.8c-0.6,0.1-1,0.6-0.9,1.2l0.5-0.1c0-0.3,0.1-0.5,0.4-0.6c0.3,0,0.5,0.1,0.6,0.4l0.5-0.1
							C182.6,104.1,181.9,103.7,181.4,103.8z"/>
					</g>
				</g>
				<g id="XMLID_92_">
					<g id="XMLID_93_">
						<path class="st21" d="M186.9,103c-0.6,0.1-1,0.6-0.9,1.2l0.5-0.1c0-0.3,0.1-0.5,0.4-0.6s0.5,0.1,0.6,0.4l0.5-0.1
							C187.9,103.3,187.4,102.9,186.9,103z"/>
					</g>
				</g>
				<g id="XMLID_90_">
					<g id="XMLID_91_">
						<path class="st21" d="M200.4,100.9c-0.6,0.1-1,0.6-0.9,1.2l0.5-0.1c0-0.3,0.1-0.5,0.4-0.6c0.3,0,0.5,0.1,0.6,0.4l0.5-0.1
							C201.6,101.3,201.1,100.9,200.4,100.9z"/>
					</g>
				</g>
				<g id="XMLID_88_">
					<g id="XMLID_89_">
						<path class="st21" d="M197.8,101.4c-0.6,0.1-1,0.6-0.9,1.2l0.5-0.1c0-0.3,0.1-0.5,0.4-0.6s0.5,0.1,0.6,0.4l0.5-0.1
							C198.9,101.7,198.2,101.3,197.8,101.4z"/>
					</g>
				</g>
				<g id="XMLID_86_">
					<g id="XMLID_87_">
						<path class="st21" d="M203.1,100.5c-0.6,0.1-1,0.6-0.9,1.2l0.5-0.1c0-0.3,0.1-0.5,0.4-0.6c0.3,0,0.5,0.1,0.6,0.4l0.5-0.1
							C204.2,100.9,203.8,100.5,203.1,100.5z"/>
					</g>
				</g>
			</g>
			<g id="XMLID_8_">
				<g id="XMLID_83_">
					<g id="XMLID_84_">
						<path class="st21" d="M188.2,75.4c0.6-0.1,1-0.6,0.9-1.2l-0.5,0.1c0,0.3-0.1,0.5-0.4,0.6c-0.3,0-0.5-0.1-0.6-0.4l-0.5,0.1
							C187.1,75.1,187.8,75.5,188.2,75.4z"/>
					</g>
				</g>
				<g id="XMLID_81_">
					<g id="XMLID_82_">
						<path class="st21" d="M191.1,75c0.6-0.1,1-0.6,0.9-1.2l-0.5,0.1c0,0.3-0.1,0.5-0.4,0.6s-0.5-0.1-0.6-0.4l-0.5,0.1
							C189.9,74.7,190.4,75.1,191.1,75z"/>
					</g>
				</g>
				<g id="XMLID_79_">
					<g id="XMLID_80_">
						<path class="st21" d="M185.6,75.8c0.6-0.1,1-0.6,0.9-1.2l-0.5,0.1c0,0.3-0.1,0.5-0.4,0.6s-0.5-0.1-0.6-0.4l-0.5,0.1
							C184.4,75.5,185.1,75.9,185.6,75.8z"/>
					</g>
				</g>
				<g id="XMLID_77_">
					<g id="XMLID_78_">
						<path class="st21" d="M196.4,74.2c0.6-0.1,1-0.6,0.9-1.2l-0.5,0.1c0,0.3-0.1,0.5-0.4,0.6s-0.5-0.1-0.6-0.4l-0.5,0.1
							C195.4,73.8,195.9,74.2,196.4,74.2z"/>
					</g>
				</g>
				<g id="XMLID_75_">
					<g id="XMLID_76_">
						<path class="st21" d="M199.1,73.8c0.6-0.1,1-0.6,0.9-1.2l-0.5,0.1c0,0.3-0.1,0.5-0.4,0.6c-0.3,0-0.5-0.1-0.6-0.4L198,73
							C198.1,73.4,198.6,73.8,199.1,73.8z"/>
					</g>
				</g>
				<g id="XMLID_73_">
					<g id="XMLID_74_">
						<path class="st21" d="M193.8,74.6c0.6-0.1,1-0.6,0.9-1.2l-0.5,0.1c0,0.3-0.1,0.5-0.4,0.6s-0.5-0.1-0.6-0.4l-0.5,0.1
							C192.6,74.3,193.1,74.7,193.8,74.6z"/>
					</g>
				</g>
				<g id="XMLID_71_">
					<g id="XMLID_72_">
						<path class="st21" d="M180.1,76.6c0.6-0.1,1-0.6,0.9-1.2l-0.5,0.1c0,0.3-0.1,0.5-0.4,0.6c-0.3,0-0.5-0.1-0.6-0.4l-0.5,0.1
							C179.1,76.3,179.6,76.7,180.1,76.6z"/>
					</g>
				</g>
				<g id="XMLID_69_">
					<g id="XMLID_70_">
						<path class="st21" d="M182.9,76.2c0.6-0.1,1-0.6,0.9-1.2l-0.5,0.1c0,0.3-0.1,0.5-0.4,0.6c-0.3,0-0.5-0.1-0.6-0.4l-0.5,0.1
							C181.8,75.9,182.2,76.3,182.9,76.2z"/>
					</g>
				</g>
				<g id="XMLID_29_">
					<g id="XMLID_68_">
						<path class="st21" d="M177.4,77c0.6-0.1,1-0.6,0.9-1.2l-0.5,0.1c0,0.3-0.1,0.5-0.4,0.6s-0.5-0.1-0.6-0.4l-0.5,0.1
							C176.2,76.7,176.9,77.1,177.4,77z"/>
					</g>
				</g>
			</g>
		</g>
		<g>
			<circle class="st20" cx="190.4" cy="88.5" r="12.8"/>
		</g>
		<g>
			<g>
				<ellipse class="st19" cx="190.3" cy="88.5" rx="11.1" ry="11.1"/>
			</g>
		</g>
		<g>
			<g class="st17">
				<g>
					<path class="st9" d="M190.7,93.3c0.1,0.6-0.2,1-0.9,1.1l-6.5,1c-0.3,0-0.5,0-0.7-0.2c-0.2-0.2-0.3-0.4-0.4-0.6
						c-0.1-0.3,0-0.7,0.3-1l3.3-4.7c0.4-0.6,0.7-1.1,0.8-1.6c0.2-0.5,0.2-0.9,0.1-1.3c-0.1-0.5-0.3-0.9-0.6-1.2
						c-0.3-0.2-0.8-0.3-1.4-0.2c-0.5,0.1-0.9,0.2-1.3,0.5c-0.4,0.2-0.8,0.5-1.2,0.9c-0.1,0.1-0.2,0.2-0.3,0.2
						c-0.1,0.1-0.2,0.1-0.3,0.1c-0.2,0-0.4,0-0.5-0.2c-0.2-0.2-0.3-0.4-0.3-0.6c0-0.2,0-0.3,0-0.5c0-0.1,0.1-0.3,0.2-0.4
						c0.4-0.5,1-0.9,1.6-1.2s1.3-0.5,2-0.6c1.2-0.2,2.1,0,2.9,0.5c0.8,0.5,1.2,1.2,1.4,2.2c0.1,0.7,0.1,1.4-0.2,2
						c-0.2,0.7-0.6,1.4-1.2,2.3l-2.5,3.6l4.5-0.7C190.2,92.4,190.6,92.7,190.7,93.3z"/>
				</g>
				<g>
					<path class="st9" d="M193.2,92.4c-0.9-0.9-1.5-2.4-1.8-4.4c-0.3-2-0.2-3.6,0.4-4.7c0.6-1.2,1.6-1.8,3-2.1
						c1.4-0.2,2.6,0.2,3.5,1.1c0.9,0.9,1.5,2.4,1.8,4.4c0.3,2,0.2,3.6-0.4,4.7c-0.6,1.2-1.6,1.9-3,2.1
						C195.2,93.7,194.1,93.3,193.2,92.4z M197.9,90.4c0.2-0.8,0.3-1.9,0-3.4c-0.2-1.6-0.6-2.6-1-3.3c-0.5-0.6-1.1-0.9-1.8-0.8
						c-0.8,0.1-1.3,0.5-1.5,1.3c-0.2,0.8-0.3,1.9,0,3.4c0.2,1.5,0.6,2.6,1,3.3c0.5,0.7,1.1,0.9,1.8,0.8
						C197.2,91.6,197.7,91.2,197.9,90.4z"/>
				</g>
			</g>
		</g>
	</g>
	<g>
		<g>
			<g>
				<g>
					<path class="st4" d="M207,141.1c-7.5,0-13.7-6.2-13.7-13.7s6.2-13.7,13.7-13.7s13.7,6.2,13.7,13.7S214.6,141.1,207,141.1z"/>
				</g>
			</g>
			<g>
				<circle class="st22" cx="207" cy="127.4" r="9.9"/>
				<path class="st23" d="M207,137.7c-5.6,0-10.2-4.6-10.2-10.2c0-5.6,4.6-10.2,10.2-10.2s10.2,4.6,10.2,10.2
					C217.2,133.1,212.6,137.7,207,137.7z M207,117.9c-5.3,0-9.6,4.3-9.6,9.6c0,5.3,4.3,9.6,9.6,9.6s9.6-4.3,9.6-9.6
					C216.6,122.2,212.3,117.9,207,117.9z"/>
			</g>
		</g>
		<g>
			<g>
				<g>
					<path class="st24" d="M207.9,138.8c-0.2,0-0.3-0.1-0.3-0.3c0-0.2,0.1-0.4,0.3-0.4c0.1,0,0.2,0,0.3,0c0.2,0,0.4,0.1,0.4,0.3
						c0,0.2-0.1,0.4-0.3,0.4C208.2,138.7,208,138.7,207.9,138.8C207.9,138.8,207.9,138.8,207.9,138.8z M205.5,138.7
						C205.5,138.7,205.4,138.7,205.5,138.7c-0.2,0-0.3,0-0.4-0.1c-0.2,0-0.3-0.2-0.3-0.4c0-0.2,0.2-0.3,0.4-0.3c0.1,0,0.2,0,0.3,0.1
						c0.2,0,0.3,0.2,0.3,0.4C205.8,138.6,205.6,138.7,205.5,138.7z M210.6,138.2c-0.1,0-0.3-0.1-0.3-0.2c-0.1-0.2,0-0.4,0.2-0.4
						c0.1,0,0.2-0.1,0.3-0.1c0.2-0.1,0.4,0,0.4,0.2s0,0.4-0.2,0.4c-0.1,0-0.2,0.1-0.3,0.1C210.7,138.2,210.6,138.2,210.6,138.2z
						 M202.8,138c0,0-0.1,0-0.1,0c-0.1,0-0.2-0.1-0.3-0.1c-0.2-0.1-0.2-0.3-0.2-0.5s0.3-0.2,0.5-0.2c0.1,0,0.2,0.1,0.3,0.1
						c0.2,0.1,0.3,0.3,0.2,0.4C203.1,137.9,202.9,138,202.8,138z M213.1,137c-0.1,0-0.2-0.1-0.3-0.2c-0.1-0.2-0.1-0.4,0.1-0.5
						c0.1-0.1,0.2-0.1,0.3-0.2c0.2-0.1,0.4-0.1,0.5,0.1c0.1,0.2,0.1,0.4-0.1,0.5c-0.1,0.1-0.2,0.1-0.3,0.2
						C213.2,136.9,213.2,137,213.1,137z M200.4,136.6c-0.1,0-0.1,0-0.2-0.1c-0.1-0.1-0.2-0.1-0.3-0.2c-0.1-0.1-0.2-0.3-0.1-0.5
						c0.1-0.1,0.3-0.2,0.5-0.1c0.1,0.1,0.2,0.1,0.3,0.2c0.2,0.1,0.2,0.3,0.1,0.5C200.6,136.5,200.5,136.6,200.4,136.6z M215.2,135.1
						c-0.1,0-0.2,0-0.2-0.1c-0.1-0.1-0.2-0.3,0-0.5c0.1-0.1,0.1-0.2,0.2-0.3c0.1-0.1,0.3-0.2,0.5,0c0.1,0.1,0.2,0.3,0,0.5
						c-0.1,0.1-0.2,0.2-0.2,0.3C215.4,135.1,215.3,135.1,215.2,135.1z M198.4,134.7c-0.1,0-0.2,0-0.3-0.1c-0.1-0.1-0.1-0.2-0.2-0.3
						c-0.1-0.2-0.1-0.4,0.1-0.5c0.2-0.1,0.4-0.1,0.5,0.1c0.1,0.1,0.1,0.2,0.2,0.3c0.1,0.1,0.1,0.4-0.1,0.5
						C198.6,134.6,198.5,134.7,198.4,134.7z M216.8,132.9c-0.1,0-0.1,0-0.2,0c-0.2-0.1-0.2-0.3-0.1-0.5c0.1-0.1,0.1-0.2,0.2-0.3
						c0.1-0.2,0.3-0.2,0.5-0.2c0.2,0.1,0.2,0.3,0.2,0.5c-0.1,0.1-0.1,0.2-0.2,0.3C217,132.8,216.9,132.9,216.8,132.9z M197,132.3
						c-0.1,0-0.3-0.1-0.3-0.2c0-0.1-0.1-0.2-0.1-0.3c-0.1-0.2,0-0.4,0.2-0.4c0.2-0.1,0.4,0,0.4,0.2c0,0.1,0.1,0.2,0.1,0.3
						c0.1,0.2,0,0.4-0.2,0.5C197.1,132.3,197,132.3,197,132.3z M217.7,130.3C217.7,130.3,217.7,130.3,217.7,130.3
						c-0.3,0-0.4-0.2-0.3-0.4c0-0.1,0-0.2,0.1-0.3c0-0.2,0.2-0.3,0.4-0.3c0.2,0,0.3,0.2,0.3,0.4c0,0.1,0,0.2-0.1,0.3
						C218,130.2,217.9,130.3,217.7,130.3z M196.2,129.7c-0.2,0-0.3-0.1-0.3-0.3c0-0.1,0-0.2-0.1-0.4c0-0.2,0.1-0.4,0.3-0.4
						c0.2,0,0.4,0.1,0.4,0.3c0,0.1,0,0.2,0.1,0.3C196.5,129.4,196.4,129.6,196.2,129.7C196.2,129.7,196.2,129.7,196.2,129.7z
						 M218,127.5c-0.2,0-0.3-0.1-0.3-0.3c0-0.1,0-0.2,0-0.3c0-0.2,0.1-0.3,0.3-0.4c0.2,0,0.4,0.1,0.4,0.3c0,0.1,0,0.2,0,0.4
						C218.3,127.4,218.2,127.5,218,127.5C218,127.5,218,127.5,218,127.5z M196,126.9C196,126.9,196,126.9,196,126.9
						c-0.2,0-0.4-0.2-0.3-0.4c0-0.1,0-0.2,0-0.4c0-0.2,0.2-0.3,0.4-0.3c0.2,0,0.3,0.2,0.3,0.4c0,0.1,0,0.2,0,0.3
						C196.4,126.8,196.2,126.9,196,126.9z M217.6,124.8c-0.1,0-0.3-0.1-0.3-0.2c0-0.1-0.1-0.2-0.1-0.3c-0.1-0.2,0-0.4,0.2-0.4
						c0.2-0.1,0.4,0,0.4,0.2c0,0.1,0.1,0.2,0.1,0.3C218,124.5,217.9,124.7,217.6,124.8C217.6,124.8,217.6,124.8,217.6,124.8z
						 M196.6,124.2c0,0-0.1,0-0.1,0c-0.2-0.1-0.3-0.3-0.2-0.4c0-0.1,0.1-0.2,0.1-0.3c0.1-0.2,0.3-0.3,0.4-0.2
						c0.2,0.1,0.3,0.3,0.2,0.4c0,0.1-0.1,0.2-0.1,0.3C196.9,124.1,196.7,124.2,196.6,124.2z M216.5,122.2c-0.1,0-0.2-0.1-0.3-0.2
						c-0.1-0.1-0.1-0.2-0.2-0.3c-0.1-0.2-0.1-0.4,0.1-0.5c0.2-0.1,0.4-0.1,0.5,0.1c0.1,0.1,0.1,0.2,0.2,0.3c0.1,0.2,0,0.4-0.1,0.5
						C216.6,122.2,216.6,122.2,216.5,122.2z M197.8,121.7c-0.1,0-0.1,0-0.2-0.1c-0.2-0.1-0.2-0.3-0.1-0.5c0.1-0.1,0.1-0.2,0.2-0.3
						c0.1-0.2,0.3-0.2,0.5-0.1c0.2,0.1,0.2,0.3,0.1,0.5c-0.1,0.1-0.1,0.2-0.2,0.3C198.1,121.6,197.9,121.7,197.8,121.7z M214.8,120
						c-0.1,0-0.2,0-0.2-0.1c-0.1-0.1-0.2-0.2-0.2-0.2c-0.1-0.1-0.1-0.3,0-0.5c0.1-0.1,0.3-0.1,0.5,0c0.1,0.1,0.2,0.2,0.3,0.2
						c0.1,0.1,0.1,0.4,0,0.5C215,120,214.9,120,214.8,120z M199.6,119.6c-0.1,0-0.2,0-0.3-0.1c-0.1-0.1-0.1-0.4,0-0.5
						c0.1-0.1,0.2-0.2,0.3-0.2c0.1-0.1,0.4-0.1,0.5,0c0.1,0.1,0.1,0.4,0,0.5c-0.1,0.1-0.2,0.1-0.3,0.2
						C199.8,119.6,199.7,119.6,199.6,119.6z M212.6,118.3c-0.1,0-0.1,0-0.2,0c-0.1-0.1-0.2-0.1-0.3-0.2c-0.2-0.1-0.2-0.3-0.1-0.5
						c0.1-0.2,0.3-0.2,0.5-0.1c0.1,0.1,0.2,0.1,0.3,0.2c0.2,0.1,0.2,0.3,0.1,0.5C212.8,118.3,212.7,118.3,212.6,118.3z M201.9,118
						c-0.1,0-0.2-0.1-0.3-0.2c-0.1-0.2,0-0.4,0.1-0.5c0.1-0.1,0.2-0.1,0.3-0.2c0.2-0.1,0.4,0,0.5,0.2c0.1,0.2,0,0.4-0.2,0.5
						c-0.1,0-0.2,0.1-0.3,0.1C202,118,202,118,201.9,118z M210.1,117.2C210,117.2,210,117.2,210.1,117.2c-0.2,0-0.3-0.1-0.4-0.1
						c-0.2,0-0.3-0.2-0.2-0.4c0-0.2,0.2-0.3,0.4-0.2c0.1,0,0.2,0.1,0.3,0.1c0.2,0.1,0.3,0.2,0.2,0.4
						C210.4,117.1,210.2,117.2,210.1,117.2z M204.5,117.1c-0.2,0-0.3-0.1-0.3-0.3c0-0.2,0.1-0.4,0.3-0.4c0.1,0,0.2-0.1,0.3-0.1
						c0.2,0,0.4,0.1,0.4,0.3c0,0.2-0.1,0.4-0.3,0.4C204.8,117,204.7,117,204.5,117.1C204.6,117.1,204.5,117.1,204.5,117.1z
						 M207.3,116.8C207.3,116.8,207.3,116.8,207.3,116.8c-0.1,0-0.2,0-0.3,0c-0.2,0-0.3-0.2-0.3-0.3s0.2-0.3,0.3-0.3
						c0.1,0,0.2,0,0.4,0c0.2,0,0.3,0.2,0.3,0.4C207.7,116.7,207.5,116.8,207.3,116.8z"/>
				</g>
			</g>
		</g>
		<g>
			<g class="st17">
				<g>
					<path class="st8" d="M206.8,130.8c0,0.4-0.2,0.6-0.7,0.6h-4c-0.5,0-0.7-0.2-0.7-0.6c0-0.4,0.2-0.6,0.7-0.6h1.2v-5.4l-1.1,0.7
						c-0.1,0.1-0.2,0.1-0.3,0.1c-0.2,0-0.3-0.1-0.4-0.2c-0.1-0.1-0.2-0.3-0.2-0.5c0-0.2,0.1-0.4,0.3-0.5l1.9-1.1
						c0.2-0.1,0.5-0.2,0.7-0.2c0.2,0,0.4,0.1,0.5,0.2c0.1,0.1,0.2,0.3,0.2,0.6v6.5h1.3C206.6,130.2,206.8,130.4,206.8,130.8z"/>
				</g>
				<g>
					<path class="st8" d="M208.6,130.5c-0.5-0.7-0.8-1.8-0.8-3.2c0-1.4,0.3-2.5,0.8-3.2s1.3-1.1,2.3-1.1s1.8,0.4,2.3,1.1
						s0.8,1.8,0.8,3.2c0,1.4-0.3,2.5-0.8,3.2s-1.3,1.1-2.3,1.1S209.1,131.2,208.6,130.5z M212,129.6c0.2-0.5,0.4-1.3,0.4-2.4
						c0-1.1-0.1-1.9-0.4-2.4c-0.2-0.5-0.6-0.7-1.2-0.7s-0.9,0.2-1.2,0.7c-0.2,0.5-0.4,1.3-0.4,2.4c0,1.1,0.1,1.9,0.4,2.4
						c0.2,0.5,0.6,0.7,1.2,0.7S211.8,130.1,212,129.6z"/>
				</g>
			</g>
		</g>
	</g>
	<g>
		<g>
			<g>
				<g>
					<g>
						<path class="st25" d="M131.6,133.4c-2.4-0.6-4-3.1-3.4-5.6l6.6-26.9c0.6-2.4,3.1-4,5.6-3.4l48.8,12c2.4,0.6,4,3.1,3.4,5.6
							l-6.6,27c-0.6,2.4-3.1,4-5.6,3.4L131.6,133.4L131.6,133.4z"/>
					</g>
				</g>
				<g>
					<g>
						<path class="st26" d="M176.7,139.8l-39.1-9.6c0.7-2.7-1-5.4-3.7-6.1l4.2-17.1c2.7,0.7,5.4-1,6.1-3.7l39.1,9.6
							c-0.7,2.7,1,5.4,3.7,6.1l-4.2,17.1C180.1,135.4,177.3,137.1,176.7,139.8z"/>
					</g>
				</g>
			</g>
			<g>
				<g>
					
						<ellipse transform="matrix(0.2382 -0.9712 0.9712 0.2382 6.2875 214.8446)" class="st27" cx="140.1" cy="103.4" rx="2.1" ry="2.1"/>
				</g>
				<g>
					
						<ellipse transform="matrix(0.2382 -0.9712 0.9712 0.2382 30.9274 269.3414)" class="st27" cx="187.2" cy="115" rx="2.1" ry="2.1"/>
				</g>
			</g>
			<g>
				<g>
					
						<ellipse transform="matrix(0.2382 -0.9712 0.9712 0.2382 -22.6291 227.9188)" class="st27" cx="134" cy="128.4" rx="2.1" ry="2.1"/>
				</g>
				<g>
					
						<ellipse transform="matrix(0.2382 -0.9712 0.9712 0.2382 2.0107 282.4156)" class="st27" cx="181" cy="139.9" rx="2.1" ry="2.1"/>
				</g>
			</g>
			<g>
				<g>
					<circle class="st25" cx="145.9" cy="108.5" r="1.1"/>
				</g>
			</g>
			<g>
				<g>
					<circle class="st25" cx="149.1" cy="110.9" r="1.1"/>
				</g>
			</g>
			<g>
				<g>
					<circle class="st25" cx="175.3" cy="115.6" r="1.1"/>
				</g>
			</g>
			<g>
				<g>
					<circle class="st25" cx="140.2" cy="111.3" r="1.1"/>
				</g>
			</g>
			<g>
				<g>
					<circle class="st25" cx="140.6" cy="127.4" r="1.1"/>
				</g>
			</g>
			<g>
				<g>
					<circle class="st25" cx="145.5" cy="125.8" r="1.1"/>
				</g>
			</g>
			<g>
				<g>
					<circle class="st25" cx="137.4" cy="123" r="1.1"/>
				</g>
			</g>
			<g>
				<g>
					<circle class="st25" cx="138.1" cy="117.5" r="1.1"/>
				</g>
			</g>
			<g>
				<g>
					<circle class="st25" cx="180.6" cy="118.3" r="1.1"/>
				</g>
			</g>
			<g>
				<g>
					<circle class="st25" cx="176.7" cy="124.2" r="1.1"/>
				</g>
			</g>
			<g>
				<g>
					<circle class="st25" cx="182.7" cy="123.3" r="1.1"/>
				</g>
			</g>
			<g>
				<g>
					<circle class="st25" cx="180.3" cy="130" r="1.1"/>
				</g>
			</g>
			<g>
				<g>
					<circle class="st25" cx="176" cy="129.6" r="1.1"/>
				</g>
			</g>
			<g>
				<g>
					<circle class="st25" cx="170.6" cy="132.5" r="1.1"/>
				</g>
			</g>
			<g>
				<g>
					<circle class="st25" cx="175.6" cy="135.2" r="1.1"/>
				</g>
			</g>
			<g id="XMLID_67_">
				<path class="st9" d="M142.2,122.3c-0.2-0.1-0.3-0.2-0.3-0.5l0.1-0.4c-0.7-0.3-1.1-0.5-1.5-1.1l-0.1,0.4
					c-0.1,0.2-0.2,0.3-0.5,0.3s-0.3-0.2-0.3-0.5l0.5-2.1c0.1-0.2,0.2-0.3,0.5-0.3c0.2,0.1,0.3,0.2,0.3,0.5l-0.2,0.7
					c0.3,0.5,0.5,0.7,1,1c0.1,0.1,0.3,0.1,0.4,0.3l0.8-3.3c-0.6-0.4-1-0.6-1.3-0.9c-0.3-0.2-0.5-0.5-0.6-0.9c-0.2-0.3-0.2-0.6-0.1-1
					c0.2-0.7,0.5-1.1,1-1.4c0.5-0.3,1.2-0.3,2.1-0.1l0.1-0.4c0.1-0.2,0.2-0.3,0.5-0.3s0.3,0.2,0.3,0.5l-0.1,0.4c0.6,0.2,1,0.6,1.4,1
					c0.1,0.1,0,0.2,0.1,0.3l0.1-0.4c0.1-0.2,0.2-0.3,0.5-0.3c0.2,0.1,0.3,0.2,0.3,0.5l-0.5,2.1c-0.1,0.2-0.2,0.3-0.5,0.3
					c-0.2-0.1-0.3-0.2-0.3-0.5l0.2-0.7c-0.3-0.5-0.6-0.9-1-1.3c-0.1-0.1-0.3-0.1-0.4-0.3l-0.7,3c0.1,0.1,0.2,0.1,0.5,0.3
					c0.4,0.2,0.8,0.4,1,0.6c0.3,0.2,0.5,0.5,0.6,0.9c0.2,0.3,0.2,0.7,0.1,1c-0.2,0.7-0.5,1.2-1.1,1.4c-0.5,0.3-1.3,0.3-2.1,0.1
					l-0.1,0.4C142.6,122.4,142.4,122.4,142.2,122.3 M141.2,120.6c0.1,0.1,0.1,0.1,0.1,0.1S141.3,120.6,141.2,120.6 M143.6,118
					l-0.7,3c0.7,0.2,1.2,0.1,1.7-0.1c0.4-0.2,0.7-0.5,0.8-1c0.1-0.2,0-0.5-0.1-0.6c-0.1-0.3-0.3-0.5-0.5-0.6
					c-0.2-0.1-0.5-0.3-0.7-0.4L143.6,118z M144.8,121.2c-0.1,0.1-0.1,0.1-0.2,0.1c-0.1,0.1-0.2,0-0.3,0.1
					C144.5,121.3,144.6,121.4,144.8,121.2C144.7,121.2,144.8,121.3,144.8,121.2 M143.9,114.1c-0.7-0.2-1.1-0.1-1.5,0
					c-0.3,0.1-0.6,0.5-0.7,0.9c-0.1,0.2,0,0.5,0.1,0.6c0.1,0.3,0.3,0.5,0.5,0.6c0.2,0.1,0.5,0.3,0.7,0.4c0.1,0.1,0.2,0.1,0.4,0.2
					L143.9,114.1L143.9,114.1z"/>
			</g>
			<g id="XMLID_48_">
				<g id="XMLID_65_">
					<g id="XMLID_66_">
						<g>
							<path class="st28" d="M157,134.4c-0.5-0.1-1.1,0.2-1.3,0.8l0.5,0.1c0.1-0.3,0.3-0.5,0.6-0.4s0.5,0.3,0.4,0.6l0.5,0.1
								C157.9,135.1,157.6,134.6,157,134.4z"/>
						</g>
					</g>
				</g>
				<g id="XMLID_63_">
					<g id="XMLID_64_">
						<g>
							<path class="st28" d="M154.4,133.8c-0.5-0.1-1.1,0.2-1.3,0.8l0.5,0.1c0.1-0.3,0.3-0.5,0.6-0.4c0.3,0.1,0.5,0.3,0.4,0.6
								l0.5,0.1C155.3,134.5,155,133.9,154.4,133.8z"/>
						</g>
					</g>
				</g>
				<g id="XMLID_61_">
					<g id="XMLID_62_">
						<g>
							<path class="st28" d="M159.7,135.1c-0.5-0.1-1.1,0.2-1.3,0.8l0.5,0.1c0.1-0.3,0.3-0.5,0.6-0.4c0.3,0.1,0.5,0.3,0.4,0.6
								l0.5,0.1C160.6,135.8,160.3,135.2,159.7,135.1z"/>
						</g>
					</g>
				</g>
				<g id="XMLID_59_">
					<g id="XMLID_60_">
						<g>
							<path class="st28" d="M149.2,132.5c-0.5-0.1-1.1,0.2-1.3,0.8l0.5,0.1c0.1-0.3,0.3-0.5,0.6-0.4s0.5,0.3,0.4,0.6l0.5,0.1
								C150,133.2,149.7,132.6,149.2,132.5z"/>
						</g>
					</g>
				</g>
				<g id="XMLID_57_">
					<g id="XMLID_58_">
						<g>
							<path class="st28" d="M146.5,131.9c-0.5-0.1-1.1,0.2-1.3,0.8l0.5,0.1c0.1-0.3,0.3-0.5,0.6-0.4c0.3,0.1,0.5,0.3,0.4,0.6
								l0.5,0.1C147.4,132.5,147,132,146.5,131.9z"/>
						</g>
					</g>
				</g>
				<g id="XMLID_55_">
					<g id="XMLID_56_">
						<g>
							<path class="st28" d="M151.8,133.1c-0.5-0.1-1.1,0.2-1.3,0.8l0.5,0.1c0.1-0.3,0.3-0.5,0.6-0.4c0.3,0.1,0.5,0.3,0.4,0.6
								l0.5,0.1C152.7,133.8,152.3,133.3,151.8,133.1z"/>
						</g>
					</g>
				</g>
				<g id="XMLID_53_">
					<g id="XMLID_54_">
						<g>
							<path class="st28" d="M165,136.4c-0.5-0.1-1.1,0.2-1.3,0.8l0.5,0.1c0.1-0.3,0.3-0.5,0.6-0.4c0.3,0.1,0.5,0.3,0.4,0.6l0.5,0.1
								C165.9,137.1,165.5,136.5,165,136.4z"/>
						</g>
					</g>
				</g>
				<g id="XMLID_51_">
					<g id="XMLID_52_">
						<g>
							<path class="st28" d="M162.3,135.7c-0.5-0.1-1.1,0.2-1.3,0.8l0.5,0.1c0.1-0.3,0.3-0.5,0.6-0.4s0.5,0.3,0.4,0.6l0.5,0.1
								C163.2,136.4,162.8,135.9,162.3,135.7z"/>
						</g>
					</g>
				</g>
				<g id="XMLID_49_">
					<g id="XMLID_50_">
						<g>
							<path class="st28" d="M167.6,137c-0.5-0.1-1.1,0.2-1.3,0.8l0.5,0.1c0.1-0.3,0.3-0.5,0.6-0.4c0.3,0.1,0.5,0.3,0.4,0.6l0.5,0.1
								C168.5,137.7,168.2,137.2,167.6,137z"/>
						</g>
					</g>
				</g>
			</g>
			<g id="XMLID_10_">
				<g id="XMLID_46_">
					<g id="XMLID_47_">
						<g>
							<path class="st28" d="M163.4,108.4c0.5,0.1,1.1-0.2,1.3-0.8l-0.5-0.1c-0.1,0.3-0.3,0.5-0.6,0.4c-0.3-0.1-0.5-0.3-0.4-0.6
								l-0.5-0.1C162.5,107.7,162.9,108.3,163.4,108.4z"/>
						</g>
					</g>
				</g>
				<g id="XMLID_44_">
					<g id="XMLID_45_">
						<g>
							<path class="st28" d="M166,109.1c0.5,0.1,1.1-0.2,1.3-0.8l-0.5-0.1c-0.1,0.3-0.3,0.5-0.6,0.4c-0.3-0.1-0.5-0.3-0.4-0.6
								l-0.5-0.1C165.2,108.4,165.5,108.9,166,109.1z"/>
						</g>
					</g>
				</g>
				<g id="XMLID_42_">
					<g id="XMLID_43_">
						<g>
							<path class="st28" d="M160.8,107.8c0.5,0.1,1.1-0.2,1.3-0.8l-0.5-0.1c-0.1,0.3-0.3,0.5-0.6,0.4s-0.5-0.3-0.4-0.6l-0.5-0.1
								C159.9,107.1,160.3,107.7,160.8,107.8z"/>
						</g>
					</g>
				</g>
				<g id="XMLID_40_">
					<g id="XMLID_41_">
						<g>
							<path class="st28" d="M171.4,110.4c0.5,0.1,1.1-0.2,1.3-0.8l-0.5-0.1c-0.1,0.3-0.3,0.5-0.6,0.4c-0.3-0.1-0.5-0.3-0.4-0.6
								l-0.5-0.1C170.4,109.7,170.8,110.2,171.4,110.4z"/>
						</g>
					</g>
				</g>
				<g id="XMLID_38_">
					<g id="XMLID_39_">
						<g>
							<path class="st28" d="M173.9,111c0.5,0.1,1.1-0.2,1.3-0.8l-0.5-0.1c-0.1,0.3-0.3,0.5-0.6,0.4s-0.5-0.3-0.4-0.6l-0.5-0.1
								C173.1,110.3,173.4,110.9,173.9,111z"/>
						</g>
					</g>
				</g>
				<g id="XMLID_36_">
					<g id="XMLID_37_">
						<g>
							<path class="st28" d="M168.7,109.7c0.5,0.1,1.1-0.2,1.3-0.8l-0.5-0.1c-0.1,0.3-0.3,0.5-0.6,0.4c-0.3-0.1-0.5-0.3-0.4-0.6
								l-0.5-0.1C167.8,109,168.1,109.6,168.7,109.7z"/>
						</g>
					</g>
				</g>
				<g id="XMLID_34_">
					<g id="XMLID_35_">
						<g>
							<path class="st28" d="M155.6,106.5c0.5,0.1,1.1-0.2,1.3-0.8l-0.5-0.1c-0.1,0.3-0.3,0.5-0.6,0.4c-0.3-0.1-0.5-0.3-0.4-0.6
								l-0.5-0.1C154.6,105.8,155,106.4,155.6,106.5z"/>
						</g>
					</g>
				</g>
				<g id="XMLID_32_">
					<g id="XMLID_33_">
						<g>
							<path class="st28" d="M158.1,107.1c0.5,0.1,1.1-0.2,1.3-0.8l-0.5-0.1c-0.1,0.3-0.3,0.5-0.6,0.4c-0.3-0.1-0.5-0.3-0.4-0.6
								l-0.5-0.1C157.2,106.4,157.5,107,158.1,107.1z"/>
						</g>
					</g>
				</g>
				<g id="XMLID_30_">
					<g id="XMLID_31_">
						<g>
							<path class="st28" d="M152.9,105.8c0.5,0.1,1.1-0.2,1.3-0.8l-0.5-0.1c-0.1,0.3-0.3,0.5-0.6,0.4c-0.3-0.1-0.5-0.3-0.4-0.6
								l-0.5-0.1C152,105.2,152.3,105.7,152.9,105.8z"/>
						</g>
					</g>
				</g>
			</g>
		</g>
		<g>
			<g>
				
					<ellipse transform="matrix(0.2382 -0.9712 0.9712 0.2382 4.4415 248.1372)" class="st25" cx="160.4" cy="121.2" rx="12.7" ry="12.7"/>
			</g>
		</g>
		<g>
			<circle class="st27" cx="160.4" cy="121.2" r="11"/>
		</g>
		<g>
			<g class="st17">
				<g>
					<path class="st9" d="M158.4,120.1c0.4,0.4,0.7,0.9,0.9,1.4c0.2,0.6,0.1,1.2,0,1.8c-0.2,0.7-0.5,1.2-0.9,1.7
						c-0.4,0.4-1,0.7-1.6,0.9c-0.6,0.1-1.3,0.1-2,0c-0.6-0.1-1.2-0.4-1.7-0.7c-0.5-0.3-1-0.7-1.3-1.2c-0.2-0.2-0.2-0.5-0.2-0.8
						c0.1-0.2,0.2-0.4,0.3-0.5c0.2-0.1,0.3-0.2,0.5-0.1c0.1,0,0.2,0.1,0.3,0.1c0.1,0.1,0.2,0.1,0.3,0.2c0.3,0.4,0.6,0.7,1,0.9
						c0.3,0.2,0.7,0.4,1.1,0.5c0.6,0.2,1.2,0.1,1.6-0.1c0.4-0.2,0.7-0.7,0.8-1.2c0.1-0.6,0.1-1.1-0.2-1.5c-0.3-0.4-0.7-0.7-1.3-0.9
						c-0.4-0.1-0.7-0.1-1.1-0.1c-0.3,0-0.7,0.1-1,0.3c-0.2,0.1-0.4,0.1-0.6,0.1c-0.2,0-0.3-0.1-0.5-0.3c-0.1-0.1-0.1-0.3-0.1-0.5
						l1.1-4.5c0.1-0.3,0.2-0.5,0.4-0.6c0.2-0.1,0.4-0.1,0.7-0.1l4.9,1.2c0.6,0.1,0.8,0.5,0.7,0.9c-0.1,0.5-0.5,0.7-1.1,0.5l-3.9-1
						l-0.7,2.8c0.6-0.2,1.2-0.3,2-0.1C157.4,119.5,158,119.7,158.4,120.1z"/>
				</g>
				<g>
					<path class="st9" d="M160.9,126c-0.4-1.1-0.4-2.4,0-4.2c0.4-1.7,1.1-2.9,1.9-3.7c0.9-0.7,1.9-1,3.1-0.7c1.2,0.3,2,1,2.5,2
						c0.4,1.1,0.4,2.4,0,4.2c-0.4,1.7-1.1,2.9-1.9,3.7c-0.9,0.7-1.9,1-3.1,0.7C162.1,127.7,161.3,127.1,160.9,126z M165.4,126
						c0.5-0.5,0.8-1.5,1.2-2.8c0.3-1.3,0.4-2.3,0.3-3c-0.2-0.7-0.6-1.1-1.2-1.3c-0.7-0.2-1.2,0-1.7,0.5c-0.4,0.5-0.8,1.5-1.2,2.8
						c-0.3,1.3-0.4,2.3-0.3,3c0.2,0.7,0.6,1.1,1.2,1.3C164.4,126.7,164.9,126.5,165.4,126z"/>
				</g>
			</g>
		</g>
	</g>
	<g>
		<g>
			<g>
				<circle class="st0" cx="143.6" cy="85.6" r="10"/>
			</g>
			<circle class="st0" cx="143.6" cy="85.6" r="6.5"/>
			<g>
				<g class="st17">
					<g>
						<path class="st3" d="M146.4,89c0,0.4-0.3,0.7-0.8,0.7h-4.3c-0.5,0-0.8-0.2-0.8-0.7c0-0.4,0.3-0.6,0.8-0.6h1.3v-5.8l-1.2,0.8
							c-0.1,0.1-0.2,0.1-0.3,0.1c-0.2,0-0.3-0.1-0.5-0.2c-0.1-0.2-0.2-0.3-0.2-0.5c0-0.2,0.1-0.4,0.3-0.6l2-1.2
							c0.3-0.2,0.5-0.2,0.7-0.2c0.2,0,0.4,0.1,0.6,0.2c0.1,0.1,0.2,0.3,0.2,0.6v6.9h1.3C146.2,88.4,146.4,88.6,146.4,89z"/>
					</g>
				</g>
			</g>
		</g>
		<g>
			<g>
				<ellipse class="st29" cx="143.6" cy="85.6" rx="8" ry="8"/>
			</g>
		</g>
		<path id="XMLID_106_" class="st3" d="M139.8,87.1C139.8,87.1,139.9,87.2,139.8,87.1C139.9,87.2,139.8,87.1,139.8,87.1"/>
	</g>
	<g>
		<g>
			<g>
				<g>
					<circle class="st4" cx="224.2" cy="99.1" r="11.4"/>
				</g>
			</g>
			<g>
				<circle class="st1" cx="224.2" cy="99.1" r="7.5"/>
			</g>
			<g>
				<g class="st17">
					<g>
						<path class="st3" d="M226.1,98.3c0.4,0.2,0.7,0.5,0.9,1c0.2,0.4,0.3,0.9,0.3,1.4c0,0.6-0.1,1-0.4,1.5s-0.6,0.8-1.1,1
							c-0.5,0.2-1,0.4-1.6,0.4c-0.5,0-1-0.1-1.5-0.2c-0.5-0.2-0.9-0.4-1.2-0.7c-0.2-0.2-0.3-0.3-0.3-0.6c0-0.2,0-0.3,0.2-0.5
							c0.1-0.1,0.2-0.2,0.4-0.2c0.1,0,0.2,0,0.2,0c0.1,0,0.2,0.1,0.3,0.1c0.3,0.2,0.6,0.4,0.9,0.5c0.3,0.1,0.6,0.2,1,0.2
							c0.5,0,0.9-0.1,1.2-0.4c0.3-0.3,0.4-0.6,0.4-1.1c0-0.5-0.1-0.9-0.4-1.1c-0.3-0.3-0.7-0.4-1.2-0.4c-0.3,0-0.6,0-0.8,0.1
							c-0.2,0.1-0.5,0.2-0.8,0.4c-0.2,0.1-0.3,0.2-0.5,0.2s-0.3,0-0.4-0.1c-0.1-0.1-0.2-0.2-0.2-0.4v-3.8c0-0.2,0.1-0.4,0.2-0.5
							s0.3-0.2,0.5-0.2h4c0.5,0,0.7,0.2,0.7,0.6c0,0.4-0.2,0.6-0.7,0.6h-3.2v2.3c0.4-0.3,0.9-0.4,1.5-0.4
							C225.2,98,225.7,98.1,226.1,98.3z"/>
					</g>
				</g>
			</g>
		</g>
		<g>
			<g>
				<g>
					<path class="st24" d="M225.2,108.5c-0.1,0-0.3-0.1-0.3-0.3c0-0.2,0.1-0.3,0.3-0.3c0.1,0,0.2,0,0.3,0c0.2,0,0.3,0.1,0.3,0.2
						s-0.1,0.3-0.2,0.3C225.5,108.5,225.4,108.5,225.2,108.5C225.3,108.5,225.2,108.5,225.2,108.5z M223.2,108.5
						C223.2,108.5,223.2,108.5,223.2,108.5c-0.1,0-0.2,0-0.3,0c-0.2,0-0.3-0.2-0.2-0.3c0-0.2,0.2-0.3,0.3-0.2l0.3,0
						c0.2,0,0.3,0.2,0.2,0.3C223.5,108.4,223.4,108.5,223.2,108.5z M227.5,108c-0.1,0-0.2-0.1-0.3-0.2c-0.1-0.1,0-0.3,0.2-0.4
						c0.1,0,0.2-0.1,0.3-0.1c0.1-0.1,0.3,0,0.4,0.2s0,0.3-0.2,0.4C227.8,107.9,227.7,107.9,227.5,108
						C227.5,107.9,227.5,108,227.5,108z M221,107.9c0,0-0.1,0-0.1,0c-0.1,0-0.2-0.1-0.3-0.1c-0.1-0.1-0.2-0.2-0.2-0.4
						c0.1-0.1,0.2-0.2,0.4-0.2c0.1,0,0.2,0.1,0.3,0.1c0.1,0.1,0.2,0.2,0.2,0.4C221.2,107.9,221.1,107.9,221,107.9z M229.5,106.9
						c-0.1,0-0.2,0-0.2-0.1c-0.1-0.1-0.1-0.3,0.1-0.4c0.1-0.1,0.2-0.1,0.2-0.2c0.1-0.1,0.3-0.1,0.4,0.1s0.1,0.3-0.1,0.4
						c-0.1,0.1-0.2,0.1-0.2,0.2C229.6,106.9,229.6,106.9,229.5,106.9z M219,106.9c-0.1,0-0.1,0-0.2-0.1c-0.1-0.1-0.2-0.1-0.2-0.2
						c-0.1-0.1-0.1-0.3-0.1-0.4c0.1-0.1,0.3-0.1,0.4-0.1c0.1,0.1,0.1,0.1,0.2,0.2c0.1,0.1,0.2,0.3,0.1,0.4
						C219.1,106.8,219,106.9,219,106.9z M231.2,105.4c-0.1,0-0.1,0-0.2-0.1c-0.1-0.1-0.1-0.3,0-0.4c0.1-0.1,0.1-0.1,0.2-0.2
						c0.1-0.1,0.3-0.1,0.4,0c0.1,0.1,0.1,0.3,0,0.4c-0.1,0.1-0.1,0.2-0.2,0.2C231.4,105.3,231.3,105.4,231.2,105.4z M217.3,105.3
						c-0.1,0-0.2,0-0.2-0.1c-0.1-0.1-0.1-0.2-0.2-0.2c-0.1-0.1-0.1-0.3,0-0.4s0.3-0.1,0.4,0c0.1,0.1,0.1,0.1,0.2,0.2
						c0.1,0.1,0.1,0.3,0,0.4C217.4,105.3,217.3,105.3,217.3,105.3z M232.5,103.4c0,0-0.1,0-0.1,0c-0.1-0.1-0.2-0.2-0.1-0.4
						c0-0.1,0.1-0.2,0.1-0.3c0.1-0.1,0.2-0.2,0.4-0.1c0.1,0.1,0.2,0.2,0.1,0.4c0,0.1-0.1,0.2-0.1,0.3
						C232.7,103.4,232.6,103.4,232.5,103.4z M216,103.4c-0.1,0-0.2-0.1-0.3-0.2c0-0.1-0.1-0.2-0.1-0.3c-0.1-0.1,0-0.3,0.1-0.4
						c0.1-0.1,0.3,0,0.4,0.1l0.1,0.3c0.1,0.1,0,0.3-0.1,0.4C216.1,103.4,216,103.4,216,103.4z M233.2,101.3
						C233.2,101.3,233.2,101.3,233.2,101.3c-0.2,0-0.3-0.2-0.3-0.3l0.1-0.3c0-0.2,0.2-0.3,0.3-0.2c0.2,0,0.3,0.2,0.2,0.3l-0.1,0.3
						C233.5,101.2,233.4,101.3,233.2,101.3z M215.2,101.2c-0.1,0-0.2-0.1-0.3-0.2c0-0.1,0-0.2-0.1-0.3c0-0.2,0.1-0.3,0.2-0.3
						c0.2,0,0.3,0.1,0.3,0.2c0,0.1,0,0.2,0.1,0.3C215.6,101,215.5,101.2,215.2,101.2C215.3,101.2,215.3,101.2,215.2,101.2z
						 M233.4,99c-0.2,0-0.3-0.1-0.3-0.3c0-0.1,0-0.2,0-0.3c0-0.2,0.1-0.3,0.3-0.3c0.1,0,0.3,0.1,0.3,0.3c0,0.1,0,0.2,0,0.3
						C233.7,98.8,233.6,99,233.4,99C233.5,99,233.4,99,233.4,99z M215.1,98.9C215.1,98.9,215.1,98.9,215.1,98.9
						c-0.2,0-0.3-0.1-0.3-0.3c0-0.1,0-0.2,0-0.3c0-0.2,0.1-0.3,0.3-0.3c0.2,0,0.3,0.1,0.3,0.3c0,0.1,0,0.2,0,0.3
						C215.3,98.8,215.2,98.9,215.1,98.9z M233.1,96.7c-0.1,0-0.2-0.1-0.3-0.2c0-0.1-0.1-0.2-0.1-0.3c0-0.1,0-0.3,0.2-0.4
						c0.2,0,0.3,0,0.4,0.2c0,0.1,0.1,0.2,0.1,0.3C233.4,96.5,233.3,96.7,233.1,96.7C233.1,96.7,233.1,96.7,233.1,96.7z M215.4,96.7
						C215.4,96.7,215.4,96.7,215.4,96.7c-0.2-0.1-0.3-0.2-0.3-0.4c0-0.1,0.1-0.2,0.1-0.3c0-0.1,0.2-0.2,0.4-0.2
						c0.1,0,0.2,0.2,0.2,0.4c0,0.1-0.1,0.2-0.1,0.3C215.7,96.6,215.6,96.7,215.4,96.7z M232.1,94.6c-0.1,0-0.2,0-0.2-0.1
						c0-0.1-0.1-0.2-0.1-0.2c-0.1-0.1,0-0.3,0.1-0.4s0.3,0,0.4,0.1c0.1,0.1,0.1,0.2,0.2,0.3c0.1,0.1,0,0.3-0.1,0.4
						C232.2,94.6,232.2,94.6,232.1,94.6z M216.4,94.6c-0.1,0-0.1,0-0.1,0c-0.1-0.1-0.2-0.3-0.1-0.4c0.1-0.1,0.1-0.2,0.2-0.3
						c0.1-0.1,0.3-0.2,0.4-0.1c0.1,0.1,0.2,0.3,0.1,0.4c-0.1,0.1-0.1,0.2-0.1,0.2C216.6,94.5,216.5,94.6,216.4,94.6z M230.7,92.8
						c-0.1,0-0.1,0-0.2-0.1c-0.1-0.1-0.1-0.1-0.2-0.2c-0.1-0.1-0.1-0.3,0-0.4c0.1-0.1,0.3-0.1,0.4,0c0.1,0.1,0.1,0.1,0.2,0.2
						c0.1,0.1,0.1,0.3,0,0.4C230.9,92.8,230.8,92.8,230.7,92.8z M217.8,92.8c-0.1,0-0.1,0-0.2-0.1c-0.1-0.1-0.1-0.3,0-0.4
						c0.1-0.1,0.1-0.1,0.2-0.2c0.1-0.1,0.3-0.1,0.4,0c0.1,0.1,0.1,0.3,0,0.4c-0.1,0.1-0.1,0.1-0.2,0.2
						C217.9,92.7,217.9,92.8,217.8,92.8z M228.9,91.4c0,0-0.1,0-0.1,0c-0.1,0-0.2-0.1-0.2-0.1c-0.1-0.1-0.2-0.2-0.1-0.4
						c0.1-0.1,0.2-0.2,0.4-0.1c0.1,0,0.2,0.1,0.3,0.1c0.1,0.1,0.2,0.3,0.1,0.4C229.1,91.4,229,91.4,228.9,91.4z M219.6,91.4
						c-0.1,0-0.2-0.1-0.2-0.1c-0.1-0.1,0-0.3,0.1-0.4c0.1-0.1,0.2-0.1,0.3-0.1c0.1-0.1,0.3,0,0.4,0.1c0.1,0.1,0,0.3-0.1,0.4
						c-0.1,0-0.2,0.1-0.2,0.1C219.7,91.4,219.7,91.4,219.6,91.4z M226.8,90.5C226.8,90.5,226.8,90.5,226.8,90.5
						c-0.2,0-0.3-0.1-0.3-0.1c-0.2,0-0.2-0.2-0.2-0.3c0-0.2,0.2-0.2,0.3-0.2c0.1,0,0.2,0.1,0.3,0.1c0.2,0,0.2,0.2,0.2,0.4
						C227,90.4,226.9,90.5,226.8,90.5z M221.7,90.5c-0.1,0-0.2-0.1-0.3-0.2c0-0.2,0-0.3,0.2-0.3c0.1,0,0.2-0.1,0.3-0.1
						c0.1,0,0.3,0.1,0.3,0.2c0,0.2-0.1,0.3-0.2,0.3C222,90.4,221.9,90.4,221.7,90.5C221.8,90.5,221.8,90.5,221.7,90.5z M224.5,90.1
						C224.5,90.1,224.5,90.1,224.5,90.1c-0.1,0-0.2,0-0.3,0l-0.2,0c-0.2,0-0.3-0.1-0.3-0.3c0-0.2,0.1-0.3,0.3-0.3l0.2,0
						c0.1,0,0.2,0,0.3,0c0.2,0,0.3,0.1,0.3,0.3C224.8,90,224.7,90.1,224.5,90.1z"/>
				</g>
			</g>
		</g>
		<g id="XMLID_7_">
			<path class="st3" d="M219.9,100.8C219.9,100.8,219.9,100.9,219.9,100.8C219.9,100.9,219.9,100.8,219.9,100.8 M221.8,100.6
				C221.8,100.6,221.6,100.8,221.8,100.6c-0.1,0.1-0.2,0.1-0.2,0.1S221.6,100.8,221.8,100.6L221.8,100.6"/>
		</g>
	</g>
</g>
<g>
	<path class="st13" d="M152.7,297c6.6,0.6,12.3-4.4,12.8-10.9c0.6-6.5-4.4-12.3-10.9-12.8c-6.5-0.6-12.3,4.4-12.8,10.9
		C141.2,290.7,146.2,296.5,152.7,297z"/>
	<path class="st13" d="M163.8,302.5l-50.3-0.1c-2.6,0-4.6,2.1-4.6,4.6l0,27.7c0,2.6,2.1,4.6,4.6,4.6l50.3,0.1c2.6,0,4.6-2.1,4.6-4.6
		l0-27.8C168.4,304.6,166.3,302.5,163.8,302.5z"/>
	<circle class="st13" cx="118.9" cy="283.2" r="10"/>
	
		<ellipse transform="matrix(0.9732 -0.2298 0.2298 0.9732 -66.5981 51.3044)" class="st13" cx="187" cy="311.6" rx="11.4" ry="11.4"/>
</g>
<g>
	<g>
		<g>
			<g>
				<g>
					<path class="st0" d="M150.7,295c-6.5-0.5-11.5-6.3-10.9-12.8c0.5-6.5,6.3-11.5,12.8-10.9c6.5,0.5,11.5,6.3,10.9,12.8
						C163,290.6,157.3,295.6,150.7,295z"/>
				</g>
				<circle class="st1" cx="151.7" cy="283.2" r="7.8"/>
				<g>
					<g>
						<text transform="matrix(0.9969 7.858683e-02 -7.858683e-02 0.9969 147.5909 286.9844)" class="st3 st30 st31">2</text>
					</g>
				</g>
			</g>
			<g>
				<g>
					<ellipse class="st32" cx="151.7" cy="283.2" rx="9.6" ry="9.6"/>
				</g>
			</g>
		</g>
		<path id="XMLID_126_" class="st3" d="M147,284.6C147.1,284.6,147.1,284.6,147,284.6C147.1,284.6,147.1,284.6,147,284.6"/>
	</g>
	<g>
		<g>
			<g>
				<g>
					<g>
						<g>
							<path class="st25" d="M111.4,337.4c-2.5,0-4.6-2.1-4.6-4.6l0-27.7c0-2.5,2.1-4.6,4.6-4.6l50.3,0.1c2.5,0,4.6,2.1,4.6,4.6
								l0,27.8c0,2.5-2.1,4.6-4.6,4.6L111.4,337.4L111.4,337.4z"/>
						</g>
					</g>
					<g>
						<g>
							<path class="st26" d="M156.8,333l-40.2-0.1c0-2.7-2.3-5-5-5l0-17.6c2.7,0,5-2.3,5-5l40.2,0.1c0,2.7,2.3,5,5,5l0,17.6
								C159.1,327.9,156.8,330.2,156.8,333z"/>
						</g>
					</g>
				</g>
				<g>
					<g>
						
							<ellipse transform="matrix(1.470612e-03 -1 1 1.470612e-03 -193.8457 418.4994)" class="st27" cx="112.6" cy="306.3" rx="2.1" ry="2.1"/>
					</g>
					<g>
						
							<ellipse transform="matrix(1.470651e-03 -1 1 1.470651e-03 -145.5347 467.024)" class="st27" cx="161.1" cy="306.4" rx="2.1" ry="2.1"/>
					</g>
				</g>
				<g>
					<g>
						
							<ellipse transform="matrix(1.470631e-03 -1 1 1.470631e-03 -219.5935 444.1338)" class="st27" cx="112.6" cy="332" rx="2.1" ry="2.1"/>
					</g>
					<g>
						
							<ellipse transform="matrix(1.470690e-03 -1 1 1.470690e-03 -171.2825 492.6584)" class="st27" cx="161.1" cy="332.1" rx="2.1" ry="2.1"/>
					</g>
				</g>
				<g>
					<g>
						<circle class="st25" cx="119.5" cy="309.9" r="1.1"/>
					</g>
				</g>
				<g>
					<g>
						<circle class="st25" cx="123.1" cy="311.4" r="1.1"/>
					</g>
				</g>
				<g>
					<g>
						<circle class="st25" cx="149.7" cy="309.8" r="1.1"/>
					</g>
				</g>
				<g>
					<g>
						<circle class="st25" cx="114.6" cy="313.9" r="1.1"/>
					</g>
				</g>
				<g>
					<g>
						<circle class="st25" cx="118.8" cy="329.4" r="1.1"/>
					</g>
				</g>
				<g>
					<g>
						<circle class="st25" cx="123.2" cy="326.8" r="1.1"/>
					</g>
				</g>
				<g>
					<g>
						<circle class="st25" cx="114.7" cy="325.9" r="1.1"/>
					</g>
				</g>
				<g>
					<g>
						<circle class="st25" cx="114" cy="320.5" r="1.1"/>
					</g>
				</g>
				<g>
					<g>
						<circle class="st25" cx="155.5" cy="311.2" r="1.1"/>
					</g>
				</g>
				<g>
					<g>
						<circle class="st25" cx="153.1" cy="317.9" r="1.1"/>
					</g>
				</g>
				<g>
					<g>
						<circle class="st25" cx="158.7" cy="315.6" r="1.1"/>
					</g>
				</g>
				<g>
					<g>
						<circle class="st25" cx="158" cy="322.6" r="1.1"/>
					</g>
				</g>
				<g>
					<g>
						<circle class="st25" cx="153.8" cy="323.3" r="1.1"/>
					</g>
				</g>
				<g>
					<g>
						<circle class="st25" cx="149.2" cy="327.4" r="1.1"/>
					</g>
				</g>
				<g>
					<g>
						<circle class="st25" cx="154.7" cy="328.7" r="1.1"/>
					</g>
				</g>
				<g id="XMLID_167_">
					<path class="st9" d="M119.2,324.2c-0.2,0-0.4-0.2-0.4-0.4l0-0.5c-0.8-0.1-1.1-0.2-1.7-0.7l0,0.5c0,0.2-0.2,0.4-0.4,0.4
						c-0.2,0-0.4-0.2-0.4-0.4l0-2.1c0-0.2,0.2-0.4,0.4-0.4s0.4,0.2,0.4,0.4l0,0.8c0.4,0.4,0.6,0.5,1.2,0.8c0.2,0.1,0.3,0.1,0.5,0.2
						l0-3.3c-0.7-0.2-1.1-0.4-1.4-0.5c-0.4-0.2-0.6-0.4-0.8-0.7c-0.2-0.2-0.3-0.5-0.3-0.9c0-0.7,0.2-1.2,0.7-1.6
						c0.4-0.4,1.1-0.5,2-0.6l0-0.4c0-0.2,0.2-0.4,0.4-0.4s0.4,0.2,0.4,0.4l0,0.5c0.6,0.1,1.1,0.3,1.6,0.6c0.1,0.1,0.1,0.2,0.2,0.2
						l0-0.5c0-0.2,0.2-0.4,0.4-0.4s0.4,0.2,0.4,0.4l0,2.1c0,0.2-0.2,0.4-0.4,0.4s-0.4-0.2-0.4-0.4l0-0.8c-0.4-0.4-0.8-0.8-1.3-1
						c-0.2-0.1-0.3-0.1-0.5-0.2l0,3c0.1,0.1,0.2,0.1,0.5,0.2c0.4,0.1,0.8,0.2,1.1,0.4c0.4,0.2,0.6,0.4,0.8,0.7
						c0.2,0.2,0.3,0.6,0.3,1c0,0.8-0.2,1.3-0.8,1.7c-0.5,0.4-1.2,0.6-2.1,0.6l0,0.4C119.5,324.1,119.4,324.2,119.2,324.2
						 M117.8,322.8c0.1,0.1,0.1,0.1,0.2,0.1C118,322.8,117.9,322.8,117.8,322.8 M119.5,319.6l0,3.1c0.7,0,1.2-0.2,1.6-0.5
						c0.4-0.3,0.5-0.7,0.5-1.1c0-0.2-0.1-0.5-0.2-0.6c-0.2-0.2-0.4-0.4-0.6-0.5s-0.5-0.2-0.8-0.2L119.5,319.6z M121.4,322.5
						c-0.1,0.1-0.1,0.1-0.2,0.2c-0.1,0.1-0.2,0.1-0.2,0.2C121.1,322.7,121.3,322.7,121.4,322.5C121.4,322.5,121.4,322.5,121.4,322.5
						 M118.9,315.8c-0.7,0-1.1,0.2-1.4,0.4c-0.3,0.2-0.5,0.6-0.5,1.1c0,0.2,0.1,0.5,0.2,0.6c0.2,0.2,0.4,0.4,0.6,0.5
						c0.2,0.1,0.5,0.2,0.8,0.2c0.2,0.1,0.2,0.1,0.4,0.1L118.9,315.8L118.9,315.8z"/>
				</g>
				<g id="XMLID_148_">
					<g id="XMLID_165_">
						<g id="XMLID_166_">
							<g>
								<path class="st28" d="M136.4,332.4c-0.5,0-1.1,0.5-1.1,1.1l0.5,0c0-0.3,0.2-0.5,0.5-0.5c0.3,0,0.5,0.2,0.5,0.5l0.5,0
									C137.5,332.9,137,332.4,136.4,332.4z"/>
							</g>
						</g>
					</g>
					<g id="XMLID_163_">
						<g id="XMLID_164_">
							<g>
								<path class="st28" d="M133.7,332.4c-0.5,0-1.1,0.5-1.1,1.1l0.5,0c0-0.3,0.2-0.5,0.5-0.5c0.3,0,0.5,0.2,0.5,0.5l0.5,0
									C134.8,332.9,134.4,332.4,133.7,332.4z"/>
							</g>
						</g>
					</g>
					<g id="XMLID_161_">
						<g id="XMLID_162_">
							<g>
								<path class="st28" d="M139.1,332.4c-0.5,0-1.1,0.5-1.1,1.1l0.5,0c0-0.3,0.2-0.5,0.5-0.5c0.3,0,0.5,0.2,0.5,0.5l0.5,0
									C140.2,332.9,139.8,332.4,139.1,332.4z"/>
							</g>
						</g>
					</g>
					<g id="XMLID_159_">
						<g id="XMLID_160_">
							<g>
								<path class="st28" d="M128.3,332.4c-0.5,0-1.1,0.5-1.1,1.1l0.5,0c0-0.3,0.2-0.5,0.5-0.5s0.5,0.2,0.5,0.5l0.5,0
									C129.3,332.9,128.9,332.4,128.3,332.4z"/>
							</g>
						</g>
					</g>
					<g id="XMLID_157_">
						<g id="XMLID_158_">
							<g>
								<path class="st28" d="M125.6,332.4c-0.5,0-1.1,0.5-1.1,1.1l0.5,0c0-0.3,0.2-0.5,0.5-0.5c0.3,0,0.5,0.2,0.5,0.5l0.5,0
									C126.6,332.9,126.1,332.4,125.6,332.4z"/>
							</g>
						</g>
					</g>
					<g id="XMLID_155_">
						<g id="XMLID_156_">
							<g>
								<path class="st28" d="M131,332.4c-0.5,0-1.1,0.5-1.1,1.1l0.5,0c0-0.3,0.2-0.5,0.5-0.5c0.3,0,0.5,0.2,0.5,0.5l0.5,0
									C132.1,332.9,131.5,332.4,131,332.4z"/>
							</g>
						</g>
					</g>
					<g id="XMLID_153_">
						<g id="XMLID_154_">
							<g>
								<path class="st28" d="M144.6,332.5c-0.5,0-1.1,0.5-1.1,1.1l0.5,0c0-0.3,0.2-0.5,0.5-0.5c0.3,0,0.5,0.2,0.5,0.5l0.5,0
									C145.7,332.9,145.2,332.5,144.6,332.5z"/>
							</g>
						</g>
					</g>
					<g id="XMLID_151_">
						<g id="XMLID_152_">
							<g>
								<path class="st28" d="M141.9,332.4c-0.5,0-1.1,0.5-1.1,1.1l0.5,0c0-0.3,0.2-0.5,0.5-0.5c0.3,0,0.5,0.2,0.5,0.5l0.5,0
									C142.9,332.9,142.4,332.4,141.9,332.4z"/>
							</g>
						</g>
					</g>
					<g id="XMLID_149_">
						<g id="XMLID_150_">
							<g>
								<path class="st28" d="M147.3,332.5c-0.5,0-1.1,0.5-1.1,1.1l0.5,0c0-0.3,0.2-0.5,0.5-0.5c0.3,0,0.5,0.2,0.5,0.5l0.5,0
									C148.3,332.9,147.9,332.5,147.3,332.5z"/>
							</g>
						</g>
					</g>
				</g>
				<g id="XMLID_129_">
					<g id="XMLID_146_">
						<g id="XMLID_147_">
							<g>
								<path class="st28" d="M136.4,305.7c0.5,0,1.1-0.5,1.1-1.1l-0.5,0c0,0.3-0.2,0.5-0.5,0.5c-0.3,0-0.5-0.2-0.5-0.5l-0.5,0
									C135.5,305.2,135.9,305.7,136.4,305.7z"/>
							</g>
						</g>
					</g>
					<g id="XMLID_144_">
						<g id="XMLID_145_">
							<g>
								<path class="st28" d="M139.2,305.7c0.5,0,1.1-0.5,1.1-1.1l-0.5,0c0,0.3-0.2,0.5-0.5,0.5c-0.3,0-0.5-0.2-0.5-0.5l-0.5,0
									C138.2,305.2,138.7,305.7,139.2,305.7z"/>
							</g>
						</g>
					</g>
					<g id="XMLID_142_">
						<g id="XMLID_143_">
							<g>
								<path class="st28" d="M133.8,305.7c0.5,0,1.1-0.5,1.1-1.1l-0.5,0c0,0.3-0.2,0.5-0.5,0.5s-0.5-0.2-0.5-0.5l-0.5,0
									C132.7,305.2,133.2,305.7,133.8,305.7z"/>
							</g>
						</g>
					</g>
					<g id="XMLID_140_">
						<g id="XMLID_141_">
							<g>
								<path class="st28" d="M144.7,305.7c0.5,0,1.1-0.5,1.1-1.1l-0.5,0c0,0.3-0.2,0.5-0.5,0.5c-0.3,0-0.5-0.2-0.5-0.5l-0.5,0
									C143.6,305.2,144.1,305.7,144.7,305.7z"/>
							</g>
						</g>
					</g>
					<g id="XMLID_138_">
						<g id="XMLID_139_">
							<g>
								<path class="st28" d="M147.3,305.7c0.5,0,1.1-0.5,1.1-1.1l-0.5,0c0,0.3-0.2,0.5-0.5,0.5c-0.3,0-0.5-0.2-0.5-0.5l-0.5,0
									C146.3,305.2,146.8,305.7,147.3,305.7z"/>
							</g>
						</g>
					</g>
					<g id="XMLID_136_">
						<g id="XMLID_137_">
							<g>
								<path class="st28" d="M141.9,305.7c0.5,0,1.1-0.5,1.1-1.1l-0.5,0c0,0.3-0.2,0.5-0.5,0.5c-0.3,0-0.5-0.2-0.5-0.5l-0.5,0
									C140.9,305.2,141.3,305.7,141.9,305.7z"/>
							</g>
						</g>
					</g>
					<g id="XMLID_134_">
						<g id="XMLID_135_">
							<g>
								<path class="st28" d="M128.4,305.7c0.5,0,1.1-0.5,1.1-1.1l-0.5,0c0,0.3-0.2,0.5-0.5,0.5c-0.3,0-0.5-0.2-0.5-0.5l-0.5,0
									C127.3,305.2,127.8,305.7,128.4,305.7z"/>
							</g>
						</g>
					</g>
					<g id="XMLID_132_">
						<g id="XMLID_133_">
							<g>
								<path class="st28" d="M131,305.7c0.5,0,1.1-0.5,1.1-1.1l-0.5,0c0,0.3-0.2,0.5-0.5,0.5c-0.3,0-0.5-0.2-0.5-0.5l-0.5,0
									C130,305.2,130.4,305.7,131,305.7z"/>
							</g>
						</g>
					</g>
					<g id="XMLID_130_">
						<g id="XMLID_131_">
							<g>
								<path class="st28" d="M125.6,305.6c0.5,0,1.1-0.5,1.1-1.1l-0.5,0c0,0.3-0.2,0.5-0.5,0.5c-0.3,0-0.5-0.2-0.5-0.5l-0.5,0
									C124.6,305.2,125,305.6,125.6,305.6z"/>
							</g>
						</g>
					</g>
				</g>
			</g>
			<g>
				<g>
					
						<ellipse transform="matrix(1.470743e-03 -1 1 1.470743e-03 -182.4487 454.933)" class="st25" cx="136.6" cy="318.8" rx="12.7" ry="12.7"/>
				</g>
			</g>
			<g>
				<circle class="st27" cx="136.6" cy="318.8" r="11"/>
			</g>
			<g>
				<g class="st17">
					<g>
						<path class="st9" d="M134.4,318.2c0.5,0.3,0.9,0.7,1.2,1.2s0.4,1.1,0.4,1.8c0,0.7-0.2,1.3-0.5,1.8c-0.3,0.5-0.8,0.9-1.3,1.2
							c-0.6,0.3-1.2,0.4-2,0.4c-0.6,0-1.2-0.1-1.8-0.3c-0.6-0.2-1.1-0.5-1.5-0.8c-0.2-0.2-0.3-0.4-0.3-0.7c0-0.2,0.1-0.4,0.2-0.6
							c0.1-0.2,0.3-0.2,0.4-0.2c0.1,0,0.2,0,0.3,0.1c0.1,0,0.2,0.1,0.3,0.2c0.4,0.3,0.8,0.5,1.2,0.6c0.4,0.2,0.8,0.2,1.2,0.2
							c0.7,0,1.2-0.2,1.5-0.5c0.4-0.3,0.5-0.8,0.5-1.4c0-0.6-0.2-1.1-0.5-1.4c-0.4-0.3-0.8-0.5-1.5-0.5c-0.4,0-0.7,0.1-1,0.2
							c-0.3,0.1-0.6,0.3-0.9,0.6c-0.2,0.1-0.4,0.2-0.6,0.2c-0.2,0-0.4-0.1-0.5-0.2c-0.1-0.1-0.2-0.3-0.2-0.5l0-4.7
							c0-0.3,0.1-0.5,0.2-0.7c0.2-0.2,0.4-0.2,0.7-0.2l5,0c0.6,0,0.9,0.3,0.9,0.8c0,0.5-0.3,0.8-0.9,0.7l-4,0l0,2.9
							c0.5-0.4,1.1-0.5,1.9-0.5C133.3,317.8,133.9,318,134.4,318.2z"/>
					</g>
					<g>
						<path class="st9" d="M138.2,323.3c-0.7-0.9-1-2.3-1-4c0-1.8,0.3-3.1,1-4c0.7-0.9,1.6-1.4,2.9-1.4c1.3,0,2.2,0.5,2.9,1.4
							c0.7,0.9,1,2.3,1,4c0,1.8-0.3,3.1-1,4c-0.7,0.9-1.6,1.4-2.9,1.4C139.8,324.7,138.9,324.3,138.2,323.3z M142.6,322.3
							c0.3-0.6,0.5-1.6,0.5-3c0-1.4-0.2-2.4-0.5-3c-0.3-0.6-0.8-0.9-1.5-0.9c-0.7,0-1.2,0.3-1.5,0.9c-0.3,0.6-0.5,1.6-0.5,3
							c0,1.4,0.2,2.4,0.5,3c0.3,0.6,0.8,0.9,1.5,0.9C141.8,323.2,142.2,322.9,142.6,322.3z"/>
					</g>
				</g>
			</g>
		</g>
		<g>
			<g>
				<g>
					<circle class="st0" cx="116.9" cy="281.2" r="10"/>
				</g>
				<circle class="st0" cx="116.9" cy="281.2" r="6.5"/>
				<g>
					<g class="st17">
						<g>
							<path class="st3" d="M119.7,284.6c0,0.4-0.3,0.7-0.8,0.7h-4.3c-0.5,0-0.8-0.2-0.8-0.7c0-0.4,0.3-0.6,0.8-0.6h1.3v-5.8
								l-1.2,0.8c-0.1,0.1-0.2,0.1-0.3,0.1c-0.2,0-0.3-0.1-0.5-0.2c-0.1-0.2-0.2-0.3-0.2-0.5c0-0.2,0.1-0.4,0.3-0.6l2-1.2
								c0.3-0.2,0.5-0.2,0.7-0.2c0.2,0,0.4,0.1,0.6,0.2c0.1,0.1,0.2,0.3,0.2,0.6v6.9h1.3C119.5,284,119.7,284.2,119.7,284.6z"/>
						</g>
					</g>
				</g>
			</g>
			<g>
				<g>
					<ellipse class="st29" cx="116.9" cy="281.2" rx="8" ry="8"/>
				</g>
			</g>
			<path id="XMLID_128_" class="st3" d="M113.1,282.7C113.1,282.7,113.2,282.8,113.1,282.7C113.2,282.8,113.1,282.7,113.1,282.7"/>
		</g>
		<g>
			<g>
				<g>
					<g>
						<circle class="st4" cx="185" cy="309.6" r="11.4"/>
					</g>
				</g>
				<g>
					<circle class="st1" cx="185" cy="309.6" r="7.5"/>
				</g>
				<g>
					<g class="st17">
						<g>
							<path class="st3" d="M186.9,308.9c0.4,0.2,0.7,0.5,0.9,1c0.2,0.4,0.3,0.9,0.3,1.4c0,0.6-0.1,1-0.4,1.5s-0.6,0.8-1.1,1
								c-0.5,0.2-1,0.4-1.6,0.4c-0.5,0-1-0.1-1.5-0.2c-0.5-0.2-0.9-0.4-1.2-0.7c-0.2-0.2-0.3-0.3-0.3-0.6c0-0.2,0-0.3,0.2-0.5
								c0.1-0.1,0.2-0.2,0.4-0.2c0.1,0,0.2,0,0.2,0c0.1,0,0.2,0.1,0.3,0.1c0.3,0.2,0.6,0.4,0.9,0.5c0.3,0.1,0.6,0.2,1,0.2
								c0.5,0,0.9-0.1,1.2-0.4c0.3-0.3,0.4-0.6,0.4-1.1c0-0.5-0.1-0.9-0.4-1.1c-0.3-0.3-0.7-0.4-1.2-0.4c-0.3,0-0.6,0-0.8,0.1
								c-0.2,0.1-0.5,0.2-0.8,0.4c-0.2,0.1-0.3,0.2-0.5,0.2s-0.3,0-0.4-0.1c-0.1-0.1-0.2-0.2-0.2-0.4v-3.8c0-0.2,0.1-0.4,0.2-0.5
								s0.3-0.2,0.5-0.2h4c0.5,0,0.7,0.2,0.7,0.6c0,0.4-0.2,0.6-0.7,0.6h-3.2v2.3c0.4-0.3,0.9-0.4,1.5-0.4
								C186,308.6,186.4,308.7,186.9,308.9z"/>
						</g>
					</g>
				</g>
			</g>
			<g>
				<g>
					<g>
						<path class="st24" d="M186,319.1c-0.1,0-0.3-0.1-0.3-0.3c0-0.2,0.1-0.3,0.3-0.3c0.1,0,0.2,0,0.3,0c0.2,0,0.3,0.1,0.3,0.2
							s-0.1,0.3-0.2,0.3C186.2,319.1,186.1,319.1,186,319.1C186,319.1,186,319.1,186,319.1z M184,319.1
							C184,319.1,184,319.1,184,319.1c-0.1,0-0.2,0-0.3,0c-0.2,0-0.3-0.2-0.2-0.3c0-0.2,0.2-0.3,0.3-0.2l0.3,0
							c0.2,0,0.3,0.2,0.2,0.3C184.3,319,184.1,319.1,184,319.1z M188.2,318.5c-0.1,0-0.2-0.1-0.3-0.2c-0.1-0.1,0-0.3,0.2-0.4
							c0.1,0,0.2-0.1,0.3-0.1c0.1-0.1,0.3,0,0.4,0.2s0,0.3-0.2,0.4C188.5,318.5,188.4,318.5,188.2,318.5
							C188.3,318.5,188.3,318.5,188.2,318.5z M181.8,318.5c0,0-0.1,0-0.1,0c-0.1,0-0.2-0.1-0.3-0.1c-0.1-0.1-0.2-0.2-0.2-0.4
							c0.1-0.1,0.2-0.2,0.4-0.2c0.1,0,0.2,0.1,0.3,0.1c0.1,0.1,0.2,0.2,0.2,0.4C182,318.5,181.9,318.5,181.8,318.5z M190.3,317.5
							c-0.1,0-0.2,0-0.2-0.1c-0.1-0.1-0.1-0.3,0.1-0.4c0.1-0.1,0.2-0.1,0.2-0.2c0.1-0.1,0.3-0.1,0.4,0.1s0.1,0.3-0.1,0.4
							c-0.1,0.1-0.2,0.1-0.2,0.2C190.4,317.5,190.3,317.5,190.3,317.5z M179.7,317.5c-0.1,0-0.1,0-0.2-0.1c-0.1-0.1-0.2-0.1-0.2-0.2
							c-0.1-0.1-0.1-0.3-0.1-0.4c0.1-0.1,0.3-0.1,0.4-0.1c0.1,0.1,0.1,0.1,0.2,0.2c0.1,0.1,0.2,0.3,0.1,0.4
							C179.9,317.4,179.8,317.5,179.7,317.5z M192,315.9c-0.1,0-0.1,0-0.2-0.1c-0.1-0.1-0.1-0.3,0-0.4c0.1-0.1,0.1-0.1,0.2-0.2
							c0.1-0.1,0.3-0.1,0.4,0c0.1,0.1,0.1,0.3,0,0.4c-0.1,0.1-0.1,0.2-0.2,0.2C192.1,315.9,192.1,315.9,192,315.9z M178,315.9
							c-0.1,0-0.2,0-0.2-0.1c-0.1-0.1-0.1-0.2-0.2-0.2c-0.1-0.1-0.1-0.3,0-0.4s0.3-0.1,0.4,0c0.1,0.1,0.1,0.1,0.2,0.2
							c0.1,0.1,0.1,0.3,0,0.4C178.2,315.9,178.1,315.9,178,315.9z M193.3,314c0,0-0.1,0-0.1,0c-0.1-0.1-0.2-0.2-0.1-0.4
							c0-0.1,0.1-0.2,0.1-0.3c0.1-0.1,0.2-0.2,0.4-0.1c0.1,0.1,0.2,0.2,0.1,0.4c0,0.1-0.1,0.2-0.1,0.3
							C193.5,314,193.4,314,193.3,314z M176.8,314c-0.1,0-0.2-0.1-0.3-0.2c0-0.1-0.1-0.2-0.1-0.3c-0.1-0.1,0-0.3,0.1-0.4
							c0.1-0.1,0.3,0,0.4,0.1l0.1,0.3c0.1,0.1,0,0.3-0.1,0.4C176.8,314,176.8,314,176.8,314z M194,311.9
							C194,311.9,194,311.9,194,311.9c-0.2,0-0.3-0.2-0.3-0.3l0.1-0.3c0-0.2,0.2-0.3,0.3-0.2c0.2,0,0.3,0.2,0.2,0.3l-0.1,0.3
							C194.3,311.8,194.1,311.9,194,311.9z M176,311.8c-0.1,0-0.2-0.1-0.3-0.2c0-0.1,0-0.2-0.1-0.3c0-0.2,0.1-0.3,0.2-0.3
							c0.2,0,0.3,0.1,0.3,0.2c0,0.1,0,0.2,0.1,0.3C176.3,311.6,176.2,311.8,176,311.8C176.1,311.8,176,311.8,176,311.8z
							 M194.2,309.6c-0.2,0-0.3-0.1-0.3-0.3c0-0.1,0-0.2,0-0.3c0-0.2,0.1-0.3,0.3-0.3c0.1,0,0.3,0.1,0.3,0.3c0,0.1,0,0.2,0,0.3
							C194.5,309.4,194.4,309.6,194.2,309.6C194.2,309.6,194.2,309.6,194.2,309.6z M175.8,309.5
							C175.8,309.5,175.8,309.5,175.8,309.5c-0.2,0-0.3-0.1-0.3-0.3c0-0.1,0-0.2,0-0.3c0-0.2,0.1-0.3,0.3-0.3c0.2,0,0.3,0.1,0.3,0.3
							c0,0.1,0,0.2,0,0.3C176.1,309.4,176,309.5,175.8,309.5z M193.8,307.3c-0.1,0-0.2-0.1-0.3-0.2c0-0.1-0.1-0.2-0.1-0.3
							c0-0.1,0-0.3,0.2-0.4c0.2,0,0.3,0,0.4,0.2c0,0.1,0.1,0.2,0.1,0.3C194.2,307.1,194.1,307.3,193.8,307.3
							C193.9,307.3,193.9,307.3,193.8,307.3z M176.2,307.3C176.2,307.3,176.2,307.3,176.2,307.3c-0.2-0.1-0.3-0.2-0.3-0.4
							c0-0.1,0.1-0.2,0.1-0.3c0-0.1,0.2-0.2,0.4-0.2c0.1,0,0.2,0.2,0.2,0.4c0,0.1-0.1,0.2-0.1,0.3
							C176.4,307.2,176.3,307.3,176.2,307.3z M192.9,305.2c-0.1,0-0.2,0-0.2-0.1c0-0.1-0.1-0.2-0.1-0.2c-0.1-0.1,0-0.3,0.1-0.4
							s0.3,0,0.4,0.1c0.1,0.1,0.1,0.2,0.2,0.3c0.1,0.1,0,0.3-0.1,0.4C193,305.2,193,305.2,192.9,305.2z M177.1,305.2
							c-0.1,0-0.1,0-0.1,0c-0.1-0.1-0.2-0.3-0.1-0.4c0.1-0.1,0.1-0.2,0.2-0.3c0.1-0.1,0.3-0.2,0.4-0.1c0.1,0.1,0.2,0.3,0.1,0.4
							c-0.1,0.1-0.1,0.2-0.1,0.2C177.3,305.1,177.2,305.2,177.1,305.2z M191.5,303.4c-0.1,0-0.1,0-0.2-0.1c-0.1-0.1-0.1-0.1-0.2-0.2
							c-0.1-0.1-0.1-0.3,0-0.4c0.1-0.1,0.3-0.1,0.4,0c0.1,0.1,0.1,0.1,0.2,0.2c0.1,0.1,0.1,0.3,0,0.4
							C191.6,303.4,191.6,303.4,191.5,303.4z M178.6,303.4c-0.1,0-0.1,0-0.2-0.1c-0.1-0.1-0.1-0.3,0-0.4c0.1-0.1,0.1-0.1,0.2-0.2
							c0.1-0.1,0.3-0.1,0.4,0c0.1,0.1,0.1,0.3,0,0.4c-0.1,0.1-0.1,0.1-0.2,0.2C178.7,303.3,178.6,303.4,178.6,303.4z M189.7,302
							c0,0-0.1,0-0.1,0c-0.1,0-0.2-0.1-0.2-0.1c-0.1-0.1-0.2-0.2-0.1-0.4c0.1-0.1,0.2-0.2,0.4-0.1c0.1,0,0.2,0.1,0.3,0.1
							c0.1,0.1,0.2,0.3,0.1,0.4C189.9,301.9,189.8,302,189.7,302z M180.4,302c-0.1,0-0.2-0.1-0.2-0.1c-0.1-0.1,0-0.3,0.1-0.4
							c0.1-0.1,0.2-0.1,0.3-0.1c0.1-0.1,0.3,0,0.4,0.1c0.1,0.1,0,0.3-0.1,0.4c-0.1,0-0.2,0.1-0.2,0.1C180.5,302,180.4,302,180.4,302
							z M187.6,301.1C187.5,301.1,187.5,301.1,187.6,301.1c-0.2,0-0.3-0.1-0.3-0.1c-0.2,0-0.2-0.2-0.2-0.3c0-0.2,0.2-0.2,0.3-0.2
							c0.1,0,0.2,0.1,0.3,0.1c0.2,0,0.2,0.2,0.2,0.4C187.8,301,187.7,301.1,187.6,301.1z M182.5,301.1c-0.1,0-0.2-0.1-0.3-0.2
							c0-0.2,0-0.3,0.2-0.3c0.1,0,0.2-0.1,0.3-0.1c0.1,0,0.3,0.1,0.3,0.2c0,0.2-0.1,0.3-0.2,0.3C182.8,301,182.7,301,182.5,301.1
							C182.6,301.1,182.5,301.1,182.5,301.1z M185.3,300.7C185.3,300.7,185.3,300.7,185.3,300.7c-0.1,0-0.2,0-0.3,0l-0.2,0
							c-0.2,0-0.3-0.1-0.3-0.3c0-0.2,0.1-0.3,0.3-0.3l0.2,0c0.1,0,0.2,0,0.3,0c0.2,0,0.3,0.1,0.3,0.3
							C185.6,300.6,185.5,300.7,185.3,300.7z"/>
					</g>
				</g>
			</g>
			<g id="XMLID_127_">
				<path class="st3" d="M180.7,311.3C180.7,311.3,180.7,311.4,180.7,311.3C180.7,311.4,180.7,311.3,180.7,311.3 M182.5,311.2
					C182.5,311.2,182.4,311.3,182.5,311.2c-0.1,0.1-0.2,0.1-0.2,0.1S182.4,311.3,182.5,311.2L182.5,311.2"/>
			</g>
		</g>
	</g>
</g>
</svg>
