<?xml version="1.0" encoding="utf-8"?>
<!-- Generator: Adobe Illustrator 22.0.1, SVG Export Plug-In . SVG Version: 6.00 Build 0)  -->
<svg version="1.1" id="Layer_1" xmlns="http://www.w3.org/2000/svg" xmlns:xlink="http://www.w3.org/1999/xlink" x="0px" y="0px"
	 viewBox="0 0 400 400" style="enable-background:new 0 0 400 400;" xml:space="preserve">
<style type="text/css">
	.st0{fill:#FFFFFF;}
	.st1{fill:#9B001A;}
	.st2{fill:#3B5367;}
	.st3{fill:#00001A;}
	.st4{fill:#859CB8;}
	.st5{opacity:0.45;}
	.st6{fill:none;stroke:#3B5367;stroke-width:0.6512;stroke-miterlimit:10;}
	.st7{fill:#F5F199;}
	.st8{fill:none;stroke:#F5F199;stroke-width:2.6048;stroke-linecap:round;stroke-linejoin:round;stroke-miterlimit:10;}
	.st9{fill:#647DA1;}
	.st10{fill:#E8EBEE;}
	.st11{fill:#020202;}
</style>
<g>
	<path class="st0" d="M205.3,378.9c-10.6,0-19.2-8.6-19.2-19.2v-1.3c0-8.9,6-16.3,14.2-18.5v-60h-65v60c8.2,2.2,14.3,9.7,14.3,18.5
		v1.3c0,10.6-8.6,19.2-19.2,19.2h-24.6c-10.6,0-19.2-8.6-19.2-19.2v-1.3c0-8.9,6-16.3,14.2-18.5v-60H98c-8.1,0-14.7-6.6-14.7-14.7
		v-42.6h-6.4c-2.7,5.7-8.5,9.6-15.1,9.6c-9.2,0-16.7-7.5-16.7-16.7v-91.4c0-15.7,12.7-28.4,28.4-28.4h5v91.1h4.8v-4.7
		c0-8.1,6.6-14.7,14.7-14.7h48v-4.7h-25.4c-20.5,0-37.3-16.7-37.3-37.3V57.3c0-14.5,11.8-26.3,26.3-26.3h116.3
		c7.9,0,15.2,3.5,20.1,9.4c0.5-0.1,1.1-0.2,1.6-0.2c0.5,0,0.9,0,1.4,0.1c0-1.4,0.4-2.8,1.2-4c1.4-2.2,3.9-3.5,6.4-3.5
		c0.9,0,1.8,0.2,2.6,0.5c0.2-1.2,0.7-2.3,1.4-3.3c1.4-1.9,3.7-3,6.1-3c1.4,0,2.6,0.4,3.8,1c0.3-0.9,0.8-1.8,1.5-2.5
		c1.4-1.6,3.5-2.5,5.7-2.5c1.9,0,3.6,0.7,4.9,1.8c1.3-2.3,3.8-3.8,6.6-3.8c2.3,0,4.4,1,5.8,2.7c1.4-1.7,3.5-2.7,5.8-2.7
		c2.8,0,5.3,1.5,6.6,3.8c1.3-1.2,3-1.8,4.9-1.8c2.1,0,4.2,0.9,5.6,2.4c0.7,0.8,1.3,1.7,1.6,2.6c1.1-0.7,2.5-1.1,3.8-1.1
		c2.4,0,4.6,1.1,6,3c0.8,1,1.2,2.1,1.4,3.3c0.8-0.3,1.7-0.5,2.6-0.5c2.6,0,5,1.4,6.4,3.5c0.8,1.2,1.2,2.6,1.2,4
		c0.5-0.1,0.9-0.1,1.4-0.1c2.8,0,5.4,1.6,6.7,4.1c0.8,1.5,1,3.2,0.7,4.8c3,0,5.8,1.9,6.9,4.7c0.8,1.8,0.8,3.8,0.1,5.5
		c2.8,0.4,5.1,2.5,6,5.3c0.6,2.1,0.3,4.2-0.7,6c2.4,0.8,4.3,2.9,4.8,5.5c0.5,2.4-0.1,4.8-1.6,6.6c2.1,1.2,3.6,3.4,3.8,5.9
		c0.2,2.6-0.8,4.9-2.7,6.4c1.9,1.6,2.9,4,2.7,6.6c-0.3,2.6-1.7,4.7-3.7,5.8c1.5,1.8,2.2,4.1,1.6,6.5c-0.6,2.6-2.5,4.7-4.9,5.5
		c1.1,1.8,1.4,4,0.7,6.2c-0.9,2.7-3.2,4.7-5.9,5.1c0.7,1.7,0.6,3.7-0.1,5.5c-1.2,2.9-3.9,4.7-6.9,4.7c0.3,1.6,0.1,3.3-0.7,4.8
		c-1.3,2.5-3.9,4.1-6.7,4.1c-0.5,0-0.9,0-1.4-0.1c0,1.4-0.4,2.8-1.2,4c-1.4,2.2-3.9,3.5-6.4,3.5c-0.9,0-1.8-0.2-2.6-0.5
		c-0.2,1.2-0.7,2.3-1.4,3.3c-1.4,1.9-3.7,3-6.1,3c-1.4,0-2.6-0.4-3.8-1c-0.3,0.9-0.8,1.8-1.5,2.5c-1.4,1.6-3.5,2.5-5.7,2.5
		c-1.9,0-3.6-0.7-4.9-1.8c-1.3,2.3-3.8,3.8-6.6,3.8c-2.3,0-4.4-1-5.8-2.7c-1.4,1.7-3.5,2.7-5.8,2.7c-2.8,0-5.3-1.5-6.6-3.8
		c-1.3,1.2-3,1.8-4.9,1.8c-2.1,0-4.2-0.9-5.6-2.4c-0.7-0.8-1.3-1.7-1.6-2.6c-1.1,0.7-2.5,1.1-3.8,1.1c-2.4,0-4.6-1.1-6-3
		c-0.8-1-1.2-2.1-1.4-3.3c-0.8,0.3-1.7,0.5-2.6,0.5c-2.6,0-5-1.4-6.4-3.5c-0.8-1.2-1.2-2.6-1.2-4c-0.5,0.1-0.9,0.1-1.4,0.1
		c-1.3,0-2.6-0.4-3.7-1c-6.9,8.6-17.5,13.9-29,13.9h-25.4v4.7h47.9c8.1,0,14.7,6.6,14.7,14.7v4.7h5v-19.4h5
		c15.7,0,28.4,12.7,28.4,28.4v91.4c0,9.2-7.5,16.7-16.7,16.7s-16.7-7.5-16.7-16.7v-64.7h-4.9v42.6c0,8.1-6.6,14.7-14.7,14.7h-2.7v60
		c8.2,2.2,14.2,9.7,14.2,18.5v1.3c0,10.6-8.6,19.2-19.2,19.2H205.3z"/>
	<path class="st0" d="M300.8,26c1.2,0,2.4,0.8,2.5,2.4l0.3,3.5c0.1,1.5,1.3,2.3,2.6,2.3c0.9,0,1.8-0.5,2.3-1.5l1.5-3.2
		c0.5-1,1.4-1.5,2.3-1.5c1.4,0,2.7,1.1,2.6,2.8l-0.3,3.5c-0.2,1.7,1.2,2.8,2.6,2.8c0.8,0,1.5-0.3,2.1-1.1l2-2.9
		c0.5-0.8,1.3-1.1,2-1.1c1.5,0,3,1.4,2.5,3.2l-0.9,3.4c-0.5,1.8,1,3.2,2.5,3.2c0.6,0,1.2-0.2,1.7-0.7l2.5-2.5
		c0.5-0.5,1.2-0.8,1.8-0.8c1.7,0,3.2,1.7,2.4,3.6l-1.5,3.1c-0.9,1.9,0.6,3.6,2.3,3.6c0.5,0,1-0.2,1.5-0.5l2.9-2
		c0.5-0.3,1-0.5,1.5-0.5c1.8,0,3.4,2.2,2,4l-2,2.9c-1.2,1.8,0.2,4,2.1,4c0.3,0,0.7-0.1,1.1-0.3l3.1-1.5c0.4-0.2,0.7-0.3,1.1-0.3
		c2.1,0,3.5,2.7,1.8,4.4l-2.5,2.5c-1.7,1.7-0.4,4.3,1.7,4.3c0.2,0,0.5,0,0.8-0.1l3.4-0.9c0.2-0.1,0.5-0.1,0.7-0.1
		c2.3,0,3.5,3.2,1.4,4.6l-2.9,2c-2,1.4-1,4.6,1.4,4.6c0.1,0,0.2,0,0.3,0l3.5-0.3c0.1,0,0.2,0,0.3,0c2.6,0,3.5,3.7,1,4.9l-3.2,1.5
		c-2.4,1.1-1.8,4.6,0.8,4.9l3.5,0.3c2.9,0.3,3.2,4.2,0.5,5l-3.4,0.9c-2.5,0.6-2.5,4.2,0,4.9l3.4,0.9c2.8,0.7,2.4,4.8-0.5,5l-3.5,0.3
		c-2.6,0.2-3.2,3.8-0.8,4.9l3.2,1.5c2.5,1.2,1.6,4.9-1.1,4.9c-0.1,0-0.1,0-0.2,0l-3.5-0.3c-0.1,0-0.2,0-0.3,0
		c-2.4,0-3.5,3.2-1.4,4.6l2.9,2c2.1,1.5,0.9,4.6-1.4,4.6c-0.2,0-0.5,0-0.7-0.1l-3.4-0.9c-0.2-0.1-0.5-0.1-0.7-0.1
		c-2.1,0-3.5,2.7-1.8,4.3l2.5,2.5c1.7,1.7,0.3,4.4-1.8,4.4c-0.4,0-0.7-0.1-1.1-0.3l-3.1-1.5c-0.4-0.2-0.8-0.3-1.1-0.3
		c-1.9,0-3.3,2.2-2,4l2,2.9c1.3,1.8-0.2,4-2,4c-0.5,0-1-0.1-1.5-0.5l-2.9-2c-0.5-0.3-1-0.5-1.4-0.5c-1.7,0-3.2,1.8-2.3,3.6l1.5,3.1
		c0.9,1.9-0.7,3.6-2.4,3.6c-0.6,0-1.3-0.2-1.8-0.8L329,149c-0.5-0.5-1.2-0.8-1.8-0.8c-1.5,0-3,1.4-2.4,3.3l0.9,3.4
		c0.5,1.9-1,3.2-2.5,3.2c-0.7,0-1.5-0.3-2-1.1l-2-2.9c-0.5-0.8-1.3-1.1-2.1-1.1c-1.4,0-2.7,1.1-2.5,2.7l0.3,3.5
		c0.2,1.7-1.2,2.8-2.6,2.8c-0.9,0-1.8-0.5-2.3-1.5l-1.5-3.2c-0.5-1-1.4-1.5-2.3-1.5c-1.2,0-2.4,0.8-2.6,2.3l-0.3,3.5
		c-0.1,1.5-1.4,2.4-2.6,2.4c-1,0-2.1-0.6-2.4-1.9l-0.9-3.4c-0.3-1.2-1.4-1.9-2.4-1.9c-1.1,0-2.1,0.6-2.4,1.9l-0.9,3.4
		c-0.3,1.3-1.4,1.9-2.4,1.9c-1.2,0-2.4-0.8-2.5-2.4l-0.3-3.5c-0.1-1.5-1.3-2.3-2.6-2.3c-0.9,0-1.8,0.5-2.3,1.5l-1.5,3.2
		c-0.5,1-1.4,1.5-2.3,1.5c-1.4,0-2.7-1.1-2.6-2.8l0.3-3.5c0.2-1.7-1.2-2.8-2.6-2.8c-0.8,0-1.5,0.3-2.1,1.1l-2,2.9
		c-0.5,0.8-1.3,1.1-2,1.1c-1.5,0-3-1.4-2.5-3.2l0.9-3.4c0.5-1.8-1-3.2-2.5-3.2c-0.6,0-1.2,0.2-1.7,0.7l-2.5,2.5
		c-0.5,0.5-1.2,0.8-1.8,0.8c-1.7,0-3.2-1.7-2.4-3.6l1.5-3.1c0.9-1.9-0.6-3.6-2.3-3.6c-0.5,0-1,0.2-1.5,0.5l-2.9,2
		c-0.5,0.3-1,0.5-1.5,0.5c-1.8,0-3.4-2.2-2-4l2-2.9c1.1-1.6,0-3.7-1.6-4c-3.7,13.7-16.3,23.7-31.1,23.7h-30.4v5.6v9h30.3h22.6
		c5.3,0,9.7,4.3,9.7,9.7v9.7h15v-19.4c12.9,0,23.4,10.5,23.4,23.4v91.4c0,6.5-5.3,11.7-11.7,11.7c-6.5,0-11.7-5.3-11.7-11.7v-69.7
		h-14.9v47.6c0,5.3-4.3,9.7-9.7,9.7h-7.7v21.9v47.4c7.8,0,14.2,6.4,14.2,14.2v1.3c0,7.8-6.4,14.2-14.2,14.2h-24.5
		c-7.8,0-14.2-6.4-14.2-14.2v-1.3c0-7.8,6.4-14.2,14.2-14.2v-47.4v-21.9h-74.9h-0.1v21.9v47.4c7.9,0,14.3,6.4,14.3,14.2v1.3
		c0,7.8-6.4,14.2-14.2,14.2h-24.6c-7.8,0-14.2-6.4-14.2-14.2v-1.3c0-7.8,6.4-14.2,14.2-14.2v-47.4v-21.9H98c-5.3,0-9.7-4.3-9.7-9.7
		v-47.6h-15c-1,5.4-5.8,9.6-11.5,9.6c-6.5,0-11.7-5.3-11.7-11.7v-91.4c0-12.9,10.5-23.4,23.4-23.4V120v25.8v46h14.8v-9.7
		c0-5.3,4.3-9.7,9.7-9.7h22.6H151v-9v-5.6h-30.4c-17.9,0-32.3-14.5-32.3-32.3V57.3c0-11.7,9.5-21.3,21.3-21.3h58.2h58.2
		c8.6,0,16,5.1,19.3,12.4c-0.5-1.6,0.9-3.2,2.4-3.2c0.5,0,1,0.1,1.5,0.5l2.9,2c0.5,0.3,1,0.5,1.4,0.5c1.7,0,3.2-1.8,2.3-3.6
		l-1.5-3.1c-0.9-1.9,0.7-3.6,2.4-3.6c0.6,0,1.3,0.2,1.8,0.8l2.5,2.5c0.5,0.5,1.2,0.8,1.8,0.8c1.5,0,3-1.4,2.4-3.3l-0.9-3.4
		c-0.5-1.9,1-3.2,2.5-3.2c0.7,0,1.5,0.3,2,1.1l2,2.9c0.5,0.8,1.3,1.1,2.1,1.1c1.4,0,2.7-1.1,2.5-2.7l-0.3-3.5
		c-0.2-1.7,1.2-2.8,2.6-2.8c0.9,0,1.8,0.5,2.3,1.5l1.5,3.2c0.5,1,1.4,1.5,2.3,1.5c1.2,0,2.4-0.8,2.6-2.3l0.3-3.5
		c0.1-1.5,1.4-2.4,2.6-2.4c1,0,2.1,0.6,2.4,1.9l0.9,3.4c0.3,1.2,1.4,1.9,2.4,1.9c1.1,0,2.1-0.6,2.4-1.9l0.9-3.4
		C298.7,26.7,299.7,26,300.8,26 M247.1,55.6c1-0.8,1.5-2.3,0.5-3.5l-2-2.9c0,0-0.1-0.1-0.1-0.1C246.4,51.1,246.9,53.3,247.1,55.6
		 M300.8,16L300.8,16c-2.1,0-4.1,0.5-5.8,1.4c-1.7-0.9-3.7-1.4-5.8-1.4c-2.9,0-5.5,1-7.6,2.6c-1.2-0.4-2.5-0.6-3.9-0.6
		c-3.6,0-7,1.5-9.4,4.1c-0.5-0.1-1.1-0.1-1.6-0.1c-3.9,0-7.7,1.8-10,4.9c-0.2,0.3-0.4,0.6-0.6,0.9c-4,0.2-7.7,2.3-9.9,5.6
		c-5.6-4.7-12.7-7.4-20.2-7.4h-58.2h-58.2c-17.3,0-31.3,14-31.3,31.3v33.3h-4.8c-18.4,0-33.4,15-33.4,33.4v91.4
		c0,12,9.7,21.7,21.7,21.7c6.6,0,12.5-2.9,16.5-7.7v35.7c0,10.1,7.6,18.4,17.4,19.5v12.1v39.5c-8.4,3.8-14.2,12.3-14.2,22v1.3
		c0,13.3,10.9,24.2,24.2,24.2h24.6c13.3,0,24.2-10.9,24.2-24.2v-1.3c0-9.8-5.9-18.2-14.3-22v-39.5v-11.9h55v11.9v39.5
		c-8.4,3.8-14.2,12.3-14.2,22v1.3c0,13.3,10.9,24.2,24.2,24.2h24.5c13.3,0,24.2-10.9,24.2-24.2v-1.3c0-9.8-5.8-18.2-14.2-22v-39.5
		v-12.1c4.9-0.6,9.2-2.9,12.3-6.4v8.9c0,12,9.7,21.7,21.7,21.7c12,0,21.7-9.7,21.7-21.7v-91.4c0-8.4-3.1-16-8.2-21.9
		c0.6,0.1,1.2,0.1,1.8,0.1c2.1,0,4.1-0.5,5.8-1.4c1.7,0.9,3.7,1.4,5.8,1.4c2.9,0,5.5-1,7.6-2.6c1.2,0.4,2.5,0.6,3.9,0.6
		c3.6,0,7-1.5,9.4-4.1c0.5,0.1,1.1,0.1,1.6,0.1c3.9,0,7.7-1.8,10-4.9c0.2-0.3,0.4-0.6,0.6-0.9c4.1-0.2,7.9-2.4,10.1-5.8
		c0.4-0.6,0.7-1.2,1-1.8c3.6-0.8,6.8-3.2,8.5-6.6c0.5-1,0.9-2,1.1-3c3-1.3,5.4-3.7,6.7-6.8c0.6-1.4,0.9-2.8,0.9-4.2
		c2.4-1.5,4.3-3.9,5.3-6.8c0.6-1.8,0.7-3.7,0.5-5.5c1.9-1.7,3.2-4,3.8-6.6c0.5-2.2,0.4-4.5-0.3-6.5c1.4-1.8,2.3-4,2.5-6.4
		c0.2-2.5-0.3-5-1.4-7.1c1.1-2,1.6-4.4,1.4-6.8c-0.2-2.5-1.1-4.7-2.5-6.6c0.7-2.1,0.8-4.3,0.3-6.6c-0.6-2.6-1.9-4.9-3.8-6.6
		c0.2-1.7,0.1-3.5-0.5-5.3c-0.9-3-2.8-5.4-5.3-7c-0.1-1.4-0.4-2.9-0.9-4.2c-1.3-3.1-3.7-5.5-6.7-6.8c-0.2-1-0.6-2.1-1.1-3
		c-1.8-3.4-4.9-5.8-8.5-6.6c-0.3-0.6-0.6-1.2-1-1.8c-2.2-3.4-6-5.6-10.1-5.8c-0.2-0.3-0.4-0.6-0.7-0.9c-2.4-3.1-6.1-4.9-10-4.9
		c-0.6,0-1.1,0-1.7,0.1c0,0-0.1-0.1-0.1-0.1c-2.4-2.5-5.7-4-9.2-4c-1.3,0-2.6,0.2-3.8,0.6C306.3,17,303.7,16,300.8,16L300.8,16z
		 M83.5,168.8v-23v-0.1c3.8,7,9.6,12.8,16.5,16.7h-2C92.2,162.4,87.1,164.9,83.5,168.8L83.5,168.8z M235.5,162.4
		c3.6-2,6.9-4.5,9.7-7.4c0.2,0.5,0.5,1,0.8,1.4c2.2,3.4,6,5.6,10.1,5.8c0,0.1,0.1,0.1,0.1,0.2h-4v6.6c-3.6-4.1-8.9-6.6-14.7-6.6
		H235.5L235.5,162.4z"/>
</g>
<g>
	<path class="st1" d="M297.4,31.3l0.9-3.4c0.7-2.8,4.8-2.4,5,0.5l0.3,3.5c0.2,2.6,3.8,3.2,4.9,0.8l1.5-3.2c1.2-2.6,5.1-1.6,4.9,1.3
		l-0.3,3.5c-0.3,2.6,3.1,3.9,4.6,1.7l2-2.9c1.7-2.3,5.3-0.6,4.5,2.1l-0.9,3.4c-0.6,2.5,2.4,4.3,4.2,2.5l2.5-2.5c2-2,5.3,0.3,4.1,2.9
		l-1.5,3.1c-1.1,2.4,1.7,4.7,3.8,3.1l2.9-2c2.3-1.7,5.2,1.2,3.5,3.5l-2,2.9c-1.5,2.1,0.8,4.9,3.1,3.8l3.1-1.5
		c2.6-1.2,4.9,2.1,2.9,4.1l-2.5,2.5c-1.8,1.8-0.1,5,2.5,4.2l3.4-0.9c2.8-0.7,4.4,2.9,2.1,4.5l-2.9,2c-2.1,1.5-0.9,4.9,1.7,4.6
		l3.5-0.3c2.9-0.3,3.9,3.7,1.3,4.9l-3.2,1.5c-2.4,1.1-1.8,4.6,0.8,4.9l3.5,0.3c2.9,0.3,3.2,4.2,0.5,5l-3.4,0.9
		c-2.5,0.6-2.5,4.2,0,4.9l3.4,0.9c2.8,0.7,2.4,4.8-0.5,5l-3.5,0.3c-2.6,0.2-3.2,3.8-0.8,4.9l3.2,1.5c2.6,1.2,1.6,5.1-1.3,4.9
		l-3.5-0.3c-2.6-0.3-3.9,3.1-1.7,4.6l2.9,2c2.3,1.7,0.6,5.3-2.1,4.5l-3.4-0.9c-2.5-0.6-4.3,2.4-2.5,4.2l2.5,2.5c2,2-0.3,5.3-2.9,4.1
		l-3.1-1.5c-2.4-1.1-4.7,1.7-3.1,3.8l2,2.9c1.7,2.3-1.2,5.2-3.5,3.5l-2.9-2c-2.1-1.5-4.9,0.8-3.8,3.1l1.5,3.1
		c1.2,2.6-2.1,4.9-4.1,2.9L329,149c-1.8-1.8-5-0.1-4.2,2.5l0.9,3.4c0.7,2.8-2.9,4.4-4.5,2.1l-2-2.9c-1.5-2.1-4.9-0.9-4.6,1.7
		l0.3,3.5c0.3,2.9-3.7,3.9-4.9,1.3l-1.5-3.2c-1.1-2.4-4.6-1.8-4.9,0.8l-0.3,3.5c-0.3,2.9-4.2,3.2-5,0.5l-0.9-3.4
		c-0.6-2.5-4.2-2.5-4.9,0l-0.9,3.4c-0.7,2.8-4.8,2.4-5-0.5l-0.3-3.5c-0.2-2.6-3.8-3.2-4.9-0.8l-1.5,3.2c-1.2,2.6-5.1,1.6-4.9-1.3
		l0.3-3.5c0.3-2.6-3.1-3.9-4.6-1.7l-2,2.9c-1.7,2.3-5.3,0.6-4.5-2.1l0.9-3.4c0.6-2.5-2.4-4.3-4.2-2.5l-2.5,2.5c-2,2-5.3-0.3-4.1-2.9
		l1.5-3.1c1.1-2.4-1.7-4.7-3.8-3.1l-2.9,2c-2.3,1.7-5.2-1.2-3.5-3.5l2-2.9c1.5-2.1-0.8-4.9-3.1-3.8l-3.1,1.5
		c-2.6,1.2-4.9-2.1-2.9-4.1l2.5-2.5c1.8-1.8,0.1-5-2.5-4.2l-3.4,0.9c-2.8,0.7-4.4-2.9-2.1-4.5l2.9-2c2.1-1.5,0.9-4.9-1.7-4.6
		l-3.5,0.3c-2.9,0.3-3.9-3.7-1.3-4.9l3.2-1.5c2.4-1.1,1.8-4.6-0.8-4.9l-3.5-0.3c-2.9-0.3-3.2-4.2-0.5-5l3.4-0.9
		c2.5-0.6,2.5-4.2,0-4.9l-3.4-0.9c-2.8-0.7-2.4-4.8,0.5-5l3.5-0.3c2.6-0.2,3.2-3.8,0.8-4.9l-3.2-1.5c-2.6-1.2-1.6-5.1,1.3-4.9
		l3.5,0.3c2.6,0.3,3.9-3.1,1.7-4.6l-2.9-2c-2.3-1.7-0.6-5.3,2.1-4.5l3.4,0.9c2.5,0.6,4.3-2.4,2.5-4.2l-2.5-2.5c-2-2,0.3-5.3,2.9-4.1
		l3.1,1.5c2.4,1.1,4.7-1.7,3.1-3.8l-2-2.9c-1.7-2.3,1.2-5.2,3.5-3.5l2.9,2c2.1,1.5,4.9-0.8,3.8-3.1l-1.5-3.1
		c-1.2-2.6,2.1-4.9,4.1-2.9l2.5,2.5c1.8,1.8,5,0.1,4.2-2.5l-0.9-3.4c-0.7-2.8,2.9-4.4,4.5-2.1l2,2.9c1.5,2.1,4.9,0.9,4.6-1.7
		l-0.3-3.5c-0.3-2.9,3.7-3.9,4.9-1.3l1.5,3.2c1.1,2.4,4.6,1.8,4.9-0.8l0.3-3.5c0.3-2.9,4.2-3.2,5-0.5l0.9,3.4
		C293.2,33.8,296.8,33.8,297.4,31.3z"/>
	<g>
		<g>
			<rect x="151" y="151.1" class="st2" width="33.5" height="25.5"/>
			<rect x="151" y="151.1" class="st3" width="33.5" height="12.3"/>
		</g>
		<path class="st4" d="M247.2,57.3v68.2c0,17.9-14.5,32.3-32.3,32.3l0,0h-94.4l0,0c-17.9,0-32.3-14.5-32.3-32.3V57.3
			c0-11.7,9.5-21.3,21.3-21.3h58.2h58.2C237.7,36,247.2,45.5,247.2,57.3z"/>
		<g>
			<path class="st2" d="M122.1,48.1h91.2c7.8,0,14.3,6.5,14.3,14.3v68.7c0,7.8-6.5,14.3-14.3,14.3h-91.2c-7.8,0-14.3-6.5-14.3-14.3
				V62.4C107.8,54.6,114.3,48.1,122.1,48.1z"/>
			<path class="st3" d="M128.7,54.7h78.2c7.8,0,14.3,6.5,14.3,14.3v55.7c0,7.8-6.5,14.3-14.3,14.3h-78.2c-7.8,0-14.3-6.5-14.3-14.3
				V68.9C114.4,61.1,120.8,54.7,128.7,54.7z"/>
			<g>
				<g class="st5">
					<g>
						<g>
							<g>
								<g>
									<path class="st6" d="M224.6,101.6c0-1.5-1.2-1.8-2.7-1.8c-1.5,0-2.7,0.4-2.7,1.8"/>
									<path class="st6" d="M213.8,101.3c0,1.5,1.2,1.8,2.7,1.8s2.7-0.4,2.7-1.8"/>
								</g>
								<g>
									<path class="st6" d="M213.8,101.6c0-1.5-1.2-1.8-2.7-1.8s-2.7,0.4-2.7,1.8"/>
									<path class="st6" d="M202.9,101.3c0,1.5,1.2,1.8,2.7,1.8s2.7-0.4,2.7-1.8"/>
								</g>
							</g>
							<g>
								<g>
									<path class="st6" d="M202.9,101.6c0-1.5-1.2-1.8-2.7-1.8s-2.7,0.4-2.7,1.8"/>
									<path class="st6" d="M192.1,101.3c0,1.5,1.2,1.8,2.7,1.8c1.5,0,2.7-0.4,2.7-1.8"/>
								</g>
								<g>
									<path class="st6" d="M192.1,101.6c0-1.5-1.2-1.8-2.7-1.8s-2.7,0.4-2.7,1.8"/>
									<path class="st6" d="M181.2,101.3c0,1.5,1.2,1.8,2.7,1.8c1.5,0,2.7-0.4,2.7-1.8"/>
								</g>
							</g>
						</g>
						<g>
							<g>
								<g>
									<path class="st6" d="M181.2,101.6c0-1.5-1.2-1.8-2.7-1.8c-1.5,0-2.7,0.4-2.7,1.8"/>
									<path class="st6" d="M170.4,101.3c0,1.5,1.2,1.8,2.7,1.8s2.7-0.4,2.7-1.8"/>
								</g>
								<g>
									<path class="st6" d="M170.4,101.6c0-1.5-1.2-1.8-2.7-1.8c-1.5,0-2.7,0.4-2.7,1.8"/>
									<path class="st6" d="M159.5,101.3c0,1.5,1.2,1.8,2.7,1.8c1.5,0,2.7-0.4,2.7-1.8"/>
								</g>
							</g>
							<g>
								<g>
									<path class="st6" d="M159.5,101.6c0-1.5-1.2-1.8-2.7-1.8s-2.7,0.4-2.7,1.8"/>
									<path class="st6" d="M148.7,101.3c0,1.5,1.2,1.8,2.7,1.8c1.5,0,2.7-0.4,2.7-1.8"/>
								</g>
								<g>
									<path class="st6" d="M148.7,101.6c0-1.5-1.2-1.8-2.7-1.8c-1.5,0-2.7,0.4-2.7,1.8"/>
									<path class="st6" d="M137.9,101.3c0,1.5,1.2,1.8,2.7,1.8s2.7-0.4,2.7-1.8"/>
								</g>
							</g>
						</g>
					</g>
					<g>
						<g>
							<g>
								<g>
									<path class="st6" d="M137.9,101.6c0-1.5-1.2-1.8-2.7-1.8s-2.7,0.4-2.7,1.8"/>
									<path class="st6" d="M127,101.3c0,1.5,1.2,1.8,2.7,1.8s2.7-0.4,2.7-1.8"/>
								</g>
								<g>
									<path class="st6" d="M127,101.6c0-1.5-1.2-1.8-2.7-1.8c-1.5,0-2.7,0.4-2.7,1.8"/>
									<path class="st6" d="M116.1,101.3c0,1.5,1.2,1.8,2.7,1.8s2.7-0.4,2.7-1.8"/>
								</g>
							</g>
							<g>
								<g>
									<path class="st6" d="M116.1,101.6c0-1.5-1.2-1.8-2.7-1.8s-2.7,0.4-2.7,1.8"/>
								</g>
							</g>
						</g>
					</g>
				</g>
				<g class="st5">
					<g>
						<g>
							<g>
								<g>
									<path class="st6" d="M224.6,65c0-1.5-1.2-1.8-2.7-1.8c-1.5,0-2.7,0.4-2.7,1.8"/>
									<path class="st6" d="M213.8,64.7c0,1.5,1.2,1.8,2.7,1.8s2.7-0.4,2.7-1.8"/>
								</g>
								<g>
									<path class="st6" d="M213.8,65c0-1.5-1.2-1.8-2.7-1.8s-2.7,0.4-2.7,1.8"/>
									<path class="st6" d="M202.9,64.7c0,1.5,1.2,1.8,2.7,1.8s2.7-0.4,2.7-1.8"/>
								</g>
							</g>
							<g>
								<g>
									<path class="st6" d="M202.9,65c0-1.5-1.2-1.8-2.7-1.8s-2.7,0.4-2.7,1.8"/>
									<path class="st6" d="M192.1,64.7c0,1.5,1.2,1.8,2.7,1.8c1.5,0,2.7-0.4,2.7-1.8"/>
								</g>
								<g>
									<path class="st6" d="M192.1,65c0-1.5-1.2-1.8-2.7-1.8s-2.7,0.4-2.7,1.8"/>
									<path class="st6" d="M181.2,64.7c0,1.5,1.2,1.8,2.7,1.8c1.5,0,2.7-0.4,2.7-1.8"/>
								</g>
							</g>
						</g>
						<g>
							<g>
								<g>
									<path class="st6" d="M181.2,65c0-1.5-1.2-1.8-2.7-1.8c-1.5,0-2.7,0.4-2.7,1.8"/>
									<path class="st6" d="M170.4,64.7c0,1.5,1.2,1.8,2.7,1.8s2.7-0.4,2.7-1.8"/>
								</g>
								<g>
									<path class="st6" d="M170.4,65c0-1.5-1.2-1.8-2.7-1.8c-1.5,0-2.7,0.4-2.7,1.8"/>
									<path class="st6" d="M159.5,64.7c0,1.5,1.2,1.8,2.7,1.8c1.5,0,2.7-0.4,2.7-1.8"/>
								</g>
							</g>
							<g>
								<g>
									<path class="st6" d="M159.5,65c0-1.5-1.2-1.8-2.7-1.8s-2.7,0.4-2.7,1.8"/>
									<path class="st6" d="M148.7,64.7c0,1.5,1.2,1.8,2.7,1.8c1.5,0,2.7-0.4,2.7-1.8"/>
								</g>
								<g>
									<path class="st6" d="M148.7,65c0-1.5-1.2-1.8-2.7-1.8c-1.5,0-2.7,0.4-2.7,1.8"/>
									<path class="st6" d="M137.9,64.7c0,1.5,1.2,1.8,2.7,1.8s2.7-0.4,2.7-1.8"/>
								</g>
							</g>
						</g>
					</g>
					<g>
						<g>
							<g>
								<g>
									<path class="st6" d="M137.9,65c0-1.5-1.2-1.8-2.7-1.8s-2.7,0.4-2.7,1.8"/>
									<path class="st6" d="M127,64.7c0,1.5,1.2,1.8,2.7,1.8s2.7-0.4,2.7-1.8"/>
								</g>
								<g>
									<path class="st6" d="M127,65c0-1.5-1.2-1.8-2.7-1.8c-1.5,0-2.7,0.4-2.7,1.8"/>
									<path class="st6" d="M116.1,64.7c0,1.5,1.2,1.8,2.7,1.8s2.7-0.4,2.7-1.8"/>
								</g>
							</g>
							<g>
								<g>
									<path class="st6" d="M116.1,65c0-1.5-1.2-1.8-2.7-1.8s-2.7,0.4-2.7,1.8"/>
								</g>
							</g>
						</g>
					</g>
				</g>
				<g class="st5">
					<g>
						<g>
							<g>
								<g>
									<path class="st6" d="M224.6,110.7c0-1.5-1.2-1.8-2.7-1.8c-1.5,0-2.7,0.4-2.7,1.8"/>
									<path class="st6" d="M213.8,110.4c0,1.5,1.2,1.8,2.7,1.8s2.7-0.4,2.7-1.8"/>
								</g>
								<g>
									<path class="st6" d="M213.8,110.7c0-1.5-1.2-1.8-2.7-1.8s-2.7,0.4-2.7,1.8"/>
									<path class="st6" d="M202.9,110.4c0,1.5,1.2,1.8,2.7,1.8s2.7-0.4,2.7-1.8"/>
								</g>
							</g>
							<g>
								<g>
									<path class="st6" d="M202.9,110.7c0-1.5-1.2-1.8-2.7-1.8s-2.7,0.4-2.7,1.8"/>
									<path class="st6" d="M192.1,110.4c0,1.5,1.2,1.8,2.7,1.8c1.5,0,2.7-0.4,2.7-1.8"/>
								</g>
								<g>
									<path class="st6" d="M192.1,110.7c0-1.5-1.2-1.8-2.7-1.8s-2.7,0.4-2.7,1.8"/>
									<path class="st6" d="M181.2,110.4c0,1.5,1.2,1.8,2.7,1.8c1.5,0,2.7-0.4,2.7-1.8"/>
								</g>
							</g>
						</g>
						<g>
							<g>
								<g>
									<path class="st6" d="M181.2,110.7c0-1.5-1.2-1.8-2.7-1.8c-1.5,0-2.7,0.4-2.7,1.8"/>
									<path class="st6" d="M170.4,110.4c0,1.5,1.2,1.8,2.7,1.8s2.7-0.4,2.7-1.8"/>
								</g>
								<g>
									<path class="st6" d="M170.4,110.7c0-1.5-1.2-1.8-2.7-1.8c-1.5,0-2.7,0.4-2.7,1.8"/>
									<path class="st6" d="M159.5,110.4c0,1.5,1.2,1.8,2.7,1.8c1.5,0,2.7-0.4,2.7-1.8"/>
								</g>
							</g>
							<g>
								<g>
									<path class="st6" d="M159.5,110.7c0-1.5-1.2-1.8-2.7-1.8s-2.7,0.4-2.7,1.8"/>
									<path class="st6" d="M148.7,110.4c0,1.5,1.2,1.8,2.7,1.8c1.5,0,2.7-0.4,2.7-1.8"/>
								</g>
								<g>
									<path class="st6" d="M148.7,110.7c0-1.5-1.2-1.8-2.7-1.8c-1.5,0-2.7,0.4-2.7,1.8"/>
									<path class="st6" d="M137.9,110.4c0,1.5,1.2,1.8,2.7,1.8s2.7-0.4,2.7-1.8"/>
								</g>
							</g>
						</g>
					</g>
					<g>
						<g>
							<g>
								<g>
									<path class="st6" d="M137.9,110.7c0-1.5-1.2-1.8-2.7-1.8s-2.7,0.4-2.7,1.8"/>
									<path class="st6" d="M127,110.4c0,1.5,1.2,1.8,2.7,1.8s2.7-0.4,2.7-1.8"/>
								</g>
								<g>
									<path class="st6" d="M127,110.7c0-1.5-1.2-1.8-2.7-1.8c-1.5,0-2.7,0.4-2.7,1.8"/>
									<path class="st6" d="M116.1,110.4c0,1.5,1.2,1.8,2.7,1.8s2.7-0.4,2.7-1.8"/>
								</g>
							</g>
							<g>
								<g>
									<path class="st6" d="M116.1,110.7c0-1.5-1.2-1.8-2.7-1.8s-2.7,0.4-2.7,1.8"/>
								</g>
							</g>
						</g>
					</g>
				</g>
				<g class="st5">
					<g>
						<g>
							<g>
								<g>
									<path class="st6" d="M224.6,74.1c0-1.5-1.2-1.8-2.7-1.8c-1.5,0-2.7,0.4-2.7,1.8"/>
									<path class="st6" d="M213.8,73.8c0,1.5,1.2,1.8,2.7,1.8s2.7-0.4,2.7-1.8"/>
								</g>
								<g>
									<path class="st6" d="M213.8,74.1c0-1.5-1.2-1.8-2.7-1.8s-2.7,0.4-2.7,1.8"/>
									<path class="st6" d="M202.9,73.8c0,1.5,1.2,1.8,2.7,1.8s2.7-0.4,2.7-1.8"/>
								</g>
							</g>
							<g>
								<g>
									<path class="st6" d="M202.9,74.1c0-1.5-1.2-1.8-2.7-1.8s-2.7,0.4-2.7,1.8"/>
									<path class="st6" d="M192.1,73.8c0,1.5,1.2,1.8,2.7,1.8c1.5,0,2.7-0.4,2.7-1.8"/>
								</g>
								<g>
									<path class="st6" d="M192.1,74.1c0-1.5-1.2-1.8-2.7-1.8s-2.7,0.4-2.7,1.8"/>
									<path class="st6" d="M181.2,73.8c0,1.5,1.2,1.8,2.7,1.8c1.5,0,2.7-0.4,2.7-1.8"/>
								</g>
							</g>
						</g>
						<g>
							<g>
								<g>
									<path class="st6" d="M181.2,74.1c0-1.5-1.2-1.8-2.7-1.8c-1.5,0-2.7,0.4-2.7,1.8"/>
									<path class="st6" d="M170.4,73.8c0,1.5,1.2,1.8,2.7,1.8s2.7-0.4,2.7-1.8"/>
								</g>
								<g>
									<path class="st6" d="M170.4,74.1c0-1.5-1.2-1.8-2.7-1.8c-1.5,0-2.7,0.4-2.7,1.8"/>
									<path class="st6" d="M159.5,73.8c0,1.5,1.2,1.8,2.7,1.8c1.5,0,2.7-0.4,2.7-1.8"/>
								</g>
							</g>
							<g>
								<g>
									<path class="st6" d="M159.5,74.1c0-1.5-1.2-1.8-2.7-1.8s-2.7,0.4-2.7,1.8"/>
									<path class="st6" d="M148.7,73.8c0,1.5,1.2,1.8,2.7,1.8c1.5,0,2.7-0.4,2.7-1.8"/>
								</g>
								<g>
									<path class="st6" d="M148.7,74.1c0-1.5-1.2-1.8-2.7-1.8c-1.5,0-2.7,0.4-2.7,1.8"/>
									<path class="st6" d="M137.9,73.8c0,1.5,1.2,1.8,2.7,1.8s2.7-0.4,2.7-1.8"/>
								</g>
							</g>
						</g>
					</g>
					<g>
						<g>
							<g>
								<g>
									<path class="st6" d="M137.9,74.1c0-1.5-1.2-1.8-2.7-1.8s-2.7,0.4-2.7,1.8"/>
									<path class="st6" d="M127,73.8c0,1.5,1.2,1.8,2.7,1.8s2.7-0.4,2.7-1.8"/>
								</g>
								<g>
									<path class="st6" d="M127,74.1c0-1.5-1.2-1.8-2.7-1.8c-1.5,0-2.7,0.4-2.7,1.8"/>
									<path class="st6" d="M116.1,73.8c0,1.5,1.2,1.8,2.7,1.8s2.7-0.4,2.7-1.8"/>
								</g>
							</g>
							<g>
								<g>
									<path class="st6" d="M116.1,74.1c0-1.5-1.2-1.8-2.7-1.8s-2.7,0.4-2.7,1.8"/>
								</g>
							</g>
						</g>
					</g>
				</g>
				<g class="st5">
					<g>
						<g>
							<g>
								<g>
									<path class="st6" d="M224.6,119.8c0-1.5-1.2-1.8-2.7-1.8c-1.5,0-2.7,0.4-2.7,1.8"/>
									<path class="st6" d="M213.8,119.5c0,1.5,1.2,1.8,2.7,1.8s2.7-0.4,2.7-1.8"/>
								</g>
								<g>
									<path class="st6" d="M213.8,119.8c0-1.5-1.2-1.8-2.7-1.8s-2.7,0.4-2.7,1.8"/>
									<path class="st6" d="M202.9,119.5c0,1.5,1.2,1.8,2.7,1.8s2.7-0.4,2.7-1.8"/>
								</g>
							</g>
							<g>
								<g>
									<path class="st6" d="M202.9,119.8c0-1.5-1.2-1.8-2.7-1.8s-2.7,0.4-2.7,1.8"/>
									<path class="st6" d="M192.1,119.5c0,1.5,1.2,1.8,2.7,1.8c1.5,0,2.7-0.4,2.7-1.8"/>
								</g>
								<g>
									<path class="st6" d="M192.1,119.8c0-1.5-1.2-1.8-2.7-1.8s-2.7,0.4-2.7,1.8"/>
									<path class="st6" d="M181.2,119.5c0,1.5,1.2,1.8,2.7,1.8c1.5,0,2.7-0.4,2.7-1.8"/>
								</g>
							</g>
						</g>
						<g>
							<g>
								<g>
									<path class="st6" d="M181.2,119.8c0-1.5-1.2-1.8-2.7-1.8c-1.5,0-2.7,0.4-2.7,1.8"/>
									<path class="st6" d="M170.4,119.5c0,1.5,1.2,1.8,2.7,1.8s2.7-0.4,2.7-1.8"/>
								</g>
								<g>
									<path class="st6" d="M170.4,119.8c0-1.5-1.2-1.8-2.7-1.8c-1.5,0-2.7,0.4-2.7,1.8"/>
									<path class="st6" d="M159.5,119.5c0,1.5,1.2,1.8,2.7,1.8c1.5,0,2.7-0.4,2.7-1.8"/>
								</g>
							</g>
							<g>
								<g>
									<path class="st6" d="M159.5,119.8c0-1.5-1.2-1.8-2.7-1.8s-2.7,0.4-2.7,1.8"/>
									<path class="st6" d="M148.7,119.5c0,1.5,1.2,1.8,2.7,1.8c1.5,0,2.7-0.4,2.7-1.8"/>
								</g>
								<g>
									<path class="st6" d="M148.7,119.8c0-1.5-1.2-1.8-2.7-1.8c-1.5,0-2.7,0.4-2.7,1.8"/>
									<path class="st6" d="M137.9,119.5c0,1.5,1.2,1.8,2.7,1.8s2.7-0.4,2.7-1.8"/>
								</g>
							</g>
						</g>
					</g>
					<g>
						<g>
							<g>
								<g>
									<path class="st6" d="M137.9,119.8c0-1.5-1.2-1.8-2.7-1.8s-2.7,0.4-2.7,1.8"/>
									<path class="st6" d="M127,119.5c0,1.5,1.2,1.8,2.7,1.8s2.7-0.4,2.7-1.8"/>
								</g>
								<g>
									<path class="st6" d="M127,119.8c0-1.5-1.2-1.8-2.7-1.8c-1.5,0-2.7,0.4-2.7,1.8"/>
									<path class="st6" d="M116.1,119.5c0,1.5,1.2,1.8,2.7,1.8s2.7-0.4,2.7-1.8"/>
								</g>
							</g>
							<g>
								<g>
									<path class="st6" d="M116.1,119.8c0-1.5-1.2-1.8-2.7-1.8s-2.7,0.4-2.7,1.8"/>
								</g>
							</g>
						</g>
					</g>
				</g>
				<g class="st5">
					<g>
						<g>
							<g>
								<g>
									<path class="st6" d="M224.6,83.2c0-1.5-1.2-1.8-2.7-1.8c-1.5,0-2.7,0.4-2.7,1.8"/>
									<path class="st6" d="M213.8,83c0,1.5,1.2,1.8,2.7,1.8s2.7-0.4,2.7-1.8"/>
								</g>
								<g>
									<path class="st6" d="M213.8,83.2c0-1.5-1.2-1.8-2.7-1.8s-2.7,0.4-2.7,1.8"/>
									<path class="st6" d="M202.9,83c0,1.5,1.2,1.8,2.7,1.8s2.7-0.4,2.7-1.8"/>
								</g>
							</g>
							<g>
								<g>
									<path class="st6" d="M202.9,83.2c0-1.5-1.2-1.8-2.7-1.8s-2.7,0.4-2.7,1.8"/>
									<path class="st6" d="M192.1,83c0,1.5,1.2,1.8,2.7,1.8c1.5,0,2.7-0.4,2.7-1.8"/>
								</g>
								<g>
									<path class="st6" d="M192.1,83.2c0-1.5-1.2-1.8-2.7-1.8s-2.7,0.4-2.7,1.8"/>
									<path class="st6" d="M181.2,83c0,1.5,1.2,1.8,2.7,1.8c1.5,0,2.7-0.4,2.7-1.8"/>
								</g>
							</g>
						</g>
						<g>
							<g>
								<g>
									<path class="st6" d="M181.2,83.2c0-1.5-1.2-1.8-2.7-1.8c-1.5,0-2.7,0.4-2.7,1.8"/>
									<path class="st6" d="M170.4,83c0,1.5,1.2,1.8,2.7,1.8s2.7-0.4,2.7-1.8"/>
								</g>
								<g>
									<path class="st6" d="M170.4,83.2c0-1.5-1.2-1.8-2.7-1.8c-1.5,0-2.7,0.4-2.7,1.8"/>
									<path class="st6" d="M159.5,83c0,1.5,1.2,1.8,2.7,1.8c1.5,0,2.7-0.4,2.7-1.8"/>
								</g>
							</g>
							<g>
								<g>
									<path class="st6" d="M159.5,83.2c0-1.5-1.2-1.8-2.7-1.8s-2.7,0.4-2.7,1.8"/>
									<path class="st6" d="M148.7,83c0,1.5,1.2,1.8,2.7,1.8c1.5,0,2.7-0.4,2.7-1.8"/>
								</g>
								<g>
									<path class="st6" d="M148.7,83.2c0-1.5-1.2-1.8-2.7-1.8c-1.5,0-2.7,0.4-2.7,1.8"/>
									<path class="st6" d="M137.9,83c0,1.5,1.2,1.8,2.7,1.8s2.7-0.4,2.7-1.8"/>
								</g>
							</g>
						</g>
					</g>
					<g>
						<g>
							<g>
								<g>
									<path class="st6" d="M137.9,83.2c0-1.5-1.2-1.8-2.7-1.8s-2.7,0.4-2.7,1.8"/>
									<path class="st6" d="M127,83c0,1.5,1.2,1.8,2.7,1.8s2.7-0.4,2.7-1.8"/>
								</g>
								<g>
									<path class="st6" d="M127,83.2c0-1.5-1.2-1.8-2.7-1.8c-1.5,0-2.7,0.4-2.7,1.8"/>
									<path class="st6" d="M116.1,83c0,1.5,1.2,1.8,2.7,1.8s2.7-0.4,2.7-1.8"/>
								</g>
							</g>
							<g>
								<g>
									<path class="st6" d="M116.1,83.2c0-1.5-1.2-1.8-2.7-1.8s-2.7,0.4-2.7,1.8"/>
								</g>
							</g>
						</g>
					</g>
				</g>
				<g class="st5">
					<g>
						<g>
							<g>
								<g>
									<path class="st6" d="M224.6,128.9c0-1.5-1.2-1.8-2.7-1.8c-1.5,0-2.7,0.4-2.7,1.8"/>
									<path class="st6" d="M213.8,128.7c0,1.5,1.2,1.8,2.7,1.8s2.7-0.4,2.7-1.8"/>
								</g>
								<g>
									<path class="st6" d="M213.8,128.9c0-1.5-1.2-1.8-2.7-1.8s-2.7,0.4-2.7,1.8"/>
									<path class="st6" d="M202.9,128.7c0,1.5,1.2,1.8,2.7,1.8s2.7-0.4,2.7-1.8"/>
								</g>
							</g>
							<g>
								<g>
									<path class="st6" d="M202.9,128.9c0-1.5-1.2-1.8-2.7-1.8s-2.7,0.4-2.7,1.8"/>
									<path class="st6" d="M192.1,128.7c0,1.5,1.2,1.8,2.7,1.8c1.5,0,2.7-0.4,2.7-1.8"/>
								</g>
								<g>
									<path class="st6" d="M192.1,128.9c0-1.5-1.2-1.8-2.7-1.8s-2.7,0.4-2.7,1.8"/>
									<path class="st6" d="M181.2,128.7c0,1.5,1.2,1.8,2.7,1.8c1.5,0,2.7-0.4,2.7-1.8"/>
								</g>
							</g>
						</g>
						<g>
							<g>
								<g>
									<path class="st6" d="M181.2,128.9c0-1.5-1.2-1.8-2.7-1.8c-1.5,0-2.7,0.4-2.7,1.8"/>
									<path class="st6" d="M170.4,128.7c0,1.5,1.2,1.8,2.7,1.8s2.7-0.4,2.7-1.8"/>
								</g>
								<g>
									<path class="st6" d="M170.4,128.9c0-1.5-1.2-1.8-2.7-1.8c-1.5,0-2.7,0.4-2.7,1.8"/>
									<path class="st6" d="M159.5,128.7c0,1.5,1.2,1.8,2.7,1.8c1.5,0,2.7-0.4,2.7-1.8"/>
								</g>
							</g>
							<g>
								<g>
									<path class="st6" d="M159.5,128.9c0-1.5-1.2-1.8-2.7-1.8s-2.7,0.4-2.7,1.8"/>
									<path class="st6" d="M148.7,128.7c0,1.5,1.2,1.8,2.7,1.8c1.5,0,2.7-0.4,2.7-1.8"/>
								</g>
								<g>
									<path class="st6" d="M148.7,128.9c0-1.5-1.2-1.8-2.7-1.8c-1.5,0-2.7,0.4-2.7,1.8"/>
									<path class="st6" d="M137.9,128.7c0,1.5,1.2,1.8,2.7,1.8s2.7-0.4,2.7-1.8"/>
								</g>
							</g>
						</g>
					</g>
					<g>
						<g>
							<g>
								<g>
									<path class="st6" d="M137.9,128.9c0-1.5-1.2-1.8-2.7-1.8s-2.7,0.4-2.7,1.8"/>
									<path class="st6" d="M127,128.7c0,1.5,1.2,1.8,2.7,1.8s2.7-0.4,2.7-1.8"/>
								</g>
								<g>
									<path class="st6" d="M127,128.9c0-1.5-1.2-1.8-2.7-1.8c-1.5,0-2.7,0.4-2.7,1.8"/>
									<path class="st6" d="M116.1,128.7c0,1.5,1.2,1.8,2.7,1.8s2.7-0.4,2.7-1.8"/>
								</g>
							</g>
							<g>
								<g>
									<path class="st6" d="M116.1,128.9c0-1.5-1.2-1.8-2.7-1.8s-2.7,0.4-2.7,1.8"/>
								</g>
							</g>
						</g>
					</g>
				</g>
				<g class="st5">
					<g>
						<g>
							<g>
								<g>
									<path class="st6" d="M224.6,92.4c0-1.5-1.2-1.8-2.7-1.8c-1.5,0-2.7,0.4-2.7,1.8"/>
									<path class="st6" d="M213.8,92.1c0,1.5,1.2,1.8,2.7,1.8s2.7-0.4,2.7-1.8"/>
								</g>
								<g>
									<path class="st6" d="M213.8,92.4c0-1.5-1.2-1.8-2.7-1.8s-2.7,0.4-2.7,1.8"/>
									<path class="st6" d="M202.9,92.1c0,1.5,1.2,1.8,2.7,1.8s2.7-0.4,2.7-1.8"/>
								</g>
							</g>
							<g>
								<g>
									<path class="st6" d="M202.9,92.4c0-1.5-1.2-1.8-2.7-1.8s-2.7,0.4-2.7,1.8"/>
									<path class="st6" d="M192.1,92.1c0,1.5,1.2,1.8,2.7,1.8c1.5,0,2.7-0.4,2.7-1.8"/>
								</g>
								<g>
									<path class="st6" d="M192.1,92.4c0-1.5-1.2-1.8-2.7-1.8s-2.7,0.4-2.7,1.8"/>
									<path class="st6" d="M181.2,92.1c0,1.5,1.2,1.8,2.7,1.8c1.5,0,2.7-0.4,2.7-1.8"/>
								</g>
							</g>
						</g>
						<g>
							<g>
								<g>
									<path class="st6" d="M181.2,92.4c0-1.5-1.2-1.8-2.7-1.8c-1.5,0-2.7,0.4-2.7,1.8"/>
									<path class="st6" d="M170.4,92.1c0,1.5,1.2,1.8,2.7,1.8s2.7-0.4,2.7-1.8"/>
								</g>
								<g>
									<path class="st6" d="M170.4,92.4c0-1.5-1.2-1.8-2.7-1.8c-1.5,0-2.7,0.4-2.7,1.8"/>
									<path class="st6" d="M159.5,92.1c0,1.5,1.2,1.8,2.7,1.8c1.5,0,2.7-0.4,2.7-1.8"/>
								</g>
							</g>
							<g>
								<g>
									<path class="st6" d="M159.5,92.4c0-1.5-1.2-1.8-2.7-1.8s-2.7,0.4-2.7,1.8"/>
									<path class="st6" d="M148.7,92.1c0,1.5,1.2,1.8,2.7,1.8c1.5,0,2.7-0.4,2.7-1.8"/>
								</g>
								<g>
									<path class="st6" d="M148.7,92.4c0-1.5-1.2-1.8-2.7-1.8c-1.5,0-2.7,0.4-2.7,1.8"/>
									<path class="st6" d="M137.9,92.1c0,1.5,1.2,1.8,2.7,1.8s2.7-0.4,2.7-1.8"/>
								</g>
							</g>
						</g>
					</g>
					<g>
						<g>
							<g>
								<g>
									<path class="st6" d="M137.9,92.4c0-1.5-1.2-1.8-2.7-1.8s-2.7,0.4-2.7,1.8"/>
									<path class="st6" d="M127,92.1c0,1.5,1.2,1.8,2.7,1.8s2.7-0.4,2.7-1.8"/>
								</g>
								<g>
									<path class="st6" d="M127,92.4c0-1.5-1.2-1.8-2.7-1.8c-1.5,0-2.7,0.4-2.7,1.8"/>
									<path class="st6" d="M116.1,92.1c0,1.5,1.2,1.8,2.7,1.8s2.7-0.4,2.7-1.8"/>
								</g>
							</g>
							<g>
								<g>
									<path class="st6" d="M116.1,92.4c0-1.5-1.2-1.8-2.7-1.8s-2.7,0.4-2.7,1.8"/>
								</g>
							</g>
						</g>
					</g>
				</g>
				<g class="st5">
					<g>
						<g>
							<g>
								<g>
									<path class="st6" d="M224.6,138.2c0-1.5-1.2-1.8-2.7-1.8c-1.5,0-2.7,0.4-2.7,1.8"/>
									<path class="st6" d="M213.8,137.8c0,1.5,1.2,1.8,2.7,1.8s2.7-0.4,2.7-1.8"/>
								</g>
								<g>
									<path class="st6" d="M213.8,138.2c0-1.5-1.2-1.8-2.7-1.8s-2.7,0.4-2.7,1.8"/>
									<path class="st6" d="M202.9,137.8c0,1.5,1.2,1.8,2.7,1.8s2.7-0.4,2.7-1.8"/>
								</g>
							</g>
							<g>
								<g>
									<path class="st6" d="M202.9,138.2c0-1.5-1.2-1.8-2.7-1.8s-2.7,0.4-2.7,1.8"/>
									<path class="st6" d="M192.1,137.8c0,1.5,1.2,1.8,2.7,1.8c1.5,0,2.7-0.4,2.7-1.8"/>
								</g>
								<g>
									<path class="st6" d="M192.1,138.2c0-1.5-1.2-1.8-2.7-1.8s-2.7,0.4-2.7,1.8"/>
									<path class="st6" d="M181.2,137.8c0,1.5,1.2,1.8,2.7,1.8c1.5,0,2.7-0.4,2.7-1.8"/>
								</g>
							</g>
						</g>
						<g>
							<g>
								<g>
									<path class="st6" d="M181.2,138.2c0-1.5-1.2-1.8-2.7-1.8c-1.5,0-2.7,0.4-2.7,1.8"/>
									<path class="st6" d="M170.4,137.8c0,1.5,1.2,1.8,2.7,1.8s2.7-0.4,2.7-1.8"/>
								</g>
								<g>
									<path class="st6" d="M170.4,138.2c0-1.5-1.2-1.8-2.7-1.8c-1.5,0-2.7,0.4-2.7,1.8"/>
									<path class="st6" d="M159.5,137.8c0,1.5,1.2,1.8,2.7,1.8c1.5,0,2.7-0.4,2.7-1.8"/>
								</g>
							</g>
							<g>
								<g>
									<path class="st6" d="M159.5,138.2c0-1.5-1.2-1.8-2.7-1.8s-2.7,0.4-2.7,1.8"/>
									<path class="st6" d="M148.7,137.8c0,1.5,1.2,1.8,2.7,1.8c1.5,0,2.7-0.4,2.7-1.8"/>
								</g>
								<g>
									<path class="st6" d="M148.7,138.2c0-1.5-1.2-1.8-2.7-1.8c-1.5,0-2.7,0.4-2.7,1.8"/>
									<path class="st6" d="M137.9,137.8c0,1.5,1.2,1.8,2.7,1.8s2.7-0.4,2.7-1.8"/>
								</g>
							</g>
						</g>
					</g>
					<g>
						<g>
							<g>
								<g>
									<path class="st6" d="M137.9,138.2c0-1.5-1.2-1.8-2.7-1.8s-2.7,0.4-2.7,1.8"/>
									<path class="st6" d="M127,137.8c0,1.5,1.2,1.8,2.7,1.8s2.7-0.4,2.7-1.8"/>
								</g>
								<g>
									<path class="st6" d="M127,138.2c0-1.5-1.2-1.8-2.7-1.8c-1.5,0-2.7,0.4-2.7,1.8"/>
									<path class="st6" d="M116.1,137.8c0,1.5,1.2,1.8,2.7,1.8s2.7-0.4,2.7-1.8"/>
								</g>
							</g>
							<g>
								<g>
									<path class="st6" d="M116.1,138.2c0-1.5-1.2-1.8-2.7-1.8s-2.7,0.4-2.7,1.8"/>
								</g>
							</g>
						</g>
					</g>
				</g>
				<g class="st5">
					<g>
						<g>
							<g>
								<g>
									<path class="st6" d="M224.6,55.9c0-1.5-1.2-1.8-2.7-1.8c-1.5,0-2.7,0.4-2.7,1.8"/>
									<path class="st6" d="M213.8,55.6c0,1.5,1.2,1.8,2.7,1.8s2.7-0.4,2.7-1.8"/>
								</g>
								<g>
									<path class="st6" d="M213.8,55.9c0-1.5-1.2-1.8-2.7-1.8s-2.7,0.4-2.7,1.8"/>
									<path class="st6" d="M202.9,55.6c0,1.5,1.2,1.8,2.7,1.8s2.7-0.4,2.7-1.8"/>
								</g>
							</g>
							<g>
								<g>
									<path class="st6" d="M202.9,55.9c0-1.5-1.2-1.8-2.7-1.8s-2.7,0.4-2.7,1.8"/>
									<path class="st6" d="M192.1,55.6c0,1.5,1.2,1.8,2.7,1.8c1.5,0,2.7-0.4,2.7-1.8"/>
								</g>
								<g>
									<path class="st6" d="M192.1,55.9c0-1.5-1.2-1.8-2.7-1.8s-2.7,0.4-2.7,1.8"/>
									<path class="st6" d="M181.2,55.6c0,1.5,1.2,1.8,2.7,1.8c1.5,0,2.7-0.4,2.7-1.8"/>
								</g>
							</g>
						</g>
						<g>
							<g>
								<g>
									<path class="st6" d="M181.2,55.9c0-1.5-1.2-1.8-2.7-1.8c-1.5,0-2.7,0.4-2.7,1.8"/>
									<path class="st6" d="M170.4,55.6c0,1.5,1.2,1.8,2.7,1.8s2.7-0.4,2.7-1.8"/>
								</g>
								<g>
									<path class="st6" d="M165,55.9c0-1.5,1.2-1.8,2.7-1.8s2.7,0.4,2.7,1.8"/>
									<path class="st6" d="M159.5,55.6c0,1.5,1.2,1.8,2.7,1.8c1.5,0,2.7-0.4,2.7-1.8"/>
								</g>
							</g>
							<g>
								<g>
									<path class="st6" d="M159.5,55.9c0-1.5-1.2-1.8-2.7-1.8s-2.7,0.4-2.7,1.8"/>
									<path class="st6" d="M148.7,55.6c0,1.5,1.2,1.8,2.7,1.8c1.5,0,2.7-0.4,2.7-1.8"/>
								</g>
								<g>
									<path class="st6" d="M148.7,55.9c0-1.5-1.2-1.8-2.7-1.8c-1.5,0-2.7,0.4-2.7,1.8"/>
									<path class="st6" d="M137.9,55.6c0,1.5,1.2,1.8,2.7,1.8s2.7-0.4,2.7-1.8"/>
								</g>
							</g>
						</g>
					</g>
					<g>
						<g>
							<g>
								<g>
									<path class="st6" d="M137.9,55.9c0-1.5-1.2-1.8-2.7-1.8s-2.7,0.4-2.7,1.8"/>
									<path class="st6" d="M127,55.6c0,1.5,1.2,1.8,2.7,1.8s2.7-0.4,2.7-1.8"/>
								</g>
								<g>
									<path class="st6" d="M127,55.9c0-1.5-1.2-1.8-2.7-1.8c-1.5,0-2.7,0.4-2.7,1.8"/>
									<path class="st6" d="M116.1,55.6c0,1.5,1.2,1.8,2.7,1.8s2.7-0.4,2.7-1.8"/>
								</g>
							</g>
							<g>
								<g>
									<path class="st6" d="M116.1,55.9c0-1.5-1.2-1.8-2.7-1.8s-2.7,0.4-2.7,1.8"/>
								</g>
							</g>
						</g>
					</g>
				</g>
			</g>
			<g>
				<g class="st5">
					<g>
						<g>
							<g>
								<g>
									<path class="st6" d="M224.6,97.2c0-1.5-1.2-1.8-2.7-1.8c-1.5,0-2.7,0.4-2.7,1.8"/>
									<path class="st6" d="M213.8,96.9c0,1.5,1.2,1.8,2.7,1.8s2.7-0.4,2.7-1.8"/>
								</g>
								<g>
									<path class="st6" d="M213.8,97.2c0-1.5-1.2-1.8-2.7-1.8s-2.7,0.4-2.7,1.8"/>
									<path class="st6" d="M202.9,96.9c0,1.5,1.2,1.8,2.7,1.8s2.7-0.4,2.7-1.8"/>
								</g>
							</g>
							<g>
								<g>
									<path class="st6" d="M202.9,97.2c0-1.5-1.2-1.8-2.7-1.8s-2.7,0.4-2.7,1.8"/>
									<path class="st6" d="M192.1,96.9c0,1.5,1.2,1.8,2.7,1.8c1.5,0,2.7-0.4,2.7-1.8"/>
								</g>
								<g>
									<path class="st6" d="M192.1,97.2c0-1.5-1.2-1.8-2.7-1.8s-2.7,0.4-2.7,1.8"/>
									<path class="st6" d="M181.2,96.9c0,1.5,1.2,1.8,2.7,1.8c1.5,0,2.7-0.4,2.7-1.8"/>
								</g>
							</g>
						</g>
						<g>
							<g>
								<g>
									<path class="st6" d="M181.2,97.2c0-1.5-1.2-1.8-2.7-1.8c-1.5,0-2.7,0.4-2.7,1.8"/>
									<path class="st6" d="M170.4,96.9c0,1.5,1.2,1.8,2.7,1.8s2.7-0.4,2.7-1.8"/>
								</g>
								<g>
									<path class="st6" d="M170.4,97.2c0-1.5-1.2-1.8-2.7-1.8c-1.5,0-2.7,0.4-2.7,1.8"/>
									<path class="st6" d="M159.5,96.9c0,1.5,1.2,1.8,2.7,1.8c1.5,0,2.7-0.4,2.7-1.8"/>
								</g>
							</g>
							<g>
								<g>
									<path class="st6" d="M159.5,97.2c0-1.5-1.2-1.8-2.7-1.8s-2.7,0.4-2.7,1.8"/>
									<path class="st6" d="M148.7,96.9c0,1.5,1.2,1.8,2.7,1.8c1.5,0,2.7-0.4,2.7-1.8"/>
								</g>
								<g>
									<path class="st6" d="M148.7,97.2c0-1.5-1.2-1.8-2.7-1.8c-1.5,0-2.7,0.4-2.7,1.8"/>
									<path class="st6" d="M137.9,96.9c0,1.5,1.2,1.8,2.7,1.8s2.7-0.4,2.7-1.8"/>
								</g>
							</g>
						</g>
					</g>
					<g>
						<g>
							<g>
								<g>
									<path class="st6" d="M137.9,97.2c0-1.5-1.2-1.8-2.7-1.8s-2.7,0.4-2.7,1.8"/>
									<path class="st6" d="M127,96.9c0,1.5,1.2,1.8,2.7,1.8s2.7-0.4,2.7-1.8"/>
								</g>
								<g>
									<path class="st6" d="M127,97.2c0-1.5-1.2-1.8-2.7-1.8c-1.5,0-2.7,0.4-2.7,1.8"/>
									<path class="st6" d="M116.1,96.9c0,1.5,1.2,1.8,2.7,1.8s2.7-0.4,2.7-1.8"/>
								</g>
							</g>
							<g>
								<g>
									<path class="st6" d="M116.1,97.2c0-1.5-1.2-1.8-2.7-1.8s-2.7,0.4-2.7,1.8"/>
								</g>
							</g>
						</g>
					</g>
				</g>
				<g class="st5">
					<g>
						<g>
							<g>
								<g>
									<path class="st6" d="M224.6,60.6c0-1.5-1.2-1.8-2.7-1.8c-1.5,0-2.7,0.4-2.7,1.8"/>
									<path class="st6" d="M213.8,60.4c0,1.5,1.2,1.8,2.7,1.8s2.7-0.4,2.7-1.8"/>
								</g>
								<g>
									<path class="st6" d="M213.8,60.6c0-1.5-1.2-1.8-2.7-1.8s-2.7,0.4-2.7,1.8"/>
									<path class="st6" d="M202.9,60.4c0,1.5,1.2,1.8,2.7,1.8s2.7-0.4,2.7-1.8"/>
								</g>
							</g>
							<g>
								<g>
									<path class="st6" d="M202.9,60.6c0-1.5-1.2-1.8-2.7-1.8s-2.7,0.4-2.7,1.8"/>
									<path class="st6" d="M192.1,60.4c0,1.5,1.2,1.8,2.7,1.8c1.5,0,2.7-0.4,2.7-1.8"/>
								</g>
								<g>
									<path class="st6" d="M192.1,60.6c0-1.5-1.2-1.8-2.7-1.8s-2.7,0.4-2.7,1.8"/>
									<path class="st6" d="M181.2,60.4c0,1.5,1.2,1.8,2.7,1.8c1.5,0,2.7-0.4,2.7-1.8"/>
								</g>
							</g>
						</g>
						<g>
							<g>
								<g>
									<path class="st6" d="M181.2,60.6c0-1.5-1.2-1.8-2.7-1.8c-1.5,0-2.7,0.4-2.7,1.8"/>
									<path class="st6" d="M170.4,60.4c0,1.5,1.2,1.8,2.7,1.8s2.7-0.4,2.7-1.8"/>
								</g>
								<g>
									<path class="st6" d="M170.4,60.6c0-1.5-1.2-1.8-2.7-1.8c-1.5,0-2.7,0.4-2.7,1.8"/>
									<path class="st6" d="M159.5,60.4c0,1.5,1.2,1.8,2.7,1.8c1.5,0,2.7-0.4,2.7-1.8"/>
								</g>
							</g>
							<g>
								<g>
									<path class="st6" d="M159.5,60.6c0-1.5-1.2-1.8-2.7-1.8s-2.7,0.4-2.7,1.8"/>
									<path class="st6" d="M148.7,60.4c0,1.5,1.2,1.8,2.7,1.8c1.5,0,2.7-0.4,2.7-1.8"/>
								</g>
								<g>
									<path class="st6" d="M148.7,60.6c0-1.5-1.2-1.8-2.7-1.8c-1.5,0-2.7,0.4-2.7,1.8"/>
									<path class="st6" d="M137.9,60.4c0,1.5,1.2,1.8,2.7,1.8s2.7-0.4,2.7-1.8"/>
								</g>
							</g>
						</g>
					</g>
					<g>
						<g>
							<g>
								<g>
									<path class="st6" d="M137.9,60.6c0-1.5-1.2-1.8-2.7-1.8s-2.7,0.4-2.7,1.8"/>
									<path class="st6" d="M127,60.4c0,1.5,1.2,1.8,2.7,1.8s2.7-0.4,2.7-1.8"/>
								</g>
								<g>
									<path class="st6" d="M127,60.6c0-1.5-1.2-1.8-2.7-1.8c-1.5,0-2.7,0.4-2.7,1.8"/>
									<path class="st6" d="M116.1,60.4c0,1.5,1.2,1.8,2.7,1.8s2.7-0.4,2.7-1.8"/>
								</g>
							</g>
							<g>
								<g>
									<path class="st6" d="M116.1,60.6c0-1.5-1.2-1.8-2.7-1.8s-2.7,0.4-2.7,1.8"/>
								</g>
							</g>
						</g>
					</g>
				</g>
				<g class="st5">
					<g>
						<g>
							<g>
								<g>
									<path class="st6" d="M224.6,106.4c0-1.5-1.2-1.8-2.7-1.8c-1.5,0-2.7,0.4-2.7,1.8"/>
									<path class="st6" d="M213.8,106.1c0,1.5,1.2,1.8,2.7,1.8s2.7-0.4,2.7-1.8"/>
								</g>
								<g>
									<path class="st6" d="M213.8,106.4c0-1.5-1.2-1.8-2.7-1.8s-2.7,0.4-2.7,1.8"/>
									<path class="st6" d="M202.9,106.1c0,1.5,1.2,1.8,2.7,1.8s2.7-0.4,2.7-1.8"/>
								</g>
							</g>
							<g>
								<g>
									<path class="st6" d="M202.9,106.4c0-1.5-1.2-1.8-2.7-1.8s-2.7,0.4-2.7,1.8"/>
									<path class="st6" d="M192.1,106.1c0,1.5,1.2,1.8,2.7,1.8c1.5,0,2.7-0.4,2.7-1.8"/>
								</g>
								<g>
									<path class="st6" d="M192.1,106.4c0-1.5-1.2-1.8-2.7-1.8s-2.7,0.4-2.7,1.8"/>
									<path class="st6" d="M181.2,106.1c0,1.5,1.2,1.8,2.7,1.8c1.5,0,2.7-0.4,2.7-1.8"/>
								</g>
							</g>
						</g>
						<g>
							<g>
								<g>
									<path class="st6" d="M181.2,106.4c0-1.5-1.2-1.8-2.7-1.8c-1.5,0-2.7,0.4-2.7,1.8"/>
									<path class="st6" d="M170.4,106.1c0,1.5,1.2,1.8,2.7,1.8s2.7-0.4,2.7-1.8"/>
								</g>
								<g>
									<path class="st6" d="M170.4,106.4c0-1.5-1.2-1.8-2.7-1.8c-1.5,0-2.7,0.4-2.7,1.8"/>
									<path class="st6" d="M159.5,106.1c0,1.5,1.2,1.8,2.7,1.8c1.5,0,2.7-0.4,2.7-1.8"/>
								</g>
							</g>
							<g>
								<g>
									<path class="st6" d="M159.5,106.4c0-1.5-1.2-1.8-2.7-1.8s-2.7,0.4-2.7,1.8"/>
									<path class="st6" d="M148.7,106.1c0,1.5,1.2,1.8,2.7,1.8c1.5,0,2.7-0.4,2.7-1.8"/>
								</g>
								<g>
									<path class="st6" d="M148.7,106.4c0-1.5-1.2-1.8-2.7-1.8c-1.5,0-2.7,0.4-2.7,1.8"/>
									<path class="st6" d="M137.9,106.1c0,1.5,1.2,1.8,2.7,1.8s2.7-0.4,2.7-1.8"/>
								</g>
							</g>
						</g>
					</g>
					<g>
						<g>
							<g>
								<g>
									<path class="st6" d="M137.9,106.4c0-1.5-1.2-1.8-2.7-1.8s-2.7,0.4-2.7,1.8"/>
									<path class="st6" d="M127,106.1c0,1.5,1.2,1.8,2.7,1.8s2.7-0.4,2.7-1.8"/>
								</g>
								<g>
									<path class="st6" d="M127,106.4c0-1.5-1.2-1.8-2.7-1.8c-1.5,0-2.7,0.4-2.7,1.8"/>
									<path class="st6" d="M116.1,106.1c0,1.5,1.2,1.8,2.7,1.8s2.7-0.4,2.7-1.8"/>
								</g>
							</g>
							<g>
								<g>
									<path class="st6" d="M116.1,106.4c0-1.5-1.2-1.8-2.7-1.8s-2.7,0.4-2.7,1.8"/>
								</g>
							</g>
						</g>
					</g>
				</g>
				<g class="st5">
					<g>
						<g>
							<g>
								<g>
									<path class="st6" d="M224.6,69.8c0-1.5-1.2-1.8-2.7-1.8c-1.5,0-2.7,0.4-2.7,1.8"/>
									<path class="st6" d="M213.8,69.5c0,1.5,1.2,1.8,2.7,1.8s2.7-0.4,2.7-1.8"/>
								</g>
								<g>
									<path class="st6" d="M213.8,69.8c0-1.5-1.2-1.8-2.7-1.8s-2.7,0.4-2.7,1.8"/>
									<path class="st6" d="M202.9,69.5c0,1.5,1.2,1.8,2.7,1.8s2.7-0.4,2.7-1.8"/>
								</g>
							</g>
							<g>
								<g>
									<path class="st6" d="M202.9,69.8c0-1.5-1.2-1.8-2.7-1.8s-2.7,0.4-2.7,1.8"/>
									<path class="st6" d="M192.1,69.5c0,1.5,1.2,1.8,2.7,1.8c1.5,0,2.7-0.4,2.7-1.8"/>
								</g>
								<g>
									<path class="st6" d="M192.1,69.8c0-1.5-1.2-1.8-2.7-1.8s-2.7,0.4-2.7,1.8"/>
									<path class="st6" d="M181.2,69.5c0,1.5,1.2,1.8,2.7,1.8c1.5,0,2.7-0.4,2.7-1.8"/>
								</g>
							</g>
						</g>
						<g>
							<g>
								<g>
									<path class="st6" d="M181.2,69.8c0-1.5-1.2-1.8-2.7-1.8c-1.5,0-2.7,0.4-2.7,1.8"/>
									<path class="st6" d="M170.4,69.5c0,1.5,1.2,1.8,2.7,1.8s2.7-0.4,2.7-1.8"/>
								</g>
								<g>
									<path class="st6" d="M170.4,69.8c0-1.5-1.2-1.8-2.7-1.8c-1.5,0-2.7,0.4-2.7,1.8"/>
									<path class="st6" d="M159.5,69.5c0,1.5,1.2,1.8,2.7,1.8c1.5,0,2.7-0.4,2.7-1.8"/>
								</g>
							</g>
							<g>
								<g>
									<path class="st6" d="M159.5,69.8c0-1.5-1.2-1.8-2.7-1.8s-2.7,0.4-2.7,1.8"/>
									<path class="st6" d="M148.7,69.5c0,1.5,1.2,1.8,2.7,1.8c1.5,0,2.7-0.4,2.7-1.8"/>
								</g>
								<g>
									<path class="st6" d="M148.7,69.8c0-1.5-1.2-1.8-2.7-1.8c-1.5,0-2.7,0.4-2.7,1.8"/>
									<path class="st6" d="M137.9,69.5c0,1.5,1.2,1.8,2.7,1.8s2.7-0.4,2.7-1.8"/>
								</g>
							</g>
						</g>
					</g>
					<g>
						<g>
							<g>
								<g>
									<path class="st6" d="M137.9,69.8c0-1.5-1.2-1.8-2.7-1.8s-2.7,0.4-2.7,1.8"/>
									<path class="st6" d="M127,69.5c0,1.5,1.2,1.8,2.7,1.8s2.7-0.4,2.7-1.8"/>
								</g>
								<g>
									<path class="st6" d="M127,69.8c0-1.5-1.2-1.8-2.7-1.8c-1.5,0-2.7,0.4-2.7,1.8"/>
									<path class="st6" d="M116.1,69.5c0,1.5,1.2,1.8,2.7,1.8s2.7-0.4,2.7-1.8"/>
								</g>
							</g>
							<g>
								<g>
									<path class="st6" d="M116.1,69.8c0-1.5-1.2-1.8-2.7-1.8s-2.7,0.4-2.7,1.8"/>
								</g>
							</g>
						</g>
					</g>
				</g>
				<g class="st5">
					<g>
						<g>
							<g>
								<g>
									<path class="st6" d="M224.6,115.5c0-1.5-1.2-1.8-2.7-1.8c-1.5,0-2.7,0.4-2.7,1.8"/>
									<path class="st6" d="M213.8,115.2c0,1.5,1.2,1.8,2.7,1.8s2.7-0.4,2.7-1.8"/>
								</g>
								<g>
									<path class="st6" d="M213.8,115.5c0-1.5-1.2-1.8-2.7-1.8s-2.7,0.4-2.7,1.8"/>
									<path class="st6" d="M202.9,115.2c0,1.5,1.2,1.8,2.7,1.8s2.7-0.4,2.7-1.8"/>
								</g>
							</g>
							<g>
								<g>
									<path class="st6" d="M202.9,115.5c0-1.5-1.2-1.8-2.7-1.8s-2.7,0.4-2.7,1.8"/>
									<path class="st6" d="M192.1,115.2c0,1.5,1.2,1.8,2.7,1.8c1.5,0,2.7-0.4,2.7-1.8"/>
								</g>
								<g>
									<path class="st6" d="M192.1,115.5c0-1.5-1.2-1.8-2.7-1.8s-2.7,0.4-2.7,1.8"/>
									<path class="st6" d="M181.2,115.2c0,1.5,1.2,1.8,2.7,1.8c1.5,0,2.7-0.4,2.7-1.8"/>
								</g>
							</g>
						</g>
						<g>
							<g>
								<g>
									<path class="st6" d="M181.2,115.5c0-1.5-1.2-1.8-2.7-1.8c-1.5,0-2.7,0.4-2.7,1.8"/>
									<path class="st6" d="M170.4,115.2c0,1.5,1.2,1.8,2.7,1.8s2.7-0.4,2.7-1.8"/>
								</g>
								<g>
									<path class="st6" d="M170.4,115.5c0-1.5-1.2-1.8-2.7-1.8c-1.5,0-2.7,0.4-2.7,1.8"/>
									<path class="st6" d="M159.5,115.2c0,1.5,1.2,1.8,2.7,1.8c1.5,0,2.7-0.4,2.7-1.8"/>
								</g>
							</g>
							<g>
								<g>
									<path class="st6" d="M159.5,115.5c0-1.5-1.2-1.8-2.7-1.8s-2.7,0.4-2.7,1.8"/>
									<path class="st6" d="M148.7,115.2c0,1.5,1.2,1.8,2.7,1.8c1.5,0,2.7-0.4,2.7-1.8"/>
								</g>
								<g>
									<path class="st6" d="M148.7,115.5c0-1.5-1.2-1.8-2.7-1.8c-1.5,0-2.7,0.4-2.7,1.8"/>
									<path class="st6" d="M137.9,115.2c0,1.5,1.2,1.8,2.7,1.8s2.7-0.4,2.7-1.8"/>
								</g>
							</g>
						</g>
					</g>
					<g>
						<g>
							<g>
								<g>
									<path class="st6" d="M137.9,115.5c0-1.5-1.2-1.8-2.7-1.8s-2.7,0.4-2.7,1.8"/>
									<path class="st6" d="M127,115.2c0,1.5,1.2,1.8,2.7,1.8s2.7-0.4,2.7-1.8"/>
								</g>
								<g>
									<path class="st6" d="M127,115.5c0-1.5-1.2-1.8-2.7-1.8c-1.5,0-2.7,0.4-2.7,1.8"/>
									<path class="st6" d="M116.1,115.2c0,1.5,1.2,1.8,2.7,1.8s2.7-0.4,2.7-1.8"/>
								</g>
							</g>
							<g>
								<g>
									<path class="st6" d="M116.1,115.5c0-1.5-1.2-1.8-2.7-1.8s-2.7,0.4-2.7,1.8"/>
								</g>
							</g>
						</g>
					</g>
				</g>
				<g class="st5">
					<g>
						<g>
							<g>
								<g>
									<path class="st6" d="M224.6,78.9c0-1.5-1.2-1.8-2.7-1.8c-1.5,0-2.7,0.4-2.7,1.8"/>
									<path class="st6" d="M213.8,78.6c0,1.5,1.2,1.8,2.7,1.8s2.7-0.4,2.7-1.8"/>
								</g>
								<g>
									<path class="st6" d="M213.8,78.9c0-1.5-1.2-1.8-2.7-1.8s-2.7,0.4-2.7,1.8"/>
									<path class="st6" d="M202.9,78.6c0,1.5,1.2,1.8,2.7,1.8s2.7-0.4,2.7-1.8"/>
								</g>
							</g>
							<g>
								<g>
									<path class="st6" d="M202.9,78.9c0-1.5-1.2-1.8-2.7-1.8s-2.7,0.4-2.7,1.8"/>
									<path class="st6" d="M192.1,78.6c0,1.5,1.2,1.8,2.7,1.8c1.5,0,2.7-0.4,2.7-1.8"/>
								</g>
								<g>
									<path class="st6" d="M192.1,78.9c0-1.5-1.2-1.8-2.7-1.8s-2.7,0.4-2.7,1.8"/>
									<path class="st6" d="M181.2,78.6c0,1.5,1.2,1.8,2.7,1.8c1.5,0,2.7-0.4,2.7-1.8"/>
								</g>
							</g>
						</g>
						<g>
							<g>
								<g>
									<path class="st6" d="M181.2,78.9c0-1.5-1.2-1.8-2.7-1.8c-1.5,0-2.7,0.4-2.7,1.8"/>
									<path class="st6" d="M170.4,78.6c0,1.5,1.2,1.8,2.7,1.8s2.7-0.4,2.7-1.8"/>
								</g>
								<g>
									<path class="st6" d="M170.4,78.9c0-1.5-1.2-1.8-2.7-1.8c-1.5,0-2.7,0.4-2.7,1.8"/>
									<path class="st6" d="M159.5,78.6c0,1.5,1.2,1.8,2.7,1.8c1.5,0,2.7-0.4,2.7-1.8"/>
								</g>
							</g>
							<g>
								<g>
									<path class="st6" d="M159.5,78.9c0-1.5-1.2-1.8-2.7-1.8s-2.7,0.4-2.7,1.8"/>
									<path class="st6" d="M148.7,78.6c0,1.5,1.2,1.8,2.7,1.8c1.5,0,2.7-0.4,2.7-1.8"/>
								</g>
								<g>
									<path class="st6" d="M148.7,78.9c0-1.5-1.2-1.8-2.7-1.8c-1.5,0-2.7,0.4-2.7,1.8"/>
									<path class="st6" d="M137.9,78.6c0,1.5,1.2,1.8,2.7,1.8s2.7-0.4,2.7-1.8"/>
								</g>
							</g>
						</g>
					</g>
					<g>
						<g>
							<g>
								<g>
									<path class="st6" d="M137.9,78.9c0-1.5-1.2-1.8-2.7-1.8s-2.7,0.4-2.7,1.8"/>
									<path class="st6" d="M127,78.6c0,1.5,1.2,1.8,2.7,1.8s2.7-0.4,2.7-1.8"/>
								</g>
								<g>
									<path class="st6" d="M127,78.9c0-1.5-1.2-1.8-2.7-1.8c-1.5,0-2.7,0.4-2.7,1.8"/>
									<path class="st6" d="M116.1,78.6c0,1.5,1.2,1.8,2.7,1.8s2.7-0.4,2.7-1.8"/>
								</g>
							</g>
							<g>
								<g>
									<path class="st6" d="M116.1,78.9c0-1.5-1.2-1.8-2.7-1.8s-2.7,0.4-2.7,1.8"/>
								</g>
							</g>
						</g>
					</g>
				</g>
				<g class="st5">
					<g>
						<g>
							<g>
								<g>
									<path class="st6" d="M224.6,124.6c0-1.5-1.2-1.8-2.7-1.8c-1.5,0-2.7,0.4-2.7,1.8"/>
									<path class="st6" d="M213.8,124.3c0,1.5,1.2,1.8,2.7,1.8s2.7-0.4,2.7-1.8"/>
								</g>
								<g>
									<path class="st6" d="M213.8,124.6c0-1.5-1.2-1.8-2.7-1.8s-2.7,0.4-2.7,1.8"/>
									<path class="st6" d="M202.9,124.3c0,1.5,1.2,1.8,2.7,1.8s2.7-0.4,2.7-1.8"/>
								</g>
							</g>
							<g>
								<g>
									<path class="st6" d="M202.9,124.6c0-1.5-1.2-1.8-2.7-1.8s-2.7,0.4-2.7,1.8"/>
									<path class="st6" d="M192.1,124.3c0,1.5,1.2,1.8,2.7,1.8c1.5,0,2.7-0.4,2.7-1.8"/>
								</g>
								<g>
									<path class="st6" d="M192.1,124.6c0-1.5-1.2-1.8-2.7-1.8s-2.7,0.4-2.7,1.8"/>
									<path class="st6" d="M181.2,124.3c0,1.5,1.2,1.8,2.7,1.8c1.5,0,2.7-0.4,2.7-1.8"/>
								</g>
							</g>
						</g>
						<g>
							<g>
								<g>
									<path class="st6" d="M181.2,124.6c0-1.5-1.2-1.8-2.7-1.8c-1.5,0-2.7,0.4-2.7,1.8"/>
									<path class="st6" d="M170.4,124.3c0,1.5,1.2,1.8,2.7,1.8s2.7-0.4,2.7-1.8"/>
								</g>
								<g>
									<path class="st6" d="M170.4,124.6c0-1.5-1.2-1.8-2.7-1.8c-1.5,0-2.7,0.4-2.7,1.8"/>
									<path class="st6" d="M159.5,124.3c0,1.5,1.2,1.8,2.7,1.8c1.5,0,2.7-0.4,2.7-1.8"/>
								</g>
							</g>
							<g>
								<g>
									<path class="st6" d="M159.5,124.6c0-1.5-1.2-1.8-2.7-1.8s-2.7,0.4-2.7,1.8"/>
									<path class="st6" d="M148.7,124.3c0,1.5,1.2,1.8,2.7,1.8c1.5,0,2.7-0.4,2.7-1.8"/>
								</g>
								<g>
									<path class="st6" d="M148.7,124.6c0-1.5-1.2-1.8-2.7-1.8c-1.5,0-2.7,0.4-2.7,1.8"/>
									<path class="st6" d="M137.9,124.3c0,1.5,1.2,1.8,2.7,1.8s2.7-0.4,2.7-1.8"/>
								</g>
							</g>
						</g>
					</g>
					<g>
						<g>
							<g>
								<g>
									<path class="st6" d="M137.9,124.6c0-1.5-1.2-1.8-2.7-1.8s-2.7,0.4-2.7,1.8"/>
									<path class="st6" d="M127,124.3c0,1.5,1.2,1.8,2.7,1.8s2.7-0.4,2.7-1.8"/>
								</g>
								<g>
									<path class="st6" d="M127,124.6c0-1.5-1.2-1.8-2.7-1.8c-1.5,0-2.7,0.4-2.7,1.8"/>
									<path class="st6" d="M116.1,124.3c0,1.5,1.2,1.8,2.7,1.8s2.7-0.4,2.7-1.8"/>
								</g>
							</g>
							<g>
								<g>
									<path class="st6" d="M116.1,124.6c0-1.5-1.2-1.8-2.7-1.8s-2.7,0.4-2.7,1.8"/>
								</g>
							</g>
						</g>
					</g>
				</g>
				<g class="st5">
					<g>
						<g>
							<g>
								<g>
									<path class="st6" d="M224.6,88c0-1.5-1.2-1.8-2.7-1.8c-1.5,0-2.7,0.4-2.7,1.8"/>
									<path class="st6" d="M213.8,87.7c0,1.5,1.2,1.8,2.7,1.8s2.7-0.4,2.7-1.8"/>
								</g>
								<g>
									<path class="st6" d="M213.8,88c0-1.5-1.2-1.8-2.7-1.8s-2.7,0.4-2.7,1.8"/>
									<path class="st6" d="M202.9,87.7c0,1.5,1.2,1.8,2.7,1.8s2.7-0.4,2.7-1.8"/>
								</g>
							</g>
							<g>
								<g>
									<path class="st6" d="M202.9,88c0-1.5-1.2-1.8-2.7-1.8s-2.7,0.4-2.7,1.8"/>
									<path class="st6" d="M192.1,87.7c0,1.5,1.2,1.8,2.7,1.8c1.5,0,2.7-0.4,2.7-1.8"/>
								</g>
								<g>
									<path class="st6" d="M192.1,88c0-1.5-1.2-1.8-2.7-1.8s-2.7,0.4-2.7,1.8"/>
									<path class="st6" d="M181.2,87.7c0,1.5,1.2,1.8,2.7,1.8c1.5,0,2.7-0.4,2.7-1.8"/>
								</g>
							</g>
						</g>
						<g>
							<g>
								<g>
									<path class="st6" d="M181.2,88c0-1.5-1.2-1.8-2.7-1.8c-1.5,0-2.7,0.4-2.7,1.8"/>
									<path class="st6" d="M170.4,87.7c0,1.5,1.2,1.8,2.7,1.8s2.7-0.4,2.7-1.8"/>
								</g>
								<g>
									<path class="st6" d="M170.4,88c0-1.5-1.2-1.8-2.7-1.8c-1.5,0-2.7,0.4-2.7,1.8"/>
									<path class="st6" d="M159.5,87.7c0,1.5,1.2,1.8,2.7,1.8c1.5,0,2.7-0.4,2.7-1.8"/>
								</g>
							</g>
							<g>
								<g>
									<path class="st6" d="M159.5,88c0-1.5-1.2-1.8-2.7-1.8s-2.7,0.4-2.7,1.8"/>
									<path class="st6" d="M148.7,87.7c0,1.5,1.2,1.8,2.7,1.8c1.5,0,2.7-0.4,2.7-1.8"/>
								</g>
								<g>
									<path class="st6" d="M148.7,88c0-1.5-1.2-1.8-2.7-1.8c-1.5,0-2.7,0.4-2.7,1.8"/>
									<path class="st6" d="M137.9,87.7c0,1.5,1.2,1.8,2.7,1.8s2.7-0.4,2.7-1.8"/>
								</g>
							</g>
						</g>
					</g>
					<g>
						<g>
							<g>
								<g>
									<path class="st6" d="M137.9,88c0-1.5-1.2-1.8-2.7-1.8s-2.7,0.4-2.7,1.8"/>
									<path class="st6" d="M127,87.7c0,1.5,1.2,1.8,2.7,1.8s2.7-0.4,2.7-1.8"/>
								</g>
								<g>
									<path class="st6" d="M127,88c0-1.5-1.2-1.8-2.7-1.8c-1.5,0-2.7,0.4-2.7,1.8"/>
									<path class="st6" d="M116.1,87.7c0,1.5,1.2,1.8,2.7,1.8s2.7-0.4,2.7-1.8"/>
								</g>
							</g>
							<g>
								<g>
									<path class="st6" d="M116.1,88c0-1.5-1.2-1.8-2.7-1.8s-2.7,0.4-2.7,1.8"/>
								</g>
							</g>
						</g>
					</g>
				</g>
				<g class="st5">
					<g>
						<g>
							<g>
								<g>
									<path class="st6" d="M224.6,133.7c0-1.5-1.2-1.8-2.7-1.8c-1.5,0-2.7,0.4-2.7,1.8"/>
									<path class="st6" d="M213.8,133.5c0,1.5,1.2,1.8,2.7,1.8s2.7-0.4,2.7-1.8"/>
								</g>
								<g>
									<path class="st6" d="M213.8,133.7c0-1.5-1.2-1.8-2.7-1.8s-2.7,0.4-2.7,1.8"/>
									<path class="st6" d="M202.9,133.5c0,1.5,1.2,1.8,2.7,1.8s2.7-0.4,2.7-1.8"/>
								</g>
							</g>
							<g>
								<g>
									<path class="st6" d="M202.9,133.7c0-1.5-1.2-1.8-2.7-1.8s-2.7,0.4-2.7,1.8"/>
									<path class="st6" d="M192.1,133.5c0,1.5,1.2,1.8,2.7,1.8c1.5,0,2.7-0.4,2.7-1.8"/>
								</g>
								<g>
									<path class="st6" d="M192.1,133.7c0-1.5-1.2-1.8-2.7-1.8s-2.7,0.4-2.7,1.8"/>
									<path class="st6" d="M181.2,133.5c0,1.5,1.2,1.8,2.7,1.8c1.5,0,2.7-0.4,2.7-1.8"/>
								</g>
							</g>
						</g>
						<g>
							<g>
								<g>
									<path class="st6" d="M181.2,133.7c0-1.5-1.2-1.8-2.7-1.8c-1.5,0-2.7,0.4-2.7,1.8"/>
									<path class="st6" d="M170.4,133.5c0,1.5,1.2,1.8,2.7,1.8s2.7-0.4,2.7-1.8"/>
								</g>
								<g>
									<path class="st6" d="M170.4,133.7c0-1.5-1.2-1.8-2.7-1.8c-1.5,0-2.7,0.4-2.7,1.8"/>
									<path class="st6" d="M159.5,133.5c0,1.5,1.2,1.8,2.7,1.8c1.5,0,2.7-0.4,2.7-1.8"/>
								</g>
							</g>
							<g>
								<g>
									<path class="st6" d="M159.5,133.7c0-1.5-1.2-1.8-2.7-1.8s-2.7,0.4-2.7,1.8"/>
									<path class="st6" d="M148.7,133.5c0,1.5,1.2,1.8,2.7,1.8c1.5,0,2.7-0.4,2.7-1.8"/>
								</g>
								<g>
									<path class="st6" d="M148.7,133.7c0-1.5-1.2-1.8-2.7-1.8c-1.5,0-2.7,0.4-2.7,1.8"/>
									<path class="st6" d="M137.9,133.5c0,1.5,1.2,1.8,2.7,1.8s2.7-0.4,2.7-1.8"/>
								</g>
							</g>
						</g>
					</g>
					<g>
						<g>
							<g>
								<g>
									<path class="st6" d="M137.9,133.7c0-1.5-1.2-1.8-2.7-1.8s-2.7,0.4-2.7,1.8"/>
									<path class="st6" d="M127,133.5c0,1.5,1.2,1.8,2.7,1.8s2.7-0.4,2.7-1.8"/>
								</g>
								<g>
									<path class="st6" d="M127,133.7c0-1.5-1.2-1.8-2.7-1.8c-1.5,0-2.7,0.4-2.7,1.8"/>
									<path class="st6" d="M116.1,133.5c0,1.5,1.2,1.8,2.7,1.8s2.7-0.4,2.7-1.8"/>
								</g>
							</g>
							<g>
								<g>
									<path class="st6" d="M116.1,133.7c0-1.5-1.2-1.8-2.7-1.8s-2.7,0.4-2.7,1.8"/>
								</g>
							</g>
						</g>
					</g>
				</g>
			</g>
		</g>
		<circle class="st7" cx="135.4" cy="79.6" r="4.2"/>
		<circle class="st7" cx="202.6" cy="79.6" r="4.2"/>
		<path class="st8" d="M137.1,92.8c0,13.2,14.1,23.9,31.4,23.9s31.4-10.7,31.4-23.9"/>
		<g>
			<g>
				<rect x="105.7" y="265.1" class="st2" width="24.5" height="89.1"/>
				<rect x="205.3" y="265.1" class="st2" width="24.5" height="89.1"/>
			</g>
			<path class="st3" d="M205.3,265.9v31h24.5v-31H205.3z M105.7,296.9h24.5v-31h-24.5V296.9z"/>
			<g>
				<rect x="235.9" y="191.8" class="st2" width="45.8" height="25.8"/>
				<rect x="53.5" y="191.8" class="st2" width="46.4" height="25.8"/>
			</g>
			<g>
				<path class="st4" d="M144.5,358.4v1.3c0,7.8-6.4,14.2-14.2,14.2h-24.6c-7.8,0-14.2-6.4-14.2-14.2v-1.3c0-7.8,6.4-14.2,14.2-14.2
					l0,0h24.5l0,0C138.2,344.2,144.5,350.6,144.5,358.4z"/>
				<path class="st4" d="M244,358.4v1.3c0,7.8-6.4,14.2-14.2,14.2h-24.5c-7.8,0-14.2-6.4-14.2-14.2v-1.3c0-7.8,6.4-14.2,14.2-14.2
					l0,0h24.5l0,0C237.6,344.2,244,350.6,244,358.4z"/>
				<path class="st4" d="M285.5,195.9v91.4c0,6.5-5.3,11.7-11.7,11.7l0,0c-6.5,0-11.7-5.3-11.7-11.7v-69.7v-25.8v-19.4l0,0
					C275,172.4,285.5,182.9,285.5,195.9z"/>
				<path class="st4" d="M73.5,145.8v69.7c0,6.5-5.3,11.7-11.7,11.7l0,0c-6.5,0-11.7-5.3-11.7-11.7v-91.4
					c0-12.9,10.5-23.4,23.4-23.4l0,0V120V145.8z"/>
			</g>
			<path class="st4" d="M247.2,217.6v47.6c0,5.3-4.3,9.7-9.7,9.7h-7.7l0,0h-24.5l0,0h-74.9l0,0h-24.6l0,0H98c-5.3,0-9.7-4.3-9.7-9.7
				v-47.6v-25.8v-9.7c0-5.3,4.3-9.7,9.7-9.7h22.6h94.3h22.6c5.3,0,9.7,4.3,9.7,9.7v9.7L247.2,217.6L247.2,217.6z"/>
			<g>
				<circle class="st9" cx="232" cy="187" r="6.3"/>
				<circle class="st9" cx="103.5" cy="187" r="6.3"/>
			</g>
			<g>
				<path class="st9" d="M235.8,203.9h-9.6c-1,0-1.8,0.8-1.8,1.8l0,0c0,1,0.8,1.8,1.8,1.8h9.6c1,0,1.8-0.8,1.8-1.8l0,0
					C237.5,204.7,236.7,203.9,235.8,203.9z"/>
				<path class="st9" d="M235.8,209.6h-9.6c-1,0-1.8,0.8-1.8,1.8l0,0c0,1,0.8,1.8,1.8,1.8h9.6c1,0,1.8-0.8,1.8-1.8l0,0
					C237.5,210.3,236.7,209.6,235.8,209.6z"/>
				<path class="st9" d="M235.8,215.2h-9.6c-1,0-1.8,0.8-1.8,1.8l0,0c0,1,0.8,1.8,1.8,1.8h9.6c1,0,1.8-0.8,1.8-1.8l0,0
					C237.5,216,236.7,215.2,235.8,215.2z"/>
			</g>
		</g>
		<g>
			<path id="SVGCleanerId_0" class="st10" d="M169.6,209.2c-17.5,0-31.7,14.3-31.7,31.7h17.6c0,7.8,6.4,14.1,14.1,14.1
				s14.1-6.4,14.1-14.1h17.6C201.3,223.5,187.1,209.2,169.6,209.2z"/>
			<g>
				<path id="SVGCleanerId_0_1_" class="st10" d="M169.6,209.2c-17.5,0-31.7,14.3-31.7,31.7h17.6c0,7.8,6.4,14.1,14.1,14.1
					s14.1-6.4,14.1-14.1h17.6C201.3,223.5,187.1,209.2,169.6,209.2z"/>
			</g>
			<g>
				<path class="st4" d="M197.8,241h7.1c0-19.4-15.8-35.3-35.3-35.3s-35.3,15.8-35.3,35.3h7.1c0-15.6,12.6-28.2,28.2-28.2
					S197.8,225.4,197.8,241z"/>
			</g>
			<path class="st9" d="M200.8,224.6c-1.1-2.1-2.5-4.1-4-6l-5.1,5.2l0,0L174.6,241h10l11-11l0,0L200.8,224.6z"/>
			<path class="st11" d="M200.3,210.2c-1.4-1.4-3.6-1.4-5,0l-24,24c-0.6-0.2-1.1-0.4-1.8-0.4c-3.9,0-7.1,3.1-7.1,7.1
				c0,3.9,3.1,7.1,7.1,7.1c4,0,7.1-3.1,7.1-7.1c0-0.6-0.2-1.2-0.4-1.8l24-24C201.7,213.9,201.7,211.6,200.3,210.2z"/>
		</g>
	</g>
	<g>
		<path class="st0" d="M274.5,101.4c-1.9,1.2-4.2,1.7-6.9,1.4l-0.6,2.7c-0.2,0.6-0.5,1.1-0.9,1.5c-0.5,0.3-1,0.4-1.7,0.3
			c-0.6-0.2-1.1-0.5-1.4-1c-0.3-0.5-0.4-1.1-0.2-1.8l0.6-2.6c-1.6-0.6-3-1.2-4.4-2.1c-1.4-0.9-2.5-1.9-3.4-3c-0.3-0.4-0.5-0.6-0.6-1
			c-0.1-0.4-0.1-0.7,0.1-1.2c0.2-0.6,0.5-1.1,0.9-1.5s0.9-0.5,1.4-0.4c0.3,0.1,0.6,0.2,0.7,0.4c0.2,0.2,0.5,0.4,0.8,0.7
			c1.1,1.1,2.2,2,3.3,2.8c1.1,0.6,2.4,1.2,3.8,1.5c1.8,0.5,3.4,0.5,4.6-0.1c1.2-0.5,1.9-1.4,2.3-2.8c0.2-0.8,0.1-1.6-0.4-2.2
			c-0.5-0.6-1-1.2-1.8-1.7c-0.7-0.5-1.8-1.1-3.3-1.8c-1.9-1-3.6-1.9-4.7-2.9c-1.2-0.8-2.1-1.9-2.8-3.3c-0.6-1.4-0.8-2.9-0.4-4.9
			c0.6-2.3,1.8-4,3.8-5.3c2-1.2,4.3-1.7,7.1-1.5l0.6-2.7c0.2-0.6,0.5-1.1,0.9-1.5c0.5-0.3,1-0.4,1.7-0.3c0.6,0.2,1.1,0.5,1.4,1
			c0.3,0.5,0.4,1.1,0.2,1.8l-0.6,2.6c2.8,1,5,2.6,6.5,4.8c0.6,0.6,0.7,1.4,0.6,2.2c-0.2,0.6-0.5,1.1-0.9,1.5
			c-0.5,0.4-0.9,0.5-1.4,0.4c-0.3-0.1-0.5-0.2-0.7-0.3c-0.2-0.2-0.5-0.4-0.8-0.7c-0.9-1.1-1.9-1.9-2.9-2.6c-0.9-0.6-2.1-1.1-3.5-1.5
			c-1.8-0.4-3.2-0.4-4.4,0.2s-2,1.5-2.3,2.8c-0.2,0.9-0.1,1.8,0.4,2.5s1.1,1.3,1.9,1.8c0.8,0.6,1.9,1.2,3.4,1.9
			c1.9,1,3.5,1.9,4.6,2.8c1.2,0.8,2,1.9,2.8,3.2c0.6,1.3,0.7,2.9,0.4,4.7C277.6,98.5,276.3,100.2,274.5,101.4z"/>
		<path class="st0" d="M301.7,97.3c0.6,1.5,0.7,3.1,0.3,5c-0.6,2.6-2,4.3-4.2,5.4c-2.2,1.1-5,1.2-8.1,0.5c-1.8-0.5-3.5-1.1-5.1-2.1
			c-1.6-0.9-2.8-2.1-3.7-3.3c-0.6-0.7-0.6-1.5-0.5-2.2c0.2-0.6,0.5-1.1,0.9-1.5c0.5-0.4,0.9-0.5,1.4-0.4c0.3,0.1,0.6,0.2,0.7,0.4
			c0.2,0.2,0.5,0.4,0.8,0.7c1,1.1,1.9,1.9,2.9,2.6c0.9,0.6,2.1,1.2,3.3,1.5c1.8,0.5,3.3,0.4,4.3-0.2c1.1-0.6,1.8-1.6,2.1-3
			c0.4-1.5,0.2-2.7-0.6-3.6c-0.7-0.9-2.1-1.7-4.1-2.1l-2.4-0.6c-0.6-0.2-1.1-0.5-1.3-1c-0.3-0.6-0.3-1-0.2-1.7
			c0.2-0.6,0.5-1,0.9-1.4c0.5-0.4,1-0.5,1.7-0.3l1.7,0.4c3.9,0.9,6.1-0.1,6.7-2.9c0.3-1.4,0.2-2.5-0.5-3.4c-0.6-0.9-1.7-1.6-3.1-1.8
			c-2-0.5-4.4-0.2-7.1,0.9c-0.5,0.1-0.8,0.2-1,0.3c-0.3,0-0.6,0-0.8,0c-0.5-0.1-0.8-0.5-1.1-0.9c-0.3-0.6-0.3-1.1-0.2-1.7
			c0.1-0.5,0.3-0.7,0.5-1c0.2-0.3,0.6-0.5,0.9-0.7c1.4-0.7,2.9-1.1,4.8-1.3c1.8-0.2,3.5-0.1,5.3,0.4c2.9,0.6,5.1,1.9,6.5,3.8
			c1.4,1.8,1.8,4,1.2,6.4c-0.4,1.7-1.2,2.9-2.3,4s-2.5,1.7-4.1,1.8C299.9,94.7,301.1,95.9,301.7,97.3z"/>
		<path class="st0" d="M328,103.6c0.6,1.5,0.7,3.1,0.3,5c-0.6,2.6-2.1,4.4-4.4,5.4c-2.3,1-5.2,1.1-8.7,0.3c-3.5-0.8-6-2.2-7.6-4.1
			c-1.7-1.9-2.1-4.2-1.5-6.8c0.5-1.8,1.3-3.2,2.5-4.3s2.8-1.6,4.6-1.7c-1.4-0.9-2.3-2-2.9-3.4c-0.6-1.4-0.6-2.9-0.3-4.5
			c0.6-2.5,1.9-4.1,4.1-5.2c2.2-1,4.9-1.1,8.1-0.4s5.6,2,7.1,4s1.9,4.1,1.4,6.5c-0.4,1.7-1.1,2.9-2.3,4c-1.1,1-2.5,1.6-4.1,1.8
			C326.2,100.9,327.4,102.1,328,103.6z M323.3,106.9c0.7-2.9-0.9-5-5-5.9c-4-0.9-6.4,0.1-7.1,3c-0.7,2.9,0.9,5,5,5.9
			S322.6,109.9,323.3,106.9z M315.1,91.2c-0.4,1.4-0.2,2.6,0.6,3.6c0.7,0.9,1.9,1.7,3.7,2c1.8,0.4,3.1,0.4,4.1-0.2s1.8-1.5,2.1-2.9
			c0.6-2.9-0.7-4.7-4.2-5.5C317.9,87.3,315.8,88.3,315.1,91.2z"/>
	</g>
</g>
</svg>
