<?xml version="1.0" encoding="utf-8"?>
<!-- Generator: Adobe Illustrator 22.0.1, SVG Export Plug-In . SVG Version: 6.00 Build 0)  -->
<svg version="1.1" id="Layer_1" xmlns="http://www.w3.org/2000/svg" xmlns:xlink="http://www.w3.org/1999/xlink" x="0px" y="0px"
	 viewBox="0 0 400 400" style="enable-background:new 0 0 400 400;" xml:space="preserve">
<style type="text/css">
	.st0{fill:#691869;}
	.st1{fill:#FFFFFF;}
	.st2{fill:#A0AAB4;}
	.st3{fill:#AEB9C1;}
	.st4{enable-background:new    ;}
	.st5{fill:#3D4449;}
	.st6{fill:none;stroke:#D6DEE4;stroke-width:2;stroke-linecap:round;stroke-linejoin:round;stroke-dasharray:1.0171,7.1194;}
	.st7{fill:#FCC62D;}
	.st8{fill:none;stroke:#F9DC39;stroke-width:2.2964;stroke-linecap:round;stroke-linejoin:round;stroke-dasharray:1.1678,8.1743;}
	.st9{fill:none;stroke:#D6DEE4;stroke-width:1.6793;stroke-linecap:round;stroke-linejoin:round;stroke-dasharray:0.854,5.9777;}
</style>
<g>
	<path class="st0" d="M172.6,192.2c-1-1-1.5-2.3-1.5-3.8c0-1.5,0.5-2.8,1.5-3.8c1-1,2.3-1.5,3.8-1.5h48.3c1.5,0,2.8,0.5,3.8,1.6
		c1,1,1.5,2.3,1.5,3.9c0,1.4-0.5,2.7-1.5,3.7c-1,1-2.3,1.5-3.8,1.5h-48.3C174.9,193.7,173.6,193.2,172.6,192.2z M172.6,216.4
		c-1-1-1.5-2.3-1.5-3.8c0-1.5,0.5-2.8,1.5-3.8c1-1,2.3-1.5,3.8-1.5h48.3c1.5,0,2.8,0.5,3.8,1.6c1,1,1.5,2.3,1.5,3.9
		c0,1.4-0.5,2.7-1.5,3.7c-1,1-2.3,1.5-3.8,1.5h-48.3C174.9,217.9,173.6,217.4,172.6,216.4z"/>
</g>
<g>
	<g>
		<circle class="st1" cx="318" cy="288" r="51.3"/>
		<path class="st1" d="M318,241.7c25.6,0,46.3,20.7,46.3,46.3c0,25.6-20.7,46.3-46.3,46.3s-46.3-20.7-46.3-46.3
			C271.8,262.4,292.5,241.7,318,241.7 M318,231.7c-31,0-56.3,25.2-56.3,56.3c0,31,25.2,56.3,56.3,56.3s56.3-25.2,56.3-56.3
			C374.3,257,349.1,231.7,318,231.7L318,231.7z"/>
	</g>
	<g>
		<path class="st1" d="M112,351.6c-21.4,0-38.8-17.4-38.8-38.8c0-3.9,0.6-7.7,1.7-11.4c-22.7-2.4-40.4-21.7-40.4-45
			c0-12,4.8-23.5,13.2-31.9c-15.5-9.1-25.2-25.7-25.2-44.2c0-17.8,9.1-34,23.9-43.3c-8.8-8.5-13.9-20.2-13.9-32.6
			c0-25,20.3-45.3,45.3-45.3s45.3,20.3,45.3,45.3c0,14.1-6.5,27.2-17.5,35.7c12.1,9.6,19.4,24.4,19.4,40.2c0,15.3-7,29.8-18.6,39.5
			c11.5,8.5,18.7,22.1,18.7,36.6c0,6.5-1.4,12.8-4,18.6c17.2,4,29.8,19.4,29.8,37.8C150.8,334.2,133.4,351.6,112,351.6z"/>
		<path class="st1" d="M77.8,64.1c22.2,0,40.3,18.1,40.3,40.3c0,15.4-8.7,28.9-21.5,35.6c14,8,23.5,23,23.5,40.2
			c0,17-9.1,31.8-22.7,39.8c13.5,6.5,22.8,20.4,22.8,36.3c0,8.4-2.6,16.2-6.9,22.6c18.2,0.6,32.7,15.5,32.7,33.8
			c0,18.7-15.1,33.8-33.8,33.8s-33.8-15.1-33.8-33.8c0-5.9,1.5-11.4,4.1-16.2c-0.8,0.1-1.7,0.1-2.5,0.1c-22.2,0-40.3-18.1-40.3-40.3
			c0-13.7,6.9-25.8,17.3-33.1c-17.2-6.8-29.3-23.5-29.3-43c0-19,11.5-35.3,27.9-42.5c-10.8-7.2-17.9-19.5-17.9-33.4
			C37.5,82.2,55.6,64.1,77.8,64.1 M77.8,54.1c-27.7,0-50.3,22.6-50.3,50.3c0,11.7,4.1,22.9,11.3,31.8
			c-13.3,10.5-21.3,26.7-21.3,44.1c0,11.5,3.5,22.6,10,32c3.5,5.1,7.8,9.5,12.7,13.1c-6.8,8.7-10.7,19.6-10.7,30.9
			c0,24,16.8,44.1,39.3,49.1c-0.4,2.4-0.6,4.9-0.6,7.3c0,24.2,19.7,43.8,43.8,43.8s43.8-19.7,43.8-43.8c0-11.5-4.4-22.3-12.4-30.5
			c-4.5-4.7-9.9-8.2-15.8-10.4c1.6-5,2.4-10.2,2.4-15.5c0-9.6-2.7-19-7.9-27.1c-2.3-3.6-5.1-6.9-8.2-9.8c10.1-10.4,16-24.5,16-39.3
			c0-15.3-6.2-29.7-16.9-40.1c9.4-9.3,14.9-22.1,14.9-35.8C128.1,76.6,105.5,54.1,77.8,54.1L77.8,54.1z"/>
	</g>
</g>
<g>
	<g>
		<g>
			<g>
				<path class="st2" d="M79.8,296.7c-22.2,0-40.3-18.1-40.3-40.3s18.1-40.3,40.3-40.3c22.2,0,40.3,18.1,40.3,40.3
					S102.1,296.7,79.8,296.7z"/>
			</g>
			<circle class="st3" cx="79.8" cy="256.4" r="26.4"/>
			<g>
				<g>
					<g class="st4">
						<path class="st5" d="M93.8,266.1c0,1.3-0.8,2-2.3,2H77.3c-0.7,0-1.2-0.2-1.5-0.6c-0.4-0.4-0.6-0.9-0.6-1.5
							c0-0.8,0.3-1.4,0.9-2l8.6-9.2c1.1-1.2,1.8-2.2,2.3-3.2c0.5-1,0.7-1.9,0.7-2.9c0-1.2-0.3-2.1-1-2.7c-0.7-0.6-1.6-0.9-2.9-0.9
							c-1,0-2,0.2-3,0.6c-1,0.4-1.9,0.9-2.9,1.6c-0.3,0.2-0.5,0.3-0.8,0.4c-0.3,0.1-0.5,0.2-0.8,0.2c-0.4,0-0.8-0.2-1.1-0.6
							c-0.3-0.4-0.5-0.9-0.5-1.4c0-0.4,0.1-0.7,0.2-1c0.1-0.3,0.4-0.5,0.7-0.8c1.1-0.9,2.4-1.6,3.9-2.1c1.5-0.5,3-0.8,4.4-0.8
							c2.6,0,4.6,0.7,6.2,2c1.5,1.3,2.3,3.1,2.3,5.3c0,1.5-0.3,3-1,4.3c-0.7,1.3-1.8,2.8-3.3,4.5l-6.5,6.9h9.9
							C93.1,264.2,93.8,264.8,93.8,266.1z"/>
					</g>
				</g>
			</g>
		</g>
		<g>
			<g>
				
					<ellipse transform="matrix(0.9871 -0.1602 0.1602 0.9871 -40.0407 16.0887)" class="st6" cx="79.8" cy="256.4" rx="32.4" ry="32.4"/>
			</g>
		</g>
	</g>
	<path id="XMLID_1_" class="st5" d="M67,265.1c-0.4,0-0.6-0.2-0.6-0.6v-0.8c-1.2-0.2-2-0.4-3-1.2v0.8c0,0.4-0.2,0.6-0.6,0.6
		s-0.6-0.2-0.6-0.6v-3.7c0-0.4,0.2-0.6,0.6-0.6s0.6,0.2,0.6,0.6v1.3c0.6,0.7,1.1,0.9,2.2,1.3c0.3,0.1,0.5,0.2,0.9,0.2v-5.7
		c-1.2-0.3-2-0.6-2.6-0.9c-0.6-0.3-1.1-0.7-1.5-1.2s-0.5-1-0.5-1.7c0-1.2,0.4-2.1,1.2-2.8c0.7-0.7,1.9-1,3.4-1.1v-0.8
		c0-0.4,0.2-0.6,0.6-0.6s0.6,0.2,0.6,0.6v0.9c1.1,0.2,2,0.6,2.8,1.1c0.2,0.1,0.1,0.3,0.2,0.4v-0.8c0-0.4,0.2-0.6,0.6-0.6
		s0.6,0.2,0.6,0.6v3.7c0,0.4-0.2,0.6-0.6,0.6s-0.6-0.2-0.6-0.6v-1.3c-0.7-0.7-1.3-1.3-2.2-1.7c-0.2-0.1-0.5-0.2-0.8-0.2v5.4
		c0.2,0,0.5,0.1,0.9,0.2c0.7,0.2,1.4,0.4,2,0.7c0.6,0.3,1.1,0.7,1.5,1.2s0.5,1.1,0.5,1.7c0,1.3-0.4,2.3-1.3,3
		c-0.8,0.7-2.1,1.1-3.6,1.1v0.8C67.6,264.9,67.3,265.1,67,265.1 M64.6,262.5c0.1,0,0.2,0.1,0.3,0.1
		C64.8,262.6,64.7,262.5,64.6,262.5 M67.6,257v5.5c1.2,0,2.2-0.3,2.8-0.8c0.7-0.5,1-1.2,1-2c0-0.4-0.1-0.8-0.4-1.1
		c-0.3-0.3-0.6-0.6-1.1-0.8c-0.4-0.2-0.9-0.4-1.4-0.5L67.6,257z M71,262c-0.1,0.1-0.2,0.2-0.3,0.2c-0.1,0.1-0.3,0.2-0.5,0.3
		c0.2-0.1,0.4-0.2,0.5-0.4C70.9,262.1,70.9,262,71,262 M66.4,250.3c-1.2,0-2,0.3-2.6,0.7c-0.6,0.5-0.9,1.1-0.9,1.8
		c0,0.4,0.1,0.8,0.4,1.1s0.6,0.6,1.1,0.8c0.4,0.2,0.9,0.4,1.3,0.5c0.2,0.1,0.5,0.1,0.7,0.2V250.3L66.4,250.3z"/>
</g>
<g>
	<g>
		<g>
			<circle class="st7" cx="73.7" cy="180.3" r="46.3"/>
		</g>
		<circle class="st3" cx="73.7" cy="180.3" r="30.3"/>
		<g>
			<g class="st4">
				<path class="st5" d="M85.4,175.5c1.5,0.8,2.6,2,3.4,3.4c0.8,1.5,1.2,3.2,1.2,5.1c0,2-0.5,3.7-1.4,5.3c-0.9,1.5-2.2,2.7-3.8,3.6
					c-1.7,0.9-3.6,1.3-5.7,1.3c-1.8,0-3.5-0.3-5.3-0.9c-1.7-0.6-3.2-1.4-4.4-2.4c-0.7-0.6-1-1.3-1-2c0-0.6,0.2-1.2,0.5-1.6
					c0.4-0.4,0.8-0.7,1.3-0.7c0.3,0,0.6,0.1,0.8,0.2c0.3,0.1,0.6,0.3,0.9,0.5c1.2,0.8,2.3,1.4,3.4,1.9c1.1,0.4,2.3,0.6,3.5,0.6
					c1.9,0,3.4-0.5,4.4-1.4c1-1,1.5-2.3,1.5-4.1c0-1.7-0.5-3-1.5-4c-1-1-2.4-1.5-4.2-1.5c-1.1,0-2.1,0.2-3,0.5
					c-0.9,0.3-1.8,0.9-2.7,1.6c-0.5,0.4-1.1,0.6-1.7,0.6c-0.6,0-1.1-0.2-1.5-0.5c-0.4-0.3-0.6-0.8-0.6-1.4v-13.5
					c0-0.8,0.2-1.4,0.7-1.9c0.5-0.5,1.1-0.7,1.9-0.7h14.4c1.7,0,2.6,0.7,2.6,2.2c0,1.4-0.9,2.2-2.6,2.2H74.9v8.2
					c1.5-1,3.3-1.6,5.4-1.6C82.2,174.2,83.9,174.7,85.4,175.5z"/>
			</g>
		</g>
	</g>
	<g>
		<g>
			<ellipse class="st8" cx="73.7" cy="180.3" rx="37.2" ry="37.2"/>
		</g>
	</g>
	<path id="XMLID_6_" class="st5" d="M59,190.3c-0.5,0-0.7-0.2-0.7-0.7v-0.9c-1.4-0.2-2.3-0.5-3.4-1.4v0.9c0,0.5-0.2,0.7-0.7,0.7
		c-0.5,0-0.7-0.2-0.7-0.7v-4.2c0-0.5,0.2-0.7,0.7-0.7c0.5,0,0.7,0.2,0.7,0.7v1.5c0.7,0.8,1.3,1,2.5,1.5c0.3,0.1,0.6,0.2,1,0.2v-6.5
		c-1.4-0.3-2.3-0.7-3-1c-0.7-0.3-1.3-0.8-1.7-1.4c-0.5-0.6-0.6-1.1-0.6-2c0-1.4,0.5-2.4,1.4-3.2c0.8-0.8,2.2-1.1,3.9-1.3v-0.9
		c0-0.5,0.2-0.7,0.7-0.7c0.5,0,0.7,0.2,0.7,0.7v1c1.3,0.2,2.3,0.7,3.2,1.3c0.2,0.1,0.1,0.3,0.2,0.5v-0.9c0-0.5,0.2-0.7,0.7-0.7
		c0.5,0,0.7,0.2,0.7,0.7v4.2c0,0.5-0.2,0.7-0.7,0.7c-0.5,0-0.7-0.2-0.7-0.7v-1.5c-0.8-0.8-1.5-1.5-2.5-2c-0.2-0.1-0.6-0.2-0.9-0.2
		v6.2c0.2,0,0.6,0.1,1,0.2c0.8,0.2,1.6,0.5,2.3,0.8c0.7,0.3,1.3,0.8,1.7,1.4c0.5,0.6,0.6,1.3,0.6,2c0,1.5-0.5,2.6-1.5,3.4
		c-0.9,0.8-2.4,1.3-4.1,1.3v0.9C59.7,190,59.4,190.3,59,190.3 M56.3,187.3c0.1,0,0.2,0.1,0.3,0.1C56.5,187.4,56.4,187.3,56.3,187.3
		 M59.7,181v6.3c1.4,0,2.5-0.3,3.2-0.9c0.8-0.6,1.1-1.4,1.1-2.3c0-0.5-0.1-0.9-0.5-1.3c-0.3-0.3-0.7-0.7-1.3-0.9
		c-0.5-0.2-1-0.5-1.6-0.6L59.7,181z M63.6,186.7c-0.1,0.1-0.2,0.2-0.3,0.2c-0.1,0.1-0.3,0.2-0.6,0.3c0.2-0.1,0.5-0.2,0.6-0.5
		C63.5,186.8,63.6,186.7,63.6,186.7 M58.3,173.3c-1.4,0-2.3,0.3-3,0.8c-0.7,0.6-1,1.3-1,2.1c0,0.5,0.1,0.9,0.5,1.3
		c0.3,0.3,0.7,0.7,1.3,0.9c0.5,0.2,1,0.5,1.5,0.6c0.2,0.1,0.6,0.1,0.8,0.2V173.3L58.3,173.3z"/>
</g>
<g>
	<g>
		<g>
			<circle class="st7" cx="318" cy="288" r="46.3"/>
		</g>
		<circle class="st3" cx="318" cy="288" r="30.3"/>
		<g>
			<g class="st4">
				<path class="st5" d="M329.7,283.2c1.5,0.8,2.6,2,3.4,3.4c0.8,1.5,1.2,3.2,1.2,5.1c0,2-0.5,3.7-1.4,5.3c-0.9,1.5-2.2,2.7-3.8,3.6
					c-1.7,0.9-3.6,1.3-5.7,1.3c-1.8,0-3.5-0.3-5.3-0.9c-1.7-0.6-3.2-1.4-4.4-2.4c-0.7-0.6-1-1.3-1-2c0-0.6,0.2-1.2,0.5-1.6
					c0.4-0.4,0.8-0.7,1.3-0.7c0.3,0,0.6,0.1,0.8,0.2c0.3,0.1,0.6,0.3,0.9,0.5c1.2,0.8,2.3,1.4,3.4,1.9c1.1,0.4,2.3,0.6,3.5,0.6
					c1.9,0,3.4-0.5,4.4-1.4c1-1,1.5-2.3,1.5-4.1c0-1.7-0.5-3-1.5-4c-1-1-2.4-1.5-4.2-1.5c-1.1,0-2.1,0.2-3,0.5
					c-0.9,0.3-1.8,0.8-2.7,1.6c-0.5,0.4-1.1,0.6-1.7,0.6s-1.1-0.2-1.5-0.5c-0.4-0.3-0.6-0.8-0.6-1.4v-13.5c0-0.8,0.2-1.4,0.7-1.9
					c0.5-0.5,1.1-0.7,1.9-0.7h14.4c1.7,0,2.6,0.7,2.6,2.2c0,1.4-0.9,2.2-2.6,2.2h-11.6v8.2c1.5-1,3.3-1.6,5.4-1.6
					C326.5,282,328.2,282.4,329.7,283.2z"/>
			</g>
		</g>
	</g>
	<g>
		<g>
			<ellipse class="st8" cx="318" cy="288" rx="37.2" ry="37.2"/>
		</g>
	</g>
	<path id="XMLID_3_" class="st5" d="M303.3,298c-0.5,0-0.7-0.2-0.7-0.7v-0.9c-1.4-0.2-2.3-0.5-3.4-1.4v0.9c0,0.5-0.2,0.7-0.7,0.7
		c-0.5,0-0.7-0.2-0.7-0.7v-4.2c0-0.5,0.2-0.7,0.7-0.7c0.5,0,0.7,0.2,0.7,0.7v1.5c0.7,0.8,1.3,1,2.5,1.5c0.3,0.1,0.6,0.2,1,0.2v-6.5
		c-1.4-0.3-2.3-0.7-3-1s-1.3-0.8-1.7-1.4s-0.6-1.1-0.6-2c0-1.4,0.5-2.4,1.4-3.2c0.8-0.8,2.2-1.1,3.9-1.3v-0.9c0-0.5,0.2-0.7,0.7-0.7
		c0.5,0,0.7,0.2,0.7,0.7v1c1.3,0.2,2.3,0.7,3.2,1.3c0.2,0.1,0.1,0.3,0.2,0.5v-0.9c0-0.5,0.2-0.7,0.7-0.7c0.5,0,0.7,0.2,0.7,0.7v4.2
		c0,0.5-0.2,0.7-0.7,0.7c-0.5,0-0.7-0.2-0.7-0.7v-1.5c-0.8-0.8-1.5-1.5-2.5-2c-0.2-0.1-0.6-0.2-0.9-0.2v6.2c0.2,0,0.6,0.1,1,0.2
		c0.8,0.2,1.6,0.5,2.3,0.8c0.7,0.3,1.3,0.8,1.7,1.4c0.5,0.6,0.6,1.3,0.6,2c0,1.5-0.5,2.6-1.5,3.4c-0.9,0.8-2.4,1.3-4.1,1.3v0.9
		C304,297.8,303.7,298,303.3,298 M300.6,295c0.1,0,0.2,0.1,0.3,0.1C300.8,295.1,300.7,295,300.6,295 M304,288.7v6.3
		c1.4,0,2.5-0.3,3.2-0.9c0.8-0.6,1.1-1.4,1.1-2.3c0-0.5-0.1-0.9-0.5-1.3c-0.3-0.3-0.7-0.7-1.3-0.9c-0.5-0.2-1-0.5-1.6-0.6L304,288.7
		z M307.9,294.4c-0.1,0.1-0.2,0.2-0.3,0.2c-0.1,0.1-0.3,0.2-0.6,0.3c0.2-0.1,0.5-0.2,0.6-0.5C307.8,294.5,307.9,294.4,307.9,294.4
		 M302.6,281c-1.4,0-2.3,0.3-3,0.8c-0.7,0.6-1,1.3-1,2.1c0,0.5,0.1,0.9,0.5,1.3s0.7,0.7,1.3,0.9c0.5,0.2,1,0.5,1.5,0.6
		c0.2,0.1,0.6,0.1,0.8,0.2V281L302.6,281z"/>
</g>
<g>
	<g>
		<g>
			<g>
				<path class="st2" d="M77.8,144.7c-22.2,0-40.3-18.1-40.3-40.3s18.1-40.3,40.3-40.3c22.2,0,40.3,18.1,40.3,40.3
					S100.1,144.7,77.8,144.7z"/>
			</g>
			<circle class="st3" cx="77.8" cy="104.4" r="26.4"/>
			<g>
				<g>
					<g class="st4">
						<path class="st5" d="M91.8,114.1c0,1.3-0.8,2-2.3,2H75.3c-0.7,0-1.2-0.2-1.5-0.6c-0.4-0.4-0.6-0.9-0.6-1.5
							c0-0.8,0.3-1.4,0.9-2l8.6-9.2c1.1-1.2,1.8-2.2,2.3-3.2c0.5-1,0.7-1.9,0.7-2.9c0-1.2-0.3-2.1-1-2.7c-0.7-0.6-1.6-0.9-2.9-0.9
							c-1,0-2,0.2-3,0.6c-1,0.4-1.9,0.9-2.9,1.6c-0.3,0.2-0.5,0.3-0.8,0.4c-0.3,0.1-0.5,0.2-0.8,0.2c-0.4,0-0.8-0.2-1.1-0.6
							c-0.3-0.4-0.5-0.9-0.5-1.4c0-0.4,0.1-0.7,0.2-1c0.1-0.3,0.4-0.5,0.7-0.8c1.1-0.9,2.4-1.6,3.9-2.1c1.5-0.5,3-0.8,4.4-0.8
							c2.6,0,4.6,0.7,6.2,2c1.5,1.3,2.3,3.1,2.3,5.3c0,1.5-0.3,3-1,4.3c-0.7,1.3-1.8,2.8-3.3,4.5l-6.5,6.9h9.9
							C91.1,112.2,91.8,112.8,91.8,114.1z"/>
					</g>
				</g>
			</g>
		</g>
		<g>
			<g>
				
					<ellipse transform="matrix(0.9871 -0.1602 0.1602 0.9871 -15.7165 13.8052)" class="st6" cx="77.8" cy="104.4" rx="32.4" ry="32.4"/>
			</g>
		</g>
	</g>
	<path id="XMLID_2_" class="st5" d="M65,113.1c-0.4,0-0.6-0.2-0.6-0.6v-0.8c-1.2-0.2-2-0.4-3-1.2v0.8c0,0.4-0.2,0.6-0.6,0.6
		s-0.6-0.2-0.6-0.6v-3.7c0-0.4,0.2-0.6,0.6-0.6s0.6,0.2,0.6,0.6v1.3c0.6,0.7,1.1,0.9,2.2,1.3c0.3,0.1,0.5,0.2,0.9,0.2v-5.7
		c-1.2-0.3-2-0.6-2.6-0.9s-1.1-0.7-1.5-1.2s-0.5-1-0.5-1.7c0-1.2,0.4-2.1,1.2-2.8c0.7-0.7,1.9-1,3.4-1.1v-0.8c0-0.4,0.2-0.6,0.6-0.6
		s0.6,0.2,0.6,0.6v0.9c1.1,0.2,2,0.6,2.8,1.1c0.2,0.1,0.1,0.3,0.2,0.4v-0.8c0-0.4,0.2-0.6,0.6-0.6s0.6,0.2,0.6,0.6v3.7
		c0,0.4-0.2,0.6-0.6,0.6s-0.6-0.2-0.6-0.6v-1.3c-0.7-0.7-1.3-1.3-2.2-1.7c-0.2-0.1-0.5-0.2-0.8-0.2v5.4c0.2,0,0.5,0.1,0.9,0.2
		c0.7,0.2,1.4,0.4,2,0.7c0.6,0.3,1.1,0.7,1.5,1.2s0.5,1.1,0.5,1.7c0,1.3-0.4,2.3-1.3,3c-0.8,0.7-2.1,1.1-3.6,1.1v0.8
		C65.6,112.9,65.3,113.1,65,113.1 M62.6,110.5c0.1,0,0.2,0.1,0.3,0.1C62.8,110.6,62.7,110.5,62.6,110.5 M65.6,105v5.5
		c1.2,0,2.2-0.3,2.8-0.8c0.7-0.5,1-1.2,1-2c0-0.4-0.1-0.8-0.4-1.1c-0.3-0.3-0.6-0.6-1.1-0.8c-0.4-0.2-0.9-0.4-1.4-0.5L65.6,105z
		 M69,110c-0.1,0.1-0.2,0.2-0.3,0.2c-0.1,0.1-0.3,0.2-0.5,0.3c0.2-0.1,0.4-0.2,0.5-0.4C68.9,110.1,68.9,110,69,110 M64.4,98.3
		c-1.2,0-2,0.3-2.6,0.7c-0.6,0.5-0.9,1.1-0.9,1.8c0,0.4,0.1,0.8,0.4,1.1c0.3,0.3,0.6,0.6,1.1,0.8c0.4,0.2,0.9,0.4,1.3,0.5
		c0.2,0.1,0.5,0.1,0.7,0.2V98.3L64.4,98.3z"/>
</g>
<g>
	<g>
		<g>
			<circle class="st2" cx="112" cy="312.8" r="33.8"/>
		</g>
		<circle class="st2" cx="112" cy="312.8" r="22.2"/>
		<g>
			<g class="st4">
				<path class="st5" d="M123.9,321c0,1.1-0.6,1.7-1.9,1.7h-10.7c-1.3,0-1.9-0.6-1.9-1.7c0-1.1,0.6-1.6,1.9-1.6h3.3v-14.4l-3,1.9
					c-0.3,0.2-0.6,0.3-0.8,0.3c-0.4,0-0.8-0.2-1.1-0.6c-0.3-0.4-0.5-0.8-0.5-1.3c0-0.6,0.3-1.1,0.8-1.4l4.9-3
					c0.6-0.4,1.2-0.6,1.8-0.6c0.6,0,1.1,0.2,1.4,0.5c0.4,0.4,0.5,0.9,0.5,1.5v17.1h3.3C123.3,319.4,123.9,319.9,123.9,321z"/>
			</g>
		</g>
	</g>
	<g>
		<g>
			<ellipse class="st9" cx="112" cy="312.8" rx="27.2" ry="27.2"/>
		</g>
	</g>
	<path id="XMLID_105_" class="st5" d="M101.3,320.1c-0.3,0-0.5-0.2-0.5-0.5v-0.7c-1-0.2-1.7-0.3-2.5-1v0.7c0,0.3-0.2,0.5-0.5,0.5
		s-0.5-0.2-0.5-0.5v-3.1c0-0.3,0.2-0.5,0.5-0.5s0.5,0.2,0.5,0.5v1.1c0.5,0.6,0.9,0.8,1.8,1.1c0.3,0.1,0.4,0.2,0.8,0.2V313
		c-1-0.3-1.7-0.5-2.2-0.8s-0.9-0.6-1.3-1c-0.3-0.4-0.4-0.8-0.4-1.4c0-1,0.3-1.8,1-2.4c0.6-0.6,1.6-0.8,2.9-0.9v-0.7
		c0-0.3,0.2-0.5,0.5-0.5s0.5,0.2,0.5,0.5v0.8c0.9,0.2,1.7,0.5,2.4,0.9c0.2,0.1,0.1,0.3,0.2,0.3v-0.7c0-0.3,0.2-0.5,0.5-0.5
		s0.5,0.2,0.5,0.5v3.1c0,0.3-0.2,0.5-0.5,0.5s-0.5-0.2-0.5-0.5v-1.1c-0.6-0.6-1.1-1.1-1.8-1.4c-0.2-0.1-0.4-0.2-0.7-0.2v4.5
		c0.2,0,0.4,0.1,0.8,0.2c0.6,0.2,1.2,0.3,1.7,0.6s0.9,0.6,1.3,1c0.3,0.4,0.4,0.9,0.4,1.4c0,1.1-0.3,1.9-1.1,2.5
		c-0.7,0.6-1.8,0.9-3,0.9v0.7C101.8,319.9,101.5,320.1,101.3,320.1 M99.2,317.9c0.1,0,0.2,0.1,0.3,0.1
		C99.4,318,99.3,317.9,99.2,317.9 M101.8,313.3v4.6c1,0,1.8-0.3,2.4-0.7c0.6-0.4,0.8-1,0.8-1.7c0-0.3-0.1-0.7-0.3-0.9
		s-0.5-0.5-0.9-0.7c-0.3-0.2-0.8-0.3-1.2-0.4L101.8,313.3z M104.6,317.5c-0.1,0.1-0.2,0.2-0.3,0.2c-0.1,0.1-0.3,0.2-0.4,0.3
		c0.2-0.1,0.3-0.2,0.4-0.3C104.5,317.6,104.6,317.5,104.6,317.5 M100.7,307.7c-1,0-1.7,0.3-2.2,0.6c-0.5,0.4-0.8,0.9-0.8,1.5
		c0,0.3,0.1,0.7,0.3,0.9c0.3,0.3,0.5,0.5,0.9,0.7c0.3,0.2,0.8,0.3,1.1,0.4c0.2,0.1,0.4,0.1,0.6,0.2V307.7L100.7,307.7z"/>
</g>
</svg>
