<?xml version="1.0" encoding="utf-8"?>
<!-- Generator: Adobe Illustrator 22.0.1, SVG Export Plug-In . SVG Version: 6.00 Build 0)  -->
<svg version="1.1" id="Layer_1" xmlns="http://www.w3.org/2000/svg" xmlns:xlink="http://www.w3.org/1999/xlink" x="0px" y="0px"
	 viewBox="0 0 400 400" style="enable-background:new 0 0 400 400;" xml:space="preserve">
<style type="text/css">
	.st0{fill:#691869;}
	.st1{fill:#FFFFFF;}
	.st2{fill:#FCC62D;}
	.st3{fill:#AEB9C1;}
	.st4{enable-background:new    ;}
	.st5{fill:#3D4449;}
	.st6{fill:none;stroke:#F9DC39;stroke-width:2.2964;stroke-linecap:round;stroke-linejoin:round;stroke-dasharray:1.1678,8.1743;}
	.st7{fill:#FADC3C;stroke:#E7C42A;stroke-width:2.2449;stroke-miterlimit:10;}
	.st8{fill:none;stroke:#F9DC39;stroke-width:2.335;stroke-linecap:round;stroke-linejoin:round;stroke-dasharray:1.1874,8.3119;}
	.st9{fill:#7C6608;}
	.st10{fill:#A0AAB4;}
	.st11{fill:none;stroke:#D6DEE4;stroke-width:1.6793;stroke-linecap:round;stroke-linejoin:round;stroke-dasharray:0.854,5.9777;}
</style>
<g>
	<path class="st0" d="M172.6,192.2c-1-1-1.5-2.3-1.5-3.8s0.5-2.8,1.5-3.8s2.3-1.5,3.8-1.5h48.3c1.5,0,2.8,0.5,3.8,1.6
		c1,1,1.5,2.3,1.5,3.9c0,1.4-0.5,2.7-1.5,3.7s-2.3,1.5-3.8,1.5h-48.3C174.9,193.7,173.6,193.2,172.6,192.2z M172.6,216.4
		c-1-1-1.5-2.3-1.5-3.8s0.5-2.8,1.5-3.8s2.3-1.5,3.8-1.5h48.3c1.5,0,2.8,0.5,3.8,1.6c1,1,1.5,2.3,1.5,3.9c0,1.4-0.5,2.7-1.5,3.7
		s-2.3,1.5-3.8,1.5h-48.3C174.9,217.9,173.6,217.4,172.6,216.4z"/>
</g>
<g>
	<g>
		<path class="st1" d="M310.5,363.8c-28.6,0-51.9-23.3-51.9-51.9c0-22.2,14.4-41.9,35-49c-2-4.8-3.1-9.9-3.1-15.1
			c0-21.4,17.4-38.8,38.8-38.8s38.8,17.4,38.8,38.8c0,12.9-6.5,24.9-16.9,32c7.2,9.1,11.2,20.3,11.2,32.1
			C362.3,340.5,339.1,363.8,310.5,363.8z"/>
		<path class="st1" d="M329.3,214c18.7,0,33.8,15.1,33.8,33.8c0,13.7-8.1,25.4-19.8,30.8c8.6,8.5,14,20.3,14,33.4
			c0,25.8-20.9,46.9-46.9,46.9c-25.8,0-46.9-21.1-46.9-46.9c0-22.5,16-41.4,37.3-45.9c-3.4-5.3-5.4-11.5-5.4-18.2
			C295.5,229.1,310.6,214,329.3,214 M329.3,204c-24.2,0-43.8,19.6-43.8,43.8c0,4.2,0.6,8.3,1.7,12.2c-20.1,9-33.7,29.3-33.7,51.9
			c0,31.4,25.5,56.9,56.9,56.9s56.9-25.5,56.9-56.9c0-11.2-3.2-21.9-9.3-31.1c9.4-8.2,15.1-20.2,15.1-33
			C373.1,223.6,353.5,204,329.3,204L329.3,204z"/>
	</g>
	<g>
		<path class="st1" d="M90.3,352.2c-21.4,0-38.8-17.4-38.8-38.8c0-9.2,3.3-18,9.1-24.9c-18.8-7.8-31.8-26.5-31.8-47.4
			c0-18.6,10.2-35.7,26.1-44.7c-8.5-9.5-13.3-21.7-13.3-34.6c0-9.9,2.9-19.7,8.2-28c-16.7-8.8-27.5-26.3-27.5-45.5
			C22.4,60,45.4,37,73.7,37C102,37,125,60,125,88.3c0,9.7-2.8,19.1-7.8,27.3c17.2,8.8,28.3,26.6,28.3,46.2c0,19-10.5,36.4-26.8,45.4
			c8.2,9.3,12.8,21.3,12.8,33.9c0,15.8-7.3,30.6-19.4,40.2c10.5,7.1,17.1,19.2,17.1,32.1C129.1,334.8,111.7,352.2,90.3,352.2z"/>
		<path class="st1" d="M73.7,42C99.3,42,120,62.7,120,88.3c0,11.2-3.9,21.4-10.5,29.4c18,6.5,31,23.8,31,44.1
			c0,20.1-12.6,37.2-30.5,43.9c10.1,8.5,16.5,21.2,16.5,35.4c0,17.6-9.8,32.9-24.2,40.7c12.8,4.8,21.9,17.2,21.9,31.6
			c0,18.7-15.1,33.8-33.8,33.8c-18.7,0-33.8-15.1-33.8-33.8c0-11.1,5.4-21,13.7-27.1c-20.8-4.6-36.3-23.1-36.3-45.2
			c0-19.8,12.4-36.6,29.8-43.3c-10.3-8.6-16.9-21.6-16.9-36c0-11.4,4.1-21.9,10.9-30c-17.7-6.5-30.2-23.5-30.2-43.4
			C27.4,62.7,48.1,42,73.7,42 M73.7,32c-31,0-56.3,25.3-56.3,56.3c0,19.3,10,37,25.7,47.3c-4.2,8-6.4,17-6.4,26.2
			c0,12.1,3.9,23.8,10.9,33.4c-5.2,3.7-9.8,8.3-13.5,13.6c-6.7,9.5-10.2,20.7-10.2,32.3c0,12.9,4.5,25.5,12.6,35.5
			c4.6,5.7,10.3,10.4,16.6,13.8c-4.2,6.8-6.6,14.8-6.6,23c0,24.2,19.6,43.8,43.8,43.8c24.2,0,43.8-19.6,43.8-43.8
			c0-12.5-5.4-24.2-14.3-32.4c10.5-10.4,16.7-24.7,16.7-40c0-11.8-3.7-23.2-10.4-32.6c5.4-3.8,10.2-8.5,14-14
			c6.8-9.6,10.4-20.9,10.4-32.7c0-19.7-10.3-37.8-26.5-48.1c4-7.8,6.1-16.5,6.1-25.4C130,57.3,104.7,32,73.7,32L73.7,32z"/>
	</g>
</g>
<g>
	<g>
		<g>
			<circle class="st2" cx="73.7" cy="88.3" r="46.3"/>
		</g>
		<circle class="st3" cx="73.7" cy="88.3" r="30.3"/>
		<g>
			<g class="st4">
				<path class="st5" d="M85.4,83.5c1.5,0.8,2.6,2,3.4,3.4c0.8,1.5,1.2,3.2,1.2,5.1c0,2-0.5,3.7-1.4,5.3s-2.2,2.7-3.8,3.6
					c-1.7,0.9-3.6,1.3-5.7,1.3c-1.8,0-3.5-0.3-5.3-0.9c-1.7-0.6-3.2-1.4-4.4-2.4c-0.7-0.6-1-1.3-1-2c0-0.6,0.2-1.2,0.5-1.6
					c0.4-0.4,0.8-0.7,1.3-0.7c0.3,0,0.6,0.1,0.8,0.2c0.3,0.1,0.6,0.3,0.9,0.5c1.2,0.8,2.3,1.4,3.4,1.9c1.1,0.4,2.3,0.6,3.5,0.6
					c1.9,0,3.4-0.5,4.4-1.4c1-1,1.5-2.3,1.5-4.1c0-1.7-0.5-3-1.5-4c-1-1-2.4-1.5-4.2-1.5c-1.1,0-2.1,0.2-3,0.5
					c-0.9,0.3-1.8,0.8-2.7,1.6c-0.5,0.4-1.1,0.6-1.7,0.6c-0.6,0-1.1-0.2-1.5-0.5c-0.4-0.3-0.6-0.8-0.6-1.4V73.9
					c0-0.8,0.2-1.4,0.7-1.9c0.5-0.5,1.1-0.7,1.9-0.7h14.4c1.7,0,2.6,0.7,2.6,2.2c0,1.4-0.9,2.2-2.6,2.2H74.9v8.2
					c1.5-1,3.3-1.6,5.4-1.6C82.2,82.2,83.9,82.7,85.4,83.5z"/>
			</g>
		</g>
	</g>
	<g>
		<g>
			<ellipse class="st6" cx="73.7" cy="88.3" rx="37.2" ry="37.2"/>
		</g>
	</g>
	<path id="XMLID_6_" class="st5" d="M59,98.3c-0.5,0-0.7-0.2-0.7-0.7v-0.9c-1.4-0.2-2.3-0.5-3.4-1.4v0.9c0,0.5-0.2,0.7-0.7,0.7
		s-0.7-0.2-0.7-0.7V92c0-0.5,0.2-0.7,0.7-0.7s0.7,0.2,0.7,0.7v1.5c0.7,0.8,1.3,1,2.5,1.5c0.3,0.1,0.6,0.2,1,0.2v-6.5
		c-1.4-0.3-2.3-0.7-3-1c-0.7-0.3-1.3-0.8-1.7-1.4c-0.4-0.6-0.6-1.1-0.6-2c0-1.4,0.5-2.4,1.4-3.2c0.8-0.8,2.2-1.1,3.9-1.3v-0.9
		c0-0.5,0.2-0.7,0.7-0.7s0.7,0.2,0.7,0.7v1c1.3,0.2,2.3,0.7,3.2,1.3c0.2,0.1,0.1,0.3,0.2,0.5v-0.9c0-0.5,0.2-0.7,0.7-0.7
		c0.5,0,0.7,0.2,0.7,0.7V85c0,0.5-0.2,0.7-0.7,0.7c-0.5,0-0.7-0.2-0.7-0.7v-1.5c-0.8-0.8-1.5-1.5-2.5-2c-0.2-0.1-0.6-0.2-0.9-0.2
		v6.2c0.2,0,0.6,0.1,1,0.2c0.8,0.2,1.6,0.5,2.3,0.8c0.7,0.3,1.3,0.8,1.7,1.4c0.5,0.6,0.6,1.3,0.6,2c0,1.5-0.5,2.6-1.5,3.4
		c-0.9,0.8-2.4,1.3-4.1,1.3v0.9C59.7,98,59.4,98.3,59,98.3 M56.3,95.3c0.1,0,0.2,0.1,0.3,0.1C56.5,95.4,56.4,95.3,56.3,95.3
		 M59.7,89v6.3c1.4,0,2.5-0.3,3.2-0.9c0.8-0.6,1.1-1.4,1.1-2.3c0-0.5-0.1-0.9-0.5-1.3c-0.3-0.3-0.7-0.7-1.3-0.9
		c-0.5-0.2-1-0.5-1.6-0.6L59.7,89z M63.6,94.7c-0.1,0.1-0.2,0.2-0.3,0.2c-0.1,0.1-0.3,0.2-0.6,0.3c0.2-0.1,0.5-0.2,0.6-0.5
		C63.5,94.8,63.6,94.7,63.6,94.7 M58.3,81.3c-1.4,0-2.3,0.3-3,0.8c-0.7,0.6-1,1.3-1,2.1c0,0.5,0.1,0.9,0.5,1.3
		c0.3,0.3,0.7,0.7,1.3,0.9c0.5,0.2,1,0.5,1.5,0.6c0.2,0.1,0.6,0.1,0.8,0.2L58.3,81.3L58.3,81.3z"/>
</g>
<g>
	<g>
		<g>
			<path class="st2" d="M310.5,358.8c-25.8,0-46.9-21.1-46.9-46.9s21.1-46.9,46.9-46.9c25.8,0,46.9,21.1,46.9,46.9
				S336.4,358.8,310.5,358.8z"/>
		</g>
		<circle class="st7" cx="310.5" cy="311.9" r="33.8"/>
	</g>
	<g>
		<g>
			<ellipse class="st8" cx="310.5" cy="311.9" rx="37.8" ry="37.8"/>
		</g>
	</g>
	<g>
		<g class="st4">
			<path class="st9" d="M313.6,322.3c0,1.4-0.8,2.2-2.5,2.2h-13.8c-1.7,0-2.5-0.7-2.5-2.2c0-1.4,0.8-2.1,2.5-2.1h4.2v-18.6l-3.9,2.4
				c-0.4,0.2-0.7,0.3-1,0.3c-0.6,0-1.1-0.2-1.4-0.7c-0.4-0.5-0.6-1-0.6-1.6c0-0.8,0.4-1.4,1.1-1.8l6.3-3.9c0.8-0.5,1.6-0.7,2.3-0.7
				c0.8,0,1.4,0.2,1.8,0.7s0.7,1.1,0.7,1.9v22.1h4.3C312.8,320.2,313.6,320.9,313.6,322.3z"/>
			<path class="st9" d="M318.5,321c-1.8-2.5-2.7-6.2-2.7-11c0-4.8,0.9-8.4,2.7-11c1.8-2.5,4.4-3.8,7.8-3.8c3.4,0,6,1.3,7.8,3.8
				c1.8,2.5,2.7,6.2,2.7,11c0,4.8-0.9,8.5-2.7,11c-1.8,2.5-4.4,3.8-7.8,3.8C322.9,324.8,320.3,323.5,318.5,321z M330.4,318.1
				c0.8-1.7,1.3-4.4,1.3-8.1c0-3.7-0.4-6.4-1.3-8.1c-0.8-1.7-2.2-2.5-4-2.5s-3.2,0.8-4,2.5c-0.8,1.7-1.3,4.4-1.3,8.1
				c0,3.7,0.4,6.4,1.3,8.1c0.8,1.7,2.2,2.6,4,2.6S329.5,319.8,330.4,318.1z"/>
		</g>
	</g>
</g>
<g>
	<g>
		<g>
			<path class="st2" d="M93.6,208.6c-25.8,0-46.9-21.1-46.9-46.9s21.1-46.9,46.9-46.9c25.8,0,46.9,21.1,46.9,46.9
				S119.5,208.6,93.6,208.6z"/>
		</g>
		<circle class="st7" cx="93.6" cy="161.8" r="33.8"/>
	</g>
	<g>
		<g>
			<ellipse class="st8" cx="93.6" cy="161.8" rx="37.8" ry="37.8"/>
		</g>
	</g>
	<g>
		<g class="st4">
			<path class="st9" d="M96.7,172.1c0,1.4-0.8,2.2-2.5,2.2H80.5c-1.7,0-2.5-0.7-2.5-2.2c0-1.4,0.8-2.1,2.5-2.1h4.2v-18.6l-3.9,2.4
				c-0.4,0.2-0.7,0.3-1,0.3c-0.6,0-1.1-0.2-1.4-0.7c-0.4-0.5-0.6-1-0.6-1.6c0-0.8,0.4-1.4,1.1-1.8l6.3-3.9c0.8-0.5,1.6-0.7,2.3-0.7
				c0.8,0,1.4,0.2,1.8,0.7s0.7,1.1,0.7,1.9V170h4.3C95.9,170,96.7,170.7,96.7,172.1z"/>
			<path class="st9" d="M101.6,170.8c-1.8-2.5-2.7-6.2-2.7-11c0-4.8,0.9-8.4,2.7-11c1.8-2.5,4.4-3.8,7.8-3.8c3.4,0,6,1.3,7.8,3.8
				c1.8,2.5,2.7,6.2,2.7,11c0,4.8-0.9,8.5-2.7,11c-1.8,2.5-4.4,3.8-7.8,3.8C106,174.6,103.4,173.4,101.6,170.8z M113.5,167.9
				c0.8-1.7,1.3-4.4,1.3-8.1c0-3.7-0.4-6.4-1.3-8.1c-0.8-1.7-2.2-2.5-4-2.5s-3.2,0.8-4,2.5c-0.8,1.7-1.3,4.4-1.3,8.1
				c0,3.7,0.4,6.4,1.3,8.1c0.8,1.7,2.2,2.6,4,2.6S112.6,169.6,113.5,167.9z"/>
		</g>
	</g>
</g>
<path id="XMLID_4_" class="st9" d="M292.7,322.9c-0.3,0-0.6-0.2-0.6-0.6v-0.7c-1-0.2-1.7-0.3-2.7-1v0.7c0,0.3-0.2,0.6-0.6,0.6
	c-0.3,0-0.6-0.2-0.6-0.6v-3.4c0-0.3,0.2-0.6,0.6-0.6c0.3,0,0.6,0.2,0.6,0.6v1.2c0.6,0.6,0.9,0.8,2,1.2c0.2,0.1,0.5,0.2,0.8,0.2v-5.1
	c-1-0.2-1.7-0.6-2.3-0.8c-0.6-0.2-0.9-0.6-1.4-1s-0.5-0.9-0.5-1.5c0-1,0.3-1.9,1-2.6c0.6-0.6,1.7-0.9,3-0.9v-0.7
	c0-0.3,0.2-0.6,0.6-0.6c0.3,0,0.6,0.2,0.6,0.6v0.8c0.9,0.2,1.7,0.6,2.6,0.9c0.2,0.1,0.1,0.2,0.2,0.3v-0.7c0-0.3,0.2-0.6,0.6-0.6
	c0.3,0,0.6,0.2,0.6,0.6v3.4c0,0.3-0.2,0.6-0.6,0.6c-0.3,0-0.6-0.2-0.6-0.6v-1.2c-0.6-0.6-1.2-1.2-2-1.5c-0.2-0.1-0.5-0.2-0.7-0.2
	v4.9c0.2,0,0.5,0.1,0.8,0.2c0.6,0.2,1.3,0.3,1.7,0.6c0.5,0.2,0.9,0.6,1.4,1c0.3,0.5,0.5,0.9,0.5,1.5c0,1.2-0.3,2.1-1.2,2.7
	c-0.7,0.6-1.9,0.9-3.3,0.9v0.7C293.1,322.6,292.9,322.9,292.7,322.9 M290.5,320.5c0.1,0,0.2,0.1,0.2,0.1
	C290.7,320.5,290.6,320.5,290.5,320.5 M293.1,315.5v4.9c1,0,2-0.2,2.6-0.7c0.6-0.5,0.9-1,0.9-1.7c0-0.3-0.1-0.7-0.3-0.9
	c-0.2-0.2-0.6-0.6-0.9-0.7c-0.3-0.2-0.8-0.3-1.3-0.5L293.1,315.5z M296.2,320.1c-0.1,0.1-0.2,0.2-0.2,0.2c-0.1,0.1-0.2,0.2-0.5,0.2
	c0.2-0.1,0.3-0.2,0.5-0.3C296.2,320.2,296.2,320.1,296.2,320.1 M292.1,309.5c-1,0-1.7,0.2-2.3,0.6c-0.6,0.5-0.8,0.9-0.8,1.6
	c0,0.3,0.1,0.7,0.3,0.9c0.2,0.2,0.6,0.6,0.9,0.7c0.3,0.2,0.8,0.3,1.2,0.5c0.2,0.1,0.5,0.1,0.6,0.2v-4.5H292.1z"/>
<g>
	<g>
		<g>
			<circle class="st2" cx="80.1" cy="241.1" r="46.3"/>
		</g>
		<circle class="st3" cx="80.1" cy="241.1" r="30.3"/>
		<g>
			<g class="st4">
				<path class="st5" d="M91.8,236.2c1.5,0.8,2.6,2,3.4,3.4c0.8,1.5,1.2,3.2,1.2,5.1c0,2-0.5,3.7-1.4,5.3s-2.2,2.7-3.8,3.6
					c-1.7,0.9-3.6,1.3-5.7,1.3c-1.8,0-3.5-0.3-5.3-0.9c-1.7-0.6-3.2-1.4-4.4-2.4c-0.7-0.6-1-1.3-1-2c0-0.6,0.2-1.2,0.5-1.6
					c0.4-0.4,0.8-0.7,1.3-0.7c0.3,0,0.6,0.1,0.8,0.2c0.3,0.1,0.6,0.3,0.9,0.5c1.2,0.8,2.3,1.4,3.4,1.9c1.1,0.4,2.3,0.6,3.5,0.6
					c1.9,0,3.4-0.5,4.4-1.4c1-1,1.5-2.3,1.5-4.1c0-1.7-0.5-3-1.5-4c-1-1-2.4-1.5-4.2-1.5c-1.1,0-2.1,0.2-3,0.5
					c-0.9,0.3-1.8,0.8-2.7,1.6c-0.5,0.4-1.1,0.6-1.7,0.6c-0.6,0-1.1-0.2-1.5-0.5c-0.4-0.3-0.6-0.8-0.6-1.4v-13.5
					c0-0.8,0.2-1.4,0.7-1.9c0.5-0.5,1.1-0.7,1.9-0.7H93c1.7,0,2.6,0.7,2.6,2.2c0,1.4-0.9,2.2-2.6,2.2H81.4v8.2
					c1.5-1,3.3-1.6,5.4-1.6C88.7,235,90.4,235.4,91.8,236.2z"/>
			</g>
		</g>
	</g>
	<g>
		<g>
			<ellipse class="st6" cx="80.1" cy="241.1" rx="37.2" ry="37.2"/>
		</g>
	</g>
	<path id="XMLID_1_" class="st5" d="M65.4,251.1c-0.5,0-0.7-0.2-0.7-0.7v-0.9c-1.4-0.2-2.3-0.5-3.4-1.4v0.9c0,0.5-0.2,0.7-0.7,0.7
		s-0.7-0.2-0.7-0.7v-4.2c0-0.5,0.2-0.7,0.7-0.7s0.7,0.2,0.7,0.7v1.5c0.7,0.8,1.3,1,2.5,1.5c0.3,0.1,0.6,0.2,1,0.2v-6.5
		c-1.4-0.3-2.3-0.7-3-1s-1.3-0.8-1.7-1.4c-0.4-0.6-0.6-1.1-0.6-2c0-1.4,0.5-2.4,1.4-3.2c0.8-0.8,2.2-1.1,3.9-1.3v-0.9
		c0-0.5,0.2-0.7,0.7-0.7s0.7,0.2,0.7,0.7v1c1.3,0.2,2.3,0.7,3.2,1.3c0.2,0.1,0.1,0.3,0.2,0.5v-0.9c0-0.5,0.2-0.7,0.7-0.7
		s0.7,0.2,0.7,0.7v4.2c0,0.5-0.2,0.7-0.7,0.7s-0.7-0.2-0.7-0.7v-1.5c-0.8-0.8-1.5-1.5-2.5-2c-0.2-0.1-0.6-0.2-0.9-0.2v6.2
		c0.2,0,0.6,0.1,1,0.2c0.8,0.2,1.6,0.5,2.3,0.8c0.7,0.3,1.3,0.8,1.7,1.4c0.5,0.6,0.6,1.3,0.6,2c0,1.5-0.5,2.6-1.5,3.4
		c-0.9,0.8-2.4,1.3-4.1,1.3v0.9C66.1,250.8,65.8,251.1,65.4,251.1 M62.7,248.1c0.1,0,0.2,0.1,0.3,0.1
		C62.9,248.2,62.8,248.1,62.7,248.1 M66.1,241.8v6.3c1.4,0,2.5-0.3,3.2-0.9c0.8-0.6,1.1-1.4,1.1-2.3c0-0.5-0.1-0.9-0.5-1.3
		c-0.3-0.3-0.7-0.7-1.3-0.9c-0.5-0.2-1-0.5-1.6-0.6L66.1,241.8z M70,247.5c-0.1,0.1-0.2,0.2-0.3,0.2c-0.1,0.1-0.3,0.2-0.6,0.3
		c0.2-0.1,0.5-0.2,0.6-0.5C69.9,247.6,70,247.5,70,247.5 M64.7,234.1c-1.4,0-2.3,0.3-3,0.8c-0.7,0.6-1,1.3-1,2.1
		c0,0.5,0.1,0.9,0.5,1.3c0.3,0.3,0.7,0.7,1.3,0.9c0.5,0.2,1,0.5,1.5,0.6c0.2,0.1,0.6,0.1,0.8,0.2L64.7,234.1L64.7,234.1z"/>
</g>
<g>
	<g>
		<g>
			
				<ellipse transform="matrix(3.327793e-02 -0.9994 0.9994 3.327793e-02 -225.9208 393.2407)" class="st10" cx="90.3" cy="313.4" rx="33.8" ry="33.8"/>
		</g>
		<circle class="st10" cx="90.3" cy="313.4" r="22.2"/>
		<g>
			<g class="st4">
				<path class="st5" d="M102.2,321.6c0,1.1-0.6,1.7-1.9,1.7H89.6c-1.3,0-1.9-0.6-1.9-1.7c0-1.1,0.6-1.6,1.9-1.6h3.3v-14.4l-3,1.9
					c-0.3,0.2-0.6,0.3-0.8,0.3c-0.4,0-0.8-0.2-1.1-0.6c-0.3-0.4-0.5-0.8-0.5-1.3c0-0.6,0.3-1.1,0.8-1.4l4.9-3
					c0.6-0.4,1.2-0.6,1.8-0.6c0.6,0,1.1,0.2,1.4,0.5c0.4,0.4,0.5,0.9,0.5,1.5V320h3.3C101.6,320,102.2,320.5,102.2,321.6z"/>
			</g>
		</g>
	</g>
	<g>
		<g>
			
				<ellipse transform="matrix(3.327794e-02 -0.9994 0.9994 3.327794e-02 -225.9208 393.2406)" class="st11" cx="90.3" cy="313.4" rx="27.2" ry="27.2"/>
		</g>
	</g>
	<path id="XMLID_2_" class="st5" d="M79.5,320.7c-0.3,0-0.5-0.2-0.5-0.5v-0.6c-1-0.2-1.7-0.3-2.5-1v0.7c0,0.3-0.2,0.5-0.5,0.5
		s-0.5-0.2-0.5-0.5v-3.1c0-0.3,0.2-0.5,0.5-0.5s0.5,0.2,0.5,0.5v1.1c0.5,0.6,0.9,0.8,1.8,1.1c0.3,0.1,0.4,0.2,0.8,0.2v-4.8
		c-1-0.3-1.7-0.5-2.2-0.8s-0.9-0.6-1.3-1c-0.3-0.4-0.4-0.8-0.4-1.4c0-1,0.3-1.8,1-2.4c0.6-0.6,1.6-0.8,2.9-0.9v-0.7
		c0-0.3,0.2-0.5,0.5-0.5s0.5,0.2,0.5,0.5v0.8c0.9,0.2,1.7,0.5,2.4,0.9c0.2,0.1,0.1,0.3,0.2,0.3v-0.7c0-0.3,0.2-0.5,0.5-0.5
		s0.5,0.2,0.5,0.5v3.1c0,0.3-0.2,0.5-0.5,0.5s-0.5-0.2-0.5-0.5v-1.1c-0.6-0.6-1.1-1.1-1.8-1.4c-0.2-0.1-0.4-0.2-0.7-0.2v4.5
		c0.2,0,0.4,0.1,0.8,0.2c0.6,0.2,1.2,0.3,1.7,0.6s0.9,0.6,1.3,1c0.3,0.4,0.4,0.9,0.4,1.4c0,1.1-0.3,1.9-1.1,2.5
		c-0.7,0.6-1.8,0.9-3,0.9v0.7C80.1,320.6,79.8,320.7,79.5,320.7 M77.5,318.6c0.1,0,0.2,0.1,0.3,0.1
		C77.7,318.6,77.6,318.6,77.5,318.6 M80.1,313.9v4.6c1,0,1.8-0.3,2.4-0.7c0.6-0.4,0.8-1,0.8-1.7c0-0.3-0.1-0.7-0.3-0.9
		s-0.5-0.5-0.9-0.7c-0.3-0.2-0.8-0.3-1.2-0.4L80.1,313.9z M82.9,318.1c-0.1,0.1-0.2,0.2-0.3,0.2c-0.1,0.1-0.3,0.2-0.4,0.3
		c0.2-0.1,0.3-0.2,0.4-0.3C82.8,318.2,82.9,318.1,82.9,318.1 M79,308.3c-1,0-1.7,0.3-2.2,0.6c-0.5,0.4-0.8,0.9-0.8,1.5
		c0,0.3,0.1,0.7,0.3,0.9c0.3,0.3,0.5,0.5,0.9,0.7c0.3,0.2,0.8,0.3,1.1,0.4c0.2,0.1,0.4,0.1,0.6,0.2L79,308.3L79,308.3z"/>
</g>
<g>
	<g>
		<g>
			
				<ellipse transform="matrix(3.327793e-02 -0.9994 0.9994 3.327793e-02 70.6788 568.6713)" class="st10" cx="329.3" cy="247.8" rx="33.8" ry="33.8"/>
		</g>
		<circle class="st10" cx="329.3" cy="247.8" r="22.2"/>
		<g>
			<g class="st4">
				<path class="st5" d="M341.2,256c0,1.1-0.6,1.7-1.9,1.7h-10.7c-1.3,0-1.9-0.6-1.9-1.7c0-1.1,0.6-1.6,1.9-1.6h3.3V240l-3,1.9
					c-0.3,0.2-0.6,0.3-0.8,0.3c-0.4,0-0.8-0.2-1.1-0.6c-0.3-0.4-0.5-0.8-0.5-1.3c0-0.6,0.3-1.1,0.8-1.4l4.9-3
					c0.6-0.4,1.2-0.6,1.8-0.6c0.6,0,1.1,0.2,1.4,0.5c0.4,0.4,0.5,0.9,0.5,1.5v17.1h3.3C340.6,254.4,341.2,254.9,341.2,256z"/>
			</g>
		</g>
	</g>
	<g>
		<g>
			
				<ellipse transform="matrix(3.327794e-02 -0.9994 0.9994 3.327794e-02 70.6788 568.6713)" class="st11" cx="329.3" cy="247.8" rx="27.2" ry="27.2"/>
		</g>
	</g>
	<path id="XMLID_105_" class="st5" d="M318.5,255.1c-0.3,0-0.5-0.2-0.5-0.5V254c-1-0.2-1.7-0.3-2.5-1v0.7c0,0.3-0.2,0.5-0.5,0.5
		s-0.5-0.2-0.5-0.5v-3.1c0-0.3,0.2-0.5,0.5-0.5s0.5,0.2,0.5,0.5v1.1c0.5,0.6,0.9,0.8,1.8,1.1c0.3,0.1,0.4,0.2,0.8,0.2v-4.8
		c-1-0.3-1.7-0.5-2.2-0.8s-0.9-0.6-1.3-1c-0.3-0.4-0.4-0.8-0.4-1.4c0-1,0.3-1.8,1-2.4c0.6-0.6,1.6-0.8,2.9-0.9V241
		c0-0.3,0.2-0.5,0.5-0.5s0.5,0.2,0.5,0.5v0.8c0.9,0.2,1.7,0.5,2.4,0.9c0.2,0.1,0.1,0.3,0.2,0.3v-0.7c0-0.3,0.2-0.5,0.5-0.5
		c0.3,0,0.5,0.2,0.5,0.5v3.1c0,0.3-0.2,0.5-0.5,0.5c-0.3,0-0.5-0.2-0.5-0.5v-1.1c-0.6-0.6-1.1-1.1-1.8-1.4c-0.2-0.1-0.4-0.2-0.7-0.2
		v4.5c0.2,0,0.4,0.1,0.8,0.2c0.6,0.2,1.2,0.3,1.7,0.6s0.9,0.6,1.3,1c0.3,0.4,0.4,0.9,0.4,1.4c0,1.1-0.3,1.9-1.1,2.5
		c-0.7,0.6-1.8,0.9-3,0.9v0.7C319.1,255,318.8,255.1,318.5,255.1 M316.5,253c0.1,0,0.2,0.1,0.3,0.1C316.7,253,316.6,253,316.5,253
		 M319.1,248.3v4.6c1,0,1.8-0.3,2.4-0.7c0.6-0.4,0.8-1,0.8-1.7c0-0.3-0.1-0.7-0.3-0.9s-0.5-0.5-0.9-0.7c-0.3-0.2-0.8-0.3-1.2-0.4
		L319.1,248.3z M321.9,252.5c-0.1,0.1-0.2,0.2-0.3,0.2c-0.1,0.1-0.3,0.2-0.4,0.3c0.2-0.1,0.3-0.2,0.4-0.3
		C321.8,252.6,321.9,252.5,321.9,252.5 M318,242.7c-1,0-1.7,0.3-2.2,0.6c-0.5,0.4-0.8,0.9-0.8,1.5c0,0.3,0.1,0.7,0.3,0.9
		c0.3,0.3,0.5,0.5,0.9,0.7c0.3,0.2,0.8,0.3,1.1,0.4c0.2,0.1,0.4,0.1,0.6,0.2v-4.3H318z"/>
</g>
</svg>
