<?xml version="1.0" encoding="utf-8"?>
<!-- Generator: Adobe Illustrator 22.0.1, SVG Export Plug-In . SVG Version: 6.00 Build 0)  -->
<svg version="1.1" id="Layer_1" xmlns="http://www.w3.org/2000/svg" xmlns:xlink="http://www.w3.org/1999/xlink" x="0px" y="0px"
	 viewBox="0 0 400 400" style="enable-background:new 0 0 400 400;" xml:space="preserve">
<style type="text/css">
	.st0{fill:#FFFFFF;}
	.st1{fill:#9CD34F;}
	.st2{fill:#3EB24F;}
	.st3{fill:#033333;}
	.st4{fill:none;stroke:#033333;stroke-width:7.6325;stroke-linecap:round;stroke-linejoin:round;stroke-miterlimit:10;}
	.st5{font-family:'Nunito-Bold';}
	.st6{font-size:39.477px;}
	.st7{fill:#76CEE4;}
	.st8{fill:#1EAFD8;}
	.st9{fill:#E8A434;}
	.st10{fill:#E5852E;}
	.st11{fill:#331803;}
	.st12{fill:none;stroke:#331803;stroke-width:7.6325;stroke-linecap:round;stroke-linejoin:round;stroke-miterlimit:10;}
</style>
<g>
	<g>
		<path class="st0" d="M261.6,185.7c-2.9,0-5.4-1.5-6.8-3.8h-2.1c-4.4,0-8-3.5-8-7.9c-1.3,0.1-2.6,0.1-3.8,0.1c-3,0-6-0.2-9-0.5v3.3
			c0,4.4-3.6,8-8,8h-13.6c-2.6,0-4.8-1.2-6.3-3.1h-1.5c-4.4,0-8-3.6-8-8v-15c-8.9-6.8-15.5-15.4-19.3-25h-4c-5.3,0-9.7-4.3-9.7-9.7
			v-18.7c0-5.3,4.3-9.7,9.7-9.7h4c3.3-8.4,8.8-16,16.1-22.4l-4.3-24.8l7.2,1.5c0.3,0.1,2,0.4,4.3,1.4v-9.7l6.8,2.6
			c0.4,0.2,9.9,4,15.9,13.6c6.4-1.6,13.1-2.5,19.8-2.5c28.4,0,54.1,14.9,64.6,37.2l4.9,2.6c1.6,0.8,3.1,1.6,4.7,2.5
			c2.1-1.4,4.4-2.3,6.4-3.2c1.3-0.5,2.5-1.1,3.5-1.6c1.1-0.6,2.4-0.9,3.7-0.9c2.8,0,5.4,1.5,6.7,4c2,3.7,0.6,8.4-3.1,10.4
			c-1.6,0.9-3.3,1.6-4.7,2.2c-0.1,0-0.2,0.1-0.2,0.1c2,3.2,3.2,6.6,3.4,10.1c0.1,0.9,0.2,3.5-1,6.2c-1.8,4-5.9,6.5-10.5,6.5
			c-1.7,0-3.4-0.4-4.9-1.1c-2-0.9-3.8-2.3-5.2-4.1c-3.3,13.9-12.4,26.6-25.8,35.4v15.9c0,4.4-3.6,8-8,8H261.6z"/>
		<path class="st0" d="M203.2,49c0,0,10.5,4.1,15.2,14.9c7-2.2,14.5-3.4,22.4-3.4c28,0,51.8,14.9,60.7,35.9l6.5,3.4
			c2.4,1.3,4.9,2.6,7.3,4.1c2.4-2.2,5.3-3.4,8.1-4.6c1.4-0.6,2.7-1.1,3.9-1.8c0.4-0.2,0.8-0.3,1.3-0.3c0.9,0,1.8,0.5,2.3,1.4
			c0.7,1.3,0.2,2.9-1.1,3.6c-1.4,0.8-2.9,1.4-4.3,2c-2.2,0.9-4.3,1.8-5.9,3.1c3.7,3.5,5.8,7.7,6.1,12c0.1,0.9,0.1,2.4-0.6,3.8
			c-1,2.3-3.4,3.6-6,3.6c-1,0-2-0.2-2.9-0.6c-2.4-1.1-4.3-3.4-5.2-6.4c-1.2-3.8-0.7-8,1.1-11.4c-2.1-1.4-4.3-2.5-6.5-3.7l-1.6-0.8
			c0.9,3.6,1.4,7.4,1.4,11.2c0,18.2-10.7,34.4-27.1,44.2v18.6c0,1.7-1.4,3-3,3h-13.6c-1.7,0-3-1.4-3-3v-0.8h-5.9c-1.7,0-3-1.4-3-3
			v-5.3c-2.9,0.3-5.8,0.5-8.8,0.5c-4.8,0-9.5-0.5-14-1.3v9.1c0,1.7-1.4,3-3,3h-13.6c-1.7,0-3-1.4-3-3v0h-4.8c-1.7,0-3-1.4-3-3v-17.5
			c-10-7.1-17.4-16.6-20.8-27.5h-7.5c-2.6,0-4.7-2.1-4.7-4.7v-18.7c0-2.6,2.1-4.7,4.7-4.7h7.5c3.1-9.8,9.4-18.6,18-25.4L192.9,55
			c0,0,5.1,1,10.3,4.9V49 M319.1,121.3c0.5,0,1-0.2,1.2-0.5c0.1-0.2,0.1-0.5,0.1-1.2c-0.2-3.5-2.3-6.3-4-8c-0.8,2.1-0.9,4.4-0.3,6.5
			c0.5,1.6,1.3,2.7,2.3,3.1C318.6,121.2,318.9,121.3,319.1,121.3 M193.2,34.4v10.5l-12.7-2.6l2.5,14.4l2.6,14.9
			c-6,5.7-10.7,12.2-14,19.2h-0.7c-8.1,0-14.7,6.6-14.7,14.7v18.7c0,8.1,6.6,14.7,14.7,14.7h0.7c3.9,8.5,9.9,16.1,17.6,22.5v12.6
			c0,7,5.5,12.7,12.4,13c2.3,1.9,5.2,3.1,8.4,3.1h13.6c6.5,0,11.9-4.8,12.9-11c1.4,0.1,2.8,0.1,4.1,0.1c2,4.5,6.5,7.7,11.7,7.8
			c2.4,2.4,5.6,3.8,9.2,3.8h13.6c7.2,0,13-5.8,13-13v-13.2c11-7.8,19-18.1,23.4-29.6c0.2,0.1,0.3,0.2,0.5,0.2c2.2,1,4.6,1.5,7,1.5
			c6.6,0,12.5-3.7,15.1-9.5c1.2-2.6,1.6-5.4,1.4-8.5c-0.2-2.5-0.7-5-1.6-7.4c0.2-0.1,0.4-0.2,0.6-0.3c6.1-3.3,8.4-11,5.1-17.2
			c-2.2-4.1-6.5-6.6-11.1-6.6c-2.1,0-4.2,0.5-6,1.5c-0.8,0.4-1.9,0.9-3.1,1.4c-1.4,0.6-2.9,1.2-4.5,2.1c-0.8-0.4-1.6-0.8-2.3-1.2
			l-3.5-1.8c-5.5-10.9-14.3-20.2-25.7-27c-12.5-7.5-27.3-11.5-42.6-11.5c-6,0-11.9,0.6-17.7,1.8c-6.6-8.6-15.1-12.2-16.3-12.6
			L193.2,34.4L193.2,34.4z"/>
	</g>
	<g>
		<path class="st0" d="M74,296.1c-4.4,0-8-3.6-8-8v-15.9c-13.4-8.8-22.5-21.4-25.8-35.4c-1.4,1.8-3.2,3.2-5.2,4.1
			c-1.6,0.7-3.2,1.1-4.9,1.1c-4.6,0-8.7-2.6-10.5-6.6c-1.2-2.7-1.1-5.3-1-6.1c0.2-3.5,1.4-6.9,3.4-10.1c-0.1,0-0.1-0.1-0.2-0.1
			c-1.5-0.6-3.2-1.4-4.8-2.2c-3.7-2-5.1-6.7-3.1-10.4c1.3-2.5,3.9-4,6.7-4c1.3,0,2.5,0.3,3.7,0.9c1,0.6,2.2,1.1,3.5,1.6
			c2,0.9,4.2,1.8,6.4,3.2c1.6-0.9,3.1-1.7,4.7-2.5l5-2.6c10.5-22.3,36.2-37.2,64.6-37.2c6.8,0,13.4,0.8,19.8,2.5
			c6-9.6,15.5-13.4,15.9-13.6l6.8-2.6v9.7c2.3-0.9,4-1.3,4.3-1.4l7.2-1.5l-4.3,24.8c7.3,6.4,12.8,14,16.1,22.4h4
			c5.3,0,9.7,4.3,9.7,9.7v18.7c0,5.3-4.3,9.7-9.7,9.7h-4c-3.8,9.6-10.4,18.2-19.3,25v15c0,4.4-3.6,8-8,8h-1.5
			c-1.5,1.9-3.8,3.1-6.3,3.1h-13.6c-4.4,0-8-3.6-8-8V284c-3,0.3-6,0.5-9,0.5c-1.3,0-2.5,0-3.8-0.1c-0.1,4.4-3.7,7.9-8,7.9h-2.1
			c-1.4,2.3-4,3.8-6.8,3.8H74z"/>
		<path class="st0" d="M146,159.4v10.8c5.2-3.8,10.3-4.9,10.3-4.9l-3.5,20.4c8.5,6.8,14.8,15.5,18,25.4h7.5c2.6,0,4.7,2.1,4.7,4.7
			v18.7c0,2.6-2.1,4.7-4.7,4.7h-7.5c-3.5,10.9-10.9,20.5-20.8,27.5v17.5c0,1.7-1.4,3-3,3h-4.8v0c0,1.7-1.4,3-3,3h-13.6
			c-1.7,0-3-1.4-3-3v-9.1c-4.5,0.8-9.2,1.3-14,1.3c-3,0-5.9-0.2-8.8-0.5v5.3c0,1.7-1.4,3-3,3h-5.9v0.8c0,1.7-1.4,3-3,3H74
			c-1.7,0-3-1.4-3-3v-18.6c-16.4-9.8-27.1-26-27.1-44.2c0-3.8,0.5-7.6,1.4-11.2l-1.6,0.8c-2.2,1.1-4.5,2.3-6.5,3.7
			c1.8,3.5,2.2,7.7,1.1,11.4c-0.9,3.1-2.8,5.3-5.2,6.4c-0.9,0.4-1.9,0.6-2.9,0.6c-2.5,0-4.9-1.3-6-3.6c-0.6-1.4-0.6-2.8-0.6-3.8
			c0.3-4.3,2.5-8.5,6.1-12c-1.7-1.3-3.7-2.2-5.9-3.1c-1.4-0.6-2.9-1.2-4.3-2c-1.3-0.7-1.8-2.3-1.1-3.6c0.5-0.9,1.4-1.4,2.3-1.4
			c0.4,0,0.9,0.1,1.3,0.3c1.2,0.7,2.5,1.2,3.9,1.8c2.8,1.2,5.7,2.4,8.1,4.6c2.4-1.6,4.9-2.9,7.3-4.1l6.5-3.4
			c9-20.9,32.8-35.9,60.7-35.9c7.9,0,15.4,1.2,22.4,3.4C135.5,163.5,146,159.4,146,159.4 M30.1,231.7c0.2,0,0.5,0,0.7-0.1
			c1-0.4,1.8-1.6,2.3-3.1c0.6-2.1,0.5-4.4-0.3-6.5c-1.7,1.7-3.8,4.6-4,8c0,0.7,0,1.1,0.1,1.2C29.1,231.5,29.6,231.7,30.1,231.7
			 M156,144.8l-13.6,5.3c-1.2,0.5-9.7,4-16.3,12.6c-5.8-1.2-11.7-1.8-17.7-1.8c-15.4,0-30.1,4-42.6,11.5
			c-11.4,6.8-20.2,16.1-25.7,27l-3.5,1.8c-0.8,0.4-1.5,0.8-2.3,1.2c-1.6-0.8-3.1-1.5-4.4-2c-1.2-0.5-2.3-1-3.1-1.4
			c-1.9-1-3.9-1.5-6.1-1.5c-4.6,0-8.9,2.5-11.1,6.6c-3.3,6.1-1.1,13.8,5.1,17.2c0.2,0.1,0.4,0.2,0.6,0.3c-0.9,2.4-1.5,4.9-1.6,7.4
			c-0.2,3.2,0.3,6,1.4,8.6c2.6,5.7,8.5,9.5,15.1,9.5c2.4,0,4.8-0.5,7-1.5c0.2-0.1,0.3-0.2,0.5-0.2c4.4,11.5,12.4,21.8,23.4,29.6
			v13.2c0,7.2,5.8,13,13,13h13.6c3.6,0,6.8-1.5,9.2-3.8c5.2-0.1,9.7-3.3,11.7-7.8c1.4,0,2.8,0,4.1-0.1c1,6.2,6.4,11,12.9,11h13.6
			c3.2,0,6.1-1.2,8.4-3.1c6.9-0.3,12.4-6,12.4-13v-12.6c7.7-6.4,13.7-14,17.6-22.5h0.7c8.1,0,14.7-6.6,14.7-14.7v-18.7
			c0-8.1-6.6-14.7-14.7-14.7h-0.7c-3.3-7.1-8-13.5-14-19.2l2.6-14.9l2.5-14.4l-12.7,2.6V144.8L156,144.8z"/>
	</g>
	<g>
		<path class="st0" d="M302.4,346c-2.9,0-5.4-1.5-6.8-3.8h-2.1c-4.4,0-8-3.5-8-7.9c-1.3,0.1-2.6,0.1-3.8,0.1c-3,0-6-0.2-9-0.5v3.3
			c0,4.4-3.6,8-8,8h-13.6c-2.6,0-4.8-1.2-6.3-3.1h-1.5c-4.4,0-8-3.6-8-8v-15c-8.9-6.8-15.5-15.4-19.3-25h-4c-5.3,0-9.7-4.3-9.7-9.7
			v-18.7c0-5.3,4.3-9.7,9.7-9.7h4c3.3-8.4,8.8-16,16.1-22.4l-4.3-24.8l7.2,1.5c0.3,0.1,2,0.4,4.3,1.4V202l6.8,2.6
			c0.5,0.2,9.9,4,15.9,13.6c6.4-1.6,13.1-2.5,19.8-2.5c28.4,0,54.1,14.9,64.6,37.2l4.9,2.6c1.6,0.8,3.1,1.6,4.7,2.5
			c2.2-1.4,4.4-2.3,6.4-3.2c1.3-0.5,2.5-1.1,3.5-1.6c1.1-0.6,2.4-0.9,3.7-0.9c2.8,0,5.4,1.5,6.7,4c2,3.7,0.6,8.4-3.1,10.4
			c-1.6,0.9-3.3,1.6-4.7,2.2c-0.1,0-0.2,0.1-0.2,0.1c2,3.2,3.2,6.6,3.4,10.1c0.1,0.9,0.2,3.5-1,6.2c-1.8,4-5.9,6.5-10.5,6.5
			c-1.7,0-3.4-0.4-4.9-1.1c-2-0.9-3.8-2.3-5.2-4.1c-3.3,13.9-12.4,26.6-25.8,35.4V338c0,4.4-3.6,8-8,8H302.4z"/>
		<path class="st0" d="M244,209.3c0,0,10.5,4.1,15.2,14.9c7-2.2,14.5-3.4,22.4-3.4c28,0,51.8,14.9,60.7,35.9l6.5,3.4
			c2.4,1.3,4.9,2.6,7.3,4.1c2.4-2.2,5.3-3.4,8.1-4.6c1.4-0.6,2.7-1.1,3.9-1.8c0.4-0.2,0.8-0.3,1.3-0.3c0.9,0,1.8,0.5,2.3,1.4
			c0.7,1.3,0.2,2.9-1.1,3.6c-1.4,0.8-2.9,1.4-4.3,2c-2.2,0.9-4.3,1.8-5.9,3.1c3.7,3.5,5.8,7.7,6.1,12c0.1,0.9,0.1,2.4-0.6,3.8
			c-1,2.3-3.4,3.6-6,3.6c-1,0-2-0.2-2.9-0.6c-2.4-1.1-4.3-3.4-5.2-6.4c-1.2-3.8-0.7-8,1.1-11.4c-2.1-1.4-4.3-2.5-6.5-3.7l-1.6-0.8
			c0.9,3.6,1.4,7.4,1.4,11.2c0,18.2-10.7,34.4-27.1,44.2V338c0,1.7-1.4,3-3,3h-13.6c-1.7,0-3-1.4-3-3v-0.8h-5.9c-1.7,0-3-1.4-3-3
			v-5.3c-2.9,0.3-5.8,0.5-8.8,0.5c-4.8,0-9.5-0.5-14-1.3v9.1c0,1.7-1.4,3-3,3h-13.6c-1.7,0-3-1.4-3-3v0h-4.8c-1.7,0-3-1.4-3-3v-17.5
			c-10-7.1-17.4-16.6-20.8-27.5h-7.5c-2.6,0-4.7-2.1-4.7-4.7v-18.7c0-2.6,2.1-4.7,4.7-4.7h7.5c3.1-9.8,9.4-18.6,18-25.4l-3.5-20.4
			c0,0,5.1,1,10.3,4.9V209.3 M359.9,281.6c0.5,0,1-0.2,1.2-0.5c0.1-0.2,0.1-0.5,0.1-1.2c-0.2-3.5-2.3-6.3-4-8
			c-0.8,2.1-0.9,4.4-0.3,6.5c0.5,1.6,1.3,2.7,2.3,3.1C359.4,281.5,359.7,281.6,359.9,281.6 M234,194.7v10.5l-12.7-2.6l2.5,14.4
			l2.6,14.9c-6,5.7-10.7,12.2-14,19.2h-0.7c-8.1,0-14.7,6.6-14.7,14.7v18.7c0,8.1,6.6,14.7,14.7,14.7h0.7
			c3.9,8.5,9.9,16.1,17.6,22.5v12.6c0,7,5.5,12.7,12.4,13c2.3,1.9,5.2,3.1,8.4,3.1h13.6c6.5,0,11.9-4.8,12.9-11
			c1.4,0.1,2.8,0.1,4.1,0.1c2,4.5,6.5,7.7,11.7,7.8c2.4,2.4,5.6,3.8,9.2,3.8H316c7.2,0,13-5.8,13-13v-13.2c11-7.8,19-18.1,23.4-29.6
			c0.2,0.1,0.3,0.2,0.5,0.2c2.2,1,4.6,1.5,7,1.5c6.6,0,12.5-3.7,15.1-9.5c1.2-2.6,1.6-5.4,1.4-8.5c-0.2-2.5-0.7-5-1.6-7.4
			c0.2-0.1,0.4-0.2,0.6-0.3c6.1-3.3,8.4-11,5.1-17.2c-2.2-4.1-6.5-6.6-11.1-6.6c-2.1,0-4.2,0.5-6,1.5c-0.8,0.4-1.9,0.9-3.1,1.4
			c-1.4,0.6-2.9,1.2-4.5,2.1c-0.8-0.4-1.6-0.8-2.3-1.2l-3.5-1.8c-5.5-10.9-14.3-20.2-25.7-27c-12.5-7.5-27.3-11.5-42.6-11.5
			c-6,0-11.9,0.6-17.7,1.8c-6.6-8.6-15.1-12.2-16.3-12.6L234,194.7L234,194.7z"/>
	</g>
</g>
<g>
	<g>
		<g>
			<g>
				<path class="st1" d="M319.1,126.6c-1,0-2-0.2-2.9-0.6c-2.4-1.1-4.3-3.4-5.2-6.4c-1.2-3.8-0.7-8,1.1-11.4
					c-2.1-1.4-4.3-2.5-6.5-3.7l-6.9-3.6c-1.8-0.9-2.3-0.8-2.3-0.8c-1.2,0.8-2.9,0.5-3.7-0.8c-0.8-1.2-0.5-2.9,0.8-3.7
					c3-1.9,6.4-0.2,7.7,0.5l6.9,3.6c2.4,1.3,4.9,2.6,7.3,4.1c2.4-2.2,5.3-3.4,8.1-4.6c1.4-0.6,2.7-1.1,3.9-1.8
					c1.3-0.7,2.9-0.2,3.6,1.1c0.7,1.3,0.2,2.9-1.1,3.6c-1.4,0.8-2.9,1.4-4.3,2c-2.2,0.9-4.3,1.8-5.9,3.1c3.7,3.5,5.8,7.7,6.1,12
					c0.1,0.9,0.1,2.4-0.6,3.8C324.1,125.2,321.7,126.6,319.1,126.6z M316.4,111.5c-0.8,2.1-0.9,4.4-0.3,6.5c0.5,1.6,1.3,2.7,2.3,3.1
					c0.7,0.3,1.7,0.1,1.9-0.3c0.1-0.2,0.1-0.5,0.1-1.2C320.2,116.1,318.1,113.3,316.4,111.5z"/>
				<path class="st2" d="M203.2,78.8V49c0,0,19.7,7.7,17.3,29.8C220.6,78.8,202.4,78.1,203.2,78.8z"/>
			</g>
			<g>
				<path class="st2" d="M266.3,176.9h-13.6c-1.7,0-3-1.4-3-3V149h19.7v24.8C269.3,175.5,268,176.9,266.3,176.9z"/>
				<path class="st2" d="M215.9,176.9h-13.6c-1.7,0-3-1.4-3-3V149H219v24.8C219,175.5,217.6,176.9,215.9,176.9z"/>
			</g>
			<path class="st1" d="M240.8,60.5c-29.9,0-55,17.1-62.4,40.3h-7.5c-2.6,0-4.7,2.1-4.7,4.7v18.7c0,2.6,2.1,4.7,4.7,4.7h7.5
				c7.4,23.2,32.5,40.3,62.4,40.3c35.7,0,64.6-24.3,64.6-54.3S276.5,60.5,240.8,60.5z"/>
			<path class="st1" d="M197.7,83.1L192.9,55c0,0,19.8,4,21.1,25.3L197.7,83.1z"/>
			<circle class="st3" cx="190.5" cy="96.5" r="3.5"/>
			<path class="st1" d="M275.2,180.7h-13.6c-1.7,0-3-1.4-3-3v-24.8h19.7v24.8C278.3,179.3,276.9,180.7,275.2,180.7z"/>
			<path class="st1" d="M223.7,180h-13.6c-1.7,0-3-1.4-3-3v-24.8h19.7v24.8C226.8,178.6,225.4,180,223.7,180z"/>
		</g>
		<path class="st4" d="M220.4,73.1c0,0,24.6-10.2,44.4,1.4"/>
		<g>
			<path class="st0" d="M223.7,128.1c-1,1-2.4,1.7-4.1,1.9v1.7c0,0.4-0.1,0.8-0.4,1c-0.3,0.3-0.6,0.4-1,0.4s-0.8-0.1-1-0.4
				c-0.3-0.3-0.4-0.6-0.4-1v-1.7c-1.1-0.1-2.1-0.3-3.1-0.7c-1-0.4-1.9-0.8-2.6-1.4c-0.2-0.2-0.4-0.4-0.5-0.6
				c-0.1-0.2-0.1-0.5-0.1-0.7c0-0.4,0.1-0.7,0.3-1c0.2-0.3,0.5-0.4,0.8-0.4c0.2,0,0.4,0,0.5,0.1c0.2,0.1,0.4,0.2,0.6,0.3
				c0.8,0.6,1.7,1,2.5,1.2c0.8,0.3,1.7,0.4,2.6,0.4c1.2,0,2.2-0.2,2.9-0.7c0.7-0.5,1-1.2,1-2.1c0-0.5-0.2-1-0.6-1.3
				c-0.4-0.3-0.8-0.6-1.4-0.8c-0.6-0.2-1.3-0.4-2.3-0.7c-1.4-0.4-2.5-0.7-3.4-1.1c-0.9-0.4-1.6-0.9-2.2-1.6c-0.6-0.7-0.9-1.7-0.9-3
				c0-1.5,0.5-2.8,1.6-3.8s2.5-1.7,4.2-2v-1.7c0-0.4,0.1-0.8,0.4-1c0.3-0.3,0.6-0.4,1-0.4s0.8,0.1,1,0.4c0.3,0.3,0.4,0.6,0.4,1v1.7
				c1.9,0.2,3.5,0.9,4.8,2c0.4,0.3,0.7,0.8,0.7,1.3c0,0.4-0.1,0.7-0.3,1c-0.2,0.3-0.5,0.4-0.8,0.4c-0.2,0-0.3,0-0.5-0.1
				c-0.2-0.1-0.4-0.2-0.6-0.3c-0.8-0.5-1.5-0.9-2.1-1.2c-0.7-0.3-1.5-0.4-2.4-0.4c-1.1,0-2.1,0.3-2.7,0.8c-0.7,0.5-1,1.2-1,2.1
				c0,0.6,0.2,1.1,0.6,1.5c0.4,0.4,0.9,0.7,1.5,0.9c0.6,0.2,1.4,0.4,2.4,0.7c1.3,0.3,2.4,0.7,3.3,1c0.8,0.4,1.6,0.9,2.2,1.6
				c0.6,0.7,0.9,1.7,0.9,2.9C225.2,125.9,224.7,127.1,223.7,128.1z"/>
		</g>
		<text transform="matrix(1 0 0 1 229.3721 131.5557)" class="st0 st5 st6">37</text>
	</g>
	<g>
		<g>
			<g>
				<path class="st7" d="M24.1,233.4c-0.6-1.4-0.6-2.8-0.6-3.8c0.3-4.3,2.5-8.5,6.1-12c-1.7-1.3-3.7-2.2-5.9-3.1
					c-1.4-0.6-2.9-1.2-4.3-2c-1.3-0.7-1.8-2.3-1.1-3.6c0.7-1.3,2.3-1.8,3.6-1.1c1.2,0.7,2.5,1.2,3.9,1.8c2.8,1.2,5.7,2.4,8.1,4.6
					c2.4-1.6,4.9-2.9,7.3-4.1l6.9-3.6c1.3-0.7,4.7-2.5,7.7-0.5c1.2,0.8,1.6,2.4,0.8,3.7c-0.8,1.2-2.4,1.6-3.7,0.8
					c0,0-0.5-0.1-2.3,0.8l-6.9,3.6c-2.2,1.1-4.5,2.3-6.5,3.7c1.8,3.5,2.2,7.7,1.1,11.4c-0.9,3.1-2.8,5.3-5.2,6.4
					c-0.9,0.4-1.9,0.6-2.9,0.6C27.5,237,25.1,235.7,24.1,233.4z M28.8,230c0,0.7,0,1.1,0.1,1.2c0.2,0.4,1.2,0.7,1.9,0.3
					c1-0.4,1.8-1.6,2.3-3.1c0.6-2.1,0.5-4.4-0.3-6.5C31.2,223.7,29.1,226.5,28.8,230z"/>
				<path class="st8" d="M128.7,189.3c-2.4-22.2,17.3-29.8,17.3-29.8v29.8C146.8,188.5,128.7,189.3,128.7,189.3z"/>
			</g>
			<g>
				<path class="st8" d="M79.9,284.3v-24.8h19.7v24.8c0,1.7-1.4,3-3,3H82.9C81.2,287.3,79.9,286,79.9,284.3z"/>
				<path class="st8" d="M130.3,284.3v-24.8H150v24.8c0,1.7-1.4,3-3,3h-13.6C131.6,287.3,130.3,286,130.3,284.3z"/>
			</g>
			<path class="st7" d="M43.8,225.2c0,30,28.9,54.3,64.6,54.3c29.9,0,55-17.1,62.4-40.3h7.5c2.6,0,4.7-2.1,4.7-4.7v-18.7
				c0-2.6-2.1-4.7-4.7-4.7h-7.5c-7.4-23.2-32.5-40.3-62.4-40.3C72.8,170.9,43.8,195.2,43.8,225.2z"/>
			<path class="st7" d="M135.2,190.7c1.3-21.3,21.1-25.3,21.1-25.3l-4.8,28.1L135.2,190.7z"/>
			<circle class="st3" cx="158.7" cy="207" r="3.5"/>
			<path class="st7" d="M71,288.1v-24.8h19.7v24.8c0,1.7-1.4,3-3,3H74C72.3,291.1,71,289.8,71,288.1z"/>
			<path class="st7" d="M122.5,287.4v-24.8h19.7v24.8c0,1.7-1.4,3-3,3h-13.6C123.8,290.4,122.5,289,122.5,287.4z"/>
		</g>
		<path class="st4" d="M128.8,183.5c0,0-24.6-10.2-44.4,1.4"/>
		<g>
			<path class="st0" d="M84.7,239.1c-1,1-2.4,1.7-4.1,1.9v1.7c0,0.4-0.1,0.8-0.4,1c-0.3,0.3-0.6,0.4-1,0.4s-0.8-0.1-1-0.4
				c-0.3-0.3-0.4-0.6-0.4-1v-1.7c-1.1-0.1-2.1-0.3-3.1-0.7c-1-0.4-1.9-0.8-2.6-1.4c-0.2-0.2-0.4-0.4-0.5-0.6
				c-0.1-0.2-0.1-0.5-0.1-0.7c0-0.4,0.1-0.7,0.3-1c0.2-0.3,0.5-0.4,0.8-0.4c0.2,0,0.4,0,0.5,0.1c0.2,0.1,0.4,0.2,0.6,0.3
				c0.8,0.6,1.7,1,2.5,1.2c0.8,0.3,1.7,0.4,2.6,0.4c1.2,0,2.2-0.2,2.9-0.7c0.7-0.5,1-1.2,1-2.1c0-0.5-0.2-1-0.6-1.3
				c-0.4-0.3-0.8-0.6-1.4-0.8c-0.6-0.2-1.3-0.4-2.3-0.7c-1.4-0.4-2.5-0.7-3.4-1.1c-0.9-0.4-1.6-0.9-2.2-1.6c-0.6-0.7-0.9-1.7-0.9-3
				c0-1.5,0.5-2.8,1.6-3.8c1.1-1.1,2.5-1.7,4.2-2v-1.7c0-0.4,0.1-0.8,0.4-1c0.3-0.3,0.6-0.4,1-0.4c0.4,0,0.8,0.1,1,0.4
				c0.3,0.3,0.4,0.6,0.4,1v1.7c1.9,0.2,3.5,0.9,4.8,2c0.4,0.3,0.7,0.8,0.7,1.3c0,0.4-0.1,0.7-0.3,1c-0.2,0.3-0.5,0.4-0.8,0.4
				c-0.2,0-0.3,0-0.5-0.1c-0.2-0.1-0.4-0.2-0.6-0.3c-0.8-0.5-1.5-0.9-2.1-1.2c-0.7-0.3-1.5-0.4-2.4-0.4c-1.1,0-2.1,0.3-2.7,0.8
				c-0.7,0.5-1,1.2-1,2.1c0,0.6,0.2,1.1,0.6,1.5c0.4,0.4,0.9,0.7,1.5,0.9c0.6,0.2,1.4,0.4,2.4,0.7c1.3,0.3,2.4,0.7,3.3,1
				c0.8,0.4,1.6,0.9,2.2,1.6c0.6,0.7,0.9,1.7,0.9,2.9C86.2,236.8,85.7,238.1,84.7,239.1z"/>
		</g>
		<text transform="matrix(1 0 0 1 90.3765 242.5127)" class="st0 st5 st6">45</text>
	</g>
	<g>
		<g>
			<g>
				<g>
					<path class="st9" d="M359.9,286.9c-1,0-2-0.2-2.9-0.6c-2.4-1.1-4.3-3.4-5.2-6.4c-1.2-3.8-0.7-8,1.1-11.4
						c-2.1-1.4-4.3-2.5-6.5-3.7l-6.9-3.6c-1.8-0.9-2.3-0.8-2.3-0.8c-1.2,0.8-2.9,0.5-3.7-0.8c-0.8-1.2-0.5-2.9,0.8-3.7
						c3-1.9,6.4-0.2,7.7,0.5l6.9,3.6c2.4,1.3,4.9,2.6,7.3,4.1c2.4-2.2,5.3-3.4,8.1-4.6c1.4-0.6,2.7-1.1,3.9-1.8
						c1.3-0.7,2.9-0.2,3.6,1.1c0.7,1.3,0.2,2.9-1.1,3.6c-1.4,0.8-2.9,1.4-4.3,2c-2.2,0.9-4.3,1.8-5.9,3.1c3.7,3.5,5.8,7.7,6.1,12
						c0.1,0.9,0.1,2.4-0.6,3.8C364.9,285.5,362.5,286.9,359.9,286.9z M357.2,271.8c-0.8,2.1-0.9,4.4-0.3,6.5
						c0.5,1.6,1.3,2.7,2.3,3.1c0.7,0.3,1.7,0.1,1.9-0.3c0.1-0.2,0.1-0.5,0.1-1.2C360.9,276.4,358.8,273.6,357.2,271.8z"/>
					<path class="st10" d="M244,239.2v-29.8c0,0,19.7,7.7,17.3,29.8C261.3,239.2,243.2,238.4,244,239.2z"/>
				</g>
				<g>
					<path class="st10" d="M307.1,337.2h-13.6c-1.7,0-3-1.4-3-3v-24.8h19.7v24.8C310.1,335.8,308.8,337.2,307.1,337.2z"/>
					<path class="st10" d="M256.7,337.2h-13.6c-1.7,0-3-1.4-3-3v-24.8h19.7v24.8C259.7,335.8,258.4,337.2,256.7,337.2z"/>
				</g>
				<path class="st9" d="M281.6,220.8c-29.9,0-55,17.1-62.4,40.3h-7.5c-2.6,0-4.7,2.1-4.7,4.7v18.7c0,2.6,2.1,4.7,4.7,4.7h7.5
					c7.4,23.2,32.5,40.3,62.4,40.3c35.7,0,64.6-24.3,64.6-54.3S317.2,220.8,281.6,220.8z"/>
				<path class="st9" d="M238.5,243.4l-4.8-28.1c0,0,19.8,4,21.1,25.3L238.5,243.4z"/>
				<circle class="st11" cx="231.3" cy="256.8" r="3.5"/>
				<path class="st9" d="M316,341h-13.6c-1.7,0-3-1.4-3-3v-24.8H319V338C319,339.6,317.7,341,316,341z"/>
				<path class="st9" d="M264.5,340.3h-13.6c-1.7,0-3-1.4-3-3v-24.8h19.7v24.8C267.5,338.9,266.2,340.3,264.5,340.3z"/>
			</g>
			<path class="st12" d="M261.2,233.4c0,0,24.6-10.2,44.4,1.4"/>
		</g>
		<g>
			<path class="st0" d="M261.6,289.7c-1,1-2.4,1.7-4.1,1.9v1.7c0,0.4-0.1,0.8-0.4,1c-0.3,0.3-0.6,0.4-1,0.4c-0.4,0-0.8-0.1-1-0.4
				c-0.3-0.3-0.4-0.6-0.4-1v-1.7c-1.1-0.1-2.1-0.3-3.1-0.7c-1-0.4-1.9-0.8-2.6-1.4c-0.2-0.2-0.4-0.4-0.5-0.6
				c-0.1-0.2-0.1-0.5-0.1-0.7c0-0.4,0.1-0.7,0.3-1c0.2-0.3,0.5-0.4,0.8-0.4c0.2,0,0.4,0,0.5,0.1c0.2,0.1,0.4,0.2,0.6,0.3
				c0.8,0.6,1.7,1,2.5,1.2c0.8,0.3,1.7,0.4,2.6,0.4c1.2,0,2.2-0.2,2.9-0.7c0.7-0.5,1-1.2,1-2.1c0-0.5-0.2-1-0.6-1.3
				c-0.4-0.3-0.8-0.6-1.4-0.8c-0.6-0.2-1.3-0.4-2.3-0.7c-1.4-0.4-2.5-0.7-3.4-1.1c-0.9-0.4-1.6-0.9-2.2-1.6c-0.6-0.7-0.9-1.7-0.9-3
				c0-1.5,0.5-2.8,1.6-3.8s2.5-1.7,4.2-2v-1.7c0-0.4,0.1-0.8,0.4-1c0.3-0.3,0.6-0.4,1-0.4c0.4,0,0.8,0.1,1,0.4
				c0.3,0.3,0.4,0.6,0.4,1v1.7c1.9,0.2,3.5,0.9,4.8,2c0.4,0.3,0.7,0.8,0.7,1.3c0,0.4-0.1,0.7-0.3,1c-0.2,0.3-0.5,0.4-0.8,0.4
				c-0.2,0-0.3,0-0.5-0.1c-0.2-0.1-0.4-0.2-0.6-0.3c-0.8-0.5-1.5-0.9-2.1-1.2c-0.7-0.3-1.5-0.4-2.4-0.4c-1.1,0-2.1,0.3-2.7,0.8
				c-0.7,0.5-1,1.2-1,2.1c0,0.6,0.2,1.1,0.6,1.5c0.4,0.4,0.9,0.7,1.5,0.9c0.6,0.2,1.4,0.4,2.4,0.7c1.3,0.3,2.4,0.7,3.3,1
				c0.8,0.4,1.6,0.9,2.2,1.6c0.6,0.7,0.9,1.7,0.9,2.9C263.1,287.5,262.6,288.7,261.6,289.7z"/>
		</g>
		<text transform="matrix(1 0 0 1 267.3154 293.1611)" class="st0 st5 st6">25</text>
	</g>
</g>
</svg>
