<?xml version="1.0" encoding="utf-8"?>
<!-- Generator: Adobe Illustrator 22.0.1, SVG Export Plug-In . SVG Version: 6.00 Build 0)  -->
<svg version="1.1" id="Layer_1" xmlns="http://www.w3.org/2000/svg" xmlns:xlink="http://www.w3.org/1999/xlink" x="0px" y="0px"
	 viewBox="0 0 336.7 400" style="enable-background:new 0 0 336.7 400;" xml:space="preserve">
<style type="text/css">
	.st0{fill:#FFFFFF;}
	.st1{fill:#D6707A;}
	.st2{fill:#F19CA2;}
	.st3{fill:#804047;}
	.st4{fill:none;stroke:#F19CA2;stroke-width:7.0532;stroke-linecap:round;stroke-linejoin:round;stroke-miterlimit:10;}
	.st5{fill:#76CEE4;}
	.st6{fill:#60C1D8;}
	.st7{fill:#1EAFD8;}
	.st8{fill:#033333;}
	.st9{enable-background:new    ;}
	.st10{fill:#FCC62D;}
	.st11{fill:#FADC3C;}
	.st12{fill:#E7C42A;}
	.st13{fill:#F9DC39;}
	.st14{fill:#7C6608;}
	.st15{fill:#E8A434;}
	.st16{fill:#E58E34;}
	.st17{fill:#E5852E;}
	.st18{fill:#BC6415;}
	.st19{fill:#AEB9C1;}
	.st20{fill:#3D4449;}
</style>
<g>
	<path class="st0" d="M88.4,372.7c-4.9,0-9.2-2.2-11.9-6.2c-10.8-15.6-36-57.5-36-108.5v-4.8c0-0.7,0.1-1.3,0.2-1.7
		c0-0.1,0-0.1,0-0.2v-0.2c0-0.7,0.1-1.2,0.1-1.7c0-0.1,0-0.2,0-0.4v-0.5c0-0.8,0.1-1.4,0.2-1.8c0-0.4,0.1-0.8,0.2-1.2
		c0-0.3,0.1-0.6,0.1-0.9l0-0.1c0-0.5,0.1-1,0.3-1.5c0,0,0,0,0,0c0-0.4,0.1-1.1,0.3-1.8c0-0.1,0.1-0.3,0.1-0.4c0-0.5,0.1-1,0.3-1.7
		c0-0.2,0.1-0.4,0.2-0.6c0-0.1,0-0.2,0.1-0.3c0.1-0.3,0.1-0.8,0.3-1.4c0-0.2,0.1-0.6,0.2-0.9c0.1-0.4,0.1-0.9,0.3-1.5
		c0.1-0.3,0.1-0.8,0.3-1.2c0-0.1,0.1-0.3,0.1-0.4c0,0,0-0.2,0-0.2c0.1-0.3,0.1-0.8,0.4-1.5c0.1-0.2,0.1-0.3,0.2-0.4
		c0-0.1,0.1-0.2,0.1-0.3c0.2-0.6,0.4-1.3,0.6-2c0.2-0.6,0.4-1.2,0.5-1.7c0,0,0,0,0,0l-1.2-0.5c-0.7,2.3-2,4.7-4.2,6.6
		c0,0-0.1,0-0.1,0.1c-2.2,1.8-5.1,2.9-7.8,2.9c-2.5,0-4.7-0.8-6.5-2.4c-3.7-3.3-4.6-8.8-2.3-13.4c0.4-0.9,1-1.7,1.6-2.4l-3.5-1.6
		c-2.3-1-3.4-3.6-2.7-6c0.6-2.2,2.6-3.6,4.8-3.6c0.2,0,0.5,0,0.7,0.1c4.7,0.7,8.9,1.7,13,3.1c0.1,0,0.3,0.1,0.4,0.2
		c0.2,0.1,0.4,0.2,0.6,0.2c0.7,0.3,1.5,0.6,2.3,1.2c3.6,0.1,7.3,1.1,10.5,2.8c16.4-31.5,49-51.5,84.7-51.5h59.2v-17.8
		c0-4.8,3.9-8.8,8.7-8.8c1.1,0,2.1,0.2,3.1,0.6c4.8,1.7,10.1,5.4,14.7,10c5.3,5.4,9.5,12.2,12.4,19.7c1.2,0.3,2.3,0.7,3.5,1.1
		c0,0,3.4-16.1,3.4-16.2c1-4,4.6-6.8,8.7-6.8c1.6,0,3.1,0.4,4.4,1.2c7.5,4.4,21.2,19.4,21.2,45c7.7,7.7,13.9,16.5,18.6,26.2
		c0.1,0,0.3,0,0.4,0c6.3,0,11.4,5.1,11.4,11.4c0,3.7-1.8,7.1-4.7,9.2c0.1,0.5,0.2,1,0.3,1.4h1.8c0.2,0,0.4,0,0.6,0
		c0.7-0.1,1.3-0.2,2-0.2c10.2,0,15.5,14.6,15.5,29s-5.3,29-15.5,29c-0.7,0-1.3-0.1-2-0.2c-0.2,0-0.4,0-0.6,0h-7.8
		c-6.6,14.9-16.8,27.8-29.8,37.7l3.4,24.1c0,0.2,0,0.3,0,0.5c0.2,3.4-1.1,6.7-3.5,9.3c-2.5,2.6-6,4.1-9.6,4.1h-19.7
		c-4.1,0-7.8-2-10.2-5c-2.7,3.5-6.9,5.8-11.6,5.8h-20.9c-8,0-14.5-6.5-14.5-14.5v-4.5h-19.6v3.8c0,7.2-5.9,13.1-13.1,13.1h-18.6
		c-3.2,0-6.2-1.2-8.6-3.3c-2.7,3.3-6.8,5.5-11.3,5.5H88.4z"/>
	<path class="st0" d="M204.1,140.7c0.4,0,0.9,0.1,1.3,0.3c6.9,2.4,19.1,11.4,25,29.2c3.8,1,7.4,2.2,11,3.6l4.6-21.7
		c0.4-1.8,2.1-3,3.8-3c0.6,0,1.2,0.2,1.8,0.5c7.3,4.3,19.5,18.9,18.7,42.8c8.8,8.4,16,18.7,20.9,30.1c0.9-0.6,2.1-0.9,3.2-0.9
		c3.5,0,6.4,2.9,6.4,6.4c0,3.2-2.4,5.9-5.5,6.3c0.8,3,1.5,6.1,2,9.3h6c0.4,0,0.7,0,1.1,0.1c0.5-0.2,1-0.3,1.5-0.3
		c5.8,0,10.5,10.7,10.5,24c0,13.3-4.7,24-10.5,24c-0.5,0-1-0.1-1.5-0.3c-0.3,0-0.7,0.1-1.1,0.1h-11.1c-6.6,16.3-17.7,30.3-31.8,40.4
		c0.2,0.7,0.3,1.4,0.3,2.2l3.5,24.9c0.2,4.4-3.5,8.1-8.1,8.1h-19.7c-4.4,0-8.1-3.7-8.1-8.1l-0.6-12.4c-0.3,0.1-0.6,0.1-0.9,0.2
		l-2.9,13.6c-0.9,4.3-4.9,7.5-9.3,7.5h-20.9c-5.2,0-9.5-4.3-9.5-9.5v-9.5h-29.6v8.8c0,4.5-3.7,8.1-8.1,8.1h-18.6
		c-4.4,0-8.1-3.7-8.1-8.1v-10.3c-0.8-0.2-1.5-0.3-2.3-0.5v11.6c0,5.2-4.3,9.5-9.5,9.5H88.4c-3.1,0-6-1.4-7.8-4
		C71.8,351,45.5,309.5,45.5,258c0-0.7,0-1.3,0-2.1c0-0.1,0-0.4,0-0.6c0-0.4,0-1,0-1.5c0-0.1,0-0.4,0-0.6c0-0.6,0.2-1.2,0.2-1.8
		c0-0.1,0-0.1,0-0.3c0-0.6,0.2-1.4,0.2-2c0-0.1,0-0.4,0-0.6c0-0.5,0.2-0.9,0.2-1.4c0.2-0.3,0.2-0.5,0.2-0.8c0-0.4,0.2-1,0.2-1.5
		c0.2-0.3,0.2-0.4,0.2-0.6c0.1-0.6,0.1-1.2,0.3-1.8c0-0.2,0.2-0.5,0.2-0.8c0-0.4,0-0.7,0.2-1.2c0-0.3,0.2-0.6,0.2-0.9
		c0.1-0.3,0.1-0.8,0.3-1.1c0.1-0.4,0.1-0.7,0.3-1.2c0.1-0.5,0.1-0.9,0.3-1.4c0.1-0.3,0.1-0.8,0.3-1.1c0-0.3,0.2-0.5,0.2-0.8
		c0.1-0.4,0.1-0.7,0.3-1.2c0-0.1,0.2-0.4,0.2-0.6c0.5-1.4,0.9-2.9,1.4-4.3v-0.2c0.3-0.4,0.4-1,0.6-1.5c0.3-0.7,0.5-1.3,0.8-2
		l-11.7-5.3c0.2,0.8,0.2,1.7,0.1,2.6c-0.3,2.7-1.3,5.8-3.4,7.6c-1.3,1.1-3,1.7-4.7,1.7c-1.2,0-2.3-0.3-3.1-1.1
		c-2.1-1.9-2.4-5.1-1.2-7.5c1.2-2.4,3.5-4.1,6.1-5c0.5-0.2,0.9-0.3,1.4-0.5L24,211.3c4.2,0.6,8.1,1.5,12.1,2.9
		c1.1,0.5,2.3,0.9,3.1,1.7c0,0.1,0.1,0.1,0.1,0.2c0.3,0,0.7,0,1,0c4.8,0,9.7,1.9,13.2,5.2c14.1-31.7,45.9-54,82.7-54h64.2v-22.8
		C200.4,142.4,202.1,140.7,204.1,140.7 M204.1,130.7C204.1,130.7,204.1,130.7,204.1,130.7c-3.6,0-7.1,1.5-9.7,4
		c-2.6,2.6-4,6.1-4,9.7v12.8h-54.2c-35.9,0-69,19.4-86.9,50.2c-2.2-0.7-4.5-1.2-6.8-1.4c-0.7-0.3-1.3-0.6-1.8-0.8
		c-0.2-0.1-0.3-0.1-0.5-0.2c-0.3-0.1-0.6-0.2-0.8-0.3c-4.5-1.6-8.9-2.6-14-3.4c-0.5-0.1-1-0.1-1.4-0.1c-4.4,0-8.3,2.9-9.6,7.2
		c-1.2,4.3,0.5,8.8,4.1,11.1c-2.1,6.1-0.5,13,4.3,17.4c2.6,2.4,6.1,3.7,9.9,3.7c1.5,0,3.1-0.2,4.6-0.7c0,0,0,0,0,0
		c-0.2,0.8-0.3,1.4-0.4,1.9c-0.2,0.6-0.3,1.3-0.4,1.9c0,0.2-0.1,0.4-0.1,0.6c-0.1,0.5-0.2,1-0.3,1.4c-0.1,0.6-0.3,1.4-0.3,2.5v0.2
		c-0.1,0.5-0.2,1.3-0.2,2.2c-0.1,0.5-0.2,1.4-0.2,2.3v0.6v1.5v0.6v2.1c0,52.5,25.8,95.4,36.9,111.4c3.6,5.2,9.6,8.3,16,8.3H108
		c4.5,0,8.6-1.5,11.9-4.1c2.4,1.2,5.1,1.9,8,1.9h18.6c9.6,0,17.4-7.5,18.1-16.9h9.6c0.3,10.5,8.9,19,19.5,19h20.9
		c4.3,0,8.4-1.4,11.7-3.9c2.9,2,6.4,3.1,10.1,3.1h19.7c5,0,9.8-2,13.2-5.6c3.4-3.5,5.1-8.1,4.9-12.9c0-0.3,0-0.6-0.1-0.9l-3-21.3
		c11.7-9.5,21.1-21.3,27.6-34.8h4.6c0.1,0,0.1,0,0.2,0c0.8,0.1,1.6,0.2,2.4,0.2c12.1,0,20.5-14,20.5-34c0-17.8-6.7-30.9-16.7-33.5
		c0.7-1.8,1.1-3.8,1.1-5.9c0-8.1-5.9-14.8-13.6-16.2c-4.5-8.6-10.1-16.5-16.9-23.6c-0.7-23.3-12.3-40.6-23.6-47.3
		c-2.1-1.3-4.5-1.9-7-1.9c-6.4,0-12,4.4-13.5,10.7c0,0.1,0,0.2-0.1,0.3l-1.2,5.8c-7.4-13.4-18-21.3-26-24.2
		C207.4,131,205.7,130.7,204.1,130.7L204.1,130.7z"/>
</g>
<path class="st1" d="M146.5,365.5h-18.6c-4.4,0-8.1-3.7-8.1-8.1V335c0-4.4,3.7-8.1,8.1-8.1h18.6c4.4,0,8.1,3.7,8.1,8.1v22.4
	C154.6,361.9,150.9,365.5,146.5,365.5z"/>
<path class="st1" d="M256.1,366.8h-19.7c-4.4,0-8.1-3.7-8.1-8.1l-1.2-24.9c0-4.4,3.7-8.1,8.1-8.1h17.4c4.4,0,8.1,3.7,8.1,8.1
	l3.5,24.9C264.4,363.1,260.7,366.8,256.1,366.8z"/>
<g>
	<path class="st2" d="M303.3,243.6h-6c-6.9-43.1-44.4-76.3-89.5-76.3h-71.6c-38.6,0-71.8,24.6-84.7,58.8l0,0
		c-0.2,0.5-0.3,1.1-0.6,1.5v0.2c-0.5,1.4-0.9,2.9-1.4,4.3c0,0.2-0.2,0.5-0.2,0.6c-0.2,0.5-0.2,0.8-0.3,1.2c0,0.3-0.2,0.5-0.2,0.8
		c-0.2,0.3-0.2,0.8-0.3,1.1c-0.2,0.5-0.2,0.9-0.3,1.4c-0.2,0.5-0.2,0.8-0.3,1.2c-0.2,0.3-0.2,0.8-0.3,1.1c0,0.3-0.2,0.6-0.2,0.9
		c-0.2,0.5-0.2,0.8-0.2,1.2c0,0.3-0.2,0.6-0.2,0.8c-0.2,0.6-0.2,1.2-0.3,1.8c0,0.2,0,0.3-0.2,0.6c0,0.5-0.2,1.1-0.2,1.5
		c0,0.3,0,0.5-0.2,0.8c0,0.5-0.2,0.9-0.2,1.4c0,0.2,0,0.5,0,0.6c0,0.6-0.2,1.4-0.2,2c0,0.2,0,0.2,0,0.3c0,0.6-0.2,1.2-0.2,1.8
		c0,0.2,0,0.5,0,0.6c0,0.5,0,1.1,0,1.5c0,0.2,0,0.5,0,0.6c0,0.8,0,1.4,0,2.1l0,0l0,0l0,0c0,51.5,26.3,93,35.1,105.7
		c1.8,2.6,4.7,4,7.8,4H108c5.2,0,9.5-4.3,9.5-9.5v-11.6c6.1,1.4,12.5,2,19.1,2h47.6v9.5c0,5.2,4.3,9.5,9.5,9.5h20.9
		c4.4,0,8.4-3.2,9.3-7.5l2.9-13.6c29.8-6.4,54.2-27.5,65.4-55.3h11.1c5.3,0,9.5-4.3,9.5-9.5V253
		C312.8,247.8,308.5,243.6,303.3,243.6z"/>
	<path class="st2" d="M246,152.1l-7.9,37.1c-1.1,5.2,2.1,10.2,7.3,11.3l13.3,2.9c5.6,1.2,11.1-2.7,11.5-8.6
		c1.7-25.3-11.1-40.8-18.6-45.2C249.5,148.3,246.6,149.6,246,152.1z"/>
	<path class="st2" d="M200.4,144.5v38c0,5.3,4.3,9.5,9.5,9.5h13.6c5.8,0,10.2-5,9.5-10.7c-3.7-25.2-19.4-37.4-27.6-40.3
		C203,140,200.4,141.9,200.4,144.5z"/>
	<g>
		<path class="st3" d="M183.9,183.5h-43.2c-2.6,0-4.7-2.1-4.7-4.7l0,0c0-2.6,2.1-4.7,4.7-4.7h43.2c2.6,0,4.7,2.1,4.7,4.7l0,0
			C188.6,181.4,186.5,183.5,183.9,183.5z"/>
	</g>
</g>
<circle class="st3" cx="294.4" cy="228" r="6.4"/>
<ellipse class="st3" cx="275.4" cy="228" rx="6.4" ry="6.4"/>
<ellipse class="st1" cx="305.9" cy="267.4" rx="10.5" ry="24"/>
<circle class="st2" cx="301.6" cy="268.3" r="3.2"/>
<circle class="st2" cx="311.4" cy="268.3" r="3.2"/>
<g>
	<path class="st1" d="M190.6,331.5h-66.3c-37.3,0-67.8-30.5-67.8-67.8v-6.3c0-37.3,30.5-67.8,67.8-67.8h66.3
		c37.3,0,67.8,30.5,67.8,67.8v6.3C258.4,301,227.9,331.5,190.6,331.5z"/>
	<g>
		<path class="st3" d="M69.4,267.2c0-36,31.5-65.7,69.9-65.7h61.8c16,0,30.8,5.2,42.6,13.7c-12.8-15.6-33-25.7-55.4-25.7h-61.7
			c-38.5,0-69.9,29.5-69.9,65.7V266c0,21.1,10.7,39.9,27.3,51.9c-9.2-11.1-14.7-24.9-14.7-40C69.4,277.9,69.4,267.2,69.4,267.2z"/>
	</g>
</g>
<path class="st4" d="M57.2,226.3c-3.8-8.1-14.4-12.4-22.8-9.2c-2.6,0.9-4.9,2.6-6.1,5s-0.9,5.6,1.2,7.5s5.6,1.2,7.8-0.6
	c2.1-1.8,3.1-4.9,3.4-7.6c0.2-2-0.2-4.1-1.5-5.5c-0.8-0.8-2-1.2-3.1-1.7c-4-1.4-7.9-2.3-12.1-2.9"/>
<g>
	
		<ellipse transform="matrix(0.9732 -0.2298 0.2298 0.9732 -63.9174 55.0402)" class="st3" cx="204.4" cy="302" rx="20.9" ry="20.9"/>
	<path class="st3" d="M230.8,241.2c-1.8,0-3.5,0.3-5.1,0.8l-4-27c-0.6-3.9-4.3-6.6-8.1-6l-77,11.5c-3.9,0.6-6.6,4.3-6,8.1l1.2,7.8
		c-2.8-5.8-8.8-9.9-15.7-9.9c-9.6,0-17.4,7.8-17.4,17.4c0,4.9,2,9.3,5.3,12.5l-1.2-0.3c-3.9-0.9-7.7,1.5-8.6,5.2l-10.1,41.1
		c-0.9,3.9,1.5,7.7,5.2,8.6l74.6,18.4c3.9,0.9,7.7-1.5,8.6-5.2l10.1-41.2c0.9-3.9-1.5-7.7-5.2-8.6l-5.8-1.4l43.7-6.5
		c2.9,5.6,8.7,9.5,15.5,9.5c9.6,0,17.4-7.8,17.4-17.4C248.2,249,240.4,241.2,230.8,241.2z M133.3,246.6l2.6,17.6l-14.8-3.6
		C127.5,258.7,132.3,253.3,133.3,246.6z"/>
</g>
<g>
	<g>
		<g>
			<g>
				<g>
					<g>
						<path class="st5" d="M142,272.9c-3.8,0.6-7.5-2.1-8.1-6l-6.3-42.3c-0.6-3.8,2.1-7.5,6-8.1l77-11.5c3.8-0.6,7.5,2.1,8.1,6
							l6.3,42.4c0.6,3.8-2.1,7.5-6,8.1L142,272.9L142,272.9z"/>
					</g>
				</g>
				<g>
					<g>
						<path class="st6" d="M210.2,255.5l-61.5,9.2c-0.6-4.1-4.6-7.2-8.9-6.6l-4-26.9c4.1-0.6,7.2-4.6,6.6-8.9l61.5-9.2
							c0.6,4.1,4.6,7.2,8.9,6.6l4,26.9C212.5,247.2,209.6,251.2,210.2,255.5z"/>
					</g>
				</g>
			</g>
			<g>
				<g>
					<circle class="st7" cx="136.5" cy="224.9" r="3.1"/>
				</g>
				<g>
					<circle class="st7" cx="210.5" cy="213.9" r="3.1"/>
				</g>
			</g>
			<g>
				<g>
					<circle class="st7" cx="142.4" cy="264.3" r="3.1"/>
				</g>
				<g>
					<circle class="st7" cx="216.5" cy="253.2" r="3.1"/>
				</g>
			</g>
			<g>
				<g>
					<circle class="st5" cx="147.8" cy="228.9" r="1.8"/>
				</g>
			</g>
			<g>
				<g>
					<ellipse class="st5" cx="153.7" cy="230.3" rx="1.8" ry="1.8"/>
				</g>
			</g>
			<g>
				<g>
					<ellipse class="st5" cx="194" cy="221.7" rx="1.8" ry="1.8"/>
				</g>
			</g>
			<g>
				<g>
					<circle class="st5" cx="141.4" cy="236.1" r="1.8"/>
				</g>
			</g>
			<g>
				<g>
					<circle class="st5" cx="151.4" cy="258.8" r="1.8"/>
				</g>
			</g>
			<g>
				<g>
					<ellipse class="st5" cx="157.4" cy="253.8" rx="1.8" ry="1.8"/>
				</g>
			</g>
			<g>
				<g>
					<circle class="st5" cx="144.1" cy="254.4" r="1.8"/>
				</g>
			</g>
			<g>
				<g>
					<circle class="st5" cx="142" cy="246.3" r="1.8"/>
				</g>
			</g>
			<g>
				<g>
					<ellipse class="st5" cx="203.2" cy="222.5" rx="1.8" ry="1.8"/>
				</g>
			</g>
			<g>
				<g>
					<ellipse class="st5" cx="201.1" cy="233.3" rx="1.8" ry="1.8"/>
				</g>
			</g>
			<g>
				<g>
					<ellipse class="st5" cx="209.2" cy="228.6" rx="1.8" ry="1.8"/>
				</g>
			</g>
			<g>
				<g>
					<ellipse class="st5" cx="209.7" cy="239.3" rx="1.8" ry="1.8"/>
				</g>
			</g>
			<g>
				<g>
					<ellipse class="st5" cx="203.3" cy="241.4" rx="1.8" ry="1.8"/>
				</g>
			</g>
			<g>
				<g>
					<ellipse class="st5" cx="197.4" cy="248.7" rx="1.8" ry="1.8"/>
				</g>
			</g>
			<g>
				<g>
					<ellipse class="st5" cx="206" cy="249.5" rx="1.8" ry="1.8"/>
				</g>
			</g>
			<g id="XMLID_104_">
				<path class="st0" d="M150.7,250.9c-0.3,0-0.6-0.2-0.6-0.5l-0.2-0.8c-1.1,0-1.8,0-2.7-0.6l0.2,0.8c0,0.3-0.2,0.6-0.5,0.6
					s-0.6-0.2-0.6-0.5l-0.5-3.2c0-0.3,0.2-0.6,0.5-0.6s0.6,0.2,0.6,0.5l0.2,1.2c0.6,0.6,1.1,0.6,2.1,0.9c0.3,0,0.5,0.2,0.8,0.2
					l-0.8-5c-1.1-0.2-1.8-0.3-2.3-0.5c-0.6-0.2-1.1-0.5-1.4-0.8s-0.6-0.8-0.8-1.4c-0.2-1.1,0-1.8,0.6-2.6c0.6-0.6,1.5-1.1,2.9-1.4
					l-0.2-0.6c0-0.3,0.2-0.6,0.5-0.6s0.6,0.2,0.6,0.5l0.2,0.8c0.9,0,1.8,0.2,2.6,0.6c0.2,0.2,0.2,0.2,0.3,0.3l-0.2-0.8
					c0-0.3,0.2-0.6,0.5-0.6s0.6,0.2,0.6,0.5l0.5,3.2c0,0.3-0.2,0.6-0.5,0.6s-0.6-0.2-0.6-0.5l-0.2-1.1c-0.6-0.6-1.2-1.1-2.1-1.2
					c-0.3,0-0.5-0.2-0.8-0.2l0.8,4.7c0.2,0,0.5,0,0.8,0.2c0.6,0,1.4,0.2,1.8,0.3c0.6,0.2,1.1,0.5,1.4,0.8s0.6,0.9,0.8,1.4
					c0.2,1.1-0.2,2-0.8,2.7c-0.6,0.8-1.7,1.2-3.1,1.4l0.2,0.6C151.1,250.6,151,250.7,150.7,250.9 M148.2,248.9c0.2,0,0.2,0,0.3,0
					C148.5,248.9,148.4,248.9,148.2,248.9 M150.2,243.9l0.8,4.7c1.1-0.2,1.8-0.5,2.3-1.1s0.8-1.2,0.6-1.8c0-0.5-0.2-0.8-0.5-0.9
					c-0.3-0.3-0.6-0.5-1.1-0.6c-0.5-0.2-0.8-0.2-1.2-0.2L150.2,243.9z M153.7,247.7c0,0.2-0.2,0.2-0.2,0.3c-0.2,0.2-0.2,0.2-0.3,0.3
					c0.2-0.2,0.3-0.2,0.5-0.5C153.7,247.7,153.7,247.7,153.7,247.7 M148.2,238.1c-1.1,0.2-1.7,0.5-2.1,0.9s-0.6,1.1-0.5,1.7
					c0,0.5,0.2,0.8,0.5,0.9c0.3,0.3,0.6,0.5,1.1,0.6c0.5,0.2,0.8,0.2,1.2,0.3c0.3,0,0.5,0.2,0.6,0L148.2,238.1L148.2,238.1z"/>
			</g>
			<g id="XMLID_85_">
				<g id="XMLID_102_">
					<g id="XMLID_103_">
						<path class="st8" d="M178.9,259.4c-0.9,0.2-1.5,0.9-1.4,1.8l0.8-0.2c0-0.5,0.2-0.8,0.6-0.9c0.5-0.2,0.8,0.2,0.9,0.6l0.8-0.2
							C180.6,259.9,179.8,259.3,178.9,259.4z"/>
					</g>
				</g>
				<g id="XMLID_100_">
					<g id="XMLID_101_">
						<path class="st8" d="M174.8,260c-0.9,0.2-1.5,0.9-1.4,1.8l0.8-0.2c0-0.5,0.2-0.8,0.6-0.9c0.5-0.2,0.8,0.2,0.9,0.6l0.8-0.2
							C176.5,260.5,175.7,259.9,174.8,260z"/>
					</g>
				</g>
				<g id="XMLID_98_">
					<g id="XMLID_99_">
						<path class="st8" d="M183.2,258.8c-0.9,0.2-1.5,0.9-1.4,1.8l0.8-0.2c0-0.5,0.2-0.8,0.6-0.9c0.5,0,0.8,0.2,0.9,0.6l0.8-0.2
							C184.9,259.3,184,258.7,183.2,258.8z"/>
					</g>
				</g>
				<g id="XMLID_96_">
					<g id="XMLID_97_">
						<path class="st8" d="M166.6,261.3c-0.9,0.2-1.5,0.9-1.4,1.8l0.8-0.2c0-0.5,0.2-0.8,0.6-0.9c0.4-0.1,0.8,0.2,0.9,0.6l0.8-0.2
							C168.2,261.7,167.5,261.1,166.6,261.3z"/>
					</g>
				</g>
				<g id="XMLID_94_">
					<g id="XMLID_95_">
						<path class="st8" d="M162.3,261.9c-0.9,0.2-1.5,0.9-1.4,1.8l0.8-0.2c0-0.5,0.2-0.8,0.6-0.9c0.5,0,0.8,0.2,0.9,0.6l0.8-0.2
							C164.1,262.3,163.2,261.7,162.3,261.9z"/>
					</g>
				</g>
				<g id="XMLID_92_">
					<g id="XMLID_93_">
						<path class="st8" d="M170.7,260.7c-0.9,0.2-1.5,0.9-1.4,1.8l0.8-0.2c0-0.5,0.2-0.8,0.6-0.9c0.5-0.2,0.8,0.2,0.9,0.6l0.8-0.2
							C172.4,261.1,171.6,260.5,170.7,260.7z"/>
					</g>
				</g>
				<g id="XMLID_90_">
					<g id="XMLID_91_">
						<path class="st8" d="M191.4,257.4c-0.9,0.2-1.5,0.9-1.4,1.8l0.8-0.2c0-0.5,0.2-0.8,0.6-0.9c0.5,0,0.8,0.2,0.9,0.6l0.8-0.2
							C193.1,258.1,192.4,257.4,191.4,257.4z"/>
					</g>
				</g>
				<g id="XMLID_88_">
					<g id="XMLID_89_">
						<path class="st8" d="M187.3,258.2c-0.9,0.2-1.5,0.9-1.4,1.8l0.8-0.2c0-0.5,0.2-0.8,0.6-0.9c0.4-0.1,0.8,0.2,0.9,0.6l0.8-0.2
							C189,258.7,188.1,258.1,187.3,258.2z"/>
					</g>
				</g>
				<g id="XMLID_86_">
					<g id="XMLID_87_">
						<path class="st8" d="M195.6,256.8c-0.9,0.2-1.5,0.9-1.4,1.8l0.8-0.2c0-0.5,0.2-0.8,0.6-0.9c0.5,0,0.8,0.2,0.9,0.6l0.8-0.2
							C197.2,257.4,196.5,256.8,195.6,256.8z"/>
					</g>
				</g>
			</g>
			<g id="XMLID_8_">
				<g id="XMLID_83_">
					<g id="XMLID_84_">
						<path class="st8" d="M172.8,218.5c0.9-0.2,1.5-0.9,1.4-1.8l-0.8,0.2c0,0.5-0.2,0.8-0.6,0.9c-0.5,0-0.8-0.2-0.9-0.6l-0.8,0.2
							C171.1,218.1,172.1,218.7,172.8,218.5z"/>
					</g>
				</g>
				<g id="XMLID_81_">
					<g id="XMLID_82_">
						<path class="st8" d="M177.1,217.9c0.9-0.2,1.5-0.9,1.4-1.8l-0.8,0.2c0,0.5-0.2,0.8-0.6,0.9c-0.5,0.2-0.8-0.2-0.9-0.6l-0.8,0.2
							C175.4,217.4,176.2,218.1,177.1,217.9z"/>
					</g>
				</g>
				<g id="XMLID_79_">
					<g id="XMLID_80_">
						<path class="st8" d="M168.7,219.1c0.9-0.2,1.5-0.9,1.4-1.8l-0.8,0.2c0,0.5-0.2,0.8-0.6,0.9c-0.5,0.2-0.8-0.2-0.9-0.6L167,218
							C167,218.7,167.9,219.3,168.7,219.1z"/>
					</g>
				</g>
				<g id="XMLID_77_">
					<g id="XMLID_78_">
						<path class="st8" d="M185.3,216.7c0.9-0.2,1.5-0.9,1.4-1.8l-0.8,0.2c0,0.5-0.2,0.8-0.6,0.9c-0.5,0.2-0.8-0.2-0.9-0.6l-0.8,0.2
							C183.7,216.1,184.4,216.7,185.3,216.7z"/>
					</g>
				</g>
				<g id="XMLID_75_">
					<g id="XMLID_76_">
						<path class="st8" d="M189.5,216.1c0.9-0.2,1.5-0.9,1.4-1.8l-0.8,0.2c0,0.5-0.2,0.8-0.6,0.9c-0.5,0-0.8-0.2-0.9-0.6l-0.8,0.2
							C187.8,215.5,188.5,216.1,189.5,216.1z"/>
					</g>
				</g>
				<g id="XMLID_73_">
					<g id="XMLID_74_">
						<path class="st8" d="M181.2,217.3c0.9-0.2,1.5-0.9,1.4-1.8l-0.8,0.2c0,0.5-0.2,0.8-0.6,0.9c-0.5,0.2-0.8-0.2-0.9-0.6l-0.8,0.2
							C179.5,216.8,180.3,217.4,181.2,217.3z"/>
					</g>
				</g>
				<g id="XMLID_71_">
					<g id="XMLID_72_">
						<path class="st8" d="M160.5,220.3c0.9-0.2,1.5-0.9,1.4-1.8l-0.8,0.2c0,0.5-0.2,0.8-0.6,0.9c-0.5,0-0.8-0.2-0.9-0.6l-0.8,0.2
							C158.8,219.9,159.5,220.5,160.5,220.3z"/>
					</g>
				</g>
				<g id="XMLID_69_">
					<g id="XMLID_70_">
						<path class="st8" d="M164.6,219.7c0.9-0.2,1.5-0.9,1.4-1.8l-0.8,0.2c0,0.5-0.2,0.8-0.6,0.9c-0.5,0-0.8-0.2-0.9-0.6l-0.8,0.2
							C162.9,219.3,163.7,219.9,164.6,219.7z"/>
					</g>
				</g>
				<g id="XMLID_29_">
					<g id="XMLID_68_">
						<path class="st8" d="M156.3,221c0.9-0.2,1.5-0.9,1.4-1.8l-0.8,0.2c0,0.5-0.2,0.8-0.6,0.9c-0.5,0.2-0.8-0.2-0.9-0.6l-0.8,0.2
							C154.5,220.5,155.4,221.1,156.3,221z"/>
					</g>
				</g>
			</g>
		</g>
		<g>
			<circle class="st7" cx="176" cy="238.5" r="19.5"/>
		</g>
		<g>
			<g>
				<ellipse class="st6" cx="176" cy="238.5" rx="16.9" ry="16.9"/>
			</g>
		</g>
		<g>
			<g class="st9">
				<g>
					<path class="st0" d="M176.5,245.8c0.1,0.9-0.3,1.5-1.4,1.6l-9.9,1.5c-0.5,0.1-0.8,0-1.1-0.2s-0.5-0.5-0.5-0.9
						c-0.1-0.5,0.1-1,0.4-1.5l5-7.2c0.6-0.9,1-1.7,1.3-2.4c0.2-0.7,0.3-1.4,0.2-2.1c-0.1-0.8-0.4-1.4-1-1.8
						c-0.5-0.4-1.2-0.5-2.1-0.3c-0.7,0.1-1.4,0.3-2,0.7s-1.2,0.8-1.8,1.4c-0.2,0.1-0.3,0.3-0.5,0.4c-0.2,0.1-0.3,0.2-0.5,0.2
						c-0.3,0-0.6-0.1-0.8-0.3c-0.3-0.2-0.4-0.6-0.5-0.9c0-0.3,0-0.5,0-0.7c0.1-0.2,0.2-0.4,0.4-0.6c0.7-0.7,1.5-1.3,2.5-1.8
						s2-0.8,3-1c1.8-0.3,3.3,0,4.5,0.7s1.9,1.9,2.1,3.4c0.2,1.1,0.1,2.1-0.2,3.1s-0.9,2.1-1.8,3.4l-3.8,5.4l6.8-1
						C175.8,244.5,176.4,244.9,176.5,245.8z"/>
				</g>
				<g>
					<path class="st0" d="M180.4,244.4c-1.4-1.4-2.3-3.7-2.8-6.7s-0.2-5.4,0.7-7.2s2.4-2.8,4.6-3.1c2.2-0.3,3.9,0.2,5.3,1.7
						c1.4,1.4,2.3,3.7,2.7,6.7c0.5,3,0.2,5.5-0.7,7.2c-0.9,1.8-2.4,2.8-4.6,3.2C183.5,246.4,181.7,245.8,180.4,244.4z M187.6,241.4
						c0.4-1.2,0.4-2.9,0-5.3c-0.4-2.4-0.9-4-1.6-5c-0.7-1-1.6-1.4-2.8-1.2s-2,0.8-2.3,2c-0.4,1.2-0.4,2.9,0,5.3c0.4,2.4,0.9,4,1.6,5
						c0.7,1,1.6,1.4,2.8,1.2C186.4,243.3,187.2,242.6,187.6,241.4z"/>
				</g>
			</g>
		</g>
	</g>
	<g>
		<g>
			<g>
				<g>
					<path class="st10" d="M201.4,318.9c-11.5,0-20.9-9.5-20.9-20.9s9.5-20.9,20.9-20.9s20.9,9.5,20.9,20.9S213.1,318.9,201.4,318.9
						z"/>
				</g>
			</g>
			<g>
				<circle class="st11" cx="201.4" cy="298" r="15.1"/>
				<path class="st12" d="M201.4,313.6c-8.6,0-15.6-7-15.6-15.6s7-15.6,15.6-15.6s15.6,7,15.6,15.6
					C217.1,306.6,210.1,313.6,201.4,313.6z M201.4,283.4c-8.1,0-14.6,6.6-14.6,14.6c0,8.1,6.6,14.6,14.6,14.6S216,306,216,298
					C216.1,289.9,209.5,283.4,201.4,283.4z"/>
			</g>
		</g>
		<g>
			<g>
				<g>
					<path class="st13" d="M202.8,315.2c-0.3,0-0.5-0.2-0.5-0.5c0-0.3,0.2-0.5,0.5-0.6c0.2,0,0.3,0,0.5,0c0.3,0,0.5,0.2,0.6,0.5
						c0,0.3-0.2,0.5-0.5,0.6C203.2,315.2,203,315.2,202.8,315.2C202.9,315.2,202.8,315.2,202.8,315.2z M199.1,315.1L199.1,315.1
						c-0.3,0-0.4-0.1-0.6-0.1c-0.3,0-0.5-0.3-0.4-0.6c0-0.3,0.3-0.5,0.6-0.4c0.2,0,0.3,0.1,0.5,0.1c0.3,0,0.5,0.3,0.4,0.6
						C199.6,315,199.4,315.1,199.1,315.1z M207,314.4c-0.2,0-0.4-0.1-0.5-0.4c-0.1-0.3,0.1-0.6,0.3-0.7s0.3-0.1,0.5-0.2
						c0.3-0.1,0.6,0,0.7,0.3c0.1,0.3,0,0.6-0.3,0.7c-0.2,0.1-0.3,0.1-0.5,0.2C207.1,314.4,207,314.4,207,314.4z M195,314
						c-0.1,0-0.1,0-0.2,0c-0.2-0.1-0.3-0.1-0.5-0.2c-0.3-0.1-0.4-0.4-0.3-0.7c0.1-0.3,0.4-0.4,0.7-0.3c0.2,0.1,0.3,0.1,0.5,0.2
						c0.3,0.1,0.4,0.4,0.3,0.7C195.4,313.9,195.2,314,195,314z M210.7,312.5c-0.2,0-0.3-0.1-0.4-0.2c-0.2-0.2-0.1-0.6,0.1-0.7
						c0.1-0.1,0.3-0.2,0.4-0.3c0.2-0.2,0.6-0.1,0.7,0.1c0.2,0.2,0.1,0.6-0.1,0.7c-0.1,0.1-0.3,0.2-0.4,0.3
						C210.9,312.5,210.8,312.5,210.7,312.5z M191.4,311.9c-0.1,0-0.2,0-0.3-0.1s-0.3-0.2-0.4-0.3c-0.2-0.2-0.3-0.5-0.1-0.7
						c0.2-0.2,0.5-0.3,0.7-0.1c0.1,0.1,0.3,0.2,0.4,0.3c0.2,0.2,0.3,0.5,0.1,0.7C191.7,311.9,191.5,311.9,191.4,311.9z M213.9,309.7
						c-0.1,0-0.2,0-0.3-0.1c-0.2-0.2-0.2-0.5,0-0.7c0.1-0.1,0.2-0.3,0.3-0.4c0.2-0.2,0.5-0.2,0.7-0.1c0.2,0.2,0.2,0.5,0.1,0.7
						c-0.1,0.1-0.2,0.3-0.4,0.4C214.2,309.7,214.1,309.7,213.9,309.7z M188.3,309c-0.2,0-0.3-0.1-0.4-0.2c-0.1-0.1-0.2-0.3-0.3-0.4
						c-0.2-0.2-0.1-0.6,0.1-0.7c0.2-0.2,0.6-0.1,0.7,0.1c0.1,0.1,0.2,0.3,0.3,0.4c0.2,0.2,0.1,0.6-0.1,0.7
						C188.6,309,188.4,309,188.3,309z M216.4,306.3c-0.1,0-0.2,0-0.2-0.1c-0.3-0.1-0.4-0.4-0.2-0.7c0.1-0.2,0.2-0.3,0.2-0.5
						c0.1-0.3,0.4-0.4,0.7-0.2c0.3,0.1,0.4,0.4,0.2,0.7c-0.1,0.2-0.2,0.3-0.2,0.5C216.7,306.2,216.5,306.3,216.4,306.3z
						 M186.1,305.4c-0.2,0-0.4-0.1-0.5-0.3c-0.1-0.2-0.1-0.3-0.2-0.5c-0.1-0.3,0-0.6,0.3-0.7c0.3-0.1,0.6,0,0.7,0.3
						c0.1,0.2,0.1,0.3,0.2,0.5c0.1,0.3,0,0.6-0.3,0.7C186.3,305.4,186.2,305.4,186.1,305.4z M217.8,302.3h-0.1
						c-0.3-0.1-0.5-0.3-0.4-0.6c0-0.2,0.1-0.3,0.1-0.5c0.1-0.3,0.3-0.5,0.6-0.4s0.5,0.3,0.4,0.6c0,0.2-0.1,0.4-0.1,0.5
						C218.3,302.1,218.1,302.3,217.8,302.3z M184.9,301.4c-0.2,0-0.5-0.2-0.5-0.4c0-0.2-0.1-0.4-0.1-0.5c0-0.3,0.2-0.5,0.4-0.6
						c0.3,0,0.6,0.2,0.6,0.4c0,0.2,0.1,0.3,0.1,0.5C185.5,301,185.3,301.3,184.9,301.4C185,301.4,184.9,301.4,184.9,301.4z
						 M218.2,298.1c-0.3,0-0.5-0.2-0.5-0.5c0-0.2,0-0.3,0-0.5c0-0.3,0.2-0.5,0.5-0.6c0.3,0,0.5,0.2,0.6,0.5c0,0.2,0,0.4,0,0.5
						C218.8,297.8,218.5,298.1,218.2,298.1L218.2,298.1z M184.7,297.1L184.7,297.1c-0.3,0-0.5-0.3-0.5-0.6c0-0.2,0-0.4,0.1-0.5
						c0-0.3,0.2-0.5,0.6-0.5c0.3,0,0.5,0.3,0.5,0.6c0,0.2,0,0.3,0,0.5C185.2,296.9,185,297.1,184.7,297.1z M217.6,293.9
						c-0.2,0-0.4-0.1-0.5-0.4c0-0.2-0.1-0.3-0.1-0.5c-0.1-0.3,0.1-0.6,0.3-0.7c0.3-0.1,0.6,0.1,0.7,0.3c0.1,0.2,0.1,0.3,0.2,0.5
						c0.1,0.3-0.1,0.6-0.4,0.6C217.7,293.9,217.7,293.9,217.6,293.9z M185.6,293c-0.1,0-0.1,0-0.2,0c-0.3-0.1-0.4-0.4-0.3-0.7
						c0.1-0.2,0.1-0.3,0.2-0.5c0.1-0.3,0.4-0.4,0.7-0.3s0.4,0.4,0.3,0.7c-0.1,0.2-0.1,0.3-0.2,0.5C186,292.9,185.8,293,185.6,293z
						 M215.9,290c-0.2,0-0.4-0.1-0.4-0.3c-0.1-0.1-0.2-0.3-0.3-0.4c-0.2-0.2-0.1-0.6,0.2-0.7c0.2-0.2,0.6-0.1,0.7,0.2
						c0.1,0.2,0.2,0.3,0.3,0.5c0.1,0.2,0.1,0.6-0.2,0.7C216.1,290,216,290,215.9,290z M187.5,289.2c-0.1,0-0.2,0-0.3-0.1
						c-0.2-0.2-0.3-0.5-0.1-0.7c0.1-0.2,0.2-0.3,0.3-0.4c0.2-0.2,0.5-0.3,0.7-0.1c0.2,0.2,0.3,0.5,0.1,0.7c-0.1,0.1-0.2,0.3-0.3,0.4
						C187.8,289.1,187.6,289.2,187.5,289.2z M213.4,286.7c-0.1,0-0.3-0.1-0.4-0.2c-0.1-0.1-0.2-0.2-0.4-0.4c-0.2-0.2-0.2-0.5,0-0.7
						c0.2-0.2,0.5-0.2,0.7,0c0.1,0.1,0.3,0.3,0.4,0.4c0.2,0.2,0.2,0.5,0,0.7C213.6,286.6,213.5,286.7,213.4,286.7z M190.2,286
						c-0.1,0-0.3-0.1-0.4-0.2c-0.2-0.2-0.2-0.5,0-0.7c0.1-0.1,0.3-0.2,0.4-0.4c0.2-0.2,0.5-0.2,0.7,0.1c0.2,0.2,0.2,0.5-0.1,0.7
						c-0.1,0.1-0.3,0.2-0.4,0.3C190.5,286,190.3,286,190.2,286z M210,284.1c-0.1,0-0.2,0-0.3-0.1s-0.3-0.2-0.4-0.3
						c-0.3-0.1-0.3-0.5-0.2-0.7c0.1-0.3,0.5-0.3,0.7-0.2s0.3,0.2,0.5,0.3s0.3,0.5,0.2,0.7C210.4,284,210.2,284.1,210,284.1z
						 M193.7,283.6c-0.2,0-0.4-0.1-0.5-0.3c-0.1-0.3,0-0.6,0.2-0.7c0.2-0.1,0.3-0.2,0.5-0.2c0.3-0.1,0.6,0,0.7,0.2
						c0.1,0.3,0,0.6-0.2,0.7c-0.2,0.1-0.3,0.2-0.5,0.2C193.9,283.6,193.8,283.6,193.7,283.6z M206.2,282.4h-0.1
						c-0.2,0-0.3-0.1-0.5-0.1c-0.3-0.1-0.4-0.4-0.4-0.6c0.1-0.3,0.4-0.4,0.6-0.4c0.2,0,0.4,0.1,0.5,0.1c0.3,0.1,0.4,0.4,0.4,0.6
						C206.6,282.2,206.4,282.4,206.2,282.4z M197.7,282.1c-0.2,0-0.5-0.2-0.5-0.4c-0.1-0.3,0.1-0.6,0.4-0.6c0.2,0,0.4-0.1,0.5-0.1
						c0.3-0.1,0.6,0.1,0.6,0.4c0.1,0.3-0.1,0.6-0.4,0.6c-0.2,0-0.3,0.1-0.5,0.1C197.7,282.1,197.7,282.1,197.7,282.1z M202,281.7
						L202,281.7c-0.2,0-0.4,0-0.5,0c-0.3,0-0.5-0.2-0.5-0.5c0-0.3,0.2-0.5,0.5-0.5c0.2,0,0.4,0,0.5,0c0.3,0,0.5,0.2,0.5,0.5
						C202.5,281.5,202.3,281.7,202,281.7z"/>
				</g>
			</g>
		</g>
		<g>
			<g class="st9">
				<g>
					<path class="st14" d="M201.2,303.1c0,0.6-0.4,1-1.1,1h-6.2c-0.7,0-1.1-0.3-1.1-1c0-0.6,0.4-0.9,1.1-0.9h1.9v-8.3l-1.7,1.1
						c-0.2,0.1-0.3,0.1-0.5,0.1c-0.3,0-0.5-0.1-0.6-0.3c-0.2-0.2-0.3-0.5-0.3-0.7c0-0.4,0.2-0.6,0.5-0.8l2.8-1.8
						c0.4-0.2,0.7-0.3,1-0.3s0.6,0.1,0.8,0.3c0.2,0.2,0.3,0.5,0.3,0.9v9.9h1.9C200.8,302.2,201.2,302.5,201.2,303.1z"/>
				</g>
				<g>
					<path class="st14" d="M203.9,302.6c-0.8-1.1-1.2-2.8-1.2-4.9c0-2.1,0.4-3.8,1.2-4.9c0.8-1.1,2-1.7,3.5-1.7s2.7,0.6,3.5,1.7
						s1.2,2.8,1.2,4.9s-0.4,3.8-1.2,4.9s-2,1.7-3.5,1.7C205.8,304.3,204.7,303.7,203.9,302.6z M209.2,301.3c0.4-0.8,0.6-2,0.6-3.6
						c0-1.7-0.2-2.9-0.6-3.6c-0.4-0.7-1-1.1-1.8-1.1s-1.4,0.4-1.8,1.1c-0.4,0.8-0.6,2-0.6,3.6c0,1.7,0.2,2.9,0.6,3.6
						c0.4,0.8,1,1.1,1.8,1.1S208.8,302,209.2,301.3z"/>
				</g>
			</g>
		</g>
	</g>
	<g>
		<g>
			<g>
				<g>
					<g>
						<path class="st15" d="M86.3,307c-3.7-0.9-6.1-4.7-5.2-8.6l10.1-41.1c0.9-3.7,4.7-6.1,8.6-5.2l74.6,18.3
							c3.7,0.9,6.1,4.7,5.2,8.6l-10.1,41.2c-0.9,3.7-4.7,6.1-8.6,5.2L86.3,307L86.3,307z"/>
					</g>
				</g>
				<g>
					<g>
						<path class="st16" d="M155.1,316.8l-59.7-14.6c1-4.1-1.6-8.3-5.6-9.3l6.4-26.1c4.1,1,8.3-1.6,9.3-5.6l59.7,14.6
							c-1,4.1,1.6,8.3,5.6,9.3l-6.4,26.1C160.4,310.1,156.2,312.7,155.1,316.8z"/>
					</g>
				</g>
			</g>
			<g>
				<g>
					<ellipse class="st17" cx="99.3" cy="261.3" rx="3.1" ry="3.1"/>
				</g>
				<g>
					<ellipse class="st17" cx="171.1" cy="279" rx="3.1" ry="3.1"/>
				</g>
			</g>
			<g>
				<g>
					<ellipse class="st17" cx="89.9" cy="299.5" rx="3.1" ry="3.1"/>
				</g>
				<g>
					<ellipse class="st17" cx="161.8" cy="317" rx="3.1" ry="3.1"/>
				</g>
			</g>
			<g>
				<g>
					<circle class="st15" cx="108.1" cy="269.1" r="1.7"/>
				</g>
			</g>
			<g>
				<g>
					<circle class="st15" cx="113" cy="272.7" r="1.7"/>
				</g>
			</g>
			<g>
				<g>
					<circle class="st15" cx="153.1" cy="279.9" r="1.7"/>
				</g>
			</g>
			<g>
				<g>
					<circle class="st15" cx="99.5" cy="273.3" r="1.7"/>
				</g>
			</g>
			<g>
				<g>
					<circle class="st15" cx="100.1" cy="297.8" r="1.7"/>
				</g>
			</g>
			<g>
				<g>
					<circle class="st15" cx="107.5" cy="295.5" r="1.7"/>
				</g>
			</g>
			<g>
				<g>
					<circle class="st15" cx="95.2" cy="291.1" r="1.7"/>
				</g>
			</g>
			<g>
				<g>
					<circle class="st15" cx="96.2" cy="282.8" r="1.7"/>
				</g>
			</g>
			<g>
				<g>
					<circle class="st15" cx="161.2" cy="284" r="1.7"/>
				</g>
			</g>
			<g>
				<g>
					<circle class="st15" cx="155.1" cy="293" r="1.7"/>
				</g>
			</g>
			<g>
				<g>
					<circle class="st15" cx="164.3" cy="291.7" r="1.7"/>
				</g>
			</g>
			<g>
				<g>
					<circle class="st15" cx="160.7" cy="301.8" r="1.7"/>
				</g>
			</g>
			<g>
				<g>
					<circle class="st15" cx="154.2" cy="301.3" r="1.7"/>
				</g>
			</g>
			<g>
				<g>
					<circle class="st15" cx="145.9" cy="305.7" r="1.7"/>
				</g>
			</g>
			<g>
				<g>
					<circle class="st15" cx="153.5" cy="309.7" r="1.7"/>
				</g>
			</g>
			<g id="XMLID_67_">
				<path class="st0" d="M102.5,290.2c-0.3-0.1-0.5-0.4-0.4-0.7l0.2-0.7c-1.1-0.4-1.6-0.8-2.2-1.6l-0.2,0.7
					c-0.1,0.3-0.4,0.5-0.7,0.4c-0.3-0.1-0.5-0.4-0.4-0.7l0.8-3.2c0.1-0.3,0.4-0.5,0.7-0.4c0.3,0.1,0.5,0.4,0.4,0.7l-0.3,1.1
					c0.4,0.7,0.7,1,1.5,1.6c0.2,0.2,0.4,0.2,0.6,0.4l1.2-5c-0.9-0.6-1.6-1-1.9-1.3c-0.5-0.4-0.8-0.8-1-1.3c-0.3-0.4-0.3-0.9-0.1-1.5
					c0.2-1,0.8-1.7,1.6-2.1c0.7-0.4,1.8-0.4,3.2-0.2l0.1-0.6c0.1-0.3,0.4-0.5,0.7-0.4s0.5,0.4,0.4,0.7l-0.2,0.7
					c0.9,0.3,1.6,0.9,2.1,1.5c0.1,0.1,0.1,0.3,0.1,0.4l0.2-0.7c0.1-0.3,0.4-0.5,0.7-0.4c0.3,0.1,0.5,0.4,0.4,0.7l-0.8,3.2
					c-0.1,0.3-0.4,0.5-0.7,0.4c-0.3-0.1-0.5-0.4-0.4-0.7l0.3-1.1c-0.4-0.7-0.9-1.4-1.6-1.9c-0.2-0.2-0.4-0.2-0.6-0.4l-1.1,4.5
					c0.1,0.1,0.3,0.2,0.7,0.4c0.5,0.3,1.2,0.6,1.6,1c0.5,0.4,0.8,0.8,1,1.3c0.3,0.4,0.2,1,0.1,1.6c-0.3,1.1-0.8,1.8-1.7,2.2
					c-0.8,0.4-2,0.5-3.3,0.2l-0.1,0.6C103.1,290.2,102.8,290.3,102.5,290.2 M101,287.5c0.1,0.1,0.1,0.1,0.2,0.2
					C101.3,287.7,101.1,287.6,101,287.5 M104.7,283.5l-1.1,4.6c1,0.2,1.9,0.2,2.5-0.1c0.7-0.3,1-0.8,1.2-1.5c0.1-0.3,0.1-0.7-0.1-1
					c-0.1-0.4-0.4-0.7-0.7-0.9c-0.3-0.2-0.7-0.5-1-0.6L104.7,283.5z M106.5,288.4c-0.1,0.1-0.1,0.1-0.3,0.2
					c-0.1,0.1-0.3,0.1-0.4,0.1c0.1-0.1,0.4,0,0.5-0.2C106.4,288.5,106.5,288.5,106.5,288.4 M105.1,277.5c-1-0.2-1.7-0.2-2.3,0
					c-0.5,0.2-0.9,0.7-1.1,1.4c-0.1,0.3-0.1,0.7,0.1,1c0.1,0.4,0.4,0.7,0.7,0.9c0.3,0.2,0.7,0.5,1,0.6c0.2,0.2,0.3,0.2,0.5,0.3
					L105.1,277.5L105.1,277.5z"/>
			</g>
			<g id="XMLID_48_">
				<g id="XMLID_65_">
					<g id="XMLID_66_">
						<g>
							<path class="st18" d="M125.1,308.6c-0.8-0.2-1.7,0.3-2,1.2l0.8,0.2c0.1-0.5,0.5-0.7,1-0.6s0.7,0.5,0.6,1l0.8,0.2
								C126.5,309.7,126,308.9,125.1,308.6z"/>
						</g>
					</g>
				</g>
				<g id="XMLID_63_">
					<g id="XMLID_64_">
						<g>
							<path class="st18" d="M121.2,307.7c-0.8-0.2-1.7,0.3-2,1.2l0.8,0.2c0.1-0.5,0.5-0.7,1-0.6c0.5,0.1,0.7,0.5,0.6,1l0.8,0.2
								C122.6,308.7,122.1,307.9,121.2,307.7z"/>
						</g>
					</g>
				</g>
				<g id="XMLID_61_">
					<g id="XMLID_62_">
						<g>
							<path class="st18" d="M129.2,309.6c-0.8-0.2-1.7,0.3-2,1.2l0.8,0.2c0.1-0.5,0.5-0.7,1-0.6s0.7,0.5,0.6,1l0.8,0.2
								C130.6,310.7,130.1,309.9,129.2,309.6z"/>
						</g>
					</g>
				</g>
				<g id="XMLID_59_">
					<g id="XMLID_60_">
						<g>
							<path class="st18" d="M113.2,305.7c-0.8-0.2-1.7,0.3-2,1.2l0.8,0.2c0.1-0.5,0.5-0.7,1-0.6c0.5,0.1,0.7,0.5,0.6,1l0.8,0.2
								C114.5,306.7,113.9,305.9,113.2,305.7z"/>
						</g>
					</g>
				</g>
				<g id="XMLID_57_">
					<g id="XMLID_58_">
						<g>
							<path class="st18" d="M109.1,304.7c-0.8-0.2-1.7,0.3-2,1.2l0.8,0.2c0.1-0.5,0.5-0.7,1-0.6c0.5,0.1,0.7,0.5,0.6,1l0.8,0.2
								C110.4,305.7,109.9,304.9,109.1,304.7z"/>
						</g>
					</g>
				</g>
				<g id="XMLID_55_">
					<g id="XMLID_56_">
						<g>
							<path class="st18" d="M117.1,306.7c-0.8-0.2-1.7,0.3-2,1.2l0.8,0.2c0.1-0.5,0.5-0.7,1-0.6c0.5,0.1,0.7,0.5,0.6,1l0.8,0.2
								C118.5,307.7,117.9,306.9,117.1,306.7z"/>
						</g>
					</g>
				</g>
				<g id="XMLID_53_">
					<g id="XMLID_54_">
						<g>
							<path class="st18" d="M137.3,311.6c-0.8-0.2-1.7,0.3-2,1.2l0.8,0.2c0.1-0.5,0.5-0.7,1-0.6s0.7,0.5,0.6,1l0.8,0.2
								C138.7,312.7,138.1,311.8,137.3,311.6z"/>
						</g>
					</g>
				</g>
				<g id="XMLID_51_">
					<g id="XMLID_52_">
						<g>
							<path class="st18" d="M133.2,310.6c-0.8-0.2-1.7,0.3-2,1.2l0.8,0.2c0.1-0.5,0.5-0.7,1-0.6s0.7,0.5,0.6,1l0.8,0.2
								C134.5,311.7,134,310.8,133.2,310.6z"/>
						</g>
					</g>
				</g>
				<g id="XMLID_49_">
					<g id="XMLID_50_">
						<g>
							<path class="st18" d="M141.2,312.6c-0.8-0.2-1.7,0.3-2,1.2l0.8,0.2c0.1-0.5,0.5-0.7,1-0.6s0.7,0.5,0.6,1l0.8,0.2
								C142.7,313.7,142.1,312.8,141.2,312.6z"/>
						</g>
					</g>
				</g>
			</g>
			<g id="XMLID_10_">
				<g id="XMLID_46_">
					<g id="XMLID_47_">
						<g>
							<path class="st18" d="M134.8,268.9c0.8,0.2,1.7-0.3,2-1.2l-0.8-0.2c-0.1,0.5-0.5,0.7-1,0.6c-0.5-0.1-0.7-0.5-0.6-1l-0.8-0.2
								C133.5,267.9,134.1,268.7,134.8,268.9z"/>
						</g>
					</g>
				</g>
				<g id="XMLID_44_">
					<g id="XMLID_45_">
						<g>
							<path class="st18" d="M138.9,269.9c0.8,0.2,1.7-0.3,2-1.2l-0.8-0.2c-0.1,0.5-0.5,0.7-1,0.6c-0.5-0.1-0.7-0.5-0.6-1l-0.8-0.2
								C137.6,268.9,138.1,269.7,138.9,269.9z"/>
						</g>
					</g>
				</g>
				<g id="XMLID_42_">
					<g id="XMLID_43_">
						<g>
							<path class="st18" d="M130.9,268c0.8,0.2,1.7-0.3,2-1.2l-0.8-0.2c-0.1,0.5-0.5,0.7-1,0.6c-0.5-0.1-0.7-0.5-0.6-1l-0.8-0.2
								C129.5,266.9,130.1,267.8,130.9,268z"/>
						</g>
					</g>
				</g>
				<g id="XMLID_40_">
					<g id="XMLID_41_">
						<g>
							<path class="st18" d="M147,271.9c0.8,0.2,1.7-0.3,2-1.2l-0.8-0.2c-0.1,0.5-0.5,0.7-1,0.6c-0.5-0.1-0.7-0.5-0.6-1l-0.8-0.2
								C145.6,270.9,146.1,271.7,147,271.9z"/>
						</g>
					</g>
				</g>
				<g id="XMLID_38_">
					<g id="XMLID_39_">
						<g>
							<path class="st18" d="M151,272.9c0.8,0.2,1.7-0.3,2-1.2l-0.8-0.2c-0.1,0.5-0.5,0.7-1,0.6c-0.5-0.1-0.7-0.5-0.6-1l-0.8-0.2
								C149.7,271.8,150.2,272.7,151,272.9z"/>
						</g>
					</g>
				</g>
				<g id="XMLID_36_">
					<g id="XMLID_37_">
						<g>
							<path class="st18" d="M143,270.9c0.8,0.2,1.7-0.3,2-1.2l-0.8-0.2c-0.1,0.5-0.5,0.7-1,0.6c-0.5-0.1-0.7-0.5-0.6-1l-0.8-0.2
								C141.6,269.9,142.1,270.7,143,270.9z"/>
						</g>
					</g>
				</g>
				<g id="XMLID_34_">
					<g id="XMLID_35_">
						<g>
							<path class="st18" d="M122.9,266c0.8,0.2,1.7-0.3,2-1.2l-0.8-0.2c-0.1,0.5-0.5,0.7-1,0.6c-0.5-0.1-0.7-0.5-0.6-1l-0.8-0.2
								C121.5,264.9,122,265.8,122.9,266z"/>
						</g>
					</g>
				</g>
				<g id="XMLID_32_">
					<g id="XMLID_33_">
						<g>
							<path class="st18" d="M126.8,267c0.8,0.2,1.7-0.3,2-1.2l-0.8-0.2c-0.1,0.5-0.5,0.7-1,0.6c-0.5-0.1-0.7-0.5-0.6-1l-0.8-0.2
								C125.4,265.9,125.9,266.7,126.8,267z"/>
						</g>
					</g>
				</g>
				<g id="XMLID_30_">
					<g id="XMLID_31_">
						<g>
							<path class="st18" d="M118.8,265c0.8,0.2,1.7-0.3,2-1.2l-0.8-0.2c-0.1,0.5-0.5,0.7-1,0.6c-0.5-0.1-0.7-0.5-0.6-1l-0.8-0.2
								C117.4,263.9,117.9,264.8,118.8,265z"/>
						</g>
					</g>
				</g>
			</g>
		</g>
		<g>
			<g>
				<ellipse class="st15" cx="130.3" cy="288.5" rx="19.4" ry="19.4"/>
			</g>
		</g>
		<g>
			<circle class="st17" cx="130.3" cy="288.5" r="16.7"/>
		</g>
		<g>
			<g class="st9">
				<g>
					<path class="st0" d="M127.2,286.8c0.6,0.6,1.1,1.3,1.3,2.2s0.2,1.8,0,2.8c-0.3,1-0.7,1.9-1.4,2.5c-0.7,0.7-1.5,1.1-2.4,1.4
						c-1,0.2-2,0.2-3.1-0.1c-0.9-0.2-1.8-0.6-2.6-1.1c-0.8-0.5-1.5-1.1-2-1.8c-0.3-0.4-0.4-0.8-0.3-1.2c0.1-0.3,0.2-0.6,0.5-0.8
						c0.2-0.2,0.5-0.2,0.7-0.2c0.1,0,0.3,0.1,0.4,0.2s0.3,0.2,0.4,0.4c0.5,0.6,1,1,1.5,1.4s1.1,0.6,1.7,0.8c1,0.2,1.8,0.2,2.4-0.2
						s1.1-1,1.3-1.9c0.2-0.9,0.1-1.6-0.3-2.3c-0.4-0.6-1.1-1.1-2-1.3c-0.6-0.1-1.1-0.2-1.6-0.1s-1,0.2-1.6,0.5
						c-0.3,0.1-0.6,0.2-0.9,0.1c-0.3-0.1-0.5-0.2-0.7-0.5c-0.2-0.2-0.2-0.5-0.1-0.8l1.7-6.9c0.1-0.4,0.3-0.7,0.6-0.9
						c0.3-0.2,0.7-0.2,1.1-0.1l7.4,1.8c0.9,0.2,1.2,0.7,1.1,1.4c-0.2,0.7-0.7,1-1.6,0.8l-6-1.5l-1,4.2c0.9-0.3,1.9-0.4,3-0.1
						C125.8,285.8,126.6,286.2,127.2,286.8z"/>
				</g>
				<g>
					<path class="st0" d="M131.1,295.8c-0.6-1.6-0.6-3.7,0-6.4c0.6-2.6,1.6-4.5,2.9-5.6c1.3-1.1,2.9-1.5,4.8-1
						c1.9,0.5,3.1,1.5,3.7,3.1c0.6,1.6,0.6,3.7,0,6.3s-1.6,4.5-2.9,5.6c-1.3,1.1-2.9,1.5-4.8,1C133,298.4,131.7,297.4,131.1,295.8z
						 M137.9,295.8c0.7-0.8,1.3-2.2,1.8-4.2s0.6-3.6,0.4-4.6c-0.2-1-0.9-1.7-1.9-1.9c-1-0.2-1.9,0-2.5,0.8c-0.7,0.8-1.3,2.2-1.8,4.2
						s-0.6,3.5-0.4,4.6c0.2,1,0.9,1.7,1.9,1.9C136.4,296.9,137.2,296.6,137.9,295.8z"/>
				</g>
			</g>
		</g>
	</g>
	<g>
		<g>
			<g>
				<g>
					<circle class="st10" cx="227.8" cy="254.6" r="17.4"/>
				</g>
			</g>
			<g>
				<circle class="st19" cx="227.8" cy="254.6" r="11.5"/>
			</g>
			<g>
				<g class="st9">
					<g>
						<path class="st20" d="M230.6,253.5c0.6,0.4,1.1,0.8,1.4,1.5c0.3,0.6,0.5,1.3,0.5,2.2c0,0.8-0.2,1.6-0.6,2.3
							c-0.4,0.7-0.9,1.2-1.6,1.5c-0.7,0.4-1.5,0.5-2.4,0.5c-0.8,0-1.5-0.1-2.2-0.4c-0.7-0.3-1.4-0.6-1.9-1c-0.3-0.2-0.4-0.5-0.4-0.9
							c0-0.3,0.1-0.5,0.2-0.7c0.2-0.2,0.3-0.3,0.5-0.3c0.1,0,0.2,0,0.4,0.1c0.1,0,0.2,0.1,0.4,0.2c0.5,0.3,1,0.6,1.4,0.8
							c0.5,0.2,1,0.3,1.5,0.3c0.8,0,1.4-0.2,1.9-0.6c0.4-0.4,0.6-1,0.6-1.7c0-0.7-0.2-1.3-0.7-1.7c-0.4-0.4-1-0.6-1.8-0.6
							c-0.5,0-0.9,0.1-1.3,0.2c-0.4,0.1-0.8,0.4-1.2,0.7c-0.2,0.2-0.5,0.2-0.7,0.2s-0.5-0.1-0.6-0.2c-0.2-0.1-0.3-0.3-0.3-0.6v-5.8
							c0-0.3,0.1-0.6,0.3-0.8s0.5-0.3,0.8-0.3h6.1c0.7,0,1.1,0.3,1.1,0.9c0,0.6-0.4,0.9-1.1,0.9H226v3.5c0.6-0.4,1.4-0.7,2.3-0.7
							C229.3,253,230,253.2,230.6,253.5z"/>
					</g>
				</g>
			</g>
		</g>
		<g>
			<g>
				<g>
					<path class="st13" d="M229.3,269c-0.2,0-0.4-0.2-0.4-0.4c0-0.2,0.1-0.4,0.4-0.5c0.1,0,0.3,0,0.4-0.1c0.2,0,0.5,0.1,0.5,0.4
						c0,0.2-0.1,0.5-0.4,0.5C229.6,269,229.5,269,229.3,269L229.3,269z M226.2,269L226.2,269c-0.2,0-0.3,0-0.5-0.1
						c-0.2,0-0.4-0.3-0.4-0.5c0-0.2,0.2-0.4,0.5-0.4l0.4,0.1c0.2,0,0.4,0.2,0.4,0.5C226.6,268.9,226.4,269,226.2,269z M232.7,268.2
						c-0.2,0-0.3-0.1-0.4-0.3c-0.1-0.2,0-0.5,0.3-0.6c0.1,0,0.3-0.1,0.4-0.2c0.2-0.1,0.5,0,0.6,0.2c0.1,0.2,0,0.5-0.2,0.6
						c-0.1,0.1-0.3,0.1-0.4,0.2C232.8,268.2,232.8,268.2,232.7,268.2z M222.8,268.2c-0.1,0-0.1,0-0.2,0c-0.1-0.1-0.3-0.1-0.4-0.2
						c-0.2-0.1-0.3-0.3-0.2-0.6c0.1-0.2,0.3-0.3,0.6-0.2c0.1,0.1,0.3,0.1,0.4,0.2c0.2,0.1,0.3,0.3,0.3,0.6
						C223.1,268.1,223,268.2,222.8,268.2z M235.8,266.6c-0.1,0-0.3-0.1-0.4-0.2c-0.1-0.2-0.1-0.5,0.1-0.6c0.1-0.1,0.2-0.2,0.3-0.2
						c0.2-0.1,0.5-0.1,0.6,0.1c0.1,0.2,0.1,0.5-0.1,0.6c-0.1,0.1-0.2,0.2-0.4,0.3C236,266.6,235.9,266.6,235.8,266.6z M219.7,266.5
						c-0.1,0-0.2,0-0.2-0.1c-0.1-0.1-0.2-0.2-0.4-0.3s-0.2-0.4-0.1-0.6c0.1-0.2,0.4-0.2,0.6-0.1c0.1,0.1,0.2,0.2,0.3,0.2
						c0.2,0.1,0.2,0.4,0.1,0.6C220,266.5,219.8,266.5,219.7,266.5z M238.4,264.2c-0.1,0-0.2,0-0.3-0.1c-0.2-0.2-0.2-0.4,0-0.6
						c0.1-0.1,0.2-0.2,0.3-0.3c0.1-0.2,0.4-0.2,0.6-0.1c0.2,0.1,0.2,0.4,0.1,0.6c-0.1,0.1-0.2,0.2-0.3,0.4
						C238.6,264.2,238.5,264.2,238.4,264.2z M217.1,264.2c-0.1,0-0.2-0.1-0.3-0.2c-0.1-0.1-0.2-0.2-0.3-0.3
						c-0.2-0.2-0.1-0.5,0.1-0.6s0.5-0.1,0.6,0.1c0.1,0.1,0.2,0.2,0.3,0.3c0.2,0.2,0.1,0.5,0,0.6
						C217.3,264.2,217.2,264.2,217.1,264.2z M240.4,261.3c-0.1,0-0.1,0-0.2,0c-0.2-0.1-0.3-0.4-0.2-0.6c0.1-0.1,0.1-0.3,0.2-0.4
						c0.1-0.2,0.4-0.3,0.6-0.2c0.2,0.1,0.3,0.4,0.2,0.6c-0.1,0.1-0.1,0.3-0.2,0.4C240.7,261.2,240.5,261.3,240.4,261.3z
						 M215.2,261.3c-0.2,0-0.3-0.1-0.4-0.2c-0.1-0.1-0.1-0.3-0.2-0.4c-0.1-0.2,0-0.5,0.2-0.6s0.5,0,0.6,0.2l0.2,0.4
						c0.1,0.2,0,0.5-0.2,0.6C215.3,261.2,215.2,261.3,215.2,261.3z M241.5,258L241.5,258c-0.3-0.1-0.5-0.3-0.4-0.5l0.1-0.4
						c0-0.2,0.3-0.4,0.5-0.3c0.2,0,0.4,0.3,0.3,0.5l-0.1,0.4C241.9,257.9,241.7,258,241.5,258z M214,257.9c-0.2,0-0.4-0.1-0.4-0.3
						c0-0.1-0.1-0.3-0.1-0.4c0-0.2,0.1-0.5,0.4-0.5c0.3,0,0.5,0.1,0.5,0.4c0,0.1,0.1,0.3,0.1,0.4C214.5,257.7,214.4,257.9,214,257.9
						C214.1,257.9,214.1,257.9,214,257.9z M241.8,254.5c-0.2,0-0.4-0.2-0.4-0.4c0-0.1,0-0.3,0-0.4c0-0.2,0.2-0.4,0.4-0.5
						c0.2,0,0.4,0.2,0.5,0.4c0,0.1,0,0.3,0,0.5S242.1,254.5,241.8,254.5L241.8,254.5z M213.8,254.5
						C213.7,254.5,213.7,254.5,213.8,254.5c-0.3,0-0.4-0.2-0.4-0.5c0-0.2,0-0.3,0-0.5s0.2-0.4,0.5-0.4c0.2,0,0.4,0.2,0.4,0.5
						c0,0.1,0,0.3,0,0.4C214.2,254.3,214,254.5,213.8,254.5z M241.3,251.1c-0.2,0-0.4-0.1-0.4-0.3c0-0.1-0.1-0.3-0.1-0.4
						c-0.1-0.2,0-0.5,0.3-0.5c0.2-0.1,0.5,0,0.5,0.3c0,0.1,0.1,0.3,0.1,0.4c0.1,0.2-0.1,0.5-0.3,0.5
						C241.3,251.1,241.3,251.1,241.3,251.1z M214.3,251h-0.1c-0.2-0.1-0.4-0.3-0.3-0.5c0-0.1,0.1-0.3,0.1-0.4
						c0.1-0.2,0.3-0.3,0.5-0.3c0.2,0.1,0.3,0.3,0.3,0.5c0,0.1-0.1,0.3-0.1,0.4C214.7,250.9,214.5,251,214.3,251z M239.8,247.8
						c-0.1,0-0.3-0.1-0.4-0.2c-0.1-0.1-0.1-0.2-0.2-0.4c-0.1-0.2-0.1-0.5,0.1-0.6c0.2-0.1,0.5-0.1,0.6,0.1c0.1,0.1,0.2,0.3,0.2,0.4
						c0.1,0.2,0.1,0.5-0.2,0.6C240,247.8,239.9,247.8,239.8,247.8z M215.8,247.8c-0.1,0-0.2,0-0.2-0.1c-0.2-0.1-0.3-0.4-0.1-0.6
						c0.1-0.1,0.2-0.3,0.2-0.4c0.1-0.2,0.4-0.3,0.6-0.1c0.2,0.1,0.3,0.4,0.1,0.6c-0.1,0.1-0.2,0.2-0.2,0.4
						C216,247.7,215.9,247.8,215.8,247.8z M237.7,245.1c-0.1,0-0.2,0-0.3-0.1s-0.2-0.2-0.3-0.3c-0.2-0.2-0.2-0.4,0-0.6
						c0.2-0.2,0.4-0.2,0.6,0c0.1,0.1,0.2,0.2,0.3,0.3c0.2,0.2,0.2,0.4,0,0.6C237.9,245,237.8,245.1,237.7,245.1z M217.9,245
						c-0.1,0-0.2,0-0.3-0.1c-0.2-0.2-0.2-0.4,0-0.6c0.1-0.1,0.2-0.2,0.3-0.3c0.2-0.2,0.5-0.1,0.6,0c0.2,0.2,0.1,0.4,0,0.6
						c-0.1,0.1-0.2,0.2-0.3,0.3C218.2,245,218,245,217.9,245z M234.9,242.9c-0.1,0-0.2,0-0.2-0.1c-0.1-0.1-0.2-0.1-0.4-0.2
						c-0.2-0.1-0.3-0.4-0.2-0.6c0.1-0.2,0.4-0.3,0.6-0.2c0.1,0.1,0.3,0.1,0.4,0.2c0.2,0.1,0.3,0.4,0.2,0.6
						C235.2,242.9,235.1,242.9,234.9,242.9z M220.7,242.9c-0.1,0-0.3-0.1-0.4-0.2c-0.1-0.2,0-0.5,0.2-0.6c0.1-0.1,0.3-0.2,0.4-0.2
						c0.2-0.1,0.5,0,0.6,0.2s0,0.5-0.2,0.6c-0.1,0.1-0.2,0.1-0.4,0.2C220.9,242.9,220.8,242.9,220.7,242.9z M231.7,241.6h-0.1
						c-0.1,0-0.3-0.1-0.4-0.1c-0.2-0.1-0.4-0.3-0.3-0.5c0.1-0.2,0.3-0.4,0.5-0.3c0.1,0,0.3,0.1,0.4,0.1c0.2,0.1,0.4,0.3,0.3,0.5
						C232,241.4,231.9,241.6,231.7,241.6z M223.9,241.5c-0.2,0-0.4-0.1-0.4-0.3c-0.1-0.2,0.1-0.5,0.3-0.5c0.1,0,0.3-0.1,0.4-0.1
						c0.2-0.1,0.5,0.1,0.5,0.3c0.1,0.2-0.1,0.5-0.3,0.5c-0.1,0-0.3,0.1-0.4,0.1C224,241.5,224,241.5,223.9,241.5z M228.2,241
						L228.2,241c-0.2,0-0.3,0-0.4,0h-0.4c-0.3,0-0.4-0.2-0.4-0.4s0.2-0.4,0.4-0.4h0.4c0.2,0,0.3,0,0.5,0s0.4,0.2,0.4,0.4
						S228.5,241,228.2,241z"/>
				</g>
			</g>
		</g>
		<g id="XMLID_7_">
			<path class="st20" d="M221.2,257.2C221.2,257.2,221.2,257.4,221.2,257.2C221.2,257.4,221.2,257.2,221.2,257.2 M224,257.1
				C224,257.1,223.8,257.2,224,257.1c-0.2,0.2-0.3,0.2-0.3,0.2S223.8,257.2,224,257.1L224,257.1"/>
		</g>
	</g>
	<g>
		<g>
			<g>
				<g>
					<circle class="st10" cx="113.1" cy="239.9" r="17.4"/>
				</g>
			</g>
			<g>
				<circle class="st19" cx="113.1" cy="239.9" r="11.5"/>
			</g>
			<g>
				<g class="st9">
					<g>
						<path class="st20" d="M115.9,238.8c0.6,0.4,1.1,0.8,1.4,1.5c0.3,0.6,0.5,1.3,0.5,2.2c0,0.8-0.2,1.6-0.6,2.3
							c-0.4,0.7-0.9,1.2-1.6,1.5c-0.7,0.4-1.5,0.5-2.4,0.5c-0.8,0-1.5-0.1-2.2-0.4c-0.7-0.3-1.4-0.6-1.9-1c-0.3-0.2-0.4-0.5-0.4-0.9
							c0-0.3,0.1-0.5,0.2-0.7c0.2-0.2,0.3-0.3,0.5-0.3c0.1,0,0.2,0,0.4,0.1c0.1,0,0.2,0.1,0.4,0.2c0.5,0.3,1,0.6,1.4,0.8
							c0.5,0.2,1,0.3,1.5,0.3c0.8,0,1.4-0.2,1.9-0.6c0.4-0.4,0.6-1,0.6-1.7s-0.2-1.3-0.7-1.7c-0.4-0.4-1-0.6-1.8-0.6
							c-0.5,0-0.9,0.1-1.3,0.2c-0.4,0.1-0.8,0.4-1.2,0.7c-0.2,0.2-0.5,0.2-0.7,0.2s-0.5-0.1-0.6-0.2c-0.2-0.1-0.3-0.3-0.3-0.6v-5.8
							c0-0.3,0.1-0.6,0.3-0.8s0.5-0.3,0.8-0.3h6.1c0.7,0,1.1,0.3,1.1,0.9c0,0.6-0.4,0.9-1.1,0.9h-4.9v3.5c0.6-0.4,1.4-0.7,2.3-0.7
							C114.6,238.3,115.3,238.5,115.9,238.8z"/>
					</g>
				</g>
			</g>
		</g>
		<g>
			<g>
				<g>
					<path class="st13" d="M114.6,254.3c-0.2,0-0.4-0.2-0.4-0.4s0.1-0.4,0.4-0.5c0.1,0,0.3,0,0.4-0.1c0.2,0,0.5,0.1,0.5,0.4
						c0,0.2-0.1,0.5-0.4,0.5C114.9,254.3,114.8,254.3,114.6,254.3L114.6,254.3z M111.5,254.3L111.5,254.3c-0.2,0-0.3,0-0.5-0.1
						c-0.2,0-0.4-0.3-0.4-0.5s0.2-0.4,0.5-0.4l0.4,0.1c0.2,0,0.4,0.2,0.4,0.5C111.9,254.2,111.7,254.3,111.5,254.3z M118,253.5
						c-0.2,0-0.3-0.1-0.4-0.3c-0.1-0.2,0-0.5,0.3-0.6c0.1,0,0.3-0.1,0.4-0.2c0.2-0.1,0.5,0,0.6,0.2s0,0.5-0.2,0.6
						c-0.1,0.1-0.3,0.1-0.4,0.2C118.1,253.5,118.1,253.5,118,253.5z M108.1,253.5c-0.1,0-0.1,0-0.2,0c-0.1-0.1-0.3-0.1-0.4-0.2
						c-0.2-0.1-0.3-0.3-0.2-0.6c0.1-0.2,0.3-0.3,0.6-0.2c0.1,0.1,0.3,0.1,0.4,0.2c0.2,0.1,0.3,0.3,0.3,0.6
						C108.4,253.4,108.3,253.5,108.1,253.5z M121.1,251.9c-0.1,0-0.3-0.1-0.4-0.2c-0.1-0.2-0.1-0.5,0.1-0.6c0.1-0.1,0.2-0.2,0.3-0.2
						c0.2-0.1,0.5-0.1,0.6,0.1c0.1,0.2,0.1,0.5-0.1,0.6c-0.1,0.1-0.2,0.2-0.4,0.3C121.3,251.9,121.2,251.9,121.1,251.9z M105,251.8
						c-0.1,0-0.2,0-0.2-0.1c-0.1-0.1-0.2-0.2-0.4-0.3s-0.2-0.4-0.1-0.6c0.1-0.2,0.4-0.2,0.6-0.1c0.1,0.1,0.2,0.2,0.3,0.2
						c0.2,0.1,0.2,0.4,0.1,0.6C105.3,251.8,105.1,251.8,105,251.8z M123.7,249.5c-0.1,0-0.2,0-0.3-0.1c-0.2-0.2-0.2-0.4,0-0.6
						c0.1-0.1,0.2-0.2,0.3-0.3c0.1-0.2,0.4-0.2,0.6-0.1c0.2,0.1,0.2,0.4,0.1,0.6c-0.1,0.1-0.2,0.2-0.3,0.4
						C123.9,249.5,123.8,249.5,123.7,249.5z M102.4,249.5c-0.1,0-0.2-0.1-0.3-0.2c-0.1-0.1-0.2-0.2-0.3-0.3
						c-0.2-0.2-0.1-0.5,0.1-0.6s0.5-0.1,0.6,0.1c0.1,0.1,0.2,0.2,0.3,0.3c0.2,0.2,0.1,0.5,0,0.6
						C102.6,249.5,102.5,249.5,102.4,249.5z M125.7,246.6c-0.1,0-0.1,0-0.2,0c-0.2-0.1-0.3-0.4-0.2-0.6c0.1-0.1,0.1-0.3,0.2-0.4
						c0.1-0.2,0.4-0.3,0.6-0.2c0.2,0.1,0.3,0.4,0.2,0.6c-0.1,0.1-0.1,0.3-0.2,0.4C126,246.5,125.8,246.6,125.7,246.6z M100.5,246.6
						c-0.2,0-0.3-0.1-0.4-0.2c-0.1-0.1-0.1-0.3-0.2-0.4c-0.1-0.2,0-0.5,0.2-0.6s0.5,0,0.6,0.2l0.2,0.4c0.1,0.2,0,0.5-0.2,0.6
						C100.6,246.5,100.5,246.6,100.5,246.6z M126.8,243.3L126.8,243.3c-0.3-0.1-0.5-0.3-0.4-0.5l0.1-0.4c0-0.2,0.3-0.4,0.5-0.3
						c0.2,0,0.4,0.3,0.3,0.5l-0.1,0.4C127.2,243.2,127,243.3,126.8,243.3z M99.3,243.2c-0.2,0-0.4-0.1-0.4-0.3
						c0-0.1-0.1-0.3-0.1-0.4c0-0.2,0.1-0.5,0.4-0.5c0.3,0,0.5,0.1,0.5,0.4c0,0.1,0.1,0.3,0.1,0.4C99.8,243,99.7,243.2,99.3,243.2
						C99.4,243.2,99.4,243.2,99.3,243.2z M127.1,239.8c-0.2,0-0.4-0.2-0.4-0.4c0-0.1,0-0.3,0-0.4c0-0.2,0.2-0.4,0.4-0.5
						c0.2,0,0.4,0.2,0.5,0.4c0,0.1,0,0.3,0,0.5S127.4,239.8,127.1,239.8L127.1,239.8z M99.1,239.8C99,239.8,99,239.8,99.1,239.8
						c-0.3,0-0.4-0.2-0.4-0.5c0-0.2,0-0.3,0-0.5s0.2-0.4,0.5-0.4c0.2,0,0.4,0.2,0.4,0.5c0,0.1,0,0.3,0,0.4
						C99.5,239.6,99.3,239.8,99.1,239.8z M126.6,236.4c-0.2,0-0.4-0.1-0.4-0.3c0-0.1-0.1-0.3-0.1-0.4c-0.1-0.2,0-0.5,0.3-0.5
						c0.2-0.1,0.5,0,0.5,0.3c0,0.1,0.1,0.3,0.1,0.4c0.1,0.2-0.1,0.5-0.3,0.5C126.6,236.4,126.6,236.4,126.6,236.4z M99.6,236.3h-0.1
						c-0.2-0.1-0.4-0.3-0.3-0.5c0-0.1,0.1-0.3,0.1-0.4c0.1-0.2,0.3-0.3,0.5-0.3c0.2,0.1,0.3,0.3,0.3,0.5c0,0.1-0.1,0.3-0.1,0.4
						C100,236.2,99.8,236.3,99.6,236.3z M125.1,233.1c-0.1,0-0.3-0.1-0.4-0.2c-0.1-0.1-0.1-0.2-0.2-0.4c-0.1-0.2-0.1-0.5,0.1-0.6
						c0.2-0.1,0.5-0.1,0.6,0.1c0.1,0.1,0.2,0.3,0.2,0.4c0.1,0.2,0.1,0.5-0.2,0.6C125.3,233.1,125.2,233.1,125.1,233.1z M101.1,233.1
						c-0.1,0-0.2,0-0.2-0.1c-0.2-0.1-0.3-0.4-0.1-0.6c0.1-0.1,0.2-0.3,0.2-0.4c0.1-0.2,0.4-0.3,0.6-0.1c0.2,0.1,0.3,0.4,0.1,0.6
						c-0.1,0.1-0.2,0.2-0.2,0.4C101.3,233,101.2,233.1,101.1,233.1z M123,230.4c-0.1,0-0.2,0-0.3-0.1s-0.2-0.2-0.3-0.3
						c-0.2-0.2-0.2-0.4,0-0.6c0.2-0.2,0.4-0.2,0.6,0c0.1,0.1,0.2,0.2,0.3,0.3c0.2,0.2,0.2,0.4,0,0.6
						C123.2,230.3,123.1,230.4,123,230.4z M103.2,230.3c-0.1,0-0.2,0-0.3-0.1c-0.2-0.2-0.2-0.4,0-0.6c0.1-0.1,0.2-0.2,0.3-0.3
						c0.2-0.2,0.5-0.1,0.6,0c0.2,0.2,0.1,0.4,0,0.6c-0.1,0.1-0.2,0.2-0.3,0.3C103.5,230.3,103.3,230.3,103.2,230.3z M120.2,228.2
						c-0.1,0-0.2,0-0.2-0.1c-0.1-0.1-0.2-0.1-0.4-0.2c-0.2-0.1-0.3-0.4-0.2-0.6c0.1-0.2,0.4-0.3,0.6-0.2c0.1,0.1,0.3,0.1,0.4,0.2
						c0.2,0.1,0.3,0.4,0.2,0.6C120.5,228.2,120.4,228.2,120.2,228.2z M106,228.2c-0.1,0-0.3-0.1-0.4-0.2c-0.1-0.2,0-0.5,0.2-0.6
						c0.1-0.1,0.3-0.2,0.4-0.2c0.2-0.1,0.5,0,0.6,0.2s0,0.5-0.2,0.6c-0.1,0.1-0.2,0.1-0.4,0.2C106.2,228.2,106.1,228.2,106,228.2z
						 M117,226.9h-0.1c-0.1,0-0.3-0.1-0.4-0.1c-0.2-0.1-0.4-0.3-0.3-0.5c0.1-0.2,0.3-0.4,0.5-0.3c0.1,0,0.3,0.1,0.4,0.1
						c0.2,0.1,0.4,0.3,0.3,0.5C117.3,226.7,117.2,226.9,117,226.9z M109.2,226.8c-0.2,0-0.4-0.1-0.4-0.3c-0.1-0.2,0.1-0.5,0.3-0.5
						c0.1,0,0.3-0.1,0.4-0.1c0.2-0.1,0.5,0.1,0.5,0.3c0.1,0.2-0.1,0.5-0.3,0.5c-0.1,0-0.3,0.1-0.4,0.1
						C109.3,226.8,109.3,226.8,109.2,226.8z M113.5,226.3L113.5,226.3c-0.2,0-0.3,0-0.4,0h-0.4c-0.3,0-0.4-0.2-0.4-0.4
						s0.2-0.4,0.4-0.4h0.4c0.2,0,0.3,0,0.5,0s0.4,0.2,0.4,0.4S113.8,226.3,113.5,226.3z"/>
				</g>
			</g>
		</g>
		<g id="XMLID_1_">
			<path class="st20" d="M106.5,242.5C106.5,242.5,106.5,242.7,106.5,242.5C106.5,242.7,106.5,242.5,106.5,242.5 M109.3,242.4
				C109.3,242.4,109.1,242.5,109.3,242.4c-0.2,0.2-0.3,0.2-0.3,0.2S109.1,242.5,109.3,242.4L109.3,242.4"/>
		</g>
	</g>
</g>
</svg>
