<?xml version="1.0" encoding="utf-8"?>
<!-- Generator: Adobe Illustrator 22.0.1, SVG Export Plug-In . SVG Version: 6.00 Build 0)  -->
<svg version="1.1" id="Layer_1" xmlns="http://www.w3.org/2000/svg" xmlns:xlink="http://www.w3.org/1999/xlink" x="0px" y="0px"
	 viewBox="0 0 400 400" style="enable-background:new 0 0 400 400;" xml:space="preserve">
<style type="text/css">
	.st0{fill:#FFFFFF;}
	.st1{fill:#14C7FF;}
	.st2{fill:#AEADB3;}
	.st3{fill:#3C3A41;}
	.st4{fill:#E50027;}
	.st5{fill:#57555C;}
	.st6{fill:#9B001A;}
	.st7{font-family:'Nunito-Bold';}
	.st8{font-size:35.29px;}
	.st9{font-size:51.8896px;}
</style>
<g>
	<path class="st0" d="M288.3,335.4c-27.3,0-51.7-15.5-63.3-39.8c-3.8,1.4-7.8,2.3-11.9,2.3c-0.3,0-0.5,0-0.8,0l-5.5,11.1
		c-2.4,4.7-7.1,7.7-12.5,7.7h-18.8c-7.7,0-13.9-6.2-13.9-13.9c0-1.5,0.3-3.1,0.7-4.4c-11.9,22.1-35.2,37.2-62,37.2
		c-39.1,0-70.9-31.6-70.9-70.3s31.9-70.5,70.9-70.5c1.2,0,2.3,0,3.4,0.1l18.7-74c-16.1-12.7-33.6-26-37.6-28.1h-15
		c-7.7,0-13.9-6.2-13.9-13.9s6.2-13.9,13.9-13.9h15.8c2.4,0,8.9,0,52.8,35.1c50.9-35.1,56.6-35.1,58.9-35.1h20.4v1
		c5.2,2.1,8.7,7.1,8.7,12.9c0,5.9-3.5,10.9-8.7,12.9v1h-4.5h-14.9c-4.1,2.1-23.3,15.1-48,32.6l-12.9,50.6h99.4v-9.8h-14.3
		c-7.7,0-13.9-6.2-13.9-13.9c0-16.6,12.5-30.5,28.7-32.5c0.2-0.7,0.5-1.4,0.8-2.1c-2.2-0.7-3.9-2.6-4.4-5c-0.5-2.2,0.1-4.3,1.4-5.9
		c-1.9-1.1-3.2-3-3.3-5.2c-0.3-2.4,0.7-4.5,2.4-6c-1.7-1.4-2.6-3.5-2.4-5.8c0.2-2.4,1.5-4.3,3.4-5.4c-1.4-1.6-2-3.8-1.4-6
		c0.5-2.4,2.2-4.3,4.3-5c-0.9-1.6-1.2-3.5-0.6-5.4c0.8-2.5,2.9-4.3,5.4-4.8c-0.6-1.5-0.5-3.3,0.1-5c1.1-2.6,3.5-4.3,6.2-4.3
		c-0.3-1.4-0.1-3,0.6-4.3c1.2-2.3,3.5-3.7,6.1-3.7c0.5,0,0.8,0,1.3,0.1c0-1.3,0.4-2.5,1.1-3.6c1.3-2,3.5-3.2,5.8-3.2
		c0.8,0,1.6,0.2,2.4,0.5c0.2-1.1,0.6-2.2,1.3-3c1.3-1.7,3.3-2.7,5.4-2.7c1.3,0,2.4,0.4,3.4,1c0.3-0.9,0.8-1.7,1.4-2.4
		c1.3-1.4,3.2-2.2,5.1-2.2c1.6,0,3.2,0.6,4.4,1.6c1.2-2.1,3.3-3.4,6-3.4c2.1,0,4,0.9,5.2,2.4c1.3-1.5,3.2-2.4,5.2-2.4
		c2.5,0,4.8,1.4,6,3.4c1.2-1.1,2.8-1.6,4.4-1.6c2,0,3.8,0.8,5.2,2.3c0.6,0.6,1.1,1.4,1.4,2.3c1-0.6,2.2-0.9,3.4-0.9
		c2.2,0,4.2,1,5.5,2.7c0.7,0.9,1.1,1.9,1.3,3c0.7-0.3,1.5-0.5,2.4-0.5c2.4,0,4.5,1.3,5.8,3.2c0.7,1.1,1.1,2.4,1.1,3.6
		c0.5-0.1,0.8-0.1,1.3-0.1c2.5,0,4.9,1.4,6.1,3.7c0.7,1.4,0.9,2.9,0.6,4.3c2.7,0,5.2,1.7,6.2,4.3c0.7,1.6,0.7,3.4,0.1,5
		c2.4,0.4,4.6,2.2,5.3,4.6c0.6,1.9,0.4,4-0.6,5.6c2.2,0.7,3.9,2.6,4.4,5c0.5,2.2-0.1,4.3-1.4,5.9c1.9,1.1,3.2,3,3.3,5.2
		c0.3,2.4-0.7,4.5-2.4,6c1.7,1.4,2.6,3.5,2.4,5.8c-0.2,2.4-1.5,4.3-3.4,5.4c1.4,1.6,2,3.8,1.4,6c-0.5,2.4-2.2,4.3-4.3,5
		c0.9,1.6,1.2,3.5,0.6,5.4c-0.8,2.5-2.9,4.3-5.4,4.8c0.6,1.5,0.5,3.3-0.1,5c-1.1,2.6-3.5,4.3-6.2,4.3c0.3,1.4,0.1,3-0.6,4.3
		c-1.2,2.3-3.5,3.7-6.1,3.7c-0.5,0-0.8,0-1.3-0.1c0,1.3-0.4,2.5-1.1,3.6c-1.3,2-3.5,3.2-5.8,3.2c-0.8,0-1.6-0.2-2.4-0.5
		c-0.2,1.1-0.6,2.2-1.3,3c-1.3,1.7-3.3,2.7-5.4,2.7c-1.3,0-2.4-0.4-3.4-1c-0.3,0.9-0.8,1.7-1.4,2.4c-1.3,1.4-3.2,2.2-5.1,2.2
		c-1.6,0-3.2-0.6-4.4-1.6c-1.2,2.1-3.3,3.4-6,3.4c-2.1,0-4-0.9-5.2-2.4c-1.3,1.5-3.2,2.4-5.2,2.4c-2.5,0-4.8-1.4-6-3.4
		c-0.8,0.7-1.8,1.2-2.8,1.4c-4.3,3.6-9.5,5.6-15.2,5.6h-4.9v20.4l5.3,10.7c6-1.6,12.1-2.4,18.4-2.4c39.1,0,70.9,31.6,70.9,70.3
		S327.5,335.4,288.3,335.4z M267.5,302.1c3.9,2.2,8.2,3.8,12.7,4.6v-17.3L267.5,302.1z M109.7,306.4c4.3-1,8.3-2.6,12.1-4.9
		l-12.1-12.1V306.4z M78.2,301.3c3.7,2.3,7.7,3.9,11.9,4.9v-16.8L78.2,301.3z M299.9,305.9c4-1.1,7.9-2.8,11.4-5.1l-11.4-11.4V305.9
		z M134.8,203.7c22,12.4,35.8,35.7,35.8,61.3c0,10.6-2.4,20.7-6.6,29.7c2.5-3.6,6.7-6.1,11.5-6.1h10.2l1.7-3.4
		c-4.5-5.8-7.1-12.8-7.1-20.3c0-4.9,1.1-9.7,3.2-14l-25.8-47.1H134.8z M248.2,278.9c1.2,3.4,2.9,6.8,4.9,9.8l9.8-9.8H248.2z
		 M136.1,288c2.4-3.8,4.3-8,5.4-12.4h-17.8L136.1,288z M58.5,275.6c1.1,4.3,3,8.4,5.4,12.2l12.2-12.2H58.5z M325.2,286.9
		c2.2-3.5,3.8-7.4,4.9-11.4h-16.3L325.2,286.9z M330.4,255.8c-0.9-4.2-2.5-8.1-4.7-11.9l-11.9,11.9H330.4z M141.8,255.8
		c-1-4.5-2.8-9-5.2-12.9l-12.9,12.9H141.8z M76.1,255.8l-12.7-12.7c-2.4,4-4.2,8.2-5.2,12.7H76.1z M261.5,251l-9-9
		c-1.8,2.8-3.3,5.8-4.3,9H261.5z M299.9,241.9l12.2-12.2c-3.8-2.5-7.9-4.3-12.2-5.6V241.9z M90,241.9v-18.2
		c-4.5,1.1-8.8,2.9-12.8,5.4L90,241.9z M213.1,232.3c4.1,0,8.1,0.7,11.9,2.3c4.7-9.8,11.6-18.2,20.1-24.9l-3-5.9h-52.6l16,29.4
		C208,232.6,210.5,232.3,213.1,232.3z"/>
	<path class="st0" d="M303.9,33c1.1,0,2.2,0.7,2.4,2.2l0.3,3.2c0.2,1.4,1.3,2.1,2.4,2.1c0.8,0,1.6-0.5,2.1-1.4l1.4-2.9
		c0.5-0.9,1.3-1.4,2.1-1.4c1.3,0,2.5,1,2.4,2.5l-0.3,3.2c-0.2,1.5,1.1,2.4,2.3,2.4c0.7,0,1.4-0.3,1.9-1l1.8-2.6c0.5-0.7,1.2-1,1.8-1
		c1.4,0,2.7,1.3,2.3,2.9l-0.8,3.1c-0.5,1.6,0.8,3,2.2,3c0.5,0,1.2-0.2,1.6-0.7l2.3-2.3c0.5-0.5,1.1-0.7,1.6-0.7
		c1.5,0,2.9,1.5,2.2,3.3l-1.4,2.8c-0.8,1.6,0.5,3.3,2.1,3.3c0.5,0,0.9-0.1,1.3-0.5l2.6-1.8c0.5-0.3,0.9-0.5,1.4-0.5
		c1.6,0,3.1,2,1.8,3.6l-1.8,2.6c-1.2,1.6,0.1,3.6,1.8,3.6c0.4,0,0.6-0.1,1-0.3l2.8-1.4c0.4-0.2,0.6-0.3,1-0.3c1.9,0,3.2,2.4,1.6,4
		l-2.3,2.3c-1.5,1.5-0.3,3.9,1.6,3.9c0.2,0,0.4,0,0.6-0.1l3.1-0.8c0.3-0.1,0.5-0.1,0.6-0.1c2.1,0,3.2,2.8,1.3,4.2l-2.6,1.8
		c-1.9,1.3-0.9,4.2,1.3,4.2c0.1,0,0.2,0,0.3,0l3.2-0.3c0.1,0,0.1,0,0.2,0c2.4,0,3.3,3.3,1,4.4l-2.9,1.4c-2.2,1-1.6,4.3,0.7,4.4
		l3.2,0.3c2.6,0.2,2.9,3.8,0.5,4.5l-3.2,1.1c-2.3,0.5-2.3,3.8,0,4.4l3.1,0.8c2.5,0.6,2.2,4.3-0.5,4.5l-3.2,0.3
		c-2.4,0.3-2.9,3.4-0.7,4.4l2.9,1.4c2.3,1.1,1.4,4.4-0.9,4.4c-0.1,0-0.2,0-0.3,0l-3.2-0.3c-0.1,0-0.2,0-0.3,0
		c-2.2,0-3.1,2.9-1.3,4.2l2.6,1.8c1.9,1.3,0.8,4.2-1.3,4.2c-0.2,0-0.5,0-0.6-0.1l-3.1-0.8c-0.3-0.1-0.5-0.1-0.7-0.1
		c-1.9,0-3.1,2.4-1.5,3.9l2.3,2.3c1.5,1.5,0.3,4-1.6,4c-0.4,0-0.6-0.1-1-0.3l-2.8-1.4c-0.4-0.2-0.6-0.3-1-0.3c-1.7,0-3,2-1.9,3.6
		l1.8,2.6c1.2,1.6-0.2,3.6-1.8,3.6c-0.5,0-0.9-0.1-1.4-0.5l-2.6-1.8c-0.5-0.4-0.9-0.5-1.4-0.5c-1.5,0-2.8,1.6-2.1,3.3l1.4,2.8
		c0.8,1.7-0.6,3.3-2.2,3.3c-0.5,0-1.2-0.2-1.6-0.7l-2.3-2.3c-0.5-0.5-1-0.6-1.5-0.6c-1.4,0-2.7,1.4-2.3,2.9l0.8,3.1
		c0.5,1.7-0.9,2.9-2.3,2.9c-0.6,0-1.4-0.3-1.8-1l-1.8-2.6c-0.5-0.7-1.2-1-1.9-1c-1.3,0-2.4,1-2.4,2.5l0.3,3.2
		c0.1,1.5-1.1,2.5-2.4,2.5c-0.8,0-1.6-0.5-2.1-1.4l-1.4-2.9c-0.5-0.9-1.3-1.4-2.1-1.4c-1.1,0-2.3,0.7-2.4,2.1l-0.3,3.2
		c-0.1,1.4-1.2,2.2-2.3,2.2c-1,0-1.9-0.5-2.2-1.7l-0.8-3.1c-0.3-1.1-1.3-1.7-2.2-1.7c-1,0-1.9,0.5-2.2,1.7l-0.8,3.1
		c-0.3,1.2-1.3,1.7-2.2,1.7c-1.1,0-2.2-0.7-2.4-2.2l-0.3-3.2c-0.2-1.4-1.3-2.1-2.4-2.1c-0.8,0-1.6,0.5-2.1,1.4l-1.4,2.9
		c-0.5,0.9-1.3,1.4-2.1,1.4c-0.1,0-0.2,0-0.4,0c-3.4,3.3-8.1,5.4-13.2,5.4h-9.4v26l7.5,15c6.5-2.2,13.5-3.3,20.7-3.3
		c36.3,0,66.4,29.5,66.4,65.8s-30.1,65.8-66.4,65.8c-27.7,0-51.4-17.2-61.1-41.4c-4.2,2.4-9,3.8-14.1,3.8c-1.2,0-2.4-0.1-3.4-0.2
		l-6.9,13.8c-1.6,3.2-4.9,5.2-8.4,5.2h-18.8c-5.2,0-9.4-4.2-9.4-9.4c0-5.2,4.2-9.4,9.4-9.4h13l4.3-8.6c-4.9-5.1-7.9-11.9-7.9-19.5
		c0-5.2,1.4-10,3.8-14.1l-28.1-51.6h-33.8l-1.3,5c23.8,9.9,40.6,33.4,40.6,60.8c0,36.3-29.5,65.8-65.8,65.8S33.9,301.3,33.9,265
		s30-65.8,66.3-65.8c2.4,0,4.6,0.1,6.9,0.4l20.4-80.5c0,0-39-30.9-41.9-30.9H69.8c-5.2,0-9.4-4.2-9.4-9.4c0-5.2,4.2-9.4,9.4-9.4
		h15.8c6.7,0,38.2,24.7,52.6,36.2c15.9-11,52.9-36.2,59.1-36.2h15.1h0.7l0,0c4.9,0.4,8.7,4.3,8.7,9.4c0,5.1-3.8,9-8.7,9.4l0,0h-0.7
		h-15.1c-2.4,0-43.1,28.7-51.1,34.4l-14.7,57.9h34.5h0.1h0.1H213h28.2v-18.8h-18.8c-5.2,0-9.4-4.3-9.4-9.4
		c0-15.6,12.7-28.2,28.2-28.2h9c-0.3-0.9-1.2-1.5-2.2-1.5c-0.2,0-0.4,0-0.6,0.1l-3.1,0.8c-0.3,0.1-0.5,0.1-0.6,0.1
		c-2.1,0-3.2-2.8-1.3-4.2l2.6-1.8c1.9-1.3,0.9-4.2-1.3-4.2c-0.1,0-0.2,0-0.3,0l-3.2,0.3c-0.1,0-0.1,0-0.2,0c-2.4,0-3.3-3.3-1-4.4
		l2.9-1.4c2.2-1,1.6-4.3-0.7-4.4l-3.2-0.3c-2.6-0.2-2.9-3.8-0.5-4.5l3.1-0.8c2.3-0.5,2.3-3.8,0-4.4l-3.1-0.8
		c-2.5-0.6-2.2-4.3,0.5-4.5l3.2-0.3c2.4-0.3,2.9-3.4,0.7-4.4l-2.9-1.4c-2.3-1.1-1.4-4.4,0.9-4.4c0.1,0,0.2,0,0.3,0l3.2,0.3
		c0.1,0,0.2,0,0.3,0c2.2,0,3.1-2.9,1.3-4.2l-2.6-1.8c-1.9-1.3-0.8-4.2,1.3-4.2c0.2,0,0.5,0,0.6,0.1l3.1,0.8c0.3,0.1,0.5,0.1,0.7,0.1
		c1.9,0,3.1-2.4,1.5-3.9l-2.3-2.3c-1.5-1.5-0.3-4,1.6-4c0.4,0,0.6,0.1,1,0.3l2.8,1.4c0.4,0.2,0.6,0.3,1,0.3c1.7,0,3-2,1.9-3.6
		l-1.8-2.6c-1.2-1.6,0.2-3.6,1.8-3.6c0.5,0,0.9,0.1,1.4,0.5l2.6,1.8c0.5,0.4,0.9,0.5,1.4,0.5c1.5,0,2.8-1.6,2.1-3.3l-1.4-2.8
		c-0.8-1.7,0.6-3.3,2.2-3.3c0.5,0,1.2,0.2,1.6,0.7l2.3,2.3c0.5,0.5,1,0.6,1.5,0.6c1.4,0,2.7-1.4,2.3-2.9l-0.8-3.1
		c-0.5-1.7,0.9-2.9,2.3-2.9c0.6,0,1.4,0.3,1.8,1l1.8,2.6c0.5,0.7,1.2,1,1.9,1c1.3,0,2.4-1,2.4-2.5l-0.3-3.2
		c-0.1-1.5,1.2-2.5,2.4-2.5c0.8,0,1.6,0.5,2.1,1.4l1.4,2.9c0.5,0.9,1.3,1.4,2.1,1.4c1.1,0,2.3-0.7,2.4-2.1l0.3-3.2
		c0.1-1.4,1.2-2.2,2.3-2.2c1,0,1.9,0.5,2.2,1.7l0.8,3.1c0.3,1.1,1.3,1.7,2.2,1.7c1,0,1.9-0.5,2.2-1.7l0.8-3.1
		C302,33.6,302.9,33,303.9,33 M203.3,238.5c3.1-1.1,6.3-1.7,9.8-1.7c5.2,0,10,1.4,14.1,3.8c4.8-12,13.1-22.4,23.6-29.6l-5.9-11.8
		h-31.8h-31.2L203.3,238.5 M284.7,236.7v-18.6c-3,0.2-5.8,0.7-8.6,1.4L284.7,236.7 M93.8,252.1l0.7-2.8v-30.9
		c-9,1.1-17.5,4.8-24.3,10.2L93.8,252.1 M295.3,252.8l23.6-23.6c-6.6-5.5-14.7-9.3-23.6-10.7V252.8 M115.7,242.3l13.9-13.9
		c-2.7-2.2-5.7-4.2-9-5.7L115.7,242.3 M242.2,255.6h30.2L252,235.1C247.2,241,243.8,248,242.2,255.6 M112.7,260.4H147
		c-0.9-9.2-4.4-17.6-9.9-24.4L112.7,260.4 M52.9,260.4h34.2l-24.3-24.3C57.3,243,53.8,251.3,52.9,260.4 M302.8,260.4h32.8
		c-0.9-8.8-4.3-16.8-9.3-23.5L302.8,260.4 M325.7,293.9c5.2-6.5,8.7-14.3,9.8-22.9h-32.7L325.7,293.9 M136.6,294.8
		c5.5-6.7,9.1-14.8,10.3-23.9h-34.2L136.6,294.8 M63.4,294.6L87,271H53C54.2,279.9,57.9,288,63.4,294.6 M252.6,295.6l21.2-21.2
		h-31.6C243.8,282.3,247.6,289.6,252.6,295.6 M295.3,311.5c8.6-1.3,16.4-4.9,22.9-10l-22.9-22.9V311.5 M284.7,311.8v-33.3
		l-24.3,24.3C267.3,307.9,275.7,311.2,284.7,311.8 M105.2,311.7c8.9-0.9,17-4.3,23.7-9.5l-23.7-23.7V311.7 M94.5,311.7v-33.1
		L71,302.1C77.7,307.1,85.9,310.6,94.5,311.7 M303.9,24L303.9,24c-1.9,0-3.7,0.5-5.2,1.3c-1.5-0.8-3.3-1.3-5.2-1.3
		c-2.6,0-5,0.8-7,2.3c-1.1-0.4-2.3-0.5-3.4-0.5c-3.2,0-6.2,1.4-8.3,3.6l-0.1,0.1c-0.5-0.1-1-0.1-1.5-0.1c-3.5,0-6.9,1.6-9,4.4
		c-0.2,0.3-0.5,0.5-0.6,0.8c-3.7,0.2-7.1,2.2-9.1,5.2c-0.4,0.5-0.6,1.1-0.9,1.6c-3.3,0.7-6.2,2.9-7.7,6c-0.5,0.9-0.8,1.8-1,2.7
		c-2.7,1.2-4.9,3.3-6.1,6.2c-0.5,1.3-0.8,2.5-0.8,3.8c-2.3,1.4-4,3.6-4.8,6.3c-0.5,1.6-0.6,3.3-0.5,4.8c-0.9,0.8-1.7,1.8-2.4,3
		c-1.2-4.8-4.1-8.9-8.2-11.3v-2.7h-9h-0.7h-15.1c-3.5,0-9.2,0-58.7,34c-7.1-5.6-15.9-12.5-24.3-18.5C94.6,61.5,89.6,60.3,85.7,60.3
		H69.8c-10.2,0-18.5,8.3-18.5,18.5s8.2,18.5,18.5,18.5h13.8c4.9,3.1,19.9,14.4,33.8,25.2l-17.1,67.7c-20,0-38.8,7.8-53.1,21.9
		c-14.4,14.2-22.3,33-22.3,52.9s8,38.7,22.3,52.9c14.3,14.1,33.2,21.9,53.2,21.9c23.9,0,45.2-11.2,58.9-28.7
		c3.1,5.9,9.2,9.9,16.4,9.9h18.8c7.1,0,13.4-3.9,16.5-10.2l4.3-8.7c2.5-0.2,5.1-0.5,7.6-1.2c5.6,10.2,13.5,19,23.2,25.7
		c12.5,8.7,27.2,13.2,42.4,13.2c20,0,38.9-7.8,53.2-21.9c14.4-14.2,22.3-33,22.3-52.9s-8-38.7-22.3-52.9
		c-14.3-14.1-33.2-21.9-53.2-21.9c-5.3,0-10.7,0.5-15.9,1.7l-3.3-6.4v-14.7h0.4c6.2,0,12.2-2.1,17.1-5.9c1.9,1.4,4.3,2.3,6.8,2.3
		c1.9,0,3.7-0.5,5.2-1.3c1.5,0.8,3.3,1.3,5.2,1.3c2.6,0,5-0.8,7-2.3c1.1,0.4,2.3,0.5,3.4,0.5c3.2,0,6.2-1.4,8.3-3.6l0.1-0.1
		c0.5,0.1,1,0.1,1.5,0.1c3.5,0,6.9-1.6,9-4.4c0.2-0.3,0.5-0.5,0.6-0.8c3.7-0.2,7.1-2.2,9.1-5.2c0.4-0.5,0.6-1.1,0.9-1.6
		c3.3-0.7,6.2-2.9,7.7-6c0.5-0.9,0.8-1.8,1-2.7c2.7-1.2,4.9-3.3,6.1-6.2c0.5-1.3,0.8-2.5,0.8-3.8c2.3-1.4,4-3.6,4.8-6.3
		c0.5-1.6,0.6-3.3,0.5-4.8c1.7-1.5,2.9-3.6,3.4-6c0.5-2.1,0.4-4.1-0.3-6c1.3-1.7,2.1-3.7,2.3-6c0.2-2.2-0.3-4.3-1.3-6.2
		c1-1.9,1.4-4.1,1.3-6.4c-0.2-2.2-1-4.2-2.3-5.8c0.6-1.9,0.7-3.9,0.3-5.9c-0.5-2.4-1.7-4.4-3.4-6c0.2-1.6,0.1-3.3-0.5-5
		c-0.8-2.6-2.5-4.8-4.8-6.2c-0.1-1.3-0.4-2.5-0.8-3.8c-1.2-2.8-3.3-5-6.1-6.2c-0.2-0.9-0.5-1.9-1-2.7c-1.6-3.1-4.4-5.2-7.7-6
		c-0.3-0.5-0.5-1.1-0.9-1.6c-2-3.1-5.4-5.2-9.1-5.2c-0.2-0.3-0.4-0.5-0.5-0.8c-2.2-2.8-5.5-4.4-9-4.4c-0.5,0-1,0-1.4,0.1
		c-2.2-2.4-5.2-3.7-8.5-3.7c-1.2,0-2.4,0.2-3.5,0.5C308.9,24.8,306.5,24,303.9,24L303.9,24L303.9,24z M222.1,94.5
		c2-1.2,3.6-2.7,5.1-4.6c-0.1,2,0.4,3.9,1.3,5.6c-1,1.9-1.4,4.1-1.3,6.4c0.2,2.2,1,4.2,2.3,5.8c-0.6,1.9-0.7,3.9-0.3,5.9
		c0.3,1.1,0.6,2.1,1.1,3c-15.2,4.7-26.2,18.9-26.2,35.7c0,10.1,8.2,18.5,18.5,18.5h9.8v0.7h-19.2h-46.9h-0.1H166h-22.8l11-43.3
		c22.2-15.7,39.9-27.7,45.2-30.8h13.1h0.7h9v-2.8H222.1z M197.1,208.2h15.9h26.2l0.1,0.2c-6.8,5.9-12.4,12.8-16.6,20.6
		c-3.2-0.8-6.3-1.3-9.6-1.3c-1.7,0-3.4,0.1-5.2,0.4L197.1,208.2L197.1,208.2z M149,208.2h6.1l23.3,42.9c-1.7,4.3-2.6,9-2.6,13.8
		c0,6.9,1.8,13.4,5.2,19.2h-5.6c-1,0-2,0.1-2.9,0.3c1.6-6.2,2.5-12.7,2.5-19.4c0-15.1-4.5-29.6-12.9-42.1
		C158.4,217.5,154,212.5,149,208.2L149,208.2z M84.8,230.3c0.3-0.1,0.5-0.2,0.7-0.3v1L84.8,230.3L84.8,230.3z M304.4,230.9v-0.5
		c0.1,0,0.2,0.1,0.3,0.1L304.4,230.9L304.4,230.9z M134.5,251.3l0.8-0.8c0.1,0.3,0.2,0.5,0.4,0.8H134.5L134.5,251.3z M64.3,251.3
		c0.1-0.2,0.2-0.5,0.3-0.6l0.6,0.6H64.3L64.3,251.3z M134.5,280.1h0.5c-0.1,0.1-0.1,0.3-0.2,0.4L134.5,280.1L134.5,280.1z
		 M64.9,280.1h0.3l-0.2,0.2C64.9,280.2,64.9,280.1,64.9,280.1L64.9,280.1z M275.3,300.7l0.3-0.3v0.5
		C275.6,300.7,275.4,300.7,275.3,300.7L275.3,300.7z"/>
</g>
<path class="st1" d="M300.8,37.8l0.8-3.1c0.6-2.5,4.3-2.2,4.5,0.5l0.3,3.2c0.3,2.4,3.4,2.9,4.4,0.7l1.4-2.9c1.1-2.4,4.7-1.4,4.4,1.2
	l-0.3,3.2c-0.3,2.4,2.8,3.4,4.2,1.5l1.8-2.6c1.4-2.1,4.8-0.5,4.1,1.9l-0.8,3.1c-0.6,2.4,2.2,3.9,3.8,2.3l2.3-2.3
	c1.8-1.8,4.8,0.3,3.7,2.6l-1.4,2.8c-1,2.1,1.5,4.2,3.4,2.8l2.6-1.8c2.1-1.5,4.7,1.1,3.2,3.2l-1.8,2.6c-1.4,1.9,0.6,4.4,2.8,3.4
	l2.8-1.4c2.4-1.1,4.4,1.9,2.6,3.7l-2.3,2.3c-1.6,1.6,0,4.4,2.3,3.8l3.1-0.8c2.5-0.6,4,2.6,1.9,4.1l-2.6,1.8c-2,1.4-0.8,4.4,1.5,4.2
	l3.2-0.3c2.6-0.2,3.5,3.3,1.2,4.4l-2.9,1.4c-2.2,1-1.6,4.3,0.7,4.4l3.2,0.3c2.6,0.2,2.9,3.8,0.5,4.5l-3.1,0.8
	c-2.3,0.5-2.3,3.8,0,4.4l3.1,0.8c2.5,0.6,2.2,4.3-0.5,4.5l-3.2,0.3c-2.4,0.3-2.9,3.4-0.7,4.4l2.9,1.4c2.4,1.1,1.4,4.7-1.2,4.4
	l-3.2-0.3c-2.4-0.3-3.4,2.8-1.5,4.2l2.6,1.8c2.1,1.4,0.5,4.8-1.9,4.1l-3.1-0.8c-2.4-0.6-3.9,2.2-2.3,3.8l2.3,2.3
	c1.8,1.8-0.3,4.8-2.6,3.7l-2.8-1.4c-2.1-1-4.2,1.5-2.8,3.4l1.8,2.6c1.5,2.1-1.1,4.7-3.2,3.2l-2.6-1.8c-1.9-1.4-4.4,0.6-3.4,2.8
	l1.4,2.8c1.1,2.4-1.9,4.4-3.7,2.6l-2.3-2.3c-1.6-1.6-4.4,0-3.8,2.3l0.8,3.1c0.6,2.5-2.6,4-4.1,1.9l-1.8-2.6c-1.4-2-4.4-0.8-4.2,1.5
	l0.3,3.2c0.2,2.6-3.3,3.5-4.4,1.2l-1.4-2.9c-1-2.2-4.3-1.6-4.4,0.7l-0.3,3.2c-0.2,2.6-3.8,2.9-4.5,0.5l-0.8-3.1
	c-0.5-2.3-3.8-2.3-4.4,0l-0.8,3.1c-0.6,2.5-4.3,2.2-4.5-0.5l-0.3-3.2c-0.3-2.4-3.4-2.9-4.4-0.7l-1.4,2.9c-1.1,2.4-4.7,1.4-4.4-1.2
	l0.3-3.2c0.3-2.4-2.8-3.4-4.2-1.5l-1.8,2.6c-1.4,2.1-4.8,0.5-4.1-1.9l0.8-3.1c0.6-2.4-2.2-3.9-3.8-2.3l-2.3,2.3
	c-1.8,1.8-4.8-0.3-3.7-2.6l1.4-2.8c1-2.1-1.5-4.2-3.4-2.8l-2.6,1.8c-2.1,1.5-4.7-1.1-3.2-3.2l1.8-2.6c1.4-1.9-0.6-4.4-2.8-3.4
	l-2.8,1.4c-2.4,1.1-4.4-1.9-2.6-3.7l2.3-2.3c1.6-1.6,0-4.4-2.3-3.8l-3.1,0.8c-2.5,0.6-4-2.6-1.9-4.1l2.6-1.8c2-1.4,0.8-4.4-1.5-4.2
	l-3.2,0.3c-2.6,0.2-3.5-3.3-1.2-4.4l2.9-1.4c2.2-1,1.6-4.3-0.7-4.4l-3.2-0.3c-2.6-0.2-2.9-3.8-0.5-4.5l3.1-0.8
	c2.3-0.5,2.3-3.8,0-4.4l-3.1-0.8c-2.5-0.6-2.2-4.3,0.5-4.5l3.2-0.3c2.4-0.3,2.9-3.4,0.7-4.4l-2.9-1.4c-2.4-1.1-1.4-4.7,1.2-4.4
	l3.2,0.3c2.4,0.3,3.4-2.8,1.5-4.2l-2.6-1.8c-2.1-1.4-0.5-4.8,1.9-4.1l3.1,0.8c2.4,0.6,3.9-2.2,2.3-3.8l-2.3-2.3
	c-1.8-1.8,0.3-4.8,2.6-3.7l2.8,1.4c2.1,1,4.2-1.5,2.8-3.4L254,54c-1.5-2.1,1.1-4.7,3.2-3.2l2.6,1.8c1.9,1.4,4.4-0.6,3.4-2.8
	l-1.4-2.8c-1.1-2.4,1.9-4.4,3.7-2.6l2.3,2.3c1.6,1.6,4.4,0,3.8-2.3l-0.8-3.1c-0.6-2.5,2.6-4,4.1-1.9l1.8,2.6c1.4,2,4.4,0.8,4.2-1.5
	l-0.3-3.2c-0.2-2.6,3.3-3.5,4.4-1.2l1.4,2.9c1,2.2,4.3,1.6,4.4-0.7l0.3-3.2c0.2-2.6,3.8-2.9,4.5-0.5l0.8,3.1
	C297,40.1,300.3,40.1,300.8,37.8z"/>
<g>
	<g>
		<rect x="284.7" y="204.5" class="st2" width="10.7" height="122.3"/>
		<rect x="228.9" y="260.4" class="st2" width="122.3" height="10.7"/>
		
			<rect x="228.9" y="260.4" transform="matrix(0.7071 -0.7071 0.7071 0.7071 -102.9317 282.9252)" class="st2" width="122.3" height="10.7"/>
		
			<rect x="284.7" y="204.5" transform="matrix(0.7071 -0.7071 0.7071 0.7071 -102.886 282.9239)" class="st2" width="10.7" height="122.3"/>
	</g>
	<g>
		<rect x="94.5" y="204.5" class="st2" width="10.7" height="122.3"/>
		<rect x="38.7" y="260.3" class="st2" width="122.3" height="10.7"/>
		
			<rect x="38.7" y="260.3" transform="matrix(0.7071 -0.7071 0.7071 0.7071 -158.6177 148.432)" class="st2" width="122.3" height="10.7"/>
		
			<rect x="94.5" y="204.5" transform="matrix(0.7071 -0.7071 0.7071 0.7071 -158.6111 148.4469)" class="st2" width="10.7" height="122.3"/>
	</g>
	<path class="st3" d="M33.8,265c0,36.3,30.1,65.8,66.4,65.8S166,301.3,166,265s-29.5-65.8-65.8-65.8S33.8,228.7,33.8,265z M52.6,265
		c0-26,21.7-47.1,47.6-47.1s47.1,21.1,47.1,47.1c0,26-21.1,47.1-47.1,47.1S52.6,290.9,52.6,265z"/>
	<path class="st3" d="M222.5,265c0,36.3,29.5,65.8,65.8,65.8s66.4-29.5,66.4-65.8s-30-65.8-66.4-65.8S222.5,228.7,222.5,265z
		 M241.3,265c0-26,21.1-47.1,47.1-47.1c26,0,47.6,21.1,47.6,47.1c0,26-21.7,47.1-47.6,47.1C262.5,312,241.3,290.9,241.3,265z"/>
	<path class="st4" d="M97.7,274c-5-1.4-7.9-6.6-6.4-11.6L127.6,119c0,0-39-30.9-41.9-30.9H69.8c-5.2,0-9.4-4.2-9.4-9.4
		s4.2-9.4,9.4-9.4h15.8c8.8,0,59.7,42,59.7,42c1.8,2.4,2.4,5.4,1.5,8.2l-37.6,148c-1.2,4.2-5,6.8-9,6.8
		C99.4,274.4,98.5,274.3,97.7,274z"/>
	<path class="st4" d="M241.3,189.8v-37.6c0-5.2,4.2-9.4,9.4-9.4c5.2,0,9.4,4.2,9.4,9.4v37.6c0,5.2-4.2,9.4-9.4,9.4
		S241.3,195,241.3,189.8z"/>
	<g>
		<path class="st4" d="M166.1,302.6c0-5.2,4.2-9.4,9.4-9.4h13l7.8-15.6c2.4-4.6,8-6.5,12.6-4.2c4.6,2.4,6.5,8,4.2,12.6l-10.4,20.8
			c-1.6,3.2-4.9,5.2-8.4,5.2h-18.8C170.3,312,166.1,307.8,166.1,302.6z"/>
		<path class="st4" d="M191.5,256.2l-33.8-61.9c-2.5-4.5-0.8-10.3,3.8-12.8c4.6-2.5,10.3-0.8,12.8,3.8l33.8,61.9
			c2.5,4.5,0.8,10.3-3.8,12.8c-1.4,0.8-3,1.2-4.5,1.2C196.5,261.1,193.3,259.4,191.5,256.2z"/>
	</g>
	<g>
		<path class="st4" d="M121.7,180.4h129c3.5,0,6.8,2.1,8.5,5.2l37.6,75.2c1.4,2.8,1.4,6.4-0.4,9c-1.9,2.8-4.9,4.5-8.1,4.5h-56.4
			c-5.2,0-9.4-4.2-9.4-9.4c0-5.2,4.2-9.4,9.4-9.4h41l-28.2-56.4H121.7c-5.1,0-9.4-4.2-9.4-9.4C112.3,184.5,116.6,180.4,121.7,180.4z
			"/>
		<path class="st4" d="M130.9,110.7c0,0,58.5-41.4,66.4-41.4h15.1c5.2,0,9.4,4.2,9.4,9.4s-4.2,9.4-9.4,9.4h-15.1c-2.6,0-5.1,1.1-7,3
			l-45.5,32.3c-1.9,1.9-4.3,3-7,3c-2.3,0-4.5-0.7-6.4-2.4C127.7,120.6,127.4,114.7,130.9,110.7z"/>
	</g>
	<g>
		<path class="st4" d="M144.8,123.4c-1.9,1.9-4.3,3-7,3c-2.3,0-4.5-0.7-6.4-2.4c-3.8-3.3-4.2-9.4-0.5-13.4c0,0,58.5-41.4,66.4-41.4
			h15.8v18.8h-15.8C194.7,88.2,144.8,123.4,144.8,123.4z"/>
		<path class="st4" d="M121.7,180.4h91.4v18.8h-91.4c-5.1,0-9.4-4.2-9.4-9.4C112.3,184.5,116.6,180.4,121.7,180.4z"/>
	</g>
	<path class="st2" d="M184.9,265c0,15.6,12.6,28.2,28.2,28.2c12.2,0,22.7-7.9,26.5-18.8c1.1-3,1.7-6,1.7-9.4c0-3.4-0.5-6.4-1.7-9.4
		c-3.8-10.9-14.3-18.8-26.5-18.8C197.5,236.8,184.9,249.4,184.9,265z"/>
	<path class="st5" d="M200.5,265c0,7,5.6,12.6,12.6,12.6c5.4,0,10.2-3.5,11.9-8.4c0.5-1.4,0.7-2.7,0.7-4.2c0-1.4-0.3-2.9-0.7-4.2
		c-1.7-4.9-6.4-8.4-11.9-8.4C206.1,252.4,200.5,258,200.5,265z"/>
</g>
<rect x="241.4" y="158.8" class="st6" width="18.7" height="10"/>
<path class="st5" d="M213.1,152.1L213.1,152.1c0-15.6,12.7-28.2,28.2-28.2h28.2c10.4,0,18.8,8.4,18.8,18.8l0,0
	c0,10.4-8.4,18.8-18.8,18.8h-47.1C217.3,161.5,213.1,157.4,213.1,152.1z"/>
<circle class="st3" cx="275.5" cy="137.8" r="4.3"/>
<circle class="st3" cx="268.7" cy="149.9" r="4.3"/>
<circle class="st3" cx="262.4" cy="138.6" r="4.3"/>
<text transform="matrix(1 0 0 1 256.1768 112.3135)" class="st0 st7 st8">$</text>
<text transform="matrix(1 0 0 1 277.3506 112.3135)" class="st0 st7 st9">73</text>
</svg>
