<?xml version="1.0" encoding="utf-8"?>
<!-- Generator: Adobe Illustrator 22.0.1, SVG Export Plug-In . SVG Version: 6.00 Build 0)  -->
<svg version="1.1" id="Layer_1" xmlns="http://www.w3.org/2000/svg" xmlns:xlink="http://www.w3.org/1999/xlink" x="0px" y="0px"
	 viewBox="0 0 400 400" style="enable-background:new 0 0 400 400;" xml:space="preserve">
<style type="text/css">
	.st0{fill:#FFFFFF;}
	.st1{enable-background:new    ;}
	.st2{fill:#FFFFFF;stroke:#FFFFFF;stroke-width:10;stroke-linecap:round;stroke-linejoin:round;stroke-miterlimit:10;}
	.st3{fill:#FCC62D;}
	.st4{fill:#AEB9C1;}
	.st5{fill:#3D4449;}
	.st6{fill:none;stroke:#F9DC39;stroke-width:2.2964;stroke-linecap:round;stroke-linejoin:round;stroke-dasharray:1.1678,8.1743;}
	.st7{fill:#76CEE4;}
	.st8{fill:#60C1D8;}
	.st9{fill:#1EAFD8;}
	.st10{fill:#033333;}
	.st11{fill:#A0AAB4;}
	.st12{fill:none;stroke:#D6DEE4;stroke-width:1.7869;stroke-linecap:round;stroke-linejoin:round;stroke-dasharray:0.9087,6.3609;}
	.st13{fill:#FADC3C;stroke:#E7C42A;stroke-width:2.2449;stroke-miterlimit:10;}
	.st14{fill:none;stroke:#F9DC39;stroke-width:2.335;stroke-linecap:round;stroke-linejoin:round;stroke-dasharray:1.1874,8.3119;}
	.st15{fill:#7C6608;}
	.st16{fill:#691869;}
</style>
<g>
	<g>
		<g>
			<g>
				
					<ellipse transform="matrix(0.2298 -0.9732 0.9732 0.2298 -58.368 162.8488)" class="st0" cx="73.7" cy="118.3" rx="51.3" ry="51.3"/>
				<path class="st0" d="M73.7,72c25.6,0,46.3,20.7,46.3,46.3s-20.7,46.3-46.3,46.3s-46.3-20.7-46.3-46.3S48.1,72,73.7,72 M73.7,62
					c-31,0-56.3,25.3-56.3,56.3s25.3,56.3,56.3,56.3s56.3-25.3,56.3-56.3S104.7,62,73.7,62L73.7,62z"/>
			</g>
		</g>
		<g>
			
				<ellipse transform="matrix(0.2298 -0.9732 0.9732 0.2298 -58.368 162.8489)" class="st0" cx="73.7" cy="118.3" rx="35.3" ry="35.3"/>
			<path class="st0" d="M73.7,88c16.7,0,30.3,13.6,30.3,30.3c0,16.7-13.6,30.3-30.3,30.3S43.4,135,43.4,118.3
				C43.4,101.6,57,88,73.7,88 M73.7,78c-22.2,0-40.3,18.1-40.3,40.3s18.1,40.3,40.3,40.3s40.3-18.1,40.3-40.3S95.9,78,73.7,78
				L73.7,78z"/>
		</g>
		<g>
			<g class="st1">
				<g>
					<path class="st0" d="M79.1,137.2c-2.3,0-4.5-0.4-6.9-1.2c-2.4-0.8-4.4-1.9-6-3.3c-1.8-1.6-2.8-3.6-2.8-5.8
						c0-1.7,0.5-3.3,1.5-4.6c0.1-0.2,0.3-0.4,0.5-0.5c0.1-0.1,0.2-0.2,0.3-0.3c-0.7-1.1-1.2-2.4-1.2-3.9v-13.7c0-2.2,0.7-4,2.2-5.4
						c1.4-1.4,3.3-2.2,5.4-2.2h14.4c4.5,0,7.6,3,7.6,7.2c0,3.2-1.8,5.7-4.6,6.7c1.5,1.1,2.7,2.5,3.7,4.2c0,0,0,0.1,0.1,0.1
						c1.2,2.2,1.8,4.7,1.8,7.5c0,2.8-0.7,5.3-2,7.8c-1.3,2.3-3.1,4.1-5.7,5.5c0,0-0.1,0-0.1,0.1C84.8,136.6,82.1,137.2,79.1,137.2z
						 M77.2,122.6c0.5,0.2,1.1,0.2,1.6,0.2c0.4,0,0.7,0,0.9-0.1c0-0.1,0-0.2,0-0.4c0-0.2,0-0.4,0-0.4c-0.1,0-0.3-0.1-0.7-0.1
						c-0.5,0-0.9,0.1-1.4,0.2c-0.2,0.1-0.4,0.1-0.7,0.4C77,122.5,77.1,122.5,77.2,122.6z"/>
					<path class="st0" d="M86.5,101.3c1.7,0,2.6,0.7,2.6,2.2c0,1.4-0.9,2.2-2.6,2.2H74.9v8.2c1.5-1,3.3-1.6,5.4-1.6
						c0.2,0,0.3,0,0.5,0c1.7,0,3.2,0.5,4.6,1.2c1.5,0.8,2.6,2,3.4,3.4c0.8,1.5,1.2,3.2,1.2,5.1c0,2-0.5,3.7-1.4,5.3
						c-0.9,1.6-2.2,2.7-3.8,3.6c-1.7,0.9-3.6,1.3-5.7,1.3c-1.8,0-3.5-0.3-5.3-0.9c-1.7-0.6-3.2-1.4-4.4-2.4c-0.7-0.6-1-1.3-1-2
						c0-0.6,0.2-1.2,0.5-1.6c0.4-0.4,0.8-0.7,1.3-0.7c0.3,0,0.6,0.1,0.8,0.2c0.3,0.1,0.6,0.3,0.9,0.5c1.2,0.8,2.3,1.4,3.4,1.9
						c1.1,0.4,2.3,0.6,3.5,0.6c1.9,0,3.4-0.5,4.4-1.4c1-1,1.5-2.3,1.5-4.1c0-1.7-0.5-3-1.5-4s-2.4-1.5-4.2-1.5c-1.1,0-2.1,0.2-3,0.5
						c-0.9,0.3-1.8,0.8-2.7,1.6c-0.5,0.4-1.1,0.6-1.7,0.6c-0.6,0-1.1-0.2-1.5-0.5c-0.4-0.3-0.6-0.8-0.6-1.4v-13.7
						c0-0.8,0.2-1.4,0.7-1.9s1.1-0.7,1.9-0.7H86.5 M86.5,91.3H72.1c-4.4,0-7.3,2-9,3.6c-1.7,1.7-3.6,4.6-3.6,9v13.7
						c0,1.1,0.1,2.2,0.4,3.2c-1,1.8-1.5,3.9-1.5,6.1c0,3.6,1.6,7.1,4.5,9.6c0,0,0.1,0.1,0.1,0.1c2.1,1.7,4.6,3.1,7.5,4.1
						c0.1,0,0.1,0,0.2,0.1c2.9,1,5.6,1.4,8.5,1.4c3.8,0,7.3-0.8,10.4-2.5c0.1,0,0.1-0.1,0.2-0.1c3.4-1.9,5.9-4.3,7.6-7.4
						c1.8-3.2,2.7-6.6,2.7-10.2c0-3.5-0.8-6.8-2.4-9.8c0-0.1-0.1-0.2-0.1-0.3c-0.2-0.4-0.5-0.8-0.7-1.2c1.5-2,2.3-4.5,2.3-7.3
						C99.1,96.4,93.8,91.3,86.5,91.3L86.5,91.3z"/>
				</g>
			</g>
		</g>
	</g>
	<g>
		<g>
			<g>
				
					<ellipse transform="matrix(0.2298 -0.9732 0.9732 0.2298 -58.368 162.8488)" class="st0" cx="73.7" cy="118.3" rx="42.2" ry="42.2"/>
				<path class="st0" d="M73.7,81.1c20.5,0,37.2,16.7,37.2,37.2c0,20.5-16.7,37.2-37.2,37.2s-37.2-16.7-37.2-37.2
					C36.5,97.8,53.2,81.1,73.7,81.1 M73.7,71.1c-26,0-47.2,21.2-47.2,47.2c0,26,21.2,47.2,47.2,47.2s47.2-21.2,47.2-47.2
					C120.9,92.3,99.7,71.1,73.7,71.1L73.7,71.1z"/>
			</g>
		</g>
	</g>
	<path id="XMLID_6_" class="st2" d="M59,128.3c-0.5,0-0.7-0.2-0.7-0.7v-0.9c-1.4-0.2-2.3-0.5-3.4-1.4v0.9c0,0.5-0.2,0.7-0.7,0.7
		s-0.7-0.2-0.7-0.7V122c0-0.5,0.2-0.7,0.7-0.7s0.7,0.2,0.7,0.7v1.5c0.7,0.8,1.3,1,2.5,1.5c0.3,0.1,0.6,0.2,1,0.2v-6.5
		c-1.4-0.3-2.3-0.7-3-1s-1.3-0.8-1.7-1.4s-0.6-1.1-0.6-2c0-1.4,0.5-2.4,1.4-3.2c0.8-0.8,2.2-1.1,3.9-1.3v-0.9c0-0.5,0.2-0.7,0.7-0.7
		s0.7,0.2,0.7,0.7v1c1.3,0.2,2.3,0.7,3.2,1.3c0.2,0.1,0.1,0.3,0.2,0.5v-0.9c0-0.5,0.2-0.7,0.7-0.7c0.5,0,0.7,0.2,0.7,0.7v4.2
		c0,0.5-0.2,0.7-0.7,0.7c-0.5,0-0.7-0.2-0.7-0.7v-1.5c-0.8-0.8-1.5-1.5-2.5-2c-0.2-0.1-0.6-0.2-0.9-0.2v6.2c0.2,0,0.6,0.1,1,0.2
		c0.8,0.2,1.6,0.5,2.3,0.8s1.3,0.8,1.7,1.4c0.5,0.6,0.6,1.3,0.6,2c0,1.5-0.5,2.6-1.5,3.4c-0.9,0.8-2.4,1.3-4.1,1.3v0.9
		C59.7,128,59.4,128.3,59,128.3 M56.3,125.3c0.1,0,0.2,0.1,0.3,0.1C56.5,125.4,56.4,125.3,56.3,125.3 M59.7,119v6.3
		c1.4,0,2.5-0.3,3.2-0.9c0.8-0.6,1.1-1.4,1.1-2.3c0-0.5-0.1-0.9-0.5-1.3c-0.3-0.3-0.7-0.7-1.3-0.9c-0.5-0.2-1-0.5-1.6-0.6L59.7,119z
		 M63.6,124.7c-0.1,0.1-0.2,0.2-0.3,0.2c-0.1,0.1-0.3,0.2-0.6,0.3c0.2-0.1,0.5-0.2,0.6-0.5C63.5,124.8,63.6,124.7,63.6,124.7
		 M58.3,111.3c-1.4,0-2.3,0.3-3,0.8c-0.7,0.6-1,1.3-1,2.1c0,0.5,0.1,0.9,0.5,1.3c0.3,0.3,0.7,0.7,1.3,0.9c0.5,0.2,1,0.5,1.5,0.6
		c0.2,0.1,0.6,0.1,0.8,0.2L58.3,111.3L58.3,111.3z"/>
</g>
<g>
	<g>
		<g>
			<g>
				<g>
					<path class="st0" d="M42.8,249.5c-7.4,0-13.9-5.5-15-12.8l-9.6-60.6c-0.6-4,0.3-8,2.7-11.3c2.4-3.3,5.9-5.5,9.9-6.1l110.1-17.4
						c0.8-0.1,1.6-0.2,2.4-0.2c7.4,0,13.9,5.5,15,12.8l9.6,60.7c1.3,8.3-4.4,16.1-12.6,17.4L45.2,249.5c-0.3,0-0.5,0.1-0.8,0.1
						c-0.2,0-0.3,0-0.5,0C43.5,249.5,43.1,249.5,42.8,249.5z"/>
					<path class="st0" d="M143.3,146.1c4.9,0,9.3,3.6,10.1,8.6l9.6,60.7c0.9,5.6-2.9,10.8-8.5,11.7L44.4,244.5l0-0.1
						c-0.5,0.1-1.1,0.1-1.6,0.1c-4.9,0-9.3-3.6-10.1-8.6l-9.6-60.6c-0.9-5.6,2.9-10.8,8.5-11.7l110.1-17.4
						C142.2,146.1,142.8,146.1,143.3,146.1 M143.3,136.1c-1.1,0-2.1,0.1-3.2,0.2L30,153.8c-5.3,0.8-10,3.7-13.2,8.1
						c-3.2,4.4-4.5,9.7-3.6,15l9.6,60.6c1.6,9.9,10,17.1,20,17.1c0.4,0,0.7,0,1.1,0c0.2,0,0.4,0,0.6,0c0.5,0,1,0,1.6-0.1L156.1,237
						c11-1.7,18.5-12.1,16.8-23.1l-9.6-60.7C161.7,143.3,153.3,136.1,143.3,136.1L143.3,136.1z"/>
				</g>
			</g>
			<g>
				<g>
					<path class="st0" d="M53.9,237.7c-2.4,0-4.5-1.8-4.9-4.2c-0.5-2.9-3.1-5.2-6.1-5.2c-0.3,0-0.6,0-0.9,0.1
						c-0.3,0-0.5,0.1-0.8,0.1c-1,0-2.1-0.3-2.9-1c-1.1-0.8-1.8-2-2-3.3l-6.1-38.5c-0.4-2.7,1.4-5.3,4.2-5.7c3.3-0.5,5.6-3.7,5.1-7
						c-0.2-1.3,0.1-2.6,0.9-3.7c0.8-1.1,2-1.8,3.3-2l88.1-13.9c0.3,0,0.5-0.1,0.8-0.1c2.4,0,4.5,1.8,4.9,4.2
						c0.5,2.9,3.1,5.2,6.1,5.2c0.3,0,0.6,0,0.9-0.1c0.3,0,0.5-0.1,0.8-0.1c1,0,2.1,0.3,2.9,1c1.1,0.8,1.8,2,2,3.3l6.1,38.5
						c0.2,1.3-0.1,2.7-0.9,3.8c-0.8,1.1-2,1.8-3.3,2c-1.6,0.2-2.9,1-3.9,2.3c-1,1.3-1.4,3-1.1,4.7c0.2,1.3-0.1,2.6-0.9,3.7
						c-0.8,1.1-2,1.8-3.3,2l-88.1,13.9C54.4,237.7,54.2,237.7,53.9,237.7z"/>
					<path class="st0" d="M132.5,158.3c0.9,5.4,5.7,9.4,11,9.4c0.6,0,1.1,0,1.7-0.1l6.1,38.5c-6.1,0.9-10.2,6.6-9.2,12.7l-88.1,13.9
						c-0.9-5.4-5.7-9.4-11-9.4c-0.6,0-1.1,0-1.7,0.1l-6.1-38.5c6-0.9,10.2-6.7,9.2-12.7L132.5,158.3 M132.5,148.3
						c-0.5,0-1,0-1.6,0.1l-88.1,13.9c-2.6,0.4-5,1.9-6.5,4c-1.6,2.1-2.2,4.8-1.8,7.4c0.1,0.6-0.4,1.2-0.9,1.3
						c-5.5,0.9-9.2,6-8.3,11.4l6.1,38.5c0.8,4.9,5,8.4,9.9,8.4c0.5,0,1,0,1.6-0.1c0,0,0.1,0,0.1,0c0.5,0,1.1,0.4,1.1,0.9
						c0.8,4.9,5,8.4,9.9,8.4c0.5,0,1,0,1.6-0.1l88.1-13.9c5.5-0.9,9.2-6,8.3-11.4c-0.1-0.5,0.1-0.8,0.2-0.9c0.2-0.2,0.4-0.3,0.5-0.3
						c2.7-0.4,5.1-1.8,6.7-4c1.6-2.2,2.3-4.9,1.8-7.5l-6.1-38.5c-0.8-4.9-5-8.4-9.9-8.4c-0.5,0-1,0-1.6,0.1c0,0-0.1,0-0.1,0
						c-0.5,0-1.1-0.4-1.1-0.9C141.6,151.8,137.3,148.3,132.5,148.3L132.5,148.3z"/>
				</g>
			</g>
		</g>
		<g>
			<g>
				<path class="st0" d="M36,185.3c-4.7,0-8.6-3.4-9.4-8c-0.4-2.5,0.2-5,1.7-7s3.7-3.4,6.2-3.8c0.5-0.1,1-0.1,1.5-0.1
					c4.7,0,8.6,3.4,9.4,8c0.8,5.2-2.7,10-7.9,10.8C37,185.3,36.5,185.3,36,185.3z"/>
				<path class="st0" d="M36,171.4c2.2,0,4.1,1.6,4.4,3.8c0.4,2.4-1.3,4.7-3.7,5.1c-0.2,0-0.5,0.1-0.7,0.1c-2.2,0-4.1-1.6-4.4-3.8
					c-0.4-2.4,1.3-4.7,3.7-5.1C35.5,171.4,35.7,171.4,36,171.4 M36,161.4C36,161.4,36,161.4,36,161.4c-0.8,0-1.5,0.1-2.3,0.2
					c-3.8,0.6-7.2,2.7-9.4,5.8c-2.3,3.1-3.2,7-2.6,10.8c1.1,7.1,7.1,12.2,14.3,12.2c0.8,0,1.5-0.1,2.3-0.2c3.8-0.6,7.2-2.7,9.4-5.8
					c2.3-3.1,3.2-7,2.6-10.8C49.2,166.5,43.1,161.4,36,161.4L36,161.4z"/>
			</g>
			<g>
				<path class="st0" d="M142,168.5c-4.7,0-8.6-3.4-9.4-8c-0.8-5.2,2.7-10,7.9-10.8c0.5-0.1,1-0.1,1.5-0.1c4.7,0,8.6,3.4,9.4,8
					c0.8,5.2-2.7,10-7.9,10.8C143,168.5,142.5,168.5,142,168.5z"/>
				<path class="st0" d="M142,154.6c2.2,0,4.1,1.6,4.4,3.8c0.4,2.4-1.3,4.7-3.7,5.1c-0.2,0-0.5,0.1-0.7,0.1c-2.2,0-4.1-1.6-4.4-3.8
					c-0.4-2.4,1.3-4.7,3.7-5.1C141.5,154.6,141.8,154.6,142,154.6 M142,144.6C142,144.6,142,144.6,142,144.6c-0.8,0-1.5,0.1-2.3,0.2
					c-3.8,0.6-7.2,2.7-9.4,5.8c-2.3,3.1-3.2,7-2.6,10.8c1.1,7.1,7.1,12.2,14.3,12.2c0.8,0,1.5-0.1,2.3-0.2c3.8-0.6,7.2-2.7,9.4-5.8
					c2.3-3.1,3.2-7,2.6-10.8C155.2,149.7,149.2,144.6,142,144.6L142,144.6z"/>
			</g>
		</g>
		<g>
			<g>
				<path class="st0" d="M44.9,241.6c-4.7,0-8.6-3.4-9.4-8c-0.8-5.2,2.7-10,7.9-10.8c0.5-0.1,1-0.1,1.5-0.1c4.7,0,8.6,3.4,9.4,8
					c0.4,2.5-0.2,5-1.7,7c-1.5,2-3.7,3.4-6.2,3.8C45.9,241.6,45.4,241.6,44.9,241.6z"/>
				<path class="st0" d="M44.9,227.7c2.2,0,4.1,1.6,4.4,3.8c0.4,2.4-1.3,4.7-3.7,5.1c-0.2,0-0.5,0.1-0.7,0.1c-2.2,0-4.1-1.6-4.4-3.8
					c-0.4-2.4,1.3-4.7,3.7-5.1C44.4,227.7,44.7,227.7,44.9,227.7 M44.9,217.7C44.9,217.7,44.9,217.7,44.9,217.7
					c-0.8,0-1.5,0.1-2.3,0.2c-3.8,0.6-7.2,2.7-9.4,5.8c-2.3,3.1-3.2,7-2.6,10.8c1.1,7.1,7.1,12.2,14.3,12.2c0.8,0,1.5-0.1,2.3-0.2
					c3.8-0.6,7.2-2.7,9.4-5.8c2.3-3.1,3.2-7,2.6-10.8C58.1,222.8,52,217.7,44.9,217.7L44.9,217.7z"/>
			</g>
			<g>
				<path class="st0" d="M150.9,224.8c-4.7,0-8.6-3.4-9.4-8c-0.4-2.5,0.2-5,1.7-7s3.7-3.4,6.2-3.8c0.5-0.1,1-0.1,1.5-0.1
					c4.7,0,8.6,3.4,9.4,8c0.4,2.5-0.2,5-1.7,7.1c-1.5,2-3.7,3.4-6.2,3.8C151.9,224.8,151.4,224.8,150.9,224.8z"/>
				<path class="st0" d="M150.9,210.9c2.2,0,4.1,1.6,4.4,3.8c0.4,2.4-1.3,4.7-3.7,5.1c-0.2,0-0.5,0.1-0.7,0.1
					c-2.2,0-4.1-1.6-4.4-3.8c-0.4-2.4,1.3-4.7,3.7-5.1C150.4,210.9,150.7,210.9,150.9,210.9 M150.9,200.9
					C150.9,200.9,150.9,200.9,150.9,200.9c-0.8,0-1.5,0.1-2.3,0.2c-3.8,0.6-7.2,2.7-9.4,5.8c-2.3,3.1-3.2,7-2.6,10.8
					c1.1,7.1,7.1,12.2,14.3,12.2c0.8,0,1.5-0.1,2.3-0.2c3.8-0.6,7.2-2.7,9.4-5.8c2.3-3.1,3.2-7,2.6-10.8
					C164.1,206,158.1,200.9,150.9,200.9L150.9,200.9z"/>
			</g>
		</g>
		<g>
			<g>
				<path class="st0" d="M52.2,188.9c-3.7,0-6.8-2.7-7.4-6.3c-0.6-4.1,2.2-8,6.3-8.6c0.4-0.1,0.8-0.1,1.2-0.1c3.7,0,6.8,2.7,7.4,6.3
					c0.3,2-0.2,4-1.3,5.6c-1.2,1.6-2.9,2.7-4.9,3C53,188.9,52.6,188.9,52.2,188.9z"/>
				<path class="st0" d="M52.2,178.9c1.2,0,2.3,0.9,2.5,2.1c0.2,1.4-0.7,2.7-2.1,2.9c-0.1,0-0.3,0-0.4,0c-1.2,0-2.3-0.9-2.5-2.1
					c-0.2-1.4,0.7-2.7,2.1-2.9C51.9,178.9,52.1,178.9,52.2,178.9 M52.2,168.9c-0.7,0-1.3,0.1-2,0.2c-6.8,1.1-11.5,7.5-10.4,14.3
					c1,6.1,6.2,10.6,12.4,10.6c0.7,0,1.3-0.1,2-0.2c6.8-1.1,11.5-7.5,10.4-14.3C63.6,173.3,58.4,168.9,52.2,168.9L52.2,168.9z"/>
			</g>
		</g>
		<g>
			<g>
				<path class="st0" d="M60.7,190.8c-3.8,0-7-2.8-7.5-6.6c-0.2-2,0.3-4,1.5-5.6c1.2-1.6,3-2.6,5-2.8c0.3,0,0.6-0.1,0.9-0.1
					c3.8,0,7,2.8,7.5,6.6c0.5,4.1-2.4,7.9-6.5,8.4C61.3,190.8,61,190.8,60.7,190.8z"/>
				<path class="st0" d="M60.7,180.8c1.3,0,2.3,0.9,2.5,2.2c0.2,1.4-0.8,2.6-2.2,2.8c-0.1,0-0.2,0-0.3,0c-1.3,0-2.3-0.9-2.5-2.2
					c-0.2-1.4,0.8-2.6,2.2-2.8C60.5,180.8,60.6,180.8,60.7,180.8 M60.7,170.8c-0.5,0-1,0-1.5,0.1c-6.9,0.9-11.7,7.1-10.9,14
					c0.8,6.3,6.1,11,12.4,11c0.5,0,1,0,1.5-0.1c6.9-0.9,11.7-7.1,10.9-14C72.4,175.5,67,170.8,60.7,170.8L60.7,170.8z"/>
			</g>
		</g>
		<g>
			<g>
				<path class="st0" d="M118.4,178.1c-3.7,0-6.8-2.7-7.4-6.3c-0.3-2,0.2-4,1.3-5.6s2.9-2.7,4.9-3c0.4-0.1,0.8-0.1,1.2-0.1
					c3.7,0,6.8,2.7,7.4,6.3c0.3,2-0.2,4-1.3,5.6c-1.2,1.6-2.9,2.7-4.9,3C119.2,178.1,118.8,178.1,118.4,178.1z"/>
				<path class="st0" d="M118.4,168.1c1.2,0,2.3,0.9,2.5,2.1c0.2,1.4-0.7,2.7-2.1,2.9c-0.1,0-0.3,0-0.4,0c-1.2,0-2.3-0.9-2.5-2.1
					c-0.2-1.4,0.7-2.7,2.1-2.9C118.1,168.1,118.3,168.1,118.4,168.1 M118.4,158.1c-0.7,0-1.3,0.1-2,0.2c-6.8,1.1-11.5,7.5-10.4,14.3
					c1,6.1,6.2,10.6,12.4,10.6c0.7,0,1.3-0.1,2-0.2c6.8-1.1,11.5-7.5,10.4-14.3C129.8,162.5,124.6,158.1,118.4,158.1L118.4,158.1z"
					/>
			</g>
		</g>
		<g>
			<g>
				<path class="st0" d="M42.9,199.3c-3.7,0-6.8-2.7-7.4-6.3c-0.3-2,0.2-4,1.3-5.6s2.9-2.7,4.9-3c0.4-0.1,0.8-0.1,1.2-0.1
					c3.7,0,6.8,2.7,7.4,6.3c0.6,4.1-2.2,8-6.3,8.6C43.7,199.3,43.3,199.3,42.9,199.3z"/>
				<path class="st0" d="M42.9,189.3c1.2,0,2.3,0.9,2.5,2.1c0.2,1.4-0.7,2.7-2.1,2.9c-0.1,0-0.3,0-0.4,0c-1.2,0-2.3-0.9-2.5-2.1
					c-0.2-1.4,0.7-2.7,2.1-2.9C42.7,189.3,42.8,189.3,42.9,189.3 M42.9,179.3c-0.7,0-1.3,0.1-2,0.2c-6.8,1.1-11.5,7.5-10.4,14.3
					c1,6.1,6.2,10.6,12.4,10.6c0.7,0,1.3-0.1,2-0.2c6.8-1.1,11.5-7.5,10.4-14.3C54.3,183.7,49.1,179.3,42.9,179.3L42.9,179.3z"/>
			</g>
		</g>
		<g>
			<g>
				<path class="st0" d="M57.7,231.8c-3.7,0-6.8-2.7-7.4-6.3c-0.3-2,0.2-4,1.3-5.6c1.2-1.6,2.9-2.7,4.9-3c0.4-0.1,0.8-0.1,1.2-0.1
					c3.7,0,6.8,2.7,7.4,6.3c0.3,2-0.2,4-1.3,5.6c-1.2,1.6-2.9,2.7-4.9,3C58.5,231.8,58.1,231.8,57.7,231.8z"/>
				<path class="st0" d="M57.7,221.8c1.2,0,2.3,0.9,2.5,2.1c0.2,1.4-0.7,2.7-2.1,2.9c-0.1,0-0.3,0-0.4,0c-1.2,0-2.3-0.9-2.5-2.1
					c-0.2-1.4,0.7-2.7,2.1-2.9C57.4,221.8,57.6,221.8,57.7,221.8 M57.7,211.8c-0.7,0-1.3,0.1-2,0.2c-6.8,1.1-11.5,7.5-10.4,14.3
					c1,6.1,6.2,10.6,12.4,10.6c0.7,0,1.3-0.1,2-0.2c6.8-1.1,11.5-7.5,10.4-14.3C69.1,216.2,63.9,211.8,57.7,211.8L57.7,211.8z"/>
			</g>
		</g>
		<g>
			<g>
				<path class="st0" d="M66.1,224.5c-3.8,0-7-2.8-7.5-6.6c-0.5-4.1,2.4-7.9,6.5-8.4c0.3,0,0.6-0.1,0.9-0.1c3.8,0,7,2.8,7.5,6.6
					c0.5,4.1-2.4,7.9-6.5,8.4C66.8,224.4,66.4,224.5,66.1,224.5z"/>
				<path class="st0" d="M66.1,214.4c1.3,0,2.3,0.9,2.5,2.2c0.2,1.4-0.8,2.6-2.2,2.8c-0.1,0-0.2,0-0.3,0c-1.3,0-2.3-0.9-2.5-2.2
					c-0.2-1.4,0.8-2.6,2.2-2.8C65.9,214.4,66,214.4,66.1,214.4 M66.1,204.4c-0.5,0-1,0-1.5,0.1c-6.9,0.9-11.7,7.1-10.9,14
					c0.8,6.3,6.1,11,12.4,11c0.5,0,1,0,1.5-0.1c6.9-0.9,11.7-7.1,10.9-14C77.8,209.1,72.5,204.4,66.1,204.4L66.1,204.4z"/>
			</g>
		</g>
		<g>
			<g>
				<path class="st0" d="M47.3,225.6c-3.7,0-6.8-2.7-7.4-6.3c-0.6-4.1,2.2-8,6.3-8.6c0.4-0.1,0.8-0.1,1.2-0.1c3.7,0,6.8,2.7,7.4,6.3
					c0.6,4.1-2.2,8-6.3,8.6C48.1,225.5,47.7,225.6,47.3,225.6z"/>
				<path class="st0" d="M47.3,215.5c1.2,0,2.3,0.9,2.5,2.1c0.2,1.4-0.7,2.7-2.1,2.9c-0.1,0-0.3,0-0.4,0c-1.2,0-2.3-0.9-2.5-2.1
					c-0.2-1.4,0.7-2.7,2.1-2.9C47,215.5,47.2,215.5,47.3,215.5 M47.3,205.5c-0.7,0-1.3,0.1-2,0.2c-6.8,1.1-11.5,7.5-10.4,14.3
					c1,6.1,6.2,10.6,12.4,10.6c0.7,0,1.3-0.1,2-0.2c6.8-1.1,11.5-7.5,10.4-14.3C58.7,210,53.5,205.5,47.3,205.5L47.3,205.5z"/>
			</g>
		</g>
		<g>
			<g>
				<path class="st0" d="M43.9,213.9c-3.7,0-6.8-2.7-7.4-6.3c-0.6-4.1,2.2-8,6.3-8.6c0.4-0.1,0.8-0.1,1.2-0.1c3.7,0,6.8,2.7,7.4,6.3
					c0.3,2-0.2,4-1.3,5.6c-1.2,1.6-2.9,2.7-4.9,3C44.7,213.9,44.3,213.9,43.9,213.9z"/>
				<path class="st0" d="M43.9,203.9c1.2,0,2.3,0.9,2.5,2.1c0.2,1.4-0.7,2.7-2.1,2.9c-0.1,0-0.3,0-0.4,0c-1.2,0-2.3-0.9-2.5-2.1
					c-0.2-1.4,0.7-2.7,2.1-2.9C43.7,203.9,43.8,203.9,43.9,203.9 M43.9,193.9c-0.7,0-1.3,0.1-2,0.2c-6.8,1.1-11.5,7.5-10.4,14.3
					c1,6.1,6.2,10.6,12.4,10.6c0.7,0,1.3-0.1,2-0.2c6.8-1.1,11.5-7.5,10.4-14.3C55.3,198.3,50.1,193.9,43.9,193.9L43.9,193.9z"/>
			</g>
		</g>
		<g>
			<g>
				<path class="st0" d="M131.5,179c-3.7,0-6.8-2.7-7.4-6.3c-0.3-2,0.2-4,1.3-5.6s2.9-2.7,4.9-3c0.4-0.1,0.8-0.1,1.2-0.1
					c3.7,0,6.8,2.7,7.4,6.3c0.3,2-0.2,4-1.3,5.6s-2.9,2.7-4.9,3C132.3,179,131.9,179,131.5,179z"/>
				<path class="st0" d="M131.6,169c1.2,0,2.3,0.9,2.5,2.1c0.2,1.4-0.7,2.7-2.1,2.9c-0.1,0-0.3,0-0.4,0c-1.2,0-2.3-0.9-2.5-2.1
					c-0.2-1.4,0.7-2.7,2.1-2.9C131.3,169,131.4,169,131.6,169 M131.6,159c-0.7,0-1.3,0.1-2,0.2c-6.8,1.1-11.5,7.5-10.4,14.3
					c1,6.1,6.2,10.6,12.4,10.6c0.7,0,1.3-0.1,2-0.2c6.8-1.1,11.5-7.5,10.4-14.3C142.9,163.4,137.7,159,131.6,159L131.6,159z"/>
			</g>
		</g>
		<g>
			<g>
				<path class="st0" d="M128.5,194.5c-3.7,0-6.8-2.7-7.4-6.3c-0.6-4.1,2.2-8,6.3-8.6c0.4-0.1,0.8-0.1,1.2-0.1
					c3.7,0,6.8,2.7,7.4,6.3c0.6,4.1-2.2,8-6.3,8.6C129.3,194.5,128.9,194.5,128.5,194.5z"/>
				<path class="st0" d="M128.5,184.5c1.2,0,2.3,0.9,2.5,2.1c0.2,1.4-0.7,2.7-2.1,2.9c-0.1,0-0.3,0-0.4,0c-1.2,0-2.3-0.9-2.5-2.1
					c-0.2-1.4,0.7-2.7,2.1-2.9C128.3,184.5,128.4,184.5,128.5,184.5 M128.5,174.5c-0.7,0-1.3,0.1-2,0.2c-6.8,1.1-11.5,7.5-10.4,14.3
					c1,6.1,6.2,10.6,12.4,10.6c0.7,0,1.3-0.1,2-0.2c6.8-1.1,11.5-7.5,10.4-14.3C139.9,178.9,134.7,174.5,128.5,174.5L128.5,174.5z"
					/>
			</g>
		</g>
		<g>
			<g>
				<path class="st0" d="M140.1,187.6c-3.7,0-6.8-2.7-7.4-6.3c-0.6-4.1,2.2-8,6.3-8.6c0.4-0.1,0.8-0.1,1.2-0.1
					c3.7,0,6.8,2.7,7.4,6.3c0.3,2-0.2,4-1.3,5.6c-1.2,1.6-2.9,2.7-4.9,3C140.9,187.5,140.5,187.6,140.1,187.6z"/>
				<path class="st0" d="M140.1,177.5c1.2,0,2.3,0.9,2.5,2.1c0.2,1.4-0.7,2.7-2.1,2.9c-0.1,0-0.3,0-0.4,0c-1.2,0-2.3-0.9-2.5-2.1
					c-0.2-1.4,0.7-2.7,2.1-2.9C139.8,177.5,140,177.5,140.1,177.5 M140.1,167.5c-0.7,0-1.3,0.1-2,0.2c-6.8,1.1-11.5,7.5-10.4,14.3
					c1,6.1,6.2,10.6,12.4,10.6c0.7,0,1.3-0.1,2-0.2c6.8-1.1,11.5-7.5,10.4-14.3C151.5,172,146.3,167.5,140.1,167.5L140.1,167.5z"/>
			</g>
		</g>
		<g>
			<g>
				<path class="st0" d="M141,203.1c-3.7,0-6.8-2.7-7.4-6.3c-0.3-2,0.2-4,1.3-5.6c1.2-1.6,2.9-2.7,4.9-3c0.4-0.1,0.8-0.1,1.2-0.1
					c3.7,0,6.8,2.7,7.4,6.3c0.6,4.1-2.2,8-6.3,8.6C141.8,203.1,141.4,203.1,141,203.1z"/>
				<path class="st0" d="M141,193c1.2,0,2.3,0.9,2.5,2.1c0.2,1.4-0.7,2.7-2.1,2.9c-0.1,0-0.3,0-0.4,0c-1.2,0-2.3-0.9-2.5-2.1
					c-0.2-1.4,0.7-2.7,2.1-2.9C140.8,193.1,140.9,193,141,193 M141,183c-0.7,0-1.3,0.1-2,0.2c-6.8,1.1-11.5,7.5-10.4,14.3
					c1,6.1,6.2,10.6,12.4,10.6c0.7,0,1.3-0.1,2-0.2c6.8-1.1,11.5-7.5,10.4-14.3C152.4,187.5,147.2,183,141,183L141,183z"/>
			</g>
		</g>
		<g>
			<g>
				<path class="st0" d="M131.9,206c-3.7,0-6.8-2.7-7.4-6.3c-0.6-4.1,2.2-8,6.3-8.6c0.4-0.1,0.8-0.1,1.2-0.1c3.7,0,6.8,2.7,7.4,6.3
					c0.3,2-0.2,4-1.3,5.6c-1.2,1.6-2.9,2.7-4.9,3C132.7,206,132.3,206,131.9,206z"/>
				<path class="st0" d="M131.9,196c1.2,0,2.3,0.9,2.5,2.1c0.2,1.4-0.7,2.7-2.1,2.9c-0.1,0-0.3,0-0.4,0c-1.2,0-2.3-0.9-2.5-2.1
					c-0.2-1.4,0.7-2.7,2.1-2.9C131.6,196,131.7,196,131.9,196 M131.9,186c-0.7,0-1.3,0.1-2,0.2c-6.8,1.1-11.5,7.5-10.4,14.3
					c1,6.1,6.2,10.6,12.4,10.6c0.7,0,1.3-0.1,2-0.2c6.8-1.1,11.5-7.5,10.4-14.3C143.3,190.4,138.1,186,131.9,186L131.9,186z"/>
			</g>
		</g>
		<g>
			<g>
				<path class="st0" d="M123.4,216.7c-3.7,0-6.8-2.7-7.4-6.3c-0.6-4.1,2.2-8,6.3-8.6c0.4-0.1,0.8-0.1,1.2-0.1
					c3.7,0,6.8,2.7,7.4,6.4c0.3,2-0.2,4-1.3,5.6c-1.2,1.6-2.9,2.7-4.9,3C124.2,216.6,123.8,216.7,123.4,216.7z"/>
				<path class="st0" d="M123.5,206.6c1.2,0,2.3,0.9,2.5,2.1c0.2,1.4-0.7,2.7-2.1,2.9c-0.1,0-0.3,0-0.4,0c-1.2,0-2.3-0.9-2.5-2.1
					c-0.2-1.4,0.7-2.7,2.1-2.9C123.2,206.6,123.3,206.6,123.5,206.6 M123.5,196.6c-0.7,0-1.3,0.1-2,0.2c-6.8,1.1-11.5,7.5-10.4,14.3
					c1,6.1,6.2,10.6,12.4,10.6c0.7,0,1.3-0.1,2-0.2c6.8-1.1,11.5-7.5,10.4-14.3C134.9,201.1,129.6,196.6,123.5,196.6L123.5,196.6z"
					/>
			</g>
		</g>
		<g>
			<g>
				<path class="st0" d="M135.8,217.7c-3.4,0-6.4-2.3-7.3-5.6c-1-4,1.4-8.1,5.4-9.2c0.6-0.2,1.3-0.2,1.9-0.2c3.4,0,6.4,2.3,7.3,5.6
					c0.5,1.9,0.2,4-0.8,5.7c-1,1.7-2.6,3-4.6,3.5C137.1,217.6,136.4,217.7,135.8,217.7z"/>
				<path class="st0" d="M135.8,207.7c1.1,0,2.1,0.8,2.4,1.9c0.4,1.3-0.5,2.7-1.8,3.1c-0.2,0.1-0.4,0.1-0.6,0.1
					c-1.1,0-2.1-0.8-2.4-1.9c-0.4-1.3,0.5-2.7,1.8-3.1C135.4,207.7,135.6,207.7,135.8,207.7 M135.8,197.7
					C135.8,197.7,135.8,197.7,135.8,197.7c-1.1,0-2.1,0.1-3.2,0.4c-6.7,1.7-10.7,8.6-9,15.3c1.4,5.5,6.4,9.4,12.1,9.4
					c1.1,0,2.1-0.1,3.2-0.4c3.2-0.8,5.9-2.9,7.6-5.8c1.7-2.9,2.2-6.3,1.3-9.5C146.5,201.5,141.5,197.7,135.8,197.7L135.8,197.7z"/>
			</g>
		</g>
		<path id="XMLID_2_" class="st2" d="M56.6,212.8c-0.5,0.1-0.8-0.2-0.9-0.7l-0.2-1c-1.6,0-2.6-0.1-4-0.9l0.2,1
			c0.1,0.5-0.2,0.8-0.7,0.9c-0.5,0.1-0.8-0.2-0.9-0.7l-0.7-4.6c-0.1-0.5,0.2-0.8,0.7-0.9c0.5-0.1,0.8,0.2,0.9,0.7l0.3,1.7
			c0.9,0.8,1.5,0.9,3,1.3c0.4,0.1,0.7,0.1,1.1,0.2l-1.1-7.2c-1.5-0.2-2.6-0.4-3.4-0.6c-0.8-0.2-1.5-0.7-2-1.2s-0.9-1.1-1-1.9
			c-0.2-1.5,0-2.7,0.9-3.7c0.8-0.9,2.2-1.6,4.1-2l-0.1-0.9c-0.1-0.5,0.2-0.8,0.7-0.9c0.5-0.1,0.8,0.2,0.9,0.7l0.2,1
			c1.4,0,2.6,0.3,3.7,0.8c0.3,0.2,0.2,0.3,0.4,0.4l-0.2-1c-0.1-0.5,0.2-0.8,0.7-0.9c0.5-0.1,0.8,0.2,0.9,0.7l0.7,4.6
			c0.1,0.5-0.2,0.8-0.7,0.9c-0.5,0.1-0.8-0.2-0.9-0.7l-0.3-1.6c-0.9-0.8-1.9-1.4-3.2-1.7c-0.4-0.1-0.7-0.1-1.1-0.2l1.1,6.7
			c0.2,0.1,0.6,0,1.2,0.2c0.9,0.1,1.9,0.3,2.6,0.5c0.8,0.2,1.5,0.7,2,1.2s0.9,1.3,1,2c0.3,1.6-0.1,2.9-1.1,4
			c-0.9,1.1-2.4,1.8-4.3,2.1l0.1,0.9C57.3,212.4,57,212.7,56.6,212.8 M53.1,210.1c0.1,0.1,0.2,0.1,0.4,0.1
			C53.5,210.1,53.2,210,53.1,210.1 M55.8,202.7l1.1,6.8c1.5-0.2,2.7-0.8,3.4-1.6c0.7-0.8,1-1.7,0.9-2.7c-0.1-0.6-0.3-1-0.7-1.3
			c-0.4-0.4-0.9-0.7-1.5-0.8c-0.6-0.1-1.2-0.3-1.8-0.3L55.8,202.7z M60.9,208.1c-0.1,0.1-0.2,0.3-0.3,0.4c-0.2,0.1-0.3,0.3-0.5,0.4
			c0.2-0.1,0.4-0.3,0.6-0.6C60.8,208.2,61,208.2,60.9,208.1 M53,194.4c-1.5,0.2-2.4,0.7-3,1.4c-0.6,0.7-0.8,1.5-0.7,2.4
			c0.1,0.6,0.3,1,0.7,1.3c0.4,0.4,0.9,0.7,1.5,0.8c0.6,0.1,1.2,0.3,1.7,0.3c0.4,0.1,0.6,0.1,0.8,0.1L53,194.4L53,194.4z"/>
		<g id="XMLID_3360_">
			<g id="XMLID_3377_">
				<g id="XMLID_3378_">
					<path class="st0" d="M95.3,232.3c-2.4,0-4.5-1.8-4.9-4.2c-0.6-4,2.1-7.7,6.1-8.3c0.4-0.1,0.8-0.1,1.1-0.1
						c3.6,0,6.6,2.6,7.2,6.2c0.4,2.7-1.4,5.3-4.2,5.7l-1.1,0.2c-0.3,0-0.5,0.1-0.8,0.1c-0.1,0-0.2,0-0.4,0c-0.4,0.1-0.7,0.2-1.1,0.3
						l-1.1,0.2C95.8,232.3,95.6,232.3,95.3,232.3z"/>
					<path class="st0" d="M97.6,224.6c1.1,0,2.1,0.8,2.3,1.9l-1.1,0.2c-0.1-0.6-0.5-1-1.1-1c-0.1,0-0.1,0-0.2,0
						c-0.7,0.1-1.1,0.6-1,1.3l-1.1,0.2c-0.2-1.2,0.7-2.4,1.9-2.6C97.3,224.7,97.5,224.6,97.6,224.6 M97.6,214.6
						c-0.6,0-1.3,0.1-1.9,0.2c-3.2,0.5-6.1,2.3-8,4.9c-1.9,2.7-2.7,5.9-2.2,9.1c0.8,4.9,5,8.4,9.9,8.4c0.5,0,1,0,1.6-0.1L98,237
						c0.4-0.1,0.8-0.1,1.1-0.2c0.4,0,0.8-0.1,1.1-0.1l1.1-0.2c5.5-0.9,9.2-6,8.3-11.4C108.8,219,103.7,214.6,97.6,214.6L97.6,214.6z
						"/>
				</g>
			</g>
			<g id="XMLID_3375_">
				<g id="XMLID_3376_">
					<path class="st0" d="M89.4,233.2c-2.4,0-4.5-1.8-4.9-4.2c-0.6-4,2.1-7.7,6.1-8.3c0.4-0.1,0.8-0.1,1.1-0.1
						c3.6,0,6.6,2.6,7.2,6.2c0.4,2.7-1.4,5.3-4.2,5.7l-1.1,0.2c-0.3,0-0.5,0.1-0.8,0.1c-0.1,0-0.2,0-0.4,0c-0.4,0.1-0.7,0.2-1.1,0.3
						l-1.1,0.2C89.9,233.2,89.7,233.2,89.4,233.2z"/>
					<path class="st0" d="M91.7,225.6c1.1,0,2.1,0.8,2.3,1.9l-1.1,0.2c-0.1-0.6-0.5-1-1.1-1c-0.1,0-0.1,0-0.2,0
						c-0.7,0.1-1.1,0.6-1,1.3l-1.1,0.2c-0.2-1.2,0.7-2.4,1.9-2.6C91.5,225.6,91.6,225.6,91.7,225.6 M91.7,215.6
						c-0.6,0-1.3,0.1-1.9,0.2c-3.2,0.5-6.1,2.3-8,4.9c-1.9,2.7-2.7,5.9-2.2,9.1c0.8,4.9,5,8.4,9.9,8.4c0.5,0,1,0,1.6-0.1l1.1-0.2
						c0.4-0.1,0.8-0.1,1.1-0.2c0.4,0,0.8-0.1,1.1-0.1l1.1-0.2c5.5-0.9,9.2-6,8.3-11.4C102.9,219.9,97.8,215.6,91.7,215.6L91.7,215.6
						z"/>
				</g>
			</g>
			<g id="XMLID_3373_">
				<g id="XMLID_3374_">
					<path class="st0" d="M101.3,231.3c-1,0-2.1-0.3-2.9-1c-1.1-0.8-1.8-2-2-3.3c-0.6-4,2.1-7.7,6.1-8.3c0.4-0.1,0.8-0.1,1.1-0.1
						c3.6,0,6.6,2.6,7.2,6.2c0.2,1.3-0.1,2.6-0.9,3.7c-0.8,1.1-2,1.8-3.3,2l-1.1,0.2c-0.3,0-0.5,0.1-0.8,0.1c-0.1,0-0.2,0-0.4,0
						c-0.3,0.1-0.7,0.2-1.1,0.3l-1.1,0.2C101.8,231.3,101.6,231.3,101.3,231.3z"/>
					<path class="st0" d="M103.6,223.7c1.1,0,2.1,0.8,2.3,1.9l-1.1,0.2c-0.1-0.6-0.5-1-1.1-1c-0.1,0-0.1,0-0.2,0
						c-0.7,0.1-1.1,0.6-1,1.3l-1.1,0.2c-0.2-1.2,0.7-2.4,1.9-2.6C103.3,223.7,103.5,223.7,103.6,223.7 M103.6,213.7
						c-0.6,0-1.3,0.1-1.9,0.2c-6.7,1.1-11.3,7.4-10.2,14.1c0.4,2.6,1.9,5,4,6.5c1.7,1.2,3.8,1.9,5.9,1.9c0.5,0,1,0,1.6-0.1l1.1-0.2
						c0.4-0.1,0.8-0.1,1.1-0.2c0.4,0,0.8-0.1,1.1-0.1l1.1-0.2c2.6-0.4,5-1.9,6.5-4c1.6-2.1,2.2-4.8,1.8-7.4
						C114.8,218.1,109.7,213.7,103.6,213.7L103.6,213.7z"/>
				</g>
			</g>
			<g id="XMLID_3371_">
				<g id="XMLID_3372_">
					<path class="st0" d="M77.5,235.1c-1,0-2.1-0.3-2.9-1c-1.1-0.8-1.8-2-2-3.3c-0.6-4,2.1-7.7,6.1-8.3c0.4-0.1,0.8-0.1,1.1-0.1
						c3.6,0,6.6,2.6,7.2,6.2c0.2,1.3-0.1,2.6-0.9,3.7c-0.8,1.1-2,1.8-3.3,2l-1.1,0.2c-0.3,0-0.5,0.1-0.8,0.1c-0.1,0-0.2,0-0.4,0
						c-0.3,0.1-0.7,0.2-1.1,0.3l-1.1,0.2C78.1,235.1,77.8,235.1,77.5,235.1z"/>
					<path class="st0" d="M79.8,227.5c1.1,0,2.1,0.8,2.3,1.9l-1.1,0.2c-0.1-0.6-0.5-1-1.1-1c-0.1,0-0.1,0-0.2,0
						c-0.7,0.1-1.1,0.6-1,1.3l-1.1,0.2c-0.2-1.2,0.7-2.4,1.9-2.6C79.6,227.5,79.7,227.5,79.8,227.5 M79.8,217.5
						c-0.6,0-1.3,0.1-1.9,0.2c-3.2,0.5-6.1,2.3-8,4.9c-1.9,2.7-2.7,5.9-2.2,9.1c0.8,4.9,5,8.4,9.9,8.4c0.5,0,1,0,1.6-0.1l1.1-0.2
						c0.4-0.1,0.8-0.1,1.1-0.2c0.4,0,0.8-0.1,1.1-0.1l1.1-0.2c5.5-0.9,9.2-6,8.3-11.4C91,221.8,85.9,217.5,79.8,217.5L79.8,217.5z"
						/>
				</g>
			</g>
			<g id="XMLID_3369_">
				<g id="XMLID_3370_">
					<path class="st0" d="M71.5,236.1c-1,0-2.1-0.3-2.9-1c-1.1-0.8-1.8-2-2-3.3c-0.6-4,2.1-7.7,6.1-8.3c0.4-0.1,0.8-0.1,1.1-0.1
						c3.6,0,6.6,2.6,7.2,6.2c0.4,2.7-1.4,5.3-4.2,5.7l-1.1,0.2c-0.3,0-0.5,0.1-0.8,0.1c-0.1,0-0.2,0-0.4,0c-0.3,0.1-0.7,0.2-1.1,0.3
						l-1.1,0.2C72.1,236,71.8,236.1,71.5,236.1z"/>
					<path class="st0" d="M73.8,228.4c1.1,0,2.1,0.8,2.3,1.9l-1.1,0.2c-0.1-0.6-0.5-1-1.1-1c-0.1,0-0.1,0-0.2,0
						c-0.7,0.1-1.1,0.6-1,1.3l-1.1,0.2c-0.2-1.2,0.7-2.4,1.9-2.6C73.6,228.4,73.7,228.4,73.8,228.4 M73.8,218.4
						c-0.6,0-1.3,0.1-1.9,0.2c-6.7,1.1-11.3,7.4-10.2,14.1c0.4,2.6,1.9,5,4,6.5c1.7,1.2,3.8,1.9,5.9,1.9c0.5,0,1,0,1.6-0.1l1.1-0.2
						c0.4-0.1,0.8-0.1,1.1-0.2c0.4,0,0.8-0.1,1.1-0.1l1.1-0.2c2.6-0.4,5-1.9,6.5-4c1.6-2.1,2.2-4.8,1.8-7.4
						C85,222.8,79.9,218.4,73.8,218.4L73.8,218.4z"/>
				</g>
			</g>
			<g id="XMLID_3367_">
				<g id="XMLID_3368_">
					<path class="st0" d="M83.4,234.2c-2.4,0-4.5-1.8-4.9-4.2c-0.3-1.9,0.2-3.8,1.3-5.4s2.8-2.6,4.8-2.9c0.4-0.1,0.8-0.1,1.1-0.1
						c3.6,0,6.6,2.6,7.2,6.2c0.2,1.3-0.1,2.6-0.9,3.7c-0.8,1.1-2,1.8-3.3,2l-1.1,0.2c-0.3,0-0.5,0.1-0.8,0.1c-0.1,0-0.2,0-0.4,0
						c-0.4,0.1-0.7,0.2-1.1,0.3l-1.1,0.2C83.9,234.2,83.7,234.2,83.4,234.2z"/>
					<path class="st0" d="M85.7,226.5c1.1,0,2.1,0.8,2.3,1.9l-1.1,0.2c-0.1-0.6-0.5-1-1.1-1c-0.1,0-0.1,0-0.2,0
						c-0.7,0.1-1.1,0.6-1,1.3l-1.1,0.2c-0.2-1.2,0.7-2.4,1.9-2.6C85.5,226.5,85.6,226.5,85.7,226.5 M85.7,216.5
						c-0.6,0-1.3,0.1-1.9,0.2c-3.2,0.5-6.1,2.3-8,4.9c-1.9,2.7-2.7,5.9-2.2,9.1c0.8,4.9,5,8.4,9.9,8.4c0.5,0,1,0,1.6-0.1l1.1-0.2
						c0.4-0.1,0.8-0.1,1.1-0.2c0.4,0,0.8-0.1,1.1-0.1l1.1-0.2c5.5-0.9,9.2-6,8.3-11.4C96.9,220.9,91.8,216.5,85.7,216.5L85.7,216.5z
						"/>
				</g>
			</g>
			<g id="XMLID_3365_">
				<g id="XMLID_3366_">
					<path class="st0" d="M113.2,229.5c-2.4,0-4.5-1.8-4.9-4.2c-0.6-4,2.1-7.7,6.1-8.3c0.4-0.1,0.8-0.1,1.1-0.1
						c3.6,0,6.6,2.6,7.2,6.2c0.4,2.7-1.4,5.3-4.2,5.7l-1.1,0.2c-0.3,0-0.5,0.1-0.8,0.1c-0.1,0-0.2,0-0.4,0c-0.4,0.1-0.7,0.2-1.1,0.3
						l-1.1,0.2C113.7,229.4,113.5,229.5,113.2,229.5z"/>
					<path class="st0" d="M115.5,221.8c1.1,0,2.1,0.8,2.3,1.9l-1.1,0.2c-0.1-0.6-0.5-1-1.1-1c-0.1,0-0.1,0-0.2,0
						c-0.7,0.1-1.1,0.6-1,1.3l-1.1,0.2c-0.2-1.2,0.7-2.4,1.9-2.6C115.2,221.8,115.4,221.8,115.5,221.8 M115.5,211.8
						c-0.6,0-1.3,0.1-1.9,0.2c-6.7,1.1-11.3,7.4-10.2,14.1c0.8,4.9,5,8.4,9.9,8.4c0.5,0,1,0,1.6-0.1l1.1-0.2
						c0.4-0.1,0.8-0.1,1.1-0.2c0.4,0,0.8-0.1,1.1-0.1l1.1-0.2c5.5-0.9,9.2-6,8.3-11.4C126.7,216.2,121.6,211.8,115.5,211.8
						L115.5,211.8z"/>
				</g>
			</g>
			<g id="XMLID_3363_">
				<g id="XMLID_3364_">
					<path class="st0" d="M107.2,230.4c-1,0-2.1-0.3-2.9-1c-1.1-0.8-1.8-2-2-3.3c-0.6-4,2.1-7.7,6.1-8.3c0.4-0.1,0.8-0.1,1.1-0.1
						c3.6,0,6.6,2.6,7.2,6.2c0.2,1.3-0.1,2.6-0.9,3.7c-0.8,1.1-2,1.8-3.3,2l-1.1,0.2c-0.3,0-0.5,0.1-0.8,0.1c-0.1,0-0.2,0-0.4,0
						c-0.3,0.1-0.7,0.2-1.1,0.3l-1.1,0.2C107.7,230.4,107.5,230.4,107.2,230.4z"/>
					<path class="st0" d="M109.5,222.8c1.1,0,2.1,0.8,2.3,1.9l-1.1,0.2c-0.1-0.6-0.5-1-1.1-1c-0.1,0-0.1,0-0.2,0
						c-0.7,0.1-1.1,0.6-1,1.3l-1.1,0.2c-0.2-1.2,0.7-2.4,1.9-2.6C109.2,222.8,109.4,222.8,109.5,222.8 M109.5,212.8
						c-0.6,0-1.3,0.1-1.9,0.2c-6.7,1.1-11.3,7.4-10.2,14.1c0.4,2.6,1.9,5,4,6.5c1.7,1.2,3.8,1.9,5.9,1.9c0.5,0,1,0,1.6-0.1l1.1-0.2
						c0.4-0.1,0.8-0.1,1.1-0.2c0.4,0,0.8-0.1,1.1-0.1l1.1-0.2c2.6-0.4,5-1.9,6.5-4c1.6-2.1,2.2-4.8,1.8-7.4
						C120.7,217.1,115.6,212.8,109.5,212.8L109.5,212.8z"/>
				</g>
			</g>
			<g id="XMLID_3361_">
				<g id="XMLID_3362_">
					<path class="st0" d="M119.1,228.5c-2.4,0-4.5-1.8-4.9-4.2c-0.6-4,2.1-7.7,6.1-8.3c0.4-0.1,0.8-0.1,1.1-0.1
						c3.6,0,6.6,2.6,7.2,6.2c0.4,2.7-1.4,5.3-4.2,5.7l-1.1,0.2c-0.3,0-0.5,0.1-0.8,0.1c-0.1,0-0.2,0-0.4,0c-0.4,0.1-0.7,0.2-1.1,0.3
						l-1.1,0.2C119.6,228.5,119.4,228.5,119.1,228.5z"/>
					<path class="st0" d="M121.4,220.9c1.1,0,2.1,0.8,2.3,1.9l-1.1,0.2c-0.1-0.6-0.5-1-1.1-1c-0.1,0-0.1,0-0.2,0
						c-0.7,0.1-1.1,0.6-1,1.3l-1.1,0.2c-0.2-1.2,0.7-2.4,1.9-2.6C121.1,220.9,121.3,220.9,121.4,220.9 M121.4,210.9
						c-0.6,0-1.3,0.1-1.9,0.2c-6.7,1.1-11.3,7.4-10.2,14.1c0.8,4.9,5,8.4,9.9,8.4c0.5,0,1,0,1.6-0.1l1.1-0.2
						c0.4-0.1,0.8-0.1,1.1-0.2c0.4,0,0.8-0.1,1.1-0.1l1.1-0.2c5.5-0.9,9.2-6,8.3-11.4C132.6,215.2,127.5,210.9,121.4,210.9
						L121.4,210.9z"/>
				</g>
			</g>
		</g>
		<g id="XMLID_9_">
			<g id="XMLID_27_">
				<g id="XMLID_28_">
					<path class="st0" d="M87.6,171.1c-3.6,0-6.6-2.6-7.2-6.2c-0.2-1.3,0.1-2.6,0.9-3.7c0.8-1.1,2-1.8,3.3-2l1.1-0.2
						c0.3,0,0.5-0.1,0.8-0.1c0.1,0,0.2,0,0.4,0c0.4-0.1,0.7-0.2,1.1-0.3l1.1-0.2c0.3,0,0.5-0.1,0.8-0.1c1,0,2.1,0.3,2.9,1
						c1.1,0.8,1.8,2,2,3.3c0.6,4-2.1,7.7-6.1,8.3C88.4,171.1,88,171.1,87.6,171.1C87.6,171.1,87.6,171.1,87.6,171.1z"/>
					<path class="st0" d="M89.9,163.5c0.2,1.2-0.7,2.4-1.9,2.6c-0.1,0-0.2,0-0.4,0c-1.1,0-2.1-0.8-2.3-1.9l1.1-0.2
						c0.1,0.6,0.5,1,1.1,1c0.1,0,0.1,0,0.2,0c0.7-0.1,1.1-0.6,1-1.3L89.9,163.5 M89.9,153.5c-0.5,0-1,0-1.6,0.1l-1.1,0.2
						c-0.4,0.1-0.8,0.1-1.1,0.2c-0.4,0-0.8,0.1-1.1,0.1l-1.1,0.2c-5.5,0.9-9.2,6-8.3,11.4c1,6,6.1,10.4,12.1,10.4
						c0.6,0,1.3-0.1,1.9-0.2c3.2-0.5,6.1-2.3,8-4.9c1.9-2.7,2.7-5.9,2.2-9.1C99,157,94.7,153.5,89.9,153.5L89.9,153.5z"/>
				</g>
			</g>
			<g id="XMLID_25_">
				<g id="XMLID_26_">
					<path class="st0" d="M93.6,170.2c-3.6,0-6.6-2.6-7.2-6.2c-0.4-2.7,1.4-5.3,4.2-5.7l1.1-0.2c0.3,0,0.5-0.1,0.8-0.1
						c0.1,0,0.2,0,0.4,0c0.4-0.1,0.7-0.2,1.1-0.3l1.1-0.2c0.3,0,0.5-0.1,0.8-0.1c2.4,0,4.5,1.8,4.9,4.2c0.6,4-2.1,7.7-6.1,8.3
						C94.4,170.2,94,170.2,93.6,170.2C93.6,170.2,93.6,170.2,93.6,170.2z"/>
					<path class="st0" d="M95.9,162.5c0.2,1.2-0.7,2.4-1.9,2.6c-0.1,0-0.2,0-0.4,0c-1.1,0-2.1-0.8-2.3-1.9l1.1-0.2
						c0.1,0.6,0.5,1,1.1,1c0.1,0,0.1,0,0.2,0c0.7-0.1,1.1-0.6,1-1.3L95.9,162.5 M95.9,152.5c-0.5,0-1,0-1.6,0.1l-1.1,0.2
						c-0.4,0.1-0.8,0.1-1.1,0.2c-0.4,0-0.8,0.1-1.1,0.1l-1.1,0.2c-2.6,0.4-5,1.9-6.5,4c-1.6,2.1-2.2,4.8-1.8,7.4
						c1,6,6.1,10.4,12.1,10.4c0.6,0,1.3-0.1,1.9-0.2c6.7-1.1,11.3-7.4,10.2-14.1C105,156,100.7,152.5,95.9,152.5L95.9,152.5z"/>
				</g>
			</g>
			<g id="XMLID_23_">
				<g id="XMLID_24_">
					<path class="st0" d="M81.7,172.1c-3.6,0-6.6-2.6-7.2-6.2c-0.4-2.7,1.4-5.3,4.2-5.7l1.1-0.2c0.3,0,0.5-0.1,0.8-0.1
						c0.1,0,0.2,0,0.4,0c0.4-0.1,0.7-0.2,1.1-0.3l1.1-0.2c0.3,0,0.5-0.1,0.8-0.1c2.4,0,4.5,1.8,4.9,4.2c0.6,4-2.1,7.7-6.1,8.3
						C82.5,172,82.1,172.1,81.7,172.1C81.7,172.1,81.7,172.1,81.7,172.1z"/>
					<path class="st0" d="M84,164.4c0.2,1.2-0.7,2.4-1.9,2.6c-0.1,0-0.2,0-0.4,0c-1.1,0-2.1-0.8-2.3-1.9l1.1-0.2
						c0.1,0.6,0.5,1,1.1,1c0.1,0,0.1,0,0.2,0c0.7-0.1,1.1-0.6,1-1.3L84,164.4 M84,154.4c-0.5,0-1,0-1.6,0.1l-1.1,0.2
						c-0.4,0.1-0.8,0.1-1.1,0.2c-0.4,0-0.8,0.1-1.1,0.1l-1.1,0.2c-5.5,0.9-9.2,6-8.3,11.4c1,6,6.1,10.4,12.1,10.4
						c0.6,0,1.3-0.1,1.9-0.2c3.2-0.5,6.1-2.3,8-4.9c1.9-2.7,2.7-5.9,2.2-9.1C93.1,157.9,88.8,154.4,84,154.4L84,154.4z"/>
				</g>
			</g>
			<g id="XMLID_21_">
				<g id="XMLID_22_">
					<path class="st0" d="M105.5,168.3c-3.6,0-6.6-2.6-7.2-6.2c-0.2-1.3,0.1-2.6,0.9-3.7c0.8-1.1,2-1.8,3.3-2l1.1-0.2
						c0.3,0,0.5-0.1,0.8-0.1c0.1,0,0.2,0,0.4,0c0.4-0.1,0.7-0.2,1.1-0.3l1.1-0.2c0.3,0,0.5-0.1,0.8-0.1c1,0,2.1,0.3,2.9,1
						c1.1,0.8,1.8,2,2,3.3c0.6,4-2.1,7.7-6.1,8.3C106.3,168.3,105.9,168.3,105.5,168.3z"/>
					<path class="st0" d="M107.8,160.7c0.2,1.2-0.7,2.4-1.9,2.6c-0.1,0-0.2,0-0.4,0c-1.1,0-2.1-0.8-2.3-1.9l1.1-0.2
						c0.1,0.6,0.5,1,1.1,1c0.1,0,0.1,0,0.2,0c0.7-0.1,1.1-0.6,1-1.3L107.8,160.7 M107.8,150.7c-0.5,0-1,0-1.6,0.1l-1.1,0.2
						c-0.4,0.1-0.8,0.1-1.1,0.2c-0.4,0-0.8,0.1-1.1,0.1l-1.1,0.2c-5.5,0.9-9.2,6-8.3,11.4c1,6,6.1,10.4,12.1,10.4
						c0.6,0,1.3-0.1,1.9-0.2c6.7-1.1,11.3-7.4,10.2-14.1c-0.4-2.6-1.9-5-4-6.5C111.9,151.3,109.9,150.7,107.8,150.7L107.8,150.7z"/>
				</g>
			</g>
			<g id="XMLID_19_">
				<g id="XMLID_20_">
					<path class="st0" d="M111.4,167.4c-3.6,0-6.6-2.6-7.2-6.2c-0.4-2.7,1.4-5.3,4.2-5.7l1.1-0.2c0.3,0,0.5-0.1,0.8-0.1
						c0.1,0,0.2,0,0.4,0c0.4-0.1,0.7-0.2,1.1-0.3l1.1-0.2c0.3,0,0.5-0.1,0.8-0.1c2.4,0,4.5,1.8,4.9,4.2c0.6,4-2.1,7.7-6.1,8.3
						C112.2,167.3,111.8,167.4,111.4,167.4C111.4,167.4,111.4,167.4,111.4,167.4z"/>
					<path class="st0" d="M113.7,159.7c0.2,1.2-0.7,2.4-1.9,2.6c-0.1,0-0.2,0-0.4,0c-1.1,0-2.1-0.8-2.3-1.9l1.1-0.2
						c0.1,0.6,0.5,1,1.1,1c0.1,0,0.1,0,0.2,0c0.7-0.1,1.1-0.6,1-1.3L113.7,159.7 M113.7,149.7c-0.5,0-1,0-1.6,0.1L111,150
						c-0.4,0.1-0.8,0.1-1.1,0.2c-0.4,0-0.8,0.1-1.1,0.1l-1.1,0.2c-2.6,0.4-5,1.9-6.5,4c-1.6,2.1-2.2,4.8-1.8,7.4
						c1,6,6.1,10.4,12.1,10.4c0.6,0,1.3-0.1,1.9-0.2c6.7-1.1,11.3-7.4,10.2-14.1C122.8,153.2,118.5,149.7,113.7,149.7L113.7,149.7z"
						/>
				</g>
			</g>
			<g id="XMLID_17_">
				<g id="XMLID_18_">
					<path class="st0" d="M99.5,169.3c-3.6,0-6.6-2.6-7.2-6.2c-0.2-1.3,0.1-2.6,0.9-3.7c0.8-1.1,2-1.8,3.3-2l1.1-0.2
						c0.3,0,0.5-0.1,0.8-0.1c0.1,0,0.2,0,0.4,0c0.4-0.1,0.7-0.2,1.1-0.3l1.1-0.2c0.3,0,0.5-0.1,0.8-0.1c2.4,0,4.5,1.8,4.9,4.2
						c0.6,4-2.1,7.7-6.1,8.3C100.3,169.2,99.9,169.3,99.5,169.3C99.5,169.3,99.5,169.3,99.5,169.3z"/>
					<path class="st0" d="M101.8,161.6c0.2,1.2-0.7,2.4-1.9,2.6c-0.1,0-0.2,0-0.4,0c-1.1,0-2.1-0.8-2.3-1.9l1.1-0.2
						c0.1,0.6,0.5,1,1.1,1c0.1,0,0.1,0,0.2,0c0.7-0.1,1.1-0.6,1-1.3L101.8,161.6 M101.8,151.6c-0.5,0-1,0-1.6,0.1l-1.1,0.2
						c-0.4,0.1-0.8,0.1-1.1,0.2c-0.4,0-0.8,0.1-1.1,0.1l-1.1,0.2c-2.6,0.4-5,1.9-6.5,4c-1.6,2.1-2.2,4.8-1.8,7.4
						c1,6,6.1,10.4,12.1,10.4c0.6,0,1.3-0.1,1.9-0.2c3.2-0.5,6.1-2.3,8-4.9c1.9-2.7,2.7-5.9,2.2-9.1
						C110.9,155.1,106.6,151.6,101.8,151.6L101.8,151.6z"/>
				</g>
			</g>
			<g id="XMLID_15_">
				<g id="XMLID_16_">
					<path class="st0" d="M69.8,173.9c-3.6,0-6.6-2.6-7.2-6.2c-0.2-1.3,0.1-2.6,0.9-3.7c0.8-1.1,2-1.8,3.3-2l1.1-0.2
						c0.3,0,0.5-0.1,0.8-0.1c0.1,0,0.2,0,0.4,0c0.4-0.1,0.7-0.2,1.1-0.3l1.1-0.2c0.3,0,0.5-0.1,0.8-0.1c1,0,2.1,0.3,2.9,1
						c1.1,0.8,1.8,2,2,3.3c0.3,1.9-0.2,3.8-1.3,5.4c-1.1,1.6-2.8,2.6-4.8,2.9C70.6,173.9,70.2,173.9,69.8,173.9z"/>
					<path class="st0" d="M72.1,166.3c0.2,1.2-0.7,2.4-1.9,2.6c-0.1,0-0.2,0-0.4,0c-1.1,0-2.1-0.8-2.3-1.9l1.1-0.2
						c0.1,0.6,0.5,1,1.1,1c0.1,0,0.1,0,0.2,0c0.7-0.1,1.1-0.6,1-1.3L72.1,166.3 M72.1,156.3c-0.5,0-1,0-1.6,0.1l-1.1,0.2
						c-0.4,0.1-0.8,0.1-1.1,0.2c-0.4,0-0.8,0.1-1.1,0.1l-1.1,0.2c-5.5,0.9-9.2,6-8.3,11.4c1,6,6.1,10.4,12.1,10.4
						c0.6,0,1.3-0.1,1.9-0.2c3.2-0.5,6.1-2.3,8-4.9c1.9-2.7,2.7-5.9,2.2-9.1C81.2,159.8,76.9,156.3,72.1,156.3L72.1,156.3z"/>
				</g>
			</g>
			<g id="XMLID_13_">
				<g id="XMLID_14_">
					<path class="st0" d="M75.7,173c-3.6,0-6.6-2.6-7.2-6.2c-0.2-1.3,0.1-2.6,0.9-3.7c0.8-1.1,2-1.8,3.3-2l1.1-0.2
						c0.3,0,0.5-0.1,0.8-0.1c0.1,0,0.2,0,0.4,0c0.4-0.1,0.7-0.2,1.1-0.3l1.1-0.2c0.3,0,0.5-0.1,0.8-0.1c2.4,0,4.5,1.8,4.9,4.2
						c0.3,1.9-0.2,3.8-1.3,5.4c-1.1,1.6-2.8,2.6-4.8,2.9C76.5,173,76.1,173,75.7,173z"/>
					<path class="st0" d="M78,165.4c0.2,1.2-0.7,2.4-1.9,2.6c-0.1,0-0.2,0-0.4,0c-1.1,0-2.1-0.8-2.3-1.9l1.1-0.2
						c0.1,0.6,0.5,1,1.1,1c0.1,0,0.1,0,0.2,0c0.7-0.1,1.1-0.6,1-1.3L78,165.4 M78,155.4c-0.5,0-1,0-1.6,0.1l-1.1,0.2
						c-0.4,0.1-0.8,0.1-1.1,0.2c-0.4,0-0.8,0.1-1.1,0.1l-1.1,0.2c-2.6,0.4-5,1.9-6.5,4c-1.6,2.1-2.2,4.8-1.8,7.4
						c1,6,6.1,10.4,12.1,10.4c0.6,0,1.3-0.1,1.9-0.2c3.2-0.5,6.1-2.3,8-4.9c1.9-2.7,2.7-5.9,2.2-9.1C87.1,158.9,82.8,155.4,78,155.4
						L78,155.4z"/>
				</g>
			</g>
			<g id="XMLID_11_">
				<g id="XMLID_12_">
					<path class="st0" d="M63.8,174.9c-3.6,0-6.6-2.6-7.2-6.2c-0.4-2.7,1.4-5.3,4.2-5.7l1.1-0.2c0.3,0,0.5-0.1,0.8-0.1
						c0.1,0,0.2,0,0.4,0c0.4-0.1,0.7-0.2,1.1-0.3l1.1-0.2c0.3,0,0.5-0.1,0.8-0.1c2.4,0,4.5,1.8,4.9,4.2c0.3,1.9-0.2,3.8-1.3,5.4
						c-1.1,1.6-2.8,2.6-4.8,2.9C64.6,174.9,64.2,174.9,63.8,174.9z"/>
					<path class="st0" d="M66.1,167.2c0.2,1.2-0.7,2.4-1.9,2.6c-0.1,0-0.2,0-0.4,0c-1.1,0-2.1-0.8-2.3-1.9l1.1-0.2
						c0.1,0.6,0.5,1,1.1,1c0.1,0,0.1,0,0.2,0c0.7-0.1,1.1-0.6,1-1.3L66.1,167.2 M66.1,157.2c-0.5,0-1,0-1.6,0.1l-1.1,0.2
						c-0.4,0.1-0.8,0.1-1.1,0.2c-0.4,0-0.8,0.1-1.1,0.1l-1.1,0.2c-5.5,0.9-9.2,6-8.3,11.4c1,6,6.1,10.4,12.1,10.4
						c0.6,0,1.3-0.1,1.9-0.2c6.7-1.1,11.3-7.4,10.2-14.1C75.2,160.8,70.9,157.2,66.1,157.2L66.1,157.2z"/>
				</g>
			</g>
		</g>
	</g>
	<g>
		<path class="st0" d="M92.8,227.9c-16.4,0-30.1-11.7-32.7-27.9c-2.9-18,9.5-35,27.5-37.9c1.7-0.3,3.5-0.4,5.2-0.4
			c16.4,0,30.1,11.7,32.7,27.9c1.4,8.7-0.7,17.5-5.9,24.6c-5.2,7.2-12.9,11.8-21.6,13.2C96.3,227.8,94.6,227.9,92.8,227.9z"/>
		<path class="st0" d="M92.9,166.7c13.6,0,25.5,9.9,27.7,23.7c2.4,15.3-8,29.7-23.4,32.1c-1.5,0.2-3,0.3-4.4,0.3
			c-13.6,0-25.5-9.9-27.7-23.7c-2.4-15.3,8-29.7,23.4-32.1C90,166.8,91.4,166.7,92.9,166.7 M92.9,156.7
			C92.9,156.7,92.9,156.7,92.9,156.7c-2,0-4,0.2-6,0.5c-10.1,1.6-18.9,7-24.9,15.2c-6,8.2-8.4,18.3-6.8,28.4c1.4,9,6,17.2,13,23.1
			c6.9,5.8,15.6,9,24.6,9c2,0,4-0.2,6-0.5c10.1-1.6,18.9-7,24.9-15.2c6-8.2,8.4-18.3,6.8-28.4c-1.4-9-6-17.2-13-23.1
			C110.6,159.9,101.9,156.7,92.9,156.7L92.9,156.7z"/>
	</g>
	<g>
		<g>
			<path class="st0" d="M92.8,224.1c-14.5,0-26.7-10.4-28.9-24.7c-1.2-7.7,0.6-15.5,5.2-21.8s11.4-10.5,19.1-11.7
				c1.5-0.2,3.1-0.4,4.6-0.4c14.5,0,26.7,10.4,28.9,24.7c2.5,16-8.4,31-24.4,33.5C95.9,224,94.4,224.1,92.8,224.1z"/>
			<path class="st0" d="M92.9,170.5c11.8,0,22.1,8.5,24,20.5c2.1,13.3-7,25.7-20.2,27.8c-1.3,0.2-2.6,0.3-3.8,0.3
				c-11.8,0-22.1-8.5-24-20.5c-2.1-13.3,7-25.7,20.2-27.8C90.3,170.6,91.6,170.5,92.9,170.5 M92.9,160.5
				C92.9,160.5,92.9,160.5,92.9,160.5c-1.8,0-3.6,0.1-5.4,0.4c-9.1,1.4-17,6.3-22.4,13.7c-5.4,7.4-7.6,16.5-6.1,25.5
				c1.3,8.1,5.4,15.5,11.7,20.8c6.2,5.2,14.1,8.1,22.2,8.1c1.8,0,3.6-0.1,5.4-0.4c9.1-1.4,17-6.3,22.4-13.7
				c5.4-7.4,7.6-16.5,6.1-25.5c-1.3-8.1-5.4-15.5-11.7-20.8C108.8,163.4,101,160.5,92.9,160.5L92.9,160.5z"/>
		</g>
	</g>
	<g>
		<g class="st1">
			<g>
				<path class="st0" d="M77.1,214.8c-1.5,0-3-0.5-4.2-1.4c-1.5-1.1-2.4-2.7-2.7-4.6c-0.3-2,0.2-4,1.4-5.8l7-10.4
					c0.1-0.2,0.2-0.3,0.3-0.4c-0.2,0.2-0.4,0.3-0.5,0.5c-0.4,0.4-0.9,0.8-1.4,1.1c-0.8,0.5-1.7,0.9-2.7,1c-0.3,0.1-0.7,0.1-1,0.1
					c-1.6,0-3.2-0.6-4.4-1.8c-1.2-1.1-2-2.6-2.2-4.2c-0.2-1.2-0.1-2.3,0.2-3.3c0.3-0.9,0.8-1.8,1.5-2.7c0,0,0.1-0.1,0.1-0.1
					c1.3-1.5,3-2.7,4.8-3.7c1.9-1,3.8-1.7,5.8-2c1-0.2,1.9-0.2,2.8-0.2c2.6,0,4.9,0.6,7,1.9c3,1.8,4.9,4.7,5.5,8.3
					c0.4,2.3,0.2,4.5-0.4,6.6c-0.5,1.5-1.2,3-2.2,4.7c3.5,0,6.2,2.3,6.8,5.8c0.6,4.1-1.9,7.4-6.1,8l-14.1,2.2
					C77.9,214.8,77.5,214.8,77.1,214.8z"/>
				<path class="st0" d="M81.9,182c1.7,0,3.1,0.4,4.4,1.1c1.7,1,2.8,2.7,3.1,4.8c0.2,1.5,0.1,3-0.3,4.4c-0.4,1.4-1.3,3.1-2.6,5
					l-5.3,7.8l9.8-1.5c0.2,0,0.5-0.1,0.7-0.1c1.1,0,1.7,0.5,1.9,1.6c0.2,1.3-0.4,2.1-1.9,2.3l-14.1,2.2c-0.2,0-0.3,0-0.4,0
					c-0.5,0-0.8-0.1-1.2-0.4c-0.4-0.3-0.7-0.8-0.8-1.3c-0.1-0.7,0.1-1.5,0.5-2.1l7-10.4c0.9-1.3,1.5-2.5,1.8-3.5c0.3-1,0.4-2,0.3-3
					c-0.2-1.2-0.7-2-1.4-2.5c-0.6-0.4-1.2-0.6-2-0.6c-0.3,0-0.6,0-1,0.1c-1,0.2-2,0.5-2.9,1c-0.9,0.5-1.8,1.2-2.6,2
					c-0.2,0.2-0.4,0.4-0.7,0.5s-0.5,0.2-0.7,0.3c-0.1,0-0.1,0-0.2,0c-0.3,0-0.7-0.1-1-0.4c-0.4-0.3-0.6-0.8-0.7-1.3
					c-0.1-0.4,0-0.7,0.1-1c0.1-0.3,0.3-0.6,0.5-0.9c1-1,2.1-1.9,3.5-2.7c1.4-0.7,2.8-1.2,4.3-1.5C80.6,182.1,81.3,182,81.9,182
					 M81.9,172c-1.2,0-2.4,0.1-3.6,0.3c-2.6,0.4-5.1,1.3-7.4,2.5c-2.4,1.3-4.4,2.9-6.2,4.7c-0.1,0.1-0.1,0.1-0.2,0.2
					c-1.2,1.3-2,2.8-2.5,4.5c-0.6,1.8-0.7,3.6-0.4,5.6c0.4,2.8,1.7,5.2,3.8,7.1c0.9,0.8,1.9,1.5,2.9,2l-1,1.4
					c-1.9,2.8-2.7,6.1-2.1,9.3c0.5,3.1,2.1,5.9,4.7,7.8c2.1,1.5,4.5,2.4,7.2,2.4c0.7,0,1.3-0.1,2-0.2l14.1-2.2
					c6.9-1.1,11.3-7,10.2-13.8c-0.5-3.4-2.3-6.1-4.9-7.9c0-0.1,0.1-0.3,0.1-0.4c0.9-2.9,1.1-5.9,0.6-8.9c-0.8-5.1-3.6-9.3-7.8-11.8
					C88.7,172.9,85.5,172,81.9,172L81.9,172z"/>
			</g>
			<g>
				<path class="st0" d="M103.8,210.8c-3.7,0-6.9-1.4-9.5-4c-2.8-2.8-4.5-6.9-5.4-12.3c-0.9-5.5-0.4-9.8,1.3-13.4
					c2-4,5.5-6.5,10.2-7.3c0.9-0.1,1.7-0.2,2.5-0.2c3.6,0,6.9,1.4,9.5,4c2.8,2.8,4.5,6.8,5.4,12.3c0.9,5.5,0.4,9.8-1.3,13.4
					c-2,4-5.5,6.5-10.2,7.3C105.5,210.7,104.6,210.8,103.8,210.8z"/>
				<path class="st0" d="M103,178.7c2.3,0,4.3,0.8,5.9,2.5c2,2,3.3,5.2,4,9.6c0.7,4.4,0.4,7.8-0.9,10.4c-1.3,2.6-3.5,4.1-6.5,4.6
					c-0.6,0.1-1.2,0.1-1.7,0.1c-2.3,0-4.3-0.8-5.9-2.5c-2-2-3.3-5.2-4-9.6c-0.7-4.4-0.4-7.8,0.9-10.4c1.3-2.5,3.5-4.1,6.5-4.6
					C101.9,178.7,102.5,178.7,103,178.7 M104.2,202c0.2,0,0.5,0,0.8-0.1c1.7-0.3,2.8-1.2,3.3-2.9c0.5-1.7,0.5-4.2,0-7.6
					c-0.5-3.4-1.3-5.8-2.3-7.2c-0.8-1.2-1.9-1.8-3.3-1.8c-0.3,0-0.5,0-0.8,0.1c-1.7,0.3-2.8,1.2-3.3,2.9c-0.5,1.7-0.5,4.2,0,7.5
					c0.5,3.4,1.3,5.8,2.3,7.2C101.8,201.4,102.9,202,104.2,202 M103,168.7c-1.1,0-2.2,0.1-3.3,0.3c-6.3,1-11.2,4.5-13.9,10
					c-2.2,4.4-2.8,9.9-1.8,16.4c1,6.6,3.3,11.5,6.8,15.1c3.5,3.6,8,5.4,13,5.4c1.1,0,2.2-0.1,3.3-0.3c6.3-1,11.2-4.5,13.9-10
					c2.2-4.5,2.8-10,1.8-16.4c-1-6.4-3.3-11.5-6.8-15C112.6,170.6,108.1,168.7,103,168.7L103,168.7z"/>
			</g>
		</g>
	</g>
</g>
<g>
	<g>
		<g>
			<g>
				<path class="st0" d="M107.1,323.4c-28.3,0-51.3-23-51.3-51.3s23-51.3,51.3-51.3c28.3,0,51.3,23,51.3,51.3
					S135.4,323.4,107.1,323.4z"/>
				<path class="st0" d="M107.1,225.8c25.6,0,46.3,20.7,46.3,46.3c0,25.6-20.7,46.3-46.3,46.3s-46.3-20.7-46.3-46.3
					C60.8,246.5,81.5,225.8,107.1,225.8 M107.1,215.8c-31,0-56.3,25.3-56.3,56.3s25.3,56.3,56.3,56.3s56.3-25.3,56.3-56.3
					S138.1,215.8,107.1,215.8L107.1,215.8z"/>
			</g>
		</g>
		<g>
			<path class="st0" d="M107.1,307.4c-19.5,0-35.3-15.8-35.3-35.3s15.8-35.3,35.3-35.3c19.5,0,35.3,15.8,35.3,35.3
				S126.6,307.4,107.1,307.4z"/>
			<path class="st0" d="M107.1,241.8c16.7,0,30.3,13.6,30.3,30.3s-13.6,30.3-30.3,30.3s-30.3-13.6-30.3-30.3S90.4,241.8,107.1,241.8
				 M107.1,231.8c-22.2,0-40.3,18.1-40.3,40.3s18.1,40.3,40.3,40.3s40.3-18.1,40.3-40.3S129.3,231.8,107.1,231.8L107.1,231.8z"/>
		</g>
		<g>
			<g class="st1">
				<g>
					<path class="st0" d="M112.5,290.9c-2.3,0-4.5-0.4-6.9-1.2c-2.4-0.8-4.4-1.9-6-3.3c-1.8-1.6-2.8-3.6-2.8-5.8
						c0-1.7,0.5-3.3,1.5-4.6c0.1-0.2,0.3-0.4,0.5-0.5c0.1-0.1,0.2-0.2,0.3-0.3c-0.7-1.1-1.2-2.4-1.2-3.9v-13.5c0-2.2,0.7-4,2.2-5.4
						c1.4-1.4,3.3-2.2,5.4-2.2H120c4.5,0,7.6,3,7.6,7.2c0,3.1-1.8,5.6-4.5,6.6c1.4,1.1,2.5,2.4,3.5,4.1c0,0,0,0.1,0.1,0.1
						c1.2,2.2,1.8,4.7,1.8,7.5c0,2.8-0.7,5.3-2,7.8c-1.3,2.3-3.1,4.1-5.7,5.5c0,0-0.1,0-0.1,0.1
						C118.2,290.3,115.5,290.9,112.5,290.9z M110.6,276.3c0.5,0.2,1.1,0.2,1.6,0.2c0.4,0,0.7,0,0.9-0.1c0-0.1,0-0.2,0-0.4
						c0-0.2,0-0.4,0-0.4c-0.1,0-0.3-0.1-0.7-0.1c-0.5,0-0.9,0.1-1.4,0.2c-0.2,0.1-0.4,0.1-0.7,0.4
						C110.4,276.2,110.5,276.2,110.6,276.3z"/>
					<path class="st0" d="M120,255.2c1.7,0,2.6,0.7,2.6,2.2c0,1.4-0.9,2.2-2.6,2.2h-11.6v8.2c1.5-1,3.3-1.6,5.4-1.6
						c0.3,0,0.6-0.1,1-0.1c1.5,0,2.9,0.4,4,1.1c1.5,0.8,2.6,2,3.4,3.4c0.8,1.5,1.2,3.2,1.2,5.1c0,2-0.5,3.7-1.4,5.3
						c-0.9,1.6-2.2,2.7-3.8,3.6c-1.7,0.9-3.6,1.3-5.7,1.3c-1.8,0-3.5-0.3-5.3-0.9c-1.7-0.6-3.2-1.4-4.4-2.4c-0.7-0.6-1-1.3-1-2
						c0-0.6,0.2-1.2,0.5-1.6c0.4-0.4,0.8-0.7,1.3-0.7c0.3,0,0.6,0.1,0.8,0.2c0.3,0.1,0.6,0.3,0.9,0.5c1.2,0.8,2.3,1.4,3.4,1.9
						c1.1,0.4,2.3,0.6,3.5,0.6c1.9,0,3.4-0.5,4.4-1.4c1-1,1.5-2.3,1.5-4.1c0-1.7-0.5-3-1.5-4s-2.4-1.5-4.2-1.5c-1.1,0-2.1,0.2-3,0.5
						c-0.9,0.3-1.8,0.8-2.7,1.6c-0.5,0.4-1.1,0.6-1.7,0.6c-0.6,0-1.1-0.2-1.5-0.5c-0.4-0.3-0.6-0.8-0.6-1.4v-13.5
						c0-0.8,0.2-1.4,0.7-1.9s1.1-0.7,1.9-0.7H120 M120,245.2h-14.5c-4.4,0-7.3,2-9,3.6c-1.7,1.7-3.6,4.6-3.6,9v13.5
						c0,1.1,0.1,2.2,0.4,3.2c-1,1.8-1.5,3.9-1.5,6.1c0,3.6,1.6,7.1,4.5,9.6c0,0,0.1,0.1,0.1,0.1c2.1,1.7,4.6,3.1,7.5,4.1
						c0.1,0,0.1,0,0.2,0.1c2.9,1,5.6,1.4,8.5,1.4c3.8,0,7.3-0.8,10.4-2.5c0.1,0,0.1-0.1,0.2-0.1c3.4-1.9,5.9-4.3,7.6-7.4
						c1.8-3.2,2.7-6.6,2.7-10.2c0-3.5-0.8-6.8-2.4-9.8c0-0.1-0.1-0.2-0.1-0.3c-0.2-0.3-0.4-0.7-0.6-1c1.5-2,2.3-4.5,2.3-7.2
						C132.6,250.3,127.3,245.2,120,245.2L120,245.2z"/>
				</g>
			</g>
		</g>
	</g>
	<g>
		<g>
			<g>
				<path class="st0" d="M107.1,314.3c-23.3,0-42.2-18.9-42.2-42.2c0-23.3,18.9-42.2,42.2-42.2s42.2,18.9,42.2,42.2
					C149.3,295.4,130.4,314.3,107.1,314.3z"/>
				<path class="st0" d="M107.1,234.9c20.5,0,37.2,16.7,37.2,37.2s-16.7,37.2-37.2,37.2s-37.2-16.7-37.2-37.2
					S86.6,234.9,107.1,234.9 M107.1,224.9c-26,0-47.2,21.2-47.2,47.2c0,26,21.2,47.2,47.2,47.2s47.2-21.2,47.2-47.2
					C154.3,246.1,133.1,224.9,107.1,224.9L107.1,224.9z"/>
			</g>
		</g>
	</g>
	<path id="XMLID_1_" class="st2" d="M92.4,282.1c-0.5,0-0.7-0.2-0.7-0.7v-0.9c-1.4-0.2-2.3-0.5-3.4-1.4v0.9c0,0.5-0.2,0.7-0.7,0.7
		s-0.7-0.2-0.7-0.7v-4.2c0-0.5,0.2-0.7,0.7-0.7s0.7,0.2,0.7,0.7v1.5c0.7,0.8,1.3,1,2.5,1.5c0.3,0.1,0.6,0.2,1,0.2v-6.5
		c-1.4-0.3-2.3-0.7-3-1c-0.7-0.3-1.3-0.8-1.7-1.4c-0.4-0.6-0.6-1.1-0.6-2c0-1.4,0.5-2.4,1.4-3.2c0.8-0.8,2.2-1.1,3.9-1.3v-0.9
		c0-0.5,0.2-0.7,0.7-0.7s0.7,0.2,0.7,0.7v1c1.3,0.2,2.3,0.7,3.2,1.3c0.2,0.1,0.1,0.3,0.2,0.5v-0.9c0-0.5,0.2-0.7,0.7-0.7
		s0.7,0.2,0.7,0.7v4.2c0,0.5-0.2,0.7-0.7,0.7s-0.7-0.2-0.7-0.7v-1.5c-0.8-0.8-1.5-1.5-2.5-2c-0.2-0.1-0.6-0.2-0.9-0.2v6.2
		c0.2,0,0.6,0.1,1,0.2c0.8,0.2,1.6,0.5,2.3,0.8c0.7,0.3,1.3,0.8,1.7,1.4c0.5,0.6,0.6,1.3,0.6,2c0,1.5-0.5,2.6-1.5,3.4
		c-0.9,0.8-2.4,1.3-4.1,1.3v0.9C93.1,281.8,92.8,282.1,92.4,282.1 M89.7,279.1c0.1,0,0.2,0.1,0.3,0.1
		C89.9,279.2,89.8,279.1,89.7,279.1 M93.1,272.8v6.3c1.4,0,2.5-0.3,3.2-0.9c0.8-0.6,1.1-1.4,1.1-2.3c0-0.5-0.1-0.9-0.5-1.3
		c-0.3-0.3-0.7-0.7-1.3-0.9c-0.5-0.2-1-0.5-1.6-0.6L93.1,272.8z M97,278.5c-0.1,0.1-0.2,0.2-0.3,0.2c-0.1,0.1-0.3,0.2-0.6,0.3
		c0.2-0.1,0.5-0.2,0.6-0.5C96.9,278.6,97,278.5,97,278.5 M91.7,265.1c-1.4,0-2.3,0.3-3,0.8c-0.7,0.6-1,1.3-1,2.1
		c0,0.5,0.1,0.9,0.5,1.3c0.3,0.3,0.7,0.7,1.3,0.9c0.5,0.2,1,0.5,1.5,0.6c0.2,0.1,0.6,0.1,0.8,0.2L91.7,265.1L91.7,265.1z"/>
</g>
<g>
	<g>
		<g>
			<g>
				<g>
					<path class="st0" d="M277.3,256.1c-22.6,0-41-18.4-41-41s18.4-41,41-41c22.6,0,41,18.4,41,41S300,256.1,277.3,256.1z"/>
					<path class="st0" d="M277.3,179.1c19.8,0,36,16.2,36,36c0,19.8-16.1,36-36,36c-19.8,0-36-16.2-36-36
						C241.3,195.2,257.5,179.1,277.3,179.1 M277.3,169.1c-25.4,0-46,20.6-46,46c0,25.4,20.6,46,46,46s46-20.6,46-46
						C323.3,189.7,302.7,169.1,277.3,169.1L277.3,169.1z"/>
				</g>
			</g>
			<g>
				<path class="st0" d="M277.3,243.7c-15.8,0-28.6-12.8-28.6-28.6c0-15.8,12.8-28.6,28.6-28.6c15.8,0,28.6,12.8,28.6,28.6
					C305.9,230.8,293.1,243.7,277.3,243.7z"/>
				<path class="st0" d="M277.3,191.5c13,0,23.6,10.6,23.6,23.6s-10.6,23.6-23.6,23.6s-23.6-10.6-23.6-23.6S264.3,191.5,277.3,191.5
					 M277.3,181.5c-18.5,0-33.6,15.1-33.6,33.6s15.1,33.6,33.6,33.6s33.6-15.1,33.6-33.6S295.9,181.5,277.3,181.5L277.3,181.5z"/>
			</g>
			<g>
				<g>
					<g class="st1">
						<g>
							<path class="st0" d="M275.1,230.5c-1.9,0-3.7-0.7-5-2c-1.2-1.3-1.9-3-1.9-4.8c0-2,0.7-3.8,2.2-5.3l5.8-6.3
								c-0.6,0.2-1.3,0.3-2,0.3c-1.9,0-3.7-0.9-4.9-2.5c-1-1.2-1.5-2.7-1.5-4.4c0-1.1,0.2-2.2,0.7-3.1c0.4-0.9,1-1.6,1.9-2.3
								c0,0,0.1-0.1,0.1-0.1c1.4-1.1,3.1-2,4.9-2.7c1.8-0.6,3.7-1,5.6-1c3.5,0,6.5,1,8.8,2.9c2.5,2.1,3.8,5.1,3.8,8.5
								c0,2.1-0.5,4.2-1.4,6c-0.5,1.1-1.2,2.2-2.1,3.3c2.9,0.8,4.8,3.2,4.8,6.4c0,4-2.9,6.8-7,6.8H275.1z"/>
							<path class="st0" d="M281.1,201.5c2.3,0,4.2,0.6,5.5,1.7c1.4,1.2,2.1,2.7,2.1,4.7c0,1.4-0.3,2.7-0.9,3.9
								c-0.6,1.2-1.6,2.5-3,4L279,222h8.9c1.3,0,2,0.6,2,1.7c0,1.2-0.7,1.8-2,1.8h-12.8c-0.6,0-1-0.2-1.4-0.5
								c-0.3-0.3-0.5-0.8-0.5-1.3c0-0.7,0.3-1.3,0.8-1.8l7.7-8.2c0.9-1,1.6-2,2.1-2.8c0.4-0.9,0.7-1.7,0.7-2.6
								c0-1.1-0.3-1.9-0.9-2.4c-0.6-0.6-1.5-0.8-2.6-0.8c-0.9,0-1.8,0.2-2.7,0.5c-0.9,0.3-1.7,0.8-2.6,1.4c-0.2,0.2-0.4,0.3-0.7,0.4
								c-0.2,0.1-0.4,0.2-0.7,0.2c-0.4,0-0.7-0.2-1-0.5c-0.3-0.4-0.4-0.8-0.4-1.3c0-0.3,0.1-0.6,0.2-0.9c0.1-0.2,0.3-0.5,0.6-0.7
								c1-0.8,2.1-1.4,3.5-1.9C278.4,201.8,279.7,201.5,281.1,201.5 M281.1,191.5c-2.4,0-4.9,0.4-7.3,1.2c-2.4,0.8-4.5,2-6.4,3.5
								c-0.1,0-0.1,0.1-0.2,0.1c-1.3,1.1-2.4,2.4-3.1,3.9c-0.8,1.6-1.2,3.4-1.2,5.3c0,2.7,0.9,5.3,2.5,7.4c0.5,0.6,1,1.2,1.6,1.7
								l-0.3,0.3c-2.2,2.4-3.5,5.5-3.5,8.7c0,3.1,1.2,6,3.3,8.2c2.2,2.3,5.3,3.6,8.6,3.6h12.8c6.9,0,12-5.1,12-11.8
								c0-3.1-1.1-5.8-3-7.9c1.1-2.5,1.7-5.1,1.7-7.9c0-4.9-2-9.3-5.6-12.3C290.8,193.8,286.9,191.5,281.1,191.5L281.1,191.5z"/>
						</g>
					</g>
				</g>
			</g>
		</g>
		<g>
			<g>
				<g>
					<path class="st0" d="M277.3,249c-16.7,0-30.8-12-33.5-28.5c-3-18.5,9.6-36,28.1-38.9c1.8-0.3,3.7-0.4,5.5-0.4
						c16.7,0,30.8,12,33.5,28.5c3,18.5-9.6,36-28.1,38.9C281,248.9,279.1,249,277.3,249z"/>
					<path class="st0" d="M277.4,186.1c13.9,0,26.2,10.1,28.5,24.3c2.6,15.8-8.2,30.7-23.9,33.2c-1.6,0.3-3.1,0.4-4.7,0.4
						c-13.9,0-26.2-10.1-28.5-24.3c-2.6-15.8,8.2-30.7,23.9-33.2C274.3,186.2,275.8,186.1,277.4,186.1 M277.4,176.1
						C277.4,176.1,277.4,176.1,277.4,176.1c-2.1,0-4.2,0.2-6.3,0.5c-10.3,1.7-19.3,7.2-25.4,15.7c-6.1,8.4-8.5,18.7-6.8,29
						c1.5,9.2,6.2,17.5,13.3,23.5c7,5.9,15.9,9.2,25.1,9.2c2.1,0,4.2-0.2,6.3-0.5c10.3-1.7,19.3-7.2,25.4-15.7
						c6.1-8.4,8.5-18.7,6.8-29c-1.5-9.2-6.2-17.5-13.3-23.5C295.4,179.4,286.5,176.1,277.4,176.1L277.4,176.1z"/>
				</g>
			</g>
		</g>
	</g>
	<path id="XMLID_5_" class="st2" d="M265.9,222.8c-0.4,0-0.5-0.2-0.5-0.5v-0.7c-1.1-0.2-1.8-0.4-2.7-1.1v0.7c0,0.4-0.2,0.5-0.5,0.5
		c-0.4,0-0.5-0.2-0.5-0.5v-3.3c0-0.4,0.2-0.5,0.5-0.5c0.4,0,0.5,0.2,0.5,0.5v1.2c0.5,0.6,1,0.8,2,1.2c0.3,0.1,0.4,0.2,0.8,0.2v-5.1
		c-1.1-0.3-1.8-0.5-2.3-0.8c-0.5-0.3-1-0.6-1.3-1.1c-0.4-0.4-0.4-0.9-0.4-1.5c0-1.1,0.4-1.9,1.1-2.5c0.6-0.6,1.7-0.9,3-1v-0.7
		c0-0.4,0.2-0.5,0.5-0.5c0.4,0,0.5,0.2,0.5,0.5v0.8c1,0.2,1.8,0.5,2.5,1c0.2,0.1,0.1,0.3,0.2,0.4v-0.7c0-0.4,0.2-0.5,0.5-0.5
		c0.4,0,0.5,0.2,0.5,0.5v3.3c0,0.4-0.2,0.5-0.5,0.5c-0.4,0-0.5-0.2-0.5-0.5v-1.2c-0.6-0.6-1.2-1.2-2-1.5c-0.2-0.1-0.4-0.2-0.7-0.2
		v4.8c0.2,0,0.4,0.1,0.8,0.2c0.6,0.2,1.3,0.4,1.8,0.6c0.5,0.3,1,0.6,1.3,1.1s0.4,1,0.4,1.5c0,1.2-0.4,2.1-1.2,2.7
		c-0.7,0.6-1.9,1-3.2,1v0.7C266.4,222.7,266.2,222.8,265.9,222.8 M263.8,220.5c0.1,0,0.2,0.1,0.3,0.1
		C263.9,220.6,263.8,220.5,263.8,220.5 M266.4,215.6v4.9c1.1,0,2-0.3,2.5-0.7c0.6-0.4,0.9-1.1,0.9-1.8c0-0.4-0.1-0.7-0.4-1
		s-0.5-0.5-1-0.7c-0.4-0.2-0.8-0.4-1.3-0.4L266.4,215.6z M269.5,220.1c-0.1,0.1-0.2,0.2-0.3,0.2c-0.1,0.1-0.3,0.2-0.4,0.3
		c0.2-0.1,0.4-0.2,0.4-0.4C269.4,220.2,269.4,220.1,269.5,220.1 M265.4,209.6c-1.1,0-1.8,0.3-2.3,0.6c-0.5,0.4-0.8,1-0.8,1.6
		c0,0.4,0.1,0.7,0.4,1c0.3,0.3,0.5,0.5,1,0.7c0.4,0.2,0.8,0.4,1.2,0.4c0.2,0.1,0.4,0.1,0.6,0.2V209.6L265.4,209.6z"/>
</g>
<g>
	<g>
		<g>
			<g>
				<g>
					<path class="st0" d="M334.8,297.2c-28.6,0-51.9-23.3-51.9-51.9c0-28.6,23.3-51.9,51.9-51.9c28.6,0,51.9,23.3,51.9,51.9
						C386.7,273.9,363.5,297.2,334.8,297.2z"/>
					<path class="st0" d="M334.8,198.4c25.8,0,46.9,21.1,46.9,46.9s-21,46.9-46.9,46.9c-25.8,0-46.9-21.1-46.9-46.9
						S309,198.4,334.8,198.4 M334.8,188.4c-31.4,0-56.9,25.5-56.9,56.9s25.5,56.9,56.9,56.9s56.9-25.5,56.9-56.9
						S366.2,188.4,334.8,188.4L334.8,188.4z"/>
				</g>
			</g>
			<g>
				<circle class="st0" cx="334.8" cy="245.3" r="38.8"/>
				<path class="st0" d="M334.8,211.5c18.7,0,33.8,15.1,33.8,33.8s-15.1,33.8-33.8,33.8S301,263.9,301,245.3
					S316.2,211.5,334.8,211.5 M334.8,201.5c-24.2,0-43.8,19.6-43.8,43.8s19.6,43.8,43.8,43.8s43.8-19.6,43.8-43.8
					S359,201.5,334.8,201.5L334.8,201.5z"/>
			</g>
		</g>
		<g>
			<g>
				<g>
					<circle class="st0" cx="334.8" cy="245.3" r="42.8"/>
					<path class="st0" d="M334.8,207.5c20.9,0,37.8,16.9,37.8,37.8s-16.9,37.8-37.8,37.8S297,266.1,297,245.3S314,207.5,334.8,207.5
						 M334.8,197.5c-26.4,0-47.8,21.4-47.8,47.8s21.4,47.8,47.8,47.8s47.8-21.4,47.8-47.8S361.2,197.5,334.8,197.5L334.8,197.5z"/>
				</g>
			</g>
		</g>
		<g>
			<g class="st1">
				<g>
					<path class="st0" d="M321.6,262.9c-4.5,0-7.5-2.9-7.5-7.2c0-3.9,2.7-6.7,6.7-7.1v-5.9c-2.2,0-4.2-1-5.4-2.8
						c-1-1.3-1.5-2.9-1.5-4.5c0-2.6,1.3-4.8,3.5-6.1l6.2-3.9c1.5-0.9,3.2-1.4,4.9-1.4c3,0,4.8,1.4,5.7,2.6c1.2,1.5,1.8,3.2,1.8,5
						v17.1c4,0.2,6.8,3,6.8,7c0,4.2-3.1,7.2-7.5,7.2H321.6z"/>
					<path class="st0" d="M328.6,229c0.8,0,1.4,0.2,1.8,0.7s0.7,1.1,0.7,1.9v22.1h4.3c0.1,0,0.2,0,0.3,0c1.5,0,2.2,0.7,2.2,2
						c0,1.4-0.8,2.2-2.5,2.2h-13.8c-1.7,0-2.5-0.7-2.5-2.2c0-1.4,0.8-2.1,2.5-2.1h4.2V235l-3.9,2.4c-0.4,0.2-0.7,0.3-1,0.3
						c-0.6,0-1.1-0.2-1.4-0.7c-0.4-0.5-0.6-1-0.6-1.6c0-0.8,0.4-1.4,1.1-1.8l6.3-3.9C327.1,229.2,327.9,229,328.6,229 M328.6,219
						c-2.6,0-5.3,0.8-7.6,2.2l-6.2,3.8c-3.7,2.2-5.9,6.1-5.9,10.4c0,2.7,0.8,5.2,2.5,7.4c0.8,1.2,1.8,2.1,2.9,2.9
						c-3.2,2.1-5.2,5.7-5.2,10c0,7.1,5.3,12.2,12.5,12.2h13.8c7.1,0,12.5-5.2,12.5-12.2c0-4.9-2.7-9-6.8-10.9v-13.2
						c0-3-1-5.8-2.9-8.1C336.9,221.8,333.9,219,328.6,219L328.6,219z"/>
				</g>
				<g>
					<path class="st0" d="M350.6,263.2c-5,0-9.1-2-11.9-5.9c-2.4-3.4-3.6-8-3.6-13.9c0-5.8,1.2-10.4,3.6-13.8c2.8-3.9,6.9-6,11.9-6
						c5,0,9.1,2,11.9,5.9c2.4,3.4,3.6,8,3.6,13.9s-1.2,10.6-3.6,13.9C359.7,261.1,355.6,263.2,350.6,263.2z M350.8,239.2
						c-0.2,1-0.3,2.3-0.3,4.2c0,2,0.1,3.3,0.3,4.2c0.2-0.9,0.3-2.3,0.3-4.2C351,241.4,350.9,240.1,350.8,239.2z"/>
					<path class="st0" d="M350.6,228.6c3.4,0,6,1.3,7.8,3.8s2.7,6.2,2.7,11s-0.9,8.5-2.7,11c-1.8,2.5-4.4,3.8-7.8,3.8
						s-6-1.3-7.8-3.8s-2.7-6.2-2.7-11s0.9-8.4,2.7-11C344.6,229.9,347.2,228.6,350.6,228.6 M350.7,254.1c1.8,0,3.1-0.9,4-2.6
						c0.8-1.7,1.3-4.4,1.3-8.1s-0.4-6.4-1.3-8.1c-0.8-1.7-2.2-2.5-4-2.5s-3.2,0.8-4,2.5c-0.8,1.7-1.3,4.4-1.3,8.1s0.4,6.4,1.3,8.1
						C347.5,253.2,348.9,254.1,350.7,254.1 M350.6,218.6c-6.6,0-12.2,2.8-15.9,8c0,0-0.1,0.1-0.1,0.2c-3,4.4-4.5,9.8-4.5,16.7
						c0,7,1.5,12.6,4.6,16.8c3.7,5.1,9.3,8,15.9,8s12.2-2.8,15.9-8c3-4.2,4.6-9.9,4.6-16.8c0-7-1.5-12.6-4.6-16.8
						C362.9,221.4,357.2,218.6,350.6,218.6L350.6,218.6z"/>
				</g>
			</g>
		</g>
	</g>
	<path id="XMLID_3_" class="st2" d="M313,254.3c-0.3,0-0.6-0.2-0.6-0.6V253c-1-0.2-1.7-0.3-2.7-1v0.7c0,0.3-0.2,0.6-0.6,0.6
		c-0.3,0-0.6-0.2-0.6-0.6v-3.4c0-0.3,0.2-0.6,0.6-0.6c0.3,0,0.6,0.2,0.6,0.6v1.2c0.6,0.6,0.9,0.8,2,1.2c0.2,0.1,0.5,0.2,0.8,0.2
		v-5.1c-1-0.2-1.7-0.6-2.3-0.8c-0.6-0.2-0.9-0.6-1.4-1s-0.5-0.9-0.5-1.5c0-1,0.3-1.9,1-2.6c0.6-0.6,1.7-0.9,3-0.9v-0.7
		c0-0.3,0.2-0.6,0.6-0.6c0.3,0,0.6,0.2,0.6,0.6v0.8c0.9,0.2,1.7,0.6,2.6,0.9c0.2,0.1,0.1,0.2,0.2,0.3v-0.7c0-0.3,0.2-0.6,0.6-0.6
		c0.3,0,0.6,0.2,0.6,0.6v3.4c0,0.3-0.2,0.6-0.6,0.6c-0.3,0-0.6-0.2-0.6-0.6v-1.2c-0.6-0.6-1.2-1.2-2-1.5c-0.2-0.1-0.5-0.2-0.7-0.2
		v4.9c0.2,0,0.5,0.1,0.8,0.2c0.6,0.2,1.3,0.3,1.7,0.6c0.5,0.2,0.9,0.6,1.4,1c0.3,0.5,0.5,0.9,0.5,1.5c0,1.2-0.3,2.1-1.2,2.7
		c-0.7,0.6-1.9,0.9-3.3,0.9v0.7C313.4,254,313.2,254.3,313,254.3 M310.8,251.9c0.1,0,0.2,0.1,0.2,0.1
		C311,251.9,310.9,251.9,310.8,251.9 M313.4,246.9v4.9c1,0,2-0.2,2.6-0.7s0.9-1,0.9-1.7c0-0.3-0.1-0.7-0.3-0.9
		c-0.2-0.2-0.6-0.6-0.9-0.7c-0.3-0.2-0.8-0.3-1.3-0.5L313.4,246.9z M316.5,251.5c-0.1,0.1-0.2,0.2-0.2,0.2c-0.1,0.1-0.2,0.2-0.5,0.2
		c0.2-0.1,0.3-0.2,0.5-0.3C316.5,251.6,316.5,251.5,316.5,251.5 M312.4,240.9c-1,0-1.7,0.2-2.3,0.6c-0.6,0.5-0.8,0.9-0.8,1.6
		c0,0.3,0.1,0.7,0.3,0.9c0.2,0.2,0.6,0.6,0.9,0.7c0.3,0.2,0.8,0.3,1.2,0.5c0.2,0.1,0.5,0.1,0.6,0.2L312.4,240.9L312.4,240.9
		L312.4,240.9z"/>
</g>
<g>
	<g>
		<g>
			<g>
				<g>
					<path class="st0" d="M287.5,380.5c-28.6,0-51.9-23.3-51.9-51.9c0-28.6,23.3-51.9,51.9-51.9s51.9,23.3,51.9,51.9
						C339.4,357.2,316.1,380.5,287.5,380.5z"/>
					<path class="st0" d="M287.5,281.7c25.8,0,46.9,21.1,46.9,46.9c0,25.8-21,46.9-46.9,46.9c-25.8,0-46.9-21.1-46.9-46.9
						C240.6,302.8,261.7,281.7,287.5,281.7 M287.5,271.7c-31.4,0-56.9,25.5-56.9,56.9s25.5,56.9,56.9,56.9s56.9-25.5,56.9-56.9
						S318.9,271.7,287.5,271.7L287.5,271.7z"/>
				</g>
			</g>
			<g>
				<path class="st0" d="M287.5,367.4c-21.4,0-38.8-17.4-38.8-38.8s17.4-38.8,38.8-38.8s38.8,17.4,38.8,38.8
					S308.9,367.4,287.5,367.4z"/>
				<path class="st0" d="M287.5,294.8c18.7,0,33.8,15.1,33.8,33.8s-15.1,33.8-33.8,33.8s-33.8-15.1-33.8-33.8
					S268.8,294.8,287.5,294.8 M287.5,284.8c-24.2,0-43.8,19.6-43.8,43.8s19.6,43.8,43.8,43.8s43.8-19.6,43.8-43.8
					S311.7,284.8,287.5,284.8L287.5,284.8z"/>
			</g>
		</g>
		<g>
			<g>
				<g>
					<path class="st0" d="M287.5,371.4c-23.6,0-42.8-19.2-42.8-42.8c0-23.6,19.2-42.8,42.8-42.8s42.8,19.2,42.8,42.8
						C330.3,352.2,311.1,371.4,287.5,371.4z"/>
					<path class="st0" d="M287.5,290.8c20.9,0,37.8,16.9,37.8,37.8c0,20.9-16.9,37.8-37.8,37.8s-37.8-16.9-37.8-37.8
						C249.7,307.7,266.6,290.8,287.5,290.8 M287.5,280.8c-26.4,0-47.8,21.4-47.8,47.8c0,26.4,21.4,47.8,47.8,47.8
						s47.8-21.4,47.8-47.8C335.3,302.2,313.9,280.8,287.5,280.8L287.5,280.8z"/>
				</g>
			</g>
		</g>
		<g>
			<g class="st1">
				<g>
					<path class="st0" d="M274.3,346.2c-4.5,0-7.5-2.9-7.5-7.2c0-3.9,2.7-6.7,6.7-7.1V326c-2.2,0-4.2-1-5.4-2.8
						c-1-1.3-1.5-2.9-1.5-4.5c0-2.5,1.3-4.8,3.5-6.1l6.2-3.9c1.5-0.9,3.2-1.4,4.9-1.4c3,0,4.8,1.4,5.7,2.6c1.2,1.5,1.8,3.2,1.8,5
						V332c4,0.2,6.8,3,6.8,7c0,4.2-3.1,7.2-7.5,7.2H274.3z"/>
					<path class="st0" d="M281.3,312.3c0.8,0,1.4,0.2,1.8,0.7s0.7,1.1,0.7,1.9V337h4.3c0.1,0,0.2,0,0.3,0c1.5,0,2.2,0.7,2.2,2
						c0,1.4-0.8,2.2-2.5,2.2h-13.8c-1.7,0-2.5-0.7-2.5-2.2c0-1.4,0.8-2.1,2.5-2.1h4.2v-18.6l-3.9,2.4c-0.4,0.2-0.7,0.3-1,0.3
						c-0.6,0-1.1-0.2-1.4-0.7c-0.4-0.5-0.6-1-0.6-1.6c0-0.8,0.4-1.4,1.1-1.8l6.3-3.9C279.8,312.5,280.6,312.3,281.3,312.3
						 M281.3,302.3c-2.6,0-5.3,0.8-7.6,2.2l-6.2,3.8c-3.7,2.2-5.9,6.1-5.9,10.4c0,2.7,0.8,5.2,2.5,7.4c0.8,1.2,1.8,2.1,2.9,2.9
						c-3.2,2.1-5.2,5.7-5.2,10c0,7.1,5.3,12.2,12.5,12.2h13.8c7.1,0,12.5-5.2,12.5-12.2c0-4.9-2.7-9-6.8-10.9v-13.2
						c0-3-1-5.8-2.9-8.1C289.6,305.1,286.6,302.3,281.3,302.3L281.3,302.3z"/>
				</g>
				<g>
					<path class="st0" d="M303.3,346.5c-5,0-9.1-2-11.9-5.9c-2.4-3.4-3.6-8-3.6-13.9c0-5.8,1.2-10.4,3.6-13.8c2.8-3.9,6.9-6,11.9-6
						s9.1,2,11.9,5.9c2.4,3.4,3.6,8,3.6,13.9s-1.2,10.6-3.6,13.9C312.4,344.5,308.3,346.5,303.3,346.5z M303.4,322.5
						c-0.2,1-0.3,2.3-0.3,4.2c0,2,0.1,3.3,0.3,4.2c0.2-0.9,0.3-2.3,0.3-4.2C303.7,324.7,303.6,323.4,303.4,322.5z"/>
					<path class="st0" d="M303.3,311.9c3.4,0,6,1.3,7.8,3.8s2.7,6.2,2.7,11c0,4.8-0.9,8.5-2.7,11c-1.8,2.5-4.4,3.8-7.8,3.8
						s-6-1.3-7.8-3.8s-2.7-6.2-2.7-11c0-4.8,0.9-8.4,2.7-11C297.3,313.2,299.9,311.9,303.3,311.9 M303.4,337.4c1.8,0,3.1-0.9,4-2.6
						c0.8-1.7,1.3-4.4,1.3-8.1c0-3.7-0.4-6.4-1.3-8.1c-0.8-1.7-2.2-2.5-4-2.5s-3.2,0.8-4,2.5c-0.8,1.7-1.3,4.4-1.3,8.1
						c0,3.7,0.4,6.4,1.3,8.1C300.2,336.5,301.6,337.4,303.4,337.4 M303.3,301.9c-6.6,0-12.2,2.8-15.9,8c0,0.1-0.1,0.1-0.1,0.2
						c-3,4.4-4.5,9.8-4.5,16.7c0,7,1.5,12.6,4.6,16.8c3.7,5.1,9.3,8,15.9,8s12.2-2.8,15.9-8c3-4.2,4.6-9.9,4.6-16.8
						c0-7-1.5-12.6-4.6-16.8C315.5,304.7,309.9,301.9,303.3,301.9L303.3,301.9z"/>
				</g>
			</g>
		</g>
	</g>
	<path id="XMLID_4_" class="st2" d="M265.7,337.6c-0.3,0-0.6-0.2-0.6-0.6v-0.7c-1-0.2-1.7-0.3-2.7-1v0.7c0,0.3-0.2,0.6-0.6,0.6
		c-0.3,0-0.6-0.2-0.6-0.6v-3.4c0-0.3,0.2-0.6,0.6-0.6c0.3,0,0.6,0.2,0.6,0.6v1.2c0.6,0.6,0.9,0.8,2,1.2c0.2,0.1,0.5,0.2,0.8,0.2
		v-5.1c-1-0.2-1.7-0.6-2.3-0.8c-0.6-0.2-0.9-0.6-1.4-1s-0.5-0.9-0.5-1.5c0-1,0.3-1.9,1-2.6c0.6-0.6,1.7-0.9,3-0.9v-0.7
		c0-0.3,0.2-0.6,0.6-0.6c0.3,0,0.6,0.2,0.6,0.6v0.8c0.9,0.2,1.7,0.6,2.6,0.9c0.2,0.1,0.1,0.2,0.2,0.3v-0.7c0-0.3,0.2-0.6,0.6-0.6
		c0.3,0,0.6,0.2,0.6,0.6v3.4c0,0.3-0.2,0.6-0.6,0.6c-0.3,0-0.6-0.2-0.6-0.6v-1.2c-0.6-0.6-1.2-1.2-2-1.5c-0.2-0.1-0.5-0.2-0.7-0.2
		v4.9c0.2,0,0.5,0.1,0.8,0.2c0.6,0.2,1.3,0.3,1.7,0.6c0.5,0.2,0.9,0.6,1.4,1c0.3,0.5,0.5,0.9,0.5,1.5c0,1.2-0.3,2.1-1.2,2.7
		c-0.7,0.6-1.9,0.9-3.3,0.9v0.7C266.1,337.3,265.9,337.6,265.7,337.6 M263.5,335.2c0.1,0,0.2,0.1,0.2,0.1
		C263.7,335.2,263.6,335.2,263.5,335.2 M266.1,330.2v4.9c1,0,2-0.2,2.6-0.7s0.9-1,0.9-1.7c0-0.3-0.1-0.7-0.3-0.9
		c-0.2-0.2-0.6-0.6-0.9-0.7c-0.3-0.2-0.8-0.3-1.3-0.5L266.1,330.2z M269.2,334.8c-0.1,0.1-0.2,0.2-0.2,0.2c-0.1,0.1-0.2,0.2-0.5,0.2
		c0.2-0.1,0.3-0.2,0.5-0.3C269.2,334.9,269.2,334.8,269.2,334.8 M265.1,324.2c-1,0-1.7,0.2-2.3,0.6c-0.6,0.5-0.8,0.9-0.8,1.6
		c0,0.3,0.1,0.7,0.3,0.9c0.2,0.2,0.6,0.6,0.9,0.7c0.3,0.2,0.8,0.3,1.2,0.5c0.2,0.1,0.5,0.1,0.6,0.2L265.1,324.2L265.1,324.2
		L265.1,324.2z"/>
</g>
<g>
	<g>
		<g>
			<g>
				<g>
					<circle class="st0" cx="337.7" cy="331" r="41"/>
					<path class="st0" d="M337.7,295c19.8,0,36,16.2,36,36s-16.1,36-36,36c-19.8,0-36-16.2-36-36S317.8,295,337.7,295 M337.7,285
						c-25.4,0-46,20.6-46,46s20.6,46,46,46c25.4,0,46-20.6,46-46S363,285,337.7,285L337.7,285z"/>
				</g>
			</g>
			<g>
				<path class="st0" d="M337.7,359.6c-15.8,0-28.6-12.8-28.6-28.6s12.8-28.6,28.6-28.6c15.8,0,28.6,12.8,28.6,28.6
					S353.4,359.6,337.7,359.6z"/>
				<path class="st0" d="M337.7,307.4c13,0,23.6,10.6,23.6,23.6c0,13-10.6,23.6-23.6,23.6S314.1,344,314.1,331
					C314.1,318,324.6,307.4,337.7,307.4 M337.7,297.4c-18.5,0-33.6,15.1-33.6,33.6c0,18.5,15.1,33.6,33.6,33.6
					c18.5,0,33.6-15.1,33.6-33.6C371.2,312.5,356.2,297.4,337.7,297.4L337.7,297.4z"/>
			</g>
			<g>
				<g>
					<g class="st1">
						<g>
							<path class="st0" d="M335.4,346.5c-1.9,0-3.7-0.7-5-2c-1.2-1.3-1.9-3-1.9-4.8c0-2,0.7-3.8,2.2-5.3l5.8-6.3
								c-0.6,0.2-1.3,0.3-2,0.3c-1.9,0-3.7-0.9-4.9-2.5c-1-1.2-1.5-2.7-1.5-4.4c0-1.1,0.2-2.2,0.7-3.1c0.4-0.9,1-1.6,1.8-2.3
								c0,0,0.1-0.1,0.1-0.1c1.4-1.1,3.1-2,4.9-2.7c1.8-0.6,3.7-1,5.6-1c3.5,0,6.5,1,8.8,2.9c2.5,2.1,3.8,5.1,3.8,8.5
								c0,2.1-0.5,4.2-1.4,6c-0.5,1.1-1.2,2.2-2.1,3.3c2.9,0.8,4.8,3.2,4.8,6.4c0,4-2.9,6.8-7,6.8H335.4z"/>
							<path class="st0" d="M341.4,317.5c2.3,0,4.2,0.6,5.5,1.7c1.4,1.2,2.1,2.7,2.1,4.7c0,1.4-0.3,2.7-0.9,3.9
								c-0.6,1.2-1.6,2.5-3,4l-5.8,6.2h8.9c1.3,0,2,0.6,2,1.7c0,1.2-0.7,1.8-2,1.8h-12.8c-0.6,0-1-0.2-1.4-0.5
								c-0.3-0.3-0.5-0.8-0.5-1.3c0-0.7,0.3-1.3,0.8-1.8l7.7-8.2c0.9-1,1.6-2,2.1-2.8c0.4-0.9,0.7-1.7,0.7-2.6
								c0-1.1-0.3-1.9-0.9-2.4c-0.6-0.6-1.5-0.8-2.6-0.8c-0.9,0-1.8,0.2-2.7,0.5c-0.9,0.3-1.7,0.8-2.6,1.4c-0.2,0.2-0.4,0.3-0.7,0.4
								c-0.2,0.1-0.4,0.2-0.7,0.2c-0.4,0-0.7-0.2-1-0.5c-0.3-0.4-0.4-0.8-0.4-1.3c0-0.3,0.1-0.6,0.2-0.9c0.1-0.2,0.3-0.5,0.6-0.7
								c1-0.8,2.1-1.4,3.5-1.9C338.7,317.7,340.1,317.5,341.4,317.5 M341.4,307.5c-2.4,0-4.9,0.4-7.3,1.2c-2.4,0.8-4.5,2-6.4,3.5
								c-0.1,0-0.1,0.1-0.2,0.1c-1.3,1.1-2.4,2.4-3.1,3.9c-0.8,1.6-1.2,3.4-1.2,5.3c0,2.7,0.9,5.3,2.5,7.4c0.5,0.6,1,1.2,1.6,1.7
								L327,331c-2.3,2.4-3.5,5.5-3.5,8.7c0,3.1,1.2,6,3.3,8.2c2.2,2.3,5.3,3.6,8.6,3.6h12.8c6.9,0,12-5.1,12-11.8
								c0-3.1-1.1-5.8-3-7.9c1.1-2.5,1.7-5.1,1.7-7.9c0-4.9-2-9.3-5.6-12.3C351.2,309.7,347.3,307.5,341.4,307.5L341.4,307.5z"/>
						</g>
					</g>
				</g>
			</g>
		</g>
		<g>
			<g>
				<g>
					<path class="st0" d="M337.6,365c-16.7,0-30.8-12-33.5-28.5c-3-18.5,9.6-35.9,28.1-38.9c1.8-0.3,3.7-0.4,5.5-0.4
						c16.7,0,30.8,12,33.5,28.5c3,18.5-9.6,35.9-28.1,38.9C341.3,364.8,339.5,365,337.6,365z"/>
					<path class="st0" d="M337.7,302c13.9,0,26.2,10.1,28.5,24.3c2.6,15.8-8.2,30.7-23.9,33.2c-1.6,0.3-3.1,0.4-4.7,0.4
						c-13.9,0-26.2-10.1-28.5-24.3c-2.6-15.8,8.2-30.7,23.9-33.2C334.6,302.2,336.2,302,337.7,302 M337.7,292
						C337.7,292,337.7,292,337.7,292c-2.1,0-4.2,0.2-6.3,0.5c-21.2,3.4-35.6,23.5-32.2,44.7c1.5,9.2,6.2,17.5,13.3,23.5
						c7,5.9,15.9,9.2,25.1,9.2c2.1,0,4.2-0.2,6.3-0.5c10.3-1.7,19.3-7.2,25.4-15.7c6.1-8.4,8.5-18.7,6.8-29
						c-1.5-9.2-6.2-17.5-13.3-23.5C355.8,295.3,346.8,292,337.7,292L337.7,292z"/>
				</g>
			</g>
		</g>
	</g>
	<path id="XMLID_7_" class="st2" d="M326.2,338.8c-0.4,0-0.5-0.2-0.5-0.5v-0.7c-1.1-0.2-1.8-0.4-2.7-1.1v0.7c0,0.4-0.2,0.5-0.5,0.5
		c-0.4,0-0.5-0.2-0.5-0.5v-3.3c0-0.4,0.2-0.5,0.5-0.5c0.4,0,0.5,0.2,0.5,0.5v1.2c0.5,0.6,1,0.8,2,1.2c0.3,0.1,0.4,0.2,0.8,0.2v-5.1
		c-1.1-0.3-1.8-0.5-2.3-0.8c-0.5-0.3-1-0.6-1.3-1.1c-0.4-0.4-0.4-0.9-0.4-1.5c0-1.1,0.4-1.9,1.1-2.5c0.6-0.6,1.7-0.9,3-1v-0.7
		c0-0.4,0.2-0.5,0.5-0.5c0.4,0,0.5,0.2,0.5,0.5v0.8c1,0.2,1.8,0.5,2.5,1c0.2,0.1,0.1,0.3,0.2,0.4v-0.7c0-0.4,0.2-0.5,0.5-0.5
		c0.4,0,0.5,0.2,0.5,0.5v3.3c0,0.4-0.2,0.5-0.5,0.5c-0.4,0-0.5-0.2-0.5-0.5v-1.2c-0.6-0.6-1.2-1.2-2-1.5c-0.2-0.1-0.4-0.2-0.7-0.2
		v4.8c0.2,0,0.4,0.1,0.8,0.2c0.6,0.2,1.3,0.4,1.8,0.6c0.5,0.3,1,0.6,1.3,1.1c0.4,0.4,0.4,1,0.4,1.5c0,1.2-0.4,2.1-1.2,2.7
		c-0.7,0.6-1.9,1-3.2,1v0.7C326.8,338.6,326.5,338.8,326.2,338.8 M324.1,336.5c0.1,0,0.2,0.1,0.3,0.1
		C324.3,336.5,324.2,336.5,324.1,336.5 M326.8,331.5v4.9c1.1,0,2-0.3,2.5-0.7c0.6-0.4,0.9-1.1,0.9-1.8c0-0.4-0.1-0.7-0.4-1
		s-0.5-0.5-1-0.7c-0.4-0.2-0.8-0.4-1.3-0.4L326.8,331.5z M329.8,336c-0.1,0.1-0.2,0.2-0.3,0.2c-0.1,0.1-0.3,0.2-0.4,0.3
		c0.2-0.1,0.4-0.2,0.4-0.4C329.7,336.1,329.7,336,329.8,336 M325.7,325.5c-1.1,0-1.8,0.3-2.3,0.6c-0.5,0.4-0.8,1-0.8,1.6
		c0,0.4,0.1,0.7,0.4,1s0.5,0.5,1,0.7c0.4,0.2,0.8,0.4,1.2,0.4c0.2,0.1,0.4,0.1,0.6,0.2V325.5L325.7,325.5z"/>
</g>
<g>
	<g>
		<g>
			<circle class="st3" cx="73.7" cy="118.3" r="46.3"/>
		</g>
		<circle class="st4" cx="73.7" cy="118.3" r="30.3"/>
		<g>
			<g class="st1">
				<path class="st5" d="M85.4,113.5c1.5,0.8,2.6,2,3.4,3.4c0.8,1.5,1.2,3.2,1.2,5.1c0,2-0.5,3.7-1.4,5.3s-2.2,2.7-3.8,3.6
					c-1.7,0.9-3.6,1.3-5.7,1.3c-1.8,0-3.5-0.3-5.3-0.9c-1.7-0.6-3.2-1.4-4.4-2.4c-0.7-0.6-1-1.3-1-2c0-0.6,0.2-1.2,0.5-1.6
					c0.4-0.4,0.8-0.7,1.3-0.7c0.3,0,0.6,0.1,0.8,0.2c0.3,0.1,0.6,0.3,0.9,0.5c1.2,0.8,2.3,1.4,3.4,1.9c1.1,0.4,2.3,0.6,3.5,0.6
					c1.9,0,3.4-0.5,4.4-1.4c1-1,1.5-2.3,1.5-4.1c0-1.7-0.5-3-1.5-4s-2.4-1.5-4.2-1.5c-1.1,0-2.1,0.2-3,0.5s-1.8,0.8-2.7,1.6
					c-0.5,0.4-1.1,0.6-1.7,0.6s-1.1-0.2-1.5-0.5s-0.6-0.8-0.6-1.4v-13.7c0-0.8,0.2-1.4,0.7-1.9s1.1-0.7,1.9-0.7h14.4
					c1.7,0,2.6,0.7,2.6,2.2c0,1.4-0.9,2.2-2.6,2.2H74.9v8.2c1.5-1,3.3-1.6,5.4-1.6C82.2,112.2,83.9,112.7,85.4,113.5z"/>
			</g>
		</g>
	</g>
	<g>
		<g>
			<ellipse class="st6" cx="73.7" cy="118.3" rx="37.2" ry="37.2"/>
		</g>
	</g>
	<path id="XMLID_89_" class="st5" d="M59,128.3c-0.5,0-0.7-0.2-0.7-0.7v-0.9c-1.4-0.2-2.3-0.5-3.4-1.4v0.9c0,0.5-0.2,0.7-0.7,0.7
		s-0.7-0.2-0.7-0.7V122c0-0.5,0.2-0.7,0.7-0.7s0.7,0.2,0.7,0.7v1.5c0.7,0.8,1.3,1,2.5,1.5c0.3,0.1,0.6,0.2,1,0.2v-6.5
		c-1.4-0.3-2.3-0.7-3-1s-1.3-0.8-1.7-1.4s-0.6-1.1-0.6-2c0-1.4,0.5-2.4,1.4-3.2c0.8-0.8,2.2-1.1,3.9-1.3v-0.9c0-0.5,0.2-0.7,0.7-0.7
		s0.7,0.2,0.7,0.7v1c1.3,0.2,2.3,0.7,3.2,1.3c0.2,0.1,0.1,0.3,0.2,0.5v-0.9c0-0.5,0.2-0.7,0.7-0.7c0.5,0,0.7,0.2,0.7,0.7v4.2
		c0,0.5-0.2,0.7-0.7,0.7c-0.5,0-0.7-0.2-0.7-0.7v-1.5c-0.8-0.8-1.5-1.5-2.5-2c-0.2-0.1-0.6-0.2-0.9-0.2v6.2c0.2,0,0.6,0.1,1,0.2
		c0.8,0.2,1.6,0.5,2.3,0.8s1.3,0.8,1.7,1.4c0.5,0.6,0.6,1.3,0.6,2c0,1.5-0.5,2.6-1.5,3.4c-0.9,0.8-2.4,1.3-4.1,1.3v0.9
		C59.7,128,59.4,128.3,59,128.3 M56.3,125.3c0.1,0,0.2,0.1,0.3,0.1C56.5,125.4,56.4,125.3,56.3,125.3 M59.7,119v6.3
		c1.4,0,2.5-0.3,3.2-0.9c0.8-0.6,1.1-1.4,1.1-2.3c0-0.5-0.1-0.9-0.5-1.3c-0.3-0.3-0.7-0.7-1.3-0.9c-0.5-0.2-1-0.5-1.6-0.6L59.7,119z
		 M63.6,124.7c-0.1,0.1-0.2,0.2-0.3,0.2c-0.1,0.1-0.3,0.2-0.6,0.3c0.2-0.1,0.5-0.2,0.6-0.5C63.5,124.8,63.6,124.7,63.6,124.7
		 M58.3,111.3c-1.4,0-2.3,0.3-3,0.8c-0.7,0.6-1,1.3-1,2.1c0,0.5,0.1,0.9,0.5,1.3c0.3,0.3,0.7,0.7,1.3,0.9c0.5,0.2,1,0.5,1.5,0.6
		c0.2,0.1,0.6,0.1,0.8,0.2L58.3,111.3L58.3,111.3z"/>
</g>
<g>
	<g>
		<g>
			<g>
				<path class="st7" d="M44.4,244.4c-5.6,0.9-10.8-2.9-11.7-8.5l-9.6-60.6c-0.9-5.6,2.9-10.8,8.5-11.7l110.1-17.4
					c5.6-0.9,10.8,2.9,11.7,8.5l9.6,60.7c0.9,5.6-2.9,10.8-8.5,11.7L44.4,244.5L44.4,244.4z"/>
			</g>
			<g>
				<path class="st8" d="M142,218.7l-88.1,13.9c-0.9-6-6.7-10.2-12.7-9.2l-6.1-38.5c6-0.9,10.2-6.7,9.2-12.7l88.1-13.9
					c0.9,6,6.7,10.2,12.7,9.2l6.1,38.5C145.2,206.9,141.1,212.6,142,218.7z"/>
			</g>
		</g>
		<g>
			<ellipse transform="matrix(0.9877 -0.1562 0.1562 0.9877 -27.0296 7.7797)" class="st9" cx="36" cy="175.8" rx="4.5" ry="4.5"/>
			<circle class="st9" cx="142" cy="159.1" r="4.5"/>
		</g>
		<g>
			
				<ellipse transform="matrix(0.9877 -0.1562 0.1562 0.9877 -35.7157 9.8622)" class="st9" cx="44.9" cy="232.1" rx="4.5" ry="4.5"/>
			<circle class="st9" cx="150.9" cy="215.4" r="4.5"/>
		</g>
		<g>
			
				<ellipse transform="matrix(0.9877 -0.1562 0.1562 0.9877 -27.6998 10.3799)" class="st7" cx="52.2" cy="181.4" rx="2.5" ry="2.5"/>
		</g>
		<g>
			
				<ellipse transform="matrix(0.9959 -9.017905e-02 9.017905e-02 0.9959 -16.2833 6.2219)" class="st7" cx="60.7" cy="183.3" rx="2.5" ry="2.5"/>
		</g>
		<g>
			
				<ellipse transform="matrix(0.9877 -0.1562 0.1562 0.9877 -25.1962 20.5914)" class="st7" cx="118.4" cy="170.6" rx="2.5" ry="2.5"/>
		</g>
		<g>
			
				<ellipse transform="matrix(0.9877 -0.1562 0.1562 0.9877 -29.4395 9.0598)" class="st7" cx="42.9" cy="191.8" rx="2.5" ry="2.5"/>
		</g>
		<g>
			
				<ellipse transform="matrix(0.9877 -0.1562 0.1562 0.9877 -34.3348 11.7674)" class="st7" cx="57.7" cy="224.3" rx="2.5" ry="2.5"/>
		</g>
		<g>
			
				<ellipse transform="matrix(0.9959 -9.017944e-02 9.017944e-02 0.9959 -19.2936 6.8489)" class="st7" cx="66.1" cy="216.9" rx="2.5" ry="2.5"/>
		</g>
		<g>
			
				<ellipse transform="matrix(0.9877 -0.1562 0.1562 0.9877 -33.4857 10.0668)" class="st7" cx="47.3" cy="218.1" rx="2.5" ry="2.5"/>
		</g>
		<g>
			
				<ellipse transform="matrix(0.9877 -0.1562 0.1562 0.9877 -31.7051 9.3997)" class="st7" cx="43.9" cy="206.4" rx="2.5" ry="2.5"/>
		</g>
		<g>
			
				<ellipse transform="matrix(0.9877 -0.1562 0.1562 0.9877 -25.1814 22.6578)" class="st7" cx="131.5" cy="171.5" rx="2.5" ry="2.5"/>
		</g>
		<g>
			
				<ellipse transform="matrix(0.9877 -0.1562 0.1562 0.9877 -27.6328 22.3769)" class="st7" cx="128.5" cy="187" rx="2.5" ry="2.5"/>
		</g>
		<g>
			
				<ellipse transform="matrix(0.9877 -0.1562 0.1562 0.9877 -26.4071 24.0975)" class="st7" cx="140.1" cy="180" rx="2.5" ry="2.5"/>
		</g>
		<g>
			<ellipse transform="matrix(0.9877 -0.1562 0.1562 0.9877 -28.821 24.4359)" class="st7" cx="141" cy="195.6" rx="2.5" ry="2.5"/>
		</g>
		<g>
			
				<ellipse transform="matrix(0.9877 -0.1562 0.1562 0.9877 -29.3959 23.0398)" class="st7" cx="131.9" cy="198.5" rx="2.5" ry="2.5"/>
		</g>
		<g>
			
				<ellipse transform="matrix(0.9877 -0.1562 0.1562 0.9877 -31.1586 21.8545)" class="st7" cx="123.4" cy="209.1" rx="2.5" ry="2.5"/>
		</g>
		<g>
			
				<ellipse transform="matrix(0.9379 -0.3469 0.3469 0.9379 -64.4854 60.1641)" class="st7" cx="135.8" cy="210.2" rx="2.5" ry="2.5"/>
		</g>
		<path id="XMLID_88_" class="st0" d="M56.6,212.8c-0.5,0.1-0.8-0.2-0.9-0.7l-0.2-1c-1.6,0-2.6-0.1-4-0.9l0.2,1
			c0.1,0.5-0.2,0.8-0.7,0.9c-0.5,0.1-0.8-0.2-0.9-0.7l-0.7-4.6c-0.1-0.5,0.2-0.8,0.7-0.9c0.5-0.1,0.8,0.2,0.9,0.7l0.3,1.7
			c0.9,0.8,1.5,0.9,3,1.3c0.4,0.1,0.7,0.1,1.1,0.2l-1.1-7.2c-1.5-0.2-2.6-0.4-3.4-0.6c-0.8-0.2-1.5-0.7-2-1.2s-0.9-1.1-1-1.9
			c-0.2-1.5,0-2.7,0.9-3.7c0.8-0.9,2.2-1.6,4.1-2l-0.1-0.9c-0.1-0.5,0.2-0.8,0.7-0.9c0.5-0.1,0.8,0.2,0.9,0.7l0.2,1
			c1.4,0,2.6,0.3,3.7,0.8c0.3,0.2,0.2,0.3,0.4,0.4l-0.2-1c-0.1-0.5,0.2-0.8,0.7-0.9c0.5-0.1,0.8,0.2,0.9,0.7l0.7,4.6
			c0.1,0.5-0.2,0.8-0.7,0.9c-0.5,0.1-0.8-0.2-0.9-0.7l-0.3-1.6c-0.9-0.8-1.9-1.4-3.2-1.7c-0.4-0.1-0.7-0.1-1.1-0.2l1.1,6.7
			c0.2,0.1,0.6,0,1.2,0.2c0.9,0.1,1.9,0.3,2.6,0.5c0.8,0.2,1.5,0.7,2,1.2s0.9,1.3,1,2c0.3,1.6-0.1,2.9-1.1,4
			c-0.9,1.1-2.4,1.8-4.3,2.1l0.1,0.9C57.3,212.4,57,212.7,56.6,212.8 M53.1,210.1c0.1,0.1,0.2,0.1,0.4,0.1
			C53.5,210.1,53.2,210,53.1,210.1 M55.8,202.7l1.1,6.8c1.5-0.2,2.7-0.8,3.4-1.6c0.7-0.8,1-1.7,0.9-2.7c-0.1-0.6-0.3-1-0.7-1.3
			c-0.4-0.4-0.9-0.7-1.5-0.8c-0.6-0.1-1.2-0.3-1.8-0.3L55.8,202.7z M60.9,208.1c-0.1,0.1-0.2,0.3-0.3,0.4c-0.2,0.1-0.3,0.3-0.5,0.4
			c0.2-0.1,0.4-0.3,0.6-0.6C60.8,208.2,61,208.2,60.9,208.1 M53,194.4c-1.5,0.2-2.4,0.7-3,1.4c-0.6,0.7-0.8,1.5-0.7,2.4
			c0.1,0.6,0.3,1,0.7,1.3c0.4,0.4,0.9,0.7,1.5,0.8c0.6,0.1,1.2,0.3,1.7,0.3c0.4,0.1,0.6,0.1,0.8,0.1L53,194.4L53,194.4z"/>
		<g id="XMLID_69_">
			<g id="XMLID_86_">
				<path id="XMLID_87_" class="st10" d="M97.2,224.7c-1.2,0.2-2.1,1.4-1.9,2.6l1.1-0.2c-0.1-0.7,0.3-1.2,1-1.3s1.2,0.3,1.3,1
					l1.1-0.2C99.7,225.3,98.5,224.5,97.2,224.7z"/>
			</g>
			<g id="XMLID_84_">
				<path id="XMLID_85_" class="st10" d="M91.3,225.6c-1.2,0.2-2.1,1.4-1.9,2.6l1.1-0.2c-0.1-0.7,0.3-1.2,1-1.3
					c0.7-0.1,1.2,0.3,1.3,1l1.1-0.2C93.8,226.3,92.6,225.4,91.3,225.6z"/>
			</g>
			<g id="XMLID_82_">
				<path id="XMLID_83_" class="st10" d="M103.2,223.7c-1.2,0.2-2.1,1.4-1.9,2.6l1.1-0.2c-0.1-0.7,0.3-1.2,1-1.3
					c0.7-0.1,1.2,0.3,1.3,1l1.1-0.2C105.7,224.4,104.5,223.5,103.2,223.7z"/>
			</g>
			<g id="XMLID_80_">
				<path id="XMLID_81_" class="st10" d="M79.4,227.5c-1.2,0.2-2.1,1.4-1.9,2.6l1.1-0.2c-0.1-0.7,0.3-1.2,1-1.3s1.2,0.3,1.3,1
					l1.1-0.2C81.9,228.1,80.7,227.3,79.4,227.5z"/>
			</g>
			<g id="XMLID_78_">
				<path id="XMLID_79_" class="st10" d="M73.4,228.4c-1.2,0.2-2.1,1.4-1.9,2.6l1.1-0.2c-0.1-0.7,0.3-1.2,1-1.3
					c0.7-0.1,1.2,0.3,1.3,1l1.1-0.2C75.9,229.1,74.7,228.2,73.4,228.4z"/>
			</g>
			<g id="XMLID_76_">
				<path id="XMLID_77_" class="st10" d="M85.3,226.6c-1.2,0.2-2.1,1.4-1.9,2.6l1.1-0.2c-0.1-0.7,0.3-1.2,1-1.3
					c0.7-0.1,1.2,0.3,1.3,1l1.1-0.2C87.8,227.2,86.6,226.4,85.3,226.6z"/>
			</g>
			<g id="XMLID_74_">
				<path id="XMLID_75_" class="st10" d="M115.1,221.8c-1.2,0.2-2.1,1.4-1.9,2.6l1.1-0.2c-0.1-0.7,0.3-1.2,1-1.3
					c0.7-0.1,1.2,0.3,1.3,1l1.1-0.2C117.6,222.5,116.4,221.6,115.1,221.8z"/>
			</g>
			<g id="XMLID_72_">
				<path id="XMLID_73_" class="st10" d="M109.1,222.8c-1.2,0.2-2.1,1.4-1.9,2.6l1.1-0.2c-0.1-0.7,0.3-1.2,1-1.3
					c0.7-0.1,1.2,0.3,1.3,1l1.1-0.2C111.5,223.5,110.4,222.6,109.1,222.8z"/>
			</g>
			<g id="XMLID_70_">
				<path id="XMLID_71_" class="st10" d="M121,220.9c-1.2,0.2-2.1,1.4-1.9,2.6l1.1-0.2c-0.1-0.7,0.3-1.2,1-1.3
					c0.7-0.1,1.2,0.3,1.3,1l1.1-0.2C123.4,221.6,122.3,220.7,121,220.9z"/>
			</g>
		</g>
		<g id="XMLID_50_">
			<g id="XMLID_67_">
				<path id="XMLID_68_" class="st10" d="M88,166.1c1.2-0.2,2.1-1.4,1.9-2.6l-1.1,0.2c0.1,0.7-0.3,1.2-1,1.3c-0.7,0.1-1.2-0.3-1.3-1
					l-1.1,0.2C85.5,165.4,86.7,166.3,88,166.1z"/>
			</g>
			<g id="XMLID_65_">
				<path id="XMLID_66_" class="st10" d="M94,165.2c1.2-0.2,2.1-1.4,1.9-2.6l-1.1,0.2c0.1,0.7-0.3,1.2-1,1.3s-1.2-0.3-1.3-1
					l-1.1,0.2C91.5,164.5,92.7,165.4,94,165.2z"/>
			</g>
			<g id="XMLID_63_">
				<path id="XMLID_64_" class="st10" d="M82.1,167c1.2-0.2,2.1-1.4,1.9-2.6l-1.1,0.2c0.1,0.7-0.3,1.2-1,1.3c-0.7,0.1-1.2-0.3-1.3-1
					l-1.1,0.2C79.6,166.4,80.8,167.2,82.1,167z"/>
			</g>
			<g id="XMLID_61_">
				<path id="XMLID_62_" class="st10" d="M105.9,163.3c1.2-0.2,2.1-1.4,1.9-2.6l-1.1,0.2c0.1,0.7-0.3,1.2-1,1.3
					c-0.7,0.1-1.2-0.3-1.3-1l-1.1,0.2C103.4,162.6,104.6,163.5,105.9,163.3z"/>
			</g>
			<g id="XMLID_59_">
				<path id="XMLID_60_" class="st10" d="M111.8,162.3c1.2-0.2,2.1-1.4,1.9-2.6l-1.1,0.2c0.1,0.7-0.3,1.2-1,1.3
					c-0.7,0.1-1.2-0.3-1.3-1l-1.1,0.2C109.3,161.7,110.5,162.5,111.8,162.3z"/>
			</g>
			<g id="XMLID_57_">
				<path id="XMLID_58_" class="st10" d="M99.9,164.2c1.2-0.2,2.1-1.4,1.9-2.6l-1.1,0.2c0.1,0.7-0.3,1.2-1,1.3
					c-0.7,0.1-1.2-0.3-1.3-1l-1.1,0.2C97.4,163.6,98.6,164.4,99.9,164.2z"/>
			</g>
			<g id="XMLID_55_">
				<path id="XMLID_56_" class="st10" d="M70.2,168.9c1.2-0.2,2.1-1.4,1.9-2.6l-1.1,0.2c0.1,0.7-0.3,1.2-1,1.3
					c-0.7,0.1-1.2-0.3-1.3-1l-1.1,0.2C67.8,168.3,68.9,169.1,70.2,168.9z"/>
			</g>
			<g id="XMLID_53_">
				<path id="XMLID_54_" class="st10" d="M76.1,168c1.2-0.2,2.1-1.4,1.9-2.6l-1.1,0.2c0.1,0.7-0.3,1.2-1,1.3s-1.2-0.3-1.3-1
					l-1.1,0.2C73.6,167.3,74.8,168.2,76.1,168z"/>
			</g>
			<g id="XMLID_51_">
				<path id="XMLID_52_" class="st10" d="M64.2,169.9c1.2-0.2,2.1-1.4,1.9-2.6l-1.1,0.2c0.1,0.7-0.3,1.2-1,1.3
					c-0.7,0.1-1.2-0.3-1.3-1l-1.1,0.2C61.7,169.2,62.9,170.1,64.2,169.9z"/>
			</g>
		</g>
	</g>
	<circle class="st9" cx="92.9" cy="194.8" r="28.1"/>
	<g>
		
			<ellipse transform="matrix(0.9877 -0.1562 0.1562 0.9877 -29.2973 16.8988)" class="st8" cx="92.9" cy="194.8" rx="24.3" ry="24.3"/>
	</g>
	<g>
		<g class="st1">
			<path class="st0" d="M93.6,205.2c0.2,1.3-0.4,2.1-1.9,2.3l-14.1,2.2c-0.6,0.1-1.2,0-1.6-0.3c-0.4-0.3-0.7-0.8-0.8-1.3
				c-0.1-0.7,0.1-1.5,0.5-2.1l7-10.4c0.9-1.3,1.5-2.5,1.8-3.5c0.3-1,0.4-2,0.3-3c-0.2-1.2-0.7-2-1.4-2.5c-0.8-0.5-1.8-0.7-3-0.5
				c-1,0.2-2,0.5-2.9,1c-0.9,0.5-1.8,1.2-2.6,2c-0.2,0.2-0.4,0.4-0.7,0.5s-0.5,0.2-0.7,0.3c-0.4,0.1-0.8-0.1-1.2-0.4
				c-0.4-0.3-0.6-0.8-0.7-1.3c-0.1-0.4,0-0.7,0.1-1c0.1-0.3,0.3-0.6,0.5-0.9c1-1,2.1-1.9,3.5-2.7c1.4-0.7,2.8-1.2,4.3-1.5
				c2.5-0.4,4.7-0.1,6.4,1c1.7,1,2.8,2.7,3.1,4.8c0.2,1.5,0.1,3-0.3,4.4c-0.4,1.4-1.3,3.1-2.6,5l-5.3,7.8l9.8-1.5
				C92.5,203.4,93.4,203.9,93.6,205.2z"/>
			<path class="st0" d="M97.9,203.4c-2-2-3.3-5.2-4-9.6c-0.7-4.4-0.4-7.8,0.9-10.4c1.3-2.5,3.5-4.1,6.5-4.6s5.6,0.3,7.6,2.3
				c2,2,3.3,5.2,4,9.6c0.7,4.4,0.4,7.8-0.9,10.4c-1.3,2.6-3.5,4.1-6.5,4.6S99.9,205.4,97.9,203.4z M108.3,199c0.5-1.7,0.5-4.2,0-7.6
				c-0.5-3.4-1.3-5.8-2.3-7.2c-1-1.4-2.4-2-4-1.7c-1.7,0.3-2.8,1.2-3.3,2.9c-0.5,1.7-0.5,4.2,0,7.5c0.5,3.4,1.3,5.8,2.3,7.2
				c1,1.4,2.4,2,4,1.7C106.6,201.7,107.7,200.7,108.3,199z"/>
		</g>
	</g>
</g>
<g>
	<g>
		<g>
			<circle class="st3" cx="107.1" cy="272.1" r="46.3"/>
		</g>
		<circle class="st4" cx="107.1" cy="272.1" r="30.3"/>
		<g>
			<g class="st1">
				<path class="st5" d="M118.8,267.2c1.5,0.8,2.6,2,3.4,3.4c0.8,1.5,1.2,3.2,1.2,5.1c0,2-0.5,3.7-1.4,5.3s-2.2,2.7-3.8,3.6
					c-1.7,0.9-3.6,1.3-5.7,1.3c-1.8,0-3.5-0.3-5.3-0.9c-1.7-0.6-3.2-1.4-4.4-2.4c-0.7-0.6-1-1.3-1-2c0-0.6,0.2-1.2,0.5-1.6
					c0.4-0.4,0.8-0.7,1.3-0.7c0.3,0,0.6,0.1,0.8,0.2c0.3,0.1,0.6,0.3,0.9,0.5c1.2,0.8,2.3,1.4,3.4,1.9c1.1,0.4,2.3,0.6,3.5,0.6
					c1.9,0,3.4-0.5,4.4-1.4c1-1,1.5-2.3,1.5-4.1c0-1.7-0.5-3-1.5-4s-2.4-1.5-4.2-1.5c-1.1,0-2.1,0.2-3,0.5c-0.9,0.3-1.8,0.8-2.7,1.6
					c-0.5,0.4-1.1,0.6-1.7,0.6s-1.1-0.2-1.5-0.5c-0.4-0.3-0.6-0.8-0.6-1.4v-13.5c0-0.8,0.2-1.4,0.7-1.9c0.5-0.5,1.1-0.7,1.9-0.7H120
					c1.7,0,2.6,0.7,2.6,2.2c0,1.4-0.9,2.2-2.6,2.2h-11.6v8.2c1.5-1,3.3-1.6,5.4-1.6C115.7,266,117.4,266.4,118.8,267.2z"/>
			</g>
		</g>
	</g>
	<g>
		<g>
			<ellipse class="st6" cx="107.1" cy="272.1" rx="37.2" ry="37.2"/>
		</g>
	</g>
	<path id="XMLID_49_" class="st5" d="M92.4,282.1c-0.5,0-0.7-0.2-0.7-0.7v-0.9c-1.4-0.2-2.3-0.5-3.4-1.4v0.9c0,0.5-0.2,0.7-0.7,0.7
		s-0.7-0.2-0.7-0.7v-4.2c0-0.5,0.2-0.7,0.7-0.7s0.7,0.2,0.7,0.7v1.5c0.7,0.8,1.3,1,2.5,1.5c0.3,0.1,0.6,0.2,1,0.2v-6.5
		c-1.4-0.3-2.3-0.7-3-1c-0.7-0.3-1.3-0.8-1.7-1.4c-0.4-0.6-0.6-1.1-0.6-2c0-1.4,0.5-2.4,1.4-3.2c0.8-0.8,2.2-1.1,3.9-1.3v-0.9
		c0-0.5,0.2-0.7,0.7-0.7s0.7,0.2,0.7,0.7v1c1.3,0.2,2.3,0.7,3.2,1.3c0.2,0.1,0.1,0.3,0.2,0.5v-0.9c0-0.5,0.2-0.7,0.7-0.7
		s0.7,0.2,0.7,0.7v4.2c0,0.5-0.2,0.7-0.7,0.7s-0.7-0.2-0.7-0.7v-1.5c-0.8-0.8-1.5-1.5-2.5-2c-0.2-0.1-0.6-0.2-0.9-0.2v6.2
		c0.2,0,0.6,0.1,1,0.2c0.8,0.2,1.6,0.5,2.3,0.8c0.7,0.3,1.3,0.8,1.7,1.4c0.5,0.6,0.6,1.3,0.6,2c0,1.5-0.5,2.6-1.5,3.4
		c-0.9,0.8-2.4,1.3-4.1,1.3v0.9C93.1,281.8,92.8,282.1,92.4,282.1 M89.7,279.1c0.1,0,0.2,0.1,0.3,0.1
		C89.9,279.2,89.8,279.1,89.7,279.1 M93.1,272.8v6.3c1.4,0,2.5-0.3,3.2-0.9c0.8-0.6,1.1-1.4,1.1-2.3c0-0.5-0.1-0.9-0.5-1.3
		c-0.3-0.3-0.7-0.7-1.3-0.9c-0.5-0.2-1-0.5-1.6-0.6L93.1,272.8z M97,278.5c-0.1,0.1-0.2,0.2-0.3,0.2c-0.1,0.1-0.3,0.2-0.6,0.3
		c0.2-0.1,0.5-0.2,0.6-0.5C96.9,278.6,97,278.5,97,278.5 M91.7,265.1c-1.4,0-2.3,0.3-3,0.8c-0.7,0.6-1,1.3-1,2.1
		c0,0.5,0.1,0.9,0.5,1.3c0.3,0.3,0.7,0.7,1.3,0.9c0.5,0.2,1,0.5,1.5,0.6c0.2,0.1,0.6,0.1,0.8,0.2L91.7,265.1L91.7,265.1z"/>
</g>
<g>
	<g>
		<g>
			<g>
				<path class="st11" d="M277.3,251.1c-19.8,0-36-16.2-36-36s16.2-36,36-36c19.8,0,36,16.2,36,36S297.3,251.1,277.3,251.1z"/>
			</g>
			<circle class="st4" cx="277.3" cy="215.1" r="23.6"/>
			<g>
				<g>
					<g class="st1">
						<path class="st5" d="M289.9,223.8c0,1.2-0.7,1.8-2,1.8h-12.8c-0.6,0-1-0.2-1.4-0.5c-0.3-0.3-0.5-0.8-0.5-1.3
							c0-0.7,0.3-1.3,0.8-1.8l7.7-8.2c0.9-1,1.6-2,2.1-2.8c0.4-0.9,0.7-1.7,0.7-2.6c0-1.1-0.3-1.9-0.9-2.4c-0.6-0.6-1.5-0.8-2.6-0.8
							c-0.9,0-1.8,0.2-2.7,0.5c-0.9,0.3-1.7,0.8-2.6,1.4c-0.2,0.2-0.4,0.3-0.7,0.4c-0.2,0.1-0.4,0.2-0.7,0.2c-0.4,0-0.7-0.2-1-0.5
							c-0.3-0.4-0.4-0.8-0.4-1.3c0-0.3,0.1-0.6,0.2-0.9c0.1-0.2,0.3-0.5,0.6-0.7c1-0.8,2.1-1.4,3.5-1.9c1.3-0.5,2.6-0.7,4-0.7
							c2.3,0,4.2,0.6,5.5,1.7c1.4,1.2,2.1,2.7,2.1,4.7c0,1.4-0.3,2.7-0.9,3.9c-0.6,1.2-1.6,2.5-3,4L279,222h8.9
							C289.2,222,289.9,222.6,289.9,223.8z"/>
					</g>
				</g>
			</g>
		</g>
		<g>
			<g>
				
					<ellipse transform="matrix(0.9871 -0.1602 0.1602 0.9871 -30.871 47.2073)" class="st12" cx="277.3" cy="215.1" rx="28.9" ry="28.9"/>
			</g>
		</g>
	</g>
	<path id="XMLID_48_" class="st5" d="M265.9,222.8c-0.4,0-0.5-0.2-0.5-0.5v-0.7c-1.1-0.2-1.8-0.4-2.7-1.1v0.7c0,0.4-0.2,0.5-0.5,0.5
		c-0.4,0-0.5-0.2-0.5-0.5v-3.3c0-0.4,0.2-0.5,0.5-0.5c0.4,0,0.5,0.2,0.5,0.5v1.2c0.5,0.6,1,0.8,2,1.2c0.3,0.1,0.4,0.2,0.8,0.2v-5.1
		c-1.1-0.3-1.8-0.5-2.3-0.8c-0.5-0.3-1-0.6-1.3-1.1c-0.4-0.4-0.4-0.9-0.4-1.5c0-1.1,0.4-1.9,1.1-2.5c0.6-0.6,1.7-0.9,3-1v-0.7
		c0-0.4,0.2-0.5,0.5-0.5c0.4,0,0.5,0.2,0.5,0.5v0.8c1,0.2,1.8,0.5,2.5,1c0.2,0.1,0.1,0.3,0.2,0.4v-0.7c0-0.4,0.2-0.5,0.5-0.5
		c0.4,0,0.5,0.2,0.5,0.5v3.3c0,0.4-0.2,0.5-0.5,0.5c-0.4,0-0.5-0.2-0.5-0.5v-1.2c-0.6-0.6-1.2-1.2-2-1.5c-0.2-0.1-0.4-0.2-0.7-0.2
		v4.8c0.2,0,0.4,0.1,0.8,0.2c0.6,0.2,1.3,0.4,1.8,0.6c0.5,0.3,1,0.6,1.3,1.1s0.4,1,0.4,1.5c0,1.2-0.4,2.1-1.2,2.7
		c-0.7,0.6-1.9,1-3.2,1v0.7C266.4,222.7,266.2,222.8,265.9,222.8 M263.8,220.5c0.1,0,0.2,0.1,0.3,0.1
		C263.9,220.6,263.8,220.5,263.8,220.5 M266.4,215.6v4.9c1.1,0,2-0.3,2.5-0.7c0.6-0.4,0.9-1.1,0.9-1.8c0-0.4-0.1-0.7-0.4-1
		s-0.5-0.5-1-0.7c-0.4-0.2-0.8-0.4-1.3-0.4L266.4,215.6z M269.5,220.1c-0.1,0.1-0.2,0.2-0.3,0.2c-0.1,0.1-0.3,0.2-0.4,0.3
		c0.2-0.1,0.4-0.2,0.4-0.4C269.4,220.2,269.4,220.1,269.5,220.1 M265.4,209.6c-1.1,0-1.8,0.3-2.3,0.6c-0.5,0.4-0.8,1-0.8,1.6
		c0,0.4,0.1,0.7,0.4,1c0.3,0.3,0.5,0.5,1,0.7c0.4,0.2,0.8,0.4,1.2,0.4c0.2,0.1,0.4,0.1,0.6,0.2V209.6L265.4,209.6z"/>
</g>
<g>
	<g>
		<g>
			<g>
				<path class="st3" d="M334.8,292.2c-25.8,0-46.9-21.1-46.9-46.9s21.1-46.9,46.9-46.9s46.9,21.1,46.9,46.9
					S360.7,292.2,334.8,292.2z"/>
			</g>
			<circle class="st13" cx="334.8" cy="245.3" r="33.8"/>
		</g>
		<g>
			<g>
				<ellipse class="st14" cx="334.8" cy="245.3" rx="37.8" ry="37.8"/>
			</g>
		</g>
		<g>
			<g class="st1">
				<path class="st15" d="M337.9,255.7c0,1.4-0.8,2.2-2.5,2.2h-13.8c-1.7,0-2.5-0.7-2.5-2.2c0-1.4,0.8-2.1,2.5-2.1h4.2V235l-3.9,2.4
					c-0.4,0.2-0.7,0.3-1,0.3c-0.6,0-1.1-0.2-1.4-0.7c-0.4-0.5-0.6-1-0.6-1.6c0-0.8,0.4-1.4,1.1-1.8l6.3-3.9c0.8-0.5,1.6-0.7,2.3-0.7
					c0.8,0,1.4,0.2,1.8,0.7s0.7,1.1,0.7,1.9v22.1h4.3C337.1,253.6,337.9,254.3,337.9,255.7z"/>
				<path class="st15" d="M342.8,254.4c-1.8-2.5-2.7-6.2-2.7-11s0.9-8.4,2.7-11c1.8-2.5,4.4-3.8,7.8-3.8s6,1.3,7.8,3.8
					s2.7,6.2,2.7,11s-0.9,8.5-2.7,11c-1.8,2.5-4.4,3.8-7.8,3.8S344.6,256.9,342.8,254.4z M354.7,251.5c0.8-1.7,1.3-4.4,1.3-8.1
					s-0.4-6.4-1.3-8.1c-0.8-1.7-2.2-2.5-4-2.5s-3.2,0.8-4,2.5s-1.3,4.4-1.3,8.1s0.4,6.4,1.3,8.1c0.8,1.7,2.2,2.6,4,2.6
					S353.8,253.2,354.7,251.5z"/>
			</g>
		</g>
	</g>
	<path id="XMLID_47_" class="st15" d="M313,254.3c-0.3,0-0.6-0.2-0.6-0.6V253c-1-0.2-1.7-0.3-2.7-1v0.7c0,0.3-0.2,0.6-0.6,0.6
		c-0.3,0-0.6-0.2-0.6-0.6v-3.4c0-0.3,0.2-0.6,0.6-0.6c0.3,0,0.6,0.2,0.6,0.6v1.2c0.6,0.6,0.9,0.8,2,1.2c0.2,0.1,0.5,0.2,0.8,0.2
		v-5.1c-1-0.2-1.7-0.6-2.3-0.8c-0.6-0.2-0.9-0.6-1.4-1s-0.5-0.9-0.5-1.5c0-1,0.3-1.9,1-2.6c0.6-0.6,1.7-0.9,3-0.9v-0.7
		c0-0.3,0.2-0.6,0.6-0.6c0.3,0,0.6,0.2,0.6,0.6v0.8c0.9,0.2,1.7,0.6,2.6,0.9c0.2,0.1,0.1,0.2,0.2,0.3v-0.7c0-0.3,0.2-0.6,0.6-0.6
		c0.3,0,0.6,0.2,0.6,0.6v3.4c0,0.3-0.2,0.6-0.6,0.6c-0.3,0-0.6-0.2-0.6-0.6v-1.2c-0.6-0.6-1.2-1.2-2-1.5c-0.2-0.1-0.5-0.2-0.7-0.2
		v4.9c0.2,0,0.5,0.1,0.8,0.2c0.6,0.2,1.3,0.3,1.7,0.6c0.5,0.2,0.9,0.6,1.4,1c0.3,0.5,0.5,0.9,0.5,1.5c0,1.2-0.3,2.1-1.2,2.7
		c-0.7,0.6-1.9,0.9-3.3,0.9v0.7C313.4,254,313.2,254.3,313,254.3 M310.8,251.9c0.1,0,0.2,0.1,0.2,0.1
		C311,251.9,310.9,251.9,310.8,251.9 M313.4,246.9v4.9c1,0,2-0.2,2.6-0.7s0.9-1,0.9-1.7c0-0.3-0.1-0.7-0.3-0.9
		c-0.2-0.2-0.6-0.6-0.9-0.7c-0.3-0.2-0.8-0.3-1.3-0.5L313.4,246.9z M316.5,251.5c-0.1,0.1-0.2,0.2-0.2,0.2c-0.1,0.1-0.2,0.2-0.5,0.2
		c0.2-0.1,0.3-0.2,0.5-0.3C316.5,251.6,316.5,251.5,316.5,251.5 M312.4,240.9c-1,0-1.7,0.2-2.3,0.6c-0.6,0.5-0.8,0.9-0.8,1.6
		c0,0.3,0.1,0.7,0.3,0.9c0.2,0.2,0.6,0.6,0.9,0.7c0.3,0.2,0.8,0.3,1.2,0.5c0.2,0.1,0.5,0.1,0.6,0.2L312.4,240.9L312.4,240.9
		L312.4,240.9z"/>
</g>
<g>
	<g>
		<g>
			<g>
				<path class="st3" d="M287.5,375.5c-25.8,0-46.9-21.1-46.9-46.9s21.1-46.9,46.9-46.9s46.9,21.1,46.9,46.9
					S313.4,375.5,287.5,375.5z"/>
			</g>
			<circle class="st13" cx="287.5" cy="328.6" r="33.8"/>
		</g>
		<g>
			<g>
				<ellipse class="st14" cx="287.5" cy="328.6" rx="37.8" ry="37.8"/>
			</g>
		</g>
		<g>
			<g class="st1">
				<path class="st15" d="M290.6,339c0,1.4-0.8,2.2-2.5,2.2h-13.8c-1.7,0-2.5-0.7-2.5-2.2c0-1.4,0.8-2.1,2.5-2.1h4.2v-18.6l-3.9,2.4
					c-0.4,0.2-0.7,0.3-1,0.3c-0.6,0-1.1-0.2-1.4-0.7c-0.4-0.5-0.6-1-0.6-1.6c0-0.8,0.4-1.4,1.1-1.8l6.3-3.9c0.8-0.5,1.6-0.7,2.3-0.7
					c0.8,0,1.4,0.2,1.8,0.7s0.7,1.1,0.7,1.9V337h4.3C289.8,336.9,290.6,337.6,290.6,339z"/>
				<path class="st15" d="M295.5,337.7c-1.8-2.5-2.7-6.2-2.7-11s0.9-8.4,2.7-11c1.8-2.5,4.4-3.8,7.8-3.8s6,1.3,7.8,3.8
					s2.7,6.2,2.7,11s-0.9,8.5-2.7,11c-1.8,2.5-4.4,3.8-7.8,3.8S297.3,340.2,295.5,337.7z M307.4,334.8c0.8-1.7,1.3-4.4,1.3-8.1
					s-0.4-6.4-1.3-8.1c-0.8-1.7-2.2-2.5-4-2.5s-3.2,0.8-4,2.5s-1.3,4.4-1.3,8.1s0.4,6.4,1.3,8.1c0.8,1.7,2.2,2.6,4,2.6
					S306.5,336.5,307.4,334.8z"/>
			</g>
		</g>
	</g>
	<path id="XMLID_46_" class="st15" d="M265.7,337.6c-0.3,0-0.6-0.2-0.6-0.6v-0.7c-1-0.2-1.7-0.3-2.7-1v0.7c0,0.3-0.2,0.6-0.6,0.6
		c-0.3,0-0.6-0.2-0.6-0.6v-3.4c0-0.3,0.2-0.6,0.6-0.6c0.3,0,0.6,0.2,0.6,0.6v1.2c0.6,0.6,0.9,0.8,2,1.2c0.2,0.1,0.5,0.2,0.8,0.2
		v-5.1c-1-0.2-1.7-0.6-2.3-0.8c-0.6-0.2-0.9-0.6-1.4-1s-0.5-0.9-0.5-1.5c0-1,0.3-1.9,1-2.6c0.6-0.6,1.7-0.9,3-0.9v-0.7
		c0-0.3,0.2-0.6,0.6-0.6c0.3,0,0.6,0.2,0.6,0.6v0.8c0.9,0.2,1.7,0.6,2.6,0.9c0.2,0.1,0.1,0.2,0.2,0.3v-0.7c0-0.3,0.2-0.6,0.6-0.6
		c0.3,0,0.6,0.2,0.6,0.6v3.4c0,0.3-0.2,0.6-0.6,0.6c-0.3,0-0.6-0.2-0.6-0.6v-1.2c-0.6-0.6-1.2-1.2-2-1.5c-0.2-0.1-0.5-0.2-0.7-0.2
		v4.9c0.2,0,0.5,0.1,0.8,0.2c0.6,0.2,1.3,0.3,1.7,0.6c0.5,0.2,0.9,0.6,1.4,1c0.3,0.5,0.5,0.9,0.5,1.5c0,1.2-0.3,2.1-1.2,2.7
		c-0.7,0.6-1.9,0.9-3.3,0.9v0.7C266.1,337.3,265.9,337.6,265.7,337.6 M263.5,335.2c0.1,0,0.2,0.1,0.2,0.1
		C263.7,335.2,263.6,335.2,263.5,335.2 M266.1,330.2v4.9c1,0,2-0.2,2.6-0.7s0.9-1,0.9-1.7c0-0.3-0.1-0.7-0.3-0.9
		c-0.2-0.2-0.6-0.6-0.9-0.7c-0.3-0.2-0.8-0.3-1.3-0.5L266.1,330.2z M269.2,334.8c-0.1,0.1-0.2,0.2-0.2,0.2c-0.1,0.1-0.2,0.2-0.5,0.2
		c0.2-0.1,0.3-0.2,0.5-0.3C269.2,334.9,269.2,334.8,269.2,334.8 M265.1,324.2c-1,0-1.7,0.2-2.3,0.6c-0.6,0.5-0.8,0.9-0.8,1.6
		c0,0.3,0.1,0.7,0.3,0.9c0.2,0.2,0.6,0.6,0.9,0.7c0.3,0.2,0.8,0.3,1.2,0.5c0.2,0.1,0.5,0.1,0.6,0.2L265.1,324.2L265.1,324.2
		L265.1,324.2z"/>
</g>
<g>
	<g>
		<g>
			<g>
				<path class="st11" d="M337.7,367c-19.8,0-36-16.2-36-36s16.2-36,36-36s36,16.2,36,36C373.7,350.8,357.6,367,337.7,367z"/>
			</g>
			<circle class="st4" cx="337.7" cy="331" r="23.6"/>
			<g>
				<g>
					<g class="st1">
						<path class="st5" d="M350.2,339.7c0,1.2-0.7,1.8-2,1.8h-12.8c-0.6,0-1-0.2-1.4-0.5c-0.3-0.3-0.5-0.8-0.5-1.3
							c0-0.7,0.3-1.3,0.8-1.8l7.7-8.2c0.9-1,1.6-2,2.1-2.8c0.4-0.9,0.7-1.7,0.7-2.6c0-1.1-0.3-1.9-0.9-2.4c-0.6-0.6-1.5-0.8-2.6-0.8
							c-0.9,0-1.8,0.2-2.7,0.5c-0.9,0.3-1.7,0.8-2.6,1.4c-0.2,0.2-0.4,0.3-0.7,0.4c-0.2,0.1-0.4,0.2-0.7,0.2c-0.4,0-0.7-0.2-1-0.5
							c-0.3-0.4-0.4-0.8-0.4-1.3c0-0.3,0.1-0.6,0.2-0.9c0.1-0.2,0.3-0.5,0.6-0.7c1-0.8,2.1-1.4,3.5-1.9c1.3-0.5,2.6-0.7,4-0.7
							c2.3,0,4.2,0.6,5.5,1.7c1.4,1.2,2.1,2.7,2.1,4.7c0,1.4-0.3,2.7-0.9,3.9c-0.6,1.2-1.6,2.5-3,4l-5.8,6.2h8.9
							C349.6,338,350.2,338.6,350.2,339.7z"/>
					</g>
				</g>
			</g>
		</g>
		<g>
			<g>
				
					<ellipse transform="matrix(0.9871 -0.1602 0.1602 0.9871 -48.6646 58.3678)" class="st12" cx="337.7" cy="331" rx="28.9" ry="28.9"/>
			</g>
		</g>
	</g>
	<path id="XMLID_8_" class="st5" d="M326.2,338.8c-0.4,0-0.5-0.2-0.5-0.5v-0.7c-1.1-0.2-1.8-0.4-2.7-1.1v0.7c0,0.4-0.2,0.5-0.5,0.5
		c-0.4,0-0.5-0.2-0.5-0.5v-3.3c0-0.4,0.2-0.5,0.5-0.5c0.4,0,0.5,0.2,0.5,0.5v1.2c0.5,0.6,1,0.8,2,1.2c0.3,0.1,0.4,0.2,0.8,0.2v-5.1
		c-1.1-0.3-1.8-0.5-2.3-0.8c-0.5-0.3-1-0.6-1.3-1.1c-0.4-0.4-0.4-0.9-0.4-1.5c0-1.1,0.4-1.9,1.1-2.5c0.6-0.6,1.7-0.9,3-1v-0.7
		c0-0.4,0.2-0.5,0.5-0.5c0.4,0,0.5,0.2,0.5,0.5v0.8c1,0.2,1.8,0.5,2.5,1c0.2,0.1,0.1,0.3,0.2,0.4v-0.7c0-0.4,0.2-0.5,0.5-0.5
		c0.4,0,0.5,0.2,0.5,0.5v3.3c0,0.4-0.2,0.5-0.5,0.5c-0.4,0-0.5-0.2-0.5-0.5v-1.2c-0.6-0.6-1.2-1.2-2-1.5c-0.2-0.1-0.4-0.2-0.7-0.2
		v4.8c0.2,0,0.4,0.1,0.8,0.2c0.6,0.2,1.3,0.4,1.8,0.6c0.5,0.3,1,0.6,1.3,1.1c0.4,0.4,0.4,1,0.4,1.5c0,1.2-0.4,2.1-1.2,2.7
		c-0.7,0.6-1.9,1-3.2,1v0.7C326.8,338.6,326.5,338.8,326.2,338.8 M324.1,336.5c0.1,0,0.2,0.1,0.3,0.1
		C324.3,336.5,324.2,336.5,324.1,336.5 M326.8,331.5v4.9c1.1,0,2-0.3,2.5-0.7c0.6-0.4,0.9-1.1,0.9-1.8c0-0.4-0.1-0.7-0.4-1
		s-0.5-0.5-1-0.7c-0.4-0.2-0.8-0.4-1.3-0.4L326.8,331.5z M329.8,336c-0.1,0.1-0.2,0.2-0.3,0.2c-0.1,0.1-0.3,0.2-0.4,0.3
		c0.2-0.1,0.4-0.2,0.4-0.4C329.7,336.1,329.7,336,329.8,336 M325.7,325.5c-1.1,0-1.8,0.3-2.3,0.6c-0.5,0.4-0.8,1-0.8,1.6
		c0,0.4,0.1,0.7,0.4,1s0.5,0.5,1,0.7c0.4,0.2,0.8,0.4,1.2,0.4c0.2,0.1,0.4,0.1,0.6,0.2V325.5L325.7,325.5z"/>
</g>
<g>
	<path class="st16" d="M182.6,192.2c-1-1-1.5-2.3-1.5-3.8s0.5-2.8,1.5-3.8s2.3-1.5,3.8-1.5h28.3c1.5,0,2.8,0.5,3.8,1.6
		c1,1,1.5,2.3,1.5,3.9c0,1.4-0.5,2.7-1.5,3.7s-2.3,1.5-3.8,1.5h-28.3C184.9,193.7,183.6,193.2,182.6,192.2z M182.6,216.4
		c-1-1-1.5-2.3-1.5-3.8s0.5-2.8,1.5-3.8s2.3-1.5,3.8-1.5h28.3c1.5,0,2.8,0.5,3.8,1.6c1,1,1.5,2.3,1.5,3.9c0,1.4-0.5,2.7-1.5,3.7
		s-2.3,1.5-3.8,1.5h-28.3C184.9,217.9,183.6,217.4,182.6,216.4z"/>
</g>
</svg>
