<?xml version="1.0" encoding="utf-8"?>
<!-- Generator: Adobe Illustrator 22.0.1, SVG Export Plug-In . SVG Version: 6.00 Build 0)  -->
<svg version="1.1" id="Layer_1" xmlns="http://www.w3.org/2000/svg" xmlns:xlink="http://www.w3.org/1999/xlink" x="0px" y="0px"
	 viewBox="0 0 400 400" style="enable-background:new 0 0 400 400;" xml:space="preserve">
<style type="text/css">
	.st0{fill:#FFFFFF;}
	.st1{fill:#9E6459;}
	.st2{fill:#A1A5AF;}
	.st3{fill:#B8BAC0;}
	
		.st4{fill:none;stroke:#B77554;stroke-width:7.0223;stroke-linecap:round;stroke-linejoin:round;stroke-miterlimit:10;stroke-dasharray:4.6815,23.4077;}
	.st5{fill:#FFD100;}
	.st6{fill:none;stroke:#B8BAC0;stroke-width:23.6058;stroke-linecap:round;stroke-linejoin:round;stroke-miterlimit:10;}
	.st7{fill:#76CEE4;}
	.st8{fill:#60C1D8;}
	.st9{fill:#1EAFD8;}
	.st10{fill:#033333;}
	.st11{font-family:'Nunito-Bold';}
	.st12{font-size:36.8075px;}
	.st13{fill:#FCC62D;}
	.st14{fill:#AEB9C1;}
	.st15{fill:#3D4449;}
	.st16{font-size:33.3576px;}
	.st17{fill:none;stroke:#F9DC39;stroke-width:1.7722;stroke-linecap:round;stroke-linejoin:round;stroke-dasharray:0.9013,6.3086;}
	.st18{fill:#A0AAB4;}
	.st19{fill:none;stroke:#D6DEE4;stroke-width:1.7722;stroke-linecap:round;stroke-linejoin:round;stroke-dasharray:0.9013,6.3086;}
	.st20{fill:#E8A434;}
	.st21{fill:#E58E34;}
	.st22{fill:#E5852E;}
	.st23{fill:#BC6415;}
	.st24{font-size:32.5702px;}
	.st25{fill:#FADC3C;stroke:#E7C42A;stroke-width:1.7102;stroke-miterlimit:10;}
	.st26{fill:none;stroke:#F9DC39;stroke-width:1.7789;stroke-linecap:round;stroke-linejoin:round;stroke-dasharray:0.9046,6.3323;}
	.st27{enable-background:new    ;}
	.st28{fill:#7C6608;}
</style>
<g>
	<path class="st0" d="M158,360.1c-62.5,0-113.3-50.8-113.3-113.3v-17c0-22.1,6.4-43.6,18.6-62.1c0.3-19.4,5.6-36.3,16-50.3
		c-1.8-2.8-2.6-6.1-2.5-9.5c0.2-4.3,2.1-8.3,5.3-11.2c21.2-19.2,52.3-30,87.7-30.3c-1-2.4-1.6-4.9-1.6-7.6
		c0-10.4,8.5-18.9,18.9-18.9c3.7,0,7.4,1.1,10.5,3.2c3.1-2.1,6.7-3.2,10.5-3.2c10.4,0,18.9,8.5,18.9,18.9c0,2.7-0.6,5.2-1.6,7.6h2.7
		c37.6,0,70.2,11.5,91.7,32.4c5.7,5.5,6.5,14.2,2.3,20.6c9.5,13.7,14.4,29.9,14.6,48.4c12.2,18.5,18.6,39.9,18.6,62.1v17
		c0,62.5-50.8,113.3-113.3,113.3H158z"/>
	<path class="st0" d="M208.2,44.3c8,0,14.4,6.5,14.4,14.4c0,5-2.6,9.4-6.5,12h12c36.4,0,67.9,11.1,88.7,31.1
		c4.7,4.5,4.8,12,0.3,16.7c-0.2,0.2-0.4,0.3-0.6,0.5c10,13.1,15.8,29.8,15.8,49.9c11.7,17.4,18.6,38.3,18.6,60.7v17
		c0,59.9-49,108.9-108.9,108.9H158c-59.9,0-108.9-49-108.9-108.9v-17c0-22.4,6.9-43.3,18.6-60.7c0-21.1,6.4-38.3,17.3-51.7
		c-0.2-0.2-0.5-0.4-0.7-0.7c-4.4-4.8-4-12.3,0.8-16.7c20.8-18.8,51.5-29.2,86.6-29.2h7.4c-3.9-2.6-6.5-7-6.5-12
		c0-8,6.5-14.4,14.4-14.4c4.1,0,7.9,1.8,10.5,4.5C200.3,46.1,204,44.3,208.2,44.3 M195.1,70.8h5c-0.9-0.6-1.8-1.3-2.5-2.1
		C196.9,69.5,196.1,70.2,195.1,70.8 M208.2,35.4c-3.7,0-7.3,0.9-10.5,2.5c-3.2-1.6-6.8-2.5-10.5-2.5c-12.9,0-23.3,10.5-23.3,23.3
		c0,1.1,0.1,2.2,0.2,3.3c-34.1,1.4-64.1,12.4-84.9,31.3c-4.1,3.7-6.5,8.8-6.8,14.3c-0.2,3.3,0.4,6.4,1.7,9.3
		c-9.7,14-14.8,30.6-15.2,49.3c-12.2,19-18.6,40.8-18.6,63.4v17c0,31.3,12.3,60.9,34.6,83.2s51.8,34.6,83.2,34.6h84.1
		c31.3,0,60.9-12.3,83.2-34.6c22.3-22.3,34.6-51.8,34.6-83.2v-17c0-22.6-6.4-44.4-18.6-63.4c-0.4-17.8-5.1-33.7-13.8-47.2
		c3.6-7.8,2.1-17.3-4.4-23.6c-21.8-21.1-54.3-33-91.8-33.6c0.1-1.1,0.2-2.1,0.2-3.2C231.5,45.9,221,35.4,208.2,35.4L208.2,35.4z"/>
</g>
<g>
	<g>
		<path class="st1" d="M242.1,355.7H158c-59.9,0-108.9-49-108.9-108.9v-17c0-59.9,49-108.9,108.9-108.9h84.1
			c59.9,0,108.9,49,108.9,108.9v17C351,306.7,302,355.7,242.1,355.7z"/>
		<path class="st1" d="M228.3,273.3h-56.4c-57.2,0-104.1-46.9-104.1-104.1l0,0c0-57.2,46.9-86.6,104.1-86.6h56.4
			c57.2,0,104.1,29.2,104.1,86.6l0,0C332.3,226.4,285.5,273.3,228.3,273.3z"/>
		<circle class="st2" cx="187.2" cy="58.8" r="14.4"/>
		<circle class="st3" cx="208.2" cy="58.8" r="14.4"/>
		<path class="st4" d="M238.1,344.5h-76.2c-54.2,0-98.5-44.4-98.5-98.5v-15.4c0-54.2,44.4-116.3,98.5-116.3h76.2
			c54.2,0,98.5,62.1,98.5,116.3V246C336.6,300.1,292.3,344.5,238.1,344.5z"/>
		<path class="st5" d="M248.4,121.7h-96.8c-3.9,0-7-3.2-7-7l0,0c0-3.9,3.2-7,7-7h96.8c3.9,0,7,3.2,7,7l0,0
			C255.4,118.6,252.3,121.7,248.4,121.7z"/>
		<path class="st6" d="M93.1,108.7c19.1-17.4,47.3-26.1,78.7-26.1h56.4c32.3,0,61.3,9.3,80.5,27.8"/>
	</g>
	<g>
		<g>
			<g>
				<g>
					<path class="st7" d="M175.2,252.4c-5.4,1.2-10.7-2.1-12-7.5l-13.5-58.6c-1.2-5.4,2.1-10.7,7.5-12l106.4-24.5
						c5.4-1.2,10.7,2.1,12,7.5l13.5,58.7c1.2,5.4-2.1,10.7-7.5,12L175.2,252.4L175.2,252.4z"/>
				</g>
				<g>
					<path class="st8" d="M268.9,220.6l-85.2,19.6c-1.3-5.8-7.3-9.5-13-8.2l-8.5-37.2c5.8-1.3,9.5-7.3,8.2-13l85.2-19.6
						c1.3,5.8,7.3,9.5,13,8.2l8.5,37.2C271.1,208.9,267.4,214.8,268.9,220.6z"/>
				</g>
			</g>
			<g>
				<ellipse class="st9" cx="162.4" cy="185.9" rx="4.3" ry="4.3"/>
				<circle class="st9" cx="264.8" cy="162.4" r="4.3"/>
			</g>
			<g>
				<ellipse class="st9" cx="174.8" cy="240.3" rx="4.3" ry="4.3"/>
				<circle class="st9" cx="277.3" cy="216.8" r="4.3"/>
			</g>
			<g>
				<ellipse class="st7" cx="178.6" cy="190.3" rx="2.5" ry="2.5"/>
			</g>
			<g>
				<ellipse class="st7" cx="187" cy="191.6" rx="2.5" ry="2.5"/>
			</g>
			<g>
				<ellipse class="st7" cx="242.5" cy="175.2" rx="2.5" ry="2.5"/>
			</g>
			<g>
				<ellipse class="st7" cx="170.2" cy="201.1" rx="2.5" ry="2.5"/>
			</g>
			<g>
				<ellipse class="st7" cx="186.8" cy="231.8" rx="2.5" ry="2.5"/>
			</g>
			<g>
				<ellipse class="st7" cx="194.6" cy="224" rx="2.5" ry="2.5"/>
			</g>
			<g>
				<ellipse class="st7" cx="176.3" cy="226.4" rx="2.5" ry="2.5"/>
			</g>
			<g>
				<ellipse class="st7" cx="172.2" cy="215.2" rx="2.5" ry="2.5"/>
			</g>
			<g>
				
					<ellipse transform="matrix(0.9747 -0.2237 0.2237 0.9747 -32.7379 61.5729)" class="st7" cx="255.4" cy="175.3" rx="2.5" ry="2.5"/>
			</g>
			<g>
				
					<ellipse transform="matrix(0.9747 -0.2237 0.2237 0.9747 -36.1931 61.5394)" class="st7" cx="253.5" cy="190.5" rx="2.5" ry="2.5"/>
			</g>
			<g>
				
					<ellipse transform="matrix(0.9747 -0.2237 0.2237 0.9747 -34.2347 63.7681)" class="st7" cx="264.3" cy="183" rx="2.5" ry="2.5"/>
			</g>
			<g>
				
					<ellipse transform="matrix(0.9747 -0.2237 0.2237 0.9747 -37.5753 64.5909)" class="st7" cx="266.3" cy="198.1" rx="2.5" ry="2.5"/>
			</g>
			<g>
				
					<ellipse transform="matrix(0.9747 -0.2237 0.2237 0.9747 -38.572 62.7136)" class="st7" cx="257.5" cy="201.6" rx="2.5" ry="2.5"/>
			</g>
			<g>
				
					<ellipse transform="matrix(0.9979 -6.467889e-02 6.467889e-02 0.9979 -13.2271 16.6148)" class="st7" cx="250" cy="212.6" rx="2.5" ry="2.5"/>
			</g>
			<g>
				
					<ellipse transform="matrix(0.9119 -0.4105 0.4105 0.9119 -64.2419 126.3561)" class="st7" cx="262.1" cy="212.8" rx="2.5" ry="2.5"/>
			</g>
			<path id="XMLID_2_" class="st0" d="M184.9,220.6c-0.4,0.1-0.8-0.2-1-0.6l-0.3-1c-1.6,0.1-2.5,0.1-3.9-0.6l0.3,1
				c0.1,0.4-0.2,0.8-0.6,1c-0.4,0.1-0.8-0.2-1-0.6l-1.1-4.5c-0.1-0.4,0.2-0.8,0.6-1c0.4-0.2,0.8,0.2,1,0.6l0.4,1.7
				c1,0.7,1.6,0.8,3,1.1c0.4,0,0.7,0.1,1.1,0.1l-1.6-7c-1.5-0.1-2.6-0.2-3.3-0.4c-0.8-0.2-1.5-0.5-2-1.1c-0.5-0.4-1-1.1-1.2-1.9
				c-0.4-1.4-0.2-2.7,0.6-3.7c0.7-1,2-1.8,3.9-2.3l-0.2-0.9c-0.1-0.4,0.2-0.8,0.6-1c0.4-0.2,0.8,0.2,1,0.6l0.3,1
				c1.3-0.1,2.6,0.1,3.7,0.5c0.3,0.2,0.2,0.3,0.4,0.4l-0.3-1c-0.1-0.4,0.2-0.8,0.6-1c0.4-0.1,0.8,0.2,1,0.6l1.1,4.5
				c0.1,0.4-0.2,0.8-0.6,1s-0.8-0.2-1-0.6l-0.4-1.5c-1-0.7-1.9-1.3-3.2-1.4c-0.4,0-0.7-0.1-1.1-0.1l1.5,6.5c0.3,0.1,0.5,0,1.2,0.1
				c0.9,0,1.9,0.2,2.6,0.4c0.8,0.2,1.5,0.5,2,1.1s1,1.2,1.2,1.9c0.4,1.5,0.1,2.8-0.8,4c-0.8,1.1-2.2,1.9-4.1,2.3l0.2,0.9
				C185.7,220.2,185.4,220.5,184.9,220.6 M181.4,218.2c0.2,0.1,0.3,0.1,0.4,0C181.8,218.3,181.5,218.2,181.4,218.2 M183.4,210.8
				l1.5,6.6c1.4-0.4,2.6-1,3.2-1.8c0.6-0.8,0.9-1.7,0.6-2.7c-0.1-0.5-0.4-1-0.7-1.2c-0.4-0.4-1-0.6-1.5-0.7
				c-0.6-0.1-1.2-0.2-1.8-0.2H183.4z M188.8,215.8c-0.1,0.2-0.2,0.3-0.3,0.4c-0.2,0.2-0.3,0.3-0.4,0.4c0.2-0.2,0.4-0.4,0.5-0.6
				C188.8,215.9,188.9,215.9,188.8,215.8 M180.2,202.9c-1.4,0.4-2.3,0.9-2.8,1.6c-0.5,0.7-0.7,1.5-0.4,2.4c0.1,0.5,0.4,1,0.7,1.2
				c0.4,0.4,1,0.6,1.5,0.7c0.6,0.1,1.2,0.2,1.7,0.2c0.4,0,0.6,0.1,0.8,0L180.2,202.9L180.2,202.9z"/>
			<g id="XMLID_3360_">
				<g id="XMLID_3377_">
					<path id="XMLID_3378_" class="st10" d="M225.4,229.5c-1.2,0.3-1.9,1.5-1.7,2.7l1.1-0.3c-0.2-0.6,0.2-1.2,0.9-1.3
						c0.7-0.2,1.2,0.2,1.3,0.9l1.1-0.3C227.8,230,226.7,229.2,225.4,229.5z"/>
				</g>
				<g id="XMLID_3375_">
					<path id="XMLID_3376_" class="st10" d="M219.8,230.8c-1.2,0.3-1.9,1.5-1.7,2.7l1.1-0.3c-0.2-0.6,0.2-1.2,0.9-1.3
						c0.7-0.2,1.2,0.2,1.3,0.9l1.1-0.3C222.2,231.3,220.9,230.5,219.8,230.8z"/>
				</g>
				<g id="XMLID_3373_">
					<path id="XMLID_3374_" class="st10" d="M231.3,228.2c-1.2,0.3-1.9,1.5-1.7,2.7l1.1-0.3c-0.2-0.6,0.2-1.2,0.9-1.3
						s1.2,0.2,1.3,0.9l1.1-0.3C233.7,228.6,232.4,227.9,231.3,228.2z"/>
				</g>
				<g id="XMLID_3371_">
					<path id="XMLID_3372_" class="st10" d="M208.2,233.4c-1.2,0.3-1.9,1.5-1.7,2.7l1.1-0.3c-0.2-0.6,0.2-1.2,0.9-1.3
						c0.6-0.2,1.2,0.2,1.3,0.9l1.1-0.3C210.6,233.9,209.5,233.1,208.2,233.4z"/>
				</g>
				<g id="XMLID_3369_">
					<path id="XMLID_3370_" class="st10" d="M202.5,234.7c-1.2,0.3-1.9,1.5-1.7,2.7l1.1-0.3c-0.2-0.6,0.2-1.2,0.9-1.3
						c0.7-0.2,1.2,0.2,1.3,0.9l1.1-0.3C204.9,235.3,203.6,234.5,202.5,234.7z"/>
				</g>
				<g id="XMLID_3367_">
					<path id="XMLID_3368_" class="st10" d="M213.9,232.2c-1.2,0.3-1.9,1.5-1.7,2.7l1.1-0.3c-0.2-0.6,0.2-1.2,0.9-1.3
						c0.7-0.2,1.2,0.2,1.3,0.9l1.1-0.3C216.4,232.6,215.2,231.8,213.9,232.2z"/>
				</g>
				<g id="XMLID_3365_">
					<path id="XMLID_3366_" class="st10" d="M242.7,225.5c-1.2,0.3-1.9,1.5-1.7,2.7l1.1-0.3c-0.2-0.6,0.2-1.2,0.9-1.3
						c0.7-0.2,1.2,0.2,1.3,0.9l1.1-0.3C245.2,226.1,244,225.3,242.7,225.5z"/>
				</g>
				<g id="XMLID_3363_">
					<path id="XMLID_3364_" class="st10" d="M237,226.8c-1.2,0.3-1.9,1.5-1.7,2.7l1.1-0.3c-0.2-0.6,0.2-1.2,0.9-1.3s1.2,0.2,1.3,0.9
						l1.1-0.3C239.3,227.4,238.1,226.6,237,226.8z"/>
				</g>
				<g id="XMLID_3361_">
					<path id="XMLID_3362_" class="st10" d="M248.5,224.2c-1.2,0.3-1.9,1.5-1.7,2.7l1.1-0.3c-0.2-0.6,0.2-1.2,0.9-1.3
						c0.7-0.2,1.2,0.2,1.3,0.9l1.1-0.3C250.9,224.7,249.6,223.9,248.5,224.2z"/>
				</g>
			</g>
			<g id="XMLID_9_">
				<g id="XMLID_27_">
					<path id="XMLID_28_" class="st10" d="M212.5,172.9c1.2-0.3,1.9-1.5,1.7-2.7l-1.1,0.3c0.2,0.6-0.2,1.2-0.9,1.3
						c-0.7,0.2-1.2-0.2-1.3-0.9l-1.1,0.3C210,172.4,211.3,173.2,212.5,172.9z"/>
				</g>
				<g id="XMLID_25_">
					<path id="XMLID_26_" class="st10" d="M218.3,171.6c1.2-0.3,1.9-1.5,1.7-2.7l-1.1,0.3c0.2,0.6-0.2,1.2-0.9,1.3s-1.2-0.2-1.3-0.9
						l-1.1,0.3C215.9,171.1,217,171.8,218.3,171.6z"/>
				</g>
				<g id="XMLID_23_">
					<path id="XMLID_24_" class="st10" d="M206.7,174.2c1.2-0.3,1.9-1.5,1.7-2.7l-1.1,0.3c0.2,0.6-0.2,1.2-0.9,1.3
						c-0.7,0.2-1.2-0.2-1.3-0.9l-1.1,0.3C204.3,173.8,205.6,174.5,206.7,174.2z"/>
				</g>
				<g id="XMLID_21_">
					<path id="XMLID_22_" class="st10" d="M229.8,168.9c1.2-0.3,1.9-1.5,1.7-2.7l-1.1,0.3c0.2,0.6-0.2,1.2-0.9,1.3
						c-0.7,0.2-1.2-0.2-1.3-0.9l-1.1,0.3C227.3,168.5,228.5,169.3,229.8,168.9z"/>
				</g>
				<g id="XMLID_19_">
					<path id="XMLID_20_" class="st10" d="M235.5,167.7c1.2-0.3,1.9-1.5,1.7-2.7l-1.1,0.3c0.2,0.6-0.2,1.2-0.9,1.3
						c-0.7,0.2-1.2-0.2-1.3-0.9l-1.1,0.3C233.1,167.1,234.2,167.9,235.5,167.7z"/>
				</g>
				<g id="XMLID_17_">
					<path id="XMLID_18_" class="st10" d="M223.9,170.2c1.2-0.3,1.9-1.5,1.7-2.7l-1.1,0.3c0.2,0.6-0.2,1.2-0.9,1.3
						c-0.7,0.2-1.2-0.2-1.3-0.9l-1.1,0.3C221.5,169.8,222.8,170.6,223.9,170.2z"/>
				</g>
				<g id="XMLID_15_">
					<path id="XMLID_16_" class="st10" d="M195.3,176.9c1.2-0.3,1.9-1.5,1.7-2.7l-1.1,0.3c0.2,0.6-0.2,1.2-0.9,1.3
						c-0.6,0.2-1.2-0.2-1.3-0.9l-1.1,0.3C192.8,176.3,194.1,177.1,195.3,176.9z"/>
				</g>
				<g id="XMLID_13_">
					<path id="XMLID_14_" class="st10" d="M201,175.5c1.2-0.3,1.9-1.5,1.7-2.7l-1.1,0.3c0.2,0.6-0.2,1.2-0.9,1.3
						c-0.7,0.2-1.2-0.2-1.3-0.9l-1.1,0.3C198.6,175.1,199.7,175.8,201,175.5z"/>
				</g>
				<g id="XMLID_11_">
					<path id="XMLID_12_" class="st10" d="M189.5,178.2c1.2-0.3,1.9-1.5,1.7-2.7l-1.1,0.3c0.2,0.6-0.2,1.2-0.9,1.3
						c-0.7,0.2-1.2-0.2-1.3-0.9l-1.1,0.3C187.1,177.7,188.3,178.5,189.5,178.2z"/>
				</g>
			</g>
		</g>
		<circle class="st9" cx="219.1" cy="200.6" r="27.6"/>
		<g>
			<ellipse class="st8" cx="219.2" cy="200.6" rx="23.8" ry="23.8"/>
		</g>
		<g>
			<text transform="matrix(0.9747 -0.2237 0.2237 0.9747 200.9797 217.2225)" class="st0 st11 st12">20</text>
		</g>
	</g>
	<g>
		<g>
			<g>
				<circle class="st13" cx="128.1" cy="208.1" r="35.7"/>
			</g>
			<circle class="st14" cx="128.1" cy="208.1" r="23.4"/>
			<g>
				<text transform="matrix(1 0 0 1 121.9629 218.4248)" class="st15 st11 st16">5</text>
			</g>
		</g>
		<g>
			<g>
				<ellipse class="st17" cx="128.1" cy="208.1" rx="28.7" ry="28.7"/>
			</g>
		</g>
		<path id="XMLID_6_" class="st15" d="M116.8,215.8c-0.4,0-0.5-0.2-0.5-0.5v-0.7c-1.1-0.2-1.8-0.4-2.7-1.1v0.7
			c0,0.4-0.2,0.5-0.5,0.5s-0.5-0.2-0.5-0.5v-3.3c0-0.4,0.2-0.5,0.5-0.5s0.5,0.2,0.5,0.5v1.2c0.5,0.6,1,0.8,1.9,1.2
			c0.3,0.1,0.4,0.2,0.8,0.2v-5.1c-1.1-0.3-1.8-0.5-2.3-0.8c-0.5-0.3-1-0.6-1.3-1.1c-0.4-0.4-0.4-0.9-0.4-1.5c0-1.1,0.4-1.9,1.1-2.5
			c0.6-0.6,1.7-0.9,3-1v-0.7c0-0.4,0.2-0.5,0.5-0.5s0.5,0.2,0.5,0.5v0.8c1,0.2,1.8,0.5,2.5,1c0.2,0.1,0.1,0.3,0.2,0.4v-0.7
			c0-0.4,0.2-0.5,0.5-0.5s0.5,0.2,0.5,0.5v3.3c0,0.4-0.2,0.5-0.5,0.5s-0.5-0.2-0.5-0.5v-1.2c-0.6-0.6-1.2-1.2-1.9-1.5
			c-0.2-0.1-0.4-0.2-0.7-0.2v4.8c0.2,0,0.4,0.1,0.8,0.2c0.6,0.2,1.2,0.4,1.8,0.6s1,0.6,1.3,1.1c0.4,0.4,0.4,1,0.4,1.5
			c0,1.2-0.4,2-1.2,2.7c-0.7,0.6-1.9,1-3.2,1v0.7C117.3,215.6,117.1,215.8,116.8,215.8 M114.7,213.5c0.1,0,0.2,0.1,0.3,0.1
			C114.8,213.6,114.8,213.5,114.7,213.5 M117.3,208.6v4.9c1.1,0,1.9-0.3,2.5-0.7c0.6-0.4,0.9-1.1,0.9-1.8c0-0.4-0.1-0.7-0.4-1
			s-0.5-0.5-1-0.7c-0.4-0.2-0.8-0.4-1.2-0.4L117.3,208.6z M120.3,213c-0.1,0.1-0.2,0.2-0.3,0.2c-0.1,0.1-0.3,0.2-0.4,0.3
			c0.2-0.1,0.4-0.2,0.4-0.4C120.3,213.1,120.3,213,120.3,213 M116.3,202.7c-1.1,0-1.8,0.3-2.3,0.6c-0.5,0.4-0.8,1-0.8,1.6
			c0,0.4,0.1,0.7,0.4,1s0.5,0.5,1,0.7c0.4,0.2,0.8,0.4,1.2,0.4c0.2,0.1,0.4,0.1,0.6,0.2V202.7L116.3,202.7z"/>
	</g>
	<g>
		<g>
			<g>
				<circle class="st18" cx="126.5" cy="268.3" r="35.7"/>
			</g>
			<g>
				<text transform="matrix(1 0 0 1 120.4268 278.6807)" class="st15 st11 st16">1</text>
			</g>
		</g>
		<g>
			<g>
				<ellipse class="st19" cx="126.5" cy="268.3" rx="28.7" ry="28.7"/>
			</g>
		</g>
		<path id="XMLID_105_" class="st15" d="M115.2,276c-0.4,0-0.5-0.2-0.5-0.5v-0.7c-1.1-0.2-1.8-0.4-2.7-1.1v0.7
			c0,0.4-0.2,0.5-0.5,0.5s-0.5-0.2-0.5-0.5v-3.3c0-0.4,0.2-0.5,0.5-0.5s0.5,0.2,0.5,0.5v1.2c0.5,0.6,1,0.8,1.9,1.2
			c0.3,0.1,0.4,0.2,0.8,0.2v-5.1c-1.1-0.3-1.8-0.5-2.3-0.8s-1-0.6-1.3-1.1s-0.4-0.9-0.4-1.5c0-1.1,0.4-1.9,1.1-2.5
			c0.6-0.6,1.7-0.9,3-1v-0.7c0-0.4,0.2-0.5,0.5-0.5c0.4,0,0.5,0.2,0.5,0.5v0.8c1,0.2,1.8,0.5,2.5,1c0.2,0.1,0.1,0.3,0.2,0.4v-0.7
			c0-0.4,0.2-0.5,0.5-0.5c0.4,0,0.5,0.2,0.5,0.5v3.3c0,0.4-0.2,0.5-0.5,0.5c-0.4,0-0.5-0.2-0.5-0.5v-1.2c-0.6-0.6-1.2-1.2-1.9-1.5
			c-0.2-0.1-0.4-0.2-0.7-0.2v4.8c0.2,0,0.4,0.1,0.8,0.2c0.6,0.2,1.2,0.4,1.8,0.6c0.5,0.3,1,0.6,1.3,1.1c0.4,0.4,0.4,1,0.4,1.5
			c0,1.2-0.4,2-1.2,2.7c-0.7,0.6-1.9,1-3.2,1v0.7C115.7,275.9,115.5,276,115.2,276 M113.1,273.7c0.1,0,0.2,0.1,0.3,0.1
			C113.3,273.8,113.2,273.7,113.1,273.7 M115.7,268.9v4.9c1.1,0,1.9-0.3,2.5-0.7c0.6-0.4,0.9-1.1,0.9-1.8c0-0.4-0.1-0.7-0.4-1
			c-0.3-0.3-0.5-0.5-1-0.7c-0.4-0.2-0.8-0.4-1.2-0.4L115.7,268.9z M118.7,273.3c-0.1,0.1-0.2,0.2-0.3,0.2c-0.1,0.1-0.3,0.2-0.4,0.3
			c0.2-0.1,0.4-0.2,0.4-0.4C118.7,273.4,118.7,273.3,118.7,273.3 M114.7,262.9c-1.1,0-1.8,0.3-2.3,0.6c-0.5,0.4-0.8,1-0.8,1.6
			c0,0.4,0.1,0.7,0.4,1s0.5,0.5,1,0.7c0.4,0.2,0.8,0.4,1.2,0.4c0.2,0.1,0.4,0.1,0.6,0.2V262.9L114.7,262.9z"/>
	</g>
	<g>
		<g>
			<g>
				<g>
					<path class="st20" d="M158.4,323.6c-5.5-0.4-9.6-5.3-9.1-10.8l4.9-59.9c0.4-5.5,5.3-9.6,10.8-9.1l108.8,8.8
						c5.5,0.4,9.6,5.3,9.1,10.8l-4.9,60c-0.4,5.5-5.3,9.6-10.8,9.1L158.4,323.6L158.4,323.6z"/>
				</g>
				<g>
					<path class="st21" d="M257.3,321.8l-87.1-7c0.4-5.9-4.1-11.3-10-11.7l3.1-38.1c5.9,0.4,11.3-4.1,11.7-10l87.1,7
						c-0.4,5.9,4.1,11.3,10,11.7l-3.1,38.1C263,311.1,257.8,315.6,257.3,321.8z"/>
				</g>
			</g>
			<g>
				<circle class="st22" cx="166.2" cy="256.4" r="4.3"/>
				<circle class="st22" cx="271" cy="265" r="4.3"/>
			</g>
			<g>
				<circle class="st22" cx="161.7" cy="312.1" r="4.3"/>
				<circle class="st22" cx="266.6" cy="320.5" r="4.3"/>
			</g>
			<g>
				<circle class="st20" cx="180.4" cy="265.5" r="2.5"/>
			</g>
			<g>
				<circle class="st20" cx="188" cy="269.3" r="2.5"/>
			</g>
			<g>
				<circle class="st20" cx="245.9" cy="270.4" r="2.5"/>
			</g>
			<g>
				<circle class="st20" cx="169.2" cy="273.3" r="2.5"/>
			</g>
			<g>
				<circle class="st20" cx="175.7" cy="307.6" r="2.5"/>
			</g>
			<g>
				<circle class="st20" cx="185.5" cy="302.5" r="2.5"/>
			</g>
			<g>
				<circle class="st20" cx="167.3" cy="299.2" r="2.5"/>
			</g>
			<g>
				
					<ellipse transform="matrix(8.051097e-02 -0.9968 0.9968 8.051097e-02 -133.0533 430.4894)" class="st20" cx="166.8" cy="287.4" rx="2.5" ry="2.5"/>
			</g>
			<g>
				<circle class="st20" cx="258.2" cy="274.3" r="2.5"/>
			</g>
			<g>
				<circle class="st20" cx="251.8" cy="288.3" r="2.5"/>
			</g>
			<g>
				<circle class="st20" cx="264.3" cy="284.4" r="2.5"/>
			</g>
			<g>
				<circle class="st20" cx="261.7" cy="299.4" r="2.5"/>
			</g>
			<g>
				<circle class="st20" cx="252.3" cy="300.1" r="2.5"/>
			</g>
			<g>
				<circle class="st20" cx="241.8" cy="308.3" r="2.5"/>
			</g>
			<g>
				<circle class="st20" cx="253.3" cy="312.2" r="2.5"/>
			</g>
			<path id="XMLID_67_" class="st0" d="M177.3,296.3c-0.4,0-0.8-0.4-0.7-0.9l0.1-1c-1.5-0.4-2.4-0.6-3.5-1.8l-0.1,1
				c0,0.4-0.4,0.8-0.9,0.7c-0.4,0-0.8-0.4-0.7-0.9l0.4-4.6c0-0.4,0.4-0.8,0.9-0.7c0.4,0,0.8,0.4,0.7,0.9l-0.2,1.7
				c0.7,1,1.2,1.2,2.6,1.9c0.4,0.2,0.6,0.3,1,0.4l0.6-7.2c-1.4-0.5-2.4-1-3-1.3c-0.8-0.4-1.2-1-1.7-1.6c-0.4-0.6-0.5-1.3-0.5-2
				c0.1-1.4,0.6-2.6,1.8-3.4c1-0.7,2.5-1.1,4.3-1l0.1-0.9c0-0.4,0.4-0.8,0.9-0.7c0.4,0,0.8,0.4,0.7,0.9l-0.1,1
				c1.3,0.4,2.4,0.9,3.4,1.6c0.2,0.3,0.1,0.4,0.3,0.4l0.1-1c0-0.4,0.4-0.8,0.9-0.7c0.4,0,0.8,0.4,0.7,0.9l-0.4,4.6
				c0,0.4-0.4,0.8-0.9,0.7c-0.4,0-0.8-0.4-0.7-0.9l0.1-1.6c-0.7-1-1.4-1.8-2.7-2.4c-0.4-0.2-0.6-0.3-1-0.4l-0.5,6.6
				c0.2,0.1,0.5,0.2,1.1,0.4c0.9,0.3,1.8,0.7,2.4,1.1c0.8,0.4,1.2,1,1.7,1.6c0.4,0.6,0.5,1.4,0.5,2.2c-0.1,1.6-0.8,2.7-1.9,3.5
				c-1.1,0.8-2.7,1.2-4.6,1l-0.1,0.9C178.1,296.1,177.8,296.3,177.3,296.3 M174.7,293c0.1,0.1,0.2,0.1,0.4,0.2
				C175,293.1,174.8,293,174.7,293 M178.9,286.6l-0.5,6.7c1.4,0.1,2.7-0.1,3.5-0.7s1.3-1.3,1.4-2.4c0.1-0.5,0-1-0.4-1.4
				c-0.3-0.4-0.7-0.9-1.2-1.2c-0.5-0.3-1.1-0.5-1.6-0.7L178.9,286.6z M182.5,293c-0.1,0.1-0.3,0.2-0.4,0.3c-0.3,0.1-0.4,0.2-0.6,0.3
				c0.3-0.1,0.4-0.2,0.7-0.4C182.5,293,182.5,293,182.5,293 M178.1,278.1c-1.4-0.1-2.5,0.2-3.2,0.6c-0.7,0.5-1.2,1.2-1.2,2.1
				c-0.1,0.5,0,1,0.4,1.4c0.3,0.4,0.7,0.9,1.2,1.2c0.5,0.3,1.1,0.5,1.5,0.7c0.4,0.2,0.5,0.3,0.8,0.3L178.1,278.1L178.1,278.1z"/>
			<g id="XMLID_48_">
				<g id="XMLID_65_">
					<g id="XMLID_66_">
						<path class="st23" d="M213.3,317.1c-1.2-0.1-2.3,0.8-2.4,2l1.2,0.1c0.1-0.7,0.5-1.1,1.2-1.1c0.7,0.1,1.1,0.5,1.1,1.2l1.2,0.1
							C215.4,318.2,214.5,317.1,213.3,317.1z"/>
					</g>
				</g>
				<g id="XMLID_63_">
					<g id="XMLID_64_">
						<path class="st23" d="M207.4,316.5c-1.2-0.1-2.3,0.8-2.4,2l1.2,0.1c0.1-0.7,0.5-1.1,1.2-1.1c0.7,0.1,1.1,0.5,1.1,1.2l1.2,0.1
							C209.7,317.8,208.7,316.7,207.4,316.5z"/>
					</g>
				</g>
				<g id="XMLID_61_">
					<g id="XMLID_62_">
						<path class="st23" d="M219.2,317.5c-1.2-0.1-2.3,0.8-2.4,2l1.2,0.1c0.1-0.7,0.5-1.1,1.2-1.1c0.7,0.1,1.1,0.5,1.1,1.2l1.2,0.1
							C221.4,318.7,220.5,317.6,219.2,317.5z"/>
					</g>
				</g>
				<g id="XMLID_59_">
					<g id="XMLID_60_">
						<path class="st23" d="M195.8,315.6c-1.2-0.1-2.3,0.8-2.4,2l1.2,0.1c0.1-0.7,0.5-1.1,1.2-1.1c0.7,0.1,1.1,0.5,1.1,1.2l1.2,0.1
							C197.9,316.8,196.9,315.7,195.8,315.6z"/>
					</g>
				</g>
				<g id="XMLID_57_">
					<g id="XMLID_58_">
						<path class="st23" d="M189.8,315.1c-1.2-0.1-2.3,0.8-2.4,2l1.2,0.1c0.1-0.7,0.5-1.1,1.2-1.1c0.7,0.1,1.1,0.5,1.1,1.2l1.2,0.1
							C191.9,316.3,191,315.2,189.8,315.1z"/>
					</g>
				</g>
				<g id="XMLID_55_">
					<g id="XMLID_56_">
						<path class="st23" d="M201.5,316.1c-1.2-0.1-2.3,0.8-2.4,2l1.2,0.1c0.1-0.7,0.5-1.1,1.2-1.1c0.7,0.1,1.1,0.5,1.1,1.2l1.2,0.1
							C203.7,317.2,202.8,316.2,201.5,316.1z"/>
					</g>
				</g>
				<g id="XMLID_53_">
					<g id="XMLID_54_">
						<path class="st23" d="M230.9,318.5c-1.2-0.1-2.3,0.8-2.4,2l1.2,0.1c0.1-0.7,0.5-1.1,1.2-1.1c0.7,0.1,1.1,0.5,1.1,1.2l1.2,0.1
							C233.1,319.6,232.2,318.6,230.9,318.5z"/>
					</g>
				</g>
				<g id="XMLID_51_">
					<g id="XMLID_52_">
						<path class="st23" d="M225.1,317.9c-1.2-0.1-2.3,0.8-2.4,2l1.2,0.1c0.1-0.7,0.5-1.1,1.2-1.1c0.7,0.1,1.1,0.5,1.1,1.2l1.2,0.1
							C227.2,319.2,226.2,318.1,225.1,317.9z"/>
					</g>
				</g>
				<g id="XMLID_49_">
					<g id="XMLID_50_">
						<path class="st23" d="M236.8,318.9c-1.2-0.1-2.3,0.8-2.4,2l1.2,0.1c0.1-0.7,0.5-1.1,1.2-1.1c0.7,0,1.1,0.5,1.1,1.2l1.2,0.1
							C239,320.2,238,319,236.8,318.9z"/>
					</g>
				</g>
			</g>
			<g id="XMLID_10_">
				<g id="XMLID_46_">
					<g id="XMLID_47_">
						<path class="st23" d="M218,259.2c1.2,0.1,2.3-0.8,2.4-2l-1.2-0.1c-0.1,0.7-0.5,1.1-1.2,1.1s-1.1-0.5-1.1-1.2l-1.2-0.1
							C215.8,258,216.8,259,218,259.2z"/>
					</g>
				</g>
				<g id="XMLID_44_">
					<g id="XMLID_45_">
						<path class="st23" d="M223.9,259.6c1.2,0.1,2.3-0.8,2.4-2l-1.2-0.1c-0.1,0.7-0.5,1.1-1.2,1.1c-0.7-0.1-1.1-0.5-1.1-1.2
							l-1.2-0.1C221.7,258.5,222.7,259.5,223.9,259.6z"/>
					</g>
				</g>
				<g id="XMLID_42_">
					<g id="XMLID_43_">
						<path class="st23" d="M212.1,258.7c1.2,0.1,2.3-0.8,2.4-2l-1.2-0.1c-0.1,0.7-0.5,1.1-1.2,1.1c-0.7-0.1-1.1-0.5-1.1-1.2
							l-1.2-0.1C210,257.5,210.9,258.6,212.1,258.7z"/>
					</g>
				</g>
				<g id="XMLID_40_">
					<g id="XMLID_41_">
						<path class="st23" d="M235.6,260.6c1.2,0.1,2.3-0.8,2.4-2l-1.2-0.1c-0.1,0.7-0.5,1.1-1.2,1.1c-0.7-0.1-1.1-0.5-1.1-1.2
							l-1.2-0.1C233.5,259.4,234.4,260.5,235.6,260.6z"/>
					</g>
				</g>
				<g id="XMLID_38_">
					<g id="XMLID_39_">
						<path class="st23" d="M241.5,261.1c1.2,0.1,2.3-0.8,2.4-2l-1.2-0.1c-0.1,0.7-0.5,1.1-1.2,1.1c-0.7-0.1-1.1-0.5-1.1-1.2
							l-1.2-0.1C239.3,259.9,240.2,261,241.5,261.1z"/>
					</g>
				</g>
				<g id="XMLID_36_">
					<g id="XMLID_37_">
						<path class="st23" d="M229.7,260.1c1.2,0.1,2.3-0.8,2.4-2l-1.2-0.1c-0.1,0.7-0.5,1.1-1.2,1.1c-0.7-0.1-1.1-0.5-1.1-1.2
							l-1.2-0.1C227.6,258.9,228.5,260,229.7,260.1z"/>
					</g>
				</g>
				<g id="XMLID_34_">
					<g id="XMLID_35_">
						<path class="st23" d="M200.4,257.8c1.2,0.1,2.3-0.8,2.4-2l-1.2-0.1c-0.1,0.7-0.5,1.1-1.2,1.1c-0.7-0.1-1.1-0.5-1.1-1.2
							l-1.2-0.1C198.2,256.5,199.1,257.6,200.4,257.8z"/>
					</g>
				</g>
				<g id="XMLID_32_">
					<g id="XMLID_33_">
						<path class="st23" d="M206.2,258.2c1.2,0.1,2.3-0.8,2.4-2l-1.2-0.1c-0.1,0.7-0.5,1.1-1.2,1.1c-0.7-0.1-1.1-0.5-1.1-1.2
							l-1.2-0.1C204.1,257,205,258.1,206.2,258.2z"/>
					</g>
				</g>
				<g id="XMLID_30_">
					<g id="XMLID_31_">
						<path class="st23" d="M194.4,257.2c1.2,0.1,2.3-0.8,2.4-2l-1.2-0.1c-0.1,0.7-0.5,1.1-1.2,1.1s-1.1-0.5-1.1-1.2l-1.2-0.1
							C192.3,256.1,193.2,257.2,194.4,257.2z"/>
					</g>
				</g>
			</g>
		</g>
		<g>
			<circle class="st20" cx="216" cy="287.6" r="27.6"/>
		</g>
		<circle class="st22" cx="216" cy="287.6" r="23.8"/>
		<g>
			<text transform="matrix(0.9968 8.051097e-02 -8.051097e-02 0.9968 195.44 298.5222)" class="st0 st11 st24">50</text>
		</g>
	</g>
	<g>
		<g>
			<g>
				<g>
					<path class="st13" d="M288.4,280c-19.7,0-35.7-16-35.7-35.7s16-35.7,35.7-35.7c19.7,0,35.7,16,35.7,35.7S308.2,280,288.4,280z"
						/>
				</g>
				<circle class="st25" cx="288.4" cy="244.3" r="25.8"/>
			</g>
			<g>
				<g>
					<ellipse class="st26" cx="288.4" cy="244.3" rx="28.8" ry="28.8"/>
				</g>
			</g>
			<g>
				<g class="st27">
					<path class="st28" d="M294.5,252.2c0,1.1-0.6,1.7-1.9,1.7h-10.5c-1.2,0-1.9-0.5-1.9-1.7c0-1.1,0.6-1.6,1.9-1.6h3.3v-14.2
						l-3,1.9c-0.3,0.2-0.5,0.3-0.8,0.3c-0.4,0-0.8-0.2-1.1-0.5s-0.4-0.8-0.4-1.2c0-0.6,0.3-1.1,0.8-1.4l4.8-3
						c0.6-0.4,1.2-0.5,1.8-0.5c0.6,0,1.1,0.2,1.4,0.5c0.4,0.4,0.5,0.8,0.5,1.5v16.8h3.3C293.8,250.6,294.5,251.1,294.5,252.2z"/>
					<path class="st28" d="M296.1,251.2c-1.3-1.9-2-4.7-2-8.4c0-3.6,0.7-6.5,2-8.3c1.3-1.9,3.4-2.8,5.9-2.8s4.6,1,5.9,2.8
						c1.3,1.9,2,4.7,2,8.3s-0.7,6.5-2,8.3c-1.3,1.9-3.4,2.9-5.9,2.9C299.5,254.1,297.6,253.2,296.1,251.2z M305.2,249
						c0.6-1.3,1-3.4,1-6.2s-0.4-4.9-1-6.2c-0.6-1.3-1.7-1.9-3.1-1.9c-1.4,0-2.5,0.6-3.1,1.9c-0.6,1.3-1,3.4-1,6.2s0.4,4.9,1,6.2
						c0.6,1.3,1.7,1.9,3.1,1.9S304.6,250.3,305.2,249z"/>
				</g>
			</g>
		</g>
		<path id="XMLID_1_" class="st28" d="M273.2,251.6c-0.4,0-0.5-0.2-0.5-0.5v-0.7c-1.1-0.2-1.8-0.4-2.7-1.1v0.7
			c0,0.4-0.2,0.5-0.5,0.5s-0.5-0.2-0.5-0.5v-3.3c0-0.4,0.2-0.5,0.5-0.5s0.5,0.2,0.5,0.5v1.2c0.5,0.6,1,0.8,1.9,1.2
			c0.3,0.1,0.4,0.2,0.8,0.2v-5.1c-1.1-0.3-1.8-0.5-2.3-0.8c-0.5-0.3-1-0.6-1.3-1.1c-0.4-0.4-0.4-0.9-0.4-1.5c0-1.1,0.4-1.9,1.1-2.5
			c0.6-0.6,1.7-0.9,3-1v-0.7c0-0.4,0.2-0.5,0.5-0.5c0.4,0,0.5,0.2,0.5,0.5v0.8c1,0.2,1.8,0.5,2.5,1c0.2,0.1,0.1,0.3,0.2,0.4V238
			c0-0.4,0.2-0.5,0.5-0.5c0.4,0,0.5,0.2,0.5,0.5v3.3c0,0.4-0.2,0.5-0.5,0.5c-0.4,0-0.5-0.2-0.5-0.5v-1.2c-0.6-0.6-1.2-1.2-1.9-1.5
			c-0.2-0.1-0.4-0.2-0.7-0.2v4.8c0.2,0,0.4,0.1,0.8,0.2c0.6,0.2,1.2,0.4,1.8,0.6s1,0.6,1.3,1.1s0.4,1,0.4,1.5c0,1.2-0.4,2-1.2,2.7
			c-0.7,0.6-1.9,1-3.2,1v0.7C273.7,251.4,273.5,251.6,273.2,251.6 M271.1,249.3c0.1,0,0.2,0.1,0.3,0.1
			C271.2,249.4,271.2,249.3,271.1,249.3 M273.7,244.4v4.9c1.1,0,1.9-0.3,2.5-0.7c0.6-0.4,0.9-1.1,0.9-1.8c0-0.4-0.1-0.7-0.4-1
			c-0.3-0.3-0.5-0.5-1-0.7c-0.4-0.2-0.8-0.4-1.2-0.4L273.7,244.4z M276.7,248.8c-0.1,0.1-0.2,0.2-0.3,0.2c-0.1,0.1-0.3,0.2-0.4,0.3
			c0.2-0.1,0.4-0.2,0.4-0.4C276.7,248.9,276.7,248.8,276.7,248.8 M272.7,238.5c-1.1,0-1.8,0.3-2.3,0.6c-0.5,0.4-0.8,1-0.8,1.6
			c0,0.4,0.1,0.7,0.4,1c0.3,0.3,0.5,0.5,1,0.7c0.4,0.2,0.8,0.4,1.2,0.4c0.2,0.1,0.4,0.1,0.6,0.2V238.5L272.7,238.5z"/>
	</g>
</g>
</svg>
