<?xml version="1.0" encoding="utf-8"?>
<!-- Generator: Adobe Illustrator 22.0.1, SVG Export Plug-In . SVG Version: 6.00 Build 0)  -->
<svg version="1.1" id="Layer_1" xmlns="http://www.w3.org/2000/svg" xmlns:xlink="http://www.w3.org/1999/xlink" x="0px" y="0px"
	 viewBox="0 0 400 400" style="enable-background:new 0 0 400 400;" xml:space="preserve">
<style type="text/css">
	.st0{fill:#FFFFFF;}
	.st1{fill:#76CEE4;}
	.st2{fill:#60C1D8;}
	.st3{fill:#1EAFD8;}
	.st4{fill:#033333;}
	.st5{font-family:'Nunito-Bold';}
	.st6{font-size:52.2808px;}
	.st7{fill:#FCC62D;}
	.st8{fill:#FADC3C;stroke:#E7C42A;stroke-width:2.429;stroke-miterlimit:10;}
	.st9{fill:none;stroke:#F9DC39;stroke-width:2.5266;stroke-linecap:round;stroke-linejoin:round;stroke-dasharray:1.2848,8.9939;}
	.st10{enable-background:new    ;}
	.st11{fill:#7C6608;}
	.st12{fill:#A0AAB4;}
	.st13{fill:#AEB9C1;}
	.st14{fill:#3D4449;}
	.st15{font-size:40.0677px;}
	.st16{letter-spacing:-1;}
	.st17{fill:none;stroke:#D6DEE4;stroke-width:2.1287;stroke-linecap:round;stroke-linejoin:round;stroke-dasharray:1.0826,7.5776;}
	.st18{font-size:35.2472px;}
	.st19{fill:none;stroke:#D6DEE4;stroke-width:1.8726;stroke-linecap:round;stroke-linejoin:round;stroke-dasharray:0.9523,6.666;}
</style>
<g>
	<g>
		<path class="st0" d="M326.1,302.7c-30.7,0-55.7-25-55.7-55.7c0-8.6,2-17,5.8-24.7l-108.8,24.9c-1.4,0.3-2.9,0.5-4.3,0.5
			c-8.9,0-16.6-6.1-18.7-14.8l-12-52c-8.6,7.6-19.7,11.8-31.5,11.8c-26.4,0-47.9-21.5-47.9-47.9s21.5-47.9,47.9-47.9
			c19.1,0,36.1,11.3,43.8,28.5l146-33.6c1.4-0.3,2.9-0.5,4.3-0.5c8.9,0,16.6,6.1,18.7,14.8l19.2,83.4c0.2,0.7,0.3,1.4,0.4,2.2
			c27.6,3.5,48.5,26.9,48.5,55.2C381.8,277.7,356.8,302.7,326.1,302.7z"/>
		<path class="st0" d="M295,96.3c6.5,0,12.3,4.4,13.9,11l19.2,83.4c0.4,1.9,0.5,3.8,0.1,5.6c27,1.1,48.6,23.4,48.6,50.7
			c0,28-22.6,50.7-50.7,50.7c-28,0-50.7-22.7-50.7-50.7c0-12.3,4.4-23.5,11.6-32.3l-120.7,27.7c-1.1,0.2-2.1,0.3-3.2,0.3
			c-6.5,0-12.3-4.4-13.9-11l-14.1-61.1c-7.8,10.4-20.2,17.1-34.3,17.1c-23.6,0-42.9-19.3-42.9-42.9c0-23.6,19.3-42.9,42.9-42.9
			c18.9,0,35,12.3,40.7,29.3l150.3-34.6C292.9,96.4,294,96.3,295,96.3 M295,86.3c-1.8,0-3.6,0.2-5.3,0.6c0,0,0,0-0.1,0l-142.2,32.7
			c-9.1-16.9-26.8-27.7-46.5-27.7c-29.2,0-52.9,23.7-52.9,52.9s23.7,52.9,52.9,52.9c10.3,0,20-2.9,28.3-8.2l10.2,44.5
			c0,0,0,0.1,0,0.1c2.6,11,12.4,18.7,23.6,18.7c1.8,0,3.6-0.2,5.3-0.6c0,0,0,0,0.1,0l99.5-22.8c-1.7,5.7-2.6,11.7-2.6,17.7
			c0,33.5,27.2,60.7,60.7,60.7c16.3,0,31.5-6.3,43-17.8c11.4-11.5,17.7-26.7,17.7-42.9c0-15.8-6-30.7-17-42.1
			c-8.8-9.1-20-15.2-32.3-17.5l-18.9-82.3c0,0,0-0.1,0-0.1C316,94,306.3,86.3,295,86.3L295,86.3z"/>
	</g>
	<g>
		<path class="st0" d="M75.3,295.9c-26.4,0-47.9-21.5-47.9-47.9c0-26.4,21.5-47.9,47.9-47.9s47.9,21.5,47.9,47.9
			C123.2,274.5,101.8,295.9,75.3,295.9z"/>
		<path class="st0" d="M75.3,205.1c23.6,0,42.9,19.3,42.9,42.9s-19.2,42.9-42.9,42.9c-23.6,0-42.9-19.3-42.9-42.9
			S51.7,205.1,75.3,205.1 M75.3,195.1c-29.2,0-52.9,23.7-52.9,52.9s23.7,52.9,52.9,52.9s52.9-23.7,52.9-52.9S104.5,195.1,75.3,195.1
			L75.3,195.1z"/>
	</g>
	<g>
		<circle class="st0" cx="193.3" cy="285.7" r="42.7"/>
		<path class="st0" d="M193.3,248c20.8,0,37.7,16.9,37.7,37.7c0,20.8-16.9,37.7-37.7,37.7c-20.8,0-37.7-16.9-37.7-37.7
			C155.6,264.9,172.5,248,193.3,248 M193.3,238c-26.3,0-47.7,21.4-47.7,47.7c0,26.3,21.4,47.7,47.7,47.7c26.3,0,47.7-21.4,47.7-47.7
			C241,259.4,219.6,238,193.3,238L193.3,238z"/>
	</g>
	<g>
		<g>
			<g>
				<g>
					<g>
						<path class="st1" d="M166.3,242.4c-7.7,1.7-15.2-3-17-10.7l-19.2-83.2c-1.7-7.7,3-15.2,10.7-17l151.1-34.8
							c7.7-1.7,15.2,3,17,10.7l19.2,83.4c1.7,7.7-3,15.2-10.7,17L166.3,242.4L166.3,242.4z"/>
					</g>
					<g>
						<path class="st2" d="M299.4,197.2l-121,27.8c-1.8-8.2-10.4-13.5-18.5-11.6l-12.1-52.8c8.2-1.8,13.5-10.4,11.6-18.5l121-27.8
							c1.8,8.2,10.4,13.5,18.5,11.6l12.1,52.8C302.5,180.6,297.2,189,299.4,197.2z"/>
					</g>
				</g>
				<g>
					<ellipse class="st3" cx="148.1" cy="148" rx="6.1" ry="6.1"/>
					<circle class="st3" cx="293.6" cy="114.6" r="6.1"/>
				</g>
				<g>
					<ellipse class="st3" cx="165.7" cy="225.2" rx="6.1" ry="6.1"/>
					<circle class="st3" cx="311.3" cy="191.8" r="6.1"/>
				</g>
				<g>
					<ellipse class="st1" cx="171.1" cy="154.2" rx="3.6" ry="3.6"/>
				</g>
				<g>
					<ellipse class="st1" cx="183.1" cy="156.1" rx="3.6" ry="3.6"/>
				</g>
				<g>
					<ellipse class="st1" cx="261.9" cy="132.8" rx="3.6" ry="3.6"/>
				</g>
				<g>
					<ellipse class="st1" cx="159.2" cy="169.5" rx="3.6" ry="3.6"/>
				</g>
				<g>
					<ellipse class="st1" cx="182.8" cy="213.1" rx="3.6" ry="3.6"/>
				</g>
				<g>
					<ellipse class="st1" cx="193.8" cy="202.1" rx="3.6" ry="3.6"/>
				</g>
				<g>
					<ellipse class="st1" cx="167.9" cy="205.5" rx="3.6" ry="3.6"/>
				</g>
				<g>
					<ellipse class="st1" cx="162" cy="189.6" rx="3.6" ry="3.6"/>
				</g>
				<g>
					<ellipse class="st1" cx="280.2" cy="132.9" rx="3.6" ry="3.6"/>
				</g>
				<g>
					<ellipse class="st1" cx="277.5" cy="154.5" rx="3.6" ry="3.6"/>
				</g>
				<g>
					<ellipse class="st1" cx="292.9" cy="143.9" rx="3.6" ry="3.6"/>
				</g>
				<g>
					<ellipse class="st1" cx="295.7" cy="165.3" rx="3.6" ry="3.6"/>
				</g>
				<g>
					<ellipse class="st1" cx="283.2" cy="170.3" rx="3.6" ry="3.6"/>
				</g>
				<g>
					<ellipse class="st1" cx="272.5" cy="185.9" rx="3.6" ry="3.6"/>
				</g>
				<g>
					<ellipse class="st1" cx="289.7" cy="186.2" rx="3.6" ry="3.6"/>
				</g>
				<path id="XMLID_2_" class="st0" d="M180.1,197.2c-0.6,0.1-1.1-0.3-1.4-0.9l-0.4-1.4c-2.3,0.1-3.6,0.1-5.5-0.9l0.4,1.4
					c0.1,0.6-0.3,1.1-0.9,1.4c-0.6,0.1-1.1-0.3-1.4-0.9l-1.6-6.4c-0.1-0.6,0.3-1.1,0.9-1.4c0.6-0.3,1.1,0.3,1.4,0.9l0.6,2.4
					c1.4,1,2.3,1.1,4.3,1.6c0.6,0,1,0.1,1.6,0.1l-2.3-9.9c-2.1-0.1-3.7-0.3-4.7-0.6c-1.1-0.3-2.1-0.7-2.8-1.6
					c-0.7-0.6-1.4-1.6-1.7-2.7c-0.6-2-0.3-3.8,0.9-5.3c1-1.4,2.8-2.6,5.5-3.3l-0.3-1.3c-0.1-0.6,0.3-1.1,0.9-1.4
					c0.6-0.3,1.1,0.3,1.4,0.9l0.4,1.4c1.8-0.1,3.7,0.1,5.3,0.7c0.4,0.3,0.3,0.4,0.6,0.6l-0.4-1.4c-0.1-0.6,0.3-1.1,0.9-1.4
					c0.6-0.1,1.1,0.3,1.4,0.9l1.6,6.4c0.1,0.6-0.3,1.1-0.9,1.4s-1.1-0.3-1.4-0.9l-0.6-2.1c-1.4-1-2.7-1.8-4.5-2
					c-0.6,0-1-0.1-1.6-0.1l2.1,9.2c0.4,0.1,0.7,0,1.7,0.1c1.3,0,2.7,0.3,3.7,0.6c1.1,0.3,2.1,0.7,2.8,1.6c0.7,0.9,1.4,1.7,1.7,2.7
					c0.6,2.1,0.1,4-1.1,5.7c-1.1,1.6-3.1,2.7-5.8,3.3l0.3,1.3C181.2,196.7,180.8,197.1,180.1,197.2 M175.1,193.8
					c0.3,0.1,0.4,0.1,0.6,0C175.7,194,175.2,193.8,175.1,193.8 M177.9,183.3l2.1,9.4c2-0.6,3.7-1.4,4.5-2.6c0.9-1.1,1.3-2.4,0.9-3.8
					c-0.1-0.7-0.6-1.4-1-1.7c-0.6-0.6-1.4-0.9-2.1-1c-0.9-0.1-1.7-0.3-2.6-0.3L177.9,183.3L177.9,183.3z M185.6,190.4
					c-0.1,0.3-0.3,0.4-0.4,0.6c-0.3,0.3-0.4,0.4-0.6,0.6c0.3-0.3,0.6-0.6,0.7-0.9C185.6,190.6,185.8,190.6,185.6,190.4 M173.4,172.1
					c-2,0.6-3.3,1.3-4,2.3c-0.7,1-1,2.1-0.6,3.4c0.1,0.7,0.6,1.4,1,1.7c0.6,0.6,1.4,0.9,2.1,1c0.9,0.1,1.7,0.3,2.4,0.3
					c0.6,0,0.9,0.1,1.1,0L173.4,172.1L173.4,172.1z"/>
				<g id="XMLID_3360_">
					<g id="XMLID_3377_">
						<path id="XMLID_3378_" class="st4" d="M237.6,209.9c-1.7,0.4-2.7,2.1-2.4,3.8l1.6-0.4c-0.3-0.9,0.3-1.7,1.3-1.8
							c1-0.3,1.7,0.3,1.8,1.3l1.6-0.4C241,210.6,239.4,209.5,237.6,209.9z"/>
					</g>
					<g id="XMLID_3375_">
						<path id="XMLID_3376_" class="st4" d="M229.6,211.7c-1.7,0.4-2.7,2.1-2.4,3.8l1.6-0.4c-0.3-0.9,0.3-1.7,1.3-1.8
							c1-0.3,1.7,0.3,1.8,1.3l1.6-0.4C233,212.4,231.2,211.3,229.6,211.7z"/>
					</g>
					<g id="XMLID_3373_">
						<path id="XMLID_3374_" class="st4" d="M246,208c-1.7,0.4-2.7,2.1-2.4,3.8l1.6-0.4c-0.3-0.9,0.3-1.7,1.3-1.8
							c1-0.1,1.7,0.3,1.8,1.3l1.6-0.4C249.4,208.6,247.5,207.6,246,208z"/>
					</g>
					<g id="XMLID_3371_">
						<path id="XMLID_3372_" class="st4" d="M213.2,215.4c-1.7,0.4-2.7,2.1-2.4,3.8l1.6-0.4c-0.3-0.9,0.3-1.7,1.3-1.8
							c0.9-0.3,1.7,0.3,1.8,1.3l1.6-0.4C216.6,216.1,215,215,213.2,215.4z"/>
					</g>
					<g id="XMLID_3369_">
						<path id="XMLID_3370_" class="st4" d="M205.1,217.3c-1.7,0.4-2.7,2.1-2.4,3.8l1.6-0.4c-0.3-0.9,0.3-1.7,1.3-1.8
							c1-0.3,1.7,0.3,1.8,1.3l1.6-0.4C208.5,218.1,206.6,217,205.1,217.3z"/>
					</g>
					<g id="XMLID_3367_">
						<path id="XMLID_3368_" class="st4" d="M221.3,213.7c-1.7,0.4-2.7,2.1-2.4,3.8l1.6-0.4c-0.3-0.9,0.3-1.7,1.3-1.8
							c1-0.3,1.7,0.3,1.8,1.3l1.6-0.4C224.8,214.3,223.1,213.1,221.3,213.7z"/>
					</g>
					<g id="XMLID_3365_">
						<path id="XMLID_3366_" class="st4" d="M262.2,204.2c-1.7,0.4-2.7,2.1-2.4,3.8l1.6-0.4c-0.3-0.9,0.3-1.7,1.3-1.8
							c1-0.3,1.7,0.3,1.8,1.3l1.6-0.4C265.7,205.1,264,203.9,262.2,204.2z"/>
					</g>
					<g id="XMLID_3363_">
						<path id="XMLID_3364_" class="st4" d="M254.1,206c-1.7,0.4-2.7,2.1-2.4,3.8l1.6-0.4c-0.3-0.9,0.3-1.7,1.3-1.8
							c1-0.1,1.7,0.3,1.8,1.3l1.6-0.4C257.3,206.9,255.6,205.8,254.1,206z"/>
					</g>
					<g id="XMLID_3361_">
						<path id="XMLID_3362_" class="st4" d="M270.4,202.4c-1.7,0.4-2.7,2.1-2.4,3.8l1.6-0.4c-0.3-0.9,0.3-1.7,1.3-1.8
							c1-0.3,1.7,0.3,1.8,1.3l1.6-0.4C273.8,203.1,272,201.9,270.4,202.4z"/>
					</g>
				</g>
				<g id="XMLID_9_">
					<g id="XMLID_27_">
						<path id="XMLID_28_" class="st4" d="M219.3,129.5c1.7-0.4,2.7-2.1,2.4-3.8l-1.6,0.4c0.3,0.9-0.3,1.7-1.3,1.8
							c-1,0.3-1.7-0.3-1.8-1.3l-1.6,0.4C215.7,128.8,217.6,129.9,219.3,129.5z"/>
					</g>
					<g id="XMLID_25_">
						<path id="XMLID_26_" class="st4" d="M227.5,127.6c1.7-0.4,2.7-2.1,2.4-3.8l-1.6,0.4c0.3,0.9-0.3,1.7-1.3,1.8
							c-1,0.1-1.7-0.3-1.8-1.3l-1.6,0.4C224.1,126.9,225.7,127.9,227.5,127.6z"/>
					</g>
					<g id="XMLID_23_">
						<path id="XMLID_24_" class="st4" d="M211,131.3c1.7-0.4,2.7-2.1,2.4-3.8l-1.6,0.4c0.3,0.9-0.3,1.7-1.3,1.8
							c-1,0.3-1.7-0.3-1.8-1.3l-1.6,0.4C207.6,130.8,209.5,131.8,211,131.3z"/>
					</g>
					<g id="XMLID_21_">
						<path id="XMLID_22_" class="st4" d="M243.8,123.8c1.7-0.4,2.7-2.1,2.4-3.8l-1.6,0.4c0.3,0.9-0.3,1.7-1.3,1.8
							c-1,0.3-1.7-0.3-1.8-1.3l-1.6,0.4C240.3,123.2,242,124.4,243.8,123.8z"/>
					</g>
					<g id="XMLID_19_">
						<path id="XMLID_20_" class="st4" d="M251.9,122.1c1.7-0.4,2.7-2.1,2.4-3.8l-1.6,0.4c0.3,0.9-0.3,1.7-1.3,1.8
							c-1,0.3-1.7-0.3-1.8-1.3l-1.6,0.4C248.5,121.3,250.1,122.4,251.9,122.1z"/>
					</g>
					<g id="XMLID_17_">
						<path id="XMLID_18_" class="st4" d="M235.5,125.7c1.7-0.4,2.7-2.1,2.4-3.8l-1.6,0.4c0.3,0.9-0.3,1.7-1.3,1.8
							c-1,0.3-1.7-0.3-1.8-1.3l-1.6,0.4C232.1,125.1,233.9,126.2,235.5,125.7z"/>
					</g>
					<g id="XMLID_15_">
						<path id="XMLID_16_" class="st4" d="M194.8,135.2c1.7-0.4,2.7-2.1,2.4-3.8l-1.6,0.4c0.3,0.9-0.3,1.7-1.3,1.8
							c-0.9,0.3-1.7-0.3-1.8-1.3l-1.6,0.4C191.3,134.3,193.1,135.5,194.8,135.2z"/>
					</g>
					<g id="XMLID_13_">
						<path id="XMLID_14_" class="st4" d="M202.9,133.2c1.7-0.4,2.7-2.1,2.4-3.8l-1.6,0.4c0.3,0.9-0.3,1.7-1.3,1.8
							c-1,0.3-1.7-0.3-1.8-1.3l-1.6,0.4C199.5,132.6,201.1,133.6,202.9,133.2z"/>
					</g>
					<g id="XMLID_11_">
						<path id="XMLID_12_" class="st4" d="M186.6,137c1.7-0.4,2.7-2.1,2.4-3.8l-1.6,0.4c0.3,0.9-0.3,1.7-1.3,1.8
							c-1,0.3-1.7-0.3-1.8-1.3l-1.6,0.4C183.2,136.3,184.9,137.4,186.6,137z"/>
					</g>
				</g>
			</g>
			<circle class="st3" cx="228.6" cy="168.8" r="39.2"/>
			<g>
				<ellipse class="st2" cx="228.8" cy="168.8" rx="33.8" ry="33.8"/>
			</g>
			<g>
				<text transform="matrix(0.9747 -0.2237 0.2237 0.9747 202.9086 192.4467)" class="st0 st5 st6">20</text>
			</g>
		</g>
		<g>
			<g>
				<g>
					<g>
						<path class="st7" d="M326.1,297.7c-28,0-50.7-22.7-50.7-50.7s22.7-50.7,50.7-50.7c28,0,50.7,22.7,50.7,50.7
							S354.2,297.7,326.1,297.7z"/>
					</g>
					<circle class="st8" cx="326.1" cy="247" r="36.6"/>
				</g>
				<g>
					<g>
						<ellipse class="st9" cx="326.1" cy="247" rx="40.9" ry="40.9"/>
					</g>
				</g>
				<g>
					<g class="st10">
						<path class="st11" d="M334.8,258.2c0,1.6-0.9,2.4-2.7,2.4h-14.9c-1.7,0-2.7-0.7-2.7-2.4c0-1.6,0.9-2.3,2.7-2.3h4.7v-20.2
							l-4.3,2.7c-0.4,0.3-0.7,0.4-1.1,0.4c-0.6,0-1.1-0.3-1.6-0.7s-0.6-1.1-0.6-1.7c0-0.9,0.4-1.6,1.1-2l6.8-4.3
							c0.9-0.6,1.7-0.7,2.6-0.7c0.9,0,1.6,0.3,2,0.7c0.6,0.6,0.7,1.1,0.7,2.1v23.9h4.7C333.8,255.9,334.8,256.7,334.8,258.2z"/>
						<path class="st11" d="M337.1,256.8c-1.8-2.7-2.8-6.7-2.8-11.9c0-5.1,1-9.2,2.8-11.8c1.8-2.7,4.8-4,8.4-4s6.5,1.4,8.4,4
							c1.8,2.7,2.8,6.7,2.8,11.8s-1,9.2-2.8,11.8c-1.8,2.7-4.8,4.1-8.4,4.1C341.9,260.9,339.2,259.6,337.1,256.8z M350,253.7
							c0.9-1.8,1.4-4.8,1.4-8.8s-0.6-7-1.4-8.8c-0.9-1.8-2.4-2.7-4.4-2.7c-2,0-3.6,0.9-4.4,2.7c-0.9,1.8-1.4,4.8-1.4,8.8
							s0.6,7,1.4,8.8c0.9,1.8,2.4,2.7,4.4,2.7C347.6,256.4,349.1,255.5,350,253.7z"/>
					</g>
				</g>
			</g>
			<path id="XMLID_1_" class="st11" d="M304.5,257.4c-0.6,0-0.7-0.3-0.7-0.7v-1c-1.6-0.3-2.6-0.6-3.8-1.6v1c0,0.6-0.3,0.7-0.7,0.7
				s-0.7-0.3-0.7-0.7v-4.7c0-0.6,0.3-0.7,0.7-0.7s0.7,0.3,0.7,0.7v1.7c0.7,0.9,1.4,1.1,2.7,1.7c0.4,0.1,0.6,0.3,1.1,0.3v-7.2
				c-1.6-0.4-2.6-0.7-3.3-1.1c-0.7-0.4-1.4-0.9-1.8-1.6c-0.6-0.6-0.6-1.3-0.6-2.1c0-1.6,0.6-2.7,1.6-3.6c0.9-0.9,2.4-1.3,4.3-1.4v-1
				c0-0.6,0.3-0.7,0.7-0.7c0.6,0,0.7,0.3,0.7,0.7v1.1c1.4,0.3,2.6,0.7,3.6,1.4c0.3,0.1,0.1,0.4,0.3,0.6v-1.1c0-0.6,0.3-0.7,0.7-0.7
				c0.6,0,0.7,0.3,0.7,0.7v4.7c0,0.6-0.3,0.7-0.7,0.7c-0.6,0-0.7-0.3-0.7-0.7V241c-0.9-0.9-1.7-1.7-2.7-2.1c-0.3-0.1-0.6-0.3-1-0.3
				v6.8c0.3,0,0.6,0.1,1.1,0.3c0.9,0.3,1.7,0.6,2.6,0.9c0.9,0.3,1.4,0.9,1.8,1.6c0.4,0.7,0.6,1.4,0.6,2.1c0,1.7-0.6,2.8-1.7,3.8
				c-1,0.9-2.7,1.4-4.5,1.4v1C305.2,257.1,305,257.4,304.5,257.4 M301.6,254.1c0.1,0,0.3,0.1,0.4,0.1
				C301.7,254.2,301.7,254.1,301.6,254.1 M305.2,247.1v7c1.6,0,2.7-0.4,3.6-1c0.9-0.6,1.3-1.6,1.3-2.6c0-0.6-0.1-1-0.6-1.4
				s-0.7-0.7-1.4-1c-0.6-0.3-1.1-0.6-1.7-0.6L305.2,247.1z M309.5,253.4c-0.1,0.1-0.3,0.3-0.4,0.3c-0.1,0.1-0.4,0.3-0.6,0.4
				c0.3-0.1,0.6-0.3,0.6-0.6C309.5,253.5,309.5,253.4,309.5,253.4 M303.8,238.8c-1.6,0-2.6,0.4-3.3,0.9c-0.7,0.6-1.1,1.4-1.1,2.3
				c0,0.6,0.1,1,0.6,1.4s0.7,0.7,1.4,1c0.6,0.3,1.1,0.6,1.7,0.6c0.3,0.1,0.6,0.1,0.9,0.3v-6.4H303.8z"/>
		</g>
		<g>
			<g>
				<g>
					<g>
						<path class="st12" d="M100.9,187.7c-23.6,0-42.9-19.3-42.9-42.9s19.3-42.9,42.9-42.9c23.6,0,42.9,19.3,42.9,42.9
							S124.6,187.7,100.9,187.7z"/>
					</g>
					<circle class="st13" cx="100.9" cy="144.8" r="28.1"/>
					<g>
						<g>
							<text transform="matrix(1 0 0 1 93.5244 157.3135)" class="st14 st5 st15 st16">2</text>
						</g>
					</g>
				</g>
				<g>
					<g>
						
							<ellipse transform="matrix(0.9871 -0.1602 0.1602 0.9871 -21.8987 18.0369)" class="st17" cx="100.9" cy="144.8" rx="34.5" ry="34.5"/>
					</g>
				</g>
			</g>
			<path id="XMLID_3_" class="st14" d="M87.3,154.1c-0.4,0-0.6-0.2-0.6-0.6v-0.9c-1.3-0.2-2.1-0.4-3.2-1.3v0.9
				c0,0.4-0.2,0.6-0.6,0.6c-0.4,0-0.6-0.2-0.6-0.6v-3.9c0-0.4,0.2-0.6,0.6-0.6c0.4,0,0.6,0.2,0.6,0.6v1.4c0.6,0.7,1.2,1,2.3,1.4
				c0.3,0.1,0.5,0.2,1,0.2v-6.1c-1.3-0.3-2.1-0.6-2.8-1c-0.6-0.3-1.2-0.7-1.6-1.3c-0.4-0.5-0.5-1.1-0.5-1.8c0-1.3,0.4-2.2,1.3-3
				c0.7-0.7,2-1.1,3.6-1.2v-0.9c0-0.4,0.2-0.6,0.6-0.6c0.4,0,0.6,0.2,0.6,0.6v1c1.2,0.2,2.1,0.6,3,1.2c0.2,0.1,0.1,0.3,0.2,0.4v-0.9
				c0-0.4,0.2-0.6,0.6-0.6c0.4,0,0.6,0.2,0.6,0.6v3.9c0,0.4-0.2,0.6-0.6,0.6c-0.4,0-0.6-0.2-0.6-0.6v-1.4c-0.7-0.7-1.4-1.4-2.3-1.8
				c-0.2-0.1-0.5-0.2-0.9-0.2v5.7c0.2,0,0.5,0.1,1,0.2c0.7,0.2,1.5,0.4,2.1,0.7s1.2,0.7,1.6,1.3c0.4,0.5,0.5,1.2,0.5,1.8
				c0,1.4-0.4,2.4-1.4,3.2c-0.9,0.7-2.2,1.2-3.8,1.2v0.9C87.9,153.9,87.6,154.1,87.3,154.1 M84.7,151.3c0.1,0,0.2,0.1,0.3,0.1
				C84.9,151.4,84.8,151.3,84.7,151.3 M87.9,145.5v5.9c1.3,0,2.3-0.3,3-0.9c0.7-0.5,1.1-1.3,1.1-2.1c0-0.4-0.1-0.9-0.4-1.2
				c-0.3-0.3-0.6-0.6-1.2-0.9c-0.4-0.2-1-0.4-1.5-0.5L87.9,145.5z M91.5,150.8c-0.1,0.1-0.2,0.2-0.3,0.2c-0.1,0.1-0.3,0.2-0.5,0.3
				c0.2-0.1,0.4-0.2,0.5-0.4C91.4,150.9,91.4,150.8,91.5,150.8 M86.6,138.3c-1.3,0-2.1,0.3-2.8,0.7c-0.6,0.5-1,1.2-1,1.9
				c0,0.4,0.1,0.9,0.4,1.2c0.3,0.3,0.6,0.6,1.2,0.9c0.4,0.2,1,0.4,1.4,0.5c0.2,0.1,0.5,0.1,0.7,0.2V138.3L86.6,138.3z"/>
		</g>
		<g>
			<g>
				<g>
					<g>
						<path class="st12" d="M75.3,290.9c-23.6,0-42.9-19.3-42.9-42.9s19.3-42.9,42.9-42.9c23.6,0,42.9,19.3,42.9,42.9
							S99.1,290.9,75.3,290.9z"/>
					</g>
					<circle class="st13" cx="75.3" cy="248" r="28.1"/>
					<g>
						<g>
							<text transform="matrix(1 0 0 1 67.959 260.5234)" class="st14 st5 st15 st16">2</text>
						</g>
					</g>
				</g>
				<g>
					<g>
						
							<ellipse transform="matrix(0.9871 -0.1602 0.1602 0.9871 -38.7629 15.2743)" class="st17" cx="75.3" cy="248" rx="34.5" ry="34.5"/>
					</g>
				</g>
			</g>
			<path id="XMLID_4_" class="st14" d="M61.7,257.3c-0.4,0-0.6-0.2-0.6-0.6v-0.9c-1.3-0.2-2.1-0.4-3.2-1.3v0.9
				c0,0.4-0.2,0.6-0.6,0.6s-0.6-0.2-0.6-0.6v-3.9c0-0.4,0.2-0.6,0.6-0.6s0.6,0.2,0.6,0.6v1.4c0.6,0.7,1.2,1,2.3,1.4
				c0.3,0.1,0.5,0.2,1,0.2v-6.1c-1.3-0.3-2.1-0.6-2.8-1c-0.6-0.3-1.2-0.7-1.6-1.3c-0.4-0.5-0.5-1.1-0.5-1.8c0-1.3,0.4-2.2,1.3-3
				c0.7-0.7,2-1.1,3.6-1.2v-0.9c0-0.4,0.2-0.6,0.6-0.6s0.6,0.2,0.6,0.6v1c1.2,0.2,2.1,0.6,3,1.2c0.2,0.1,0.1,0.3,0.2,0.4V241
				c0-0.4,0.2-0.6,0.6-0.6c0.4,0,0.6,0.2,0.6,0.6v3.9c0,0.4-0.2,0.6-0.6,0.6c-0.4,0-0.6-0.2-0.6-0.6v-1.4c-0.7-0.7-1.4-1.4-2.3-1.8
				c-0.2-0.1-0.5-0.2-0.9-0.2v5.7c0.2,0,0.5,0.1,1,0.2c0.7,0.2,1.5,0.4,2.1,0.7s1.2,0.7,1.6,1.3c0.4,0.5,0.5,1.2,0.5,1.8
				c0,1.4-0.4,2.4-1.4,3.2c-0.9,0.7-2.2,1.2-3.8,1.2v0.9C62.4,257.1,62,257.3,61.7,257.3 M59.2,254.5c0.1,0,0.2,0.1,0.3,0.1
				C59.4,254.6,59.3,254.5,59.2,254.5 M62.4,248.7v5.9c1.3,0,2.3-0.3,3-0.9c0.7-0.5,1.1-1.3,1.1-2.1c0-0.4-0.1-0.9-0.4-1.2
				c-0.3-0.3-0.6-0.6-1.2-0.9c-0.4-0.2-1-0.4-1.5-0.5L62.4,248.7z M66,254c-0.1,0.1-0.2,0.2-0.3,0.2c-0.1,0.1-0.3,0.2-0.5,0.3
				c0.2-0.1,0.4-0.2,0.5-0.4C65.9,254.1,65.9,254,66,254 M61.1,241.5c-1.3,0-2.1,0.3-2.8,0.7c-0.6,0.5-1,1.2-1,1.9
				c0,0.4,0.1,0.9,0.4,1.2c0.3,0.3,0.6,0.6,1.2,0.9c0.4,0.2,1,0.4,1.4,0.5c0.2,0.1,0.5,0.1,0.7,0.2V241.5L61.1,241.5z"/>
		</g>
		<g>
			<g>
				<g>
					<circle class="st12" cx="193.3" cy="285.7" r="37.7"/>
				</g>
				<circle class="st12" cx="193.3" cy="285.7" r="24.7"/>
				<g>
					<text transform="matrix(1 0 0 1 186.792 296.7246)" class="st14 st5 st18">1</text>
				</g>
			</g>
			<g>
				<g>
					<ellipse class="st19" cx="193.3" cy="285.7" rx="30.3" ry="30.3"/>
				</g>
			</g>
			<path id="XMLID_105_" class="st14" d="M181.3,293.9c-0.4,0-0.6-0.2-0.6-0.6v-0.7c-1.1-0.2-1.9-0.4-2.8-1.1v0.7
				c0,0.4-0.2,0.6-0.6,0.6s-0.6-0.2-0.6-0.6v-3.5c0-0.4,0.2-0.6,0.6-0.6s0.6,0.2,0.6,0.6v1.2c0.6,0.7,1,0.8,2.1,1.2
				c0.3,0.1,0.5,0.2,0.8,0.2V286c-1.1-0.3-1.9-0.6-2.4-0.8s-1-0.7-1.4-1.1c-0.4-0.5-0.5-0.9-0.5-1.6c0-1.1,0.4-2,1.1-2.6
				c0.7-0.7,1.8-0.9,3.2-1v-0.7c0-0.4,0.2-0.6,0.6-0.6s0.6,0.2,0.6,0.6v0.8c1,0.2,1.9,0.6,2.6,1c0.2,0.1,0.1,0.3,0.2,0.4v-0.7
				c0-0.4,0.2-0.6,0.6-0.6s0.6,0.2,0.6,0.6v3.5c0,0.4-0.2,0.6-0.6,0.6s-0.6-0.2-0.6-0.6v-1.2c-0.7-0.7-1.2-1.2-2.1-1.6
				c-0.2-0.1-0.5-0.2-0.7-0.2v5.1c0.2,0,0.5,0.1,0.8,0.2c0.7,0.2,1.3,0.4,1.9,0.7c0.6,0.3,1,0.7,1.4,1.1c0.4,0.5,0.5,1,0.5,1.6
				c0,1.2-0.4,2.2-1.2,2.8c-0.7,0.7-2,1-3.4,1v0.7C181.9,293.7,181.6,293.9,181.3,293.9 M179.1,291.5c0.1,0,0.2,0.1,0.3,0.1
				C179.2,291.6,179.2,291.5,179.1,291.5 M181.9,286.3v5.1c1.1,0,2.1-0.3,2.6-0.7c0.7-0.5,0.9-1.1,0.9-1.9c0-0.4-0.1-0.7-0.4-1
				s-0.6-0.6-1-0.7c-0.4-0.2-0.8-0.4-1.3-0.5L181.9,286.3z M185.1,291c-0.1,0.1-0.2,0.2-0.3,0.2c-0.1,0.1-0.3,0.2-0.5,0.3
				c0.2-0.1,0.4-0.2,0.5-0.4C185,291.1,185.1,291,185.1,291 M180.7,280c-1.1,0-1.9,0.3-2.4,0.7c-0.6,0.5-0.8,1-0.8,1.7
				c0,0.4,0.1,0.7,0.4,1s0.6,0.6,1,0.7c0.4,0.2,0.8,0.4,1.2,0.5c0.2,0.1,0.5,0.1,0.7,0.2V280L180.7,280z"/>
		</g>
	</g>
</g>
</svg>
