<?xml version="1.0" encoding="utf-8"?>
<!-- Generator: Adobe Illustrator 22.0.1, SVG Export Plug-In . SVG Version: 6.00 Build 0)  -->
<svg version="1.1" id="Layer_1" xmlns="http://www.w3.org/2000/svg" xmlns:xlink="http://www.w3.org/1999/xlink" x="0px" y="0px"
	 viewBox="0 0 400 400" style="enable-background:new 0 0 400 400;" xml:space="preserve">
<style type="text/css">
	.st0{fill:#FFFFFF;}
	.st1{fill:none;stroke:#000000;stroke-width:5.0197;stroke-linecap:round;stroke-linejoin:round;stroke-miterlimit:10;}
	.st2{fill:#F37720;}
	.st3{font-family:'Nunito-Bold';}
	.st4{font-size:37.0341px;}
	.st5{font-size:19.2429px;}
	.st6{fill:#E0E0E2;}
	.st7{fill:#9CDD05;}
	.st8{fill:#91CC04;}
	.st9{fill:#DBD3C0;}
	.st10{fill:#ED242D;}
	.st11{fill:#0080A4;}
</style>
<g>
	<g>
		<path class="st0" d="M148.1,138.4c-1.3,0-2.4-0.4-3.4-1.1c0,0-0.1,0-0.1,0c-0.7,0.3-1.5,0.5-2.3,0.5c-0.4,0-0.8,0-1.2-0.1
			c-6.7-1.4-12.9-4.7-17.8-9.5c-4.9-4.8-8.4-10.9-10-17.5c-0.3-1.2-0.2-2.5,0.2-3.6c0,0,0-0.1,0-0.1c-0.7-0.9-1.1-2.1-1.2-3.4
			c-0.2-6.3,1.1-12.4,3.9-17.8l-14,14.1c0,0-0.1,0.1-0.1,0.1c-2.3,2.2-5.3,3.3-8.4,3.3l0,0c-0.2,0-0.4,0-0.6,0c-0.1,0-0.2,0-0.3,0
			l-53.8-5.7c-3.1-0.2-5.9-1.6-7.9-3.9c-2.1-2.4-3.2-5.5-2.9-8.6l2.9-42.3c0.3-6.1,5.4-11,11.7-11c0.3,0,0.6,0,0.8,0
			c0.1,0,54.1,5.8,54.1,5.8c3.4,0.3,6.5,2,8.4,4.7l16.9,22.3c0.9,1.2,1.6,2.6,2,4.1c0.4,0.2,0.7,0.4,1,0.6c1.1,0.6,2.3,1.3,3.4,2
			c5.7-3.5,12.4-5.5,19.1-5.5l0.3,0c1.3,0,2.4,0.4,3.4,1.1c0,0,0.1,0,0.1,0c0.7-0.3,1.5-0.5,2.3-0.5c0.4,0,0.8,0,1.2,0.1
			c6.7,1.4,12.9,4.7,17.8,9.5c4.9,4.8,8.4,10.9,10,17.5c0.3,1.2,0.2,2.5-0.2,3.6c0,0,0,0.1,0,0.1c0.7,0.9,1.1,2.1,1.2,3.4
			c0.4,10-3.2,19.5-10.2,26.7c-6.9,7.1-16.1,11-26,11L148.1,138.4z"/>
		<path class="st0" d="M42.6,36.6c0.2,0,0.3,0,0.5,0L97,42.4c2,0.2,3.8,1.1,4.9,2.7l16.9,22.4c1,1.3,1.5,2.9,1.4,4.5
			c0.8,0.3,1.5,0.7,2.3,1.1c0.2,0.1,0.4,0.2,0.5,0.4c2,1.1,4.1,2.3,6.2,3.9c5.6-4.3,12.3-6.5,19.1-6.5c0.1,0,0.2,0,0.3,0
			c0.5,0,0.9,0.4,1,0.9c1.3,0.1,2.6,0.2,3.9,0.4c0.1-0.4,0.5-0.7,1-0.7c0.1,0,0.1,0,0.2,0c5.6,1.2,11,3.9,15.4,8.2
			c4.4,4.3,7.3,9.6,8.6,15.1c0.1,0.5-0.2,1-0.7,1.2c0.3,1.3,0.4,2.6,0.5,3.9c0.5,0,0.9,0.4,1,1c0.3,8.3-2.6,16.6-8.8,23
			c-6.1,6.3-14.3,9.5-22.5,9.5c-0.1,0-0.2,0-0.3,0c-0.5,0-0.9-0.4-1-0.9c-1.3-0.1-2.6-0.2-3.9-0.4c-0.1,0.4-0.5,0.7-1,0.7
			c-0.1,0-0.1,0-0.2,0c-5.6-1.2-11-3.9-15.4-8.2c-4.4-4.3-7.3-9.6-8.6-15.1c-0.1-0.5,0.2-1,0.7-1.2c-0.3-1.3-0.4-2.6-0.5-3.9
			c-0.5,0-0.9-0.4-1-1c-0.3-8.1,2.5-16.2,8.4-22.6c-2.6-1.8-5.1-3.1-7.5-4.2L98.5,96.2c-1.4,1.3-3.1,2-5,2c-0.1,0-0.2,0-0.3,0
			l-53.9-5.8c-3.7-0.2-6.6-3.4-6.3-7.2L35.9,43C36.1,39.4,39,36.6,42.6,36.6 M101.1,68c0.4,0,0.8,0,1.2,0c1.5,0,3.5,0.1,5.8,0.5
			c0.5,0.1,1.1,0.2,1.7,0.3c-0.7-1.7-2.3-2.9-4.2-3c-0.1,0-0.2,0-0.3,0C103.6,65.7,102,66.6,101.1,68 M105.3,75.7
			c1.6,0,3-0.7,3.9-1.9c-3.1-0.6-5.1-0.6-5.1-0.6c0,0,0,0-0.1,0c-0.2,0-0.5,0-0.7-0.1c-0.3,0-0.7,0-1,0c-0.6,0-1.1,0-1.5,0
			c0.8,1.4,2.3,2.5,4.1,2.6C105.1,75.7,105.2,75.7,105.3,75.7 M42.6,26.6C42.6,26.6,42.6,26.6,42.6,26.6c-8.9,0-16.2,6.9-16.7,15.7
			L23,84.6c-0.3,4.5,1.2,8.9,4.2,12.3c2.9,3.3,6.9,5.3,11.3,5.6l53.7,5.7c0.2,0,0.4,0,0.6,0c0.3,0,0.5,0,0.8,0
			c4.4,0,8.6-1.7,11.8-4.7c0.1-0.1,0.2-0.2,0.3-0.3l1.5-1.5c0,0.6,0,1.3,0,2c0.1,1.4,0.4,2.7,0.9,4c-0.2,1.3-0.1,2.7,0.2,4.1
			c1.8,7.6,5.8,14.5,11.4,20c5.6,5.5,12.7,9.2,20.3,10.8c0.7,0.2,1.5,0.2,2.2,0.2c0.6,0,1.2-0.1,1.8-0.2c1.2,0.5,2.6,0.8,4,0.8
			l0.4,0c11.3,0,21.8-4.5,29.6-12.5c7.9-8.2,12.1-19,11.6-30.4c-0.1-1.4-0.4-2.7-0.9-4c0.2-1.3,0.1-2.7-0.2-4.1
			c-1.8-7.6-5.8-14.5-11.4-20c-5.6-5.5-12.7-9.2-20.3-10.8c-0.7-0.2-1.5-0.2-2.2-0.2c-0.6,0-1.2,0.1-1.8,0.2c-1.2-0.5-2.6-0.8-4-0.8
			l-0.4,0c-6.6,0-13.2,1.6-19.1,4.7c-0.1-0.1-0.3-0.1-0.4-0.2c-0.6-1.4-1.3-2.6-2.2-3.8L110,39.2c-2.8-3.8-7.1-6.2-12-6.7l-53.9-5.7
			c-0.1,0-0.2,0-0.3,0C43.4,26.7,43,26.6,42.6,26.6L42.6,26.6L42.6,26.6z"/>
	</g>
	<g>
		<path class="st0" d="M164.7,379.4c-0.5,0-1,0-1.4-0.1c-1.6-0.2-3.1-0.7-4.4-1.6l-6.4-3.9c-1.3-0.8-2.4-1.8-3.3-3.1
			c-2.6-3.7-2.8-8.6-0.4-12.5l55.2-90c-5.9-4.9-12-8.4-18.3-10.3l-13.1,20.3c0,0.1-0.1,0.1-0.1,0.2c-1.9,2.8-4.8,4.6-8.1,5.1
			c-0.1,0-0.2,0-0.3,0l-53.8,5.5c-0.6,0.1-1.1,0.1-1.7,0.1c-5.8,0-10.8-4.4-11.6-10.1l-6-42c-0.5-3,0.3-6.1,2.2-8.6
			c1.9-2.6,4.7-4.2,7.8-4.7c0.1,0,54.1-5.6,54.1-5.6c0.4-0.1,0.9-0.1,1.4-0.1c2.9,0,5.7,1,7.8,2.9l21.1,18.4c1.2,1,2.1,2.2,2.8,3.6
			c0.4,0.1,0.8,0.2,1.1,0.4c7.7,2.3,15.2,6.2,22.3,11.8l7.6-12.3c1.7-2.8,4.5-4.7,7.7-5.2c7.3-14.6,10.3-31.4,8.4-47.6l-0.3-2.5
			c-3-6.9-4.9-14.6-5.6-22.8c-1.6-19.8,3.9-41.3,15.6-60.4c7.8-12.7,17.9-23.6,29.2-31.7c5.6-4,11.5-7.2,17.5-9.7
			c8.8-3.6,17.7-5.5,26.2-5.5c10.3,0,19.8,2.6,28.2,7.8c15.5,9.5,25.1,26.4,26.8,47.5c0.5,6.5,0.3,13.2-0.7,20
			c-2,13.8-7.2,27.7-15,40.4c-11.7,19.1-28.3,33.8-46.7,41.4c-8.4,3.4-16.8,5.3-24.9,5.4c-16,6-29.6,16.4-39.5,30.3
			c0.6,2.8,0.2,5.8-1.4,8.4L174.3,374C172.2,377.4,168.6,379.4,164.7,379.4C164.7,379.4,164.7,379.4,164.7,379.4z M252.9,210
			c-0.3,3.2-0.8,6.4-1.4,9.5c2.5-2,5.1-3.9,7.7-5.6c-1-0.5-2-1.1-3-1.7C255.1,211.6,254,210.8,252.9,210z M273.9,197.1
			c1,0.3,1.9,0.6,2.9,0.8l2.9-4.8l-2.5-1.5L273.9,197.1z M301.7,189.9l1-1.6l-2.5-1.5l-1,1.6L301.7,189.9z M259.8,187.4
			c0.6,0.8,1.3,1.5,2,2.2l3.4-5.5l-2.5-1.5L259.8,187.4z M287.2,181l1-1.6l-2.5-1.5l-1,1.6L287.2,181z M310.1,176.2l1.5-2.5
			l-2.5-1.5l-1.5,2.5L310.1,176.2z M272.6,172.1l1-1.6l-2.5-1.5l-1,1.6L272.6,172.1z M333.5,170.5c0.6-0.8,1.2-1.5,1.8-2.3l-2.6-1.6
			l-1.5,2.5L333.5,170.5z M295.6,167.3l1.5-2.5l-2.5-1.5l-1.5,2.5L295.6,167.3z M258,163.1l1-1.6l-2.5-1.5l-1,1.6L258,163.1z
			 M319.1,161.7l1.5-2.5l-2.5-1.5l-1.5,2.5L319.1,161.7z M281,158.4l1.5-2.5l-2.5-1.5l-1.5,2.5L281,158.4z M342.7,156.1
			c0.4-0.9,0.9-1.7,1.3-2.6l-2.4-1.4l-1.5,2.5L342.7,156.1z M304.5,152.7l1.5-2.5l-2.5-1.5l-1.5,2.5L304.5,152.7z M266.4,149.4
			l1.5-2.5l-2.5-1.5l-1.5,2.5L266.4,149.4z M328,147.1l1.5-2.5l-2.5-1.5l-1.5,2.5L328,147.1z M289.9,143.8l1.5-2.5l-2.5-1.5
			l-1.5,2.5L289.9,143.8z M349.1,140c0-0.1,0.1-0.2,0.1-0.3L349.1,140L349.1,140z M313.4,138.1l1.5-2.5l-2.5-1.5l-1.5,2.5
			L313.4,138.1z M275.3,134.9l1.5-2.5l-2.5-1.5l-1.5,2.5L275.3,134.9z M337,132.5l1.5-2.5l-2.5-1.5l-1.5,2.5L337,132.5z
			 M298.9,129.2l1.5-2.5l-2.5-1.5l-1.5,2.5L298.9,129.2z M260.8,125.9l1.5-2.5l-2.6-1.6c-0.4,0.9-0.9,1.7-1.3,2.6L260.8,125.9z
			 M322.4,123.6l1.5-2.5l-2.5-1.5l-1.5,2.5L322.4,123.6z M284.3,120.3l1.5-2.5l-2.5-1.5l-1.5,2.5L284.3,120.3z M345.9,117.9l1-1.6
			l-2.5-1.5l-1,1.6L345.9,117.9z M307.8,114.6l1.5-2.5l-2.5-1.5l-1.5,2.5L307.8,114.6z M269.7,111.3l1.5-2.5l-2.4-1.4
			c-0.6,0.8-1.2,1.6-1.7,2.3L269.7,111.3z M331.3,109l1-1.6l-2.5-1.5l-1,1.6L331.3,109z M293.2,105.7l1.5-2.5l-2.5-1.5l-1.5,2.5
			L293.2,105.7z M316.7,100.1l1-1.6l-2.5-1.5l-1,1.6L316.7,100.1z M278.6,96.8l0.2-0.3C278.7,96.6,278.6,96.6,278.6,96.8L278.6,96.8
			z M339.7,95.3l3.1-5.1c-0.6-0.8-1.3-1.5-2-2.2l-3.6,5.8L339.7,95.3z M302.2,91.1l1-1.6l-2.5-1.5l-1,1.6L302.2,91.1z M325.1,86.3
			l3.6-5.8c-1-0.3-1.9-0.6-2.9-0.8l-3.1,5.1L325.1,86.3z"/>
		<path class="st0" d="M318.1,62.6c9.2,0,18,2.4,25.6,7.1c14.2,8.7,22.8,24.2,24.4,43.6c0.5,6.2,0.3,12.5-0.7,18.9
			c-1.9,13.1-6.8,26.3-14.3,38.5c-11.2,18.2-26.9,32.2-44.4,39.3c-8.2,3.3-16.2,5-24,5.1c-18.1,6.6-33.5,18.7-44.1,34.6
			c1.1,1.9,1.2,4.4,0,6.5l-1.3,2.1c0,0,0,0,0,0L170,371.4c-1.2,1.9-3.3,3-5.4,3c-0.3,0-0.5,0-0.8-0.1c-0.9-0.1-1.7-0.4-2.5-0.9
			l-6.4-3.9c-0.7-0.5-1.3-1-1.8-1.7c-1.4-2-1.6-4.7-0.3-7l1.3-2.1c0,0,0,0,0,0l56.1-91.5c-9.9-9.3-19.3-13.4-27-15l-15,23.3
			c-1.1,1.6-2.8,2.7-4.8,3l-53.9,5.5c-0.3,0.1-0.7,0.1-1,0.1c-3.2,0-6.1-2.4-6.6-5.8l-6-42c-0.6-3.6,2-7.1,5.7-7.6l53.9-5.5
			c0.3,0,0.6-0.1,0.9-0.1c1.6,0,3.2,0.5,4.5,1.7l21.2,18.4c1.3,1.1,2,2.6,2.3,4.1c0.8,0.2,1.7,0.4,2.5,0.6c0.2,0.1,0.4,0.2,0.6,0.3
			c7.6,2.1,16.3,6.5,25.3,14.8l10.6-17.3c1.2-1.9,3.3-3,5.4-3c0.3,0,0.5,0,0.8,0.1c0.1,0,0.2,0,0.3,0.1
			c8.7-16.1,12.4-34.9,10.3-53.1l-0.4-3.3c-3-6.5-4.8-13.9-5.5-21.9c-1.5-18.8,3.8-39.2,14.9-57.4c7.5-12.2,17.1-22.6,27.9-30.2
			c5.3-3.7,10.8-6.8,16.5-9.2C302,64.2,310.3,62.6,318.1,62.6 M312.2,84.3l6.4-10.4c-0.2,0-0.4,0-0.5,0c-5.2,0-10.7,1-16.4,2.9
			l-0.5,0.8L312.2,84.3 M326.8,93.2l9.2-15c-3.9-2.1-8.2-3.4-12.7-4c0,0,0,0,0,0l-7.5,12.3L326.8,93.2 M289.2,89.1l5.9-9.7
			c0,0,0,0,0,0c-3.8,1.8-7.6,4-11.1,6.5L289.2,89.1 M341.4,102.2l7.5-12.3c-2.6-3.8-5.7-7-9.3-9.5l-9.2,15L341.4,102.2 M303.8,98
			l6.2-10.1l-11-6.7l-6.2,10.1L303.8,98 M280.3,103.6l6.7-11l-6.6-4.1c0,0,0,0,0,0c-3.4,2.7-6.7,5.8-9.8,9.1c0,0,0,0,0,0
			L280.3,103.6 M318.4,106.9l6.2-10.1l-11-6.7l-6.2,10.1L318.4,106.9 M355.9,111.1l0.5-0.8c-0.9-6.1-2.6-11.6-5.1-16.3c0,0,0,0,0,0
			l-6.4,10.4L355.9,111.1 M294.9,112.6l6.7-11l-11-6.7l-6.7,11L294.9,112.6 M333,115.9l6.2-10.1l-11-6.7l-6.2,10.1L333,115.9
			 M271.4,118.2l6.7-11l-10.4-6.4c-2.7,3.2-5.3,6.7-7.7,10.4c0,0,0,0,0,0L271.4,118.2 M309.4,121.5l6.7-11l-11-6.7l-6.7,11
			L309.4,121.5 M347.5,124.8l6.2-10.1l-11-6.7l-6.2,10.1L347.5,124.8 M285.9,127.1l6.7-11l-11-6.7l-6.7,11L285.9,127.1 M324,130.4
			l6.7-11l-11-6.7l-6.7,11L324,130.4 M262.4,132.8l6.7-11l-11.3-6.9c-2.2,3.8-4.1,7.7-5.8,11.6L262.4,132.8 M356.3,130.2
			C356.3,130.2,356.3,130.2,356.3,130.2c0.6-4.3,0.9-8.6,0.7-12.9l-5.9,9.7L356.3,130.2 M300.5,136.1l6.7-11l-11-6.7l-6.7,11
			L300.5,136.1 M338.6,139.4l6.7-11l-11-6.7l-6.7,11L338.6,139.4 M277,141.7l6.7-11l-11-6.7l-6.7,11L277,141.7 M315.1,145l6.7-11
			l-11-6.7l-6.7,11L315.1,145 M253.5,147.4l6.7-11l-9.7-5.9c0,0,0,0,0,0c-1.6,4.3-2.8,8.6-3.6,12.9c0,0,0,0,0,0L253.5,147.4
			 M351.9,147.5C351.9,147.5,351.9,147.5,351.9,147.5c1.6-4.3,2.8-8.6,3.7-12.9l-6.6-4.1l-6.7,11L351.9,147.5 M291.6,150.7l6.7-11
			l-11-6.7l-6.7,11L291.6,150.7 M329.7,154l6.7-11l-11-6.7l-6.7,11L329.7,154 M268.1,156.3l6.7-11l-11-6.7l-6.7,11L268.1,156.3
			 M306.2,159.6l6.7-11l-11-6.7l-6.7,11L306.2,159.6 M344.5,163.1C344.5,163.1,344.5,163.1,344.5,163.1c2.2-3.8,4.2-7.7,5.8-11.6
			l-10.4-6.4l-6.7,11L344.5,163.1 M282.6,165.2l6.7-11l-11-6.7l-6.7,11L282.6,165.2 M245.6,160.3l5.7-9.4l-5.1-3.1
			C245.6,152,245.4,156.2,245.6,160.3C245.6,160.3,245.6,160.3,245.6,160.3 M320.7,168.5l6.7-11l-11-6.7l-6.7,11L320.7,168.5
			 M259.7,170l6.2-10.1l-11-6.7l-6.2,10.1L259.7,170 M297.2,174.2l6.7-11l-11-6.7l-6.7,11L297.2,174.2 M334.6,177
			C334.6,177,334.6,177,334.6,177c2.8-3.2,5.3-6.7,7.7-10.4l-11.3-6.9l-6.7,11L334.6,177 M274.2,179l6.2-10.1l-11-6.7l-6.2,10.1
			L274.2,179 M311.8,183.1l6.7-11l-11-6.7l-6.7,11L311.8,183.1 M251.3,183.7l6.2-10.1l-11-6.7l-0.3,0.5
			C247,173.4,248.8,178.9,251.3,183.7 M288.8,187.9l6.2-10.1l-11-6.7l-6.2,10.1L288.8,187.9 M321.9,189.3
			C321.9,189.3,321.9,189.3,321.9,189.3c3.5-2.7,6.8-5.7,9.9-9.1l-9.7-5.9l-6.7,11L321.9,189.3 M263,197.2l9-14.7l-11-6.7l-7.3,11.9
			c0,0,0,0,0,0C256.3,191.5,259.4,194.7,263,197.2 M303.4,196.8l6.2-10.1l-11-6.7l-6.2,10.1L303.4,196.8 M279.3,203.4l7.3-11.9
			l-11-6.7l-9,14.7c0,0,0,0,0,0C270.5,201.5,274.8,202.8,279.3,203.4 M307.4,198.2C307.4,198.2,307.4,198.2,307.4,198.2
			c3.7-1.7,7.3-3.8,10.8-6.2l-5.1-3.1L307.4,198.2 M284.6,203.7c5.2,0,10.7-1,16.3-2.9l0.3-0.5l-11-6.7l-6.2,10.1c0,0,0,0,0,0
			C284.2,203.7,284.4,203.7,284.6,203.7 M241.3,236.3c8.1-9.5,18-17.4,29.2-23.2c0,0,0,0,0,0c-4.1-1.2-8-2.9-11.6-5.1
			c-3.9-2.4-7.4-5.3-10.4-8.7c0,0,0,0,0,0C248.5,212,246.1,224.6,241.3,236.3 M165,247.4c1.3-0.3,3.4-0.8,6.1-1c0.2,0,0.5,0,0.7-0.1
			c0,0,0,0,0.1,0c0.6,0,1.2-0.1,1.8-0.1c-0.9-1.3-2.5-2.1-4.1-2.1c-0.2,0-0.4,0-0.7,0C167.1,244.5,165.6,245.8,165,247.4
			 M168.5,251.8c-0.1,0-0.2,0-0.2,0c-1.1,0.2-1.9,0.4-2.4,0.5c0.9,1.1,2.3,1.8,3.8,1.8c0.2,0,0.5,0,0.7-0.1c1.7-0.2,3.1-1.3,3.8-2.8
			c-3.2,0-5.1,0.5-5.1,0.5C168.8,251.8,168.7,251.8,168.5,251.8 M318.1,52.6c-9.2,0-18.7,2-28.1,5.8c-6.4,2.6-12.6,6.1-18.5,10.2
			c-11.9,8.4-22.5,19.9-30.6,33.1c-12.3,20-18.1,42.5-16.4,63.4c0.7,8.6,2.6,16.5,5.7,23.7l0.2,1.8c1.7,14.5-0.8,29.5-7,42.8
			c-3.4,1.2-6.4,3.6-8.4,6.8l-4.7,7.7c-6-4.1-12.2-7.2-18.7-9.1c-0.8-1.2-1.8-2.3-2.9-3.3l-21.1-18.3c-3-2.7-7-4.2-11.1-4.2
			c-0.7,0-1.3,0-2,0.1l-53.9,5.5c-0.1,0-0.2,0-0.3,0c-4.5,0.6-8.5,3-11.2,6.6c-2.7,3.6-3.8,8-3.1,12.4l5.9,41.9
			c1.1,8.2,8.2,14.4,16.5,14.4c0.8,0,1.5-0.1,2.3-0.2l53.7-5.5c0.2,0,0.4,0,0.6-0.1c4.6-0.8,8.7-3.3,11.4-7.2
			c0.1-0.1,0.1-0.2,0.2-0.3l10.9-16.9c3.2,1.3,6.4,3.1,9.6,5.4l-51.6,84.1l-1.3,2.1c-3.4,5.6-3.2,12.7,0.7,18
			c1.2,1.7,2.8,3.2,4.7,4.4l6.5,4c2,1.2,4.2,2,6.4,2.3c0.7,0.1,1.4,0.1,2.1,0.1c5.7,0,10.9-2.9,13.9-7.8l69.4-113.2l1.3-2.1
			c1.8-3,2.6-6.4,2.3-9.7c9-12,21.1-21.2,35.2-26.6c8.5-0.3,17.2-2.2,25.8-5.8c19.4-8,36.8-23.4,49.1-43.4
			c8.1-13.2,13.5-27.9,15.6-42.3c1-7.1,1.3-14.3,0.7-21.1c-1.9-22.7-12.2-41-29.2-51.3C339.7,55.4,329.3,52.6,318.1,52.6L318.1,52.6
			z"/>
	</g>
</g>
<path class="st1" d="M99.9,70.6c0,0,24.7-3.3,44.3,26"/>
<g>
	<path class="st2" d="M118.8,67.5l-16.9-22.4c-1.2-1.6-3-2.5-4.9-2.7l-53.9-5.8c-3.8-0.3-7,2.6-7.2,6.3L33,85.3
		c-0.3,3.8,2.6,7,6.3,7.2l53.9,5.8c2,0.1,3.9-0.6,5.3-2l19.8-20C120.6,74,120.9,70.2,118.8,67.5z M105,75.7
		c-2.8-0.2-4.9-2.6-4.7-5.3c0.2-2.7,2.6-4.9,5.3-4.7c2.7,0.2,4.9,2.6,4.7,5.3C110.1,73.8,107.7,75.8,105,75.7z"/>
</g>
<g>
	<g>
		<text transform="matrix(0.9921 0.1258 -0.1258 0.9921 54.0429 79.2072)" class="st0 st3 st4">17</text>
	</g>
	<text transform="matrix(0.9921 0.1258 -0.1258 0.9921 39.8976 72.2351)" class="st0 st3 st5">$</text>
</g>
<path class="st1" d="M104.1,70.6c0,0,7.6-0.2,17.3,4.7"/>
<g>
	<circle class="st6" cx="148.4" cy="102.1" r="30.4"/>
	<path class="st7" d="M153.5,76.1c-0.7,7.6-4.3,15-10.1,21c-5.8,6-13.2,9.8-20.7,10.8c-1.2,0.2-2.5,0.2-3.7,0.2
		c-0.7,0-1.2,0.6-1,1.3c1.3,5.6,4.2,10.8,8.6,15.1s9.8,7,15.4,8.2c0.6,0.1,1.2-0.4,1.2-1c0-1.2,0-2.4,0.1-3.7
		c0.7-7.6,4.3-15,10.1-21c5.8-6,13.2-9.8,20.7-10.8c1.2-0.2,2.5-0.2,3.7-0.2c0.7,0,1.2-0.6,1-1.3c-1.3-5.6-4.2-10.8-8.6-15.1
		s-9.8-7-15.4-8.2c-0.6-0.1-1.2,0.4-1.2,1C153.6,73.7,153.6,74.9,153.5,76.1z"/>
	<path class="st7" d="M117.2,103.3c0,0.5,0.5,1,1,1c7.5,0.3,15.9-3.1,22.4-9.8c6.5-6.7,9.7-15.2,9.1-22.7c0-0.5-0.5-0.9-1-1
		c-8.3-0.1-16.5,3.1-22.7,9.5S116.8,95.1,117.2,103.3z"/>
	<path class="st7" d="M179.7,100.8c0-0.5-0.5-1-1-1c-7.5-0.3-15.9,3.1-22.4,9.8c-6.5,6.7-9.7,15.2-9.1,22.7c0,0.5,0.5,0.9,1,1
		c8.3,0.1,16.5-3.1,22.7-9.5C177.1,117.5,180,109.1,179.7,100.8z"/>
	<g>
		<path class="st8" d="M173.8,109.8c-0.5-0.1-0.8-0.7-0.7-1.2c0.2-0.8,0.4-1.5,0.5-2.3c0.1-0.5,0.6-0.9,1.1-0.8
			c0.5,0.1,0.9,0.6,0.8,1.1c-0.1,0.8-0.3,1.7-0.5,2.5C175,109.3,174.7,110.1,173.8,109.8z"/>
		<path class="st8" d="M168.2,121.2c-0.4,0.4-1,0.4-1.4,0c-0.4-0.4-0.4-1,0-1.4c2.3-2.3,4-5,5.3-8c0.2-0.5,0.8-0.7,1.3-0.5
			c0.5,0.2,0.7,0.8,0.5,1.3C172.5,115.8,170.6,118.7,168.2,121.2z"/>
		<circle class="st8" cx="158.6" cy="88.9" r="1.5"/>
		<circle class="st8" cx="160.4" cy="78.8" r="1.5"/>
		<circle class="st8" cx="167.1" cy="87.3" r="1.5"/>
		<circle class="st8" cx="144.8" cy="77.2" r="1.5"/>
		<circle class="st8" cx="154" cy="98.6" r="1.5"/>
		<circle class="st8" cx="139.9" cy="82.7" r="1.5"/>
		<path class="st8" d="M162.3,96c-0.2,0.2-0.4,0.3-0.7,0.3c-0.3,0-0.5-0.1-0.7-0.3c-0.2-0.2-0.3-0.4-0.3-0.7c0-0.3,0.1-0.5,0.3-0.7
			c0.2-0.2,0.4-0.3,0.7-0.3c0.3,0,0.5,0.1,0.7,0.3c0.2,0.2,0.3,0.4,0.3,0.7C162.6,95.6,162.5,95.8,162.3,96z"/>
		<path class="st8" d="M148.1,102.8c-0.2,0.2-0.4,0.3-0.7,0.3c-0.3,0-0.5-0.1-0.7-0.3c-0.2-0.2-0.3-0.4-0.3-0.7
			c0-0.3,0.1-0.5,0.3-0.7c0.2-0.2,0.4-0.3,0.7-0.3c0.3,0,0.5,0.1,0.7,0.3c0.2,0.2,0.3,0.4,0.3,0.7
			C148.4,102.3,148.3,102.6,148.1,102.8z"/>
		<path class="st8" d="M137.9,89.8c-0.2,0.2-0.4,0.3-0.7,0.3c-0.3,0-0.5-0.1-0.7-0.3c-0.2-0.2-0.3-0.4-0.3-0.7
			c0-0.3,0.1-0.5,0.3-0.7c0.2-0.2,0.4-0.3,0.7-0.3c0.3,0,0.5,0.1,0.7,0.3c0.2,0.2,0.3,0.4,0.3,0.7C138.2,89.4,138.1,89.6,137.9,89.8
			z"/>
		<path class="st8" d="M132.8,83.5c-0.2,0.2-0.4,0.3-0.7,0.3c-0.3,0-0.5-0.1-0.7-0.3c-0.2-0.2-0.3-0.4-0.3-0.7
			c0-0.3,0.1-0.5,0.3-0.7c0.2-0.2,0.4-0.3,0.7-0.3c0.3,0,0.5,0.1,0.7,0.3c0.2,0.2,0.3,0.4,0.3,0.7C133.1,83.1,133,83.3,132.8,83.5z"
			/>
		<path class="st8" d="M161.5,110.6c-0.2,0.2-0.4,0.3-0.7,0.3c-0.3,0-0.5-0.1-0.7-0.3c-0.2-0.2-0.3-0.4-0.3-0.7
			c0-0.3,0.1-0.5,0.3-0.7c0.2-0.2,0.4-0.3,0.7-0.3c0.3,0,0.5,0.1,0.7,0.3c0.2,0.2,0.3,0.4,0.3,0.7
			C161.8,110.2,161.7,110.4,161.5,110.6z"/>
		<path class="st8" d="M171.3,106c-0.2,0.2-0.4,0.3-0.7,0.3c-0.3,0-0.5-0.1-0.7-0.3c-0.2-0.2-0.3-0.4-0.3-0.7c0-0.3,0.1-0.5,0.3-0.7
			c0.2-0.2,0.4-0.3,0.7-0.3c0.3,0,0.5,0.1,0.7,0.3c0.2,0.2,0.3,0.4,0.3,0.7C171.6,105.6,171.5,105.8,171.3,106z"/>
		<path class="st8" d="M168.4,112.8c-0.2,0.2-0.4,0.3-0.7,0.3c-0.3,0-0.5-0.1-0.7-0.3c-0.2-0.2-0.3-0.4-0.3-0.7
			c0-0.3,0.1-0.5,0.3-0.7c0.2-0.2,0.4-0.3,0.7-0.3c0.3,0,0.5,0.1,0.7,0.3c0.2,0.2,0.3,0.4,0.3,0.7
			C168.7,112.4,168.6,112.6,168.4,112.8z"/>
	</g>
</g>
<path class="st1" d="M164.3,250.2c0,0,23.5-8.4,48.7,16.2"/>
<g>
	<path class="st2" d="M182.2,243.2L161,224.8c-1.5-1.3-3.4-1.8-5.4-1.6l-53.9,5.5c-3.7,0.5-6.3,4-5.7,7.6l6,42
		c0.5,3.7,4,6.3,7.6,5.7l53.9-5.5c2-0.3,3.7-1.4,4.8-3l15.2-23.6C185.3,249.2,184.8,245.4,182.2,243.2z M170.3,254.1
		c-2.8,0.4-5.3-1.5-5.7-4.2c-0.4-2.7,1.5-5.3,4.2-5.7c2.7-0.4,5.3,1.5,5.7,4.2C175,251.2,173,253.7,170.3,254.1z"/>
</g>
<g>
	<g>
		<text transform="matrix(0.9966 -8.242599e-02 8.242599e-02 0.9966 120.2308 268.1096)" class="st0 st3 st4">23</text>
	</g>
	<text transform="matrix(0.9966 -8.242599e-02 8.242599e-02 0.9966 105.948 264.2193)" class="st0 st3 st5">$</text>
</g>
<path class="st1" d="M168.4,249.4c0,0,7.4-1.8,17.9,1"/>
<g>
	<path class="st9" d="M249.1,191.2c-1-0.6-1.3-1.9-0.7-2.9l72.8-118.8c0.6-1,1.9-1.3,2.9-0.7c1,0.6,1.3,1.9,0.7,2.9L252,190.5
		C251.4,191.5,250.1,191.8,249.1,191.2z"/>
	<path class="st9" d="M298.7,208.5c-1-0.6-1.3-1.9-0.7-2.9l61.1-99.7c0.6-1,1.9-1.3,2.9-0.7c1,0.6,1.3,1.9,0.7,2.9l-61.1,99.7
		C301,208.8,299.7,209.1,298.7,208.5z"/>
	<path class="st9" d="M240.4,172.7c-1-0.6-1.3-1.9-0.7-2.9l61.1-99.7c0.6-1,1.9-1.3,2.9-0.7s1.3,1.9,0.7,2.9L243.3,172
		C242.7,173,241.4,173.3,240.4,172.7z"/>
	<path class="st9" d="M278.3,209.1c-1-0.6-1.3-1.9-0.7-2.9l72.8-118.8c0.6-1,1.9-1.3,2.9-0.7c1,0.6,1.3,1.9,0.7,2.9l-72.8,118.8
		C280.6,209.4,279.3,209.7,278.3,209.1z"/>
	<path class="st9" d="M260.6,205.2c-1-0.6-1.3-1.9-0.7-2.9l79.1-129c0.6-1,1.9-1.3,2.9-0.7c1,0.6,1.3,1.9,0.7,2.9l-79.1,129
		C262.9,205.5,261.6,205.8,260.6,205.2z"/>
	<path class="st9" d="M355.8,154.8l-93.5-57.3c-1-0.6-1.3-1.9-0.7-2.9c0.6-1,1.9-1.3,2.9-0.7l93.5,57.3c1,0.6,1.3,1.9,0.7,2.9
		C358.1,155.1,356.8,155.4,355.8,154.8z"/>
	<path class="st9" d="M323.7,195.3l-82.9-50.8c-1-0.6-1.3-1.9-0.7-2.9c0.6-1,1.9-1.3,2.9-0.7l82.9,50.8c1,0.6,1.3,1.9,0.7,2.9
		C326,195.6,324.7,195.9,323.7,195.3z"/>
	<path class="st9" d="M359.4,137l-82.9-50.8c-1-0.6-1.3-1.9-0.7-2.9c0.6-1,1.9-1.3,2.9-0.7l82.9,50.8c1,0.6,1.3,1.9,0.7,2.9
		C361.7,137.3,360.4,137.6,359.4,137z"/>
	<path class="st9" d="M359.4,118.1l-66.1-40.5c-1-0.6-1.3-1.9-0.7-2.9c0.6-1,1.9-1.3,2.9-0.7l66.1,40.5c1,0.6,1.3,1.9,0.7,2.9
		C361.7,118.4,360.4,118.7,359.4,118.1z"/>
	<path class="st9" d="M306.9,203.9l-66.1-40.5c-1-0.6-1.3-1.9-0.7-2.9c0.6-1,1.9-1.3,2.9-0.7l66.1,40.5c1,0.6,1.3,1.9,0.7,2.9
		C309.1,204.2,307.9,204.5,306.9,203.9z"/>
	<path class="st9" d="M337.9,184l-93.5-57.3c-1-0.6-1.3-1.9-0.7-2.9c0.6-1,1.9-1.3,2.9-0.7l93.5,57.3c1,0.6,1.3,1.9,0.7,2.9
		C340.2,184.3,338.9,184.6,337.9,184z"/>
	<path class="st9" d="M346.7,169.3l-93.2-57.1c-1-0.6-1.3-1.9-0.7-2.9c0.6-1,1.9-1.3,2.9-0.7l93.2,57.1c1,0.6,1.3,1.9,0.7,2.9
		C349,169.6,347.7,169.9,346.7,169.3z"/>
</g>
<path class="st10" d="M232,256.6l-4.3-2.6c-1.7-1.1-2.3-3.3-1.3-5.1l2.3-3.9c9.7-16.6,13.8-36.3,11.6-55.4l-1.3-11.3l7.5-0.9
	l1.3,11.3c1.8,16.1-0.5,32.6-6.5,47.6c11.3-13.2,26-23.3,42.6-29l5.7-2c0.1,0,0.3-0.1,0.4-0.1l0.8,3.7l1.2,3.5l-5.7,2
	c-20.8,7.1-38.3,21.6-49.2,40.8c-0.5,0.9-1.3,1.5-2.3,1.8C233.9,257.3,232.9,257.2,232,256.6z"/>
<path class="st11" d="M240.7,256.1c1.4-2.2,1.2-5-0.3-7c-0.5-0.7-1.1-1.2-1.8-1.7l-6.4-3.9c-0.8-0.5-1.6-0.8-2.5-0.9
	c-2.4-0.3-4.8,0.8-6.2,3l-69.4,113.2c0,0,0,0,0,0l-1.3,2.1c-1.4,2.2-1.2,5,0.3,7c0.5,0.7,1.1,1.2,1.8,1.7l6.4,3.9
	c0.8,0.5,1.6,0.8,2.5,0.9c2.4,0.3,4.8-0.8,6.2-3l69.4-113.2c0,0,0,0,0,0L240.7,256.1z"/>
<path class="st10" d="M308.8,210c17.5-7.2,33.2-21.1,44.4-39.3c7.5-12.2,12.4-25.5,14.3-38.5c0.9-6.4,1.2-12.7,0.7-18.9
	c-1.6-19.5-10.3-34.9-24.4-43.6c-14.2-8.7-31.9-9.4-50-2c-5.7,2.4-11.3,5.4-16.5,9.2c-10.8,7.6-20.3,18-27.9,30.2
	c-11.2,18.2-16.5,38.6-14.9,57.4c0.7,8,2.5,15.4,5.5,21.9c2.2,4.9,5.1,9.2,8.5,13c3,3.4,6.5,6.3,10.4,8.7c3.7,2.2,7.5,3.9,11.6,5.1
	c4.6,1.3,9.4,2,14.3,1.9C292.6,215,300.7,213.3,308.8,210z M266.6,199.4c-0.6-0.3-1.2-0.7-1.8-1c-0.6-0.4-1.2-0.7-1.8-1.1
	c-3.6-2.5-6.8-5.7-9.3-9.5c-0.9-1.3-1.7-2.6-2.4-4.1c-2.5-4.8-4.2-10.3-5.1-16.4c0-0.2-0.1-0.5-0.1-0.7c-0.1-1-0.2-2.1-0.3-3.1
	c-0.1-0.7-0.1-1.4-0.1-2.1c0-0.4,0-0.7,0-1.1c-0.1-4.1,0.1-8.3,0.7-12.5c0.2-1.5,0.4-3,0.7-4.5c0.8-4.3,2-8.6,3.6-12.9
	c0.5-1.3,1-2.7,1.5-4c1.6-3.9,3.6-7.8,5.8-11.6c0.4-0.7,0.8-1.3,1.2-2c0.3-0.5,0.7-1.1,1-1.6c2.4-3.7,4.9-7.2,7.7-10.4
	c0.9-1.1,1.9-2.1,2.8-3.2c0,0,0,0,0,0c3.1-3.3,6.4-6.4,9.8-9.1c1.2-0.9,2.4-1.8,3.6-2.7c3.6-2.5,7.3-4.7,11.1-6.5
	c0.2-0.1,0.4-0.2,0.6-0.3c0.1-0.1,0.3-0.1,0.4-0.2c0.6-0.3,1.3-0.6,1.9-0.8c0.8-0.3,1.7-0.7,2.5-1c0.4-0.1,0.7-0.3,1.1-0.4
	c5.8-2,11.5-2.9,16.9-2.9c1.6,0,3.2,0.1,4.7,0.3c4.5,0.6,8.8,1.9,12.7,4c0.6,0.3,1.2,0.7,1.8,1s1.2,0.7,1.8,1.1
	c3.6,2.5,6.8,5.7,9.3,9.5c0.9,1.3,1.7,2.6,2.4,4.1c2.5,4.8,4.2,10.3,5.1,16.3c0.1,0.4,0.1,0.8,0.2,1.2c0.1,0.9,0.2,1.8,0.3,2.7
	c0.1,0.7,0.1,1.4,0.1,2.1c0,0.1,0,0.3,0,0.4c0,0.2,0,0.4,0,0.7c0.1,4.2-0.1,8.5-0.7,12.9c-0.2,1.5-0.5,3-0.8,4.4
	c-0.9,4.3-2.1,8.6-3.7,12.9c-0.5,1.3-1,2.6-1.6,4c-1.6,3.9-3.6,7.8-5.8,11.6c-0.3,0.5-0.6,1.1-1,1.6c-0.4,0.7-0.8,1.3-1.2,1.9
	c-2.4,3.7-5,7.2-7.7,10.4c-0.9,1.1-1.9,2.1-2.8,3.2c-3.1,3.3-6.4,6.4-9.9,9.1c-1.2,0.9-2.4,1.8-3.6,2.7c-3.5,2.4-7.1,4.5-10.8,6.2
	c-0.3,0.2-0.7,0.3-1,0.5c-0.6,0.3-1.3,0.6-1.9,0.8c-1,0.4-2,0.8-3,1.1c-0.2,0.1-0.4,0.2-0.7,0.2c-5.8,2-11.5,2.9-16.9,2.9
	c-1.6,0-3.2-0.1-4.7-0.3C274.8,202.8,270.5,201.5,266.6,199.4z"/>
</svg>
