<?xml version="1.0" encoding="utf-8"?>
<!-- Generator: Adobe Illustrator 22.0.1, SVG Export Plug-In . SVG Version: 6.00 Build 0)  -->
<svg version="1.1" id="Layer_1" xmlns="http://www.w3.org/2000/svg" xmlns:xlink="http://www.w3.org/1999/xlink" x="0px" y="0px"
	 viewBox="0 0 336.7 400" style="enable-background:new 0 0 336.7 400;" xml:space="preserve">
<style type="text/css">
	.st0{fill:#FFFFFF;}
	.st1{fill:#D5EDEA;}
	.st2{fill:#E5852E;}
	.st3{fill:#E8A434;}
	.st4{fill:none;stroke:#94DBD9;stroke-width:4;stroke-linecap:round;stroke-linejoin:round;stroke-miterlimit:10;}
	.st5{fill:#76CEE4;}
	.st6{fill:#60C1D8;}
	.st7{fill:#1EAFD8;}
	.st8{fill:#033333;}
	.st9{enable-background:new    ;}
	.st10{fill:#FCC62D;}
	.st11{fill:#FADC3C;}
	.st12{fill:#E7C42A;}
	.st13{fill:#F9DC39;}
	.st14{fill:#7C6608;}
	.st15{fill:#AEB9C1;}
	.st16{fill:#3D4449;}
	.st17{fill:#A0AAB4;}
	.st18{fill:none;stroke:#D6DEE4;stroke-width:0.7826;stroke-linecap:round;stroke-linejoin:round;stroke-dasharray:0.398,2.7858;}
	.st19{fill:#E58E34;}
	.st20{fill:#BC6415;}
	.st21{opacity:0.5;fill:none;stroke:#FFFFFF;stroke-width:13;stroke-linecap:round;stroke-linejoin:round;stroke-miterlimit:10;}
</style>
<g>
	<path class="st0" d="M168.4,387c-27.3,0-52.9-2.4-72.3-6.8c-22.5-5.1-33.4-12-33.4-21V186.5c0-7.5,10.4-34,28.5-38.8
		c1.3-0.4,2.3-1.4,2.3-2.7v-0.1c0-0.2,0-0.4,0-0.6c-2.3-2.2-3.5-4.7-3.5-7.3v-16.1c0-7.3,8.5-12.8,25.9-16.6c14.5-3.2,33.7-5,54.1-5
		s39.6,1.8,54.1,5c17.4,3.9,25.9,9.3,25.9,16.6v16.1c0,3.2-1.7,6.2-5,8.7c0.1,1.2,0.9,2.2,1.9,2.5c17.2,4.5,27.2,30.9,27.2,38.5
		v172.7c0,9-10.9,15.9-33.4,21C221.3,384.6,195.6,387,168.4,387z"/>
	<path class="st0" d="M170,104.2c41.4,0,75,7.4,75,16.6v16.1c0,2.1-1.9,4.2-5.2,6.1c0.1,0.7,0.1,1.4,0.1,1.9v0.4
		c0,3.5,2.3,6.7,5.6,7.6c14.6,3.8,23.4,28.1,23.4,33.6v172.7c0,12.6-45.1,22.8-100.7,22.8c-55.6,0-100.7-10.2-100.7-22.8V186.5
		c0-5.7,9.4-29.8,24.8-34c3.5-0.9,6-3.9,6-7.5v-0.1c0-0.7,0.1-1.7,0.3-2.8c-2.4-1.6-3.7-3.4-3.7-5.2v-16.1
		C95,111.7,128.6,104.2,170,104.2 M170,94.2c-20.7,0-40.3,1.8-55.2,5.1c-7.7,1.7-14,3.8-18.5,6.2c-9.3,4.9-11.3,11-11.3,15.3v16.1
		c0,2,0.4,4.4,1.9,7c-19.2,7.5-29.2,34.1-29.2,42.6v172.7c0,8.8,7.2,14.5,13.2,17.7c5.9,3.1,14,5.9,24.1,8.2
		c19.7,4.5,45.8,6.9,73.4,6.9c27.6,0,53.7-2.5,73.4-6.9c10.1-2.3,18.2-5,24.1-8.2c6-3.2,13.2-8.9,13.2-17.7V186.5
		c0-5.2-3.1-14.4-7.5-22.3c-3.8-6.8-10-15.3-19-19.4c1.9-2.9,2.4-5.6,2.4-7.9v-16.1c0-4.3-2-10.5-11.3-15.3
		c-4.6-2.4-10.8-4.5-18.5-6.2C210.3,96,190.7,94.2,170,94.2L170,94.2z"/>
</g>
<path class="st1" d="M239.9,145.3v-0.4c0-4.3-3.5-17.9-7.9-17.9H106.3c-4.3,0-7.9,13.5-7.9,17.9v0.1c0,3.6-2.5,6.6-6,7.5
	c-15.4,4.1-24.8,28.2-24.8,34v172.7c0,12.6,45.1,22.8,100.7,22.8C224,382,269,371.8,269,359.2V186.5c0-5.6-8.8-29.8-23.4-33.6
	C242.2,152,239.9,148.8,239.9,145.3z"/>
<path class="st2" d="M180.8,120.5c-3.5-0.1-7.1-0.2-10.8-0.2c-2.8,0-5.6,0-8.3,0.1c-34.2-0.1-66.1-0.1-66.7,0.4v16.1
	c0,9.2,33.6,16.6,75,16.6s75-7.4,75-16.6v-16.1C245,120.8,214.4,120.6,180.8,120.5z"/>
<ellipse class="st3" cx="170" cy="120.8" rx="75" ry="16.6"/>
<path class="st4" d="M73,351c0,0,75-25,188,0.5"/>
<g>
	<g>
		<g>
			<g>
				<g>
					<path class="st5" d="M158.6,316.4c-3.7,2.7-9,1.9-11.8-1.9l-29.6-41c-2.7-3.7-1.9-9,1.9-11.8l74.6-53.9c3.7-2.7,9-1.9,11.8,1.9
						l29.7,41.1c2.7,3.7,1.9,9-1.9,11.8L158.6,316.4L158.6,316.4z"/>
				</g>
			</g>
			<g>
				<g>
					<path class="st6" d="M220.7,261.1l-59.6,43.1c-2.9-4-8.7-5.1-12.9-2.1L129.4,276c4-2.9,5.1-8.7,2.1-12.9l59.6-43.1
						c2.9,4,8.7,5.1,12.9,2.1l18.8,26.1C218.6,251.1,217.8,256.9,220.7,261.1z"/>
				</g>
			</g>
		</g>
		<g>
			<g>
				<circle class="st7" cx="126.7" cy="269" r="3.7"/>
			</g>
			<g>
				<circle class="st7" cx="198.4" cy="217.2" r="3.7"/>
			</g>
		</g>
		<g>
			<g>
				<circle class="st7" cx="154.3" cy="307.2" r="3.7"/>
			</g>
			<g>
				
					<ellipse transform="matrix(0.8881 -0.4597 0.4597 0.8881 -92.0269 132.5196)" class="st7" cx="226.1" cy="255.2" rx="3.7" ry="3.7"/>
			</g>
		</g>
		<g>
			<g>
				<circle class="st5" cx="140.8" cy="267.1" r="2.1"/>
			</g>
		</g>
		<g>
			<g>
				<ellipse class="st5" cx="147.7" cy="265.3" rx="2.1" ry="2.1"/>
			</g>
		</g>
		<g>
			<g>
				<ellipse class="st5" cx="185.4" cy="234.4" rx="2.1" ry="2.1"/>
			</g>
		</g>
		<g>
			<g>
				<circle class="st5" cx="138" cy="278.1" r="2.1"/>
			</g>
		</g>
		<g>
			<g>
				
					<ellipse transform="matrix(0.8881 -0.4597 0.4597 0.8881 -118.3105 107.1132)" class="st5" cx="160.8" cy="296.5" rx="2.1" ry="2.1"/>
			</g>
		</g>
		<g>
			<g>
				<ellipse class="st5" cx="164.4" cy="288" rx="2.1" ry="2.1"/>
			</g>
		</g>
		<g>
			<g>
				
					<ellipse transform="matrix(0.8881 -0.4597 0.4597 0.8881 -119.1366 102.4167)" class="st5" cx="150.7" cy="295.8" rx="2.1" ry="2.1"/>
			</g>
		</g>
		<g>
			<g>
				<circle class="st5" cx="144.1" cy="288.5" r="2.1"/>
			</g>
		</g>
		<g>
			<g>
				<ellipse class="st5" cx="195.4" cy="230.2" rx="2.1" ry="2.1"/>
			</g>
		</g>
		<g>
			<g>
				<ellipse class="st5" cx="199.1" cy="242.7" rx="2.1" ry="2.1"/>
			</g>
		</g>
		<g>
			<g>
				<ellipse class="st5" cx="205.1" cy="233.4" rx="2.1" ry="2.1"/>
			</g>
		</g>
		<g>
			<g>
				<ellipse class="st5" cx="211.4" cy="244.3" rx="2.1" ry="2.1"/>
			</g>
		</g>
		<g>
			<g>
				<ellipse class="st5" cx="205.8" cy="250" rx="2.1" ry="2.1"/>
			</g>
		</g>
		<g>
			<g>
				<ellipse class="st5" cx="203.6" cy="260.9" rx="2.1" ry="2.1"/>
			</g>
		</g>
		<g>
			<g>
				<ellipse class="st5" cx="213.1" cy="257" rx="2.1" ry="2.1"/>
			</g>
		</g>
		<g id="XMLID_104_">
			<path class="st0" d="M155.8,288.6c-0.3,0.2-0.7,0.1-0.9-0.2l-0.6-0.7c-1.2,0.6-1.9,1-3.2,0.8l0.6,0.7c0.2,0.3,0.1,0.7-0.2,0.9
				s-0.7,0.1-0.9-0.2l-2.3-3.1c-0.2-0.3-0.1-0.7,0.2-0.9c0.3-0.2,0.7-0.1,0.9,0.2l0.9,1.2c1,0.3,1.5,0,2.7-0.2
				c0.3-0.2,0.6-0.1,0.9-0.2l-3.6-4.8c-1.3,0.4-2.1,0.7-2.7,0.7c-0.7,0.1-1.4,0.1-1.9-0.1c-0.5-0.2-1.1-0.5-1.6-1
				c-0.8-1-1-1.9-0.8-3.1c0.3-1,1-2,2.3-3l-0.5-0.5c-0.2-0.3-0.1-0.7,0.2-0.9c0.3-0.2,0.7-0.1,0.9,0.2l0.6,0.7
				c0.9-0.5,2-0.8,3.1-0.8c0.3,0.1,0.3,0.1,0.5,0.2l-0.6-0.7c-0.2-0.3-0.1-0.7,0.2-0.9c0.3-0.2,0.7-0.1,0.9,0.2l2.3,3.1
				c0.2,0.3,0.1,0.7-0.2,0.9c-0.3,0.2-0.7,0.1-0.9-0.2l-0.8-1c-1-0.3-1.9-0.5-2.9-0.1c-0.3,0.2-0.6,0.1-0.9,0.2l3.4,4.5
				c0.2-0.1,0.5-0.3,0.9-0.2c0.6-0.3,1.6-0.6,2.1-0.7c0.7-0.1,1.4-0.1,1.9,0.1c0.5,0.2,1.1,0.6,1.6,1c0.8,1,0.9,2.2,0.6,3.3
				c-0.2,1.2-1.1,2.2-2.5,3.2l0.5,0.5C156,288,156,288.2,155.8,288.6 M152,287.8c0.2-0.1,0.2-0.1,0.3-0.2
				C152.4,287.7,152.3,287.7,152,287.8 M151.4,281.5l3.4,4.5c1-0.8,1.6-1.5,1.8-2.4c0.2-0.9,0.2-1.7-0.3-2.2c-0.3-0.5-0.6-0.7-1-0.7
				c-0.5-0.2-0.9-0.2-1.5,0c-0.6,0.1-0.9,0.2-1.4,0.4L151.4,281.5z M157.2,283.6c0.1,0.2-0.1,0.3,0,0.4c-0.1,0.3-0.1,0.3-0.2,0.5
				c0.1-0.3,0.2-0.4,0.3-0.8C157.2,283.6,157.2,283.6,157.2,283.6 M146.2,276.5c-1,0.8-1.5,1.4-1.7,2.1s0,1.5,0.4,2.1
				c0.3,0.5,0.6,0.7,1,0.7c0.5,0.2,0.9,0.2,1.5,0c0.6-0.1,0.9-0.2,1.4-0.3c0.3-0.2,0.6-0.1,0.6-0.3L146.2,276.5L146.2,276.5z"/>
		</g>
		<g id="XMLID_85_">
			<g id="XMLID_102_">
				<g id="XMLID_103_">
					<path class="st8" d="M190,282.2c-0.8,0.7-1.1,1.8-0.5,2.7l0.7-0.6c-0.3-0.5-0.2-0.9,0.1-1.3c0.4-0.5,0.9-0.2,1.3,0.1l0.7-0.6
						C192,281.8,190.9,281.6,190,282.2z"/>
				</g>
			</g>
			<g id="XMLID_100_">
				<g id="XMLID_101_">
					<path class="st8" d="M186,285c-0.8,0.7-1.1,1.8-0.5,2.7l0.7-0.6c-0.3-0.5-0.2-0.9,0.1-1.3c0.4-0.5,0.9-0.2,1.3,0.1l0.7-0.6
						C188.1,284.6,186.9,284.4,186,285z"/>
				</g>
			</g>
			<g id="XMLID_98_">
				<g id="XMLID_99_">
					<path class="st8" d="M194.2,279.2c-0.8,0.7-1.1,1.8-0.5,2.7l0.7-0.6c-0.3-0.5-0.2-0.9,0.1-1.3c0.5-0.3,0.9-0.2,1.3,0.1l0.7-0.6
						C196.2,278.8,195,278.7,194.2,279.2z"/>
				</g>
			</g>
			<g id="XMLID_96_">
				<g id="XMLID_97_">
					<path class="st8" d="M178.1,290.9c-0.8,0.7-1.1,1.8-0.5,2.7l0.7-0.6c-0.3-0.5-0.2-0.9,0.1-1.3c0.4-0.3,0.9-0.2,1.3,0.1l0.7-0.6
						C180,290.4,178.9,290.2,178.1,290.9z"/>
				</g>
			</g>
			<g id="XMLID_94_">
				<g id="XMLID_95_">
					<path class="st8" d="M173.9,293.8c-0.8,0.7-1.1,1.8-0.5,2.7l0.7-0.6c-0.3-0.5-0.2-0.9,0.1-1.3c0.5-0.3,0.9-0.2,1.3,0.1l0.7-0.6
						C176,293.3,174.8,293.1,173.9,293.8z"/>
				</g>
			</g>
			<g id="XMLID_92_">
				<g id="XMLID_93_">
					<path class="st8" d="M182.1,288c-0.8,0.7-1.1,1.8-0.5,2.7l0.7-0.6c-0.3-0.5-0.2-0.9,0.1-1.3c0.4-0.5,0.9-0.2,1.3,0.1l0.7-0.6
						C184.1,287.5,182.9,287.3,182.1,288z"/>
				</g>
			</g>
			<g id="XMLID_90_">
				<g id="XMLID_91_">
					<path class="st8" d="M202,273.3c-0.8,0.7-1.1,1.8-0.5,2.7l0.7-0.6c-0.3-0.5-0.2-0.9,0.1-1.3c0.5-0.3,0.9-0.2,1.3,0.1l0.7-0.6
						C204.2,273.1,203.1,272.7,202,273.3z"/>
				</g>
			</g>
			<g id="XMLID_88_">
				<g id="XMLID_89_">
					<path class="st8" d="M198.2,276.3c-0.8,0.7-1.1,1.8-0.5,2.7l0.7-0.6c-0.3-0.5-0.2-0.9,0.1-1.3s0.9-0.2,1.3,0.1l0.7-0.6
						C200.2,275.9,198.9,275.8,198.2,276.3z"/>
				</g>
			</g>
			<g id="XMLID_86_">
				<g id="XMLID_87_">
					<path class="st8" d="M206.1,270.4c-0.8,0.7-1.1,1.8-0.5,2.7l0.7-0.6c-0.3-0.5-0.2-0.9,0.1-1.3c0.5-0.3,0.9-0.2,1.3,0.1l0.7-0.6
						C208.1,270.1,207.1,269.9,206.1,270.4z"/>
				</g>
			</g>
		</g>
		<g id="XMLID_8_">
			<g id="XMLID_83_">
				<g id="XMLID_84_">
					<path class="st8" d="M161.4,242.5c0.8-0.7,1.1-1.8,0.5-2.7l-0.7,0.6c0.3,0.5,0.2,0.9-0.1,1.3c-0.5,0.3-0.9,0.2-1.3-0.1
						l-0.7,0.6C159.4,243.1,160.7,243.1,161.4,242.5z"/>
				</g>
			</g>
			<g id="XMLID_81_">
				<g id="XMLID_82_">
					<path class="st8" d="M165.5,239.6c0.8-0.7,1.1-1.8,0.5-2.7l-0.7,0.6c0.3,0.5,0.2,0.9-0.1,1.3c-0.4,0.5-0.9,0.2-1.3-0.1
						l-0.7,0.6C163.5,240,164.7,240.3,165.5,239.6z"/>
				</g>
			</g>
			<g id="XMLID_79_">
				<g id="XMLID_80_">
					<path class="st8" d="M157.4,245.4c0.8-0.7,1.1-1.8,0.5-2.7l-0.7,0.6c0.3,0.5,0.2,0.9-0.1,1.3c-0.4,0.5-0.9,0.2-1.3-0.1
						l-0.7,0.6C155.4,245.9,156.6,246,157.4,245.4z"/>
				</g>
			</g>
			<g id="XMLID_77_">
				<g id="XMLID_78_">
					<path class="st8" d="M173.5,233.9c0.8-0.7,1.1-1.8,0.5-2.7l-0.7,0.6c0.3,0.5,0.2,0.9-0.1,1.3c-0.4,0.5-0.9,0.2-1.3-0.1
						l-0.7,0.6C171.5,234.1,172.6,234.4,173.5,233.9z"/>
				</g>
			</g>
			<g id="XMLID_75_">
				<g id="XMLID_76_">
					<path class="st8" d="M177.6,230.9c0.8-0.7,1.1-1.8,0.5-2.7l-0.7,0.6c0.3,0.5,0.2,0.9-0.1,1.3c-0.5,0.3-0.9,0.2-1.3-0.1
						l-0.7,0.6C175.5,231.2,176.5,231.5,177.6,230.9z"/>
				</g>
			</g>
			<g id="XMLID_73_">
				<g id="XMLID_74_">
					<path class="st8" d="M169.5,236.7c0.8-0.7,1.1-1.8,0.5-2.7l-0.7,0.6c0.3,0.5,0.2,0.9-0.1,1.3c-0.4,0.5-0.9,0.2-1.3-0.1
						l-0.7,0.6C167.5,237.1,168.6,237.3,169.5,236.7z"/>
				</g>
			</g>
			<g id="XMLID_71_">
				<g id="XMLID_72_">
					<path class="st8" d="M149.4,251.1c0.8-0.7,1.1-1.8,0.5-2.7l-0.7,0.6c0.3,0.5,0.2,0.9-0.1,1.3c-0.5,0.3-0.9,0.2-1.3-0.1
						l-0.7,0.6C147.4,251.6,148.5,251.9,149.4,251.1z"/>
				</g>
			</g>
			<g id="XMLID_69_">
				<g id="XMLID_70_">
					<path class="st8" d="M153.4,248.3c0.8-0.7,1.1-1.8,0.5-2.7l-0.7,0.6c0.3,0.5,0.2,0.9-0.1,1.3c-0.5,0.3-0.9,0.2-1.3-0.1L151,248
						C151.4,248.8,152.6,249,153.4,248.3z"/>
				</g>
			</g>
			<g id="XMLID_29_">
				<g id="XMLID_68_">
					<path class="st8" d="M145.4,254.1c0.8-0.7,1.1-1.8,0.5-2.7l-0.7,0.6c0.3,0.5,0.2,0.9-0.1,1.3c-0.4,0.5-0.9,0.2-1.3-0.1
						l-0.7,0.6C143.2,254.6,144.5,254.7,145.4,254.1z"/>
				</g>
			</g>
		</g>
	</g>
	<g>
		<circle class="st7" cx="175.6" cy="261.8" r="23.1"/>
	</g>
	<g>
		<g>
			<ellipse class="st6" cx="175.6" cy="261.8" rx="20" ry="20"/>
		</g>
	</g>
	<g>
		<g class="st9">
			<g>
				<path class="st0" d="M180.1,269.2c0.6,0.9,0.5,1.7-0.6,2.4l-9.6,7c-0.5,0.4-0.8,0.4-1.3,0.4c-0.4,0-0.8-0.3-1-0.7
					c-0.4-0.5-0.4-1.1-0.4-1.8l1.3-10.3c0.1-1.3,0.1-2.3,0.1-3.2c-0.2-0.8-0.4-1.6-0.9-2.3c-0.5-0.8-1.2-1.3-2-1.3
					c-0.7-0.1-1.5,0.1-2.4,0.8c-0.7,0.5-1.3,1.1-1.7,1.8c-0.4,0.7-0.8,1.5-1.1,2.4c-0.2,0.2-0.2,0.5-0.3,0.7
					c-0.2,0.2-0.2,0.4-0.4,0.5c-0.3,0.2-0.7,0.2-1,0.1c-0.4,0-0.7-0.4-1-0.7c-0.2-0.3-0.3-0.5-0.4-0.7c0-0.3,0-0.5,0.1-0.8
					c0.4-1.1,0.9-2.2,1.6-3.2c0.8-1.1,1.7-1.9,2.6-2.7c1.7-1.3,3.5-1.8,5.1-1.7c1.6,0.1,3,1,4.1,2.4c0.8,1,1.2,2.2,1.5,3.4
					s0.2,2.7,0,4.5l-1.1,7.7l6.6-4.7C178.6,268.2,179.5,268.3,180.1,269.2z"/>
			</g>
			<g>
				<path class="st0" d="M183.4,265.6c-2.2-0.7-4.4-2.6-6.6-5.5c-2.2-2.9-3.1-5.6-3.2-7.9c0-2.4,1-4.2,3.1-5.8
					c2.1-1.5,4.2-1.9,6.5-1.1c2.2,0.7,4.4,2.6,6.5,5.6c2.2,2.9,3.2,5.7,3.2,7.9c0,2.4-1,4.2-3.1,5.9
					C187.8,266,185.5,266.4,183.4,265.6z M189.3,258.5c-0.2-1.5-1.2-3.3-2.9-5.6c-1.7-2.3-3.1-3.7-4.4-4.4c-1.3-0.7-2.4-0.6-3.6,0.3
					c-1.2,0.9-1.7,1.9-1.3,3.4c0.2,1.5,1.2,3.3,2.9,5.6c1.7,2.3,3.1,3.7,4.4,4.4c1.3,0.7,2.4,0.6,3.6-0.3
					C189.1,261.2,189.6,260,189.3,258.5z"/>
			</g>
		</g>
	</g>
</g>
<g>
	<g>
		<g>
			<g>
				<path class="st10" d="M214.7,365.1c-13.6,0-24.7-11.2-24.7-24.7c0-13.5,11.2-24.7,24.7-24.7s24.7,11.2,24.7,24.7
					C239.4,353.9,228.5,365.1,214.7,365.1z"/>
			</g>
		</g>
		<g>
			<circle class="st11" cx="214.7" cy="340.4" r="17.9"/>
			<path class="st12" d="M214.7,358.8c-10.2,0-18.4-8.3-18.4-18.4c0-10.2,8.3-18.4,18.4-18.4s18.4,8.3,18.4,18.4
				C233.2,350.6,225,358.8,214.7,358.8z M214.7,323.1c-9.6,0-17.3,7.8-17.3,17.3c0,9.6,7.8,17.3,17.3,17.3s17.3-7.8,17.3-17.3
				C232.1,330.8,224.2,323.1,214.7,323.1z"/>
		</g>
	</g>
	<g>
		<g>
			<g>
				<path class="st13" d="M216.3,360.7c-0.4,0-0.6-0.2-0.6-0.6c0-0.4,0.2-0.6,0.6-0.7c0.2,0,0.4,0,0.6,0c0.4,0,0.6,0.2,0.7,0.6
					c0,0.4-0.2,0.6-0.6,0.7C216.8,360.7,216.6,360.7,216.3,360.7C216.4,360.7,216.3,360.7,216.3,360.7z M212,360.6L212,360.6
					c-0.4,0-0.5-0.1-0.7-0.1c-0.4,0-0.6-0.4-0.5-0.7c0-0.4,0.4-0.6,0.7-0.5c0.2,0,0.4,0.1,0.6,0.1c0.4,0,0.6,0.4,0.5,0.7
					C212.5,360.5,212.3,360.6,212,360.6z M221.3,359.8c-0.2,0-0.5-0.1-0.6-0.5c-0.1-0.4,0.1-0.7,0.4-0.8c0.2-0.1,0.4-0.1,0.6-0.2
					c0.4-0.1,0.7,0,0.8,0.4c0.1,0.4,0,0.7-0.4,0.8c-0.2,0.1-0.4,0.1-0.6,0.2C221.4,359.8,221.3,359.8,221.3,359.8z M207.1,359.3
					c-0.1,0-0.1,0-0.2,0c-0.2-0.1-0.4-0.1-0.6-0.2c-0.4-0.1-0.5-0.5-0.4-0.8c0.1-0.4,0.5-0.5,0.8-0.4c0.2,0.1,0.4,0.1,0.6,0.2
					c0.4,0.1,0.5,0.5,0.4,0.8C207.6,359.2,207.3,359.3,207.1,359.3z M225.7,357.5c-0.2,0-0.4-0.1-0.5-0.2c-0.2-0.2-0.1-0.7,0.1-0.8
					c0.1-0.1,0.4-0.2,0.5-0.4c0.2-0.2,0.7-0.1,0.8,0.1c0.2,0.2,0.1,0.7-0.1,0.8c-0.1,0.1-0.4,0.2-0.5,0.4
					C225.9,357.5,225.8,357.5,225.7,357.5z M202.8,356.8c-0.1,0-0.2,0-0.4-0.1c-0.1-0.1-0.4-0.2-0.5-0.4c-0.2-0.2-0.4-0.6-0.1-0.8
					c0.2-0.2,0.6-0.4,0.8-0.1c0.1,0.1,0.4,0.2,0.5,0.4c0.2,0.2,0.4,0.6,0.1,0.8C203.2,356.8,203,356.8,202.8,356.8z M229.5,354.2
					c-0.1,0-0.2,0-0.4-0.1c-0.2-0.2-0.2-0.6,0-0.8c0.1-0.1,0.2-0.4,0.4-0.5c0.2-0.2,0.6-0.2,0.8-0.1c0.2,0.2,0.2,0.6,0.1,0.8
					c-0.1,0.1-0.2,0.4-0.5,0.5C229.8,354.2,229.7,354.2,229.5,354.2z M199.2,353.4c-0.2,0-0.4-0.1-0.5-0.2c-0.1-0.1-0.2-0.4-0.4-0.5
					c-0.2-0.2-0.1-0.7,0.1-0.8c0.2-0.2,0.7-0.1,0.8,0.1c0.1,0.1,0.2,0.4,0.4,0.5c0.2,0.2,0.1,0.7-0.1,0.8
					C199.5,353.4,199.3,353.4,199.2,353.4z M232.4,350.2c-0.1,0-0.2,0-0.2-0.1c-0.4-0.1-0.5-0.5-0.2-0.8c0.1-0.2,0.2-0.4,0.2-0.6
					c0.1-0.4,0.5-0.5,0.8-0.2c0.4,0.1,0.5,0.5,0.2,0.8c-0.1,0.2-0.2,0.4-0.2,0.6C232.8,350.1,232.5,350.2,232.4,350.2z M196.6,349.1
					c-0.2,0-0.5-0.1-0.6-0.4c-0.1-0.2-0.1-0.4-0.2-0.6c-0.1-0.4,0-0.7,0.4-0.8c0.4-0.1,0.7,0,0.8,0.4c0.1,0.2,0.1,0.4,0.2,0.6
					c0.1,0.4,0,0.7-0.4,0.8C196.8,349.1,196.7,349.1,196.6,349.1z M234.1,345.5h-0.1c-0.4-0.1-0.6-0.4-0.5-0.7
					c0-0.2,0.1-0.4,0.1-0.6c0.1-0.4,0.4-0.6,0.7-0.5c0.4,0.1,0.6,0.4,0.5,0.7c0,0.2-0.1,0.5-0.1,0.6
					C234.7,345.2,234.4,345.5,234.1,345.5z M195.2,344.4c-0.2,0-0.6-0.2-0.6-0.5c0-0.2-0.1-0.5-0.1-0.6c0-0.4,0.2-0.6,0.5-0.7
					c0.4,0,0.7,0.2,0.7,0.5c0,0.2,0.1,0.4,0.1,0.6C195.9,343.9,195.6,344.3,195.2,344.4C195.3,344.4,195.2,344.4,195.2,344.4z
					 M234.5,340.5c-0.4,0-0.6-0.2-0.6-0.6c0-0.2,0-0.4,0-0.6c0-0.4,0.2-0.6,0.6-0.7c0.4,0,0.6,0.2,0.7,0.6c0,0.2,0,0.5,0,0.6
					C235.2,340.2,234.9,340.5,234.5,340.5L234.5,340.5z M194.9,339.3L194.9,339.3c-0.4,0-0.6-0.4-0.6-0.7c0-0.2,0-0.5,0.1-0.6
					c0-0.4,0.2-0.6,0.7-0.6c0.4,0,0.6,0.4,0.6,0.7c0,0.2,0,0.4,0,0.6C195.5,339.1,195.3,339.3,194.9,339.3z M233.8,335.5
					c-0.2,0-0.5-0.1-0.6-0.5c0-0.2-0.1-0.4-0.1-0.6c-0.1-0.4,0.1-0.7,0.4-0.8c0.4-0.1,0.7,0.1,0.8,0.4c0.1,0.2,0.1,0.4,0.2,0.6
					c0.1,0.4-0.1,0.7-0.5,0.7C233.9,335.5,233.9,335.5,233.8,335.5z M196,334.5c-0.1,0-0.1,0-0.2,0c-0.4-0.1-0.5-0.5-0.4-0.8
					c0.1-0.2,0.1-0.4,0.2-0.6c0.1-0.4,0.5-0.5,0.8-0.4c0.4,0.1,0.5,0.5,0.4,0.8c-0.1,0.2-0.1,0.4-0.2,0.6
					C196.5,334.4,196.2,334.5,196,334.5z M231.8,330.9c-0.2,0-0.5-0.1-0.5-0.4c-0.1-0.1-0.2-0.4-0.4-0.5c-0.2-0.2-0.1-0.7,0.2-0.8
					c0.2-0.2,0.7-0.1,0.8,0.2c0.1,0.2,0.2,0.4,0.4,0.6c0.1,0.2,0.1,0.7-0.2,0.8C232.1,330.9,231.9,330.9,231.8,330.9z M198.2,330
					c-0.1,0-0.2,0-0.4-0.1c-0.2-0.2-0.4-0.6-0.1-0.8c0.1-0.2,0.2-0.4,0.4-0.5c0.2-0.2,0.6-0.4,0.8-0.1c0.2,0.2,0.4,0.6,0.1,0.8
					c-0.1,0.1-0.2,0.4-0.4,0.5C198.6,329.9,198.4,330,198.2,330z M228.9,327c-0.1,0-0.4-0.1-0.5-0.2c-0.1-0.1-0.2-0.2-0.5-0.5
					c-0.2-0.2-0.2-0.6,0-0.8c0.2-0.2,0.6-0.2,0.8,0c0.1,0.1,0.4,0.4,0.5,0.5c0.2,0.2,0.2,0.6,0,0.8C229.1,326.9,229,327,228.9,327z
					 M201.4,326.2c-0.1,0-0.4-0.1-0.5-0.2c-0.2-0.2-0.2-0.6,0-0.8c0.1-0.1,0.4-0.2,0.5-0.5c0.2-0.2,0.6-0.2,0.8,0.1
					c0.2,0.2,0.2,0.6-0.1,0.8c-0.1,0.1-0.4,0.2-0.5,0.4C201.8,326.2,201.5,326.2,201.4,326.2z M224.8,324c-0.1,0-0.2,0-0.4-0.1
					c-0.1-0.1-0.4-0.2-0.5-0.4c-0.4-0.1-0.4-0.6-0.2-0.8c0.1-0.4,0.6-0.4,0.8-0.2c0.2,0.1,0.4,0.2,0.6,0.4c0.2,0.1,0.4,0.6,0.2,0.8
					S225.1,324,224.8,324z M205.6,323.4c-0.2,0-0.5-0.1-0.6-0.4c-0.1-0.4,0-0.7,0.2-0.8c0.2-0.1,0.4-0.2,0.6-0.2
					c0.4-0.1,0.7,0,0.8,0.2c0.1,0.4,0,0.7-0.2,0.8c-0.2,0.1-0.4,0.2-0.6,0.2C205.8,323.4,205.7,323.4,205.6,323.4z M220.3,322h-0.1
					c-0.2,0-0.4-0.1-0.6-0.1c-0.4-0.1-0.5-0.5-0.5-0.7c0.1-0.4,0.5-0.5,0.7-0.5c0.2,0,0.5,0.1,0.6,0.1c0.4,0.1,0.5,0.5,0.5,0.7
					C220.8,321.7,220.6,322,220.3,322z M210.3,321.6c-0.2,0-0.6-0.2-0.6-0.5c-0.1-0.4,0.1-0.7,0.5-0.7c0.2,0,0.5-0.1,0.6-0.1
					c0.4-0.1,0.7,0.1,0.7,0.5c0.1,0.4-0.1,0.7-0.5,0.7c-0.2,0-0.4,0.1-0.6,0.1C210.3,321.6,210.3,321.6,210.3,321.6z M215.4,321.1
					L215.4,321.1c-0.2,0-0.5,0-0.6,0c-0.4,0-0.6-0.2-0.6-0.6c0-0.4,0.2-0.6,0.6-0.6c0.2,0,0.5,0,0.6,0c0.4,0,0.6,0.2,0.6,0.6
					C216,320.9,215.7,321.1,215.4,321.1z"/>
			</g>
		</g>
	</g>
	<g>
		<g class="st9">
			<g>
				<path class="st14" d="M214.4,346.4c0,0.7-0.5,1.2-1.3,1.2h-7.3c-0.8,0-1.3-0.4-1.3-1.2c0-0.7,0.5-1.1,1.3-1.1h2.2v-9.8l-2,1.3
					c-0.2,0.1-0.4,0.1-0.6,0.1c-0.4,0-0.6-0.1-0.7-0.4c-0.2-0.2-0.4-0.6-0.4-0.8c0-0.5,0.2-0.7,0.6-0.9l3.3-2.1
					c0.5-0.2,0.8-0.4,1.2-0.4c0.4,0,0.7,0.1,0.9,0.4c0.2,0.2,0.4,0.6,0.4,1.1v11.7h2.2C214,345.4,214.4,345.7,214.4,346.4z"/>
			</g>
			<g>
				<path class="st14" d="M217.6,345.8c-0.9-1.3-1.4-3.3-1.4-5.8c0-2.5,0.5-4.5,1.4-5.8s2.4-2,4.1-2s3.2,0.7,4.1,2s1.4,3.3,1.4,5.8
					c0,2.5-0.5,4.5-1.4,5.8s-2.4,2-4.1,2C219.9,347.8,218.6,347.1,217.6,345.8z M223.9,344.3c0.5-0.9,0.7-2.4,0.7-4.3
					c0-2-0.2-3.4-0.7-4.3c-0.5-0.8-1.2-1.3-2.1-1.3s-1.7,0.5-2.1,1.3c-0.5,0.9-0.7,2.4-0.7,4.3c0,2,0.2,3.4,0.7,4.3
					c0.5,0.9,1.2,1.3,2.1,1.3S223.4,345.1,223.9,344.3z"/>
			</g>
		</g>
	</g>
</g>
<g>
	<g>
		<g>
			<g>
				<circle class="st10" cx="241.5" cy="273" r="20.6"/>
			</g>
		</g>
		<g>
			<circle class="st15" cx="241.5" cy="273" r="13.6"/>
		</g>
		<g>
			<g class="st9">
				<g>
					<path class="st16" d="M244.8,271.7c0.7,0.5,1.3,0.9,1.7,1.8c0.4,0.7,0.6,1.5,0.6,2.6c0,0.9-0.2,1.9-0.7,2.7
						c-0.5,0.8-1.1,1.4-1.9,1.8c-0.8,0.5-1.8,0.6-2.8,0.6c-0.9,0-1.8-0.1-2.6-0.5c-0.8-0.4-1.7-0.7-2.2-1.2
						c-0.4-0.2-0.5-0.6-0.5-1.1c0-0.4,0.1-0.6,0.2-0.8c0.2-0.2,0.4-0.4,0.6-0.4c0.1,0,0.2,0,0.5,0.1c0.1,0,0.2,0.1,0.5,0.2
						c0.6,0.4,1.2,0.7,1.7,0.9c0.6,0.2,1.2,0.4,1.8,0.4c0.9,0,1.7-0.2,2.2-0.7c0.5-0.5,0.7-1.2,0.7-2s-0.2-1.5-0.8-2
						c-0.5-0.5-1.2-0.7-2.1-0.7c-0.6,0-1.1,0.1-1.5,0.2c-0.5,0.1-0.9,0.5-1.4,0.8c-0.2,0.2-0.6,0.2-0.8,0.2s-0.6-0.1-0.7-0.2
						c-0.2-0.1-0.4-0.4-0.4-0.7v-6.9c0-0.4,0.1-0.7,0.4-0.9s0.6-0.4,0.9-0.4h7.2c0.8,0,1.3,0.4,1.3,1.1s-0.5,1.1-1.3,1.1h-5.8v4.1
						c0.7-0.5,1.7-0.8,2.7-0.8C243.3,271.1,244.1,271.3,244.8,271.7z"/>
				</g>
			</g>
		</g>
	</g>
	<g>
		<g>
			<g>
				<path class="st13" d="M243.3,290c-0.2,0-0.5-0.2-0.5-0.5c0-0.2,0.1-0.5,0.5-0.6c0.1,0,0.4,0,0.5-0.1c0.2,0,0.6,0.1,0.6,0.5
					c0,0.2-0.1,0.6-0.5,0.6C243.6,290,243.5,290,243.3,290L243.3,290z M239.6,290L239.6,290c-0.2,0-0.4,0-0.6-0.1
					c-0.2,0-0.5-0.4-0.5-0.6s0.2-0.5,0.6-0.5l0.5,0.1c0.2,0,0.5,0.2,0.5,0.6C240.1,289.9,239.8,290,239.6,290z M247.3,289.1
					c-0.2,0-0.4-0.1-0.5-0.4c-0.1-0.2,0-0.6,0.4-0.7c0.1,0,0.4-0.1,0.5-0.2c0.2-0.1,0.6,0,0.7,0.2c0.1,0.2,0,0.6-0.2,0.7
					c-0.1,0.1-0.4,0.1-0.5,0.2C247.4,289.1,247.4,289.1,247.3,289.1z M235.6,289.1c-0.1,0-0.1,0-0.2,0c-0.1-0.1-0.4-0.1-0.5-0.2
					c-0.2-0.1-0.4-0.4-0.2-0.7c0.1-0.2,0.4-0.4,0.7-0.2c0.1,0.1,0.4,0.1,0.5,0.2c0.2,0.1,0.4,0.4,0.4,0.7
					C235.9,288.9,235.8,289.1,235.6,289.1z M251,287.2c-0.1,0-0.4-0.1-0.5-0.2c-0.1-0.2-0.1-0.6,0.1-0.7c0.1-0.1,0.2-0.2,0.4-0.2
					c0.2-0.1,0.6-0.1,0.7,0.1c0.1,0.2,0.1,0.6-0.1,0.7c-0.1,0.1-0.2,0.2-0.5,0.4C251.2,287.2,251.1,287.2,251,287.2z M231.9,287
					c-0.1,0-0.2,0-0.2-0.1c-0.1-0.1-0.2-0.2-0.5-0.4s-0.2-0.5-0.1-0.7c0.1-0.2,0.5-0.2,0.7-0.1c0.1,0.1,0.2,0.2,0.4,0.2
					c0.2,0.1,0.2,0.5,0.1,0.7C232.3,287,232,287,231.9,287z M254,284.3c-0.1,0-0.2,0-0.4-0.1c-0.2-0.2-0.2-0.5,0-0.7
					c0.1-0.1,0.2-0.2,0.4-0.4c0.1-0.2,0.5-0.2,0.7-0.1c0.2,0.1,0.2,0.5,0.1,0.7c-0.1,0.1-0.2,0.2-0.4,0.5
					C254.3,284.3,254.1,284.3,254,284.3z M228.8,284.3c-0.1,0-0.2-0.1-0.4-0.2s-0.2-0.2-0.4-0.4c-0.2-0.2-0.1-0.6,0.1-0.7
					c0.2-0.1,0.6-0.1,0.7,0.1c0.1,0.1,0.2,0.2,0.4,0.4c0.2,0.2,0.1,0.6,0,0.7C229.1,284.3,229,284.3,228.8,284.3z M256.4,280.9
					c-0.1,0-0.1,0-0.2,0c-0.2-0.1-0.4-0.5-0.2-0.7c0.1-0.1,0.1-0.4,0.2-0.5c0.1-0.2,0.5-0.4,0.7-0.2c0.2,0.1,0.4,0.5,0.2,0.7
					c-0.1,0.1-0.1,0.4-0.2,0.5C256.7,280.8,256.5,280.9,256.4,280.9z M226.6,280.9c-0.2,0-0.4-0.1-0.5-0.2c-0.1-0.1-0.1-0.4-0.2-0.5
					c-0.1-0.2,0-0.6,0.2-0.7c0.2-0.1,0.6,0,0.7,0.2l0.2,0.5c0.1,0.2,0,0.6-0.2,0.7C226.7,280.8,226.6,280.9,226.6,280.9z M257.7,277
					L257.7,277c-0.4-0.1-0.6-0.4-0.5-0.6l0.1-0.5c0-0.2,0.4-0.5,0.6-0.4c0.2,0,0.5,0.4,0.4,0.6l-0.1,0.5
					C258.2,276.9,257.9,277,257.7,277z M225.2,276.9c-0.2,0-0.5-0.1-0.5-0.4c0-0.1-0.1-0.4-0.1-0.5c0-0.2,0.1-0.6,0.5-0.6
					c0.4,0,0.6,0.1,0.6,0.5c0,0.1,0.1,0.4,0.1,0.5C225.8,276.6,225.6,276.9,225.2,276.9C225.3,276.9,225.3,276.9,225.2,276.9z
					 M258,272.9c-0.2,0-0.5-0.2-0.5-0.5c0-0.1,0-0.4,0-0.5c0-0.2,0.2-0.5,0.5-0.6c0.2,0,0.5,0.2,0.6,0.5c0,0.1,0,0.4,0,0.6
					C258.6,272.6,258.4,272.9,258,272.9L258,272.9z M224.9,272.9C224.8,272.9,224.8,272.9,224.9,272.9c-0.4,0-0.5-0.2-0.5-0.6
					c0-0.2,0-0.4,0-0.6c0-0.2,0.2-0.5,0.6-0.5c0.2,0,0.5,0.2,0.5,0.6c0,0.1,0,0.4,0,0.5C225.4,272.6,225.2,272.9,224.9,272.9z
					 M257.5,268.8c-0.2,0-0.5-0.1-0.5-0.4c0-0.1-0.1-0.4-0.1-0.5c-0.1-0.2,0-0.6,0.4-0.6c0.2-0.1,0.6,0,0.6,0.4
					c0,0.1,0.1,0.4,0.1,0.5c0.1,0.2-0.1,0.6-0.4,0.6C257.5,268.8,257.5,268.8,257.5,268.8z M225.5,268.7h-0.1
					c-0.2-0.1-0.5-0.4-0.4-0.6c0-0.1,0.1-0.4,0.1-0.5c0.1-0.2,0.4-0.4,0.6-0.4c0.2,0.1,0.4,0.4,0.4,0.6c0,0.1-0.1,0.4-0.1,0.5
					C226,268.6,225.8,268.7,225.5,268.7z M255.7,264.9c-0.1,0-0.4-0.1-0.5-0.2c-0.1-0.1-0.1-0.2-0.2-0.5c-0.1-0.2-0.1-0.6,0.1-0.7
					c0.2-0.1,0.6-0.1,0.7,0.1c0.1,0.1,0.2,0.4,0.2,0.5c0.1,0.2,0.1,0.6-0.2,0.7C255.9,264.9,255.8,264.9,255.7,264.9z M227.3,264.9
					c-0.1,0-0.2,0-0.2-0.1c-0.2-0.1-0.4-0.5-0.1-0.7c0.1-0.1,0.2-0.4,0.2-0.5c0.1-0.2,0.5-0.4,0.7-0.1c0.2,0.1,0.4,0.5,0.1,0.7
					c-0.1,0.1-0.2,0.2-0.2,0.5C227.5,264.8,227.4,264.9,227.3,264.9z M253.2,261.7c-0.1,0-0.2,0-0.4-0.1c-0.1-0.1-0.2-0.2-0.4-0.4
					c-0.2-0.2-0.2-0.5,0-0.7c0.2-0.2,0.5-0.2,0.7,0c0.1,0.1,0.2,0.2,0.4,0.4c0.2,0.2,0.2,0.5,0,0.7
					C253.4,261.6,253.3,261.7,253.2,261.7z M229.8,261.6c-0.1,0-0.2,0-0.4-0.1c-0.2-0.2-0.2-0.5,0-0.7c0.1-0.1,0.2-0.2,0.4-0.4
					c0.2-0.2,0.6-0.1,0.7,0c0.2,0.2,0.1,0.5,0,0.7c-0.1,0.1-0.2,0.2-0.4,0.4C230.1,261.6,229.9,261.6,229.8,261.6z M249.9,259.1
					c-0.1,0-0.2,0-0.2-0.1c-0.1-0.1-0.2-0.1-0.5-0.2c-0.2-0.1-0.4-0.5-0.2-0.7c0.1-0.2,0.5-0.4,0.7-0.2c0.1,0.1,0.4,0.1,0.5,0.2
					c0.2,0.1,0.4,0.5,0.2,0.7C250.2,259.1,250.1,259.1,249.9,259.1z M233.1,259.1c-0.1,0-0.4-0.1-0.5-0.2c-0.1-0.2,0-0.6,0.2-0.7
					c0.1-0.1,0.4-0.2,0.5-0.2c0.2-0.1,0.6,0,0.7,0.2c0.1,0.2,0,0.6-0.2,0.7c-0.1,0.1-0.2,0.1-0.5,0.2
					C233.3,259.1,233.2,259.1,233.1,259.1z M246.1,257.6H246c-0.1,0-0.4-0.1-0.5-0.1c-0.2-0.1-0.5-0.4-0.4-0.6
					c0.1-0.2,0.4-0.5,0.6-0.4c0.1,0,0.4,0.1,0.5,0.1c0.2,0.1,0.5,0.4,0.4,0.6C246.5,257.4,246.3,257.6,246.1,257.6z M236.9,257.5
					c-0.2,0-0.5-0.1-0.5-0.4c-0.1-0.2,0.1-0.6,0.4-0.6c0.1,0,0.4-0.1,0.5-0.1c0.2-0.1,0.6,0.1,0.6,0.4c0.1,0.2-0.1,0.6-0.4,0.6
					c-0.1,0-0.4,0.1-0.5,0.1C237,257.5,237,257.5,236.9,257.5z M242,256.9L242,256.9c-0.2,0-0.4,0-0.5,0H241c-0.4,0-0.5-0.2-0.5-0.5
					s0.2-0.5,0.5-0.5h0.5c0.2,0,0.4,0,0.6,0s0.5,0.2,0.5,0.5S242.3,256.9,242,256.9z"/>
			</g>
		</g>
	</g>
	<g id="XMLID_7_">
		<path class="st16" d="M233.7,276.1C233.7,276.1,233.7,276.3,233.7,276.1C233.7,276.3,233.7,276.1,233.7,276.1 M237,275.9
			C237,275.9,236.8,276.1,237,275.9c-0.2,0.2-0.4,0.2-0.4,0.2S236.8,276.1,237,275.9L237,275.9"/>
	</g>
</g>
<g>
	<g>
		<g>
			<circle class="st17" cx="114.8" cy="265.2" r="15.8"/>
		</g>
		<circle class="st17" cx="114.8" cy="265.2" r="10.3"/>
		<g>
			<g class="st9">
				<path class="st16" d="M121.1,271.6c0,0.8-0.5,1.2-1.4,1.2H112c-0.9,0-1.4-0.4-1.4-1.2c0-0.8,0.5-1.2,1.4-1.2h2.4v-10.5l-2.2,1.4
					c-0.2,0.1-0.4,0.2-0.6,0.2c-0.3,0-0.6-0.1-0.8-0.4c-0.2-0.3-0.3-0.6-0.3-0.9c0-0.4,0.2-0.8,0.6-1l3.6-2.2
					c0.5-0.3,0.9-0.4,1.3-0.4c0.4,0,0.8,0.1,1,0.4c0.3,0.3,0.4,0.6,0.4,1.1v12.5h2.4C120.7,270.4,121.1,270.8,121.1,271.6z"/>
			</g>
		</g>
	</g>
	<g>
		<g>
			<ellipse class="st18" cx="114.8" cy="265.2" rx="12.7" ry="12.7"/>
		</g>
	</g>
	<path id="XMLID_105_" class="st16" d="M108.9,267.6c0,0,0.1,0,0.1,0C109,267.7,108.9,267.6,108.9,267.6"/>
</g>
<g>
	<g>
		<g>
			<circle class="st17" cx="218.3" cy="292.7" r="15.8"/>
		</g>
		<circle class="st17" cx="218.3" cy="292.7" r="10.3"/>
		<g>
			<g class="st9">
				<path class="st16" d="M224.6,299.1c0,0.8-0.5,1.2-1.4,1.2h-7.8c-0.9,0-1.4-0.4-1.4-1.2c0-0.8,0.5-1.2,1.4-1.2h2.4v-10.5
					l-2.2,1.4c-0.2,0.1-0.4,0.2-0.6,0.2c-0.3,0-0.6-0.1-0.8-0.4c-0.2-0.3-0.3-0.6-0.3-0.9c0-0.4,0.2-0.8,0.6-1l3.6-2.2
					c0.5-0.3,0.9-0.4,1.3-0.4c0.4,0,0.8,0.1,1,0.4c0.3,0.3,0.4,0.6,0.4,1.1v12.5h2.4C224.2,297.9,224.6,298.3,224.6,299.1z"/>
			</g>
		</g>
	</g>
	<g>
		<g>
			<ellipse class="st18" cx="218.3" cy="292.7" rx="12.7" ry="12.7"/>
		</g>
	</g>
	<path id="XMLID_6_" class="st16" d="M212.4,295.1c0,0,0.1,0,0.1,0C212.5,295.2,212.4,295.1,212.4,295.1"/>
</g>
<g>
	<g>
		<g>
			<g>
				<path class="st17" d="M244.9,369.1c-8.7,0-15.8-7.1-15.8-15.8c0-8.7,7.1-15.8,15.8-15.8c8.7,0,15.8,7.1,15.8,15.8
					C260.7,362,253.6,369.1,244.9,369.1z"/>
			</g>
			<circle class="st15" cx="244.9" cy="353.3" r="10.3"/>
			<g>
				<g>
					<g class="st9">
						<path class="st16" d="M250.9,359.1c0,0.7-0.4,1.1-1.3,1.1h-8c-0.4,0-0.7-0.1-0.9-0.3c-0.2-0.2-0.3-0.5-0.3-0.8
							c0-0.4,0.2-0.8,0.5-1.1l4.8-5.2c0.6-0.6,1-1.2,1.3-1.8c0.3-0.5,0.4-1.1,0.4-1.6c0-0.7-0.2-1.2-0.6-1.5
							c-0.4-0.4-0.9-0.5-1.6-0.5c-0.6,0-1.1,0.1-1.7,0.3c-0.5,0.2-1.1,0.5-1.6,0.9c-0.1,0.1-0.3,0.2-0.4,0.2
							c-0.1,0.1-0.3,0.1-0.4,0.1c-0.2,0-0.4-0.1-0.6-0.3c-0.2-0.2-0.3-0.5-0.3-0.8c0-0.2,0-0.4,0.1-0.5c0.1-0.2,0.2-0.3,0.4-0.4
							c0.6-0.5,1.3-0.9,2.2-1.2c0.8-0.3,1.7-0.4,2.5-0.4c1.5,0,2.6,0.4,3.5,1.1c0.9,0.7,1.3,1.7,1.3,3c0,0.9-0.2,1.7-0.6,2.4
							s-1,1.6-1.9,2.5L244,358h5.6C250.4,358,250.9,358.4,250.9,359.1z"/>
					</g>
				</g>
			</g>
		</g>
		<g>
			<g>
				<ellipse class="st18" cx="244.9" cy="353.3" rx="12.7" ry="12.7"/>
			</g>
		</g>
	</g>
	<path id="XMLID_1_" class="st16" d="M239,355.7c0,0,0.1,0,0.1,0C239,355.7,239,355.7,239,355.7 M241.5,355.5c0,0-0.1,0.1-0.1,0.1
		c0,0-0.1,0.1-0.2,0.1c0.1,0,0.2-0.1,0.2-0.2C241.4,355.5,241.4,355.5,241.5,355.5"/>
</g>
<g>
	<g>
		<g>
			<g>
				<path class="st17" d="M246.1,333.8c-8.7,0-15.8-7.1-15.8-15.8s7.1-15.8,15.8-15.8c8.7,0,15.8,7.1,15.8,15.8
					S254.8,333.8,246.1,333.8z"/>
			</g>
			<circle class="st15" cx="246.1" cy="318" r="10.3"/>
			<g>
				<g>
					<g class="st9">
						<path class="st16" d="M252,323.8c0,0.7-0.4,1.1-1.3,1.1h-8c-0.4,0-0.7-0.1-0.9-0.3c-0.2-0.2-0.3-0.5-0.3-0.8
							c0-0.4,0.2-0.8,0.5-1.1l4.8-5.2c0.6-0.6,1-1.2,1.3-1.8c0.3-0.5,0.4-1.1,0.4-1.6c0-0.7-0.2-1.2-0.6-1.5
							c-0.4-0.4-0.9-0.5-1.6-0.5c-0.6,0-1.1,0.1-1.7,0.3c-0.5,0.2-1.1,0.5-1.6,0.9c-0.1,0.1-0.3,0.2-0.4,0.2
							c-0.1,0.1-0.3,0.1-0.4,0.1c-0.2,0-0.4-0.1-0.6-0.3c-0.2-0.2-0.3-0.5-0.3-0.8c0-0.2,0-0.4,0.1-0.5c0.1-0.2,0.2-0.3,0.4-0.4
							c0.6-0.5,1.3-0.9,2.2-1.2s1.7-0.4,2.5-0.4c1.5,0,2.6,0.4,3.5,1.1c0.9,0.7,1.3,1.7,1.3,3c0,0.9-0.2,1.7-0.6,2.4
							c-0.4,0.8-1,1.6-1.9,2.5l-3.7,3.9h5.6C251.6,322.7,252,323.1,252,323.8z"/>
					</g>
				</g>
			</g>
		</g>
		<g>
			<g>
				<ellipse class="st18" cx="246.1" cy="318" rx="12.7" ry="12.7"/>
			</g>
		</g>
	</g>
	<path id="XMLID_5_" class="st16" d="M240.1,320.4c0,0,0.1,0,0.1,0C240.2,320.4,240.2,320.4,240.1,320.4 M242.6,320.2
		c0,0-0.1,0.1-0.1,0.1c0,0-0.1,0.1-0.2,0.1c0.1,0,0.2-0.1,0.2-0.2C242.6,320.3,242.6,320.2,242.6,320.2"/>
</g>
<g>
	<g>
		<g>
			<g>
				<g>
					<path class="st3" d="M91.1,339.5c-4.4-1.1-7.2-5.6-6.1-10.2l11.9-48.6c1.1-4.4,5.6-7.2,10.2-6.1l88.2,21.6
						c4.4,1.1,7.2,5.6,6.1,10.2l-11.9,48.7c-1.1,4.4-5.6,7.2-10.2,6.1L91.1,339.5L91.1,339.5z"/>
				</g>
			</g>
			<g>
				<g>
					<path class="st19" d="M172.4,351.1l-70.6-17.3c1.2-4.8-1.9-9.8-6.6-11l7.6-30.9c4.8,1.2,9.8-1.9,11-6.6l70.6,17.3
						c-1.2,4.8,1.9,9.8,6.6,11l-7.6,30.9C178.7,343.2,173.7,346.3,172.4,351.1z"/>
				</g>
			</g>
		</g>
		<g>
			<g>
				<ellipse class="st2" cx="106.5" cy="285.5" rx="3.7" ry="3.7"/>
			</g>
			<g>
				<ellipse class="st2" cx="191.3" cy="306.4" rx="3.7" ry="3.7"/>
			</g>
		</g>
		<g>
			<g>
				<ellipse class="st2" cx="95.3" cy="330.7" rx="3.7" ry="3.7"/>
			</g>
			<g>
				<ellipse class="st2" cx="180.4" cy="351.4" rx="3.7" ry="3.7"/>
			</g>
		</g>
		<g>
			<g>
				<circle class="st3" cx="116.9" cy="294.7" r="2"/>
			</g>
		</g>
		<g>
			<g>
				<circle class="st3" cx="122.7" cy="299" r="2"/>
			</g>
		</g>
		<g>
			<g>
				<circle class="st3" cx="170.1" cy="307.5" r="2"/>
			</g>
		</g>
		<g>
			<g>
				<circle class="st3" cx="106.7" cy="299.7" r="2"/>
			</g>
		</g>
		<g>
			<g>
				<circle class="st3" cx="107.4" cy="328.7" r="2"/>
			</g>
		</g>
		<g>
			<g>
				<circle class="st3" cx="116.1" cy="325.9" r="2"/>
			</g>
		</g>
		<g>
			<g>
				<circle class="st3" cx="101.6" cy="320.7" r="2"/>
			</g>
		</g>
		<g>
			<g>
				<circle class="st3" cx="102.8" cy="310.9" r="2"/>
			</g>
		</g>
		<g>
			<g>
				<circle class="st3" cx="179.6" cy="312.3" r="2"/>
			</g>
		</g>
		<g>
			<g>
				<circle class="st3" cx="172.4" cy="323" r="2"/>
			</g>
		</g>
		<g>
			<g>
				<circle class="st3" cx="183.3" cy="321.4" r="2"/>
			</g>
		</g>
		<g>
			<g>
				<circle class="st3" cx="179.1" cy="333.4" r="2"/>
			</g>
		</g>
		<g>
			<g>
				<circle class="st3" cx="171.4" cy="332.8" r="2"/>
			</g>
		</g>
		<g>
			<g>
				<circle class="st3" cx="161.6" cy="338" r="2"/>
			</g>
		</g>
		<g>
			<g>
				<circle class="st3" cx="170.5" cy="342.7" r="2"/>
			</g>
		</g>
		<g id="XMLID_67_">
			<path class="st0" d="M110.2,319.7c-0.4-0.1-0.6-0.5-0.5-0.8l0.2-0.8c-1.3-0.5-1.9-0.9-2.6-1.9l-0.2,0.8c-0.1,0.4-0.5,0.6-0.8,0.5
				c-0.4-0.1-0.6-0.5-0.5-0.8l0.9-3.8c0.1-0.4,0.5-0.6,0.8-0.5c0.4,0.1,0.6,0.5,0.5,0.8l-0.4,1.3c0.5,0.8,0.8,1.2,1.8,1.9
				c0.2,0.2,0.5,0.2,0.7,0.5l1.4-5.9c-1.1-0.7-1.9-1.2-2.2-1.5c-0.6-0.5-0.9-0.9-1.2-1.5c-0.4-0.5-0.4-1.1-0.1-1.8
				c0.2-1.2,0.9-2,1.9-2.5c0.8-0.5,2.1-0.5,3.8-0.2l0.1-0.7c0.1-0.4,0.5-0.6,0.8-0.5c0.4,0.1,0.6,0.5,0.5,0.8l-0.2,0.8
				c1.1,0.4,1.9,1.1,2.5,1.8c0.1,0.1,0.1,0.4,0.1,0.5l0.2-0.8c0.1-0.4,0.5-0.6,0.8-0.5c0.4,0.1,0.6,0.5,0.5,0.8l-0.9,3.8
				c-0.1,0.4-0.5,0.6-0.8,0.5c-0.4-0.1-0.6-0.5-0.5-0.8l0.4-1.3c-0.5-0.8-1.1-1.7-1.9-2.2c-0.2-0.2-0.5-0.2-0.7-0.5l-1.3,5.3
				c0.1,0.1,0.4,0.2,0.8,0.5c0.6,0.4,1.4,0.7,1.9,1.2c0.6,0.5,0.9,0.9,1.2,1.5c0.4,0.5,0.2,1.2,0.1,1.9c-0.4,1.3-0.9,2.1-2,2.6
				c-0.9,0.5-2.4,0.6-3.9,0.2l-0.1,0.7C110.9,319.7,110.6,319.8,110.2,319.7 M108.5,316.5c0.1,0.1,0.1,0.1,0.2,0.2
				C108.8,316.7,108.6,316.6,108.5,316.5 M112.8,311.8l-1.3,5.4c1.2,0.2,2.2,0.2,3-0.1c0.8-0.4,1.2-0.9,1.4-1.8
				c0.1-0.4,0.1-0.8-0.1-1.2c-0.1-0.5-0.5-0.8-0.8-1.1c-0.4-0.2-0.8-0.6-1.2-0.7L112.8,311.8z M115,317.5c-0.1,0.1-0.1,0.1-0.4,0.2
				c-0.1,0.1-0.4,0.1-0.5,0.1c0.1-0.1,0.5,0,0.6-0.2C114.8,317.7,115,317.7,115,317.5 M113.3,304.7c-1.2-0.2-2-0.2-2.7,0
				c-0.6,0.2-1.1,0.8-1.3,1.7c-0.1,0.4-0.1,0.8,0.1,1.2c0.1,0.5,0.5,0.8,0.8,1.1c0.4,0.2,0.8,0.6,1.2,0.7c0.2,0.2,0.4,0.2,0.6,0.4
				L113.3,304.7L113.3,304.7z"/>
		</g>
		<g id="XMLID_48_">
			<g id="XMLID_65_">
				<g id="XMLID_66_">
					<g>
						<path class="st20" d="M137,341.4c-0.9-0.2-2,0.4-2.4,1.4l0.9,0.2c0.1-0.6,0.6-0.8,1.2-0.7c0.6,0.1,0.8,0.6,0.7,1.2l0.9,0.2
							C138.6,342.7,138,341.8,137,341.4z"/>
					</g>
				</g>
			</g>
			<g id="XMLID_63_">
				<g id="XMLID_64_">
					<g>
						<path class="st20" d="M132.3,340.4c-0.9-0.2-2,0.4-2.4,1.4l0.9,0.2c0.1-0.6,0.6-0.8,1.2-0.7c0.6,0.1,0.8,0.6,0.7,1.2l0.9,0.2
							C134,341.5,133.4,340.6,132.3,340.4z"/>
					</g>
				</g>
			</g>
			<g id="XMLID_61_">
				<g id="XMLID_62_">
					<g>
						<path class="st20" d="M141.8,342.6c-0.9-0.2-2,0.4-2.4,1.4l0.9,0.2c0.1-0.6,0.6-0.8,1.2-0.7c0.6,0.1,0.8,0.6,0.7,1.2l0.9,0.2
							C143.5,343.9,142.9,343,141.8,342.6z"/>
					</g>
				</g>
			</g>
			<g id="XMLID_59_">
				<g id="XMLID_60_">
					<g>
						<path class="st20" d="M122.9,338c-0.9-0.2-2,0.4-2.4,1.4l0.9,0.2c0.1-0.6,0.6-0.8,1.2-0.7c0.6,0.1,0.8,0.6,0.7,1.2l0.9,0.2
							C124.4,339.2,123.7,338.2,122.9,338z"/>
					</g>
				</g>
			</g>
			<g id="XMLID_57_">
				<g id="XMLID_58_">
					<g>
						<path class="st20" d="M118,336.8c-0.9-0.2-2,0.4-2.4,1.4l0.9,0.2c0.1-0.6,0.6-0.8,1.2-0.7c0.6,0.1,0.8,0.6,0.7,1.2l0.9,0.2
							C119.6,338,119,337.1,118,336.8z"/>
					</g>
				</g>
			</g>
			<g id="XMLID_55_">
				<g id="XMLID_56_">
					<g>
						<path class="st20" d="M127.5,339.2c-0.9-0.2-2,0.4-2.4,1.4l0.9,0.2c0.1-0.6,0.6-0.8,1.2-0.7s0.8,0.6,0.7,1.2l0.9,0.2
							C129.2,340.4,128.4,339.4,127.5,339.2z"/>
					</g>
				</g>
			</g>
			<g id="XMLID_53_">
				<g id="XMLID_54_">
					<g>
						<path class="st20" d="M151.4,345c-0.9-0.2-2,0.4-2.4,1.4l0.9,0.2c0.1-0.6,0.6-0.8,1.2-0.7c0.6,0.1,0.8,0.6,0.7,1.2l0.9,0.2
							C153,346.3,152.3,345.2,151.4,345z"/>
					</g>
				</g>
			</g>
			<g id="XMLID_51_">
				<g id="XMLID_52_">
					<g>
						<path class="st20" d="M146.5,343.8c-0.9-0.2-2,0.4-2.4,1.4l0.9,0.2c0.1-0.6,0.6-0.8,1.2-0.7c0.6,0.1,0.8,0.6,0.7,1.2l0.9,0.2
							C148.1,345.1,147.5,344,146.5,343.8z"/>
					</g>
				</g>
			</g>
			<g id="XMLID_49_">
				<g id="XMLID_50_">
					<g>
						<path class="st20" d="M156,346.2c-0.9-0.2-2,0.4-2.4,1.4l0.9,0.2c0.1-0.6,0.6-0.8,1.2-0.7c0.6,0.1,0.8,0.6,0.7,1.2l0.9,0.2
							C157.8,347.5,157.1,346.4,156,346.2z"/>
					</g>
				</g>
			</g>
		</g>
		<g id="XMLID_10_">
			<g id="XMLID_46_">
				<g id="XMLID_47_">
					<g>
						<path class="st20" d="M148.4,294.5c0.9,0.2,2-0.4,2.4-1.4l-0.9-0.2c-0.1,0.6-0.6,0.8-1.2,0.7c-0.6-0.1-0.8-0.6-0.7-1.2
							l-0.9-0.2C146.9,293.3,147.6,294.3,148.4,294.5z"/>
					</g>
				</g>
			</g>
			<g id="XMLID_44_">
				<g id="XMLID_45_">
					<g>
						<path class="st20" d="M153.3,295.7c0.9,0.2,2-0.4,2.4-1.4l-0.9-0.2c-0.1,0.6-0.6,0.8-1.2,0.7c-0.6-0.1-0.8-0.6-0.7-1.2
							l-0.9-0.2C151.7,294.5,152.3,295.4,153.3,295.7z"/>
					</g>
				</g>
			</g>
			<g id="XMLID_42_">
				<g id="XMLID_43_">
					<g>
						<path class="st20" d="M143.8,293.4c0.9,0.2,2-0.4,2.4-1.4l-0.9-0.2c-0.1,0.6-0.6,0.8-1.2,0.7c-0.6-0.1-0.8-0.6-0.7-1.2
							l-0.9-0.2C142.2,292.1,142.9,293.2,143.8,293.4z"/>
					</g>
				</g>
			</g>
			<g id="XMLID_40_">
				<g id="XMLID_41_">
					<g>
						<path class="st20" d="M162.9,298c0.9,0.2,2-0.4,2.4-1.4l-0.9-0.2c-0.1,0.6-0.6,0.8-1.2,0.7c-0.6-0.1-0.8-0.6-0.7-1.2l-0.9-0.2
							C161.2,296.9,161.8,297.8,162.9,298z"/>
					</g>
				</g>
			</g>
			<g id="XMLID_38_">
				<g id="XMLID_39_">
					<g>
						<path class="st20" d="M167.6,299.2c0.9,0.2,2-0.4,2.4-1.4l-0.9-0.2c-0.1,0.6-0.6,0.8-1.2,0.7c-0.6-0.1-0.8-0.6-0.7-1.2
							l-0.9-0.2C166,297.9,166.6,299,167.6,299.2z"/>
					</g>
				</g>
			</g>
			<g id="XMLID_36_">
				<g id="XMLID_37_">
					<g>
						<path class="st20" d="M158.1,296.9c0.9,0.2,2-0.4,2.4-1.4l-0.9-0.2c-0.1,0.6-0.6,0.8-1.2,0.7c-0.6-0.1-0.8-0.6-0.7-1.2
							l-0.9-0.2C156.5,295.7,157.1,296.6,158.1,296.9z"/>
					</g>
				</g>
			</g>
			<g id="XMLID_34_">
				<g id="XMLID_35_">
					<g>
						<path class="st20" d="M134.4,291.1c0.9,0.2,2-0.4,2.4-1.4l-0.9-0.2c-0.1,0.6-0.6,0.8-1.2,0.7c-0.6-0.1-0.8-0.6-0.7-1.2
							l-0.9-0.2C132.7,289.8,133.3,290.8,134.4,291.1z"/>
					</g>
				</g>
			</g>
			<g id="XMLID_32_">
				<g id="XMLID_33_">
					<g>
						<path class="st20" d="M139,292.2c0.9,0.2,2-0.4,2.4-1.4l-0.9-0.2c-0.1,0.6-0.6,0.8-1.2,0.7c-0.6-0.1-0.8-0.6-0.7-1.2l-0.9-0.2
							C137.3,290.9,137.9,291.9,139,292.2z"/>
					</g>
				</g>
			</g>
			<g id="XMLID_30_">
				<g id="XMLID_31_">
					<g>
						<path class="st20" d="M129.5,289.9c0.9,0.2,2-0.4,2.4-1.4l-0.9-0.2c-0.1,0.6-0.6,0.8-1.2,0.7c-0.6-0.1-0.8-0.6-0.7-1.2
							l-0.9-0.2C127.9,288.6,128.4,289.6,129.5,289.9z"/>
					</g>
				</g>
			</g>
		</g>
	</g>
	<g>
		<g>
			<ellipse class="st3" cx="143.1" cy="317.7" rx="22.9" ry="22.9"/>
		</g>
	</g>
	<g>
		<circle class="st2" cx="143.1" cy="317.7" r="19.7"/>
	</g>
	<g>
		<g class="st9">
			<g>
				<path class="st0" d="M139.4,315.7c0.7,0.7,1.3,1.5,1.5,2.6c0.2,1.1,0.2,2.1,0,3.3c-0.4,1.2-0.8,2.2-1.7,3
					c-0.8,0.8-1.8,1.3-2.8,1.7c-1.2,0.2-2.4,0.2-3.7-0.1c-1.1-0.2-2.1-0.7-3.1-1.3c-0.9-0.6-1.8-1.3-2.4-2.1
					c-0.4-0.5-0.5-0.9-0.4-1.4c0.1-0.4,0.2-0.7,0.6-0.9c0.2-0.2,0.6-0.2,0.8-0.2c0.1,0,0.4,0.1,0.5,0.2c0.1,0.1,0.4,0.2,0.5,0.5
					c0.6,0.7,1.2,1.2,1.8,1.7c0.6,0.5,1.3,0.7,2,0.9c1.2,0.2,2.1,0.2,2.8-0.2c0.7-0.5,1.3-1.2,1.5-2.2c0.2-1.1,0.1-1.9-0.4-2.7
					c-0.5-0.7-1.3-1.3-2.4-1.5c-0.7-0.1-1.3-0.2-1.9-0.1c-0.6,0.1-1.2,0.2-1.9,0.6c-0.4,0.1-0.7,0.2-1.1,0.1
					c-0.4-0.1-0.6-0.2-0.8-0.6c-0.2-0.2-0.2-0.6-0.1-0.9l2-8.2c0.1-0.5,0.4-0.8,0.7-1.1c0.4-0.2,0.8-0.2,1.3-0.1l8.7,2.1
					c1.1,0.2,1.4,0.8,1.3,1.7c-0.2,0.8-0.8,1.2-1.9,0.9l-7.1-1.8l-1.2,5c1.1-0.4,2.2-0.5,3.5-0.1
					C137.8,314.5,138.7,314.9,139.4,315.7z"/>
			</g>
			<g>
				<path class="st0" d="M144.1,326.3c-0.7-1.9-0.7-4.4,0-7.6c0.7-3.1,1.9-5.3,3.4-6.6c1.5-1.3,3.4-1.8,5.7-1.2s3.7,1.8,4.4,3.7
					c0.7,1.9,0.7,4.4,0,7.4c-0.7,3.1-1.9,5.3-3.4,6.6s-3.4,1.8-5.7,1.2C146.3,329.4,144.8,328.2,144.1,326.3z M152.1,326.3
					c0.8-0.9,1.5-2.6,2.1-5c0.6-2.4,0.7-4.3,0.5-5.4c-0.2-1.2-1.1-2-2.2-2.2c-1.2-0.2-2.2,0-3,0.9c-0.8,0.9-1.5,2.6-2.1,5
					c-0.6,2.4-0.7,4.1-0.5,5.4c0.2,1.2,1.1,2,2.2,2.2C150.3,327.6,151.3,327.2,152.1,326.3z"/>
			</g>
		</g>
	</g>
</g>
<g>
	<g>
		<g>
			<circle class="st17" cx="96.8" cy="346.7" r="15.8"/>
		</g>
		<circle class="st17" cx="96.8" cy="346.7" r="10.3"/>
		<g>
			<g class="st9">
				<path class="st16" d="M103.1,353c0,0.8-0.5,1.2-1.4,1.2h-7.8c-0.9,0-1.4-0.4-1.4-1.2c0-0.8,0.5-1.2,1.4-1.2h2.4v-10.5l-2.2,1.4
					c-0.2,0.1-0.4,0.2-0.6,0.2c-0.3,0-0.6-0.1-0.8-0.4c-0.2-0.3-0.3-0.6-0.3-0.9c0-0.4,0.2-0.8,0.6-1l3.6-2.2
					c0.5-0.3,0.9-0.4,1.3-0.4c0.4,0,0.8,0.1,1,0.4c0.3,0.3,0.4,0.6,0.4,1.1v12.5h2.4C102.6,351.8,103.1,352.2,103.1,353z"/>
			</g>
		</g>
	</g>
	<g>
		<g>
			<ellipse class="st18" cx="96.8" cy="346.7" rx="12.7" ry="12.7"/>
		</g>
	</g>
	<path id="XMLID_2_" class="st16" d="M90.8,349.1c0,0,0.1,0,0.1,0C90.9,349.1,90.9,349.1,90.8,349.1"/>
</g>
<g>
	<g>
		<g>
			<circle class="st17" cx="162.5" cy="358.8" r="15.8"/>
		</g>
		<circle class="st17" cx="162.5" cy="358.8" r="10.3"/>
		<g>
			<g class="st9">
				<path class="st16" d="M168.8,365.1c0,0.8-0.5,1.2-1.4,1.2h-7.8c-0.9,0-1.4-0.4-1.4-1.2c0-0.8,0.5-1.2,1.4-1.2h2.4v-10.5
					l-2.2,1.4c-0.2,0.1-0.4,0.2-0.6,0.2c-0.3,0-0.6-0.1-0.8-0.4c-0.2-0.3-0.3-0.6-0.3-0.9c0-0.4,0.2-0.8,0.6-1l3.6-2.2
					c0.5-0.3,0.9-0.4,1.3-0.4c0.4,0,0.8,0.1,1,0.4c0.3,0.3,0.4,0.6,0.4,1.1V364h2.4C168.3,364,168.8,364.4,168.8,365.1z"/>
			</g>
		</g>
	</g>
	<g>
		<g>
			<ellipse class="st18" cx="162.5" cy="358.8" rx="12.7" ry="12.7"/>
		</g>
	</g>
	<path id="XMLID_3_" class="st16" d="M156.6,361.2c0,0,0.1,0,0.1,0C156.6,361.2,156.6,361.2,156.6,361.2"/>
</g>
<g>
	<g>
		<g>
			<g>
				<path class="st17" d="M127.9,374.9c-8.7,0-15.8-7.1-15.8-15.8c0-8.7,7.1-15.8,15.8-15.8c8.7,0,15.8,7.1,15.8,15.8
					C143.7,367.8,136.7,374.9,127.9,374.9z"/>
			</g>
			<circle class="st15" cx="127.9" cy="359.1" r="10.3"/>
			<g>
				<g>
					<g class="st9">
						<path class="st16" d="M133.9,364.9c0,0.7-0.4,1.1-1.3,1.1h-8c-0.4,0-0.7-0.1-0.9-0.3c-0.2-0.2-0.3-0.5-0.3-0.8
							c0-0.4,0.2-0.8,0.5-1.1l4.8-5.2c0.6-0.6,1-1.2,1.3-1.8c0.3-0.5,0.4-1.1,0.4-1.6c0-0.7-0.2-1.2-0.6-1.5
							c-0.4-0.4-0.9-0.5-1.6-0.5c-0.6,0-1.1,0.1-1.7,0.3c-0.5,0.2-1.1,0.5-1.6,0.9c-0.1,0.1-0.3,0.2-0.4,0.2
							c-0.1,0.1-0.3,0.1-0.4,0.1c-0.2,0-0.4-0.1-0.6-0.3s-0.3-0.5-0.3-0.8c0-0.2,0-0.4,0.1-0.5c0.1-0.2,0.2-0.3,0.4-0.4
							c0.6-0.5,1.3-0.9,2.2-1.2c0.8-0.3,1.7-0.4,2.5-0.4c1.5,0,2.6,0.4,3.5,1.1c0.9,0.7,1.3,1.7,1.3,3c0,0.9-0.2,1.7-0.6,2.4
							s-1,1.6-1.9,2.5l-3.7,3.9h5.6C133.5,363.8,133.9,364.2,133.9,364.9z"/>
					</g>
				</g>
			</g>
		</g>
		<g>
			<g>
				<ellipse class="st18" cx="127.9" cy="359.1" rx="12.7" ry="12.7"/>
			</g>
		</g>
	</g>
	<path id="XMLID_4_" class="st16" d="M122,361.5c0,0,0.1,0,0.1,0C122.1,361.6,122,361.5,122,361.5 M124.5,361.3c0,0-0.1,0.1-0.1,0.1
		c0,0-0.1,0.1-0.2,0.1c0.1,0,0.2-0.1,0.2-0.2C124.4,361.4,124.4,361.3,124.5,361.3"/>
</g>
<path class="st21" d="M85.7,331.5c0,0,0-131.5,0-131.5"/>
</svg>
