<?xml version="1.0" encoding="utf-8"?>
<!-- Generator: Adobe Illustrator 22.1.0, SVG Export Plug-In . SVG Version: 6.00 Build 0)  -->
<svg version="1.1" id="Layer_1" xmlns="http://www.w3.org/2000/svg" xmlns:xlink="http://www.w3.org/1999/xlink" x="0px" y="0px"
	 viewBox="0 0 400 400" style="enable-background:new 0 0 400 400;" xml:space="preserve">
<style type="text/css">
	.st0{fill:#FFFFFF;}
	.st1{fill:none;stroke:#000000;stroke-width:5.5855;stroke-linecap:round;stroke-linejoin:round;stroke-miterlimit:10;}
	.st2{fill:#244A74;}
	.st3{font-family:'Nunito-Bold';}
	.st4{font-size:41.2088px;}
	.st5{font-size:21.412px;}
	.st6{fill:#E64A45;}
	.st7{fill:#AF152F;}
	.st8{fill:#FCBB31;}
	.st9{fill:#BBBEC3;}
	.st10{fill:#D3D6DB;}
	.st11{fill:#8D939E;}
	.st12{fill:#9CBAE5;}
	.st13{fill:#7B808A;}
	.st14{fill:#8DC449;}
	.st15{fill:#9CD34F;}
	.st16{fill:#3EB24F;}
	.st17{fill:#033333;}
	.st18{font-size:29px;}
	.st19{fill:#60025E;}
	.st20{enable-background:new    ;}
</style>
<g>
	<path class="st0" d="M151.4,391.7c-0.4,0-0.8-0.1-1.2-0.2c-7.1-0.6-12.7-6.6-12.7-13.8v-53.5c0-7.7,6.2-13.9,13.9-13.9h97.2
		c7.7,0,13.9,6.2,13.9,13.9v53.6c0,7.7-6.2,13.9-13.9,13.9H151.4z"/>
	<path class="st0" d="M248.6,315.3c4.9,0,8.9,4,8.9,8.9v53.6c0,4.9-4,8.9-8.9,8.9h-97.2v-0.1c-4.9,0-8.9-4-8.9-8.9v-53.5
		c0-4.9,4-8.9,8.9-8.9H248.6 M248.6,305.3h-97.2c-10.4,0-18.9,8.5-18.9,18.9v53.5c0,9.7,7.4,17.8,16.8,18.8c0.7,0.1,1.3,0.2,2.1,0.2
		h97.2c10.4,0,18.9-8.5,18.9-18.9v-53.6C267.5,313.8,259,305.3,248.6,305.3L248.6,305.3z"/>
</g>
<g>
	<path class="st0" d="M223,247.4c-2.2,0-4.3-0.6-6.1-1.7c-1.8,1.1-3.9,1.7-6.1,1.7h-14c-2.1,0-4.1-0.5-5.8-1.5
		c-1.8,1-3.8,1.5-5.9,1.5h-12.9c-6.8,0-12.3-5.5-12.3-12.3v-0.5c-3-1.1-5.5-3.3-6.8-6.2H96.8c-3.4,0-6.6-1.8-8.3-4.7
		c-2-1.7-3.3-4-3.7-6.6c-0.4-3.1,0.6-6.2,2.7-8.6c2-2.1,4.4-4.6,7-7.4c20.3-21.2,58-60.5,64.4-87v-13.8c0-2.7,0.1-5.5,0.3-8.4
		c-1-1.4-1.6-3.2-1.6-5c0-2.3,1-4.6,2.6-6.2c-3.1-2.7-6.4-5-9.8-6.8l-19.3,19.5c-2.3,2.4-5.6,3.7-8.9,3.7c-0.3,0-0.6,0-0.8,0
		l-80-5.4c-6.9-0.5-12.2-6.5-11.7-13.4l3.2-47.1c0.4-6.6,5.9-11.7,12.5-11.7c0.3,0,0.6,0,0.8,0l80,5.4c3.6,0.2,7,2.1,9.2,5
		l18.8,24.9c1.1,1.4,1.8,3,2.2,4.7c0.1,0,0.1,0.1,0.2,0.1c0.3,0.1,0.5,0.3,0.7,0.4c2.3,1.2,4.5,2.6,6.7,4.1
		c6.1-21.1,17.4-40.2,33-55.8l0.1-0.1c1.8-1.7,4.1-2.6,6.6-2.6c2.4,0,4.8,0.9,6.6,2.6l0.1,0.1c19.2,19.1,32,44.1,36.4,70.8
		c3,1.4,5,4.4,5,7.9c0,2.8-1.3,5.4-3.4,7c0.1,2.2,0.2,4.3,0.1,6.4v13.8c6.4,26.5,44.1,65.8,64.4,87c2.6,2.7,5,5.2,7,7.4
		c2.4,2.5,3.3,5.9,2.6,9.3c-0.6,2.8-2.3,5.2-4.6,6.7c-1.8,2.4-4.7,3.9-7.8,3.9h-53.6c-1.5,3.2-4.4,5.6-7.9,6.5v0.7
		c0,6.5-5.3,11.7-11.7,11.7L223,247.4L223,247.4z"/>
	<path class="st0" d="M203.8,10.6c1.1,0,2.2,0.4,3.1,1.2c19.5,19.4,31.8,44.5,35.5,71.3h0.6c2.1,0,3.8,1.7,3.8,3.8
		c0,2-1.6,3.7-3.6,3.8c0.2,3.2,0.4,6.4,0.3,9.6v14.4c7.1,31.3,54.4,77.7,72.8,97.2c2.7,2.9,1.4,7.4-1.9,8.8
		c-0.8,1.6-2.4,2.7-4.3,2.7h-57.5c-0.1,3.8-3.3,6.9-7.2,6.9h-1.9v5.3c0,3.7-3,6.7-6.7,6.7h-14c-2.7,0-5.1-1.6-6.1-4
		c-1.1,2.3-3.4,4-6.1,4h-14c-2.4,0-4.5-1.3-5.7-3.2c-1.3,1.9-3.5,3.2-6,3.2H172c-4,0-7.3-3.3-7.3-7.3v-4.7h-0.8
		c-3.9,0-7-3.1-7.2-6.9h-60c-2,0-3.7-1.3-4.4-3c-2.8-1.7-3.8-5.7-1.2-8.4c18.4-19.5,65.7-65.9,72.8-97.2v-14.4
		c0-3.4,0.1-6.8,0.4-10.2c-1-0.7-1.7-1.8-1.7-3.2c0-1.6,1-3,2.4-3.5c0.2-1.5,0.4-2.9,0.7-4.4c-5.6-5.4-11.3-8.9-16.3-11.2l-21.8,22
		c-1.4,1.4-3.4,2.2-5.4,2.2c-0.2,0-0.3,0-0.5,0l-80-5.4c-4.2-0.3-7.3-3.9-7-8l3.2-47.1c0.3-4,3.6-7.1,7.5-7.1c0.2,0,0.3,0,0.5,0
		l80,5.4c2.2,0.1,4.2,1.2,5.5,3l18.8,24.9c1.1,1.5,1.6,3.3,1.5,5c0.9,0.4,1.8,0.8,2.7,1.2c0.1,0.1,0.2,0.1,0.3,0.2
		c3.9,2,8.1,4.8,12.2,8.4c5.2-22.9,16.7-44,33.6-60.8C201.5,11,202.6,10.6,203.8,10.6 M130.4,58.4c0.4,0,1,0,1.6,0
		c2,0,4.9,0.2,8.4,0.8c-0.8-1.9-2.6-3.4-4.8-3.5c-0.1,0-0.3,0-0.4,0C133.2,55.7,131.4,56.8,130.4,58.4 M135.2,66.9
		c1.7,0,3.3-0.8,4.4-2.1c-3.1-0.6-5.2-0.7-5.6-0.7h-0.1l0,0c-0.3,0-0.5-0.1-0.8-0.1c-0.4,0-0.7,0-1,0c-0.7,0-1.3,0-1.7,0.1
		c0.9,1.6,2.5,2.7,4.5,2.8C135,66.9,135.1,66.9,135.2,66.9 M203.8,0.6c-3.7,0-7.3,1.4-10,4c-0.1,0.1-0.1,0.1-0.2,0.2
		c-14.7,14.6-25.7,32.2-32.3,51.7c-0.2-0.1-0.4-0.2-0.6-0.3c-0.6-1.5-1.4-3-2.4-4.3L139.5,27c-3.1-4.1-7.8-6.6-12.8-6.9l-80-5.4
		c-0.4,0-0.8,0-1.2,0c-9.2,0-16.9,7.2-17.5,16.4L24.7,78c-0.6,9.7,6.7,18,16.3,18.7l80,5.4c0.4,0,0.8,0,1.2,0
		c4.7,0,9.2-1.9,12.5-5.2l16.5-16.7c0.8,0.5,1.6,1.1,2.4,1.6c-0.6,1.6-1,3.3-1,5.1c0,2.2,0.5,4.3,1.5,6.2c-0.1,2.4-0.2,4.8-0.2,7.2
		v13.2c-2.7,10.5-11.1,24.6-25.1,42c-12.7,15.9-27.3,31.1-37.9,42.2c-2.6,2.7-5,5.2-7,7.4c-3.2,3.4-4.7,8.1-4.1,12.7
		c0.5,3.5,2.2,6.8,4.8,9.2c2.7,3.9,7.3,6.4,12.1,6.4h53.4c1.3,1.8,3,3.3,4.8,4.4c1.3,8.2,8.5,14.5,17.1,14.5h13c2,0,4-0.4,5.9-1
		c1.8,0.7,3.8,1,5.8,1h14c2.1,0,4.2-0.4,6.1-1.2c1.9,0.8,4,1.2,6.1,1.2h14c8.3,0,15.1-6,16.5-13.9c2.3-1.2,4.4-2.9,5.9-5h50.8
		c4.4,0,8.5-2,11.2-5.2c3-2.2,5.2-5.5,6-9.3c1.1-4.9-0.4-10.1-3.9-13.8c-2-2.2-4.5-4.7-7-7.4c-10.6-11.1-25.2-26.3-37.9-42.2
		c-14-17.4-22.4-31.5-25.1-42v-13.2c0-1.4,0-2.9-0.1-4.4c2.1-2.4,3.3-5.6,3.3-9c0-4.5-2.1-8.5-5.4-11c-4.9-26.9-18.1-52-37.4-71.2
		c-0.1-0.1-0.1-0.1-0.2-0.2C211,2,207.5,0.6,203.8,0.6L203.8,0.6z"/>
</g>
<path class="st1" d="M129.2,61.3c0,0,27.5-3.7,49.3,28.9"/>
<g>
	<path class="st2" d="M150.3,57.8l-18.8-24.9c-1.3-1.8-3.3-2.8-5.5-3l-80-5.4c-4.2-0.3-7.8,2.9-8,7l-3.2,47.1c-0.3,4.2,2.9,7.8,7,8
		l80,5.4c2.2,0.1,4.3-0.7,5.9-2.2l22-22.2C152.3,65,152.6,60.8,150.3,57.8z M134.9,66.9c-3.1-0.2-5.4-2.9-5.2-5.9s2.9-5.4,5.9-5.2
		s5.4,2.9,5.2,5.9C140.6,64.8,137.9,67.1,134.9,66.9z"/>
</g>
<g>
	<g>
		<text transform="matrix(0.9978 6.700532e-02 -6.700532e-02 0.9978 69.5409 71.3675)" class="st0 st3 st4">34</text>
	</g>
	<text transform="matrix(0.9978 6.700532e-02 -6.700532e-02 0.9978 53.3695 64.5518)" class="st0 st3 st5">$</text>
</g>
<path class="st1" d="M133.9,61.3c0,0,8.5-0.2,19.3,5.2"/>
<path class="st6" d="M243,111.6c-0.4-2.7-2.7-4.8-5.4-4.8l0,0h-5.1H175h-5l0,0c-2.8,0-5,2.1-5.4,4.8c-4.3,31.2-54.3,80.2-73.3,100.4
	c-3.3,3.5-0.8,9.2,4,9.2h217.1c4.8,0,7.3-5.7,4-9.2C297.3,191.8,247.3,142.8,243,111.6z"/>
<path class="st7" d="M310.2,214H96.8c-2.6,0-4.7,2.1-4.7,4.7l0,0c0,2.6,2.1,4.7,4.7,4.7h213.4c2.6,0,4.7-2.1,4.7-4.7l0,0
	C314.9,216.1,312.8,214,310.2,214z"/>
<g>
	<circle class="st8" cx="262.9" cy="187.7" r="10.1"/>
	<polygon class="st0" points="263,181.4 264.8,185.2 269,185.8 266,188.7 266.7,192.9 263,190.9 259.3,192.9 260,188.7 257,185.8 
		261.1,185.2 	"/>
</g>
<g>
	<path class="st9" d="M185,242.4h-12.9c-4,0-7.3-3.3-7.3-7.3v-20.8c0-4,3.3-7.3,7.3-7.3H185c4,0,7.3,3.3,7.3,7.3v20.8
		C192.3,239.1,189,242.4,185,242.4z"/>
</g>
<g>
	<path class="st9" d="M236.9,242.4h-14c-3.7,0-6.7-3-6.7-6.7v-21.9c0-3.7,3-6.7,6.7-6.7h14c3.7,0,6.7,3,6.7,6.7v21.9
		C243.6,239.4,240.6,242.4,236.9,242.4z"/>
</g>
<g>
	<path class="st10" d="M210.7,242.4h-14c-3.7,0-6.7-3-6.7-6.7v-21.9c0-3.7,3-6.7,6.7-6.7h14c3.7,0,6.7,3,6.7,6.7v21.9
		C217.4,239.4,214.4,242.4,210.7,242.4z"/>
</g>
<path class="st10" d="M206.9,11.8c-1.8-1.7-4.5-1.7-6.3,0c-23.5,23.4-36.8,55.3-36.7,88.5v118c0,2.4,2,4.4,4.4,4.4H239
	c2.4,0,4.4-2,4.4-4.4v-118C243.6,67.1,230.4,35.3,206.9,11.8z"/>
<g>
	<path class="st11" d="M203.8,100.3L203.8,100.3c2.4,0,4.4,2,4.4,4.4v95.6c0,2.4-2,4.4-4.4,4.4l0,0c-2.4,0-4.4-2-4.4-4.4v-95.6
		C199.3,102.2,201.3,100.3,203.8,100.3z"/>
	<path class="st11" d="M203.8,78.1c-8.5,0-15.5-6.9-15.5-15.5s6.9-15.5,15.5-15.5c8.5,0,15.5,6.9,15.5,15.5S212.3,78.1,203.8,78.1z"
		/>
	<path class="st12" d="M203.8,74.2c-6.4,0-11.6-5.2-11.6-11.6S197.4,51,203.8,51s11.6,5.2,11.6,11.6S210.2,74.2,203.8,74.2z"/>
</g>
<path class="st11" d="M193.8,216h-29.7c-3.9,0-7.2,3.2-7.2,7.2l0,0c0,3.9,3.2,7.2,7.2,7.2h29.7c3.9,0,7.2-3.2,7.2-7.2l0,0
	C201,219.2,197.7,216,193.8,216z"/>
<path class="st11" d="M245.5,216h-29.7c-3.9,0-7.2,3.2-7.2,7.2l0,0c0,3.9,3.2,7.2,7.2,7.2h29.7c3.9,0,7.2-3.2,7.2-7.2l0,0
	C252.7,219.2,249.5,216,245.5,216z"/>
<path class="st13" d="M219.2,216h-29.7c-3.9,0-7.2,3.2-7.2,7.2l0,0c0,3.9,3.2,7.2,7.2,7.2h29.7c3.9,0,7.2-3.2,7.2-7.2l0,0
	C226.3,219.2,223.1,216,219.2,216z"/>
<path class="st9" d="M172,134.6h-8v31.2h8.1c2.7,0,4.9-2.2,4.9-4.9v-21.5C176.9,136.8,174.7,134.6,172,134.6z"/>
<path class="st9" d="M243,83.2h-76.6c-2.1,0-3.8,1.7-3.8,3.8l0,0c0,2.1,1.7,3.8,3.8,3.8H243c2.1,0,3.8-1.7,3.8-3.8l0,0
	C246.8,84.9,245.1,83.2,243,83.2z"/>
<g>
	<g>
		<g>
			<g>
				<g>
					<path class="st14" d="M151.4,386.6c-4.9,0-8.9-4-8.9-8.9v-53.5c0-4.9,4-8.9,8.9-8.9h97.2c4.9,0,8.9,4,8.9,8.9v53.6
						c0,4.9-4,8.9-8.9,8.9h-97.2L151.4,386.6L151.4,386.6z"/>
				</g>
				<g>
					<path class="st15" d="M238.9,377.8h-77.8c0-5.3-4.4-9.7-9.7-9.7v-34c5.3,0,9.7-4.4,9.7-9.7h77.8c0,5.3,4.4,9.7,9.7,9.7v34
						C243.3,368,238.9,372.4,238.9,377.8z"/>
				</g>
			</g>
			<g>
				<g>
					<circle class="st16" cx="153.5" cy="326.4" r="3.9"/>
				</g>
				<g>
					<circle class="st16" cx="247" cy="326.4" r="3.9"/>
				</g>
			</g>
			<g>
				<g>
					<circle class="st16" cx="153.7" cy="376.3" r="3.9"/>
				</g>
				<g>
					<circle class="st16" cx="247.2" cy="376.3" r="3.9"/>
				</g>
			</g>
			<g>
				<circle class="st16" cx="166.7" cy="333.4" r="2.2"/>
			</g>
			<g>
				<circle class="st16" cx="173.8" cy="336.2" r="2.2"/>
			</g>
			<g>
				<circle class="st16" cx="225.2" cy="333.1" r="2.2"/>
			</g>
			<g>
				<circle class="st16" cx="157.3" cy="341.1" r="2.2"/>
			</g>
			<g>
				<circle class="st16" cx="165.6" cy="371.1" r="2.2"/>
			</g>
			<g>
				<circle class="st16" cx="173.9" cy="365.9" r="2.2"/>
			</g>
			<g>
				<circle class="st16" cx="157.5" cy="364.3" r="2.2"/>
			</g>
			<g>
				<circle class="st16" cx="156.2" cy="353.8" r="2.2"/>
			</g>
			<g>
				<circle class="st16" cx="236.4" cy="335.7" r="2.2"/>
			</g>
			<g>
				<circle class="st16" cx="231.7" cy="348.6" r="2.2"/>
			</g>
			<g>
				<circle class="st16" cx="242.5" cy="344.2" r="2.2"/>
			</g>
			<g>
				<circle class="st16" cx="241.2" cy="357.7" r="2.2"/>
			</g>
			<g>
				<circle class="st16" cx="233" cy="359" r="2.2"/>
			</g>
			<g>
				<circle class="st16" cx="224.2" cy="367" r="2.2"/>
			</g>
			<g>
				<circle class="st16" cx="234.8" cy="369.6" r="2.2"/>
			</g>
			<path id="XMLID_108_" class="st0" d="M166.2,361c-0.4,0-0.7-0.3-0.7-0.7v-0.9c-1.4-0.2-2.2-0.4-3.3-1.3v0.9
				c0,0.4-0.3,0.7-0.7,0.7s-0.7-0.3-0.7-0.7v-4.1c0-0.4,0.3-0.7,0.7-0.7s0.7,0.3,0.7,0.7v1.5c0.7,0.8,1.2,1,2.4,1.5
				c0.3,0.1,0.6,0.2,0.9,0.3v-6.4c-1.3-0.4-2.2-0.7-2.8-1c-0.7-0.3-1.2-0.8-1.6-1.3c-0.4-0.5-0.6-1.1-0.6-1.8c0-1.3,0.4-2.3,1.3-3.1
				c0.8-0.7,2.1-1.1,3.8-1.2v-0.8c0-0.4,0.3-0.7,0.7-0.7s0.7,0.3,0.7,0.7v0.9c1.2,0.2,2.2,0.6,3.1,1.2c0.2,0.2,0.1,0.3,0.3,0.4v-0.9
				c0-0.4,0.3-0.7,0.7-0.7s0.7,0.3,0.7,0.7v4.1c0,0.4-0.3,0.7-0.7,0.7s-0.7-0.3-0.7-0.7v-1.4c-0.7-0.8-1.4-1.5-2.5-1.9
				c-0.3-0.1-0.6-0.2-0.9-0.3v5.9c0.2,0.1,0.5,0.1,1,0.3c0.8,0.2,1.6,0.5,2.2,0.8c0.7,0.3,1.2,0.8,1.6,1.3s0.6,1.2,0.6,1.9
				c0,1.4-0.5,2.5-1.5,3.3c-0.9,0.8-2.3,1.2-4,1.2v0.8C166.8,360.8,166.6,361,166.2,361 M163.6,358.2c0.1,0.1,0.2,0.1,0.3,0.1
				C163.8,358.3,163.7,358.2,163.6,358.2 M166.8,352.2v6c1.3,0,2.4-0.3,3.1-0.9c0.7-0.6,1.1-1.3,1.1-2.2c0-0.5-0.1-0.9-0.4-1.2
				c-0.3-0.4-0.7-0.7-1.2-0.9c-0.5-0.2-1-0.4-1.5-0.5L166.8,352.2z M170.6,357.6c-0.1,0.1-0.2,0.2-0.3,0.3c-0.2,0.1-0.3,0.2-0.5,0.3
				c0.2-0.1,0.4-0.2,0.6-0.4C170.5,357.7,170.5,357.7,170.6,357.6 M165.5,344.7c-1.3,0-2.2,0.3-2.8,0.8s-0.9,1.2-0.9,2
				c0,0.5,0.1,0.9,0.4,1.2c0.3,0.4,0.7,0.7,1.2,0.9c0.5,0.2,1,0.4,1.4,0.5c0.3,0.1,0.5,0.2,0.7,0.2L165.5,344.7L165.5,344.7z"/>
			<g id="XMLID_88_">
				<g id="XMLID_106_">
					<path id="XMLID_107_" class="st17" d="M199.6,376.8c-1.1,0-2,0.9-2,2h1c0-0.6,0.4-1,1-1s1,0.4,1,1h1
						C201.6,377.7,200.7,376.8,199.6,376.8z"/>
				</g>
				<g id="XMLID_103_">
					<path id="XMLID_104_" class="st17" d="M194.3,376.8c-1.1,0-2,0.9-2,2h1c0-0.6,0.4-1,1-1s1,0.4,1,1h1
						C196.3,377.7,195.4,376.8,194.3,376.8z"/>
				</g>
				<g id="XMLID_101_">
					<path id="XMLID_102_" class="st17" d="M204.8,376.8c-1.1,0-2,0.9-2,2h1c0-0.6,0.4-1,1-1s1,0.4,1,1h1
						C206.8,377.7,205.9,376.8,204.8,376.8z"/>
				</g>
				<g id="XMLID_99_">
					<path id="XMLID_100_" class="st17" d="M183.8,376.8c-1.1,0-2,0.9-2,2h1c0-0.6,0.4-1,1-1s1,0.4,1,1h1
						C185.8,377.7,184.9,376.8,183.8,376.8z"/>
				</g>
				<g id="XMLID_97_">
					<path id="XMLID_98_" class="st17" d="M178.6,376.8c-1.1,0-2,0.9-2,2h1c0-0.6,0.4-1,1-1s1,0.4,1,1h1
						C180.6,377.7,179.7,376.8,178.6,376.8z"/>
				</g>
				<g id="XMLID_95_">
					<path id="XMLID_96_" class="st17" d="M189.1,376.8c-1.1,0-2,0.9-2,2h1c0-0.6,0.4-1,1-1s1,0.4,1,1h1
						C191.1,377.7,190.2,376.8,189.1,376.8z"/>
				</g>
				<g id="XMLID_93_">
					<path id="XMLID_94_" class="st17" d="M215.3,376.8c-1.1,0-2,0.9-2,2h1c0-0.6,0.4-1,1-1s1,0.4,1,1h1
						C217.3,377.7,216.4,376.8,215.3,376.8z"/>
				</g>
				<g id="XMLID_91_">
					<path id="XMLID_92_" class="st17" d="M210.1,376.8c-1.1,0-2,0.9-2,2h1c0-0.6,0.4-1,1-1s1,0.4,1,1h1
						C212.1,377.7,211.2,376.8,210.1,376.8z"/>
				</g>
				<g id="XMLID_89_">
					<path id="XMLID_90_" class="st17" d="M220.6,376.8c-1.1,0-2,0.9-2,2h1c0-0.6,0.4-1,1-1s1,0.4,1,1h1
						C222.6,377.7,221.7,376.8,220.6,376.8z"/>
				</g>
			</g>
			<g id="XMLID_7_">
				<g id="XMLID_86_">
					<path id="XMLID_87_" class="st17" d="M199.6,325.1c1.1,0,2-0.9,2-2h-1c0,0.6-0.4,1-1,1s-1-0.4-1-1h-1
						C197.6,324.2,198.5,325.1,199.6,325.1z"/>
				</g>
				<g id="XMLID_84_">
					<path id="XMLID_85_" class="st17" d="M204.8,325.1c1.1,0,2-0.9,2-2h-1c0,0.6-0.4,1-1,1s-1-0.4-1-1h-1
						C202.8,324.2,203.7,325.1,204.8,325.1z"/>
				</g>
				<g id="XMLID_82_">
					<path id="XMLID_83_" class="st17" d="M194.3,325.1c1.1,0,2-0.9,2-2h-1c0,0.6-0.4,1-1,1s-1-0.4-1-1h-1
						C192.3,324.2,193.2,325.1,194.3,325.1z"/>
				</g>
				<g id="XMLID_80_">
					<path id="XMLID_81_" class="st17" d="M215.3,325.1c1.1,0,2-0.9,2-2h-1c0,0.6-0.4,1-1,1s-1-0.4-1-1h-1
						C213.3,324.2,214.2,325.1,215.3,325.1z"/>
				</g>
				<g id="XMLID_78_">
					<path id="XMLID_79_" class="st17" d="M220.6,325.1c1.1,0,2-0.9,2-2h-1c0,0.6-0.4,1-1,1s-1-0.4-1-1h-1
						C218.6,324.2,219.5,325.1,220.6,325.1z"/>
				</g>
				<g id="XMLID_76_">
					<path id="XMLID_77_" class="st17" d="M210.1,325.1c1.1,0,2-0.9,2-2h-1c0,0.6-0.4,1-1,1s-1-0.4-1-1h-1
						C208.1,324.2,209,325.1,210.1,325.1z"/>
				</g>
				<g id="XMLID_74_">
					<path id="XMLID_75_" class="st17" d="M183.8,325.1c1.1,0,2-0.9,2-2h-1c0,0.6-0.4,1-1,1s-1-0.4-1-1h-1
						C181.8,324.2,182.7,325.1,183.8,325.1z"/>
				</g>
				<g id="XMLID_72_">
					<path id="XMLID_73_" class="st17" d="M189.1,325.1c1.1,0,2-0.9,2-2h-1c0,0.6-0.4,1-1,1s-1-0.4-1-1h-1
						C187.1,324.2,188,325.1,189.1,325.1z"/>
				</g>
				<g id="XMLID_70_">
					<path id="XMLID_71_" class="st17" d="M178.6,325.1c1.1,0,2-0.9,2-2h-1c0,0.6-0.4,1-1,1s-1-0.4-1-1h-1
						C176.6,324.2,177.5,325.1,178.6,325.1z"/>
				</g>
			</g>
		</g>
	</g>
	<g>
		<text transform="matrix(1 0 0 1 174.0304 361.2755)" class="st0 st3 st18">100</text>
	</g>
</g>
<path class="st19" d="M283,264.2H117c-8.8,0-16,7.2-16,16v3.6c0,8.8,7.2,16,16,16h166c8.8,0,16-7.2,16-16v-3.6
	C299,271.4,291.8,264.2,283,264.2z"/>
<g class="st20">
	<path class="st0" d="M151,271.1c0.2,0,0.5,0.1,0.6,0.3c0.2,0.2,0.3,0.4,0.3,0.7c0,0.3-0.1,0.5-0.2,0.7l-6.3,8v7.9
		c0,0.3-0.1,0.6-0.3,0.8s-0.5,0.3-0.8,0.3s-0.6-0.1-0.8-0.3c-0.2-0.2-0.3-0.5-0.3-0.8v-7.9l-6.3-8c-0.2-0.2-0.3-0.4-0.3-0.7
		c0-0.3,0.1-0.5,0.3-0.7c0.2-0.2,0.4-0.3,0.7-0.3c0.3,0,0.5,0.1,0.8,0.4l5.9,7.6l5.9-7.6C150.5,271.2,150.7,271.1,151,271.1z"/>
	<path class="st0" d="M170.1,277.4c0.8,0.6,1.5,1.3,2,2.3c0.5,1,0.7,2.2,0.7,3.5s-0.2,2.5-0.7,3.4c-0.5,1-1.1,1.7-2,2.3
		c-0.8,0.5-1.8,0.8-3,0.8c-1,0-1.9-0.2-2.6-0.6s-1.3-1-1.7-1.8v6.1c0,0.3-0.1,0.6-0.3,0.7c-0.2,0.2-0.4,0.3-0.8,0.3
		c-0.3,0-0.6-0.1-0.8-0.3c-0.2-0.2-0.3-0.4-0.3-0.7v-15.7c0-0.3,0.1-0.6,0.3-0.8s0.5-0.3,0.8-0.3c0.3,0,0.6,0.1,0.8,0.3
		c0.2,0.2,0.3,0.4,0.3,0.8v1.4c0.4-0.8,0.9-1.4,1.7-1.8c0.7-0.4,1.6-0.6,2.6-0.6C168.3,276.5,169.3,276.8,170.1,277.4z M169.7,286.7
		c0.7-0.8,1-2,1-3.5s-0.3-2.7-1-3.6c-0.7-0.9-1.6-1.3-2.9-1.3s-2.2,0.4-2.8,1.2c-0.7,0.8-1,2-1,3.6c0,1.5,0.3,2.7,1,3.6
		c0.7,0.8,1.6,1.3,2.8,1.3S169,287.5,169.7,286.7z"/>
	<path class="st0" d="M185.9,281.5v7.1c0,0.3-0.1,0.6-0.3,0.8s-0.4,0.3-0.7,0.3s-0.6-0.1-0.8-0.3s-0.3-0.4-0.3-0.8v-1.2
		c-0.3,0.7-0.8,1.3-1.5,1.7c-0.7,0.4-1.5,0.6-2.3,0.6c-0.8,0-1.6-0.2-2.2-0.5c-0.7-0.3-1.2-0.8-1.6-1.4c-0.4-0.6-0.6-1.2-0.6-1.9
		c0-1,0.2-1.7,0.7-2.2c0.5-0.5,1.3-0.9,2.4-1.1c1.1-0.2,2.7-0.4,4.6-0.4h0.6v-0.9c0-1-0.2-1.8-0.6-2.3s-1.1-0.7-2.1-0.7
		c-1.2,0-2.4,0.3-3.6,1c-0.5,0.3-0.8,0.4-1,0.4c-0.2,0-0.4-0.1-0.5-0.2c-0.1-0.2-0.2-0.4-0.2-0.6c0-0.2,0.1-0.5,0.2-0.6
		c0.1-0.2,0.4-0.4,0.7-0.6c0.6-0.3,1.3-0.6,2.1-0.8c0.8-0.2,1.5-0.3,2.3-0.3C184.3,276.5,185.9,278.2,185.9,281.5z M182.8,287
		c0.7-0.7,1-1.6,1-2.7v-0.8h-0.5c-1.5,0-2.7,0.1-3.5,0.2c-0.8,0.1-1.4,0.3-1.7,0.6c-0.3,0.3-0.5,0.8-0.5,1.3c0,0.7,0.2,1.2,0.7,1.7
		c0.5,0.4,1.1,0.7,1.9,0.7C181.3,288,182.2,287.7,182.8,287z"/>
	<path class="st0" d="M200.8,276.9c0.2,0.2,0.3,0.4,0.3,0.8v11c0,1.9-0.5,3.3-1.5,4.3c-1,1-2.4,1.4-4.3,1.4c-1.9,0-3.4-0.4-4.6-1.1
		c-0.6-0.3-0.9-0.7-0.9-1.2c0-0.2,0.1-0.4,0.2-0.6c0.1-0.2,0.3-0.2,0.5-0.2c0.2,0,0.5,0.1,0.9,0.4c0.6,0.3,1.2,0.6,1.8,0.8
		c0.6,0.2,1.3,0.3,2.1,0.3c1.2,0,2.2-0.3,2.8-1c0.6-0.6,0.9-1.6,0.9-2.8v-2.2c-0.4,0.8-0.9,1.4-1.7,1.9c-0.8,0.4-1.6,0.7-2.7,0.7
		c-1.1,0-2.1-0.3-3-0.8c-0.9-0.5-1.5-1.3-2-2.2c-0.5-1-0.7-2.1-0.7-3.3s0.2-2.3,0.7-3.3c0.5-1,1.1-1.7,2-2.2c0.9-0.5,1.8-0.8,3-0.8
		c1,0,1.9,0.2,2.6,0.6c0.7,0.4,1.3,1,1.7,1.8v-1.4c0-0.3,0.1-0.6,0.3-0.8c0.2-0.2,0.4-0.3,0.8-0.3
		C200.3,276.6,200.6,276.7,200.8,276.9z M197.9,286.2c0.7-0.8,1-1.9,1-3.3c0-1.4-0.3-2.5-1-3.3s-1.6-1.2-2.9-1.2s-2.2,0.4-2.9,1.2
		c-0.7,0.8-1.1,1.9-1.1,3.3c0,1.4,0.4,2.5,1.1,3.3c0.7,0.8,1.7,1.2,2.9,1.2C196.3,287.4,197.2,287,197.9,286.2z"/>
	<path class="st0" d="M207.1,288.9c-0.9-0.5-1.6-1.3-2.1-2.3s-0.7-2.2-0.7-3.5c0-1.3,0.2-2.5,0.7-3.5c0.5-1,1.2-1.8,2.1-2.3
		s2-0.8,3.2-0.8s2.3,0.3,3.2,0.8s1.6,1.3,2.1,2.3c0.5,1,0.7,2.2,0.7,3.5c0,1.3-0.2,2.5-0.7,3.5s-1.2,1.8-2.1,2.3s-2,0.8-3.2,0.8
		S208,289.4,207.1,288.9z M213.1,286.7c0.7-0.8,1-2,1-3.6c0-1.5-0.3-2.7-1-3.6s-1.6-1.3-2.9-1.3s-2.2,0.4-2.9,1.3
		c-0.7,0.8-1,2-1,3.6c0,1.6,0.3,2.8,1,3.6s1.6,1.2,2.9,1.2S212.4,287.5,213.1,286.7z"/>
	<path class="st0" d="M228.2,288.9c-0.9-0.5-1.6-1.3-2.1-2.3s-0.7-2.1-0.7-3.4s0.3-2.5,0.8-3.5c0.5-1,1.2-1.8,2.1-2.3
		c0.9-0.6,2-0.8,3.2-0.8c0.7,0,1.3,0.1,2,0.3c0.7,0.2,1.2,0.4,1.7,0.8c0.3,0.2,0.5,0.4,0.7,0.6s0.2,0.4,0.2,0.7s-0.1,0.4-0.2,0.6
		s-0.3,0.2-0.5,0.2c-0.1,0-0.3,0-0.4-0.1c-0.1-0.1-0.3-0.1-0.4-0.2c-0.1-0.1-0.2-0.1-0.2-0.1c-0.5-0.3-0.9-0.5-1.3-0.7
		c-0.4-0.2-0.9-0.3-1.5-0.3c-1.3,0-2.2,0.4-3,1.3c-0.7,0.9-1.1,2-1.1,3.6s0.4,2.7,1.1,3.5c0.7,0.8,1.7,1.2,3,1.2
		c0.6,0,1.1-0.1,1.5-0.3c0.4-0.2,0.9-0.4,1.3-0.7c0.2-0.1,0.4-0.2,0.5-0.3c0.2-0.1,0.3-0.1,0.4-0.1c0.2,0,0.4,0.1,0.5,0.2
		c0.1,0.2,0.2,0.4,0.2,0.6c0,0.2-0.1,0.4-0.2,0.6c-0.1,0.2-0.3,0.4-0.7,0.6c-0.5,0.3-1.1,0.6-1.8,0.8s-1.4,0.3-2.1,0.3
		C230.2,289.7,229.1,289.4,228.2,288.9z"/>
	<path class="st0" d="M240.7,288.9c-0.9-0.5-1.6-1.3-2.1-2.3s-0.7-2.2-0.7-3.5c0-1.3,0.2-2.5,0.7-3.5c0.5-1,1.2-1.8,2.1-2.3
		s2-0.8,3.2-0.8c1.2,0,2.3,0.3,3.2,0.8c0.9,0.5,1.6,1.3,2.1,2.3c0.5,1,0.7,2.2,0.7,3.5c0,1.3-0.2,2.5-0.7,3.5
		c-0.5,1-1.2,1.8-2.1,2.3c-0.9,0.5-2,0.8-3.2,0.8C242.6,289.7,241.6,289.4,240.7,288.9z M246.7,286.7c0.7-0.8,1-2,1-3.6
		c0-1.5-0.3-2.7-1-3.6s-1.6-1.3-2.9-1.3c-1.2,0-2.2,0.4-2.9,1.3s-1,2-1,3.6c0,1.6,0.3,2.8,1,3.6c0.7,0.8,1.6,1.2,2.9,1.2
		S246,287.5,246.7,286.7z"/>
	<path class="st0" d="M263.9,281.6v7c0,0.3-0.1,0.6-0.3,0.8c-0.2,0.2-0.4,0.3-0.8,0.3c-0.3,0-0.6-0.1-0.8-0.3
		c-0.2-0.2-0.3-0.4-0.3-0.8v-6.9c0-1.2-0.2-2-0.7-2.6c-0.5-0.5-1.2-0.8-2.2-0.8c-1.2,0-2.1,0.4-2.8,1.1s-1,1.7-1,2.9v6.3
		c0,0.3-0.1,0.6-0.3,0.8c-0.2,0.2-0.4,0.3-0.8,0.3s-0.6-0.1-0.8-0.3c-0.2-0.2-0.3-0.4-0.3-0.8v-11c0-0.3,0.1-0.6,0.3-0.8
		c0.2-0.2,0.5-0.3,0.8-0.3c0.3,0,0.6,0.1,0.7,0.3s0.3,0.4,0.3,0.7v1.3c0.4-0.8,1-1.4,1.7-1.8c0.7-0.4,1.6-0.6,2.5-0.6
		C262.4,276.5,263.9,278.2,263.9,281.6z"/>
	<path class="st0" d="M267.8,279.1c-0.3-0.3-0.4-0.6-0.4-1.1s0.1-0.8,0.4-1.1s0.6-0.4,1-0.4c0.4,0,0.7,0.1,1,0.4s0.4,0.6,0.4,1.1
		s-0.1,0.8-0.4,1.1s-0.6,0.4-1,0.4C268.4,279.5,268,279.4,267.8,279.1z M267.8,289.2c-0.3-0.3-0.4-0.6-0.4-1.1
		c0-0.4,0.1-0.8,0.4-1.1s0.6-0.4,1-0.4c0.4,0,0.7,0.1,1,0.4s0.4,0.6,0.4,1.1c0,0.4-0.1,0.8-0.4,1.1c-0.3,0.3-0.6,0.4-1,0.4
		C268.4,289.6,268,289.5,267.8,289.2z"/>
</g>
</svg>
