<?xml version="1.0" encoding="utf-8"?>
<!-- Generator: Adobe Illustrator 22.1.0, SVG Export Plug-In . SVG Version: 6.00 Build 0)  -->
<svg version="1.1" id="Layer_1" xmlns="http://www.w3.org/2000/svg" xmlns:xlink="http://www.w3.org/1999/xlink" x="0px" y="0px"
	 viewBox="0 0 400 400" style="enable-background:new 0 0 400 400;" xml:space="preserve">
<style type="text/css">
	.st0{fill:#FFFFFF;}
	.st1{fill:#76CEE4;}
	.st2{fill:#60C1D8;}
	.st3{fill:#1EAFD8;}
	.st4{fill:#033333;}
	.st5{font-family:'Nunito-Bold';}
	.st6{font-size:32.773px;}
	.st7{fill:none;stroke:#000000;stroke-width:5.0197;stroke-linecap:round;stroke-linejoin:round;stroke-miterlimit:10;}
	.st8{fill:#BC1822;}
	.st9{font-size:37.0359px;}
	.st10{font-size:19.2438px;}
	.st11{fill:#A60531;}
	.st12{opacity:0.1;}
	.st13{opacity:0.2;enable-background:new    ;}
	.st14{fill:#E9CA59;}
	.st15{fill:#522452;}
	.st16{fill:#FFAF53;}
	.st17{fill:#70A649;}
	.st18{fill:#F2E30F;}
	.st19{fill:#D82668;}
	.st20{fill:#023859;}
	.st21{fill:#0A6AA6;}
	.st22{fill:#60025E;}
	.st23{enable-background:new    ;}
</style>
<g>
	<path class="st0" d="M248.6,308.6h-97.2c-10.4,0-18.9,8.5-18.9,18.9V381c0,9.7,7.4,17.8,16.8,18.8c0.7,0.1,1.3,0.2,2.1,0.2h97.2
		c10.4,0,18.9-8.5,18.9-18.9v-53.6C267.5,317.1,259,308.6,248.6,308.6z"/>
	<g>
		<g>
			<g>
				<g>
					<path class="st1" d="M151.4,389.9c-4.9,0-8.9-4-8.9-8.9v-53.5c0-4.9,4-8.9,8.9-8.9h97.2c4.9,0,8.9,4,8.9,8.9v53.6
						c0,4.9-4,8.9-8.9,8.9h-97.2L151.4,389.9L151.4,389.9z"/>
				</g>
				<g>
					<path class="st2" d="M239,381.1h-77.8c0-5.3-4.4-9.7-9.7-9.7v-34c5.3,0,9.7-4.4,9.7-9.7H239c0,5.3,4.4,9.7,9.7,9.7v34
						C243.3,371.3,239,375.7,239,381.1z"/>
				</g>
			</g>
			<g>
				<circle class="st3" cx="153.5" cy="329.7" r="3.9"/>
				<circle class="st3" cx="247.1" cy="329.7" r="3.9"/>
			</g>
			<g>
				<circle class="st3" cx="153.5" cy="379.4" r="3.9"/>
				<circle class="st3" cx="247.1" cy="379.4" r="3.9"/>
			</g>
			<g>
				<circle class="st1" cx="166.7" cy="336.7" r="2.2"/>
			</g>
			<g>
				
					<ellipse transform="matrix(6.651983e-02 -0.9978 0.9978 6.651983e-02 -176.5058 490.309)" class="st1" cx="173.8" cy="339.5" rx="2.2" ry="2.2"/>
			</g>
			<g>
				<circle class="st1" cx="225.2" cy="336.4" r="2.2"/>
			</g>
			<g>
				<circle class="st1" cx="157.3" cy="344.4" r="2.2"/>
			</g>
			<g>
				<circle class="st1" cx="165.6" cy="374.4" r="2.2"/>
			</g>
			<g>
				
					<ellipse transform="matrix(6.651976e-02 -0.9978 0.9978 6.651976e-02 -206.0461 518.131)" class="st1" cx="173.9" cy="369.2" rx="2.2" ry="2.2"/>
			</g>
			<g>
				<circle class="st1" cx="157.5" cy="367.6" r="2.2"/>
			</g>
			<g>
				<circle class="st1" cx="156.2" cy="357.1" r="2.2"/>
			</g>
			<g>
				<circle class="st1" cx="236.4" cy="339" r="2.2"/>
			</g>
			<g>
				<circle class="st1" cx="231.7" cy="351.9" r="2.2"/>
			</g>
			<g>
				<circle class="st1" cx="242.6" cy="347.5" r="2.2"/>
			</g>
			<g>
				<circle class="st1" cx="241.3" cy="361" r="2.2"/>
			</g>
			<g>
				<circle class="st1" cx="233" cy="362.3" r="2.2"/>
			</g>
			<g>
				<circle class="st1" cx="224.3" cy="370.3" r="2.2"/>
			</g>
			<g>
				
					<ellipse transform="matrix(0.9806 -0.1961 0.1961 0.9806 -68.568 53.2837)" class="st1" cx="234.8" cy="372.9" rx="2.2" ry="2.2"/>
			</g>
			<path id="XMLID_2_" class="st0" d="M166.2,364.3c-0.4,0-0.7-0.3-0.7-0.7v-0.9c-1.4-0.2-2.2-0.4-3.3-1.3v0.9
				c0,0.4-0.3,0.7-0.7,0.7s-0.7-0.3-0.7-0.7v-4.1c0-0.4,0.3-0.7,0.7-0.7s0.7,0.3,0.7,0.7v1.5c0.7,0.8,1.2,1,2.4,1.5
				c0.3,0.1,0.6,0.2,0.9,0.3v-6.4c-1.3-0.4-2.2-0.7-2.8-1c-0.7-0.3-1.2-0.8-1.6-1.3s-0.6-1.1-0.6-1.8c0-1.3,0.4-2.3,1.3-3.1
				c0.8-0.7,2.1-1.1,3.8-1.2v-0.8c0-0.4,0.3-0.7,0.7-0.7s0.7,0.3,0.7,0.7v0.9c1.2,0.2,2.2,0.6,3.1,1.2c0.2,0.2,0.1,0.3,0.3,0.4v-0.9
				c0-0.4,0.3-0.7,0.7-0.7s0.7,0.3,0.7,0.7v4.1c0,0.4-0.3,0.7-0.7,0.7s-0.7-0.3-0.7-0.7v-1.4c-0.7-0.8-1.4-1.5-2.5-1.9
				c-0.3-0.1-0.6-0.2-0.9-0.3v5.9c0.2,0.1,0.5,0.1,1,0.3c0.8,0.2,1.6,0.5,2.2,0.8c0.7,0.3,1.2,0.8,1.6,1.3c0.4,0.5,0.6,1.2,0.6,1.9
				c0,1.4-0.5,2.5-1.5,3.3c-0.9,0.8-2.3,1.2-4,1.2v0.8C166.9,364.1,166.6,364.3,166.2,364.3 M163.6,361.5c0.1,0.1,0.2,0.1,0.3,0.1
				C163.9,361.6,163.7,361.5,163.6,361.5 M166.9,355.5v6c1.3,0,2.4-0.3,3.1-0.9c0.7-0.6,1.1-1.3,1.1-2.2c0-0.5-0.1-0.9-0.4-1.2
				c-0.3-0.4-0.7-0.7-1.2-0.9c-0.5-0.2-1-0.4-1.5-0.5L166.9,355.5z M170.6,360.9c-0.1,0.1-0.2,0.2-0.3,0.3c-0.2,0.1-0.3,0.2-0.5,0.3
				c0.2-0.1,0.4-0.2,0.6-0.4C170.5,361,170.6,361,170.6,360.9 M165.6,348c-1.3,0-2.2,0.3-2.8,0.8s-0.9,1.2-0.9,2
				c0,0.5,0.1,0.9,0.4,1.2c0.3,0.4,0.7,0.7,1.2,0.9c0.5,0.2,1,0.4,1.4,0.5c0.3,0.1,0.5,0.2,0.7,0.2L165.6,348L165.6,348z"/>
			<g id="XMLID_3360_">
				<g id="XMLID_3377_">
					<path id="XMLID_3378_" class="st4" d="M199.6,380.1c-1.1,0-2,0.9-2,2h1c0-0.6,0.4-1,1-1s1,0.4,1,1h1
						C201.6,381,200.7,380.1,199.6,380.1z"/>
				</g>
				<g id="XMLID_3375_">
					<path id="XMLID_3376_" class="st4" d="M194.4,380.1c-1.1,0-2,0.9-2,2h1c0-0.6,0.4-1,1-1s1,0.4,1,1h1
						C196.4,381,195.5,380.1,194.4,380.1z"/>
				</g>
				<g id="XMLID_3373_">
					<path id="XMLID_3374_" class="st4" d="M204.9,380.1c-1.1,0-2,0.9-2,2h1c0-0.6,0.4-1,1-1s1,0.4,1,1h1
						C206.9,381,206,380.1,204.9,380.1z"/>
				</g>
				<g id="XMLID_3371_">
					<path id="XMLID_3372_" class="st4" d="M183.9,380.1c-1.1,0-2,0.9-2,2h1c0-0.6,0.4-1,1-1s1,0.4,1,1h1
						C185.9,381,185,380.1,183.9,380.1z"/>
				</g>
				<g id="XMLID_3369_">
					<path id="XMLID_3370_" class="st4" d="M178.6,380.1c-1.1,0-2,0.9-2,2h1c0-0.6,0.4-1,1-1s1,0.4,1,1h1
						C180.6,381,179.7,380.1,178.6,380.1z"/>
				</g>
				<g id="XMLID_3367_">
					<path id="XMLID_3368_" class="st4" d="M189.1,380.1c-1.1,0-2,0.9-2,2h1c0-0.6,0.4-1,1-1s1,0.4,1,1h1
						C191.1,381,190.2,380.1,189.1,380.1z"/>
				</g>
				<g id="XMLID_3365_">
					<path id="XMLID_3366_" class="st4" d="M215.4,380.1c-1.1,0-2,0.9-2,2h1c0-0.6,0.4-1,1-1s1,0.4,1,1h1
						C217.4,381,216.5,380.1,215.4,380.1z"/>
				</g>
				<g id="XMLID_3363_">
					<path id="XMLID_3364_" class="st4" d="M210.1,380.1c-1.1,0-2,0.9-2,2h1c0-0.6,0.4-1,1-1s1,0.4,1,1h1
						C212.1,381,211.2,380.1,210.1,380.1z"/>
				</g>
				<g id="XMLID_3361_">
					<path id="XMLID_3362_" class="st4" d="M220.6,380.1c-1.1,0-2,0.9-2,2h1c0-0.6,0.4-1,1-1s1,0.4,1,1h1
						C222.6,381,221.7,380.1,220.6,380.1z"/>
				</g>
			</g>
			<g id="XMLID_9_">
				<g id="XMLID_27_">
					<path id="XMLID_28_" class="st4" d="M199.6,328.4c1.1,0,2-0.9,2-2h-1c0,0.6-0.4,1-1,1s-1-0.4-1-1h-1
						C197.6,327.5,198.5,328.4,199.6,328.4z"/>
				</g>
				<g id="XMLID_25_">
					<path id="XMLID_26_" class="st4" d="M204.9,328.4c1.1,0,2-0.9,2-2h-1c0,0.6-0.4,1-1,1s-1-0.4-1-1h-1
						C202.9,327.5,203.8,328.4,204.9,328.4z"/>
				</g>
				<g id="XMLID_23_">
					<path id="XMLID_24_" class="st4" d="M194.4,328.4c1.1,0,2-0.9,2-2h-1c0,0.6-0.4,1-1,1s-1-0.4-1-1h-1
						C192.4,327.5,193.3,328.4,194.4,328.4z"/>
				</g>
				<g id="XMLID_21_">
					<path id="XMLID_22_" class="st4" d="M215.4,328.4c1.1,0,2-0.9,2-2h-1c0,0.6-0.4,1-1,1s-1-0.4-1-1h-1
						C213.4,327.5,214.3,328.4,215.4,328.4z"/>
				</g>
				<g id="XMLID_19_">
					<path id="XMLID_20_" class="st4" d="M220.6,328.4c1.1,0,2-0.9,2-2h-1c0,0.6-0.4,1-1,1s-1-0.4-1-1h-1
						C218.6,327.5,219.5,328.4,220.6,328.4z"/>
				</g>
				<g id="XMLID_17_">
					<path id="XMLID_18_" class="st4" d="M210.1,328.4c1.1,0,2-0.9,2-2h-1c0,0.6-0.4,1-1,1s-1-0.4-1-1h-1
						C208.1,327.5,209,328.4,210.1,328.4z"/>
				</g>
				<g id="XMLID_15_">
					<path id="XMLID_16_" class="st4" d="M183.9,328.4c1.1,0,2-0.9,2-2h-1c0,0.6-0.4,1-1,1s-1-0.4-1-1h-1
						C181.9,327.5,182.8,328.4,183.9,328.4z"/>
				</g>
				<g id="XMLID_13_">
					<path id="XMLID_14_" class="st4" d="M189.1,328.4c1.1,0,2-0.9,2-2h-1c0,0.6-0.4,1-1,1s-1-0.4-1-1h-1
						C187.1,327.5,188,328.4,189.1,328.4z"/>
				</g>
				<g id="XMLID_11_">
					<path id="XMLID_12_" class="st4" d="M178.6,328.4c1.1,0,2-0.9,2-2h-1c0,0.6-0.4,1-1,1s-1-0.4-1-1h-1
						C176.6,327.5,177.5,328.4,178.6,328.4z"/>
				</g>
			</g>
		</g>
		<circle class="st3" cx="199.9" cy="353.8" r="24.5"/>
		<g>
			<circle class="st2" cx="199.9" cy="353.8" r="21.2"/>
		</g>
		<g>
			<text transform="matrix(1 0 0 1 180.808 364.5754)" class="st0 st5 st6">20</text>
		</g>
	</g>
</g>
<g>
	<g>
		<path class="st0" d="M134.1,162.3c-2.4,0-4.8-1-6.5-2.8s-2.5-4.2-2.4-6.6l0.1-1.6l-2,0.1c-0.2,0-0.4,0-0.6,0
			c-2.4,0-4.6-0.9-6.3-2.6c-1.8-1.8-2.7-4.3-2.6-6.9l0.1-2l-1.6,0.1c-0.2,0-0.4,0-0.6,0c-2.6,0-5.1-1.1-6.7-3.1
			c-1.7-2-2.4-4.6-2-7.2c1.2-7.8,10-12,13.7-13.5c3.3-1.3,6.9-2.4,10.7-3.3c-0.4-1.4-0.7-2.8-0.9-4.3c0-0.1,0-0.1,0-0.2s0-0.2,0-0.4
			c-0.1-0.5-0.1-0.9-0.1-1.3c0-0.2-0.1-0.7-0.1-0.7c0-0.4-0.1-0.7-0.1-1.1c0-0.2,0-0.8,0-0.8v-0.2c0-0.2,0-0.4,0-0.6c0-0.1,0-1,0-1
			c0-0.4,0-0.7,0-1.1c0-0.2,0.1-0.7,0.1-0.7c0-0.4,0.1-0.8,0.1-1.2l0.1-0.5c0.1-0.4,0.1-0.9,0.2-1.3l0.1-0.4
			c0.1-0.4,0.2-0.9,0.3-1.3l0.1-0.4c0.1-0.4,0.2-0.9,0.3-1.3l0.1-0.5c0.1-0.4,0.2-0.8,0.4-1.2l0.2-0.5c0.1-0.4,0.3-0.8,0.4-1.1
			c0.1-0.2,0.2-0.4,0.2-0.6c0.1-0.4,0.3-0.7,0.4-1c0.1-0.2,0.2-0.5,0.3-0.7c0.1-0.3,0.3-0.6,0.4-0.9c0.1-0.3,0.3-0.5,0.4-0.8
			c0.1-0.3,0.3-0.5,0.4-0.8c0.1-0.3,0.3-0.5,0.5-0.8s0.3-0.5,0.5-0.8s0.3-0.5,0.5-0.8c0.1-0.1,0.1-0.2,0.2-0.3
			c-4-4.5-8.5-8.1-13.2-10.7l-16.9,17.1l-0.1,0.1c-2.3,2.2-5.3,3.3-8.4,3.3c-0.2,0-0.4,0-0.6,0c-0.1,0-0.2,0-0.3,0L39,87.9
			c-3.1-0.2-5.9-1.6-7.9-3.9c-2.1-2.4-3.2-5.5-2.9-8.6L31.1,33c0.3-6.1,5.4-11,11.7-11c0.3,0,0.6,0,0.8,0c0.1,0,54.1,5.8,54.1,5.8
			c3.4,0.3,6.4,2,8.4,4.7L123,54.9c0.9,1.2,1.6,2.6,2,4.1c0.4,0.2,0.7,0.4,1,0.6c6.3,3.4,12,8,17.3,13.8c4-2.5,8.5-4.1,13.2-4.8
			c0.1,0,0.1,0,0.2,0c0.1,0,0.3,0,0.4,0c0.4-0.1,0.9-0.1,1.3-0.1c0.2,0,0.6,0,0.6,0c0.4,0,0.8-0.1,1.1-0.1c0.2,0,0.4,0,0.6,0h0.3
			c0.2,0,0.4,0,0.6,0c0.1,0,1,0,1,0c0.4,0,0.7,0,1.1,0c0.2,0,0.6,0,0.6,0c0.4,0,0.8,0.1,1.2,0.1l0.5,0.1c0.4,0.1,0.9,0.1,1.3,0.2
			l0.3,0.1c0.5,0.1,1,0.2,1.4,0.3l0.3,0.1c0.5,0.1,1,0.2,1.4,0.4h0.2c0.9-3.8,2-7.4,3.3-10.7c1.4-3.7,5.6-12.5,13.5-13.7
			c0.5-0.1,0.9-0.1,1.4-0.1c2.4,0,4.8,1,6.5,2.8s2.5,4.2,2.4,6.6l-0.1,1.6l2-0.1c0.2,0,0.4,0,0.6,0c2.4,0,4.6,0.9,6.3,2.6
			c1.8,1.8,2.7,4.3,2.6,6.9l-0.1,2l1.6-0.1c0.2,0,0.4,0,0.6,0c2.6,0,5.1,1.1,6.7,3.1c1.7,2,2.4,4.6,2,7.2c-1.2,7.8-10,12-13.7,13.5
			c-3.3,1.3-6.9,2.4-10.7,3.3c0.4,1.4,0.7,2.8,0.9,4.3c0,0.1,0,0.1,0,0.2s0,0.2,0,0.3c0.1,0.4,0.1,0.9,0.1,1.3v0.6
			c0,0.4,0.1,0.8,0.1,1.2c0,0.2,0,0.7,0,0.7v0.2c0,0.2,0,0.4,0,0.6c0,0.1,0,1,0,1c0,0.4,0,0.7,0,1.1c0,0.2,0,0.6,0,0.6
			c0,0.4-0.1,0.8-0.1,1.2l-0.1,0.5c-0.1,0.4-0.1,0.9-0.2,1.3l-0.1,0.3c-0.1,0.5-0.2,1-0.3,1.5l-0.1,0.3c-0.1,0.5-0.2,1-0.4,1.4
			l-0.1,0.3c-0.1,0.5-0.3,0.9-0.4,1.4l-0.1,0.4c-0.2,0.5-0.3,0.9-0.4,1.3c-0.1,0.2-0.1,0.4-0.2,0.6c-0.1,0.4-0.3,0.7-0.4,1.1
			c-0.1,0.2-0.2,0.4-0.3,0.7c-0.1,0.3-0.3,0.6-0.4,0.9c-0.1,0.2-0.2,0.5-0.4,0.7c-0.1,0.3-0.3,0.6-0.5,0.8c-0.1,0.2-0.3,0.5-0.4,0.7
			c-0.2,0.3-0.3,0.5-0.5,0.8l-0.1,0.1c-0.1,0.2-0.3,0.4-0.4,0.6c-0.2,0.3-0.3,0.5-0.5,0.7l-0.1,0.2c-0.1,0.2-0.2,0.3-0.4,0.5
			c-0.3,0.4-0.6,0.7-0.8,1.1c-0.1,0.1-0.2,0.2-0.2,0.3c-5.6,6.8-13.5,11.3-22.2,12.6c-0.1,0-0.1,0-0.2,0c-0.1,0-0.2,0-0.3,0
			c-0.4,0.1-0.9,0.1-1.3,0.1c-0.1,0-0.6,0-0.6,0c-0.4,0-0.8,0.1-1.1,0.1c-0.2,0-0.9,0-0.9,0c-0.2,0-0.4,0-0.6,0c-0.1,0-1,0-1,0
			c-0.4,0-0.7,0-1.1,0c-0.2,0-0.6,0-0.6,0c-0.4,0-0.8-0.1-1.2-0.1l-0.5-0.1c-0.4-0.1-0.9-0.1-1.3-0.2l-0.4-0.1
			c-0.5-0.1-0.9-0.2-1.4-0.3l-0.3-0.1c-0.5-0.1-1-0.2-1.4-0.4l-0.2-0.1c-0.9,3.8-2,7.4-3.3,10.7c-1.4,3.7-5.6,12.5-13.5,13.7
			C135.1,162.3,134.6,162.3,134.1,162.3L134.1,162.3z"/>
		<path class="st0" d="M42.7,27.1c0.2,0,0.3,0,0.5,0l53.9,5.8c2,0.2,3.8,1.1,4.9,2.7l17,22.3c1,1.3,1.5,2.9,1.4,4.5
			c0.8,0.3,1.5,0.7,2.3,1.1c0.2,0.1,0.4,0.2,0.5,0.4c6.1,3.2,12.8,8.3,19.2,16.3c4.2-3.4,9.3-5.8,15-6.6l0,0c0.1,0,0.2,0,0.3,0
			c0.4,0,0.7-0.1,1.1-0.1c0.2,0,0.4,0,0.5,0c0.3,0,0.7,0,1-0.1c0.2,0,0.4,0,0.6,0c0.2,0,0.5,0,0.7,0c0.1,0,0.2,0,0.2,0
			c0.2,0,0.4,0,0.6,0c0.3,0,0.6,0,0.9,0c0.2,0,0.4,0,0.5,0c0.3,0,0.7,0.1,1,0.1c0.1,0,0.3,0,0.4,0.1c0.4,0,0.8,0.1,1.1,0.2
			c0.1,0,0.2,0,0.4,0.1c0.4,0.1,0.8,0.1,1.2,0.2c0.1,0,0.2,0.1,0.3,0.1c0.4,0.1,0.8,0.2,1.2,0.3c0.1,0,0.2,0.1,0.4,0.1
			c0.4,0.1,0.7,0.2,1.1,0.3c0.1,0,0.3,0.1,0.4,0.1c0.3,0.1,0.7,0.2,1,0.4c0.2,0.1,0.3,0.1,0.5,0.2c0.3,0.1,0.6,0.2,0.9,0.4
			c0.2,0.1,0.4,0.2,0.6,0.3c0.1,0.1,0.3,0.1,0.4,0.2c0.1-0.4,0.1-0.7,0.2-1.1c0.1-0.7,0.2-1.4,0.4-2.1c0-0.2,0.1-0.3,0.1-0.5l0,0
			c0.9-4.1,2-8.2,3.5-11.9c1.7-4.3,5-9.9,9.6-10.6c0.2,0,0.4,0,0.6,0c2.2,0,4,1.9,3.9,4.1l-0.2,3.3c-0.1,2,1.5,3.7,3.5,3.7
			c0.1,0,0.2,0,0.2,0l3.7-0.2c0.1,0,0.2,0,0.3,0c1.1,0,2,0.4,2.7,1.1c0.8,0.8,1.2,1.8,1.1,3l-0.2,3.7c-0.1,2,1.5,3.7,3.5,3.7
			c0.1,0,0.2,0,0.2,0l3.3-0.2c0.1,0,0.2,0,0.3,0c2.4,0,4.2,2.1,3.8,4.5c-0.7,4.6-6.3,7.9-10.6,9.6c-3.7,1.4-7.8,2.6-11.9,3.5l0,0
			c-0.2,0-0.3,0.1-0.5,0.1c-0.7,0.1-1.4,0.3-2.2,0.4c-0.4,0.1-0.7,0.1-1.1,0.2c1.3,2.8,2.3,5.8,2.7,8.9l0,0c0,0.1,0,0.2,0,0.3
			c0,0.4,0.1,0.7,0.1,1.1c0,0.2,0,0.3,0,0.5c0,0.3,0,0.7,0.1,1c0,0.2,0,0.4,0,0.6s0,0.5,0,0.7c0,0.1,0,0.2,0,0.2c0,0.2,0,0.4,0,0.6
			c0,0.3,0,0.6,0,1c0,0.2,0,0.3,0,0.5c0,0.4-0.1,0.7-0.1,1c0,0.1,0,0.3-0.1,0.4c0,0.4-0.1,0.8-0.2,1.1c0,0.1,0,0.2-0.1,0.3
			c-0.1,0.4-0.1,0.8-0.2,1.2c0,0.1-0.1,0.2-0.1,0.3c-0.1,0.4-0.2,0.8-0.3,1.2c0,0.1-0.1,0.2-0.1,0.4c-0.1,0.4-0.2,0.7-0.3,1.1
			c0,0.1-0.1,0.3-0.1,0.4c-0.1,0.3-0.2,0.7-0.4,1c-0.1,0.2-0.1,0.3-0.2,0.5c-0.1,0.3-0.2,0.6-0.4,0.9c-0.1,0.2-0.2,0.4-0.3,0.6
			c-0.1,0.3-0.2,0.5-0.4,0.8c-0.1,0.2-0.2,0.4-0.3,0.6s-0.3,0.5-0.4,0.7c-0.1,0.2-0.2,0.4-0.4,0.6c-0.1,0.2-0.3,0.5-0.4,0.7
			c-0.1,0.2-0.3,0.4-0.4,0.6c-0.2,0.2-0.3,0.5-0.5,0.7c-0.1,0.2-0.3,0.4-0.4,0.5c-0.2,0.3-0.5,0.6-0.7,0.9c-0.1,0.1-0.1,0.2-0.2,0.3
			l0,0c-4.7,5.8-11.5,9.7-19.2,10.8l0,0c-0.1,0-0.2,0-0.3,0c-0.4,0-0.7,0.1-1.1,0.1c-0.2,0-0.4,0-0.5,0c-0.3,0-0.7,0-1,0.1
			c-0.2,0-0.4,0-0.6,0c-0.2,0-0.5,0-0.7,0c-0.1,0-0.2,0-0.2,0c-0.2,0-0.4,0-0.6,0c-0.3,0-0.6,0-0.9,0c-0.2,0-0.4,0-0.5,0
			c-0.3,0-0.7-0.1-1-0.1c-0.1,0-0.3,0-0.4-0.1c-0.4,0-0.7-0.1-1.1-0.2c-0.1,0-0.2,0-0.4-0.1c-0.4-0.1-0.8-0.1-1.2-0.2
			c-0.1,0-0.2-0.1-0.3-0.1c-0.4-0.1-0.8-0.2-1.1-0.3c-0.1,0-0.3-0.1-0.4-0.1c-0.4-0.1-0.7-0.2-1.1-0.3c-0.1,0-0.3-0.1-0.4-0.2
			c-0.3-0.1-0.7-0.2-1-0.4c-0.2-0.1-0.3-0.1-0.5-0.2c-0.3-0.1-0.6-0.2-0.9-0.4c-0.2-0.1-0.4-0.2-0.6-0.3c-0.1-0.1-0.3-0.1-0.4-0.2
			c-0.1,0.4-0.1,0.7-0.2,1.1c-0.1,0.7-0.3,1.4-0.4,2.2c0,0.2-0.1,0.3-0.1,0.5l0,0c-0.9,4.1-2,8.2-3.5,11.9c-1.7,4.3-5,9.9-9.6,10.6
			c-0.2,0-0.4,0-0.6,0c-2.2,0-4-1.9-3.9-4.1l0.2-3.3c0.1-2-1.5-3.7-3.5-3.7c-0.1,0-0.2,0-0.2,0l-3.7,0.2c-0.1,0-0.2,0-0.3,0
			c-1.1,0-2-0.4-2.7-1.1c-0.8-0.8-1.2-1.8-1.1-3l0.2-3.7c0.1-2-1.5-3.7-3.5-3.7c-0.1,0-0.2,0-0.2,0l-3.3,0.2c-0.1,0-0.2,0-0.3,0
			c-2.4,0-4.2-2.1-3.8-4.5c0.7-4.6,6.3-7.9,10.6-9.6c3.7-1.4,7.8-2.6,11.9-3.5l0,0c0.2,0,0.3-0.1,0.5-0.1c0.7-0.1,1.4-0.3,2.2-0.4
			c0.4-0.1,0.7-0.1,1.1-0.2c-1.3-2.8-2.3-5.8-2.7-8.9l0,0c0-0.1,0-0.2,0-0.3c0-0.4-0.1-0.7-0.1-1.1c0-0.2,0-0.4,0-0.6
			c0-0.3,0-0.6-0.1-1c0-0.2,0-0.4,0-0.7c0-0.2,0-0.4,0-0.7c0-0.1,0-0.1,0-0.2c0-0.2,0-0.4,0-0.7c0-0.3,0-0.6,0-0.9
			c0-0.2,0-0.4,0-0.6c0-0.3,0.1-0.7,0.1-1c0-0.2,0-0.3,0.1-0.5c0-0.4,0.1-0.7,0.2-1.1c0-0.1,0-0.3,0.1-0.4c0.1-0.4,0.1-0.8,0.2-1.1
			c0-0.1,0.1-0.2,0.1-0.4c0.1-0.4,0.2-0.8,0.3-1.1c0-0.1,0.1-0.3,0.1-0.4c0.1-0.4,0.2-0.7,0.3-1.1c0.1-0.2,0.1-0.3,0.2-0.5
			c0.1-0.3,0.2-0.6,0.3-1c0.1-0.2,0.1-0.4,0.2-0.5c0.1-0.3,0.2-0.6,0.4-0.9c0.1-0.2,0.2-0.4,0.3-0.6c0.1-0.3,0.2-0.5,0.4-0.8
			c0.1-0.2,0.2-0.4,0.3-0.6s0.2-0.5,0.4-0.7c0.1-0.2,0.3-0.4,0.4-0.7c0.1-0.2,0.3-0.4,0.4-0.6c0.1-0.2,0.3-0.4,0.4-0.7
			c0.1-0.2,0.3-0.4,0.5-0.7c0.1-0.2,0.3-0.4,0.4-0.6c0.2-0.3,0.4-0.6,0.6-0.8c0.1-0.1,0.2-0.2,0.3-0.3l0,0c0.2-0.3,0.4-0.5,0.6-0.7
			c-6.9-8.8-14.3-13.8-20.7-16.6L98.7,86.7c-1.4,1.3-3.1,2-5,2c-0.1,0-0.2,0-0.3,0l-53.9-5.8c-3.7-0.2-6.6-3.4-6.3-7.2L36,33.4
			C36.2,29.8,39.2,27.1,42.7,27.1 M101.3,58.4c0.4,0,0.8,0,1.2,0c1.3,0,2.9,0.1,4.9,0.3c0.8,0.1,1.6,0.2,2.6,0.4
			c-0.7-1.7-2.3-2.9-4.2-3c-0.1,0-0.2,0-0.3,0C103.8,56.1,102.2,57,101.3,58.4 M105.5,66.1c1.5,0,3-0.7,3.9-1.9
			c-1.5-0.3-2.9-0.5-4.1-0.6c-0.5,0-0.8,0-0.9,0h-0.1c0,0,0,0-0.1,0c-0.2,0-0.4,0-0.6-0.1c-0.5,0-0.9,0-1.3,0c-0.5,0-0.9,0-1.2,0
			c0.8,1.4,2.3,2.5,4.1,2.6C105.3,66.1,105.4,66.1,105.5,66.1 M42.7,17.1L42.7,17.1c-8.9,0-16.2,6.9-16.7,15.7L23.2,75
			c-0.3,4.5,1.2,8.9,4.2,12.3c2.9,3.3,6.9,5.3,11.3,5.6l53.7,5.7c0.2,0,0.4,0,0.6,0c0.3,0,0.5,0,0.8,0c4.4,0,8.6-1.7,11.8-4.7
			c0.1-0.1,0.2-0.2,0.3-0.3l14.2-14.3c2.1,1.4,4.2,3.1,6.2,5.1c-0.1,0.1-0.1,0.2-0.2,0.3c-0.2,0.3-0.3,0.6-0.4,0.9
			c-0.2,0.3-0.3,0.7-0.5,1c-0.1,0.3-0.2,0.5-0.4,0.8c-0.2,0.4-0.3,0.7-0.5,1.1c-0.1,0.2-0.2,0.5-0.3,0.7c-0.2,0.4-0.3,0.8-0.5,1.3
			v0.1c-0.1,0.2-0.1,0.3-0.2,0.5c-0.2,0.5-0.3,0.9-0.4,1.4v0.1c0,0.1-0.1,0.3-0.1,0.4c-0.1,0.5-0.3,1-0.4,1.5v0.1
			c0,0.1-0.1,0.3-0.1,0.4c-0.1,0.5-0.2,1-0.3,1.5v0.1c0,0.1-0.1,0.3-0.1,0.4c-0.1,0.5-0.1,1-0.2,1.5v0.1c0,0.2,0,0.3-0.1,0.5
			c0,0.4-0.1,0.9-0.1,1.3v0.1c0,0.2,0,0.4,0,0.6c0,0.4,0,0.8,0,1.2v0.2c0,0.2,0,0.4,0,0.6c0,0.1,0,0.3,0,0.4c0,0.3,0,0.5,0,0.8v0.1
			v0.1c0,0.2,0,0.5,0,0.7c0,0.4,0,0.8,0.1,1.3v0.1c0,0.2,0,0.4,0,0.6c0,0.4,0.1,0.9,0.2,1.3c0,0.2,0,0.4,0.1,0.5v0.1
			c-2.3,0.7-4.5,1.4-6.7,2.2c-9.5,3.7-15.7,10-16.8,17.3c-0.6,4,0.5,8.1,3.1,11.2c2,2.4,4.8,4,7.8,4.6c0.5,2.8,1.8,5.5,3.9,7.6
			s4.7,3.4,7.6,3.9c0.5,2.5,1.7,4.8,3.5,6.7c2.6,2.8,6.3,4.4,10.1,4.4c0.7,0,1.5-0.1,2.2-0.2c7.3-1.2,13.6-7.3,17.3-16.8
			c0.8-2.1,1.6-4.4,2.2-6.7c0.2,0,0.5,0.1,0.7,0.1h0.1c0.2,0,0.3,0,0.5,0.1c0.5,0.1,0.9,0.1,1.4,0.1h0.1c0.2,0,0.4,0,0.6,0
			c0.4,0,0.8,0,1.2,0h0.1c0.2,0,0.4,0,0.6,0c0.1,0,0.3,0,0.4,0c0.3,0,0.5,0,0.8,0h0.1h0.1c0.2,0,0.5,0,0.7,0c0.4,0,0.9,0,1.3-0.1
			h0.1c0.2,0,0.4,0,0.6,0c0.5,0,0.9-0.1,1.4-0.2c0.2,0,0.3,0,0.5-0.1c0.1,0,0.2,0,0.3,0c9.9-1.5,18.8-6.5,25.1-14.2
			c0-0.1,0.1-0.1,0.1-0.2c0.1-0.1,0.2-0.3,0.3-0.4c0.3-0.4,0.6-0.8,0.9-1.2c0.1-0.2,0.3-0.4,0.4-0.6l0.1-0.1v-0.1
			c0.2-0.3,0.4-0.6,0.6-0.9c0.2-0.2,0.3-0.5,0.5-0.7l0.1-0.1c0.2-0.3,0.4-0.6,0.6-0.9c0.2-0.3,0.3-0.6,0.5-0.9s0.3-0.6,0.5-0.9
			c0.1-0.3,0.3-0.6,0.4-0.8c0.2-0.3,0.3-0.7,0.5-1c0.1-0.3,0.2-0.5,0.3-0.8c0.2-0.4,0.3-0.8,0.5-1.2c0.1-0.2,0.2-0.5,0.3-0.7
			c0.2-0.4,0.3-0.9,0.5-1.3v-0.1c0.1-0.2,0.1-0.3,0.2-0.5c0.2-0.5,0.3-1,0.4-1.5V114c0-0.1,0.1-0.3,0.1-0.4c0.1-0.5,0.3-1,0.4-1.5
			V112c0-0.1,0.1-0.3,0.1-0.4c0.1-0.5,0.2-1,0.3-1.6l0,0c0-0.1,0-0.3,0.1-0.4c0.1-0.5,0.2-1,0.2-1.5V108c0-0.2,0-0.3,0.1-0.5
			c0.1-0.5,0.1-0.9,0.1-1.4V106c0-0.2,0-0.4,0-0.6c0-0.4,0-0.8,0-1.3V104c0-0.2,0-0.4,0-0.6c0-0.1,0-0.3,0-0.4c0-0.3,0-0.5,0-0.8
			v-0.1V102c0-0.2,0-0.5,0-0.7c0-0.4,0-0.9-0.1-1.3v-0.1c0-0.2,0-0.4,0-0.6c0-0.5-0.1-0.9-0.2-1.4c0-0.2,0-0.3-0.1-0.5v-0.1
			c2.3-0.7,4.5-1.4,6.7-2.2c9.5-3.7,15.7-10,16.8-17.3c0.6-4-0.5-8.1-3.1-11.2c-2-2.4-4.8-4-7.8-4.6c-0.5-2.8-1.8-5.5-3.9-7.6
			c-2.1-2.1-4.7-3.4-7.6-3.9c-0.5-2.5-1.7-4.8-3.5-6.7c-2.6-2.8-6.3-4.4-10.1-4.4l0,0c-0.7,0-1.5,0.1-2.2,0.2
			c-7.3,1.2-13.6,7.3-17.3,16.8c-0.8,2.1-1.6,4.4-2.2,6.7c-0.2,0-0.5-0.1-0.7-0.1h-0.1c-0.2,0-0.3,0-0.5-0.1
			c-0.5-0.1-0.9-0.1-1.4-0.1h-0.1c-0.2,0-0.4,0-0.6,0c-0.4,0-0.8,0-1.2,0h-0.1c-0.2,0-0.4,0-0.6,0c-0.1,0-0.3,0-0.4,0
			c-0.3,0-0.5,0-0.8,0h-0.1h-0.1c-0.2,0-0.5,0-0.7,0c-0.4,0-0.9,0-1.3,0.1h-0.1c-0.2,0-0.4,0-0.6,0c-0.5,0-0.9,0.1-1.4,0.2
			c-0.2,0-0.3,0-0.5,0.1c-0.1,0-0.2,0-0.3,0c-4,0.6-7.8,1.8-11.4,3.5c-4.7-4.7-9.7-8.5-15.1-11.5c-0.6-1.3-1.3-2.6-2.2-3.8
			l-16.8-22.3c-2.8-3.8-7.1-6.2-12-6.7l-53.9-5.7c-0.1,0-0.2,0-0.3,0C43.5,17.1,43.1,17.1,42.7,17.1L42.7,17.1L42.7,17.1z"/>
	</g>
	<g>
		<path class="st0" d="M341.7,91.9c-6.3,0-11.9-4.6-14.7-7.3c-2.5-2.5-5.1-5.3-7.4-8.4c-1.1,0.9-2.3,1.8-3.5,2.6
			c-0.1,0-0.1,0.1-0.2,0.1c-0.1,0.1-0.2,0.1-0.3,0.2c-0.4,0.2-0.7,0.5-1.1,0.7l-0.5,0.3c-0.4,0.2-0.7,0.4-1,0.6
			c-0.2,0.1-0.8,0.4-0.8,0.4c-0.2,0.1-0.4,0.2-0.5,0.3c-0.1,0-0.9,0.4-0.9,0.4c-0.3,0.1-0.7,0.3-1,0.4l-0.6,0.2
			c-0.4,0.1-0.8,0.3-1.2,0.4l-0.5,0.1c-0.4,0.1-0.9,0.3-1.3,0.4l-0.4,0.1c-0.5,0.1-0.9,0.2-1.4,0.3l-0.3,0.1c-0.6,0.1-1,0.2-1.5,0.3
			l-0.4,0.1c-0.5,0.1-0.9,0.1-1.3,0.2h-0.4c-0.5,0-0.9,0.1-1.3,0.1c-0.2,0-0.4,0-0.6,0c-0.4,0-0.7,0-1.1,0h-0.7c-0.3,0-0.7,0-1,0
			s-0.5,0-0.8,0s-0.6,0-1-0.1c-0.3,0-0.6,0-0.8-0.1c-0.3,0-0.6-0.1-0.9-0.1h-0.1c-0.2,0-0.5-0.1-0.7-0.1c-0.3-0.1-0.6-0.1-0.9-0.2
			h-0.2c-0.2,0-0.4-0.1-0.6-0.1c-0.4-0.1-0.9-0.2-1.3-0.3c-0.1,0-0.3-0.1-0.4-0.1c-8.5-2.3-15.9-7.6-20.6-15c0-0.1-0.1-0.1-0.1-0.2
			c-0.1-0.1-0.1-0.2-0.2-0.3c-0.2-0.4-0.5-0.8-0.7-1.1c-0.1-0.1-0.3-0.5-0.3-0.5c-0.2-0.3-0.4-0.7-0.5-1c-0.1-0.2-0.4-0.9-0.4-0.9
			c-0.1-0.2-0.2-0.3-0.2-0.5l-0.4-0.9c-0.1-0.3-0.3-0.7-0.4-1c-0.1-0.2-0.2-0.6-0.2-0.6c-0.1-0.4-0.3-0.7-0.4-1.1l-0.1-0.5
			c-0.1-0.4-0.3-0.8-0.4-1.3l-0.1-0.4c-0.1-0.5-0.2-0.9-0.3-1.3l-0.1-0.3c-0.1-0.5-0.2-1-0.3-1.4v-0.2c-3.8,0.8-7.6,1.3-11.1,1.5
			c-0.6,0-1.3,0.1-2,0.1l0,0c-4.4,0-12.2-0.9-16.1-6.6c-1.5-2.3-1.9-5-1.1-7.6c0.8-2.6,2.8-4.6,5.3-5.6l1.5-0.6l-1-1.8
			c-1.2-2.3-1.4-4.9-0.5-7.3s2.8-4.3,5.2-5.2l1.9-0.7l-0.8-1.4c-1.3-2.4-1.4-5.2-0.4-7.7c1.1-2.5,3.2-4.3,5.8-5.1
			c1-0.3,2.1-0.4,3.2-0.4c6.3,0,11.9,4.6,14.7,7.3c2.5,2.5,5.1,5.3,7.4,8.4c1.1-0.9,2.3-1.8,3.5-2.6c0.1,0,0.1-0.1,0.2-0.1
			c0.1-0.1,0.2-0.1,0.3-0.2c0.4-0.2,0.7-0.4,1.1-0.7c0.2-0.1,0.6-0.3,0.6-0.3c0.3-0.2,0.6-0.4,1-0.5c0.2-0.1,0.7-0.3,0.7-0.3
			l0.2-0.1c0.2-0.1,0.3-0.2,0.5-0.2c0.1,0,1-0.4,1-0.4c0.3-0.1,0.6-0.3,1-0.4c0.2-0.1,0.6-0.2,0.6-0.2c0.4-0.1,0.7-0.3,1.1-0.4
			l0.5-0.2c0.4-0.1,0.8-0.3,1.2-0.4l0.4-0.1c0.4-0.1,0.9-0.2,1.3-0.3l0.4-0.1c0.5-0.1,0.9-0.2,1.3-0.3l0.5-0.1
			c0.4-0.1,0.9-0.1,1.3-0.2l0.6-0.1c0.4,0,0.8-0.1,1.2-0.1c0.2,0,0.4,0,0.7,0c0.4,0,0.7,0,1.1,0h0.8c0.3,0,0.6,0,1,0
			c0.3,0,0.6,0,0.9,0s0.6,0,0.9,0.1c0.3,0,0.6,0.1,0.9,0.1s0.6,0.1,0.9,0.1h0.1c0.3,0,0.5,0.1,0.8,0.1s0.5,0.1,0.8,0.1l0.3,0.1
			c0.2,0,0.5,0.1,0.7,0.1c0.4,0.1,0.8,0.2,1.2,0.3c0.2,0.1,0.4,0.1,0.5,0.1s0.1,0,0.2,0c8.5,2.3,15.8,7.6,20.5,14.9
			c0,0.1,0.1,0.1,0.1,0.2c0.1,0.1,0.1,0.2,0.2,0.3c0.2,0.4,0.5,0.7,0.7,1.1c0.1,0.1,0.3,0.6,0.3,0.6c0.2,0.3,0.4,0.7,0.5,1
			c0.1,0.2,0.2,0.3,0.3,0.5l0.2,0.3c0.1,0.2,0.2,0.4,0.3,0.5l0.1,0.3c0.1,0.2,0.1,0.3,0.2,0.5l0.1,0.1c0.1,0.3,0.3,0.7,0.4,1
			c0.1,0.1,0.2,0.6,0.2,0.6c0.1,0.4,0.3,0.8,0.4,1.1l0.2,0.5c0.1,0.4,0.3,0.8,0.4,1.3l0.1,0.3c0.1,0.5,0.2,1,0.3,1.4l0.1,0.4
			c0.1,0.5,0.2,0.9,0.3,1.4v0.2c3.8-0.8,7.6-1.3,11.1-1.5c0.6,0,1.3-0.1,2-0.1c4.4,0,12.2,0.9,16.1,6.6c1.5,2.3,1.9,5,1.1,7.6
			s-2.8,4.6-5.3,5.6l-1.5,0.6l1,1.8c1.2,2.3,1.4,4.9,0.5,7.3s-2.8,4.3-5.2,5.2l-1.9,0.7l0.8,1.4c1.3,2.4,1.4,5.2,0.4,7.7
			c-1.1,2.5-3.2,4.3-5.8,5.1C343.9,91.8,342.8,91.9,341.7,91.9z"/>
		<path class="st0" d="M251.9,11.3c4,0,8.4,3.1,11.3,5.9c2.8,2.8,5.6,6,8.1,9.4l0,0c0.1,0.1,0.2,0.2,0.2,0.3c0.2,0.3,0.5,0.7,0.7,1
			c0.1,0.2,0.2,0.3,0.4,0.5c0.2,0.3,0.4,0.7,0.7,1c0.1,0.1,0.1,0.2,0.2,0.3c2-2.4,4.3-4.4,7-6.2l0,0c0.1-0.1,0.2-0.1,0.3-0.2
			c0.3-0.2,0.6-0.4,0.9-0.6c0.2-0.1,0.3-0.2,0.5-0.3c0.3-0.2,0.6-0.3,0.8-0.5c0.2-0.1,0.4-0.2,0.6-0.3c0.2-0.1,0.4-0.2,0.6-0.3
			c0.1,0,0.1-0.1,0.2-0.1c0.2-0.1,0.4-0.2,0.6-0.3c0.3-0.1,0.6-0.2,0.8-0.3c0.2-0.1,0.4-0.1,0.5-0.2c0.3-0.1,0.6-0.2,1-0.3
			c0.1,0,0.3-0.1,0.4-0.1c0.4-0.1,0.7-0.2,1.1-0.3c0.1,0,0.2-0.1,0.4-0.1c0.4-0.1,0.8-0.2,1.1-0.3c0.1,0,0.2,0,0.4-0.1
			c0.4-0.1,0.8-0.2,1.1-0.2c0.1,0,0.3,0,0.4-0.1c0.4-0.1,0.7-0.1,1.1-0.2c0.2,0,0.3,0,0.5,0c0.3,0,0.7-0.1,1-0.1c0.2,0,0.4,0,0.6,0
			c0.3,0,0.6,0,0.9,0c0.1,0,0.3,0,0.4,0s0.1,0,0.2,0c0.3,0,0.6,0,0.8,0c0.2,0,0.5,0,0.7,0c0.3,0,0.5,0,0.8,0.1c0.3,0,0.5,0,0.8,0.1
			c0.2,0,0.5,0.1,0.7,0.1c0.3,0,0.5,0.1,0.8,0.1s0.5,0.1,0.8,0.1c0.2,0,0.5,0.1,0.7,0.1c0.3,0.1,0.7,0.2,1,0.2
			c0.1,0,0.3,0.1,0.4,0.1l0,0c7.2,1.9,13.6,6.4,17.8,13l0,0c0.1,0.1,0.1,0.2,0.2,0.3c0.2,0.3,0.4,0.6,0.6,0.9
			c0.1,0.2,0.2,0.3,0.3,0.5c0.2,0.3,0.3,0.6,0.5,0.9c0.1,0.2,0.2,0.4,0.3,0.6c0.1,0.2,0.2,0.4,0.3,0.6c0,0.1,0.1,0.1,0.1,0.2
			c0.1,0.2,0.2,0.4,0.3,0.6c0.1,0.3,0.2,0.6,0.4,0.9c0.1,0.2,0.1,0.3,0.2,0.5c0.1,0.3,0.2,0.6,0.3,1c0,0.1,0.1,0.3,0.1,0.4
			c0.1,0.4,0.2,0.7,0.3,1.1c0,0.1,0.1,0.2,0.1,0.4c0.1,0.4,0.2,0.8,0.3,1.2c0,0.1,0,0.2,0.1,0.3c0.1,0.4,0.2,0.8,0.2,1.2
			c0,0.1,0,0.3,0.1,0.4c0.1,0.4,0.1,0.7,0.2,1.1c0,0.2,0,0.3,0,0.5c0,0.3,0.1,0.7,0.1,1c0,0.2,0,0.4,0,0.6c0,0.3,0,0.6,0,0.9
			c0,0.2,0,0.4,0,0.6c0,0.1,0,0.3,0,0.4c0.8-0.2,1.5-0.4,2.3-0.6c0.2,0,0.4-0.1,0.6-0.1c0.3-0.1,0.5-0.1,0.8-0.2l0,0
			c4.1-0.9,8.3-1.6,12.3-1.8c0.5,0,1.1,0,1.7,0c4.4,0,9.7,1,11.9,4.4c1.4,2.1,0.5,4.9-1.9,5.8l-3.1,1.2c-2,0.8-2.9,3.1-1.8,5
			l1.8,3.3c0.6,1,0.6,2.2,0.2,3.2s-1.2,1.9-2.3,2.3l-3.5,1.3c-2,0.8-2.9,3.1-1.8,5l1.6,2.9c1.2,2.2,0,4.9-2.4,5.6
			c-0.6,0.2-1.2,0.2-1.9,0.2c-4,0-8.4-3.1-11.3-5.9c-2.8-2.8-5.6-6-8.1-9.4l0,0c-0.1-0.1-0.1-0.2-0.2-0.3c-0.2-0.3-0.5-0.7-0.7-1
			c-0.1-0.2-0.2-0.3-0.3-0.5c-0.2-0.3-0.5-0.7-0.7-1c-0.1-0.1-0.1-0.2-0.2-0.3c-2,2.4-4.3,4.4-7,6.2l0,0c-0.1,0.1-0.2,0.1-0.3,0.2
			c-0.3,0.2-0.6,0.4-1,0.6c-0.2,0.1-0.3,0.2-0.5,0.3c-0.3,0.2-0.6,0.3-0.9,0.5c-0.2,0.1-0.4,0.2-0.6,0.3c-0.2,0.1-0.4,0.2-0.6,0.3
			c-0.1,0-0.1,0.1-0.2,0.1c-0.2,0.1-0.4,0.2-0.6,0.2c-0.3,0.1-0.6,0.2-0.9,0.4c-0.2,0.1-0.3,0.1-0.5,0.2c-0.3,0.1-0.7,0.2-1,0.4
			c-0.1,0-0.3,0.1-0.4,0.1c-0.4,0.1-0.7,0.2-1.1,0.3c-0.1,0-0.2,0.1-0.3,0.1c-0.4,0.1-0.8,0.2-1.2,0.3c-0.1,0-0.2,0-0.3,0.1
			c-0.4,0.1-0.8,0.2-1.2,0.2c-0.1,0-0.2,0-0.4,0.1c-0.4,0.1-0.8,0.1-1.1,0.2c-0.1,0-0.3,0-0.4,0c-0.4,0-0.7,0.1-1.1,0.1
			c-0.2,0-0.4,0-0.5,0c-0.3,0-0.6,0-1,0c-0.1,0-0.3,0-0.4,0s-0.1,0-0.2,0c-0.3,0-0.6,0-0.9,0c-0.2,0-0.5,0-0.7,0
			c-0.3,0-0.5,0-0.8-0.1c-0.2,0-0.5,0-0.7-0.1c-0.3,0-0.5-0.1-0.8-0.1c-0.2,0-0.5-0.1-0.7-0.1c-0.3,0-0.6-0.1-0.8-0.2
			c-0.2,0-0.4-0.1-0.7-0.1c-0.4-0.1-0.8-0.2-1.1-0.3c-0.1,0-0.2,0-0.3-0.1l0,0c-7.2-1.9-13.6-6.4-17.8-13l0,0
			c-0.1-0.1-0.1-0.2-0.2-0.3c-0.2-0.3-0.4-0.6-0.6-0.9c-0.1-0.2-0.2-0.3-0.3-0.5c-0.2-0.3-0.3-0.6-0.5-0.9c-0.1-0.2-0.2-0.4-0.3-0.6
			c-0.1-0.2-0.2-0.4-0.3-0.6c0-0.1-0.1-0.1-0.1-0.2c-0.1-0.2-0.2-0.4-0.3-0.6c-0.1-0.3-0.2-0.6-0.4-0.9c-0.1-0.2-0.1-0.3-0.2-0.5
			c-0.1-0.3-0.2-0.6-0.3-1c0-0.1-0.1-0.3-0.1-0.4c-0.1-0.4-0.2-0.7-0.3-1.1c0-0.1-0.1-0.2-0.1-0.4c-0.1-0.4-0.2-0.8-0.3-1.1
			c0-0.1,0-0.2-0.1-0.3c-0.1-0.4-0.2-0.8-0.2-1.2c0-0.1,0-0.3-0.1-0.4c-0.1-0.4-0.1-0.7-0.2-1.1c0-0.2,0-0.3,0-0.5
			c0-0.3-0.1-0.7-0.1-1c0-0.2,0-0.4,0-0.6c0-0.3,0-0.6,0-0.9c0-0.2,0-0.4,0-0.6c0-0.1,0-0.3,0-0.4c-0.8,0.2-1.5,0.4-2.3,0.6
			c-0.2,0-0.4,0.1-0.6,0.1c-0.3,0.1-0.5,0.1-0.8,0.2l0,0c-4.1,0.9-8.3,1.6-12.3,1.8c-0.5,0-1.1,0-1.7,0c-4.4,0-9.7-1-11.9-4.4
			c-1.4-2.1-0.5-4.9,1.9-5.8l3.1-1.2c2-0.8,2.9-3.1,1.8-5l-1.8-3.3c-0.6-1-0.6-2.2-0.2-3.2c0.4-1,1.2-1.9,2.3-2.3l3.5-1.3
			c2-0.8,2.9-3.1,1.8-5l-1.6-2.9c-1.2-2.2,0-4.9,2.4-5.6C250.6,11.4,251.2,11.3,251.9,11.3 M251.9,1.3c-1.6,0-3.1,0.2-4.5,0.6
			c-4.1,1.1-7.4,4-9,7.9c-1.2,2.7-1.4,5.7-0.8,8.5c-2.4,1.6-4.2,3.9-5.3,6.7c-1,2.7-1.1,5.7-0.4,8.5c-2.3,1.7-4.1,4.1-5,7
			c-1.3,4-0.7,8.4,1.7,11.9c3.8,5.7,11,8.8,20.2,8.8c0.8,0,1.5,0,2.3-0.1c2.3-0.1,4.6-0.4,7-0.7c0.1,0.2,0.1,0.5,0.2,0.7v0.1
			c0,0.2,0.1,0.3,0.1,0.5c0.1,0.4,0.3,0.9,0.5,1.3v0.1c0.1,0.2,0.1,0.4,0.2,0.6c0.1,0.4,0.3,0.8,0.5,1.1l0.1,0.1
			c0.1,0.2,0.2,0.4,0.2,0.6c0.1,0.1,0.1,0.3,0.2,0.4c0.1,0.2,0.2,0.5,0.3,0.7l0.1,0.1l0.1,0.1c0.1,0.2,0.2,0.4,0.3,0.6
			c0.2,0.4,0.4,0.8,0.6,1.1l0.1,0.1c0.1,0.2,0.2,0.4,0.3,0.5c0.2,0.4,0.5,0.8,0.7,1.2c0.1,0.2,0.2,0.3,0.3,0.4
			c0.1,0.1,0.1,0.2,0.2,0.3c5.4,8.4,13.7,14.4,23.3,17c0.1,0,0.1,0,0.2,0.1c0.2,0,0.3,0.1,0.5,0.1c0.5,0.1,0.9,0.2,1.4,0.3
			c0.2,0.1,0.5,0.1,0.7,0.1h0.1h0.1c0.3,0.1,0.7,0.1,1.1,0.2c0.3,0,0.6,0.1,0.9,0.1h0.1c0.4,0,0.7,0.1,1.1,0.1c0.3,0,0.7,0.1,1,0.1
			c0.4,0,0.7,0.1,1.1,0.1c0.3,0,0.6,0,0.9,0c0.4,0,0.8,0,1.2,0h0.3c0.2,0,0.4,0,0.6,0c0.4,0,0.8,0,1.3,0c0.3,0,0.5,0,0.7,0
			c0.5,0,0.9-0.1,1.4-0.1h0.1c0.2,0,0.3,0,0.5-0.1c0.5-0.1,1-0.1,1.5-0.2h0.1c0.1,0,0.3,0,0.4-0.1c0.5-0.1,1-0.2,1.6-0.3l0,0
			c0.1,0,0.3-0.1,0.4-0.1c0.5-0.1,1-0.2,1.6-0.4l0,0c0.1,0,0.3-0.1,0.4-0.1c0.5-0.1,1-0.3,1.5-0.4h0.1c0.1,0,0.3-0.1,0.4-0.1
			c0.4-0.1,0.9-0.3,1.3-0.5h0.1c0.2-0.1,0.4-0.1,0.5-0.2c0.4-0.2,0.8-0.3,1.2-0.5l0.1-0.1c0.2-0.1,0.3-0.1,0.5-0.2
			c0.1-0.1,0.3-0.1,0.4-0.2c0.2-0.1,0.5-0.2,0.7-0.3l0.1-0.1l0.1-0.1c0.2-0.1,0.4-0.2,0.6-0.3c0.4-0.2,0.8-0.4,1.2-0.6l0.1-0.1
			c0.2-0.1,0.3-0.2,0.5-0.3c0.4-0.2,0.8-0.5,1.2-0.7c0.2-0.1,0.3-0.2,0.4-0.3c0,0,0.1,0,0.1-0.1c1.6,1.8,3.2,3.5,4.8,5.1
			c3.3,3.3,10.2,8.7,18.2,8.7c1.6,0,3.1-0.2,4.5-0.6c4.1-1.1,7.4-4,9-7.9c1.2-2.7,1.4-5.7,0.8-8.5c2.4-1.6,4.2-3.9,5.3-6.7
			c1-2.7,1.1-5.7,0.4-8.5c2.3-1.7,4.1-4.1,5-7c1.3-4,0.7-8.4-1.7-11.9c-3.8-5.7-11-8.8-20.2-8.8c-0.8,0-1.5,0-2.3,0.1
			c-2.3,0.1-4.6,0.4-7,0.7c-0.1-0.2-0.1-0.5-0.2-0.7v-0.1c0-0.2-0.1-0.3-0.1-0.5c-0.1-0.4-0.3-0.9-0.5-1.3v-0.1
			c-0.1-0.2-0.1-0.4-0.2-0.6c-0.2-0.4-0.3-0.8-0.5-1.1l-0.1-0.1c-0.1-0.2-0.2-0.4-0.2-0.6c-0.1-0.1-0.1-0.3-0.2-0.4
			c-0.1-0.2-0.2-0.5-0.3-0.7l-0.1-0.1l-0.1-0.1c-0.1-0.2-0.2-0.4-0.3-0.6c-0.2-0.4-0.4-0.8-0.6-1.1l-0.1-0.1
			c-0.1-0.2-0.2-0.4-0.3-0.5c-0.2-0.4-0.5-0.8-0.7-1.2c-0.1-0.2-0.2-0.3-0.3-0.4c-0.1-0.1-0.1-0.2-0.2-0.3
			c-5.4-8.3-13.7-14.4-23.3-17c-0.1,0-0.2,0-0.2-0.1c-0.2-0.1-0.4-0.1-0.6-0.1l0,0c-0.5-0.1-0.9-0.2-1.4-0.3
			c-0.3-0.1-0.5-0.1-0.8-0.2h-0.2H304c-0.3-0.1-0.6-0.1-0.9-0.2c-0.3-0.1-0.6-0.1-1-0.1H302c-0.3,0-0.7-0.1-1-0.1s-0.7-0.1-1-0.1
			s-0.7-0.1-1-0.1s-0.7,0-1,0c-0.4,0-0.7,0-1.1,0h-0.3c-0.2,0-0.4,0-0.6,0c-0.4,0-0.8,0-1.2,0c-0.3,0-0.5,0-0.8,0
			c-0.4,0-0.9,0.1-1.3,0.1h-0.1c-0.2,0-0.4,0-0.5,0.1c-0.5,0.1-1,0.1-1.5,0.2h-0.1c-0.2,0-0.3,0-0.5,0.1c-0.5,0.1-1,0.2-1.5,0.3
			h-0.1c-0.1,0-0.3,0.1-0.4,0.1c-0.5,0.1-1,0.2-1.5,0.4h-0.1c-0.1,0-0.3,0.1-0.4,0.1c-0.5,0.1-0.9,0.3-1.4,0.4h-0.1
			c-0.2,0-0.3,0.1-0.5,0.2c-0.4,0.1-0.9,0.3-1.3,0.4h-0.1c-0.2,0.1-0.4,0.1-0.6,0.2c-0.4,0.1-0.7,0.3-1.1,0.5l-0.1,0.1
			c-0.2,0.1-0.4,0.2-0.6,0.2c-0.1,0.1-0.3,0.1-0.4,0.2c-0.2,0.1-0.5,0.2-0.7,0.3l-0.1,0.1l-0.1,0.1c-0.2,0.1-0.4,0.2-0.7,0.3
			c-0.4,0.2-0.7,0.4-1.1,0.6l-0.1,0.1c-0.2,0.1-0.4,0.2-0.5,0.3c-0.4,0.2-0.8,0.5-1.2,0.7c-0.2,0.1-0.3,0.2-0.4,0.3
			c0,0-0.1,0-0.1,0.1c-1.6-1.8-3.2-3.5-4.8-5.1C266.8,6.7,259.9,1.3,251.9,1.3L251.9,1.3z"/>
	</g>
	<g>
		<path class="st0" d="M98.3,237.4c-1,0-2.1-0.2-3-0.5c-7.5-2.7-9.9-12.1-10.6-16c-0.6-3.5-1-7.2-1.2-11.2c-0.9,0.1-1.8,0.1-2.7,0.1
			c-0.6,0-1.1,0-1.7,0c-0.1,0-0.2,0-0.2,0c-0.1,0-0.2,0-0.3,0c-0.4,0-0.9-0.1-1.3-0.1l-0.6-0.1c-0.4,0-0.8-0.1-1.2-0.2
			c-0.2,0-0.9-0.1-0.9-0.1c-0.2,0-0.4-0.1-0.6-0.1c-0.1,0-1-0.2-1-0.2c-0.4-0.1-0.7-0.2-1.1-0.3c-0.1,0-0.6-0.2-0.6-0.2
			c-0.4-0.1-0.8-0.2-1.2-0.3l-0.5-0.1c-0.4-0.1-0.9-0.3-1.3-0.4l-0.3-0.1c-0.5-0.2-1-0.4-1.4-0.6l-0.3-0.2c-0.4-0.2-0.8-0.4-1.3-0.6
			l-0.4-0.2c-0.4-0.2-0.8-0.4-1.2-0.6l-0.4-0.2c-0.4-0.2-0.7-0.4-1.1-0.6c-0.1-0.1-0.3-0.2-0.5-0.3c-0.4-0.2-0.7-0.5-1-0.7
			c-0.2-0.1-0.4-0.3-0.6-0.4c-0.3-0.2-0.6-0.4-0.8-0.6c-0.2-0.2-0.4-0.3-0.6-0.5c-0.2-0.2-0.5-0.4-0.7-0.6c-0.2-0.2-0.4-0.4-0.6-0.6
			c-0.2-0.2-0.5-0.4-0.7-0.6l-0.1-0.1c-0.2-0.2-0.4-0.3-0.5-0.5c-0.2-0.2-0.4-0.4-0.7-0.7l-0.2-0.2c-0.1-0.1-0.3-0.3-0.4-0.4
			c-0.3-0.3-0.6-0.7-0.9-1c-0.1-0.1-0.2-0.2-0.3-0.3c-5.6-6.8-8.5-15.4-8.1-24.2c0-0.1,0-0.1,0-0.2c0-0.1,0-0.2,0-0.3
			c0-0.5,0.1-0.9,0.1-1.3c0-0.2,0.1-0.6,0.1-0.6c0-0.4,0.1-0.8,0.1-1.1c0-0.2,0.2-0.9,0.2-0.9c0-0.2,0.1-0.4,0.1-0.6l0.2-1
			c0.1-0.3,0.2-0.7,0.2-1.1c0-0.2,0.2-0.6,0.2-0.6c0.1-0.4,0.2-0.8,0.3-1.1l0.2-0.5c0.1-0.4,0.3-0.8,0.4-1.2l0.2-0.4
			c0.2-0.4,0.3-0.9,0.5-1.3l0.1-0.3c0.2-0.5,0.4-0.9,0.6-1.3l0.1-0.2c-3.6-1.6-6.9-3.4-9.9-5.3c-3.4-2.1-11.2-7.9-10.9-15.8
			c0.2-4.8,4.1-8.6,8.9-8.6c0.8,0,1.5,0.1,2.3,0.3l1.5,0.4l0.3-2c0.3-2.5,1.7-4.8,3.8-6.2c1.5-1,3.2-1.5,5-1.5
			c0.8,0,1.5,0.1,2.3,0.3l2,0.5l0.2-1.6c0.6-4.4,4.3-7.8,8.8-7.8c1,0,2.1,0.2,3,0.5c7.4,2.7,9.9,12.1,10.6,16
			c0.6,3.5,1,7.2,1.2,11.2c0.9-0.1,1.8-0.1,2.7-0.1c0.6,0,1.1,0,1.7,0c0.1,0,0.2,0,0.2,0c0.1,0,0.2,0,0.3,0c0.5,0,0.9,0.1,1.3,0.1
			c0.2,0,0.6,0.1,0.6,0.1c0.4,0,0.7,0.1,1.1,0.1c0.2,0,0.7,0.1,0.7,0.1h0.2c0.2,0,0.4,0.1,0.6,0.1c0.1,0,1,0.2,1,0.2
			c0.4,0.1,0.7,0.2,1,0.2c0.2,0,0.6,0.2,0.6,0.2c0.4,0.1,0.7,0.2,1.1,0.3l0.5,0.2c0.4,0.1,0.8,0.3,1.2,0.4l0.4,0.2
			c0.4,0.2,0.8,0.3,1.3,0.5l0.4,0.2c0.4,0.2,0.8,0.4,1.2,0.6l0.4,0.2c0.4,0.2,0.8,0.4,1.2,0.6l0.5,0.3c0.4,0.2,0.7,0.4,1,0.6
			c0.2,0.1,0.4,0.2,0.6,0.4c0.3,0.2,0.6,0.4,0.9,0.6c0.2,0.1,0.4,0.3,0.6,0.4c0.3,0.2,0.5,0.4,0.8,0.6c0.2,0.2,0.4,0.3,0.7,0.5
			c0.2,0.2,0.5,0.4,0.7,0.6c0.2,0.2,0.5,0.4,0.7,0.6c0.2,0.2,0.4,0.4,0.6,0.5l0.1,0.1c0.2,0.2,0.4,0.4,0.6,0.5
			c0.2,0.2,0.4,0.4,0.6,0.6l0.2,0.2c0.2,0.2,0.3,0.3,0.5,0.5c0.3,0.3,0.5,0.6,0.8,0.9c0.1,0.2,0.2,0.3,0.3,0.4l0.1,0.1
			c5.6,6.8,8.4,15.3,8,24.1c0,0.1,0,0.1,0,0.2c0,0.1,0,0.2,0,0.4c0,0.4-0.1,0.9-0.1,1.3c0,0.1-0.1,0.6-0.1,0.6
			c0,0.4-0.1,0.8-0.1,1.1c0,0.2-0.1,0.4-0.1,0.6l-0.1,0.3c0,0.2-0.1,0.4-0.1,0.6c0,0.1-0.2,1-0.2,1c-0.1,0.4-0.2,0.7-0.2,1.1
			c0,0.2-0.2,0.6-0.2,0.6c-0.1,0.4-0.2,0.8-0.3,1.1l-0.2,0.5c-0.1,0.4-0.3,0.8-0.4,1.2l-0.1,0.4c-0.2,0.4-0.3,0.9-0.5,1.3l-0.2,0.4
			c-0.2,0.4-0.4,0.8-0.6,1.2l-0.1,0.2c3.6,1.6,6.9,3.4,9.9,5.3c3.4,2.1,11.2,7.9,10.9,15.8c-0.2,4.8-4.1,8.6-8.9,8.6l0,0
			c-0.8,0-1.5-0.1-2.3-0.3l-1.5-0.4l-0.3,2c-0.3,2.5-1.7,4.8-3.8,6.2c-1.5,1-3.2,1.5-5,1.5c-0.8,0-1.5-0.1-2.3-0.3l-2-0.5l-0.2,1.6
			C106.5,234.1,102.8,237.4,98.3,237.4z"/>
		<path class="st0" d="M63.3,116.4c0.4,0,0.9,0.1,1.3,0.2c4.3,1.6,6.6,7.7,7.4,12.2c0.7,3.9,1.1,8.1,1.1,12.3l0,0c0,0.2,0,0.3,0,0.5
			c0,0.7,0,1.5,0,2.2c0,0.4,0,0.7,0,1.1c2.5-0.6,5-1,7.6-1c0.5,0,1.1,0,1.6,0l0,0c0.1,0,0.2,0,0.3,0c0.4,0,0.7,0,1.1,0.1
			c0.2,0,0.4,0,0.6,0.1c0.3,0,0.6,0.1,1,0.1c0.2,0,0.4,0.1,0.7,0.1c0.2,0,0.4,0.1,0.7,0.1c0.1,0,0.1,0,0.2,0c0.2,0,0.4,0.1,0.6,0.1
			c0.3,0.1,0.6,0.1,0.9,0.2c0.2,0,0.4,0.1,0.5,0.1c0.3,0.1,0.6,0.2,1,0.3c0.1,0,0.3,0.1,0.4,0.1c0.4,0.1,0.7,0.2,1,0.4
			c0.1,0,0.2,0.1,0.4,0.1c0.4,0.1,0.7,0.3,1.1,0.4c0.1,0,0.2,0.1,0.3,0.2c0.4,0.2,0.7,0.3,1.1,0.5c0.1,0.1,0.2,0.1,0.4,0.2
			c0.3,0.2,0.7,0.3,1,0.5c0.1,0.1,0.3,0.2,0.4,0.2c0.3,0.2,0.6,0.3,0.9,0.5c0.2,0.1,0.3,0.2,0.5,0.3c0.3,0.2,0.5,0.3,0.8,0.5
			c0.2,0.1,0.4,0.3,0.5,0.4c0.2,0.2,0.5,0.3,0.7,0.5c0.2,0.1,0.4,0.3,0.6,0.4c0.2,0.2,0.4,0.3,0.6,0.5s0.4,0.3,0.6,0.5
			s0.4,0.3,0.6,0.5s0.4,0.4,0.6,0.5c0.2,0.2,0.4,0.4,0.6,0.6c0.2,0.2,0.3,0.3,0.5,0.5c0.2,0.3,0.5,0.5,0.7,0.8
			c0.1,0.1,0.2,0.2,0.3,0.3l0,0c4.7,5.7,7.4,13.2,6.9,21l0,0c0,0.1,0,0.2,0,0.3c0,0.4,0,0.7-0.1,1.1c0,0.2,0,0.4-0.1,0.5
			c0,0.3-0.1,0.6-0.1,1c0,0.2-0.1,0.4-0.1,0.6c0,0.2-0.1,0.4-0.1,0.7c0,0.1,0,0.1,0,0.2c0,0.2-0.1,0.4-0.1,0.6
			c-0.1,0.3-0.1,0.6-0.2,0.9c0,0.2-0.1,0.3-0.1,0.5c-0.1,0.3-0.2,0.7-0.3,1c0,0.1-0.1,0.3-0.1,0.4c-0.1,0.4-0.2,0.7-0.4,1.1
			c0,0.1-0.1,0.2-0.1,0.3c-0.1,0.4-0.3,0.7-0.4,1.1c0,0.1-0.1,0.2-0.1,0.3c-0.2,0.4-0.3,0.7-0.5,1.1c-0.1,0.1-0.1,0.2-0.2,0.3
			c-0.2,0.3-0.3,0.7-0.5,1c-0.1,0.1-0.2,0.3-0.2,0.4c-0.2,0.3-0.4,0.6-0.5,0.9c-0.1,0.2-0.2,0.3-0.3,0.5c-0.2,0.3-0.3,0.5-0.5,0.8
			c-0.1,0.2-0.2,0.3-0.4,0.5c-0.1,0.1-0.2,0.2-0.2,0.4c0.7,0.3,1.5,0.6,2.2,0.9c0.2,0.1,0.4,0.1,0.5,0.2c0.3,0.1,0.5,0.2,0.8,0.3
			l0,0c3.9,1.6,7.7,3.6,11,5.7c3.9,2.5,8.7,6.8,8.6,11.4c-0.1,2.1-1.8,3.7-3.9,3.7c-0.3,0-0.7,0-1-0.1l-3.2-0.8
			c-0.3-0.1-0.6-0.1-0.9-0.1c-1.7,0-3.3,1.3-3.5,3.1l-0.5,3.7c-0.1,1.2-0.8,2.1-1.7,2.7c-0.6,0.4-1.4,0.7-2.2,0.7
			c-0.3,0-0.7,0-1-0.1l-3.6-1c-0.3-0.1-0.6-0.1-0.9-0.1c-1.7,0-3.3,1.3-3.5,3.1l-0.4,3.3c-0.3,2-2,3.4-3.8,3.4
			c-0.4,0-0.9-0.1-1.3-0.2c-4.3-1.6-6.6-7.7-7.4-12.2c-0.7-3.9-1.1-8.1-1.1-12.3l0,0c0-0.2,0-0.3,0-0.5c0-0.7,0-1.5,0-2.2
			c0-0.4,0-0.7,0-1.1c-2.5,0.6-5,1-7.6,1c-0.5,0-1.1,0-1.6,0l0,0c-0.1,0-0.2,0-0.3,0c-0.4,0-0.7,0-1.1-0.1c-0.2,0-0.3,0-0.5-0.1
			c-0.3,0-0.7-0.1-1-0.1c-0.2,0-0.4-0.1-0.6-0.1s-0.5-0.1-0.7-0.1c-0.1,0-0.2,0-0.2-0.1c-0.2,0-0.4-0.1-0.6-0.1
			c-0.3-0.1-0.6-0.1-0.9-0.2c-0.2,0-0.3-0.1-0.5-0.1c-0.3-0.1-0.7-0.2-1-0.3c-0.1,0-0.3-0.1-0.4-0.1c-0.4-0.1-0.7-0.2-1.1-0.4
			c-0.1,0-0.2-0.1-0.3-0.1c-0.4-0.1-0.8-0.3-1.1-0.5c-0.1,0-0.2-0.1-0.3-0.1c-0.4-0.2-0.7-0.3-1.1-0.5c-0.1-0.1-0.2-0.1-0.3-0.2
			c-0.3-0.2-0.7-0.4-1-0.5c-0.1-0.1-0.3-0.1-0.4-0.2c-0.3-0.2-0.6-0.4-0.9-0.5c-0.2-0.1-0.3-0.2-0.5-0.3c-0.3-0.2-0.5-0.4-0.8-0.5
			c-0.2-0.1-0.3-0.2-0.5-0.4s-0.5-0.3-0.7-0.5c-0.2-0.1-0.4-0.3-0.5-0.4c-0.2-0.2-0.4-0.3-0.6-0.5c-0.2-0.2-0.4-0.3-0.6-0.5
			c-0.2-0.2-0.4-0.4-0.6-0.5c-0.2-0.2-0.4-0.3-0.5-0.5c-0.2-0.2-0.4-0.4-0.6-0.6c-0.2-0.2-0.3-0.3-0.5-0.5c-0.3-0.3-0.5-0.6-0.8-0.9
			c-0.1-0.1-0.1-0.2-0.2-0.2l0,0c-4.7-5.7-7.4-13.2-6.9-21l0,0c0-0.1,0-0.2,0-0.3c0-0.4,0-0.7,0.1-1.1c0-0.2,0-0.4,0.1-0.5
			c0-0.3,0.1-0.6,0.1-1c0-0.2,0.1-0.4,0.1-0.6c0-0.2,0.1-0.4,0.1-0.7c0-0.1,0-0.1,0-0.2c0-0.2,0.1-0.4,0.1-0.6
			c0.1-0.3,0.1-0.6,0.2-0.9c0-0.2,0.1-0.4,0.1-0.5c0.1-0.3,0.2-0.7,0.3-1c0-0.1,0.1-0.3,0.1-0.4c0.1-0.4,0.2-0.7,0.4-1.1
			c0-0.1,0.1-0.2,0.1-0.3c0.1-0.4,0.3-0.7,0.4-1.1c0-0.1,0.1-0.2,0.1-0.3c0.2-0.4,0.3-0.7,0.5-1.1c0.1-0.1,0.1-0.2,0.2-0.4
			c0.2-0.3,0.3-0.7,0.5-1c0.1-0.1,0.2-0.3,0.2-0.4c0.2-0.3,0.3-0.6,0.5-0.9c0.1-0.2,0.2-0.3,0.3-0.5c0.2-0.3,0.3-0.5,0.5-0.8
			c0.1-0.2,0.2-0.4,0.4-0.5c0.1-0.1,0.2-0.2,0.2-0.3c-0.7-0.3-1.5-0.6-2.2-0.9c-0.2-0.1-0.4-0.1-0.5-0.2c-0.3-0.1-0.5-0.2-0.8-0.3
			l0,0c-3.9-1.6-7.7-3.6-11-5.7c-3.9-2.5-8.7-6.8-8.6-11.4c0.1-2.1,1.8-3.7,3.9-3.7c0.3,0,0.7,0,1,0.1l3.2,0.8
			c0.3,0.1,0.6,0.1,0.9,0.1c1.7,0,3.3-1.3,3.5-3.1l0.5-3.7c0.1-1.2,0.8-2.1,1.7-2.7c0.6-0.4,1.4-0.7,2.2-0.7c0.3,0,0.7,0,1,0.1
			l3.6,1c0.3,0.1,0.6,0.1,0.9,0.1c1.7,0,3.3-1.3,3.5-3.1l0.4-3.3C59.7,117.8,61.4,116.4,63.3,116.4 M63.3,106.4
			c-5.7,0-10.7,3.5-12.8,8.5c-0.1,0-0.3,0-0.4,0c-2.8,0-5.4,0.8-7.7,2.4c-2.4,1.6-4.3,4-5.3,6.7c-7.4,0.1-13.5,5.9-13.7,13.4
			c-0.3,7.4,4.6,14.8,13.2,20.2c1.9,1.2,4,2.4,6.1,3.5c-0.1,0.2-0.2,0.5-0.2,0.7v0.1c-0.1,0.2-0.1,0.3-0.2,0.5
			c-0.1,0.4-0.3,0.9-0.4,1.3v0.1c-0.1,0.2-0.1,0.4-0.2,0.6c-0.1,0.4-0.2,0.8-0.3,1.2v0.1c0,0.2-0.1,0.4-0.1,0.6
			c0,0.1-0.1,0.3-0.1,0.4c0,0.3-0.1,0.5-0.1,0.8v0.1v0.1c0,0.2-0.1,0.5-0.1,0.7c-0.1,0.4-0.1,0.9-0.2,1.3v0.1c0,0.2,0,0.4-0.1,0.6
			c0,0.5-0.1,0.9-0.1,1.4c0,0.2,0,0.3,0,0.5c0,0.1,0,0.2,0,0.3c-0.5,9.9,2.8,19.7,9.1,27.4c0,0.1,0.1,0.1,0.1,0.2
			c0.1,0.1,0.2,0.3,0.3,0.4c0.3,0.4,0.6,0.7,1,1.1c0.2,0.2,0.3,0.4,0.5,0.5l0.1,0.1l0,0c0.2,0.3,0.5,0.5,0.8,0.8
			c0.2,0.2,0.4,0.4,0.6,0.6l0.1,0.1c0.3,0.2,0.5,0.5,0.8,0.7c0.2,0.2,0.5,0.4,0.7,0.6c0.3,0.2,0.5,0.5,0.8,0.7
			c0.2,0.2,0.5,0.4,0.7,0.6c0.3,0.2,0.6,0.5,0.9,0.7c0.2,0.2,0.5,0.3,0.7,0.5c0.3,0.2,0.7,0.5,1.1,0.7c0.2,0.1,0.4,0.3,0.6,0.4
			c0.4,0.2,0.8,0.5,1.2,0.7h0.1c0.1,0.1,0.3,0.2,0.4,0.3c0.4,0.2,0.9,0.5,1.3,0.7h0.1c0.1,0.1,0.2,0.1,0.4,0.2
			c0.5,0.2,1,0.5,1.5,0.7h0.1c0.1,0.1,0.2,0.1,0.3,0.2c0.5,0.2,1,0.4,1.5,0.6l0,0c0.1,0,0.2,0.1,0.4,0.1c0.5,0.2,1,0.3,1.5,0.5h0.1
			c0.1,0,0.3,0.1,0.4,0.1c0.4,0.1,0.9,0.3,1.3,0.4h0.1c0.2,0.1,0.4,0.1,0.6,0.1c0.4,0.1,0.8,0.2,1.2,0.3h0.1c0.2,0,0.4,0.1,0.5,0.1
			s0.3,0.1,0.4,0.1c0.3,0.1,0.5,0.1,0.8,0.1h0.1H74c0.2,0,0.4,0.1,0.7,0.1c0.4,0.1,0.9,0.1,1.3,0.2h0.1c0.2,0,0.4,0,0.6,0.1
			c0.5,0,0.9,0.1,1.4,0.1c0.2,0,0.3,0,0.5,0h0.1c0.2,2.4,0.5,4.7,0.9,7c1.8,10.1,6.8,17.3,13.8,19.8c1.5,0.6,3.1,0.8,4.8,0.8
			c5.7,0,10.7-3.5,12.8-8.5c0.1,0,0.3,0,0.4,0c2.8,0,5.4-0.8,7.7-2.4c2.4-1.6,4.3-4,5.3-6.7c7.4-0.1,13.5-5.9,13.7-13.4
			c0.3-7.4-4.6-14.8-13.2-20.2c-1.9-1.2-4-2.4-6.1-3.5c0.1-0.2,0.2-0.5,0.2-0.7v-0.1c0.1-0.2,0.1-0.3,0.2-0.5
			c0.1-0.4,0.3-0.9,0.4-1.3v-0.1c0.1-0.2,0.1-0.4,0.2-0.6c0.1-0.4,0.2-0.8,0.3-1.2v-0.1c0-0.2,0.1-0.4,0.1-0.6
			c0-0.1,0.1-0.3,0.1-0.4c0.1-0.3,0.1-0.5,0.1-0.8v-0.1v-0.1c0-0.2,0.1-0.5,0.1-0.7c0.1-0.4,0.1-0.9,0.2-1.3v-0.1
			c0-0.2,0-0.4,0.1-0.6c0-0.5,0.1-0.9,0.1-1.4c0-0.2,0-0.3,0-0.5c0-0.1,0-0.2,0-0.3c0.5-9.9-2.8-19.6-9.1-27.4
			c0-0.1-0.1-0.1-0.1-0.2c-0.1-0.2-0.3-0.3-0.4-0.5l0,0c-0.3-0.4-0.6-0.7-0.9-1.1c-0.2-0.2-0.4-0.4-0.6-0.6l-0.1-0.1l-0.1-0.1
			c-0.2-0.2-0.4-0.5-0.7-0.7c-0.2-0.2-0.5-0.4-0.7-0.7l-0.1-0.1c-0.2-0.2-0.5-0.5-0.7-0.7c-0.3-0.2-0.5-0.5-0.8-0.7
			s-0.5-0.4-0.8-0.7c-0.3-0.2-0.5-0.4-0.8-0.6c-0.3-0.2-0.6-0.4-0.9-0.7c-0.2-0.2-0.5-0.3-0.7-0.5c-0.3-0.2-0.7-0.5-1-0.7
			c-0.2-0.1-0.4-0.3-0.7-0.4c-0.4-0.2-0.8-0.5-1.2-0.7l-0.1-0.1c-0.2-0.1-0.3-0.2-0.5-0.3c-0.4-0.2-0.9-0.5-1.3-0.7h-0.1
			c-0.1-0.1-0.3-0.1-0.4-0.2c-0.5-0.2-0.9-0.4-1.4-0.7h-0.1c-0.1-0.1-0.3-0.1-0.4-0.2c-0.5-0.2-1-0.4-1.4-0.6h-0.1
			c-0.1-0.1-0.3-0.1-0.4-0.2c-0.5-0.2-0.9-0.3-1.4-0.5h-0.1c-0.2-0.1-0.3-0.1-0.5-0.2c-0.4-0.1-0.9-0.3-1.3-0.4h-0.1
			c-0.2-0.1-0.4-0.1-0.6-0.2c-0.4-0.1-0.8-0.2-1.2-0.3h-0.2c-0.2,0-0.4-0.1-0.6-0.1c-0.1,0-0.3-0.1-0.4-0.1c-0.2,0-0.5-0.1-0.7-0.1
			h-0.1H87c-0.2,0-0.5-0.1-0.7-0.1c-0.4-0.1-0.8-0.1-1.3-0.2h-0.1c-0.2,0-0.4,0-0.6-0.1c-0.4,0-0.9-0.1-1.3-0.1c-0.2,0-0.4,0-0.5,0
			h-0.1c-0.2-2.4-0.5-4.7-0.9-7C80,117,75,109.8,68,107.3C66.5,106.7,64.9,106.4,63.3,106.4L63.3,106.4z"/>
	</g>
	<g>
		<path class="st0" d="M201.5,215.8c-8.6,0-16.8-3.1-23.2-8.7c-0.1,0-0.1-0.1-0.2-0.1c-0.1-0.1-0.2-0.2-0.3-0.2
			c-0.3-0.3-0.6-0.6-1-0.9c-0.1-0.1-0.5-0.5-0.5-0.5c-0.3-0.3-0.5-0.5-0.8-0.8c-0.1-0.1-0.3-0.3-0.4-0.5l-0.2-0.2
			c-0.1-0.1-0.3-0.3-0.4-0.5l-0.6-0.8c-0.2-0.3-0.5-0.6-0.7-0.9c-0.1-0.1-0.4-0.5-0.4-0.5c-0.2-0.3-0.5-0.6-0.7-1L172,200
			c-0.2-0.4-0.5-0.7-0.7-1.1l-0.2-0.4c-0.2-0.4-0.5-0.8-0.7-1.2l-0.2-0.3c-0.3-0.5-0.5-0.9-0.7-1.3l-0.1-0.2
			c-3.4,1.8-6.9,3.3-10.3,4.5c-2.3,0.8-5.9,1.8-9.7,1.8c-3.9,0-7.1-1-9.5-3.1c-2.1-1.8-3.2-4.3-3.1-7s1.4-5.2,3.5-6.8l1.3-1
			l-1.4-1.4c-1.8-1.8-2.7-4.3-2.5-6.9c0.2-2.5,1.5-4.9,3.5-6.4l1.6-1.2l-1.1-1.1c-1.9-1.9-2.8-4.6-2.5-7.3s1.8-5.1,4.2-6.5
			c2-1.2,4.3-1.8,7-1.8c4.9,0,9.7,2.2,12.2,3.5c3.1,1.7,6.4,3.7,9.5,6c0.8-1.2,1.7-2.3,2.6-3.4c0-0.1,0.1-0.1,0.1-0.2
			c0.1-0.1,0.2-0.2,0.2-0.3c0.3-0.3,0.6-0.6,0.9-0.9c0.1-0.1,0.5-0.5,0.5-0.5c0.3-0.3,0.5-0.5,0.8-0.8c0.2-0.1,0.3-0.3,0.5-0.4
			l0.2-0.2c0.1-0.1,0.3-0.3,0.4-0.4c0.1-0.1,0.8-0.6,0.8-0.6c0.3-0.3,0.6-0.5,0.8-0.7c0.1-0.1,0.5-0.4,0.5-0.4
			c0.3-0.2,0.6-0.5,1-0.7l0.4-0.3c0.4-0.2,0.7-0.5,1.1-0.7l0.4-0.2c0.4-0.2,0.8-0.5,1.2-0.7l0.4-0.2c0.4-0.2,0.8-0.4,1.2-0.6
			l0.4-0.2c0.4-0.2,0.8-0.4,1.2-0.5l0.5-0.2c0.4-0.1,0.7-0.3,1.1-0.4c0.2-0.1,0.4-0.1,0.6-0.2c0.4-0.1,0.7-0.2,1.1-0.3
			c0.2-0.1,0.5-0.1,0.7-0.2c0.3-0.1,0.6-0.2,0.9-0.3c0.3-0.1,0.6-0.1,0.8-0.2c0.3-0.1,0.6-0.1,0.9-0.2c0.3-0.1,0.6-0.1,0.9-0.2
			c0.3,0,0.6-0.1,0.9-0.1h0.1c0.3,0,0.5-0.1,0.8-0.1s0.5-0.1,0.8-0.1h0.3c0.2,0,0.5,0,0.7-0.1c0.4,0,0.8,0,1.2-0.1
			c0.2,0,0.4,0,0.5,0c0.2,0,0.5,0,0.8,0c8.6,0,16.8,3.1,23.2,8.7c0.1,0,0.1,0.1,0.2,0.1c0.1,0.1,0.2,0.2,0.2,0.2
			c0.3,0.3,0.7,0.6,1,0.9c0.1,0.1,0.5,0.5,0.5,0.5c0.3,0.3,0.5,0.5,0.8,0.8c0.1,0.1,0.5,0.5,0.5,0.5l0.1,0.2
			c0.1,0.1,0.3,0.3,0.4,0.4c0.1,0.1,0.6,0.8,0.6,0.8c0.2,0.3,0.5,0.6,0.7,0.9c0.1,0.1,0.4,0.5,0.4,0.5c0.2,0.3,0.5,0.7,0.7,1
			l0.3,0.4c0.2,0.4,0.5,0.7,0.7,1.1l0.2,0.4c0.2,0.4,0.5,0.8,0.7,1.2c0,0,0.2,0.3,0.2,0.4c0.2,0.4,0.4,0.8,0.6,1.2l0.1,0.2
			c3.4-1.8,6.9-3.3,10.3-4.5c2.3-0.8,5.9-1.8,9.7-1.8c3.9,0,7.1,1,9.5,3.1c2.1,1.8,3.2,4.3,3.1,7s-1.4,5.2-3.5,6.8l-1.3,1l1.4,1.4
			c1.8,1.8,2.7,4.3,2.5,6.9c-0.2,2.6-1.5,4.9-3.5,6.4l-1.6,1.2l1.1,1.1c1.9,1.9,2.8,4.6,2.5,7.3s-1.8,5.1-4.2,6.5
			c-2,1.2-4.3,1.8-7,1.8l0,0c-4.9,0-9.7-2.2-12.2-3.5c-3.1-1.7-6.4-3.7-9.5-6c-0.8,1.2-1.7,2.3-2.6,3.4c0,0.1-0.1,0.1-0.1,0.2
			c-0.1,0.1-0.1,0.2-0.2,0.2c-0.3,0.3-0.6,0.7-0.9,1c-0.1,0.1-0.4,0.4-0.4,0.4c-0.3,0.3-0.5,0.5-0.8,0.8c-0.1,0.1-0.5,0.5-0.5,0.5
			L225,207c-0.1,0.1-0.3,0.3-0.4,0.4c-0.1,0.1-0.8,0.6-0.8,0.6c-0.3,0.2-0.6,0.5-0.9,0.7c-0.1,0.1-0.5,0.4-0.5,0.4
			c-0.3,0.2-0.7,0.5-1,0.7l-0.4,0.3c-0.4,0.2-0.7,0.5-1.1,0.7c0,0-0.3,0.2-0.4,0.2c-0.4,0.2-0.8,0.5-1.2,0.7l-0.3,0.1
			c-0.5,0.2-0.9,0.5-1.3,0.7c-0.1,0.1-0.3,0.1-0.4,0.2c-0.4,0.2-0.8,0.4-1.2,0.5l-0.4,0.2c-0.5,0.2-0.9,0.3-1.2,0.5
			c-0.2,0.1-0.4,0.1-0.6,0.2c-0.4,0.1-0.7,0.2-1.1,0.3c-0.2,0.1-0.5,0.1-0.7,0.2c-0.3,0.1-0.7,0.2-1,0.3c-0.2,0.1-0.5,0.1-0.8,0.2
			c-0.3,0.1-0.6,0.1-0.9,0.2c-0.3,0.1-0.6,0.1-0.8,0.2c-0.3,0.1-0.6,0.1-0.9,0.1c-0.3,0-0.6,0.1-0.8,0.1c-0.3,0-0.6,0.1-0.9,0.1
			h-0.2c-0.2,0-0.4,0-0.7,0.1c-0.4,0-0.9,0.1-1.3,0.1c-0.1,0-0.3,0-0.4,0C202,215.8,201.7,215.8,201.5,215.8z"/>
		<path class="st0" d="M201.4,150c7.2,0,14.4,2.6,20.1,7.6l0,0c0.1,0.1,0.2,0.1,0.2,0.2c0.3,0.2,0.5,0.5,0.8,0.7
			c0.1,0.1,0.3,0.3,0.4,0.4c0.2,0.2,0.5,0.5,0.7,0.7c0.1,0.2,0.3,0.3,0.4,0.5c0.2,0.2,0.3,0.3,0.5,0.5c0,0.1,0.1,0.1,0.1,0.2
			c0.1,0.2,0.3,0.3,0.4,0.5c0.2,0.2,0.4,0.5,0.6,0.7c0.1,0.1,0.2,0.3,0.3,0.4c0.2,0.3,0.4,0.6,0.6,0.8c0.1,0.1,0.2,0.2,0.2,0.4
			c0.2,0.3,0.4,0.6,0.6,1c0.1,0.1,0.1,0.2,0.2,0.3c0.2,0.3,0.4,0.7,0.6,1c0.1,0.1,0.1,0.2,0.2,0.3c0.2,0.4,0.4,0.7,0.5,1.1
			c0.1,0.1,0.1,0.2,0.2,0.4c0.2,0.3,0.3,0.7,0.5,1c0.1,0.1,0.1,0.3,0.2,0.4c0.1,0.3,0.3,0.6,0.4,1c0.1,0.2,0.1,0.3,0.2,0.5
			c0.1,0.3,0.2,0.6,0.3,0.9c0.1,0.2,0.1,0.4,0.2,0.6c0,0.1,0.1,0.3,0.1,0.4c0.1-0.1,0.2-0.1,0.3-0.2c0.3-0.2,0.7-0.4,1-0.6
			c0.2-0.1,0.4-0.2,0.5-0.3c0.4-0.2,0.7-0.4,1.1-0.6c0.1-0.1,0.2-0.1,0.3-0.2l0,0c3.7-2,7.5-3.8,11.3-5.1c2.3-0.8,5.3-1.5,8-1.5
			c2.4,0,4.6,0.5,6.3,1.9c1.9,1.6,1.8,4.6-0.2,6l-2.6,2c-1.7,1.3-1.9,3.8-0.4,5.3l2.6,2.7c0.8,0.8,1.2,1.9,1.1,3s-0.6,2.1-1.5,2.8
			l-3,2.2c-1.7,1.3-1.9,3.8-0.4,5.3l2.3,2.4c1.7,1.8,1.4,4.7-0.7,6c-1.3,0.8-2.8,1.1-4.4,1.1c-3.3,0-7-1.4-9.8-2.9
			c-3.5-1.9-7-4.2-10.4-6.8l0,0c-0.1-0.1-0.2-0.2-0.3-0.2c-0.3-0.3-0.6-0.5-1-0.8c-0.2-0.1-0.3-0.3-0.5-0.4
			c-0.3-0.3-0.6-0.5-0.9-0.8c-0.1-0.1-0.2-0.2-0.3-0.3c-1.2,2.8-2.9,5.5-5,7.9l0,0c-0.1,0.1-0.1,0.2-0.2,0.2
			c-0.2,0.3-0.5,0.5-0.8,0.8c-0.1,0.1-0.2,0.2-0.4,0.4s-0.5,0.5-0.7,0.7c-0.2,0.1-0.3,0.3-0.5,0.4c-0.2,0.2-0.3,0.3-0.5,0.5
			c-0.1,0.1-0.1,0.1-0.2,0.1c-0.2,0.1-0.3,0.3-0.5,0.4c-0.2,0.2-0.5,0.4-0.7,0.6c-0.1,0.1-0.3,0.2-0.4,0.3c-0.3,0.2-0.6,0.4-0.9,0.6
			c-0.1,0.1-0.2,0.2-0.3,0.2c-0.3,0.2-0.6,0.4-1,0.6c-0.1,0.1-0.2,0.1-0.3,0.2c-0.3,0.2-0.7,0.4-1,0.6c-0.1,0.1-0.2,0.1-0.3,0.2
			c-0.4,0.2-0.7,0.4-1.1,0.5c-0.1,0.1-0.2,0.1-0.3,0.2c-0.3,0.2-0.7,0.3-1,0.5c-0.1,0.1-0.3,0.1-0.4,0.2c-0.3,0.1-0.7,0.3-1,0.4
			c-0.2,0.1-0.3,0.1-0.5,0.2c-0.3,0.1-0.6,0.2-0.9,0.3c-0.2,0.1-0.4,0.1-0.6,0.2c-0.3,0.1-0.6,0.2-0.8,0.2c-0.2,0.1-0.5,0.1-0.7,0.2
			c-0.3,0.1-0.5,0.1-0.8,0.2c-0.2,0-0.5,0.1-0.7,0.1c-0.3,0-0.5,0.1-0.8,0.1c-0.2,0-0.5,0.1-0.7,0.1c-0.3,0-0.6,0.1-0.9,0.1
			c-0.2,0-0.4,0-0.7,0.1c-0.4,0-0.8,0-1.2,0.1c-0.1,0-0.2,0-0.3,0l0,0c-0.2,0-0.5,0-0.7,0c-7.2,0-14.4-2.6-20.1-7.6l0,0
			c-0.1-0.1-0.2-0.1-0.2-0.2c-0.3-0.2-0.5-0.5-0.8-0.7c-0.1-0.1-0.3-0.3-0.4-0.4c-0.2-0.2-0.5-0.5-0.7-0.7c-0.1-0.2-0.3-0.3-0.4-0.5
			c-0.2-0.2-0.3-0.3-0.5-0.5c0-0.1-0.1-0.1-0.1-0.2c-0.1-0.2-0.3-0.3-0.4-0.5c-0.2-0.2-0.4-0.5-0.6-0.7c-0.1-0.1-0.2-0.3-0.3-0.4
			c-0.2-0.3-0.4-0.6-0.6-0.8c-0.1-0.1-0.2-0.2-0.2-0.4c-0.2-0.3-0.4-0.6-0.6-0.9c-0.1-0.1-0.1-0.2-0.2-0.3c-0.2-0.3-0.4-0.7-0.6-1
			c-0.1-0.1-0.1-0.2-0.2-0.3c-0.2-0.3-0.4-0.7-0.5-1.1c-0.1-0.1-0.1-0.2-0.2-0.4c-0.2-0.3-0.3-0.7-0.5-1c-0.1-0.1-0.1-0.3-0.2-0.4
			c-0.1-0.3-0.3-0.6-0.4-1c-0.1-0.2-0.1-0.4-0.2-0.5c-0.1-0.3-0.2-0.6-0.3-0.9c-0.1-0.2-0.1-0.4-0.2-0.6c0-0.1-0.1-0.3-0.1-0.4
			c-0.1,0.1-0.2,0.1-0.3,0.2c-0.3,0.2-0.7,0.4-1,0.6c-0.2,0.1-0.4,0.2-0.5,0.3c-0.4,0.2-0.7,0.4-1.1,0.6c-0.1,0.1-0.2,0.1-0.3,0.2
			l0,0c-3.7,2-7.5,3.8-11.3,5.1c-2.3,0.8-5.3,1.5-8,1.5c-2.4,0-4.6-0.5-6.3-1.9c-1.9-1.6-1.8-4.6,0.2-6l2.6-2
			c1.7-1.3,1.9-3.8,0.4-5.3l-2.6-2.7c-0.8-0.8-1.2-1.9-1.1-3s0.6-2.1,1.5-2.8l3-2.2c1.7-1.3,1.9-3.8,0.4-5.3l-2.3-2.4
			c-1.7-1.8-1.4-4.7,0.7-6c1.3-0.8,2.8-1.1,4.4-1.1c3.3,0,7,1.4,9.8,2.9c3.5,1.9,7,4.2,10.4,6.8l0,0c0.1,0.1,0.2,0.2,0.3,0.2
			c0.3,0.3,0.6,0.5,1,0.8c0.2,0.1,0.3,0.3,0.5,0.4c0.3,0.3,0.6,0.5,0.9,0.8c0.1,0.1,0.2,0.2,0.3,0.3c1.2-2.8,2.9-5.5,5-7.9l0,0
			c0.1-0.1,0.2-0.2,0.2-0.3c0.2-0.3,0.5-0.5,0.7-0.8c0.1-0.1,0.3-0.3,0.4-0.4c0.2-0.2,0.5-0.4,0.7-0.7c0.2-0.2,0.3-0.3,0.5-0.4
			c0.2-0.1,0.3-0.3,0.5-0.4c0.1,0,0.1-0.1,0.2-0.1c0.2-0.1,0.3-0.3,0.5-0.4c0.2-0.2,0.5-0.4,0.7-0.6c0.1-0.1,0.3-0.2,0.5-0.3
			c0.3-0.2,0.5-0.4,0.8-0.6c0.1-0.1,0.3-0.2,0.4-0.3c0.3-0.2,0.6-0.4,0.9-0.6c0.1-0.1,0.2-0.1,0.3-0.2c0.3-0.2,0.7-0.4,1-0.6
			c0.1-0.1,0.2-0.1,0.3-0.2c0.3-0.2,0.7-0.4,1-0.5c0.1-0.1,0.3-0.1,0.4-0.2c0.3-0.2,0.7-0.3,1-0.4c0.2-0.1,0.3-0.1,0.5-0.2
			c0.3-0.1,0.6-0.2,1-0.4c0.2-0.1,0.4-0.1,0.5-0.2c0.3-0.1,0.6-0.2,0.9-0.3c0.2-0.1,0.4-0.1,0.6-0.2c0.3-0.1,0.5-0.1,0.8-0.2
			c0.2-0.1,0.5-0.1,0.7-0.2c0.3-0.1,0.5-0.1,0.8-0.2c0.3-0.1,0.5-0.1,0.8-0.1c0.2,0,0.5-0.1,0.7-0.1c0.3,0,0.5-0.1,0.8-0.1
			s0.5-0.1,0.8-0.1c0.2,0,0.5,0,0.7-0.1c0.3,0,0.7,0,1-0.1c0.1,0,0.3,0,0.4,0l0,0C201,150,201.2,150,201.4,150 M201.4,140L201.4,140
			c-0.2,0-0.4,0-0.7,0l0,0c-0.1,0-0.1,0-0.2,0c-0.2,0-0.4,0-0.6,0l0,0c-0.5,0-0.9,0-1.4,0.1c-0.3,0-0.5,0-0.8,0.1h-0.2h-0.1
			c-0.3,0-0.6,0.1-0.9,0.1c-0.3,0-0.6,0.1-0.9,0.1h-0.1c-0.3,0-0.7,0.1-1,0.2c-0.3,0.1-0.7,0.1-1,0.2c-0.3,0.1-0.7,0.1-1,0.2
			c-0.3,0.1-0.6,0.1-1,0.2c-0.4,0.1-0.7,0.2-1.1,0.3c-0.3,0.1-0.6,0.2-0.8,0.2c-0.4,0.1-0.8,0.2-1.2,0.4c-0.2,0.1-0.5,0.2-0.7,0.3
			c-0.4,0.2-0.8,0.3-1.3,0.5h-0.1c-0.2,0.1-0.3,0.1-0.5,0.2c-0.4,0.2-0.9,0.4-1.3,0.6h-0.1c-0.1,0.1-0.3,0.1-0.4,0.2
			c-0.5,0.2-0.9,0.5-1.4,0.7h-0.1c-0.1,0.1-0.2,0.1-0.4,0.2c-0.5,0.2-0.9,0.5-1.3,0.8h-0.1c-0.1,0.1-0.3,0.2-0.4,0.2
			c-0.4,0.3-0.8,0.5-1.2,0.8l-0.1,0.1c-0.1,0.1-0.3,0.2-0.4,0.3c-0.4,0.3-0.7,0.5-1.1,0.8l-0.1,0.1c-0.2,0.1-0.3,0.2-0.5,0.4
			c-0.3,0.2-0.6,0.5-0.9,0.7l-0.1,0.1c-0.2,0.1-0.3,0.3-0.5,0.4c-0.1,0.1-0.2,0.2-0.3,0.3c-0.2,0.2-0.4,0.3-0.6,0.5l-0.1,0.1
			l-0.1,0.1c-0.2,0.2-0.4,0.3-0.6,0.5c-0.3,0.3-0.6,0.6-0.9,0.9l-0.1,0.1c-0.1,0.1-0.3,0.3-0.4,0.4c-0.3,0.3-0.6,0.7-0.9,1
			c-0.1,0.1-0.2,0.3-0.4,0.4l-0.1,0.1c-2-1.3-4-2.5-6.1-3.6c-2.8-1.5-8.5-4.1-14.5-4.1c-3.6,0-6.8,0.9-9.6,2.6
			c-3.6,2.2-6,5.9-6.5,10.1c-0.4,3,0.2,5.9,1.6,8.4c-1.9,2.2-3,5-3.2,7.9s0.5,5.8,2,8.3c-1.8,2.3-2.8,5.1-2.9,8.1
			c-0.1,4.2,1.7,8.2,4.9,11c2.3,1.9,6.4,4.3,12.7,4.3c4.5,0,8.7-1.1,11.3-2.1c2.2-0.8,4.4-1.6,6.5-2.6c0.1,0.2,0.3,0.4,0.4,0.6v0.1
			c0.1,0.1,0.2,0.3,0.3,0.4c0.3,0.4,0.5,0.8,0.8,1.1l0.1,0.1c0.1,0.2,0.2,0.3,0.4,0.5c0.3,0.3,0.5,0.7,0.8,1l0.1,0.1
			c0.1,0.2,0.3,0.3,0.4,0.5c0.1,0.1,0.2,0.2,0.3,0.3c0.2,0.2,0.3,0.4,0.5,0.6l0.1,0.1l0.1,0.1c0.2,0.2,0.3,0.4,0.5,0.5
			c0.3,0.3,0.6,0.6,0.9,0.9l0.1,0.1c0.1,0.1,0.3,0.3,0.4,0.4c0.3,0.3,0.7,0.6,1,0.9c0.1,0.1,0.3,0.2,0.4,0.3
			c0.1,0.1,0.2,0.1,0.2,0.2c7.3,6.4,16.7,9.8,26.4,9.8c0.2,0,0.5,0,0.7,0c0.1,0,0.1,0,0.2,0c0.2,0,0.4,0,0.5,0c0.5,0,1,0,1.5-0.1
			c0.2,0,0.5,0,0.7-0.1h0.2h0.1c0.4,0,0.7-0.1,1.1-0.1c0.3,0,0.6-0.1,0.9-0.1h0.1c0.3-0.1,0.7-0.1,1-0.2c0.3-0.1,0.6-0.1,1-0.2
			c0.4-0.1,0.7-0.1,1.1-0.2c0.3-0.1,0.6-0.1,0.9-0.2c0.4-0.1,0.7-0.2,1.1-0.3c0.3-0.1,0.5-0.2,0.8-0.2c0.4-0.1,0.8-0.3,1.2-0.4
			c0.3-0.1,0.5-0.2,0.7-0.2c0.4-0.2,0.9-0.3,1.3-0.5h0.1c0.2-0.1,0.3-0.1,0.5-0.2c0.5-0.2,0.9-0.4,1.4-0.6h0.1
			c0.1-0.1,0.3-0.1,0.4-0.2c0.5-0.2,1-0.5,1.4-0.7l0,0c0.1-0.1,0.2-0.1,0.3-0.2c0.5-0.3,0.9-0.5,1.4-0.8l0,0
			c0.1-0.1,0.2-0.1,0.3-0.2c0.4-0.3,0.9-0.5,1.3-0.8h0.1c0.1-0.1,0.3-0.2,0.4-0.3c0.4-0.3,0.8-0.5,1.1-0.8l0.1-0.1
			c0.2-0.1,0.3-0.2,0.5-0.3c0.3-0.3,0.7-0.5,1-0.8l0.1-0.1c0.1-0.1,0.3-0.2,0.4-0.4c0.1-0.1,0.2-0.2,0.3-0.3
			c0.2-0.2,0.4-0.3,0.6-0.5l0.1-0.1l0.1-0.1c0.2-0.2,0.3-0.3,0.5-0.5c0.3-0.3,0.6-0.6,0.9-0.9l0.1-0.1c0.1-0.1,0.3-0.3,0.4-0.4
			c0.3-0.3,0.6-0.7,0.9-1c0.1-0.1,0.2-0.2,0.3-0.4l0.1-0.1c2,1.3,4,2.5,6.1,3.6c2.8,1.5,8.5,4.1,14.5,4.1c3.6,0,6.8-0.9,9.6-2.6
			c3.6-2.2,6-5.9,6.5-10.1c0.4-3-0.2-5.9-1.6-8.4c1.9-2.2,3-5,3.2-7.9s-0.5-5.8-2-8.3c1.8-2.3,2.8-5.1,2.9-8.1
			c0.1-4.2-1.7-8.2-4.9-11c-2.3-1.9-6.4-4.3-12.7-4.3c-4.5,0-8.7,1.1-11.3,2.1c-2.2,0.8-4.4,1.6-6.5,2.6c-0.1-0.2-0.3-0.4-0.4-0.6
			v-0.1c-0.1-0.1-0.2-0.3-0.3-0.4c-0.3-0.4-0.5-0.8-0.8-1.1l-0.1-0.1c-0.1-0.2-0.2-0.3-0.4-0.5c-0.2-0.3-0.5-0.6-0.8-1l-0.1-0.1
			c-0.1-0.2-0.3-0.3-0.4-0.5c-0.1-0.1-0.2-0.2-0.3-0.3c-0.2-0.2-0.3-0.4-0.5-0.6l-0.1-0.1l-0.1-0.1c-0.2-0.2-0.3-0.4-0.5-0.5
			c-0.3-0.3-0.6-0.6-0.9-0.9l-0.1-0.1c-0.1-0.1-0.3-0.3-0.4-0.4c-0.3-0.3-0.7-0.6-1-0.9c-0.1-0.1-0.3-0.2-0.4-0.3
			c-0.1-0.1-0.2-0.1-0.2-0.2C220.6,143.5,211.2,140,201.4,140L201.4,140z"/>
	</g>
	<g>
		<path class="st0" d="M270.7,260.6c-0.5,0-1.1,0-1.6-0.1c-2.7-0.4-5-1.9-6.4-4.3c-1.4-2.3-1.6-5.1-0.7-7.7l0.6-1.5l-2-0.5
			c-2.5-0.6-4.6-2.2-5.8-4.5s-1.4-4.9-0.5-7.3l0.7-1.9l-1.6-0.4c-2.6-0.6-4.8-2.4-6-4.8c-1.2-2.5-1.2-5.3,0-7.7
			c3.5-7.1,13.1-8.6,17-8.9c1.8-0.1,3.6-0.2,5.5-0.2s3.8,0.1,5.7,0.2c0-1.4,0.2-2.9,0.4-4.3c0-0.1,0-0.1,0-0.2c0-0.1,0-0.2,0.1-0.4
			c0.1-0.4,0.1-0.8,0.2-1.2c0-0.2,0.1-0.7,0.1-0.7c0.1-0.3,0.2-0.7,0.3-1.1c0-0.2,0.3-0.9,0.3-0.9c0.1-0.2,0.1-0.4,0.2-0.6
			c0-0.1,0.3-1,0.3-1c0.1-0.4,0.2-0.7,0.4-1c0.1-0.2,0.2-0.6,0.2-0.6c0.1-0.4,0.3-0.7,0.4-1.1l0.2-0.5c0.2-0.4,0.4-0.8,0.5-1.2
			l0.2-0.4c0.2-0.4,0.4-0.8,0.6-1.2l0.2-0.4c0.2-0.4,0.5-0.8,0.7-1.2l0.3-0.4c0.2-0.4,0.5-0.7,0.7-1.1l0.3-0.5
			c0.2-0.3,0.5-0.7,0.7-1c0.1-0.2,0.3-0.4,0.4-0.5c0.2-0.3,0.4-0.5,0.7-0.8c0.2-0.2,0.3-0.4,0.5-0.6c0.2-0.2,0.4-0.5,0.7-0.7
			c0.2-0.2,0.4-0.4,0.6-0.6c0.2-0.2,0.4-0.4,0.6-0.6c0.2-0.2,0.4-0.4,0.7-0.6c0.2-0.2,0.4-0.4,0.6-0.6c0.3-0.2,0.5-0.4,0.7-0.6
			c0.2-0.2,0.4-0.3,0.6-0.5l0.2-0.2c0.2-0.1,0.3-0.3,0.5-0.4c0.3-0.2,0.6-0.5,0.9-0.7l0.1-0.1c0.1-0.1,0.2-0.2,0.4-0.3l0.1-0.1
			c5.8-3.8,12.6-5.9,19.5-5.9c1.8,0,3.5,0.1,5.3,0.4c0.1,0,0.1,0,0.2,0s0.2,0,0.4,0.1c0.4,0.1,0.9,0.1,1.3,0.2
			c0.1,0,0.6,0.1,0.6,0.1c0.4,0.1,0.8,0.2,1.1,0.3c0.2,0,0.7,0.2,0.7,0.2h0.2c0.2,0.1,0.4,0.1,0.6,0.2c0.1,0,1,0.3,1,0.3
			c0.4,0.1,0.7,0.2,1,0.4c0.2,0.1,0.6,0.2,0.6,0.2c0.4,0.1,0.7,0.3,1.1,0.4l0.5,0.2c0.4,0.2,0.8,0.4,1.2,0.6l0.4,0.2
			c0.4,0.2,0.8,0.4,1.2,0.6l0.3,0.2c0.4,0.2,0.8,0.5,1.2,0.7l0.2,0.1c1.9-3.4,4-6.5,6.2-9.3s8.1-9.3,15.3-9.3c0.5,0,1.1,0,1.6,0.1
			c2.7,0.4,5,1.9,6.4,4.3c1.4,2.3,1.6,5.1,0.7,7.7l-0.6,1.5l2,0.5c2.5,0.6,4.6,2.2,5.8,4.5c1.2,2.3,1.4,4.9,0.5,7.3l-0.7,1.9
			l1.6,0.4c2.6,0.6,4.8,2.4,6,4.8c1.2,2.5,1.2,5.3,0,7.7c-3.5,7.1-13.1,8.6-17,8.9c-1.8,0.1-3.6,0.2-5.5,0.2s-3.8-0.1-5.7-0.2
			c0,1.4-0.2,2.9-0.4,4.3c0,0.1,0,0.2,0,0.3s0,0.2-0.1,0.3c-0.1,0.4-0.1,0.8-0.2,1.3c0,0.2-0.1,0.6-0.1,0.6
			c-0.1,0.4-0.2,0.8-0.3,1.1c0,0.2-0.2,0.7-0.2,0.7l-0.1,0.2c-0.1,0.2-0.1,0.4-0.2,0.6c0,0.1-0.3,0.9-0.3,0.9
			c-0.1,0.4-0.2,0.7-0.4,1c-0.1,0.2-0.2,0.6-0.2,0.6c-0.1,0.4-0.3,0.8-0.5,1.1c-0.1,0.1-0.1,0.3-0.2,0.4c-0.2,0.5-0.4,0.9-0.6,1.3
			l-0.2,0.3c-0.2,0.5-0.5,0.9-0.7,1.3l-0.2,0.3c-0.3,0.5-0.5,0.9-0.8,1.3l-0.2,0.4c-0.2,0.4-0.5,0.8-0.7,1.1l-0.3,0.4
			c-0.3,0.4-0.5,0.7-0.8,1l-0.4,0.5c-0.2,0.3-0.5,0.6-0.7,0.9c-0.2,0.2-0.3,0.4-0.5,0.6c-0.2,0.2-0.4,0.5-0.7,0.7
			c-0.2,0.2-0.4,0.4-0.6,0.6c-0.2,0.2-0.5,0.5-0.7,0.7s-0.4,0.4-0.6,0.6c-0.2,0.2-0.5,0.4-0.7,0.6c-0.2,0.2-0.5,0.4-0.7,0.6
			c-0.2,0.2-0.5,0.4-0.7,0.6l-0.2,0.1c-0.2,0.1-0.3,0.2-0.5,0.4c-0.4,0.3-0.7,0.5-1.1,0.8c-0.1,0.1-0.2,0.2-0.3,0.2
			c0,0-0.1,0-0.1,0.1c-5.8,3.9-12.6,5.9-19.5,5.9c-1.8,0-3.5-0.1-5.3-0.4c-0.1,0-0.1,0-0.2,0s-0.3,0-0.4-0.1
			c-0.4-0.1-0.8-0.1-1.3-0.2c-0.1,0-0.6-0.1-0.6-0.1c-0.4-0.1-0.7-0.2-1.1-0.3c-0.2-0.1-0.7-0.2-0.7-0.2l-0.2-0.1
			c-0.2-0.1-0.4-0.1-0.6-0.2c-0.1,0-1-0.3-1-0.3c-0.3-0.1-0.6-0.2-0.9-0.3l-0.6-0.2c-0.4-0.1-0.7-0.3-1.1-0.4l-0.5-0.2
			c-0.4-0.2-0.8-0.4-1.2-0.6l-0.3-0.1c-0.5-0.3-0.9-0.5-1.3-0.7l-0.4-0.2c-0.4-0.2-0.8-0.5-1.2-0.7l-0.2-0.1c-1.9,3.4-4,6.5-6.2,9.3
			C283.8,254.1,277.9,260.6,270.7,260.6z"/>
		<path class="st0" d="M351.6,168.6c0.3,0,0.6,0,0.9,0.1c2.5,0.3,4,2.9,3.1,5.2l-1.2,3.1c-0.8,2,0.4,4.2,2.5,4.7l3.6,0.8
			c1.1,0.3,2,1,2.5,1.9s0.6,2.1,0.2,3.2L362,191c-0.8,2,0.4,4.2,2.5,4.7l3.2,0.7c2.4,0.6,3.7,3.2,2.6,5.5c-2,4.2-8.3,5.8-12.9,6.1
			c-1.7,0.1-3.4,0.2-5.1,0.2c-2.4,0-4.8-0.1-7.3-0.3l0,0c-0.3,0-0.6-0.1-0.8-0.1c-0.2,0-0.4,0-0.6-0.1c-0.8-0.1-1.6-0.2-2.4-0.3
			c0.5,3,0.5,6.2,0,9.3l0,0c0,0.1,0,0.2-0.1,0.3c-0.1,0.4-0.1,0.7-0.2,1.1c0,0.2-0.1,0.3-0.1,0.5c-0.1,0.3-0.1,0.6-0.2,1
			c-0.1,0.2-0.1,0.4-0.2,0.6c-0.1,0.2-0.1,0.4-0.2,0.7c0,0.1-0.1,0.1-0.1,0.2c-0.1,0.2-0.1,0.4-0.2,0.6c-0.1,0.3-0.2,0.6-0.3,0.9
			c-0.1,0.2-0.1,0.3-0.2,0.5c-0.1,0.3-0.3,0.7-0.4,1c-0.1,0.1-0.1,0.3-0.2,0.4c-0.2,0.4-0.3,0.7-0.5,1c-0.1,0.1-0.1,0.2-0.2,0.3
			c-0.2,0.4-0.4,0.7-0.6,1.1c-0.1,0.1-0.1,0.2-0.2,0.3c-0.2,0.3-0.4,0.7-0.6,1c-0.1,0.1-0.1,0.2-0.2,0.3c-0.2,0.3-0.4,0.6-0.6,1
			c-0.1,0.1-0.2,0.2-0.3,0.4c-0.2,0.3-0.4,0.6-0.6,0.8c-0.1,0.1-0.2,0.3-0.3,0.4c-0.2,0.2-0.4,0.5-0.6,0.7c-0.1,0.2-0.3,0.3-0.4,0.5
			c-0.2,0.2-0.4,0.4-0.6,0.6c-0.2,0.2-0.3,0.3-0.5,0.5s-0.4,0.4-0.6,0.6c-0.2,0.2-0.4,0.3-0.5,0.5c-0.2,0.2-0.4,0.4-0.6,0.5
			c-0.2,0.2-0.4,0.3-0.6,0.5s-0.4,0.4-0.7,0.5c-0.2,0.1-0.4,0.3-0.5,0.4c-0.3,0.2-0.6,0.5-1,0.7c-0.1,0.1-0.2,0.1-0.3,0.2l0,0
			c-4.9,3.3-10.8,5.1-16.9,5.1c-1.6,0-3.1-0.1-4.7-0.4l0,0c-0.1,0-0.2,0-0.3-0.1c-0.4-0.1-0.7-0.1-1.1-0.2c-0.2,0-0.4-0.1-0.5-0.1
			c-0.3-0.1-0.6-0.1-1-0.2c-0.2-0.1-0.4-0.1-0.6-0.2c-0.2-0.1-0.4-0.1-0.7-0.2c-0.1,0-0.1,0-0.2-0.1c-0.2-0.1-0.4-0.1-0.6-0.2
			c-0.3-0.1-0.6-0.2-0.9-0.3c-0.2-0.1-0.3-0.1-0.5-0.2c-0.3-0.1-0.6-0.3-1-0.4c-0.1-0.1-0.3-0.1-0.4-0.2c-0.3-0.2-0.7-0.3-1-0.5
			c-0.1-0.1-0.2-0.1-0.3-0.2c-0.4-0.2-0.7-0.4-1-0.6c-0.1-0.1-0.2-0.1-0.3-0.2c-0.3-0.2-0.7-0.4-1-0.6c-0.1-0.1-0.2-0.1-0.3-0.2
			c-0.3-0.2-0.6-0.4-0.9-0.6c-0.1-0.1-0.3-0.2-0.4-0.3c-0.3-0.2-0.6-0.4-0.8-0.6c-0.1-0.1-0.3-0.2-0.4-0.4c-0.2-0.2-0.5-0.4-0.7-0.6
			c-0.2-0.1-0.3-0.3-0.5-0.4c-0.1-0.1-0.2-0.2-0.3-0.3c-0.3,0.7-0.7,1.4-1.1,2.1c-0.1,0.2-0.2,0.3-0.3,0.5c-0.1,0.2-0.3,0.5-0.4,0.7
			l0,0c-2,3.7-4.3,7.3-6.8,10.4c-2.7,3.4-7,7.4-11.3,7.4c-0.3,0-0.6,0-0.9-0.1c-2.5-0.3-4-2.9-3.1-5.2l1.2-3.1
			c0.8-2-0.4-4.2-2.5-4.7l-3.6-0.8c-1.1-0.3-2-1-2.5-1.9s-0.6-2.1-0.2-3.2l1.3-3.5c0.8-2-0.4-4.2-2.5-4.7l-3.2-0.7
			c-2.4-0.6-3.7-3.2-2.6-5.5c2-4.2,8.3-5.8,12.9-6.1c1.7-0.1,3.4-0.2,5.1-0.2c2.4,0,4.8,0.1,7.3,0.3l0,0c0.3,0,0.6,0.1,0.8,0.1
			c0.2,0,0.4,0,0.6,0.1c0.8,0.1,1.6,0.2,2.4,0.3c-0.5-3-0.5-6.2,0-9.3l0,0c0-0.1,0-0.2,0.1-0.3c0.1-0.3,0.1-0.7,0.2-1
			c0-0.2,0.1-0.4,0.1-0.6c0.1-0.3,0.1-0.6,0.2-0.9c0.1-0.2,0.1-0.4,0.2-0.6c0.1-0.2,0.1-0.4,0.2-0.6c0-0.1,0-0.1,0.1-0.2
			c0.1-0.2,0.1-0.4,0.2-0.6c0.1-0.3,0.2-0.6,0.3-0.9c0.1-0.2,0.1-0.4,0.2-0.5c0.1-0.3,0.2-0.6,0.4-0.9c0.1-0.1,0.1-0.3,0.2-0.4
			c0.2-0.3,0.3-0.7,0.5-1c0.1-0.1,0.1-0.2,0.2-0.3c0.2-0.3,0.4-0.7,0.5-1c0.1-0.1,0.1-0.2,0.2-0.3c0.2-0.3,0.4-0.7,0.6-1
			c0.1-0.1,0.1-0.2,0.2-0.3c0.2-0.3,0.4-0.6,0.6-0.9c0.1-0.1,0.2-0.3,0.3-0.4c0.2-0.3,0.4-0.5,0.6-0.8c0.1-0.2,0.2-0.3,0.4-0.5
			c0.2-0.2,0.4-0.5,0.6-0.7c0.1-0.2,0.3-0.3,0.4-0.5c0.2-0.2,0.4-0.4,0.6-0.6c0.2-0.2,0.3-0.4,0.5-0.5c0.2-0.2,0.4-0.4,0.6-0.5
			c0.2-0.2,0.4-0.4,0.6-0.5c0.2-0.2,0.4-0.3,0.6-0.5s0.4-0.3,0.6-0.5s0.4-0.3,0.6-0.5c0.2-0.1,0.4-0.3,0.6-0.4
			c0.3-0.2,0.6-0.4,0.9-0.6c0.1-0.1,0.2-0.2,0.4-0.3l0,0c4.9-3.3,10.8-5.1,16.9-5.1c1.6,0,3.1,0.1,4.7,0.4l0,0c0.1,0,0.2,0,0.3,0.1
			c0.4,0.1,0.7,0.1,1.1,0.2c0.2,0,0.4,0.1,0.5,0.1c0.3,0.1,0.6,0.1,1,0.2c0.2,0.1,0.4,0.1,0.6,0.2c0.2,0.1,0.4,0.1,0.7,0.2
			c0.1,0,0.1,0,0.2,0.1c0.2,0.1,0.4,0.1,0.6,0.2c0.3,0.1,0.6,0.2,0.9,0.3c0.2,0.1,0.3,0.1,0.5,0.2c0.3,0.1,0.6,0.3,1,0.4
			c0.1,0.1,0.3,0.1,0.4,0.2c0.3,0.2,0.7,0.3,1,0.5c0.1,0.1,0.2,0.1,0.3,0.2c0.4,0.2,0.7,0.4,1.1,0.6c0.1,0.1,0.2,0.1,0.3,0.2
			c0.3,0.2,0.7,0.4,1,0.6c0.1,0.1,0.2,0.1,0.3,0.2c0.3,0.2,0.6,0.4,0.9,0.6c0.1,0.1,0.3,0.2,0.4,0.3c0.3,0.2,0.6,0.4,0.8,0.6
			c0.1,0.1,0.3,0.2,0.4,0.3c0.2,0.2,0.5,0.4,0.7,0.6c0.2,0.1,0.3,0.3,0.5,0.4c0.1,0.1,0.2,0.2,0.3,0.3c0.3-0.7,0.7-1.4,1.1-2.1
			c0.1-0.2,0.2-0.3,0.3-0.5c0.1-0.2,0.3-0.5,0.4-0.7l0,0c2-3.7,4.3-7.3,6.8-10.4C342.9,172.6,347.3,168.6,351.6,168.6 M351.6,158.6
			c-9,0-15.9,7-19.2,11.2c-1.4,1.8-2.8,3.7-4.1,5.7c-0.2-0.1-0.4-0.2-0.7-0.3h-0.1c-0.1-0.1-0.3-0.1-0.4-0.2
			c-0.4-0.2-0.8-0.4-1.3-0.5h-0.1c-0.2-0.1-0.4-0.1-0.6-0.2c-0.4-0.1-0.8-0.3-1.2-0.4h-0.1c-0.2-0.1-0.4-0.1-0.6-0.2
			c-0.1,0-0.3-0.1-0.4-0.1c-0.2-0.1-0.5-0.1-0.7-0.2H322h-0.1c-0.2-0.1-0.5-0.1-0.7-0.2c-0.4-0.1-0.8-0.2-1.3-0.3h-0.1
			c-0.2,0-0.4-0.1-0.6-0.1c-0.4-0.1-0.9-0.2-1.3-0.2c-0.2,0-0.3-0.1-0.5-0.1c-0.1,0-0.2,0-0.3,0c-2-0.3-4-0.4-5.9-0.4
			c-7.9,0-15.6,2.3-22.2,6.7c-0.1,0-0.1,0.1-0.2,0.1c-0.2,0.1-0.3,0.2-0.5,0.4l0,0c-0.4,0.3-0.8,0.5-1.1,0.8
			c-0.2,0.2-0.4,0.3-0.6,0.5l-0.1,0.1l-0.1,0.1c-0.3,0.2-0.5,0.4-0.7,0.6c-0.2,0.2-0.5,0.4-0.7,0.6l-0.1,0.1
			c-0.3,0.2-0.5,0.4-0.8,0.7c-0.3,0.2-0.5,0.5-0.8,0.7c-0.2,0.2-0.5,0.5-0.7,0.7s-0.5,0.5-0.7,0.7c-0.2,0.3-0.5,0.5-0.7,0.8
			c-0.2,0.2-0.4,0.4-0.6,0.7c-0.3,0.3-0.5,0.6-0.8,0.9c-0.2,0.2-0.3,0.4-0.5,0.6c-0.3,0.4-0.5,0.7-0.8,1.1l-0.1,0.1
			c-0.1,0.2-0.2,0.3-0.3,0.5c-0.3,0.4-0.5,0.8-0.8,1.2l-0.1,0.1c-0.1,0.1-0.2,0.3-0.2,0.4c-0.3,0.4-0.5,0.9-0.8,1.3v0.1
			c-0.1,0.1-0.1,0.2-0.2,0.4c-0.3,0.5-0.5,0.9-0.7,1.4v0.1c-0.1,0.1-0.1,0.3-0.2,0.4c-0.2,0.4-0.4,0.9-0.6,1.3v0.1
			c-0.1,0.2-0.1,0.3-0.2,0.5c-0.2,0.4-0.3,0.8-0.5,1.2v0.1c-0.1,0.2-0.2,0.4-0.2,0.6c-0.1,0.4-0.3,0.8-0.4,1.1v0.1
			c-0.1,0.2-0.1,0.4-0.2,0.6c0,0.1-0.1,0.3-0.1,0.4c-0.1,0.2-0.1,0.5-0.2,0.7v0.1v0.1c-0.1,0.2-0.1,0.5-0.2,0.7
			c-0.1,0.4-0.2,0.8-0.3,1.2v0.1c0,0.2-0.1,0.4-0.1,0.6c-0.1,0.4-0.2,0.9-0.2,1.3c0,0.2-0.1,0.4-0.1,0.5v0.1c-0.4,0-0.8,0-1.2,0
			c-2,0-4,0.1-5.9,0.2c-10.2,0.8-17.9,5-21.2,11.7c-1.9,3.8-1.9,8.2,0,12c1.3,2.7,3.3,4.8,5.9,6.2c-0.4,2.9,0.1,5.8,1.5,8.4
			c1.4,2.6,3.5,4.6,6.1,5.9c-0.3,2.9,0.4,5.8,1.9,8.4c2.2,3.6,5.8,6.1,10,6.7c0.7,0.1,1.5,0.2,2.3,0.2c9,0,15.9-7,19.2-11.2
			c1.4-1.8,2.8-3.7,4.1-5.7c0.2,0.1,0.4,0.2,0.7,0.3h0.1c0.1,0.1,0.3,0.1,0.5,0.2c0.4,0.2,0.8,0.3,1.3,0.5h0.1
			c0.2,0.1,0.4,0.1,0.6,0.2c0.4,0.1,0.8,0.3,1.2,0.4h0.1c0.2,0.1,0.4,0.1,0.6,0.2c0.1,0,0.3,0.1,0.4,0.1c0.2,0.1,0.5,0.1,0.7,0.2
			h0.1h0.1c0.2,0.1,0.5,0.1,0.7,0.2c0.4,0.1,0.8,0.2,1.3,0.3h0.1c0.2,0,0.4,0.1,0.6,0.1c0.4,0.1,0.9,0.2,1.3,0.2
			c0.2,0,0.3,0.1,0.5,0.1c0.1,0,0.2,0,0.3,0c2,0.3,4,0.4,5.9,0.4c7.9,0,15.6-2.3,22.2-6.7c0.1,0,0.1-0.1,0.2-0.1
			c0.1-0.1,0.3-0.2,0.4-0.3c0.4-0.3,0.8-0.6,1.2-0.8c0.2-0.1,0.4-0.3,0.6-0.4l0.1-0.1h0.1c0.3-0.2,0.6-0.4,0.8-0.7
			c0.2-0.2,0.4-0.4,0.7-0.6l0.1-0.1c0.3-0.2,0.5-0.5,0.8-0.7c0.2-0.2,0.5-0.4,0.7-0.7c0.3-0.2,0.5-0.5,0.8-0.8
			c0.2-0.2,0.4-0.4,0.6-0.7c0.3-0.3,0.5-0.6,0.8-0.9c0.2-0.2,0.4-0.4,0.6-0.6c0.3-0.3,0.5-0.6,0.8-1c0.2-0.2,0.3-0.4,0.5-0.6
			c0.3-0.4,0.6-0.7,0.8-1.1l0.1-0.1c0.1-0.1,0.2-0.3,0.3-0.4c0.3-0.4,0.6-0.8,0.8-1.3v-0.1c0.1-0.1,0.2-0.2,0.2-0.4
			c0.3-0.4,0.6-0.9,0.8-1.4l0,0c0.1-0.1,0.1-0.2,0.2-0.3c0.3-0.5,0.5-0.9,0.7-1.4l0,0c0.1-0.1,0.1-0.2,0.2-0.4
			c0.2-0.5,0.4-0.9,0.6-1.4v-0.1c0.1-0.1,0.1-0.3,0.2-0.4c0.2-0.4,0.4-0.9,0.5-1.3v-0.1c0.1-0.2,0.1-0.4,0.2-0.5
			c0.1-0.4,0.3-0.8,0.4-1.2v-0.1c0.1-0.2,0.1-0.4,0.2-0.5c0-0.1,0.1-0.3,0.1-0.4c0.1-0.3,0.1-0.5,0.2-0.8V223v-0.1
			c0.1-0.2,0.1-0.4,0.2-0.7c0.1-0.4,0.2-0.9,0.3-1.3v-0.1c0-0.2,0.1-0.4,0.1-0.6c0.1-0.5,0.2-0.9,0.3-1.4c0-0.2,0.1-0.3,0.1-0.5
			v-0.1c0.4,0,0.8,0,1.2,0c2,0,4-0.1,5.9-0.2c10.2-0.8,17.9-5,21.2-11.7c1.9-3.8,1.9-8.2,0-12c-1.3-2.7-3.3-4.8-5.9-6.2
			c0.4-2.9-0.1-5.8-1.5-8.4c-1.4-2.6-3.5-4.6-6.1-5.9c0.3-2.9-0.4-5.8-1.9-8.4c-2.2-3.6-5.8-6.1-10-6.7
			C353.1,158.6,352.3,158.6,351.6,158.6L351.6,158.6z"/>
	</g>
	<g>
		<path class="st0" d="M312.9,173.5c-7.9,0-13.4-7.9-15.5-11.3c-1.8-3.1-3.5-6.4-5-10c-1.3,0.6-2.7,1.1-4.1,1.6
			c-0.1,0-0.1,0-0.2,0.1c-0.1,0-0.2,0.1-0.3,0.1c-0.4,0.1-0.8,0.3-1.3,0.4l-0.6,0.1c-0.4,0.1-0.8,0.2-1.1,0.3
			c-0.2,0-0.9,0.2-0.9,0.2c-0.2,0-0.4,0.1-0.6,0.1l-1,0.1c-0.4,0.1-0.7,0.1-1.1,0.1l-0.6,0.1c-0.4,0-0.8,0.1-1.2,0.1h-0.5
			c-0.4,0-0.9,0-1.3,0h-0.4c-0.5,0-0.9,0-1.4,0h-0.3c-0.6,0-1-0.1-1.5-0.1h-0.4c-0.5,0-0.9-0.1-1.3-0.2l-0.5-0.1
			c-0.4-0.1-0.8-0.1-1.2-0.2c-0.2,0-0.4-0.1-0.6-0.1c-0.4-0.1-0.7-0.2-1.1-0.3c-0.2-0.1-0.5-0.1-0.7-0.2c-0.3-0.1-0.6-0.2-1-0.3
			c-0.3-0.1-0.5-0.2-0.8-0.2c-0.3-0.1-0.6-0.2-0.9-0.3s-0.5-0.2-0.8-0.3s-0.6-0.2-0.9-0.4h-0.1c-0.2-0.1-0.5-0.2-0.7-0.3
			c-0.3-0.1-0.5-0.2-0.8-0.4l-0.3-0.1c-0.2-0.1-0.4-0.2-0.5-0.3c-0.4-0.2-0.8-0.4-1.2-0.6c-0.1-0.1-0.2-0.1-0.3-0.2l-0.1-0.1
			c-7.6-4.4-13.3-11.4-16-19.7c0-0.1,0-0.1-0.1-0.2c0-0.1-0.1-0.2-0.1-0.3c-0.1-0.4-0.2-0.8-0.4-1.2l-0.2-0.6
			c-0.1-0.4-0.2-0.8-0.3-1.1c0-0.2-0.2-0.9-0.2-0.9c0-0.2-0.1-0.4-0.1-0.6c0-0.1-0.1-1-0.1-1c0-0.4-0.1-0.7-0.1-1.1
			c0-0.2-0.1-0.6-0.1-0.6c0-0.4-0.1-0.8-0.1-1.2v-0.5c0-0.4,0-0.9,0-1.3v-0.3c0-0.5,0-1,0-1.5v-0.3c0-0.5,0.1-1,0.1-1.4v-0.2
			c-3.9-0.2-7.6-0.7-11.1-1.4c-3.9-0.8-13.2-3.5-15.8-11c-0.9-2.6-0.5-5.4,0.9-7.6c1.5-2.3,3.9-3.8,6.6-4l1.6-0.2l-0.5-2
			c-0.6-2.5-0.1-5.1,1.4-7.2s3.8-3.4,6.3-3.7l2-0.2l-0.4-1.6c-0.6-2.6,0-5.4,1.6-7.5s4.2-3.4,6.9-3.4h0.1c7.9,0,13.4,7.9,15.5,11.3
			c1.8,3.1,3.5,6.4,5,10c1.3-0.6,2.7-1.1,4.1-1.6c0.1,0,0.1,0,0.2-0.1c0.1,0,0.2-0.1,0.3-0.1c0.4-0.1,0.8-0.2,1.2-0.4
			c0.2,0,0.6-0.2,0.6-0.2c0.4-0.1,0.7-0.2,1.1-0.3c0.2,0,0.8-0.1,0.8-0.1h0.2c0.2,0,0.4-0.1,0.6-0.1l1-0.1c0.3,0,0.7-0.1,1-0.1
			c0.2,0,0.7-0.1,0.7-0.1c0.4,0,0.8-0.1,1.2-0.1h0.5c0.4,0,0.9,0,1.3,0h0.5c0.4,0,0.9,0,1.4,0h0.4c0.5,0,0.9,0.1,1.4,0.1l0.5,0.1
			c0.4,0,0.9,0.1,1.3,0.2l0.6,0.1c0.4,0.1,0.8,0.1,1.2,0.2c0.2,0,0.4,0.1,0.7,0.1c0.4,0.1,0.7,0.2,1.1,0.2c0.2,0.1,0.5,0.1,0.7,0.2
			c0.3,0.1,0.6,0.2,0.9,0.3c0.3,0.1,0.5,0.2,0.8,0.3c0.3,0.1,0.6,0.2,0.9,0.3c0.3,0.1,0.6,0.2,0.8,0.3c0.3,0.1,0.5,0.2,0.8,0.3
			c0.3,0.1,0.6,0.3,0.9,0.4s0.5,0.2,0.8,0.4l0.2,0.1c0.2,0.1,0.4,0.2,0.6,0.3c0.4,0.2,0.7,0.4,1.1,0.6c0.2,0.1,0.3,0.2,0.4,0.2
			l0.1,0.1c7.6,4.4,13.3,11.4,16,19.7c0,0.1,0.1,0.1,0.1,0.2s0.1,0.2,0.1,0.4c0.1,0.4,0.2,0.8,0.4,1.2c0,0.1,0.2,0.6,0.2,0.6
			c0.1,0.4,0.2,0.7,0.3,1.1c0,0.2,0.1,0.7,0.1,0.7v0.2c0,0.2,0.1,0.4,0.1,0.6c0,0.1,0.2,1.1,0.2,1.1c0,0.3,0.1,0.7,0.1,1
			c0,0.2,0.1,0.6,0.1,0.6c0,0.4,0.1,0.8,0.1,1.2v0.5c0,0.4,0,0.9,0,1.3v0.3c0,0.5,0,1,0,1.5v0.4c0,0.5-0.1,0.9-0.1,1.4v0.2
			c3.9,0.2,7.6,0.7,11.1,1.4c3.9,0.8,13.2,3.5,15.8,11c0.9,2.6,0.5,5.4-0.9,7.6c-1.5,2.3-3.9,3.8-6.6,4l-1.6,0.2l0.5,2
			c0.6,2.5,0.1,5.1-1.4,7.2c-1.5,2.1-3.8,3.4-6.3,3.7l-2,0.2l0.4,1.6c0.6,2.6,0,5.4-1.6,7.5c-1.7,2.1-4.2,3.4-6.9,3.4
			C313,173.5,312.9,173.5,312.9,173.5z"/>
		<path class="st0" d="M241.9,71.8c4.6,0,8.8,4.9,11.2,8.8c2,3.4,3.9,7.2,5.4,11.2l0,0c0.1,0.3,0.2,0.5,0.3,0.8
			c0.1,0.2,0.1,0.4,0.2,0.5c0.3,0.7,0.5,1.5,0.8,2.3c2.5-1.8,5.3-3.2,8.3-4.2l0,0c0.1,0,0.2-0.1,0.3-0.1c0.3-0.1,0.7-0.2,1-0.3
			c0.2,0,0.4-0.1,0.5-0.1c0.3-0.1,0.6-0.2,0.9-0.2c0.2,0,0.4-0.1,0.6-0.1s0.4-0.1,0.7-0.1c0.1,0,0.1,0,0.2,0c0.2,0,0.4-0.1,0.7-0.1
			c0.3,0,0.6-0.1,0.9-0.1c0.2,0,0.4,0,0.6-0.1c0.3,0,0.7-0.1,1-0.1c0.2,0,0.3,0,0.5,0c0.4,0,0.7,0,1.1,0l0,0c0.1,0,0.2,0,0.3,0
			c0.4,0,0.8,0,1.2,0c0.1,0,0.2,0,0.4,0c0.4,0,0.8,0,1.2,0.1c0.1,0,0.3,0,0.4,0c0.4,0,0.7,0.1,1.1,0.1c0.2,0,0.3,0.1,0.5,0.1
			c0.3,0.1,0.7,0.1,1,0.2c0.2,0,0.4,0.1,0.6,0.1c0.3,0.1,0.6,0.1,0.9,0.2c0.2,0.1,0.4,0.1,0.6,0.2c0.3,0.1,0.5,0.2,0.8,0.2
			c0.2,0.1,0.5,0.1,0.7,0.2s0.5,0.2,0.7,0.3c0.2,0.1,0.5,0.2,0.7,0.3c0.2,0.1,0.5,0.2,0.7,0.3c0.2,0.1,0.5,0.2,0.7,0.3
			c0.2,0.1,0.5,0.2,0.7,0.3c0.2,0.1,0.4,0.2,0.7,0.3c0.3,0.2,0.6,0.3,0.9,0.5c0.1,0.1,0.3,0.1,0.4,0.2l0,0
			c6.5,3.7,11.5,9.7,13.9,17.2l0,0c0,0.1,0.1,0.2,0.1,0.3c0.1,0.3,0.2,0.7,0.3,1c0,0.2,0.1,0.4,0.1,0.5c0.1,0.3,0.2,0.6,0.2,1
			c0,0.2,0.1,0.4,0.1,0.6s0.1,0.4,0.1,0.7c0,0.1,0,0.2,0,0.2c0,0.2,0.1,0.4,0.1,0.6c0,0.3,0.1,0.6,0.1,0.9c0,0.2,0,0.4,0.1,0.5
			c0,0.3,0.1,0.7,0.1,1c0,0.1,0,0.3,0,0.4c0,0.4,0,0.8,0,1.1c0,0.1,0,0.2,0,0.4c0,0.4,0,0.8,0,1.2c0,0.1,0,0.2,0,0.3
			c0,0.4,0,0.8-0.1,1.2c0,0.1,0,0.3,0,0.4c0,0.4-0.1,0.8-0.1,1.1c0,0.2,0,0.3-0.1,0.5c-0.1,0.3-0.1,0.7-0.2,1c0,0.2-0.1,0.4-0.1,0.5
			c-0.1,0.3-0.1,0.6-0.2,0.9c-0.1,0.2-0.1,0.4-0.2,0.6c0,0.1-0.1,0.3-0.1,0.4h0.1c0.3,0,0.6,0,1,0c0.7,0,1.5,0,2.2,0
			c0.2,0,0.3,0,0.5,0l0,0c4.2,0.2,8.4,0.6,12.3,1.4c4.5,0.9,10.6,3.3,12,7.7c0.8,2.4-0.8,4.8-3.3,5.1l-3.3,0.3
			c-2.1,0.2-3.6,2.2-3.1,4.3l0.9,3.6c0.3,1.1,0,2.3-0.6,3.1c-0.6,0.9-1.6,1.5-2.8,1.6l-3.7,0.4c-2.1,0.2-3.6,2.2-3.1,4.3l0.8,3.2
			c0.6,2.4-1.2,4.7-3.7,4.8c0,0,0,0-0.1,0c-4.6,0-8.8-4.9-11.2-8.8c-2-3.4-3.9-7.2-5.4-11.2l0,0c-0.1-0.3-0.2-0.5-0.3-0.8
			c-0.1-0.2-0.1-0.4-0.2-0.5c-0.3-0.7-0.5-1.5-0.8-2.3c-2.5,1.8-5.3,3.2-8.3,4.2l0,0c-0.1,0-0.2,0.1-0.3,0.1
			c-0.4,0.1-0.7,0.2-1.1,0.3c-0.2,0-0.3,0.1-0.5,0.1c-0.3,0.1-0.6,0.2-1,0.2c-0.2,0-0.4,0.1-0.6,0.1s-0.5,0.1-0.7,0.1
			c-0.1,0-0.2,0-0.2,0c-0.2,0-0.4,0.1-0.6,0.1c-0.3,0-0.6,0.1-1,0.1c-0.2,0-0.3,0-0.5,0c-0.4,0-0.7,0.1-1.1,0.1c-0.1,0-0.3,0-0.4,0
			c-0.4,0-0.8,0-1.2,0l0,0c-0.1,0-0.2,0-0.3,0c-0.4,0-0.8,0-1.2,0c-0.1,0-0.2,0-0.3,0c-0.4,0-0.8-0.1-1.2-0.1c-0.1,0-0.2,0-0.4,0
			c-0.4,0-0.8-0.1-1.1-0.1c-0.1,0-0.3,0-0.4-0.1c-0.3-0.1-0.7-0.1-1-0.2c-0.2,0-0.4-0.1-0.5-0.1c-0.3-0.1-0.6-0.1-0.9-0.2
			c-0.2-0.1-0.4-0.1-0.6-0.2c-0.3-0.1-0.6-0.2-0.8-0.2c-0.2-0.1-0.4-0.1-0.7-0.2c-0.3-0.1-0.5-0.2-0.8-0.3c-0.2-0.1-0.5-0.2-0.7-0.3
			s-0.5-0.2-0.7-0.3s-0.5-0.2-0.7-0.3c-0.3-0.1-0.5-0.2-0.8-0.4c-0.2-0.1-0.4-0.2-0.6-0.3c-0.3-0.2-0.7-0.4-1-0.6
			c-0.1-0.1-0.2-0.1-0.3-0.2l0,0c-6.5-3.7-11.5-9.7-13.9-17.2l0,0c0-0.1-0.1-0.2-0.1-0.3c-0.1-0.3-0.2-0.7-0.3-1.1
			c0-0.2-0.1-0.3-0.1-0.5c-0.1-0.3-0.2-0.6-0.2-1c0-0.2-0.1-0.4-0.1-0.6s-0.1-0.4-0.1-0.7c0-0.1,0-0.2,0-0.2c0-0.2-0.1-0.4-0.1-0.6
			c0-0.3-0.1-0.6-0.1-0.9c0-0.2,0-0.4,0-0.5c0-0.3-0.1-0.7-0.1-1c0-0.1,0-0.3,0-0.4c0-0.4,0-0.8,0-1.1c0-0.1,0-0.2,0-0.4
			c0-0.4,0-0.8,0-1.2c0-0.1,0-0.2,0-0.4c0-0.4,0-0.8,0.1-1.2c0-0.1,0-0.3,0-0.4c0-0.4,0.1-0.7,0.1-1.1c0-0.2,0-0.3,0.1-0.5
			c0.1-0.3,0.1-0.7,0.2-1c0-0.2,0.1-0.4,0.1-0.5c0.1-0.3,0.1-0.6,0.2-0.9c0.1-0.2,0.1-0.4,0.2-0.6c0-0.1,0.1-0.3,0.1-0.4H248
			c-0.3,0-0.6,0-1,0c-0.7,0-1.5,0-2.2,0c-0.2,0-0.3,0-0.5,0l0,0c-4.2-0.2-8.4-0.6-12.3-1.4c-4.5-0.9-10.6-3.3-12-7.7
			c-0.8-2.4,0.8-4.8,3.3-5.1l3.3-0.3c2.1-0.2,3.6-2.2,3.1-4.3l-0.9-3.6c-0.3-1.1,0-2.3,0.6-3.1c0.6-0.9,1.6-1.5,2.8-1.6l3.7-0.4
			c2.1-0.2,3.6-2.2,3.1-4.3l-0.8-3.2C237.6,74.2,239.4,71.8,241.9,71.8L241.9,71.8 M241.9,61.8h-0.2c-4.2,0-8.2,2-10.8,5.3
			c-1.8,2.3-2.8,5.2-2.9,8.1c-2.7,0.9-5.1,2.7-6.8,5.1s-2.6,5.2-2.6,8.1c-2.7,1-5,2.9-6.6,5.4c-2.3,3.6-2.8,7.9-1.5,11.9
			c2.4,7,9.5,12.2,19.5,14.3c2.2,0.5,4.6,0.8,7,1.1c0,0.2,0,0.5,0,0.7v0.1c0,0.2,0,0.3,0,0.5c0,0.5,0.1,0.9,0.1,1.4v0.1
			c0,0.2,0,0.4,0.1,0.6c0,0.4,0.1,0.8,0.2,1.2v0.1c0,0.2,0.1,0.4,0.1,0.6c0,0.1,0,0.3,0.1,0.4c0,0.2,0.1,0.5,0.1,0.8v0.1v0.1
			c0,0.2,0.1,0.5,0.1,0.7c0.1,0.4,0.2,0.8,0.3,1.3v0.1c0,0.2,0.1,0.4,0.1,0.6c0.1,0.4,0.2,0.9,0.4,1.3c0,0.2,0.1,0.3,0.1,0.5
			c0,0.1,0.1,0.2,0.1,0.3c3.1,9.5,9.5,17.4,18.2,22.4c0.1,0,0.1,0.1,0.2,0.1c0.2,0.1,0.3,0.2,0.5,0.3c0.4,0.2,0.9,0.5,1.3,0.7
			c0.2,0.1,0.4,0.2,0.7,0.3l0.1,0.1h0.1c0.3,0.2,0.6,0.3,1,0.5c0.3,0.1,0.5,0.2,0.8,0.3h0.1c0.3,0.1,0.7,0.3,1,0.4
			c0.3,0.1,0.6,0.2,0.9,0.3s0.7,0.2,1,0.4c0.3,0.1,0.6,0.2,0.9,0.3c0.4,0.1,0.7,0.2,1.1,0.3c0.3,0.1,0.5,0.1,0.8,0.2
			c0.4,0.1,0.8,0.2,1.2,0.3c0.3,0.1,0.5,0.1,0.7,0.1c0.5,0.1,0.9,0.2,1.4,0.2h0.1c0.2,0,0.3,0.1,0.5,0.1c0.5,0.1,1,0.1,1.5,0.2h0.1
			c0.1,0,0.3,0,0.4,0c0.5,0.1,1.1,0.1,1.6,0.1l0,0c0.1,0,0.3,0,0.4,0c0.5,0,1.1,0,1.6,0l0,0h0.3h0.1c0.5,0,1,0,1.5,0h0.1
			c0.2,0,0.3,0,0.5,0c0.5,0,0.9-0.1,1.4-0.1h0.1c0.2,0,0.4,0,0.6-0.1c0.4,0,0.8-0.1,1.3-0.2h0.1c0.2,0,0.4-0.1,0.6-0.1
			c0.1,0,0.3,0,0.4-0.1c0.3,0,0.5-0.1,0.8-0.1h0.1h0.1c0.2,0,0.4-0.1,0.7-0.1c0.4-0.1,0.9-0.2,1.3-0.3h0.1c0.2,0,0.4-0.1,0.6-0.1
			c0.4-0.1,0.9-0.3,1.3-0.4c0.2,0,0.3-0.1,0.5-0.1h0.1c1,2.2,2.2,4.2,3.3,6.2c2.5,4.1,9.3,13.7,19.7,13.7h0.2c4.2,0,8.2-2,10.8-5.3
			c1.8-2.3,2.8-5.2,2.9-8.1c2.7-0.9,5.1-2.7,6.8-5.1c1.7-2.4,2.6-5.2,2.6-8.1c2.7-1,5-2.9,6.6-5.4c2.3-3.6,2.8-7.9,1.5-11.9
			c-2.4-7-9.5-12.2-19.5-14.3c-2.2-0.5-4.6-0.8-7-1.1c0-0.2,0-0.5,0-0.7v-0.1c0-0.2,0-0.3,0-0.5c0-0.5-0.1-0.9-0.1-1.4v-0.1
			c0-0.2,0-0.4-0.1-0.6c0-0.4-0.1-0.8-0.2-1.2v-0.1c0-0.2-0.1-0.4-0.1-0.6c0-0.1,0-0.3-0.1-0.4c0-0.3-0.1-0.5-0.1-0.8v-0.1v-0.1
			c0-0.2-0.1-0.5-0.1-0.7c-0.1-0.4-0.2-0.8-0.3-1.3v-0.1c0-0.2-0.1-0.4-0.1-0.6c-0.1-0.4-0.2-0.9-0.4-1.3c0-0.2-0.1-0.3-0.1-0.5
			c0-0.1-0.1-0.2-0.1-0.3c-3.1-9.5-9.5-17.4-18.1-22.4c-0.1,0-0.1-0.1-0.2-0.1c-0.2-0.1-0.4-0.2-0.5-0.3l0,0
			c-0.4-0.2-0.8-0.4-1.2-0.7c-0.2-0.1-0.5-0.2-0.7-0.4l-0.1-0.1h-0.1c-0.3-0.1-0.6-0.3-0.9-0.4s-0.6-0.3-0.9-0.4h-0.1
			c-0.3-0.1-0.6-0.3-0.9-0.4s-0.6-0.2-1-0.4c-0.3-0.1-0.6-0.2-1-0.3c-0.3-0.1-0.6-0.2-0.9-0.3c-0.4-0.1-0.7-0.2-1.1-0.3
			c-0.3-0.1-0.6-0.2-0.9-0.2c-0.4-0.1-0.8-0.2-1.2-0.3c-0.3-0.1-0.5-0.1-0.8-0.2c-0.4-0.1-0.9-0.2-1.3-0.2h-0.1
			c-0.2,0-0.4-0.1-0.5-0.1c-0.5-0.1-1-0.1-1.5-0.2h-0.1c-0.2,0-0.3,0-0.5,0c-0.5,0-1-0.1-1.5-0.1h-0.1c-0.1,0-0.3,0-0.4,0
			c-0.5,0-1,0-1.6,0h-0.1h-0.3H277c-0.5,0-1,0-1.5,0h-0.1c-0.2,0-0.3,0-0.5,0c-0.5,0-0.9,0.1-1.3,0.1h-0.1c-0.2,0-0.4,0-0.6,0.1
			c-0.4,0-0.8,0.1-1.2,0.2h-0.1c-0.2,0-0.4,0.1-0.6,0.1c-0.1,0-0.3,0-0.4,0.1c-0.3,0-0.5,0.1-0.7,0.1h-0.1h-0.1
			c-0.2,0-0.5,0.1-0.7,0.1c-0.4,0.1-0.8,0.2-1.2,0.3h-0.1c-0.2,0-0.4,0.1-0.6,0.2c-0.4,0.1-0.9,0.2-1.3,0.4
			c-0.2,0.1-0.3,0.1-0.5,0.1h-0.1c-1-2.2-2.2-4.2-3.3-6.2C259.2,71.4,252.4,61.8,241.9,61.8L241.9,61.8z"/>
	</g>
</g>
<g>
	<path class="st7" d="M100,61c0,0,24.7-3.3,44.3,26"/>
	<g>
		<path class="st8" d="M119,57.9l-16.9-22.4c-1.2-1.6-3-2.5-4.9-2.7L43.3,27c-3.8-0.3-7,2.6-7.2,6.3l-2.9,42.3
			c-0.3,3.8,2.6,7,6.3,7.2l53.9,5.8c2,0.1,3.9-0.6,5.3-2l19.8-20C120.8,64.4,121.1,60.6,119,57.9z M105.2,66.1
			c-2.8-0.2-4.9-2.6-4.7-5.3c0.2-2.7,2.6-4.9,5.3-4.7c2.7,0.2,4.9,2.6,4.7,5.3C110.3,64.2,107.8,66.3,105.2,66.1z"/>
	</g>
	<g>
		<g>
			<text transform="matrix(0.9978 6.700215e-02 -6.700215e-02 0.9978 64.3872 69.1894)" class="st0 st5 st9">2</text>
		</g>
		<text transform="matrix(0.9978 6.700215e-02 -6.700215e-02 0.9978 49.8547 63.0652)" class="st0 st5 st10">$</text>
	</g>
	<path class="st7" d="M104.3,61c0,0,7.6-0.2,17.3,4.7"/>
	<g>
		<path class="st11" d="M174,86.8c0,2.5,2,4.5,4.5,4.5c8.2,0.1,18.1-1.9,26.2-5c4.3-1.7,9.9-5,10.6-9.6l0,0c0.4-2.5-1.6-4.6-4.1-4.5
			l-3.3,0.2c-2.1,0.1-3.9-1.6-3.7-3.7l0.2-3.7c0.1-1.2-0.4-2.2-1.1-3s-1.8-1.2-3-1.1l-3.7,0.2c-2.1,0.1-3.9-1.6-3.7-3.7l0.2-3.3
			c0.2-2.5-2-4.5-4.5-4.1l0,0c-4.6,0.7-7.9,6.3-9.6,10.6C175.9,68.7,173.9,78.6,174,86.8z"/>
		<g class="st12">
			<path d="M178.5,88.4c-0.1,0-0.2,0-0.3,0c-0.9-0.1-1.4-1-1.3-1.8c0.5-2.9,4.4-13.1,8.6-17.7c0.6-0.6,1.6-0.7,2.2-0.1
				c0.6,0.6,0.7,1.6,0.1,2.2c-3.7,4-7.4,13.9-7.8,16.1C179.9,87.9,179.2,88.4,178.5,88.4z"/>
			<path d="M178.5,88.4c-0.8,0-1.4-0.5-1.5-1.3c-0.1-0.9,0.4-1.7,1.3-1.8c2.2-0.4,12-4.1,16.1-7.8c0.6-0.6,1.6-0.5,2.2,0.1
				c0.6,0.6,0.5,1.6-0.1,2.2c-4.6,4.1-14.8,8.1-17.7,8.6C178.6,88.4,178.6,88.4,178.5,88.4z"/>
		</g>
		<path class="st13" d="M175.5,72.5c-1,4.9-1.6,9.8-1.5,14.3c0,2.5,2,4.5,4.5,4.5c4.5,0,9.4-0.5,14.3-1.5c-1.6-3.7-4-7.2-7-10.2
			C182.7,76.5,179.2,74.2,175.5,72.5z"/>
		<path class="st11" d="M144.8,116c2.5,0,4.5,2,4.5,4.5c0.1,8.2-1.9,18.1-5,26.2c-1.7,4.3-5,9.9-9.6,10.6l0,0
			c-2.5,0.4-4.6-1.6-4.5-4.1l0.2-3.3c0.1-2.1-1.6-3.9-3.7-3.7l-3.7,0.2c-1.2,0.1-2.2-0.4-3-1.1c-0.8-0.8-1.2-1.8-1.1-3l0.2-3.7
			c0.1-2.1-1.6-3.9-3.7-3.7l-3.3,0.2c-2.5,0.2-4.5-2-4.1-4.5l0,0c0.7-4.6,6.3-7.9,10.6-9.6C126.7,117.9,136.6,115.9,144.8,116z"/>
		<g class="st12">
			<path d="M128,130.2c-0.4,0-0.9-0.2-1.2-0.5c-0.6-0.6-0.5-1.6,0.1-2.2c4.6-4.1,14.8-8.1,17.7-8.6c0.9-0.1,1.7,0.4,1.8,1.3
				s-0.4,1.7-1.3,1.8c-2.2,0.4-12,4.1-16.1,7.8C128.7,130.1,128.4,130.2,128,130.2z"/>
			<path d="M136.7,138.9c-0.4,0-0.8-0.1-1.1-0.4c-0.6-0.6-0.7-1.6-0.1-2.2c3.7-4,7.4-13.9,7.8-16.1c0.1-0.9,1-1.4,1.8-1.3
				c0.9,0.1,1.4,1,1.3,1.8c-0.5,2.9-4.4,13.1-8.6,17.7C137.6,138.7,137.1,138.9,136.7,138.9z"/>
		</g>
		<path class="st13" d="M130.5,117.5c4.9-1,9.8-1.6,14.3-1.5c2.5,0,4.5,2,4.5,4.5c0,4.5-0.5,9.4-1.5,14.3c-3.7-1.6-7.2-4-10.2-7
			C134.5,124.7,132.2,121.2,130.5,117.5z"/>
		<circle class="st14" cx="161.7" cy="103.7" r="30.4"/>
		<g>
			<path class="st11" d="M157.4,73.6c-4.5,4.8-7.7,11.3-6.3,18.7c1.4,7.2,8.8,11,10.5,11.4c-5.2-9.1,2-19.9,11.4-22.4
				c3.1-0.8,5.7-1.1,7.9-1.1C174.2,74.6,165.6,72.4,157.4,73.6z"/>
			<path class="st11" d="M131.6,107.9c4.8,4.5,11.3,7.7,18.7,6.3c7.2-1.4,11-8.8,11.4-10.5c-9.1,5.2-19.9-2-22.4-11.4
				c-0.8-3.1-1.1-5.7-1.1-7.9C132.6,91.1,130.4,99.7,131.6,107.9z"/>
			<path class="st11" d="M165.9,133.8c4.5-4.8,7.7-11.3,6.3-18.7c-1.4-7.2-8.8-11-10.5-11.4c5.2,9.1-2,19.9-11.4,22.4
				c-3.1,0.8-5.7,1.1-7.9,1.1C149.1,132.7,157.7,134.9,165.9,133.8z"/>
			<path class="st11" d="M191.8,99.4c-4.8-4.5-11.3-7.7-18.7-6.3c-7.2,1.4-11,8.8-11.4,10.5c9.1-5.2,19.9,2,22.4,11.4
				c0.8,3.1,1.1,5.7,1.1,7.9C190.7,116.2,192.9,107.6,191.8,99.4z"/>
		</g>
	</g>
</g>
<g>
	<path class="st15" d="M317.2,53.3c-2.2,1-3.2,3.7-2.2,6c3.4,7.5,9.2,15.7,15.5,21.8c3.3,3.2,8.7,6.9,13.1,5.6l0,0
		c2.4-0.7,3.6-3.4,2.4-5.6l-1.6-2.9c-1-1.9-0.1-4.2,1.8-5l3.5-1.3c1.1-0.4,1.9-1.3,2.3-2.3s0.3-2.2-0.2-3.2l-1.8-3.3
		c-1-1.9-0.1-4.2,1.8-5l3.1-1.2c2.3-0.9,3.2-3.7,1.9-5.8l0,0c-2.6-3.9-9-4.6-13.6-4.3C334.5,47.5,324.7,49.8,317.2,53.3z"/>
	<g class="st12">
		<path d="M317.6,58c0-0.1-0.1-0.2-0.1-0.2c-0.2-0.8,0.3-1.7,1.1-1.9c2.8-0.8,13.8-1.4,19.6,0.4c0.8,0.3,1.3,1.1,1,2
			c-0.3,0.8-1.1,1.3-2,1c-5.2-1.7-15.7-1-17.9-0.4C318.7,59.1,317.9,58.7,317.6,58z"/>
		<path d="M317.6,58c-0.3-0.7-0.1-1.5,0.6-2s1.7-0.3,2.2,0.4c1.3,1.9,8.7,9.2,13.8,11.4c0.8,0.3,1.2,1.3,0.8,2.1
			c-0.3,0.8-1.3,1.2-2.1,0.8c-5.7-2.4-13.5-10.1-15.1-12.5C317.7,58.2,317.7,58.1,317.6,58z"/>
	</g>
	<path class="st13" d="M330.9,48.8c-4.9,1.1-9.6,2.7-13.7,4.6c-2.2,1-3.2,3.7-2.2,6c1.8,4.1,4.4,8.4,7.3,12.4
		c2.7-3,4.9-6.6,6.4-10.7C330.2,57,330.9,52.8,330.9,48.8z"/>
	<path class="st15" d="M278.6,38.9c1,2.3,0,4.9-2.2,6c-7.5,3.5-17.3,5.8-25.9,6.3c-4.6,0.3-11.1-0.5-13.6-4.3l0,0
		c-1.4-2.1-0.5-4.9,1.9-5.8l3.1-1.2c2-0.8,2.9-3.1,1.8-5l-1.8-3.3c-0.6-1-0.6-2.2-0.2-3.2c0.4-1,1.2-1.9,2.3-2.3l3.5-1.3
		c2-0.8,2.9-3.1,1.8-5l-1.6-2.9c-1.2-2.2,0-4.9,2.4-5.6l0,0c4.5-1.2,9.8,2.4,13.1,5.6C269.3,23.2,275.2,31.4,278.6,38.9z"/>
	<g class="st12">
		<path d="M258.7,29.5c-0.2-0.4-0.2-0.9,0-1.3c0.3-0.8,1.3-1.2,2.1-0.8c5.7,2.4,13.5,10.1,15.1,12.5c0.5,0.7,0.3,1.7-0.4,2.2
			s-1.7,0.3-2.2-0.4c-1.3-1.9-8.7-9.2-13.8-11.4C259.1,30.1,258.8,29.8,258.7,29.5z"/>
		<path d="M254.4,41c-0.2-0.3-0.2-0.7-0.1-1.1c0.3-0.8,1.1-1.3,2-1c5.2,1.7,15.7,1,17.9,0.4c0.8-0.2,1.7,0.3,1.9,1.1
			c0.2,0.8-0.3,1.7-1.1,1.9c-2.8,0.8-13.8,1.4-19.6-0.4C254.9,41.7,254.5,41.4,254.4,41z"/>
	</g>
	<path class="st13" d="M271.2,26.5c3,4,5.5,8.3,7.3,12.4c1,2.3,0,4.9-2.2,6c-4.1,1.9-8.8,3.4-13.7,4.6c0-4.1,0.6-8.2,2.1-12.2
		C266.3,33.2,268.5,29.6,271.2,26.5z"/>
	<circle class="st16" cx="296.8" cy="49.1" r="30.4"/>
	<g>
		<path class="st15" d="M322.4,32.7c-6.3-2.1-13.5-2.3-19.6,2.1c-6,4.3-6.3,12.6-6,14.3c6.2-8.5,18.9-6.4,25.1,1.1
			c2,2.5,3.4,4.8,4.3,6.7C328.4,48.4,326.9,39.7,322.4,32.7z"/>
		<path class="st15" d="M280.4,23.5c-2.1,6.3-2.3,13.5,2.1,19.6c4.3,6,12.6,6.3,14.3,6c-8.5-6.2-6.4-18.9,1.1-25.1
			c2.5-2,4.8-3.4,6.7-4.3C296.1,17.5,287.4,19,280.4,23.5z"/>
		<path class="st15" d="M271.2,65.5c6.3,2.1,13.5,2.3,19.6-2.1c6-4.3,6.3-12.6,6-14.3c-6.2,8.5-18.9,6.4-25.1-1.1
			c-2-2.5-3.4-4.8-4.3-6.7C265.2,49.8,266.7,58.5,271.2,65.5z"/>
		<path class="st15" d="M313.2,74.7c2.1-6.3,2.3-13.5-2.1-19.6c-4.3-6-12.6-6.3-14.3-6c8.5,6.2,6.4,18.9-1.1,25.1
			c-2.5,2-4.8,3.4-6.7,4.3C297.5,80.7,306.2,79.2,313.2,74.7z"/>
	</g>
</g>
<g>
	<path class="st3" d="M95,189.7c-2.4-0.5-4.8,1.1-5.3,3.6c-1.6,8.1-1.6,18.2-0.1,26.7c0.8,4.6,3.1,10.6,7.4,12.2l0,0
		c2.3,0.9,4.9-0.7,5.2-3.1l0.4-3.3c0.3-2.1,2.3-3.5,4.4-3l3.6,1c1.1,0.3,2.3,0.1,3.2-0.5c0.9-0.6,1.5-1.6,1.7-2.7l0.5-3.7
		c0.3-2.1,2.3-3.5,4.4-3l3.2,0.8c2.4,0.6,4.8-1.1,4.9-3.6l0,0c0.2-4.6-4.6-9-8.6-11.4C112.4,195.1,103.1,191.3,95,189.7z"/>
	<g class="st12">
		<path d="M92.5,193.8c0-0.1,0-0.2,0.1-0.3c0.3-0.8,1.2-1.2,2-0.9c2.8,1,12,6.8,15.7,11.8c0.5,0.7,0.4,1.7-0.3,2.2
			c-0.7,0.5-1.7,0.4-2.2-0.3c-3.3-4.4-12.2-9.9-14.3-10.7C92.8,195.3,92.4,194.6,92.5,193.8z"/>
		<path d="M92.5,193.8c0.1-0.7,0.8-1.3,1.6-1.3c0.9,0,1.6,0.7,1.5,1.6c-0.1,2.2,1.7,12.6,4.6,17.3c0.4,0.7,0.2,1.7-0.5,2.2
			c-0.7,0.4-1.7,0.2-2.2-0.5c-3.2-5.3-5.1-16-5-19C92.5,194,92.5,193.9,92.5,193.8z"/>
	</g>
	<path class="st13" d="M108.7,194c-4.6-1.9-9.4-3.4-13.8-4.2c-2.4-0.5-4.8,1.1-5.3,3.6c-0.9,4.4-1.3,9.4-1.2,14.3
		c4-0.9,7.8-2.5,11.4-4.9C103.4,200.3,106.4,197.3,108.7,194z"/>
	<path class="st3" d="M71.9,155.6c-0.5,2.4-2.8,4-5.3,3.6c-8.1-1.5-17.4-5.3-24.8-9.9c-3.9-2.5-8.7-6.8-8.6-11.4l0,0
		c0.1-2.5,2.5-4.2,4.9-3.6l3.2,0.8c2.1,0.5,4.1-0.8,4.4-3l0.5-3.7c0.1-1.2,0.8-2.1,1.7-2.7s2-0.8,3.2-0.5l3.6,1
		c2.1,0.5,4.1-0.8,4.4-3l0.4-3.3c0.3-2.5,2.8-4,5.2-3.1l0,0c4.3,1.6,6.6,7.7,7.4,12.2C73.5,137.4,73.6,147.5,71.9,155.6z"/>
	<g class="st12">
		<path d="M61.2,136.3c0.1-0.4,0.3-0.8,0.7-1c0.7-0.4,1.7-0.2,2.2,0.5c3.2,5.3,5.1,16,5,19c0,0.9-0.7,1.6-1.6,1.5s-1.6-0.7-1.5-1.6
			c0.1-2.2-1.7-12.6-4.6-17.3C61.2,137.1,61.1,136.7,61.2,136.3z"/>
		<path d="M51,143.2c0.1-0.4,0.3-0.7,0.6-1c0.7-0.5,1.7-0.4,2.2,0.3c3.3,4.4,12.2,9.9,14.3,10.7c0.8,0.3,1.2,1.2,0.9,2
			c-0.3,0.8-1.2,1.2-2,0.9c-2.8-1-12-6.8-15.7-11.8C51,144,50.9,143.6,51,143.2z"/>
	</g>
	<path class="st13" d="M73.1,141.2c0.1,5-0.3,10-1.2,14.3c-0.5,2.4-2.8,4-5.3,3.6c-4.4-0.8-9.2-2.3-13.8-4.2
		c2.3-3.3,5.3-6.3,8.9-8.7C65.3,143.7,69.2,142.1,73.1,141.2z"/>
	<circle class="st16" cx="80.8" cy="174.4" r="30.4"/>
	<g>
		<path class="st3" d="M111.1,176c-3.9-5.4-9.6-9.7-17.1-9.7c-7.4,0-12.4,6.6-13.2,8.1c10-3.3,19.1,5.8,19.8,15.5
			c0.2,3.2,0,5.8-0.4,7.9C106.9,192.3,110.7,184.3,111.1,176z"/>
		<path class="st3" d="M82.4,144.1c-5.4,3.9-9.7,9.6-9.7,17.1c0,7.4,6.6,12.4,8.1,13.2c-3.3-10,5.8-19.1,15.5-19.8
			c3.2-0.2,5.8,0,7.9,0.4C98.6,148.3,90.6,144.5,82.4,144.1z"/>
		<path class="st3" d="M50.4,172.8c3.9,5.4,9.6,9.7,17.1,9.7c7.4,0,12.4-6.6,13.2-8.1c-10,3.3-19.1-5.8-19.8-15.5
			c-0.2-3.2,0-5.8,0.4-7.9C54.7,156.6,50.9,164.6,50.4,172.8z"/>
		<path class="st3" d="M79.2,204.8c5.4-3.9,9.7-9.6,9.7-17.1c0-7.4-6.6-12.4-8.1-13.2c3.3,10-5.8,19.1-15.5,19.8
			c-3.2,0.2-5.8,0-7.9-0.4C62.9,200.5,70.9,204.3,79.2,204.8z"/>
	</g>
</g>
<g>
	<path class="st17" d="M222.3,178.8c-1.9,1.6-2.1,4.5-0.5,6.3c5.3,6.3,13.2,12.5,20.9,16.6c4.1,2.2,10.2,4.2,14.2,1.8l0,0
		c2.1-1.3,2.5-4.2,0.7-6l-2.3-2.4c-1.5-1.5-1.3-4,0.4-5.3l3-2.2c0.9-0.7,1.5-1.7,1.5-2.8c0.1-1.1-0.3-2.2-1.1-3l-2.6-2.7
		c-1.5-1.5-1.3-4,0.4-5.3l2.6-2c2-1.5,2.1-4.4,0.2-6l0,0c-3.5-3-9.9-1.9-14.3-0.4C237.2,168.4,228.5,173.4,222.3,178.8z"/>
	<g class="st12">
		<path d="M224,183.2c-0.1-0.1-0.1-0.1-0.2-0.2c-0.5-0.7-0.2-1.7,0.5-2.2c2.5-1.5,12.8-5.2,19-5c0.9,0,1.6,0.7,1.5,1.6
			c0,0.9-0.7,1.6-1.6,1.5c-5.5-0.1-15.3,3.4-17.3,4.6C225.3,184,224.5,183.8,224,183.2z"/>
		<path d="M224,183.2c-0.5-0.6-0.5-1.4,0-2c0.6-0.7,1.5-0.8,2.2-0.2c1.7,1.4,11,6.4,16.4,7.1c0.9,0.1,1.5,0.9,1.4,1.8
			c-0.1,0.9-0.9,1.5-1.8,1.4c-6.1-0.8-15.7-5.9-18-7.8C224.1,183.4,224,183.3,224,183.2z"/>
	</g>
	<path class="st13" d="M234.1,170.7c-4.4,2.4-8.5,5.2-11.9,8.2c-1.9,1.6-2.1,4.5-0.5,6.3c2.9,3.4,6.5,6.8,10.5,9.9
		c1.7-3.7,2.9-7.7,3.2-12C235.8,178.7,235.3,174.5,234.1,170.7z"/>
	<path class="st17" d="M181.1,175.7c1.6,1.9,1.4,4.7-0.5,6.3c-6.2,5.4-15,10.4-23.1,13.3c-4.4,1.5-10.8,2.6-14.3-0.4l0,0
		c-1.9-1.6-1.8-4.6,0.2-6l2.6-2c1.7-1.3,1.9-3.8,0.4-5.3l-2.6-2.7c-0.8-0.8-1.2-1.9-1.1-3c0.1-1.1,0.6-2.1,1.5-2.8l3-2.2
		c1.7-1.3,1.9-3.8,0.4-5.3l-2.3-2.4c-1.7-1.8-1.4-4.7,0.7-6l0,0c3.9-2.4,10.1-0.4,14.2,1.8C167.9,163.2,175.8,169.4,181.1,175.7z"/>
	<g class="st12">
		<path d="M159.4,172.2c-0.3-0.3-0.4-0.8-0.4-1.2c0.1-0.9,0.9-1.5,1.8-1.4c6.1,0.8,15.7,5.9,18,7.8c0.7,0.6,0.8,1.5,0.2,2.2
			s-1.5,0.8-2.2,0.2c-1.7-1.4-11-6.4-16.4-7.1C160,172.7,159.6,172.5,159.4,172.2z"/>
		<path d="M158.5,184.4c-0.2-0.3-0.4-0.7-0.4-1.1c0-0.9,0.7-1.6,1.6-1.5c5.5,0.1,15.3-3.4,17.3-4.6c0.7-0.5,1.7-0.2,2.2,0.5
			s0.2,1.7-0.5,2.2c-2.5,1.5-12.8,5.2-19,5C159.1,185,158.7,184.8,158.5,184.4z"/>
	</g>
	<path class="st13" d="M170.7,165.8c4,3,7.6,6.4,10.5,9.9c1.6,1.9,1.4,4.7-0.5,6.3c-3.4,2.9-7.5,5.7-11.9,8.2
		c-1.2-3.9-1.7-8.1-1.3-12.4C167.8,173.6,168.9,169.5,170.7,165.8z"/>
	<circle class="st18" cx="201.5" cy="180.4" r="30.4"/>
	<g>
		<path class="st17" d="M221.5,157.6c-6.6-0.3-13.6,1.5-18.2,7.4c-4.5,5.8-2.6,13.8-1.8,15.4c3.6-9.9,16.4-11.4,24.4-5.9
			c2.6,1.8,4.6,3.6,6,5.2C231.7,171,227.7,163.1,221.5,157.6z"/>
		<path class="st17" d="M178.6,160.4c-0.3,6.6,1.5,13.6,7.4,18.2c5.8,4.5,13.8,2.6,15.4,1.8c-9.9-3.6-11.4-16.4-5.9-24.4
			c1.8-2.6,3.6-4.6,5.2-6C192,150.2,184.1,154.1,178.6,160.4z"/>
		<path class="st17" d="M181.4,203.3c6.6,0.3,13.6-1.5,18.2-7.4c4.5-5.8,2.6-13.8,1.8-15.4c-3.6,9.9-16.4,11.4-24.4,5.9
			c-2.6-1.8-4.6-3.6-6-5.2C171.3,189.8,175.2,197.8,181.4,203.3z"/>
		<path class="st17" d="M224.3,200.5c0.3-6.6-1.5-13.6-7.4-18.2c-5.8-4.5-13.8-2.6-15.4-1.8c9.9,3.6,11.4,16.4,5.9,24.4
			c-1.8,2.6-3.6,4.6-5.2,6C210.9,210.6,218.8,206.7,224.3,200.5z"/>
	</g>
</g>
<g>
	<path class="st19" d="M327.8,199.6c-0.7,2.4,0.6,4.9,3,5.6c7.9,2.5,17.9,3.5,26.5,2.8c4.6-0.3,10.9-1.9,12.9-6.1l0,0
		c1.1-2.2-0.2-4.9-2.6-5.5l-3.2-0.7c-2.1-0.5-3.2-2.7-2.5-4.7l1.3-3.5c0.4-1.1,0.3-2.2-0.2-3.2c-0.5-0.9-1.4-1.7-2.5-1.9l-3.6-0.8
		c-2.1-0.5-3.2-2.7-2.5-4.7l1.2-3.1c0.9-2.3-0.6-4.9-3.1-5.2l0,0c-4.6-0.6-9.4,3.7-12.3,7.3C334.9,182.8,330.1,191.7,327.8,199.6z"
		/>
	<g class="st12">
		<path d="M331.6,202.4c-0.1,0-0.2-0.1-0.2-0.1c-0.8-0.4-1.1-1.3-0.7-2.1c1.3-2.6,8-11.3,13.3-14.4c0.7-0.4,1.7-0.2,2.2,0.5
			c0.4,0.7,0.2,1.7-0.5,2.2c-4.7,2.8-11.1,11.1-12.1,13.1C333.2,202.3,332.4,202.6,331.6,202.4z"/>
		<path d="M331.6,202.4c-0.7-0.2-1.2-0.9-1.1-1.7c0.1-0.9,0.9-1.5,1.8-1.4c2.2,0.3,12.7-0.4,17.6-2.8c0.8-0.4,1.7,0,2.1,0.8
			s0,1.7-0.8,2.1c-5.6,2.6-16.5,3.4-19.4,3C331.8,202.4,331.7,202.4,331.6,202.4z"/>
	</g>
	<path class="st13" d="M333.4,186.3c-2.4,4.4-4.4,9-5.6,13.3c-0.7,2.4,0.6,4.9,3,5.6c4.3,1.3,9.2,2.2,14.1,2.7
		c-0.5-4-1.7-8-3.8-11.8C339.2,192.2,336.5,189,333.4,186.3z"/>
	<path class="st19" d="M291.4,219c2.4,0.7,3.7,3.2,3,5.6c-2.3,7.9-7.1,16.8-12.4,23.6c-2.9,3.6-7.7,8-12.3,7.3l0,0
		c-2.5-0.3-4-2.9-3.1-5.2l1.2-3.1c0.8-2-0.4-4.2-2.5-4.7l-3.6-0.8c-1.1-0.3-2-1-2.5-1.9s-0.6-2.1-0.2-3.2l1.3-3.5
		c0.8-2-0.4-4.2-2.5-4.7l-3.2-0.7c-2.4-0.6-3.7-3.2-2.6-5.5l0,0c2-4.2,8.3-5.8,12.9-6.1C273.5,215.5,283.6,216.5,291.4,219z"/>
	<g class="st12">
		<path d="M271.2,227.7c-0.4-0.1-0.8-0.4-1-0.8c-0.4-0.8,0-1.7,0.8-2.1c5.6-2.6,16.5-3.4,19.4-3c0.9,0.1,1.5,0.9,1.4,1.8
			c-0.1,0.9-0.9,1.5-1.8,1.4c-2.2-0.3-12.7,0.4-17.6,2.8C272,227.8,271.6,227.8,271.2,227.7z"/>
		<path d="M277,238.6c-0.4-0.1-0.7-0.3-0.9-0.7c-0.4-0.7-0.2-1.7,0.5-2.2c4.7-2.8,11.1-11.1,12.1-13.1c0.4-0.8,1.3-1.1,2.1-0.7
			c0.8,0.4,1.1,1.3,0.7,2.1c-1.3,2.6-8,11.3-13.3,14.4C277.9,238.6,277.4,238.7,277,238.6z"/>
	</g>
	<path class="st13" d="M277.3,216.3c5,0.4,9.9,1.4,14.1,2.7c2.4,0.7,3.7,3.2,3,5.6c-1.3,4.3-3.2,8.9-5.6,13.3
		c-3.1-2.7-5.7-5.9-7.8-9.7C279,224.4,277.8,220.3,277.3,216.3z"/>
	<circle class="st16" cx="311.1" cy="212.1" r="30.4"/>
	<g>
		<path class="st19" d="M315.8,182.1c-5.7,3.3-10.7,8.6-11.4,16.1c-0.7,7.3,5.3,13.1,6.7,14c-2.3-10.2,7.7-18.4,17.4-18.1
			c3.2,0.1,5.8,0.6,7.8,1.2C331.6,187.9,324,183.3,315.8,182.1z"/>
		<path class="st19" d="M281.1,207.4c3.3,5.7,8.6,10.7,16.1,11.4c7.3,0.7,13.1-5.3,14-6.7c-10.2,2.3-18.4-7.7-18.1-17.4
			c0.1-3.2,0.6-5.8,1.2-7.8C287,191.7,282.4,199.2,281.1,207.4z"/>
		<path class="st19" d="M306.4,242.1c5.7-3.3,10.7-8.6,11.4-16.1c0.7-7.3-5.3-13.1-6.7-14c2.3,10.2-7.7,18.4-17.4,18.1
			c-3.2-0.1-5.8-0.6-7.8-1.2C290.7,236.2,298.3,240.8,306.4,242.1z"/>
		<path class="st19" d="M341.2,216.8c-3.3-5.7-8.6-10.7-16.1-11.4c-7.3-0.7-13.1,5.3-14,6.7c10.2-2.3,18.4,7.7,18.1,17.4
			c-0.1,3.2-0.6,5.8-1.2,7.8C335.3,232.5,339.9,225,341.2,216.8z"/>
	</g>
</g>
<g>
	<path class="st20" d="M296.1,129.5c-2.4,0.4-4.1,2.8-3.7,5.2c1.3,8.1,4.9,17.6,9.3,25c2.4,4,6.6,8.9,11.2,8.8l0,0
		c2.5,0,4.3-2.4,3.7-4.8l-0.8-3.2c-0.5-2.1,0.9-4.1,3.1-4.3l3.7-0.4c1.2-0.1,2.1-0.7,2.8-1.6c0.6-0.9,0.9-2,0.6-3.1l-0.9-3.6
		c-0.5-2.1,0.9-4.1,3.1-4.3l3.3-0.3c2.5-0.3,4.1-2.7,3.3-5.1l0,0c-1.5-4.4-7.5-6.8-12-7.7C314.2,128.3,304.2,128.1,296.1,129.5z"/>
	<g class="st12">
		<path d="M295.2,134.2c0-0.1,0-0.2,0-0.3c0-0.9,0.7-1.6,1.6-1.6c2.9,0,13.7,2.2,18.9,5.5c0.7,0.5,0.9,1.4,0.5,2.2
			c-0.5,0.7-1.4,0.9-2.2,0.5c-4.6-2.9-14.9-5-17.1-5C296,135.5,295.4,134.9,295.2,134.2z"/>
		<path d="M295.2,134.2c-0.1-0.7,0.3-1.5,1-1.7c0.8-0.3,1.7,0.2,2,1c0.7,2.1,6.1,11.2,10.4,14.5c0.7,0.5,0.8,1.5,0.3,2.2
			s-1.5,0.8-2.2,0.3c-4.8-3.8-10.4-13.2-11.4-16C295.3,134.4,295.2,134.3,295.2,134.2z"/>
	</g>
	<path class="st13" d="M310.4,128.6c-5-0.2-10,0.1-14.4,0.9c-2.4,0.4-4.1,2.8-3.7,5.2c0.7,4.4,2.1,9.2,3.9,13.9
		c3.4-2.2,6.4-5.1,8.9-8.7C307.7,136.4,309.4,132.6,310.4,128.6z"/>
	<path class="st20" d="M262.4,105.6c0.4,2.4-1.3,4.8-3.7,5.2c-8.1,1.4-18.2,1.2-26.7-0.6c-4.5-0.9-10.6-3.3-12-7.7l0,0
		c-0.8-2.4,0.8-4.8,3.3-5.1l3.3-0.3c2.1-0.2,3.6-2.2,3.1-4.3l-0.9-3.6c-0.3-1.1,0-2.3,0.6-3.1c0.6-0.9,1.6-1.5,2.8-1.6l3.7-0.4
		c2.1-0.2,3.6-2.2,3.1-4.3l-0.8-3.2c-0.6-2.4,1.2-4.7,3.7-4.8l0,0c4.6,0,8.9,4.9,11.2,8.8C257.6,88.1,261.1,97.5,262.4,105.6z"/>
	<g class="st12">
		<path d="M245.6,91.4c-0.1-0.4,0-0.9,0.3-1.2c0.5-0.7,1.5-0.8,2.2-0.3c4.8,3.8,10.4,13.2,11.4,16c0.3,0.8-0.2,1.7-1,2s-1.7-0.2-2-1
			c-0.7-2.1-6.1-11.2-10.4-14.5C245.9,92.1,245.7,91.8,245.6,91.4z"/>
		<path d="M238.5,101.4c-0.1-0.4,0-0.8,0.2-1.1c0.5-0.7,1.4-0.9,2.2-0.5c4.6,2.9,14.9,5,17.1,5c0.9,0,1.6,0.7,1.6,1.6
			s-0.7,1.6-1.6,1.6c-2.9,0-13.7-2.2-18.9-5.5C238.8,102.3,238.5,101.9,238.5,101.4z"/>
	</g>
	<path class="st13" d="M258.5,91.8c1.8,4.6,3.2,9.4,3.9,13.9c0.4,2.4-1.3,4.8-3.7,5.2c-4.4,0.8-9.4,1.1-14.4,0.9
		c1-3.9,2.7-7.8,5.2-11.3C252.1,96.9,255.1,94,258.5,91.8z"/>
	<circle class="st21" cx="277.4" cy="120.2" r="30.4"/>
	<g>
		<path class="st20" d="M306.4,110.9c-5.5-3.7-12.4-5.7-19.5-3c-6.9,2.6-9.3,10.5-9.5,12.3c8.1-6.6,19.9-1.4,24,7.5
			c1.3,2.9,2,5.5,2.4,7.6C308.1,127.7,308.9,118.8,306.4,110.9z"/>
		<path class="st20" d="M268.2,91.2c-3.7,5.5-5.7,12.4-3,19.5c2.6,6.9,10.5,9.3,12.3,9.5c-6.6-8.1-1.4-19.9,7.5-24
			c2.9-1.3,5.5-2,7.6-2.4C284.9,89.4,276.1,88.7,268.2,91.2z"/>
		<path class="st20" d="M248.4,129.4c5.5,3.7,12.4,5.7,19.5,3c6.9-2.6,9.3-10.5,9.5-12.3c-8.1,6.6-19.9,1.4-24-7.5
			c-1.3-2.9-2-5.5-2.4-7.6C246.7,112.7,245.9,121.5,248.4,129.4z"/>
		<path class="st20" d="M286.6,149.1c3.7-5.5,5.7-12.4,3-19.5c-2.6-6.9-10.5-9.3-12.3-9.5c6.6,8.1,1.4,19.9-7.5,24
			c-2.9,1.3-5.5,2-7.6,2.4C269.9,150.9,278.7,151.6,286.6,149.1z"/>
	</g>
</g>
<path class="st22" d="M283,264.2H117c-8.8,0-16,7.2-16,16v3.6c0,8.8,7.2,16,16,16h166c8.8,0,16-7.2,16-16v-3.6
	C299,271.4,291.8,264.2,283,264.2z"/>
<g class="st23">
	<path class="st0" d="M151,271.1c0.2,0,0.5,0.1,0.6,0.3c0.2,0.2,0.3,0.4,0.3,0.7c0,0.3-0.1,0.5-0.2,0.7l-6.3,8v7.9
		c0,0.3-0.1,0.6-0.3,0.8s-0.5,0.3-0.8,0.3s-0.6-0.1-0.8-0.3c-0.2-0.2-0.3-0.5-0.3-0.8v-7.9l-6.3-8c-0.2-0.2-0.3-0.4-0.3-0.7
		c0-0.3,0.1-0.5,0.3-0.7c0.2-0.2,0.4-0.3,0.7-0.3c0.3,0,0.5,0.1,0.8,0.4l5.9,7.6l5.9-7.6C150.5,271.2,150.7,271.1,151,271.1z"/>
	<path class="st0" d="M170.1,277.4c0.8,0.6,1.5,1.3,2,2.3c0.5,1,0.7,2.2,0.7,3.5s-0.2,2.5-0.7,3.4c-0.5,1-1.1,1.7-2,2.3
		c-0.8,0.5-1.8,0.8-3,0.8c-1,0-1.9-0.2-2.6-0.6s-1.3-1-1.7-1.8v6.1c0,0.3-0.1,0.6-0.3,0.7c-0.2,0.2-0.4,0.3-0.8,0.3
		c-0.3,0-0.6-0.1-0.8-0.3c-0.2-0.2-0.3-0.4-0.3-0.7v-15.7c0-0.3,0.1-0.6,0.3-0.8s0.5-0.3,0.8-0.3c0.3,0,0.6,0.1,0.8,0.3
		c0.2,0.2,0.3,0.4,0.3,0.8v1.4c0.4-0.8,0.9-1.4,1.7-1.8c0.7-0.4,1.6-0.6,2.6-0.6C168.3,276.5,169.3,276.8,170.1,277.4z M169.7,286.7
		c0.7-0.8,1-2,1-3.5s-0.3-2.7-1-3.6c-0.7-0.9-1.6-1.3-2.9-1.3s-2.2,0.4-2.8,1.2c-0.7,0.8-1,2-1,3.6c0,1.5,0.3,2.7,1,3.6
		c0.7,0.8,1.6,1.3,2.8,1.3S169,287.5,169.7,286.7z"/>
	<path class="st0" d="M185.9,281.5v7.1c0,0.3-0.1,0.6-0.3,0.8s-0.4,0.3-0.7,0.3s-0.6-0.1-0.8-0.3s-0.3-0.4-0.3-0.8v-1.2
		c-0.3,0.7-0.8,1.3-1.5,1.7c-0.7,0.4-1.5,0.6-2.3,0.6c-0.8,0-1.6-0.2-2.2-0.5c-0.7-0.3-1.2-0.8-1.6-1.4c-0.4-0.6-0.6-1.2-0.6-1.9
		c0-1,0.2-1.7,0.7-2.2c0.5-0.5,1.3-0.9,2.4-1.1c1.1-0.2,2.7-0.4,4.6-0.4h0.6v-0.9c0-1-0.2-1.8-0.6-2.3s-1.1-0.7-2.1-0.7
		c-1.2,0-2.4,0.3-3.6,1c-0.5,0.3-0.8,0.4-1,0.4c-0.2,0-0.4-0.1-0.5-0.2c-0.1-0.2-0.2-0.4-0.2-0.6c0-0.2,0.1-0.5,0.2-0.6
		c0.1-0.2,0.4-0.4,0.7-0.6c0.6-0.3,1.3-0.6,2.1-0.8c0.8-0.2,1.5-0.3,2.3-0.3C184.3,276.5,185.9,278.2,185.9,281.5z M182.8,287
		c0.7-0.7,1-1.6,1-2.7v-0.8h-0.5c-1.5,0-2.7,0.1-3.5,0.2c-0.8,0.1-1.4,0.3-1.7,0.6c-0.3,0.3-0.5,0.8-0.5,1.3c0,0.7,0.2,1.2,0.7,1.7
		c0.5,0.4,1.1,0.7,1.9,0.7C181.3,288,182.2,287.7,182.8,287z"/>
	<path class="st0" d="M200.8,276.9c0.2,0.2,0.3,0.4,0.3,0.8v11c0,1.9-0.5,3.3-1.5,4.3c-1,1-2.4,1.4-4.3,1.4c-1.9,0-3.4-0.4-4.6-1.1
		c-0.6-0.3-0.9-0.7-0.9-1.2c0-0.2,0.1-0.4,0.2-0.6c0.1-0.2,0.3-0.2,0.5-0.2c0.2,0,0.5,0.1,0.9,0.4c0.6,0.3,1.2,0.6,1.8,0.8
		c0.6,0.2,1.3,0.3,2.1,0.3c1.2,0,2.2-0.3,2.8-1c0.6-0.6,0.9-1.6,0.9-2.8v-2.2c-0.4,0.8-0.9,1.4-1.7,1.9c-0.8,0.4-1.6,0.7-2.7,0.7
		c-1.1,0-2.1-0.3-3-0.8c-0.9-0.5-1.5-1.3-2-2.2c-0.5-1-0.7-2.1-0.7-3.3s0.2-2.3,0.7-3.3c0.5-1,1.1-1.7,2-2.2c0.9-0.5,1.8-0.8,3-0.8
		c1,0,1.9,0.2,2.6,0.6c0.7,0.4,1.3,1,1.7,1.8v-1.4c0-0.3,0.1-0.6,0.3-0.8c0.2-0.2,0.4-0.3,0.8-0.3
		C200.3,276.6,200.6,276.7,200.8,276.9z M197.9,286.2c0.7-0.8,1-1.9,1-3.3c0-1.4-0.3-2.5-1-3.3s-1.6-1.2-2.9-1.2s-2.2,0.4-2.9,1.2
		c-0.7,0.8-1.1,1.9-1.1,3.3c0,1.4,0.4,2.5,1.1,3.3c0.7,0.8,1.7,1.2,2.9,1.2C196.3,287.4,197.2,287,197.9,286.2z"/>
	<path class="st0" d="M207.1,288.9c-0.9-0.5-1.6-1.3-2.1-2.3s-0.7-2.2-0.7-3.5c0-1.3,0.2-2.5,0.7-3.5c0.5-1,1.2-1.8,2.1-2.3
		s2-0.8,3.2-0.8s2.3,0.3,3.2,0.8s1.6,1.3,2.1,2.3c0.5,1,0.7,2.2,0.7,3.5c0,1.3-0.2,2.5-0.7,3.5s-1.2,1.8-2.1,2.3s-2,0.8-3.2,0.8
		S208,289.4,207.1,288.9z M213.1,286.7c0.7-0.8,1-2,1-3.6c0-1.5-0.3-2.7-1-3.6s-1.6-1.3-2.9-1.3s-2.2,0.4-2.9,1.3
		c-0.7,0.8-1,2-1,3.6c0,1.6,0.3,2.8,1,3.6s1.6,1.2,2.9,1.2S212.4,287.5,213.1,286.7z"/>
	<path class="st0" d="M228.2,288.9c-0.9-0.5-1.6-1.3-2.1-2.3s-0.7-2.1-0.7-3.4s0.3-2.5,0.8-3.5c0.5-1,1.2-1.8,2.1-2.3
		c0.9-0.6,2-0.8,3.2-0.8c0.7,0,1.3,0.1,2,0.3c0.7,0.2,1.2,0.4,1.7,0.8c0.3,0.2,0.5,0.4,0.7,0.6s0.2,0.4,0.2,0.7s-0.1,0.4-0.2,0.6
		s-0.3,0.2-0.5,0.2c-0.1,0-0.3,0-0.4-0.1c-0.1-0.1-0.3-0.1-0.4-0.2c-0.1-0.1-0.2-0.1-0.2-0.1c-0.5-0.3-0.9-0.5-1.3-0.7
		c-0.4-0.2-0.9-0.3-1.5-0.3c-1.3,0-2.2,0.4-3,1.3c-0.7,0.9-1.1,2-1.1,3.6s0.4,2.7,1.1,3.5c0.7,0.8,1.7,1.2,3,1.2
		c0.6,0,1.1-0.1,1.5-0.3c0.4-0.2,0.9-0.4,1.3-0.7c0.2-0.1,0.4-0.2,0.5-0.3c0.2-0.1,0.3-0.1,0.4-0.1c0.2,0,0.4,0.1,0.5,0.2
		c0.1,0.2,0.2,0.4,0.2,0.6c0,0.2-0.1,0.4-0.2,0.6c-0.1,0.2-0.3,0.4-0.7,0.6c-0.5,0.3-1.1,0.6-1.8,0.8s-1.4,0.3-2.1,0.3
		C230.2,289.7,229.1,289.4,228.2,288.9z"/>
	<path class="st0" d="M240.7,288.9c-0.9-0.5-1.6-1.3-2.1-2.3s-0.7-2.2-0.7-3.5c0-1.3,0.2-2.5,0.7-3.5c0.5-1,1.2-1.8,2.1-2.3
		s2-0.8,3.2-0.8c1.2,0,2.3,0.3,3.2,0.8c0.9,0.5,1.6,1.3,2.1,2.3c0.5,1,0.7,2.2,0.7,3.5c0,1.3-0.2,2.5-0.7,3.5
		c-0.5,1-1.2,1.8-2.1,2.3c-0.9,0.5-2,0.8-3.2,0.8C242.6,289.7,241.6,289.4,240.7,288.9z M246.7,286.7c0.7-0.8,1-2,1-3.6
		c0-1.5-0.3-2.7-1-3.6s-1.6-1.3-2.9-1.3c-1.2,0-2.2,0.4-2.9,1.3s-1,2-1,3.6c0,1.6,0.3,2.8,1,3.6c0.7,0.8,1.6,1.2,2.9,1.2
		S246,287.5,246.7,286.7z"/>
	<path class="st0" d="M263.9,281.6v7c0,0.3-0.1,0.6-0.3,0.8c-0.2,0.2-0.4,0.3-0.8,0.3c-0.3,0-0.6-0.1-0.8-0.3
		c-0.2-0.2-0.3-0.4-0.3-0.8v-6.9c0-1.2-0.2-2-0.7-2.6c-0.5-0.5-1.2-0.8-2.2-0.8c-1.2,0-2.1,0.4-2.8,1.1s-1,1.7-1,2.9v6.3
		c0,0.3-0.1,0.6-0.3,0.8c-0.2,0.2-0.4,0.3-0.8,0.3s-0.6-0.1-0.8-0.3c-0.2-0.2-0.3-0.4-0.3-0.8v-11c0-0.3,0.1-0.6,0.3-0.8
		c0.2-0.2,0.5-0.3,0.8-0.3c0.3,0,0.6,0.1,0.7,0.3s0.3,0.4,0.3,0.7v1.3c0.4-0.8,1-1.4,1.7-1.8c0.7-0.4,1.6-0.6,2.5-0.6
		C262.4,276.5,263.9,278.2,263.9,281.6z"/>
	<path class="st0" d="M267.8,279.1c-0.3-0.3-0.4-0.6-0.4-1.1s0.1-0.8,0.4-1.1s0.6-0.4,1-0.4c0.4,0,0.7,0.1,1,0.4s0.4,0.6,0.4,1.1
		s-0.1,0.8-0.4,1.1s-0.6,0.4-1,0.4C268.4,279.5,268,279.4,267.8,279.1z M267.8,289.2c-0.3-0.3-0.4-0.6-0.4-1.1
		c0-0.4,0.1-0.8,0.4-1.1s0.6-0.4,1-0.4c0.4,0,0.7,0.1,1,0.4s0.4,0.6,0.4,1.1c0,0.4-0.1,0.8-0.4,1.1c-0.3,0.3-0.6,0.4-1,0.4
		C268.4,289.6,268,289.5,267.8,289.2z"/>
</g>
</svg>
