<?xml version="1.0" encoding="utf-8"?>
<!-- Generator: Adobe Illustrator 22.1.0, SVG Export Plug-In . SVG Version: 6.00 Build 0)  -->
<svg version="1.1" id="Layer_1" xmlns="http://www.w3.org/2000/svg" xmlns:xlink="http://www.w3.org/1999/xlink" x="0px" y="0px"
	 viewBox="0 0 400 400" style="enable-background:new 0 0 400 400;" xml:space="preserve">
<style type="text/css">
	.st0{fill:#60025E;}
	.st1{enable-background:new    ;}
	.st2{fill:#FFFFFF;}
	.st3{fill:#76CEE4;}
	.st4{fill:#60C1D8;}
	.st5{fill:#1EAFD8;}
	.st6{fill:#033333;}
	.st7{font-family:'Nunito-Bold';}
	.st8{font-size:32.773px;}
	.st9{fill:#FCC62D;}
	.st10{fill:#AEB9C1;}
	.st11{fill:#3D4449;}
	.st12{font-size:33.3576px;}
	.st13{fill:none;stroke:#F9DC39;stroke-width:1.7722;stroke-linecap:round;stroke-linejoin:round;stroke-dasharray:0.9013,6.3086;}
	.st14{fill:#A0AAB4;}
	.st15{font-size:28.2102px;}
	.st16{fill:none;stroke:#D6DEE4;stroke-width:1.4988;stroke-linecap:round;stroke-linejoin:round;stroke-dasharray:0.7622,5.3351;}
	.st17{fill:none;stroke:#000000;stroke-width:5.0197;stroke-linecap:round;stroke-linejoin:round;stroke-miterlimit:10;}
	.st18{fill:#D81E2A;}
	.st19{font-size:37.0359px;}
	.st20{font-size:19.2438px;}
	.st21{fill:#CAEBFB;}
	.st22{fill:#4CC8F2;}
	.st23{fill:#ADE1F8;}
	.st24{fill:#6ECFF4;}
	.st25{fill:#7C6055;}
	.st26{fill:#A2DDF7;}
	.st27{fill:#FFE182;}
	.st28{fill:#FAA330;}
	.st29{fill:#FFBA4D;}
	.st30{fill:#722F27;}
	.st31{fill:#A26F5E;}
	.st32{fill:#70A649;}
	.st33{fill:#91C347;}
	.st34{fill:none;stroke:#A2DDF7;stroke-miterlimit:10;}
	.st35{fill:none;stroke:#FFFFFF;stroke-width:8;stroke-linecap:round;stroke-linejoin:round;stroke-miterlimit:10;}
</style>
<path class="st0" d="M283,254.2H117c-8.8,0-16,7.2-16,16v3.6c0,8.8,7.2,16,16,16h166c8.8,0,16-7.2,16-16v-3.6
	C299,261.4,291.8,254.2,283,254.2z"/>
<g class="st1">
	<path class="st2" d="M152.5,279.1c-1.2-0.4-2.1-0.9-2.8-1.6c-0.3-0.2-0.4-0.5-0.4-0.9c0-0.2,0.1-0.5,0.2-0.6
		c0.1-0.2,0.3-0.3,0.5-0.3c0.2,0,0.5,0.1,0.7,0.3c1.6,1.2,3.4,1.9,5.5,1.9c1.5,0,2.6-0.3,3.4-0.9c0.8-0.6,1.2-1.4,1.2-2.4
		c0-0.6-0.2-1.1-0.6-1.5c-0.4-0.4-0.9-0.7-1.5-0.9c-0.6-0.2-1.5-0.5-2.5-0.7c-1.4-0.3-2.6-0.7-3.5-1c-0.9-0.4-1.6-0.9-2.2-1.6
		s-0.8-1.6-0.8-2.7c0-1,0.3-2,0.8-2.8s1.4-1.4,2.4-1.9s2.2-0.7,3.5-0.7c1.2,0,2.3,0.2,3.4,0.6c1,0.4,1.9,0.9,2.6,1.6
		c0.3,0.3,0.4,0.6,0.4,0.9c0,0.2-0.1,0.5-0.2,0.6s-0.3,0.3-0.5,0.3s-0.4-0.1-0.8-0.3c-0.8-0.7-1.6-1.2-2.4-1.5s-1.6-0.4-2.6-0.4
		c-1.4,0-2.6,0.3-3.4,0.9c-0.8,0.6-1.2,1.4-1.2,2.5c0,0.9,0.4,1.6,1.1,2.1c0.7,0.5,1.8,0.9,3.2,1.2c1.6,0.4,2.8,0.7,3.7,1.1
		c0.9,0.3,1.7,0.8,2.2,1.4c0.6,0.6,0.9,1.5,0.9,2.6c0,1-0.3,1.9-0.8,2.7c-0.6,0.8-1.4,1.4-2.4,1.8c-1,0.4-2.2,0.7-3.5,0.7
		C155,279.7,153.7,279.5,152.5,279.1z"/>
	<path class="st2" d="M166.2,263.5c-0.3-0.2-0.4-0.6-0.4-1c0-0.4,0.1-0.7,0.4-0.9c0.3-0.2,0.6-0.4,1-0.4s0.8,0.1,1,0.4
		c0.3,0.2,0.4,0.6,0.4,0.9c0,0.4-0.1,0.7-0.4,1c-0.3,0.2-0.6,0.4-1,0.4S166.5,263.7,166.2,263.5z M166.4,279.4
		c-0.2-0.2-0.3-0.4-0.3-0.8v-11c0-0.3,0.1-0.6,0.3-0.8c0.2-0.2,0.5-0.3,0.8-0.3s0.6,0.1,0.8,0.3c0.2,0.2,0.3,0.4,0.3,0.8v11
		c0,0.3-0.1,0.6-0.3,0.8c-0.2,0.2-0.4,0.3-0.8,0.3S166.6,279.5,166.4,279.4z"/>
	<path class="st2" d="M185.6,278.8c0,0.3-0.1,0.5-0.3,0.7s-0.5,0.2-1,0.2l-0.7-0.1c-1.4-0.1-2.4-0.5-3.1-1.2c-0.7-0.7-1-1.8-1-3.3
		v-6.5h-1.7c-0.3,0-0.5-0.1-0.7-0.2c-0.2-0.1-0.2-0.3-0.2-0.6c0-0.3,0.1-0.5,0.2-0.6c0.2-0.2,0.4-0.2,0.7-0.2h1.7v-2.9
		c0-0.3,0.1-0.6,0.3-0.8c0.2-0.2,0.5-0.3,0.8-0.3c0.3,0,0.6,0.1,0.8,0.3c0.2,0.2,0.3,0.4,0.3,0.8v2.9h2.9c0.3,0,0.5,0.1,0.7,0.2
		c0.2,0.2,0.2,0.4,0.2,0.6c0,0.2-0.1,0.4-0.2,0.6c-0.2,0.1-0.4,0.2-0.7,0.2h-2.9v6.6c0,1,0.2,1.6,0.6,2.1c0.4,0.4,1,0.7,1.8,0.7
		l0.7,0.1C185.3,278,185.6,278.3,185.6,278.8z"/>
	<path class="st2" d="M198,276.8c0.1,0.2,0.2,0.4,0.2,0.6c0,0.4-0.3,0.8-0.9,1.2c-0.6,0.4-1.3,0.6-2,0.8c-0.7,0.2-1.4,0.3-2,0.3
		c-2,0-3.5-0.6-4.6-1.7s-1.7-2.8-1.7-4.8c0-1.3,0.3-2.4,0.8-3.4c0.5-1,1.2-1.8,2.1-2.3c0.9-0.6,1.9-0.8,3.1-0.8c1.6,0,3,0.5,3.9,1.6
		c1,1.1,1.5,2.5,1.5,4.4c0,0.3-0.1,0.6-0.2,0.8c-0.1,0.2-0.4,0.2-0.7,0.2h-8.4c0.2,3,1.6,4.5,4.2,4.5c0.7,0,1.3-0.1,1.7-0.3
		c0.5-0.2,1-0.4,1.6-0.7c0.5-0.3,0.8-0.4,0.9-0.4C197.7,276.6,197.9,276.6,198,276.8z M190.3,269.2c-0.7,0.7-1.1,1.7-1.2,2.9h7.4
		c0-1.3-0.4-2.3-1-3c-0.6-0.7-1.5-1-2.5-1C191.9,268.2,191,268.5,190.3,269.2z"/>
	<path class="st2" d="M212.3,271.6v7c0,0.3-0.1,0.6-0.3,0.8c-0.2,0.2-0.4,0.3-0.8,0.3s-0.6-0.1-0.8-0.3c-0.2-0.2-0.3-0.4-0.3-0.8
		v-6.9c0-1.2-0.2-2-0.7-2.6c-0.5-0.5-1.2-0.8-2.2-0.8c-1.2,0-2.1,0.4-2.8,1.1c-0.7,0.7-1,1.7-1,2.9v6.3c0,0.3-0.1,0.6-0.3,0.8
		c-0.2,0.2-0.4,0.3-0.8,0.3c-0.3,0-0.6-0.1-0.8-0.3c-0.2-0.2-0.3-0.4-0.3-0.8v-11c0-0.3,0.1-0.6,0.3-0.8c0.2-0.2,0.5-0.3,0.8-0.3
		c0.3,0,0.6,0.1,0.7,0.3c0.2,0.2,0.3,0.4,0.3,0.7v1.3c0.4-0.8,1-1.4,1.7-1.8c0.7-0.4,1.6-0.6,2.5-0.6
		C210.8,266.5,212.3,268.2,212.3,271.6z"/>
	<path class="st2" d="M227.2,266.9c0.2,0.2,0.3,0.4,0.3,0.8v11c0,1.9-0.5,3.3-1.5,4.3s-2.4,1.4-4.3,1.4c-1.9,0-3.4-0.4-4.6-1.1
		c-0.6-0.3-0.9-0.7-0.9-1.2c0-0.2,0.1-0.4,0.2-0.6c0.1-0.2,0.3-0.2,0.5-0.2c0.2,0,0.5,0.1,0.9,0.4c0.6,0.3,1.2,0.6,1.8,0.8
		c0.6,0.2,1.3,0.3,2.1,0.3c1.2,0,2.2-0.3,2.8-1c0.6-0.6,0.9-1.6,0.9-2.8v-2.2c-0.4,0.8-0.9,1.4-1.7,1.9c-0.8,0.4-1.6,0.7-2.7,0.7
		c-1.1,0-2.1-0.3-3-0.8c-0.9-0.5-1.5-1.3-2-2.2s-0.7-2.1-0.7-3.3s0.2-2.3,0.7-3.3c0.5-1,1.1-1.7,2-2.2c0.9-0.5,1.8-0.8,3-0.8
		c1,0,1.9,0.2,2.6,0.6c0.7,0.4,1.3,1,1.7,1.8v-1.4c0-0.3,0.1-0.6,0.3-0.8s0.4-0.3,0.8-0.3C226.8,266.6,227.1,266.7,227.2,266.9z
		 M224.4,276.2c0.7-0.8,1-1.9,1-3.3c0-1.4-0.3-2.5-1-3.3s-1.6-1.2-2.9-1.2c-1.2,0-2.2,0.4-2.9,1.2c-0.7,0.8-1.1,1.9-1.1,3.3
		c0,1.4,0.4,2.5,1.1,3.3c0.7,0.8,1.7,1.2,2.9,1.2C222.7,277.4,223.7,277,224.4,276.2z"/>
	<path class="st2" d="M233.5,278.9c-0.9-0.5-1.6-1.3-2.1-2.3s-0.7-2.2-0.7-3.5c0-1.3,0.2-2.5,0.7-3.5c0.5-1,1.2-1.8,2.1-2.3
		s2-0.8,3.2-0.8s2.3,0.3,3.2,0.8s1.6,1.3,2.1,2.3c0.5,1,0.7,2.2,0.7,3.5c0,1.3-0.2,2.5-0.7,3.5s-1.2,1.8-2.1,2.3s-2,0.8-3.2,0.8
		S234.4,279.4,233.5,278.9z M239.6,276.7c0.7-0.8,1-2,1-3.6c0-1.5-0.3-2.7-1-3.6s-1.6-1.3-2.9-1.3s-2.2,0.4-2.9,1.3
		c-0.7,0.8-1,2-1,3.6c0,1.6,0.3,2.8,1,3.6s1.6,1.2,2.9,1.2S238.9,277.5,239.6,276.7z"/>
	<path class="st2" d="M245.9,269.1c-0.3-0.3-0.4-0.6-0.4-1.1s0.1-0.8,0.4-1.1s0.6-0.4,1-0.4c0.4,0,0.7,0.1,1,0.4s0.4,0.6,0.4,1.1
		s-0.1,0.8-0.4,1.1s-0.6,0.4-1,0.4C246.5,269.5,246.1,269.4,245.9,269.1z M245.9,279.2c-0.3-0.3-0.4-0.6-0.4-1.1
		c0-0.4,0.1-0.8,0.4-1.1s0.6-0.4,1-0.4c0.4,0,0.7,0.1,1,0.4s0.4,0.6,0.4,1.1c0,0.4-0.1,0.8-0.4,1.1c-0.3,0.3-0.6,0.4-1,0.4
		C246.5,279.6,246.1,279.5,245.9,279.2z"/>
</g>
<g>
	<path class="st2" d="M194.1,238c-8.8,0-17.5-2.4-24.9-7c-35.5-21.8-56.7-59.6-56.7-101.2c0-16.5,3.5-32.8,10.1-47.8L110,94.6
		l-0.1,0.1c-2.3,2.2-5.3,3.3-8.4,3.3c-0.2,0-0.4,0-0.6,0c-0.1,0-0.2,0-0.3,0l-53.8-5.7c-3.1-0.2-5.9-1.6-7.9-3.9
		c-2.1-2.4-3.2-5.5-2.9-8.6l2.9-42.3c0.3-6.1,5.4-11,11.7-11c0.3,0,0.6,0,0.8,0c0.1,0,54.1,5.8,54.1,5.8c3.4,0.3,6.5,2,8.4,4.7
		l16.9,22.3c0.9,1.2,1.6,2.6,2,4.1c3.4-5,7.1-9.7,11.2-14.1c-5.5-3-9.3-8.9-9.3-15.6c0-9.8,8-17.8,17.8-17.8H310
		c9.8,0,17.8,8,17.8,17.8c0,6.8-3.9,12.8-9.6,15.8c20,21.8,31.3,50.6,31.3,80.3c0,41.6-21.2,79.4-56.7,101.2c-7.5,4.6-16.1,7-24.9,7
		H194.1z"/>
	<path class="st2" d="M310,21c7.1,0,12.8,5.7,12.8,12.8s-5.7,12.8-12.8,12.8h-1.8c22.4,20.7,36.4,50.4,36.4,83.3
		c0,41-21.7,76.9-54.3,96.9c-6.7,4.1-14.4,6.3-22.3,6.3h-73.9c-7.9,0-15.6-2.1-22.3-6.3c-32.6-20-54.3-55.9-54.3-96.9
		c0-20.1,5.2-38.9,14.3-55.2c-2-1.3-4-2.3-5.9-3.1l-19.5,19.6c-1.4,1.3-3.1,2-5,2c-0.1,0-0.2,0-0.3,0l-53.9-5.8
		c-3.7-0.2-6.6-3.4-6.3-7.2l2.9-42.3c0.2-3.5,3.1-6.3,6.7-6.3c0.2,0,0.3,0,0.5,0l53.9,5.8c2,0.2,3.8,1.1,4.9,2.7l16.9,22.4
		c1,1.3,1.5,2.9,1.4,4.5c0.8,0.3,1.5,0.7,2.3,1.1c0.2,0.1,0.4,0.2,0.5,0.4c1.1,0.6,2.2,1.2,3.3,1.9c5.4-8.7,12-16.7,19.5-23.7h-1.3
		c-7.1,0-12.8-5.7-12.8-12.8s5.7-12.8,12.8-12.8H310 M109,62.9c0.3,0,0.8,0,1.2,0c1.3,0,3,0.1,5,0.3c0.2,0,0.5,0.1,0.7,0.1h0.1
		c0.6,0.1,1.1,0.2,1.8,0.3c-0.7-1.7-2.3-2.9-4.2-3c-0.1,0-0.2,0-0.3,0C111.5,60.5,109.9,61.5,109,62.9 M113.2,70.5
		c1.5,0,3-0.7,3.9-1.9c-1.4-0.3-2.8-0.5-3.9-0.6c-0.6,0-1,0-1.1,0l0,0l0,0c-0.2,0-0.4,0-0.6-0.1c-0.5,0-0.9,0-1.3,0
		c-0.5,0-0.9,0-1.2,0C109.8,69.3,111.3,70.4,113.2,70.5C113,70.5,113.1,70.5,113.2,70.5 M310,11H152.4c-12.6,0-22.8,10.2-22.8,22.8
		c0,6.4,2.7,12.2,6.9,16.3c-1.2,1.4-2.3,2.8-3.4,4.2L117.9,34c-2.8-3.8-7.1-6.2-12-6.7L52,21.6c-0.1,0-0.2,0-0.3,0
		c-0.4,0-0.8,0-1.2,0c-8.9,0-16.2,6.9-16.7,15.7l-2.9,42.3c-0.3,4.5,1.2,8.9,4.2,12.3C38,95,42,97,46.4,97.3l53.7,5.7
		c0.2,0,0.4,0,0.6,0c0.3,0,0.5,0,0.8,0c3.4,0,6.8-1,9.6-2.9c-2.4,9.7-3.6,19.6-3.6,29.7c0,21.5,5.6,42.7,16.3,61.3
		c10.3,18,25.1,33.3,42.8,44.1c8.3,5.1,17.8,7.7,27.5,7.7H268c9.8,0,19.3-2.7,27.5-7.7c17.7-10.9,32.5-26.1,42.8-44.1
		c10.6-18.6,16.3-39.8,16.3-61.3c0-17.5-3.6-34.4-10.7-50.3c-4.7-10.6-10.9-20.4-18.3-29.2c4.4-4.2,7.2-10.1,7.2-16.6
		C332.8,21.2,322.6,11,310,11L310,11z"/>
</g>
<g>
	<path class="st2" d="M177.4,395c-0.4,0-0.8-0.1-1.2-0.2c-7.1-0.6-12.7-6.6-12.7-13.8v-12.1c-6,4.5-13.4,7-21,7
		c-7,0-13.7-2.1-19.4-5.9c-7.3,11.8-20.3,19.2-34.6,19.2c-22.4,0-40.7-18.3-40.7-40.7s18.3-40.7,40.7-40.7
		c10.1,0,19.7,3.7,27.1,10.3c6.6-7.9,16.5-12.6,26.9-12.6c9.9,0,19.3,4.2,25.9,11.4c2.5-2.1,5.6-3.3,9-3.3h97.2
		c2.6,0,5.1,0.7,7.2,2.1c7.6-8.1,18.4-12.9,29.7-12.9c22.4,0,40.7,18.3,40.7,40.7s-18.3,40.7-40.7,40.7c-8.4,0-16.3-2.5-23-7.1v4
		c0,7.7-6.2,13.9-13.9,13.9H177.4z"/>
	<path class="st2" d="M311.5,307.8c19.7,0,35.7,16,35.7,35.7s-16,35.7-35.7,35.7c-11.4,0-21.5-5.3-28-13.6v15.5c0,4.9-4,8.9-8.9,8.9
		h-97.2v-0.1l0,0c-4.9,0-8.9-4-8.9-8.9v-24.9c-5.3,8.9-14.9,14.8-26,14.8c-8.2,0-15.6-3.3-21.1-8.6c-5.4,12.9-18.1,21.9-32.9,21.9
		c-19.7,0-35.7-16-35.7-35.7s16-35.7,35.7-35.7c11.2,0,21.1,5.1,27.7,13.1c5.2-9.2,15-15.4,26.3-15.4c11.2,0,21,6.1,26.2,15.2
		c0.8-4,4.4-7.1,8.7-7.1h97.2c3.3,0,6.1,1.8,7.7,4.4C288.7,313.8,299.4,307.8,311.5,307.8 M311.5,297.8c-11.4,0-22.4,4.3-30.7,11.9
		c-2-0.7-4.1-1.1-6.2-1.1h-97.2c-3,0-5.8,0.7-8.4,2c-7.2-6.4-16.7-10.1-26.5-10.1c-10.3,0-20.1,4-27.4,10.8
		c-7.7-5.5-16.9-8.5-26.6-8.5c-25.2,0-45.7,20.5-45.7,45.7s20.5,45.7,45.7,45.7c14.3,0,27.5-6.6,36-17.5c5.5,2.8,11.7,4.2,18,4.2
		c5.6,0,11-1.2,16-3.4v3.5c0,9.7,7.4,17.8,16.8,18.8c0.7,0.1,1.3,0.2,2.1,0.2h97.2c9,0,16.5-6.3,18.4-14.7c5.7,2.5,12,3.9,18.5,3.9
		c25.2,0,45.7-20.5,45.7-45.7S336.7,297.8,311.5,297.8L311.5,297.8z"/>
</g>
<g>
	<g>
		<g>
			<g>
				<g>
					<g>
						<path class="st3" d="M177.4,389.9c-4.9,0-8.9-4-8.9-8.9v-53.5c0-4.9,4-8.9,8.9-8.9h97.2c4.9,0,8.9,4,8.9,8.9v53.6
							c0,4.9-4,8.9-8.9,8.9h-97.2L177.4,389.9L177.4,389.9z"/>
					</g>
					<g>
						<path class="st4" d="M265,381.1h-77.8c0-5.3-4.4-9.7-9.7-9.7v-34c5.3,0,9.7-4.4,9.7-9.7H265c0,5.3,4.4,9.7,9.7,9.7v34
							C269.3,371.3,265,375.7,265,381.1z"/>
					</g>
				</g>
				<g>
					<circle class="st5" cx="179.5" cy="329.7" r="3.9"/>
					<circle class="st5" cx="273.1" cy="329.7" r="3.9"/>
				</g>
				<g>
					<circle class="st5" cx="179.5" cy="379.4" r="3.9"/>
					<circle class="st5" cx="273.1" cy="379.4" r="3.9"/>
				</g>
				<g>
					<circle class="st3" cx="192.7" cy="336.7" r="2.2"/>
				</g>
				<g>
					
						<ellipse transform="matrix(6.651884e-02 -0.9978 0.9978 6.651884e-02 -152.205 516.2588)" class="st3" cx="199.8" cy="339.5" rx="2.2" ry="2.2"/>
				</g>
				<g>
					<circle class="st3" cx="251.2" cy="336.4" r="2.2"/>
				</g>
				<g>
					<circle class="st3" cx="183.3" cy="344.4" r="2.2"/>
				</g>
				<g>
					<circle class="st3" cx="191.6" cy="374.4" r="2.2"/>
				</g>
				<g>
					
						<ellipse transform="matrix(6.651878e-02 -0.9978 0.9978 6.651878e-02 -181.743 544.082)" class="st3" cx="199.9" cy="369.2" rx="2.2" ry="2.2"/>
				</g>
				<g>
					<circle class="st3" cx="183.5" cy="367.6" r="2.2"/>
				</g>
				<g>
					<circle class="st3" cx="182.2" cy="357.1" r="2.2"/>
				</g>
				<g>
					<circle class="st3" cx="262.4" cy="339" r="2.2"/>
				</g>
				<g>
					<circle class="st3" cx="257.7" cy="351.9" r="2.2"/>
				</g>
				<g>
					<circle class="st3" cx="268.6" cy="347.5" r="2.2"/>
				</g>
				<g>
					<circle class="st3" cx="267.3" cy="361" r="2.2"/>
				</g>
				<g>
					<circle class="st3" cx="259" cy="362.3" r="2.2"/>
				</g>
				<g>
					<circle class="st3" cx="250.3" cy="370.3" r="2.2"/>
				</g>
				<g>
					<ellipse class="st3" cx="260.8" cy="372.9" rx="2.2" ry="2.2"/>
				</g>
				<path id="XMLID_2_" class="st2" d="M192.2,364.3c-0.4,0-0.7-0.3-0.7-0.7v-0.9c-1.4-0.2-2.2-0.4-3.3-1.3v0.9
					c0,0.4-0.3,0.7-0.7,0.7s-0.7-0.3-0.7-0.7v-4.1c0-0.4,0.3-0.7,0.7-0.7s0.7,0.3,0.7,0.7v1.5c0.7,0.8,1.2,1,2.4,1.5
					c0.3,0.1,0.6,0.2,0.9,0.3v-6.4c-1.3-0.4-2.2-0.7-2.8-1c-0.7-0.3-1.2-0.8-1.6-1.3c-0.4-0.5-0.6-1.1-0.6-1.8
					c0-1.3,0.4-2.3,1.3-3.1c0.8-0.7,2.1-1.1,3.8-1.2v-0.8c0-0.4,0.3-0.7,0.7-0.7s0.7,0.3,0.7,0.7v0.9c1.2,0.2,2.2,0.6,3.1,1.2
					c0.2,0.2,0.1,0.3,0.3,0.4v-0.9c0-0.4,0.3-0.7,0.7-0.7s0.7,0.3,0.7,0.7v4.1c0,0.4-0.3,0.7-0.7,0.7s-0.7-0.3-0.7-0.7v-1.4
					c-0.7-0.8-1.4-1.5-2.5-1.9c-0.3-0.1-0.6-0.2-0.9-0.3v5.9c0.2,0.1,0.5,0.1,1,0.3c0.8,0.2,1.6,0.5,2.2,0.8
					c0.7,0.3,1.2,0.8,1.6,1.3c0.4,0.5,0.6,1.2,0.6,1.9c0,1.4-0.5,2.5-1.5,3.3c-0.9,0.8-2.3,1.2-4,1.2v0.8
					C192.9,364.1,192.6,364.3,192.2,364.3 M189.6,361.5c0.1,0.1,0.2,0.1,0.3,0.1C189.9,361.6,189.7,361.5,189.6,361.5 M192.9,355.5
					v6c1.3,0,2.4-0.3,3.1-0.9c0.7-0.6,1.1-1.3,1.1-2.2c0-0.5-0.1-0.9-0.4-1.2c-0.3-0.4-0.7-0.7-1.2-0.9c-0.5-0.2-1-0.4-1.5-0.5
					L192.9,355.5z M196.6,360.9c-0.1,0.1-0.2,0.2-0.3,0.3c-0.2,0.1-0.3,0.2-0.5,0.3c0.2-0.1,0.4-0.2,0.6-0.4
					C196.5,361,196.6,361,196.6,360.9 M191.6,348c-1.3,0-2.2,0.3-2.8,0.8s-0.9,1.2-0.9,2c0,0.5,0.1,0.9,0.4,1.2
					c0.3,0.4,0.7,0.7,1.2,0.9c0.5,0.2,1,0.4,1.4,0.5c0.3,0.1,0.5,0.2,0.7,0.2L191.6,348L191.6,348z"/>
				<g id="XMLID_3360_">
					<g id="XMLID_3377_">
						<path id="XMLID_3378_" class="st6" d="M225.6,380.1c-1.1,0-2,0.9-2,2h1c0-0.6,0.4-1,1-1s1,0.4,1,1h1
							C227.6,381,226.7,380.1,225.6,380.1z"/>
					</g>
					<g id="XMLID_3375_">
						<path id="XMLID_3376_" class="st6" d="M220.4,380.1c-1.1,0-2,0.9-2,2h1c0-0.6,0.4-1,1-1s1,0.4,1,1h1
							C222.4,381,221.5,380.1,220.4,380.1z"/>
					</g>
					<g id="XMLID_3373_">
						<path id="XMLID_3374_" class="st6" d="M230.9,380.1c-1.1,0-2,0.9-2,2h1c0-0.6,0.4-1,1-1s1,0.4,1,1h1
							C232.9,381,232,380.1,230.9,380.1z"/>
					</g>
					<g id="XMLID_3371_">
						<path id="XMLID_3372_" class="st6" d="M209.9,380.1c-1.1,0-2,0.9-2,2h1c0-0.6,0.4-1,1-1s1,0.4,1,1h1
							C211.9,381,211,380.1,209.9,380.1z"/>
					</g>
					<g id="XMLID_3369_">
						<path id="XMLID_3370_" class="st6" d="M204.6,380.1c-1.1,0-2,0.9-2,2h1c0-0.6,0.4-1,1-1s1,0.4,1,1h1
							C206.6,381,205.7,380.1,204.6,380.1z"/>
					</g>
					<g id="XMLID_3367_">
						<path id="XMLID_3368_" class="st6" d="M215.1,380.1c-1.1,0-2,0.9-2,2h1c0-0.6,0.4-1,1-1s1,0.4,1,1h1
							C217.1,381,216.2,380.1,215.1,380.1z"/>
					</g>
					<g id="XMLID_3365_">
						<path id="XMLID_3366_" class="st6" d="M241.4,380.1c-1.1,0-2,0.9-2,2h1c0-0.6,0.4-1,1-1s1,0.4,1,1h1
							C243.4,381,242.5,380.1,241.4,380.1z"/>
					</g>
					<g id="XMLID_3363_">
						<path id="XMLID_3364_" class="st6" d="M236.1,380.1c-1.1,0-2,0.9-2,2h1c0-0.6,0.4-1,1-1s1,0.4,1,1h1
							C238.1,381,237.2,380.1,236.1,380.1z"/>
					</g>
					<g id="XMLID_3361_">
						<path id="XMLID_3362_" class="st6" d="M246.6,380.1c-1.1,0-2,0.9-2,2h1c0-0.6,0.4-1,1-1s1,0.4,1,1h1
							C248.6,381,247.7,380.1,246.6,380.1z"/>
					</g>
				</g>
				<g id="XMLID_9_">
					<g id="XMLID_27_">
						<path id="XMLID_28_" class="st6" d="M225.6,328.4c1.1,0,2-0.9,2-2h-1c0,0.6-0.4,1-1,1s-1-0.4-1-1h-1
							C223.6,327.5,224.5,328.4,225.6,328.4z"/>
					</g>
					<g id="XMLID_25_">
						<path id="XMLID_26_" class="st6" d="M230.9,328.4c1.1,0,2-0.9,2-2h-1c0,0.6-0.4,1-1,1s-1-0.4-1-1h-1
							C228.9,327.5,229.8,328.4,230.9,328.4z"/>
					</g>
					<g id="XMLID_23_">
						<path id="XMLID_24_" class="st6" d="M220.4,328.4c1.1,0,2-0.9,2-2h-1c0,0.6-0.4,1-1,1s-1-0.4-1-1h-1
							C218.4,327.5,219.3,328.4,220.4,328.4z"/>
					</g>
					<g id="XMLID_21_">
						<path id="XMLID_22_" class="st6" d="M241.4,328.4c1.1,0,2-0.9,2-2h-1c0,0.6-0.4,1-1,1s-1-0.4-1-1h-1
							C239.4,327.5,240.3,328.4,241.4,328.4z"/>
					</g>
					<g id="XMLID_19_">
						<path id="XMLID_20_" class="st6" d="M246.6,328.4c1.1,0,2-0.9,2-2h-1c0,0.6-0.4,1-1,1s-1-0.4-1-1h-1
							C244.6,327.5,245.5,328.4,246.6,328.4z"/>
					</g>
					<g id="XMLID_17_">
						<path id="XMLID_18_" class="st6" d="M236.1,328.4c1.1,0,2-0.9,2-2h-1c0,0.6-0.4,1-1,1s-1-0.4-1-1h-1
							C234.1,327.5,235,328.4,236.1,328.4z"/>
					</g>
					<g id="XMLID_15_">
						<path id="XMLID_16_" class="st6" d="M209.9,328.4c1.1,0,2-0.9,2-2h-1c0,0.6-0.4,1-1,1s-1-0.4-1-1h-1
							C207.9,327.5,208.8,328.4,209.9,328.4z"/>
					</g>
					<g id="XMLID_13_">
						<path id="XMLID_14_" class="st6" d="M215.1,328.4c1.1,0,2-0.9,2-2h-1c0,0.6-0.4,1-1,1s-1-0.4-1-1h-1
							C213.1,327.5,214,328.4,215.1,328.4z"/>
					</g>
					<g id="XMLID_11_">
						<path id="XMLID_12_" class="st6" d="M204.6,328.4c1.1,0,2-0.9,2-2h-1c0,0.6-0.4,1-1,1s-1-0.4-1-1h-1
							C202.6,327.5,203.5,328.4,204.6,328.4z"/>
					</g>
				</g>
			</g>
			<circle class="st5" cx="225.9" cy="353.8" r="24.5"/>
			<g>
				<circle class="st4" cx="225.9" cy="353.8" r="21.2"/>
			</g>
			<g>
				<text transform="matrix(1 0 0 1 206.808 364.5754)" class="st2 st7 st8">20</text>
			</g>
		</g>
	</g>
	<g>
		<g>
			<g>
				<circle class="st9" cx="311.5" cy="343.5" r="35.7"/>
			</g>
			<circle class="st10" cx="311.5" cy="343.5" r="23.4"/>
			<g>
				<text transform="matrix(1 0 0 1 305.3629 353.8248)" class="st11 st7 st12">5</text>
			</g>
		</g>
		<g>
			<g>
				<ellipse class="st13" cx="311.5" cy="343.5" rx="28.7" ry="28.7"/>
			</g>
		</g>
		<path id="XMLID_6_" class="st11" d="M300.2,351.2c-0.4,0-0.5-0.2-0.5-0.5V350c-1.1-0.2-1.8-0.4-2.7-1.1v0.7c0,0.4-0.2,0.5-0.5,0.5
			s-0.5-0.2-0.5-0.5v-3.3c0-0.4,0.2-0.5,0.5-0.5s0.5,0.2,0.5,0.5v1.2c0.5,0.6,1,0.8,1.9,1.2c0.3,0.1,0.4,0.2,0.8,0.2v-5.1
			c-1.1-0.3-1.8-0.5-2.3-0.8s-1-0.6-1.3-1.1c-0.4-0.4-0.4-0.9-0.4-1.5c0-1.1,0.4-1.9,1.1-2.5c0.6-0.6,1.7-0.9,3-1v-0.7
			c0-0.4,0.2-0.5,0.5-0.5s0.5,0.2,0.5,0.5v0.8c1,0.2,1.8,0.5,2.5,1c0.2,0.1,0.1,0.3,0.2,0.4v-0.7c0-0.4,0.2-0.5,0.5-0.5
			s0.5,0.2,0.5,0.5v3.3c0,0.4-0.2,0.5-0.5,0.5s-0.5-0.2-0.5-0.5v-1.2c-0.6-0.6-1.2-1.2-1.9-1.5c-0.2-0.1-0.4-0.2-0.7-0.2v4.8
			c0.2,0,0.4,0.1,0.8,0.2c0.6,0.2,1.2,0.4,1.8,0.6s1,0.6,1.3,1.1c0.4,0.4,0.4,1,0.4,1.5c0,1.2-0.4,2-1.2,2.7c-0.7,0.6-1.9,1-3.2,1
			v0.7C300.7,351,300.5,351.2,300.2,351.2 M298.1,348.9c0.1,0,0.2,0.1,0.3,0.1C298.2,349,298.2,348.9,298.1,348.9 M300.7,344v4.9
			c1.1,0,1.9-0.3,2.5-0.7c0.6-0.4,0.9-1.1,0.9-1.8c0-0.4-0.1-0.7-0.4-1s-0.5-0.5-1-0.7c-0.4-0.2-0.8-0.4-1.2-0.4L300.7,344z
			 M303.7,348.4c-0.1,0.1-0.2,0.2-0.3,0.2c-0.1,0.1-0.3,0.2-0.4,0.3c0.2-0.1,0.4-0.2,0.4-0.4C303.7,348.5,303.7,348.4,303.7,348.4
			 M299.7,338.1c-1.1,0-1.8,0.3-2.3,0.6c-0.5,0.4-0.8,1-0.8,1.6c0,0.4,0.1,0.7,0.4,1s0.5,0.5,1,0.7c0.4,0.2,0.8,0.4,1.2,0.4
			c0.2,0.1,0.4,0.1,0.6,0.2L299.7,338.1L299.7,338.1z"/>
	</g>
	<g>
		<g>
			<g>
				<g>
					<path class="st14" d="M142.5,370.9c-16.6,0-30.2-13.6-30.2-30.2s13.6-30.2,30.2-30.2s30.2,13.6,30.2,30.2
						S159.2,370.9,142.5,370.9z"/>
				</g>
				<circle class="st10" cx="142.5" cy="340.7" r="19.8"/>
				<g>
					<g>
						<text transform="matrix(1 0 0 1 137.3001 349.4883)" class="st11 st7 st15">2</text>
					</g>
				</g>
			</g>
			<g>
				<g>
					
						<ellipse transform="matrix(0.9871 -0.1602 0.1602 0.9871 -52.7397 27.2288)" class="st16" cx="142.5" cy="340.7" rx="24.3" ry="24.3"/>
				</g>
			</g>
		</g>
		<path id="XMLID_3_" class="st11" d="M132.9,347.2c-0.3,0-0.4-0.1-0.4-0.4v-0.6c-0.9-0.1-1.5-0.3-2.2-0.9v0.6
			c0,0.3-0.1,0.4-0.4,0.4c-0.3,0-0.4-0.1-0.4-0.4v-2.8c0-0.3,0.1-0.4,0.4-0.4c0.3,0,0.4,0.1,0.4,0.4v1c0.4,0.5,0.8,0.7,1.6,1
			c0.2,0.1,0.4,0.1,0.7,0.1v-4.3c-0.9-0.2-1.5-0.4-1.9-0.7s-0.8-0.5-1.1-0.9s-0.4-0.7-0.4-1.3c0-0.9,0.3-1.6,0.9-2.1
			c0.5-0.5,1.4-0.7,2.5-0.8v-0.6c0-0.3,0.1-0.4,0.4-0.4c0.3,0,0.4,0.1,0.4,0.4v0.7c0.8,0.1,1.5,0.4,2.1,0.8c0.1,0.1,0.1,0.2,0.1,0.3
			v-0.6c0-0.3,0.1-0.4,0.4-0.4s0.4,0.1,0.4,0.4v2.8c0,0.3-0.1,0.4-0.4,0.4s-0.4-0.1-0.4-0.4v-1c-0.5-0.5-1-1-1.6-1.3
			c-0.1-0.1-0.4-0.1-0.6-0.1v4c0.1,0,0.4,0.1,0.7,0.1c0.5,0.1,1,0.3,1.5,0.5c0.4,0.2,0.8,0.5,1.1,0.9s0.4,0.8,0.4,1.3
			c0,1-0.3,1.7-1,2.2c-0.6,0.5-1.6,0.8-2.7,0.8v0.6C133.4,347.1,133.1,347.2,132.9,347.2 M131.1,345.3c0.1,0,0.1,0.1,0.2,0.1
			C131.3,345.3,131.2,345.3,131.1,345.3 M133.4,341.1v4.1c0.9,0,1.6-0.2,2.1-0.6s0.7-0.9,0.7-1.5c0-0.3-0.1-0.6-0.3-0.8
			c-0.2-0.2-0.4-0.4-0.8-0.6c-0.3-0.1-0.7-0.3-1-0.4L133.4,341.1z M135.9,344.9c-0.1,0.1-0.1,0.1-0.2,0.1c-0.1,0.1-0.2,0.1-0.4,0.2
			c0.1-0.1,0.3-0.1,0.4-0.3C135.8,345,135.8,344.9,135.9,344.9 M132.5,336.1c-0.9,0-1.5,0.2-1.9,0.5c-0.4,0.4-0.7,0.8-0.7,1.3
			c0,0.3,0.1,0.6,0.3,0.8c0.2,0.2,0.4,0.4,0.8,0.6c0.3,0.1,0.7,0.3,1,0.4c0.1,0.1,0.4,0.1,0.5,0.1L132.5,336.1L132.5,336.1z"/>
	</g>
	<g>
		<g>
			<g>
				
					<ellipse transform="matrix(3.327794e-02 -0.9994 0.9994 3.327794e-02 -262.7521 425.3536)" class="st9" cx="88.5" cy="348.5" rx="35.7" ry="35.7"/>
			</g>
			<circle class="st10" cx="88.5" cy="348.5" r="23.4"/>
			<g>
				<text transform="matrix(1 0 0 1 82.3629 358.8248)" class="st11 st7 st12">5</text>
			</g>
		</g>
		<g>
			<g>
				
					<ellipse transform="matrix(3.327794e-02 -0.9994 0.9994 3.327794e-02 -262.7521 425.3536)" class="st13" cx="88.5" cy="348.5" rx="28.7" ry="28.7"/>
			</g>
		</g>
		<path id="XMLID_1_" class="st11" d="M77.2,356.2c-0.4,0-0.5-0.2-0.5-0.5V355c-1.1-0.2-1.8-0.4-2.7-1.1v0.7c0,0.4-0.2,0.5-0.5,0.5
			s-0.5-0.2-0.5-0.5v-3.3c0-0.4,0.2-0.5,0.5-0.5s0.5,0.2,0.5,0.5v1.2c0.5,0.6,1,0.8,1.9,1.2c0.3,0.1,0.4,0.2,0.8,0.2v-5.1
			c-1.1-0.3-1.8-0.5-2.3-0.8s-1-0.6-1.3-1.1c-0.4-0.4-0.4-0.9-0.4-1.5c0-1.1,0.4-1.9,1.1-2.5c0.6-0.6,1.7-0.9,3-1v-0.7
			c0-0.4,0.2-0.5,0.5-0.5s0.5,0.2,0.5,0.5v0.8c1,0.2,1.8,0.5,2.5,1c0.2,0.1,0.1,0.3,0.2,0.4v-0.7c0-0.4,0.2-0.5,0.5-0.5
			s0.5,0.2,0.5,0.5v3.3c0,0.4-0.2,0.5-0.5,0.5s-0.5-0.2-0.5-0.5v-1.2c-0.6-0.6-1.2-1.2-1.9-1.5c-0.2-0.1-0.4-0.2-0.7-0.2v4.8
			c0.2,0,0.4,0.1,0.8,0.2c0.6,0.2,1.2,0.4,1.8,0.6s1,0.6,1.3,1.1c0.4,0.4,0.4,1,0.4,1.5c0,1.2-0.4,2-1.2,2.7c-0.7,0.6-1.9,1-3.2,1
			v0.7C77.7,356,77.5,356.2,77.2,356.2 M75.1,353.9c0.1,0,0.2,0.1,0.3,0.1C75.2,354,75.2,353.9,75.1,353.9 M77.7,349v4.9
			c1.1,0,1.9-0.3,2.5-0.7c0.6-0.4,0.9-1.1,0.9-1.8c0-0.4-0.1-0.7-0.4-1s-0.5-0.5-1-0.7c-0.4-0.2-0.8-0.4-1.2-0.4L77.7,349z
			 M80.7,353.4c-0.1,0.1-0.2,0.2-0.3,0.2c-0.1,0.1-0.3,0.2-0.4,0.3c0.2-0.1,0.4-0.2,0.4-0.4C80.7,353.5,80.7,353.4,80.7,353.4
			 M76.7,343.1c-1.1,0-1.8,0.3-2.3,0.6c-0.5,0.4-0.8,1-0.8,1.6c0,0.4,0.1,0.7,0.4,1s0.5,0.5,1,0.7c0.4,0.2,0.8,0.4,1.2,0.4
			c0.2,0.1,0.4,0.1,0.6,0.2L76.7,343.1L76.7,343.1z"/>
	</g>
</g>
<g>
	<path class="st17" d="M107.8,65.5c0,0,24.7-3.3,44.3,26"/>
	<g>
		<path class="st18" d="M126.7,62.4L109.8,40c-1.2-1.6-3-2.5-4.9-2.7L51,31.5c-3.8-0.3-7,2.6-7.2,6.3l-2.9,42.3
			c-0.3,3.8,2.6,7,6.3,7.2l53.9,5.8c2,0.1,3.9-0.6,5.3-2l19.8-20C128.5,68.8,128.8,65.1,126.7,62.4z M112.9,70.5
			c-2.8-0.2-4.9-2.6-4.7-5.3c0.2-2.7,2.6-4.9,5.3-4.7c2.7,0.2,4.9,2.6,4.7,5.3C118,68.6,115.6,70.7,112.9,70.5z"/>
	</g>
	<g>
		<g>
			<text transform="matrix(0.9978 6.700215e-02 -6.700215e-02 0.9978 57.1349 74.6498)" class="st2 st7 st19">45</text>
		</g>
		<text transform="matrix(0.9978 6.700215e-02 -6.700215e-02 0.9978 50.2699 55.192)" class="st2 st7 st20">$</text>
	</g>
	<path class="st17" d="M112,65.5c0,0,7.6-0.2,17.3,4.7"/>
</g>
<path class="st21" d="M308.2,46.6l-77-12.8l-77.4,12.8c-22.4,20.7-36.4,50.4-36.4,83.3c0,41,21.7,76.9,54.3,96.9
	c6.7,4.1,14.4,6.3,22.3,6.3h73.9c7.9,0,15.6-2.1,22.3-6.3c32.6-20,54.3-55.9,54.3-96.9C344.6,96.9,330.6,67.3,308.2,46.6z"/>
<g>
	<path class="st22" d="M319.6,78.4c-1.8-4-3.8-7.8-6.1-11.5c-7.6-2.8-15.9-2.8-23.4,0.1c-7.6,2.9-16,2.9-23.7,0
		c-7.6-2.9-16-2.9-23.7,0c-7.6,2.9-16,2.9-23.7,0s-16-2.9-23.7,0s-16,2.9-23.7,0c-7.5-2.9-15.9-2.9-23.4-0.1
		c-2.3,3.7-4.3,7.5-6.1,11.5c-5.6,12.4-8.4,25.7-8.4,39.5c0,16.9,4.4,33.5,12.8,48.1c2.1,3.7,4.5,7.2,7,10.6l77.2,16.8l77.2-16.8
		c2.6-3.4,4.9-6.9,7-10.6c8.3-14.6,12.8-31.2,12.8-48.1C328,104.1,325.2,90.8,319.6,78.4z"/>
	<path class="st23" d="M310,21H152.4c-7.1,0-12.8,5.7-12.8,12.8l0,0c0,7.1,5.7,12.8,12.8,12.8H310c7.1,0,12.8-5.7,12.8-12.8l0,0
		C322.8,26.7,317.1,21,310,21z"/>
	<path class="st24" d="M324.3,90.7c-1.8-4-26.6-14.6-34.2-11.7s-16,2.9-23.7,0c-7.6-2.9-16-2.9-23.7,0c-7.6,2.9-16,2.9-23.7,0
		s-16-2.9-23.7,0s-16,2.9-23.7,0c-7.5-2.9-31.1,7-32.8,11c-5.6,12.4-5,26.1-5,39.8c0,16.9,4.4,33.5,12.8,48.1
		c2.1,3.7,4.5,7.2,7,10.6l77.2,16.8l77.2-16.8c2.6-3.4,4.9-6.9,7-10.6c8.3-14.6,12.8-31.2,12.8-48.1
		C328,116.1,329.9,103.1,324.3,90.7z"/>
</g>
<path class="st25" d="M308.2,188.5c-7.3,9.6-16.3,17.8-26.6,24.1c-4.1,2.5-8.8,3.8-13.7,3.8H194c-4.9,0-9.6-1.3-13.7-3.8
	c-10.3-6.3-19.3-14.5-26.6-24.1H308.2L308.2,188.5z"/>
<g>
	<circle class="st26" cx="300.9" cy="156.3" r="4.4"/>
	<circle class="st26" cx="286.1" cy="106" r="3.9"/>
</g>
<g>
	<g>
		<path class="st27" d="M243.3,122.9c-4.5-2.2-8.2-5.6-10.5-10c-6.7-12.6-22.4-21.7-40.7-20.4c-18,1.2,0,21.6,0,33.9
			s-18,32.7,0,33.9c18.3,1.2,34-7.9,40.7-20.4c2.3-4.4,6.1-7.8,10.5-10c1.7-0.8,2.9-2,2.9-3.5C246.2,124.9,245,123.8,243.3,122.9z"
			/>
		<path class="st28" d="M198.9,134.3c-8.4-2.2-31,23.1-31-7.9s22.5-5.7,31-7.9V134.3z"/>
		<path class="st29" d="M212.7,126.4c0-11.9-2.6-23.4-7.2-32.9c-4.3-0.9-8.8-1.3-13.5-1c-18,1.2,0,21.6,0,33.9s-18,32.7,0,33.9
			c4.7,0.3,9.2-0.1,13.5-1C210.1,149.8,212.7,138.3,212.7,126.4z"/>
	</g>
	<circle class="st30" cx="226.8" cy="122.5" r="2.2"/>
	<path class="st28" d="M211.9,126l-8.9,2.9c-2.5,0.8-3.9,3.6-3.1,6.1l0,0c0.8,2.5,3.6,3.9,6.1,3.1l8.9-2.9c2.5-0.8,3.9-3.6,3.1-6.1
		l0,0C217.2,126.5,214.5,125.1,211.9,126z"/>
</g>
<path class="st31" d="M308.2,188.5c-7.3,9.6-16.3-0.2-26.6,6.1c-4.1,2.5-8.8,3.8-13.7,3.8H194c-4.9,0-9.6-1.3-13.7-3.8
	c-10.3-6.3-19.3,3.5-26.6-6.1H308.2L308.2,188.5z"/>
<path class="st32" d="M258.5,164.5c6.7-0.8,13.6,2,17.7,7.9s4.4,13.3,1.3,19.3c-6.7,0.8-13.6-2-17.7-7.9
	C255.6,177.9,255.4,170.4,258.5,164.5z"/>
<path class="st33" d="M291.8,164.5c-6.7-0.8-13.6,2-17.7,7.9s-4.4,13.3-1.3,19.3c6.7,0.8,13.6-2,17.7-7.9
	C294.6,177.9,294.8,170.4,291.8,164.5z"/>
<path class="st32" d="M183.8,177.8c3.5-0.4,7.1,1,9.3,4.1s2.3,7,0.7,10.1c-3.5,0.4-7.1-1-9.3-4.1S182.2,180.9,183.8,177.8z"/>
<path class="st33" d="M201.2,177.8c-3.5-0.4-7.1,1-9.3,4.1s-2.3,7-0.7,10.1c3.5,0.4,7.1-1,9.3-4.1S202.9,180.9,201.2,177.8z"/>
<circle class="st34" cx="156" cy="123.3" r="3"/>
<circle class="st34" cx="250.7" cy="152.7" r="3"/>
<ellipse transform="matrix(0.1602 -0.9871 0.9871 0.1602 111.3934 340.3272)" class="st34" cx="255.7" cy="104.7" rx="3" ry="3"/>
<circle class="st34" cx="228.3" cy="172" r="3"/>
<circle class="st34" cx="168.7" cy="171.7" r="3"/>
<circle class="st34" cx="301.7" cy="80.3" r="3"/>
<circle class="st34" cx="277" cy="131" r="3"/>
<path class="st35" d="M153,87c0,0-28.7,50.2,17.5,106.5"/>
</svg>
