<?xml version="1.0" encoding="utf-8"?>
<!-- Generator: Adobe Illustrator 22.0.1, SVG Export Plug-In . SVG Version: 6.00 Build 0)  -->
<svg version="1.1" id="Layer_1" xmlns="http://www.w3.org/2000/svg" xmlns:xlink="http://www.w3.org/1999/xlink" x="0px" y="0px"
	 viewBox="0 0 400 400" style="enable-background:new 0 0 400 400;" xml:space="preserve">
<style type="text/css">
	.st0{fill:#FFFFFF;}
	.st1{fill:none;stroke:#000000;stroke-width:5.0197;stroke-linecap:round;stroke-linejoin:round;stroke-miterlimit:10;}
	.st2{fill:#D81E2A;}
	.st3{font-family:'Nunito-Bold';}
	.st4{font-size:32px;}
	.st5{font-size:19.2429px;}
	.st6{fill:#C97D0E;}
	.st7{fill:#F29C11;}
	.st8{fill:#895B19;}
	.st9{fill:#0A6AA6;}
	.st10{fill:#3A382D;}
	.st11{fill:#6D450F;}
	.st12{fill:#442909;}
	.st13{fill:none;stroke:#FFF488;stroke-width:0.75;stroke-linecap:round;stroke-linejoin:round;stroke-miterlimit:10;}
</style>
<g>
	<g>
		<path class="st0" d="M109.5,284.6c-0.6,0-1.3-0.1-1.9-0.4L94.8,279c-1.2-0.5-2.2-1.5-2.7-2.7c-0.5-1.2-0.5-2.6,0-3.8l2.3-5.6
			c-0.7-1.6-0.7-3.5,0-5.3l6.1-14.8c0.5-1.2,1.5-2.2,2.8-2.7c0.4-0.2,0.8-0.3,1.2-0.3c-0.1-0.2-0.2-0.3-0.2-0.5
			c-0.7-1.7-0.7-3.6,0-5.4l33.8-82.1c-5.1-7.1-10.9-12.4-17.3-15.9l-17,17.1c0,0-0.1,0.1-0.1,0.1c-2.3,2.2-5.3,3.3-8.4,3.3
			c-0.2,0-0.4,0-0.6,0c-0.1,0-0.2,0-0.3,0l-53.8-5.7c-3.1-0.2-5.9-1.6-7.9-3.9c-2.1-2.4-3.2-5.5-2.9-8.6l2.9-42.3
			c0.3-6.1,5.4-11,11.7-11c0.3,0,0.6,0,0.8,0c0.1,0,54.1,5.8,54.1,5.8c3.4,0.3,6.4,2,8.4,4.7l16.9,22.3c0.9,1.2,1.6,2.6,2,4.1
			c0.4,0.2,0.7,0.4,1,0.6c6.2,3.3,11.8,7.8,17,13.5l2.9-7.1c1.1-2.6,3.6-4.3,6.5-4.3c0.9,0,1.8,0.2,2.7,0.5l12.8,5.3
			c3.6,1.5,5.3,5.6,3.8,9.2l-53,128.7c-0.7,1.7-2.1,3.1-3.7,3.8l-2.3,5.6C113.3,283.5,111.5,284.6,109.5,284.6z"/>
		<path class="st0" d="M44.2,93.9c0.2,0,0.3,0,0.5,0l53.9,5.8c2,0.2,3.8,1.1,4.9,2.7l16.9,22.4c1,1.3,1.5,2.9,1.4,4.5
			c0.8,0.3,1.5,0.7,2.3,1.1c0.2,0.1,0.4,0.2,0.5,0.4c6.8,3.6,14.2,9.4,21.2,18.9l6.1-14.9c0.3-0.8,1.1-1.2,1.9-1.2
			c0.3,0,0.5,0,0.8,0.2l12.8,5.3c1,0.4,1.5,1.6,1.1,2.6l-53,128.7c-0.3,0.8-1.1,1.2-1.9,1.2c-0.3,0-0.5,0-0.8-0.2l-3.4,8.3
			l-12.8-5.3l3.4-8.3h0c-1-0.4-1.5-1.6-1.1-2.6l6.1-14.8c0.1,0.1,0.2,0.1,0.3,0.1c1,0.4,1.9,0.6,2.9,0.6c2.1,0,4.2-0.9,5.7-2.5
			c0.9-1,0.5-2.6-0.8-3.2l-3.4-1.4c-1-0.4-1.5-1.6-1.1-2.6l34.9-84.6c-7.9-11.8-16.6-18-24-21.3l-19.5,19.7c-1.4,1.3-3.1,2-5,2
			c-0.1,0-0.2,0-0.3,0l-53.9-5.8c-3.7-0.2-6.6-3.4-6.3-7.2l2.9-42.3C37.7,96.7,40.6,93.9,44.2,93.9 M102.7,125.2c0.3,0,0.8,0,1.2,0
			c1.3,0,3,0.1,5,0.3c0.1,0,0.3,0,0.4,0.1c0.1,0,0.2,0,0.3,0c0.5,0.1,1.1,0.2,1.8,0.3c-0.7-1.7-2.3-2.9-4.2-3c-0.1,0-0.2,0-0.3,0
			C105.2,122.9,103.7,123.9,102.7,125.2 M106.9,132.9c1.6,0,3-0.8,3.9-1.9c-0.3-0.1-0.6-0.1-0.9-0.2c-2.4-0.4-3.9-0.4-4.2-0.4
			c0,0,0,0,0,0c0,0-0.1,0-0.1,0c-0.2,0-0.5,0-0.7-0.1c-0.3,0-0.7,0-0.9,0c-0.6,0-1.1,0-1.5,0c0.8,1.4,2.3,2.5,4.1,2.6
			C106.7,132.9,106.8,132.9,106.9,132.9 M44.2,83.9C44.2,83.9,44.2,83.9,44.2,83.9c-8.9,0-16.2,6.9-16.7,15.7l-2.9,42.3
			c-0.3,4.5,1.2,8.9,4.2,12.3c2.9,3.3,6.9,5.3,11.3,5.6l53.7,5.7c0.2,0,0.4,0,0.6,0c0.3,0,0.5,0,0.8,0c4.4,0,8.6-1.7,11.8-4.7
			c0.1-0.1,0.2-0.2,0.3-0.3l14.2-14.3c3.9,2.6,7.5,6.1,10.8,10.3l-32.7,79.5c-0.7,1.6-1,3.4-0.9,5.1c-1.2,1-2.2,2.3-2.8,3.8
			l-6.1,14.8c-0.9,2.3-1.1,4.7-0.7,6.9l-1.6,4c-2.1,5.1,0.3,11,5.4,13.1l12.8,5.3c1.2,0.5,2.5,0.8,3.8,0.8c3.9,0,7.7-2.3,9.2-6.2
			l1.6-4c1.9-1.3,3.5-3.1,4.4-5.4l53-128.7c1.2-3,1.2-6.2,0-9.2c-1.2-3-3.5-5.3-6.5-6.5l-12.8-5.3c-1.5-0.6-3-0.9-4.6-0.9
			c-4.9,0-9.2,2.9-11.1,7.4l-0.1,0.2c-3.8-3.4-7.8-6.3-12.1-8.7c-0.6-1.3-1.3-2.6-2.2-3.8l-16.8-22.3c-2.8-3.8-7.1-6.2-12-6.7
			l-53.9-5.7c-0.1,0-0.2,0-0.3,0C45,83.9,44.6,83.9,44.2,83.9L44.2,83.9L44.2,83.9z"/>
	</g>
	<g>
		<path class="st0" d="M224.5,383.2c-3.7,0-7.5-0.2-11.2-0.7c-45.3-5.8-73.2-44.4-69.9-75.4c0.8-7.2,3.2-13.9,7.3-20.2
			c1.6-4,3.8-7.9,6.8-11.7c0.5-1.3,1.4-2.1,1.9-2.5c2.2-2.4,4.7-4.8,7.5-7.1c2.9-3.2,6.7-8,7.4-13.7c0-0.1,0-0.2,0-0.2
			c0.9-5.5,0.6-11,0.3-15.9l0-0.6c-1.7-4.7-2.3-9.5-1.7-14.6c2.2-18.9,19.6-33.6,43.7-37.4l14.6-92.8c-2.8-3.3-4.1-7.7-3.5-12.2
			l0-0.3c-0.5,0.1-1.1,0.2-1.7,0.2c-0.4,0-0.8,0-1.2-0.1l-1-0.2c-1.9-0.3-3.6-1.4-4.8-3c-1.1-1.6-1.6-3.6-1.3-5.5l0.9-5.6
			c0.2-1,0.6-2,1.1-2.8c-0.5-1.2-0.7-2.6-0.4-4l0.9-5.6c0.3-1.6,1-3,2.1-4c-0.6-1.3-0.8-2.7-0.5-4.2l0.9-5.6
			c0.6-3.6,3.7-6.1,7.3-6.1c0.4,0,0.8,0,1.2,0.1l1,0.2c1.9,0.3,3.5,1.3,4.7,2.8c2.8-2.4,6.5-3.8,10.4-3.8c0.7,0,1.3,0,2,0.1
			l12.6,1.5c5.6,0.7,10.1,3.9,12.5,8.5c0.9-0.4,1.9-0.6,2.9-0.6c0.2,0,0.5,0,0.7,0l1,0.1c2,0.2,3.7,1.1,5,2.7
			c1.2,1.5,1.8,3.4,1.6,5.4L285,54c-0.1,1.5-0.7,2.8-1.6,3.9c0.7,1.3,1.1,2.8,0.9,4.4l-0.6,5.6c-0.1,1.4-0.7,2.7-1.5,3.7
			c0.3,0.9,0.4,2,0.3,3l-0.6,5.6c-0.4,3.8-3.5,6.6-7.3,6.6c-0.2,0-0.5,0-0.7,0l-1-0.1c-0.5-0.1-1.1-0.2-1.6-0.3
			c-1.1,3.5-3.2,6.4-6.2,8.4l-1.6,21.5l-2.1,28.4c0.1-0.2,0.3-0.4,0.4-0.6l16.8-22.3c2-2.7,5-4.4,8.5-4.7c0,0,54-5.8,54-5.8
			c0.3,0,0.6,0,0.8,0c6.3,0,11.4,4.9,11.7,11.1l2.9,42.2c0.2,3.2-0.8,6.2-2.9,8.6c-2.1,2.3-4.9,3.7-7.9,3.9l-53.8,5.7
			c-0.1,0-0.2,0-0.3,0c-0.2,0-0.4,0-0.6,0c-3.1,0-6.1-1.2-8.4-3.3c0,0-0.1-0.1-0.1-0.1l-17-17.1c-2,1.1-3.9,2.3-5.8,3.8l-1.6,21.7
			c22.7,9,36.8,27.7,34.6,46.6c-0.5,4.7-2.3,9.4-5,13.7c-0.4,1.1-0.7,2.3-1.1,3.5c-1.4,4.1-2.8,8.3-3.1,12.6c0,0.2,0,0.3-0.1,0.5
			c-0.9,5.4,1.4,10.1,4.1,14.8c2.3,3,3.9,5.6,5.6,8.3l0.3,0.6l0.4,0.5c0.2,0.3,0.4,0.6,0.6,1c2.6,5.5,4.2,11.5,4.6,17.2
			c2.4,6.7,3.2,13.5,2.5,20.3C298.7,357.6,263.3,383.2,224.5,383.2z"/>
		<path class="st0" d="M247.4,35.7c0.5,0,0.9,0,1.4,0.1l12.6,1.5c5.9,0.7,10,5.4,9.8,11.3l3.6,0.4l0.2-1.6c0.1-1.2,1.2-2.1,2.4-2.1
			c0.1,0,0.2,0,0.2,0l1,0.1c1.3,0.1,2.3,1.3,2.1,2.6l-0.6,5.6c-0.1,1.2-1.2,2.1-2.4,2.1c-0.1,0-0.2,0-0.2,0l-1-0.1
			c-1.3-0.1-2.3-1.3-2.1-2.6l0.1-0.5l-3.6-0.4l-0.4,3.2c0,0,0,0,0,0l-0.8,7.2l4,0.4l0.2-1.6c0.1-1.2,1.2-2.1,2.4-2.1
			c0.1,0,0.2,0,0.2,0l1,0.1c1.3,0.1,2.3,1.3,2.1,2.6l-0.6,5.6c-0.1,1.2-1.2,2.1-2.4,2.1c-0.1,0-0.2,0-0.2,0l-1-0.1
			c-1.3-0.1-2.3-1.3-2.1-2.6l0.1-0.5l-4-0.5l-1,8.9l3.7,0.4l0.2-1.6c0.1-1.2,1.2-2.1,2.4-2.1c0.1,0,0.2,0,0.2,0l1,0.1
			c1.3,0.1,2.3,1.3,2.1,2.6l-0.6,5.6c-0.1,1.2-1.2,2.1-2.4,2.1c-0.1,0-0.2,0-0.2,0l-1-0.1c-1.3-0.1-2.3-1.3-2.1-2.6l0.1-0.5
			l-3.8-0.4l-0.5,4.5c-0.5,4.3-3.1,7.5-6.7,9l-1.8,24.2l-3,40.9c2-1.5,4.1-2.7,6-3.7c0.2-0.1,0.3-0.3,0.5-0.4
			c0.8-0.4,1.6-0.8,2.3-1.1c-0.1-1.6,0.4-3.1,1.4-4.5l16.9-22.4c1.2-1.6,3-2.5,4.9-2.7l53.9-5.8c0.2,0,0.3,0,0.5,0
			c3.6,0,6.5,2.8,6.7,6.3l2.9,42.3c0.3,3.8-2.6,7-6.3,7.2l-53.9,5.8c-0.1,0-0.2,0-0.3,0c-1.9,0-3.6-0.7-5-2l-19.5-19.7
			c-3.6,1.6-7.6,3.9-11.6,7.3l-2,27.6c22.2,7.4,37,24.6,34.9,42.6c-0.5,4.4-2.3,8.6-4.6,12.2c-1.6,5.2-4.2,11.3-4.6,17.9
			c-1.2,7.2,2,13.3,4.9,18.4c2.5,3.2,4.1,5.9,6,9c0,0,0.3,0.4,0.6,0.7c2.4,5.1,3.9,10.6,4.2,16.1c2.2,6,3.2,12.3,2.5,18.7
			c-2.8,27-35.4,51.5-72.3,51.5c-3.5,0-7-0.2-10.5-0.7c-41-5.3-68.7-40.3-65.6-69.9c0.7-6.7,3.1-12.9,6.8-18.4
			c1.6-4.2,3.9-8,6.8-11.7c0.1-0.6,0.4-0.9,0.8-1.2c2.2-2.3,4.7-4.9,7.5-7.1c4-4.3,8.1-9.9,9-16.8c1.1-6.6,0.6-13,0.2-18.4
			c-1.7-4.3-2.2-8.5-1.7-12.9c2.1-17.8,20.2-31.1,43.1-33.5l15.6-99c-2.8-2.3-4.4-5.9-3.9-9.9l0.7-5.6c0,0,0,0,0,0l0.1-0.6l-0.9-1.3
			l-4.1-0.6l-0.1,0.5c-0.2,1.2-1.2,2-2.3,2c-0.1,0-0.3,0-0.4,0l-1-0.2c-1.3-0.2-2.2-1.4-1.9-2.7l0.9-5.6c0.2-1.2,1.2-2,2.3-2
			c0.1,0,0.3,0,0.4,0l1,0.2c1.3,0.2,2.2,1.4,1.9,2.7l-0.3,1.6l4.9,0.8l0.7-6.2l0.2-1.3l-0.7-1.6l-4-0.6l-0.1,0.5
			c-0.2,1.2-1.2,2-2.3,2c-0.1,0-0.3,0-0.4,0l-1-0.2c-1.3-0.2-2.2-1.4-1.9-2.7l0.9-5.6c0.2-1.2,1.2-2,2.3-2c0.1,0,0.3,0,0.4,0l1,0.2
			c1.3,0.2,2.2,1.4,1.9,2.7l-0.3,1.6l4.7,0.7l0.5-4.3c0,0,0,0,0,0l0.7-5.6c0-0.1,0-0.3,0.1-0.4l-4-0.6l-0.1,0.5
			c-0.2,1.2-1.2,2-2.3,2c-0.1,0-0.3,0-0.4,0l-1-0.2c-1.3-0.2-2.2-1.4-1.9-2.7l0.9-5.6c0.2-1.2,1.2-2,2.3-2c0.1,0,0.3,0,0.4,0l1,0.2
			c1.3,0.2,2.2,1.4,1.9,2.7l-0.3,1.6l4.5,0.7C239.5,38,243.1,35.7,247.4,35.7 M274.9,148.5c0.6-0.1,1.2-0.2,1.7-0.3
			c0.2,0,0.4-0.1,0.7-0.1c0,0,0.1,0,0.1,0c2-0.3,3.7-0.3,5-0.3c0.5,0,0.9,0,1.2,0c-0.9-1.4-2.5-2.3-4.2-2.3c-0.1,0-0.2,0-0.3,0
			C277.3,145.5,275.6,146.8,274.9,148.5 M280.7,152.9C280.7,152.9,280.7,152.9,280.7,152.9c-0.1,0-0.1,0-0.1,0c-0.3,0-2.2,0-5,0.6
			c0.9,1.2,2.4,1.9,3.9,1.9c0.1,0,0.2,0,0.3,0c1.8-0.1,3.3-1.2,4.1-2.6c-0.4,0-0.9,0-1.5,0c-0.3,0-0.6,0-1,0
			C281.2,152.8,280.9,152.9,280.7,152.9 M247.4,25.7C247.4,25.7,247.4,25.7,247.4,25.7c-3.6,0-7.1,0.9-10.1,2.6
			c-1.3-0.7-2.7-1.2-4.1-1.5l-1-0.2c-0.7-0.1-1.4-0.2-2.1-0.2c-6.1,0-11.2,4.3-12.2,10.3l-0.9,5.6c-0.2,1.3-0.2,2.7,0,4
			c-0.7,1.3-1.3,2.7-1.5,4.2l-0.9,5.6c-0.2,1.4-0.2,2.9,0,4.3c-0.3,0.8-0.6,1.7-0.7,2.5l-0.9,5.6c-0.5,3.3,0.2,6.5,2.1,9.2
			c1.9,2.6,4.6,4.4,7.8,5c0.4,3.3,1.5,6.3,3.3,9L212.2,179c-10.1,2.1-19.2,6.1-26.7,11.8c-10,7.7-16.3,18.1-17.6,29.3
			c-0.7,5.6-0.1,10.9,1.7,16.2c0.3,4.8,0.6,9.8-0.2,14.7c0,0.2,0,0.3-0.1,0.5c-0.4,3.2-2.2,6.6-5.9,10.6c-2.8,2.3-5.4,4.9-7.5,7.1
			c-1.2,1-2.1,2.2-2.7,3.5c-2.9,3.9-5.2,7.8-6.9,11.9c-4.4,6.8-7,14.2-7.9,22c-1.8,17.4,5,36.3,18.7,51.7
			c14.2,16,33.9,26.3,55.5,29.1c3.9,0.5,7.9,0.8,11.8,0.8c19.7,0,39.2-6.2,54.8-17.5c15.8-11.4,25.8-27.1,27.5-42.9
			c0.8-7.3-0.1-14.6-2.6-21.9c-0.6-6.1-2.2-12.3-5-18.2c-0.3-0.7-0.7-1.4-1.2-2l-0.2-0.2l-0.2-0.3c-1.6-2.7-3.3-5.4-5.7-8.5
			c-2.1-3.8-3.9-7.6-3.3-11.2c0-0.3,0.1-0.6,0.1-0.9c0.3-3.7,1.6-7.6,2.8-11.4c0.3-1,0.7-2,1-3c2.9-4.8,4.8-10.1,5.4-15.2
			c1.3-11.4-2.4-23-10.6-32.8c-6.1-7.3-14.2-13.3-23.7-17.6l1.2-15.8c0.1,0,0.1-0.1,0.2-0.1l14.2,14.3c0.1,0.1,0.2,0.2,0.3,0.3
			c3.2,3,7.4,4.7,11.8,4.7c0.3,0,0.5,0,0.8,0c0.2,0,0.4,0,0.6,0l53.7-5.7c4.4-0.3,8.3-2.3,11.3-5.6c3-3.4,4.5-7.8,4.2-12.3
			l-2.9-42.2c-0.5-8.8-7.8-15.7-16.7-15.7c-0.4,0-0.8,0-1.2,0c-0.1,0-0.2,0-0.3,0l-53.9,5.7c-4.8,0.5-9.2,2.9-12,6.7l-7,9.3
			l0.8-11.5l1.5-19.2c1.8-1.6,3.3-3.5,4.5-5.6c0.1,0,0.1,0,0.2,0c6.4,0,11.7-4.8,12.3-11.1l0.6-5.6c0.1-0.9,0.1-1.8,0-2.6
			c0.6-1.3,1-2.7,1.2-4.1l0.6-5.6c0.2-1.5,0-3-0.4-4.5c0.5-1.2,0.9-2.5,1-3.8l0.6-5.6c0.7-6.8-4.3-12.9-11.1-13.5l-1-0.1
			c-0.4,0-0.8-0.1-1.2-0.1c-0.2,0-0.4,0-0.6,0c-3.3-4.2-8.3-7.2-14.2-7.9L250,25.9C249.1,25.8,248.2,25.7,247.4,25.7L247.4,25.7
			L247.4,25.7z"/>
	</g>
</g>
<g>
	<g>
		<path class="st1" d="M101.5,127.9c0,0,24.7-3.3,44.3,26"/>
		<g>
			<path class="st2" d="M120.5,124.7l-16.9-22.4c-1.2-1.6-3-2.5-4.9-2.7l-53.9-5.8c-3.8-0.3-7,2.6-7.2,6.3l-2.9,42.3
				c-0.3,3.8,2.6,7,6.3,7.2l53.9,5.8c2,0.1,3.9-0.6,5.3-2l19.8-20C122.2,131.2,122.5,127.4,120.5,124.7z M106.6,132.9
				c-2.8-0.2-4.9-2.6-4.7-5.3c0.2-2.7,2.6-4.9,5.3-4.7c2.7,0.2,4.9,2.6,4.7,5.3C111.7,131,109.3,133.1,106.6,132.9z"/>
		</g>
		<g>
			<g>
				<text transform="matrix(0.9978 6.700532e-02 -6.700532e-02 0.9978 56.8477 137.0053)" class="st0 st3 st4">27</text>
			</g>
			<text transform="matrix(0.9978 6.700532e-02 -6.700532e-02 0.9978 43.9819 117.5477)" class="st0 st3 st5">$</text>
		</g>
		<path class="st1" d="M105.7,127.9c0,0,7.6-0.2,17.3,4.7"/>
	</g>
	<polygon class="st6" points="112.9,271.3 109.5,279.6 96.7,274.3 100.1,266.1 109.3,262 	"/>
	<path class="st7" d="M168.6,141.5l-53,128.7c-0.4,1-1.6,1.5-2.6,1.1h0l-12.8-5.3h0c-1-0.4-1.5-1.6-1.1-2.6l6.1-14.8
		c0.1,0.1,0.2,0.1,0.3,0.1c3.1,1.3,6.5,0.4,8.6-1.9c0.9-1,0.5-2.6-0.8-3.2l-3.4-1.4c-1-0.4-1.5-1.6-1.1-2.6l43.3-105
		c0.4-1,1.6-1.5,2.6-1.1l12.8,5.3C168.5,139.3,169,140.5,168.6,141.5z"/>
	<g>
		<path class="st8" d="M144.9,164.2c-0.6,0.8-0.6,1.9,0,2.7c0.6,0.8,1.7,1.1,2.7,0.7c0.9-0.4,1.5-1.4,1.4-2.3
			C148.7,163.3,146.1,162.6,144.9,164.2z"/>
		<path class="st8" d="M136.6,184.2c-0.5,0.9-0.3,2,0.4,2.6c0.6,0.6,1.6,0.8,2.4,0.5c1-0.4,1.6-1.6,1.3-2.7
			C140.2,182.8,137.5,182.5,136.6,184.2z"/>
		<path class="st8" d="M140.7,174.3c-0.5,0.8-0.4,1.9,0.2,2.6c0.6,0.7,1.7,1,2.6,0.6c1-0.4,1.6-1.5,1.3-2.6
			C144.4,173,141.7,172.6,140.7,174.3z"/>
		<path class="st8" d="M155.2,143.6c-1-0.1-1.9,0.4-2.3,1.3c-0.9,1.8,1,3.8,2.9,3c1-0.4,1.5-1.4,1.3-2.5
			C156.9,144.5,156.1,143.7,155.2,143.6z"/>
		<path class="st8" d="M132.6,194c-0.5,0.8-0.4,1.9,0.2,2.6c0.6,0.7,1.7,1,2.6,0.6c0.9-0.4,1.5-1.4,1.4-2.4
			C136.4,192.8,133.7,192.3,132.6,194z"/>
		<path class="st8" d="M148.7,154.7c-0.8,1.8,1.1,3.8,2.9,3c1-0.4,1.6-1.5,1.3-2.6C152.5,153.1,149.6,152.8,148.7,154.7z"/>
		<path class="st8" d="M124.4,213.9c-0.9,1.8,1,3.8,2.9,3.1c1-0.4,1.6-1.5,1.3-2.6C128,212.4,125.3,212.1,124.4,213.9z"/>
		<path class="st8" d="M128.5,203.9c-0.5,0.9-0.4,2,0.3,2.7c0.6,0.6,1.6,0.8,2.4,0.5c1-0.4,1.5-1.4,1.3-2.5
			C132.3,202.7,129.5,202.2,128.5,203.9z"/>
	</g>
</g>
<g>
	<g>
		<path class="st1" d="M240.6,176.3c19.6-29.3,44.3-26,44.3-26"/>
		<g>
			<path class="st9" d="M266.5,156l19.8,20c1.4,1.3,3.3,2.1,5.3,2l53.9-5.8c3.7-0.2,6.6-3.4,6.3-7.2l-2.9-42.3
				c-0.2-3.7-3.4-6.6-7.2-6.3l-53.9,5.8c-2,0.2-3.8,1.1-4.9,2.7L266,147.2C263.9,149.9,264.2,153.7,266.5,156z M274.5,150.7
				c-0.2-2.7,2-5.1,4.7-5.3c2.7-0.2,5.1,2,5.3,4.7c0.2,2.7-1.9,5.1-4.7,5.3C277.1,155.6,274.7,153.5,274.5,150.7z"/>
		</g>
		<g>
			<g>
				<text transform="matrix(0.9942 -0.1074 0.1074 0.9942 302.0142 161.2399)" class="st0 st3 st4">84</text>
			</g>
			<text transform="matrix(0.9942 -0.1074 0.1074 0.9942 285.963 144.3134)" class="st0 st3 st5">$</text>
		</g>
		<path class="st1" d="M263.3,155c9.7-4.9,17.3-4.7,17.3-4.7"/>
	</g>
</g>
<g>
	<path class="st6" d="M148.4,307.6c3.1-29.5,38.8-49.2,79.8-44s71.7,33.5,68.6,63c-3.1,29.5-41.9,56.1-82.9,50.8
		S145.3,337.2,148.4,307.6z"/>
	<path id="SVGCleanerId_0" class="st7" d="M237.4,187.8c-30.1-3.5-57,11.5-59.6,33.4c-0.5,4.4,0,8.6,1.7,12.9
		c0.3,5.4,0.8,11.9-0.2,18.4c-0.8,6.9-5,12.5-9,16.8c-2.8,2.2-5.3,4.8-7.5,7.1c-0.4,0.3-0.7,0.6-0.8,1.2c-4.8,6.1-8.2,12.7-9.1,20.9
		c-3.6,27.9,25.4,54.5,64.7,58.8c38.9,4.5,73.3-14.7,76.6-42.9c0.9-7.5-0.8-15.4-4.1-22.4c-0.3-0.4-0.6-0.7-0.6-0.7
		c-1.9-3.1-3.5-5.8-6-9c-2.9-5.1-6-11.2-4.9-18.4c0.5-6.6,3.1-12.7,4.6-17.9c2.3-3.5,4.1-7.8,4.6-12.2
		C290.6,211.8,267.9,191,237.4,187.8z"/>
	<path d="M250.6,222.4c-0.7,6.3-11,4.1-17,3.7l-1.3-0.1c-6.3-0.7-16.4-1.3-15.7-7.6l20.8-132.1c0.7-6.3,6-10.4,12.3-9.7l1.3,0.1
		c6.3,0.7,10.4,6,9.7,12.3L250.6,222.4z"/>
	<path d="M267.2,82.8c-0.7,6.3-6,10.4-12.3,9.7L242.4,91c-6.3-0.7-10.4-6-9.7-12.3l3.2-27.6c0.7-6.3,6-10.4,12.3-9.7l12.6,1.5
		c6.3,0.7,10.4,6,9.7,12.3L267.2,82.8z"/>
	<g>
		<path class="st10" d="M251.2,216.8c-0.7,6.3-11,4.1-17,3.7l-1.5-0.5c-6.3-0.7-16.4-1.3-15.7-7.6l20.8-132.1
			c0.7-6.3,6-10.4,12.3-9.7l1.3,0.1c6.3,0.7,10.4,6,9.7,12.3L251.2,216.8z"/>
		<path class="st10" d="M267.8,77.2c-0.7,6.3-6,10.4-12.3,9.7L243,85.4c-6.3-0.7-10.4-6-9.7-12.3l3.2-27.6c0.7-6.3,6-10.4,12.3-9.7
			l12.6,1.5c6.3,0.7,10.4,6,9.7,12.3L267.8,77.2z"/>
	</g>
	<circle class="st8" cx="229.4" cy="256.8" r="23.2"/>
	<path class="st11" d="M231.1,241.8c11.3,1.3,19.8,10.6,20,21.7c0.1-1.3,0.9-2.4,1.1-3.7c1.5-12.6-7.7-24.1-20.2-25.6
		s-24.1,7.7-25.6,20.2c-0.1,1.3-0.3,2.5,0.2,3.8C209.5,247.5,219.8,240.5,231.1,241.8z"/>
	<path class="st12" d="M248.9,312.6c-0.4,3.8,1.7,7.2-2.1,6.8l-49-5.7c-3.8-0.4-0.9-3.3-0.4-7.1l0,0c0.4-3.8,3.9-6.5,7.7-6.1
		l37.7,4.4C246.6,305.3,249.4,308.8,248.9,312.6L248.9,312.6z"/>
	<path class="st11" d="M249,309.7c-0.4,3.8,1.7,7.2-2.1,6.8l-49-5.7c-3.8-0.4-0.9-3.3-0.4-7.1l0,0c0.4-3.8,3.9-6.5,7.7-6.1l37,4.3
		C246.6,302.4,249.4,305.9,249,309.7L249,309.7z"/>
	<path class="st7" d="M257.2,86.1c-0.1,0.6-0.4,0.9-1.1,0.8l-13.8-1.6c-0.6-0.1-0.9-0.4-0.8-1.1l0,0c0.1-0.6,0.4-0.9,1.1-0.8
		l13.8,1.6C256.7,85.4,257,85.8,257.2,86.1L257.2,86.1z"/>
	<g>
		
			<rect x="232.2" y="41.5" transform="matrix(0.988 0.1546 -0.1546 0.988 9.5287 -36.0096)" class="st10" width="8.2" height="3.5"/>
		<path class="st10" d="M229.8,46.9l-1-0.2c-1.3-0.2-2.2-1.4-1.9-2.7l0.9-5.6c0.2-1.3,1.4-2.2,2.7-1.9l1,0.2
			c1.3,0.2,2.2,1.4,1.9,2.7l-0.9,5.6C232.3,46.2,231.1,47.1,229.8,46.9z"/>
	</g>
	<g>
		
			<rect x="229.7" y="55.3" transform="matrix(0.988 0.1546 -0.1546 0.988 11.6247 -35.4577)" class="st10" width="8.2" height="3.5"/>
		<path class="st10" d="M227.3,60.6l-1-0.2c-1.3-0.2-2.2-1.4-1.9-2.7l0.9-5.6c0.2-1.3,1.4-2.2,2.7-1.9l1,0.2
			c1.3,0.2,2.2,1.4,1.9,2.7l-0.9,5.6C229.8,60,228.6,60.9,227.3,60.6z"/>
	</g>
	<g>
		<rect x="228" y="67.6" transform="matrix(0.988 0.1546 -0.1546 0.988 13.5186 -35.0576)" class="st10" width="8.2" height="3.5"/>
		<path class="st10" d="M225.6,73l-1-0.2c-1.3-0.2-2.2-1.4-1.9-2.7l0.9-5.6c0.2-1.3,1.4-2.2,2.7-1.9l1,0.2c1.3,0.2,2.2,1.4,1.9,2.7
			l-0.9,5.6C228.1,72.4,226.9,73.2,225.6,73z"/>
	</g>
	<g>
		
			<rect x="267.1" y="48.6" transform="matrix(-0.9938 -0.1115 0.1115 -0.9938 535.0323 130.5366)" class="st10" width="8.2" height="3.5"/>
		<path class="st10" d="M276.5,55.5l1,0.1c1.3,0.1,2.5-0.8,2.6-2.1l0.6-5.6c0.1-1.3-0.8-2.5-2.1-2.6l-1-0.1
			c-1.3-0.1-2.5,0.8-2.6,2.1l-0.6,5.6C274.2,54.2,275.2,55.4,276.5,55.5z"/>
	</g>
	<g>
		
			<rect x="265.9" y="62.5" transform="matrix(-0.9938 -0.1115 0.1115 -0.9938 531.0555 158.1591)" class="st10" width="8.2" height="3.5"/>
		<path class="st10" d="M275.3,69.5l1,0.1c1.3,0.1,2.5-0.8,2.6-2.1l0.6-5.6c0.1-1.3-0.8-2.5-2.1-2.6l-1-0.1
			c-1.3-0.1-2.5,0.8-2.6,2.1l-0.6,5.6C273,68.2,273.9,69.3,275.3,69.5z"/>
	</g>
	<g>
		
			<rect x="264.2" y="74.8" transform="matrix(-0.9938 -0.1115 0.1115 -0.9938 526.2928 182.6233)" class="st10" width="8.2" height="3.5"/>
		<path class="st10" d="M273.6,81.8l1,0.1c1.3,0.1,2.5-0.8,2.6-2.1l0.6-5.6c0.1-1.3-0.8-2.5-2.1-2.6l-1-0.1
			c-1.3-0.1-2.5,0.8-2.6,2.1l-0.6,5.6C271.3,80.5,272.3,81.7,273.6,81.8z"/>
	</g>
	<path class="st13" d="M205.5,305.7c1-1,36.9-220.3,36.9-220.3L231.5,69"/>
	<polyline class="st13" points="213.8,306.3 245.6,84.8 233.7,57 	"/>
	<path class="st13" d="M218.8,307.3c0.3-1,29.4-222.2,29.4-222.2l-11.8-41.9"/>
	<path class="st13" d="M225.5,308c0-1,25.3-223.3,25.3-223.3l20.3-34.4"/>
	<polyline class="st13" points="270,64.2 253,85.6 232.5,307 	"/>
	<path class="st13" d="M241.8,309c0-1.7,14.3-222.9,14.3-222.9l12.1-9.5"/>
</g>
</svg>
