<?xml version="1.0" encoding="utf-8"?>
<!-- Generator: Adobe Illustrator 22.1.0, SVG Export Plug-In . SVG Version: 6.00 Build 0)  -->
<svg version="1.1" id="Layer_1" xmlns="http://www.w3.org/2000/svg" xmlns:xlink="http://www.w3.org/1999/xlink" x="0px" y="0px"
	 viewBox="0 0 400 400" style="enable-background:new 0 0 400 400;" xml:space="preserve">
<style type="text/css">
	.st0{fill:#60025E;}
	.st1{enable-background:new    ;}
	.st2{fill:#FFFFFF;}
	.st3{fill:none;stroke:#000000;stroke-width:3.9199;stroke-linecap:round;stroke-linejoin:round;stroke-miterlimit:10;}
	.st4{fill:#0080A4;}
	.st5{font-family:'Nunito-Bold';}
	.st6{font-size:28.9227px;}
	.st7{font-size:15.0282px;}
	.st8{fill:#ED242D;}
	.st9{opacity:0.1;}
	.st10{opacity:0.2;enable-background:new    ;}
	.st11{fill:#FFCD34;}
	.st12{fill:#A05D1F;}
	.st13{opacity:0.77;fill:#FFCD34;enable-background:new    ;}
	.st14{font-size:28.9213px;}
	.st15{fill:#F37720;}
</style>
<path class="st0" d="M283,244.2H117c-8.8,0-16,7.2-16,16v3.6c0,8.8,7.2,16,16,16h166c8.8,0,16-7.2,16-16v-3.6
	C299,251.4,291.8,244.2,283,244.2z"/>
<g class="st1">
	<path class="st2" d="M140.9,269.1c-1.2-0.4-2.1-0.9-2.8-1.6c-0.3-0.2-0.4-0.5-0.4-0.9c0-0.2,0.1-0.5,0.2-0.6
		c0.1-0.2,0.3-0.3,0.5-0.3c0.2,0,0.5,0.1,0.7,0.3c1.6,1.2,3.4,1.9,5.5,1.9c1.5,0,2.6-0.3,3.4-0.9c0.8-0.6,1.2-1.4,1.2-2.4
		c0-0.6-0.2-1.1-0.6-1.5c-0.4-0.4-0.9-0.7-1.5-0.9c-0.6-0.2-1.5-0.5-2.5-0.7c-1.4-0.3-2.6-0.7-3.5-1c-0.9-0.4-1.6-0.9-2.2-1.6
		s-0.8-1.6-0.8-2.7c0-1,0.3-2,0.8-2.8s1.4-1.4,2.4-1.9s2.2-0.7,3.5-0.7c1.2,0,2.3,0.2,3.4,0.6c1,0.4,1.9,0.9,2.6,1.6
		c0.3,0.3,0.4,0.6,0.4,0.9c0,0.2-0.1,0.5-0.2,0.6s-0.3,0.3-0.5,0.3s-0.4-0.1-0.8-0.3c-0.8-0.7-1.6-1.2-2.4-1.5s-1.6-0.4-2.6-0.4
		c-1.4,0-2.6,0.3-3.4,0.9c-0.8,0.6-1.2,1.4-1.2,2.5c0,0.9,0.4,1.6,1.1,2.1c0.7,0.5,1.8,0.9,3.2,1.2c1.6,0.4,2.8,0.7,3.7,1.1
		c0.9,0.3,1.7,0.8,2.2,1.4c0.6,0.6,0.9,1.5,0.9,2.6c0,1-0.3,1.9-0.8,2.7c-0.6,0.8-1.4,1.4-2.4,1.8c-1,0.4-2.2,0.7-3.5,0.7
		C143.4,269.7,142.1,269.5,140.9,269.1z"/>
	<path class="st2" d="M154.6,253.5c-0.3-0.2-0.4-0.6-0.4-1c0-0.4,0.1-0.7,0.4-0.9c0.3-0.2,0.6-0.4,1-0.4s0.8,0.1,1,0.4
		c0.3,0.2,0.4,0.6,0.4,0.9c0,0.4-0.1,0.7-0.4,1c-0.3,0.2-0.6,0.4-1,0.4S154.9,253.7,154.6,253.5z M154.8,269.4
		c-0.2-0.2-0.3-0.4-0.3-0.8v-11c0-0.3,0.1-0.6,0.3-0.8c0.2-0.2,0.5-0.3,0.8-0.3s0.6,0.1,0.8,0.3c0.2,0.2,0.3,0.4,0.3,0.8v11
		c0,0.3-0.1,0.6-0.3,0.8c-0.2,0.2-0.4,0.3-0.8,0.3S155,269.5,154.8,269.4z"/>
	<path class="st2" d="M169.4,268.9c-0.9-0.5-1.6-1.3-2.1-2.3s-0.7-2.1-0.7-3.4s0.3-2.5,0.8-3.5s1.2-1.8,2.1-2.3
		c0.9-0.6,2-0.8,3.2-0.8c0.7,0,1.3,0.1,2,0.3c0.6,0.2,1.2,0.4,1.7,0.8c0.3,0.2,0.5,0.4,0.7,0.6s0.2,0.4,0.2,0.7s-0.1,0.4-0.2,0.6
		s-0.3,0.2-0.5,0.2c-0.1,0-0.3,0-0.4-0.1c-0.1-0.1-0.3-0.1-0.4-0.2c-0.1-0.1-0.2-0.1-0.2-0.1c-0.5-0.3-0.9-0.5-1.3-0.7
		c-0.4-0.2-0.9-0.3-1.5-0.3c-1.3,0-2.2,0.4-3,1.3c-0.7,0.9-1.1,2-1.1,3.6s0.4,2.7,1.1,3.5c0.7,0.8,1.7,1.2,3,1.2
		c0.6,0,1.1-0.1,1.5-0.3c0.4-0.2,0.9-0.4,1.3-0.7c0.2-0.1,0.4-0.2,0.5-0.3s0.3-0.1,0.4-0.1c0.2,0,0.4,0.1,0.5,0.2
		c0.1,0.2,0.2,0.4,0.2,0.6c0,0.2-0.1,0.4-0.2,0.6c-0.1,0.2-0.3,0.4-0.7,0.6c-0.5,0.3-1.1,0.6-1.8,0.8c-0.7,0.2-1.4,0.3-2.1,0.3
		C171.3,269.7,170.3,269.4,169.4,268.9z"/>
	<path class="st2" d="M181.8,268.9c-0.9-0.5-1.6-1.3-2.1-2.3s-0.7-2.2-0.7-3.5c0-1.3,0.2-2.5,0.7-3.5c0.5-1,1.2-1.8,2.1-2.3
		s2-0.8,3.2-0.8c1.2,0,2.3,0.3,3.2,0.8c0.9,0.5,1.6,1.3,2.1,2.3c0.5,1,0.7,2.2,0.7,3.5c0,1.3-0.2,2.5-0.7,3.5
		c-0.5,1-1.2,1.8-2.1,2.3c-0.9,0.5-2,0.8-3.2,0.8C183.8,269.7,182.7,269.4,181.8,268.9z M187.9,266.7c0.7-0.8,1-2,1-3.6
		c0-1.5-0.3-2.7-1-3.6s-1.6-1.3-2.9-1.3c-1.2,0-2.2,0.4-2.9,1.3c-0.7,0.8-1,2-1,3.6c0,1.6,0.3,2.8,1,3.6c0.7,0.8,1.6,1.2,2.9,1.2
		S187.2,267.5,187.9,266.7z"/>
	<path class="st2" d="M212.5,261.6v7c0,0.3-0.1,0.6-0.3,0.8c-0.2,0.2-0.4,0.3-0.8,0.3c-0.3,0-0.6-0.1-0.8-0.3
		c-0.2-0.2-0.3-0.4-0.3-0.8v-7c0-1.2-0.2-2-0.6-2.5c-0.4-0.5-1.1-0.8-2-0.8c-1.1,0-1.9,0.4-2.5,1.1s-0.9,1.7-0.9,2.9v6.3
		c0,0.3-0.1,0.6-0.3,0.8c-0.2,0.2-0.5,0.3-0.8,0.3c-0.3,0-0.6-0.1-0.8-0.3c-0.2-0.2-0.3-0.4-0.3-0.8v-7c0-1.2-0.2-2-0.6-2.5
		c-0.4-0.5-1.1-0.8-2-0.8c-1,0-1.9,0.4-2.5,1.1s-0.9,1.7-0.9,2.9v6.3c0,0.3-0.1,0.6-0.3,0.8c-0.2,0.2-0.4,0.3-0.8,0.3
		s-0.6-0.1-0.8-0.3c-0.2-0.2-0.3-0.4-0.3-0.8v-11c0-0.3,0.1-0.6,0.3-0.8c0.2-0.2,0.5-0.3,0.8-0.3c0.3,0,0.5,0.1,0.7,0.3
		c0.2,0.2,0.3,0.4,0.3,0.7v1.2c0.4-0.7,0.9-1.3,1.6-1.7c0.7-0.4,1.5-0.6,2.3-0.6c2,0,3.3,0.8,3.9,2.5c0.4-0.8,0.9-1.4,1.7-1.8
		c0.7-0.5,1.6-0.7,2.5-0.7C211.1,256.5,212.5,258.2,212.5,261.6z"/>
	<path class="st2" d="M225.6,257.4c0.8,0.6,1.5,1.3,2,2.3c0.5,1,0.7,2.2,0.7,3.5s-0.2,2.5-0.7,3.4c-0.5,1-1.1,1.7-2,2.3
		s-1.8,0.8-3,0.8c-1,0-1.8-0.2-2.6-0.6c-0.7-0.4-1.3-1-1.7-1.8v6.1c0,0.3-0.1,0.6-0.3,0.7c-0.2,0.2-0.4,0.3-0.8,0.3
		s-0.6-0.1-0.8-0.3c-0.2-0.2-0.3-0.4-0.3-0.7v-15.7c0-0.3,0.1-0.6,0.3-0.8c0.2-0.2,0.5-0.3,0.8-0.3s0.6,0.1,0.8,0.3
		c0.2,0.2,0.3,0.4,0.3,0.8v1.4c0.4-0.8,0.9-1.4,1.7-1.8c0.7-0.4,1.6-0.6,2.6-0.6C223.8,256.5,224.8,256.8,225.6,257.4z M225.1,266.7
		c0.7-0.8,1-2,1-3.5s-0.3-2.7-1-3.6s-1.6-1.3-2.9-1.3c-1.2,0-2.2,0.4-2.8,1.2s-1,2-1,3.6c0,1.5,0.3,2.7,1,3.6
		c0.7,0.8,1.6,1.3,2.8,1.3C223.5,267.9,224.5,267.5,225.1,266.7z"/>
	<path class="st2" d="M238.8,257.5c0,0.3-0.1,0.5-0.2,0.7c-0.2,0.2-0.4,0.3-0.8,0.3l-0.8,0.1c-1.2,0.1-2,0.5-2.6,1.2
		c-0.6,0.7-0.8,1.6-0.8,2.5v6.3c0,0.3-0.1,0.6-0.3,0.8c-0.2,0.2-0.4,0.3-0.8,0.3c-0.3,0-0.6-0.1-0.8-0.3c-0.2-0.2-0.3-0.4-0.3-0.8
		v-11c0-0.3,0.1-0.6,0.3-0.8c0.2-0.2,0.5-0.3,0.8-0.3c0.3,0,0.5,0.1,0.7,0.3c0.2,0.2,0.3,0.4,0.3,0.7v1.5c0.4-0.8,0.9-1.3,1.5-1.7
		c0.7-0.4,1.4-0.6,2.3-0.7l0.4,0C238.4,256.5,238.8,256.8,238.8,257.5z"/>
	<path class="st2" d="M250.7,266.8c0.1,0.2,0.2,0.4,0.2,0.6c0,0.4-0.3,0.8-0.9,1.2c-0.6,0.4-1.3,0.6-2,0.8c-0.7,0.2-1.4,0.3-2,0.3
		c-2,0-3.5-0.6-4.6-1.7c-1.1-1.2-1.7-2.8-1.7-4.8c0-1.3,0.3-2.4,0.8-3.4c0.5-1,1.2-1.8,2.1-2.3s1.9-0.8,3.1-0.8c1.6,0,3,0.5,3.9,1.6
		c1,1.1,1.5,2.5,1.5,4.4c0,0.3-0.1,0.6-0.2,0.8c-0.1,0.2-0.4,0.2-0.7,0.2h-8.4c0.2,3,1.6,4.5,4.2,4.5c0.7,0,1.3-0.1,1.7-0.3
		c0.5-0.2,1-0.4,1.6-0.7c0.5-0.3,0.8-0.4,0.9-0.4C250.4,266.6,250.5,266.6,250.7,266.8z M243,259.2c-0.7,0.7-1.1,1.7-1.2,2.9h7.4
		c0-1.3-0.4-2.3-1-3s-1.5-1-2.5-1C244.5,258.2,243.6,258.5,243,259.2z"/>
	<path class="st2" d="M254.1,269.2c-0.3-0.3-0.4-0.6-0.4-1.1c0-0.4,0.1-0.8,0.4-1.1s0.6-0.4,1-0.4c0.4,0,0.7,0.1,1,0.4
		s0.4,0.6,0.4,1.1c0,0.4-0.1,0.8-0.4,1.1c-0.3,0.3-0.6,0.4-1,0.4C254.7,269.6,254.3,269.5,254.1,269.2z"/>
	<path class="st2" d="M260,269.2c-0.3-0.3-0.4-0.6-0.4-1.1c0-0.4,0.1-0.8,0.4-1.1c0.3-0.3,0.6-0.4,1-0.4c0.4,0,0.7,0.1,1,0.4
		c0.3,0.3,0.4,0.6,0.4,1.1c0,0.4-0.1,0.8-0.4,1.1c-0.3,0.3-0.6,0.4-1,0.4C260.6,269.6,260.3,269.5,260,269.2z"/>
	<path class="st2" d="M266,269.2c-0.3-0.3-0.4-0.6-0.4-1.1c0-0.4,0.1-0.8,0.4-1.1s0.6-0.4,1-0.4c0.4,0,0.7,0.1,1,0.4
		s0.4,0.6,0.4,1.1c0,0.4-0.1,0.8-0.4,1.1c-0.3,0.3-0.6,0.4-1,0.4C266.6,269.6,266.3,269.5,266,269.2z"/>
</g>
<g>
	<g>
		<path class="st2" d="M111.1,117.1c-2,0-3.9-0.8-5.2-2.2c-1.1-1.1-1.8-2.6-2-4.2c-1.6-0.1-3-0.8-4.3-1.9c-0.1-0.1-0.2-0.1-0.2-0.2
			c-1.2-1.2-2-2.8-2.1-4.5c-1.8-0.2-3.5-1.1-4.6-2.5c-1.4-1.6-2-3.8-1.6-5.9c0.8-5.3,6.2-8.2,9.3-9.4c1.4-0.6,3-1.1,4.6-1.5
			c0-0.1,0-0.2-0.1-0.4c0-0.1-0.1-0.3-0.1-0.4s0-0.3,0-0.4c0-0.4-0.1-0.7-0.1-1.1s-0.1-0.8-0.1-1.2c0-0.1,0-0.3,0-0.4s0-0.3,0-0.4
			c0-0.6,0-1.2,0.1-1.8v-0.2c0.3-2.8,1.1-5.5,2.4-7.9c-3.8-5.3-8.1-9.4-12.9-12.2L81.5,71.1c-2,2-4.6,3.1-7.4,3.1l0,0
			c-0.2,0-0.4,0-0.5,0s-0.2,0-0.3,0l-42-4.5c-2.7-0.2-5.2-1.4-7-3.5s-2.7-4.8-2.5-7.5l2.3-33c0.3-5.3,4.8-9.6,10.2-9.6
			c0.3,0,0.5,0,0.8,0l42.2,4.5c2.9,0.3,5.6,1.8,7.3,4.1l13.2,17.5c0.7,0.9,1.3,2,1.6,3.1c0.2,0.1,0.3,0.2,0.5,0.3
			c6.4,3.5,12.1,8.5,17,15c2-1,4.2-1.7,6.4-2.1c0.2,0,0.3-0.1,0.5-0.1s0.4,0,0.6-0.1c0.2,0,0.6-0.1,0.9-0.1c0.5,0,0.9-0.1,1.4-0.1
			c0.1,0,0.2,0,0.4,0c0.2,0,0.3,0,0.5,0c0.6,0,1.1,0,1.6,0.1c0.1,0,0.3,0,0.5,0.1c0.5,0.1,0.9,0.1,1.4,0.2c0.4-1.6,0.9-3.1,1.5-4.5
			c1.2-3.2,4.1-8.5,9.5-9.3c0.3-0.1,0.7-0.1,1.1-0.1c2,0,4,0.9,5.3,2.3c1,1.1,1.7,2.5,1.9,4c1.8,0.1,3.5,1,4.7,2.3
			c1.1,1.2,1.7,2.7,1.9,4.3c1.8,0.2,3.5,1.1,4.7,2.5c1.4,1.6,2,3.7,1.6,5.8c-0.8,5.3-6.2,8.2-9.3,9.4c-1.5,0.6-3,1.1-4.5,1.5
			c0,0.1,0,0.2,0,0.3c0,0.2,0.1,0.4,0.1,0.6s0,0.3,0,0.5c0.1,0.4,0.1,0.9,0.1,1.3v0.2c0,0.2,0,0.3,0,0.5s0,0.4,0,0.7
			c0,0.4,0,0.8,0,1.1v0.3c-0.7,10.5-8.6,19.3-19.1,20.9c-0.1,0-0.3,0.1-0.4,0.1c-0.1,0-0.2,0-0.4,0c-0.5,0.1-1,0.1-1.6,0.1
			c0,0-0.4,0-0.5,0c-0.2,0-0.4,0-0.6,0c-0.4,0-0.7,0-1.1,0h-0.4c-0.7,0-1.5-0.1-2.2-0.3c-0.1,0-0.2,0-0.2,0
			c-0.4,1.6-0.9,3.1-1.5,4.5c-1.2,3.2-4.1,8.5-9.5,9.3C111.9,117.1,111.5,117.1,111.1,117.1z"/>
		<path class="st2" d="M34.3,21c0.1,0,0.3,0,0.4,0l42.1,4.5c1.5,0.2,2.9,0.9,3.8,2.1l13.2,17.5c0.8,1,1.2,2.3,1.1,3.5
			c0.6,0.3,1.2,0.5,1.8,0.9c0.2,0.1,0.3,0.2,0.4,0.3c5.8,3.1,12.2,8.2,18,17c0.2,0.3,0.3,0.6,0.3,0.9c2.5-2.2,5.6-3.7,9.1-4.2l0,0
			c0.1,0,0.3,0,0.4,0c0.2,0,0.5,0,0.7-0.1c0.4,0,0.8-0.1,1.2-0.1c0.1,0,0.1,0,0.2,0s0.2,0,0.3,0c0.5,0,0.9,0,1.4,0.1
			c0.1,0,0.3,0,0.4,0c0.4,0.1,0.9,0.1,1.3,0.2c0.2,0,0.3,0.1,0.5,0.1c0.4,0.1,0.8,0.2,1.2,0.3c0.2,0.1,0.4,0.1,0.6,0.2
			c0.3,0.1,0.7,0.2,1,0.4c0.3,0.1,0.6,0.3,0.9,0.4h0.1c0.1-0.7,0.2-1.5,0.4-2.2l0,0c0.5-2.4,1.2-4.8,2-6.9c1-2.5,2.9-5.8,5.6-6.2
			c0.1,0,0.2,0,0.4,0c1.3,0,2.4,1.1,2.2,2.4l-0.1,1.9c-0.1,1.2,0.9,2.2,2,2.2h0.1l2.2-0.1c0.1,0,0.1,0,0.2,0c0.6,0,1.2,0.2,1.5,0.6
			c0.4,0.5,0.7,1,0.6,1.7l-0.1,2.2c-0.1,1.2,0.9,2.2,2,2.2h0.1l1.9-0.1h0.1c1.4,0,2.5,1.2,2.3,2.6c-0.4,2.7-3.7,4.6-6.2,5.6
			c-2.2,0.8-4.5,1.5-6.9,2l0,0c-0.7,0.1-1.5,0.3-2.2,0.4c0.8,1.6,1.3,3.3,1.6,5.2l0,0c0,0.1,0,0.2,0,0.3c0,0.4,0.1,0.8,0.1,1.1
			c0,0.2,0,0.3,0,0.5s0,0.4,0,0.5c0,0.4,0,0.7-0.1,1.1l0,0c-0.5,8.4-6.9,15.2-15.2,16.4l0,0c-0.1,0-0.1,0-0.2,0
			c-0.4,0.1-0.9,0.1-1.4,0.1c-0.1,0-0.2,0-0.4,0c-0.2,0-0.3,0-0.5,0c-0.4,0-0.7,0-1-0.1c-0.1,0-0.1,0-0.2,0c-0.6,0-1.1-0.1-1.7-0.2
			l0,0c-0.6-0.1-1.1-0.2-1.7-0.4H122c-0.5-0.1-1-0.3-1.5-0.5c-0.1,0-0.1-0.1-0.2-0.1c-0.4-0.2-0.8-0.3-1.2-0.5
			c-0.1,0.7-0.2,1.5-0.4,2.2l0,0c-0.5,2.4-1.2,4.8-2,6.9c-1,2.5-2.9,5.8-5.6,6.2c-0.1,0-0.2,0-0.4,0c-1.3,0-2.3-1.1-2.2-2.4l0.1-1.9
			c0.1-1.2-0.8-2.2-2-2.2c-0.1,0-0.1,0-0.2,0l-2.2,0.1c-0.1,0-0.1,0-0.2,0c-0.6,0-1.1-0.3-1.6-0.6c-0.5-0.5-0.7-1-0.6-1.7l0.1-2.2
			c0.1-1.2-0.8-2.2-2-2.2c-0.1,0-0.1,0-0.2,0L97.8,99c-0.1,0-0.1,0-0.2,0c-1.4,0-2.4-1.2-2.2-2.6c0.4-2.7,3.7-4.6,6.2-5.6
			c2.2-0.8,4.5-1.5,6.9-2l0,0c0.7-0.2,1.5-0.3,2.2-0.4c-0.8-1.6-1.3-3.3-1.6-5.2l0,0c0-0.1,0-0.2,0-0.2c0-0.3-0.1-0.6-0.1-0.9
			c0-0.4,0-0.7-0.1-1.1c0-0.1,0-0.1,0-0.2s0-0.2,0-0.3c0-0.5,0-1,0.1-1.5c0-0.1,0-0.1,0-0.2c0.3-3.3,1.6-6.5,3.8-9.2
			c-0.6-0.1-1.1-0.3-1.5-0.8c-6.2-9.2-13-14.1-18.8-16.7L78,67.6c-1,1-2.4,1.6-3.8,1.6c-0.1,0-0.2,0-0.3,0l-42.1-4.5
			c-2.9-0.2-5.2-2.7-4.9-5.6l2.3-33C29.2,23.2,31.5,21,34.3,21 M80,45.5c0.3,0,0.5,0,0.8,0c0.8,0,1.9,0,3.2,0.2
			c0.7,0.1,1.7,0.2,2.8,0.4c-0.6-1.3-1.9-2.2-3.3-2.3c-0.1,0-0.2,0-0.3,0C81.9,43.7,80.7,44.5,80,45.5 M83.3,51.6
			c1.2,0,2.3-0.6,3-1.5c-1.3-0.3-2.4-0.4-3.4-0.5c-0.3,0-0.5,0-0.5,0l0,0c-0.2,0-0.3,0-0.4-0.1c-0.4,0-0.8,0-1.2,0
			c-0.4,0-0.7,0-0.9,0c0.6,1.1,1.8,2,3.2,2.1C83.1,51.6,83.2,51.6,83.3,51.6 M34.3,11c-8,0-14.7,6.3-15.2,14.3l-2.3,32.9
			c-0.3,4.1,1,8.1,3.7,11.2c2.6,3,6.3,4.9,10.3,5.2l41.9,4.5c0.2,0,0.4,0,0.6,0c0.3,0,0.5,0,0.8,0c4.1,0,8-1.6,10.9-4.5l0,0l9.7-9.8
			c2.3,1.7,4.4,3.9,6.5,6.4c-0.8,2.1-1.3,4.4-1.6,6.7c0,0.1,0,0.2,0,0.3c-0.1,0.7-0.1,1.4-0.1,2.1c0,0.2,0,0.4,0,0.6
			c0,0.1,0,0.2,0,0.4c-0.3,0.1-0.6,0.2-1,0.4h-0.1c-7.1,2.8-11.5,7.5-12.4,13.4c-0.5,3.5,0.5,7.1,2.8,9.9c1.2,1.4,2.7,2.5,4.3,3.2
			c0.6,1.5,1.5,2.9,2.7,4.1c0.2,0.2,0.3,0.3,0.5,0.5c1.1,0.9,2.3,1.7,3.6,2.2c0.6,1.3,1.4,2.5,2.4,3.5c2.3,2.4,5.5,3.8,8.8,3.8
			c0.6,0,1.3,0,1.9-0.1c5.8-0.9,10.5-5.3,13.3-12.4v-0.1c0.1-0.3,0.2-0.6,0.3-0.9c0.1,0,0.3,0,0.4,0c0.4,0,0.8,0,1,0
			c0.1,0,0.3,0,0.4,0c0,0,0,0,0.1,0c0.7,0,1.3-0.1,1.8-0.1c0.2,0,0.4,0,0.5-0.1c0.2,0,0.5-0.1,0.7-0.1c12.6-2.1,22.3-12.7,23.1-25.6
			v-0.1v-0.2c0-0.3,0.1-0.9,0.1-1.5c0-0.2,0-0.3,0-0.4c0.3-0.1,0.6-0.2,0.9-0.3h0.1c7.1-2.8,11.5-7.5,12.4-13.3
			c0.6-3.5-0.5-7.1-2.8-9.8c-1.2-1.4-2.7-2.5-4.3-3.2c-0.5-1.3-1.3-2.5-2.2-3.6c-1.2-1.4-2.8-2.5-4.5-3.2c-0.5-1.2-1.3-2.3-2.2-3.3
			c-2.3-2.5-5.6-3.9-9-3.9c-0.6,0-1.3,0-1.9,0.1c-5.8,0.9-10.5,5.3-13.3,12.4v0.1c-0.1,0.3-0.2,0.6-0.4,1c-0.1,0-0.2,0-0.4,0
			c-0.2,0-0.4,0-0.6,0c-0.5,0-1.1,0-1.6,0.1c-0.3,0-0.6,0-0.9,0.1c-0.2,0-0.5,0-0.8,0.1c-0.3,0-0.5,0.1-0.8,0.1
			c-1.3,0.2-2.6,0.5-3.9,1c-4.5-5.3-9.6-9.6-15.1-12.8c-0.5-1-1-1.9-1.7-2.8L88.6,21.6c-2.5-3.4-6.5-5.6-10.8-6l-42.1-4.5
			c-0.1,0-0.2,0-0.3,0C35.1,11,34.7,11,34.3,11L34.3,11z"/>
	</g>
	<g>
		<path class="st2" d="M140.7,228.2c-0.8,0-1.6-0.1-2.4-0.3l-0.2-0.1c-4.7-1.3-7.5-6.3-6.1-11l7.6-26.8c-3.4-4.4-7.2-7.8-11.3-10.2
			l-12.6,12.8c-2,2-4.6,3.1-7.4,3.1c-0.2,0-0.4,0-0.5,0s-0.2,0-0.3,0l-42-4.5c-2.7-0.2-5.2-1.4-7-3.5s-2.7-4.8-2.5-7.5l2.3-33
			c0.3-5.3,4.8-9.6,10.2-9.6c0.3,0,0.5,0,0.8,0l42.2,4.5c2.9,0.3,5.6,1.8,7.3,4.1l13.2,17.5c0.7,0.9,1.3,2,1.6,3.1
			c0.2,0.1,0.3,0.2,0.5,0.3c3.5,1.9,6.8,4.3,9.9,7.1l2-7.2c-5.7-4.3-9.4-10.9-10-18c-1.7-1.8-2.4-4.5-1.7-7l1.3-4.7
			c0.7-2.5,2.7-4.4,5.1-5.1c4.7-6.4,12.2-10.3,20.2-10.3c2.3,0,4.6,0.3,6.8,0.9c10.2,2.9,17.4,11.7,18.2,22.1c0.4,0.4,0.7,0.9,1,1.4
			c1,1.7,1.2,3.7,0.7,5.7l-1.3,4.7c-0.7,2.5-2.7,4.4-5.1,5.1c-4.2,5.8-10.8,9.5-17.9,10.2l-14,49.7
			C148.2,225.5,144.6,228.2,140.7,228.2z"/>
		<path class="st2" d="M160.9,126.9c1.8,0,3.6,0.2,5.5,0.8c9,2.5,14.9,10.9,14.6,19.9l0,0h0.1c1.3,0.4,2.1,1.7,1.7,3l-1.3,4.7
			c-0.3,1.1-1.3,1.8-2.3,1.8c-0.2,0-0.4,0-0.7-0.1h-0.1c-3.6,6.2-10.2,10.1-17.4,10.1c-0.5,0-1,0-1.5-0.1l-15,53.3
			c-0.5,1.7-2,2.8-3.7,2.8c-0.3,0-0.7,0-1.1-0.1l-0.2-0.1c-2.1-0.6-3.3-2.7-2.7-4.8l8.2-29.2c-5.9-8.3-12.3-12.8-17.7-15.3
			L112,189.1c-1,1-2.4,1.6-3.8,1.6c-0.1,0-0.2,0-0.3,0l-42.1-4.5c-2.9-0.2-5.2-2.7-4.9-5.6l2.3-33c0.1-2.8,2.4-4.9,5.2-4.9
			c0.1,0,0.3,0,0.4,0l42.1,4.5c1.5,0.2,2.9,0.9,3.8,2.1l13.2,17.5c0.8,1,1.2,2.3,1.1,3.5c0.6,0.3,1.2,0.5,1.8,0.9
			c0.2,0.1,0.3,0.2,0.4,0.3c4.8,2.5,10.1,6.6,15.1,12.9l5.5-19.4c-6.9-3.5-11.1-10.7-10.9-18.4h-0.1c-1.3-0.4-2.1-1.7-1.7-3l1.3-4.7
			c0.3-1.1,1.3-1.8,2.3-1.8c0.2,0,0.4,0,0.7,0.1h0.1l0,0C147.1,130.8,153.8,126.9,160.9,126.9 M114.1,167.1c0.2,0,0.5,0,0.8,0
			c0.8,0,1.9,0,3.1,0.2c0.7,0.1,1.7,0.2,2.8,0.4c-0.6-1.3-1.9-2.2-3.3-2.3c-0.1,0-0.2,0-0.3,0C115.9,165.3,114.8,166,114.1,167.1
			 M117.3,173.1c1.2,0,2.3-0.6,3.1-1.6c-0.7-0.1-1.3-0.2-1.9-0.3c-1.2-0.1-1.9-0.2-2.1-0.2l0,0l0,0c-0.2,0-0.4,0-0.5-0.1
			c-0.3,0-0.6,0-0.9,0c-0.5,0-0.8,0-1.1,0c0.6,1.2,1.8,2,3.2,2.1C117.1,173.1,117.2,173.1,117.3,173.1 M160.9,116.9
			c-9.1,0-17.7,4.2-23.3,11.1c-3.2,1.5-5.8,4.3-6.8,7.9l-1.3,4.7c-1,3.7-0.3,7.4,1.7,10.3c0.2,1.7,0.6,3.3,1.1,4.9l-9.6-12.7
			c-2.5-3.4-6.5-5.6-10.8-6l-42.1-4.5c-0.1,0-0.2,0-0.3,0c-0.4,0-0.8,0-1.2,0c-8,0-14.7,6.3-15.2,14.3l-2.3,32.9
			c-0.3,4.1,1,8.1,3.7,11.2c2.6,3,6.3,4.9,10.3,5.2l41.9,4.5c0.2,0,0.4,0,0.6,0c0.3,0,0.5,0,0.8,0c4.1,0,8-1.6,10.9-4.5l0,0l9.7-9.8
			c1.8,1.4,3.5,3,5.1,4.9l-6.8,24.3c-2.1,7.4,2.2,15.1,9.6,17.1l0.2,0.1c1.2,0.3,2.5,0.5,3.8,0.5c6.2,0,11.7-4.2,13.4-10.1
			l13.1-46.7c6.7-1.4,12.7-5.1,17.1-10.4c3.2-1.5,5.8-4.3,6.8-7.9l1.3-4.7c0.9-3.2,0.5-6.6-1.1-9.5c-0.2-0.3-0.3-0.6-0.5-0.9
			c-1.6-11.7-9.9-21.6-21.7-24.9C166.4,117.3,163.7,116.9,160.9,116.9L160.9,116.9z"/>
	</g>
	<g>
		<path class="st2" d="M302.2,220.1c-3.1,0-6-1.6-7.7-4.2l-2.1-3.2c-0.1-0.2-0.3-0.4-0.4-0.7c-2,0.8-4.1,1.2-6.3,1.2
			c-1,0-1.9-0.1-2.9-0.2c-0.1,0-0.3-0.1-0.5-0.1c-0.3-0.1-0.5-0.1-0.7-0.1c-0.5-0.1-0.9-0.2-1.4-0.4l-51.7-17.3
			c-0.6-0.2-1.3-0.5-1.9-0.8c-0.1-0.1-0.3-0.1-0.4-0.2c-0.5-0.3-1-0.6-1.5-0.9l-0.3-0.2c-1.2-0.8-2.2-1.7-3.2-2.8l0,0
			c-0.7-0.8-1.3-1.6-1.8-2.4c-0.2,0.1-0.4,0.1-0.6,0.2l-3.9,1.4c-0.1,0.1-0.3,0.1-0.4,0.1c-0.8,0.2-1.5,0.3-2.3,0.3
			c-3.1,0-6-1.6-7.8-4.2c-1.5-2.3-1.9-5.1-0.9-7.5c0.5-1.5,1.4-2.8,2.5-3.9c-0.3-1.6-0.2-3.2,0.3-4.7s1.4-2.9,2.5-3.9
			c-0.3-1.6-0.2-3.2,0.4-4.7c0.1-0.3,0.3-0.9,0.7-1.5c1.6-2.8,4.6-4.5,7.8-4.5c3.1,0,6,1.6,7.6,4.2l2,3.1c0.1,0.2,0.3,0.4,0.4,0.6
			c2-0.8,4.1-1.2,6.3-1.2c0.2,0,0.5,0,0.7,0c0.4,0,0.8,0,1.1,0.1c0.2,0,0.3,0,0.5,0.1c0.4,0.1,0.7,0.1,1.1,0.2
			c0.2,0,0.3,0.1,0.5,0.1c0.6,0.1,1.1,0.3,1.5,0.4l30.1,10.1c4.9-6.3,10.4-11.2,16.6-14.5c0.2-0.1,0.3-0.2,0.5-0.3
			c0.4-1.2,0.9-2.2,1.7-3.2l13.2-17.4c1.7-2.3,4.4-3.8,7.3-4.1l42.2-4.5c0.3,0,0.5,0,0.8,0c5.4,0,9.9,4.2,10.2,9.7l2.3,33
			c0.2,2.7-0.7,5.4-2.5,7.5c-1.8,2-4.3,3.3-7,3.5l-42,4.5c0.8,0.6,1.6,1.3,2.2,2.1c1.7,2.3,2.2,5.2,1.4,7.9c0,0.1-0.1,0.2-0.1,0.3
			c-0.5,1.5-1.4,2.7-2.5,3.8c0.3,1.6,0.2,3.2-0.3,4.7s-1.4,2.9-2.5,3.9c0.3,1.6,0.2,3.1-0.3,4.7c-0.2,0.4-0.3,0.8-0.5,1.2
			C308.5,218.2,305.5,220.1,302.2,220.1z M294.6,181.6c0.9,0.6,1.9,1.3,2.7,2.1c1.1,1.1,2.1,2.3,2.9,3.6c0.2-0.1,0.4-0.1,0.6-0.2
			l3.8-1.4c0.6-0.2,1.2-0.4,1.8-0.5c-0.7-0.4-1.3-0.9-1.9-1.5L292,170.9c-2.9,1.7-5.6,3.9-8.2,6.6l7.3,2.5c0.6,0.2,1.1,0.4,1.7,0.7
			c0.1,0.1,0.2,0.1,0.3,0.2c0.5,0.2,0.9,0.4,1.3,0.7C294.5,181.5,294.6,181.5,294.6,181.6z"/>
		<path class="st2" d="M351.9,133.6c2.8,0,5.1,2.2,5.2,4.9l2.3,33c0.2,3-2,5.5-4.9,5.6l-42.1,4.5c-0.1,0-0.2,0-0.3,0
			c-1.5,0-2.8-0.5-3.8-1.6L293,164.8c-5.4,2.4-11.8,6.9-17.7,15.1l0.5,0.2l2,0.7l0,0l11.7,3.9c0.4,0.1,0.8,0.3,1.2,0.5
			c0.1,0,0.1,0.1,0.2,0.1c0.3,0.2,0.7,0.3,1,0.5h0.1c0.7,0.4,1.4,0.9,2,1.5l0,0l0,0c1.7,1.6,2.9,3.6,3.5,5.8
			c1.8-0.3,3.5-0.8,5.2-1.4l3.8-1.4c0.4-0.2,0.9-0.2,1.3-0.2c2.5,0,4.6,2.5,3.8,5.2l0,0c-0.3,1-1,1.8-1.8,2.3
			c-1.1,0.7-1.5,2.1-1.1,3.3c0.3,0.9,0.3,1.9,0,2.9s-1,1.8-1.8,2.3c-1.1,0.7-1.5,2.1-1.1,3.3c0.3,0.9,0.3,1.9,0,2.9
			c-0.1,0.2-0.1,0.4-0.2,0.6c-0.7,1.4-2,2-3.4,2c-1.3,0-2.7-0.6-3.5-1.9l-2.1-3.2c-1-1.6-2.2-3-3.4-4.3c-2.1,1.7-4.7,2.6-7.5,2.6
			c-0.7,0-1.3-0.1-2-0.2c-0.1,0-0.3,0-0.4-0.1c-0.2,0-0.3-0.1-0.5-0.1c-0.3-0.1-0.7-0.2-1-0.3l-5.5-1.9l0,0l-46.1-15.4
			c-0.5-0.2-0.9-0.4-1.4-0.6c-0.1-0.1-0.2-0.1-0.3-0.2c-0.4-0.2-0.7-0.4-1-0.6c-0.1,0-0.2-0.1-0.2-0.1c-0.8-0.6-1.6-1.2-2.2-2l0,0
			l0,0c-1.5-1.6-2.4-3.7-2.9-5.8c0.1,0.3,0.1,0.6,0.2,0.9c-1.8,0.3-3.5,0.8-5.2,1.4l-3.9,1.4c-0.3,0.1-0.7,0.1-1,0.1
			c-2.7,0-5-2.7-4-5v-0.1c0.3-1,1-1.8,1.8-2.3c1.1-0.7,1.5-2.1,1.1-3.3c-0.3-0.9-0.3-1.9,0-2.9s1-1.8,1.8-2.3
			c1.1-0.7,1.5-2.1,1.1-3.3c-0.3-0.9-0.3-1.9,0-2.9c0.1-0.2,0.1-0.4,0.2-0.6c0.8-1.3,2.1-2,3.5-2c1.3,0,2.6,0.6,3.4,1.8l2.1,3.2
			c1,1.5,2.2,3,3.4,4.3c2.1-1.7,4.7-2.6,7.5-2.6c0.2,0,0.3,0,0.5,0c0.3,0,0.5,0,0.8,0.1c0.1,0,0.3,0,0.4,0.1c0.3,0,0.5,0.1,0.8,0.1
			c0.1,0,0.2,0,0.3,0.1c0.4,0.1,0.7,0.2,1.1,0.3l5.5,1.8l0,0l16.4,5.5l0.8,0.3l0,0l10.9,3.6c5.7-8.3,11.9-13.3,17.5-16.3
			c0.1-0.1,0.3-0.2,0.4-0.3c0.6-0.3,1.2-0.6,1.8-0.9c-0.1-1.2,0.3-2.4,1.1-3.5l13.2-17.5c0.9-1.2,2.3-2,3.8-2.1l42.1-4.5
			C351.6,133.6,351.7,133.6,351.9,133.6 M299.3,158.6c1.2-0.2,2.2-0.3,3-0.4c1.2-0.1,2.2-0.2,3-0.2c0.3,0,0.6,0,0.8,0
			c-0.7-1.1-1.9-1.8-3.2-1.8c-0.1,0-0.2,0-0.3,0C301.2,156.4,299.9,157.4,299.3,158.6 M303.8,162.1L303.8,162.1
			C303.8,162.1,303.7,162.1,303.8,162.1c-0.3,0-1,0-2,0.1c-0.6,0.1-1.3,0.2-2,0.3c0.7,1,1.9,1.6,3.1,1.6c0.1,0,0.2,0,0.3,0
			c1.4-0.1,2.6-0.9,3.2-2.1c-0.3,0-0.7,0-1.1,0c-0.3,0-0.5,0-0.9,0C304.2,162.1,304,162.1,303.8,162.1 M222.1,177.1V177l0,0V177.1
			 M221.9,178.4c0-0.3,0-0.6,0.1-0.8C222,177.9,221.9,178.1,221.9,178.4 M221.9,179.5C221.9,179.5,222,179.6,221.9,179.5
			C222,179.6,221.9,179.5,221.9,179.5c0-0.2,0-0.4,0-0.6C221.9,179.1,221.9,179.3,221.9,179.5 M222,180.2c0,0.2,0,0.3,0.1,0.5
			C222,180.5,222,180.4,222,180.2v-0.1C222,180.1,222,180.2,222,180.2 M297.7,194.7c0,0.1,0,0.2,0,0.2
			C297.7,194.8,297.7,194.8,297.7,194.7s0-0.1,0-0.2C297.7,194.6,297.7,194.6,297.7,194.7 M297.8,195.7c0,0.1,0,0.2,0,0.4
			C297.8,195.9,297.8,195.8,297.8,195.7s0-0.1,0-0.2C297.8,195.6,297.8,195.6,297.8,195.7 M297.8,197c0,0.2,0,0.3,0,0.5
			C297.8,197.3,297.8,197.2,297.8,197s0-0.3,0-0.5C297.8,196.7,297.8,196.8,297.8,197 M297.6,198.1L297.6,198.1c0-0.1,0-0.2,0-0.2
			C297.7,197.9,297.7,198,297.6,198.1 M296.3,202c0-0.1,0.1-0.1,0.1-0.2l0,0C296.4,201.9,296.3,202,296.3,202 M296.1,202.3
			c-0.1,0.1-0.1,0.2-0.2,0.3c-0.1,0.2-0.2,0.3-0.3,0.5c0.1-0.2,0.2-0.3,0.3-0.5C296,202.6,296,202.5,296.1,202.3 M295.3,203.5
			c-0.1,0.1-0.1,0.2-0.2,0.2c-0.1,0.1-0.1,0.2-0.2,0.3c0.1-0.1,0.1-0.2,0.2-0.3C295.2,203.6,295.3,203.6,295.3,203.5 M294.6,204.4
			c-0.1,0.1-0.1,0.1-0.2,0.2c-0.1,0.1-0.1,0.1-0.2,0.2c0.1-0.1,0.1-0.1,0.2-0.2S294.5,204.4,294.6,204.4 M293.9,205.1
			c-0.1,0.1-0.2,0.2-0.4,0.3c-0.1,0.1-0.2,0.1-0.2,0.2c0.1-0.1,0.2-0.1,0.2-0.2C293.6,205.3,293.7,205.2,293.9,205.1 M351.9,123.6
			c-0.4,0-0.8,0-1.2,0c-0.1,0-0.2,0-0.3,0l-42.1,4.5c-4.3,0.5-8.2,2.7-10.8,6.1l-13.1,17.4c-0.7,0.9-1.2,1.8-1.7,2.8
			c-5.4,3.1-10.4,7.3-14.8,12.5l-4.1-1.4l-0.8-0.3l-16.4-5.5l-5.5-1.8c-0.6-0.2-1.3-0.4-2-0.6c-0.2,0-0.4-0.1-0.6-0.1h-0.1
			c-0.5-0.1-0.9-0.2-1.4-0.2c-0.3,0-0.5-0.1-0.7-0.1c-0.5-0.1-1-0.1-1.5-0.1c-0.3,0-0.6,0-0.9,0c-1.4,0-2.7,0.1-4.1,0.4l-0.4-0.7
			c-2.6-4-7-6.5-11.8-6.5c-5,0-9.7,2.7-12.2,7c-0.6,1-0.9,1.9-1.1,2.4c-0.5,1.5-0.8,3-0.8,4.6c-0.9,1.2-1.6,2.6-2.1,4.1
			s-0.7,3-0.7,4.5c-0.9,1.2-1.6,2.5-2.1,3.9c-1.5,3.9-0.9,8.4,1.5,12c2.6,4,7.2,6.4,11.9,6.4c1.2,0,2.5-0.2,3.6-0.5
			c0.3-0.1,0.6-0.2,0.8-0.3l1-0.4c1.2,1.3,2.5,2.4,3.9,3.4c0.1,0.1,0.3,0.2,0.4,0.3c0.6,0.4,1.3,0.8,1.9,1.1
			c0.2,0.1,0.4,0.2,0.6,0.3c0.9,0.4,1.7,0.8,2.5,1l46.1,15.4l5.5,1.9c0.6,0.2,1.2,0.4,1.8,0.5c0.3,0.1,0.5,0.1,0.8,0.2
			c0,0,0,0,0.1,0c0.2,0,0.5,0.1,0.7,0.1c1.2,0.2,2.4,0.3,3.6,0.3c1.4,0,2.7-0.1,4.1-0.4l0.5,0.8c2.6,4,7,6.5,11.9,6.5
			c5.3,0,10-2.9,12.3-7.6c0.3-0.6,0.5-1.2,0.8-1.8c0,0,0,0,0-0.1c0.5-1.5,0.7-3,0.7-4.5c0.9-1.2,1.6-2.6,2.1-4.1s0.7-3,0.7-4.5
			c0.9-1.2,1.6-2.5,2-3.8c0.1-0.1,0.1-0.3,0.2-0.4c0.8-2.5,0.8-5,0.2-7.4l34-3.7c3.9-0.3,7.7-2.2,10.3-5.2c2.7-3.1,4-7.1,3.7-11.2
			l-2.3-32.9C366.6,129.8,359.9,123.6,351.9,123.6L351.9,123.6z"/>
	</g>
	<g>
		<path class="st2" d="M273.9,152.5c-3.5,0-6.6-2.3-7.6-5.7l-13.1-44.7c-1,0.1-2.1,0.1-3.1,0.1l0,0c-6.5,0-12.9-1.7-18.6-4.8
			c-9.1-5-15.7-13.2-18.6-23.2c-2.9-10-1.8-20.5,3.2-29.6c4.1-7.5,10.4-13.3,18.2-16.8c0.1,0,0.2-0.1,0.2-0.1
			c0.1-0.1,0.2-0.1,0.4-0.1c0.5-0.2,0.9-0.4,1.4-0.6l0.6-0.2c0.5-0.2,0.9-0.3,1.4-0.5l0.6-0.2c0.5-0.2,1-0.3,1.6-0.4l0.4-0.1
			c1.4-0.3,2.7-0.6,4.1-0.8h0.3c0.6-0.1,1.2-0.1,1.7-0.2h0.6c0.5,0,1-0.1,1.4-0.1c0.2,0,0.5,0,0.7,0h0.4c0.3,0,0.6,0,1,0
			c0,0,0.5,0,0.7,0c0.5,0,1,0.1,1.5,0.1c0,0,0.4,0,0.6,0c1.4,0.1,2.8,0.3,4.1,0.6c0.2,0,0.6,0.1,0.6,0.1c0.5,0.1,1,0.2,1.4,0.3
			c0.2,0.1,0.5,0.1,0.7,0.2c0.5,0.1,0.9,0.3,1.4,0.4c0.3,0.1,0.5,0.2,0.8,0.3c0.4,0.1,0.9,0.3,1.3,0.5c0.3,0.1,0.5,0.2,0.8,0.3
			c0.4,0.2,0.9,0.4,1.3,0.6c0,0,0.5,0.2,0.7,0.3c0.6,0.3,1.2,0.6,1.8,0.9c0,0,0,0,0.1,0c3.6,2,6.8,4.4,9.6,7.4
			c0.8-0.5,1.6-0.9,2.4-1.4c0.2-0.1,0.3-0.2,0.5-0.3c0.4-1.2,0.9-2.2,1.7-3.2L296,14.2c1.7-2.3,4.4-3.8,7.3-4.1l42.2-4.5
			c0.3,0,0.5,0,0.8,0c5.4,0,9.9,4.2,10.2,9.7l2.3,33c0.2,2.7-0.7,5.4-2.5,7.5c-1.8,2-4.3,3.3-7,3.5l-42,4.5c-0.1,0-0.2,0-0.3,0
			c-0.2,0-0.4,0-0.5,0c-2.8,0-5.4-1.1-7.4-3L286.5,48c-0.2,0.1-0.4,0.2-0.6,0.3c4.4,10.5,4.1,22.5-1.2,32.8l-0.1,0.3
			c-0.1,0.2-0.2,0.5-0.4,0.7c-0.3,0.6-0.7,1.2-1.1,1.8c-0.1,0.1-0.3,0.4-0.3,0.4c-0.3,0.4-0.6,0.9-0.9,1.3c-0.1,0.1-0.3,0.5-0.3,0.5
			c-0.3,0.4-0.6,0.8-0.9,1.2l-0.4,0.5c-0.3,0.4-0.6,0.8-0.9,1.1l-0.4,0.5c-0.3,0.4-0.6,0.7-1,1.1l-0.4,0.4c-0.3,0.3-0.7,0.7-1,1
			l-0.4,0.4c-0.4,0.3-0.7,0.6-1.1,0.9l-0.5,0.4c-0.4,0.3-0.7,0.6-1.1,0.9l-0.5,0.4c-0.4,0.3-0.8,0.6-1.2,0.8c0,0-0.3,0.2-0.4,0.3
			c-0.5,0.3-1,0.6-1.5,0.9c0,0-0.1,0.1-0.2,0.1c-0.4,0.3-0.9,0.5-1.3,0.7c0,0,12.8,43.9,13.1,44.7c0.6,2,0.4,4.2-0.7,6
			c-1,1.8-2.7,3.2-4.7,3.8C275.4,152.4,274.6,152.5,273.9,152.5z"/>
		<path class="st2" d="M346.4,10.6c2.8,0,5.1,2.2,5.2,4.9l2.3,33c0.2,3-2,5.5-4.9,5.6l-42.1,4.5c-0.1,0-0.2,0-0.3,0
			c-1.5,0-2.8-0.5-3.8-1.6l-15.2-15.4c-2.5,1.1-5.2,2.7-7.9,4.8c5.5,9.6,6.1,21.7,0.7,32.2c-0.1,0.3-0.3,0.6-0.4,0.8
			c-0.3,0.5-0.6,1.1-0.9,1.6c-0.1,0.1-0.2,0.2-0.2,0.4c-0.2,0.4-0.5,0.8-0.8,1.1c-0.1,0.1-0.2,0.3-0.3,0.4c-0.3,0.4-0.5,0.7-0.8,1.1
			c-0.1,0.1-0.2,0.3-0.3,0.4c-0.3,0.3-0.5,0.7-0.8,1c-0.1,0.1-0.2,0.3-0.3,0.4c-0.3,0.3-0.6,0.6-0.9,0.9c-0.1,0.1-0.2,0.2-0.4,0.4
			c-0.3,0.3-0.6,0.6-0.9,0.9c-0.1,0.1-0.3,0.2-0.4,0.4c-0.3,0.3-0.6,0.5-0.9,0.8c-0.1,0.1-0.3,0.2-0.4,0.4c-0.3,0.3-0.6,0.5-1,0.8
			c-0.1,0.1-0.3,0.2-0.4,0.3c-0.3,0.3-0.7,0.5-1.1,0.7c-0.1,0.1-0.3,0.2-0.4,0.3c-0.4,0.3-0.9,0.6-1.3,0.8c-0.1,0-0.1,0.1-0.2,0.1
			c-0.5,0.3-1,0.6-1.6,0.9c-0.1,0-0.2,0.1-0.2,0.1c-0.5,0.2-0.9,0.4-1.4,0.6c-0.1,0.1-0.3,0.1-0.4,0.2c-0.4,0.2-0.8,0.3-1.2,0.5
			c6.3,21.6,13.9,47.6,14.3,48.8c0.2,0.8,0.1,1.6-0.2,2.2c-0.4,0.7-1,1.2-1.7,1.4c-0.3,0.1-0.5,0.1-0.8,0.1c-1.3,0-2.4-0.8-2.8-2.1
			c-0.4-1.2-7.9-27.2-14.3-48.8c-2.2,0.4-4.4,0.7-6.7,0.7c-5.5,0-11.1-1.3-16.2-4.2c-16.4-9-22.4-29.6-13.4-46
			c3.7-6.8,9.5-11.8,16.1-14.7l0,0c0.1,0,0.2-0.1,0.3-0.1c0.4-0.2,0.8-0.3,1.2-0.5c0.2-0.1,0.3-0.1,0.5-0.2c0.4-0.1,0.8-0.3,1.2-0.4
			c0.2-0.1,0.3-0.1,0.5-0.2c0.5-0.1,0.9-0.3,1.4-0.4c0.1,0,0.2-0.1,0.4-0.1c1.2-0.3,2.4-0.5,3.6-0.7c0.1,0,0.2,0,0.4,0
			c0.5-0.1,0.9-0.1,1.4-0.1c0.2,0,0.4,0,0.6,0c0.4,0,0.8,0,1.2-0.1c0.2,0,0.4,0,0.6,0c0.1,0,0.2,0,0.4,0c0.3,0,0.6,0,0.9,0
			c0.2,0,0.4,0,0.6,0c0.4,0,0.9,0,1.3,0.1c0.2,0,0.3,0,0.5,0c1.2,0.1,2.4,0.3,3.6,0.5c0.2,0,0.4,0.1,0.5,0.1
			c0.4,0.1,0.8,0.2,1.2,0.3c0.2,0.1,0.4,0.1,0.7,0.2c0.4,0.1,0.8,0.2,1.1,0.3c0.2,0.1,0.5,0.2,0.7,0.2c0.4,0.1,0.7,0.3,1.1,0.4
			c0.2,0.1,0.4,0.2,0.7,0.3c0.4,0.2,0.8,0.3,1.2,0.5c0.2,0.1,0.4,0.2,0.6,0.3c0.6,0.3,1.1,0.5,1.7,0.8l0,0c4.5,2.5,8.2,5.8,11,9.7
			c2.1-1.6,4.1-2.9,6-3.9c0.1-0.1,0.3-0.2,0.4-0.3c0.6-0.3,1.2-0.6,1.8-0.9c-0.1-1.2,0.3-2.4,1.1-3.5L300,17.2
			c0.9-1.2,2.3-2,3.8-2.1l42.1-4.5C346.1,10.6,346.2,10.6,346.4,10.6 M293.8,35.6c1.2-0.2,2.1-0.3,2.9-0.4c1.2-0.1,2.2-0.2,3.1-0.2
			c0.3,0,0.6,0,0.8,0c-0.7-1.1-1.9-1.8-3.2-1.8c-0.1,0-0.2,0-0.3,0C295.7,33.4,294.4,34.4,293.8,35.6 M298.3,39.1L298.3,39.1
			c-0.1,0-0.1,0-0.1,0c-0.2,0-0.9,0-2,0.2c-0.6,0.1-1.2,0.2-1.9,0.3c0.7,1,1.9,1.6,3.1,1.6c0.1,0,0.2,0,0.3,0
			c1.4-0.1,2.6-0.9,3.2-2.1c-0.3,0-0.7,0-1.1,0c-0.3,0-0.5,0-0.8,0S298.5,39.1,298.3,39.1 M346.4,0.6L346.4,0.6c-0.4,0-0.8,0-1.2,0
			c-0.1,0-0.2,0-0.3,0l-42.1,4.5c-4.3,0.5-8.2,2.7-10.8,6.1l-13.1,17.4c-0.2,0.3-0.5,0.6-0.7,0.9c-2.2-1.8-4.5-3.4-7-4.8
			c0,0-0.1-0.1-0.2-0.1c-0.6-0.3-1.3-0.7-2-1c-0.2-0.1-0.4-0.2-0.6-0.3l-0.1-0.1c-0.5-0.2-1-0.4-1.5-0.7c-0.2-0.1-0.5-0.2-0.7-0.3
			H266c-0.5-0.2-0.9-0.4-1.4-0.5c-0.3-0.1-0.6-0.2-0.9-0.3c-0.5-0.2-1-0.3-1.5-0.4h-0.1c-0.2-0.1-0.5-0.1-0.7-0.2
			c-0.5-0.1-1.1-0.3-1.6-0.4h-0.1c-0.2,0-0.4-0.1-0.6-0.1c-1.5-0.3-3.1-0.6-4.7-0.7c-0.2,0-0.4,0-0.6,0h-0.1c-0.6,0-1.1-0.1-1.7-0.1
			c-0.2,0-0.5,0-0.7,0h-0.1c-0.4,0-0.7,0-1.1,0c-0.2,0-0.3,0-0.5,0c-0.3,0-0.5,0-0.8,0c-0.5,0-1.1,0-1.6,0.1h-0.1
			c-0.2,0-0.4,0-0.6,0c-0.6,0-1.2,0.1-1.8,0.2c-0.2,0-0.3,0-0.5,0.1c-1.5,0.2-3.1,0.5-4.6,0.9c-0.1,0-0.3,0.1-0.4,0.1
			c-0.7,0.2-1.2,0.3-1.8,0.5c-0.2,0.1-0.4,0.1-0.5,0.2h-0.1c-0.5,0.2-1.1,0.4-1.6,0.5c-0.2,0.1-0.4,0.2-0.6,0.2
			c-0.5,0.2-1,0.4-1.5,0.6c-0.2,0.1-0.3,0.1-0.5,0.2c-0.1,0.1-0.2,0.1-0.4,0.2c-8.8,3.9-15.9,10.5-20.5,18.9
			c-11.6,21.2-3.8,47.9,17.4,59.6c6.3,3.4,13.3,5.3,20.4,5.4l10.4,35.7l1.5,5.3c1.6,5.5,6.7,9.3,12.4,9.3c1.2,0,2.4-0.2,3.6-0.5
			c3.3-1,6-3.2,7.7-6.2s2-6.5,1.1-9.8l-6.1-20.8l-5.9-20.2c0.1-0.1,0.2-0.1,0.3-0.2h0.1c0.5-0.3,0.9-0.6,1.4-0.9
			c0.2-0.1,0.3-0.2,0.5-0.3l0.1-0.1c0.4-0.3,0.8-0.6,1.3-1c0.2-0.1,0.3-0.3,0.5-0.4l0,0c0.4-0.3,0.8-0.7,1.2-1
			c0.2-0.2,0.3-0.3,0.5-0.5c0.4-0.4,0.8-0.7,1.2-1.1l0,0c0.1-0.1,0.3-0.3,0.4-0.4c0.4-0.4,0.8-0.8,1.1-1.2l0.1-0.1
			c0.1-0.1,0.2-0.3,0.4-0.4c0.4-0.4,0.7-0.9,1.1-1.3l0.1-0.1c0.1-0.1,0.2-0.3,0.3-0.4c0.3-0.4,0.7-0.9,1-1.4v-0.1
			c0.1-0.2,0.2-0.3,0.3-0.5c0.4-0.5,0.7-1.1,1-1.5l0,0c0.1-0.2,0.2-0.3,0.3-0.5c0.4-0.7,0.8-1.4,1.2-2c0.2-0.3,0.3-0.6,0.5-0.9
			l0.1-0.2c3.3-6.5,5-13.6,4.8-20.7l1.6,1.6l0,0c2.9,2.9,6.8,4.5,10.9,4.5c0.3,0,0.5,0,0.8,0c0.2,0,0.4,0,0.6,0l41.9-4.5
			c3.9-0.3,7.7-2.2,10.3-5.2c2.7-3.1,4-7.1,3.7-11.2l-2.3-32.9C361.1,6.8,354.4,0.6,346.4,0.6L346.4,0.6z"/>
	</g>
</g>
<g>
	<path class="st3" d="M79,47.6c0,0,19.3-2.6,34.6,20.3"/>
	<g>
		<path class="st4" d="M93.8,45.1L80.6,27.7c-0.9-1.2-2.3-2-3.8-2.1L34.7,21c-3-0.2-5.5,2-5.6,4.9l-2.3,33c-0.2,3,2,5.5,4.9,5.6
			L73.8,69c1.6,0.1,3-0.5,4.1-1.6l15.5-15.6C95.2,50.2,95.5,47.3,93.8,45.1z M83,51.5c-2.2-0.2-3.8-2-3.7-4.1s2-3.8,4.1-3.7
			c2.1,0.2,3.8,2,3.7,4.1C87,50.1,85.1,51.7,83,51.5z"/>
	</g>
	<g>
		<g>
			<text transform="matrix(0.9978 6.699901e-02 -6.699901e-02 0.9978 51.1699 53.9634)" class="st2 st5 st6">3</text>
		</g>
		<text transform="matrix(0.9978 6.699901e-02 -6.699901e-02 0.9978 39.8213 49.1806)" class="st2 st5 st7">$</text>
	</g>
	<path class="st3" d="M82.3,47.6c0,0,5.9-0.2,13.5,3.7"/>
	<g>
		<path class="st8" d="M134.3,71.1c0,1.5,1.2,2.6,2.6,2.6c4.8,0.1,10.5-1.1,15.2-2.9c2.5-1,5.8-2.9,6.2-5.6l0,0
			c0.2-1.5-0.9-2.7-2.4-2.6l-1.9,0.1c-1.2,0.1-2.3-0.9-2.2-2.2l0.1-2.2c0.1-0.7-0.2-1.3-0.6-1.7s-1-0.7-1.7-0.6l-2.2,0.1
			c-1.2,0.1-2.3-0.9-2.2-2.2l0.1-1.9c0.1-1.5-1.2-2.6-2.6-2.4l0,0c-2.7,0.4-4.6,3.7-5.6,6.2C135.4,60.6,134.2,66.3,134.3,71.1z"/>
		<g class="st9">
			<path d="M136.9,72c-0.1,0-0.1,0-0.2,0c-0.5-0.1-0.8-0.6-0.8-1c0.3-1.7,2.6-7.6,5-10.3c0.3-0.3,0.9-0.4,1.3-0.1
				c0.3,0.3,0.4,0.9,0.1,1.3c-2.2,2.3-4.3,8.1-4.5,9.4C137.7,71.7,137.3,72,136.9,72z"/>
			<path d="M136.9,72c-0.5,0-0.8-0.3-0.9-0.8c-0.1-0.5,0.2-1,0.8-1c1.3-0.2,7-2.4,9.4-4.5c0.3-0.3,0.9-0.3,1.3,0.1
				c0.3,0.3,0.3,0.9-0.1,1.3c-2.7,2.4-8.6,4.7-10.3,5C137,72,137,72,136.9,72z"/>
		</g>
		<path class="st10" d="M135.2,62.8c-0.6,2.8-0.9,5.7-0.9,8.3c0,1.5,1.2,2.6,2.6,2.6c2.6,0,5.5-0.3,8.3-0.9
			c-0.9-2.2-2.3-4.2-4.1-5.9C139.4,65.1,137.3,63.8,135.2,62.8z"/>
		<path class="st8" d="M117.3,88.1c1.5,0,2.6,1.2,2.6,2.6c0.1,4.8-1.1,10.5-2.9,15.2c-1,2.5-2.9,5.8-5.6,6.2l0,0
			c-1.5,0.2-2.7-0.9-2.6-2.4l0.1-1.9c0.1-1.2-0.9-2.3-2.2-2.2l-2.2,0.1c-0.7,0.1-1.3-0.2-1.7-0.6c-0.5-0.5-0.7-1-0.6-1.7l0.1-2.2
			c0.1-1.2-0.9-2.3-2.2-2.2l-1.9,0.1c-1.5,0.1-2.6-1.2-2.4-2.6l0,0c0.4-2.7,3.7-4.6,6.2-5.6C106.8,89.2,112.6,88,117.3,88.1z"/>
		<g class="st9">
			<path d="M107.6,96.3c-0.2,0-0.5-0.1-0.7-0.3c-0.3-0.3-0.3-0.9,0.1-1.3c2.7-2.4,8.6-4.7,10.3-5c0.5-0.1,1,0.2,1,0.8s-0.2,1-0.8,1
				c-1.3,0.2-7,2.4-9.4,4.5C108,96.2,107.8,96.3,107.6,96.3z"/>
			<path d="M112.6,101.4c-0.2,0-0.5-0.1-0.6-0.2c-0.3-0.3-0.4-0.9-0.1-1.3c2.2-2.3,4.3-8.1,4.5-9.4c0.1-0.5,0.6-0.8,1-0.8
				c0.5,0.1,0.8,0.6,0.8,1c-0.3,1.7-2.6,7.6-5,10.3C113.1,101.2,112.9,101.4,112.6,101.4z"/>
		</g>
		<path class="st10" d="M109,88.9c2.8-0.6,5.7-0.9,8.3-0.9c1.5,0,2.6,1.2,2.6,2.6c0,2.6-0.3,5.5-0.9,8.3c-2.2-0.9-4.2-2.3-5.9-4.1
			C111.3,93.1,110,91.1,109,88.9z"/>
		<circle class="st11" cx="127.2" cy="80.9" r="17.7"/>
		<g>
			<path class="st8" d="M124.7,63.4c-2.6,2.8-4.5,6.6-3.7,10.9c0.8,4.2,5.1,6.4,6.1,6.6c-3-5.3,1.2-11.6,6.6-13
				c1.8-0.5,3.3-0.6,4.6-0.6C134.4,64,129.4,62.7,124.7,63.4z"/>
			<path class="st8" d="M109.7,83.3c2.8,2.6,6.6,4.5,10.9,3.7c4.2-0.8,6.4-5.1,6.6-6.1c-5.3,3-11.6-1.2-13-6.6
				c-0.5-1.8-0.6-3.3-0.6-4.6C110.2,73.6,109,78.6,109.7,83.3z"/>
			<path class="st8" d="M129.6,98.4c2.6-2.8,4.5-6.6,3.7-10.9c-0.8-4.2-5.1-6.4-6.1-6.6c3,5.3-1.2,11.6-6.6,13
				c-1.8,0.5-3.3,0.6-4.6,0.6C119.8,97.8,124.8,99,129.6,98.4z"/>
			<path class="st8" d="M144.6,78.4c-2.8-2.6-6.6-4.5-10.9-3.7c-4.2,0.8-6.4,5.1-6.6,6.1c5.3-3,11.6,1.2,13,6.6
				c0.5,1.8,0.6,3.3,0.6,4.6C144,88.2,145.3,83.2,144.6,78.4z"/>
		</g>
	</g>
</g>
<g>
	<path class="st3" d="M113,169.1c0,0,19.3-2.6,34.6,20.3"/>
	<g>
		<path class="st4" d="M127.8,166.7l-13.2-17.5c-0.9-1.2-2.3-2-3.8-2.1l-42.1-4.5c-3-0.2-5.5,2-5.6,4.9l-2.3,33
			c-0.2,3,2,5.5,4.9,5.6l42.1,4.5c1.6,0.1,3-0.5,4.1-1.6l15.5-15.6C129.2,171.8,129.5,168.8,127.8,166.7z M117.1,173.1
			c-2.2-0.2-3.8-2-3.7-4.1c0.2-2.1,2-3.8,4.1-3.7c2.1,0.2,3.8,2,3.7,4.1C121,171.6,119.1,173.2,117.1,173.1z"/>
	</g>
	<g>
		<g>
			<text transform="matrix(0.9978 6.699901e-02 -6.699901e-02 0.9978 85.1869 175.4951)" class="st2 st5 st6">7</text>
		</g>
		<text transform="matrix(0.9978 6.699901e-02 -6.699901e-02 0.9978 73.8382 170.7128)" class="st2 st5 st7">$</text>
	</g>
	<path class="st3" d="M116.4,169.1c0,0,5.9-0.2,13.5,3.7"/>
</g>
<g>
	<path class="st12" d="M161.1,161.2l-16.7,59.2c-0.6,2.1-2.7,3.3-4.8,2.7l-0.2-0.1c-2.1-0.6-3.3-2.7-2.7-4.8l16.7-59.2
		c0.6-2.1,2.8-3.3,4.9-2.7l0,0l0,0C160.4,156.9,161.7,159.1,161.1,161.2z"/>
	<g>
		<path class="st8" d="M140.9,146.4l37.5,10.6c-4.1,7.1-12.3,11.2-20.6,9.8c-0.8-0.1-1.5-0.3-2.3-0.5s-1.5-0.5-2.2-0.8
			C145.5,162.3,140.6,154.6,140.9,146.4z"/>
		<path class="st8" d="M178.3,157l-37.5-10.6h-0.1c-1.3-0.4-2.1-1.7-1.7-3l1.3-4.7c0.4-1.3,1.7-2.1,3-1.7h0.1l37.5,10.6h0.1
			c1.3,0.4,2.1,1.7,1.7,3l-1.3,4.7C181.1,156.6,179.7,157.4,178.3,157L178.3,157z"/>
		<path class="st10" d="M178.3,157l-37.5-10.6h-0.1c-1.3-0.4-2.1-1.7-1.7-3l1.3-4.7c0.4-1.3,1.7-2.1,3-1.7h0.1l37.5,10.6h0.1
			c1.3,0.4,2.1,1.7,1.7,3l-1.3,4.7C181.1,156.6,179.7,157.4,178.3,157L178.3,157z"/>
		<path class="st8" d="M181,147.6L181,147.6L143.5,137l0,0c4.5-7.8,13.8-11.9,22.9-9.3C175.4,130.2,181.3,138.6,181,147.6z"/>
		<path class="st13" d="M175.4,143.1c-0.4-0.1-0.8-0.4-0.9-0.9c-0.7-2.1-2-4-3.6-5.6c-0.6-0.5-0.6-1.4,0-2c0.5-0.6,1.4-0.6,2,0
			c1.9,1.9,3.4,4.2,4.3,6.7c0.3,0.7-0.1,1.5-0.9,1.8C176,143.2,175.7,143.2,175.4,143.1z"/>
		<path class="st13" d="M161.4,164.1c-0.6-0.2-1-0.7-1-1.3c0-0.8,0.6-1.4,1.3-1.5c3-0.2,5.9-1.3,8.2-3.1c0.6-0.5,1.5-0.4,2,0.2
			c0.5,0.6,0.4,1.5-0.2,2c-2.8,2.2-6.3,3.6-9.8,3.8C161.7,164.1,161.5,164.1,161.4,164.1z"/>
		<path class="st13" d="M177.2,154.4c-0.7-0.2-1.2-1-1-1.7l0.7-2.4c0.2-0.7,1-1.2,1.7-1s1.2,1,1,1.7l-0.7,2.4
			C178.7,154.2,177.9,154.7,177.2,154.4z"/>
		<circle class="st13" cx="168.2" cy="133" r="1.4"/>
	</g>
</g>
<path class="st3" d="M267.1,57.4c15.3-22.9,34.6-20.3,34.6-20.3"/>
<g>
	<path class="st4" d="M287.2,41.5l15.5,15.6c1.1,1.1,2.6,1.6,4.1,1.6l42.1-4.5c2.9-0.2,5.2-2.7,4.9-5.6l-2.3-33
		c-0.2-2.9-2.7-5.2-5.6-4.9l-42.1,4.5c-1.5,0.2-2.9,0.9-3.8,2.1l-13.2,17.5C285.2,36.8,285.4,39.8,287.2,41.5z M293.5,37.4
		c-0.2-2.1,1.6-4,3.7-4.1c2.1-0.2,4,1.6,4.1,3.7c0.2,2.1-1.5,4-3.7,4.1C295.6,41.3,293.6,39.6,293.5,37.4z"/>
</g>
<g>
	<g>
		<text transform="matrix(0.9977 -6.818280e-02 6.818280e-02 0.9977 312.5817 46.1483)" class="st2 st5 st14">15</text>
	</g>
	<text transform="matrix(0.9978 6.699901e-02 -6.699901e-02 0.9978 302.7333 31.8654)" class="st2 st5 st7">$</text>
</g>
<path class="st3" d="M284.8,40.8c7.6-3.8,13.5-3.7,13.5-3.7"/>
<path class="st3" d="M272.6,180.4c15.3-22.9,34.6-20.3,34.6-20.3"/>
<g>
	<path class="st4" d="M292.7,164.5l15.5,15.6c1.1,1.1,2.6,1.6,4.1,1.6l42.1-4.5c2.9-0.2,5.2-2.7,4.9-5.6l-2.3-33
		c-0.2-2.9-2.7-5.2-5.6-4.9l-42.1,4.5c-1.5,0.2-2.9,0.9-3.8,2.1l-13.2,17.5C290.7,159.8,290.9,162.8,292.7,164.5z M299,160.4
		c-0.2-2.1,1.6-4,3.7-4.1c2.1-0.2,4,1.6,4.1,3.7s-1.5,4-3.7,4.1C301.1,164.3,299.1,162.6,299,160.4z"/>
</g>
<g>
	<g>
		<text transform="matrix(0.9977 -6.818280e-02 6.818280e-02 0.9977 318.0817 169.1483)" class="st2 st5 st14">10</text>
	</g>
	<text transform="matrix(0.9978 6.699901e-02 -6.699901e-02 0.9978 308.2333 154.8658)" class="st2 st5 st7">$</text>
</g>
<path class="st3" d="M290.3,163.8c7.6-3.8,13.5-3.7,13.5-3.7"/>
<g>
	<path class="st12" d="M271.1,145.4c0.5,1.5,2.1,2.4,3.6,2c0.8-0.2,1.4-0.7,1.7-1.4c0.4-0.7,0.5-1.4,0.2-2.2
		c-0.4-1.2-8.5-29-14.9-51.1l-5.6,1.6C262.6,116.3,270.7,144.1,271.1,145.4z"/>
	<circle class="st8" cx="250.1" cy="63.3" r="33.9"/>
	<circle class="st15" cx="250.1" cy="63.3" r="23.6"/>
	<circle class="st11" cx="250.1" cy="63.3" r="9.4"/>
	<g class="st10">
		<path d="M236.5,32.3c0.8,2.2,3.1,3.4,5.3,2.7c15.6-4.6,32,4.4,36.6,20c3.9,13.5-2.2,27.6-14.1,34.1c-1.6,0.9-3.7,0-4.2-1.7
			l-6.3-21.5c-0.4-1.5-2-2.5-3.5-2.1c-1.6,0.4-2.6,2.1-2.1,3.7c0.4,1.2,8.1,27.8,8.5,29c9.9-2,18.3-8.2,23-16.9c9-16.4,3-37-13.4-46
			C256.8,28.4,245.8,28.2,236.5,32.3z"/>
		<path d="M229.2,64.3c0.1-0.2,0.2-0.5,0.2-0.7c-0.1-3.6,0.8-7.1,2.6-10.3c2.7-4.9,7.1-8.4,12.4-9.9c1.8-0.5,3.7-0.8,5.6-0.8l0,0
			l0,0l0,0c1.8,0,3.6,0.2,5.4,0.7c0.6,0.2,1.3-0.1,1.6-0.7c0.1-0.1,0.1-0.2,0.1-0.3c0.2-0.8-0.3-1.6-1-1.8c-2-0.5-4.1-0.8-6.2-0.8
			c-2.2,0-4.3,0.3-6.4,1c-3,0.9-5.8,2.3-8.2,4.3c-2.4,1.9-4.4,4.3-5.9,7.1l0,0c-1,1.8-1.7,3.7-2.2,5.7s-0.7,4-0.7,6
			c0,0.8,0.7,1.4,1.5,1.4C228.5,65.1,228.9,64.8,229.2,64.3z"/>
		<path d="M265.1,77.7c-2.5,2.6-5.7,4.5-9.2,5.6c-5.3,1.6-10.9,0.9-15.8-1.7c-1.6-0.9-3.1-2-4.4-3.3l0,0l0,0
			c-1.3-1.3-2.4-2.7-3.4-4.2c-0.4-0.7-1.3-0.9-2-0.5c-0.2,0.1-0.4,0.3-0.5,0.5c-0.2,0.5-0.2,1,0,1.5c1.1,1.8,2.4,3.4,3.9,4.9l0,0
			c1.5,1.5,3.2,2.7,5.1,3.7c2.7,1.5,5.6,2.4,8.6,2.8c3.1,0.4,6.3,0.1,9.4-0.8c2-0.6,3.9-1.4,5.7-2.5c1.8-1.1,3.4-2.4,4.8-3.8
			c0.1-0.1,0.2-0.2,0.2-0.3c0.3-0.6,0.2-1.3-0.3-1.8c-0.3-0.3-0.7-0.4-1-0.4C265.8,77.2,265.4,77.4,265.1,77.7z"/>
		<path d="M264.7,46.5c-0.1,0.1-0.2,0.2-0.2,0.3c-0.3,0.6-0.2,1.3,0.3,1.7c2.5,2.5,4.4,5.6,5.4,9c1.6,5.3,0.9,10.9-1.7,15.8
			c-0.4,0.7-0.1,1.6,0.6,2s1.6,0.1,2-0.6l0,0l0,0c1.5-2.8,2.4-5.7,2.8-8.8c0.3-3.1,0.1-6.2-0.8-9.2c-0.6-2-1.4-3.9-2.5-5.6
			c-1-1.7-2.3-3.3-3.7-4.6c-0.3-0.3-0.6-0.4-1-0.4C265.3,46,264.9,46.2,264.7,46.5z"/>
		<path d="M258.9,61c0.6,2.3,0.3,4.5-0.8,6.7c-0.4,0.7-0.1,1.6,0.6,2s1.6,0.1,2-0.6l0,0c0.7-1.4,1.2-2.8,1.4-4.3
			c0.2-1.5,0.1-3-0.3-4.5c-0.2-0.8-1-1.2-1.8-1c-0.4,0.1-0.7,0.4-0.9,0.7C258.9,60.3,258.8,60.7,258.9,61z"/>
		<path d="M256.4,54.7c-0.1,0.1-0.2,0.2-0.2,0.3c-0.3,0.6-0.2,1.3,0.3,1.8c0.6,0.6,1.5,0.5,2.1,0c0.1-0.1,0.2-0.2,0.2-0.3
			c0.3-0.6,0.2-1.3-0.3-1.8c-0.3-0.3-0.7-0.4-1-0.4C257,54.3,256.6,54.4,256.4,54.7z"/>
		<path d="M254.6,71.2c-0.6,0.3-1.3,0.6-2,0.8c-2.3,0.7-4.8,0.4-6.9-0.7c-2.1-1.2-3.7-3.1-4.4-5.4c-0.7-2.4-0.4-4.7,0.8-6.9
			c1.1-2,2.8-3.4,4.9-4.2c0.2-0.1,0.3-0.1,0.5-0.2c1.5-0.4,3-0.5,4.4-0.2c0.6,0.1,1.3-0.2,1.6-0.7c0.1-0.1,0.1-0.3,0.1-0.4
			c0.2-0.8-0.3-1.6-1.1-1.7c-1.9-0.4-4-0.3-5.9,0.2c-0.2,0.1-0.4,0.1-0.7,0.2c-1.4,0.5-2.7,1.2-3.8,2.1c-1.1,0.9-2,2.1-2.7,3.4l0,0
			l0,0c-0.8,1.4-1.2,2.9-1.4,4.5s0,3.1,0.4,4.7c0.5,1.6,1.2,3,2.2,4.2s2.2,2.2,3.6,2.9c1.4,0.7,2.8,1.2,4.4,1.4
			c1.6,0.2,3.2,0,4.7-0.4c0.9-0.3,1.8-0.6,2.6-1.1c0.2-0.1,0.4-0.3,0.6-0.6c0.2-0.4,0.2-1,0-1.4c-0.2-0.3-0.5-0.6-0.9-0.7
			C255.4,71,255,71,254.6,71.2z"/>
	</g>
</g>
<g>
	<g>
		<path class="st8" d="M297.4,193.1c0.6,2.2,0.6,4.6-0.2,6.9l0,0c-0.8,2.3-2.2,4.3-4,5.7c1.3,1.4,2.4,2.8,3.4,4.3l2.1,3.2
			c1.6,2.5,5.5,2.5,6.9-0.2c0.1-0.2,0.2-0.4,0.2-0.6c0.3-1,0.3-2,0-2.9c-0.4-1.2,0.1-2.6,1.1-3.3c0.8-0.5,1.4-1.3,1.8-2.3
			s0.3-2,0-2.9c-0.4-1.2,0.1-2.6,1.1-3.3c0.8-0.5,1.4-1.3,1.8-2.3l0,0c0.9-3-2.1-6-5.1-4.9l-3.8,1.4
			C300.9,192.3,299.2,192.8,297.4,193.1"/>
		<path class="st8" d="M222.3,182c-0.6-2.2-0.6-4.6,0.2-6.9l0,0c0.8-2.3,2.2-4.3,4-5.7c-1.3-1.4-2.4-2.8-3.4-4.3l-2.1-3.2
			c-1.6-2.5-5.3-2.5-6.9,0.2c-0.1,0.2-0.2,0.4-0.2,0.6c-0.3,1-0.3,2,0,2.9c0.4,1.2-0.1,2.6-1.1,3.3c-0.8,0.5-1.4,1.3-1.8,2.3
			c-0.3,1-0.3,2,0,2.9c0.4,1.2-0.1,2.6-1.1,3.3c-0.8,0.5-1.4,1.3-1.8,2.3v0.1c-1.1,2.6,2,5.7,5.1,4.9l3.9-1.4
			C218.8,182.7,220.6,182.3,222.3,182"/>
	</g>
	<g>
		<path class="st15" d="M295.8,200.7c-0.2-0.3-0.2-0.8-0.1-1.2c0.3-0.8,1.1-1.2,1.9-1l5.7,1.9c0.8,0.3,1.2,1.1,1,1.9
			c-0.3,0.8-1.1,1.2-1.9,1l-5.7-1.9C296.3,201.3,296,201,295.8,200.7"/>
		<path class="st15" d="M298.7,206.4l-2.9-5.7c-0.4-0.7-0.1-1.7,0.7-2s1.7-0.1,2,0.7l2.9,5.7c0.4,0.7,0.1,1.7-0.7,2
			S299.1,207.2,298.7,206.4"/>
		<path class="st15" d="M295.8,200.7c-0.4-0.7-0.1-1.7,0.7-2l5.7-2.9c0.7-0.4,1.7-0.1,2,0.7c0.4,0.7,0.1,1.7-0.7,2l-5.7,2.9
			C297.1,201.7,296.2,201.4,295.8,200.7"/>
		<path class="st15" d="M215.5,173.8c-0.2-0.3-0.2-0.8-0.1-1.2c0.3-0.8,1.1-1.2,1.9-1l5.7,1.9c0.8,0.3,1.2,1.1,1,1.9
			c-0.3,0.8-1.1,1.2-1.9,1l-5.7-1.9C215.9,174.4,215.6,174.1,215.5,173.8"/>
		<path class="st15" d="M221.2,175.7l-2.9-5.7c-0.4-0.7-0.1-1.7,0.7-2s1.7-0.1,2,0.7l2.9,5.7c0.4,0.7,0.1,1.7-0.7,2
			C222.5,176.8,221.6,176.5,221.2,175.7"/>
		<path class="st15" d="M215.5,178.6c-0.4-0.7-0.1-1.7,0.7-2l5.7-2.9c0.7-0.4,1.7-0.1,2,0.7c0.4,0.7,0.1,1.7-0.7,2l-5.7,2.9
			C216.7,179.6,215.8,179.3,215.5,178.6"/>
		<path class="st11" d="M222.6,175L222.6,175c2.1-6.3,9-9.8,15.3-7.6l51.7,17.3c6.3,2.1,9.8,9,7.6,15.3l0,0c-2.1,6.3-9,9.8-15.3,7.6
			l-51.7-17.3C223.9,188.2,220.4,181.4,222.6,175"/>
	</g>
	<g>
		<path class="st8" d="M230.2,190.3l3.1,1c0.2-2.1,1.3-4,3.3-5c3-1.5,4.2-5.1,2.7-8.1s-0.3-6.6,2.7-8.1c0.5-0.3,0.9-0.6,1.4-1
			l-5.5-1.8c-1.2-0.4-2.4-0.6-3.6-0.6c-0.3,0.2-0.5,0.4-0.8,0.5c-3,1.5-4.2,5.1-2.7,8.1s0.3,6.6-2.7,8.1c-1.5,0.7-2.5,2-3,3.4
			C226.3,188.4,228.1,189.7,230.2,190.3"/>
		<path class="st15" d="M241.9,194.3l8.6,2.9c0.2-2.1,1.3-4,3.3-5c3-1.5,4.2-5.1,2.7-8.1s-0.3-6.6,2.7-8.1c0.5-0.3,0.9-0.6,1.4-1
			l-8.6-2.9c-0.4,0.4-0.8,0.7-1.4,1c-3,1.5-4.2,5.1-2.7,8.1s0.3,6.6-2.7,8.1C243.2,190.3,242,192.2,241.9,194.3"/>
		<path class="st8" d="M259.1,200l8.6,2.9c0.2-2.1,1.3-4,3.3-5c3-1.5,4.2-5.1,2.7-8.1s-0.3-6.6,2.7-8.1c0.5-0.3,0.9-0.6,1.4-1
			l-8.6-2.9c-0.4,0.4-0.8,0.7-1.4,1c-3,1.5-4.2,5.1-2.7,8.1s0.3,6.6-2.7,8.1C260.4,196,259.3,198,259.1,200"/>
		<path class="st15" d="M288.2,203.7c3-1.5,4.2-5.1,2.7-8.1s-0.3-6.6,2.7-8.1c0.1,0,0.2-0.1,0.3-0.2c-1.2-1.1-2.7-2.1-4.4-2.6
			l-3.1-1c-0.4,0.4-0.8,0.7-1.4,1c-3,1.5-4.2,5.1-2.7,8.1s0.3,6.6-2.7,8.1c-2,1-3.2,2.9-3.3,5l5.5,1.9c1,0.3,2.1,0.5,3.1,0.6
			C285.2,206.3,286.4,204.6,288.2,203.7"/>
	</g>
</g>
<g>
	<g>
		<path class="st2" d="M50.8,375.8c-1.8,0-3.5-0.7-4.7-2c-0.7-0.7-1.2-1.6-1.5-2.6c-1-0.3-1.9-0.8-2.7-1.5c-0.1-0.1-0.2-0.2-0.2-0.2
			c-0.8-0.8-1.4-1.8-1.7-2.9c-1.2-0.4-2.2-1.1-3-2c-1.2-1.5-1.8-3.4-1.5-5.3c0.5-3.3,3.1-6,7.4-7.7c0.7-0.3,1.3-0.5,2-0.7
			c0-0.1,0-0.2,0-0.4c0-0.3,0-0.6,0-0.9c0-0.1,0-0.2,0-0.3c0-0.1,0-0.2,0-0.4c0-0.4,0-0.9,0.1-1.3c0,0,0-0.1,0-0.2
			c0.3-3.4,1.7-6.5,3.8-9.1c0-0.1,0.1-0.1,0.1-0.2c2.6-3.1,6.3-5.2,10.3-5.8c0.1,0,0.3-0.1,0.4-0.1c0.2,0,0.3,0,0.5-0.1
			c0.2,0,0.4,0,0.6-0.1c0.3,0,0.7,0,1-0.1c0.1,0,0.2,0,0.3,0s0.3,0,0.4,0c0.4,0,0.8,0,1.2,0.1l0,0c0.2-0.7,0.4-1.3,0.7-2
			c1.7-4.3,4.5-6.9,7.8-7.4c0.3,0,0.7-0.1,1-0.1c1.8,0,3.6,0.8,4.8,2.1c0.7,0.7,1.2,1.6,1.4,2.5c1.2,0.3,2.3,1,3.2,1.9
			c0.7,0.8,1.2,1.7,1.5,2.7c1.2,0.4,2.2,1.1,3.1,2c1.2,1.5,1.8,3.4,1.5,5.3c-0.5,3.3-3.1,6-7.4,7.7c-0.7,0.3-1.3,0.5-2,0.7
			c0,0.2,0,0.4,0,0.7c0,0.2,0,0.4,0,0.5s0,0.3,0,0.5c0,0.3,0,0.6,0,0.9v0.2c-0.5,8.1-6.6,14.7-14.5,16c-0.1,0-0.3,0.1-0.4,0.1
			s-0.2,0-0.3,0c-0.4,0-0.8,0.1-1.2,0.1c-0.1,0-0.2,0-0.3,0c-0.2,0-0.4,0-0.6,0c-0.3,0-0.6,0-0.9,0h-0.4c-0.1,0-0.3,0-0.4,0
			c-0.2,0.7-0.4,1.3-0.7,1.9c-1.7,4.3-4.5,6.9-7.8,7.4C51.5,375.8,51.1,375.8,50.8,375.8z"/>
		<path class="st2" d="M73,327.6c0.9,0,1.6,0.8,1.6,1.7l-0.1,1.3c-0.1,0.8,0.6,1.5,1.4,1.5c0,0,0,0,0.1,0l1.5-0.1h0.1
			c0.4,0,0.8,0.2,1.1,0.4c0.3,0.3,0.5,0.7,0.4,1.2l-0.1,1.5c-0.1,0.8,0.6,1.5,1.4,1.5c0,0,0,0,0.1,0l1.3-0.1c0,0,0,0,0.1,0
			c1,0,1.7,0.8,1.6,1.8c-0.3,1.9-2.5,3.2-4.3,3.9c-1.5,0.6-3.1,1-4.8,1.4l0,0c-0.5,0.1-1,0.2-1.5,0.3c0.5,1.1,0.9,2.3,1.1,3.6l0,0
			c0,0.1,0,0.2,0,0.2c0,0.3,0.1,0.5,0.1,0.8c0,0.1,0,0.2,0,0.3c0,0.1,0,0.2,0,0.4c0,0.2,0,0.5,0,0.7l0,0
			c-0.4,5.8-4.8,10.5-10.5,11.3l0,0h-0.1c-0.3,0-0.6,0.1-0.9,0.1c-0.1,0-0.2,0-0.3,0s-0.2,0-0.4,0s-0.5,0-0.7,0h-0.1
			c-0.4,0-0.8-0.1-1.2-0.1l0,0c-0.4-0.1-0.8-0.2-1.2-0.3c0,0,0,0-0.1,0c-0.4-0.1-0.7-0.2-1.1-0.4c-0.1,0-0.1,0-0.2-0.1
			c-0.3-0.1-0.6-0.2-0.8-0.4c-0.1,0.5-0.2,1-0.3,1.5l0,0c-0.3,1.7-0.8,3.3-1.4,4.8c-0.7,1.7-2,4-3.9,4.3c-0.1,0-0.2,0-0.3,0
			c-0.9,0-1.6-0.8-1.6-1.7l0.1-1.3c0-0.8-0.6-1.5-1.4-1.5h-0.1l-1.5,0.1H46c-0.4,0-0.8-0.2-1.1-0.4c-0.3-0.3-0.5-0.7-0.4-1.2
			l0.1-1.5c0-0.8-0.6-1.5-1.4-1.5h-0.1l-1.3,0.1h-0.1c-0.9,0-1.7-0.9-1.5-1.8c0.3-1.9,2.5-3.2,4.3-3.9c1.5-0.6,3.1-1,4.8-1.4l0,0
			c0.5-0.1,1-0.2,1.5-0.3c-0.5-1.1-0.9-2.3-1.1-3.6l0,0c0-0.1,0-0.1,0-0.2c0-0.2,0-0.4-0.1-0.6c0-0.2,0-0.5,0-0.7v-0.1
			c0-0.1,0-0.1,0-0.2c0-0.3,0-0.7,0.1-1v-0.1c0.2-2.3,1.1-4.6,2.7-6.5l0,0c1.9-2.3,4.6-3.9,7.7-4.3l0,0c0.1,0,0.2,0,0.3,0
			c0.2,0,0.3,0,0.5,0c0.3,0,0.6,0,0.8,0h0.1c0.1,0,0.1,0,0.2,0c0.3,0,0.6,0,0.9,0c0.1,0,0.2,0,0.3,0c0.3,0,0.6,0.1,0.9,0.1
			c0.1,0,0.2,0,0.3,0.1c0.3,0.1,0.6,0.1,0.8,0.2c0.1,0,0.3,0.1,0.4,0.1c0.2,0.1,0.5,0.2,0.7,0.3c0.2,0.1,0.4,0.2,0.6,0.3
			c0,0,0,0,0.1,0c0.1-0.5,0.2-1,0.3-1.5l0,0c0.3-1.7,0.8-3.3,1.4-4.8c0.7-1.7,2-4,3.9-4.3C72.8,327.6,72.9,327.6,73,327.6 M73,317.6
			L73,317.6c-0.6,0-1.2,0-1.8,0.1c-4.7,0.7-8.7,4.1-11.1,9.3c-0.2,0-0.4,0-0.6,0.1c-0.2,0-0.5,0-0.7,0.1c-0.2,0-0.5,0.1-0.7,0.1
			c-5.1,0.9-9.7,3.5-13,7.4c-0.1,0.1-0.1,0.2-0.2,0.3c-2.8,3.4-4.5,7.4-5,11.8v0.2c0,0.1,0,0.2,0,0.3c-5.2,2.4-8.6,6.4-9.3,11.1
			c-0.5,3.3,0.4,6.7,2.6,9.3c0.9,1,1.9,1.8,3,2.5c0.5,1,1.2,1.9,2,2.7c0.2,0.2,0.3,0.3,0.5,0.5c0.7,0.6,1.5,1.1,2.3,1.6
			c0.5,0.8,1,1.5,1.7,2.2c2.2,2.3,5.2,3.5,8.3,3.5c0.6,0,1.2,0,1.8-0.1c4.7-0.7,8.7-4.1,11.1-9.3c0.3,0,0.5,0,0.7-0.1
			c0.2,0,0.3,0,0.5-0.1c0.2,0,0.4-0.1,0.6-0.1c10-1.7,17.7-10,18.5-20.1c5.2-2.4,8.6-6.4,9.3-11.1c0.5-3.3-0.4-6.7-2.6-9.3
			c-0.9-1-1.9-1.9-3-2.5c-0.4-0.8-0.9-1.6-1.6-2.3c-0.9-1-2-1.9-3.2-2.5c-0.4-0.7-0.9-1.4-1.5-2C79.3,318.9,76.2,317.6,73,317.6
			L73,317.6z"/>
	</g>
	<g>
		<path class="st2" d="M92.5,385.7c-0.7,0-1.4-0.1-2.1-0.3h-0.2c-4.1-1.2-6.5-5.4-5.3-9.5l9.4-33.5c-3.7-3.1-6.1-7.6-6.6-12.4
			c-0.2-0.3-0.4-0.5-0.5-0.8c-0.9-1.6-1.1-3.4-0.6-5.1l0.9-3.3c0.6-2.1,2.1-3.7,4.1-4.4c3.5-4.6,9.1-7.3,14.9-7.3
			c1.7,0,3.5,0.2,5.1,0.7c7.5,2.1,12.8,8.6,13.7,16.1c0.2,0.3,0.4,0.5,0.5,0.8c0.9,1.6,1.1,3.4,0.6,5.1l-0.9,3.3
			c-0.6,2.1-2.1,3.7-4.1,4.4c-3,3.8-7.3,6.4-12.1,7.1l-9.4,33.5C98.9,383.4,95.9,385.7,92.5,385.7z"/>
		<path class="st2" d="M106.5,314c1.2,0,2.5,0.2,3.8,0.5c6.3,1.8,10.3,7.6,10.1,13.8l0,0h0.1c0.9,0.3,1.4,1.2,1.2,2.1l-0.9,3.3
			c-0.2,0.7-0.9,1.2-1.6,1.2c-0.2,0-0.3,0-0.5-0.1h-0.1c-2.5,4.3-7.1,7-12,7c-0.3,0-0.7,0-1,0l-10.4,36.9c-0.3,1.2-1.4,2-2.6,2
			c-0.2,0-0.5,0-0.7-0.1h-0.2c-1.4-0.4-2.3-1.9-1.9-3.3l10.4-36.9c-4.8-2.4-7.7-7.4-7.5-12.7h-0.1c-0.9-0.3-1.4-1.2-1.2-2.1l0.9-3.3
			c0.2-0.7,0.9-1.2,1.6-1.2c0.2,0,0.3,0,0.5,0.1h0.1l0,0C96.9,316.7,101.5,314,106.5,314 M106.5,304v10V304c-7,0-13.6,3.1-18.1,8.3
			c-2.7,1.5-4.8,4-5.7,7.1l-0.9,3.3c-0.8,3-0.5,6.2,1.1,8.9c0,0.1,0.1,0.1,0.1,0.2c0.7,4.5,2.8,8.7,5.8,12.1l-8.6,30.6
			c-1.9,6.7,2,13.8,8.8,15.7h0.2c1.1,0.3,2.3,0.5,3.4,0.5c5.7,0,10.7-3.8,12.2-9.3l8.6-30.6c4.4-1.3,8.3-3.8,11.3-7.3
			c2.7-1.5,4.8-4,5.7-7.1l0.9-3.3c0.8-3,0.5-6.2-1.1-8.9c0-0.1-0.1-0.1-0.1-0.2c-1.5-9-8-16.6-17.1-19.1
			C110.9,304.4,108.7,304,106.5,304L106.5,304z"/>
	</g>
	<g>
		<path class="st2" d="M325.8,381.9c-2.1-0.1-4-1-5.4-2.5s-2.1-3.5-2-5.5l1.7-34.7c-4.3-2.2-7.6-6-9.2-10.6
			c-0.3-0.2-0.5-0.4-0.7-0.7c-1.2-1.3-1.8-3-1.7-4.8l0.2-3.4c0.1-2.2,1.3-4.1,3-5.2c3-6.6,9.8-11,17.1-11c0.3,0,0.6,0,0.9,0
			c7.8,0.4,14.4,5.4,16.9,12.6c0.3,0.2,0.5,0.4,0.7,0.7c1.2,1.3,1.8,3,1.7,4.8l-0.2,3.4c-0.1,2.2-1.3,4.1-3,5.2
			c-2,4.4-5.7,7.9-10.2,9.7l-1.7,34.7c-0.2,4.1-3.6,7.3-7.7,7.3C326.2,381.9,325.8,381.9,325.8,381.9z"/>
		<path class="st2" d="M328.7,308.4c0.2,0,0.4,0,0.7,0c6.5,0.3,11.7,5,13,11.1l0,0h0.1c0.9,0,1.7,0.8,1.6,1.8l-0.2,3.4
			c0,0.9-0.8,1.6-1.7,1.6h-0.1H342c-1.5,5.1-5.9,8.9-11.2,9.7l-1.8,38.3c-0.1,1.4-1.3,2.6-2.7,2.6h-0.1H326
			c-1.5-0.1-2.6-1.3-2.6-2.8l1.8-38.3c-5.2-1.3-9.2-5.5-10.2-10.7h-0.1c-0.9,0-1.7-0.8-1.6-1.8l0.2-3.4c0-0.9,0.8-1.6,1.7-1.6h0.1
			h0.1l0,0C317.2,312.6,322.5,308.4,328.7,308.4 M328.7,298.4c-8.9,0-17,5.1-21.1,12.7c-2.3,2-3.8,5-4,8.3l-0.2,3.4
			c-0.1,3.1,0.9,6.1,3,8.4c0.1,0.1,0.1,0.1,0.2,0.2c1.7,4.2,4.7,7.9,8.4,10.5l-1.5,31.8c-0.3,7,5.1,13,12.1,13.3h0.2
			c0.2,0,0.4,0,0.6,0c6.8,0,12.4-5.3,12.7-12.1l1.5-31.8c3.9-2.2,7.2-5.6,9.3-9.6c2.3-2,3.8-5,4-8.3l0.2-3.4c0.1-3.1-0.9-6.1-3-8.4
			l-0.1-0.1c-3.5-8.5-11.5-14.4-21-14.8C329.5,298.4,329.1,298.4,328.7,298.4L328.7,298.4z"/>
	</g>
	<g>
		<path class="st2" d="M299.3,385.5c-3.1,0-5.9-2.1-6.7-5.1c-0.2-0.7-8.7-29.8-8.7-29.8c-0.3,0-0.7,0-1,0c-4.7,0-9.5-1.2-13.6-3.5
			c-13.8-7.5-18.8-24.9-11.3-38.6c3-5.5,7.6-9.7,13.3-12.3c0.1,0,0.2-0.1,0.2-0.1l0.3-0.1c0.3-0.1,0.6-0.3,1-0.4
			c0.1,0,0.3-0.1,0.4-0.2c0.3-0.1,0.7-0.2,1-0.4c0.1,0,0.3-0.1,0.4-0.1c0.4-0.1,0.7-0.2,1.1-0.3l0.3-0.1c1-0.2,2-0.4,3-0.6h0.3
			c0.4,0,0.8-0.1,1.2-0.1c0.2,0,0.3,0,0.5,0c0.3,0,0.7,0,1-0.1h0.8c0.2,0,0.5,0,0.7,0s0.3,0,0.5,0c0.4,0,0.7,0,1.1,0.1h0.4
			c1,0.1,2.1,0.3,3.1,0.5l0.4,0.1c0.4,0.1,0.8,0.2,1.1,0.3c0.1,0,0.5,0.2,0.5,0.2c0.3,0.1,0.6,0.2,0.9,0.3c0.2,0.1,0.4,0.1,0.6,0.2
			c0.3,0.1,0.6,0.2,0.9,0.3c0.2,0.1,0.4,0.1,0.6,0.2c0.3,0.1,0.7,0.3,1,0.4c0,0,0.3,0.2,0.5,0.2c0.4,0.2,0.9,0.4,1.3,0.7
			c0,0,0.1,0,0.1,0.1c11.8,6.5,17.5,20.5,13.5,33.3v0.1c-0.4,1.3-0.9,2.6-1.5,3.9c-0.2,0.4-0.4,0.9-0.7,1.3
			c-0.2,0.4-0.5,0.9-0.8,1.3c-0.1,0.1-0.1,0.2-0.2,0.3c-0.2,0.4-0.4,0.7-0.7,1c-0.1,0.1-0.1,0.2-0.2,0.3c-0.3,0.4-0.5,0.6-0.7,0.9
			L305,340c-0.3,0.3-0.5,0.6-0.7,0.9l-0.2,0.2c-0.3,0.3-0.5,0.6-0.8,0.9l-0.3,0.3c-0.2,0.2-0.5,0.5-0.7,0.7l-0.3,0.3
			c-0.3,0.2-0.5,0.5-0.8,0.7c-0.1,0.1-0.2,0.2-0.4,0.3c-0.3,0.2-0.5,0.4-0.8,0.6l-0.4,0.3c-0.3,0.2-0.6,0.4-0.9,0.6l-0.3,0.2
			c-0.4,0.2-0.7,0.5-1.1,0.7c0,0,8.5,29.3,8.7,29.8c0.5,1.8,0.3,3.7-0.6,5.3c-0.9,1.6-2.4,2.8-4.2,3.4
			C300.7,385.4,300,385.5,299.3,385.5z"/>
		<path class="st2" d="M282.9,298.8c0.2,0,0.4,0,0.6,0c0.1,0,0.3,0,0.4,0c0.3,0,0.6,0,0.9,0.1c0.1,0,0.2,0,0.4,0
			c0.8,0.1,1.7,0.2,2.5,0.4c0.1,0,0.2,0.1,0.4,0.1c0.3,0.1,0.6,0.1,0.9,0.2c0.2,0,0.3,0.1,0.5,0.1c0.3,0.1,0.5,0.2,0.8,0.2
			c0.2,0.1,0.3,0.1,0.5,0.2c0.3,0.1,0.5,0.2,0.8,0.3c0.2,0.1,0.3,0.1,0.5,0.2c0.3,0.1,0.5,0.2,0.8,0.4c0.1,0.1,0.3,0.1,0.4,0.2
			c0.4,0.2,0.8,0.4,1.2,0.6l0,0c9.9,5.4,14.4,17,11.2,27.5l0,0c-0.3,1.1-0.8,2.2-1.3,3.3c-0.2,0.4-0.4,0.7-0.6,1.1s-0.4,0.7-0.6,1.1
			c-0.1,0.1-0.1,0.2-0.2,0.3c-0.2,0.3-0.3,0.5-0.5,0.8c-0.1,0.1-0.1,0.2-0.2,0.3c-0.2,0.2-0.4,0.5-0.5,0.7c-0.1,0.1-0.1,0.2-0.2,0.3
			c-0.2,0.2-0.4,0.5-0.6,0.7c-0.1,0.1-0.2,0.2-0.2,0.3c-0.2,0.2-0.4,0.4-0.6,0.6c-0.1,0.1-0.2,0.2-0.3,0.3c-0.2,0.2-0.4,0.4-0.6,0.6
			c-0.1,0.1-0.2,0.2-0.3,0.3c-0.2,0.2-0.4,0.4-0.6,0.6c-0.1,0.1-0.2,0.2-0.3,0.2c-0.2,0.2-0.4,0.4-0.7,0.5c-0.1,0.1-0.2,0.2-0.3,0.2
			c-0.2,0.2-0.5,0.3-0.7,0.5c-0.1,0.1-0.2,0.1-0.3,0.2c-0.3,0.2-0.6,0.4-0.9,0.6c0,0-0.1,0-0.1,0.1c-0.4,0.2-0.7,0.4-1.1,0.6
			c0,0-0.1,0-0.1,0.1c-0.3,0.2-0.6,0.3-1,0.5c-0.1,0-0.2,0.1-0.3,0.1c-0.3,0.1-0.5,0.2-0.8,0.3c4.4,15,9.6,33,9.9,33.8
			c0.2,0.5,0.1,1.1-0.2,1.5c-0.2,0.5-0.7,0.8-1.2,1c-0.2,0.1-0.4,0.1-0.6,0.1c-0.9,0-1.7-0.6-1.9-1.5c-0.2-0.8-5.5-18.8-9.9-33.8
			c-1.5,0.3-3.1,0.5-4.6,0.5c-3.8,0-7.7-0.9-11.2-2.9c-11.4-6.2-15.5-20.5-9.3-31.8c2.6-4.7,6.6-8.2,11.2-10.2l0,0
			c0.1,0,0.1-0.1,0.2-0.1c0.3-0.1,0.6-0.2,0.8-0.3c0.1,0,0.2-0.1,0.3-0.1c0.3-0.1,0.6-0.2,0.9-0.3c0.1,0,0.2-0.1,0.3-0.1
			c0.3-0.1,0.6-0.2,0.9-0.3c0.1,0,0.2,0,0.3-0.1c0.8-0.2,1.6-0.4,2.5-0.5c0.1,0,0.2,0,0.3,0c0.3,0,0.6-0.1,1-0.1c0.1,0,0.3,0,0.4,0
			c0.3,0,0.6,0,0.9,0c0.1,0,0.3,0,0.4,0C282.7,298.8,282.8,298.8,282.9,298.8 M282.9,288.8h-0.4c-0.2,0-0.4,0-0.6,0
			c-0.4,0-0.8,0-1.2,0.1h-0.1c-0.2,0-0.3,0-0.5,0c-0.5,0-0.9,0.1-1.3,0.1c-0.1,0-0.3,0-0.4,0c-1.2,0.2-2.4,0.4-3.5,0.7
			c-0.1,0-0.3,0.1-0.4,0.1c-0.4,0.1-0.9,0.2-1.3,0.4c-0.1,0-0.3,0.1-0.4,0.1h-0.1c-0.4,0.1-0.8,0.3-1.2,0.4
			c-0.2,0.1-0.3,0.1-0.5,0.2c-0.4,0.1-0.7,0.3-1.1,0.4c-0.1,0.1-0.3,0.1-0.4,0.2c-0.1,0-0.2,0.1-0.3,0.1c-6.7,3-12.1,8-15.6,14.4
			c-4.3,7.8-5.3,16.9-2.8,25.5s8.2,15.7,16,20c4.1,2.2,8.7,3.6,13.3,4l6.3,21.7l1.3,4.6c1.5,5.1,6.2,8.6,11.5,8.6
			c1.1,0,2.3-0.2,3.4-0.5c3.1-0.9,5.6-2.9,7.2-5.8c1.5-2.8,1.9-6.1,1-9.2l-5.8-19.8l-1.9-6.5c0.3-0.2,0.5-0.4,0.8-0.6
			c0.1-0.1,0.3-0.2,0.4-0.3c0.3-0.3,0.6-0.5,0.9-0.8c0.1-0.1,0.3-0.2,0.4-0.4c0.3-0.3,0.6-0.6,0.9-0.9c0.1-0.1,0.2-0.2,0.4-0.4
			c0.3-0.3,0.6-0.6,0.9-0.9v-0.1c0.1-0.1,0.2-0.2,0.3-0.3c0.3-0.3,0.5-0.6,0.8-1l0,0c0.1-0.1,0.2-0.2,0.3-0.4c0.3-0.3,0.5-0.7,0.8-1
			c0.1-0.1,0.2-0.3,0.3-0.4c0.2-0.4,0.5-0.7,0.7-1.1c0.1-0.1,0.2-0.3,0.3-0.4c0.3-0.5,0.6-1,0.9-1.5s0.5-1,0.8-1.5
			c0.7-1.5,1.3-3,1.8-4.6c0-0.1,0-0.1,0-0.2c4.7-15.1-2-31.6-15.9-39.2c0,0-0.1,0-0.1-0.1c-0.5-0.3-1-0.5-1.6-0.8
			c-0.2-0.1-0.3-0.2-0.5-0.2h-0.1c-0.4-0.2-0.8-0.3-1.1-0.5c-0.2-0.1-0.4-0.2-0.6-0.2h-0.1c-0.4-0.1-0.7-0.3-1.1-0.4
			c-0.2-0.1-0.5-0.2-0.7-0.2c-0.4-0.1-0.7-0.2-1.1-0.3h-0.1c-0.2-0.1-0.4-0.1-0.6-0.2c-0.4-0.1-0.8-0.2-1.2-0.3
			c-0.2,0-0.4-0.1-0.5-0.1c-1.2-0.2-2.4-0.4-3.6-0.5c-0.2,0-0.3,0-0.5,0c-0.5,0-0.9-0.1-1.3-0.1c-0.2,0-0.3,0-0.5,0h-0.1
			C283.5,288.8,283.2,288.8,282.9,288.8L282.9,288.8z"/>
	</g>
	<g>
		<path class="st2" d="M185,382.5c-2,0-3.9-0.7-5.3-2.1l-1.5-1.3c-1.8,1-3.8,1.7-5.9,1.8h-0.1c-0.4,0-0.6,0-0.9,0
			c-0.3,0-0.6,0-0.9,0l-37.6-2.7c-0.5,0-1.1-0.1-1.6-0.2c-0.1,0-0.2,0-0.3-0.1c-0.5-0.1-0.9-0.2-1.3-0.4c-0.1,0-0.2-0.1-0.3-0.1
			c-1-0.4-2-0.9-2.9-1.5l0,0c-0.3-0.2-0.6-0.4-0.9-0.6l-1.7,1.2c-0.1,0.1-0.2,0.2-0.4,0.2c-1.2,0.7-2.5,1-3.8,1
			c-2.3,0-4.6-1-6.1-2.8c-1.3-1.5-2-3.5-1.8-5.5c0.1-1.1,0.4-2.1,0.8-3c-0.3-1-0.5-2.1-0.4-3.2s0.4-2.1,0.9-3.1
			c-0.3-1-0.5-2.1-0.4-3.2c0-0.3,0.1-0.8,0.2-1.4c0.9-3.4,4-5.7,7.5-5.7c2,0,3.9,0.8,5.3,2.1l1.4,1.3c1.7-1,3.5-1.6,5.5-1.8
			c0.1,0,0.3,0,0.4,0c0.3,0,0.7,0,1,0c0.2,0,0.5,0,0.7,0l37.7,2.7c0.5,0,0.9,0.1,1.4,0.2c0.1,0,0.2,0,0.3,0.1
			c0.3,0.1,0.7,0.2,1.1,0.3c0.1,0,0.1,0,0.2,0.1c0.9,0.3,1.7,0.6,2.4,1l0,0c0.7,0.4,1.4,0.8,2,1.3l1.7-1.2c1.3-0.9,2.8-1.4,4.3-1.4
			c2.1,0,4.2,0.9,5.7,2.4s2.2,3.6,2.1,5.7v0.1c-0.1,1.1-0.4,2.1-0.9,3.1c0.3,1,0.5,2.1,0.4,3.2s-0.4,2.1-0.9,3.1
			c0.3,1,0.5,2.1,0.4,3.2c0,0.4-0.1,0.8-0.2,1.1C191.8,380,188.7,382.5,185,382.5L185,382.5z"/>
		<path class="st2" d="M120.3,355c0.7,0,1.3,0.2,1.9,0.7l1.9,1.8c0.9,0.9,2,1.6,3,2.3c1.4-1.8,3.5-3,5.8-3.3c0.1,0,0.2,0,0.3,0
			c0.2,0,0.4,0,0.7,0c0.2,0,0.3,0,0.5,0l0,0l0,0l0,0l4,0.3l0,0l11.7,0.8l0.9,0.1l0,0l10.8,0.8l1.8,0.1l0,0l8.5,0.6
			c0.3,0,0.6,0.1,0.9,0.1h0.1c0.3,0,0.5,0.1,0.8,0.2c0,0,0,0,0.1,0c0.6,0.2,1.1,0.4,1.6,0.7l0,0l0,0c1.4,0.8,2.6,1.9,3.3,3.3
			c1.1-0.5,2.2-1.1,3.2-1.8l2.3-1.6c0.5-0.3,1-0.5,1.5-0.5c1.5,0,2.9,1.2,2.8,2.9l0,0c-0.1,0.7-0.3,1.4-0.8,1.9
			c-0.6,0.7-0.7,1.7-0.2,2.4c0.4,0.6,0.6,1.2,0.5,2c-0.1,0.7-0.3,1.4-0.8,1.9c-0.6,0.7-0.7,1.7-0.2,2.4c0.4,0.6,0.6,1.2,0.5,2
			c0,0.1,0,0.3-0.1,0.4c-0.3,1.3-1.4,2.1-2.6,2.1c-0.7,0-1.4-0.2-1.9-0.7l-1.9-1.8c-0.9-0.9-2-1.6-3-2.3c-1.4,1.9-3.6,3.1-6.1,3.3
			H172c-0.2,0-0.4,0-0.6,0c-0.2,0-0.3,0-0.5,0l0,0l-4-0.3l0,0l-33.6-2.4c-0.3,0-0.7-0.1-1-0.1c-0.1,0-0.2,0-0.2-0.1
			c-0.3-0.1-0.5-0.1-0.8-0.2c-0.1,0-0.1,0-0.2-0.1c-0.7-0.2-1.3-0.6-1.8-0.9l0,0l0,0c-1.1-0.8-2-1.8-2.7-2.9v0.1
			c-1.1,0.5-2.2,1.1-3.2,1.8l-2.4,1.6c-0.4,0.3-0.9,0.4-1.4,0.4c-1.6,0-3.1-1.3-2.9-2.8v-0.1c0.1-0.7,0.3-1.4,0.8-1.9
			c0.6-0.7,0.7-1.7,0.2-2.4c-0.4-0.6-0.6-1.2-0.5-2c0.1-0.7,0.3-1.4,0.8-1.9c0.6-0.7,0.7-1.7,0.2-2.4c-0.4-0.6-0.6-1.2-0.5-2
			c0-0.1,0-0.3,0.1-0.4C118,355.7,119.1,355,120.3,355 M179.2,364.5v0.1C179.3,364.5,179.3,364.5,179.2,364.5
			C179.2,364.5,179.2,364.4,179.2,364.5C179.2,364.4,179.2,364.5,179.2,364.5 M179.6,365.7L179.6,365.7L179.6,365.7 M179.8,366.8
			L179.8,366.8C179.8,366.7,179.8,366.7,179.8,366.8C179.8,366.7,179.8,366.7,179.8,366.8 M126,367.9c0,0,0,0.1,0.1,0.1
			C126,367.9,126,367.9,126,367.9C126,367.8,126,367.8,126,367.9C126,367.8,126,367.8,126,367.9 M179.6,369.5L179.6,369.5
			L179.6,369.5L179.6,369.5 M179.3,370.5L179.3,370.5L179.3,370.5 M178.8,371.5C178.8,371.6,178.8,371.6,178.8,371.5
			c0,0.1-0.1,0.1-0.1,0.2C178.7,371.7,178.7,371.6,178.8,371.5C178.8,371.6,178.8,371.6,178.8,371.5 M120.3,345L120.3,345
			c-5.7,0-10.8,3.8-12.3,9.3c-0.3,1-0.4,1.8-0.4,2.4c-0.1,1.1,0,2.2,0.2,3.2c-0.3,1-0.5,2.1-0.6,3.1c-0.1,1.1,0,2.1,0.2,3.2
			c-0.3,0.9-0.5,1.9-0.6,2.9c-0.3,3.3,0.7,6.7,3,9.2c2.5,2.8,6.1,4.5,9.9,4.5c2.1,0,4.2-0.5,6-1.5c0.7,0.3,1.4,0.6,2.1,0.9
			c0.1,0,0.3,0.1,0.4,0.1c0.6,0.2,1.1,0.3,1.7,0.5c0.2,0,0.3,0.1,0.5,0.1c0.8,0.2,1.5,0.3,2.3,0.3l33.6,2.4l4,0.3c0.4,0,0.8,0,1.2,0
			s0.7,0,1.1,0c0,0,0,0,0.1,0s0.2,0,0.3,0c1.6-0.1,3.1-0.4,4.5-0.9c2.2,1.6,4.9,2.5,7.7,2.5c6.1,0,11.2-4.1,12.4-10
			c0.1-0.6,0.2-1.2,0.2-1.7c0,0,0,0,0-0.1c0.1-1.1,0-2.1-0.2-3.2c0.3-1,0.5-2.1,0.6-3.1c0.1-1.1,0-2.1-0.2-3.2
			c0.3-0.9,0.5-1.9,0.6-2.9c0-0.2,0-0.3,0-0.5c0.2-3.5-1.1-6.9-3.5-9.4s-5.8-4-9.3-4c-2.1,0-4.2,0.5-6.1,1.6
			c-0.9-0.5-1.9-0.8-2.8-1.1c-0.1,0-0.2-0.1-0.3-0.1c-0.5-0.1-1-0.3-1.5-0.4c-0.1,0-0.3-0.1-0.5-0.1c-0.7-0.1-1.3-0.2-2-0.2
			l-8.5-0.6l-1.8-0.1l-10.8-0.8l-0.9-0.1l-11.7-0.8l-4-0.3c-0.1,0-0.1,0-0.2,0c-0.3,0-0.7,0-1,0c-0.4,0-0.9,0-1.3,0
			c-0.2,0-0.4,0-0.6,0c-1.4,0.1-2.8,0.4-4.1,0.9C125.7,345.8,123.1,345,120.3,345L120.3,345z"/>
	</g>
	<g>
		<path class="st2" d="M261.7,384.1c-2.7,0-5.2-1.3-6.6-3.6l-1.1-1.7c-1.2,0.3-2.4,0.5-3.7,0.5c-0.8,0-1.6-0.1-2.4-0.2h-0.2
			c-0.6-0.1-1.1-0.3-1.6-0.4l-35.8-12c-0.5-0.2-1-0.4-1.5-0.6l-0.3-0.2c-0.4-0.2-0.8-0.4-1.2-0.7c-0.1-0.1-0.2-0.1-0.3-0.2
			c-0.9-0.6-1.7-1.3-2.4-2.2c-0.2-0.3-0.5-0.5-0.7-0.8l-2,0.7c-0.1,0.1-0.3,0.1-0.4,0.1c-0.7,0.2-1.3,0.3-2,0.3
			c-2.6,0-5.2-1.4-6.7-3.6c-1.3-2-1.6-4.4-0.8-6.6c0.3-1,0.9-1.9,1.6-2.7c-0.1-1.1,0.1-2.2,0.4-3.2c0.3-1,0.9-2,1.6-2.8
			c-0.1-1.1,0.1-2.2,0.4-3.2c0.1-0.3,0.3-0.8,0.6-1.3c1.4-2.4,4-3.9,6.8-3.9c2.7,0,5.2,1.4,6.6,3.6l1,1.6c1.2-0.3,2.4-0.5,3.7-0.5
			c0.7,0,1.4,0.1,2.1,0.2c0.1,0,0.3,0,0.4,0.1c0.6,0.1,1.2,0.3,1.7,0.4c0,0,0,0,0.1,0l35.8,12c0.4,0.1,0.9,0.3,1.3,0.5
			c0.1,0,0.2,0.1,0.3,0.1c0.3,0.2,0.7,0.3,1,0.6l0.1,0.1c0.8,0.5,1.5,1,2.1,1.6c0.6,0.5,1.1,1.1,1.6,1.8l1.9-0.7
			c0.9-0.3,1.8-0.5,2.6-0.5c2.4,0,4.8,1.2,6.2,3.2c1.5,2,1.9,4.5,1.2,6.9v0.1c-0.3,1-0.9,2-1.6,2.8c0.1,1.1-0.1,2.2-0.4,3.2
			s-0.9,2-1.6,2.8c0.1,1.1-0.1,2.2-0.4,3.2c-0.1,0.4-0.3,0.7-0.4,1C267.3,382.5,264.6,384.1,261.7,384.1L261.7,384.1z"/>
		<path class="st2" d="M203.2,341c0.9,0,1.8,0.4,2.3,1.3l1.4,2.2c0.7,1.1,1.5,2.1,2.4,3c1.5-1.1,3.3-1.8,5.2-1.8
			c0.4,0,0.9,0,1.3,0.1c0.1,0,0.2,0,0.3,0c0.4,0.1,0.7,0.2,1.1,0.3l0,0l3.8,1.3l0,0l11.5,3.8l0.4,0.1l0,0l10.8,3.6l1.1,0.4l0,0
			l8.1,2.7c0.3,0.1,0.6,0.2,0.8,0.3c0,0,0.1,0,0.1,0.1c0.2,0.1,0.5,0.2,0.7,0.4c0,0,0,0,0.1,0c0.5,0.3,0.9,0.6,1.4,1l0,0l0,0
			c1.2,1.1,2,2.5,2.4,4c1.2-0.2,2.4-0.5,3.6-1l2.6-1c0.3-0.1,0.6-0.2,0.9-0.2c1.8,0,3.2,1.8,2.6,3.6l0,0c-0.2,0.7-0.7,1.2-1.2,1.6
			c-0.7,0.5-1.1,1.5-0.8,2.3c0.2,0.6,0.2,1.3,0,2s-0.7,1.2-1.2,1.6c-0.7,0.5-1.1,1.5-0.8,2.3c0.2,0.6,0.2,1.3,0,2
			c0,0.1-0.1,0.3-0.2,0.4c-0.5,0.9-1.4,1.4-2.3,1.4s-1.9-0.4-2.4-1.3l-1.4-2.2c-0.7-1.1-1.5-2.1-2.4-3c-1.5,1.1-3.3,1.8-5.2,1.8
			c-0.5,0-1,0-1.5-0.1h-0.1c-0.3-0.1-0.7-0.2-1-0.3l0,0l-3.8-1.3L211.9,362c-0.3-0.1-0.6-0.2-1-0.4c-0.1,0-0.1-0.1-0.2-0.1
			c-0.2-0.1-0.5-0.3-0.7-0.4c-0.1,0-0.1-0.1-0.2-0.1c-0.6-0.4-1.1-0.9-1.6-1.4l0,0l0,0c-0.9-1-1.5-2.2-1.9-3.5v0.1
			c-1.2,0.2-2.4,0.5-3.6,1l-2.7,1c-0.2,0.1-0.5,0.1-0.7,0.1c-1.9,0-3.4-1.9-2.8-3.5l0,0c0.2-0.7,0.7-1.2,1.2-1.6
			c0.7-0.5,1.1-1.5,0.8-2.3c-0.2-0.6-0.2-1.3,0-2s0.7-1.2,1.2-1.6c0.7-0.5,1.1-1.5,0.8-2.3c-0.2-0.6-0.2-1.3,0-2
			c0-0.1,0.1-0.3,0.2-0.4C201.3,341.4,202.3,341,203.2,341 M206.2,355c0,0.1,0,0.1,0,0.2C206.2,355.1,206.2,355,206.2,355
			S206.2,354.9,206.2,355C206.2,354.9,206.2,355,206.2,355 M258.6,365C258.6,365.1,258.6,365.1,258.6,365
			C258.6,365.1,258.6,365.1,258.6,365L258.6,365L258.6,365 M258.7,366.2L258.7,366.2L258.7,366.2 M258.6,367.4L258.6,367.4
			C258.6,367.3,258.6,367.3,258.6,367.4C258.6,367.3,258.6,367.3,258.6,367.4 M257.7,369.9L257.7,369.9L257.7,369.9L257.7,369.9
			 M257.1,370.9C257.1,370.9,257.2,370.9,257.1,370.9C257.2,370.9,257.1,370.9,257.1,370.9 M256.4,371.7
			C256.4,371.8,256.4,371.8,256.4,371.7c-0.1,0.1-0.1,0.1-0.1,0.1C256.3,371.8,256.4,371.8,256.4,371.7
			C256.4,371.8,256.4,371.8,256.4,371.7 M203.2,331c-4.6,0-8.8,2.4-11.1,6.4c-0.6,1-0.9,1.8-1,2.2l0,0c-0.3,1-0.5,2.1-0.6,3.1
			c-0.6,0.9-1,1.9-1.4,2.9c-0.3,1-0.5,2.1-0.6,3.1c-0.5,0.8-1,1.7-1.3,2.7c-1.4,3.6-0.9,7.8,1.4,11.1c2.4,3.6,6.5,5.8,10.8,5.8
			c1,0,2-0.1,3-0.4c0.6,0.5,1.2,1,1.8,1.4c0.1,0.1,0.2,0.2,0.4,0.2c0.5,0.3,1,0.6,1.6,0.9c0.2,0.1,0.3,0.2,0.5,0.2
			c0.7,0.4,1.4,0.6,2.1,0.9l31.9,10.7l3.8,1.3c0.7,0.2,1.4,0.4,2.2,0.6c0,0,0,0,0.1,0s0.2,0,0.3,0.1c1.1,0.2,2.2,0.3,3.2,0.3
			c0.5,0,0.9,0,1.4-0.1c2.4,3,6.1,4.8,10,4.8c4.8,0,9.2-2.7,11.3-7c0.3-0.5,0.5-1.1,0.7-1.6c0,0,0,0,0-0.1c0.3-1,0.5-2,0.6-3.1
			c0.6-0.9,1-1.9,1.4-2.9c0.3-1,0.5-2.1,0.6-3.1c0.5-0.8,1-1.7,1.3-2.6c0.1-0.1,0.1-0.3,0.1-0.4c1.2-3.8,0.5-8.1-1.9-11.3
			c-2.4-3.3-6.2-5.2-10.3-5.2c-1.1,0-2.1,0.1-3.1,0.4c-0.8-0.7-1.6-1.3-2.4-1.8c-0.1,0-0.2-0.1-0.2-0.1c-0.5-0.3-0.9-0.5-1.4-0.7
			c-0.1-0.1-0.3-0.1-0.4-0.2c-0.6-0.3-1.2-0.5-1.9-0.7l-8.1-2.7l-1.1-0.4l-10.8-3.6l-0.4-0.1l-11.5-3.8l-3.8-1.3h-0.1
			c-0.7-0.2-1.5-0.4-2.3-0.6c-0.2,0-0.4-0.1-0.6-0.1c-0.9-0.1-1.9-0.2-2.8-0.2c-0.5,0-0.9,0-1.4,0.1
			C210.8,332.7,207.2,331,203.2,331L203.2,331z"/>
	</g>
	<g>
		<path class="st2" d="M143.7,354.6c-3.5,0-6.5-2.2-7.4-5.4c-0.3-1-0.4-2.1-0.3-3.1c-0.7-0.8-1.2-1.8-1.5-2.8s-0.4-2.1-0.3-3.2
			c-0.7-0.8-1.2-1.8-1.5-2.8c-0.1-0.3-0.2-0.8-0.3-1.4c-0.2-2.2,0.5-4.4,2-6s3.6-2.6,5.8-2.6c1,0,2,0.2,2.9,0.6l1.8,0.7
			c1.2-1.5,2.7-2.8,4.5-3.6c0.1-0.1,0.2-0.1,0.3-0.2c0.6-0.3,1.1-0.5,1.7-0.7h0.1l36.1-11c0.4-0.1,0.9-0.3,1.4-0.3
			c0.1,0,0.2,0,0.3,0c0.4-0.1,0.8-0.1,1.1-0.1c0.1,0,0.1,0,0.2,0c0.3,0,0.6,0,0.9,0c0.6,0,1.1,0,1.7,0.1c0.1,0,0.2,0,0.2,0
			c0.7,0.1,1.5,0.3,2.2,0.5l1.2-1.7c1.5-2.1,3.8-3.3,6.3-3.3c3.4,0,6.4,2.1,7.4,5.3v0.1c0.3,1,0.4,2.1,0.3,3.2
			c0.7,0.8,1.2,1.8,1.5,2.8s0.4,2.1,0.3,3.2c0.7,0.8,1.2,1.8,1.5,2.8c0.1,0.4,0.2,0.7,0.2,1.1c0.4,2.2-0.3,4.4-1.7,6.1
			c-1.5,1.8-3.7,2.8-6,2.8c-1,0-2-0.2-2.9-0.6l-1.8-0.7c-1.3,1.6-2.9,2.9-4.8,3.8l-0.2,0.1c-0.6,0.2-1.1,0.4-1.6,0.6l-36.1,11
			c-0.5,0.2-1,0.3-1.6,0.4c-0.1,0-0.3,0-0.4,0.1c-0.4,0.1-0.9,0.1-1.3,0.1c-0.2,0-0.2,0-0.3,0h-0.3c-1,0-2-0.1-3-0.3
			c-0.3-0.1-0.7-0.2-1-0.3l-1.2,1.8c-0.1,0.1-0.2,0.2-0.3,0.4C148.3,353.6,146.1,354.6,143.7,354.6z"/>
		<path class="st2" d="M203,313.1c1.1,0,2.2,0.7,2.6,1.9l0,0c0.2,0.7,0.2,1.4-0.1,2c-0.3,0.8,0,1.8,0.7,2.3c0.5,0.4,1,1,1.2,1.6
			c0.2,0.7,0.2,1.4-0.1,2c-0.3,0.8,0,1.8,0.7,2.3c0.5,0.4,1,1,1.2,1.6c0,0.1,0.1,0.3,0.1,0.4c0.3,1.7-1.2,3.1-2.8,3.1
			c-0.3,0-0.7-0.1-1-0.2l-2.4-1c-1.2-0.5-2.4-0.8-3.7-1.1c-0.7,2.3-2.3,4.2-4.5,5.2c0,0-0.1,0-0.1,0.1c-0.3,0.1-0.6,0.3-1,0.4l0,0
			l0,0l-3.9,1.2l-32.2,9.8c-0.3,0.1-0.7,0.2-1,0.2c-0.1,0-0.2,0-0.3,0c-0.3,0-0.5,0.1-0.8,0.1c-0.1,0-0.1,0-0.2,0
			c-0.1,0-0.1,0-0.2,0c-0.6,0-1.3-0.1-1.9-0.2l0,0l0,0c-1.3-0.3-2.5-0.9-3.5-1.8c0,0,0,0,0.1,0.1c-0.9,0.9-1.7,1.8-2.4,2.9l-1.6,2.4
			c-0.6,0.7-1.4,1-2.3,1c-1.2,0-2.3-0.6-2.5-1.8l0,0c-0.2-0.7-0.2-1.4,0.1-2c0.3-0.8,0-1.8-0.7-2.3c-0.5-0.4-1-1-1.2-1.6
			c-0.2-0.7-0.2-1.4,0.1-2c0.3-0.8,0-1.8-0.7-2.3c-0.5-0.4-1-1-1.2-1.6c0-0.1-0.1-0.3-0.1-0.4c-0.2-1.7,1.2-3.1,2.8-3.1
			c0.3,0,0.7,0.1,1,0.2l2.5,1c1.2,0.5,2.4,0.8,3.7,1.1c0.6-2.2,2.2-4.1,4.3-5.1c0.1,0,0.2-0.1,0.2-0.1c0.3-0.2,0.7-0.3,1.1-0.4l0,0
			l3.8-1.2l0,0l11.6-3.5l0.4-0.1l0,0l10.7-3.3l1.3-0.4l0,0l8.2-2.5c0.3-0.1,0.6-0.2,0.9-0.2h0.1c0.3,0,0.5-0.1,0.8-0.1
			c0,0,0,0,0.1,0c0.2,0,0.4,0,0.6,0c0.4,0,0.7,0,1.1,0.1l0,0l0,0c1.6,0.2,3.1,0.9,4.3,1.9c0.9-0.9,1.7-1.8,2.4-2.9l1.6-2.3
			C201.3,313.5,202.1,313.1,203,313.1 M197.6,320.3C197.6,320.3,197.7,320.3,197.6,320.3C197.7,320.3,197.7,320.3,197.6,320.3
			C197.7,320.3,197.7,320.3,197.6,320.3C197.7,320.3,197.6,320.3,197.6,320.3L197.6,320.3L197.6,320.3 M198.9,322.2L198.9,322.2
			L198.9,322.2L198.9,322.2 M199.7,324.8L199.7,324.8L199.7,324.8L199.7,324.8 M199.8,325.9L199.8,325.9L199.8,325.9 M199.7,327
			c0,0.1,0,0.1,0,0.2C199.7,327.1,199.7,327.1,199.7,327 M149.2,342.6l-0.1-0.1C149.1,342.5,149.1,342.5,149.2,342.6 M203,303.1v8.5
			V303.1c-3.8,0-7.3,1.7-9.7,4.5c-0.6-0.1-1.3-0.1-1.9-0.1c-0.4,0-0.8,0-1.2,0c-0.1,0-0.2,0-0.3,0c-0.5,0-1,0.1-1.5,0.2
			c-0.1,0-0.3,0-0.4,0.1c-0.7,0.1-1.3,0.3-1.9,0.5l-8.2,2.5l-1.3,0.4l-10.7,3.3l-0.4,0.1l-11.6,3.5l-3.8,1.2H150
			c-0.7,0.2-1.5,0.5-2.2,0.9c-0.2,0.1-0.4,0.2-0.5,0.3c-1.3,0.6-2.4,1.4-3.5,2.3c-1.1-0.3-2.3-0.5-3.4-0.5c-3.6,0-7,1.5-9.5,4.2
			c-2.4,2.7-3.6,6.2-3.3,9.8c0.1,1.1,0.4,2,0.5,2.4c0.3,1,0.8,2,1.3,2.9c0.1,1.1,0.2,2.1,0.5,3.1s0.7,2,1.3,2.9c0.1,1,0.2,2,0.5,2.9
			c1.4,5.4,6.4,9.1,12.2,9.1c3.8,0,7.3-1.6,9.8-4.4c0.6,0.1,1.2,0.1,1.9,0.1c0.1,0,0.3,0,0.4,0c0.1,0,0.3,0,0.4,0
			c0.6,0,1.2-0.1,1.8-0.2c0.2,0,0.4-0.1,0.5-0.1c0.8-0.1,1.5-0.3,2.2-0.5l32.2-9.8l3.9-1.2c0.7-0.2,1.4-0.5,2.2-0.8c0,0,0,0,0.1,0
			s0.2-0.1,0.3-0.1c1.4-0.7,2.7-1.5,3.9-2.5c1.1,0.3,2.3,0.5,3.5,0.5c3.8,0,7.3-1.6,9.8-4.5c2.4-2.8,3.4-6.5,2.9-10.1
			c-0.1-0.6-0.2-1.2-0.4-1.7c0,0,0,0,0-0.1c-0.3-1-0.7-2-1.3-2.9c-0.1-1.1-0.2-2.1-0.5-3.1s-0.7-2-1.3-2.9c-0.1-1-0.2-1.9-0.5-2.9
			c0-0.1-0.1-0.3-0.1-0.4C213.4,306.7,208.5,303.1,203,303.1L203,303.1z"/>
	</g>
</g>
<g>
	<g>
		<path class="st8" d="M66.8,342.4c0,1,0.8,1.8,1.8,1.8c3.3,0,7.3-0.8,10.5-2c1.7-0.7,4-2,4.3-3.9l0,0c0.2-1-0.6-1.9-1.6-1.8
			l-1.3,0.1c-0.8,0-1.6-0.6-1.5-1.5l0.1-1.5c0-0.5-0.2-0.9-0.4-1.2c-0.3-0.3-0.7-0.5-1.2-0.4l-1.5,0.1c-0.8,0-1.6-0.6-1.5-1.5
			l0.1-1.3c0.1-1-0.8-1.8-1.8-1.6l0,0c-1.9,0.3-3.2,2.5-3.9,4.3C67.6,335.1,66.8,339.1,66.8,342.4z"/>
		<g class="st9">
			<path d="M68.6,343.1L68.6,343.1c-0.5,0-0.7-0.4-0.6-0.7c0.2-1.2,1.8-5.3,3.5-7.1c0.2-0.2,0.6-0.3,0.9,0c0.2,0.2,0.3,0.6,0,0.9
				c-1.5,1.6-3,5.6-3.1,6.5C69.2,342.9,68.9,343.1,68.6,343.1z"/>
			<path d="M68.6,343.1c-0.3,0-0.6-0.2-0.6-0.5c0-0.4,0.2-0.7,0.5-0.7c0.9-0.2,4.8-1.6,6.5-3.1c0.2-0.2,0.6-0.2,0.9,0
				c0.2,0.2,0.2,0.6,0,0.9c-1.9,1.6-6,3.3-7.1,3.5C68.7,343.1,68.7,343.1,68.6,343.1z"/>
		</g>
		<path class="st10" d="M67.4,336.7c-0.4,2-0.6,3.9-0.6,5.8c0,1,0.8,1.8,1.8,1.8c1.8,0,3.8-0.2,5.8-0.6c-0.6-1.5-1.6-2.9-2.8-4.1
			C70.3,338.3,68.9,337.4,67.4,336.7z"/>
		<path class="st8" d="M55.1,354.2c1,0,1.8,0.8,1.8,1.8c0,3.3-0.8,7.3-2,10.5c-0.7,1.7-2,4-3.9,4.3l0,0c-1,0.2-1.9-0.6-1.8-1.6
			l0.1-1.3c0-0.8-0.6-1.6-1.5-1.5l-1.5,0.1c-0.5,0-0.9-0.2-1.2-0.4c-0.3-0.3-0.5-0.7-0.4-1.2l0.1-1.5c0-0.8-0.6-1.6-1.5-1.5L42,362
			c-1,0.1-1.8-0.8-1.6-1.8l0,0c0.3-1.9,2.5-3.2,4.3-3.9C47.8,354.9,51.8,354.1,55.1,354.2z"/>
		<g class="st9">
			<path d="M48.3,359.9c-0.2,0-0.4-0.1-0.5-0.2c-0.2-0.2-0.2-0.6,0-0.9c1.9-1.6,6-3.3,7.1-3.5c0.4,0,0.7,0.2,0.7,0.5
				c0,0.4-0.2,0.7-0.5,0.7c-0.9,0.2-4.8,1.6-6.5,3.1C48.6,359.8,48.5,359.9,48.3,359.9z"/>
			<path d="M51.8,363.4c-0.2,0-0.3,0-0.4-0.2c-0.2-0.2-0.3-0.6,0-0.9c1.5-1.6,3-5.6,3.1-6.5c0-0.4,0.4-0.6,0.7-0.5
				c0.4,0,0.6,0.4,0.5,0.7c-0.2,1.2-1.8,5.3-3.5,7.1C52.2,363.3,52,363.4,51.8,363.4z"/>
		</g>
		<path class="st10" d="M49.3,354.8c2-0.4,3.9-0.6,5.8-0.6c1,0,1.8,0.8,1.8,1.8c0,1.8-0.2,3.8-0.6,5.8c-1.5-0.6-2.9-1.6-4.1-2.8
			C50.9,357.7,50,356.3,49.3,354.8z"/>
		
			<ellipse transform="matrix(3.327795e-02 -0.9994 0.9994 3.327795e-02 -289.1665 399.4451)" class="st11" cx="61.9" cy="349.2" rx="12.2" ry="12.2"/>
		<g>
			<path class="st8" d="M60.1,337.1c-1.8,1.9-3.1,4.5-2.5,7.5c0.6,2.9,3.5,4.4,4.2,4.6c-2.1-3.7,0.8-8,4.6-9
				c1.2-0.3,2.3-0.4,3.2-0.4C66.9,337.5,63.4,336.6,60.1,337.1z"/>
			<path class="st8" d="M49.8,350.9c1.9,1.8,4.5,3.1,7.5,2.5c2.9-0.6,4.4-3.5,4.6-4.2c-3.7,2.1-8-0.8-9-4.6
				c-0.3-1.2-0.4-2.3-0.4-3.2C50.2,344.2,49.3,347.6,49.8,350.9z"/>
			<path class="st8" d="M63.6,361.3c1.8-1.9,3.1-4.5,2.5-7.5c-0.6-2.9-3.5-4.4-4.2-4.6c2.1,3.7-0.8,8-4.6,9
				c-1.2,0.3-2.3,0.4-3.2,0.4C56.8,360.9,60.3,361.8,63.6,361.3z"/>
			<path class="st8" d="M74,347.5c-1.9-1.8-4.5-3.1-7.5-2.5c-2.9,0.6-4.4,3.5-4.6,4.2c3.7-2.1,8,0.8,9,4.6c0.3,1.2,0.4,2.3,0.4,3.2
				C73.5,354.3,74.4,350.8,74,347.5z"/>
		</g>
	</g>
</g>
<g>
	<path class="st12" d="M106.6,337.8l-11.5,41c-0.4,1.4-1.9,2.3-3.3,1.9h-0.2c-1.4-0.4-2.3-1.9-1.9-3.3l11.5-41
		c0.4-1.5,1.9-2.3,3.4-1.8l0,0l0,0C106.1,334.8,107,336.3,106.6,337.8z"/>
	<g>
		<path class="st8" d="M92.6,327.5l25.9,7.3c-2.8,4.9-8.5,7.7-14.2,6.8c-0.5-0.1-1.1-0.2-1.6-0.4c-0.5-0.1-1-0.3-1.5-0.5
			C95.8,338.6,92.4,333.2,92.6,327.5z"/>
		<path class="st8" d="M118.5,334.9l-25.9-7.3h-0.1c-0.9-0.3-1.4-1.2-1.2-2.1l0.9-3.3c0.3-0.9,1.2-1.4,2.1-1.2h0.1l25.9,7.3h0.1
			c0.9,0.3,1.4,1.2,1.2,2.1l-0.9,3.3C120.4,334.6,119.5,335.1,118.5,334.9L118.5,334.9z"/>
		<path class="st10" d="M118.5,334.9l-25.9-7.3h-0.1c-0.9-0.3-1.4-1.2-1.2-2.1l0.9-3.3c0.3-0.9,1.2-1.4,2.1-1.2h0.1l25.9,7.3h0.1
			c0.9,0.3,1.4,1.2,1.2,2.1l-0.9,3.3C120.4,334.6,119.5,335.1,118.5,334.9L118.5,334.9z"/>
		<path class="st8" d="M120.4,328.3L120.4,328.3l-26-7.3l0,0c3.1-5.4,9.6-8.2,15.8-6.5C116.5,316.3,120.6,322.1,120.4,328.3z"/>
		<path class="st13" d="M116.5,325.3c-0.3-0.1-0.5-0.3-0.7-0.6c-0.5-1.5-1.4-2.8-2.5-3.9c-0.4-0.4-0.4-1,0-1.4s1-0.4,1.4,0
			c1.3,1.3,2.4,2.9,3,4.6c0.2,0.5-0.1,1.1-0.6,1.2C116.9,325.3,116.7,325.3,116.5,325.3z"/>
		<path class="st13" d="M106.8,339.8c-0.4-0.1-0.7-0.5-0.7-0.9c0-0.5,0.4-1,0.9-1c2-0.1,4.1-0.9,5.7-2.2c0.4-0.3,1-0.3,1.4,0.2
			c0.3,0.4,0.3,1-0.2,1.4c-1.9,1.5-4.3,2.5-6.8,2.6C107,339.8,106.9,339.8,106.8,339.8z"/>
		<path class="st13" d="M117.7,333.1c-0.5-0.1-0.8-0.7-0.7-1.2l0.5-1.6c0.1-0.5,0.7-0.8,1.2-0.7c0.5,0.1,0.8,0.7,0.7,1.2l-0.5,1.6
			C118.8,333,118.3,333.3,117.7,333.1z"/>
		<circle class="st13" cx="111.5" cy="318.3" r="1"/>
	</g>
</g>
<g>
	<path class="st12" d="M331.1,331.9l-2,42.5c-0.1,1.5-1.3,2.6-2.8,2.6h-0.2c-1.5-0.1-2.6-1.3-2.6-2.8l2-42.5
		c0.1-1.5,1.4-2.6,2.9-2.6l0,0l0,0C330,329.1,331.1,330.4,331.1,331.9z"/>
	<g>
		<path class="st8" d="M315.1,325.1l26.9,1.3c-1.6,5.5-6.5,9.4-12.3,9.8c-0.5,0-1.1,0-1.6,0c-0.6,0-1.1-0.1-1.6-0.2
			C320.7,335.1,316.2,330.7,315.1,325.1z"/>
		<path class="st8" d="M342.1,326.4l-26.9-1.3h-0.1c-0.9,0-1.7-0.8-1.6-1.8l0.2-3.4c0-0.9,0.8-1.7,1.8-1.6h0.1l26.9,1.3h0.1
			c0.9,0,1.7,0.8,1.6,1.8l-0.2,3.4C343.8,325.7,343,326.4,342.1,326.4L342.1,326.4z"/>
		<path class="st10" d="M342.1,326.4l-26.9-1.3h-0.1c-0.9,0-1.7-0.8-1.6-1.8l0.2-3.4c0-0.9,0.8-1.7,1.8-1.6h0.1l26.9,1.3h0.1
			c0.9,0,1.7,0.8,1.6,1.8l-0.2,3.4C343.8,325.7,343,326.4,342.1,326.4L342.1,326.4z"/>
		<path class="st8" d="M342.4,319.6L342.4,319.6l-26.9-1.3l0,0c1.8-6,7.5-10.2,14-9.9C335.9,308.8,341.2,313.5,342.4,319.6z"/>
		<path class="st13" d="M337.9,317.5c-0.3,0-0.6-0.2-0.8-0.5c-0.8-1.3-2-2.4-3.3-3.2c-0.5-0.3-0.6-0.9-0.3-1.3
			c0.3-0.5,0.9-0.6,1.3-0.3c1.6,0.9,3,2.3,3.9,3.8c0.3,0.5,0.2,1.1-0.3,1.3C338.3,317.4,338.1,317.5,337.9,317.5z"/>
		<path class="st13" d="M331.7,333.8c-0.4,0-0.8-0.3-0.9-0.7c-0.2-0.5,0.1-1.1,0.7-1.2c2-0.6,3.8-1.8,5-3.4c0.3-0.4,0.9-0.5,1.4-0.2
			c0.4,0.3,0.5,0.9,0.2,1.4c-1.5,1.9-3.7,3.4-6,4.1C331.9,333.8,331.8,333.8,331.7,333.8z"/>
		<path class="st13" d="M340.9,324.8c-0.5,0-1-0.5-0.9-1l0.1-1.7c0-0.5,0.5-1,1-0.9c0.5,0,1,0.5,0.9,1l-0.1,1.7
			C341.9,324.4,341.4,324.9,340.9,324.8z"/>
		<circle class="st13" cx="331.5" cy="311.8" r="1"/>
	</g>
</g>
<g>
	<path class="st12" d="M297.4,379.1c0.3,1.1,1.4,1.7,2.5,1.4c0.5-0.2,1-0.5,1.2-1s0.3-1,0.2-1.5c-0.3-0.9-5.9-20.1-10.3-35.4
		l-3.9,1.1C291.5,359,297.1,378.2,297.4,379.1z"/>
	<circle class="st8" cx="282.9" cy="322.3" r="23.5"/>
	<circle class="st15" cx="282.9" cy="322.3" r="16.3"/>
	<circle class="st11" cx="282.9" cy="322.3" r="6.5"/>
	<g class="st10">
		<path d="M273.5,300.8c0.5,1.5,2.2,2.3,3.7,1.9c10.8-3.2,22.2,3.1,25.3,13.9c2.7,9.3-1.5,19.1-9.7,23.6c-1.1,0.6-2.5,0-2.9-1.2
			l-4.3-14.9c-0.3-1-1.4-1.7-2.4-1.5c-1.1,0.3-1.8,1.4-1.5,2.5c0.2,0.8,5.6,19.3,5.9,20.1c6.9-1.4,12.6-5.7,16-11.7
			c6.2-11.4,2.1-25.6-9.3-31.8C287.5,298.1,279.9,298,273.5,300.8z"/>
		<path d="M268.4,323c0.1-0.2,0.1-0.3,0.1-0.5c0-2.5,0.6-4.9,1.8-7.1c1.8-3.4,4.9-5.8,8.6-6.9c1.3-0.4,2.6-0.6,3.9-0.6l0,0l0,0l0,0
			c1.3,0,2.5,0.1,3.7,0.5c0.4,0.1,0.9-0.1,1.1-0.5c0-0.1,0.1-0.2,0.1-0.2c0.1-0.5-0.2-1.1-0.7-1.2c-1.4-0.4-2.8-0.5-4.3-0.5
			s-3,0.2-4.4,0.7c-2.1,0.6-4,1.6-5.7,2.9s-3.1,3-4.1,4.9l0,0c-0.7,1.3-1.2,2.6-1.5,4s-0.5,2.8-0.5,4.2c0,0.6,0.5,1,1,1
			C267.9,323.5,268.2,323.3,268.4,323z"/>
		<path d="M293.3,332.2c-1.7,1.8-3.9,3.1-6.4,3.8c-3.7,1.1-7.6,0.6-10.9-1.2c-1.1-0.6-2.2-1.4-3.1-2.3l0,0l0,0
			c-0.9-0.9-1.7-1.9-2.3-2.9c-0.3-0.5-0.9-0.6-1.4-0.3c-0.2,0.1-0.3,0.2-0.4,0.4c-0.2,0.3-0.2,0.7,0,1c0.7,1.2,1.6,2.4,2.7,3.4l0,0
			c1,1,2.2,1.9,3.5,2.6c1.9,1,3.9,1.7,6,1.9c2.2,0.3,4.4,0.1,6.5-0.5c1.4-0.4,2.7-1,3.9-1.7c1.2-0.7,2.3-1.6,3.3-2.7
			c0.1-0.1,0.1-0.1,0.2-0.2c0.2-0.4,0.1-0.9-0.2-1.2c-0.2-0.2-0.5-0.3-0.7-0.3C293.7,331.9,293.5,332,293.3,332.2z"/>
		<path d="M293,310.6c-0.1,0.1-0.1,0.1-0.2,0.2c-0.2,0.4-0.1,0.9,0.2,1.2c1.7,1.7,3,3.9,3.7,6.2c1.1,3.7,0.7,7.6-1.2,10.9
			c-0.3,0.5-0.1,1.1,0.4,1.4s1.1,0.1,1.4-0.4l0,0l0,0c1-1.9,1.7-4,1.9-6.1c0.2-2.1,0-4.3-0.6-6.4c-0.4-1.4-1-2.7-1.7-3.9
			c-0.7-1.2-1.6-2.3-2.5-3.2c-0.2-0.2-0.4-0.3-0.7-0.3C293.4,310.3,293.2,310.4,293,310.6z"/>
		<path d="M289,320.7c0.4,1.6,0.2,3.1-0.6,4.6c-0.3,0.5-0.1,1.1,0.4,1.4s1.1,0.1,1.4-0.4l0,0c0.5-0.9,0.8-1.9,1-3
			c0.1-1,0.1-2.1-0.2-3.1c-0.1-0.5-0.7-0.9-1.2-0.7c-0.3,0.1-0.5,0.2-0.6,0.5C289,320.2,288.9,320.4,289,320.7z"/>
		<path d="M287.2,316.3c-0.1,0.1-0.1,0.1-0.2,0.2c-0.2,0.4-0.1,0.9,0.2,1.2c0.4,0.4,1,0.4,1.4,0c0.1-0.1,0.1-0.1,0.2-0.2
			c0.2-0.4,0.1-0.9-0.2-1.2c-0.2-0.2-0.5-0.3-0.7-0.3C287.7,316,287.4,316.1,287.2,316.3z"/>
		<path d="M286,327.7c-0.4,0.2-0.9,0.4-1.4,0.6c-1.6,0.5-3.3,0.3-4.8-0.5s-2.6-2.2-3-3.8c-0.5-1.7-0.3-3.3,0.5-4.8
			c0.8-1.4,1.9-2.4,3.4-2.9c0.1,0,0.2-0.1,0.4-0.1c1-0.3,2.1-0.3,3.1-0.1c0.4,0.1,0.9-0.1,1.1-0.5c0-0.1,0.1-0.2,0.1-0.3
			c0.1-0.5-0.2-1.1-0.8-1.2c-1.3-0.3-2.7-0.2-4.1,0.1c-0.2,0-0.3,0.1-0.5,0.1c-1,0.3-1.8,0.8-2.6,1.5c-0.8,0.7-1.4,1.4-1.9,2.3l0,0
			l0,0c-0.5,1-0.9,2-1,3.1s0,2.2,0.3,3.2c0.3,1.1,0.8,2.1,1.5,2.9s1.5,1.5,2.5,2c0.9,0.5,2,0.8,3,1c1.1,0.1,2.2,0,3.3-0.3
			c0.6-0.2,1.2-0.4,1.8-0.7c0.2-0.1,0.3-0.2,0.4-0.4c0.2-0.3,0.2-0.7,0-1c-0.1-0.2-0.3-0.4-0.6-0.5
			C286.5,327.6,286.3,327.6,286,327.7z"/>
	</g>
</g>
<g>
	<g>
		<path class="st8" d="M178.8,363.4c0.8,1.4,1.2,3,1,4.7l0,0c-0.1,1.7-0.7,3.2-1.7,4.5c1.1,0.7,2.1,1.4,3,2.3l1.9,1.8
			c1.5,1.4,4.1,0.7,4.6-1.3c0-0.1,0-0.3,0.1-0.4c0.1-0.7-0.1-1.4-0.5-2c-0.5-0.7-0.4-1.8,0.2-2.4c0.4-0.5,0.7-1.1,0.8-1.9
			c0.1-0.7-0.1-1.4-0.5-2c-0.5-0.7-0.4-1.8,0.2-2.4c0.4-0.5,0.7-1.1,0.8-1.9l0,0c0.1-2.2-2.4-3.7-4.3-2.4l-2.3,1.6
			C181,362.3,179.9,362.9,178.8,363.4"/>
		<path class="st8" d="M126.5,369c-0.8-1.4-1.2-3-1-4.7l0,0c0.1-1.7,0.7-3.2,1.7-4.5c-1.1-0.7-2.1-1.4-3-2.3l-1.9-1.8
			c-1.5-1.4-4-0.7-4.6,1.3c0,0.1,0,0.3-0.1,0.4c-0.1,0.7,0.1,1.4,0.5,2c0.5,0.7,0.4,1.8-0.2,2.4c-0.4,0.5-0.7,1.1-0.8,1.9
			c-0.1,0.7,0.1,1.4,0.5,2c0.5,0.7,0.4,1.8-0.2,2.4c-0.4,0.5-0.7,1.1-0.8,1.9v0.1c-0.3,1.9,2.3,3.5,4.2,2.4l2.4-1.6
			C124.3,370.1,125.4,369.5,126.5,369"/>
	</g>
	<g>
		<path class="st15" d="M179,368.8c-0.2-0.2-0.3-0.5-0.3-0.8c0-0.6,0.5-1,1.1-1l4.2,0.3c0.6,0,1,0.5,1,1.1s-0.5,1-1.1,1l-4.2-0.3
			C179.4,369.1,179.2,369,179,368.8"/>
		<path class="st15" d="M181.9,372.2l-2.9-3.4c-0.4-0.4-0.3-1.1,0.1-1.5c0.4-0.4,1.1-0.3,1.5,0.1l2.9,3.4c0.4,0.4,0.3,1.1-0.1,1.5
			C183,372.6,182.3,372.6,181.9,372.2"/>
		<path class="st15" d="M179,368.8c-0.4-0.4-0.3-1.1,0.1-1.5l3.4-2.9c0.4-0.4,1.1-0.3,1.5,0.1s0.3,1.1-0.1,1.5l-3.4,2.9
			C180.1,369.3,179.4,369.2,179,368.8"/>
		<path class="st15" d="M120.5,364.7c-0.2-0.2-0.3-0.5-0.3-0.8c0-0.6,0.5-1,1.1-1l4.2,0.3c0.6,0,1,0.5,1,1.1s-0.5,1-1.1,1l-4.2-0.3
			C120.9,365,120.7,364.9,120.5,364.7"/>
		<path class="st15" d="M124.7,365l-2.9-3.4c-0.4-0.4-0.3-1.1,0.1-1.5s1.1-0.3,1.5,0.1l2.9,3.4c0.4,0.4,0.3,1.1-0.1,1.5
			C125.7,365.5,125,365.4,124.7,365"/>
		<path class="st15" d="M121.3,367.9c-0.4-0.4-0.3-1.1,0.1-1.5l3.4-2.9c0.4-0.4,1.1-0.3,1.5,0.1s0.3,1.1-0.1,1.5l-3.4,2.9
			C122.3,368.4,121.7,368.3,121.3,367.9"/>
		<path class="st11" d="M125.5,364.3L125.5,364.3c0.3-4.6,4.3-8.1,9-7.8l37.6,2.7c4.6,0.3,8.1,4.3,7.8,9l0,0c-0.3,4.6-4.3,8.1-9,7.8
			l-37.6-2.7C128.6,372.9,125.1,368.9,125.5,364.3"/>
	</g>
	<g>
		<path class="st8" d="M133.2,373.2l2.2,0.2c-0.3-1.4,0.2-2.9,1.4-3.9c1.7-1.5,1.9-4.2,0.4-5.9c-1.5-1.7-1.3-4.4,0.4-5.9
			c0.3-0.3,0.5-0.6,0.7-0.9l-4-0.3c-0.9-0.1-1.7,0-2.5,0.2c-0.1,0.2-0.3,0.3-0.5,0.5c-1.7,1.5-1.9,4.2-0.4,5.9
			c1.5,1.7,1.3,4.4-0.4,5.9c-0.8,0.7-1.3,1.7-1.4,2.8C130.3,372.6,131.7,373.1,133.2,373.2"/>
		<path class="st15" d="M141.7,373.8l6.3,0.4c-0.3-1.4,0.2-2.9,1.4-3.9c1.7-1.5,1.9-4.2,0.4-5.9c-1.5-1.7-1.3-4.4,0.4-5.9
			c0.3-0.3,0.5-0.6,0.7-0.9l-6.3-0.4c-0.2,0.3-0.4,0.6-0.7,0.9c-1.7,1.5-1.9,4.2-0.4,5.9s1.3,4.4-0.4,5.9
			C141.9,370.9,141.5,372.4,141.7,373.8"/>
		<path class="st8" d="M154.3,374.7l6.3,0.4c-0.3-1.4,0.2-2.9,1.4-3.9c1.7-1.5,1.9-4.2,0.4-5.9c-1.5-1.7-1.3-4.4,0.4-5.9
			c0.3-0.3,0.5-0.6,0.7-0.9l-6.3-0.4c-0.2,0.3-0.4,0.6-0.7,0.9c-1.7,1.5-1.9,4.2-0.4,5.9c1.5,1.7,1.3,4.4-0.4,5.9
			C154.5,371.8,154,373.3,154.3,374.7"/>
		<path class="st15" d="M174.5,372.1c1.7-1.5,1.9-4.2,0.4-5.9c-1.5-1.7-1.3-4.4,0.4-5.9c0.1,0,0.1-0.1,0.1-0.2c-1-0.6-2.2-0.9-3.4-1
			l-2.3-0.2c-0.2,0.3-0.4,0.6-0.7,0.9c-1.7,1.5-1.9,4.2-0.4,5.9c1.5,1.7,1.3,4.4-0.4,5.9c-1.2,1-1.6,2.5-1.4,3.9l4,0.3
			c0.7,0.1,1.5,0,2.2-0.1C172.9,374.4,173.4,373.1,174.5,372.1"/>
	</g>
</g>
<g>
	<g>
		<path class="st8" d="M258.4,363.9c0.4,1.5,0.4,3.2-0.2,4.8l0,0c-0.5,1.6-1.5,3-2.8,3.9c0.9,0.9,1.7,1.9,2.4,3l1.4,2.2
			c1.1,1.8,3.8,1.7,4.8-0.1c0.1-0.1,0.1-0.3,0.2-0.4c0.2-0.7,0.2-1.4,0-2c-0.3-0.8,0-1.8,0.8-2.3c0.6-0.4,1-0.9,1.2-1.6s0.2-1.4,0-2
			c-0.3-0.8,0-1.8,0.8-2.3c0.6-0.4,1-0.9,1.2-1.6l0,0c0.7-2.1-1.4-4.2-3.5-3.4l-2.6,1C260.9,363.4,259.6,363.7,258.4,363.9"/>
		<path class="st8" d="M206.4,356.2c-0.4-1.5-0.4-3.2,0.2-4.8l0,0c0.5-1.6,1.5-3,2.8-3.9c-0.9-0.9-1.7-1.9-2.4-3l-1.4-2.2
			c-1.1-1.7-3.7-1.7-4.8,0.1c-0.1,0.1-0.1,0.3-0.2,0.4c-0.2,0.7-0.2,1.4,0,2c0.3,0.8,0,1.8-0.8,2.3c-0.6,0.4-1,0.9-1.2,1.6
			s-0.2,1.4,0,2c0.3,0.8,0,1.8-0.8,2.3c-0.6,0.4-1,0.9-1.2,1.6l0,0c-0.7,1.8,1.4,4,3.5,3.4l2.7-1C204,356.7,205.2,356.4,206.4,356.2
			"/>
	</g>
	<g>
		<path class="st15" d="M257.3,369.2c-0.1-0.2-0.1-0.5-0.1-0.8c0.2-0.5,0.8-0.8,1.3-0.7l4,1.3c0.5,0.2,0.8,0.8,0.7,1.3
			c-0.2,0.5-0.8,0.8-1.3,0.7l-4-1.3C257.7,369.6,257.5,369.4,257.3,369.2"/>
		<path class="st15" d="M259.3,373.1l-2-4c-0.3-0.5,0-1.1,0.5-1.4s1.1,0,1.4,0.5l2,4c0.3,0.5,0,1.1-0.5,1.4
			C260.2,373.9,259.6,373.7,259.3,373.1"/>
		<path class="st15" d="M257.3,369.2c-0.3-0.5,0-1.1,0.5-1.4l4-2c0.5-0.3,1.1,0,1.4,0.5s0,1.1-0.5,1.4l-4,2
			C258.2,369.9,257.6,369.7,257.3,369.2"/>
		<path class="st15" d="M201.7,350.5c-0.1-0.2-0.1-0.5-0.1-0.8c0.2-0.5,0.8-0.8,1.3-0.7l4,1.3c0.5,0.2,0.8,0.8,0.7,1.3
			c-0.2,0.5-0.8,0.8-1.3,0.7l-4-1.3C202,351,201.8,350.8,201.7,350.5"/>
		<path class="st15" d="M205.7,351.9l-2-4c-0.3-0.5,0-1.1,0.5-1.4s1.1,0,1.4,0.5l2,4c0.3,0.5,0,1.1-0.5,1.4S205.9,352.4,205.7,351.9
			"/>
		<path class="st15" d="M201.7,353.8c-0.3-0.5,0-1.1,0.5-1.4l4-2c0.5-0.3,1.1,0,1.4,0.5c0.3,0.5,0,1.1-0.5,1.4l-4,2
			C202.6,354.6,201.9,354.4,201.7,353.8"/>
		<path class="st11" d="M206.6,351.4L206.6,351.4c1.5-4.4,6.2-6.8,10.6-5.3l35.8,12c4.4,1.5,6.8,6.2,5.3,10.6l0,0
			c-1.5,4.4-6.2,6.8-10.6,5.3l-35.8-12C207.5,360.5,205.1,355.8,206.6,351.4"/>
	</g>
	<g>
		<path class="st8" d="M211.9,362l2.1,0.7c0.1-1.4,0.9-2.8,2.3-3.4c2.1-1,2.9-3.5,1.9-5.6s-0.2-4.6,1.9-5.6c0.4-0.2,0.7-0.4,0.9-0.7
			l-3.8-1.3c-0.8-0.3-1.7-0.4-2.5-0.4c-0.2,0.1-0.4,0.3-0.6,0.4c-2.1,1-2.9,3.5-1.9,5.6s0.2,4.6-1.9,5.6c-1,0.5-1.7,1.4-2.1,2.3
			C209.2,360.7,210.4,361.5,211.9,362"/>
		<path class="st15" d="M220,364.7l6,2c0.1-1.4,0.9-2.8,2.3-3.4c2.1-1,2.9-3.5,1.9-5.6s-0.2-4.6,1.9-5.6c0.4-0.2,0.7-0.4,0.9-0.7
			l-6-2c-0.3,0.3-0.6,0.5-0.9,0.7c-2.1,1-2.9,3.5-1.9,5.6s0.2,4.6-1.9,5.6C220.9,361.9,220.1,363.3,220,364.7"/>
		<path class="st8" d="M231.9,368.7l6,2c0.1-1.4,0.9-2.8,2.3-3.4c2.1-1,2.9-3.5,1.9-5.6s-0.2-4.6,1.9-5.6c0.4-0.2,0.7-0.4,0.9-0.7
			l-6-2c-0.3,0.3-0.6,0.5-0.9,0.7c-2.1,1-2.9,3.5-1.9,5.6s0.2,4.6-1.9,5.6C232.8,365.9,232,367.3,231.9,368.7"/>
		<path class="st15" d="M252.1,371.2c2.1-1,2.9-3.5,1.9-5.6s-0.2-4.6,1.9-5.6c0.1,0,0.1-0.1,0.2-0.1c-0.9-0.8-1.9-1.4-3-1.8
			l-2.2-0.7c-0.3,0.3-0.6,0.5-0.9,0.7c-2.1,1-2.9,3.5-1.9,5.6s0.2,4.6-1.9,5.6c-1.4,0.7-2.2,2-2.3,3.4l3.8,1.3
			c0.7,0.2,1.4,0.4,2.2,0.4C250,373.1,250.8,371.9,252.1,371.2"/>
	</g>
</g>
<g>
	<g>
		<path class="st8" d="M196.8,319.5c1.2,1,2.2,2.4,2.6,4l0,0c0.5,1.6,0.5,3.3,0,4.8c1.3,0.3,2.5,0.6,3.7,1.1l2.4,1
			c1.9,0.8,4.1-0.8,3.8-2.9c0-0.1-0.1-0.3-0.1-0.4c-0.2-0.7-0.6-1.3-1.2-1.6c-0.7-0.5-1-1.5-0.7-2.3c0.2-0.6,0.3-1.3,0.1-2
			s-0.6-1.3-1.2-1.6c-0.7-0.5-1-1.5-0.7-2.3c0.2-0.6,0.3-1.3,0.1-2l0,0c-0.7-2.1-3.6-2.6-4.9-0.7l-1.6,2.3
			C198.5,317.6,197.6,318.6,196.8,319.5"/>
		<path class="st8" d="M150,343.3c-1.2-1-2.2-2.4-2.6-4l0,0c-0.5-1.6-0.5-3.3,0-4.8c-1.3-0.3-2.5-0.6-3.7-1.1l-2.5-1
			c-1.9-0.8-4,0.8-3.8,2.9c0,0.1,0.1,0.3,0.1,0.4c0.2,0.7,0.6,1.3,1.2,1.6c0.7,0.5,1,1.5,0.7,2.3c-0.2,0.6-0.3,1.3-0.1,2
			s0.6,1.3,1.2,1.6c0.7,0.5,1,1.5,0.7,2.3c-0.2,0.6-0.3,1.3-0.1,2l0,0c0.4,1.9,3.4,2.4,4.8,0.7l1.6-2.4
			C148.3,345.2,149.1,344.2,150,343.3"/>
	</g>
	<g>
		<path class="st15" d="M198.9,324.4c-0.2-0.1-0.4-0.3-0.5-0.6c-0.2-0.6,0.1-1.1,0.7-1.3l4-1.2c0.6-0.2,1.1,0.1,1.3,0.7
			s-0.1,1.1-0.7,1.3l-4,1.2C199.5,324.6,199.2,324.5,198.9,324.4"/>
		<path class="st15" d="M202.9,326.5l-3.9-2.1c-0.5-0.3-0.7-0.9-0.4-1.4s0.9-0.7,1.4-0.4l3.9,2.1c0.5,0.3,0.7,0.9,0.4,1.4
			C204,326.6,203.4,326.8,202.9,326.5"/>
		<path class="st15" d="M198.9,324.4c-0.5-0.3-0.7-0.9-0.4-1.4l2.1-3.9c0.3-0.5,0.9-0.7,1.4-0.4c0.5,0.3,0.7,0.9,0.4,1.4l-2.1,3.9
			C200.1,324.5,199.5,324.7,198.9,324.4"/>
		<path class="st15" d="M142.8,341.5c-0.2-0.1-0.4-0.3-0.5-0.6c-0.2-0.6,0.1-1.1,0.7-1.3l4-1.2c0.6-0.2,1.1,0.1,1.3,0.7
			s-0.1,1.1-0.7,1.3l-4,1.2C143.3,341.7,143,341.6,142.8,341.5"/>
		<path class="st15" d="M146.8,340.3l-3.9-2.1c-0.5-0.3-0.7-0.9-0.4-1.4s0.9-0.7,1.4-0.4l3.9,2.1c0.5,0.3,0.7,0.9,0.4,1.4
			C148,340.4,147.3,340.5,146.8,340.3"/>
		<path class="st15" d="M144.7,344.2c-0.5-0.3-0.7-0.9-0.4-1.4l2.1-3.9c0.3-0.5,0.9-0.7,1.4-0.4c0.5,0.3,0.7,0.9,0.4,1.4l-2.1,3.9
			C145.9,344.3,145.2,344.5,144.7,344.2"/>
		<path class="st11" d="M147.3,339.3L147.3,339.3c-1.3-4.4,1.1-9.1,5.6-10.5l36.1-11c4.4-1.3,9.1,1.1,10.5,5.6l0,0
			c1.3,4.4-1.1,9.1-5.6,10.5l-36.1,11C153.3,346.3,148.6,343.8,147.3,339.3"/>
	</g>
	<g>
		<path class="st8" d="M157.8,344.9l2.1-0.7c-0.7-1.2-0.8-2.8-0.1-4.1c1.1-2,0.3-4.6-1.7-5.7s-2.8-3.6-1.7-5.7
			c0.2-0.3,0.3-0.7,0.4-1.1l-3.8,1.2c-0.8,0.3-1.6,0.6-2.3,1.1c-0.1,0.2-0.2,0.4-0.3,0.6c-1.1,2-0.3,4.6,1.7,5.7s2.8,3.6,1.7,5.7
			c-0.5,1-0.6,2.1-0.3,3.1C154.8,345.4,156.3,345.4,157.8,344.9"/>
		<path class="st15" d="M165.9,342.4l6-1.8c-0.7-1.2-0.8-2.8-0.1-4.1c1.1-2,0.3-4.6-1.7-5.7s-2.8-3.6-1.7-5.7
			c0.2-0.3,0.3-0.7,0.4-1.1l-6,1.8c-0.1,0.4-0.2,0.7-0.4,1.1c-1.1,2-0.3,4.6,1.7,5.7s2.8,3.6,1.7,5.7
			C165.1,339.7,165.2,341.2,165.9,342.4"/>
		<path class="st8" d="M177.9,338.8l6-1.8c-0.7-1.2-0.8-2.8-0.1-4.1c1.1-2,0.3-4.6-1.7-5.7s-2.8-3.6-1.7-5.7
			c0.2-0.3,0.3-0.7,0.4-1.1l-6,1.8c-0.1,0.4-0.2,0.7-0.4,1.1c-1.1,2-0.3,4.6,1.7,5.7s2.8,3.6,1.7,5.7
			C177.1,336,177.2,337.5,177.9,338.8"/>
		<path class="st15" d="M195.9,329.1c1.1-2,0.3-4.6-1.7-5.7s-2.8-3.6-1.7-5.7c0-0.1,0.1-0.1,0.1-0.2c-1.2-0.2-2.4-0.1-3.5,0.3
			l-2.2,0.7c-0.1,0.4-0.2,0.7-0.4,1.1c-1.1,2-0.3,4.6,1.7,5.7s2.8,3.6,1.7,5.7c-0.7,1.4-0.6,2.9,0.1,4.1l3.9-1.2
			c0.7-0.2,1.4-0.5,2-0.9C195.2,331.8,195.2,330.4,195.9,329.1"/>
	</g>
</g>
</svg>
