<?xml version="1.0" encoding="utf-8"?>
<!-- Generator: Adobe Illustrator 22.0.1, SVG Export Plug-In . SVG Version: 6.00 Build 0)  -->
<svg version="1.1" id="Layer_1" xmlns="http://www.w3.org/2000/svg" xmlns:xlink="http://www.w3.org/1999/xlink" x="0px" y="0px"
	 viewBox="0 0 400 400" style="enable-background:new 0 0 400 400;" xml:space="preserve">
<style type="text/css">
	.st0{fill:#60025E;}
	.st1{fill:#FFFFFF;}
	.st2{font-family:'Nunito-SemiBold';}
	.st3{font-size:26px;}
	.st4{fill:none;stroke:#000000;stroke-width:5.0197;stroke-linecap:round;stroke-linejoin:round;stroke-miterlimit:10;}
	.st5{fill:#D81E2A;}
	.st6{font-family:'Nunito-Bold';}
	.st7{font-size:34px;}
	.st8{font-size:19.2438px;}
	.st9{fill:#A5694B;}
	.st10{fill:#B97850;}
	.st11{fill:none;stroke:#5E3835;stroke-width:3;stroke-linecap:round;stroke-linejoin:round;stroke-miterlimit:10;}
	.st12{opacity:0.32;fill:#5E3835;}
	.st13{fill:#5E3835;}
	.st14{fill:#D18F6D;}
	.st15{fill:#D35E42;}
	.st16{opacity:0.32;}
	.st17{fill:#A0AAB4;}
	.st18{fill:#3D4449;}
	.st19{font-size:24.8162px;}
	.st20{fill:none;stroke:#D6DEE4;stroke-width:1.3184;stroke-linecap:round;stroke-linejoin:round;stroke-dasharray:0.6705,4.6933;}
	.st21{fill:#76CEE4;}
	.st22{fill:#60C1D8;}
	.st23{fill:#1EAFD8;}
	.st24{fill:#033333;}
	.st25{font-size:32.773px;}
	.st26{fill:#FCC62D;}
	.st27{fill:#AEB9C1;}
	.st28{font-size:33.3576px;}
	.st29{fill:none;stroke:#F9DC39;stroke-width:1.7722;stroke-linecap:round;stroke-linejoin:round;stroke-dasharray:0.9013,6.3086;}
	.st30{font-size:28.2102px;}
	.st31{fill:none;stroke:#D6DEE4;stroke-width:1.4988;stroke-linecap:round;stroke-linejoin:round;stroke-dasharray:0.7622,5.3351;}
</style>
<path class="st0" d="M283,254.2H117c-8.8,0-16,7.2-16,16v3.6c0,8.8,7.2,16,16,16h166c8.8,0,16-7.2,16-16v-3.6
	C299,261.4,291.8,254.2,283,254.2z"/>
<text transform="matrix(1 0 0 1 143.8536 279.5078)" class="st1 st2 st3">Si tengo:</text>
<g>
	<path class="st1" d="M228.4,238.9c-6.5,0-12.2-2.2-16.4-6.4c-0.3-0.3-0.6-0.6-0.9-0.9c-4.2,0.8-8.6,1.2-12.9,1.2
		c-5.4,0-10.8-0.6-16-1.9c-0.5,0.6-0.9,1.1-1.4,1.6c-4.2,4.2-9.9,6.4-16.4,6.4c-2,0-4-0.2-6.1-0.6c-7.6-1.5-15.1-5.7-21.3-11.9
		c-6.2-6.2-10.4-13.7-11.9-21.3c-1.8-8.9,0.3-16.9,5.8-22.4c0.5-0.5,1.1-1,1.6-1.5c-0.2-1-0.4-1.9-0.6-2.9c-0.5,0.1-1,0.2-1.4,0.3
		c-3.9,0.9-8.8,2.1-13,2.1c-9.3,0-11.5-5.7-12.1-8.1c-4.1-18.1,23.2-39.1,35.3-47.5c-2.9-4.5-5.2-9.3-6.9-14.3
		c-4.3-5-9-8.9-14.1-11.6L103,116.3c-2.3,2.3-5.3,3.5-8.5,3.5c-0.2,0-0.4,0-0.6,0c-0.1,0-0.2,0-0.3,0L39.8,114c-3.1-0.2-6-1.6-8-4
		c-2.1-2.4-3.1-5.4-2.8-8.6l2.9-42.2c0.3-6.1,5.4-11,11.6-11c0.3,0,0.6,0,0.9,0c0,0,54,5.8,54,5.8c3.4,0.4,6.4,2,8.4,4.7l16.9,22.4
		c1,1.2,1.6,2.6,2,4.1c0.3,0.1,0.5,0.3,0.8,0.5c1.2,0.7,2.5,1.4,3.7,2.1c0.1-6.5,1.1-13,3-19.1c-6.3-5.6-10-13.6-10-22.1
		c0-16.3,13.3-29.6,29.6-29.6c7.7,0,15,3,20.5,8.3c8-3.2,16.4-4.8,25.1-4.8c8.7,0,17.1,1.6,25.1,4.8c5.5-5.3,12.8-8.3,20.5-8.3
		c16.3,0,29.6,13.3,29.6,29.6c0,8.5-3.7,16.6-10,22.1c2,6.4,3,13.1,3,19.9c0,13.1-3.7,25.7-10.7,36.7c11.7,8.2,38.5,29.3,34.4,47.4
		c-0.5,2.4-2.8,8.1-11.8,8.1c0,0,0,0,0,0c-4.1,0-8.7-1.1-12.5-2.1c-0.4-0.1-0.8-0.2-1.2-0.3c-0.4,1.9-0.8,3.8-1.4,5.7
		c4.5,5.4,6.1,12.8,4.5,21c-1.5,7.6-5.8,15.1-11.9,21.3c-6.2,6.2-13.7,10.4-21.3,11.9C232.4,238.7,230.4,238.9,228.4,238.9z"/>
	<path class="st1" d="M243.9,21.9c13.6,0,24.6,11,24.6,24.6c0,8.5-4.3,16-10.8,20.4c2.5,6.8,3.8,14.1,3.8,21.7
		c0,14.1-4.6,27-12.4,37.5c0,0.2,0,0.4-0.1,0.6c9.9,6.5,39.9,28.6,36.2,44.9c-0.7,3.2-3.5,4.2-6.9,4.2c-6.1,0-14.3-3.1-17.6-3.1
		c-0.1,0-0.2,0-0.3,0c-0.5,4.4-1.5,8.7-2.9,12.8c0.3,0.2,0.6,0.5,0.8,0.8c4.3,4.3,5.9,10.7,4.4,17.9c-1.3,6.6-5.1,13.3-10.6,18.7
		c-5.5,5.5-12.1,9.2-18.7,10.6c-1.8,0.4-3.4,0.5-5.1,0.5c-5.1,0-9.6-1.7-12.8-5c-0.9-0.9-1.7-1.9-2.3-2.9c-4.8,1.2-9.8,1.8-15,1.8
		c-6.3,0-12.4-0.9-18.1-2.7c-0.8,1.4-1.7,2.7-2.8,3.8c-3.3,3.3-7.7,5-12.8,5c-1.6,0-3.3-0.2-5.1-0.5c-6.6-1.3-13.3-5.1-18.7-10.6
		c-5.5-5.5-9.2-12.1-10.6-18.7c-1.4-7.2,0.1-13.6,4.4-17.9c1.1-1.1,2.4-2.1,3.8-2.8c-1-3.5-1.8-7-2.2-10.7c-0.1,0-0.2,0-0.3,0
		c-3.3,0-11.9,3.1-18.3,3.1c-3.6,0-6.5-1-7.2-4.2c-3.7-16.4,27.6-38.8,37.5-45c-4.1-5.4-7.3-11.6-9.5-18.2
		c-6.6-7.9-13.5-12.6-19.5-15.2l-19.4,19.6c-1.3,1.3-3.1,2-4.9,2c-0.1,0-0.2,0-0.4,0L40.2,109c-3.7-0.2-6.6-3.4-6.3-7.2l2.9-42.3
		c0.2-3.5,3.1-6.3,6.7-6.3c0.2,0,0.4,0,0.5,0L97.9,59c1.9,0.2,3.7,1.1,4.9,2.7l16.9,22.4c1,1.3,1.5,2.9,1.4,4.5
		c0.8,0.3,1.5,0.7,2.3,1.1c0.2,0.1,0.3,0.2,0.4,0.3c3.9,2,8,4.8,12.1,8.6c-0.5-3.2-0.8-6.6-0.8-9.9c0-7.6,1.4-14.9,3.8-21.7
		c-6.5-4.4-10.8-11.9-10.8-20.4c0-13.6,11-24.6,24.6-24.6c7.8,0,14.7,3.6,19.2,9.3c8-3.7,17-5.8,26.4-5.8c9.4,0,18.4,2.1,26.4,5.8
		C229.2,25.6,236.2,21.9,243.9,21.9 M102,84.6c0.4,0,0.8,0,1.3,0c1.2,0,2.8,0.1,4.7,0.3c0.8,0.1,1.8,0.2,2.9,0.4
		c-0.7-1.7-2.4-3-4.3-3.1c-0.1,0-0.2,0-0.3,0C104.4,82.2,102.9,83.1,102,84.6 M106.3,92.2c1.5,0,2.9-0.7,3.8-1.9
		c-1.5-0.3-2.9-0.5-4-0.6c-0.5,0-0.9,0-0.9,0c0,0,0,0,0,0c-0.2,0-0.4,0-0.6-0.1c-0.5,0-1,0-1.4,0c-0.5,0-0.9,0-1.2,0
		c0.8,1.4,2.3,2.4,4.1,2.6C106,92.2,106.1,92.2,106.3,92.2 M243.9,11.9c-8,0-15.5,2.7-21.6,7.6c-7.7-2.7-15.8-4.1-24-4.1
		c-8.3,0-16.3,1.4-24,4.1c-6.1-4.9-13.6-7.6-21.6-7.6c-19.1,0-34.6,15.5-34.6,34.6c0,8.9,3.4,17.3,9.4,23.7c-0.5,2-0.9,4-1.3,6
		l-15.5-20.5c-2.8-3.7-7.1-6.1-11.8-6.6l-53.9-5.8c-0.1,0-0.2,0-0.3,0c-0.4,0-0.9-0.1-1.3-0.1c-8.8,0-16.1,6.9-16.6,15.7L23.9,101
		c-0.3,4.5,1.1,8.8,4.1,12.2c2.9,3.3,7,5.3,11.3,5.7l53.7,5.8c0.2,0,0.4,0,0.6,0c0.3,0,0.6,0,0.9,0c4.6,0,8.8-1.8,12-4.9
		c0,0,0,0,0,0l14.1-14.3c3.1,2.1,6.1,4.7,8.9,7.9c1.3,3.6,2.8,7,4.7,10.3c-5,3.6-11.3,8.6-17.1,14.3c-13.5,13.2-18.8,24.9-16.4,35.7
		c0.6,2.8,3.7,12,17,12c1.8,0,3.6-0.2,5.3-0.4c-3.2,5.9-4.1,13.2-2.6,20.7c1.7,8.5,6.4,17,13.3,23.8c6.9,6.9,15.3,11.6,23.8,13.3
		c2.4,0.5,4.7,0.7,7,0.7c7.7,0,14.4-2.6,19.5-7.5c4.7,0.9,9.5,1.4,14.3,1.4c3.7,0,7.5-0.3,11.2-0.9c5,4.6,11.6,7,18.9,7
		c2.3,0,4.7-0.2,7-0.7c8.5-1.7,17-6.4,23.8-13.3c6.9-6.9,11.6-15.3,13.3-23.8c1.6-7.8,0.5-15.3-3-21.4c2.8,0.6,5.8,1,8.7,1
		c13,0,16-9.2,16.7-12c2.4-10.5-2.9-22.4-15.6-35.3c-5.8-5.8-12-10.9-17-14.6c6-10.8,9.1-22.8,9.1-35.3c0-6.3-0.8-12.4-2.3-18.4
		c6-6.3,9.4-14.8,9.4-23.7C278.5,27.4,263,11.9,243.9,11.9L243.9,11.9z"/>
</g>
<g>
	<path class="st4" d="M100.8,87.2c0,0,24.7-3.3,44.3,26"/>
	<g>
		<path class="st5" d="M119.7,84.1l-16.9-22.4c-1.2-1.6-3-2.5-4.9-2.7L44,53.2c-3.8-0.3-7,2.6-7.2,6.3l-2.9,42.3
			c-0.3,3.8,2.6,7,6.3,7.2l53.9,5.8c2,0.1,3.9-0.6,5.3-2l19.8-20C121.5,90.5,121.8,86.8,119.7,84.1z M105.9,92.2
			c-2.8-0.2-4.9-2.6-4.7-5.3c0.2-2.7,2.6-4.9,5.3-4.7c2.7,0.2,4.9,2.6,4.7,5.3C111,90.3,108.6,92.4,105.9,92.2z"/>
	</g>
	<g>
		<g>
			<text transform="matrix(0.9978 6.700215e-02 -6.700215e-02 0.9978 53.1359 96.3167)" class="st1 st6 st7">80</text>
		</g>
		<text transform="matrix(0.9978 6.700215e-02 -6.700215e-02 0.9978 43.2699 76.8588)" class="st1 st6 st8">$</text>
	</g>
	<path class="st4" d="M105,87.2c0,0,7.6-0.2,17.3,4.7"/>
</g>
<path class="st9" d="M246.2,124.9c-0.1-0.1-0.1-0.1-0.2-0.2h-95.4c-0.1,0.1-0.1,0.1-0.2,0.2c-3.9,2-44.2,28.1-40,46.6
	c2,8.9,21,0.8,25.8,1.1c3.7,31.1,30.1,55.2,62.1,55.2s58.5-24.1,62.1-55.2c4.8-0.3,22.8,7.8,24.8-1.1
	C289.4,153.1,250.1,127,246.2,124.9z"/>
<path class="st10" d="M171.3,192.3c-5.5-5.5-12.1-9.2-18.7-10.6c-7.2-1.4-13.6,0.1-17.9,4.5c-4.3,4.3-5.9,10.7-4.4,17.9
	c1.3,6.6,5.1,13.3,10.6,18.7c5.5,5.5,12.1,9.2,18.7,10.6c1.8,0.4,3.4,0.5,5.1,0.5c5.1,0,9.6-1.7,12.8-5c4.3-4.3,5.9-10.7,4.5-17.9
	C180.5,204.5,176.7,197.8,171.3,192.3z"/>
<path class="st10" d="M211.2,211.1c-1.4,7.2,0.1,13.6,4.5,17.9c3.3,3.3,7.7,5,12.8,5c1.6,0,3.3-0.2,5.1-0.5
	c6.6-1.3,13.3-5.1,18.7-10.6c5.5-5.5,9.2-12.1,10.6-18.7c1.4-7.2-0.1-13.6-4.4-17.9c-4.3-4.3-10.7-5.9-17.9-4.5
	c-6.6,1.3-13.2,5.1-18.7,10.6C216.2,197.8,212.5,204.5,211.2,211.1z"/>
<path class="st11" d="M178.7,124.7c0,0,20.3,12,39.7-0.7"/>
<ellipse class="st12" cx="198.8" cy="123.3" rx="50.5" ry="37"/>
<g>
	<circle class="st9" cx="243.9" cy="46.5" r="24.6"/>
	<circle class="st13" cx="244.5" cy="46.5" r="14.6"/>
	<circle class="st9" cx="152.7" cy="46.5" r="24.6"/>
	<circle class="st13" cx="152.7" cy="46.5" r="14.6"/>
	<g>
		<circle class="st10" cx="198.3" cy="88.6" r="63.1"/>
	</g>
	<ellipse class="st14" cx="198.3" cy="119.6" rx="27.7" ry="20.4"/>
	<ellipse class="st13" cx="198.3" cy="104.4" rx="14" ry="8.8"/>
	<circle class="st13" cx="166.5" cy="83.1" r="3.9"/>
	<circle class="st13" cx="229.2" cy="83.1" r="3.9"/>
	<circle class="st15" cx="157" cy="102.8" r="11.3"/>
	<circle class="st15" cx="239.5" cy="102.8" r="11.3"/>
</g>
<g>
	<path class="st14" d="M164.6,202.3c-3.5-3.5-7.6-5.8-11.8-6.6c-4.5-0.9-8.6,0.1-11.3,2.8c-2.7,2.7-3.7,6.7-2.8,11.3
		c0.8,4.2,3.2,8.3,6.6,11.8c3.5,3.5,7.6,5.8,11.8,6.6c1.1,0.2,2.2,0.3,3.2,0.3c3.2,0,6-1.1,8.1-3.1c2.7-2.7,3.7-6.7,2.8-11.3
		C170.4,210,168.1,205.8,164.6,202.3z"/>
	<ellipse class="st14" cx="134.4" cy="200.3" rx="2.6" ry="2.7"/>
	<ellipse class="st14" cx="139.9" cy="193.2" rx="2.6" ry="2.7"/>
	<ellipse class="st14" cx="148.2" cy="189.7" rx="2.6" ry="2.7"/>
</g>
<g>
	<path class="st14" d="M221.5,214.1c-0.9,4.6,0.1,8.6,2.8,11.3c2.1,2.1,4.9,3.1,8.1,3.1c1,0,2.1-0.1,3.2-0.3
		c4.2-0.8,8.3-3.2,11.8-6.6c3.5-3.5,5.8-7.6,6.6-11.8c0.9-4.6-0.1-8.6-2.8-11.3c-2.7-2.7-6.7-3.7-11.3-2.8
		c-4.1,0.8-8.3,3.2-11.8,6.6C224.7,205.8,222.3,210,221.5,214.1z"/>
	<ellipse class="st14" cx="258.3" cy="200.3" rx="2.6" ry="2.7"/>
	<ellipse class="st14" cx="252.8" cy="193.2" rx="2.6" ry="2.7"/>
	<ellipse class="st14" cx="244.6" cy="189.7" rx="2.6" ry="2.7"/>
</g>
<g>
	<path class="st9" d="M194,40.9L194,40.9c-0.3-0.3-0.3-0.8,0-1.1l8.1-8.1c0.3-0.3,0.8-0.3,1.1,0v0c0.3,0.3,0.3,0.8,0,1.1l-8.1,8.1
		C194.8,41.2,194.3,41.2,194,40.9z"/>
	<path class="st9" d="M194,31.7L194,31.7c0.3-0.3,0.8-0.3,1.1,0l8.1,8.1c0.3,0.3,0.3,0.8,0,1.1v0c-0.3,0.3-0.8,0.3-1.1,0l-8.1-8.1
		C193.7,32.5,193.7,32,194,31.7z"/>
</g>
<g>
	<path class="st9" d="M194,53.9L194,53.9c-0.3-0.3-0.3-0.8,0-1.1l8.1-8.1c0.3-0.3,0.8-0.3,1.1,0l0,0c0.3,0.3,0.3,0.8,0,1.1l-8.1,8.1
		C194.8,54.2,194.3,54.2,194,53.9z"/>
	<path class="st9" d="M194,44.7L194,44.7c0.3-0.3,0.8-0.3,1.1,0l8.1,8.1c0.3,0.3,0.3,0.8,0,1.1v0c-0.3,0.3-0.8,0.3-1.1,0l-8.1-8.1
		C193.7,45.5,193.7,45,194,44.7z"/>
</g>
<g>
	<path class="st9" d="M194,66.9L194,66.9c-0.3-0.3-0.3-0.8,0-1.1l8.1-8.1c0.3-0.3,0.8-0.3,1.1,0l0,0c0.3,0.3,0.3,0.8,0,1.1l-8.1,8.1
		C194.8,67.2,194.3,67.2,194,66.9z"/>
	<path class="st9" d="M194,57.7L194,57.7c0.3-0.3,0.8-0.3,1.1,0l8.1,8.1c0.3,0.3,0.3,0.8,0,1.1l0,0c-0.3,0.3-0.8,0.3-1.1,0l-8.1-8.1
		C193.7,58.5,193.7,58,194,57.7z"/>
</g>
<g>
	<path class="st9" d="M194,79.9L194,79.9c-0.3-0.3-0.3-0.8,0-1.1l8.1-8.1c0.3-0.3,0.8-0.3,1.1,0v0c0.3,0.3,0.3,0.8,0,1.1l-8.1,8.1
		C194.8,80.2,194.3,80.2,194,79.9z"/>
	<path class="st9" d="M194,70.7L194,70.7c0.3-0.3,0.8-0.3,1.1,0l8.1,8.1c0.3,0.3,0.3,0.8,0,1.1l0,0c-0.3,0.3-0.8,0.3-1.1,0l-8.1-8.1
		C193.7,71.5,193.7,71,194,70.7z"/>
</g>
<g class="st16">
	<path class="st13" d="M194,173.9L194,173.9c-0.3-0.3-0.3-0.8,0-1.1l8.1-8.1c0.3-0.3,0.8-0.3,1.1,0l0,0c0.3,0.3,0.3,0.8,0,1.1
		l-8.1,8.1C194.8,174.2,194.3,174.2,194,173.9z"/>
	<path class="st13" d="M194,164.7L194,164.7c0.3-0.3,0.8-0.3,1.1,0l8.1,8.1c0.3,0.3,0.3,0.8,0,1.1l0,0c-0.3,0.3-0.8,0.3-1.1,0
		l-8.1-8.1C193.7,165.5,193.7,165,194,164.7z"/>
</g>
<g class="st16">
	<path class="st13" d="M194,187.9L194,187.9c-0.3-0.3-0.3-0.8,0-1.1l8.1-8.1c0.3-0.3,0.8-0.3,1.1,0l0,0c0.3,0.3,0.3,0.8,0,1.1
		l-8.1,8.1C194.8,188.2,194.3,188.2,194,187.9z"/>
	<path class="st13" d="M194,178.7L194,178.7c0.3-0.3,0.8-0.3,1.1,0l8.1,8.1c0.3,0.3,0.3,0.8,0,1.1l0,0c-0.3,0.3-0.8,0.3-1.1,0
		l-8.1-8.1C193.7,179.5,193.7,179,194,178.7z"/>
</g>
<g class="st16">
	<path class="st13" d="M194,201.9L194,201.9c-0.3-0.3-0.3-0.8,0-1.1l8.1-8.1c0.3-0.3,0.8-0.3,1.1,0l0,0c0.3,0.3,0.3,0.8,0,1.1
		l-8.1,8.1C194.8,202.2,194.3,202.2,194,201.9z"/>
	<path class="st13" d="M194,192.7L194,192.7c0.3-0.3,0.8-0.3,1.1,0l8.1,8.1c0.3,0.3,0.3,0.8,0,1.1l0,0c-0.3,0.3-0.8,0.3-1.1,0
		l-8.1-8.1C193.7,193.5,193.7,193,194,192.7z"/>
</g>
<g class="st16">
	<path class="st13" d="M194,215.9L194,215.9c-0.3-0.3-0.3-0.8,0-1.1l8.1-8.1c0.3-0.3,0.8-0.3,1.1,0l0,0c0.3,0.3,0.3,0.8,0,1.1
		l-8.1,8.1C194.8,216.2,194.3,216.2,194,215.9z"/>
	<path class="st13" d="M194,206.7L194,206.7c0.3-0.3,0.8-0.3,1.1,0l8.1,8.1c0.3,0.3,0.3,0.8,0,1.1l0,0c-0.3,0.3-0.8,0.3-1.1,0
		l-8.1-8.1C193.7,207.5,193.7,207,194,206.7z"/>
</g>
<g>
	<path class="st1" d="M154.4,388c-0.4,0-0.8-0.1-1.2-0.2c-7.1-0.6-12.7-6.6-12.7-13.8v-12.1c-6,4.5-13.4,7-21,7
		c-7,0-13.7-2.1-19.4-5.9c-7.3,11.8-20.3,19.2-34.6,19.2c-22.4,0-40.7-18.3-40.7-40.7s18.3-40.7,40.7-40.7
		c10.1,0,19.7,3.7,27.1,10.3c6.6-7.9,16.5-12.6,26.9-12.6c9.9,0,19.3,4.2,25.9,11.4c2.5-2.1,5.6-3.3,9-3.3h97.2
		c2.6,0,5.1,0.7,7.2,2.1c7.6-8.1,18.4-12.9,29.7-12.9c17.3,0,32.4,10.8,38.2,26.6c4.1-1.9,8.6-2.9,13.2-2.9
		c17.4,0,31.6,14.2,31.6,31.6c0,17.4-14.2,31.6-31.6,31.6c-10.6,0-20.5-5.5-26.3-14.1c-7.1,5.6-15.9,8.7-25.1,8.7
		c-8.4,0-16.3-2.5-23-7.1v4c0,7.7-6.2,13.9-13.9,13.9H154.4z"/>
	<path class="st1" d="M288.5,300.8c17.5,0,32.1,12.6,35.1,29.3c4.5-3.5,10.1-5.6,16.2-5.6c14.7,0,26.6,11.9,26.6,26.6
		c0,14.7-11.9,26.6-26.6,26.6c-11.4,0-21.1-7.2-24.9-17.2c-6.5,7.2-16,11.8-26.5,11.8c-11.4,0-21.5-5.3-28-13.6v15.5
		c0,4.9-4,8.9-8.9,8.9h-97.2v-0.1c-4.9,0-8.9-4-8.9-8.9v-25c-5.3,8.9-14.9,14.9-26,14.9c-8.2,0-15.6-3.3-21.1-8.6
		c-5.4,12.9-18.1,21.9-32.9,21.9c-19.7,0-35.7-16-35.7-35.7c0-19.7,16-35.7,35.7-35.7c11.2,0,21.1,5.1,27.7,13.2
		c5.2-9.2,15.1-15.5,26.3-15.5c11.2,0,21,6.1,26.2,15.2c0.8-4.1,4.4-7.1,8.7-7.1h97.2c3.3,0,6.1,1.8,7.7,4.4
		C265.7,306.8,276.4,300.8,288.5,300.8 M288.5,290.8c-11.4,0-22.4,4.3-30.7,11.9c-2-0.7-4.1-1.1-6.2-1.1h-97.2c-3,0-5.8,0.7-8.4,2
		c-7.3-6.4-16.7-10.1-26.5-10.1c-10.3,0-20,4-27.4,10.8c-7.7-5.5-16.9-8.5-26.6-8.5c-25.2,0-45.7,20.5-45.7,45.7
		s20.5,45.7,45.7,45.7c14.3,0,27.5-6.6,36-17.6c5.5,2.8,11.6,4.3,18,4.3c5.6,0,11-1.2,16-3.4v3.5c0,9.7,7.4,17.8,16.8,18.8
		c0.7,0.1,1.3,0.2,2.1,0.2h97.2c9,0,16.5-6.3,18.4-14.7c5.7,2.5,12,3.9,18.5,3.9c8.6,0,16.9-2.4,24-6.8c6.8,7.6,16.7,12.3,27.3,12.3
		c20.2,0,36.6-16.4,36.6-36.6s-16.4-36.6-36.6-36.6c-3.6,0-7.1,0.5-10.5,1.5C321.8,300.9,306.2,290.8,288.5,290.8L288.5,290.8z"/>
</g>
<g>
	<g>
		<g>
			<circle class="st17" cx="339.9" cy="351.1" r="26.6"/>
		</g>
		<circle class="st17" cx="339.9" cy="351.1" r="17.4"/>
		<g>
			<text transform="matrix(1 0 0 1 335.2754 358.7969)" class="st18 st6 st19">1</text>
		</g>
	</g>
	<g>
		<g>
			<ellipse class="st20" cx="339.9" cy="351.1" rx="21.4" ry="21.4"/>
		</g>
	</g>
	<path id="XMLID_105_" class="st18" d="M331.4,356.8c-0.3,0-0.4-0.1-0.4-0.4v-0.5c-0.8-0.1-1.3-0.3-2-0.8v0.5c0,0.3-0.1,0.4-0.4,0.4
		c-0.3,0-0.4-0.1-0.4-0.4v-2.4c0-0.3,0.1-0.4,0.4-0.4c0.3,0,0.4,0.1,0.4,0.4v0.9c0.4,0.5,0.7,0.6,1.5,0.9c0.2,0.1,0.3,0.1,0.6,0.1
		v-3.8c-0.8-0.2-1.3-0.4-1.7-0.6c-0.4-0.2-0.7-0.5-1-0.8s-0.3-0.7-0.3-1.1c0-0.8,0.3-1.4,0.8-1.8c0.5-0.5,1.3-0.7,2.2-0.7v-0.5
		c0-0.3,0.1-0.4,0.4-0.4c0.3,0,0.4,0.1,0.4,0.4v0.6c0.7,0.1,1.3,0.4,1.8,0.7c0.1,0.1,0.1,0.2,0.1,0.3v-0.5c0-0.3,0.1-0.4,0.4-0.4
		c0.3,0,0.4,0.1,0.4,0.4v2.4c0,0.3-0.1,0.4-0.4,0.4c-0.3,0-0.4-0.1-0.4-0.4v-0.9c-0.5-0.5-0.9-0.9-1.5-1.1c-0.1-0.1-0.3-0.1-0.5-0.1
		v3.6c0.1,0,0.3,0.1,0.6,0.1c0.5,0.1,0.9,0.3,1.3,0.5c0.4,0.2,0.7,0.5,1,0.8c0.3,0.3,0.3,0.7,0.3,1.1c0,0.9-0.3,1.5-0.9,2
		c-0.5,0.5-1.4,0.7-2.4,0.7v0.5C331.8,356.7,331.6,356.8,331.4,356.8 M329.8,355.1c0.1,0,0.1,0.1,0.2,0.1
		C330,355.2,329.9,355.1,329.8,355.1 M331.8,351.5v3.6c0.8,0,1.5-0.2,1.8-0.5c0.5-0.3,0.7-0.8,0.7-1.3c0-0.3-0.1-0.5-0.3-0.7
		c-0.2-0.2-0.4-0.4-0.7-0.5c-0.3-0.1-0.6-0.3-0.9-0.3L331.8,351.5z M334,354.8c-0.1,0.1-0.1,0.1-0.2,0.1c-0.1,0.1-0.2,0.1-0.3,0.2
		c0.1-0.1,0.3-0.1,0.3-0.3C334,354.8,334,354.8,334,354.8 M331,347c-0.8,0-1.3,0.2-1.7,0.5c-0.4,0.3-0.6,0.7-0.6,1.2
		c0,0.3,0.1,0.5,0.3,0.7c0.2,0.2,0.4,0.4,0.7,0.5c0.3,0.1,0.6,0.3,0.9,0.3c0.1,0.1,0.3,0.1,0.5,0.1V347L331,347z"/>
</g>
<g>
	<g>
		<g>
			<g>
				<g>
					<g>
						<path class="st21" d="M154.4,382.9c-4.9,0-8.9-4-8.9-8.9v-53.5c0-4.9,4-8.9,8.9-8.9h97.2c4.9,0,8.9,4,8.9,8.9v53.6
							c0,4.9-4,8.9-8.9,8.9h-97.2L154.4,382.9L154.4,382.9z"/>
					</g>
					<g>
						<path class="st22" d="M242,374.1h-77.8c0-5.3-4.4-9.7-9.7-9.7v-34c5.3,0,9.7-4.4,9.7-9.7H242c0,5.3,4.4,9.7,9.7,9.7v34
							C246.3,364.3,242,368.7,242,374.1z"/>
					</g>
				</g>
				<g>
					<circle class="st23" cx="156.5" cy="322.7" r="3.9"/>
					<circle class="st23" cx="250.1" cy="322.7" r="3.9"/>
				</g>
				<g>
					<circle class="st23" cx="156.5" cy="372.4" r="3.9"/>
					<circle class="st23" cx="250.1" cy="372.4" r="3.9"/>
				</g>
				<g>
					<circle class="st21" cx="169.7" cy="329.7" r="2.2"/>
				</g>
				<g>
					
						<ellipse transform="matrix(6.651884e-02 -0.9978 0.9978 6.651884e-02 -166.6906 486.7754)" class="st21" cx="176.8" cy="332.5" rx="2.2" ry="2.2"/>
				</g>
				<g>
					<circle class="st21" cx="228.2" cy="329.4" r="2.2"/>
				</g>
				<g>
					<circle class="st21" cx="160.3" cy="337.4" r="2.2"/>
				</g>
				<g>
					<circle class="st21" cx="168.6" cy="367.4" r="2.2"/>
				</g>
				<g>
					
						<ellipse transform="matrix(6.651878e-02 -0.9978 0.9978 6.651878e-02 -196.2286 514.5986)" class="st21" cx="176.9" cy="362.2" rx="2.2" ry="2.2"/>
				</g>
				<g>
					<circle class="st21" cx="160.5" cy="360.6" r="2.2"/>
				</g>
				<g>
					<circle class="st21" cx="159.2" cy="350.1" r="2.2"/>
				</g>
				<g>
					<circle class="st21" cx="239.4" cy="332" r="2.2"/>
				</g>
				<g>
					<circle class="st21" cx="234.7" cy="344.9" r="2.2"/>
				</g>
				<g>
					<circle class="st21" cx="245.6" cy="340.5" r="2.2"/>
				</g>
				<g>
					<circle class="st21" cx="244.3" cy="354" r="2.2"/>
				</g>
				<g>
					<circle class="st21" cx="236" cy="355.3" r="2.2"/>
				</g>
				<g>
					<circle class="st21" cx="227.3" cy="363.3" r="2.2"/>
				</g>
				<g>
					<ellipse class="st21" cx="237.8" cy="365.9" rx="2.2" ry="2.2"/>
				</g>
				<path id="XMLID_2_" class="st1" d="M169.2,357.3c-0.4,0-0.7-0.3-0.7-0.7v-0.9c-1.4-0.2-2.2-0.4-3.3-1.3v0.9
					c0,0.4-0.3,0.7-0.7,0.7s-0.7-0.3-0.7-0.7v-4.1c0-0.4,0.3-0.7,0.7-0.7s0.7,0.3,0.7,0.7v1.5c0.7,0.8,1.2,1,2.4,1.5
					c0.3,0.1,0.6,0.2,0.9,0.3v-6.4c-1.3-0.4-2.2-0.7-2.8-1c-0.7-0.3-1.2-0.8-1.6-1.3c-0.4-0.5-0.6-1.1-0.6-1.8
					c0-1.3,0.4-2.3,1.3-3.1c0.8-0.7,2.1-1.1,3.8-1.2v-0.8c0-0.4,0.3-0.7,0.7-0.7s0.7,0.3,0.7,0.7v0.9c1.2,0.2,2.2,0.6,3.1,1.2
					c0.2,0.2,0.1,0.3,0.3,0.4v-0.9c0-0.4,0.3-0.7,0.7-0.7s0.7,0.3,0.7,0.7v4.1c0,0.4-0.3,0.7-0.7,0.7s-0.7-0.3-0.7-0.7v-1.4
					c-0.7-0.8-1.4-1.5-2.5-1.9c-0.3-0.1-0.6-0.2-0.9-0.3v5.9c0.2,0.1,0.5,0.1,1,0.3c0.8,0.2,1.6,0.5,2.2,0.8
					c0.7,0.3,1.2,0.8,1.6,1.3c0.4,0.5,0.6,1.2,0.6,1.9c0,1.4-0.5,2.5-1.5,3.3c-0.9,0.8-2.3,1.2-4,1.2v0.8
					C169.9,357.1,169.6,357.3,169.2,357.3 M166.6,354.5c0.1,0.1,0.2,0.1,0.3,0.1C166.9,354.6,166.7,354.5,166.6,354.5 M169.9,348.5
					v6c1.3,0,2.4-0.3,3.1-0.9c0.7-0.6,1.1-1.3,1.1-2.2c0-0.5-0.1-0.9-0.4-1.2c-0.3-0.4-0.7-0.7-1.2-0.9c-0.5-0.2-1-0.4-1.5-0.5
					L169.9,348.5z M173.6,353.9c-0.1,0.1-0.2,0.2-0.3,0.3c-0.2,0.1-0.3,0.2-0.5,0.3c0.2-0.1,0.4-0.2,0.6-0.4
					C173.5,354,173.6,354,173.6,353.9 M168.6,341c-1.3,0-2.2,0.3-2.8,0.8s-0.9,1.2-0.9,2c0,0.5,0.1,0.9,0.4,1.2
					c0.3,0.4,0.7,0.7,1.2,0.9c0.5,0.2,1,0.4,1.4,0.5c0.3,0.1,0.5,0.2,0.7,0.2L168.6,341L168.6,341z"/>
				<g id="XMLID_3360_">
					<g id="XMLID_3377_">
						<path id="XMLID_3378_" class="st24" d="M202.6,373.1c-1.1,0-2,0.9-2,2h1c0-0.6,0.4-1,1-1s1,0.4,1,1h1
							C204.6,374,203.7,373.1,202.6,373.1z"/>
					</g>
					<g id="XMLID_3375_">
						<path id="XMLID_3376_" class="st24" d="M197.4,373.1c-1.1,0-2,0.9-2,2h1c0-0.6,0.4-1,1-1s1,0.4,1,1h1
							C199.4,374,198.5,373.1,197.4,373.1z"/>
					</g>
					<g id="XMLID_3373_">
						<path id="XMLID_3374_" class="st24" d="M207.9,373.1c-1.1,0-2,0.9-2,2h1c0-0.6,0.4-1,1-1s1,0.4,1,1h1
							C209.9,374,209,373.1,207.9,373.1z"/>
					</g>
					<g id="XMLID_3371_">
						<path id="XMLID_3372_" class="st24" d="M186.9,373.1c-1.1,0-2,0.9-2,2h1c0-0.6,0.4-1,1-1s1,0.4,1,1h1
							C188.9,374,188,373.1,186.9,373.1z"/>
					</g>
					<g id="XMLID_3369_">
						<path id="XMLID_3370_" class="st24" d="M181.6,373.1c-1.1,0-2,0.9-2,2h1c0-0.6,0.4-1,1-1s1,0.4,1,1h1
							C183.6,374,182.7,373.1,181.6,373.1z"/>
					</g>
					<g id="XMLID_3367_">
						<path id="XMLID_3368_" class="st24" d="M192.1,373.1c-1.1,0-2,0.9-2,2h1c0-0.6,0.4-1,1-1s1,0.4,1,1h1
							C194.1,374,193.2,373.1,192.1,373.1z"/>
					</g>
					<g id="XMLID_3365_">
						<path id="XMLID_3366_" class="st24" d="M218.4,373.1c-1.1,0-2,0.9-2,2h1c0-0.6,0.4-1,1-1s1,0.4,1,1h1
							C220.4,374,219.5,373.1,218.4,373.1z"/>
					</g>
					<g id="XMLID_3363_">
						<path id="XMLID_3364_" class="st24" d="M213.1,373.1c-1.1,0-2,0.9-2,2h1c0-0.6,0.4-1,1-1s1,0.4,1,1h1
							C215.1,374,214.2,373.1,213.1,373.1z"/>
					</g>
					<g id="XMLID_3361_">
						<path id="XMLID_3362_" class="st24" d="M223.6,373.1c-1.1,0-2,0.9-2,2h1c0-0.6,0.4-1,1-1s1,0.4,1,1h1
							C225.6,374,224.7,373.1,223.6,373.1z"/>
					</g>
				</g>
				<g id="XMLID_9_">
					<g id="XMLID_27_">
						<path id="XMLID_28_" class="st24" d="M202.6,321.4c1.1,0,2-0.9,2-2h-1c0,0.6-0.4,1-1,1s-1-0.4-1-1h-1
							C200.6,320.5,201.5,321.4,202.6,321.4z"/>
					</g>
					<g id="XMLID_25_">
						<path id="XMLID_26_" class="st24" d="M207.9,321.4c1.1,0,2-0.9,2-2h-1c0,0.6-0.4,1-1,1s-1-0.4-1-1h-1
							C205.9,320.5,206.8,321.4,207.9,321.4z"/>
					</g>
					<g id="XMLID_23_">
						<path id="XMLID_24_" class="st24" d="M197.4,321.4c1.1,0,2-0.9,2-2h-1c0,0.6-0.4,1-1,1s-1-0.4-1-1h-1
							C195.4,320.5,196.3,321.4,197.4,321.4z"/>
					</g>
					<g id="XMLID_21_">
						<path id="XMLID_22_" class="st24" d="M218.4,321.4c1.1,0,2-0.9,2-2h-1c0,0.6-0.4,1-1,1s-1-0.4-1-1h-1
							C216.4,320.5,217.3,321.4,218.4,321.4z"/>
					</g>
					<g id="XMLID_19_">
						<path id="XMLID_20_" class="st24" d="M223.6,321.4c1.1,0,2-0.9,2-2h-1c0,0.6-0.4,1-1,1s-1-0.4-1-1h-1
							C221.6,320.5,222.5,321.4,223.6,321.4z"/>
					</g>
					<g id="XMLID_17_">
						<path id="XMLID_18_" class="st24" d="M213.1,321.4c1.1,0,2-0.9,2-2h-1c0,0.6-0.4,1-1,1s-1-0.4-1-1h-1
							C211.1,320.5,212,321.4,213.1,321.4z"/>
					</g>
					<g id="XMLID_15_">
						<path id="XMLID_16_" class="st24" d="M186.9,321.4c1.1,0,2-0.9,2-2h-1c0,0.6-0.4,1-1,1s-1-0.4-1-1h-1
							C184.9,320.5,185.8,321.4,186.9,321.4z"/>
					</g>
					<g id="XMLID_13_">
						<path id="XMLID_14_" class="st24" d="M192.1,321.4c1.1,0,2-0.9,2-2h-1c0,0.6-0.4,1-1,1s-1-0.4-1-1h-1
							C190.1,320.5,191,321.4,192.1,321.4z"/>
					</g>
					<g id="XMLID_11_">
						<path id="XMLID_12_" class="st24" d="M181.6,321.4c1.1,0,2-0.9,2-2h-1c0,0.6-0.4,1-1,1s-1-0.4-1-1h-1
							C179.6,320.5,180.5,321.4,181.6,321.4z"/>
					</g>
				</g>
			</g>
			<circle class="st23" cx="202.9" cy="346.8" r="24.5"/>
			<g>
				<circle class="st22" cx="202.9" cy="346.8" r="21.2"/>
			</g>
			<g>
				<text transform="matrix(1 0 0 1 183.808 357.5754)" class="st1 st6 st25">20</text>
			</g>
		</g>
	</g>
	<g>
		<g>
			<g>
				<circle class="st26" cx="288.5" cy="336.5" r="35.7"/>
			</g>
			<circle class="st27" cx="288.5" cy="336.5" r="23.4"/>
			<g>
				<text transform="matrix(1 0 0 1 282.3629 346.8248)" class="st18 st6 st28">5</text>
			</g>
		</g>
		<g>
			<g>
				<ellipse class="st29" cx="288.5" cy="336.5" rx="28.7" ry="28.7"/>
			</g>
		</g>
		<path id="XMLID_6_" class="st18" d="M277.2,344.2c-0.4,0-0.5-0.2-0.5-0.5V343c-1.1-0.2-1.8-0.4-2.7-1.1v0.7c0,0.4-0.2,0.5-0.5,0.5
			s-0.5-0.2-0.5-0.5v-3.3c0-0.4,0.2-0.5,0.5-0.5s0.5,0.2,0.5,0.5v1.2c0.5,0.6,1,0.8,1.9,1.2c0.3,0.1,0.4,0.2,0.8,0.2v-5.1
			c-1.1-0.3-1.8-0.5-2.3-0.8s-1-0.6-1.3-1.1c-0.4-0.4-0.4-0.9-0.4-1.5c0-1.1,0.4-1.9,1.1-2.5c0.6-0.6,1.7-0.9,3-1v-0.7
			c0-0.4,0.2-0.5,0.5-0.5s0.5,0.2,0.5,0.5v0.8c1,0.2,1.8,0.5,2.5,1c0.2,0.1,0.1,0.3,0.2,0.4v-0.7c0-0.4,0.2-0.5,0.5-0.5
			s0.5,0.2,0.5,0.5v3.3c0,0.4-0.2,0.5-0.5,0.5s-0.5-0.2-0.5-0.5v-1.2c-0.6-0.6-1.2-1.2-1.9-1.5c-0.2-0.1-0.4-0.2-0.7-0.2v4.8
			c0.2,0,0.4,0.1,0.8,0.2c0.6,0.2,1.2,0.4,1.8,0.6s1,0.6,1.3,1.1c0.4,0.4,0.4,1,0.4,1.5c0,1.2-0.4,2-1.2,2.7c-0.7,0.6-1.9,1-3.2,1
			v0.7C277.7,344,277.5,344.2,277.2,344.2 M275.1,341.9c0.1,0,0.2,0.1,0.3,0.1C275.2,342,275.2,341.9,275.1,341.9 M277.7,337v4.9
			c1.1,0,1.9-0.3,2.5-0.7c0.6-0.4,0.9-1.1,0.9-1.8c0-0.4-0.1-0.7-0.4-1s-0.5-0.5-1-0.7c-0.4-0.2-0.8-0.4-1.2-0.4L277.7,337z
			 M280.7,341.4c-0.1,0.1-0.2,0.2-0.3,0.2c-0.1,0.1-0.3,0.2-0.4,0.3c0.2-0.1,0.4-0.2,0.4-0.4C280.7,341.5,280.7,341.4,280.7,341.4
			 M276.7,331.1c-1.1,0-1.8,0.3-2.3,0.6c-0.5,0.4-0.8,1-0.8,1.6c0,0.4,0.1,0.7,0.4,1s0.5,0.5,1,0.7c0.4,0.2,0.8,0.4,1.2,0.4
			c0.2,0.1,0.4,0.1,0.6,0.2L276.7,331.1L276.7,331.1z"/>
	</g>
	<g>
		<g>
			<g>
				<g>
					<path class="st17" d="M119.5,363.9c-16.6,0-30.2-13.6-30.2-30.2s13.6-30.2,30.2-30.2s30.2,13.6,30.2,30.2
						S136.2,363.9,119.5,363.9z"/>
				</g>
				<circle class="st27" cx="119.5" cy="333.7" r="19.8"/>
				<g>
					<g>
						<text transform="matrix(1 0 0 1 114.3001 342.4883)" class="st18 st6 st30">2</text>
					</g>
				</g>
			</g>
			<g>
				<g>
					
						<ellipse transform="matrix(0.9871 -0.1602 0.1602 0.9871 -51.9154 23.4539)" class="st31" cx="119.5" cy="333.7" rx="24.3" ry="24.3"/>
				</g>
			</g>
		</g>
		<path id="XMLID_3_" class="st18" d="M109.9,340.2c-0.3,0-0.4-0.1-0.4-0.4v-0.6c-0.9-0.1-1.5-0.3-2.2-0.9v0.6
			c0,0.3-0.1,0.4-0.4,0.4c-0.3,0-0.4-0.1-0.4-0.4v-2.8c0-0.3,0.1-0.4,0.4-0.4c0.3,0,0.4,0.1,0.4,0.4v1c0.4,0.5,0.8,0.7,1.6,1
			c0.2,0.1,0.4,0.1,0.7,0.1v-4.3c-0.9-0.2-1.5-0.4-1.9-0.7s-0.8-0.5-1.1-0.9s-0.4-0.7-0.4-1.3c0-0.9,0.3-1.6,0.9-2.1
			c0.5-0.5,1.4-0.7,2.5-0.8v-0.6c0-0.3,0.1-0.4,0.4-0.4c0.3,0,0.4,0.1,0.4,0.4v0.7c0.8,0.1,1.5,0.4,2.1,0.8c0.1,0.1,0.1,0.2,0.1,0.3
			v-0.6c0-0.3,0.1-0.4,0.4-0.4s0.4,0.1,0.4,0.4v2.8c0,0.3-0.1,0.4-0.4,0.4s-0.4-0.1-0.4-0.4v-1c-0.5-0.5-1-1-1.6-1.3
			c-0.1-0.1-0.4-0.1-0.6-0.1v4c0.1,0,0.4,0.1,0.7,0.1c0.5,0.1,1,0.3,1.5,0.5c0.4,0.2,0.8,0.5,1.1,0.9s0.4,0.8,0.4,1.3
			c0,1-0.3,1.7-1,2.2c-0.6,0.5-1.6,0.8-2.7,0.8v0.6C110.4,340.1,110.1,340.2,109.9,340.2 M108.1,338.3c0.1,0,0.1,0.1,0.2,0.1
			C108.3,338.3,108.2,338.3,108.1,338.3 M110.4,334.1v4.1c0.9,0,1.6-0.2,2.1-0.6s0.7-0.9,0.7-1.5c0-0.3-0.1-0.6-0.3-0.8
			c-0.2-0.2-0.4-0.4-0.8-0.6c-0.3-0.1-0.7-0.3-1-0.4L110.4,334.1z M112.9,337.9c-0.1,0.1-0.1,0.1-0.2,0.1c-0.1,0.1-0.2,0.1-0.4,0.2
			c0.1-0.1,0.3-0.1,0.4-0.3C112.8,338,112.8,337.9,112.9,337.9 M109.5,329.1c-0.9,0-1.5,0.2-1.9,0.5c-0.4,0.4-0.7,0.8-0.7,1.3
			c0,0.3,0.1,0.6,0.3,0.8c0.2,0.2,0.4,0.4,0.8,0.6c0.3,0.1,0.7,0.3,1,0.4c0.1,0.1,0.4,0.1,0.5,0.1L109.5,329.1L109.5,329.1z"/>
	</g>
	<g>
		<g>
			<g>
				
					<ellipse transform="matrix(3.327794e-02 -0.9994 0.9994 3.327794e-02 -277.9906 395.5993)" class="st26" cx="65.5" cy="341.5" rx="35.7" ry="35.7"/>
			</g>
			<circle class="st27" cx="65.5" cy="341.5" r="23.4"/>
			<g>
				<text transform="matrix(1 0 0 1 59.3629 351.8248)" class="st18 st6 st28">5</text>
			</g>
		</g>
		<g>
			<g>
				
					<ellipse transform="matrix(3.327794e-02 -0.9994 0.9994 3.327794e-02 -277.9906 395.5993)" class="st29" cx="65.5" cy="341.5" rx="28.7" ry="28.7"/>
			</g>
		</g>
		<path id="XMLID_1_" class="st18" d="M54.2,349.2c-0.4,0-0.5-0.2-0.5-0.5V348c-1.1-0.2-1.8-0.4-2.7-1.1v0.7c0,0.4-0.2,0.5-0.5,0.5
			s-0.5-0.2-0.5-0.5v-3.3c0-0.4,0.2-0.5,0.5-0.5s0.5,0.2,0.5,0.5v1.2c0.5,0.6,1,0.8,1.9,1.2c0.3,0.1,0.4,0.2,0.8,0.2v-5.1
			c-1.1-0.3-1.8-0.5-2.3-0.8s-1-0.6-1.3-1.1c-0.4-0.4-0.4-0.9-0.4-1.5c0-1.1,0.4-1.9,1.1-2.5c0.6-0.6,1.7-0.9,3-1v-0.7
			c0-0.4,0.2-0.5,0.5-0.5s0.5,0.2,0.5,0.5v0.8c1,0.2,1.8,0.5,2.5,1c0.2,0.1,0.1,0.3,0.2,0.4v-0.7c0-0.4,0.2-0.5,0.5-0.5
			s0.5,0.2,0.5,0.5v3.3c0,0.4-0.2,0.5-0.5,0.5s-0.5-0.2-0.5-0.5v-1.2c-0.6-0.6-1.2-1.2-1.9-1.5c-0.2-0.1-0.4-0.2-0.7-0.2v4.8
			c0.2,0,0.4,0.1,0.8,0.2c0.6,0.2,1.2,0.4,1.8,0.6s1,0.6,1.3,1.1c0.4,0.4,0.4,1,0.4,1.5c0,1.2-0.4,2-1.2,2.7c-0.7,0.6-1.9,1-3.2,1
			v0.7C54.7,349,54.5,349.2,54.2,349.2 M52.1,346.9c0.1,0,0.2,0.1,0.3,0.1C52.2,347,52.2,346.9,52.1,346.9 M54.7,342v4.9
			c1.1,0,1.9-0.3,2.5-0.7c0.6-0.4,0.9-1.1,0.9-1.8c0-0.4-0.1-0.7-0.4-1s-0.5-0.5-1-0.7c-0.4-0.2-0.8-0.4-1.2-0.4L54.7,342z
			 M57.7,346.4c-0.1,0.1-0.2,0.2-0.3,0.2c-0.1,0.1-0.3,0.2-0.4,0.3c0.2-0.1,0.4-0.2,0.4-0.4C57.7,346.5,57.7,346.4,57.7,346.4
			 M53.7,336.1c-1.1,0-1.8,0.3-2.3,0.6c-0.5,0.4-0.8,1-0.8,1.6c0,0.4,0.1,0.7,0.4,1s0.5,0.5,1,0.7c0.4,0.2,0.8,0.4,1.2,0.4
			c0.2,0.1,0.4,0.1,0.6,0.2L53.7,336.1L53.7,336.1z"/>
	</g>
</g>
</svg>
