<?xml version="1.0" encoding="utf-8"?>
<!-- Generator: Adobe Illustrator 22.0.1, SVG Export Plug-In . SVG Version: 6.00 Build 0)  -->
<svg version="1.1" id="Layer_1" xmlns="http://www.w3.org/2000/svg" xmlns:xlink="http://www.w3.org/1999/xlink" x="0px" y="0px"
	 viewBox="0 0 80.6 80.6" style="enable-background:new 0 0 80.6 80.6;" xml:space="preserve">
<style type="text/css">
	.st0{fill:#60025E;}
	.st1{fill:none;stroke:#FFFFFF;stroke-width:2;stroke-linecap:round;stroke-linejoin:round;stroke-dasharray:1.0171,7.1194;}
	.st2{fill:#FFFFFF;}
</style>
<g>
	<g>
		<g>
			<circle class="st0" cx="40.3" cy="40.3" r="40.3"/>
		</g>
	</g>
	<g>
		<g>
			<ellipse class="st1" cx="40.3" cy="40.3" rx="32.4" ry="32.4"/>
		</g>
	</g>
	<path id="XMLID_6_" class="st2" d="M39.6,63.3c-1.1,0-1.6-0.5-1.6-1.6v-2.1c-3.2-0.5-5.3-1.1-7.9-3.2v2.1c0,1.1-0.5,1.6-1.6,1.6
		c-1.1,0-1.6-0.5-1.6-1.6v-9.7c0-1.1,0.5-1.6,1.6-1.6c1.1,0,1.6,0.5,1.6,1.6v3.4c1.6,1.8,2.9,2.4,5.8,3.4c0.8,0.3,1.3,0.5,2.4,0.5
		v-15c-3.2-0.8-5.3-1.6-6.8-2.4c-1.6-0.8-2.9-1.8-4-3.2c-1.1-1.3-1.3-2.6-1.3-4.5c0-3.2,1.1-5.5,3.2-7.4c1.8-1.8,5-2.6,9-2.9v-2.1
		c0-1.1,0.5-1.6,1.6-1.6c1.1,0,1.6,0.5,1.6,1.6v2.4c2.9,0.5,5.3,1.6,7.4,2.9c0.5,0.3,0.3,0.8,0.5,1.1V23c0-1.1,0.5-1.6,1.6-1.6
		s1.6,0.5,1.6,1.6v9.7c0,1.1-0.5,1.6-1.6,1.6s-1.6-0.5-1.6-1.6v-3.4c-1.8-1.8-3.4-3.4-5.8-4.5c-0.5-0.3-1.3-0.5-2.1-0.5v14.2
		c0.5,0,1.3,0.3,2.4,0.5c1.8,0.5,3.7,1.1,5.3,1.8c1.6,0.8,2.9,1.8,4,3.2s1.3,2.9,1.3,4.5c0,3.4-1.1,6.1-3.4,7.9
		c-2.1,1.8-5.5,2.9-9.5,2.9v2.1C41.2,62.8,40.4,63.3,39.6,63.3 M33.3,56.5c0.3,0,0.5,0.3,0.8,0.3C33.8,56.8,33.6,56.5,33.3,56.5
		 M41.2,42v14.5c3.2,0,5.8-0.8,7.4-2.1c1.8-1.3,2.6-3.2,2.6-5.3c0-1.1-0.3-2.1-1.1-2.9c-0.8-0.8-1.6-1.6-2.9-2.1
		c-1.1-0.5-2.4-1.1-3.7-1.3L41.2,42z M50.2,55.2c-0.3,0.3-0.5,0.5-0.8,0.5c-0.3,0.3-0.8,0.5-1.3,0.8c0.5-0.3,1.1-0.5,1.3-1.1
		C49.9,55.4,50.2,55.2,50.2,55.2 M38.1,24.4c-3.2,0-5.3,0.8-6.8,1.8c-1.6,1.3-2.4,2.9-2.4,4.7c0,1.1,0.3,2.1,1.1,2.9
		c0.8,0.8,1.6,1.6,2.9,2.1c1.1,0.5,2.4,1.1,3.4,1.3c0.5,0.3,1.3,0.3,1.8,0.5V24.4L38.1,24.4z"/>
</g>
</svg>
