<?xml version="1.0" encoding="utf-8"?>
<!-- Generator: Adobe Illustrator 22.0.1, SVG Export Plug-In . SVG Version: 6.00 Build 0)  -->
<svg version="1.1" id="Layer_1" xmlns="http://www.w3.org/2000/svg" xmlns:xlink="http://www.w3.org/1999/xlink" x="0px" y="0px"
	 viewBox="0 0 80.6 80.6" style="enable-background:new 0 0 80.6 80.6;" xml:space="preserve">
<style type="text/css">
	.st0{fill:#FCC731;}
	.st1{fill:#AEB9C1;}
	.st2{fill:#3E444A;}
	.st3{font-family:'Nunito-Bold';}
	.st4{font-size:37.6447px;}
	.st5{fill:none;stroke:#F8DC38;stroke-width:2;stroke-linecap:round;stroke-linejoin:round;stroke-dasharray:1.0171,7.1194;}
</style>
<g>
	<g>
		<g>
			<circle class="st0" cx="40.3" cy="40.3" r="40.3"/>
		</g>
		<circle class="st1" cx="40.3" cy="40.3" r="26.4"/>
		<g>
			<text transform="matrix(1 0 0 1 33.3607 52.0258)" class="st2 st3 st4">5</text>
		</g>
	</g>
	<g>
		<g>
			<ellipse class="st5" cx="40.3" cy="40.3" rx="32.4" ry="32.4"/>
		</g>
	</g>
	<path id="XMLID_6_" class="st2" d="M27.5,49c-0.4,0-0.6-0.2-0.6-0.6v-0.8c-1.2-0.2-2-0.4-3-1.2v0.8c0,0.4-0.2,0.6-0.6,0.6
		s-0.6-0.2-0.6-0.6v-3.7c0-0.4,0.2-0.6,0.6-0.6s0.6,0.2,0.6,0.6v1.3c0.6,0.7,1.1,0.9,2.2,1.3c0.3,0.1,0.5,0.2,0.9,0.2v-5.7
		c-1.2-0.3-2-0.6-2.6-0.9c-0.6-0.3-1.1-0.7-1.5-1.2s-0.5-1-0.5-1.7c0-1.2,0.4-2.1,1.2-2.8c0.7-0.7,1.9-1,3.4-1.1v-0.8
		c0-0.4,0.2-0.6,0.6-0.6s0.6,0.2,0.6,0.6V33c1.1,0.2,2,0.6,2.8,1.1c0.2,0.1,0.1,0.3,0.2,0.4v-0.8c0-0.4,0.2-0.6,0.6-0.6
		s0.6,0.2,0.6,0.6v3.7c0,0.4-0.2,0.6-0.6,0.6s-0.6-0.2-0.6-0.6v-1.3c-0.7-0.7-1.3-1.3-2.2-1.7c-0.2-0.1-0.5-0.2-0.8-0.2v5.4
		c0.2,0,0.5,0.1,0.9,0.2c0.7,0.2,1.4,0.4,2,0.7s1.1,0.7,1.5,1.2s0.5,1.1,0.5,1.7c0,1.3-0.4,2.3-1.3,3c-0.8,0.7-2.1,1.1-3.6,1.1v0.8
		C28.1,48.8,27.8,49,27.5,49 M25.1,46.4c0.1,0,0.2,0.1,0.3,0.1C25.3,46.5,25.2,46.4,25.1,46.4 M28.1,40.9v5.5c1.2,0,2.2-0.3,2.8-0.8
		c0.7-0.5,1-1.2,1-2c0-0.4-0.1-0.8-0.4-1.1s-0.6-0.6-1.1-0.8c-0.4-0.2-0.9-0.4-1.4-0.5L28.1,40.9z M31.5,45.9
		c-0.1,0.1-0.2,0.2-0.3,0.2c-0.1,0.1-0.3,0.2-0.5,0.3c0.2-0.1,0.4-0.2,0.5-0.4C31.4,46,31.5,45.9,31.5,45.9 M26.9,34.2
		c-1.2,0-2,0.3-2.6,0.7c-0.6,0.5-0.9,1.1-0.9,1.8c0,0.4,0.1,0.8,0.4,1.1s0.6,0.6,1.1,0.8c0.4,0.2,0.9,0.4,1.3,0.5
		c0.2,0.1,0.5,0.1,0.7,0.2V34.2L26.9,34.2z"/>
</g>
</svg>
