<?xml version="1.0" encoding="utf-8"?>
<!-- Generator: Adobe Illustrator 22.1.0, SVG Export Plug-In . SVG Version: 6.00 Build 0)  -->
<svg version="1.1" id="Layer_1" xmlns="http://www.w3.org/2000/svg" xmlns:xlink="http://www.w3.org/1999/xlink" x="0px" y="0px"
	 viewBox="0 0 336.7 293.7" style="enable-background:new 0 0 336.7 293.7;" xml:space="preserve">
<style type="text/css">
	.st0{fill:#647CA0;}
	.st1{fill:none;stroke:#647CA0;stroke-width:5.2793;stroke-linecap:round;stroke-linejoin:round;stroke-miterlimit:10;}
	.st2{fill:none;stroke:#394961;stroke-width:7.0392;stroke-linecap:square;stroke-miterlimit:10;stroke-dasharray:0.8799,13.1984;}
	.st3{fill:#FADC3C;}
	.st4{opacity:0.2;}
	.st5{fill:#FFFFFF;}
	.st6{fill:#A5D73C;}
	.st7{fill:#00CDC8;}
	.st8{fill:#F24044;}
	.st9{fill:#60025E;}
</style>
<g>
	<g>
		<g>
			<g>
				<rect x="131.6" y="56.3" class="st0" width="4.7" height="32.6"/>
				<path class="st1" d="M111.9,116.3h28.9c4.5,0,8.2-3.6,8.2-8.2V86.3c0-4.5-3.6-8.2-8.2-8.2h-4.5"/>
				<path class="st2" d="M111.9,116.3h28.9c4.5,0,8.2-3.6,8.2-8.2V86.3c0-4.5-3.6-8.2-8.2-8.2h-4.5"/>
			</g>
			<rect x="107.3" y="107.4" class="st0" width="4.7" height="17.8"/>
		</g>
		<g>
			<g>
				<rect x="131.6" y="18.6" class="st0" width="4.7" height="17.8"/>
				<path class="st1" d="M111.9,65.7h28.9c4.5,0,8.2-3.6,8.2-8.2V35.7c0-4.5-3.6-8.2-8.2-8.2h-4.5"/>
				<path class="st2" d="M111.9,65.7h28.9c4.5,0,8.2-3.6,8.2-8.2V35.7c0-4.5-3.6-8.2-8.2-8.2h-4.5"/>
			</g>
			<rect x="107.3" y="56.7" class="st0" width="4.7" height="17.8"/>
		</g>
	</g>
	<g>
		<g>
			<rect x="32.5" y="56.3" class="st0" width="4.7" height="32.6"/>
			<path class="st1" d="M56.8,116.3H27.9c-4.5,0-8.2-3.6-8.2-8.2V86.3c0-4.5,3.6-8.2,8.2-8.2h4.5"/>
			<path class="st2" d="M56.8,116.3H27.9c-4.5,0-8.2-3.6-8.2-8.2V86.3c0-4.5,3.6-8.2,8.2-8.2h4.5"/>
		</g>
		<rect x="56.8" y="107.4" class="st0" width="4.7" height="17.8"/>
	</g>
	<g>
		<g>
			<rect x="32.5" y="18.6" class="st0" width="4.7" height="17.8"/>
			<path class="st1" d="M56.8,65.7H27.9c-4.5,0-8.2-3.6-8.2-8.2V35.7c0-4.5,3.6-8.2,8.2-8.2h4.5"/>
			<path class="st2" d="M56.8,65.7H27.9c-4.5,0-8.2-3.6-8.2-8.2V35.7c0-4.5,3.6-8.2,8.2-8.2h4.5"/>
		</g>
		<rect x="56.8" y="56.7" class="st0" width="4.7" height="17.8"/>
	</g>
	<g>
		<path class="st3" d="M103.3,138.7H66c-2.6,0-4.7-2-4.7-4.7v-31.6c0-2.6,2-4.7,4.7-4.7h37.3c2.6,0,4.7,2,4.7,4.7V134
			C107.9,136.7,105.9,138.7,103.3,138.7z"/>
		<g class="st4">
			<g>
				<circle cx="67.5" cy="100.8" r="1.6"/>
				<circle cx="79" cy="100.8" r="1.6"/>
				<circle cx="90.4" cy="100.8" r="1.6"/>
				<circle cx="101.9" cy="100.8" r="1.6"/>
			</g>
			<g>
				<circle cx="67.5" cy="135.8" r="1.6"/>
				<circle cx="79" cy="135.8" r="1.6"/>
				<circle cx="90.4" cy="135.8" r="1.6"/>
				<circle cx="101.9" cy="135.8" r="1.6"/>
			</g>
			<rect x="62.7" y="103.2" width="44.7" height="0.5"/>
			<rect x="62.7" y="132.8" width="44.7" height="0.5"/>
			<path d="M102.2,131.5H67.7c-1.9,0-3.4-1.6-3.4-3.4v-19.5c0-1.9,1.6-3.4,3.4-3.4h34.5c1.9,0,3.4,1.6,3.4,3.4v19.5
				C105.6,130,104,131.5,102.2,131.5z"/>
		</g>
	</g>
	<g>
		<path class="st3" d="M79.2,94H40.7c-2.2,0-4.1-1.9-4.1-4.1V55.3c0-2.2,1.9-4.1,4.1-4.1h38.5c2.2,0,4.1,1.9,4.1,4.1v34.6
			C83.3,92.2,81.4,94,79.2,94z"/>
		<g class="st4">
			<g>
				<circle cx="42.7" cy="54.3" r="1.6"/>
				<circle cx="54.2" cy="54.3" r="1.6"/>
				<circle cx="65.7" cy="54.3" r="1.6"/>
				<circle cx="77.1" cy="54.3" r="1.6"/>
			</g>
			<g>
				<circle cx="42.7" cy="91.1" r="1.6"/>
				<circle cx="54.2" cy="91.1" r="1.6"/>
				<circle cx="65.7" cy="91.1" r="1.6"/>
				<circle cx="77.1" cy="91.1" r="1.6"/>
			</g>
			<rect x="37.9" y="56.8" width="44.7" height="0.5"/>
			<rect x="37.9" y="88.1" width="44.7" height="0.5"/>
			<path d="M77.4,86.9H42.9c-1.9,0-3.4-1.6-3.4-3.4V62.2c0-1.9,1.6-3.4,3.4-3.4h34.5c1.9,0,3.4,1.6,3.4,3.4v21.3
				C80.8,85.3,79.3,86.9,77.4,86.9z"/>
		</g>
	</g>
	<g>
		<path class="st3" d="M128.7,94H90.2c-2.2,0-4.1-1.9-4.1-4.1V55.3c0-2.2,1.9-4.1,4.1-4.1h38.5c2.2,0,4.1,1.9,4.1,4.1v34.6
			C132.7,92.2,130.9,94,128.7,94z"/>
		<g class="st4">
			<g>
				<circle cx="92.3" cy="54.3" r="1.6"/>
				<circle cx="103.7" cy="54.3" r="1.6"/>
				<circle cx="115.1" cy="54.3" r="1.6"/>
				<circle cx="126.6" cy="54.3" r="1.6"/>
			</g>
			<g>
				<circle cx="92.3" cy="91.1" r="1.6"/>
				<circle cx="103.7" cy="91.1" r="1.6"/>
				<circle cx="115.1" cy="91.1" r="1.6"/>
				<circle cx="126.6" cy="91.1" r="1.6"/>
			</g>
			<rect x="87.4" y="56.8" width="44.7" height="0.5"/>
			<rect x="87.4" y="88.1" width="44.7" height="0.5"/>
			<path d="M126.9,86.9H92.5c-1.9,0-3.4-1.6-3.4-3.4V62.2c0-1.9,1.6-3.4,3.4-3.4H127c1.9,0,3.4,1.6,3.4,3.4v21.3
				C130.4,85.3,128.8,86.9,126.9,86.9z"/>
		</g>
	</g>
	<g>
		<path class="st5" d="M59.7,81c0,0.8-0.5,1.2-1.4,1.2h-7.9c-0.9,0-1.4-0.4-1.4-1.2c0-0.8,0.5-1.2,1.4-1.2h2.4V69.2l-2.2,1.4
			c-0.2,0.1-0.4,0.2-0.6,0.2c-0.3,0-0.6-0.1-0.8-0.4s-0.3-0.6-0.3-0.9c0-0.5,0.2-0.8,0.6-1l3.6-2.2c0.5-0.3,0.9-0.4,1.3-0.4
			c0.4,0,0.8,0.1,1,0.4c0.3,0.3,0.4,0.6,0.4,1.1V80h2.4C59.3,79.8,59.7,80.2,59.7,81z"/>
		<path class="st5" d="M62.2,80.3c-1-1.4-1.5-3.5-1.5-6.3c0-2.7,0.5-4.8,1.5-6.3c1-1.4,2.5-2.2,4.4-2.2s3.4,0.7,4.4,2.2
			c1,1.4,1.5,3.5,1.5,6.3S72,78.8,71,80.3c-1,1.4-2.5,2.2-4.4,2.2S63.2,81.7,62.2,80.3z M68.9,78.6c0.5-1,0.7-2.5,0.7-4.6
			s-0.2-3.7-0.7-4.6c-0.5-1-1.2-1.4-2.3-1.4c-1.1,0-1.8,0.5-2.3,1.4c-0.5,1-0.7,2.5-0.7,4.6s0.2,3.7,0.7,4.6c0.5,1,1.2,1.5,2.3,1.5
			C67.7,80.1,68.5,79.6,68.9,78.6z"/>
	</g>
	<g>
		<path class="st5" d="M83.9,119.9c0.2,0.2,0.3,0.5,0.3,0.9c0,0.8-0.5,1.2-1.4,1.2h-1.2v1.8c0,0.5-0.1,0.9-0.4,1.1
			c-0.3,0.3-0.6,0.4-1.1,0.4s-0.8-0.1-1.1-0.4c-0.3-0.3-0.4-0.6-0.4-1.1V122h-6.1c-0.4,0-0.7-0.1-1-0.4c-0.2-0.2-0.3-0.5-0.3-0.9
			s0.1-0.7,0.4-1.1l7.2-10.3c0.2-0.2,0.3-0.4,0.6-0.5c0.2-0.1,0.5-0.2,0.7-0.2c0.4,0,0.8,0.1,1,0.4s0.4,0.6,0.4,1.1v9.5h1.2
			C83.3,119.6,83.6,119.7,83.9,119.9z M74.4,119.6h4.3v-6.3L74.4,119.6z"/>
		<path class="st5" d="M86.1,123.2c-1-1.4-1.5-3.5-1.5-6.3c0-2.7,0.5-4.8,1.5-6.3c1-1.4,2.5-2.2,4.4-2.2s3.4,0.7,4.4,2.2
			c1,1.4,1.5,3.5,1.5,6.3s-0.5,4.8-1.5,6.3c-1,1.4-2.5,2.2-4.4,2.2S87.1,124.7,86.1,123.2z M92.8,121.6c0.5-1,0.7-2.5,0.7-4.6
			s-0.2-3.7-0.7-4.6c-0.5-1-1.2-1.4-2.3-1.4c-1.1,0-1.8,0.5-2.3,1.4c-0.5,1-0.7,2.5-0.7,4.6s0.2,3.7,0.7,4.6c0.5,1,1.2,1.5,2.3,1.5
			C91.6,123,92.4,122.5,92.8,121.6z"/>
	</g>
	<g>
		<path class="st5" d="M106.3,81c0,0.8-0.5,1.2-1.4,1.2H97c-0.9,0-1.4-0.4-1.4-1.2c0-0.8,0.5-1.2,1.4-1.2h2.4V69.2l-2.2,1.4
			c-0.2,0.1-0.4,0.2-0.6,0.2c-0.3,0-0.6-0.1-0.8-0.4s-0.3-0.6-0.3-0.9c0-0.5,0.2-0.8,0.6-1l3.6-2.2c0.5-0.3,0.9-0.4,1.3-0.4
			s0.8,0.1,1,0.4c0.3,0.3,0.4,0.6,0.4,1.1V80h2.4C105.9,79.8,106.3,80.2,106.3,81z"/>
		<path class="st5" d="M116.8,72.4c0.8,0.4,1.4,1.1,1.8,1.9s0.7,1.7,0.7,2.7c0,1.1-0.2,2-0.7,2.8s-1.2,1.5-2.1,1.9s-1.9,0.7-3.1,0.7
			c-1,0-1.9-0.2-2.8-0.5s-1.7-0.7-2.4-1.3c-0.4-0.3-0.5-0.7-0.5-1.1c0-0.3,0.1-0.6,0.3-0.9c0.2-0.2,0.4-0.4,0.7-0.4
			c0.2,0,0.3,0,0.4,0.1s0.3,0.1,0.5,0.3c0.6,0.4,1.2,0.8,1.8,1c0.6,0.2,1.2,0.3,1.9,0.3c1,0,1.8-0.3,2.4-0.8
			c0.5-0.5,0.8-1.2,0.8-2.2c0-0.9-0.3-1.6-0.8-2.2c-0.6-0.5-1.3-0.8-2.3-0.8c-0.6,0-1.1,0.1-1.6,0.3c-0.5,0.2-1,0.5-1.5,0.9
			c-0.3,0.2-0.6,0.3-0.9,0.3s-0.6-0.1-0.8-0.3c-0.2-0.2-0.3-0.4-0.3-0.7v-7.3c0-0.4,0.1-0.8,0.4-1c0.2-0.2,0.6-0.4,1-0.4h7.8
			c0.9,0,1.4,0.4,1.4,1.2c0,0.8-0.5,1.2-1.4,1.2h-6.2v4.4c0.8-0.6,1.8-0.8,2.9-0.8C115.1,71.7,116,72,116.8,72.4z"/>
	</g>
	<g>
		<path class="st3" d="M79.2,48.5H40.7c-2.2,0-4.1-1.9-4.1-4.1V10.8c0-2.2,1.9-4.1,4.1-4.1h38.5c2.2,0,4.1,1.9,4.1,4.1v33.6
			C83.3,46.8,81.4,48.5,79.2,48.5z"/>
		<g class="st4">
			<g>
				<circle cx="42.7" cy="9.8" r="1.6"/>
				<circle cx="54.2" cy="9.8" r="1.6"/>
				<circle cx="65.7" cy="9.8" r="1.6"/>
				<circle cx="77.1" cy="9.8" r="1.6"/>
			</g>
			<g>
				<circle cx="42.7" cy="45.6" r="1.6"/>
				<circle cx="54.2" cy="45.6" r="1.6"/>
				<circle cx="65.7" cy="45.6" r="1.6"/>
				<circle cx="77.1" cy="45.6" r="1.6"/>
			</g>
			<rect x="37.9" y="12.3" width="44.7" height="0.5"/>
			<rect x="37.9" y="42.7" width="44.7" height="0.5"/>
			<path d="M77.4,41.5H42.9c-1.9,0-3.4-1.6-3.4-3.4V17.7c0-1.9,1.6-3.4,3.4-3.4h34.5c1.9,0,3.4,1.6,3.4,3.4V38
				C80.8,39.9,79.3,41.5,77.4,41.5z"/>
		</g>
	</g>
	<g>
		<path class="st0" d="M128.7,48.5H90.2c-2.2,0-4.1-1.9-4.1-4.1V10.8c0-2.2,1.9-4.1,4.1-4.1h38.5c2.2,0,4.1,1.9,4.1,4.1v33.6
			C132.7,46.8,130.9,48.5,128.7,48.5z"/>
		<g class="st4">
			<g>
				<circle cx="92.3" cy="9.8" r="1.6"/>
				<circle cx="103.7" cy="9.8" r="1.6"/>
				<circle cx="115.1" cy="9.8" r="1.6"/>
				<circle cx="126.6" cy="9.8" r="1.6"/>
			</g>
			<g>
				<circle cx="92.3" cy="45.6" r="1.6"/>
				<circle cx="103.7" cy="45.6" r="1.6"/>
				<circle cx="115.1" cy="45.6" r="1.6"/>
				<circle cx="126.6" cy="45.6" r="1.6"/>
			</g>
			<rect x="87.4" y="12.3" width="44.7" height="0.5"/>
			<rect x="87.4" y="42.7" width="44.7" height="0.5"/>
			<path d="M126.9,41.5H92.5c-1.9,0-3.4-1.6-3.4-3.4V17.7c0-1.9,1.6-3.4,3.4-3.4H127c1.9,0,3.4,1.6,3.4,3.4V38
				C130.4,39.9,128.8,41.5,126.9,41.5z"/>
		</g>
	</g>
	<g>
		<path class="st5" d="M63.2,27.9c0.8,0.4,1.4,1.1,1.8,1.9s0.7,1.7,0.7,2.7c0,1.1-0.2,2-0.7,2.8s-1.2,1.5-2.1,1.9s-1.9,0.7-3.1,0.7
			c-1,0-1.9-0.2-2.8-0.5c-0.9-0.3-1.7-0.7-2.4-1.3c-0.4-0.3-0.5-0.7-0.5-1.1c0-0.3,0.1-0.6,0.3-0.9c0.2-0.2,0.4-0.4,0.7-0.4
			c0.2,0,0.3,0,0.4,0.1s0.3,0.1,0.5,0.3c0.6,0.4,1.2,0.8,1.8,1s1.2,0.3,1.9,0.3c1,0,1.8-0.3,2.4-0.8c0.5-0.5,0.8-1.2,0.8-2.2
			c0-0.9-0.3-1.6-0.8-2.2c-0.6-0.5-1.3-0.8-2.3-0.8c-0.6,0-1.1,0.1-1.6,0.3c-0.5,0.2-1,0.5-1.5,0.9c-0.3,0.2-0.6,0.3-0.9,0.3
			s-0.6-0.1-0.8-0.3c-0.2-0.2-0.3-0.4-0.3-0.7v-7.3c0-0.4,0.1-0.8,0.4-1c0.2-0.2,0.6-0.4,1-0.4h7.8c0.9,0,1.4,0.4,1.4,1.2
			c0,0.8-0.5,1.2-1.4,1.2h-6.2V28c0.8-0.6,1.8-0.8,2.9-0.8C61.5,27.2,62.4,27.5,63.2,27.9z"/>
	</g>
	<g>
		<path class="st5" d="M107.7,32.7c-0.2-0.2-0.2-0.4-0.2-0.8c0-0.9,0.2-1.6,0.5-2.2s0.8-1.2,1.4-1.9c0.5-0.6,0.8-1,1-1.4
			s0.3-0.8,0.3-1.3s-0.2-0.9-0.6-1.2c-0.4-0.3-0.9-0.5-1.5-0.5s-1.1,0.1-1.6,0.4s-1.1,0.6-1.8,1c-0.4,0.2-0.7,0.3-1,0.3
			s-0.5-0.1-0.7-0.4c-0.2-0.2-0.3-0.5-0.3-0.8c0-0.5,0.2-0.8,0.6-1.1c0.7-0.6,1.4-1,2.3-1.3s1.8-0.5,2.7-0.5c0.9,0,1.8,0.2,2.5,0.5
			s1.3,0.8,1.7,1.4c0.4,0.6,0.6,1.2,0.6,2s-0.2,1.5-0.6,2.1s-1,1.3-1.7,2c-0.6,0.7-1.1,1.2-1.4,1.6s-0.5,0.9-0.6,1.5
			c0,0.2-0.2,0.4-0.3,0.6s-0.4,0.2-0.6,0.2C108.1,33,107.9,32.9,107.7,32.7z M107.2,37.4c-0.3-0.3-0.5-0.7-0.5-1.2s0.2-0.9,0.5-1.2
			s0.7-0.5,1.2-0.5s0.9,0.2,1.2,0.5c0.3,0.3,0.5,0.7,0.5,1.2s-0.2,0.9-0.5,1.2s-0.7,0.5-1.2,0.5C107.9,37.9,107.5,37.7,107.2,37.4z"
			/>
	</g>
</g>
<g>
	<g>
		<g>
			<g>
				<rect x="296.2" y="56.3" class="st0" width="4.7" height="32.6"/>
				<path class="st1" d="M276.6,116.3h28.9c4.5,0,8.2-3.6,8.2-8.2V86.3c0-4.5-3.6-8.2-8.2-8.2H301"/>
				<path class="st2" d="M276.6,116.3h28.9c4.5,0,8.2-3.6,8.2-8.2V86.3c0-4.5-3.6-8.2-8.2-8.2H301"/>
			</g>
			<rect x="271.9" y="107.4" class="st0" width="4.7" height="17.8"/>
		</g>
		<g>
			<g>
				<rect x="296.2" y="18.6" class="st0" width="4.7" height="17.8"/>
				<path class="st1" d="M276.6,65.7h28.9c4.5,0,8.2-3.6,8.2-8.2V35.7c0-4.5-3.6-8.2-8.2-8.2H301"/>
				<path class="st2" d="M276.6,65.7h28.9c4.5,0,8.2-3.6,8.2-8.2V35.7c0-4.5-3.6-8.2-8.2-8.2H301"/>
			</g>
			<rect x="271.9" y="56.7" class="st0" width="4.7" height="17.8"/>
		</g>
	</g>
	<g>
		<g>
			<rect x="197.2" y="56.3" class="st0" width="4.7" height="32.6"/>
			<path class="st1" d="M221.5,116.3h-28.9c-4.5,0-8.2-3.6-8.2-8.2V86.3c0-4.5,3.6-8.2,8.2-8.2h4.5"/>
			<path class="st2" d="M221.5,116.3h-28.9c-4.5,0-8.2-3.6-8.2-8.2V86.3c0-4.5,3.6-8.2,8.2-8.2h4.5"/>
		</g>
		<rect x="221.5" y="107.4" class="st0" width="4.7" height="17.8"/>
	</g>
	<g>
		<g>
			<rect x="197.2" y="18.6" class="st0" width="4.7" height="17.8"/>
			<path class="st1" d="M221.5,65.7h-28.9c-4.5,0-8.2-3.6-8.2-8.2V35.7c0-4.5,3.6-8.2,8.2-8.2h4.5"/>
			<path class="st2" d="M221.5,65.7h-28.9c-4.5,0-8.2-3.6-8.2-8.2V35.7c0-4.5,3.6-8.2,8.2-8.2h4.5"/>
		</g>
		<rect x="221.5" y="56.7" class="st0" width="4.7" height="17.8"/>
	</g>
	<g>
		<path class="st6" d="M267.9,138.7h-37.3c-2.6,0-4.7-2-4.7-4.7v-31.6c0-2.6,2-4.7,4.7-4.7h37.3c2.6,0,4.7,2,4.7,4.7V134
			C272.6,136.7,270.5,138.7,267.9,138.7z"/>
		<g class="st4">
			<g>
				<circle cx="232.2" cy="100.8" r="1.6"/>
				<circle cx="243.6" cy="100.8" r="1.6"/>
				<circle cx="255.1" cy="100.8" r="1.6"/>
				<circle cx="266.5" cy="100.8" r="1.6"/>
			</g>
			<g>
				<circle cx="232.2" cy="135.8" r="1.6"/>
				<circle cx="243.6" cy="135.8" r="1.6"/>
				<circle cx="255.1" cy="135.8" r="1.6"/>
				<circle cx="266.5" cy="135.8" r="1.6"/>
			</g>
			<rect x="227.3" y="103.2" width="44.7" height="0.5"/>
			<rect x="227.3" y="132.8" width="44.7" height="0.5"/>
			<path d="M266.8,131.5h-34.5c-1.9,0-3.4-1.6-3.4-3.4v-19.5c0-1.9,1.6-3.4,3.4-3.4h34.5c1.9,0,3.4,1.6,3.4,3.4v19.5
				C270.3,130,268.7,131.5,266.8,131.5z"/>
		</g>
	</g>
	<g>
		<path class="st6" d="M243.8,94h-38.5c-2.2,0-4.1-1.9-4.1-4.1V55.3c0-2.2,1.9-4.1,4.1-4.1h38.5c2.2,0,4.1,1.9,4.1,4.1v34.6
			C247.9,92.2,246,94,243.8,94z"/>
		<g class="st4">
			<g>
				<circle cx="207.4" cy="54.3" r="1.6"/>
				<circle cx="218.9" cy="54.3" r="1.6"/>
				<circle cx="230.3" cy="54.3" r="1.6"/>
				<circle cx="241.8" cy="54.3" r="1.6"/>
			</g>
			<g>
				<circle cx="207.4" cy="91.1" r="1.6"/>
				<circle cx="218.9" cy="91.1" r="1.6"/>
				<circle cx="230.3" cy="91.1" r="1.6"/>
				<circle cx="241.8" cy="91.1" r="1.6"/>
			</g>
			<rect x="202.6" y="56.8" width="44.7" height="0.5"/>
			<rect x="202.6" y="88.1" width="44.7" height="0.5"/>
			<path d="M242,86.9h-34.5c-1.9,0-3.4-1.6-3.4-3.4V62.2c0-1.9,1.6-3.4,3.4-3.4H242c1.9,0,3.4,1.6,3.4,3.4v21.3
				C245.5,85.3,244,86.9,242,86.9z"/>
		</g>
	</g>
	<g>
		<path class="st6" d="M293.4,94h-38.5c-2.2,0-4.1-1.9-4.1-4.1V55.3c0-2.2,1.9-4.1,4.1-4.1h38.5c2.2,0,4.1,1.9,4.1,4.1v34.6
			C297.4,92.2,295.6,94,293.4,94z"/>
		<g class="st4">
			<g>
				<circle cx="256.9" cy="54.3" r="1.6"/>
				<circle cx="268.4" cy="54.3" r="1.6"/>
				<circle cx="279.8" cy="54.3" r="1.6"/>
				<circle cx="291.2" cy="54.3" r="1.6"/>
			</g>
			<g>
				<circle cx="256.9" cy="91.1" r="1.6"/>
				<circle cx="268.4" cy="91.1" r="1.6"/>
				<circle cx="279.8" cy="91.1" r="1.6"/>
				<circle cx="291.2" cy="91.1" r="1.6"/>
			</g>
			<rect x="252.1" y="56.8" width="44.7" height="0.5"/>
			<rect x="252.1" y="88.1" width="44.7" height="0.5"/>
			<path d="M291.6,86.9h-34.5c-1.9,0-3.4-1.6-3.4-3.4V62.2c0-1.9,1.6-3.4,3.4-3.4h34.5c1.9,0,3.4,1.6,3.4,3.4v21.3
				C295,85.3,293.5,86.9,291.6,86.9z"/>
		</g>
	</g>
	<g>
		<path class="st5" d="M230.6,77c0.2,0.2,0.3,0.5,0.3,0.9c0,0.8-0.5,1.2-1.4,1.2h-1.2v1.8c0,0.5-0.1,0.9-0.4,1.1
			c-0.3,0.3-0.6,0.4-1.1,0.4c-0.4,0-0.8-0.1-1.1-0.4s-0.4-0.6-0.4-1.1V79h-6.1c-0.4,0-0.7-0.1-1-0.4c-0.2-0.2-0.3-0.5-0.3-0.9
			s0.1-0.7,0.4-1.1l7.2-10.3c0.2-0.2,0.3-0.4,0.6-0.5c0.2-0.1,0.5-0.2,0.7-0.2c0.4,0,0.8,0.1,1,0.4c0.3,0.3,0.4,0.6,0.4,1.1v9.5h1.2
			C230,76.7,230.4,76.8,230.6,77z M221.1,76.7h4.3v-6.3L221.1,76.7z"/>
	</g>
	<g>
		<path class="st5" d="M242.5,125.1c0,0.7-0.4,1.1-1.2,1.1h-6.8c-0.8,0-1.2-0.4-1.2-1.1s0.4-1,1.2-1h2.1V115l-1.9,1.2
			c-0.2,0.1-0.4,0.2-0.5,0.2c-0.3,0-0.5-0.1-0.7-0.4c-0.2-0.2-0.3-0.5-0.3-0.8c0-0.4,0.2-0.7,0.5-0.9l3.1-1.9
			c0.4-0.2,0.8-0.4,1.1-0.4c0.4,0,0.7,0.1,0.9,0.3s0.3,0.5,0.3,0.9V124h2.1C242.1,124.1,242.5,124.4,242.5,125.1z"/>
		<path class="st5" d="M244.6,124.5c-0.9-1.2-1.3-3-1.3-5.4c0-2.3,0.4-4.1,1.3-5.4c0.9-1.2,2.2-1.8,3.8-1.8s2.9,0.6,3.8,1.8
			c0.9,1.2,1.3,3,1.3,5.4c0,2.3-0.4,4.1-1.3,5.4c-0.9,1.2-2.2,1.9-3.8,1.9S245.4,125.7,244.6,124.5z M250.4,123.1
			c0.4-0.8,0.6-2.2,0.6-4s-0.2-3.1-0.6-4c-0.4-0.8-1.1-1.2-2-1.2s-1.6,0.4-2,1.2c-0.4,0.8-0.6,2.1-0.6,4c0,1.8,0.2,3.1,0.6,4
			c0.4,0.8,1.1,1.2,2,1.2C249.3,124.3,249.9,123.9,250.4,123.1z"/>
		<path class="st5" d="M255.7,124.5c-0.9-1.2-1.3-3-1.3-5.4c0-2.3,0.4-4.1,1.3-5.4c0.9-1.2,2.2-1.8,3.8-1.8s2.9,0.6,3.8,1.8
			c0.9,1.2,1.3,3,1.3,5.4c0,2.3-0.4,4.1-1.3,5.4c-0.9,1.2-2.2,1.9-3.8,1.9S256.6,125.7,255.7,124.5z M261.5,123.1
			c0.4-0.8,0.6-2.2,0.6-4s-0.2-3.1-0.6-4c-0.4-0.8-1.1-1.2-2-1.2s-1.6,0.4-2,1.2c-0.4,0.8-0.6,2.1-0.6,4c0,1.8,0.2,3.1,0.6,4
			c0.4,0.8,1.1,1.2,2,1.2C260.4,124.3,261.1,123.9,261.5,123.1z"/>
	</g>
	<g>
		<path class="st5" d="M273.2,77c0.2,0.2,0.3,0.5,0.3,0.9c0,0.8-0.5,1.2-1.4,1.2H271v1.8c0,0.5-0.1,0.9-0.4,1.1
			c-0.3,0.3-0.6,0.4-1.1,0.4c-0.4,0-0.8-0.1-1.1-0.4c-0.3-0.3-0.4-0.6-0.4-1.1V79h-6.1c-0.4,0-0.7-0.1-1-0.4
			c-0.2-0.2-0.3-0.5-0.3-0.9s0.1-0.7,0.4-1.1l7.2-10.3c0.2-0.2,0.3-0.4,0.6-0.5c0.2-0.1,0.5-0.2,0.7-0.2c0.4,0,0.8,0.1,1,0.4
			c0.3,0.3,0.4,0.6,0.4,1.1v9.5h1.2C272.6,76.7,273,76.8,273.2,77z M263.7,76.7h4.3v-6.3L263.7,76.7z"/>
		<path class="st5" d="M283.5,72.4c0.8,0.4,1.4,1.1,1.8,1.9s0.6,1.7,0.6,2.7c0,1.1-0.2,2-0.7,2.8s-1.1,1.5-2,1.9
			c-0.8,0.5-1.8,0.7-2.8,0.7c-2.1,0-3.7-0.7-4.8-2.1c-1.1-1.4-1.7-3.4-1.7-6c0-1.8,0.3-3.3,0.8-4.6c0.5-1.3,1.3-2.3,2.3-3
			s2.1-1,3.5-1c0.9,0,1.8,0.2,2.7,0.5c0.9,0.3,1.6,0.7,2.3,1.3c0.2,0.2,0.3,0.3,0.4,0.5s0.1,0.4,0.1,0.6c0,0.3-0.1,0.6-0.3,0.9
			s-0.4,0.4-0.7,0.4c-0.2,0-0.3,0-0.4-0.1s-0.3-0.1-0.5-0.3c-1.3-0.9-2.4-1.4-3.4-1.4c-1.1,0-2,0.5-2.7,1.6c-0.7,1-1,2.5-1,4.4
			c0.4-0.7,0.9-1.3,1.6-1.7c0.7-0.4,1.5-0.6,2.4-0.6C281.9,71.7,282.7,71.9,283.5,72.4z M282.3,79.3c0.5-0.6,0.8-1.3,0.8-2.2
			s-0.3-1.6-0.8-2.2c-0.5-0.5-1.2-0.8-2-0.8c-0.9,0-1.6,0.3-2.1,0.8c-0.5,0.6-0.8,1.3-0.8,2.2c0,0.9,0.3,1.6,0.8,2.2
			s1.2,0.8,2.1,0.8C281.1,80.1,281.8,79.8,282.3,79.3z"/>
	</g>
	<g>
		<path class="st0" d="M243.8,48.5h-38.5c-2.2,0-4.1-1.9-4.1-4.1V10.8c0-2.2,1.9-4.1,4.1-4.1h38.5c2.2,0,4.1,1.9,4.1,4.1v33.6
			C247.9,46.8,246,48.5,243.8,48.5z"/>
		<g class="st4">
			<g>
				<circle cx="207.4" cy="9.8" r="1.6"/>
				<circle cx="218.9" cy="9.8" r="1.6"/>
				<circle cx="230.3" cy="9.8" r="1.6"/>
				<circle cx="241.8" cy="9.8" r="1.6"/>
			</g>
			<g>
				<circle cx="207.4" cy="45.6" r="1.6"/>
				<circle cx="218.9" cy="45.6" r="1.6"/>
				<circle cx="230.3" cy="45.6" r="1.6"/>
				<circle cx="241.8" cy="45.6" r="1.6"/>
			</g>
			<rect x="202.6" y="12.3" width="44.7" height="0.5"/>
			<rect x="202.6" y="42.7" width="44.7" height="0.5"/>
			<path d="M242,41.5h-34.5c-1.9,0-3.4-1.6-3.4-3.4V17.7c0-1.9,1.6-3.4,3.4-3.4H242c1.9,0,3.4,1.6,3.4,3.4V38
				C245.5,39.9,244,41.5,242,41.5z"/>
		</g>
	</g>
	<g>
		<path class="st6" d="M293.4,48.5h-38.5c-2.2,0-4.1-1.9-4.1-4.1V10.8c0-2.2,1.9-4.1,4.1-4.1h38.5c2.2,0,4.1,1.9,4.1,4.1v33.6
			C297.4,46.8,295.6,48.5,293.4,48.5z"/>
		<g class="st4">
			<g>
				<circle cx="256.9" cy="9.8" r="1.6"/>
				<circle cx="268.4" cy="9.8" r="1.6"/>
				<circle cx="279.8" cy="9.8" r="1.6"/>
				<circle cx="291.2" cy="9.8" r="1.6"/>
			</g>
			<g>
				<circle cx="256.9" cy="45.6" r="1.6"/>
				<circle cx="268.4" cy="45.6" r="1.6"/>
				<circle cx="279.8" cy="45.6" r="1.6"/>
				<circle cx="291.2" cy="45.6" r="1.6"/>
			</g>
			<rect x="252.1" y="12.3" width="44.7" height="0.5"/>
			<rect x="252.1" y="42.7" width="44.7" height="0.5"/>
			<path d="M291.6,41.5h-34.5c-1.9,0-3.4-1.6-3.4-3.4V17.7c0-1.9,1.6-3.4,3.4-3.4h34.5c1.9,0,3.4,1.6,3.4,3.4V38
				C295,39.9,293.5,41.5,291.6,41.5z"/>
		</g>
	</g>
	<g>
		<path class="st5" d="M223.8,32.7c-0.2-0.2-0.2-0.4-0.2-0.8c0-0.9,0.2-1.6,0.5-2.2s0.8-1.2,1.4-1.9c0.5-0.6,0.8-1,1-1.4
			s0.3-0.8,0.3-1.3s-0.2-0.9-0.6-1.2c-0.4-0.3-0.9-0.5-1.5-0.5s-1.1,0.1-1.6,0.4c-0.5,0.2-1.1,0.6-1.8,1c-0.4,0.2-0.7,0.3-1,0.3
			s-0.5-0.1-0.7-0.4c-0.2-0.2-0.3-0.5-0.3-0.8c0-0.5,0.2-0.8,0.6-1.1c0.7-0.6,1.4-1,2.3-1.3c0.9-0.3,1.8-0.5,2.7-0.5
			s1.8,0.2,2.5,0.5s1.3,0.8,1.7,1.4s0.6,1.2,0.6,2s-0.2,1.5-0.6,2.1s-1,1.3-1.7,2c-0.6,0.7-1.1,1.2-1.4,1.6
			c-0.3,0.4-0.5,0.9-0.6,1.5c0,0.2-0.2,0.4-0.3,0.6c-0.2,0.1-0.4,0.2-0.6,0.2C224.2,33,224,32.9,223.8,32.7z M223.2,37.4
			c-0.3-0.3-0.5-0.7-0.5-1.2s0.2-0.9,0.5-1.2s0.7-0.5,1.2-0.5s0.9,0.2,1.2,0.5s0.5,0.7,0.5,1.2s-0.2,0.9-0.5,1.2s-0.7,0.5-1.2,0.5
			C224,37.9,223.6,37.7,223.2,37.4z"/>
	</g>
	<g>
		<path class="st5" d="M278.5,27.9c0.8,0.4,1.4,1.1,1.8,1.9s0.7,1.7,0.7,2.7c0,1.1-0.2,2-0.7,2.8s-1.2,1.5-2.1,1.9s-1.9,0.7-3.1,0.7
			c-1,0-1.9-0.2-2.8-0.5s-1.7-0.7-2.4-1.3c-0.4-0.3-0.5-0.7-0.5-1.1c0-0.3,0.1-0.6,0.3-0.9c0.2-0.2,0.4-0.4,0.7-0.4
			c0.2,0,0.3,0,0.4,0.1s0.3,0.1,0.5,0.3c0.6,0.4,1.2,0.8,1.8,1c0.6,0.2,1.2,0.3,1.9,0.3c1,0,1.8-0.3,2.4-0.8
			c0.5-0.5,0.8-1.2,0.8-2.2c0-0.9-0.3-1.6-0.8-2.2c-0.6-0.5-1.3-0.8-2.3-0.8c-0.6,0-1.1,0.1-1.6,0.3c-0.5,0.2-1,0.5-1.5,0.9
			c-0.3,0.2-0.6,0.3-0.9,0.3s-0.6-0.1-0.8-0.3c-0.2-0.2-0.3-0.4-0.3-0.7v-7.3c0-0.4,0.1-0.8,0.4-1c0.2-0.2,0.6-0.4,1-0.4h7.8
			c0.9,0,1.4,0.4,1.4,1.2c0,0.8-0.5,1.2-1.4,1.2H273V28c0.8-0.6,1.8-0.8,2.9-0.8C276.8,27.2,277.7,27.5,278.5,27.9z"/>
	</g>
</g>
<g>
	<g>
		<g>
			<g>
				<rect x="131.6" y="200.9" class="st0" width="4.7" height="32.6"/>
				<path class="st1" d="M111.9,260.9h28.9c4.5,0,8.2-3.6,8.2-8.2v-21.8c0-4.5-3.6-8.2-8.2-8.2h-4.5"/>
				<path class="st2" d="M111.9,260.9h28.9c4.5,0,8.2-3.6,8.2-8.2v-21.8c0-4.5-3.6-8.2-8.2-8.2h-4.5"/>
			</g>
			<rect x="107.3" y="252" class="st0" width="4.7" height="17.8"/>
		</g>
		<g>
			<g>
				<rect x="131.6" y="163.2" class="st0" width="4.7" height="17.8"/>
				<path class="st1" d="M111.9,210.3h28.9c4.5,0,8.2-3.6,8.2-8.2v-21.8c0-4.5-3.6-8.2-8.2-8.2h-4.5"/>
				<path class="st2" d="M111.9,210.3h28.9c4.5,0,8.2-3.6,8.2-8.2v-21.8c0-4.5-3.6-8.2-8.2-8.2h-4.5"/>
			</g>
			<rect x="107.3" y="201.3" class="st0" width="4.7" height="17.8"/>
		</g>
	</g>
	<g>
		<g>
			<rect x="32.5" y="200.9" class="st0" width="4.7" height="32.6"/>
			<path class="st1" d="M56.8,260.9H27.9c-4.5,0-8.2-3.6-8.2-8.2v-21.8c0-4.5,3.6-8.2,8.2-8.2h4.5"/>
			<path class="st2" d="M56.8,260.9H27.9c-4.5,0-8.2-3.6-8.2-8.2v-21.8c0-4.5,3.6-8.2,8.2-8.2h4.5"/>
		</g>
		<rect x="56.8" y="252" class="st0" width="4.7" height="17.8"/>
	</g>
	<g>
		<g>
			<rect x="32.5" y="163.2" class="st0" width="4.7" height="17.8"/>
			<path class="st1" d="M56.8,210.3H27.9c-4.5,0-8.2-3.6-8.2-8.2v-21.8c0-4.5,3.6-8.2,8.2-8.2h4.5"/>
			<path class="st2" d="M56.8,210.3H27.9c-4.5,0-8.2-3.6-8.2-8.2v-21.8c0-4.5,3.6-8.2,8.2-8.2h4.5"/>
		</g>
		<rect x="56.8" y="201.3" class="st0" width="4.7" height="17.8"/>
	</g>
	<g>
		<path class="st7" d="M103.3,283.3H66c-2.6,0-4.7-2-4.7-4.7V247c0-2.6,2-4.7,4.7-4.7h37.3c2.6,0,4.7,2,4.7,4.7v31.6
			C107.9,281.3,105.9,283.3,103.3,283.3z"/>
		<g class="st4">
			<g>
				<circle cx="67.5" cy="245.4" r="1.6"/>
				<circle cx="79" cy="245.4" r="1.6"/>
				<circle cx="90.4" cy="245.4" r="1.6"/>
				<circle cx="101.9" cy="245.4" r="1.6"/>
			</g>
			<g>
				<circle cx="67.5" cy="280.4" r="1.6"/>
				<circle cx="79" cy="280.4" r="1.6"/>
				<circle cx="90.4" cy="280.4" r="1.6"/>
				<circle cx="101.9" cy="280.4" r="1.6"/>
			</g>
			<rect x="62.7" y="247.8" width="44.7" height="0.5"/>
			<rect x="62.7" y="277.4" width="44.7" height="0.5"/>
			<path d="M102.2,276.1H67.7c-1.9,0-3.4-1.6-3.4-3.4v-19.5c0-1.9,1.6-3.4,3.4-3.4h34.5c1.9,0,3.4,1.6,3.4,3.4v19.5
				C105.6,274.6,104,276.1,102.2,276.1z"/>
		</g>
	</g>
	<g>
		<path class="st0" d="M79.2,238.6H40.7c-2.2,0-4.1-1.9-4.1-4.1v-34.6c0-2.2,1.9-4.1,4.1-4.1h38.5c2.2,0,4.1,1.9,4.1,4.1v34.6
			C83.3,236.8,81.4,238.6,79.2,238.6z"/>
		<g class="st4">
			<g>
				<circle cx="42.7" cy="198.9" r="1.6"/>
				<circle cx="54.2" cy="198.9" r="1.6"/>
				<circle cx="65.7" cy="198.9" r="1.6"/>
				<circle cx="77.1" cy="198.9" r="1.6"/>
			</g>
			<g>
				<circle cx="42.7" cy="235.7" r="1.6"/>
				<circle cx="54.2" cy="235.7" r="1.6"/>
				<circle cx="65.7" cy="235.7" r="1.6"/>
				<circle cx="77.1" cy="235.7" r="1.6"/>
			</g>
			<rect x="37.9" y="201.4" width="44.7" height="0.5"/>
			<rect x="37.9" y="232.7" width="44.7" height="0.5"/>
			<path d="M77.4,231.5H42.9c-1.9,0-3.4-1.6-3.4-3.4v-21.3c0-1.9,1.6-3.4,3.4-3.4h34.5c1.9,0,3.4,1.6,3.4,3.4v21.3
				C80.8,229.9,79.3,231.5,77.4,231.5z"/>
		</g>
	</g>
	<g>
		<path class="st7" d="M128.7,238.6H90.2c-2.2,0-4.1-1.9-4.1-4.1v-34.6c0-2.2,1.9-4.1,4.1-4.1h38.5c2.2,0,4.1,1.9,4.1,4.1v34.6
			C132.7,236.8,130.9,238.6,128.7,238.6z"/>
		<g class="st4">
			<g>
				<circle cx="92.3" cy="198.9" r="1.6"/>
				<circle cx="103.7" cy="198.9" r="1.6"/>
				<circle cx="115.1" cy="198.9" r="1.6"/>
				<circle cx="126.6" cy="198.9" r="1.6"/>
			</g>
			<g>
				<circle cx="92.3" cy="235.7" r="1.6"/>
				<circle cx="103.7" cy="235.7" r="1.6"/>
				<circle cx="115.1" cy="235.7" r="1.6"/>
				<circle cx="126.6" cy="235.7" r="1.6"/>
			</g>
			<rect x="87.4" y="201.4" width="44.7" height="0.5"/>
			<rect x="87.4" y="232.7" width="44.7" height="0.5"/>
			<path d="M126.9,231.5H92.5c-1.9,0-3.4-1.6-3.4-3.4v-21.3c0-1.9,1.6-3.4,3.4-3.4H127c1.9,0,3.4,1.6,3.4,3.4v21.3
				C130.4,229.9,128.8,231.5,126.9,231.5z"/>
		</g>
	</g>
	<g>
		<path class="st5" d="M59.1,221.8c-0.2-0.2-0.2-0.4-0.2-0.8c0-0.9,0.2-1.6,0.5-2.2s0.8-1.2,1.4-1.9c0.5-0.6,0.8-1,1-1.4
			s0.3-0.8,0.3-1.3s-0.2-0.9-0.6-1.2s-0.9-0.5-1.5-0.5s-1.1,0.1-1.6,0.4c-0.5,0.2-1.1,0.6-1.8,1c-0.4,0.2-0.7,0.3-1,0.3
			s-0.5-0.1-0.7-0.4c-0.2-0.2-0.3-0.5-0.3-0.9c0-0.5,0.2-0.8,0.6-1.1c0.7-0.6,1.4-1,2.3-1.3s1.8-0.5,2.7-0.5s1.8,0.2,2.5,0.5
			s1.3,0.8,1.7,1.4c0.4,0.6,0.6,1.2,0.6,2s-0.2,1.5-0.6,2.1s-1,1.3-1.7,2c-0.6,0.7-1.1,1.2-1.4,1.6c-0.3,0.4-0.5,0.9-0.6,1.5
			c0,0.2-0.2,0.4-0.3,0.6c-0.2,0.1-0.4,0.2-0.6,0.2C59.5,222.1,59.3,222,59.1,221.8z M58.6,226.5c-0.3-0.3-0.5-0.7-0.5-1.2
			s0.2-0.9,0.5-1.2s0.7-0.5,1.2-0.5s0.9,0.2,1.2,0.5s0.5,0.7,0.5,1.2s-0.2,0.9-0.5,1.2s-0.7,0.5-1.2,0.5S58.9,226.8,58.6,226.5z"/>
	</g>
	<g>
		<path class="st5" d="M83.3,264.7c0.5,0.7,0.8,1.5,0.8,2.6c0,1.4-0.5,2.5-1.6,3.4c-1,0.8-2.4,1.3-4.2,1.3c-1,0-2-0.2-2.9-0.5
			s-1.7-0.7-2.4-1.3c-0.4-0.3-0.5-0.7-0.5-1.1c0-0.3,0.1-0.6,0.3-0.9c0.2-0.2,0.4-0.4,0.7-0.4c0.2,0,0.3,0,0.4,0.1s0.3,0.1,0.5,0.3
			c0.7,0.4,1.3,0.8,1.9,1s1.2,0.3,1.9,0.3c1,0,1.8-0.2,2.3-0.6s0.7-1,0.7-1.9c0-0.8-0.3-1.4-0.8-1.8s-1.3-0.6-2.4-0.6h-1.3
			c-0.4,0-0.6-0.1-0.8-0.4c-0.2-0.2-0.3-0.5-0.3-0.8s0.1-0.6,0.3-0.8c0.2-0.2,0.5-0.3,0.8-0.3h0.9c2.1,0,3.2-0.8,3.2-2.4
			c0-0.7-0.2-1.3-0.7-1.7s-1.1-0.6-1.9-0.6c-1.1,0-2.3,0.5-3.6,1.4c-0.2,0.1-0.4,0.2-0.5,0.3c-0.1,0.1-0.3,0.1-0.4,0.1
			c-0.3,0-0.5-0.1-0.7-0.4c-0.2-0.2-0.3-0.5-0.3-0.9c0-0.2,0-0.4,0.1-0.6s0.2-0.3,0.4-0.5c0.7-0.5,1.4-1,2.3-1.3s1.8-0.5,2.8-0.5
			c1.6,0,2.9,0.4,3.9,1.2c1,0.8,1.4,1.8,1.4,3.2c0,0.9-0.3,1.7-0.7,2.4c-0.5,0.7-1.1,1.2-1.9,1.5C82.1,263.6,82.8,264.1,83.3,264.7z
			"/>
		<path class="st5" d="M96.3,264.7c0.5,0.7,0.8,1.5,0.8,2.6c0,1.4-0.5,2.5-1.6,3.4c-1,0.8-2.4,1.3-4.2,1.3c-1,0-2-0.2-2.9-0.5
			s-1.7-0.7-2.4-1.3c-0.4-0.3-0.5-0.7-0.5-1.1c0-0.3,0.1-0.6,0.3-0.9c0.2-0.2,0.4-0.4,0.7-0.4c0.2,0,0.3,0,0.4,0.1s0.3,0.1,0.5,0.3
			c0.7,0.4,1.3,0.8,1.9,1s1.2,0.3,1.9,0.3c1,0,1.8-0.2,2.3-0.6s0.7-1,0.7-1.9c0-0.8-0.3-1.4-0.8-1.8s-1.3-0.6-2.4-0.6h-1.3
			c-0.4,0-0.6-0.1-0.8-0.4c-0.2-0.2-0.3-0.5-0.3-0.8s0.1-0.6,0.3-0.8c0.2-0.2,0.5-0.3,0.8-0.3h0.9c2.1,0,3.2-0.8,3.2-2.4
			c0-0.7-0.2-1.3-0.7-1.7s-1.1-0.6-1.9-0.6c-1.1,0-2.3,0.5-3.6,1.4c-0.2,0.1-0.4,0.2-0.5,0.3c-0.1,0.1-0.3,0.1-0.4,0.1
			c-0.3,0-0.5-0.1-0.7-0.4c-0.2-0.2-0.3-0.5-0.3-0.9c0-0.2,0-0.4,0.1-0.6s0.2-0.3,0.4-0.5c0.7-0.5,1.4-1,2.3-1.3s1.8-0.5,2.8-0.5
			c1.6,0,2.9,0.4,3.9,1.2c1,0.8,1.4,1.8,1.4,3.2c0,0.9-0.3,1.7-0.7,2.4c-0.5,0.7-1.1,1.2-1.9,1.5C95,263.6,95.8,264.1,96.3,264.7z"
			/>
	</g>
	<g>
		<path class="st5" d="M116.3,224.6c0,0.8-0.5,1.2-1.4,1.2H106c-0.4,0-0.7-0.1-1-0.4c-0.2-0.2-0.3-0.5-0.3-0.9
			c0-0.5,0.2-0.9,0.5-1.3l5.3-5.7c0.7-0.7,1.1-1.4,1.4-2s0.5-1.2,0.5-1.8c0-0.7-0.2-1.3-0.6-1.7s-1-0.6-1.8-0.6
			c-0.6,0-1.3,0.1-1.9,0.4c-0.6,0.2-1.2,0.6-1.8,1c-0.2,0.1-0.3,0.2-0.5,0.3s-0.3,0.1-0.5,0.1c-0.3,0-0.5-0.1-0.7-0.4
			c-0.2-0.2-0.3-0.5-0.3-0.9c0-0.2,0-0.4,0.1-0.6s0.2-0.3,0.4-0.5c0.7-0.5,1.5-1,2.4-1.3s1.8-0.5,2.7-0.5c1.6,0,2.9,0.4,3.8,1.2
			c1,0.8,1.4,1.9,1.4,3.3c0,0.9-0.2,1.8-0.6,2.7c-0.4,0.8-1.1,1.8-2,2.8l-4,4.3h6.1C115.8,223.4,116.3,223.8,116.3,224.6z"/>
	</g>
	<g>
		<path class="st7" d="M79.2,193.1H40.7c-2.2,0-4.1-1.9-4.1-4.1v-33.6c0-2.2,1.9-4.1,4.1-4.1h38.5c2.2,0,4.1,1.9,4.1,4.1V189
			C83.3,191.4,81.4,193.1,79.2,193.1z"/>
		<g class="st4">
			<g>
				<circle cx="42.7" cy="154.4" r="1.6"/>
				<circle cx="54.2" cy="154.4" r="1.6"/>
				<circle cx="65.7" cy="154.4" r="1.6"/>
				<circle cx="77.1" cy="154.4" r="1.6"/>
			</g>
			<g>
				<circle cx="42.7" cy="190.2" r="1.6"/>
				<circle cx="54.2" cy="190.2" r="1.6"/>
				<circle cx="65.7" cy="190.2" r="1.6"/>
				<circle cx="77.1" cy="190.2" r="1.6"/>
			</g>
			<rect x="37.9" y="156.9" width="44.7" height="0.5"/>
			<rect x="37.9" y="187.3" width="44.7" height="0.5"/>
			<path d="M77.4,186.1H42.9c-1.9,0-3.4-1.6-3.4-3.4v-20.3c0-1.9,1.6-3.4,3.4-3.4h34.5c1.9,0,3.4,1.6,3.4,3.4v20.3
				C80.8,184.5,79.3,186.1,77.4,186.1z"/>
		</g>
	</g>
	<g>
		<path class="st7" d="M128.7,193.1H90.2c-2.2,0-4.1-1.9-4.1-4.1v-33.6c0-2.2,1.9-4.1,4.1-4.1h38.5c2.2,0,4.1,1.9,4.1,4.1V189
			C132.7,191.4,130.9,193.1,128.7,193.1z"/>
		<g class="st4">
			<g>
				<circle cx="92.3" cy="154.4" r="1.6"/>
				<circle cx="103.7" cy="154.4" r="1.6"/>
				<circle cx="115.1" cy="154.4" r="1.6"/>
				<circle cx="126.6" cy="154.4" r="1.6"/>
			</g>
			<g>
				<circle cx="92.3" cy="190.2" r="1.6"/>
				<circle cx="103.7" cy="190.2" r="1.6"/>
				<circle cx="115.1" cy="190.2" r="1.6"/>
				<circle cx="126.6" cy="190.2" r="1.6"/>
			</g>
			<rect x="87.4" y="156.9" width="44.7" height="0.5"/>
			<rect x="87.4" y="187.3" width="44.7" height="0.5"/>
			<path d="M126.9,186.1H92.5c-1.9,0-3.4-1.6-3.4-3.4v-20.3c0-1.9,1.6-3.4,3.4-3.4H127c1.9,0,3.4,1.6,3.4,3.4v20.3
				C130.4,184.5,128.8,186.1,126.9,186.1z"/>
		</g>
	</g>
	<g>
		<path class="st5" d="M59.7,181.1c0,0.8-0.5,1.2-1.4,1.2h-7.9c-0.9,0-1.4-0.4-1.4-1.2s0.5-1.2,1.4-1.2h2.4v-10.6l-2.2,1.4
			c-0.2,0.1-0.4,0.2-0.6,0.2c-0.3,0-0.6-0.1-0.8-0.4s-0.3-0.6-0.3-0.9c0-0.4,0.2-0.8,0.6-1l3.6-2.2c0.5-0.3,0.9-0.4,1.3-0.4
			c0.4,0,0.8,0.1,1,0.4c0.3,0.3,0.4,0.6,0.4,1.1v12.6h2.4C59.3,179.9,59.7,180.3,59.7,181.1z"/>
		<path class="st5" d="M71.4,175.3c0.5,0.7,0.8,1.5,0.8,2.6c0,1.4-0.5,2.5-1.6,3.4c-1,0.8-2.4,1.3-4.2,1.3c-1,0-2-0.2-2.9-0.5
			s-1.7-0.7-2.4-1.3c-0.4-0.3-0.5-0.7-0.5-1.1c0-0.3,0.1-0.6,0.3-0.9c0.2-0.2,0.4-0.4,0.7-0.4c0.2,0,0.3,0,0.4,0.1
			c0.1,0.1,0.3,0.1,0.5,0.3c0.7,0.4,1.3,0.8,1.9,1c0.6,0.2,1.2,0.3,1.9,0.3c1,0,1.8-0.2,2.3-0.6c0.5-0.4,0.7-1,0.7-1.9
			c0-0.8-0.3-1.4-0.8-1.8s-1.3-0.6-2.4-0.6h-1.3c-0.4,0-0.6-0.1-0.8-0.4c-0.2-0.2-0.3-0.5-0.3-0.8s0.1-0.6,0.3-0.8
			c0.2-0.2,0.5-0.3,0.8-0.3h0.9c2.1,0,3.2-0.8,3.2-2.4c0-0.7-0.2-1.3-0.7-1.7s-1.1-0.6-1.9-0.6c-1.1,0-2.3,0.5-3.6,1.4
			c-0.2,0.1-0.4,0.2-0.5,0.3s-0.3,0.1-0.4,0.1c-0.3,0-0.5-0.1-0.7-0.4c-0.2-0.2-0.3-0.5-0.3-0.9c0-0.2,0-0.4,0.1-0.6
			s0.2-0.3,0.4-0.5c0.7-0.5,1.4-1,2.3-1.3s1.8-0.5,2.8-0.5c1.6,0,2.9,0.4,3.9,1.2s1.4,1.8,1.4,3.2c0,0.9-0.3,1.7-0.7,2.4
			c-0.5,0.7-1.1,1.2-1.9,1.5C70.1,174.2,70.9,174.6,71.4,175.3z"/>
	</g>
	<g>
		<path class="st5" d="M115.9,166.3c0.2,0.2,0.3,0.5,0.3,0.9s-0.1,0.7-0.3,1.1l-7.4,13.5c-0.3,0.5-0.7,0.8-1.3,0.8
			c-0.4,0-0.7-0.1-1-0.4c-0.3-0.3-0.4-0.6-0.4-0.9c0-0.3,0.1-0.5,0.2-0.8l6.7-12.1h-7c-0.9,0-1.4-0.4-1.4-1.2s0.5-1.2,1.4-1.2h9.3
			C115.4,165.9,115.7,166.1,115.9,166.3z"/>
	</g>
</g>
<g>
	<g>
		<g>
			<g>
				<rect x="296.2" y="200.9" class="st0" width="4.7" height="32.6"/>
				<path class="st1" d="M276.6,260.9h28.9c4.5,0,8.2-3.6,8.2-8.2v-21.8c0-4.5-3.6-8.2-8.2-8.2H301"/>
				<path class="st2" d="M276.6,260.9h28.9c4.5,0,8.2-3.6,8.2-8.2v-21.8c0-4.5-3.6-8.2-8.2-8.2H301"/>
			</g>
			<rect x="271.9" y="252" class="st0" width="4.7" height="17.8"/>
		</g>
		<g>
			<g>
				<rect x="296.2" y="163.2" class="st0" width="4.7" height="17.8"/>
				<path class="st1" d="M276.6,210.3h28.9c4.5,0,8.2-3.6,8.2-8.2v-21.8c0-4.5-3.6-8.2-8.2-8.2H301"/>
				<path class="st2" d="M276.6,210.3h28.9c4.5,0,8.2-3.6,8.2-8.2v-21.8c0-4.5-3.6-8.2-8.2-8.2H301"/>
			</g>
			<rect x="271.9" y="201.3" class="st0" width="4.7" height="17.8"/>
		</g>
	</g>
	<g>
		<g>
			<rect x="197.2" y="200.9" class="st0" width="4.7" height="32.6"/>
			<path class="st1" d="M221.5,260.9h-28.9c-4.5,0-8.2-3.6-8.2-8.2v-21.8c0-4.5,3.6-8.2,8.2-8.2h4.5"/>
			<path class="st2" d="M221.5,260.9h-28.9c-4.5,0-8.2-3.6-8.2-8.2v-21.8c0-4.5,3.6-8.2,8.2-8.2h4.5"/>
		</g>
		<rect x="221.5" y="252" class="st0" width="4.7" height="17.8"/>
	</g>
	<g>
		<g>
			<rect x="197.2" y="163.2" class="st0" width="4.7" height="17.8"/>
			<path class="st1" d="M221.5,210.3h-28.9c-4.5,0-8.2-3.6-8.2-8.2v-21.8c0-4.5,3.6-8.2,8.2-8.2h4.5"/>
			<path class="st2" d="M221.5,210.3h-28.9c-4.5,0-8.2-3.6-8.2-8.2v-21.8c0-4.5,3.6-8.2,8.2-8.2h4.5"/>
		</g>
		<rect x="221.5" y="201.3" class="st0" width="4.7" height="17.8"/>
	</g>
	<g>
		<path class="st8" d="M267.9,283.3h-37.3c-2.6,0-4.7-2-4.7-4.7V247c0-2.6,2-4.7,4.7-4.7h37.3c2.6,0,4.7,2,4.7,4.7v31.6
			C272.6,281.3,270.5,283.3,267.9,283.3z"/>
		<g class="st4">
			<g>
				<circle cx="232.2" cy="245.4" r="1.6"/>
				<circle cx="243.6" cy="245.4" r="1.6"/>
				<circle cx="255.1" cy="245.4" r="1.6"/>
				<circle cx="266.5" cy="245.4" r="1.6"/>
			</g>
			<g>
				<circle cx="232.2" cy="280.4" r="1.6"/>
				<circle cx="243.6" cy="280.4" r="1.6"/>
				<circle cx="255.1" cy="280.4" r="1.6"/>
				<circle cx="266.5" cy="280.4" r="1.6"/>
			</g>
			<rect x="227.3" y="247.8" width="44.7" height="0.5"/>
			<rect x="227.3" y="277.4" width="44.7" height="0.5"/>
			<path d="M266.8,276.1h-34.5c-1.9,0-3.4-1.6-3.4-3.4v-19.5c0-1.9,1.6-3.4,3.4-3.4h34.5c1.9,0,3.4,1.6,3.4,3.4v19.5
				C270.3,274.6,268.7,276.1,266.8,276.1z"/>
		</g>
	</g>
	<g>
		<path class="st8" d="M243.8,238.6h-38.5c-2.2,0-4.1-1.9-4.1-4.1v-34.6c0-2.2,1.9-4.1,4.1-4.1h38.5c2.2,0,4.1,1.9,4.1,4.1v34.6
			C247.9,236.8,246,238.6,243.8,238.6z"/>
		<g class="st4">
			<g>
				<circle cx="207.4" cy="198.9" r="1.6"/>
				<circle cx="218.9" cy="198.9" r="1.6"/>
				<circle cx="230.3" cy="198.9" r="1.6"/>
				<circle cx="241.8" cy="198.9" r="1.6"/>
			</g>
			<g>
				<circle cx="207.4" cy="235.7" r="1.6"/>
				<circle cx="218.9" cy="235.7" r="1.6"/>
				<circle cx="230.3" cy="235.7" r="1.6"/>
				<circle cx="241.8" cy="235.7" r="1.6"/>
			</g>
			<rect x="202.6" y="201.4" width="44.7" height="0.5"/>
			<rect x="202.6" y="232.7" width="44.7" height="0.5"/>
			<path d="M242,231.5h-34.5c-1.9,0-3.4-1.6-3.4-3.4v-21.3c0-1.9,1.6-3.4,3.4-3.4H242c1.9,0,3.4,1.6,3.4,3.4v21.3
				C245.5,229.9,244,231.5,242,231.5z"/>
		</g>
	</g>
	<g>
		<path class="st0" d="M293.4,238.6h-38.5c-2.2,0-4.1-1.9-4.1-4.1v-34.6c0-2.2,1.9-4.1,4.1-4.1h38.5c2.2,0,4.1,1.9,4.1,4.1v34.6
			C297.4,236.8,295.6,238.6,293.4,238.6z"/>
		<g class="st4">
			<g>
				<circle cx="256.9" cy="198.9" r="1.6"/>
				<circle cx="268.4" cy="198.9" r="1.6"/>
				<circle cx="279.8" cy="198.9" r="1.6"/>
				<circle cx="291.2" cy="198.9" r="1.6"/>
			</g>
			<g>
				<circle cx="256.9" cy="235.7" r="1.6"/>
				<circle cx="268.4" cy="235.7" r="1.6"/>
				<circle cx="279.8" cy="235.7" r="1.6"/>
				<circle cx="291.2" cy="235.7" r="1.6"/>
			</g>
			<rect x="252.1" y="201.4" width="44.7" height="0.5"/>
			<rect x="252.1" y="232.7" width="44.7" height="0.5"/>
			<path d="M291.6,231.5h-34.5c-1.9,0-3.4-1.6-3.4-3.4v-21.3c0-1.9,1.6-3.4,3.4-3.4h34.5c1.9,0,3.4,1.6,3.4,3.4v21.3
				C295,229.9,293.5,231.5,291.6,231.5z"/>
		</g>
	</g>
	<g>
		<path class="st5" d="M224.4,225.6c0,0.8-0.5,1.2-1.4,1.2h-7.9c-0.9,0-1.4-0.4-1.4-1.2s0.5-1.2,1.4-1.2h2.4v-10.6l-2.2,1.4
			c-0.2,0.1-0.4,0.2-0.6,0.2c-0.3,0-0.6-0.1-0.8-0.4c-0.2-0.3-0.3-0.6-0.3-0.9c0-0.4,0.2-0.8,0.6-1l3.6-2.2c0.5-0.3,0.9-0.4,1.3-0.4
			c0.4,0,0.8,0.1,1,0.4c0.3,0.3,0.4,0.6,0.4,1.1v12.6h2.4C223.9,224.4,224.4,224.8,224.4,225.6z"/>
		<path class="st5" d="M226.8,224.9c-1-1.4-1.5-3.5-1.5-6.3c0-2.7,0.5-4.8,1.5-6.3c1-1.4,2.5-2.2,4.4-2.2s3.4,0.7,4.4,2.2
			c1,1.4,1.5,3.5,1.5,6.3c0,2.7-0.5,4.8-1.5,6.3s-2.5,2.2-4.4,2.2S227.9,226.3,226.8,224.9z M233.6,223.2c0.5-1,0.7-2.5,0.7-4.6
			s-0.2-3.7-0.7-4.6c-0.5-1-1.2-1.4-2.3-1.4s-1.8,0.5-2.3,1.4c-0.5,1-0.7,2.5-0.7,4.6s0.2,3.7,0.7,4.6c0.5,1,1.2,1.5,2.3,1.5
			S233.1,224.2,233.6,223.2z"/>
	</g>
	<g>
		<path class="st5" d="M246.8,261.9c0.8,0.4,1.4,1.1,1.8,1.9c0.4,0.8,0.6,1.7,0.6,2.7c0,1.1-0.2,2-0.7,2.8s-1.1,1.5-2,1.9
			s-1.8,0.7-2.8,0.7c-2.1,0-3.7-0.7-4.8-2.1s-1.7-3.4-1.7-6c0-1.8,0.3-3.3,0.8-4.6c0.5-1.3,1.3-2.3,2.3-3c1-0.7,2.1-1,3.5-1
			c0.9,0,1.8,0.2,2.7,0.5s1.6,0.7,2.3,1.3c0.2,0.2,0.3,0.3,0.4,0.5c0.1,0.2,0.1,0.4,0.1,0.6c0,0.3-0.1,0.6-0.3,0.9s-0.4,0.4-0.7,0.4
			c-0.2,0-0.3,0-0.4-0.1s-0.3-0.1-0.5-0.3c-1.3-0.9-2.4-1.4-3.4-1.4c-1.1,0-2,0.5-2.7,1.6c-0.7,1-1,2.5-1,4.4
			c0.4-0.7,0.9-1.3,1.6-1.7s1.5-0.6,2.4-0.6C245.2,261.2,246.1,261.5,246.8,261.9z M245.6,268.8c0.5-0.6,0.8-1.3,0.8-2.2
			s-0.3-1.6-0.8-2.2c-0.5-0.5-1.2-0.8-2-0.8c-0.9,0-1.6,0.3-2.1,0.8c-0.5,0.6-0.8,1.3-0.8,2.2c0,0.9,0.3,1.6,0.8,2.2
			s1.2,0.8,2.1,0.8C244.5,269.6,245.1,269.3,245.6,268.8z"/>
		<path class="st5" d="M260.5,257.2c1.1,1.4,1.7,3.4,1.7,6c0,1.8-0.3,3.3-0.8,4.6s-1.3,2.3-2.3,3s-2.1,1-3.5,1
			c-0.9,0-1.8-0.2-2.7-0.5s-1.6-0.7-2.3-1.3c-0.2-0.2-0.3-0.3-0.4-0.5c-0.1-0.2-0.1-0.4-0.1-0.6c0-0.3,0.1-0.6,0.3-0.9
			c0.2-0.2,0.4-0.4,0.7-0.4c0.2,0,0.3,0,0.4,0.1s0.3,0.1,0.5,0.3c1.3,0.9,2.4,1.4,3.4,1.4c1.1,0,2-0.5,2.7-1.6c0.7-1,1-2.5,1-4.4
			c-0.4,0.7-0.9,1.3-1.6,1.7c-0.7,0.4-1.5,0.6-2.4,0.6c-1,0-1.8-0.2-2.6-0.7s-1.4-1.1-1.8-1.9s-0.6-1.7-0.6-2.7c0-1.1,0.2-2,0.7-2.8
			s1.1-1.5,2-1.9c0.8-0.5,1.8-0.7,2.8-0.7C257.7,255.1,259.3,255.8,260.5,257.2z M257.9,262.7c0.5-0.6,0.8-1.3,0.8-2.2
			c0-0.9-0.3-1.6-0.8-2.2s-1.2-0.8-2.1-0.8s-1.5,0.3-2,0.8c-0.5,0.6-0.8,1.3-0.8,2.2s0.3,1.6,0.8,2.2c0.5,0.5,1.2,0.8,2,0.8
			C256.7,263.5,257.4,263.2,257.9,262.7z"/>
	</g>
	<g>
		<path class="st5" d="M273.4,221.8c-0.2-0.2-0.2-0.4-0.2-0.8c0-0.9,0.2-1.6,0.5-2.2s0.8-1.2,1.4-1.9c0.5-0.6,0.8-1,1-1.4
			s0.3-0.8,0.3-1.3s-0.2-0.9-0.6-1.2s-0.9-0.5-1.5-0.5s-1.1,0.1-1.6,0.4c-0.5,0.2-1.1,0.6-1.8,1c-0.4,0.2-0.7,0.3-1,0.3
			s-0.5-0.1-0.7-0.4c-0.2-0.2-0.3-0.5-0.3-0.9c0-0.5,0.2-0.8,0.6-1.1c0.7-0.6,1.4-1,2.3-1.3s1.8-0.5,2.7-0.5c0.9,0,1.8,0.2,2.5,0.5
			s1.3,0.8,1.7,1.4c0.4,0.6,0.6,1.2,0.6,2s-0.2,1.5-0.6,2.1s-1,1.3-1.7,2c-0.6,0.7-1.1,1.2-1.4,1.6s-0.5,0.9-0.6,1.5
			c0,0.2-0.2,0.4-0.3,0.6c-0.2,0.1-0.4,0.2-0.6,0.2C273.8,222.1,273.6,222,273.4,221.8z M272.8,226.5c-0.3-0.3-0.5-0.7-0.5-1.2
			s0.2-0.9,0.5-1.2s0.7-0.5,1.2-0.5s0.9,0.2,1.2,0.5c0.3,0.3,0.5,0.7,0.5,1.2s-0.2,0.9-0.5,1.2s-0.7,0.5-1.2,0.5
			C273.6,227,273.2,226.8,272.8,226.5z"/>
	</g>
	<g>
		<path class="st8" d="M243.8,193.1h-38.5c-2.2,0-4.1-1.9-4.1-4.1v-33.6c0-2.2,1.9-4.1,4.1-4.1h38.5c2.2,0,4.1,1.9,4.1,4.1V189
			C247.9,191.4,246,193.1,243.8,193.1z"/>
		<g class="st4">
			<g>
				<circle cx="207.4" cy="154.4" r="1.6"/>
				<circle cx="218.9" cy="154.4" r="1.6"/>
				<circle cx="230.3" cy="154.4" r="1.6"/>
				<circle cx="241.8" cy="154.4" r="1.6"/>
			</g>
			<g>
				<circle cx="207.4" cy="190.2" r="1.6"/>
				<circle cx="218.9" cy="190.2" r="1.6"/>
				<circle cx="230.3" cy="190.2" r="1.6"/>
				<circle cx="241.8" cy="190.2" r="1.6"/>
			</g>
			<rect x="202.6" y="156.9" width="44.7" height="0.5"/>
			<rect x="202.6" y="187.3" width="44.7" height="0.5"/>
			<path d="M242,186.1h-34.5c-1.9,0-3.4-1.6-3.4-3.4v-20.3c0-1.9,1.6-3.4,3.4-3.4H242c1.9,0,3.4,1.6,3.4,3.4v20.3
				C245.5,184.5,244,186.1,242,186.1z"/>
		</g>
	</g>
	<g>
		<path class="st8" d="M293.4,193.1h-38.5c-2.2,0-4.1-1.9-4.1-4.1v-33.6c0-2.2,1.9-4.1,4.1-4.1h38.5c2.2,0,4.1,1.9,4.1,4.1V189
			C297.4,191.4,295.6,193.1,293.4,193.1z"/>
		<g class="st4">
			<g>
				<circle cx="256.9" cy="154.4" r="1.6"/>
				<circle cx="268.4" cy="154.4" r="1.6"/>
				<circle cx="279.8" cy="154.4" r="1.6"/>
				<circle cx="291.2" cy="154.4" r="1.6"/>
			</g>
			<g>
				<circle cx="256.9" cy="190.2" r="1.6"/>
				<circle cx="268.4" cy="190.2" r="1.6"/>
				<circle cx="279.8" cy="190.2" r="1.6"/>
				<circle cx="291.2" cy="190.2" r="1.6"/>
			</g>
			<rect x="252.1" y="156.9" width="44.7" height="0.5"/>
			<rect x="252.1" y="187.3" width="44.7" height="0.5"/>
			<path d="M291.6,186.1h-34.5c-1.9,0-3.4-1.6-3.4-3.4v-20.3c0-1.9,1.6-3.4,3.4-3.4h34.5c1.9,0,3.4,1.6,3.4,3.4v20.3
				C295,184.5,293.5,186.1,291.6,186.1z"/>
		</g>
	</g>
	<g>
		<path class="st5" d="M229.6,167.8c1.1,1.4,1.7,3.4,1.7,6c0,1.8-0.3,3.3-0.8,4.6s-1.3,2.3-2.3,3s-2.1,1-3.5,1
			c-0.9,0-1.8-0.2-2.7-0.5s-1.6-0.7-2.3-1.3c-0.2-0.2-0.3-0.3-0.4-0.5c-0.1-0.2-0.1-0.4-0.1-0.6c0-0.3,0.1-0.6,0.3-0.9
			c0.2-0.2,0.4-0.4,0.7-0.4c0.2,0,0.3,0,0.4,0.1s0.3,0.1,0.5,0.3c1.3,0.9,2.4,1.4,3.4,1.4c1.1,0,2-0.5,2.7-1.6c0.7-1,1-2.5,1-4.4
			c-0.4,0.7-0.9,1.3-1.6,1.7c-0.7,0.4-1.5,0.6-2.4,0.6c-1,0-1.8-0.2-2.6-0.7s-1.4-1.1-1.8-1.9s-0.6-1.7-0.6-2.7c0-1.1,0.2-2,0.7-2.8
			s1.1-1.5,2-1.9c0.8-0.5,1.8-0.7,2.8-0.7C226.9,165.7,228.5,166.4,229.6,167.8z M227,173.3c0.5-0.6,0.8-1.3,0.8-2.2
			s-0.3-1.6-0.8-2.2c-0.5-0.6-1.2-0.8-2.1-0.8c-0.9,0-1.5,0.3-2,0.8c-0.5,0.6-0.8,1.3-0.8,2.2s0.3,1.6,0.8,2.2
			c0.5,0.5,1.2,0.8,2,0.8C225.8,174.1,226.5,173.8,227,173.3z"/>
	</g>
	<g>
		<path class="st5" d="M278.5,172.5c0.8,0.4,1.4,1.1,1.8,1.9c0.4,0.8,0.6,1.7,0.6,2.7c0,1.1-0.2,2-0.7,2.8s-1.1,1.5-2,1.9
			s-1.8,0.7-2.8,0.7c-2.1,0-3.7-0.7-4.8-2.1c-1.1-1.4-1.7-3.4-1.7-6c0-1.8,0.3-3.3,0.8-4.6s1.3-2.3,2.3-3s2.1-1,3.5-1
			c0.9,0,1.8,0.2,2.7,0.5s1.6,0.7,2.3,1.3c0.2,0.2,0.3,0.3,0.4,0.5s0.1,0.4,0.1,0.6c0,0.3-0.1,0.6-0.3,0.9s-0.4,0.4-0.7,0.4
			c-0.2,0-0.3,0-0.4-0.1s-0.3-0.1-0.5-0.3c-1.3-0.9-2.4-1.4-3.4-1.4c-1.1,0-2,0.5-2.7,1.6c-0.7,1-1,2.5-1,4.4
			c0.4-0.7,0.9-1.3,1.6-1.7s1.5-0.6,2.4-0.6C276.9,171.8,277.8,172,278.5,172.5z M277.3,179.4c0.5-0.6,0.8-1.3,0.8-2.2
			s-0.3-1.6-0.8-2.2c-0.5-0.5-1.2-0.8-2-0.8c-0.9,0-1.6,0.3-2.1,0.8c-0.5,0.6-0.8,1.3-0.8,2.2s0.3,1.6,0.8,2.2
			c0.5,0.6,1.2,0.8,2.1,0.8C276.1,180.2,276.8,179.9,277.3,179.4z"/>
	</g>
</g>
<g>
	<g>
		<path class="st9" d="M85.1,63.1c-6.4,0-11.7-5.2-11.7-11.7c0-6.4,5.2-11.7,11.7-11.7s11.7,5.2,11.7,11.7
			C96.8,57.8,91.5,63.1,85.1,63.1z"/>
		<path class="st5" d="M85.1,40.2c6.2,0,11.2,5,11.2,11.2s-5,11.2-11.2,11.2s-11.2-5-11.2-11.2S78.9,40.2,85.1,40.2 M85.1,39.3
			c-6.7,0-12.1,5.4-12.1,12.1s5.4,12.1,12.1,12.1s12.1-5.4,12.1-12.1S91.8,39.3,85.1,39.3L85.1,39.3z"/>
	</g>
	<path class="st5" d="M88.4,49.9h-6.7c-0.7,0-1.3,0.6-1.3,1.3l0,0c0,0.7,0.6,1.3,1.3,1.3h6.7c0.7,0,1.3-0.6,1.3-1.3l0,0
		C89.7,50.5,89.1,49.9,88.4,49.9z"/>
	<path class="st5" d="M86.4,54.6v-6.7c0-0.7-0.6-1.3-1.3-1.3l0,0c-0.7,0-1.3,0.6-1.3,1.3v6.7c0,0.7,0.6,1.3,1.3,1.3l0,0
		C85.8,55.9,86.4,55.3,86.4,54.6z"/>
</g>
<g>
	<g>
		<path class="st9" d="M250.8,63.1c-6.4,0-11.7-5.2-11.7-11.7c0-6.4,5.2-11.7,11.7-11.7c6.5,0,11.7,5.2,11.7,11.7
			C262.5,57.8,257.2,63.1,250.8,63.1z"/>
		<path class="st5" d="M250.8,40.2c6.2,0,11.2,5,11.2,11.2s-5,11.2-11.2,11.2s-11.2-5-11.2-11.2S244.6,40.2,250.8,40.2 M250.8,39.3
			c-6.7,0-12.1,5.4-12.1,12.1s5.4,12.1,12.1,12.1c6.7,0,12.1-5.4,12.1-12.1S257.5,39.3,250.8,39.3L250.8,39.3z"/>
	</g>
	<path class="st5" d="M254.1,49.9h-6.7c-0.7,0-1.3,0.6-1.3,1.3l0,0c0,0.7,0.6,1.3,1.3,1.3h6.7c0.7,0,1.3-0.6,1.3-1.3l0,0
		C255.4,50.5,254.9,49.9,254.1,49.9z"/>
	<path class="st5" d="M252.1,54.6v-6.7c0-0.7-0.6-1.3-1.3-1.3l0,0c-0.7,0-1.3,0.6-1.3,1.3v6.7c0,0.7,0.6,1.3,1.3,1.3l0,0
		C251.5,55.9,252.1,55.3,252.1,54.6z"/>
</g>
<g>
	<g>
		<path class="st9" d="M85.1,209.6c-6.4,0-11.7-5.2-11.7-11.7c0-6.4,5.2-11.7,11.7-11.7s11.7,5.2,11.7,11.7
			C96.8,204.3,91.5,209.6,85.1,209.6z"/>
		<path class="st5" d="M85.1,186.7c6.2,0,11.2,5,11.2,11.2s-5,11.2-11.2,11.2s-11.2-5-11.2-11.2S78.9,186.7,85.1,186.7 M85.1,185.8
			c-6.7,0-12.1,5.4-12.1,12.1c0,6.7,5.4,12.1,12.1,12.1s12.1-5.4,12.1-12.1S91.8,185.8,85.1,185.8L85.1,185.8z"/>
	</g>
	<path class="st5" d="M88.4,196.5h-6.7c-0.7,0-1.3,0.6-1.3,1.3l0,0c0,0.7,0.6,1.3,1.3,1.3h6.7c0.7,0,1.3-0.6,1.3-1.3l0,0
		C89.7,197,89.1,196.5,88.4,196.5z"/>
	<path class="st5" d="M86.4,201.1v-6.7c0-0.7-0.6-1.3-1.3-1.3l0,0c-0.7,0-1.3,0.6-1.3,1.3v6.7c0,0.7,0.6,1.3,1.3,1.3l0,0
		C85.8,202.4,86.4,201.8,86.4,201.1z"/>
</g>
<g>
	<g>
		<path class="st9" d="M250.8,209.6c-6.4,0-11.7-5.2-11.7-11.7c0-6.4,5.2-11.7,11.7-11.7c6.5,0,11.7,5.2,11.7,11.7
			C262.5,204.3,257.2,209.6,250.8,209.6z"/>
		<path class="st5" d="M250.8,186.7c6.2,0,11.2,5,11.2,11.2s-5,11.2-11.2,11.2s-11.2-5-11.2-11.2S244.6,186.7,250.8,186.7
			 M250.8,185.8c-6.7,0-12.1,5.4-12.1,12.1c0,6.7,5.4,12.1,12.1,12.1c6.7,0,12.1-5.4,12.1-12.1S257.5,185.8,250.8,185.8L250.8,185.8
			z"/>
	</g>
	<path class="st5" d="M254.1,196.5h-6.7c-0.7,0-1.3,0.6-1.3,1.3l0,0c0,0.7,0.6,1.3,1.3,1.3h6.7c0.7,0,1.3-0.6,1.3-1.3l0,0
		C255.4,197,254.9,196.5,254.1,196.5z"/>
	<path class="st5" d="M252.1,201.1v-6.7c0-0.7-0.6-1.3-1.3-1.3l0,0c-0.7,0-1.3,0.6-1.3,1.3v6.7c0,0.7,0.6,1.3,1.3,1.3l0,0
		C251.5,202.4,252.1,201.8,252.1,201.1z"/>
</g>
</svg>
