<?xml version="1.0" encoding="utf-8"?>
<!-- Generator: Adobe Illustrator 22.1.0, SVG Export Plug-In . SVG Version: 6.00 Build 0)  -->
<svg version="1.1" id="Layer_1" xmlns="http://www.w3.org/2000/svg" xmlns:xlink="http://www.w3.org/1999/xlink" x="0px" y="0px"
	 viewBox="0 0 336.7 293.7" style="enable-background:new 0 0 336.7 293.7;" xml:space="preserve">
<style type="text/css">
	.st0{fill:#FADC3C;}
	.st1{opacity:0.2;}
	.st2{enable-background:new    ;}
	.st3{fill:#FFFFFF;}
	.st4{fill:#60025E;}
</style>
<g>
	<g>
		<path class="st0" d="M128.7,48.5H90.2c-2.2,0-4.1-1.9-4.1-4.1V10.8c0-2.2,1.9-4.1,4.1-4.1h38.5c2.2,0,4.1,1.9,4.1,4.1v33.6
			C132.7,46.8,130.9,48.5,128.7,48.5z"/>
		<g class="st1">
			<g>
				<circle cx="92.3" cy="9.8" r="1.6"/>
				<circle cx="103.7" cy="9.8" r="1.6"/>
				<circle cx="115.1" cy="9.8" r="1.6"/>
				<circle cx="126.6" cy="9.8" r="1.6"/>
			</g>
			<g>
				<circle cx="92.3" cy="45.6" r="1.6"/>
				<circle cx="103.7" cy="45.6" r="1.6"/>
				<circle cx="115.1" cy="45.6" r="1.6"/>
				<circle cx="126.6" cy="45.6" r="1.6"/>
			</g>
			<rect x="87.4" y="12.3" width="44.7" height="0.5"/>
			<rect x="87.4" y="42.7" width="44.7" height="0.5"/>
			<path d="M126.9,41.5H92.5c-1.9,0-3.4-1.6-3.4-3.4V17.7c0-1.9,1.6-3.4,3.4-3.4H127c1.9,0,3.4,1.6,3.4,3.4V38
				C130.4,39.9,128.8,41.5,126.9,41.5z"/>
		</g>
	</g>
	<g class="st2">
		<path class="st3" d="M108.3,36.5c0,0.8-0.5,1.2-1.4,1.2H99c-0.9,0-1.4-0.4-1.4-1.2s0.5-1.2,1.4-1.2h2.4V24.7l-2.2,1.4
			c-0.2,0.1-0.4,0.2-0.6,0.2c-0.3,0-0.6-0.1-0.8-0.4s-0.3-0.6-0.3-0.9c0-0.4,0.2-0.8,0.6-1l3.6-2.2c0.5-0.3,0.9-0.4,1.3-0.4
			s0.8,0.1,1,0.4c0.3,0.3,0.4,0.6,0.4,1.1v12.6h2.4C107.9,35.3,108.3,35.7,108.3,36.5z"/>
		<path class="st3" d="M110.8,35.8c-1-1.4-1.5-3.5-1.5-6.3c0-2.7,0.5-4.8,1.5-6.3c1-1.4,2.5-2.2,4.4-2.2s3.4,0.7,4.4,2.2
			c1,1.4,1.5,3.5,1.5,6.3c0,2.7-0.5,4.8-1.5,6.3s-2.5,2.2-4.4,2.2S111.8,37.2,110.8,35.8z M117.6,34.2c0.5-1,0.7-2.5,0.7-4.6
			s-0.2-3.7-0.7-4.6c-0.5-1-1.2-1.4-2.3-1.4c-1.1,0-1.8,0.5-2.3,1.4c-0.5,1-0.7,2.5-0.7,4.6s0.2,3.7,0.7,4.6c0.5,1,1.2,1.5,2.3,1.5
			C116.3,35.6,117.1,35.1,117.6,34.2z"/>
	</g>
</g>
<g>
	<g>
		<path class="st4" d="M85.1,63.1c-6.4,0-11.7-5.2-11.7-11.7c0-6.4,5.2-11.7,11.7-11.7s11.7,5.2,11.7,11.7
			C96.8,57.8,91.5,63.1,85.1,63.1z"/>
		<path class="st3" d="M85.1,40.2c6.2,0,11.2,5,11.2,11.2s-5,11.2-11.2,11.2s-11.2-5-11.2-11.2S78.9,40.2,85.1,40.2 M85.1,39.3
			c-6.7,0-12.1,5.4-12.1,12.1s5.4,12.1,12.1,12.1s12.1-5.4,12.1-12.1S91.8,39.3,85.1,39.3L85.1,39.3z"/>
	</g>
	<path class="st3" d="M88.4,49.9h-6.7c-0.7,0-1.3,0.6-1.3,1.3l0,0c0,0.7,0.6,1.3,1.3,1.3h6.7c0.7,0,1.3-0.6,1.3-1.3l0,0
		C89.7,50.5,89.1,49.9,88.4,49.9z"/>
	<path class="st3" d="M86.4,54.6v-6.7c0-0.7-0.6-1.3-1.3-1.3l0,0c-0.7,0-1.3,0.6-1.3,1.3v6.7c0,0.7,0.6,1.3,1.3,1.3l0,0
		C85.8,55.9,86.4,55.3,86.4,54.6z"/>
</g>
</svg>
