<?xml version="1.0" encoding="utf-8"?>
<!-- Generator: Adobe Illustrator 22.1.0, SVG Export Plug-In . SVG Version: 6.00 Build 0)  -->
<svg version="1.1" id="Layer_1" xmlns="http://www.w3.org/2000/svg" xmlns:xlink="http://www.w3.org/1999/xlink" x="0px" y="0px"
	 viewBox="0 0 336.7 293.7" style="enable-background:new 0 0 336.7 293.7;" xml:space="preserve">
<style type="text/css">
	.st0{fill:#A5D73C;}
	.st1{opacity:0.2;}
	.st2{enable-background:new    ;}
	.st3{fill:#FFFFFF;}
	.st4{fill:#60025E;}
</style>
<g>
	<g>
		<path class="st0" d="M243.8,48.5h-38.5c-2.2,0-4.1-1.9-4.1-4.1V10.8c0-2.2,1.9-4.1,4.1-4.1h38.5c2.2,0,4.1,1.9,4.1,4.1v33.6
			C247.9,46.8,246,48.5,243.8,48.5z"/>
		<g class="st1">
			<g>
				<circle cx="207.4" cy="9.8" r="1.6"/>
				<circle cx="218.9" cy="9.8" r="1.6"/>
				<circle cx="230.3" cy="9.8" r="1.6"/>
				<circle cx="241.8" cy="9.8" r="1.6"/>
			</g>
			<g>
				<circle cx="207.4" cy="45.6" r="1.6"/>
				<circle cx="218.9" cy="45.6" r="1.6"/>
				<circle cx="230.3" cy="45.6" r="1.6"/>
				<circle cx="241.8" cy="45.6" r="1.6"/>
			</g>
			<rect x="202.6" y="12.3" width="44.7" height="0.5"/>
			<rect x="202.6" y="42.7" width="44.7" height="0.5"/>
			<path d="M242,41.5h-34.5c-1.9,0-3.4-1.6-3.4-3.4V17.7c0-1.9,1.6-3.4,3.4-3.4H242c1.9,0,3.4,1.6,3.4,3.4V38
				C245.5,39.9,244,41.5,242,41.5z"/>
		</g>
	</g>
	<g class="st2">
		<path class="st3" d="M223.6,31.5c0.2,0.2,0.3,0.5,0.3,0.9c0,0.8-0.5,1.2-1.4,1.2h-1.2v1.8c0,0.5-0.1,0.9-0.4,1.1s-0.6,0.4-1.1,0.4
			s-0.8-0.1-1.1-0.4s-0.4-0.6-0.4-1.1v-1.8h-6.1c-0.4,0-0.7-0.1-1-0.4c-0.2-0.2-0.3-0.5-0.3-0.9c0-0.4,0.1-0.7,0.4-1.1l7.2-10.3
			c0.2-0.2,0.3-0.4,0.6-0.5c0.2-0.1,0.5-0.2,0.7-0.2c0.4,0,0.8,0.1,1,0.4s0.4,0.6,0.4,1.1v9.5h1.2C223,31.2,223.4,31.3,223.6,31.5z
			 M214.1,31.2h4.3v-6.3L214.1,31.2z"/>
		<path class="st3" d="M233.9,26.9c0.8,0.4,1.4,1.1,1.8,1.9c0.4,0.8,0.7,1.7,0.7,2.7c0,1.1-0.2,2-0.7,2.8s-1.2,1.5-2.1,1.9
			c-0.9,0.5-1.9,0.7-3.1,0.7c-1,0-1.9-0.2-2.8-0.5s-1.7-0.7-2.4-1.3c-0.4-0.3-0.5-0.7-0.5-1.1c0-0.3,0.1-0.6,0.3-0.9
			c0.2-0.2,0.4-0.4,0.7-0.4c0.2,0,0.3,0,0.4,0.1s0.3,0.1,0.5,0.3c0.6,0.4,1.2,0.8,1.8,1s1.2,0.3,1.9,0.3c1,0,1.8-0.3,2.4-0.8
			c0.5-0.5,0.8-1.2,0.8-2.2c0-0.9-0.3-1.6-0.8-2.2c-0.6-0.5-1.3-0.8-2.3-0.8c-0.6,0-1.1,0.1-1.6,0.3s-1,0.5-1.5,0.9
			c-0.3,0.2-0.6,0.3-0.9,0.3s-0.6-0.1-0.8-0.3c-0.2-0.2-0.3-0.4-0.3-0.7v-7.3c0-0.4,0.1-0.8,0.4-1s0.6-0.4,1-0.4h7.8
			c0.9,0,1.4,0.4,1.4,1.2s-0.5,1.2-1.4,1.2h-6.2V27c0.8-0.6,1.8-0.8,2.9-0.8C232.2,26.3,233.1,26.5,233.9,26.9z"/>
	</g>
</g>
<g>
	<g>
		<path class="st4" d="M250.8,63.1c-6.4,0-11.7-5.2-11.7-11.7c0-6.4,5.2-11.7,11.7-11.7c6.5,0,11.7,5.2,11.7,11.7
			C262.5,57.8,257.2,63.1,250.8,63.1z"/>
		<path class="st3" d="M250.8,40.2c6.2,0,11.2,5,11.2,11.2s-5,11.2-11.2,11.2s-11.2-5-11.2-11.2S244.6,40.2,250.8,40.2 M250.8,39.3
			c-6.7,0-12.1,5.4-12.1,12.1s5.4,12.1,12.1,12.1c6.7,0,12.1-5.4,12.1-12.1S257.5,39.3,250.8,39.3L250.8,39.3z"/>
	</g>
	<path class="st3" d="M254.1,49.9h-6.7c-0.7,0-1.3,0.6-1.3,1.3l0,0c0,0.7,0.6,1.3,1.3,1.3h6.7c0.7,0,1.3-0.6,1.3-1.3l0,0
		C255.4,50.5,254.9,49.9,254.1,49.9z"/>
	<path class="st3" d="M252.1,54.6v-6.7c0-0.7-0.6-1.3-1.3-1.3l0,0c-0.7,0-1.3,0.6-1.3,1.3v6.7c0,0.7,0.6,1.3,1.3,1.3l0,0
		C251.5,55.9,252.1,55.3,252.1,54.6z"/>
</g>
</svg>
