<?xml version="1.0" encoding="utf-8"?>
<!-- Generator: Adobe Illustrator 22.1.0, SVG Export Plug-In . SVG Version: 6.00 Build 0)  -->
<svg version="1.1" id="Layer_1" xmlns="http://www.w3.org/2000/svg" xmlns:xlink="http://www.w3.org/1999/xlink" x="0px" y="0px"
	 viewBox="0 0 336.7 293.7" style="enable-background:new 0 0 336.7 293.7;" xml:space="preserve">
<style type="text/css">
	.st0{fill:#647CA0;}
	.st1{fill:#00CDC8;}
	.st2{opacity:0.2;}
	.st3{enable-background:new    ;}
	.st4{fill:#FFFFFF;}
	.st5{fill:#60025E;}
</style>
<g>
	<g>
		<rect x="56.8" y="201.3" class="st0" width="4.7" height="17.8"/>
	</g>
	<g>
		<path class="st1" d="M79.2,238.6H40.7c-2.2,0-4.1-1.9-4.1-4.1v-34.6c0-2.2,1.9-4.1,4.1-4.1h38.5c2.2,0,4.1,1.9,4.1,4.1v34.6
			C83.3,236.8,81.4,238.6,79.2,238.6z"/>
		<g class="st2">
			<g>
				<circle cx="42.7" cy="198.9" r="1.6"/>
				<circle cx="54.2" cy="198.9" r="1.6"/>
				<circle cx="65.7" cy="198.9" r="1.6"/>
				<circle cx="77.1" cy="198.9" r="1.6"/>
			</g>
			<g>
				<circle cx="42.7" cy="235.7" r="1.6"/>
				<circle cx="54.2" cy="235.7" r="1.6"/>
				<circle cx="65.7" cy="235.7" r="1.6"/>
				<circle cx="77.1" cy="235.7" r="1.6"/>
			</g>
			<rect x="37.9" y="201.4" width="44.7" height="0.5"/>
			<rect x="37.9" y="232.7" width="44.7" height="0.5"/>
			<path d="M77.4,231.5H42.9c-1.9,0-3.4-1.6-3.4-3.4v-21.3c0-1.9,1.6-3.4,3.4-3.4h34.5c1.9,0,3.4,1.6,3.4,3.4v21.3
				C80.8,229.9,79.3,231.5,77.4,231.5z"/>
		</g>
	</g>
	<g class="st3">
		<path class="st4" d="M59.7,224.6c0,0.8-0.5,1.2-1.4,1.2h-7.9c-0.9,0-1.4-0.4-1.4-1.2s0.5-1.2,1.4-1.2h2.4v-10.6l-2.2,1.4
			c-0.2,0.1-0.4,0.2-0.6,0.2c-0.3,0-0.6-0.1-0.8-0.4s-0.3-0.6-0.3-0.9c0-0.4,0.2-0.8,0.6-1l3.6-2.2c0.5-0.3,0.9-0.4,1.3-0.4
			c0.4,0,0.8,0.1,1,0.4c0.3,0.3,0.4,0.6,0.4,1.1v12.6h2.4C59.3,223.4,59.7,223.8,59.7,224.6z"/>
		<path class="st4" d="M72.7,224.6c0,0.8-0.5,1.2-1.4,1.2h-7.9c-0.9,0-1.4-0.4-1.4-1.2s0.5-1.2,1.4-1.2h2.4v-10.6l-2.2,1.4
			c-0.2,0.1-0.4,0.2-0.6,0.2c-0.3,0-0.6-0.1-0.8-0.4s-0.3-0.6-0.3-0.9c0-0.4,0.2-0.8,0.6-1l3.6-2.2c0.5-0.3,0.9-0.4,1.3-0.4
			s0.8,0.1,1,0.4c0.3,0.3,0.4,0.6,0.4,1.1v12.6h2.4C72.3,223.4,72.7,223.8,72.7,224.6z"/>
	</g>
</g>
<g>
	<g>
		<path class="st5" d="M85.1,209.6c-6.4,0-11.7-5.2-11.7-11.7c0-6.4,5.2-11.7,11.7-11.7s11.7,5.2,11.7,11.7
			C96.8,204.3,91.5,209.6,85.1,209.6z"/>
		<path class="st4" d="M85.1,186.7c6.2,0,11.2,5,11.2,11.2s-5,11.2-11.2,11.2s-11.2-5-11.2-11.2S78.9,186.7,85.1,186.7 M85.1,185.8
			c-6.7,0-12.1,5.4-12.1,12.1c0,6.7,5.4,12.1,12.1,12.1s12.1-5.4,12.1-12.1S91.8,185.8,85.1,185.8L85.1,185.8z"/>
	</g>
	<path class="st4" d="M88.4,196.5h-6.7c-0.7,0-1.3,0.6-1.3,1.3l0,0c0,0.7,0.6,1.3,1.3,1.3h6.7c0.7,0,1.3-0.6,1.3-1.3l0,0
		C89.7,197,89.1,196.5,88.4,196.5z"/>
	<path class="st4" d="M86.4,201.1v-6.7c0-0.7-0.6-1.3-1.3-1.3l0,0c-0.7,0-1.3,0.6-1.3,1.3v6.7c0,0.7,0.6,1.3,1.3,1.3l0,0
		C85.8,202.4,86.4,201.8,86.4,201.1z"/>
</g>
</svg>
