<?xml version="1.0" encoding="utf-8"?>
<!-- Generator: Adobe Illustrator 22.1.0, SVG Export Plug-In . SVG Version: 6.00 Build 0)  -->
<svg version="1.1" id="Layer_1" xmlns="http://www.w3.org/2000/svg" xmlns:xlink="http://www.w3.org/1999/xlink" x="0px" y="0px"
	 viewBox="0 0 336.7 293.7" style="enable-background:new 0 0 336.7 293.7;" xml:space="preserve">
<style type="text/css">
	.st0{fill:#647CA0;}
	.st1{fill:#F24044;}
	.st2{opacity:0.2;}
	.st3{enable-background:new    ;}
	.st4{fill:#FFFFFF;}
	.st5{fill:#60025E;}
</style>
<g>
	<g>
		<g>
			<rect x="271.9" y="201.3" class="st0" width="4.7" height="17.8"/>
		</g>
	</g>
	<g>
		<path class="st1" d="M293.4,238.6h-38.5c-2.2,0-4.1-1.9-4.1-4.1v-34.6c0-2.2,1.9-4.1,4.1-4.1h38.5c2.2,0,4.1,1.9,4.1,4.1v34.6
			C297.4,236.8,295.6,238.6,293.4,238.6z"/>
		<g class="st2">
			<g>
				<circle cx="256.9" cy="198.9" r="1.6"/>
				<circle cx="268.4" cy="198.9" r="1.6"/>
				<circle cx="279.8" cy="198.9" r="1.6"/>
				<circle cx="291.2" cy="198.9" r="1.6"/>
			</g>
			<g>
				<circle cx="256.9" cy="235.7" r="1.6"/>
				<circle cx="268.4" cy="235.7" r="1.6"/>
				<circle cx="279.8" cy="235.7" r="1.6"/>
				<circle cx="291.2" cy="235.7" r="1.6"/>
			</g>
			<rect x="252.1" y="201.4" width="44.7" height="0.5"/>
			<rect x="252.1" y="232.7" width="44.7" height="0.5"/>
			<path d="M291.6,231.5h-34.5c-1.9,0-3.4-1.6-3.4-3.4v-21.3c0-1.9,1.6-3.4,3.4-3.4h34.5c1.9,0,3.4,1.6,3.4,3.4v21.3
				C295,229.9,293.5,231.5,291.6,231.5z"/>
		</g>
	</g>
	<g class="st3">
		<path class="st4" d="M274.2,220.6c0.2,0.2,0.3,0.5,0.3,0.9c0,0.8-0.5,1.2-1.4,1.2H272v1.8c0,0.5-0.1,0.9-0.4,1.1s-0.6,0.4-1.1,0.4
			s-0.8-0.1-1.1-0.4s-0.4-0.6-0.4-1.1v-1.8h-6.1c-0.4,0-0.7-0.1-1-0.4c-0.2-0.2-0.3-0.5-0.3-0.9s0.1-0.7,0.4-1.1l7.2-10.3
			c0.2-0.2,0.3-0.4,0.6-0.5c0.2-0.1,0.5-0.2,0.7-0.2c0.4,0,0.8,0.1,1,0.4s0.4,0.6,0.4,1.1v9.5h1.2
			C273.6,220.3,274,220.4,274.2,220.6z M264.7,220.3h4.3V214L264.7,220.3z"/>
		<path class="st4" d="M287.2,220.6c0.2,0.2,0.3,0.5,0.3,0.9c0,0.8-0.5,1.2-1.4,1.2H285v1.8c0,0.5-0.1,0.9-0.4,1.1
			c-0.3,0.3-0.6,0.4-1.1,0.4s-0.8-0.1-1.1-0.4s-0.4-0.6-0.4-1.1v-1.8h-6.1c-0.4,0-0.7-0.1-1-0.4c-0.2-0.2-0.3-0.5-0.3-0.9
			s0.1-0.7,0.4-1.1l7.2-10.3c0.2-0.2,0.3-0.4,0.6-0.5c0.2-0.1,0.5-0.2,0.7-0.2c0.4,0,0.8,0.1,1,0.4s0.4,0.6,0.4,1.1v9.5h1.2
			C286.6,220.3,287,220.4,287.2,220.6z M277.7,220.3h4.3V214L277.7,220.3z"/>
	</g>
</g>
<g>
	<g>
		<path class="st5" d="M250.8,209.6c-6.4,0-11.7-5.2-11.7-11.7c0-6.4,5.2-11.7,11.7-11.7c6.5,0,11.7,5.2,11.7,11.7
			C262.5,204.3,257.2,209.6,250.8,209.6z"/>
		<path class="st4" d="M250.8,186.7c6.2,0,11.2,5,11.2,11.2s-5,11.2-11.2,11.2s-11.2-5-11.2-11.2S244.6,186.7,250.8,186.7
			 M250.8,185.8c-6.7,0-12.1,5.4-12.1,12.1c0,6.7,5.4,12.1,12.1,12.1c6.7,0,12.1-5.4,12.1-12.1S257.5,185.8,250.8,185.8L250.8,185.8
			z"/>
	</g>
	<path class="st4" d="M254.1,196.5h-6.7c-0.7,0-1.3,0.6-1.3,1.3l0,0c0,0.7,0.6,1.3,1.3,1.3h6.7c0.7,0,1.3-0.6,1.3-1.3l0,0
		C255.4,197,254.9,196.5,254.1,196.5z"/>
	<path class="st4" d="M252.1,201.1v-6.7c0-0.7-0.6-1.3-1.3-1.3l0,0c-0.7,0-1.3,0.6-1.3,1.3v6.7c0,0.7,0.6,1.3,1.3,1.3l0,0
		C251.5,202.4,252.1,201.8,252.1,201.1z"/>
</g>
</svg>
