<?xml version="1.0" encoding="utf-8"?>
<!-- Generator: Adobe Illustrator 22.1.0, SVG Export Plug-In . SVG Version: 6.00 Build 0)  -->
<svg version="1.1" id="Layer_1" xmlns="http://www.w3.org/2000/svg" xmlns:xlink="http://www.w3.org/1999/xlink" x="0px" y="0px"
	 viewBox="0 0 336.7 293.7" style="enable-background:new 0 0 336.7 293.7;" xml:space="preserve">
<style type="text/css">
	.st0{fill:none;stroke:#647CA0;stroke-width:5.2793;stroke-linecap:round;stroke-linejoin:round;stroke-miterlimit:10;}
	.st1{fill:#00CDC8;}
	.st2{opacity:0.2;}
	.st3{fill:#FFFFFF;}
	.st4{fill:#F24044;}
	.st5{fill:#FADC3C;}
	.st6{fill:#A5D73C;}
	.st7{fill:#60025E;}
	.st8{fill:none;stroke:#394961;stroke-width:7.0392;stroke-linecap:square;stroke-miterlimit:10;stroke-dasharray:0.8799,13.1984;}
	.st9{fill:#647CA0;}
</style>
<g>
	<g>
		<g>
			<g>
				<g>
					<path class="st0" d="M71.5,244.1v-46"/>
				</g>
			</g>
		</g>
	</g>
	<g>
		<path class="st1" d="M90.9,220.4H52.4c-2.2,0-4.1-1.9-4.1-4.1v-34.6c0-2.2,1.9-4.1,4.1-4.1h38.5c2.2,0,4.1,1.9,4.1,4.1v34.6
			C94.9,218.6,93.1,220.4,90.9,220.4z"/>
		<g class="st2">
			<g>
				<circle cx="54.5" cy="180.7" r="1.6"/>
				<circle cx="65.9" cy="180.7" r="1.6"/>
				<circle cx="77.3" cy="180.7" r="1.6"/>
				<circle cx="88.7" cy="180.7" r="1.6"/>
			</g>
			<g>
				<circle cx="54.5" cy="217.5" r="1.6"/>
				<circle cx="65.9" cy="217.5" r="1.6"/>
				<circle cx="77.3" cy="217.5" r="1.6"/>
				<circle cx="88.7" cy="217.5" r="1.6"/>
			</g>
			<rect x="49.6" y="183.2" width="44.7" height="0.5"/>
			<rect x="49.6" y="214.5" width="44.7" height="0.5"/>
			<path d="M89.1,213.3H54.7c-1.9,0-3.4-1.6-3.4-3.4v-21.3c0-1.9,1.6-3.4,3.4-3.4h34.5c1.9,0,3.4,1.6,3.4,3.4v21.3
				C92.6,211.7,91,213.3,89.1,213.3z"/>
		</g>
	</g>
	<g>
		<path class="st3" d="M71.3,202.4c0.2,0.2,0.3,0.5,0.3,0.9c0,0.8-0.5,1.2-1.4,1.2H69v1.8c0,0.5-0.1,0.9-0.4,1.1
			c-0.3,0.3-0.6,0.4-1.1,0.4s-0.8-0.1-1.1-0.4s-0.4-0.6-0.4-1.1v-1.8H60c-0.4,0-0.7-0.1-1-0.4c-0.2-0.2-0.3-0.5-0.3-0.9
			c0-0.4,0.1-0.7,0.4-1.1l7.2-10.3c0.2-0.2,0.3-0.4,0.6-0.5s0.5-0.2,0.7-0.2c0.4,0,0.8,0.1,1,0.4s0.4,0.6,0.4,1.1v9.5h1.2
			C70.7,202.1,71,202.2,71.3,202.4z M61.8,202.1h4.3v-6.3L61.8,202.1z"/>
		<path class="st3" d="M73.5,205.7c-1-1.4-1.5-3.5-1.5-6.3c0-2.7,0.5-4.8,1.5-6.3c1-1.4,2.5-2.2,4.4-2.2s3.4,0.7,4.4,2.2
			c1,1.4,1.5,3.5,1.5,6.3c0,2.7-0.5,4.8-1.5,6.3s-2.5,2.2-4.4,2.2S74.5,207.1,73.5,205.7z M80.3,204c0.5-1,0.7-2.5,0.7-4.6
			c0-2.1-0.2-3.7-0.7-4.6c-0.5-1-1.2-1.4-2.3-1.4c-1.1,0-1.8,0.5-2.3,1.4c-0.5,1-0.7,2.5-0.7,4.6c0,2.1,0.2,3.7,0.7,4.6
			c0.5,1,1.2,1.5,2.3,1.5C79,205.5,79.8,205,80.3,204z"/>
	</g>
</g>
<g>
	<g>
		<g>
			<g>
				<g>
					<path class="st0" d="M266.2,244.1v-46"/>
				</g>
			</g>
		</g>
	</g>
	<g>
		<path class="st4" d="M285.6,220.4h-38.5c-2.2,0-4.1-1.9-4.1-4.1v-34.6c0-2.2,1.9-4.1,4.1-4.1h38.5c2.2,0,4.1,1.9,4.1,4.1v34.6
			C289.6,218.6,287.8,220.4,285.6,220.4z"/>
		<g class="st2">
			<g>
				<circle cx="249.2" cy="180.7" r="1.6"/>
				<circle cx="260.6" cy="180.7" r="1.6"/>
				<circle cx="272" cy="180.7" r="1.6"/>
				<circle cx="283.4" cy="180.7" r="1.6"/>
			</g>
			<g>
				<circle cx="249.2" cy="217.5" r="1.6"/>
				<circle cx="260.6" cy="217.5" r="1.6"/>
				<circle cx="272" cy="217.5" r="1.6"/>
				<circle cx="283.4" cy="217.5" r="1.6"/>
			</g>
			<rect x="244.3" y="183.2" width="44.7" height="0.5"/>
			<rect x="244.3" y="214.5" width="44.7" height="0.5"/>
			<path d="M283.8,213.3h-34.5c-1.9,0-3.4-1.6-3.4-3.4v-21.3c0-1.9,1.6-3.4,3.4-3.4h34.5c1.9,0,3.4,1.6,3.4,3.4v21.3
				C287.2,211.7,285.7,213.3,283.8,213.3z"/>
		</g>
	</g>
	<g>
		<path class="st3" d="M265.7,206.4c0,0.8-0.5,1.2-1.4,1.2h-7.9c-0.9,0-1.4-0.4-1.4-1.2c0-0.8,0.5-1.2,1.4-1.2h2.4v-10.6l-2.2,1.4
			c-0.2,0.1-0.4,0.2-0.6,0.2c-0.3,0-0.6-0.1-0.8-0.4c-0.2-0.3-0.3-0.6-0.3-0.9c0-0.4,0.2-0.8,0.6-1l3.6-2.2c0.5-0.3,0.9-0.4,1.3-0.4
			c0.4,0,0.8,0.1,1,0.4c0.3,0.3,0.4,0.6,0.4,1.1v12.6h2.4C265.3,205.2,265.7,205.6,265.7,206.4z"/>
		<path class="st3" d="M276.2,197.8c0.8,0.4,1.4,1.1,1.8,1.9c0.4,0.8,0.7,1.7,0.7,2.7c0,1.1-0.2,2-0.7,2.8c-0.5,0.8-1.2,1.5-2.1,1.9
			c-0.9,0.5-1.9,0.7-3.1,0.7c-1,0-1.9-0.2-2.8-0.5c-0.9-0.3-1.7-0.7-2.4-1.3c-0.4-0.3-0.5-0.7-0.5-1.1c0-0.3,0.1-0.6,0.3-0.9
			c0.2-0.2,0.4-0.4,0.7-0.4c0.2,0,0.3,0,0.4,0.1s0.3,0.1,0.5,0.3c0.6,0.4,1.2,0.8,1.8,1c0.6,0.2,1.2,0.3,1.9,0.3
			c1,0,1.8-0.3,2.4-0.8c0.5-0.5,0.8-1.2,0.8-2.2c0-0.9-0.3-1.6-0.8-2.2c-0.6-0.5-1.3-0.8-2.3-0.8c-0.6,0-1.1,0.1-1.6,0.3
			s-1,0.5-1.5,0.9c-0.3,0.2-0.6,0.3-0.9,0.3s-0.6-0.1-0.8-0.3c-0.2-0.2-0.3-0.4-0.3-0.7v-7.3c0-0.4,0.1-0.8,0.4-1
			c0.2-0.2,0.6-0.4,1-0.4h7.8c0.9,0,1.4,0.4,1.4,1.2s-0.5,1.2-1.4,1.2h-6.2v4.4c0.8-0.6,1.8-0.8,2.9-0.8
			C274.5,197.1,275.4,197.3,276.2,197.8z"/>
	</g>
</g>
<g>
	<g>
		<g>
			<g>
				<g>
					<path class="st0" d="M71.5,47.1v47"/>
				</g>
			</g>
		</g>
	</g>
	<g>
		<path class="st5" d="M90.9,116.4H52.4c-2.2,0-4.1-1.9-4.1-4.1V77.7c0-2.2,1.9-4.1,4.1-4.1h38.5c2.2,0,4.1,1.9,4.1,4.1v34.6
			C94.9,114.6,93.1,116.4,90.9,116.4z"/>
		<g class="st2">
			<g>
				<circle cx="54.5" cy="76.7" r="1.6"/>
				<circle cx="65.9" cy="76.7" r="1.6"/>
				<circle cx="77.3" cy="76.7" r="1.6"/>
				<circle cx="88.7" cy="76.7" r="1.6"/>
			</g>
			<g>
				<circle cx="54.5" cy="113.5" r="1.6"/>
				<circle cx="65.9" cy="113.5" r="1.6"/>
				<circle cx="77.3" cy="113.5" r="1.6"/>
				<circle cx="88.7" cy="113.5" r="1.6"/>
			</g>
			<rect x="49.6" y="79.2" width="44.7" height="0.5"/>
			<rect x="49.6" y="110.5" width="44.7" height="0.5"/>
			<path d="M89.1,109.3H54.7c-1.9,0-3.4-1.6-3.4-3.4V84.6c0-1.9,1.6-3.4,3.4-3.4h34.5c1.9,0,3.4,1.6,3.4,3.4v21.3
				C92.6,107.7,91,109.3,89.1,109.3z"/>
		</g>
	</g>
	<g>
		<path class="st3" d="M69.7,96.6c0.5,0.7,0.8,1.5,0.8,2.6c0,1.4-0.5,2.5-1.6,3.4c-1,0.8-2.4,1.3-4.2,1.3c-1,0-2-0.2-2.9-0.5
			c-0.9-0.3-1.7-0.7-2.4-1.3c-0.4-0.3-0.5-0.7-0.5-1.1c0-0.3,0.1-0.6,0.3-0.9c0.2-0.2,0.4-0.4,0.7-0.4c0.2,0,0.3,0,0.4,0.1
			c0.1,0.1,0.3,0.1,0.5,0.3c0.7,0.4,1.3,0.8,1.9,1c0.6,0.2,1.2,0.3,1.9,0.3c1,0,1.8-0.2,2.3-0.6c0.5-0.4,0.7-1,0.7-1.9
			c0-0.8-0.3-1.4-0.8-1.8s-1.3-0.6-2.4-0.6h-1.3c-0.4,0-0.6-0.1-0.8-0.4c-0.2-0.2-0.3-0.5-0.3-0.8c0-0.3,0.1-0.6,0.3-0.8
			c0.2-0.2,0.5-0.3,0.8-0.3h0.9c2.1,0,3.2-0.8,3.2-2.4c0-0.7-0.2-1.3-0.7-1.7s-1.1-0.6-1.9-0.6c-1.1,0-2.3,0.5-3.6,1.4
			c-0.2,0.1-0.4,0.2-0.5,0.3c-0.1,0.1-0.3,0.1-0.4,0.1c-0.3,0-0.5-0.1-0.7-0.4c-0.2-0.2-0.3-0.5-0.3-0.9c0-0.2,0-0.4,0.1-0.6
			s0.2-0.3,0.4-0.5c0.7-0.5,1.4-1,2.3-1.3c0.9-0.3,1.8-0.5,2.8-0.5c1.6,0,2.9,0.4,3.9,1.2s1.4,1.8,1.4,3.2c0,0.9-0.3,1.7-0.7,2.4
			c-0.5,0.7-1.1,1.2-1.9,1.5C68.5,95.4,69.2,95.9,69.7,96.6z"/>
		<path class="st3" d="M73.5,101.7c-1-1.4-1.5-3.5-1.5-6.3c0-2.7,0.5-4.8,1.5-6.3c1-1.4,2.5-2.2,4.4-2.2s3.4,0.7,4.4,2.2
			c1,1.4,1.5,3.5,1.5,6.3c0,2.7-0.5,4.8-1.5,6.3s-2.5,2.2-4.4,2.2S74.5,103.1,73.5,101.7z M80.3,100c0.5-1,0.7-2.5,0.7-4.6
			c0-2.1-0.2-3.7-0.7-4.6c-0.5-1-1.2-1.4-2.3-1.4c-1.1,0-1.8,0.5-2.3,1.4c-0.5,1-0.7,2.5-0.7,4.6c0,2.1,0.2,3.7,0.7,4.6
			c0.5,1,1.2,1.5,2.3,1.5C79,101.5,79.8,101,80.3,100z"/>
	</g>
</g>
<g>
	<g>
		<g>
			<g>
				<g>
					<path class="st0" d="M266.2,47.1v47"/>
				</g>
			</g>
		</g>
	</g>
	<g>
		<path class="st6" d="M285.6,116.4h-38.5c-2.2,0-4.1-1.9-4.1-4.1V77.7c0-2.2,1.9-4.1,4.1-4.1h38.5c2.2,0,4.1,1.9,4.1,4.1v34.6
			C289.6,114.6,287.8,116.4,285.6,116.4z"/>
		<g class="st2">
			<g>
				<circle cx="249.2" cy="76.7" r="1.6"/>
				<circle cx="260.6" cy="76.7" r="1.6"/>
				<circle cx="272" cy="76.7" r="1.6"/>
				<circle cx="283.4" cy="76.7" r="1.6"/>
			</g>
			<g>
				<circle cx="249.2" cy="113.5" r="1.6"/>
				<circle cx="260.6" cy="113.5" r="1.6"/>
				<circle cx="272" cy="113.5" r="1.6"/>
				<circle cx="283.4" cy="113.5" r="1.6"/>
			</g>
			<rect x="244.3" y="79.2" width="44.7" height="0.5"/>
			<rect x="244.3" y="110.5" width="44.7" height="0.5"/>
			<path d="M283.8,109.3h-34.5c-1.9,0-3.4-1.6-3.4-3.4V84.6c0-1.9,1.6-3.4,3.4-3.4h34.5c1.9,0,3.4,1.6,3.4,3.4v21.3
				C287.2,107.7,285.7,109.3,283.8,109.3z"/>
		</g>
	</g>
	<g>
		<path class="st3" d="M264.4,96.6c0.5,0.7,0.8,1.5,0.8,2.6c0,1.4-0.5,2.5-1.6,3.4c-1,0.8-2.4,1.3-4.2,1.3c-1,0-2-0.2-2.9-0.5
			c-0.9-0.3-1.7-0.7-2.4-1.3c-0.4-0.3-0.5-0.7-0.5-1.1c0-0.3,0.1-0.6,0.3-0.9c0.2-0.2,0.4-0.4,0.7-0.4c0.2,0,0.3,0,0.4,0.1
			c0.1,0.1,0.3,0.1,0.5,0.3c0.7,0.4,1.3,0.8,1.9,1c0.6,0.2,1.2,0.3,1.9,0.3c1,0,1.8-0.2,2.3-0.6s0.7-1,0.7-1.9
			c0-0.8-0.3-1.4-0.8-1.8c-0.5-0.4-1.3-0.6-2.4-0.6h-1.3c-0.4,0-0.6-0.1-0.8-0.4c-0.2-0.2-0.3-0.5-0.3-0.8c0-0.3,0.1-0.6,0.3-0.8
			c0.2-0.2,0.5-0.3,0.8-0.3h0.9c2.1,0,3.2-0.8,3.2-2.4c0-0.7-0.2-1.3-0.7-1.7s-1.1-0.6-1.9-0.6c-1.1,0-2.3,0.5-3.6,1.4
			c-0.2,0.1-0.4,0.2-0.5,0.3c-0.1,0.1-0.3,0.1-0.4,0.1c-0.3,0-0.5-0.1-0.7-0.4s-0.3-0.5-0.3-0.9c0-0.2,0-0.4,0.1-0.6
			c0.1-0.2,0.2-0.3,0.4-0.5c0.7-0.5,1.4-1,2.3-1.3s1.8-0.5,2.8-0.5c1.6,0,2.9,0.4,3.9,1.2c1,0.8,1.4,1.8,1.4,3.2
			c0,0.9-0.3,1.7-0.7,2.4c-0.5,0.7-1.1,1.2-1.9,1.5C263.2,95.4,263.9,95.9,264.4,96.6z"/>
		<path class="st3" d="M268.2,101.7c-1-1.4-1.5-3.5-1.5-6.3c0-2.7,0.5-4.8,1.5-6.3c1-1.4,2.5-2.2,4.4-2.2s3.4,0.7,4.4,2.2
			c1,1.4,1.5,3.5,1.5,6.3c0,2.7-0.5,4.8-1.5,6.3s-2.5,2.2-4.4,2.2S269.2,103.1,268.2,101.7z M274.9,100c0.5-1,0.7-2.5,0.7-4.6
			c0-2.1-0.2-3.7-0.7-4.6c-0.5-1-1.2-1.4-2.3-1.4c-1.1,0-1.8,0.5-2.3,1.4c-0.5,1-0.7,2.5-0.7,4.6c0,2.1,0.2,3.7,0.7,4.6
			c0.5,1,1.2,1.5,2.3,1.5C273.7,101.5,274.5,101,274.9,100z"/>
	</g>
</g>
<g>
	<g>
		<path class="st7" d="M192.8,173.7h-48.9c-3.4,0-6.1-2.7-6.1-6.1v-41.5c0-3.4,2.7-6.1,6.1-6.1h48.9c3.4,0,6.1,2.7,6.1,6.1v41.5
			C198.9,171,196.2,173.7,192.8,173.7z"/>
		<g class="st2">
			<g>
				<circle cx="145.8" cy="123.9" r="2.1"/>
				<circle cx="160.9" cy="123.9" r="2.1"/>
				<circle cx="175.9" cy="123.9" r="2.1"/>
				<circle cx="191" cy="123.9" r="2.1"/>
			</g>
			<g>
				<circle cx="145.8" cy="169.9" r="2.1"/>
				<circle cx="160.9" cy="169.9" r="2.1"/>
				<circle cx="175.9" cy="169.9" r="2.1"/>
				<circle cx="191" cy="169.9" r="2.1"/>
			</g>
			<rect x="139.5" y="127.1" width="58.7" height="0.6"/>
			<rect x="139.5" y="166" width="58.7" height="0.6"/>
			<path d="M191.3,164.3h-45.3c-2.4,0-4.5-2.1-4.5-4.5v-25.6c0-2.4,2.1-4.5,4.5-4.5h45.3c2.4,0,4.5,2.1,4.5,4.5v25.6
				C195.9,162.3,193.8,164.3,191.3,164.3z"/>
		</g>
	</g>
	<g>
		<path class="st3" d="M159,156.3c0,1.1-0.6,1.6-1.8,1.6h-10.3c-1.2,0-1.9-0.5-1.9-1.6c0-1,0.6-1.6,1.9-1.6h3.2v-13.9l-2.9,1.8
			c-0.3,0.2-0.5,0.2-0.8,0.2c-0.4,0-0.8-0.2-1.1-0.6c-0.3-0.4-0.4-0.8-0.4-1.2c0-0.6,0.3-1,0.8-1.4l4.7-2.9c0.6-0.4,1.2-0.6,1.7-0.6
			c0.6,0,1,0.2,1.4,0.5c0.3,0.3,0.5,0.8,0.5,1.4v16.6h3.2C158.4,154.7,159,155.3,159,156.3z"/>
		<path class="st3" d="M162.2,155.4c-1.3-1.9-2-4.6-2-8.2c0-3.6,0.7-6.3,2-8.2c1.3-1.9,3.3-2.8,5.8-2.8c2.5,0,4.5,0.9,5.8,2.8
			c1.3,1.9,2,4.6,2,8.2s-0.7,6.3-2,8.2c-1.3,1.9-3.3,2.8-5.8,2.8C165.5,158.2,163.6,157.3,162.2,155.4z M171.1,153.2
			c0.6-1.3,0.9-3.3,0.9-6.1c0-2.8-0.3-4.8-0.9-6.1c-0.6-1.3-1.6-1.9-3-1.9c-1.4,0-2.4,0.6-3,1.9c-0.6,1.3-0.9,3.3-0.9,6.1
			s0.3,4.8,0.9,6.1s1.6,1.9,3,1.9C169.5,155.1,170.5,154.5,171.1,153.2z"/>
		<path class="st3" d="M179.3,155.4c-1.3-1.9-2-4.6-2-8.2c0-3.6,0.7-6.3,2-8.2s3.3-2.8,5.8-2.8c2.5,0,4.5,0.9,5.8,2.8
			c1.3,1.9,2,4.6,2,8.2s-0.7,6.3-2,8.2c-1.3,1.9-3.3,2.8-5.8,2.8C182.6,158.2,180.6,157.3,179.3,155.4z M188.1,153.2
			c0.6-1.3,0.9-3.3,0.9-6.1c0-2.8-0.3-4.8-0.9-6.1c-0.6-1.3-1.6-1.9-3-1.9c-1.4,0-2.4,0.6-3,1.9c-0.6,1.3-0.9,3.3-0.9,6.1
			s0.3,4.8,0.9,6.1s1.6,1.9,3,1.9C186.5,155.1,187.5,154.5,188.1,153.2z"/>
	</g>
</g>
<g>
	<g>
		<g>
			<g>
				<g>
					<path class="st0" d="M154,178.2V237c0,4.5-3.6,8.2-8.2,8.2h-9.5"/>
					<path class="st8" d="M154,178.2V237c0,4.5-3.6,8.2-8.2,8.2h-9.5"/>
				</g>
			</g>
		</g>
		<rect x="131.6" y="234.5" class="st9" width="4.7" height="20.3"/>
	</g>
	<g>
		<g>
			<g>
				<g>
					<path class="st0" d="M97.7,245.6H48.3"/>
				</g>
			</g>
		</g>
	</g>
	<g>
		<path class="st1" d="M128.7,268.6H90.2c-2.2,0-4.1-1.9-4.1-4.1v-34.6c0-2.2,1.9-4.1,4.1-4.1h38.5c2.2,0,4.1,1.9,4.1,4.1v34.6
			C132.7,266.8,130.9,268.6,128.7,268.6z"/>
		<g class="st2">
			<g>
				<circle cx="92.3" cy="228.9" r="1.6"/>
				<circle cx="103.7" cy="228.9" r="1.6"/>
				<circle cx="115.1" cy="228.9" r="1.6"/>
				<circle cx="126.6" cy="228.9" r="1.6"/>
			</g>
			<g>
				<circle cx="92.3" cy="265.7" r="1.6"/>
				<circle cx="103.7" cy="265.7" r="1.6"/>
				<circle cx="115.1" cy="265.7" r="1.6"/>
				<circle cx="126.6" cy="265.7" r="1.6"/>
			</g>
			<rect x="87.4" y="231.4" width="44.7" height="0.5"/>
			<rect x="87.4" y="262.7" width="44.7" height="0.5"/>
			<path d="M126.9,261.5H92.5c-1.9,0-3.4-1.6-3.4-3.4v-21.3c0-1.9,1.6-3.4,3.4-3.4h34.5c1.9,0,3.4,1.6,3.4,3.4v21.3
				C130.4,259.9,128.8,261.5,126.9,261.5z"/>
		</g>
	</g>
	<g>
		<path class="st3" d="M107.6,248.8c0.5,0.7,0.8,1.5,0.8,2.6c0,1.4-0.5,2.5-1.6,3.4c-1,0.8-2.4,1.3-4.2,1.3c-1,0-2-0.2-2.9-0.5
			c-0.9-0.3-1.7-0.7-2.4-1.3c-0.4-0.3-0.5-0.7-0.5-1.1c0-0.3,0.1-0.6,0.3-0.9c0.2-0.2,0.4-0.4,0.7-0.4c0.2,0,0.3,0,0.4,0.1
			c0.1,0.1,0.3,0.1,0.5,0.3c0.7,0.4,1.3,0.8,1.9,1c0.6,0.2,1.2,0.3,1.9,0.3c1,0,1.8-0.2,2.3-0.6c0.5-0.4,0.7-1,0.7-1.9
			c0-0.8-0.3-1.4-0.8-1.8s-1.3-0.6-2.4-0.6H101c-0.4,0-0.6-0.1-0.8-0.4c-0.2-0.2-0.3-0.5-0.3-0.8c0-0.3,0.1-0.6,0.3-0.8
			c0.2-0.2,0.5-0.3,0.8-0.3h0.9c2.1,0,3.2-0.8,3.2-2.4c0-0.7-0.2-1.3-0.7-1.7s-1.1-0.6-1.9-0.6c-1.1,0-2.3,0.5-3.6,1.4
			c-0.2,0.1-0.4,0.2-0.5,0.3c-0.1,0.1-0.3,0.1-0.4,0.1c-0.3,0-0.5-0.1-0.7-0.4c-0.2-0.2-0.3-0.5-0.3-0.9c0-0.2,0-0.4,0.1-0.6
			s0.2-0.3,0.4-0.5c0.7-0.5,1.4-1,2.3-1.3c0.9-0.3,1.8-0.5,2.8-0.5c1.6,0,2.9,0.4,3.9,1.2s1.4,1.8,1.4,3.2c0,0.9-0.3,1.7-0.7,2.4
			c-0.5,0.7-1.1,1.2-1.9,1.5C106.3,247.7,107,248.1,107.6,248.8z"/>
		<path class="st3" d="M111.3,253.9c-1-1.4-1.5-3.5-1.5-6.3c0-2.7,0.5-4.8,1.5-6.3c1-1.4,2.5-2.2,4.4-2.2s3.4,0.7,4.4,2.2
			c1,1.4,1.5,3.5,1.5,6.3c0,2.7-0.5,4.8-1.5,6.3s-2.5,2.2-4.4,2.2S112.3,255.3,111.3,253.9z M118.1,252.2c0.5-1,0.7-2.5,0.7-4.6
			c0-2.1-0.2-3.7-0.7-4.6c-0.5-1-1.2-1.4-2.3-1.4c-1.1,0-1.8,0.5-2.3,1.4c-0.5,1-0.7,2.5-0.7,4.6c0,2.1,0.2,3.7,0.7,4.6
			c0.5,1,1.2,1.5,2.3,1.5C116.8,253.7,117.6,253.2,118.1,252.2z"/>
	</g>
	<rect x="148.6" y="173.7" class="st9" width="10.7" height="4.7"/>
	<g>
		<rect x="28.8" y="231.3" class="st9" width="4.7" height="17.8"/>
	</g>
	<g>
		<path class="st9" d="M51.2,268.6H12.7c-2.2,0-4.1-1.9-4.1-4.1v-34.6c0-2.2,1.9-4.1,4.1-4.1h38.5c2.2,0,4.1,1.9,4.1,4.1v34.6
			C55.3,266.8,53.4,268.6,51.2,268.6z"/>
		<g class="st2">
			<g>
				<circle cx="14.7" cy="228.9" r="1.6"/>
				<circle cx="26.2" cy="228.9" r="1.6"/>
				<circle cx="37.7" cy="228.9" r="1.6"/>
				<circle cx="49.1" cy="228.9" r="1.6"/>
			</g>
			<g>
				<circle cx="14.7" cy="265.7" r="1.6"/>
				<circle cx="26.2" cy="265.7" r="1.6"/>
				<circle cx="37.7" cy="265.7" r="1.6"/>
				<circle cx="49.1" cy="265.7" r="1.6"/>
			</g>
			<rect x="9.9" y="231.4" width="44.7" height="0.5"/>
			<rect x="9.9" y="262.7" width="44.7" height="0.5"/>
			<path d="M49.4,261.5H14.9c-1.9,0-3.4-1.6-3.4-3.4v-21.3c0-1.9,1.6-3.4,3.4-3.4h34.5c1.9,0,3.4,1.6,3.4,3.4v21.3
				C52.8,259.9,51.3,261.5,49.4,261.5z"/>
		</g>
	</g>
	<g>
		<g>
			<path class="st7" d="M71.4,256.9c-6.4,0-11.7-5.2-11.7-11.7c0-6.4,5.2-11.7,11.7-11.7s11.7,5.2,11.7,11.7
				C83.1,251.6,77.8,256.9,71.4,256.9z"/>
			<path class="st3" d="M71.4,234c6.2,0,11.2,5,11.2,11.2s-5,11.2-11.2,11.2s-11.2-5-11.2-11.2S65.2,234,71.4,234 M71.4,233.1
				c-6.7,0-12.1,5.4-12.1,12.1s5.4,12.1,12.1,12.1s12.1-5.4,12.1-12.1S78.1,233.1,71.4,233.1L71.4,233.1z"/>
		</g>
		<path class="st3" d="M74.7,243.7H68c-0.7,0-1.3,0.6-1.3,1.3l0,0c0,0.7,0.6,1.3,1.3,1.3h6.7c0.7,0,1.3-0.6,1.3-1.3l0,0
			C76,244.3,75.4,243.7,74.7,243.7z"/>
		<path class="st3" d="M72.7,248.3v-6.7c0-0.7-0.6-1.3-1.3-1.3l0,0c-0.7,0-1.3,0.6-1.3,1.3v6.7c0,0.7,0.6,1.3,1.3,1.3l0,0
			C72.1,249.6,72.7,249.1,72.7,248.3z"/>
	</g>
</g>
<g>
	<g>
		<g>
			<g>
				<g>
					<path class="st0" d="M183.4,178.2V237c0,4.5,3.6,8.2,8.2,8.2h9.5"/>
					<path class="st8" d="M183.4,178.2V237c0,4.5,3.6,8.2,8.2,8.2h9.5"/>
				</g>
			</g>
		</g>
		<rect x="201.1" y="234.5" class="st9" width="4.7" height="20.3"/>
	</g>
	<g>
		<g>
			<g>
				<g>
					<path class="st0" d="M239.7,245.6h49.5"/>
				</g>
			</g>
		</g>
	</g>
	<g>
		<path class="st4" d="M208.7,268.6h38.5c2.2,0,4.1-1.9,4.1-4.1v-34.6c0-2.2-1.9-4.1-4.1-4.1h-38.5c-2.2,0-4.1,1.9-4.1,4.1v34.6
			C204.7,266.8,206.5,268.6,208.7,268.6z"/>
		<g class="st2">
			<g>
				<circle cx="245.1" cy="228.9" r="1.6"/>
				<circle cx="233.6" cy="228.9" r="1.6"/>
				<circle cx="222.3" cy="228.9" r="1.6"/>
				<circle cx="210.8" cy="228.9" r="1.6"/>
			</g>
			<g>
				<circle cx="245.1" cy="265.7" r="1.6"/>
				<circle cx="233.6" cy="265.7" r="1.6"/>
				<circle cx="222.3" cy="265.7" r="1.6"/>
				<circle cx="210.8" cy="265.7" r="1.6"/>
			</g>
			<rect x="205.2" y="231.4" width="44.7" height="0.5"/>
			<rect x="205.2" y="262.7" width="44.7" height="0.5"/>
			<path d="M210.5,261.5h34.5c1.9,0,3.4-1.6,3.4-3.4v-21.3c0-1.9-1.6-3.4-3.4-3.4h-34.5c-1.9,0-3.4,1.6-3.4,3.4v21.3
				C207,259.9,208.6,261.5,210.5,261.5z"/>
		</g>
	</g>
	<rect x="178" y="173.7" class="st9" width="10.7" height="4.7"/>
	<g>
		<rect x="303.9" y="231.3" class="st9" width="4.7" height="17.8"/>
	</g>
	<g>
		<path class="st9" d="M286.2,268.6h38.5c2.2,0,4.1-1.9,4.1-4.1v-34.6c0-2.2-1.9-4.1-4.1-4.1h-38.5c-2.2,0-4.1,1.9-4.1,4.1v34.6
			C282.1,266.8,284,268.6,286.2,268.6z"/>
		<g class="st2">
			<g>
				<circle cx="322.7" cy="228.9" r="1.6"/>
				<circle cx="311.2" cy="228.9" r="1.6"/>
				<circle cx="299.7" cy="228.9" r="1.6"/>
				<circle cx="288.3" cy="228.9" r="1.6"/>
			</g>
			<g>
				<circle cx="322.7" cy="265.7" r="1.6"/>
				<circle cx="311.2" cy="265.7" r="1.6"/>
				<circle cx="299.7" cy="265.7" r="1.6"/>
				<circle cx="288.3" cy="265.7" r="1.6"/>
			</g>
			<rect x="282.8" y="231.4" width="44.7" height="0.5"/>
			<rect x="282.8" y="262.7" width="44.7" height="0.5"/>
			<path d="M288,261.5h34.5c1.9,0,3.4-1.6,3.4-3.4v-21.3c0-1.9-1.6-3.4-3.4-3.4H288c-1.9,0-3.4,1.6-3.4,3.4v21.3
				C284.6,259.9,286,261.5,288,261.5z"/>
		</g>
	</g>
	<g>
		<g>
			<path class="st7" d="M266,256.9c6.4,0,11.7-5.2,11.7-11.7c0-6.4-5.2-11.7-11.7-11.7s-11.7,5.2-11.7,11.7
				C254.3,251.6,259.6,256.9,266,256.9z"/>
			<path class="st3" d="M266,234c6.2,0,11.2,5,11.2,11.2s-5,11.2-11.2,11.2c-6.2,0-11.2-5-11.2-11.2S259.8,234,266,234 M266,233.1
				c-6.7,0-12.1,5.4-12.1,12.1s5.4,12.1,12.1,12.1c6.7,0,12.1-5.4,12.1-12.1S272.7,233.1,266,233.1L266,233.1z"/>
		</g>
		<path class="st3" d="M262.7,243.7h6.7c0.7,0,1.3,0.6,1.3,1.3l0,0c0,0.7-0.6,1.3-1.3,1.3h-6.7c-0.7,0-1.3-0.6-1.3-1.3l0,0
			C261.4,244.3,262,243.7,262.7,243.7z"/>
		<path class="st3" d="M264.7,248.3v-6.7c0-0.7,0.6-1.3,1.3-1.3l0,0c0.7,0,1.3,0.6,1.3,1.3v6.7c0,0.7-0.6,1.3-1.3,1.3l0,0
			C265.3,249.6,264.7,249.1,264.7,248.3z"/>
	</g>
</g>
<g>
	<path class="st3" d="M303.7,250.8c-0.2-0.2-0.2-0.4-0.2-0.8c0-0.9,0.2-1.6,0.5-2.2s0.8-1.2,1.4-1.9c0.5-0.6,0.8-1,1-1.4
		c0.2-0.4,0.3-0.8,0.3-1.3c0-0.5-0.2-0.9-0.6-1.2c-0.4-0.3-0.9-0.5-1.5-0.5c-0.6,0-1.1,0.1-1.6,0.4c-0.5,0.2-1.1,0.6-1.8,1
		c-0.4,0.2-0.7,0.3-1,0.3c-0.3,0-0.5-0.1-0.7-0.4c-0.2-0.2-0.3-0.5-0.3-0.9c0-0.5,0.2-0.8,0.6-1.1c0.7-0.6,1.4-1,2.3-1.3
		s1.8-0.5,2.7-0.5c0.9,0,1.8,0.2,2.5,0.5c0.7,0.3,1.3,0.8,1.7,1.4c0.4,0.6,0.6,1.2,0.6,2c0,0.8-0.2,1.5-0.6,2.1
		c-0.4,0.6-1,1.3-1.7,2c-0.6,0.7-1.1,1.2-1.4,1.6c-0.3,0.4-0.5,0.9-0.6,1.5c0,0.2-0.2,0.4-0.3,0.6c-0.2,0.1-0.4,0.2-0.6,0.2
		C304.1,251.1,303.8,251,303.7,250.8z M303.1,255.5c-0.3-0.3-0.5-0.7-0.5-1.2s0.2-0.9,0.5-1.2c0.3-0.3,0.7-0.5,1.2-0.5
		c0.5,0,0.9,0.2,1.2,0.5c0.3,0.3,0.5,0.7,0.5,1.2s-0.2,0.9-0.5,1.2c-0.3,0.3-0.7,0.5-1.2,0.5C303.9,256,303.5,255.8,303.1,255.5z"/>
</g>
<g>
	<path class="st3" d="M226.9,251.6c0.2,0.2,0.3,0.5,0.3,0.9c0,0.8-0.5,1.2-1.4,1.2h-1.2v1.8c0,0.5-0.1,0.9-0.4,1.1s-0.6,0.4-1.1,0.4
		c-0.4,0-0.8-0.1-1.1-0.4s-0.4-0.6-0.4-1.1v-1.8h-6.1c-0.4,0-0.7-0.1-1-0.4c-0.2-0.2-0.3-0.5-0.3-0.9c0-0.4,0.1-0.7,0.4-1.1
		l7.2-10.3c0.2-0.2,0.3-0.4,0.6-0.5c0.2-0.1,0.5-0.2,0.7-0.2c0.4,0,0.8,0.1,1,0.4s0.4,0.6,0.4,1.1v9.5h1.2
		C226.3,251.3,226.7,251.4,226.9,251.6z M217.4,251.3h4.3V245L217.4,251.3z"/>
	<path class="st3" d="M237.2,247c0.8,0.4,1.4,1.1,1.8,1.9c0.4,0.8,0.7,1.7,0.7,2.7c0,1.1-0.2,2-0.7,2.8c-0.5,0.8-1.2,1.5-2.1,1.9
		c-0.9,0.5-1.9,0.7-3.1,0.7c-1,0-1.9-0.2-2.8-0.5c-0.9-0.3-1.7-0.7-2.4-1.3c-0.4-0.3-0.5-0.7-0.5-1.1c0-0.3,0.1-0.6,0.3-0.9
		c0.2-0.2,0.4-0.4,0.7-0.4c0.2,0,0.3,0,0.4,0.1c0.1,0.1,0.3,0.1,0.5,0.3c0.6,0.4,1.2,0.8,1.8,1c0.6,0.2,1.2,0.3,1.9,0.3
		c1,0,1.8-0.3,2.4-0.8c0.5-0.5,0.8-1.2,0.8-2.2c0-0.9-0.3-1.6-0.8-2.2c-0.6-0.5-1.3-0.8-2.3-0.8c-0.6,0-1.1,0.1-1.6,0.3
		c-0.5,0.2-1,0.5-1.5,0.9c-0.3,0.2-0.6,0.3-0.9,0.3s-0.6-0.1-0.8-0.3c-0.2-0.2-0.3-0.4-0.3-0.7v-7.3c0-0.4,0.1-0.8,0.4-1
		s0.6-0.4,1-0.4h7.8c0.9,0,1.4,0.4,1.4,1.2s-0.5,1.2-1.4,1.2h-6.2v4.4c0.8-0.6,1.8-0.8,2.9-0.8C235.5,246.3,236.4,246.6,237.2,247z"
		/>
</g>
<g>
	<g>
		<g>
			<g>
				<g>
					<path class="st0" d="M154,115.1V56.3c0-4.5-3.6-8.2-8.2-8.2h-9.5"/>
					<path class="st8" d="M154,115.1V56.3c0-4.5-3.6-8.2-8.2-8.2h-9.5"/>
				</g>
			</g>
		</g>
		<rect x="131.6" y="38.5" class="st9" width="4.7" height="20.3"/>
	</g>
	<g>
		<g>
			<g>
				<g>
					<path class="st0" d="M97.7,47.7H48.3"/>
				</g>
			</g>
		</g>
	</g>
	<g>
		<path class="st5" d="M128.7,24.7H90.2c-2.2,0-4.1,1.9-4.1,4.1v34.6c0,2.2,1.9,4.1,4.1,4.1h38.5c2.2,0,4.1-1.9,4.1-4.1V28.8
			C132.7,26.5,130.9,24.7,128.7,24.7z"/>
		<g class="st2">
			<g>
				<circle cx="92.3" cy="64.4" r="1.6"/>
				<circle cx="103.7" cy="64.4" r="1.6"/>
				<circle cx="115.1" cy="64.4" r="1.6"/>
				<circle cx="126.6" cy="64.4" r="1.6"/>
			</g>
			<g>
				<circle cx="92.3" cy="27.6" r="1.6"/>
				<circle cx="103.7" cy="27.6" r="1.6"/>
				<circle cx="115.1" cy="27.6" r="1.6"/>
				<circle cx="126.6" cy="27.6" r="1.6"/>
			</g>
			<rect x="87.4" y="61.4" width="44.7" height="0.5"/>
			<rect x="87.4" y="30.1" width="44.7" height="0.5"/>
			<path d="M126.9,31.8H92.5c-1.9,0-3.4,1.6-3.4,3.4v21.3c0,1.9,1.6,3.4,3.4,3.4h34.5c1.9,0,3.4-1.6,3.4-3.4V35.2
				C130.4,33.4,128.8,31.8,126.9,31.8z"/>
		</g>
	</g>
	<g>
		<path class="st3" d="M108.6,46.4c0.5,0.7,0.8,1.5,0.8,2.6c0,1.4-0.5,2.5-1.6,3.4c-1,0.8-2.4,1.3-4.2,1.3c-1,0-2-0.2-2.9-0.5
			c-0.9-0.3-1.7-0.7-2.4-1.3c-0.4-0.3-0.5-0.7-0.5-1.1c0-0.3,0.1-0.6,0.3-0.9c0.2-0.2,0.4-0.4,0.7-0.4c0.2,0,0.3,0,0.4,0.1
			c0.1,0.1,0.3,0.1,0.5,0.3c0.7,0.4,1.3,0.8,1.9,1c0.6,0.2,1.2,0.3,1.9,0.3c1,0,1.8-0.2,2.3-0.6c0.5-0.4,0.7-1,0.7-1.9
			c0-0.8-0.3-1.4-0.8-1.8s-1.3-0.6-2.4-0.6H102c-0.4,0-0.6-0.1-0.8-0.4c-0.2-0.2-0.3-0.5-0.3-0.8c0-0.3,0.1-0.6,0.3-0.8
			c0.2-0.2,0.5-0.3,0.8-0.3h0.9c2.1,0,3.2-0.8,3.2-2.4c0-0.7-0.2-1.3-0.7-1.7s-1.1-0.6-1.9-0.6c-1.1,0-2.3,0.5-3.6,1.4
			c-0.2,0.1-0.4,0.2-0.5,0.3c-0.1,0.1-0.3,0.1-0.4,0.1c-0.3,0-0.5-0.1-0.7-0.4C98.1,40.3,98,40,98,39.7c0-0.2,0-0.4,0.1-0.6
			s0.2-0.3,0.4-0.5c0.7-0.5,1.4-1,2.3-1.3c0.9-0.3,1.8-0.5,2.8-0.5c1.6,0,2.9,0.4,3.9,1.2s1.4,1.8,1.4,3.2c0,0.9-0.3,1.7-0.7,2.4
			c-0.5,0.7-1.1,1.2-1.9,1.5C107.3,45.3,108,45.7,108.6,46.4z"/>
		<path class="st3" d="M120.3,43.6c0.8,0.4,1.4,1.1,1.8,1.9c0.4,0.8,0.7,1.7,0.7,2.7c0,1.1-0.2,2-0.7,2.8c-0.5,0.8-1.2,1.5-2.1,1.9
			c-0.9,0.5-1.9,0.7-3.1,0.7c-1,0-1.9-0.2-2.8-0.5c-0.9-0.3-1.7-0.7-2.4-1.3c-0.4-0.3-0.5-0.7-0.5-1.1c0-0.3,0.1-0.6,0.3-0.9
			c0.2-0.2,0.4-0.4,0.7-0.4c0.2,0,0.3,0,0.4,0.1s0.3,0.1,0.5,0.3c0.6,0.4,1.2,0.8,1.8,1c0.6,0.2,1.2,0.3,1.9,0.3
			c1,0,1.8-0.3,2.4-0.8c0.5-0.5,0.8-1.2,0.8-2.2c0-0.9-0.3-1.6-0.8-2.2c-0.6-0.5-1.3-0.8-2.3-0.8c-0.6,0-1.1,0.1-1.6,0.3
			s-1,0.5-1.5,0.9c-0.3,0.2-0.6,0.3-0.9,0.3s-0.6-0.1-0.8-0.3c-0.2-0.2-0.3-0.4-0.3-0.7v-7.3c0-0.4,0.1-0.8,0.4-1
			c0.2-0.2,0.6-0.4,1-0.4h7.8c0.9,0,1.4,0.4,1.4,1.2s-0.5,1.2-1.4,1.2h-6.2v4.4c0.8-0.6,1.8-0.8,2.9-0.8
			C118.7,43,119.6,43.2,120.3,43.6z"/>
	</g>
	<rect x="148.6" y="114.9" class="st9" width="10.7" height="4.7"/>
	<g>
		<rect x="28.8" y="44.2" class="st9" width="4.7" height="17.8"/>
	</g>
	<g>
		<path class="st9" d="M51.2,24.7H12.7c-2.2,0-4.1,1.9-4.1,4.1v34.6c0,2.2,1.9,4.1,4.1,4.1h38.5c2.2,0,4.1-1.9,4.1-4.1V28.8
			C55.3,26.5,53.4,24.7,51.2,24.7z"/>
		<g class="st2">
			<g>
				<circle cx="14.7" cy="64.4" r="1.6"/>
				<circle cx="26.2" cy="64.4" r="1.6"/>
				<circle cx="37.7" cy="64.4" r="1.6"/>
				<circle cx="49.1" cy="64.4" r="1.6"/>
			</g>
			<g>
				<circle cx="14.7" cy="27.6" r="1.6"/>
				<circle cx="26.2" cy="27.6" r="1.6"/>
				<circle cx="37.7" cy="27.6" r="1.6"/>
				<circle cx="49.1" cy="27.6" r="1.6"/>
			</g>
			<rect x="9.9" y="61.4" width="44.7" height="0.5"/>
			<rect x="9.9" y="30.1" width="44.7" height="0.5"/>
			<path d="M49.4,31.8H14.9c-1.9,0-3.4,1.6-3.4,3.4v21.3c0,1.9,1.6,3.4,3.4,3.4h34.5c1.9,0,3.4-1.6,3.4-3.4V35.2
				C52.8,33.4,51.3,31.8,49.4,31.8z"/>
		</g>
	</g>
	<g>
		<path class="st3" d="M30.7,49.4c-0.2-0.2-0.2-0.4-0.2-0.8c0-0.9,0.2-1.6,0.5-2.2s0.8-1.2,1.4-1.9c0.5-0.6,0.8-1,1-1.4
			c0.2-0.4,0.3-0.8,0.3-1.3c0-0.5-0.2-0.9-0.6-1.2s-0.9-0.5-1.5-0.5c-0.6,0-1.1,0.1-1.6,0.4c-0.5,0.2-1.1,0.6-1.8,1
			c-0.4,0.2-0.7,0.3-1,0.3c-0.3,0-0.5-0.1-0.7-0.4c-0.2-0.2-0.3-0.5-0.3-0.9c0-0.5,0.2-0.8,0.6-1.1c0.7-0.6,1.4-1,2.3-1.3
			s1.8-0.5,2.7-0.5c0.9,0,1.8,0.2,2.5,0.5c0.7,0.3,1.3,0.8,1.7,1.4c0.4,0.6,0.6,1.2,0.6,2c0,0.8-0.2,1.5-0.6,2.1
			c-0.4,0.6-1,1.3-1.7,2c-0.6,0.7-1.1,1.2-1.4,1.6c-0.3,0.4-0.5,0.9-0.6,1.5c0,0.2-0.2,0.4-0.3,0.6c-0.2,0.1-0.4,0.2-0.6,0.2
			C31.1,49.7,30.8,49.6,30.7,49.4z M30.1,54.1c-0.3-0.3-0.5-0.7-0.5-1.2s0.2-0.9,0.5-1.2c0.3-0.3,0.7-0.5,1.2-0.5
			c0.5,0,0.9,0.2,1.2,0.5c0.3,0.3,0.5,0.7,0.5,1.2s-0.2,0.9-0.5,1.2c-0.3,0.3-0.7,0.5-1.2,0.5C30.9,54.6,30.5,54.4,30.1,54.1z"/>
	</g>
	<g>
		<g>
			<path class="st7" d="M71.4,36.4c-6.4,0-11.7,5.2-11.7,11.7c0,6.4,5.2,11.7,11.7,11.7s11.7-5.2,11.7-11.7
				C83.1,41.7,77.8,36.4,71.4,36.4z"/>
			<path class="st3" d="M71.4,59.3c-6.2,0-11.2-5-11.2-11.2s5-11.2,11.2-11.2s11.2,5,11.2,11.2S77.6,59.3,71.4,59.3 M71.4,60.2
				c6.7,0,12.1-5.4,12.1-12.1S78.1,36,71.4,36s-12.1,5.4-12.1,12.1S64.7,60.2,71.4,60.2L71.4,60.2z"/>
		</g>
		<path class="st3" d="M74.7,49.6H68c-0.7,0-1.3-0.6-1.3-1.3l0,0c0-0.7,0.6-1.3,1.3-1.3h6.7c0.7,0,1.3,0.6,1.3,1.3l0,0
			C76,49,75.4,49.6,74.7,49.6z"/>
		<path class="st3" d="M72.7,45v6.7c0,0.7-0.6,1.3-1.3,1.3l0,0c-0.7,0-1.3-0.6-1.3-1.3V45c0-0.7,0.6-1.3,1.3-1.3l0,0
			C72.1,43.7,72.7,44.2,72.7,45z"/>
	</g>
</g>
<g>
	<g>
		<g>
			<g>
				<g>
					<path class="st0" d="M183.4,115.1V56.3c0-4.5,3.6-8.2,8.2-8.2h9.5"/>
					<path class="st8" d="M183.4,115.1V56.3c0-4.5,3.6-8.2,8.2-8.2h9.5"/>
				</g>
			</g>
		</g>
		<rect x="201.1" y="38.5" class="st9" width="4.7" height="20.3"/>
	</g>
	<g>
		<g>
			<g>
				<g>
					<path class="st0" d="M239.7,47.7h49.5"/>
				</g>
			</g>
		</g>
	</g>
	<g>
		<path class="st6" d="M208.7,24.7h38.5c2.2,0,4.1,1.9,4.1,4.1v34.6c0,2.2-1.9,4.1-4.1,4.1h-38.5c-2.2,0-4.1-1.9-4.1-4.1V28.8
			C204.7,26.5,206.5,24.7,208.7,24.7z"/>
		<g class="st2">
			<g>
				<circle cx="245.1" cy="64.4" r="1.6"/>
				<circle cx="233.6" cy="64.4" r="1.6"/>
				<circle cx="222.3" cy="64.4" r="1.6"/>
				<circle cx="210.8" cy="64.4" r="1.6"/>
			</g>
			<g>
				<circle cx="245.1" cy="27.6" r="1.6"/>
				<circle cx="233.6" cy="27.6" r="1.6"/>
				<circle cx="222.3" cy="27.6" r="1.6"/>
				<circle cx="210.8" cy="27.6" r="1.6"/>
			</g>
			<rect x="205.2" y="61.4" width="44.7" height="0.5"/>
			<rect x="205.2" y="30.1" width="44.7" height="0.5"/>
			<path d="M210.5,31.8h34.5c1.9,0,3.4,1.6,3.4,3.4v21.3c0,1.9-1.6,3.4-3.4,3.4h-34.5c-1.9,0-3.4-1.6-3.4-3.4V35.2
				C207,33.4,208.6,31.8,210.5,31.8z"/>
		</g>
	</g>
	<rect x="178" y="114.9" class="st9" width="10.7" height="4.7"/>
	<g>
		<rect x="303.9" y="44.2" class="st9" width="4.7" height="17.8"/>
	</g>
	<g>
		<path class="st9" d="M286.2,24.7h38.5c2.2,0,4.1,1.9,4.1,4.1v34.6c0,2.2-1.9,4.1-4.1,4.1h-38.5c-2.2,0-4.1-1.9-4.1-4.1V28.8
			C282.1,26.5,284,24.7,286.2,24.7z"/>
		<g class="st2">
			<g>
				<circle cx="322.7" cy="64.4" r="1.6"/>
				<circle cx="311.2" cy="64.4" r="1.6"/>
				<circle cx="299.7" cy="64.4" r="1.6"/>
				<circle cx="288.3" cy="64.4" r="1.6"/>
			</g>
			<g>
				<circle cx="322.7" cy="27.6" r="1.6"/>
				<circle cx="311.2" cy="27.6" r="1.6"/>
				<circle cx="299.7" cy="27.6" r="1.6"/>
				<circle cx="288.3" cy="27.6" r="1.6"/>
			</g>
			<rect x="282.8" y="61.4" width="44.7" height="0.5"/>
			<rect x="282.8" y="30.1" width="44.7" height="0.5"/>
			<path d="M288,31.8h34.5c1.9,0,3.4,1.6,3.4,3.4v21.3c0,1.9-1.6,3.4-3.4,3.4H288c-1.9,0-3.4-1.6-3.4-3.4V35.2
				C284.6,33.4,286,31.8,288,31.8z"/>
		</g>
	</g>
	<g>
		<g>
			<path class="st7" d="M266,36.4c6.4,0,11.7,5.2,11.7,11.7c0,6.4-5.2,11.7-11.7,11.7s-11.7-5.2-11.7-11.7
				C254.3,41.7,259.6,36.4,266,36.4z"/>
			<path class="st3" d="M266,59.3c-6.2,0-11.2-5-11.2-11.2s5-11.2,11.2-11.2c6.2,0,11.2,5,11.2,11.2S272.2,59.3,266,59.3 M266,60.2
				c6.7,0,12.1-5.4,12.1-12.1S272.7,36,266,36c-6.7,0-12.1,5.4-12.1,12.1S259.3,60.2,266,60.2L266,60.2z"/>
		</g>
		<path class="st3" d="M262.7,49.6h6.7c0.7,0,1.3-0.6,1.3-1.3l0,0c0-0.7-0.6-1.3-1.3-1.3h-6.7c-0.7,0-1.3,0.6-1.3,1.3l0,0
			C261.4,49,262,49.6,262.7,49.6z"/>
		<path class="st3" d="M264.7,45v6.7c0,0.7,0.6,1.3,1.3,1.3l0,0c0.7,0,1.3-0.6,1.3-1.3V45c0-0.7-0.6-1.3-1.3-1.3l0,0
			C265.3,43.7,264.7,44.2,264.7,45z"/>
	</g>
</g>
<g>
	<path class="st3" d="M303.7,50.4c-0.2-0.2-0.2-0.4-0.2-0.8c0-0.9,0.2-1.6,0.5-2.2s0.8-1.2,1.4-1.9c0.5-0.6,0.8-1,1-1.4
		c0.2-0.4,0.3-0.8,0.3-1.3c0-0.5-0.2-0.9-0.6-1.2c-0.4-0.3-0.9-0.5-1.5-0.5c-0.6,0-1.1,0.1-1.6,0.4c-0.5,0.2-1.1,0.6-1.8,1
		c-0.4,0.2-0.7,0.3-1,0.3c-0.3,0-0.5-0.1-0.7-0.4c-0.2-0.2-0.3-0.5-0.3-0.9c0-0.5,0.2-0.8,0.6-1.1c0.7-0.6,1.4-1,2.3-1.3
		s1.8-0.5,2.7-0.5c0.9,0,1.8,0.2,2.5,0.5c0.7,0.3,1.3,0.8,1.7,1.4c0.4,0.6,0.6,1.2,0.6,2c0,0.8-0.2,1.5-0.6,2.1
		c-0.4,0.6-1,1.3-1.7,2c-0.6,0.7-1.1,1.2-1.4,1.6c-0.3,0.4-0.5,0.9-0.6,1.5c0,0.2-0.2,0.4-0.3,0.6c-0.2,0.1-0.4,0.2-0.6,0.2
		C304.1,50.7,303.8,50.6,303.7,50.4z M303.1,55.1c-0.3-0.3-0.5-0.7-0.5-1.2s0.2-0.9,0.5-1.2c0.3-0.3,0.7-0.5,1.2-0.5
		c0.5,0,0.9,0.2,1.2,0.5c0.3,0.3,0.5,0.7,0.5,1.2s-0.2,0.9-0.5,1.2c-0.3,0.3-0.7,0.5-1.2,0.5C303.9,55.6,303.5,55.4,303.1,55.1z"/>
</g>
<g>
	<path class="st3" d="M226.6,53.2c0,0.8-0.5,1.2-1.4,1.2h-8.8c-0.4,0-0.7-0.1-1-0.4c-0.2-0.2-0.3-0.5-0.3-0.9c0-0.5,0.2-0.9,0.5-1.3
		l5.3-5.7c0.7-0.7,1.1-1.4,1.4-2s0.5-1.2,0.5-1.8c0-0.7-0.2-1.3-0.6-1.7c-0.4-0.4-1-0.6-1.8-0.6c-0.6,0-1.3,0.1-1.9,0.4
		c-0.6,0.2-1.2,0.6-1.8,1c-0.2,0.1-0.3,0.2-0.5,0.3c-0.2,0.1-0.3,0.1-0.5,0.1c-0.3,0-0.5-0.1-0.7-0.4c-0.2-0.2-0.3-0.5-0.3-0.9
		c0-0.2,0-0.4,0.1-0.6s0.2-0.3,0.4-0.5c0.7-0.5,1.5-1,2.4-1.3s1.8-0.5,2.7-0.5c1.6,0,2.9,0.4,3.8,1.2c1,0.8,1.4,1.9,1.4,3.3
		c0,0.9-0.2,1.8-0.6,2.7c-0.4,0.8-1.1,1.8-2,2.8l-4,4.3h6.1C226.2,52,226.6,52.4,226.6,53.2z"/>
	<path class="st3" d="M237.2,44.6c0.8,0.4,1.4,1.1,1.8,1.9c0.4,0.8,0.7,1.7,0.7,2.7c0,1.1-0.2,2-0.7,2.8c-0.5,0.8-1.2,1.5-2.1,1.9
		c-0.9,0.5-1.9,0.7-3.1,0.7c-1,0-1.9-0.2-2.8-0.5c-0.9-0.3-1.7-0.7-2.4-1.3c-0.4-0.3-0.5-0.7-0.5-1.1c0-0.3,0.1-0.6,0.3-0.9
		c0.2-0.2,0.4-0.4,0.7-0.4c0.2,0,0.3,0,0.4,0.1c0.1,0.1,0.3,0.1,0.5,0.3c0.6,0.4,1.2,0.8,1.8,1c0.6,0.2,1.2,0.3,1.9,0.3
		c1,0,1.8-0.3,2.4-0.8c0.5-0.5,0.8-1.2,0.8-2.2c0-0.9-0.3-1.6-0.8-2.2c-0.6-0.5-1.3-0.8-2.3-0.8c-0.6,0-1.1,0.1-1.6,0.3
		c-0.5,0.2-1,0.5-1.5,0.9c-0.3,0.2-0.6,0.3-0.9,0.3s-0.6-0.1-0.8-0.3c-0.2-0.2-0.3-0.4-0.3-0.7v-7.3c0-0.4,0.1-0.8,0.4-1
		s0.6-0.4,1-0.4h7.8c0.9,0,1.4,0.4,1.4,1.2s-0.5,1.2-1.4,1.2h-6.2v4.4c0.8-0.6,1.8-0.8,2.9-0.8C235.5,44,236.4,44.2,237.2,44.6z"/>
</g>
<g>
	<path class="st3" d="M30.7,251.8c-0.2-0.2-0.2-0.4-0.2-0.8c0-0.9,0.2-1.6,0.5-2.2s0.8-1.2,1.4-1.9c0.5-0.6,0.8-1,1-1.4
		c0.2-0.4,0.3-0.8,0.3-1.3c0-0.5-0.2-0.9-0.6-1.2s-0.9-0.5-1.5-0.5c-0.6,0-1.1,0.1-1.6,0.4c-0.5,0.2-1.1,0.6-1.8,1
		c-0.4,0.2-0.7,0.3-1,0.3c-0.3,0-0.5-0.1-0.7-0.4c-0.2-0.2-0.3-0.5-0.3-0.9c0-0.5,0.2-0.8,0.6-1.1c0.7-0.6,1.4-1,2.3-1.3
		s1.8-0.5,2.7-0.5c0.9,0,1.8,0.2,2.5,0.5c0.7,0.3,1.3,0.8,1.7,1.4c0.4,0.6,0.6,1.2,0.6,2c0,0.8-0.2,1.5-0.6,2.1
		c-0.4,0.6-1,1.3-1.7,2c-0.6,0.7-1.1,1.2-1.4,1.6c-0.3,0.4-0.5,0.9-0.6,1.5c0,0.2-0.2,0.4-0.3,0.6c-0.2,0.1-0.4,0.2-0.6,0.2
		C31.1,252.1,30.8,252,30.7,251.8z M30.1,256.5c-0.3-0.3-0.5-0.7-0.5-1.2s0.2-0.9,0.5-1.2c0.3-0.3,0.7-0.5,1.2-0.5
		c0.5,0,0.9,0.2,1.2,0.5c0.3,0.3,0.5,0.7,0.5,1.2s-0.2,0.9-0.5,1.2c-0.3,0.3-0.7,0.5-1.2,0.5C30.9,257,30.5,256.8,30.1,256.5z"/>
</g>
</svg>
