<?xml version="1.0" encoding="utf-8"?>
<!-- Generator: Adobe Illustrator 22.1.0, SVG Export Plug-In . SVG Version: 6.00 Build 0)  -->
<svg version="1.1" id="Layer_1" xmlns="http://www.w3.org/2000/svg" xmlns:xlink="http://www.w3.org/1999/xlink" x="0px" y="0px"
	 viewBox="0 0 336.7 293.7" style="enable-background:new 0 0 336.7 293.7;" xml:space="preserve">
<style type="text/css">
	.st0{fill:#647CA0;}
	.st1{fill:#A5D73C;}
	.st2{opacity:0.2;}
	.st3{enable-background:new    ;}
	.st4{fill:#FFFFFF;}
</style>
<g>
	<g>
		<rect x="303.9" y="44.2" class="st0" width="4.7" height="17.8"/>
	</g>
	<g>
		<path class="st1" d="M286.2,24.7h38.5c2.2,0,4.1,1.9,4.1,4.1v34.6c0,2.2-1.9,4.1-4.1,4.1h-38.5c-2.2,0-4.1-1.9-4.1-4.1V28.8
			C282.1,26.5,284,24.7,286.2,24.7z"/>
		<g class="st2">
			<g>
				<circle cx="322.7" cy="64.4" r="1.6"/>
				<circle cx="311.2" cy="64.4" r="1.6"/>
				<circle cx="299.7" cy="64.4" r="1.6"/>
				<circle cx="288.3" cy="64.4" r="1.6"/>
			</g>
			<g>
				<circle cx="322.7" cy="27.6" r="1.6"/>
				<circle cx="311.2" cy="27.6" r="1.6"/>
				<circle cx="299.7" cy="27.6" r="1.6"/>
				<circle cx="288.3" cy="27.6" r="1.6"/>
			</g>
			<rect x="282.8" y="61.4" width="44.7" height="0.5"/>
			<rect x="282.8" y="30.1" width="44.7" height="0.5"/>
			<path d="M288,31.8h34.5c1.9,0,3.4,1.6,3.4,3.4v21.3c0,1.9-1.6,3.4-3.4,3.4H288c-1.9,0-3.4-1.6-3.4-3.4V35.2
				C284.6,33.4,286,31.8,288,31.8z"/>
		</g>
	</g>
</g>
<g class="st3">
	<path class="st4" d="M304.5,49.2c0.2,0.2,0.3,0.5,0.3,0.9c0,0.8-0.5,1.2-1.4,1.2h-1.2v1.8c0,0.5-0.1,0.9-0.4,1.1
		c-0.3,0.3-0.6,0.4-1.1,0.4s-0.8-0.1-1.1-0.4s-0.4-0.6-0.4-1.1v-1.8h-6.1c-0.4,0-0.7-0.1-1-0.4c-0.2-0.2-0.3-0.5-0.3-0.9
		c0-0.4,0.1-0.7,0.4-1.1l7.2-10.3c0.2-0.2,0.3-0.4,0.6-0.5c0.2-0.1,0.5-0.2,0.7-0.2c0.4,0,0.8,0.1,1,0.4s0.4,0.6,0.4,1.1v9.5h1.2
		C303.9,48.9,304.3,49,304.5,49.2z M295,48.9h4.3v-6.3L295,48.9z"/>
	<path class="st4" d="M314.8,44.6c0.8,0.4,1.4,1.1,1.8,1.9c0.4,0.8,0.7,1.7,0.7,2.7c0,1.1-0.2,2-0.7,2.8c-0.5,0.8-1.2,1.5-2.1,1.9
		c-0.9,0.5-1.9,0.7-3.1,0.7c-1,0-1.9-0.2-2.8-0.5c-0.9-0.3-1.7-0.7-2.4-1.3c-0.4-0.3-0.5-0.7-0.5-1.1c0-0.3,0.1-0.6,0.3-0.9
		c0.2-0.2,0.4-0.4,0.7-0.4c0.2,0,0.3,0,0.4,0.1s0.3,0.1,0.5,0.3c0.6,0.4,1.2,0.8,1.8,1c0.6,0.2,1.2,0.3,1.9,0.3c1,0,1.8-0.3,2.4-0.8
		c0.5-0.5,0.8-1.2,0.8-2.2c0-0.9-0.3-1.6-0.8-2.2c-0.6-0.5-1.3-0.8-2.3-0.8c-0.6,0-1.1,0.1-1.6,0.3s-1,0.5-1.5,0.9
		c-0.3,0.2-0.6,0.3-0.9,0.3s-0.6-0.1-0.8-0.3c-0.2-0.2-0.3-0.4-0.3-0.7v-7.3c0-0.4,0.1-0.8,0.4-1c0.2-0.2,0.6-0.4,1-0.4h7.8
		c0.9,0,1.4,0.4,1.4,1.2s-0.5,1.2-1.4,1.2h-6.2v4.4c0.8-0.6,1.8-0.8,2.9-0.8C313.1,44,314,44.2,314.8,44.6z"/>
</g>
</svg>
