<?xml version="1.0" encoding="utf-8"?>
<!-- Generator: Adobe Illustrator 22.1.0, SVG Export Plug-In . SVG Version: 6.00 Build 0)  -->
<svg version="1.1" id="Layer_1" xmlns="http://www.w3.org/2000/svg" xmlns:xlink="http://www.w3.org/1999/xlink" x="0px" y="0px"
	 viewBox="0 0 336.7 293.7" style="enable-background:new 0 0 336.7 293.7;" xml:space="preserve">
<style type="text/css">
	.st0{fill:#F24044;}
	.st1{opacity:0.2;}
	.st2{enable-background:new    ;}
	.st3{fill:#FFFFFF;}
</style>
<g>
	<g>
		<path class="st0" d="M286.2,268.6h38.5c2.2,0,4.1-1.9,4.1-4.1v-34.6c0-2.2-1.9-4.1-4.1-4.1h-38.5c-2.2,0-4.1,1.9-4.1,4.1v34.6
			C282.1,266.8,284,268.6,286.2,268.6z"/>
		<g class="st1">
			<g>
				<circle cx="322.7" cy="228.9" r="1.6"/>
				<circle cx="311.2" cy="228.9" r="1.6"/>
				<circle cx="299.7" cy="228.9" r="1.6"/>
				<circle cx="288.3" cy="228.9" r="1.6"/>
			</g>
			<g>
				<circle cx="322.7" cy="265.7" r="1.6"/>
				<circle cx="311.2" cy="265.7" r="1.6"/>
				<circle cx="299.7" cy="265.7" r="1.6"/>
				<circle cx="288.3" cy="265.7" r="1.6"/>
			</g>
			<rect x="282.8" y="231.4" width="44.7" height="0.5"/>
			<rect x="282.8" y="262.7" width="44.7" height="0.5"/>
			<path d="M288,261.5h34.5c1.9,0,3.4-1.6,3.4-3.4v-21.3c0-1.9-1.6-3.4-3.4-3.4H288c-1.9,0-3.4,1.6-3.4,3.4v21.3
				C284.6,259.9,286,261.5,288,261.5z"/>
		</g>
	</g>
</g>
<g class="st2">
	<path class="st3" d="M305.5,250.6c0.2,0.2,0.3,0.5,0.3,0.9c0,0.8-0.5,1.2-1.4,1.2h-1.2v1.8c0,0.5-0.1,0.9-0.4,1.1
		c-0.3,0.3-0.6,0.4-1.1,0.4s-0.8-0.1-1.1-0.4s-0.4-0.6-0.4-1.1v-1.8h-6.1c-0.4,0-0.7-0.1-1-0.4c-0.2-0.2-0.3-0.5-0.3-0.9
		c0-0.4,0.1-0.7,0.4-1.1l7.2-10.3c0.2-0.2,0.3-0.4,0.6-0.5c0.2-0.1,0.5-0.2,0.7-0.2c0.4,0,0.8,0.1,1,0.4s0.4,0.6,0.4,1.1v9.5h1.2
		C304.9,250.3,305.3,250.4,305.5,250.6z M296,250.3h4.3V244L296,250.3z"/>
	<path class="st3" d="M307.7,253.9c-1-1.4-1.5-3.5-1.5-6.3c0-2.7,0.5-4.8,1.5-6.3c1-1.4,2.5-2.2,4.4-2.2s3.4,0.7,4.4,2.2
		c1,1.4,1.5,3.5,1.5,6.3c0,2.7-0.5,4.8-1.5,6.3s-2.5,2.2-4.4,2.2S308.8,255.3,307.7,253.9z M314.5,252.2c0.5-1,0.7-2.5,0.7-4.6
		c0-2.1-0.2-3.7-0.7-4.6c-0.5-1-1.2-1.4-2.3-1.4c-1.1,0-1.8,0.5-2.3,1.4c-0.5,1-0.7,2.5-0.7,4.6c0,2.1,0.2,3.7,0.7,4.6
		c0.5,1,1.2,1.5,2.3,1.5C313.2,253.7,314,253.2,314.5,252.2z"/>
</g>
</svg>
