<?xml version="1.0" encoding="utf-8"?>
<!-- Generator: Adobe Illustrator 22.1.0, SVG Export Plug-In . SVG Version: 6.00 Build 0)  -->
<svg version="1.1" id="Layer_1" xmlns="http://www.w3.org/2000/svg" xmlns:xlink="http://www.w3.org/1999/xlink" x="0px" y="0px"
	 viewBox="0 0 400 400" style="enable-background:new 0 0 400 400;" xml:space="preserve">
<style type="text/css">
	.st0{fill:#691869;}
	.st1{fill:#00CDC8;}
	.st2{enable-background:new    ;}
	.st3{fill:#FFFFFF;}
	.st4{fill:#FBD490;}
	.st5{fill:#F4E6D0;}
	.st6{fill:#4C312C;}
	.st7{fill:#F96C7E;}
	.st8{fill:#79E09B;}
	.st9{fill:#E58FBC;}
</style>
<g>
	<path class="st0" d="M147.4,274.1c0.6,0.6,0.9,1.3,0.9,2.2s-0.3,1.6-0.9,2.2c-0.6,0.6-1.3,0.9-2.2,0.9h-10.9v10.8
		c0,0.9-0.3,1.6-0.9,2.2c-0.6,0.6-1.3,0.9-2.2,0.9s-1.6-0.3-2.2-0.9c-0.6-0.6-0.9-1.3-0.9-2.2v-10.8h-10.9c-0.9,0-1.6-0.3-2.2-0.9
		c-0.6-0.6-0.9-1.3-0.9-2.2s0.3-1.6,0.9-2.2c0.6-0.6,1.3-0.9,2.2-0.9h10.9v-10.9c0-0.9,0.3-1.6,0.9-2.2c0.6-0.6,1.3-0.9,2.2-0.9
		s1.6,0.3,2.2,0.9c0.6,0.6,0.9,1.3,0.9,2.2v10.9h10.9C146.1,273.2,146.8,273.5,147.4,274.1z"/>
</g>
<g>
	<g>
		<path class="st0" d="M186.9,109.5c-0.7-0.6-1-1.4-1-2.5s0.3-1.9,1-2.5s1.7-0.9,3-0.9h14.3c1.3,0,2.4,0.3,3,0.9
			c0.7,0.6,1,1.5,1,2.5c0,1.1-0.3,1.9-1,2.5s-1.7,0.9-3,0.9h-14.3C188.4,110.4,187.4,110.1,186.9,109.5z"/>
	</g>
	<g>
		<path class="st0" d="M186.9,122.5c-0.7-0.6-1-1.4-1-2.5s0.3-1.9,1-2.5s1.7-0.9,3-0.9h14.3c1.3,0,2.4,0.3,3,0.9
			c0.7,0.6,1,1.5,1,2.5c0,1.1-0.3,1.9-1,2.5s-1.7,0.9-3,0.9h-14.3C188.4,123.4,187.4,123.1,186.9,122.5z"/>
	</g>
</g>
<g>
	<g>
		<path class="st0" d="M250.9,272.3c-0.7-0.6-1-1.4-1-2.5s0.3-1.9,1-2.5s1.7-0.9,3-0.9h14.3c1.3,0,2.4,0.3,3,0.9
			c0.7,0.6,1,1.5,1,2.5c0,1.1-0.3,1.9-1,2.5s-1.7,0.9-3,0.9h-14.3C252.5,273.2,251.5,272.9,250.9,272.3z"/>
	</g>
	<g>
		<path class="st0" d="M250.9,285.3c-0.7-0.6-1-1.4-1-2.5s0.3-1.9,1-2.5s1.7-0.9,3-0.9h14.3c1.3,0,2.4,0.3,3,0.9
			c0.7,0.6,1,1.5,1,2.5c0,1.1-0.3,1.9-1,2.5s-1.7,0.9-3,0.9h-14.3C252.5,286.2,251.5,285.9,250.9,285.3z"/>
	</g>
</g>
<circle class="st1" cx="264.1" cy="111.3" r="37.8"/>
<g class="st2">
	<path class="st3" d="M262.2,125.4c0,1.7-0.9,2.5-2.8,2.5h-16c-1.9,0-2.9-0.8-2.9-2.5c0-1.6,1-2.4,2.9-2.4h4.9v-21.5l-4.5,2.8
		c-0.4,0.3-0.8,0.4-1.2,0.4c-0.7,0-1.2-0.3-1.7-0.9c-0.5-0.6-0.7-1.2-0.7-1.9c0-0.9,0.4-1.6,1.2-2.1l7.3-4.5
		c0.9-0.6,1.8-0.9,2.7-0.9c0.9,0,1.6,0.3,2.1,0.8c0.5,0.5,0.8,1.3,0.8,2.2V123h5C261.3,123,262.2,123.8,262.2,125.4z"/>
	<path class="st3" d="M285.5,107.9c1.6,0.9,2.8,2.1,3.7,3.8c0.9,1.6,1.3,3.4,1.3,5.5c0,2.2-0.5,4.1-1.5,5.8c-1,1.7-2.4,3-4.2,3.9
		c-1.8,0.9-3.9,1.4-6.3,1.4c-2,0-3.9-0.3-5.7-1c-1.9-0.6-3.5-1.5-4.8-2.6c-0.7-0.6-1.1-1.4-1.1-2.2c0-0.7,0.2-1.3,0.6-1.8
		s0.9-0.7,1.4-0.7c0.3,0,0.6,0.1,0.9,0.2c0.3,0.1,0.6,0.3,1,0.5c1.3,0.9,2.5,1.6,3.7,2c1.2,0.5,2.5,0.7,3.8,0.7
		c2.1,0,3.7-0.5,4.8-1.6c1.1-1,1.7-2.5,1.7-4.4c0-1.9-0.6-3.3-1.7-4.4c-1.1-1.1-2.7-1.6-4.6-1.6c-1.2,0-2.3,0.2-3.3,0.5
		c-1,0.3-1.9,0.9-3,1.7c-0.6,0.4-1.2,0.6-1.8,0.6c-0.6,0-1.2-0.2-1.6-0.6c-0.4-0.4-0.7-0.9-0.7-1.5V97.4c0-0.9,0.3-1.6,0.8-2.1
		c0.5-0.5,1.2-0.8,2.1-0.8h15.7c1.9,0,2.8,0.8,2.8,2.4c0,1.6-0.9,2.4-2.8,2.4h-12.7v9c1.6-1.1,3.6-1.7,5.9-1.7
		C282.1,106.6,283.9,107,285.5,107.9z"/>
</g>
<g>
	<circle class="st1" cx="197" cy="276.3" r="37.8"/>
	<g class="st2">
		<path class="st3" d="M203.1,272.8c1.6,0.9,2.8,2.1,3.7,3.8c0.9,1.6,1.3,3.4,1.3,5.5c0,2.2-0.5,4.1-1.5,5.8s-2.4,3-4.2,3.9
			c-1.8,0.9-3.9,1.4-6.3,1.4c-2,0-3.9-0.3-5.7-1c-1.9-0.6-3.5-1.5-4.8-2.6c-0.7-0.6-1.1-1.4-1.1-2.2c0-0.7,0.2-1.3,0.6-1.8
			c0.4-0.5,0.9-0.7,1.4-0.7c0.3,0,0.6,0.1,0.9,0.2c0.3,0.1,0.6,0.3,1,0.5c1.3,0.9,2.5,1.6,3.7,2c1.2,0.5,2.5,0.7,3.8,0.7
			c2.1,0,3.7-0.5,4.8-1.6c1.1-1,1.7-2.5,1.7-4.4c0-1.9-0.6-3.3-1.7-4.4c-1.1-1.1-2.7-1.6-4.6-1.6c-1.2,0-2.3,0.2-3.3,0.5
			c-1,0.3-1.9,0.9-3,1.7c-0.6,0.4-1.2,0.6-1.8,0.6s-1.2-0.2-1.6-0.6c-0.4-0.4-0.7-0.9-0.7-1.5v-14.7c0-0.9,0.3-1.6,0.8-2.1
			s1.2-0.8,2.1-0.8h15.7c1.9,0,2.8,0.8,2.8,2.4c0,1.6-0.9,2.4-2.8,2.4h-12.7v9c1.6-1.1,3.6-1.7,5.9-1.7
			C199.6,271.4,201.5,271.9,203.1,272.8z"/>
	</g>
</g>
<g>
	<g>
		<g>
			<g>
				<path class="st3" d="M136.7,188c-5.3,0-9.5-4.3-9.5-9.5v-18.3c0-2.8,2.2-5,5-5h11.5c2.8,0,5,2.2,5,5v18.3c0,0.1,0,0.2,0,0.3
					c-0.3,5.2-4.6,9.2-9.7,9.2H136.7z"/>
				<path class="st3" d="M143.7,160.1v18.3c-0.2,2.4-2.1,4.5-4.7,4.5h-2.3c-2.6,0-4.5-2.1-4.5-4.5v-18.3H143.7 M143.7,150.1h-11.5
					c-5.5,0-10,4.5-10,10v18.3c0,8,6.5,14.5,14.5,14.5h2.3c7.7,0,14.2-6.1,14.7-13.9c0-0.2,0-0.4,0-0.7v-18.3
					C153.7,154.6,149.2,150.1,143.7,150.1L143.7,150.1z"/>
			</g>
			<g>
				<path class="st3" d="M136.7,190.2c-6.6,0-12-5.4-12-12v-20.7c0-2.8,2.2-5,5-5h16c2.8,0,5,2.2,5,5v20.6c0.1,3.2-1,6.2-3.2,8.4
					c-2.2,2.3-5.3,3.6-8.6,3.6H136.7z"/>
				<path class="st3" d="M145.8,157.5v20.7c0.2,3.9-2.9,7-6.8,7h-2.3c-3.7,0-7-3.1-7-7v-20.7H145.8 M136.7,180.5h2.3
					c1.3,0,2.3-1,2.3-2.3v-16h-6.8v16C134.4,179.6,135.4,180.5,136.7,180.5 M145.8,147.5h-16c-5.5,0-10,4.5-10,10v20.7
					c0,9.4,7.6,17,17,17h2.3c4.6,0,9-1.9,12.2-5.2c3.1-3.2,4.7-7.5,4.6-12v-20.6C155.8,152,151.3,147.5,145.8,147.5L145.8,147.5z"/>
			</g>
		</g>
		<g>
			<g>
				<path class="st3" d="M116,165.1c-7.8,0-14.1-6.3-14.1-14.1v-4.9c0-2.8,2.2-5,5-5h63c2.8,0,5,2.2,5,5v4.9
					c0,7.8-6.3,14.1-14.1,14.1H116z"/>
				<path class="st3" d="M169.9,146.2v4.9c0,5-4,9.1-9.1,9.1H116c-5,0-9.1-4-9.1-9.1v-4.9H169.9 M169.9,136.2h-63
					c-5.5,0-10,4.5-10,10v4.9c0,10.5,8.6,19.1,19.1,19.1h44.9c10.5,0,19.1-8.6,19.1-19.1v-4.9C179.9,140.7,175.4,136.2,169.9,136.2
					L169.9,136.2z"/>
			</g>
		</g>
		<g>
			<path class="st3" d="M106.6,151.2c-2.8,0-5-2.2-5-5V84.6c0-7.4,2.3-14.5,6.6-20.6c0.1-0.1,0.1-0.2,0.2-0.3
				c0.1-0.2,0.3-0.4,0.5-0.6c0.5-0.7,1.1-1.5,1.8-2.2l1.8-1.8c0.4-0.4,0.8-0.7,1-0.9l0,0c0.5-0.5,1.2-1.1,2-1.7
				c0.1-0.1,0.3-0.2,0.5-0.3c0.3-0.3,0.6-0.5,0.9-0.7l0,0c0.3-0.2,0.7-0.5,1.3-0.8c0.2-0.1,0.4-0.2,0.6-0.3c0.3-0.2,0.6-0.4,1-0.6
				c0.3-0.2,0.6-0.4,0.9-0.5c0.5-0.3,0.9-0.5,1.2-0.6c0.1,0,0.1,0,0.2-0.1c0.1-0.1,0.3-0.1,0.4-0.2c0.4-0.2,0.8-0.3,1-0.4
				c0.1,0,0.1-0.1,0.2-0.1c0.5-0.2,1-0.4,1.4-0.5c0.3-0.1,0.6-0.2,0.9-0.3c0.3-0.1,0.5-0.2,0.8-0.2c0.2-0.1,0.5-0.1,0.8-0.2
				c0.3-0.1,0.6-0.1,0.9-0.2c0.1,0,0.2-0.1,0.3-0.1c0.5-0.2,1-0.4,1.7-0.4c0.5-0.1,1-0.1,1.4-0.2c0.3,0,0.6-0.1,0.8-0.1
				c0.3-0.1,0.7-0.1,1-0.1h0.3c1.2-0.2,2.2-0.2,3.1-0.2h2.6c1,0,2,0,3.1,0.2h0.3c1,0,2.1,0.1,3.6,0.4c0.3,0.1,0.6,0.1,0.8,0.2
				c0.3,0.1,0.5,0.1,0.8,0.2c0.3,0.1,0.6,0.1,0.9,0.2c0.3,0.1,0.6,0.1,0.8,0.2c1.1,0.2,1.9,0.6,2.6,0.9c0,0,0.6,0.2,0.7,0.3
				c0.2,0.1,0.6,0.2,1,0.4c0.1,0.1,0.3,0.1,0.4,0.2c0.1,0,0.1,0,0.2,0.1c0.2,0.1,0.5,0.2,0.8,0.4c0.6,0.2,1,0.5,1.4,0.7
				c0.3,0.2,0.7,0.4,0.9,0.6c0.2,0.1,0.4,0.2,0.6,0.3c0.6,0.3,1,0.6,1.2,0.8c0.8,0.4,1.6,1,2.2,1.6c0.1,0.1,0.4,0.4,0.6,0.5
				c0.2,0.2,0.4,0.3,0.6,0.5l0.1,0c0.2,0.2,0.6,0.5,1,0.9l1.8,1.8c0.2,0.2,0.3,0.3,0.5,0.5c0.2,0.2,0.4,0.4,0.5,0.6
				c0.2,0.3,0.5,0.6,0.7,0.9c0.3,0.3,0.6,0.7,0.9,1.2c4.2,5.8,6.4,12.9,6.4,20.2v61.7c0,2.8-2.2,5-5,5H106.6z"/>
			<path class="st3" d="M139.5,54.7c1,0,1.8,0,2.8,0.2c0.2,0,0.5,0,0.6,0c0.8,0,1.8,0.2,2.6,0.3c0.2,0.2,0.3,0.2,0.5,0.2
				c0.6,0.2,1.5,0.3,2.1,0.5c0.2,0,0.5,0.2,0.6,0.2c0.8,0.2,1.5,0.5,2.3,0.8c0.3,0.2,0.5,0.2,0.8,0.3c0.5,0.3,1.1,0.5,1.6,0.8
				c0.2,0,0.5,0.2,0.6,0.3c0.6,0.3,1.3,0.8,1.9,1.1c0.3,0.2,0.6,0.5,1,0.6c0.3,0.2,0.8,0.5,1.1,0.8c0.3,0.3,0.8,0.8,1.3,1.1
				c0.3,0.3,0.6,0.5,1,0.8c0.3,0.3,0.6,0.6,1,1c0.3,0.3,0.5,0.5,0.8,0.8c0.5,0.6,1,1.1,1.5,1.8c0.2,0.2,0.3,0.3,0.5,0.6
				c3.6,4.9,5.7,11,5.7,17.5v25.4v36.3h-63.2v-36.1V84.6c0-6.6,2.1-12.6,5.7-17.7c0.2-0.2,0.3-0.5,0.5-0.6c0.5-0.6,1-1.3,1.5-1.8
				c0.3-0.3,0.5-0.5,0.8-0.8c0.3-0.3,0.6-0.6,1-1c0.3-0.3,0.6-0.5,1-0.8c0.3-0.3,0.8-0.8,1.3-1.1c0.3-0.2,0.8-0.5,1.1-0.8
				c0.3-0.2,0.6-0.5,1-0.6c0.6-0.3,1.3-0.8,1.9-1.1c0.2-0.2,0.5-0.2,0.6-0.3c0.5-0.3,1.1-0.5,1.6-0.8c0.3-0.2,0.5-0.2,0.8-0.3
				c0.8-0.3,1.5-0.5,2.3-0.8c0.2,0,0.5-0.2,0.6-0.2c0.6-0.2,1.5-0.3,2.1-0.5c0.2-0.2,0.3-0.2,0.5-0.2c0.8-0.2,1.8-0.2,2.6-0.3
				c0.2,0,0.5,0,0.6,0c1-0.2,1.8-0.2,2.8-0.2H139.5 M139.5,44.7h-2.6c-0.9,0-2.1,0-3.4,0.2c-0.6,0-1.2,0.1-1.8,0.2
				c-0.1,0-0.3,0-0.4,0c-0.4,0-1,0.1-1.6,0.2c-0.9,0.1-1.7,0.3-2.5,0.6c-0.3,0.1-0.6,0.1-0.9,0.2c-0.4,0.1-0.7,0.2-1,0.3
				c-0.5,0.1-0.9,0.3-1.3,0.4c-0.1,0.1-0.3,0.1-0.6,0.2c-0.4,0.1-1,0.3-1.7,0.6c-0.1,0-0.1,0-0.2,0.1c-0.4,0.1-0.9,0.3-1.4,0.6
				c-0.1,0.1-0.3,0.1-0.4,0.2c-0.3,0.1-0.8,0.3-1.3,0.6c-0.4,0.2-0.8,0.4-1.2,0.7c-0.4,0.2-0.8,0.5-1.1,0.7
				c-0.1,0.1-0.2,0.1-0.3,0.2c-0.8,0.4-1.4,0.8-1.7,1.1c-0.4,0.2-0.7,0.5-1,0.7c-0.1,0.1-0.2,0.1-0.3,0.2c-1.1,0.7-1.9,1.5-2.5,2
				c-0.3,0.2-0.8,0.6-1.3,1.2l-1,1l-0.8,0.8c-0.9,0.9-1.6,1.8-2.2,2.6c-0.2,0.3-0.4,0.6-0.6,0.8c-0.1,0.1-0.2,0.2-0.2,0.3
				c-4.9,6.9-7.5,15-7.5,23.4v25.4v36.1c0,5.5,4.5,10,10,10h63.2c5.5,0,10-4.5,10-10v-36.3V84.5c0-8.2-2.6-16.3-7.3-22.9
				c-0.4-0.7-0.9-1.3-1.3-1.7c-0.3-0.4-0.5-0.7-0.7-0.9c-0.1-0.1-0.3-0.3-0.3-0.4c-0.3-0.4-0.6-0.7-0.9-1.1l-0.8-0.8l-1-1
				c-0.6-0.6-1.1-1-1.4-1.2c-0.2-0.2-0.5-0.4-0.7-0.6c-0.1-0.1-0.1-0.1-0.1-0.1c-0.8-0.8-1.9-1.6-3-2.3c-0.4-0.3-0.9-0.6-1.6-1
				c-0.1-0.1-0.2-0.1-0.3-0.2c-0.3-0.2-0.6-0.4-0.9-0.6c-0.6-0.4-1.3-0.7-1.9-1c-0.3-0.2-0.6-0.3-0.8-0.4c-0.1-0.1-0.3-0.1-0.4-0.2
				c-0.6-0.3-1-0.5-1.4-0.6c-0.1,0-0.1,0-0.2-0.1c-0.1-0.1-0.3-0.1-0.4-0.2c-0.7-0.3-1.8-0.8-3.3-1.1c-0.3-0.1-0.6-0.2-1-0.2
				c-0.3-0.1-0.6-0.1-0.9-0.2c-0.2,0-0.3-0.1-0.5-0.1c-0.4-0.1-0.8-0.3-1.3-0.3c-1.7-0.3-3.2-0.5-4.5-0.5
				C141.6,44.7,140.4,44.7,139.5,44.7L139.5,44.7z"/>
		</g>
	</g>
	<g>
		<path class="st3" d="M119.2,77.7c-2,0-3.8-0.7-5.2-2.1c-1.4-1.4-2.2-3.2-2.2-5.2s0.8-3.7,2.2-5.2l2.3-2.3c1.4-1.4,3.2-2.2,5.2-2.2
			c1.9,0,3.7,0.8,5.2,2.2c1.4,1.4,2.2,3.2,2.2,5.2c0,1.9-0.8,3.7-2.2,5.2l-2.1,2.1C123.3,76.8,121.4,77.7,119.2,77.7z"/>
		<path class="st3" d="M121.5,65.8c0.6,0,1.1,0.2,1.6,0.7c1,1,1,2.3,0,3.2l-2.3,2.3c-0.3,0.5-1,0.6-1.6,0.6c-0.6,0-1.1-0.2-1.6-0.6
			c-1-1-1-2.3,0-3.2l2.3-2.3C120.3,66,120.9,65.8,121.5,65.8 M121.5,55.8c-3.2,0-6.3,1.3-8.7,3.7l-2.3,2.3c-4.9,4.9-4.9,12.5,0,17.4
			c2.3,2.3,5.3,3.6,8.7,3.6c3.6,0,6.9-1.4,9.1-3.9l1.9-1.9c4.9-4.9,4.9-12.5,0-17.4C127.8,57.1,124.7,55.8,121.5,55.8L121.5,55.8z"
			/>
	</g>
	<g>
		<path class="st3" d="M137.7,70.4c-1.7,0-3.3-0.6-4.5-1.6l-2.4-1.8c-0.1-0.1-0.1-0.1-0.2-0.2c-3-2.5-3.6-6.8-1.4-10
			c0.1-0.1,0.1-0.2,0.2-0.3c1.5-1.7,3.5-2.7,5.7-2.7c1.5,0,3,0.5,4.3,1.4c0,0,2.7,2,2.7,2c0.1,0.1,0.1,0.1,0.2,0.2
			c3,2.5,3.6,6.8,1.4,10c-0.2,0.2-0.3,0.4-0.5,0.6C141.2,69.9,139.1,70.4,137.7,70.4z"/>
		<path class="st3" d="M135.2,58.7c0.5,0,0.9,0.1,1.4,0.5l2.6,1.9c1,0.8,1.3,2.1,0.5,3.2c-0.6,0.6-1.3,1-1.9,1c-0.5,0-1-0.2-1.3-0.5
			l-2.6-1.9c-1-0.8-1.3-2.1-0.5-3.2C133.8,59.1,134.5,58.7,135.2,58.7 M135.2,48.7C135.2,48.7,135.2,48.7,135.2,48.7
			c-3.7,0-7.2,1.7-9.6,4.5c-0.2,0.2-0.3,0.4-0.5,0.6c-3.8,5.3-2.8,12.5,2.2,16.7c0.1,0.1,0.3,0.2,0.4,0.3l2.3,1.7
			c2.1,1.7,4.8,2.7,7.6,2.7c2.3,0,5.8-0.7,9-3.9c0.4-0.4,0.7-0.8,1.1-1.3c3.8-5.3,2.8-12.5-2.2-16.7c-0.1-0.1-0.3-0.2-0.4-0.3
			l-2.6-1.9c-0.1,0-0.1-0.1-0.2-0.1C140.2,49.5,137.8,48.7,135.2,48.7L135.2,48.7z"/>
	</g>
	<g>
		<path class="st3" d="M138.3,87.9c-0.6,0-1.9,0-3.2-0.7l-2.7-1.1c-3.7-1.6-5.5-5.9-4-9.5c1.2-2.7,3.8-4.5,6.7-4.5
			c1,0,1.9,0.2,2.8,0.6l3.1,1.3c3.7,1.6,5.5,5.8,4,9.4C143.9,86,141.2,87.9,138.3,87.9z"/>
		<path class="st3" d="M135.3,77c0.3,0,0.5,0.1,0.8,0.2l3.1,1.3c1.1,0.5,1.8,1.8,1.3,2.9c-0.3,0.8-1.1,1.5-2.1,1.5
			c-0.3,0-0.6,0-0.8-0.2l-3.1-1.3c-1.1-0.5-1.8-1.8-1.3-2.9C133.5,77.6,134.4,77,135.3,77 M135.3,67C135.3,67,135.3,67,135.3,67
			c-4.9,0-9.4,3-11.3,7.5c-1.3,3.1-1.3,6.7,0.2,9.8c1.3,2.8,3.6,5,6.4,6.2c0,0,0,0,0.1,0l2.4,1c1.6,0.8,3.3,1.2,5.3,1.2
			c5,0,9.4-3,11.3-7.6c2.6-6.1-0.4-13.3-6.6-15.9c0,0,0,0-0.1,0L140,68C138.5,67.3,136.9,67,135.3,67L135.3,67z"/>
	</g>
	<g>
		<path class="st3" d="M148.7,100.7c-0.4,0-0.8-0.1-1.2-0.1c-3.7-0.9-6-4.4-5.5-8.2c0-0.1,0-0.2,0.1-0.4l0.6-3.2
			c0-0.1,0-0.2,0.1-0.2c0.8-3.3,3.7-5.6,7.2-5.6c0.3,0,0.7,0,1,0.1c0.2,0,0.4,0.1,0.6,0.1c3.7,0.9,6,4.4,5.5,8.2
			c0,0.1,0,0.2-0.1,0.4l-0.6,3.2c0,0.1-0.1,0.3-0.1,0.4c-0.9,3.2-3.8,5.4-7.1,5.4H148.7z"/>
		<path class="st3" d="M149.9,87.9c0.1,0,0.3,0,0.4,0c1.3,0.3,1.9,1.5,1.8,2.8l-0.6,3.2c-0.3,1.1-1.3,1.8-2.3,1.8
			c-0.2,0-0.3,0-0.5,0c-1.3-0.3-1.9-1.5-1.8-2.8l0.6-3.2C147.9,88.5,148.8,87.9,149.9,87.9 M149.9,77.9
			C149.9,77.9,149.9,77.9,149.9,77.9c-5.8,0-10.7,3.8-12.1,9.4c0,0.2-0.1,0.3-0.1,0.5l-0.6,3.2c0,0.2-0.1,0.5-0.1,0.7
			c-0.8,6.4,3.1,12.2,9.3,13.7c0.8,0.2,1.6,0.3,2.4,0.3h0.5c5.5,0,10.4-3.7,11.9-9c0.1-0.3,0.1-0.5,0.2-0.8l0.6-3.2
			c0-0.2,0.1-0.5,0.1-0.7c0.8-6.4-3.1-12.2-9.3-13.7c-0.4-0.1-0.8-0.2-1.2-0.2C151,77.9,150.5,77.9,149.9,77.9L149.9,77.9z"/>
	</g>
	<g>
		<path class="st3" d="M114.7,130.6c-4.1,0-7.3-3.2-7.3-7.3c0-3.8,2.8-6.9,6.6-7.4c0.2,0,0.4,0,0.6,0h3.2c3.8,0,6.9,2.8,7.4,6.6
			c0,0.2,0,0.4,0,0.6c0,3.8-2.8,6.9-6.6,7.4c-0.2,0-0.4,0-0.6,0H114.7z"/>
		<path class="st3" d="M117.9,120.9c1.3,0,2.3,1,2.4,2.3c0,1.3-1,2.3-2.3,2.4h-3.4c-1.3,0-2.3-1-2.3-2.3s1-2.3,2.3-2.4H117.9
			 M117.9,110.9h-3.2c-0.4,0-0.8,0-1.2,0.1c-6.3,0.8-11,6.1-11,12.4c0,6.8,5.5,12.3,12.3,12.3h3.4c0.4,0,0.8,0,1.2-0.1
			c6.3-0.8,11-6.1,11-12.4c0-0.4,0-0.8-0.1-1.2C129.5,115.7,124.2,110.9,117.9,110.9L117.9,110.9z"/>
	</g>
	<g>
		<path class="st3" d="M137.2,125.9c-0.4,0-0.8-0.1-1.2-0.1c-3.7-0.9-6-4.4-5.5-8.2c0-0.1,0-0.2,0.1-0.4l0.6-3.2
			c0-0.1,0-0.2,0.1-0.2c0.8-3.3,3.7-5.6,7.2-5.6c0.3,0,0.7,0,1,0.1c0.2,0,0.4,0.1,0.6,0.1c3.7,0.9,6,4.4,5.5,8.2
			c0,0.1,0,0.2-0.1,0.4l-0.6,3.2c0,0.1-0.1,0.3-0.1,0.4c-0.9,3.2-3.8,5.4-7.1,5.4H137.2z"/>
		<path class="st3" d="M138.4,113.1c0.1,0,0.3,0,0.4,0c1.3,0.3,1.9,1.5,1.8,2.8l-0.6,3.2c-0.3,1.1-1.3,1.8-2.3,1.8
			c-0.2,0-0.3,0-0.5,0c-1.3-0.3-1.9-1.5-1.8-2.8l0.6-3.2C136.4,113.8,137.3,113.1,138.4,113.1 M138.4,103.1
			C138.4,103.1,138.4,103.1,138.4,103.1c-5.8,0-10.7,3.8-12.1,9.4c0,0.2-0.1,0.3-0.1,0.5l-0.6,3.2c0,0.2-0.1,0.5-0.1,0.7
			c-0.8,6.4,3.1,12.2,9.3,13.7c0.8,0.2,1.6,0.3,2.4,0.3h0.5c5.5,0,10.4-3.7,11.9-9c0.1-0.3,0.1-0.5,0.2-0.8l0.6-3.2
			c0-0.2,0.1-0.5,0.1-0.7c0.8-6.4-3.1-12.2-9.3-13.7c-0.4-0.1-0.8-0.2-1.2-0.2C139.5,103.2,139,103.1,138.4,103.1L138.4,103.1z"/>
	</g>
	<g>
		<path class="st3" d="M118.6,118.5c-1.9,0-3.7-0.7-5.1-2l-2.3-2.2c-2.9-2.6-3.2-7.1-0.7-10.2c1.4-1.6,3.3-2.6,5.5-2.6
			c1.7,0,3.4,0.6,4.8,1.7c0.1,0.1,0.1,0.1,0.2,0.2l2.4,2.2c1.5,1.3,2.3,3.1,2.4,5.1c0.1,1.8-0.5,3.5-1.7,5
			C123.1,117,121.4,118.5,118.6,118.5z"/>
		<path class="st3" d="M116,106.6c0.6,0,1.1,0.2,1.6,0.6l2.4,2.3c1,0.8,1,2.3,0.2,3.2c-0.5,0.6-1,0.8-1.6,0.8
			c-0.5,0-1.1-0.2-1.6-0.6l-2.4-2.3c-1-0.8-1-2.3-0.2-3.2C114.8,106.8,115.4,106.6,116,106.6 M116,96.6c-3.6,0-7,1.6-9.3,4.3
			c-4.3,5.1-3.7,12.7,1.1,17.1l2.2,2.1c2.3,2.2,5.3,3.4,8.5,3.4c3.8,0,7.1-1.6,9.5-4.6c4.1-5.1,3.5-12.6-1.3-16.9l-2.3-2.2
			c-0.1-0.1-0.3-0.3-0.4-0.4C121.7,97.6,118.9,96.6,116,96.6L116,96.6z"/>
	</g>
	<g>
		<path class="st3" d="M134.1,109.7c-0.8,0-1.7-0.1-2.7-0.5l-2.9-1.1c-0.1,0-0.2-0.1-0.2-0.1c-3.7-1.6-5.5-5.8-3.9-9.5
			c1.2-2.7,3.8-4.5,6.7-4.5c0.9,0,1.8,0.2,2.6,0.5l3,1.1c0.1,0,0.2,0.1,0.2,0.1c3.7,1.6,5.4,5.7,4,9.3
			C139.9,107.9,137.2,109.7,134.1,109.7z"/>
		<path class="st3" d="M131.1,99.1c0.3,0,0.5,0.1,0.8,0.2l3.1,1.1c1.1,0.5,1.8,1.8,1.3,2.9c-0.3,1-1.1,1.5-2.1,1.5
			c-0.3,0-0.5,0-0.8-0.2l-3.1-1.1c-1.1-0.5-1.8-1.8-1.3-2.9C129.3,99.6,130.2,99.1,131.1,99.1 M131.1,89.1
			C131.1,89.1,131.1,89.1,131.1,89.1c-4.9,0-9.4,3-11.3,7.5c-2.6,6.2,0.3,13.4,6.5,16c0.2,0.1,0.3,0.1,0.5,0.2l2.8,1
			c1.9,0.8,3.5,0.9,4.6,0.9c5.2,0,9.7-3.1,11.5-7.9c1.2-3,1.1-6.4-0.3-9.4c-1.3-2.8-3.6-5-6.4-6.2c-0.2-0.1-0.3-0.1-0.5-0.2
			l-2.9-1.1C134,89.3,132.6,89.1,131.1,89.1L131.1,89.1z"/>
	</g>
	<g>
		<path class="st3" d="M118.7,99.2c-0.2,0-0.4,0-0.6,0c-2-0.3-3.8-1.4-5-3c-1.1-1.7-1.5-3.8-1.1-5.8l0.6-3c0.5-3.4,3.6-6,7.1-6
			c0.5,0,1,0.1,1.5,0.2c1.9,0.3,3.6,1.4,4.7,3c1.1,1.7,1.5,3.8,1.1,5.8l-0.6,3.1c-0.6,3.4-3.6,5.9-7.2,5.9H118.7z"/>
		<path class="st3" d="M119.8,86.3c0.2,0,0.4,0,0.6,0.1c1.3,0.2,2.1,1.5,1.8,2.8l-0.6,3.2c-0.2,1.1-1.1,1.8-2.3,1.8
			c-0.2,0-0.3,0-0.5,0c-1.3-0.2-2.1-1.5-1.8-2.8l0.6-3.2C117.7,87.1,118.7,86.3,119.8,86.3 M119.8,76.3
			C119.8,76.3,119.8,76.3,119.8,76.3c-6,0-11,4.3-12,10.1l-0.6,2.9c-0.7,3.3-0.1,6.8,1.8,9.6c2,2.9,5,4.7,8.5,5.2
			c0.4,0.1,0.8,0.1,1.2,0.1h0.5c6.1,0,11.1-4.2,12.1-10l0.6-2.9c0.7-3.3,0.1-6.8-1.8-9.6c-1.8-2.7-4.7-4.5-7.9-5.1
			C121.4,76.4,120.6,76.3,119.8,76.3L119.8,76.3z"/>
	</g>
	<g>
		<path class="st3" d="M156,123.7c-0.5,0-1.7,0-3-0.6l-2.6-1c-0.1,0-0.2-0.1-0.2-0.1c-1.7-0.7-3.1-2-3.8-3.7
			c-0.8-1.8-0.9-3.9-0.1-5.8c1.2-2.7,3.8-4.5,6.7-4.5c0.9,0,1.8,0.2,2.6,0.5l3,1.1c0.1,0,0.2,0.1,0.2,0.1c3.7,1.6,5.5,5.8,3.9,9.4
			C161.6,121.8,158.9,123.7,156,123.7z"/>
		<path class="st3" d="M152.9,113c0.3,0,0.5,0.1,0.8,0.2l3.1,1.1c1.1,0.5,1.8,1.8,1.3,2.9c-0.3,0.8-1.1,1.5-2.1,1.5
			c-0.3,0-0.6,0-0.8-0.2l-3.1-1.1c-1.1-0.5-1.8-1.8-1.3-2.9C151.2,113.6,152,113,152.9,113 M152.9,103c-4.9,0-9.4,3-11.3,7.5
			c-1.3,3.1-1.3,6.7,0.2,9.8c1.3,2.8,3.6,5,6.4,6.2c0.2,0.1,0.3,0.1,0.5,0.2l2.4,0.9c1.5,0.7,3.1,1,5,1c5,0,9.4-3,11.3-7.6
			c1.3-3.1,1.2-6.6-0.2-9.7c-1.3-2.8-3.6-5-6.4-6.2c-0.2-0.1-0.3-0.1-0.5-0.2l-2.9-1.1C155.9,103.3,154.4,103,152.9,103L152.9,103z"
			/>
	</g>
	<g>
		<path class="st3" d="M160.4,134.7c-4.1,0-7.3-3.2-7.3-7.3c0-3.8,2.8-6.9,6.6-7.4c0.1,0,0.2,0,0.4,0l3.2-0.2c0.1,0,0.2,0,0.2,0
			c3.8,0,6.9,2.8,7.4,6.6c0,0.2,0,0.4,0,0.6c0,3.8-2.8,6.9-6.6,7.4c-0.1,0-0.3,0-0.4,0l-3.4,0.2
			C160.5,134.7,160.4,134.7,160.4,134.7z"/>
		<path class="st3" d="M163.6,124.8c1.3,0,2.3,1,2.4,2.3c0,1.3-1,2.3-2.3,2.4l-3.4,0.2c-1.3,0-2.3-1-2.3-2.3s1-2.3,2.3-2.4
			L163.6,124.8 M163.6,114.8c-0.2,0-0.3,0-0.5,0l-3.2,0.2c-0.2,0-0.5,0-0.7,0.1c-6.3,0.8-11,6.1-11,12.4c0,6.8,5.5,12.3,12.3,12.3
			c0.2,0,0.3,0,0.5,0l3.4-0.2c0.3,0,0.5,0,0.8-0.1c6.3-0.8,11-6.1,11-12.4c0-0.4,0-0.8-0.1-1.2C175.2,119.6,169.9,114.8,163.6,114.8
			L163.6,114.8z"/>
	</g>
	<g>
		<path class="st3" d="M141.7,141.8c-1.1,0-2-0.3-2.5-0.5l-0.2-0.1c-0.2-0.1-0.4-0.2-0.7-0.3l-2.9-1.5c-0.1,0-0.2-0.1-0.2-0.1
			c-3.6-2-4.8-6.4-2.8-9.9c1.3-2.3,3.8-3.8,6.4-3.8c1.2,0,2.3,0.3,3.4,0.9l2.8,1.4c0.1,0,0.2,0.1,0.2,0.1c3.5,2,4.8,6.2,3,9.6
			C147,140.2,144.5,141.8,141.7,141.8z"/>
		<path class="st3" d="M138.7,130.7c0.4,0,0.7,0.1,1.1,0.3l2.9,1.5c1.1,0.6,1.6,1.9,1,3.1c-0.3,0.8-1.1,1.3-1.9,1.3
			c-0.3,0-0.6-0.2-1.1-0.3l-2.9-1.5c-1.1-0.6-1.6-1.9-1-3.1C137.2,131.2,137.9,130.7,138.7,130.7 M138.7,120.7
			C138.7,120.7,138.7,120.7,138.7,120.7c-4.4,0-8.5,2.4-10.7,6.3c-3.4,5.9-1.3,13.3,4.7,16.7c0.2,0.1,0.3,0.2,0.5,0.3l2.9,1.5
			c0.4,0.2,0.9,0.4,1.3,0.5l0.1,0c0.7,0.3,2.2,0.8,4.2,0.8c4.6,0,8.9-2.7,10.9-6.9c3-5.8,0.8-12.8-5-16.2c-0.2-0.1-0.3-0.2-0.5-0.3
			l-2.8-1.4C142.7,121.2,140.7,120.7,138.7,120.7L138.7,120.7z"/>
	</g>
	<g>
		<path class="st3" d="M162.1,148.9c-1.9,0-3.7-0.7-5.1-2l-2.3-2.2c-1.5-1.3-2.3-3.1-2.4-5.1c-0.1-1.8,0.6-3.6,1.7-5.1
			c1.4-1.6,3.3-2.5,5.5-2.5c1.7,0,3.4,0.6,4.8,1.7c0.1,0.1,0.1,0.1,0.2,0.2l2.4,2.2c1.5,1.3,2.3,3.1,2.4,5.1
			c0.1,1.8-0.5,3.5-1.6,4.9C166.5,147.9,164.4,148.9,162.1,148.9z"/>
		<path class="st3" d="M159.6,137c0.6,0,1.1,0.2,1.6,0.6l2.4,2.3c1,0.8,1,2.3,0.2,3.2c-0.3,0.5-1,0.8-1.6,0.8
			c-0.5,0-1.1-0.2-1.6-0.6l-2.4-2.3c-1-0.8-1-2.3-0.2-3.2C158.4,137.3,159,137,159.6,137 M159.6,127c-3.6,0-7,1.6-9.3,4.3
			c-2,2.4-3,5.4-2.9,8.4c0.1,3.3,1.6,6.4,4,8.6l2.2,2.1c2.3,2.2,5.3,3.4,8.5,3.4c3.8,0,7.4-1.8,9.6-4.8c4-5.1,3.4-12.5-1.4-16.7
			l-2.3-2.2c-0.1-0.1-0.3-0.3-0.4-0.4C165.3,128.1,162.5,127,159.6,127L159.6,127z"/>
	</g>
	<g>
		<path class="st3" d="M119.9,146.3c-2.4,0-4.5-1.1-5.9-3c-0.1-0.1-0.1-0.2-0.2-0.3l-1.8-2.8c-2.2-3.3-1.3-7.7,1.9-10
			c0,0,0.1-0.1,0.1-0.1c1.2-0.8,2.6-1.2,4-1.2c2.4,0,4.6,1.2,6,3.1c0,0.1,0.1,0.1,0.1,0.2l1.8,2.8c2.2,3.3,1.3,7.7-1.9,10
			c-0.2,0.2-0.4,0.3-0.7,0.4C122.8,145.8,121.4,146.3,119.9,146.3z"/>
		<path class="st3" d="M118.1,134c0.7,0,1.5,0.3,2,1l1.8,2.8c0.6,1,0.5,2.4-0.6,3.2c-0.3,0.2-0.8,0.3-1.3,0.3c-0.8,0-1.5-0.3-1.9-1
			l-1.8-2.8c-0.6-1-0.5-2.4,0.6-3.2C117.2,134.1,117.6,134,118.1,134 M118.1,124C118.1,124,118.1,124,118.1,124
			c-2.4,0-4.8,0.7-6.8,2.1c-0.1,0.1-0.2,0.1-0.3,0.2c-5.5,3.9-6.9,11.3-3.2,16.8l1.8,2.7c0.1,0.2,0.3,0.4,0.4,0.6c2.4,3.2,6,5,9.9,5
			c2.5,0,4.5-0.8,5.8-1.4c0.5-0.2,0.9-0.5,1.3-0.8c5.5-3.9,6.9-11.3,3.2-16.8l-1.8-2.7c-0.1-0.1-0.2-0.3-0.3-0.4
			C125.8,125.9,122.1,124,118.1,124L118.1,124z"/>
	</g>
</g>
<g>
	<g>
		<g>
			<g>
				<path class="st3" d="M63.4,354.2c-5.3,0-9.5-4.3-9.5-9.5v-18.3c0-2.8,2.2-5,5-5h11.5c2.8,0,5,2.2,5,5v18.3c0,0.1,0,0.2,0,0.3
					c-0.3,5.1-4.7,9.2-9.7,9.2H63.4z"/>
				<path class="st3" d="M70.3,326.4v18.3c-0.2,2.4-2.3,4.5-4.7,4.5h-2.3c-2.6,0-4.5-2.1-4.5-4.5v-18.3H70.3 M70.3,316.4H58.8
					c-5.5,0-10,4.5-10,10v18.3c0,8,6.5,14.5,14.5,14.5h2.3c7.7,0,14.2-6.1,14.7-13.9c0-0.2,0-0.4,0-0.7v-18.3
					C80.3,320.8,75.9,316.4,70.3,316.4L70.3,316.4z"/>
			</g>
			<g>
				<path class="st3" d="M63.4,356.5c-6.6,0-12-5.4-12-12v-20.7c0-2.8,2.2-5,5-5h16c2.8,0,5,2.2,5,5v20.7c0,6.6-5.3,12-11.8,12H63.4
					z"/>
				<path class="st3" d="M72.4,323.8v20.7c0,3.9-3.1,7-6.8,7h-2.3c-3.7,0-7-3.1-7-7v-20.7H72.4 M63.2,346.8h2.3c1.3,0,2.3-1,2.3-2.3
					v-16h-6.8v16C60.9,345.8,61.9,346.8,63.2,346.8 M72.4,313.8h-16c-5.5,0-10,4.5-10,10v20.7c0,9.4,7.6,17,17,17h2.3
					c9.3,0,16.8-7.6,16.8-17v-20.7C82.4,318.2,78,313.8,72.4,313.8L72.4,313.8z"/>
			</g>
		</g>
		<g>
			<g>
				<path class="st3" d="M42.6,331.4c-7.8,0-14.1-6.3-14.1-14.1v-4.9c0-2.8,2.2-5,5-5h63c2.8,0,5,2.2,5,5v4.9
					c0,7.8-6.3,14.1-14.1,14.1H42.6z"/>
				<path class="st3" d="M96.6,312.4v4.9c0,5-4,9.1-9.1,9.1H42.6c-5,0-9.1-4-9.1-9.1v-4.9H96.6 M96.6,302.4h-63c-5.5,0-10,4.5-10,10
					v4.9c0,10.5,8.6,19.1,19.1,19.1h44.9c10.5,0,19.1-8.6,19.1-19.1v-4.9C106.6,306.9,102.1,302.4,96.6,302.4L96.6,302.4z"/>
			</g>
		</g>
		<g>
			<path class="st3" d="M33.1,317.4c-2.8,0-5-2.2-5-5v-61.6c0-7.4,2.3-14.5,6.6-20.6c0.1-0.1,0.1-0.2,0.2-0.3
				c0.1-0.2,0.3-0.4,0.5-0.6c0.5-0.7,1.1-1.5,1.8-2.2l1.8-1.8c0.4-0.4,0.8-0.7,1-0.9l0,0c0.4-0.4,1.1-1.1,2-1.7
				c0.2-0.1,0.3-0.2,0.5-0.3c0.3-0.3,0.6-0.5,0.9-0.7l0,0c0.3-0.2,0.7-0.5,1.3-0.8c0.2-0.1,0.4-0.2,0.6-0.3c0.3-0.2,0.6-0.4,1-0.6
				c0.3-0.2,0.7-0.4,0.9-0.5c0.5-0.3,0.9-0.5,1.2-0.6c0.1,0,0.1,0,0.2-0.1c0.1-0.1,0.2-0.1,0.4-0.2c0.4-0.2,0.8-0.3,1-0.4
				c0.1,0,0.1-0.1,0.2-0.1c0.5-0.2,1-0.4,1.4-0.5c0.3-0.1,0.6-0.2,0.9-0.3c0.3-0.1,0.5-0.2,0.8-0.2c0.2-0.1,0.5-0.1,0.8-0.2
				c0.3-0.1,1.2-0.3,1.3-0.3c0.5-0.2,1-0.4,1.7-0.4c0.5-0.1,1-0.1,1.4-0.2c0.3,0,0.6-0.1,0.8-0.1c0.3-0.1,0.7-0.1,1-0.1h0.3
				c1.2-0.2,2.2-0.2,3.1-0.2H66c1,0,1.9,0,3.1,0.2h0.3c1,0,2.1,0.1,3.6,0.4c0.3,0.1,0.6,0.1,0.8,0.2c0.3,0.1,0.5,0.1,0.8,0.2
				c0.3,0.1,0.6,0.1,0.9,0.2c0.3,0.1,0.6,0.1,0.8,0.2c1.1,0.2,1.9,0.6,2.6,0.9c0,0,0.6,0.2,0.7,0.3c0.2,0.1,0.6,0.2,1,0.4
				c0.1,0.1,0.3,0.1,0.4,0.2c0.1,0,0.1,0,0.2,0.1c0.2,0.1,0.5,0.2,0.8,0.4c0.6,0.2,1,0.5,1.4,0.7c0.3,0.2,0.7,0.4,0.9,0.6
				c0.2,0.1,0.4,0.2,0.6,0.3c0.6,0.3,1,0.6,1.2,0.8c0.8,0.4,1.6,1,2.2,1.6c0.1,0.1,0.4,0.4,0.6,0.5c0.2,0.2,0.4,0.3,0.6,0.5l0.1,0
				c0.2,0.2,0.6,0.5,1,0.9l1.8,1.8c0.2,0.2,0.3,0.3,0.5,0.5c0.2,0.2,0.4,0.4,0.5,0.6c0.2,0.3,0.5,0.6,0.7,0.9
				c0.3,0.3,0.6,0.7,0.9,1.2c4.4,6.2,6.6,13.4,6.1,20.4v61.5c0,2.8-2.2,5-5,5H33.1z"/>
			<path class="st3" d="M66,220.9c1,0,1.8,0,2.8,0.2c0.2,0,0.5,0,0.6,0c0.8,0,1.8,0.2,2.6,0.3c0.2,0.2,0.3,0.2,0.5,0.2
				c0.6,0.2,1.5,0.3,2.1,0.5c0.2,0,0.5,0.2,0.6,0.2c0.8,0.2,1.5,0.5,2.3,0.8c0.3,0.2,0.5,0.2,0.8,0.3c0.5,0.3,1.1,0.5,1.6,0.8
				c0.2,0,0.5,0.2,0.6,0.3c0.6,0.3,1.3,0.8,1.9,1.1c0.3,0.2,0.6,0.5,1,0.6c0.3,0.2,0.8,0.5,1.1,0.8c0.3,0.3,0.8,0.8,1.3,1.1
				c0.3,0.3,0.6,0.5,1,0.8c0.3,0.3,0.6,0.6,1,1c0.3,0.3,0.5,0.5,0.8,0.8c0.5,0.6,1,1.1,1.5,1.8c0.2,0.2,0.3,0.3,0.5,0.6
				c3.6,4.9,5.8,11,5.3,17.5v25.4v36.3H33.1v-36.1v-25.4c0-6.6,2.1-12.6,5.7-17.7c0.2-0.2,0.3-0.5,0.5-0.6c0.5-0.6,1-1.3,1.5-1.8
				c0.3-0.3,0.5-0.5,0.8-0.8c0.3-0.3,0.6-0.6,1-1c0.3-0.3,0.6-0.5,1-0.8c0.3-0.3,0.8-0.8,1.3-1.1c0.3-0.2,0.8-0.5,1.1-0.8
				c0.3-0.2,0.6-0.5,1-0.6c0.6-0.3,1.3-0.8,1.9-1.1c0.2-0.2,0.5-0.2,0.6-0.3c0.5-0.3,1.1-0.5,1.6-0.8c0.3-0.2,0.5-0.2,0.8-0.3
				c0.8-0.3,1.5-0.5,2.3-0.8c0.2,0,0.5-0.2,0.6-0.2c0.6-0.2,1.5-0.3,2.1-0.5c0.2-0.2,0.3-0.2,0.5-0.2c0.8-0.2,1.8-0.2,2.6-0.3
				c0.2,0,0.5,0,0.6,0c1-0.2,1.8-0.2,2.8-0.2H66 M66,210.9h-2.6c-0.9,0-2.1,0-3.4,0.2c-0.6,0-1.2,0.1-1.8,0.2c-0.1,0-0.3,0-0.4,0
				c-0.4,0-1,0.1-1.6,0.2c-0.9,0.1-1.7,0.3-2.5,0.6c-0.3,0.1-0.6,0.1-0.9,0.2c-0.4,0.1-0.7,0.2-1,0.3c-0.5,0.1-0.9,0.3-1.3,0.4
				c-0.1,0.1-0.3,0.1-0.6,0.2c-0.4,0.1-1,0.3-1.7,0.6c-0.1,0-0.1,0-0.2,0.1c-0.4,0.1-0.9,0.3-1.4,0.6c-0.1,0.1-0.3,0.1-0.4,0.2
				c-0.3,0.1-0.8,0.3-1.3,0.6c-0.4,0.2-0.8,0.4-1.2,0.7c-0.4,0.2-0.8,0.5-1.1,0.7c-0.1,0.1-0.2,0.1-0.3,0.2
				c-0.8,0.4-1.4,0.8-1.7,1.1c-0.4,0.2-0.7,0.5-1,0.7c-0.1,0.1-0.2,0.1-0.3,0.2c-1.1,0.7-1.9,1.5-2.5,2c-0.3,0.2-0.8,0.6-1.3,1.2
				l-1,1l-0.3,0.3l-0.5,0.5c-0.9,0.9-1.6,1.8-2.2,2.6c-0.2,0.3-0.4,0.6-0.6,0.8c-0.1,0.1-0.2,0.2-0.2,0.3c-4.9,6.9-7.5,15-7.5,23.4
				v25.4v36.1c0,5.5,4.5,10,10,10h62.9c5.5,0,10-4.5,10-10v-36.3V251c0.5-8-2-16.3-6.9-23.3c-0.4-0.7-0.9-1.3-1.3-1.7
				c-0.3-0.4-0.5-0.7-0.7-0.9c-0.1-0.1-0.3-0.3-0.3-0.4c-0.3-0.4-0.6-0.7-0.9-1.1l-0.5-0.5l-0.3-0.3l-1-1c-0.6-0.6-1.1-1-1.4-1.2
				c-0.2-0.2-0.5-0.4-0.7-0.6c-0.1-0.1-0.1-0.1-0.1-0.1c-0.8-0.8-1.9-1.6-3-2.3c-0.4-0.3-0.9-0.6-1.6-1c-0.1-0.1-0.2-0.1-0.3-0.2
				c-0.3-0.2-0.6-0.4-0.9-0.6c-0.6-0.4-1.3-0.7-1.9-1c-0.3-0.2-0.6-0.3-0.8-0.4c-0.1-0.1-0.3-0.1-0.4-0.2c-0.6-0.3-1-0.5-1.4-0.6
				c-0.1,0-0.1,0-0.2-0.1c-0.1-0.1-0.3-0.1-0.4-0.2c-0.7-0.3-1.8-0.8-3.3-1.1c-0.3-0.1-0.6-0.2-1-0.2c-0.3-0.1-0.6-0.1-0.9-0.2
				c-0.2,0-0.3-0.1-0.5-0.1c-0.4-0.1-0.8-0.3-1.3-0.3c-1.7-0.3-3.2-0.5-4.5-0.5C68,210.9,66.9,210.9,66,210.9L66,210.9z"/>
		</g>
	</g>
	<g>
		<path class="st3" d="M45.9,243.9c-2,0-3.8-0.7-5.2-2.1c-1.4-1.4-2.2-3.2-2.2-5.2c0-1.9,0.8-3.7,2.2-5.2l2.3-2.3
			c1.4-1.4,3.2-2.2,5.2-2.2c1.9,0,3.7,0.8,5.2,2.2c1.4,1.4,2.2,3.2,2.2,5.2c0,1.9-0.8,3.7-2.2,5.2l-2.3,2.3
			C49.6,243.2,47.9,243.9,45.9,243.9z"/>
		<path class="st3" d="M48.1,232c0.6,0,1.1,0.2,1.6,0.7c1,1,1,2.3,0,3.2l-2.3,2.3c-0.5,0.5-1,0.6-1.6,0.6c-0.6,0-1.1-0.2-1.6-0.6
			c-1-1-1-2.3,0-3.2l2.3-2.3C47,232.2,47.6,232,48.1,232 M48.1,222c-3.2,0-6.3,1.3-8.7,3.7l-2.3,2.3c-4.9,4.9-4.9,12.5,0,17.4
			c2.3,2.3,5.3,3.6,8.7,3.6s6.4-1.2,8.7-3.6l2.3-2.3c4.9-4.9,4.9-12.5,0-17.4C54.5,223.3,51.4,222,48.1,222L48.1,222z"/>
	</g>
	<g>
		<path class="st3" d="M64.2,236.6c-1.7,0-3.3-0.6-4.5-1.6l-2.4-1.8c-0.1-0.1-0.1-0.1-0.2-0.2c-3-2.5-3.6-6.8-1.4-10
			c0.1-0.1,0.1-0.2,0.2-0.3c1.5-1.7,3.5-2.7,5.7-2.7c1.5,0,3,0.5,4.3,1.4c0,0,2.7,2,2.7,2c0.1,0.1,0.1,0.1,0.2,0.2
			c3,2.5,3.6,6.8,1.4,10c0,0,0,0.1-0.1,0.1C68.7,235.5,66.6,236.6,64.2,236.6z"/>
		<path class="st3" d="M61.7,225c0.5,0,0.9,0.1,1.4,0.5l2.6,1.9c1,0.8,1.3,2.1,0.5,3.2c-0.5,0.6-1.1,1-1.9,1c-0.5,0-1-0.2-1.3-0.5
			l-2.6-1.9c-1-0.8-1.3-2.1-0.5-3.2C60.3,225.3,61,225,61.7,225 M61.7,215C61.7,215,61.7,215,61.7,215c-3.7,0-7.2,1.7-9.6,4.5
			c-0.2,0.2-0.3,0.4-0.5,0.6c-3.8,5.3-2.8,12.5,2.2,16.7c0.1,0.1,0.3,0.2,0.4,0.3l2.3,1.7c2.1,1.7,4.8,2.7,7.6,2.7
			c3.9,0,7.6-1.8,9.9-5c0-0.1,0.1-0.1,0.1-0.2c3.8-5.3,2.8-12.5-2.2-16.7c-0.1-0.1-0.3-0.2-0.4-0.3l-2.6-1.9c-0.1,0-0.1-0.1-0.2-0.1
			C66.7,215.8,64.3,215,61.7,215L61.7,215z"/>
	</g>
	<g>
		<path class="st3" d="M65,254.1c-0.6,0-1.9,0-3.2-0.7l-2.7-1.1c-3.7-1.6-5.5-5.9-4-9.5c1.2-2.7,3.8-4.5,6.7-4.5
			c1,0,1.9,0.2,2.8,0.6l3,1.3c3.7,1.6,5.5,5.8,4,9.4C70.6,252.2,67.9,254.1,65,254.1z"/>
		<path class="st3" d="M61.9,243.3c0.3,0,0.5,0.1,0.8,0.2l3.1,1.3c1.1,0.5,1.8,1.8,1.3,2.9c-0.3,0.8-1.3,1.5-2.1,1.5
			c-0.3,0-0.6,0-0.8-0.2l-3.1-1.3c-1.1-0.5-1.8-1.8-1.3-2.9C60.2,243.8,61,243.3,61.9,243.3 M61.9,233.3c-4.9,0-9.4,3-11.3,7.5
			c-1.3,3.1-1.3,6.7,0.2,9.8c1.3,2.8,3.6,5,6.4,6.2c0,0,0,0,0.1,0l2.4,1c1.6,0.8,3.3,1.2,5.3,1.2c4.8,0,9.5-3.1,11.3-7.6
			c2.6-6.1-0.4-13.3-6.6-15.9c0,0,0,0-0.1,0l-3.1-1.3C65.1,233.6,63.5,233.3,61.9,233.3L61.9,233.3z"/>
	</g>
	<g>
		<path class="st3" d="M75.4,266.9c-0.4,0-0.8,0-1.2-0.1c-3.7-0.9-6-4.4-5.5-8.2c0-0.1,0-0.2,0.1-0.4l0.6-3.2c0-0.1,0-0.2,0.1-0.2
			c0.8-3.3,3.7-5.6,7.2-5.6c0.3,0,0.7,0,1,0.1c0.2,0,0.4,0.1,0.6,0.1c3.7,0.9,6,4.4,5.5,8.2c0,0.1,0,0.2-0.1,0.4l-0.6,3.2
			c0,0.1-0.1,0.3-0.1,0.4c-0.9,3.2-3.8,5.4-7.1,5.4H75.4z"/>
		<path class="st3" d="M76.6,254.1c0.1,0,0.3,0,0.4,0c1.3,0.3,1.9,1.5,1.8,2.8l-0.6,3.2c-0.3,1.1-1.3,1.8-2.3,1.8
			c-0.2,0-0.3,0-0.5,0c-1.3-0.3-1.9-1.5-1.8-2.8l0.6-3.2C74.5,254.7,75.5,254.1,76.6,254.1 M76.6,244.1
			C76.6,244.1,76.6,244.1,76.6,244.1c-5.8,0-10.7,3.8-12.1,9.4c0,0.2-0.1,0.3-0.1,0.5l-0.6,3.2c0,0.2-0.1,0.5-0.1,0.7
			c-0.8,6.4,3.1,12.2,9.3,13.7c0.8,0.2,1.6,0.3,2.4,0.3h0.5c5.5,0,10.4-3.7,11.9-9c0.1-0.3,0.1-0.5,0.2-0.8l0.6-3.2
			c0-0.2,0.1-0.5,0.1-0.7c0.8-6.4-3.1-12.2-9.3-13.7c-0.4-0.1-0.8-0.2-1.2-0.2C77.7,244.1,77.1,244.1,76.6,244.1L76.6,244.1z"/>
	</g>
	<g>
		<path class="st3" d="M41.3,296.9c-4.1,0-7.3-3.2-7.3-7.3c0-3.8,2.8-6.9,6.6-7.4c0.2,0,0.4,0,0.6,0h3.2c3.8,0,6.9,2.8,7.4,6.6
			c0,0.2,0,0.4,0,0.6c0,3.8-2.8,6.9-6.6,7.4c-0.2,0-0.4,0-0.6,0H41.3z"/>
		<path class="st3" d="M44.6,287.2c1.3,0,2.3,1,2.4,2.3c0,1.3-1,2.3-2.3,2.4h-3.4c-1.3,0-2.3-1-2.3-2.3s1-2.3,2.3-2.4H44.6
			 M44.6,277.2h-3.2c-0.4,0-0.8,0-1.2,0.1c-6.3,0.8-11,6.1-11,12.4c0,6.8,5.5,12.3,12.3,12.3h3.4c0.4,0,0.8,0,1.2-0.1
			c6.3-0.8,11-6.1,11-12.4c0-0.4,0-0.8-0.1-1.2C56.1,281.9,50.8,277.2,44.6,277.2L44.6,277.2z"/>
	</g>
	<g>
		<path class="st3" d="M63.7,292.2c-0.4,0-0.8,0-1.2-0.1c-3.7-0.9-6-4.4-5.5-8.2c0-0.1,0-0.2,0.1-0.4l0.6-3.2c0-0.1,0-0.2,0.1-0.2
			c0.8-3.3,3.7-5.6,7.2-5.6c0.3,0,0.7,0,1,0.1c0.2,0,0.4,0.1,0.6,0.1c3.7,0.9,6,4.4,5.5,8.2c0,0.1,0,0.2-0.1,0.4l-0.6,3.1
			c-0.6,3.4-3.6,5.9-7.2,5.9H63.7z"/>
		<path class="st3" d="M64.9,279.4c0.1,0,0.3,0,0.4,0c1.3,0.3,1.9,1.5,1.8,2.8l-0.6,3.2c-0.2,1.1-1.1,1.8-2.3,1.8
			c-0.2,0-0.3,0-0.5,0c-1.3-0.3-1.9-1.5-1.8-2.8l0.6-3.2C62.9,280,63.8,279.4,64.9,279.4 M64.9,269.4
			C64.9,269.4,64.9,269.4,64.9,269.4c-5.8,0-10.7,3.8-12.1,9.4c0,0.2-0.1,0.3-0.1,0.5l-0.6,3.2c0,0.2-0.1,0.5-0.1,0.7
			c-0.8,6.4,3.1,12.2,9.3,13.7c0.8,0.2,1.6,0.3,2.4,0.3h0.5c6.1,0,11.1-4.2,12.1-10l0.6-3.1c0-0.2,0.1-0.5,0.1-0.7
			c0.8-6.4-3.1-12.2-9.3-13.7c-0.4-0.1-0.8-0.2-1.2-0.2C66,269.4,65.5,269.4,64.9,269.4L64.9,269.4z"/>
	</g>
	<g>
		<path class="st3" d="M45.1,284.7c-1.9,0-3.7-0.7-5.1-2l-2.3-2.2c-1.5-1.3-2.3-3.1-2.4-5.1c-0.1-1.8,0.6-3.6,1.7-5.1
			c1.3-1.6,3.3-2.5,5.5-2.5c1.7,0,3.5,0.6,4.8,1.7c0.1,0.1,0.1,0.1,0.2,0.2l2.4,2.2c2.8,2.4,3.2,6.7,1,9.7
			C49.7,283.6,47.6,284.7,45.1,284.7z"/>
		<path class="st3" d="M42.5,272.8c0.6,0,1.1,0.2,1.6,0.6l2.4,2.3c1,0.8,1,2.3,0.2,3.2c-0.3,0.6-1,0.8-1.6,0.8
			c-0.5,0-1.1-0.2-1.6-0.6l-2.4-2.3c-1-0.8-1-2.3-0.2-3.2C41.3,273,41.9,272.8,42.5,272.8 M42.5,262.8c-3.6,0-7,1.6-9.3,4.3
			c-4.3,5.1-3.7,12.7,1.1,17.1l2.2,2.1c2.3,2.2,5.3,3.4,8.5,3.4c4.2,0,7.8-1.9,9.9-5.2c3.6-5.1,2.8-12.1-1.8-16.2l-2.3-2.2
			c-0.1-0.1-0.3-0.3-0.4-0.4C48.2,263.8,45.4,262.8,42.5,262.8L42.5,262.8z"/>
	</g>
	<g>
		<path class="st3" d="M60.8,276c-0.8,0-1.7-0.1-2.7-0.5l-2.9-1.1c-0.1,0-0.2-0.1-0.2-0.1c-3.7-1.6-5.5-5.8-3.9-9.5
			c1.2-2.7,3.8-4.5,6.7-4.5c0.9,0,1.8,0.2,2.6,0.5l3,1.1c0.1,0,0.2,0.1,0.2,0.1c1.7,0.7,3.1,2,3.8,3.7c0.8,1.8,0.9,3.8,0.2,5.6
			C66.5,274.1,63.9,276,60.8,276z"/>
		<path class="st3" d="M57.7,265.3c0.3,0,0.5,0.1,0.8,0.2l3.1,1.1c1.1,0.5,1.8,1.8,1.3,2.9c-0.3,1-1.1,1.5-2.1,1.5
			c-0.3,0-0.5,0-0.8-0.2l-3.1-1.1c-1.1-0.5-1.8-1.8-1.3-2.9C56,265.9,56.8,265.3,57.7,265.3 M57.7,255.3
			C57.7,255.3,57.7,255.3,57.7,255.3c-4.9,0-9.4,3-11.3,7.5c-2.6,6.2,0.3,13.4,6.5,16c0.2,0.1,0.3,0.1,0.5,0.2l2.8,1
			c1.9,0.8,3.5,0.9,4.6,0.9c5.2,0,9.7-3.1,11.5-7.9c2.3-6.1-0.6-13-6.7-15.6c-0.2-0.1-0.3-0.1-0.5-0.2l-2.9-1.1
			C60.7,255.6,59.2,255.3,57.7,255.3L57.7,255.3z"/>
	</g>
	<g>
		<path class="st3" d="M45.4,265.4c-0.2,0-0.4,0-0.6,0c-2-0.3-3.8-1.4-5-3c-1.1-1.7-1.5-3.8-1.1-5.8l0.6-3c0.5-3.4,3.6-6,7.1-6
			c0.5,0,1,0.1,1.5,0.2c1.9,0.3,3.6,1.4,4.7,3c1.1,1.7,1.5,3.8,1.1,5.8l-0.6,3.1c-0.6,3.4-3.6,5.9-7.2,5.9H45.4z"/>
		<path class="st3" d="M46.4,252.6c0.2,0,0.4,0,0.6,0.1c1.3,0.2,2.1,1.5,1.8,2.8l-0.6,3.2c-0.2,1.1-1.1,1.8-2.3,1.8
			c-0.2,0-0.3,0-0.5,0c-1.3-0.2-2.1-1.5-1.8-2.8l0.6-3.2C44.4,253.3,45.4,252.6,46.4,252.6 M46.4,242.6
			C46.4,242.6,46.4,242.6,46.4,242.6c-6,0-11,4.3-12,10.1l-0.6,2.9c-0.7,3.3-0.1,6.8,1.8,9.6c2,2.9,5,4.7,8.5,5.2
			c0.4,0.1,0.8,0.1,1.2,0.1h0.5c6.1,0,11.1-4.2,12.1-10l0.6-2.9c0.7-3.3,0.1-6.8-1.8-9.6c-1.8-2.7-4.7-4.5-7.9-5.1
			C48.1,242.7,47.2,242.6,46.4,242.6L46.4,242.6z"/>
	</g>
	<g>
		<path class="st3" d="M82.6,289.9c-0.5,0-1.7,0-3-0.6l-2.6-1c-0.1,0-0.2-0.1-0.2-0.1c-3.7-1.6-5.5-5.8-3.9-9.5
			c1.2-2.7,3.8-4.5,6.7-4.5c0.9,0,1.8,0.2,2.6,0.5l3,1.1c0.1,0,0.2,0.1,0.2,0.1c3.7,1.6,5.5,5.8,3.9,9.4
			C88.3,288,85.5,289.9,82.6,289.9z"/>
		<path class="st3" d="M79.6,279.2c0.3,0,0.5,0.1,0.8,0.2l3.1,1.1c1.1,0.5,1.8,1.8,1.3,2.9c-0.3,0.8-1.3,1.5-2.1,1.5
			c-0.3,0-0.6,0-0.8-0.2l-3.1-1.1c-1.1-0.5-1.8-1.8-1.3-2.9C77.8,279.8,78.7,279.2,79.6,279.2 M79.6,269.2c-4.9,0-9.4,3-11.3,7.5
			c-2.6,6.2,0.3,13.4,6.5,16c0.2,0.1,0.3,0.1,0.5,0.2l2.4,0.9c1.5,0.7,3.1,1,5,1c4.8,0,9.5-3.1,11.3-7.6c2.6-6.1-0.4-13.3-6.6-15.9
			c-0.2-0.1-0.3-0.1-0.5-0.2l-2.9-1.1C82.6,269.5,81.1,269.2,79.6,269.2L79.6,269.2z"/>
	</g>
	<g>
		<path class="st3" d="M86.9,300.9c-4.1,0-7.3-3.2-7.3-7.3c0-3.8,2.8-6.9,6.6-7.4c0.1,0,0.2,0,0.4,0l3.2-0.2c0.1,0,0.2,0,0.2,0
			c3.8,0,6.9,2.8,7.4,6.6c0,0.2,0,0.4,0,0.6c0,3.8-2.8,6.9-6.6,7.4c-0.1,0-0.3,0-0.4,0l-3.1,0.1C87.2,300.9,87.1,300.9,86.9,300.9
			L86.9,300.9z"/>
		<path class="st3" d="M90.1,291c1.3,0,2.3,1,2.4,2.3c0,1.3-1,2.3-2.3,2.4l-3.4,0.2c0.1,0,0.1,0,0.1,0h-0.1c-1.3,0-2.3-1-2.3-2.3
			s1-2.3,2.3-2.4L90.1,291 M90.1,281c-0.2,0-0.3,0-0.5,0l-3.2,0.2c-0.2,0-0.5,0-0.7,0.1c-6.3,0.8-11,6.1-11,12.4
			c0,6.8,5.5,12.3,12.3,12.3h0.1c0.3,0,0.5,0,0.8,0l3.1-0.1c0.3,0,0.5,0,0.8-0.1c6.3-0.8,11-6.1,11-12.4c0-0.4,0-0.8-0.1-1.2
			C101.7,285.8,96.4,281,90.1,281L90.1,281z"/>
	</g>
	<g>
		<path class="st3" d="M68.2,308c-1.1,0-2-0.3-2.5-0.5l-0.2-0.1c-0.2-0.1-0.4-0.2-0.7-0.3l-2.9-1.5c-0.1,0-0.2-0.1-0.2-0.1
			c-3.6-2-4.8-6.4-2.8-9.9c1.3-2.3,3.8-3.8,6.4-3.8c1.2,0,2.3,0.3,3.4,0.9l2.8,1.4c0.1,0,0.2,0.1,0.2,0.1c3.5,2,4.8,6.1,3,9.6
			C73.5,306.5,71.1,308,68.2,308z"/>
		<path class="st3" d="M65.2,296.9c0.4,0,0.7,0.1,1.1,0.3l2.9,1.5c1.1,0.6,1.6,1.9,1,3.1c-0.3,0.8-1,1.3-1.9,1.3
			c-0.3,0-0.6-0.2-1.1-0.3l-2.9-1.5c-1.1-0.6-1.6-1.9-1-3.1C63.7,297.4,64.4,296.9,65.2,296.9 M65.2,286.9
			C65.2,286.9,65.2,286.9,65.2,286.9c-4.4,0-8.5,2.4-10.7,6.3c-1.7,3-2.1,6.6-1,9.8c1,2.9,3,5.3,5.7,6.9c0.2,0.1,0.3,0.2,0.5,0.3
			l2.9,1.5c0.4,0.2,0.9,0.4,1.3,0.5l0.1,0c0.7,0.3,2.2,0.8,4.2,0.8c4.8,0,9-2.7,11-7c1.4-2.9,1.7-6.2,0.6-9.2c-1-2.9-3-5.3-5.7-6.9
			c-0.2-0.1-0.3-0.2-0.5-0.3l-2.8-1.4C69.2,287.4,67.2,286.9,65.2,286.9L65.2,286.9z"/>
	</g>
	<g>
		<path class="st3" d="M88.8,315.2c-1.9,0-3.7-0.7-5.1-2l-2.3-2.2c-1.5-1.3-2.3-3.1-2.4-5.1c-0.1-1.8,0.6-3.6,1.7-5.1
			c1.4-1.6,3.3-2.5,5.5-2.5c1.7,0,3.4,0.6,4.8,1.7c0.1,0.1,0.1,0.1,0.2,0.2l2.4,2.2c1.5,1.3,2.3,3.1,2.4,5.1
			c0.1,1.8-0.6,3.6-1.7,5.1c-0.1,0.1-0.2,0.2-0.3,0.3C92.4,314.4,90.7,315.2,88.8,315.2z"/>
		<path class="st3" d="M86.2,303.3c0.6,0,1.1,0.2,1.6,0.6l2.4,2.3c1,0.8,1,2.3,0.2,3.2c-0.5,0.5-1,0.8-1.6,0.8
			c-0.5,0-1.1-0.2-1.6-0.6l-2.4-2.3c-1-0.8-1-2.3-0.2-3.2C85,303.5,85.6,303.3,86.2,303.3 M86.2,293.3c-3.6,0-7,1.6-9.3,4.3
			c-4.3,5.1-3.7,12.7,1.1,17.1l2.2,2.1c2.3,2.2,5.3,3.4,8.5,3.4c2.3,0,5.6-0.6,8.7-3.7c0.2-0.2,0.4-0.4,0.6-0.7
			c4.3-5.1,3.7-12.7-1.1-17.1l-2.3-2.2c-0.1-0.1-0.3-0.3-0.4-0.4C92,294.3,89.1,293.3,86.2,293.3L86.2,293.3z"/>
	</g>
	<g>
		<path class="st3" d="M46.5,312.6c-2.4,0-4.5-1.1-5.9-3c-0.1-0.1-0.1-0.2-0.2-0.3l-1.8-2.8c-2.2-3.3-1.3-7.7,1.9-10
			c0,0,0.1-0.1,0.1-0.1c1.2-0.8,2.6-1.2,4-1.2c2.4,0,4.6,1.2,6,3.1c0,0.1,0.1,0.1,0.1,0.2l1.8,2.8c2.2,3.3,1.3,7.7-1.9,10
			c-0.4,0.3-0.9,0.5-1.3,0.7C48.6,312.2,47.7,312.6,46.5,312.6z"/>
		<path class="st3" d="M44.7,300.2c0.7,0,1.5,0.3,2,1l1.8,2.8c0.6,1,0.5,2.4-0.6,3.2c-0.5,0.2-1,0.3-1.3,0.3c-0.8,0-1.5-0.3-1.9-1
			l-1.8-2.8c-0.6-1-0.5-2.4,0.6-3.2C43.8,300.4,44.3,300.2,44.7,300.2 M44.7,290.2C44.7,290.2,44.7,290.2,44.7,290.2
			c-2.4,0-4.8,0.7-6.8,2.1c-0.1,0.1-0.2,0.1-0.3,0.2c-5.5,3.9-6.9,11.3-3.2,16.8l1.8,2.7c0.1,0.2,0.3,0.4,0.4,0.6c2.4,3.2,6,5,9.9,5
			c1.9,0,3.5-0.5,4.5-0.8c0.9-0.3,1.8-0.8,2.6-1.3c5.5-3.9,6.9-11.3,3.2-16.8l-1.8-2.7c-0.1-0.1-0.2-0.3-0.3-0.4
			C52.5,292.2,48.7,290.2,44.7,290.2L44.7,290.2z"/>
	</g>
</g>
<g>
	<g>
		<g>
			<g>
				<path class="st3" d="M323.9,354.2c-5.3,0-9.5-4.3-9.5-9.5v-18.3c0-2.8,2.2-5,5-5h11.5c2.8,0,5,2.2,5,5v18.3c0,0.1,0,0.2,0,0.3
					c-0.3,5.1-4.7,9.2-9.7,9.2H323.9z"/>
				<path class="st3" d="M330.9,326.4v18.3c-0.2,2.4-2.3,4.5-4.7,4.5h-2.3c-2.6,0-4.5-2.1-4.5-4.5v-18.3H330.9 M330.9,316.4h-11.5
					c-5.5,0-10,4.5-10,10v18.3c0,8,6.5,14.5,14.5,14.5h2.3c7.7,0,14.2-6.1,14.7-13.9c0-0.2,0-0.4,0-0.7v-18.3
					C340.9,320.8,336.4,316.4,330.9,316.4L330.9,316.4z"/>
			</g>
			<g>
				<path class="st3" d="M323.9,356.5c-6.6,0-12-5.4-12-12v-20.7c0-2.8,2.2-5,5-5h16c2.8,0,5,2.2,5,5v20.7c0,6.6-5.3,12-11.8,12
					H323.9z"/>
				<path class="st3" d="M333,323.8v20.7c0,3.9-3.1,7-6.8,7h-2.3c-3.7,0-7-3.1-7-7v-20.7H333 M323.7,346.8h2.3c1.3,0,2.3-1,2.3-2.3
					v-16h-6.8v16C321.5,345.8,322.4,346.8,323.7,346.8 M333,313.8h-16c-5.5,0-10,4.5-10,10v20.7c0,9.4,7.6,17,17,17h2.3
					c9.3,0,16.8-7.6,16.8-17v-20.7C343,318.2,338.5,313.8,333,313.8L333,313.8z"/>
			</g>
		</g>
		<g>
			<g>
				<path class="st3" d="M303.2,331.4c-7.8,0-14.1-6.3-14.1-14.1v-4.9c0-2.8,2.2-5,5-5h63c2.8,0,5,2.2,5,5v4.9
					c0,7.8-6.3,14.1-14.1,14.1H303.2z"/>
				<path class="st3" d="M357.1,312.4v4.9c0,5-4,9.1-9.1,9.1h-44.9c-5,0-9.1-4-9.1-9.1v-4.9H357.1 M357.1,302.4h-63
					c-5.5,0-10,4.5-10,10v4.9c0,10.5,8.6,19.1,19.1,19.1H348c10.5,0,19.1-8.6,19.1-19.1v-4.9C367.1,306.9,362.6,302.4,357.1,302.4
					L357.1,302.4z"/>
			</g>
		</g>
		<g>
			<path class="st3" d="M293.6,317.4c-2.8,0-5-2.2-5-5v-61.6c0-7.4,2.3-14.5,6.6-20.6c0.1-0.1,0.1-0.2,0.2-0.3
				c0.1-0.2,0.3-0.4,0.5-0.6c0.5-0.7,1.1-1.5,1.8-2.2l1.8-1.8c0.4-0.4,0.8-0.7,1-0.9l0,0c0.5-0.5,1.2-1.1,2-1.7
				c0.1-0.1,0.3-0.2,0.5-0.3c0.3-0.3,0.6-0.5,0.9-0.7l0,0c0.3-0.2,0.7-0.5,1.3-0.8c0.2-0.1,0.4-0.2,0.5-0.3c0.3-0.2,0.6-0.4,1-0.6
				c0.3-0.2,0.7-0.4,0.9-0.5c0.5-0.3,0.9-0.5,1.2-0.6c0.1,0,0.1,0,0.2-0.1c0.1-0.1,0.3-0.1,0.4-0.2c0.4-0.2,0.8-0.3,1-0.4
				c0.1,0,0.1-0.1,0.2-0.1c0.5-0.2,1-0.4,1.4-0.5c0.3-0.1,0.6-0.2,0.9-0.3c0.3-0.1,0.5-0.2,0.8-0.2c0.2-0.1,0.5-0.1,0.8-0.2
				c0.3-0.1,1.2-0.3,1.3-0.3c0.5-0.2,1-0.4,1.7-0.4c0.5-0.1,1-0.1,1.4-0.2c0.3,0,0.6-0.1,0.8-0.1c0.3-0.1,0.7-0.1,1-0.1h0.3
				c1.2-0.2,2.2-0.2,3.1-0.2h2.6c1,0,1.9,0,3.1,0.2h0.3c1,0,2.1,0.1,3.6,0.4c0.3,0.1,0.6,0.1,0.8,0.2c0.3,0.1,0.5,0.1,0.8,0.2
				c0.3,0.1,0.6,0.1,0.9,0.2c0.3,0.1,0.6,0.1,0.8,0.2c1.1,0.2,1.9,0.6,2.6,0.9c0,0,0.6,0.2,0.7,0.3c0.2,0.1,0.6,0.2,1,0.4
				c0.1,0.1,0.3,0.1,0.4,0.2c0.1,0,0.1,0,0.2,0.1c0.2,0.1,0.5,0.2,0.8,0.4c0.6,0.2,1,0.5,1.4,0.8c0.3,0.2,0.7,0.4,0.9,0.6
				c0.2,0.1,0.4,0.2,0.6,0.3c0.5,0.3,1,0.6,1.2,0.8c0.8,0.4,1.6,1,2.2,1.6c0.1,0.1,0.4,0.4,0.6,0.5c0.2,0.2,0.4,0.3,0.6,0.5l0,0
				c0.2,0.2,0.6,0.5,1,0.9l1.8,1.8c0.2,0.2,0.3,0.3,0.5,0.5c0.2,0.2,0.4,0.4,0.5,0.6c0.2,0.3,0.5,0.6,0.7,0.9
				c0.3,0.3,0.6,0.7,0.9,1.2c4.4,6.2,6.6,13.4,6.1,20.4v61.5c0,2.8-2.2,5-5,5H293.6z"/>
			<path class="st3" d="M326.5,220.9c1,0,1.8,0,2.8,0.2c0.2,0,0.5,0,0.6,0c0.8,0,1.8,0.2,2.6,0.3c0.2,0.2,0.3,0.2,0.5,0.2
				c0.6,0.2,1.5,0.3,2.1,0.5c0.2,0,0.5,0.2,0.6,0.2c0.8,0.2,1.5,0.5,2.3,0.8c0.3,0.2,0.5,0.2,0.8,0.3c0.5,0.3,1.1,0.5,1.6,0.8
				c0.2,0,0.5,0.2,0.6,0.3c0.6,0.3,1.3,0.8,1.9,1.1c0.3,0.2,0.6,0.5,1,0.6c0.3,0.2,0.8,0.5,1.1,0.8c0.3,0.3,0.8,0.8,1.3,1.1
				c0.3,0.3,0.6,0.5,1,0.8c0.3,0.3,0.6,0.6,1,1c0.3,0.3,0.5,0.5,0.8,0.8c0.5,0.6,1,1.1,1.5,1.8c0.2,0.2,0.3,0.3,0.5,0.6
				c3.6,4.9,5.8,11,5.3,17.5v25.4v36.3h-62.9v-36.1v-25.4c0-6.6,2.1-12.6,5.7-17.7c0.2-0.2,0.3-0.5,0.5-0.6c0.5-0.6,1-1.3,1.5-1.8
				c0.3-0.3,0.5-0.5,0.8-0.8c0.3-0.3,0.6-0.6,1-1c0.3-0.3,0.6-0.5,1-0.8c0.3-0.3,0.8-0.8,1.3-1.1c0.3-0.2,0.8-0.5,1.1-0.8
				c0.3-0.2,0.6-0.5,1-0.6c0.6-0.3,1.3-0.8,1.9-1.1c0.2-0.2,0.5-0.2,0.6-0.3c0.5-0.3,1.1-0.5,1.6-0.8c0.3-0.2,0.5-0.2,0.8-0.3
				c0.8-0.3,1.5-0.5,2.3-0.8c0.2,0,0.5-0.2,0.6-0.2c0.6-0.2,1.5-0.3,2.1-0.5c0.2-0.2,0.3-0.2,0.5-0.2c0.8-0.2,1.8-0.2,2.6-0.3
				c0.2,0,0.5,0,0.6,0c1-0.2,1.8-0.2,2.8-0.2H326.5 M326.5,210.9h-2.6c-0.9,0-2.1,0-3.4,0.2c-0.6,0-1.2,0.1-1.8,0.2
				c-0.1,0-0.3,0-0.4,0c-0.4,0-1,0.1-1.6,0.2c-0.9,0.1-1.7,0.3-2.5,0.6c-0.3,0.1-0.6,0.1-0.9,0.2c-0.4,0.1-0.7,0.2-1,0.3
				c-0.5,0.1-0.9,0.3-1.3,0.4c-0.1,0.1-0.3,0.1-0.6,0.2c-0.4,0.1-1,0.3-1.7,0.6c-0.1,0-0.1,0-0.2,0.1c-0.4,0.1-0.9,0.3-1.4,0.6
				c-0.1,0.1-0.3,0.1-0.4,0.2c-0.3,0.1-0.8,0.3-1.3,0.6c-0.4,0.2-0.8,0.4-1.2,0.7c-0.4,0.2-0.8,0.5-1.1,0.7
				c-0.1,0.1-0.2,0.1-0.3,0.2c-0.8,0.4-1.4,0.8-1.7,1.1c-0.4,0.2-0.7,0.5-1,0.7c-0.1,0.1-0.2,0.1-0.3,0.2c-1.1,0.7-1.9,1.5-2.5,2
				c-0.3,0.2-0.8,0.6-1.3,1.2l-1,1l-0.3,0.3l-0.5,0.5c-0.9,0.9-1.6,1.8-2.2,2.6c-0.2,0.3-0.4,0.6-0.6,0.8c-0.1,0.1-0.2,0.2-0.2,0.3
				c-4.9,6.9-7.5,15-7.5,23.4v25.4v36.1c0,5.5,4.5,10,10,10h62.9c5.5,0,10-4.5,10-10v-36.3V251c0.5-8-2-16.3-6.9-23.3
				c-0.4-0.7-0.9-1.3-1.3-1.7c-0.3-0.4-0.5-0.7-0.7-0.9c-0.1-0.1-0.3-0.3-0.3-0.4c-0.3-0.4-0.6-0.7-0.9-1.1l-0.4-0.4l-0.4-0.4l-1-1
				c-0.6-0.6-1.1-1-1.4-1.2c-0.2-0.2-0.5-0.4-0.7-0.6c-0.1-0.1-0.1-0.1-0.1-0.1c-0.8-0.8-1.9-1.6-3-2.3c-0.4-0.3-0.9-0.6-1.6-1
				c-0.1-0.1-0.2-0.1-0.3-0.2c-0.3-0.2-0.6-0.4-0.9-0.6c-0.6-0.4-1.3-0.7-1.9-1c-0.3-0.2-0.6-0.3-0.8-0.4c-0.1-0.1-0.3-0.1-0.4-0.2
				c-0.6-0.3-1-0.5-1.4-0.6c-0.1,0-0.1,0-0.2-0.1c-0.1-0.1-0.3-0.1-0.4-0.2c-0.7-0.3-1.8-0.8-3.3-1.1c-0.3-0.1-0.6-0.2-1-0.2
				c-0.3-0.1-0.6-0.1-0.9-0.2c-0.2,0-0.3-0.1-0.5-0.1c-0.4-0.1-0.8-0.3-1.3-0.3c-1.7-0.3-3.2-0.5-4.5-0.5
				C328.6,210.9,327.4,210.9,326.5,210.9L326.5,210.9z"/>
		</g>
	</g>
	<g>
		<path class="st3" d="M306.4,243.9c-2,0-3.8-0.7-5.2-2.1c-2.9-2.9-2.9-7.4,0-10.3l2.3-2.3c1.4-1.4,3.2-2.2,5.2-2.2
			c1.9,0,3.7,0.8,5.2,2.2c2.9,2.9,2.9,7.4,0,10.3l-2.3,2.3C310.2,243.2,308.4,243.9,306.4,243.9z"/>
		<path class="st3" d="M308.7,232c0.6,0,1.1,0.2,1.6,0.7c1,1,1,2.3,0,3.2l-2.3,2.3c-0.5,0.5-1,0.6-1.6,0.6c-0.6,0-1.1-0.2-1.6-0.6
			c-1-1-1-2.3,0-3.2l2.3-2.3C307.5,232.2,308.1,232,308.7,232 M308.7,222c-3.2,0-6.3,1.3-8.7,3.7l-2.3,2.3c-4.9,4.9-4.9,12.5,0,17.4
			c2.3,2.3,5.3,3.6,8.7,3.6s6.4-1.2,8.7-3.6l2.3-2.3c4.9-4.9,4.9-12.5,0-17.4C315,223.3,311.9,222,308.7,222L308.7,222z"/>
	</g>
	<g>
		<path class="st3" d="M324.7,236.6c-1.7,0-3.3-0.6-4.5-1.6l-2.4-1.8c-0.1-0.1-0.1-0.1-0.2-0.2c-3-2.5-3.6-6.8-1.4-10
			c0.1-0.1,0.1-0.2,0.2-0.3c1.5-1.7,3.5-2.7,5.7-2.7c1.5,0,3,0.5,4.3,1.4c0,0,2.7,2,2.7,2c0.1,0.1,0.1,0.1,0.2,0.2
			c3.1,2.6,3.6,6.8,1.4,10c0,0,0,0.1-0.1,0.1C329.2,235.5,327.1,236.6,324.7,236.6z"/>
		<path class="st3" d="M322.2,225c0.5,0,0.9,0.1,1.4,0.5l2.6,1.9c1,0.8,1.3,2.1,0.5,3.2c-0.5,0.6-1.1,1-1.9,1c-0.5,0-1-0.2-1.3-0.5
			l-2.6-1.9c-1-0.8-1.3-2.1-0.5-3.2C320.8,225.3,321.5,225,322.2,225 M322.2,215C322.2,215,322.2,215,322.2,215
			c-3.7,0-7.2,1.7-9.6,4.5c-0.2,0.2-0.3,0.4-0.5,0.6c-3.8,5.3-2.8,12.5,2.2,16.7c0.1,0.1,0.3,0.2,0.4,0.3l2.3,1.7
			c2.1,1.7,4.8,2.7,7.6,2.7c3.9,0,7.6-1.8,9.9-5c0-0.1,0.1-0.1,0.1-0.2c3.8-5.3,2.8-12.5-2.2-16.7c-0.1-0.1-0.3-0.2-0.4-0.3
			l-2.6-1.9c-0.1,0-0.1-0.1-0.2-0.1C327.3,215.8,324.8,215,322.2,215L322.2,215z"/>
	</g>
	<g>
		<path class="st3" d="M325.5,254.1c-0.6,0-1.9,0-3.2-0.7l-2.7-1.1c-3.8-1.6-5.5-5.9-4-9.5c1.2-2.7,3.8-4.5,6.7-4.5
			c1,0,1.9,0.2,2.8,0.6l3,1.3c1.7,0.7,3.1,2.1,3.9,3.7c0.8,1.8,0.9,3.9,0.1,5.7C331.1,252.2,328.4,254.1,325.5,254.1z"/>
		<path class="st3" d="M322.5,243.3c0.3,0,0.5,0.1,0.8,0.2l3.1,1.3c1.1,0.5,1.8,1.8,1.3,2.9c-0.3,0.8-1.3,1.5-2.1,1.5
			c-0.3,0-0.6,0-0.8-0.2l-3.1-1.3c-1.1-0.5-1.8-1.8-1.3-2.9C320.7,243.8,321.6,243.3,322.5,243.3 M322.5,233.3
			c-4.9,0-9.4,3-11.3,7.5c-1.3,3.1-1.3,6.7,0.2,9.8c1.3,2.8,3.6,5,6.4,6.2c0,0,0,0,0.1,0l2.4,1c1.6,0.8,3.3,1.2,5.3,1.2
			c4.8,0,9.5-3.1,11.3-7.6c1.3-3.1,1.2-6.6-0.2-9.7c-1.3-2.8-3.6-5-6.4-6.2c0,0,0,0-0.1,0l-3.1-1.3
			C325.7,233.6,324.1,233.3,322.5,233.3L322.5,233.3z"/>
	</g>
	<g>
		<path class="st3" d="M335.9,266.9c-0.4,0-0.8,0-1.2-0.1c-3.7-0.9-6-4.4-5.5-8.2c0-0.1,0-0.2,0.1-0.4l0.6-3.2c0-0.1,0-0.2,0.1-0.2
			c0.8-3.3,3.7-5.6,7.2-5.6c0.3,0,0.7,0,1,0.1c0.2,0,0.4,0.1,0.6,0.1c3.7,0.9,6,4.4,5.5,8.2c0,0.1,0,0.2-0.1,0.4l-0.6,3.2
			c0,0.1-0.1,0.3-0.1,0.4c-0.9,3.2-3.8,5.4-7.1,5.4H335.9z"/>
		<path class="st3" d="M337.1,254.1c0.1,0,0.3,0,0.4,0c1.3,0.3,1.9,1.5,1.8,2.8l-0.6,3.2c-0.3,1.1-1.3,1.8-2.3,1.8
			c-0.2,0-0.3,0-0.5,0c-1.3-0.3-1.9-1.5-1.8-2.8l0.6-3.2C335,254.7,336,254.1,337.1,254.1 M337.1,244.1
			C337.1,244.1,337.1,244.1,337.1,244.1c-5.8,0-10.7,3.8-12.1,9.4c0,0.2-0.1,0.3-0.1,0.5l-0.6,3.2c0,0.2-0.1,0.5-0.1,0.7
			c-0.8,6.4,3.1,12.2,9.3,13.7c0.8,0.2,1.6,0.3,2.4,0.3h0.5c5.5,0,10.4-3.7,11.9-9c0.1-0.3,0.1-0.5,0.2-0.8l0.6-3.2
			c0-0.2,0.1-0.5,0.1-0.7c0.8-6.4-3.1-12.2-9.3-13.7c-0.4-0.1-0.8-0.2-1.2-0.2C338.2,244.1,337.7,244.1,337.1,244.1L337.1,244.1z"/>
	</g>
	<g>
		<path class="st3" d="M301.9,296.9c-4.1,0-7.3-3.2-7.3-7.3c0-3.8,2.8-6.9,6.6-7.4c0.2,0,0.4,0,0.6,0h3.2c3.8,0,6.9,2.8,7.4,6.6
			c0,0.2,0,0.4,0,0.6c0,3.8-2.8,6.9-6.6,7.4c-0.2,0-0.4,0-0.6,0H301.9z"/>
		<path class="st3" d="M305.1,287.2c1.3,0,2.3,1,2.4,2.3c0,1.3-1,2.3-2.3,2.4h-3.4c-1.3,0-2.3-1-2.3-2.3s1-2.3,2.3-2.4H305.1
			 M305.1,277.2h-3.2c-0.4,0-0.8,0-1.2,0.1c-6.3,0.8-11,6.1-11,12.4c0,6.8,5.5,12.3,12.3,12.3h3.4c0.4,0,0.8,0,1.2-0.1
			c6.3-0.8,11-6.1,11-12.4c0-0.4,0-0.8-0.1-1.2C316.7,281.9,311.4,277.2,305.1,277.2L305.1,277.2z"/>
	</g>
	<g>
		<path class="st3" d="M324.2,292.2c-0.4,0-0.8,0-1.2-0.1c-3.7-0.9-6-4.4-5.5-8.2c0-0.1,0-0.2,0.1-0.4l0.6-3.2c0-0.1,0-0.2,0.1-0.2
			c0.8-3.3,3.7-5.6,7.2-5.6c0.3,0,0.7,0,1,0.1c0.2,0,0.4,0.1,0.6,0.1c3.7,0.9,6,4.4,5.5,8.2c0,0.1,0,0.2-0.1,0.4l-0.6,3.1
			c-0.6,3.4-3.6,5.9-7.2,5.9H324.2z"/>
		<path class="st3" d="M325.5,279.4c0.1,0,0.3,0,0.4,0c1.3,0.3,1.9,1.5,1.8,2.8l-0.6,3.2c-0.2,1.1-1.1,1.8-2.3,1.8
			c-0.2,0-0.3,0-0.5,0c-1.3-0.3-1.9-1.5-1.8-2.8l0.6-3.2C323.4,280,324.3,279.4,325.5,279.4 M325.5,269.4
			C325.5,269.4,325.5,269.4,325.5,269.4c-5.8,0-10.7,3.8-12.1,9.4c0,0.2-0.1,0.3-0.1,0.5l-0.6,3.2c0,0.2-0.1,0.5-0.1,0.7
			c-0.8,6.4,3.1,12.2,9.3,13.7c0.8,0.2,1.6,0.3,2.4,0.3h0.5c6.1,0,11.1-4.2,12.1-10l0.6-3.1c0-0.2,0.1-0.5,0.1-0.7
			c0.8-6.4-3.1-12.2-9.3-13.7c-0.4-0.1-0.8-0.2-1.2-0.2C326.5,269.4,326,269.4,325.5,269.4L325.5,269.4z"/>
	</g>
	<g>
		<path class="st3" d="M305.6,284.7c-1.9,0-3.7-0.7-5.1-2l-2.3-2.2c-2.9-2.6-3.2-7.1-0.7-10.2c1.4-1.6,3.3-2.6,5.5-2.6
			c1.7,0,3.5,0.6,4.8,1.7c0.1,0.1,0.1,0.1,0.2,0.2l2.4,2.2c1.5,1.3,2.3,3.1,2.4,5.1c0.1,1.7-0.4,3.3-1.4,4.6
			C310.2,283.6,308.1,284.7,305.6,284.7z"/>
		<path class="st3" d="M303,272.8c0.6,0,1.1,0.2,1.6,0.6l2.4,2.3c1,0.8,1,2.3,0.2,3.2c-0.3,0.6-1,0.8-1.6,0.8
			c-0.5,0-1.1-0.2-1.6-0.6l-2.4-2.3c-1-0.8-1-2.3-0.2-3.2C301.8,273,302.4,272.8,303,272.8 M303,262.8c-3.6,0-7,1.6-9.3,4.3
			c-4.3,5.1-3.7,12.7,1.1,17.1l2.2,2.1c2.3,2.2,5.3,3.4,8.5,3.4c4.2,0,7.8-1.9,9.9-5.2c3.6-5.1,2.8-12.1-1.8-16.2l-2.3-2.2
			c-0.1-0.1-0.3-0.3-0.4-0.4C308.8,263.8,305.9,262.8,303,262.8L303,262.8z"/>
	</g>
	<g>
		<path class="st3" d="M321.3,276c-0.8,0-1.7-0.1-2.7-0.5l-2.9-1.1c-0.1,0-0.2-0.1-0.2-0.1c-1.7-0.7-3.1-2-3.8-3.7
			c-0.8-1.8-0.9-3.9-0.1-5.8c1.2-2.7,3.8-4.5,6.7-4.5c0.9,0,1.8,0.2,2.6,0.5l3,1.1c0.1,0,0.2,0.1,0.2,0.1c1.7,0.7,3.1,2,3.8,3.7
			c0.8,1.8,0.9,3.8,0.2,5.6C327.1,274.1,324.4,276,321.3,276z"/>
		<path class="st3" d="M318.2,265.3c0.3,0,0.5,0.1,0.8,0.2l3.1,1.1c1.1,0.5,1.8,1.8,1.3,2.9c-0.3,1-1.1,1.5-2.1,1.5
			c-0.3,0-0.5,0-0.8-0.2l-3.1-1.1c-1.1-0.5-1.8-1.8-1.3-2.9C316.5,265.9,317.4,265.3,318.2,265.3 M318.3,255.3
			C318.2,255.3,318.2,255.3,318.3,255.3c-4.9,0-9.4,3-11.3,7.5c-2.6,6.2,0.3,13.4,6.5,16c0.2,0.1,0.3,0.1,0.5,0.2l2.8,1
			c1.9,0.8,3.5,0.9,4.6,0.9c5.2,0,9.7-3.1,11.5-7.9c1.2-3,1.1-6.4-0.3-9.4c-1.3-2.8-3.6-5-6.4-6.2c-0.2-0.1-0.3-0.1-0.5-0.2
			l-2.9-1.1C321.2,255.6,319.8,255.3,318.3,255.3L318.3,255.3z"/>
	</g>
	<g>
		<path class="st3" d="M305.9,265.4c-0.2,0-0.4,0-0.6,0c-2-0.3-3.8-1.4-5-3c-1.1-1.7-1.5-3.8-1.1-5.8l0.6-3c0.5-3.4,3.6-6,7.1-6
			c0.5,0,1,0.1,1.5,0.2c1.9,0.3,3.6,1.4,4.7,3c1.1,1.7,1.5,3.8,1.1,5.8l-0.6,3.1c-0.6,3.4-3.6,5.9-7.2,5.9H305.9z"/>
		<path class="st3" d="M307,252.6c0.2,0,0.4,0,0.6,0.1c1.3,0.2,2.1,1.5,1.8,2.8l-0.6,3.2c-0.2,1.1-1.1,1.8-2.3,1.8
			c-0.2,0-0.3,0-0.5,0c-1.3-0.2-2.1-1.5-1.8-2.8l0.6-3.2C304.9,253.3,305.9,252.6,307,252.6 M307,242.6
			C307,242.6,307,242.6,307,242.6c-6,0-11,4.3-12,10.1l-0.6,2.9c-0.7,3.3-0.1,6.8,1.8,9.6c2,2.9,5,4.7,8.5,5.2
			c0.4,0.1,0.8,0.1,1.2,0.1h0.5c6.1,0,11.1-4.2,12.1-10l0.6-2.9c0.7-3.3,0.1-6.8-1.8-9.6c-1.8-2.7-4.7-4.5-7.9-5.1
			C308.6,242.7,307.8,242.6,307,242.6L307,242.6z"/>
	</g>
	<g>
		<path class="st3" d="M343.2,289.9c-0.5,0-1.8,0-3-0.6l-2.6-1c-0.1,0-0.2-0.1-0.2-0.1c-1.7-0.7-3.1-2-3.8-3.7
			c-0.8-1.8-0.9-3.9-0.1-5.8c1.2-2.7,3.8-4.5,6.7-4.5c0.9,0,1.8,0.2,2.6,0.5l3,1.1c0.1,0,0.2,0.1,0.2,0.1c1.7,0.7,3.1,2,3.8,3.7
			c0.8,1.8,0.9,3.9,0.1,5.7C348.8,288,346.1,289.9,343.2,289.9z"/>
		<path class="st3" d="M340.1,279.2c0.3,0,0.5,0.1,0.8,0.2l3.1,1.1c1.1,0.5,1.8,1.8,1.3,2.9c-0.3,0.8-1.3,1.5-2.1,1.5
			c-0.3,0-0.6,0-0.8-0.2l-3.1-1.1c-1.1-0.5-1.8-1.8-1.3-2.9C338.4,279.8,339.2,279.2,340.1,279.2 M340.1,269.2
			c-4.9,0-9.4,3-11.3,7.5c-2.6,6.2,0.3,13.4,6.5,16c0.2,0.1,0.3,0.1,0.5,0.2l2.4,0.9c1.5,0.7,3.1,1,5,1c4.8,0,9.5-3.1,11.3-7.6
			c2.6-6.1-0.4-13.3-6.6-15.9c-0.2-0.1-0.3-0.1-0.5-0.2l-2.9-1.1C343.1,269.5,341.6,269.2,340.1,269.2L340.1,269.2z"/>
	</g>
	<g>
		<path class="st3" d="M347.4,300.9c-4.1,0-7.3-3.2-7.3-7.3c0-3.8,2.8-6.9,6.6-7.4c0.1,0,0.2,0,0.4,0l3.2-0.2c0.1,0,0.2,0,0.2,0
			c3.8,0,6.9,2.8,7.4,6.6c0,0.2,0,0.4,0,0.6c0,3.8-2.8,6.9-6.6,7.4c-0.1,0-0.3,0-0.4,0l-3.1,0.1
			C347.8,300.9,347.6,300.9,347.4,300.9L347.4,300.9z"/>
		<path class="st3" d="M350.6,291c1.3,0,2.3,1,2.4,2.3c0,1.3-1,2.3-2.3,2.4l-3.4,0.2c0.1,0,0.1,0,0.1,0h-0.1c-1.3,0-2.3-1-2.3-2.3
			s1-2.3,2.3-2.4L350.6,291 M350.6,281c-0.2,0-0.3,0-0.5,0l-3.2,0.2c-0.2,0-0.5,0-0.7,0.1c-6.3,0.8-11,6.1-11,12.4
			c0,6.8,5.5,12.3,12.3,12.3h0.1c0.3,0,0.5,0,0.8,0l3.1-0.1c0.3,0,0.5,0,0.8-0.1c6.3-0.8,11-6.1,11-12.4c0-0.4,0-0.8-0.1-1.2
			C362.2,285.8,356.9,281,350.6,281L350.6,281z"/>
	</g>
	<g>
		<path class="st3" d="M328.8,308c-1.1,0-2-0.3-2.5-0.5l-0.2-0.1c-0.2-0.1-0.4-0.2-0.7-0.3l-2.9-1.5c-0.1,0-0.2-0.1-0.2-0.1
			c-1.6-0.9-2.8-2.4-3.4-4.1c-0.6-1.9-0.4-4,0.6-5.8c1.3-2.3,3.8-3.8,6.4-3.8c1.2,0,2.3,0.3,3.4,0.9l2.8,1.4c0.1,0,0.2,0.1,0.2,0.1
			c3.5,2,4.8,6.1,3,9.6C334.1,306.5,331.6,308,328.8,308z"/>
		<path class="st3" d="M325.8,296.9c0.4,0,0.7,0.1,1.1,0.3l2.9,1.5c1.1,0.6,1.6,1.9,1,3.1c-0.3,0.8-1,1.3-1.9,1.3
			c-0.3,0-0.6-0.2-1.1-0.3l-2.9-1.5c-1.1-0.6-1.6-1.9-1-3.1C324.2,297.4,325,296.9,325.8,296.9 M325.8,286.9
			C325.8,286.9,325.8,286.9,325.8,286.9c-4.4,0-8.5,2.4-10.7,6.3c-1.7,3-2.1,6.6-1,9.8c1,2.9,3,5.3,5.7,6.9c0.2,0.1,0.3,0.2,0.5,0.3
			l2.9,1.5c0.4,0.2,0.9,0.4,1.3,0.5l0.1,0c0.7,0.3,2.2,0.8,4.2,0.8c4.8,0,9-2.6,11-7c2.9-5.8,0.8-12.8-5-16.1
			c-0.2-0.1-0.3-0.2-0.5-0.3l-2.8-1.4C329.7,287.4,327.7,286.9,325.8,286.9L325.8,286.9z"/>
	</g>
	<g>
		<path class="st3" d="M349.3,315.2c-1.9,0-3.7-0.7-5.1-2l-2.3-2.2c-1.5-1.3-2.3-3.1-2.4-5.1c-0.1-1.8,0.6-3.6,1.7-5.1
			c1.3-1.6,3.3-2.5,5.5-2.5c1.7,0,3.4,0.6,4.8,1.7c0.1,0.1,0.1,0.1,0.2,0.2l2.4,2.2c1.5,1.3,2.3,3.1,2.4,5.1
			c0.1,1.8-0.6,3.6-1.7,5.1c-0.1,0.1-0.2,0.2-0.3,0.3C353,314.4,351.2,315.2,349.3,315.2z"/>
		<path class="st3" d="M346.8,303.3c0.6,0,1.1,0.2,1.6,0.6l2.4,2.3c1,0.8,1,2.3,0.2,3.2c-0.5,0.5-1,0.8-1.6,0.8
			c-0.5,0-1.1-0.2-1.6-0.6l-2.4-2.3c-1-0.8-1-2.3-0.2-3.2C345.5,303.5,346.1,303.3,346.8,303.3 M346.8,293.3c-3.6,0-7,1.6-9.3,4.3
			c-4.3,5.1-3.7,12.7,1.1,17.1l2.2,2.1c2.3,2.2,5.3,3.4,8.5,3.4c2.3,0,5.6-0.6,8.7-3.7c0.2-0.2,0.4-0.4,0.6-0.7
			c4.3-5.1,3.7-12.7-1.1-17.1l-2.3-2.2c-0.1-0.1-0.3-0.3-0.4-0.4C352.5,294.3,349.7,293.3,346.8,293.3L346.8,293.3z"/>
	</g>
	<g>
		<path class="st3" d="M307.1,312.6c-2.4,0-4.5-1.1-5.9-3c-0.1-0.1-0.1-0.2-0.2-0.3l-1.8-2.8c-2.2-3.3-1.3-7.7,1.9-10
			c0,0,0.1-0.1,0.1-0.1c1.2-0.8,2.6-1.2,4-1.2c2.4,0,4.6,1.2,6,3.1c0,0.1,0.1,0.1,0.1,0.2l1.8,2.8c2.2,3.3,1.3,7.7-1.9,10
			c-0.4,0.3-0.8,0.5-1.3,0.7C309.2,312.2,308.2,312.6,307.1,312.6z"/>
		<path class="st3" d="M305.3,300.2c0.7,0,1.5,0.3,2,1l1.8,2.8c0.6,1,0.5,2.4-0.6,3.2c-0.5,0.2-1,0.3-1.3,0.3c-0.8,0-1.5-0.3-1.9-1
			l-1.8-2.8c-0.6-1-0.5-2.4,0.6-3.2C304.4,300.4,304.8,300.2,305.3,300.2 M305.3,290.2C305.3,290.2,305.3,290.2,305.3,290.2
			c-2.4,0-4.8,0.7-6.8,2.1c-0.1,0.1-0.2,0.1-0.3,0.2c-5.5,3.9-6.9,11.3-3.2,16.8l1.8,2.7c0.1,0.2,0.3,0.4,0.4,0.6c2.4,3.2,6,5,9.9,5
			c1.9,0,3.5-0.5,4.5-0.8c0.9-0.3,1.8-0.8,2.7-1.3c5.5-3.9,6.9-11.3,3.2-16.8l-1.8-2.7c-0.1-0.1-0.2-0.3-0.3-0.4
			C313,292.2,309.2,290.2,305.3,290.2L305.3,290.2z"/>
	</g>
</g>
<g>
	<g>
		<g>
			<path class="st4" d="M139,183h-2.3c-2.6,0-4.5-2.1-4.5-4.5v-18.3h11.5v18.3C143.5,180.9,141.6,183,139,183z"/>
			<path class="st4" d="M139,185.2h-2.3c-3.7,0-7-3.1-7-7v-20.7h16v20.7C145.9,182.2,142.9,185.2,139,185.2z M134.4,162.2v16
				c0,1.3,1,2.3,2.3,2.3h2.3c1.3,0,2.3-1,2.3-2.3v-16H134.4z"/>
		</g>
		<g>
			<path class="st5" d="M106.9,146.2v4.9c0,5,4,9.1,9.1,9.1h44.9c5,0,9.1-4,9.1-9.1v-4.9H106.9z"/>
		</g>
		<path class="st6" d="M164.1,67c-0.2-0.3-0.3-0.5-0.5-0.6c-0.5-0.6-1-1.1-1.5-1.8c-0.3-0.3-0.5-0.5-0.8-0.8c-0.3-0.3-0.6-0.6-1-1
			c-0.3-0.3-0.6-0.5-1-0.8c-0.5-0.3-1-0.8-1.3-1.1c-0.3-0.3-0.8-0.6-1.1-0.8c-0.3-0.2-0.6-0.5-1-0.6c-0.6-0.3-1.3-0.8-1.9-1.1
			c-0.2-0.2-0.5-0.3-0.6-0.3c-0.5-0.3-1.1-0.5-1.6-0.8c-0.3-0.2-0.5-0.2-0.8-0.3c-0.8-0.3-1.5-0.6-2.3-0.8c-0.2,0-0.5-0.2-0.6-0.2
			c-0.6-0.2-1.5-0.3-2.1-0.5c-0.2,0-0.3,0-0.5-0.2c-0.8-0.2-1.8-0.3-2.6-0.3c-0.2,0-0.5,0-0.6,0c-1-0.2-1.8-0.2-2.8-0.2h-2.6
			c-1,0-1.8,0-2.8,0.2c-0.2,0-0.5,0-0.6,0c-0.8,0.2-1.8,0.2-2.6,0.3c-0.2,0-0.3,0-0.5,0.2c-0.6,0.2-1.5,0.3-2.1,0.5
			c-0.2,0-0.5,0.2-0.6,0.2c-0.8,0.3-1.5,0.5-2.3,0.8c-0.3,0.2-0.5,0.2-0.8,0.3c-0.5,0.3-1.1,0.5-1.6,0.8c-0.2,0.2-0.5,0.2-0.6,0.3
			c-0.6,0.3-1.3,0.8-1.9,1.1c-0.3,0.2-0.6,0.5-1,0.6c-0.3,0.3-0.8,0.6-1.1,0.8c-0.5,0.3-1,0.8-1.3,1.1s-0.6,0.5-1,0.8
			c-0.3,0.3-0.6,0.6-1,1c-0.3,0.3-0.5,0.5-0.8,0.8c-0.5,0.5-1,1.1-1.5,1.8c-0.2,0.2-0.3,0.5-0.5,0.6c-3.6,5-5.7,11-5.7,17.7v25.4
			v36.1h63.2v-36.3V84.5C169.8,78,167.7,71.8,164.1,67z"/>
	</g>
	<path class="st7" d="M119.2,72.7c-0.6,0-1.1-0.2-1.6-0.6c-1-1-1-2.3,0-3.2l2.3-2.3c1-1,2.3-1,3.2,0s1,2.3,0,3.2l-2.3,2.3
		C120.5,72.5,119.9,72.7,119.2,72.7z"/>
	<path class="st8" d="M137.7,65.4c-0.5,0-1-0.2-1.3-0.5l-2.6-1.9c-1-0.8-1.3-2.1-0.5-3.2c0.8-1,2.1-1.3,3.2-0.5l2.6,1.9
		c1,0.8,1.3,2.1,0.5,3.2C139,65,138.3,65.4,137.7,65.4z"/>
	<path class="st7" d="M138.3,82.9c-0.3,0-0.6,0-0.8-0.2l-3.1-1.3c-1.1-0.5-1.8-1.8-1.3-2.9s1.8-1.8,2.9-1.3l3.1,1.3
		c1.1,0.5,1.8,1.8,1.3,2.9C140.1,82.2,139.3,82.9,138.3,82.9z"/>
	<path class="st8" d="M149.2,95.7c-0.2,0-0.3,0-0.5,0c-1.3-0.3-1.9-1.5-1.8-2.8l0.6-3.2c0.3-1.3,1.5-1.9,2.8-1.8
		c1.3,0.3,1.9,1.5,1.8,2.8l-0.6,3.2C151.1,95,150.2,95.7,149.2,95.7z"/>
	<path class="st7" d="M114.7,125.6c-1.3,0-2.3-1-2.3-2.3s1-2.3,2.3-2.4h3.2c1.3,0,2.3,1,2.4,2.3c0,1.3-1,2.3-2.3,2.4H114.7
		L114.7,125.6z"/>
	<path class="st8" d="M137.7,120.9c-0.2,0-0.3,0-0.5,0c-1.3-0.3-1.9-1.5-1.8-2.8l0.6-3.2c0.3-1.3,1.5-1.9,2.8-1.8
		c1.3,0.3,1.9,1.5,1.8,2.8l-0.6,3.2C139.6,120.3,138.7,120.9,137.7,120.9z"/>
	<path class="st8" d="M118.6,113.5c-0.5,0-1.1-0.2-1.6-0.6l-2.4-2.3c-1-0.8-1-2.3-0.2-3.2s2.3-1,3.2-0.2l2.4,2.3
		c1,0.8,1,2.3,0.2,3.2C119.7,113.3,119.2,113.5,118.6,113.5z"/>
	<path class="st7" d="M134.1,104.7c-0.3,0-0.5,0-0.8-0.2l-3.1-1.1c-1.1-0.5-1.8-1.8-1.3-2.9c0.5-1.1,1.8-1.8,2.9-1.3l3.1,1.1
		c1.1,0.5,1.8,1.8,1.3,2.9C135.9,104.2,135.1,104.7,134.1,104.7z"/>
	<path class="st8" d="M119.2,94.2c-0.2,0-0.3,0-0.5,0c-1.3-0.2-2.1-1.5-1.8-2.8l0.6-3.2c0.2-1.3,1.5-2.1,2.8-1.8
		c1.3,0.2,2.1,1.5,1.8,2.8l-0.6,3.2C121.3,93.5,120.3,94.2,119.2,94.2z"/>
	<path class="st7" d="M156,118.7c-0.3,0-0.6,0-0.8-0.2l-3.1-1.1c-1.1-0.5-1.8-1.8-1.3-2.9c0.5-1.1,1.8-1.8,2.9-1.3l3.1,1.1
		c1.1,0.5,1.8,1.8,1.3,2.9C157.8,118,157,118.7,156,118.7z"/>
	<path class="st7" d="M160.4,129.7c-1.3,0-2.3-1-2.3-2.3c0-1.3,1-2.3,2.3-2.4l3.2-0.2c1.3,0,2.3,1,2.4,2.3c0,1.3-1,2.3-2.3,2.4
		L160.4,129.7L160.4,129.7z"/>
	<path class="st8" d="M141.7,136.8c-0.3,0-0.6-0.2-1.1-0.3l-2.9-1.5c-1.1-0.6-1.6-1.9-1-3.1s1.9-1.6,3.1-1l2.9,1.5
		c1.1,0.6,1.6,1.9,1,3.1C143.4,136.3,142.5,136.8,141.7,136.8z"/>
	<path class="st8" d="M162.1,143.9c-0.5,0-1.1-0.2-1.6-0.6l-2.4-2.3c-1-0.8-1-2.3-0.2-3.2c0.8-1,2.3-1,3.2-0.2l2.4,2.3
		c1,0.8,1,2.3,0.2,3.2C163.4,143.6,162.8,143.9,162.1,143.9z"/>
	<path class="st8" d="M119.9,141.3c-0.8,0-1.5-0.3-1.9-1l-1.8-2.8c-0.6-1-0.5-2.4,0.6-3.2c1-0.6,2.4-0.5,3.2,0.6l1.8,2.8
		c0.6,1,0.5,2.4-0.6,3.2C120.8,141.2,120.3,141.3,119.9,141.3z"/>
</g>
<g>
	<g>
		<g>
			<path class="st4" d="M65.6,349.2h-2.3c-2.6,0-4.5-2.1-4.5-4.5v-18.3h11.5v18.3C70.2,347.1,68.1,349.2,65.6,349.2z"/>
			<path class="st4" d="M65.6,351.5h-2.3c-3.7,0-7-3.1-7-7v-20.7h16v20.7C72.4,348.4,69.4,351.5,65.6,351.5z M60.9,328.5v16
				c0,1.3,1,2.3,2.3,2.3h2.3c1.3,0,2.3-1,2.3-2.3v-16H60.9z"/>
		</g>
		<g>
			<path class="st5" d="M33.6,312.4v4.9c0,5,4,9.1,9.1,9.1h44.9c5,0,9.1-4,9.1-9.1v-4.9H33.6z"/>
		</g>
		<path class="st6" d="M90.6,233.2c-0.2-0.3-0.3-0.5-0.5-0.6c-0.5-0.6-1-1.1-1.5-1.8c-0.3-0.3-0.5-0.5-0.8-0.8c-0.3-0.3-0.6-0.6-1-1
			s-0.6-0.5-1-0.8c-0.5-0.3-1-0.8-1.3-1.1c-0.3-0.3-0.8-0.6-1.1-0.8c-0.3-0.2-0.6-0.5-1-0.6c-0.6-0.3-1.3-0.8-1.9-1.1
			c-0.2-0.2-0.5-0.3-0.6-0.3c-0.5-0.3-1.1-0.5-1.6-0.8c-0.3-0.2-0.5-0.2-0.8-0.3c-0.8-0.3-1.5-0.6-2.3-0.8c-0.2,0-0.5-0.2-0.6-0.2
			c-0.6-0.2-1.5-0.3-2.1-0.5c-0.2,0-0.3,0-0.5-0.2c-0.8-0.2-1.8-0.3-2.6-0.3c-0.2,0-0.5,0-0.6,0c-1-0.2-1.8-0.2-2.8-0.2h-2.6
			c-1,0-1.8,0-2.8,0.2c-0.2,0-0.5,0-0.6,0c-0.8,0.2-1.8,0.2-2.6,0.3c-0.2,0-0.3,0-0.5,0.2c-0.6,0.2-1.5,0.3-2.1,0.5
			c-0.2,0-0.5,0.2-0.6,0.2c-0.8,0.3-1.5,0.5-2.3,0.8c-0.3,0.2-0.5,0.2-0.8,0.3c-0.5,0.3-1.1,0.5-1.6,0.8c-0.2,0.2-0.5,0.2-0.6,0.3
			c-0.6,0.3-1.3,0.8-1.9,1.1c-0.3,0.2-0.6,0.5-1,0.6c-0.3,0.3-0.8,0.6-1.1,0.8c-0.5,0.3-1,0.8-1.3,1.1c-0.3,0.3-0.6,0.5-1,0.8
			c-0.3,0.3-0.6,0.6-1,1c-0.3,0.3-0.5,0.5-0.8,0.8c-0.5,0.5-1,1.1-1.5,1.8c-0.2,0.2-0.3,0.5-0.5,0.6c-3.6,5-5.7,11-5.7,17.7v25.4
			v36.1h62.9v-36.3v-25.4C96.4,244.2,94.1,238.1,90.6,233.2z"/>
	</g>
	<path class="st7" d="M45.9,238.9c-0.6,0-1.1-0.2-1.6-0.6c-1-1-1-2.3,0-3.2l2.3-2.3c1-1,2.3-1,3.2,0s1,2.3,0,3.2l-2.3,2.3
		C47,238.7,46.5,238.9,45.9,238.9z"/>
	<path class="st8" d="M64.2,231.6c-0.5,0-1-0.2-1.3-0.5l-2.6-1.9c-1-0.8-1.3-2.1-0.5-3.2c0.8-1,2.1-1.3,3.2-0.5l2.6,1.9
		c1,0.8,1.3,2.1,0.5,3.2C65.6,231.3,65,231.6,64.2,231.6z"/>
	<path class="st7" d="M65,249.1c-0.3,0-0.6,0-0.8-0.2l-3.1-1.3c-1.1-0.5-1.8-1.8-1.3-2.9c0.5-1.1,1.8-1.8,2.9-1.3l3.1,1.3
		c1.1,0.5,1.8,1.8,1.3,2.9C66.8,248.4,65.8,249.1,65,249.1z"/>
	<path class="st8" d="M75.8,261.9c-0.2,0-0.3,0-0.5,0c-1.3-0.3-1.9-1.5-1.8-2.8l0.6-3.2c0.3-1.3,1.5-1.9,2.8-1.8
		c1.3,0.3,1.9,1.5,1.8,2.8l-0.6,3.2C77.8,261.2,76.8,261.9,75.8,261.9z"/>
	<path class="st7" d="M41.3,291.9c-1.3,0-2.3-1-2.3-2.3s1-2.3,2.3-2.4h3.2c1.3,0,2.3,1,2.4,2.3c0,1.3-1,2.3-2.3,2.4H41.3L41.3,291.9
		z"/>
	<path class="st8" d="M64.2,287.2c-0.2,0-0.3,0-0.5,0c-1.3-0.3-1.9-1.5-1.8-2.8l0.6-3.2c0.3-1.3,1.5-1.9,2.8-1.8
		c1.3,0.3,1.9,1.5,1.8,2.8l-0.6,3.2C66.3,286.5,65.3,287.2,64.2,287.2z"/>
	<path class="st8" d="M45.1,279.7c-0.5,0-1.1-0.2-1.6-0.6l-2.4-2.3c-1-0.8-1-2.3-0.2-3.2s2.3-1,3.2-0.2l2.4,2.3c1,0.8,1,2.3,0.2,3.2
		C46.4,279.5,45.7,279.7,45.1,279.7z"/>
	<path class="st7" d="M60.8,271c-0.3,0-0.5,0-0.8-0.2l-3.1-1.1c-1.1-0.5-1.8-1.8-1.3-2.9c0.5-1.1,1.8-1.8,2.9-1.3l3.1,1.1
		c1.1,0.5,1.8,1.8,1.3,2.9C62.6,270.5,61.7,271,60.8,271z"/>
	<path class="st8" d="M45.9,260.4c-0.2,0-0.3,0-0.5,0c-1.3-0.2-2.1-1.5-1.8-2.8l0.6-3.2c0.2-1.3,1.5-2.1,2.8-1.8
		c1.3,0.2,2.1,1.5,1.8,2.8l-0.6,3.2C48,259.8,47,260.4,45.9,260.4z"/>
	<path class="st7" d="M82.6,284.9c-0.3,0-0.6,0-0.8-0.2l-3.1-1.1c-1.1-0.5-1.8-1.8-1.3-2.9c0.5-1.1,1.8-1.8,2.9-1.3l3.1,1.1
		c1.1,0.5,1.8,1.8,1.3,2.9C84.4,284.2,83.5,284.9,82.6,284.9z"/>
	<path class="st7" d="M86.9,295.9c-1.3,0-2.3-1-2.3-2.3s1-2.3,2.3-2.4l3.2-0.2c1.3,0,2.3,1,2.4,2.3c0,1.3-1,2.3-2.3,2.4L86.9,295.9
		C87,295.9,86.9,295.9,86.9,295.9z"/>
	<path class="st8" d="M68.2,303c-0.3,0-0.6-0.2-1.1-0.3l-2.9-1.5c-1.1-0.6-1.6-1.9-1-3.1c0.6-1.1,1.9-1.6,3.1-1l2.9,1.5
		c1.1,0.6,1.6,1.9,1,3.1C69.8,302.5,69.2,303,68.2,303z"/>
	<path class="st8" d="M88.8,310.2c-0.5,0-1.1-0.2-1.6-0.6l-2.4-2.3c-1-0.8-1-2.3-0.2-3.2s2.3-1,3.2-0.2l2.4,2.3c1,0.8,1,2.3,0.2,3.2
		C89.9,309.8,89.5,310.2,88.8,310.2z"/>
	<path class="st8" d="M46.5,307.6c-0.8,0-1.5-0.3-1.9-1l-1.8-2.8c-0.6-1-0.5-2.4,0.6-3.2c1-0.6,2.4-0.5,3.2,0.6l1.8,2.8
		c0.6,1,0.5,2.4-0.6,3.2C47.3,307.4,46.8,307.6,46.5,307.6z"/>
</g>
<g>
	<g>
		<g>
			<path class="st4" d="M326.2,349.2h-2.3c-2.6,0-4.5-2.1-4.5-4.5v-18.3h11.5v18.3C330.7,347.1,328.6,349.2,326.2,349.2z"/>
			<path class="st4" d="M326.2,351.5h-2.3c-3.7,0-7-3.1-7-7v-20.7h16v20.7C333,348.4,329.9,351.5,326.2,351.5z M321.5,328.5v16
				c0,1.3,1,2.3,2.3,2.3h2.3c1.3,0,2.3-1,2.3-2.3v-16H321.5z"/>
		</g>
		<g>
			<path class="st6" d="M294.1,312.4v4.9c0,5,4,9.1,9.1,9.1H348c5,0,9.1-4,9.1-9.1v-4.9H294.1z"/>
		</g>
		<path class="st9" d="M351.1,233.2c-0.2-0.3-0.3-0.5-0.5-0.6c-0.5-0.6-1-1.1-1.5-1.8c-0.3-0.3-0.5-0.5-0.8-0.8
			c-0.3-0.3-0.6-0.6-1-1c-0.3-0.3-0.6-0.5-1-0.8c-0.5-0.3-1-0.8-1.3-1.1c-0.3-0.3-0.8-0.6-1.1-0.8c-0.3-0.2-0.6-0.5-1-0.6
			c-0.6-0.3-1.3-0.8-1.9-1.1c-0.2-0.2-0.5-0.3-0.6-0.3c-0.5-0.3-1.1-0.5-1.6-0.8c-0.3-0.2-0.5-0.2-0.8-0.3c-0.8-0.3-1.5-0.6-2.3-0.8
			c-0.2,0-0.5-0.2-0.6-0.2c-0.6-0.2-1.5-0.3-2.1-0.5c-0.2,0-0.3,0-0.5-0.2c-0.8-0.2-1.8-0.3-2.6-0.3c-0.2,0-0.5,0-0.6,0
			c-1-0.2-1.8-0.2-2.8-0.2h-2.6c-1,0-1.8,0-2.8,0.2c-0.2,0-0.5,0-0.6,0c-0.8,0.2-1.8,0.2-2.6,0.3c-0.2,0-0.3,0-0.5,0.2
			c-0.6,0.2-1.5,0.3-2.1,0.5c-0.2,0-0.5,0.2-0.6,0.2c-0.8,0.3-1.5,0.5-2.3,0.8c-0.3,0.2-0.5,0.2-0.8,0.3c-0.5,0.3-1.1,0.5-1.6,0.8
			c-0.2,0.2-0.5,0.2-0.6,0.3c-0.6,0.3-1.3,0.8-1.9,1.1c-0.3,0.2-0.6,0.5-1,0.6c-0.3,0.3-0.8,0.6-1.1,0.8c-0.5,0.3-1,0.8-1.3,1.1
			c-0.3,0.3-0.6,0.5-1,0.8c-0.3,0.3-0.6,0.6-1,1c-0.3,0.3-0.5,0.5-0.8,0.8c-0.5,0.5-1,1.1-1.5,1.8c-0.2,0.2-0.3,0.5-0.5,0.6
			c-3.6,5-5.7,11-5.7,17.7v25.4v36.1h62.9v-36.3v-25.4C357,244.2,354.7,238.1,351.1,233.2z"/>
	</g>
	<path class="st7" d="M306.4,238.9c-0.6,0-1.1-0.2-1.6-0.6c-1-1-1-2.3,0-3.2l2.3-2.3c1-1,2.3-1,3.2,0s1,2.3,0,3.2l-2.3,2.3
		C307.5,238.7,307.1,238.9,306.4,238.9z"/>
	<path class="st8" d="M324.7,231.6c-0.5,0-1-0.2-1.3-0.5l-2.6-1.9c-1-0.8-1.3-2.1-0.5-3.2c0.8-1,2.1-1.3,3.2-0.5l2.6,1.9
		c1,0.8,1.3,2.1,0.5,3.2C326.2,231.3,325.5,231.6,324.7,231.6z"/>
	<path class="st7" d="M325.5,249.1c-0.3,0-0.6,0-0.8-0.2l-3.1-1.3c-1.1-0.5-1.8-1.8-1.3-2.9s1.8-1.8,2.9-1.3l3.1,1.3
		c1.1,0.5,1.8,1.8,1.3,2.9C327.3,248.4,326.3,249.1,325.5,249.1z"/>
	<path class="st8" d="M336.4,261.9c-0.2,0-0.3,0-0.5,0c-1.3-0.3-1.9-1.5-1.8-2.8l0.6-3.2c0.3-1.3,1.5-1.9,2.8-1.8
		c1.3,0.3,1.9,1.5,1.8,2.8l-0.6,3.2C338.3,261.2,337.3,261.9,336.4,261.9z"/>
	<path class="st7" d="M301.9,291.9c-1.3,0-2.3-1-2.3-2.3s1-2.3,2.3-2.4h3.2c1.3,0,2.3,1,2.4,2.3c0,1.3-1,2.3-2.3,2.4H301.9
		L301.9,291.9z"/>
	<path class="st8" d="M324.7,287.2c-0.2,0-0.3,0-0.5,0c-1.3-0.3-1.9-1.5-1.8-2.8l0.6-3.2c0.3-1.3,1.5-1.9,2.8-1.8
		c1.3,0.3,1.9,1.5,1.8,2.8l-0.6,3.2C326.8,286.5,325.8,287.2,324.7,287.2z"/>
	<path class="st8" d="M305.6,279.7c-0.5,0-1.1-0.2-1.6-0.6l-2.4-2.3c-1-0.8-1-2.3-0.2-3.2c0.8-1,2.3-1,3.2-0.2l2.4,2.3
		c1,0.8,1,2.3,0.2,3.2C306.9,279.5,306.2,279.7,305.6,279.7z"/>
	<path class="st7" d="M321.3,271c-0.3,0-0.5,0-0.8-0.2l-3.1-1.1c-1.1-0.5-1.8-1.8-1.3-2.9c0.5-1.1,1.8-1.8,2.9-1.3l3.1,1.1
		c1.1,0.5,1.8,1.8,1.3,2.9C323.1,270.5,322.3,271,321.3,271z"/>
	<path class="st8" d="M306.4,260.4c-0.2,0-0.3,0-0.5,0c-1.3-0.2-2.1-1.5-1.8-2.8l0.6-3.2c0.2-1.3,1.5-2.1,2.8-1.8
		c1.3,0.2,2.1,1.5,1.8,2.8l-0.6,3.2C308.5,259.8,307.5,260.4,306.4,260.4z"/>
	<path class="st7" d="M343.2,284.9c-0.3,0-0.6,0-0.8-0.2l-3.1-1.1c-1.1-0.5-1.8-1.8-1.3-2.9c0.5-1.1,1.8-1.8,2.9-1.3l3.1,1.1
		c1.1,0.5,1.8,1.8,1.3,2.9C345,284.2,344,284.9,343.2,284.9z"/>
	<path class="st7" d="M347.4,295.9c-1.3,0-2.3-1-2.3-2.3s1-2.3,2.3-2.4l3.2-0.2c1.3,0,2.3,1,2.4,2.3c0,1.3-1,2.3-2.3,2.4
		L347.4,295.9C347.6,295.9,347.4,295.9,347.4,295.9z"/>
	<path class="st8" d="M328.8,303c-0.3,0-0.6-0.2-1.1-0.3l-2.9-1.5c-1.1-0.6-1.6-1.9-1-3.1c0.6-1.1,1.9-1.6,3.1-1l2.9,1.5
		c1.1,0.6,1.6,1.9,1,3.1C330.4,302.5,329.7,303,328.8,303z"/>
	<path class="st8" d="M349.3,310.2c-0.5,0-1.1-0.2-1.6-0.6l-2.4-2.3c-1-0.8-1-2.3-0.2-3.2s2.3-1,3.2-0.2l2.4,2.3
		c1,0.8,1,2.3,0.2,3.2C350.5,309.8,350,310.2,349.3,310.2z"/>
	<path class="st8" d="M307.1,307.6c-0.8,0-1.5-0.3-1.9-1l-1.8-2.8c-0.6-1-0.5-2.4,0.6-3.2c1-0.6,2.4-0.5,3.2,0.6l1.8,2.8
		c0.6,1,0.5,2.4-0.6,3.2C307.9,307.4,307.4,307.6,307.1,307.6z"/>
</g>
</svg>
