<?xml version="1.0" encoding="utf-8"?>
<!-- Generator: Adobe Illustrator 22.1.0, SVG Export Plug-In . SVG Version: 6.00 Build 0)  -->
<svg version="1.1" id="Layer_1" xmlns="http://www.w3.org/2000/svg" xmlns:xlink="http://www.w3.org/1999/xlink" x="0px" y="0px"
	 viewBox="0 0 184.7 40" style="enable-background:new 0 0 184.7 40;" xml:space="preserve">
<style type="text/css">
	.st0{fill:#637BA1;}
	.st1{fill:#FFFFFF;}
	.st2{fill:#FBD490;}
	.st3{fill:#F4E6D0;}
	.st4{fill:#4C312C;}
	.st5{fill:#F96C7E;}
	.st6{fill:#79E09B;}
	.st7{fill:#E58FBC;}
</style>
<g id="Layer_2_1_">
	<g>
		<path class="st0" d="M184.7,0H0v40h184.7V0L184.7,0z"/>
	</g>
</g>
<g>
	<path class="st1" d="M60.7,19.2c0.2,0.2,0.3,0.5,0.3,0.8s-0.1,0.6-0.3,0.8c-0.2,0.2-0.5,0.3-0.8,0.3h-4v4c0,0.3-0.1,0.6-0.3,0.8
		c-0.2,0.2-0.5,0.3-0.8,0.3s-0.6-0.1-0.8-0.3c-0.2-0.2-0.3-0.5-0.3-0.8v-4h-4c-0.3,0-0.6-0.1-0.8-0.3c-0.2-0.2-0.3-0.5-0.3-0.8
		s0.1-0.6,0.3-0.8c0.2-0.2,0.5-0.3,0.8-0.3h4v-4c0-0.3,0.1-0.6,0.3-0.8c0.2-0.2,0.5-0.3,0.8-0.3s0.6,0.1,0.8,0.3s0.3,0.5,0.3,0.8v4
		h4C60.2,18.9,60.5,19,60.7,19.2z"/>
</g>
<g>
	<path class="st1" d="M135.8,19.2c0.2,0.2,0.3,0.5,0.3,0.8s-0.1,0.6-0.3,0.8c-0.2,0.2-0.5,0.3-0.8,0.3h-4v4c0,0.3-0.1,0.6-0.3,0.8
		c-0.2,0.2-0.5,0.3-0.8,0.3s-0.6-0.1-0.8-0.3c-0.2-0.2-0.3-0.5-0.3-0.8v-4h-4c-0.3,0-0.6-0.1-0.8-0.3c-0.2-0.2-0.3-0.5-0.3-0.8
		s0.1-0.6,0.3-0.8c0.2-0.2,0.5-0.3,0.8-0.3h4v-4c0-0.3,0.1-0.6,0.3-0.8c0.2-0.2,0.5-0.3,0.8-0.3s0.6,0.1,0.8,0.3
		c0.2,0.2,0.3,0.5,0.3,0.8v4h4C135.3,18.9,135.6,19,135.8,19.2z"/>
</g>
<g>
	<g>
		<g>
			<g>
				<g>
					<path class="st1" d="M16.9,35.6c-1.2,0-2.2-1-2.2-2.2v-4.2c0-0.6,0.5-1.1,1.1-1.1h2.6c0.6,0,1.1,0.5,1.1,1.1v4.2
						c-0.1,1.3-1.1,2.2-2.2,2.2H16.9z"/>
					<path class="st1" d="M18.5,29.2v4.2c0,0.6-0.5,1-1.1,1h-0.5c-0.6,0-1-0.5-1-1v-4.2H18.5 M18.5,26.9h-2.6c-1.3,0-2.3,1-2.3,2.3
						v4.2c0,1.8,1.5,3.3,3.3,3.3h0.5c1.8,0,3.3-1.4,3.4-3.2c0-0.1,0-0.1,0-0.2v-4.2C20.8,28,19.8,26.9,18.5,26.9L18.5,26.9z"/>
				</g>
				<g>
					<path class="st1" d="M16.9,36.2c-1.5,0-2.8-1.2-2.8-2.8v-4.8c0-0.6,0.5-1.1,1.1-1.1H19c0.6,0,1.1,0.5,1.1,1.1v4.8
						c0,0.7-0.2,1.4-0.7,1.9c-0.5,0.5-1.2,0.8-2,0.8H16.9z"/>
					<path class="st1" d="M19,28.6v4.8c0,0.9-0.7,1.6-1.6,1.6h-0.5c-0.9,0-1.6-0.7-1.6-1.6v-4.8H19 M16.9,33.9h0.5
						c0.3,0,0.5-0.2,0.5-0.5v-3.7h-1.6v3.7C16.4,33.7,16.6,33.9,16.9,33.9 M19,26.3h-3.7c-1.3,0-2.3,1-2.3,2.3v4.8
						c0,2.2,1.7,3.9,3.9,3.9h0.5c1.1,0,2.1-0.4,2.8-1.2c0.7-0.7,1.1-1.7,1.1-2.8v-4.7C21.3,27.4,20.3,26.3,19,26.3L19,26.3z"/>
				</g>
			</g>
			<g>
				<g>
					<path class="st1" d="M12.2,30.4c-1.8,0-3.2-1.5-3.2-3.2V26c0-0.6,0.5-1.1,1.1-1.1h14.5c0.6,0,1.1,0.5,1.1,1.1v1.1
						c0,1.8-1.5,3.2-3.2,3.2H12.2z"/>
					<path class="st1" d="M24.6,26v1.1c0,1.2-0.9,2.1-2.1,2.1H12.2c-1.2,0-2.1-0.9-2.1-2.1V26H24.6 M24.6,23.7H10.1
						c-1.3,0-2.3,1-2.3,2.3v1.1c0,2.4,2,4.4,4.4,4.4h10.3c2.4,0,4.4-2,4.4-4.4V26C26.9,24.8,25.8,23.7,24.6,23.7L24.6,23.7z"/>
				</g>
			</g>
			<g>
				<path class="st1" d="M10,27.2c-0.6,0-1.1-0.5-1.1-1.1V11.9c0-1.7,0.5-3.3,1.5-4.7c0,0,0,0,0-0.1c0,0,0.1-0.1,0.1-0.2
					c0.1-0.2,0.3-0.4,0.4-0.5L11.3,6c0.1-0.1,0.2-0.1,0.2-0.2c0.1-0.1,0.3-0.3,0.5-0.4c0,0,0.1-0.1,0.1-0.1c0.1-0.1,0.1-0.1,0.2-0.2
					c0.1-0.1,0.2-0.1,0.3-0.2c0,0,0.1,0,0.1-0.1c0.1-0.1,0.2-0.1,0.3-0.2c0,0,0.1,0,0.1,0c0.1-0.1,0.2-0.1,0.3-0.1
					c0,0,0.1,0,0.1-0.1c0.1,0,0.2-0.1,0.2-0.1c0.1-0.1,0.3-0.1,0.4-0.1c0.1,0,0.1,0,0.2-0.1c0.1,0,0.1,0,0.2-0.1c0,0,0.1,0,0.2,0
					l0.3-0.1C15.2,4,15.3,4,15.5,4c0.1,0,0.2,0,0.3,0c0.1,0,0.1,0,0.2,0c0.1,0,0.1,0,0.2,0h0.1c0.3,0,0.5,0,0.7,0h0.6
					c0.2,0,0.4,0,0.7,0h0.1c0.2,0,0.5,0,0.8,0.1c0.1,0,0.1,0,0.2,0.1c0,0,0.5,0.1,0.6,0.1c0.2,0,0.4,0.1,0.6,0.2
					c0,0,0.4,0.1,0.4,0.2c0,0,0.1,0,0.1,0.1c0.1,0,0.1,0,0.2,0.1c0.1,0,0.3,0.1,0.3,0.2c0.1,0,0.1,0.1,0.2,0.1c0,0,0.1,0.1,0.1,0.1
					c0.1,0,0.2,0.1,0.3,0.2c0.1,0.1,0.3,0.2,0.5,0.4c0,0,0.1,0.1,0.1,0.1c0,0,0.1,0.1,0.2,0.1C23,5.9,23.1,6,23.2,6l0.4,0.4
					c0,0,0.1,0.1,0.1,0.1c0,0.1,0.1,0.1,0.1,0.1c0.1,0.1,0.1,0.1,0.2,0.2c0.1,0.1,0.1,0.2,0.2,0.3c1,1.3,1.5,3,1.5,4.6V26
					c0,0.6-0.5,1.1-1.1,1.1H10z"/>
				<path class="st1" d="M17.6,5c0.2,0,0.4,0,0.6,0c0,0,0.1,0,0.1,0c0.2,0,0.4,0,0.6,0.1c0,0,0.1,0,0.1,0c0.1,0,0.3,0.1,0.5,0.1
					c0,0,0.1,0,0.1,0c0.2,0,0.3,0.1,0.5,0.2c0.1,0,0.1,0,0.2,0.1c0.1,0.1,0.3,0.1,0.4,0.2c0,0,0.1,0,0.1,0.1
					c0.1,0.1,0.3,0.2,0.4,0.3c0.1,0,0.1,0.1,0.2,0.1c0.1,0,0.2,0.1,0.3,0.2c0.1,0.1,0.2,0.2,0.3,0.3c0.1,0.1,0.1,0.1,0.2,0.2
					c0.1,0.1,0.1,0.1,0.2,0.2c0.1,0.1,0.1,0.1,0.2,0.2c0.1,0.1,0.2,0.3,0.3,0.4c0,0,0.1,0.1,0.1,0.1c0.8,1.1,1.3,2.5,1.3,4v5.8V26
					H10v-8.3v-5.8c0-1.5,0.5-2.9,1.3-4.1c0,0,0.1-0.1,0.1-0.1c0.1-0.1,0.2-0.3,0.3-0.4c0.1-0.1,0.1-0.1,0.2-0.2
					C12,7,12.1,6.9,12.2,6.9c0.1-0.1,0.1-0.1,0.2-0.2c0.1-0.1,0.2-0.2,0.3-0.3c0.1,0,0.2-0.1,0.3-0.2c0.1,0,0.1-0.1,0.2-0.1
					c0.1-0.1,0.3-0.2,0.4-0.3c0,0,0.1,0,0.1-0.1c0.1-0.1,0.3-0.1,0.4-0.2c0.1,0,0.1,0,0.2-0.1c0.2-0.1,0.3-0.1,0.5-0.2
					c0,0,0.1,0,0.1,0c0.1,0,0.3-0.1,0.5-0.1c0,0,0.1,0,0.1,0c0.2,0,0.4,0,0.6-0.1c0,0,0.1,0,0.1,0c0.2,0,0.4,0,0.6,0H17.6 M17.6,2.7
					H17c-0.2,0-0.5,0-0.8,0c-0.1,0-0.3,0-0.4,0l-0.1,0c-0.1,0-0.2,0-0.4,0c-0.2,0-0.4,0.1-0.6,0.1c-0.1,0-0.1,0-0.2,0
					c-0.1,0-0.2,0-0.2,0.1c-0.1,0-0.2,0.1-0.3,0.1c0,0-0.1,0-0.1,0c-0.1,0-0.2,0.1-0.4,0.1c0,0,0,0,0,0c-0.1,0-0.2,0.1-0.3,0.1
					c0,0-0.1,0-0.1,0c-0.1,0-0.2,0.1-0.3,0.1c-0.1,0-0.2,0.1-0.3,0.2c-0.1,0-0.2,0.1-0.2,0.1l-0.1,0c-0.2,0.1-0.3,0.2-0.4,0.2
					c-0.1,0.1-0.2,0.1-0.2,0.2c0,0,0,0-0.1,0C11.2,4.7,11,4.8,10.8,5c-0.1,0.1-0.2,0.1-0.3,0.3l-0.1,0.1l-0.1,0.1l-0.1,0.1l-0.1,0.1
					C9.9,5.8,9.8,6.1,9.6,6.2C9.6,6.3,9.5,6.4,9.5,6.4c0,0,0,0-0.1,0.1c-1.1,1.6-1.7,3.5-1.7,5.4v5.8V26c0,1.3,1,2.3,2.3,2.3h14.5
					c1.3,0,2.3-1,2.3-2.3v-8.3v-5.8c0-1.9-0.6-3.8-1.7-5.3c-0.1-0.2-0.2-0.3-0.3-0.4C24.8,6.1,24.7,6,24.7,6c0,0,0-0.1-0.1-0.1
					c-0.1-0.1-0.1-0.2-0.2-0.2l-0.1-0.1l-0.1-0.1L24,5.2c-0.1-0.1-0.2-0.2-0.3-0.3c-0.1,0-0.1-0.1-0.2-0.1l0,0
					c-0.2-0.2-0.4-0.4-0.7-0.5c-0.1-0.1-0.2-0.2-0.4-0.2l0,0c-0.1,0-0.1-0.1-0.2-0.1c-0.1-0.1-0.3-0.2-0.4-0.2
					c-0.1,0-0.1-0.1-0.2-0.1c0,0-0.1,0-0.1,0c-0.1-0.1-0.2-0.1-0.3-0.1c0,0,0,0,0,0l-0.1,0c-0.2-0.1-0.4-0.2-0.8-0.3
					C20.2,3,20.1,3,20,3c-0.1,0-0.1,0-0.2,0l-0.1,0c-0.1,0-0.2-0.1-0.3-0.1c-0.4-0.1-0.7-0.1-1-0.1C18,2.7,17.8,2.7,17.6,2.7
					L17.6,2.7z"/>
			</g>
		</g>
		<g>
			<path class="st1" d="M12.9,10.3c-0.5,0-0.9-0.2-1.2-0.5c-0.7-0.7-0.7-1.7,0-2.4l0.5-0.5c0.3-0.3,0.7-0.5,1.2-0.5s0.9,0.2,1.2,0.5
				c0.7,0.7,0.7,1.7,0,2.4l-0.5,0.5C13.9,10.1,13.4,10.3,12.9,10.3z"/>
			<path class="st1" d="M13.4,7.5c0.1,0,0.3,0.1,0.4,0.2c0.2,0.2,0.2,0.5,0,0.7L13.3,9c-0.1,0.1-0.2,0.1-0.4,0.1
				c-0.1,0-0.3,0-0.4-0.1c-0.2-0.2-0.2-0.5,0-0.7l0.5-0.5C13.2,7.6,13.3,7.5,13.4,7.5 M13.4,5.2c-0.7,0-1.5,0.3-2,0.8l-0.5,0.5
				c-0.5,0.5-0.8,1.3-0.8,2s0.3,1.5,0.8,2c0.5,0.5,1.2,0.8,2,0.8c0.8,0,1.6-0.3,2.1-0.9l0.4-0.4c0.5-0.5,0.8-1.3,0.8-2
				c0-0.7-0.3-1.5-0.8-2C14.9,5.5,14.2,5.2,13.4,5.2L13.4,5.2z"/>
		</g>
		<g>
			<path class="st1" d="M17.2,8.6c-0.4,0-0.8-0.1-1-0.4l-0.6-0.4c-0.7-0.6-0.9-1.6-0.4-2.3c0.4-0.5,0.9-0.7,1.4-0.7
				c0.3,0,0.7,0.1,1,0.3l0.6,0.5c0.7,0.6,0.9,1.6,0.4,2.3c0,0.1-0.1,0.1-0.1,0.1C17.9,8.5,17.5,8.6,17.2,8.6z"/>
			<path class="st1" d="M16.6,5.9c0.1,0,0.2,0,0.3,0.1l0.6,0.4c0.2,0.2,0.3,0.5,0.1,0.7c-0.1,0.1-0.3,0.2-0.4,0.2
				c-0.1,0-0.2,0-0.3-0.1l-0.6-0.4C16,6.7,16,6.4,16.1,6.1C16.3,6,16.4,5.9,16.6,5.9 M16.6,3.6C16.6,3.6,16.6,3.6,16.6,3.6
				c-0.8,0-1.6,0.4-2.2,1c0,0-0.1,0.1-0.1,0.1c-0.9,1.2-0.7,2.9,0.5,3.8c0,0,0.1,0,0.1,0.1l0.5,0.4c0.5,0.4,1.1,0.6,1.7,0.6
				c0.5,0,1.3-0.2,2.1-0.9c0.1-0.1,0.2-0.2,0.2-0.3c0.9-1.2,0.7-2.9-0.5-3.8c0,0-0.1,0-0.1-0.1l-0.6-0.4c0,0,0,0,0,0
				C17.7,3.8,17.2,3.6,16.6,3.6L16.6,3.6z"/>
		</g>
		<g>
			<path class="st1" d="M17.3,12.6c-0.1,0-0.4,0-0.7-0.2L16,12.2c-0.4-0.2-0.7-0.5-0.9-0.9c-0.2-0.4-0.2-0.9,0-1.3
				c0.3-0.6,0.9-1,1.5-1c0.2,0,0.4,0,0.6,0.1l0.7,0.3c0.9,0.4,1.3,1.3,0.9,2.2C18.6,12.2,18,12.6,17.3,12.6z"/>
			<path class="st1" d="M16.6,10.1c0.1,0,0.1,0,0.2,0l0.7,0.3c0.3,0.1,0.4,0.4,0.3,0.7c-0.1,0.2-0.3,0.3-0.5,0.3c-0.1,0-0.1,0-0.2,0
				l-0.7-0.3c-0.3-0.1-0.4-0.4-0.3-0.7C16.2,10.3,16.4,10.1,16.6,10.1 M16.6,7.8C16.6,7.8,16.6,7.8,16.6,7.8c-1.1,0-2.2,0.7-2.6,1.7
				c-0.6,1.4,0.1,3.1,1.5,3.7l0.6,0.2c0.4,0.2,0.8,0.3,1.2,0.3c1.1,0,2.2-0.7,2.6-1.8c0.3-0.7,0.3-1.5,0-2.2
				c-0.3-0.6-0.8-1.1-1.5-1.4L17.7,8C17.3,7.9,17,7.8,16.6,7.8L16.6,7.8z"/>
		</g>
		<g>
			<path class="st1" d="M19.7,15.6c-0.1,0-0.2,0-0.3,0c-0.8-0.2-1.4-1-1.3-1.9l0.2-0.8c0.2-0.8,0.9-1.3,1.7-1.3c0,0,0.2,0,0.2,0
				c0,0,0.1,0,0.1,0c0.8,0.2,1.4,1,1.3,1.9l-0.2,0.8c-0.2,0.8-0.9,1.3-1.6,1.3H19.7z"/>
			<path class="st1" d="M20,12.6C20,12.6,20,12.6,20,12.6c0.4,0.1,0.5,0.3,0.5,0.6L20.3,14c-0.1,0.3-0.3,0.4-0.5,0.4
				c0,0-0.1,0-0.1,0c-0.3-0.1-0.4-0.3-0.4-0.6l0.1-0.7C19.5,12.8,19.7,12.6,20,12.6 M20,10.3C20,10.3,20,10.3,20,10.3
				c-1.3,0-2.5,0.9-2.8,2.2c0,0,0,0.1,0,0.1L17,13.3c0,0.1,0,0.1,0,0.2c-0.2,1.5,0.7,2.8,2.1,3.1c0.2,0,0.4,0.1,0.6,0.1h0.1
				c1.3,0,2.4-0.9,2.7-2.1c0-0.1,0-0.1,0-0.2l0.1-0.7c0-0.1,0-0.1,0-0.2c0.2-1.5-0.7-2.8-2.1-3.1c-0.1,0-0.2,0-0.3-0.1
				C20.2,10.3,20.1,10.3,20,10.3L20,10.3z"/>
		</g>
		<g>
			<path class="st1" d="M11.9,22.5c-0.9,0-1.7-0.7-1.7-1.7c0-0.9,0.6-1.6,1.5-1.7c0,0,0.1,0,0.1,0h0.7c0.9,0,1.6,0.6,1.7,1.5
				c0,0,0,0.1,0,0.1c0,0.9-0.6,1.6-1.5,1.7c0,0-0.1,0-0.1,0H11.9z"/>
			<path class="st1" d="M12.6,20.2c0.3,0,0.5,0.2,0.6,0.5c0,0.3-0.2,0.5-0.5,0.6h-0.8c-0.3,0-0.5-0.2-0.5-0.5c0-0.3,0.2-0.5,0.5-0.6
				H12.6 M12.6,17.9h-0.7c-0.1,0-0.2,0-0.3,0C10.1,18.1,9,19.3,9,20.8c0,1.6,1.3,2.8,2.8,2.8h0.8c0.1,0,0.2,0,0.3,0
				c1.4-0.2,2.5-1.4,2.5-2.8c0-0.1,0-0.2,0-0.3C15.3,19,14,17.9,12.6,17.9L12.6,17.9z"/>
		</g>
		<g>
			<path class="st1" d="M17,21.4c-0.1,0-0.2,0-0.3,0c-0.8-0.2-1.4-1-1.3-1.9l0.2-0.8c0.2-0.8,0.9-1.3,1.7-1.3c0,0,0.2,0,0.2,0
				c0,0,0.1,0,0.1,0c0.8,0.2,1.4,1,1.3,1.9L18.8,20c-0.2,0.8-0.9,1.3-1.6,1.3H17z"/>
			<path class="st1" d="M17.3,18.4C17.4,18.4,17.4,18.4,17.3,18.4c0.4,0.1,0.5,0.3,0.5,0.6l-0.1,0.7c-0.1,0.3-0.3,0.4-0.5,0.4
				c0,0-0.1,0-0.1,0c-0.3-0.1-0.4-0.3-0.4-0.6l0.1-0.7C16.8,18.6,17.1,18.4,17.3,18.4 M17.3,16.1c-1.3,0-2.5,0.9-2.8,2.2
				c0,0,0,0.1,0,0.1l-0.1,0.7c0,0.1,0,0.1,0,0.2c-0.2,1.5,0.7,2.8,2.1,3.1c0.2,0,0.4,0.1,0.6,0.1h0.1c1.3,0,2.4-0.9,2.7-2.1
				c0-0.1,0-0.1,0-0.2l0.1-0.7c0-0.1,0-0.1,0-0.2c0.2-1.5-0.7-2.8-2.1-3.1c-0.1,0-0.2,0-0.3-0.1C17.6,16.1,17.4,16.1,17.3,16.1
				L17.3,16.1z"/>
		</g>
		<g>
			<path class="st1" d="M12.8,19.7c-0.4,0-0.9-0.2-1.2-0.5L11,18.7c-0.7-0.5-0.7-1.6-0.1-2.3c0.3-0.4,0.8-0.6,1.3-0.6
				c0.4,0,0.8,0.1,1.1,0.4l0.6,0.6c0.3,0.2,0.5,0.6,0.5,1.1c0,0.4-0.1,0.9-0.4,1.3C13.8,19.3,13.4,19.7,12.8,19.7z"/>
			<path class="st1" d="M12.2,16.9c0.1,0,0.3,0,0.4,0.1l0.6,0.5c0.2,0.2,0.2,0.5,0,0.7c-0.1,0.1-0.2,0.2-0.4,0.2
				c-0.1,0-0.3,0-0.4-0.1l-0.6-0.5c-0.2-0.2-0.2-0.5,0-0.7C11.9,17,12,16.9,12.2,16.9 M12.2,14.6c-0.8,0-1.6,0.4-2.1,1
				c-1,1.2-0.9,2.9,0.3,3.9l0.5,0.5c0.5,0.5,1.2,0.8,2,0.8c0.9,0,1.6-0.4,2.2-1.1c0.9-1.2,0.8-2.9-0.3-3.9l-0.5-0.5
				c0,0-0.1-0.1-0.1-0.1C13.5,14.9,12.8,14.6,12.2,14.6L12.2,14.6z"/>
		</g>
		<g>
			<path class="st1" d="M16.3,17.6c-0.2,0-0.4,0-0.6-0.1L15,17.3c-0.4-0.2-0.8-0.5-0.9-0.9c-0.2-0.4-0.2-0.9,0-1.3
				c0.3-0.6,0.9-1,1.5-1c0.2,0,0.4,0,0.6,0.1l0.7,0.2c0.4,0.2,0.8,0.5,0.9,0.9c0.2,0.4,0.2,0.9,0,1.3C17.7,17.2,17.1,17.6,16.3,17.6
				z"/>
			<path class="st1" d="M15.6,15.2c0.1,0,0.1,0,0.2,0l0.7,0.3c0.3,0.1,0.4,0.4,0.3,0.7c-0.1,0.2-0.3,0.3-0.5,0.3c-0.1,0-0.1,0-0.2,0
				l-0.7-0.3c-0.3-0.1-0.4-0.4-0.3-0.7C15.2,15.3,15.4,15.2,15.6,15.2 M15.6,12.9c-1.1,0-2.2,0.7-2.6,1.7c-0.6,1.4,0.1,3.1,1.5,3.7
				c0,0,0.1,0,0.1,0l0.6,0.2c0.4,0.2,0.8,0.2,1.1,0.2c1.2,0,2.2-0.7,2.6-1.8c0.5-1.4-0.1-3-1.5-3.6c0,0-0.1,0-0.1,0l-0.7-0.2
				C16.3,13,16,12.9,15.6,12.9L15.6,12.9z"/>
		</g>
		<g>
			<path class="st1" d="M12.8,15.2c0,0-0.1,0-0.1,0c-0.5-0.1-0.9-0.3-1.1-0.7c-0.3-0.4-0.4-0.9-0.2-1.4l0.1-0.7
				c0.1-0.7,0.8-1.4,1.6-1.4c0.1,0,0.2,0,0.3,0c0.4,0.1,0.8,0.3,1.1,0.7c0.3,0.4,0.4,0.9,0.2,1.4l-0.1,0.7c-0.1,0.7-0.8,1.3-1.6,1.3
				H12.8z"/>
			<path class="st1" d="M13,12.3c0,0,0.1,0,0.1,0c0.3,0,0.5,0.3,0.4,0.6l-0.1,0.7c0,0.3-0.3,0.4-0.5,0.4c0,0-0.1,0-0.1,0
				c-0.3,0-0.5-0.3-0.4-0.6l0.1-0.7C12.6,12.4,12.8,12.3,13,12.3 M13,10c-1.4,0-2.5,1-2.8,2.3L10.1,13c-0.2,0.8,0,1.6,0.4,2.2
				c0.4,0.7,1.2,1.1,1.9,1.2c0.1,0,0.2,0,0.3,0h0.1c1.4,0,2.6-1,2.8-2.3l0.1-0.7c0.2-0.8,0-1.6-0.4-2.2c-0.4-0.6-1.1-1-1.8-1.2
				C13.4,10,13.2,10,13,10L13,10z"/>
		</g>
		<g>
			<path class="st1" d="M21.4,20.9c-0.1,0-0.4,0-0.7-0.1l-0.6-0.2c-0.4-0.2-0.8-0.5-0.9-0.9c-0.2-0.4-0.2-0.9,0-1.3
				c0.3-0.6,0.9-1,1.5-1c0.2,0,0.4,0,0.6,0.1l0.7,0.2c0.4,0.2,0.8,0.5,0.9,0.9c0.2,0.4,0.2,0.9,0,1.3C22.7,20.4,22,20.9,21.4,20.9z"
				/>
			<path class="st1" d="M20.7,18.4c0.1,0,0.1,0,0.2,0l0.7,0.3c0.3,0.1,0.4,0.4,0.3,0.7c-0.1,0.2-0.3,0.3-0.5,0.3c-0.1,0-0.1,0-0.2,0
				l-0.7-0.3c-0.3-0.1-0.4-0.4-0.3-0.7C20.3,18.5,20.5,18.4,20.7,18.4 M20.7,16.1C20.7,16.1,20.7,16.1,20.7,16.1
				c-1.1,0-2.2,0.7-2.6,1.7c-0.3,0.7-0.3,1.5,0,2.3c0.3,0.6,0.8,1.1,1.5,1.4c0,0,0.1,0,0.1,0l0.5,0.2c0.3,0.2,0.7,0.2,1.1,0.2
				c1.1,0,2.2-0.7,2.6-1.8c0.6-1.4-0.1-3.1-1.5-3.7c0,0-0.1,0-0.1,0l-0.7-0.2C21.3,16.2,21,16.1,20.7,16.1L20.7,16.1z"/>
		</g>
		<g>
			<path class="st1" d="M22.4,23.4c-0.9,0-1.7-0.7-1.7-1.7c0-0.9,0.6-1.6,1.5-1.7c0,0,0.8,0,0.8,0c0.9,0,1.6,0.6,1.8,1.5
				c0,0,0,0.1,0,0.1c0,0.9-0.6,1.6-1.5,1.7C23.3,23.3,22.4,23.4,22.4,23.4z"/>
			<path class="st1" d="M23.1,21.1c0.3,0,0.5,0.2,0.6,0.5c0,0.3-0.2,0.5-0.5,0.6l-0.8,0c-0.3,0-0.5-0.2-0.5-0.5
				c0-0.3,0.2-0.5,0.5-0.6L23.1,21.1 M23.1,18.8c0,0-0.1,0-0.1,0l-0.7,0c-0.1,0-0.1,0-0.2,0c-1.4,0.2-2.5,1.4-2.5,2.8
				c0,1.6,1.3,2.8,2.8,2.8c0,0,0.1,0,0.1,0l0.8,0c0.1,0,0.1,0,0.2,0c1.4-0.2,2.5-1.4,2.5-2.8c0-0.1,0-0.2,0-0.3
				C25.8,19.9,24.5,18.8,23.1,18.8L23.1,18.8z"/>
		</g>
		<g>
			<path class="st1" d="M18.1,25c-0.3,0-0.5-0.1-0.6-0.1c0,0-0.2-0.1-0.2-0.1l-0.7-0.3c-0.5-0.3-0.7-0.6-0.9-1.1
				c-0.1-0.4-0.1-0.9,0.2-1.2c0.3-0.5,0.9-0.9,1.5-0.9c0.3,0,0.6,0.1,0.8,0.2l0.6,0.3c0.5,0.3,0.8,0.6,0.9,1.1
				c0.1,0.4,0.1,0.8-0.1,1.2C19.3,24.6,18.7,25,18.1,25z"/>
			<path class="st1" d="M17.4,22.5c0.1,0,0.2,0,0.2,0.1l0.7,0.3c0.3,0.1,0.4,0.4,0.2,0.7c-0.1,0.2-0.3,0.3-0.4,0.3
				c-0.1,0-0.1,0-0.3-0.1l-0.7-0.3c-0.3-0.1-0.4-0.4-0.2-0.7C17,22.6,17.2,22.5,17.4,22.5 M17.4,20.2C17.4,20.2,17.4,20.2,17.4,20.2
				c-1,0-1.9,0.6-2.5,1.4c-0.8,1.4-0.3,3.1,1.1,3.8c0,0,0.1,0,0.1,0.1l0.7,0.3c0.1,0,0.2,0.1,0.3,0.1c0.2,0.1,0.5,0.2,1,0.2
				c1.1,0,2.1-0.6,2.5-1.6c0.7-1.3,0.2-3-1.1-3.7c0,0-0.1,0-0.1-0.1l-0.6-0.3C18.3,20.3,17.8,20.2,17.4,20.2L17.4,20.2z"/>
		</g>
		<g>
			<path class="st1" d="M22.8,26.7c-0.4,0-0.9-0.2-1.2-0.5l-0.5-0.5c-0.3-0.3-0.5-0.7-0.5-1.2c0-0.4,0.1-0.8,0.4-1.2
				c0.3-0.4,0.8-0.6,1.3-0.6c0.4,0,0.8,0.1,1.1,0.4l0.6,0.6c0.6,0.5,0.7,1.6,0.2,2.3C23.8,26.4,23.3,26.7,22.8,26.7z"/>
			<path class="st1" d="M22.2,23.9c0.1,0,0.3,0,0.4,0.1l0.6,0.5c0.2,0.2,0.2,0.5,0,0.7c-0.1,0.1-0.2,0.2-0.4,0.2
				c-0.1,0-0.3,0-0.4-0.1l-0.6-0.5c-0.2-0.2-0.2-0.5,0-0.7C21.9,24,22,23.9,22.2,23.9 M22.2,21.6c-0.8,0-1.6,0.4-2.1,1
				c-1,1.2-0.9,2.9,0.3,3.9l0.5,0.5c0.5,0.5,1.2,0.8,2,0.8c0.9,0,1.7-0.4,2.2-1.1c0.9-1.2,0.8-2.9-0.3-3.8l-0.5-0.5
				c0,0-0.1-0.1-0.1-0.1C23.5,21.9,22.9,21.6,22.2,21.6L22.2,21.6z"/>
		</g>
		<g>
			<path class="st1" d="M13.1,26.1c-0.5,0-1-0.2-1.4-0.7l-0.5-0.7c-0.5-0.7-0.3-1.8,0.4-2.3c0.3-0.2,0.6-0.3,1-0.3
				c0.5,0,1.1,0.3,1.4,0.7l0.4,0.7c0.5,0.8,0.3,1.8-0.4,2.3c0,0-0.1,0.1-0.2,0.1C13.7,25.9,13.4,26.1,13.1,26.1z"/>
			<path class="st1" d="M12.6,23.2c0.2,0,0.3,0.1,0.5,0.2l0.4,0.6c0.1,0.2,0.1,0.6-0.1,0.7c-0.1,0-0.2,0.1-0.3,0.1
				c-0.2,0-0.3-0.1-0.4-0.2l-0.4-0.6c-0.1-0.2-0.1-0.6,0.1-0.7C12.4,23.3,12.5,23.2,12.6,23.2 M12.6,20.9c-0.6,0-1.1,0.2-1.6,0.5
				c0,0,0,0-0.1,0c-1.3,0.9-1.6,2.6-0.7,3.9l0.4,0.6c0,0,0.1,0.1,0.1,0.1c0.5,0.7,1.4,1.1,2.3,1.1c0.6,0,1-0.2,1.3-0.3
				c0.1-0.1,0.2-0.1,0.3-0.2c1.3-0.9,1.6-2.6,0.7-3.9L15,22.2c0,0,0-0.1-0.1-0.1C14.4,21.4,13.6,20.9,12.6,20.9L12.6,20.9z"/>
		</g>
	</g>
	<g>
		<g>
			<g>
				<path class="st2" d="M17.4,34.5h-0.5c-0.6,0-1-0.5-1-1v-4.2h2.6v4.2C18.5,34,18,34.5,17.4,34.5z"/>
				<path class="st2" d="M17.4,35h-0.5c-0.9,0-1.6-0.7-1.6-1.6v-4.8H19v4.8C19.1,34.3,18.3,35,17.4,35z M16.4,29.7v3.7
					c0,0.3,0.2,0.5,0.5,0.5h0.5c0.3,0,0.5-0.2,0.5-0.5v-3.7H16.4z"/>
			</g>
			<g>
				<path class="st3" d="M10.1,26v1.1c0,1.2,0.9,2.1,2.1,2.1h10.3c1.2,0,2.1-0.9,2.1-2.1V26H10.1z"/>
			</g>
			<path class="st4" d="M23.2,7.8c0-0.1-0.1-0.1-0.1-0.1c-0.1-0.1-0.2-0.3-0.3-0.4c-0.1-0.1-0.1-0.1-0.2-0.2
				c-0.1-0.1-0.1-0.1-0.2-0.2c-0.1-0.1-0.1-0.1-0.2-0.2c-0.1-0.1-0.2-0.2-0.3-0.3c-0.1-0.1-0.2-0.1-0.3-0.2c-0.1,0-0.1-0.1-0.2-0.1
				c-0.1-0.1-0.3-0.2-0.4-0.3c0,0-0.1-0.1-0.1-0.1c-0.1-0.1-0.3-0.1-0.4-0.2c-0.1,0-0.1,0-0.2-0.1c-0.2-0.1-0.3-0.1-0.5-0.2
				c0,0-0.1,0-0.1,0c-0.1,0-0.3-0.1-0.5-0.1c0,0-0.1,0-0.1,0c-0.2,0-0.4-0.1-0.6-0.1c0,0-0.1,0-0.1,0c-0.2,0-0.4,0-0.6,0H17
				c-0.2,0-0.4,0-0.6,0c0,0-0.1,0-0.1,0c-0.2,0-0.4,0-0.6,0.1c0,0-0.1,0-0.1,0c-0.1,0-0.3,0.1-0.5,0.1c0,0-0.1,0-0.1,0
				c-0.2,0.1-0.3,0.1-0.5,0.2c-0.1,0-0.1,0-0.2,0.1c-0.1,0.1-0.3,0.1-0.4,0.2c0,0-0.1,0-0.1,0.1c-0.1,0.1-0.3,0.2-0.4,0.3
				c-0.1,0-0.1,0.1-0.2,0.1c-0.1,0.1-0.2,0.1-0.3,0.2c-0.1,0.1-0.2,0.2-0.3,0.3c-0.1,0.1-0.1,0.1-0.2,0.2C12.1,6.9,12,7,11.9,7.1
				c-0.1,0.1-0.1,0.1-0.2,0.2c-0.1,0.1-0.2,0.3-0.3,0.4c0,0-0.1,0.1-0.1,0.1C10.5,9,10,10.4,10,11.9v5.8V26h14.5v-8.3v-5.8
				C24.5,10.4,24,8.9,23.2,7.8z"/>
		</g>
		<path class="st5" d="M12.9,9.1c-0.1,0-0.3,0-0.4-0.1c-0.2-0.2-0.2-0.5,0-0.7l0.5-0.5c0.2-0.2,0.5-0.2,0.7,0c0.2,0.2,0.2,0.5,0,0.7
			L13.3,9C13.2,9.1,13.1,9.1,12.9,9.1z"/>
		<path class="st6" d="M17.2,7.4c-0.1,0-0.2,0-0.3-0.1l-0.6-0.4C16,6.7,16,6.4,16.1,6.1c0.2-0.2,0.5-0.3,0.7-0.1l0.6,0.4
			c0.2,0.2,0.3,0.5,0.1,0.7C17.4,7.4,17.3,7.4,17.2,7.4z"/>
		<path class="st5" d="M17.3,11.5c-0.1,0-0.1,0-0.2,0l-0.7-0.3c-0.3-0.1-0.4-0.4-0.3-0.7c0.1-0.3,0.4-0.4,0.7-0.3l0.7,0.3
			c0.3,0.1,0.4,0.4,0.3,0.7C17.7,11.3,17.5,11.5,17.3,11.5z"/>
		<path class="st6" d="M19.8,14.4c0,0-0.1,0-0.1,0c-0.3-0.1-0.4-0.3-0.4-0.6l0.1-0.7c0.1-0.3,0.3-0.4,0.6-0.4
			c0.3,0.1,0.4,0.3,0.4,0.6L20.3,14C20.2,14.3,20,14.4,19.8,14.4z"/>
		<path class="st5" d="M11.9,21.3c-0.3,0-0.5-0.2-0.5-0.5c0-0.3,0.2-0.5,0.5-0.6h0.7c0.3,0,0.5,0.2,0.6,0.5c0,0.3-0.2,0.5-0.5,0.6
			H11.9L11.9,21.3z"/>
		<path class="st6" d="M17.2,20.2c0,0-0.1,0-0.1,0c-0.3-0.1-0.4-0.3-0.4-0.6l0.1-0.7c0.1-0.3,0.3-0.4,0.6-0.4
			c0.3,0.1,0.4,0.3,0.4,0.6l-0.1,0.7C17.6,20.1,17.4,20.2,17.2,20.2z"/>
		<path class="st6" d="M12.8,18.5c-0.1,0-0.3,0-0.4-0.1l-0.6-0.5c-0.2-0.2-0.2-0.5,0-0.7c0.2-0.2,0.5-0.2,0.7,0l0.6,0.5
			c0.2,0.2,0.2,0.5,0,0.7C13,18.5,12.9,18.5,12.8,18.5z"/>
		<path class="st5" d="M16.3,16.5c-0.1,0-0.1,0-0.2,0l-0.7-0.3c-0.3-0.1-0.4-0.4-0.3-0.7c0.1-0.3,0.4-0.4,0.7-0.3l0.7,0.3
			c0.3,0.1,0.4,0.4,0.3,0.7C16.7,16.4,16.6,16.5,16.3,16.5z"/>
		<path class="st6" d="M12.9,14.1c0,0-0.1,0-0.1,0c-0.3,0-0.5-0.3-0.4-0.6l0.1-0.7c0-0.3,0.3-0.5,0.6-0.4c0.3,0,0.5,0.3,0.4,0.6
			l-0.1,0.7C13.4,13.9,13.2,14.1,12.9,14.1z"/>
		<path class="st5" d="M21.4,19.7c-0.1,0-0.1,0-0.2,0l-0.7-0.3c-0.3-0.1-0.4-0.4-0.3-0.7s0.4-0.4,0.7-0.3l0.7,0.3
			c0.3,0.1,0.4,0.4,0.3,0.7C21.8,19.6,21.6,19.7,21.4,19.7z"/>
		<path class="st5" d="M22.4,22.2c-0.3,0-0.5-0.2-0.5-0.5c0-0.3,0.2-0.5,0.5-0.6l0.7,0c0.3,0,0.5,0.2,0.6,0.5c0,0.3-0.2,0.5-0.5,0.6
			L22.4,22.2L22.4,22.2z"/>
		<path class="st6" d="M18.1,23.9c-0.1,0-0.1,0-0.3-0.1l-0.7-0.3c-0.3-0.1-0.4-0.4-0.2-0.7c0.1-0.3,0.4-0.4,0.7-0.2l0.7,0.3
			c0.3,0.1,0.4,0.4,0.2,0.7C18.5,23.8,18.3,23.9,18.1,23.9z"/>
		<path class="st6" d="M22.8,25.5c-0.1,0-0.3,0-0.4-0.1l-0.6-0.5c-0.2-0.2-0.2-0.5,0-0.7c0.2-0.2,0.5-0.2,0.7,0l0.6,0.5
			c0.2,0.2,0.2,0.5,0,0.7C23.1,25.4,22.9,25.5,22.8,25.5z"/>
		<path class="st6" d="M13.1,24.9c-0.2,0-0.3-0.1-0.4-0.2l-0.4-0.6c-0.1-0.2-0.1-0.6,0.1-0.7c0.2-0.1,0.6-0.1,0.7,0.1l0.4,0.6
			c0.1,0.2,0.1,0.6-0.1,0.7C13.3,24.9,13.2,24.9,13.1,24.9z"/>
	</g>
</g>
<g>
	<g>
		<g>
			<g>
				<g>
					<path class="st1" d="M92,35.6c-1.2,0-2.2-1-2.2-2.2v-4.2c0-0.6,0.5-1.1,1.1-1.1h2.6c0.6,0,1.1,0.5,1.1,1.1v4.2
						c-0.1,1.2-1.1,2.2-2.2,2.2H92z"/>
					<path class="st1" d="M93.6,29.2v4.2c0,0.6-0.5,1-1.1,1H92c-0.6,0-1-0.5-1-1v-4.2H93.6 M93.6,26.9H91c-1.3,0-2.3,1-2.3,2.3v4.2
						c0,1.8,1.5,3.3,3.3,3.3h0.5c1.8,0,3.3-1.4,3.4-3.2c0-0.1,0-0.1,0-0.2v-4.2C95.9,28,94.9,26.9,93.6,26.9L93.6,26.9z"/>
				</g>
				<g>
					<path class="st1" d="M92,36.2c-1.5,0-2.8-1.2-2.8-2.8v-4.8c0-0.6,0.5-1.1,1.1-1.1h3.7c0.6,0,1.1,0.5,1.1,1.1v4.8
						c0,1.5-1.2,2.8-2.7,2.8H92z"/>
					<path class="st1" d="M94.1,28.6v4.8c0,0.9-0.7,1.6-1.6,1.6H92c-0.9,0-1.6-0.7-1.6-1.6v-4.8H94.1 M92,33.9h0.5
						c0.3,0,0.5-0.2,0.5-0.5v-3.7h-1.6v3.7C91.4,33.7,91.7,33.9,92,33.9 M94.1,26.3h-3.7c-1.3,0-2.3,1-2.3,2.3v4.8
						c0,2.2,1.7,3.9,3.9,3.9h0.5c2.1,0,3.9-1.7,3.9-3.9v-4.8C96.4,27.4,95.4,26.3,94.1,26.3L94.1,26.3z"/>
				</g>
			</g>
			<g>
				<g>
					<path class="st1" d="M87.2,30.4c-1.8,0-3.2-1.5-3.2-3.2V26c0-0.6,0.5-1.1,1.1-1.1h14.5c0.6,0,1.1,0.5,1.1,1.1v1.1
						c0,1.8-1.5,3.2-3.2,3.2H87.2z"/>
					<path class="st1" d="M99.6,26v1.1c0,1.2-0.9,2.1-2.1,2.1H87.2c-1.2,0-2.1-0.9-2.1-2.1V26H99.6 M99.6,23.7H85.2
						c-1.3,0-2.3,1-2.3,2.3v1.1c0,2.4,2,4.4,4.4,4.4h10.3c2.4,0,4.4-2,4.4-4.4V26C101.9,24.8,100.9,23.7,99.6,23.7L99.6,23.7z"/>
				</g>
			</g>
			<g>
				<path class="st1" d="M85,27.2c-0.6,0-1.1-0.5-1.1-1.1V11.9c0-1.7,0.5-3.3,1.5-4.7c0,0,0.1-0.2,0.1-0.2c0.1-0.2,0.3-0.4,0.4-0.5
					L86.4,6c0.1-0.1,0.2-0.1,0.2-0.2c0.1-0.1,0.3-0.3,0.5-0.4c0,0,0.1-0.1,0.1-0.1c0.1-0.1,0.2-0.1,0.3-0.2c0,0,0.1-0.1,0.2-0.2
					c0,0,0.1,0,0.1-0.1c0.1-0.1,0.2-0.1,0.3-0.2c0,0,0.1,0,0.1,0c0.1-0.1,0.2-0.1,0.3-0.1c0,0,0.1,0,0.1-0.1c0.1,0,0.2-0.1,0.2-0.1
					c0.1-0.1,0.3-0.1,0.4-0.1c0.1,0,0.1,0,0.2-0.1c0.1,0,0.1,0,0.2-0.1c0,0,0.1,0,0.2,0l0.3-0.1C90.2,4,90.3,4,90.5,4
					c0.1,0,0.2,0,0.3,0c0.1,0,0.1,0,0.2,0c0.1,0,0.1,0,0.2,0h0.1c0.3,0,0.5,0,0.7,0h0.6c0.2,0,0.4,0,0.7,0h0.1c0.2,0,0.5,0,0.8,0.1
					c0.1,0,0.1,0,0.2,0.1c0,0,0.5,0.1,0.6,0.1c0.2,0,0.4,0.1,0.6,0.2c0,0,0.2,0.1,0.2,0.1c0,0,0.1,0,0.2,0.1c0,0,0.1,0,0.1,0.1
					c0.1,0,0.1,0,0.2,0.1c0.1,0,0.2,0.1,0.3,0.2c0.1,0,0.1,0.1,0.2,0.1c0,0,0.1,0.1,0.1,0.1c0.1,0,0.2,0.1,0.3,0.2
					c0.1,0.1,0.3,0.2,0.5,0.4c0,0,0.1,0.1,0.1,0.1c0,0,0.1,0.1,0.2,0.1c0.1,0,0.1,0.1,0.2,0.2l0.4,0.4c0,0,0.1,0.1,0.1,0.1
					c0,0.1,0.1,0.1,0.1,0.1C98.9,6.8,99,6.9,99,6.9c0.1,0.1,0.1,0.2,0.2,0.3c1,1.4,1.5,3.1,1.4,4.7l0,14.1c0,0.6-0.5,1.1-1.1,1.1H85
					z"/>
				<path class="st1" d="M92.6,5c0.2,0,0.4,0,0.6,0c0,0,0.1,0,0.1,0c0.2,0,0.4,0,0.6,0.1c0,0,0.1,0,0.1,0c0.1,0,0.3,0.1,0.5,0.1
					c0,0,0.1,0,0.1,0c0.2,0,0.3,0.1,0.5,0.2c0.1,0,0.1,0,0.2,0.1c0.1,0.1,0.3,0.1,0.4,0.2c0,0,0.1,0,0.1,0.1
					c0.1,0.1,0.3,0.2,0.4,0.3c0.1,0,0.1,0.1,0.2,0.1c0.1,0,0.2,0.1,0.3,0.2c0.1,0.1,0.2,0.2,0.3,0.3c0.1,0.1,0.1,0.1,0.2,0.2
					c0.1,0.1,0.1,0.1,0.2,0.2c0.1,0.1,0.1,0.1,0.2,0.2c0.1,0.1,0.2,0.3,0.3,0.4c0,0,0.1,0.1,0.1,0.1c0.8,1.1,1.3,2.5,1.2,4v5.8V26
					H85v-8.3v-5.8c0-1.5,0.5-2.9,1.3-4.1c0,0,0.1-0.1,0.1-0.1c0.1-0.1,0.2-0.3,0.3-0.4c0.1-0.1,0.1-0.1,0.2-0.2
					c0.1-0.1,0.1-0.1,0.2-0.2c0.1-0.1,0.1-0.1,0.2-0.2c0.1-0.1,0.2-0.2,0.3-0.3c0.1,0,0.2-0.1,0.3-0.2c0.1,0,0.1-0.1,0.2-0.1
					c0.1-0.1,0.3-0.2,0.4-0.3c0,0,0.1,0,0.1-0.1c0.1-0.1,0.3-0.1,0.4-0.2c0.1,0,0.1,0,0.2-0.1c0.2-0.1,0.3-0.1,0.5-0.2
					c0,0,0.1,0,0.1,0c0.1,0,0.3-0.1,0.5-0.1c0,0,0.1,0,0.1,0c0.2,0,0.4,0,0.6-0.1c0,0,0.1,0,0.1,0c0.2,0,0.4,0,0.6,0H92.6 M92.6,2.7
					H92c-0.2,0-0.5,0-0.8,0c-0.1,0-0.3,0-0.4,0l-0.1,0c-0.1,0-0.2,0-0.4,0c-0.2,0-0.4,0.1-0.6,0.1c-0.1,0-0.1,0-0.2,0
					c-0.1,0-0.2,0-0.2,0.1c-0.1,0-0.2,0.1-0.3,0.1c0,0-0.1,0-0.1,0c-0.1,0-0.2,0.1-0.4,0.1c0,0,0,0,0,0c-0.1,0-0.2,0.1-0.3,0.1
					c0,0-0.1,0-0.1,0c-0.1,0-0.2,0.1-0.3,0.1c-0.1,0-0.2,0.1-0.3,0.2c-0.1,0-0.2,0.1-0.2,0.1l-0.1,0c-0.2,0.1-0.3,0.2-0.4,0.2
					c-0.1,0.1-0.2,0.1-0.2,0.2c0,0,0,0-0.1,0C86.2,4.7,86,4.8,85.9,5c-0.1,0.1-0.2,0.1-0.3,0.3l-0.2,0.2l-0.2,0.2
					c-0.2,0.2-0.4,0.4-0.5,0.6c-0.1,0.1-0.1,0.1-0.1,0.2c0,0,0,0-0.1,0.1c-1.1,1.6-1.7,3.5-1.7,5.4v5.8V26c0,1.3,1,2.3,2.3,2.3h14.5
					c1.3,0,2.3-1,2.3-2.3v-8.3v-5.8c0.1-1.8-0.4-3.7-1.6-5.4c-0.1-0.2-0.2-0.3-0.3-0.4C99.8,6.1,99.8,6,99.7,6c0,0,0-0.1-0.1-0.1
					c-0.1-0.1-0.1-0.2-0.2-0.2l-0.1-0.1l-0.1-0.1L99,5.2c-0.1-0.1-0.2-0.2-0.3-0.3c-0.1,0-0.1-0.1-0.2-0.1l0,0
					c-0.2-0.2-0.4-0.4-0.7-0.5c-0.1-0.1-0.2-0.2-0.4-0.2l0,0c-0.1,0-0.1-0.1-0.2-0.1c-0.1-0.1-0.3-0.2-0.4-0.2
					c-0.1,0-0.1-0.1-0.2-0.1c0,0-0.1,0-0.1,0c-0.1-0.1-0.2-0.1-0.3-0.1c0,0,0,0,0,0l-0.1,0c-0.2-0.1-0.4-0.2-0.8-0.3
					C95.2,3,95.1,3,95,3c-0.1,0-0.1,0-0.2,0l-0.1,0c-0.1,0-0.2-0.1-0.3-0.1c-0.4-0.1-0.7-0.1-1-0.1C93.1,2.7,92.8,2.7,92.6,2.7
					L92.6,2.7z"/>
			</g>
		</g>
		<g>
			<path class="st1" d="M88,10.3c-0.5,0-0.9-0.2-1.2-0.5c-0.3-0.3-0.5-0.7-0.5-1.2s0.2-0.9,0.5-1.2l0.5-0.5c0.3-0.3,0.7-0.5,1.2-0.5
				s0.9,0.2,1.2,0.5c0.7,0.7,0.7,1.7,0,2.4l-0.5,0.5C88.8,10.1,88.4,10.3,88,10.3z"/>
			<path class="st1" d="M88.5,7.5c0.1,0,0.3,0.1,0.4,0.2c0.2,0.2,0.2,0.5,0,0.7L88.4,9c-0.1,0.1-0.2,0.1-0.4,0.1s-0.3,0-0.4-0.1
				c-0.2-0.2-0.2-0.5,0-0.7l0.5-0.5C88.2,7.6,88.4,7.5,88.5,7.5 M88.5,5.2c-0.7,0-1.5,0.3-2,0.8L86,6.6c-0.5,0.5-0.8,1.3-0.8,2
				s0.3,1.5,0.8,2c0.5,0.5,1.2,0.8,2,0.8c0.8,0,1.5-0.3,2-0.8l0.5-0.5c0.5-0.5,0.8-1.3,0.8-2c0-0.7-0.3-1.5-0.8-2
				C90,5.5,89.3,5.2,88.5,5.2L88.5,5.2z"/>
		</g>
		<g>
			<path class="st1" d="M92.2,8.6c-0.4,0-0.8-0.1-1-0.4l-0.6-0.4c-0.7-0.6-0.9-1.6-0.4-2.3c0.4-0.5,0.9-0.7,1.4-0.7
				c0.3,0,0.7,0.1,1,0.3l0.6,0.5c0.7,0.6,0.9,1.6,0.4,2.3C93.2,8.4,92.7,8.6,92.2,8.6z"/>
			<path class="st1" d="M91.6,5.9c0.1,0,0.2,0,0.3,0.1l0.6,0.4c0.2,0.2,0.3,0.5,0.1,0.7c-0.1,0.1-0.3,0.2-0.4,0.2
				c-0.1,0-0.2,0-0.3-0.1l-0.6-0.4c-0.2-0.2-0.3-0.5-0.1-0.7C91.3,6,91.5,5.9,91.6,5.9 M91.6,3.6C91.6,3.6,91.6,3.6,91.6,3.6
				c-0.8,0-1.6,0.4-2.2,1c0,0-0.1,0.1-0.1,0.1c-0.9,1.2-0.7,2.9,0.5,3.8c0,0,0.1,0,0.1,0.1l0.5,0.4c0.5,0.4,1.1,0.6,1.7,0.6
				c0.9,0,1.7-0.4,2.3-1.1c0,0,0,0,0,0c0.9-1.2,0.7-2.9-0.5-3.8c0,0-0.1,0-0.1-0.1l-0.6-0.4c0,0,0,0,0,0C92.8,3.8,92.2,3.6,91.6,3.6
				L91.6,3.6z"/>
		</g>
		<g>
			<path class="st1" d="M92.4,12.6c-0.1,0-0.4,0-0.7-0.2L91,12.2c-0.4-0.2-0.7-0.5-0.9-0.9c-0.2-0.4-0.2-0.9,0-1.3
				c0.3-0.6,0.9-1,1.5-1c0.2,0,0.4,0,0.6,0.1L93,9.4c0.4,0.2,0.7,0.5,0.9,0.9c0.2,0.4,0.2,0.9,0,1.3C93.7,12.2,93,12.6,92.4,12.6z"
				/>
			<path class="st1" d="M91.7,10.1c0.1,0,0.1,0,0.2,0l0.7,0.3c0.3,0.1,0.4,0.4,0.3,0.7c-0.1,0.2-0.3,0.3-0.5,0.3c-0.1,0-0.1,0-0.2,0
				l-0.7-0.3c-0.3-0.1-0.4-0.4-0.3-0.7C91.3,10.3,91.5,10.1,91.7,10.1 M91.7,7.8C91.7,7.8,91.7,7.8,91.7,7.8c-1.1,0-2.2,0.7-2.6,1.7
				c-0.6,1.4,0.1,3.1,1.5,3.7l0.6,0.2c0.4,0.2,0.8,0.3,1.2,0.3c1.1,0,2.2-0.7,2.6-1.8c0.6-1.4-0.1-3.1-1.5-3.7L92.7,8
				C92.4,7.9,92.1,7.8,91.7,7.8L91.7,7.8z"/>
		</g>
		<g>
			<path class="st1" d="M94.8,15.6c-0.1,0-0.2,0-0.3,0c-0.8-0.2-1.4-1-1.3-1.9l0.2-0.8c0.2-0.8,0.9-1.3,1.7-1.3c0,0,0.2,0,0.2,0
				c0,0,0.1,0,0.1,0c0.8,0.2,1.4,1,1.3,1.9l-0.2,0.8c-0.2,0.8-0.9,1.3-1.6,1.3H94.8z"/>
			<path class="st1" d="M95,12.6C95.1,12.6,95.1,12.6,95,12.6c0.4,0.1,0.5,0.3,0.5,0.6L95.4,14c-0.1,0.3-0.3,0.4-0.5,0.4
				c0,0-0.1,0-0.1,0c-0.3-0.1-0.4-0.3-0.4-0.6l0.1-0.7C94.6,12.8,94.8,12.6,95,12.6 M95,10.3C95,10.3,95,10.3,95,10.3
				c-1.3,0-2.5,0.9-2.8,2.2c0,0,0,0.1,0,0.1l-0.1,0.7c0,0.1,0,0.1,0,0.2c-0.2,1.5,0.7,2.8,2.1,3.1c0.2,0,0.4,0.1,0.6,0.1h0.1
				c1.3,0,2.4-0.9,2.7-2.1c0-0.1,0-0.1,0-0.2l0.1-0.7c0-0.1,0-0.1,0-0.2c0.2-1.5-0.7-2.8-2.1-3.1c-0.1,0-0.2,0-0.3-0.1
				C95.3,10.3,95.2,10.3,95,10.3L95,10.3z"/>
		</g>
		<g>
			<path class="st1" d="M86.9,22.5c-0.9,0-1.7-0.7-1.7-1.7c0-0.9,0.6-1.6,1.5-1.7c0,0,0.1,0,0.1,0h0.7c0.9,0,1.6,0.6,1.7,1.5
				c0,0,0,0.1,0,0.1c0,0.9-0.6,1.6-1.5,1.7c0,0-0.1,0-0.1,0H86.9z"/>
			<path class="st1" d="M87.7,20.2c0.3,0,0.5,0.2,0.6,0.5c0,0.3-0.2,0.5-0.5,0.6h-0.8c-0.3,0-0.5-0.2-0.5-0.5c0-0.3,0.2-0.5,0.5-0.6
				H87.7 M87.7,17.9h-0.7c-0.1,0-0.2,0-0.3,0c-1.4,0.2-2.5,1.4-2.5,2.8c0,1.6,1.3,2.8,2.8,2.8h0.8c0.1,0,0.2,0,0.3,0
				c1.4-0.2,2.5-1.4,2.5-2.8c0-0.1,0-0.2,0-0.3C90.3,19,89.1,17.9,87.7,17.9L87.7,17.9z"/>
		</g>
		<g>
			<path class="st1" d="M92.1,21.4c-0.1,0-0.2,0-0.3,0c-0.8-0.2-1.4-1-1.3-1.9l0.2-0.8c0.2-0.8,0.9-1.3,1.7-1.3c0,0,0.2,0,0.2,0
				c0,0,0.1,0,0.1,0c0.8,0.2,1.4,1,1.3,1.9L93.8,20c-0.1,0.7-0.8,1.3-1.6,1.3H92.1z"/>
			<path class="st1" d="M92.4,18.4C92.4,18.4,92.4,18.4,92.4,18.4c0.4,0.1,0.5,0.3,0.5,0.6l-0.1,0.7c0,0.3-0.3,0.4-0.5,0.4
				c0,0-0.1,0-0.1,0c-0.3-0.1-0.4-0.3-0.4-0.6l0.1-0.7C91.9,18.6,92.1,18.4,92.4,18.4 M92.4,16.1c-1.3,0-2.5,0.9-2.8,2.2
				c0,0,0,0.1,0,0.1l-0.1,0.7c0,0.1,0,0.1,0,0.2c-0.2,1.5,0.7,2.8,2.1,3.1c0.2,0,0.4,0.1,0.6,0.1h0.1c1.4,0,2.6-1,2.8-2.3l0.1-0.7
				c0-0.1,0-0.1,0-0.2c0.2-1.5-0.7-2.8-2.1-3.1c-0.1,0-0.2,0-0.3-0.1C92.6,16.1,92.5,16.1,92.4,16.1L92.4,16.1z"/>
		</g>
		<g>
			<path class="st1" d="M87.8,19.7c-0.4,0-0.9-0.2-1.2-0.5l-0.5-0.5c-0.7-0.5-0.7-1.6-0.1-2.3c0.3-0.4,0.8-0.6,1.3-0.6
				c0.4,0,0.8,0.1,1.1,0.4l0.6,0.6c0.3,0.2,0.5,0.6,0.5,1.1c0,0.4-0.1,0.8-0.3,1.2C88.9,19.4,88.4,19.7,87.8,19.7z"/>
			<path class="st1" d="M87.2,16.9c0.1,0,0.3,0,0.4,0.1l0.6,0.5c0.2,0.2,0.2,0.5,0,0.7c-0.1,0.1-0.2,0.2-0.4,0.2
				c-0.1,0-0.3,0-0.4-0.1l-0.6-0.5c-0.2-0.2-0.2-0.5,0-0.7C86.9,17,87.1,16.9,87.2,16.9 M87.2,14.6c-0.8,0-1.6,0.4-2.1,1
				c-1,1.2-0.9,2.9,0.3,3.9l0.5,0.5c0.5,0.5,1.2,0.8,2,0.8c1,0,1.8-0.4,2.3-1.2c0.8-1.2,0.7-2.8-0.4-3.7l-0.5-0.5
				c0,0-0.1-0.1-0.1-0.1C88.5,14.9,87.9,14.6,87.2,14.6L87.2,14.6z"/>
		</g>
		<g>
			<path class="st1" d="M91.4,17.6c-0.2,0-0.4,0-0.6-0.1l-0.7-0.2c-0.4-0.2-0.8-0.5-0.9-0.9c-0.2-0.4-0.2-0.9,0-1.3
				c0.3-0.6,0.9-1,1.5-1c0.2,0,0.4,0,0.6,0.1l0.7,0.2c0.4,0.2,0.8,0.5,0.9,0.9c0.2,0.4,0.2,0.9,0,1.3C92.8,17.2,92.1,17.6,91.4,17.6
				z"/>
			<path class="st1" d="M90.7,15.2c0.1,0,0.1,0,0.2,0l0.7,0.3c0.3,0.1,0.4,0.4,0.3,0.7c-0.1,0.2-0.3,0.3-0.5,0.3c-0.1,0-0.1,0-0.2,0
				l-0.7-0.3c-0.3-0.1-0.4-0.4-0.3-0.7C90.3,15.3,90.5,15.2,90.7,15.2 M90.7,12.9c-1.1,0-2.2,0.7-2.6,1.7c-0.6,1.4,0.1,3.1,1.5,3.7
				c0,0,0.1,0,0.1,0l0.6,0.2c0.4,0.2,0.8,0.2,1.1,0.2c1.2,0,2.2-0.7,2.6-1.8c0.5-1.4-0.1-3-1.5-3.6c0,0-0.1,0-0.1,0l-0.7-0.2
				C91.4,13,91.1,12.9,90.7,12.9L90.7,12.9z"/>
		</g>
		<g>
			<path class="st1" d="M87.9,15.2c0,0-0.1,0-0.1,0c-0.5-0.1-0.9-0.3-1.1-0.7c-0.3-0.4-0.4-0.9-0.2-1.4l0.1-0.7
				c0.1-0.7,0.8-1.4,1.6-1.4c0.1,0,0.2,0,0.3,0c0.4,0.1,0.8,0.3,1.1,0.7c0.3,0.4,0.4,0.9,0.2,1.4l-0.1,0.7c-0.1,0.7-0.8,1.3-1.6,1.3
				H87.9z"/>
			<path class="st1" d="M88.1,12.3c0,0,0.1,0,0.1,0c0.3,0,0.5,0.3,0.4,0.6l-0.1,0.7c0,0.3-0.3,0.4-0.5,0.4c0,0-0.1,0-0.1,0
				c-0.3,0-0.5-0.3-0.4-0.6l0.1-0.7C87.6,12.4,87.9,12.3,88.1,12.3 M88.1,10c-1.4,0-2.5,1-2.8,2.3L85.2,13c-0.2,0.8,0,1.6,0.4,2.2
				c0.4,0.7,1.2,1.1,1.9,1.2c0.1,0,0.2,0,0.3,0H88c1.4,0,2.6-1,2.8-2.3l0.1-0.7c0.2-0.8,0-1.6-0.4-2.2c-0.4-0.6-1.1-1-1.8-1.2
				C88.5,10,88.3,10,88.1,10L88.1,10z"/>
		</g>
		<g>
			<path class="st1" d="M96.4,20.9c-0.1,0-0.4,0-0.7-0.1l-0.6-0.2c-0.5-0.2-0.8-0.5-1-1c-0.2-0.4-0.2-0.8,0-1.2c0.3-0.6,0.9-1,1.5-1
				c0.2,0,0.4,0,0.6,0.1l0.7,0.2c0.5,0.2,0.8,0.5,1,1c0.2,0.4,0.2,0.8,0,1.2C97.7,20.4,97.1,20.9,96.4,20.9z"/>
			<path class="st1" d="M95.7,18.4c0.1,0,0.1,0,0.2,0l0.7,0.3c0.3,0.1,0.4,0.4,0.3,0.7c-0.1,0.2-0.3,0.3-0.5,0.3c-0.1,0-0.1,0-0.2,0
				l-0.7-0.3c-0.3-0.1-0.4-0.4-0.3-0.7C95.3,18.5,95.5,18.4,95.7,18.4 M95.7,16.1C95.7,16.1,95.7,16.1,95.7,16.1
				c-1.1,0-2.2,0.7-2.6,1.7c-0.6,1.4,0.1,3.1,1.5,3.7c0,0,0.1,0,0.1,0l0.5,0.2c0.3,0.2,0.7,0.2,1.1,0.2c1.1,0,2.2-0.7,2.6-1.8
				c0.6-1.4-0.1-3.1-1.5-3.7c0,0-0.1,0-0.1,0l-0.7-0.2C96.4,16.2,96.1,16.1,95.7,16.1L95.7,16.1z"/>
		</g>
		<g>
			<path class="st1" d="M97.4,23.4c-0.9,0-1.7-0.7-1.7-1.7c0-0.9,0.6-1.6,1.5-1.7c0,0,0.8,0,0.8,0c0.9,0,1.6,0.6,1.8,1.5
				c0,0,0,0.1,0,0.1c0,0.9-0.6,1.6-1.5,1.7C98.3,23.3,97.5,23.4,97.4,23.4L97.4,23.4z"/>
			<path class="st1" d="M98.2,21.1c0.3,0,0.5,0.2,0.6,0.5c0,0.3-0.2,0.5-0.5,0.6l-0.8,0c0,0,0,0,0,0h0c-0.3,0-0.5-0.2-0.5-0.5
				c0-0.3,0.2-0.5,0.5-0.6L98.2,21.1 M98.2,18.8c0,0-0.1,0-0.1,0l-0.7,0c-0.1,0-0.1,0-0.2,0c-1.4,0.2-2.5,1.4-2.5,2.8
				c0,1.6,1.3,2.8,2.8,2.8c0,0,0.1,0,0.1,0l0.8,0c0.1,0,0.1,0,0.2,0c1.4-0.2,2.5-1.4,2.5-2.8c0-0.1,0-0.2,0-0.3
				C100.8,19.9,99.6,18.8,98.2,18.8L98.2,18.8z"/>
		</g>
		<g>
			<path class="st1" d="M93.1,25c-0.3,0-0.5-0.1-0.6-0.1c0,0-0.2-0.1-0.2-0.1l-0.7-0.3c-0.5-0.3-0.7-0.6-0.9-1.1
				c-0.1-0.4-0.1-0.9,0.2-1.2c0.3-0.5,0.9-0.9,1.5-0.9c0.3,0,0.6,0.1,0.8,0.2l0.6,0.3c0.5,0.3,0.7,0.6,0.9,1.1
				c0.1,0.4,0.1,0.8-0.1,1.2C94.3,24.7,93.8,25,93.1,25z"/>
			<path class="st1" d="M92.4,22.5c0.1,0,0.2,0,0.2,0.1l0.7,0.3c0.3,0.1,0.4,0.4,0.2,0.7c-0.1,0.2-0.2,0.3-0.4,0.3
				c-0.1,0-0.1,0-0.3-0.1l-0.7-0.3c-0.3-0.1-0.4-0.4-0.2-0.7C92.1,22.6,92.2,22.5,92.4,22.5 M92.4,20.2
				C92.4,20.2,92.4,20.2,92.4,20.2c-1,0-1.9,0.6-2.5,1.4c-0.8,1.4-0.3,3.1,1.1,3.8c0,0,0.1,0,0.1,0.1l0.7,0.3c0.1,0,0.2,0.1,0.3,0.1
				c0.2,0.1,0.5,0.2,1,0.2c1.1,0,2.1-0.6,2.5-1.6c0.7-1.3,0.2-2.9-1.2-3.7c0,0-0.1,0-0.1-0.1l-0.6-0.3
				C93.3,20.3,92.9,20.2,92.4,20.2L92.4,20.2z"/>
		</g>
		<g>
			<path class="st1" d="M97.9,26.7c-0.4,0-0.9-0.2-1.2-0.5l-0.5-0.5c-0.3-0.2-0.5-0.6-0.5-1.1c0-0.4,0.1-0.9,0.4-1.3
				c0.3-0.4,0.8-0.6,1.3-0.6c0.4,0,0.8,0.1,1.1,0.4l0.6,0.6c0.3,0.3,0.5,0.7,0.5,1.2c0,0.4-0.1,0.8-0.4,1.2
				C98.7,26.5,98.3,26.7,97.9,26.7z"/>
			<path class="st1" d="M97.3,23.9c0.1,0,0.3,0,0.4,0.1l0.6,0.5c0.2,0.2,0.2,0.5,0,0.7c-0.1,0.1-0.2,0.2-0.4,0.2
				c-0.1,0-0.3,0-0.4-0.1l-0.6-0.5c-0.2-0.2-0.2-0.5,0-0.7C97,24,97.1,23.9,97.3,23.9 M97.3,21.6c-0.8,0-1.6,0.4-2.1,1
				c-1,1.2-0.9,2.9,0.3,3.9l0.5,0.5c0.5,0.5,1.2,0.8,2,0.8c0.5,0,1.3-0.1,2-0.9c0,0,0.1-0.1,0.1-0.2c1-1.2,0.9-2.9-0.3-3.9l-0.5-0.5
				c0,0-0.1-0.1-0.1-0.1C98.6,21.9,97.9,21.6,97.3,21.6L97.3,21.6z"/>
		</g>
		<g>
			<path class="st1" d="M88.1,26.1c-0.6,0-1-0.2-1.4-0.7l-0.5-0.7c-0.5-0.8-0.3-1.8,0.4-2.3c0.3-0.2,0.6-0.3,1-0.3
				c0.5,0,1.1,0.3,1.4,0.7l0.4,0.7c0.5,0.8,0.3,1.8-0.4,2.3c-0.1,0.1-0.2,0.1-0.3,0.2C88.6,26,88.4,26.1,88.1,26.1z"/>
			<path class="st1" d="M87.7,23.2c0.2,0,0.3,0.1,0.5,0.2l0.4,0.6c0.1,0.2,0.1,0.6-0.1,0.7c-0.1,0-0.2,0.1-0.3,0.1
				c-0.2,0-0.3-0.1-0.4-0.2l-0.4-0.6c-0.1-0.2-0.1-0.6,0.1-0.7C87.5,23.3,87.6,23.2,87.7,23.2 M87.7,20.9c-0.6,0-1.1,0.2-1.6,0.5
				c0,0,0,0-0.1,0c-1.3,0.9-1.6,2.6-0.7,3.9l0.4,0.6c0,0,0.1,0.1,0.1,0.1c0.5,0.7,1.4,1.1,2.3,1.1c0.4,0,0.8-0.1,1-0.2
				c0.2-0.1,0.4-0.2,0.6-0.3c1.3-0.9,1.6-2.6,0.7-3.9l-0.4-0.6c0,0,0-0.1-0.1-0.1C89.5,21.4,88.6,20.9,87.7,20.9L87.7,20.9z"/>
		</g>
	</g>
	<g>
		<g>
			<g>
				<path class="st2" d="M92.5,34.5H92c-0.6,0-1-0.5-1-1v-4.2h2.6v4.2C93.6,34,93.1,34.5,92.5,34.5z"/>
				<path class="st2" d="M92.5,35H92c-0.9,0-1.6-0.7-1.6-1.6v-4.8h3.7v4.8C94.1,34.3,93.4,35,92.5,35z M91.4,29.7v3.7
					c0,0.3,0.2,0.5,0.5,0.5h0.5c0.3,0,0.5-0.2,0.5-0.5v-3.7H91.4z"/>
			</g>
			<g>
				<path class="st4" d="M85.2,26v1.1c0,1.2,0.9,2.1,2.1,2.1h10.3c1.2,0,2.1-0.9,2.1-2.1V26H85.2z"/>
			</g>
			<path class="st7" d="M98.3,7.8c0-0.1-0.1-0.1-0.1-0.1c-0.1-0.1-0.2-0.3-0.3-0.4c-0.1-0.1-0.1-0.1-0.2-0.2
				c-0.1-0.1-0.1-0.1-0.2-0.2c-0.1-0.1-0.1-0.1-0.2-0.2c-0.1-0.1-0.2-0.2-0.3-0.3c-0.1-0.1-0.2-0.1-0.3-0.2s-0.1-0.1-0.2-0.1
				C96.3,6,96.1,5.9,96,5.8c0,0-0.1-0.1-0.1-0.1c-0.1-0.1-0.3-0.1-0.4-0.2c-0.1,0-0.1,0-0.2-0.1c-0.2-0.1-0.3-0.1-0.5-0.2
				c0,0-0.1,0-0.1,0c-0.1,0-0.3-0.1-0.5-0.1c0,0-0.1,0-0.1,0c-0.2,0-0.4-0.1-0.6-0.1c0,0-0.1,0-0.1,0c-0.2,0-0.4,0-0.6,0H92
				c-0.2,0-0.4,0-0.6,0c0,0-0.1,0-0.1,0c-0.2,0-0.4,0-0.6,0.1c0,0-0.1,0-0.1,0c-0.1,0-0.3,0.1-0.5,0.1c0,0-0.1,0-0.1,0
				c-0.2,0.1-0.3,0.1-0.5,0.2c-0.1,0-0.1,0-0.2,0.1c-0.1,0.1-0.3,0.1-0.4,0.2c0,0-0.1,0-0.1,0.1c-0.1,0.1-0.3,0.2-0.4,0.3
				c-0.1,0-0.1,0.1-0.2,0.1c-0.1,0.1-0.2,0.1-0.3,0.2c-0.1,0.1-0.2,0.2-0.3,0.3c-0.1,0.1-0.1,0.1-0.2,0.2S87.1,7,87,7.1
				c-0.1,0.1-0.1,0.1-0.2,0.2c-0.1,0.1-0.2,0.3-0.3,0.4c0,0-0.1,0.1-0.1,0.1C85.5,9,85,10.4,85,11.9v5.8V26h14.5v-8.3v-5.8
				C99.6,10.4,99.1,8.9,98.3,7.8z"/>
		</g>
		<path class="st5" d="M88,9.1c-0.1,0-0.3,0-0.4-0.1c-0.2-0.2-0.2-0.5,0-0.7l0.5-0.5c0.2-0.2,0.5-0.2,0.7,0s0.2,0.5,0,0.7L88.4,9
			C88.2,9.1,88.1,9.1,88,9.1z"/>
		<path class="st6" d="M92.2,7.4c-0.1,0-0.2,0-0.3-0.1l-0.6-0.4c-0.2-0.2-0.3-0.5-0.1-0.7c0.2-0.2,0.5-0.3,0.7-0.1l0.6,0.4
			c0.2,0.2,0.3,0.5,0.1,0.7C92.5,7.4,92.4,7.4,92.2,7.4z"/>
		<path class="st5" d="M92.4,11.5c-0.1,0-0.1,0-0.2,0l-0.7-0.3c-0.3-0.1-0.4-0.4-0.3-0.7c0.1-0.3,0.4-0.4,0.7-0.3l0.7,0.3
			c0.3,0.1,0.4,0.4,0.3,0.7C92.8,11.3,92.6,11.5,92.4,11.5z"/>
		<path class="st6" d="M94.9,14.4c0,0-0.1,0-0.1,0c-0.3-0.1-0.4-0.3-0.4-0.6l0.1-0.7c0.1-0.3,0.3-0.4,0.6-0.4
			c0.3,0.1,0.4,0.3,0.4,0.6L95.4,14C95.3,14.3,95.1,14.4,94.9,14.4z"/>
		<path class="st5" d="M86.9,21.3c-0.3,0-0.5-0.2-0.5-0.5c0-0.3,0.2-0.5,0.5-0.6h0.7c0.3,0,0.5,0.2,0.6,0.5c0,0.3-0.2,0.5-0.5,0.6
			H86.9L86.9,21.3z"/>
		<path class="st6" d="M92.2,20.2c0,0-0.1,0-0.1,0c-0.3-0.1-0.4-0.3-0.4-0.6l0.1-0.7c0.1-0.3,0.3-0.4,0.6-0.4
			c0.3,0.1,0.4,0.3,0.4,0.6l-0.1,0.7C92.7,20.1,92.5,20.2,92.2,20.2z"/>
		<path class="st6" d="M87.8,18.5c-0.1,0-0.3,0-0.4-0.1l-0.6-0.5c-0.2-0.2-0.2-0.5,0-0.7c0.2-0.2,0.5-0.2,0.7,0l0.6,0.5
			c0.2,0.2,0.2,0.5,0,0.7C88.1,18.5,87.9,18.5,87.8,18.5z"/>
		<path class="st5" d="M91.4,16.5c-0.1,0-0.1,0-0.2,0l-0.7-0.3c-0.3-0.1-0.4-0.4-0.3-0.7c0.1-0.3,0.4-0.4,0.7-0.3l0.7,0.3
			c0.3,0.1,0.4,0.4,0.3,0.7C91.8,16.4,91.6,16.5,91.4,16.5z"/>
		<path class="st6" d="M88,14.1c0,0-0.1,0-0.1,0c-0.3,0-0.5-0.3-0.4-0.6l0.1-0.7c0-0.3,0.3-0.5,0.6-0.4c0.3,0,0.5,0.3,0.4,0.6
			l-0.1,0.7C88.5,13.9,88.2,14.1,88,14.1z"/>
		<path class="st5" d="M96.4,19.7c-0.1,0-0.1,0-0.2,0l-0.7-0.3c-0.3-0.1-0.4-0.4-0.3-0.7s0.4-0.4,0.7-0.3l0.7,0.3
			c0.3,0.1,0.4,0.4,0.3,0.7C96.8,19.6,96.6,19.7,96.4,19.7z"/>
		<path class="st5" d="M97.4,22.2c-0.3,0-0.5-0.2-0.5-0.5c0-0.3,0.2-0.5,0.5-0.6l0.7,0c0.3,0,0.5,0.2,0.6,0.5c0,0.3-0.2,0.5-0.5,0.6
			L97.4,22.2C97.4,22.2,97.4,22.2,97.4,22.2z"/>
		<path class="st6" d="M93.1,23.9c-0.1,0-0.1,0-0.3-0.1l-0.7-0.3c-0.3-0.1-0.4-0.4-0.2-0.7c0.1-0.3,0.4-0.4,0.7-0.2l0.7,0.3
			c0.3,0.1,0.4,0.4,0.2,0.7C93.5,23.8,93.3,23.9,93.1,23.9z"/>
		<path class="st6" d="M97.9,25.5c-0.1,0-0.3,0-0.4-0.1l-0.6-0.5c-0.2-0.2-0.2-0.5,0-0.7c0.2-0.2,0.5-0.2,0.7,0l0.6,0.5
			c0.2,0.2,0.2,0.5,0,0.7C98.1,25.4,98,25.5,97.9,25.5z"/>
		<path class="st6" d="M88.1,24.9c-0.2,0-0.3-0.1-0.4-0.2l-0.4-0.6c-0.1-0.2-0.1-0.6,0.1-0.7c0.2-0.1,0.6-0.1,0.7,0.1l0.4,0.6
			c0.1,0.2,0.1,0.6-0.1,0.7C88.3,24.9,88.2,24.9,88.1,24.9z"/>
	</g>
</g>
<g>
	<g>
		<g>
			<g>
				<g>
					<path class="st1" d="M167.1,35.6c-1.2,0-2.2-1-2.2-2.2v-4.2c0-0.6,0.5-1.1,1.1-1.1h2.6c0.6,0,1.1,0.5,1.1,1.1v4.2
						c-0.1,1.2-1.1,2.2-2.2,2.2H167.1z"/>
					<path class="st1" d="M168.7,29.2v4.2c0,0.6-0.5,1-1.1,1h-0.5c-0.6,0-1-0.5-1-1v-4.2H168.7 M168.7,26.9H166
						c-1.3,0-2.3,1-2.3,2.3v4.2c0,1.8,1.5,3.3,3.3,3.3h0.5c1.8,0,3.3-1.4,3.4-3.2c0-0.1,0-0.1,0-0.2v-4.2
						C171,28,169.9,26.9,168.7,26.9L168.7,26.9z"/>
				</g>
				<g>
					<path class="st1" d="M167.1,36.2c-1.5,0-2.8-1.2-2.8-2.8v-4.8c0-0.6,0.5-1.1,1.1-1.1h3.7c0.6,0,1.1,0.5,1.1,1.1v4.8
						c0,1.5-1.2,2.8-2.7,2.8H167.1z"/>
					<path class="st1" d="M169.2,28.6v4.8c0,0.9-0.7,1.6-1.6,1.6h-0.5c-0.9,0-1.6-0.7-1.6-1.6v-4.8H169.2 M167,33.9h0.5
						c0.3,0,0.5-0.2,0.5-0.5v-3.7h-1.6v3.7C166.5,33.7,166.7,33.9,167,33.9 M169.2,26.3h-3.7c-1.3,0-2.3,1-2.3,2.3v4.8
						c0,2.2,1.7,3.9,3.9,3.9h0.5c2.1,0,3.9-1.7,3.9-3.9v-4.8C171.4,27.4,170.4,26.3,169.2,26.3L169.2,26.3z"/>
				</g>
			</g>
			<g>
				<g>
					<path class="st1" d="M162.3,30.4c-1.8,0-3.2-1.5-3.2-3.2V26c0-0.6,0.5-1.1,1.1-1.1h14.5c0.6,0,1.1,0.5,1.1,1.1v1.1
						c0,1.8-1.5,3.2-3.2,3.2H162.3z"/>
					<path class="st1" d="M174.7,26v1.1c0,1.2-0.9,2.1-2.1,2.1h-10.3c-1.2,0-2.1-0.9-2.1-2.1V26H174.7 M174.7,23.7h-14.5
						c-1.3,0-2.3,1-2.3,2.3v1.1c0,2.4,2,4.4,4.4,4.4h10.3c2.4,0,4.4-2,4.4-4.4V26C177,24.8,176,23.7,174.7,23.7L174.7,23.7z"/>
				</g>
			</g>
			<g>
				<path class="st1" d="M160.1,27.2c-0.6,0-1.1-0.5-1.1-1.1V11.9c0-1.7,0.5-3.3,1.5-4.7c0,0,0.1-0.2,0.1-0.2
					c0.1-0.2,0.3-0.4,0.4-0.5l0.4-0.4c0.1-0.1,0.2-0.1,0.2-0.2c0.1-0.1,0.3-0.3,0.5-0.4c0,0,0.1-0.1,0.1-0.1
					c0.1-0.1,0.1-0.1,0.3-0.2c0,0,0.1-0.1,0.2-0.2c0,0,0.1,0,0.1-0.1c0.1-0.1,0.2-0.1,0.3-0.2c0,0,0.1,0,0.1,0
					c0.1-0.1,0.2-0.1,0.3-0.1c0,0,0.1,0,0.1-0.1c0,0,0.2-0.1,0.2-0.1c0.1-0.1,0.3-0.1,0.4-0.1c0.1,0,0.1,0,0.2-0.1
					c0.1,0,0.1,0,0.2-0.1c0,0,0.1,0,0.2,0l0.3-0.1c0.1,0,0.2-0.1,0.4-0.1c0.1,0,0.2,0,0.3,0c0.1,0,0.1,0,0.2,0c0.1,0,0.1,0,0.2,0
					h0.1c0.3,0,0.5,0,0.7,0h0.6c0.2,0,0.4,0,0.7,0h0.1c0.2,0,0.5,0,0.8,0.1c0.1,0,0.1,0,0.2,0.1c0,0,0.5,0.1,0.6,0.1
					c0.2,0,0.4,0.1,0.6,0.2c0,0,0.2,0.1,0.2,0.1c0.1,0,0.1,0,0.2,0.1c0,0,0.1,0,0.1,0.1c0.1,0,0.1,0,0.2,0.1c0.1,0,0.3,0.1,0.3,0.2
					c0.1,0,0.1,0.1,0.2,0.1c0,0,0.1,0.1,0.1,0.1c0.1,0,0.2,0.1,0.3,0.2c0.2,0.1,0.4,0.2,0.5,0.4c0,0,0.1,0.1,0.1,0.1
					c0,0,0.1,0.1,0.2,0.1c0.1,0,0.1,0.1,0.2,0.2l0.4,0.4c0,0,0.1,0.1,0.1,0.1c0,0.1,0.1,0.1,0.1,0.1c0.1,0.1,0.1,0.1,0.2,0.2
					c0.1,0.1,0.1,0.2,0.2,0.3c1,1.4,1.5,3.1,1.4,4.7l0,14.1c0,0.6-0.5,1.1-1.1,1.1H160.1z"/>
				<path class="st1" d="M167.7,5c0.2,0,0.4,0,0.6,0c0,0,0.1,0,0.1,0c0.2,0,0.4,0,0.6,0.1c0,0,0.1,0,0.1,0c0.1,0,0.3,0.1,0.5,0.1
					c0,0,0.1,0,0.1,0c0.2,0,0.3,0.1,0.5,0.2c0.1,0,0.1,0,0.2,0.1c0.1,0.1,0.3,0.1,0.4,0.2c0,0,0.1,0,0.1,0.1
					c0.1,0.1,0.3,0.2,0.4,0.3c0.1,0,0.1,0.1,0.2,0.1s0.2,0.1,0.3,0.2c0.1,0.1,0.2,0.2,0.3,0.3c0.1,0.1,0.1,0.1,0.2,0.2
					c0.1,0.1,0.1,0.1,0.2,0.2c0.1,0.1,0.1,0.1,0.2,0.2c0.1,0.1,0.2,0.3,0.3,0.4c0,0,0.1,0.1,0.1,0.1c0.8,1.1,1.3,2.5,1.2,4v5.8V26
					h-14.5v-8.3v-5.8c0-1.5,0.5-2.9,1.3-4.1c0,0,0.1-0.1,0.1-0.1c0.1-0.1,0.2-0.3,0.3-0.4c0.1-0.1,0.1-0.1,0.2-0.2
					c0.1-0.1,0.1-0.1,0.2-0.2c0.1-0.1,0.1-0.1,0.2-0.2s0.2-0.2,0.3-0.3c0.1,0,0.2-0.1,0.3-0.2c0.1,0,0.1-0.1,0.2-0.1
					c0.1-0.1,0.3-0.2,0.4-0.3c0,0,0.1,0,0.1-0.1c0.1-0.1,0.3-0.1,0.4-0.2c0.1,0,0.1,0,0.2-0.1c0.2-0.1,0.3-0.1,0.5-0.2
					c0,0,0.1,0,0.1,0c0.1,0,0.3-0.1,0.5-0.1c0,0,0.1,0,0.1,0c0.2,0,0.4,0,0.6-0.1c0,0,0.1,0,0.1,0c0.2,0,0.4,0,0.6,0H167.7
					 M167.7,2.7h-0.6c-0.2,0-0.5,0-0.8,0c-0.1,0-0.3,0-0.4,0l-0.1,0c-0.1,0-0.2,0-0.4,0c-0.2,0-0.4,0.1-0.6,0.1c-0.1,0-0.1,0-0.2,0
					c-0.1,0-0.2,0-0.2,0.1c-0.1,0-0.2,0.1-0.3,0.1c0,0-0.1,0-0.1,0c-0.1,0-0.2,0.1-0.4,0.1c0,0,0,0,0,0c-0.1,0-0.2,0.1-0.3,0.1
					c0,0-0.1,0-0.1,0c-0.1,0-0.2,0.1-0.3,0.1c-0.1,0-0.2,0.1-0.3,0.2c-0.1,0-0.2,0.1-0.2,0.1l-0.1,0c-0.2,0.1-0.3,0.2-0.4,0.2
					c-0.1,0.1-0.2,0.1-0.2,0.2c0,0,0,0-0.1,0c-0.2,0.2-0.4,0.3-0.6,0.5c-0.1,0.1-0.2,0.2-0.3,0.3l-0.2,0.2l-0.2,0.2
					c-0.2,0.2-0.4,0.4-0.5,0.6c-0.1,0.1-0.1,0.1-0.1,0.2c0,0,0,0-0.1,0.1c-1.1,1.6-1.7,3.5-1.7,5.4v5.8V26c0,1.3,1,2.3,2.3,2.3h14.5
					c1.3,0,2.3-1,2.3-2.3v-8.3v-5.8c0.1-1.8-0.4-3.7-1.6-5.4c-0.1-0.2-0.2-0.3-0.3-0.4c-0.1-0.1-0.1-0.1-0.2-0.2c0,0,0-0.1-0.1-0.1
					c-0.1-0.1-0.1-0.2-0.2-0.2l-0.2-0.2l-0.2-0.2c-0.1-0.1-0.2-0.2-0.3-0.3c-0.1,0-0.1-0.1-0.2-0.1l0,0c-0.2-0.2-0.4-0.4-0.7-0.5
					c-0.1-0.1-0.2-0.2-0.4-0.2l0,0c-0.1,0-0.1-0.1-0.2-0.1c-0.1-0.1-0.3-0.2-0.4-0.2c-0.1,0-0.1-0.1-0.2-0.1c0,0-0.1,0-0.1,0
					c-0.1-0.1-0.2-0.1-0.3-0.1c0,0,0,0,0,0l-0.1,0c-0.2-0.1-0.4-0.2-0.8-0.3c-0.1,0-0.1,0-0.2-0.1c-0.1,0-0.1,0-0.2,0l-0.1,0
					c-0.1,0-0.2-0.1-0.3-0.1c-0.4-0.1-0.7-0.1-1-0.1C168.1,2.7,167.9,2.7,167.7,2.7L167.7,2.7z"/>
			</g>
		</g>
		<g>
			<path class="st1" d="M163,10.3c-0.5,0-0.9-0.2-1.2-0.5c-0.7-0.7-0.7-1.7,0-2.4l0.5-0.5c0.3-0.3,0.7-0.5,1.2-0.5
				c0.4,0,0.9,0.2,1.2,0.5c0.3,0.3,0.5,0.7,0.5,1.2s-0.2,0.9-0.5,1.2l-0.5,0.5C163.9,10.1,163.5,10.3,163,10.3z"/>
			<path class="st1" d="M163.6,7.5c0.1,0,0.3,0.1,0.4,0.2c0.2,0.2,0.2,0.5,0,0.7L163.4,9c-0.1,0.1-0.2,0.1-0.4,0.1s-0.3,0-0.4-0.1
				c-0.2-0.2-0.2-0.5,0-0.7l0.5-0.5C163.3,7.6,163.4,7.5,163.6,7.5 M163.6,5.2c-0.7,0-1.5,0.3-2,0.8L161,6.6c-0.5,0.5-0.8,1.3-0.8,2
				s0.3,1.5,0.8,2c0.5,0.5,1.2,0.8,2,0.8s1.5-0.3,2-0.8l0.5-0.5c0.5-0.5,0.8-1.3,0.8-2c0-0.7-0.3-1.5-0.8-2
				C165,5.5,164.3,5.2,163.6,5.2L163.6,5.2z"/>
		</g>
		<g>
			<path class="st1" d="M167.3,8.6c-0.4,0-0.8-0.1-1-0.4l-0.6-0.4c-0.7-0.6-0.9-1.6-0.4-2.3c0.4-0.5,0.9-0.7,1.4-0.7
				c0.3,0,0.7,0.1,1,0.3l0.6,0.5c0.7,0.6,0.9,1.6,0.4,2.3C168.3,8.4,167.8,8.6,167.3,8.6z"/>
			<path class="st1" d="M166.7,5.9c0.1,0,0.2,0,0.3,0.1l0.6,0.4c0.2,0.2,0.3,0.5,0.1,0.7c-0.1,0.1-0.3,0.2-0.4,0.2
				c-0.1,0-0.2,0-0.3-0.1l-0.6-0.4c-0.2-0.2-0.3-0.5-0.1-0.7C166.4,6,166.5,5.9,166.7,5.9 M166.7,3.6C166.7,3.6,166.7,3.6,166.7,3.6
				c-0.8,0-1.6,0.4-2.2,1c0,0-0.1,0.1-0.1,0.1c-0.9,1.2-0.7,2.9,0.5,3.8c0,0,0.1,0,0.1,0.1l0.5,0.4c0.5,0.4,1.1,0.6,1.7,0.6
				c0.9,0,1.7-0.4,2.3-1.1c0,0,0,0,0,0c0.9-1.2,0.7-2.9-0.5-3.8c0,0-0.1,0-0.1-0.1l-0.6-0.4c0,0,0,0,0,0
				C167.8,3.8,167.3,3.6,166.7,3.6L166.7,3.6z"/>
		</g>
		<g>
			<path class="st1" d="M167.4,12.6c-0.1,0-0.4,0-0.7-0.2l-0.6-0.3c-0.4-0.2-0.8-0.5-0.9-0.9c-0.2-0.4-0.2-0.8,0-1.2
				c0.3-0.6,0.9-1,1.5-1c0.2,0,0.4,0,0.6,0.1l0.7,0.3c0.4,0.2,0.8,0.5,0.9,0.9c0.2,0.4,0.2,0.8,0,1.2
				C168.7,12.2,168.1,12.6,167.4,12.6z"/>
			<path class="st1" d="M166.7,10.1c0.1,0,0.1,0,0.2,0l0.7,0.3c0.3,0.1,0.4,0.4,0.3,0.7c-0.1,0.2-0.3,0.3-0.5,0.3
				c-0.1,0-0.1,0-0.2,0l-0.7-0.3c-0.3-0.1-0.4-0.4-0.3-0.7C166.3,10.3,166.5,10.1,166.7,10.1 M166.7,7.8
				C166.7,7.8,166.7,7.8,166.7,7.8c-1.1,0-2.2,0.7-2.6,1.7c-0.3,0.7-0.3,1.5,0,2.3c0.3,0.6,0.8,1.1,1.5,1.4l0.6,0.2
				c0.4,0.2,0.8,0.3,1.2,0.3c1.1,0,2.2-0.7,2.6-1.8c0.6-1.4-0.1-3.1-1.5-3.7L167.8,8C167.5,7.9,167.1,7.8,166.7,7.8L166.7,7.8z"/>
		</g>
		<g>
			<path class="st1" d="M169.8,15.6c-0.1,0-0.2,0-0.3,0c-0.8-0.2-1.4-1-1.3-1.9l0.2-0.8c0.2-0.8,0.9-1.3,1.7-1.3c0,0,0.2,0,0.2,0
				c0,0,0.1,0,0.1,0c0.8,0.2,1.4,1,1.3,1.9l-0.2,0.8c-0.2,0.8-0.9,1.3-1.6,1.3H169.8z"/>
			<path class="st1" d="M170.1,12.6C170.1,12.6,170.2,12.6,170.1,12.6c0.4,0.1,0.5,0.3,0.5,0.6l-0.1,0.7c-0.1,0.3-0.3,0.4-0.5,0.4
				c0,0-0.1,0-0.1,0c-0.3-0.1-0.4-0.3-0.4-0.6l0.1-0.7C169.6,12.8,169.8,12.6,170.1,12.6 M170.1,10.3
				C170.1,10.3,170.1,10.3,170.1,10.3c-1.3,0-2.5,0.9-2.8,2.2c0,0,0,0.1,0,0.1l-0.1,0.7c0,0.1,0,0.1,0,0.2c-0.2,1.5,0.7,2.8,2.1,3.1
				c0.2,0,0.4,0.1,0.6,0.1h0.1c1.3,0,2.4-0.9,2.7-2.1c0-0.1,0-0.1,0-0.2l0.1-0.7c0-0.1,0-0.1,0-0.2c0.2-1.5-0.7-2.8-2.1-3.1
				c-0.1,0-0.2,0-0.3-0.1C170.4,10.3,170.2,10.3,170.1,10.3L170.1,10.3z"/>
		</g>
		<g>
			<path class="st1" d="M162,22.5c-0.9,0-1.7-0.7-1.7-1.7c0-0.9,0.6-1.6,1.5-1.7c0,0,0.1,0,0.1,0h0.7c0.9,0,1.6,0.6,1.7,1.5
				c0,0,0,0.1,0,0.1c0,0.9-0.6,1.6-1.5,1.7c0,0-0.1,0-0.1,0H162z"/>
			<path class="st1" d="M162.7,20.2c0.3,0,0.5,0.2,0.6,0.5c0,0.3-0.2,0.5-0.5,0.6H162c-0.3,0-0.5-0.2-0.5-0.5c0-0.3,0.2-0.5,0.5-0.6
				H162.7 M162.7,17.9H162c-0.1,0-0.2,0-0.3,0c-1.4,0.2-2.5,1.4-2.5,2.8c0,1.6,1.3,2.8,2.8,2.8h0.8c0.1,0,0.2,0,0.3,0
				c1.4-0.2,2.5-1.4,2.5-2.8c0-0.1,0-0.2,0-0.3C165.4,19,164.2,17.9,162.7,17.9L162.7,17.9z"/>
		</g>
		<g>
			<path class="st1" d="M167.1,21.4c-0.1,0-0.2,0-0.3,0c-0.8-0.2-1.4-1-1.3-1.9l0.2-0.8c0.2-0.8,0.9-1.3,1.7-1.3c0,0,0.2,0,0.2,0
				c0,0,0.1,0,0.1,0c0.8,0.2,1.4,1,1.3,1.9l-0.2,0.8c-0.1,0.7-0.8,1.3-1.6,1.3H167.1z"/>
			<path class="st1" d="M167.4,18.4C167.5,18.4,167.5,18.4,167.4,18.4c0.4,0.1,0.5,0.3,0.5,0.6l-0.1,0.7c0,0.3-0.3,0.4-0.5,0.4
				c0,0-0.1,0-0.1,0c-0.3-0.1-0.4-0.3-0.4-0.6l0.1-0.7C166.9,18.6,167.2,18.4,167.4,18.4 M167.4,16.1c-1.3,0-2.5,0.9-2.8,2.2
				c0,0,0,0.1,0,0.1l-0.1,0.7c0,0.1,0,0.1,0,0.2c-0.2,1.5,0.7,2.8,2.1,3.1c0.2,0,0.4,0.1,0.6,0.1h0.1c1.4,0,2.6-1,2.8-2.3l0.1-0.7
				c0-0.1,0-0.1,0-0.2c0.2-1.5-0.7-2.8-2.1-3.1c-0.1,0-0.2,0-0.3-0.1C167.7,16.1,167.5,16.1,167.4,16.1L167.4,16.1z"/>
		</g>
		<g>
			<path class="st1" d="M162.9,19.7c-0.4,0-0.9-0.2-1.2-0.5l-0.5-0.5c-0.7-0.5-0.7-1.6-0.1-2.3c0.3-0.4,0.8-0.6,1.3-0.6
				c0.4,0,0.8,0.1,1.1,0.4l0.6,0.6c0.3,0.2,0.5,0.6,0.5,1.1c0,0.4-0.1,0.8-0.3,1.2C163.9,19.4,163.4,19.7,162.9,19.7z"/>
			<path class="st1" d="M162.3,16.9c0.1,0,0.3,0,0.4,0.1l0.6,0.5c0.2,0.2,0.2,0.5,0,0.7c-0.1,0.1-0.2,0.2-0.4,0.2
				c-0.1,0-0.3,0-0.4-0.1l-0.6-0.5c-0.2-0.2-0.2-0.5,0-0.7C162,17,162.1,16.9,162.3,16.9 M162.3,14.6c-0.8,0-1.6,0.4-2.1,1
				c-1,1.2-0.9,2.9,0.3,3.9l0.5,0.5c0.5,0.5,1.2,0.8,2,0.8c1,0,1.8-0.4,2.3-1.2c0.8-1.2,0.7-2.8-0.4-3.7l-0.5-0.5
				c0,0-0.1-0.1-0.1-0.1C163.6,14.9,162.9,14.6,162.3,14.6L162.3,14.6z"/>
		</g>
		<g>
			<path class="st1" d="M166.5,17.6c-0.2,0-0.4,0-0.6-0.1l-0.7-0.2c-0.9-0.4-1.3-1.4-1-2.2c0.3-0.6,0.9-1,1.5-1c0.2,0,0.4,0,0.6,0.1
				l0.7,0.2c0.9,0.4,1.3,1.4,1,2.2C167.8,17.2,167.2,17.6,166.5,17.6z"/>
			<path class="st1" d="M165.8,15.2c0.1,0,0.1,0,0.2,0l0.7,0.3c0.3,0.1,0.4,0.4,0.3,0.7c-0.1,0.2-0.3,0.3-0.5,0.3
				c-0.1,0-0.1,0-0.2,0l-0.7-0.3c-0.3-0.1-0.4-0.4-0.3-0.7C165.4,15.3,165.6,15.2,165.8,15.2 M165.8,12.9c-1.1,0-2.2,0.7-2.6,1.7
				c-0.3,0.7-0.3,1.5,0,2.3c0.3,0.6,0.8,1.1,1.5,1.4c0,0,0.1,0,0.1,0l0.6,0.2c0.4,0.2,0.8,0.2,1.1,0.2c1.2,0,2.2-0.7,2.6-1.8
				c0.5-1.4-0.1-3-1.5-3.6c0,0-0.1,0-0.1,0l-0.7-0.2C166.5,13,166.1,12.9,165.8,12.9L165.8,12.9z"/>
		</g>
		<g>
			<path class="st1" d="M162.9,15.2c0,0-0.1,0-0.1,0c-0.5-0.1-0.9-0.3-1.1-0.7c-0.3-0.4-0.4-0.9-0.2-1.4l0.1-0.7
				c0.1-0.7,0.8-1.4,1.6-1.4c0.1,0,0.2,0,0.3,0c0.4,0.1,0.8,0.3,1.1,0.7c0.3,0.4,0.4,0.9,0.2,1.4l-0.1,0.7c-0.1,0.7-0.8,1.3-1.6,1.3
				H162.9z"/>
			<path class="st1" d="M163.2,12.3c0,0,0.1,0,0.1,0c0.3,0,0.5,0.3,0.4,0.6l-0.1,0.7c0,0.3-0.3,0.4-0.5,0.4c0,0-0.1,0-0.1,0
				c-0.3,0-0.5-0.3-0.4-0.6l0.1-0.7C162.7,12.4,162.9,12.3,163.2,12.3 M163.2,10c-1.4,0-2.5,1-2.8,2.3l-0.1,0.7
				c-0.2,0.8,0,1.6,0.4,2.2c0.4,0.7,1.2,1.1,1.9,1.2c0.1,0,0.2,0,0.3,0h0.1c1.4,0,2.6-1,2.8-2.3l0.1-0.7c0.2-0.8,0-1.6-0.4-2.2
				c-0.4-0.6-1.1-1-1.8-1.2C163.5,10,163.4,10,163.2,10L163.2,10z"/>
		</g>
		<g>
			<path class="st1" d="M171.5,20.9c-0.1,0-0.4,0-0.7-0.1l-0.6-0.2c-0.9-0.4-1.3-1.4-1-2.2c0.3-0.6,0.9-1,1.5-1c0.2,0,0.4,0,0.6,0.1
				l0.7,0.2c0.9,0.4,1.3,1.4,1,2.2C172.8,20.4,172.2,20.9,171.5,20.9z"/>
			<path class="st1" d="M170.8,18.4c0.1,0,0.1,0,0.2,0l0.7,0.3c0.3,0.1,0.4,0.4,0.3,0.7c-0.1,0.2-0.3,0.3-0.5,0.3
				c-0.1,0-0.1,0-0.2,0l-0.7-0.3c-0.3-0.1-0.4-0.4-0.3-0.7C170.4,18.5,170.6,18.4,170.8,18.4 M170.8,16.1
				C170.8,16.1,170.8,16.1,170.8,16.1c-1.1,0-2.2,0.7-2.6,1.7c-0.3,0.7-0.3,1.5,0,2.3c0.3,0.6,0.8,1.1,1.5,1.4c0,0,0.1,0,0.1,0
				l0.5,0.2c0.3,0.2,0.7,0.2,1.1,0.2c1.1,0,2.2-0.7,2.6-1.8c0.3-0.7,0.3-1.5,0-2.2c-0.3-0.6-0.8-1.1-1.5-1.4c0,0-0.1,0-0.1,0
				l-0.7-0.2C171.5,16.2,171.1,16.1,170.8,16.1L170.8,16.1z"/>
		</g>
		<g>
			<path class="st1" d="M172.5,23.4c-0.9,0-1.7-0.7-1.7-1.7c0-0.9,0.6-1.6,1.5-1.7c0,0,0.8,0,0.8,0c0.9,0,1.6,0.6,1.8,1.5
				c0,0,0,0.1,0,0.1c0,0.9-0.6,1.6-1.5,1.7C173.4,23.3,172.5,23.4,172.5,23.4L172.5,23.4z"/>
			<path class="st1" d="M173.2,21.1c0.3,0,0.5,0.2,0.6,0.5c0,0.3-0.2,0.5-0.5,0.6l-0.8,0c0,0,0,0,0,0h0c-0.3,0-0.5-0.2-0.5-0.5
				c0-0.3,0.2-0.5,0.5-0.6L173.2,21.1 M173.2,18.8c0,0-0.1,0-0.1,0l-0.7,0c-0.1,0-0.1,0-0.2,0c-1.4,0.2-2.5,1.4-2.5,2.8
				c0,1.6,1.3,2.8,2.8,2.8c0,0,0.1,0,0.1,0l0.8,0c0.1,0,0.1,0,0.2,0c1.4-0.2,2.5-1.4,2.5-2.8c0-0.1,0-0.2,0-0.3
				C175.9,19.9,174.6,18.8,173.2,18.8L173.2,18.8z"/>
		</g>
		<g>
			<path class="st1" d="M168.2,25c-0.3,0-0.5-0.1-0.6-0.1c0,0-0.2-0.1-0.2-0.1l-0.7-0.3c-0.5-0.3-0.8-0.6-0.9-1.1
				c-0.1-0.4-0.1-0.9,0.2-1.2c0.3-0.5,0.9-0.9,1.5-0.9c0.3,0,0.6,0.1,0.8,0.2l0.6,0.3c0.5,0.3,0.7,0.6,0.9,1.1
				c0.1,0.4,0.1,0.8-0.1,1.2C169.4,24.7,168.8,25,168.2,25z"/>
			<path class="st1" d="M167.5,22.5c0.1,0,0.2,0,0.2,0.1l0.7,0.3c0.3,0.1,0.4,0.4,0.2,0.7c-0.1,0.2-0.2,0.3-0.4,0.3
				c-0.1,0-0.1,0-0.3-0.1l-0.7-0.3c-0.3-0.1-0.4-0.4-0.2-0.7C167.1,22.6,167.3,22.5,167.5,22.5 M167.5,20.2
				C167.5,20.2,167.5,20.2,167.5,20.2c-1,0-1.9,0.6-2.5,1.4c-0.8,1.4-0.3,3.1,1.1,3.8c0,0,0.1,0,0.1,0.1l0.7,0.3
				c0.1,0,0.2,0.1,0.3,0.1c0.2,0.1,0.5,0.2,1,0.2c1.1,0,2.1-0.6,2.5-1.6c0.7-1.3,0.2-2.9-1.2-3.7c0,0-0.1,0-0.1-0.1l-0.6-0.3
				C168.4,20.3,167.9,20.2,167.5,20.2L167.5,20.2z"/>
		</g>
		<g>
			<path class="st1" d="M172.9,26.7c-0.4,0-0.9-0.2-1.2-0.5l-0.5-0.5c-0.3-0.3-0.5-0.7-0.5-1.2c0-0.4,0.1-0.8,0.4-1.2
				c0.3-0.4,0.8-0.6,1.3-0.6c0.4,0,0.8,0.1,1.1,0.4l0.6,0.6c0.3,0.3,0.5,0.7,0.5,1.2c0,0.4-0.1,0.8-0.4,1.2
				C173.8,26.5,173.4,26.7,172.9,26.7z"/>
			<path class="st1" d="M172.3,23.9c0.1,0,0.3,0,0.4,0.1l0.6,0.5c0.2,0.2,0.2,0.5,0,0.7c-0.1,0.1-0.2,0.2-0.4,0.2
				c-0.1,0-0.3,0-0.4-0.1l-0.6-0.5c-0.2-0.2-0.2-0.5,0-0.7C172,24,172.2,23.9,172.3,23.9 M172.3,21.6c-0.8,0-1.6,0.4-2.1,1
				c-1,1.2-0.9,2.9,0.3,3.9L171,27c0.5,0.5,1.2,0.8,2,0.8c0.5,0,1.3-0.1,2-0.9c0,0,0.1-0.1,0.1-0.2c1-1.2,0.9-2.9-0.3-3.9l-0.5-0.5
				c0,0-0.1-0.1-0.1-0.1C173.6,21.9,173,21.6,172.3,21.6L172.3,21.6z"/>
		</g>
		<g>
			<path class="st1" d="M163.2,26.1c-0.6,0-1-0.2-1.4-0.7l-0.5-0.7c-0.5-0.8-0.3-1.8,0.4-2.3c0.3-0.2,0.6-0.3,1-0.3
				c0.5,0,1.1,0.3,1.4,0.7l0.4,0.7c0.5,0.8,0.3,1.8-0.4,2.3c-0.1,0.1-0.2,0.1-0.3,0.2C163.7,26,163.4,26.1,163.2,26.1z"/>
			<path class="st1" d="M162.8,23.2c0.2,0,0.3,0.1,0.5,0.2l0.4,0.6c0.1,0.2,0.1,0.6-0.1,0.7c-0.1,0-0.2,0.1-0.3,0.1
				c-0.2,0-0.3-0.1-0.4-0.2l-0.4-0.6c-0.1-0.2-0.1-0.6,0.1-0.7C162.6,23.3,162.7,23.2,162.8,23.2 M162.8,20.9
				c-0.6,0-1.1,0.2-1.6,0.5c0,0,0,0-0.1,0c-1.3,0.9-1.6,2.6-0.7,3.9l0.4,0.6c0,0,0.1,0.1,0.1,0.1c0.5,0.7,1.4,1.1,2.3,1.1
				c0.4,0,0.8-0.1,1-0.2c0.2-0.1,0.4-0.2,0.6-0.3c1.3-0.9,1.6-2.6,0.7-3.9l-0.4-0.6c0,0,0-0.1-0.1-0.1
				C164.6,21.4,163.7,20.9,162.8,20.9L162.8,20.9z"/>
		</g>
	</g>
	<g>
		<g>
			<g>
				<path class="st2" d="M167.6,34.5h-0.5c-0.6,0-1-0.5-1-1v-4.2h2.6v4.2C168.6,34,168.1,34.5,167.6,34.5z"/>
				<path class="st2" d="M167.6,35h-0.5c-0.9,0-1.6-0.7-1.6-1.6v-4.8h3.7v4.8C169.2,34.3,168.4,35,167.6,35z M166.5,29.7v3.7
					c0,0.3,0.2,0.5,0.5,0.5h0.5c0.3,0,0.5-0.2,0.5-0.5v-3.7H166.5z"/>
			</g>
			<g>
				<path class="st4" d="M160.2,26v1.1c0,1.2,0.9,2.1,2.1,2.1h10.3c1.2,0,2.1-0.9,2.1-2.1V26H160.2z"/>
			</g>
			<path class="st7" d="M173.3,7.8c0-0.1-0.1-0.1-0.1-0.1c-0.1-0.1-0.2-0.3-0.3-0.4c-0.1-0.1-0.1-0.1-0.2-0.2
				c-0.1-0.1-0.1-0.1-0.2-0.2c-0.1-0.1-0.1-0.1-0.2-0.2c-0.1-0.1-0.2-0.2-0.3-0.3c-0.1-0.1-0.2-0.1-0.3-0.2s-0.1-0.1-0.2-0.1
				c-0.1-0.1-0.3-0.2-0.4-0.3c0,0-0.1-0.1-0.1-0.1c-0.1-0.1-0.3-0.1-0.4-0.2c-0.1,0-0.1,0-0.2-0.1c-0.2-0.1-0.3-0.1-0.5-0.2
				c0,0-0.1,0-0.1,0c-0.1,0-0.3-0.1-0.5-0.1c0,0-0.1,0-0.1,0c-0.2,0-0.4-0.1-0.6-0.1c0,0-0.1,0-0.1,0c-0.2,0-0.4,0-0.6,0h-0.6
				c-0.2,0-0.4,0-0.6,0c0,0-0.1,0-0.1,0c-0.2,0-0.4,0-0.6,0.1c0,0-0.1,0-0.1,0c-0.1,0-0.3,0.1-0.5,0.1c0,0-0.1,0-0.1,0
				c-0.2,0.1-0.3,0.1-0.5,0.2c-0.1,0-0.1,0-0.2,0.1c-0.1,0.1-0.3,0.1-0.4,0.2c0,0-0.1,0-0.1,0.1c-0.1,0.1-0.3,0.2-0.4,0.3
				c-0.1,0-0.1,0.1-0.2,0.1c-0.1,0.1-0.2,0.1-0.3,0.2c-0.1,0.1-0.2,0.2-0.3,0.3c-0.1,0.1-0.1,0.1-0.2,0.2S162.1,7,162,7.1
				c-0.1,0.1-0.1,0.1-0.2,0.2c-0.1,0.1-0.2,0.3-0.3,0.4c0,0-0.1,0.1-0.1,0.1c-0.8,1.2-1.3,2.5-1.3,4.1v5.8V26h14.5v-8.3v-5.8
				C174.7,10.4,174.1,8.9,173.3,7.8z"/>
		</g>
		<path class="st5" d="M163,9.1c-0.1,0-0.3,0-0.4-0.1c-0.2-0.2-0.2-0.5,0-0.7l0.5-0.5c0.2-0.2,0.5-0.2,0.7,0s0.2,0.5,0,0.7L163.4,9
			C163.3,9.1,163.2,9.1,163,9.1z"/>
		<path class="st6" d="M167.3,7.4c-0.1,0-0.2,0-0.3-0.1l-0.6-0.4c-0.2-0.2-0.3-0.5-0.1-0.7c0.2-0.2,0.5-0.3,0.7-0.1l0.6,0.4
			c0.2,0.2,0.3,0.5,0.1,0.7C167.6,7.4,167.4,7.4,167.3,7.4z"/>
		<path class="st5" d="M167.4,11.5c-0.1,0-0.1,0-0.2,0l-0.7-0.3c-0.3-0.1-0.4-0.4-0.3-0.7s0.4-0.4,0.7-0.3l0.7,0.3
			c0.3,0.1,0.4,0.4,0.3,0.7C167.8,11.3,167.6,11.5,167.4,11.5z"/>
		<path class="st6" d="M169.9,14.4c0,0-0.1,0-0.1,0c-0.3-0.1-0.4-0.3-0.4-0.6l0.1-0.7c0.1-0.3,0.3-0.4,0.6-0.4
			c0.3,0.1,0.4,0.3,0.4,0.6l-0.1,0.7C170.4,14.3,170.2,14.4,169.9,14.4z"/>
		<path class="st5" d="M162,21.3c-0.3,0-0.5-0.2-0.5-0.5c0-0.3,0.2-0.5,0.5-0.6h0.7c0.3,0,0.5,0.2,0.6,0.5c0,0.3-0.2,0.5-0.5,0.6
			H162L162,21.3z"/>
		<path class="st6" d="M167.3,20.2c0,0-0.1,0-0.1,0c-0.3-0.1-0.4-0.3-0.4-0.6l0.1-0.7c0.1-0.3,0.3-0.4,0.6-0.4
			c0.3,0.1,0.4,0.3,0.4,0.6l-0.1,0.7C167.7,20.1,167.5,20.2,167.3,20.2z"/>
		<path class="st6" d="M162.9,18.5c-0.1,0-0.3,0-0.4-0.1l-0.6-0.5c-0.2-0.2-0.2-0.5,0-0.7c0.2-0.2,0.5-0.2,0.7,0l0.6,0.5
			c0.2,0.2,0.2,0.5,0,0.7C163.2,18.5,163,18.5,162.9,18.5z"/>
		<path class="st5" d="M166.5,16.5c-0.1,0-0.1,0-0.2,0l-0.7-0.3c-0.3-0.1-0.4-0.4-0.3-0.7c0.1-0.3,0.4-0.4,0.7-0.3l0.7,0.3
			c0.3,0.1,0.4,0.4,0.3,0.7C166.9,16.4,166.7,16.5,166.5,16.5z"/>
		<path class="st6" d="M163,14.1c0,0-0.1,0-0.1,0c-0.3,0-0.5-0.3-0.4-0.6l0.1-0.7c0-0.3,0.3-0.5,0.6-0.4c0.3,0,0.5,0.3,0.4,0.6
			l-0.1,0.7C163.5,13.9,163.3,14.1,163,14.1z"/>
		<path class="st5" d="M171.5,19.7c-0.1,0-0.1,0-0.2,0l-0.7-0.3c-0.3-0.1-0.4-0.4-0.3-0.7s0.4-0.4,0.7-0.3l0.7,0.3
			c0.3,0.1,0.4,0.4,0.3,0.7C171.9,19.6,171.7,19.7,171.5,19.7z"/>
		<path class="st5" d="M172.5,22.2c-0.3,0-0.5-0.2-0.5-0.5c0-0.3,0.2-0.5,0.5-0.6l0.7,0c0.3,0,0.5,0.2,0.6,0.5
			c0,0.3-0.2,0.5-0.5,0.6L172.5,22.2C172.5,22.2,172.5,22.2,172.5,22.2z"/>
		<path class="st6" d="M168.2,23.9c-0.1,0-0.1,0-0.3-0.1l-0.7-0.3c-0.3-0.1-0.4-0.4-0.2-0.7c0.1-0.3,0.4-0.4,0.7-0.2l0.7,0.3
			c0.3,0.1,0.4,0.4,0.2,0.7C168.6,23.8,168.4,23.9,168.2,23.9z"/>
		<path class="st6" d="M172.9,25.5c-0.1,0-0.3,0-0.4-0.1l-0.6-0.5c-0.2-0.2-0.2-0.5,0-0.7c0.2-0.2,0.5-0.2,0.7,0l0.6,0.5
			c0.2,0.2,0.2,0.5,0,0.7C173.2,25.4,173.1,25.5,172.9,25.5z"/>
		<path class="st6" d="M163.2,24.9c-0.2,0-0.3-0.1-0.4-0.2l-0.4-0.6c-0.1-0.2-0.1-0.6,0.1-0.7c0.2-0.1,0.6-0.1,0.7,0.1l0.4,0.6
			c0.1,0.2,0.1,0.6-0.1,0.7C163.4,24.9,163.3,24.9,163.2,24.9z"/>
	</g>
</g>
</svg>
