<?xml version="1.0" encoding="utf-8"?>
<!-- Generator: Adobe Illustrator 22.1.0, SVG Export Plug-In . SVG Version: 6.00 Build 0)  -->
<svg version="1.1" id="Layer_1" xmlns="http://www.w3.org/2000/svg" xmlns:xlink="http://www.w3.org/1999/xlink" x="0px" y="0px"
	 viewBox="0 0 400 400" style="enable-background:new 0 0 400 400;" xml:space="preserve">
<style type="text/css">
	.st0{fill:#FFFFFF;}
	.st1{fill:#00D7DF;}
	.st2{fill:#FFD6A0;}
	.st3{fill:#FFB9A7;}
	.st4{fill:#50412E;}
	.st5{fill:#FF9811;}
	.st6{fill:#490A3D;}
	.st7{fill:#231F20;}
	.st8{fill:#8C5500;}
</style>
<g>
	<path class="st0" d="M355,7.4H43.5c-13,0-23.7,10.7-23.7,23.7v47.9c0,13,10.7,23.7,23.7,23.7H355c13,0,23.7-10.7,23.7-23.7V31.1
		C378.7,18.1,368,7.4,355,7.4z"/>
	<g id="XMLID_1643_">
		<path id="XMLID_1644_" class="st1" d="M80.9,77.2h-5.4h-5.4c-9.8,0-17.7,7.9-17.7,17.7v7.9h23h23v-7.9
			C98.6,85.1,90.7,77.2,80.9,77.2z"/>
		<path id="XMLID_1646_" class="st2" d="M83.2,77.2c0,4.2-3.4,7.7-7.7,7.7l0,0c-4.2,0-7.7-3.4-7.7-7.7v-7.7c0-4.2,3.4-7.7,7.7-7.7
			l0,0c4.2,0,7.7,3.4,7.7,7.7V77.2z"/>
		<ellipse id="XMLID_1649_" class="st2" cx="75.6" cy="50.3" rx="25.6" ry="26.9"/>
		<path id="XMLID_1650_" d="M75.6,15.8c-12.8,0-33.3,10.2-28.1,38.4L50,49c5.1-2.6,5.9-12.8,5.9-12.8s9.8,0,19.7,0s19.7,0,19.7,0
			S96,46.5,101.1,49l2.6,5.1C108.8,26,88.3,15.8,75.6,15.8z"/>
		<path id="XMLID_1651_" d="M75.6,15.8c-12.8,0-33.3,10.2-28.1,38.4L50,49c5.1-2.6,5.9-12.8,5.9-12.8s9.8,0,19.7,0
			C75.6,23.2,75.6,20.9,75.6,15.8z"/>
		<ellipse id="XMLID_1653_" class="st3" cx="66.6" cy="56.7" rx="3.8" ry="2.6"/>
		<circle id="XMLID_1654_" class="st4" cx="66.6" cy="51" r="1.9"/>
		<ellipse id="XMLID_1655_" class="st3" cx="84.5" cy="56.7" rx="3.8" ry="2.6"/>
		<circle id="XMLID_1656_" class="st4" cx="84.5" cy="51" r="1.9"/>
		<path id="XMLID_62_" d="M96.1,28.7L75.6,18.3L73,31.1l2.6,5.9c1.6,2.6,4.4,4.3,7.7,4.3v-2.7c1.6,1.7,3.9,2.7,6.4,2.7v-2.7
			c1.6,1.7,3.9,2.7,6.4,2.7h2.6L96.1,28.7z"/>
		<path id="XMLID_1658_" d="M55,28.7l-2.4,12.7h2.6c2.9,0,5.4-1.3,7-3.4c1.6,2.1,4.2,3.4,7,3.4v-2.7c1.6,1.7,3.9,2.7,6.4,2.7v-6.9
			V18.3L55,28.7z"/>
		<circle id="XMLID_1659_" class="st2" cx="50" cy="54.2" r="5.1"/>
		<circle id="XMLID_1660_" class="st2" cx="101.1" cy="54.2" r="5.1"/>
	</g>
</g>
<g>
	<path class="st0" d="M355,152.1H43.5c-13,0-23.7,10.7-23.7,23.7v47.9c0,13,10.7,23.7,23.7,23.7H355c13,0,23.7-10.7,23.7-23.7v-47.9
		C378.7,162.8,368,152.1,355,152.1z"/>
	<g id="XMLID_1686_">
		<path id="XMLID_1687_" class="st5" d="M78.4,221.9H73h-5.4c-9.8,0-17.7,7.9-17.7,17.7v7.9h23h23v-7.9
			C96,229.8,88.1,221.9,78.4,221.9z"/>
		<path id="XMLID_1689_" class="st2" d="M80.7,221.9c0,4.2-7.7,12.8-7.7,12.8s-7.7-8.6-7.7-12.8v-7.7c0-4.2,3.4-7.7,7.7-7.7l0,0
			c4.2,0,7.7,3.4,7.7,7.7V221.9z"/>
		<path id="XMLID_1690_" class="st4" d="M100.5,180.5c0.4-1,0.7-2.2,0.7-3.4c0-4.8-3.8-8.7-8.5-8.9c-0.6-4.3-4.4-7.7-8.9-7.7
			c-1.3,0-2.6,0.3-3.7,0.8c-1.6-2.1-4.2-3.4-7-3.4c-2.8,0-5.4,1.3-7,3.4c-1.1-0.5-2.4-0.8-3.7-0.8c-4.5,0-8.2,3.3-8.9,7.7
			c-4.8,0.2-8.5,4.1-8.5,8.9c0,1.2,0.2,2.3,0.7,3.4c-2,1.6-3.2,4.1-3.2,6.9c0,4.9,4,9,9,9s9-4,9-9c0-1.2-0.2-2.3-0.7-3.4
			c1.7-1.4,2.8-3.4,3.1-5.6c2.7-0.1,5-1.4,6.6-3.4c1.1,0.5,2.4,0.8,3.7,0.8s2.6-0.3,3.7-0.8c1.6,2,3.9,3.2,6.6,3.4
			c0.3,2.2,1.5,4.2,3.1,5.6c-0.4,1-0.7,2.2-0.7,3.4c0,4.9,4,9,9,9s9-4,9-9C103.7,184.6,102.5,182.1,100.5,180.5z"/>
		<path id="XMLID_1691_" class="st4" d="M73,157.9c-2.8,0-5.4,1.3-7,3.4c-1.1-0.5-2.4-0.8-3.7-0.8c-4.5,0-8.2,3.3-8.9,7.7
			c-4.8,0.2-8.5,4.1-8.5,8.9c0,1.2,0.2,2.3,0.7,3.4c-2,1.6-3.2,4.1-3.2,6.9c0,4.9,4,9,9,9s9-4,9-9c0-1.2-0.2-2.3-0.7-3.4
			c1.7-1.4,2.8-3.4,3.1-5.6c2.7-0.1,5-1.4,6.6-3.4c1.1,0.5,2.4,0.8,3.7,0.8V157.9z"/>
		<ellipse id="XMLID_1692_" class="st2" cx="73" cy="195" rx="25.6" ry="26.9"/>
		<g id="XMLID_1696_">
			<circle id="XMLID_1697_" class="st4" cx="64" cy="195.6" r="1.9"/>
		</g>
		<g id="XMLID_1700_">
			<circle id="XMLID_1701_" class="st4" cx="81.9" cy="195.6" r="1.9"/>
		</g>
		<path id="XMLID_1703_" class="st4" d="M97.3,178.4l1.3,7.7l-1.3,5.1c-3.1,0-5.8-2.3-6.3-5.3c-0.4,0.1-0.9,0.2-1.4,0.2
			c-3.5,0-6.4-2.9-6.4-6.4c-1.1,0.8-2.4,1.3-3.8,1.3c-3.5,0-6.4-2.9-6.4-6.4c0-1.5-2.6-9-2.6-9l14.7,2.9L97.3,178.4z"/>
		<path id="XMLID_1704_" class="st4" d="M48.7,178.4l-1.3,7.7l1.3,5.1c3.1,0,5.8-2.3,6.3-5.3c0.4,0.1,0.9,0.2,1.4,0.2
			c3.5,0,6.4-2.9,6.4-6.4c1.1,0.8,2.4,1.3,3.8,1.3c3.5,0,6.4-2.9,6.4-6.4c0-1.5,0-14.1,0-14.1L48.7,178.4z"/>
		<circle id="XMLID_1705_" class="st2" cx="47.4" cy="198.8" r="5.1"/>
		<circle id="XMLID_1706_" class="st2" cx="98.6" cy="198.8" r="5.1"/>
		<path id="XMLID_58_" class="st4" d="M47.4,198.8c2.8,0,5.1-2.3,5.1-5.1c0-2.8-2.3-5.1-5.1-5.1V198.8z"/>
		<path id="XMLID_57_" class="st4" d="M98.6,198.8c-2.8,0-5.1-2.3-5.1-5.1c0-2.8,2.3-5.1,5.1-5.1V198.8z"/>
	</g>
</g>
<g>
	<path class="st0" d="M355,296.8H43.5c-13,0-23.7,10.7-23.7,23.7v47.9c0,13,10.7,23.7,23.7,23.7H355c13,0,23.7-10.7,23.7-23.7v-47.9
		C378.7,307.5,368,296.8,355,296.8z"/>
	<g id="XMLID_1594_">
		<path id="XMLID_1595_" class="st6" d="M80.7,307.1c-3.2-1.2-6.6-1.9-10.2-1.9c-15.5,0-28.1,12.6-28.1,28.1v10.2h28.1v-2.3h10.2
			v2.3h17.9v-10.2C98.6,321.4,91.2,311.2,80.7,307.1z"/>
		<path id="XMLID_1596_" class="st6" d="M75.8,366.6h-5.4h-5.4c-9.8,0-17.7,7.9-17.7,17.7v7.9h23h23v-7.9
			C93.5,374.5,85.6,366.6,75.8,366.6z"/>
		<polygon id="XMLID_1598_" class="st6" points="83.2,379.4 88.3,379.4 98.6,343.5 78.1,343.5 		"/>
		<polygon id="XMLID_1600_" class="st6" points="92,366.6 88.3,379.4 85.8,381.9 83.2,379.4 		"/>
		<polygon id="XMLID_1601_" class="st6" points="83.2,392.2 88.3,392.2 88.3,384.5 85.8,381.9 83.2,384.5 		"/>
		<path id="XMLID_1602_" class="st6" d="M78.1,366.6c0,4.2-7.7,10.2-7.7,10.2s-7.7-6-7.7-10.2v-7.7c0-4.2,3.4-7.7,7.7-7.7l0,0
			c4.2,0,7.7,3.4,7.7,7.7V366.6z"/>
		<polygon id="XMLID_1603_" class="st6" points="57.6,379.4 55.1,381.9 52.5,379.4 42.3,343.5 62.8,343.5 		"/>
		<polygon id="XMLID_1606_" class="st6" points="57.6,392.2 52.5,392.2 52.5,384.5 55.1,381.9 57.6,384.5 		"/>
		<rect id="XMLID_1607_" x="52.5" y="379.4" class="st6" width="5.1" height="5.1"/>
		<path id="XMLID_1608_" class="st6" d="M70.4,305.2c-15.5,0-28.1,12.6-28.1,28.1v10.2h28.1v-2.3h10.2v-34.2
			C77.5,305.8,74,305.2,70.4,305.2z"/>
		<ellipse id="XMLID_1609_" class="st6" cx="70.4" cy="339.7" rx="25.6" ry="26.9"/>
		<circle id="XMLID_1612_" class="st6" cx="61.5" cy="340.3" r="1.9"/>
		<circle id="XMLID_1614_" class="st6" cx="79.4" cy="340.3" r="1.9"/>
		<circle id="XMLID_1616_" class="st6" cx="44.8" cy="343.5" r="5.1"/>
		<circle id="XMLID_1617_" class="st6" cx="96" cy="343.5" r="5.1"/>
		<path id="XMLID_1618_" class="st6" d="M96,338.4c0,0-15.4-5.1-15.4-20.5l-2.6-5.1c0,0,10.2,2.6,15.4,10.2S96,338.4,96,338.4z"/>
		<rect id="XMLID_1619_" x="83.2" y="379.4" class="st6" width="5.1" height="5.1"/>
		<path id="XMLID_1620_" class="st6" d="M44.8,338.4c0,0,30.7-2.6,35.8-20.5v-7.7l-18.3-0.6l-14.7,8.7l-4.1,10.5L44.8,338.4z"/>
	</g>
</g>
<g>
	<g>
		<path class="st7" d="M128.4,48.2c0-0.4,0.1-0.7,0.3-0.9c0.2-0.2,0.5-0.3,0.9-0.3l0.8,0c0.7,0,1.2-0.2,1.5-0.6
			c0.3-0.4,0.5-1,0.5-1.8V33.8c0-0.5,0.1-0.8,0.4-1.1c0.3-0.3,0.7-0.4,1.1-0.4c0.5,0,0.9,0.1,1.1,0.4c0.3,0.3,0.4,0.7,0.4,1.1v10.7
			c0,3-1.5,4.6-4.5,4.9l-0.8,0C129,49.5,128.4,49.1,128.4,48.2z"/>
		<path class="st7" d="M141.1,48.8c-0.9-0.5-1.6-1.2-2.1-2.1c-0.5-0.9-0.7-2-0.7-3.2c0-1.2,0.2-2.3,0.7-3.2s1.2-1.6,2.1-2.1
			c0.9-0.5,2-0.7,3.2-0.7s2.3,0.2,3.2,0.7c0.9,0.5,1.6,1.2,2.1,2.1s0.7,2,0.7,3.2c0,1.2-0.2,2.3-0.7,3.2c-0.5,0.9-1.2,1.6-2.1,2.1
			c-0.9,0.5-2,0.7-3.2,0.7S142,49.3,141.1,48.8z M146.5,46.2c0.5-0.6,0.8-1.6,0.8-2.8c0-1.2-0.3-2.2-0.8-2.8s-1.2-1-2.2-1
			s-1.7,0.3-2.2,1c-0.5,0.6-0.8,1.6-0.8,2.8c0,1.2,0.3,2.2,0.8,2.8c0.5,0.6,1.2,1,2.2,1C145.2,47.2,145.9,46.9,146.5,46.2z"/>
		<path class="st7" d="M160.2,37.6c0.2,0.2,0.4,0.5,0.4,0.9c0,0.4-0.1,0.8-0.3,1c-0.2,0.2-0.6,0.3-1.1,0.4l-0.7,0.1
			c-0.9,0.1-1.6,0.4-2.1,1c-0.4,0.5-0.7,1.2-0.7,2v5c0,0.5-0.1,0.8-0.4,1.1s-0.6,0.4-1.1,0.4c-0.4,0-0.8-0.1-1.1-0.4
			c-0.3-0.2-0.4-0.6-0.4-1.1v-9.3c0-0.4,0.1-0.8,0.4-1c0.3-0.2,0.6-0.4,1-0.4s0.8,0.1,1,0.3s0.4,0.6,0.4,1v1
			c0.3-0.7,0.8-1.2,1.4-1.6c0.6-0.4,1.3-0.6,2-0.6l0.3,0C159.7,37.3,160,37.4,160.2,37.6z"/>
		<path class="st7" d="M172.7,37.7c0.3,0.3,0.4,0.6,0.4,1v9.5c0,1.8-0.5,3.2-1.5,4.2c-1,0.9-2.5,1.4-4.5,1.4c-1.7,0-3.2-0.3-4.4-1
			c-0.6-0.4-0.9-0.8-0.9-1.3c0-0.4,0.1-0.6,0.3-0.8c0.2-0.2,0.4-0.3,0.7-0.3c0.1,0,0.3,0,0.5,0.1c0.2,0.1,0.4,0.2,0.6,0.3
			c0.6,0.2,1.1,0.4,1.5,0.6c0.5,0.1,1,0.2,1.6,0.2c2.1,0,3.1-1,3.1-3.1v-1.5c-0.4,0.7-0.9,1.2-1.5,1.5c-0.7,0.4-1.4,0.5-2.3,0.5
			c-1,0-1.9-0.2-2.7-0.7c-0.8-0.5-1.4-1.2-1.9-2.1c-0.4-0.9-0.7-1.9-0.7-3s0.2-2.2,0.7-3.1c0.4-0.9,1.1-1.6,1.9-2.1
			c0.8-0.5,1.7-0.7,2.7-0.7c0.9,0,1.6,0.2,2.3,0.5c0.7,0.4,1.2,0.9,1.5,1.5v-0.6c0-0.4,0.1-0.8,0.4-1s0.6-0.4,1.1-0.4
			S172.4,37.5,172.7,37.7z M169.3,45.7c0.5-0.6,0.8-1.5,0.8-2.6c0-1.1-0.3-2-0.8-2.6c-0.5-0.6-1.3-0.9-2.2-0.9
			c-0.9,0-1.7,0.3-2.2,0.9c-0.5,0.6-0.8,1.5-0.8,2.6c0,1.1,0.3,1.9,0.8,2.6s1.3,0.9,2.2,0.9C168,46.6,168.8,46.3,169.3,45.7z"/>
		<path class="st7" d="M186.1,46.4c0.2,0.2,0.3,0.5,0.3,0.8c0,0.5-0.3,0.9-0.9,1.2c-0.5,0.3-1.2,0.5-1.8,0.7c-0.7,0.2-1.3,0.3-2,0.3
			c-1.9,0-3.4-0.5-4.5-1.6c-1.1-1.1-1.7-2.6-1.7-4.5c0-1.2,0.2-2.3,0.7-3.2c0.5-0.9,1.2-1.6,2-2.2s1.9-0.8,3-0.8
			c1.1,0,2,0.2,2.8,0.7c0.8,0.5,1.4,1.1,1.8,2c0.4,0.8,0.6,1.8,0.6,3c0,0.7-0.3,1-0.9,1h-7.1c0.1,1.1,0.4,1.9,0.9,2.4
			c0.5,0.5,1.3,0.8,2.3,0.8c0.5,0,1-0.1,1.4-0.2c0.4-0.1,0.8-0.3,1.3-0.5c0.5-0.3,0.8-0.4,1.1-0.4C185.7,46.1,185.9,46.2,186.1,46.4
			z M179.3,40.2c-0.5,0.5-0.8,1.2-0.9,2.2h5.4c0-1-0.3-1.7-0.7-2.2c-0.4-0.5-1.1-0.8-1.9-0.8C180.5,39.4,179.8,39.7,179.3,40.2z"/>
		<path class="st7" d="M202.7,48.3c0,0.4-0.2,0.7-0.5,0.9c-0.3,0.2-0.8,0.3-1.3,0.3l-0.6,0c-2.7-0.2-4-1.6-4-4.3v-5.2H195
			c-0.4,0-0.8-0.1-1-0.3c-0.2-0.2-0.3-0.5-0.3-0.8s0.1-0.6,0.3-0.8c0.2-0.2,0.6-0.3,1-0.3h1.2v-2.2c0-0.4,0.1-0.8,0.4-1
			c0.3-0.3,0.6-0.4,1.1-0.4c0.4,0,0.8,0.1,1.1,0.4c0.3,0.3,0.4,0.6,0.4,1v2.2h2c0.4,0,0.8,0.1,1,0.3c0.2,0.2,0.3,0.5,0.3,0.8
			s-0.1,0.6-0.3,0.8c-0.2,0.2-0.6,0.3-1,0.3h-2v5.4c0,1.2,0.5,1.8,1.6,1.9l0.6,0C202.3,47.3,202.7,47.6,202.7,48.3z"/>
		<path class="st7" d="M204.5,34.8c-0.3-0.3-0.5-0.7-0.5-1.2s0.2-0.9,0.5-1.2s0.8-0.4,1.3-0.4c0.5,0,1,0.1,1.3,0.4s0.5,0.7,0.5,1.2
			s-0.2,0.9-0.5,1.2c-0.3,0.3-0.8,0.4-1.3,0.4S204.8,35.1,204.5,34.8z M204.7,49.1c-0.3-0.2-0.4-0.6-0.4-1.1v-9.3
			c0-0.5,0.1-0.8,0.4-1.1c0.3-0.2,0.6-0.4,1.1-0.4c0.4,0,0.8,0.1,1.1,0.4c0.3,0.2,0.4,0.6,0.4,1.1V48c0,0.5-0.1,0.8-0.4,1.1
			s-0.6,0.4-1.1,0.4C205.3,49.5,205,49.3,204.7,49.1z"/>
		<path class="st7" d="M220.3,46.4c0.2,0.2,0.3,0.5,0.3,0.8c0,0.5-0.3,0.9-0.9,1.2c-0.5,0.3-1.2,0.5-1.8,0.7c-0.7,0.2-1.3,0.3-2,0.3
			c-1.9,0-3.4-0.5-4.5-1.6c-1.1-1.1-1.7-2.6-1.7-4.5c0-1.2,0.2-2.3,0.7-3.2c0.5-0.9,1.2-1.6,2-2.2c0.9-0.5,1.9-0.8,3-0.8
			c1.1,0,2,0.2,2.8,0.7c0.8,0.5,1.4,1.1,1.8,2c0.4,0.8,0.6,1.8,0.6,3c0,0.7-0.3,1-0.9,1h-7.1c0.1,1.1,0.4,1.9,0.9,2.4
			c0.5,0.5,1.3,0.8,2.3,0.8c0.5,0,1-0.1,1.4-0.2c0.4-0.1,0.8-0.3,1.3-0.5c0.5-0.3,0.8-0.4,1.1-0.4C219.9,46.1,220.1,46.2,220.3,46.4
			z M213.5,40.2c-0.5,0.5-0.8,1.2-0.9,2.2h5.4c0-1-0.3-1.7-0.7-2.2c-0.4-0.5-1.1-0.8-1.9-0.8C214.7,39.4,214,39.7,213.5,40.2z"/>
		<path class="st7" d="M233.1,38.5c0.7,0.8,1,2,1,3.6V48c0,0.4-0.1,0.8-0.4,1.1c-0.3,0.3-0.6,0.4-1.1,0.4c-0.5,0-0.8-0.1-1.1-0.4
			c-0.3-0.3-0.4-0.6-0.4-1.1v-5.7c0-0.9-0.2-1.6-0.5-2s-0.9-0.6-1.6-0.6c-0.9,0-1.6,0.3-2.1,0.8c-0.5,0.5-0.8,1.3-0.8,2.2V48
			c0,0.4-0.1,0.8-0.4,1.1c-0.3,0.3-0.6,0.4-1.1,0.4s-0.8-0.1-1.1-0.4c-0.3-0.3-0.4-0.6-0.4-1.1v-9.3c0-0.4,0.1-0.8,0.4-1
			c0.3-0.3,0.6-0.4,1.1-0.4c0.4,0,0.8,0.1,1,0.4c0.3,0.2,0.4,0.6,0.4,1v0.6c0.4-0.7,0.9-1.2,1.6-1.5c0.7-0.4,1.4-0.5,2.3-0.5
			C231.3,37.3,232.4,37.7,233.1,38.5z"/>
		<path class="st7" d="M247.1,46.4c0.2,0.2,0.3,0.5,0.3,0.8c0,0.5-0.3,0.9-0.9,1.2c-0.5,0.3-1.2,0.5-1.8,0.7c-0.7,0.2-1.3,0.3-2,0.3
			c-1.9,0-3.4-0.5-4.5-1.6c-1.1-1.1-1.7-2.6-1.7-4.5c0-1.2,0.2-2.3,0.7-3.2c0.5-0.9,1.2-1.6,2-2.2s1.9-0.8,3-0.8
			c1.1,0,2,0.2,2.8,0.7c0.8,0.5,1.4,1.1,1.8,2c0.4,0.8,0.6,1.8,0.6,3c0,0.7-0.3,1-0.9,1h-7.1c0.1,1.1,0.4,1.9,0.9,2.4
			c0.5,0.5,1.3,0.8,2.3,0.8c0.5,0,1-0.1,1.4-0.2c0.4-0.1,0.8-0.3,1.3-0.5c0.5-0.3,0.8-0.4,1.1-0.4C246.7,46.1,246.9,46.2,247.1,46.4
			z M240.3,40.2c-0.5,0.5-0.8,1.2-0.9,2.2h5.4c0-1-0.3-1.7-0.7-2.2c-0.4-0.5-1.1-0.8-1.9-0.8C241.5,39.4,240.8,39.7,240.3,40.2z"/>
		<path class="st7" d="M142.2,76.8c0,0.8-0.5,1.3-1.4,1.3h-8.1c-1,0-1.5-0.4-1.5-1.3c0-0.8,0.5-1.2,1.5-1.2h2.5V64.7l-2.3,1.4
			c-0.2,0.1-0.4,0.2-0.6,0.2c-0.3,0-0.6-0.1-0.9-0.4c-0.2-0.3-0.3-0.6-0.3-1c0-0.5,0.2-0.8,0.6-1.1l3.7-2.3c0.5-0.3,0.9-0.4,1.4-0.4
			c0.4,0,0.8,0.1,1.1,0.4c0.3,0.3,0.4,0.6,0.4,1.1v13h2.5C141.7,75.6,142.2,76,142.2,76.8z"/>
		<path class="st7" d="M155.3,70.9c0.5,0.7,0.8,1.6,0.8,2.7c0,1.5-0.5,2.6-1.6,3.5s-2.5,1.3-4.3,1.3c-1,0-2-0.2-3-0.5
			s-1.8-0.8-2.4-1.3c-0.4-0.3-0.6-0.7-0.6-1.1c0-0.4,0.1-0.7,0.3-0.9c0.2-0.2,0.4-0.4,0.7-0.4c0.2,0,0.3,0,0.4,0.1
			c0.1,0.1,0.3,0.1,0.5,0.3c0.7,0.4,1.3,0.8,1.9,1c0.6,0.2,1.3,0.4,2,0.4c1.1,0,1.8-0.2,2.4-0.6c0.5-0.4,0.8-1.1,0.8-1.9
			c0-0.8-0.3-1.5-0.8-1.9c-0.5-0.4-1.4-0.6-2.5-0.6h-1.4c-0.4,0-0.7-0.1-0.9-0.4c-0.2-0.2-0.3-0.5-0.3-0.9c0-0.3,0.1-0.6,0.3-0.9
			c0.2-0.2,0.5-0.4,0.9-0.4h1c2.2,0,3.3-0.8,3.3-2.5c0-0.8-0.2-1.4-0.7-1.8c-0.5-0.4-1.1-0.6-1.9-0.6c-1.2,0-2.4,0.5-3.7,1.4
			c-0.2,0.1-0.4,0.2-0.5,0.3c-0.1,0.1-0.3,0.1-0.4,0.1c-0.3,0-0.5-0.1-0.7-0.4c-0.2-0.2-0.3-0.5-0.3-0.9c0-0.2,0-0.4,0.1-0.6
			s0.2-0.3,0.4-0.5c0.7-0.6,1.5-1,2.4-1.3c0.9-0.3,1.9-0.5,2.9-0.5c1.7,0,3,0.4,4,1.2c1,0.8,1.5,1.9,1.5,3.3c0,0.9-0.3,1.7-0.7,2.4
			c-0.5,0.7-1.1,1.2-2,1.5C153.9,69.7,154.7,70.2,155.3,70.9z"/>
		<path class="st7" d="M174.3,67.3c0.8,0.8,1.2,2,1.2,3.7v5.9c0,0.4-0.1,0.8-0.4,1s-0.6,0.4-1.1,0.4c-0.4,0-0.8-0.1-1-0.4
			c-0.3-0.3-0.4-0.6-0.4-1v-0.5c-0.3,0.6-0.7,1.1-1.3,1.5c-0.6,0.4-1.3,0.5-2,0.5c-0.8,0-1.5-0.2-2.1-0.5s-1.1-0.8-1.5-1.3
			s-0.6-1.2-0.6-1.9c0-0.9,0.2-1.5,0.7-2c0.4-0.5,1.2-0.9,2.1-1.1c1-0.2,2.4-0.3,4.1-0.3h0.6v-0.6c0-0.8-0.2-1.4-0.5-1.7
			s-0.9-0.5-1.6-0.5c-0.5,0-0.9,0.1-1.4,0.2c-0.5,0.1-1,0.3-1.7,0.6c-0.4,0.2-0.7,0.3-0.9,0.3c-0.3,0-0.5-0.1-0.7-0.3
			c-0.2-0.2-0.3-0.5-0.3-0.8c0-0.3,0.1-0.5,0.2-0.7c0.1-0.2,0.4-0.4,0.7-0.6c0.6-0.3,1.2-0.5,2-0.7c0.8-0.2,1.5-0.3,2.3-0.3
			C172.3,66.1,173.5,66.5,174.3,67.3z M171.9,75.3c0.5-0.5,0.8-1.2,0.8-2.1v-0.5h-0.4c-1.1,0-1.9,0-2.5,0.1c-0.6,0.1-1,0.3-1.3,0.5
			c-0.3,0.2-0.4,0.6-0.4,1c0,0.5,0.2,0.9,0.5,1.3c0.4,0.3,0.8,0.5,1.3,0.5C170.8,76.1,171.4,75.9,171.9,75.3z"/>
		<path class="st7" d="M188.5,67.3c0.7,0.8,1,2,1,3.6v5.9c0,0.4-0.1,0.8-0.4,1.1c-0.3,0.3-0.6,0.4-1.1,0.4s-0.8-0.1-1.1-0.4
			c-0.3-0.3-0.4-0.6-0.4-1.1v-5.7c0-0.9-0.2-1.6-0.5-2c-0.3-0.4-0.9-0.6-1.6-0.6c-0.9,0-1.6,0.3-2.1,0.8c-0.5,0.5-0.8,1.3-0.8,2.2
			v5.4c0,0.4-0.1,0.8-0.4,1.1c-0.3,0.3-0.6,0.4-1.1,0.4s-0.8-0.1-1.1-0.4c-0.3-0.3-0.4-0.6-0.4-1.1v-9.3c0-0.4,0.1-0.8,0.4-1
			c0.3-0.3,0.6-0.4,1.1-0.4c0.4,0,0.8,0.1,1,0.4s0.4,0.6,0.4,1v0.6c0.4-0.7,0.9-1.2,1.6-1.5c0.7-0.4,1.4-0.5,2.3-0.5
			C186.8,66.1,187.8,66.5,188.5,67.3z M185,63.9c-0.3-0.1-0.6-0.3-1.1-0.6c-0.4-0.2-0.6-0.4-0.8-0.5c-0.2-0.1-0.4-0.1-0.6-0.1
			c-0.3,0-0.5,0.1-0.6,0.2s-0.3,0.3-0.5,0.6c-0.1,0.2-0.2,0.3-0.3,0.4c-0.1,0.1-0.2,0.1-0.4,0.1c-0.2,0-0.3-0.1-0.4-0.2
			c-0.1-0.2-0.2-0.3-0.2-0.6c0-0.3,0.1-0.7,0.3-1.1c0.2-0.4,0.5-0.7,0.8-1c0.3-0.3,0.7-0.4,1.1-0.4c0.3,0,0.6,0.1,0.9,0.2
			c0.3,0.1,0.6,0.3,1.1,0.6c0.4,0.2,0.6,0.4,0.8,0.5c0.2,0.1,0.4,0.1,0.6,0.1c0.3,0,0.5-0.1,0.6-0.2c0.2-0.1,0.3-0.3,0.5-0.6
			c0.1-0.2,0.2-0.3,0.3-0.4s0.2-0.1,0.4-0.1c0.2,0,0.3,0.1,0.5,0.2c0.1,0.2,0.2,0.3,0.2,0.6c0,0.3-0.1,0.7-0.3,1.1
			c-0.2,0.4-0.5,0.7-0.8,1c-0.3,0.3-0.7,0.4-1.1,0.4C185.5,64.1,185.2,64,185,63.9z"/>
		<path class="st7" d="M194.8,77.6c-0.9-0.5-1.6-1.2-2.1-2.1c-0.5-0.9-0.7-2-0.7-3.2c0-1.2,0.2-2.3,0.7-3.2s1.2-1.6,2.1-2.1
			c0.9-0.5,2-0.7,3.2-0.7c1.2,0,2.3,0.2,3.2,0.7c0.9,0.5,1.6,1.2,2.1,2.1c0.5,0.9,0.7,2,0.7,3.2c0,1.2-0.2,2.3-0.7,3.2
			c-0.5,0.9-1.2,1.6-2.1,2.1c-0.9,0.5-2,0.7-3.2,0.7C196.8,78.3,195.7,78.1,194.8,77.6z M200.2,75c0.5-0.6,0.8-1.6,0.8-2.8
			c0-1.2-0.3-2.2-0.8-2.8c-0.5-0.6-1.2-1-2.2-1s-1.7,0.3-2.2,1c-0.5,0.6-0.8,1.6-0.8,2.8c0,1.2,0.3,2.2,0.8,2.8c0.5,0.6,1.2,1,2.2,1
			C198.9,76,199.7,75.7,200.2,75z"/>
		<path class="st7" d="M206.4,77.3c-0.5-0.3-0.8-0.7-0.8-1.3c0-0.3,0.1-0.6,0.3-0.8c0.2-0.2,0.4-0.3,0.6-0.3c0.3,0,0.6,0.1,1.1,0.4
			c0.5,0.2,1,0.4,1.4,0.6s1,0.2,1.6,0.2c0.7,0,1.2-0.1,1.6-0.3c0.4-0.2,0.6-0.5,0.6-0.9c0-0.3-0.1-0.5-0.2-0.6
			c-0.2-0.2-0.4-0.3-0.8-0.4c-0.4-0.1-1-0.3-1.8-0.5c-1.4-0.3-2.4-0.7-3.1-1.2c-0.6-0.5-0.9-1.3-0.9-2.2c0-0.7,0.2-1.3,0.6-1.9
			c0.4-0.6,1-1,1.7-1.3c0.7-0.3,1.6-0.5,2.5-0.5c0.7,0,1.3,0.1,1.9,0.3s1.2,0.4,1.7,0.7c0.5,0.3,0.8,0.7,0.8,1.3
			c0,0.3-0.1,0.6-0.3,0.8c-0.2,0.2-0.4,0.3-0.6,0.3c-0.2,0-0.3,0-0.5-0.1c-0.2-0.1-0.4-0.2-0.6-0.3c-0.5-0.2-0.9-0.4-1.2-0.5
			c-0.3-0.1-0.8-0.2-1.2-0.2c-0.6,0-1.1,0.1-1.4,0.4c-0.3,0.2-0.5,0.6-0.5,1c0,0.4,0.2,0.7,0.5,0.9c0.4,0.2,1,0.4,2,0.6
			c1.1,0.2,1.9,0.5,2.5,0.8c0.6,0.3,1,0.6,1.3,1.1s0.4,1,0.4,1.7c0,1.1-0.5,2-1.4,2.6c-0.9,0.7-2.1,1-3.6,1
			C208.9,78.3,207.5,78,206.4,77.3z"/>
		<path class="st7" d="M218.1,77.7c-0.3-0.3-0.5-0.8-0.5-1.3s0.2-0.9,0.5-1.3c0.3-0.3,0.8-0.5,1.3-0.5c0.5,0,0.9,0.2,1.3,0.5
			c0.3,0.3,0.5,0.8,0.5,1.3s-0.2,0.9-0.5,1.3c-0.3,0.3-0.8,0.5-1.3,0.5C218.8,78.3,218.4,78.1,218.1,77.7z"/>
	</g>
</g>
<g>
	<g>
		<path class="st7" d="M130.5,195.8c-0.3-0.2-0.4-0.6-0.4-1v-13.4c0-0.4,0.1-0.8,0.4-1c0.3-0.2,0.6-0.4,1-0.4h8.3
			c0.4,0,0.8,0.1,1,0.3c0.2,0.2,0.4,0.5,0.4,0.9c0,0.4-0.1,0.7-0.4,0.9c-0.2,0.2-0.6,0.3-1,0.3h-6.8v4.5h6.4c0.4,0,0.8,0.1,1,0.3
			s0.4,0.5,0.4,0.9c0,0.4-0.1,0.7-0.4,0.9s-0.6,0.3-1,0.3h-6.4v4.7h6.8c0.4,0,0.8,0.1,1,0.3c0.2,0.2,0.4,0.5,0.4,0.9
			c0,0.4-0.1,0.7-0.4,0.9c-0.2,0.2-0.6,0.3-1,0.3h-8.3C131.1,196.2,130.8,196,130.5,195.8z"/>
		<path class="st7" d="M153.9,180.2c0.3,0.2,0.4,0.6,0.4,1v13.8c0,0.4-0.1,0.7-0.4,1c-0.3,0.2-0.6,0.4-1,0.4s-0.8-0.1-1-0.4
			c-0.3-0.2-0.4-0.6-0.4-1v-0.6c-0.3,0.6-0.8,1.1-1.5,1.5c-0.6,0.4-1.4,0.5-2.2,0.5c-1,0-1.8-0.2-2.6-0.7c-0.8-0.5-1.3-1.2-1.8-2.1
			s-0.6-1.9-0.6-3.1c0-1.2,0.2-2.2,0.6-3.1s1-1.5,1.8-2c0.8-0.5,1.6-0.7,2.6-0.7c0.8,0,1.5,0.2,2.2,0.5c0.6,0.3,1.1,0.8,1.4,1.4
			v-5.5c0-0.4,0.1-0.7,0.4-0.9c0.3-0.2,0.6-0.4,1-0.4S153.6,180,153.9,180.2z M150.7,193.2c0.5-0.6,0.7-1.5,0.7-2.7
			c0-1.2-0.2-2.1-0.7-2.7c-0.5-0.6-1.2-0.9-2.1-0.9c-0.9,0-1.6,0.3-2.1,0.9c-0.5,0.6-0.8,1.5-0.8,2.6c0,1.2,0.3,2.1,0.8,2.7
			c0.5,0.6,1.2,1,2.1,1C149.5,194.1,150.2,193.8,150.7,193.2z"/>
		<path class="st7" d="M167.2,185.1c0.3,0.2,0.4,0.6,0.4,1v8.9c0,0.4-0.1,0.7-0.4,1c-0.3,0.2-0.6,0.4-1,0.4c-0.4,0-0.7-0.1-1-0.3
			s-0.4-0.5-0.4-0.9v-0.6c-0.4,0.6-0.8,1.1-1.4,1.4c-0.6,0.3-1.3,0.5-2,0.5c-2.8,0-4.1-1.5-4.1-4.6V186c0-0.4,0.1-0.7,0.4-1
			s0.6-0.4,1-0.4c0.4,0,0.8,0.1,1.1,0.4c0.3,0.2,0.4,0.6,0.4,1v5.7c0,0.8,0.2,1.4,0.5,1.8c0.3,0.4,0.8,0.6,1.5,0.6
			c0.8,0,1.4-0.3,1.9-0.8c0.5-0.5,0.7-1.2,0.7-2.1V186c0-0.4,0.1-0.7,0.4-1s0.6-0.4,1-0.4C166.6,184.7,166.9,184.8,167.2,185.1z"/>
		<path class="st7" d="M179,185.8c0.8,0.8,1.1,2,1.1,3.5v5.6c0,0.4-0.1,0.7-0.4,1c-0.2,0.2-0.6,0.4-1,0.4c-0.4,0-0.7-0.1-1-0.4
			c-0.3-0.2-0.4-0.6-0.4-1v-0.5c-0.3,0.6-0.7,1.1-1.2,1.4c-0.6,0.3-1.2,0.5-1.9,0.5c-0.8,0-1.4-0.2-2-0.5c-0.6-0.3-1.1-0.7-1.4-1.3
			c-0.4-0.5-0.5-1.1-0.5-1.8c0-0.8,0.2-1.5,0.6-2c0.4-0.5,1.1-0.8,2.1-1c1-0.2,2.3-0.3,3.9-0.3h0.6V189c0-0.8-0.2-1.3-0.5-1.6
			c-0.3-0.3-0.8-0.5-1.6-0.5c-0.4,0-0.9,0.1-1.4,0.2c-0.5,0.1-1,0.3-1.6,0.6c-0.4,0.2-0.7,0.3-0.9,0.3c-0.3,0-0.5-0.1-0.7-0.3
			c-0.2-0.2-0.3-0.5-0.3-0.8c0-0.3,0.1-0.5,0.2-0.7c0.1-0.2,0.3-0.4,0.7-0.5c0.5-0.3,1.2-0.5,1.9-0.7c0.7-0.2,1.5-0.3,2.2-0.3
			C177,184.6,178.2,185,179,185.8z M176.6,193.5c0.5-0.5,0.7-1.2,0.7-2V191h-0.4c-1,0-1.8,0-2.4,0.1c-0.6,0.1-1,0.3-1.2,0.5
			c-0.2,0.2-0.4,0.5-0.4,0.9c0,0.5,0.2,0.9,0.5,1.2c0.3,0.3,0.8,0.5,1.3,0.5C175.5,194.3,176.1,194,176.6,193.5z"/>
		<path class="st7" d="M190.2,184.9c0.2,0.2,0.3,0.5,0.3,0.9c0,0.4-0.1,0.7-0.3,0.9c-0.2,0.2-0.6,0.3-1.1,0.4l-0.7,0.1
			c-0.9,0.1-1.6,0.4-2,0.9c-0.4,0.5-0.6,1.2-0.6,2v4.8c0,0.4-0.1,0.8-0.4,1c-0.3,0.2-0.6,0.4-1,0.4s-0.8-0.1-1-0.4
			c-0.3-0.2-0.4-0.6-0.4-1V186c0-0.4,0.1-0.8,0.4-1c0.3-0.2,0.6-0.3,1-0.3c0.4,0,0.7,0.1,1,0.3c0.2,0.2,0.4,0.5,0.4,1v0.9
			c0.3-0.7,0.7-1.2,1.3-1.6c0.6-0.4,1.2-0.6,1.9-0.6l0.3,0C189.7,184.7,190,184.7,190.2,184.9z"/>
		<path class="st7" d="M202,180.2c0.3,0.2,0.4,0.6,0.4,1v13.8c0,0.4-0.1,0.7-0.4,1c-0.3,0.2-0.6,0.4-1,0.4c-0.4,0-0.8-0.1-1-0.4
			c-0.3-0.2-0.4-0.6-0.4-1v-0.6c-0.3,0.6-0.8,1.1-1.5,1.5c-0.6,0.4-1.4,0.5-2.2,0.5c-1,0-1.8-0.2-2.6-0.7c-0.8-0.5-1.3-1.2-1.8-2.1
			s-0.6-1.9-0.6-3.1c0-1.2,0.2-2.2,0.6-3.1s1-1.5,1.8-2c0.8-0.5,1.6-0.7,2.6-0.7c0.8,0,1.5,0.2,2.2,0.5c0.6,0.3,1.1,0.8,1.4,1.4
			v-5.5c0-0.4,0.1-0.7,0.4-0.9c0.3-0.2,0.6-0.4,1-0.4C201.4,179.8,201.8,180,202,180.2z M198.8,193.2c0.5-0.6,0.7-1.5,0.7-2.7
			c0-1.2-0.2-2.1-0.7-2.7c-0.5-0.6-1.2-0.9-2.1-0.9c-0.9,0-1.6,0.3-2.1,0.9c-0.5,0.6-0.8,1.5-0.8,2.6c0,1.2,0.3,2.1,0.8,2.7
			c0.5,0.6,1.2,1,2.1,1C197.6,194.1,198.3,193.8,198.8,193.2z"/>
		<path class="st7" d="M207.5,195.6c-0.9-0.5-1.5-1.2-2-2c-0.5-0.9-0.7-1.9-0.7-3.1c0-1.2,0.2-2.2,0.7-3.1c0.5-0.9,1.1-1.6,2-2
			c0.9-0.5,1.9-0.7,3-0.7c1.1,0,2.2,0.2,3,0.7c0.9,0.5,1.5,1.2,2,2c0.5,0.9,0.7,1.9,0.7,3.1c0,1.2-0.2,2.2-0.7,3.1
			c-0.5,0.9-1.1,1.6-2,2c-0.9,0.5-1.9,0.7-3,0.7C209.4,196.4,208.4,196.1,207.5,195.6z M212.7,193.2c0.5-0.6,0.7-1.5,0.7-2.7
			c0-1.2-0.2-2.1-0.7-2.7c-0.5-0.6-1.2-0.9-2.1-0.9s-1.6,0.3-2.1,0.9c-0.5,0.6-0.7,1.5-0.7,2.7c0,1.2,0.2,2.1,0.7,2.7
			s1.2,0.9,2.1,0.9C211.5,194.1,212.2,193.8,212.7,193.2z"/>
		<path class="st7" d="M231.9,195.2c0,0.4-0.1,0.6-0.4,0.8c-0.3,0.2-0.7,0.3-1.3,0.2l-0.6,0c-2.6-0.2-3.9-1.6-3.9-4.1v-5h-1.1
			c-0.4,0-0.7-0.1-1-0.3s-0.3-0.5-0.3-0.8c0-0.4,0.1-0.6,0.3-0.8c0.2-0.2,0.5-0.3,1-0.3h1.1v-2.1c0-0.4,0.1-0.7,0.4-1
			c0.3-0.2,0.6-0.4,1.1-0.4c0.4,0,0.8,0.1,1,0.4c0.3,0.2,0.4,0.6,0.4,1v2.1h2c0.4,0,0.7,0.1,1,0.3c0.2,0.2,0.3,0.5,0.3,0.8
			c0,0.4-0.1,0.6-0.3,0.8s-0.5,0.3-1,0.3h-2v5.2c0,1.1,0.5,1.7,1.6,1.8l0.6,0C231.5,194.2,231.9,194.6,231.9,195.2z"/>
		<path class="st7" d="M233.5,182.2c-0.3-0.3-0.5-0.7-0.5-1.1s0.2-0.8,0.5-1.1c0.3-0.3,0.7-0.4,1.2-0.4c0.5,0,0.9,0.1,1.2,0.4
			s0.5,0.6,0.5,1.1s-0.2,0.8-0.5,1.1c-0.3,0.3-0.7,0.4-1.2,0.4C234.3,182.6,233.8,182.5,233.5,182.2z M233.8,196
			c-0.3-0.2-0.4-0.6-0.4-1V186c0-0.4,0.1-0.8,0.4-1s0.6-0.3,1-0.3s0.8,0.1,1,0.3s0.4,0.6,0.4,1v8.9c0,0.4-0.1,0.8-0.4,1
			c-0.3,0.2-0.6,0.4-1,0.4S234,196.2,233.8,196z"/>
		<path class="st7" d="M248.7,193.4c0.2,0.2,0.2,0.5,0.2,0.8c0,0.5-0.3,0.9-0.9,1.2c-0.5,0.3-1.1,0.5-1.8,0.7
			c-0.7,0.2-1.3,0.3-1.9,0.3c-1.8,0-3.2-0.5-4.3-1.6c-1.1-1-1.6-2.5-1.6-4.3c0-1.1,0.2-2.2,0.7-3.1c0.5-0.9,1.1-1.6,1.9-2.1
			c0.8-0.5,1.8-0.7,2.8-0.7c1,0,1.9,0.2,2.6,0.7s1.3,1.1,1.7,1.9c0.4,0.8,0.6,1.8,0.6,2.9c0,0.7-0.3,1-0.9,1h-6.8
			c0.1,1.1,0.4,1.8,0.9,2.3c0.5,0.5,1.2,0.7,2.2,0.7c0.5,0,0.9-0.1,1.3-0.2c0.4-0.1,0.8-0.3,1.3-0.5c0.5-0.2,0.8-0.4,1-0.4
			C248.4,193.1,248.6,193.2,248.7,193.4z M242.2,187.4c-0.5,0.5-0.7,1.2-0.8,2.1h5.2c0-0.9-0.3-1.6-0.7-2.1s-1-0.7-1.8-0.7
			C243.3,186.7,242.7,186.9,242.2,187.4z"/>
		<path class="st7" d="M261,185.8c0.7,0.8,1,1.9,1,3.5v5.7c0,0.4-0.1,0.8-0.4,1s-0.6,0.4-1,0.4c-0.4,0-0.8-0.1-1.1-0.4
			s-0.4-0.6-0.4-1v-5.5c0-0.9-0.2-1.5-0.5-1.9c-0.3-0.4-0.8-0.6-1.6-0.6c-0.8,0-1.5,0.3-2,0.8c-0.5,0.5-0.7,1.2-0.7,2.1v5.1
			c0,0.4-0.1,0.8-0.4,1c-0.3,0.2-0.6,0.4-1.1,0.4s-0.8-0.1-1-0.4c-0.3-0.2-0.4-0.6-0.4-1V186c0-0.4,0.1-0.7,0.4-1
			c0.3-0.2,0.6-0.4,1.1-0.4c0.4,0,0.7,0.1,1,0.4c0.3,0.2,0.4,0.5,0.4,0.9v0.6c0.4-0.6,0.9-1.1,1.5-1.4c0.6-0.3,1.4-0.5,2.2-0.5
			C259.3,184.6,260.3,185,261,185.8z"/>
		<path class="st7" d="M274.4,193.4c0.2,0.2,0.2,0.5,0.2,0.8c0,0.5-0.3,0.9-0.9,1.2c-0.5,0.3-1.1,0.5-1.8,0.7s-1.3,0.3-1.9,0.3
			c-1.8,0-3.2-0.5-4.3-1.6c-1.1-1-1.6-2.5-1.6-4.3c0-1.1,0.2-2.2,0.7-3.1s1.1-1.6,1.9-2.1c0.8-0.5,1.8-0.7,2.8-0.7
			c1,0,1.9,0.2,2.6,0.7c0.8,0.4,1.3,1.1,1.7,1.9c0.4,0.8,0.6,1.8,0.6,2.9c0,0.7-0.3,1-0.9,1h-6.8c0.1,1.1,0.4,1.8,0.9,2.3
			c0.5,0.5,1.2,0.7,2.2,0.7c0.5,0,0.9-0.1,1.3-0.2c0.4-0.1,0.8-0.3,1.3-0.5c0.5-0.2,0.8-0.4,1-0.4
			C274,193.1,274.2,193.2,274.4,193.4z M267.9,187.4c-0.5,0.5-0.7,1.2-0.8,2.1h5.2c0-0.9-0.3-1.6-0.7-2.1c-0.4-0.5-1-0.7-1.8-0.7
			C269,186.7,268.4,186.9,267.9,187.4z"/>
		<path class="st7" d="M294.3,180.3c0.2,0.2,0.3,0.5,0.3,0.9c0,0.4-0.1,0.7-0.3,1.1l-7.3,13.3c-0.3,0.5-0.7,0.8-1.3,0.8
			c-0.4,0-0.7-0.1-1-0.4c-0.3-0.3-0.4-0.6-0.4-0.9c0-0.3,0.1-0.5,0.2-0.8l6.6-11.9h-6.9c-0.9,0-1.4-0.4-1.4-1.2
			c0-0.8,0.5-1.2,1.4-1.2h9.2C293.8,180,294.1,180.1,294.3,180.3z"/>
		<path class="st7" d="M311.7,185.8c0.8,0.8,1.1,2,1.1,3.5v5.6c0,0.4-0.1,0.7-0.4,1c-0.2,0.2-0.6,0.4-1,0.4c-0.4,0-0.7-0.1-1-0.4
			c-0.3-0.2-0.4-0.6-0.4-1v-0.5c-0.3,0.6-0.7,1.1-1.2,1.4c-0.6,0.3-1.2,0.5-1.9,0.5c-0.8,0-1.4-0.2-2-0.5s-1.1-0.7-1.4-1.3
			c-0.4-0.5-0.5-1.1-0.5-1.8c0-0.8,0.2-1.5,0.6-2c0.4-0.5,1.1-0.8,2.1-1c1-0.2,2.3-0.3,3.9-0.3h0.6V189c0-0.8-0.2-1.3-0.5-1.6
			c-0.3-0.3-0.8-0.5-1.6-0.5c-0.4,0-0.9,0.1-1.4,0.2c-0.5,0.1-1,0.3-1.6,0.6c-0.4,0.2-0.7,0.3-0.9,0.3c-0.3,0-0.5-0.1-0.7-0.3
			c-0.2-0.2-0.3-0.5-0.3-0.8c0-0.3,0.1-0.5,0.2-0.7c0.1-0.2,0.3-0.4,0.7-0.5c0.5-0.3,1.2-0.5,1.9-0.7c0.7-0.2,1.5-0.3,2.2-0.3
			C309.8,184.6,310.9,185,311.7,185.8z M309.4,193.5c0.5-0.5,0.7-1.2,0.7-2V191h-0.4c-1,0-1.8,0-2.4,0.1c-0.6,0.1-1,0.3-1.2,0.5
			s-0.4,0.5-0.4,0.9c0,0.5,0.2,0.9,0.5,1.2c0.3,0.3,0.8,0.5,1.3,0.5C308.3,194.3,308.9,194,309.4,193.5z"/>
		<path class="st7" d="M325.3,185.8c0.7,0.8,1,1.9,1,3.5v5.7c0,0.4-0.1,0.8-0.4,1c-0.3,0.2-0.6,0.4-1,0.4s-0.8-0.1-1.1-0.4
			c-0.3-0.2-0.4-0.6-0.4-1v-5.5c0-0.9-0.2-1.5-0.5-1.9c-0.3-0.4-0.8-0.6-1.6-0.6c-0.8,0-1.5,0.3-2,0.8c-0.5,0.5-0.7,1.2-0.7,2.1v5.1
			c0,0.4-0.1,0.8-0.4,1s-0.6,0.4-1.1,0.4c-0.4,0-0.8-0.1-1-0.4s-0.4-0.6-0.4-1V186c0-0.4,0.1-0.7,0.4-1s0.6-0.4,1.1-0.4
			c0.4,0,0.7,0.1,1,0.4c0.3,0.2,0.4,0.5,0.4,0.9v0.6c0.4-0.6,0.9-1.1,1.5-1.4c0.6-0.3,1.4-0.5,2.2-0.5
			C323.6,184.6,324.6,185,325.3,185.8z M321.9,182.6c-0.3-0.1-0.6-0.3-1-0.6c-0.3-0.2-0.6-0.3-0.8-0.4s-0.4-0.1-0.6-0.1
			c-0.2,0-0.4,0.1-0.6,0.2c-0.1,0.1-0.3,0.3-0.4,0.5c-0.1,0.2-0.2,0.3-0.3,0.4c-0.1,0.1-0.2,0.1-0.3,0.1c-0.2,0-0.3-0.1-0.4-0.2
			c-0.1-0.1-0.2-0.3-0.2-0.6c0-0.3,0.1-0.6,0.3-1c0.2-0.4,0.4-0.7,0.8-1c0.3-0.3,0.7-0.4,1.1-0.4c0.3,0,0.5,0.1,0.8,0.2
			c0.3,0.1,0.6,0.3,1,0.6c0.3,0.2,0.6,0.3,0.8,0.4c0.2,0.1,0.4,0.1,0.6,0.1c0.2,0,0.4-0.1,0.6-0.2s0.3-0.3,0.4-0.5
			c0.1-0.2,0.2-0.3,0.3-0.4c0.1-0.1,0.2-0.1,0.3-0.1c0.2,0,0.3,0.1,0.4,0.2c0.1,0.1,0.2,0.3,0.2,0.6c0,0.3-0.1,0.6-0.3,1
			c-0.2,0.4-0.4,0.7-0.8,1c-0.3,0.3-0.7,0.4-1.1,0.4C322.4,182.7,322.2,182.7,321.9,182.6z"/>
		<path class="st7" d="M331.3,195.6c-0.9-0.5-1.5-1.2-2-2c-0.5-0.9-0.7-1.9-0.7-3.1c0-1.2,0.2-2.2,0.7-3.1c0.5-0.9,1.1-1.6,2-2
			c0.9-0.5,1.9-0.7,3-0.7s2.2,0.2,3,0.7c0.9,0.5,1.5,1.2,2,2s0.7,1.9,0.7,3.1c0,1.2-0.2,2.2-0.7,3.1c-0.5,0.9-1.1,1.6-2,2
			s-1.9,0.7-3,0.7S332.2,196.1,331.3,195.6z M336.5,193.2c0.5-0.6,0.7-1.5,0.7-2.7c0-1.2-0.2-2.1-0.7-2.7c-0.5-0.6-1.2-0.9-2.1-0.9
			s-1.6,0.3-2.1,0.9c-0.5,0.6-0.7,1.5-0.7,2.7c0,1.2,0.2,2.1,0.7,2.7c0.5,0.6,1.2,0.9,2.1,0.9C335.3,194.1,336,193.8,336.5,193.2z"
			/>
		<path class="st7" d="M342.5,195.4c-0.5-0.3-0.7-0.7-0.7-1.2c0-0.3,0.1-0.6,0.3-0.7c0.2-0.2,0.4-0.3,0.6-0.3c0.3,0,0.6,0.1,1.1,0.4
			c0.5,0.2,0.9,0.4,1.3,0.5c0.4,0.1,0.9,0.2,1.6,0.2c0.6,0,1.1-0.1,1.5-0.3c0.4-0.2,0.5-0.5,0.5-0.9c0-0.3-0.1-0.5-0.2-0.6
			c-0.1-0.2-0.4-0.3-0.8-0.4c-0.4-0.1-0.9-0.3-1.7-0.4c-1.4-0.3-2.3-0.7-2.9-1.2c-0.6-0.5-0.9-1.2-0.9-2.1c0-0.7,0.2-1.3,0.6-1.8
			c0.4-0.5,0.9-1,1.6-1.3c0.7-0.3,1.5-0.4,2.4-0.4c0.6,0,1.3,0.1,1.9,0.2c0.6,0.2,1.1,0.4,1.6,0.7c0.5,0.3,0.7,0.7,0.7,1.2
			c0,0.3-0.1,0.6-0.3,0.8c-0.2,0.2-0.4,0.3-0.6,0.3c-0.2,0-0.3,0-0.5-0.1c-0.2-0.1-0.4-0.2-0.6-0.3c-0.4-0.2-0.8-0.4-1.2-0.5
			c-0.3-0.1-0.7-0.2-1.2-0.2c-0.6,0-1,0.1-1.3,0.3c-0.3,0.2-0.5,0.5-0.5,0.9c0,0.4,0.2,0.7,0.5,0.9c0.3,0.2,1,0.4,2,0.6
			c1,0.2,1.8,0.5,2.4,0.7c0.6,0.3,1,0.6,1.3,1c0.3,0.4,0.4,0.9,0.4,1.6c0,1-0.4,1.9-1.3,2.5c-0.9,0.6-2,0.9-3.5,0.9
			C344.8,196.4,343.5,196,342.5,195.4z"/>
		<path class="st7" d="M146.1,210.7c0.7,0.7,1,1.9,1,3.5v5.7c0,0.4-0.1,0.8-0.4,1c-0.3,0.2-0.6,0.4-1,0.4c-0.4,0-0.8-0.1-1-0.4
			c-0.3-0.2-0.4-0.6-0.4-1v-5.7c0-0.8-0.1-1.4-0.4-1.8c-0.3-0.4-0.8-0.5-1.4-0.5c-0.8,0-1.3,0.3-1.8,0.8c-0.4,0.5-0.7,1.2-0.7,2.1
			v5.1c0,0.4-0.1,0.8-0.4,1c-0.3,0.2-0.6,0.4-1,0.4c-0.4,0-0.8-0.1-1-0.4s-0.4-0.6-0.4-1v-5.7c0-0.8-0.1-1.4-0.4-1.8
			c-0.3-0.4-0.8-0.5-1.4-0.5c-0.8,0-1.3,0.3-1.8,0.8s-0.7,1.2-0.7,2.1v5.1c0,0.4-0.1,0.8-0.4,1s-0.6,0.4-1,0.4s-0.8-0.1-1-0.4
			c-0.3-0.2-0.4-0.6-0.4-1V211c0-0.4,0.1-0.8,0.4-1c0.3-0.2,0.6-0.3,1-0.3c0.4,0,0.7,0.1,1,0.3s0.4,0.5,0.4,1v0.6
			c0.4-0.6,0.8-1.1,1.4-1.4s1.3-0.5,2-0.5c1.7,0,2.8,0.7,3.4,2.1c0.3-0.6,0.8-1.2,1.5-1.5c0.7-0.4,1.4-0.6,2.2-0.6
			C144.5,209.6,145.4,210,146.1,210.7z"/>
		<path class="st7" d="M158.3,210.8c0.8,0.8,1.1,2,1.1,3.5v5.6c0,0.4-0.1,0.7-0.4,1c-0.2,0.2-0.6,0.4-1,0.4c-0.4,0-0.7-0.1-1-0.4
			c-0.3-0.2-0.4-0.6-0.4-1v-0.5c-0.3,0.6-0.7,1.1-1.2,1.4s-1.2,0.5-1.9,0.5c-0.8,0-1.4-0.2-2-0.5c-0.6-0.3-1.1-0.7-1.4-1.3
			c-0.4-0.5-0.5-1.1-0.5-1.8c0-0.8,0.2-1.5,0.6-2c0.4-0.5,1.1-0.8,2.1-1c1-0.2,2.3-0.3,3.9-0.3h0.6V214c0-0.8-0.2-1.3-0.5-1.6
			c-0.3-0.3-0.8-0.5-1.6-0.5c-0.4,0-0.9,0.1-1.4,0.2s-1,0.3-1.6,0.6c-0.4,0.2-0.7,0.3-0.9,0.3c-0.3,0-0.5-0.1-0.7-0.3
			s-0.3-0.5-0.3-0.8c0-0.3,0.1-0.5,0.2-0.7c0.1-0.2,0.3-0.4,0.7-0.5c0.5-0.3,1.2-0.5,1.9-0.7c0.7-0.2,1.5-0.3,2.2-0.3
			C156.4,209.6,157.6,210,158.3,210.8z M156,218.5c0.5-0.5,0.7-1.2,0.7-2V216h-0.4c-1,0-1.8,0-2.4,0.1c-0.6,0.1-1,0.3-1.2,0.5
			c-0.2,0.2-0.4,0.5-0.4,0.9c0,0.5,0.2,0.9,0.5,1.2c0.3,0.3,0.8,0.5,1.3,0.5C154.9,219.3,155.5,219,156,218.5z M154.9,208.6
			c-0.2,0-0.4-0.1-0.5-0.2c-0.1-0.1-0.2-0.3-0.2-0.5c0-0.2,0.1-0.3,0.2-0.5l2.2-3c0.4-0.5,0.8-0.7,1.2-0.7c0.3,0,0.6,0.1,0.9,0.4
			c0.2,0.2,0.4,0.5,0.4,0.8c0,0.4-0.2,0.8-0.6,1.1l-3,2.4C155.3,208.5,155.1,208.6,154.9,208.6z"/>
		<path class="st7" d="M162.4,220.4c-0.5-0.3-0.7-0.7-0.7-1.2c0-0.3,0.1-0.6,0.3-0.7c0.2-0.2,0.4-0.3,0.6-0.3c0.3,0,0.6,0.1,1.1,0.4
			c0.5,0.2,0.9,0.4,1.3,0.5c0.4,0.1,0.9,0.2,1.6,0.2c0.6,0,1.1-0.1,1.5-0.3c0.4-0.2,0.5-0.5,0.5-0.9c0-0.3-0.1-0.5-0.2-0.6
			c-0.1-0.2-0.4-0.3-0.8-0.4c-0.4-0.1-0.9-0.3-1.7-0.4c-1.4-0.3-2.3-0.7-2.9-1.2c-0.6-0.5-0.9-1.2-0.9-2.1c0-0.7,0.2-1.3,0.6-1.8
			c0.4-0.5,0.9-1,1.6-1.3c0.7-0.3,1.5-0.4,2.4-0.4c0.6,0,1.3,0.1,1.9,0.2c0.6,0.2,1.1,0.4,1.6,0.7c0.5,0.3,0.7,0.7,0.7,1.2
			c0,0.3-0.1,0.6-0.3,0.8c-0.2,0.2-0.4,0.3-0.6,0.3c-0.2,0-0.3,0-0.5-0.1c-0.2-0.1-0.4-0.2-0.6-0.3c-0.4-0.2-0.8-0.4-1.1-0.5
			s-0.7-0.2-1.2-0.2c-0.6,0-1,0.1-1.3,0.3c-0.3,0.2-0.5,0.5-0.5,0.9c0,0.4,0.2,0.7,0.5,0.9c0.3,0.2,1,0.4,2,0.6
			c1,0.2,1.8,0.5,2.4,0.7c0.6,0.3,1,0.6,1.3,1c0.3,0.4,0.4,0.9,0.4,1.6c0,1-0.4,1.9-1.3,2.5s-2,0.9-3.5,0.9
			C164.8,221.4,163.5,221,162.4,220.4z"/>
		<path class="st7" d="M190.3,210.1c0.3,0.2,0.4,0.6,0.4,1v13c0,0.4-0.1,0.7-0.4,1s-0.6,0.4-1.1,0.4s-0.8-0.1-1-0.4
			c-0.3-0.2-0.4-0.5-0.4-0.9v-4.7c-0.3,0.6-0.8,1.1-1.5,1.4c-0.6,0.3-1.4,0.5-2.2,0.5c-1,0-1.8-0.2-2.6-0.7c-0.8-0.5-1.3-1.2-1.8-2
			c-0.4-0.9-0.6-1.9-0.6-3.1s0.2-2.2,0.6-3.1c0.4-0.9,1-1.6,1.8-2.1c0.8-0.5,1.6-0.7,2.6-0.7c0.8,0,1.5,0.2,2.2,0.5
			c0.6,0.3,1.1,0.8,1.5,1.5V211c0-0.4,0.1-0.7,0.4-1c0.3-0.2,0.6-0.4,1-0.4S190,209.8,190.3,210.1z M187,218.2
			c0.5-0.6,0.7-1.5,0.7-2.7c0-1.2-0.2-2.1-0.7-2.7c-0.5-0.6-1.2-0.9-2.1-0.9c-0.9,0-1.6,0.3-2.1,1c-0.5,0.6-0.8,1.5-0.8,2.7
			c0,1.1,0.3,2,0.8,2.6c0.5,0.6,1.2,0.9,2.1,0.9C185.8,219.1,186.5,218.8,187,218.2z"/>
		<path class="st7" d="M203.5,210.1c0.3,0.2,0.4,0.6,0.4,1v8.9c0,0.4-0.1,0.7-0.4,1c-0.3,0.2-0.6,0.4-1,0.4c-0.4,0-0.7-0.1-1-0.3
			c-0.2-0.2-0.4-0.5-0.4-0.9v-0.6c-0.4,0.6-0.8,1.1-1.4,1.4c-0.6,0.3-1.3,0.5-2,0.5c-2.8,0-4.1-1.5-4.1-4.6V211c0-0.4,0.1-0.7,0.4-1
			s0.6-0.4,1-0.4c0.4,0,0.8,0.1,1.1,0.4c0.3,0.2,0.4,0.6,0.4,1v5.7c0,0.8,0.2,1.4,0.5,1.8c0.3,0.4,0.8,0.6,1.5,0.6
			c0.8,0,1.4-0.3,1.9-0.8c0.5-0.5,0.7-1.2,0.7-2.1V211c0-0.4,0.1-0.7,0.4-1s0.6-0.4,1-0.4C202.9,209.7,203.3,209.8,203.5,210.1z"/>
		<path class="st7" d="M216.5,218.4c0.2,0.2,0.2,0.5,0.2,0.8c0,0.5-0.3,0.9-0.9,1.2c-0.5,0.3-1.1,0.5-1.8,0.7
			c-0.7,0.2-1.3,0.3-1.9,0.3c-1.8,0-3.2-0.5-4.3-1.6c-1.1-1-1.6-2.5-1.6-4.3c0-1.2,0.2-2.2,0.7-3.1c0.5-0.9,1.1-1.6,1.9-2.1
			c0.8-0.5,1.8-0.7,2.8-0.7c1,0,1.9,0.2,2.6,0.7c0.8,0.4,1.3,1.1,1.7,1.9c0.4,0.8,0.6,1.8,0.6,2.9c0,0.7-0.3,1-0.9,1h-6.8
			c0.1,1.1,0.4,1.8,0.9,2.3s1.2,0.7,2.2,0.7c0.5,0,0.9-0.1,1.3-0.2c0.4-0.1,0.8-0.3,1.3-0.5c0.5-0.2,0.8-0.4,1-0.4
			C216.1,218.1,216.3,218.2,216.5,218.4z M210,212.4c-0.5,0.5-0.7,1.2-0.8,2.1h5.2c0-0.9-0.3-1.6-0.7-2.1c-0.4-0.5-1-0.7-1.8-0.7
			C211.1,211.7,210.4,211.9,210,212.4z"/>
		<path class="st7" d="M223.6,220.1c0-0.4,0.1-0.6,0.3-0.8c0.2-0.2,0.5-0.3,0.9-0.3l0.7,0c0.6,0,1.1-0.2,1.4-0.6s0.5-0.9,0.5-1.7
			v-10.3c0-0.4,0.1-0.8,0.4-1.1c0.3-0.3,0.6-0.4,1.1-0.4c0.5,0,0.8,0.1,1.1,0.4c0.3,0.3,0.4,0.6,0.4,1.1v10.3c0,2.9-1.4,4.5-4.3,4.7
			l-0.7,0C224.1,221.4,223.6,220.9,223.6,220.1z"/>
		<path class="st7" d="M235.7,220.6c-0.9-0.5-1.5-1.2-2-2s-0.7-1.9-0.7-3.1c0-1.2,0.2-2.2,0.7-3.1s1.1-1.6,2-2
			c0.9-0.5,1.9-0.7,3-0.7s2.2,0.2,3,0.7c0.9,0.5,1.5,1.2,2,2s0.7,1.9,0.7,3.1c0,1.2-0.2,2.2-0.7,3.1s-1.1,1.6-2,2
			c-0.9,0.5-1.9,0.7-3,0.7S236.6,221.1,235.7,220.6z M240.9,218.2c0.5-0.6,0.7-1.5,0.7-2.7c0-1.2-0.2-2.1-0.7-2.7
			c-0.5-0.6-1.2-0.9-2.1-0.9s-1.6,0.3-2.1,0.9s-0.7,1.5-0.7,2.7c0,1.2,0.2,2.1,0.7,2.7c0.5,0.6,1.2,0.9,2.1,0.9
			C239.6,219.1,240.4,218.8,240.9,218.2z"/>
		<path class="st7" d="M254.1,209.9c0.2,0.2,0.3,0.5,0.3,0.9c0,0.4-0.1,0.7-0.3,0.9s-0.6,0.3-1.1,0.4l-0.7,0.1
			c-0.9,0.1-1.6,0.4-2,0.9c-0.4,0.5-0.6,1.2-0.6,2v4.8c0,0.4-0.1,0.8-0.4,1c-0.3,0.2-0.6,0.4-1,0.4s-0.8-0.1-1-0.4
			c-0.3-0.2-0.4-0.6-0.4-1V211c0-0.4,0.1-0.8,0.4-1c0.3-0.2,0.6-0.3,1-0.3s0.7,0.1,1,0.3s0.4,0.5,0.4,1v0.9c0.3-0.7,0.7-1.2,1.3-1.6
			s1.2-0.6,1.9-0.6l0.3,0C253.5,209.7,253.8,209.7,254.1,209.9z"/>
		<path class="st7" d="M266,210.1c0.3,0.2,0.4,0.6,0.4,1v9.1c0,1.8-0.5,3.1-1.5,4c-1,0.9-2.4,1.4-4.3,1.4c-1.7,0-3.1-0.3-4.2-0.9
			c-0.6-0.3-0.9-0.7-0.9-1.2c0-0.3,0.1-0.6,0.2-0.8c0.2-0.2,0.4-0.3,0.6-0.3c0.1,0,0.3,0,0.5,0.1s0.4,0.1,0.6,0.2
			c0.6,0.2,1,0.4,1.5,0.5c0.4,0.1,0.9,0.2,1.5,0.2c2,0,3-1,3-2.9v-1.5c-0.3,0.6-0.8,1.1-1.5,1.5c-0.6,0.3-1.4,0.5-2.2,0.5
			c-1,0-1.9-0.2-2.6-0.7s-1.4-1.1-1.8-2c-0.4-0.8-0.6-1.8-0.6-2.9c0-1.1,0.2-2.1,0.6-2.9s1-1.5,1.8-2c0.8-0.5,1.6-0.7,2.6-0.7
			c0.8,0,1.6,0.2,2.2,0.5c0.6,0.3,1.1,0.8,1.5,1.5V211c0-0.4,0.1-0.7,0.4-1s0.6-0.4,1-0.4C265.4,209.7,265.7,209.8,266,210.1z
			 M262.7,217.7c0.5-0.6,0.8-1.4,0.8-2.5c0-1.1-0.3-1.9-0.8-2.5c-0.5-0.6-1.2-0.9-2.2-0.9c-0.9,0-1.6,0.3-2.1,0.9
			c-0.5,0.6-0.8,1.4-0.8,2.5c0,1,0.3,1.9,0.8,2.5c0.5,0.6,1.2,0.9,2.1,0.9C261.5,218.6,262.2,218.3,262.7,217.7z"/>
		<path class="st7" d="M278.9,218.4c0.2,0.2,0.2,0.5,0.2,0.8c0,0.5-0.3,0.9-0.9,1.2c-0.5,0.3-1.1,0.5-1.8,0.7
			c-0.7,0.2-1.3,0.3-1.9,0.3c-1.8,0-3.2-0.5-4.3-1.6c-1.1-1-1.6-2.5-1.6-4.3c0-1.2,0.2-2.2,0.7-3.1c0.5-0.9,1.1-1.6,1.9-2.1
			c0.8-0.5,1.8-0.7,2.8-0.7c1,0,1.9,0.2,2.6,0.7c0.8,0.4,1.3,1.1,1.7,1.9c0.4,0.8,0.6,1.8,0.6,2.9c0,0.7-0.3,1-0.9,1h-6.8
			c0.1,1.1,0.4,1.8,0.9,2.3s1.2,0.7,2.2,0.7c0.5,0,0.9-0.1,1.3-0.2c0.4-0.1,0.8-0.3,1.3-0.5c0.5-0.2,0.8-0.4,1-0.4
			C278.5,218.1,278.7,218.2,278.9,218.4z M272.4,212.4c-0.5,0.5-0.7,1.2-0.8,2.1h5.2c0-0.9-0.3-1.6-0.7-2.1c-0.4-0.5-1-0.7-1.8-0.7
			C273.5,211.7,272.8,211.9,272.4,212.4z"/>
		<path class="st7" d="M281.7,220.8c-0.3-0.3-0.5-0.7-0.5-1.2c0-0.5,0.2-0.9,0.5-1.2c0.3-0.3,0.7-0.5,1.2-0.5c0.5,0,0.9,0.2,1.2,0.5
			c0.3,0.3,0.5,0.7,0.5,1.2c0,0.5-0.2,0.9-0.5,1.2c-0.3,0.3-0.7,0.5-1.2,0.5C282.4,221.3,282,221.1,281.7,220.8z"/>
	</g>
</g>
<g>
	<g>
		<path class="st7" d="M130.6,341.4c-0.3-0.3-0.4-0.6-0.4-1.1v-13.5c0-0.4,0.1-0.8,0.4-1c0.3-0.2,0.6-0.4,1-0.4h5.7
			c1.7,0,3.1,0.4,4,1.3c1,0.9,1.4,2.1,1.4,3.6c0,1.6-0.5,2.8-1.4,3.7c-1,0.9-2.3,1.3-4,1.3h-4.1v4.9c0,0.5-0.1,0.8-0.4,1.1
			c-0.3,0.3-0.6,0.4-1.1,0.4C131.2,341.8,130.8,341.7,130.6,341.4z M136.9,333.1c2,0,3.1-0.9,3.1-2.7s-1-2.7-3.1-2.7h-3.7v5.3H136.9
			z"/>
		<path class="st7" d="M153.1,331.3c0.8,0.8,1.1,2,1.1,3.5v5.6c0,0.4-0.1,0.7-0.4,1c-0.2,0.2-0.6,0.4-1,0.4c-0.4,0-0.7-0.1-1-0.4
			s-0.4-0.6-0.4-1v-0.5c-0.3,0.6-0.7,1.1-1.2,1.4s-1.2,0.5-1.9,0.5c-0.8,0-1.4-0.2-2-0.5s-1.1-0.7-1.4-1.3s-0.5-1.1-0.5-1.8
			c0-0.8,0.2-1.5,0.6-2s1.1-0.8,2.1-1s2.3-0.3,3.9-0.3h0.6v-0.5c0-0.8-0.2-1.3-0.5-1.6c-0.3-0.3-0.8-0.5-1.6-0.5
			c-0.4,0-0.9,0.1-1.4,0.2s-1,0.3-1.6,0.6c-0.4,0.2-0.7,0.3-0.9,0.3c-0.3,0-0.5-0.1-0.7-0.3c-0.2-0.2-0.3-0.5-0.3-0.8
			c0-0.3,0.1-0.5,0.2-0.7c0.1-0.2,0.3-0.4,0.7-0.5c0.5-0.3,1.2-0.5,1.9-0.7c0.7-0.2,1.5-0.3,2.2-0.3
			C151.2,330.1,152.4,330.5,153.1,331.3z M150.8,339c0.5-0.5,0.7-1.2,0.7-2v-0.5h-0.4c-1,0-1.8,0-2.4,0.1s-1,0.3-1.2,0.5
			c-0.2,0.2-0.4,0.5-0.4,0.9c0,0.5,0.2,0.9,0.5,1.2s0.8,0.5,1.3,0.5C149.7,339.8,150.3,339.5,150.8,339z"/>
		<path class="st7" d="M164.2,340.7c0,0.4-0.1,0.6-0.4,0.8c-0.3,0.2-0.7,0.3-1.3,0.2l-0.6,0c-2.6-0.2-3.9-1.6-3.9-4.1v-5h-1.2
			c-0.4,0-0.7-0.1-1-0.3c-0.2-0.2-0.3-0.5-0.3-0.8s0.1-0.6,0.3-0.8c0.2-0.2,0.5-0.3,1-0.3h1.2v-2.1c0-0.4,0.1-0.7,0.4-1
			c0.3-0.2,0.6-0.4,1.1-0.4c0.4,0,0.8,0.1,1,0.4c0.3,0.2,0.4,0.6,0.4,1v2.1h2c0.4,0,0.7,0.1,1,0.3c0.2,0.2,0.3,0.5,0.3,0.8
			s-0.1,0.6-0.3,0.8c-0.2,0.2-0.5,0.3-1,0.3h-2v5.2c0,1.1,0.5,1.7,1.6,1.8l0.6,0C163.8,339.7,164.2,340,164.2,340.7z"/>
		<path class="st7" d="M174.2,330.4c0.2-0.1,0.4-0.2,0.7-0.2c0.4,0,0.7,0.1,1,0.4c0.3,0.2,0.4,0.5,0.4,0.9c0,0.2,0,0.3-0.1,0.5
			l-6.3,13.2c-0.3,0.5-0.7,0.8-1.2,0.8c-0.4,0-0.7-0.1-0.9-0.3c-0.3-0.2-0.4-0.5-0.4-0.8c0-0.2,0-0.4,0.1-0.6l1.6-3.3l-4.3-8.9
			c-0.1-0.2-0.1-0.3-0.1-0.5c0-0.4,0.1-0.7,0.4-0.9s0.6-0.4,1-0.4c0.3,0,0.5,0.1,0.7,0.2c0.2,0.1,0.4,0.3,0.5,0.6l3.2,7.1l3.2-7.1
			C173.8,330.7,174,330.5,174.2,330.4z"/>
		<path class="st7" d="M191.2,340.7c0,0.4-0.1,0.6-0.4,0.8s-0.7,0.3-1.3,0.2l-0.6,0c-2.6-0.2-3.9-1.6-3.9-4.1v-5h-1.1
			c-0.4,0-0.7-0.1-1-0.3c-0.2-0.2-0.3-0.5-0.3-0.8s0.1-0.6,0.3-0.8c0.2-0.2,0.5-0.3,1-0.3h1.1v-2.1c0-0.4,0.1-0.7,0.4-1
			c0.3-0.2,0.6-0.4,1.1-0.4c0.4,0,0.8,0.1,1,0.4c0.3,0.2,0.4,0.6,0.4,1v2.1h2c0.4,0,0.7,0.1,1,0.3c0.2,0.2,0.3,0.5,0.3,0.8
			s-0.1,0.6-0.3,0.8c-0.2,0.2-0.5,0.3-1,0.3h-2v5.2c0,1.1,0.5,1.7,1.6,1.8l0.6,0C190.8,339.7,191.2,340,191.2,340.7z"/>
		<path class="st7" d="M192.9,327.7c-0.3-0.3-0.5-0.7-0.5-1.1s0.2-0.8,0.5-1.1c0.3-0.3,0.7-0.4,1.2-0.4c0.5,0,0.9,0.1,1.2,0.4
			c0.3,0.3,0.5,0.6,0.5,1.1s-0.2,0.8-0.5,1.1c-0.3,0.3-0.7,0.4-1.2,0.4S193.2,328,192.9,327.7z M193.1,341.4c-0.3-0.2-0.4-0.6-0.4-1
			v-8.9c0-0.4,0.1-0.8,0.4-1c0.3-0.2,0.6-0.3,1-0.3s0.8,0.1,1,0.3c0.3,0.2,0.4,0.6,0.4,1v8.9c0,0.4-0.1,0.8-0.4,1
			c-0.3,0.2-0.6,0.4-1,0.4S193.4,341.7,193.1,341.4z"/>
		<path class="st7" d="M208.1,338.9c0.2,0.2,0.2,0.5,0.2,0.8c0,0.5-0.3,0.9-0.9,1.2c-0.5,0.3-1.1,0.5-1.8,0.7
			c-0.7,0.2-1.3,0.3-1.9,0.3c-1.8,0-3.2-0.5-4.3-1.6c-1.1-1-1.6-2.5-1.6-4.3c0-1.2,0.2-2.2,0.7-3.1c0.5-0.9,1.1-1.6,1.9-2.1
			c0.8-0.5,1.8-0.7,2.8-0.7c1,0,1.9,0.2,2.6,0.7c0.8,0.4,1.3,1.1,1.7,1.9c0.4,0.8,0.6,1.8,0.6,2.9c0,0.7-0.3,1-0.9,1h-6.8
			c0.1,1.1,0.4,1.8,0.9,2.3s1.2,0.7,2.2,0.7c0.5,0,0.9-0.1,1.3-0.2s0.8-0.3,1.3-0.5c0.5-0.2,0.8-0.4,1-0.4
			C207.7,338.6,207.9,338.7,208.1,338.9z M201.6,332.9c-0.5,0.5-0.7,1.2-0.8,2.1h5.2c0-0.9-0.3-1.6-0.7-2.1c-0.4-0.5-1-0.7-1.8-0.7
			C202.7,332.2,202,332.4,201.6,332.9z"/>
		<path class="st7" d="M220.3,331.3c0.7,0.8,1,1.9,1,3.5v5.7c0,0.4-0.1,0.8-0.4,1s-0.6,0.4-1,0.4c-0.4,0-0.8-0.1-1.1-0.4
			s-0.4-0.6-0.4-1v-5.5c0-0.9-0.2-1.5-0.5-1.9c-0.3-0.4-0.8-0.6-1.6-0.6c-0.8,0-1.5,0.3-2,0.8c-0.5,0.5-0.7,1.2-0.7,2.1v5.1
			c0,0.4-0.1,0.8-0.4,1s-0.6,0.4-1.1,0.4c-0.4,0-0.8-0.1-1-0.4s-0.4-0.6-0.4-1v-8.9c0-0.4,0.1-0.7,0.4-1c0.3-0.2,0.6-0.4,1.1-0.4
			c0.4,0,0.7,0.1,1,0.4c0.3,0.2,0.4,0.5,0.4,0.9v0.6c0.4-0.6,0.9-1.1,1.5-1.4c0.6-0.3,1.4-0.5,2.2-0.5
			C218.6,330.1,219.6,330.5,220.3,331.3z"/>
		<path class="st7" d="M233.7,338.9c0.2,0.2,0.2,0.5,0.2,0.8c0,0.5-0.3,0.9-0.9,1.2c-0.5,0.3-1.1,0.5-1.8,0.7
			c-0.7,0.2-1.3,0.3-1.9,0.3c-1.8,0-3.2-0.5-4.3-1.6c-1.1-1-1.6-2.5-1.6-4.3c0-1.2,0.2-2.2,0.7-3.1c0.5-0.9,1.1-1.6,1.9-2.1
			c0.8-0.5,1.8-0.7,2.8-0.7c1,0,1.9,0.2,2.6,0.7c0.8,0.4,1.3,1.1,1.7,1.9c0.4,0.8,0.6,1.8,0.6,2.9c0,0.7-0.3,1-0.9,1h-6.8
			c0.1,1.1,0.4,1.8,0.9,2.3s1.2,0.7,2.2,0.7c0.5,0,0.9-0.1,1.3-0.2c0.4-0.1,0.8-0.3,1.3-0.5c0.5-0.2,0.8-0.4,1-0.4
			C233.4,338.6,233.6,338.7,233.7,338.9z M227.2,332.9c-0.5,0.5-0.7,1.2-0.8,2.1h5.2c0-0.9-0.3-1.6-0.7-2.1c-0.4-0.5-1-0.7-1.8-0.7
			C228.3,332.2,227.7,332.4,227.2,332.9z"/>
		<path class="st7" d="M254.1,340.4c0,0.8-0.5,1.2-1.4,1.2h-7.8c-0.9,0-1.4-0.4-1.4-1.2c0-0.8,0.5-1.2,1.4-1.2h2.4v-10.5l-2.2,1.4
			c-0.2,0.1-0.4,0.2-0.6,0.2c-0.3,0-0.6-0.1-0.8-0.4c-0.2-0.3-0.3-0.6-0.3-0.9c0-0.4,0.2-0.8,0.6-1l3.6-2.2c0.5-0.3,0.9-0.4,1.3-0.4
			c0.4,0,0.8,0.1,1,0.4s0.4,0.6,0.4,1.1v12.5h2.4C253.6,339.3,254.1,339.7,254.1,340.4z"/>
		<path class="st7" d="M265.4,331.9c0.8,0.4,1.4,1,1.8,1.8c0.4,0.8,0.6,1.7,0.6,2.7c0,1.1-0.2,2-0.7,2.8c-0.5,0.8-1.2,1.4-2,1.9
			c-0.9,0.5-1.9,0.7-3,0.7c-1,0-1.9-0.2-2.8-0.5c-0.9-0.3-1.7-0.7-2.3-1.3c-0.4-0.3-0.5-0.7-0.5-1.1c0-0.3,0.1-0.6,0.3-0.9
			c0.2-0.2,0.4-0.4,0.7-0.4c0.2,0,0.3,0,0.4,0.1c0.1,0.1,0.3,0.1,0.5,0.3c0.6,0.4,1.2,0.8,1.8,1c0.6,0.2,1.2,0.3,1.9,0.3
			c1,0,1.8-0.3,2.3-0.8c0.5-0.5,0.8-1.2,0.8-2.2c0-0.9-0.3-1.6-0.8-2.2c-0.5-0.5-1.3-0.8-2.2-0.8c-0.6,0-1.1,0.1-1.6,0.3
			s-0.9,0.5-1.4,0.9c-0.3,0.2-0.6,0.3-0.9,0.3s-0.6-0.1-0.8-0.3c-0.2-0.2-0.3-0.4-0.3-0.7v-7.2c0-0.4,0.1-0.8,0.4-1
			c0.2-0.2,0.6-0.4,1-0.4h7.7c0.9,0,1.4,0.4,1.4,1.1c0,0.8-0.5,1.2-1.4,1.2h-6.2v4.4c0.8-0.6,1.7-0.8,2.9-0.8
			C263.7,331.3,264.6,331.5,265.4,331.9z"/>
		<path class="st7" d="M284.8,331.3c0.8,0.8,1.1,2,1.1,3.5v5.6c0,0.4-0.1,0.7-0.4,1c-0.2,0.2-0.6,0.4-1,0.4c-0.4,0-0.7-0.1-1-0.4
			c-0.3-0.2-0.4-0.6-0.4-1v-0.5c-0.3,0.6-0.7,1.1-1.2,1.4s-1.2,0.5-1.9,0.5c-0.8,0-1.4-0.2-2-0.5c-0.6-0.3-1.1-0.7-1.4-1.3
			c-0.4-0.5-0.5-1.1-0.5-1.8c0-0.8,0.2-1.5,0.6-2c0.4-0.5,1.1-0.8,2.1-1c1-0.2,2.3-0.3,3.9-0.3h0.6v-0.5c0-0.8-0.2-1.3-0.5-1.6
			c-0.3-0.3-0.8-0.5-1.6-0.5c-0.4,0-0.9,0.1-1.4,0.2s-1,0.3-1.6,0.6c-0.4,0.2-0.7,0.3-0.9,0.3c-0.3,0-0.5-0.1-0.7-0.3
			c-0.2-0.2-0.3-0.5-0.3-0.8c0-0.3,0.1-0.5,0.2-0.7c0.1-0.2,0.3-0.4,0.7-0.5c0.5-0.3,1.2-0.5,1.9-0.7c0.7-0.2,1.5-0.3,2.2-0.3
			C282.9,330.1,284.1,330.5,284.8,331.3z M282.5,339c0.5-0.5,0.7-1.2,0.7-2v-0.5h-0.4c-1,0-1.8,0-2.4,0.1c-0.6,0.1-1,0.3-1.2,0.5
			c-0.2,0.2-0.4,0.5-0.4,0.9c0,0.5,0.2,0.9,0.5,1.2c0.3,0.3,0.8,0.5,1.3,0.5C281.4,339.8,282,339.5,282.5,339z"/>
		<path class="st7" d="M298.4,331.3c0.7,0.8,1,1.9,1,3.5v5.7c0,0.4-0.1,0.8-0.4,1s-0.6,0.4-1,0.4s-0.8-0.1-1.1-0.4s-0.4-0.6-0.4-1
			v-5.5c0-0.9-0.2-1.5-0.5-1.9c-0.3-0.4-0.8-0.6-1.6-0.6c-0.8,0-1.5,0.3-2,0.8s-0.7,1.2-0.7,2.1v5.1c0,0.4-0.1,0.8-0.4,1
			s-0.6,0.4-1.1,0.4c-0.4,0-0.8-0.1-1-0.4s-0.4-0.6-0.4-1v-8.9c0-0.4,0.1-0.7,0.4-1s0.6-0.4,1.1-0.4c0.4,0,0.7,0.1,1,0.4
			c0.3,0.2,0.4,0.5,0.4,0.9v0.6c0.4-0.6,0.9-1.1,1.5-1.4c0.6-0.3,1.4-0.5,2.2-0.5C296.8,330.1,297.8,330.5,298.4,331.3z M295,328
			c-0.3-0.1-0.6-0.3-1-0.6c-0.3-0.2-0.6-0.3-0.8-0.4s-0.4-0.1-0.6-0.1c-0.2,0-0.4,0.1-0.6,0.2c-0.1,0.1-0.3,0.3-0.4,0.5
			c-0.1,0.2-0.2,0.3-0.3,0.4c-0.1,0.1-0.2,0.1-0.3,0.1c-0.2,0-0.3-0.1-0.4-0.2s-0.2-0.3-0.2-0.6c0-0.3,0.1-0.6,0.3-1s0.4-0.7,0.8-1
			c0.3-0.3,0.7-0.4,1.1-0.4c0.3,0,0.5,0.1,0.8,0.2c0.3,0.1,0.6,0.3,1,0.6c0.3,0.2,0.6,0.3,0.8,0.4c0.2,0.1,0.4,0.1,0.6,0.1
			c0.2,0,0.4-0.1,0.6-0.2c0.1-0.1,0.3-0.3,0.4-0.5c0.1-0.2,0.2-0.3,0.3-0.4s0.2-0.1,0.3-0.1c0.2,0,0.3,0.1,0.4,0.2
			c0.1,0.1,0.2,0.3,0.2,0.6c0,0.3-0.1,0.6-0.3,1s-0.4,0.7-0.8,1c-0.3,0.3-0.7,0.4-1.1,0.4C295.6,328.2,295.3,328.2,295,328z"/>
		<path class="st7" d="M304.5,341.1c-0.9-0.5-1.5-1.2-2-2s-0.7-1.9-0.7-3.1c0-1.2,0.2-2.2,0.7-3.1s1.1-1.6,2-2
			c0.9-0.5,1.9-0.7,3-0.7c1.2,0,2.2,0.2,3,0.7c0.9,0.5,1.5,1.2,2,2s0.7,1.9,0.7,3.1c0,1.2-0.2,2.2-0.7,3.1s-1.1,1.6-2,2
			c-0.9,0.5-1.9,0.7-3,0.7C306.3,341.8,305.3,341.6,304.5,341.1z M309.6,338.7c0.5-0.6,0.7-1.5,0.7-2.7c0-1.2-0.2-2.1-0.7-2.7
			c-0.5-0.6-1.2-0.9-2.1-0.9s-1.6,0.3-2.1,0.9c-0.5,0.6-0.7,1.5-0.7,2.7c0,1.2,0.2,2.1,0.7,2.7c0.5,0.6,1.2,0.9,2.1,0.9
			C308.4,339.6,309.1,339.3,309.6,338.7z"/>
		<path class="st7" d="M315.6,340.9c-0.5-0.3-0.7-0.7-0.7-1.2c0-0.3,0.1-0.6,0.3-0.7c0.2-0.2,0.4-0.3,0.6-0.3c0.3,0,0.6,0.1,1.1,0.4
			c0.5,0.2,0.9,0.4,1.3,0.5c0.4,0.1,0.9,0.2,1.6,0.2c0.6,0,1.1-0.1,1.5-0.3c0.4-0.2,0.5-0.5,0.5-0.9c0-0.3-0.1-0.5-0.2-0.6
			s-0.4-0.3-0.8-0.4c-0.4-0.1-0.9-0.3-1.7-0.4c-1.4-0.3-2.3-0.7-2.9-1.2c-0.6-0.5-0.9-1.2-0.9-2.1c0-0.7,0.2-1.3,0.6-1.8
			c0.4-0.5,0.9-1,1.6-1.3c0.7-0.3,1.5-0.4,2.4-0.4c0.6,0,1.3,0.1,1.9,0.2c0.6,0.2,1.1,0.4,1.6,0.7c0.5,0.3,0.7,0.7,0.7,1.2
			c0,0.3-0.1,0.6-0.3,0.8s-0.4,0.3-0.6,0.3c-0.2,0-0.3,0-0.5-0.1s-0.4-0.2-0.6-0.3c-0.4-0.2-0.8-0.4-1.2-0.5
			c-0.3-0.1-0.7-0.2-1.2-0.2c-0.6,0-1,0.1-1.3,0.3c-0.3,0.2-0.5,0.5-0.5,0.9c0,0.4,0.2,0.7,0.5,0.9c0.3,0.2,1,0.4,2,0.6
			c1,0.2,1.8,0.5,2.4,0.7c0.6,0.3,1,0.6,1.3,1s0.4,0.9,0.4,1.6c0,1-0.4,1.9-1.3,2.5s-2,0.9-3.5,0.9
			C318,341.8,316.6,341.5,315.6,340.9z"/>
		<path class="st7" d="M146.1,356.2c0.7,0.7,1,1.9,1,3.5v5.7c0,0.4-0.1,0.8-0.4,1c-0.3,0.2-0.6,0.4-1,0.4c-0.4,0-0.8-0.1-1-0.4
			s-0.4-0.6-0.4-1v-5.7c0-0.8-0.1-1.4-0.4-1.8c-0.3-0.4-0.8-0.5-1.4-0.5c-0.8,0-1.3,0.3-1.8,0.8s-0.7,1.2-0.7,2.1v5.1
			c0,0.4-0.1,0.8-0.4,1s-0.6,0.4-1,0.4s-0.8-0.1-1-0.4c-0.3-0.2-0.4-0.6-0.4-1v-5.7c0-0.8-0.1-1.4-0.4-1.8c-0.3-0.4-0.8-0.5-1.4-0.5
			c-0.8,0-1.3,0.3-1.8,0.8c-0.4,0.5-0.7,1.2-0.7,2.1v5.1c0,0.4-0.1,0.8-0.4,1c-0.3,0.2-0.6,0.4-1,0.4s-0.8-0.1-1-0.4s-0.4-0.6-0.4-1
			v-8.9c0-0.4,0.1-0.8,0.4-1c0.3-0.2,0.6-0.3,1-0.3c0.4,0,0.7,0.1,1,0.3s0.4,0.5,0.4,1v0.6c0.4-0.6,0.8-1.1,1.4-1.4
			c0.6-0.3,1.3-0.5,2-0.5c1.7,0,2.8,0.7,3.4,2.1c0.3-0.6,0.8-1.2,1.5-1.5c0.7-0.4,1.4-0.6,2.2-0.6
			C144.5,355.1,145.4,355.5,146.1,356.2z"/>
		<path class="st7" d="M158.3,356.3c0.8,0.8,1.1,2,1.1,3.5v5.6c0,0.4-0.1,0.7-0.4,1c-0.2,0.2-0.6,0.4-1,0.4c-0.4,0-0.7-0.1-1-0.4
			c-0.3-0.2-0.4-0.6-0.4-1v-0.5c-0.3,0.6-0.7,1.1-1.2,1.4s-1.2,0.5-1.9,0.5c-0.8,0-1.4-0.2-2-0.5c-0.6-0.3-1.1-0.7-1.4-1.3
			c-0.4-0.5-0.5-1.1-0.5-1.8c0-0.8,0.2-1.5,0.6-2c0.4-0.5,1.1-0.8,2.1-1c1-0.2,2.3-0.3,3.9-0.3h0.6v-0.5c0-0.8-0.2-1.3-0.5-1.6
			c-0.3-0.3-0.8-0.5-1.6-0.5c-0.4,0-0.9,0.1-1.4,0.2s-1,0.3-1.6,0.6c-0.4,0.2-0.7,0.3-0.9,0.3c-0.3,0-0.5-0.1-0.7-0.3
			c-0.2-0.2-0.3-0.5-0.3-0.8c0-0.3,0.1-0.5,0.2-0.7c0.1-0.2,0.3-0.4,0.7-0.5c0.5-0.3,1.2-0.5,1.9-0.7c0.7-0.2,1.5-0.3,2.2-0.3
			C156.4,355.1,157.6,355.5,158.3,356.3z M156,364c0.5-0.5,0.7-1.2,0.7-2v-0.5h-0.4c-1,0-1.8,0-2.4,0.1c-0.6,0.1-1,0.3-1.2,0.5
			c-0.2,0.2-0.4,0.5-0.4,0.9c0,0.5,0.2,0.9,0.5,1.2c0.3,0.3,0.8,0.5,1.3,0.5C154.9,364.8,155.5,364.5,156,364z M154.9,354.1
			c-0.2,0-0.4-0.1-0.5-0.2c-0.1-0.1-0.2-0.3-0.2-0.5c0-0.2,0.1-0.3,0.2-0.5l2.2-3c0.4-0.5,0.8-0.7,1.2-0.7c0.3,0,0.6,0.1,0.9,0.4
			c0.2,0.2,0.4,0.5,0.4,0.8c0,0.4-0.2,0.8-0.6,1.1l-3,2.4C155.3,354,155.1,354.1,154.9,354.1z"/>
		<path class="st7" d="M162.4,365.9c-0.5-0.3-0.7-0.7-0.7-1.2c0-0.3,0.1-0.6,0.3-0.7c0.2-0.2,0.4-0.3,0.6-0.3c0.3,0,0.6,0.1,1.1,0.4
			c0.5,0.2,0.9,0.4,1.3,0.5c0.4,0.1,0.9,0.2,1.6,0.2c0.6,0,1.1-0.1,1.5-0.3c0.4-0.2,0.5-0.5,0.5-0.9c0-0.3-0.1-0.5-0.2-0.6
			s-0.4-0.3-0.8-0.4c-0.4-0.1-0.9-0.3-1.7-0.4c-1.4-0.3-2.3-0.7-2.9-1.2c-0.6-0.5-0.9-1.2-0.9-2.1c0-0.7,0.2-1.3,0.6-1.8
			c0.4-0.5,0.9-1,1.6-1.3c0.7-0.3,1.5-0.4,2.4-0.4c0.6,0,1.3,0.1,1.9,0.2c0.6,0.2,1.1,0.4,1.6,0.7c0.5,0.3,0.7,0.7,0.7,1.2
			c0,0.3-0.1,0.6-0.3,0.8s-0.4,0.3-0.6,0.3c-0.2,0-0.3,0-0.5-0.1s-0.4-0.2-0.6-0.3c-0.4-0.2-0.8-0.4-1.2-0.5
			c-0.3-0.1-0.7-0.2-1.2-0.2c-0.6,0-1,0.1-1.3,0.3c-0.3,0.2-0.5,0.5-0.5,0.9c0,0.4,0.2,0.7,0.5,0.9c0.3,0.2,1,0.4,2,0.6
			c1,0.2,1.8,0.5,2.4,0.7c0.6,0.3,1,0.6,1.3,1s0.4,0.9,0.4,1.6c0,1-0.4,1.9-1.3,2.5s-2,0.9-3.5,0.9
			C164.8,366.8,163.5,366.5,162.4,365.9z"/>
		<path class="st7" d="M190.3,355.6c0.3,0.2,0.4,0.6,0.4,1v13c0,0.4-0.1,0.7-0.4,1c-0.3,0.2-0.6,0.4-1.1,0.4c-0.4,0-0.8-0.1-1-0.4
			c-0.3-0.2-0.4-0.5-0.4-0.9v-4.7c-0.3,0.6-0.8,1.1-1.5,1.4c-0.6,0.3-1.4,0.5-2.2,0.5c-1,0-1.8-0.2-2.6-0.7c-0.8-0.5-1.3-1.2-1.8-2
			c-0.4-0.9-0.6-1.9-0.6-3.1s0.2-2.2,0.6-3.1c0.4-0.9,1-1.6,1.8-2.1c0.8-0.5,1.6-0.7,2.6-0.7c0.8,0,1.5,0.2,2.2,0.5s1.1,0.8,1.5,1.5
			v-0.6c0-0.4,0.1-0.7,0.4-1s0.6-0.4,1-0.4C189.6,355.2,190,355.3,190.3,355.6z M187,363.7c0.5-0.6,0.7-1.5,0.7-2.7
			c0-1.2-0.2-2.1-0.7-2.7c-0.5-0.6-1.2-0.9-2.1-0.9c-0.9,0-1.6,0.3-2.1,1c-0.5,0.6-0.8,1.5-0.8,2.7c0,1.1,0.3,2,0.8,2.6
			s1.2,0.9,2.1,0.9C185.8,364.6,186.5,364.3,187,363.7z"/>
		<path class="st7" d="M203.5,355.6c0.3,0.2,0.4,0.6,0.4,1v8.9c0,0.4-0.1,0.7-0.4,1c-0.3,0.2-0.6,0.4-1,0.4c-0.4,0-0.7-0.1-1-0.3
			c-0.2-0.2-0.4-0.5-0.4-0.9v-0.6c-0.4,0.6-0.8,1.1-1.4,1.4c-0.6,0.3-1.3,0.5-2,0.5c-2.8,0-4.1-1.5-4.1-4.6v-5.7
			c0-0.4,0.1-0.7,0.4-1s0.6-0.4,1-0.4c0.4,0,0.8,0.1,1.1,0.4s0.4,0.6,0.4,1v5.7c0,0.8,0.2,1.4,0.5,1.8c0.3,0.4,0.8,0.6,1.5,0.6
			c0.8,0,1.4-0.3,1.9-0.8s0.7-1.2,0.7-2.1v-5.1c0-0.4,0.1-0.7,0.4-1s0.6-0.4,1-0.4C202.9,355.2,203.3,355.3,203.5,355.6z"/>
		<path class="st7" d="M216.5,363.9c0.2,0.2,0.2,0.5,0.2,0.8c0,0.5-0.3,0.9-0.9,1.2c-0.5,0.3-1.1,0.5-1.8,0.7
			c-0.7,0.2-1.3,0.3-1.9,0.3c-1.8,0-3.2-0.5-4.3-1.6c-1.1-1-1.6-2.5-1.6-4.3c0-1.2,0.2-2.2,0.7-3.1c0.5-0.9,1.1-1.6,1.9-2.1
			c0.8-0.5,1.8-0.7,2.8-0.7c1,0,1.9,0.2,2.6,0.7c0.8,0.4,1.3,1.1,1.7,1.9c0.4,0.8,0.6,1.8,0.6,2.9c0,0.7-0.3,1-0.9,1h-6.8
			c0.1,1.1,0.4,1.8,0.9,2.3s1.2,0.7,2.2,0.7c0.5,0,0.9-0.1,1.3-0.2c0.4-0.1,0.8-0.3,1.3-0.5c0.5-0.2,0.8-0.4,1-0.4
			C216.1,363.6,216.3,363.7,216.5,363.9z M210,357.9c-0.5,0.5-0.7,1.2-0.8,2.1h5.2c0-0.9-0.3-1.6-0.7-2.1c-0.4-0.5-1-0.7-1.8-0.7
			C211.1,357.2,210.4,357.4,210,357.9z"/>
		<path class="st7" d="M226,366.3c-0.3-0.2-0.4-0.6-0.4-1v-13.4c0-0.4,0.1-0.8,0.4-1c0.3-0.2,0.6-0.4,1-0.4h8.3c0.4,0,0.8,0.1,1,0.3
			c0.2,0.2,0.4,0.5,0.4,0.9c0,0.4-0.1,0.7-0.4,0.9c-0.2,0.2-0.6,0.3-1,0.3h-6.8v4.5h6.4c0.4,0,0.8,0.1,1,0.3s0.4,0.5,0.4,0.9
			c0,0.4-0.1,0.7-0.4,0.9s-0.6,0.3-1,0.3h-6.4v4.7h6.8c0.4,0,0.8,0.1,1,0.3c0.2,0.2,0.4,0.5,0.4,0.9c0,0.4-0.1,0.7-0.4,0.9
			c-0.2,0.2-0.6,0.3-1,0.3h-8.3C226.6,366.7,226.3,366.5,226,366.3z"/>
		<path class="st7" d="M249.4,350.7c0.3,0.2,0.4,0.6,0.4,1v13.8c0,0.4-0.1,0.7-0.4,1s-0.6,0.4-1,0.4c-0.4,0-0.8-0.1-1-0.4
			c-0.3-0.2-0.4-0.6-0.4-1v-0.6c-0.3,0.6-0.8,1.1-1.5,1.5c-0.6,0.4-1.4,0.5-2.2,0.5c-1,0-1.8-0.2-2.6-0.7c-0.8-0.5-1.3-1.2-1.8-2.1
			c-0.4-0.9-0.6-1.9-0.6-3.1c0-1.2,0.2-2.2,0.6-3.1s1-1.5,1.8-2c0.8-0.5,1.6-0.7,2.6-0.7c0.8,0,1.5,0.2,2.2,0.5
			c0.6,0.3,1.1,0.8,1.4,1.4v-5.5c0-0.4,0.1-0.7,0.4-0.9c0.3-0.2,0.6-0.4,1-0.4C248.7,350.3,249.1,350.5,249.4,350.7z M246.2,363.7
			c0.5-0.6,0.7-1.5,0.7-2.7c0-1.2-0.2-2.1-0.7-2.7c-0.5-0.6-1.2-0.9-2.1-0.9c-0.9,0-1.6,0.3-2.1,0.9c-0.5,0.6-0.8,1.5-0.8,2.6
			c0,1.2,0.3,2.1,0.8,2.7c0.5,0.6,1.2,1,2.1,1C245,364.6,245.7,364.3,246.2,363.7z"/>
		<path class="st7" d="M262.7,355.6c0.3,0.2,0.4,0.6,0.4,1v8.9c0,0.4-0.1,0.7-0.4,1s-0.6,0.4-1,0.4c-0.4,0-0.7-0.1-1-0.3
			c-0.2-0.2-0.4-0.5-0.4-0.9v-0.6c-0.4,0.6-0.8,1.1-1.4,1.4c-0.6,0.3-1.3,0.5-2,0.5c-2.8,0-4.1-1.5-4.1-4.6v-5.7
			c0-0.4,0.1-0.7,0.4-1s0.6-0.4,1-0.4c0.4,0,0.8,0.1,1.1,0.4c0.3,0.2,0.4,0.6,0.4,1v5.7c0,0.8,0.2,1.4,0.5,1.8
			c0.3,0.4,0.8,0.6,1.5,0.6c0.8,0,1.4-0.3,1.9-0.8c0.5-0.5,0.7-1.2,0.7-2.1v-5.1c0-0.4,0.1-0.7,0.4-1s0.6-0.4,1-0.4
			C262.1,355.2,262.4,355.3,262.7,355.6z"/>
		<path class="st7" d="M274.4,356.3c0.8,0.8,1.1,2,1.1,3.5v5.6c0,0.4-0.1,0.7-0.4,1c-0.2,0.2-0.6,0.4-1,0.4c-0.4,0-0.7-0.1-1-0.4
			s-0.4-0.6-0.4-1v-0.5c-0.3,0.6-0.7,1.1-1.2,1.4s-1.2,0.5-1.9,0.5c-0.8,0-1.4-0.2-2-0.5s-1.1-0.7-1.4-1.3s-0.5-1.1-0.5-1.8
			c0-0.8,0.2-1.5,0.6-2s1.1-0.8,2.1-1s2.3-0.3,3.9-0.3h0.6v-0.5c0-0.8-0.2-1.3-0.5-1.6c-0.3-0.3-0.8-0.5-1.6-0.5
			c-0.4,0-0.9,0.1-1.4,0.2s-1,0.3-1.6,0.6c-0.4,0.2-0.7,0.3-0.9,0.3c-0.3,0-0.5-0.1-0.7-0.3c-0.2-0.2-0.3-0.5-0.3-0.8
			c0-0.3,0.1-0.5,0.2-0.7c0.1-0.2,0.3-0.4,0.7-0.5c0.5-0.3,1.2-0.5,1.9-0.7c0.7-0.2,1.5-0.3,2.2-0.3
			C272.5,355.1,273.7,355.5,274.4,356.3z M272.1,364c0.5-0.5,0.7-1.2,0.7-2v-0.5h-0.4c-1,0-1.8,0-2.4,0.1s-1,0.3-1.2,0.5
			c-0.2,0.2-0.4,0.5-0.4,0.9c0,0.5,0.2,0.9,0.5,1.2s0.8,0.5,1.3,0.5C271,364.8,271.6,364.5,272.1,364z"/>
		<path class="st7" d="M285.7,355.4c0.2,0.2,0.3,0.5,0.3,0.9c0,0.4-0.1,0.7-0.3,0.9c-0.2,0.2-0.6,0.3-1.1,0.4l-0.7,0.1
			c-0.9,0.1-1.6,0.4-2,0.9c-0.4,0.5-0.6,1.2-0.6,2v4.8c0,0.4-0.1,0.8-0.4,1c-0.3,0.2-0.6,0.4-1,0.4s-0.8-0.1-1-0.4s-0.4-0.6-0.4-1
			v-8.9c0-0.4,0.1-0.8,0.4-1c0.3-0.2,0.6-0.3,1-0.3c0.4,0,0.7,0.1,1,0.3s0.4,0.5,0.4,1v0.9c0.3-0.7,0.7-1.2,1.3-1.6
			c0.6-0.4,1.2-0.6,1.9-0.6l0.3,0C285.2,355.2,285.5,355.2,285.7,355.4z"/>
		<path class="st7" d="M297.5,350.7c0.3,0.2,0.4,0.6,0.4,1v13.8c0,0.4-0.1,0.7-0.4,1s-0.6,0.4-1,0.4c-0.4,0-0.8-0.1-1-0.4
			c-0.3-0.2-0.4-0.6-0.4-1v-0.6c-0.3,0.6-0.8,1.1-1.5,1.5c-0.6,0.4-1.4,0.5-2.2,0.5c-1,0-1.8-0.2-2.6-0.7c-0.8-0.5-1.3-1.2-1.8-2.1
			c-0.4-0.9-0.6-1.9-0.6-3.1c0-1.2,0.2-2.2,0.6-3.1s1-1.5,1.8-2c0.8-0.5,1.6-0.7,2.6-0.7c0.8,0,1.5,0.2,2.2,0.5
			c0.6,0.3,1.1,0.8,1.4,1.4v-5.5c0-0.4,0.1-0.7,0.4-0.9c0.3-0.2,0.6-0.4,1-0.4C296.9,350.3,297.2,350.5,297.5,350.7z M294.3,363.7
			c0.5-0.6,0.7-1.5,0.7-2.7c0-1.2-0.2-2.1-0.7-2.7c-0.5-0.6-1.2-0.9-2.1-0.9c-0.9,0-1.6,0.3-2.1,0.9c-0.5,0.6-0.8,1.5-0.8,2.6
			c0,1.2,0.3,2.1,0.8,2.7c0.5,0.6,1.2,1,2.1,1C293.1,364.6,293.8,364.3,294.3,363.7z"/>
		<path class="st7" d="M303,366.1c-0.9-0.5-1.5-1.2-2-2c-0.5-0.9-0.7-1.9-0.7-3.1c0-1.2,0.2-2.2,0.7-3.1c0.5-0.9,1.1-1.6,2-2
			c0.9-0.5,1.9-0.7,3-0.7c1.1,0,2.2,0.2,3,0.7c0.9,0.5,1.5,1.2,2,2s0.7,1.9,0.7,3.1c0,1.2-0.2,2.2-0.7,3.1s-1.1,1.6-2,2
			c-0.9,0.5-1.9,0.7-3,0.7C304.9,366.8,303.9,366.6,303,366.1z M308.1,363.7c0.5-0.6,0.7-1.5,0.7-2.7c0-1.2-0.2-2.1-0.7-2.7
			c-0.5-0.6-1.2-0.9-2.1-0.9s-1.6,0.3-2.1,0.9s-0.7,1.5-0.7,2.7c0,1.2,0.2,2.1,0.7,2.7c0.5,0.6,1.2,0.9,2.1,0.9
			C306.9,364.6,307.6,364.3,308.1,363.7z"/>
		<path class="st7" d="M313.9,366.3c-0.3-0.3-0.5-0.7-0.5-1.2c0-0.5,0.2-0.9,0.5-1.2c0.3-0.3,0.7-0.5,1.2-0.5c0.5,0,0.9,0.2,1.2,0.5
			c0.3,0.3,0.5,0.7,0.5,1.2c0,0.5-0.2,0.9-0.5,1.2s-0.7,0.5-1.2,0.5C314.7,366.8,314.3,366.6,313.9,366.3z"/>
	</g>
</g>
<g>
	<path class="st0" d="M68.6,344.2c-0.3-0.3-0.4-0.8-0.4-1.4c0-1.6,0.3-2.9,0.9-4c0.6-1.1,1.4-2.3,2.5-3.5c0.9-1,1.5-1.9,1.9-2.6
		c0.4-0.7,0.6-1.4,0.6-2.3c0-0.9-0.3-1.7-1-2.2c-0.7-0.6-1.6-0.8-2.8-0.8c-1,0-2,0.2-2.9,0.7s-2,1.1-3.3,1.9
		c-0.7,0.4-1.3,0.6-1.7,0.6c-0.5,0-0.9-0.2-1.3-0.7c-0.4-0.4-0.5-1-0.5-1.6c0-0.8,0.3-1.5,1-2c1.2-1,2.6-1.8,4.2-2.4
		c1.6-0.6,3.2-0.9,4.9-0.9c1.7,0,3.3,0.3,4.6,0.9s2.4,1.4,3.1,2.5c0.8,1,1.1,2.3,1.1,3.6c0,1.5-0.4,2.8-1.1,3.8
		c-0.7,1.1-1.7,2.3-3.1,3.7c-1.2,1.2-2,2.2-2.6,3c-0.6,0.8-0.9,1.7-1.1,2.7c-0.1,0.5-0.3,0.8-0.6,1c-0.3,0.2-0.7,0.4-1.1,0.4
		C69.3,344.7,68.9,344.5,68.6,344.2z M67.6,352.7c-0.6-0.6-0.9-1.4-0.9-2.3c0-0.9,0.3-1.7,0.9-2.3c0.6-0.6,1.3-0.9,2.3-0.9
		c0.9,0,1.7,0.3,2.3,0.9c0.6,0.6,0.9,1.4,0.9,2.3c0,0.9-0.3,1.7-0.9,2.3c-0.6,0.6-1.4,0.9-2.2,0.9C69,353.6,68.2,353.3,67.6,352.7z"
		/>
</g>
<polygon class="st8" points="65.3,221.9 60.2,230.8 69.4,239.1 73,234.7 80,239.1 84.5,223 80.7,221.9 73,233.4 "/>
</svg>
