<?xml version="1.0" encoding="utf-8"?>
<!-- Generator: Adobe Illustrator 22.1.0, SVG Export Plug-In . SVG Version: 6.00 Build 0)  -->
<svg version="1.1" id="Layer_1" xmlns="http://www.w3.org/2000/svg" xmlns:xlink="http://www.w3.org/1999/xlink" x="0px" y="0px"
	 viewBox="0 0 336.7 293.7" style="enable-background:new 0 0 336.7 293.7;" xml:space="preserve">
<style type="text/css">
	.st0{fill:#60025E;}
	.st1{opacity:0.2;}
	.st2{fill:#FFFFFF;}
	.st3{fill:none;stroke:#647CA0;stroke-width:5.2793;stroke-linecap:round;stroke-linejoin:round;stroke-miterlimit:10;}
	.st4{fill:none;stroke:#394961;stroke-width:7.0392;stroke-linecap:square;stroke-miterlimit:10;stroke-dasharray:0.8799,13.1984;}
	.st5{fill:#647CA0;}
	.st6{fill:#00CDC8;}
	.st7{fill:#F24044;}
	.st8{fill:#FADC3C;}
	.st9{fill:#A5D73C;}
</style>
<g>
	<g>
		<path class="st0" d="M192.8,173.7h-48.9c-3.4,0-6.1-2.7-6.1-6.1v-41.5c0-3.4,2.7-6.1,6.1-6.1h48.9c3.4,0,6.1,2.7,6.1,6.1v41.5
			C198.9,171,196.2,173.7,192.8,173.7z"/>
		<g class="st1">
			<g>
				<circle cx="145.8" cy="123.9" r="2.1"/>
				<circle cx="160.9" cy="123.9" r="2.1"/>
				<circle cx="175.9" cy="123.9" r="2.1"/>
				<circle cx="191" cy="123.9" r="2.1"/>
			</g>
			<g>
				<circle cx="145.8" cy="169.9" r="2.1"/>
				<circle cx="160.9" cy="169.9" r="2.1"/>
				<circle cx="175.9" cy="169.9" r="2.1"/>
				<circle cx="191" cy="169.9" r="2.1"/>
			</g>
			<rect x="139.5" y="127.1" width="58.7" height="0.6"/>
			<rect x="139.5" y="166" width="58.7" height="0.6"/>
			<path d="M191.3,164.3H146c-2.4,0-4.5-2.1-4.5-4.5v-25.6c0-2.4,2.1-4.5,4.5-4.5h45.3c2.4,0,4.5,2.1,4.5,4.5v25.6
				C195.9,162.3,193.8,164.3,191.3,164.3z"/>
		</g>
	</g>
	<g>
		<path class="st2" d="M167.9,156.3c0,1.1-0.6,1.6-1.8,1.6h-11.6c-0.5,0-0.9-0.2-1.3-0.5c-0.3-0.3-0.5-0.7-0.5-1.2
			c0-0.6,0.2-1.2,0.7-1.7l7-7.5c0.9-0.9,1.5-1.8,1.9-2.6s0.6-1.6,0.6-2.3c0-1-0.3-1.7-0.8-2.2c-0.6-0.5-1.3-0.8-2.4-0.8
			c-0.8,0-1.6,0.2-2.4,0.5c-0.8,0.3-1.6,0.7-2.4,1.3c-0.2,0.1-0.4,0.3-0.6,0.4c-0.2,0.1-0.4,0.1-0.6,0.1c-0.3,0-0.6-0.2-0.9-0.5
			c-0.3-0.3-0.4-0.7-0.4-1.2c0-0.3,0.1-0.6,0.2-0.8c0.1-0.2,0.3-0.4,0.5-0.6c0.9-0.7,1.9-1.3,3.1-1.7c1.2-0.4,2.4-0.6,3.6-0.6
			c2.1,0,3.8,0.5,5,1.6c1.3,1.1,1.9,2.5,1.9,4.3c0,1.2-0.3,2.4-0.8,3.5s-1.4,2.3-2.7,3.7l-5.3,5.6h8.1
			C167.3,154.7,167.9,155.3,167.9,156.3z"/>
		<path class="st2" d="M171.3,155.4c-1.3-1.9-2-4.6-2-8.2c0-3.6,0.7-6.3,2-8.2s3.3-2.8,5.8-2.8s4.5,0.9,5.8,2.8c1.3,1.9,2,4.6,2,8.2
			s-0.7,6.3-2,8.2s-3.3,2.8-5.8,2.8S172.6,157.3,171.3,155.4z M180.1,153.2c0.6-1.3,0.9-3.3,0.9-6.1s-0.3-4.8-0.9-6.1
			c-0.6-1.3-1.6-1.9-3-1.9s-2.4,0.6-3,1.9c-0.6,1.3-0.9,3.3-0.9,6.1s0.3,4.8,0.9,6.1c0.6,1.3,1.6,1.9,3,1.9S179.5,154.5,180.1,153.2
			z"/>
	</g>
</g>
<g>
	<g>
		<g>
			<g>
				<g>
					<path class="st3" d="M154,178.2V207c0,4.5-3.6,8.2-8.2,8.2h-9.5"/>
					<path class="st4" d="M154,178.2V207c0,4.5-3.6,8.2-8.2,8.2h-9.5"/>
				</g>
			</g>
		</g>
		<rect x="131.6" y="204.5" class="st5" width="4.7" height="20.3"/>
	</g>
	<g>
		<g>
			<g>
				<g>
					<path class="st3" d="M97.7,215.6H48.3"/>
				</g>
			</g>
		</g>
	</g>
	<g>
		<path class="st6" d="M128.7,238.6H90.2c-2.2,0-4.1-1.9-4.1-4.1v-34.6c0-2.2,1.9-4.1,4.1-4.1h38.5c2.2,0,4.1,1.9,4.1,4.1v34.6
			C132.7,236.8,130.9,238.6,128.7,238.6z"/>
		<g class="st1">
			<g>
				<circle cx="92.3" cy="198.9" r="1.6"/>
				<circle cx="103.7" cy="198.9" r="1.6"/>
				<circle cx="115.1" cy="198.9" r="1.6"/>
				<circle cx="126.6" cy="198.9" r="1.6"/>
			</g>
			<g>
				<circle cx="92.3" cy="235.7" r="1.6"/>
				<circle cx="103.7" cy="235.7" r="1.6"/>
				<circle cx="115.1" cy="235.7" r="1.6"/>
				<circle cx="126.6" cy="235.7" r="1.6"/>
			</g>
			<rect x="87.4" y="201.4" width="44.7" height="0.5"/>
			<rect x="87.4" y="232.7" width="44.7" height="0.5"/>
			<path d="M126.9,231.5H92.5c-1.9,0-3.4-1.6-3.4-3.4v-21.3c0-1.9,1.6-3.4,3.4-3.4H127c1.9,0,3.4,1.6,3.4,3.4v21.3
				C130.4,229.9,128.8,231.5,126.9,231.5z"/>
		</g>
	</g>
	<g>
		<path class="st2" d="M108,218.8c0.5,0.7,0.8,1.5,0.8,2.6c0,1.4-0.5,2.5-1.6,3.4c-1,0.8-2.4,1.3-4.2,1.3c-1,0-2-0.2-2.9-0.5
			s-1.7-0.7-2.4-1.3c-0.4-0.3-0.5-0.7-0.5-1.1c0-0.3,0.1-0.6,0.3-0.9c0.2-0.2,0.4-0.4,0.7-0.4c0.2,0,0.3,0,0.4,0.1s0.3,0.1,0.5,0.3
			c0.7,0.4,1.3,0.8,1.9,1s1.2,0.3,1.9,0.3c1,0,1.8-0.2,2.3-0.6c0.5-0.4,0.7-1,0.7-1.9c0-0.8-0.3-1.4-0.8-1.8s-1.3-0.6-2.4-0.6h-1.3
			c-0.4,0-0.6-0.1-0.8-0.4c-0.2-0.2-0.3-0.5-0.3-0.8s0.1-0.6,0.3-0.8c0.2-0.2,0.5-0.3,0.8-0.3h0.9c2.1,0,3.2-0.8,3.2-2.4
			c0-0.7-0.2-1.3-0.7-1.7s-1.1-0.6-1.9-0.6c-1.1,0-2.3,0.5-3.6,1.4c-0.2,0.1-0.4,0.2-0.5,0.3s-0.3,0.1-0.4,0.1
			c-0.3,0-0.5-0.1-0.7-0.4c-0.2-0.2-0.3-0.5-0.3-0.9c0-0.2,0-0.4,0.1-0.6s0.2-0.3,0.4-0.5c0.7-0.5,1.4-1,2.3-1.3s1.8-0.5,2.8-0.5
			c1.6,0,2.9,0.4,3.9,1.2s1.4,1.8,1.4,3.2c0,0.9-0.3,1.7-0.7,2.4c-0.5,0.7-1.1,1.2-1.9,1.5C106.8,217.7,107.5,218.1,108,218.8z"/>
		<path class="st2" d="M111.8,223.9c-1-1.4-1.5-3.5-1.5-6.3c0-2.7,0.5-4.8,1.5-6.3c1-1.4,2.5-2.2,4.4-2.2s3.4,0.7,4.4,2.2
			c1,1.4,1.5,3.5,1.5,6.3c0,2.7-0.5,4.8-1.5,6.3s-2.5,2.2-4.4,2.2S112.8,225.3,111.8,223.9z M118.5,222.2c0.5-1,0.7-2.5,0.7-4.6
			s-0.2-3.7-0.7-4.6c-0.5-1-1.2-1.4-2.3-1.4c-1.1,0-1.8,0.5-2.3,1.4c-0.5,1-0.7,2.5-0.7,4.6s0.2,3.7,0.7,4.6c0.5,1,1.2,1.5,2.3,1.5
			S118.1,223.2,118.5,222.2z"/>
	</g>
	<rect x="148.6" y="173.7" class="st5" width="10.7" height="4.7"/>
	<g>
		<rect x="28.8" y="201.3" class="st5" width="4.7" height="17.8"/>
	</g>
	<g>
		<path class="st5" d="M51.2,238.6H12.7c-2.2,0-4.1-1.9-4.1-4.1v-34.6c0-2.2,1.9-4.1,4.1-4.1h38.5c2.2,0,4.1,1.9,4.1,4.1v34.6
			C55.3,236.8,53.4,238.6,51.2,238.6z"/>
		<g class="st1">
			<g>
				<circle cx="14.7" cy="198.9" r="1.6"/>
				<circle cx="26.2" cy="198.9" r="1.6"/>
				<circle cx="37.7" cy="198.9" r="1.6"/>
				<circle cx="49.1" cy="198.9" r="1.6"/>
			</g>
			<g>
				<circle cx="14.7" cy="235.7" r="1.6"/>
				<circle cx="26.2" cy="235.7" r="1.6"/>
				<circle cx="37.7" cy="235.7" r="1.6"/>
				<circle cx="49.1" cy="235.7" r="1.6"/>
			</g>
			<rect x="9.9" y="201.4" width="44.7" height="0.5"/>
			<rect x="9.9" y="232.7" width="44.7" height="0.5"/>
			<path d="M49.4,231.5H14.9c-1.9,0-3.4-1.6-3.4-3.4v-21.3c0-1.9,1.6-3.4,3.4-3.4h34.5c1.9,0,3.4,1.6,3.4,3.4v21.3
				C52.8,229.9,51.3,231.5,49.4,231.5z"/>
		</g>
	</g>
	<g>
		<g>
			<path class="st0" d="M71.4,226.9c-6.4,0-11.7-5.2-11.7-11.7c0-6.4,5.2-11.7,11.7-11.7s11.7,5.2,11.7,11.7
				C83.1,221.6,77.8,226.9,71.4,226.9z"/>
			<path class="st2" d="M71.4,204c6.2,0,11.2,5,11.2,11.2s-5,11.2-11.2,11.2s-11.2-5-11.2-11.2S65.2,204,71.4,204 M71.4,203.1
				c-6.7,0-12.1,5.4-12.1,12.1s5.4,12.1,12.1,12.1s12.1-5.4,12.1-12.1S78.1,203.1,71.4,203.1L71.4,203.1z"/>
		</g>
		<path class="st2" d="M74.7,213.7H68c-0.7,0-1.3,0.6-1.3,1.3l0,0c0,0.7,0.6,1.3,1.3,1.3h6.7c0.7,0,1.3-0.6,1.3-1.3l0,0
			C76,214.3,75.4,213.7,74.7,213.7z"/>
	</g>
</g>
<g>
	<g>
		<g>
			<g>
				<g>
					<path class="st3" d="M183.4,178.2V207c0,4.5,3.6,8.2,8.2,8.2h9.5"/>
					<path class="st4" d="M183.4,178.2V207c0,4.5,3.6,8.2,8.2,8.2h9.5"/>
				</g>
			</g>
		</g>
		<rect x="201.1" y="204.5" class="st5" width="4.7" height="20.3"/>
	</g>
	<g>
		<g>
			<g>
				<g>
					<path class="st3" d="M239.7,215.6h49.5"/>
				</g>
			</g>
		</g>
	</g>
	<g>
		<path class="st7" d="M208.7,238.6h38.5c2.2,0,4.1-1.9,4.1-4.1v-34.6c0-2.2-1.9-4.1-4.1-4.1h-38.5c-2.2,0-4.1,1.9-4.1,4.1v34.6
			C204.7,236.8,206.5,238.6,208.7,238.6z"/>
		<g class="st1">
			<g>
				<circle cx="245.1" cy="198.9" r="1.6"/>
				<circle cx="233.6" cy="198.9" r="1.6"/>
				<circle cx="222.3" cy="198.9" r="1.6"/>
				<circle cx="210.8" cy="198.9" r="1.6"/>
			</g>
			<g>
				<circle cx="245.1" cy="235.7" r="1.6"/>
				<circle cx="233.6" cy="235.7" r="1.6"/>
				<circle cx="222.3" cy="235.7" r="1.6"/>
				<circle cx="210.8" cy="235.7" r="1.6"/>
			</g>
			<rect x="205.2" y="201.4" width="44.7" height="0.5"/>
			<rect x="205.2" y="232.7" width="44.7" height="0.5"/>
			<path d="M210.5,231.5H245c1.9,0,3.4-1.6,3.4-3.4v-21.3c0-1.9-1.6-3.4-3.4-3.4h-34.5c-1.9,0-3.4,1.6-3.4,3.4v21.3
				C207,229.9,208.6,231.5,210.5,231.5z"/>
		</g>
	</g>
	<rect x="178" y="173.7" class="st5" width="10.7" height="4.7"/>
	<g>
		<rect x="303.9" y="201.3" class="st5" width="4.7" height="17.8"/>
	</g>
	<g>
		<path class="st5" d="M286.2,238.6h38.5c2.2,0,4.1-1.9,4.1-4.1v-34.6c0-2.2-1.9-4.1-4.1-4.1h-38.5c-2.2,0-4.1,1.9-4.1,4.1v34.6
			C282.1,236.8,284,238.6,286.2,238.6z"/>
		<g class="st1">
			<g>
				<circle cx="322.7" cy="198.9" r="1.6"/>
				<circle cx="311.2" cy="198.9" r="1.6"/>
				<circle cx="299.7" cy="198.9" r="1.6"/>
				<circle cx="288.3" cy="198.9" r="1.6"/>
			</g>
			<g>
				<circle cx="322.7" cy="235.7" r="1.6"/>
				<circle cx="311.2" cy="235.7" r="1.6"/>
				<circle cx="299.7" cy="235.7" r="1.6"/>
				<circle cx="288.3" cy="235.7" r="1.6"/>
			</g>
			<rect x="282.8" y="201.4" width="44.7" height="0.5"/>
			<rect x="282.8" y="232.7" width="44.7" height="0.5"/>
			<path d="M288,231.5h34.5c1.9,0,3.4-1.6,3.4-3.4v-21.3c0-1.9-1.6-3.4-3.4-3.4H288c-1.9,0-3.4,1.6-3.4,3.4v21.3
				C284.6,229.9,286,231.5,288,231.5z"/>
		</g>
	</g>
	<g>
		<g>
			<path class="st0" d="M266,226.9c6.4,0,11.7-5.2,11.7-11.7c0-6.4-5.2-11.7-11.7-11.7s-11.7,5.2-11.7,11.7
				C254.3,221.6,259.6,226.9,266,226.9z"/>
			<path class="st2" d="M266,204c6.2,0,11.2,5,11.2,11.2s-5,11.2-11.2,11.2s-11.2-5-11.2-11.2S259.8,204,266,204 M266,203.1
				c-6.7,0-12.1,5.4-12.1,12.1s5.4,12.1,12.1,12.1s12.1-5.4,12.1-12.1S272.7,203.1,266,203.1L266,203.1z"/>
		</g>
		<path class="st2" d="M262.7,213.7h6.7c0.7,0,1.3,0.6,1.3,1.3l0,0c0,0.7-0.6,1.3-1.3,1.3h-6.7c-0.7,0-1.3-0.6-1.3-1.3l0,0
			C261.4,214.3,262,213.7,262.7,213.7z"/>
	</g>
</g>
<g>
	<path class="st2" d="M305.2,220.8c-0.2-0.2-0.2-0.4-0.2-0.8c0-0.9,0.2-1.6,0.5-2.2s0.8-1.2,1.4-1.9c0.5-0.6,0.8-1,1-1.4
		s0.3-0.8,0.3-1.3s-0.2-0.9-0.6-1.2s-0.9-0.5-1.5-0.5s-1.1,0.1-1.6,0.4c-0.5,0.2-1.1,0.6-1.8,1c-0.4,0.2-0.7,0.3-1,0.3
		s-0.5-0.1-0.7-0.4c-0.2-0.2-0.3-0.5-0.3-0.9c0-0.5,0.2-0.8,0.6-1.1c0.7-0.6,1.4-1,2.3-1.3s1.8-0.5,2.7-0.5c0.9,0,1.8,0.2,2.5,0.5
		s1.3,0.8,1.7,1.4c0.4,0.6,0.6,1.2,0.6,2s-0.2,1.5-0.6,2.1s-1,1.3-1.7,2c-0.6,0.7-1.1,1.2-1.4,1.6c-0.3,0.4-0.5,0.9-0.6,1.5
		c0,0.2-0.2,0.4-0.3,0.6c-0.2,0.1-0.4,0.2-0.6,0.2C305.6,221.1,305.3,221,305.2,220.8z M304.6,225.5c-0.3-0.3-0.5-0.7-0.5-1.2
		s0.2-0.9,0.5-1.2s0.7-0.5,1.2-0.5s0.9,0.2,1.2,0.5c0.3,0.3,0.5,0.7,0.5,1.2s-0.2,0.9-0.5,1.2s-0.7,0.5-1.2,0.5
		C305.4,226,305,225.8,304.6,225.5z"/>
</g>
<g>
	<path class="st2" d="M224.7,217c0.8,0.4,1.4,1.1,1.8,1.9c0.4,0.8,0.7,1.7,0.7,2.7c0,1.1-0.2,2-0.7,2.8s-1.2,1.5-2.1,1.9
		c-0.9,0.5-1.9,0.7-3.1,0.7c-1,0-1.9-0.2-2.8-0.5s-1.7-0.7-2.4-1.3c-0.4-0.3-0.5-0.7-0.5-1.1c0-0.3,0.1-0.6,0.3-0.9
		c0.2-0.2,0.4-0.4,0.7-0.4c0.2,0,0.3,0,0.4,0.1s0.3,0.1,0.5,0.3c0.6,0.4,1.2,0.8,1.8,1s1.2,0.3,1.9,0.3c1,0,1.8-0.3,2.4-0.8
		c0.5-0.5,0.8-1.2,0.8-2.2c0-0.9-0.3-1.6-0.8-2.2c-0.6-0.5-1.3-0.8-2.3-0.8c-0.6,0-1.1,0.1-1.6,0.3s-1,0.5-1.5,0.9
		c-0.3,0.2-0.6,0.3-0.9,0.3s-0.6-0.1-0.8-0.3s-0.3-0.4-0.3-0.7v-7.3c0-0.4,0.1-0.8,0.4-1c0.2-0.2,0.6-0.4,1-0.4h7.8
		c0.9,0,1.4,0.4,1.4,1.2s-0.5,1.2-1.4,1.2H219v4.4c0.8-0.6,1.8-0.8,2.9-0.8C223,216.3,223.9,216.6,224.7,217z"/>
	<path class="st2" d="M237.6,217c0.8,0.4,1.4,1.1,1.8,1.9c0.4,0.8,0.7,1.7,0.7,2.7c0,1.1-0.2,2-0.7,2.8s-1.2,1.5-2.1,1.9
		c-0.9,0.5-1.9,0.7-3.1,0.7c-1,0-1.9-0.2-2.8-0.5s-1.7-0.7-2.4-1.3c-0.4-0.3-0.5-0.7-0.5-1.1c0-0.3,0.1-0.6,0.3-0.9
		c0.2-0.2,0.4-0.4,0.7-0.4c0.2,0,0.3,0,0.4,0.1c0.1,0.1,0.3,0.1,0.5,0.3c0.6,0.4,1.2,0.8,1.8,1s1.2,0.3,1.9,0.3c1,0,1.8-0.3,2.4-0.8
		c0.5-0.5,0.8-1.2,0.8-2.2c0-0.9-0.3-1.6-0.8-2.2c-0.6-0.5-1.3-0.8-2.3-0.8c-0.6,0-1.1,0.1-1.6,0.3s-1,0.5-1.5,0.9
		c-0.3,0.2-0.6,0.3-0.9,0.3s-0.6-0.1-0.8-0.3s-0.3-0.4-0.3-0.7v-7.3c0-0.4,0.1-0.8,0.4-1c0.2-0.2,0.6-0.4,1-0.4h7.8
		c0.9,0,1.4,0.4,1.4,1.2s-0.5,1.2-1.4,1.2H232v4.4c0.8-0.6,1.8-0.8,2.9-0.8C236,216.3,236.9,216.6,237.6,217z"/>
</g>
<g>
	<g>
		<g>
			<g>
				<g>
					<path class="st3" d="M154,115.1V86.3c0-4.5-3.6-8.2-8.2-8.2h-9.5"/>
					<path class="st4" d="M154,115.1V86.3c0-4.5-3.6-8.2-8.2-8.2h-9.5"/>
				</g>
			</g>
		</g>
		<rect x="131.6" y="68.5" class="st5" width="4.7" height="20.3"/>
	</g>
	<g>
		<g>
			<g>
				<g>
					<path class="st3" d="M97.7,77.7H48.3"/>
				</g>
			</g>
		</g>
	</g>
	<g>
		<path class="st8" d="M128.7,54.7H90.2c-2.2,0-4.1,1.9-4.1,4.1v34.6c0,2.2,1.9,4.1,4.1,4.1h38.5c2.2,0,4.1-1.9,4.1-4.1V58.8
			C132.7,56.5,130.9,54.7,128.7,54.7z"/>
		<g class="st1">
			<g>
				<circle cx="92.3" cy="94.4" r="1.6"/>
				<circle cx="103.7" cy="94.4" r="1.6"/>
				<circle cx="115.1" cy="94.4" r="1.6"/>
				<circle cx="126.6" cy="94.4" r="1.6"/>
			</g>
			<g>
				<circle cx="92.3" cy="57.6" r="1.6"/>
				<circle cx="103.7" cy="57.6" r="1.6"/>
				<circle cx="115.1" cy="57.6" r="1.6"/>
				<circle cx="126.6" cy="57.6" r="1.6"/>
			</g>
			<rect x="87.4" y="91.4" width="44.7" height="0.5"/>
			<rect x="87.4" y="60.1" width="44.7" height="0.5"/>
			<path d="M126.9,61.8H92.5c-1.9,0-3.4,1.6-3.4,3.4v21.3c0,1.9,1.6,3.4,3.4,3.4H127c1.9,0,3.4-1.6,3.4-3.4V65.2
				C130.4,63.4,128.8,61.8,126.9,61.8z"/>
		</g>
	</g>
	<g>
		<path class="st2" d="M109.6,79.2c0.2,0.2,0.3,0.5,0.3,0.9c0,0.8-0.5,1.2-1.4,1.2h-1.2v1.8c0,0.5-0.1,0.9-0.4,1.1
			c-0.3,0.3-0.6,0.4-1.1,0.4s-0.8-0.1-1.1-0.4s-0.4-0.6-0.4-1.1v-1.8h-6.1c-0.4,0-0.7-0.1-1-0.4C97.1,80.6,97,80.3,97,80
			c0-0.4,0.1-0.7,0.4-1.1l7.2-10.3c0.2-0.2,0.3-0.4,0.6-0.5s0.5-0.2,0.7-0.2c0.4,0,0.8,0.1,1,0.4s0.4,0.6,0.4,1.1v9.5h1.2
			C109,78.9,109.3,79,109.6,79.2z M100.1,78.9h4.3v-6.3L100.1,78.9z"/>
		<path class="st2" d="M111.8,82.5c-1-1.4-1.5-3.5-1.5-6.3c0-2.7,0.5-4.8,1.5-6.3c1-1.4,2.5-2.2,4.4-2.2s3.4,0.7,4.4,2.2
			c1,1.4,1.5,3.5,1.5,6.3c0,2.7-0.5,4.8-1.5,6.3s-2.5,2.2-4.4,2.2S112.8,83.9,111.8,82.5z M118.5,80.9c0.5-1,0.7-2.5,0.7-4.6
			s-0.2-3.7-0.7-4.6c-0.5-1-1.2-1.4-2.3-1.4c-1.1,0-1.8,0.5-2.3,1.4c-0.5,1-0.7,2.5-0.7,4.6s0.2,3.7,0.7,4.6c0.5,1,1.2,1.5,2.3,1.5
			C117.3,82.3,118.1,81.8,118.5,80.9z"/>
	</g>
	<rect x="148.6" y="114.9" class="st5" width="10.7" height="4.7"/>
	<g>
		<rect x="28.8" y="74.2" class="st5" width="4.7" height="17.8"/>
	</g>
	<g>
		<path class="st5" d="M51.2,54.7H12.7c-2.2,0-4.1,1.9-4.1,4.1v34.6c0,2.2,1.9,4.1,4.1,4.1h38.5c2.2,0,4.1-1.9,4.1-4.1V58.8
			C55.3,56.5,53.4,54.7,51.2,54.7z"/>
		<g class="st1">
			<g>
				<circle cx="14.7" cy="94.4" r="1.6"/>
				<circle cx="26.2" cy="94.4" r="1.6"/>
				<circle cx="37.7" cy="94.4" r="1.6"/>
				<circle cx="49.1" cy="94.4" r="1.6"/>
			</g>
			<g>
				<circle cx="14.7" cy="57.6" r="1.6"/>
				<circle cx="26.2" cy="57.6" r="1.6"/>
				<circle cx="37.7" cy="57.6" r="1.6"/>
				<circle cx="49.1" cy="57.6" r="1.6"/>
			</g>
			<rect x="9.9" y="91.4" width="44.7" height="0.5"/>
			<rect x="9.9" y="60.1" width="44.7" height="0.5"/>
			<path d="M49.4,61.8H14.9c-1.9,0-3.4,1.6-3.4,3.4v21.3c0,1.9,1.6,3.4,3.4,3.4h34.5c1.9,0,3.4-1.6,3.4-3.4V65.2
				C52.8,63.4,51.3,61.8,49.4,61.8z"/>
		</g>
	</g>
	<g>
		<path class="st2" d="M31.1,79.4c-0.2-0.2-0.2-0.4-0.2-0.8c0-0.9,0.2-1.6,0.5-2.2s0.8-1.2,1.4-1.9c0.5-0.6,0.8-1,1-1.4
			s0.3-0.8,0.3-1.3s-0.2-0.9-0.6-1.2s-0.9-0.5-1.5-0.5c-0.6,0-1.1,0.1-1.6,0.4c-0.5,0.2-1.1,0.6-1.8,1c-0.4,0.2-0.7,0.3-1,0.3
			s-0.5-0.1-0.7-0.4c-0.2-0.2-0.3-0.5-0.3-0.9c0-0.5,0.2-0.8,0.6-1.1c0.7-0.6,1.4-1,2.3-1.3s1.8-0.5,2.7-0.5s1.8,0.2,2.5,0.5
			s1.3,0.8,1.7,1.4s0.6,1.2,0.6,2s-0.2,1.5-0.6,2.1c-0.4,0.6-1,1.3-1.7,2c-0.6,0.7-1.1,1.2-1.4,1.6c-0.3,0.4-0.5,0.9-0.6,1.5
			c0,0.2-0.2,0.4-0.3,0.6c-0.2,0.1-0.4,0.2-0.6,0.2C31.5,79.7,31.3,79.6,31.1,79.4z M30.6,84.1c-0.3-0.3-0.5-0.7-0.5-1.2
			s0.2-0.9,0.5-1.2c0.3-0.3,0.7-0.5,1.2-0.5c0.5,0,0.9,0.2,1.2,0.5s0.5,0.7,0.5,1.2s-0.2,0.9-0.5,1.2c-0.3,0.3-0.7,0.5-1.2,0.5
			S30.9,84.4,30.6,84.1z"/>
	</g>
	<g>
		<g>
			<path class="st0" d="M71.4,66.4c-6.4,0-11.7,5.2-11.7,11.7c0,6.4,5.2,11.7,11.7,11.7s11.7-5.2,11.7-11.7
				C83.1,71.7,77.8,66.4,71.4,66.4z"/>
			<path class="st2" d="M71.4,89.3c-6.2,0-11.2-5-11.2-11.2s5-11.2,11.2-11.2s11.2,5,11.2,11.2S77.6,89.3,71.4,89.3 M71.4,90.2
				c6.7,0,12.1-5.4,12.1-12.1S78.1,66,71.4,66s-12.1,5.4-12.1,12.1C59.3,84.8,64.7,90.2,71.4,90.2L71.4,90.2z"/>
		</g>
		<path class="st2" d="M74.7,79.6H68c-0.7,0-1.3-0.6-1.3-1.3l0,0c0-0.7,0.6-1.3,1.3-1.3h6.7c0.7,0,1.3,0.6,1.3,1.3l0,0
			C76,79,75.4,79.6,74.7,79.6z"/>
	</g>
</g>
<g>
	<g>
		<g>
			<g>
				<g>
					<path class="st3" d="M183.4,115.1V86.3c0-4.5,3.6-8.2,8.2-8.2h9.5"/>
					<path class="st4" d="M183.4,115.1V86.3c0-4.5,3.6-8.2,8.2-8.2h9.5"/>
				</g>
			</g>
		</g>
		<rect x="201.1" y="68.5" class="st5" width="4.7" height="20.3"/>
	</g>
	<g>
		<g>
			<g>
				<g>
					<path class="st3" d="M239.7,77.7h49.5"/>
				</g>
			</g>
		</g>
	</g>
	<g>
		<path class="st9" d="M208.7,54.7h38.5c2.2,0,4.1,1.9,4.1,4.1v34.6c0,2.2-1.9,4.1-4.1,4.1h-38.5c-2.2,0-4.1-1.9-4.1-4.1V58.8
			C204.7,56.5,206.5,54.7,208.7,54.7z"/>
		<g class="st1">
			<g>
				<circle cx="245.1" cy="94.4" r="1.6"/>
				<circle cx="233.6" cy="94.4" r="1.6"/>
				<circle cx="222.3" cy="94.4" r="1.6"/>
				<circle cx="210.8" cy="94.4" r="1.6"/>
			</g>
			<g>
				<circle cx="245.1" cy="57.6" r="1.6"/>
				<circle cx="233.6" cy="57.6" r="1.6"/>
				<circle cx="222.3" cy="57.6" r="1.6"/>
				<circle cx="210.8" cy="57.6" r="1.6"/>
			</g>
			<rect x="205.2" y="91.4" width="44.7" height="0.5"/>
			<rect x="205.2" y="60.1" width="44.7" height="0.5"/>
			<path d="M210.5,61.8H245c1.9,0,3.4,1.6,3.4,3.4v21.3c0,1.9-1.6,3.4-3.4,3.4h-34.5c-1.9,0-3.4-1.6-3.4-3.4V65.2
				C207,63.4,208.6,61.8,210.5,61.8z"/>
		</g>
	</g>
	<rect x="178" y="114.9" class="st5" width="10.7" height="4.7"/>
	<g>
		<rect x="303.9" y="74.2" class="st5" width="4.7" height="17.8"/>
	</g>
	<g>
		<path class="st5" d="M286.2,54.7h38.5c2.2,0,4.1,1.9,4.1,4.1v34.6c0,2.2-1.9,4.1-4.1,4.1h-38.5c-2.2,0-4.1-1.9-4.1-4.1V58.8
			C282.1,56.5,284,54.7,286.2,54.7z"/>
		<g class="st1">
			<g>
				<circle cx="322.7" cy="94.4" r="1.6"/>
				<circle cx="311.2" cy="94.4" r="1.6"/>
				<circle cx="299.7" cy="94.4" r="1.6"/>
				<circle cx="288.3" cy="94.4" r="1.6"/>
			</g>
			<g>
				<circle cx="322.7" cy="57.6" r="1.6"/>
				<circle cx="311.2" cy="57.6" r="1.6"/>
				<circle cx="299.7" cy="57.6" r="1.6"/>
				<circle cx="288.3" cy="57.6" r="1.6"/>
			</g>
			<rect x="282.8" y="91.4" width="44.7" height="0.5"/>
			<rect x="282.8" y="60.1" width="44.7" height="0.5"/>
			<path d="M288,61.8h34.5c1.9,0,3.4,1.6,3.4,3.4v21.3c0,1.9-1.6,3.4-3.4,3.4H288c-1.9,0-3.4-1.6-3.4-3.4V65.2
				C284.6,63.4,286,61.8,288,61.8z"/>
		</g>
	</g>
	<g>
		<g>
			<path class="st0" d="M266,66.4c6.4,0,11.7,5.2,11.7,11.7c0,6.4-5.2,11.7-11.7,11.7s-11.7-5.2-11.7-11.7
				C254.3,71.7,259.6,66.4,266,66.4z"/>
			<path class="st2" d="M266,89.3c-6.2,0-11.2-5-11.2-11.2s5-11.2,11.2-11.2s11.2,5,11.2,11.2S272.2,89.3,266,89.3 M266,90.2
				c6.7,0,12.1-5.4,12.1-12.1S272.7,66,266,66s-12.1,5.4-12.1,12.1S259.3,90.2,266,90.2L266,90.2z"/>
		</g>
		<path class="st2" d="M262.7,79.6h6.7c0.7,0,1.3-0.6,1.3-1.3l0,0c0-0.7-0.6-1.3-1.3-1.3h-6.7c-0.7,0-1.3,0.6-1.3,1.3l0,0
			C261.4,79,262,79.6,262.7,79.6z"/>
	</g>
</g>
<g>
	<path class="st2" d="M303.2,80.4c-0.2-0.2-0.2-0.4-0.2-0.8c0-0.9,0.2-1.6,0.5-2.2s0.8-1.2,1.4-1.9c0.5-0.6,0.8-1,1-1.4
		s0.3-0.8,0.3-1.3s-0.2-0.9-0.6-1.2s-0.9-0.5-1.5-0.5s-1.1,0.1-1.6,0.4c-0.5,0.2-1.1,0.6-1.8,1c-0.4,0.2-0.7,0.3-1,0.3
		s-0.5-0.1-0.7-0.4c-0.2-0.2-0.3-0.5-0.3-0.9c0-0.5,0.2-0.8,0.6-1.1c0.7-0.6,1.4-1,2.3-1.3s1.8-0.5,2.7-0.5c0.9,0,1.8,0.2,2.5,0.5
		s1.3,0.8,1.7,1.4c0.4,0.6,0.6,1.2,0.6,2s-0.2,1.5-0.6,2.1s-1,1.3-1.7,2c-0.6,0.7-1.1,1.2-1.4,1.6s-0.5,0.9-0.6,1.5
		c0,0.2-0.2,0.4-0.3,0.6c-0.2,0.1-0.4,0.2-0.6,0.2C303.6,80.7,303.3,80.6,303.2,80.4z M302.6,85.1c-0.3-0.3-0.5-0.7-0.5-1.2
		s0.2-0.9,0.5-1.2c0.3-0.3,0.7-0.5,1.2-0.5s0.9,0.2,1.2,0.5c0.3,0.3,0.5,0.7,0.5,1.2s-0.2,0.9-0.5,1.2c-0.3,0.3-0.7,0.5-1.2,0.5
		C303.4,85.6,303,85.4,302.6,85.1z"/>
</g>
<g>
	<path class="st2" d="M225.9,77.4c0.5,0.7,0.8,1.5,0.8,2.6c0,1.4-0.5,2.5-1.6,3.4c-1,0.8-2.4,1.3-4.2,1.3c-1,0-2-0.2-2.9-0.5
		s-1.7-0.7-2.4-1.3c-0.4-0.3-0.5-0.7-0.5-1.1c0-0.3,0.1-0.6,0.3-0.9c0.2-0.2,0.4-0.4,0.7-0.4c0.2,0,0.3,0,0.4,0.1
		c0.1,0.1,0.3,0.1,0.5,0.3c0.7,0.4,1.3,0.8,1.9,1c0.6,0.2,1.2,0.3,1.9,0.3c1,0,1.8-0.2,2.3-0.6s0.7-1,0.7-1.9c0-0.8-0.3-1.4-0.8-1.8
		s-1.3-0.6-2.4-0.6h-1.3c-0.4,0-0.6-0.1-0.8-0.4c-0.2-0.2-0.3-0.5-0.3-0.8s0.1-0.6,0.3-0.8c0.2-0.2,0.5-0.3,0.8-0.3h0.9
		c2.1,0,3.2-0.8,3.2-2.4c0-0.7-0.2-1.3-0.7-1.7s-1.1-0.6-1.9-0.6c-1.1,0-2.3,0.5-3.6,1.4c-0.2,0.1-0.4,0.2-0.5,0.3
		c-0.1,0.1-0.3,0.1-0.4,0.1c-0.3,0-0.5-0.1-0.7-0.4s-0.3-0.5-0.3-0.9c0-0.2,0-0.4,0.1-0.6s0.2-0.3,0.4-0.5c0.7-0.5,1.4-1,2.3-1.3
		s1.8-0.5,2.8-0.5c1.6,0,2.9,0.4,3.9,1.2s1.4,1.8,1.4,3.2c0,0.9-0.3,1.7-0.7,2.4c-0.5,0.7-1.1,1.2-1.9,1.5
		C224.6,76.3,225.3,76.7,225.9,77.4z"/>
	<path class="st2" d="M237.6,74.6c0.8,0.4,1.4,1.1,1.8,1.9c0.4,0.8,0.7,1.7,0.7,2.7c0,1.1-0.2,2-0.7,2.8s-1.2,1.5-2.1,1.9
		c-0.9,0.5-1.9,0.7-3.1,0.7c-1,0-1.9-0.2-2.8-0.5s-1.7-0.7-2.4-1.3c-0.4-0.3-0.5-0.7-0.5-1.1c0-0.3,0.1-0.6,0.3-0.9
		c0.2-0.2,0.4-0.4,0.7-0.4c0.2,0,0.3,0,0.4,0.1c0.1,0.1,0.3,0.1,0.5,0.3c0.6,0.4,1.2,0.8,1.8,1s1.2,0.3,1.9,0.3c1,0,1.8-0.3,2.4-0.8
		c0.5-0.5,0.8-1.2,0.8-2.2c0-0.9-0.3-1.6-0.8-2.2c-0.6-0.5-1.3-0.8-2.3-0.8c-0.6,0-1.1,0.1-1.6,0.3c-0.5,0.2-1,0.5-1.5,0.9
		c-0.3,0.2-0.6,0.3-0.9,0.3s-0.6-0.1-0.8-0.3c-0.2-0.2-0.3-0.4-0.3-0.7v-7.3c0-0.4,0.1-0.8,0.4-1c0.2-0.2,0.6-0.4,1-0.4h7.8
		c0.9,0,1.4,0.4,1.4,1.2s-0.5,1.2-1.4,1.2H232v4.4c0.8-0.6,1.8-0.8,2.9-0.8C236,74,236.9,74.2,237.6,74.6z"/>
</g>
<g>
	<path class="st2" d="M33.1,221.8c-0.2-0.2-0.2-0.4-0.2-0.8c0-0.9,0.2-1.6,0.5-2.2s0.8-1.2,1.4-1.9c0.5-0.6,0.8-1,1-1.4
		s0.3-0.8,0.3-1.3s-0.2-0.9-0.6-1.2s-0.9-0.5-1.5-0.5s-1.1,0.1-1.6,0.4c-0.5,0.2-1.1,0.6-1.8,1c-0.4,0.2-0.7,0.3-1,0.3
		s-0.5-0.1-0.7-0.4c-0.2-0.2-0.3-0.5-0.3-0.9c0-0.5,0.2-0.8,0.6-1.1c0.7-0.6,1.4-1,2.3-1.3s1.8-0.5,2.7-0.5c0.9,0,1.8,0.2,2.5,0.5
		s1.3,0.8,1.7,1.4c0.4,0.6,0.6,1.2,0.6,2s-0.2,1.5-0.6,2.1c-0.4,0.6-1,1.3-1.7,2c-0.6,0.7-1.1,1.2-1.4,1.6c-0.3,0.4-0.5,0.9-0.6,1.5
		c0,0.2-0.2,0.4-0.3,0.6c-0.2,0.1-0.4,0.2-0.6,0.2C33.5,222.1,33.3,222,33.1,221.8z M32.6,226.5c-0.3-0.3-0.5-0.7-0.5-1.2
		s0.2-0.9,0.5-1.2s0.7-0.5,1.2-0.5s0.9,0.2,1.2,0.5s0.5,0.7,0.5,1.2s-0.2,0.9-0.5,1.2s-0.7,0.5-1.2,0.5S32.9,226.8,32.6,226.5z"/>
</g>
</svg>
