<?xml version="1.0" encoding="utf-8"?>
<!-- Generator: Adobe Illustrator 22.1.0, SVG Export Plug-In . SVG Version: 6.00 Build 0)  -->
<svg version="1.1" id="Layer_1" xmlns="http://www.w3.org/2000/svg" xmlns:xlink="http://www.w3.org/1999/xlink" x="0px" y="0px"
	 viewBox="0 0 400 142.4" style="enable-background:new 0 0 400 142.4;" xml:space="preserve">
<style type="text/css">
	.st0{fill:#FFFFFF;}
	.st1{fill:#00CDC8;}
	.st2{fill:#F24044;}
	.st3{fill:#FF5A00;}
	.st4{fill:#A5D73C;}
	.st5{fill:none;stroke:#FFFFFF;stroke-width:4.0966;stroke-linecap:round;stroke-linejoin:round;}
</style>
<g>
	<path class="st0" d="M25.2,126.5c-0.8,0-1.5-0.7-1.5-1.5V89.9c0-0.8,0.7-1.5,1.5-1.5h35.1c0.8,0,1.5,0.7,1.5,1.5V125
		c0,0.8-0.7,1.5-1.5,1.5H25.2z"/>
	<path class="st0" d="M60.2,89.9V125H25.2V89.9H60.2 M60.2,86.9H25.2c-1.7,0-3,1.3-3,3V125c0,1.7,1.3,3,3,3h35.1c1.7,0,3-1.3,3-3
		V89.9C63.2,88.3,61.9,86.9,60.2,86.9L60.2,86.9z"/>
</g>
<g>
	<g>
		<g>
			<path class="st0" d="M39.6,117.9c-1.7,0-2.9-1.1-2.9-2.7c0-1.6,1.1-2.6,2.9-2.6h0.8v-6.1c-0.4,0.2-0.8,0.3-1.2,0.3
				c-0.8,0-1.5-0.3-2-1c-0.4-0.5-0.7-1.2-0.7-1.8c0-1,0.5-1.8,1.3-2.3l3.5-2.2c0.7-0.4,1.4-0.6,2.1-0.6c0.8,0,1.5,0.3,2.1,0.8
				c0.4,0.4,0.8,1,0.8,2.1v10.7h0.9c1.7,0,2.8,1,2.8,2.6c0,1.6-1.1,2.7-2.8,2.7H39.6z"/>
			<path class="st0" d="M43.5,100.5c0.4,0,0.8,0.1,1,0.4c0.3,0.3,0.4,0.6,0.4,1.1v12.2h2.4c0.9,0,1.3,0.4,1.3,1.1
				c0,0.8-0.4,1.2-1.3,1.2h-7.6c-0.9,0-1.4-0.4-1.4-1.2c0-0.8,0.5-1.1,1.4-1.1h2.3v-10.2l-2.2,1.3c-0.2,0.1-0.4,0.2-0.6,0.2
				c-0.3,0-0.6-0.1-0.8-0.4c-0.2-0.3-0.3-0.6-0.3-0.9c0-0.4,0.2-0.8,0.6-1l3.5-2.2C42.6,100.6,43,100.5,43.5,100.5 M43.5,97.5
				c-1,0-1.9,0.3-2.8,0.8l-3.5,2.2c-1.3,0.8-2,2.1-2,3.6c0,1,0.3,2,1,2.8c0.7,0.9,1.7,1.4,2.9,1.5v2.8c-2.2,0.3-3.7,1.9-3.7,4.1
				c0,2.5,1.8,4.2,4.4,4.2h7.6c2.6,0,4.3-1.7,4.3-4.2c0-2.2-1.5-3.8-3.7-4.1v-9.2c0-1.6-0.7-2.6-1.3-3.2
				C45.8,97.9,44.7,97.5,43.5,97.5L43.5,97.5z"/>
		</g>
	</g>
</g>
<g>
	<path class="st0" d="M59.9,126.5c-0.8,0-1.5-0.7-1.5-1.5V89.9c0-0.8,0.7-1.5,1.5-1.5H95c0.8,0,1.5,0.7,1.5,1.5V125
		c0,0.8-0.7,1.5-1.5,1.5H59.9z"/>
	<path class="st0" d="M95,89.9V125H59.9V89.9H95 M95,86.9H59.9c-1.7,0-3,1.3-3,3V125c0,1.7,1.3,3,3,3H95c1.7,0,3-1.3,3-3V89.9
		C98,88.3,96.7,86.9,95,86.9L95,86.9z"/>
</g>
<g>
	<g>
		<g>
			<path class="st0" d="M73.4,117.9c-1,0-1.6-0.4-2-0.8c-0.5-0.5-0.8-1.2-0.8-1.9c0-0.8,0.3-1.6,0.9-2.3l5.1-5.5
				c0.5-0.6,0.9-1.1,1.1-1.6c0.2-0.4,0.3-0.7,0.3-1c0-0.1,0-0.4-0.1-0.5c-0.1-0.1-0.4-0.2-0.7-0.2c-0.4,0-0.8,0.1-1.2,0.2
				c-0.5,0.2-1,0.5-1.4,0.8c-0.2,0.2-0.5,0.3-0.7,0.4c-0.3,0.2-0.7,0.2-1.1,0.2c-0.7,0-1.4-0.3-1.8-0.9c-0.4-0.5-0.6-1.1-0.6-1.8
				c0-0.5,0.1-0.9,0.3-1.3c0.2-0.4,0.4-0.7,0.8-1c0.8-0.6,1.7-1.1,2.8-1.5c1-0.4,2.1-0.5,3.1-0.5c1.9,0,3.5,0.5,4.7,1.5
				c1.3,1.1,1.9,2.5,1.9,4.3c0,1.1-0.2,2.2-0.7,3.2c-0.5,0.9-1.2,1.9-2.2,3.1l-1.5,1.6h2.5c1.7,0,2.8,1,2.8,2.6
				c0,1.6-1.1,2.7-2.8,2.7H73.4z"/>
			<path class="st0" d="M77.3,100.4c1.5,0,2.8,0.4,3.7,1.2c0.9,0.8,1.4,1.8,1.4,3.1c0,0.9-0.2,1.8-0.6,2.6c-0.4,0.8-1,1.7-2,2.7
				l-3.9,4.1h5.9c0.9,0,1.3,0.4,1.3,1.1c0,0.8-0.4,1.2-1.3,1.2h-8.5c-0.4,0-0.7-0.1-0.9-0.3c-0.2-0.2-0.3-0.5-0.3-0.9
				c0-0.4,0.2-0.9,0.5-1.2l5.1-5.5c0.6-0.7,1.1-1.3,1.4-1.9c0.3-0.6,0.4-1.1,0.4-1.7c0-0.7-0.2-1.2-0.6-1.6c-0.4-0.4-1-0.6-1.7-0.6
				c-0.6,0-1.2,0.1-1.8,0.3c-0.6,0.2-1.2,0.5-1.7,1c-0.1,0.1-0.3,0.2-0.4,0.3c-0.1,0.1-0.3,0.1-0.4,0.1c-0.3,0-0.5-0.1-0.7-0.4
				c-0.2-0.2-0.3-0.5-0.3-0.9c0-0.2,0-0.4,0.1-0.6c0.1-0.2,0.2-0.3,0.4-0.5c0.7-0.5,1.4-0.9,2.3-1.2
				C75.6,100.5,76.5,100.4,77.3,100.4 M77.3,97.4c-1.2,0-2.4,0.2-3.6,0.6c-1.2,0.4-2.3,1-3.2,1.7c0,0,0,0,0,0
				c-0.5,0.4-0.9,0.9-1.2,1.4c-0.3,0.6-0.4,1.2-0.4,1.9c0,1,0.3,1.9,0.9,2.7c0.7,1,1.9,1.5,3,1.5c0.6,0,1.1-0.1,1.7-0.4
				c0.3-0.1,0.6-0.3,0.9-0.5c0.1-0.1,0.2-0.1,0.3-0.2c-0.1,0.1-0.1,0.1-0.2,0.2l-5.1,5.5c-0.9,0.9-1.3,2-1.3,3.3
				c0,1.1,0.4,2.2,1.2,3c0.8,0.8,1.9,1.3,3.1,1.3h8.5c2.6,0,4.3-1.7,4.3-4.2c0-2.1-1.4-3.7-3.4-4.1c0.8-0.9,1.3-1.7,1.7-2.6
				c0.6-1.2,0.9-2.5,0.9-3.9c0-2.2-0.8-4.1-2.4-5.4C81.5,98,79.6,97.4,77.3,97.4L77.3,97.4z"/>
		</g>
	</g>
</g>
<g>
	<path class="st0" d="M94.7,126.5c-0.8,0-1.5-0.7-1.5-1.5V89.9c0-0.8,0.7-1.5,1.5-1.5h35.1c0.8,0,1.5,0.7,1.5,1.5V125
		c0,0.8-0.7,1.5-1.5,1.5H94.7z"/>
	<path class="st0" d="M129.8,89.9V125H94.7V89.9H129.8 M129.8,86.9H94.7c-1.7,0-3,1.3-3,3V125c0,1.7,1.3,3,3,3h35.1c1.7,0,3-1.3,3-3
		V89.9C132.8,88.3,131.4,86.9,129.8,86.9L129.8,86.9z"/>
</g>
<g>
	<g>
		<g>
			<path class="st0" d="M112,118.1c-1.1,0-2.2-0.2-3.3-0.5c-1.1-0.4-2-0.9-2.8-1.5c-0.7-0.6-1-1.3-1-2.2c0-0.7,0.2-1.3,0.6-1.8
				c0.5-0.6,1.1-0.9,1.8-0.9c0.4,0,0.7,0.1,1,0.2c0.2,0.1,0.4,0.2,0.6,0.3c0,0,0.1,0,0.1,0.1c0.5,0.4,1,0.6,1.5,0.8
				c0.4,0.2,0.8,0.2,1.3,0.2c0.9,0,1.2-0.2,1.2-0.3c0.1-0.1,0.2-0.4,0.2-0.7c0-0.3-0.1-0.5-0.2-0.6c-0.1-0.1-0.4-0.3-1.4-0.3h-1.3
				c-0.8,0-1.5-0.3-2-0.9c-0.4-0.5-0.6-1.1-0.6-1.7c0-0.7,0.2-1.3,0.6-1.8c0.5-0.6,1.2-0.9,2-0.9h0.9c1.6,0,1.6-0.5,1.6-0.8
				c0-0.4-0.1-0.5-0.2-0.5c-0.2-0.2-0.5-0.2-0.8-0.2c-0.8,0-1.7,0.3-2.6,1c0,0-0.1,0.1-0.1,0.1c-0.3,0.2-0.5,0.3-0.6,0.3
				c-0.3,0.1-0.6,0.2-1,0.2c-0.7,0-1.4-0.3-1.8-0.9c-0.4-0.5-0.6-1.1-0.6-1.8c0-0.5,0.1-0.9,0.3-1.3c0.2-0.3,0.4-0.6,0.7-0.9
				c0.8-0.7,1.7-1.2,2.8-1.6c1-0.4,2.1-0.5,3.2-0.5c1.9,0,3.5,0.5,4.7,1.5c1.3,1,1.9,2.5,1.9,4.2c0,1.2-0.3,2.2-0.9,3.1
				c-0.1,0.1-0.2,0.3-0.3,0.4c0.2,0.2,0.4,0.4,0.6,0.6c0.7,0.9,1.1,2.1,1.1,3.4c0,1.8-0.7,3.3-2.1,4.4
				C115.7,117.6,114.1,118.1,112,118.1z"/>
			<path class="st0" d="M112.1,100.4c1.6,0,2.8,0.4,3.7,1.1c0.9,0.8,1.4,1.8,1.4,3.1c0,0.9-0.2,1.6-0.7,2.3
				c-0.4,0.7-1.1,1.1-1.9,1.4c0.9,0.2,1.7,0.7,2.2,1.4c0.5,0.7,0.8,1.5,0.8,2.5c0,1.4-0.5,2.4-1.5,3.3c-1,0.8-2.4,1.2-4.1,1.2
				c-1,0-1.9-0.1-2.8-0.4c-0.9-0.3-1.7-0.7-2.3-1.3c-0.3-0.3-0.5-0.7-0.5-1.1c0-0.3,0.1-0.6,0.3-0.8c0.2-0.2,0.4-0.3,0.7-0.3
				c0.1,0,0.3,0,0.4,0.1c0.1,0.1,0.3,0.1,0.5,0.3c0.6,0.4,1.2,0.7,1.8,1s1.2,0.3,1.9,0.3c1,0,1.7-0.2,2.2-0.6c0.5-0.4,0.7-1,0.7-1.8
				c0-0.8-0.3-1.4-0.8-1.8c-0.5-0.4-1.3-0.6-2.3-0.6h-1.3c-0.3,0-0.6-0.1-0.8-0.3c-0.2-0.2-0.3-0.5-0.3-0.8c0-0.3,0.1-0.6,0.3-0.8
				c0.2-0.2,0.5-0.3,0.8-0.3h0.9c2.1,0,3.1-0.8,3.1-2.3c0-0.7-0.2-1.3-0.7-1.7c-0.4-0.4-1-0.6-1.8-0.6c-1.1,0-2.3,0.4-3.5,1.3
				c-0.2,0.1-0.4,0.2-0.5,0.3c-0.1,0.1-0.3,0.1-0.4,0.1c-0.3,0-0.5-0.1-0.7-0.3c-0.2-0.2-0.3-0.5-0.3-0.8c0-0.2,0-0.4,0.1-0.6
				c0.1-0.2,0.2-0.3,0.4-0.5c0.6-0.5,1.4-0.9,2.3-1.2C110.3,100.5,111.2,100.4,112.1,100.4 M112.1,97.4c-1.2,0-2.5,0.2-3.7,0.6
				c-1.2,0.4-2.3,1-3.2,1.8c0,0-0.1,0.1-0.1,0.1c-0.4,0.4-0.8,0.8-1,1.3c-0.3,0.6-0.5,1.2-0.5,2c0,1,0.3,2,0.9,2.7
				c0.5,0.7,1.2,1.1,2,1.3c-0.1,0.4-0.2,0.8-0.2,1.2c0,0.5,0.1,0.9,0.2,1.3c-0.9,0.2-1.7,0.7-2.2,1.4c-0.6,0.8-0.9,1.7-0.9,2.7
				c0,1.3,0.6,2.5,1.5,3.3c0.9,0.8,2,1.4,3.3,1.8c1.2,0.4,2.5,0.6,3.8,0.6c2.4,0,4.4-0.6,5.9-1.9c1.7-1.4,2.6-3.3,2.6-5.6
				c0-1.6-0.4-3-1.2-4.1c0.6-1,0.8-2.1,0.9-3.4c0,0,0,0,0-0.1c0-2.2-0.9-4-2.5-5.4C116.3,98,114.4,97.4,112.1,97.4L112.1,97.4z"/>
		</g>
	</g>
</g>
<g>
	<path class="st0" d="M164.2,126.5c-0.8,0-1.5-0.7-1.5-1.5V89.9c0-0.8,0.7-1.5,1.5-1.5h35.1c0.8,0,1.5,0.7,1.5,1.5V125
		c0,0.8-0.7,1.5-1.5,1.5H164.2z"/>
	<path class="st0" d="M199.3,89.9V125h-35.1V89.9H199.3 M199.3,86.9h-35.1c-1.7,0-3,1.3-3,3V125c0,1.7,1.3,3,3,3h35.1
		c1.7,0,3-1.3,3-3V89.9C202.3,88.3,201,86.9,199.3,86.9L199.3,86.9z"/>
</g>
<g>
	<g>
		<g>
			<path class="st0" d="M181.9,118.1c-1.1,0-2.2-0.2-3.2-0.5c-1.1-0.4-2-0.9-2.8-1.5c-0.7-0.6-1.1-1.4-1.1-2.2
				c0-0.7,0.2-1.3,0.6-1.8c0.4-0.5,0.9-0.8,1.4-0.9c-0.2-0.1-0.4-0.2-0.6-0.4c-0.5-0.5-0.8-1.1-0.8-1.9v-7c0-1,0.4-1.7,0.8-2
				c0.4-0.4,1-0.8,2.1-0.8h7.5c2.1,0,2.8,1.4,2.8,2.6c0,1.2-0.7,2.6-2.8,2.6h-4.5v0.6c0.4-0.1,0.9-0.1,1.3-0.1
				c1.2,0,2.4,0.3,3.4,0.8c1,0.6,1.8,1.4,2.3,2.4c0.5,1,0.8,2.1,0.8,3.4c0,1.3-0.3,2.5-0.9,3.5c-0.6,1-1.5,1.9-2.6,2.4
				C184.5,117.8,183.3,118.1,181.9,118.1z M178.5,111.4c0.2,0.1,0.4,0.2,0.6,0.3c0.5,0.4,1,0.6,1.5,0.8c0.4,0.2,0.8,0.2,1.3,0.2
				c0.4,0,0.9-0.1,1.2-0.3c0.1-0.1,0.3-0.3,0.3-1c0-0.6-0.2-0.9-0.3-1c-0.1-0.1-0.4-0.4-1.1-0.4c-0.4,0-0.8,0.1-1.1,0.2
				c-0.3,0.1-0.6,0.3-1,0.6c0,0-0.1,0-0.1,0.1C179.4,111.2,178.9,111.3,178.5,111.4z"/>
			<path class="st0" d="M185.8,100.6c0.9,0,1.3,0.4,1.3,1.1c0,0.7-0.4,1.1-1.3,1.1h-6v4.3c0.8-0.5,1.7-0.8,2.8-0.8
				c1,0,1.9,0.2,2.6,0.6c0.8,0.4,1.3,1,1.8,1.8c0.4,0.8,0.6,1.6,0.6,2.6c0,1-0.2,1.9-0.7,2.7c-0.5,0.8-1.1,1.4-2,1.9
				c-0.9,0.4-1.9,0.7-3,0.7c-0.9,0-1.8-0.2-2.7-0.5s-1.7-0.7-2.3-1.2c-0.3-0.3-0.5-0.7-0.5-1.1c0-0.3,0.1-0.6,0.3-0.8
				c0.2-0.2,0.4-0.3,0.7-0.3c0.1,0,0.3,0,0.4,0.1s0.3,0.1,0.5,0.3c0.6,0.4,1.2,0.7,1.8,1c0.6,0.2,1.2,0.3,1.8,0.3
				c1,0,1.7-0.2,2.3-0.7s0.8-1.2,0.8-2.1c0-0.9-0.3-1.6-0.8-2.1s-1.3-0.8-2.2-0.8c-0.6,0-1.1,0.1-1.6,0.2c-0.5,0.2-0.9,0.4-1.4,0.8
				c-0.3,0.2-0.6,0.3-0.9,0.3c-0.3,0-0.6-0.1-0.8-0.3c-0.2-0.2-0.3-0.4-0.3-0.7v-7c0-0.4,0.1-0.7,0.4-1c0.2-0.2,0.6-0.4,1-0.4H185.8
				 M185.8,97.6h-7.5c-1.6,0-2.6,0.7-3.1,1.2c-0.6,0.6-1.2,1.6-1.2,3.1v7c0,0.7,0.2,1.4,0.5,2c0,0.1-0.1,0.1-0.1,0.2
				c-0.6,0.8-0.9,1.7-0.9,2.7c0,1.3,0.6,2.5,1.6,3.3c0,0,0,0,0,0c0.9,0.8,2,1.4,3.2,1.8c1.2,0.4,2.4,0.6,3.7,0.6
				c1.6,0,3.1-0.3,4.3-1c1.4-0.7,2.4-1.7,3.2-3c0.7-1.3,1.1-2.7,1.1-4.3c0-1.5-0.3-2.9-1-4.1c-0.4-0.8-0.9-1.4-1.5-2
				c1.3-0.7,2.1-2,2.1-3.6C190.2,99.3,188.4,97.6,185.8,97.6L185.8,97.6z"/>
		</g>
	</g>
</g>
<g>
	<path class="st0" d="M199,126.5c-0.8,0-1.5-0.7-1.5-1.5V89.9c0-0.8,0.7-1.5,1.5-1.5h35.1c0.8,0,1.5,0.7,1.5,1.5V125
		c0,0.8-0.7,1.5-1.5,1.5H199z"/>
	<path class="st0" d="M234.1,89.9V125H199V89.9H234.1 M234.1,86.9H199c-1.7,0-3,1.3-3,3V125c0,1.7,1.3,3,3,3h35.1c1.7,0,3-1.3,3-3
		V89.9C237.1,88.3,235.7,86.9,234.1,86.9L234.1,86.9z"/>
</g>
<g>
	<g>
		<g>
			<path class="st0" d="M217.1,118.1c-2.5,0-4.4-0.9-5.8-2.6c-1.3-1.6-2-3.9-2-6.7c0-1.9,0.3-3.6,0.9-5c0.6-1.5,1.5-2.7,2.7-3.6
				c1.2-0.9,2.6-1.3,4.2-1.3c1,0,2.1,0.2,3.1,0.5c1,0.4,1.9,0.9,2.7,1.5c0.3,0.3,0.6,0.6,0.8,0.9c0.2,0.4,0.3,0.8,0.3,1.3
				c0,0.7-0.2,1.3-0.6,1.8c-0.5,0.6-1.1,0.9-1.8,0.9c-0.1,0-0.2,0-0.4,0c0.8,0.5,1.5,1.3,2,2.2c0.5,1,0.8,2.1,0.8,3.3
				c0,1.3-0.3,2.4-0.9,3.5c-0.6,1-1.4,1.9-2.5,2.4C219.5,117.8,218.3,118.1,217.1,118.1z M216.9,110.1c-0.6,0-0.8,0.2-1,0.3
				c-0.2,0.2-0.3,0.4-0.3,1c0,0.6,0.2,0.9,0.3,1.1c0.2,0.2,0.4,0.3,1,0.3c0.5,0,0.7-0.2,0.9-0.3c0.1-0.2,0.3-0.4,0.3-1.1
				c0-0.6-0.2-0.9-0.3-1.1C217.6,110.2,217.4,110.1,216.9,110.1z M217.5,104.8c0.6,0,1.3,0.1,1.8,0.2c-0.9-0.5-1.6-0.8-2.1-0.8
				c-0.4,0-0.8,0.1-1.3,0.8C216.4,104.8,217,104.8,217.5,104.8z"/>
			<path class="st0" d="M217.1,100.4c0.9,0,1.7,0.2,2.6,0.5c0.9,0.3,1.6,0.7,2.2,1.2c0.2,0.2,0.3,0.3,0.4,0.5
				c0.1,0.2,0.1,0.3,0.1,0.6c0,0.3-0.1,0.6-0.3,0.8c-0.2,0.2-0.4,0.3-0.7,0.3c-0.1,0-0.3,0-0.4-0.1c-0.1-0.1-0.3-0.1-0.5-0.3
				c-1.2-0.9-2.4-1.3-3.3-1.3c-1.1,0-2,0.5-2.6,1.5c-0.6,1-1,2.4-1,4.3c0.3-0.7,0.9-1.2,1.5-1.6s1.5-0.6,2.3-0.6
				c0.9,0,1.8,0.2,2.5,0.6c0.7,0.4,1.3,1,1.7,1.8c0.4,0.8,0.6,1.7,0.6,2.6c0,1-0.2,1.9-0.7,2.7c-0.5,0.8-1.1,1.4-1.9,1.9
				s-1.7,0.7-2.7,0.7c-2,0-3.6-0.7-4.6-2c-1.1-1.4-1.6-3.3-1.6-5.8c0-1.7,0.3-3.2,0.8-4.5c0.5-1.3,1.2-2.2,2.2-2.9
				S215.8,100.4,217.1,100.4 M216.9,114.3c0.8,0,1.5-0.3,2-0.8c0.5-0.5,0.7-1.2,0.7-2.1s-0.2-1.6-0.7-2.1c-0.5-0.5-1.2-0.8-2-0.8
				c-0.8,0-1.5,0.3-2,0.8s-0.8,1.2-0.8,2.1c0,0.9,0.3,1.6,0.8,2.1C215.4,114.1,216.1,114.3,216.9,114.3 M217.1,97.4
				c-1.9,0-3.6,0.5-5.1,1.6c-1.4,1-2.5,2.4-3.2,4.2c-0.7,1.6-1,3.5-1,5.6c0,3.2,0.8,5.8,2.3,7.7c1.2,1.4,3.3,3.2,7,3.2
				c1.5,0,2.9-0.4,4.2-1.1c1.3-0.7,2.3-1.7,3-3c0.7-1.3,1.1-2.7,1.1-4.2c0-1.5-0.3-2.8-1-4c-0.2-0.3-0.3-0.6-0.5-0.8
				c0.2-0.2,0.4-0.4,0.6-0.6c0.6-0.8,0.9-1.7,0.9-2.7c0-0.7-0.2-1.4-0.5-2c-0.3-0.5-0.6-1-1.1-1.4c-0.9-0.8-1.9-1.4-3.1-1.8
				C219.5,97.6,218.3,97.4,217.1,97.4L217.1,97.4z"/>
		</g>
	</g>
</g>
<g>
	<path class="st0" d="M268.5,126.5c-0.8,0-1.5-0.7-1.5-1.5V89.9c0-0.8,0.7-1.5,1.5-1.5h35.1c0.8,0,1.5,0.7,1.5,1.5V125
		c0,0.8-0.7,1.5-1.5,1.5H268.5z"/>
	<path class="st0" d="M303.6,89.9V125h-35.1V89.9H303.6 M303.6,86.9h-35.1c-1.7,0-3,1.3-3,3V125c0,1.7,1.3,3,3,3h35.1
		c1.7,0,3-1.3,3-3V89.9C306.6,88.3,305.3,86.9,303.6,86.9L303.6,86.9z"/>
</g>
<g>
	<g>
		<g>
			<path class="st0" d="M286.1,118.1c-2.2,0-3.9-0.5-5.3-1.5c-1.4-1.1-2.2-2.6-2.2-4.5c0-1.3,0.4-2.4,1.1-3.4
				c0.2-0.2,0.4-0.4,0.6-0.6c-0.1-0.1-0.2-0.2-0.3-0.4c-0.6-0.9-0.9-1.9-0.9-3.1c0-1.8,0.7-3.3,2.1-4.3c1.3-1,2.9-1.5,5-1.5
				s3.7,0.5,5,1.5c1.4,1,2.1,2.5,2.1,4.3c0,1.2-0.3,2.2-0.9,3.1c-0.1,0.1-0.2,0.3-0.3,0.4c0.2,0.2,0.4,0.4,0.6,0.6
				c0.7,0.9,1,2.1,1,3.4c0,1.9-0.8,3.4-2.2,4.5C290,117.6,288.3,118.1,286.1,118.1z M286.1,111c-1.7,0-1.7,0.5-1.7,0.9
				c0,0.4,0,0.9,1.7,0.9s1.7-0.5,1.7-0.9C287.8,111.5,287.8,111,286.1,111z M286.1,104.2c-1.3,0-1.3,0.3-1.3,0.8
				c0,0.4,0.1,0.6,0.2,0.6c0.1,0.1,0.4,0.2,1.1,0.2s1-0.2,1.1-0.2c0,0,0.2-0.1,0.2-0.6C287.4,104.5,287.4,104.2,286.1,104.2z"/>
			<path class="st0" d="M286.1,100.4c1.7,0,3.1,0.4,4.1,1.1c1,0.8,1.5,1.8,1.5,3.1c0,0.9-0.2,1.6-0.7,2.3s-1.1,1.1-1.8,1.4
				c0.9,0.3,1.6,0.7,2.1,1.4c0.5,0.7,0.8,1.5,0.8,2.5c0,1.4-0.5,2.5-1.6,3.3s-2.5,1.2-4.4,1.2c-1.9,0-3.3-0.4-4.4-1.2
				s-1.6-1.9-1.6-3.3c0-1,0.3-1.8,0.8-2.5c0.5-0.7,1.2-1.1,2.2-1.4c-0.8-0.3-1.4-0.8-1.9-1.4c-0.4-0.6-0.7-1.4-0.7-2.2
				c0-1.3,0.5-2.4,1.5-3.1C283,100.8,284.4,100.4,286.1,100.4 M286.1,107.3c0.9,0,1.6-0.2,2.1-0.6s0.7-1,0.7-1.7
				c0-1.5-0.9-2.3-2.8-2.3s-2.8,0.8-2.8,2.3c0,0.8,0.2,1.3,0.7,1.7S285.2,107.3,286.1,107.3 M286.1,114.3c2.1,0,3.2-0.8,3.2-2.4
				c0-1.6-1.1-2.4-3.2-2.4s-3.2,0.8-3.2,2.4C282.9,113.5,283.9,114.3,286.1,114.3 M286.1,97.4c-2.4,0-4.4,0.6-5.9,1.8
				c-1.7,1.3-2.6,3.2-2.6,5.5c0,1.2,0.3,2.4,0.9,3.4c-0.8,1.2-1.2,2.6-1.2,4.1c0,2.3,1,4.3,2.8,5.7c1.6,1.2,3.6,1.8,6.2,1.8
				c2.5,0,4.6-0.6,6.2-1.8c1.8-1.4,2.8-3.3,2.8-5.7c0-1.6-0.4-2.9-1.2-4.1c0.6-1,0.8-2.2,0.8-3.4c0-2.3-0.9-4.2-2.6-5.5
				C290.5,98,288.5,97.4,286.1,97.4L286.1,97.4z"/>
		</g>
	</g>
</g>
<g>
	<path class="st0" d="M303.3,126.5c-0.8,0-1.5-0.7-1.5-1.5V89.9c0-0.8,0.7-1.5,1.5-1.5h35.1c0.8,0,1.5,0.7,1.5,1.5V125
		c0,0.8-0.7,1.5-1.5,1.5H303.3z"/>
	<path class="st0" d="M338.4,89.9V125h-35.1V89.9H338.4 M338.4,86.9h-35.1c-1.7,0-3,1.3-3,3V125c0,1.7,1.3,3,3,3h35.1
		c1.7,0,3-1.3,3-3V89.9C341.4,88.3,340,86.9,338.4,86.9L338.4,86.9z"/>
</g>
<g>
	<g>
		<g>
			<path class="st0" d="M320.3,118.1c-1,0-2.1-0.2-3.1-0.5c-1-0.4-1.9-0.9-2.7-1.5c-0.3-0.3-0.6-0.6-0.8-0.9
				c-0.2-0.4-0.3-0.8-0.3-1.3c0-0.7,0.2-1.3,0.6-1.8c0.5-0.6,1.1-0.9,1.8-0.9c0.1,0,0.2,0,0.4,0c-0.8-0.6-1.5-1.3-2-2.2
				c-0.5-1-0.8-2.1-0.8-3.3c0-1.3,0.3-2.4,0.9-3.5c0.6-1,1.4-1.9,2.5-2.4c1-0.6,2.2-0.9,3.5-0.9c2.5,0,4.4,0.9,5.8,2.6
				c1.3,1.6,2,3.9,2,6.7c0,1.9-0.3,3.6-0.9,5c-0.6,1.5-1.5,2.7-2.7,3.6C323.3,117.7,321.9,118.1,320.3,118.1z M318,112
				c0.9,0.5,1.6,0.8,2.1,0.8c0.4,0,0.8-0.1,1.3-0.8c-0.5,0.1-1,0.2-1.6,0.2C319.2,112.2,318.6,112.2,318,112z M320.5,104.2
				c-0.5,0-0.7,0.2-0.9,0.3c-0.1,0.2-0.3,0.4-0.3,1.1c0,0.6,0.2,0.9,0.3,1.1c0.1,0.1,0.4,0.3,0.9,0.3c0.6,0,0.8-0.2,1-0.3
				c0.2-0.2,0.4-0.4,0.4-1c0-0.6-0.2-0.9-0.3-1.1C321.3,104.4,321,104.2,320.5,104.2z"/>
			<path class="st0" d="M320.3,100.4c2,0,3.6,0.7,4.6,2c1.1,1.4,1.6,3.3,1.6,5.8c0,1.7-0.3,3.2-0.8,4.5s-1.2,2.2-2.2,2.9
				c-1,0.7-2.1,1-3.4,1c-0.9,0-1.7-0.2-2.6-0.5c-0.9-0.3-1.6-0.7-2.2-1.2c-0.2-0.2-0.3-0.3-0.4-0.5s-0.1-0.3-0.1-0.6
				c0-0.3,0.1-0.6,0.3-0.8c0.2-0.2,0.4-0.3,0.7-0.3c0.1,0,0.3,0,0.4,0.1s0.3,0.1,0.5,0.3c1.2,0.9,2.3,1.3,3.3,1.3
				c1.1,0,2-0.5,2.6-1.5c0.6-1,1-2.4,1-4.3c-0.3,0.7-0.9,1.2-1.5,1.6c-0.7,0.4-1.5,0.6-2.3,0.6c-0.9,0-1.8-0.2-2.5-0.6
				c-0.7-0.4-1.3-1-1.7-1.8c-0.4-0.8-0.6-1.7-0.6-2.6c0-1,0.2-1.9,0.7-2.7c0.5-0.8,1.1-1.4,1.9-1.9S319.3,100.4,320.3,100.4
				 M320.5,108.5c0.8,0,1.5-0.3,2-0.8c0.5-0.5,0.8-1.2,0.8-2.1c0-0.9-0.3-1.6-0.8-2.1s-1.2-0.8-2-0.8c-0.8,0-1.5,0.3-2,0.8
				c-0.5,0.5-0.7,1.2-0.7,2.1c0,0.9,0.2,1.6,0.7,2.1C319,108.2,319.7,108.5,320.5,108.5 M320.3,97.4c-1.5,0-2.9,0.4-4.2,1.1
				c-1.3,0.7-2.3,1.7-3,3c-0.7,1.3-1.1,2.7-1.1,4.2c0,1.5,0.3,2.8,1,4.1c0.2,0.3,0.3,0.6,0.5,0.8c-0.2,0.2-0.4,0.4-0.6,0.6
				c-0.6,0.8-0.9,1.7-0.9,2.7c0,0.7,0.2,1.4,0.5,2c0.3,0.5,0.6,1,1.1,1.4c0.9,0.8,1.9,1.4,3.1,1.8c1.2,0.4,2.4,0.6,3.6,0.6
				c1.9,0,3.6-0.5,5.1-1.6c1.4-1,2.5-2.4,3.2-4.2c0.7-1.6,1-3.5,1-5.6c0-3.2-0.8-5.8-2.3-7.7C326.2,99.1,324,97.4,320.3,97.4
				L320.3,97.4z"/>
		</g>
	</g>
</g>
<g>
	<path class="st0" d="M338.1,126.5c-0.8,0-1.5-0.7-1.5-1.5V89.9c0-0.8,0.7-1.5,1.5-1.5h35.1c0.8,0,1.5,0.7,1.5,1.5V125
		c0,0.8-0.7,1.5-1.5,1.5H338.1z"/>
	<path class="st0" d="M373.2,89.9V125h-35.1V89.9H373.2 M373.2,86.9h-35.1c-1.7,0-3,1.3-3,3V125c0,1.7,1.3,3,3,3h35.1
		c1.7,0,3-1.3,3-3V89.9C376.2,88.3,374.8,86.9,373.2,86.9L373.2,86.9z"/>
</g>
<g>
	<g>
		<g>
			<path class="st0" d="M346.4,117.9c-1.7,0-2.9-1.1-2.9-2.7c0-1.6,1.1-2.6,2.9-2.6h0.8v-6.1c-0.4,0.2-0.8,0.3-1.2,0.3
				c-0.8,0-1.5-0.3-2-1c-0.4-0.5-0.7-1.2-0.7-1.8c0-1,0.5-1.8,1.3-2.3l3.5-2.2c0.7-0.4,1.4-0.6,2.1-0.6c0.8,0,1.5,0.3,2.1,0.8
				c0.4,0.4,0.8,1,0.8,2.1v10.7h0.9c1.7,0,2.8,1,2.8,2.6c0,1.6-1.1,2.7-2.8,2.7H346.4z"/>
			<path class="st0" d="M350.2,100.5c0.4,0,0.8,0.1,1,0.4s0.4,0.6,0.4,1.1v12.2h2.4c0.9,0,1.3,0.4,1.3,1.1c0,0.8-0.4,1.2-1.3,1.2
				h-7.6c-0.9,0-1.4-0.4-1.4-1.2c0-0.8,0.5-1.1,1.4-1.1h2.3v-10.2l-2.2,1.3c-0.2,0.1-0.4,0.2-0.6,0.2c-0.3,0-0.6-0.1-0.8-0.4
				c-0.2-0.3-0.3-0.6-0.3-0.9c0-0.4,0.2-0.8,0.6-1l3.5-2.2C349.4,100.6,349.8,100.5,350.2,100.5 M350.2,97.5c-1,0-1.9,0.3-2.8,0.8
				l-3.5,2.2c-1.3,0.8-2,2.1-2,3.6c0,1,0.3,2,1,2.8c0.7,0.9,1.7,1.4,2.8,1.5v2.8c-2.2,0.3-3.7,1.9-3.7,4.1c0,2.5,1.8,4.2,4.4,4.2
				h7.6c2.6,0,4.3-1.7,4.3-4.2c0-2.2-1.5-3.8-3.7-4.1v-9.2c0-1.6-0.7-2.6-1.3-3.2C352.5,97.9,351.4,97.5,350.2,97.5L350.2,97.5z"/>
		</g>
		<g>
			<path class="st0" d="M361.8,118.1c-2.3,0-4.2-0.9-5.5-2.7c-1.2-1.7-1.8-3.9-1.8-6.9c0-2.9,0.6-5.3,1.8-6.9
				c1.3-1.8,3.2-2.7,5.5-2.7s4.2,0.9,5.5,2.7c1.2,1.7,1.8,3.9,1.8,6.9c0,3-0.6,5.2-1.8,6.9C366,117.2,364.1,118.1,361.8,118.1z
				 M361.8,104.2c-0.4,0-0.7,0.1-0.9,0.6c-0.2,0.5-0.5,1.5-0.5,3.8c0,2.2,0.3,3.3,0.5,3.8c0.2,0.5,0.5,0.6,0.9,0.6s0.6-0.1,0.9-0.6
				c0.2-0.5,0.5-1.6,0.5-3.8c0-2.2-0.3-3.3-0.5-3.8C362.5,104.3,362.3,104.2,361.8,104.2z"/>
			<path class="st0" d="M361.8,100.4c1.9,0,3.3,0.7,4.3,2.1c1,1.4,1.5,3.4,1.5,6s-0.5,4.6-1.5,6c-1,1.4-2.4,2.1-4.3,2.1
				s-3.3-0.7-4.3-2.1c-1-1.4-1.5-3.4-1.5-6.1c0-2.6,0.5-4.6,1.5-6C358.5,101.1,359.9,100.4,361.8,100.4 M361.8,114.4
				c1,0,1.8-0.5,2.2-1.4s0.7-2.4,0.7-4.5c0-2.1-0.2-3.5-0.7-4.5c-0.5-0.9-1.2-1.4-2.2-1.4c-1,0-1.8,0.5-2.2,1.4
				c-0.5,0.9-0.7,2.4-0.7,4.4c0,2,0.2,3.5,0.7,4.5C360,113.9,360.8,114.4,361.8,114.4 M361.8,97.4c-2.8,0-5.2,1.2-6.7,3.3
				c-1.4,1.9-2,4.5-2,7.8c0,3.3,0.7,5.9,2,7.8c1.6,2.2,3.9,3.3,6.7,3.3c2.9,0,5.2-1.2,6.7-3.4c1.4-1.9,2-4.5,2-7.8
				c0-3.3-0.7-5.8-2-7.8C367,98.5,364.6,97.4,361.8,97.4L361.8,97.4z"/>
		</g>
	</g>
</g>
<g>
	<path class="st0" d="M129.5,109c-0.8,0-1.5-0.7-1.5-1.5V72.4c0-0.8,0.7-1.5,1.5-1.5h35.1c0.8,0,1.5,0.7,1.5,1.5v35.1
		c0,0.8-0.7,1.5-1.5,1.5H129.5z"/>
	<path class="st0" d="M164.5,72.4v35.1h-35.1V72.4H164.5 M164.5,69.4h-35.1c-1.7,0-3,1.3-3,3v35.1c0,1.7,1.3,3,3,3h35.1
		c1.7,0,3-1.3,3-3V72.4C167.5,70.7,166.2,69.4,164.5,69.4L164.5,69.4z"/>
</g>
<g>
	<g>
		<g>
			<path class="st0" d="M149.5,100.5c-0.8,0-1.5-0.3-2.1-0.8c-0.4-0.4-0.8-1.1-0.8-2.2v-0.3h-4.4c-1,0-1.7-0.4-2-0.8
				c-0.5-0.5-0.8-1.2-0.8-1.9c0-0.7,0.2-1.3,0.6-1.9l6.9-9.9c0.3-0.4,0.7-0.7,1.1-1c0.4-0.2,0.9-0.3,1.4-0.3c0.8,0,1.5,0.3,2,0.8
				c0.4,0.4,0.9,1.1,0.9,2.2v7.7c0.7,0.1,1.2,0.3,1.6,0.6c0.4,0.3,0.9,1,0.9,2c0,1.1-0.7,2.5-2.5,2.6v0.3c0,1.1-0.5,1.8-0.8,2.2
				C151,100.2,150.3,100.5,149.5,100.5z"/>
			<path class="st0" d="M149.5,82.9c0.4,0,0.7,0.1,1,0.4c0.3,0.3,0.4,0.6,0.4,1.1v9.2h1.1c0.4,0,0.8,0.1,1,0.3s0.3,0.5,0.3,0.8
				c0,0.7-0.4,1.1-1.3,1.1h-1.1v1.8c0,0.5-0.1,0.8-0.4,1.1c-0.3,0.3-0.6,0.4-1,0.4c-0.4,0-0.8-0.1-1-0.4c-0.3-0.3-0.4-0.6-0.4-1.1
				v-1.8h-5.9c-0.4,0-0.7-0.1-0.9-0.3c-0.2-0.2-0.3-0.5-0.3-0.9c0-0.4,0.1-0.7,0.4-1l6.9-10c0.1-0.2,0.3-0.4,0.6-0.5
				C149,83,149.2,82.9,149.5,82.9 M143.9,93.5h4.2v-6L143.9,93.5 M149.5,79.9c-0.7,0-1.4,0.2-2,0.5c-0.7,0.3-1.2,0.8-1.7,1.4
				l-6.9,10c-0.6,0.8-0.9,1.8-0.9,2.8c0,1.1,0.4,2.2,1.2,2.9c0.8,0.8,1.9,1.3,3.1,1.3h3c0.2,0.9,0.7,1.6,1.2,2
				c0.8,0.8,1.9,1.2,3.1,1.2c1.2,0,2.3-0.4,3.1-1.2c0.5-0.5,1-1.2,1.2-2.3c1.6-0.6,2.6-2,2.6-3.8c0-1.2-0.5-2.3-1.4-3.1
				c-0.3-0.2-0.6-0.5-1.1-0.7v-6.5c0-1.3-0.5-2.5-1.4-3.3C151.6,80.3,150.6,79.9,149.5,79.9L149.5,79.9z"/>
		</g>
	</g>
</g>
<g>
	<path class="st0" d="M233.8,109c-0.8,0-1.5-0.7-1.5-1.5V72.4c0-0.8,0.7-1.5,1.5-1.5h35.1c0.8,0,1.5,0.7,1.5,1.5v35.1
		c0,0.8-0.7,1.5-1.5,1.5H233.8z"/>
	<path class="st0" d="M268.8,72.4v35.1h-35.1V72.4H268.8 M268.8,69.4h-35.1c-1.7,0-3,1.3-3,3v35.1c0,1.7,1.3,3,3,3h35.1
		c1.7,0,3-1.3,3-3V72.4C271.8,70.7,270.5,69.4,268.8,69.4L268.8,69.4z"/>
</g>
<g>
	<g>
		<g>
			<path class="st0" d="M248.4,100.6c-0.7,0-1.4-0.3-2-0.8c-0.6-0.5-0.9-1.2-0.9-2c0-0.5,0.1-1,0.4-1.5l5.2-9.4h-4.2
				c-1.7,0-2.8-1-2.8-2.6c0-1.6,1.1-2.7,2.8-2.7h9c1,0,1.6,0.4,2,0.8c0.5,0.5,0.7,1.2,0.7,1.9c0,0.6-0.2,1.2-0.5,1.8l-7.2,13
				C250.3,100,249.4,100.6,248.4,100.6z"/>
			<path class="st0" d="M255.9,83.1c0.4,0,0.7,0.1,0.9,0.3c0.2,0.2,0.3,0.5,0.3,0.8c0,0.3-0.1,0.7-0.3,1.1l-7.2,13
				c-0.3,0.5-0.7,0.8-1.2,0.8c-0.4,0-0.7-0.1-1-0.4c-0.3-0.2-0.4-0.6-0.4-0.9c0-0.3,0.1-0.5,0.2-0.8l6.4-11.6h-6.8
				c-0.9,0-1.3-0.4-1.3-1.1c0-0.8,0.4-1.2,1.3-1.2H255.9 M255.9,80.1h-9c-2.6,0-4.3,1.7-4.3,4.2c0,2.4,1.8,4.1,4.3,4.1h1.7l-4,7.2
				c-0.4,0.7-0.6,1.5-0.6,2.2c0,1.2,0.5,2.3,1.4,3.2c0.8,0.7,1.9,1.1,2.9,1.1c1.6,0,3-0.8,3.8-2.2c0,0,0,0,0-0.1l7.2-13
				c0.5-0.8,0.7-1.7,0.7-2.5c0-1.1-0.4-2.1-1.2-2.9C258.1,80.5,257.1,80.1,255.9,80.1L255.9,80.1z"/>
		</g>
	</g>
</g>
<rect x="25.2" y="89.9" class="st1" width="35.1" height="35.1"/>
<g>
	<g>
		<path class="st0" d="M48.5,115.2c0,0.8-0.4,1.2-1.3,1.2h-7.6c-0.9,0-1.4-0.4-1.4-1.2c0-0.8,0.5-1.1,1.4-1.1h2.3v-10.2l-2.2,1.3
			c-0.2,0.1-0.4,0.2-0.6,0.2c-0.3,0-0.6-0.1-0.8-0.4s-0.3-0.6-0.3-0.9c0-0.4,0.2-0.8,0.6-1l3.5-2.2c0.4-0.3,0.9-0.4,1.3-0.4
			c0.4,0,0.8,0.1,1,0.4c0.3,0.3,0.4,0.6,0.4,1.1v12.2h2.4C48.1,114.1,48.5,114.5,48.5,115.2z"/>
	</g>
</g>
<rect x="59.9" y="89.9" class="st2" width="35.1" height="35.1"/>
<g>
	<g>
		<path class="st0" d="M83.2,115.2c0,0.8-0.4,1.2-1.3,1.2h-8.5c-0.4,0-0.7-0.1-0.9-0.3c-0.2-0.2-0.3-0.5-0.3-0.9
			c0-0.4,0.2-0.9,0.5-1.2l5.1-5.5c0.6-0.7,1.1-1.3,1.4-1.9c0.3-0.6,0.4-1.1,0.4-1.7c0-0.7-0.2-1.2-0.6-1.6c-0.4-0.4-1-0.6-1.7-0.6
			c-0.6,0-1.2,0.1-1.8,0.3c-0.6,0.2-1.2,0.5-1.7,1c-0.1,0.1-0.3,0.2-0.4,0.3s-0.3,0.1-0.4,0.1c-0.3,0-0.5-0.1-0.7-0.4
			c-0.2-0.2-0.3-0.5-0.3-0.9c0-0.2,0-0.4,0.1-0.6c0.1-0.2,0.2-0.3,0.4-0.5c0.7-0.5,1.4-0.9,2.3-1.2c0.9-0.3,1.8-0.5,2.6-0.5
			c1.5,0,2.8,0.4,3.7,1.2c0.9,0.8,1.4,1.8,1.4,3.1c0,0.9-0.2,1.8-0.6,2.6c-0.4,0.8-1,1.7-2,2.7l-3.9,4.1h5.9
			C82.8,114.1,83.2,114.5,83.2,115.2z"/>
	</g>
</g>
<rect x="94.7" y="89.9" class="st3" width="35.1" height="35.1"/>
<g>
	<g>
		<path class="st0" d="M116.8,109.7c0.5,0.7,0.8,1.5,0.8,2.5c0,1.4-0.5,2.4-1.5,3.3c-1,0.8-2.4,1.2-4.1,1.2c-1,0-1.9-0.1-2.8-0.4
			c-0.9-0.3-1.7-0.7-2.3-1.3c-0.3-0.3-0.5-0.7-0.5-1.1c0-0.3,0.1-0.6,0.3-0.8c0.2-0.2,0.4-0.3,0.7-0.3c0.1,0,0.3,0,0.4,0.1
			c0.1,0.1,0.3,0.1,0.5,0.3c0.6,0.4,1.2,0.7,1.8,1s1.2,0.3,1.9,0.3c1,0,1.7-0.2,2.2-0.6c0.5-0.4,0.7-1,0.7-1.8
			c0-0.8-0.3-1.4-0.8-1.8c-0.5-0.4-1.3-0.6-2.3-0.6h-1.3c-0.3,0-0.6-0.1-0.8-0.3s-0.3-0.5-0.3-0.8c0-0.3,0.1-0.6,0.3-0.8
			s0.5-0.3,0.8-0.3h0.9c2.1,0,3.1-0.8,3.1-2.3c0-0.7-0.2-1.3-0.7-1.7c-0.4-0.4-1-0.6-1.8-0.6c-1.1,0-2.3,0.4-3.5,1.3
			c-0.2,0.1-0.4,0.2-0.5,0.3c-0.1,0.1-0.3,0.1-0.4,0.1c-0.3,0-0.5-0.1-0.7-0.3c-0.2-0.2-0.3-0.5-0.3-0.8c0-0.2,0-0.4,0.1-0.6
			c0.1-0.2,0.2-0.3,0.4-0.5c0.6-0.5,1.4-0.9,2.3-1.2c0.9-0.3,1.8-0.5,2.7-0.5c1.6,0,2.8,0.4,3.7,1.1c0.9,0.8,1.4,1.8,1.4,3.1
			c0,0.9-0.2,1.6-0.7,2.3c-0.4,0.7-1.1,1.1-1.9,1.4C115.6,108.5,116.3,109,116.8,109.7z"/>
	</g>
</g>
<rect x="164.2" y="89.9" class="st1" width="35.1" height="35.1"/>
<g>
	<g>
		<path class="st0" d="M185.2,106.9c0.8,0.4,1.3,1,1.8,1.8c0.4,0.8,0.6,1.6,0.6,2.6c0,1-0.2,1.9-0.7,2.7c-0.5,0.8-1.1,1.4-2,1.9
			c-0.9,0.4-1.9,0.7-3,0.7c-0.9,0-1.8-0.2-2.7-0.5s-1.7-0.7-2.3-1.2c-0.3-0.3-0.5-0.7-0.5-1.1c0-0.3,0.1-0.6,0.3-0.8
			c0.2-0.2,0.4-0.3,0.7-0.3c0.1,0,0.3,0,0.4,0.1s0.3,0.1,0.5,0.3c0.6,0.4,1.2,0.7,1.8,1c0.6,0.2,1.2,0.3,1.8,0.3
			c1,0,1.7-0.2,2.3-0.7s0.8-1.2,0.8-2.1c0-0.9-0.3-1.6-0.8-2.1s-1.3-0.8-2.2-0.8c-0.6,0-1.1,0.1-1.6,0.2c-0.5,0.2-0.9,0.4-1.4,0.8
			c-0.3,0.2-0.6,0.3-0.9,0.3c-0.3,0-0.6-0.1-0.8-0.3c-0.2-0.2-0.3-0.4-0.3-0.7v-7c0-0.4,0.1-0.7,0.4-1c0.2-0.2,0.6-0.4,1-0.4h7.5
			c0.9,0,1.3,0.4,1.3,1.1c0,0.7-0.4,1.1-1.3,1.1h-6v4.3c0.8-0.5,1.7-0.8,2.8-0.8C183.6,106.3,184.5,106.5,185.2,106.9z"/>
	</g>
</g>
<rect x="199" y="89.9" class="st2" width="35.1" height="35.1"/>
<g>
	<g>
		<path class="st0" d="M220,106.9c0.7,0.4,1.3,1,1.7,1.8c0.4,0.8,0.6,1.7,0.6,2.6c0,1-0.2,1.9-0.7,2.7c-0.5,0.8-1.1,1.4-1.9,1.9
			s-1.7,0.7-2.7,0.7c-2,0-3.6-0.7-4.6-2c-1.1-1.4-1.6-3.3-1.6-5.8c0-1.7,0.3-3.2,0.8-4.5c0.5-1.3,1.2-2.2,2.2-2.9s2.1-1,3.4-1
			c0.9,0,1.7,0.2,2.6,0.5c0.9,0.3,1.6,0.7,2.2,1.2c0.2,0.2,0.3,0.3,0.4,0.5c0.1,0.2,0.1,0.3,0.1,0.6c0,0.3-0.1,0.6-0.3,0.8
			c-0.2,0.2-0.4,0.3-0.7,0.3c-0.1,0-0.3,0-0.4-0.1c-0.1-0.1-0.3-0.1-0.5-0.3c-1.2-0.9-2.4-1.3-3.3-1.3c-1.1,0-2,0.5-2.6,1.5
			c-0.6,1-1,2.4-1,4.3c0.3-0.7,0.9-1.2,1.5-1.6s1.5-0.6,2.3-0.6C218.4,106.3,219.3,106.5,220,106.9z M218.9,113.5
			c0.5-0.5,0.7-1.2,0.7-2.1s-0.2-1.6-0.7-2.1c-0.5-0.5-1.2-0.8-2-0.8c-0.8,0-1.5,0.3-2,0.8s-0.8,1.2-0.8,2.1c0,0.9,0.3,1.6,0.8,2.1
			c0.5,0.5,1.2,0.8,2,0.8C217.7,114.3,218.4,114.1,218.9,113.5z"/>
	</g>
</g>
<rect x="268.5" y="89.9" class="st4" width="35.1" height="35.1"/>
<g>
	<g>
		<path class="st0" d="M291.3,109.7c0.5,0.7,0.8,1.5,0.8,2.5c0,1.4-0.5,2.5-1.6,3.3s-2.5,1.2-4.4,1.2c-1.9,0-3.3-0.4-4.4-1.2
			s-1.6-1.9-1.6-3.3c0-1,0.3-1.8,0.8-2.5c0.5-0.7,1.2-1.1,2.2-1.4c-0.8-0.3-1.4-0.8-1.9-1.4c-0.4-0.6-0.7-1.4-0.7-2.2
			c0-1.3,0.5-2.4,1.5-3.1c1-0.8,2.3-1.1,4.1-1.1c1.7,0,3.1,0.4,4.1,1.1c1,0.8,1.5,1.8,1.5,3.1c0,0.9-0.2,1.6-0.7,2.3
			s-1.1,1.1-1.8,1.4C290,108.5,290.8,109,291.3,109.7z M289.3,111.9c0-1.6-1.1-2.4-3.2-2.4s-3.2,0.8-3.2,2.4c0,1.6,1.1,2.4,3.2,2.4
			S289.3,113.5,289.3,111.9z M283.3,105c0,0.8,0.2,1.3,0.7,1.7s1.2,0.6,2.1,0.6c0.9,0,1.6-0.2,2.1-0.6s0.7-1,0.7-1.7
			c0-1.5-0.9-2.3-2.8-2.3S283.3,103.4,283.3,105z"/>
	</g>
</g>
<rect x="303.3" y="89.9" class="st1" width="35.1" height="35.1"/>
<g>
	<g>
		<path class="st0" d="M325,102.4c1.1,1.4,1.6,3.3,1.6,5.8c0,1.7-0.3,3.2-0.8,4.5s-1.2,2.2-2.2,2.9c-1,0.7-2.1,1-3.4,1
			c-0.9,0-1.7-0.2-2.6-0.5c-0.9-0.3-1.6-0.7-2.2-1.2c-0.2-0.2-0.3-0.3-0.4-0.5s-0.1-0.3-0.1-0.6c0-0.3,0.1-0.6,0.3-0.8
			c0.2-0.2,0.4-0.3,0.7-0.3c0.1,0,0.3,0,0.4,0.1s0.3,0.1,0.5,0.3c1.2,0.9,2.3,1.3,3.3,1.3c1.1,0,2-0.5,2.6-1.5c0.6-1,1-2.4,1-4.3
			c-0.3,0.7-0.9,1.2-1.5,1.6c-0.7,0.4-1.5,0.6-2.3,0.6c-0.9,0-1.8-0.2-2.5-0.6c-0.7-0.4-1.3-1-1.7-1.8c-0.4-0.8-0.6-1.7-0.6-2.6
			c0-1,0.2-1.9,0.7-2.7c0.5-0.8,1.1-1.4,1.9-1.9s1.7-0.7,2.7-0.7C322.3,100.4,323.9,101.1,325,102.4z M322.5,107.7
			c0.5-0.5,0.8-1.2,0.8-2.1c0-0.9-0.3-1.6-0.8-2.1s-1.2-0.8-2-0.8c-0.8,0-1.5,0.3-2,0.8c-0.5,0.5-0.7,1.2-0.7,2.1
			c0,0.9,0.2,1.6,0.7,2.1c0.5,0.5,1.2,0.8,2,0.8C321.3,108.5,322,108.2,322.5,107.7z"/>
	</g>
</g>
<rect x="338.1" y="89.9" class="st2" width="35.1" height="35.1"/>
<g>
	<g>
		<path class="st0" d="M355.3,115.2c0,0.8-0.4,1.2-1.3,1.2h-7.6c-0.9,0-1.4-0.4-1.4-1.2c0-0.8,0.5-1.1,1.4-1.1h2.3v-10.2l-2.2,1.3
			c-0.2,0.1-0.4,0.2-0.6,0.2c-0.3,0-0.6-0.1-0.8-0.4c-0.2-0.3-0.3-0.6-0.3-0.9c0-0.4,0.2-0.8,0.6-1l3.5-2.2c0.4-0.3,0.9-0.4,1.3-0.4
			c0.4,0,0.8,0.1,1,0.4s0.4,0.6,0.4,1.1v12.2h2.4C354.9,114.1,355.3,114.5,355.3,115.2z"/>
		<path class="st0" d="M357.5,114.5c-1-1.4-1.5-3.4-1.5-6.1c0-2.6,0.5-4.6,1.5-6c1-1.4,2.4-2.1,4.3-2.1s3.3,0.7,4.3,2.1
			c1,1.4,1.5,3.4,1.5,6s-0.5,4.6-1.5,6c-1,1.4-2.4,2.1-4.3,2.1S358.5,115.9,357.5,114.5z M364,113c0.5-0.9,0.7-2.4,0.7-4.5
			c0-2.1-0.2-3.5-0.7-4.5c-0.5-0.9-1.2-1.4-2.2-1.4c-1,0-1.8,0.5-2.2,1.4c-0.5,0.9-0.7,2.4-0.7,4.4c0,2,0.2,3.5,0.7,4.5
			c0.5,0.9,1.2,1.4,2.2,1.4C362.8,114.4,363.6,113.9,364,113z"/>
	</g>
</g>
<rect x="129.5" y="72.4" class="st4" width="35.1" height="35.1"/>
<g>
	<g>
		<path class="st0" d="M153.1,93.8c0.2,0.2,0.3,0.5,0.3,0.8c0,0.7-0.4,1.1-1.3,1.1h-1.1v1.8c0,0.5-0.1,0.8-0.4,1.1
			c-0.3,0.3-0.6,0.4-1,0.4c-0.4,0-0.8-0.1-1-0.4c-0.3-0.3-0.4-0.6-0.4-1.1v-1.8h-5.9c-0.4,0-0.7-0.1-0.9-0.3
			c-0.2-0.2-0.3-0.5-0.3-0.9c0-0.4,0.1-0.7,0.4-1l6.9-10c0.1-0.2,0.3-0.4,0.6-0.5c0.2-0.1,0.5-0.2,0.7-0.2c0.4,0,0.7,0.1,1,0.4
			c0.3,0.3,0.4,0.6,0.4,1.1v9.2h1.1C152.5,93.5,152.8,93.6,153.1,93.8z M143.9,93.5h4.2v-6L143.9,93.5z"/>
	</g>
</g>
<rect x="233.8" y="72.4" class="st3" width="35.1" height="35.1"/>
<g>
	<g>
		<path class="st0" d="M256.8,83.4c0.2,0.2,0.3,0.5,0.3,0.8c0,0.3-0.1,0.7-0.3,1.1l-7.2,13c-0.3,0.5-0.7,0.8-1.2,0.8
			c-0.4,0-0.7-0.1-1-0.4c-0.3-0.2-0.4-0.6-0.4-0.9c0-0.3,0.1-0.5,0.2-0.8l6.4-11.6h-6.8c-0.9,0-1.3-0.4-1.3-1.1
			c0-0.8,0.4-1.2,1.3-1.2h9C256.3,83.1,256.6,83.2,256.8,83.4z"/>
	</g>
</g>
<g>
	<g>
		<g>
			<path class="st5" d="M179.3,80.2c2.2-9.2,11-16.1,21.5-16.1c7.5,0,14,3.5,18,8.8"/>
			<g>
				<path class="st0" d="M184,80.7c-0.3,2.5-2.6,4.3-5.2,4c-2.5-0.3-4.3-2.6-4-5.2c0.3-2.5,2.6-4.3,5.2-4
					C182.5,75.8,184.3,78.1,184,80.7z"/>
			</g>
			<g>
				<path class="st0" d="M218.4,72.4c0.7-2.3,3.2-4.8,5.2-5.9c-1.5,3.6-2.5,7.6-2,11.5c-3.1-2.5-7.1-3.6-11-4.2
					C212.9,72.7,215.8,71.7,218.4,72.4z"/>
			</g>
		</g>
	</g>
</g>
<circle class="st2" cx="198.4" cy="30.1" r="28.2"/>
<g>
	<path class="st0" d="M197.1,31.1c0.3,0.3,0.4,0.6,0.4,1c0,0.4-0.1,0.8-0.4,1c-0.3,0.3-0.6,0.4-1,0.4h-5.2v5.2
		c0,0.4-0.1,0.8-0.4,1.1c-0.3,0.3-0.6,0.4-1,0.4c-0.4,0-0.8-0.1-1-0.4c-0.3-0.3-0.4-0.6-0.4-1.1v-5.2h-5.2c-0.4,0-0.8-0.1-1-0.4
		c-0.3-0.3-0.4-0.6-0.4-1c0-0.4,0.1-0.8,0.4-1c0.3-0.3,0.6-0.4,1-0.4h5.2v-5.2c0-0.4,0.1-0.8,0.4-1c0.3-0.3,0.6-0.4,1-0.4
		c0.4,0,0.8,0.1,1,0.4c0.3,0.3,0.4,0.6,0.4,1v5.2h5.2C196.5,30.7,196.9,30.8,197.1,31.1z"/>
	<path class="st0" d="M212.9,31.6c0.7,1,1.1,2.2,1.1,3.7c0,2-0.7,3.6-2.2,4.8c-1.5,1.2-3.5,1.8-6,1.8c-1.4,0-2.8-0.2-4.2-0.7
		c-1.3-0.4-2.5-1.1-3.4-1.9c-0.5-0.4-0.8-1-0.8-1.6c0-0.5,0.1-0.9,0.4-1.2c0.3-0.3,0.6-0.5,1-0.5c0.2,0,0.4,0,0.6,0.1
		c0.2,0.1,0.4,0.2,0.7,0.4c0.9,0.6,1.8,1.1,2.7,1.4c0.8,0.3,1.8,0.5,2.8,0.5c1.5,0,2.5-0.3,3.3-0.9c0.7-0.6,1.1-1.5,1.1-2.7
		c0-1.2-0.4-2-1.1-2.6c-0.7-0.6-1.9-0.8-3.4-0.8h-1.9c-0.5,0-0.9-0.2-1.2-0.5c-0.3-0.3-0.4-0.7-0.4-1.2c0-0.5,0.1-0.9,0.4-1.2
		c0.3-0.3,0.7-0.5,1.2-0.5h1.3c3,0,4.6-1.1,4.6-3.4c0-1.1-0.3-1.9-1-2.5c-0.6-0.6-1.5-0.9-2.7-0.9c-1.6,0-3.3,0.6-5.2,1.9
		c-0.3,0.2-0.6,0.3-0.7,0.4c-0.2,0.1-0.4,0.1-0.6,0.1c-0.4,0-0.7-0.2-1-0.5c-0.3-0.3-0.4-0.8-0.4-1.2c0-0.3,0.1-0.6,0.2-0.8
		c0.1-0.2,0.3-0.5,0.6-0.7c0.9-0.8,2-1.4,3.3-1.8c1.3-0.5,2.6-0.7,4-0.7c2.3,0,4.1,0.6,5.5,1.7c1.4,1.1,2,2.6,2,4.5
		c0,1.3-0.4,2.4-1,3.4c-0.7,1-1.6,1.7-2.7,2.1C211,30,212.1,30.6,212.9,31.6z"/>
</g>
</svg>
