<?xml version="1.0" encoding="utf-8"?>
<!-- Generator: Adobe Illustrator 22.1.0, SVG Export Plug-In . SVG Version: 6.00 Build 0)  -->
<svg version="1.1" id="Layer_1" xmlns="http://www.w3.org/2000/svg" xmlns:xlink="http://www.w3.org/1999/xlink" x="0px" y="0px"
	 viewBox="0 0 300 300" style="enable-background:new 0 0 300 300;" xml:space="preserve">
<style type="text/css">
	.st0{fill:#FFFFFF;}
	.st1{fill:#71C285;}
	.st2{fill:#4C8056;}
	.st3{fill:#88C057;}
	.st4{fill:#805333;}
	.st5{fill:#6D4717;}
	.st6{fill:#FFE443;}
	.st7{fill:none;stroke:#FFE443;stroke-width:4;stroke-linecap:round;stroke-linejoin:round;stroke-miterlimit:10;}
	.st8{fill:none;stroke:#FFE443;stroke-width:2;stroke-linecap:round;stroke-linejoin:round;stroke-miterlimit:10;}
	.st9{fill:#BA770C;}
	.st10{fill:#60025E;}
	.st11{enable-background:new    ;}
	.st12{fill:#8F5E21;}
	.st13{fill:#C6872C;}
</style>
<g>
	<path class="st0" d="M12.5,275.7c-5.2,0-9.4-4.2-9.4-9.4c0-1.6,0.4-3.1,1.1-4.5c0.1-0.3,0.2-0.6,0.3-0.8l50.3-79.8
		c-6.3-17-11.9-37.7-13.8-45.2c-0.4-0.3-0.8-0.6-1.1-1c-0.7-0.5-1.3-0.7-2-0.7c-0.6,0-1.2,0.2-1.9,0.5c-4.6,2.1-8.8,9.4-8.3,14.5
		c0.2,2.8-1.7,5-4.4,5.2c-0.1,0-0.3,0-0.4,0c-2.5,0-4.6-1.9-4.8-4.4c-0.6-6.8,2.8-14.6,7.9-19.8c-4.1,0.4-7.9,2.1-10.9,5
		c-0.9,0.9-2.1,1.4-3.4,1.4c-1.3,0-2.5-0.5-3.4-1.4c-1.9-1.9-1.9-4.8,0-6.7c4-3.9,9-6.5,14.4-7.5c-0.5-0.5-1-1.2-1.2-1.9
		c-0.4-1.2-0.3-2.5,0.3-3.7c0.6-1.1,1.6-2,2.8-2.4c1.4-0.4,3-0.7,4.6-0.7c3.9,0,7.9,1.3,11.2,3.6c1.3,0.9,2.4,1.9,3.4,3.1
		c2.1-2.3,4.7-4.2,7.9-5.5c2.7-1.1,5.6-1.7,8.5-1.7c5.5,0,10.7,2.1,14.3,5.7c1,0.9,1.5,2.1,1.5,3.3c0,1.3-0.5,2.5-1.4,3.4
		c-0.1,0.1-0.3,0.3-0.5,0.4c1.9,1.2,3.7,2.6,5.3,4.2c0,0,0.1,0.1,0.1,0.1c1.7,1.9,1.6,4.8-0.2,6.6c-0.9,0.9-2.1,1.4-3.4,1.4
		c-1.3,0-2.5-0.5-3.4-1.4c-2-2-4.4-3.5-7.1-4.4c4.7,4.5,8,10.6,7,16.2c-0.2,1.1-0.6,1.9-1.3,2.6c-0.9,0.9-2.1,1.4-3.3,1.4
		c-0.3,0-0.7,0-1-0.1c-2.5-0.5-4.1-2.9-3.7-5.5c0.4-2.3-2.8-7.6-8-10.4c-0.8-0.4-2.4-1.2-4-1.3c2.2,7.4,6.5,20.8,11.8,34.2
		l26.5-42.1C80.7,113.4,76,98.6,76,83.1c0-41.3,33.6-74.9,74.9-74.9s74.9,33.6,74.9,74.9c0,16.1-5,31.4-14.5,44.3l41.5,65.9
		c3-10.4,7.1-21.4,8.9-26.4c-0.1-0.1-0.3-0.1-0.7-0.1c-2.3,0-5.7,2.4-6.5,4.6c-0.5,1.5-1.9,2.5-3.6,2.5c-0.4,0-0.8-0.1-1.1-0.2
		c-0.9-0.3-1.7-0.9-2.2-1.8c-0.5-0.9-0.6-2-0.3-3c1-2.9,3.5-5.6,6.3-7.4c-1,0-2,0.2-2.9,0.5c-0.1,0-0.1,0-0.2,0
		c-0.4,0.1-0.7,0.2-1.1,0.2c-1.7,0-3.1-1.1-3.6-2.7c-0.3-0.9-0.2-1.9,0.2-2.7c0.4-0.9,1.2-1.6,2.2-1.9c1.8-0.6,3.6-1,5.5-1
		c0.9,0,1.7,0.1,2.5,0.2c0.3-1.8,1.8-3.2,3.7-3.2c0.2,0,0.4,0,0.5,0c2.4,0.3,5.9,2.1,8,5.6c0.3,0.5,0.5,1,0.7,1.5
		c1.2-0.4,2.6-0.6,3.9-0.6c0.2,0,0.4,0,0.6,0c5.3,0.3,9.9,3.5,11.5,8c0.4,1,0.4,2.1-0.1,3c-0.3,0.5-0.6,1-1.1,1.3
		c0.4,0.8,0.8,1.6,1.1,2.4c0,0.1,0,0.1,0.1,0.2c0.6,1.9-0.4,3.9-2.2,4.7c-0.1,0-0.2,0.1-0.3,0.1c-0.4,0.1-0.7,0.2-1.1,0.2
		c-1.2,0-2.2-0.5-2.9-1.4c0,1.7-0.4,3.2-1.2,4.6c-0.4,1.1-1.3,1.9-2.5,2c-0.3,0.1-0.5,0.1-0.8,0.1c-0.8,0-1.6-0.2-2.2-0.7
		c-1.7-1.2-2.1-3.5-0.9-5.2c0.4-0.7,0.1-3.5-1.6-5.7c-0.2-0.3-0.4-0.5-0.6-0.7c-4.4,13.8-7.4,25.3-9,34.1l35.6,56.5
		c0.2,0.3,0.3,0.6,0.4,1c0.7,1.3,1.1,2.8,1.1,4.3c0,5.2-4.2,9.5-9.4,9.5H12.5z"/>
	<path class="st0" d="M150.9,10.7c40,0,72.4,32.4,72.4,72.4c0,16.6-5.6,31.9-15.1,44.2l45.4,72.1c3.2-12.3,8.8-27.4,10.7-32.7
		c0-0.1-0.1-0.1-0.1-0.2c0,0,0,0,0,0c0-0.1,0-0.1,0-0.2c-0.6-1.4-1.7-2-3.3-2c-3.4,0-7.7,3.1-8.9,6.3c-0.2,0.6-0.7,0.9-1.2,0.9
		c-0.1,0-0.3,0-0.4-0.1c-0.7-0.2-1-1-0.8-1.6c1.5-4.2,6.8-7.9,11.2-7.9c0.1,0,0.2,0,0.3,0c-2-1.8-4.7-2.8-7.5-2.8
		c-1.3,0-2.6,0.2-3.9,0.7c-0.1,0-0.3,0.1-0.4,0.1c-0.5,0-1-0.3-1.2-0.9c-0.2-0.7,0.1-1.4,0.8-1.6c1.6-0.6,3.1-0.8,4.7-0.8
		c4.5,0,8.7,2.2,11.3,5.9c0-1.1-0.3-2.2-0.9-3.1c-1.1-1.9-3-3-4.3-3.2c-0.7-0.1-1.2-0.7-1.1-1.4c0.1-0.6,0.6-1.1,1.2-1.1
		c0.1,0,0.1,0,0.2,0c1.9,0.2,4.6,1.7,6.2,4.4c0.5,1,1,2.2,1.1,3.8c1.6-1.1,3.5-1.8,5.6-1.8c0.2,0,0.3,0,0.5,0c4.2,0.2,8,2.7,9.3,6.4
		c0.3,0.7,0,1.4-0.7,1.6c-0.1,0-0.3,0.1-0.4,0.1c-0.5,0-1-0.3-1.2-0.9c-1-2.7-3.8-4.6-7-4.7c-0.1,0-0.2,0-0.3,0
		c-1.8,0-3.4,0.5-4.7,1.5c0.4,0,0.8-0.1,1.2-0.1c5.7,0,10.9,3.5,13,9.1c0.2,0.7-0.1,1.4-0.8,1.7c-0.1,0-0.3,0.1-0.4,0.1
		c-0.5,0-1-0.3-1.2-0.9c-1.3-3.7-4.4-6.3-8-7.1c0.3,0.3,0.7,0.7,1,1.1c2.5,3.3,3.8,8.6,1.7,11.6c0,0.3-0.2,0.5-0.5,0.5
		c-0.1,0-0.3,0.1-0.4,0.1c-0.3,0-0.5-0.1-0.8-0.3c-0.6-0.4-0.7-1.2-0.3-1.8c1.2-1.7,0.5-5.8-1.7-8.6c-0.8-1-2.3-2.5-4.1-2.6
		c-1.8,5.6-7.7,23.8-10.1,38l36.1,57.3h-0.2c0.8,1.1,1.3,2.5,1.3,4c0,3.8-3.1,6.9-6.9,6.9h-275c-3.8,0-6.9-3.1-6.9-6.9
		c0-1.5,0.5-2.9,1.3-4H6.7l50.9-80.8c-6.5-17.1-12.2-38.5-14.5-47.2c-0.6-0.2-1.1-0.5-1.3-1c-1.2-1-2.5-1.5-3.9-1.5
		c-0.9,0-1.9,0.2-2.9,0.7c-5.6,2.6-10.4,10.9-9.8,17c0.1,1.3-0.8,2.4-2.1,2.5c-0.1,0-0.1,0-0.2,0c-1.2,0-2.2-0.9-2.3-2.1
		c-0.7-8,5-18,12.3-21.5c-1.7-0.4-3.4-0.7-5.2-0.7c-5.2,0-10.4,1.9-14.3,5.8c-0.5,0.5-1,0.7-1.6,0.7c-0.6,0-1.1-0.2-1.6-0.7
		c-0.9-0.9-0.9-2.3,0-3.2c4.9-4.8,11.2-7.2,17.6-7.2c4.3,0,8.7,1.1,12.5,3.3c-0.9-1.9-2.2-3.5-3.9-4.7c-2.3-1.6-4.9-2.3-7.1-2.3
		c-0.9,0-1.7,0.1-2.4,0.4c-0.2,0.1-0.5,0.1-0.7,0.1c-1,0-1.9-0.6-2.2-1.6c-0.4-1.2,0.3-2.5,1.5-2.9c1.1-0.4,2.4-0.5,3.8-0.5
		c3,0,6.6,0.9,9.7,3.1c1.6,1.2,3.4,2.9,4.8,5.4c1.9-3.2,5-5.8,8.9-7.5c2.5-1,5-1.5,7.6-1.5c4.8,0,9.3,1.7,12.5,5
		c1,0.9,1,2.3,0.1,3.2c-0.5,0.4-1,0.7-1.6,0.7c-0.6,0-1.1-0.2-1.6-0.7c-2.3-2.4-5.7-3.7-9.3-3.7c-2,0-4,0.4-5.9,1.2
		c-3.3,1.3-5.8,3.6-7.1,6.5c3.9-2.2,8.2-3.3,12.5-3.3c6.5,0,12.9,2.5,17.8,7.4c0.8,0.9,0.8,2.3-0.1,3.2c-0.4,0.4-1,0.7-1.6,0.7
		s-1.2-0.2-1.6-0.7c-4-4-9.3-6.1-14.6-6.1c-1.2,0-2.4,0.1-3.6,0.3c0.7,0.3,1.5,0.6,2.3,1c6.6,3.5,12.8,11.3,11.6,17.8
		c-0.1,0.6-0.3,1-0.6,1.3c-0.4,0.4-1,0.7-1.5,0.7c-0.2,0-0.3,0-0.5-0.1c-1.2-0.2-2-1.4-1.8-2.7c0.7-3.8-3.7-10-9.3-13
		c-1.5-0.8-3.6-1.7-5.9-1.7c-0.9,0-1.7,0.1-2.6,0.4c2.1,7.1,7.6,25.1,14.6,41.8l30-47.7c-8.8-12-14.1-26.8-14.1-42.9
		C78.5,43.1,110.9,10.7,150.9,10.7 M150.9,5.7c-42.7,0-77.4,34.7-77.4,77.4c0,15.5,4.5,30.3,13.1,43l-3.3,5.3
		c-0.2-1.5-0.8-2.9-1.8-4.1c-0.1-0.1-0.1-0.1-0.2-0.2c-1.1-1.1-2.2-2.1-3.4-3c0.5-1,0.8-2.2,0.7-3.3c-0.1-1.9-0.9-3.7-2.3-5
		c-4-4.1-9.9-6.4-16-6.4c-3.3,0-6.4,0.6-9.5,1.9c-2.6,1.1-4.9,2.5-6.9,4.3c-0.6-0.6-1.3-1.1-2-1.6c-3.7-2.6-8.1-4.1-12.6-4.1
		c-1.9,0-3.7,0.3-5.3,0.8c-1.9,0.6-3.4,1.9-4.2,3.6c-0.8,1.6-1,3.4-0.6,5.1c-4.6,1.4-8.9,3.9-12.4,7.4c-1.4,1.4-2.2,3.2-2.2,5.2
		c0,1.9,0.8,3.8,2.1,5.1c1.4,1.4,3.2,2.1,5.1,2.1s3.8-0.8,5.1-2.1c0.7-0.7,1.5-1.3,2.3-1.8c-2.6,4.7-4,10.1-3.6,15
		c0.3,3.8,3.4,6.7,7.3,6.7c0.2,0,0.4,0,0.6,0c4.1-0.3,7-3.8,6.7-7.9c0,0,0-0.1,0-0.1c-0.4-4,3.2-10.2,6.9-11.9
		c0.5-0.2,0.8-0.2,0.9-0.2c0.1,0,0.1,0,0.3,0.1c0.2,0.2,0.4,0.4,0.6,0.6c2.1,8,7.3,27.3,13.3,43.5L2.5,259.6
		c-0.3,0.4-0.4,0.8-0.6,1.3c-0.9,1.7-1.3,3.5-1.3,5.4c0,6.6,5.3,11.9,11.9,11.9h275c6.6,0,11.9-5.3,11.9-11.9c0,0,0-0.1,0-0.1
		c0-1.8-0.5-3.5-1.2-5.1c-0.1-0.5-0.3-1-0.6-1.5l-35-55.6c1.2-6.4,3.1-14.1,5.8-23.1c0.4,1.2,1.2,2.4,2.3,3.2
		c1.1,0.8,2.3,1.2,3.7,1.2c0.4,0,0.8,0,1.2-0.1c2.1-0.3,3.7-1.6,4.4-3.5c0.3-0.6,0.6-1.2,0.8-1.8c0.3,0.1,0.7,0.1,1.1,0.1
		c0.6,0,1.2-0.1,1.8-0.3c0.2-0.1,0.4-0.1,0.6-0.2c3-1.3,4.5-4.5,3.6-7.7c0-0.1-0.1-0.2-0.1-0.3c-0.1-0.4-0.3-0.8-0.5-1.2
		c0.1-0.2,0.3-0.4,0.4-0.7c0.7-1.5,0.8-3.3,0.1-4.9c-2-5.5-7.5-9.3-13.7-9.6c-0.3,0-0.5,0-0.8,0c-0.9,0-1.7,0.1-2.6,0.2
		c-2.2-3.6-6-6.2-9.8-6.7c-0.3,0-0.5,0-0.8,0c-2.3,0-4.2,1.2-5.3,3c-0.3,0-0.6,0-0.9,0c-2.1,0-4.3,0.4-6.3,1.1c-3.2,1-5,4.4-4,7.7
		c0.5,1.9,1.8,3.3,3.5,4c-0.9,1.2-1.6,2.4-2,3.8c0,0,0,0.1,0,0.1c-0.5,1.6-0.4,3.4,0.4,4.9c0.8,1.5,2.1,2.6,3.7,3
		c0.6,0.2,1.2,0.3,1.9,0.3c2.7,0,5.1-1.7,5.9-4.2c0.1-0.3,0.3-0.6,0.6-0.9c-1.6,4.4-3.6,10.1-5.4,15.9l-37.7-59.8
		c9.2-13.1,14-28.3,14-44.4C228.3,40.4,193.6,5.7,150.9,5.7L150.9,5.7z M63.6,162.6c-3.5-9.1-6.4-17.9-8.4-24.5
		c3.6,2.4,5.6,5.9,5.6,7.1c0,0,0,0.1,0,0.1c-0.6,3.9,1.9,7.6,5.7,8.3c0.5,0.1,1,0.2,1.5,0.2c0.4,0,0.8,0,1.2-0.1L63.6,162.6
		L63.6,162.6z M76,139.5c0.8,0,1.7-0.1,2.4-0.4l-3.2,5.1c-0.1-1.6-0.5-3.3-1.1-4.9C74.7,139.4,75.4,139.5,76,139.5L76,139.5z"/>
</g>
<g>
	<path class="st1" d="M266,167.4c-0.7,0.2-1.4-0.1-1.6-0.8c-2.1-5.9-8.6-8.9-14.5-6.8c-0.7,0.2-1.4-0.1-1.6-0.8
		c-0.2-0.7,0.1-1.4,0.8-1.6c7.2-2.6,15.1,1.1,17.7,8.3C267,166.4,266.7,167.1,266,167.4z"/>
	<path class="st2" d="M282.1,174.9c-0.7,0.2-1.4-0.1-1.6-0.8c-2.1-5.9-8.6-8.9-14.5-6.8c-0.7,0.2-1.4-0.1-1.6-0.8s0.1-1.4,0.8-1.6
		c7.2-2.6,15.1,1.1,17.7,8.3C283.1,173.9,282.8,174.6,282.1,174.9z"/>
	<path class="st3" d="M266,167.4c-0.7,0.2-1.4-0.1-1.6-0.8c-0.6-1.6-1.7-2.3-3.4-2.3c-3.4,0-7.7,3.1-8.9,6.3c-0.2,0.7-1,1-1.6,0.8
		c-0.7-0.2-1-1-0.8-1.6c1.5-4.2,6.8-7.9,11.2-7.9c2.8,0,4.8,1.4,5.7,4C267,166.4,266.7,167.1,266,167.4z"/>
	<path class="st3" d="M274.7,180.2c-0.4,0.1-0.8,0.1-1.2-0.2c-0.6-0.4-0.7-1.2-0.3-1.8c1.2-1.7,0.5-5.8-1.7-8.6
		c-1-1.3-3-3.3-5.6-2.3c-0.7,0.2-1.4-0.1-1.6-0.8s0.1-1.4,0.8-1.6c3-1.1,6.1,0.1,8.4,3.2c2.5,3.3,3.8,8.6,1.7,11.6
		C275.2,180,275,180.2,274.7,180.2z"/>
	<path class="st2" d="M266,167.4c-0.3,0.1-0.6,0.1-0.9,0c-0.6-0.3-0.9-1-0.7-1.6c1-2.4,0.9-4.6-0.2-6.5s-3-3-4.3-3.2
		c-0.7-0.1-1.2-0.7-1.1-1.4s0.7-1.2,1.4-1.1c1.9,0.2,4.6,1.7,6.2,4.4c1,1.8,1.9,4.7,0.3,8.7C266.6,167,266.4,167.3,266,167.4z"/>
	<path class="st1" d="M282.3,168.1c-0.7,0.2-1.4-0.1-1.6-0.8c-1-2.7-3.8-4.6-7-4.7c-3.1-0.1-5.7,1.4-7,4.1c-0.3,0.6-1,0.9-1.7,0.6
		s-0.9-1-0.6-1.7c1.7-3.6,5.2-5.7,9.3-5.5c4.2,0.2,8,2.7,9.3,6.4C283.3,167.2,283,167.9,282.3,168.1z"/>
	<path class="st4" d="M256.2,217.7c-1.3-14.3,11.7-52.1,11.7-52.4l-2.8-0.4c-0.2,0.8-13.1,33.7-13.6,46.7
		C253.4,213.9,255,215.9,256.2,217.7z"/>
</g>
<g>
	<path class="st1" d="M45.5,133.6c-0.9,0.9-2.3,0.9-3.2,0c-7.9-8-20.9-8.1-28.9-0.2c-0.9,0.9-2.3,0.9-3.2,0s-0.9-2.3,0-3.2
		c9.8-9.7,25.7-9.6,35.4,0.2C46.4,131.3,46.4,132.7,45.5,133.6z"/>
	<path class="st2" d="M77.6,133.8c-0.9,0.9-2.3,0.9-3.2,0c-7.9-8-20.9-8.1-28.9-0.2c-0.9,0.9-2.3,0.9-3.2,0s-0.9-2.3,0-3.2
		c9.8-9.7,25.7-9.6,35.4,0.2C78.5,131.5,78.5,132.9,77.6,133.8z"/>
	<path class="st3" d="M45.5,133.6c-0.9,0.9-2.3,0.9-3.2,0c-2.1-2.1-4.5-2.5-7.3-1.3c-5.6,2.6-10.4,10.9-9.8,17
		c0.1,1.3-0.8,2.4-2.1,2.5c-1.3,0.1-2.4-0.8-2.5-2.1c-0.7-8.1,5.1-18.2,12.5-21.6c4.5-2.1,9-1.3,12.4,2.2
		C46.4,131.3,46.4,132.7,45.5,133.6z"/>
	<path class="st3" d="M69.5,148.2c-0.5,0.5-1.3,0.8-2,0.6c-1.2-0.2-2-1.4-1.8-2.7c0.7-3.8-3.7-10-9.3-13c-2.6-1.4-7.4-3.1-11,0.4
		c-0.9,0.9-2.3,0.9-3.2,0s-0.9-2.3,0-3.2c4.1-4.1,10.1-4.5,16.3-1.2c6.6,3.5,12.8,11.3,11.6,17.8C70,147.5,69.8,147.9,69.5,148.2z"
		/>
	<path class="st2" d="M45.5,133.6c-0.4,0.4-0.9,0.6-1.5,0.7c-1.3,0.1-2.3-0.9-2.4-2.2c-0.2-4.7-2-8.3-5.2-10.5s-7.2-2.7-9.5-1.9
		c-1.2,0.4-2.5-0.3-2.9-1.5s0.3-2.5,1.5-2.9c3.4-1.1,8.9-0.7,13.5,2.6c3.1,2.2,6.8,6.3,7.1,14.1C46.2,132.6,45.9,133.2,45.5,133.6z"
		/>
	<path class="st1" d="M72.9,122.5c-0.9,0.9-2.3,0.9-3.2,0c-3.6-3.7-9.7-4.7-15.2-2.5c-5.2,2.1-8.3,6.6-8.4,12c0,1.3-1,2.3-2.3,2.3
		s-2.3-1-2.3-2.3c0-7.3,4.2-13.3,11.2-16.2c7.1-2.9,15.2-1.5,20.1,3.5C73.8,120.2,73.8,121.6,72.9,122.5z"/>
	<path class="st4" d="M71.9,193.2c-13-22.6-24.7-64-24.8-64.4l-4.9,1.5c0.3,1.4,8.5,34.7,17.5,56.4C64.4,189,68.5,191.2,71.9,193.2z
		"/>
</g>
<path class="st5" d="M287.5,259.4h-275c-3.8,0-6.9,3.1-6.9,6.9l0,0c0,3.8,3.1,6.9,6.9,6.9h275c3.8,0,6.9-3.1,6.9-6.9l0,0
	C294.3,262.5,291.3,259.4,287.5,259.4z"/>
<circle class="st6" cx="150.9" cy="83.1" r="62.1"/>
<circle class="st7" cx="150.9" cy="83.1" r="66.1"/>
<circle class="st8" cx="150.9" cy="83.1" r="72.4"/>
<polygon class="st9" points="150,34.8 6.7,262.3 293.3,262.3 "/>
<g>
	<path class="st10" d="M133.8,153.5h-17.7c-5.9,0-10.7-4.7-10.7-10.7v-17.7c0-5.9,4.7-10.7,10.7-10.7h17.7c5.9,0,10.7,4.7,10.7,10.7
		v17.7C144.5,148.7,139.7,153.5,133.8,153.5z"/>
	<g class="st11">
		<path class="st0" d="M123.7,135.4c-0.1-0.2-0.2-0.4-0.2-0.7c0-0.7,0.1-1.3,0.4-1.8c0.3-0.5,0.6-1.1,1.1-1.6
			c0.4-0.5,0.7-0.9,0.9-1.2c0.2-0.3,0.3-0.7,0.3-1.1c0-0.4-0.2-0.8-0.5-1c-0.3-0.3-0.8-0.4-1.3-0.4c-0.5,0-0.9,0.1-1.4,0.3
			c-0.4,0.2-0.9,0.5-1.5,0.9c-0.3,0.2-0.6,0.3-0.8,0.3c-0.2,0-0.4-0.1-0.6-0.3c-0.2-0.2-0.2-0.4-0.2-0.7c0-0.4,0.2-0.7,0.5-0.9
			c0.6-0.5,1.2-0.8,2-1.1c0.8-0.3,1.5-0.4,2.3-0.4c0.8,0,1.5,0.1,2.2,0.4c0.6,0.3,1.1,0.7,1.5,1.2c0.3,0.5,0.5,1.1,0.5,1.7
			c0,0.7-0.2,1.3-0.5,1.8c-0.3,0.5-0.8,1.1-1.4,1.7c-0.5,0.6-0.9,1-1.2,1.4c-0.3,0.4-0.4,0.8-0.5,1.3c0,0.2-0.1,0.4-0.3,0.5
			s-0.3,0.2-0.5,0.2C124,135.7,123.9,135.6,123.7,135.4z M123.3,139.4c-0.3-0.3-0.4-0.6-0.4-1.1c0-0.4,0.1-0.8,0.4-1.1
			c0.3-0.3,0.6-0.4,1.1-0.4s0.8,0.1,1.1,0.4c0.3,0.3,0.4,0.6,0.4,1.1c0,0.4-0.1,0.8-0.4,1.1c-0.3,0.3-0.6,0.4-1,0.4
			C123.9,139.8,123.5,139.7,123.3,139.4z"/>
	</g>
</g>
<polygon class="st12" points="150,34.8 182.6,262.3 293.3,262.3 "/>
<g>
	<path class="st13" d="M159.2,105.1h-18.4c-6.1,0-11.1-4.9-11.1-11.1V75.7c0-6.1,4.9-11.1,11.1-11.1h18.4c6.1,0,11.1,4.9,11.1,11.1
		v18.4C170.3,100.2,165.3,105.1,159.2,105.1z"/>
	<g class="st11">
		<path class="st0" d="M147.7,82.1c0.7,0.4,1.2,0.9,1.6,1.6c0.4,0.7,0.6,1.5,0.6,2.4c0,0.9-0.2,1.7-0.6,2.5c-0.4,0.7-1,1.3-1.7,1.7
			c-0.7,0.4-1.5,0.6-2.5,0.6c-1.8,0-3.2-0.6-4.2-1.8c-1-1.2-1.5-3-1.5-5.3c0-1.6,0.2-2.9,0.7-4.1c0.5-1.1,1.1-2,2-2.6
			c0.9-0.6,1.9-0.9,3-0.9c0.8,0,1.5,0.1,2.3,0.4c0.8,0.3,1.4,0.7,2,1.1c0.2,0.1,0.3,0.3,0.4,0.4c0.1,0.1,0.1,0.3,0.1,0.5
			c0,0.3-0.1,0.6-0.3,0.8c-0.2,0.2-0.4,0.3-0.6,0.3c-0.1,0-0.3,0-0.4-0.1c-0.1,0-0.3-0.1-0.4-0.2c-1.1-0.8-2.1-1.2-3-1.2
			c-1,0-1.8,0.5-2.3,1.4s-0.9,2.2-0.9,3.9c0.3-0.6,0.8-1.1,1.4-1.5c0.6-0.4,1.3-0.5,2.1-0.5C146.3,81.6,147,81.7,147.7,82.1z
			 M146.7,88.1c0.4-0.5,0.7-1.1,0.7-1.9c0-0.8-0.2-1.4-0.7-1.9s-1-0.7-1.8-0.7c-0.8,0-1.4,0.2-1.8,0.7c-0.5,0.5-0.7,1.1-0.7,1.9
			c0,0.8,0.2,1.4,0.7,1.9c0.5,0.5,1.1,0.7,1.8,0.7C145.6,88.9,146.2,88.6,146.7,88.1z"/>
		<path class="st0" d="M161.3,86.2c0.2,0.2,0.3,0.4,0.3,0.8c0,0.7-0.4,1-1.2,1h-1v1.6c0,0.4-0.1,0.7-0.4,1s-0.5,0.3-0.9,0.3
			c-0.4,0-0.7-0.1-0.9-0.3s-0.4-0.6-0.4-1v-1.6h-5.3c-0.4,0-0.7-0.1-0.9-0.3s-0.3-0.5-0.3-0.8c0-0.3,0.1-0.6,0.3-0.9l6.3-9
			c0.1-0.2,0.3-0.3,0.5-0.4c0.2-0.1,0.4-0.2,0.6-0.2c0.4,0,0.7,0.1,0.9,0.3c0.3,0.2,0.4,0.6,0.4,1v8.3h1
			C160.7,85.9,161.1,86,161.3,86.2z M153,85.9h3.8v-5.5L153,85.9z"/>
	</g>
</g>
<g>
	<path class="st10" d="M183.8,153.5h-17.7c-5.9,0-10.7-4.7-10.7-10.7v-17.7c0-5.9,4.7-10.7,10.7-10.7h17.7c5.9,0,10.7,4.7,10.7,10.7
		v17.7C194.5,148.7,189.7,153.5,183.8,153.5z"/>
	<g class="st11">
		<path class="st0" d="M174.7,135.4c-0.1-0.2-0.2-0.4-0.2-0.6c0-0.7,0.1-1.3,0.4-1.8c0.3-0.5,0.6-1,1.1-1.6c0.4-0.5,0.7-0.9,0.9-1.2
			c0.2-0.3,0.3-0.7,0.3-1.1c0-0.4-0.2-0.8-0.5-1c-0.3-0.3-0.8-0.4-1.3-0.4c-0.5,0-0.9,0.1-1.3,0.3c-0.4,0.2-0.9,0.5-1.5,0.9
			c-0.3,0.2-0.6,0.3-0.8,0.3c-0.2,0-0.4-0.1-0.6-0.3c-0.2-0.2-0.2-0.4-0.2-0.7c0-0.4,0.2-0.7,0.5-0.9c0.5-0.5,1.2-0.8,1.9-1.1
			c0.7-0.3,1.5-0.4,2.2-0.4c0.8,0,1.5,0.1,2.1,0.4c0.6,0.3,1.1,0.7,1.4,1.1c0.3,0.5,0.5,1,0.5,1.7c0,0.7-0.2,1.3-0.5,1.8
			c-0.3,0.5-0.8,1.1-1.4,1.7c-0.5,0.5-0.9,1-1.2,1.4c-0.3,0.4-0.4,0.8-0.5,1.3c0,0.2-0.1,0.4-0.3,0.5c-0.1,0.1-0.3,0.2-0.5,0.2
			C175,135.7,174.8,135.6,174.7,135.4z M174.2,139.3c-0.3-0.3-0.4-0.6-0.4-1c0-0.4,0.1-0.8,0.4-1c0.3-0.3,0.6-0.4,1-0.4
			c0.4,0,0.8,0.1,1,0.4c0.3,0.3,0.4,0.6,0.4,1c0,0.4-0.1,0.8-0.4,1c-0.3,0.3-0.6,0.4-1,0.4C174.9,139.8,174.5,139.6,174.2,139.3z"/>
	</g>
</g>
<g>
	<path class="st13" d="M114.2,205.3H95.8c-6.1,0-11.1-4.9-11.1-11.1v-18.4c0-6.1,4.9-11.1,11.1-11.1h18.4c6.1,0,11.1,4.9,11.1,11.1
		v18.4C125.3,200.3,120.3,205.3,114.2,205.3z"/>
	<g class="st11">
		<path class="st0" d="M104.9,189.8c0,0.7-0.4,1.1-1.2,1.1h-6.9c-0.8,0-1.2-0.4-1.2-1.1c0-0.7,0.4-1,1.2-1h2.1v-9.3l-2,1.2
			c-0.2,0.1-0.4,0.2-0.5,0.2c-0.3,0-0.5-0.1-0.7-0.4c-0.2-0.2-0.3-0.5-0.3-0.8c0-0.4,0.2-0.7,0.5-0.9l3.2-2c0.4-0.2,0.8-0.4,1.2-0.4
			c0.4,0,0.7,0.1,0.9,0.3s0.3,0.5,0.3,1v11h2.1C104.5,188.8,104.9,189.1,104.9,189.8z"/>
		<path class="st0" d="M113.9,182.3c0.7,0.4,1.2,0.9,1.6,1.6s0.6,1.5,0.6,2.4c0,0.9-0.2,1.8-0.6,2.5c-0.4,0.7-1,1.3-1.8,1.7
			c-0.8,0.4-1.7,0.6-2.7,0.6c-0.8,0-1.7-0.1-2.5-0.4c-0.8-0.3-1.5-0.7-2.1-1.1c-0.3-0.3-0.5-0.6-0.5-1c0-0.3,0.1-0.6,0.3-0.8
			s0.4-0.3,0.6-0.3c0.1,0,0.3,0,0.4,0.1s0.3,0.1,0.4,0.2c0.5,0.4,1.1,0.7,1.6,0.9c0.5,0.2,1.1,0.3,1.6,0.3c0.9,0,1.6-0.2,2.1-0.7
			s0.7-1.1,0.7-1.9c0-0.8-0.2-1.4-0.7-1.9c-0.5-0.5-1.1-0.7-2-0.7c-0.5,0-1,0.1-1.4,0.2c-0.4,0.1-0.8,0.4-1.3,0.8
			c-0.3,0.2-0.5,0.3-0.8,0.3c-0.3,0-0.5-0.1-0.7-0.2c-0.2-0.2-0.3-0.4-0.3-0.7v-6.3c0-0.4,0.1-0.7,0.3-0.9c0.2-0.2,0.5-0.3,0.9-0.3
			h6.8c0.8,0,1.2,0.3,1.2,1c0,0.7-0.4,1-1.2,1H109v3.9c0.7-0.5,1.5-0.7,2.5-0.7C112.4,181.7,113.2,181.9,113.9,182.3z"/>
	</g>
</g>
<g>
	<path class="st10" d="M203.8,204.5h-17.7c-5.9,0-10.7-4.7-10.7-10.7v-17.7c0-5.9,4.7-10.7,10.7-10.7h17.7c5.9,0,10.7,4.7,10.7,10.7
		v17.7C214.5,199.7,209.7,204.5,203.8,204.5z"/>
	<g class="st11">
		<path class="st0" d="M195.3,186.4c-0.1-0.2-0.2-0.4-0.2-0.6c0-0.7,0.1-1.3,0.4-1.8c0.3-0.5,0.6-1,1.1-1.6c0.4-0.5,0.7-0.9,0.9-1.2
			c0.2-0.3,0.3-0.7,0.3-1.1c0-0.4-0.2-0.8-0.5-1c-0.3-0.3-0.8-0.4-1.3-0.4c-0.5,0-0.9,0.1-1.3,0.3c-0.4,0.2-0.9,0.5-1.5,0.9
			c-0.3,0.2-0.6,0.3-0.8,0.3c-0.2,0-0.4-0.1-0.6-0.3c-0.2-0.2-0.2-0.4-0.2-0.7c0-0.4,0.2-0.7,0.5-0.9c0.5-0.5,1.2-0.8,1.9-1.1
			c0.7-0.3,1.5-0.4,2.2-0.4c0.8,0,1.5,0.1,2.1,0.4c0.6,0.3,1.1,0.7,1.4,1.1c0.3,0.5,0.5,1,0.5,1.7c0,0.7-0.2,1.3-0.5,1.8
			c-0.3,0.5-0.8,1.1-1.4,1.7c-0.5,0.5-0.9,1-1.2,1.4c-0.3,0.4-0.4,0.8-0.5,1.3c0,0.2-0.1,0.4-0.3,0.5c-0.1,0.1-0.3,0.2-0.5,0.2
			C195.7,186.7,195.5,186.6,195.3,186.4z M194.9,190.3c-0.3-0.3-0.4-0.6-0.4-1c0-0.4,0.1-0.8,0.4-1c0.3-0.3,0.6-0.4,1-0.4
			c0.4,0,0.8,0.1,1,0.4c0.3,0.3,0.4,0.6,0.4,1c0,0.4-0.1,0.8-0.4,1c-0.3,0.3-0.6,0.4-1,0.4C195.5,190.8,195.2,190.6,194.9,190.3z"/>
	</g>
</g>
<g>
	<path class="st13" d="M159.2,205.3h-18.4c-6.1,0-11.1-4.9-11.1-11.1v-18.4c0-6.1,4.9-11.1,11.1-11.1h18.4c6.1,0,11.1,4.9,11.1,11.1
		v18.4C170.3,200.3,165.3,205.3,159.2,205.3z"/>
	<g class="st11">
		<path class="st0" d="M149.9,189.8c0,0.7-0.4,1.1-1.2,1.1h-6.9c-0.8,0-1.2-0.4-1.2-1.1c0-0.7,0.4-1,1.2-1h2.1v-9.3l-2,1.2
			c-0.2,0.1-0.4,0.2-0.5,0.2c-0.3,0-0.5-0.1-0.7-0.4c-0.2-0.2-0.3-0.5-0.3-0.8c0-0.4,0.2-0.7,0.5-0.9l3.2-2c0.4-0.2,0.8-0.4,1.2-0.4
			c0.4,0,0.7,0.1,0.9,0.3s0.3,0.5,0.3,1v11h2.1C149.5,188.8,149.9,189.1,149.9,189.8z"/>
		<path class="st0" d="M160.5,184.8c0.5,0.6,0.7,1.4,0.7,2.2c0,1.3-0.5,2.2-1.4,3c-0.9,0.7-2.3,1.1-3.9,1.1c-1.7,0-3-0.4-3.9-1.1
			c-0.9-0.7-1.4-1.7-1.4-3c0-0.9,0.2-1.6,0.7-2.2s1.1-1,2-1.3c-0.7-0.3-1.3-0.7-1.7-1.3s-0.6-1.3-0.6-2c0-1.2,0.4-2.1,1.3-2.8
			c0.9-0.7,2.1-1,3.7-1c1.6,0,2.8,0.3,3.7,1c0.9,0.7,1.3,1.6,1.3,2.8c0,0.8-0.2,1.5-0.6,2.1c-0.4,0.6-1,1-1.7,1.2
			C159.4,183.7,160,184.2,160.5,184.8z M158.7,186.8c0-1.5-1-2.2-2.9-2.2s-2.9,0.7-2.9,2.2c0,1.5,1,2.2,2.9,2.2
			S158.7,188.3,158.7,186.8z M153.2,180.5c0,0.7,0.2,1.2,0.6,1.6c0.4,0.4,1.1,0.5,1.9,0.5c0.8,0,1.5-0.2,1.9-0.5
			c0.4-0.4,0.6-0.9,0.6-1.6c0-1.4-0.8-2.1-2.5-2.1C154.1,178.4,153.2,179.1,153.2,180.5z"/>
	</g>
</g>
<g>
	<path class="st10" d="M134.5,254.5h-17.7c-5.9,0-10.7-4.7-10.7-10.7v-17.7c0-5.9,4.7-10.7,10.7-10.7h17.7c5.9,0,10.7,4.7,10.7,10.7
		v17.7C145.1,249.7,140.4,254.5,134.5,254.5z"/>
	<g class="st11">
		<path class="st0" d="M125,236.4c-0.1-0.2-0.2-0.4-0.2-0.6c0-0.7,0.1-1.3,0.4-1.8c0.3-0.5,0.6-1,1.1-1.6c0.4-0.5,0.7-0.9,0.9-1.2
			s0.3-0.7,0.3-1.1c0-0.4-0.2-0.8-0.5-1c-0.3-0.3-0.8-0.4-1.3-0.4c-0.5,0-0.9,0.1-1.3,0.3c-0.4,0.2-0.9,0.5-1.5,0.9
			c-0.3,0.2-0.6,0.3-0.8,0.3c-0.2,0-0.4-0.1-0.6-0.3c-0.2-0.2-0.2-0.4-0.2-0.7c0-0.4,0.2-0.7,0.5-0.9c0.5-0.5,1.2-0.8,1.9-1.1
			c0.7-0.3,1.5-0.4,2.2-0.4c0.8,0,1.5,0.1,2.1,0.4c0.6,0.3,1.1,0.7,1.4,1.1c0.3,0.5,0.5,1,0.5,1.7c0,0.7-0.2,1.3-0.5,1.8
			c-0.3,0.5-0.8,1.1-1.4,1.7c-0.5,0.5-0.9,1-1.2,1.4c-0.3,0.4-0.4,0.8-0.5,1.3c0,0.2-0.1,0.4-0.3,0.5c-0.1,0.1-0.3,0.2-0.5,0.2
			C125.4,236.7,125.2,236.6,125,236.4z M124.6,240.3c-0.3-0.3-0.4-0.6-0.4-1c0-0.4,0.1-0.8,0.4-1c0.3-0.3,0.6-0.4,1-0.4
			c0.4,0,0.8,0.1,1,0.4c0.3,0.3,0.4,0.6,0.4,1c0,0.4-0.1,0.8-0.4,1c-0.3,0.3-0.6,0.4-1,0.4C125.2,240.8,124.9,240.6,124.6,240.3z"/>
	</g>
</g>
<g>
	<path class="st13" d="M88.2,255.3H69.8c-6.1,0-11.1-4.9-11.1-11.1v-18.4c0-6.1,4.9-11.1,11.1-11.1h18.4c6.1,0,11.1,4.9,11.1,11.1
		v18.4C99.3,250.3,94.3,255.3,88.2,255.3z"/>
	<g class="st11">
		<path class="st0" d="M82.3,232.3c0.7,0.4,1.2,0.9,1.6,1.6s0.6,1.5,0.6,2.4c0,0.9-0.2,1.8-0.6,2.5c-0.4,0.7-1,1.3-1.8,1.7
			c-0.8,0.4-1.7,0.6-2.7,0.6c-0.8,0-1.7-0.1-2.5-0.4c-0.8-0.3-1.5-0.7-2.1-1.1c-0.3-0.3-0.5-0.6-0.5-1c0-0.3,0.1-0.6,0.3-0.8
			s0.4-0.3,0.6-0.3c0.1,0,0.3,0,0.4,0.1s0.3,0.1,0.4,0.2c0.5,0.4,1.1,0.7,1.6,0.9c0.5,0.2,1.1,0.3,1.6,0.3c0.9,0,1.6-0.2,2.1-0.7
			s0.7-1.1,0.7-1.9c0-0.8-0.2-1.4-0.7-1.9c-0.5-0.5-1.1-0.7-2-0.7c-0.5,0-1,0.1-1.4,0.2c-0.4,0.1-0.8,0.4-1.3,0.8
			c-0.3,0.2-0.5,0.3-0.8,0.3c-0.3,0-0.5-0.1-0.7-0.2c-0.2-0.2-0.3-0.4-0.3-0.7v-6.3c0-0.4,0.1-0.7,0.3-0.9c0.2-0.2,0.5-0.3,0.9-0.3
			h6.8c0.8,0,1.2,0.3,1.2,1c0,0.7-0.4,1-1.2,1h-5.5v3.9c0.7-0.5,1.5-0.7,2.5-0.7C80.8,231.7,81.6,231.9,82.3,232.3z"/>
	</g>
</g>
<g>
	<path class="st13" d="M228.2,255.3h-18.4c-6.1,0-11.1-4.9-11.1-11.1v-18.4c0-6.1,4.9-11.1,11.1-11.1h18.4c6.1,0,11.1,4.9,11.1,11.1
		v18.4C239.3,250.3,234.3,255.3,228.2,255.3z"/>
	<g class="st11">
		<path class="st0" d="M222.3,232.3c0.7,0.4,1.2,0.9,1.6,1.6s0.6,1.5,0.6,2.4c0,0.9-0.2,1.8-0.6,2.5c-0.4,0.7-1,1.3-1.8,1.7
			c-0.8,0.4-1.7,0.6-2.7,0.6c-0.8,0-1.7-0.1-2.5-0.4c-0.8-0.3-1.5-0.7-2.1-1.1c-0.3-0.3-0.5-0.6-0.5-1c0-0.3,0.1-0.6,0.3-0.8
			s0.4-0.3,0.6-0.3c0.1,0,0.3,0,0.4,0.1s0.3,0.1,0.4,0.2c0.5,0.4,1.1,0.7,1.6,0.9c0.5,0.2,1.1,0.3,1.6,0.3c0.9,0,1.6-0.2,2.1-0.7
			s0.7-1.1,0.7-1.9c0-0.8-0.2-1.4-0.7-1.9c-0.5-0.5-1.1-0.7-2-0.7c-0.5,0-1,0.1-1.4,0.2c-0.4,0.1-0.8,0.4-1.3,0.8
			c-0.3,0.2-0.5,0.3-0.8,0.3c-0.3,0-0.5-0.1-0.7-0.2c-0.2-0.2-0.3-0.4-0.3-0.7v-6.3c0-0.4,0.1-0.7,0.3-0.9c0.2-0.2,0.5-0.3,0.9-0.3
			h6.8c0.8,0,1.2,0.3,1.2,1c0,0.7-0.4,1-1.2,1h-5.5v3.9c0.7-0.5,1.5-0.7,2.5-0.7C220.8,231.7,221.6,231.9,222.3,232.3z"/>
	</g>
</g>
<g>
	<path class="st13" d="M181.5,255.3h-18.4c-6.1,0-11.1-4.9-11.1-11.1v-18.4c0-6.1,4.9-11.1,11.1-11.1h18.4c6.1,0,11.1,4.9,11.1,11.1
		v18.4C192.6,250.3,187.7,255.3,181.5,255.3z"/>
	<g class="st11">
		<path class="st0" d="M177.2,234.8c0.5,0.6,0.7,1.4,0.7,2.2c0,1.3-0.5,2.2-1.4,3c-0.9,0.7-2.3,1.1-3.9,1.1s-3-0.4-3.9-1.1
			c-0.9-0.7-1.4-1.7-1.4-3c0-0.9,0.2-1.6,0.7-2.2s1.1-1,2-1.3c-0.7-0.3-1.3-0.7-1.7-1.3c-0.4-0.6-0.6-1.3-0.6-2
			c0-1.2,0.4-2.1,1.3-2.8s2.1-1,3.7-1c1.6,0,2.8,0.3,3.7,1s1.3,1.6,1.3,2.8c0,0.8-0.2,1.5-0.6,2.1c-0.4,0.6-1,1-1.7,1.2
			C176.1,233.7,176.7,234.2,177.2,234.8z M175.4,236.8c0-1.5-1-2.2-2.9-2.2s-2.9,0.7-2.9,2.2c0,1.5,1,2.2,2.9,2.2
			S175.4,238.3,175.4,236.8z M169.9,230.5c0,0.7,0.2,1.2,0.6,1.6c0.4,0.4,1.1,0.5,1.9,0.5s1.5-0.2,1.9-0.5c0.4-0.4,0.6-0.9,0.6-1.6
			c0-1.4-0.8-2.1-2.5-2.1S169.9,229.1,169.9,230.5z"/>
	</g>
</g>
<g>
	<path class="st12" d="M106.1,212.1h-8.3c-0.9,0-1.7,0.7-1.7,1.7l0,0c0,0.9,0.7,1.7,1.7,1.7h8.3c0.9,0,1.7-0.7,1.7-1.7l0,0
		C107.7,212.8,107,212.1,106.1,212.1z"/>
	<path class="st12" d="M103.6,217.9v-8.3c0-0.9-0.7-1.7-1.7-1.7l0,0c-0.9,0-1.7,0.7-1.7,1.7v8.3c0,0.9,0.7,1.7,1.7,1.7l0,0
		C102.8,219.6,103.6,218.8,103.6,217.9z"/>
</g>
<g>
	<path class="st12" d="M153.6,212.1h-8.3c-0.9,0-1.7,0.7-1.7,1.7l0,0c0,0.9,0.7,1.7,1.7,1.7h8.3c0.9,0,1.7-0.7,1.7-1.7l0,0
		C155.2,212.8,154.5,212.1,153.6,212.1z"/>
	<path class="st12" d="M151.1,217.9v-8.3c0-0.9-0.7-1.7-1.7-1.7l0,0c-0.9,0-1.7,0.7-1.7,1.7v8.3c0,0.9,0.7,1.7,1.7,1.7l0,0
		C150.3,219.6,151.1,218.8,151.1,217.9z"/>
</g>
<g>
	<path class="st12" d="M131.5,161.1h-8.3c-0.9,0-1.7,0.7-1.7,1.7l0,0c0,0.9,0.7,1.7,1.7,1.7h8.3c0.9,0,1.7-0.7,1.7-1.7l0,0
		C133.2,161.8,132.4,161.1,131.5,161.1z"/>
	<path class="st12" d="M129,166.9v-8.3c0-0.9-0.7-1.7-1.7-1.7l0,0c-0.9,0-1.7,0.7-1.7,1.7v8.3c0,0.9,0.7,1.7,1.7,1.7l0,0
		C128.3,168.6,129,167.8,129,166.9z"/>
</g>
<g>
	<path class="st12" d="M153.6,112.1h-8.3c-0.9,0-1.7,0.7-1.7,1.7l0,0c0,0.9,0.7,1.7,1.7,1.7h8.3c0.9,0,1.7-0.7,1.7-1.7l0,0
		C155.2,112.8,154.5,112.1,153.6,112.1z"/>
	<path class="st12" d="M151.1,117.9v-8.3c0-0.9-0.7-1.7-1.7-1.7l0,0c-0.9,0-1.7,0.7-1.7,1.7v8.3c0,0.9,0.7,1.7,1.7,1.7l0,0
		C150.3,119.6,151.1,118.8,151.1,117.9z"/>
</g>
<g>
	<path class="st9" d="M176,161.1h-8.3c-0.9,0-1.7,0.7-1.7,1.7l0,0c0,0.9,0.7,1.7,1.7,1.7h8.3c0.9,0,1.7-0.7,1.7-1.7l0,0
		C177.7,161.8,176.9,161.1,176,161.1z"/>
	<path class="st9" d="M173.5,166.9v-8.3c0-0.9-0.7-1.7-1.7-1.7l0,0c-0.9,0-1.7,0.7-1.7,1.7v8.3c0,0.9,0.7,1.7,1.7,1.7l0,0
		C172.8,168.6,173.5,167.8,173.5,166.9z"/>
</g>
<g>
	<path class="st9" d="M199.4,212.1h-8.3c-0.9,0-1.7,0.7-1.7,1.7l0,0c0,0.9,0.7,1.7,1.7,1.7h8.3c0.9,0,1.7-0.7,1.7-1.7l0,0
		C201.1,212.8,200.4,212.1,199.4,212.1z"/>
	<path class="st9" d="M196.9,217.9v-8.3c0-0.9-0.7-1.7-1.7-1.7l0,0c-0.9,0-1.7,0.7-1.7,1.7v8.3c0,0.9,0.7,1.7,1.7,1.7l0,0
		C196.2,219.6,196.9,218.8,196.9,217.9z"/>
</g>
</svg>
