<?xml version="1.0" encoding="utf-8"?>
<!-- Generator: Adobe Illustrator 22.1.0, SVG Export Plug-In . SVG Version: 6.00 Build 0)  -->
<svg version="1.1" id="Layer_1" xmlns="http://www.w3.org/2000/svg" xmlns:xlink="http://www.w3.org/1999/xlink" x="0px" y="0px"
	 viewBox="0 0 300 300" style="enable-background:new 0 0 300 300;" xml:space="preserve">
<style type="text/css">
	.st0{fill:#C6872C;}
	.st1{fill:#FFFFFF;}
</style>
<g>
	<path class="st0" d="M134.9,255.3h-18.4c-6.1,0-11.1-4.9-11.1-11.1v-18.4c0-6.1,4.9-11.1,11.1-11.1h18.4c6.1,0,11.1,4.9,11.1,11.1
		v18.4C145.9,250.3,141,255.3,134.9,255.3z"/>
	<g>
		<g>
			<path class="st1" d="M125.5,239.8c0,0.7-0.4,1.1-1.2,1.1h-6.9c-0.8,0-1.2-0.4-1.2-1.1c0-0.7,0.4-1,1.2-1h2.1v-9.3l-2,1.2
				c-0.2,0.1-0.4,0.2-0.5,0.2c-0.3,0-0.5-0.1-0.7-0.4c-0.2-0.2-0.3-0.5-0.3-0.8c0-0.4,0.2-0.7,0.5-0.9l3.2-2
				c0.4-0.2,0.8-0.4,1.2-0.4c0.4,0,0.7,0.1,0.9,0.3s0.3,0.5,0.3,1v11h2.1C125.1,238.8,125.5,239.1,125.5,239.8z"/>
			<path class="st1" d="M127.5,239.2c-0.9-1.3-1.3-3.1-1.3-5.5c0-2.4,0.4-4.2,1.3-5.5c0.9-1.3,2.2-1.9,3.9-1.9c1.7,0,3,0.6,3.9,1.9
				s1.3,3.1,1.3,5.5c0,2.4-0.4,4.2-1.3,5.5s-2.2,1.9-3.9,1.9C129.7,241.1,128.4,240.4,127.5,239.2z M133.4,237.7
				c0.4-0.8,0.6-2.2,0.6-4c0-1.9-0.2-3.2-0.6-4s-1.1-1.2-2-1.2s-1.6,0.4-2,1.3c-0.4,0.8-0.6,2.2-0.6,4c0,1.8,0.2,3.2,0.6,4
				c0.4,0.8,1.1,1.3,2,1.3S133,238.6,133.4,237.7z"/>
		</g>
	</g>
</g>
</svg>
