<?xml version="1.0" encoding="utf-8"?>
<!-- Generator: Adobe Illustrator 22.1.0, SVG Export Plug-In . SVG Version: 6.00 Build 0)  -->
<svg version="1.1" id="Layer_1" xmlns="http://www.w3.org/2000/svg" xmlns:xlink="http://www.w3.org/1999/xlink" x="0px" y="0px"
	 viewBox="0 0 300 300" style="enable-background:new 0 0 300 300;" xml:space="preserve">
<style type="text/css">
	.st0{fill:#C6872C;}
	.st1{fill:#FFFFFF;}
</style>
<g>
	<path class="st0" d="M204.2,205.3h-18.4c-6.1,0-11.1-4.9-11.1-11.1v-18.4c0-6.1,4.9-11.1,11.1-11.1h18.4c6.1,0,11.1,4.9,11.1,11.1
		v18.4C215.3,200.3,210.3,205.3,204.2,205.3z"/>
	<g>
		<g>
			<path class="st1" d="M194.9,189.8c0,0.7-0.4,1.1-1.2,1.1h-6.9c-0.8,0-1.2-0.4-1.2-1.1c0-0.7,0.4-1,1.2-1h2.1v-9.3l-2,1.2
				c-0.2,0.1-0.4,0.2-0.5,0.2c-0.3,0-0.5-0.1-0.7-0.4c-0.2-0.2-0.3-0.5-0.3-0.8c0-0.4,0.2-0.7,0.5-0.9l3.2-2
				c0.4-0.2,0.8-0.4,1.2-0.4c0.4,0,0.7,0.1,0.9,0.3s0.3,0.5,0.3,1v11h2.1C194.5,188.8,194.9,189.1,194.9,189.8z"/>
			<path class="st1" d="M204.9,184.7c0.5,0.6,0.7,1.4,0.7,2.2c0,1.2-0.5,2.2-1.4,2.9s-2.1,1.1-3.7,1.1c-0.9,0-1.7-0.1-2.5-0.4
				c-0.8-0.3-1.5-0.7-2.1-1.1c-0.3-0.3-0.5-0.6-0.5-1c0-0.3,0.1-0.6,0.3-0.8c0.2-0.2,0.4-0.3,0.6-0.3c0.1,0,0.3,0,0.4,0.1
				c0.1,0,0.3,0.1,0.4,0.2c0.6,0.4,1.1,0.7,1.6,0.9c0.5,0.2,1.1,0.3,1.7,0.3c0.9,0,1.6-0.2,2-0.5s0.7-0.9,0.7-1.6
				c0-0.7-0.2-1.3-0.7-1.6s-1.2-0.5-2.1-0.5h-1.2c-0.3,0-0.6-0.1-0.7-0.3c-0.2-0.2-0.3-0.5-0.3-0.7c0-0.3,0.1-0.5,0.3-0.7
				c0.2-0.2,0.4-0.3,0.7-0.3h0.8c1.9,0,2.8-0.7,2.8-2.1c0-0.7-0.2-1.2-0.6-1.5c-0.4-0.4-0.9-0.5-1.6-0.5c-1,0-2,0.4-3.2,1.2
				c-0.2,0.1-0.3,0.2-0.4,0.2c-0.1,0-0.2,0.1-0.4,0.1c-0.2,0-0.4-0.1-0.6-0.3c-0.2-0.2-0.3-0.5-0.3-0.8c0-0.2,0-0.4,0.1-0.5
				c0.1-0.1,0.2-0.3,0.4-0.4c0.6-0.5,1.2-0.9,2-1.1c0.8-0.3,1.6-0.4,2.4-0.4c1.4,0,2.5,0.3,3.4,1c0.8,0.7,1.2,1.6,1.2,2.8
				c0,0.8-0.2,1.5-0.6,2.1c-0.4,0.6-1,1-1.7,1.3C203.8,183.7,204.4,184.1,204.9,184.7z"/>
		</g>
	</g>
</g>
</svg>
