<?xml version="1.0" encoding="utf-8"?>
<!-- Generator: Adobe Illustrator 22.1.0, SVG Export Plug-In . SVG Version: 6.00 Build 0)  -->
<svg version="1.1" id="Layer_1" xmlns="http://www.w3.org/2000/svg" xmlns:xlink="http://www.w3.org/1999/xlink" x="0px" y="0px"
	 viewBox="0 0 400 400" style="enable-background:new 0 0 400 400;" xml:space="preserve">
<style type="text/css">
	.st0{fill:#FFFFFF;}
	.st1{fill:#FF5A00;}
	.st2{fill:#00CDC8;}
	.st3{fill:#691869;}
	.st4{fill:#F24044;}
</style>
<path class="st0" d="M292.8,203.2H107.2c-9.2,0-16.7,7.5-16.7,16.7v0c0,9.2,7.5,16.7,16.7,16.7h185.5c9.2,0,16.8-7.5,16.8-16.7v0
	C309.5,210.8,302,203.2,292.8,203.2z"/>
<path class="st1" d="M349.2,66H231.3c-12.5,0-22.6-10.1-22.6-22.6v0c0-12.5,10.1-22.6,22.6-22.6h117.9c12.5,0,22.6,10.1,22.6,22.6v0
	C371.8,55.9,361.7,66,349.2,66z"/>
<g>
	<circle class="st2" cx="226.3" cy="43.4" r="12.2"/>
	<circle class="st2" cx="258.3" cy="43.4" r="12.2"/>
	<circle class="st2" cx="290.4" cy="43.4" r="12.2"/>
	<circle class="st2" cx="322.5" cy="43.4" r="12.2"/>
	<circle class="st2" cx="354.5" cy="43.4" r="12.2"/>
</g>
<path class="st1" d="M181.3,66H63.4c-12.5,0-22.6-10.1-22.6-22.6v0c0-12.5,10.1-22.6,22.6-22.6h117.9c12.5,0,22.6,10.1,22.6,22.6v0
	C203.8,55.9,193.7,66,181.3,66z"/>
<g>
	<circle class="st2" cx="58.3" cy="43.4" r="12.2"/>
	<circle class="st2" cx="90.4" cy="43.4" r="12.2"/>
	<circle class="st2" cx="122.4" cy="43.4" r="12.2"/>
	<circle class="st2" cx="154.5" cy="43.4" r="12.2"/>
	<circle class="st2" cx="186.5" cy="43.4" r="12.2"/>
</g>
<g>
	<path class="st3" d="M112.7,226.4c-0.2-0.2-0.3-0.5-0.3-0.9v-11.1c0-0.4,0.1-0.7,0.3-0.9c0.2-0.2,0.5-0.3,0.9-0.3h6.9
		c0.4,0,0.7,0.1,0.9,0.2c0.2,0.2,0.3,0.4,0.3,0.7c0,0.3-0.1,0.6-0.3,0.7c-0.2,0.2-0.5,0.3-0.9,0.3h-5.7v3.7h5.3
		c0.4,0,0.7,0.1,0.9,0.2c0.2,0.2,0.3,0.4,0.3,0.7c0,0.3-0.1,0.5-0.3,0.7c-0.2,0.2-0.5,0.2-0.9,0.2h-5.3v3.9h5.7
		c0.4,0,0.7,0.1,0.9,0.3c0.2,0.2,0.3,0.4,0.3,0.7c0,0.3-0.1,0.5-0.3,0.7c-0.2,0.2-0.5,0.2-0.9,0.2h-6.9
		C113.2,226.7,112.9,226.6,112.7,226.4z"/>
	<path class="st3" d="M123.7,226.5c-0.2-0.2-0.3-0.5-0.3-0.8v-11.4c0-0.4,0.1-0.6,0.3-0.8c0.2-0.2,0.5-0.3,0.8-0.3s0.6,0.1,0.9,0.3
		c0.2,0.2,0.3,0.5,0.3,0.8v11.4c0,0.4-0.1,0.7-0.3,0.8c-0.2,0.2-0.5,0.3-0.9,0.3S124,226.7,123.7,226.5z"/>
	<path class="st3" d="M142.1,213.5c0.2,0.2,0.3,0.5,0.3,0.8v11.4c0,0.3-0.1,0.6-0.3,0.8c-0.2,0.2-0.5,0.3-0.9,0.3s-0.6-0.1-0.9-0.3
		c-0.2-0.2-0.3-0.5-0.3-0.8v-0.5c-0.3,0.5-0.7,0.9-1.2,1.2s-1.1,0.4-1.8,0.4c-0.8,0-1.5-0.2-2.1-0.6c-0.6-0.4-1.1-1-1.5-1.7
		c-0.3-0.7-0.5-1.6-0.5-2.6s0.2-1.8,0.5-2.5s0.8-1.3,1.5-1.7c0.6-0.4,1.3-0.6,2.2-0.6c0.7,0,1.3,0.1,1.8,0.4
		c0.5,0.3,0.9,0.7,1.2,1.2v-4.5c0-0.3,0.1-0.6,0.3-0.8c0.2-0.2,0.5-0.3,0.8-0.3S141.8,213.3,142.1,213.5z M139.4,224.2
		c0.4-0.5,0.6-1.3,0.6-2.2s-0.2-1.7-0.6-2.2s-1-0.8-1.7-0.8c-0.8,0-1.4,0.3-1.8,0.8c-0.4,0.5-0.6,1.2-0.6,2.2c0,1,0.2,1.7,0.6,2.2
		c0.4,0.5,1,0.8,1.8,0.8C138.4,225,139,224.8,139.4,224.2z"/>
	<path class="st3" d="M146.6,226.3c-0.7-0.4-1.3-1-1.7-1.7c-0.4-0.7-0.6-1.6-0.6-2.6s0.2-1.8,0.6-2.6c0.4-0.7,1-1.3,1.7-1.7
		c0.7-0.4,1.6-0.6,2.5-0.6c1,0,1.8,0.2,2.5,0.6c0.7,0.4,1.3,1,1.7,1.7c0.4,0.7,0.6,1.6,0.6,2.6s-0.2,1.8-0.6,2.6
		c-0.4,0.7-0.9,1.3-1.7,1.7c-0.7,0.4-1.6,0.6-2.5,0.6C148.2,226.9,147.3,226.7,146.6,226.3z M150.9,224.3c0.4-0.5,0.6-1.3,0.6-2.2
		c0-1-0.2-1.7-0.6-2.2c-0.4-0.5-1-0.8-1.8-0.8c-0.8,0-1.4,0.3-1.8,0.8c-0.4,0.5-0.6,1.3-0.6,2.2c0,1,0.2,1.7,0.6,2.2
		c0.4,0.5,1,0.8,1.8,0.8C149.9,225,150.5,224.8,150.9,224.3z"/>
	<path class="st3" d="M163.4,217.8c0.6,0.4,1.1,1,1.5,1.7s0.5,1.6,0.5,2.5s-0.2,1.8-0.5,2.6c-0.3,0.7-0.8,1.3-1.5,1.7
		c-0.6,0.4-1.3,0.6-2.1,0.6c-0.7,0-1.3-0.1-1.8-0.4c-0.5-0.3-0.9-0.7-1.2-1.2v0.5c0,0.3-0.1,0.6-0.3,0.8c-0.2,0.2-0.5,0.3-0.9,0.3
		c-0.4,0-0.6-0.1-0.8-0.3c-0.2-0.2-0.3-0.5-0.3-0.8v-11.4c0-0.3,0.1-0.6,0.3-0.8c0.2-0.2,0.5-0.3,0.9-0.3c0.4,0,0.6,0.1,0.9,0.3
		s0.3,0.5,0.3,0.8v4.5c0.3-0.5,0.7-0.9,1.2-1.2c0.5-0.3,1.1-0.4,1.8-0.4C162,217.2,162.7,217.4,163.4,217.8z M162.3,224.2
		c0.4-0.5,0.6-1.3,0.6-2.2c0-1-0.2-1.7-0.6-2.2c-0.4-0.5-1-0.8-1.8-0.8s-1.4,0.3-1.8,0.8s-0.6,1.3-0.6,2.2s0.2,1.7,0.6,2.2
		c0.4,0.5,1,0.8,1.8,0.8C161.3,225,161.9,224.8,162.3,224.2z"/>
	<path class="st3" d="M167.6,226.5c-0.2-0.2-0.3-0.5-0.3-0.8v-11.4c0-0.4,0.1-0.6,0.3-0.8c0.2-0.2,0.5-0.3,0.8-0.3s0.6,0.1,0.9,0.3
		c0.2,0.2,0.3,0.5,0.3,0.8v11.4c0,0.4-0.1,0.7-0.3,0.8c-0.2,0.2-0.5,0.3-0.9,0.3S167.9,226.7,167.6,226.5z"/>
	<path class="st3" d="M180,224.4c0.1,0.2,0.2,0.4,0.2,0.7c0,0.4-0.2,0.7-0.7,1c-0.4,0.2-0.9,0.4-1.5,0.6c-0.5,0.1-1.1,0.2-1.6,0.2
		c-1.5,0-2.7-0.4-3.6-1.3c-0.9-0.9-1.3-2-1.3-3.5c0-1,0.2-1.8,0.6-2.5c0.4-0.7,0.9-1.3,1.6-1.7c0.7-0.4,1.5-0.6,2.4-0.6
		c0.8,0,1.6,0.2,2.2,0.6c0.6,0.4,1.1,0.9,1.4,1.6s0.5,1.5,0.5,2.4c0,0.5-0.2,0.8-0.7,0.8H174c0.1,0.9,0.3,1.5,0.7,1.9s1,0.6,1.8,0.6
		c0.4,0,0.8-0.1,1.1-0.2c0.3-0.1,0.7-0.2,1.1-0.4c0.4-0.2,0.7-0.3,0.8-0.3C179.7,224.2,179.9,224.2,180,224.4z M174.7,219.5
		c-0.4,0.4-0.6,1-0.7,1.8h4.3c0-0.8-0.2-1.4-0.6-1.8c-0.4-0.4-0.9-0.6-1.5-0.6C175.6,218.8,175.1,219,174.7,219.5z"/>
	<path class="st3" d="M196.1,213.5c0.2,0.2,0.3,0.5,0.3,0.8v11.4c0,0.3-0.1,0.6-0.3,0.8c-0.2,0.2-0.5,0.3-0.9,0.3s-0.6-0.1-0.9-0.3
		c-0.2-0.2-0.3-0.5-0.3-0.8v-0.5c-0.3,0.5-0.7,0.9-1.2,1.2s-1.1,0.4-1.8,0.4c-0.8,0-1.5-0.2-2.1-0.6c-0.6-0.4-1.1-1-1.5-1.7
		c-0.3-0.7-0.5-1.6-0.5-2.6s0.2-1.8,0.5-2.5s0.8-1.3,1.5-1.7c0.6-0.4,1.3-0.6,2.2-0.6c0.7,0,1.3,0.1,1.8,0.4
		c0.5,0.3,0.9,0.7,1.2,1.2v-4.5c0-0.3,0.1-0.6,0.3-0.8c0.2-0.2,0.5-0.3,0.8-0.3S195.9,213.3,196.1,213.5z M193.5,224.2
		c0.4-0.5,0.6-1.3,0.6-2.2s-0.2-1.7-0.6-2.2s-1-0.8-1.7-0.8c-0.8,0-1.4,0.3-1.8,0.8c-0.4,0.5-0.6,1.2-0.6,2.2c0,1,0.2,1.7,0.6,2.2
		c0.4,0.5,1,0.8,1.8,0.8C192.4,225,193,224.8,193.5,224.2z"/>
	<path class="st3" d="M206.8,224.4c0.1,0.2,0.2,0.4,0.2,0.7c0,0.4-0.2,0.7-0.7,1c-0.4,0.2-0.9,0.4-1.5,0.6c-0.5,0.1-1.1,0.2-1.6,0.2
		c-1.5,0-2.7-0.4-3.6-1.3c-0.9-0.9-1.3-2-1.3-3.5c0-1,0.2-1.8,0.6-2.5c0.4-0.7,0.9-1.3,1.6-1.7c0.7-0.4,1.5-0.6,2.4-0.6
		c0.8,0,1.6,0.2,2.2,0.6c0.6,0.4,1.1,0.9,1.4,1.6s0.5,1.5,0.5,2.4c0,0.5-0.2,0.8-0.7,0.8h-5.6c0.1,0.9,0.3,1.5,0.7,1.9
		c0.4,0.4,1,0.6,1.8,0.6c0.4,0,0.8-0.1,1.1-0.2c0.3-0.1,0.7-0.2,1.1-0.4c0.4-0.2,0.7-0.3,0.8-0.3
		C206.5,224.2,206.7,224.2,206.8,224.4z M201.4,219.5c-0.4,0.4-0.6,1-0.7,1.8h4.3c0-0.8-0.2-1.4-0.6-1.8c-0.4-0.4-0.9-0.6-1.5-0.6
		C202.3,218.8,201.8,219,201.4,219.5z"/>
	<path class="st3" d="M223.6,225.7c0,0.7-0.4,1-1.1,1h-6.4c-0.8,0-1.2-0.3-1.2-1c0-0.6,0.4-1,1.2-1h2V216l-1.8,1.1
		c-0.2,0.1-0.3,0.2-0.5,0.2c-0.3,0-0.5-0.1-0.7-0.3c-0.2-0.2-0.3-0.5-0.3-0.8c0-0.4,0.2-0.7,0.5-0.9l3-1.8c0.4-0.2,0.7-0.3,1.1-0.3
		c0.4,0,0.6,0.1,0.9,0.3c0.2,0.2,0.3,0.5,0.3,0.9v10.3h2C223.3,224.7,223.6,225.1,223.6,225.7z"/>
	<path class="st3" d="M226.5,225.1c-0.8-1.2-1.3-2.9-1.3-5.1c0-2.2,0.4-3.9,1.3-5.1c0.8-1.2,2.1-1.8,3.6-1.8s2.8,0.6,3.6,1.8
		c0.8,1.2,1.3,2.9,1.3,5.1s-0.4,3.9-1.3,5.1c-0.8,1.2-2.1,1.8-3.6,1.8S227.3,226.3,226.5,225.1z M232,223.8c0.4-0.8,0.6-2.1,0.6-3.8
		c0-1.7-0.2-3-0.6-3.8s-1-1.2-1.9-1.2s-1.5,0.4-1.9,1.2c-0.4,0.8-0.6,2-0.6,3.8c0,1.7,0.2,3,0.6,3.8c0.4,0.8,1,1.2,1.9,1.2
		S231.6,224.6,232,223.8z"/>
	<path class="st3" d="M250.1,224.4c0.1,0.2,0.2,0.4,0.2,0.7c0,0.4-0.2,0.7-0.7,1c-0.4,0.2-0.9,0.4-1.5,0.6c-0.5,0.1-1.1,0.2-1.6,0.2
		c-1.5,0-2.7-0.4-3.6-1.3c-0.9-0.9-1.3-2-1.3-3.5c0-1,0.2-1.8,0.6-2.5c0.4-0.7,0.9-1.3,1.6-1.7s1.5-0.6,2.4-0.6
		c0.8,0,1.6,0.2,2.2,0.6c0.6,0.4,1.1,0.9,1.4,1.6c0.3,0.7,0.5,1.5,0.5,2.4c0,0.5-0.2,0.8-0.7,0.8h-5.6c0.1,0.9,0.3,1.5,0.7,1.9
		s1,0.6,1.8,0.6c0.4,0,0.8-0.1,1.1-0.2c0.3-0.1,0.7-0.2,1.1-0.4c0.4-0.2,0.7-0.3,0.8-0.3C249.8,224.2,250,224.2,250.1,224.4z
		 M244.8,219.5c-0.4,0.4-0.6,1-0.7,1.8h4.3c0-0.8-0.2-1.4-0.6-1.8c-0.4-0.4-0.9-0.6-1.5-0.6C245.7,218.8,245.2,219,244.8,219.5z"/>
	<path class="st3" d="M252.4,226.1c-0.4-0.2-0.6-0.6-0.6-1c0-0.3,0.1-0.5,0.2-0.6c0.1-0.2,0.3-0.2,0.5-0.2c0.2,0,0.5,0.1,0.9,0.3
		c0.4,0.2,0.8,0.3,1.1,0.4s0.8,0.2,1.3,0.2c0.5,0,1-0.1,1.2-0.3s0.4-0.4,0.4-0.7c0-0.2-0.1-0.4-0.2-0.5c-0.1-0.1-0.3-0.2-0.6-0.4
		c-0.3-0.1-0.8-0.2-1.4-0.4c-1.1-0.2-1.9-0.6-2.4-1c-0.5-0.4-0.7-1-0.7-1.7c0-0.6,0.2-1.1,0.5-1.5s0.8-0.8,1.4-1s1.2-0.4,2-0.4
		c0.5,0,1,0.1,1.5,0.2s0.9,0.3,1.3,0.6c0.4,0.3,0.6,0.6,0.6,1c0,0.3-0.1,0.5-0.2,0.6c-0.1,0.2-0.3,0.3-0.5,0.3c-0.1,0-0.3,0-0.4-0.1
		c-0.1-0.1-0.3-0.1-0.5-0.3c-0.4-0.2-0.7-0.3-1-0.4c-0.3-0.1-0.6-0.1-1-0.1c-0.5,0-0.8,0.1-1.1,0.3s-0.4,0.5-0.4,0.8
		c0,0.3,0.1,0.6,0.4,0.7s0.8,0.3,1.6,0.5c0.9,0.2,1.5,0.4,2,0.6c0.5,0.2,0.8,0.5,1,0.9c0.2,0.3,0.3,0.8,0.3,1.3
		c0,0.9-0.4,1.6-1.1,2.1c-0.7,0.5-1.7,0.8-2.9,0.8C254.4,226.9,253.2,226.6,252.4,226.1z"/>
	<path class="st3" d="M276.2,225.7c0,0.7-0.4,1-1.1,1h-7.2c-0.3,0-0.6-0.1-0.8-0.3c-0.2-0.2-0.3-0.4-0.3-0.7c0-0.4,0.1-0.7,0.4-1
		l4.3-4.7c0.5-0.6,0.9-1.1,1.2-1.6s0.4-1,0.4-1.5c0-0.6-0.2-1.1-0.5-1.4c-0.3-0.3-0.8-0.5-1.5-0.5c-0.5,0-1,0.1-1.5,0.3
		c-0.5,0.2-1,0.5-1.5,0.8c-0.1,0.1-0.3,0.2-0.4,0.2c-0.1,0.1-0.3,0.1-0.4,0.1c-0.2,0-0.4-0.1-0.6-0.3s-0.2-0.4-0.2-0.7
		c0-0.2,0-0.4,0.1-0.5s0.2-0.3,0.3-0.4c0.6-0.4,1.2-0.8,2-1.1c0.8-0.3,1.5-0.4,2.3-0.4c1.3,0,2.4,0.3,3.1,1c0.8,0.7,1.2,1.6,1.2,2.7
		c0,0.8-0.2,1.5-0.5,2.2c-0.3,0.7-0.9,1.4-1.7,2.3l-3.3,3.5h5C275.8,224.7,276.2,225.1,276.2,225.7z"/>
	<path class="st3" d="M279.1,225.1c-0.8-1.2-1.3-2.9-1.3-5.1c0-2.2,0.4-3.9,1.3-5.1c0.8-1.2,2.1-1.8,3.6-1.8s2.8,0.6,3.6,1.8
		c0.8,1.2,1.3,2.9,1.3,5.1s-0.4,3.9-1.3,5.1c-0.8,1.2-2.1,1.8-3.6,1.8S279.9,226.3,279.1,225.1z M284.6,223.8
		c0.4-0.8,0.6-2.1,0.6-3.8c0-1.7-0.2-3-0.6-3.8c-0.4-0.8-1-1.2-1.9-1.2s-1.5,0.4-1.9,1.2c-0.4,0.8-0.6,2-0.6,3.8
		c0,1.7,0.2,3,0.6,3.8c0.4,0.8,1,1.2,1.9,1.2S284.2,224.6,284.6,223.8z"/>
</g>
<g>
	<g>
		<circle class="st2" cx="322.7" cy="139.6" r="28.4"/>
	</g>
	<g>
		<path class="st0" d="M321.7,150.2c0,1.4-0.8,2-2.3,2h-13c-1.6,0-2.3-0.7-2.3-2c0-1.3,0.8-2,2.3-2h4v-17.5l-3.7,2.3
			c-0.4,0.2-0.7,0.3-1,0.3c-0.5,0-1-0.2-1.4-0.7c-0.4-0.5-0.6-1-0.6-1.5c0-0.7,0.3-1.3,1-1.7l5.9-3.7c0.8-0.5,1.5-0.7,2.2-0.7
			c0.7,0,1.3,0.2,1.7,0.7c0.4,0.4,0.7,1,0.7,1.8v20.8h4C320.9,148.2,321.7,148.9,321.7,150.2z"/>
		<path class="st0" d="M326.4,149c-1.7-2.4-2.5-5.8-2.5-10.3c0-4.5,0.8-7.9,2.5-10.3c1.7-2.4,4.1-3.5,7.3-3.5c3.2,0,5.6,1.2,7.3,3.5
			c1.7,2.4,2.5,5.8,2.5,10.3c0,4.5-0.8,7.9-2.5,10.3c-1.7,2.4-4.1,3.6-7.3,3.6C330.6,152.6,328.1,151.4,326.4,149z M337.5,146.3
			c0.8-1.6,1.2-4.1,1.2-7.6c0-3.5-0.4-6-1.2-7.6c-0.8-1.6-2.1-2.4-3.8-2.4c-1.7,0-3,0.8-3.8,2.4c-0.8,1.6-1.2,4.1-1.2,7.6
			c0,3.5,0.4,6,1.2,7.6c0.8,1.6,2.1,2.4,3.8,2.4C335.5,148.7,336.8,147.9,337.5,146.3z"/>
	</g>
</g>
<g>
	<g>
		<circle class="st1" cx="205.1" cy="139.6" r="28.4"/>
	</g>
	<g>
		<path class="st0" d="M212,136c1.3,0.7,2.3,1.7,3,3c0.7,1.3,1.1,2.8,1.1,4.5c0,1.8-0.4,3.3-1.2,4.7c-0.8,1.4-1.9,2.4-3.4,3.2
			c-1.5,0.8-3.2,1.1-5.1,1.1c-1.6,0-3.1-0.3-4.7-0.8c-1.5-0.5-2.8-1.2-3.9-2.1c-0.6-0.5-0.9-1.1-0.9-1.8c0-0.6,0.2-1,0.5-1.4
			c0.3-0.4,0.7-0.6,1.1-0.6c0.3,0,0.5,0,0.7,0.1c0.2,0.1,0.5,0.2,0.8,0.4c1,0.7,2,1.3,3,1.6c1,0.4,2,0.6,3.1,0.6
			c1.7,0,3-0.4,3.9-1.3c0.9-0.8,1.3-2,1.3-3.6c0-1.5-0.5-2.7-1.4-3.6c-0.9-0.9-2.2-1.3-3.7-1.3c-1,0-1.9,0.1-2.7,0.4
			c-0.8,0.3-1.6,0.8-2.4,1.4c-0.5,0.3-1,0.5-1.5,0.5c-0.5,0-0.9-0.2-1.3-0.5c-0.4-0.3-0.5-0.7-0.5-1.2v-12c0-0.7,0.2-1.3,0.6-1.7
			c0.4-0.4,1-0.6,1.7-0.6H213c1.5,0,2.3,0.6,2.3,1.9s-0.8,1.9-2.3,1.9h-10.3v7.3c1.3-0.9,2.9-1.4,4.8-1.4
			C209.2,134.9,210.7,135.3,212,136z"/>
	</g>
</g>
<g>
	<g>
		<circle class="st1" cx="87.5" cy="139.6" r="28.4"/>
	</g>
	<g>
		<path class="st0" d="M94.3,136c1.3,0.7,2.3,1.7,3,3c0.7,1.3,1.1,2.8,1.1,4.5c0,1.8-0.4,3.3-1.2,4.7c-0.8,1.4-1.9,2.4-3.4,3.2
			c-1.5,0.8-3.2,1.1-5.1,1.1c-1.6,0-3.1-0.3-4.7-0.8c-1.5-0.5-2.8-1.2-3.9-2.1c-0.6-0.5-0.9-1.1-0.9-1.8c0-0.6,0.2-1,0.5-1.4
			c0.3-0.4,0.7-0.6,1.1-0.6c0.3,0,0.5,0,0.7,0.1c0.2,0.1,0.5,0.2,0.8,0.4c1,0.7,2,1.3,3,1.6c1,0.4,2,0.6,3.1,0.6
			c1.7,0,3-0.4,3.9-1.3s1.3-2,1.3-3.6c0-1.5-0.5-2.7-1.4-3.6c-0.9-0.9-2.2-1.3-3.7-1.3c-1,0-1.9,0.1-2.7,0.4
			c-0.8,0.3-1.6,0.8-2.4,1.4c-0.5,0.3-1,0.5-1.5,0.5c-0.5,0-0.9-0.2-1.3-0.5c-0.4-0.3-0.5-0.7-0.5-1.2v-12c0-0.7,0.2-1.3,0.6-1.7
			c0.4-0.4,1-0.6,1.7-0.6h12.8c1.5,0,2.3,0.6,2.3,1.9s-0.8,1.9-2.3,1.9H85.1v7.3c1.3-0.9,2.9-1.4,4.8-1.4
			C91.6,134.9,93,135.3,94.3,136z"/>
	</g>
</g>
<path class="st4" d="M350.3,314.6H63.2c-12.5,0-22.6-10.1-22.6-22.6v0c0-12.5,10.1-22.6,22.6-22.6h287.1c12.5,0,22.6,10.1,22.6,22.6
	v0C372.9,304.5,362.8,314.6,350.3,314.6z"/>
<g>
	<g>
		<circle class="st2" cx="60.2" cy="292.1" r="12.2"/>
		<circle class="st2" cx="92.2" cy="292.1" r="12.2"/>
		<circle class="st2" cx="124.3" cy="292.1" r="12.2"/>
		<circle class="st2" cx="156.4" cy="292.1" r="12.2"/>
		<circle class="st2" cx="188.4" cy="292.1" r="12.2"/>
	</g>
	<g>
		<circle class="st2" cx="220.3" cy="292.1" r="12.2"/>
		<circle class="st2" cx="252.4" cy="292.1" r="12.2"/>
		<circle class="st2" cx="284.4" cy="292.1" r="12.2"/>
		<circle class="st2" cx="316.5" cy="292.1" r="12.2"/>
		<circle class="st2" cx="348.6" cy="292.1" r="12.2"/>
	</g>
</g>
<path class="st4" d="M350.3,377.8H63.2c-12.5,0-22.6-10.1-22.6-22.6v0c0-12.5,10.1-22.6,22.6-22.6h287.1c12.5,0,22.6,10.1,22.6,22.6
	v0C372.9,367.7,362.8,377.8,350.3,377.8z"/>
<g>
	<g>
		<circle class="st2" cx="60.2" cy="355.2" r="12.2"/>
		<circle class="st2" cx="92.2" cy="355.2" r="12.2"/>
		<circle class="st2" cx="124.3" cy="355.2" r="12.2"/>
		<circle class="st2" cx="156.4" cy="355.2" r="12.2"/>
		<circle class="st2" cx="188.4" cy="355.2" r="12.2"/>
	</g>
	<g>
		<circle class="st2" cx="220.3" cy="355.2" r="12.2"/>
		<circle class="st2" cx="252.4" cy="355.2" r="12.2"/>
		<circle class="st2" cx="284.4" cy="355.2" r="12.2"/>
		<circle class="st2" cx="316.5" cy="355.2" r="12.2"/>
		<circle class="st2" cx="348.6" cy="355.2" r="12.2"/>
	</g>
</g>
<g>
	<path class="st3" d="M283.1,136.4c0.6,0.6,0.9,1.3,0.9,2.2s-0.3,1.6-0.9,2.2c-0.6,0.6-1.3,0.9-2.2,0.9H270h-6.2h-10.9
		c-0.9,0-1.6-0.3-2.2-0.9s-0.9-1.3-0.9-2.2s0.3-1.6,0.9-2.2s1.3-0.9,2.2-0.9h10.9h6.2h10.9C281.8,135.5,282.5,135.8,283.1,136.4z"/>
</g>
<g>
	<path class="st3" d="M283.1,149.4c0.6,0.6,0.9,1.3,0.9,2.2s-0.3,1.6-0.9,2.2c-0.6,0.6-1.3,0.9-2.2,0.9H270h-6.2h-10.9
		c-0.9,0-1.6-0.3-2.2-0.9s-0.9-1.3-0.9-2.2s0.3-1.6,0.9-2.2s1.3-0.9,2.2-0.9h10.9h6.2h10.9C281.8,148.5,282.5,148.8,283.1,149.4z"/>
</g>
<g>
	<path class="st3" d="M165.9,142.6c0.6,0.6,0.9,1.3,0.9,2.2s-0.3,1.6-0.9,2.2s-1.3,0.9-2.2,0.9h-10.9h-6.2h-10.9
		c-0.9,0-1.6-0.3-2.2-0.9s-0.9-1.3-0.9-2.2s0.3-1.6,0.9-2.2s1.3-0.9,2.2-0.9h10.9h6.2h10.9C164.6,141.7,165.3,142,165.9,142.6z"/>
</g>
<g>
	<path class="st3" d="M151.9,161c-0.6,0.6-1.3,0.9-2.2,0.9s-1.6-0.3-2.2-0.9s-0.9-1.3-0.9-2.2v-10.9v-6.2v-10.9
		c0-0.9,0.3-1.6,0.9-2.2s1.3-0.9,2.2-0.9s1.6,0.3,2.2,0.9s0.9,1.3,0.9,2.2v10.9v6.2v10.9C152.8,159.7,152.5,160.4,151.9,161z"/>
</g>
</svg>
