<?xml version="1.0" encoding="utf-8"?>
<!-- Generator: Adobe Illustrator 22.1.0, SVG Export Plug-In . SVG Version: 6.00 Build 0)  -->
<svg version="1.1" id="Layer_1" xmlns="http://www.w3.org/2000/svg" xmlns:xlink="http://www.w3.org/1999/xlink" x="0px" y="0px"
	 viewBox="0 0 400 400" style="enable-background:new 0 0 400 400;" xml:space="preserve">
<style type="text/css">
	.st0{fill:#691869;}
	.st1{fill:#FFFFFF;}
	.st2{fill:#ECA44D;}
	.st3{fill:#CC0066;}
	.st4{fill:#FF6600;}
	.st5{fill:#F8EE64;}
	.st6{fill:#6600CC;}
</style>
<g>
	<path class="st0" d="M141.2,197.8c0.6,0.6,0.9,1.3,0.9,2.2s-0.3,1.6-0.9,2.2s-1.3,0.9-2.2,0.9h-10.9h-6.2H111
		c-0.9,0-1.6-0.3-2.2-0.9s-0.9-1.3-0.9-2.2s0.3-1.6,0.9-2.2s1.3-0.9,2.2-0.9h10.9h6.2H139C139.9,196.9,140.6,197.2,141.2,197.8z"/>
</g>
<g>
	<path class="st0" d="M127.2,216.2c-0.6,0.6-1.3,0.9-2.2,0.9s-1.6-0.3-2.2-0.9s-0.9-1.3-0.9-2.2v-10.9v-6.2V186
		c0-0.9,0.3-1.6,0.9-2.2s1.3-0.9,2.2-0.9s1.6,0.3,2.2,0.9s0.9,1.3,0.9,2.2v10.9v6.2V214C128.1,214.9,127.8,215.6,127.2,216.2z"/>
</g>
<g>
	<g>
		<path class="st0" d="M286,197.8c0.6,0.6,0.9,1.3,0.9,2.2s-0.3,1.6-0.9,2.2c-0.6,0.6-1.3,0.9-2.2,0.9h-10.9h-6.2h-10.9
			c-0.9,0-1.6-0.3-2.2-0.9s-0.9-1.3-0.9-2.2s0.3-1.6,0.9-2.2s1.3-0.9,2.2-0.9h10.9h6.2h10.9C284.7,196.9,285.4,197.2,286,197.8z"/>
	</g>
	<g>
		<path class="st0" d="M272,216.2c-0.6,0.6-1.3,0.9-2.2,0.9s-1.6-0.3-2.2-0.9c-0.6-0.6-0.9-1.3-0.9-2.2v-10.9v-6.2V186
			c0-0.9,0.3-1.6,0.9-2.2c0.6-0.6,1.3-0.9,2.2-0.9s1.6,0.3,2.2,0.9c0.6,0.6,0.9,1.3,0.9,2.2v10.9v6.2V214
			C272.9,214.9,272.6,215.6,272,216.2z"/>
	</g>
</g>
<g>
	<g>
		<path class="st1" d="M37.6,224.5c-1.3,0-2.5-0.1-3.8-0.4c-3.4-0.7-6.5-2.8-8.3-5.8c-1.9-3.2-2.3-6.9-2.1-9.8
			c-6-2.4-11.6-7.2-12.1-14.9c-0.3-5,1.7-7.8,3.4-9.3c1.9-1.6,4.5-2.5,7.5-2.5c1.7,0,3.6,0.2,5.6,0.7c2.1,0.5,4.3,1.2,6.4,2
			c0.2-1.3,0.7-2.5,1.7-3.4c1.1-1.1,2.5-1.6,4.1-1.6c0.6,0,1.2,0.1,1.8,0.3c1-1.7,2.9-2.8,5-2.8c0.4,0,0.9,0.1,1.3,0.2
			c1.4,0.3,2.7,1.2,3.5,2.4c4.2-5.4,9.6-10.4,15-10.4c0.7,0,1.4,0.1,2.1,0.2c0.1,0,0.3,0.1,0.4,0.1c3,1,5.5,3.2,6.7,6.1
			c3.5,6.9,1.2,13.9-2.7,18.9c1.8,2.7,3.7,6.7,3.2,11c-0.3,2.9-1.9,7.1-7.5,10.4c0,0-0.1,0-0.1,0.1c-1.9,1.1-4.1,1.6-6.3,1.6
			c-1.2,0-2.4-0.2-3.5-0.5c-0.5-0.2-1.1-0.3-1.6-0.5c-1,1.2-2.3,2.1-3.9,2.6c-0.7,0.2-1.4,0.3-2.1,0.3c-0.6,0-1.2-0.1-1.8-0.2
			c-0.3-0.1-0.5-0.1-0.8-0.2c-2.8,3.4-6.3,5.3-10.3,5.4C38.1,224.5,37.8,224.5,37.6,224.5z"/>
		<path class="st1" d="M66.6,174.3c0.3,0,0.7,0,1,0.1c1.7,0.5,3.1,1.8,3.7,3.5c4.4,8.5-4.4,16.3-4.7,16.6c0.2,0.2,5.4,5.3,4.8,10.6
			c-0.3,2.6-2,4.9-5.1,6.7c-1.2,0.7-2.5,1-3.9,1c-0.7,0-1.4-0.1-2.2-0.3c-2.5-0.7-4.8-1.9-6.8-3.5l-0.2-0.2l0.7,2.3
			c0.4,1.5-0.4,3.1-1.9,3.5c-0.3,0.1-0.5,0.1-0.8,0.1c-0.2,0-0.4,0-0.6-0.1l0,0c-1-0.2-1.8-1-2.1-2l-0.7-2.4l-0.1,0.3
			c-0.7,2.1-3.6,9-9.5,9c-0.2,0-0.4,0-0.6,0c-0.9,0-1.9-0.1-2.8-0.3c-2.1-0.4-3.9-1.7-5-3.5c-2.5-4.1-1-10.1-0.8-10.8l-0.7-0.2
			c-2.7-0.6-11.4-3.3-12-11.6c-0.2-2.3,0.4-4.1,1.6-5.1c1-0.8,2.4-1.3,4.3-1.3c1.3,0,2.8,0.2,4.5,0.6c6.5,1.5,14.1,5.6,16.3,6.8
			l0.4,0.2l-1.4-4.9c-0.1-0.3-0.1-0.7-0.1-1l-2.5-2.6c-0.3-0.3-0.3-0.8,0-1.1c0.2-0.2,0.4-0.2,0.6-0.2c0.2,0,0.4,0.1,0.6,0.2
			l2.1,2.1c0.3-0.4,0.8-0.7,1.3-0.8c0.2-0.1,0.5-0.1,0.7-0.1c0.2,0,0.3,0,0.5,0l0.8-3.3c0.1-0.4,0.4-0.6,0.8-0.6c0.1,0,0.1,0,0.2,0
			c0.4,0.1,0.7,0.5,0.6,1l-0.9,3.7c0.4,0.3,0.7,0.8,0.8,1.3l1.4,4.9l0.2-0.3C49.5,191.8,59.3,174.2,66.6,174.3 M66.6,164.3
			C66.6,164.3,66.6,164.3,66.6,164.3c-5.3,0-10.4,2.7-15.8,8.6c-0.5-0.2-1-0.4-1.6-0.5c-0.8-0.2-1.6-0.3-2.5-0.3
			c-2.6,0-5,0.9-6.9,2.5c-2.8,0-5.4,1.1-7.4,3.1c-0.3,0.3-0.5,0.5-0.8,0.8c-0.9-0.3-1.8-0.5-2.7-0.7c-2.5-0.6-4.7-0.9-6.8-0.9
			c-5.4,0-8.8,2-10.8,3.6c-2.1,1.8-5.6,5.9-5.1,13.4c0,0,0,0,0,0.1c0.6,8.6,5.9,14.4,12.1,17.8c0.2,3,1,6.2,2.8,9.2
			c2.6,4.2,6.8,7.2,11.6,8.2c1.6,0.3,3.2,0.5,4.8,0.5c0.3,0,0.6,0,0.9,0c4.5-0.1,8.6-1.8,11.9-4.9c0.3,0,0.6,0,0.8,0
			c1.2,0,2.4-0.2,3.5-0.5c1.4-0.4,2.7-1,3.8-1.8c1.3,0.3,2.5,0.4,3.8,0.4c3.1,0,6.1-0.8,8.8-2.3c0.1,0,0.1-0.1,0.2-0.1
			c5.8-3.4,9.3-8.4,9.9-14.2c0.5-4.3-0.7-8.2-2.2-11.4c3.5-6,5.1-13.6,1.3-21.2c-1.9-4.2-5.4-7.3-9.7-8.7c-0.3-0.1-0.5-0.2-0.8-0.2
			C68.8,164.4,67.7,164.3,66.6,164.3L66.6,164.3z"/>
	</g>
	<g>
		<path class="st1" d="M64.6,271.4c-2.5,0-4.9-0.7-7-2c-0.5-0.3-1-0.6-1.4-1c-1.3,0.9-2.8,1.4-4.4,1.4c0,0-0.1,0-0.1,0
			c-1.3,0-2.6-0.4-3.8-1c-0.3-0.1-0.5-0.3-0.7-0.5c-2.2,1.5-4.9,2.6-8,2.6c-1.1,0-2.2-0.2-3.3-0.5c-1.5-0.4-2.9-0.9-4.2-1.7
			c-3.1-1.6-5.4-4.6-6.3-8c-0.9-3.6-0.2-7.3,0.8-10c-5.1-4-9-10.3-7.3-17.8c1.1-4.9,3.8-7,5.9-7.9c1.2-0.5,2.6-0.8,4-0.8
			c2.7,0,5.7,1,9.1,2.9c1.9,1.1,3.8,2.4,5.5,3.8c0.5-1.2,1.4-2.2,2.6-2.8c0.8-0.4,1.7-0.7,2.7-0.7c1.2,0,2.4,0.4,3.4,1.1
			c1-0.9,2.4-1.5,3.9-1.5c1,0,2,0.3,2.9,0.8c1.3,0.7,2.2,2,2.7,3.4c5.7-4.1,10.4-6.1,14.4-6.1c1.8,0,3.5,0.4,5,1.3
			c0.1,0.1,0.2,0.1,0.3,0.2c2.6,1.8,4.3,4.6,4.7,7.8c1.3,7.6-2.9,13.6-8,17.3c1,3.1,1.6,7.4-0.1,11.4c-1.2,2.7-3.9,6.3-10.2,7.8
			c0,0-0.1,0-0.1,0C66.5,271.3,65.5,271.4,64.6,271.4C64.6,271.4,64.6,271.4,64.6,271.4z"/>
		<path class="st1" d="M28.7,229.3c1.8,0,4,0.8,6.6,2.3c5.8,3.4,11.9,9.5,13.6,11.2l0.3,0.3l0.1-5.1c0-0.4,0.1-0.7,0.2-1l-1.7-3.2
			c-0.2-0.4-0.1-0.9,0.3-1.1c0.1-0.1,0.2-0.1,0.4-0.1c0.3,0,0.6,0.2,0.7,0.4l1.4,2.6c0.4-0.3,0.9-0.4,1.5-0.4c0,0,0,0,0,0
			c0.4,0,0.8,0.1,1.2,0.3l1.7-3c0.1-0.3,0.4-0.4,0.7-0.4c0.1,0,0.3,0,0.4,0.1c0.4,0.2,0.5,0.7,0.3,1.1l-1.9,3.3
			c0.3,0.4,0.4,1,0.4,1.5l-0.1,5.1l0.3-0.3c0.6-0.6,13.1-12.8,20.5-12.8c0.9,0,1.7,0.2,2.5,0.6c1.5,1,2.4,2.6,2.6,4.4
			c1.8,9.4-8.9,14.3-9.3,14.6c0.2,0.3,3.7,6.6,1.6,11.5c-1,2.4-3.3,4.1-6.8,5c-0.6,0.1-1.1,0.2-1.7,0.2c-1.5,0-3-0.4-4.3-1.2
			c-2.2-1.4-4-3.2-5.4-5.3l-0.2-0.2l0,2.4c0,1.5-1.3,2.8-2.8,2.8c0,0,0,0,0,0c-0.5,0-1-0.1-1.4-0.4l0,0c-0.9-0.5-1.4-1.5-1.4-2.5
			l0-2.5l-0.2,0.3c-1.1,1.6-4.9,6.2-9.7,6.2c-0.7,0-1.3-0.1-2-0.3c-1.1-0.3-2.1-0.7-3.1-1.2c-1.9-1-3.3-2.8-3.8-4.8
			c-1.2-4.7,1.9-10,2.3-10.6l-0.6-0.4c-2.4-1.4-10-6.5-8.1-14.5c0.5-2.3,1.5-3.8,3-4.4C27.3,229.4,28,229.3,28.7,229.3 M28.7,219.3
			C28.7,219.3,28.7,219.3,28.7,219.3c-2.1,0-4.1,0.4-6,1.2c-2.6,1.1-7.1,4.1-8.8,11.3c0,0,0,0,0,0c-1.9,8.4,1.5,15.5,6.5,20.5
			c-0.6,2.9-0.8,6.2,0,9.6c1.2,4.8,4.4,8.8,8.8,11.2c1.7,0.9,3.4,1.6,5.3,2.1c1.5,0.4,3.1,0.6,4.6,0.6c3.1,0,5.8-0.8,8.1-1.9
			c1.4,0.5,2.9,0.8,4.3,0.8c0,0,0.1,0,0.2,0c1.4,0,2.7-0.2,4-0.6c2.7,1.5,5.7,2.3,8.8,2.3c1.3,0,2.6-0.1,3.9-0.4
			c0.1,0,0.2,0,0.2-0.1c6.5-1.6,11.3-5.4,13.6-10.7c1.7-4,1.7-8.1,1.1-11.5c5.1-4.7,8.8-11.5,7.4-20c-0.6-4.5-3-8.6-6.8-11.2
			c-0.2-0.2-0.4-0.3-0.7-0.4c-2.2-1.3-4.7-1.9-7.5-1.9c-4,0-8.2,1.4-13.1,4.3c-0.4-0.3-0.9-0.7-1.4-0.9c-1.6-0.9-3.5-1.4-5.4-1.4
			c-1.5,0-2.9,0.3-4.2,0.8c-1-0.3-2-0.4-3-0.4c0,0,0,0,0,0c-1.7,0-3.5,0.4-5,1.2c-0.3,0.2-0.7,0.4-1,0.6c-0.8-0.5-1.6-1-2.3-1.5
			C36.1,220.5,32.3,219.3,28.7,219.3L28.7,219.3L28.7,219.3z"/>
	</g>
	<g>
		<path class="st1" d="M43,326.5c-1.3,0-2.5-0.1-3.8-0.4c-3.4-0.7-6.5-2.8-8.3-5.8c-1.9-3.2-2.3-6.9-2.1-9.8
			c-6-2.4-11.6-7.2-12.1-14.9c-0.3-5,1.7-7.8,3.4-9.3c1.9-1.6,4.5-2.5,7.5-2.5c1.7,0,3.6,0.2,5.6,0.7c2.1,0.5,4.3,1.2,6.4,2
			c0.2-1.3,0.7-2.5,1.7-3.4c1.1-1.1,2.5-1.6,4.1-1.6c0.6,0,1.2,0.1,1.8,0.3c1-1.7,2.9-2.8,5-2.8c0.4,0,0.9,0.1,1.3,0.2
			c1.4,0.3,2.7,1.2,3.5,2.4c4.2-5.4,9.6-10.4,15-10.4c0.7,0,1.4,0.1,2.1,0.2c0.1,0,0.3,0.1,0.4,0.1c3,1,5.5,3.2,6.7,6.1
			c3.5,6.9,1.2,13.9-2.7,18.9c1.8,2.7,3.7,6.6,3.2,11c-0.3,2.9-1.9,7.1-7.5,10.4c0,0-0.1,0-0.1,0.1c-1.9,1.1-4.1,1.6-6.3,1.6l0,0
			c-1.2,0-2.4-0.2-3.5-0.5c-0.5-0.1-1.1-0.3-1.6-0.5c-1,1.2-2.4,2.1-3.9,2.6c-0.7,0.2-1.4,0.3-2.1,0.3c-0.6,0-1.2-0.1-1.8-0.2
			c-0.3-0.1-0.5-0.1-0.8-0.2c-2.8,3.4-6.3,5.3-10.3,5.4C43.5,326.5,43.2,326.5,43,326.5z"/>
		<path class="st1" d="M72,276.2c0.3,0,0.7,0,1,0.1c1.7,0.5,3.1,1.8,3.7,3.5c4.4,8.5-4.4,16.3-4.7,16.6c0.2,0.2,5.4,5.3,4.8,10.6
			c-0.3,2.6-2,4.9-5.1,6.7c-1.2,0.7-2.5,1-3.9,1c-0.7,0-1.4-0.1-2.2-0.3c-2.5-0.7-4.8-1.9-6.8-3.5l-0.2-0.2l0.7,2.3
			c0.4,1.5-0.4,3.1-1.9,3.5c-0.3,0.1-0.5,0.1-0.8,0.1c-0.2,0-0.4,0-0.6-0.1l0,0c-1-0.2-1.8-1-2.1-2l-0.7-2.4l-0.1,0.3
			c-0.7,2.1-3.6,9-9.5,9c-0.2,0-0.4,0-0.6,0c-0.9,0-1.9-0.1-2.8-0.3c-2.1-0.4-3.9-1.7-5-3.5c-2.5-4.1-1-10.1-0.8-10.8l-0.7-0.2
			c-2.7-0.6-11.4-3.3-12-11.6c-0.2-2.3,0.4-4.1,1.6-5.1c1-0.8,2.4-1.3,4.3-1.3c1.3,0,2.8,0.2,4.5,0.6c6.5,1.5,14.1,5.6,16.3,6.8
			l0.4,0.2l-1.4-4.9c-0.1-0.3-0.1-0.7-0.1-1l-2.5-2.6c-0.3-0.3-0.3-0.8,0-1.1c0.2-0.2,0.4-0.2,0.6-0.2c0.2,0,0.4,0.1,0.6,0.2
			l2.1,2.1c0.3-0.4,0.8-0.7,1.3-0.8c0.2-0.1,0.5-0.1,0.7-0.1c0.2,0,0.3,0,0.5,0l0.8-3.3c0.1-0.4,0.4-0.6,0.8-0.6c0.1,0,0.1,0,0.2,0
			c0.4,0.1,0.7,0.5,0.6,1l-0.9,3.7c0.4,0.3,0.7,0.8,0.8,1.3l1.4,4.9l0.2-0.3C54.8,293.8,64.6,276.2,72,276.2 M72,266.2
			c-5.3,0-10.4,2.7-15.8,8.6c-0.5-0.2-1-0.4-1.6-0.5c-0.8-0.2-1.6-0.3-2.5-0.3c-2.6,0-5,0.9-6.9,2.5c-2.8,0-5.4,1.1-7.4,3.1
			c-0.3,0.3-0.5,0.5-0.8,0.8c-0.9-0.3-1.8-0.5-2.7-0.7c-2.5-0.6-4.7-0.9-6.8-0.9c-5.4,0-8.8,2-10.8,3.6c-2.1,1.8-5.6,5.9-5.1,13.4
			c0,0,0,0,0,0.1c0.6,8.6,5.9,14.4,12.1,17.8c0.2,3,1,6.2,2.8,9.2c2.6,4.2,6.8,7.2,11.6,8.2c1.6,0.3,3.2,0.5,4.8,0.5
			c0.3,0,0.6,0,0.9,0c4.5-0.1,8.6-1.8,11.9-4.9c0.3,0,0.6,0,0.8,0c1.2,0,2.4-0.2,3.5-0.5c1.4-0.4,2.7-1,3.8-1.8
			c1.3,0.3,2.5,0.4,3.8,0.4c3.1,0,6.1-0.8,8.8-2.3c0.1,0,0.1-0.1,0.2-0.1c5.8-3.4,9.3-8.4,9.9-14.2c0.5-4.3-0.7-8.2-2.2-11.3
			c3.5-6,5.1-13.6,1.3-21.2c-1.9-4.2-5.4-7.3-9.7-8.7c-0.3-0.1-0.5-0.2-0.8-0.2C74.2,266.3,73.1,266.2,72,266.2L72,266.2z"/>
	</g>
	<g>
		<path class="st1" d="M43,122.6c-1.3,0-2.5-0.1-3.8-0.4c-3.4-0.7-6.5-2.8-8.3-5.8c-1.9-3.2-2.3-6.9-2.1-9.8
			c-6-2.4-11.6-7.2-12.1-14.9c-0.3-5,1.7-7.8,3.4-9.3c1.9-1.6,4.5-2.5,7.5-2.5c1.7,0,3.6,0.2,5.6,0.7c2.1,0.5,4.3,1.2,6.4,2
			c0.2-1.3,0.7-2.5,1.7-3.4c1.1-1.1,2.5-1.6,4.1-1.6c0.6,0,1.2,0.1,1.8,0.3c1-1.7,2.9-2.8,5-2.8c0.4,0,0.9,0.1,1.3,0.2
			c1.4,0.3,2.7,1.2,3.5,2.4c4.2-5.4,9.6-10.4,15-10.4c0.7,0,1.4,0.1,2.1,0.2c0.1,0,0.3,0.1,0.4,0.1c3,1,5.5,3.2,6.7,6.1
			c3.5,6.9,1.2,13.9-2.7,18.9c1.8,2.7,3.7,6.7,3.2,11c-0.3,2.9-1.9,7.1-7.5,10.4c0,0-0.1,0-0.1,0.1c-1.9,1.1-4.1,1.6-6.3,1.6
			c-1.2,0-2.4-0.2-3.5-0.5c-0.5-0.1-1.1-0.3-1.6-0.5c-1,1.2-2.4,2.1-3.9,2.6c-0.7,0.2-1.4,0.3-2.1,0.3c-0.6,0-1.2-0.1-1.8-0.2
			c-0.3-0.1-0.5-0.1-0.8-0.2c-2.8,3.4-6.3,5.3-10.3,5.4C43.5,122.6,43.2,122.6,43,122.6z"/>
		<path class="st1" d="M72,72.3c0.3,0,0.7,0,1,0.1c1.7,0.5,3.1,1.8,3.7,3.5c4.4,8.5-4.4,16.3-4.7,16.6c0.2,0.2,5.4,5.3,4.8,10.6
			c-0.3,2.6-2,4.9-5.1,6.7c-1.2,0.7-2.5,1-3.9,1c-0.7,0-1.4-0.1-2.2-0.3c-2.5-0.7-4.8-1.9-6.8-3.5l-0.2-0.2l0.7,2.3
			c0.4,1.5-0.4,3.1-1.9,3.5c-0.3,0.1-0.5,0.1-0.8,0.1c-0.2,0-0.4,0-0.6-0.1l0,0c-1-0.2-1.8-1-2.1-2l-0.7-2.4l-0.1,0.3
			c-0.7,2.1-3.6,9-9.5,9c-0.2,0-0.4,0-0.6,0c-0.9,0-1.9-0.1-2.8-0.3c-2.1-0.4-3.9-1.7-5-3.5c-2.5-4.1-1-10.1-0.8-10.8l-0.7-0.2
			c-2.7-0.6-11.4-3.3-12-11.6c-0.2-2.3,0.4-4.1,1.6-5.1c1-0.8,2.4-1.3,4.3-1.3c1.3,0,2.8,0.2,4.5,0.6c6.5,1.5,14.1,5.6,16.3,6.8
			l0.4,0.2l-1.4-4.9c-0.1-0.3-0.1-0.7-0.1-1L44.7,84c-0.3-0.3-0.3-0.8,0-1.1v0c0.2-0.2,0.4-0.2,0.6-0.2c0.2,0,0.4,0.1,0.6,0.2L48,85
			c0.3-0.4,0.8-0.7,1.3-0.8c0.2-0.1,0.5-0.1,0.7-0.1c0.2,0,0.3,0,0.5,0l0.8-3.3c0.1-0.4,0.4-0.6,0.8-0.6c0.1,0,0.1,0,0.2,0
			c0.4,0.1,0.7,0.5,0.6,1L52,84.8c0.4,0.3,0.7,0.8,0.8,1.3l1.4,4.9l0.2-0.3C54.8,89.9,64.6,72.3,72,72.3 M72,62.3
			C72,62.3,72,62.3,72,62.3c-5.3,0-10.4,2.7-15.8,8.6c-0.5-0.2-1-0.4-1.6-0.5c-0.8-0.2-1.6-0.3-2.5-0.3c-2.6,0-5,0.9-6.9,2.5
			c-2.8,0-5.4,1.1-7.4,3.1c-0.3,0.3-0.5,0.5-0.8,0.8c-0.9-0.3-1.8-0.5-2.7-0.7c-2.5-0.6-4.7-0.9-6.8-0.9c-5.4,0-8.8,2-10.8,3.6
			c-2.1,1.8-5.6,5.9-5.1,13.4c0,0,0,0,0,0.1c0.6,8.6,5.9,14.4,12.1,17.8c0.2,3,1,6.2,2.8,9.2c2.6,4.2,6.8,7.2,11.6,8.2
			c1.6,0.3,3.2,0.5,4.7,0.5c0.3,0,0.6,0,0.9,0c4.5-0.1,8.6-1.8,11.9-4.9c0.3,0,0.6,0,0.8,0c1.2,0,2.4-0.2,3.5-0.5
			c1.4-0.4,2.7-1,3.8-1.8c1.3,0.3,2.5,0.4,3.8,0.4c3.1,0,6.1-0.8,8.8-2.3c0.1,0,0.1-0.1,0.2-0.1c5.8-3.4,9.3-8.4,9.9-14.2
			c0.5-4.3-0.7-8.2-2.2-11.3c3.5-6,5.1-13.6,1.3-21.2c-1.9-4.2-5.4-7.3-9.7-8.7c-0.3-0.1-0.5-0.2-0.8-0.2
			C74.2,62.5,73.1,62.3,72,62.3L72,62.3z"/>
	</g>
	<g>
		<path class="st1" d="M58.5,169.5c-2.5,0-4.9-0.7-7-2c-0.5-0.3-1-0.6-1.4-1c-1.3,0.9-2.8,1.4-4.4,1.4c0,0-0.1,0-0.1,0
			c-1.3,0-2.6-0.4-3.8-1c-0.3-0.1-0.5-0.3-0.7-0.5c-2.2,1.5-4.9,2.6-8,2.6c0,0,0,0,0,0c-1.1,0-2.2-0.2-3.3-0.5
			c-1.5-0.4-2.9-0.9-4.2-1.7c-3.1-1.7-5.4-4.6-6.3-8c-0.9-3.6-0.2-7.3,0.8-10c-5.1-4-9-10.3-7.3-17.8c1.1-4.9,3.8-7,5.9-7.9
			c1.2-0.5,2.6-0.8,4-0.8c2.7,0,5.7,1,9.1,2.9c1.9,1.1,3.8,2.4,5.5,3.8c0.5-1.2,1.4-2.1,2.6-2.8c0.8-0.4,1.8-0.7,2.7-0.7
			c1.2,0,2.4,0.4,3.4,1.1c1.1-0.9,2.4-1.5,3.9-1.5c1,0,2,0.3,2.9,0.8c1.3,0.8,2.3,2,2.7,3.4c5.7-4.1,10.4-6.1,14.4-6.1
			c1.8,0,3.5,0.4,5,1.3c0.1,0.1,0.2,0.1,0.3,0.2c2.6,1.8,4.3,4.6,4.7,7.8c1.4,7.6-2.9,13.6-8,17.3c1,3.1,1.6,7.4-0.1,11.4
			c-1.2,2.7-3.9,6.3-10.2,7.8c0,0-0.1,0-0.1,0C60.4,169.4,59.4,169.5,58.5,169.5z"/>
		<path class="st1" d="M22.6,127.4c1.8,0,4,0.8,6.6,2.3c5.8,3.4,11.9,9.5,13.6,11.2l0.3,0.3l0.1-5.1c0-0.4,0.1-0.7,0.2-1l-1.7-3.2
			c-0.2-0.4-0.1-0.9,0.3-1.1c0.1-0.1,0.2-0.1,0.4-0.1c0.3,0,0.6,0.2,0.7,0.4l1.4,2.6c0.4-0.3,0.9-0.4,1.5-0.4c0,0,0,0,0,0
			c0.4,0,0.8,0.1,1.2,0.3l1.7-3c0.1-0.3,0.4-0.4,0.7-0.4c0.1,0,0.3,0,0.4,0.1c0.4,0.2,0.5,0.7,0.3,1.1l-1.9,3.3
			c0.3,0.4,0.4,1,0.4,1.5l-0.1,5.1l0.3-0.3c0.6-0.6,13.1-12.8,20.5-12.8c0.9,0,1.7,0.2,2.5,0.6c1.5,1,2.4,2.6,2.6,4.4
			c1.8,9.4-8.9,14.3-9.3,14.6c0.2,0.3,3.7,6.6,1.6,11.5c-1,2.4-3.3,4.1-6.8,5c-0.6,0.1-1.1,0.2-1.7,0.2c-1.5,0-3-0.4-4.3-1.2
			c-2.2-1.4-4-3.2-5.4-5.3l-0.2-0.2l0,2.4c0,1.5-1.3,2.8-2.8,2.8c0,0,0,0,0,0c-0.5,0-1-0.1-1.4-0.4l0,0c-0.9-0.5-1.4-1.5-1.4-2.5
			l0-2.5l-0.2,0.3c-1.1,1.6-4.9,6.2-9.7,6.2c-0.7,0-1.3-0.1-2-0.3c-1.1-0.3-2.1-0.7-3.1-1.2c-1.9-1-3.3-2.8-3.8-4.8
			c-1.2-4.7,1.9-10,2.3-10.6l-0.6-0.4c-2.4-1.4-10-6.5-8.1-14.5c0.5-2.3,1.5-3.8,3-4.4C21.2,127.5,21.9,127.4,22.6,127.4
			 M22.6,117.4c-2.1,0-4.1,0.4-6,1.2c-2.6,1.1-7.1,4.1-8.8,11.3c0,0,0,0,0,0c-1.9,8.4,1.5,15.5,6.5,20.5c-0.6,2.9-0.8,6.2,0,9.6
			c1.2,4.8,4.4,8.8,8.8,11.2c1.7,0.9,3.4,1.6,5.3,2.1c1.5,0.4,3.1,0.6,4.6,0.6c3.1,0,5.8-0.8,8.1-1.9c1.4,0.5,2.8,0.8,4.3,0.8
			c0,0,0.1,0,0.2,0c1.4,0,2.7-0.2,4-0.6c2.7,1.5,5.7,2.3,8.8,2.3c1.3,0,2.6-0.1,3.9-0.4c0.1,0,0.2,0,0.2-0.1
			c6.5-1.6,11.3-5.4,13.6-10.7c1.7-4,1.7-8.1,1.1-11.5c5.1-4.7,8.8-11.5,7.4-20c-0.6-4.5-3-8.6-6.8-11.2c-0.2-0.2-0.4-0.3-0.7-0.4
			c-2.2-1.3-4.7-1.9-7.5-1.9c-4,0-8.2,1.4-13.1,4.3c-0.4-0.3-0.9-0.7-1.4-0.9c-1.6-0.9-3.5-1.4-5.4-1.4c-1.5,0-2.9,0.3-4.2,0.8
			c-1-0.3-2-0.4-3-0.4c-1.7,0-3.5,0.4-5,1.2c-0.3,0.2-0.7,0.4-1,0.6c-0.8-0.5-1.6-1-2.3-1.5C30,118.6,26.2,117.4,22.6,117.4
			L22.6,117.4z"/>
	</g>
	<g>
		<path class="st1" d="M188.9,245.1c-1.3,0-2.5-0.1-3.8-0.4c-3.4-0.7-6.5-2.8-8.3-5.8c-1.9-3.2-2.3-6.9-2.1-9.8
			c-6-2.4-11.6-7.2-12.1-14.9c-0.3-5,1.7-7.8,3.4-9.3c1.9-1.6,4.5-2.5,7.5-2.5c1.7,0,3.6,0.2,5.6,0.7c2.1,0.5,4.3,1.2,6.4,2
			c0.2-1.3,0.8-2.5,1.7-3.4c1.1-1.1,2.5-1.6,4.1-1.6c0.6,0,1.2,0.1,1.8,0.3c1-1.7,2.9-2.8,5-2.8c0.4,0,0.9,0.1,1.3,0.2
			c1.5,0.4,2.7,1.3,3.5,2.4c4.2-5.4,9.6-10.4,15-10.4c0.7,0,1.4,0.1,2.1,0.2c0.1,0,0.3,0.1,0.4,0.1c3,1,5.5,3.2,6.7,6.1
			c3.5,6.9,1.2,13.9-2.7,18.9c1.8,2.7,3.7,6.6,3.2,11c-0.3,2.9-1.9,7.1-7.5,10.4c0,0-0.1,0-0.1,0.1c-1.9,1.1-4.1,1.6-6.3,1.6
			c-1.2,0-2.4-0.2-3.5-0.5c-0.5-0.1-1.1-0.3-1.6-0.5c-1,1.2-2.4,2.1-3.9,2.6c-0.7,0.2-1.4,0.3-2.1,0.3c-0.6,0-1.2-0.1-1.8-0.2
			c-0.3-0.1-0.5-0.1-0.8-0.2c-2.8,3.4-6.3,5.3-10.3,5.4C189.4,245.1,189.2,245.1,188.9,245.1z"/>
		<path class="st1" d="M217.9,194.8c0.3,0,0.7,0,1,0.1c1.7,0.5,3.1,1.8,3.7,3.5c4.4,8.5-4.4,16.3-4.7,16.6c0.2,0.2,5.4,5.3,4.8,10.6
			c-0.3,2.6-2,4.9-5.1,6.7c-1.2,0.7-2.5,1-3.9,1c-0.7,0-1.4-0.1-2.2-0.3c-2.5-0.7-4.8-1.9-6.8-3.5l-0.2-0.2l0.7,2.3
			c0.4,1.5-0.4,3.1-1.9,3.5c-0.3,0.1-0.5,0.1-0.8,0.1c-0.2,0-0.4,0-0.6-0.1l0,0c-1-0.2-1.8-1-2.1-2l-0.7-2.4l-0.1,0.3
			c-0.7,2.1-3.6,9-9.5,9c-0.2,0-0.4,0-0.6,0c-0.9,0-1.9-0.1-2.8-0.3c-2.1-0.4-3.9-1.7-5-3.5c-2.5-4.1-1-10.1-0.8-10.8l-0.7-0.2
			c-2.7-0.6-11.4-3.3-12-11.6c-0.2-2.3,0.4-4.1,1.6-5.1c1-0.8,2.4-1.3,4.3-1.3c1.3,0,2.8,0.2,4.5,0.6c6.5,1.5,14.1,5.6,16.3,6.8
			l0.4,0.2l-1.4-4.9c-0.1-0.3-0.1-0.7-0.1-1l-2.5-2.6c-0.3-0.3-0.3-0.8,0-1.1c0.2-0.2,0.4-0.2,0.6-0.2c0.2,0,0.4,0.1,0.6,0.2
			l2.1,2.1c0.3-0.4,0.8-0.7,1.3-0.8c0.2-0.1,0.5-0.1,0.7-0.1c0.2,0,0.3,0,0.5,0l0.8-3.3c0.1-0.4,0.4-0.6,0.8-0.6c0.1,0,0.1,0,0.2,0
			c0.4,0.1,0.7,0.5,0.6,1l-0.9,3.7c0.4,0.3,0.7,0.8,0.8,1.3l1.4,4.9l0.2-0.3C200.8,212.4,210.6,194.8,217.9,194.8 M217.9,184.8
			C217.9,184.8,217.9,184.8,217.9,184.8c-5.3,0-10.4,2.7-15.8,8.6c-0.5-0.2-1-0.4-1.6-0.5c-0.8-0.2-1.6-0.3-2.5-0.3
			c-2.6,0-5,0.9-6.9,2.5c-2.8,0-5.4,1.1-7.4,3.1c-0.3,0.3-0.5,0.5-0.8,0.8c-0.9-0.3-1.8-0.5-2.7-0.7c-2.5-0.6-4.7-0.9-6.8-0.9
			c-5.4,0-8.8,2-10.8,3.6c-2.1,1.8-5.6,5.9-5.1,13.4c0,0,0,0,0,0.1c0.6,8.6,5.9,14.4,12.1,17.8c0.2,3,1,6.2,2.8,9.2
			c2.6,4.2,6.8,7.2,11.6,8.2c1.6,0.3,3.2,0.5,4.8,0.5c0.3,0,0.6,0,0.9,0c4.5-0.1,8.6-1.8,11.9-4.9c0.3,0,0.6,0,0.8,0
			c1.2,0,2.4-0.2,3.5-0.5c1.4-0.4,2.7-1,3.8-1.8c1.2,0.3,2.5,0.4,3.8,0.4c3.1,0,6.1-0.8,8.8-2.3c0.1,0,0.1-0.1,0.2-0.1
			c5.8-3.4,9.3-8.4,9.9-14.2c0.5-4.3-0.7-8.2-2.2-11.4c3.5-6,5.1-13.6,1.3-21.2c-1.9-4.2-5.4-7.3-9.7-8.7c-0.3-0.1-0.5-0.2-0.8-0.2
			C220.1,185,219,184.8,217.9,184.8L217.9,184.8z"/>
	</g>
	<g>
		<path class="st1" d="M216,291.5c-2.5,0-4.9-0.7-7-2c-0.5-0.3-1-0.6-1.4-1c-1.3,0.9-2.8,1.4-4.4,1.4c0,0-0.1,0-0.1,0
			c-1.3,0-2.6-0.4-3.8-1c-0.3-0.1-0.5-0.3-0.7-0.5c-2.2,1.5-4.9,2.6-8,2.6c-1.1,0-2.2-0.2-3.3-0.5c-1.5-0.4-2.9-0.9-4.2-1.7
			c-3.1-1.6-5.4-4.6-6.3-8c-0.9-3.6-0.2-7.3,0.8-10c-5.1-4-9-10.3-7.3-17.8c1.1-4.9,3.8-7,5.9-7.9c1.2-0.5,2.6-0.8,4-0.8
			c2.7,0,5.7,1,9.1,2.9c1.9,1.1,3.8,2.4,5.5,3.8c0.5-1.2,1.4-2.2,2.6-2.8c0.8-0.4,1.7-0.7,2.7-0.7c1.2,0,2.4,0.4,3.4,1.1
			c1-0.9,2.4-1.5,3.9-1.5c1,0,2,0.3,2.9,0.8c1.4,0.8,2.3,2,2.7,3.4c5.7-4.1,10.4-6.1,14.4-6.1c1.8,0,3.5,0.4,5,1.3
			c0.1,0.1,0.2,0.1,0.3,0.2c2.6,1.8,4.3,4.6,4.7,7.8c1.3,7.6-2.9,13.6-8,17.3c1,3.1,1.6,7.4-0.1,11.4c-1.2,2.7-3.9,6.3-10.2,7.8
			c0,0-0.1,0-0.1,0C217.8,291.4,216.9,291.5,216,291.5z"/>
		<path class="st1" d="M180.1,249.3c1.8,0,4,0.8,6.6,2.3c5.8,3.4,11.9,9.5,13.6,11.2l0.3,0.3l0.1-5.1c0-0.4,0.1-0.7,0.2-1l-1.7-3.2
			c-0.2-0.4-0.1-0.9,0.3-1.1c0.1-0.1,0.2-0.1,0.4-0.1c0.3,0,0.6,0.2,0.7,0.4l1.4,2.6c0.4-0.3,0.9-0.4,1.5-0.4c0,0,0,0,0,0
			c0.4,0,0.8,0.1,1.2,0.3l1.7-3c0.1-0.3,0.4-0.4,0.7-0.4c0.1,0,0.3,0,0.4,0.1c0.4,0.2,0.5,0.7,0.3,1.1l-1.9,3.3
			c0.3,0.4,0.4,1,0.4,1.5l-0.1,5.1l0.3-0.3c0.6-0.6,13.1-12.8,20.5-12.8c0.9,0,1.7,0.2,2.5,0.6c1.5,1,2.4,2.6,2.6,4.4
			c1.8,9.4-8.9,14.3-9.3,14.6c0.2,0.3,3.7,6.6,1.6,11.5c-1,2.4-3.3,4.1-6.8,5c-0.6,0.1-1.1,0.2-1.7,0.2c-1.5,0-3-0.4-4.3-1.2
			c-2.2-1.4-4-3.2-5.4-5.3l-0.2-0.2l0,2.4c0,1.5-1.3,2.8-2.8,2.8c0,0,0,0,0,0c-0.5,0-1-0.1-1.4-0.4l0,0c-0.9-0.5-1.4-1.5-1.4-2.5
			l0-2.5l-0.2,0.3c-1.1,1.6-4.9,6.2-9.7,6.2c-0.7,0-1.3-0.1-2-0.3c-1.1-0.3-2.1-0.7-3.1-1.2c-1.9-1-3.3-2.8-3.8-4.8
			c-1.2-4.7,1.9-10,2.3-10.6l-0.6-0.4c-2.4-1.4-10-6.5-8.1-14.5c0.5-2.3,1.5-3.8,3-4.4C178.7,249.5,179.4,249.3,180.1,249.3
			 M180.1,239.3C180.1,239.3,180.1,239.3,180.1,239.3c-2.1,0-4.1,0.4-6,1.2c-2.6,1.1-7.1,4.1-8.8,11.3c0,0,0,0,0,0
			c-1.9,8.4,1.5,15.5,6.5,20.5c-0.6,2.9-0.8,6.2,0,9.6c1.2,4.8,4.4,8.8,8.8,11.2c1.7,0.9,3.4,1.6,5.3,2.1c1.5,0.4,3.1,0.6,4.6,0.6
			c3.1,0,5.8-0.8,8.1-1.9c1.4,0.5,2.9,0.8,4.3,0.8c0,0,0.1,0,0.2,0c1.4,0,2.7-0.2,4-0.6c2.7,1.5,5.7,2.3,8.8,2.3
			c1.3,0,2.6-0.1,3.9-0.4c0.1,0,0.2,0,0.2-0.1c6.5-1.6,11.3-5.4,13.6-10.7c1.7-4,1.7-8.1,1.1-11.5c5.1-4.7,8.8-11.5,7.4-20
			c-0.6-4.5-3-8.6-6.8-11.2c-0.2-0.2-0.4-0.3-0.7-0.4c-2.2-1.3-4.7-1.9-7.5-1.9c-4,0-8.2,1.4-13.1,4.3c-0.4-0.3-0.9-0.7-1.4-0.9
			c-1.6-0.9-3.5-1.4-5.4-1.4c-1.5,0-2.9,0.3-4.2,0.8c-1-0.3-2-0.4-3-0.4c-1.7,0-3.5,0.4-5,1.2c-0.3,0.2-0.7,0.4-1,0.6
			c-0.8-0.5-1.6-1-2.3-1.5C187.5,240.5,183.7,239.3,180.1,239.3L180.1,239.3L180.1,239.3z"/>
	</g>
	<g>
		<path class="st1" d="M194.3,346c-1.3,0-2.5-0.1-3.8-0.4c-3.4-0.7-6.5-2.8-8.3-5.8c-1.9-3.2-2.3-6.9-2.1-9.8
			c-6-2.4-11.6-7.2-12.1-14.9c-0.3-5,1.7-7.8,3.4-9.3c1.9-1.6,4.5-2.5,7.5-2.5c1.7,0,3.6,0.2,5.6,0.7c2.1,0.5,4.3,1.2,6.4,2
			c0.2-1.2,0.7-2.5,1.7-3.4c1.1-1.1,2.5-1.7,4.1-1.7c0.6,0,1.3,0.1,1.8,0.3c1-1.7,2.9-2.8,5-2.8c0.4,0,0.9,0.1,1.3,0.2
			c1.5,0.4,2.7,1.3,3.5,2.4c4.2-5.4,9.6-10.4,15-10.4c0.7,0,1.4,0.1,2.1,0.2c0.1,0,0.3,0.1,0.4,0.1c3,1,5.5,3.2,6.7,6.1
			c3.5,6.9,1.2,13.9-2.7,18.9c1.8,2.7,3.7,6.6,3.2,11c-0.3,2.9-1.9,7.1-7.5,10.4c0,0-0.1,0-0.1,0.1c-1.9,1.1-4.1,1.6-6.3,1.6
			c0,0,0,0,0,0c-1.2,0-2.4-0.2-3.5-0.5c-0.5-0.1-1.1-0.3-1.6-0.5c-1,1.2-2.4,2.1-3.9,2.6c-0.7,0.2-1.4,0.3-2.1,0.3
			c-0.6,0-1.2-0.1-1.8-0.2c-0.3-0.1-0.5-0.1-0.8-0.2c-2.8,3.4-6.3,5.3-10.3,5.4C194.8,346,194.6,346,194.3,346z"/>
		<path class="st1" d="M223.3,295.7c0.3,0,0.7,0,1,0.1c1.7,0.5,3.1,1.8,3.7,3.5c4.4,8.5-4.4,16.3-4.7,16.6c0.2,0.2,5.4,5.3,4.8,10.6
			c-0.3,2.6-2,4.9-5.1,6.7c-1.2,0.7-2.5,1-3.9,1c-0.7,0-1.4-0.1-2.2-0.3c-2.5-0.7-4.8-1.9-6.8-3.5l-0.2-0.2l0.7,2.3
			c0.4,1.5-0.4,3.1-1.9,3.5c-0.3,0.1-0.5,0.1-0.8,0.1c-0.2,0-0.4,0-0.6-0.1l0,0c-1-0.2-1.8-1-2.1-2l-0.7-2.4l-0.1,0.3
			c-0.7,2.1-3.6,9-9.5,9c-0.2,0-0.4,0-0.6,0c-0.9,0-1.9-0.1-2.8-0.3c-2.1-0.4-3.9-1.7-5-3.5c-2.5-4.1-1-10.1-0.8-10.8l-0.7-0.2
			c-2.7-0.6-11.4-3.3-12-11.6c-0.2-2.3,0.4-4.1,1.6-5.1c1-0.8,2.4-1.3,4.3-1.3c1.3,0,2.8,0.2,4.5,0.6c6.5,1.5,14.1,5.6,16.3,6.8
			l0.4,0.2l-1.4-4.9c-0.1-0.3-0.1-0.7-0.1-1l-2.5-2.6c-0.3-0.3-0.3-0.8,0-1.1c0.2-0.2,0.4-0.2,0.6-0.2c0.2,0,0.4,0.1,0.6,0.2
			l2.1,2.1c0.3-0.4,0.8-0.7,1.3-0.8c0.2-0.1,0.5-0.1,0.7-0.1c0.2,0,0.3,0,0.5,0l0.8-3.3c0.1-0.4,0.4-0.6,0.8-0.6c0.1,0,0.1,0,0.2,0
			c0.4,0.1,0.7,0.5,0.6,1l-0.9,3.7c0.4,0.3,0.7,0.8,0.8,1.3l1.4,4.9l0.2-0.3C206.2,313.3,216,295.7,223.3,295.7 M223.3,285.7
			c-5.3,0-10.4,2.7-15.8,8.6c-0.5-0.2-1.1-0.4-1.6-0.5c-0.8-0.2-1.6-0.3-2.5-0.3c-2.6,0-5,0.9-6.9,2.5c-2.8,0-5.4,1.1-7.4,3.1
			c-0.3,0.3-0.5,0.5-0.8,0.8c-0.9-0.3-1.8-0.5-2.7-0.7c-2.5-0.6-4.7-0.9-6.8-0.9c-5.4,0-8.8,2-10.8,3.6c-2.1,1.8-5.6,5.9-5.1,13.4
			c0,0,0,0,0,0.1c0.6,8.6,5.9,14.4,12.1,17.8c0.2,3,1,6.2,2.8,9.2c2.6,4.2,6.8,7.2,11.6,8.2c1.6,0.3,3.2,0.5,4.8,0.5
			c0.3,0,0.6,0,0.9,0c4.5-0.1,8.6-1.8,11.9-4.9c0.3,0,0.6,0,0.8,0c1.2,0,2.4-0.2,3.5-0.5c1.4-0.4,2.7-1,3.8-1.8
			c1.3,0.3,2.6,0.4,3.8,0.4c3.1,0,6.1-0.8,8.8-2.3c0.1,0,0.1-0.1,0.2-0.1c5.8-3.4,9.3-8.4,9.9-14.2c0.5-4.3-0.7-8.2-2.2-11.4
			c3.5-6,5.1-13.6,1.3-21.2c-1.9-4.2-5.4-7.3-9.7-8.7c-0.3-0.1-0.5-0.2-0.8-0.2C225.5,285.8,224.4,285.7,223.3,285.7L223.3,285.7z"
			/>
	</g>
	<g>
		<path class="st1" d="M194.3,93.8c-1.3,0-2.5-0.1-3.8-0.4c-3.4-0.7-6.5-2.8-8.3-5.8c-1.9-3.2-2.3-6.9-2.1-9.8
			c-6-2.4-11.6-7.2-12.1-14.9c-0.3-5,1.7-7.8,3.4-9.3c1.9-1.6,4.5-2.5,7.5-2.5c1.7,0,3.6,0.2,5.6,0.7c2.1,0.5,4.3,1.2,6.4,2
			c0.2-1.2,0.7-2.5,1.7-3.4c1.1-1.1,2.5-1.7,4.1-1.7c0.6,0,1.3,0.1,1.8,0.3c1-1.7,2.9-2.8,5-2.8c0.4,0,0.9,0.1,1.3,0.2
			c1.5,0.4,2.7,1.3,3.5,2.4c4.2-5.4,9.6-10.4,15-10.4c0.7,0,1.4,0.1,2.1,0.2c0.1,0,0.3,0.1,0.4,0.1c3,1,5.5,3.2,6.7,6.1
			c3.5,6.9,1.2,13.9-2.7,18.9c1.8,2.7,3.7,6.7,3.2,11c-0.3,2.9-1.9,7.1-7.5,10.4c0,0-0.1,0-0.1,0.1c-1.9,1.1-4.1,1.6-6.3,1.6
			c-1.2,0-2.4-0.2-3.5-0.5c-0.5-0.2-1.1-0.3-1.6-0.5c-1,1.2-2.3,2.1-3.9,2.6c-0.7,0.2-1.4,0.3-2.1,0.3c-0.6,0-1.2-0.1-1.8-0.2
			c-0.3-0.1-0.5-0.1-0.8-0.2c-2.8,3.4-6.3,5.3-10.3,5.4C194.8,93.8,194.6,93.8,194.3,93.8C194.3,93.8,194.3,93.8,194.3,93.8z"/>
		<path class="st1" d="M223.3,43.5c0.3,0,0.7,0,1,0.1c1.7,0.5,3.1,1.8,3.7,3.5c4.4,8.5-4.4,16.3-4.7,16.6c0.2,0.2,5.4,5.3,4.8,10.6
			c-0.3,2.6-2,4.9-5.1,6.7c-1.2,0.7-2.5,1-3.9,1c-0.7,0-1.4-0.1-2.2-0.3c-2.5-0.7-4.8-1.9-6.8-3.5L210,78l0.7,2.3
			c0.4,1.5-0.4,3.1-1.9,3.5c-0.3,0.1-0.5,0.1-0.8,0.1c-0.2,0-0.4,0-0.6-0.1l0,0c-1-0.2-1.8-1-2.1-2l-0.7-2.4l-0.1,0.3
			c-0.7,2.1-3.6,9-9.5,9c-0.2,0-0.4,0-0.6,0c-0.9,0-1.9-0.1-2.8-0.3c-2.1-0.4-3.9-1.7-5-3.5c-2.5-4.1-1-10.1-0.8-10.8l-0.7-0.2
			c-2.7-0.6-11.4-3.3-12-11.6c-0.2-2.3,0.4-4.1,1.6-5.1c1-0.8,2.4-1.3,4.3-1.3c1.3,0,2.8,0.2,4.5,0.6c6.5,1.5,14.1,5.6,16.3,6.8
			l0.4,0.2l-1.4-4.9c-0.1-0.3-0.1-0.7-0.1-1l-2.5-2.6c-0.3-0.3-0.3-0.8,0-1.1c0.2-0.2,0.4-0.2,0.6-0.2c0.2,0,0.4,0.1,0.6,0.2
			l2.1,2.1c0.3-0.4,0.8-0.7,1.3-0.8c0.2-0.1,0.5-0.1,0.7-0.1c0.2,0,0.3,0,0.5,0l0.8-3.3c0.1-0.4,0.4-0.6,0.8-0.6c0.1,0,0.1,0,0.2,0
			c0.4,0.1,0.7,0.5,0.6,1l-0.9,3.7c0.4,0.3,0.7,0.8,0.8,1.3l1.4,4.9l0.2-0.3C206.2,61.1,216,43.5,223.3,43.5 M223.3,33.5
			C223.3,33.5,223.3,33.5,223.3,33.5c-5.3,0-10.4,2.7-15.8,8.6c-0.5-0.2-1.1-0.4-1.6-0.5c-0.8-0.2-1.6-0.3-2.5-0.3
			c-2.6,0-5,0.9-6.9,2.5c-2.8,0-5.4,1.1-7.4,3.1c-0.3,0.3-0.5,0.5-0.8,0.8c-0.9-0.3-1.8-0.5-2.7-0.7c-2.5-0.6-4.7-0.9-6.8-0.9
			c-5.4,0-8.8,2-10.8,3.6c-2.1,1.8-5.6,5.9-5.1,13.4c0,0,0,0,0,0.1c0.6,8.6,5.9,14.4,12.1,17.8c0.2,3,1,6.2,2.8,9.2
			c2.6,4.2,6.8,7.2,11.6,8.2c1.6,0.3,3.2,0.5,4.8,0.5c0.3,0,0.6,0,0.9,0c4.5-0.1,8.6-1.8,11.9-4.9c0.3,0,0.6,0,0.8,0
			c1.2,0,2.4-0.2,3.5-0.5c1.4-0.4,2.7-1,3.8-1.8c1.3,0.3,2.6,0.4,3.8,0.4c3.1,0,6.1-0.8,8.8-2.3c0.1,0,0.1-0.1,0.2-0.1
			c5.8-3.4,9.3-8.4,9.9-14.2c0.5-4.3-0.7-8.2-2.2-11.4c3.5-6,5.1-13.6,1.3-21.2c-1.9-4.2-5.4-7.3-9.7-8.7c-0.3-0.1-0.5-0.2-0.8-0.2
			C225.5,33.7,224.4,33.5,223.3,33.5L223.3,33.5z"/>
	</g>
	<g>
		<path class="st1" d="M194.3,144.3c-1.3,0-2.5-0.1-3.8-0.4c-3.4-0.7-6.5-2.8-8.3-5.8c-1.9-3.2-2.3-6.9-2.1-9.8
			c-6-2.4-11.6-7.2-12.1-14.9c-0.3-5,1.7-7.8,3.4-9.3c1.9-1.6,4.5-2.5,7.5-2.5c1.7,0,3.6,0.2,5.6,0.7c2.1,0.5,4.3,1.2,6.4,2
			c0.2-1.2,0.7-2.5,1.7-3.4c1.1-1.1,2.5-1.7,4.1-1.7c0.6,0,1.3,0.1,1.8,0.3c1-1.7,2.9-2.8,5-2.8c0.4,0,0.9,0.1,1.3,0.2
			c1.5,0.4,2.7,1.2,3.5,2.4c4.2-5.4,9.6-10.4,15-10.4c0.7,0,1.4,0.1,2.1,0.2c0.1,0,0.3,0.1,0.4,0.1c3,1,5.5,3.2,6.7,6.1
			c3.5,6.9,1.2,13.9-2.7,18.9c1.8,2.7,3.7,6.7,3.2,11c-0.3,2.9-1.9,7.1-7.5,10.4c0,0-0.1,0-0.1,0.1c-1.9,1.1-4.1,1.6-6.3,1.6
			c-1.2,0-2.4-0.2-3.5-0.5c-0.5-0.2-1.1-0.3-1.6-0.5c-1,1.2-2.3,2.1-3.9,2.6c-0.7,0.2-1.4,0.3-2.1,0.3c-0.6,0-1.2-0.1-1.8-0.2
			c-0.3-0.1-0.5-0.1-0.8-0.2c-2.8,3.4-6.3,5.3-10.3,5.4C194.8,144.3,194.6,144.3,194.3,144.3z"/>
		<path class="st1" d="M223.3,94c0.3,0,0.7,0,1,0.1c1.7,0.5,3.1,1.8,3.7,3.5c4.4,8.5-4.4,16.3-4.7,16.6c0.2,0.2,5.4,5.3,4.8,10.6
			c-0.3,2.6-2,4.9-5.1,6.7c-1.2,0.7-2.5,1-3.9,1c-0.7,0-1.4-0.1-2.2-0.3c-2.5-0.7-4.8-1.9-6.8-3.5l-0.2-0.2l0.7,2.3
			c0.4,1.5-0.4,3.1-1.9,3.5c-0.3,0.1-0.5,0.1-0.8,0.1c-0.2,0-0.4,0-0.6-0.1l0,0c-1-0.2-1.8-1-2.1-2l-0.7-2.4l-0.1,0.3
			c-0.7,2.1-3.6,9-9.5,9c-0.2,0-0.4,0-0.6,0c-0.9,0-1.9-0.1-2.8-0.3c-2.1-0.4-3.9-1.7-5-3.5c-2.5-4.1-1-10.1-0.8-10.8l-0.7-0.2
			c-2.7-0.6-11.4-3.3-12-11.6c-0.2-2.3,0.4-4.1,1.6-5.1c1-0.8,2.4-1.3,4.3-1.3c1.3,0,2.8,0.2,4.5,0.6c6.5,1.5,14.1,5.6,16.3,6.8
			l0.4,0.2l-1.4-4.9c-0.1-0.3-0.1-0.7-0.1-1l-2.5-2.6c-0.3-0.3-0.3-0.8,0-1.1c0.2-0.2,0.4-0.2,0.6-0.2c0.2,0,0.4,0.1,0.6,0.2
			l2.1,2.1c0.3-0.4,0.8-0.7,1.3-0.8c0.2-0.1,0.5-0.1,0.7-0.1c0.2,0,0.3,0,0.5,0l0.8-3.3c0.1-0.4,0.4-0.6,0.8-0.6c0.1,0,0.1,0,0.2,0
			c0.4,0.1,0.7,0.5,0.6,1l-0.9,3.7c0.4,0.3,0.7,0.8,0.8,1.3l1.4,4.9l0.2-0.3C206.2,111.6,216,94,223.3,94 M223.3,84
			C223.3,84,223.3,84,223.3,84c-5.3,0-10.4,2.7-15.8,8.6c-0.5-0.2-1.1-0.4-1.6-0.5c-0.8-0.2-1.6-0.3-2.5-0.3c-2.6,0-5,0.9-6.9,2.5
			c-2.8,0-5.4,1.1-7.4,3.1c-0.3,0.3-0.5,0.5-0.8,0.8c-0.9-0.3-1.8-0.5-2.7-0.7c-2.5-0.6-4.7-0.9-6.8-0.9c-5.4,0-8.8,2-10.8,3.6
			c-2.1,1.8-5.6,5.9-5.1,13.4c0,0,0,0,0,0.1c0.6,8.6,5.9,14.4,12.1,17.8c0.2,3,1,6.2,2.8,9.2c2.6,4.2,6.8,7.2,11.6,8.2
			c1.6,0.3,3.2,0.5,4.8,0.5c0.3,0,0.6,0,0.9,0c4.5-0.1,8.6-1.8,11.9-4.9c0.3,0,0.6,0,0.8,0c1.2,0,2.4-0.2,3.5-0.5
			c1.4-0.4,2.7-1,3.8-1.8c1.3,0.3,2.6,0.4,3.8,0.4c3.1,0,6.1-0.8,8.8-2.3c0.1,0,0.1-0.1,0.2-0.1c5.8-3.4,9.3-8.4,9.9-14.2
			c0.5-4.3-0.7-8.2-2.2-11.4c3.5-6,5.1-13.6,1.3-21.2c-1.9-4.2-5.4-7.3-9.7-8.7c-0.3-0.1-0.5-0.2-0.8-0.2
			C225.5,84.1,224.4,84,223.3,84L223.3,84z"/>
	</g>
	<g>
		<path class="st1" d="M209.8,190.6c-2.5,0-4.9-0.7-7-2c-0.5-0.3-1-0.6-1.4-1c-1.3,0.9-2.8,1.4-4.4,1.4c0,0-0.1,0-0.1,0
			c-1.3,0-2.6-0.4-3.8-1.1c-0.3-0.1-0.5-0.3-0.7-0.5c-2.2,1.5-4.9,2.6-8,2.6c0,0,0,0,0,0c-1.1,0-2.2-0.2-3.3-0.5
			c-1.5-0.4-2.9-0.9-4.2-1.7c-3.1-1.7-5.4-4.6-6.3-8c-0.9-3.6-0.2-7.3,0.8-10c-5.1-4-9-10.3-7.3-17.8c1.1-4.9,3.8-7,5.9-7.9
			c1.2-0.5,2.6-0.8,4-0.8c2.7,0,5.7,1,9.1,2.9c1.9,1.1,3.8,2.4,5.5,3.8c0.5-1.2,1.4-2.2,2.6-2.8c0.8-0.4,1.8-0.7,2.7-0.7
			c1.2,0,2.4,0.4,3.4,1.1c1.1-0.9,2.4-1.5,3.9-1.5c1,0,2,0.3,2.9,0.8c1.3,0.8,2.3,2,2.7,3.4c5.7-4.1,10.4-6.1,14.4-6.1
			c1.8,0,3.5,0.4,5,1.3c0.1,0.1,0.2,0.1,0.3,0.2c2.6,1.8,4.3,4.6,4.7,7.8c1.3,7.6-2.9,13.6-8,17.3c1,3.1,1.6,7.4-0.1,11.4
			c-1.2,2.7-3.9,6.3-10.2,7.8c0,0-0.1,0-0.1,0C211.7,190.5,210.8,190.6,209.8,190.6z"/>
		<path class="st1" d="M174,148.5c1.8,0,4,0.8,6.6,2.3c5.8,3.4,11.9,9.5,13.6,11.2l0.3,0.3l0.1-5.1c0-0.4,0.1-0.7,0.2-1l-1.7-3.2
			c-0.2-0.4-0.1-0.9,0.3-1.1c0.1-0.1,0.2-0.1,0.4-0.1c0.3,0,0.6,0.2,0.7,0.4l1.4,2.6c0.4-0.3,0.9-0.4,1.5-0.4c0,0,0,0,0,0
			c0.4,0,0.8,0.1,1.2,0.3l1.7-3c0.1-0.3,0.4-0.4,0.7-0.4c0.1,0,0.3,0,0.4,0.1c0.4,0.2,0.5,0.7,0.3,1.1l-1.9,3.3
			c0.3,0.4,0.4,1,0.4,1.5l-0.1,5.1l0.3-0.3c0.6-0.6,13.1-12.8,20.5-12.8c0.9,0,1.7,0.2,2.5,0.6c1.5,1,2.4,2.6,2.6,4.4
			c1.8,9.4-8.9,14.3-9.3,14.6c0.2,0.3,3.7,6.6,1.6,11.5c-1,2.4-3.3,4.1-6.8,5c-0.6,0.1-1.1,0.2-1.7,0.2c-1.5,0-3-0.4-4.3-1.2
			c-2.2-1.4-4-3.2-5.4-5.3l-0.2-0.2l0,2.4c0,1.5-1.3,2.8-2.8,2.8c0,0,0,0,0,0c-0.5,0-1-0.1-1.4-0.4l0,0c-0.9-0.5-1.4-1.5-1.4-2.5
			l0-2.5l-0.2,0.3c-1.1,1.6-4.9,6.2-9.7,6.2c-0.7,0-1.3-0.1-2-0.3c-1.1-0.3-2.1-0.7-3.1-1.2c-1.9-1-3.3-2.8-3.8-4.8
			c-1.2-4.7,1.9-10,2.3-10.6l-0.6-0.4c-2.4-1.4-10-6.5-8.1-14.5c0.5-2.3,1.5-3.8,3-4.4C172.6,148.6,173.2,148.5,174,148.5
			 M174,138.5c-2.1,0-4.1,0.4-6,1.2c-2.6,1.1-7.1,4.1-8.8,11.3c0,0,0,0,0,0c-1.9,8.4,1.5,15.5,6.5,20.5c-0.6,2.9-0.8,6.2,0,9.6
			c1.2,4.8,4.4,8.8,8.8,11.2c1.7,0.9,3.4,1.6,5.3,2.1c1.5,0.4,3.1,0.6,4.6,0.6c3.1,0,5.8-0.8,8.1-1.9c1.4,0.5,2.8,0.8,4.3,0.8
			c0,0,0.1,0,0.2,0c1.4,0,2.7-0.2,4-0.6c2.7,1.5,5.7,2.3,8.8,2.3c1.3,0,2.6-0.1,3.9-0.4c0.1,0,0.2,0,0.2-0.1
			c6.5-1.6,11.3-5.4,13.6-10.7c1.7-4,1.7-8.1,1.1-11.5c5.1-4.7,8.8-11.5,7.4-20c-0.6-4.5-3-8.6-6.8-11.2c-0.2-0.2-0.4-0.3-0.7-0.4
			c-2.2-1.3-4.7-1.9-7.5-1.9c-4,0-8.2,1.4-13.1,4.3c-0.4-0.3-0.9-0.7-1.4-0.9c-1.6-0.9-3.5-1.4-5.4-1.4c-1.5,0-2.9,0.3-4.2,0.8
			c-1-0.3-2-0.4-3-0.4c-1.7,0-3.5,0.4-5,1.2c-0.3,0.2-0.7,0.4-1,0.6c-0.8-0.5-1.6-1-2.3-1.5C181.4,139.7,177.6,138.5,174,138.5
			L174,138.5z"/>
	</g>
	<g>
		<path class="st1" d="M336.5,291.4c-1.3,0-2.5-0.1-3.8-0.4c-3.4-0.7-6.5-2.8-8.3-5.8c-1.9-3.2-2.3-6.9-2.1-9.8
			c-6-2.4-11.6-7.2-12.1-14.9c-0.3-5,1.7-7.8,3.4-9.3c1.9-1.6,4.5-2.5,7.5-2.5c1.7,0,3.6,0.2,5.6,0.7c2.1,0.5,4.3,1.2,6.4,2
			c0.2-1.3,0.8-2.5,1.7-3.4c1.1-1.1,2.5-1.6,4.1-1.6c0.6,0,1.3,0.1,1.8,0.3c1-1.7,2.9-2.8,5-2.8c0.4,0,0.9,0.1,1.3,0.2
			c1.5,0.3,2.7,1.2,3.5,2.5c5.5-7.1,10.3-10.4,15-10.4c0.7,0,1.4,0.1,2.1,0.2c0.1,0,0.3,0.1,0.4,0.1c3,1,5.5,3.2,6.7,6.1
			c3.5,6.9,1.2,13.9-2.7,18.9c1.8,2.7,3.7,6.7,3.2,11c-0.3,2.9-1.9,7.1-7.5,10.4c0,0-0.1,0-0.1,0.1c-1.9,1.1-4.1,1.6-6.3,1.6
			c-1.2,0-2.4-0.2-3.5-0.5c-0.5-0.2-1.1-0.3-1.6-0.5c-1,1.2-2.4,2.1-3.9,2.6c-0.7,0.2-1.4,0.3-2.1,0.3c-0.6,0-1.2-0.1-1.8-0.2
			c-0.3-0.1-0.6-0.1-0.8-0.2c-2.8,3.4-6.3,5.3-10.3,5.4C337,291.4,336.8,291.4,336.5,291.4z"/>
		<path class="st1" d="M365.5,241.1c0.3,0,0.7,0,1,0.1c1.7,0.5,3.1,1.8,3.7,3.5c4.4,8.5-4.4,16.3-4.7,16.6c0.2,0.2,5.4,5.3,4.8,10.6
			c-0.3,2.6-2,4.9-5.1,6.7c-1.2,0.7-2.5,1-3.9,1c-0.7,0-1.4-0.1-2.2-0.3c-2.5-0.7-4.8-1.9-6.8-3.5l-0.2-0.2l0.7,2.3
			c0.4,1.5-0.4,3.1-1.9,3.5c-0.3,0.1-0.5,0.1-0.8,0.1c-0.2,0-0.4,0-0.6-0.1l0,0c-1-0.2-1.8-1-2.1-2l-0.7-2.4l-0.1,0.3
			c-0.7,2.1-3.6,9-9.5,9c-0.2,0-0.4,0-0.6,0c-0.9,0-1.9-0.1-2.8-0.3c-2.1-0.4-3.9-1.7-5-3.5c-2.5-4.1-1-10.1-0.8-10.8l-0.7-0.2
			c-2.7-0.6-11.4-3.3-12-11.6c-0.2-2.3,0.4-4.1,1.6-5.1c1-0.8,2.4-1.3,4.3-1.3c1.3,0,2.8,0.2,4.5,0.6c6.5,1.5,14.1,5.6,16.3,6.8
			l0.4,0.2l-1.4-4.9c-0.1-0.3-0.1-0.7-0.1-1l-2.5-2.6c-0.3-0.3-0.3-0.8,0-1.1c0.2-0.2,0.4-0.2,0.6-0.2c0.2,0,0.4,0.1,0.6,0.2
			l2.1,2.1c0.3-0.4,0.8-0.7,1.3-0.8c0.2-0.1,0.5-0.1,0.7-0.1c0.2,0,0.3,0,0.5,0l0.8-3.3c0.1-0.4,0.4-0.6,0.8-0.6c0.1,0,0.1,0,0.2,0
			c0.4,0.1,0.7,0.5,0.6,1l-0.9,3.7c0.4,0.3,0.7,0.8,0.8,1.3l1.4,4.9l0.2-0.3C348.4,258.7,358.2,241.1,365.5,241.1 M365.5,231.1
			C365.5,231.1,365.5,231.1,365.5,231.1c-5.3,0-10.4,2.7-15.8,8.6c-0.5-0.2-1-0.4-1.6-0.5c-0.8-0.2-1.6-0.3-2.5-0.3
			c-2.6,0-5,0.9-6.9,2.5c-2.8,0-5.4,1.1-7.4,3.1c-0.3,0.3-0.5,0.5-0.8,0.8c-0.9-0.3-1.8-0.5-2.7-0.7c-2.5-0.6-4.7-0.9-6.8-0.9
			c-5.4,0-8.8,2-10.8,3.6c-2.1,1.8-5.6,5.9-5.1,13.4c0,0,0,0,0,0.1c0.6,8.6,5.9,14.4,12.1,17.8c0.2,3,1,6.2,2.8,9.2
			c2.6,4.2,6.8,7.2,11.6,8.2c1.6,0.3,3.2,0.5,4.8,0.5c0.3,0,0.6,0,0.9,0c4.5-0.1,8.6-1.8,11.9-4.9c0.3,0,0.6,0,0.8,0
			c1.2,0,2.4-0.2,3.5-0.5c1.4-0.4,2.7-1,3.8-1.8c1.3,0.3,2.5,0.4,3.8,0.4c3.1,0,6.1-0.8,8.8-2.3c0.1,0,0.1-0.1,0.2-0.1
			c5.8-3.4,9.3-8.4,9.9-14.2c0.5-4.3-0.7-8.2-2.2-11.4c3.5-6,5.1-13.6,1.3-21.2c-1.9-4.2-5.4-7.3-9.7-8.7c-0.3-0.1-0.5-0.2-0.8-0.2
			C367.7,231.2,366.6,231.1,365.5,231.1L365.5,231.1z"/>
	</g>
	<g>
		<path class="st1" d="M363.5,333c-2.5,0-4.9-0.7-7-2c-0.5-0.3-1-0.6-1.4-1c-1.3,0.9-2.8,1.4-4.4,1.4c0,0-0.1,0-0.1,0
			c-1.3,0-2.6-0.4-3.8-1c-0.3-0.1-0.5-0.3-0.7-0.5c-2.2,1.5-4.9,2.6-8,2.6h0c-1.1,0-2.2-0.2-3.3-0.5c-1.5-0.4-2.9-0.9-4.2-1.7
			c-3.1-1.6-5.4-4.6-6.3-8c-0.9-3.6-0.2-7.3,0.8-10c-5.1-4-9-10.3-7.3-17.8c1.1-4.9,3.8-7,5.9-7.9c1.2-0.5,2.6-0.8,4-0.8
			c2.7,0,5.7,1,9.1,2.9c1.9,1.1,3.8,2.4,5.5,3.8c0.5-1.2,1.4-2.2,2.6-2.8c0.8-0.4,1.8-0.7,2.7-0.7c1.2,0,2.4,0.4,3.4,1.1
			c1.1-0.9,2.4-1.5,3.9-1.5c1,0,2,0.3,2.9,0.8c1.3,0.8,2.2,2,2.7,3.4c5.7-4.1,10.4-6.1,14.4-6.1c1.8,0,3.5,0.4,5,1.3
			c0.1,0.1,0.2,0.1,0.3,0.2c2.6,1.8,4.3,4.6,4.7,7.8c1.4,7.6-2.9,13.6-8,17.3c1,3.1,1.6,7.4-0.1,11.4c-1.2,2.7-3.9,6.3-10.2,7.8
			c0,0-0.1,0-0.1,0C365.4,332.8,364.5,333,363.5,333z"/>
		<path class="st1" d="M327.7,290.8c1.8,0,4,0.8,6.6,2.3c5.8,3.4,11.9,9.5,13.6,11.2l0.3,0.3l0.1-5.1c0-0.4,0.1-0.7,0.2-1l-1.7-3.2
			c-0.2-0.4-0.1-0.9,0.3-1.1c0.1-0.1,0.2-0.1,0.4-0.1c0.3,0,0.6,0.2,0.7,0.4l1.4,2.6c0.4-0.3,0.9-0.4,1.5-0.4c0,0,0,0,0,0
			c0.4,0,0.8,0.1,1.2,0.3l1.7-3c0.1-0.3,0.4-0.4,0.7-0.4c0.1,0,0.3,0,0.4,0.1c0.4,0.2,0.5,0.7,0.3,1.1l-1.9,3.3
			c0.3,0.4,0.4,1,0.4,1.5l-0.1,5.1l0.3-0.3c0.6-0.6,13.1-12.8,20.5-12.8c0.9,0,1.7,0.2,2.5,0.6c1.5,1,2.4,2.6,2.6,4.4
			c1.8,9.4-8.9,14.3-9.3,14.6c0.2,0.3,3.7,6.6,1.6,11.5c-1,2.4-3.3,4.1-6.8,5c-0.6,0.1-1.1,0.2-1.7,0.2c-1.5,0-3-0.4-4.3-1.2
			c-2.2-1.4-4-3.2-5.4-5.3l-0.2-0.2l0,2.4c0,1.5-1.3,2.8-2.8,2.8c0,0,0,0,0,0c-0.5,0-1-0.1-1.4-0.4l0,0c-0.9-0.5-1.4-1.5-1.4-2.5
			l0-2.5l-0.2,0.3c-1.1,1.6-4.9,6.2-9.7,6.2c-0.7,0-1.3-0.1-2-0.3c-1.1-0.3-2.1-0.7-3.1-1.2c-1.9-1-3.3-2.8-3.8-4.8
			c-1.2-4.7,1.9-10,2.3-10.6l-0.6-0.4c-2.4-1.4-10-6.5-8.1-14.5c0.5-2.3,1.5-3.8,3-4.4C326.3,290.9,326.9,290.8,327.7,290.8
			 M327.7,280.8c-2.1,0-4.1,0.4-6,1.2c-2.6,1.1-7.1,4.1-8.8,11.3c0,0,0,0,0,0c-1.9,8.4,1.5,15.5,6.5,20.5c-0.6,2.9-0.8,6.2,0,9.6
			c1.2,4.8,4.4,8.8,8.8,11.2c1.7,0.9,3.4,1.6,5.3,2.1c1.5,0.4,3.1,0.6,4.6,0.6c3.1,0,5.8-0.8,8.1-1.9c1.4,0.5,2.9,0.8,4.3,0.8
			c0,0,0.1,0,0.2,0c1.4,0,2.7-0.2,4-0.6c2.7,1.5,5.7,2.3,8.8,2.3c1.3,0,2.6-0.1,3.9-0.4c0.1,0,0.2,0,0.2-0.1
			c6.5-1.6,11.3-5.4,13.6-10.7c1.7-4,1.7-8.1,1.1-11.5c5.1-4.7,8.8-11.5,7.4-20c-0.6-4.5-3-8.6-6.8-11.2c-0.2-0.2-0.4-0.3-0.7-0.4
			c-2.2-1.3-4.7-1.9-7.5-1.9c-4.3,0-8.9,1.8-13.1,4.3c-0.4-0.3-0.9-0.7-1.4-1c-1.6-0.9-3.5-1.4-5.4-1.4c-1.5,0-2.9,0.3-4.2,0.8
			c-1-0.3-2-0.4-3-0.4c0,0,0,0,0,0c-1.7,0-3.5,0.4-5,1.2c-0.3,0.2-0.7,0.4-1,0.6c-0.8-0.5-1.6-1-2.3-1.5
			C335.1,282,331.3,280.8,327.7,280.8L327.7,280.8z"/>
	</g>
	<g>
		<path class="st1" d="M363.1,379.4c-2.7,0-5.2-0.8-7.4-2.3c-0.5-0.3-0.9-0.7-1.4-1c-1.2,0.7-2.6,1.2-4.1,1.2c-0.2,0-0.3,0-0.5,0
			c-1.3-0.1-2.6-0.5-3.8-1.2c-0.2-0.2-0.5-0.3-0.7-0.5c-2.1,1.3-4.7,2.3-7.6,2.3c-1.3,0-2.6-0.2-3.9-0.6c-1.4-0.4-2.8-1.1-4.1-1.8
			c-3-1.8-5.2-4.8-5.9-8.3c-0.8-3.7,0.1-7.2,1.2-10c-4.9-4.2-8.5-10.6-6.5-18.1c1.4-4.9,4.2-6.8,6.3-7.6c1.1-0.4,2.3-0.6,3.5-0.6
			c2.8,0,5.9,1.1,9.5,3.4c1.8,1.2,3.6,2.6,5.3,4c0.6-1.2,1.5-2.1,2.7-2.7c0.8-0.4,1.6-0.5,2.5-0.5c1.3,0,2.6,0.4,3.6,1.2
			c1-0.8,2.3-1.3,3.7-1.3c1.1,0,2.2,0.3,3.1,0.9c1.3,0.8,2.2,2.1,2.5,3.5c4.5-2.9,9.7-5.4,14.1-5.4c2,0,3.9,0.5,5.4,1.5
			c0.1,0.1,0.2,0.1,0.3,0.2c2.5,1.9,4.1,4.8,4.3,8c1,7.6-3.5,13.5-8.8,17c0.8,3.2,1.3,7.5-0.6,11.4c-1.3,2.6-4.1,6.1-10.5,7.4
			c0,0-0.1,0-0.1,0C364.6,379.3,363.8,379.4,363.1,379.4C363.1,379.4,363.1,379.4,363.1,379.4z"/>
		<path class="st1" d="M328.3,335.7c1.8,0,4.1,0.9,6.8,2.6c5.7,3.6,11.5,10,13.1,11.8l0.3,0.3l0.3-5.1c0-0.4,0.1-0.7,0.3-1l-1.5-3.3
			c-0.2-0.4,0-0.9,0.4-1.1c0.1-0.1,0.2-0.1,0.3-0.1c0.3,0,0.6,0.2,0.7,0.5l1.3,2.7c0.4-0.2,0.9-0.4,1.4-0.4c0.1,0,0.1,0,0.2,0
			c0.4,0,0.8,0.2,1.2,0.4l1.8-2.9c0.2-0.2,0.4-0.4,0.7-0.4c0.1,0,0.3,0,0.4,0.1c0.4,0.2,0.5,0.7,0.2,1.1l-2,3.2
			c0.2,0.5,0.4,1,0.3,1.5l-0.3,5.1l0.3-0.2c0.6-0.5,13.3-11.8,20.8-11.8c1,0,2,0.2,2.8,0.7c1.4,1.1,2.3,2.7,2.4,4.5
			c1.4,9.5-9.5,13.9-10,14.1c0.1,0.3,3.4,6.8,1.1,11.6c-1.2,2.4-3.5,4-7,4.7c-0.5,0.1-0.9,0.1-1.4,0.1c-1.6,0-3.2-0.5-4.6-1.4
			c-2.1-1.5-3.9-3.4-5.2-5.6l-0.1-0.2l-0.2,2.4c-0.1,1.5-1.3,2.7-2.8,2.7c-0.1,0-0.1,0-0.2,0c-0.5,0-0.9-0.2-1.4-0.4l0,0
			c-0.9-0.6-1.4-1.5-1.3-2.6l0.2-2.5l-0.2,0.3c-1.2,1.5-5,5.8-9.6,5.8c-0.8,0-1.6-0.1-2.4-0.4c-1.1-0.3-2.1-0.8-3.1-1.4
			c-1.8-1.1-3.2-2.9-3.6-5c-1-4.7,2.4-9.9,2.8-10.5l-0.6-0.4c-2.3-1.5-9.7-6.9-7.5-14.9c0.6-2.3,1.7-3.7,3.2-4.3
			C327.1,335.8,327.7,335.7,328.3,335.7 M328.3,325.7C328.3,325.7,328.3,325.7,328.3,325.7c-1.9,0-3.6,0.3-5.3,1
			c-2.6,1-7.3,3.8-9.3,10.9c0,0,0,0,0,0c-2.3,8.3,0.8,15.6,5.6,20.8c-0.8,2.9-1.1,6.2-0.4,9.6c1,4.8,4,9,8.3,11.5
			c1.6,1,3.4,1.7,5.2,2.3c1.7,0.6,3.6,0.9,5.4,0.9c2.7,0,5.2-0.6,7.4-1.6c1.4,0.6,2.8,0.9,4.3,1c0.3,0,0.5,0,0.8,0
			c1.2,0,2.4-0.2,3.5-0.5c2.8,1.8,6.1,2.7,9.4,2.7c1,0,2.1-0.1,3.1-0.3c0.1,0,0.2,0,0.2,0c6.5-1.3,11.5-4.9,14.1-10.1
			c1.9-3.9,2.1-8,1.6-11.5c5.3-4.5,9.3-11.1,8.2-19.6c-0.4-4.5-2.7-8.7-6.3-11.4c-0.2-0.2-0.4-0.3-0.7-0.5c-2.4-1.5-5.1-2.3-8.1-2.3
			c-3.8,0-7.9,1.2-12.6,3.7c-0.4-0.4-0.9-0.7-1.3-1c-1.7-1.1-3.7-1.7-5.8-1.7c-1.3,0-2.6,0.2-3.8,0.7c-1.1-0.4-2.3-0.6-3.5-0.6
			c-1.6,0-3.1,0.4-4.6,1c-0.3,0.2-0.7,0.3-1,0.5c-0.8-0.5-1.5-1.1-2.3-1.6C336.1,327,332.1,325.7,328.3,325.7L328.3,325.7
			L328.3,325.7z"/>
	</g>
	<g>
		<path class="st1" d="M336.5,63.2c-1.3,0-2.5-0.1-3.8-0.4c-3.4-0.7-6.5-2.8-8.3-5.8c-1.9-3.2-2.3-6.9-2.1-9.8
			c-6-2.4-11.6-7.2-12.1-14.9c-0.3-5,1.7-7.8,3.4-9.3c1.9-1.6,4.5-2.5,7.5-2.5c1.7,0,3.6,0.2,5.6,0.7c2.1,0.5,4.3,1.2,6.4,2
			c0.2-1.3,0.7-2.5,1.7-3.4c1.1-1.1,2.5-1.6,4.1-1.6c0.6,0,1.2,0.1,1.8,0.3c1-1.7,2.9-2.8,5-2.8c0.4,0,0.9,0.1,1.3,0.2
			c1.5,0.3,2.7,1.2,3.5,2.5c5.5-7.1,10.3-10.4,15-10.4c0.7,0,1.4,0.1,2.1,0.2c0.1,0,0.3,0.1,0.4,0.1c3,1,5.5,3.2,6.7,6.1
			c3.5,6.9,1.2,13.9-2.7,18.9c1.8,2.7,3.7,6.7,3.2,11c-0.3,2.9-1.9,7.1-7.5,10.4c0,0-0.1,0-0.1,0.1c-1.9,1.1-4.1,1.6-6.3,1.6
			c-1.2,0-2.4-0.2-3.5-0.5c-0.5-0.2-1.1-0.3-1.6-0.5c-1,1.2-2.3,2.1-3.9,2.6c-0.7,0.2-1.4,0.3-2.1,0.3c-0.6,0-1.2-0.1-1.8-0.2
			c-0.3-0.1-0.5-0.1-0.8-0.2c-2.8,3.4-6.3,5.3-10.3,5.4C337,63.2,336.8,63.2,336.5,63.2z"/>
		<path class="st1" d="M365.5,12.9c0.3,0,0.7,0,1,0.1c1.7,0.5,3.1,1.8,3.7,3.5c4.4,8.5-4.4,16.3-4.7,16.6c0.2,0.2,5.4,5.3,4.8,10.6
			c-0.3,2.6-2,4.9-5.1,6.7c-1.2,0.7-2.5,1-3.9,1c-0.7,0-1.4-0.1-2.2-0.3c-2.5-0.7-4.8-1.9-6.8-3.5l-0.2-0.2l0.7,2.3
			c0.4,1.5-0.4,3.1-1.9,3.5c-0.3,0.1-0.5,0.1-0.8,0.1c-0.2,0-0.4,0-0.6-0.1l0,0c-1-0.2-1.8-1-2.1-2l-0.7-2.4l-0.1,0.3
			c-0.7,2.1-3.6,9-9.5,9c-0.2,0-0.4,0-0.6,0c-0.9,0-1.9-0.1-2.8-0.3c-2.1-0.4-3.9-1.7-5-3.5c-2.5-4.1-1-10.1-0.8-10.8l-0.7-0.2
			c-2.7-0.6-11.4-3.3-12-11.6c-0.2-2.3,0.4-4.1,1.6-5.1c1-0.8,2.4-1.3,4.3-1.3c1.3,0,2.8,0.2,4.5,0.6c6.5,1.5,14.1,5.6,16.3,6.8
			l0.4,0.2l-1.4-4.9c-0.1-0.3-0.1-0.7-0.1-1l-2.5-2.6c-0.3-0.3-0.3-0.8,0-1.1c0.2-0.2,0.4-0.2,0.6-0.2c0.2,0,0.4,0.1,0.6,0.2
			l2.1,2.1c0.3-0.4,0.8-0.7,1.3-0.8c0.2-0.1,0.5-0.1,0.7-0.1c0.2,0,0.3,0,0.5,0l0.8-3.3c0.1-0.4,0.4-0.6,0.8-0.6c0.1,0,0.1,0,0.2,0
			c0.4,0.1,0.7,0.5,0.6,1l-0.9,3.7c0.4,0.3,0.7,0.8,0.8,1.3l1.4,4.9l0.2-0.3C348.4,30.5,358.2,12.9,365.5,12.9 M365.5,2.9
			C365.5,2.9,365.5,2.9,365.5,2.9c-5.3,0-10.4,2.7-15.8,8.6c-0.5-0.2-1-0.4-1.6-0.5c-0.8-0.2-1.6-0.3-2.5-0.3c-2.6,0-5,0.9-6.9,2.5
			c-2.8,0-5.4,1.1-7.4,3.1c-0.3,0.3-0.5,0.5-0.8,0.8c-0.9-0.3-1.8-0.5-2.7-0.7c-2.5-0.6-4.7-0.9-6.8-0.9c-5.4,0-8.8,2-10.8,3.6
			c-2.1,1.8-5.6,5.9-5.1,13.4c0,0,0,0,0,0.1c0.6,8.6,5.9,14.4,12.1,17.8c0.2,3,1,6.2,2.8,9.2c2.6,4.2,6.8,7.2,11.6,8.2
			c1.6,0.3,3.2,0.5,4.8,0.5c0.3,0,0.6,0,0.9,0c4.5-0.1,8.6-1.8,11.9-4.9c0.3,0,0.6,0,0.8,0c1.2,0,2.4-0.2,3.5-0.5
			c1.4-0.4,2.7-1,3.8-1.8c1.3,0.3,2.5,0.4,3.8,0.4c3.1,0,6.1-0.8,8.8-2.3c0.1,0,0.1-0.1,0.2-0.1c5.8-3.4,9.3-8.4,9.9-14.2
			c0.5-4.3-0.7-8.2-2.2-11.4c3.5-6,5.1-13.6,1.3-21.2c-1.9-4.2-5.4-7.3-9.7-8.7c-0.3-0.1-0.5-0.2-0.8-0.2
			C367.7,3,366.6,2.9,365.5,2.9L365.5,2.9z"/>
	</g>
	<g>
		<path class="st1" d="M363.5,104.8c-2.5,0-4.9-0.7-7-2c-0.5-0.3-1-0.6-1.4-1c-1.3,0.9-2.8,1.4-4.4,1.4c0,0-0.1,0-0.1,0
			c-1.3,0-2.6-0.4-3.8-1c-0.3-0.1-0.5-0.3-0.7-0.5c-2.2,1.5-4.9,2.6-8,2.6c-1.1,0-2.2-0.2-3.3-0.5c-1.5-0.4-2.9-0.9-4.2-1.7
			c-3.1-1.6-5.4-4.6-6.3-8c-0.9-3.6-0.2-7.3,0.8-10c-5.1-4-9-10.3-7.3-17.8c1.1-4.9,3.8-7,5.9-7.9c1.2-0.5,2.6-0.8,4-0.8
			c2.7,0,5.7,1,9.1,2.9c1.9,1.1,3.8,2.4,5.5,3.8c0.5-1.2,1.4-2.2,2.6-2.8c0.8-0.4,1.7-0.7,2.7-0.7c1.2,0,2.4,0.4,3.4,1.1
			c1.1-0.9,2.4-1.5,3.9-1.5c1,0,2,0.3,2.9,0.8c1.3,0.8,2.2,2,2.7,3.4c5.7-4.1,10.4-6.1,14.4-6.1c1.8,0,3.5,0.4,5,1.3
			c0.1,0.1,0.2,0.1,0.3,0.2c2.6,1.8,4.3,4.6,4.7,7.8c1.4,7.6-2.9,13.6-8,17.3c1,3.1,1.6,7.4-0.1,11.4c-1.2,2.7-3.9,6.3-10.2,7.8
			c0,0-0.1,0-0.1,0C365.4,104.7,364.5,104.8,363.5,104.8z"/>
		<path class="st1" d="M327.7,62.6c1.8,0,4,0.8,6.6,2.3c5.8,3.4,11.9,9.5,13.6,11.2l0.3,0.3l0.1-5.1c0-0.4,0.1-0.7,0.2-1l-1.7-3.2
			c-0.2-0.4-0.1-0.9,0.3-1.1c0.1-0.1,0.2-0.1,0.4-0.1c0.3,0,0.6,0.2,0.7,0.4l1.4,2.6c0.4-0.3,0.9-0.4,1.5-0.4c0,0,0,0,0,0
			c0.4,0,0.8,0.1,1.2,0.3l1.7-3c0.1-0.3,0.4-0.4,0.7-0.4c0.1,0,0.3,0,0.4,0.1c0.4,0.2,0.5,0.7,0.3,1.1l-1.9,3.3
			c0.3,0.4,0.4,1,0.4,1.5l-0.1,5.1l0.3-0.3c0.6-0.6,13.1-12.8,20.5-12.8c0.9,0,1.7,0.2,2.5,0.6c1.5,1,2.4,2.6,2.6,4.4
			c1.8,9.4-8.9,14.3-9.3,14.6c0.2,0.3,3.7,6.6,1.6,11.5c-1,2.4-3.3,4.1-6.8,5c-0.6,0.1-1.1,0.2-1.7,0.2c-1.5,0-3-0.4-4.3-1.2
			c-2.2-1.4-4-3.2-5.4-5.3l-0.2-0.2l0,2.4c0,1.5-1.3,2.8-2.8,2.8c0,0,0,0,0,0c-0.5,0-1-0.1-1.4-0.4l0,0c-0.9-0.5-1.4-1.5-1.4-2.5
			l0-2.5l-0.2,0.3c-1.1,1.6-4.9,6.2-9.7,6.2c-0.7,0-1.3-0.1-2-0.3c-1.1-0.3-2.1-0.7-3.1-1.2c-1.9-1-3.3-2.8-3.8-4.8
			c-1.2-4.7,1.9-10,2.3-10.6l-0.6-0.4c-2.4-1.4-10-6.5-8.1-14.5c0.5-2.3,1.5-3.8,3-4.4C326.3,62.7,326.9,62.6,327.7,62.6
			 M327.7,52.6C327.7,52.6,327.7,52.6,327.7,52.6c-2.1,0-4.1,0.4-6,1.2c-2.6,1.1-7.1,4.1-8.8,11.3c0,0,0,0,0,0
			c-1.9,8.4,1.5,15.5,6.5,20.5c-0.6,2.9-0.8,6.2,0,9.6c1.2,4.8,4.4,8.8,8.8,11.2c1.7,0.9,3.4,1.6,5.3,2.1c1.5,0.4,3.1,0.6,4.6,0.6
			c3.1,0,5.8-0.8,8.1-1.9c1.4,0.5,2.9,0.8,4.3,0.8c0,0,0.1,0,0.2,0c1.4,0,2.7-0.2,4-0.6c2.7,1.5,5.7,2.3,8.8,2.3
			c1.3,0,2.6-0.1,3.9-0.4c0.1,0,0.2,0,0.2-0.1c6.5-1.6,11.3-5.4,13.6-10.7c1.7-4,1.7-8.1,1.1-11.5c5.1-4.7,8.8-11.5,7.4-20
			c-0.6-4.5-3-8.6-6.8-11.2c-0.2-0.2-0.4-0.3-0.7-0.4c-2.2-1.3-4.7-1.9-7.5-1.9c-4,0-8.2,1.4-13.1,4.3c-0.4-0.3-0.9-0.7-1.4-0.9
			c-1.6-0.9-3.5-1.4-5.4-1.4c-1.5,0-2.9,0.3-4.2,0.8c-1-0.3-2-0.4-3-0.4c0,0,0,0,0,0c-1.7,0-3.5,0.4-5,1.2c-0.3,0.2-0.7,0.4-1,0.6
			c-0.8-0.5-1.6-1-2.3-1.5C335.1,53.8,331.3,52.6,327.7,52.6L327.7,52.6L327.7,52.6z"/>
	</g>
	<g>
		<path class="st1" d="M341.9,154.5c-1.3,0-2.5-0.1-3.8-0.4c-3.4-0.7-6.5-2.8-8.3-5.8c-1.9-3.2-2.3-6.9-2.1-9.8
			c-6-2.4-11.6-7.2-12.1-14.9c-0.3-5,1.7-7.8,3.4-9.3c1.9-1.6,4.5-2.5,7.5-2.5c1.7,0,3.6,0.2,5.6,0.7c2.1,0.5,4.3,1.2,6.4,2
			c0.2-1.3,0.7-2.5,1.7-3.4c1.1-1.1,2.5-1.6,4.1-1.6c0.6,0,1.2,0.1,1.8,0.3c1-1.7,2.9-2.8,5-2.8c0.4,0,0.9,0.1,1.3,0.2
			c1.5,0.4,2.7,1.2,3.5,2.4c4.2-5.4,9.6-10.4,15-10.4c0.7,0,1.4,0.1,2.1,0.2c0.1,0,0.3,0.1,0.4,0.1c3,1,5.5,3.2,6.7,6.1
			c3.5,6.9,1.2,13.9-2.7,18.9c1.8,2.7,3.7,6.6,3.2,11c-0.3,2.9-1.9,7.1-7.5,10.4c0,0-0.1,0-0.1,0.1c-1.9,1.1-4.1,1.6-6.3,1.6
			c0,0,0,0,0,0c-1.2,0-2.4-0.2-3.5-0.5c-0.5-0.2-1.1-0.3-1.6-0.5c-1,1.2-2.3,2.1-3.9,2.6c-0.7,0.2-1.4,0.3-2.1,0.3
			c-0.6,0-1.2-0.1-1.8-0.2c-0.3-0.1-0.5-0.1-0.8-0.2c-2.8,3.4-6.3,5.3-10.3,5.4C342.4,154.5,342.1,154.5,341.9,154.5z"/>
		<path class="st1" d="M370.9,104.2c0.3,0,0.7,0,1,0.1c1.7,0.5,3.1,1.8,3.7,3.5c4.4,8.5-4.4,16.3-4.7,16.6c0.2,0.2,5.4,5.3,4.8,10.6
			c-0.3,2.6-2,4.9-5.1,6.7c-1.2,0.7-2.5,1-3.9,1c-0.7,0-1.4-0.1-2.2-0.3c-2.5-0.7-4.8-1.9-6.8-3.5l-0.2-0.2l0.7,2.3
			c0.4,1.5-0.4,3.1-1.9,3.5c-0.3,0.1-0.5,0.1-0.8,0.1c-0.2,0-0.4,0-0.6-0.1l0,0c-1-0.2-1.8-1-2.1-2l-0.7-2.4l-0.1,0.3
			c-0.7,2.1-3.6,9-9.5,9c-0.2,0-0.4,0-0.6,0c-0.9,0-1.9-0.1-2.8-0.3c-2.1-0.4-3.9-1.7-5-3.5c-2.5-4.1-1-10.1-0.8-10.8l-0.7-0.2
			c-2.7-0.6-11.4-3.3-12-11.6c-0.2-2.3,0.4-4.1,1.6-5.1c1-0.8,2.4-1.3,4.3-1.3c1.3,0,2.8,0.2,4.5,0.6c6.5,1.5,14.1,5.6,16.3,6.8
			l0.4,0.2l-1.4-4.9c-0.1-0.3-0.1-0.7-0.1-1l-2.5-2.6c-0.3-0.3-0.3-0.8,0-1.1c0.2-0.2,0.4-0.2,0.6-0.2c0.2,0,0.4,0.1,0.6,0.2
			l2.1,2.1c0.3-0.4,0.8-0.7,1.3-0.8c0.2-0.1,0.5-0.1,0.7-0.1c0.2,0,0.3,0,0.5,0l0.8-3.3c0.1-0.4,0.4-0.6,0.8-0.6c0.1,0,0.1,0,0.2,0
			c0.4,0.1,0.7,0.5,0.6,1l-0.9,3.7c0.4,0.3,0.7,0.8,0.8,1.3l1.4,4.9l0.2-0.3C353.8,121.8,363.6,104.2,370.9,104.2 M370.9,94.2
			c-5.3,0-10.4,2.7-15.8,8.6c-0.5-0.2-1-0.4-1.6-0.5c-0.8-0.2-1.6-0.3-2.5-0.3c-2.6,0-5,0.9-6.9,2.5c-2.8,0-5.4,1.1-7.4,3.1
			c-0.3,0.3-0.5,0.5-0.8,0.8c-0.9-0.3-1.8-0.5-2.7-0.7c-2.5-0.6-4.7-0.9-6.8-0.9c-5.4,0-8.8,2-10.8,3.6c-2.1,1.8-5.6,5.9-5.1,13.4
			c0,0,0,0,0,0.1c0.6,8.6,5.9,14.4,12.1,17.8c0.2,3,1,6.2,2.8,9.2c2.6,4.2,6.8,7.2,11.6,8.2c1.6,0.3,3.2,0.5,4.8,0.5
			c0.3,0,0.6,0,0.9,0c4.5-0.1,8.6-1.8,11.9-4.9c0.3,0,0.6,0,0.8,0c1.2,0,2.4-0.2,3.5-0.5c1.4-0.4,2.7-1,3.8-1.8
			c1.3,0.3,2.5,0.4,3.8,0.4c3.1,0,6.1-0.8,8.8-2.3c0.1,0,0.1-0.1,0.2-0.1c5.8-3.4,9.3-8.4,9.9-14.2c0.5-4.3-0.7-8.2-2.2-11.3
			c3.5-6,5.1-13.6,1.3-21.2c-1.9-4.2-5.4-7.3-9.7-8.7c-0.3-0.1-0.5-0.2-0.8-0.2C373.1,94.3,372,94.2,370.9,94.2L370.9,94.2z"/>
	</g>
	<g>
		<path class="st1" d="M341.9,200.1c-1.3,0-2.5-0.1-3.8-0.4c-3.4-0.7-6.5-2.8-8.3-5.8c-1.9-3.2-2.3-6.9-2.1-9.8
			c-6-2.4-11.6-7.2-12.1-14.9c-0.3-5,1.7-7.8,3.4-9.3c1.9-1.6,4.5-2.5,7.5-2.5c1.7,0,3.6,0.2,5.6,0.7c2.1,0.5,4.3,1.2,6.4,2
			c0.2-1.3,0.7-2.5,1.7-3.4c1.1-1.1,2.5-1.6,4.1-1.6c0.6,0,1.2,0.1,1.8,0.3c1-1.7,2.9-2.8,5-2.8c0.4,0,0.9,0.1,1.3,0.2
			c1.5,0.4,2.7,1.3,3.5,2.4c4.2-5.4,9.6-10.4,15-10.4c0.7,0,1.4,0.1,2.1,0.2c0.1,0,0.3,0.1,0.4,0.1c3,1,5.5,3.2,6.7,6.1
			c3.5,6.9,1.2,13.9-2.7,18.9c1.8,2.7,3.7,6.6,3.2,11c-0.3,2.9-1.9,7.1-7.5,10.4c0,0-0.1,0-0.1,0.1c-1.9,1.1-4.1,1.6-6.3,1.6
			c0,0,0,0,0,0c-1.2,0-2.4-0.2-3.5-0.5c-0.5-0.1-1.1-0.3-1.6-0.5c-1,1.2-2.4,2.1-3.9,2.6c-0.7,0.2-1.4,0.3-2.1,0.3
			c-0.6,0-1.2-0.1-1.8-0.2c-0.3-0.1-0.5-0.1-0.8-0.2c-2.8,3.4-6.3,5.3-10.3,5.4C342.4,200.1,342.1,200.1,341.9,200.1z"/>
		<path class="st1" d="M370.9,149.8c0.3,0,0.7,0,1,0.1c1.7,0.5,3.1,1.8,3.7,3.5c4.4,8.5-4.4,16.3-4.7,16.6c0.2,0.2,5.4,5.3,4.8,10.6
			c-0.3,2.6-2,4.9-5.1,6.7c-1.2,0.7-2.5,1-3.9,1c-0.7,0-1.4-0.1-2.2-0.3c-2.5-0.7-4.8-1.9-6.8-3.5l-0.2-0.2l0.7,2.3
			c0.4,1.5-0.4,3.1-1.9,3.5c-0.3,0.1-0.5,0.1-0.8,0.1c-0.2,0-0.4,0-0.6-0.1l0,0c-1-0.2-1.8-1-2.1-2l-0.7-2.4l-0.1,0.3
			c-0.7,2.1-3.6,9-9.5,9c-0.2,0-0.4,0-0.6,0c-0.9,0-1.9-0.1-2.8-0.3c-2.1-0.4-3.9-1.7-5-3.5c-2.5-4.1-1-10.1-0.8-10.8l-0.7-0.2
			c-2.7-0.6-11.4-3.3-12-11.6c-0.2-2.3,0.4-4.1,1.6-5.1c1-0.8,2.4-1.3,4.3-1.3c1.3,0,2.8,0.2,4.5,0.6c6.5,1.5,14.1,5.6,16.3,6.8
			l0.4,0.2l-1.4-4.9c-0.1-0.3-0.1-0.7-0.1-1l-2.5-2.6c-0.3-0.3-0.3-0.8,0-1.1c0.2-0.2,0.4-0.2,0.6-0.2c0.2,0,0.4,0.1,0.6,0.2
			l2.1,2.1c0.3-0.4,0.8-0.7,1.3-0.8c0.2-0.1,0.5-0.1,0.7-0.1c0.2,0,0.3,0,0.5,0l0.8-3.3c0.1-0.4,0.4-0.6,0.8-0.6c0.1,0,0.1,0,0.2,0
			c0.4,0.1,0.7,0.5,0.6,1l-0.9,3.7c0.4,0.3,0.7,0.8,0.8,1.3l1.4,4.9l0.2-0.3C353.8,167.4,363.6,149.8,370.9,149.8 M370.9,139.8
			c-5.3,0-10.4,2.7-15.8,8.6c-0.5-0.2-1-0.4-1.6-0.5c-0.8-0.2-1.6-0.3-2.5-0.3c-2.6,0-5,0.9-6.9,2.5c-2.8,0-5.4,1.1-7.4,3.1
			c-0.3,0.3-0.5,0.5-0.8,0.8c-0.9-0.3-1.8-0.5-2.7-0.7c-2.5-0.6-4.7-0.9-6.8-0.9c-5.4,0-8.8,2-10.8,3.6c-2.1,1.8-5.6,5.9-5.1,13.4
			c0,0,0,0,0,0.1c0.6,8.6,5.9,14.4,12.1,17.8c0.2,3,1,6.2,2.8,9.2c2.6,4.2,6.8,7.2,11.6,8.2c1.6,0.3,3.2,0.5,4.8,0.5
			c0.3,0,0.6,0,0.9,0c4.5-0.1,8.6-1.8,11.9-4.9c0.3,0,0.6,0,0.8,0c1.2,0,2.4-0.2,3.5-0.5c1.4-0.4,2.7-1,3.8-1.8
			c1.2,0.3,2.5,0.4,3.8,0.4c3.1,0,6.1-0.8,8.8-2.3c0.1,0,0.1-0.1,0.2-0.1c5.8-3.4,9.3-8.4,9.9-14.2c0.5-4.3-0.7-8.2-2.2-11.3
			c3.5-6,5.1-13.6,1.3-21.2c-1.9-4.2-5.4-7.3-9.7-8.7c-0.3-0.1-0.5-0.2-0.8-0.2C373.1,139.9,372,139.8,370.9,139.8L370.9,139.8z"/>
	</g>
	<g>
		<path class="st1" d="M357.4,241.7c-2.5,0-4.9-0.7-7-2c-0.5-0.3-1-0.6-1.4-1c-1.3,0.9-2.8,1.4-4.4,1.4c0,0-0.1,0-0.1,0
			c-1.3,0-2.6-0.4-3.8-1c-0.3-0.1-0.5-0.3-0.7-0.5c-2.2,1.5-4.9,2.6-8,2.6c-1.1,0-2.2-0.2-3.3-0.5c-1.5-0.4-2.9-0.9-4.2-1.7
			c-3.1-1.6-5.4-4.6-6.3-8c-0.9-3.6-0.2-7.2,0.8-10c-5.1-4-9-10.3-7.3-17.8c1.1-4.9,3.8-7,5.9-7.9c1.2-0.5,2.6-0.8,4-0.8
			c2.7,0,5.7,1,9.1,2.9c1.9,1.1,3.8,2.4,5.5,3.8c0.5-1.1,1.4-2.1,2.6-2.8c0.8-0.4,1.8-0.7,2.7-0.7c1.2,0,2.4,0.4,3.4,1.1
			c1.1-0.9,2.4-1.5,3.9-1.5c1,0,2,0.3,2.9,0.8c1.3,0.8,2.2,2,2.7,3.4c5.7-4.1,10.4-6.1,14.4-6.1c1.8,0,3.5,0.4,5,1.3
			c0.1,0.1,0.2,0.1,0.3,0.2c2.6,1.8,4.3,4.6,4.7,7.8c1.3,7.6-2.9,13.6-8,17.3c1,3.1,1.6,7.4-0.1,11.4c-1.2,2.7-3.9,6.3-10.2,7.8
			c0,0-0.1,0-0.1,0C359.3,241.6,358.4,241.7,357.4,241.7C357.4,241.7,357.4,241.7,357.4,241.7z"/>
		<path class="st1" d="M321.5,199.5c1.8,0,4,0.8,6.6,2.3c5.8,3.4,11.9,9.5,13.6,11.2l0.3,0.3l0.1-5.1c0-0.4,0.1-0.7,0.2-1l-1.7-3.2
			c-0.2-0.4-0.1-0.9,0.3-1.1c0.1-0.1,0.2-0.1,0.4-0.1c0.3,0,0.6,0.2,0.7,0.4l1.4,2.6c0.4-0.3,0.9-0.4,1.5-0.4c0,0,0,0,0,0
			c0.4,0,0.8,0.1,1.2,0.3l1.7-3c0.1-0.3,0.4-0.4,0.7-0.4c0.1,0,0.3,0,0.4,0.1c0.4,0.2,0.5,0.7,0.3,1.1l-1.9,3.3
			c0.3,0.4,0.4,1,0.4,1.5l-0.1,5.1l0.3-0.3c0.6-0.6,13.1-12.8,20.5-12.8c0.9,0,1.7,0.2,2.5,0.6c1.5,1,2.4,2.6,2.6,4.4
			c1.8,9.4-8.9,14.3-9.3,14.6c0.2,0.3,3.7,6.6,1.6,11.5c-1,2.4-3.3,4.1-6.8,5c-0.6,0.1-1.1,0.2-1.7,0.2c-1.5,0-3-0.4-4.3-1.2
			c-2.2-1.4-4-3.2-5.4-5.3l-0.2-0.2l0,2.4c0,1.5-1.3,2.8-2.8,2.8c0,0,0,0,0,0c-0.5,0-1-0.1-1.4-0.4l0,0c-0.9-0.5-1.4-1.5-1.4-2.5
			l0-2.5l-0.2,0.3c-1.1,1.6-4.9,6.2-9.7,6.2c-0.7,0-1.3-0.1-2-0.3c-1.1-0.3-2.1-0.7-3.1-1.2c-1.9-1-3.3-2.8-3.8-4.8
			c-1.2-4.7,1.9-10,2.3-10.6l-0.6-0.4c-2.4-1.4-10-6.5-8.1-14.5c0.5-2.3,1.5-3.8,3-4.4C320.2,199.7,320.8,199.5,321.5,199.5
			 M321.5,189.5C321.5,189.5,321.5,189.5,321.5,189.5c-2.1,0-4.1,0.4-6,1.2c-2.6,1.1-7.1,4.1-8.8,11.3c0,0,0,0,0,0
			c-1.9,8.4,1.5,15.5,6.5,20.5c-0.6,2.9-0.8,6.2,0,9.6c1.2,4.8,4.4,8.8,8.8,11.2c1.7,0.9,3.4,1.6,5.3,2.1c1.5,0.4,3.1,0.6,4.6,0.6
			c3.1,0,5.8-0.8,8.1-1.9c1.4,0.5,2.9,0.8,4.3,0.8c0,0,0.1,0,0.2,0c1.4,0,2.7-0.2,4-0.6c2.7,1.5,5.7,2.3,8.8,2.3
			c1.3,0,2.6-0.1,3.9-0.4c0.1,0,0.2,0,0.2-0.1c6.5-1.6,11.3-5.4,13.6-10.7c1.7-4,1.7-8.1,1.1-11.5c5.1-4.7,8.8-11.5,7.4-20
			c-0.6-4.5-3-8.6-6.8-11.2c-0.2-0.2-0.4-0.3-0.7-0.4c-2.2-1.3-4.7-1.9-7.5-1.9c-4,0-8.2,1.4-13.1,4.3c-0.4-0.3-0.9-0.7-1.4-0.9
			c-1.6-0.9-3.5-1.4-5.4-1.4c-1.5,0-2.9,0.3-4.2,0.8c-1-0.3-2-0.4-3-0.4c0,0,0,0,0,0c-1.7,0-3.5,0.4-5,1.2c-0.3,0.2-0.7,0.4-1,0.6
			c-0.8-0.5-1.6-1-2.4-1.5C329,190.7,325.2,189.5,321.5,189.5L321.5,189.5L321.5,189.5z"/>
	</g>
</g>
<g>
	<path class="st2" d="M50.5,214.5c-1-0.2-1.8-1-2.1-2l-6.5-23c-0.4-1.5,0.5-3.1,2-3.5c0.5-0.1,0.9-0.1,1.4,0c1,0.2,1.8,1,2.1,2
		l6.5,23c0.4,1.5-0.4,3.1-1.9,3.5C51.5,214.7,51,214.7,50.5,214.5L50.5,214.5z"/>
	<path class="st3" d="M34.8,219.3c-2.1-0.4-3.9-1.7-5-3.5c-2.5-4.1-1-10.1-0.8-10.8l-0.7-0.2c-2.7-0.6-11.4-3.3-12-11.6
		c-0.2-2.3,0.4-4.1,1.6-5.1c1.7-1.4,4.6-1.6,8.8-0.7c6.5,1.5,14.1,5.6,16.3,6.8l0.4,0.2l4.4,15.6l-0.1,0.4c-0.7,2.1-3.6,9-9.5,9
		C37,219.6,35.9,219.5,34.8,219.3L34.8,219.3z"/>
	<path class="st3" d="M60.2,212.4c-2.5-0.7-4.8-1.9-6.8-3.5l-0.3-0.2L48.8,193l0.2-0.4c0.4-0.8,11.1-20,18.5-18.3
		c1.7,0.5,3.1,1.8,3.7,3.5c4.4,8.5-4.4,16.3-4.7,16.6c0.2,0.2,5.4,5.3,4.8,10.6c-0.3,2.6-2,4.9-5.1,6.7
		C64.4,212.8,62.3,213,60.2,212.4L60.2,212.4z"/>
	<path class="st2" d="M45.4,188.5L45.4,188.5c-0.4-0.1-0.7-0.5-0.6-1l1.1-4.8c0.1-0.4,0.5-0.7,1-0.6l0,0c0.4,0.1,0.7,0.5,0.6,1
		l-1.1,4.8C46.3,188.3,45.8,188.6,45.4,188.5z"/>
	<path class="st2" d="M43.9,189.5L43.9,189.5c-0.3,0.3-0.8,0.3-1.1,0l-3.5-3.6c-0.3-0.3-0.3-0.8,0-1.1l0,0c0.3-0.3,0.8-0.3,1.1,0
		l3.5,3.6C44.3,188.6,44.3,189.1,43.9,189.5z"/>
</g>
<g>
	<path class="st2" d="M50.4,264.4c-0.9-0.5-1.4-1.5-1.4-2.5l0.4-23.9c0-1.6,1.3-2.8,2.9-2.8c0.5,0,0.9,0.1,1.4,0.4
		c0.9,0.5,1.5,1.5,1.5,2.5L54.7,262c0,1.6-1.3,2.8-2.9,2.8C51.3,264.8,50.8,264.7,50.4,264.4L50.4,264.4z"/>
	<path class="st4" d="M34,264.4c-1.9-1-3.3-2.8-3.8-4.8c-1.2-4.7,1.9-10,2.3-10.6l-0.6-0.4c-2.4-1.4-10-6.5-8.1-14.5
		c0.5-2.3,1.5-3.8,3-4.4c2-0.9,4.9-0.2,8.6,1.9c5.8,3.4,11.9,9.5,13.6,11.2l0.3,0.3L49,259.4l-0.2,0.3c-1.3,1.8-6,7.6-11.7,5.9
		C36,265.4,35,264.9,34,264.4L34,264.4z"/>
	<path class="st4" d="M60.3,265.2c-2.2-1.4-4-3.2-5.4-5.3l-0.2-0.3l0.3-16.3l0.3-0.3c0.7-0.7,16.4-16,23-12.2c1.5,1,2.4,2.6,2.6,4.4
		c1.8,9.4-8.9,14.3-9.3,14.6c0.2,0.3,3.7,6.6,1.6,11.5c-1,2.4-3.3,4.1-6.8,5C64.2,266.7,62.1,266.3,60.3,265.2L60.3,265.2z"/>
	<path class="st2" d="M53,238L53,238c-0.4-0.2-0.5-0.7-0.3-1.1l2.5-4.3c0.2-0.4,0.7-0.5,1.1-0.3h0c0.4,0.2,0.5,0.7,0.3,1.1l-2.5,4.3
		C53.9,238,53.4,238.2,53,238z"/>
	<path class="st2" d="M51.3,238.5L51.3,238.5c-0.4,0.2-0.9,0.1-1.1-0.3l-2.3-4.4c-0.2-0.4-0.1-0.9,0.3-1.1h0
		c0.4-0.2,0.9-0.1,1.1,0.3l2.3,4.4C51.9,237.8,51.7,238.3,51.3,238.5z"/>
</g>
<g>
	<path class="st2" d="M55.9,316.5c-1-0.2-1.8-1-2.1-2l-6.5-23c-0.4-1.5,0.5-3.1,2-3.5c0.5-0.1,0.9-0.1,1.4,0c1,0.2,1.8,1,2.1,2
		l6.5,23c0.4,1.5-0.4,3.1-1.9,3.5C56.9,316.6,56.4,316.6,55.9,316.5L55.9,316.5z"/>
	<path class="st5" d="M40.2,321.2c-2.1-0.4-3.9-1.7-5-3.5c-2.5-4.1-1-10.1-0.8-10.8l-0.7-0.2c-2.7-0.6-11.4-3.3-12-11.6
		c-0.2-2.3,0.4-4.1,1.6-5.1c1.7-1.4,4.6-1.6,8.8-0.7c6.5,1.5,14.1,5.6,16.3,6.8l0.4,0.2l4.4,15.6l-0.1,0.4c-0.7,2.1-3.6,9-9.5,9
		C42.4,321.5,41.3,321.4,40.2,321.2L40.2,321.2z"/>
	<path class="st5" d="M65.6,314.4c-2.5-0.7-4.8-1.9-6.8-3.5l-0.3-0.2l-4.4-15.6l0.2-0.4c0.4-0.8,11.1-20,18.5-18.3
		c1.7,0.5,3.1,1.8,3.7,3.5c4.4,8.5-4.4,16.3-4.7,16.6c0.2,0.2,5.4,5.3,4.8,10.6c-0.3,2.6-2,4.9-5.1,6.7
		C69.8,314.7,67.6,314.9,65.6,314.4L65.6,314.4z"/>
	<path class="st2" d="M50.8,290.4L50.8,290.4c-0.4-0.1-0.7-0.5-0.6-1l1.1-4.8c0.1-0.4,0.5-0.7,1-0.6l0,0c0.4,0.1,0.7,0.5,0.6,1
		l-1.1,4.8C51.6,290.2,51.2,290.5,50.8,290.4z"/>
	<path class="st2" d="M49.3,291.4L49.3,291.4c-0.3,0.3-0.8,0.3-1.1,0l-3.5-3.6c-0.3-0.3-0.3-0.8,0-1.1h0c0.3-0.3,0.8-0.3,1.1,0
		l3.5,3.6C49.7,290.5,49.6,291.1,49.3,291.4z"/>
</g>
<g>
	<path class="st2" d="M55.9,112.6c-1-0.2-1.8-1-2.1-2l-6.5-23c-0.4-1.5,0.5-3.1,2-3.5c0.5-0.1,0.9-0.1,1.4,0c1,0.2,1.8,1,2.1,2
		l6.5,23c0.4,1.5-0.4,3.1-1.9,3.5C56.9,112.7,56.4,112.8,55.9,112.6L55.9,112.6z"/>
	<path class="st0" d="M40.2,117.4c-2.1-0.4-3.9-1.7-5-3.5c-2.5-4.1-1-10.1-0.8-10.8l-0.7-0.2c-2.7-0.6-11.4-3.3-12-11.6
		c-0.2-2.3,0.4-4.1,1.6-5.1c1.7-1.4,4.6-1.6,8.8-0.7c6.5,1.5,14.1,5.6,16.3,6.8l0.4,0.2l4.4,15.6l-0.1,0.4c-0.7,2.1-3.6,9-9.5,9
		C42.4,117.7,41.3,117.6,40.2,117.4L40.2,117.4z"/>
	<path class="st0" d="M65.6,110.5c-2.5-0.7-4.8-1.9-6.8-3.5l-0.3-0.2l-4.4-15.6l0.2-0.4c0.4-0.8,11.1-20,18.5-18.3
		c1.7,0.5,3.1,1.8,3.7,3.5c4.4,8.5-4.4,16.3-4.7,16.6c0.2,0.2,5.4,5.3,4.8,10.6c-0.3,2.6-2,4.9-5.1,6.7
		C69.8,110.8,67.6,111.1,65.6,110.5L65.6,110.5z"/>
	<path class="st2" d="M50.8,86.5L50.8,86.5c-0.4-0.1-0.7-0.5-0.6-1l1.1-4.8c0.1-0.4,0.5-0.7,1-0.6l0,0c0.4,0.1,0.7,0.5,0.6,1
		l-1.1,4.8C51.6,86.4,51.2,86.7,50.8,86.5z"/>
	<path class="st2" d="M49.3,87.5L49.3,87.5c-0.3,0.3-0.8,0.3-1.1,0L44.7,84c-0.3-0.3-0.3-0.8,0-1.1h0c0.3-0.3,0.8-0.3,1.1,0l3.5,3.6
		C49.7,86.7,49.6,87.2,49.3,87.5z"/>
</g>
<g>
	<path class="st2" d="M44.3,162.5c-0.9-0.5-1.4-1.5-1.4-2.5l0.4-23.9c0-1.6,1.3-2.8,2.9-2.8c0.5,0,0.9,0.1,1.4,0.4
		c0.9,0.5,1.5,1.5,1.5,2.5l-0.4,23.9c0,1.6-1.3,2.8-2.9,2.8C45.2,162.9,44.7,162.8,44.3,162.5L44.3,162.5z"/>
	<path class="st6" d="M27.9,162.5c-1.9-1-3.3-2.8-3.8-4.8c-1.2-4.7,1.9-10,2.3-10.6l-0.6-0.4c-2.4-1.4-10-6.5-8.1-14.5
		c0.5-2.3,1.5-3.8,3-4.4c2-0.9,4.9-0.2,8.6,1.9c5.8,3.4,11.9,9.5,13.6,11.2l0.3,0.3l-0.3,16.3l-0.2,0.3c-1.3,1.8-6,7.6-11.7,5.9
		C29.9,163.4,28.9,163,27.9,162.5L27.9,162.5z"/>
	<path class="st6" d="M54.2,163.3c-2.2-1.4-4-3.2-5.4-5.3l-0.2-0.3l0.3-16.3l0.3-0.3c0.7-0.7,16.4-16,23-12.2c1.5,1,2.4,2.6,2.6,4.4
		c1.8,9.4-8.9,14.3-9.3,14.6c0.2,0.3,3.7,6.6,1.6,11.5c-1,2.4-3.3,4.1-6.8,5C58.1,164.8,56,164.4,54.2,163.3L54.2,163.3z"/>
	<path class="st2" d="M46.9,136L46.9,136c-0.4-0.2-0.5-0.7-0.3-1.1l2.5-4.3c0.2-0.4,0.7-0.5,1.1-0.3l0,0c0.4,0.2,0.5,0.7,0.3,1.1
		l-2.5,4.3C47.8,136.1,47.3,136.3,46.9,136z"/>
	<path class="st2" d="M45.2,136.6L45.2,136.6c-0.4,0.2-0.9,0.1-1.1-0.3l-2.3-4.4c-0.2-0.4-0.1-0.9,0.3-1.1h0
		c0.4-0.2,0.9-0.1,1.1,0.3l2.3,4.4C45.8,135.9,45.6,136.4,45.2,136.6z"/>
</g>
<g>
	<g>
		<path class="st2" d="M201.9,235.1c-1-0.2-1.8-1-2.1-2l-6.5-23c-0.4-1.5,0.5-3.1,2-3.5c0.5-0.1,0.9-0.1,1.4,0c1,0.2,1.8,1,2.1,2
			l6.5,23c0.4,1.5-0.4,3.1-1.9,3.5C202.9,235.2,202.4,235.2,201.9,235.1L201.9,235.1z"/>
		<path class="st3" d="M186.2,239.9c-2.1-0.4-3.9-1.7-5-3.5c-2.5-4.1-1-10.1-0.8-10.8l-0.7-0.2c-2.7-0.6-11.4-3.3-12-11.6
			c-0.2-2.3,0.4-4.1,1.6-5.1c1.7-1.4,4.6-1.6,8.8-0.7c6.5,1.5,14.1,5.6,16.3,6.8l0.4,0.2l4.4,15.6l-0.1,0.4c-0.7,2.1-3.6,9-9.5,9
			C188.4,240.2,187.3,240.1,186.2,239.9L186.2,239.9z"/>
		<path class="st3" d="M211.6,233c-2.5-0.7-4.8-1.9-6.8-3.5l-0.3-0.2l-4.4-15.6l0.2-0.4c0.4-0.8,11.1-20,18.5-18.3
			c1.7,0.5,3.1,1.8,3.7,3.5c4.4,8.5-4.4,16.3-4.7,16.6c0.2,0.2,5.4,5.3,4.8,10.6c-0.3,2.6-2,4.9-5.1,6.7
			C215.8,233.3,213.6,233.6,211.6,233L211.6,233z"/>
		<path class="st2" d="M196.7,209L196.7,209c-0.4-0.1-0.7-0.5-0.6-1l1.1-4.8c0.1-0.4,0.5-0.7,1-0.6l0,0c0.4,0.1,0.7,0.5,0.6,1
			l-1.1,4.8C197.6,208.9,197.2,209.1,196.7,209z"/>
		<path class="st2" d="M195.3,210L195.3,210c-0.3,0.3-0.8,0.3-1.1,0l-3.5-3.6c-0.3-0.3-0.3-0.8,0-1.1l0,0c0.3-0.3,0.8-0.3,1.1,0
			l3.5,3.6C195.6,209.2,195.6,209.7,195.3,210z"/>
	</g>
	<g>
		<path class="st2" d="M201.8,284.5c-0.9-0.5-1.4-1.5-1.4-2.5l0.4-23.9c0-1.6,1.3-2.8,2.9-2.8c0.5,0,0.9,0.1,1.4,0.4
			c0.9,0.5,1.5,1.5,1.5,2.5l-0.4,23.9c0,1.6-1.3,2.8-2.9,2.8C202.7,284.9,202.2,284.7,201.8,284.5L201.8,284.5z"/>
		<path class="st4" d="M185.4,284.5c-1.9-1-3.3-2.8-3.8-4.8c-1.2-4.7,1.9-10,2.3-10.6l-0.6-0.4c-2.4-1.4-10-6.5-8.1-14.5
			c0.5-2.3,1.5-3.8,3-4.4c2-0.9,4.9-0.2,8.6,1.9c5.8,3.4,11.9,9.5,13.6,11.2l0.3,0.3l-0.3,16.3l-0.2,0.3c-1.3,1.8-6,7.6-11.7,5.9
			C187.4,285.4,186.4,285,185.4,284.5L185.4,284.5z"/>
		<path class="st4" d="M211.7,285.3c-2.2-1.4-4-3.2-5.4-5.3l-0.2-0.3l0.3-16.3l0.3-0.3c0.7-0.7,16.4-16,23-12.2
			c1.5,1,2.4,2.6,2.6,4.4c1.8,9.4-8.9,14.3-9.3,14.6c0.2,0.3,3.7,6.6,1.6,11.5c-1,2.4-3.3,4.1-6.8,5
			C215.6,286.8,213.5,286.4,211.7,285.3L211.7,285.3z"/>
		<path class="st2" d="M204.4,258L204.4,258c-0.4-0.2-0.5-0.7-0.3-1.1l2.5-4.3c0.2-0.4,0.7-0.5,1.1-0.3v0c0.4,0.2,0.5,0.7,0.3,1.1
			l-2.5,4.3C205.2,258.1,204.7,258.2,204.4,258z"/>
		<path class="st2" d="M202.7,258.6L202.7,258.6c-0.4,0.2-0.9,0.1-1.1-0.3l-2.3-4.4c-0.2-0.4-0.1-0.9,0.3-1.1v0
			c0.4-0.2,0.9-0.1,1.1,0.3l2.3,4.4C203.2,257.9,203.1,258.3,202.7,258.6z"/>
	</g>
	<g>
		<path class="st2" d="M207.2,336c-1-0.2-1.8-1-2.1-2l-6.5-23c-0.4-1.5,0.5-3.1,2-3.5c0.5-0.1,0.9-0.1,1.4,0c1,0.2,1.8,1,2.1,2
			l6.5,23c0.4,1.5-0.4,3.1-1.9,3.5C208.3,336.1,207.8,336.1,207.2,336L207.2,336z"/>
		<path class="st5" d="M191.6,340.7c-2.1-0.4-3.9-1.7-5-3.5c-2.5-4.1-1-10.1-0.8-10.8l-0.7-0.2c-2.7-0.6-11.4-3.3-12-11.6
			c-0.2-2.3,0.4-4.1,1.6-5.1c1.7-1.4,4.6-1.6,8.8-0.7c6.5,1.5,14.1,5.6,16.3,6.8l0.4,0.2l4.4,15.6l-0.1,0.4c-0.7,2.1-3.6,9-9.5,9
			C193.8,341,192.7,340.9,191.6,340.7L191.6,340.7z"/>
		<path class="st5" d="M217,333.9c-2.5-0.7-4.8-1.9-6.8-3.5l-0.3-0.2l-4.4-15.6l0.2-0.4c0.4-0.8,11.1-20,18.5-18.3
			c1.7,0.5,3.1,1.8,3.7,3.5c4.4,8.5-4.4,16.3-4.7,16.6c0.2,0.2,5.4,5.3,4.8,10.6c-0.3,2.6-2,4.9-5.1,6.7
			C221.2,334.2,219,334.5,217,333.9L217,333.9z"/>
		<path class="st2" d="M202.1,309.9L202.1,309.9c-0.4-0.1-0.7-0.5-0.6-1l1.1-4.8c0.1-0.4,0.5-0.7,1-0.6l0,0c0.4,0.1,0.7,0.5,0.6,1
			l-1.1,4.8C203,309.7,202.6,310,202.1,309.9z"/>
		<path class="st2" d="M200.7,310.9L200.7,310.9c-0.3,0.3-0.8,0.3-1.1,0l-3.5-3.6c-0.3-0.3-0.3-0.8,0-1.1l0,0c0.3-0.3,0.8-0.3,1.1,0
			l3.5,3.6C201,310.1,201,310.6,200.7,310.9z"/>
	</g>
	<g>
		<path class="st2" d="M207.2,83.8c-1-0.2-1.8-1-2.1-2l-6.5-23c-0.4-1.5,0.5-3.1,2-3.5c0.5-0.1,0.9-0.1,1.4,0c1,0.2,1.8,1,2.1,2
			l6.5,23c0.4,1.5-0.4,3.1-1.9,3.5C208.3,83.9,207.8,83.9,207.2,83.8L207.2,83.8z"/>
		<path class="st5" d="M191.6,88.6c-2.1-0.4-3.9-1.7-5-3.5c-2.5-4.1-1-10.1-0.8-10.8l-0.7-0.2c-2.7-0.6-11.4-3.3-12-11.6
			c-0.2-2.3,0.4-4.1,1.6-5.1c1.7-1.4,4.6-1.6,8.8-0.7c6.5,1.5,14.1,5.6,16.3,6.8l0.4,0.2l4.4,15.6l-0.1,0.4c-0.7,2.1-3.6,9-9.5,9
			C193.8,88.9,192.7,88.8,191.6,88.6L191.6,88.6z"/>
		<path class="st5" d="M217,81.7c-2.5-0.7-4.8-1.9-6.8-3.5l-0.3-0.2l-4.4-15.6l0.2-0.4c0.4-0.8,11.1-20,18.5-18.3
			c1.7,0.5,3.1,1.8,3.7,3.5c4.4,8.5-4.4,16.3-4.7,16.6c0.2,0.2,5.4,5.3,4.8,10.6c-0.3,2.6-2,4.9-5.1,6.7C221.2,82,219,82.3,217,81.7
			L217,81.7z"/>
		<path class="st2" d="M202.1,57.7L202.1,57.7c-0.4-0.1-0.7-0.5-0.6-1l1.1-4.8c0.1-0.4,0.5-0.7,1-0.6l0,0c0.4,0.1,0.7,0.5,0.6,1
			l-1.1,4.8C203,57.6,202.6,57.8,202.1,57.7z"/>
		<path class="st2" d="M200.7,58.7L200.7,58.7c-0.3,0.3-0.8,0.3-1.1,0l-3.5-3.6c-0.3-0.3-0.3-0.8,0-1.1v0c0.3-0.3,0.8-0.3,1.1,0
			l3.5,3.6C201,57.9,201,58.4,200.7,58.7z"/>
	</g>
	<g>
		<path class="st2" d="M207.2,134.3c-1-0.2-1.8-1-2.1-2l-6.5-23c-0.4-1.5,0.5-3.1,2-3.5c0.5-0.1,0.9-0.1,1.4,0c1,0.2,1.8,1,2.1,2
			l6.5,23c0.4,1.5-0.4,3.1-1.9,3.5C208.3,134.4,207.8,134.4,207.2,134.3L207.2,134.3z"/>
		<path class="st0" d="M191.6,139c-2.1-0.4-3.9-1.7-5-3.5c-2.5-4.1-1-10.1-0.8-10.8l-0.7-0.2c-2.7-0.6-11.4-3.3-12-11.6
			c-0.2-2.3,0.4-4.1,1.6-5.1c1.7-1.4,4.6-1.6,8.8-0.7c6.5,1.5,14.1,5.6,16.3,6.8l0.4,0.2l4.4,15.6l-0.1,0.4c-0.7,2.1-3.6,9-9.5,9
			C193.8,139.3,192.7,139.2,191.6,139L191.6,139z"/>
		<path class="st0" d="M217,132.2c-2.5-0.7-4.8-1.9-6.8-3.5l-0.3-0.2l-4.4-15.6l0.2-0.4c0.4-0.8,11.1-20,18.5-18.3
			c1.7,0.5,3.1,1.8,3.7,3.5c4.4,8.5-4.4,16.3-4.7,16.6c0.2,0.2,5.4,5.3,4.8,10.6c-0.3,2.6-2,4.9-5.1,6.7
			C221.2,132.5,219,132.7,217,132.2L217,132.2z"/>
		<path class="st2" d="M202.1,108.2L202.1,108.2c-0.4-0.1-0.7-0.5-0.6-1l1.1-4.8c0.1-0.4,0.5-0.7,1-0.6l0,0c0.4,0.1,0.7,0.5,0.6,1
			l-1.1,4.8C203,108,202.6,108.3,202.1,108.2z"/>
		<path class="st2" d="M200.7,109.2L200.7,109.2c-0.3,0.3-0.8,0.3-1.1,0l-3.5-3.6c-0.3-0.3-0.3-0.8,0-1.1l0,0c0.3-0.3,0.8-0.3,1.1,0
			l3.5,3.6C201,108.3,201,108.9,200.7,109.2z"/>
	</g>
	<g>
		<path class="st2" d="M195.6,183.6c-0.9-0.5-1.4-1.5-1.4-2.5l0.4-23.9c0-1.6,1.3-2.8,2.9-2.8c0.5,0,0.9,0.1,1.4,0.4
			c0.9,0.5,1.5,1.5,1.5,2.5l-0.4,23.9c0,1.6-1.3,2.8-2.9,2.8C196.6,184,196.1,183.9,195.6,183.6L195.6,183.6z"/>
		<path class="st6" d="M179.3,183.6c-1.9-1-3.3-2.8-3.8-4.8c-1.2-4.7,1.9-10,2.3-10.6l-0.6-0.4c-2.4-1.4-10-6.5-8.1-14.5
			c0.5-2.3,1.5-3.8,3-4.4c2-0.9,4.9-0.2,8.6,1.9c5.8,3.4,11.9,9.5,13.6,11.2l0.3,0.3l-0.3,16.3l-0.2,0.3c-1.3,1.8-6,7.6-11.7,5.9
			C181.3,184.6,180.3,184.1,179.3,183.6L179.3,183.6z"/>
		<path class="st6" d="M205.6,184.4c-2.2-1.4-4-3.2-5.4-5.3l-0.2-0.3l0.3-16.3l0.3-0.3c0.7-0.7,16.4-16,23-12.2
			c1.5,1,2.4,2.6,2.6,4.4c1.8,9.4-8.9,14.3-9.3,14.6c0.2,0.3,3.7,6.6,1.6,11.5c-1,2.4-3.3,4.1-6.8,5
			C209.5,185.9,207.3,185.5,205.6,184.4L205.6,184.4z"/>
		<path class="st2" d="M198.3,157.1L198.3,157.1c-0.4-0.2-0.5-0.7-0.3-1.1l2.5-4.3c0.2-0.4,0.7-0.5,1.1-0.3l0,0
			c0.4,0.2,0.5,0.7,0.3,1.1l-2.5,4.3C199.1,157.2,198.6,157.4,198.3,157.1z"/>
		<path class="st2" d="M196.6,157.7L196.6,157.7c-0.4,0.2-0.9,0.1-1.1-0.3l-2.3-4.4c-0.2-0.4-0.1-0.9,0.3-1.1l0,0
			c0.4-0.2,0.9-0.1,1.1,0.3l2.3,4.4C197.1,157,197,157.5,196.6,157.7z"/>
	</g>
</g>
<g>
	<g>
		<path class="st2" d="M349.4,281.4c-1-0.2-1.8-1-2.1-2l-6.5-23c-0.4-1.5,0.5-3.1,2-3.5c0.5-0.1,0.9-0.1,1.4,0c1,0.2,1.8,1,2.1,2
			l6.5,23c0.4,1.5-0.4,3.1-1.9,3.5C350.4,281.5,349.9,281.5,349.4,281.4L349.4,281.4z"/>
		<path class="st3" d="M333.7,286.1c-2.1-0.4-3.9-1.7-5-3.5c-2.5-4.1-1-10.1-0.8-10.8l-0.7-0.2c-2.7-0.6-11.4-3.3-12-11.6
			c-0.2-2.3,0.4-4.1,1.6-5.1c1.7-1.4,4.6-1.6,8.8-0.7c6.5,1.5,14.1,5.6,16.3,6.8l0.4,0.2l4.4,15.6l-0.1,0.4c-0.7,2.1-3.6,9-9.5,9
			C336,286.4,334.8,286.3,333.7,286.1L333.7,286.1z"/>
		<path class="st3" d="M359.2,279.3c-2.5-0.7-4.8-1.9-6.8-3.5l-0.3-0.2l-4.4-15.6l0.2-0.4c0.4-0.8,11.1-20,18.5-18.3
			c1.7,0.5,3.1,1.8,3.7,3.5c4.4,8.5-4.4,16.3-4.7,16.6c0.2,0.2,5.4,5.3,4.8,10.6c-0.3,2.6-2,4.9-5.1,6.7
			C363.4,279.6,361.2,279.8,359.2,279.3L359.2,279.3z"/>
		<path class="st2" d="M344.3,255.3L344.3,255.3c-0.4-0.1-0.7-0.5-0.6-1l1.1-4.8c0.1-0.4,0.5-0.7,1-0.6l0,0c0.4,0.1,0.7,0.5,0.6,1
			l-1.1,4.8C345.2,255.1,344.7,255.4,344.3,255.3z"/>
		<path class="st2" d="M342.9,256.3L342.9,256.3c-0.3,0.3-0.8,0.3-1.1,0l-3.5-3.6c-0.3-0.3-0.3-0.8,0-1.1l0,0c0.3-0.3,0.8-0.3,1.1,0
			l3.5,3.6C343.2,255.5,343.2,256,342.9,256.3z"/>
	</g>
	<g>
		<path class="st2" d="M349.3,325.9c-0.9-0.5-1.4-1.5-1.4-2.5l0.4-23.9c0-1.6,1.3-2.8,2.9-2.8c0.5,0,0.9,0.1,1.4,0.4
			c0.9,0.5,1.5,1.5,1.5,2.5l-0.4,23.9c0,1.6-1.3,2.8-2.9,2.8C350.2,326.3,349.8,326.2,349.3,325.9L349.3,325.9z"/>
		<path class="st4" d="M332.9,325.9c-1.9-1-3.3-2.8-3.8-4.8c-1.2-4.7,1.9-10,2.3-10.6l-0.6-0.4c-2.4-1.4-10-6.5-8.1-14.5
			c0.5-2.3,1.5-3.8,3-4.4c2-0.9,4.9-0.2,8.6,1.9c5.8,3.4,11.9,9.5,13.6,11.2l0.3,0.3l-0.3,16.3l-0.2,0.3c-1.3,1.8-6,7.6-11.7,5.9
			C335,326.9,333.9,326.5,332.9,325.9L332.9,325.9z"/>
		<path class="st4" d="M359.2,326.7c-2.2-1.4-4-3.2-5.4-5.3l-0.2-0.3l0.3-16.3l0.3-0.3c0.7-0.7,16.4-16,23-12.2
			c1.5,1,2.4,2.6,2.6,4.4c1.8,9.4-8.9,14.3-9.3,14.6c0.2,0.3,3.7,6.6,1.6,11.5c-1,2.4-3.3,4.1-6.8,5
			C363.2,328.2,361,327.8,359.2,326.7L359.2,326.7z"/>
		<path class="st2" d="M351.9,299.5L351.9,299.5c-0.4-0.2-0.5-0.7-0.3-1.1l2.5-4.3c0.2-0.4,0.7-0.5,1.1-0.3l0,0
			c0.4,0.2,0.5,0.7,0.3,1.1l-2.5,4.3C352.8,299.6,352.3,299.7,351.9,299.5z"/>
		<path class="st2" d="M350.3,300L350.3,300c-0.4,0.2-0.9,0.1-1.1-0.3l-2.3-4.4c-0.2-0.4-0.1-0.9,0.3-1.1h0c0.4-0.2,0.9-0.1,1.1,0.3
			l2.3,4.4C350.8,299.3,350.7,299.8,350.3,300z"/>
	</g>
	<g>
		<path class="st2" d="M348.6,371.7c-0.9-0.6-1.4-1.5-1.3-2.6l1.5-23.9c0.1-1.6,1.4-2.7,3-2.6c0.5,0,0.9,0.2,1.3,0.4
			c0.9,0.5,1.4,1.5,1.3,2.6l-1.5,23.9c-0.1,1.6-1.4,2.7-3,2.6C349.6,372.1,349.1,372,348.6,371.7L348.6,371.7z"/>
		<path class="st5" d="M332.3,371c-1.8-1.1-3.2-2.9-3.6-5c-1-4.7,2.4-9.9,2.8-10.5l-0.6-0.4c-2.3-1.5-9.7-6.9-7.5-14.9
			c0.6-2.3,1.7-3.7,3.2-4.3c2-0.8,4.9,0,8.5,2.3c5.7,3.6,11.5,10,13.1,11.8l0.3,0.4l-1,16.2l-0.2,0.3c-1.4,1.7-6.3,7.3-12,5.4
			C334.3,372,333.2,371.6,332.3,371L332.3,371z"/>
		<path class="st5" d="M358.5,372.9c-2.1-1.5-3.9-3.4-5.2-5.6l-0.2-0.3l1-16.2l0.3-0.3c0.7-0.6,17.1-15.2,23.5-11.1
			c1.4,1.1,2.3,2.7,2.4,4.5c1.4,9.5-9.5,13.9-10,14.1c0.1,0.3,3.4,6.8,1.1,11.6c-1.2,2.4-3.5,4-7,4.7
			C362.4,374.6,360.3,374.1,358.5,372.9L358.5,372.9z"/>
		<path class="st2" d="M352.4,345.4L352.4,345.4c-0.4-0.2-0.5-0.7-0.2-1.1l2.7-4.2c0.2-0.4,0.7-0.5,1.1-0.2l0,0
			c0.4,0.2,0.5,0.7,0.2,1.1l-2.7,4.2C353.3,345.5,352.8,345.6,352.4,345.4z"/>
		<path class="st2" d="M350.7,345.9L350.7,345.9c-0.4,0.2-0.9,0-1.1-0.4l-2.1-4.5c-0.2-0.4,0-0.9,0.4-1.1l0,0c0.4-0.2,0.9,0,1.1,0.4
			l2.1,4.5C351.3,345.2,351.1,345.7,350.7,345.9z"/>
	</g>
	<g>
		<path class="st2" d="M349.4,53.2c-1-0.2-1.8-1-2.1-2l-6.5-23c-0.4-1.5,0.5-3.1,2-3.5c0.5-0.1,0.9-0.1,1.4,0c1,0.2,1.8,1,2.1,2
			l6.5,23c0.4,1.5-0.4,3.1-1.9,3.5C350.4,53.3,349.9,53.3,349.4,53.2L349.4,53.2z"/>
		<path class="st3" d="M333.7,57.9c-2.1-0.4-3.9-1.7-5-3.5c-2.5-4.1-1-10.1-0.8-10.8l-0.7-0.2c-2.7-0.6-11.4-3.3-12-11.6
			c-0.2-2.3,0.4-4.1,1.6-5.1c1.7-1.4,4.6-1.6,8.8-0.7c6.5,1.5,14.1,5.6,16.3,6.8l0.4,0.2l4.4,15.6l-0.1,0.4c-0.7,2.1-3.6,9-9.5,9
			C336,58.2,334.8,58.1,333.7,57.9L333.7,57.9z"/>
		<path class="st3" d="M359.2,51.1c-2.5-0.7-4.8-1.9-6.8-3.5l-0.3-0.2l-4.4-15.6l0.2-0.4c0.4-0.8,11.1-20,18.5-18.3
			c1.7,0.5,3.1,1.8,3.7,3.5c4.4,8.5-4.4,16.3-4.7,16.6c0.2,0.2,5.4,5.3,4.8,10.6c-0.3,2.6-2,4.9-5.1,6.7
			C363.4,51.4,361.2,51.7,359.2,51.1L359.2,51.1z"/>
		<path class="st2" d="M344.3,27.1L344.3,27.1c-0.4-0.1-0.7-0.5-0.6-1l1.1-4.8c0.1-0.4,0.5-0.7,1-0.6v0c0.4,0.1,0.7,0.5,0.6,1
			l-1.1,4.8C345.2,26.9,344.7,27.2,344.3,27.1z"/>
		<path class="st2" d="M342.9,28.1L342.9,28.1c-0.3,0.3-0.8,0.3-1.1,0l-3.5-3.6c-0.3-0.3-0.3-0.8,0-1.1v0c0.3-0.3,0.8-0.3,1.1,0
			l3.5,3.6C343.2,27.3,343.2,27.8,342.9,28.1z"/>
	</g>
	<g>
		<path class="st2" d="M349.3,97.7c-0.9-0.5-1.4-1.5-1.4-2.5l0.4-23.9c0-1.6,1.3-2.8,2.9-2.8c0.5,0,0.9,0.1,1.4,0.4
			c0.9,0.5,1.5,1.5,1.5,2.5l-0.4,23.9c0,1.6-1.3,2.8-2.9,2.8C350.2,98.1,349.8,98,349.3,97.7L349.3,97.7z"/>
		<path class="st4" d="M332.9,97.7c-1.9-1-3.3-2.8-3.8-4.8c-1.2-4.7,1.9-10,2.3-10.6l-0.6-0.4c-2.4-1.4-10-6.5-8.1-14.5
			c0.5-2.3,1.5-3.8,3-4.4c2-0.9,4.9-0.2,8.6,1.9c5.8,3.4,11.9,9.5,13.6,11.2l0.3,0.3L348,92.7l-0.2,0.3c-1.3,1.8-6,7.6-11.7,5.9
			C335,98.7,333.9,98.3,332.9,97.7L332.9,97.7z"/>
		<path class="st4" d="M359.2,98.5c-2.2-1.4-4-3.2-5.4-5.3l-0.2-0.3l0.3-16.3l0.3-0.3c0.7-0.7,16.4-16,23-12.2
			c1.5,1,2.4,2.6,2.6,4.4c1.8,9.4-8.9,14.3-9.3,14.6c0.2,0.3,3.7,6.6,1.6,11.5c-1,2.4-3.3,4.1-6.8,5C363.2,100,361,99.6,359.2,98.5
			L359.2,98.5z"/>
		<path class="st2" d="M351.9,71.3L351.9,71.3c-0.4-0.2-0.5-0.7-0.3-1.1l2.5-4.3c0.2-0.4,0.7-0.5,1.1-0.3l0,0
			c0.4,0.2,0.5,0.7,0.3,1.1L353,71C352.8,71.4,352.3,71.5,351.9,71.3z"/>
		<path class="st2" d="M350.3,71.8L350.3,71.8c-0.4,0.2-0.9,0.1-1.1-0.3l-2.3-4.4c-0.2-0.4-0.1-0.9,0.3-1.1h0
			c0.4-0.2,0.9-0.1,1.1,0.3l2.3,4.4C350.8,71.1,350.7,71.6,350.3,71.8z"/>
	</g>
	<g>
		<path class="st2" d="M354.8,144.5c-1-0.2-1.8-1-2.1-2l-6.5-23c-0.4-1.5,0.5-3.1,2-3.5c0.5-0.1,0.9-0.1,1.4,0c1,0.2,1.8,1,2.1,2
			l6.5,23c0.4,1.5-0.4,3.1-1.9,3.5C355.8,144.6,355.3,144.6,354.8,144.5L354.8,144.5z"/>
		<path class="st5" d="M339.1,149.2c-2.1-0.4-3.9-1.7-5-3.5c-2.5-4.1-1-10.1-0.8-10.8l-0.7-0.2c-2.7-0.6-11.4-3.3-12-11.6
			c-0.2-2.3,0.4-4.1,1.6-5.1c1.7-1.4,4.6-1.6,8.8-0.7c6.5,1.5,14.1,5.6,16.3,6.8l0.4,0.2l4.4,15.6l-0.1,0.4c-0.7,2.1-3.6,9-9.5,9
			C341.4,149.5,340.2,149.4,339.1,149.2L339.1,149.2z"/>
		<path class="st5" d="M364.5,142.4c-2.5-0.7-4.8-1.9-6.8-3.5l-0.3-0.2l-4.4-15.6l0.2-0.4c0.4-0.8,11.1-20,18.5-18.3
			c1.7,0.5,3.1,1.8,3.7,3.5c4.4,8.5-4.4,16.3-4.7,16.6c0.2,0.2,5.4,5.3,4.8,10.6c-0.3,2.6-2,4.9-5.1,6.7
			C368.7,142.7,366.6,142.9,364.5,142.4L364.5,142.4z"/>
		<path class="st2" d="M349.7,118.4L349.7,118.4c-0.4-0.1-0.7-0.5-0.6-1l1.1-4.8c0.1-0.4,0.5-0.7,1-0.6l0,0c0.4,0.1,0.7,0.5,0.6,1
			l-1.1,4.8C350.6,118.2,350.1,118.5,349.7,118.4z"/>
		<path class="st2" d="M348.3,119.4L348.3,119.4c-0.3,0.3-0.8,0.3-1.1,0l-3.5-3.6c-0.3-0.3-0.3-0.8,0-1.1l0,0c0.3-0.3,0.8-0.3,1.1,0
			l3.5,3.6C348.6,118.6,348.6,119.1,348.3,119.4z"/>
	</g>
	<g>
		<path class="st2" d="M354.8,190.1c-1-0.2-1.8-1-2.1-2l-6.5-23c-0.4-1.5,0.5-3.1,2-3.5c0.5-0.1,0.9-0.1,1.4,0c1,0.2,1.8,1,2.1,2
			l6.5,23c0.4,1.5-0.4,3.1-1.9,3.5C355.8,190.2,355.3,190.2,354.8,190.1L354.8,190.1z"/>
		<path class="st0" d="M339.1,194.8c-2.1-0.4-3.9-1.7-5-3.5c-2.5-4.1-1-10.1-0.8-10.8l-0.7-0.2c-2.7-0.6-11.4-3.3-12-11.6
			c-0.2-2.3,0.4-4.1,1.6-5.1c1.7-1.4,4.6-1.6,8.8-0.7c6.5,1.5,14.1,5.6,16.3,6.8l0.4,0.2l4.4,15.6l-0.1,0.4c-0.7,2.1-3.6,9-9.5,9
			C341.4,195.1,340.2,195.1,339.1,194.8L339.1,194.8z"/>
		<path class="st0" d="M364.5,188c-2.5-0.7-4.8-1.9-6.8-3.5l-0.3-0.2l-4.4-15.6l0.2-0.4c0.4-0.8,11.1-20,18.5-18.3
			c1.7,0.5,3.1,1.8,3.7,3.5c4.4,8.5-4.4,16.3-4.7,16.6c0.2,0.2,5.4,5.3,4.8,10.6c-0.3,2.6-2,4.9-5.1,6.7
			C368.7,188.3,366.6,188.6,364.5,188L364.5,188z"/>
		<path class="st2" d="M349.7,164L349.7,164c-0.4-0.1-0.7-0.5-0.6-1l1.1-4.8c0.1-0.4,0.5-0.7,1-0.6l0,0c0.4,0.1,0.7,0.5,0.6,1
			l-1.1,4.8C350.6,163.9,350.1,164.1,349.7,164z"/>
		<path class="st2" d="M348.3,165L348.3,165c-0.3,0.3-0.8,0.3-1.1,0l-3.5-3.6c-0.3-0.3-0.3-0.8,0-1.1l0,0c0.3-0.3,0.8-0.3,1.1,0
			l3.5,3.6C348.6,164.2,348.6,164.7,348.3,165z"/>
	</g>
	<g>
		<path class="st2" d="M343.2,234.6c-0.9-0.5-1.4-1.5-1.4-2.5l0.4-23.9c0-1.6,1.3-2.8,2.9-2.8c0.5,0,0.9,0.1,1.4,0.4
			c0.9,0.5,1.5,1.5,1.5,2.5l-0.4,23.9c0,1.6-1.3,2.8-2.9,2.8C344.1,235,343.7,234.9,343.2,234.6L343.2,234.6z"/>
		<path class="st6" d="M326.8,234.7c-1.9-1-3.3-2.8-3.8-4.8c-1.2-4.7,1.9-10,2.3-10.6l-0.6-0.4c-2.4-1.4-10-6.5-8.1-14.5
			c0.5-2.3,1.5-3.8,3-4.4c2-0.9,4.9-0.2,8.6,1.9c5.8,3.4,11.9,9.5,13.6,11.2l0.3,0.3l-0.3,16.3l-0.2,0.3c-1.3,1.8-6,7.6-11.7,5.9
			C328.9,235.6,327.8,235.2,326.8,234.7L326.8,234.7z"/>
		<path class="st6" d="M353.1,235.4c-2.2-1.4-4-3.2-5.4-5.3l-0.2-0.3l0.3-16.3l0.3-0.3c0.7-0.7,16.4-16,23-12.2
			c1.5,1,2.4,2.6,2.6,4.4c1.8,9.4-8.9,14.3-9.3,14.6c0.2,0.3,3.7,6.6,1.6,11.5c-1,2.4-3.3,4.1-6.8,5
			C357.1,236.9,354.9,236.6,353.1,235.4L353.1,235.4z"/>
		<path class="st2" d="M345.8,208.2L345.8,208.2c-0.4-0.2-0.5-0.7-0.3-1.1l2.5-4.3c0.2-0.4,0.7-0.5,1.1-0.3l0,0
			c0.4,0.2,0.5,0.7,0.3,1.1l-2.5,4.3C346.7,208.3,346.2,208.4,345.8,208.2z"/>
		<path class="st2" d="M344.2,208.7L344.2,208.7c-0.4,0.2-0.9,0.1-1.1-0.3l-2.3-4.4c-0.2-0.4-0.1-0.9,0.3-1.1l0,0
			c0.4-0.2,0.9-0.1,1.1,0.3l2.3,4.4C344.7,208,344.5,208.5,344.2,208.7z"/>
	</g>
</g>
</svg>
