<?xml version="1.0" encoding="utf-8"?>
<!-- Generator: Adobe Illustrator 22.1.0, SVG Export Plug-In . SVG Version: 6.00 Build 0)  -->
<svg version="1.1" id="Layer_1" xmlns="http://www.w3.org/2000/svg" xmlns:xlink="http://www.w3.org/1999/xlink" x="0px" y="0px"
	 viewBox="0 0 300 300" style="enable-background:new 0 0 300 300;" xml:space="preserve">
<style type="text/css">
	.st0{fill:#FFFFFF;}
	.st1{fill:#E15050;}
	.st2{fill:#C63838;}
	.st3{fill:#FFD558;}
	.st4{fill:#56BB69;}
	.st5{fill:#00B6EC;}
	.st6{fill:#60025E;}
	.st7{fill:#9C52A0;}
	.st8{fill:#B882BC;}
	.st9{fill:#FBB454;}
	.st10{fill:#00AF6B;}
	.st11{fill:#0095C6;}
	.st12{fill:none;}
</style>
<g>
	<path class="st0" d="M51.1,260.2c-16.6,0-30.1-13.5-30.1-30.1c0-16.6,13.5-30.1,30.1-30.1h8.3c-4.4-5.3-7-12-7-19.3
		c0-16.6,13.5-30.1,30.1-30.1h6.9c-4.4-5.3-7.1-12.1-7.1-19.3c0-15.6,11.9-28.4,27-29.9c-0.6-0.7-1.2-1.4-1.7-2.1
		c-1.8-2.3-3.2-4.9-4.2-7.6c-0.2-0.5-0.3-0.9-0.5-1.4c-0.3-0.9-0.5-1.9-0.7-2.9c-0.1-0.5-0.2-1-0.3-1.5c-0.2-1-0.3-2-0.3-3
		c0-0.5,0-1,0-1.5c0-15.8,12.2-28.8,27.7-30c-2.2-3.6-3.5-7.9-3.5-12.4c0-13.1,10.7-23.8,23.7-23.8c13.1,0,23.8,10.7,23.8,23.8
		c0,4.4-1.2,8.7-3.4,12.3h1.8c0.8,0,1.5,0.2,2.1,0.5c14.1,2.5,24.7,14.9,24.7,29.6c0,7.8-3,14.9-7.8,20.3
		c14.5,2.1,25.7,14.7,25.7,29.7c0,7.3-2.6,14-7,19.3h7c16.6,0,30.1,13.5,30.1,30.1c0,7.3-2.6,14-7,19.3h8.3
		c16.6,0,30.1,13.5,30.1,30.1c0,16.6-13.5,30.1-30.1,30.1H51.1z"/>
	<path class="st0" d="M149.5,20.3c10.4,0,18.8,8.4,18.8,18.8c0,7.8-4.7,14.5-11.5,17.3h11.7h3.2c-0.5,0-1.1,0-1.6,0.1
		c13.1,0.8,23.5,11.8,23.5,25v0c0,12.8-9.7,23.4-22.2,24.9h1c-0.4,0-0.8,0-1.2,0c0,0,0,0-0.1,0h15.2c13.8,0,25.1,11.3,25.1,25.1v0
		c0,11.7-8.1,21.6-19,24.3h23.9c13.8,0,25.1,11.3,25.1,25.1v0c0,11.7-8.1,21.6-19,24.3h25.2c13.8,0,25.1,11.3,25.1,25.1v0
		c0,13.8-11.3,25.1-25.1,25.1H138.1h-87c-13.8,0-25.1-11.3-25.1-25.1v0c0-13.8,11.3-25.1,25.1-25.1h25.2c-10.9-2.7-19-12.6-19-24.3
		v0c0-13.8,11.3-25.1,25.1-25.1h0.4h23.5c-0.1,0-0.2,0-0.3-0.1c-10.8-2.8-18.8-12.6-18.8-24.3v0c0-13.8,11.3-25.1,25.1-25.1h16.4
		c-3.2-0.4-6.3-1.4-9-2.9c-0.7-0.4-1.4-0.8-2.1-1.3c-2.3-1.6-4.4-3.5-6.1-5.8c-1.4-1.9-2.6-4.1-3.5-6.4c-0.1-0.4-0.3-0.8-0.4-1.2
		c-0.2-0.8-0.5-1.6-0.6-2.4c-0.1-0.4-0.2-0.8-0.2-1.2c-0.1-0.8-0.2-1.7-0.3-2.5c0-0.4,0-0.9,0-1.3v0c0-13.8,11.3-25.1,25.1-25.1
		h10.6c-6.8-2.8-11.5-9.5-11.5-17.3C130.7,28.7,139.1,20.3,149.5,20.3 M149.5,10.3c-15.9,0-28.7,12.9-28.7,28.8c0,3,0.5,5.9,1.3,8.6
		c-14.7,4.2-25.5,17.7-25.5,33.7c0,0.6,0,1.2,0,1.8c0.1,1.2,0.2,2.4,0.4,3.5c0.1,0.6,0.2,1.2,0.3,1.7c0.2,1.1,0.5,2.3,0.9,3.4
		c0.2,0.5,0.4,1.1,0.6,1.6c0.6,1.6,1.3,3.2,2.2,4.8c-13.7,4.8-23.6,17.8-23.6,33.2c0,5.1,1.1,10,3.1,14.4c-18.4,1.1-33,16.4-33,35
		c0,5.1,1.1,9.9,3,14.3C31.4,195.4,16,211,16,230.1c0,19.3,15.7,35.1,35.1,35.1h87h109.5c19.3,0,35.1-15.7,35.1-35.1
		c0-19.1-15.4-34.7-34.4-35.1c2-4.4,3-9.3,3-14.3c0-18.7-14.7-34-33.1-35c2-4.4,3.1-9.3,3.1-14.4c0-14.9-9.3-27.6-22.4-32.7
		c2.9-5.1,4.6-11,4.6-17.3c0-16.3-11.2-30.1-26.5-34c0.8-2.7,1.2-5.5,1.2-8.4C178.2,23.2,165.3,10.3,149.5,10.3L149.5,10.3z"/>
</g>
<path class="st1" d="M247.6,205.1H51.1c-13.8,0-25.1,11.3-25.1,25.1v0c0,13.8,11.3,25.1,25.1,25.1h196.5c13.8,0,25.1-11.3,25.1-25.1
	v0C272.6,216.3,261.4,205.1,247.6,205.1z"/>
<g>
	<path class="st2" d="M113,230.1L113,230.1c0-13.8,11.3-25.1,25.1-25.1h-87c-13.8,0-25.1,11.3-25.1,25.1v0
		c0,13.8,11.3,25.1,25.1,25.1h87C124.3,255.2,113,243.9,113,230.1z"/>
</g>
<path class="st3" d="M216.2,155.7H82.4c-13.8,0-25.1,11.3-25.1,25.1v0c0,13.8,11.3,25.1,25.1,25.1h133.8c13.8,0,25.1-11.3,25.1-25.1
	v0C241.3,167,230,155.7,216.2,155.7z"/>
<path class="st4" d="M186.2,106.3h-73.8c-13.8,0-25.1,11.3-25.1,25.1v0c0,13.8,11.3,25.1,25.1,25.1h73.8c13.8,0,25.1-11.3,25.1-25.1
	v0C211.3,117.6,200,106.3,186.2,106.3z"/>
<path class="st5" d="M168.4,56.3h-36.8c-13.8,0-25.1,11.3-25.1,25.1v0c0,13.8,11.3,25.1,25.1,25.1h36.8c13.8,0,25.1-11.3,25.1-25.1
	v0C193.5,67.6,182.2,56.3,168.4,56.3z"/>
<g>
	<g>
		<path class="st0" d="M128.9,227.3c0.7,0.4,1.2,0.9,1.6,1.6s0.6,1.5,0.6,2.4c0,0.9-0.2,1.8-0.6,2.5c-0.4,0.7-1,1.3-1.8,1.7
			c-0.8,0.4-1.7,0.6-2.7,0.6c-0.8,0-1.7-0.1-2.5-0.4s-1.5-0.7-2.1-1.1c-0.3-0.3-0.5-0.6-0.5-1c0-0.3,0.1-0.6,0.3-0.8
			c0.2-0.2,0.4-0.3,0.6-0.3c0.1,0,0.3,0,0.4,0.1s0.3,0.1,0.4,0.2c0.5,0.4,1.1,0.7,1.6,0.9c0.5,0.2,1.1,0.3,1.6,0.3
			c0.9,0,1.6-0.2,2.1-0.7c0.5-0.4,0.7-1.1,0.7-1.9c0-0.8-0.2-1.4-0.7-1.9c-0.5-0.5-1.1-0.7-2-0.7c-0.5,0-1,0.1-1.4,0.2
			c-0.4,0.1-0.8,0.4-1.3,0.8c-0.3,0.2-0.5,0.3-0.8,0.3s-0.5-0.1-0.7-0.2c-0.2-0.2-0.3-0.4-0.3-0.7v-6.3c0-0.4,0.1-0.7,0.3-0.9
			c0.2-0.2,0.5-0.3,0.9-0.3h6.8c0.8,0,1.2,0.3,1.2,1s-0.4,1-1.2,1H124v3.9c0.7-0.5,1.5-0.7,2.5-0.7
			C127.5,226.7,128.3,226.9,128.9,227.3z"/>
	</g>
</g>
<g>
	<path class="st6" d="M79,248.5L79,248.5c-10.2,0-18.5-8.3-18.5-18.5v0c0-10.2,8.3-18.5,18.5-18.5h0c10.2,0,18.5,8.3,18.5,18.5v0
		C97.5,240.2,89.2,248.5,79,248.5z"/>
	<g>
		<path class="st0" d="M78.4,231.5c-0.1-0.2-0.2-0.4-0.2-0.7c0-0.7,0.1-1.4,0.4-1.9c0.3-0.5,0.7-1.1,1.2-1.7
			c0.4-0.5,0.7-0.9,0.9-1.2c0.2-0.3,0.3-0.7,0.3-1.1c0-0.4-0.2-0.8-0.5-1.1c-0.3-0.3-0.8-0.4-1.4-0.4c-0.5,0-1,0.1-1.4,0.3
			c-0.4,0.2-1,0.5-1.6,0.9c-0.3,0.2-0.6,0.3-0.8,0.3c-0.2,0-0.4-0.1-0.6-0.3c-0.2-0.2-0.3-0.5-0.3-0.7c0-0.4,0.2-0.7,0.5-1
			c0.6-0.5,1.2-0.9,2-1.1c0.8-0.3,1.6-0.4,2.3-0.4c0.8,0,1.6,0.1,2.2,0.4c0.6,0.3,1.1,0.7,1.5,1.2s0.5,1.1,0.5,1.7
			c0,0.7-0.2,1.3-0.5,1.8c-0.3,0.5-0.8,1.1-1.5,1.8c-0.6,0.6-1,1-1.3,1.4c-0.3,0.4-0.5,0.8-0.5,1.3c0,0.2-0.1,0.4-0.3,0.5
			c-0.1,0.1-0.3,0.2-0.5,0.2C78.7,231.7,78.5,231.6,78.4,231.5z M77.9,235.6c-0.3-0.3-0.4-0.7-0.4-1.1c0-0.4,0.1-0.8,0.4-1.1
			c0.3-0.3,0.6-0.4,1.1-0.4s0.8,0.1,1.1,0.4c0.3,0.3,0.4,0.7,0.4,1.1c0,0.4-0.1,0.8-0.4,1.1c-0.3,0.3-0.6,0.4-1.1,0.4
			C78.5,236,78.2,235.8,77.9,235.6z"/>
	</g>
</g>
<g>
	<path class="st6" d="M219,248.5L219,248.5c-10.2,0-18.5-8.3-18.5-18.5v0c0-10.2,8.3-18.5,18.5-18.5h0c10.2,0,18.5,8.3,18.5,18.5v0
		C237.5,240.2,229.2,248.5,219,248.5z"/>
	<g>
		<path class="st0" d="M218.4,231.5c-0.1-0.2-0.2-0.4-0.2-0.7c0-0.7,0.1-1.4,0.4-1.9c0.3-0.5,0.7-1.1,1.2-1.7
			c0.4-0.5,0.7-0.9,0.9-1.2c0.2-0.3,0.3-0.7,0.3-1.1c0-0.4-0.2-0.8-0.5-1.1c-0.3-0.3-0.8-0.4-1.4-0.4c-0.5,0-1,0.1-1.4,0.3
			c-0.4,0.2-1,0.5-1.6,0.9c-0.3,0.2-0.6,0.3-0.8,0.3c-0.2,0-0.4-0.1-0.6-0.3c-0.2-0.2-0.3-0.5-0.3-0.7c0-0.4,0.2-0.7,0.5-1
			c0.6-0.5,1.2-0.9,2-1.1c0.8-0.3,1.6-0.4,2.3-0.4c0.8,0,1.6,0.1,2.2,0.4c0.6,0.3,1.1,0.7,1.5,1.2s0.5,1.1,0.5,1.7
			c0,0.7-0.2,1.3-0.5,1.8c-0.3,0.5-0.8,1.1-1.5,1.8c-0.6,0.6-1,1-1.3,1.4c-0.3,0.4-0.5,0.8-0.5,1.3c0,0.2-0.1,0.4-0.3,0.5
			c-0.1,0.1-0.3,0.2-0.5,0.2C218.7,231.7,218.5,231.6,218.4,231.5z M217.9,235.6c-0.3-0.3-0.4-0.7-0.4-1.1c0-0.4,0.1-0.8,0.4-1.1
			c0.3-0.3,0.6-0.4,1.1-0.4s0.8,0.1,1.1,0.4c0.3,0.3,0.4,0.7,0.4,1.1c0,0.4-0.1,0.8-0.4,1.1c-0.3,0.3-0.6,0.4-1.1,0.4
			C218.5,236,218.2,235.8,217.9,235.6z"/>
	</g>
</g>
<g>
	<g>
		<path class="st0" d="M172.2,234.8c0,0.7-0.4,1.1-1.2,1.1h-6.9c-0.8,0-1.2-0.4-1.2-1.1c0-0.7,0.4-1,1.2-1h2.1v-9.3l-2,1.2
			c-0.2,0.1-0.4,0.2-0.5,0.2c-0.3,0-0.5-0.1-0.7-0.4s-0.3-0.5-0.3-0.8c0-0.4,0.2-0.7,0.5-0.9l3.2-2c0.4-0.2,0.8-0.4,1.2-0.4
			c0.4,0,0.7,0.1,0.9,0.3s0.3,0.5,0.3,1v11h2.1C171.8,233.8,172.2,234.1,172.2,234.8z"/>
		<path class="st0" d="M174.2,234.2c-0.9-1.3-1.3-3.1-1.3-5.5c0-2.4,0.4-4.2,1.3-5.5c0.9-1.3,2.2-1.9,3.9-1.9c1.7,0,3,0.6,3.9,1.9
			s1.3,3.1,1.3,5.5s-0.4,4.2-1.3,5.5s-2.2,1.9-3.9,1.9C176.4,236.1,175.1,235.4,174.2,234.2z M180.1,232.7c0.4-0.8,0.6-2.2,0.6-4
			c0-1.9-0.2-3.2-0.6-4c-0.4-0.8-1.1-1.3-2-1.3s-1.6,0.4-2,1.3c-0.4,0.8-0.6,2.2-0.6,4s0.2,3.2,0.6,4c0.4,0.8,1.1,1.3,2,1.3
			S179.7,233.6,180.1,232.7z"/>
	</g>
</g>
<g>
	<path class="st0" d="M106.1,214.1h-8.3c-0.9,0-1.7,0.7-1.7,1.7v0c0,0.9,0.7,1.7,1.7,1.7h8.3c0.9,0,1.7-0.7,1.7-1.7v0
		C107.7,214.8,107,214.1,106.1,214.1z"/>
	<path class="st0" d="M103.6,219.9v-8.3c0-0.9-0.7-1.7-1.7-1.7l0,0c-0.9,0-1.7,0.7-1.7,1.7v8.3c0,0.9,0.7,1.7,1.7,1.7l0,0
		C102.8,221.6,103.6,220.8,103.6,219.9z"/>
</g>
<g>
	<path class="st0" d="M153.6,214.1h-8.3c-0.9,0-1.7,0.7-1.7,1.7v0c0,0.9,0.7,1.7,1.7,1.7h8.3c0.9,0,1.7-0.7,1.7-1.7v0
		C155.2,214.8,154.5,214.1,153.6,214.1z"/>
	<path class="st0" d="M151.1,219.9v-8.3c0-0.9-0.7-1.7-1.7-1.7l0,0c-0.9,0-1.7,0.7-1.7,1.7v8.3c0,0.9,0.7,1.7,1.7,1.7l0,0
		C150.3,221.6,151.1,220.8,151.1,219.9z"/>
</g>
<g>
	<path class="st0" d="M177,163.1h-8.3c-0.9,0-1.7,0.7-1.7,1.7v0c0,0.9,0.7,1.7,1.7,1.7h8.3c0.9,0,1.7-0.7,1.7-1.7v0
		C178.7,163.8,177.9,163.1,177,163.1z"/>
	<path class="st0" d="M174.5,168.9v-8.3c0-0.9-0.7-1.7-1.7-1.7l0,0c-0.9,0-1.7,0.7-1.7,1.7v8.3c0,0.9,0.7,1.7,1.7,1.7l0,0
		C173.8,170.6,174.5,169.8,174.5,168.9z"/>
</g>
<g>
	<path class="st0" d="M199.4,214.1h-8.3c-0.9,0-1.7,0.7-1.7,1.7v0c0,0.9,0.7,1.7,1.7,1.7h8.3c0.9,0,1.7-0.7,1.7-1.7v0
		C201.1,214.8,200.4,214.1,199.4,214.1z"/>
	<path class="st0" d="M196.9,219.9v-8.3c0-0.9-0.7-1.7-1.7-1.7h0c-0.9,0-1.7,0.7-1.7,1.7v8.3c0,0.9,0.7,1.7,1.7,1.7h0
		C196.2,221.6,196.9,220.8,196.9,219.9z"/>
</g>
<circle class="st7" cx="149.5" cy="39" r="18.8"/>
<circle class="st8" cx="141.8" cy="34.6" r="7.7"/>
<g>
	<path class="st9" d="M124.7,180.8L124.7,180.8c0-13.8,11.3-25.1,25.1-25.1h-67c-13.8,0-25.1,11.3-25.1,25.1v0
		c0,13.8,11.3,25.1,25.1,25.1h67C136,205.8,124.7,194.5,124.7,180.8z"/>
</g>
<g>
	<path class="st10" d="M147.2,131.3L147.2,131.3c0-13.8,11.3-25.1,25.1-25.1h-60c-13.8,0-25.1,11.3-25.1,25.1v0
		c0,13.8,11.3,25.1,25.1,25.1h60C158.5,156.4,147.2,145.1,147.2,131.3z"/>
</g>
<g>
	<path class="st11" d="M146.5,81.4L146.5,81.4c0-13.8,11.3-25.1,25.1-25.1h-40c-13.8,0-25.1,11.3-25.1,25.1v0
		c0,13.8,11.3,25.1,25.1,25.1h40C157.8,106.4,146.5,95.2,146.5,81.4z"/>
</g>
<g>
	<path class="st12" d="M114.2,205.3H95.8c-6.1,0-11.1-4.9-11.1-11.1v-18.4c0-6.1,4.9-11.1,11.1-11.1h18.4c6.1,0,11.1,4.9,11.1,11.1
		v18.4C125.3,200.3,120.3,205.3,114.2,205.3z"/>
	<g>
		<path class="st0" d="M104.9,189.8c0,0.7-0.4,1.1-1.2,1.1h-6.9c-0.8,0-1.2-0.4-1.2-1.1c0-0.7,0.4-1,1.2-1h2.1v-9.3l-2,1.2
			c-0.2,0.1-0.4,0.2-0.5,0.2c-0.3,0-0.5-0.1-0.7-0.4c-0.2-0.2-0.3-0.5-0.3-0.8c0-0.4,0.2-0.7,0.5-0.9l3.2-2c0.4-0.2,0.8-0.4,1.2-0.4
			c0.4,0,0.7,0.1,0.9,0.3s0.3,0.5,0.3,1v11h2.1C104.5,188.8,104.9,189.1,104.9,189.8z"/>
		<path class="st0" d="M115.7,176.8c0.2,0.2,0.3,0.5,0.3,0.8c0,0.3-0.1,0.6-0.3,1l-6.5,11.8c-0.3,0.5-0.6,0.7-1.1,0.7
			c-0.3,0-0.6-0.1-0.9-0.3s-0.4-0.5-0.4-0.8c0-0.2,0.1-0.5,0.2-0.7l5.8-10.5h-6.1c-0.8,0-1.2-0.3-1.2-1c0-0.7,0.4-1.1,1.2-1.1h8.1
			C115.2,176.5,115.5,176.6,115.7,176.8z"/>
	</g>
</g>
<g>
	<path class="st3" d="M204.2,205.3h-18.4c-6.1,0-11.1-4.9-11.1-11.1v-18.4c0-6.1,4.9-11.1,11.1-11.1h18.4c6.1,0,11.1,4.9,11.1,11.1
		v18.4C215.3,200.3,210.3,205.3,204.2,205.3z"/>
	<g>
		<path class="st0" d="M194.9,189.8c0,0.7-0.4,1.1-1.2,1.1h-6.9c-0.8,0-1.2-0.4-1.2-1.1c0-0.7,0.4-1,1.2-1h2.1v-9.3l-2,1.2
			c-0.2,0.1-0.4,0.2-0.5,0.2c-0.3,0-0.5-0.1-0.7-0.4c-0.2-0.2-0.3-0.5-0.3-0.8c0-0.4,0.2-0.7,0.5-0.9l3.2-2c0.4-0.2,0.8-0.4,1.2-0.4
			c0.4,0,0.7,0.1,0.9,0.3s0.3,0.5,0.3,1v11h2.1C194.5,188.8,194.9,189.1,194.9,189.8z"/>
		<path class="st0" d="M204.5,178.2c1,1.2,1.5,3,1.5,5.3c0,1.6-0.2,2.9-0.7,4.1s-1.1,2-2,2.6c-0.9,0.6-1.9,0.9-3,0.9
			c-0.8,0-1.5-0.1-2.3-0.4c-0.8-0.3-1.4-0.7-2-1.1c-0.2-0.1-0.3-0.3-0.4-0.4c-0.1-0.1-0.1-0.3-0.1-0.5c0-0.3,0.1-0.6,0.3-0.8
			c0.2-0.2,0.4-0.3,0.6-0.3c0.1,0,0.3,0,0.4,0.1s0.3,0.1,0.4,0.2c1.1,0.8,2.1,1.2,3,1.2c1,0,1.8-0.5,2.3-1.4s0.9-2.2,0.9-3.9
			c-0.3,0.6-0.8,1.1-1.4,1.5c-0.6,0.4-1.3,0.5-2.1,0.5c-0.9,0-1.6-0.2-2.3-0.6c-0.7-0.4-1.2-0.9-1.6-1.6s-0.6-1.5-0.6-2.4
			c0-0.9,0.2-1.7,0.6-2.5c0.4-0.7,1-1.3,1.7-1.7c0.7-0.4,1.5-0.6,2.5-0.6C202.1,176.4,203.5,177,204.5,178.2z M202.3,182.9
			c0.5-0.5,0.7-1.1,0.7-1.9c0-0.8-0.2-1.4-0.7-1.9c-0.5-0.5-1.1-0.7-1.8-0.7c-0.7,0-1.3,0.2-1.8,0.7c-0.4,0.5-0.7,1.1-0.7,1.9
			s0.2,1.4,0.7,1.9c0.4,0.5,1,0.7,1.8,0.7C201.2,183.7,201.8,183.4,202.3,182.9z"/>
	</g>
</g>
<g>
	<path class="st12" d="M159.2,205.3h-18.4c-6.1,0-11.1-4.9-11.1-11.1v-18.4c0-6.1,4.9-11.1,11.1-11.1h18.4c6.1,0,11.1,4.9,11.1,11.1
		v18.4C170.3,200.3,165.3,205.3,159.2,205.3z"/>
	<g>
		<path class="st0" d="M149.9,189.8c0,0.7-0.4,1.1-1.2,1.1h-6.9c-0.8,0-1.2-0.4-1.2-1.1c0-0.7,0.4-1,1.2-1h2.1v-9.3l-2,1.2
			c-0.2,0.1-0.4,0.2-0.5,0.2c-0.3,0-0.5-0.1-0.7-0.4c-0.2-0.2-0.3-0.5-0.3-0.8c0-0.4,0.2-0.7,0.5-0.9l3.2-2c0.4-0.2,0.8-0.4,1.2-0.4
			c0.4,0,0.7,0.1,0.9,0.3s0.3,0.5,0.3,1v11h2.1C149.5,188.8,149.9,189.1,149.9,189.8z"/>
		<path class="st0" d="M158.9,182.3c0.7,0.4,1.2,0.9,1.6,1.6c0.4,0.7,0.6,1.5,0.6,2.4c0,0.9-0.2,1.8-0.6,2.5c-0.4,0.7-1,1.3-1.8,1.7
			c-0.8,0.4-1.7,0.6-2.7,0.6c-0.8,0-1.7-0.1-2.5-0.4c-0.8-0.3-1.5-0.7-2.1-1.1c-0.3-0.3-0.5-0.6-0.5-1c0-0.3,0.1-0.6,0.3-0.8
			c0.2-0.2,0.4-0.3,0.6-0.3c0.1,0,0.3,0,0.4,0.1s0.3,0.1,0.4,0.2c0.5,0.4,1.1,0.7,1.6,0.9c0.5,0.2,1.1,0.3,1.6,0.3
			c0.9,0,1.6-0.2,2.1-0.7s0.7-1.1,0.7-1.9c0-0.8-0.2-1.4-0.7-1.9s-1.1-0.7-2-0.7c-0.5,0-1,0.1-1.4,0.2c-0.4,0.1-0.8,0.4-1.3,0.8
			c-0.3,0.2-0.5,0.3-0.8,0.3s-0.5-0.1-0.7-0.2c-0.2-0.2-0.3-0.4-0.3-0.7v-6.3c0-0.4,0.1-0.7,0.3-0.9s0.5-0.3,0.9-0.3h6.8
			c0.8,0,1.2,0.3,1.2,1s-0.4,1-1.2,1H154v3.9c0.7-0.5,1.5-0.7,2.5-0.7C157.4,181.7,158.2,181.9,158.9,182.3z"/>
	</g>
</g>
<g>
	<path class="st0" d="M131.5,163.1h-8.3c-0.9,0-1.7,0.7-1.7,1.7v0c0,0.9,0.7,1.7,1.7,1.7h8.3c0.9,0,1.7-0.7,1.7-1.7v0
		C133.2,163.8,132.4,163.1,131.5,163.1z"/>
	<path class="st0" d="M129,168.9v-8.3c0-0.9-0.7-1.7-1.7-1.7h0c-0.9,0-1.7,0.7-1.7,1.7v8.3c0,0.9,0.7,1.7,1.7,1.7h0
		C128.3,170.6,129,169.8,129,168.9z"/>
</g>
<g>
	<path class="st0" d="M153.6,114.1h-8.3c-0.9,0-1.7,0.7-1.7,1.7v0c0,0.9,0.7,1.7,1.7,1.7h8.3c0.9,0,1.7-0.7,1.7-1.7v0
		C155.2,114.8,154.5,114.1,153.6,114.1z"/>
	<path class="st0" d="M151.1,119.9v-8.3c0-0.9-0.7-1.7-1.7-1.7l0,0c-0.9,0-1.7,0.7-1.7,1.7v8.3c0,0.9,0.7,1.7,1.7,1.7l0,0
		C150.3,121.6,151.1,120.8,151.1,119.9z"/>
</g>
<g>
	<path class="st12" d="M159.2,105.1h-18.4c-6.1,0-11.1-4.9-11.1-11.1V75.7c0-6.1,4.9-11.1,11.1-11.1h18.4c6.1,0,11.1,4.9,11.1,11.1
		v18.4C170.3,100.2,165.3,105.1,159.2,105.1z"/>
	<g>
		<path class="st0" d="M147.7,82.1c0.7,0.4,1.2,0.9,1.6,1.6c0.4,0.7,0.6,1.5,0.6,2.4c0,0.9-0.2,1.7-0.6,2.5c-0.4,0.7-1,1.3-1.7,1.7
			c-0.7,0.4-1.5,0.6-2.5,0.6c-1.8,0-3.2-0.6-4.2-1.8c-1-1.2-1.5-3-1.5-5.3c0-1.6,0.2-2.9,0.7-4.1s1.1-2,2-2.6c0.9-0.6,1.9-0.9,3-0.9
			c0.8,0,1.5,0.1,2.3,0.4c0.8,0.3,1.4,0.7,2,1.1c0.2,0.1,0.3,0.3,0.4,0.4c0.1,0.1,0.1,0.3,0.1,0.5c0,0.3-0.1,0.6-0.3,0.8
			c-0.2,0.2-0.4,0.3-0.6,0.3c-0.1,0-0.3,0-0.4-0.1c-0.1,0-0.3-0.1-0.4-0.2c-1.1-0.8-2.1-1.2-3-1.2c-1,0-1.8,0.5-2.3,1.4
			s-0.9,2.2-0.9,3.9c0.3-0.6,0.8-1.1,1.4-1.5c0.6-0.4,1.3-0.5,2.1-0.5C146.3,81.6,147,81.7,147.7,82.1z M146.7,88.1
			c0.4-0.5,0.7-1.1,0.7-1.9s-0.2-1.4-0.7-1.9c-0.4-0.5-1-0.7-1.8-0.7c-0.8,0-1.4,0.2-1.8,0.7s-0.7,1.1-0.7,1.9
			c0,0.8,0.2,1.4,0.7,1.9c0.5,0.5,1.1,0.7,1.8,0.7C145.6,88.9,146.2,88.6,146.7,88.1z"/>
		<path class="st0" d="M158.9,82.1c0.7,0.4,1.2,0.9,1.6,1.6s0.6,1.5,0.6,2.4c0,0.9-0.2,1.7-0.6,2.5c-0.4,0.7-1,1.3-1.7,1.7
			c-0.7,0.4-1.5,0.6-2.5,0.6c-1.8,0-3.2-0.6-4.2-1.8c-1-1.2-1.5-3-1.5-5.3c0-1.6,0.2-2.9,0.7-4.1s1.1-2,2-2.6c0.9-0.6,1.9-0.9,3-0.9
			c0.8,0,1.5,0.1,2.3,0.4c0.8,0.3,1.4,0.7,2,1.1c0.2,0.1,0.3,0.3,0.4,0.4c0.1,0.1,0.1,0.3,0.1,0.5c0,0.3-0.1,0.6-0.3,0.8
			c-0.2,0.2-0.4,0.3-0.6,0.3c-0.1,0-0.3,0-0.4-0.1c-0.1,0-0.3-0.1-0.4-0.2c-1.1-0.8-2.1-1.2-3-1.2c-1,0-1.8,0.5-2.3,1.4
			s-0.9,2.2-0.9,3.9c0.3-0.6,0.8-1.1,1.4-1.5c0.6-0.4,1.3-0.5,2.1-0.5C157.5,81.6,158.2,81.7,158.9,82.1z M157.9,88.1
			c0.4-0.5,0.7-1.1,0.7-1.9s-0.2-1.4-0.7-1.9s-1-0.7-1.8-0.7c-0.8,0-1.4,0.2-1.8,0.7c-0.5,0.5-0.7,1.1-0.7,1.9
			c0,0.8,0.2,1.4,0.7,1.9c0.5,0.5,1.1,0.7,1.8,0.7C156.8,88.9,157.4,88.6,157.9,88.1z"/>
	</g>
</g>
<g>
	<g>
		<path class="st3" d="M63.4,182.9c-1.2,0-2.1-0.9-2.1-2.1c0-10.9,8.9-19.8,19.8-19.8c1.2,0,2.1,0.9,2.1,2.1s-0.9,2.1-2.1,2.1
			c-8.6,0-15.6,7-15.6,15.6C65.5,181.9,64.6,182.9,63.4,182.9z"/>
	</g>
</g>
<g>
	<g>
		<path class="st4" d="M94.7,132.5c-1.2,0-2.1-0.9-2.1-2.1c0-10.9,8.9-19.8,19.8-19.8c1.2,0,2.1,0.9,2.1,2.1s-0.9,2.1-2.1,2.1
			c-8.6,0-15.6,7-15.6,15.6C96.8,131.6,95.9,132.5,94.7,132.5z"/>
	</g>
</g>
<g>
	<g>
		<path class="st5" d="M114.1,83.5c-1.2,0-2.1-0.9-2.1-2.1c0-10.9,8.9-19.8,19.8-19.8c1.2,0,2.1,0.9,2.1,2.1c0,1.2-0.9,2.1-2.1,2.1
			c-8.6,0-15.6,7-15.6,15.6C116.2,82.6,115.2,83.5,114.1,83.5z"/>
	</g>
</g>
<g>
	<g>
		<path class="st1" d="M35.1,230.1c-1.2,0-2.1-0.9-2.1-2.1c0-10.9,8.9-19.8,19.8-19.8c1.2,0,2.1,0.9,2.1,2.1s-0.9,2.1-2.1,2.1
			c-8.6,0-15.6,7-15.6,15.6C37.3,229.2,36.3,230.1,35.1,230.1z"/>
	</g>
</g>
<g>
	<path class="st6" d="M125.2,151.2L125.2,151.2c-10.2,0-18.5-8.3-18.5-18.5v0c0-10.2,8.3-18.5,18.5-18.5h0
		c10.2,0,18.5,8.3,18.5,18.5v0C143.7,142.9,135.4,151.2,125.2,151.2z"/>
	<g>
		<path class="st0" d="M124.5,134.2c-0.1-0.2-0.2-0.4-0.2-0.7c0-0.7,0.1-1.4,0.4-1.9c0.3-0.5,0.7-1.1,1.2-1.7
			c0.4-0.5,0.7-0.9,0.9-1.2c0.2-0.3,0.3-0.7,0.3-1.1c0-0.4-0.2-0.8-0.5-1.1c-0.3-0.3-0.8-0.4-1.4-0.4c-0.5,0-1,0.1-1.4,0.3
			c-0.4,0.2-1,0.5-1.6,0.9c-0.3,0.2-0.6,0.3-0.8,0.3c-0.2,0-0.4-0.1-0.6-0.3c-0.2-0.2-0.3-0.5-0.3-0.7c0-0.4,0.2-0.7,0.5-1
			c0.6-0.5,1.2-0.9,2-1.1c0.8-0.3,1.6-0.4,2.3-0.4c0.8,0,1.6,0.1,2.2,0.4c0.6,0.3,1.1,0.7,1.5,1.2c0.4,0.5,0.5,1.1,0.5,1.7
			c0,0.7-0.2,1.3-0.5,1.8c-0.3,0.5-0.8,1.1-1.5,1.8c-0.6,0.6-1,1-1.3,1.4s-0.5,0.8-0.5,1.3c0,0.2-0.1,0.4-0.3,0.5
			c-0.1,0.1-0.3,0.2-0.5,0.2C124.9,134.4,124.7,134.3,124.5,134.2z M124.1,138.2c-0.3-0.3-0.4-0.7-0.4-1.1c0-0.4,0.1-0.8,0.4-1.1
			s0.6-0.4,1.1-0.4s0.8,0.1,1.1,0.4s0.4,0.7,0.4,1.1c0,0.4-0.1,0.8-0.4,1.1c-0.3,0.3-0.6,0.4-1.1,0.4
			C124.7,138.7,124.3,138.5,124.1,138.2z"/>
	</g>
</g>
<g>
	<path class="st6" d="M176.8,151.2L176.8,151.2c-10.2,0-18.5-8.3-18.5-18.5v0c0-10.2,8.3-18.5,18.5-18.5h0
		c10.2,0,18.5,8.3,18.5,18.5v0C195.3,142.9,187,151.2,176.8,151.2z"/>
	<g>
		<path class="st0" d="M176.1,134.2c-0.1-0.2-0.2-0.4-0.2-0.7c0-0.7,0.1-1.4,0.4-1.9c0.3-0.5,0.7-1.1,1.2-1.7
			c0.4-0.5,0.7-0.9,0.9-1.2c0.2-0.3,0.3-0.7,0.3-1.1c0-0.4-0.2-0.8-0.5-1.1c-0.3-0.3-0.8-0.4-1.4-0.4c-0.5,0-1,0.1-1.4,0.3
			c-0.4,0.2-1,0.5-1.6,0.9c-0.3,0.2-0.6,0.3-0.8,0.3c-0.2,0-0.4-0.1-0.6-0.3c-0.2-0.2-0.3-0.5-0.3-0.7c0-0.4,0.2-0.7,0.5-1
			c0.6-0.5,1.2-0.9,2-1.1s1.6-0.4,2.3-0.4c0.8,0,1.6,0.1,2.2,0.4c0.6,0.3,1.1,0.7,1.5,1.2c0.4,0.5,0.5,1.1,0.5,1.7
			c0,0.7-0.2,1.3-0.5,1.8c-0.3,0.5-0.8,1.1-1.5,1.8c-0.6,0.6-1,1-1.3,1.4s-0.5,0.8-0.5,1.3c0,0.2-0.1,0.4-0.3,0.5
			c-0.1,0.1-0.3,0.2-0.5,0.2C176.5,134.4,176.3,134.3,176.1,134.2z M175.7,138.2c-0.3-0.3-0.4-0.7-0.4-1.1c0-0.4,0.1-0.8,0.4-1.1
			c0.3-0.3,0.6-0.4,1.1-0.4s0.8,0.1,1.1,0.4s0.4,0.7,0.4,1.1c0,0.4-0.1,0.8-0.4,1.1c-0.3,0.3-0.6,0.4-1.1,0.4
			C176.3,138.7,176,138.5,175.7,138.2z"/>
	</g>
</g>
</svg>
