<?xml version="1.0" encoding="utf-8"?>
<!-- Generator: Adobe Illustrator 22.1.0, SVG Export Plug-In . SVG Version: 6.00 Build 0)  -->
<svg version="1.1" id="Layer_1" xmlns="http://www.w3.org/2000/svg" xmlns:xlink="http://www.w3.org/1999/xlink" x="0px" y="0px"
	 viewBox="0 0 300 300" style="enable-background:new 0 0 300 300;" xml:space="preserve">
<style type="text/css">
	.st0{fill:#00AF6B;}
	.st1{fill:#FFFFFF;}
</style>
<g>
	<path class="st0" d="M125.2,152.7L125.2,152.7c-11,0-20-9-20-20v0c0-11,9-20,20-20h0c11,0,20,9,20,20v0
		C145.2,143.7,136.2,152.7,125.2,152.7z"/>
	<g>
		<path class="st1" d="M123.9,132.4c0.5,0.6,0.7,1.4,0.7,2.2c0,1.2-0.5,2.2-1.4,2.9c-0.9,0.7-2.1,1.1-3.7,1.1
			c-0.9,0-1.7-0.1-2.5-0.4c-0.8-0.3-1.5-0.7-2.1-1.1c-0.3-0.3-0.5-0.6-0.5-1c0-0.3,0.1-0.6,0.3-0.8c0.2-0.2,0.4-0.3,0.6-0.3
			c0.1,0,0.3,0,0.4,0.1c0.1,0,0.3,0.1,0.4,0.2c0.6,0.4,1.1,0.7,1.6,0.9c0.5,0.2,1.1,0.3,1.7,0.3c0.9,0,1.6-0.2,2-0.5
			c0.4-0.4,0.7-0.9,0.7-1.6c0-0.7-0.2-1.3-0.7-1.6c-0.5-0.3-1.2-0.5-2.1-0.5h-1.2c-0.3,0-0.6-0.1-0.7-0.3c-0.2-0.2-0.3-0.5-0.3-0.7
			c0-0.3,0.1-0.5,0.3-0.7c0.2-0.2,0.4-0.3,0.7-0.3h0.8c1.9,0,2.8-0.7,2.8-2.1c0-0.7-0.2-1.2-0.6-1.5c-0.4-0.4-0.9-0.5-1.6-0.5
			c-1,0-2,0.4-3.2,1.2c-0.2,0.1-0.3,0.2-0.4,0.2c-0.1,0-0.2,0.1-0.4,0.1c-0.2,0-0.4-0.1-0.6-0.3c-0.2-0.2-0.3-0.5-0.3-0.8
			c0-0.2,0-0.4,0.1-0.5c0.1-0.1,0.2-0.3,0.4-0.4c0.6-0.5,1.3-0.9,2-1.1c0.8-0.3,1.6-0.4,2.4-0.4c1.4,0,2.5,0.3,3.4,1
			c0.8,0.7,1.3,1.6,1.3,2.8c0,0.8-0.2,1.5-0.6,2.1c-0.4,0.6-1,1-1.7,1.3C122.8,131.4,123.4,131.8,123.9,132.4z"/>
		<path class="st1" d="M136.1,137.5c0,0.7-0.4,1.1-1.2,1.1h-7.7c-0.4,0-0.6-0.1-0.8-0.3c-0.2-0.2-0.3-0.5-0.3-0.8
			c0-0.4,0.2-0.8,0.5-1.1l4.6-5c0.6-0.6,1-1.2,1.3-1.7c0.3-0.5,0.4-1,0.4-1.6c0-0.6-0.2-1.1-0.5-1.5s-0.9-0.5-1.6-0.5
			c-0.6,0-1.1,0.1-1.6,0.3c-0.5,0.2-1,0.5-1.6,0.9c-0.1,0.1-0.3,0.2-0.4,0.2s-0.3,0.1-0.4,0.1c-0.2,0-0.4-0.1-0.6-0.3
			c-0.2-0.2-0.3-0.5-0.3-0.8c0-0.2,0-0.4,0.1-0.5c0.1-0.1,0.2-0.3,0.4-0.4c0.6-0.5,1.3-0.9,2.1-1.1c0.8-0.3,1.6-0.4,2.4-0.4
			c1.4,0,2.5,0.4,3.3,1.1c0.8,0.7,1.2,1.7,1.2,2.8c0,0.8-0.2,1.6-0.5,2.3s-0.9,1.5-1.8,2.4l-3.5,3.7h5.4
			C135.7,136.4,136.1,136.8,136.1,137.5z"/>
	</g>
</g>
</svg>
