<?xml version="1.0" encoding="utf-8"?>
<!-- Generator: Adobe Illustrator 22.1.0, SVG Export Plug-In . SVG Version: 6.00 Build 0)  -->
<svg version="1.1" id="Layer_1" xmlns="http://www.w3.org/2000/svg" xmlns:xlink="http://www.w3.org/1999/xlink" x="0px" y="0px"
	 viewBox="0 0 300 300" style="enable-background:new 0 0 300 300;" xml:space="preserve">
<style type="text/css">
	.st0{fill:#C63838;}
	.st1{fill:#FFFFFF;}
</style>
<g>
	<path class="st0" d="M79,250L79,250c-11,0-20-9-20-20v0c0-11,9-20,20-20h0c11,0,20,9,20,20v0C99,241,90,250,79,250z"/>
	<g>
		<path class="st1" d="M78.8,235.2c0,0.8-0.4,1.2-1.3,1.2h-7.4c-0.9,0-1.3-0.4-1.3-1.2c0-0.7,0.4-1.1,1.3-1.1h2.3v-10l-2.1,1.3
			c-0.2,0.1-0.4,0.2-0.5,0.2c-0.3,0-0.6-0.1-0.8-0.4c-0.2-0.3-0.3-0.6-0.3-0.9c0-0.4,0.2-0.8,0.6-1l3.4-2.1c0.4-0.3,0.9-0.4,1.3-0.4
			c0.4,0,0.7,0.1,1,0.4c0.2,0.2,0.4,0.6,0.4,1v11.9h2.3C78.4,234.1,78.8,234.4,78.8,235.2z"/>
		<path class="st1" d="M90.9,235.2c0,0.8-0.4,1.2-1.3,1.2h-8.4c-0.4,0-0.7-0.1-0.9-0.3c-0.2-0.2-0.3-0.5-0.3-0.8
			c0-0.4,0.2-0.8,0.5-1.2l5-5.4c0.6-0.7,1.1-1.3,1.4-1.9c0.3-0.6,0.4-1.1,0.4-1.7c0-0.7-0.2-1.2-0.6-1.6s-1-0.5-1.7-0.5
			c-0.6,0-1.2,0.1-1.7,0.3c-0.6,0.2-1.1,0.5-1.7,0.9c-0.1,0.1-0.3,0.2-0.4,0.3c-0.1,0.1-0.3,0.1-0.4,0.1c-0.2,0-0.5-0.1-0.6-0.4
			c-0.2-0.2-0.3-0.5-0.3-0.8c0-0.2,0-0.4,0.1-0.6c0.1-0.2,0.2-0.3,0.4-0.5c0.6-0.5,1.4-0.9,2.3-1.2c0.9-0.3,1.7-0.5,2.6-0.5
			c1.5,0,2.7,0.4,3.6,1.1c0.9,0.8,1.4,1.8,1.4,3.1c0,0.9-0.2,1.7-0.6,2.5c-0.4,0.8-1,1.7-1.9,2.6l-3.8,4h5.8
			C90.4,234.1,90.9,234.4,90.9,235.2z"/>
	</g>
</g>
</svg>
