<?xml version="1.0" encoding="utf-8"?>
<!-- Generator: Adobe Illustrator 22.1.0, SVG Export Plug-In . SVG Version: 6.00 Build 0)  -->
<svg version="1.1" id="Layer_1" xmlns="http://www.w3.org/2000/svg" xmlns:xlink="http://www.w3.org/1999/xlink" x="0px" y="0px"
	 viewBox="0 0 300 300" style="enable-background:new 0 0 300 300;" xml:space="preserve">
<style type="text/css">
	.st0{fill:#E15050;}
	.st1{fill:#FFFFFF;}
</style>
<g>
	<path class="st0" d="M219,250.3L219,250.3c-11.2,0-20.3-9.1-20.3-20.3v0c0-11.2,9.1-20.3,20.3-20.3h0c11.2,0,20.3,9.1,20.3,20.3v0
		C239.3,241.2,230.2,250.3,219,250.3z"/>
	<g>
		<path class="st1" d="M222.9,223.2c1,1.2,1.5,3,1.5,5.3c0,1.6-0.2,2.9-0.7,4.1s-1.1,2-2,2.6s-1.9,0.9-3,0.9c-0.8,0-1.5-0.1-2.3-0.4
			c-0.8-0.3-1.4-0.7-2-1.1c-0.2-0.1-0.3-0.3-0.4-0.4c-0.1-0.1-0.1-0.3-0.1-0.5c0-0.3,0.1-0.6,0.3-0.8c0.2-0.2,0.4-0.3,0.6-0.3
			c0.1,0,0.3,0,0.4,0.1c0.1,0,0.3,0.1,0.4,0.2c1.1,0.8,2.1,1.2,3,1.2c1,0,1.8-0.5,2.3-1.4c0.6-0.9,0.9-2.2,0.9-3.9
			c-0.3,0.6-0.8,1.1-1.4,1.5s-1.3,0.5-2.1,0.5c-0.9,0-1.6-0.2-2.3-0.6c-0.7-0.4-1.2-0.9-1.6-1.6c-0.4-0.7-0.6-1.5-0.6-2.4
			c0-0.9,0.2-1.7,0.6-2.5c0.4-0.7,1-1.3,1.7-1.7c0.7-0.4,1.5-0.6,2.5-0.6C220.5,221.4,221.9,222,222.9,223.2z M220.7,227.9
			c0.5-0.5,0.7-1.1,0.7-1.9c0-0.8-0.2-1.4-0.7-1.9c-0.5-0.5-1.1-0.7-1.8-0.7c-0.7,0-1.3,0.2-1.8,0.7c-0.4,0.5-0.7,1.1-0.7,1.9
			s0.2,1.4,0.7,1.9c0.4,0.5,1,0.7,1.8,0.7C219.6,228.7,220.2,228.4,220.7,227.9z"/>
	</g>
</g>
</svg>
