<?xml version="1.0" encoding="utf-8"?>
<!-- Generator: Adobe Illustrator 22.1.0, SVG Export Plug-In . SVG Version: 6.00 Build 0)  -->
<svg version="1.1" id="Layer_1" xmlns="http://www.w3.org/2000/svg" xmlns:xlink="http://www.w3.org/1999/xlink" x="0px" y="0px"
	 viewBox="0 0 336.7 293.7" style="enable-background:new 0 0 336.7 293.7;" xml:space="preserve">
<style type="text/css">
	.st0{fill:#60025E;}
	.st1{opacity:0.2;}
	.st2{fill:#FFFFFF;}
	.st3{fill:none;stroke:#647CA0;stroke-width:5.2793;stroke-linecap:round;stroke-linejoin:round;stroke-miterlimit:10;}
	.st4{fill:none;stroke:#394961;stroke-width:7.0392;stroke-linecap:square;stroke-miterlimit:10;stroke-dasharray:0.8799,13.1984;}
	.st5{fill:#647CA0;}
	.st6{fill:#00CDC8;}
	.st7{fill:#F24044;}
	.st8{fill:#FADC3C;}
	.st9{fill:#A5D73C;}
</style>
<g>
	<g>
		<path class="st0" d="M192.8,173.7h-48.9c-3.4,0-6.1-2.7-6.1-6.1v-41.5c0-3.4,2.7-6.1,6.1-6.1h48.9c3.4,0,6.1,2.7,6.1,6.1v41.5
			C198.9,171,196.2,173.7,192.8,173.7z"/>
		<g class="st1">
			<g>
				<circle cx="145.8" cy="123.9" r="2.1"/>
				<circle cx="160.9" cy="123.9" r="2.1"/>
				<circle cx="175.9" cy="123.9" r="2.1"/>
				<circle cx="191" cy="123.9" r="2.1"/>
			</g>
			<g>
				<circle cx="145.8" cy="169.9" r="2.1"/>
				<circle cx="160.9" cy="169.9" r="2.1"/>
				<circle cx="175.9" cy="169.9" r="2.1"/>
				<circle cx="191" cy="169.9" r="2.1"/>
			</g>
			<rect x="139.5" y="127.1" width="58.7" height="0.6"/>
			<rect x="139.5" y="166" width="58.7" height="0.6"/>
			<path d="M191.3,164.3H146c-2.4,0-4.5-2.1-4.5-4.5v-25.6c0-2.4,2.1-4.5,4.5-4.5h45.3c2.4,0,4.5,2.1,4.5,4.5v25.6
				C195.9,162.3,193.8,164.3,191.3,164.3z"/>
		</g>
	</g>
	<g>
		<path class="st2" d="M168.3,151c0.3,0.3,0.5,0.6,0.5,1.1c0,1-0.6,1.5-1.8,1.5h-1.6v2.4c0,0.6-0.2,1.1-0.5,1.5
			c-0.4,0.3-0.8,0.5-1.4,0.5c-0.6,0-1-0.2-1.4-0.5s-0.5-0.8-0.5-1.5v-2.4h-8c-0.6,0-1-0.2-1.3-0.5s-0.5-0.7-0.5-1.2s0.2-1,0.5-1.4
			l9.4-13.6c0.2-0.3,0.5-0.5,0.8-0.7s0.6-0.2,0.9-0.2c0.5,0,1,0.2,1.4,0.5s0.6,0.8,0.6,1.5v12.5h1.6
			C167.5,150.6,168,150.8,168.3,151z M155.8,150.6h5.7v-8.2L155.8,150.6z"/>
		<path class="st2" d="M171.2,155.4c-1.3-1.9-2-4.6-2-8.2c0-3.6,0.7-6.3,2-8.2s3.3-2.8,5.8-2.8s4.5,0.9,5.8,2.8c1.3,1.9,2,4.6,2,8.2
			s-0.7,6.3-2,8.2s-3.3,2.8-5.8,2.8S172.6,157.3,171.2,155.4z M180.1,153.2c0.6-1.3,0.9-3.3,0.9-6.1s-0.3-4.8-0.9-6.1
			c-0.6-1.3-1.6-1.9-3-1.9s-2.4,0.6-3,1.9c-0.6,1.3-0.9,3.3-0.9,6.1s0.3,4.8,0.9,6.1s1.6,1.9,3,1.9
			C178.5,155.1,179.5,154.5,180.1,153.2z"/>
	</g>
</g>
<g>
	<g>
		<g>
			<g>
				<g>
					<path class="st3" d="M154,178.2V207c0,4.5-3.6,8.2-8.2,8.2h-9.5"/>
					<path class="st4" d="M154,178.2V207c0,4.5-3.6,8.2-8.2,8.2h-9.5"/>
				</g>
			</g>
		</g>
		<rect x="131.6" y="204.5" class="st5" width="4.7" height="20.3"/>
	</g>
	<g>
		<g>
			<g>
				<g>
					<path class="st3" d="M97.7,215.6H48.3"/>
				</g>
			</g>
		</g>
	</g>
	<g>
		<path class="st6" d="M128.7,238.6H90.2c-2.2,0-4.1-1.9-4.1-4.1v-34.6c0-2.2,1.9-4.1,4.1-4.1h38.5c2.2,0,4.1,1.9,4.1,4.1v34.6
			C132.7,236.8,130.9,238.6,128.7,238.6z"/>
		<g class="st1">
			<g>
				<circle cx="92.3" cy="198.9" r="1.6"/>
				<circle cx="103.7" cy="198.9" r="1.6"/>
				<circle cx="115.1" cy="198.9" r="1.6"/>
				<circle cx="126.6" cy="198.9" r="1.6"/>
			</g>
			<g>
				<circle cx="92.3" cy="235.7" r="1.6"/>
				<circle cx="103.7" cy="235.7" r="1.6"/>
				<circle cx="115.1" cy="235.7" r="1.6"/>
				<circle cx="126.6" cy="235.7" r="1.6"/>
			</g>
			<rect x="87.4" y="201.4" width="44.7" height="0.5"/>
			<rect x="87.4" y="232.7" width="44.7" height="0.5"/>
			<path d="M126.9,231.5H92.5c-1.9,0-3.4-1.6-3.4-3.4v-21.3c0-1.9,1.6-3.4,3.4-3.4H127c1.9,0,3.4,1.6,3.4,3.4v21.3
				C130.4,229.9,128.8,231.5,126.9,231.5z"/>
		</g>
	</g>
	<g>
		<path class="st2" d="M108.9,224.6c0,0.8-0.5,1.2-1.4,1.2h-7.9c-0.9,0-1.4-0.4-1.4-1.2s0.5-1.2,1.4-1.2h2.4v-10.6l-2.2,1.4
			c-0.2,0.1-0.4,0.2-0.6,0.2c-0.3,0-0.6-0.1-0.8-0.4s-0.4-0.6-0.4-1s0.2-0.8,0.6-1l3.6-2.2c0.5-0.3,0.9-0.4,1.3-0.4s0.8,0.1,1,0.4
			c0.3,0.3,0.4,0.6,0.4,1.1v12.6h2.4C108.4,223.4,108.9,223.8,108.9,224.6z"/>
		<path class="st2" d="M122.1,220.6c0.2,0.2,0.3,0.5,0.3,0.9c0,0.8-0.5,1.2-1.4,1.2h-1.2v1.8c0,0.5-0.1,0.9-0.4,1.1
			c-0.3,0.3-0.6,0.4-1.1,0.4s-0.8-0.1-1.1-0.4s-0.4-0.6-0.4-1.1v-1.8h-6.1c-0.4,0-0.7-0.1-1-0.4c-0.2-0.2-0.3-0.5-0.3-0.9
			s0.1-0.7,0.4-1.1L117,210c0.2-0.2,0.3-0.4,0.6-0.5s0.5-0.2,0.7-0.2c0.4,0,0.8,0.1,1,0.4s0.4,0.6,0.4,1.1v9.5h1.2
			C121.5,220.3,121.8,220.4,122.1,220.6z M112.6,220.3h4.3V214L112.6,220.3z"/>
	</g>
	<rect x="148.6" y="173.7" class="st5" width="10.7" height="4.7"/>
	<g>
		<rect x="28.8" y="201.3" class="st5" width="4.7" height="17.8"/>
	</g>
	<g>
		<path class="st5" d="M51.2,238.6H12.7c-2.2,0-4.1-1.9-4.1-4.1v-34.6c0-2.2,1.9-4.1,4.1-4.1h38.5c2.2,0,4.1,1.9,4.1,4.1v34.6
			C55.3,236.8,53.4,238.6,51.2,238.6z"/>
		<g class="st1">
			<g>
				<circle cx="14.7" cy="198.9" r="1.6"/>
				<circle cx="26.2" cy="198.9" r="1.6"/>
				<circle cx="37.7" cy="198.9" r="1.6"/>
				<circle cx="49.1" cy="198.9" r="1.6"/>
			</g>
			<g>
				<circle cx="14.7" cy="235.7" r="1.6"/>
				<circle cx="26.2" cy="235.7" r="1.6"/>
				<circle cx="37.7" cy="235.7" r="1.6"/>
				<circle cx="49.1" cy="235.7" r="1.6"/>
			</g>
			<rect x="9.9" y="201.4" width="44.7" height="0.5"/>
			<rect x="9.9" y="232.7" width="44.7" height="0.5"/>
			<path d="M49.4,231.5H14.9c-1.9,0-3.4-1.6-3.4-3.4v-21.3c0-1.9,1.6-3.4,3.4-3.4h34.5c1.9,0,3.4,1.6,3.4,3.4v21.3
				C52.8,229.9,51.3,231.5,49.4,231.5z"/>
		</g>
	</g>
	<g>
		<g>
			<path class="st0" d="M71.4,226.9c-6.4,0-11.7-5.2-11.7-11.7c0-6.4,5.2-11.7,11.7-11.7s11.7,5.2,11.7,11.7
				C83.1,221.6,77.8,226.9,71.4,226.9z"/>
			<path class="st2" d="M71.4,204c6.2,0,11.2,5,11.2,11.2s-5,11.2-11.2,11.2s-11.2-5-11.2-11.2S65.2,204,71.4,204 M71.4,203.1
				c-6.7,0-12.1,5.4-12.1,12.1s5.4,12.1,12.1,12.1s12.1-5.4,12.1-12.1S78.1,203.1,71.4,203.1L71.4,203.1z"/>
		</g>
		<path class="st2" d="M74.7,213.7H68c-0.7,0-1.3,0.6-1.3,1.3l0,0c0,0.7,0.6,1.3,1.3,1.3h6.7c0.7,0,1.3-0.6,1.3-1.3l0,0
			C76,214.3,75.4,213.7,74.7,213.7z"/>
	</g>
</g>
<g>
	<g>
		<g>
			<g>
				<g>
					<path class="st3" d="M183.4,178.2V207c0,4.5,3.6,8.2,8.2,8.2h9.5"/>
					<path class="st4" d="M183.4,178.2V207c0,4.5,3.6,8.2,8.2,8.2h9.5"/>
				</g>
			</g>
		</g>
		<rect x="201.1" y="204.5" class="st5" width="4.7" height="20.3"/>
	</g>
	<g>
		<g>
			<g>
				<g>
					<path class="st3" d="M239.7,215.6h49.5"/>
				</g>
			</g>
		</g>
	</g>
	<g>
		<path class="st7" d="M208.7,238.6h38.5c2.2,0,4.1-1.9,4.1-4.1v-34.6c0-2.2-1.9-4.1-4.1-4.1h-38.5c-2.2,0-4.1,1.9-4.1,4.1v34.6
			C204.7,236.8,206.5,238.6,208.7,238.6z"/>
		<g class="st1">
			<g>
				<circle cx="245.1" cy="198.9" r="1.6"/>
				<circle cx="233.6" cy="198.9" r="1.6"/>
				<circle cx="222.3" cy="198.9" r="1.6"/>
				<circle cx="210.8" cy="198.9" r="1.6"/>
			</g>
			<g>
				<circle cx="245.1" cy="235.7" r="1.6"/>
				<circle cx="233.6" cy="235.7" r="1.6"/>
				<circle cx="222.3" cy="235.7" r="1.6"/>
				<circle cx="210.8" cy="235.7" r="1.6"/>
			</g>
			<rect x="205.2" y="201.4" width="44.7" height="0.5"/>
			<rect x="205.2" y="232.7" width="44.7" height="0.5"/>
			<path d="M210.5,231.5H245c1.9,0,3.4-1.6,3.4-3.4v-21.3c0-1.9-1.6-3.4-3.4-3.4h-34.5c-1.9,0-3.4,1.6-3.4,3.4v21.3
				C207,229.9,208.6,231.5,210.5,231.5z"/>
		</g>
	</g>
	<rect x="178" y="173.7" class="st5" width="10.7" height="4.7"/>
	<g>
		<rect x="303.9" y="201.3" class="st5" width="4.7" height="17.8"/>
	</g>
	<g>
		<path class="st5" d="M286.2,238.6h38.5c2.2,0,4.1-1.9,4.1-4.1v-34.6c0-2.2-1.9-4.1-4.1-4.1h-38.5c-2.2,0-4.1,1.9-4.1,4.1v34.6
			C282.1,236.8,284,238.6,286.2,238.6z"/>
		<g class="st1">
			<g>
				<circle cx="322.7" cy="198.9" r="1.6"/>
				<circle cx="311.2" cy="198.9" r="1.6"/>
				<circle cx="299.7" cy="198.9" r="1.6"/>
				<circle cx="288.3" cy="198.9" r="1.6"/>
			</g>
			<g>
				<circle cx="322.7" cy="235.7" r="1.6"/>
				<circle cx="311.2" cy="235.7" r="1.6"/>
				<circle cx="299.7" cy="235.7" r="1.6"/>
				<circle cx="288.3" cy="235.7" r="1.6"/>
			</g>
			<rect x="282.8" y="201.4" width="44.7" height="0.5"/>
			<rect x="282.8" y="232.7" width="44.7" height="0.5"/>
			<path d="M288,231.5h34.5c1.9,0,3.4-1.6,3.4-3.4v-21.3c0-1.9-1.6-3.4-3.4-3.4H288c-1.9,0-3.4,1.6-3.4,3.4v21.3
				C284.6,229.9,286,231.5,288,231.5z"/>
		</g>
	</g>
	<g>
		<g>
			<path class="st0" d="M266,226.9c6.4,0,11.7-5.2,11.7-11.7c0-6.4-5.2-11.7-11.7-11.7s-11.7,5.2-11.7,11.7
				C254.3,221.6,259.6,226.9,266,226.9z"/>
			<path class="st2" d="M266,204c6.2,0,11.2,5,11.2,11.2s-5,11.2-11.2,11.2s-11.2-5-11.2-11.2S259.8,204,266,204 M266,203.1
				c-6.7,0-12.1,5.4-12.1,12.1s5.4,12.1,12.1,12.1s12.1-5.4,12.1-12.1S272.7,203.1,266,203.1L266,203.1z"/>
		</g>
		<path class="st2" d="M262.7,213.7h6.7c0.7,0,1.3,0.6,1.3,1.3l0,0c0,0.7-0.6,1.3-1.3,1.3h-6.7c-0.7,0-1.3-0.6-1.3-1.3l0,0
			C261.4,214.3,262,213.7,262.7,213.7z"/>
	</g>
</g>
<g>
	<path class="st2" d="M303.7,220.8c-0.2-0.2-0.2-0.4-0.2-0.8c0-0.9,0.2-1.6,0.5-2.2s0.8-1.2,1.4-1.9c0.5-0.6,0.8-1,1-1.4
		s0.3-0.8,0.3-1.3s-0.2-0.9-0.6-1.2s-0.9-0.5-1.5-0.5s-1.1,0.1-1.6,0.4c-0.5,0.2-1.1,0.6-1.8,1c-0.4,0.2-0.7,0.3-1,0.3
		s-0.5-0.1-0.7-0.4c-0.2-0.2-0.3-0.5-0.3-0.9c0-0.5,0.2-0.8,0.6-1.1c0.7-0.6,1.4-1,2.3-1.3s1.8-0.5,2.7-0.5c0.9,0,1.8,0.2,2.5,0.5
		s1.3,0.8,1.7,1.4c0.4,0.6,0.6,1.2,0.6,2s-0.2,1.5-0.6,2.1s-1,1.3-1.7,2c-0.6,0.7-1.1,1.2-1.4,1.6c-0.3,0.4-0.5,0.9-0.6,1.5
		c0,0.2-0.2,0.4-0.3,0.6c-0.2,0.1-0.4,0.2-0.6,0.2C304.1,221.1,303.8,221,303.7,220.8z M303.1,225.5c-0.3-0.3-0.5-0.7-0.5-1.2
		s0.2-0.9,0.5-1.2s0.7-0.5,1.2-0.5s0.9,0.2,1.2,0.5c0.3,0.3,0.5,0.7,0.5,1.2s-0.2,0.9-0.5,1.2s-0.7,0.5-1.2,0.5
		C303.9,226,303.5,225.8,303.1,225.5z"/>
</g>
<g>
	<path class="st2" d="M226.7,225.6c0,0.8-0.5,1.2-1.4,1.2h-7.9c-0.9,0-1.4-0.4-1.4-1.2s0.5-1.2,1.4-1.2h2.4v-10.6l-2.2,1.4
		c-0.2,0.1-0.4,0.2-0.6,0.2c-0.3,0-0.6-0.1-0.8-0.4c-0.2-0.3-0.3-0.6-0.3-0.9c0-0.4,0.2-0.8,0.6-1l3.6-2.2c0.5-0.3,0.9-0.4,1.3-0.4
		c0.4,0,0.8,0.1,1,0.4s0.4,0.6,0.4,1.1v12.6h2.4C226.2,224.4,226.7,224.8,226.7,225.6z"/>
	<path class="st2" d="M239.7,225.6c0,0.8-0.5,1.2-1.4,1.2h-7.9c-0.9,0-1.4-0.4-1.4-1.2s0.5-1.2,1.4-1.2h2.4v-10.6l-2.2,1.4
		c-0.2,0.1-0.4,0.2-0.6,0.2c-0.3,0-0.6-0.1-0.8-0.4s-0.3-0.6-0.3-0.9c0-0.4,0.2-0.8,0.6-1l3.6-2.2c0.5-0.3,0.9-0.4,1.3-0.4
		c0.4,0,0.8,0.1,1,0.4c0.3,0.3,0.4,0.6,0.4,1.1v12.6h2.4C239.2,224.4,239.7,224.8,239.7,225.6z"/>
</g>
<g>
	<g>
		<g>
			<g>
				<g>
					<path class="st3" d="M154,115.1V86.3c0-4.5-3.6-8.2-8.2-8.2h-9.5"/>
					<path class="st4" d="M154,115.1V86.3c0-4.5-3.6-8.2-8.2-8.2h-9.5"/>
				</g>
			</g>
		</g>
		<rect x="131.6" y="68.5" class="st5" width="4.7" height="20.3"/>
	</g>
	<g>
		<g>
			<g>
				<g>
					<path class="st3" d="M97.7,77.7H48.3"/>
				</g>
			</g>
		</g>
	</g>
	<g>
		<path class="st8" d="M128.7,54.7H90.2c-2.2,0-4.1,1.9-4.1,4.1v34.6c0,2.2,1.9,4.1,4.1,4.1h38.5c2.2,0,4.1-1.9,4.1-4.1V58.8
			C132.7,56.5,130.9,54.7,128.7,54.7z"/>
		<g class="st1">
			<g>
				<circle cx="92.3" cy="94.4" r="1.6"/>
				<circle cx="103.7" cy="94.4" r="1.6"/>
				<circle cx="115.1" cy="94.4" r="1.6"/>
				<circle cx="126.6" cy="94.4" r="1.6"/>
			</g>
			<g>
				<circle cx="92.3" cy="57.6" r="1.6"/>
				<circle cx="103.7" cy="57.6" r="1.6"/>
				<circle cx="115.1" cy="57.6" r="1.6"/>
				<circle cx="126.6" cy="57.6" r="1.6"/>
			</g>
			<rect x="87.4" y="91.4" width="44.7" height="0.5"/>
			<rect x="87.4" y="60.1" width="44.7" height="0.5"/>
			<path d="M126.9,61.8H92.5c-1.9,0-3.4,1.6-3.4,3.4v21.3c0,1.9,1.6,3.4,3.4,3.4H127c1.9,0,3.4-1.6,3.4-3.4V65.2
				C130.4,63.4,128.8,61.8,126.9,61.8z"/>
		</g>
	</g>
	<g>
		<path class="st2" d="M109.8,82.2c0,0.8-0.5,1.2-1.4,1.2h-8.8c-0.4,0-0.7-0.1-1-0.4c-0.2-0.2-0.3-0.5-0.3-0.9
			c0-0.5,0.2-0.9,0.5-1.3l5.3-5.7c0.7-0.7,1.1-1.4,1.4-2s0.5-1.2,0.5-1.8c0-0.7-0.2-1.3-0.6-1.7s-1-0.6-1.8-0.6
			c-0.6,0-1.3,0.1-1.9,0.4c-0.6,0.2-1.2,0.6-1.8,1c-0.2,0.1-0.3,0.2-0.5,0.3c-0.2,0.1-0.3,0.1-0.5,0.1c-0.3,0-0.5-0.1-0.7-0.4
			C98.1,70.3,98,70,98,69.7c0-0.2,0-0.4,0.1-0.6s0.2-0.3,0.4-0.5c0.7-0.5,1.5-1,2.4-1.3s1.8-0.5,2.7-0.5c1.6,0,2.9,0.4,3.8,1.2
			c1,0.8,1.4,1.9,1.4,3.3c0,0.9-0.2,1.8-0.6,2.7c-0.4,0.8-1.1,1.8-2,2.8l-4,4.3h6.1C109.3,81,109.8,81.4,109.8,82.2z"/>
		<path class="st2" d="M112.3,81.5c-1-1.4-1.5-3.5-1.5-6.3c0-2.7,0.5-4.8,1.5-6.3c1-1.4,2.5-2.2,4.4-2.2s3.4,0.7,4.4,2.2
			c1,1.4,1.5,3.5,1.5,6.3c0,2.7-0.5,4.8-1.5,6.3s-2.5,2.2-4.4,2.2S113.4,82.9,112.3,81.5z M119.1,79.9c0.5-1,0.7-2.5,0.7-4.6
			s-0.2-3.7-0.7-4.6c-0.5-1-1.2-1.4-2.3-1.4c-1.1,0-1.8,0.5-2.3,1.4c-0.5,1-0.7,2.5-0.7,4.6s0.2,3.7,0.7,4.6c0.5,1,1.2,1.5,2.3,1.5
			C117.8,81.3,118.6,80.8,119.1,79.9z"/>
	</g>
	<rect x="148.6" y="114.9" class="st5" width="10.7" height="4.7"/>
	<g>
		<rect x="28.8" y="74.2" class="st5" width="4.7" height="17.8"/>
	</g>
	<g>
		<path class="st5" d="M51.2,54.7H12.7c-2.2,0-4.1,1.9-4.1,4.1v34.6c0,2.2,1.9,4.1,4.1,4.1h38.5c2.2,0,4.1-1.9,4.1-4.1V58.8
			C55.3,56.5,53.4,54.7,51.2,54.7z"/>
		<g class="st1">
			<g>
				<circle cx="14.7" cy="94.4" r="1.6"/>
				<circle cx="26.2" cy="94.4" r="1.6"/>
				<circle cx="37.7" cy="94.4" r="1.6"/>
				<circle cx="49.1" cy="94.4" r="1.6"/>
			</g>
			<g>
				<circle cx="14.7" cy="57.6" r="1.6"/>
				<circle cx="26.2" cy="57.6" r="1.6"/>
				<circle cx="37.7" cy="57.6" r="1.6"/>
				<circle cx="49.1" cy="57.6" r="1.6"/>
			</g>
			<rect x="9.9" y="91.4" width="44.7" height="0.5"/>
			<rect x="9.9" y="60.1" width="44.7" height="0.5"/>
			<path d="M49.4,61.8H14.9c-1.9,0-3.4,1.6-3.4,3.4v21.3c0,1.9,1.6,3.4,3.4,3.4h34.5c1.9,0,3.4-1.6,3.4-3.4V65.2
				C52.8,63.4,51.3,61.8,49.4,61.8z"/>
		</g>
	</g>
	<g>
		<path class="st2" d="M30.7,79.4c-0.2-0.2-0.2-0.4-0.2-0.8c0-0.9,0.2-1.6,0.5-2.2s0.8-1.2,1.4-1.9c0.5-0.6,0.8-1,1-1.4
			s0.3-0.8,0.3-1.3s-0.2-0.9-0.6-1.2s-0.9-0.5-1.5-0.5c-0.6,0-1.1,0.1-1.6,0.4c-0.5,0.2-1.1,0.6-1.8,1c-0.4,0.2-0.7,0.3-1,0.3
			s-0.5-0.1-0.7-0.4c-0.2-0.2-0.3-0.5-0.3-0.9c0-0.5,0.2-0.8,0.6-1.1c0.7-0.6,1.4-1,2.3-1.3s1.8-0.5,2.7-0.5s1.8,0.2,2.5,0.5
			s1.3,0.8,1.7,1.4s0.6,1.2,0.6,2S36.4,73,36,73.6c-0.4,0.6-1,1.3-1.7,2c-0.6,0.7-1.1,1.2-1.4,1.6c-0.3,0.4-0.5,0.9-0.6,1.5
			c0,0.2-0.2,0.4-0.3,0.6c-0.2,0.1-0.4,0.2-0.6,0.2C31.1,79.7,30.8,79.6,30.7,79.4z M30.1,84.1c-0.3-0.3-0.5-0.7-0.5-1.2
			s0.2-0.9,0.5-1.2c0.3-0.3,0.7-0.5,1.2-0.5s0.9,0.2,1.2,0.5s0.5,0.7,0.5,1.2s-0.2,0.9-0.5,1.2c-0.3,0.3-0.7,0.5-1.2,0.5
			C30.9,84.6,30.5,84.4,30.1,84.1z"/>
	</g>
	<g>
		<g>
			<path class="st0" d="M71.4,66.4c-6.4,0-11.7,5.2-11.7,11.7c0,6.4,5.2,11.7,11.7,11.7s11.7-5.2,11.7-11.7
				C83.1,71.7,77.8,66.4,71.4,66.4z"/>
			<path class="st2" d="M71.4,89.3c-6.2,0-11.2-5-11.2-11.2s5-11.2,11.2-11.2s11.2,5,11.2,11.2S77.6,89.3,71.4,89.3 M71.4,90.2
				c6.7,0,12.1-5.4,12.1-12.1S78.1,66,71.4,66s-12.1,5.4-12.1,12.1C59.3,84.8,64.7,90.2,71.4,90.2L71.4,90.2z"/>
		</g>
		<path class="st2" d="M74.7,79.6H68c-0.7,0-1.3-0.6-1.3-1.3l0,0c0-0.7,0.6-1.3,1.3-1.3h6.7c0.7,0,1.3,0.6,1.3,1.3l0,0
			C76,79,75.4,79.6,74.7,79.6z"/>
	</g>
</g>
<g>
	<g>
		<g>
			<g>
				<g>
					<path class="st3" d="M183.4,115.1V86.3c0-4.5,3.6-8.2,8.2-8.2h9.5"/>
					<path class="st4" d="M183.4,115.1V86.3c0-4.5,3.6-8.2,8.2-8.2h9.5"/>
				</g>
			</g>
		</g>
		<rect x="201.1" y="68.5" class="st5" width="4.7" height="20.3"/>
	</g>
	<g>
		<g>
			<g>
				<g>
					<path class="st3" d="M239.7,77.7h49.5"/>
				</g>
			</g>
		</g>
	</g>
	<g>
		<path class="st9" d="M208.7,54.7h38.5c2.2,0,4.1,1.9,4.1,4.1v34.6c0,2.2-1.9,4.1-4.1,4.1h-38.5c-2.2,0-4.1-1.9-4.1-4.1V58.8
			C204.7,56.5,206.5,54.7,208.7,54.7z"/>
		<g class="st1">
			<g>
				<circle cx="245.1" cy="94.4" r="1.6"/>
				<circle cx="233.6" cy="94.4" r="1.6"/>
				<circle cx="222.3" cy="94.4" r="1.6"/>
				<circle cx="210.8" cy="94.4" r="1.6"/>
			</g>
			<g>
				<circle cx="245.1" cy="57.6" r="1.6"/>
				<circle cx="233.6" cy="57.6" r="1.6"/>
				<circle cx="222.3" cy="57.6" r="1.6"/>
				<circle cx="210.8" cy="57.6" r="1.6"/>
			</g>
			<rect x="205.2" y="91.4" width="44.7" height="0.5"/>
			<rect x="205.2" y="60.1" width="44.7" height="0.5"/>
			<path d="M210.5,61.8H245c1.9,0,3.4,1.6,3.4,3.4v21.3c0,1.9-1.6,3.4-3.4,3.4h-34.5c-1.9,0-3.4-1.6-3.4-3.4V65.2
				C207,63.4,208.6,61.8,210.5,61.8z"/>
		</g>
	</g>
	<rect x="178" y="114.9" class="st5" width="10.7" height="4.7"/>
	<g>
		<rect x="303.9" y="74.2" class="st5" width="4.7" height="17.8"/>
	</g>
	<g>
		<path class="st5" d="M286.2,54.7h38.5c2.2,0,4.1,1.9,4.1,4.1v34.6c0,2.2-1.9,4.1-4.1,4.1h-38.5c-2.2,0-4.1-1.9-4.1-4.1V58.8
			C282.1,56.5,284,54.7,286.2,54.7z"/>
		<g class="st1">
			<g>
				<circle cx="322.7" cy="94.4" r="1.6"/>
				<circle cx="311.2" cy="94.4" r="1.6"/>
				<circle cx="299.7" cy="94.4" r="1.6"/>
				<circle cx="288.3" cy="94.4" r="1.6"/>
			</g>
			<g>
				<circle cx="322.7" cy="57.6" r="1.6"/>
				<circle cx="311.2" cy="57.6" r="1.6"/>
				<circle cx="299.7" cy="57.6" r="1.6"/>
				<circle cx="288.3" cy="57.6" r="1.6"/>
			</g>
			<rect x="282.8" y="91.4" width="44.7" height="0.5"/>
			<rect x="282.8" y="60.1" width="44.7" height="0.5"/>
			<path d="M288,61.8h34.5c1.9,0,3.4,1.6,3.4,3.4v21.3c0,1.9-1.6,3.4-3.4,3.4H288c-1.9,0-3.4-1.6-3.4-3.4V65.2
				C284.6,63.4,286,61.8,288,61.8z"/>
		</g>
	</g>
	<g>
		<g>
			<path class="st0" d="M266,66.4c6.4,0,11.7,5.2,11.7,11.7c0,6.4-5.2,11.7-11.7,11.7s-11.7-5.2-11.7-11.7
				C254.3,71.7,259.6,66.4,266,66.4z"/>
			<path class="st2" d="M266,89.3c-6.2,0-11.2-5-11.2-11.2s5-11.2,11.2-11.2s11.2,5,11.2,11.2S272.2,89.3,266,89.3 M266,90.2
				c6.7,0,12.1-5.4,12.1-12.1S272.7,66,266,66s-12.1,5.4-12.1,12.1S259.3,90.2,266,90.2L266,90.2z"/>
		</g>
		<path class="st2" d="M262.7,79.6h6.7c0.7,0,1.3-0.6,1.3-1.3l0,0c0-0.7-0.6-1.3-1.3-1.3h-6.7c-0.7,0-1.3,0.6-1.3,1.3l0,0
			C261.4,79,262,79.6,262.7,79.6z"/>
	</g>
</g>
<g>
	<path class="st2" d="M303.7,80.4c-0.2-0.2-0.2-0.4-0.2-0.8c0-0.9,0.2-1.6,0.5-2.2s0.8-1.2,1.4-1.9c0.5-0.6,0.8-1,1-1.4
		s0.3-0.8,0.3-1.3s-0.2-0.9-0.6-1.2c-0.4-0.3-0.9-0.5-1.5-0.5s-1.1,0.1-1.6,0.4c-0.5,0.2-1.1,0.6-1.8,1c-0.4,0.2-0.7,0.3-1,0.3
		s-0.5-0.1-0.7-0.4c-0.2-0.2-0.3-0.5-0.3-0.9c0-0.5,0.2-0.8,0.6-1.1c0.7-0.6,1.4-1,2.3-1.3s1.8-0.5,2.7-0.5c0.9,0,1.8,0.2,2.5,0.5
		s1.3,0.8,1.7,1.4c0.4,0.6,0.6,1.2,0.6,2s-0.2,1.5-0.6,2.1s-1,1.3-1.7,2c-0.6,0.7-1.1,1.2-1.4,1.6s-0.5,0.9-0.6,1.5
		c0,0.2-0.2,0.4-0.3,0.6c-0.2,0.1-0.4,0.2-0.6,0.2C304.1,80.7,303.8,80.6,303.7,80.4z M303.1,85.1c-0.3-0.3-0.5-0.7-0.5-1.2
		s0.2-0.9,0.5-1.2c0.3-0.3,0.7-0.5,1.2-0.5s0.9,0.2,1.2,0.5c0.3,0.3,0.5,0.7,0.5,1.2s-0.2,0.9-0.5,1.2c-0.3,0.3-0.7,0.5-1.2,0.5
		C303.9,85.6,303.5,85.4,303.1,85.1z"/>
</g>
<g>
	<path class="st2" d="M226.7,83.2c0,0.8-0.5,1.2-1.4,1.2h-7.9c-0.9,0-1.4-0.4-1.4-1.2c0-0.8,0.5-1.2,1.4-1.2h2.4V71.4l-2.2,1.4
		c-0.2,0.1-0.4,0.2-0.6,0.2c-0.3,0-0.6-0.1-0.8-0.4s-0.3-0.6-0.3-0.9c0-0.4,0.2-0.8,0.6-1l3.6-2.2c0.5-0.3,0.9-0.4,1.3-0.4
		c0.4,0,0.8,0.1,1,0.4s0.4,0.6,0.4,1.1V82h2.4C226.2,82,226.7,82.4,226.7,83.2z"/>
	<path class="st2" d="M239.3,68.4c0.2,0.2,0.3,0.5,0.3,0.9s-0.1,0.7-0.3,1.1l-7.4,13.5c-0.3,0.5-0.7,0.8-1.3,0.8
		c-0.4,0-0.7-0.1-1-0.4s-0.4-0.6-0.4-0.9s0.1-0.5,0.2-0.8l6.7-12.1h-7c-0.9,0-1.4-0.4-1.4-1.2c0-0.8,0.5-1.2,1.4-1.2h9.3
		C238.7,68,239,68.1,239.3,68.4z"/>
</g>
<g>
	<path class="st2" d="M30.7,221.8c-0.2-0.2-0.2-0.4-0.2-0.8c0-0.9,0.2-1.6,0.5-2.2s0.8-1.2,1.4-1.9c0.5-0.6,0.8-1,1-1.4
		s0.3-0.8,0.3-1.3s-0.2-0.9-0.6-1.2s-0.9-0.5-1.5-0.5c-0.6,0-1.1,0.1-1.6,0.4c-0.5,0.2-1.1,0.6-1.8,1c-0.4,0.2-0.7,0.3-1,0.3
		s-0.5-0.1-0.7-0.4c-0.2-0.2-0.3-0.5-0.3-0.9c0-0.5,0.2-0.8,0.6-1.1c0.7-0.6,1.4-1,2.3-1.3s1.8-0.5,2.7-0.5s1.8,0.2,2.5,0.5
		s1.3,0.8,1.7,1.4c0.4,0.6,0.6,1.2,0.6,2s-0.2,1.5-0.6,2.1c-0.4,0.6-1,1.3-1.7,2c-0.6,0.7-1.1,1.2-1.4,1.6c-0.3,0.4-0.5,0.9-0.6,1.5
		c0,0.2-0.2,0.4-0.3,0.6c-0.2,0.1-0.4,0.2-0.6,0.2C31.1,222.1,30.8,222,30.7,221.8z M30.1,226.5c-0.3-0.3-0.5-0.7-0.5-1.2
		s0.2-0.9,0.5-1.2s0.7-0.5,1.2-0.5s0.9,0.2,1.2,0.5s0.5,0.7,0.5,1.2s-0.2,0.9-0.5,1.2s-0.7,0.5-1.2,0.5
		C30.9,227,30.5,226.8,30.1,226.5z"/>
</g>
</svg>
