<?xml version="1.0" encoding="utf-8"?>
<!-- Generator: Adobe Illustrator 22.1.0, SVG Export Plug-In . SVG Version: 6.00 Build 0)  -->
<svg version="1.1" id="Layer_1" xmlns="http://www.w3.org/2000/svg" xmlns:xlink="http://www.w3.org/1999/xlink" x="0px" y="0px"
	 viewBox="0 0 336.7 293.7" style="enable-background:new 0 0 336.7 293.7;" xml:space="preserve">
<style type="text/css">
	.st0{fill:#647CA0;}
	.st1{fill:#FADC3C;}
	.st2{opacity:0.2;}
	.st3{enable-background:new    ;}
	.st4{fill:#FFFFFF;}
</style>
<g>
	<g>
		<rect x="28.8" y="74.2" class="st0" width="4.7" height="17.8"/>
	</g>
	<g>
		<path class="st1" d="M51.2,54.7H12.7c-2.2,0-4.1,1.9-4.1,4.1v34.6c0,2.2,1.9,4.1,4.1,4.1h38.5c2.2,0,4.1-1.9,4.1-4.1V58.8
			C55.3,56.5,53.4,54.7,51.2,54.7z"/>
		<g class="st2">
			<g>
				<circle cx="14.7" cy="94.4" r="1.6"/>
				<circle cx="26.2" cy="94.4" r="1.6"/>
				<circle cx="37.7" cy="94.4" r="1.6"/>
				<circle cx="49.1" cy="94.4" r="1.6"/>
			</g>
			<g>
				<circle cx="14.7" cy="57.6" r="1.6"/>
				<circle cx="26.2" cy="57.6" r="1.6"/>
				<circle cx="37.7" cy="57.6" r="1.6"/>
				<circle cx="49.1" cy="57.6" r="1.6"/>
			</g>
			<rect x="9.9" y="91.4" width="44.7" height="0.5"/>
			<rect x="9.9" y="60.1" width="44.7" height="0.5"/>
			<path d="M49.4,61.8H14.9c-1.9,0-3.4,1.6-3.4,3.4v21.3c0,1.9,1.6,3.4,3.4,3.4h34.5c1.9,0,3.4-1.6,3.4-3.4V65.2
				C52.8,63.4,51.3,61.8,49.4,61.8z"/>
		</g>
	</g>
	<g class="st3">
		<path class="st4" d="M31.2,83.2c0,0.8-0.5,1.2-1.4,1.2H21c-0.4,0-0.7-0.1-1-0.4c-0.2-0.2-0.3-0.5-0.3-0.9c0-0.5,0.2-0.9,0.5-1.3
			l5.3-5.7c0.7-0.7,1.1-1.4,1.4-2s0.5-1.2,0.5-1.8c0-0.7-0.2-1.3-0.6-1.7s-1-0.6-1.8-0.6c-0.6,0-1.3,0.1-1.9,0.4
			c-0.6,0.2-1.2,0.6-1.8,1c-0.2,0.1-0.3,0.2-0.5,0.3c-0.2,0.1-0.3,0.1-0.5,0.1c-0.3,0-0.5-0.1-0.7-0.4c-0.2-0.2-0.3-0.5-0.3-0.9
			c0-0.2,0-0.4,0.1-0.6s0.2-0.3,0.4-0.5c0.7-0.5,1.5-1,2.4-1.3c0.9-0.3,1.8-0.5,2.7-0.5c1.6,0,2.9,0.4,3.8,1.2
			c1,0.8,1.4,1.9,1.4,3.3c0,0.9-0.2,1.8-0.6,2.7c-0.4,0.8-1.1,1.8-2,2.8l-4,4.3h6.1C30.7,82,31.2,82.4,31.2,83.2z"/>
		<path class="st4" d="M33.8,82.5c-1-1.4-1.5-3.5-1.5-6.3c0-2.7,0.5-4.8,1.5-6.3c1-1.4,2.5-2.2,4.4-2.2s3.4,0.7,4.4,2.2
			c1,1.4,1.5,3.5,1.5,6.3c0,2.7-0.5,4.8-1.5,6.3s-2.5,2.2-4.4,2.2S34.8,83.9,33.8,82.5z M40.5,80.9c0.5-1,0.7-2.5,0.7-4.6
			c0-2.1-0.2-3.7-0.7-4.6c-0.5-1-1.2-1.4-2.3-1.4c-1.1,0-1.8,0.5-2.3,1.4c-0.5,1-0.7,2.5-0.7,4.6c0,2.1,0.2,3.7,0.7,4.6
			c0.5,1,1.2,1.5,2.3,1.5C39.3,82.3,40,81.8,40.5,80.9z"/>
	</g>
</g>
</svg>
