<?xml version="1.0" encoding="utf-8"?>
<!-- Generator: Adobe Illustrator 22.1.0, SVG Export Plug-In . SVG Version: 6.00 Build 0)  -->
<svg version="1.1" id="Layer_1" xmlns="http://www.w3.org/2000/svg" xmlns:xlink="http://www.w3.org/1999/xlink" x="0px" y="0px"
	 viewBox="0 0 336.7 293.7" style="enable-background:new 0 0 336.7 293.7;" xml:space="preserve">
<style type="text/css">
	.st0{fill:#647CA0;}
	.st1{fill:#A5D73C;}
	.st2{opacity:0.2;}
	.st3{enable-background:new    ;}
	.st4{fill:#FFFFFF;}
</style>
<g>
	<g>
		<rect x="303.9" y="74.2" class="st0" width="4.7" height="17.8"/>
	</g>
	<g>
		<path class="st1" d="M286.2,54.7h38.5c2.2,0,4.1,1.9,4.1,4.1v34.6c0,2.2-1.9,4.1-4.1,4.1h-38.5c-2.2,0-4.1-1.9-4.1-4.1V58.8
			C282.1,56.5,284,54.7,286.2,54.7z"/>
		<g class="st2">
			<g>
				<circle cx="322.7" cy="94.4" r="1.6"/>
				<circle cx="311.2" cy="94.4" r="1.6"/>
				<circle cx="299.7" cy="94.4" r="1.6"/>
				<circle cx="288.3" cy="94.4" r="1.6"/>
			</g>
			<g>
				<circle cx="322.7" cy="57.6" r="1.6"/>
				<circle cx="311.2" cy="57.6" r="1.6"/>
				<circle cx="299.7" cy="57.6" r="1.6"/>
				<circle cx="288.3" cy="57.6" r="1.6"/>
			</g>
			<rect x="282.8" y="91.4" width="44.7" height="0.5"/>
			<rect x="282.8" y="60.1" width="44.7" height="0.5"/>
			<path d="M288,61.8h34.5c1.9,0,3.4,1.6,3.4,3.4v21.3c0,1.9-1.6,3.4-3.4,3.4H288c-1.9,0-3.4-1.6-3.4-3.4V65.2
				C284.6,63.4,286,61.8,288,61.8z"/>
		</g>
	</g>
</g>
<g class="st3">
	<path class="st4" d="M305.2,83.2c0,0.8-0.5,1.2-1.4,1.2H295c-0.4,0-0.7-0.1-1-0.4c-0.2-0.2-0.3-0.5-0.3-0.9c0-0.5,0.2-0.9,0.5-1.3
		l5.3-5.7c0.7-0.7,1.1-1.4,1.4-2s0.5-1.2,0.5-1.8c0-0.7-0.2-1.3-0.6-1.7s-1-0.6-1.8-0.6c-0.6,0-1.3,0.1-1.9,0.4
		c-0.6,0.2-1.2,0.6-1.8,1c-0.2,0.1-0.3,0.2-0.5,0.3c-0.2,0.1-0.3,0.1-0.5,0.1c-0.3,0-0.5-0.1-0.7-0.4s-0.3-0.5-0.3-0.9
		c0-0.2,0-0.4,0.1-0.6s0.2-0.3,0.4-0.5c0.7-0.5,1.5-1,2.4-1.3s1.8-0.5,2.7-0.5c1.6,0,2.9,0.4,3.8,1.2c1,0.8,1.4,1.9,1.4,3.3
		c0,0.9-0.2,1.8-0.6,2.7c-0.4,0.8-1.1,1.8-2,2.8l-4,4.3h6.1C304.7,82,305.2,82.4,305.2,83.2z"/>
	<path class="st4" d="M317,77.4c0.5,0.7,0.8,1.5,0.8,2.6c0,1.4-0.5,2.5-1.6,3.4c-1,0.8-2.4,1.3-4.2,1.3c-1,0-2-0.2-2.9-0.5
		s-1.7-0.7-2.4-1.3c-0.4-0.3-0.5-0.7-0.5-1.1c0-0.3,0.1-0.6,0.3-0.9c0.2-0.2,0.4-0.4,0.7-0.4c0.2,0,0.3,0,0.4,0.1s0.3,0.1,0.5,0.3
		c0.7,0.4,1.3,0.8,1.9,1s1.2,0.3,1.9,0.3c1,0,1.8-0.2,2.3-0.6s0.7-1,0.7-1.9c0-0.8-0.3-1.4-0.8-1.8s-1.3-0.6-2.4-0.6h-1.3
		c-0.4,0-0.6-0.1-0.8-0.4c-0.2-0.2-0.3-0.5-0.3-0.8s0.1-0.6,0.3-0.8c0.2-0.2,0.5-0.3,0.8-0.3h0.9c2.1,0,3.2-0.8,3.2-2.4
		c0-0.7-0.2-1.3-0.7-1.7s-1.1-0.6-1.9-0.6c-1.1,0-2.3,0.5-3.6,1.4c-0.2,0.1-0.4,0.2-0.5,0.3s-0.3,0.1-0.4,0.1
		c-0.3,0-0.5-0.1-0.7-0.4c-0.2-0.2-0.3-0.5-0.3-0.9c0-0.2,0-0.4,0.1-0.6s0.2-0.3,0.4-0.5c0.7-0.5,1.4-1,2.3-1.3s1.8-0.5,2.8-0.5
		c1.6,0,2.9,0.4,3.9,1.2c1,0.8,1.4,1.8,1.4,3.2c0,0.9-0.3,1.7-0.7,2.4c-0.5,0.7-1.1,1.2-1.9,1.5C315.7,76.3,316.5,76.7,317,77.4z"/>
</g>
</svg>
