<?xml version="1.0" encoding="utf-8"?>
<!-- Generator: Adobe Illustrator 22.1.0, SVG Export Plug-In . SVG Version: 6.00 Build 0)  -->
<svg version="1.1" id="Layer_1" xmlns="http://www.w3.org/2000/svg" xmlns:xlink="http://www.w3.org/1999/xlink" x="0px" y="0px"
	 viewBox="0 0 336.7 293.7" style="enable-background:new 0 0 336.7 293.7;" xml:space="preserve">
<style type="text/css">
	.st0{fill:#647CA0;}
	.st1{fill:#00CDC8;}
	.st2{opacity:0.2;}
	.st3{enable-background:new    ;}
	.st4{fill:#FFFFFF;}
</style>
<g>
	<g>
		<rect x="28.8" y="201.3" class="st0" width="4.7" height="17.8"/>
	</g>
	<g>
		<path class="st1" d="M51.2,238.6H12.7c-2.2,0-4.1-1.9-4.1-4.1v-34.6c0-2.2,1.9-4.1,4.1-4.1h38.5c2.2,0,4.1,1.9,4.1,4.1v34.6
			C55.3,236.8,53.4,238.6,51.2,238.6z"/>
		<g class="st2">
			<g>
				<circle cx="14.7" cy="198.9" r="1.6"/>
				<circle cx="26.2" cy="198.9" r="1.6"/>
				<circle cx="37.7" cy="198.9" r="1.6"/>
				<circle cx="49.1" cy="198.9" r="1.6"/>
			</g>
			<g>
				<circle cx="14.7" cy="235.7" r="1.6"/>
				<circle cx="26.2" cy="235.7" r="1.6"/>
				<circle cx="37.7" cy="235.7" r="1.6"/>
				<circle cx="49.1" cy="235.7" r="1.6"/>
			</g>
			<rect x="9.9" y="201.4" width="44.7" height="0.5"/>
			<rect x="9.9" y="232.7" width="44.7" height="0.5"/>
			<path d="M49.4,231.5H14.9c-1.9,0-3.4-1.6-3.4-3.4v-21.3c0-1.9,1.6-3.4,3.4-3.4h34.5c1.9,0,3.4,1.6,3.4,3.4v21.3
				C52.8,229.9,51.3,231.5,49.4,231.5z"/>
		</g>
	</g>
</g>
<g class="st3">
	<path class="st4" d="M32.2,224.6c0,0.8-0.5,1.2-1.4,1.2H22c-0.4,0-0.7-0.1-1-0.4c-0.2-0.2-0.3-0.5-0.3-0.9c0-0.5,0.2-0.9,0.5-1.3
		l5.3-5.7c0.7-0.7,1.1-1.4,1.4-2s0.5-1.2,0.5-1.8c0-0.7-0.2-1.3-0.6-1.7s-1-0.6-1.8-0.6c-0.6,0-1.3,0.1-1.9,0.4
		c-0.6,0.2-1.2,0.6-1.8,1c-0.2,0.1-0.3,0.2-0.5,0.3s-0.3,0.1-0.5,0.1c-0.3,0-0.5-0.1-0.7-0.4c-0.2-0.2-0.3-0.5-0.3-0.9
		c0-0.2,0-0.4,0.1-0.6s0.2-0.3,0.4-0.5c0.7-0.5,1.5-1,2.4-1.3s1.8-0.5,2.7-0.5c1.6,0,2.9,0.4,3.8,1.2c1,0.8,1.4,1.9,1.4,3.3
		c0,0.9-0.2,1.8-0.6,2.7c-0.4,0.8-1.1,1.8-2,2.8l-4,4.3h6.1C31.7,223.4,32.2,223.8,32.2,224.6z"/>
	<path class="st4" d="M42.8,216c0.8,0.4,1.4,1.1,1.8,1.9s0.6,1.7,0.6,2.7c0,1.1-0.2,2-0.7,2.8s-1.1,1.5-2,1.9
		c-0.8,0.5-1.8,0.7-2.8,0.7c-2.1,0-3.7-0.7-4.8-2.1s-1.7-3.4-1.7-6c0-1.8,0.3-3.3,0.8-4.6s1.3-2.3,2.3-3s2.1-1,3.5-1
		c0.9,0,1.8,0.2,2.7,0.5s1.6,0.7,2.3,1.3c0.2,0.2,0.3,0.3,0.4,0.5c0.1,0.2,0.1,0.4,0.1,0.6c0,0.3-0.1,0.6-0.3,0.9
		c-0.2,0.2-0.4,0.4-0.7,0.4c-0.2,0-0.3,0-0.4-0.1s-0.3-0.1-0.5-0.3c-1.3-0.9-2.4-1.4-3.4-1.4c-1.1,0-2,0.5-2.7,1.6
		c-0.7,1-1,2.5-1,4.4c0.4-0.7,0.9-1.3,1.6-1.7c0.7-0.4,1.5-0.6,2.4-0.6C41.2,215.3,42.1,215.5,42.8,216z M41.6,222.9
		c0.5-0.6,0.8-1.3,0.8-2.2s-0.3-1.6-0.8-2.2c-0.5-0.5-1.2-0.8-2-0.8c-0.9,0-1.6,0.3-2.1,0.8c-0.5,0.6-0.8,1.3-0.8,2.2
		s0.3,1.6,0.8,2.2c0.5,0.6,1.2,0.8,2.1,0.8C40.4,223.7,41.1,223.4,41.6,222.9z"/>
</g>
</svg>
