<?xml version="1.0" encoding="utf-8"?>
<!-- Generator: Adobe Illustrator 22.1.0, SVG Export Plug-In . SVG Version: 6.00 Build 0)  -->
<svg version="1.1" id="Layer_1" xmlns="http://www.w3.org/2000/svg" xmlns:xlink="http://www.w3.org/1999/xlink" x="0px" y="0px"
	 viewBox="0 0 400 142.4" style="enable-background:new 0 0 400 142.4;" xml:space="preserve">
<style type="text/css">
	.st0{fill:#FFFFFF;}
	.st1{fill:#00CDC8;}
	.st2{fill:#F24044;}
	.st3{fill:#FF5A00;}
	.st4{fill:#A5D73C;}
	.st5{fill:none;stroke:#FFFFFF;stroke-width:4.0966;stroke-linecap:round;stroke-linejoin:round;}
</style>
<g>
	<path class="st0" d="M25.2,126.5c-0.8,0-1.5-0.7-1.5-1.5V89.9c0-0.8,0.7-1.5,1.5-1.5h35.1c0.8,0,1.5,0.7,1.5,1.5V125
		c0,0.8-0.7,1.5-1.5,1.5H25.2z"/>
	<path class="st0" d="M60.2,89.9V125h-35V89.9H60.2 M60.2,86.9h-35c-1.7,0-3,1.3-3,3V125c0,1.7,1.3,3,3,3h35.1c1.7,0,3-1.3,3-3V89.9
		C63.2,88.3,61.9,86.9,60.2,86.9L60.2,86.9z"/>
</g>
<g>
	<g>
		<g>
			<path class="st0" d="M39.6,117.9c-1.7,0-2.9-1.1-2.9-2.7s1.1-2.6,2.9-2.6h0.8v-6.1c-0.4,0.2-0.8,0.3-1.2,0.3c-0.8,0-1.5-0.3-2-1
				c-0.4-0.5-0.7-1.2-0.7-1.8c0-1,0.5-1.8,1.3-2.3l3.5-2.2c0.7-0.4,1.4-0.6,2.1-0.6c0.8,0,1.5,0.3,2.1,0.8c0.4,0.4,0.8,1,0.8,2.1
				v10.7h0.9c1.7,0,2.8,1,2.8,2.6s-1.1,2.7-2.8,2.7L39.6,117.9L39.6,117.9z"/>
			<path class="st0" d="M43.5,100.5c0.4,0,0.8,0.1,1,0.4c0.3,0.3,0.4,0.6,0.4,1.1v12.2h2.4c0.9,0,1.3,0.4,1.3,1.1
				c0,0.8-0.4,1.2-1.3,1.2h-7.6c-0.9,0-1.4-0.4-1.4-1.2c0-0.8,0.5-1.1,1.4-1.1H42V104l-2.2,1.3c-0.2,0.1-0.4,0.2-0.6,0.2
				c-0.3,0-0.6-0.1-0.8-0.4s-0.3-0.6-0.3-0.9c0-0.4,0.2-0.8,0.6-1l3.5-2.2C42.6,100.6,43,100.5,43.5,100.5 M43.5,97.5
				c-1,0-1.9,0.3-2.8,0.8l-3.5,2.2c-1.3,0.8-2,2.1-2,3.6c0,1,0.3,2,1,2.8c0.7,0.9,1.7,1.4,2.9,1.5v2.8c-2.2,0.3-3.7,1.9-3.7,4.1
				c0,2.5,1.8,4.2,4.4,4.2h7.6c2.6,0,4.3-1.7,4.3-4.2c0-2.2-1.5-3.8-3.7-4.1V102c0-1.6-0.7-2.6-1.3-3.2
				C45.8,97.9,44.7,97.5,43.5,97.5L43.5,97.5z"/>
		</g>
	</g>
</g>
<g>
	<path class="st0" d="M59.9,116.5c-0.8,0-1.5-0.7-1.5-1.5V79.9c0-0.8,0.7-1.5,1.5-1.5H95c0.8,0,1.5,0.7,1.5,1.5V115
		c0,0.8-0.7,1.5-1.5,1.5H59.9z"/>
	<path class="st0" d="M95,79.9V115H59.9V79.9H95 M95,76.9H59.9c-1.7,0-3,1.3-3,3V115c0,1.7,1.3,3,3,3H95c1.7,0,3-1.3,3-3V79.9
		C98,78.3,96.7,76.9,95,76.9L95,76.9z"/>
</g>
<g>
	<g>
		<g>
			<path class="st0" d="M73.4,107.9c-1,0-1.6-0.4-2-0.8c-0.5-0.5-0.8-1.2-0.8-1.9c0-0.8,0.3-1.6,0.9-2.3l5.1-5.5
				c0.5-0.6,0.9-1.1,1.1-1.6c0.2-0.4,0.3-0.7,0.3-1c0-0.1,0-0.4-0.1-0.5s-0.4-0.2-0.7-0.2c-0.4,0-0.8,0.1-1.2,0.2
				c-0.5,0.2-1,0.5-1.4,0.8c-0.2,0.2-0.5,0.3-0.7,0.4c-0.3,0.2-0.7,0.2-1.1,0.2c-0.7,0-1.4-0.3-1.8-0.9c-0.4-0.5-0.6-1.1-0.6-1.8
				c0-0.5,0.1-0.9,0.3-1.3c0.2-0.4,0.4-0.7,0.8-1c0.8-0.6,1.7-1.1,2.8-1.5c1-0.4,2.1-0.5,3.1-0.5c1.9,0,3.5,0.5,4.7,1.5
				c1.3,1.1,1.9,2.5,1.9,4.3c0,1.1-0.2,2.2-0.7,3.2c-0.5,0.9-1.2,1.9-2.2,3.1l-1.5,1.6h2.5c1.7,0,2.8,1,2.8,2.6s-1.1,2.7-2.8,2.7
				h-8.7V107.9z"/>
			<path class="st0" d="M77.3,90.4c1.5,0,2.8,0.4,3.7,1.2c0.9,0.8,1.4,1.8,1.4,3.1c0,0.9-0.2,1.8-0.6,2.6c-0.4,0.8-1,1.7-2,2.7
				l-3.9,4.1h5.9c0.9,0,1.3,0.4,1.3,1.1c0,0.8-0.4,1.2-1.3,1.2h-8.5c-0.4,0-0.7-0.1-0.9-0.3c-0.2-0.2-0.3-0.5-0.3-0.9
				s0.2-0.9,0.5-1.2l5.1-5.5c0.6-0.7,1.1-1.3,1.4-1.9s0.4-1.1,0.4-1.7c0-0.7-0.2-1.2-0.6-1.6s-1-0.6-1.7-0.6c-0.6,0-1.2,0.1-1.8,0.3
				c-0.6,0.2-1.2,0.5-1.7,1c-0.1,0.1-0.3,0.2-0.4,0.3c-0.1,0.1-0.3,0.1-0.4,0.1c-0.3,0-0.5-0.1-0.7-0.4c-0.2-0.2-0.3-0.5-0.3-0.9
				c0-0.2,0-0.4,0.1-0.6s0.2-0.3,0.4-0.5c0.7-0.5,1.4-0.9,2.3-1.2C75.6,90.5,76.5,90.4,77.3,90.4 M77.3,87.4c-1.2,0-2.4,0.2-3.6,0.6
				s-2.3,1-3.2,1.7l0,0c-0.5,0.4-0.9,0.9-1.2,1.4c-0.3,0.6-0.4,1.2-0.4,1.9c0,1,0.3,1.9,0.9,2.7c0.7,1,1.9,1.5,3,1.5
				c0.6,0,1.1-0.1,1.7-0.4c0.3-0.1,0.6-0.3,0.9-0.5c0.1-0.1,0.2-0.1,0.3-0.2c-0.1,0.1-0.1,0.1-0.2,0.2l-5.1,5.5
				c-0.9,0.9-1.3,2-1.3,3.3c0,1.1,0.4,2.2,1.2,3c0.8,0.8,1.9,1.3,3.1,1.3h8.5c2.6,0,4.3-1.7,4.3-4.2c0-2.1-1.4-3.7-3.4-4.1
				c0.8-0.9,1.3-1.7,1.7-2.6c0.6-1.2,0.9-2.5,0.9-3.9c0-2.2-0.8-4.1-2.4-5.4C81.5,88,79.6,87.4,77.3,87.4L77.3,87.4z"/>
		</g>
	</g>
</g>
<g>
	<path class="st0" d="M94.7,126.5c-0.8,0-1.5-0.7-1.5-1.5V89.9c0-0.8,0.7-1.5,1.5-1.5h35.1c0.8,0,1.5,0.7,1.5,1.5V125
		c0,0.8-0.7,1.5-1.5,1.5H94.7z"/>
	<path class="st0" d="M129.8,89.9V125H94.7V89.9H129.8 M129.8,86.9H94.7c-1.7,0-3,1.3-3,3V125c0,1.7,1.3,3,3,3h35.1c1.7,0,3-1.3,3-3
		V89.9C132.8,88.3,131.4,86.9,129.8,86.9L129.8,86.9z"/>
</g>
<g>
	<path class="st0" d="M164.2,126.5c-0.8,0-1.5-0.7-1.5-1.5V89.9c0-0.8,0.7-1.5,1.5-1.5h35.1c0.8,0,1.5,0.7,1.5,1.5V125
		c0,0.8-0.7,1.5-1.5,1.5H164.2z"/>
	<path class="st0" d="M199.3,89.9V125h-35.1V89.9H199.3 M199.3,86.9h-35.1c-1.7,0-3,1.3-3,3V125c0,1.7,1.3,3,3,3h35.1
		c1.7,0,3-1.3,3-3V89.9C202.3,88.3,201,86.9,199.3,86.9L199.3,86.9z"/>
</g>
<g>
	<path class="st0" d="M199,126.5c-0.8,0-1.5-0.7-1.5-1.5V89.9c0-0.8,0.7-1.5,1.5-1.5h35.1c0.8,0,1.5,0.7,1.5,1.5V125
		c0,0.8-0.7,1.5-1.5,1.5H199z"/>
	<path class="st0" d="M234.1,89.9V125H199V89.9H234.1 M234.1,86.9H199c-1.7,0-3,1.3-3,3V125c0,1.7,1.3,3,3,3h35.1c1.7,0,3-1.3,3-3
		V89.9C237.1,88.3,235.7,86.9,234.1,86.9L234.1,86.9z"/>
</g>
<g>
	<path class="st0" d="M268.5,126.5c-0.8,0-1.5-0.7-1.5-1.5V89.9c0-0.8,0.7-1.5,1.5-1.5h35.1c0.8,0,1.5,0.7,1.5,1.5V125
		c0,0.8-0.7,1.5-1.5,1.5H268.5z"/>
	<path class="st0" d="M303.6,89.9V125h-35.1V89.9H303.6 M303.6,86.9h-35.1c-1.7,0-3,1.3-3,3V125c0,1.7,1.3,3,3,3h35.1
		c1.7,0,3-1.3,3-3V89.9C306.6,88.3,305.3,86.9,303.6,86.9L303.6,86.9z"/>
</g>
<g>
	<path class="st0" d="M303.3,116.5c-0.8,0-1.5-0.7-1.5-1.5V79.9c0-0.8,0.7-1.5,1.5-1.5h35.1c0.8,0,1.5,0.7,1.5,1.5V115
		c0,0.8-0.7,1.5-1.5,1.5H303.3z"/>
	<path class="st0" d="M338.4,79.9V115h-35.1V79.9H338.4 M338.4,76.9h-35.1c-1.7,0-3,1.3-3,3V115c0,1.7,1.3,3,3,3h35.1
		c1.7,0,3-1.3,3-3V79.9C341.4,78.3,340,76.9,338.4,76.9L338.4,76.9z"/>
</g>
<g>
	<path class="st0" d="M338.1,126.5c-0.8,0-1.5-0.7-1.5-1.5V89.9c0-0.8,0.7-1.5,1.5-1.5h35.1c0.8,0,1.5,0.7,1.5,1.5V125
		c0,0.8-0.7,1.5-1.5,1.5H338.1z"/>
	<path class="st0" d="M373.2,89.9V125h-35.1V89.9H373.2 M373.2,86.9h-35.1c-1.7,0-3,1.3-3,3V125c0,1.7,1.3,3,3,3h35.1
		c1.7,0,3-1.3,3-3V89.9C376.2,88.3,374.8,86.9,373.2,86.9L373.2,86.9z"/>
</g>
<g>
	<path class="st0" d="M129.8,126.5c-0.8,0-1.5-0.7-1.5-1.5V89.9c0-0.8,0.7-1.5,1.5-1.5h35.1c0.8,0,1.5,0.7,1.5,1.5V125
		c0,0.8-0.7,1.5-1.5,1.5H129.8z"/>
	<path class="st0" d="M164.8,89.9V125h-35.1V89.9H164.8 M164.8,86.9h-35.1c-1.7,0-3,1.3-3,3V125c0,1.7,1.3,3,3,3h35.1
		c1.7,0,3-1.3,3-3V89.9C167.8,88.2,166.5,86.9,164.8,86.9L164.8,86.9z"/>
</g>
<g>
	<path class="st0" d="M233.8,126.5c-0.8,0-1.5-0.7-1.5-1.5V89.9c0-0.8,0.7-1.5,1.5-1.5h35.1c0.8,0,1.5,0.7,1.5,1.5V125
		c0,0.8-0.7,1.5-1.5,1.5H233.8z"/>
	<path class="st0" d="M268.8,89.9V125h-35.1V89.9H268.8 M268.8,86.9h-35.1c-1.7,0-3,1.3-3,3V125c0,1.7,1.3,3,3,3h35.1
		c1.7,0,3-1.3,3-3V89.9C271.8,88.2,270.5,86.9,268.8,86.9L268.8,86.9z"/>
</g>
<rect x="25.2" y="89.9" class="st1" width="35.1" height="35.1"/>
<g>
	<g>
		<path class="st0" d="M48.5,115.2c0,0.8-0.4,1.2-1.3,1.2h-7.6c-0.9,0-1.4-0.4-1.4-1.2c0-0.8,0.5-1.1,1.4-1.1h2.3v-10.2l-2.2,1.3
			c-0.2,0.1-0.4,0.2-0.6,0.2c-0.3,0-0.6-0.1-0.8-0.4s-0.3-0.6-0.3-0.9c0-0.4,0.2-0.8,0.6-1l3.5-2.2c0.4-0.3,0.9-0.4,1.3-0.4
			c0.4,0,0.8,0.1,1,0.4c0.3,0.3,0.4,0.6,0.4,1.1v12.2h2.4C48.1,114.1,48.5,114.5,48.5,115.2z"/>
	</g>
</g>
<rect x="59.9" y="79.9" class="st2" width="35.1" height="35.1"/>
<g>
	<g>
		<path class="st0" d="M83.2,105.2c0,0.8-0.4,1.2-1.3,1.2h-8.5c-0.4,0-0.7-0.1-0.9-0.3c-0.2-0.2-0.3-0.5-0.3-0.9s0.2-0.9,0.5-1.2
			l5.1-5.5c0.6-0.7,1.1-1.3,1.4-1.9s0.4-1.1,0.4-1.7c0-0.7-0.2-1.2-0.6-1.6s-1-0.6-1.7-0.6c-0.6,0-1.2,0.1-1.8,0.3
			c-0.6,0.2-1.2,0.5-1.7,1c-0.1,0.1-0.3,0.2-0.4,0.3s-0.3,0.1-0.4,0.1c-0.3,0-0.5-0.1-0.7-0.4c-0.2-0.2-0.3-0.5-0.3-0.9
			c0-0.2,0-0.4,0.1-0.6s0.2-0.3,0.4-0.5c0.7-0.5,1.4-0.9,2.3-1.2c0.9-0.3,1.8-0.5,2.6-0.5c1.5,0,2.8,0.4,3.7,1.2
			c0.9,0.8,1.4,1.8,1.4,3.1c0,0.9-0.2,1.8-0.6,2.6c-0.4,0.8-1,1.7-2,2.7L76,104h5.9C82.8,104.1,83.2,104.5,83.2,105.2z"/>
	</g>
</g>
<rect x="94.7" y="89.9" class="st3" width="35.1" height="35.1"/>
<rect x="164.2" y="89.9" class="st1" width="35.1" height="35.1"/>
<rect x="199" y="89.9" class="st2" width="35.1" height="35.1"/>
<rect x="268.5" y="89.9" class="st4" width="35.1" height="35.1"/>
<rect x="303.3" y="79.9" class="st1" width="35.1" height="35.1"/>
<rect x="338.1" y="89.9" class="st2" width="35.1" height="35.1"/>
<rect x="129.8" y="89.9" class="st4" width="35.1" height="35.1"/>
<rect x="233.8" y="89.9" class="st3" width="35.1" height="35.1"/>
<g>
	<g>
		<g>
			<path class="st5" d="M109.3,80.2c2.2-9.2,147.2-21.6,183-5.4"/>
			<g>
				<path class="st0" d="M114,80.7c-0.3,2.5-2.6,4.3-5.2,4c-2.5-0.3-4.3-2.6-4-5.2c0.3-2.5,2.6-4.3,5.2-4
					C112.5,75.8,114.3,78.1,114,80.7z"/>
			</g>
			<g>
				<path class="st0" d="M292.3,74.8c-0.4-2.4,0.8-5.7,2.1-7.6c0.2,3.9,1,7.9,3.2,11.2c-3.9-0.9-8-0.2-11.7,1
					C287.5,77.5,289.7,75.3,292.3,74.8z"/>
			</g>
		</g>
	</g>
</g>
<circle class="st2" cx="198.4" cy="30.1" r="28.2"/>
<g>
	<path class="st0" d="M193.1,31.1c0.3,0.3,0.4,0.6,0.4,1c0,0.4-0.1,0.8-0.4,1c-0.3,0.3-0.6,0.4-1,0.4h-5.2v5.2
		c0,0.4-0.1,0.8-0.4,1.1c-0.3,0.3-0.6,0.4-1,0.4s-0.8-0.1-1-0.4c-0.3-0.3-0.4-0.6-0.4-1.1v-5.2h-5.2c-0.4,0-0.8-0.1-1-0.4
		c-0.3-0.3-0.4-0.6-0.4-1c0-0.4,0.1-0.8,0.4-1c0.3-0.3,0.6-0.4,1-0.4h5.2v-5.2c0-0.4,0.1-0.8,0.4-1c0.3-0.3,0.6-0.4,1-0.4
		s0.8,0.1,1,0.4c0.3,0.3,0.4,0.6,0.4,1v5.2h5.2C192.5,30.7,192.9,30.8,193.1,31.1z"/>
</g>
<g>
	<g>
		<path class="st0" d="M213,18.1c0.4,0.4,0.5,0.9,0.5,1.4c0,0.5-0.2,1.2-0.5,1.9l-12.7,22.9c-0.5,0.9-1.2,1.4-2.1,1.4
			c-0.7,0-1.2-0.2-1.8-0.7c-0.5-0.4-0.7-1.1-0.7-1.6c0-0.5,0.2-0.9,0.4-1.4l11.3-20.5h-12c-1.6,0-2.3-0.7-2.3-1.9
			c0-1.4,0.7-2.1,2.3-2.1h15.9C212.1,17.6,212.7,17.8,213,18.1z"/>
	</g>
</g>
</svg>
