<?xml version="1.0" encoding="utf-8"?>
<!-- Generator: Adobe Illustrator 22.1.0, SVG Export Plug-In . SVG Version: 6.00 Build 0)  -->
<svg version="1.1" id="Layer_1" xmlns="http://www.w3.org/2000/svg" xmlns:xlink="http://www.w3.org/1999/xlink" x="0px" y="0px"
	 viewBox="0 0 400 400" style="enable-background:new 0 0 400 400;" xml:space="preserve">
<style type="text/css">
	.st0{fill:#FFFFFF;}
	.st1{fill:#333333;}
	.st2{fill:#1A1A1A;}
	.st3{fill:#FFA900;}
	.st4{fill:#4D4D4D;}
	.st5{fill:#FF8800;}
	.st6{fill:#FF0000;}
	.st7{fill:#960404;}
	.st8{fill:#1A74B7;}
	.st9{fill:#0456A0;}
	.st10{fill:#691869;}
</style>
<g>
	<g>
		<path class="st0" d="M65.7,232.2c-2.9,0-5.4-1.8-6.3-4.6l-1.1-3.6l-0.3-0.1c-3.6,3.6-8.5,5.7-13.7,5.7c-5.2,0-10.1-2.1-13.7-5.7
			l-0.3,0.1l-1.1,3.6c-0.9,2.7-3.4,4.6-6.3,4.6c-0.7,0-1.3-0.1-2-0.3c-1.7-0.5-3-1.7-3.8-3.2s-1-3.3-0.4-5l1.8-5.7
			c-1.2-0.3-2.3-0.8-3.1-1.7c-2.6-2.5-2.6-6.7-0.1-9.3l4.6-4.7c0.2-0.2,0.3-0.3,0.5-0.5c-0.7-0.7-1.2-1.6-1.6-2.6l-2.1-6.6
			c-0.5-1.7-0.4-3.4,0.4-5s2.2-2.7,3.8-3.2c0.6-0.2,1.3-0.3,2-0.3c2.9,0,5.4,1.8,6.3,4.6l0.2,0.7c0.5-2.6,1.7-5,3.4-7
			c-0.6-1-0.9-2.1-0.9-3.3c0-3.6,2.9-6.6,6.6-6.6c1,0,2.1,0.3,3,0.7c1.1,0.6,2.1,1.3,2.8,2.2c0.8-0.9,1.8-1.6,2.8-2.2
			c0.9-0.5,2-0.7,3-0.7c3.6,0,6.6,2.9,6.6,6.6c0,1.2-0.3,2.3-0.9,3.3c1.7,2,2.9,4.4,3.4,7l0.2-0.7c0.9-2.7,3.4-4.6,6.3-4.6
			c0.7,0,1.3,0.1,2,0.3c1.7,0.5,3,1.7,3.8,3.2c0.8,1.6,1,3.3,0.4,5l-2.1,6.6c-0.3,1-0.9,1.9-1.6,2.6c0.2,0.1,0.3,0.3,0.5,0.5
			l4.6,4.7c2.5,2.6,2.5,6.8-0.1,9.3c-0.9,0.9-2,1.4-3.1,1.7l1.8,5.7c0.5,1.7,0.4,3.4-0.4,5c-0.8,1.6-2.2,2.7-3.8,3.2
			C67,232.1,66.3,232.2,65.7,232.2z"/>
		<path class="st0" d="M50.1,177.4c0.8,0,1.6,0.7,1.6,1.6c0,0.6-0.3,1.1-0.8,1.4c-0.6,0.3-1,0.9-1,1.6v1.7c2.8,1.8,4.6,5,4.6,8.6
			v3.4h4.3h0l0,0v1.8c0,0,0,0,0,0l2.9-1.1c0.4-0.2,0.8-0.5,0.9-1l1.6-5.2c0.2-0.7,0.8-1.1,1.5-1.1c0.2,0,0.3,0,0.5,0.1h0
			c0.8,0.3,1.3,1.1,1,2l-2.1,6.6c-0.1,0.4-0.5,0.8-0.9,1l-4.3,1.7c-0.2,0.1-0.4,0.1-0.6,0.1c-0.2,0-0.4,0-0.6-0.1v5.1
			c0.2-0.1,0.4-0.2,0.7-0.2h4.7c0.4,0,0.8,0.2,1.1,0.5l4.6,4.7c0.6,0.6,0.6,1.6,0,2.2l0,0c-0.3,0.3-0.7,0.4-1.1,0.4
			c-0.4,0-0.8-0.2-1.1-0.5l-3.7-3.8c-0.3-0.3-0.7-0.5-1.1-0.5h-3.3c-0.2,0-0.5-0.1-0.7-0.2v1.9c0,1.8-0.3,3.5-0.9,5.1
			c0.2,0,0.3,0,0.5,0.1l5.9,2.3c0.4,0.2,0.8,0.5,0.9,1l2.1,6.6c0.3,0.8-0.2,1.7-1,2c-0.2,0-0.3,0.1-0.5,0.1c-0.7,0-1.3-0.4-1.5-1.1
			l-1.6-5.2c-0.1-0.4-0.5-0.8-0.9-1l-4.5-1.8c-0.2-0.1-0.4-0.2-0.6-0.4c-2.6,4.1-7.1,6.8-12.2,6.8s-9.7-2.7-12.2-6.8
			c-0.2,0.2-0.4,0.3-0.6,0.4l-4.5,1.8c-0.4,0.2-0.8,0.5-0.9,1l-1.6,5.2c-0.2,0.7-0.8,1.1-1.5,1.1c-0.2,0-0.3,0-0.5-0.1
			c-0.8-0.3-1.3-1.1-1-2l2.1-6.6c0.1-0.4,0.5-0.8,0.9-1l5.9-2.3c0.1-0.1,0.3-0.1,0.5-0.1c-0.6-1.6-0.9-3.3-0.9-5.1v-1.9
			c-0.2,0.1-0.4,0.2-0.7,0.2h-3.3c-0.4,0-0.8,0.2-1.1,0.5l-3.7,3.8c-0.3,0.3-0.7,0.5-1.1,0.5c-0.4,0-0.8-0.1-1.1-0.4l0,0
			c-0.6-0.6-0.6-1.6,0-2.2l4.6-4.7c0.3-0.3,0.7-0.5,1.1-0.5h4.7c0.2,0,0.5,0.1,0.7,0.2v-5.1c-0.2,0.1-0.4,0.1-0.6,0.1
			c-0.2,0-0.4,0-0.6-0.1l-4.3-1.7c-0.4-0.2-0.8-0.5-0.9-1l-2.1-6.6c-0.3-0.8,0.2-1.7,1-2c0.2,0,0.3-0.1,0.5-0.1
			c0.7,0,1.3,0.4,1.5,1.1l1.6,5.2c0.1,0.4,0.5,0.8,0.9,1l2.9,1.1c0,0,0,0,0,0v-1.8h0H34v-3.4c0-3.7,2-6.9,4.9-8.7
			c-0.1-0.2-0.2-0.5-0.2-0.8V182c0-0.7-0.4-1.3-1-1.6c-0.5-0.3-0.8-0.8-0.8-1.4c0-0.9,0.7-1.6,1.6-1.6c0.2,0,0.5,0.1,0.7,0.2
			c1.6,0.8,2.7,2.5,2.7,4.4v0.3c0.8-0.2,1.6-0.3,2.5-0.3s1.7,0.1,2.5,0.3V182c0-1.9,1.1-3.6,2.7-4.4
			C49.6,177.5,49.8,177.4,50.1,177.4 M50.1,167.4C50.1,167.4,50.1,167.4,50.1,167.4c-1.8,0-3.6,0.4-5.3,1.3
			c-0.2,0.1-0.4,0.2-0.6,0.3c-0.2-0.1-0.4-0.2-0.6-0.3c-1.6-0.8-3.4-1.3-5.3-1.3c-6.4,0-11.6,5.2-11.6,11.6c0,0.3,0,0.5,0,0.8
			c-1.3-0.5-2.6-0.7-4-0.7c-1.2,0-2.4,0.2-3.5,0.5c-6.1,1.9-9.4,8.4-7.5,14.5l2.1,6.6c0,0.1,0.1,0.2,0.1,0.3l-2.4,2.5
			c-2.2,2.2-3.3,5.1-3.3,8.2c0,3.1,1.3,6,3.5,8.1c0.2,0.2,0.4,0.4,0.6,0.6l-0.6,1.8c-1.9,6.1,1.4,12.6,7.5,14.5
			c1.1,0.4,2.3,0.5,3.5,0.5c4.1,0,7.8-2.1,9.9-5.5c3.5,1.9,7.4,2.9,11.5,2.9c4.1,0,8.1-1,11.5-2.9c2.1,3.4,5.8,5.5,9.9,5.5
			c1.2,0,2.4-0.2,3.5-0.5c6.1-1.9,9.4-8.4,7.5-14.5l-0.6-1.8c0.2-0.2,0.4-0.4,0.6-0.6c4.6-4.5,4.6-11.8,0.2-16.3l-2.4-2.5
			c0-0.1,0.1-0.2,0.1-0.3l2.1-6.6c1.9-6.1-1.4-12.6-7.5-14.5c-1.1-0.4-2.3-0.5-3.5-0.5c-1.4,0-2.8,0.3-4,0.7c0-0.3,0-0.5,0-0.8
			C61.6,172.6,56.5,167.4,50.1,167.4L50.1,167.4L50.1,167.4z"/>
	</g>
	<g>
		<path class="st0" d="M128.7,172.2c-2.9,0-5.4-1.8-6.3-4.6l-1.1-3.6l-0.3-0.1c-3.6,3.6-8.5,5.7-13.7,5.7s-10.1-2.1-13.7-5.7
			l-0.3,0.1l-1.1,3.6c-0.9,2.7-3.4,4.6-6.3,4.6c-0.7,0-1.3-0.1-2-0.3c-1.7-0.5-3-1.7-3.8-3.2c-0.8-1.6-1-3.3-0.4-5l1.8-5.7
			c-1.2-0.3-2.3-0.8-3.1-1.7c-1.3-1.2-2-2.9-2-4.6c0-1.8,0.6-3.4,1.9-4.7l4.6-4.7c0.2-0.2,0.3-0.3,0.5-0.5c-0.7-0.7-1.2-1.6-1.6-2.6
			l-2.1-6.6c-1.1-3.4,0.8-7.1,4.3-8.2c0.6-0.2,1.3-0.3,2-0.3c2.9,0,5.4,1.8,6.3,4.6l0.2,0.7c0.5-2.6,1.7-5,3.4-7
			c-0.6-1-0.9-2.1-0.9-3.3c0-3.6,2.9-6.6,6.6-6.6c1,0,2.1,0.3,3,0.7c1.1,0.6,2.1,1.3,2.8,2.2c0.8-0.9,1.8-1.6,2.8-2.2
			c0.9-0.5,2-0.7,3-0.7c3.6,0,6.6,2.9,6.6,6.6c0,1.2-0.3,2.3-0.9,3.3c1.7,2,2.9,4.4,3.4,7l0.2-0.7c0.9-2.7,3.4-4.6,6.3-4.6
			c0.7,0,1.3,0.1,2,0.3c3.4,1.1,5.4,4.8,4.3,8.2l-2.1,6.6c-0.3,1-0.9,1.9-1.6,2.6c0.2,0.1,0.3,0.3,0.5,0.5l4.6,4.7
			c1.2,1.3,1.9,2.9,1.9,4.7s-0.7,3.4-2,4.6c-0.9,0.9-2,1.4-3.1,1.7l1.8,5.7c0.5,1.7,0.4,3.4-0.4,5c-0.8,1.6-2.2,2.7-3.8,3.2
			C130,172.1,129.3,172.2,128.7,172.2z"/>
		<path class="st0" d="M113.1,117.4c0.8,0,1.6,0.7,1.6,1.6c0,0.6-0.3,1.1-0.8,1.4c-0.6,0.3-1,0.9-1,1.6v1.7c2.8,1.8,4.6,5,4.6,8.6
			v3.4h4.3h0l0,0v1.8c0,0,0,0,0,0l2.9-1.1c0.4-0.2,0.8-0.5,0.9-1l1.6-5.2c0.2-0.7,0.8-1.1,1.5-1.1c0.2,0,0.3,0,0.5,0.1h0
			c0.8,0.3,1.3,1.1,1,2l-2.1,6.6c-0.1,0.4-0.5,0.8-0.9,1l-4.3,1.7c-0.2,0.1-0.4,0.1-0.6,0.1c-0.2,0-0.4,0-0.6-0.1v5.1
			c0.2-0.1,0.4-0.2,0.7-0.2h4.7c0.4,0,0.8,0.2,1.1,0.5l4.6,4.7c0.6,0.6,0.6,1.6,0,2.2l0,0c-0.3,0.3-0.7,0.4-1.1,0.4
			c-0.4,0-0.8-0.2-1.1-0.5l-3.7-3.8c-0.3-0.3-0.7-0.5-1.1-0.5h-3.3c-0.2,0-0.5-0.1-0.7-0.2v1.9c0,1.8-0.3,3.5-0.9,5.1
			c0.2,0,0.3,0,0.5,0.1l5.9,2.3c0.4,0.2,0.8,0.5,0.9,1l2.1,6.6c0.3,0.8-0.2,1.7-1,2c-0.2,0-0.3,0.1-0.5,0.1c-0.7,0-1.3-0.4-1.5-1.1
			l-1.6-5.2c-0.1-0.4-0.5-0.8-0.9-1l-4.5-1.8c-0.2-0.1-0.4-0.2-0.6-0.4c-2.6,4.1-7.1,6.8-12.2,6.8c-5.2,0-9.7-2.7-12.2-6.8
			c-0.2,0.2-0.4,0.3-0.6,0.4l-4.5,1.8c-0.4,0.2-0.8,0.5-0.9,1l-1.6,5.2c-0.2,0.7-0.8,1.1-1.5,1.1c-0.2,0-0.3,0-0.5-0.1
			c-0.8-0.3-1.3-1.1-1-2l2.1-6.6c0.1-0.4,0.5-0.8,0.9-1l5.9-2.3c0.1-0.1,0.3-0.1,0.5-0.1c-0.6-1.6-0.9-3.3-0.9-5.1v-1.9
			c-0.2,0.1-0.4,0.2-0.7,0.2h-3.3c-0.4,0-0.8,0.2-1.1,0.5l-3.7,3.8c-0.3,0.3-0.7,0.5-1.1,0.5c-0.4,0-0.8-0.1-1.1-0.4l0,0
			c-0.6-0.6-0.6-1.6,0-2.2l4.6-4.7c0.3-0.3,0.7-0.5,1.1-0.5h4.7c0.2,0,0.5,0.1,0.7,0.2v-5.1c-0.2,0.1-0.4,0.1-0.6,0.1
			c-0.2,0-0.4,0-0.6-0.1l-4.3-1.7c-0.4-0.2-0.8-0.5-0.9-1l-2.1-6.6c-0.3-0.8,0.2-1.7,1-2h0c0.2,0,0.3-0.1,0.5-0.1
			c0.7,0,1.3,0.4,1.5,1.1l1.6,5.2c0.1,0.4,0.5,0.8,0.9,1l2.9,1.1c0,0,0,0,0,0v-1.8h0h4.3v-3.4c0-3.7,2-6.9,4.9-8.7
			c-0.1-0.2-0.2-0.5-0.2-0.8V122c0-0.7-0.4-1.3-1-1.6c-0.5-0.3-0.8-0.8-0.8-1.4c0-0.9,0.7-1.6,1.6-1.6c0.2,0,0.5,0.1,0.7,0.2
			c1.6,0.8,2.7,2.5,2.7,4.4v0.3c0.8-0.2,1.6-0.3,2.5-0.3c0.8,0,1.7,0.1,2.5,0.3V122c0-1.9,1.1-3.6,2.7-4.4
			C112.6,117.5,112.9,117.4,113.1,117.4 M113.1,107.4C113.1,107.4,113.1,107.4,113.1,107.4c-1.8,0-3.6,0.4-5.3,1.3
			c-0.2,0.1-0.4,0.2-0.6,0.3c-0.2-0.1-0.4-0.2-0.6-0.3c-1.6-0.8-3.4-1.3-5.3-1.3c-6.4,0-11.6,5.2-11.6,11.6c0,0.3,0,0.5,0,0.8
			c-1.3-0.5-2.6-0.7-4-0.7c-1.2,0-2.4,0.2-3.5,0.5c-2.9,0.9-5.3,3-6.8,5.7c-1.4,2.7-1.7,5.9-0.8,8.8l2.1,6.6c0,0.1,0.1,0.2,0.1,0.3
			l-2.4,2.5c-2.2,2.2-3.3,5.1-3.3,8.2c0,3.1,1.3,6,3.5,8.1c0.2,0.2,0.4,0.4,0.6,0.6l-0.6,1.8c-1.9,6.1,1.4,12.6,7.5,14.5
			c1.1,0.4,2.3,0.5,3.5,0.5c4.1,0,7.8-2.1,9.9-5.5c3.5,1.9,7.4,2.9,11.5,2.9c4.1,0,8.1-1,11.5-2.9c2.1,3.4,5.8,5.5,9.9,5.5
			c1.2,0,2.4-0.2,3.5-0.5c6.1-1.9,9.4-8.4,7.5-14.5l-0.6-1.8c0.2-0.2,0.4-0.4,0.6-0.6c2.2-2.2,3.4-5,3.5-8.1c0-3.1-1.1-6-3.3-8.2
			l-2.4-2.5c0-0.1,0.1-0.2,0.1-0.3l2.1-6.6c1.9-6.1-1.4-12.6-7.5-14.5c-1.1-0.4-2.3-0.5-3.5-0.5c-1.4,0-2.8,0.3-4,0.7
			c0-0.3,0-0.5,0-0.8C124.7,112.6,119.5,107.4,113.1,107.4L113.1,107.4L113.1,107.4z"/>
	</g>
	<g>
		<path class="st0" d="M128.7,232.2c-2.9,0-5.4-1.8-6.3-4.6l-1.1-3.6l-0.3-0.1c-3.6,3.6-8.5,5.7-13.7,5.7c-5.2,0-10.1-2.1-13.7-5.7
			l-0.3,0.1l-1.1,3.6c-0.9,2.7-3.4,4.6-6.3,4.6c-0.7,0-1.3-0.1-2-0.3c-1.7-0.5-3-1.7-3.8-3.2s-1-3.3-0.4-5l1.8-5.7
			c-1.2-0.3-2.3-0.8-3.1-1.7c-2.6-2.5-2.6-6.7-0.1-9.3l4.6-4.7c0.2-0.2,0.3-0.3,0.5-0.5c-0.7-0.7-1.2-1.6-1.6-2.6l-2.1-6.6
			c-0.5-1.7-0.4-3.4,0.4-5s2.2-2.7,3.8-3.2c0.6-0.2,1.3-0.3,2-0.3c2.9,0,5.4,1.8,6.3,4.6l0.2,0.7c0.5-2.6,1.7-5,3.4-7
			c-0.6-1-0.9-2.1-0.9-3.3c0-3.6,2.9-6.6,6.6-6.6c1,0,2.1,0.3,3,0.7c1.1,0.6,2.1,1.3,2.8,2.2c0.8-0.9,1.8-1.6,2.8-2.2
			c0.9-0.5,2-0.7,3-0.7c3.6,0,6.6,2.9,6.6,6.6c0,1.2-0.3,2.3-0.9,3.3c1.7,2,2.9,4.4,3.4,7l0.2-0.7c0.9-2.7,3.4-4.6,6.3-4.6
			c0.7,0,1.3,0.1,2,0.3c1.7,0.5,3,1.7,3.8,3.2c0.8,1.6,1,3.3,0.4,5l-2.1,6.6c-0.3,1-0.9,1.9-1.6,2.6c0.2,0.1,0.3,0.3,0.5,0.5
			l4.6,4.7c2.5,2.6,2.5,6.8-0.1,9.3c-0.9,0.9-2,1.4-3.1,1.7l1.8,5.7c0.5,1.7,0.4,3.4-0.4,5c-0.8,1.6-2.2,2.7-3.8,3.2
			C130,232.1,129.3,232.2,128.7,232.2z"/>
		<path class="st0" d="M113.1,177.4c0.8,0,1.6,0.7,1.6,1.6c0,0.6-0.3,1.1-0.8,1.4c-0.6,0.3-1,0.9-1,1.6v1.7c2.8,1.8,4.6,5,4.6,8.6
			v3.4h4.3h0l0,0v1.8c0,0,0,0,0,0l2.9-1.1c0.4-0.2,0.8-0.5,0.9-1l1.6-5.2c0.2-0.7,0.8-1.1,1.5-1.1c0.2,0,0.3,0,0.5,0.1h0
			c0.8,0.3,1.3,1.1,1,2l-2.1,6.6c-0.1,0.4-0.5,0.8-0.9,1l-4.3,1.7c-0.2,0.1-0.4,0.1-0.6,0.1c-0.2,0-0.4,0-0.6-0.1v5.1
			c0.2-0.1,0.4-0.2,0.7-0.2h4.7c0.4,0,0.8,0.2,1.1,0.5l4.6,4.7c0.6,0.6,0.6,1.6,0,2.2l0,0c-0.3,0.3-0.7,0.4-1.1,0.4
			c-0.4,0-0.8-0.2-1.1-0.5l-3.7-3.8c-0.3-0.3-0.7-0.5-1.1-0.5h-3.3c-0.2,0-0.5-0.1-0.7-0.2v1.9c0,1.8-0.3,3.5-0.9,5.1
			c0.2,0,0.3,0,0.5,0.1l5.9,2.3c0.4,0.2,0.8,0.5,0.9,1l2.1,6.6c0.3,0.8-0.2,1.7-1,2c-0.2,0-0.3,0.1-0.5,0.1c-0.7,0-1.3-0.4-1.5-1.1
			l-1.6-5.2c-0.1-0.4-0.5-0.8-0.9-1l-4.5-1.8c-0.2-0.1-0.4-0.2-0.6-0.4c-2.6,4.1-7.1,6.8-12.2,6.8c-5.2,0-9.7-2.7-12.2-6.8
			c-0.2,0.2-0.4,0.3-0.6,0.4l-4.5,1.8c-0.4,0.2-0.8,0.5-0.9,1l-1.6,5.2c-0.2,0.7-0.8,1.1-1.5,1.1c-0.2,0-0.3,0-0.5-0.1
			c-0.8-0.3-1.3-1.1-1-2l2.1-6.6c0.1-0.4,0.5-0.8,0.9-1l5.9-2.3c0.1-0.1,0.3-0.1,0.5-0.1c-0.6-1.6-0.9-3.3-0.9-5.1v-1.9
			c-0.2,0.1-0.4,0.2-0.7,0.2h-3.3c-0.4,0-0.8,0.2-1.1,0.5l-3.7,3.8c-0.3,0.3-0.7,0.5-1.1,0.5c-0.4,0-0.8-0.1-1.1-0.4l0,0
			c-0.6-0.6-0.6-1.6,0-2.2l4.6-4.7c0.3-0.3,0.7-0.5,1.1-0.5h4.7c0.2,0,0.5,0.1,0.7,0.2v-5.1c-0.2,0.1-0.4,0.1-0.6,0.1
			c-0.2,0-0.4,0-0.6-0.1l-4.3-1.7c-0.4-0.2-0.8-0.5-0.9-1l-2.1-6.6c-0.3-0.8,0.2-1.7,1-2h0c0.2,0,0.3-0.1,0.5-0.1
			c0.7,0,1.3,0.4,1.5,1.1l1.6,5.2c0.1,0.4,0.5,0.8,0.9,1l2.9,1.1c0,0,0,0,0,0v-1.8h0h4.3v-3.4c0-3.7,2-6.9,4.9-8.7
			c-0.1-0.2-0.2-0.5-0.2-0.8V182c0-0.7-0.4-1.3-1-1.6c-0.5-0.3-0.8-0.8-0.8-1.4c0-0.9,0.7-1.6,1.6-1.6c0.2,0,0.5,0.1,0.7,0.2
			c1.6,0.8,2.7,2.5,2.7,4.4v0.3c0.8-0.2,1.6-0.3,2.5-0.3c0.8,0,1.7,0.1,2.5,0.3V182c0-1.9,1.1-3.6,2.7-4.4
			C112.6,177.5,112.9,177.4,113.1,177.4 M113.1,167.4C113.1,167.4,113.1,167.4,113.1,167.4c-1.8,0-3.6,0.4-5.3,1.3
			c-0.2,0.1-0.4,0.2-0.6,0.3c-0.2-0.1-0.4-0.2-0.6-0.3c-1.6-0.8-3.4-1.3-5.3-1.3c-6.4,0-11.6,5.2-11.6,11.6c0,0.3,0,0.5,0,0.8
			c-1.3-0.5-2.6-0.7-4-0.7c-1.2,0-2.4,0.2-3.5,0.5c-2.9,0.9-5.3,3-6.8,5.7c-1.4,2.7-1.7,5.9-0.8,8.8l2.1,6.6c0,0.1,0.1,0.2,0.1,0.3
			l-2.4,2.5c-2.2,2.2-3.3,5.1-3.3,8.2c0,3.1,1.3,6,3.5,8.1c0.2,0.2,0.4,0.4,0.6,0.6l-0.6,1.8c-1.9,6.1,1.4,12.6,7.5,14.5
			c1.1,0.4,2.3,0.5,3.5,0.5c4.1,0,7.8-2.1,9.9-5.5c3.5,1.9,7.4,2.9,11.5,2.9c4.1,0,8.1-1,11.5-2.9c2.1,3.4,5.8,5.5,9.9,5.5
			c1.2,0,2.4-0.2,3.5-0.5c6.1-1.9,9.4-8.4,7.5-14.5l-0.6-1.8c0.2-0.2,0.4-0.4,0.6-0.6c2.2-2.2,3.4-5,3.5-8.1c0-3.1-1.1-6-3.3-8.2
			l-2.4-2.5c0-0.1,0.1-0.2,0.1-0.3l2.1-6.6c1.9-6.1-1.4-12.6-7.5-14.5c-1.1-0.4-2.3-0.5-3.5-0.5c-1.4,0-2.8,0.3-4,0.7
			c0-0.3,0-0.5,0-0.8C124.7,172.6,119.5,167.4,113.1,167.4L113.1,167.4L113.1,167.4z"/>
	</g>
	<g>
		<path class="st0" d="M128.7,292.7c-2.9,0-5.4-1.8-6.3-4.6l-1.1-3.6l-0.3-0.1c-3.6,3.6-8.5,5.7-13.7,5.7s-10.1-2.1-13.7-5.7
			l-0.3,0.1l-1.1,3.6c-0.9,2.7-3.4,4.6-6.3,4.6c-0.7,0-1.3-0.1-2-0.3c-3.5-1.1-5.4-4.8-4.3-8.2l1.8-5.7c-1.2-0.3-2.3-0.8-3.1-1.7
			c-1.3-1.2-2-2.9-2-4.6s0.6-3.4,1.9-4.7l4.6-4.7c0.2-0.2,0.3-0.3,0.5-0.5c-0.7-0.7-1.2-1.6-1.6-2.6l-2.1-6.6
			c-0.5-1.7-0.4-3.4,0.4-5c0.8-1.6,2.2-2.7,3.8-3.2c0.6-0.2,1.3-0.3,2-0.3c2.9,0,5.4,1.8,6.3,4.6l0.2,0.7c0.5-2.6,1.7-5,3.4-7
			c-0.6-1-0.9-2.1-0.9-3.3c0-3.6,2.9-6.6,6.6-6.6c1,0,2.1,0.2,3,0.7c1.1,0.6,2.1,1.3,2.8,2.2c0.8-0.9,1.8-1.6,2.8-2.2
			c0.9-0.5,2-0.7,3-0.7c3.6,0,6.6,2.9,6.6,6.6c0,1.2-0.3,2.3-0.9,3.3c1,1.2,1.9,2.6,2.5,4c0.2,0.5,0.4,0.9,0.5,1.4
			c0.2,0.5,0.3,1.1,0.4,1.6l0.2-0.7c0.9-2.7,3.4-4.6,6.3-4.6c0.7,0,1.3,0.1,2,0.3c3.4,1.1,5.4,4.8,4.3,8.2l-2.1,6.6
			c-0.3,1-0.9,1.9-1.6,2.6c0.2,0.1,0.3,0.3,0.5,0.5l4.6,4.7c1.2,1.3,1.9,2.9,1.9,4.7s-0.7,3.4-2,4.6c-0.9,0.9-2,1.4-3.1,1.7l1.8,5.7
			c1.1,3.4-0.8,7.1-4.3,8.2C130,292.6,129.4,292.7,128.7,292.7z"/>
		<path class="st0" d="M113.1,237.9c0.8,0,1.6,0.7,1.6,1.6c0,0.6-0.3,1.1-0.8,1.4c-0.6,0.3-1,0.9-1,1.6v1.7c0.6,0.4,1.1,0.8,1.6,1.3
			c0.9,0.9,1.7,2,2.2,3.2c0.1,0.3,0.2,0.6,0.3,0.9c0.3,1,0.5,2,0.5,3v0v3.4h4.3h0l0,0v1.8c0,0,0,0,0,0l2.9-1.1
			c0.4-0.2,0.8-0.5,0.9-1l1.6-5.2c0.2-0.7,0.8-1.1,1.5-1.1c0.2,0,0.3,0,0.5,0.1l0,0c0.8,0.3,1.3,1.1,1,2l-2.1,6.6
			c-0.1,0.4-0.5,0.8-0.9,1l-4.3,1.7c-0.2,0.1-0.4,0.1-0.6,0.1c-0.2,0-0.4,0-0.6-0.1v5.1c0.2-0.1,0.4-0.2,0.7-0.2h4.7
			c0.4,0,0.8,0.2,1.1,0.5l4.6,4.7c0.6,0.6,0.6,1.6,0,2.2l0,0c-0.3,0.3-0.7,0.4-1.1,0.4c-0.4,0-0.8-0.2-1.1-0.5l-3.7-3.8
			c-0.3-0.3-0.7-0.5-1.1-0.5h-3.3c-0.2,0-0.5-0.1-0.7-0.2v1.9c0,1.8-0.3,3.5-0.9,5.1c0.2,0,0.3,0,0.5,0.1l5.9,2.3
			c0.4,0.2,0.8,0.5,0.9,1l2.1,6.6c0.3,0.8-0.2,1.7-1,2v0c-0.2,0-0.3,0.1-0.5,0.1c-0.7,0-1.3-0.4-1.5-1.1l-1.6-5.2
			c-0.1-0.4-0.5-0.8-0.9-1l-4.5-1.8c-0.2-0.1-0.4-0.2-0.6-0.4c-2.6,4.1-7.1,6.8-12.2,6.8c-5.2,0-9.7-2.7-12.2-6.8
			c-0.2,0.2-0.4,0.3-0.6,0.4l-4.5,1.8c-0.4,0.2-0.8,0.5-0.9,1l-1.6,5.2c-0.2,0.7-0.8,1.1-1.5,1.1c-0.2,0-0.3,0-0.5-0.1
			c-0.8-0.3-1.3-1.1-1-2l2.1-6.6c0.1-0.4,0.5-0.8,0.9-1l5.9-2.3c0.1-0.1,0.3-0.1,0.5-0.1c-0.6-1.6-0.9-3.3-0.9-5.1v-1.9
			c-0.2,0.1-0.4,0.2-0.7,0.2h-3.3c-0.4,0-0.8,0.2-1.1,0.5l-3.7,3.8c-0.3,0.3-0.7,0.5-1.1,0.5c-0.4,0-0.8-0.1-1.1-0.4l0,0
			c-0.6-0.6-0.6-1.6,0-2.2l4.6-4.7c0.3-0.3,0.7-0.5,1.1-0.5h4.7c0.2,0,0.5,0.1,0.7,0.2v-5.1c-0.2,0.1-0.4,0.1-0.6,0.1
			c-0.2,0-0.4,0-0.6-0.1l-4.3-1.7c-0.4-0.2-0.8-0.5-0.9-1l-2.1-6.6c-0.3-0.8,0.2-1.7,1-2h0c0.2,0,0.3-0.1,0.5-0.1
			c0.7,0,1.3,0.4,1.5,1.1l1.6,5.2c0.1,0.4,0.5,0.8,0.9,1l2.9,1.1c0,0,0,0,0,0v-1.8h0h4.3v-3.4c0-3.7,2-6.9,4.9-8.7
			c-0.1-0.2-0.2-0.5-0.2-0.8v-0.7c0-0.7-0.4-1.3-1-1.6c-0.5-0.3-0.8-0.8-0.8-1.4c0-0.9,0.7-1.6,1.6-1.6c0.2,0,0.5,0.1,0.7,0.2
			c1.6,0.8,2.7,2.5,2.7,4.4v0.3c0.8-0.2,1.6-0.3,2.5-0.3c0.8,0,1.7,0.1,2.5,0.3v-0.3c0-1.9,1.1-3.6,2.7-4.4
			C112.6,238,112.9,237.9,113.1,237.9 M113.1,227.9C113.1,227.9,113.1,227.9,113.1,227.9C113.1,227.9,113.1,227.9,113.1,227.9
			c-1.8,0-3.6,0.4-5.3,1.3c-0.2,0.1-0.4,0.2-0.6,0.3c-0.2-0.1-0.4-0.2-0.6-0.3c-1.6-0.8-3.4-1.3-5.3-1.3c-3,0-5.9,1.2-8.1,3.3
			c-2.2,2.2-3.5,5.2-3.5,8.3c0,0.3,0,0.5,0,0.8c-1.3-0.5-2.6-0.7-4-0.7c-1.2,0-2.4,0.2-3.5,0.5c-2.9,0.9-5.3,3-6.8,5.7
			c-1.4,2.7-1.7,5.9-0.8,8.8l2.1,6.6c0,0.1,0.1,0.2,0.1,0.3l-2.4,2.5c-2.2,2.2-3.3,5.1-3.3,8.2c0,3.1,1.3,6,3.5,8.1
			c0.2,0.2,0.4,0.4,0.6,0.6l-0.6,1.8c-1.9,6.1,1.4,12.6,7.5,14.5c1.1,0.4,2.3,0.5,3.5,0.5c4.1,0,7.8-2.1,9.9-5.5
			c3.5,1.9,7.4,2.9,11.5,2.9c4.1,0,8.1-1,11.5-2.9c2.1,3.4,5.8,5.5,9.9,5.5c1.2,0,2.4-0.2,3.5-0.5c6.1-1.9,9.5-8.4,7.5-14.5
			l-0.6-1.8c0.2-0.2,0.4-0.4,0.6-0.6c2.2-2.2,3.4-5,3.5-8.1c0-3.1-1.1-6-3.3-8.2l-2.4-2.5c0-0.1,0.1-0.2,0.1-0.3l2.1-6.6
			c1.9-6.1-1.4-12.6-7.5-14.5c-1.1-0.4-2.3-0.5-3.5-0.5c-1.4,0-2.8,0.3-4,0.7c0-0.3,0-0.5,0-0.8
			C124.7,233.1,119.5,227.9,113.1,227.9L113.1,227.9L113.1,227.9z"/>
	</g>
	<g>
		<path class="st0" d="M65.7,292.7c-2.9,0-5.4-1.8-6.3-4.6l-1.1-3.6l-0.3-0.1c-3.6,3.6-8.5,5.7-13.7,5.7s-10.1-2.1-13.7-5.7
			l-0.3,0.1l-1.1,3.6c-0.9,2.7-3.4,4.6-6.3,4.6c-0.7,0-1.3-0.1-2-0.3c-3.5-1.1-5.4-4.8-4.3-8.2l1.8-5.7c-1.2-0.3-2.3-0.8-3.1-1.7
			c-2.6-2.5-2.6-6.7-0.1-9.3l4.6-4.7c0.2-0.2,0.3-0.3,0.5-0.5c-0.7-0.7-1.2-1.6-1.6-2.6l-2.1-6.6c-0.5-1.7-0.4-3.4,0.4-5
			c0.8-1.6,2.2-2.7,3.8-3.2c0.6-0.2,1.3-0.3,2-0.3c2.9,0,5.4,1.8,6.3,4.6l0.2,0.7c0.5-2.6,1.7-5,3.4-7c-0.6-1-0.9-2.1-0.9-3.3
			c0-3.6,2.9-6.6,6.6-6.6c1,0,2.1,0.2,3,0.7c1.1,0.6,2.1,1.3,2.8,2.2c0.8-0.9,1.8-1.6,2.8-2.2c0.9-0.5,2-0.7,3-0.7
			c3.6,0,6.6,2.9,6.6,6.6c0,1.2-0.3,2.3-0.9,3.3c1,1.2,1.9,2.6,2.5,4c0.2,0.5,0.4,0.9,0.5,1.4c0.2,0.5,0.3,1.1,0.4,1.6l0.2-0.7
			c0.9-2.7,3.4-4.6,6.3-4.6c0.7,0,1.3,0.1,2,0.3c3.4,1.1,5.4,4.8,4.3,8.2l-2.1,6.6c-0.3,1-0.9,1.9-1.6,2.6c0.2,0.1,0.3,0.3,0.5,0.5
			l4.6,4.7c1.2,1.3,1.9,2.9,1.9,4.7s-0.7,3.4-2,4.6c-0.9,0.9-2,1.4-3.1,1.7l1.8,5.7c1.1,3.5-0.8,7.1-4.3,8.2
			C67,292.6,66.3,292.7,65.7,292.7z"/>
		<path class="st0" d="M50.1,237.9c0.8,0,1.6,0.7,1.6,1.6c0,0.6-0.3,1.1-0.8,1.4c-0.6,0.3-1,0.9-1,1.6v1.7c0.6,0.4,1.1,0.8,1.6,1.3
			c0.9,0.9,1.7,2,2.2,3.2c0.1,0.3,0.2,0.6,0.3,0.9c0.3,1,0.5,2,0.5,3v0v3.4h4.3h0l0,0v1.8c0,0,0,0,0,0l2.9-1.1
			c0.4-0.2,0.8-0.5,0.9-1l1.6-5.2c0.2-0.7,0.8-1.1,1.5-1.1c0.2,0,0.3,0,0.5,0.1l0,0c0.8,0.3,1.3,1.1,1,2l-2.1,6.6
			c-0.1,0.4-0.5,0.8-0.9,1l-4.3,1.7c-0.2,0.1-0.4,0.1-0.6,0.1c-0.2,0-0.4,0-0.6-0.1v5.1c0.2-0.1,0.4-0.2,0.7-0.2h4.7
			c0.4,0,0.8,0.2,1.1,0.5l4.6,4.7c0.6,0.6,0.6,1.6,0,2.2l0,0c-0.3,0.3-0.7,0.4-1.1,0.4c-0.4,0-0.8-0.2-1.1-0.5l-3.7-3.8
			c-0.3-0.3-0.7-0.5-1.1-0.5h-3.3c-0.2,0-0.5-0.1-0.7-0.2v1.9c0,1.8-0.3,3.5-0.9,5.1c0.2,0,0.3,0,0.5,0.1l5.9,2.3
			c0.4,0.2,0.8,0.5,0.9,1l2.1,6.6c0.3,0.8-0.2,1.7-1,2v0c-0.2,0-0.3,0.1-0.5,0.1c-0.7,0-1.3-0.4-1.5-1.1l-1.6-5.2
			c-0.1-0.4-0.5-0.8-0.9-1l-4.5-1.8c-0.2-0.1-0.4-0.2-0.6-0.4c-2.6,4.1-7.1,6.8-12.2,6.8s-9.7-2.7-12.2-6.8
			c-0.2,0.2-0.4,0.3-0.6,0.4l-4.5,1.8c-0.4,0.2-0.8,0.5-0.9,1l-1.6,5.2c-0.2,0.7-0.8,1.1-1.5,1.1c-0.2,0-0.3,0-0.5-0.1
			c-0.8-0.3-1.3-1.1-1-2l2.1-6.6c0.1-0.4,0.5-0.8,0.9-1l5.9-2.3c0.1-0.1,0.3-0.1,0.5-0.1c-0.6-1.6-0.9-3.3-0.9-5.1v-1.9
			c-0.2,0.1-0.4,0.2-0.7,0.2h-3.3c-0.4,0-0.8,0.2-1.1,0.5l-3.7,3.8c-0.3,0.3-0.7,0.5-1.1,0.5c-0.4,0-0.8-0.1-1.1-0.4l0,0
			c-0.6-0.6-0.6-1.6,0-2.2l4.6-4.7c0.3-0.3,0.7-0.5,1.1-0.5h4.7c0.2,0,0.5,0.1,0.7,0.2v-5.1c-0.2,0.1-0.4,0.1-0.6,0.1
			c-0.2,0-0.4,0-0.6-0.1l-4.3-1.7c-0.4-0.2-0.8-0.5-0.9-1l-2.1-6.6c-0.3-0.8,0.2-1.7,1-2c0.2,0,0.3-0.1,0.5-0.1
			c0.7,0,1.3,0.4,1.5,1.1l1.6,5.2c0.1,0.4,0.5,0.8,0.9,1l2.9,1.1c0,0,0,0,0,0v-1.8h0H34v-3.4c0-3.7,2-6.9,4.9-8.7
			c-0.1-0.2-0.2-0.5-0.2-0.8v-0.7c0-0.7-0.4-1.3-1-1.6c-0.5-0.3-0.8-0.8-0.8-1.4c0-0.9,0.7-1.6,1.6-1.6c0.2,0,0.5,0.1,0.7,0.2
			c1.6,0.8,2.7,2.5,2.7,4.4v0.3c0.8-0.2,1.6-0.3,2.5-0.3s1.7,0.1,2.5,0.3v-0.3c0-1.9,1.1-3.6,2.7-4.4
			C49.6,238,49.8,237.9,50.1,237.9 M50.1,227.9C50.1,227.9,50.1,227.9,50.1,227.9C50.1,227.9,50.1,227.9,50.1,227.9
			c-1.8,0-3.6,0.4-5.3,1.3c-0.2,0.1-0.4,0.2-0.6,0.3c-0.2-0.1-0.4-0.2-0.6-0.3c-1.6-0.8-3.4-1.3-5.3-1.3c-3,0-5.9,1.2-8.1,3.3
			c-2.2,2.2-3.5,5.2-3.5,8.3c0,0.3,0,0.5,0,0.8c-1.3-0.5-2.6-0.7-4-0.7c-1.2,0-2.4,0.2-3.5,0.5c-6.1,1.9-9.4,8.4-7.5,14.5l2.1,6.6
			c0,0.1,0.1,0.2,0.1,0.3l-2.4,2.5c-2.2,2.2-3.3,5.1-3.3,8.2c0,3.1,1.3,6,3.5,8.1c0.2,0.2,0.4,0.4,0.6,0.6l-0.6,1.8
			c-1.9,6.1,1.4,12.6,7.5,14.5c1.1,0.4,2.3,0.5,3.5,0.5c4.1,0,7.8-2.1,9.9-5.5c3.5,1.9,7.4,2.9,11.5,2.9c4.1,0,8.1-1,11.5-2.9
			c2.1,3.4,5.8,5.5,9.9,5.5c1.2,0,2.4-0.2,3.5-0.5c6.1-1.9,9.5-8.4,7.5-14.5l-0.6-1.8c0.2-0.2,0.4-0.4,0.6-0.6
			c2.2-2.2,3.4-5,3.5-8.1c0-3.1-1.1-6-3.3-8.2l-2.4-2.5c0-0.1,0.1-0.2,0.1-0.3l2.1-6.6c1.9-6.1-1.4-12.6-7.5-14.5
			c-1.1-0.4-2.3-0.5-3.5-0.5c-1.4,0-2.8,0.3-4,0.7c0-0.3,0-0.5,0-0.8C61.6,233.1,56.5,227.9,50.1,227.9L50.1,227.9L50.1,227.9z"/>
	</g>
	<g>
		<path class="st0" d="M65.7,172.2c-2.9,0-5.4-1.8-6.3-4.6l-1.1-3.6l-0.3-0.1c-3.6,3.6-8.5,5.7-13.7,5.7s-10.1-2.1-13.7-5.7
			l-0.3,0.1l-1.1,3.6c-0.9,2.7-3.4,4.6-6.3,4.6c-0.7,0-1.3-0.1-2-0.3c-1.7-0.5-3-1.7-3.8-3.2c-0.8-1.6-1-3.3-0.4-5l1.8-5.7
			c-1.2-0.3-2.3-0.8-3.1-1.7c-2.6-2.5-2.6-6.7-0.1-9.3l4.6-4.7c0.2-0.2,0.3-0.3,0.5-0.5c-0.7-0.7-1.2-1.6-1.6-2.6l-2.1-6.6
			c-1.1-3.4,0.8-7.1,4.3-8.2c0.6-0.2,1.3-0.3,2-0.3c2.9,0,5.4,1.8,6.3,4.6l0.2,0.7c0.5-2.6,1.7-5,3.4-7c-0.6-1-0.9-2.1-0.9-3.3
			c0-3.6,2.9-6.6,6.6-6.6c1,0,2.1,0.3,3,0.7c1.1,0.6,2.1,1.3,2.8,2.2c0.8-0.9,1.8-1.6,2.8-2.2c0.9-0.5,2-0.7,3-0.7
			c3.6,0,6.6,2.9,6.6,6.6c0,1.2-0.3,2.3-0.9,3.3c1.7,2,2.9,4.4,3.4,7l0.2-0.7c0.9-2.7,3.4-4.6,6.3-4.6c0.7,0,1.3,0.1,2,0.3
			c3.4,1.1,5.4,4.8,4.3,8.2l-2.1,6.6c-0.3,1-0.9,1.9-1.6,2.6c0.2,0.1,0.3,0.3,0.5,0.4l4.6,4.7c2.5,2.6,2.5,6.8-0.1,9.3
			c-0.9,0.9-2,1.4-3.1,1.7l1.8,5.7c0.5,1.7,0.4,3.4-0.4,5c-0.8,1.6-2.2,2.7-3.8,3.2C67,172.1,66.3,172.2,65.7,172.2z"/>
		<path class="st0" d="M50.1,117.4c0.8,0,1.6,0.7,1.6,1.6c0,0.6-0.3,1.1-0.8,1.4c-0.6,0.3-1,0.9-1,1.6v1.7c2.8,1.8,4.6,5,4.6,8.6
			v3.4h4.3h0l0,0v1.8c0,0,0,0,0,0l2.9-1.1c0.4-0.2,0.8-0.5,0.9-1l1.6-5.2c0.2-0.7,0.8-1.1,1.5-1.1c0.2,0,0.3,0,0.5,0.1h0
			c0.8,0.3,1.3,1.1,1,2l-2.1,6.6c-0.1,0.4-0.5,0.8-0.9,1l-4.3,1.7c-0.2,0.1-0.4,0.1-0.6,0.1c-0.2,0-0.4,0-0.6-0.1v5.1
			c0.2-0.1,0.4-0.2,0.7-0.2h4.7c0.4,0,0.8,0.2,1.1,0.5l4.6,4.7c0.6,0.6,0.6,1.6,0,2.2l0,0c-0.3,0.3-0.7,0.4-1.1,0.4
			c-0.4,0-0.8-0.2-1.1-0.5l-3.7-3.8c-0.3-0.3-0.7-0.5-1.1-0.5h-3.3c-0.2,0-0.5-0.1-0.7-0.2v1.9c0,1.8-0.3,3.5-0.9,5.1
			c0.2,0,0.3,0,0.5,0.1l5.9,2.3c0.4,0.2,0.8,0.5,0.9,1l2.1,6.6c0.3,0.8-0.2,1.7-1,2c-0.2,0-0.3,0.1-0.5,0.1c-0.7,0-1.3-0.4-1.5-1.1
			l-1.6-5.2c-0.1-0.4-0.5-0.8-0.9-1l-4.5-1.8c-0.2-0.1-0.4-0.2-0.6-0.4c-2.6,4.1-7.1,6.8-12.2,6.8s-9.7-2.7-12.2-6.8
			c-0.2,0.2-0.4,0.3-0.6,0.4l-4.5,1.8c-0.4,0.2-0.8,0.5-0.9,1l-1.6,5.2c-0.2,0.7-0.8,1.1-1.5,1.1c-0.2,0-0.3,0-0.5-0.1
			c-0.8-0.3-1.3-1.1-1-2l2.1-6.6c0.1-0.4,0.5-0.8,0.9-1l5.9-2.3c0.1-0.1,0.3-0.1,0.5-0.1c-0.6-1.6-0.9-3.3-0.9-5.1v-1.9
			c-0.2,0.1-0.4,0.2-0.7,0.2h-3.3c-0.4,0-0.8,0.2-1.1,0.5l-3.7,3.8c-0.3,0.3-0.7,0.5-1.1,0.5c-0.4,0-0.8-0.1-1.1-0.4l0,0
			c-0.6-0.6-0.6-1.6,0-2.2l4.6-4.7c0.3-0.3,0.7-0.5,1.1-0.5h4.7c0.2,0,0.5,0.1,0.7,0.2v-5.1c-0.2,0.1-0.4,0.1-0.6,0.1
			c-0.2,0-0.4,0-0.6-0.1l-4.3-1.7c-0.4-0.2-0.8-0.5-0.9-1l-2.1-6.6c-0.3-0.8,0.2-1.7,1-2c0.2,0,0.3-0.1,0.5-0.1
			c0.7,0,1.3,0.4,1.5,1.1l1.6,5.2c0.1,0.4,0.5,0.8,0.9,1l2.9,1.1c0,0,0,0,0,0v-1.8h0H34v-3.4c0-3.7,2-6.9,4.9-8.7
			c-0.1-0.2-0.2-0.5-0.2-0.8V122c0-0.7-0.4-1.3-1-1.6c-0.5-0.3-0.8-0.8-0.8-1.4c0-0.9,0.7-1.6,1.6-1.6c0.2,0,0.5,0.1,0.7,0.2
			c1.6,0.8,2.7,2.5,2.7,4.4v0.3c0.8-0.2,1.6-0.3,2.5-0.3s1.7,0.1,2.5,0.3V122c0-1.9,1.1-3.6,2.7-4.4
			C49.6,117.5,49.8,117.4,50.1,117.4 M50.1,107.4C50.1,107.4,50.1,107.4,50.1,107.4c-1.8,0-3.6,0.4-5.3,1.3
			c-0.2,0.1-0.4,0.2-0.6,0.3c-0.2-0.1-0.4-0.2-0.6-0.3c-1.6-0.8-3.4-1.3-5.3-1.3c-6.4,0-11.6,5.2-11.6,11.6c0,0.3,0,0.5,0,0.8
			c-1.3-0.5-2.6-0.7-4-0.7c-1.2,0-2.4,0.2-3.5,0.5c-6.1,1.9-9.4,8.4-7.5,14.5l2.1,6.6c0,0.1,0.1,0.2,0.1,0.3l-2.4,2.5
			c-2.2,2.2-3.3,5.1-3.3,8.2c0,3.1,1.3,6,3.5,8.1c0.2,0.2,0.4,0.4,0.6,0.6l-0.6,1.8c-1.9,6.1,1.4,12.6,7.5,14.5
			c1.1,0.4,2.3,0.5,3.5,0.5c4.1,0,7.8-2.1,9.9-5.5c3.5,1.9,7.4,2.9,11.5,2.9c4.1,0,8.1-1,11.5-2.9c2.1,3.4,5.8,5.5,9.9,5.5
			c1.2,0,2.4-0.2,3.5-0.5c6.1-1.9,9.4-8.4,7.5-14.5l-0.6-1.8c0.2-0.2,0.4-0.4,0.6-0.6c4.6-4.5,4.6-11.8,0.2-16.3l-2.4-2.5
			c0-0.1,0.1-0.2,0.1-0.3l2.1-6.6c1.9-6.1-1.4-12.6-7.5-14.5c-1.1-0.4-2.3-0.5-3.5-0.5c-1.4,0-2.8,0.3-4,0.7c0-0.3,0-0.5,0-0.8
			C61.6,112.6,56.5,107.4,50.1,107.4L50.1,107.4L50.1,107.4z"/>
	</g>
	<g>
		<path class="st0" d="M258.8,230.2c-2.9,0-5.4-1.8-6.3-4.6l-1.1-3.6l-0.3-0.1c-3.6,3.6-8.5,5.7-13.7,5.7c-5.2,0-10.1-2.1-13.7-5.7
			l-0.3,0.1l-1.1,3.6c-0.9,2.7-3.4,4.6-6.3,4.6c-0.7,0-1.3-0.1-2-0.3c-1.7-0.5-3-1.7-3.8-3.2s-1-3.3-0.4-5l1.8-5.7
			c-1.2-0.3-2.3-0.8-3.1-1.7c-2.6-2.5-2.6-6.7-0.1-9.3l4.6-4.7c0.2-0.2,0.3-0.3,0.5-0.5c-0.7-0.7-1.2-1.6-1.6-2.6l-2.1-6.6
			c-0.5-1.7-0.4-3.4,0.4-5c0.8-1.6,2.2-2.7,3.8-3.2c0.6-0.2,1.3-0.3,2-0.3c2.9,0,5.4,1.8,6.3,4.6l0.2,0.7c0.5-2.6,1.7-5,3.4-7
			c-0.6-1-0.9-2.1-0.9-3.3c0-3.6,2.9-6.6,6.6-6.6c1,0,2.1,0.3,3,0.7c1.1,0.6,2.1,1.3,2.8,2.2c0.8-0.9,1.8-1.6,2.8-2.2
			c0.9-0.5,2-0.7,3-0.7c3.6,0,6.6,2.9,6.6,6.6c0,1.2-0.3,2.3-0.9,3.3c1.7,2,2.9,4.4,3.4,7l0.2-0.7c0.9-2.7,3.4-4.6,6.3-4.6
			c0.7,0,1.3,0.1,2,0.3c3.4,1.1,5.4,4.8,4.3,8.2l-2.1,6.6c-0.3,1-0.9,1.9-1.6,2.6c0.2,0.1,0.3,0.3,0.5,0.5l4.6,4.7
			c1.2,1.3,1.9,2.9,1.9,4.7c0,1.8-0.7,3.4-2,4.6c-0.9,0.9-2,1.4-3.1,1.7l1.8,5.7c0.5,1.7,0.4,3.4-0.4,5c-0.8,1.6-2.2,2.7-3.8,3.2
			C260.2,230.1,259.5,230.2,258.8,230.2z"/>
		<path class="st0" d="M243.2,175.4c0.8,0,1.6,0.7,1.6,1.6c0,0.6-0.3,1.1-0.8,1.4c-0.6,0.3-1,0.9-1,1.6v1.7c2.8,1.8,4.6,5,4.6,8.6
			v3.4h4.3h0l0,0v1.8c0,0,0,0,0,0l2.9-1.1c0.4-0.2,0.8-0.5,0.9-1l1.6-5.2c0.2-0.7,0.8-1.1,1.5-1.1c0.2,0,0.3,0,0.5,0.1l0,0
			c0.8,0.3,1.3,1.1,1,2l-2.1,6.6c-0.1,0.4-0.5,0.8-0.9,1l-4.3,1.7c-0.2,0.1-0.4,0.1-0.6,0.1c-0.2,0-0.4,0-0.6-0.1v5.1
			c0.2-0.1,0.4-0.2,0.7-0.2h4.7c0.4,0,0.8,0.2,1.1,0.5l4.6,4.7c0.6,0.6,0.6,1.6,0,2.2l0,0c-0.3,0.3-0.7,0.4-1.1,0.4
			c-0.4,0-0.8-0.2-1.1-0.5l-3.7-3.8c-0.3-0.3-0.7-0.5-1.1-0.5h-3.3c-0.2,0-0.5-0.1-0.7-0.2v1.9c0,1.8-0.3,3.5-0.9,5.1
			c0.2,0,0.3,0,0.5,0.1l5.9,2.3c0.4,0.2,0.8,0.5,0.9,1l2.1,6.6c0.3,0.8-0.2,1.7-1,2c-0.2,0-0.3,0.1-0.5,0.1c-0.7,0-1.3-0.4-1.5-1.1
			l-1.6-5.2c-0.1-0.4-0.5-0.8-0.9-1l-4.5-1.8c-0.2-0.1-0.4-0.2-0.6-0.4c-2.6,4.1-7.1,6.8-12.2,6.8c-5.2,0-9.7-2.7-12.2-6.8
			c-0.2,0.2-0.4,0.3-0.6,0.4l-4.5,1.8c-0.4,0.2-0.8,0.5-0.9,1l-1.6,5.2c-0.2,0.7-0.8,1.1-1.5,1.1c-0.2,0-0.3,0-0.5-0.1
			c-0.8-0.3-1.3-1.1-1-2l2.1-6.6c0.1-0.4,0.5-0.8,0.9-1l5.9-2.3c0.1-0.1,0.3-0.1,0.5-0.1c-0.6-1.6-0.9-3.3-0.9-5.1v-1.9
			c-0.2,0.1-0.4,0.2-0.7,0.2h-3.3c-0.4,0-0.8,0.2-1.1,0.5l-3.7,3.8c-0.3,0.3-0.7,0.5-1.1,0.5c-0.4,0-0.8-0.1-1.1-0.4l0,0
			c-0.6-0.6-0.6-1.6,0-2.2l4.6-4.7c0.3-0.3,0.7-0.5,1.1-0.5h4.7c0.2,0,0.5,0.1,0.7,0.2v-5.1c-0.2,0.1-0.4,0.1-0.6,0.1
			c-0.2,0-0.4,0-0.6-0.1l-4.3-1.7c-0.4-0.2-0.8-0.5-0.9-1l-2.1-6.6c-0.3-0.8,0.2-1.7,1-2c0.2,0,0.3-0.1,0.5-0.1
			c0.7,0,1.3,0.4,1.5,1.1l1.6,5.2c0.1,0.4,0.5,0.8,0.9,1l2.9,1.1c0,0,0,0,0,0v-1.8h0h4.3v-3.4c0-3.7,2-6.9,4.9-8.7
			c-0.1-0.2-0.2-0.5-0.2-0.8V180c0-0.7-0.4-1.3-1-1.6c-0.5-0.3-0.8-0.8-0.8-1.4c0-0.9,0.7-1.6,1.6-1.6c0.2,0,0.5,0.1,0.7,0.2
			c1.6,0.8,2.7,2.5,2.7,4.4v0.3c0.8-0.2,1.6-0.3,2.5-0.3s1.7,0.1,2.5,0.3V180c0-1.9,1.1-3.6,2.7-4.4
			C242.8,175.4,243,175.4,243.2,175.4 M243.2,165.4C243.2,165.4,243.2,165.4,243.2,165.4C243.2,165.4,243.2,165.4,243.2,165.4
			c-1.8,0-3.6,0.4-5.3,1.3c-0.2,0.1-0.4,0.2-0.6,0.3c-0.2-0.1-0.4-0.2-0.6-0.3c-1.6-0.8-3.4-1.3-5.3-1.3c-3,0-5.9,1.2-8.1,3.3
			c-2.2,2.2-3.5,5.2-3.5,8.3c0,0.3,0,0.5,0,0.8c-1.3-0.5-2.6-0.7-4-0.7c-1.2,0-2.4,0.2-3.5,0.5c-6.1,1.9-9.4,8.4-7.5,14.5l2.1,6.6
			c0,0.1,0.1,0.2,0.1,0.3l-2.4,2.5c-2.2,2.2-3.3,5.1-3.3,8.2c0,3.1,1.3,6,3.5,8.1c0.2,0.2,0.4,0.4,0.6,0.6l-0.6,1.8
			c-0.9,2.9-0.7,6.1,0.8,8.8c1.4,2.7,3.8,4.8,6.8,5.7c1.1,0.4,2.3,0.5,3.5,0.5c4.1,0,7.8-2.1,9.9-5.5c3.5,1.9,7.4,2.9,11.5,2.9
			c4.1,0,8.1-1,11.5-2.9c2.1,3.4,5.8,5.5,9.9,5.5c1.2,0,2.4-0.2,3.5-0.5c2.9-0.9,5.3-3,6.8-5.7c1.4-2.7,1.7-5.9,0.8-8.8l-0.6-1.8
			c0.2-0.2,0.4-0.4,0.6-0.6c2.2-2.2,3.4-5,3.5-8.1c0-3.1-1.1-6-3.3-8.2l-2.4-2.5c0-0.1,0.1-0.2,0.1-0.3l2.1-6.6
			c1.9-6.1-1.4-12.6-7.5-14.5c-1.1-0.4-2.3-0.5-3.5-0.5c-1.4,0-2.8,0.3-4,0.7c0-0.3,0-0.5,0-0.8
			C254.8,170.6,249.6,165.4,243.2,165.4L243.2,165.4L243.2,165.4z"/>
	</g>
	<g>
		<path class="st0" d="M321.8,170.2c-2.9,0-5.4-1.8-6.3-4.6l-1.1-3.6l-0.3-0.1c-3.6,3.6-8.5,5.7-13.7,5.7s-10.1-2.1-13.7-5.7
			l-0.3,0.1l-1.1,3.6c-0.9,2.7-3.4,4.6-6.3,4.6c-0.7,0-1.3-0.1-2-0.3c-3.4-1.1-5.4-4.8-4.3-8.2l1.8-5.7c-1.2-0.3-2.3-0.8-3.1-1.7
			c-2.6-2.5-2.6-6.7-0.1-9.3l4.6-4.7c0.2-0.2,0.3-0.3,0.5-0.5c-0.7-0.7-1.2-1.6-1.6-2.6l-2.1-6.6c-1.1-3.4,0.8-7.1,4.3-8.2
			c0.6-0.2,1.3-0.3,2-0.3c2.9,0,5.4,1.8,6.3,4.6l0.2,0.7c0.5-2.6,1.7-5,3.4-7c-0.6-1-0.9-2.1-0.9-3.3c0-3.6,2.9-6.6,6.6-6.6
			c1,0,2.1,0.3,3,0.7c1.1,0.6,2.1,1.3,2.8,2.2c0.8-0.9,1.8-1.6,2.8-2.2c0.9-0.5,2-0.7,3-0.7c3.6,0,6.6,2.9,6.6,6.6
			c0,1.2-0.3,2.3-0.9,3.3c1.7,2,2.9,4.4,3.4,7l0.2-0.7c0.9-2.7,3.4-4.6,6.3-4.6c0.7,0,1.3,0.1,2,0.3c3.4,1.1,5.4,4.8,4.3,8.2
			l-2.1,6.6c-0.3,1-0.9,1.9-1.6,2.6c0.2,0.1,0.3,0.3,0.5,0.4l4.6,4.7c1.2,1.3,1.9,2.9,1.9,4.7c0,1.8-0.7,3.4-2,4.6
			c-0.9,0.9-2,1.4-3.1,1.7l1.8,5.7c1.1,3.4-0.8,7.1-4.3,8.2C323.2,170.1,322.5,170.2,321.8,170.2z"/>
		<path class="st0" d="M306.3,115.4c0.8,0,1.6,0.7,1.6,1.6c0,0.6-0.3,1.1-0.8,1.4c-0.6,0.3-1,0.9-1,1.6v1.7c2.8,1.8,4.6,5,4.6,8.6
			v3.4h4.3h0l0,0v1.8c0,0,0,0,0,0l2.9-1.1c0.4-0.2,0.8-0.5,0.9-1l1.6-5.2c0.2-0.7,0.8-1.1,1.5-1.1c0.2,0,0.3,0,0.5,0.1l0,0
			c0.8,0.3,1.3,1.1,1,2l-2.1,6.6c-0.1,0.4-0.5,0.8-0.9,1l-4.3,1.7c-0.2,0.1-0.4,0.1-0.6,0.1c-0.2,0-0.4,0-0.6-0.1v5.1
			c0.2-0.1,0.4-0.2,0.7-0.2h4.7c0.4,0,0.8,0.2,1.1,0.5l4.6,4.7c0.6,0.6,0.6,1.6,0,2.2l0,0c-0.3,0.3-0.7,0.4-1.1,0.4
			c-0.4,0-0.8-0.2-1.1-0.5l-3.7-3.8c-0.3-0.3-0.7-0.5-1.1-0.5h-3.3c-0.2,0-0.5-0.1-0.7-0.2v1.9c0,1.8-0.3,3.5-0.9,5.1
			c0.2,0,0.3,0,0.5,0.1l5.9,2.3c0.4,0.2,0.8,0.5,0.9,1l2.1,6.6c0.3,0.8-0.2,1.7-1,2c-0.2,0-0.3,0.1-0.5,0.1c-0.7,0-1.3-0.4-1.5-1.1
			l-1.6-5.2c-0.1-0.4-0.5-0.8-0.9-1l-4.5-1.8c-0.2-0.1-0.4-0.2-0.6-0.4c-2.6,4.1-7.1,6.8-12.2,6.8s-9.7-2.7-12.2-6.8
			c-0.2,0.2-0.4,0.3-0.6,0.4l-4.5,1.8c-0.4,0.2-0.8,0.5-0.9,1l-1.6,5.2c-0.2,0.7-0.8,1.1-1.5,1.1c-0.2,0-0.3,0-0.5-0.1
			c-0.8-0.3-1.3-1.1-1-2l2.1-6.6c0.1-0.4,0.5-0.8,0.9-1l5.9-2.3c0.1-0.1,0.3-0.1,0.5-0.1c-0.6-1.6-0.9-3.3-0.9-5.1v-1.9
			c-0.2,0.1-0.4,0.2-0.7,0.2h-3.3c-0.4,0-0.8,0.2-1.1,0.5l-3.7,3.8c-0.3,0.3-0.7,0.5-1.1,0.5c-0.4,0-0.8-0.1-1.1-0.4l0,0
			c-0.6-0.6-0.6-1.6,0-2.2l4.6-4.7c0.3-0.3,0.7-0.5,1.1-0.5h4.7c0.2,0,0.5,0.1,0.7,0.2v-5.1c-0.2,0.1-0.4,0.1-0.6,0.1
			c-0.2,0-0.4,0-0.6-0.1l-4.3-1.7c-0.4-0.2-0.8-0.5-0.9-1l-2.1-6.6c-0.3-0.8,0.2-1.7,1-2v0c0.2,0,0.3-0.1,0.5-0.1
			c0.7,0,1.3,0.4,1.5,1.1l1.6,5.2c0.1,0.4,0.5,0.8,0.9,1l2.9,1.1c0,0,0,0,0,0v-1.8h0h4.3v-3.4c0-3.7,2-6.9,4.9-8.7
			c-0.1-0.2-0.2-0.5-0.2-0.8V120c0-0.7-0.4-1.3-1-1.6c-0.5-0.3-0.8-0.8-0.8-1.4c0-0.9,0.7-1.6,1.6-1.6c0.2,0,0.5,0.1,0.7,0.2
			c1.6,0.8,2.7,2.5,2.7,4.4v0.3c0.8-0.2,1.6-0.3,2.5-0.3s1.7,0.1,2.5,0.3V120c0-1.9,1.1-3.6,2.7-4.4
			C305.8,115.5,306,115.4,306.3,115.4 M306.3,105.4C306.3,105.4,306.3,105.4,306.3,105.4C306.3,105.4,306.3,105.4,306.3,105.4
			c-1.8,0-3.6,0.4-5.3,1.3c-0.2,0.1-0.4,0.2-0.6,0.3c-0.2-0.1-0.4-0.2-0.6-0.3c-1.6-0.8-3.4-1.3-5.3-1.3c-3,0-5.9,1.2-8.1,3.3
			c-2.2,2.2-3.5,5.2-3.5,8.3c0,0.3,0,0.5,0,0.8c-1.3-0.5-2.6-0.7-4-0.7c-1.2,0-2.4,0.2-3.5,0.5c-6.1,1.9-9.4,8.4-7.5,14.5l2.1,6.6
			c0,0.1,0.1,0.2,0.1,0.3l-2.4,2.5c-2.2,2.2-3.3,5.1-3.3,8.2c0,3.1,1.3,6,3.5,8.1c0.2,0.2,0.4,0.4,0.6,0.6l-0.6,1.8
			c-1.9,6.1,1.4,12.6,7.5,14.5c1.1,0.4,2.3,0.5,3.5,0.5c4.1,0,7.8-2.1,9.9-5.5c3.5,1.9,7.4,2.9,11.5,2.9s8.1-1,11.5-2.9
			c2.1,3.4,5.8,5.5,9.9,5.5c1.2,0,2.4-0.2,3.5-0.5c2.9-0.9,5.3-3,6.8-5.7c1.4-2.7,1.7-5.9,0.8-8.8l-0.6-1.8c0.2-0.2,0.4-0.4,0.6-0.6
			c2.2-2.2,3.4-5,3.5-8.1c0-3.1-1.1-6-3.3-8.2l-2.4-2.5c0-0.1,0.1-0.2,0.1-0.3l2.1-6.6c1.9-6.1-1.4-12.6-7.5-14.5
			c-1.1-0.4-2.3-0.5-3.5-0.5c-1.4,0-2.8,0.3-4,0.7c0-0.3,0-0.5,0-0.8C317.8,110.6,312.6,105.4,306.3,105.4L306.3,105.4L306.3,105.4z
			"/>
	</g>
	<g>
		<path class="st0" d="M321.8,351.2c-2.9,0-5.4-1.8-6.3-4.6l-1.1-3.6l-0.3-0.1c-3.6,3.6-8.5,5.7-13.7,5.7c-5.2,0-10.1-2.1-13.7-5.7
			l-0.3,0.1l-1.1,3.6c-0.9,2.7-3.4,4.6-6.3,4.6c-0.7,0-1.3-0.1-2-0.3c-3.4-1.1-5.4-4.8-4.3-8.2l1.8-5.7c-1.2-0.3-2.3-0.8-3.1-1.7
			c-2.6-2.5-2.6-6.7-0.1-9.3l4.6-4.7c0.2-0.2,0.3-0.3,0.5-0.5c-0.7-0.7-1.2-1.6-1.6-2.6l-2.1-6.6c-1.1-3.4,0.8-7.1,4.3-8.2
			c0.7-0.2,1.3-0.3,2-0.3c2.9,0,5.4,1.8,6.3,4.6l0.2,0.7c0.5-2.6,1.7-5,3.4-7c-0.6-1-0.9-2.1-0.9-3.3c0-3.6,2.9-6.6,6.6-6.6
			c1,0,2.1,0.3,3,0.7c1.1,0.6,2.1,1.3,2.8,2.2c0.8-0.9,1.8-1.6,2.8-2.2c0.9-0.5,2-0.7,3-0.7c3.6,0,6.6,2.9,6.6,6.6
			c0,1.2-0.3,2.3-0.9,3.3c1.7,2,2.9,4.4,3.4,7l0.2-0.7c0.9-2.7,3.4-4.6,6.3-4.6c0.7,0,1.3,0.1,2,0.3c3.4,1.1,5.4,4.8,4.3,8.2
			l-2.1,6.6c-0.3,1-0.9,1.9-1.6,2.6c0.2,0.1,0.3,0.3,0.5,0.5l4.6,4.7c1.2,1.3,1.9,2.9,1.9,4.7c0,1.8-0.7,3.4-2,4.6
			c-0.9,0.9-2,1.4-3.1,1.7l1.8,5.7c0.5,1.7,0.4,3.4-0.4,5c-0.8,1.6-2.2,2.7-3.8,3.2C323.2,351.1,322.5,351.2,321.8,351.2z"/>
		<path class="st0" d="M306.3,296.4c0.8,0,1.6,0.7,1.6,1.6c0,0.6-0.3,1.1-0.8,1.4c-0.6,0.3-1,0.9-1,1.6v1.7c2.8,1.8,4.6,5,4.6,8.6
			v3.4h4.3h0l0,0v1.8c0,0,0,0,0,0l2.9-1.1c0.4-0.2,0.8-0.5,0.9-1l1.6-5.2c0.2-0.7,0.8-1.1,1.5-1.1c0.2,0,0.3,0,0.5,0.1h0
			c0.8,0.3,1.3,1.1,1,2l-2.1,6.6c-0.1,0.4-0.5,0.8-0.9,1l-4.3,1.7c-0.2,0.1-0.4,0.1-0.6,0.1c-0.2,0-0.4,0-0.6-0.1v5.1
			c0.2-0.1,0.4-0.2,0.7-0.2h4.7c0.4,0,0.8,0.2,1.1,0.5l4.6,4.7c0.6,0.6,0.6,1.6,0,2.2l0,0c-0.3,0.3-0.7,0.4-1.1,0.4
			c-0.4,0-0.8-0.2-1.1-0.5l-3.7-3.8c-0.3-0.3-0.7-0.5-1.1-0.5h-3.3c-0.2,0-0.5-0.1-0.7-0.2v1.9c0,1.8-0.3,3.5-0.9,5.1
			c0.2,0,0.3,0,0.5,0.1l5.9,2.3c0.4,0.2,0.8,0.5,0.9,1l2.1,6.6c0.3,0.8-0.2,1.7-1,2c-0.2,0-0.3,0.1-0.5,0.1c-0.7,0-1.3-0.4-1.5-1.1
			l-1.6-5.2c-0.1-0.4-0.5-0.8-0.9-1l-4.5-1.8c-0.2-0.1-0.4-0.2-0.6-0.4c-2.6,4.1-7.1,6.8-12.2,6.8s-9.7-2.7-12.2-6.8
			c-0.2,0.2-0.4,0.3-0.6,0.4l-4.5,1.8c-0.4,0.2-0.8,0.5-0.9,1l-1.6,5.2c-0.2,0.7-0.8,1.1-1.5,1.1c-0.2,0-0.3,0-0.5-0.1
			c-0.8-0.3-1.3-1.1-1-2l2.1-6.6c0.1-0.4,0.5-0.8,0.9-1l5.9-2.3c0.1-0.1,0.3-0.1,0.5-0.1c-0.6-1.6-0.9-3.3-0.9-5.1v-1.9
			c-0.2,0.1-0.4,0.2-0.7,0.2h-3.3c-0.4,0-0.8,0.2-1.1,0.5l-3.7,3.8c-0.3,0.3-0.7,0.5-1.1,0.5c-0.4,0-0.8-0.1-1.1-0.4l0,0
			c-0.6-0.6-0.6-1.6,0-2.2l4.6-4.7c0.3-0.3,0.7-0.5,1.1-0.5h4.7c0.2,0,0.5,0.1,0.7,0.2v-5.1c-0.2,0.1-0.4,0.1-0.6,0.1
			c-0.2,0-0.4,0-0.6-0.1l-4.3-1.7c-0.4-0.2-0.8-0.5-0.9-1l-2.1-6.6c-0.3-0.8,0.2-1.7,1-2c0.2,0,0.3-0.1,0.5-0.1
			c0.7,0,1.3,0.4,1.5,1.1l1.6,5.2c0.1,0.4,0.5,0.8,0.9,1l2.9,1.1c0,0,0,0,0,0v-1.8h0h4.3v-3.4c0-3.7,2-6.9,4.9-8.7
			c-0.1-0.2-0.2-0.5-0.2-0.8V301c0-0.7-0.4-1.3-1-1.6c-0.5-0.3-0.8-0.8-0.8-1.4c0-0.9,0.7-1.6,1.6-1.6c0.2,0,0.5,0.1,0.7,0.2
			c1.6,0.8,2.7,2.5,2.7,4.4v0.3c0.8-0.2,1.6-0.3,2.5-0.3s1.7,0.1,2.5,0.3V301c0-1.9,1.1-3.6,2.7-4.4
			C305.8,296.5,306,296.4,306.3,296.4 M306.3,286.4C306.3,286.4,306.3,286.4,306.3,286.4c-1.8,0-3.6,0.4-5.3,1.3
			c-0.2,0.1-0.4,0.2-0.6,0.3c-0.2-0.1-0.4-0.2-0.6-0.3c-1.6-0.8-3.4-1.3-5.3-1.3c-3,0-5.9,1.2-8.1,3.3c-2.2,2.2-3.5,5.2-3.5,8.3
			c0,0.3,0,0.5,0,0.8c-1.3-0.5-2.6-0.7-4-0.7c-1.2,0-2.4,0.2-3.5,0.5c-6.1,1.9-9.4,8.4-7.5,14.5l2.1,6.6c0,0.1,0.1,0.2,0.1,0.3
			l-2.4,2.5c-2.2,2.2-3.3,5.1-3.3,8.2c0,3.1,1.3,6,3.5,8.1c0.2,0.2,0.4,0.4,0.6,0.6l-0.6,1.8c-1.9,6.1,1.4,12.6,7.5,14.5
			c1.1,0.4,2.3,0.5,3.5,0.5c4.1,0,7.8-2.1,9.9-5.5c3.5,1.9,7.4,2.9,11.5,2.9c4.1,0,8.1-1,11.5-2.9c2.1,3.4,5.8,5.5,9.9,5.5
			c1.2,0,2.4-0.2,3.5-0.5c6.1-1.9,9.4-8.4,7.5-14.5l-0.6-1.8c0.2-0.2,0.4-0.4,0.6-0.6c4.6-4.5,4.6-11.8,0.2-16.3l-2.4-2.5
			c0-0.1,0.1-0.2,0.1-0.3l2.1-6.6c1.9-6.1-1.4-12.6-7.5-14.5c-1.1-0.4-2.3-0.5-3.5-0.5c-1.4,0-2.8,0.3-4,0.7c0-0.3,0-0.5,0-0.8
			C317.8,291.6,312.6,286.4,306.3,286.4L306.3,286.4z"/>
	</g>
	<g>
		<path class="st0" d="M321.8,230.2c-2.9,0-5.4-1.8-6.3-4.6l-1.1-3.6l-0.3-0.1c-3.6,3.6-8.5,5.7-13.7,5.7c-5.2,0-10.1-2.1-13.7-5.7
			l-0.3,0.1l-1.1,3.6c-0.9,2.7-3.4,4.6-6.3,4.6c-0.7,0-1.3-0.1-2-0.3c-3.4-1.1-5.4-4.8-4.3-8.2l1.8-5.7c-1.2-0.3-2.3-0.8-3.1-1.7
			c-2.6-2.5-2.6-6.7-0.1-9.3l4.6-4.7c0.2-0.2,0.3-0.3,0.5-0.5c-0.7-0.7-1.2-1.6-1.6-2.6l-2.1-6.6c-1.1-3.4,0.8-7.1,4.3-8.2
			c0.6-0.2,1.3-0.3,2-0.3c2.9,0,5.4,1.8,6.3,4.6l0.2,0.7c0.5-2.6,1.7-5,3.4-7c-0.6-1-0.9-2.1-0.9-3.3c0-3.6,2.9-6.6,6.6-6.6
			c1,0,2.1,0.3,3,0.7c1.1,0.6,2.1,1.3,2.8,2.2c0.8-0.9,1.8-1.6,2.8-2.2c0.9-0.5,2-0.7,3-0.7c3.6,0,6.6,2.9,6.6,6.6
			c0,1.2-0.3,2.3-0.9,3.3c1.7,2,2.9,4.4,3.4,7l0.2-0.7c0.9-2.7,3.4-4.6,6.3-4.6c0.7,0,1.3,0.1,2,0.3c3.4,1.1,5.4,4.8,4.3,8.2
			l-2.1,6.6c-0.3,1-0.9,1.9-1.6,2.6c0.2,0.1,0.3,0.3,0.5,0.5l4.6,4.7c1.2,1.3,1.9,2.9,1.9,4.7c0,1.8-0.7,3.4-2,4.6
			c-0.9,0.9-2,1.4-3.1,1.7l1.8,5.7c0.5,1.7,0.4,3.4-0.4,5c-0.8,1.6-2.2,2.7-3.8,3.2C323.2,230.1,322.5,230.2,321.8,230.2z"/>
		<path class="st0" d="M306.3,175.4c0.8,0,1.6,0.7,1.6,1.6c0,0.6-0.3,1.1-0.8,1.4c-0.6,0.3-1,0.9-1,1.6v1.7c2.8,1.8,4.6,5,4.6,8.6
			v3.4h4.3h0l0,0v1.8c0,0,0,0,0,0l2.9-1.1c0.4-0.2,0.8-0.5,0.9-1l1.6-5.2c0.2-0.7,0.8-1.1,1.5-1.1c0.2,0,0.3,0,0.5,0.1l0,0
			c0.8,0.3,1.3,1.1,1,2l-2.1,6.6c-0.1,0.4-0.5,0.8-0.9,1l-4.3,1.7c-0.2,0.1-0.4,0.1-0.6,0.1c-0.2,0-0.4,0-0.6-0.1v5.1
			c0.2-0.1,0.4-0.2,0.7-0.2h4.7c0.4,0,0.8,0.2,1.1,0.5l4.6,4.7c0.6,0.6,0.6,1.6,0,2.2l0,0c-0.3,0.3-0.7,0.4-1.1,0.4
			c-0.4,0-0.8-0.2-1.1-0.5l-3.7-3.8c-0.3-0.3-0.7-0.5-1.1-0.5h-3.3c-0.2,0-0.5-0.1-0.7-0.2v1.9c0,1.8-0.3,3.5-0.9,5.1
			c0.2,0,0.3,0,0.5,0.1l5.9,2.3c0.4,0.2,0.8,0.5,0.9,1l2.1,6.6c0.3,0.8-0.2,1.7-1,2c-0.2,0-0.3,0.1-0.5,0.1c-0.7,0-1.3-0.4-1.5-1.1
			l-1.6-5.2c-0.1-0.4-0.5-0.8-0.9-1l-4.5-1.8c-0.2-0.1-0.4-0.2-0.6-0.4c-2.6,4.1-7.1,6.8-12.2,6.8s-9.7-2.7-12.2-6.8
			c-0.2,0.2-0.4,0.3-0.6,0.4l-4.5,1.8c-0.4,0.2-0.8,0.5-0.9,1l-1.6,5.2c-0.2,0.7-0.8,1.1-1.5,1.1c-0.2,0-0.3,0-0.5-0.1
			c-0.8-0.3-1.3-1.1-1-2l2.1-6.6c0.1-0.4,0.5-0.8,0.9-1l5.9-2.3c0.1-0.1,0.3-0.1,0.5-0.1c-0.6-1.6-0.9-3.3-0.9-5.1v-1.9
			c-0.2,0.1-0.4,0.2-0.7,0.2h-3.3c-0.4,0-0.8,0.2-1.1,0.5l-3.7,3.8c-0.3,0.3-0.7,0.5-1.1,0.5c-0.4,0-0.8-0.1-1.1-0.4l0,0
			c-0.6-0.6-0.6-1.6,0-2.2l4.6-4.7c0.3-0.3,0.7-0.5,1.1-0.5h4.7c0.2,0,0.5,0.1,0.7,0.2v-5.1c-0.2,0.1-0.4,0.1-0.6,0.1
			c-0.2,0-0.4,0-0.6-0.1l-4.3-1.7c-0.4-0.2-0.8-0.5-0.9-1l-2.1-6.6c-0.3-0.8,0.2-1.7,1-2c0.2,0,0.3-0.1,0.5-0.1
			c0.7,0,1.3,0.4,1.5,1.1l1.6,5.2c0.1,0.4,0.5,0.8,0.9,1l2.9,1.1c0,0,0,0,0,0v-1.8h0h4.3v-3.4c0-3.7,2-6.9,4.9-8.7
			c-0.1-0.2-0.2-0.5-0.2-0.8V180c0-0.7-0.4-1.3-1-1.6c-0.5-0.3-0.8-0.8-0.8-1.4c0-0.9,0.7-1.6,1.6-1.6c0.2,0,0.5,0.1,0.7,0.2
			c1.6,0.8,2.7,2.5,2.7,4.4v0.3c0.8-0.2,1.6-0.3,2.5-0.3s1.7,0.1,2.5,0.3V180c0-1.9,1.1-3.6,2.7-4.4
			C305.8,175.4,306,175.4,306.3,175.4 M306.3,165.4C306.3,165.4,306.3,165.4,306.3,165.4C306.3,165.4,306.3,165.4,306.3,165.4
			c-1.8,0-3.6,0.4-5.3,1.3c-0.2,0.1-0.4,0.2-0.6,0.3c-0.2-0.1-0.4-0.2-0.6-0.3c-1.6-0.8-3.4-1.3-5.3-1.3c-3,0-5.9,1.2-8.1,3.3
			c-2.2,2.2-3.5,5.2-3.5,8.3c0,0.3,0,0.5,0,0.8c-1.3-0.5-2.6-0.7-4-0.7c-1.2,0-2.4,0.2-3.5,0.5c-6.1,1.9-9.4,8.4-7.5,14.5l2.1,6.6
			c0,0.1,0.1,0.2,0.1,0.3l-2.4,2.5c-2.2,2.2-3.3,5.1-3.3,8.2c0,3.1,1.3,6,3.5,8.1c0.2,0.2,0.4,0.4,0.6,0.6l-0.6,1.8
			c-0.9,2.9-0.7,6.1,0.8,8.8c1.4,2.7,3.8,4.8,6.8,5.7c1.1,0.4,2.3,0.5,3.5,0.5c4.1,0,7.8-2.1,9.9-5.5c3.5,1.9,7.4,2.9,11.5,2.9
			c4.1,0,8.1-1,11.5-2.9c2.1,3.4,5.8,5.5,9.9,5.5c1.2,0,2.4-0.2,3.5-0.5c2.9-0.9,5.3-3,6.8-5.7c1.4-2.7,1.7-5.9,0.8-8.8l-0.6-1.8
			c0.2-0.2,0.4-0.4,0.6-0.6c2.2-2.2,3.4-5,3.5-8.1c0-3.1-1.1-6-3.3-8.2l-2.4-2.5c0-0.1,0.1-0.2,0.1-0.3l2.1-6.6
			c1.9-6.1-1.4-12.6-7.5-14.5c-1.1-0.4-2.3-0.5-3.5-0.5c-1.4,0-2.8,0.3-4,0.7c0-0.3,0-0.5,0-0.8
			C317.8,170.6,312.6,165.4,306.3,165.4L306.3,165.4L306.3,165.4z"/>
	</g>
	<g>
		<path class="st0" d="M321.8,290.7c-2.9,0-5.4-1.8-6.3-4.6l-1.1-3.6l-0.3-0.1c-3.6,3.6-8.5,5.7-13.7,5.7c-5.2,0-10.1-2.1-13.7-5.7
			l-0.3,0.1l-1.1,3.6c-0.9,2.7-3.4,4.6-6.3,4.6c-0.7,0-1.3-0.1-2-0.3c-3.4-1.1-5.4-4.8-4.3-8.2l1.8-5.7c-1.2-0.3-2.3-0.8-3.1-1.7
			c-1.3-1.2-2-2.9-2-4.6c0-1.8,0.6-3.4,1.9-4.7l4.6-4.7c0.2-0.2,0.3-0.3,0.5-0.5c-0.7-0.7-1.2-1.6-1.6-2.6l-2.1-6.6
			c-1.1-3.4,0.8-7.1,4.3-8.2c0.6-0.2,1.3-0.3,2-0.3c2.9,0,5.4,1.8,6.3,4.6l0.2,0.7c0.5-2.6,1.7-5,3.4-7c-0.6-1-0.9-2.1-0.9-3.3
			c0-3.6,2.9-6.6,6.6-6.6c1,0,2.1,0.3,3,0.7c1.1,0.6,2.1,1.3,2.8,2.2c0.8-0.9,1.8-1.6,2.8-2.2c0.9-0.5,2-0.7,3-0.7
			c3.6,0,6.6,2.9,6.6,6.6c0,1.2-0.3,2.3-0.9,3.3c1.7,2,2.9,4.4,3.4,7l0.2-0.7c0.9-2.7,3.4-4.6,6.3-4.6c0.7,0,1.3,0.1,2,0.3
			c1.7,0.5,3,1.7,3.8,3.2c0.8,1.6,1,3.3,0.4,5l-2.1,6.6c-0.3,1-0.9,1.9-1.6,2.6c0.2,0.1,0.3,0.3,0.5,0.4l4.6,4.7
			c1.2,1.3,1.9,2.9,1.9,4.7c0,1.8-0.7,3.4-2,4.6c-0.9,0.9-2,1.4-3.1,1.7l1.8,5.7c1.1,3.5-0.8,7.1-4.3,8.2
			C323.2,290.6,322.5,290.7,321.8,290.7z"/>
		<path class="st0" d="M306.3,235.9c0.8,0,1.6,0.7,1.6,1.6c0,0.6-0.3,1.1-0.8,1.4c-0.6,0.3-1,0.9-1,1.6v1.7c2.8,1.8,4.6,5,4.6,8.6
			v3.4h4.3h0l0,0v1.8c0,0,0,0,0,0l2.9-1.1c0.4-0.2,0.8-0.5,0.9-1l1.6-5.2c0.2-0.7,0.8-1.1,1.5-1.1c0.2,0,0.3,0,0.5,0.1l0,0
			c0.8,0.3,1.3,1.1,1,2l-2.1,6.6c-0.1,0.4-0.5,0.8-0.9,1l-4.3,1.7c-0.2,0.1-0.4,0.1-0.6,0.1c-0.2,0-0.4,0-0.6-0.1v5.1
			c0.2-0.1,0.4-0.2,0.7-0.2h4.7c0.4,0,0.8,0.2,1.1,0.5l4.6,4.7c0.6,0.6,0.6,1.6,0,2.2l0,0c-0.3,0.3-0.7,0.4-1.1,0.4
			c-0.4,0-0.8-0.2-1.1-0.5l-3.7-3.8c-0.3-0.3-0.7-0.5-1.1-0.5h-3.3c-0.2,0-0.5-0.1-0.7-0.2v1.9c0,1.8-0.3,3.5-0.9,5.1
			c0.2,0,0.3,0,0.5,0.1l5.9,2.3c0.4,0.2,0.8,0.5,0.9,1l2.1,6.6c0.3,0.8-0.2,1.7-1,2c-0.2,0-0.3,0.1-0.5,0.1c-0.7,0-1.3-0.4-1.5-1.1
			l-1.6-5.2c-0.1-0.4-0.5-0.8-0.9-1l-4.5-1.8c-0.2-0.1-0.4-0.2-0.6-0.4c-2.6,4.1-7.1,6.8-12.2,6.8s-9.7-2.7-12.2-6.8
			c-0.2,0.2-0.4,0.3-0.6,0.4l-4.5,1.8c-0.4,0.2-0.8,0.5-0.9,1l-1.6,5.2c-0.2,0.7-0.8,1.1-1.5,1.1c-0.2,0-0.3,0-0.5-0.1
			c-0.8-0.3-1.3-1.1-1-2l2.1-6.6c0.1-0.4,0.5-0.8,0.9-1l5.9-2.3c0.1-0.1,0.3-0.1,0.5-0.1c-0.6-1.6-0.9-3.3-0.9-5.1v-1.9
			c-0.2,0.1-0.4,0.2-0.7,0.2h-3.3c-0.4,0-0.8,0.2-1.1,0.5l-3.7,3.8c-0.3,0.3-0.7,0.5-1.1,0.5c-0.4,0-0.8-0.1-1.1-0.4l0,0
			c-0.6-0.6-0.6-1.6,0-2.2l4.6-4.7c0.3-0.3,0.7-0.5,1.1-0.5h4.7c0.2,0,0.5,0.1,0.7,0.2v-5.1c-0.2,0.1-0.4,0.1-0.6,0.1
			c-0.2,0-0.4,0-0.6-0.1l-4.3-1.7c-0.4-0.2-0.8-0.5-0.9-1l-2.1-6.6c-0.3-0.8,0.2-1.7,1-2c0.2,0,0.3-0.1,0.5-0.1
			c0.7,0,1.3,0.4,1.5,1.1l1.6,5.2c0.1,0.4,0.5,0.8,0.9,1l2.9,1.1c0,0,0,0,0,0v-1.8h0h4.3v-3.4c0-3.7,2-6.9,4.9-8.7
			c-0.1-0.2-0.2-0.5-0.2-0.8v-0.7c0-0.7-0.4-1.3-1-1.6c-0.5-0.3-0.8-0.8-0.8-1.4c0-0.9,0.7-1.6,1.6-1.6c0.2,0,0.5,0.1,0.7,0.2
			c1.6,0.8,2.7,2.5,2.7,4.4v0.3c0.8-0.2,1.6-0.3,2.5-0.3s1.7,0.1,2.5,0.3v-0.3c0-1.9,1.1-3.6,2.7-4.4
			C305.8,236,306,235.9,306.3,235.9 M306.3,225.9C306.3,225.9,306.3,225.9,306.3,225.9C306.3,225.9,306.3,225.9,306.3,225.9
			c-1.8,0-3.6,0.4-5.3,1.3c-0.2,0.1-0.4,0.2-0.6,0.3c-0.2-0.1-0.4-0.2-0.6-0.3c-1.6-0.8-3.4-1.3-5.3-1.3c-3,0-5.9,1.2-8.1,3.3
			c-2.2,2.2-3.5,5.2-3.5,8.3c0,0.3,0,0.5,0,0.8c-1.3-0.5-2.6-0.7-4-0.7c-1.2,0-2.4,0.2-3.5,0.5c-6.1,1.9-9.4,8.4-7.5,14.5l2.1,6.6
			c0,0.1,0.1,0.2,0.1,0.3l-2.4,2.5c-2.2,2.2-3.3,5.1-3.3,8.2c0,3.1,1.3,6,3.5,8.1c0.2,0.2,0.4,0.4,0.6,0.6l-0.6,1.8
			c-1.9,6.1,1.4,12.6,7.5,14.5c1.1,0.4,2.3,0.5,3.5,0.5c4.1,0,7.8-2.1,9.9-5.5c3.5,1.9,7.4,2.9,11.5,2.9s8.1-1,11.5-2.9
			c2.1,3.4,5.8,5.5,9.9,5.5c1.2,0,2.4-0.2,3.5-0.5c6.1-1.9,9.4-8.4,7.5-14.5l-0.6-1.8c0.2-0.2,0.4-0.4,0.6-0.6
			c2.2-2.2,3.4-5,3.5-8.1c0-3.1-1.1-6-3.3-8.2l-2.4-2.5c0-0.1,0.1-0.2,0.1-0.3l2.1-6.6c1.9-6.1-1.4-12.6-7.5-14.5
			c-1.1-0.4-2.3-0.5-3.5-0.5c-1.4,0-2.8,0.3-4,0.7c0-0.3,0-0.5,0-0.8C317.8,231.1,312.6,225.9,306.3,225.9L306.3,225.9L306.3,225.9z
			"/>
	</g>
	<g>
		<path class="st0" d="M258.8,290.7c-2.9,0-5.4-1.8-6.3-4.6l-1.1-3.6l-0.3-0.1c-3.6,3.6-8.5,5.7-13.7,5.7c-5.2,0-10.1-2.1-13.7-5.7
			l-0.3,0.1l-1.1,3.6c-0.9,2.7-3.4,4.6-6.3,4.6c-0.7,0-1.3-0.1-2-0.3c-1.7-0.5-3-1.7-3.8-3.2c-0.8-1.6-1-3.3-0.4-5l1.8-5.7
			c-1.2-0.3-2.3-0.8-3.1-1.7c-2.6-2.5-2.6-6.7-0.1-9.3l4.6-4.7c0.2-0.2,0.3-0.3,0.5-0.5c-0.7-0.7-1.2-1.6-1.6-2.6l-2.1-6.6
			c-0.5-1.7-0.4-3.4,0.4-5s2.2-2.7,3.8-3.2c0.6-0.2,1.3-0.3,2-0.3c2.9,0,5.4,1.8,6.3,4.6l0.2,0.7c0.5-2.6,1.7-5,3.4-7
			c-0.6-1-0.9-2.1-0.9-3.3c0-3.6,2.9-6.6,6.6-6.6c1,0,2.1,0.3,3,0.7c1.1,0.6,2.1,1.3,2.8,2.2c0.8-0.9,1.8-1.6,2.8-2.2
			c0.9-0.5,2-0.7,3-0.7c3.6,0,6.6,2.9,6.6,6.6c0,1.2-0.3,2.3-0.9,3.3c1.7,2,2.9,4.4,3.4,7l0.2-0.7c0.9-2.7,3.4-4.6,6.3-4.6
			c0.7,0,1.3,0.1,2,0.3c3.4,1.1,5.4,4.8,4.3,8.2l-2.1,6.6c-0.3,1-0.9,1.9-1.6,2.6c0.2,0.1,0.3,0.3,0.5,0.4l4.6,4.7
			c1.2,1.3,1.9,2.9,1.9,4.7c0,1.8-0.7,3.4-2,4.6c-0.9,0.9-2,1.4-3.1,1.7l1.8,5.7c1.1,3.5-0.8,7.1-4.3,8.2
			C260.1,290.6,259.5,290.7,258.8,290.7z"/>
		<path class="st0" d="M243.2,235.9c0.8,0,1.6,0.7,1.6,1.6c0,0.6-0.3,1.1-0.8,1.4c-0.6,0.3-1,0.9-1,1.6v1.7c2.8,1.8,4.6,5,4.6,8.6
			v3.4h4.3h0l0,0v1.8c0,0,0,0,0,0l2.9-1.1c0.4-0.2,0.8-0.5,0.9-1l1.6-5.2c0.2-0.7,0.8-1.1,1.5-1.1c0.2,0,0.3,0,0.5,0.1l0,0
			c0.8,0.3,1.3,1.1,1,2l-2.1,6.6c-0.1,0.4-0.5,0.8-0.9,1l-4.3,1.7c-0.2,0.1-0.4,0.1-0.6,0.1c-0.2,0-0.4,0-0.6-0.1v5.1
			c0.2-0.1,0.4-0.2,0.7-0.2h4.7c0.4,0,0.8,0.2,1.1,0.5l4.6,4.7c0.6,0.6,0.6,1.6,0,2.2l0,0c-0.3,0.3-0.7,0.4-1.1,0.4
			c-0.4,0-0.8-0.2-1.1-0.5l-3.7-3.8c-0.3-0.3-0.7-0.5-1.1-0.5h-3.3c-0.2,0-0.5-0.1-0.7-0.2v1.9c0,1.8-0.3,3.5-0.9,5.1
			c0.2,0,0.3,0,0.5,0.1l5.9,2.3c0.4,0.2,0.8,0.5,0.9,1l2.1,6.6c0.3,0.8-0.2,1.7-1,2c-0.2,0-0.3,0.1-0.5,0.1c-0.7,0-1.3-0.4-1.5-1.1
			l-1.6-5.2c-0.1-0.4-0.5-0.8-0.9-1l-4.5-1.8c-0.2-0.1-0.4-0.2-0.6-0.4c-2.6,4.1-7.1,6.8-12.2,6.8c-5.2,0-9.7-2.7-12.2-6.8
			c-0.2,0.2-0.4,0.3-0.6,0.4l-4.5,1.8c-0.4,0.2-0.8,0.5-0.9,1l-1.6,5.2c-0.2,0.7-0.8,1.1-1.5,1.1c-0.2,0-0.3,0-0.5-0.1
			c-0.8-0.3-1.3-1.1-1-2l2.1-6.6c0.1-0.4,0.5-0.8,0.9-1l5.9-2.3c0.1-0.1,0.3-0.1,0.5-0.1c-0.6-1.6-0.9-3.3-0.9-5.1v-1.9
			c-0.2,0.1-0.4,0.2-0.7,0.2h-3.3c-0.4,0-0.8,0.2-1.1,0.5l-3.7,3.8c-0.3,0.3-0.7,0.5-1.1,0.5c-0.4,0-0.8-0.1-1.1-0.4l0,0
			c-0.6-0.6-0.6-1.6,0-2.2l4.6-4.7c0.3-0.3,0.7-0.5,1.1-0.5h4.7c0.2,0,0.5,0.1,0.7,0.2v-5.1c-0.2,0.1-0.4,0.1-0.6,0.1
			c-0.2,0-0.4,0-0.6-0.1l-4.3-1.7c-0.4-0.2-0.8-0.5-0.9-1l-2.1-6.6c-0.3-0.8,0.2-1.7,1-2c0.2,0,0.3-0.1,0.5-0.1
			c0.7,0,1.3,0.4,1.5,1.1l1.6,5.2c0.1,0.4,0.5,0.8,0.9,1l2.9,1.1c0,0,0,0,0,0v-1.8h0h4.3v-3.4c0-3.7,2-6.9,4.9-8.7
			c-0.1-0.2-0.2-0.5-0.2-0.8v-0.7c0-0.7-0.4-1.3-1-1.6c-0.5-0.3-0.8-0.8-0.8-1.4c0-0.9,0.7-1.6,1.6-1.6c0.2,0,0.5,0.1,0.7,0.2
			c1.6,0.8,2.7,2.5,2.7,4.4v0.3c0.8-0.2,1.6-0.3,2.5-0.3s1.7,0.1,2.5,0.3v-0.3c0-1.9,1.1-3.6,2.7-4.4
			C242.8,236,243,235.9,243.2,235.9 M243.2,225.9C243.2,225.9,243.2,225.9,243.2,225.9C243.2,225.9,243.2,225.9,243.2,225.9
			c-1.8,0-3.6,0.4-5.3,1.3c-0.2,0.1-0.4,0.2-0.6,0.3c-0.2-0.1-0.4-0.2-0.6-0.3c-1.6-0.8-3.4-1.3-5.3-1.3c-3,0-5.9,1.2-8.1,3.3
			c-2.2,2.2-3.5,5.2-3.5,8.3c0,0.3,0,0.5,0,0.8c-1.3-0.5-2.6-0.7-4-0.7c-1.2,0-2.4,0.2-3.5,0.5c-6.1,1.9-9.4,8.4-7.5,14.5l2.1,6.6
			c0,0.1,0.1,0.2,0.1,0.3l-2.4,2.5c-2.2,2.2-3.3,5.1-3.3,8.2c0,3.1,1.3,6,3.5,8.1c0.2,0.2,0.4,0.4,0.6,0.6l-0.6,1.8
			c-1.9,6.1,1.4,12.6,7.5,14.5c1.1,0.4,2.3,0.5,3.5,0.5c4.1,0,7.8-2.1,9.9-5.5c3.5,1.9,7.4,2.9,11.5,2.9c4.1,0,8.1-1,11.5-2.9
			c2.1,3.4,5.8,5.5,9.9,5.5c1.2,0,2.4-0.2,3.5-0.5c6.1-1.9,9.4-8.4,7.5-14.5l-0.6-1.8c0.2-0.2,0.4-0.4,0.6-0.6
			c2.2-2.2,3.4-5,3.5-8.1c0-3.1-1.1-6-3.3-8.2l-2.4-2.5c0-0.1,0.1-0.2,0.1-0.3l2.1-6.6c1.9-6.1-1.4-12.6-7.5-14.5
			c-1.1-0.4-2.3-0.5-3.5-0.5c-1.4,0-2.8,0.3-4,0.7c0-0.3,0-0.5,0-0.8C254.8,231.1,249.6,225.9,243.2,225.9L243.2,225.9L243.2,225.9z
			"/>
	</g>
	<g>
		<path class="st0" d="M258.8,170.2c-2.9,0-5.4-1.8-6.3-4.6l-1.1-3.6l-0.3-0.1c-3.6,3.6-8.5,5.7-13.7,5.7s-10.1-2.1-13.7-5.7
			l-0.3,0.1l-1.1,3.6c-0.9,2.7-3.4,4.6-6.3,4.6c-0.7,0-1.3-0.1-2-0.3c-1.7-0.5-3-1.7-3.8-3.2c-0.8-1.6-1-3.3-0.4-5l1.8-5.7
			c-1.2-0.3-2.3-0.8-3.1-1.7c-2.6-2.5-2.6-6.7-0.1-9.3l4.6-4.7c0.2-0.2,0.3-0.3,0.5-0.5c-0.7-0.7-1.2-1.6-1.6-2.6l-2.1-6.6
			c-0.5-1.7-0.4-3.4,0.4-5c0.8-1.6,2.2-2.7,3.8-3.2c0.6-0.2,1.3-0.3,2-0.3c2.9,0,5.4,1.8,6.3,4.6l0.2,0.7c0.5-2.6,1.7-5,3.4-7
			c-0.6-1-0.9-2.1-0.9-3.3c0-3.6,2.9-6.6,6.6-6.6c1,0,2.1,0.3,3,0.7c1.1,0.6,2.1,1.3,2.8,2.2c0.8-0.9,1.8-1.6,2.8-2.2
			c0.9-0.5,2-0.7,3-0.7c3.6,0,6.6,2.9,6.6,6.6c0,1.2-0.3,2.3-0.9,3.3c1.7,2,2.9,4.4,3.4,7l0.2-0.7c0.9-2.7,3.4-4.6,6.3-4.6
			c0.7,0,1.3,0.1,2,0.3c3.4,1.1,5.4,4.8,4.3,8.2l-2.1,6.6c-0.3,1-0.9,1.9-1.6,2.6c0.2,0.1,0.3,0.3,0.5,0.4l4.6,4.7
			c1.2,1.3,1.9,2.9,1.9,4.7c0,1.8-0.7,3.4-2,4.6c-0.9,0.9-2,1.4-3.1,1.7l1.8,5.7c1.1,3.4-0.8,7.1-4.3,8.2
			C260.1,170.1,259.5,170.2,258.8,170.2z"/>
		<path class="st0" d="M243.2,115.4c0.8,0,1.6,0.7,1.6,1.6c0,0.6-0.3,1.1-0.8,1.4c-0.6,0.3-1,0.9-1,1.6v1.7c2.8,1.8,4.6,5,4.6,8.6
			v3.4h4.3h0l0,0v1.8c0,0,0,0,0,0l2.9-1.1c0.4-0.2,0.8-0.5,0.9-1l1.6-5.2c0.2-0.7,0.8-1.1,1.5-1.1c0.2,0,0.3,0,0.5,0.1l0,0
			c0.8,0.3,1.3,1.1,1,2l-2.1,6.6c-0.1,0.4-0.5,0.8-0.9,1l-4.3,1.7c-0.2,0.1-0.4,0.1-0.6,0.1c-0.2,0-0.4,0-0.6-0.1v5.1
			c0.2-0.1,0.4-0.2,0.7-0.2h4.7c0.4,0,0.8,0.2,1.1,0.5l4.6,4.7c0.6,0.6,0.6,1.6,0,2.2l0,0c-0.3,0.3-0.7,0.4-1.1,0.4
			c-0.4,0-0.8-0.2-1.1-0.5l-3.7-3.8c-0.3-0.3-0.7-0.5-1.1-0.5h-3.3c-0.2,0-0.5-0.1-0.7-0.2v1.9c0,1.8-0.3,3.5-0.9,5.1
			c0.2,0,0.3,0,0.5,0.1l5.9,2.3c0.4,0.2,0.8,0.5,0.9,1l2.1,6.6c0.3,0.8-0.2,1.7-1,2c-0.2,0-0.3,0.1-0.5,0.1c-0.7,0-1.3-0.4-1.5-1.1
			l-1.6-5.2c-0.1-0.4-0.5-0.8-0.9-1l-4.5-1.8c-0.2-0.1-0.4-0.2-0.6-0.4c-2.6,4.1-7.1,6.8-12.2,6.8c-5.2,0-9.7-2.7-12.2-6.8
			c-0.2,0.2-0.4,0.3-0.6,0.4L220,158c-0.4,0.2-0.8,0.5-0.9,1l-1.6,5.2c-0.2,0.7-0.8,1.1-1.5,1.1c-0.2,0-0.3,0-0.5-0.1
			c-0.8-0.3-1.3-1.1-1-2l2.1-6.6c0.1-0.4,0.5-0.8,0.9-1l5.9-2.3c0.1-0.1,0.3-0.1,0.5-0.1c-0.6-1.6-0.9-3.3-0.9-5.1v-1.9
			c-0.2,0.1-0.4,0.2-0.7,0.2h-3.3c-0.4,0-0.8,0.2-1.1,0.5l-3.7,3.8c-0.3,0.3-0.7,0.5-1.1,0.5c-0.4,0-0.8-0.1-1.1-0.4l0,0
			c-0.6-0.6-0.6-1.6,0-2.2l4.6-4.7c0.3-0.3,0.7-0.5,1.1-0.5h4.7c0.2,0,0.5,0.1,0.7,0.2v-5.1c-0.2,0.1-0.4,0.1-0.6,0.1
			c-0.2,0-0.4,0-0.6-0.1l-4.3-1.7c-0.4-0.2-0.8-0.5-0.9-1l-2.1-6.6c-0.3-0.8,0.2-1.7,1-2v0c0.2,0,0.3-0.1,0.5-0.1
			c0.7,0,1.3,0.4,1.5,1.1l1.6,5.2c0.1,0.4,0.5,0.8,0.9,1l2.9,1.1c0,0,0,0,0,0v-1.8h0h4.3v-3.4c0-3.7,2-6.9,4.9-8.7
			c-0.1-0.2-0.2-0.5-0.2-0.8V120c0-0.7-0.4-1.3-1-1.6c-0.5-0.3-0.8-0.8-0.8-1.4c0-0.9,0.7-1.6,1.6-1.6c0.2,0,0.5,0.1,0.7,0.2
			c1.6,0.8,2.7,2.5,2.7,4.4v0.3c0.8-0.2,1.6-0.3,2.5-0.3s1.7,0.1,2.5,0.3V120c0-1.9,1.1-3.6,2.7-4.4
			C242.8,115.5,243,115.4,243.2,115.4 M243.2,105.4C243.2,105.4,243.2,105.4,243.2,105.4C243.2,105.4,243.2,105.4,243.2,105.4
			c-1.8,0-3.6,0.4-5.3,1.3c-0.2,0.1-0.4,0.2-0.6,0.3c-0.2-0.1-0.4-0.2-0.6-0.3c-1.6-0.8-3.4-1.3-5.3-1.3c-3,0-5.9,1.2-8.1,3.3
			c-2.2,2.2-3.5,5.2-3.5,8.3c0,0.3,0,0.5,0,0.8c-1.3-0.5-2.6-0.7-4-0.7c-1.2,0-2.4,0.2-3.5,0.5c-6.1,1.9-9.4,8.4-7.5,14.5l2.1,6.6
			c0,0.1,0.1,0.2,0.1,0.3l-2.4,2.5c-2.2,2.2-3.3,5.1-3.3,8.2c0,3.1,1.3,6,3.5,8.1c0.2,0.2,0.4,0.4,0.6,0.6l-0.6,1.8
			c-1.9,6.1,1.4,12.6,7.5,14.5c1.1,0.4,2.3,0.5,3.5,0.5c4.1,0,7.8-2.1,9.9-5.5c3.5,1.9,7.4,2.9,11.5,2.9c4.1,0,8.1-1,11.5-2.9
			c2.1,3.4,5.8,5.5,9.9,5.5c1.2,0,2.4-0.2,3.5-0.5c6.1-1.9,9.4-8.4,7.5-14.5l-0.6-1.8c0.2-0.2,0.4-0.4,0.6-0.6
			c2.2-2.2,3.4-5,3.5-8.1c0-3.1-1.1-6-3.3-8.2l-2.4-2.5c0-0.1,0.1-0.2,0.1-0.3l2.1-6.6c1.9-6.1-1.4-12.6-7.5-14.5
			c-1.1-0.4-2.3-0.5-3.5-0.5c-1.4,0-2.8,0.3-4,0.7c0-0.3,0-0.5,0-0.8C254.8,110.6,249.6,105.4,243.2,105.4L243.2,105.4L243.2,105.4z
			"/>
	</g>
	<g>
		<path class="st0" d="M380.4,230.2c-2.9,0-5.4-1.8-6.3-4.6L373,222l-0.3-0.1c-3.6,3.6-8.5,5.7-13.7,5.7c-5.2,0-10.1-2.1-13.7-5.7
			L345,222l-1.1,3.6c-0.9,2.7-3.4,4.6-6.3,4.6c-0.7,0-1.3-0.1-2-0.3c-1.7-0.5-3-1.7-3.8-3.2c-0.8-1.6-1-3.3-0.4-5l1.8-5.7
			c-1.2-0.3-2.3-0.8-3.1-1.7c-1.3-1.2-2-2.9-2-4.6c0-1.8,0.6-3.4,1.9-4.7l4.6-4.7c0.2-0.2,0.3-0.3,0.5-0.5c-0.7-0.7-1.2-1.6-1.6-2.6
			l-2.1-6.6c-0.5-1.7-0.4-3.4,0.4-5c0.8-1.6,2.2-2.7,3.8-3.2c0.6-0.2,1.3-0.3,2-0.3c2.9,0,5.4,1.8,6.3,4.6l0.2,0.7
			c0.5-2.6,1.7-5,3.4-7c-0.6-1-0.9-2.1-0.9-3.3c0-3.6,2.9-6.6,6.6-6.6c1,0,2.1,0.3,3,0.7c1.1,0.6,2.1,1.3,2.8,2.2
			c0.8-0.9,1.8-1.6,2.8-2.2c0.9-0.5,2-0.7,3-0.7c3.6,0,6.6,2.9,6.6,6.6c0,1.2-0.3,2.3-0.9,3.3c1.7,2,2.9,4.4,3.4,7l0.2-0.7
			c0.9-2.7,3.4-4.6,6.3-4.6c0.7,0,1.3,0.1,2,0.3c1.7,0.5,3,1.7,3.8,3.2c0.8,1.6,1,3.3,0.4,5l-2.1,6.6c-0.3,1-0.9,1.9-1.6,2.6
			c0.2,0.1,0.3,0.3,0.5,0.5l4.6,4.7c2.5,2.6,2.5,6.7-0.1,9.3c-0.9,0.9-2,1.4-3.1,1.7l1.8,5.7c0.5,1.7,0.4,3.4-0.4,5
			c-0.8,1.6-2.2,2.7-3.8,3.2C381.8,230.1,381.1,230.2,380.4,230.2z"/>
		<path class="st0" d="M364.9,175.4c0.8,0,1.6,0.7,1.6,1.6c0,0.6-0.3,1.1-0.8,1.4c-0.6,0.3-1,0.9-1,1.6v1.7c2.8,1.8,4.6,5,4.6,8.6
			v3.4h4.3h0l0,0v1.8c0,0,0,0,0,0l2.9-1.1c0.4-0.2,0.8-0.5,0.9-1l1.6-5.2c0.2-0.7,0.8-1.1,1.5-1.1c0.2,0,0.3,0,0.5,0.1l0,0
			c0.8,0.3,1.3,1.1,1,2l-2.1,6.6c-0.1,0.4-0.5,0.8-0.9,1l-4.3,1.7c-0.2,0.1-0.4,0.1-0.6,0.1c-0.2,0-0.4,0-0.6-0.1v5.1
			c0.2-0.1,0.4-0.2,0.7-0.2h4.7c0.4,0,0.8,0.2,1.1,0.5l4.6,4.7c0.6,0.6,0.6,1.6,0,2.2l0,0c-0.3,0.3-0.7,0.4-1.1,0.4
			c-0.4,0-0.8-0.2-1.1-0.5l-3.7-3.8c-0.3-0.3-0.7-0.5-1.1-0.5h-3.3c-0.2,0-0.5-0.1-0.7-0.2v1.9c0,1.8-0.3,3.5-0.9,5.1
			c0.2,0,0.3,0,0.5,0.1l5.9,2.3c0.4,0.2,0.8,0.5,0.9,1l2.1,6.6c0.3,0.8-0.2,1.7-1,2c-0.2,0-0.3,0.1-0.5,0.1c-0.7,0-1.3-0.4-1.5-1.1
			l-1.6-5.2c-0.1-0.4-0.5-0.8-0.9-1l-4.5-1.8c-0.2-0.1-0.4-0.2-0.6-0.4c-2.6,4.1-7.1,6.8-12.2,6.8c-5.2,0-9.7-2.7-12.2-6.8
			c-0.2,0.2-0.4,0.3-0.6,0.4l-4.5,1.8c-0.4,0.2-0.8,0.5-0.9,1l-1.6,5.2c-0.2,0.7-0.8,1.1-1.5,1.1c-0.2,0-0.3,0-0.5-0.1
			c-0.8-0.3-1.3-1.1-1-2l2.1-6.6c0.1-0.4,0.5-0.8,0.9-1l5.9-2.3c0.1-0.1,0.3-0.1,0.5-0.1c-0.6-1.6-0.9-3.3-0.9-5.1v-1.9
			c-0.2,0.1-0.4,0.2-0.7,0.2h-3.3c-0.4,0-0.8,0.2-1.1,0.5l-3.7,3.8c-0.3,0.3-0.7,0.5-1.1,0.5c-0.4,0-0.8-0.1-1.1-0.4l0,0
			c-0.6-0.6-0.6-1.6,0-2.2l4.6-4.7c0.3-0.3,0.7-0.5,1.1-0.5h4.7c0.2,0,0.5,0.1,0.7,0.2v-5.1c-0.2,0.1-0.4,0.1-0.6,0.1
			c-0.2,0-0.4,0-0.6-0.1l-4.3-1.7c-0.4-0.2-0.8-0.5-0.9-1l-2.1-6.6c-0.3-0.8,0.2-1.7,1-2c0.2,0,0.3-0.1,0.5-0.1
			c0.7,0,1.3,0.4,1.5,1.1l1.6,5.2c0.1,0.4,0.5,0.8,0.9,1l2.9,1.1c0,0,0,0,0,0v-1.8h0h4.3v-3.4c0-3.7,2-6.9,4.9-8.7
			c-0.1-0.2-0.2-0.5-0.2-0.8V180c0-0.7-0.4-1.3-1-1.6c-0.5-0.3-0.8-0.8-0.8-1.4c0-0.9,0.7-1.6,1.6-1.6c0.2,0,0.5,0.1,0.7,0.2
			c1.6,0.8,2.7,2.5,2.7,4.4v0.3c0.8-0.2,1.6-0.3,2.5-0.3s1.7,0.1,2.5,0.3V180c0-1.9,1.1-3.6,2.7-4.4
			C364.4,175.4,364.6,175.4,364.9,175.4 M364.9,165.4C364.9,165.4,364.9,165.4,364.9,165.4C364.9,165.4,364.9,165.4,364.9,165.4
			c-1.8,0-3.6,0.4-5.3,1.3c-0.2,0.1-0.4,0.2-0.6,0.3c-0.2-0.1-0.4-0.2-0.6-0.3c-1.6-0.8-3.4-1.3-5.3-1.3c-3,0-5.9,1.2-8.1,3.3
			c-2.2,2.2-3.5,5.2-3.5,8.3c0,0.3,0,0.5,0,0.8c-1.3-0.5-2.6-0.7-4-0.7c-1.2,0-2.4,0.2-3.5,0.5c-6.1,1.9-9.4,8.4-7.5,14.5l2.1,6.6
			c0,0.1,0.1,0.2,0.1,0.3l-2.4,2.5c-2.2,2.2-3.3,5.1-3.3,8.2c0,3.1,1.3,6,3.5,8.1c0.2,0.2,0.4,0.4,0.6,0.6l-0.6,1.8
			c-0.9,2.9-0.7,6.1,0.8,8.8c1.4,2.7,3.8,4.8,6.8,5.7c1.1,0.4,2.3,0.5,3.5,0.5c4.1,0,7.8-2.1,9.9-5.5c3.5,1.9,7.4,2.9,11.5,2.9
			c4.1,0,8.1-1,11.5-2.9c2.1,3.4,5.8,5.5,9.9,5.5c1.2,0,2.4-0.2,3.5-0.5c2.9-0.9,5.3-3,6.8-5.7c1.4-2.7,1.7-5.9,0.8-8.8l-0.6-1.8
			c0.2-0.2,0.4-0.4,0.6-0.6c2.2-2.2,3.4-5,3.5-8.1c0-3.1-1.1-6-3.3-8.2l-2.4-2.5c0-0.1,0.1-0.2,0.1-0.3l2.1-6.6
			c1.9-6.1-1.4-12.6-7.5-14.5c-1.1-0.4-2.3-0.5-3.5-0.5c-1.4,0-2.8,0.3-4,0.7c0-0.3,0-0.5,0-0.8
			C376.4,170.6,371.2,165.4,364.9,165.4L364.9,165.4L364.9,165.4z"/>
	</g>
	<g>
		<path class="st0" d="M380.4,290.7c-2.9,0-5.4-1.8-6.3-4.6l-1.1-3.6l-0.3-0.1c-3.6,3.6-8.5,5.7-13.7,5.7c-5.2,0-10.1-2.1-13.7-5.7
			l-0.3,0.1l-1.1,3.6c-0.9,2.7-3.4,4.6-6.3,4.6c-0.7,0-1.3-0.1-2-0.3c-3.4-1.1-5.4-4.8-4.3-8.2l1.8-5.7c-1.2-0.3-2.3-0.8-3.1-1.7
			c-1.3-1.2-2-2.9-2-4.6c0-1.8,0.6-3.4,1.9-4.7l4.6-4.7c0.2-0.2,0.3-0.3,0.5-0.5c-0.7-0.7-1.2-1.6-1.6-2.6l-2.1-6.6
			c-0.5-1.7-0.4-3.4,0.4-5c0.8-1.6,2.2-2.7,3.8-3.2c0.6-0.2,1.3-0.3,2-0.3c2.9,0,5.4,1.8,6.3,4.6l0.2,0.7c0.5-2.6,1.7-5,3.4-7
			c-0.6-1-0.9-2.1-0.9-3.3c0-3.6,2.9-6.6,6.6-6.6c1,0,2.1,0.3,3,0.7c1.1,0.6,2.1,1.3,2.8,2.2c0.8-0.9,1.8-1.6,2.8-2.2
			c0.9-0.5,2-0.7,3-0.7c3.6,0,6.6,2.9,6.6,6.6c0,1.2-0.3,2.3-0.9,3.3c1.7,2,2.9,4.4,3.4,7l0.2-0.7c0.9-2.7,3.4-4.6,6.3-4.6
			c0.7,0,1.3,0.1,2,0.3c1.7,0.5,3,1.7,3.8,3.2c0.8,1.6,1,3.3,0.4,5l-2.1,6.6c-0.3,1-0.9,1.9-1.6,2.6c0.2,0.1,0.3,0.3,0.5,0.5
			l4.6,4.7c2.5,2.6,2.5,6.7-0.1,9.3c-0.9,0.9-2,1.4-3.1,1.7l1.8,5.7c1.1,3.5-0.8,7.1-4.3,8.2C381.8,290.6,381.1,290.7,380.4,290.7z"
			/>
		<path class="st0" d="M364.9,235.9c0.8,0,1.6,0.7,1.6,1.6c0,0.6-0.3,1.1-0.8,1.4c-0.6,0.3-1,0.9-1,1.6v1.7c2.8,1.8,4.6,5,4.6,8.6
			v3.4h4.3h0l0,0v1.8c0,0,0,0,0,0l2.9-1.1c0.4-0.2,0.8-0.5,0.9-1l1.6-5.2c0.2-0.7,0.8-1.1,1.5-1.1c0.2,0,0.3,0,0.5,0.1l0,0
			c0.8,0.3,1.3,1.1,1,2l-2.1,6.6c-0.1,0.4-0.5,0.8-0.9,1l-4.3,1.7c-0.2,0.1-0.4,0.1-0.6,0.1c-0.2,0-0.4,0-0.6-0.1v5.1
			c0.2-0.1,0.4-0.2,0.7-0.2h4.7c0.4,0,0.8,0.2,1.1,0.5l4.6,4.7c0.6,0.6,0.6,1.6,0,2.2l0,0c-0.3,0.3-0.7,0.4-1.1,0.4
			c-0.4,0-0.8-0.2-1.1-0.5l-3.7-3.8c-0.3-0.3-0.7-0.5-1.1-0.5h-3.3c-0.2,0-0.5-0.1-0.7-0.2v1.9c0,1.8-0.3,3.5-0.9,5.1
			c0.2,0,0.3,0,0.5,0.1l5.9,2.3c0.4,0.2,0.8,0.5,0.9,1l2.1,6.6c0.3,0.8-0.2,1.7-1,2c-0.2,0-0.3,0.1-0.5,0.1c-0.7,0-1.3-0.4-1.5-1.1
			l-1.6-5.2c-0.1-0.4-0.5-0.8-0.9-1l-4.5-1.8c-0.2-0.1-0.4-0.2-0.6-0.4c-2.6,4.1-7.1,6.8-12.2,6.8c-5.2,0-9.7-2.7-12.2-6.8
			c-0.2,0.2-0.4,0.3-0.6,0.4l-4.5,1.8c-0.4,0.2-0.8,0.5-0.9,1l-1.6,5.2c-0.2,0.7-0.8,1.1-1.5,1.1c-0.2,0-0.3,0-0.5-0.1
			c-0.8-0.3-1.3-1.1-1-2l2.1-6.6c0.1-0.4,0.5-0.8,0.9-1l5.9-2.3c0.1-0.1,0.3-0.1,0.5-0.1c-0.6-1.6-0.9-3.3-0.9-5.1v-1.9
			c-0.2,0.1-0.4,0.2-0.7,0.2h-3.3c-0.4,0-0.8,0.2-1.1,0.5l-3.7,3.8c-0.3,0.3-0.7,0.5-1.1,0.5c-0.4,0-0.8-0.1-1.1-0.4l0,0
			c-0.6-0.6-0.6-1.6,0-2.2l4.6-4.7c0.3-0.3,0.7-0.5,1.1-0.5h4.7c0.2,0,0.5,0.1,0.7,0.2v-5.1c-0.2,0.1-0.4,0.1-0.6,0.1
			c-0.2,0-0.4,0-0.6-0.1l-4.3-1.7c-0.4-0.2-0.8-0.5-0.9-1l-2.1-6.6c-0.3-0.8,0.2-1.7,1-2c0.2,0,0.3-0.1,0.5-0.1
			c0.7,0,1.3,0.4,1.5,1.1l1.6,5.2c0.1,0.4,0.5,0.8,0.9,1l2.9,1.1c0,0,0,0,0,0v-1.8h0h4.3v-3.4c0-3.7,2-6.9,4.9-8.7
			c-0.1-0.2-0.2-0.5-0.2-0.8v-0.7c0-0.7-0.4-1.3-1-1.6c-0.5-0.3-0.8-0.8-0.8-1.4c0-0.9,0.7-1.6,1.6-1.6c0.2,0,0.5,0.1,0.7,0.2
			c1.6,0.8,2.7,2.5,2.7,4.4v0.3c0.8-0.2,1.6-0.3,2.5-0.3s1.7,0.1,2.5,0.3v-0.3c0-1.9,1.1-3.6,2.7-4.4
			C364.4,236,364.6,235.9,364.9,235.9 M364.9,225.9C364.9,225.9,364.9,225.9,364.9,225.9C364.9,225.9,364.9,225.9,364.9,225.9
			c-1.8,0-3.6,0.4-5.3,1.3c-0.2,0.1-0.4,0.2-0.6,0.3c-0.2-0.1-0.4-0.2-0.6-0.3c-1.6-0.8-3.4-1.3-5.3-1.3c-3,0-5.9,1.2-8.1,3.3
			c-2.2,2.2-3.5,5.2-3.5,8.3c0,0.3,0,0.5,0,0.8c-1.3-0.5-2.6-0.7-4-0.7c-1.2,0-2.4,0.2-3.5,0.5c-6.1,1.9-9.4,8.4-7.5,14.5l2.1,6.6
			c0,0.1,0.1,0.2,0.1,0.3l-2.4,2.5c-2.2,2.2-3.3,5.1-3.3,8.2c0,3.1,1.3,6,3.5,8.1c0.2,0.2,0.4,0.4,0.6,0.6l-0.6,1.8
			c-1.9,6.1,1.4,12.6,7.5,14.5c1.1,0.4,2.3,0.5,3.5,0.5c4.1,0,7.8-2.1,9.9-5.5c3.5,1.9,7.4,2.9,11.5,2.9c4.1,0,8.1-1,11.5-2.9
			c2.1,3.4,5.8,5.5,9.9,5.5c1.2,0,2.4-0.2,3.5-0.5c6.1-1.9,9.4-8.4,7.5-14.5l-0.6-1.8c0.2-0.2,0.4-0.4,0.6-0.6
			c2.2-2.2,3.4-5,3.5-8.1c0-3.1-1.1-6-3.3-8.2l-2.4-2.5c0-0.1,0.1-0.2,0.1-0.3l2.1-6.6c1.9-6.1-1.4-12.6-7.5-14.5
			c-1.1-0.4-2.3-0.5-3.5-0.5c-1.4,0-2.8,0.3-4,0.7c0-0.3,0-0.5,0-0.8C376.4,231.1,371.2,225.9,364.9,225.9L364.9,225.9L364.9,225.9z
			"/>
	</g>
	<g>
		<path class="st0" d="M380.4,170.2c-2.9,0-5.4-1.8-6.3-4.6L373,162l-0.3-0.1c-3.6,3.6-8.5,5.7-13.7,5.7s-10.1-2.1-13.7-5.7L345,162
			l-1.1,3.6c-0.9,2.7-3.4,4.6-6.3,4.6c-0.7,0-1.3-0.1-2-0.3c-3.4-1.1-5.4-4.8-4.3-8.2l1.8-5.7c-1.2-0.3-2.3-0.8-3.1-1.7
			c-1.3-1.2-2-2.9-2-4.6c0-1.8,0.6-3.4,1.9-4.7l4.6-4.7c0.2-0.2,0.3-0.3,0.5-0.5c-0.7-0.7-1.2-1.6-1.6-2.6l-2.1-6.6
			c-0.5-1.7-0.4-3.4,0.4-5c0.8-1.6,2.2-2.7,3.8-3.2c0.6-0.2,1.3-0.3,2-0.3c2.9,0,5.4,1.8,6.3,4.6l0.2,0.7c0.5-2.6,1.7-5,3.4-7
			c-0.6-1-0.9-2.1-0.9-3.3c0-3.6,2.9-6.6,6.6-6.6c1,0,2.1,0.3,3,0.7c1.1,0.6,2.1,1.3,2.8,2.2c0.8-0.9,1.8-1.6,2.8-2.2
			c0.9-0.5,2-0.7,3-0.7c3.6,0,6.6,2.9,6.6,6.6c0,1.2-0.3,2.3-0.9,3.3c1.7,2,2.9,4.4,3.4,7l0.2-0.7c0.9-2.7,3.4-4.6,6.3-4.6
			c0.7,0,1.3,0.1,2,0.3c1.7,0.5,3,1.7,3.8,3.2c0.8,1.6,1,3.3,0.4,5l-2.1,6.6c-0.3,1-0.9,1.9-1.6,2.6c0.2,0.1,0.3,0.3,0.5,0.5
			l4.6,4.7c2.5,2.6,2.5,6.7-0.1,9.3c-0.9,0.9-2,1.4-3.1,1.7l1.8,5.7c0.5,1.7,0.4,3.4-0.4,5c-0.8,1.6-2.2,2.7-3.8,3.2
			C381.8,170.1,381.1,170.2,380.4,170.2z"/>
		<path class="st0" d="M364.9,115.4c0.8,0,1.6,0.7,1.6,1.6c0,0.6-0.3,1.1-0.8,1.4c-0.6,0.3-1,0.9-1,1.6v1.7c2.8,1.8,4.6,5,4.6,8.6
			v3.4h4.3h0l0,0v1.8c0,0,0,0,0,0l2.9-1.1c0.4-0.2,0.8-0.5,0.9-1l1.6-5.2c0.2-0.7,0.8-1.1,1.5-1.1c0.2,0,0.3,0,0.5,0.1l0,0
			c0.8,0.3,1.3,1.1,1,2l-2.1,6.6c-0.1,0.4-0.5,0.8-0.9,1l-4.3,1.7c-0.2,0.1-0.4,0.1-0.6,0.1c-0.2,0-0.4,0-0.6-0.1v5.1
			c0.2-0.1,0.4-0.2,0.7-0.2h4.7c0.4,0,0.8,0.2,1.1,0.5l4.6,4.7c0.6,0.6,0.6,1.6,0,2.2l0,0c-0.3,0.3-0.7,0.4-1.1,0.4
			c-0.4,0-0.8-0.2-1.1-0.5l-3.7-3.8c-0.3-0.3-0.7-0.5-1.1-0.5h-3.3c-0.2,0-0.5-0.1-0.7-0.2v1.9c0,1.8-0.3,3.5-0.9,5.1
			c0.2,0,0.3,0,0.5,0.1l5.9,2.3c0.4,0.2,0.8,0.5,0.9,1l2.1,6.6c0.3,0.8-0.2,1.7-1,2c-0.2,0-0.3,0.1-0.5,0.1c-0.7,0-1.3-0.4-1.5-1.1
			l-1.6-5.2c-0.1-0.4-0.5-0.8-0.9-1l-4.5-1.8c-0.2-0.1-0.4-0.2-0.6-0.4c-2.6,4.1-7.1,6.8-12.2,6.8c-5.2,0-9.7-2.7-12.2-6.8
			c-0.2,0.2-0.4,0.3-0.6,0.4l-4.5,1.8c-0.4,0.2-0.8,0.5-0.9,1l-1.6,5.2c-0.2,0.7-0.8,1.1-1.5,1.1c-0.2,0-0.3,0-0.5-0.1
			c-0.8-0.3-1.3-1.1-1-2l2.1-6.6c0.1-0.4,0.5-0.8,0.9-1l5.9-2.3c0.1-0.1,0.3-0.1,0.5-0.1c-0.6-1.6-0.9-3.3-0.9-5.1v-1.9
			c-0.2,0.1-0.4,0.2-0.7,0.2h-3.3c-0.4,0-0.8,0.2-1.1,0.5l-3.7,3.8c-0.3,0.3-0.7,0.5-1.1,0.5c-0.4,0-0.8-0.1-1.1-0.4l0,0
			c-0.6-0.6-0.6-1.6,0-2.2l4.6-4.7c0.3-0.3,0.7-0.5,1.1-0.5h4.7c0.2,0,0.5,0.1,0.7,0.2v-5.1c-0.2,0.1-0.4,0.1-0.6,0.1
			c-0.2,0-0.4,0-0.6-0.1l-4.3-1.7c-0.4-0.2-0.8-0.5-0.9-1l-2.1-6.6c-0.3-0.8,0.2-1.7,1-2v0c0.2,0,0.3-0.1,0.5-0.1
			c0.7,0,1.3,0.4,1.5,1.1l1.6,5.2c0.1,0.4,0.5,0.8,0.9,1l2.9,1.1c0,0,0,0,0,0v-1.8h0h4.3v-3.4c0-3.7,2-6.9,4.9-8.7
			c-0.1-0.2-0.2-0.5-0.2-0.8V120c0-0.7-0.4-1.3-1-1.6c-0.5-0.3-0.8-0.8-0.8-1.4c0-0.9,0.7-1.6,1.6-1.6c0.2,0,0.5,0.1,0.7,0.2
			c1.6,0.8,2.7,2.5,2.7,4.4v0.3c0.8-0.2,1.6-0.3,2.5-0.3s1.7,0.1,2.5,0.3V120c0-1.9,1.1-3.6,2.7-4.4
			C364.4,115.5,364.6,115.4,364.9,115.4 M364.9,105.4C364.9,105.4,364.9,105.4,364.9,105.4C364.9,105.4,364.9,105.4,364.9,105.4
			c-1.8,0-3.6,0.4-5.3,1.3c-0.2,0.1-0.4,0.2-0.6,0.3c-0.2-0.1-0.4-0.2-0.6-0.3c-1.6-0.8-3.4-1.3-5.3-1.3c-3,0-5.9,1.2-8.1,3.3
			c-2.2,2.2-3.5,5.2-3.5,8.3c0,0.3,0,0.5,0,0.8c-1.3-0.5-2.6-0.7-4-0.7c-1.2,0-2.4,0.2-3.5,0.5c-6.1,1.9-9.4,8.4-7.5,14.5l2.1,6.6
			c0,0.1,0.1,0.2,0.1,0.3l-2.4,2.5c-2.2,2.2-3.3,5.1-3.3,8.2c0,3.1,1.3,6,3.5,8.1c0.2,0.2,0.4,0.4,0.6,0.6l-0.6,1.8
			c-1.9,6.1,1.4,12.6,7.5,14.5c1.1,0.4,2.3,0.5,3.5,0.5c4.1,0,7.8-2.1,9.9-5.5c3.5,1.9,7.4,2.9,11.5,2.9c4.1,0,8.1-1,11.5-2.9
			c2.1,3.4,5.8,5.5,9.9,5.5c1.2,0,2.4-0.2,3.5-0.5c6.1-1.9,9.4-8.4,7.5-14.5l-0.6-1.8c0.2-0.2,0.4-0.4,0.6-0.6
			c2.2-2.2,3.4-5,3.5-8.1c0-3.1-1.1-6-3.3-8.2l-2.4-2.5c0-0.1,0.1-0.2,0.1-0.3l2.1-6.6c1.9-6.1-1.4-12.6-7.5-14.5
			c-1.1-0.4-2.3-0.5-3.5-0.5c-1.4,0-2.8,0.3-4,0.7c0-0.3,0-0.5,0-0.8C376.4,110.6,371.2,105.4,364.9,105.4L364.9,105.4L364.9,105.4z
			"/>
	</g>
</g>
<g>
	<g>
		<path class="st1" d="M22.4,227.1L22.4,227.1c-0.8-0.3-1.3-1.1-1-2l2.1-6.6c0.1-0.4,0.5-0.8,0.9-1l5.9-2.3c0.8-0.3,1.7,0.1,2,0.9
			l0,0c0.3,0.8-0.1,1.7-0.9,2l-4.5,1.8c-0.4,0.2-0.8,0.5-0.9,1l-1.6,5.2C24.1,226.9,23.2,227.4,22.4,227.1z"/>
		<path class="st1" d="M28.6,200.3l-4.3-1.7c-0.4-0.2-0.8-0.5-0.9-1l-2.1-6.6c-0.3-0.8,0.2-1.7,1-2h0c0.8-0.3,1.7,0.2,2,1l1.6,5.2
			c0.1,0.4,0.5,0.8,0.9,1l2.9,1.1c0.8,0.3,1.2,1.2,0.9,2v0C30.3,200.2,29.4,200.6,28.6,200.3z"/>
		<path class="st1" d="M18.8,212.6L18.8,212.6c-0.6-0.6-0.6-1.6,0-2.2l4.6-4.7c0.3-0.3,0.7-0.5,1.1-0.5h4.7c0.9,0,1.6,0.7,1.6,1.6
			l0,0c0,0.9-0.7,1.6-1.6,1.6h-3.3c-0.4,0-0.8,0.2-1.1,0.5l-3.7,3.8C20.4,213.2,19.4,213.2,18.8,212.6z"/>
	</g>
	<g>
		<path class="st2" d="M64.2,226.1l-1.6-5.2c-0.1-0.4-0.5-0.8-0.9-1l-4.5-1.8c-0.8-0.3-1.2-1.2-0.9-2l0,0c0.3-0.8,1.2-1.2,2-0.9
			l5.9,2.3c0.4,0.2,0.8,0.5,0.9,1l2.1,6.6c0.3,0.8-0.2,1.7-1,2l0,0C65.3,227.4,64.4,226.9,64.2,226.1z"/>
		<path class="st2" d="M57.8,199.4L57.8,199.4c-0.3-0.8,0.1-1.7,0.9-2l2.9-1.1c0.4-0.2,0.8-0.5,0.9-1l1.6-5.2c0.3-0.8,1.1-1.3,2-1
			l0,0c0.8,0.3,1.3,1.1,1,2l-2.1,6.6c-0.1,0.4-0.5,0.8-0.9,1l-4.3,1.7C59.1,200.6,58.2,200.2,57.8,199.4z"/>
		<path class="st2" d="M67.5,212.6l-3.7-3.8c-0.3-0.3-0.7-0.5-1.1-0.5h-3.3c-0.9,0-1.6-0.7-1.6-1.6l0,0c0-0.9,0.7-1.6,1.6-1.6h4.7
			c0.4,0,0.8,0.2,1.1,0.5l4.6,4.7c0.6,0.6,0.6,1.6,0,2.2l0,0C69.1,213.2,68.1,213.2,67.5,212.6z"/>
	</g>
	<path class="st1" d="M41.8,184.3h-1.6c-0.9,0-1.6-0.7-1.6-1.6V182c0-0.7-0.4-1.3-1-1.6c-0.5-0.3-0.8-0.8-0.8-1.4l0,0
		c0-1.2,1.2-1.9,2.3-1.4c1.6,0.8,2.7,2.5,2.7,4.4V184.3L41.8,184.3z"/>
	<path class="st2" d="M49.8,184.3h-1.6c-0.9,0-1.6-0.7-1.6-1.6V182c0-1.9,1.1-3.6,2.7-4.4c1-0.5,2.3,0.2,2.3,1.4l0,0
		c0,0.6-0.3,1.1-0.8,1.4c-0.6,0.3-1,0.9-1,1.6L49.8,184.3L49.8,184.3z"/>
	<path class="st3" d="M44.2,224.6L44.2,224.6c-8,0-14.5-6.5-14.5-14.5v-14.5h28.9v14.5C58.7,218.1,52.2,224.6,44.2,224.6z"/>
	<path class="st4" d="M44.2,182L44.2,182c-5.6,0-10.2,4.6-10.2,10.2v5.7h20.4v-5.7C54.5,186.6,49.9,182,44.2,182z"/>
	<path class="st1" d="M44.2,182L44.2,182c0,3.8,0,15.9,0,15.9h10.2v-5.7C54.5,186.6,49.9,182,44.2,182z"/>
	<polygon class="st5" points="58.7,195.6 29.8,195.6 44.2,207.4 	"/>
</g>
<g>
	<g>
		<path class="st1" d="M85.4,167.1L85.4,167.1c-0.8-0.3-1.3-1.1-1-2l2.1-6.6c0.1-0.4,0.5-0.8,0.9-1l5.9-2.3c0.8-0.3,1.7,0.1,2,0.9
			l0,0c0.3,0.8-0.1,1.7-0.9,2l-4.5,1.8c-0.4,0.2-0.8,0.5-0.9,1l-1.6,5.2C87.1,166.9,86.2,167.4,85.4,167.1z"/>
		<path class="st1" d="M91.6,140.3l-4.3-1.7c-0.4-0.2-0.8-0.5-0.9-1l-2.1-6.6c-0.3-0.8,0.2-1.7,1-2l0,0c0.8-0.3,1.7,0.2,2,1l1.6,5.2
			c0.1,0.4,0.5,0.8,0.9,1l2.9,1.1c0.8,0.3,1.2,1.2,0.9,2l0,0C93.4,140.2,92.5,140.6,91.6,140.3z"/>
		<path class="st1" d="M81.8,152.6L81.8,152.6c-0.6-0.6-0.6-1.6,0-2.2l4.6-4.7c0.3-0.3,0.7-0.5,1.1-0.5h4.7c0.9,0,1.6,0.7,1.6,1.6
			l0,0c0,0.9-0.7,1.6-1.6,1.6h-3.3c-0.4,0-0.8,0.2-1.1,0.5l-3.7,3.8C83.4,153.2,82.4,153.2,81.8,152.6z"/>
	</g>
	<g>
		<path class="st2" d="M127.2,166.1l-1.6-5.2c-0.1-0.4-0.5-0.8-0.9-1l-4.5-1.8c-0.8-0.3-1.2-1.2-0.9-2l0,0c0.3-0.8,1.2-1.2,2-0.9
			l5.9,2.3c0.4,0.2,0.8,0.5,0.9,1l2.1,6.6c0.3,0.8-0.2,1.7-1,2l0,0C128.3,167.4,127.4,166.9,127.2,166.1z"/>
		<path class="st2" d="M120.9,139.4L120.9,139.4c-0.3-0.8,0.1-1.7,0.9-2l2.9-1.1c0.4-0.2,0.8-0.5,0.9-1l1.6-5.2c0.3-0.8,1.1-1.3,2-1
			l0,0c0.8,0.3,1.3,1.1,1,2l-2.1,6.6c-0.1,0.4-0.5,0.8-0.9,1l-4.3,1.7C122.1,140.6,121.2,140.2,120.9,139.4z"/>
		<path class="st2" d="M130.5,152.6l-3.7-3.8c-0.3-0.3-0.7-0.5-1.1-0.5h-3.3c-0.9,0-1.6-0.7-1.6-1.6l0,0c0-0.9,0.7-1.6,1.6-1.6h4.7
			c0.4,0,0.8,0.2,1.1,0.5l4.6,4.7c0.6,0.6,0.6,1.6,0,2.2l0,0C132.1,153.2,131.2,153.2,130.5,152.6z"/>
	</g>
	<path class="st1" d="M104.8,124.3h-1.6c-0.9,0-1.6-0.7-1.6-1.6V122c0-0.7-0.4-1.3-1-1.6c-0.5-0.3-0.8-0.8-0.8-1.4l0,0
		c0-1.2,1.2-1.9,2.3-1.4c1.6,0.8,2.7,2.5,2.7,4.4V124.3L104.8,124.3z"/>
	<path class="st2" d="M112.8,124.3h-1.6c-0.9,0-1.6-0.7-1.6-1.6V122c0-1.9,1.1-3.6,2.7-4.4c1-0.5,2.3,0.2,2.3,1.4l0,0
		c0,0.6-0.3,1.1-0.8,1.4c-0.6,0.3-1,0.9-1,1.6V124.3L112.8,124.3z"/>
	<path class="st6" d="M107.3,164.6L107.3,164.6c-8,0-14.5-6.5-14.5-14.5v-14.5h28.9v14.5C121.7,158.1,115.3,164.6,107.3,164.6z"/>
	<path class="st4" d="M107.3,122L107.3,122c-5.6,0-10.2,4.6-10.2,10.2v5.7h20.4v-5.7C117.5,126.6,112.9,122,107.3,122z"/>
	<path class="st1" d="M107.3,122L107.3,122c0,3.8,0,15.9,0,15.9h10.2v-5.7C117.5,126.6,112.9,122,107.3,122z"/>
	<polygon class="st7" points="121.7,135.6 92.8,135.6 107.3,147.4 	"/>
</g>
<g>
	<g>
		<path class="st1" d="M85.4,227.1L85.4,227.1c-0.8-0.3-1.3-1.1-1-2l2.1-6.6c0.1-0.4,0.5-0.8,0.9-1l5.9-2.3c0.8-0.3,1.7,0.1,2,0.9
			l0,0c0.3,0.8-0.1,1.7-0.9,2l-4.5,1.8c-0.4,0.2-0.8,0.5-0.9,1l-1.6,5.2C87.1,226.9,86.2,227.4,85.4,227.1z"/>
		<path class="st1" d="M91.6,200.3l-4.3-1.7c-0.4-0.2-0.8-0.5-0.9-1l-2.1-6.6c-0.3-0.8,0.2-1.7,1-2h0c0.8-0.3,1.7,0.2,2,1l1.6,5.2
			c0.1,0.4,0.5,0.8,0.9,1l2.9,1.1c0.8,0.3,1.2,1.2,0.9,2v0C93.4,200.2,92.5,200.6,91.6,200.3z"/>
		<path class="st1" d="M81.8,212.6L81.8,212.6c-0.6-0.6-0.6-1.6,0-2.2l4.6-4.7c0.3-0.3,0.7-0.5,1.1-0.5h4.7c0.9,0,1.6,0.7,1.6,1.6
			l0,0c0,0.9-0.7,1.6-1.6,1.6h-3.3c-0.4,0-0.8,0.2-1.1,0.5l-3.7,3.8C83.4,213.2,82.4,213.2,81.8,212.6z"/>
	</g>
	<g>
		<path class="st2" d="M127.2,226.1l-1.6-5.2c-0.1-0.4-0.5-0.8-0.9-1l-4.5-1.8c-0.8-0.3-1.2-1.2-0.9-2l0,0c0.3-0.8,1.2-1.2,2-0.9
			l5.9,2.3c0.4,0.2,0.8,0.5,0.9,1l2.1,6.6c0.3,0.8-0.2,1.7-1,2l0,0C128.3,227.4,127.4,226.9,127.2,226.1z"/>
		<path class="st2" d="M120.9,199.4L120.9,199.4c-0.3-0.8,0.1-1.7,0.9-2l2.9-1.1c0.4-0.2,0.8-0.5,0.9-1l1.6-5.2c0.3-0.8,1.1-1.3,2-1
			l0,0c0.8,0.3,1.3,1.1,1,2l-2.1,6.6c-0.1,0.4-0.5,0.8-0.9,1l-4.3,1.7C122.1,200.6,121.2,200.2,120.9,199.4z"/>
		<path class="st2" d="M130.5,212.6l-3.7-3.8c-0.3-0.3-0.7-0.5-1.1-0.5h-3.3c-0.9,0-1.6-0.7-1.6-1.6l0,0c0-0.9,0.7-1.6,1.6-1.6h4.7
			c0.4,0,0.8,0.2,1.1,0.5l4.6,4.7c0.6,0.6,0.6,1.6,0,2.2l0,0C132.1,213.2,131.2,213.2,130.5,212.6z"/>
	</g>
	<path class="st1" d="M104.8,184.3h-1.6c-0.9,0-1.6-0.7-1.6-1.6V182c0-0.7-0.4-1.3-1-1.6c-0.5-0.3-0.8-0.8-0.8-1.4l0,0
		c0-1.2,1.2-1.9,2.3-1.4c1.6,0.8,2.7,2.5,2.7,4.4V184.3L104.8,184.3z"/>
	<path class="st2" d="M112.8,184.3h-1.6c-0.9,0-1.6-0.7-1.6-1.6V182c0-1.9,1.1-3.6,2.7-4.4c1-0.5,2.3,0.2,2.3,1.4l0,0
		c0,0.6-0.3,1.1-0.8,1.4c-0.6,0.3-1,0.9-1,1.6V184.3L112.8,184.3z"/>
	<path class="st8" d="M107.3,224.6L107.3,224.6c-8,0-14.5-6.5-14.5-14.5v-14.5h28.9v14.5C121.7,218.1,115.3,224.6,107.3,224.6z"/>
	<path class="st4" d="M107.3,182L107.3,182c-5.6,0-10.2,4.6-10.2,10.2v5.7h20.4v-5.7C117.5,186.6,112.9,182,107.3,182z"/>
	<path class="st1" d="M107.3,182L107.3,182c0,3.8,0,15.9,0,15.9h10.2v-5.7C117.5,186.6,112.9,182,107.3,182z"/>
	<polygon class="st9" points="121.7,195.6 92.8,195.6 107.3,207.4 	"/>
</g>
<g>
	<g>
		<path class="st1" d="M85.4,287.6L85.4,287.6c-0.8-0.3-1.3-1.1-1-2l2.1-6.6c0.1-0.4,0.5-0.8,0.9-1l5.9-2.3c0.8-0.3,1.7,0.1,2,0.9
			l0,0c0.3,0.8-0.1,1.7-0.9,2l-4.5,1.8c-0.4,0.2-0.8,0.5-0.9,1l-1.6,5.2C87.1,287.4,86.2,287.9,85.4,287.6z"/>
		<path class="st1" d="M91.6,260.8l-4.3-1.7c-0.4-0.2-0.8-0.5-0.9-1l-2.1-6.6c-0.3-0.8,0.2-1.7,1-2h0c0.8-0.3,1.7,0.2,2,1l1.6,5.2
			c0.1,0.4,0.5,0.8,0.9,1l2.9,1.1c0.8,0.3,1.2,1.2,0.9,2l0,0C93.4,260.7,92.5,261.1,91.6,260.8z"/>
		<path class="st1" d="M81.8,273.1L81.8,273.1c-0.6-0.6-0.6-1.6,0-2.2l4.6-4.7c0.3-0.3,0.7-0.5,1.1-0.5h4.7c0.9,0,1.6,0.7,1.6,1.6
			l0,0c0,0.9-0.7,1.6-1.6,1.6h-3.3c-0.4,0-0.8,0.2-1.1,0.5l-3.7,3.8C83.4,273.7,82.4,273.7,81.8,273.1z"/>
	</g>
	<g>
		<path class="st2" d="M127.2,286.6l-1.6-5.2c-0.1-0.4-0.5-0.8-0.9-1l-4.5-1.8c-0.8-0.3-1.2-1.2-0.9-2l0,0c0.3-0.8,1.2-1.2,2-0.9
			l5.9,2.3c0.4,0.2,0.8,0.5,0.9,1l2.1,6.6c0.3,0.8-0.2,1.7-1,2l0,0C128.3,287.9,127.4,287.4,127.2,286.6z"/>
		<path class="st2" d="M120.9,259.9L120.9,259.9c-0.3-0.8,0.1-1.7,0.9-2l2.9-1.1c0.4-0.2,0.8-0.5,0.9-1l1.6-5.2c0.3-0.8,1.1-1.3,2-1
			l0,0c0.8,0.3,1.3,1.1,1,2l-2.1,6.6c-0.1,0.4-0.5,0.8-0.9,1l-4.3,1.7C122.1,261.1,121.2,260.7,120.9,259.9z"/>
		<path class="st2" d="M130.5,273.1l-3.7-3.8c-0.3-0.3-0.7-0.5-1.1-0.5h-3.3c-0.9,0-1.6-0.7-1.6-1.6l0,0c0-0.9,0.7-1.6,1.6-1.6h4.7
			c0.4,0,0.8,0.2,1.1,0.5l4.6,4.7c0.6,0.6,0.6,1.6,0,2.2l0,0C132.1,273.7,131.2,273.7,130.5,273.1z"/>
	</g>
	<path class="st1" d="M104.8,244.8h-1.6c-0.9,0-1.6-0.7-1.6-1.6v-0.7c0-0.7-0.4-1.3-1-1.6c-0.5-0.3-0.8-0.8-0.8-1.4l0,0
		c0-1.2,1.2-1.9,2.3-1.4c1.6,0.8,2.7,2.5,2.7,4.4V244.8L104.8,244.8z"/>
	<path class="st2" d="M112.8,244.8h-1.6c-0.9,0-1.6-0.7-1.6-1.6v-0.7c0-1.9,1.1-3.6,2.7-4.4c1-0.5,2.3,0.2,2.3,1.4l0,0
		c0,0.6-0.3,1.1-0.8,1.4c-0.6,0.3-1,0.9-1,1.6V244.8L112.8,244.8z"/>
	<path class="st3" d="M107.3,285.1L107.3,285.1c-8,0-14.5-6.5-14.5-14.5v-14.5h28.9v14.5C121.7,278.6,115.3,285.1,107.3,285.1z"/>
	<path class="st4" d="M107.3,242.5L107.3,242.5c-5.6,0-10.2,4.6-10.2,10.2v5.7h20.4v-5.7C117.5,247.1,112.9,242.5,107.3,242.5z"/>
	<path class="st1" d="M107.3,242.5L107.3,242.5c0,3.8,0,15.9,0,15.9h10.2v-5.7C117.5,247.1,112.9,242.5,107.3,242.5z"/>
	<polygon class="st5" points="121.7,256.1 92.8,256.1 107.3,267.9 	"/>
</g>
<g>
	<g>
		<path class="st1" d="M22.4,287.6L22.4,287.6c-0.8-0.3-1.3-1.1-1-2l2.1-6.6c0.1-0.4,0.5-0.8,0.9-1l5.9-2.3c0.8-0.3,1.7,0.1,2,0.9
			l0,0c0.3,0.8-0.1,1.7-0.9,2l-4.5,1.8c-0.4,0.2-0.8,0.5-0.9,1l-1.6,5.2C24.1,287.4,23.2,287.9,22.4,287.6z"/>
		<path class="st1" d="M28.6,260.8l-4.3-1.7c-0.4-0.2-0.8-0.5-0.9-1l-2.1-6.6c-0.3-0.8,0.2-1.7,1-2h0c0.8-0.3,1.7,0.2,2,1l1.6,5.2
			c0.1,0.4,0.5,0.8,0.9,1l2.9,1.1c0.8,0.3,1.2,1.2,0.9,2l0,0C30.3,260.7,29.4,261.1,28.6,260.8z"/>
		<path class="st1" d="M18.8,273.1L18.8,273.1c-0.6-0.6-0.6-1.6,0-2.2l4.6-4.7c0.3-0.3,0.7-0.5,1.1-0.5h4.7c0.9,0,1.6,0.7,1.6,1.6
			l0,0c0,0.9-0.7,1.6-1.6,1.6h-3.3c-0.4,0-0.8,0.2-1.1,0.5l-3.7,3.8C20.4,273.7,19.4,273.7,18.8,273.1z"/>
	</g>
	<g>
		<path class="st2" d="M64.2,286.6l-1.6-5.2c-0.1-0.4-0.5-0.8-0.9-1l-4.5-1.8c-0.8-0.3-1.2-1.2-0.9-2l0,0c0.3-0.8,1.2-1.2,2-0.9
			l5.9,2.3c0.4,0.2,0.8,0.5,0.9,1l2.1,6.6c0.3,0.8-0.2,1.7-1,2l0,0C65.3,287.9,64.4,287.4,64.2,286.6z"/>
		<path class="st2" d="M57.8,259.9L57.8,259.9c-0.3-0.8,0.1-1.7,0.9-2l2.9-1.1c0.4-0.2,0.8-0.5,0.9-1l1.6-5.2c0.3-0.8,1.1-1.3,2-1
			l0,0c0.8,0.3,1.3,1.1,1,2l-2.1,6.6c-0.1,0.4-0.5,0.8-0.9,1l-4.3,1.7C59.1,261.1,58.2,260.7,57.8,259.9z"/>
		<path class="st2" d="M67.5,273.1l-3.7-3.8c-0.3-0.3-0.7-0.5-1.1-0.5h-3.3c-0.9,0-1.6-0.7-1.6-1.6l0,0c0-0.9,0.7-1.6,1.6-1.6h4.7
			c0.4,0,0.8,0.2,1.1,0.5l4.6,4.7c0.6,0.6,0.6,1.6,0,2.2l0,0C69.1,273.7,68.1,273.7,67.5,273.1z"/>
	</g>
	<path class="st1" d="M41.8,244.8h-1.6c-0.9,0-1.6-0.7-1.6-1.6v-0.7c0-0.7-0.4-1.3-1-1.6c-0.5-0.3-0.8-0.8-0.8-1.4l0,0
		c0-1.2,1.2-1.9,2.3-1.4c1.6,0.8,2.7,2.5,2.7,4.4V244.8L41.8,244.8z"/>
	<path class="st2" d="M49.8,244.8h-1.6c-0.9,0-1.6-0.7-1.6-1.6v-0.7c0-1.9,1.1-3.6,2.7-4.4c1-0.5,2.3,0.2,2.3,1.4l0,0
		c0,0.6-0.3,1.1-0.8,1.4c-0.6,0.3-1,0.9-1,1.6L49.8,244.8L49.8,244.8z"/>
	<path class="st6" d="M44.2,285.1L44.2,285.1c-8,0-14.5-6.5-14.5-14.5v-14.5h28.9v14.5C58.7,278.6,52.2,285.1,44.2,285.1z"/>
	<path class="st4" d="M44.2,242.5L44.2,242.5c-5.6,0-10.2,4.6-10.2,10.2v5.7h20.4v-5.7C54.5,247.1,49.9,242.5,44.2,242.5z"/>
	<path class="st1" d="M44.2,242.5L44.2,242.5c0,3.8,0,15.9,0,15.9h10.2v-5.7C54.5,247.1,49.9,242.5,44.2,242.5z"/>
	<polygon class="st7" points="58.7,256.1 29.8,256.1 44.2,267.9 	"/>
</g>
<g>
	<g>
		<path class="st1" d="M22.4,167.1L22.4,167.1c-0.8-0.3-1.3-1.1-1-2l2.1-6.6c0.1-0.4,0.5-0.8,0.9-1l5.9-2.3c0.8-0.3,1.7,0.1,2,0.9
			l0,0c0.3,0.8-0.1,1.7-0.9,2l-4.5,1.8c-0.4,0.2-0.8,0.5-0.9,1l-1.6,5.2C24.1,166.9,23.2,167.4,22.4,167.1z"/>
		<path class="st1" d="M28.6,140.3l-4.3-1.7c-0.4-0.2-0.8-0.5-0.9-1l-2.1-6.6c-0.3-0.8,0.2-1.7,1-2l0,0c0.8-0.3,1.7,0.2,2,1l1.6,5.2
			c0.1,0.4,0.5,0.8,0.9,1l2.9,1.1c0.8,0.3,1.2,1.2,0.9,2l0,0C30.3,140.2,29.4,140.6,28.6,140.3z"/>
		<path class="st1" d="M18.8,152.6L18.8,152.6c-0.6-0.6-0.6-1.6,0-2.2l4.6-4.7c0.3-0.3,0.7-0.5,1.1-0.5h4.7c0.9,0,1.6,0.7,1.6,1.6
			l0,0c0,0.9-0.7,1.6-1.6,1.6h-3.3c-0.4,0-0.8,0.2-1.1,0.5l-3.7,3.8C20.4,153.2,19.4,153.2,18.8,152.6z"/>
	</g>
	<g>
		<path class="st2" d="M64.2,166.1l-1.6-5.2c-0.1-0.4-0.5-0.8-0.9-1l-4.5-1.8c-0.8-0.3-1.2-1.2-0.9-2l0,0c0.3-0.8,1.2-1.2,2-0.9
			l5.9,2.3c0.4,0.2,0.8,0.5,0.9,1l2.1,6.6c0.3,0.8-0.2,1.7-1,2l0,0C65.3,167.4,64.4,166.9,64.2,166.1z"/>
		<path class="st2" d="M57.8,139.4L57.8,139.4c-0.3-0.8,0.1-1.7,0.9-2l2.9-1.1c0.4-0.2,0.8-0.5,0.9-1l1.6-5.2c0.3-0.8,1.1-1.3,2-1
			l0,0c0.8,0.3,1.3,1.1,1,2l-2.1,6.6c-0.1,0.4-0.5,0.8-0.9,1l-4.3,1.7C59.1,140.6,58.2,140.2,57.8,139.4z"/>
		<path class="st2" d="M67.5,152.6l-3.7-3.8c-0.3-0.3-0.7-0.5-1.1-0.5h-3.3c-0.9,0-1.6-0.7-1.6-1.6l0,0c0-0.9,0.7-1.6,1.6-1.6h4.7
			c0.4,0,0.8,0.2,1.1,0.5l4.6,4.7c0.6,0.6,0.6,1.6,0,2.2l0,0C69.1,153.2,68.1,153.2,67.5,152.6z"/>
	</g>
	<path class="st1" d="M41.8,124.3h-1.6c-0.9,0-1.6-0.7-1.6-1.6V122c0-0.7-0.4-1.3-1-1.6c-0.5-0.3-0.8-0.8-0.8-1.4l0,0
		c0-1.2,1.2-1.9,2.3-1.4c1.6,0.8,2.7,2.5,2.7,4.4V124.3L41.8,124.3z"/>
	<path class="st2" d="M49.8,124.3h-1.6c-0.9,0-1.6-0.7-1.6-1.6V122c0-1.9,1.1-3.6,2.7-4.4c1-0.5,2.3,0.2,2.3,1.4l0,0
		c0,0.6-0.3,1.1-0.8,1.4c-0.6,0.3-1,0.9-1,1.6L49.8,124.3L49.8,124.3z"/>
	<path class="st8" d="M44.2,164.6L44.2,164.6c-8,0-14.5-6.5-14.5-14.5v-14.5h28.9v14.5C58.7,158.1,52.2,164.6,44.2,164.6z"/>
	<path class="st4" d="M44.2,122L44.2,122c-5.6,0-10.2,4.6-10.2,10.2v5.7h20.4v-5.7C54.5,126.6,49.9,122,44.2,122z"/>
	<path class="st1" d="M44.2,122L44.2,122c0,3.8,0,15.9,0,15.9h10.2v-5.7C54.5,126.6,49.9,122,44.2,122z"/>
	<polygon class="st9" points="58.7,135.6 29.8,135.6 44.2,147.4 	"/>
</g>
<g>
	<g>
		<g>
			<path class="st1" d="M215.5,225.1L215.5,225.1c-0.8-0.3-1.3-1.1-1-2l2.1-6.6c0.1-0.4,0.5-0.8,0.9-1l5.9-2.3
				c0.8-0.3,1.7,0.1,2,0.9l0,0c0.3,0.8-0.1,1.7-0.9,2l-4.5,1.8c-0.4,0.2-0.8,0.5-0.9,1l-1.6,5.2
				C217.2,224.9,216.3,225.4,215.5,225.1z"/>
			<path class="st1" d="M221.8,198.3l-4.3-1.7c-0.4-0.2-0.8-0.5-0.9-1l-2.1-6.6c-0.3-0.8,0.2-1.7,1-2l0,0c0.8-0.3,1.7,0.2,2,1
				l1.6,5.2c0.1,0.4,0.5,0.8,0.9,1l2.9,1.1c0.8,0.3,1.2,1.2,0.9,2l0,0C223.5,198.2,222.6,198.6,221.8,198.3z"/>
			<path class="st1" d="M211.9,210.6L211.9,210.6c-0.6-0.6-0.6-1.6,0-2.2l4.6-4.7c0.3-0.3,0.7-0.5,1.1-0.5h4.7
				c0.9,0,1.6,0.7,1.6,1.6v0c0,0.9-0.7,1.6-1.6,1.6h-3.3c-0.4,0-0.8,0.2-1.1,0.5l-3.7,3.8C213.5,211.2,212.5,211.2,211.9,210.6z"/>
		</g>
		<g>
			<path class="st2" d="M257.3,224.1l-1.6-5.2c-0.1-0.4-0.5-0.8-0.9-1l-4.5-1.8c-0.8-0.3-1.2-1.2-0.9-2l0,0c0.3-0.8,1.2-1.2,2-0.9
				l5.9,2.3c0.4,0.2,0.8,0.5,0.9,1l2.1,6.6c0.3,0.8-0.2,1.7-1,2l0,0C258.5,225.4,257.6,224.9,257.3,224.1z"/>
			<path class="st2" d="M251,197.4L251,197.4c-0.3-0.8,0.1-1.7,0.9-2l2.9-1.1c0.4-0.2,0.8-0.5,0.9-1l1.6-5.2c0.3-0.8,1.1-1.3,2-1
				l0,0c0.8,0.3,1.3,1.1,1,2l-2.1,6.6c-0.1,0.4-0.5,0.8-0.9,1l-4.3,1.7C252.2,198.6,251.3,198.2,251,197.4z"/>
			<path class="st2" d="M260.7,210.6l-3.7-3.8c-0.3-0.3-0.7-0.5-1.1-0.5h-3.3c-0.9,0-1.6-0.7-1.6-1.6v0c0-0.9,0.7-1.6,1.6-1.6h4.7
				c0.4,0,0.8,0.2,1.1,0.5l4.6,4.7c0.6,0.6,0.6,1.6,0,2.2l0,0C262.3,211.2,261.3,211.2,260.7,210.6z"/>
		</g>
		<path class="st1" d="M235,182.2h-1.6c-0.9,0-1.6-0.7-1.6-1.6V180c0-0.7-0.4-1.3-1-1.6c-0.5-0.3-0.8-0.8-0.8-1.4l0,0
			c0-1.2,1.2-1.9,2.3-1.4c1.6,0.8,2.7,2.5,2.7,4.4V182.2L235,182.2z"/>
		<path class="st2" d="M243,182.2h-1.6c-0.9,0-1.6-0.7-1.6-1.6V180c0-1.9,1.1-3.6,2.7-4.4c1-0.5,2.3,0.2,2.3,1.4l0,0
			c0,0.6-0.3,1.1-0.8,1.4c-0.6,0.3-1,0.9-1,1.6L243,182.2L243,182.2z"/>
		<path class="st3" d="M237.4,222.5L237.4,222.5c-8,0-14.5-6.5-14.5-14.5v-14.5h28.9v14.5C251.9,216.1,245.4,222.5,237.4,222.5z"/>
		<path class="st4" d="M237.4,180L237.4,180c-5.6,0-10.2,4.6-10.2,10.2v5.7h20.4v-5.7C247.6,184.5,243,180,237.4,180z"/>
		<path class="st1" d="M237.4,180L237.4,180c0,3.8,0,15.9,0,15.9h10.2v-5.7C247.6,184.5,243,180,237.4,180z"/>
		<polygon class="st5" points="251.9,193.6 222.9,193.6 237.4,205.3 		"/>
	</g>
	<g>
		<g>
			<path class="st1" d="M278.5,165.1L278.5,165.1c-0.8-0.3-1.3-1.1-1-2l2.1-6.6c0.1-0.4,0.5-0.8,0.9-1l5.9-2.3
				c0.8-0.3,1.7,0.1,2,0.9l0,0c0.3,0.8-0.1,1.7-0.9,2l-4.5,1.8c-0.4,0.2-0.8,0.5-0.9,1l-1.6,5.2
				C280.2,164.9,279.4,165.4,278.5,165.1z"/>
			<path class="st1" d="M284.8,138.3l-4.3-1.7c-0.4-0.2-0.8-0.5-0.9-1l-2.1-6.6c-0.3-0.8,0.2-1.7,1-2l0,0c0.8-0.3,1.7,0.2,2,1
				l1.6,5.2c0.1,0.4,0.5,0.8,0.9,1l2.9,1.1c0.8,0.3,1.2,1.2,0.9,2l0,0C286.5,138.2,285.6,138.6,284.8,138.3z"/>
			<path class="st1" d="M274.9,150.6L274.9,150.6c-0.6-0.6-0.6-1.6,0-2.2l4.6-4.7c0.3-0.3,0.7-0.5,1.1-0.5h4.7
				c0.9,0,1.6,0.7,1.6,1.6l0,0c0,0.9-0.7,1.6-1.6,1.6h-3.3c-0.4,0-0.8,0.2-1.1,0.5l-3.7,3.8C276.5,151.2,275.5,151.2,274.9,150.6z"
				/>
		</g>
		<g>
			<path class="st2" d="M320.3,164.1l-1.6-5.2c-0.1-0.4-0.5-0.8-0.9-1l-4.5-1.8c-0.8-0.3-1.2-1.2-0.9-2l0,0c0.3-0.8,1.2-1.2,2-0.9
				l5.9,2.3c0.4,0.2,0.8,0.5,0.9,1l2.1,6.6c0.3,0.8-0.2,1.7-1,2l0,0C321.5,165.4,320.6,164.9,320.3,164.1z"/>
			<path class="st2" d="M314,137.4L314,137.4c-0.3-0.8,0.1-1.7,0.9-2l2.9-1.1c0.4-0.2,0.8-0.5,0.9-1l1.6-5.2c0.3-0.8,1.1-1.3,2-1
				l0,0c0.8,0.3,1.3,1.1,1,2l-2.1,6.6c-0.1,0.4-0.5,0.8-0.9,1l-4.3,1.7C315.2,138.6,314.3,138.2,314,137.4z"/>
			<path class="st2" d="M323.7,150.6l-3.7-3.8c-0.3-0.3-0.7-0.5-1.1-0.5h-3.3c-0.9,0-1.6-0.7-1.6-1.6l0,0c0-0.9,0.7-1.6,1.6-1.6h4.7
				c0.4,0,0.8,0.2,1.1,0.5l4.6,4.7c0.6,0.6,0.6,1.6,0,2.2l0,0C325.3,151.2,324.3,151.2,323.7,150.6z"/>
		</g>
		<path class="st1" d="M298,122.3h-1.6c-0.9,0-1.6-0.7-1.6-1.6V120c0-0.7-0.4-1.3-1-1.6c-0.5-0.3-0.8-0.8-0.8-1.4v0
			c0-1.2,1.2-1.9,2.3-1.4c1.6,0.8,2.7,2.5,2.7,4.4V122.3L298,122.3z"/>
		<path class="st2" d="M306,122.3h-1.6c-0.9,0-1.6-0.7-1.6-1.6V120c0-1.9,1.1-3.6,2.7-4.4c1-0.5,2.3,0.2,2.3,1.4v0
			c0,0.6-0.3,1.1-0.8,1.4c-0.6,0.3-1,0.9-1,1.6V122.3L306,122.3z"/>
		<path class="st6" d="M300.4,162.6L300.4,162.6c-8,0-14.5-6.5-14.5-14.5v-14.5h28.9v14.5C314.9,156.1,308.4,162.6,300.4,162.6z"/>
		<path class="st4" d="M300.4,120L300.4,120c-5.6,0-10.2,4.6-10.2,10.2v5.7h20.4v-5.7C310.6,124.6,306.1,120,300.4,120z"/>
		<path class="st1" d="M300.4,120L300.4,120c0,3.8,0,15.9,0,15.9h10.2v-5.7C310.6,124.6,306.1,120,300.4,120z"/>
		<polygon class="st7" points="314.9,133.6 286,133.6 300.4,145.4 		"/>
	</g>
	<g>
		<g>
			<path class="st1" d="M278.5,346.1L278.5,346.1c-0.8-0.3-1.3-1.1-1-2l2.1-6.6c0.1-0.4,0.5-0.8,0.9-1l5.9-2.3
				c0.8-0.3,1.7,0.1,2,0.9l0,0c0.3,0.8-0.1,1.7-0.9,2l-4.5,1.8c-0.4,0.2-0.8,0.5-0.9,1l-1.6,5.2
				C280.2,345.9,279.4,346.4,278.5,346.1z"/>
			<path class="st1" d="M284.8,319.3l-4.3-1.7c-0.4-0.2-0.8-0.5-0.9-1l-2.1-6.6c-0.3-0.8,0.2-1.7,1-2h0c0.8-0.3,1.7,0.2,2,1l1.6,5.2
				c0.1,0.4,0.5,0.8,0.9,1l2.9,1.1c0.8,0.3,1.2,1.2,0.9,2l0,0C286.5,319.2,285.6,319.6,284.8,319.3z"/>
			<path class="st1" d="M274.9,331.6L274.9,331.6c-0.6-0.6-0.6-1.6,0-2.2l4.6-4.7c0.3-0.3,0.7-0.5,1.1-0.5h4.7
				c0.9,0,1.6,0.7,1.6,1.6l0,0c0,0.9-0.7,1.6-1.6,1.6h-3.3c-0.4,0-0.8,0.2-1.1,0.5l-3.7,3.8C276.5,332.2,275.5,332.2,274.9,331.6z"
				/>
		</g>
		<g>
			<path class="st2" d="M320.3,345.1l-1.6-5.2c-0.1-0.4-0.5-0.8-0.9-1l-4.5-1.8c-0.8-0.3-1.2-1.2-0.9-2l0,0c0.3-0.8,1.2-1.2,2-0.9
				l5.9,2.3c0.4,0.2,0.8,0.5,0.9,1l2.1,6.6c0.3,0.8-0.2,1.7-1,2l0,0C321.5,346.4,320.6,345.9,320.3,345.1z"/>
			<path class="st2" d="M314,318.4L314,318.4c-0.3-0.8,0.1-1.7,0.9-2l2.9-1.1c0.4-0.2,0.8-0.5,0.9-1l1.6-5.2c0.3-0.8,1.1-1.3,2-1
				l0,0c0.8,0.3,1.3,1.1,1,2l-2.1,6.6c-0.1,0.4-0.5,0.8-0.9,1l-4.3,1.7C315.2,319.6,314.3,319.2,314,318.4z"/>
			<path class="st2" d="M323.7,331.6l-3.7-3.8c-0.3-0.3-0.7-0.5-1.1-0.5h-3.3c-0.9,0-1.6-0.7-1.6-1.6l0,0c0-0.9,0.7-1.6,1.6-1.6h4.7
				c0.4,0,0.8,0.2,1.1,0.5l4.6,4.7c0.6,0.6,0.6,1.6,0,2.2l0,0C325.3,332.2,324.3,332.2,323.7,331.6z"/>
		</g>
		<path class="st1" d="M298,303.3h-1.6c-0.9,0-1.6-0.7-1.6-1.6V301c0-0.7-0.4-1.3-1-1.6c-0.5-0.3-0.8-0.8-0.8-1.4l0,0
			c0-1.2,1.2-1.9,2.3-1.4c1.6,0.8,2.7,2.5,2.7,4.4V303.3L298,303.3z"/>
		<path class="st2" d="M306,303.3h-1.6c-0.9,0-1.6-0.7-1.6-1.6V301c0-1.9,1.1-3.6,2.7-4.4c1-0.5,2.3,0.2,2.3,1.4l0,0
			c0,0.6-0.3,1.1-0.8,1.4c-0.6,0.3-1,0.9-1,1.6V303.3L306,303.3z"/>
		<path class="st6" d="M300.4,343.6L300.4,343.6c-8,0-14.5-6.5-14.5-14.5v-14.5h28.9v14.5C314.9,337.1,308.4,343.6,300.4,343.6z"/>
		<path class="st4" d="M300.4,301L300.4,301c-5.6,0-10.2,4.6-10.2,10.2v5.7h20.4v-5.7C310.6,305.6,306.1,301,300.4,301z"/>
		<path class="st1" d="M300.4,301L300.4,301c0,3.8,0,15.9,0,15.9h10.2v-5.7C310.6,305.6,306.1,301,300.4,301z"/>
		<polygon class="st7" points="314.9,314.6 286,314.6 300.4,326.4 		"/>
	</g>
	<g>
		<g>
			<path class="st1" d="M278.5,225.1L278.5,225.1c-0.8-0.3-1.3-1.1-1-2l2.1-6.6c0.1-0.4,0.5-0.8,0.9-1l5.9-2.3
				c0.8-0.3,1.7,0.1,2,0.9l0,0c0.3,0.8-0.1,1.7-0.9,2l-4.5,1.8c-0.4,0.2-0.8,0.5-0.9,1l-1.6,5.2
				C280.2,224.9,279.4,225.4,278.5,225.1z"/>
			<path class="st1" d="M284.8,198.3l-4.3-1.7c-0.4-0.2-0.8-0.5-0.9-1l-2.1-6.6c-0.3-0.8,0.2-1.7,1-2l0,0c0.8-0.3,1.7,0.2,2,1
				l1.6,5.2c0.1,0.4,0.5,0.8,0.9,1l2.9,1.1c0.8,0.3,1.2,1.2,0.9,2l0,0C286.5,198.2,285.6,198.6,284.8,198.3z"/>
			<path class="st1" d="M274.9,210.6L274.9,210.6c-0.6-0.6-0.6-1.6,0-2.2l4.6-4.7c0.3-0.3,0.7-0.5,1.1-0.5h4.7
				c0.9,0,1.6,0.7,1.6,1.6v0c0,0.9-0.7,1.6-1.6,1.6h-3.3c-0.4,0-0.8,0.2-1.1,0.5l-3.7,3.8C276.5,211.2,275.5,211.2,274.9,210.6z"/>
		</g>
		<g>
			<path class="st2" d="M320.3,224.1l-1.6-5.2c-0.1-0.4-0.5-0.8-0.9-1l-4.5-1.8c-0.8-0.3-1.2-1.2-0.9-2l0,0c0.3-0.8,1.2-1.2,2-0.9
				l5.9,2.3c0.4,0.2,0.8,0.5,0.9,1l2.1,6.6c0.3,0.8-0.2,1.7-1,2l0,0C321.5,225.4,320.6,224.9,320.3,224.1z"/>
			<path class="st2" d="M314,197.4L314,197.4c-0.3-0.8,0.1-1.7,0.9-2l2.9-1.1c0.4-0.2,0.8-0.5,0.9-1l1.6-5.2c0.3-0.8,1.1-1.3,2-1
				l0,0c0.8,0.3,1.3,1.1,1,2l-2.1,6.6c-0.1,0.4-0.5,0.8-0.9,1l-4.3,1.7C315.2,198.6,314.3,198.2,314,197.4z"/>
			<path class="st2" d="M323.7,210.6l-3.7-3.8c-0.3-0.3-0.7-0.5-1.1-0.5h-3.3c-0.9,0-1.6-0.7-1.6-1.6v0c0-0.9,0.7-1.6,1.6-1.6h4.7
				c0.4,0,0.8,0.2,1.1,0.5l4.6,4.7c0.6,0.6,0.6,1.6,0,2.2l0,0C325.3,211.2,324.3,211.2,323.7,210.6z"/>
		</g>
		<path class="st1" d="M298,182.2h-1.6c-0.9,0-1.6-0.7-1.6-1.6V180c0-0.7-0.4-1.3-1-1.6c-0.5-0.3-0.8-0.8-0.8-1.4l0,0
			c0-1.2,1.2-1.9,2.3-1.4c1.6,0.8,2.7,2.5,2.7,4.4V182.2L298,182.2z"/>
		<path class="st2" d="M306,182.2h-1.6c-0.9,0-1.6-0.7-1.6-1.6V180c0-1.9,1.1-3.6,2.7-4.4c1-0.5,2.3,0.2,2.3,1.4l0,0
			c0,0.6-0.3,1.1-0.8,1.4c-0.6,0.3-1,0.9-1,1.6V182.2L306,182.2z"/>
		<path class="st8" d="M300.4,222.5L300.4,222.5c-8,0-14.5-6.5-14.5-14.5v-14.5h28.9v14.5C314.9,216.1,308.4,222.5,300.4,222.5z"/>
		<path class="st4" d="M300.4,180L300.4,180c-5.6,0-10.2,4.6-10.2,10.2v5.7h20.4v-5.7C310.6,184.5,306.1,180,300.4,180z"/>
		<path class="st1" d="M300.4,180L300.4,180c0,3.8,0,15.9,0,15.9h10.2v-5.7C310.6,184.5,306.1,180,300.4,180z"/>
		<polygon class="st9" points="314.9,193.6 286,193.6 300.4,205.3 		"/>
	</g>
	<g>
		<g>
			<path class="st1" d="M278.5,285.6L278.5,285.6c-0.8-0.3-1.3-1.1-1-2l2.1-6.6c0.1-0.4,0.5-0.8,0.9-1l5.9-2.3
				c0.8-0.3,1.7,0.1,2,0.9l0,0c0.3,0.8-0.1,1.7-0.9,2l-4.5,1.8c-0.4,0.2-0.8,0.5-0.9,1l-1.6,5.2
				C280.2,285.4,279.4,285.9,278.5,285.6z"/>
			<path class="st1" d="M284.8,258.8l-4.3-1.7c-0.4-0.2-0.8-0.5-0.9-1l-2.1-6.6c-0.3-0.8,0.2-1.7,1-2l0,0c0.8-0.3,1.7,0.2,2,1
				l1.6,5.2c0.1,0.4,0.5,0.8,0.9,1l2.9,1.1c0.8,0.3,1.2,1.2,0.9,2l0,0C286.5,258.7,285.6,259.1,284.8,258.8z"/>
			<path class="st1" d="M274.9,271.1L274.9,271.1c-0.6-0.6-0.6-1.6,0-2.2l4.6-4.7c0.3-0.3,0.7-0.5,1.1-0.5h4.7
				c0.9,0,1.6,0.7,1.6,1.6l0,0c0,0.9-0.7,1.6-1.6,1.6h-3.3c-0.4,0-0.8,0.2-1.1,0.5l-3.7,3.8C276.5,271.7,275.5,271.7,274.9,271.1z"
				/>
		</g>
		<g>
			<path class="st2" d="M320.3,284.6l-1.6-5.2c-0.1-0.4-0.5-0.8-0.9-1l-4.5-1.8c-0.8-0.3-1.2-1.2-0.9-2l0,0c0.3-0.8,1.2-1.2,2-0.9
				l5.9,2.3c0.4,0.2,0.8,0.5,0.9,1l2.1,6.6c0.3,0.8-0.2,1.7-1,2l0,0C321.5,285.9,320.6,285.4,320.3,284.6z"/>
			<path class="st2" d="M314,257.9L314,257.9c-0.3-0.8,0.1-1.7,0.9-2l2.9-1.1c0.4-0.2,0.8-0.5,0.9-1l1.6-5.2c0.3-0.8,1.1-1.3,2-1
				l0,0c0.8,0.3,1.3,1.1,1,2l-2.1,6.6c-0.1,0.4-0.5,0.8-0.9,1l-4.3,1.7C315.2,259.1,314.3,258.7,314,257.9z"/>
			<path class="st2" d="M323.7,271.1l-3.7-3.8c-0.3-0.3-0.7-0.5-1.1-0.5h-3.3c-0.9,0-1.6-0.7-1.6-1.6l0,0c0-0.9,0.7-1.6,1.6-1.6h4.7
				c0.4,0,0.8,0.2,1.1,0.5l4.6,4.7c0.6,0.6,0.6,1.6,0,2.2l0,0C325.3,271.7,324.3,271.7,323.7,271.1z"/>
		</g>
		<path class="st1" d="M298,242.8h-1.6c-0.9,0-1.6-0.7-1.6-1.6v-0.7c0-0.7-0.4-1.3-1-1.6c-0.5-0.3-0.8-0.8-0.8-1.4l0,0
			c0-1.2,1.2-1.9,2.3-1.4c1.6,0.8,2.7,2.5,2.7,4.4V242.8L298,242.8z"/>
		<path class="st2" d="M306,242.8h-1.6c-0.9,0-1.6-0.7-1.6-1.6v-0.7c0-1.9,1.1-3.6,2.7-4.4c1-0.5,2.3,0.2,2.3,1.4v0
			c0,0.6-0.3,1.1-0.8,1.4c-0.6,0.3-1,0.9-1,1.6V242.8L306,242.8z"/>
		<path class="st3" d="M300.4,283.1L300.4,283.1c-8,0-14.5-6.5-14.5-14.5v-14.5h28.9v14.5C314.9,276.6,308.4,283.1,300.4,283.1z"/>
		<path class="st4" d="M300.4,240.5L300.4,240.5c-5.6,0-10.2,4.6-10.2,10.2v5.7h20.4v-5.7C310.6,245.1,306.1,240.5,300.4,240.5z"/>
		<path class="st1" d="M300.4,240.5L300.4,240.5c0,3.8,0,15.9,0,15.9h10.2v-5.7C310.6,245.1,306.1,240.5,300.4,240.5z"/>
		<polygon class="st5" points="314.9,254.1 286,254.1 300.4,265.9 		"/>
	</g>
	<g>
		<g>
			<path class="st1" d="M215.5,285.6L215.5,285.6c-0.8-0.3-1.3-1.1-1-2l2.1-6.6c0.1-0.4,0.5-0.8,0.9-1l5.9-2.3
				c0.8-0.3,1.7,0.1,2,0.9l0,0c0.3,0.8-0.1,1.7-0.9,2l-4.5,1.8c-0.4,0.2-0.8,0.5-0.9,1l-1.6,5.2
				C217.2,285.4,216.3,285.9,215.5,285.6z"/>
			<path class="st1" d="M221.8,258.8l-4.3-1.7c-0.4-0.2-0.8-0.5-0.9-1l-2.1-6.6c-0.3-0.8,0.2-1.7,1-2l0,0c0.8-0.3,1.7,0.2,2,1
				l1.6,5.2c0.1,0.4,0.5,0.8,0.9,1l2.9,1.1c0.8,0.3,1.2,1.2,0.9,2l0,0C223.5,258.7,222.6,259.1,221.8,258.8z"/>
			<path class="st1" d="M211.9,271.1L211.9,271.1c-0.6-0.6-0.6-1.6,0-2.2l4.6-4.7c0.3-0.3,0.7-0.5,1.1-0.5h4.7
				c0.9,0,1.6,0.7,1.6,1.6l0,0c0,0.9-0.7,1.6-1.6,1.6h-3.3c-0.4,0-0.8,0.2-1.1,0.5l-3.7,3.8C213.5,271.7,212.5,271.7,211.9,271.1z"
				/>
		</g>
		<g>
			<path class="st2" d="M257.3,284.6l-1.6-5.2c-0.1-0.4-0.5-0.8-0.9-1l-4.5-1.8c-0.8-0.3-1.2-1.2-0.9-2l0,0c0.3-0.8,1.2-1.2,2-0.9
				l5.9,2.3c0.4,0.2,0.8,0.5,0.9,1l2.1,6.6c0.3,0.8-0.2,1.7-1,2l0,0C258.5,285.9,257.6,285.4,257.3,284.6z"/>
			<path class="st2" d="M251,257.9L251,257.9c-0.3-0.8,0.1-1.7,0.9-2l2.9-1.1c0.4-0.2,0.8-0.5,0.9-1l1.6-5.2c0.3-0.8,1.1-1.3,2-1
				l0,0c0.8,0.3,1.3,1.1,1,2l-2.1,6.6c-0.1,0.4-0.5,0.8-0.9,1l-4.3,1.7C252.2,259.1,251.3,258.7,251,257.9z"/>
			<path class="st2" d="M260.7,271.1l-3.7-3.8c-0.3-0.3-0.7-0.5-1.1-0.5h-3.3c-0.9,0-1.6-0.7-1.6-1.6l0,0c0-0.9,0.7-1.6,1.6-1.6h4.7
				c0.4,0,0.8,0.2,1.1,0.5l4.6,4.7c0.6,0.6,0.6,1.6,0,2.2l0,0C262.3,271.7,261.3,271.7,260.7,271.1z"/>
		</g>
		<path class="st1" d="M235,242.8h-1.6c-0.9,0-1.6-0.7-1.6-1.6v-0.7c0-0.7-0.4-1.3-1-1.6c-0.5-0.3-0.8-0.8-0.8-1.4l0,0
			c0-1.2,1.2-1.9,2.3-1.4c1.6,0.8,2.7,2.5,2.7,4.4V242.8L235,242.8z"/>
		<path class="st2" d="M243,242.8h-1.6c-0.9,0-1.6-0.7-1.6-1.6v-0.7c0-1.9,1.1-3.6,2.7-4.4c1-0.5,2.3,0.2,2.3,1.4v0
			c0,0.6-0.3,1.1-0.8,1.4c-0.6,0.3-1,0.9-1,1.6L243,242.8L243,242.8z"/>
		<path class="st6" d="M237.4,283.1L237.4,283.1c-8,0-14.5-6.5-14.5-14.5v-14.5h28.9v14.5C251.9,276.6,245.4,283.1,237.4,283.1z"/>
		<path class="st4" d="M237.4,240.5L237.4,240.5c-5.6,0-10.2,4.6-10.2,10.2v5.7h20.4v-5.7C247.6,245.1,243,240.5,237.4,240.5z"/>
		<path class="st1" d="M237.4,240.5L237.4,240.5c0,3.8,0,15.9,0,15.9h10.2v-5.7C247.6,245.1,243,240.5,237.4,240.5z"/>
		<polygon class="st7" points="251.9,254.1 222.9,254.1 237.4,265.9 		"/>
	</g>
	<g>
		<g>
			<path class="st1" d="M215.5,165.1L215.5,165.1c-0.8-0.3-1.3-1.1-1-2l2.1-6.6c0.1-0.4,0.5-0.8,0.9-1l5.9-2.3
				c0.8-0.3,1.7,0.1,2,0.9l0,0c0.3,0.8-0.1,1.7-0.9,2L220,158c-0.4,0.2-0.8,0.5-0.9,1l-1.6,5.2C217.2,164.9,216.3,165.4,215.5,165.1
				z"/>
			<path class="st1" d="M221.8,138.3l-4.3-1.7c-0.4-0.2-0.8-0.5-0.9-1l-2.1-6.6c-0.3-0.8,0.2-1.7,1-2l0,0c0.8-0.3,1.7,0.2,2,1
				l1.6,5.2c0.1,0.4,0.5,0.8,0.9,1l2.9,1.1c0.8,0.3,1.2,1.2,0.9,2l0,0C223.5,138.2,222.6,138.6,221.8,138.3z"/>
			<path class="st1" d="M211.9,150.6L211.9,150.6c-0.6-0.6-0.6-1.6,0-2.2l4.6-4.7c0.3-0.3,0.7-0.5,1.1-0.5h4.7
				c0.9,0,1.6,0.7,1.6,1.6l0,0c0,0.9-0.7,1.6-1.6,1.6h-3.3c-0.4,0-0.8,0.2-1.1,0.5l-3.7,3.8C213.5,151.2,212.5,151.2,211.9,150.6z"
				/>
		</g>
		<g>
			<path class="st2" d="M257.3,164.1l-1.6-5.2c-0.1-0.4-0.5-0.8-0.9-1l-4.5-1.8c-0.8-0.3-1.2-1.2-0.9-2l0,0c0.3-0.8,1.2-1.2,2-0.9
				l5.9,2.3c0.4,0.2,0.8,0.5,0.9,1l2.1,6.6c0.3,0.8-0.2,1.7-1,2l0,0C258.5,165.4,257.6,164.9,257.3,164.1z"/>
			<path class="st2" d="M251,137.4L251,137.4c-0.3-0.8,0.1-1.7,0.9-2l2.9-1.1c0.4-0.2,0.8-0.5,0.9-1l1.6-5.2c0.3-0.8,1.1-1.3,2-1
				l0,0c0.8,0.3,1.3,1.1,1,2l-2.1,6.6c-0.1,0.4-0.5,0.8-0.9,1l-4.3,1.7C252.2,138.6,251.3,138.2,251,137.4z"/>
			<path class="st2" d="M260.7,150.6l-3.7-3.8c-0.3-0.3-0.7-0.5-1.1-0.5h-3.3c-0.9,0-1.6-0.7-1.6-1.6l0,0c0-0.9,0.7-1.6,1.6-1.6h4.7
				c0.4,0,0.8,0.2,1.1,0.5l4.6,4.7c0.6,0.6,0.6,1.6,0,2.2l0,0C262.3,151.2,261.3,151.2,260.7,150.6z"/>
		</g>
		<path class="st1" d="M235,122.3h-1.6c-0.9,0-1.6-0.7-1.6-1.6V120c0-0.7-0.4-1.3-1-1.6c-0.5-0.3-0.8-0.8-0.8-1.4v0
			c0-1.2,1.2-1.9,2.3-1.4c1.6,0.8,2.7,2.5,2.7,4.4V122.3L235,122.3z"/>
		<path class="st2" d="M243,122.3h-1.6c-0.9,0-1.6-0.7-1.6-1.6V120c0-1.9,1.1-3.6,2.7-4.4c1-0.5,2.3,0.2,2.3,1.4v0
			c0,0.6-0.3,1.1-0.8,1.4c-0.6,0.3-1,0.9-1,1.6L243,122.3L243,122.3z"/>
		<path class="st8" d="M237.4,162.6L237.4,162.6c-8,0-14.5-6.5-14.5-14.5v-14.5h28.9v14.5C251.9,156.1,245.4,162.6,237.4,162.6z"/>
		<path class="st4" d="M237.4,120L237.4,120c-5.6,0-10.2,4.6-10.2,10.2v5.7h20.4v-5.7C247.6,124.6,243,120,237.4,120z"/>
		<path class="st1" d="M237.4,120L237.4,120c0,3.8,0,15.9,0,15.9h10.2v-5.7C247.6,124.6,243,120,237.4,120z"/>
		<polygon class="st9" points="251.9,133.6 222.9,133.6 237.4,145.4 		"/>
	</g>
	<g>
		<g>
			<path class="st1" d="M337.2,225.1L337.2,225.1c-0.8-0.3-1.3-1.1-1-2l2.1-6.6c0.1-0.4,0.5-0.8,0.9-1l5.9-2.3
				c0.8-0.3,1.7,0.1,2,0.9l0,0c0.3,0.8-0.1,1.7-0.9,2l-4.5,1.8c-0.4,0.2-0.8,0.5-0.9,1l-1.6,5.2C338.9,224.9,338,225.4,337.2,225.1z
				"/>
			<path class="st1" d="M343.4,198.3l-4.3-1.7c-0.4-0.2-0.8-0.5-0.9-1l-2.1-6.6c-0.3-0.8,0.2-1.7,1-2v0c0.8-0.3,1.7,0.2,2,1l1.6,5.2
				c0.1,0.4,0.5,0.8,0.9,1l2.9,1.1c0.8,0.3,1.2,1.2,0.9,2l0,0C345.1,198.2,344.2,198.6,343.4,198.3z"/>
			<path class="st1" d="M333.5,210.6L333.5,210.6c-0.6-0.6-0.6-1.6,0-2.2l4.6-4.7c0.3-0.3,0.7-0.5,1.1-0.5h4.7
				c0.9,0,1.6,0.7,1.6,1.6v0c0,0.9-0.7,1.6-1.6,1.6h-3.3c-0.4,0-0.8,0.2-1.1,0.5l-3.7,3.8C335.2,211.2,334.2,211.2,333.5,210.6z"/>
		</g>
		<g>
			<path class="st2" d="M379,224.1l-1.6-5.2c-0.1-0.4-0.5-0.8-0.9-1l-4.5-1.8c-0.8-0.3-1.2-1.2-0.9-2v0c0.3-0.8,1.2-1.2,2-0.9
				l5.9,2.3c0.4,0.2,0.8,0.5,0.9,1l2.1,6.6c0.3,0.8-0.2,1.7-1,2l0,0C380.1,225.4,379.2,224.9,379,224.1z"/>
			<path class="st2" d="M372.6,197.4L372.6,197.4c-0.3-0.8,0.1-1.7,0.9-2l2.9-1.1c0.4-0.2,0.8-0.5,0.9-1l1.6-5.2
				c0.3-0.8,1.1-1.3,2-1l0,0c0.8,0.3,1.3,1.1,1,2l-2.1,6.6c-0.1,0.4-0.5,0.8-0.9,1l-4.3,1.7C373.9,198.6,372.9,198.2,372.6,197.4z"
				/>
			<path class="st2" d="M382.3,210.6l-3.7-3.8c-0.3-0.3-0.7-0.5-1.1-0.5h-3.3c-0.9,0-1.6-0.7-1.6-1.6v0c0-0.9,0.7-1.6,1.6-1.6h4.7
				c0.4,0,0.8,0.2,1.1,0.5l4.6,4.7c0.6,0.6,0.6,1.6,0,2.2l0,0C383.9,211.2,382.9,211.2,382.3,210.6z"/>
		</g>
		<path class="st1" d="M356.6,182.2H355c-0.9,0-1.6-0.7-1.6-1.6V180c0-0.7-0.4-1.3-1-1.6c-0.5-0.3-0.8-0.8-0.8-1.4l0,0
			c0-1.2,1.2-1.9,2.3-1.4c1.6,0.8,2.7,2.5,2.7,4.4V182.2L356.6,182.2z"/>
		<path class="st2" d="M364.6,182.2h-1.6c-0.9,0-1.6-0.7-1.6-1.6V180c0-1.9,1.1-3.6,2.7-4.4c1-0.5,2.3,0.2,2.3,1.4l0,0
			c0,0.6-0.3,1.1-0.8,1.4c-0.6,0.3-1,0.9-1,1.6V182.2L364.6,182.2z"/>
		<path class="st3" d="M359,222.5L359,222.5c-8,0-14.5-6.5-14.5-14.5v-14.5h28.9v14.5C373.5,216.1,367,222.5,359,222.5z"/>
		<path class="st4" d="M359,180L359,180c-5.6,0-10.2,4.6-10.2,10.2v5.7h20.4v-5.7C369.3,184.5,364.7,180,359,180z"/>
		<path class="st1" d="M359,180L359,180c0,3.8,0,15.9,0,15.9h10.2v-5.7C369.3,184.5,364.7,180,359,180z"/>
		<polygon class="st5" points="373.5,193.6 344.6,193.6 359,205.3 		"/>
	</g>
	<g>
		<g>
			<path class="st1" d="M337.2,285.6L337.2,285.6c-0.8-0.3-1.3-1.1-1-2l2.1-6.6c0.1-0.4,0.5-0.8,0.9-1l5.9-2.3
				c0.8-0.3,1.7,0.1,2,0.9l0,0c0.3,0.8-0.1,1.7-0.9,2l-4.5,1.8c-0.4,0.2-0.8,0.5-0.9,1l-1.6,5.2C338.9,285.4,338,285.9,337.2,285.6z
				"/>
			<path class="st1" d="M343.4,258.8l-4.3-1.7c-0.4-0.2-0.8-0.5-0.9-1l-2.1-6.6c-0.3-0.8,0.2-1.7,1-2v0c0.8-0.3,1.7,0.2,2,1l1.6,5.2
				c0.1,0.4,0.5,0.8,0.9,1l2.9,1.1c0.8,0.3,1.2,1.2,0.9,2l0,0C345.1,258.7,344.2,259.1,343.4,258.8z"/>
			<path class="st1" d="M333.5,271.1L333.5,271.1c-0.6-0.6-0.6-1.6,0-2.2l4.6-4.7c0.3-0.3,0.7-0.5,1.1-0.5h4.7
				c0.9,0,1.6,0.7,1.6,1.6l0,0c0,0.9-0.7,1.6-1.6,1.6h-3.3c-0.4,0-0.8,0.2-1.1,0.5l-3.7,3.8C335.2,271.7,334.2,271.7,333.5,271.1z"
				/>
		</g>
		<g>
			<path class="st2" d="M379,284.6l-1.6-5.2c-0.1-0.4-0.5-0.8-0.9-1l-4.5-1.8c-0.8-0.3-1.2-1.2-0.9-2v0c0.3-0.8,1.2-1.2,2-0.9
				l5.9,2.3c0.4,0.2,0.8,0.5,0.9,1l2.1,6.6c0.3,0.8-0.2,1.7-1,2l0,0C380.1,285.9,379.2,285.4,379,284.6z"/>
			<path class="st2" d="M372.6,257.9L372.6,257.9c-0.3-0.8,0.1-1.7,0.9-2l2.9-1.1c0.4-0.2,0.8-0.5,0.9-1l1.6-5.2
				c0.3-0.8,1.1-1.3,2-1l0,0c0.8,0.3,1.3,1.1,1,2l-2.1,6.6c-0.1,0.4-0.5,0.8-0.9,1l-4.3,1.7C373.9,259.1,372.9,258.7,372.6,257.9z"
				/>
			<path class="st2" d="M382.3,271.1l-3.7-3.8c-0.3-0.3-0.7-0.5-1.1-0.5h-3.3c-0.9,0-1.6-0.7-1.6-1.6l0,0c0-0.9,0.7-1.6,1.6-1.6h4.7
				c0.4,0,0.8,0.2,1.1,0.5l4.6,4.7c0.6,0.6,0.6,1.6,0,2.2l0,0C383.9,271.7,382.9,271.7,382.3,271.1z"/>
		</g>
		<path class="st1" d="M356.6,242.8H355c-0.9,0-1.6-0.7-1.6-1.6v-0.7c0-0.7-0.4-1.3-1-1.6c-0.5-0.3-0.8-0.8-0.8-1.4l0,0
			c0-1.2,1.2-1.9,2.3-1.4c1.6,0.8,2.7,2.5,2.7,4.4V242.8L356.6,242.8z"/>
		<path class="st2" d="M364.6,242.8h-1.6c-0.9,0-1.6-0.7-1.6-1.6v-0.7c0-1.9,1.1-3.6,2.7-4.4c1-0.5,2.3,0.2,2.3,1.4v0
			c0,0.6-0.3,1.1-0.8,1.4c-0.6,0.3-1,0.9-1,1.6V242.8L364.6,242.8z"/>
		<path class="st6" d="M359,283.1L359,283.1c-8,0-14.5-6.5-14.5-14.5v-14.5h28.9v14.5C373.5,276.6,367,283.1,359,283.1z"/>
		<path class="st4" d="M359,240.5L359,240.5c-5.6,0-10.2,4.6-10.2,10.2v5.7h20.4v-5.7C369.3,245.1,364.7,240.5,359,240.5z"/>
		<path class="st1" d="M359,240.5L359,240.5c0,3.8,0,15.9,0,15.9h10.2v-5.7C369.3,245.1,364.7,240.5,359,240.5z"/>
		<polygon class="st7" points="373.5,254.1 344.6,254.1 359,265.9 		"/>
	</g>
	<g>
		<g>
			<path class="st1" d="M337.2,165.1L337.2,165.1c-0.8-0.3-1.3-1.1-1-2l2.1-6.6c0.1-0.4,0.5-0.8,0.9-1l5.9-2.3
				c0.8-0.3,1.7,0.1,2,0.9l0,0c0.3,0.8-0.1,1.7-0.9,2l-4.5,1.8c-0.4,0.2-0.8,0.5-0.9,1l-1.6,5.2C338.9,164.9,338,165.4,337.2,165.1z
				"/>
			<path class="st1" d="M343.4,138.3l-4.3-1.7c-0.4-0.2-0.8-0.5-0.9-1l-2.1-6.6c-0.3-0.8,0.2-1.7,1-2v0c0.8-0.3,1.7,0.2,2,1l1.6,5.2
				c0.1,0.4,0.5,0.8,0.9,1l2.9,1.1c0.8,0.3,1.2,1.2,0.9,2l0,0C345.1,138.2,344.2,138.6,343.4,138.3z"/>
			<path class="st1" d="M333.5,150.6L333.5,150.6c-0.6-0.6-0.6-1.6,0-2.2l4.6-4.7c0.3-0.3,0.7-0.5,1.1-0.5h4.7
				c0.9,0,1.6,0.7,1.6,1.6l0,0c0,0.9-0.7,1.6-1.6,1.6h-3.3c-0.4,0-0.8,0.2-1.1,0.5l-3.7,3.8C335.2,151.2,334.2,151.2,333.5,150.6z"
				/>
		</g>
		<g>
			<path class="st2" d="M379,164.1l-1.6-5.2c-0.1-0.4-0.5-0.8-0.9-1l-4.5-1.8c-0.8-0.3-1.2-1.2-0.9-2v0c0.3-0.8,1.2-1.2,2-0.9
				l5.9,2.3c0.4,0.2,0.8,0.5,0.9,1l2.1,6.6c0.3,0.8-0.2,1.7-1,2l0,0C380.1,165.4,379.2,164.9,379,164.1z"/>
			<path class="st2" d="M372.6,137.4L372.6,137.4c-0.3-0.8,0.1-1.7,0.9-2l2.9-1.1c0.4-0.2,0.8-0.5,0.9-1l1.6-5.2
				c0.3-0.8,1.1-1.3,2-1l0,0c0.8,0.3,1.3,1.1,1,2l-2.1,6.6c-0.1,0.4-0.5,0.8-0.9,1l-4.3,1.7C373.9,138.6,372.9,138.2,372.6,137.4z"
				/>
			<path class="st2" d="M382.3,150.6l-3.7-3.8c-0.3-0.3-0.7-0.5-1.1-0.5h-3.3c-0.9,0-1.6-0.7-1.6-1.6l0,0c0-0.9,0.7-1.6,1.6-1.6h4.7
				c0.4,0,0.8,0.2,1.1,0.5l4.6,4.7c0.6,0.6,0.6,1.6,0,2.2l0,0C383.9,151.2,382.9,151.2,382.3,150.6z"/>
		</g>
		<path class="st1" d="M356.6,122.3H355c-0.9,0-1.6-0.7-1.6-1.6V120c0-0.7-0.4-1.3-1-1.6c-0.5-0.3-0.8-0.8-0.8-1.4v0
			c0-1.2,1.2-1.9,2.3-1.4c1.6,0.8,2.7,2.5,2.7,4.4V122.3L356.6,122.3z"/>
		<path class="st2" d="M364.6,122.3h-1.6c-0.9,0-1.6-0.7-1.6-1.6V120c0-1.9,1.1-3.6,2.7-4.4c1-0.5,2.3,0.2,2.3,1.4v0
			c0,0.6-0.3,1.1-0.8,1.4c-0.6,0.3-1,0.9-1,1.6V122.3L364.6,122.3z"/>
		<path class="st8" d="M359,162.6L359,162.6c-8,0-14.5-6.5-14.5-14.5v-14.5h28.9v14.5C373.5,156.1,367,162.6,359,162.6z"/>
		<path class="st4" d="M359,120L359,120c-5.6,0-10.2,4.6-10.2,10.2v5.7h20.4v-5.7C369.3,124.6,364.7,120,359,120z"/>
		<path class="st1" d="M359,120L359,120c0,3.8,0,15.9,0,15.9h10.2v-5.7C369.3,124.6,364.7,120,359,120z"/>
		<polygon class="st9" points="373.5,133.6 344.6,133.6 359,145.4 		"/>
	</g>
</g>
<g>
	<path class="st10" d="M191.2,197.8c0.6,0.6,0.9,1.3,0.9,2.2s-0.3,1.6-0.9,2.2s-1.3,0.9-2.2,0.9h-10.9v10.8c0,0.9-0.3,1.6-0.9,2.2
		c-0.6,0.6-1.3,0.9-2.2,0.9s-1.6-0.3-2.2-0.9c-0.6-0.6-0.9-1.3-0.9-2.2v-10.8H161c-0.9,0-1.6-0.3-2.2-0.9s-0.9-1.3-0.9-2.2
		s0.3-1.6,0.9-2.2s1.3-0.9,2.2-0.9h10.9v-10.9c0-0.9,0.3-1.6,0.9-2.2s1.3-0.9,2.2-0.9s1.6,0.3,2.2,0.9s0.9,1.3,0.9,2.2v10.9H189
		C189.9,196.9,190.6,197.2,191.2,197.8z"/>
</g>
</svg>
