<?xml version="1.0" encoding="utf-8"?>
<!-- Generator: Adobe Illustrator 22.1.0, SVG Export Plug-In . SVG Version: 6.00 Build 0)  -->
<svg version="1.1" id="Layer_1" xmlns="http://www.w3.org/2000/svg" xmlns:xlink="http://www.w3.org/1999/xlink" x="0px" y="0px"
	 viewBox="0 0 300 300" style="enable-background:new 0 0 300 300;" xml:space="preserve">
<style type="text/css">
	.st0{fill:#F24044;}
	.st1{fill:#00CDC8;}
	.st2{fill:#FFFFFF;}
	.st3{fill:none;stroke:#FFFFFF;stroke-width:3;stroke-linecap:round;stroke-linejoin:round;stroke-miterlimit:10;}
	.st4{fill:#60025E;}
	.st5{enable-background:new    ;}
</style>
<path class="st0" d="M151,68c-45.3,0-82,36.7-82,82s36.7,82,82,82s82-36.7,82-82S196.3,68,151,68z M151,177.7
	c-15.3,0-27.7-12.4-27.7-27.7s12.4-27.7,27.7-27.7s27.7,12.4,27.7,27.7S166.3,177.7,151,177.7z"/>
<g>
	<path class="st1" d="M151,285.9c-75,0-135.9-61-135.9-135.9S76,14.1,151,14.1S286.9,75,286.9,150S226,285.9,151,285.9z M151,67.9
		c-45.3,0-82.1,36.8-82.1,82.1s36.8,82.1,82.1,82.1s82.1-36.8,82.1-82.1S196.3,67.9,151,67.9z"/>
	<path class="st2" d="M151,19.1c72.3,0,130.9,58.6,130.9,130.9S223.3,280.9,151,280.9S20.1,222.3,20.1,150S78.7,19.1,151,19.1
		 M151,237.1c48.1,0,87.1-39,87.1-87.1s-39-87.1-87.1-87.1s-87.1,39-87.1,87.1S102.9,237.1,151,237.1 M151,9.1
		c-37.6,0-73,14.7-99.7,41.3C24.7,77,10.1,112.4,10.1,150s14.7,73,41.3,99.7c26.6,26.6,62,41.3,99.7,41.3s73-14.7,99.7-41.3
		c26.6-26.6,41.3-62,41.3-99.7c0-37.6-14.7-73-41.3-99.7C224,23.7,188.6,9.1,151,9.1L151,9.1z M151,227.1
		c-42.5,0-77.1-34.6-77.1-77.1s34.6-77.1,77.1-77.1s77.1,34.6,77.1,77.1S193.5,227.1,151,227.1L151,227.1z"/>
</g>
<line class="st3" x1="20.1" y1="150" x2="281.9" y2="150"/>
<line class="st3" x1="151" y1="19.1" x2="151" y2="280.9"/>
<line class="st3" x1="243.6" y1="57.4" x2="58.4" y2="242.6"/>
<line class="st3" x1="243.6" y1="242.6" x2="58.4" y2="57.4"/>
<circle class="st4" cx="151" cy="150" r="23.6"/>
<g>
	<g class="st5">
		<path class="st2" d="M149,150.9c0.6,0.8,0.9,1.9,0.9,3.1c0,1.7-0.6,3-1.9,4.1c-1.2,1-2.9,1.5-5.1,1.5c-1.2,0-2.4-0.2-3.5-0.6
			c-1.1-0.4-2.1-0.9-2.9-1.6c-0.4-0.4-0.6-0.8-0.6-1.3c0-0.4,0.1-0.8,0.3-1c0.2-0.3,0.5-0.4,0.8-0.4c0.2,0,0.4,0,0.5,0.1
			c0.1,0.1,0.4,0.2,0.6,0.3c0.8,0.5,1.5,0.9,2.2,1.2c0.7,0.3,1.5,0.4,2.3,0.4c1.2,0,2.1-0.2,2.7-0.7c0.6-0.5,0.9-1.2,0.9-2.2
			c0-1-0.3-1.7-0.9-2.2c-0.6-0.5-1.6-0.7-2.9-0.7h-1.6c-0.4,0-0.8-0.1-1-0.4s-0.3-0.6-0.3-1c0-0.4,0.1-0.7,0.3-1s0.6-0.4,1-0.4h1.1
			c2.6,0,3.8-1,3.8-2.9c0-0.9-0.3-1.6-0.8-2.1c-0.5-0.5-1.3-0.7-2.2-0.7c-1.4,0-2.8,0.5-4.4,1.6c-0.3,0.1-0.5,0.3-0.6,0.3
			c-0.1,0.1-0.3,0.1-0.5,0.1c-0.3,0-0.6-0.1-0.8-0.4c-0.2-0.3-0.3-0.6-0.3-1c0-0.3,0.1-0.5,0.2-0.7c0.1-0.2,0.3-0.4,0.5-0.6
			c0.8-0.7,1.7-1.2,2.8-1.6c1.1-0.4,2.2-0.6,3.3-0.6c1.9,0,3.5,0.5,4.6,1.4s1.7,2.2,1.7,3.8c0,1.1-0.3,2-0.9,2.8
			c-0.6,0.8-1.3,1.4-2.3,1.8C147.5,149.6,148.4,150.1,149,150.9z"/>
		<path class="st2" d="M163.4,147.5c0.9,0.5,1.6,1.3,2.1,2.2c0.5,1,0.8,2.1,0.8,3.3c0,1.3-0.3,2.4-0.9,3.4c-0.6,1-1.4,1.8-2.3,2.3
			c-1,0.6-2.1,0.8-3.4,0.8c-2.5,0-4.4-0.8-5.8-2.5c-1.4-1.7-2-4.1-2-7.2c0-2.1,0.3-4,1-5.6c0.6-1.6,1.5-2.8,2.7-3.6s2.6-1.3,4.2-1.3
			c1.1,0,2.1,0.2,3.2,0.6c1.1,0.4,2,0.9,2.7,1.6c0.2,0.2,0.4,0.4,0.5,0.6c0.1,0.2,0.2,0.4,0.2,0.7c0,0.4-0.1,0.8-0.3,1
			c-0.2,0.3-0.5,0.4-0.8,0.4c-0.2,0-0.4,0-0.5-0.1c-0.2-0.1-0.4-0.2-0.6-0.3c-1.5-1.1-2.9-1.6-4.1-1.6c-1.4,0-2.4,0.6-3.2,1.9
			c-0.8,1.3-1.2,3-1.2,5.3c0.4-0.8,1.1-1.5,1.9-2c0.9-0.5,1.8-0.7,2.9-0.7C161.5,146.7,162.5,147,163.4,147.5z M162,155.8
			c0.6-0.7,0.9-1.5,0.9-2.6c0-1.1-0.3-1.9-0.9-2.6c-0.6-0.7-1.4-1-2.5-1c-1,0-1.9,0.3-2.5,1s-1,1.5-1,2.6c0,1.1,0.3,2,1,2.6
			c0.6,0.7,1.5,1,2.5,1C160.6,156.8,161.4,156.4,162,155.8z"/>
	</g>
</g>
<g>
	<g class="st5">
		<path class="st2" d="M160.1,101.1c-0.2-0.2-0.3-0.4-0.3-0.7s0.1-0.5,0.3-0.7c0.2-0.2,0.5-0.3,0.9-0.3h4.1c0.4,0,0.7,0.1,0.9,0.3
			c0.2,0.2,0.3,0.4,0.3,0.7s-0.1,0.5-0.3,0.7s-0.5,0.3-0.9,0.3H161C160.6,101.4,160.3,101.3,160.1,101.1z"/>
		<path class="st2" d="M178.5,101.3c0.2,0.2,0.3,0.4,0.3,0.7c0,0.7-0.4,1-1.2,1h-1v1.6c0,0.4-0.1,0.7-0.3,0.9
			c-0.2,0.2-0.5,0.3-0.9,0.3c-0.4,0-0.7-0.1-0.9-0.3c-0.2-0.2-0.3-0.5-0.3-0.9V103H169c-0.4,0-0.6-0.1-0.8-0.3s-0.3-0.5-0.3-0.8
			c0-0.3,0.1-0.6,0.3-0.9l6.1-8.8c0.1-0.2,0.3-0.3,0.5-0.4s0.4-0.1,0.6-0.1c0.3,0,0.6,0.1,0.9,0.3s0.4,0.5,0.4,0.9v8h1
			C178,101,178.3,101.1,178.5,101.3z M170.5,101h3.7v-5.3L170.5,101z"/>
	</g>
	<g class="st5">
		<path class="st2" d="M113.9,100.1c-0.2-0.2-0.3-0.4-0.3-0.7s0.1-0.5,0.3-0.7c0.2-0.2,0.5-0.3,0.9-0.3h4.1c0.4,0,0.7,0.1,0.9,0.3
			c0.2,0.2,0.3,0.4,0.3,0.7s-0.1,0.5-0.3,0.7s-0.5,0.3-0.9,0.3h-4.1C114.3,100.4,114.1,100.3,113.9,100.1z"/>
		<path class="st2" d="M131,98.8c0.4,0.6,0.7,1.3,0.7,2.2c0,1.2-0.4,2.1-1.3,2.9s-2.1,1.1-3.6,1.1c-0.9,0-1.7-0.1-2.5-0.4
			c-0.8-0.3-1.5-0.6-2-1.1c-0.3-0.3-0.5-0.6-0.5-0.9c0-0.3,0.1-0.5,0.2-0.7c0.2-0.2,0.4-0.3,0.6-0.3c0.1,0,0.2,0,0.4,0.1
			c0.1,0,0.2,0.1,0.4,0.2c0.6,0.4,1.1,0.7,1.6,0.8c0.5,0.2,1,0.3,1.6,0.3c0.9,0,1.5-0.2,1.9-0.5c0.4-0.3,0.6-0.9,0.6-1.6
			c0-0.7-0.2-1.2-0.7-1.5s-1.1-0.5-2-0.5h-1.1c-0.3,0-0.5-0.1-0.7-0.3c-0.2-0.2-0.2-0.4-0.2-0.7c0-0.3,0.1-0.5,0.2-0.7
			c0.2-0.2,0.4-0.3,0.7-0.3h0.8c1.8,0,2.7-0.7,2.7-2c0-0.6-0.2-1.1-0.6-1.5s-0.9-0.5-1.6-0.5c-1,0-2,0.4-3.1,1.1
			c-0.2,0.1-0.3,0.2-0.4,0.2c-0.1,0-0.2,0.1-0.4,0.1c-0.2,0-0.4-0.1-0.6-0.3c-0.2-0.2-0.2-0.5-0.2-0.7c0-0.2,0-0.4,0.1-0.5
			c0.1-0.1,0.2-0.3,0.3-0.4c0.6-0.5,1.2-0.8,2-1.1c0.8-0.3,1.6-0.4,2.4-0.4c1.4,0,2.5,0.3,3.3,1c0.8,0.7,1.2,1.6,1.2,2.7
			c0,0.8-0.2,1.4-0.6,2c-0.4,0.6-0.9,1-1.6,1.3C129.9,97.8,130.5,98.2,131,98.8z"/>
		<path class="st2" d="M143.9,103.7c0,0.7-0.4,1-1.2,1h-7.5c-0.3,0-0.6-0.1-0.8-0.3s-0.3-0.5-0.3-0.8c0-0.4,0.2-0.7,0.5-1.1l4.5-4.8
			c0.6-0.6,1-1.2,1.2-1.7c0.3-0.5,0.4-1,0.4-1.5c0-0.6-0.2-1.1-0.5-1.4c-0.4-0.3-0.9-0.5-1.5-0.5c-0.5,0-1.1,0.1-1.6,0.3
			c-0.5,0.2-1,0.5-1.5,0.8c-0.1,0.1-0.3,0.2-0.4,0.2s-0.3,0.1-0.4,0.1c-0.2,0-0.4-0.1-0.6-0.3c-0.2-0.2-0.2-0.5-0.2-0.8
			c0-0.2,0-0.4,0.1-0.5c0.1-0.1,0.2-0.3,0.3-0.4c0.6-0.5,1.3-0.8,2-1.1c0.8-0.3,1.6-0.4,2.3-0.4c1.4,0,2.4,0.3,3.2,1
			c0.8,0.7,1.2,1.6,1.2,2.8c0,0.8-0.2,1.6-0.5,2.3c-0.3,0.7-0.9,1.5-1.7,2.4l-3.4,3.6h5.2C143.5,102.7,143.9,103,143.9,103.7z"/>
	</g>
	<g class="st5">
		<path class="st2" d="M191.2,129.9c-0.2-0.2-0.3-0.4-0.3-0.7s0.1-0.5,0.3-0.7c0.2-0.2,0.5-0.3,0.9-0.3h4.1c0.4,0,0.7,0.1,0.9,0.3
			c0.2,0.2,0.3,0.4,0.3,0.7s-0.1,0.5-0.3,0.7s-0.5,0.3-0.9,0.3h-4.1C191.7,130.1,191.4,130,191.2,129.9z"/>
		<path class="st2" d="M207.4,126.1c0.6,0.4,1.1,0.9,1.5,1.6s0.5,1.4,0.5,2.3c0,0.9-0.2,1.7-0.6,2.4c-0.4,0.7-1,1.3-1.7,1.6
			s-1.5,0.6-2.4,0.6c-1.8,0-3.1-0.6-4.1-1.8c-1-1.2-1.4-2.9-1.4-5.1c0-1.5,0.2-2.8,0.7-3.9c0.4-1.1,1.1-2,1.9-2.6
			c0.8-0.6,1.8-0.9,2.9-0.9c0.7,0,1.5,0.1,2.3,0.4c0.8,0.3,1.4,0.6,1.9,1.1c0.2,0.1,0.3,0.3,0.4,0.4c0.1,0.1,0.1,0.3,0.1,0.5
			c0,0.3-0.1,0.5-0.2,0.7c-0.2,0.2-0.4,0.3-0.6,0.3c-0.1,0-0.3,0-0.4-0.1s-0.3-0.1-0.4-0.2c-1.1-0.8-2.1-1.1-2.9-1.1
			c-1,0-1.7,0.4-2.3,1.3c-0.6,0.9-0.8,2.1-0.9,3.7c0.3-0.6,0.8-1.1,1.4-1.4s1.3-0.5,2-0.5C206,125.5,206.7,125.7,207.4,126.1z
			 M206.4,131.9c0.4-0.5,0.7-1.1,0.7-1.8s-0.2-1.4-0.7-1.8c-0.4-0.5-1-0.7-1.7-0.7c-0.7,0-1.3,0.2-1.8,0.7c-0.5,0.5-0.7,1.1-0.7,1.8
			c0,0.8,0.2,1.4,0.7,1.8c0.5,0.5,1,0.7,1.8,0.7C205.3,132.6,205.9,132.4,206.4,131.9z"/>
	</g>
	<g class="st5">
		<path class="st2" d="M186.6,170.1c-0.2-0.2-0.3-0.4-0.3-0.7s0.1-0.5,0.3-0.7c0.2-0.2,0.5-0.3,0.9-0.3h4.1c0.4,0,0.7,0.1,0.9,0.3
			c0.2,0.2,0.3,0.4,0.3,0.7s-0.1,0.5-0.3,0.7s-0.5,0.3-0.9,0.3h-4.1C187,170.4,186.7,170.3,186.6,170.1z"/>
		<path class="st2" d="M204.8,173.6c0,0.7-0.4,1-1.2,1h-6.7c-0.8,0-1.2-0.3-1.2-1c0-0.7,0.4-1,1.2-1h2.1v-9l-1.9,1.2
			c-0.2,0.1-0.3,0.2-0.5,0.2c-0.3,0-0.5-0.1-0.7-0.4s-0.3-0.5-0.3-0.8c0-0.4,0.2-0.7,0.5-0.9l3.1-1.9c0.4-0.2,0.8-0.4,1.1-0.4
			c0.4,0,0.7,0.1,0.9,0.3c0.2,0.2,0.3,0.5,0.3,0.9v10.7h2.1C204.4,172.6,204.8,172.9,204.8,173.6z"/>
		<path class="st2" d="M216.6,173.6c0,0.7-0.4,1-1.2,1h-7.5c-0.3,0-0.6-0.1-0.8-0.3s-0.3-0.5-0.3-0.8c0-0.4,0.2-0.7,0.5-1.1l4.5-4.8
			c0.6-0.6,1-1.2,1.2-1.7c0.3-0.5,0.4-1,0.4-1.5c0-0.6-0.2-1.1-0.5-1.4c-0.4-0.3-0.9-0.5-1.5-0.5c-0.5,0-1.1,0.1-1.6,0.3
			c-0.5,0.2-1,0.5-1.5,0.8c-0.1,0.1-0.3,0.2-0.4,0.2c-0.1,0.1-0.3,0.1-0.4,0.1c-0.2,0-0.4-0.1-0.6-0.3s-0.2-0.5-0.2-0.8
			c0-0.2,0-0.4,0.1-0.5c0.1-0.1,0.2-0.3,0.3-0.4c0.6-0.5,1.3-0.8,2-1.1c0.8-0.3,1.6-0.4,2.3-0.4c1.4,0,2.4,0.3,3.2,1
			c0.8,0.7,1.2,1.6,1.2,2.8c0,0.8-0.2,1.6-0.5,2.3c-0.3,0.7-0.9,1.5-1.7,2.4l-3.4,3.6h5.2C216.2,172.6,216.6,172.9,216.6,173.6z"/>
	</g>
	<g class="st5">
		<path class="st2" d="M84.3,170.1c-0.2-0.2-0.3-0.4-0.3-0.7s0.1-0.5,0.3-0.7c0.2-0.2,0.5-0.3,0.9-0.3h4.1c0.4,0,0.7,0.1,0.9,0.3
			c0.2,0.2,0.3,0.4,0.3,0.7s-0.1,0.5-0.3,0.7s-0.5,0.3-0.9,0.3h-4.1C84.8,170.4,84.5,170.3,84.3,170.1z"/>
		<path class="st2" d="M102.5,173.6c0,0.7-0.4,1-1.2,1h-7.5c-0.3,0-0.6-0.1-0.8-0.3s-0.3-0.5-0.3-0.8c0-0.4,0.2-0.7,0.5-1.1l4.5-4.8
			c0.6-0.6,1-1.2,1.2-1.7c0.3-0.5,0.4-1,0.4-1.5c0-0.6-0.2-1.1-0.5-1.4c-0.4-0.3-0.9-0.5-1.5-0.5c-0.5,0-1.1,0.1-1.6,0.3
			c-0.5,0.2-1,0.5-1.5,0.8c-0.1,0.1-0.3,0.2-0.4,0.2s-0.3,0.1-0.4,0.1c-0.2,0-0.4-0.1-0.6-0.3c-0.2-0.2-0.2-0.5-0.2-0.8
			c0-0.2,0-0.4,0.1-0.5c0.1-0.1,0.2-0.3,0.3-0.4c0.6-0.5,1.3-0.8,2-1.1c0.8-0.3,1.6-0.4,2.3-0.4c1.4,0,2.4,0.3,3.2,1
			c0.8,0.7,1.2,1.6,1.2,2.8c0,0.8-0.2,1.6-0.5,2.3c-0.3,0.7-0.9,1.5-1.7,2.4l-3.4,3.6h5.2C102.1,172.6,102.5,173,102.5,173.6z"/>
		<path class="st2" d="M114.6,170.2c0.2,0.2,0.3,0.4,0.3,0.7c0,0.7-0.4,1-1.2,1h-1v1.6c0,0.4-0.1,0.7-0.3,0.9
			c-0.2,0.2-0.5,0.3-0.9,0.3c-0.4,0-0.7-0.1-0.9-0.3s-0.3-0.5-0.3-0.9V172H105c-0.4,0-0.6-0.1-0.8-0.3s-0.3-0.5-0.3-0.8
			c0-0.3,0.1-0.6,0.3-0.9l6.1-8.8c0.1-0.2,0.3-0.3,0.5-0.4s0.4-0.1,0.6-0.1c0.3,0,0.6,0.1,0.9,0.3c0.2,0.2,0.4,0.5,0.4,0.9v8h1
			C114.1,170,114.4,170.1,114.6,170.2z M106.5,170h3.7v-5.3L106.5,170z"/>
	</g>
	<g class="st5">
		<path class="st2" d="M85.4,132.8c-0.2-0.2-0.3-0.4-0.3-0.7s0.1-0.5,0.3-0.7c0.2-0.2,0.5-0.3,0.9-0.3h4.1c0.4,0,0.7,0.1,0.9,0.3
			c0.2,0.2,0.3,0.4,0.3,0.7s-0.1,0.5-0.3,0.7s-0.5,0.3-0.9,0.3h-4.1C85.8,133,85.5,133,85.4,132.8z"/>
		<path class="st2" d="M102.5,131.4c0.4,0.6,0.7,1.3,0.7,2.2c0,1.2-0.4,2.1-1.3,2.9s-2.1,1.1-3.6,1.1c-0.9,0-1.7-0.1-2.5-0.4
			c-0.8-0.3-1.5-0.6-2-1.1c-0.3-0.3-0.5-0.6-0.5-0.9c0-0.3,0.1-0.5,0.2-0.7c0.2-0.2,0.4-0.3,0.6-0.3c0.1,0,0.2,0,0.4,0.1
			c0.1,0,0.2,0.1,0.4,0.2c0.6,0.4,1.1,0.7,1.6,0.8c0.5,0.2,1,0.3,1.6,0.3c0.9,0,1.5-0.2,1.9-0.5c0.4-0.3,0.6-0.9,0.6-1.6
			c0-0.7-0.2-1.2-0.7-1.5s-1.1-0.5-2-0.5h-1.1c-0.3,0-0.5-0.1-0.7-0.3c-0.2-0.2-0.2-0.4-0.2-0.7c0-0.3,0.1-0.5,0.2-0.7
			c0.2-0.2,0.4-0.3,0.7-0.3h0.8c1.8,0,2.7-0.7,2.7-2c0-0.6-0.2-1.1-0.6-1.5s-0.9-0.5-1.6-0.5c-1,0-2,0.4-3.1,1.1
			c-0.2,0.1-0.3,0.2-0.4,0.2c-0.1,0-0.2,0.1-0.4,0.1c-0.2,0-0.4-0.1-0.6-0.3c-0.2-0.2-0.2-0.5-0.2-0.7c0-0.2,0-0.4,0.1-0.5
			c0.1-0.1,0.2-0.3,0.3-0.4c0.6-0.5,1.2-0.8,2-1.1c0.8-0.3,1.6-0.4,2.4-0.4c1.4,0,2.5,0.3,3.3,1c0.8,0.7,1.2,1.6,1.2,2.7
			c0,0.8-0.2,1.4-0.6,2c-0.4,0.6-0.9,1-1.6,1.3C101.4,130.4,102,130.8,102.5,131.4z"/>
		<path class="st2" d="M106.5,135.7c-0.9-1.2-1.3-3-1.3-5.3c0-2.3,0.4-4.1,1.3-5.3c0.9-1.2,2.1-1.8,3.8-1.8s2.9,0.6,3.8,1.8
			c0.9,1.2,1.3,3,1.3,5.3s-0.4,4.1-1.3,5.3c-0.9,1.2-2.1,1.8-3.8,1.8S107.4,136.9,106.5,135.7z M112.2,134.3
			c0.4-0.8,0.6-2.1,0.6-3.9c0-1.8-0.2-3.1-0.6-3.9c-0.4-0.8-1.1-1.2-2-1.2s-1.5,0.4-2,1.2c-0.4,0.8-0.6,2.1-0.6,3.9s0.2,3.1,0.6,3.9
			c0.4,0.8,1.1,1.2,2,1.2S111.8,135.1,112.2,134.3z"/>
	</g>
	<g class="st5">
		<path class="st2" d="M158.9,203.2c-0.2-0.2-0.3-0.4-0.3-0.7s0.1-0.5,0.3-0.7c0.2-0.2,0.5-0.3,0.9-0.3h4.1c0.4,0,0.7,0.1,0.9,0.3
			c0.2,0.2,0.3,0.4,0.3,0.7s-0.1,0.5-0.3,0.7s-0.5,0.3-0.9,0.3h-4.1C159.4,203.4,159.1,203.4,158.9,203.2z"/>
		<path class="st2" d="M177.1,206.7c0,0.7-0.4,1-1.2,1h-6.7c-0.8,0-1.2-0.3-1.2-1c0-0.7,0.4-1,1.2-1h2.1v-9l-1.9,1.2
			c-0.2,0.1-0.3,0.2-0.5,0.2c-0.3,0-0.5-0.1-0.7-0.4s-0.3-0.5-0.3-0.8c0-0.4,0.2-0.7,0.5-0.9l3.1-1.9c0.4-0.2,0.8-0.4,1.1-0.4
			c0.4,0,0.7,0.1,0.9,0.3c0.2,0.2,0.3,0.5,0.3,0.9v10.7h2.1C176.7,205.7,177.1,206,177.1,206.7z"/>
		<path class="st2" d="M186.9,199.4c0.6,0.4,1.1,0.9,1.5,1.6c0.4,0.7,0.5,1.4,0.5,2.3c0,0.9-0.2,1.7-0.6,2.4c-0.4,0.7-1,1.3-1.7,1.6
			c-0.7,0.4-1.5,0.6-2.4,0.6c-1.8,0-3.1-0.6-4.1-1.8c-1-1.2-1.4-2.9-1.4-5.1c0-1.5,0.2-2.8,0.7-3.9c0.4-1.1,1.1-2,1.9-2.6
			s1.8-0.9,2.9-0.9c0.8,0,1.5,0.1,2.3,0.4c0.8,0.3,1.4,0.6,1.9,1.1c0.2,0.1,0.3,0.3,0.4,0.4c0.1,0.1,0.1,0.3,0.1,0.5
			c0,0.3-0.1,0.5-0.2,0.7s-0.4,0.3-0.6,0.3c-0.1,0-0.3,0-0.4-0.1c-0.1,0-0.3-0.1-0.4-0.2c-1.1-0.8-2.1-1.1-2.9-1.1
			c-1,0-1.7,0.4-2.3,1.3c-0.6,0.9-0.8,2.1-0.9,3.7c0.3-0.6,0.8-1.1,1.4-1.4c0.6-0.3,1.3-0.5,2-0.5
			C185.5,198.8,186.2,199,186.9,199.4z M185.9,205.2c0.4-0.5,0.7-1.1,0.7-1.8s-0.2-1.4-0.7-1.8c-0.4-0.5-1-0.7-1.7-0.7
			c-0.7,0-1.3,0.2-1.8,0.7c-0.5,0.5-0.7,1.1-0.7,1.8c0,0.8,0.2,1.4,0.7,1.8c0.5,0.5,1,0.7,1.8,0.7
			C184.8,205.9,185.4,205.7,185.9,205.2z"/>
	</g>
	<g>
		<g class="st5">
			<path class="st2" d="M114.9,203.2c-0.2-0.2-0.3-0.4-0.3-0.7s0.1-0.5,0.3-0.7c0.2-0.2,0.5-0.3,0.9-0.3h4.1c0.4,0,0.7,0.1,0.9,0.3
				c0.2,0.2,0.3,0.4,0.3,0.7s-0.1,0.5-0.3,0.7s-0.5,0.3-0.9,0.3h-4.1C115.4,203.4,115.1,203.4,114.9,203.2z"/>
			<path class="st2" d="M133.1,206.7c0,0.7-0.4,1-1.2,1h-7.5c-0.3,0-0.6-0.1-0.8-0.3s-0.3-0.5-0.3-0.8c0-0.4,0.2-0.7,0.5-1.1
				l4.5-4.8c0.6-0.6,1-1.2,1.2-1.7c0.3-0.5,0.4-1,0.4-1.5c0-0.6-0.2-1.1-0.5-1.4c-0.4-0.3-0.9-0.5-1.5-0.5c-0.5,0-1.1,0.1-1.6,0.3
				c-0.5,0.2-1,0.5-1.5,0.8c-0.1,0.1-0.3,0.2-0.4,0.2s-0.3,0.1-0.4,0.1c-0.2,0-0.4-0.1-0.6-0.3c-0.2-0.2-0.2-0.5-0.2-0.8
				c0-0.2,0-0.4,0.1-0.5c0.1-0.1,0.2-0.3,0.3-0.4c0.6-0.5,1.3-0.8,2-1.1c0.8-0.3,1.6-0.4,2.3-0.4c1.4,0,2.4,0.3,3.2,1
				c0.8,0.7,1.2,1.6,1.2,2.8c0,0.8-0.2,1.6-0.5,2.3c-0.3,0.7-0.9,1.5-1.7,2.4l-3.4,3.6h5.2C132.7,205.7,133.1,206,133.1,206.7z"/>
			<path class="st2" d="M136.1,206.1c-0.9-1.2-1.3-3-1.3-5.3c0-2.3,0.4-4.1,1.3-5.3c0.9-1.2,2.1-1.8,3.8-1.8s2.9,0.6,3.8,1.8
				c0.9,1.2,1.3,3,1.3,5.3s-0.4,4.1-1.3,5.3c-0.9,1.2-2.1,1.8-3.8,1.8S136.9,207.3,136.1,206.1z M141.8,204.7
				c0.4-0.8,0.6-2.1,0.6-3.9c0-1.8-0.2-3.1-0.6-3.9c-0.4-0.8-1.1-1.2-2-1.2s-1.5,0.4-2,1.2c-0.4,0.8-0.6,2.1-0.6,3.9
				s0.2,3.1,0.6,3.9c0.4,0.8,1.1,1.2,2,1.2S141.4,205.5,141.8,204.7z"/>
		</g>
	</g>
</g>
<g>
	<g class="st5">
		<path class="st2" d="M188.2,50.2c0.5,0.7,0.8,1.6,0.8,2.7c0,1.5-0.5,2.6-1.6,3.5c-1.1,0.9-2.5,1.3-4.3,1.3c-1,0-2-0.2-3-0.5
			c-1-0.3-1.8-0.8-2.4-1.3c-0.4-0.3-0.6-0.7-0.6-1.1c0-0.4,0.1-0.7,0.3-0.9s0.4-0.4,0.7-0.4c0.2,0,0.3,0,0.4,0.1
			c0.1,0.1,0.3,0.1,0.5,0.3c0.7,0.4,1.3,0.8,1.9,1c0.6,0.2,1.3,0.4,2,0.4c1.1,0,1.8-0.2,2.4-0.6c0.5-0.4,0.8-1.1,0.8-1.9
			c0-0.8-0.3-1.5-0.8-1.9c-0.5-0.4-1.4-0.6-2.5-0.6h-1.4c-0.4,0-0.7-0.1-0.9-0.4c-0.2-0.2-0.3-0.5-0.3-0.9c0-0.3,0.1-0.6,0.3-0.9
			c0.2-0.2,0.5-0.4,0.9-0.4h1c2.2,0,3.3-0.8,3.3-2.5c0-0.8-0.2-1.4-0.7-1.8s-1.1-0.6-1.9-0.6c-1.2,0-2.4,0.5-3.7,1.4
			c-0.2,0.1-0.4,0.2-0.5,0.3c-0.1,0.1-0.3,0.1-0.4,0.1c-0.3,0-0.5-0.1-0.7-0.4s-0.3-0.5-0.3-0.9c0-0.2,0-0.4,0.1-0.6
			s0.2-0.3,0.4-0.5c0.7-0.6,1.5-1,2.4-1.3c0.9-0.3,1.9-0.5,2.9-0.5c1.7,0,3,0.4,4,1.2c1,0.8,1.5,1.9,1.5,3.3c0,0.9-0.3,1.7-0.7,2.4
			s-1.1,1.2-2,1.5C186.9,49,187.6,49.5,188.2,50.2z"/>
		<path class="st2" d="M203.9,56.1c0,0.8-0.5,1.3-1.4,1.3h-9.1c-0.4,0-0.7-0.1-1-0.4c-0.2-0.2-0.4-0.6-0.4-0.9
			c0-0.5,0.2-0.9,0.6-1.3l5.5-5.9c0.7-0.7,1.2-1.4,1.5-2c0.3-0.6,0.5-1.2,0.5-1.8c0-0.8-0.2-1.3-0.6-1.7c-0.4-0.4-1-0.6-1.8-0.6
			c-0.7,0-1.3,0.1-1.9,0.4c-0.6,0.2-1.2,0.6-1.9,1c-0.2,0.1-0.3,0.2-0.5,0.3s-0.3,0.1-0.5,0.1c-0.3,0-0.5-0.1-0.7-0.4
			c-0.2-0.3-0.3-0.6-0.3-0.9c0-0.2,0-0.4,0.1-0.6s0.2-0.3,0.4-0.5c0.7-0.6,1.5-1,2.5-1.3s1.9-0.5,2.8-0.5c1.6,0,3,0.4,3.9,1.2
			s1.5,2,1.5,3.4c0,1-0.2,1.9-0.6,2.7c-0.4,0.9-1.1,1.8-2.1,2.9l-4.2,4.4h6.3C203.4,54.9,203.9,55.3,203.9,56.1z"/>
	</g>
</g>
<g>
	<g class="st5">
		<path class="st2" d="M116.8,52c0.2,0.2,0.4,0.5,0.4,0.9c0,0.8-0.5,1.2-1.4,1.2h-1.2V56c0,0.5-0.1,0.9-0.4,1.2
			c-0.3,0.3-0.6,0.4-1.1,0.4s-0.8-0.1-1.1-0.4c-0.3-0.3-0.4-0.7-0.4-1.2v-1.9h-6.3c-0.4,0-0.8-0.1-1-0.4c-0.2-0.2-0.4-0.6-0.4-0.9
			c0-0.4,0.1-0.8,0.4-1.1l7.4-10.7c0.2-0.2,0.4-0.4,0.6-0.5c0.2-0.1,0.5-0.2,0.7-0.2c0.4,0,0.8,0.1,1.1,0.4c0.3,0.3,0.5,0.7,0.5,1.2
			v9.8h1.2C116.2,51.7,116.5,51.8,116.8,52z M107,51.7h4.5v-6.5L107,51.7z"/>
	</g>
</g>
<g>
	<g class="st5">
		<path class="st2" d="M49.3,194.2c0,0.8-0.5,1.3-1.4,1.3h-8.1c-1,0-1.5-0.4-1.5-1.3c0-0.8,0.5-1.2,1.5-1.2h2.5V182l-2.3,1.4
			c-0.2,0.1-0.4,0.2-0.6,0.2c-0.3,0-0.6-0.1-0.9-0.4s-0.3-0.6-0.3-1c0-0.5,0.2-0.8,0.6-1.1l3.7-2.3c0.5-0.3,0.9-0.4,1.4-0.4
			c0.4,0,0.8,0.1,1.1,0.4c0.3,0.3,0.4,0.6,0.4,1.1v13h2.5C48.9,192.9,49.3,193.3,49.3,194.2z"/>
		<path class="st2" d="M63.7,194.2c0,0.8-0.5,1.3-1.4,1.3h-9.1c-0.4,0-0.7-0.1-1-0.4c-0.2-0.2-0.4-0.6-0.4-0.9
			c0-0.5,0.2-0.9,0.6-1.3l5.5-5.9c0.7-0.7,1.2-1.4,1.5-2s0.5-1.2,0.5-1.8c0-0.8-0.2-1.3-0.6-1.7c-0.4-0.4-1-0.6-1.8-0.6
			c-0.7,0-1.3,0.1-1.9,0.4c-0.6,0.2-1.2,0.6-1.9,1c-0.2,0.1-0.3,0.2-0.5,0.3c-0.2,0.1-0.3,0.1-0.5,0.1c-0.3,0-0.5-0.1-0.7-0.4
			c-0.2-0.3-0.3-0.6-0.3-0.9c0-0.2,0-0.4,0.1-0.6s0.2-0.3,0.4-0.5c0.7-0.6,1.5-1,2.5-1.3c0.9-0.3,1.9-0.5,2.8-0.5
			c1.6,0,3,0.4,3.9,1.2c1,0.8,1.5,2,1.5,3.4c0,1-0.2,1.9-0.6,2.7c-0.4,0.9-1.1,1.8-2.1,2.9l-4.2,4.4h6.3
			C63.2,192.9,63.7,193.3,63.7,194.2z"/>
	</g>
</g>
<g>
	<g>
		<path class="st4" d="M251.3,205.2c-8.2,0-15-6.7-15-15c0-8.2,6.7-15,15-15s15,6.7,15,15S259.5,205.2,251.3,205.2z"/>
		<path class="st2" d="M251.3,175.8c8,0,14.4,6.4,14.4,14.4s-6.4,14.4-14.4,14.4s-14.4-6.4-14.4-14.4
			C236.9,182.2,243.3,175.8,251.3,175.8 M251.3,174.7c-8.6,0-15.5,6.9-15.5,15.5s6.9,15.5,15.5,15.5c8.6,0,15.5-6.9,15.5-15.5
			C266.8,181.7,259.9,174.7,251.3,174.7L251.3,174.7z"/>
	</g>
	<g>
		<g class="st5">
			<path class="st2" d="M250.4,193.7c-0.2-0.2-0.3-0.5-0.3-0.9c0-1,0.2-1.8,0.5-2.4c0.4-0.7,0.9-1.4,1.5-2.2
				c0.5-0.6,0.9-1.2,1.2-1.6c0.2-0.4,0.4-0.9,0.4-1.4c0-0.6-0.2-1-0.6-1.4c-0.4-0.3-1-0.5-1.7-0.5c-0.6,0-1.2,0.1-1.8,0.4
				s-1.3,0.7-2,1.2c-0.4,0.2-0.8,0.4-1.1,0.4s-0.6-0.1-0.8-0.4s-0.3-0.6-0.3-1c0-0.5,0.2-0.9,0.6-1.2c0.7-0.6,1.6-1.1,2.6-1.5
				s2-0.5,3-0.5c1.1,0,2,0.2,2.9,0.6c0.8,0.4,1.5,0.9,1.9,1.5c0.5,0.6,0.7,1.4,0.7,2.2c0,0.9-0.2,1.7-0.7,2.4
				c-0.4,0.7-1.1,1.4-1.9,2.3c-0.7,0.7-1.3,1.4-1.6,1.9s-0.6,1.1-0.7,1.7c-0.1,0.3-0.2,0.5-0.4,0.6s-0.4,0.2-0.7,0.2
				C250.8,194,250.6,193.9,250.4,193.7z M249.8,199c-0.4-0.4-0.6-0.8-0.6-1.4c0-0.6,0.2-1,0.6-1.4c0.4-0.4,0.8-0.6,1.4-0.6
				s1,0.2,1.4,0.6c0.4,0.4,0.6,0.8,0.6,1.4c0,0.6-0.2,1-0.6,1.4c-0.4,0.4-0.8,0.6-1.4,0.6S250.2,199.4,249.8,199z"/>
		</g>
	</g>
</g>
<g>
	<g>
		<path class="st4" d="M251.2,123.3c-8.2,0-15-6.7-15-15c0-8.2,6.7-15,15-15s15,6.7,15,15S259.4,123.3,251.2,123.3z"/>
		<path class="st2" d="M251.2,93.9c8,0,14.4,6.4,14.4,14.4s-6.4,14.4-14.4,14.4s-14.4-6.4-14.4-14.4S243.3,93.9,251.2,93.9
			 M251.2,92.8c-8.6,0-15.5,6.9-15.5,15.5s6.9,15.5,15.5,15.5c8.6,0,15.5-6.9,15.5-15.5C266.7,99.8,259.8,92.8,251.2,92.8
			L251.2,92.8z"/>
	</g>
	<g>
		<g class="st5">
			<path class="st2" d="M250.4,111.8c-0.2-0.2-0.3-0.5-0.3-0.9c0-1,0.2-1.8,0.5-2.4c0.4-0.7,0.9-1.4,1.5-2.2
				c0.5-0.6,0.9-1.2,1.2-1.6c0.2-0.4,0.4-0.9,0.4-1.4c0-0.6-0.2-1-0.6-1.4c-0.4-0.3-1-0.5-1.7-0.5c-0.6,0-1.2,0.1-1.8,0.4
				s-1.3,0.7-2,1.2c-0.4,0.2-0.8,0.4-1.1,0.4s-0.6-0.1-0.8-0.4s-0.3-0.6-0.3-1c0-0.5,0.2-0.9,0.6-1.2c0.7-0.6,1.6-1.1,2.6-1.5
				s2-0.5,3-0.5c1.1,0,2,0.2,2.9,0.6c0.8,0.4,1.5,0.9,1.9,1.5c0.5,0.6,0.7,1.4,0.7,2.2c0,0.9-0.2,1.7-0.7,2.4
				c-0.4,0.7-1.1,1.4-1.9,2.3c-0.7,0.7-1.3,1.4-1.6,1.9s-0.6,1.1-0.7,1.7c-0.1,0.3-0.2,0.5-0.4,0.6s-0.4,0.2-0.7,0.2
				C250.8,112.1,250.6,112,250.4,111.8z M249.8,117.1c-0.4-0.4-0.6-0.8-0.6-1.4s0.2-1,0.6-1.4c0.4-0.4,0.8-0.6,1.4-0.6
				s1,0.2,1.4,0.6s0.6,0.8,0.6,1.4s-0.2,1-0.6,1.4c-0.4,0.4-0.8,0.6-1.4,0.6S250.2,117.5,249.8,117.1z"/>
		</g>
	</g>
</g>
<g>
	<g>
		<path class="st4" d="M110.9,265.6c-8.2,0-15-6.7-15-15c0-8.2,6.7-15,15-15s15,6.7,15,15C125.9,258.9,119.1,265.6,110.9,265.6z"/>
		<path class="st2" d="M110.9,236.2c8,0,14.4,6.4,14.4,14.4c0,8-6.4,14.4-14.4,14.4s-14.4-6.4-14.4-14.4S102.9,236.2,110.9,236.2
			 M110.9,235.1c-8.6,0-15.5,6.9-15.5,15.5s6.9,15.5,15.5,15.5s15.5-6.9,15.5-15.5C126.4,242.1,119.4,235.1,110.9,235.1L110.9,235.1
			z"/>
	</g>
	<g>
		<g class="st5">
			<path class="st2" d="M110,254.2c-0.2-0.2-0.3-0.5-0.3-0.9c0-1,0.2-1.8,0.5-2.4c0.4-0.7,0.9-1.4,1.5-2.2c0.5-0.6,0.9-1.2,1.2-1.6
				c0.2-0.4,0.4-0.9,0.4-1.4c0-0.6-0.2-1-0.6-1.4c-0.4-0.3-1-0.5-1.7-0.5c-0.6,0-1.2,0.1-1.8,0.4s-1.3,0.7-2,1.2
				c-0.4,0.2-0.8,0.4-1.1,0.4s-0.6-0.1-0.8-0.4s-0.3-0.6-0.3-1c0-0.5,0.2-0.9,0.6-1.2c0.7-0.6,1.6-1.1,2.6-1.5s2-0.5,3-0.5
				c1.1,0,2,0.2,2.9,0.6c0.8,0.4,1.5,0.9,1.9,1.5c0.5,0.6,0.7,1.4,0.7,2.2c0,0.9-0.2,1.7-0.7,2.4c-0.4,0.7-1.1,1.4-1.9,2.3
				c-0.7,0.7-1.3,1.4-1.6,1.9s-0.6,1.1-0.7,1.7c-0.1,0.3-0.2,0.5-0.4,0.6c-0.2,0.1-0.4,0.2-0.7,0.2
				C110.4,254.5,110.2,254.4,110,254.2z M109.4,259.5c-0.4-0.4-0.6-0.8-0.6-1.4s0.2-1,0.6-1.4s0.8-0.6,1.4-0.6s1,0.2,1.4,0.6
				s0.6,0.8,0.6,1.4s-0.2,1-0.6,1.4s-0.8,0.6-1.4,0.6C110.2,260.1,109.8,259.9,109.4,259.5z"/>
		</g>
	</g>
</g>
<g>
	<g>
		<path class="st4" d="M50,124.8c-8.2,0-15-6.7-15-15c0-8.2,6.7-15,15-15s15,6.7,15,15S58.2,124.8,50,124.8z"/>
		<path class="st2" d="M50,95.5c8,0,14.4,6.4,14.4,14.4S58,124.3,50,124.3s-14.4-6.4-14.4-14.4S42,95.5,50,95.5 M50,94.3
			c-8.6,0-15.5,6.9-15.5,15.5s6.9,15.5,15.5,15.5s15.5-6.9,15.5-15.5C65.5,101.4,58.6,94.3,50,94.3L50,94.3z"/>
	</g>
	<g>
		<g class="st5">
			<path class="st2" d="M49.1,113.4c-0.2-0.2-0.3-0.5-0.3-0.9c0-1,0.2-1.8,0.5-2.4c0.4-0.7,0.9-1.4,1.5-2.2c0.5-0.6,0.9-1.2,1.2-1.6
				c0.2-0.4,0.4-0.9,0.4-1.4c0-0.6-0.2-1-0.6-1.4c-0.4-0.3-1-0.5-1.7-0.5c-0.6,0-1.2,0.1-1.8,0.4s-1.3,0.7-2,1.2
				c-0.4,0.2-0.8,0.4-1.1,0.4s-0.6-0.1-0.8-0.4s-0.3-0.6-0.3-1c0-0.5,0.2-0.9,0.6-1.2c0.7-0.6,1.6-1.1,2.6-1.5s2-0.5,3-0.5
				c1.1,0,2,0.2,2.9,0.6c0.8,0.4,1.5,0.9,1.9,1.5c0.5,0.6,0.7,1.4,0.7,2.2c0,0.9-0.2,1.7-0.7,2.4c-0.4,0.7-1.1,1.4-1.9,2.3
				c-0.7,0.7-1.3,1.4-1.6,1.9s-0.6,1.1-0.7,1.7c-0.1,0.3-0.2,0.5-0.4,0.6s-0.4,0.2-0.7,0.2C49.5,113.7,49.3,113.6,49.1,113.4z
				 M48.5,118.7c-0.4-0.4-0.6-0.8-0.6-1.4s0.2-1,0.6-1.4c0.4-0.4,0.8-0.6,1.4-0.6s1,0.2,1.4,0.6s0.6,0.8,0.6,1.4s-0.2,1-0.6,1.4
				c-0.4,0.4-0.8,0.6-1.4,0.6C49.3,119.3,48.9,119.1,48.5,118.7z"/>
		</g>
	</g>
</g>
<g class="st5">
	<path class="st2" d="M192,256.1c0,0.8-0.5,1.3-1.4,1.3h-9.1c-0.4,0-0.7-0.1-1-0.4s-0.4-0.6-0.4-0.9c0-0.5,0.2-0.9,0.6-1.3l5.5-5.9
		c0.7-0.7,1.2-1.4,1.5-2c0.3-0.6,0.5-1.2,0.5-1.8c0-0.8-0.2-1.3-0.6-1.7c-0.4-0.4-1-0.6-1.8-0.6c-0.7,0-1.3,0.1-1.9,0.4
		s-1.2,0.6-1.9,1c-0.2,0.1-0.3,0.2-0.5,0.3c-0.2,0.1-0.3,0.1-0.5,0.1c-0.3,0-0.5-0.1-0.7-0.4c-0.2-0.3-0.3-0.6-0.3-0.9
		c0-0.2,0-0.4,0.1-0.6s0.2-0.3,0.4-0.5c0.7-0.6,1.5-1,2.5-1.3c0.9-0.3,1.9-0.5,2.8-0.5c1.6,0,3,0.4,3.9,1.2c1,0.8,1.5,2,1.5,3.4
		c0,1-0.2,1.9-0.6,2.7c-0.4,0.9-1.1,1.8-2.1,2.9l-4.2,4.4h6.3C191.5,254.9,192,255.3,192,256.1z"/>
	<path class="st2" d="M195.6,255.4c-1.1-1.5-1.6-3.6-1.6-6.5c0-2.8,0.5-5,1.6-6.4c1.1-1.5,2.6-2.2,4.6-2.2c2,0,3.5,0.7,4.6,2.2
		c1.1,1.5,1.6,3.6,1.6,6.4s-0.5,5-1.6,6.5c-1.1,1.5-2.6,2.2-4.6,2.2C198.2,257.6,196.7,256.8,195.6,255.4z M202.6,253.7
		c0.5-1,0.7-2.6,0.7-4.8c0-2.2-0.2-3.8-0.7-4.8c-0.5-1-1.3-1.5-2.4-1.5c-1.1,0-1.9,0.5-2.4,1.5c-0.5,1-0.7,2.6-0.7,4.8
		s0.2,3.8,0.7,4.8c0.5,1,1.3,1.5,2.4,1.5C201.3,255.2,202.1,254.7,202.6,253.7z"/>
</g>
</svg>
