<?xml version="1.0" encoding="utf-8"?>
<!-- Generator: Adobe Illustrator 22.1.0, SVG Export Plug-In . SVG Version: 6.00 Build 0)  -->
<svg version="1.1" id="Layer_1" xmlns="http://www.w3.org/2000/svg" xmlns:xlink="http://www.w3.org/1999/xlink" x="0px" y="0px"
	 viewBox="0 0 300 300" style="enable-background:new 0 0 300 300;" xml:space="preserve">
<style type="text/css">
	.st0{fill:#00CDC8;}
	.st1{enable-background:new    ;}
	.st2{fill:#FFFFFF;}
</style>
<g>
	<g>
		<path class="st0" d="M50,126.9c-9.4,0-17.1-7.7-17.1-17.1c0-9.4,7.7-17.1,17.1-17.1s17.1,7.7,17.1,17.1S59.4,126.9,50,126.9z"/>
	</g>
</g>
<g>
	<g class="st1">
		<path class="st2" d="M53.8,108c0.8,0.5,1.4,1.1,1.8,1.9s0.7,1.8,0.7,2.8c0,1.1-0.2,2.1-0.7,2.9c-0.5,0.9-1.2,1.5-2,2
			c-0.9,0.5-1.8,0.7-2.9,0.7c-2.1,0-3.8-0.7-5-2.2S44,112.7,44,110c0-1.8,0.3-3.4,0.8-4.8c0.5-1.4,1.3-2.4,2.3-3.1
			c1-0.7,2.2-1.1,3.6-1.1c0.9,0,1.8,0.2,2.7,0.5s1.7,0.8,2.3,1.3c0.2,0.2,0.4,0.3,0.4,0.5c0.1,0.2,0.1,0.4,0.1,0.6
			c0,0.4-0.1,0.7-0.3,0.9c-0.2,0.2-0.4,0.4-0.7,0.4c-0.2,0-0.3,0-0.5-0.1c-0.1-0.1-0.3-0.1-0.5-0.3c-1.3-0.9-2.5-1.4-3.6-1.4
			c-1.2,0-2.1,0.5-2.8,1.6c-0.7,1.1-1,2.6-1.1,4.5c0.4-0.7,0.9-1.3,1.7-1.7s1.6-0.6,2.5-0.6C52.1,107.3,53,107.5,53.8,108z
			 M52.6,115.1c0.5-0.6,0.8-1.3,0.8-2.2c0-0.9-0.3-1.7-0.8-2.2c-0.5-0.6-1.2-0.8-2.1-0.8c-0.9,0-1.6,0.3-2.2,0.9
			c-0.6,0.6-0.8,1.3-0.8,2.2c0,0.9,0.3,1.7,0.8,2.2c0.6,0.6,1.3,0.9,2.2,0.9C51.4,115.9,52.1,115.7,52.6,115.1z"/>
	</g>
</g>
</svg>
