<?xml version="1.0" encoding="utf-8"?>
<!-- Generator: Adobe Illustrator 22.1.0, SVG Export Plug-In . SVG Version: 6.00 Build 0)  -->
<svg version="1.1" id="Layer_1" xmlns="http://www.w3.org/2000/svg" xmlns:xlink="http://www.w3.org/1999/xlink" x="0px" y="0px"
	 viewBox="0 0 300 300" style="enable-background:new 0 0 300 300;" xml:space="preserve">
<style type="text/css">
	.st0{fill:#00CDC8;}
	.st1{enable-background:new    ;}
	.st2{fill:#FFFFFF;}
</style>
<g>
	<g>
		<g>
			<path class="st0" d="M253.2,132.4c-11.1,0-20.2-9.1-20.2-20.2S242.1,92,253.2,92c11.1,0,20.2,9.1,20.2,20.2
				S264.3,132.4,253.2,132.4z"/>
		</g>
	</g>
	<g class="st1">
		<path class="st2" d="M250.9,113.4c0.5,0.7,0.8,1.6,0.8,2.7c0,1.5-0.5,2.6-1.6,3.5c-1.1,0.9-2.5,1.3-4.3,1.3c-1,0-2-0.2-3-0.5
			c-1-0.3-1.8-0.8-2.4-1.3c-0.4-0.3-0.6-0.7-0.6-1.1c0-0.4,0.1-0.7,0.3-0.9s0.4-0.4,0.7-0.4c0.2,0,0.3,0,0.4,0.1
			c0.1,0.1,0.3,0.1,0.5,0.3c0.7,0.4,1.3,0.8,1.9,1c0.6,0.2,1.3,0.4,2,0.4c1.1,0,1.8-0.2,2.4-0.6c0.5-0.4,0.8-1.1,0.8-1.9
			c0-0.8-0.3-1.5-0.8-1.9c-0.5-0.4-1.4-0.6-2.5-0.6h-1.4c-0.4,0-0.7-0.1-0.9-0.4c-0.2-0.2-0.3-0.5-0.3-0.9c0-0.3,0.1-0.6,0.3-0.9
			c0.2-0.2,0.5-0.4,0.9-0.4h1c2.2,0,3.3-0.8,3.3-2.5c0-0.8-0.2-1.4-0.7-1.8s-1.1-0.6-1.9-0.6c-1.2,0-2.4,0.5-3.7,1.4
			c-0.2,0.1-0.4,0.2-0.5,0.3c-0.1,0.1-0.3,0.1-0.4,0.1c-0.3,0-0.5-0.1-0.7-0.4s-0.3-0.5-0.3-0.9c0-0.2,0-0.4,0.1-0.6
			s0.2-0.3,0.4-0.5c0.7-0.6,1.5-1,2.4-1.3c0.9-0.3,1.9-0.5,2.9-0.5c1.7,0,3,0.4,4,1.2c1,0.8,1.5,1.9,1.5,3.3c0,0.9-0.3,1.7-0.7,2.4
			s-1.1,1.2-2,1.5C249.6,112.2,250.4,112.7,250.9,113.4z"/>
		<path class="st2" d="M255.9,118.7c-1.1-1.5-1.6-3.6-1.6-6.5c0-2.8,0.5-5,1.6-6.4c1.1-1.5,2.6-2.2,4.6-2.2s3.5,0.7,4.6,2.2
			c1.1,1.5,1.6,3.6,1.6,6.4s-0.5,5-1.6,6.5c-1.1,1.5-2.6,2.2-4.6,2.2S256.9,120.1,255.9,118.7z M262.8,117c0.5-1,0.7-2.6,0.7-4.8
			c0-2.2-0.2-3.8-0.7-4.8c-0.5-1-1.3-1.5-2.4-1.5s-1.9,0.5-2.4,1.5s-0.7,2.6-0.7,4.8s0.2,3.8,0.7,4.8s1.3,1.5,2.4,1.5
			S262.3,118,262.8,117z"/>
	</g>
</g>
</svg>
