<?xml version="1.0" encoding="utf-8"?>
<!-- Generator: Adobe Illustrator 22.1.0, SVG Export Plug-In . SVG Version: 6.00 Build 0)  -->
<svg version="1.1" id="Layer_1" xmlns="http://www.w3.org/2000/svg" xmlns:xlink="http://www.w3.org/1999/xlink" x="0px" y="0px"
	 viewBox="0 0 300 300" style="enable-background:new 0 0 300 300;" xml:space="preserve">
<style type="text/css">
	.st0{fill:#00CDC8;}
	.st1{enable-background:new    ;}
	.st2{fill:#FFFFFF;}
</style>
<path class="st0" d="M110.9,268.7c-9.3,0-17.1-7.6-17.1-17.1c0-9.3,7.6-17.1,17.1-17.1s17.1,7.6,17.1,17.1
	C128,261,120.2,268.7,110.9,268.7z"/>
<g class="st1">
	<path class="st2" d="M109.4,258.8c0,0.8-0.5,1.3-1.4,1.3h-8.1c-1,0-1.5-0.4-1.5-1.3c0-0.8,0.5-1.2,1.5-1.2h2.5v-10.9l-2.3,1.4
		c-0.2,0.1-0.4,0.2-0.6,0.2c-0.3,0-0.6-0.1-0.9-0.4s-0.3-0.6-0.3-1c0-0.5,0.2-0.8,0.6-1.1l3.7-2.3c0.5-0.3,0.9-0.4,1.4-0.4
		c0.4,0,0.8,0.1,1.1,0.4c0.3,0.3,0.4,0.6,0.4,1.1v13h2.5C108.9,257.6,109.4,258,109.4,258.8z"/>
	<path class="st2" d="M121.2,249.9c0.8,0.5,1.4,1.1,1.8,1.9s0.7,1.8,0.7,2.8c0,1.1-0.2,2.1-0.7,2.9c-0.5,0.9-1.2,1.5-2,2
		c-0.9,0.5-1.8,0.7-2.9,0.7c-2.1,0-3.8-0.7-5-2.2s-1.7-3.5-1.7-6.2c0-1.8,0.3-3.4,0.8-4.8c0.5-1.4,1.3-2.4,2.3-3.1
		c1-0.7,2.2-1.1,3.6-1.1c0.9,0,1.8,0.2,2.7,0.5s1.7,0.8,2.3,1.3c0.2,0.2,0.4,0.3,0.4,0.5c0.1,0.2,0.1,0.4,0.1,0.6
		c0,0.4-0.1,0.7-0.3,0.9c-0.2,0.2-0.4,0.4-0.7,0.4c-0.2,0-0.3,0-0.5-0.1c-0.1-0.1-0.3-0.1-0.5-0.3c-1.3-0.9-2.5-1.4-3.6-1.4
		c-1.2,0-2.1,0.5-2.8,1.6c-0.7,1.1-1,2.6-1.1,4.5c0.4-0.7,0.9-1.3,1.7-1.7s1.6-0.6,2.5-0.6C119.5,249.3,120.4,249.5,121.2,249.9z
		 M120,257c0.5-0.6,0.8-1.3,0.8-2.2s-0.3-1.7-0.8-2.2c-0.5-0.6-1.2-0.8-2.1-0.8s-1.6,0.3-2.2,0.9c-0.6,0.6-0.8,1.3-0.8,2.2
		s0.3,1.7,0.8,2.2c0.6,0.6,1.3,0.9,2.2,0.9C118.8,257.9,119.5,257.6,120,257z"/>
</g>
</svg>
