<?xml version="1.0" encoding="utf-8"?>
<!-- Generator: Adobe Illustrator 22.1.0, SVG Export Plug-In . SVG Version: 6.00 Build 0)  -->
<svg version="1.1" id="Layer_1" xmlns="http://www.w3.org/2000/svg" xmlns:xlink="http://www.w3.org/1999/xlink" x="0px" y="0px"
	 viewBox="0 0 300 300" style="enable-background:new 0 0 300 300;" xml:space="preserve">
<style type="text/css">
	.st0{fill:#00CDC8;}
	.st1{enable-background:new    ;}
	.st2{fill:#FFFFFF;}
</style>
<circle class="st0" cx="251.4" cy="189.5" r="16.2"/>
<g class="st1">
	<path class="st2" d="M250.6,196.3c0,0.8-0.5,1.3-1.4,1.3h-9.1c-0.4,0-0.7-0.1-1-0.4s-0.4-0.6-0.4-0.9c0-0.5,0.2-0.9,0.6-1.3
		l5.5-5.9c0.7-0.7,1.2-1.4,1.5-2c0.3-0.6,0.5-1.2,0.5-1.8c0-0.8-0.2-1.3-0.6-1.7c-0.4-0.4-1-0.6-1.8-0.6c-0.7,0-1.3,0.1-1.9,0.4
		s-1.2,0.6-1.9,1c-0.2,0.1-0.3,0.2-0.5,0.3c-0.2,0.1-0.3,0.1-0.5,0.1c-0.3,0-0.5-0.1-0.7-0.4c-0.2-0.3-0.3-0.6-0.3-0.9
		c0-0.2,0-0.4,0.1-0.6s0.2-0.3,0.4-0.5c0.7-0.6,1.5-1,2.5-1.3c0.9-0.3,1.9-0.5,2.8-0.5c1.6,0,3,0.4,3.9,1.2c1,0.8,1.5,2,1.5,3.4
		c0,1-0.2,1.9-0.6,2.7c-0.4,0.9-1.1,1.8-2.1,2.9l-4.2,4.4h6.3C250.1,195.1,250.6,195.5,250.6,196.3z"/>
	<path class="st2" d="M265.3,192.2c0.2,0.2,0.4,0.5,0.4,0.9c0,0.8-0.5,1.2-1.4,1.2H263v1.9c0,0.5-0.1,0.9-0.4,1.2
		c-0.3,0.3-0.6,0.4-1.1,0.4c-0.4,0-0.8-0.1-1.1-0.4c-0.3-0.3-0.4-0.7-0.4-1.2v-1.9h-6.3c-0.4,0-0.8-0.1-1-0.4s-0.4-0.6-0.4-0.9
		c0-0.4,0.1-0.8,0.4-1.1l7.4-10.7c0.2-0.2,0.4-0.4,0.6-0.5s0.5-0.2,0.7-0.2c0.4,0,0.8,0.1,1.1,0.4c0.3,0.3,0.5,0.7,0.5,1.2v9.8h1.2
		C264.7,191.9,265.1,192,265.3,192.2z M255.5,191.9h4.5v-6.5L255.5,191.9z"/>
</g>
</svg>
