<?xml version="1.0" encoding="utf-8"?>
<!-- Generator: Adobe Illustrator 22.1.0, SVG Export Plug-In . SVG Version: 6.00 Build 0)  -->
<svg version="1.1" id="Layer_1" xmlns="http://www.w3.org/2000/svg" xmlns:xlink="http://www.w3.org/1999/xlink" x="0px" y="0px"
	 viewBox="0 0 336.7 293.7" style="enable-background:new 0 0 336.7 293.7;" xml:space="preserve">
<style type="text/css">
	.st0{fill:#F2BBD6;}
	.st1{fill:#FFFFFF;}
	.st2{fill:#893E66;}
	.st3{fill:#EE82B4;}
	.st4{fill:#592640;}
	.st5{font-family:'Nunito-Bold';}
	.st6{font-size:27px;}
	.st7{font-size:23.9191px;}
	.st8{font-size:27.0015px;}
</style>
<g>
	<g>
		<path class="st0" d="M86.1,289.2c-40,0-72.6-32.6-72.6-72.6V172c0-40,32.6-72.6,72.6-72.6h157.7c6.4,0,12.4-2.5,16.9-7.1
			c4.5-4.5,6.9-10.5,6.9-16.8c-0.1-13.1-10.7-23.8-23.7-23.8l-209.7,0c-13.5,0-24.4-10.9-24.4-24.4c0-13.5,10.9-24.4,24.4-24.4
			h209.5c40,0,72.6,32.6,72.6,72.6s-32.6,72.6-72.6,72.6H86c-6.4,0-12.4,2.5-16.9,7.1c-4.5,4.5-6.9,10.5-6.9,16.8v44.6
			c0,13.1,10.6,23.8,23.7,23.8l201.3,0c13.5,0,24.4,10.9,24.4,24.4c-0.1,13.5-11.1,24.4-24.4,24.4H86.1z"/>
		<path class="st1" d="M243.7,5.4c38.7,0,70.1,31.4,70.1,70.1s-31.4,70.1-70.1,70.1H86c-14.5,0-26.4,11.8-26.3,26.4v44.6
			c0,14.4,11.7,26.3,26.2,26.3c0.1,0,0.1,0,0.2,0h201.1c12.1,0,21.9,9.8,21.9,21.9c-0.1,12.1-9.8,21.9-21.9,21.9H86.1
			c-38.7,0-70.1-31.4-70.1-70.1V172c0-38.7,31.4-70.1,70.1-70.1h157.7c14.5,0,26.4-11.8,26.3-26.4C270,61,258.4,49.2,243.9,49.2
			c-0.1,0-0.1,0-0.2,0H34.2c-12.1,0-21.9-9.8-21.9-21.9c0-12.1,9.8-21.9,21.9-21.9H243.7 M243.7,0.4H34.2
			C19.4,0.4,7.3,12.5,7.3,27.3c0,14.8,12.1,26.9,26.9,26.9h209.5l0.2,0c11.6,0,21.1,9.6,21.2,21.3c0,5.7-2.1,11-6.2,15.1
			c-4,4.1-9.4,6.3-15.1,6.3H86.1C44.7,96.9,11,130.6,11,172v44.6c0,41.4,33.7,75.1,75.1,75.1h201.1c14.7,0,26.8-12,26.9-26.9
			c0-14.9-12.1-26.9-26.9-26.9H86.1l-0.2,0c-11.7,0-21.2-9.6-21.2-21.3V172c0-5.7,2.1-11,6.2-15.1c4-4.1,9.4-6.3,15.1-6.3h157.7
			c41.4,0,75.1-33.7,75.1-75.1S285.1,0.4,243.7,0.4L243.7,0.4z"/>
	</g>
</g>
<circle class="st2" cx="284.9" cy="253.3" r="2.8"/>
<circle class="st2" cx="296.8" cy="253.3" r="2.8"/>
<rect x="116" y="5.3" class="st3" width="54" height="43.8"/>
<rect x="37" y="5.3" class="st3" width="39.7" height="43.8"/>
<rect x="88.3" y="101.6" class="st3" width="50" height="43.8"/>
<rect x="15.9" y="174.6" class="st3" width="43.8" height="43.8"/>
<g>
	<text transform="matrix(1 -6.373515e-05 6.373515e-05 1 40.3629 36.5301)" class="st4 st5 st6">48 -7</text>
</g>
<g>
	<text transform="matrix(1 -6.373515e-05 6.373515e-05 1 183.5511 37.5222)" class="st4 st5 st6">- 5 </text>
</g>
<g>
	<text transform="matrix(1 -6.373515e-05 6.373515e-05 1 145.276 132.522)" class="st4 st5 st6">4 - </text>
</g>
<g>
	<text transform="matrix(1 -6.373515e-05 6.373515e-05 1 96.823 132.5222)" class="st4 st5 st6">29</text>
</g>
<g>
	<text transform="matrix(1 -6.373515e-05 6.373515e-05 1 151.3397 275.6883)" class="st4 st5 st6">-6</text>
</g>
<g>
	<text transform="matrix(1 -6.373515e-05 6.373515e-05 1 20.4789 205.5222)" class="st4 st5 st6">28</text>
</g>
<g>
	<text transform="matrix(0.837 -0.5472 0.5472 0.837 40.7798 152.1706)" class="st4 st5 st6">1 -</text>
</g>
<circle class="st4" cx="144.3" cy="27.9" r="17.1"/>
<text transform="matrix(1 -6.373515e-05 6.373515e-05 1 138.8226 37.5239)" class="st1 st5 st7">?</text>
<g>
	<rect x="190.5" y="102.2" class="st3" width="50" height="43.8"/>
	<circle class="st4" cx="215.5" cy="124.1" r="17.1"/>
	<text transform="matrix(1 -6.373515e-05 6.373515e-05 1 210.0623 131.0123)" class="st1 st5 st7">?</text>
</g>
<g>
	<rect x="91" y="242.9" class="st3" width="50" height="43.8"/>
	<circle class="st4" cx="116" cy="264.8" r="17.1"/>
	<text transform="matrix(1 -6.373515e-05 6.373515e-05 1 110.5464 271.6897)" class="st1 st5 st7">?</text>
</g>
<g>
	<rect x="198.4" y="242.9" class="st3" width="50" height="43.8"/>
	<circle class="st4" cx="223.4" cy="264.8" r="17.1"/>
	<text transform="matrix(1 -6.373515e-05 6.373515e-05 1 217.9373 271.6897)" class="st1 st5 st7">?</text>
</g>
<g>
	<path class="st3" d="M253.9,6.1l-11.2,43h1c11.9,0,21.9,7.9,25.2,18.7l40.9-15.5C301.3,28.1,279.9,9.9,253.9,6.1z"/>
</g>
<g>
	<text transform="matrix(0.8398 0.5429 -0.5429 0.8398 251.8338 37.2201)" class="st4 st5 st6">36</text>
</g>
<g>
	<text transform="matrix(0.9485 0.3168 -0.3168 0.9485 265.683 105.6439)" class="st4 st5 st6">-3</text>
</g>
<g>
	<text transform="matrix(0.8516 0.5243 -0.5243 0.8516 39.482 256.0583)" class="st4 st5 st8">-3</text>
</g>
</svg>
