<?xml version="1.0" encoding="utf-8"?>
<!-- Generator: Adobe Illustrator 22.1.0, SVG Export Plug-In . SVG Version: 6.00 Build 0)  -->
<svg version="1.1" id="Layer_1" xmlns="http://www.w3.org/2000/svg" xmlns:xlink="http://www.w3.org/1999/xlink" x="0px" y="0px"
	 viewBox="0 0 336.7 293.7" style="enable-background:new 0 0 336.7 293.7;" xml:space="preserve">
<style type="text/css">
	.st0{fill:#EE82B4;}
	.st1{fill:#592640;}
</style>
<rect x="116" y="5.3" class="st0" width="54" height="43.8"/>
<g>
	<g>
		<path class="st1" d="M142.2,30.4c0.3,0.2,0.4,0.6,0.4,1c0,0.9-0.5,1.4-1.6,1.4h-1.4v2.1c0,0.6-0.2,1-0.5,1.3
			c-0.3,0.3-0.7,0.5-1.2,0.5c-0.5,0-0.9-0.2-1.2-0.5c-0.3-0.3-0.5-0.7-0.5-1.3v-2.1h-7.1c-0.5,0-0.9-0.1-1.1-0.4s-0.4-0.6-0.4-1
			c0-0.4,0.1-0.8,0.4-1.2l8.3-12c0.2-0.3,0.4-0.4,0.7-0.6c0.3-0.1,0.5-0.2,0.8-0.2c0.5,0,0.9,0.2,1.2,0.5c0.3,0.3,0.5,0.7,0.5,1.3
			l0,11h1.4C141.5,30.1,141.9,30.2,142.2,30.4z M131.2,30.1h5l0-7.3L131.2,30.1z"/>
		<path class="st1" d="M158.2,35.1c0,1-0.5,1.4-1.6,1.4l-9.1,0c-1.1,0-1.6-0.5-1.6-1.4c0-0.9,0.5-1.4,1.6-1.4h2.8l0-12.3l-2.6,1.6
			c-0.3,0.1-0.5,0.2-0.7,0.2c-0.4,0-0.7-0.2-1-0.5c-0.3-0.3-0.4-0.7-0.4-1.1c0-0.5,0.2-0.9,0.7-1.2l4.2-2.6c0.5-0.3,1.1-0.5,1.5-0.5
			c0.5,0,0.9,0.2,1.2,0.5c0.3,0.3,0.5,0.7,0.5,1.3l0,14.6h2.8C157.6,33.7,158.2,34.2,158.2,35.1z"/>
	</g>
</g>
</svg>
