<?xml version="1.0" encoding="utf-8"?>
<!-- Generator: Adobe Illustrator 22.1.0, SVG Export Plug-In . SVG Version: 6.00 Build 0)  -->
<svg version="1.1" id="Layer_1" xmlns="http://www.w3.org/2000/svg" xmlns:xlink="http://www.w3.org/1999/xlink" x="0px" y="0px"
	 viewBox="0 0 336.7 293.7" style="enable-background:new 0 0 336.7 293.7;" xml:space="preserve">
<style type="text/css">
	.st0{fill:#EE82B4;}
	.st1{fill:#592640;}
</style>
<g>
	<rect x="190.5" y="102.2" class="st0" width="50" height="43.8"/>
	<g>
		<g>
			<path class="st1" d="M212.7,125.9c0.6,0.8,0.9,1.8,0.9,3c0,1.6-0.6,2.9-1.8,3.9c-1.2,1-2.8,1.5-4.9,1.5c-1.2,0-2.3-0.2-3.4-0.5
				c-1.1-0.4-2-0.9-2.8-1.5c-0.4-0.4-0.6-0.8-0.6-1.3c0-0.4,0.1-0.7,0.3-1c0.2-0.3,0.5-0.4,0.8-0.4c0.2,0,0.3,0,0.5,0.1
				c0.1,0.1,0.3,0.2,0.6,0.3c0.8,0.5,1.5,0.9,2.2,1.2c0.7,0.3,1.4,0.4,2.2,0.4c1.2,0,2.1-0.2,2.6-0.7c0.6-0.5,0.9-1.2,0.9-2.2
				c0-1-0.3-1.7-0.9-2.1c-0.6-0.5-1.5-0.7-2.8-0.7H205c-0.4,0-0.7-0.1-1-0.4c-0.2-0.3-0.3-0.6-0.3-1c0-0.4,0.1-0.7,0.3-1
				c0.2-0.3,0.5-0.4,1-0.4h1.1c2.5,0,3.7-0.9,3.7-2.8c0-0.9-0.3-1.5-0.8-2c-0.5-0.5-1.2-0.7-2.2-0.7c-1.3,0-2.7,0.5-4.2,1.6
				c-0.3,0.1-0.5,0.2-0.6,0.3c-0.1,0.1-0.3,0.1-0.5,0.1c-0.3,0-0.6-0.1-0.8-0.4c-0.2-0.3-0.3-0.6-0.3-1c0-0.3,0-0.5,0.1-0.7
				c0.1-0.2,0.3-0.4,0.5-0.6c0.8-0.6,1.7-1.1,2.7-1.5c1.1-0.4,2.1-0.6,3.2-0.6c1.9,0,3.4,0.5,4.5,1.4s1.7,2.1,1.7,3.7
				c0,1-0.3,2-0.8,2.7c-0.5,0.8-1.3,1.4-2.2,1.7C211.2,124.5,212.1,125.1,212.7,125.9z"/>
			<path class="st1" d="M228.9,125.9c0.6,0.8,0.9,1.8,0.9,3c0,1.6-0.6,2.9-1.8,3.9c-1.2,1-2.8,1.5-4.9,1.5c-1.2,0-2.3-0.2-3.4-0.5
				c-1.1-0.4-2-0.9-2.8-1.5c-0.4-0.4-0.6-0.8-0.6-1.3c0-0.4,0.1-0.7,0.3-1c0.2-0.3,0.5-0.4,0.8-0.4c0.2,0,0.3,0,0.5,0.1
				c0.1,0.1,0.3,0.2,0.6,0.3c0.8,0.5,1.5,0.9,2.2,1.2c0.7,0.3,1.4,0.4,2.2,0.4c1.2,0,2.1-0.2,2.6-0.7c0.6-0.5,0.9-1.2,0.9-2.2
				c0-1-0.3-1.7-0.9-2.1c-0.6-0.5-1.5-0.7-2.8-0.7h-1.5c-0.4,0-0.7-0.1-1-0.4c-0.2-0.3-0.3-0.6-0.3-1c0-0.4,0.1-0.7,0.3-1
				c0.2-0.3,0.5-0.4,1-0.4h1.1c2.5,0,3.7-0.9,3.7-2.8c0-0.9-0.3-1.5-0.8-2c-0.5-0.5-1.2-0.7-2.2-0.7c-1.3,0-2.7,0.5-4.2,1.6
				c-0.3,0.1-0.5,0.2-0.6,0.3c-0.1,0.1-0.3,0.1-0.5,0.1c-0.3,0-0.6-0.1-0.8-0.4c-0.2-0.3-0.3-0.6-0.3-1c0-0.3,0-0.5,0.1-0.7
				s0.3-0.4,0.5-0.6c0.8-0.6,1.7-1.1,2.7-1.5c1.1-0.4,2.1-0.6,3.2-0.6c1.9,0,3.4,0.5,4.5,1.4c1.1,0.9,1.7,2.1,1.7,3.7
				c0,1-0.3,2-0.8,2.7s-1.3,1.4-2.2,1.7C227.4,124.5,228.3,125.1,228.9,125.9z"/>
		</g>
	</g>
</g>
</svg>
