<?xml version="1.0" encoding="utf-8"?>
<!-- Generator: Adobe Illustrator 22.1.0, SVG Export Plug-In . SVG Version: 6.00 Build 0)  -->
<svg version="1.1" id="Layer_1" xmlns="http://www.w3.org/2000/svg" xmlns:xlink="http://www.w3.org/1999/xlink" x="0px" y="0px"
	 viewBox="0 0 336.7 293.7" style="enable-background:new 0 0 336.7 293.7;" xml:space="preserve">
<style type="text/css">
	.st0{fill:#EE82B4;}
	.st1{enable-background:new    ;}
	.st2{fill:#592640;}
</style>
<g>
	<rect x="198.4" y="242.9" class="st0" width="50" height="43.8"/>
</g>
<g>
	<g class="st1">
		<path class="st2" d="M221.4,273.3c0,1-0.5,1.4-1.6,1.4l-10.3,0c-0.5,0-0.8-0.1-1.1-0.4c-0.3-0.3-0.4-0.6-0.4-1
			c0-0.5,0.2-1,0.6-1.5l6.2-6.6c0.8-0.8,1.3-1.6,1.7-2.3c0.4-0.7,0.5-1.4,0.5-2.1c0-0.8-0.2-1.5-0.7-1.9c-0.5-0.4-1.2-0.7-2.1-0.7
			c-0.7,0-1.5,0.1-2.1,0.4c-0.7,0.3-1.4,0.7-2.1,1.1c-0.2,0.1-0.4,0.2-0.5,0.3s-0.4,0.1-0.5,0.1c-0.3,0-0.6-0.1-0.8-0.4
			c-0.2-0.3-0.3-0.6-0.3-1c0-0.3,0-0.5,0.1-0.7c0.1-0.2,0.3-0.4,0.5-0.6c0.8-0.6,1.7-1.1,2.8-1.5c1.1-0.4,2.1-0.6,3.2-0.6
			c1.9,0,3.3,0.5,4.4,1.4c1.1,0.9,1.7,2.2,1.7,3.8c0,1.1-0.2,2.1-0.7,3.1c-0.5,1-1.3,2-2.4,3.2l-4.7,5l7.1,0
			C220.8,271.9,221.4,272.3,221.4,273.3z"/>
		<path class="st2" d="M237.7,273.3c0,1-0.5,1.4-1.6,1.4l-9.1,0c-1.1,0-1.6-0.5-1.6-1.4c0-0.9,0.5-1.4,1.6-1.4h2.8l0-12.3l-2.6,1.6
			c-0.3,0.1-0.5,0.2-0.7,0.2c-0.4,0-0.7-0.2-1-0.5s-0.4-0.7-0.4-1.1c0-0.5,0.2-0.9,0.7-1.2l4.2-2.6c0.5-0.3,1.1-0.5,1.5-0.5
			c0.5,0,0.9,0.2,1.2,0.5c0.3,0.3,0.5,0.7,0.5,1.3l0,14.6h2.8C237.1,271.9,237.7,272.3,237.7,273.3z"/>
	</g>
</g>
</svg>
