<?xml version="1.0" encoding="utf-8"?>
<!-- Generator: Adobe Illustrator 22.1.0, SVG Export Plug-In . SVG Version: 6.00 Build 0)  -->
<svg version="1.1" id="Layer_1" xmlns="http://www.w3.org/2000/svg" xmlns:xlink="http://www.w3.org/1999/xlink" x="0px" y="0px"
	 viewBox="0 0 336.7 400" style="enable-background:new 0 0 336.7 400;" xml:space="preserve">
<style type="text/css">
	.st0{fill:#FFFFFF;stroke:#FFFFFF;stroke-width:6;stroke-linecap:round;stroke-linejoin:round;stroke-miterlimit:10;}
	.st1{fill:#00CDC8;}
	.st2{fill:#60025E;}
	.st3{fill:#F24044;}
	.st4{fill:#F86A00;}
	.st5{fill:#A5D73C;}
	.st6{fill:#FFFFFF;}
</style>
<g>
	<circle class="st0" cx="281.8" cy="40.2" r="26.9"/>
</g>
<rect x="255.3" y="252.7" transform="matrix(-1.836970e-16 1 -1 -1.836970e-16 568.2652 8.2433)" class="st0" width="49.4" height="71.1"/>
<path class="st0" d="M181.1,68.8h-27.4c-7.2,0-13.1-5.9-13.1-13.1V28.2c0-7.2,5.9-13.1,13.1-13.1h27.4c7.2,0,13.1,5.9,13.1,13.1
	v27.4C194.2,62.9,188.3,68.8,181.1,68.8z"/>
<path class="st0" d="M181.1,232h-27.4c-7.2,0-13.1-5.9-13.1-13.1v-27.4c0-7.2,5.9-13.1,13.1-13.1h27.4c7.2,0,13.1,5.9,13.1,13.1
	v27.4C194.2,226.1,188.3,232,181.1,232z"/>
<g>
	<circle class="st0" cx="281.8" cy="123.4" r="26.9"/>
</g>
<rect x="26.3" y="263.7" transform="matrix(-0.7071 0.7071 -0.7071 -0.7071 293.5052 457.2014)" class="st0" width="51.4" height="51.4"/>
<rect x="255.1" y="179.5" transform="matrix(-0.7071 0.7071 -0.7071 -0.7071 624.4855 151.7146)" class="st0" width="51.4" height="51.4"/>
<polygon class="st0" points="67.7,97.9 36.4,97.9 20.7,125 36.4,152.1 67.7,152.1 83.4,125 "/>
<polygon class="st0" points="67.7,180 36.4,180 20.7,207.1 36.4,234.3 67.7,234.3 83.4,207.1 "/>
<g>
	<circle class="st0" cx="50.9" cy="42.9" r="26.9"/>
</g>
<g>
	<circle class="st0" cx="166.2" cy="123.4" r="26.9"/>
</g>
<g>
	<circle class="st0" cx="166.2" cy="288.3" r="26.9"/>
</g>
<g>
	<g>
		<g>
			<path class="st0" d="M99.3,44.5v-5.1h22.4v5.1H99.3z"/>
		</g>
	</g>
</g>
<g>
	<g>
		<g>
			<path class="st0" d="M99.3,127v-5.1h22.4v5.1H99.3z"/>
		</g>
	</g>
</g>
<g>
	<g>
		<g>
			<path class="st0" d="M99.3,209.5v-5.1h22.4v5.1H99.3z"/>
		</g>
	</g>
</g>
<g>
	<g>
		<g>
			<path class="st0" d="M99.3,291v-5.1h22.4v5.1H99.3z"/>
		</g>
	</g>
</g>
<g>
	<g>
		<path class="st0" d="M208.5,205.6v-5.2h22.4v5.2H208.5z M208.5,213.5v-5.2h22.4v5.2H208.5z"/>
	</g>
</g>
<g>
	<g>
		<path class="st0" d="M208.5,285.5v-5.2h22.4v5.2H208.5z M208.5,293.4v-5.2h22.4v5.2H208.5z"/>
	</g>
</g>
<g>
	<g>
		<path class="st0" d="M208.5,122.2V117h22.4v5.2H208.5z M208.5,130v-5.2h22.4v5.2H208.5z"/>
	</g>
</g>
<g>
	<g>
		<path class="st0" d="M208.5,40.6v-5.2h22.4v5.2H208.5z M208.5,48.4v-5.2h22.4v5.2H208.5z"/>
	</g>
</g>
<g>
	<path class="st0" d="M279.2,42.7c0.7,0.9,1.1,2.1,1.1,3.5c0,1.9-0.7,3.5-2.1,4.6c-1.4,1.1-3.3,1.7-5.7,1.7c-1.4,0-2.7-0.2-4-0.6
		s-2.3-1-3.2-1.8c-0.5-0.4-0.7-0.9-0.7-1.5c0-0.5,0.1-0.9,0.4-1.2c0.3-0.3,0.6-0.5,0.9-0.5c0.2,0,0.4,0,0.6,0.1
		c0.2,0.1,0.4,0.2,0.7,0.4c0.9,0.6,1.7,1,2.5,1.4c0.8,0.3,1.7,0.5,2.6,0.5c1.4,0,2.4-0.3,3.1-0.8c0.7-0.6,1-1.4,1-2.6
		c0-1.1-0.4-2-1.1-2.5s-1.8-0.8-3.3-0.8h-1.8c-0.5,0-0.9-0.2-1.1-0.5c-0.3-0.3-0.4-0.7-0.4-1.1c0-0.4,0.1-0.8,0.4-1.1
		c0.3-0.3,0.6-0.5,1.1-0.5h1.3c2.9,0,4.3-1.1,4.3-3.3c0-1-0.3-1.8-0.9-2.3c-0.6-0.5-1.5-0.8-2.5-0.8c-1.5,0-3.2,0.6-5,1.8
		c-0.3,0.2-0.5,0.3-0.7,0.4c-0.2,0.1-0.4,0.1-0.6,0.1c-0.4,0-0.7-0.2-0.9-0.5c-0.3-0.3-0.4-0.7-0.4-1.2c0-0.3,0.1-0.6,0.2-0.8
		s0.3-0.4,0.6-0.7c0.9-0.7,2-1.3,3.2-1.8c1.2-0.4,2.5-0.7,3.8-0.7c2.2,0,4,0.5,5.3,1.6c1.3,1.1,2,2.5,2,4.3c0,1.2-0.3,2.3-1,3.2
		s-1.5,1.6-2.6,2C277.4,41.1,278.5,41.7,279.2,42.7z"/>
	<path class="st0" d="M299.5,45.1c0.3,0.3,0.5,0.7,0.5,1.2c0,1.1-0.6,1.6-1.9,1.6h-1.6v2.5c0,0.7-0.2,1.2-0.6,1.5s-0.9,0.5-1.4,0.5
		c-0.6,0-1.1-0.2-1.4-0.5s-0.6-0.9-0.6-1.5v-2.5h-8.3c-0.6,0-1-0.2-1.3-0.5c-0.3-0.3-0.5-0.7-0.5-1.2c0-0.5,0.2-1,0.5-1.5l9.8-14.1
		c0.2-0.3,0.5-0.5,0.8-0.7s0.6-0.2,1-0.2c0.5,0,1,0.2,1.4,0.5c0.4,0.4,0.6,0.9,0.6,1.5v12.9h1.6C298.7,44.7,299.2,44.8,299.5,45.1z
		 M286.5,44.7h5.9v-8.5L286.5,44.7z"/>
</g>
<g>
	<path class="st0" d="M281,133.8c0,1.1-0.6,1.7-1.9,1.7h-10.7c-1.3,0-1.9-0.6-1.9-1.7c0-1.1,0.6-1.6,1.9-1.6h3.3v-14.5l-3,1.9
		c-0.3,0.2-0.6,0.3-0.8,0.3c-0.4,0-0.8-0.2-1.1-0.6s-0.5-0.8-0.5-1.3c0-0.6,0.3-1.1,0.8-1.4l4.9-3c0.6-0.4,1.2-0.6,1.8-0.6
		c0.6,0,1.1,0.2,1.4,0.5c0.4,0.4,0.5,0.9,0.5,1.5v17.2h3.3C280.3,132.1,281,132.7,281,133.8z"/>
	<path class="st0" d="M298.2,125.9c0.7,1,1.1,2.1,1.1,3.5c0,2-0.7,3.5-2.2,4.6s-3.5,1.7-6.2,1.7c-2.6,0-4.7-0.6-6.2-1.7
		c-1.5-1.1-2.2-2.6-2.2-4.6c0-1.4,0.4-2.5,1.1-3.5c0.7-1,1.7-1.6,3-2c-1.1-0.4-2-1.1-2.6-2c-0.6-0.9-1-2-1-3.2
		c0-1.9,0.7-3.3,2.1-4.4s3.3-1.6,5.7-1.6c2.4,0,4.3,0.5,5.7,1.6s2.1,2.6,2.1,4.4c0,1.2-0.3,2.3-1,3.2s-1.5,1.6-2.6,1.9
		C296.5,124.3,297.5,125,298.2,125.9z M295.5,129.1c0-2.3-1.5-3.4-4.5-3.4c-3,0-4.5,1.1-4.5,3.4s1.5,3.4,4.5,3.4
		C293.9,132.5,295.5,131.4,295.5,129.1z M287,119.2c0,1.1,0.3,1.9,1,2.5c0.7,0.6,1.7,0.8,3,0.8c1.3,0,2.3-0.3,3-0.8
		c0.7-0.6,1-1.4,1-2.5c0-2.2-1.3-3.2-4-3.2C288.3,116,287,117.1,287,119.2z"/>
</g>
<g>
	<path class="st0" d="M50.4,47.8c0.3,0.3,0.5,0.7,0.5,1.2c0,1.1-0.6,1.6-1.9,1.6h-1.6v2.5c0,0.7-0.2,1.2-0.6,1.5
		c-0.4,0.4-0.9,0.5-1.4,0.5s-1.1-0.2-1.4-0.5c-0.4-0.4-0.6-0.9-0.6-1.5v-2.5H35c-0.6,0-1-0.2-1.3-0.5c-0.3-0.3-0.5-0.7-0.5-1.2
		c0-0.5,0.2-1,0.5-1.5l9.8-14.1c0.2-0.3,0.5-0.5,0.8-0.7s0.6-0.2,1-0.2c0.6,0,1,0.2,1.4,0.5c0.4,0.4,0.6,0.9,0.6,1.5v12.9h1.6
		C49.6,47.4,50.1,47.5,50.4,47.8z M37.4,47.4h5.9v-8.5L37.4,47.4z"/>
	<path class="st0" d="M68.3,53.3c0,1.1-0.6,1.7-1.9,1.7H55.7c-1.3,0-1.9-0.6-1.9-1.7c0-1.1,0.6-1.6,1.9-1.6H59V37.2L56,39
		c-0.3,0.2-0.6,0.3-0.8,0.3c-0.4,0-0.8-0.2-1.1-0.6c-0.3-0.4-0.5-0.8-0.5-1.3c0-0.6,0.3-1.1,0.8-1.4l4.9-3c0.6-0.4,1.2-0.6,1.8-0.6
		c0.6,0,1.1,0.2,1.4,0.5c0.4,0.4,0.5,0.9,0.5,1.5v17.2h3.3C67.7,51.6,68.3,52.2,68.3,53.3z"/>
</g>
<g>
	<path class="st0" d="M171.1,122c1.1,0.6,1.9,1.4,2.5,2.5c0.6,1.1,0.9,2.3,0.9,3.7c0,1.5-0.3,2.8-1,3.9c-0.7,1.1-1.6,2-2.8,2.6
		c-1.2,0.6-2.6,0.9-4.2,0.9c-1.3,0-2.6-0.2-3.9-0.7c-1.3-0.4-2.3-1-3.2-1.8c-0.5-0.4-0.7-0.9-0.7-1.5c0-0.5,0.1-0.9,0.4-1.2
		c0.3-0.3,0.6-0.5,0.9-0.5c0.2,0,0.4,0,0.6,0.1c0.2,0.1,0.4,0.2,0.7,0.4c0.8,0.6,1.7,1,2.5,1.4s1.7,0.5,2.6,0.5c1.4,0,2.5-0.3,3.2-1
		c0.7-0.7,1.1-1.7,1.1-3c0-1.2-0.4-2.2-1.1-3c-0.8-0.7-1.8-1.1-3.1-1.1c-0.8,0-1.6,0.1-2.2,0.3c-0.6,0.2-1.3,0.6-2,1.2
		c-0.4,0.3-0.8,0.4-1.2,0.4c-0.4,0-0.8-0.1-1.1-0.4c-0.3-0.3-0.4-0.6-0.4-1V115c0-0.6,0.2-1.1,0.5-1.4c0.3-0.3,0.8-0.5,1.4-0.5H172
		c1.3,0,1.9,0.5,1.9,1.6c0,1.1-0.6,1.6-1.9,1.6h-8.5v6c1.1-0.8,2.4-1.1,4-1.1C168.8,121.1,170,121.4,171.1,122z"/>
</g>
<g>
	<path class="st0" d="M50.9,128.6c-0.2-0.3-0.3-0.6-0.3-1c0-1.2,0.2-2.1,0.6-3s1-1.7,1.8-2.6c0.6-0.8,1.1-1.4,1.4-1.9
		s0.4-1.1,0.4-1.7c0-0.7-0.3-1.3-0.8-1.7c-0.5-0.4-1.2-0.6-2.1-0.6c-0.8,0-1.5,0.2-2.2,0.5c-0.7,0.3-1.5,0.8-2.4,1.4
		c-0.5,0.3-1,0.4-1.3,0.4c-0.4,0-0.7-0.2-0.9-0.5c-0.3-0.3-0.4-0.7-0.4-1.2c0-0.6,0.3-1.1,0.8-1.5c0.9-0.8,1.9-1.4,3.1-1.8
		c1.2-0.4,2.4-0.7,3.6-0.7c1.3,0,2.4,0.2,3.4,0.7c1,0.4,1.8,1.1,2.3,1.8c0.6,0.8,0.8,1.7,0.8,2.7c0,1.1-0.3,2.1-0.8,2.9
		c-0.5,0.8-1.3,1.7-2.3,2.7c-0.9,0.9-1.5,1.6-2,2.2c-0.4,0.6-0.7,1.3-0.8,2c-0.1,0.3-0.2,0.6-0.4,0.8c-0.2,0.2-0.5,0.3-0.8,0.3
		C51.4,129,51.1,128.8,50.9,128.6z M50.1,134.9c-0.4-0.5-0.7-1-0.7-1.7c0-0.7,0.2-1.2,0.7-1.7c0.4-0.5,1-0.7,1.7-0.7
		s1.2,0.2,1.7,0.7c0.4,0.5,0.7,1,0.7,1.7c0,0.7-0.2,1.2-0.7,1.7c-0.5,0.5-1,0.7-1.7,0.7C51.1,135.6,50.6,135.4,50.1,134.9z"/>
</g>
<g>
	<path class="st0" d="M166,48.1c-0.2-0.3-0.3-0.6-0.3-1c0-1.2,0.2-2.1,0.6-3s1-1.7,1.8-2.6c0.6-0.8,1.1-1.4,1.4-1.9
		c0.3-0.5,0.4-1.1,0.4-1.7c0-0.7-0.3-1.3-0.8-1.7c-0.5-0.4-1.2-0.6-2.1-0.6c-0.8,0-1.5,0.2-2.2,0.5c-0.7,0.3-1.5,0.8-2.4,1.4
		c-0.5,0.3-1,0.4-1.3,0.4c-0.4,0-0.7-0.2-0.9-0.5c-0.3-0.3-0.4-0.7-0.4-1.2c0-0.6,0.3-1.1,0.8-1.5c0.9-0.8,1.9-1.4,3.1-1.8
		c1.2-0.4,2.4-0.7,3.6-0.7c1.3,0,2.4,0.2,3.4,0.7c1,0.4,1.8,1.1,2.3,1.8c0.6,0.8,0.8,1.7,0.8,2.7c0,1.1-0.3,2.1-0.8,2.9
		c-0.5,0.8-1.3,1.7-2.3,2.7c-0.9,0.9-1.5,1.6-2,2.2c-0.4,0.6-0.7,1.3-0.8,2c-0.1,0.3-0.2,0.6-0.4,0.8c-0.2,0.2-0.5,0.3-0.8,0.3
		C166.6,48.5,166.3,48.3,166,48.1z M165.3,54.5c-0.4-0.5-0.7-1-0.7-1.7c0-0.7,0.2-1.2,0.7-1.7c0.4-0.5,1-0.7,1.7-0.7
		s1.2,0.2,1.7,0.7c0.4,0.5,0.7,1,0.7,1.7c0,0.7-0.2,1.2-0.7,1.7c-0.5,0.5-1,0.7-1.7,0.7C166.3,55.1,165.7,54.9,165.3,54.5z"/>
</g>
<g>
	<path class="st0" d="M166,211.4c-0.2-0.3-0.3-0.6-0.3-1c0-1.2,0.2-2.1,0.6-3c0.4-0.8,1-1.7,1.8-2.6c0.6-0.8,1.1-1.4,1.4-1.9
		c0.3-0.5,0.4-1.1,0.4-1.7c0-0.7-0.3-1.3-0.8-1.7c-0.5-0.4-1.2-0.6-2.1-0.6c-0.8,0-1.5,0.2-2.2,0.5c-0.7,0.3-1.5,0.8-2.4,1.4
		c-0.5,0.3-1,0.4-1.3,0.4c-0.4,0-0.7-0.2-0.9-0.5c-0.3-0.3-0.4-0.7-0.4-1.2c0-0.6,0.3-1.1,0.8-1.5c0.9-0.8,1.9-1.4,3.1-1.8
		s2.4-0.7,3.6-0.7c1.3,0,2.4,0.2,3.4,0.7c1,0.4,1.8,1.1,2.3,1.8c0.6,0.8,0.8,1.7,0.8,2.7c0,1.1-0.3,2.1-0.8,2.9s-1.3,1.7-2.3,2.7
		c-0.9,0.9-1.5,1.6-2,2.2c-0.4,0.6-0.7,1.3-0.8,2c-0.1,0.3-0.2,0.6-0.4,0.8s-0.5,0.3-0.8,0.3C166.6,211.8,166.3,211.7,166,211.4z
		 M165.3,217.8c-0.4-0.5-0.7-1-0.7-1.7s0.2-1.2,0.7-1.7s1-0.7,1.7-0.7s1.2,0.2,1.7,0.7c0.4,0.5,0.7,1,0.7,1.7s-0.2,1.2-0.7,1.7
		c-0.5,0.5-1,0.7-1.7,0.7C166.3,218.5,165.7,218.2,165.3,217.8z"/>
</g>
<g>
	<path class="st0" d="M50.9,211.4c-0.2-0.3-0.3-0.6-0.3-1c0-1.2,0.2-2.1,0.6-3c0.4-0.8,1-1.7,1.8-2.6c0.6-0.8,1.1-1.4,1.4-1.9
		s0.4-1.1,0.4-1.7c0-0.7-0.3-1.3-0.8-1.7c-0.5-0.4-1.2-0.6-2.1-0.6c-0.8,0-1.5,0.2-2.2,0.5c-0.7,0.3-1.5,0.8-2.4,1.4
		c-0.5,0.3-1,0.4-1.3,0.4c-0.4,0-0.7-0.2-0.9-0.5c-0.3-0.3-0.4-0.7-0.4-1.2c0-0.6,0.3-1.1,0.8-1.5c0.9-0.8,1.9-1.4,3.1-1.8
		s2.4-0.7,3.6-0.7c1.3,0,2.4,0.2,3.4,0.7c1,0.4,1.8,1.1,2.3,1.8c0.6,0.8,0.8,1.7,0.8,2.7c0,1.1-0.3,2.1-0.8,2.9s-1.3,1.7-2.3,2.7
		c-0.9,0.9-1.5,1.6-2,2.2c-0.4,0.6-0.7,1.3-0.8,2c-0.1,0.3-0.2,0.6-0.4,0.8s-0.5,0.3-0.8,0.3C51.4,211.8,51.1,211.7,50.9,211.4z
		 M50.1,217.8c-0.4-0.5-0.7-1-0.7-1.7s0.2-1.2,0.7-1.7s1-0.7,1.7-0.7s1.2,0.2,1.7,0.7s0.7,1,0.7,1.7s-0.2,1.2-0.7,1.7
		c-0.5,0.5-1,0.7-1.7,0.7C51.1,218.5,50.6,218.2,50.1,217.8z"/>
</g>
<g>
	<path class="st0" d="M50.9,293.4c-0.2-0.3-0.3-0.6-0.3-1c0-1.2,0.2-2.1,0.6-3c0.4-0.8,1-1.7,1.8-2.6c0.6-0.8,1.1-1.4,1.4-1.9
		s0.4-1.1,0.4-1.7c0-0.7-0.3-1.3-0.8-1.7c-0.5-0.4-1.2-0.6-2.1-0.6c-0.8,0-1.5,0.2-2.2,0.5c-0.7,0.3-1.5,0.8-2.4,1.4
		c-0.5,0.3-1,0.4-1.3,0.4c-0.4,0-0.7-0.2-0.9-0.5c-0.3-0.3-0.4-0.7-0.4-1.2c0-0.6,0.3-1.1,0.8-1.5c0.9-0.8,1.9-1.4,3.1-1.8
		s2.4-0.7,3.6-0.7c1.3,0,2.4,0.2,3.4,0.7c1,0.4,1.8,1.1,2.3,1.8c0.6,0.8,0.8,1.7,0.8,2.7c0,1.1-0.3,2.1-0.8,2.9s-1.3,1.7-2.3,2.7
		c-0.9,0.9-1.5,1.6-2,2.2c-0.4,0.6-0.7,1.3-0.8,2c-0.1,0.3-0.2,0.6-0.4,0.8s-0.5,0.3-0.8,0.3C51.4,293.8,51.1,293.7,50.9,293.4z
		 M50.1,299.8c-0.4-0.5-0.7-1-0.7-1.7s0.2-1.2,0.7-1.7s1-0.7,1.7-0.7s1.2,0.2,1.7,0.7s0.7,1,0.7,1.7s-0.2,1.2-0.7,1.7
		c-0.5,0.5-1,0.7-1.7,0.7C51.1,300.5,50.6,300.2,50.1,299.8z"/>
</g>
<g>
	<path class="st0" d="M280.6,293.4c-0.2-0.3-0.3-0.6-0.3-1c0-1.2,0.2-2.1,0.6-3c0.4-0.8,1-1.7,1.8-2.6c0.6-0.8,1.1-1.4,1.4-1.9
		c0.3-0.5,0.4-1.1,0.4-1.7c0-0.7-0.3-1.3-0.8-1.7c-0.5-0.4-1.2-0.6-2.1-0.6c-0.8,0-1.5,0.2-2.2,0.5c-0.7,0.3-1.5,0.8-2.4,1.4
		c-0.5,0.3-1,0.4-1.3,0.4c-0.4,0-0.7-0.2-0.9-0.5s-0.4-0.7-0.4-1.2c0-0.6,0.3-1.1,0.8-1.5c0.9-0.8,1.9-1.4,3.1-1.8s2.4-0.7,3.7-0.7
		c1.3,0,2.4,0.2,3.4,0.7c1,0.4,1.8,1.1,2.3,1.8c0.6,0.8,0.8,1.7,0.8,2.7c0,1.1-0.3,2.1-0.8,2.9s-1.3,1.7-2.3,2.7
		c-0.9,0.9-1.5,1.6-2,2.2c-0.4,0.6-0.7,1.3-0.8,2c-0.1,0.3-0.2,0.6-0.4,0.8c-0.2,0.2-0.5,0.3-0.8,0.3
		C281.1,293.8,280.8,293.7,280.6,293.4z M279.8,299.8c-0.4-0.5-0.7-1-0.7-1.7s0.2-1.2,0.7-1.7s1-0.7,1.7-0.7c0.7,0,1.2,0.2,1.7,0.7
		s0.7,1,0.7,1.7s-0.2,1.2-0.7,1.7c-0.5,0.5-1,0.7-1.7,0.7C280.9,300.5,280.3,300.2,279.8,299.8z"/>
</g>
<g>
	<path class="st0" d="M278.8,211.4c-0.2-0.3-0.3-0.6-0.3-1c0-1.2,0.2-2.1,0.6-3c0.4-0.8,1-1.7,1.8-2.6c0.6-0.8,1.1-1.4,1.4-1.9
		c0.3-0.5,0.4-1.1,0.4-1.7c0-0.7-0.3-1.3-0.8-1.7c-0.5-0.4-1.2-0.6-2.1-0.6c-0.8,0-1.5,0.2-2.2,0.5c-0.7,0.3-1.5,0.8-2.4,1.4
		c-0.5,0.3-1,0.4-1.3,0.4c-0.4,0-0.7-0.2-0.9-0.5s-0.4-0.7-0.4-1.2c0-0.6,0.3-1.1,0.8-1.5c0.9-0.8,1.9-1.4,3.1-1.8s2.4-0.7,3.7-0.7
		c1.3,0,2.4,0.2,3.4,0.7c1,0.4,1.8,1.1,2.3,1.8c0.6,0.8,0.8,1.7,0.8,2.7c0,1.1-0.3,2.1-0.8,2.9s-1.3,1.7-2.3,2.7
		c-0.9,0.9-1.5,1.6-2,2.2c-0.4,0.6-0.7,1.3-0.8,2c-0.1,0.3-0.2,0.6-0.4,0.8c-0.2,0.2-0.5,0.3-0.8,0.3
		C279.3,211.8,279,211.7,278.8,211.4z M278.1,217.8c-0.4-0.5-0.7-1-0.7-1.7s0.2-1.2,0.7-1.7s1-0.7,1.7-0.7c0.7,0,1.2,0.2,1.7,0.7
		s0.7,1,0.7,1.7s-0.2,1.2-0.7,1.7c-0.5,0.5-1,0.7-1.7,0.7C279.1,218.5,278.5,218.2,278.1,217.8z"/>
</g>
<g>
	<path class="st0" d="M173.6,290.8c0.7,1,1.1,2.1,1.1,3.5c0,2-0.7,3.5-2.2,4.6c-1.5,1.1-3.5,1.7-6.2,1.7s-4.7-0.6-6.2-1.7
		c-1.5-1.1-2.2-2.7-2.2-4.6c0-1.4,0.4-2.5,1.1-3.5c0.7-1,1.7-1.6,3-2c-1.1-0.4-2-1.1-2.6-2s-1-2-1-3.2c0-1.9,0.7-3.3,2.1-4.4
		s3.3-1.6,5.7-1.6s4.3,0.5,5.7,1.6s2.1,2.5,2.1,4.4c0,1.2-0.3,2.3-1,3.2c-0.6,0.9-1.5,1.6-2.6,1.9
		C171.8,289.2,172.8,289.8,173.6,290.8z M170.8,293.9c0-2.3-1.5-3.4-4.5-3.4s-4.5,1.1-4.5,3.4c0,2.3,1.5,3.4,4.5,3.4
		S170.8,296.2,170.8,293.9z M162.3,284.1c0,1.1,0.3,1.9,1,2.5s1.7,0.8,3,0.8s2.3-0.3,3-0.8s1-1.4,1-2.5c0-2.2-1.3-3.2-4-3.2
		S162.3,281.9,162.3,284.1z"/>
</g>
<g>
	<circle class="st1" cx="281.8" cy="40.2" r="26.9"/>
</g>
<rect x="255.3" y="252.7" transform="matrix(-1.836970e-16 1 -1 -1.836970e-16 568.2652 8.2433)" class="st2" width="49.4" height="71.1"/>
<g>
	<path class="st3" d="M181.1,68.8h-27.4c-7.2,0-13.1-5.9-13.1-13.1V28.2c0-7.2,5.9-13.1,13.1-13.1h27.4c7.2,0,13.1,5.9,13.1,13.1
		v27.4C194.2,62.9,188.3,68.8,181.1,68.8z"/>
</g>
<g>
	<path class="st3" d="M181.1,232h-27.4c-7.2,0-13.1-5.9-13.1-13.1v-27.4c0-7.2,5.9-13.1,13.1-13.1h27.4c7.2,0,13.1,5.9,13.1,13.1
		v27.4C194.2,226.1,188.3,232,181.1,232z"/>
</g>
<g>
	<circle class="st1" cx="281.8" cy="123.4" r="26.9"/>
</g>
<rect x="26.3" y="263.7" transform="matrix(-0.7071 0.7071 -0.7071 -0.7071 293.5052 457.2014)" class="st4" width="51.4" height="51.4"/>
<rect x="255.1" y="179.5" transform="matrix(-0.7071 0.7071 -0.7071 -0.7071 624.4855 151.7146)" class="st4" width="51.4" height="51.4"/>
<g>
	<polygon class="st5" points="67.7,97.9 36.4,97.9 20.7,125 36.4,152.1 67.7,152.1 83.4,125 	"/>
</g>
<g>
	<polygon class="st5" points="67.7,180 36.4,180 20.7,207.1 36.4,234.3 67.7,234.3 83.4,207.1 	"/>
</g>
<g>
	<circle class="st1" cx="50.9" cy="42.9" r="26.9"/>
</g>
<g>
	<circle class="st1" cx="166.2" cy="123.4" r="26.9"/>
</g>
<g>
	<circle class="st1" cx="166.2" cy="288.3" r="26.9"/>
</g>
<g>
	<g>
		<g>
			<path class="st2" d="M99.3,44.5v-5.1h22.4v5.1H99.3z"/>
		</g>
	</g>
</g>
<g>
	<g>
		<g>
			<path class="st2" d="M99.3,127v-5.1h22.4v5.1H99.3z"/>
		</g>
	</g>
</g>
<g>
	<g>
		<g>
			<path class="st2" d="M99.3,209.5v-5.1h22.4v5.1H99.3z"/>
		</g>
	</g>
</g>
<g>
	<g>
		<g>
			<path class="st2" d="M99.3,291v-5.1h22.4v5.1H99.3z"/>
		</g>
	</g>
</g>
<g>
	<g>
		<path class="st2" d="M208.5,205.6v-5.2h22.4v5.2H208.5z M208.5,213.5v-5.2h22.4v5.2H208.5z"/>
	</g>
</g>
<g>
	<g>
		<path class="st2" d="M208.5,285.5v-5.2h22.4v5.2H208.5z M208.5,293.4v-5.2h22.4v5.2H208.5z"/>
	</g>
</g>
<g>
	<g>
		<path class="st2" d="M208.5,122.2V117h22.4v5.2H208.5z M208.5,130v-5.2h22.4v5.2H208.5z"/>
	</g>
</g>
<g>
	<g>
		<path class="st2" d="M208.5,40.6v-5.2h22.4v5.2H208.5z M208.5,48.4v-5.2h22.4v5.2H208.5z"/>
	</g>
</g>
<g>
	<path class="st6" d="M279.2,42.7c0.7,0.9,1.1,2.1,1.1,3.5c0,1.9-0.7,3.5-2.1,4.6c-1.4,1.1-3.3,1.7-5.7,1.7c-1.4,0-2.7-0.2-4-0.6
		s-2.3-1-3.2-1.8c-0.5-0.4-0.7-0.9-0.7-1.5c0-0.5,0.1-0.9,0.4-1.2c0.3-0.3,0.6-0.5,0.9-0.5c0.2,0,0.4,0,0.6,0.1
		c0.2,0.1,0.4,0.2,0.7,0.4c0.9,0.6,1.7,1,2.5,1.4c0.8,0.3,1.7,0.5,2.6,0.5c1.4,0,2.4-0.3,3.1-0.8c0.7-0.6,1-1.4,1-2.6
		c0-1.1-0.4-2-1.1-2.5s-1.8-0.8-3.3-0.8h-1.8c-0.5,0-0.9-0.2-1.1-0.5c-0.3-0.3-0.4-0.7-0.4-1.1c0-0.4,0.1-0.8,0.4-1.1
		c0.3-0.3,0.6-0.5,1.1-0.5h1.3c2.9,0,4.3-1.1,4.3-3.3c0-1-0.3-1.8-0.9-2.3c-0.6-0.5-1.5-0.8-2.5-0.8c-1.5,0-3.2,0.6-5,1.8
		c-0.3,0.2-0.5,0.3-0.7,0.4c-0.2,0.1-0.4,0.1-0.6,0.1c-0.4,0-0.7-0.2-0.9-0.5c-0.3-0.3-0.4-0.7-0.4-1.2c0-0.3,0.1-0.6,0.2-0.8
		s0.3-0.4,0.6-0.7c0.9-0.7,2-1.3,3.2-1.8c1.2-0.4,2.5-0.7,3.8-0.7c2.2,0,4,0.5,5.3,1.6c1.3,1.1,2,2.5,2,4.3c0,1.2-0.3,2.3-1,3.2
		s-1.5,1.6-2.6,2C277.4,41.1,278.5,41.7,279.2,42.7z"/>
	<path class="st6" d="M299.5,45.1c0.3,0.3,0.5,0.7,0.5,1.2c0,1.1-0.6,1.6-1.9,1.6h-1.6v2.5c0,0.7-0.2,1.2-0.6,1.5s-0.9,0.5-1.4,0.5
		c-0.6,0-1.1-0.2-1.4-0.5s-0.6-0.9-0.6-1.5v-2.5h-8.3c-0.6,0-1-0.2-1.3-0.5c-0.3-0.3-0.5-0.7-0.5-1.2c0-0.5,0.2-1,0.5-1.5l9.8-14.1
		c0.2-0.3,0.5-0.5,0.8-0.7s0.6-0.2,1-0.2c0.5,0,1,0.2,1.4,0.5c0.4,0.4,0.6,0.9,0.6,1.5v12.9h1.6C298.7,44.7,299.2,44.8,299.5,45.1z
		 M286.5,44.7h5.9v-8.5L286.5,44.7z"/>
</g>
<g>
	<path class="st6" d="M281,133.8c0,1.1-0.6,1.7-1.9,1.7h-10.7c-1.3,0-1.9-0.6-1.9-1.7c0-1.1,0.6-1.6,1.9-1.6h3.3v-14.5l-3,1.9
		c-0.3,0.2-0.6,0.3-0.8,0.3c-0.4,0-0.8-0.2-1.1-0.6s-0.5-0.8-0.5-1.3c0-0.6,0.3-1.1,0.8-1.4l4.9-3c0.6-0.4,1.2-0.6,1.8-0.6
		c0.6,0,1.1,0.2,1.4,0.5c0.4,0.4,0.5,0.9,0.5,1.5v17.2h3.3C280.3,132.1,281,132.7,281,133.8z"/>
	<path class="st6" d="M298.2,125.9c0.7,1,1.1,2.1,1.1,3.5c0,2-0.7,3.5-2.2,4.6s-3.5,1.7-6.2,1.7c-2.6,0-4.7-0.6-6.2-1.7
		c-1.5-1.1-2.2-2.6-2.2-4.6c0-1.4,0.4-2.5,1.1-3.5c0.7-1,1.7-1.6,3-2c-1.1-0.4-2-1.1-2.6-2c-0.6-0.9-1-2-1-3.2
		c0-1.9,0.7-3.3,2.1-4.4s3.3-1.6,5.7-1.6c2.4,0,4.3,0.5,5.7,1.6s2.1,2.6,2.1,4.4c0,1.2-0.3,2.3-1,3.2s-1.5,1.6-2.6,1.9
		C296.5,124.3,297.5,125,298.2,125.9z M295.5,129.1c0-2.3-1.5-3.4-4.5-3.4c-3,0-4.5,1.1-4.5,3.4s1.5,3.4,4.5,3.4
		C293.9,132.5,295.5,131.4,295.5,129.1z M287,119.2c0,1.1,0.3,1.9,1,2.5c0.7,0.6,1.7,0.8,3,0.8c1.3,0,2.3-0.3,3-0.8
		c0.7-0.6,1-1.4,1-2.5c0-2.2-1.3-3.2-4-3.2C288.3,116,287,117.1,287,119.2z"/>
</g>
<g>
	<path class="st6" d="M50.4,47.8c0.3,0.3,0.5,0.7,0.5,1.2c0,1.1-0.6,1.6-1.9,1.6h-1.6v2.5c0,0.7-0.2,1.2-0.6,1.5
		c-0.4,0.4-0.9,0.5-1.4,0.5s-1.1-0.2-1.4-0.5c-0.4-0.4-0.6-0.9-0.6-1.5v-2.5H35c-0.6,0-1-0.2-1.3-0.5c-0.3-0.3-0.5-0.7-0.5-1.2
		c0-0.5,0.2-1,0.5-1.5l9.8-14.1c0.2-0.3,0.5-0.5,0.8-0.7s0.6-0.2,1-0.2c0.6,0,1,0.2,1.4,0.5c0.4,0.4,0.6,0.9,0.6,1.5v12.9h1.6
		C49.6,47.4,50.1,47.5,50.4,47.8z M37.4,47.4h5.9v-8.5L37.4,47.4z"/>
	<path class="st6" d="M68.3,53.3c0,1.1-0.6,1.7-1.9,1.7H55.7c-1.3,0-1.9-0.6-1.9-1.7c0-1.1,0.6-1.6,1.9-1.6H59V37.2L56,39
		c-0.3,0.2-0.6,0.3-0.8,0.3c-0.4,0-0.8-0.2-1.1-0.6c-0.3-0.4-0.5-0.8-0.5-1.3c0-0.6,0.3-1.1,0.8-1.4l4.9-3c0.6-0.4,1.2-0.6,1.8-0.6
		c0.6,0,1.1,0.2,1.4,0.5c0.4,0.4,0.5,0.9,0.5,1.5v17.2h3.3C67.7,51.6,68.3,52.2,68.3,53.3z"/>
</g>
<g>
	<path class="st6" d="M171.1,122c1.1,0.6,1.9,1.4,2.5,2.5c0.6,1.1,0.9,2.3,0.9,3.7c0,1.5-0.3,2.8-1,3.9c-0.7,1.1-1.6,2-2.8,2.6
		c-1.2,0.6-2.6,0.9-4.2,0.9c-1.3,0-2.6-0.2-3.9-0.7c-1.3-0.4-2.3-1-3.2-1.8c-0.5-0.4-0.7-0.9-0.7-1.5c0-0.5,0.1-0.9,0.4-1.2
		c0.3-0.3,0.6-0.5,0.9-0.5c0.2,0,0.4,0,0.6,0.1c0.2,0.1,0.4,0.2,0.7,0.4c0.8,0.6,1.7,1,2.5,1.4s1.7,0.5,2.6,0.5c1.4,0,2.5-0.3,3.2-1
		c0.7-0.7,1.1-1.7,1.1-3c0-1.2-0.4-2.2-1.1-3c-0.8-0.7-1.8-1.1-3.1-1.1c-0.8,0-1.6,0.1-2.2,0.3c-0.6,0.2-1.3,0.6-2,1.2
		c-0.4,0.3-0.8,0.4-1.2,0.4c-0.4,0-0.8-0.1-1.1-0.4c-0.3-0.3-0.4-0.6-0.4-1V115c0-0.6,0.2-1.1,0.5-1.4c0.3-0.3,0.8-0.5,1.4-0.5H172
		c1.3,0,1.9,0.5,1.9,1.6c0,1.1-0.6,1.6-1.9,1.6h-8.5v6c1.1-0.8,2.4-1.1,4-1.1C168.8,121.1,170,121.4,171.1,122z"/>
</g>
<g>
	<path class="st6" d="M50.9,128.6c-0.2-0.3-0.3-0.6-0.3-1c0-1.2,0.2-2.1,0.6-3s1-1.7,1.8-2.6c0.6-0.8,1.1-1.4,1.4-1.9
		s0.4-1.1,0.4-1.7c0-0.7-0.3-1.3-0.8-1.7c-0.5-0.4-1.2-0.6-2.1-0.6c-0.8,0-1.5,0.2-2.2,0.5c-0.7,0.3-1.5,0.8-2.4,1.4
		c-0.5,0.3-1,0.4-1.3,0.4c-0.4,0-0.7-0.2-0.9-0.5c-0.3-0.3-0.4-0.7-0.4-1.2c0-0.6,0.3-1.1,0.8-1.5c0.9-0.8,1.9-1.4,3.1-1.8
		c1.2-0.4,2.4-0.7,3.6-0.7c1.3,0,2.4,0.2,3.4,0.7c1,0.4,1.8,1.1,2.3,1.8c0.6,0.8,0.8,1.7,0.8,2.7c0,1.1-0.3,2.1-0.8,2.9
		c-0.5,0.8-1.3,1.7-2.3,2.7c-0.9,0.9-1.5,1.6-2,2.2c-0.4,0.6-0.7,1.3-0.8,2c-0.1,0.3-0.2,0.6-0.4,0.8c-0.2,0.2-0.5,0.3-0.8,0.3
		C51.4,129,51.1,128.8,50.9,128.6z M50.1,134.9c-0.4-0.5-0.7-1-0.7-1.7c0-0.7,0.2-1.2,0.7-1.7c0.4-0.5,1-0.7,1.7-0.7
		s1.2,0.2,1.7,0.7c0.4,0.5,0.7,1,0.7,1.7c0,0.7-0.2,1.2-0.7,1.7c-0.5,0.5-1,0.7-1.7,0.7C51.1,135.6,50.6,135.4,50.1,134.9z"/>
</g>
<g>
	<path class="st6" d="M166,48.1c-0.2-0.3-0.3-0.6-0.3-1c0-1.2,0.2-2.1,0.6-3s1-1.7,1.8-2.6c0.6-0.8,1.1-1.4,1.4-1.9
		c0.3-0.5,0.4-1.1,0.4-1.7c0-0.7-0.3-1.3-0.8-1.7c-0.5-0.4-1.2-0.6-2.1-0.6c-0.8,0-1.5,0.2-2.2,0.5c-0.7,0.3-1.5,0.8-2.4,1.4
		c-0.5,0.3-1,0.4-1.3,0.4c-0.4,0-0.7-0.2-0.9-0.5c-0.3-0.3-0.4-0.7-0.4-1.2c0-0.6,0.3-1.1,0.8-1.5c0.9-0.8,1.9-1.4,3.1-1.8
		c1.2-0.4,2.4-0.7,3.6-0.7c1.3,0,2.4,0.2,3.4,0.7c1,0.4,1.8,1.1,2.3,1.8c0.6,0.8,0.8,1.7,0.8,2.7c0,1.1-0.3,2.1-0.8,2.9
		c-0.5,0.8-1.3,1.7-2.3,2.7c-0.9,0.9-1.5,1.6-2,2.2c-0.4,0.6-0.7,1.3-0.8,2c-0.1,0.3-0.2,0.6-0.4,0.8c-0.2,0.2-0.5,0.3-0.8,0.3
		C166.6,48.5,166.3,48.3,166,48.1z M165.3,54.5c-0.4-0.5-0.7-1-0.7-1.7c0-0.7,0.2-1.2,0.7-1.7c0.4-0.5,1-0.7,1.7-0.7
		s1.2,0.2,1.7,0.7c0.4,0.5,0.7,1,0.7,1.7c0,0.7-0.2,1.2-0.7,1.7c-0.5,0.5-1,0.7-1.7,0.7C166.3,55.1,165.7,54.9,165.3,54.5z"/>
</g>
<g>
	<path class="st6" d="M166,211.4c-0.2-0.3-0.3-0.6-0.3-1c0-1.2,0.2-2.1,0.6-3c0.4-0.8,1-1.7,1.8-2.6c0.6-0.8,1.1-1.4,1.4-1.9
		c0.3-0.5,0.4-1.1,0.4-1.7c0-0.7-0.3-1.3-0.8-1.7c-0.5-0.4-1.2-0.6-2.1-0.6c-0.8,0-1.5,0.2-2.2,0.5c-0.7,0.3-1.5,0.8-2.4,1.4
		c-0.5,0.3-1,0.4-1.3,0.4c-0.4,0-0.7-0.2-0.9-0.5c-0.3-0.3-0.4-0.7-0.4-1.2c0-0.6,0.3-1.1,0.8-1.5c0.9-0.8,1.9-1.4,3.1-1.8
		s2.4-0.7,3.6-0.7c1.3,0,2.4,0.2,3.4,0.7c1,0.4,1.8,1.1,2.3,1.8c0.6,0.8,0.8,1.7,0.8,2.7c0,1.1-0.3,2.1-0.8,2.9s-1.3,1.7-2.3,2.7
		c-0.9,0.9-1.5,1.6-2,2.2c-0.4,0.6-0.7,1.3-0.8,2c-0.1,0.3-0.2,0.6-0.4,0.8s-0.5,0.3-0.8,0.3C166.6,211.8,166.3,211.7,166,211.4z
		 M165.3,217.8c-0.4-0.5-0.7-1-0.7-1.7s0.2-1.2,0.7-1.7s1-0.7,1.7-0.7s1.2,0.2,1.7,0.7c0.4,0.5,0.7,1,0.7,1.7s-0.2,1.2-0.7,1.7
		c-0.5,0.5-1,0.7-1.7,0.7C166.3,218.5,165.7,218.2,165.3,217.8z"/>
</g>
<g>
	<path class="st6" d="M50.9,211.4c-0.2-0.3-0.3-0.6-0.3-1c0-1.2,0.2-2.1,0.6-3c0.4-0.8,1-1.7,1.8-2.6c0.6-0.8,1.1-1.4,1.4-1.9
		s0.4-1.1,0.4-1.7c0-0.7-0.3-1.3-0.8-1.7c-0.5-0.4-1.2-0.6-2.1-0.6c-0.8,0-1.5,0.2-2.2,0.5c-0.7,0.3-1.5,0.8-2.4,1.4
		c-0.5,0.3-1,0.4-1.3,0.4c-0.4,0-0.7-0.2-0.9-0.5c-0.3-0.3-0.4-0.7-0.4-1.2c0-0.6,0.3-1.1,0.8-1.5c0.9-0.8,1.9-1.4,3.1-1.8
		s2.4-0.7,3.6-0.7c1.3,0,2.4,0.2,3.4,0.7c1,0.4,1.8,1.1,2.3,1.8c0.6,0.8,0.8,1.7,0.8,2.7c0,1.1-0.3,2.1-0.8,2.9s-1.3,1.7-2.3,2.7
		c-0.9,0.9-1.5,1.6-2,2.2c-0.4,0.6-0.7,1.3-0.8,2c-0.1,0.3-0.2,0.6-0.4,0.8s-0.5,0.3-0.8,0.3C51.4,211.8,51.1,211.7,50.9,211.4z
		 M50.1,217.8c-0.4-0.5-0.7-1-0.7-1.7s0.2-1.2,0.7-1.7s1-0.7,1.7-0.7s1.2,0.2,1.7,0.7s0.7,1,0.7,1.7s-0.2,1.2-0.7,1.7
		c-0.5,0.5-1,0.7-1.7,0.7C51.1,218.5,50.6,218.2,50.1,217.8z"/>
</g>
<g>
	<path class="st6" d="M50.9,293.4c-0.2-0.3-0.3-0.6-0.3-1c0-1.2,0.2-2.1,0.6-3c0.4-0.8,1-1.7,1.8-2.6c0.6-0.8,1.1-1.4,1.4-1.9
		s0.4-1.1,0.4-1.7c0-0.7-0.3-1.3-0.8-1.7c-0.5-0.4-1.2-0.6-2.1-0.6c-0.8,0-1.5,0.2-2.2,0.5c-0.7,0.3-1.5,0.8-2.4,1.4
		c-0.5,0.3-1,0.4-1.3,0.4c-0.4,0-0.7-0.2-0.9-0.5c-0.3-0.3-0.4-0.7-0.4-1.2c0-0.6,0.3-1.1,0.8-1.5c0.9-0.8,1.9-1.4,3.1-1.8
		s2.4-0.7,3.6-0.7c1.3,0,2.4,0.2,3.4,0.7c1,0.4,1.8,1.1,2.3,1.8c0.6,0.8,0.8,1.7,0.8,2.7c0,1.1-0.3,2.1-0.8,2.9s-1.3,1.7-2.3,2.7
		c-0.9,0.9-1.5,1.6-2,2.2c-0.4,0.6-0.7,1.3-0.8,2c-0.1,0.3-0.2,0.6-0.4,0.8s-0.5,0.3-0.8,0.3C51.4,293.8,51.1,293.7,50.9,293.4z
		 M50.1,299.8c-0.4-0.5-0.7-1-0.7-1.7s0.2-1.2,0.7-1.7s1-0.7,1.7-0.7s1.2,0.2,1.7,0.7s0.7,1,0.7,1.7s-0.2,1.2-0.7,1.7
		c-0.5,0.5-1,0.7-1.7,0.7C51.1,300.5,50.6,300.2,50.1,299.8z"/>
</g>
<g>
	<path class="st6" d="M280.6,293.4c-0.2-0.3-0.3-0.6-0.3-1c0-1.2,0.2-2.1,0.6-3c0.4-0.8,1-1.7,1.8-2.6c0.6-0.8,1.1-1.4,1.4-1.9
		c0.3-0.5,0.4-1.1,0.4-1.7c0-0.7-0.3-1.3-0.8-1.7c-0.5-0.4-1.2-0.6-2.1-0.6c-0.8,0-1.5,0.2-2.2,0.5c-0.7,0.3-1.5,0.8-2.4,1.4
		c-0.5,0.3-1,0.4-1.3,0.4c-0.4,0-0.7-0.2-0.9-0.5s-0.4-0.7-0.4-1.2c0-0.6,0.3-1.1,0.8-1.5c0.9-0.8,1.9-1.4,3.1-1.8s2.4-0.7,3.7-0.7
		c1.3,0,2.4,0.2,3.4,0.7c1,0.4,1.8,1.1,2.3,1.8c0.6,0.8,0.8,1.7,0.8,2.7c0,1.1-0.3,2.1-0.8,2.9s-1.3,1.7-2.3,2.7
		c-0.9,0.9-1.5,1.6-2,2.2c-0.4,0.6-0.7,1.3-0.8,2c-0.1,0.3-0.2,0.6-0.4,0.8c-0.2,0.2-0.5,0.3-0.8,0.3
		C281.1,293.8,280.8,293.7,280.6,293.4z M279.8,299.8c-0.4-0.5-0.7-1-0.7-1.7s0.2-1.2,0.7-1.7s1-0.7,1.7-0.7c0.7,0,1.2,0.2,1.7,0.7
		s0.7,1,0.7,1.7s-0.2,1.2-0.7,1.7c-0.5,0.5-1,0.7-1.7,0.7C280.9,300.5,280.3,300.2,279.8,299.8z"/>
</g>
<g>
	<path class="st6" d="M278.8,211.4c-0.2-0.3-0.3-0.6-0.3-1c0-1.2,0.2-2.1,0.6-3c0.4-0.8,1-1.7,1.8-2.6c0.6-0.8,1.1-1.4,1.4-1.9
		c0.3-0.5,0.4-1.1,0.4-1.7c0-0.7-0.3-1.3-0.8-1.7c-0.5-0.4-1.2-0.6-2.1-0.6c-0.8,0-1.5,0.2-2.2,0.5c-0.7,0.3-1.5,0.8-2.4,1.4
		c-0.5,0.3-1,0.4-1.3,0.4c-0.4,0-0.7-0.2-0.9-0.5s-0.4-0.7-0.4-1.2c0-0.6,0.3-1.1,0.8-1.5c0.9-0.8,1.9-1.4,3.1-1.8s2.4-0.7,3.7-0.7
		c1.3,0,2.4,0.2,3.4,0.7c1,0.4,1.8,1.1,2.3,1.8c0.6,0.8,0.8,1.7,0.8,2.7c0,1.1-0.3,2.1-0.8,2.9s-1.3,1.7-2.3,2.7
		c-0.9,0.9-1.5,1.6-2,2.2c-0.4,0.6-0.7,1.3-0.8,2c-0.1,0.3-0.2,0.6-0.4,0.8c-0.2,0.2-0.5,0.3-0.8,0.3
		C279.3,211.8,279,211.7,278.8,211.4z M278.1,217.8c-0.4-0.5-0.7-1-0.7-1.7s0.2-1.2,0.7-1.7s1-0.7,1.7-0.7c0.7,0,1.2,0.2,1.7,0.7
		s0.7,1,0.7,1.7s-0.2,1.2-0.7,1.7c-0.5,0.5-1,0.7-1.7,0.7C279.1,218.5,278.5,218.2,278.1,217.8z"/>
</g>
<g>
	<path class="st6" d="M173.6,290.8c0.7,1,1.1,2.1,1.1,3.5c0,2-0.7,3.5-2.2,4.6c-1.5,1.1-3.5,1.7-6.2,1.7s-4.7-0.6-6.2-1.7
		c-1.5-1.1-2.2-2.7-2.2-4.6c0-1.4,0.4-2.5,1.1-3.5c0.7-1,1.7-1.6,3-2c-1.1-0.4-2-1.1-2.6-2s-1-2-1-3.2c0-1.9,0.7-3.3,2.1-4.4
		s3.3-1.6,5.7-1.6s4.3,0.5,5.7,1.6s2.1,2.5,2.1,4.4c0,1.2-0.3,2.3-1,3.2c-0.6,0.9-1.5,1.6-2.6,1.9
		C171.8,289.2,172.8,289.8,173.6,290.8z M170.8,293.9c0-2.3-1.5-3.4-4.5-3.4s-4.5,1.1-4.5,3.4c0,2.3,1.5,3.4,4.5,3.4
		S170.8,296.2,170.8,293.9z M162.3,284.1c0,1.1,0.3,1.9,1,2.5s1.7,0.8,3,0.8s2.3-0.3,3-0.8s1-1.4,1-2.5c0-2.2-1.3-3.2-4-3.2
		S162.3,281.9,162.3,284.1z"/>
</g>
</svg>
