<?xml version="1.0" encoding="utf-8"?>
<!-- Generator: Adobe Illustrator 22.1.0, SVG Export Plug-In . SVG Version: 6.00 Build 0)  -->
<svg version="1.1" id="Layer_1" xmlns="http://www.w3.org/2000/svg" xmlns:xlink="http://www.w3.org/1999/xlink" x="0px" y="0px"
	 viewBox="0 0 336.7 293.7" style="enable-background:new 0 0 336.7 293.7;" xml:space="preserve">
<style type="text/css">
	.st0{fill:#00CDC8;}
	.st1{fill:#FFFFFF;}
</style>
<rect x="103.6" y="242.2" class="st0" width="35.5" height="29.5"/>
<g>
	<path class="st1" d="M119,258c0.5,0.7,0.8,1.6,0.8,2.7c0,1.5-0.5,2.7-1.6,3.5c-1.1,0.9-2.6,1.3-4.4,1.3c-1.1,0-2.1-0.2-3-0.5
		s-1.8-0.8-2.5-1.4c-0.4-0.3-0.6-0.7-0.6-1.1c0-0.4,0.1-0.7,0.3-0.9c0.2-0.3,0.4-0.4,0.7-0.4c0.2,0,0.3,0,0.4,0.1
		c0.1,0.1,0.3,0.2,0.5,0.3c0.7,0.5,1.3,0.8,1.9,1c0.6,0.2,1.3,0.4,2,0.4c1.1,0,1.9-0.2,2.4-0.6c0.5-0.4,0.8-1.1,0.8-2
		c0-0.9-0.3-1.5-0.8-1.9s-1.4-0.6-2.5-0.6h-1.4c-0.4,0-0.7-0.1-0.9-0.4c-0.2-0.3-0.3-0.5-0.3-0.9c0-0.3,0.1-0.6,0.3-0.9
		c0.2-0.2,0.5-0.4,0.9-0.4h1c2.2,0,3.3-0.8,3.3-2.5c0-0.8-0.2-1.4-0.7-1.8c-0.5-0.4-1.1-0.6-1.9-0.6c-1.2,0-2.5,0.5-3.8,1.4
		c-0.2,0.1-0.4,0.2-0.5,0.3s-0.3,0.1-0.4,0.1c-0.3,0-0.5-0.1-0.7-0.4c-0.2-0.3-0.3-0.6-0.3-0.9c0-0.2,0-0.5,0.1-0.6s0.2-0.3,0.4-0.5
		c0.7-0.6,1.5-1,2.4-1.4s1.9-0.5,2.9-0.5c1.7,0,3,0.4,4,1.2s1.5,1.9,1.5,3.3c0,0.9-0.3,1.8-0.7,2.5c-0.5,0.7-1.1,1.2-2,1.5
		C117.7,256.8,118.4,257.3,119,258z"/>
	<path class="st1" d="M134.9,264.1c0,0.9-0.5,1.3-1.5,1.3h-9.2c-0.4,0-0.8-0.1-1-0.4c-0.2-0.2-0.4-0.6-0.4-0.9
		c0-0.5,0.2-0.9,0.6-1.3l5.5-6c0.7-0.7,1.2-1.4,1.5-2.1c0.3-0.6,0.5-1.2,0.5-1.9c0-0.8-0.2-1.3-0.7-1.8c-0.4-0.4-1.1-0.6-1.9-0.6
		c-0.7,0-1.3,0.1-1.9,0.4s-1.3,0.6-1.9,1c-0.2,0.1-0.3,0.2-0.5,0.3c-0.2,0.1-0.3,0.1-0.5,0.1c-0.3,0-0.5-0.1-0.7-0.4
		c-0.2-0.3-0.3-0.6-0.3-0.9c0-0.2,0-0.5,0.1-0.6c0.1-0.2,0.2-0.3,0.4-0.5c0.7-0.6,1.5-1,2.5-1.4c1-0.3,1.9-0.5,2.9-0.5
		c1.7,0,3,0.4,4,1.3s1.5,2,1.5,3.4c0,1-0.2,1.9-0.6,2.8s-1.1,1.8-2.1,2.9l-4.2,4.5h6.4C134.4,262.8,134.9,263.2,134.9,264.1z"/>
</g>
</svg>
