<?xml version="1.0" encoding="utf-8"?>
<!-- Generator: Adobe Illustrator 22.1.0, SVG Export Plug-In . SVG Version: 6.00 Build 0)  -->
<svg version="1.1" id="Layer_1" xmlns="http://www.w3.org/2000/svg" xmlns:xlink="http://www.w3.org/1999/xlink" x="0px" y="0px"
	 viewBox="0 0 336.7 293.7" style="enable-background:new 0 0 336.7 293.7;" xml:space="preserve">
<style type="text/css">
	.st0{fill:#FFFFFF;}
	.st1{fill:none;stroke:#000000;stroke-width:4.7134;stroke-linecap:round;stroke-linejoin:round;stroke-miterlimit:10;}
	.st2{fill:#00CDC8;}
	.st3{enable-background:new    ;}
	.st4{fill:#F24044;}
	.st5{fill:#DB2E37;}
	.st6{fill:#FFDB57;}
	.st7{fill:#F5BA3D;}
	.st8{fill:#EF9325;}
	.st9{fill:#00A39B;}
</style>
<g>
	<g>
		<path class="st0" d="M52.5,278.2c-3.6,0-6.6-3-6.6-6.6v-67.4h-0.5c-3.6,0-6.6-3-6.6-6.6v-16.3c0-3.6,3-6.6,6.6-6.6h12.3
			c0.1-0.9,0.3-1.8,0.6-2.7c0.1-0.3,0.2-0.5,0.3-0.8c0.1-0.2,0.2-0.4,0.4-0.8c0.1-0.4,0.3-0.8,0.4-1.2c1.6-4.1,4-8,6.5-10.5
			c1.7-1.7,4-2.7,6.5-2.7c0,0,0.1,0,0.1,0c5.1,0.1,11.1,4.1,19.5,12.9h8c10.9-11.4,16.4-12.9,19.6-13c0,0,0.1,0,0.1,0
			c2.5,0,4.8,0.9,6.5,2.7c0,0,0.1,0.1,0.1,0.1c2.6,2.7,5,6.5,6.5,10.5c0.7,1.8,1.2,3.7,1.5,5.5h12.3c1.9,0,3.7,0.8,5,2.2
			c1.1,1.3,1.7,2.9,1.6,4.6v16.1c0,3.6-3,6.6-6.6,6.6h-0.4c0,0.3,0,0.6-0.1,0.9v11.4c3.6-1.6,7.2-2.8,10.8-3.6
			c0.7-1.2,1.7-2.3,2.8-3.2l20.7-16.3c1.9-1.6,4.5-2.5,7.1-2.5c0.7,0,1.3,0.1,2,0.2c0,0,66.6,12.8,66.6,12.8c3,0.5,5.6,2.2,7.3,4.7
			c1.7,2.5,2.3,5.7,1.7,8.6l-7.5,39c-0.9,5.3-5.6,9.2-11,9.2c0,0,0,0,0,0c-0.8,0-1.5-0.1-2.3-0.2c0,0-66.5-12.7-66.6-12.7
			c-3.1-0.7-5.7-2.6-7.5-5.3c0,0-11.3-19.5-11.3-19.5c-4.2,1.1-8.5,2.9-12.6,5.5v6.2c0,0.3,0,0.6-0.1,1v31.3c0,3.6-3,6.6-6.6,6.6
			H52.5z"/>
		<path class="st0" d="M119.7,161c1.2,0,2.2,0.4,3,1.2c2.1,2.2,4.1,5.4,5.4,8.8c0.6,1.7,1,3.2,1.2,4.7c0,0.2,0.1,0.4,0.1,0.6
			c0,0.1,0,0.2,0,0.3c0,0.3,0,0.6,0,0.9c0,0.1,0,0.3,0,0.4c0,0.2,0,0.4,0,0.6c0,0.4-0.1,0.8-0.2,1.2h17.3c1,0,1.7,0.7,1.6,1.6v16.3
			c0,0.9-0.7,1.6-1.6,1.6h-5.4v4.9H141v20.7c7.1-4.4,13.7-6.6,19.4-7.5c0.3-1.4,1.1-2.8,2.3-3.7l20.7-16.3c1.1-0.9,2.5-1.4,4-1.4
			c0.4,0,0.8,0,1.1,0.1l66.5,12.8c3.5,0.6,5.7,4,5,7.4l-7.5,39.1c-0.5,3.1-3.2,5.1-6.1,5.1c-0.4,0-0.8,0-1.3-0.1l-66.5-12.7
			c-1.8-0.4-3.3-1.5-4.3-3.1l-13-22.5c-0.7,0.1-1.5,0.2-2.3,0.4c0,0,0,0,0,0c-5.3,1.2-11.4,3.6-18,8.1v0.2c0.1,0.1,0.1,0.1,0.1,0.2
			v8.4c0,0.1,0,0.2-0.1,0.2v32.1c0,0.9-0.7,1.6-1.6,1.6h-39H92H52.5c-0.9,0-1.6-0.7-1.6-1.6v-32.3v-8.4v-26.8v-4.9h-5.5
			c-0.9,0-1.6-0.7-1.6-1.6v-16.3c0-0.9,0.7-1.6,1.6-1.6h17.3c-0.4-1.8-0.3-4,0.4-6.4c0.1-0.2,0.1-0.3,0.2-0.4c0-0.1,0.1-0.1,0.1-0.2
			c0.2-0.5,0.3-1.1,0.6-1.6c1.3-3.4,3.3-6.7,5.4-8.8c0.8-0.8,1.8-1.2,3-1.2c3.8,0.1,9.6,4.4,17.6,13c0.2-0.1,0.3-0.1,0.5-0.1h11
			c0.2,0,0.4,0,0.5,0.1C110,165.5,116,161.1,119.7,161 M178.6,218.2c-0.5-1.5-1.8-2.8-3.5-3.1c-0.3-0.1-0.6-0.1-0.9-0.1
			c-1.4,0-2.8,0.7-3.7,1.8C174.3,217.1,177.1,217.8,178.6,218.2 M174.2,224.4c1.3,0,2.6-0.6,3.4-1.5c-0.4-0.1-1.1-0.3-1.9-0.5
			c-0.1,0-0.2,0-0.3,0c-0.2,0-0.4,0-0.6-0.1c0,0-1.8-0.5-4.8-0.7c0.6,1.4,1.8,2.4,3.4,2.7C173.6,224.4,173.9,224.4,174.2,224.4
			 M119.7,151c-0.1,0-0.2,0-0.3,0c-6.2,0.2-12.8,4.1-21.6,13h-3.7c-8.7-8.8-15.3-12.7-21.5-12.9c-0.1,0-0.2,0-0.3,0
			c-3.8,0-7.4,1.5-10.1,4.1c-3.1,3.1-5.8,7.5-7.7,12.3c-0.1,0.3-0.2,0.6-0.3,0.9c-0.1,0.3-0.3,0.5-0.4,0.8c-0.1,0.1-0.1,0.3-0.2,0.4
			h-8.4c-6.4,0-11.6,5.2-11.6,11.6v16.3c0,4.8,2.9,8.9,7.1,10.7v22.6v8.4v32.3c0,6.4,5.2,11.6,11.6,11.6H92h8.4h39
			c6.4,0,11.6-5.2,11.6-11.6v-30.9c0.1-0.5,0.1-1,0.1-1.4V236c1.8-1,3.5-1.8,5.3-2.4l9.2,15.9c0.1,0.1,0.1,0.2,0.2,0.3
			c2.4,3.9,6.2,6.6,10.6,7.6c0.1,0,0.2,0,0.3,0.1l66.4,12.7c1.1,0.2,2.1,0.3,3.2,0.3c7.9,0,14.6-5.6,16-13.3l7.5-39
			c0.9-4.3-0.1-8.8-2.5-12.4c-2.5-3.6-6.2-6-10.5-6.8l-66.4-12.8c-0.1,0-0.2,0-0.2,0c-0.9-0.2-1.9-0.2-2.8-0.2
			c-3.8,0-7.4,1.3-10.3,3.6l-20.6,16.2c0,0,0,0-0.1,0c-1,0.8-1.9,1.7-2.7,2.7c-0.9,0.2-1.8,0.5-2.7,0.8v-1c4.2-1.8,7.1-5.9,7.1-10.7
			v-16c0.1-2.9-0.9-5.8-2.9-8c-2.2-2.4-5.4-3.8-8.7-3.8h-8.3c-0.2-0.8-0.5-1.5-0.8-2.3c-1.7-4.6-4.4-8.9-7.5-12.1
			c-0.1-0.1-0.1-0.1-0.2-0.2C127.1,152.5,123.5,151,119.7,151L119.7,151z"/>
	</g>
	<g>
		<path class="st0" d="M184,129.4c-3.6,0-6.6-3-6.6-6.6V79.4c-6.4-5.4-13-9-19.7-10.7l-11.1,19.2c-1.5,2.7-4.3,4.8-7.5,5.5
			c0,0-66.6,12.7-66.6,12.7c-0.7,0.1-1.4,0.2-2.2,0.2c-5.3,0-10-3.8-11-9.1L51.6,58c-0.6-2.9,0-5.9,1.6-8.4c1.7-2.5,4.3-4.3,7.3-4.9
			c0,0,66.5-12.7,66.6-12.7c0.7-0.1,1.3-0.2,2-0.2c2.6,0,5.2,0.9,7.1,2.5l20.6,16.2c1.2,0.9,2.1,2,2.9,3.3c0.4,0.1,0.8,0.2,1.2,0.4
			c5.7,1.4,11.2,3.7,16.6,7v-5.9h-0.5c-3.6,0-6.6-3-6.6-6.6V32.5c0-3.6,3-6.6,6.6-6.6h12.3c0.1-0.9,0.3-1.8,0.6-2.7
			c0.1-0.3,0.2-0.6,0.3-0.8c0-0.1,0-0.1,0.1-0.2c0.2-0.6,0.4-1.2,0.6-1.7c1.6-4.1,4-8,6.5-10.5c1.7-1.7,4-2.7,6.5-2.7
			c0,0,0.1,0,0.1,0c5.1,0.1,11.1,4.1,19.5,12.9h8c10.9-11.4,16.4-12.9,19.6-13c0,0,0.1,0,0.1,0c2.5,0,4.8,0.9,6.5,2.7
			c0,0,0.1,0.1,0.1,0.1c2.6,2.7,5,6.5,6.5,10.5c0.2,0.6,0.4,1.2,0.6,1.9c0.2,0.3,0.3,0.7,0.4,1.2c0.2,0.8,0.4,1.6,0.5,2.5H278
			c1.9,0,3.7,0.8,5,2.2c1.1,1.3,1.7,2.9,1.6,4.6v16.1c0,3.6-3,6.6-6.6,6.6h-0.4c0,0.3,0,0.6-0.1,0.9v24.8c0.1,0.3,0.1,0.7,0.1,1v8.4
			c0,0.3,0,0.7-0.1,1v31.3c0,3.6-3,6.6-6.6,6.6H184z"/>
		<path class="st0" d="M251.1,12.2c1.2,0,2.2,0.4,3,1.2c2.1,2.2,4.1,5.4,5.4,8.8c0.3,0.7,0.5,1.3,0.7,2c0.1,0.1,0.1,0.2,0.1,0.3
			c0.3,1.1,0.5,2.1,0.5,3.1c0,0.1,0,0.3,0,0.4c0,0.2,0,0.4,0,0.6c0,0.8-0.1,1.6-0.2,2.3H278c0.9,0,1.7,0.7,1.6,1.6v16.3
			c0,0.9-0.7,1.6-1.6,1.6h-5.4v4.9h-0.1v26.6c0.1,0.1,0.1,0.1,0.1,0.2v8.4c0,0.1,0,0.2-0.1,0.2v32.1c0,0.9-0.7,1.6-1.6,1.6h-39h-8.4
			H184c-0.9,0-1.6-0.7-1.6-1.6V90.5v-8.4v-5c-0.1-0.1-0.2-0.1-0.3-0.2c-10-8.9-19.5-12.6-27-13.8l-12.9,22.3
			c-0.9,1.6-2.5,2.7-4.3,3.1l-66.5,12.7c-0.4,0.1-0.8,0.1-1.3,0.1c-2.9,0-5.5-2.1-6.1-5.1l-7.5-39.1c-0.7-3.4,1.5-6.7,5-7.4
			L127.9,37c0.4-0.1,0.8-0.1,1.1-0.1c1.4,0,2.8,0.4,4,1.4l20.7,16.3c1.3,1,2.1,2.3,2.4,3.8c0.8,0.1,1.6,0.3,2.4,0.4
			c0.2,0.1,0.5,0.1,0.7,0.3c6.9,1.6,14.9,5.1,23.3,11.9V55.3v-4.9h-5.5c-0.9,0-1.6-0.7-1.6-1.6V32.5c0-0.9,0.7-1.6,1.6-1.6h17.3
			c-0.4-1.8-0.3-4,0.4-6.4c0.1-0.2,0.1-0.3,0.2-0.4c0.2-0.6,0.4-1.2,0.6-1.8c1.3-3.4,3.3-6.7,5.4-8.8c0.8-0.8,1.8-1.2,3-1.2
			c3.8,0.1,9.7,4.5,17.6,13.1c0.2-0.1,0.4-0.2,0.6-0.2h11c0.2,0,0.3,0,0.5,0.1C241.4,16.7,247.4,12.3,251.1,12.2 M137.8,59.3
			c1.2-0.4,3-0.8,5.4-1.2c0.7-0.1,1.6-0.2,2.6-0.3c-0.9-1.1-2.2-1.8-3.7-1.8c-0.3,0-0.6,0-0.9,0.1C139.6,56.5,138.3,57.8,137.8,59.3
			 M141.1,63.3C141.1,63.3,141.1,63.3,141.1,63.3c-1.1,0.2-1.9,0.5-2.4,0.6c0.9,0.9,2.1,1.5,3.4,1.5c0.3,0,0.6,0,0.9-0.1
			c1.6-0.3,2.8-1.4,3.4-2.8c-0.4,0-0.7,0-1.1,0.1c-2.3,0.2-3.7,0.6-3.7,0.6C141.5,63.3,141.3,63.3,141.1,63.3 M251.1,2.2
			c-0.1,0-0.2,0-0.3,0c-6.2,0.2-12.8,4.1-21.6,13h-3.7c-8.7-8.8-15.3-12.7-21.5-12.9c-0.1,0-0.2,0-0.3,0c-3.8,0-7.4,1.5-10.1,4.1
			c-3.1,3.1-5.8,7.5-7.7,12.3c-0.2,0.5-0.4,1.1-0.6,1.7c-0.1,0.1-0.1,0.3-0.2,0.4h-8.4c-6.4,0-11.6,5.2-11.6,11.6v16.3
			c0,0.5,0,1.1,0.1,1.6c-0.9-0.3-1.7-0.5-2.6-0.7c-0.8-1.1-1.8-2.1-2.9-2.9l-20.5-16.2c-2.8-2.3-6.5-3.6-10.3-3.6
			c-0.9,0-1.9,0.1-2.8,0.2c-0.1,0-0.2,0-0.2,0L59.6,39.9c0,0-0.1,0-0.1,0c-4.3,0.9-8.1,3.4-10.5,7c-2.4,3.6-3.2,7.9-2.4,12.1l7.5,39
			c0,0,0,0.1,0,0.1c1.5,7.6,8.2,13.2,15.9,13.2c1.1,0,2.1-0.1,3.2-0.3l66.4-12.7c0.1,0,0.2,0,0.3-0.1c4.6-1,8.5-3.9,10.8-7.9
			l9.1-15.7c4.2,1.5,8.3,3.9,12.4,7.1v0.3v8.4v32.3c0,6.4,5.2,11.6,11.6,11.6h39.5h8.4h39c6.4,0,11.6-5.2,11.6-11.6V91.9
			c0.1-0.5,0.1-1,0.1-1.4v-8.4c0-0.5,0-1-0.1-1.4V59.5c4.2-1.8,7.1-5.9,7.1-10.7v-16c0.1-2.9-0.9-5.8-2.9-8
			c-2.2-2.5-5.4-3.9-8.7-3.9h-8.4c0-0.1-0.1-0.2-0.1-0.4c-0.2-0.7-0.4-1.3-0.7-1.9c-1.7-4.6-4.4-8.9-7.5-12.1
			c-0.1-0.1-0.1-0.1-0.2-0.2C258.5,3.7,254.9,2.2,251.1,2.2L251.1,2.2z"/>
	</g>
</g>
<g>
	<path class="st1" d="M137.3,62c0,0,21.7-8.9,46.4,13.1"/>
	<g>
		<path class="st2" d="M153.7,54.6L133,38.3c-1.4-1.2-3.3-1.6-5.1-1.3L61.5,49.7c-3.5,0.7-5.7,4-5,7.4L64,96.2c0.7,3.5,4,5.7,7.4,5
			l66.5-12.7c1.8-0.4,3.4-1.5,4.3-3.1l13.2-22.8C156.9,60.1,156.3,56.6,153.7,54.6z M143.1,65.4c-2.6,0.5-5-1.2-5.5-3.7
			c-0.5-2.5,1.2-5,3.7-5.5s5,1.2,5.5,3.7S145.6,64.9,143.1,65.4z"/>
	</g>
	<g>
		<g>
			<g class="st3">
				<path class="st0" d="M96.5,79.5c0.2,1.2-0.3,1.9-1.7,2.2l-11.5,2.2c-1.4,0.3-2.2-0.2-2.4-1.4c-0.2-1.2,0.4-1.9,1.8-2.1l3.6-0.7
					l-3-15.6l-2.9,2.6c-0.3,0.2-0.6,0.4-0.8,0.4c-0.5,0.1-0.9,0-1.3-0.4c-0.4-0.3-0.7-0.8-0.8-1.3c-0.1-0.7,0.1-1.2,0.6-1.7l4.7-4.3
					c0.6-0.5,1.2-0.9,1.8-1c0.6-0.1,1.2,0,1.6,0.3c0.5,0.3,0.8,0.8,0.9,1.5l3.5,18.5l3.6-0.7C95.5,77.9,96.3,78.3,96.5,79.5z"/>
				<path class="st0" d="M100.4,77.7c-1.9-1.8-3.2-4.7-4-8.8c-0.8-4-0.6-7.2,0.5-9.6c1.1-2.4,3.1-3.9,5.9-4.4s5.2,0.1,7.1,1.9
					c1.9,1.8,3.2,4.7,4,8.7c0.8,4,0.6,7.2-0.5,9.6c-1.1,2.4-3.1,3.9-5.9,4.4S102.3,79.5,100.4,77.7z M109.9,73.3
					c0.4-1.6,0.4-3.9-0.2-7c-0.6-3.1-1.4-5.3-2.4-6.6c-1-1.3-2.2-1.8-3.8-1.5c-1.5,0.3-2.5,1.2-3,2.8c-0.4,1.5-0.4,3.9,0.2,7
					c0.6,3.1,1.4,5.3,2.4,6.6c1,1.3,2.2,1.8,3.8,1.5C108.4,75.8,109.4,74.9,109.9,73.3z"/>
				<path class="st0" d="M120,73.9c-1.9-1.8-3.2-4.7-4-8.8c-0.8-4-0.6-7.2,0.5-9.6c1.1-2.4,3.1-3.9,5.9-4.4s5.2,0.1,7.1,1.9
					c1.9,1.8,3.2,4.7,4,8.7c0.8,4,0.6,7.2-0.5,9.6c-1.1,2.4-3.1,3.9-5.9,4.4S121.9,75.7,120,73.9z M129.4,69.6
					c0.4-1.6,0.4-3.9-0.2-7c-0.6-3.1-1.4-5.3-2.4-6.6c-1-1.3-2.2-1.8-3.8-1.5s-2.5,1.2-3,2.8c-0.4,1.5-0.4,3.9,0.2,7
					c0.6,3.1,1.4,5.3,2.4,6.6c1,1.3,2.2,1.8,3.8,1.5C128,72.1,129,71.2,129.4,69.6z"/>
			</g>
		</g>
		<g class="st3">
			<path class="st0" d="M74.9,79c-0.5,0.8-1.3,1.4-2.4,1.7l0.2,1.1c0.1,0.3,0,0.5-0.1,0.7c-0.1,0.2-0.3,0.3-0.6,0.4
				c-0.3,0.1-0.5,0-0.7-0.1c-0.2-0.1-0.3-0.3-0.4-0.6l-0.2-1.1c-0.7,0.1-1.4,0.1-2.1,0c-0.7-0.1-1.3-0.3-1.8-0.6
				c-0.2-0.1-0.3-0.2-0.4-0.3c-0.1-0.1-0.1-0.3-0.2-0.5c0-0.2,0-0.5,0.1-0.7c0.1-0.2,0.3-0.3,0.5-0.4c0.1,0,0.2,0,0.3,0
				c0.1,0,0.3,0.1,0.4,0.1c0.6,0.3,1.2,0.4,1.8,0.5c0.6,0.1,1.1,0,1.7-0.1c0.8-0.2,1.4-0.4,1.7-0.8c0.4-0.4,0.5-0.9,0.4-1.5
				c-0.1-0.3-0.2-0.6-0.5-0.8s-0.6-0.3-1-0.3c-0.4-0.1-0.9-0.1-1.6-0.2c-0.9-0.1-1.7-0.1-2.3-0.3c-0.6-0.1-1.1-0.4-1.6-0.8
				c-0.5-0.4-0.8-1-1-1.8c-0.2-1,0-1.8,0.6-2.6c0.6-0.8,1.4-1.4,2.5-1.8L68,67.3c-0.1-0.3,0-0.5,0.1-0.7c0.1-0.2,0.3-0.3,0.6-0.4
				c0.3-0.1,0.5,0,0.7,0.1c0.2,0.1,0.3,0.3,0.4,0.6L70,68c1.2-0.1,2.3,0.2,3.3,0.7c0.3,0.2,0.5,0.4,0.6,0.8c0,0.2,0,0.5-0.1,0.7
				c-0.1,0.2-0.3,0.3-0.5,0.4c-0.1,0-0.2,0-0.3,0c-0.1,0-0.3-0.1-0.4-0.1c-0.6-0.3-1.1-0.4-1.5-0.5c-0.5-0.1-1-0.1-1.6,0
				c-0.7,0.1-1.3,0.4-1.7,0.8c-0.4,0.4-0.5,0.9-0.4,1.5c0.1,0.4,0.3,0.7,0.6,0.9c0.3,0.2,0.6,0.3,1,0.4c0.4,0.1,0.9,0.1,1.6,0.1
				c0.9,0,1.6,0.1,2.2,0.3c0.6,0.1,1.1,0.4,1.6,0.8c0.5,0.4,0.8,1,0.9,1.7C75.6,77.4,75.4,78.2,74.9,79z"/>
		</g>
	</g>
	<path class="st1" d="M141.1,61c0,0,6.9-2,16.9,0.1"/>
</g>
<g>
	<path class="st1" d="M132.7,234c24.8-22,46.4-13.1,46.4-13.1"/>
	<g>
		<path class="st4" d="M161.1,221.7l13.2,22.8c1,1.6,2.5,2.7,4.3,3.1l66.5,12.7c3.4,0.7,6.8-1.5,7.4-5l7.5-39.1
			c0.7-3.4-1.5-6.8-5-7.4L188.5,196c-1.8-0.3-3.7,0.1-5.1,1.3l-20.7,16.3C160.2,215.6,159.5,219.1,161.1,221.7z M169.6,218.8
			c0.5-2.5,3-4.2,5.5-3.7s4.2,3,3.7,5.5s-2.9,4.2-5.5,3.7C170.8,223.8,169.1,221.4,169.6,218.8z"/>
	</g>
	<g>
		<g>
			<g class="st3">
				<path class="st0" d="M220.5,217.7c1.2,2.4,1.5,5.5,0.8,9.3c-0.5,2.6-1.3,4.8-2.5,6.6c-1.1,1.8-2.5,3-4.2,3.8
					c-1.6,0.7-3.4,0.9-5.4,0.5c-1.3-0.3-2.6-0.7-3.8-1.5c-1.2-0.7-2.2-1.6-3-2.5c-0.2-0.3-0.4-0.6-0.5-0.9c-0.1-0.3-0.1-0.6,0-0.9
					c0.1-0.5,0.3-0.9,0.7-1.2c0.4-0.3,0.7-0.4,1.1-0.3c0.2,0,0.4,0.1,0.6,0.2c0.2,0.1,0.4,0.3,0.7,0.5c1.6,1.7,3.2,2.7,4.7,3
					c1.7,0.3,3.1-0.2,4.4-1.5c1.3-1.3,2.2-3.4,2.8-6.2c-0.7,0.9-1.7,1.6-2.8,2c-1.2,0.4-2.4,0.5-3.7,0.2c-1.4-0.3-2.6-0.9-3.6-1.7
					c-1-0.9-1.7-1.9-2.1-3.2s-0.4-2.7-0.2-4.2c0.3-1.5,0.9-2.9,1.8-3.9s2.1-1.8,3.4-2.3c1.3-0.4,2.8-0.5,4.3-0.2
					C217.1,213.8,219.2,215.3,220.5,217.7z M215.2,224.9c0.9-0.7,1.5-1.6,1.8-2.9c0.3-1.3,0.1-2.5-0.6-3.4s-1.6-1.6-2.9-1.8
					c-1.3-0.2-2.3,0-3.2,0.6c-0.9,0.7-1.5,1.7-1.7,3c-0.3,1.3-0.1,2.5,0.5,3.4c0.6,0.9,1.5,1.5,2.8,1.8
					C213.1,225.7,214.2,225.5,215.2,224.9z"/>
				<path class="st0" d="M223.6,237.4c-1.1-2.4-1.2-5.6-0.5-9.6c0.8-4,2.1-6.9,4-8.7s4.3-2.4,7.1-1.9c2.8,0.6,4.8,2,5.9,4.4
					c1.1,2.4,1.2,5.6,0.5,9.6s-2.1,6.9-4,8.7c-1.9,1.8-4.3,2.5-7.1,1.9C226.7,241.3,224.7,239.8,223.6,237.4z M234,236.9
					c1-1.3,1.8-3.5,2.4-6.6c0.6-3.1,0.7-5.4,0.3-7c-0.4-1.5-1.4-2.5-3-2.8s-2.8,0.2-3.8,1.5c-1,1.3-1.8,3.5-2.4,6.6
					c-0.6,3.1-0.7,5.4-0.3,7c0.4,1.6,1.4,2.5,3,2.8C231.7,238.7,233,238.2,234,236.9z"/>
			</g>
		</g>
		<g class="st3">
			<path class="st0" d="M195.4,227.1c-0.8,0.5-1.7,0.8-2.9,0.7l-0.2,1.1c-0.1,0.3-0.2,0.5-0.4,0.6c-0.2,0.1-0.4,0.2-0.7,0.1
				c-0.3-0.1-0.5-0.2-0.6-0.4c-0.1-0.2-0.2-0.4-0.1-0.7l0.2-1.1c-0.7-0.2-1.3-0.5-1.9-0.8c-0.6-0.3-1.1-0.8-1.5-1.2
				c-0.1-0.1-0.2-0.3-0.3-0.4c0-0.1,0-0.3,0-0.5c0-0.2,0.2-0.5,0.3-0.6c0.2-0.2,0.4-0.2,0.6-0.2c0.1,0,0.2,0.1,0.3,0.1
				c0.1,0.1,0.2,0.2,0.4,0.3c0.5,0.5,1,0.8,1.5,1.1c0.5,0.3,1,0.5,1.6,0.6c0.8,0.2,1.4,0.1,1.9-0.1c0.5-0.2,0.8-0.6,0.9-1.2
				c0.1-0.3,0-0.6-0.2-0.9c-0.2-0.3-0.5-0.5-0.8-0.7c-0.3-0.2-0.8-0.4-1.4-0.7c-0.8-0.4-1.5-0.8-2-1.1s-0.9-0.8-1.2-1.3
				c-0.3-0.6-0.4-1.2-0.2-2c0.2-1,0.7-1.7,1.5-2.2s1.8-0.8,2.9-0.7l0.2-1.1c0.1-0.3,0.2-0.5,0.4-0.6c0.2-0.1,0.4-0.2,0.7-0.1
				c0.3,0.1,0.5,0.2,0.6,0.4c0.1,0.2,0.2,0.4,0.1,0.7l-0.2,1.1c1.2,0.4,2.1,1,2.8,1.9c0.2,0.3,0.3,0.6,0.3,0.9
				c0,0.2-0.2,0.5-0.3,0.6c-0.2,0.2-0.4,0.2-0.6,0.2c-0.1,0-0.2-0.1-0.3-0.1c-0.1-0.1-0.2-0.2-0.4-0.3c-0.4-0.4-0.8-0.8-1.2-1
				c-0.4-0.3-0.9-0.4-1.5-0.6c-0.7-0.1-1.3-0.1-1.9,0.1c-0.5,0.2-0.8,0.6-0.9,1.2c-0.1,0.4,0,0.7,0.2,1c0.2,0.3,0.5,0.5,0.8,0.7
				c0.4,0.2,0.8,0.5,1.5,0.7c0.8,0.4,1.5,0.7,2,1.1c0.5,0.3,0.9,0.8,1.2,1.3c0.3,0.5,0.4,1.2,0.2,2
				C196.7,225.9,196.2,226.6,195.4,227.1z"/>
		</g>
	</g>
	<path class="st1" d="M158.5,220.1c10-2.1,16.9-0.1,16.9-0.1"/>
</g>
<path class="st4" d="M270.9,47.1H184c-0.9,0-1.6,0.7-1.6,1.6v74.1c0,0.9,0.7,1.6,1.6,1.6h86.9c0.9,0,1.6-0.7,1.6-1.6v-74
	C272.6,47.9,271.8,47.1,270.9,47.1z"/>
<path class="st5" d="M270.9,47.1H184c-0.9,0-1.6,0.7-1.6,1.6v6.6h90.2v-6.6C272.6,47.9,271.8,47.1,270.9,47.1z"/>
<path class="st6" d="M231.9,47.1h-8.4c-0.5,0-0.8,0.7-0.8,1.6v74.1c0,0.9,0.4,1.6,0.8,1.6h8.4c0.5,0,0.8-0.7,0.8-1.6v-74
	C232.7,47.9,232.4,47.1,231.9,47.1z"/>
<path class="st6" d="M272.6,90.5v-8.4c0-0.5-1.2-0.8-2.7-0.8h-84.8c-1.5,0-2.7,0.4-2.7,0.8v8.4c0,0.5,1.2,0.8,2.7,0.8h84.8
	C271.4,91.4,272.6,91,272.6,90.5z"/>
<path class="st7" d="M231.9,47.1h-8.4c-0.5,0-0.8,0.7-0.8,1.6v6.6h10.1v-6.6C232.7,47.9,232.4,47.1,231.9,47.1z"/>
<path class="st6" d="M259.5,22.2c-1.3-3.4-3.3-6.6-5.4-8.8c-0.8-0.8-1.8-1.2-3-1.2c-3.9,0.1-10.4,5-19.1,14.7
	c-0.2,0.2-0.3,0.6-0.3,0.9v6.9c0,0.7,0.6,1.3,1.3,1.3h20.2c4.5,0,6.4-2.2,7.1-4C261.3,29.6,261,26.1,259.5,22.2z"/>
<path class="st8" d="M260.3,24.5c0-0.1-0.1-0.3-0.2-0.4c-2-3-6.3-1.9-9.5-0.4c-9.4,4.3-13.3,10.1-13.5,10.4
	c-0.3,0.4-0.3,0.9-0.1,1.3c0.2,0.4,0.7,0.7,1.2,0.7h14.9c2.9,0,5-0.9,6.3-2.6C261,31.4,261.3,28.3,260.3,24.5z"/>
<path class="st6" d="M222.9,27c-8.7-9.7-15.1-14.6-19.1-14.7c-1.2,0-2.2,0.4-3,1.2c-2.1,2.1-4.1,5.4-5.4,8.8
	c-1.5,3.9-1.8,7.4-0.8,9.9c0.8,1.8,2.6,4,7.1,4H222c0.7,0,1.3-0.6,1.3-1.3V28C223.3,27.5,223.2,27.2,222.9,27z"/>
<path class="st8" d="M217.8,34.1c-0.2-0.2-4.1-6.1-13.5-10.4c-3.2-1.5-7.5-2.6-9.5,0.4c-0.1,0.1-0.1,0.2-0.2,0.4c-1,3.8-0.8,7,0.8,9
	c1.3,1.7,3.4,2.6,6.3,2.6h14.9c0.5,0,0.9-0.3,1.2-0.7C218.1,35,218.1,34.5,217.8,34.1z"/>
<path class="st7" d="M233,25.2h-11c-0.7,0-1.3,0.6-1.3,1.3v8.2c0,0.7,0.6,1.3,1.3,1.3h11c0.7,0,1.3-0.6,1.3-1.3v-8.2
	C234.3,25.8,233.7,25.2,233,25.2z"/>
<path class="st4" d="M278,30.9H176.9c-0.9,0-1.6,0.7-1.6,1.6v16.3c0,0.9,0.7,1.6,1.6,1.6H278c0.9,0,1.6-0.7,1.6-1.6V32.5
	C279.7,31.6,278.9,30.9,278,30.9z"/>
<rect x="222.8" y="30.9" class="st6" width="9.3" height="19.6"/>
<g class="st3">
	<path class="st0" d="M210.2,67.4c0.5,0.7,0.8,1.6,0.8,2.6c0,1.4-0.5,2.6-1.6,3.4c-1.1,0.8-2.6,1.2-4.5,1.2s-3.4-0.4-4.5-1.2
		c-1.1-0.8-1.6-1.9-1.6-3.4c0-1,0.3-1.9,0.8-2.6c0.5-0.7,1.3-1.2,2.2-1.4c-0.8-0.3-1.5-0.8-1.9-1.5c-0.5-0.7-0.7-1.4-0.7-2.3
		c0-1.4,0.5-2.4,1.5-3.2s2.4-1.2,4.2-1.2c1.8,0,3.2,0.4,4.2,1.2s1.5,1.9,1.5,3.2c0,0.9-0.2,1.7-0.7,2.4c-0.5,0.7-1.1,1.1-1.9,1.4
		C209,66.2,209.7,66.7,210.2,67.4z M208.2,69.7c0-1.7-1.1-2.5-3.3-2.5c-2.2,0-3.3,0.8-3.3,2.5c0,1.7,1.1,2.5,3.3,2.5
		C207.1,72.2,208.2,71.4,208.2,69.7z M202,62.5c0,0.8,0.2,1.4,0.7,1.8c0.5,0.4,1.2,0.6,2.2,0.6c1,0,1.7-0.2,2.2-0.6s0.7-1,0.7-1.8
		c0-1.6-1-2.4-2.9-2.4S202,60.9,202,62.5z"/>
</g>
<g class="st3">
	<path class="st0" d="M250.8,73.2c0,0.8-0.5,1.2-1.4,1.2h-8.8c-0.4,0-0.7-0.1-1-0.4c-0.2-0.2-0.3-0.5-0.3-0.9c0-0.5,0.2-0.9,0.5-1.3
		l5.3-5.7c0.7-0.7,1.1-1.4,1.4-2s0.5-1.2,0.5-1.8c0-0.7-0.2-1.3-0.6-1.7s-1-0.6-1.8-0.6c-0.6,0-1.3,0.1-1.9,0.4
		c-0.6,0.2-1.2,0.6-1.8,1c-0.2,0.1-0.3,0.2-0.5,0.3c-0.2,0.1-0.3,0.1-0.5,0.1c-0.3,0-0.5-0.1-0.7-0.4c-0.2-0.2-0.3-0.5-0.3-0.9
		c0-0.2,0-0.4,0.1-0.6c0.1-0.2,0.2-0.3,0.4-0.5c0.7-0.5,1.5-1,2.4-1.3s1.8-0.5,2.7-0.5c1.6,0,2.9,0.4,3.8,1.2c1,0.8,1.4,1.9,1.4,3.3
		c0,0.9-0.2,1.8-0.6,2.7s-1.1,1.8-2,2.8l-4,4.3h6.1C250.3,72,250.8,72.4,250.8,73.2z"/>
	<path class="st0" d="M253.3,72.4c-1-1.4-1.5-3.5-1.5-6.3c0-2.7,0.5-4.8,1.5-6.3c1-1.4,2.5-2.2,4.4-2.2s3.4,0.7,4.4,2.2
		c1,1.4,1.5,3.5,1.5,6.3c0,2.7-0.5,4.8-1.5,6.3s-2.5,2.2-4.4,2.2S254.4,73.9,253.3,72.4z M260.1,70.8c0.5-1,0.7-2.5,0.7-4.6
		c0-2.1-0.2-3.7-0.7-4.6c-0.5-1-1.2-1.4-2.3-1.4s-1.8,0.5-2.3,1.4c-0.5,1-0.7,2.5-0.7,4.6c0,2.1,0.2,3.7,0.7,4.6
		c0.5,1,1.2,1.5,2.3,1.5S259.6,71.8,260.1,70.8z"/>
</g>
<g class="st3">
	<path class="st0" d="M203.2,107.4c0.5,0.7,0.8,1.5,0.8,2.6c0,1.4-0.5,2.5-1.6,3.4c-1,0.8-2.4,1.3-4.2,1.3c-1,0-2-0.2-2.9-0.5
		s-1.7-0.7-2.4-1.3c-0.4-0.3-0.5-0.7-0.5-1.1c0-0.3,0.1-0.6,0.3-0.9c0.2-0.2,0.4-0.4,0.7-0.4c0.2,0,0.3,0,0.4,0.1s0.3,0.1,0.5,0.3
		c0.7,0.4,1.3,0.8,1.9,1c0.6,0.2,1.2,0.3,1.9,0.3c1,0,1.8-0.2,2.3-0.6c0.5-0.4,0.7-1,0.7-1.9c0-0.8-0.3-1.4-0.8-1.8
		c-0.5-0.4-1.3-0.6-2.4-0.6h-1.3c-0.4,0-0.6-0.1-0.8-0.4c-0.2-0.2-0.3-0.5-0.3-0.8c0-0.3,0.1-0.6,0.3-0.8c0.2-0.2,0.5-0.3,0.8-0.3
		h0.9c2.1,0,3.2-0.8,3.2-2.4c0-0.7-0.2-1.3-0.7-1.7s-1.1-0.6-1.9-0.6c-1.1,0-2.3,0.5-3.6,1.4c-0.2,0.1-0.4,0.2-0.5,0.3
		s-0.3,0.1-0.4,0.1c-0.3,0-0.5-0.1-0.7-0.4c-0.2-0.2-0.3-0.5-0.3-0.9c0-0.2,0-0.4,0.1-0.6c0.1-0.2,0.2-0.3,0.4-0.5
		c0.7-0.5,1.4-1,2.3-1.3c0.9-0.3,1.8-0.5,2.8-0.5c1.6,0,2.9,0.4,3.9,1.2c1,0.8,1.4,1.8,1.4,3.2c0,0.9-0.3,1.7-0.7,2.4
		c-0.5,0.7-1.1,1.2-1.9,1.5C201.9,106.2,202.6,106.7,203.2,107.4z"/>
	<path class="st0" d="M206.9,112.4c-1-1.4-1.5-3.5-1.5-6.3c0-2.7,0.5-4.8,1.5-6.3c1-1.4,2.5-2.2,4.4-2.2s3.4,0.7,4.4,2.2
		c1,1.4,1.5,3.5,1.5,6.3c0,2.7-0.5,4.8-1.5,6.3s-2.5,2.2-4.4,2.2S208,113.9,206.9,112.4z M213.7,110.8c0.5-1,0.7-2.5,0.7-4.6
		c0-2.1-0.2-3.7-0.7-4.6c-0.5-1-1.2-1.4-2.3-1.4s-1.8,0.5-2.3,1.4c-0.5,1-0.7,2.5-0.7,4.6c0,2.1,0.2,3.7,0.7,4.6
		c0.5,1,1.2,1.5,2.3,1.5S213.2,111.8,213.7,110.8z"/>
</g>
<g class="st3">
	<path class="st0" d="M250.4,109.4c-0.2-0.2-0.2-0.4-0.2-0.8c0-0.9,0.2-1.6,0.5-2.2s0.8-1.2,1.4-1.9c0.5-0.6,0.8-1,1-1.4
		c0.2-0.4,0.3-0.8,0.3-1.3c0-0.5-0.2-0.9-0.6-1.2c-0.4-0.3-0.9-0.5-1.5-0.5c-0.6,0-1.1,0.1-1.6,0.4c-0.5,0.2-1.1,0.6-1.8,1
		c-0.4,0.2-0.7,0.3-1,0.3c-0.3,0-0.5-0.1-0.7-0.4c-0.2-0.2-0.3-0.5-0.3-0.9c0-0.5,0.2-0.8,0.6-1.1c0.7-0.6,1.4-1,2.3-1.3
		s1.8-0.5,2.7-0.5c0.9,0,1.8,0.2,2.5,0.5c0.7,0.3,1.3,0.8,1.7,1.4c0.4,0.6,0.6,1.2,0.6,2c0,0.8-0.2,1.5-0.6,2.1s-1,1.3-1.7,2
		c-0.6,0.7-1.1,1.2-1.4,1.6s-0.5,0.9-0.6,1.5c0,0.2-0.2,0.4-0.3,0.6c-0.2,0.1-0.4,0.2-0.6,0.2C250.8,109.6,250.5,109.5,250.4,109.4z
		 M249.8,114c-0.3-0.3-0.5-0.7-0.5-1.2s0.2-0.9,0.5-1.2c0.3-0.3,0.7-0.5,1.2-0.5s0.9,0.2,1.2,0.5c0.3,0.3,0.5,0.7,0.5,1.2
		s-0.2,0.9-0.5,1.2c-0.3,0.3-0.7,0.5-1.2,0.5C250.6,114.5,250.2,114.4,249.8,114z"/>
</g>
<path class="st2" d="M139.5,195.9h-87c-0.9,0-1.6,0.7-1.6,1.6v74.1c0,0.9,0.7,1.6,1.6,1.6h86.9c0.9,0,1.6-0.7,1.6-1.6v-74.1
	C141.1,196.7,140.4,195.9,139.5,195.9z"/>
<path class="st9" d="M139.5,195.9h-87c-0.9,0-1.6,0.7-1.6,1.6v6.6h90.2v-6.6C141.1,196.7,140.4,195.9,139.5,195.9z"/>
<path class="st6" d="M100.4,195.9H92c-0.5,0-0.8,0.7-0.8,1.6v74.1c0,0.9,0.4,1.6,0.8,1.6h8.4c0.5,0,0.8-0.7,0.8-1.6v-74.1
	C101.3,196.7,100.9,195.9,100.4,195.9z"/>
<path class="st6" d="M141.1,239.3v-8.4c0-0.5-1.2-0.8-2.7-0.8H53.6c-1.5,0-2.7,0.4-2.7,0.8v8.4c0,0.5,1.2,0.8,2.7,0.8h84.8
	C139.9,240.2,141.1,239.8,141.1,239.3z"/>
<path class="st7" d="M100.4,195.9H92c-0.5,0-0.8,0.7-0.8,1.6v6.6h10.1v-6.6C101.3,196.7,100.9,195.9,100.4,195.9z"/>
<path class="st6" d="M128.1,171c-1.3-3.4-3.3-6.6-5.4-8.8c-0.8-0.8-1.8-1.2-3-1.2c-3.9,0.1-10.4,5-19.1,14.7
	c-0.2,0.2-0.3,0.6-0.3,0.9v6.9c0,0.7,0.6,1.3,1.3,1.3h20.2c4.5,0,6.4-2.2,7.1-4C129.8,178.4,129.6,174.9,128.1,171z"/>
<path class="st8" d="M128.8,173.3c0-0.1-0.1-0.3-0.2-0.4c-2-3-6.3-1.9-9.5-0.4c-9.4,4.3-13.3,10.1-13.5,10.4
	c-0.3,0.4-0.3,0.9-0.1,1.3c0.2,0.4,0.7,0.7,1.2,0.7h14.9c2.9,0,5-0.9,6.3-2.6C129.6,180.2,129.9,177.1,128.8,173.3z"/>
<path class="st6" d="M91.5,175.8c-8.7-9.7-15.1-14.6-19.1-14.7c-1.2,0-2.2,0.4-3,1.2c-2.1,2.1-4.1,5.4-5.4,8.8
	c-1.5,3.9-1.8,7.4-0.8,9.9c0.8,1.8,2.6,4,7.1,4h20.2c0.7,0,1.3-0.6,1.3-1.3v-6.9C91.8,176.3,91.7,176,91.5,175.8z"/>
<path class="st8" d="M86.3,182.9c-0.2-0.2-4.1-6.1-13.5-10.4c-3.2-1.5-7.5-2.6-9.5,0.4c-0.1,0.1-0.1,0.2-0.2,0.4c-1,3.8-0.8,7,0.8,9
	c1.3,1.7,3.4,2.6,6.3,2.6h14.9c0.5,0,0.9-0.3,1.2-0.7S86.6,183.3,86.3,182.9z"/>
<path class="st7" d="M101.5,174h-11c-0.7,0-1.3,0.6-1.3,1.3v8.2c0,0.7,0.6,1.3,1.3,1.3h11c0.7,0,1.3-0.6,1.3-1.3v-8.2
	C102.8,174.6,102.2,174,101.5,174z"/>
<path class="st2" d="M146.5,179.7H45.4c-0.9,0-1.6,0.7-1.6,1.6v16.3c0,0.9,0.7,1.6,1.6,1.6h101.1c0.9,0,1.6-0.7,1.6-1.6v-16.3
	C148.2,180.4,147.5,179.7,146.5,179.7z"/>
<rect x="91.3" y="179.7" class="st6" width="9.3" height="19.6"/>
<g class="st3">
	<path class="st0" d="M79.1,207.1c0.2,0.2,0.3,0.5,0.3,0.9c0,0.4-0.1,0.7-0.3,1.1l-7.4,13.5c-0.3,0.5-0.7,0.8-1.3,0.8
		c-0.4,0-0.7-0.1-1-0.4c-0.3-0.3-0.4-0.6-0.4-0.9c0-0.3,0.1-0.5,0.2-0.8l6.7-12.1h-7c-0.9,0-1.4-0.4-1.4-1.2c0-0.8,0.5-1.2,1.4-1.2
		h9.3C78.5,206.8,78.9,206.9,79.1,207.1z"/>
</g>
<g class="st3">
	<path class="st0" d="M119.3,222c0,0.8-0.5,1.2-1.4,1.2h-8.8c-0.4,0-0.7-0.1-1-0.4c-0.2-0.2-0.3-0.5-0.3-0.9c0-0.5,0.2-0.9,0.5-1.3
		l5.3-5.7c0.7-0.7,1.1-1.4,1.4-2s0.5-1.2,0.5-1.8c0-0.7-0.2-1.3-0.6-1.7s-1-0.6-1.8-0.6c-0.6,0-1.3,0.1-1.9,0.4
		c-0.6,0.2-1.2,0.6-1.8,1c-0.2,0.1-0.3,0.2-0.5,0.3c-0.2,0.1-0.3,0.1-0.5,0.1c-0.3,0-0.5-0.1-0.7-0.4c-0.2-0.2-0.3-0.5-0.3-0.9
		c0-0.2,0-0.4,0.1-0.6s0.2-0.3,0.4-0.5c0.7-0.5,1.5-1,2.4-1.3c0.9-0.3,1.8-0.5,2.7-0.5c1.6,0,2.9,0.4,3.8,1.2c1,0.8,1.4,1.9,1.4,3.3
		c0,0.9-0.2,1.8-0.6,2.7c-0.4,0.8-1.1,1.8-2,2.8l-4,4.3h6.1C118.8,220.8,119.3,221.2,119.3,222z"/>
	<path class="st0" d="M131.1,216.2c0.5,0.7,0.8,1.5,0.8,2.6c0,1.4-0.5,2.5-1.6,3.4c-1,0.8-2.4,1.3-4.2,1.3c-1,0-2-0.2-2.9-0.5
		c-0.9-0.3-1.7-0.7-2.4-1.3c-0.4-0.3-0.5-0.7-0.5-1.1c0-0.3,0.1-0.6,0.3-0.9c0.2-0.2,0.4-0.4,0.7-0.4c0.2,0,0.3,0,0.4,0.1
		c0.1,0.1,0.3,0.1,0.5,0.3c0.7,0.4,1.3,0.8,1.9,1c0.6,0.2,1.2,0.3,1.9,0.3c1,0,1.8-0.2,2.3-0.6c0.5-0.4,0.7-1,0.7-1.9
		c0-0.8-0.3-1.4-0.8-1.8s-1.3-0.6-2.4-0.6h-1.3c-0.4,0-0.6-0.1-0.8-0.4c-0.2-0.2-0.3-0.5-0.3-0.8c0-0.3,0.1-0.6,0.3-0.8
		c0.2-0.2,0.5-0.3,0.8-0.3h0.9c2.1,0,3.2-0.8,3.2-2.4c0-0.7-0.2-1.3-0.7-1.7s-1.1-0.6-1.9-0.6c-1.1,0-2.3,0.5-3.6,1.4
		c-0.2,0.1-0.4,0.2-0.5,0.3c-0.1,0.1-0.3,0.1-0.4,0.1c-0.3,0-0.5-0.1-0.7-0.4c-0.2-0.2-0.3-0.5-0.3-0.9c0-0.2,0-0.4,0.1-0.6
		s0.2-0.3,0.4-0.5c0.7-0.5,1.4-1,2.3-1.3c0.9-0.3,1.8-0.5,2.8-0.5c1.6,0,2.9,0.4,3.9,1.2s1.4,1.8,1.4,3.2c0,0.9-0.3,1.7-0.7,2.4
		c-0.5,0.7-1.1,1.2-1.9,1.5C129.8,215,130.6,215.5,131.1,216.2z"/>
</g>
<g class="st3">
	<path class="st0" d="M71.7,256.2c0.5,0.7,0.8,1.5,0.8,2.6c0,1.4-0.5,2.5-1.6,3.4c-1,0.8-2.4,1.3-4.2,1.3c-1,0-2-0.2-2.9-0.5
		c-0.9-0.3-1.7-0.7-2.4-1.3c-0.4-0.3-0.5-0.7-0.5-1.1c0-0.3,0.1-0.6,0.3-0.9c0.2-0.2,0.4-0.4,0.7-0.4c0.2,0,0.3,0,0.4,0.1
		c0.1,0.1,0.3,0.1,0.5,0.3c0.7,0.4,1.3,0.8,1.9,1c0.6,0.2,1.2,0.3,1.9,0.3c1,0,1.8-0.2,2.3-0.6c0.5-0.4,0.7-1,0.7-1.9
		c0-0.8-0.3-1.4-0.8-1.8s-1.3-0.6-2.4-0.6h-1.3c-0.4,0-0.6-0.1-0.8-0.4c-0.2-0.2-0.3-0.5-0.3-0.8c0-0.3,0.1-0.6,0.3-0.8
		c0.2-0.2,0.5-0.3,0.8-0.3H66c2.1,0,3.2-0.8,3.2-2.4c0-0.7-0.2-1.3-0.7-1.7s-1.1-0.6-1.9-0.6c-1.1,0-2.3,0.5-3.6,1.4
		c-0.2,0.1-0.4,0.2-0.5,0.3c-0.1,0.1-0.3,0.1-0.4,0.1c-0.3,0-0.5-0.1-0.7-0.4c-0.2-0.2-0.3-0.5-0.3-0.9c0-0.2,0-0.4,0.1-0.6
		s0.2-0.3,0.4-0.5c0.7-0.5,1.4-1,2.3-1.3c0.9-0.3,1.8-0.5,2.8-0.5c1.6,0,2.9,0.4,3.9,1.2s1.4,1.8,1.4,3.2c0,0.9-0.3,1.7-0.7,2.4
		c-0.5,0.7-1.1,1.2-1.9,1.5C70.4,255,71.2,255.5,71.7,256.2z"/>
	<path class="st0" d="M85.3,256.2c0.5,0.7,0.8,1.6,0.8,2.6c0,1.4-0.5,2.6-1.6,3.4c-1.1,0.8-2.6,1.2-4.5,1.2s-3.4-0.4-4.5-1.2
		c-1.1-0.8-1.6-1.9-1.6-3.4c0-1,0.3-1.9,0.8-2.6c0.5-0.7,1.3-1.2,2.2-1.4c-0.8-0.3-1.5-0.8-1.9-1.5c-0.5-0.7-0.7-1.4-0.7-2.3
		c0-1.4,0.5-2.4,1.5-3.2c1-0.8,2.4-1.2,4.2-1.2c1.8,0,3.2,0.4,4.2,1.2s1.5,1.9,1.5,3.2c0,0.9-0.2,1.7-0.7,2.4
		c-0.5,0.7-1.1,1.1-1.9,1.4C84,255,84.8,255.5,85.3,256.2z M83.3,258.5c0-1.7-1.1-2.5-3.3-2.5c-2.2,0-3.3,0.8-3.3,2.5
		c0,1.7,1.1,2.5,3.3,2.5C82.1,261,83.3,260.2,83.3,258.5z M77,251.3c0,0.8,0.2,1.4,0.7,1.8c0.5,0.4,1.2,0.6,2.2,0.6
		c1,0,1.7-0.2,2.2-0.6c0.5-0.4,0.7-1,0.7-1.8c0-1.6-1-2.4-2.9-2.4S77,249.7,77,251.3z"/>
</g>
<g class="st3">
	<path class="st0" d="M118.9,258.2c-0.2-0.2-0.2-0.4-0.2-0.8c0-0.9,0.2-1.6,0.5-2.2s0.8-1.2,1.4-1.9c0.5-0.6,0.8-1,1-1.4
		c0.2-0.4,0.3-0.8,0.3-1.3c0-0.5-0.2-0.9-0.6-1.2s-0.9-0.5-1.5-0.5c-0.6,0-1.1,0.1-1.6,0.4c-0.5,0.2-1.1,0.6-1.8,1
		c-0.4,0.2-0.7,0.3-1,0.3c-0.3,0-0.5-0.1-0.7-0.4c-0.2-0.2-0.3-0.5-0.3-0.9c0-0.5,0.2-0.8,0.6-1.1c0.7-0.6,1.4-1,2.3-1.3
		s1.8-0.5,2.7-0.5c0.9,0,1.8,0.2,2.5,0.5c0.7,0.3,1.3,0.8,1.7,1.4c0.4,0.6,0.6,1.2,0.6,2c0,0.8-0.2,1.5-0.6,2.1
		c-0.4,0.6-1,1.3-1.7,2c-0.6,0.7-1.1,1.2-1.4,1.6c-0.3,0.4-0.5,0.9-0.6,1.5c0,0.2-0.2,0.4-0.3,0.6c-0.2,0.1-0.4,0.2-0.6,0.2
		C119.3,258.4,119.1,258.4,118.9,258.2z M118.4,262.8c-0.3-0.3-0.5-0.7-0.5-1.2s0.2-0.9,0.5-1.2c0.3-0.3,0.7-0.5,1.2-0.5
		c0.5,0,0.9,0.2,1.2,0.5c0.3,0.3,0.5,0.7,0.5,1.2s-0.2,0.9-0.5,1.2c-0.3,0.3-0.7,0.5-1.2,0.5C119.1,263.3,118.7,263.2,118.4,262.8z"
		/>
</g>
</svg>
