<?xml version="1.0" encoding="utf-8"?>
<!-- Generator: Adobe Illustrator 22.1.0, SVG Export Plug-In . SVG Version: 6.00 Build 0)  -->
<svg version="1.1" id="Layer_1" xmlns="http://www.w3.org/2000/svg" xmlns:xlink="http://www.w3.org/1999/xlink" x="0px" y="0px"
	 viewBox="0 0 336.7 293.7" style="enable-background:new 0 0 336.7 293.7;" xml:space="preserve">
<style type="text/css">
	.st0{fill:#F24044;}
	.st1{fill:#FFFFFF;}
</style>
<rect x="235.5" y="93" class="st0" width="35.5" height="29.5"/>
<g>
	<path class="st1" d="M252.5,110.6c0.2,0.2,0.4,0.5,0.4,0.9c0,0.8-0.5,1.2-1.5,1.2h-1.2v1.9c0,0.5-0.1,0.9-0.4,1.2
		c-0.3,0.3-0.7,0.4-1.1,0.4s-0.8-0.1-1.1-0.4c-0.3-0.3-0.4-0.7-0.4-1.2v-1.9h-6.4c-0.4,0-0.8-0.1-1-0.4c-0.2-0.3-0.4-0.6-0.4-0.9
		c0-0.4,0.1-0.8,0.4-1.1l7.5-10.8c0.2-0.2,0.4-0.4,0.6-0.5c0.2-0.1,0.5-0.2,0.8-0.2c0.4,0,0.8,0.1,1.1,0.4c0.3,0.3,0.5,0.7,0.5,1.2
		v9.9h1.2C251.9,110.3,252.3,110.4,252.5,110.6z M242.6,110.3h4.5v-6.5L242.6,110.3z"/>
	<path class="st1" d="M266.9,114.8c0,0.9-0.5,1.3-1.5,1.3h-9.2c-0.4,0-0.8-0.1-1-0.4c-0.2-0.3-0.4-0.6-0.4-0.9
		c0-0.5,0.2-0.9,0.6-1.3l5.5-6c0.7-0.7,1.2-1.4,1.5-2.1s0.5-1.2,0.5-1.9c0-0.8-0.2-1.3-0.7-1.8c-0.4-0.4-1.1-0.6-1.9-0.6
		c-0.7,0-1.3,0.1-1.9,0.4c-0.6,0.3-1.3,0.6-1.9,1c-0.2,0.1-0.3,0.2-0.5,0.3c-0.2,0.1-0.3,0.1-0.5,0.1c-0.3,0-0.5-0.1-0.7-0.4
		c-0.2-0.3-0.3-0.6-0.3-0.9c0-0.2,0-0.5,0.1-0.6c0.1-0.2,0.2-0.3,0.4-0.5c0.7-0.6,1.5-1,2.5-1.4c1-0.3,1.9-0.5,2.9-0.5
		c1.7,0,3,0.4,4,1.3c1,0.8,1.5,2,1.5,3.4c0,1-0.2,1.9-0.6,2.8c-0.4,0.9-1.1,1.8-2.1,2.9l-4.2,4.5h6.4
		C266.4,113.6,266.9,114,266.9,114.8z"/>
</g>
</svg>
