<?xml version="1.0" encoding="utf-8"?>
<!-- Generator: Adobe Illustrator 22.1.0, SVG Export Plug-In . SVG Version: 6.00 Build 0)  -->
<svg version="1.1" id="Layer_1" xmlns="http://www.w3.org/2000/svg" xmlns:xlink="http://www.w3.org/1999/xlink" x="0px" y="0px"
	 viewBox="0 0 300 300" style="enable-background:new 0 0 300 300;" xml:space="preserve">
<style type="text/css">
	.st0{fill:#FFFFFF;}
	.st1{fill:#92D4F5;}
	.st2{fill:#C8E6FA;}
	.st3{fill:none;}
	.st4{fill:#7EC9E0;}
	.st5{fill:#1C6A77;}
	.st6{fill:#60025E;}
	.st7{fill:#56BED6;}
	.st8{fill:#4397AA;}
	.st9{fill:#54BFDE;}
	.st10{fill:#4397AA;stroke:#4397AA;stroke-width:2;stroke-linecap:round;stroke-linejoin:round;stroke-miterlimit:10;}
</style>
<g>
	<path class="st0" d="M150.5,297.6c-0.1,0-0.2,0-0.2,0c-0.3,0-0.5-0.1-0.7-0.2c-0.6-0.3-1-0.8-1.1-1.4l-3.2-6.4l-36.9-24.7
		c-0.4-0.3-0.8-0.8-0.9-1.3l-8.7-47.7l-32.9-20.1c-0.3-0.2-0.5-0.4-0.7-0.6l-31.5-50.4c-0.3-0.3-0.5-0.6-0.6-1l-10.1-42h-8.3
		c-1.1,0-2-0.9-2-2v-8.1c0-1.1,0.9-2,2-2s2,0.9,2,2c0,0.4,1.9,2,6,2s6-1.6,6-2c0-1.1,0.9-2,2-2s2,0.9,2,2c0,0.4,1.9,2,6,2
		c0.9,0,1.8-0.1,2.6-0.3l33.2-36.7c0.7-0.7,1.5-1,2.5-1c0.6,0,1.1,0.1,1.6,0.4c0,0,0.1,0,0.1,0.1l7.5,4.5L97.4,52
		c0.5-0.4,1.2-0.7,2-0.7c0.9,0,1.7,0.3,2.3,0.9l9.2,9.4l37.4-41.1c0.4-0.4,0.9-0.7,1.5-0.7c0.3,0,0.5,0.1,0.8,0.2
		c0.5,0.2,0.9,0.6,1.1,1.1L179,59.7l18-20.5c0.6-0.7,1.5-1.1,2.6-1.1s2.2,0.5,2.8,1.4l15.1,20.4l5.3-5.4c0.4-0.4,0.9-0.6,1.4-0.6
		c0.3,0,0.5,0,0.7,0.1c0.6,0.2,1,0.7,1.2,1.3l26.6,35.9c0.1-1,1-1.8,2-1.8c1.1,0,2,0.9,2,2c0,0.4,1.9,2,6,2s6-1.6,6-2
		c0-1.1,0.9-2,2-2s2,0.9,2,2c0,0.4,1.9,2,6,2s6-1.6,6-2c0-1.1,0.9-2,2-2s2,0.9,2,2v8.1c0,1.1-0.9,2-2,2h-8.2l-0.9,40
		c0,0.6-0.3,1.1-0.7,1.5l-31.2,25.2l-11.2,55c-0.1,0.7-0.6,1.2-1.2,1.4l-37.9,20.6L152,296.9C151.6,297.3,151.1,297.6,150.5,297.6z"
		/>
	<path class="st0" d="M149.8,21.9V22V21.9l29,41l19.7-22.4c0.2-0.3,0.6-0.4,1.1-0.4c0.4,0,0.9,0.2,1.1,0.5L217.2,63l6.8-7l0,0
		l0.1-0.1v0.2l28.2,38.1c1.4-0.7,2.3-1.7,2.3-2.8c0,2.2,3.6,4,8,4s8-1.8,8-4c0,2.2,3.6,4,8,4s8-1.8,8-4v8.1h-10.1l-1,42l-31.8,25.7
		L232.4,223l-0.1-0.2l-0.1,0.3L194,243.9l-43.5,51.7v-0.1l-0.1,0.1v-0.2l-8-16.1l4.1,8.7l-37.1-24.9l-8.9-48.6l0.2,0.2l-0.1-0.2
		l-1.1-4.8l1,4.8l-33.7-20.6l-31.7-50.7l-0.2-0.1L24.5,99.6h-9.9v-8.1c0,2.2,3.6,4,8,4s8-1.8,8-4c0,2.2,3.6,4,8,4
		c1.3,0,2.5-0.2,3.6-0.4l33.7-37.2c0.2-0.2,0.6-0.4,1-0.4c0.2,0,0.5,0.1,0.7,0.2l8.7,5.2l12.3-9.3c0.2-0.2,0.5-0.3,0.8-0.3
		c0.4,0,0.7,0.1,0.9,0.4L111,64.6L149.8,21.9 M100.6,214.5L100.6,214.5 M149.8,17.9c-1.1,0-2.2,0.5-3,1.3l-36,39.6l-7.7-7.9
		c-1-1-2.4-1.6-3.8-1.6c-1.2,0-2.3,0.4-3.2,1.1L86,58l-6.4-3.8c-0.1-0.1-0.2-0.1-0.3-0.1c-0.8-0.4-1.7-0.6-2.5-0.6
		C75.3,53.5,74,54,73,55l-0.1,0.1L40.2,91.4c-0.5,0.1-1,0.1-1.6,0.1c-2.1,0-3.5-0.5-4.1-0.9c-0.4-1.8-2-3.1-3.9-3.1
		s-3.5,1.3-3.9,3.1c-0.6,0.3-2,0.9-4.1,0.9s-3.5-0.5-4.1-0.9c-0.4-1.8-2-3.1-3.9-3.1c-2.2,0-4,1.8-4,4v8.1c0,2.2,1.8,4,4,4h6.8
		l9.7,40.4c0.2,0.7,0.5,1.3,1,1.8L63.5,196c0.3,0.5,0.8,1,1.3,1.3L97,217l8.6,46.8c0.2,1.1,0.8,2,1.7,2.6l36.4,24.5l2.8,5.7
		c0.3,1.2,1.1,2.2,2.3,2.7c0.5,0.2,1.1,0.3,1.6,0.3c0,0,0,0,0.1,0l0,0c1.2,0,2.3-0.5,3.1-1.4l43-51.1l37.5-20.4
		c1.1-0.5,2-1.6,2.2-2.8l11-54.3l30.7-24.8c0.9-0.7,1.5-1.8,1.5-3l0.9-38.1h6.2c2.2,0,4-1.8,4-4v-8.1h-4h-4c0-0.6,0.2-1,0.3-1.1
		c-0.3,0.3-1.8,1.1-4.3,1.1c-2.1,0-3.5-0.5-4.1-0.9c-0.4-1.8-2-3.1-3.9-3.1s-3.5,1.3-3.9,3.1c-0.6,0.3-2,0.9-4.1,0.9
		s-3.5-0.5-4.1-0.9c-0.4-1.8-2-3.1-3.9-3.1c-0.7,0-1.4,0.2-1.9,0.5l-24.8-33.6c-0.4-1-1.2-1.8-2.2-2.3c-0.5-0.2-1-0.3-1.5-0.3
		c-1.1,0-2.1,0.4-2.9,1.2l0,0l-0.1,0.1l-3.5,3.6L204,38.2c-1-1.4-2.6-2.2-4.4-2.2c-1.6,0-3.1,0.7-4.1,1.8l-16.4,18.6l-25.7-36.3
		c-0.4-0.8-1.1-1.5-2-1.9C150.9,18,150.3,17.9,149.8,17.9L149.8,17.9z M149.8,25.9L149.8,25.9L149.8,25.9L149.8,25.9z M100.6,218.5
		L100.6,218.5L100.6,218.5L100.6,218.5z"/>
</g>
<g>
	<g>
		<polygon class="st1" points="109.5,263.1 100.6,214.5 102.7,216 125.3,243.4 146.6,288 		"/>
	</g>
	<path class="st2" d="M276.4,98.5l-0.9,43.1l-31.8,25.7l-11.5,55.8L194,243.9l-43.5,51.7l-25.6-51.8l-24.2-29.3L92.3,176L35,143.1
		L24.3,98.7"/>
	<g>
		<polygon class="st1" points="166,161.7 197.7,241.8 193.9,243.9 150.4,295.6 		"/>
	</g>
	<polygon class="st1" points="197.8,170.1 211.5,135.1 243.7,167.3 232.4,223 	"/>
	<path class="st2" d="M194.5,169.6c-12.4-2.5-20.6-4.1-24.9-5l-3.5-0.7l-0.7-3.9l-8.7-23.9l42.2-18.8l13,18.2l-13.5,34.8
		L194.5,169.6z"/>
	<polygon class="st1" points="66.9,193.9 35.1,143.1 92.9,175.5 100.6,214.5 	"/>
	<polygon class="st1" points="249.4,124.5 251.4,98.2 276.5,98.2 275.5,141.6 	"/>
	<polygon class="st1" points="150.2,118 144.6,106.7 140.4,98.2 204,98.2 199.1,118.1 157,136.9 	"/>
	<g>
		<line class="st3" x1="241" y1="98.9" x2="214.3" y2="98.9"/>
		<path class="st4" d="M70.1,98.9H20.2l0,0"/>
		<path class="st4" d="M151.4,98.9H69.3l0,0"/>
	</g>
	<line class="st3" x1="276.5" y1="98.2" x2="24.3" y2="98.7"/>
</g>
<g>
	<path class="st5" d="M105.7,144.5h-8.3c-0.9,0-1.7,0.7-1.7,1.7l0,0c0,0.9,0.7,1.7,1.7,1.7h8.3c0.9,0,1.7-0.7,1.7-1.7l0,0
		C107.4,145.2,106.7,144.5,105.7,144.5z"/>
</g>
<g>
	<path class="st5" d="M154.6,144.5h-8.3c-0.9,0-1.7,0.7-1.7,1.7l0,0c0,0.9,0.7,1.7,1.7,1.7h8.3c0.9,0,1.7-0.7,1.7-1.7l0,0
		C156.2,145.2,155.5,144.5,154.6,144.5z"/>
</g>
<g>
	<path class="st5" d="M131,189.8h-8.3c-0.9,0-1.7,0.7-1.7,1.7l0,0c0,0.9,0.7,1.7,1.7,1.7h8.3c0.9,0,1.7-0.7,1.7-1.7l0,0
		C132.7,190.6,131.9,189.8,131,189.8z"/>
</g>
<g>
	<path class="st5" d="M180.2,189.8h-8.3c-0.9,0-1.7,0.7-1.7,1.7l0,0c0,0.9,0.7,1.7,1.7,1.7h8.3c0.9,0,1.7-0.7,1.7-1.7l0,0
		C181.8,190.6,181.1,189.8,180.2,189.8z"/>
</g>
<g>
	<path class="st5" d="M155.2,231.3h-8.3c-0.9,0-1.7,0.7-1.7,1.7l0,0c0,0.9,0.7,1.7,1.7,1.7h8.3c0.9,0,1.7-0.7,1.7-1.7l0,0
		C156.8,232.1,156.1,231.3,155.2,231.3z"/>
</g>
<g>
	<path class="st5" d="M200.3,144.5H192c-0.9,0-1.7,0.7-1.7,1.7l0,0c0,0.9,0.7,1.7,1.7,1.7h8.3c0.9,0,1.7-0.7,1.7-1.7l0,0
		C202,145.2,201.2,144.5,200.3,144.5z"/>
</g>
<g>
	<g>
		<g>
			<path class="st6" d="M126,236.5L126,236.5c-10.8,0-19.5-8.7-19.5-19.5l0,0c0-10.8,8.7-19.5,19.5-19.5l0,0
				c10.8,0,19.5,8.7,19.5,19.5l0,0C145.5,227.7,136.8,236.5,126,236.5z"/>
			<g>
				<path class="st0" d="M125.4,218.4c-0.1-0.2-0.2-0.4-0.2-0.7c0-0.7,0.1-1.4,0.4-1.9s0.7-1.1,1.2-1.7c0.4-0.5,0.7-0.9,0.9-1.2
					c0.2-0.3,0.3-0.7,0.3-1.1c0-0.4-0.2-0.8-0.5-1.1s-0.8-0.4-1.4-0.4c-0.5,0-1,0.1-1.4,0.3s-1,0.5-1.6,0.9
					c-0.3,0.2-0.6,0.3-0.8,0.3c-0.2,0-0.4-0.1-0.6-0.3s-0.3-0.5-0.3-0.7c0-0.4,0.2-0.7,0.5-1c0.6-0.5,1.2-0.9,2-1.1
					c0.8-0.3,1.6-0.4,2.3-0.4c0.8,0,1.6,0.1,2.2,0.4c0.6,0.3,1.1,0.7,1.5,1.2s0.5,1.1,0.5,1.7c0,0.7-0.2,1.3-0.5,1.8
					s-0.8,1.1-1.5,1.8c-0.6,0.6-1,1-1.3,1.4s-0.5,0.8-0.5,1.3c0,0.2-0.1,0.4-0.3,0.5c-0.1,0.1-0.3,0.2-0.5,0.2
					C125.7,218.7,125.5,218.6,125.4,218.4z M124.9,222.5c-0.3-0.3-0.4-0.7-0.4-1.1c0-0.4,0.1-0.8,0.4-1.1s0.6-0.4,1.1-0.4
					s0.8,0.1,1.1,0.4c0.3,0.3,0.4,0.7,0.4,1.1c0,0.4-0.1,0.8-0.4,1.1s-0.6,0.4-1.1,0.4C125.5,223,125.2,222.8,124.9,222.5z"/>
			</g>
		</g>
		<g>
			<path class="st6" d="M176,236.5L176,236.5c-10.8,0-19.5-8.7-19.5-19.5l0,0c0-10.8,8.7-19.5,19.5-19.5l0,0
				c10.8,0,19.5,8.7,19.5,19.5l0,0C195.5,227.7,186.8,236.5,176,236.5z"/>
			<path class="st7" d="M151,279.4L151,279.4c-11.2,0-20.3-9.1-20.3-20.3l0,0c0-11.2,9.1-20.3,20.3-20.3l0,0
				c11.2,0,20.3,9.1,20.3,20.3l0,0C171.3,270.3,162.2,279.4,151,279.4z"/>
			<g>
				<path class="st0" d="M175.4,218.4c-0.1-0.2-0.2-0.4-0.2-0.7c0-0.7,0.1-1.4,0.4-1.9c0.3-0.5,0.7-1.1,1.2-1.7
					c0.4-0.5,0.7-0.9,0.9-1.2s0.3-0.7,0.3-1.1c0-0.4-0.2-0.8-0.5-1.1s-0.8-0.4-1.4-0.4c-0.5,0-1,0.1-1.4,0.3s-1,0.5-1.6,0.9
					c-0.3,0.2-0.6,0.3-0.8,0.3s-0.4-0.1-0.6-0.3c-0.2-0.2-0.3-0.5-0.3-0.7c0-0.4,0.2-0.7,0.5-1c0.6-0.5,1.2-0.9,2-1.1
					c0.8-0.3,1.6-0.4,2.3-0.4c0.8,0,1.6,0.1,2.2,0.4c0.6,0.3,1.1,0.7,1.5,1.2s0.5,1.1,0.5,1.7c0,0.7-0.2,1.3-0.5,1.8
					s-0.8,1.1-1.5,1.8c-0.6,0.6-1,1-1.3,1.4s-0.5,0.8-0.5,1.3c0,0.2-0.1,0.4-0.3,0.5c-0.1,0.1-0.3,0.2-0.5,0.2
					C175.7,218.7,175.5,218.6,175.4,218.4z M174.9,222.5c-0.3-0.3-0.4-0.7-0.4-1.1c0-0.4,0.1-0.8,0.4-1.1c0.3-0.3,0.6-0.4,1.1-0.4
					s0.8,0.1,1.1,0.4c0.3,0.3,0.4,0.7,0.4,1.1c0,0.4-0.1,0.8-0.4,1.1c-0.3,0.3-0.6,0.4-1.1,0.4C175.5,223,175.2,222.8,174.9,222.5z"
					/>
			</g>
		</g>
	</g>
	<g>
		<g>
			<path class="st7" d="M126.7,147.1L126.7,147.1c-11.2,0-20.3-9.1-20.3-20.3l0,0c0-11.2,9.1-20.3,20.3-20.3l0,0
				c11.2,0,20.3,9.1,20.3,20.3l0,0C146.9,138.1,137.9,147.1,126.7,147.1z"/>
			<g>
				<path class="st0" d="M126.5,131.7c0,0.7-0.4,1.1-1.2,1.1h-6.9c-0.8,0-1.2-0.4-1.2-1.1c0-0.7,0.4-1,1.2-1h2.1v-9.3l-2,1.2
					c-0.2,0.1-0.4,0.2-0.5,0.2c-0.3,0-0.5-0.1-0.7-0.4c-0.2-0.2-0.3-0.5-0.3-0.8c0-0.4,0.2-0.7,0.5-0.9l3.2-2
					c0.4-0.2,0.8-0.4,1.2-0.4c0.4,0,0.7,0.1,0.9,0.3s0.3,0.5,0.3,1v11h2.1C126.1,130.6,126.5,131,126.5,131.7z"/>
				<path class="st0" d="M135.5,124.2c0.7,0.4,1.2,0.9,1.6,1.6c0.4,0.7,0.6,1.5,0.6,2.4c0,0.9-0.2,1.8-0.6,2.5
					c-0.4,0.7-1,1.3-1.8,1.7s-1.7,0.6-2.7,0.6c-0.8,0-1.7-0.1-2.5-0.4c-0.8-0.3-1.5-0.7-2.1-1.1c-0.3-0.3-0.5-0.6-0.5-1
					c0-0.3,0.1-0.6,0.3-0.8c0.2-0.2,0.4-0.3,0.6-0.3c0.1,0,0.3,0,0.4,0.1c0.1,0,0.3,0.1,0.4,0.2c0.5,0.4,1.1,0.7,1.6,0.9
					s1.1,0.3,1.6,0.3c0.9,0,1.6-0.2,2.1-0.7c0.5-0.4,0.7-1.1,0.7-1.9c0-0.8-0.2-1.4-0.7-1.9s-1.1-0.7-2-0.7c-0.5,0-1,0.1-1.4,0.2
					s-0.8,0.4-1.3,0.8c-0.3,0.2-0.5,0.3-0.8,0.3s-0.5-0.1-0.7-0.2s-0.3-0.4-0.3-0.7v-6.3c0-0.4,0.1-0.7,0.3-0.9s0.5-0.3,0.9-0.3h6.8
					c0.8,0,1.2,0.3,1.2,1s-0.4,1-1.2,1h-5.5v3.9c0.7-0.5,1.5-0.7,2.5-0.7C134.1,123.6,134.8,123.8,135.5,124.2z"/>
			</g>
		</g>
		<g>
			<path class="st6" d="M80,146.4L80,146.4c-10.8,0-19.5-8.7-19.5-19.5l0,0c0-10.8,8.7-19.5,19.5-19.5l0,0
				c10.8,0,19.5,8.7,19.5,19.5l0,0C99.5,137.6,90.8,146.4,80,146.4z"/>
			<g>
				<path class="st0" d="M79.4,128.4c-0.1-0.2-0.2-0.4-0.2-0.7c0-0.7,0.1-1.4,0.4-1.9s0.7-1.1,1.2-1.7c0.4-0.5,0.7-0.9,0.9-1.2
					c0.2-0.3,0.3-0.7,0.3-1.1s-0.2-0.8-0.5-1.1c-0.3-0.3-0.8-0.4-1.4-0.4c-0.5,0-1,0.1-1.4,0.3c-0.4,0.2-1,0.5-1.6,0.9
					c-0.3,0.2-0.6,0.3-0.8,0.3c-0.2,0-0.4-0.1-0.6-0.3c-0.2-0.2-0.3-0.5-0.3-0.7c0-0.4,0.2-0.7,0.5-1c0.6-0.5,1.2-0.9,2-1.1
					c0.8-0.3,1.6-0.4,2.3-0.4c0.8,0,1.6,0.1,2.2,0.4s1.1,0.7,1.5,1.2s0.5,1.1,0.5,1.7c0,0.7-0.2,1.3-0.5,1.8s-0.8,1.1-1.5,1.8
					c-0.6,0.6-1,1-1.3,1.4s-0.5,0.8-0.5,1.3c0,0.2-0.1,0.4-0.3,0.5c-0.1,0.1-0.3,0.2-0.5,0.2C79.7,128.6,79.5,128.5,79.4,128.4z
					 M78.9,132.4c-0.3-0.3-0.4-0.7-0.4-1.1c0-0.4,0.1-0.8,0.4-1.1s0.6-0.4,1.1-0.4s0.8,0.1,1.1,0.4s0.4,0.7,0.4,1.1
					c0,0.4-0.1,0.8-0.4,1.1s-0.6,0.4-1.1,0.4C79.5,132.9,79.2,132.7,78.9,132.4z"/>
			</g>
		</g>
		<g>
			<path class="st7" d="M220,147.1L220,147.1c-11.2,0-20.3-9.1-20.3-20.3l0,0c0-11.2,9.1-20.3,20.3-20.3l0,0
				c11.2,0,20.3,9.1,20.3,20.3l0,0C240.3,138.1,231.2,147.1,220,147.1z"/>
			<g>
				<path class="st0" d="M223.3,124.2c0.7,0.4,1.2,0.9,1.6,1.6s0.6,1.5,0.6,2.4c0,0.9-0.2,1.8-0.6,2.5c-0.4,0.7-1,1.3-1.8,1.7
					s-1.7,0.6-2.7,0.6c-0.8,0-1.7-0.1-2.5-0.4c-0.8-0.3-1.5-0.7-2.1-1.1c-0.3-0.3-0.5-0.6-0.5-1c0-0.3,0.1-0.6,0.3-0.8
					s0.4-0.3,0.6-0.3c0.1,0,0.3,0,0.4,0.1c0.1,0,0.3,0.1,0.4,0.2c0.5,0.4,1.1,0.7,1.6,0.9s1.1,0.3,1.6,0.3c0.9,0,1.6-0.2,2.1-0.7
					c0.5-0.4,0.7-1.1,0.7-1.9c0-0.8-0.2-1.4-0.7-1.9s-1.1-0.7-2-0.7c-0.5,0-1,0.1-1.4,0.2s-0.8,0.4-1.3,0.8
					c-0.3,0.2-0.5,0.3-0.8,0.3s-0.5-0.1-0.7-0.2c-0.2-0.2-0.3-0.4-0.3-0.7v-6.3c0-0.4,0.1-0.7,0.3-0.9c0.2-0.2,0.5-0.3,0.9-0.3h6.8
					c0.8,0,1.2,0.3,1.2,1s-0.4,1-1.2,1h-5.5v3.9c0.7-0.5,1.5-0.7,2.5-0.7C221.8,123.6,222.6,123.8,223.3,124.2z"/>
			</g>
		</g>
		<g>
			<path class="st7" d="M173.3,147.1L173.3,147.1c-11.2,0-20.3-9.1-20.3-20.3l0,0c0-11.2,9.1-20.3,20.3-20.3l0,0
				c11.2,0,20.3,9.1,20.3,20.3l0,0C193.6,138.1,184.5,147.1,173.3,147.1z"/>
			<g>
				<path class="st0" d="M178.2,126.6c0.5,0.6,0.7,1.4,0.7,2.2c0,1.3-0.5,2.2-1.4,3c-0.9,0.7-2.3,1.1-3.9,1.1c-1.7,0-3-0.4-3.9-1.1
					c-0.9-0.7-1.4-1.7-1.4-3c0-0.9,0.2-1.6,0.7-2.2s1.1-1,2-1.3c-0.7-0.3-1.3-0.7-1.7-1.3c-0.4-0.6-0.6-1.3-0.6-2
					c0-1.2,0.4-2.1,1.3-2.8c0.9-0.7,2.1-1,3.7-1c1.6,0,2.8,0.3,3.7,1s1.3,1.6,1.3,2.8c0,0.8-0.2,1.5-0.6,2.1c-0.4,0.6-1,1-1.7,1.2
					C177.1,125.6,177.7,126,178.2,126.6z M176.4,128.7c0-1.5-1-2.2-2.9-2.2s-2.9,0.7-2.9,2.2s1,2.2,2.9,2.2S176.4,130.1,176.4,128.7
					z M170.9,122.4c0,0.7,0.2,1.2,0.6,1.6c0.4,0.4,1.1,0.5,1.9,0.5c0.8,0,1.5-0.2,1.9-0.5c0.4-0.4,0.6-0.9,0.6-1.6
					c0-1.4-0.8-2.1-2.5-2.1C171.8,120.3,170.9,121,170.9,122.4z"/>
			</g>
		</g>
	</g>
	<g>
		<g>
			<path class="st0" d="M148.7,256.3c0.7,0.4,1.2,0.9,1.6,1.6c0.4,0.7,0.6,1.5,0.6,2.4s-0.2,1.7-0.6,2.5c-0.4,0.7-1,1.3-1.7,1.7
				s-1.5,0.6-2.5,0.6c-1.8,0-3.2-0.6-4.2-1.8c-1-1.2-1.5-3-1.5-5.3c0-1.6,0.2-2.9,0.7-4.1s1.1-2,2-2.6s1.9-0.9,3-0.9
				c0.8,0,1.5,0.1,2.3,0.4c0.8,0.3,1.4,0.7,2,1.1c0.2,0.1,0.3,0.3,0.4,0.4c0.1,0.1,0.1,0.3,0.1,0.5c0,0.3-0.1,0.6-0.3,0.8
				s-0.4,0.3-0.6,0.3c-0.1,0-0.3,0-0.4-0.1c-0.1,0-0.3-0.1-0.4-0.2c-1.1-0.8-2.1-1.2-3-1.2c-1,0-1.8,0.5-2.3,1.4s-0.9,2.2-0.9,3.9
				c0.3-0.6,0.8-1.1,1.4-1.5c0.6-0.4,1.3-0.5,2.1-0.5C147.3,255.7,148,255.9,148.7,256.3z M147.7,262.3c0.4-0.5,0.7-1.1,0.7-1.9
				s-0.2-1.4-0.7-1.9c-0.4-0.5-1-0.7-1.8-0.7s-1.4,0.2-1.8,0.7c-0.5,0.5-0.7,1.1-0.7,1.9s0.2,1.4,0.7,1.9s1.1,0.7,1.8,0.7
				C146.6,263,147.2,262.7,147.7,262.3z"/>
			<path class="st0" d="M162.2,260.3c0.2,0.2,0.3,0.4,0.3,0.8c0,0.7-0.4,1-1.2,1h-1v1.6c0,0.4-0.1,0.7-0.4,1s-0.5,0.3-0.9,0.3
				s-0.7-0.1-0.9-0.3c-0.2-0.2-0.4-0.6-0.4-1v-1.6h-5.3c-0.4,0-0.7-0.1-0.9-0.3s-0.3-0.5-0.3-0.8s0.1-0.6,0.3-0.9l6.3-9
				c0.1-0.2,0.3-0.3,0.5-0.4c0.2-0.1,0.4-0.2,0.6-0.2c0.4,0,0.7,0.1,0.9,0.3c0.3,0.2,0.4,0.6,0.4,1v8.3h1
				C161.7,260,162,260.1,162.2,260.3z M153.9,260h3.8v-5.5L153.9,260z"/>
		</g>
	</g>
	<g>
		<g>
			<path class="st7" d="M106,192.2L106,192.2c-11.2,0-20.3-9.1-20.3-20.3l0,0c0-11.2,9.1-20.3,20.3-20.3l0,0
				c11.2,0,20.3,9.1,20.3,20.3l0,0C126.3,183.1,117.2,192.2,106,192.2z"/>
			<g>
				<path class="st0" d="M105.9,176.7c0,0.7-0.4,1.1-1.2,1.1h-6.9c-0.8,0-1.2-0.4-1.2-1.1c0-0.7,0.4-1,1.2-1h2.1v-9.3l-2,1.2
					c-0.2,0.1-0.4,0.2-0.5,0.2c-0.3,0-0.5-0.1-0.7-0.4c-0.2-0.2-0.3-0.5-0.3-0.8c0-0.4,0.2-0.7,0.5-0.9l3.2-2
					c0.4-0.2,0.8-0.4,1.2-0.4c0.4,0,0.7,0.1,0.9,0.3s0.3,0.5,0.3,1v11h2.1C105.5,175.7,105.9,176,105.9,176.7z"/>
				<path class="st0" d="M117,176.7c0,0.7-0.4,1.1-1.2,1.1H108c-0.4,0-0.6-0.1-0.8-0.3c-0.2-0.2-0.3-0.5-0.3-0.8
					c0-0.4,0.2-0.8,0.5-1.1l4.6-5c0.6-0.6,1-1.2,1.3-1.7s0.4-1,0.4-1.6s-0.2-1.1-0.5-1.5c-0.4-0.3-0.9-0.5-1.6-0.5
					c-0.6,0-1.1,0.1-1.6,0.3s-1,0.5-1.6,0.9c-0.1,0.1-0.3,0.2-0.4,0.2s-0.3,0.1-0.4,0.1c-0.2,0-0.4-0.1-0.6-0.3s-0.3-0.5-0.3-0.8
					c0-0.2,0-0.4,0.1-0.5s0.2-0.3,0.4-0.4c0.6-0.5,1.3-0.9,2.1-1.1c0.8-0.3,1.6-0.4,2.4-0.4c1.4,0,2.5,0.4,3.3,1.1
					c0.8,0.7,1.2,1.7,1.2,2.8c0,0.8-0.2,1.6-0.5,2.3c-0.4,0.7-0.9,1.5-1.8,2.4l-3.5,3.7h5.4C116.6,175.7,117,176,117,176.7z"/>
			</g>
		</g>
		<g>
			<path class="st7" d="M151,192.2L151,192.2c-11.2,0-20.3-9.1-20.3-20.3l0,0c0-11.2,9.1-20.3,20.3-20.3l0,0
				c11.2,0,20.3,9.1,20.3,20.3l0,0C171.3,183.1,162.2,192.2,151,192.2z"/>
			<g>
				<path class="st0" d="M156.1,163.7c0.2,0.2,0.3,0.5,0.3,0.8s-0.1,0.6-0.3,1l-6.5,11.8c-0.3,0.5-0.6,0.7-1.1,0.7
					c-0.3,0-0.6-0.1-0.9-0.3c-0.3-0.2-0.4-0.5-0.4-0.8c0-0.2,0.1-0.5,0.2-0.7l5.8-10.5h-6.1c-0.8,0-1.2-0.3-1.2-1s0.4-1.1,1.2-1.1
					h8.1C155.6,163.5,155.9,163.5,156.1,163.7z"/>
			</g>
		</g>
		<g>
			<path class="st7" d="M196,192.2L196,192.2c-11.2,0-20.3-9.1-20.3-20.3l0,0c0-11.2,9.1-20.3,20.3-20.3l0,0
				c11.2,0,20.3,9.1,20.3,20.3l0,0C216.3,183.1,207.2,192.2,196,192.2z"/>
			<g>
				<path class="st0" d="M200.3,171.7c0.5,0.6,0.7,1.4,0.7,2.2c0,1.2-0.5,2.2-1.4,2.9s-2.1,1.1-3.7,1.1c-0.9,0-1.7-0.1-2.5-0.4
					c-0.8-0.3-1.5-0.7-2.1-1.1c-0.3-0.3-0.5-0.6-0.5-1c0-0.3,0.1-0.6,0.3-0.8s0.4-0.3,0.6-0.3c0.1,0,0.3,0,0.4,0.1s0.3,0.1,0.4,0.2
					c0.6,0.4,1.1,0.7,1.6,0.9s1.1,0.3,1.7,0.3c0.9,0,1.6-0.2,2-0.5c0.4-0.4,0.7-0.9,0.7-1.6c0-0.7-0.2-1.2-0.7-1.6
					c-0.5-0.3-1.2-0.5-2.1-0.5h-1.2c-0.3,0-0.6-0.1-0.7-0.3c-0.2-0.2-0.3-0.5-0.3-0.7c0-0.3,0.1-0.5,0.3-0.7s0.4-0.3,0.7-0.3h0.8
					c1.9,0,2.8-0.7,2.8-2.1c0-0.7-0.2-1.2-0.6-1.5s-0.9-0.5-1.6-0.5c-1,0-2,0.4-3.2,1.2c-0.2,0.1-0.3,0.2-0.4,0.2
					c-0.1,0-0.2,0.1-0.4,0.1s-0.4-0.1-0.6-0.3c-0.2-0.2-0.3-0.5-0.3-0.8c0-0.2,0-0.4,0.1-0.5s0.2-0.3,0.4-0.4c0.6-0.5,1.3-0.9,2-1.1
					c0.8-0.3,1.6-0.4,2.4-0.4c1.4,0,2.5,0.3,3.4,1s1.2,1.6,1.2,2.8c0,0.8-0.2,1.5-0.6,2.1s-1,1-1.7,1.3
					C199.2,170.6,199.9,171.1,200.3,171.7z"/>
			</g>
		</g>
	</g>
</g>
<g>
	<g>
		<path class="st8" d="M178.5,63.2l20-22.7c0.5-0.6,1.7-0.6,2.2,0.1l16.8,22.8l-22.6,23L178.5,63.2z"/>
	</g>
	<path class="st1" d="M44.1,96.8l-1.9-1.7l33.7-37.2c0.4-0.4,1.1-0.5,1.7-0.2l8.6,5.2l12.4-9.3c0.5-0.4,1.3-0.3,1.7,0.1L111,64.6
		L149.8,22l29,40.9l0.1,0.4l0.4,0.3l15.7,22L224,56l30.2,40.8"/>
	<g>
		<polygon class="st9" points="202.5,96.9 194.7,85.9 224.1,55.9 224.7,96.9 		"/>
		<path class="st9" d="M40.6,96.9l35.3-39c0.4-0.4,1.1-0.5,1.7-0.2l8.9,5.3L92,86.2l-9.7,10.6L40.6,96.9L40.6,96.9z"/>
		<path class="st9" d="M81.6,96.9l68.2-75l-1.1,11.8L142.9,68c-0.1,0.7,0.7,1.3,1.7,1.2l10.8-1.1c1-0.1,1.9,0.6,1.7,1.3L150,96.9
			H81.6L81.6,96.9z"/>
	</g>
</g>
<path class="st10" d="M278.6,95.5c-4.4,0-8-1.8-8-4c0,2.2-3.6,4-8,4s-8-1.8-8-4c0,2.2-3.6,4-8,4s-8-1.8-8-4c0,2.2-3.6,4-8,4
	s-8-1.8-8-4c0,0,0,0,0,0.1v-0.1c0,2.2-3.6,4-8,4s-8-1.8-8-4l0,0l0,0c0,2.2-3.6,4-8,4s-8-1.8-8-4l0,0l0,0c0,2.2-3.6,4-8,4s-8-1.8-8-4
	l0,0l0,0c0,2.2-3.6,4-8,4s-8-1.8-8-4l0,0l0,0c0,2.2-3.6,4-8,4s-8-1.8-8-4l0,0l0,0c0,2.2-3.6,4-8,4s-8-1.8-8-4l0,0l0,0
	c0,2.2-3.6,4-8,4s-8-1.8-8-4l0,0l0,0c0,2.2-3.6,4-8,4s-8-1.8-8-4l0,0l0,0c0,2.2-3.6,4-8,4s-8-1.8-8-4v0.1c0,0,0,0,0-0.1
	c0,2.2-3.6,4-8,4s-8-1.8-8-4c0,2.2-3.6,4-8,4s-8-1.8-8-4c0,2.2-3.6,4-8,4s-8-1.8-8-4c0,2.2-3.6,4-8,4s-8-1.8-8-4v8.1H78h144.4h64.2
	v-8.1C286.6,93.7,283,95.5,278.6,95.5z"/>
</svg>
