<?xml version="1.0" encoding="utf-8"?>
<!-- Generator: Adobe Illustrator 22.1.0, SVG Export Plug-In . SVG Version: 6.00 Build 0)  -->
<svg version="1.1" id="Layer_1" xmlns="http://www.w3.org/2000/svg" xmlns:xlink="http://www.w3.org/1999/xlink" x="0px" y="0px"
	 viewBox="0 0 300 300" style="enable-background:new 0 0 300 300;" xml:space="preserve">
<style type="text/css">
	.st0{fill:#56BED6;}
	.st1{enable-background:new    ;}
	.st2{fill:#FFFFFF;}
</style>
<g>
	<path class="st0" d="M80,147.1L80,147.1c-11.2,0-20.3-9.1-20.3-20.3l0,0c0-11.2,9.1-20.3,20.3-20.3l0,0c11.2,0,20.3,9.1,20.3,20.3
		l0,0C100.3,138.1,91.2,147.1,80,147.1z"/>
	<g class="st1">
		<path class="st2" d="M79.8,132.7c0,0.7-0.4,1.1-1.2,1.1h-7.7c-0.4,0-0.6-0.1-0.8-0.3c-0.2-0.2-0.3-0.5-0.3-0.8
			c0-0.4,0.2-0.8,0.5-1.1l4.6-5c0.6-0.6,1-1.2,1.3-1.7c0.3-0.5,0.4-1,0.4-1.6c0-0.6-0.2-1.1-0.5-1.5c-0.4-0.3-0.9-0.5-1.6-0.5
			c-0.6,0-1.1,0.1-1.6,0.3c-0.5,0.2-1,0.5-1.6,0.9c-0.1,0.1-0.3,0.2-0.4,0.2c-0.1,0.1-0.3,0.1-0.4,0.1c-0.2,0-0.4-0.1-0.6-0.3
			s-0.3-0.5-0.3-0.8c0-0.2,0-0.4,0.1-0.5c0.1-0.1,0.2-0.3,0.4-0.4c0.6-0.5,1.3-0.9,2.1-1.1c0.8-0.3,1.6-0.4,2.4-0.4
			c1.4,0,2.5,0.4,3.3,1.1c0.8,0.7,1.3,1.7,1.3,2.8c0,0.8-0.2,1.6-0.5,2.3s-0.9,1.5-1.8,2.4l-3.5,3.7h5.4
			C79.4,131.6,79.8,132,79.8,132.7z"/>
		<path class="st2" d="M90.8,119.7c0.2,0.2,0.3,0.5,0.3,0.8s-0.1,0.6-0.3,1l-6.5,11.8c-0.3,0.5-0.6,0.7-1.1,0.7
			c-0.3,0-0.6-0.1-0.9-0.3c-0.3-0.2-0.4-0.5-0.4-0.8c0-0.2,0.1-0.5,0.2-0.7l5.8-10.5h-6.1c-0.8,0-1.2-0.3-1.2-1
			c0-0.7,0.4-1.1,1.2-1.1h8.1C90.3,119.4,90.6,119.5,90.8,119.7z"/>
	</g>
</g>
</svg>
