<?xml version="1.0" encoding="utf-8"?>
<!-- Generator: Adobe Illustrator 22.1.0, SVG Export Plug-In . SVG Version: 6.00 Build 0)  -->
<svg version="1.1" id="Layer_1" xmlns="http://www.w3.org/2000/svg" xmlns:xlink="http://www.w3.org/1999/xlink" x="0px" y="0px"
	 viewBox="0 0 300 300" style="enable-background:new 0 0 300 300;" xml:space="preserve">
<style type="text/css">
	.st0{fill:#56BED6;}
	.st1{fill:#FFFFFF;}
</style>
<g>
	<g>
		<path class="st0" d="M126,237.2L126,237.2c-11.2,0-20.3-9.1-20.3-20.3v0c0-11.2,9.1-20.3,20.3-20.3h0c11.2,0,20.3,9.1,20.3,20.3v0
			C146.3,228.2,137.2,237.2,126,237.2z"/>
		<g>
			<path class="st1" d="M129.3,214.2c0.7,0.4,1.2,0.9,1.6,1.6s0.6,1.5,0.6,2.4c0,0.9-0.2,1.8-0.6,2.5c-0.4,0.7-1,1.3-1.8,1.7
				c-0.8,0.4-1.7,0.6-2.7,0.6c-0.8,0-1.7-0.1-2.5-0.4c-0.8-0.3-1.5-0.7-2.1-1.1c-0.3-0.3-0.5-0.6-0.5-1c0-0.3,0.1-0.6,0.3-0.8
				c0.2-0.2,0.4-0.3,0.6-0.3c0.1,0,0.3,0,0.4,0.1c0.1,0,0.3,0.1,0.4,0.2c0.5,0.4,1.1,0.7,1.6,0.9c0.5,0.2,1.1,0.3,1.6,0.3
				c0.9,0,1.6-0.2,2.1-0.7c0.5-0.4,0.7-1.1,0.7-1.9c0-0.8-0.2-1.4-0.7-1.9c-0.5-0.5-1.1-0.7-2-0.7c-0.5,0-1,0.1-1.4,0.2
				c-0.4,0.1-0.8,0.4-1.3,0.8c-0.3,0.2-0.5,0.3-0.8,0.3s-0.5-0.1-0.7-0.2c-0.2-0.2-0.3-0.4-0.3-0.7v-6.3c0-0.4,0.1-0.7,0.3-0.9
				c0.2-0.2,0.5-0.3,0.9-0.3h6.8c0.8,0,1.2,0.3,1.2,1s-0.4,1-1.2,1h-5.5v3.9c0.7-0.5,1.5-0.7,2.5-0.7
				C127.8,213.7,128.6,213.9,129.3,214.2z"/>
		</g>
	</g>
</g>
</svg>
