<?xml version="1.0" encoding="utf-8"?>
<!-- Generator: Adobe Illustrator 22.1.0, SVG Export Plug-In . SVG Version: 6.00 Build 0)  -->
<svg version="1.1" id="Layer_1" xmlns="http://www.w3.org/2000/svg" xmlns:xlink="http://www.w3.org/1999/xlink" x="0px" y="0px"
	 viewBox="0 0 300 300" style="enable-background:new 0 0 300 300;" xml:space="preserve">
<style type="text/css">
	.st0{fill:#56BED6;}
	.st1{fill:#FFFFFF;}
</style>
<g>
	<g>
		<path class="st0" d="M176,237.2L176,237.2c-11.2,0-20.3-9.1-20.3-20.3v0c0-11.2,9.1-20.3,20.3-20.3h0c11.2,0,20.3,9.1,20.3,20.3v0
			C196.3,228.2,187.2,237.2,176,237.2z"/>
		<g>
			<path class="st1" d="M181.6,218.3c0.2,0.2,0.3,0.4,0.3,0.8c0,0.7-0.4,1-1.2,1h-1v1.6c0,0.4-0.1,0.7-0.4,1
				c-0.2,0.2-0.5,0.3-0.9,0.3s-0.7-0.1-0.9-0.3c-0.2-0.2-0.4-0.6-0.4-1V220h-5.3c-0.4,0-0.7-0.1-0.9-0.3c-0.2-0.2-0.3-0.5-0.3-0.8
				c0-0.3,0.1-0.6,0.3-0.9l6.3-9c0.1-0.2,0.3-0.3,0.5-0.4s0.4-0.2,0.6-0.2c0.4,0,0.7,0.1,0.9,0.3s0.4,0.6,0.4,1v8.3h1
				C181.1,218,181.4,218.1,181.6,218.3z M173.3,218h3.8v-5.5L173.3,218z"/>
		</g>
	</g>
</g>
</svg>
