<?xml version="1.0" encoding="utf-8"?>
<!-- Generator: Adobe Illustrator 22.1.0, SVG Export Plug-In . SVG Version: 6.00 Build 0)  -->
<svg version="1.1" id="Layer_1" xmlns="http://www.w3.org/2000/svg" xmlns:xlink="http://www.w3.org/1999/xlink" x="0px" y="0px"
	 viewBox="0 0 400 400" style="enable-background:new 0 0 400 400;" xml:space="preserve">
<style type="text/css">
	.st0{fill:#FFFFFF;}
	.st1{fill:#993E29;}
	.st2{fill:#A8503C;}
	.st3{fill:#00779E;}
	.st4{fill:#55C2E3;}
	.st5{fill:#66AD66;}
	.st6{fill:#4D984E;}
	.st7{fill:#FC5E71;}
	.st8{fill:#FD747F;}
	.st9{fill:#FEC37D;}
	.st10{fill:#F2A559;}
	.st11{fill:#691869;}
	.st12{fill:#00CDC8;}
	.st13{font-family:'Nunito-Bold';}
	.st14{font-size:47.2355px;}
</style>
<g>
	<g>
		<g>
			<g>
				<path class="st0" d="M260.2,268.4c-0.5,0.1-0.8,0.1-1.3-0.1l-32.9-12.2c-0.5-0.2-1.1-0.6-1.5-1.3s-0.2-1.3,0-2.1l13-35.1
					c1.1-3.3,3.9-5.5,7.2-6c1.5-0.2,3.1,0.1,4.5,0.4l20.6,7.7c2.2,0.7,4.3,2.5,5.1,4.7c1.1,2.2,1.2,4.8,0.2,7l-13,34.8
					C261.9,267.6,261.2,268.2,260.2,268.4z"/>
				<path class="st0" d="M245.2,214.1c1-0.1,2.1,0,3.2,0.3l20.6,7.7c3.6,1.3,5.1,5,3.8,8.6l-13,35.1l-32.9-12.2l13-35.1
					C240.8,216,242.9,214.4,245.2,214.1 M244.5,209c-4.3,0.6-7.8,3.4-9.3,7.6l-13,35.1c-0.6,1.4-0.4,2.7,0,3.9
					c0.7,1.2,1.6,2.1,3,2.7l32.9,12.2c0.8,0.4,1.6,0.3,2.6,0.1c1.8-0.3,3.4-1.5,4.2-3.2l13-35.1c1.2-2.8,1-6.1-0.2-9.1
					c-1.2-2.9-3.6-5.2-6.6-6.1l-20.8-7.4C248.4,209,246.5,208.7,244.5,209L244.5,209z"/>
			</g>
			<g>
				<g>
					<path class="st0" d="M249.8,239.2c-0.5,0.1-0.8,0.1-1.3-0.1l-9.9-3.8c-0.5-0.2-1.1-0.6-1.5-1.3c-0.4-0.7-0.2-1.3,0-2.1
						l4.7-12.9c0.5-1.6,2-2.6,3.8-2.9c0.8-0.1,1.6,0,2.4,0.2l8.2,3c1.4,0.6,2.1,2,1.5,3.4l-5.5,14.5
						C251.5,238.4,250.8,239,249.8,239.2z"/>
					<path class="st0" d="M245.8,218.7c0.3,0,0.8-0.1,1.1,0.1l8.2,3l-5.5,14.5l-9.9-3.8l4.7-12.9
						C244.6,219.4,245.1,218.8,245.8,218.7 M245.1,213.6c-2.5,0.4-4.9,2.3-5.6,4.7l-4.7,12.9c-0.9,2.7,0.3,5.7,3,6.6l9.9,3.8
						c0.8,0.4,1.6,0.3,2.6,0.1c1.8-0.3,3.4-1.5,4.2-3.2l5.5-14.5c0.9-2.7-0.3-5.7-3-6.6l-8.2-3C247.4,213.5,246.4,213.4,245.1,213.6
						L245.1,213.6z"/>
				</g>
				<g>
					<path class="st0" d="M264.3,244.4c-0.5,0.1-0.8,0.1-1.3-0.1l-9.9-3.8c-1.4-0.6-2.1-2-1.5-3.4l5.5-14.5c0.2-0.5,0.6-1.1,1.3-1.5
						c0.3,0,0.5-0.1,0.8-0.1c0.5-0.1,0.8-0.1,1.3,0.1l8.2,3c2.5,0.9,3.6,3.6,2.7,5.9l-4.7,12.9C266,243.6,265.1,244.3,264.3,244.4z"
						/>
					<path class="st0" d="M259.3,223.5l8.2,3c1.1,0.4,1.5,1.6,1.2,2.7l-4.7,12.9l-9.9-3.8L259.3,223.5 M258.5,218.4
						c-1.8,0.3-3.4,1.5-4.2,3.2l-5.5,14.5c-0.6,1.4-0.4,2.7,0,3.9c0.7,1.2,1.6,2.1,3,2.7l9.9,3.8c0.8,0.4,1.6,0.3,2.6,0.1
						c1.8-0.3,3.4-1.5,4.2-3.2l4.7-12.9c0.8-1.9,0.5-3.7-0.2-5.4s-2.3-3.1-3.9-3.9l-8.2-3C260.3,218.2,259.3,218.3,258.5,218.4
						L258.5,218.4z"/>
				</g>
				<g>
					<path class="st0" d="M243.2,257c-0.5,0.1-0.8,0.1-1.3-0.1l-10.1-3.8c-0.5-0.2-1.1-0.6-1.5-1.3s-0.2-1.3,0-2.1l5.1-13.7
						c0.2-0.5,0.6-1.1,1.3-1.5c0.3,0,0.5-0.1,0.8-0.1c0.5-0.1,0.8-0.1,1.3,0.1l10.1,3.8c1.4,0.6,2.1,2,1.5,3.4l-5.1,13.7
						C244.9,256.2,244,256.9,243.2,257z"/>
					<path class="st0" d="M237.8,237l10.1,3.8l-5.1,13.7l-10.1-3.8L237.8,237 M237.1,231.9c-0.5,0.1-1,0.1-1.5,0.5
						c-1.2,0.7-2.1,1.6-2.7,3l-5.1,13.7c-0.9,2.7,0.3,5.7,3,6.6l10.1,3.8c0.8,0.4,1.6,0.3,2.6,0.1c0.5-0.1,1-0.1,1.5-0.5
						c1.2-0.7,2.1-1.6,2.7-3l5.1-13.7c0.9-2.7-0.3-5.7-3-6.6l-10.1-3.8C238.9,231.9,238.1,231.7,237.1,231.9L237.1,231.9z"/>
				</g>
				<g>
					<path class="st0" d="M257.5,262.2c-0.5,0.1-0.8,0.1-1.3-0.1l-10.1-3.8c-1.4-0.6-2.1-2-1.5-3.4l5.1-13.7
						c0.4-0.8,1.1-1.5,2.1-1.6c0.5-0.1,0.8-0.1,1.3,0.1l10.1,3.8c0.5,0.2,1.1,0.6,1.5,1.3c0.4,0.7,0.2,1.3,0,2.1l-5.1,13.7
						c-0.2,0.5-0.6,1.1-1.3,1.5C258,262.2,257.7,262.2,257.5,262.2z"/>
					<path class="st0" d="M252.3,242.4l10.1,3.8l-5.1,13.7l-10.1-3.8L252.3,242.4 M251.6,237.3c-0.5,0.1-1,0.1-1.5,0.5
						c-1.2,0.7-2.1,1.6-2.7,3l-5.1,13.7c-0.9,2.7,0.3,5.7,3,6.6l10.1,3.8c0.8,0.4,1.6,0.3,2.6,0.1c0.5-0.1,1-0.1,1.5-0.5
						c1.2-0.7,2.1-1.6,2.7-3l5.1-13.7c0.9-2.7-0.3-5.7-3-6.6l-10.1-3.8C253.2,237.4,252.4,237.2,251.6,237.3L251.6,237.3z"/>
				</g>
			</g>
			<g>
				<path class="st0" d="M245.6,297.7c-1.5,0.2-3.1-0.1-4.5-0.4l-20.6-7.7c-2.2-1-4.3-2.5-5.1-4.7c-1.1-2.2-1.2-4.8-0.2-7l8.1-21.9
					c0.2-0.5,0.6-1.1,1.3-1.5c0.3,0,0.5-0.1,0.8-0.1c0.5-0.1,0.8-0.1,1.3,0.1l32.9,12.2c1.4,0.6,2.1,2,1.5,3.4l-8.1,21.9
					C251.7,295,248.9,297.2,245.6,297.7z"/>
				<path class="st0" d="M225.7,256.6l32.9,12.2l-8.1,21.9c-0.9,2.5-3.1,4.1-5.4,4.4c-1,0.1-2.1,0-3.2-0.3l-20.6-7.7
					c-3.6-1.3-5.1-5-3.8-8.6L225.7,256.6 M225,251.5c-1.8,0.3-3.4,1.5-4.2,3.2l-8.1,21.9c-2.3,6,0.8,12.9,6.8,15.1l20.6,7.7
					c1.9,0.8,3.8,1,5.8,0.7c4.3-0.6,7.8-3.4,9.3-7.6l8.1-21.9c0.6-1.4,0.4-2.7,0-3.9c-0.7-1.2-1.6-2.1-3-2.7L227.4,252
					C226.6,251.6,225.8,251.4,225,251.5L225,251.5z"/>
			</g>
			<g>
				<path class="st0" d="M257.1,275.8c-2,0.3-4-0.5-5.2-1.9c0-0.3-0.3-0.2-0.5-0.2l-3.6,0.5c-2,0.3-3.7-0.5-5.2-1.9l-2.5-2.8
					c0-0.3-0.3-0.2-0.5-0.2L236,270c-2,0.3-4-0.5-5.2-1.9l-2.5-2.8c0-0.3-0.3-0.2-0.5-0.2c-2,0.3-4-0.5-5.2-2.1
					c-1.3-1.6-1.6-3.7-0.8-5.6l2.8-7.7c0.8-1.9,2.6-3.5,4.7-3.8c1-0.1,1.8,0,2.9,0.4l29.6,11.1c1.4,0.6,2.6,1.7,3.3,3.2
					c0.7,1.5,0.7,3,0.1,4.4l-2.8,7.7C261,274,259.4,275.5,257.1,275.8L257.1,275.8z"/>
				<path class="st0" d="M229.2,248.1c0.5-0.1,1-0.1,1.6,0.3l29.6,11.1c1.6,0.5,2.4,2.5,1.9,4.1l-2.8,7.7c-0.4,1.1-1.5,2-2.5,2.2
					c-1,0.1-2.1-0.2-3-1.1c-0.7-0.9-1.7-1.3-3-1.1l-3.6,0.5l0,0c-1,0.1-2.1-0.2-2.8-1.2l-2.5-2.8c-0.7-0.9-1.7-1.3-3-1.1l-3.6,0.5
					l0,0c-1,0.1-2.1-0.2-2.8-1.2l-2.5-2.8c-0.7-0.9-1.7-1.3-3-1.1c-2.5,0.4-4.4-2-3.5-4.4l2.8-7.7
					C227,248.9,227.9,248.2,229.2,248.1 M228.5,243c-3.1,0.4-5.6,2.6-6.8,5.4l-2.8,7.7c-1.2,2.8-0.5,5.8,1.4,8.1
					c1.6,2.1,4.1,3.1,6.7,3.2l1.9,2.1c1.9,2.1,4.6,3.2,7.4,2.8l2.8-0.4l1.9,2.1c1.9,2.1,4.6,3.2,7.4,2.8l2.8-0.4
					c1.8,1.6,4.3,2.5,6.8,2.2c3.1-0.4,5.6-2.6,6.8-5.4l2.8-7.7c0.8-1.9,0.7-4.3-0.1-6.2c-0.8-2-2.6-3.8-4.8-4.5l-30.2-11.3
					C231.3,242.8,229.8,242.8,228.5,243L228.5,243z"/>
			</g>
		</g>
		<g>
			<path class="st1" d="M268.9,222.2l-20.6-7.7c-3.6-1.3-7.2,0.5-8.6,3.8l-13,35.1l32.9,12.2l13-35.1
				C274.1,227.4,272.5,223.5,268.9,222.2z"/>
			<g>
				<path class="st2" d="M249.4,236.6l5.5-14.5l-8.2-3c-1.1-0.4-2.3,0.1-2.7,1.2l-4.7,12.9L249.4,236.6z"/>
				<path class="st2" d="M253.8,238.1l9.9,3.8l4.7-12.9c0.4-1.1-0.1-2.3-1.2-2.7l-8.2-3L253.8,238.1z"/>
				
					<rect x="233.1" y="240.4" transform="matrix(0.3496 -0.9369 0.9369 0.3496 -73.9618 384.9964)" class="st2" width="14.4" height="10.8"/>
				
					<rect x="247.6" y="245.8" transform="matrix(0.3496 -0.9369 0.9369 0.3496 -69.6631 402.0939)" class="st2" width="14.4" height="10.8"/>
			</g>
			<path class="st3" d="M225.7,256.6l-8.1,21.9c-1.3,3.6,0.5,7.2,3.8,8.6l20.6,7.7c3.6,1.3,7.2-0.5,8.6-3.8l8.1-21.9L225.7,256.6z"
				/>
			<path class="st4" d="M260.4,259.2l-29.6-11.1c-1.6-0.5-3.6,0.3-4.1,1.9l-2.8,7.7c-0.9,2.5,0.9,4.8,3.5,4.4c1-0.1,2.1,0.2,3,1.1
				l2.5,2.8c0.7,0.9,1.7,1.3,3,1.1l3.6-0.5c1-0.1,2.1,0.2,3,1.1l2.5,2.8c0.7,0.9,1.7,1.3,3,1.1l3.6-0.5c1-0.1,2.1,0.2,3,1.1
				c1.6,1.9,4.6,1.4,5.6-1l2.8-7.7C262.9,261.7,262.1,259.8,260.4,259.2z"/>
		</g>
	</g>
	<g>
		<g>
			<g>
				<g>
					<path class="st0" d="M51.7,129.2c-4.6,0-7.5-3.1-8.5-4.9c0,0,0-0.3-0.3-0.3c-1-3.1-1.3-9.5,6.7-13.4c2.3-1,5.1-1.8,8.5-1.8
						c4.4,0,8,1,9.5,1.3l0,0c1,0.3,2.1,1.5,2.1,2.6c0,0.3,0,0.8-0.3,1c-0.8,1.8-4.6,10.3-11.8,13.6
						C55.5,128.6,53.5,129.2,51.7,129.2z"/>
					<path class="st0" d="M58.1,111.7c4.1,0,8,1,8.7,1.3c0,0,0,0,0,0.3c-0.5,1-4.1,9.3-10.5,12.3c-1.8,0.8-3.6,1.3-4.9,1.3
						c-4.4,0-6.2-3.3-6.2-3.3s-2.3-6.4,5.4-10C52.9,112.2,55.8,111.7,58.1,111.7 M58.1,106.5L58.1,106.5c-3.6,0-6.9,0.8-9.5,2.1
						c-9,4.1-9.8,12.1-8,16.5c0,0.3,0.3,0.5,0.3,0.8c0.3,0.5,3.6,6.2,10.8,6.2c2.3,0,4.6-0.5,6.9-1.8c7.7-3.6,11.8-12.3,13.1-14.9
						c0.3-0.5,0.5-1.3,0.5-2.1c0-2.6-1.8-4.6-4.1-5.1C66.3,107.5,62.5,106.5,58.1,106.5L58.1,106.5z"/>
				</g>
				<g>
					<path class="st0" d="M51.7,129.2c-5.4,0-9-4.4-9-6.2c0-1,0.5-1.8,1.5-2.3l21.6-10c0.3-0.3,0.8-0.3,1-0.3c0.5,0,0.8,0,1,0.3
						c0.5,0.3,1.3,1,1.3,1.5c0,0.5,0.3,1.5-0.3,2.1c-0.8,1.5-4.6,10-11.6,13.4C55.5,128.6,53.5,129.2,51.7,129.2L51.7,129.2z"/>
					<path class="st0" d="M66.8,112.9C66.8,112.9,66.8,113.2,66.8,112.9c-0.3,1.3-3.9,9.5-10.3,12.3c-1.8,0.8-3.6,1.3-4.9,1.3
						c-4.4,0-6.4-3.3-6.4-3.6L66.8,112.9 M66.8,107.8c-0.8,0-1.5,0.3-2.3,0.5l-21.6,10c-1.8,0.8-2.8,2.6-2.8,4.6
						c0,3.3,4.9,8.7,11.6,8.7c2.3,0,4.6-0.5,6.9-1.8c7.7-3.6,11.8-12.1,12.9-14.9c1-2.6,0-5.7-2.6-6.9
						C68.4,108.1,67.6,107.8,66.8,107.8L66.8,107.8z"/>
				</g>
				<g>
					<path class="st0" d="M40.3,140.7c-2.1,0-3.9-1.8-3.9-3.9v-30.1c0-2.1,1.8-3.9,3.9-3.9c2.1,0,3.9,1.8,3.9,3.9v12.6
						c13.6-5.9,21.1-9,22.4-9c1,0,1.8,0.5,2.3,1.3c1.3,2.8,1.5,3.1-24.7,16v9.3C44.2,139.2,42.7,140.7,40.3,140.7z"/>
					<path class="st0" d="M40.3,105.5c0.8,0,1.3,0.5,1.3,1.3v16.5c5.1-2.3,23.7-10.3,25-10.3l0,0c0.3,0.5-20.6,11.1-25,13.1v10.8
						c0,0.8-0.5,1.3-1.3,1.3c-0.8,0-1.3-0.5-1.3-1.3v-10.5v-2.8V107C39,106,39.6,105.5,40.3,105.5 M40.3,100.3
						c-3.6,0-6.4,2.8-6.4,6.4v16.5v2.8v10.8c0,3.6,2.8,6.4,6.4,6.4c3.6,0,6.4-2.8,6.4-6.4v-7.5c2.8-1.5,7.5-3.6,11.6-5.9
						c3.3-1.8,5.9-3.1,7.7-4.1c3.1-1.8,7.5-4.1,5.4-8.7c0,0,0-0.3-0.3-0.3c-0.8-1.5-2.8-2.8-4.6-2.8c-1,0-2.3,0-19.8,7.5v-8.5
						C46.8,103.2,43.9,100.3,40.3,100.3L40.3,100.3z"/>
				</g>
				<g>
					<g>
						<path class="st0" d="M40.3,101.1c-5.4,0-6.4-10.8-6.4-12.9c0-4.4,2.3-7.2,6.4-7.2s6.4,2.8,6.4,7.2
							C46.8,90.3,45.7,101.1,40.3,101.1z"/>
						<path class="st0" d="M40.3,83.6c2.1,0,3.9,1,3.9,4.6c0,3.6-1.8,10.3-3.9,10.3c-2.1,0-3.9-6.7-3.9-10.3
							C36.5,84.6,38.3,83.6,40.3,83.6 M40.3,78.5c-5.4,0-9,3.9-9,9.8c0,3.3,1.5,15.4,9,15.4s9-12.1,9-15.4
							C49.3,82.6,46,78.7,40.3,78.5L40.3,78.5L40.3,78.5z"/>
					</g>
					<g>
						<path class="st0" d="M40.3,122c-4.1,0-6.4-2.6-6.4-7.2c0-2.1,1.3-12.9,6.4-12.9c5.4,0,6.4,10.8,6.4,12.9
							C46.8,119.4,44.5,122,40.3,122z"/>
						<path class="st0" d="M40.3,104.7c2.1,0,3.9,6.7,3.9,10.3c0,3.6-1.8,4.6-3.9,4.6c-2.1,0-3.9-1-3.9-4.6S38.3,104.7,40.3,104.7
							 M40.3,99.6c-7.5,0-9,12.1-9,15.4c0,5.9,3.6,9.8,9,9.8s9-3.9,9-9.8C49.3,111.7,47.8,99.6,40.3,99.6L40.3,99.6z"/>
					</g>
				</g>
				<g>
					<g>
						<path class="st0" d="M43.7,102.4c-1.5,0-2.3-0.5-2.8-1c-3.9-3.9,3.1-12.1,4.4-13.6c1.5-1.5,3.3-2.6,5.1-2.6
							c1.5,0,3.1,0.8,4.4,2.1s2.1,2.8,2.1,4.6c0,1.8-0.8,3.6-2.6,5.1C52.2,99.1,47,102.4,43.7,102.4z"/>
						<path class="st0" d="M50.4,87.7c1,0,1.8,0.5,2.6,1.3c1.5,1.5,2.1,3.6-0.5,5.9c-2.1,2.1-6.4,4.9-8.7,4.9c-0.5,0-0.8,0-1-0.3
							c-1.5-1.5,1.8-7.5,4.4-10C48.1,88.2,49.3,87.7,50.4,87.7 M50.4,82.6L50.4,82.6c-2.6,0-4.9,1-6.9,3.3
							c-2.3,2.3-9.8,11.8-4.4,17.2c0.8,0.8,2.3,1.8,4.6,1.8c4.6,0,10.5-4.4,12.6-6.4c2.1-2.1,3.3-4.4,3.3-6.9c0-1.5-0.5-4.1-2.8-6.4
							C54.2,83.1,51.9,82.6,50.4,82.6L50.4,82.6z"/>
					</g>
					<g>
						<path class="st0" d="M30.6,118.1c-1.5,0-3.1-0.8-4.4-2.1c-2.8-2.8-2.8-6.4,0.5-9.8c2.1-2.1,6.9-5.7,10.5-5.7
							c1.5,0,2.6,0.5,3.1,1c1.5,1.5,1.5,4.1-0.3,7.5c-1,2.3-2.8,4.6-4.1,5.9C33.9,117.1,32.1,118.1,30.6,118.1L30.6,118.1z"/>
						<path class="st0" d="M37,103.4c0.5,0,0.8,0,1,0.3c1.5,1.5-1.8,7.5-4.4,10c-1.3,1.3-2.3,1.8-3.3,1.8c-1,0-1.8-0.5-2.6-1.3
							c-1.5-1.5-2.1-3.6,0.5-5.9C30.3,106,34.7,103.4,37,103.4 M37,98.3c-4.6,0-10.3,4.4-12.3,6.4c-4.1,4.1-4.4,9.3-0.5,13.4
							c2.3,2.3,4.6,2.8,6.4,2.8c2.6,0,4.9-1,6.9-3.3c2.3-2.3,9.8-11.8,4.4-17.2C40.6,98.8,39,98.3,37,98.3L37,98.3z"/>
					</g>
				</g>
				<g>
					<g>
						<path class="st0" d="M53.7,108.1c-2.1,0-12.9-1.3-12.9-6.4c0-5.4,10.8-6.4,12.9-6.4c6.2,0,7.2,3.9,7.2,6.2
							C60.7,105.2,57.8,108.1,53.7,108.1z"/>
						<path class="st0" d="M53.7,97.5c3.6,0,4.6,1.3,4.6,3.6c0,2.1-1,4.4-4.6,4.4s-10.3-1.8-10.3-3.9S50.1,97.5,53.7,97.5
							 M53.7,92.4c-3.3,0-15.4,1.5-15.4,9c0,7.5,12.1,9,15.4,9c5.9,0,9.8-3.9,9.8-9.5C63.2,97,60.7,92.4,53.7,92.4L53.7,92.4z"/>
					</g>
					<g>
						<path class="st0" d="M27.2,108.1c-4.4,0-7.2-2.3-7.2-6.4s2.6-6.4,7.2-6.4c2.1,0,12.9,1.3,12.9,6.4
							C39.8,106.8,29,108.1,27.2,108.1z"/>
						<path class="st0" d="M27.2,97.5c3.6,0,10.3,1.8,10.3,3.9s-6.7,3.9-10.3,3.9s-4.6-1.8-4.6-3.9C22.6,99.3,23.6,97.5,27.2,97.5
							 M27.2,92.4c-5.9,0-9.8,3.6-9.8,9c0,5.4,3.9,9,9.8,9c3.3,0,15.4-1.5,15.4-9S30.3,92.4,27.2,92.4L27.2,92.4z"/>
					</g>
				</g>
				<g>
					<g>
						<path class="st0" d="M50.4,118.1c-1.8,0-3.6-0.8-5.1-2.6c-1.5-1.5-3.1-3.9-4.1-5.9c-1.8-3.3-1.8-5.9-0.3-7.5
							c0.5-0.5,1.5-1,3.1-1c3.6,0,8.7,3.6,10.5,5.7c1.8,1.5,2.6,3.3,2.6,5.1c0,1.5-0.8,3.1-2.1,4.4
							C53.5,117.3,51.9,118.1,50.4,118.1z"/>
						<path class="st0" d="M43.7,103.4c2.3,0,6.7,2.8,8.7,4.9c2.6,2.6,2.1,4.4,0.5,5.9c-0.8,0.8-1.5,1.3-2.6,1.3
							c-1,0-2.1-0.5-3.3-1.8c-2.6-2.6-5.9-8.5-4.4-10C42.7,103.4,43.2,103.4,43.7,103.4 M43.7,98.3L43.7,98.3
							c-1.8,0-3.6,0.8-4.9,1.8c-1.5,1.5-3.1,4.9-0.3,10.5c1.3,2.6,3.1,5.1,4.6,6.7c2.1,2.1,4.6,3.3,6.9,3.3c1.5,0,3.9-0.5,6.2-2.8
							c3.9-3.9,3.6-9-0.5-13.4C54,102.4,48.3,98.3,43.7,98.3L43.7,98.3z"/>
					</g>
					<g>
						<path class="st0" d="M37,102.4c-3.3,0-8.5-3.3-10.8-5.7c-1.5-1.5-2.6-3.3-2.6-5.1c0-1.5,0.8-3.1,2.1-4.6
							c1.3-1.3,2.8-2.1,4.4-2.1c1.8,0,3.6,0.8,5.1,2.6c1.5,1.5,8.2,9.8,4.4,13.6C39.6,101.6,38.5,102.4,37,102.4L37,102.4z"/>
						<path class="st0" d="M30.3,87.7c1,0,2.1,0.5,3.3,1.8c2.6,2.6,5.9,8.5,4.4,10c-0.3,0.3-0.5,0.3-1,0.3c-2.3,0-6.7-2.8-8.7-4.9
							c-2.6-2.6-2.1-4.4-0.5-5.9C28.5,88.2,29.5,87.7,30.3,87.7 M30.3,82.6c-1.5,0-3.9,0.5-6.2,2.8c-2.3,2.3-2.8,4.6-2.8,6.4
							c0,2.6,1,4.9,3.3,6.9c2.1,2.1,7.7,6.2,12.3,6.2c2.3,0,3.9-1,4.6-1.8c6.2-6.2-4.4-17.2-4.4-17.2C35.2,83.6,32.9,82.6,30.3,82.6
							L30.3,82.6z"/>
					</g>
				</g>
				<g>
					<g>
						<circle class="st0" cx="40.3" cy="101.6" r="7.2"/>
						<path class="st0" d="M40.3,96.7c2.6,0,4.6,2.1,4.6,4.6c0,2.6-2.1,4.6-4.6,4.6c-2.6,0-4.6-1.8-4.6-4.4S37.8,96.7,40.3,96.7
							 M40.3,91.6c-5.4,0-9.8,4.4-9.8,9.8s4.4,9.8,9.8,9.8s9.8-4.4,9.8-9.8C50.1,96,45.7,91.6,40.3,91.6L40.3,91.6z"/>
					</g>
					<g>
						<path class="st0" d="M30,167c-2.1,0-3.9-1.5-4.4-3.6l-5.4-27c-0.3-0.8,0-1.5,0.5-2.1c0.5-0.5,1.3-1,2.1-1h35
							c0.8,0,1.5,0.3,2.1,1c0.5,0.5,0.8,1.3,0.5,2.1l-5.4,27c-0.5,2.1-2.1,3.6-4.4,3.6H30z"/>
						<path class="st0" d="M57.8,135.8l-5.4,27c-0.3,0.8-0.8,1.5-1.8,1.5H30c-0.8,0-1.5-0.5-1.8-1.5l-5.4-27H57.8 M57.8,130.7h-35
							c-1.5,0-3.1,0.8-3.9,1.8c-1,1.3-1.3,2.8-1,4.4l5.4,27c0.8,3.3,3.6,5.7,6.7,5.7h20.6c3.3,0,6.2-2.3,6.7-5.7l5.7-27
							c0.3-1.5,0-3.1-1-4.4C60.9,131.5,59.4,130.7,57.8,130.7L57.8,130.7z M57.8,141L57.8,141L57.8,141L57.8,141z"/>
					</g>
				</g>
				<g>
					<path class="st0" d="M20.3,143.3c-1.8,0-3.6-1.5-3.6-3.6v-4.9c0-2.1,1.5-3.6,3.6-3.6h40.4c1.8,0,3.6,1.5,3.6,3.6v4.9
						c0,1.8-1.5,3.6-3.6,3.6H20.3z"/>
					<path class="st0" d="M60.7,134c0.5,0,1,0.5,1,1v4.9c0,0.5-0.5,1-1,1H20.3c-0.5,0-1-0.5-1-1v-4.9c0-0.5,0.5-1,1-1H60.7
						 M60.7,128.9H20.3c-3.3,0-6.2,2.8-6.2,6.2v4.9c0,3.3,2.8,6.2,6.2,6.2h40.4c3.3,0,6.2-2.8,6.2-6.2v-4.9
						C66.6,131.7,64,128.9,60.7,128.9L60.7,128.9z"/>
				</g>
				<g>
					<path class="st0" d="M26.2,155.1c-1.3,0-2.3-0.8-2.6-2.1l-0.5-2.8c-0.3-0.8,0-1.5,0.5-2.1c0.5-0.5,1.3-1,2.1-1h29.6
						c0.8,0,1.5,0.3,2.1,1c0.5,0.8,0.8,1.3,0.5,2.1l-0.5,2.8c-0.3,1.3-1.3,2.1-2.6,2.1H26.2z"/>
					<path class="st0" d="M55,149.7L55,149.7 M55,149.7l-0.5,2.8H26.2l-0.5-2.8H55 M55,144.6L55,144.6H25.7c-1.5,0-3.1,0.8-3.9,1.8
						c-1,1.3-1.3,2.8-1,4.4l0.5,2.8c0.5,2.3,2.6,4.1,5.1,4.1h28.3c2.6,0,4.6-1.8,5.1-4.1l0.5-2.6c0-0.5,0.3-0.8,0.3-1.3
						C60.1,146.9,58.1,144.6,55,144.6L55,144.6z M55,154.9L55,154.9L55,154.9L55,154.9z"/>
				</g>
			</g>
			<g>
				<path class="st5" d="M66.8,112.9C66.8,112.9,66.8,113.2,66.8,112.9c-0.3,1.3-3.9,9.5-10.3,12.3c-8,3.6-11.1-2.3-11.1-2.3
					s-2.3-6.4,5.4-10C57.1,110.1,65.5,112.7,66.8,112.9z"/>
				<path class="st5" d="M56.3,125.3c6.4-3.1,10-11.1,10.5-12.3c0,0,0,0,0-0.3l-21.6,10C45.2,123.2,48.6,129.2,56.3,125.3z"/>
				<path class="st6" d="M41.6,123.2v-16.5c0-0.8-0.5-1.3-1.3-1.3c-0.8,0-1.3,0.5-1.3,1.3v16.5v2.8v10.8c0,0.8,0.5,1.3,1.3,1.3
					c0.8,0,1.3-0.5,1.3-1.3v-10.5c4.4-2.1,25.5-12.6,25-13.1C66.6,112.4,47,120.9,41.6,123.2z"/>
				<g>
					<path class="st7" d="M44.2,88.2c0,3.6-1.8,10.3-3.9,10.3c-2.1,0-3.9-6.7-3.9-10.3c0-3.6,1.8-4.6,3.9-4.6
						C42.7,83.9,44.2,84.9,44.2,88.2z"/>
					<path class="st7" d="M44.2,114.7c0-3.6-1.8-10.3-3.9-10.3c-2.1,0-3.9,6.7-3.9,10.3c0,3.6,1.8,4.6,3.9,4.6
						C42.4,119.4,44.2,118.4,44.2,114.7z"/>
				</g>
				<g>
					<path class="st8" d="M52.4,94.9c-2.6,2.6-8.5,5.9-10,4.4c-1.5-1.5,1.8-7.5,4.4-10c2.6-2.6,4.4-2.1,5.9-0.5
						C54.5,90.6,55,92.6,52.4,94.9z"/>
					<path class="st8" d="M33.6,113.7c2.6-2.6,5.9-8.5,4.4-10c-1.5-1.5-7.5,1.8-10,4.4c-2.6,2.6-2.1,4.4-0.5,5.9
						C29.3,115.8,31.3,116.3,33.6,113.7z"/>
				</g>
				<g>
					<path class="st7" d="M53.7,105.5c-3.6,0-10.3-1.8-10.3-3.9s6.7-3.9,10.3-3.9s4.6,1.3,4.6,3.6C58.1,103.2,57.1,105.5,53.7,105.5
						z"/>
					<path class="st7" d="M27.2,105.5c3.6,0,10.3-1.8,10.3-3.9s-6.7-3.9-10.3-3.9s-4.6,1.8-4.6,3.9
						C22.6,103.7,23.6,105.5,27.2,105.5z"/>
				</g>
				<g>
					<path class="st8" d="M47,113.7c-2.6-2.6-5.9-8.5-4.4-10s7.5,1.8,10,4.4c2.6,2.6,2.1,4.4,0.5,5.9
						C51.4,115.8,49.3,116.3,47,113.7z"/>
					<path class="st8" d="M28.2,94.9c2.6,2.6,8.5,5.9,10,4.4s-1.8-7.5-4.4-10c-2.6-2.6-4.4-2.1-5.9-0.5
						C26.2,90.6,25.7,92.6,28.2,94.9z"/>
				</g>
				<g>
					<circle class="st9" cx="40.3" cy="101.6" r="4.6"/>
					<path class="st9" d="M50.6,164.4H30c-0.8,0-1.5-0.5-1.8-1.5l-5.4-27h35l-5.4,27C52.2,163.9,51.7,164.4,50.6,164.4z"/>
				</g>
				<path class="st10" d="M60.7,140.7H20.3c-0.5,0-1-0.5-1-1v-4.9c0-0.5,0.5-1,1-1h40.4c0.5,0,1,0.5,1,1v4.9
					C61.4,140.2,61.2,140.7,60.7,140.7z"/>
				<polygon class="st10" points="54.5,152.6 55,149.7 25.7,149.7 26.2,152.6 				"/>
			</g>
		</g>
		<g>
			<path class="st11" d="M104.3,131.9c0.6,0.6,0.9,1.3,0.9,2.2c0,0.9-0.3,1.6-0.9,2.2c-0.6,0.6-1.3,0.9-2.2,0.9H91.3v10.8
				c0,0.9-0.3,1.6-0.9,2.2c-0.6,0.6-1.3,0.9-2.2,0.9c-0.9,0-1.6-0.3-2.2-0.9c-0.6-0.6-0.9-1.3-0.9-2.2v-10.8H74.3
				c-0.9,0-1.6-0.3-2.2-0.9c-0.6-0.6-0.9-1.3-0.9-2.2c0-0.9,0.3-1.6,0.9-2.2c0.6-0.6,1.3-0.9,2.2-0.9h10.9v-10.9
				c0-0.9,0.3-1.6,0.9-2.2c0.6-0.6,1.3-0.9,2.2-0.9c0.9,0,1.6,0.3,2.2,0.9c0.6,0.6,0.9,1.3,0.9,2.2V131h10.9
				C103,131,103.7,131.3,104.3,131.9z"/>
		</g>
	</g>
	<g>
		<g>
			<g>
				<g>
					<path class="st0" d="M152.4,129.2c-4.6,0-7.5-3.1-8.5-4.9c0,0,0-0.3-0.3-0.3c-1-3.1-1.3-9.5,6.7-13.4c2.3-1,5.1-1.8,8.5-1.8
						c4.4,0,8,1,9.5,1.3l0,0c1,0.3,2.1,1.5,2.1,2.6c0,0.3,0,0.8-0.3,1c-0.8,1.8-4.6,10.3-11.8,13.6
						C156.3,128.6,154.2,129.2,152.4,129.2z"/>
					<path class="st0" d="M158.9,111.7c4.1,0,8,1,8.7,1.3c0,0,0,0,0,0.3c-0.5,1-4.1,9.3-10.5,12.3c-1.8,0.8-3.6,1.3-4.9,1.3
						c-4.4,0-6.2-3.3-6.2-3.3s-2.3-6.4,5.4-10C153.7,112.2,156.5,111.7,158.9,111.7 M158.9,106.5L158.9,106.5
						c-3.6,0-6.9,0.8-9.5,2.1c-9,4.1-9.8,12.1-8,16.5c0,0.3,0.3,0.5,0.3,0.8c0.3,0.5,3.6,6.2,10.8,6.2c2.3,0,4.6-0.5,6.9-1.8
						c7.7-3.6,11.8-12.3,13.1-14.9c0.3-0.5,0.5-1.3,0.5-2.1c0-2.6-1.8-4.6-4.1-5.1C167.1,107.5,163.2,106.5,158.9,106.5L158.9,106.5
						z"/>
				</g>
				<g>
					<path class="st0" d="M152.4,129.2c-5.4,0-9-4.4-9-6.2c0-1,0.5-1.8,1.5-2.3l21.6-10c0.3-0.3,0.8-0.3,1-0.3c0.5,0,0.8,0,1,0.3
						c0.5,0.3,1.3,1,1.3,1.5c0,0.5,0.3,1.5-0.3,2.1c-0.8,1.5-4.6,10-11.6,13.4C156.3,128.6,154.2,129.2,152.4,129.2L152.4,129.2z"/>
					<path class="st0" d="M167.6,112.9C167.6,112.9,167.6,113.2,167.6,112.9c-0.3,1.3-3.9,9.5-10.3,12.3c-1.8,0.8-3.6,1.3-4.9,1.3
						c-4.4,0-6.4-3.3-6.4-3.6L167.6,112.9 M167.6,107.8c-0.8,0-1.5,0.3-2.3,0.5l-21.6,10c-1.8,0.8-2.8,2.6-2.8,4.6
						c0,3.3,4.9,8.7,11.6,8.7c2.3,0,4.6-0.5,6.9-1.8c7.7-3.6,11.8-12.1,12.9-14.9c1-2.6,0-5.7-2.6-6.9
						C169.2,108.1,168.4,107.8,167.6,107.8L167.6,107.8z"/>
				</g>
				<g>
					<path class="st0" d="M141.1,140.7c-2.1,0-3.9-1.8-3.9-3.9v-30.1c0-2.1,1.8-3.9,3.9-3.9s3.9,1.8,3.9,3.9v12.6
						c13.6-5.9,21.1-9,22.4-9c1,0,1.8,0.5,2.3,1.3c1.3,2.8,1.5,3.1-24.7,16v9.3C145,139.2,143.4,140.7,141.1,140.7z"/>
					<path class="st0" d="M141.1,105.5c0.8,0,1.3,0.5,1.3,1.3v16.5c5.1-2.3,23.7-10.3,25-10.3l0,0c0.3,0.5-20.6,11.1-25,13.1v10.8
						c0,0.8-0.5,1.3-1.3,1.3s-1.3-0.5-1.3-1.3v-10.5v-2.8V107C139.8,106,140.3,105.5,141.1,105.5 M141.1,100.3
						c-3.6,0-6.4,2.8-6.4,6.4v16.5v2.8v10.8c0,3.6,2.8,6.4,6.4,6.4s6.4-2.8,6.4-6.4v-7.5c2.8-1.5,7.5-3.6,11.6-5.9
						c3.3-1.8,5.9-3.1,7.7-4.1c3.1-1.8,7.5-4.1,5.4-8.7c0,0,0-0.3-0.3-0.3c-0.8-1.5-2.8-2.8-4.6-2.8c-1,0-2.3,0-19.8,7.5v-8.5
						C147.5,103.2,144.7,100.3,141.1,100.3L141.1,100.3z"/>
				</g>
				<g>
					<g>
						<path class="st0" d="M141.1,101.1c-5.4,0-6.4-10.8-6.4-12.9c0-4.4,2.3-7.2,6.4-7.2s6.4,2.8,6.4,7.2
							C147.5,90.3,146.5,101.1,141.1,101.1z"/>
						<path class="st0" d="M141.1,83.6c2.1,0,3.9,1,3.9,4.6c0,3.6-1.8,10.3-3.9,10.3s-3.9-6.7-3.9-10.3
							C137.3,84.6,139.1,83.6,141.1,83.6 M141.1,78.5c-5.4,0-9,3.9-9,9.8c0,3.3,1.5,15.4,9,15.4s9-12.1,9-15.4
							C150.1,82.6,146.8,78.7,141.1,78.5L141.1,78.5L141.1,78.5z"/>
					</g>
					<g>
						<path class="st0" d="M141.1,122c-4.1,0-6.4-2.6-6.4-7.2c0-2.1,1.3-12.9,6.4-12.9c5.4,0,6.4,10.8,6.4,12.9
							C147.5,119.4,145.2,122,141.1,122z"/>
						<path class="st0" d="M141.1,104.7c2.1,0,3.9,6.7,3.9,10.3c0,3.6-1.8,4.6-3.9,4.6s-3.9-1-3.9-4.6S139.1,104.7,141.1,104.7
							 M141.1,99.6c-7.5,0-9,12.1-9,15.4c0,5.9,3.6,9.8,9,9.8s9-3.9,9-9.8C150.1,111.7,148.6,99.6,141.1,99.6L141.1,99.6z"/>
					</g>
				</g>
				<g>
					<g>
						<path class="st0" d="M144.5,102.4c-1.5,0-2.3-0.5-2.8-1c-3.9-3.9,3.1-12.1,4.4-13.6c1.5-1.5,3.3-2.6,5.1-2.6
							c1.5,0,3.1,0.8,4.4,2.1c1.3,1.3,2.1,2.8,2.1,4.6c0,1.8-0.8,3.6-2.6,5.1C152.9,99.1,147.8,102.4,144.5,102.4z"/>
						<path class="st0" d="M151.1,87.7c1,0,1.8,0.5,2.6,1.3c1.5,1.5,2.1,3.6-0.5,5.9c-2.1,2.1-6.4,4.9-8.7,4.9c-0.5,0-0.8,0-1-0.3
							c-1.5-1.5,1.8-7.5,4.4-10C148.8,88.2,150.1,87.7,151.1,87.7 M151.1,82.6L151.1,82.6c-2.6,0-4.9,1-6.9,3.3
							c-2.3,2.3-9.8,11.8-4.4,17.2c0.8,0.8,2.3,1.8,4.6,1.8c4.6,0,10.5-4.4,12.6-6.4c2.1-2.1,3.3-4.4,3.3-6.9c0-1.5-0.5-4.1-2.8-6.4
							C155,83.1,152.7,82.6,151.1,82.6L151.1,82.6z"/>
					</g>
					<g>
						<path class="st0" d="M131.3,118.1c-1.5,0-3.1-0.8-4.4-2.1c-2.8-2.8-2.8-6.4,0.5-9.8c2.1-2.1,6.9-5.7,10.5-5.7
							c1.5,0,2.6,0.5,3.1,1c1.5,1.5,1.5,4.1-0.3,7.5c-1,2.3-2.8,4.6-4.1,5.9C134.7,117.1,132.9,118.1,131.3,118.1L131.3,118.1z"/>
						<path class="st0" d="M137.8,103.4c0.5,0,0.8,0,1,0.3c1.5,1.5-1.8,7.5-4.4,10c-1.3,1.3-2.3,1.8-3.3,1.8s-1.8-0.5-2.6-1.3
							c-1.5-1.5-2.1-3.6,0.5-5.9C131.1,106,135.5,103.4,137.8,103.4 M137.8,98.3c-4.6,0-10.3,4.4-12.3,6.4
							c-4.1,4.1-4.4,9.3-0.5,13.4c2.3,2.3,4.6,2.8,6.4,2.8c2.6,0,4.9-1,6.9-3.3c2.3-2.3,9.8-11.8,4.4-17.2
							C141.4,98.8,139.8,98.3,137.8,98.3L137.8,98.3z"/>
					</g>
				</g>
				<g>
					<g>
						<path class="st0" d="M154.5,108.1c-2.1,0-12.9-1.3-12.9-6.4c0-5.4,10.8-6.4,12.9-6.4c6.2,0,7.2,3.9,7.2,6.2
							C161.4,105.2,158.6,108.1,154.5,108.1z"/>
						<path class="st0" d="M154.5,97.5c3.6,0,4.6,1.3,4.6,3.6c0,2.1-1,4.4-4.6,4.4c-3.6,0-10.3-1.8-10.3-3.9S150.9,97.5,154.5,97.5
							 M154.5,92.4c-3.3,0-15.4,1.5-15.4,9c0,7.5,12.1,9,15.4,9c5.9,0,9.8-3.9,9.8-9.5C164,97,161.4,92.4,154.5,92.4L154.5,92.4z"/>
					</g>
					<g>
						<path class="st0" d="M128,108.1c-4.4,0-7.2-2.3-7.2-6.4s2.6-6.4,7.2-6.4c2.1,0,12.9,1.3,12.9,6.4
							C140.6,106.8,129.8,108.1,128,108.1z"/>
						<path class="st0" d="M128,97.5c3.6,0,10.3,1.8,10.3,3.9s-6.7,3.9-10.3,3.9s-4.6-1.8-4.6-3.9S124.4,97.5,128,97.5 M128,92.4
							c-5.9,0-9.8,3.6-9.8,9c0,5.4,3.9,9,9.8,9c3.3,0,15.4-1.5,15.4-9S131.1,92.4,128,92.4L128,92.4z"/>
					</g>
				</g>
				<g>
					<g>
						<path class="st0" d="M151.1,118.1c-1.8,0-3.6-0.8-5.1-2.6c-1.5-1.5-3.1-3.9-4.1-5.9c-1.8-3.3-1.8-5.9-0.3-7.5
							c0.5-0.5,1.5-1,3.1-1c3.6,0,8.7,3.6,10.5,5.7c1.8,1.5,2.6,3.3,2.6,5.1c0,1.5-0.8,3.1-2.1,4.4
							C154.2,117.3,152.7,118.1,151.1,118.1z"/>
						<path class="st0" d="M144.5,103.4c2.3,0,6.7,2.8,8.7,4.9c2.6,2.6,2.1,4.4,0.5,5.9c-0.8,0.8-1.5,1.3-2.6,1.3
							c-1,0-2.1-0.5-3.3-1.8c-2.6-2.6-5.9-8.5-4.4-10C143.4,103.4,143.9,103.4,144.5,103.4 M144.5,98.3L144.5,98.3
							c-1.8,0-3.6,0.8-4.9,1.8c-1.5,1.5-3.1,4.9-0.3,10.5c1.3,2.6,3.1,5.1,4.6,6.7c2.1,2.1,4.6,3.3,6.9,3.3c1.5,0,3.9-0.5,6.2-2.8
							c3.9-3.9,3.6-9-0.5-13.4C154.7,102.4,149.1,98.3,144.5,98.3L144.5,98.3z"/>
					</g>
					<g>
						<path class="st0" d="M137.8,102.4c-3.3,0-8.5-3.3-10.8-5.7c-1.5-1.5-2.6-3.3-2.6-5.1c0-1.5,0.8-3.1,2.1-4.6
							c1.3-1.3,2.8-2.1,4.4-2.1c1.8,0,3.6,0.8,5.1,2.6c1.5,1.5,8.2,9.8,4.4,13.6C140.3,101.6,139.3,102.4,137.8,102.4L137.8,102.4z"
							/>
						<path class="st0" d="M131.1,87.7c1,0,2.1,0.5,3.3,1.8c2.6,2.6,5.9,8.5,4.4,10c-0.3,0.3-0.5,0.3-1,0.3c-2.3,0-6.7-2.8-8.7-4.9
							c-2.6-2.6-2.1-4.4-0.5-5.9C129.3,88.2,130.3,87.7,131.1,87.7 M131.1,82.6c-1.5,0-3.9,0.5-6.2,2.8c-2.3,2.3-2.8,4.6-2.8,6.4
							c0,2.6,1,4.9,3.3,6.9c2.1,2.1,7.7,6.2,12.3,6.2c2.3,0,3.9-1,4.6-1.8c6.2-6.2-4.4-17.2-4.4-17.2
							C136,83.6,133.7,82.6,131.1,82.6L131.1,82.6z"/>
					</g>
				</g>
				<g>
					<g>
						<circle class="st0" cx="141.1" cy="101.6" r="7.2"/>
						<path class="st0" d="M141.1,96.7c2.6,0,4.6,2.1,4.6,4.6c0,2.6-2.1,4.6-4.6,4.6s-4.6-1.8-4.6-4.4S138.5,96.7,141.1,96.7
							 M141.1,91.6c-5.4,0-9.8,4.4-9.8,9.8s4.4,9.8,9.8,9.8s9.8-4.4,9.8-9.8C150.9,96,146.5,91.6,141.1,91.6L141.1,91.6z"/>
					</g>
					<g>
						<path class="st0" d="M130.8,167c-2.1,0-3.9-1.5-4.4-3.6l-5.4-27c-0.3-0.8,0-1.5,0.5-2.1c0.5-0.5,1.3-1,2.1-1h35
							c0.8,0,1.5,0.3,2.1,1c0.5,0.5,0.8,1.3,0.5,2.1l-5.4,27c-0.5,2.1-2.1,3.6-4.4,3.6H130.8z"/>
						<path class="st0" d="M158.6,135.8l-5.4,27c-0.3,0.8-0.8,1.5-1.8,1.5h-20.6c-0.8,0-1.5-0.5-1.8-1.5l-5.4-27H158.6 M158.6,130.7
							h-35c-1.5,0-3.1,0.8-3.9,1.8c-1,1.3-1.3,2.8-1,4.4l5.4,27c0.8,3.3,3.6,5.7,6.7,5.7h20.6c3.3,0,6.2-2.3,6.7-5.7l5.7-27
							c0.3-1.5,0-3.1-1-4.4C161.7,131.5,160.2,130.7,158.6,130.7L158.6,130.7z M158.6,141L158.6,141L158.6,141L158.6,141z"/>
					</g>
				</g>
				<g>
					<path class="st0" d="M121,143.3c-1.8,0-3.6-1.5-3.6-3.6v-4.9c0-2.1,1.5-3.6,3.6-3.6h40.4c1.8,0,3.6,1.5,3.6,3.6v4.9
						c0,1.8-1.5,3.6-3.6,3.6H121z"/>
					<path class="st0" d="M161.4,134c0.5,0,1,0.5,1,1v4.9c0,0.5-0.5,1-1,1H121c-0.5,0-1-0.5-1-1v-4.9c0-0.5,0.5-1,1-1H161.4
						 M161.4,128.9H121c-3.3,0-6.2,2.8-6.2,6.2v4.9c0,3.3,2.8,6.2,6.2,6.2h40.4c3.3,0,6.2-2.8,6.2-6.2v-4.9
						C167.4,131.7,164.8,128.9,161.4,128.9L161.4,128.9z"/>
				</g>
				<g>
					<path class="st0" d="M127,155.1c-1.3,0-2.3-0.8-2.6-2.1l-0.5-2.8c-0.3-0.8,0-1.5,0.5-2.1c0.5-0.5,1.3-1,2.1-1H156
						c0.8,0,1.5,0.3,2.1,1c0.5,0.8,0.8,1.3,0.5,2.1l-0.5,2.8c-0.3,1.3-1.3,2.1-2.6,2.1H127z"/>
					<path class="st0" d="M155.8,149.7L155.8,149.7 M155.8,149.7l-0.5,2.8H127l-0.5-2.8H155.8 M155.8,144.6L155.8,144.6h-29.3
						c-1.5,0-3.1,0.8-3.9,1.8c-1,1.3-1.3,2.8-1,4.4l0.5,2.8c0.5,2.3,2.6,4.1,5.1,4.1h28.3c2.6,0,4.6-1.8,5.1-4.1l0.5-2.6
						c0-0.5,0.3-0.8,0.3-1.3C160.9,146.9,158.9,144.6,155.8,144.6L155.8,144.6z M155.8,154.9L155.8,154.9L155.8,154.9L155.8,154.9z"
						/>
				</g>
			</g>
			<g>
				<path class="st5" d="M167.6,112.9C167.6,112.9,167.6,113.2,167.6,112.9c-0.3,1.3-3.9,9.5-10.3,12.3c-8,3.6-11.1-2.3-11.1-2.3
					s-2.3-6.4,5.4-10C157.8,110.1,166.3,112.7,167.6,112.9z"/>
				<path class="st5" d="M157.1,125.3c6.4-3.1,10-11.1,10.5-12.3c0,0,0,0,0-0.3l-21.6,10C146,123.2,149.3,129.2,157.1,125.3z"/>
				<path class="st6" d="M142.4,123.2v-16.5c0-0.8-0.5-1.3-1.3-1.3s-1.3,0.5-1.3,1.3v16.5v2.8v10.8c0,0.8,0.5,1.3,1.3,1.3
					s1.3-0.5,1.3-1.3v-10.5c4.4-2.1,25.5-12.6,25-13.1C167.4,112.4,147.8,120.9,142.4,123.2z"/>
				<g>
					<path class="st7" d="M145,88.2c0,3.6-1.8,10.3-3.9,10.3s-3.9-6.7-3.9-10.3c0-3.6,1.8-4.6,3.9-4.6C143.4,83.9,145,84.9,145,88.2
						z"/>
					<path class="st7" d="M145,114.7c0-3.6-1.8-10.3-3.9-10.3s-3.9,6.7-3.9,10.3c0,3.6,1.8,4.6,3.9,4.6S145,118.4,145,114.7z"/>
				</g>
				<g>
					<path class="st8" d="M153.2,94.9c-2.6,2.6-8.5,5.9-10,4.4s1.8-7.5,4.4-10s4.4-2.1,5.9-0.5C155.3,90.6,155.8,92.6,153.2,94.9z"
						/>
					<path class="st8" d="M134.4,113.7c2.6-2.6,5.9-8.5,4.4-10c-1.5-1.5-7.5,1.8-10,4.4c-2.6,2.6-2.1,4.4-0.5,5.9
						C130,115.8,132.1,116.3,134.4,113.7z"/>
				</g>
				<g>
					<path class="st7" d="M154.5,105.5c-3.6,0-10.3-1.8-10.3-3.9s6.7-3.9,10.3-3.9c3.6,0,4.6,1.3,4.6,3.6
						C158.9,103.2,157.8,105.5,154.5,105.5z"/>
					<path class="st7" d="M128,105.5c3.6,0,10.3-1.8,10.3-3.9s-6.7-3.9-10.3-3.9s-4.6,1.8-4.6,3.9S124.4,105.5,128,105.5z"/>
				</g>
				<g>
					<path class="st8" d="M147.8,113.7c-2.6-2.6-5.9-8.5-4.4-10s7.5,1.8,10,4.4c2.6,2.6,2.1,4.4,0.5,5.9
						C152.2,115.8,150.1,116.3,147.8,113.7z"/>
					<path class="st8" d="M129,94.9c2.6,2.6,8.5,5.9,10,4.4s-1.8-7.5-4.4-10s-4.4-2.1-5.9-0.5C127,90.6,126.4,92.6,129,94.9z"/>
				</g>
				<g>
					<circle class="st9" cx="141.1" cy="101.6" r="4.6"/>
					<path class="st9" d="M151.4,164.4h-20.6c-0.8,0-1.5-0.5-1.8-1.5l-5.4-27h35l-5.4,27C152.9,163.9,152.4,164.4,151.4,164.4z"/>
				</g>
				<path class="st10" d="M161.4,140.7H121c-0.5,0-1-0.5-1-1v-4.9c0-0.5,0.5-1,1-1h40.4c0.5,0,1,0.5,1,1v4.9
					C162.2,140.2,162,140.7,161.4,140.7z"/>
				<polygon class="st10" points="155.3,152.6 155.8,149.7 126.4,149.7 127,152.6 				"/>
			</g>
		</g>
		<g>
			<path class="st11" d="M207.1,131.9c0.6,0.6,0.9,1.3,0.9,2.2c0,0.9-0.3,1.6-0.9,2.2c-0.6,0.6-1.3,0.9-2.2,0.9H194v10.8
				c0,0.9-0.3,1.6-0.9,2.2c-0.6,0.6-1.3,0.9-2.2,0.9c-0.9,0-1.6-0.3-2.2-0.9c-0.6-0.6-0.9-1.3-0.9-2.2v-10.8h-10.9
				c-0.9,0-1.6-0.3-2.2-0.9c-0.6-0.6-0.9-1.3-0.9-2.2c0-0.9,0.3-1.6,0.9-2.2c0.6-0.6,1.3-0.9,2.2-0.9h10.9v-10.9
				c0-0.9,0.3-1.6,0.9-2.2c0.6-0.6,1.3-0.9,2.2-0.9c0.9,0,1.6,0.3,2.2,0.9c0.6,0.6,0.9,1.3,0.9,2.2V131h10.9
				C205.8,131,206.5,131.3,207.1,131.9z"/>
		</g>
	</g>
	<g>
		<g>
			<g>
				<g>
					<path class="st0" d="M253.2,129.2c-4.6,0-7.5-3.1-8.5-4.9c0,0,0-0.3-0.3-0.3c-1-3.1-1.3-9.5,6.7-13.4c2.3-1,5.1-1.8,8.5-1.8
						c4.4,0,8,1,9.5,1.3l0,0c1,0.3,2.1,1.5,2.1,2.6c0,0.3,0,0.8-0.3,1c-0.8,1.8-4.6,10.3-11.8,13.6
						C257.1,128.6,255,129.2,253.2,129.2z"/>
					<path class="st0" d="M259.6,111.7c4.1,0,8,1,8.7,1.3c0,0,0,0,0,0.3c-0.5,1-4.1,9.3-10.5,12.3c-1.8,0.8-3.6,1.3-4.9,1.3
						c-4.4,0-6.2-3.3-6.2-3.3s-2.3-6.4,5.4-10C254.5,112.2,257.3,111.7,259.6,111.7 M259.6,106.5L259.6,106.5
						c-3.6,0-6.9,0.8-9.5,2.1c-9,4.1-9.8,12.1-8,16.5c0,0.3,0.3,0.5,0.3,0.8c0.3,0.5,3.6,6.2,10.8,6.2c2.3,0,4.6-0.5,6.9-1.8
						c7.7-3.6,11.8-12.3,13.1-14.9c0.3-0.5,0.5-1.3,0.5-2.1c0-2.6-1.8-4.6-4.1-5.1C267.9,107.5,264,106.5,259.6,106.5L259.6,106.5z"
						/>
				</g>
				<g>
					<path class="st0" d="M253.2,129.2c-5.4,0-9-4.4-9-6.2c0-1,0.5-1.8,1.5-2.3l21.6-10c0.3-0.3,0.8-0.3,1-0.3c0.5,0,0.8,0,1,0.3
						c0.5,0.3,1.3,1,1.3,1.5c0,0.5,0.3,1.5-0.3,2.1c-0.8,1.5-4.6,10-11.6,13.4C257.1,128.6,255,129.2,253.2,129.2L253.2,129.2z"/>
					<path class="st0" d="M268.4,112.9C268.4,112.9,268.4,113.2,268.4,112.9c-0.3,1.3-3.9,9.5-10.3,12.3c-1.8,0.8-3.6,1.3-4.9,1.3
						c-4.4,0-6.4-3.3-6.4-3.6L268.4,112.9 M268.4,107.8c-0.8,0-1.5,0.3-2.3,0.5l-21.6,10c-1.8,0.8-2.8,2.6-2.8,4.6
						c0,3.3,4.9,8.7,11.6,8.7c2.3,0,4.6-0.5,6.9-1.8c7.7-3.6,11.8-12.1,12.9-14.9c1-2.6,0-5.7-2.6-6.9
						C269.9,108.1,269.2,107.8,268.4,107.8L268.4,107.8z"/>
				</g>
				<g>
					<path class="st0" d="M241.9,140.7c-2.1,0-3.9-1.8-3.9-3.9v-30.1c0-2.1,1.8-3.9,3.9-3.9c2.1,0,3.9,1.8,3.9,3.9v12.6
						c13.6-5.9,21.1-9,22.4-9c1,0,1.8,0.5,2.3,1.3c1.3,2.8,1.5,3.1-24.7,16v9.3C245.7,139.2,244.2,140.7,241.9,140.7z"/>
					<path class="st0" d="M241.9,105.5c0.8,0,1.3,0.5,1.3,1.3v16.5c5.1-2.3,23.7-10.3,25-10.3l0,0c0.3,0.5-20.6,11.1-25,13.1v10.8
						c0,0.8-0.5,1.3-1.3,1.3c-0.8,0-1.3-0.5-1.3-1.3v-10.5v-2.8V107C240.6,106,241.1,105.5,241.9,105.5 M241.9,100.3
						c-3.6,0-6.4,2.8-6.4,6.4v16.5v2.8v10.8c0,3.6,2.8,6.4,6.4,6.4c3.6,0,6.4-2.8,6.4-6.4v-7.5c2.8-1.5,7.5-3.6,11.6-5.9
						c3.3-1.8,5.9-3.1,7.7-4.1c3.1-1.8,7.5-4.1,5.4-8.7c0,0,0-0.3-0.3-0.3c-0.8-1.5-2.8-2.8-4.6-2.8c-1,0-2.3,0-19.8,7.5v-8.5
						C248.3,103.2,245.5,100.3,241.9,100.3L241.9,100.3z"/>
				</g>
				<g>
					<g>
						<path class="st0" d="M241.9,101.1c-5.4,0-6.4-10.8-6.4-12.9c0-4.4,2.3-7.2,6.4-7.2s6.4,2.8,6.4,7.2
							C248.3,90.3,247.3,101.1,241.9,101.1z"/>
						<path class="st0" d="M241.9,83.6c2.1,0,3.9,1,3.9,4.6c0,3.6-1.8,10.3-3.9,10.3c-2.1,0-3.9-6.7-3.9-10.3
							C238,84.6,239.8,83.6,241.9,83.6 M241.9,78.5c-5.4,0-9,3.9-9,9.8c0,3.3,1.5,15.4,9,15.4s9-12.1,9-15.4
							C250.9,82.6,247.5,78.7,241.9,78.5L241.9,78.5L241.9,78.5z"/>
					</g>
					<g>
						<path class="st0" d="M241.9,122c-4.1,0-6.4-2.6-6.4-7.2c0-2.1,1.3-12.9,6.4-12.9c5.4,0,6.4,10.8,6.4,12.9
							C248.3,119.4,246,122,241.9,122z"/>
						<path class="st0" d="M241.9,104.7c2.1,0,3.9,6.7,3.9,10.3c0,3.6-1.8,4.6-3.9,4.6c-2.1,0-3.9-1-3.9-4.6
							S239.8,104.7,241.9,104.7 M241.9,99.6c-7.5,0-9,12.1-9,15.4c0,5.9,3.6,9.8,9,9.8c5.4,0,9-3.9,9-9.8
							C250.9,111.7,249.3,99.6,241.9,99.6L241.9,99.6z"/>
					</g>
				</g>
				<g>
					<g>
						<path class="st0" d="M245.2,102.4c-1.5,0-2.3-0.5-2.8-1c-3.9-3.9,3.1-12.1,4.4-13.6c1.5-1.5,3.3-2.6,5.1-2.6
							c1.5,0,3.1,0.8,4.4,2.1c1.3,1.3,2.1,2.8,2.1,4.6c0,1.8-0.8,3.6-2.6,5.1C253.7,99.1,248.6,102.4,245.2,102.4z"/>
						<path class="st0" d="M251.9,87.7c1,0,1.8,0.5,2.6,1.3c1.5,1.5,2.1,3.6-0.5,5.9c-2.1,2.1-6.4,4.9-8.7,4.9c-0.5,0-0.8,0-1-0.3
							c-1.5-1.5,1.8-7.5,4.4-10C249.6,88.2,250.9,87.7,251.9,87.7 M251.9,82.6L251.9,82.6c-2.6,0-4.9,1-6.9,3.3
							c-2.3,2.3-9.8,11.8-4.4,17.2c0.8,0.8,2.3,1.8,4.6,1.8c4.6,0,10.5-4.4,12.6-6.4c2.1-2.1,3.3-4.4,3.3-6.9c0-1.5-0.5-4.1-2.8-6.4
							C255.8,83.1,253.5,82.6,251.9,82.6L251.9,82.6z"/>
					</g>
					<g>
						<path class="st0" d="M232.1,118.1c-1.5,0-3.1-0.8-4.4-2.1c-2.8-2.8-2.8-6.4,0.5-9.8c2.1-2.1,6.9-5.7,10.5-5.7
							c1.5,0,2.6,0.5,3.1,1c1.5,1.5,1.5,4.1-0.3,7.5c-1,2.3-2.8,4.6-4.1,5.9C235.5,117.1,233.7,118.1,232.1,118.1L232.1,118.1z"/>
						<path class="st0" d="M238.5,103.4c0.5,0,0.8,0,1,0.3c1.5,1.5-1.8,7.5-4.4,10c-1.3,1.3-2.3,1.8-3.3,1.8c-1,0-1.8-0.5-2.6-1.3
							c-1.5-1.5-2.1-3.6,0.5-5.9C231.9,106,236.2,103.4,238.5,103.4 M238.5,98.3c-4.6,0-10.3,4.4-12.3,6.4
							c-4.1,4.1-4.4,9.3-0.5,13.4c2.3,2.3,4.6,2.8,6.4,2.8c2.6,0,4.9-1,6.9-3.3c2.3-2.3,9.8-11.8,4.4-17.2
							C242.1,98.8,240.6,98.3,238.5,98.3L238.5,98.3z"/>
					</g>
				</g>
				<g>
					<g>
						<path class="st0" d="M255.3,108.1c-2.1,0-12.9-1.3-12.9-6.4c0-5.4,10.8-6.4,12.9-6.4c6.2,0,7.2,3.9,7.2,6.2
							C262.2,105.2,259.4,108.1,255.3,108.1z"/>
						<path class="st0" d="M255.3,97.5c3.6,0,4.6,1.3,4.6,3.6c0,2.1-1,4.4-4.6,4.4c-3.6,0-10.3-1.8-10.3-3.9S251.7,97.5,255.3,97.5
							 M255.3,92.4c-3.3,0-15.4,1.5-15.4,9c0,7.5,12.1,9,15.4,9c5.9,0,9.8-3.9,9.8-9.5C264.8,97,262.2,92.4,255.3,92.4L255.3,92.4z"
							/>
					</g>
					<g>
						<path class="st0" d="M228.8,108.1c-4.4,0-7.2-2.3-7.2-6.4s2.6-6.4,7.2-6.4c2.1,0,12.9,1.3,12.9,6.4
							C241.4,106.8,230.6,108.1,228.8,108.1z"/>
						<path class="st0" d="M228.8,97.5c3.6,0,10.3,1.8,10.3,3.9s-6.7,3.9-10.3,3.9s-4.6-1.8-4.6-3.9S225.2,97.5,228.8,97.5
							 M228.8,92.4c-5.9,0-9.8,3.6-9.8,9c0,5.4,3.9,9,9.8,9c3.3,0,15.4-1.5,15.4-9S231.9,92.4,228.8,92.4L228.8,92.4z"/>
					</g>
				</g>
				<g>
					<g>
						<path class="st0" d="M251.9,118.1c-1.8,0-3.6-0.8-5.1-2.6c-1.5-1.5-3.1-3.9-4.1-5.9c-1.8-3.3-1.8-5.9-0.3-7.5
							c0.5-0.5,1.5-1,3.1-1c3.6,0,8.7,3.6,10.5,5.7c1.8,1.5,2.6,3.3,2.6,5.1c0,1.5-0.8,3.1-2.1,4.4
							C255,117.3,253.5,118.1,251.9,118.1z"/>
						<path class="st0" d="M245.2,103.4c2.3,0,6.7,2.8,8.7,4.9c2.6,2.6,2.1,4.4,0.5,5.9c-0.8,0.8-1.5,1.3-2.6,1.3s-2.1-0.5-3.3-1.8
							c-2.6-2.6-5.9-8.5-4.4-10C244.2,103.4,244.7,103.4,245.2,103.4 M245.2,98.3L245.2,98.3c-1.8,0-3.6,0.8-4.9,1.8
							c-1.5,1.5-3.1,4.9-0.3,10.5c1.3,2.6,3.1,5.1,4.6,6.7c2.1,2.1,4.6,3.3,6.9,3.3c1.5,0,3.9-0.5,6.2-2.8c3.9-3.9,3.6-9-0.5-13.4
							C255.5,102.4,249.9,98.3,245.2,98.3L245.2,98.3z"/>
					</g>
					<g>
						<path class="st0" d="M238.5,102.4c-3.3,0-8.5-3.3-10.8-5.7c-1.5-1.5-2.6-3.3-2.6-5.1c0-1.5,0.8-3.1,2.1-4.6
							c1.3-1.3,2.8-2.1,4.4-2.1c1.8,0,3.6,0.8,5.1,2.6c1.5,1.5,8.2,9.8,4.4,13.6C241.1,101.6,240.1,102.4,238.5,102.4L238.5,102.4z"
							/>
						<path class="st0" d="M231.9,87.7c1,0,2.1,0.5,3.3,1.8c2.6,2.6,5.9,8.5,4.4,10c-0.3,0.3-0.5,0.3-1,0.3c-2.3,0-6.7-2.8-8.7-4.9
							c-2.6-2.6-2.1-4.4-0.5-5.9C230.1,88.2,231.1,87.7,231.9,87.7 M231.9,82.6c-1.5,0-3.9,0.5-6.2,2.8c-2.3,2.3-2.8,4.6-2.8,6.4
							c0,2.6,1,4.9,3.3,6.9c2.1,2.1,7.7,6.2,12.3,6.2c2.3,0,3.9-1,4.6-1.8c6.2-6.2-4.4-17.2-4.4-17.2
							C236.7,83.6,234.4,82.6,231.9,82.6L231.9,82.6z"/>
					</g>
				</g>
				<g>
					<g>
						<circle class="st0" cx="241.9" cy="101.6" r="7.2"/>
						<path class="st0" d="M241.9,96.7c2.6,0,4.6,2.1,4.6,4.6c0,2.6-2.1,4.6-4.6,4.6c-2.6,0-4.6-1.8-4.6-4.4S239.3,96.7,241.9,96.7
							 M241.9,91.6c-5.4,0-9.8,4.4-9.8,9.8s4.4,9.8,9.8,9.8c5.4,0,9.8-4.4,9.8-9.8C251.7,96,247.3,91.6,241.9,91.6L241.9,91.6z"/>
					</g>
					<g>
						<path class="st0" d="M231.6,167c-2.1,0-3.9-1.5-4.4-3.6l-5.4-27c-0.3-0.8,0-1.5,0.5-2.1c0.5-0.5,1.3-1,2.1-1h35
							c0.8,0,1.5,0.3,2.1,1c0.5,0.5,0.8,1.3,0.5,2.1l-5.4,27c-0.5,2.1-2.1,3.6-4.4,3.6H231.6z"/>
						<path class="st0" d="M259.4,135.8l-5.4,27c-0.3,0.8-0.8,1.5-1.8,1.5h-20.6c-0.8,0-1.5-0.5-1.8-1.5l-5.4-27H259.4 M259.4,130.7
							h-35c-1.5,0-3.1,0.8-3.9,1.8c-1,1.3-1.3,2.8-1,4.4l5.4,27c0.8,3.3,3.6,5.7,6.7,5.7h20.6c3.3,0,6.2-2.3,6.7-5.7l5.7-27
							c0.3-1.5,0-3.1-1-4.4C262.5,131.5,260.9,130.7,259.4,130.7L259.4,130.7z M259.4,141L259.4,141L259.4,141L259.4,141z"/>
					</g>
				</g>
				<g>
					<path class="st0" d="M221.8,143.3c-1.8,0-3.6-1.5-3.6-3.6v-4.9c0-2.1,1.5-3.6,3.6-3.6h40.4c1.8,0,3.6,1.5,3.6,3.6v4.9
						c0,1.8-1.5,3.6-3.6,3.6H221.8z"/>
					<path class="st0" d="M262.2,134c0.5,0,1,0.5,1,1v4.9c0,0.5-0.5,1-1,1h-40.4c-0.5,0-1-0.5-1-1v-4.9c0-0.5,0.5-1,1-1H262.2
						 M262.2,128.9h-40.4c-3.3,0-6.2,2.8-6.2,6.2v4.9c0,3.3,2.8,6.2,6.2,6.2h40.4c3.3,0,6.2-2.8,6.2-6.2v-4.9
						C268.1,131.7,265.6,128.9,262.2,128.9L262.2,128.9z"/>
				</g>
				<g>
					<path class="st0" d="M227.7,155.1c-1.3,0-2.3-0.8-2.6-2.1l-0.5-2.8c-0.3-0.8,0-1.5,0.5-2.1c0.5-0.5,1.3-1,2.1-1h29.6
						c0.8,0,1.5,0.3,2.1,1c0.5,0.8,0.8,1.3,0.5,2.1l-0.5,2.8c-0.3,1.3-1.3,2.1-2.6,2.1H227.7z"/>
					<path class="st0" d="M256.6,149.7L256.6,149.7 M256.6,149.7l-0.5,2.8h-28.3l-0.5-2.8H256.6 M256.6,144.6L256.6,144.6h-29.3
						c-1.5,0-3.1,0.8-3.9,1.8c-1,1.3-1.3,2.8-1,4.4l0.5,2.8c0.5,2.3,2.6,4.1,5.1,4.1h28.3c2.6,0,4.6-1.8,5.1-4.1l0.5-2.6
						c0-0.5,0.3-0.8,0.3-1.3C261.7,146.9,259.6,144.6,256.6,144.6L256.6,144.6z M256.6,154.9L256.6,154.9L256.6,154.9L256.6,154.9z"
						/>
				</g>
			</g>
			<g>
				<path class="st5" d="M268.4,112.9C268.4,112.9,268.4,113.2,268.4,112.9c-0.3,1.3-3.9,9.5-10.3,12.3c-8,3.6-11.1-2.3-11.1-2.3
					s-2.3-6.4,5.4-10C258.6,110.1,267.1,112.7,268.4,112.9z"/>
				<path class="st5" d="M257.8,125.3c6.4-3.1,10-11.1,10.5-12.3c0,0,0,0,0-0.3l-21.6,10C246.8,123.2,250.1,129.2,257.8,125.3z"/>
				<path class="st6" d="M243.2,123.2v-16.5c0-0.8-0.5-1.3-1.3-1.3c-0.8,0-1.3,0.5-1.3,1.3v16.5v2.8v10.8c0,0.8,0.5,1.3,1.3,1.3
					c0.8,0,1.3-0.5,1.3-1.3v-10.5c4.4-2.1,25.5-12.6,25-13.1C268.1,112.4,248.6,120.9,243.2,123.2z"/>
				<g>
					<path class="st7" d="M245.7,88.2c0,3.6-1.8,10.3-3.9,10.3c-2.1,0-3.9-6.7-3.9-10.3c0-3.6,1.8-4.6,3.9-4.6
						C244.2,83.9,245.7,84.9,245.7,88.2z"/>
					<path class="st7" d="M245.7,114.7c0-3.6-1.8-10.3-3.9-10.3c-2.1,0-3.9,6.7-3.9,10.3c0,3.6,1.8,4.6,3.9,4.6
						C243.9,119.4,245.7,118.4,245.7,114.7z"/>
				</g>
				<g>
					<path class="st8" d="M254,94.9c-2.6,2.6-8.5,5.9-10,4.4s1.8-7.5,4.4-10s4.4-2.1,5.9-0.5C256,90.6,256.6,92.6,254,94.9z"/>
					<path class="st8" d="M235.2,113.7c2.6-2.6,5.9-8.5,4.4-10s-7.5,1.8-10,4.4c-2.6,2.6-2.1,4.4-0.5,5.9
						C230.8,115.8,232.9,116.3,235.2,113.7z"/>
				</g>
				<g>
					<path class="st7" d="M255.3,105.5c-3.6,0-10.3-1.8-10.3-3.9s6.7-3.9,10.3-3.9c3.6,0,4.6,1.3,4.6,3.6
						C259.6,103.2,258.6,105.5,255.3,105.5z"/>
					<path class="st7" d="M228.8,105.5c3.6,0,10.3-1.8,10.3-3.9s-6.7-3.9-10.3-3.9s-4.6,1.8-4.6,3.9S225.2,105.5,228.8,105.5z"/>
				</g>
				<g>
					<path class="st8" d="M248.6,113.7c-2.6-2.6-5.9-8.5-4.4-10c1.5-1.5,7.5,1.8,10,4.4c2.6,2.6,2.1,4.4,0.5,5.9
						C253,115.8,250.9,116.3,248.6,113.7z"/>
					<path class="st8" d="M229.8,94.9c2.6,2.6,8.5,5.9,10,4.4s-1.8-7.5-4.4-10s-4.4-2.1-5.9-0.5C227.7,90.6,227.2,92.6,229.8,94.9z"
						/>
				</g>
				<g>
					<circle class="st9" cx="241.9" cy="101.6" r="4.6"/>
					<path class="st9" d="M252.2,164.4h-20.6c-0.8,0-1.5-0.5-1.8-1.5l-5.4-27h35l-5.4,27C253.7,163.9,253.2,164.4,252.2,164.4z"/>
				</g>
				<path class="st10" d="M262.2,140.7h-40.4c-0.5,0-1-0.5-1-1v-4.9c0-0.5,0.5-1,1-1h40.4c0.5,0,1,0.5,1,1v4.9
					C263,140.2,262.7,140.7,262.2,140.7z"/>
				<polygon class="st10" points="256,152.6 256.6,149.7 227.2,149.7 227.7,152.6 				"/>
			</g>
		</g>
	</g>
	<g>
		<path class="st11" d="M182.3,257.3c-0.7-0.6-1-1.4-1-2.5c0-1.1,0.3-1.9,1-2.5c0.7-0.6,1.7-0.9,3-0.9h14.3c1.3,0,2.4,0.3,3,0.9
			c0.7,0.6,1,1.5,1,2.5c0,1.1-0.3,1.9-1,2.5c-0.7,0.6-1.7,0.9-3,0.9h-14.3C184,258.2,183,257.9,182.3,257.3z"/>
	</g>
	<g>
		<g>
			<g>
				<g>
					<path class="st0" d="M51.7,247.4c-4.6,0-7.5-3.1-8.5-4.9c0,0,0-0.3-0.3-0.3c-1-3.1-1.3-9.5,6.7-13.4c2.3-1,5.1-1.8,8.5-1.8
						c4.4,0,8,1,9.5,1.3l0,0c1,0.3,2.1,1.5,2.1,2.6c0,0.3,0,0.8-0.3,1c-0.8,1.8-4.6,10.3-11.8,13.6
						C55.5,246.8,53.5,247.4,51.7,247.4z"/>
					<path class="st0" d="M58.1,229.9c4.1,0,8,1,8.7,1.3c0,0,0,0,0,0.3c-0.5,1-4.1,9.3-10.5,12.3c-1.8,0.8-3.6,1.3-4.9,1.3
						c-4.4,0-6.2-3.3-6.2-3.3s-2.3-6.4,5.4-10C52.9,230.4,55.8,229.9,58.1,229.9 M58.1,224.7L58.1,224.7c-3.6,0-6.9,0.8-9.5,2.1
						c-9,4.1-9.8,12.1-8,16.5c0,0.3,0.3,0.5,0.3,0.8c0.3,0.5,3.6,6.2,10.8,6.2c2.3,0,4.6-0.5,6.9-1.8c7.7-3.6,11.8-12.3,13.1-14.9
						c0.3-0.5,0.5-1.3,0.5-2.1c0-2.6-1.8-4.6-4.1-5.1C66.3,225.7,62.5,224.7,58.1,224.7L58.1,224.7z"/>
				</g>
				<g>
					<path class="st0" d="M51.7,247.4c-5.4,0-9-4.4-9-6.2c0-1,0.5-1.8,1.5-2.3l21.6-10c0.3-0.3,0.8-0.3,1-0.3c0.5,0,0.8,0,1,0.3
						c0.5,0.3,1.3,1,1.3,1.5s0.3,1.5-0.3,2.1c-0.8,1.5-4.6,10-11.6,13.4C55.5,246.8,53.5,247.4,51.7,247.4L51.7,247.4z"/>
					<path class="st0" d="M66.8,231.1C66.8,231.1,66.8,231.4,66.8,231.1c-0.3,1.3-3.9,9.5-10.3,12.3c-1.8,0.8-3.6,1.3-4.9,1.3
						c-4.4,0-6.4-3.3-6.4-3.6L66.8,231.1 M66.8,226c-0.8,0-1.5,0.3-2.3,0.5l-21.6,10c-1.8,0.8-2.8,2.6-2.8,4.6
						c0,3.3,4.9,8.7,11.6,8.7c2.3,0,4.6-0.5,6.9-1.8c7.7-3.6,11.8-12.1,12.9-14.9c1-2.6,0-5.7-2.6-6.9C68.4,226.3,67.6,226,66.8,226
						L66.8,226z"/>
				</g>
				<g>
					<path class="st0" d="M40.3,258.9c-2.1,0-3.9-1.8-3.9-3.9V225c0-2.1,1.8-3.9,3.9-3.9c2.1,0,3.9,1.8,3.9,3.9v12.6
						c13.6-5.9,21.1-9,22.4-9c1,0,1.8,0.5,2.3,1.3c1.3,2.8,1.5,3.1-24.7,16v9.3C44.2,257.4,42.7,258.9,40.3,258.9z"/>
					<path class="st0" d="M40.3,223.7c0.8,0,1.3,0.5,1.3,1.3v16.5c5.1-2.3,23.7-10.3,25-10.3l0,0c0.3,0.5-20.6,11.1-25,13.1v10.8
						c0,0.8-0.5,1.3-1.3,1.3c-0.8,0-1.3-0.5-1.3-1.3v-10.5v-2.8v-16.5C39,224.2,39.6,223.7,40.3,223.7 M40.3,218.5
						c-3.6,0-6.4,2.8-6.4,6.4v16.5v2.8v10.8c0,3.6,2.8,6.4,6.4,6.4c3.6,0,6.4-2.8,6.4-6.4v-7.5c2.8-1.5,7.5-3.6,11.6-5.9
						c3.3-1.8,5.9-3.1,7.7-4.1c3.1-1.8,7.5-4.1,5.4-8.7c0,0,0-0.3-0.3-0.3c-0.8-1.5-2.8-2.8-4.6-2.8c-1,0-2.3,0-19.8,7.5v-8.5
						C46.8,221.4,43.9,218.5,40.3,218.5L40.3,218.5z"/>
				</g>
				<g>
					<g>
						<path class="st0" d="M40.3,219.3c-5.4,0-6.4-10.8-6.4-12.9c0-4.4,2.3-7.2,6.4-7.2s6.4,2.8,6.4,7.2
							C46.8,208.5,45.7,219.3,40.3,219.3z"/>
						<path class="st0" d="M40.3,201.8c2.1,0,3.9,1,3.9,4.6s-1.8,10.3-3.9,10.3c-2.1,0-3.9-6.7-3.9-10.3S38.3,201.8,40.3,201.8
							 M40.3,196.7c-5.4,0-9,3.9-9,9.8c0,3.3,1.5,15.4,9,15.4s9-12.1,9-15.4C49.3,200.8,46,196.9,40.3,196.7L40.3,196.7L40.3,196.7z
							"/>
					</g>
					<g>
						<path class="st0" d="M40.3,240.1c-4.1,0-6.4-2.6-6.4-7.2c0-2.1,1.3-12.9,6.4-12.9c5.4,0,6.4,10.8,6.4,12.9
							C46.8,237.6,44.5,240.1,40.3,240.1z"/>
						<path class="st0" d="M40.3,222.9c2.1,0,3.9,6.7,3.9,10.3c0,3.6-1.8,4.6-3.9,4.6c-2.1,0-3.9-1-3.9-4.6
							C36.5,229.6,38.3,222.9,40.3,222.9 M40.3,217.8c-7.5,0-9,12.1-9,15.4c0,5.9,3.6,9.8,9,9.8s9-3.9,9-9.8
							C49.3,229.9,47.8,217.8,40.3,217.8L40.3,217.8z"/>
					</g>
				</g>
				<g>
					<g>
						<path class="st0" d="M43.7,220.6c-1.5,0-2.3-0.5-2.8-1c-3.9-3.9,3.1-12.1,4.4-13.6c1.5-1.5,3.3-2.6,5.1-2.6
							c1.5,0,3.1,0.8,4.4,2.1c1.3,1.3,2.1,2.8,2.1,4.6c0,1.8-0.8,3.6-2.6,5.1C52.2,217.3,47,220.6,43.7,220.6z"/>
						<path class="st0" d="M50.4,205.9c1,0,1.8,0.5,2.6,1.3c1.5,1.5,2.1,3.6-0.5,5.9c-2.1,2.1-6.4,4.9-8.7,4.9c-0.5,0-0.8,0-1-0.3
							c-1.5-1.5,1.8-7.5,4.4-10C48.1,206.4,49.3,205.9,50.4,205.9 M50.4,200.8L50.4,200.8c-2.6,0-4.9,1-6.9,3.3
							c-2.3,2.3-9.8,11.8-4.4,17.2c0.8,0.8,2.3,1.8,4.6,1.8c4.6,0,10.5-4.4,12.6-6.4c2.1-2.1,3.3-4.4,3.3-6.9c0-1.5-0.5-4.1-2.8-6.4
							C54.2,201.3,51.9,200.8,50.4,200.8L50.4,200.8z"/>
					</g>
					<g>
						<path class="st0" d="M30.6,236.3c-1.5,0-3.1-0.8-4.4-2.1c-2.8-2.8-2.8-6.4,0.5-9.8c2.1-2.1,6.9-5.7,10.5-5.7
							c1.5,0,2.6,0.5,3.1,1c1.5,1.5,1.5,4.1-0.3,7.5c-1,2.3-2.8,4.6-4.1,5.9C33.9,235.3,32.1,236.3,30.6,236.3L30.6,236.3z"/>
						<path class="st0" d="M37,221.6c0.5,0,0.8,0,1,0.3c1.5,1.5-1.8,7.5-4.4,10c-1.3,1.3-2.3,1.8-3.3,1.8c-1,0-1.8-0.5-2.6-1.3
							c-1.5-1.5-2.1-3.6,0.5-5.9C30.3,224.2,34.7,221.6,37,221.6 M37,216.5c-4.6,0-10.3,4.4-12.3,6.4c-4.1,4.1-4.4,9.3-0.5,13.4
							c2.3,2.3,4.6,2.8,6.4,2.8c2.6,0,4.9-1,6.9-3.3c2.3-2.3,9.8-11.8,4.4-17.2C40.6,217,39,216.5,37,216.5L37,216.5z"/>
					</g>
				</g>
				<g>
					<g>
						<path class="st0" d="M53.7,226.3c-2.1,0-12.9-1.3-12.9-6.4c0-5.4,10.8-6.4,12.9-6.4c6.2,0,7.2,3.9,7.2,6.2
							C60.7,223.4,57.8,226.3,53.7,226.3z"/>
						<path class="st0" d="M53.7,215.7c3.6,0,4.6,1.3,4.6,3.6c0,2.1-1,4.4-4.6,4.4s-10.3-1.8-10.3-3.9S50.1,215.7,53.7,215.7
							 M53.7,210.6c-3.3,0-15.4,1.5-15.4,9s12.1,9,15.4,9c5.9,0,9.8-3.9,9.8-9.5C63.2,215.2,60.7,210.6,53.7,210.6L53.7,210.6z"/>
					</g>
					<g>
						<path class="st0" d="M27.2,226.3c-4.4,0-7.2-2.3-7.2-6.4s2.6-6.4,7.2-6.4c2.1,0,12.9,1.3,12.9,6.4
							C39.8,225,29,226.3,27.2,226.3z"/>
						<path class="st0" d="M27.2,215.7c3.6,0,10.3,1.8,10.3,3.9c0,2.1-6.7,3.9-10.3,3.9s-4.6-1.8-4.6-3.9
							C22.6,217.5,23.6,215.7,27.2,215.7 M27.2,210.6c-5.9,0-9.8,3.6-9.8,9c0,5.4,3.9,9,9.8,9c3.3,0,15.4-1.5,15.4-9
							S30.3,210.6,27.2,210.6L27.2,210.6z"/>
					</g>
				</g>
				<g>
					<g>
						<path class="st0" d="M50.4,236.3c-1.8,0-3.6-0.8-5.1-2.6c-1.5-1.5-3.1-3.9-4.1-5.9c-1.8-3.3-1.8-5.9-0.3-7.5
							c0.5-0.5,1.5-1,3.1-1c3.6,0,8.7,3.6,10.5,5.7c1.8,1.5,2.6,3.3,2.6,5.1c0,1.5-0.8,3.1-2.1,4.4
							C53.5,235.5,51.9,236.3,50.4,236.3z"/>
						<path class="st0" d="M43.7,221.6c2.3,0,6.7,2.8,8.7,4.9c2.6,2.6,2.1,4.4,0.5,5.9c-0.8,0.8-1.5,1.3-2.6,1.3
							c-1,0-2.1-0.5-3.3-1.8c-2.6-2.6-5.9-8.5-4.4-10C42.7,221.6,43.2,221.6,43.7,221.6 M43.7,216.5L43.7,216.5
							c-1.8,0-3.6,0.8-4.9,1.8c-1.5,1.5-3.1,4.9-0.3,10.5c1.3,2.6,3.1,5.1,4.6,6.7c2.1,2.1,4.6,3.3,6.9,3.3c1.5,0,3.9-0.5,6.2-2.8
							c3.9-3.9,3.6-9-0.5-13.4C54,220.6,48.3,216.5,43.7,216.5L43.7,216.5z"/>
					</g>
					<g>
						<path class="st0" d="M37,220.6c-3.3,0-8.5-3.3-10.8-5.7c-1.5-1.5-2.6-3.3-2.6-5.1c0-1.5,0.8-3.1,2.1-4.6
							c1.3-1.3,2.8-2.1,4.4-2.1c1.8,0,3.6,0.8,5.1,2.6c1.5,1.5,8.2,9.8,4.4,13.6C39.6,219.8,38.5,220.6,37,220.6L37,220.6z"/>
						<path class="st0" d="M30.3,205.9c1,0,2.1,0.5,3.3,1.8c2.6,2.6,5.9,8.5,4.4,10c-0.3,0.3-0.5,0.3-1,0.3c-2.3,0-6.7-2.8-8.7-4.9
							c-2.6-2.6-2.1-4.4-0.5-5.9C28.5,206.4,29.5,205.9,30.3,205.9 M30.3,200.8c-1.5,0-3.9,0.5-6.2,2.8c-2.3,2.3-2.8,4.6-2.8,6.4
							c0,2.6,1,4.9,3.3,6.9c2.1,2.1,7.7,6.2,12.3,6.2c2.3,0,3.9-1,4.6-1.8c6.2-6.2-4.4-17.2-4.4-17.2
							C35.2,201.8,32.9,200.8,30.3,200.8L30.3,200.8z"/>
					</g>
				</g>
				<g>
					<g>
						<circle class="st0" cx="40.3" cy="219.8" r="7.2"/>
						<path class="st0" d="M40.3,214.9c2.6,0,4.6,2.1,4.6,4.6s-2.1,4.6-4.6,4.6c-2.6,0-4.6-1.8-4.6-4.4S37.8,214.9,40.3,214.9
							 M40.3,209.8c-5.4,0-9.8,4.4-9.8,9.8c0,5.4,4.4,9.8,9.8,9.8s9.8-4.4,9.8-9.8C50.1,214.2,45.7,209.8,40.3,209.8L40.3,209.8z"/>
					</g>
					<g>
						<path class="st0" d="M30,285.2c-2.1,0-3.9-1.5-4.4-3.6l-5.4-27c-0.3-0.8,0-1.5,0.5-2.1c0.5-0.5,1.3-1,2.1-1h35
							c0.8,0,1.5,0.3,2.1,1c0.5,0.5,0.8,1.3,0.5,2.1l-5.4,27c-0.5,2.1-2.1,3.6-4.4,3.6H30z"/>
						<path class="st0" d="M57.8,254l-5.4,27c-0.3,0.8-0.8,1.5-1.8,1.5H30c-0.8,0-1.5-0.5-1.8-1.5l-5.4-27H57.8 M57.8,248.9h-35
							c-1.5,0-3.1,0.8-3.9,1.8c-1,1.3-1.3,2.8-1,4.4l5.4,27c0.8,3.3,3.6,5.7,6.7,5.7h20.6c3.3,0,6.2-2.3,6.7-5.7l5.7-27
							c0.3-1.5,0-3.1-1-4.4C60.9,249.7,59.4,248.9,57.8,248.9L57.8,248.9z M57.8,259.2L57.8,259.2L57.8,259.2L57.8,259.2z"/>
					</g>
				</g>
				<g>
					<path class="st0" d="M20.3,261.5c-1.8,0-3.6-1.5-3.6-3.6V253c0-2.1,1.5-3.6,3.6-3.6h40.4c1.8,0,3.6,1.5,3.6,3.6v4.9
						c0,1.8-1.5,3.6-3.6,3.6H20.3z"/>
					<path class="st0" d="M60.7,252.2c0.5,0,1,0.5,1,1v4.9c0,0.5-0.5,1-1,1H20.3c-0.5,0-1-0.5-1-1v-4.9c0-0.5,0.5-1,1-1H60.7
						 M60.7,247.1H20.3c-3.3,0-6.2,2.8-6.2,6.2v4.9c0,3.3,2.8,6.2,6.2,6.2h40.4c3.3,0,6.2-2.8,6.2-6.2v-4.9
						C66.6,249.9,64,247.1,60.7,247.1L60.7,247.1z"/>
				</g>
				<g>
					<path class="st0" d="M26.2,273.3c-1.3,0-2.3-0.8-2.6-2.1l-0.5-2.8c-0.3-0.8,0-1.5,0.5-2.1c0.5-0.5,1.3-1,2.1-1h29.6
						c0.8,0,1.5,0.3,2.1,1c0.5,0.8,0.8,1.3,0.5,2.1l-0.5,2.8c-0.3,1.3-1.3,2.1-2.6,2.1H26.2z"/>
					<path class="st0" d="M55,267.9L55,267.9 M55,267.9l-0.5,2.8H26.2l-0.5-2.8H55 M55,262.8L55,262.8H25.7c-1.5,0-3.1,0.8-3.9,1.8
						c-1,1.3-1.3,2.8-1,4.4l0.5,2.8c0.5,2.3,2.6,4.1,5.1,4.1h28.3c2.6,0,4.6-1.8,5.1-4.1l0.5-2.6c0-0.5,0.3-0.8,0.3-1.3
						C60.1,265.1,58.1,262.8,55,262.8L55,262.8z M55,273.1L55,273.1L55,273.1L55,273.1z"/>
				</g>
			</g>
			<g>
				<path class="st5" d="M66.8,231.1C66.8,231.1,66.8,231.4,66.8,231.1c-0.3,1.3-3.9,9.5-10.3,12.3c-8,3.6-11.1-2.3-11.1-2.3
					s-2.3-6.4,5.4-10C57.1,228.3,65.5,230.9,66.8,231.1z"/>
				<path class="st5" d="M56.3,243.5c6.4-3.1,10-11.1,10.5-12.3c0,0,0,0,0-0.3l-21.6,10C45.2,241.4,48.6,247.4,56.3,243.5z"/>
				<path class="st6" d="M41.6,241.4V225c0-0.8-0.5-1.3-1.3-1.3c-0.8,0-1.3,0.5-1.3,1.3v16.5v2.8v10.8c0,0.8,0.5,1.3,1.3,1.3
					c0.8,0,1.3-0.5,1.3-1.3v-10.5c4.4-2.1,25.5-12.6,25-13.1C66.6,230.6,47,239.1,41.6,241.4z"/>
				<g>
					<path class="st7" d="M44.2,206.4c0,3.6-1.8,10.3-3.9,10.3c-2.1,0-3.9-6.7-3.9-10.3s1.8-4.6,3.9-4.6
						C42.7,202.1,44.2,203.1,44.2,206.4z"/>
					<path class="st7" d="M44.2,232.9c0-3.6-1.8-10.3-3.9-10.3c-2.1,0-3.9,6.7-3.9,10.3s1.8,4.6,3.9,4.6
						C42.4,237.6,44.2,236.5,44.2,232.9z"/>
				</g>
				<g>
					<path class="st8" d="M52.4,213.1c-2.6,2.6-8.5,5.9-10,4.4c-1.5-1.5,1.8-7.5,4.4-10c2.6-2.6,4.4-2.1,5.9-0.5
						C54.5,208.8,55,210.8,52.4,213.1z"/>
					<path class="st8" d="M33.6,231.9c2.6-2.6,5.9-8.5,4.4-10c-1.5-1.5-7.5,1.8-10,4.4s-2.1,4.4-0.5,5.9
						C29.3,234,31.3,234.5,33.6,231.9z"/>
				</g>
				<g>
					<path class="st7" d="M53.7,223.7c-3.6,0-10.3-1.8-10.3-3.9c0-2.1,6.7-3.9,10.3-3.9s4.6,1.3,4.6,3.6
						C58.1,221.4,57.1,223.7,53.7,223.7z"/>
					<path class="st7" d="M27.2,223.7c3.6,0,10.3-1.8,10.3-3.9c0-2.1-6.7-3.9-10.3-3.9s-4.6,1.8-4.6,3.9
						C22.6,221.9,23.6,223.7,27.2,223.7z"/>
				</g>
				<g>
					<path class="st8" d="M47,231.9c-2.6-2.6-5.9-8.5-4.4-10c1.5-1.5,7.5,1.8,10,4.4c2.6,2.6,2.1,4.4,0.5,5.9
						C51.4,234,49.3,234.5,47,231.9z"/>
					<path class="st8" d="M28.2,213.1c2.6,2.6,8.5,5.9,10,4.4s-1.8-7.5-4.4-10c-2.6-2.6-4.4-2.1-5.9-0.5
						C26.2,208.8,25.7,210.8,28.2,213.1z"/>
				</g>
				<g>
					<circle class="st9" cx="40.3" cy="219.8" r="4.6"/>
					<path class="st9" d="M50.6,282.6H30c-0.8,0-1.5-0.5-1.8-1.5l-5.4-27h35l-5.4,27C52.2,282.1,51.7,282.6,50.6,282.6z"/>
				</g>
				<path class="st10" d="M60.7,258.9H20.3c-0.5,0-1-0.5-1-1V253c0-0.5,0.5-1,1-1h40.4c0.5,0,1,0.5,1,1v4.9
					C61.4,258.4,61.2,258.9,60.7,258.9z"/>
				<polygon class="st10" points="54.5,270.8 55,267.9 25.7,267.9 26.2,270.8 				"/>
			</g>
		</g>
		<g>
			<path class="st11" d="M104.3,250c0.6,0.6,0.9,1.3,0.9,2.2c0,0.9-0.3,1.6-0.9,2.2c-0.6,0.6-1.3,0.9-2.2,0.9H91.3v10.8
				c0,0.9-0.3,1.6-0.9,2.2c-0.6,0.6-1.3,0.9-2.2,0.9c-0.9,0-1.6-0.3-2.2-0.9c-0.6-0.6-0.9-1.3-0.9-2.2v-10.8H74.3
				c-0.9,0-1.6-0.3-2.2-0.9c-0.6-0.6-0.9-1.3-0.9-2.2c0-0.9,0.3-1.6,0.9-2.2c0.6-0.6,1.3-0.9,2.2-0.9h10.9v-10.9
				c0-0.9,0.3-1.6,0.9-2.2c0.6-0.6,1.3-0.9,2.2-0.9c0.9,0,1.6,0.3,2.2,0.9c0.6,0.6,0.9,1.3,0.9,2.2v10.9h10.9
				C103,249.2,103.7,249.5,104.3,250z"/>
		</g>
	</g>
	<g>
		<g>
			<g>
				<g>
					<path class="st0" d="M152.4,247.4c-4.6,0-7.5-3.1-8.5-4.9c0,0,0-0.3-0.3-0.3c-1-3.1-1.3-9.5,6.7-13.4c2.3-1,5.1-1.8,8.5-1.8
						c4.4,0,8,1,9.5,1.3l0,0c1,0.3,2.1,1.5,2.1,2.6c0,0.3,0,0.8-0.3,1c-0.8,1.8-4.6,10.3-11.8,13.6
						C156.3,246.8,154.2,247.4,152.4,247.4z"/>
					<path class="st0" d="M158.9,229.9c4.1,0,8,1,8.7,1.3c0,0,0,0,0,0.3c-0.5,1-4.1,9.3-10.5,12.3c-1.8,0.8-3.6,1.3-4.9,1.3
						c-4.4,0-6.2-3.3-6.2-3.3s-2.3-6.4,5.4-10C153.7,230.4,156.5,229.9,158.9,229.9 M158.9,224.7L158.9,224.7
						c-3.6,0-6.9,0.8-9.5,2.1c-9,4.1-9.8,12.1-8,16.5c0,0.3,0.3,0.5,0.3,0.8c0.3,0.5,3.6,6.2,10.8,6.2c2.3,0,4.6-0.5,6.9-1.8
						c7.7-3.6,11.8-12.3,13.1-14.9c0.3-0.5,0.5-1.3,0.5-2.1c0-2.6-1.8-4.6-4.1-5.1C167.1,225.7,163.2,224.7,158.9,224.7L158.9,224.7
						z"/>
				</g>
				<g>
					<path class="st0" d="M152.4,247.4c-5.4,0-9-4.4-9-6.2c0-1,0.5-1.8,1.5-2.3l21.6-10c0.3-0.3,0.8-0.3,1-0.3c0.5,0,0.8,0,1,0.3
						c0.5,0.3,1.3,1,1.3,1.5s0.3,1.5-0.3,2.1c-0.8,1.5-4.6,10-11.6,13.4C156.3,246.8,154.2,247.4,152.4,247.4L152.4,247.4z"/>
					<path class="st0" d="M167.6,231.1C167.6,231.1,167.6,231.4,167.6,231.1c-0.3,1.3-3.9,9.5-10.3,12.3c-1.8,0.8-3.6,1.3-4.9,1.3
						c-4.4,0-6.4-3.3-6.4-3.6L167.6,231.1 M167.6,226c-0.8,0-1.5,0.3-2.3,0.5l-21.6,10c-1.8,0.8-2.8,2.6-2.8,4.6
						c0,3.3,4.9,8.7,11.6,8.7c2.3,0,4.6-0.5,6.9-1.8c7.7-3.6,11.8-12.1,12.9-14.9c1-2.6,0-5.7-2.6-6.9
						C169.2,226.3,168.4,226,167.6,226L167.6,226z"/>
				</g>
				<g>
					<path class="st0" d="M141.1,258.9c-2.1,0-3.9-1.8-3.9-3.9V225c0-2.1,1.8-3.9,3.9-3.9s3.9,1.8,3.9,3.9v12.6
						c13.6-5.9,21.1-9,22.4-9c1,0,1.8,0.5,2.3,1.3c1.3,2.8,1.5,3.1-24.7,16v9.3C145,257.4,143.4,258.9,141.1,258.9z"/>
					<path class="st0" d="M141.1,223.7c0.8,0,1.3,0.5,1.3,1.3v16.5c5.1-2.3,23.7-10.3,25-10.3l0,0c0.3,0.5-20.6,11.1-25,13.1v10.8
						c0,0.8-0.5,1.3-1.3,1.3s-1.3-0.5-1.3-1.3v-10.5v-2.8v-16.5C139.8,224.2,140.3,223.7,141.1,223.7 M141.1,218.5
						c-3.6,0-6.4,2.8-6.4,6.4v16.5v2.8v10.8c0,3.6,2.8,6.4,6.4,6.4s6.4-2.8,6.4-6.4v-7.5c2.8-1.5,7.5-3.6,11.6-5.9
						c3.3-1.8,5.9-3.1,7.7-4.1c3.1-1.8,7.5-4.1,5.4-8.7c0,0,0-0.3-0.3-0.3c-0.8-1.5-2.8-2.8-4.6-2.8c-1,0-2.3,0-19.8,7.5v-8.5
						C147.5,221.4,144.7,218.5,141.1,218.5L141.1,218.5z"/>
				</g>
				<g>
					<g>
						<path class="st0" d="M141.1,219.3c-5.4,0-6.4-10.8-6.4-12.9c0-4.4,2.3-7.2,6.4-7.2s6.4,2.8,6.4,7.2
							C147.5,208.5,146.5,219.3,141.1,219.3z"/>
						<path class="st0" d="M141.1,201.8c2.1,0,3.9,1,3.9,4.6s-1.8,10.3-3.9,10.3s-3.9-6.7-3.9-10.3S139.1,201.8,141.1,201.8
							 M141.1,196.7c-5.4,0-9,3.9-9,9.8c0,3.3,1.5,15.4,9,15.4s9-12.1,9-15.4C150.1,200.8,146.8,196.9,141.1,196.7L141.1,196.7
							L141.1,196.7z"/>
					</g>
					<g>
						<path class="st0" d="M141.1,240.1c-4.1,0-6.4-2.6-6.4-7.2c0-2.1,1.3-12.9,6.4-12.9c5.4,0,6.4,10.8,6.4,12.9
							C147.5,237.6,145.2,240.1,141.1,240.1z"/>
						<path class="st0" d="M141.1,222.9c2.1,0,3.9,6.7,3.9,10.3c0,3.6-1.8,4.6-3.9,4.6s-3.9-1-3.9-4.6
							C137.3,229.6,139.1,222.9,141.1,222.9 M141.1,217.8c-7.5,0-9,12.1-9,15.4c0,5.9,3.6,9.8,9,9.8s9-3.9,9-9.8
							C150.1,229.9,148.6,217.8,141.1,217.8L141.1,217.8z"/>
					</g>
				</g>
				<g>
					<g>
						<path class="st0" d="M144.5,220.6c-1.5,0-2.3-0.5-2.8-1c-3.9-3.9,3.1-12.1,4.4-13.6c1.5-1.5,3.3-2.6,5.1-2.6
							c1.5,0,3.1,0.8,4.4,2.1c1.3,1.3,2.1,2.8,2.1,4.6c0,1.8-0.8,3.6-2.6,5.1C152.9,217.3,147.8,220.6,144.5,220.6z"/>
						<path class="st0" d="M151.1,205.9c1,0,1.8,0.5,2.6,1.3c1.5,1.5,2.1,3.6-0.5,5.9c-2.1,2.1-6.4,4.9-8.7,4.9c-0.5,0-0.8,0-1-0.3
							c-1.5-1.5,1.8-7.5,4.4-10C148.8,206.4,150.1,205.9,151.1,205.9 M151.1,200.8L151.1,200.8c-2.6,0-4.9,1-6.9,3.3
							c-2.3,2.3-9.8,11.8-4.4,17.2c0.8,0.8,2.3,1.8,4.6,1.8c4.6,0,10.5-4.4,12.6-6.4c2.1-2.1,3.3-4.4,3.3-6.9c0-1.5-0.5-4.1-2.8-6.4
							C155,201.3,152.7,200.8,151.1,200.8L151.1,200.8z"/>
					</g>
					<g>
						<path class="st0" d="M131.3,236.3c-1.5,0-3.1-0.8-4.4-2.1c-2.8-2.8-2.8-6.4,0.5-9.8c2.1-2.1,6.9-5.7,10.5-5.7
							c1.5,0,2.6,0.5,3.1,1c1.5,1.5,1.5,4.1-0.3,7.5c-1,2.3-2.8,4.6-4.1,5.9C134.7,235.3,132.9,236.3,131.3,236.3L131.3,236.3z"/>
						<path class="st0" d="M137.8,221.6c0.5,0,0.8,0,1,0.3c1.5,1.5-1.8,7.5-4.4,10c-1.3,1.3-2.3,1.8-3.3,1.8s-1.8-0.5-2.6-1.3
							c-1.5-1.5-2.1-3.6,0.5-5.9C131.1,224.2,135.5,221.6,137.8,221.6 M137.8,216.5c-4.6,0-10.3,4.4-12.3,6.4
							c-4.1,4.1-4.4,9.3-0.5,13.4c2.3,2.3,4.6,2.8,6.4,2.8c2.6,0,4.9-1,6.9-3.3c2.3-2.3,9.8-11.8,4.4-17.2
							C141.4,217,139.8,216.5,137.8,216.5L137.8,216.5z"/>
					</g>
				</g>
				<g>
					<g>
						<path class="st0" d="M154.5,226.3c-2.1,0-12.9-1.3-12.9-6.4c0-5.4,10.8-6.4,12.9-6.4c6.2,0,7.2,3.9,7.2,6.2
							C161.4,223.4,158.6,226.3,154.5,226.3z"/>
						<path class="st0" d="M154.5,215.7c3.6,0,4.6,1.3,4.6,3.6c0,2.1-1,4.4-4.6,4.4c-3.6,0-10.3-1.8-10.3-3.9
							S150.9,215.7,154.5,215.7 M154.5,210.6c-3.3,0-15.4,1.5-15.4,9s12.1,9,15.4,9c5.9,0,9.8-3.9,9.8-9.5
							C164,215.2,161.4,210.6,154.5,210.6L154.5,210.6z"/>
					</g>
					<g>
						<path class="st0" d="M128,226.3c-4.4,0-7.2-2.3-7.2-6.4s2.6-6.4,7.2-6.4c2.1,0,12.9,1.3,12.9,6.4
							C140.6,225,129.8,226.3,128,226.3z"/>
						<path class="st0" d="M128,215.7c3.6,0,10.3,1.8,10.3,3.9c0,2.1-6.7,3.9-10.3,3.9s-4.6-1.8-4.6-3.9
							C123.4,217.5,124.4,215.7,128,215.7 M128,210.6c-5.9,0-9.8,3.6-9.8,9c0,5.4,3.9,9,9.8,9c3.3,0,15.4-1.5,15.4-9
							S131.1,210.6,128,210.6L128,210.6z"/>
					</g>
				</g>
				<g>
					<g>
						<path class="st0" d="M151.1,236.3c-1.8,0-3.6-0.8-5.1-2.6c-1.5-1.5-3.1-3.9-4.1-5.9c-1.8-3.3-1.8-5.9-0.3-7.5
							c0.5-0.5,1.5-1,3.1-1c3.6,0,8.7,3.6,10.5,5.7c1.8,1.5,2.6,3.3,2.6,5.1c0,1.5-0.8,3.1-2.1,4.4
							C154.2,235.5,152.7,236.3,151.1,236.3z"/>
						<path class="st0" d="M144.5,221.6c2.3,0,6.7,2.8,8.7,4.9c2.6,2.6,2.1,4.4,0.5,5.9c-0.8,0.8-1.5,1.3-2.6,1.3
							c-1,0-2.1-0.5-3.3-1.8c-2.6-2.6-5.9-8.5-4.4-10C143.4,221.6,143.9,221.6,144.5,221.6 M144.5,216.5L144.5,216.5
							c-1.8,0-3.6,0.8-4.9,1.8c-1.5,1.5-3.1,4.9-0.3,10.5c1.3,2.6,3.1,5.1,4.6,6.7c2.1,2.1,4.6,3.3,6.9,3.3c1.5,0,3.9-0.5,6.2-2.8
							c3.9-3.9,3.6-9-0.5-13.4C154.7,220.6,149.1,216.5,144.5,216.5L144.5,216.5z"/>
					</g>
					<g>
						<path class="st0" d="M137.8,220.6c-3.3,0-8.5-3.3-10.8-5.7c-1.5-1.5-2.6-3.3-2.6-5.1c0-1.5,0.8-3.1,2.1-4.6
							c1.3-1.3,2.8-2.1,4.4-2.1c1.8,0,3.6,0.8,5.1,2.6c1.5,1.5,8.2,9.8,4.4,13.6C140.3,219.8,139.3,220.6,137.8,220.6L137.8,220.6z"
							/>
						<path class="st0" d="M131.1,205.9c1,0,2.1,0.5,3.3,1.8c2.6,2.6,5.9,8.5,4.4,10c-0.3,0.3-0.5,0.3-1,0.3c-2.3,0-6.7-2.8-8.7-4.9
							c-2.6-2.6-2.1-4.4-0.5-5.9C129.3,206.4,130.3,205.9,131.1,205.9 M131.1,200.8c-1.5,0-3.9,0.5-6.2,2.8
							c-2.3,2.3-2.8,4.6-2.8,6.4c0,2.6,1,4.9,3.3,6.9c2.1,2.1,7.7,6.2,12.3,6.2c2.3,0,3.9-1,4.6-1.8c6.2-6.2-4.4-17.2-4.4-17.2
							C136,201.8,133.7,200.8,131.1,200.8L131.1,200.8z"/>
					</g>
				</g>
				<g>
					<g>
						<circle class="st0" cx="141.1" cy="219.8" r="7.2"/>
						<path class="st0" d="M141.1,214.9c2.6,0,4.6,2.1,4.6,4.6s-2.1,4.6-4.6,4.6s-4.6-1.8-4.6-4.4S138.5,214.9,141.1,214.9
							 M141.1,209.8c-5.4,0-9.8,4.4-9.8,9.8c0,5.4,4.4,9.8,9.8,9.8s9.8-4.4,9.8-9.8C150.9,214.2,146.5,209.8,141.1,209.8
							L141.1,209.8z"/>
					</g>
					<g>
						<path class="st0" d="M130.8,285.2c-2.1,0-3.9-1.5-4.4-3.6l-5.4-27c-0.3-0.8,0-1.5,0.5-2.1c0.5-0.5,1.3-1,2.1-1h35
							c0.8,0,1.5,0.3,2.1,1c0.5,0.5,0.8,1.3,0.5,2.1l-5.4,27c-0.5,2.1-2.1,3.6-4.4,3.6H130.8z"/>
						<path class="st0" d="M158.6,254l-5.4,27c-0.3,0.8-0.8,1.5-1.8,1.5h-20.6c-0.8,0-1.5-0.5-1.8-1.5l-5.4-27H158.6 M158.6,248.9
							h-35c-1.5,0-3.1,0.8-3.9,1.8c-1,1.3-1.3,2.8-1,4.4l5.4,27c0.8,3.3,3.6,5.7,6.7,5.7h20.6c3.3,0,6.2-2.3,6.7-5.7l5.7-27
							c0.3-1.5,0-3.1-1-4.4C161.7,249.7,160.2,248.9,158.6,248.9L158.6,248.9z M158.6,259.2L158.6,259.2L158.6,259.2L158.6,259.2z"
							/>
					</g>
				</g>
				<g>
					<path class="st0" d="M121,261.5c-1.8,0-3.6-1.5-3.6-3.6V253c0-2.1,1.5-3.6,3.6-3.6h40.4c1.8,0,3.6,1.5,3.6,3.6v4.9
						c0,1.8-1.5,3.6-3.6,3.6H121z"/>
					<path class="st0" d="M161.4,252.2c0.5,0,1,0.5,1,1v4.9c0,0.5-0.5,1-1,1H121c-0.5,0-1-0.5-1-1v-4.9c0-0.5,0.5-1,1-1H161.4
						 M161.4,247.1H121c-3.3,0-6.2,2.8-6.2,6.2v4.9c0,3.3,2.8,6.2,6.2,6.2h40.4c3.3,0,6.2-2.8,6.2-6.2v-4.9
						C167.4,249.9,164.8,247.1,161.4,247.1L161.4,247.1z"/>
				</g>
				<g>
					<path class="st0" d="M127,273.3c-1.3,0-2.3-0.8-2.6-2.1l-0.5-2.8c-0.3-0.8,0-1.5,0.5-2.1c0.5-0.5,1.3-1,2.1-1H156
						c0.8,0,1.5,0.3,2.1,1c0.5,0.8,0.8,1.3,0.5,2.1l-0.5,2.8c-0.3,1.3-1.3,2.1-2.6,2.1H127z"/>
					<path class="st0" d="M155.8,267.9L155.8,267.9 M155.8,267.9l-0.5,2.8H127l-0.5-2.8H155.8 M155.8,262.8L155.8,262.8h-29.3
						c-1.5,0-3.1,0.8-3.9,1.8c-1,1.3-1.3,2.8-1,4.4l0.5,2.8c0.5,2.3,2.6,4.1,5.1,4.1h28.3c2.6,0,4.6-1.8,5.1-4.1l0.5-2.6
						c0-0.5,0.3-0.8,0.3-1.3C160.9,265.1,158.9,262.8,155.8,262.8L155.8,262.8z M155.8,273.1L155.8,273.1L155.8,273.1L155.8,273.1z"
						/>
				</g>
			</g>
			<g>
				<path class="st5" d="M167.6,231.1C167.6,231.1,167.6,231.4,167.6,231.1c-0.3,1.3-3.9,9.5-10.3,12.3c-8,3.6-11.1-2.3-11.1-2.3
					s-2.3-6.4,5.4-10C157.8,228.3,166.3,230.9,167.6,231.1z"/>
				<path class="st5" d="M157.1,243.5c6.4-3.1,10-11.1,10.5-12.3c0,0,0,0,0-0.3l-21.6,10C146,241.4,149.3,247.4,157.1,243.5z"/>
				<path class="st6" d="M142.4,241.4V225c0-0.8-0.5-1.3-1.3-1.3s-1.3,0.5-1.3,1.3v16.5v2.8v10.8c0,0.8,0.5,1.3,1.3,1.3
					s1.3-0.5,1.3-1.3v-10.5c4.4-2.1,25.5-12.6,25-13.1C167.4,230.6,147.8,239.1,142.4,241.4z"/>
				<g>
					<path class="st7" d="M145,206.4c0,3.6-1.8,10.3-3.9,10.3s-3.9-6.7-3.9-10.3s1.8-4.6,3.9-4.6C143.4,202.1,145,203.1,145,206.4z"
						/>
					<path class="st7" d="M145,232.9c0-3.6-1.8-10.3-3.9-10.3s-3.9,6.7-3.9,10.3s1.8,4.6,3.9,4.6S145,236.5,145,232.9z"/>
				</g>
				<g>
					<path class="st8" d="M153.2,213.1c-2.6,2.6-8.5,5.9-10,4.4s1.8-7.5,4.4-10s4.4-2.1,5.9-0.5
						C155.3,208.8,155.8,210.8,153.2,213.1z"/>
					<path class="st8" d="M134.4,231.9c2.6-2.6,5.9-8.5,4.4-10c-1.5-1.5-7.5,1.8-10,4.4c-2.6,2.6-2.1,4.4-0.5,5.9
						C130,234,132.1,234.5,134.4,231.9z"/>
				</g>
				<g>
					<path class="st7" d="M154.5,223.7c-3.6,0-10.3-1.8-10.3-3.9c0-2.1,6.7-3.9,10.3-3.9c3.6,0,4.6,1.3,4.6,3.6
						C158.9,221.4,157.8,223.7,154.5,223.7z"/>
					<path class="st7" d="M128,223.7c3.6,0,10.3-1.8,10.3-3.9c0-2.1-6.7-3.9-10.3-3.9s-4.6,1.8-4.6,3.9
						C123.4,221.9,124.4,223.7,128,223.7z"/>
				</g>
				<g>
					<path class="st8" d="M147.8,231.9c-2.6-2.6-5.9-8.5-4.4-10c1.5-1.5,7.5,1.8,10,4.4s2.1,4.4,0.5,5.9
						C152.2,234,150.1,234.5,147.8,231.9z"/>
					<path class="st8" d="M129,213.1c2.6,2.6,8.5,5.9,10,4.4s-1.8-7.5-4.4-10s-4.4-2.1-5.9-0.5C127,208.8,126.4,210.8,129,213.1z"/>
				</g>
				<g>
					<circle class="st9" cx="141.1" cy="219.8" r="4.6"/>
					<path class="st9" d="M151.4,282.6h-20.6c-0.8,0-1.5-0.5-1.8-1.5l-5.4-27h35l-5.4,27C152.9,282.1,152.4,282.6,151.4,282.6z"/>
				</g>
				<path class="st10" d="M161.4,258.9H121c-0.5,0-1-0.5-1-1V253c0-0.5,0.5-1,1-1h40.4c0.5,0,1,0.5,1,1v4.9
					C162.2,258.4,162,258.9,161.4,258.9z"/>
				<polygon class="st10" points="155.3,270.8 155.8,267.9 126.4,267.9 127,270.8 				"/>
			</g>
		</g>
	</g>
	<g>
		<path class="st11" d="M287.7,252.2c-0.7-0.6-1-1.4-1-2.5c0-1.1,0.3-1.9,1-2.5c0.7-0.6,1.7-0.9,3-0.9H305c1.3,0,2.4,0.3,3,0.9
			c0.7,0.6,1,1.5,1,2.5c0,1.1-0.3,1.9-1,2.5c-0.7,0.6-1.7,0.9-3,0.9h-14.3C289.3,253.1,288.3,252.8,287.7,252.2z"/>
	</g>
	<g>
		<path class="st11" d="M287.7,265.2c-0.7-0.6-1-1.4-1-2.5c0-1.1,0.3-1.9,1-2.5c0.7-0.6,1.7-0.9,3-0.9H305c1.3,0,2.4,0.3,3,0.9
			c0.7,0.6,1,1.5,1,2.5c0,1.1-0.3,1.9-1,2.5c-0.7,0.6-1.7,0.9-3,0.9h-14.3C289.3,266.1,288.3,265.8,287.7,265.2z"/>
	</g>
	<circle class="st12" cx="353.8" cy="254" r="37.8"/>
	<g>
		<path class="st11" d="M287.7,134c-0.7-0.6-1-1.4-1-2.5c0-1.1,0.3-1.9,1-2.5c0.7-0.6,1.7-0.9,3-0.9H305c1.3,0,2.4,0.3,3,0.9
			c0.7,0.6,1,1.5,1,2.5c0,1.1-0.3,1.9-1,2.5c-0.7,0.6-1.7,0.9-3,0.9h-14.3C289.3,134.9,288.3,134.6,287.7,134z"/>
	</g>
	<g>
		<path class="st11" d="M287.7,147c-0.7-0.6-1-1.4-1-2.5c0-1.1,0.3-1.9,1-2.5c0.7-0.6,1.7-0.9,3-0.9H305c1.3,0,2.4,0.3,3,0.9
			c0.7,0.6,1,1.5,1,2.5c0,1.1-0.3,1.9-1,2.5c-0.7,0.6-1.7,0.9-3,0.9h-14.3C289.3,147.9,288.3,147.6,287.7,147z"/>
	</g>
	<circle class="st12" cx="353.8" cy="135.8" r="37.8"/>
	<g>
		<path class="st0" d="M348.1,133.2c1.5,0.8,2.6,2,3.4,3.6c0.8,1.5,1.2,3.3,1.2,5.2c0,2-0.5,3.8-1.4,5.4c-0.9,1.6-2.2,2.8-3.7,3.7
			c-1.6,0.9-3.4,1.3-5.4,1.3c-4,0-7-1.3-9.2-4c-2.2-2.7-3.2-6.5-3.2-11.5c0-3.4,0.5-6.4,1.5-8.9c1-2.5,2.5-4.4,4.3-5.8
			c1.9-1.3,4.1-2,6.7-2c1.7,0,3.4,0.3,5.1,0.9c1.7,0.6,3.2,1.4,4.3,2.5c0.4,0.3,0.7,0.6,0.8,1s0.2,0.7,0.2,1.1
			c0,0.7-0.2,1.2-0.6,1.7c-0.4,0.5-0.8,0.7-1.3,0.7c-0.3,0-0.6-0.1-0.8-0.2s-0.6-0.3-1-0.5c-2.5-1.7-4.7-2.6-6.6-2.6
			c-2.2,0-3.9,1-5.1,3s-1.9,4.8-2,8.4c0.7-1.3,1.7-2.4,3.1-3.2c1.4-0.8,2.9-1.2,4.6-1.2C345,132,346.7,132.4,348.1,133.2z
			 M345.9,146.4c1-1.1,1.5-2.4,1.5-4.2c0-1.7-0.5-3.1-1.5-4.1s-2.3-1.6-3.9-1.6c-1.7,0-3,0.5-4,1.6c-1,1.1-1.5,2.4-1.5,4.1
			c0,1.7,0.5,3.1,1.5,4.2c1,1.1,2.4,1.6,4,1.6C343.6,148,344.9,147.4,345.9,146.4z"/>
		<path class="st0" d="M359.4,148.4c-2-2.7-2.9-6.8-2.9-12c0-5.2,1-9.2,2.9-12c2-2.7,4.8-4.1,8.5-4.1c3.7,0,6.6,1.4,8.5,4.1
			c2,2.7,2.9,6.7,2.9,12c0,5.2-1,9.2-2.9,12c-2,2.8-4.8,4.1-8.5,4.1C364.2,152.5,361.4,151.1,359.4,148.4z M372.4,145.2
			c0.9-1.9,1.4-4.8,1.4-8.8c0-4.1-0.5-7-1.4-8.8c-0.9-1.8-2.4-2.7-4.4-2.7s-3.5,0.9-4.4,2.8c-0.9,1.8-1.4,4.8-1.4,8.8
			c0,4,0.5,7,1.4,8.8c0.9,1.9,2.4,2.8,4.4,2.8S371.5,147.1,372.4,145.2z"/>
	</g>
	<text transform="matrix(1 0 0 1 325.4463 270.6113)" class="st0 st13 st14">15</text>
</g>
</svg>
