<?xml version="1.0" encoding="utf-8"?>
<!-- Generator: Adobe Illustrator 22.1.0, SVG Export Plug-In . SVG Version: 6.00 Build 0)  -->
<svg version="1.1" id="Layer_1" xmlns="http://www.w3.org/2000/svg" xmlns:xlink="http://www.w3.org/1999/xlink" x="0px" y="0px"
	 viewBox="0 0 184.7 40" style="enable-background:new 0 0 184.7 40;" xml:space="preserve">
<style type="text/css">
	.st0{fill:#637BA1;}
	.st1{fill:#FFFFFF;}
	.st2{fill:#993E29;}
	.st3{fill:#A8503C;}
	.st4{fill:#00779E;}
	.st5{fill:#55C2E3;}
	.st6{fill:#66AD66;}
	.st7{fill:#4D984E;}
	.st8{fill:#FC5E71;}
	.st9{fill:#FD747F;}
	.st10{fill:#FEC37D;}
	.st11{fill:#F2A559;}
</style>
<g id="Layer_2_1_">
	<g>
		<path class="st0" d="M184.7,0H0v40h184.7V0L184.7,0z"/>
	</g>
</g>
<g>
	<g>
		<g>
			<path class="st1" d="M156.3,27.7c-0.2,0-0.3-0.1-0.4-0.2l-9.8-8.5c-0.2-0.1-0.3-0.4-0.3-0.7c0-0.3,0.1-0.5,0.3-0.7l9.1-10.4
				c0.8-1,2.1-1.4,3.3-1.1c0.6,0.1,1.1,0.4,1.5,0.7l6.1,5.4c0.7,0.5,1.1,1.4,1.1,2.3c0.1,0.9-0.2,1.8-0.8,2.4l-9.1,10.3
				C157,27.7,156.6,27.8,156.3,27.7z"/>
			<path class="st1" d="M158.2,7c0.4,0.1,0.7,0.3,1.1,0.5l6.1,5.4c1.1,0.9,1.1,2.4,0.2,3.5l-9.1,10.4l-9.8-8.5l9.1-10.4
				C156.4,7.1,157.4,6.8,158.2,7 M158.6,5.1c-1.6-0.4-3.2,0.2-4.2,1.4L145.3,17c-0.4,0.4-0.5,0.9-0.5,1.4c0.1,0.5,0.3,0.9,0.7,1.3
				l9.8,8.5c0.2,0.2,0.5,0.3,0.9,0.4c0.6,0.1,1.4-0.1,1.9-0.6l9.1-10.4c0.8-0.8,1.1-2,1.1-3.2s-0.6-2.3-1.5-3l-6.2-5.3
				C160,5.6,159.4,5.3,158.6,5.1L158.6,5.1z"/>
		</g>
		<g>
			<g>
				<path class="st1" d="M156.5,16.3c-0.2,0-0.3-0.1-0.4-0.2l-2.9-2.6c-0.2-0.1-0.3-0.4-0.3-0.7s0.1-0.5,0.3-0.7l3.3-3.8
					c0.4-0.5,1-0.6,1.7-0.5c0.3,0.1,0.5,0.2,0.8,0.4l2.5,2.1c0.4,0.4,0.5,1,0.1,1.4l-3.8,4.3C157.2,16.2,156.9,16.3,156.5,16.3z"/>
				<path class="st1" d="M157.8,8.7c0.1,0,0.3,0.1,0.4,0.2l2.5,2.1l-3.8,4.3l-2.9-2.6l3.3-3.8C157.3,8.7,157.6,8.6,157.8,8.7
					 M158.3,6.8c-0.9-0.2-2,0.1-2.5,0.9l-3.3,3.8c-0.7,0.8-0.6,2,0.2,2.7l2.9,2.6c0.2,0.2,0.5,0.3,0.9,0.4c0.6,0.1,1.4-0.1,1.9-0.6
					l3.8-4.3c0.7-0.8,0.6-2-0.2-2.7l-2.5-2.1C159.1,7.1,158.7,6.9,158.3,6.8L158.3,6.8z"/>
			</g>
			<g>
				<path class="st1" d="M160.9,20c-0.2,0-0.3-0.1-0.4-0.2l-2.9-2.6c-0.4-0.4-0.5-1-0.1-1.4l3.8-4.3c0.1-0.2,0.4-0.3,0.7-0.3
					c0.1,0,0.2,0,0.3,0.1c0.2,0,0.3,0.1,0.4,0.2l2.5,2.1c0.7,0.7,0.8,1.7,0.1,2.4l-3.3,3.8C161.5,19.9,161.1,20,160.9,20z"/>
				<path class="st1" d="M161.8,12.1l2.5,2.1c0.3,0.3,0.3,0.8,0,1.1l-3.3,3.8l-2.9-2.6L161.8,12.1 M162.3,10.2
					c-0.6-0.1-1.4,0.1-1.9,0.6l-3.8,4.3c-0.4,0.4-0.5,0.9-0.5,1.4c0.1,0.5,0.3,0.9,0.7,1.3l2.9,2.6c0.2,0.2,0.5,0.3,0.9,0.4
					c0.6,0.1,1.4-0.1,1.9-0.6l3.3-3.8c0.5-0.6,0.7-1.2,0.6-1.9c0-0.7-0.4-1.4-0.9-1.9l-2.5-2.1C162.9,10.4,162.5,10.3,162.3,10.2
					L162.3,10.2z"/>
			</g>
			<g>
				<path class="st1" d="M151.9,21.6c-0.2,0-0.3-0.1-0.4-0.2l-3-2.6c-0.2-0.1-0.3-0.4-0.3-0.7s0.1-0.5,0.3-0.7l3.6-4.1
					c0.1-0.2,0.4-0.3,0.7-0.3c0.1,0,0.2,0,0.3,0.1c0.2,0,0.3,0.1,0.4,0.2l3,2.6c0.4,0.4,0.5,1,0.1,1.4l-3.6,4.1
					C152.6,21.5,152.2,21.6,151.9,21.6z"/>
				<path class="st1" d="M152.7,13.9l3,2.6l-3.6,4.1l-3-2.6L152.7,13.9 M153.1,12.1c-0.2,0-0.4-0.1-0.6,0c-0.5,0.1-0.9,0.3-1.3,0.7
					l-3.6,4.1c-0.7,0.8-0.6,2,0.2,2.7l3,2.6c0.2,0.2,0.5,0.3,0.9,0.4c0.2,0,0.4,0.1,0.6,0c0.5-0.1,0.9-0.3,1.3-0.7l3.6-4.1
					c0.7-0.8,0.6-2-0.2-2.7l-3-2.6C153.7,12.3,153.4,12.2,153.1,12.1L153.1,12.1z"/>
			</g>
			<g>
				<path class="st1" d="M156.1,25.3c-0.2,0-0.3-0.1-0.4-0.2l-3-2.6c-0.4-0.4-0.5-1-0.1-1.4l3.6-4.1c0.2-0.2,0.6-0.4,0.9-0.3
					c0.2,0,0.3,0.1,0.4,0.2l3,2.6c0.2,0.1,0.3,0.4,0.3,0.7c0,0.3-0.1,0.5-0.3,0.7l-3.6,4.1c-0.1,0.2-0.4,0.3-0.7,0.3
					C156.3,25.3,156.2,25.3,156.1,25.3z"/>
				<path class="st1" d="M157,17.7l3,2.6l-3.6,4.1l-3-2.6L157,17.7 M157.4,15.9c-0.2,0-0.4-0.1-0.6,0c-0.5,0.1-0.9,0.3-1.3,0.7
					l-3.6,4.1c-0.7,0.8-0.6,2,0.2,2.7l3,2.6c0.2,0.2,0.5,0.3,0.9,0.4c0.2,0,0.4,0.1,0.6,0c0.5-0.1,0.9-0.3,1.3-0.7l3.6-4.1
					c0.7-0.8,0.6-2-0.2-2.7l-3-2.6C157.9,16.1,157.7,15.9,157.4,15.9L157.4,15.9z"/>
			</g>
		</g>
		<g>
			<path class="st1" d="M147.4,36c-0.6-0.1-1.1-0.4-1.5-0.7l-6.1-5.4c-0.6-0.6-1.1-1.4-1.1-2.3c-0.1-0.9,0.2-1.8,0.8-2.4l5.7-6.5
				c0.1-0.2,0.4-0.3,0.7-0.3c0.1,0,0.2,0,0.3,0.1c0.2,0,0.3,0.1,0.4,0.2l9.8,8.5c0.4,0.4,0.5,1,0.1,1.4l-5.7,6.5
				C149.9,35.8,148.6,36.2,147.4,36z"/>
			<path class="st1" d="M145.9,19.1l9.8,8.5l-5.7,6.5c-0.7,0.7-1.6,1-2.4,0.8c-0.4-0.1-0.7-0.3-1.1-0.5l-6.1-5.4
				c-1.1-0.9-1.1-2.4-0.2-3.5L145.9,19.1 M146.3,17.3c-0.6-0.1-1.4,0.1-1.9,0.6l-5.7,6.5c-1.6,1.8-1.4,4.6,0.4,6.1l6.1,5.4
				c0.6,0.5,1.2,0.8,1.9,1c1.6,0.4,3.2-0.2,4.2-1.4l5.7-6.5c0.4-0.4,0.5-0.9,0.5-1.4c-0.1-0.5-0.3-0.9-0.7-1.3l-9.8-8.5
				C146.9,17.5,146.6,17.4,146.3,17.3L146.3,17.3z"/>
		</g>
		<g>
			<path class="st1" d="M154.2,29.9c-0.7-0.2-1.3-0.7-1.6-1.3c0-0.1-0.1-0.1-0.2-0.1l-1.3-0.3c-0.7-0.2-1.2-0.7-1.6-1.3l-0.5-1.3
				c0-0.1-0.1-0.1-0.2-0.1l-1.3-0.3c-0.7-0.2-1.3-0.7-1.6-1.3l-0.5-1.3c0-0.1-0.1-0.1-0.2-0.1c-0.7-0.2-1.3-0.7-1.5-1.4
				c-0.2-0.7-0.1-1.5,0.5-2l2-2.3c0.5-0.6,1.4-0.9,2.1-0.7c0.4,0.1,0.6,0.2,1,0.5l8.8,7.7c0.4,0.4,0.7,0.9,0.7,1.5s-0.2,1.1-0.5,1.5
				l-2,2.3C155.8,29.8,155.1,30.1,154.2,29.9L154.2,29.9z"/>
			<path class="st1" d="M148.2,16.6c0.2,0,0.4,0.1,0.5,0.3l8.8,7.7c0.5,0.4,0.5,1.2,0.1,1.7l-2,2.3c-0.3,0.3-0.8,0.5-1.2,0.4
				c-0.4-0.1-0.7-0.4-0.9-0.8c-0.1-0.4-0.4-0.7-0.9-0.8l-1.3-0.3l0,0c-0.4-0.1-0.7-0.4-0.8-0.8l-0.5-1.3c-0.1-0.4-0.4-0.7-0.9-0.8
				l-1.3-0.3l0,0c-0.4-0.1-0.7-0.4-0.8-0.8l-0.5-1.3c-0.1-0.4-0.4-0.7-0.9-0.8c-0.9-0.2-1.3-1.3-0.6-2l2-2.3
				C147.4,16.6,147.8,16.5,148.2,16.6 M148.7,14.8c-1.1-0.3-2.3,0.2-3,1l-2,2.3c-0.8,0.8-0.9,1.9-0.6,3c0.3,0.9,1,1.6,1.9,2l0.4,1
				c0.4,1,1.2,1.7,2.2,2l1,0.2l0.4,1c0.4,1,1.2,1.7,2.2,2l1,0.2c0.4,0.8,1.1,1.4,2.1,1.6c1.1,0.3,2.3-0.2,3-1l2-2.3
				c0.5-0.6,0.8-1.4,0.8-2.2c0-0.8-0.4-1.7-1.1-2.2l-9-7.9C149.7,15.1,149.1,14.9,148.7,14.8L148.7,14.8z"/>
		</g>
	</g>
	<g>
		<path class="st2" d="M165.4,12.9l-6.1-5.4c-1.1-0.9-2.6-0.8-3.5,0.2l-9.1,10.4l9.8,8.5l9.1-10.4C166.5,15.4,166.4,13.8,165.4,12.9
			z"/>
		<g>
			<path class="st3" d="M156.7,15.3l3.8-4.3l-2.5-2.1c-0.3-0.3-0.8-0.3-1.1,0l-3.3,3.8L156.7,15.3z"/>
			<path class="st3" d="M158,16.4L161,19l3.3-3.8c0.3-0.3,0.3-0.8,0-1.1l-2.5-2.1L158,16.4z"/>
			<rect x="149.7" y="15.3" transform="matrix(0.6592 -0.752 0.752 0.6592 38.9151 120.4804)" class="st3" width="5.3" height="4"/>
			<rect x="154" y="19.1" transform="matrix(0.6592 -0.752 0.752 0.6592 37.5311 124.9928)" class="st3" width="5.3" height="4"/>
		</g>
		<path class="st4" d="M145.9,19.1l-5.7,6.5c-0.9,1.1-0.8,2.6,0.2,3.5l6.1,5.4c1.1,0.9,2.6,0.8,3.5-0.2l5.7-6.5L145.9,19.1z"/>
		<path class="st5" d="M157.6,24.6l-8.8-7.7c-0.5-0.4-1.3-0.4-1.7,0.1l-2,2.3c-0.7,0.7-0.3,1.8,0.6,2c0.4,0.1,0.7,0.4,0.9,0.8
			l0.5,1.3c0.1,0.4,0.4,0.7,0.9,0.8l1.3,0.3c0.4,0.1,0.7,0.4,0.9,0.8l0.5,1.3c0.1,0.4,0.4,0.7,0.9,0.8l1.3,0.3
			c0.4,0.1,0.7,0.4,0.9,0.8c0.3,0.8,1.4,1.1,2.1,0.4l2-2.3C158.1,25.8,158.1,25,157.6,24.6z"/>
	</g>
</g>
<g>
	<g>
		<g>
			<g>
				<path class="st1" d="M37.6,20.3c-1.7,0-2.8-1.1-3.1-1.8c0,0,0-0.1-0.1-0.1c-0.4-1.1-0.5-3.5,2.5-4.9c0.9-0.4,1.9-0.7,3.1-0.7
					c1.6,0,2.9,0.4,3.5,0.5l0,0c0.4,0.1,0.8,0.6,0.8,1c0,0.1,0,0.3-0.1,0.4c-0.3,0.7-1.7,3.8-4.4,5C39,20.1,38.3,20.3,37.6,20.3z"/>
				<path class="st1" d="M40,13.9c1.5,0,2.9,0.4,3.2,0.5c0,0,0,0,0,0.1c-0.2,0.4-1.5,3.4-3.9,4.6c-0.7,0.3-1.3,0.5-1.8,0.5
					c-1.6,0-2.3-1.2-2.3-1.2s-0.9-2.4,2-3.7C38.1,14.1,39.1,13.9,40,13.9 M40,12L40,12c-1.3,0-2.6,0.3-3.5,0.8
					c-3.3,1.5-3.6,4.5-2.9,6.1c0,0.1,0.1,0.2,0.1,0.3c0.1,0.2,1.3,2.3,4,2.3c0.9,0,1.7-0.2,2.6-0.7c2.9-1.3,4.4-4.6,4.9-5.5
					c0.1-0.2,0.2-0.5,0.2-0.8c0-1-0.7-1.7-1.5-1.9C43,12.3,41.6,12,40,12L40,12z"/>
			</g>
			<g>
				<path class="st1" d="M37.6,20.3c-2,0-3.3-1.6-3.3-2.3c0-0.4,0.2-0.7,0.6-0.9l8-3.7c0.1-0.1,0.3-0.1,0.4-0.1c0.2,0,0.3,0,0.4,0.1
					c0.2,0.1,0.5,0.4,0.5,0.6s0.1,0.6-0.1,0.8c-0.3,0.6-1.7,3.7-4.3,4.9C39,20.1,38.3,20.3,37.6,20.3L37.6,20.3z"/>
				<path class="st1" d="M43.2,14.3C43.2,14.3,43.2,14.4,43.2,14.3c-0.1,0.5-1.4,3.5-3.8,4.6c-0.7,0.3-1.3,0.5-1.8,0.5
					c-1.6,0-2.4-1.2-2.4-1.3L43.2,14.3 M43.2,12.4c-0.3,0-0.6,0.1-0.9,0.2l-8,3.7c-0.7,0.3-1,1-1,1.7c0,1.2,1.8,3.2,4.3,3.2
					c0.9,0,1.7-0.2,2.6-0.7c2.9-1.3,4.4-4.5,4.8-5.5c0.4-1,0-2.1-1-2.6C43.8,12.5,43.5,12.4,43.2,12.4L43.2,12.4z"/>
			</g>
			<g>
				<path class="st1" d="M33.4,24.6c-0.8,0-1.4-0.7-1.4-1.4V12.1c0-0.8,0.7-1.4,1.4-1.4c0.8,0,1.4,0.7,1.4,1.4v4.7
					c5-2.2,7.8-3.3,8.3-3.3c0.4,0,0.7,0.2,0.9,0.5c0.5,1,0.6,1.1-9.1,5.9v3.4C34.9,24.1,34.3,24.6,33.4,24.6z"/>
				<path class="st1" d="M33.4,11.6c0.3,0,0.5,0.2,0.5,0.5v6.1c1.9-0.9,8.8-3.8,9.2-3.8l0,0c0.1,0.2-7.6,4.1-9.2,4.9v4
					c0,0.3-0.2,0.5-0.5,0.5c-0.3,0-0.5-0.2-0.5-0.5v-3.9v-1v-6.1C33,11.8,33.1,11.6,33.4,11.6 M33.4,9.7c-1.3,0-2.4,1-2.4,2.4v6.1v1
					v4c0,1.3,1,2.4,2.4,2.4c1.3,0,2.4-1,2.4-2.4v-2.8c1-0.6,2.8-1.3,4.3-2.2c1.2-0.7,2.2-1.1,2.9-1.5c1.1-0.7,2.8-1.5,2-3.2
					c0,0,0-0.1-0.1-0.1c-0.3-0.6-1-1-1.7-1c-0.4,0-0.9,0-7.3,2.8V12C35.8,10.7,34.8,9.7,33.4,9.7L33.4,9.7z"/>
			</g>
			<g>
				<g>
					<path class="st1" d="M33.4,10c-2,0-2.4-4-2.4-4.8c0-1.6,0.9-2.7,2.4-2.7c1.5,0,2.4,1,2.4,2.7C35.8,6,35.4,10,33.4,10z"/>
					<path class="st1" d="M33.4,3.5c0.8,0,1.4,0.4,1.4,1.7S34.2,9,33.4,9C32.7,9,32,6.5,32,5.2S32.7,3.5,33.4,3.5 M33.4,1.6
						c-2,0-3.3,1.4-3.3,3.6c0,1.2,0.6,5.7,3.3,5.7s3.3-4.5,3.3-5.7C36.8,3.1,35.5,1.7,33.4,1.6L33.4,1.6L33.4,1.6z"/>
				</g>
				<g>
					<path class="st1" d="M33.4,17.7c-1.5,0-2.4-1-2.4-2.7c0-0.8,0.5-4.8,2.4-4.8c2,0,2.4,4,2.4,4.8C35.8,16.7,35,17.7,33.4,17.7z"
						/>
					<path class="st1" d="M33.4,11.3c0.8,0,1.4,2.5,1.4,3.8s-0.7,1.7-1.4,1.7c-0.8,0-1.4-0.4-1.4-1.7S32.7,11.3,33.4,11.3 M33.4,9.4
						c-2.8,0-3.3,4.5-3.3,5.7c0,2.2,1.3,3.6,3.3,3.6s3.3-1.4,3.3-3.6C36.8,13.9,36.2,9.4,33.4,9.4L33.4,9.4z"/>
				</g>
			</g>
			<g>
				<g>
					<path class="st1" d="M34.7,10.4c-0.6,0-0.9-0.2-1-0.4c-1.4-1.4,1.1-4.5,1.6-5c0.6-0.6,1.2-1,1.9-1c0.6,0,1.1,0.3,1.6,0.8
						s0.8,1,0.8,1.7s-0.3,1.3-1,1.9C37.8,9.2,35.9,10.4,34.7,10.4z"/>
					<path class="st1" d="M37.1,5c0.4,0,0.7,0.2,1,0.5c0.6,0.6,0.8,1.3-0.2,2.2c-0.8,0.8-2.4,1.8-3.2,1.8c-0.2,0-0.3,0-0.4-0.1
						c-0.6-0.6,0.7-2.8,1.6-3.7C36.3,5.2,36.8,5,37.1,5 M37.1,3.1L37.1,3.1c-1,0-1.8,0.4-2.6,1.2C33.7,5.2,31,8.7,33,10.7
						c0.3,0.3,0.9,0.7,1.7,0.7c1.7,0,3.9-1.6,4.7-2.4s1.2-1.6,1.2-2.6c0-0.6-0.2-1.5-1-2.4C38.6,3.3,37.7,3.1,37.1,3.1L37.1,3.1z"/>
				</g>
				<g>
					<path class="st1" d="M29.8,16.2c-0.6,0-1.1-0.3-1.6-0.8c-1-1-1-2.4,0.2-3.6c0.8-0.8,2.6-2.1,3.9-2.1c0.6,0,1,0.2,1.1,0.4
						c0.6,0.6,0.6,1.5-0.1,2.8c-0.4,0.9-1,1.7-1.5,2.2C31.1,15.9,30.4,16.2,29.8,16.2L29.8,16.2z"/>
					<path class="st1" d="M32.2,10.8c0.2,0,0.3,0,0.4,0.1c0.6,0.6-0.7,2.8-1.6,3.7c-0.5,0.5-0.9,0.7-1.2,0.7c-0.4,0-0.7-0.2-1-0.5
						c-0.6-0.6-0.8-1.3,0.2-2.2C29.7,11.8,31.3,10.8,32.2,10.8 M32.2,8.9c-1.7,0-3.8,1.6-4.6,2.4c-1.5,1.5-1.6,3.4-0.2,4.9
						c0.9,0.9,1.7,1,2.4,1c1,0,1.8-0.4,2.6-1.2c0.9-0.9,3.6-4.4,1.6-6.4C33.5,9.1,33,8.9,32.2,8.9L32.2,8.9z"/>
				</g>
			</g>
			<g>
				<g>
					<path class="st1" d="M38.4,12.5c-0.8,0-4.8-0.5-4.8-2.4c0-2,4-2.4,4.8-2.4c2.3,0,2.7,1.4,2.7,2.3
						C40.9,11.5,39.9,12.5,38.4,12.5z"/>
					<path class="st1" d="M38.4,8.6c1.3,0,1.7,0.5,1.7,1.3c0,0.8-0.4,1.6-1.7,1.6c-1.3,0-3.8-0.7-3.8-1.4S37,8.6,38.4,8.6 M38.4,6.7
						c-1.2,0-5.7,0.6-5.7,3.3s4.5,3.3,5.7,3.3c2.2,0,3.6-1.4,3.6-3.5C41.9,8.4,40.9,6.7,38.4,6.7L38.4,6.7z"/>
				</g>
				<g>
					<path class="st1" d="M28.6,12.5c-1.6,0-2.7-0.9-2.7-2.4s1-2.4,2.7-2.4c0.8,0,4.8,0.5,4.8,2.4C33.2,12.1,29.2,12.5,28.6,12.5z"
						/>
					<path class="st1" d="M28.6,8.6c1.3,0,3.8,0.7,3.8,1.4s-2.5,1.4-3.8,1.4s-1.7-0.7-1.7-1.4S27.2,8.6,28.6,8.6 M28.6,6.7
						c-2.2,0-3.6,1.3-3.6,3.3s1.4,3.3,3.6,3.3c1.2,0,5.7-0.6,5.7-3.3S29.7,6.7,28.6,6.7L28.6,6.7z"/>
				</g>
			</g>
			<g>
				<g>
					<path class="st1" d="M37.1,16.2c-0.7,0-1.3-0.3-1.9-1c-0.6-0.6-1.1-1.4-1.5-2.2c-0.7-1.2-0.7-2.2-0.1-2.8
						c0.2-0.2,0.6-0.4,1.1-0.4c1.3,0,3.2,1.3,3.9,2.1c0.7,0.6,1,1.2,1,1.9c0,0.6-0.3,1.1-0.8,1.6C38.3,16,37.7,16.2,37.1,16.2z"/>
					<path class="st1" d="M34.7,10.8c0.9,0,2.5,1,3.2,1.8c1,1,0.8,1.6,0.2,2.2c-0.3,0.3-0.6,0.5-1,0.5c-0.4,0-0.8-0.2-1.2-0.7
						c-1-1-2.2-3.1-1.6-3.7C34.3,10.8,34.5,10.8,34.7,10.8 M34.7,8.9L34.7,8.9c-0.7,0-1.3,0.3-1.8,0.7c-0.6,0.6-1.1,1.8-0.1,3.9
						c0.5,1,1.1,1.9,1.7,2.5c0.8,0.8,1.7,1.2,2.6,1.2c0.6,0,1.4-0.2,2.3-1c1.4-1.4,1.3-3.3-0.2-4.9C38.5,10.4,36.4,8.9,34.7,8.9
						L34.7,8.9z"/>
				</g>
				<g>
					<path class="st1" d="M32.2,10.4c-1.2,0-3.1-1.2-4-2.1c-0.6-0.6-1-1.2-1-1.9c0-0.6,0.3-1.1,0.8-1.7c0.5-0.5,1-0.8,1.6-0.8
						c0.7,0,1.3,0.3,1.9,1c0.6,0.6,3,3.6,1.6,5C33.1,10.2,32.8,10.4,32.2,10.4L32.2,10.4z"/>
					<path class="st1" d="M29.7,5c0.4,0,0.8,0.2,1.2,0.7c1,1,2.2,3.1,1.6,3.7c-0.1,0.1-0.2,0.1-0.4,0.1c-0.9,0-2.5-1-3.2-1.8
						c-1-1-0.8-1.6-0.2-2.2C29.1,5.2,29.4,5,29.7,5 M29.7,3.1c-0.6,0-1.4,0.2-2.3,1s-1,1.7-1,2.4c0,1,0.4,1.8,1.2,2.6
						c0.8,0.8,2.9,2.3,4.6,2.3c0.9,0,1.4-0.4,1.7-0.7c2.3-2.3-1.6-6.4-1.6-6.4C31.5,3.5,30.7,3.1,29.7,3.1L29.7,3.1z"/>
				</g>
			</g>
			<g>
				<g>
					<circle class="st1" cx="33.4" cy="10.2" r="2.7"/>
					<path class="st1" d="M33.4,8.3c1,0,1.7,0.8,1.7,1.7s-0.8,1.7-1.7,1.7s-1.7-0.7-1.7-1.6C31.7,9.2,32.5,8.3,33.4,8.3 M33.4,6.4
						c-2,0-3.6,1.6-3.6,3.6s1.6,3.6,3.6,3.6s3.6-1.6,3.6-3.6S35.4,6.4,33.4,6.4L33.4,6.4z"/>
				</g>
				<g>
					<path class="st1" d="M29.6,34.3c-0.8,0-1.4-0.6-1.6-1.3l-2-10c-0.1-0.3,0-0.6,0.2-0.8c0.2-0.2,0.5-0.4,0.8-0.4h12.9
						c0.3,0,0.6,0.1,0.8,0.4c0.2,0.2,0.3,0.5,0.2,0.8l-2,10c-0.2,0.8-0.8,1.3-1.6,1.3H29.6z"/>
					<path class="st1" d="M39.9,22.8l-2,10c-0.1,0.3-0.3,0.6-0.7,0.6h-7.6c-0.3,0-0.6-0.2-0.7-0.6l-2-10H39.9 M39.9,20.9H27
						c-0.6,0-1.1,0.3-1.4,0.7c-0.4,0.5-0.5,1-0.4,1.6l2,10c0.3,1.2,1.3,2.1,2.5,2.1h7.6c1.2,0,2.3-0.9,2.5-2.1l2.1-10
						c0.1-0.6,0-1.1-0.4-1.6C41,21.2,40.5,20.9,39.9,20.9L39.9,20.9z M39.9,24.7L39.9,24.7L39.9,24.7L39.9,24.7z"/>
				</g>
			</g>
			<g>
				<path class="st1" d="M26,25.6c-0.7,0-1.3-0.6-1.3-1.3v-1.8c0-0.8,0.6-1.3,1.3-1.3h14.9c0.7,0,1.3,0.6,1.3,1.3v1.8
					c0,0.7-0.6,1.3-1.3,1.3H26z"/>
				<path class="st1" d="M40.9,22.1c0.2,0,0.4,0.2,0.4,0.4v1.8c0,0.2-0.2,0.4-0.4,0.4H26c-0.2,0-0.4-0.2-0.4-0.4v-1.8
					c0-0.2,0.2-0.4,0.4-0.4H40.9 M40.9,20.2H26c-1.2,0-2.3,1-2.3,2.3v1.8c0,1.2,1,2.3,2.3,2.3h14.9c1.2,0,2.3-1,2.3-2.3v-1.8
					C43.1,21.3,42.2,20.2,40.9,20.2L40.9,20.2z"/>
			</g>
			<g>
				<path class="st1" d="M28.2,29.9c-0.5,0-0.9-0.3-1-0.8l-0.2-1c-0.1-0.3,0-0.6,0.2-0.8c0.2-0.2,0.5-0.4,0.8-0.4H39
					c0.3,0,0.6,0.1,0.8,0.4s0.3,0.5,0.2,0.8l-0.2,1c-0.1,0.5-0.5,0.8-1,0.8H28.2z"/>
				<path class="st1" d="M38.9,28L38.9,28 M38.9,28l-0.2,1H28.2L28,28H38.9 M38.9,26L38.9,26H28c-0.6,0-1.1,0.3-1.4,0.7
					c-0.4,0.5-0.5,1-0.4,1.6l0.2,1c0.2,0.9,1,1.5,1.9,1.5h10.5c1,0,1.7-0.7,1.9-1.5l0.2-1c0-0.2,0.1-0.3,0.1-0.5
					C40.8,26.9,40,26,38.9,26L38.9,26z M38.9,29.9L38.9,29.9L38.9,29.9L38.9,29.9z"/>
			</g>
		</g>
		<g>
			<path class="st6" d="M43.2,14.3C43.2,14.3,43.2,14.4,43.2,14.3c-0.1,0.5-1.4,3.5-3.8,4.6c-2.9,1.3-4.1-0.9-4.1-0.9
				s-0.9-2.4,2-3.7C39.6,13.3,42.8,14.2,43.2,14.3z"/>
			<path class="st6" d="M39.3,18.9c2.4-1.1,3.7-4.1,3.9-4.6c0,0,0,0,0-0.1l-8,3.7C35.2,18.2,36.5,20.3,39.3,18.9z"/>
			<path class="st7" d="M33.9,18.2v-6.1c0-0.3-0.2-0.5-0.5-0.5c-0.3,0-0.5,0.2-0.5,0.5v6.1v1v4c0,0.3,0.2,0.5,0.5,0.5
				c0.3,0,0.5-0.2,0.5-0.5v-3.9c1.6-0.8,9.4-4.7,9.2-4.9C43.1,14.2,35.9,17.3,33.9,18.2z"/>
			<g>
				<path class="st8" d="M34.9,5.2c0,1.3-0.7,3.8-1.4,3.8C32.7,9,32,6.5,32,5.2s0.7-1.7,1.4-1.7C34.3,3.6,34.9,4,34.9,5.2z"/>
				<path class="st8" d="M34.9,15c0-1.3-0.7-3.8-1.4-3.8c-0.8,0-1.4,2.5-1.4,3.8s0.7,1.7,1.4,1.7C34.2,16.7,34.9,16.3,34.9,15z"/>
			</g>
			<g>
				<path class="st9" d="M37.9,7.7c-1,1-3.1,2.2-3.7,1.6c-0.6-0.6,0.7-2.8,1.6-3.7s1.6-0.8,2.2-0.2C38.7,6.1,38.9,6.8,37.9,7.7z"/>
				<path class="st9" d="M31,14.6c1-1,2.2-3.1,1.6-3.7s-2.8,0.7-3.7,1.6c-1,1-0.8,1.6-0.2,2.2C29.3,15.4,30.1,15.6,31,14.6z"/>
			</g>
			<g>
				<path class="st8" d="M38.4,11.6c-1.3,0-3.8-0.7-3.8-1.4s2.5-1.4,3.8-1.4c1.3,0,1.7,0.5,1.7,1.3C40,10.7,39.6,11.6,38.4,11.6z"/>
				<path class="st8" d="M28.6,11.6c1.3,0,3.8-0.7,3.8-1.4s-2.5-1.4-3.8-1.4s-1.7,0.7-1.7,1.4S27.2,11.6,28.6,11.6z"/>
			</g>
			<g>
				<path class="st9" d="M35.9,14.6c-1-1-2.2-3.1-1.6-3.7s2.8,0.7,3.7,1.6c1,1,0.8,1.6,0.2,2.2C37.5,15.4,36.8,15.6,35.9,14.6z"/>
				<path class="st9" d="M29,7.7c1,1,3.1,2.2,3.7,1.6c0.6-0.6-0.7-2.8-1.6-3.7s-1.6-0.8-2.2-0.2C28.2,6.1,28,6.8,29,7.7z"/>
			</g>
			<g>
				<circle class="st10" cx="33.4" cy="10.2" r="1.7"/>
				<path class="st10" d="M37.2,33.4h-7.6c-0.3,0-0.6-0.2-0.7-0.6l-2-10h12.9l-2,10C37.8,33.2,37.6,33.4,37.2,33.4z"/>
			</g>
			<path class="st11" d="M40.9,24.6H26c-0.2,0-0.4-0.2-0.4-0.4v-1.8c0-0.2,0.2-0.4,0.4-0.4h14.9c0.2,0,0.4,0.2,0.4,0.4v1.8
				C41.2,24.4,41.1,24.6,40.9,24.6z"/>
			<polygon class="st11" points="38.7,29 38.9,28 28,28 28.2,29 			"/>
		</g>
	</g>
</g>
<g>
	<g>
		<g>
			<g>
				<path class="st1" d="M95.5,20.3c-1.7,0-2.8-1.1-3.1-1.8c0,0,0-0.1-0.1-0.1c-0.4-1.1-0.5-3.5,2.5-4.9c0.9-0.4,1.9-0.7,3.1-0.7
					c1.6,0,2.9,0.4,3.5,0.5l0,0c0.4,0.1,0.8,0.6,0.8,1c0,0.1,0,0.3-0.1,0.4c-0.3,0.7-1.7,3.8-4.4,5C96.9,20.1,96.2,20.3,95.5,20.3z"
					/>
				<path class="st1" d="M97.9,13.9c1.5,0,2.9,0.4,3.2,0.5c0,0,0,0,0,0.1c-0.2,0.4-1.5,3.4-3.9,4.6c-0.7,0.3-1.3,0.5-1.8,0.5
					c-1.6,0-2.3-1.2-2.3-1.2s-0.9-2.4,2-3.7C96,14.1,97,13.9,97.9,13.9 M97.9,12L97.9,12c-1.3,0-2.6,0.3-3.5,0.8
					c-3.3,1.5-3.6,4.5-2.9,6.1c0,0.1,0.1,0.2,0.1,0.3c0.1,0.2,1.3,2.3,4,2.3c0.9,0,1.7-0.2,2.6-0.7c2.9-1.3,4.4-4.6,4.9-5.5
					c0.1-0.2,0.2-0.5,0.2-0.8c0-1-0.7-1.7-1.5-1.9C100.9,12.3,99.5,12,97.9,12L97.9,12z"/>
			</g>
			<g>
				<path class="st1" d="M95.5,20.3c-2,0-3.3-1.6-3.3-2.3c0-0.4,0.2-0.7,0.6-0.9l8-3.7c0.1-0.1,0.3-0.1,0.4-0.1c0.2,0,0.3,0,0.4,0.1
					c0.2,0.1,0.5,0.4,0.5,0.6s0.1,0.6-0.1,0.8c-0.3,0.6-1.7,3.7-4.3,4.9C96.9,20.1,96.2,20.3,95.5,20.3L95.5,20.3z"/>
				<path class="st1" d="M101.1,14.3C101.1,14.3,101.1,14.4,101.1,14.3c-0.1,0.5-1.4,3.5-3.8,4.6c-0.7,0.3-1.3,0.5-1.8,0.5
					c-1.6,0-2.4-1.2-2.4-1.3L101.1,14.3 M101.1,12.4c-0.3,0-0.6,0.1-0.9,0.2l-8,3.7c-0.7,0.3-1,1-1,1.7c0,1.2,1.8,3.2,4.3,3.2
					c0.9,0,1.7-0.2,2.6-0.7c2.9-1.3,4.4-4.5,4.8-5.5c0.4-1,0-2.1-1-2.6C101.7,12.5,101.4,12.4,101.1,12.4L101.1,12.4z"/>
			</g>
			<g>
				<path class="st1" d="M91.3,24.6c-0.8,0-1.4-0.7-1.4-1.4V12.1c0-0.8,0.7-1.4,1.4-1.4c0.8,0,1.4,0.7,1.4,1.4v4.7
					c5-2.2,7.8-3.3,8.3-3.3c0.4,0,0.7,0.2,0.9,0.5c0.5,1,0.6,1.1-9.1,5.9v3.4C92.7,24.1,92.2,24.6,91.3,24.6z"/>
				<path class="st1" d="M91.3,11.6c0.3,0,0.5,0.2,0.5,0.5v6.1c1.9-0.9,8.8-3.8,9.2-3.8l0,0c0.1,0.2-7.6,4.1-9.2,4.9v4
					c0,0.3-0.2,0.5-0.5,0.5c-0.3,0-0.5-0.2-0.5-0.5v-3.9v-1v-6.1C90.8,11.8,91,11.6,91.3,11.6 M91.3,9.7c-1.3,0-2.4,1-2.4,2.4v6.1v1
					v4c0,1.3,1,2.4,2.4,2.4s2.4-1,2.4-2.4v-2.8c1-0.6,2.8-1.3,4.3-2.2c1.2-0.7,2.2-1.1,2.9-1.5c1.1-0.7,2.8-1.5,2-3.2
					c0,0,0-0.1-0.1-0.1c-0.3-0.6-1-1-1.7-1c-0.4,0-0.9,0-7.3,2.8V12C93.7,10.7,92.6,9.7,91.3,9.7L91.3,9.7z"/>
			</g>
			<g>
				<g>
					<path class="st1" d="M91.3,10c-2,0-2.4-4-2.4-4.8c0-1.6,0.9-2.7,2.4-2.7c1.5,0,2.4,1,2.4,2.7C93.7,6,93.3,10,91.3,10z"/>
					<path class="st1" d="M91.3,3.5c0.8,0,1.4,0.4,1.4,1.7S92.1,9,91.3,9c-0.8,0-1.4-2.5-1.4-3.8S90.5,3.5,91.3,3.5 M91.3,1.6
						c-2,0-3.3,1.4-3.3,3.6c0,1.2,0.6,5.7,3.3,5.7s3.3-4.5,3.3-5.7C94.6,3.1,93.4,1.7,91.3,1.6L91.3,1.6L91.3,1.6z"/>
				</g>
				<g>
					<path class="st1" d="M91.3,17.7c-1.5,0-2.4-1-2.4-2.7c0-0.8,0.5-4.8,2.4-4.8c2,0,2.4,4,2.4,4.8C93.7,16.7,92.8,17.7,91.3,17.7z
						"/>
					<path class="st1" d="M91.3,11.3c0.8,0,1.4,2.5,1.4,3.8s-0.7,1.7-1.4,1.7c-0.8,0-1.4-0.4-1.4-1.7S90.5,11.3,91.3,11.3 M91.3,9.4
						c-2.8,0-3.3,4.5-3.3,5.7c0,2.2,1.3,3.6,3.3,3.6c2,0,3.3-1.4,3.3-3.6C94.6,13.9,94.1,9.4,91.3,9.4L91.3,9.4z"/>
				</g>
			</g>
			<g>
				<g>
					<path class="st1" d="M92.5,10.4c-0.6,0-0.9-0.2-1-0.4c-1.4-1.4,1.1-4.5,1.6-5c0.6-0.6,1.2-1,1.9-1c0.6,0,1.1,0.3,1.6,0.8
						s0.8,1,0.8,1.7s-0.3,1.3-1,1.9C95.7,9.2,93.8,10.4,92.5,10.4z"/>
					<path class="st1" d="M95,5c0.4,0,0.7,0.2,1,0.5c0.6,0.6,0.8,1.3-0.2,2.2c-0.8,0.8-2.4,1.8-3.2,1.8c-0.2,0-0.3,0-0.4-0.1
						c-0.6-0.6,0.7-2.8,1.6-3.7C94.2,5.2,94.6,5,95,5 M95,3.1L95,3.1c-1,0-1.8,0.4-2.6,1.2c-0.9,0.9-3.6,4.4-1.6,6.4
						c0.3,0.3,0.9,0.7,1.7,0.7c1.7,0,3.9-1.6,4.7-2.4c0.8-0.8,1.2-1.6,1.2-2.6c0-0.6-0.2-1.5-1-2.4C96.4,3.3,95.6,3.1,95,3.1L95,3.1
						z"/>
				</g>
				<g>
					<path class="st1" d="M87.7,16.2c-0.6,0-1.1-0.3-1.6-0.8c-1-1-1-2.4,0.2-3.6c0.8-0.8,2.6-2.1,3.9-2.1c0.6,0,1,0.2,1.1,0.4
						c0.6,0.6,0.6,1.5-0.1,2.8c-0.4,0.9-1,1.7-1.5,2.2C88.9,15.9,88.3,16.2,87.7,16.2L87.7,16.2z"/>
					<path class="st1" d="M90.1,10.8c0.2,0,0.3,0,0.4,0.1c0.6,0.6-0.7,2.8-1.6,3.7c-0.5,0.5-0.9,0.7-1.2,0.7c-0.4,0-0.7-0.2-1-0.5
						c-0.6-0.6-0.8-1.3,0.2-2.2C87.6,11.8,89.2,10.8,90.1,10.8 M90.1,8.9c-1.7,0-3.8,1.6-4.6,2.4c-1.5,1.5-1.6,3.4-0.2,4.9
						c0.9,0.9,1.7,1,2.4,1c1,0,1.8-0.4,2.6-1.2c0.9-0.9,3.6-4.4,1.6-6.4C91.4,9.1,90.8,8.9,90.1,8.9L90.1,8.9z"/>
				</g>
			</g>
			<g>
				<g>
					<path class="st1" d="M96.3,12.5c-0.8,0-4.8-0.5-4.8-2.4c0-2,4-2.4,4.8-2.4c2.3,0,2.7,1.4,2.7,2.3
						C98.8,11.5,97.8,12.5,96.3,12.5z"/>
					<path class="st1" d="M96.3,8.6c1.3,0,1.7,0.5,1.7,1.3c0,0.8-0.4,1.6-1.7,1.6s-3.8-0.7-3.8-1.4S94.9,8.6,96.3,8.6 M96.3,6.7
						c-1.2,0-5.7,0.6-5.7,3.3s4.5,3.3,5.7,3.3c2.2,0,3.6-1.4,3.6-3.5C99.8,8.4,98.8,6.7,96.3,6.7L96.3,6.7z"/>
				</g>
				<g>
					<path class="st1" d="M86.5,12.5c-1.6,0-2.7-0.9-2.7-2.4s1-2.4,2.7-2.4c0.8,0,4.8,0.5,4.8,2.4C91.1,12.1,87.1,12.5,86.5,12.5z"
						/>
					<path class="st1" d="M86.5,8.6c1.3,0,3.8,0.7,3.8,1.4s-2.5,1.4-3.8,1.4c-1.3,0-1.7-0.7-1.7-1.4S85.1,8.6,86.5,8.6 M86.5,6.7
						c-2.2,0-3.6,1.3-3.6,3.3s1.4,3.3,3.6,3.3c1.2,0,5.7-0.6,5.7-3.3S87.6,6.7,86.5,6.7L86.5,6.7z"/>
				</g>
			</g>
			<g>
				<g>
					<path class="st1" d="M95,16.2c-0.7,0-1.3-0.3-1.9-1c-0.6-0.6-1.1-1.4-1.5-2.2c-0.7-1.2-0.7-2.2-0.1-2.8
						c0.2-0.2,0.6-0.4,1.1-0.4c1.3,0,3.2,1.3,3.9,2.1c0.7,0.6,1,1.2,1,1.9c0,0.6-0.3,1.1-0.8,1.6C96.2,16,95.6,16.2,95,16.2z"/>
					<path class="st1" d="M92.5,10.8c0.9,0,2.5,1,3.2,1.8c1,1,0.8,1.6,0.2,2.2c-0.3,0.3-0.6,0.5-1,0.5c-0.4,0-0.8-0.2-1.2-0.7
						c-1-1-2.2-3.1-1.6-3.7C92.2,10.8,92.3,10.8,92.5,10.8 M92.5,8.9L92.5,8.9c-0.7,0-1.3,0.3-1.8,0.7c-0.6,0.6-1.1,1.8-0.1,3.9
						c0.5,1,1.1,1.9,1.7,2.5c0.8,0.8,1.7,1.2,2.6,1.2c0.6,0,1.4-0.2,2.3-1c1.4-1.4,1.3-3.3-0.2-4.9C96.3,10.4,94.3,8.9,92.5,8.9
						L92.5,8.9z"/>
				</g>
				<g>
					<path class="st1" d="M90.1,10.4c-1.2,0-3.1-1.2-4-2.1c-0.6-0.6-1-1.2-1-1.9c0-0.6,0.3-1.1,0.8-1.7c0.5-0.5,1-0.8,1.6-0.8
						c0.7,0,1.3,0.3,1.9,1c0.6,0.6,3,3.6,1.6,5C91,10.2,90.6,10.4,90.1,10.4L90.1,10.4z"/>
					<path class="st1" d="M87.6,5c0.4,0,0.8,0.2,1.2,0.7c1,1,2.2,3.1,1.6,3.7c-0.1,0.1-0.2,0.1-0.4,0.1c-0.9,0-2.5-1-3.2-1.8
						c-1-1-0.8-1.6-0.2-2.2C86.9,5.2,87.3,5,87.6,5 M87.6,3.1c-0.6,0-1.4,0.2-2.3,1s-1,1.7-1,2.4c0,1,0.4,1.8,1.2,2.6
						c0.8,0.8,2.9,2.3,4.6,2.3c0.9,0,1.4-0.4,1.7-0.7c2.3-2.3-1.6-6.4-1.6-6.4C89.4,3.5,88.5,3.1,87.6,3.1L87.6,3.1z"/>
				</g>
			</g>
			<g>
				<g>
					<circle class="st1" cx="91.3" cy="10.2" r="2.7"/>
					<path class="st1" d="M91.3,8.3c1,0,1.7,0.8,1.7,1.7s-0.8,1.7-1.7,1.7s-1.7-0.7-1.7-1.6C89.6,9.2,90.4,8.3,91.3,8.3 M91.3,6.4
						c-2,0-3.6,1.6-3.6,3.6s1.6,3.6,3.6,3.6c2,0,3.6-1.6,3.6-3.6S93.3,6.4,91.3,6.4L91.3,6.4z"/>
				</g>
				<g>
					<path class="st1" d="M87.5,34.3c-0.8,0-1.4-0.6-1.6-1.3l-2-10c-0.1-0.3,0-0.6,0.2-0.8c0.2-0.2,0.5-0.4,0.8-0.4h12.9
						c0.3,0,0.6,0.1,0.8,0.4c0.2,0.2,0.3,0.5,0.2,0.8l-2,10c-0.2,0.8-0.8,1.3-1.6,1.3H87.5z"/>
					<path class="st1" d="M97.8,22.8l-2,10c-0.1,0.3-0.3,0.6-0.7,0.6h-7.6c-0.3,0-0.6-0.2-0.7-0.6l-2-10H97.8 M97.8,20.9H84.8
						c-0.6,0-1.1,0.3-1.4,0.7c-0.4,0.5-0.5,1-0.4,1.6l2,10c0.3,1.2,1.3,2.1,2.5,2.1h7.6c1.2,0,2.3-0.9,2.5-2.1l2.1-10
						c0.1-0.6,0-1.1-0.4-1.6C98.9,21.2,98.3,20.9,97.8,20.9L97.8,20.9z M97.8,24.7L97.8,24.7L97.8,24.7L97.8,24.7z"/>
				</g>
			</g>
			<g>
				<path class="st1" d="M83.9,25.6c-0.7,0-1.3-0.6-1.3-1.3v-1.8c0-0.8,0.6-1.3,1.3-1.3h14.9c0.7,0,1.3,0.6,1.3,1.3v1.8
					c0,0.7-0.6,1.3-1.3,1.3H83.9z"/>
				<path class="st1" d="M98.8,22.1c0.2,0,0.4,0.2,0.4,0.4v1.8c0,0.2-0.2,0.4-0.4,0.4H83.9c-0.2,0-0.4-0.2-0.4-0.4v-1.8
					c0-0.2,0.2-0.4,0.4-0.4H98.8 M98.8,20.2H83.9c-1.2,0-2.3,1-2.3,2.3v1.8c0,1.2,1,2.3,2.3,2.3h14.9c1.2,0,2.3-1,2.3-2.3v-1.8
					C101,21.3,100.1,20.2,98.8,20.2L98.8,20.2z"/>
			</g>
			<g>
				<path class="st1" d="M86.1,29.9c-0.5,0-0.9-0.3-1-0.8l-0.2-1c-0.1-0.3,0-0.6,0.2-0.8s0.5-0.4,0.8-0.4h10.9
					c0.3,0,0.6,0.1,0.8,0.4s0.3,0.5,0.2,0.8l-0.2,1c-0.1,0.5-0.5,0.8-1,0.8H86.1z"/>
				<path class="st1" d="M96.7,28L96.7,28 M96.7,28l-0.2,1H86.1l-0.2-1H96.7 M96.7,26L96.7,26H85.9c-0.6,0-1.1,0.3-1.4,0.7
					c-0.4,0.5-0.5,1-0.4,1.6l0.2,1c0.2,0.9,1,1.5,1.9,1.5h10.5c1,0,1.7-0.7,1.9-1.5l0.2-1c0-0.2,0.1-0.3,0.1-0.5
					C98.6,26.9,97.9,26,96.7,26L96.7,26z M96.7,29.9L96.7,29.9L96.7,29.9L96.7,29.9z"/>
			</g>
		</g>
		<g>
			<path class="st6" d="M101.1,14.3C101.1,14.3,101.1,14.4,101.1,14.3c-0.1,0.5-1.4,3.5-3.8,4.6c-2.9,1.3-4.1-0.9-4.1-0.9
				s-0.9-2.4,2-3.7C97.5,13.3,100.6,14.2,101.1,14.3z"/>
			<path class="st6" d="M97.2,18.9c2.4-1.1,3.7-4.1,3.9-4.6c0,0,0,0,0-0.1l-8,3.7C93.1,18.2,94.3,20.3,97.2,18.9z"/>
			<path class="st7" d="M91.8,18.2v-6.1c0-0.3-0.2-0.5-0.5-0.5c-0.3,0-0.5,0.2-0.5,0.5v6.1v1v4c0,0.3,0.2,0.5,0.5,0.5
				c0.3,0,0.5-0.2,0.5-0.5v-3.9c1.6-0.8,9.4-4.7,9.2-4.9C101,14.2,93.8,17.3,91.8,18.2z"/>
			<g>
				<path class="st8" d="M92.7,5.2c0,1.3-0.7,3.8-1.4,3.8c-0.8,0-1.4-2.5-1.4-3.8s0.7-1.7,1.4-1.7C92.2,3.6,92.7,4,92.7,5.2z"/>
				<path class="st8" d="M92.7,15c0-1.3-0.7-3.8-1.4-3.8c-0.8,0-1.4,2.5-1.4,3.8s0.7,1.7,1.4,1.7C92.1,16.7,92.7,16.3,92.7,15z"/>
			</g>
			<g>
				<path class="st9" d="M95.8,7.7c-1,1-3.1,2.2-3.7,1.6c-0.6-0.6,0.7-2.8,1.6-3.7s1.6-0.8,2.2-0.2C96.5,6.1,96.7,6.8,95.8,7.7z"/>
				<path class="st9" d="M88.8,14.6c1-1,2.2-3.1,1.6-3.7c-0.6-0.6-2.8,0.7-3.7,1.6c-1,1-0.8,1.6-0.2,2.2
					C87.2,15.4,88,15.6,88.8,14.6z"/>
			</g>
			<g>
				<path class="st8" d="M96.3,11.6c-1.3,0-3.8-0.7-3.8-1.4s2.5-1.4,3.8-1.4S98,9.2,98,10.1C97.9,10.7,97.5,11.6,96.3,11.6z"/>
				<path class="st8" d="M86.5,11.6c1.3,0,3.8-0.7,3.8-1.4s-2.5-1.4-3.8-1.4c-1.3,0-1.7,0.7-1.7,1.4S85.1,11.6,86.5,11.6z"/>
			</g>
			<g>
				<path class="st9" d="M93.8,14.6c-1-1-2.2-3.1-1.6-3.7c0.6-0.6,2.8,0.7,3.7,1.6c1,1,0.8,1.6,0.2,2.2
					C95.4,15.4,94.6,15.6,93.8,14.6z"/>
				<path class="st9" d="M86.8,7.7c1,1,3.1,2.2,3.7,1.6c0.6-0.6-0.7-2.8-1.6-3.7c-1-1-1.6-0.8-2.2-0.2C86.1,6.1,85.9,6.8,86.8,7.7z"
					/>
			</g>
			<g>
				<circle class="st10" cx="91.3" cy="10.2" r="1.7"/>
				<path class="st10" d="M95.1,33.4h-7.6c-0.3,0-0.6-0.2-0.7-0.6l-2-10h12.9l-2,10C95.7,33.2,95.5,33.4,95.1,33.4z"/>
			</g>
			<path class="st11" d="M98.8,24.6H83.9c-0.2,0-0.4-0.2-0.4-0.4v-1.8c0-0.2,0.2-0.4,0.4-0.4h14.9c0.2,0,0.4,0.2,0.4,0.4v1.8
				C99.1,24.4,99,24.6,98.8,24.6z"/>
			<polygon class="st11" points="96.5,29 96.7,28 85.9,28 86.1,29 			"/>
		</g>
	</g>
</g>
<g>
	<path class="st1" d="M125.7,21.3c0.2,0.2,0.3,0.5,0.3,0.8c0,0.3-0.1,0.6-0.3,0.8c-0.2,0.2-0.5,0.3-0.8,0.3h-4v4
		c0,0.3-0.1,0.6-0.3,0.8c-0.2,0.2-0.5,0.3-0.8,0.3c-0.3,0-0.6-0.1-0.8-0.3c-0.2-0.2-0.3-0.5-0.3-0.8v-4h-4c-0.3,0-0.6-0.1-0.8-0.3
		c-0.2-0.2-0.3-0.5-0.3-0.8c0-0.3,0.1-0.6,0.3-0.8c0.2-0.2,0.5-0.3,0.8-0.3h4v-4c0-0.3,0.1-0.6,0.3-0.8c0.2-0.2,0.5-0.3,0.8-0.3
		c0.3,0,0.6,0.1,0.8,0.3c0.2,0.2,0.3,0.5,0.3,0.8v4h4C125.2,21,125.5,21.1,125.7,21.3z"/>
</g>
<g>
	<path class="st1" d="M67.8,21.3c0.2,0.2,0.3,0.5,0.3,0.8c0,0.3-0.1,0.6-0.3,0.8c-0.2,0.2-0.5,0.3-0.8,0.3h-4v4
		c0,0.3-0.1,0.6-0.3,0.8c-0.2,0.2-0.5,0.3-0.8,0.3c-0.3,0-0.6-0.1-0.8-0.3c-0.2-0.2-0.3-0.5-0.3-0.8v-4h-4c-0.3,0-0.6-0.1-0.8-0.3
		c-0.2-0.2-0.3-0.5-0.3-0.8c0-0.3,0.1-0.6,0.3-0.8c0.2-0.2,0.5-0.3,0.8-0.3h4v-4c0-0.3,0.1-0.6,0.3-0.8c0.2-0.2,0.5-0.3,0.8-0.3
		c0.3,0,0.6,0.1,0.8,0.3c0.2,0.2,0.3,0.5,0.3,0.8v4h4C67.3,21,67.6,21.1,67.8,21.3z"/>
</g>
</svg>
