<?xml version="1.0" encoding="utf-8"?>
<!-- Generator: Adobe Illustrator 22.1.0, SVG Export Plug-In . SVG Version: 6.00 Build 0)  -->
<svg version="1.1" id="Layer_1" xmlns="http://www.w3.org/2000/svg" xmlns:xlink="http://www.w3.org/1999/xlink" x="0px" y="0px"
	 viewBox="0 0 336.7 293.7" style="enable-background:new 0 0 336.7 293.7;" xml:space="preserve">
<style type="text/css">
	.st0{fill:#60025E;}
	.st1{opacity:0.2;}
	.st2{fill:#FFFFFF;}
	.st3{fill:none;stroke:#647CA0;stroke-width:5.2793;stroke-linecap:round;stroke-linejoin:round;stroke-miterlimit:10;}
	.st4{fill:none;stroke:#394961;stroke-width:7.0392;stroke-linecap:square;stroke-miterlimit:10;stroke-dasharray:0.8799,13.1984;}
	.st5{fill:#647CA0;}
	.st6{fill:#00CDC8;}
	.st7{fill:#F24044;}
	.st8{fill:#FADC3C;}
	.st9{fill:#A5D73C;}
</style>
<g>
	<g>
		<path class="st0" d="M192.8,173.7h-48.9c-3.4,0-6.1-2.7-6.1-6.1v-41.5c0-3.4,2.7-6.1,6.1-6.1h48.9c3.4,0,6.1,2.7,6.1,6.1v41.5
			C198.9,171,196.2,173.7,192.8,173.7z"/>
		<g class="st1">
			<g>
				<circle cx="145.8" cy="123.9" r="2.1"/>
				<circle cx="160.9" cy="123.9" r="2.1"/>
				<circle cx="175.9" cy="123.9" r="2.1"/>
				<circle cx="191" cy="123.9" r="2.1"/>
			</g>
			<g>
				<circle cx="145.8" cy="169.9" r="2.1"/>
				<circle cx="160.9" cy="169.9" r="2.1"/>
				<circle cx="175.9" cy="169.9" r="2.1"/>
				<circle cx="191" cy="169.9" r="2.1"/>
			</g>
			<rect x="139.5" y="127.1" width="58.7" height="0.6"/>
			<rect x="139.5" y="166" width="58.7" height="0.6"/>
			<path d="M191.3,164.3H146c-2.4,0-4.5-2.1-4.5-4.5v-25.6c0-2.4,2.1-4.5,4.5-4.5h45.3c2.4,0,4.5,2.1,4.5,4.5v25.6
				C195.9,162.3,193.8,164.3,191.3,164.3z"/>
		</g>
	</g>
	<g>
		<path class="st2" d="M167.9,156.3c0,1.1-0.6,1.6-1.8,1.6h-11.6c-0.5,0-0.9-0.2-1.3-0.5c-0.3-0.3-0.5-0.7-0.5-1.2
			c0-0.6,0.2-1.2,0.7-1.7l7-7.5c0.9-0.9,1.5-1.8,1.9-2.6s0.6-1.6,0.6-2.3c0-1-0.3-1.7-0.8-2.2c-0.6-0.5-1.3-0.8-2.4-0.8
			c-0.8,0-1.6,0.2-2.4,0.5c-0.8,0.3-1.6,0.7-2.4,1.3c-0.2,0.1-0.4,0.3-0.6,0.4c-0.2,0.1-0.4,0.1-0.6,0.1c-0.3,0-0.6-0.2-0.9-0.5
			c-0.3-0.3-0.4-0.7-0.4-1.2c0-0.3,0.1-0.6,0.2-0.8c0.1-0.2,0.3-0.4,0.5-0.6c0.9-0.7,1.9-1.3,3.1-1.7c1.2-0.4,2.4-0.6,3.6-0.6
			c2.1,0,3.8,0.5,5,1.6c1.3,1.1,1.9,2.5,1.9,4.3c0,1.2-0.3,2.4-0.8,3.5s-1.4,2.3-2.7,3.7l-5.3,5.6h8.1
			C167.3,154.7,167.9,155.3,167.9,156.3z"/>
		<path class="st2" d="M171.3,155.4c-1.3-1.9-2-4.6-2-8.2c0-3.6,0.7-6.3,2-8.2s3.3-2.8,5.8-2.8s4.5,0.9,5.8,2.8c1.3,1.9,2,4.6,2,8.2
			s-0.7,6.3-2,8.2s-3.3,2.8-5.8,2.8S172.6,157.3,171.3,155.4z M180.1,153.2c0.6-1.3,0.9-3.3,0.9-6.1s-0.3-4.8-0.9-6.1
			c-0.6-1.3-1.6-1.9-3-1.9s-2.4,0.6-3,1.9c-0.6,1.3-0.9,3.3-0.9,6.1s0.3,4.8,0.9,6.1c0.6,1.3,1.6,1.9,3,1.9S179.5,154.5,180.1,153.2
			z"/>
	</g>
</g>
<g>
	<g>
		<g>
			<g>
				<g>
					<path class="st3" d="M154,178.2V207c0,4.5-3.6,8.2-8.2,8.2h-9.5"/>
					<path class="st4" d="M154,178.2V207c0,4.5-3.6,8.2-8.2,8.2h-9.5"/>
				</g>
			</g>
		</g>
		<rect x="131.6" y="204.5" class="st5" width="4.7" height="20.3"/>
	</g>
	<g>
		<g>
			<g>
				<g>
					<path class="st3" d="M97.7,215.6H48.3"/>
				</g>
			</g>
		</g>
	</g>
	<g>
		<path class="st6" d="M128.7,238.6H90.2c-2.2,0-4.1-1.9-4.1-4.1v-34.6c0-2.2,1.9-4.1,4.1-4.1h38.5c2.2,0,4.1,1.9,4.1,4.1v34.6
			C132.7,236.8,130.9,238.6,128.7,238.6z"/>
		<g class="st1">
			<g>
				<circle cx="92.3" cy="198.9" r="1.6"/>
				<circle cx="103.7" cy="198.9" r="1.6"/>
				<circle cx="115.1" cy="198.9" r="1.6"/>
				<circle cx="126.6" cy="198.9" r="1.6"/>
			</g>
			<g>
				<circle cx="92.3" cy="235.7" r="1.6"/>
				<circle cx="103.7" cy="235.7" r="1.6"/>
				<circle cx="115.1" cy="235.7" r="1.6"/>
				<circle cx="126.6" cy="235.7" r="1.6"/>
			</g>
			<rect x="87.4" y="201.4" width="44.7" height="0.5"/>
			<rect x="87.4" y="232.7" width="44.7" height="0.5"/>
			<path d="M126.9,231.5H92.5c-1.9,0-3.4-1.6-3.4-3.4v-21.3c0-1.9,1.6-3.4,3.4-3.4H127c1.9,0,3.4,1.6,3.4,3.4v21.3
				C130.4,229.9,128.8,231.5,126.9,231.5z"/>
		</g>
	</g>
	<g>
		<path class="st2" d="M108.5,209.8c0.2,0.2,0.3,0.5,0.3,0.9s-0.1,0.7-0.3,1.1l-7.4,13.5c-0.3,0.5-0.7,0.8-1.3,0.8
			c-0.4,0-0.7-0.1-1-0.4c-0.3-0.3-0.4-0.6-0.4-0.9c0-0.3,0.1-0.5,0.2-0.8l6.7-12.1h-7c-0.9,0-1.4-0.4-1.4-1.2s0.5-1.2,1.4-1.2h9.3
			C107.9,209.4,108.2,209.5,108.5,209.8z"/>
		<path class="st2" d="M120.5,218.8c0.5,0.7,0.8,1.5,0.8,2.6c0,1.4-0.5,2.5-1.6,3.4c-1,0.8-2.4,1.3-4.2,1.3c-1,0-2-0.2-2.9-0.5
			s-1.7-0.7-2.4-1.3c-0.4-0.3-0.5-0.7-0.5-1.1c0-0.3,0.1-0.6,0.3-0.9c0.2-0.2,0.4-0.4,0.7-0.4c0.2,0,0.3,0,0.4,0.1s0.3,0.1,0.5,0.3
			c0.7,0.4,1.3,0.8,1.9,1s1.2,0.3,1.9,0.3c1,0,1.8-0.2,2.3-0.6c0.5-0.4,0.7-1,0.7-1.9c0-0.8-0.3-1.4-0.8-1.8s-1.3-0.6-2.4-0.6h-1.3
			c-0.4,0-0.6-0.1-0.8-0.4c-0.2-0.2-0.3-0.5-0.3-0.8s0.1-0.6,0.3-0.8c0.2-0.2,0.5-0.3,0.8-0.3h0.9c2.1,0,3.2-0.8,3.2-2.4
			c0-0.7-0.2-1.3-0.7-1.7s-1.1-0.6-1.9-0.6c-1.1,0-2.3,0.5-3.6,1.4c-0.2,0.1-0.4,0.2-0.5,0.3s-0.3,0.1-0.4,0.1
			c-0.3,0-0.5-0.1-0.7-0.4c-0.2-0.2-0.3-0.5-0.3-0.9c0-0.2,0-0.4,0.1-0.6s0.2-0.3,0.4-0.5c0.7-0.5,1.4-1,2.3-1.3s1.8-0.5,2.8-0.5
			c1.6,0,2.9,0.4,3.9,1.2s1.4,1.8,1.4,3.2c0,0.9-0.3,1.7-0.7,2.4c-0.5,0.7-1.1,1.2-1.9,1.5C119.3,217.7,120,218.1,120.5,218.8z"/>
	</g>
	<rect x="148.6" y="173.7" class="st5" width="10.7" height="4.7"/>
	<g>
		<rect x="28.8" y="201.3" class="st5" width="4.7" height="17.8"/>
	</g>
	<g>
		<path class="st5" d="M51.2,238.6H12.7c-2.2,0-4.1-1.9-4.1-4.1v-34.6c0-2.2,1.9-4.1,4.1-4.1h38.5c2.2,0,4.1,1.9,4.1,4.1v34.6
			C55.3,236.8,53.4,238.6,51.2,238.6z"/>
		<g class="st1">
			<g>
				<circle cx="14.7" cy="198.9" r="1.6"/>
				<circle cx="26.2" cy="198.9" r="1.6"/>
				<circle cx="37.7" cy="198.9" r="1.6"/>
				<circle cx="49.1" cy="198.9" r="1.6"/>
			</g>
			<g>
				<circle cx="14.7" cy="235.7" r="1.6"/>
				<circle cx="26.2" cy="235.7" r="1.6"/>
				<circle cx="37.7" cy="235.7" r="1.6"/>
				<circle cx="49.1" cy="235.7" r="1.6"/>
			</g>
			<rect x="9.9" y="201.4" width="44.7" height="0.5"/>
			<rect x="9.9" y="232.7" width="44.7" height="0.5"/>
			<path d="M49.4,231.5H14.9c-1.9,0-3.4-1.6-3.4-3.4v-21.3c0-1.9,1.6-3.4,3.4-3.4h34.5c1.9,0,3.4,1.6,3.4,3.4v21.3
				C52.8,229.9,51.3,231.5,49.4,231.5z"/>
		</g>
	</g>
	<g>
		<g>
			<path class="st0" d="M71.4,226.9c-6.4,0-11.7-5.2-11.7-11.7c0-6.4,5.2-11.7,11.7-11.7s11.7,5.2,11.7,11.7
				C83.1,221.6,77.8,226.9,71.4,226.9z"/>
			<path class="st2" d="M71.4,204c6.2,0,11.2,5,11.2,11.2s-5,11.2-11.2,11.2s-11.2-5-11.2-11.2S65.2,204,71.4,204 M71.4,203.1
				c-6.7,0-12.1,5.4-12.1,12.1s5.4,12.1,12.1,12.1s12.1-5.4,12.1-12.1S78.1,203.1,71.4,203.1L71.4,203.1z"/>
		</g>
		<path class="st2" d="M74.7,213.7H68c-0.7,0-1.3,0.6-1.3,1.3l0,0c0,0.7,0.6,1.3,1.3,1.3h6.7c0.7,0,1.3-0.6,1.3-1.3l0,0
			C76,214.3,75.4,213.7,74.7,213.7z"/>
	</g>
</g>
<g>
	<g>
		<g>
			<g>
				<g>
					<path class="st3" d="M183.4,178.2V207c0,4.5,3.6,8.2,8.2,8.2h9.5"/>
					<path class="st4" d="M183.4,178.2V207c0,4.5,3.6,8.2,8.2,8.2h9.5"/>
				</g>
			</g>
		</g>
		<rect x="201.1" y="204.5" class="st5" width="4.7" height="20.3"/>
	</g>
	<g>
		<g>
			<g>
				<g>
					<path class="st3" d="M239.7,215.6h49.5"/>
				</g>
			</g>
		</g>
	</g>
	<g>
		<path class="st7" d="M208.7,238.6h38.5c2.2,0,4.1-1.9,4.1-4.1v-34.6c0-2.2-1.9-4.1-4.1-4.1h-38.5c-2.2,0-4.1,1.9-4.1,4.1v34.6
			C204.7,236.8,206.5,238.6,208.7,238.6z"/>
		<g class="st1">
			<g>
				<circle cx="245.1" cy="198.9" r="1.6"/>
				<circle cx="233.6" cy="198.9" r="1.6"/>
				<circle cx="222.3" cy="198.9" r="1.6"/>
				<circle cx="210.8" cy="198.9" r="1.6"/>
			</g>
			<g>
				<circle cx="245.1" cy="235.7" r="1.6"/>
				<circle cx="233.6" cy="235.7" r="1.6"/>
				<circle cx="222.3" cy="235.7" r="1.6"/>
				<circle cx="210.8" cy="235.7" r="1.6"/>
			</g>
			<rect x="205.2" y="201.4" width="44.7" height="0.5"/>
			<rect x="205.2" y="232.7" width="44.7" height="0.5"/>
			<path d="M210.5,231.5H245c1.9,0,3.4-1.6,3.4-3.4v-21.3c0-1.9-1.6-3.4-3.4-3.4h-34.5c-1.9,0-3.4,1.6-3.4,3.4v21.3
				C207,229.9,208.6,231.5,210.5,231.5z"/>
		</g>
	</g>
	<rect x="178" y="173.7" class="st5" width="10.7" height="4.7"/>
	<g>
		<rect x="303.9" y="201.3" class="st5" width="4.7" height="17.8"/>
	</g>
	<g>
		<path class="st5" d="M286.2,238.6h38.5c2.2,0,4.1-1.9,4.1-4.1v-34.6c0-2.2-1.9-4.1-4.1-4.1h-38.5c-2.2,0-4.1,1.9-4.1,4.1v34.6
			C282.1,236.8,284,238.6,286.2,238.6z"/>
		<g class="st1">
			<g>
				<circle cx="322.7" cy="198.9" r="1.6"/>
				<circle cx="311.2" cy="198.9" r="1.6"/>
				<circle cx="299.7" cy="198.9" r="1.6"/>
				<circle cx="288.3" cy="198.9" r="1.6"/>
			</g>
			<g>
				<circle cx="322.7" cy="235.7" r="1.6"/>
				<circle cx="311.2" cy="235.7" r="1.6"/>
				<circle cx="299.7" cy="235.7" r="1.6"/>
				<circle cx="288.3" cy="235.7" r="1.6"/>
			</g>
			<rect x="282.8" y="201.4" width="44.7" height="0.5"/>
			<rect x="282.8" y="232.7" width="44.7" height="0.5"/>
			<path d="M288,231.5h34.5c1.9,0,3.4-1.6,3.4-3.4v-21.3c0-1.9-1.6-3.4-3.4-3.4H288c-1.9,0-3.4,1.6-3.4,3.4v21.3
				C284.6,229.9,286,231.5,288,231.5z"/>
		</g>
	</g>
	<g>
		<g>
			<path class="st0" d="M266,226.9c6.4,0,11.7-5.2,11.7-11.7c0-6.4-5.2-11.7-11.7-11.7s-11.7,5.2-11.7,11.7
				C254.3,221.6,259.6,226.9,266,226.9z"/>
			<path class="st2" d="M266,204c6.2,0,11.2,5,11.2,11.2s-5,11.2-11.2,11.2s-11.2-5-11.2-11.2S259.8,204,266,204 M266,203.1
				c-6.7,0-12.1,5.4-12.1,12.1s5.4,12.1,12.1,12.1s12.1-5.4,12.1-12.1S272.7,203.1,266,203.1L266,203.1z"/>
		</g>
		<path class="st2" d="M262.7,213.7h6.7c0.7,0,1.3,0.6,1.3,1.3l0,0c0,0.7-0.6,1.3-1.3,1.3h-6.7c-0.7,0-1.3-0.6-1.3-1.3l0,0
			C261.4,214.3,262,213.7,262.7,213.7z"/>
	</g>
</g>
<g>
	<path class="st2" d="M303.7,220.8c-0.2-0.2-0.2-0.4-0.2-0.8c0-0.9,0.2-1.6,0.5-2.2s0.8-1.2,1.4-1.9c0.5-0.6,0.8-1,1-1.4
		s0.3-0.8,0.3-1.3s-0.2-0.9-0.6-1.2s-0.9-0.5-1.5-0.5s-1.1,0.1-1.6,0.4c-0.5,0.2-1.1,0.6-1.8,1c-0.4,0.2-0.7,0.3-1,0.3
		s-0.5-0.1-0.7-0.4c-0.2-0.2-0.3-0.5-0.3-0.9c0-0.5,0.2-0.8,0.6-1.1c0.7-0.6,1.4-1,2.3-1.3s1.8-0.5,2.7-0.5c0.9,0,1.8,0.2,2.5,0.5
		s1.3,0.8,1.7,1.4c0.4,0.6,0.6,1.2,0.6,2s-0.2,1.5-0.6,2.1s-1,1.3-1.7,2c-0.6,0.7-1.1,1.2-1.4,1.6c-0.3,0.4-0.5,0.9-0.6,1.5
		c0,0.2-0.2,0.4-0.3,0.6c-0.2,0.1-0.4,0.2-0.6,0.2C304.1,221.1,303.8,221,303.7,220.8z M303.1,225.5c-0.3-0.3-0.5-0.7-0.5-1.2
		s0.2-0.9,0.5-1.2s0.7-0.5,1.2-0.5s0.9,0.2,1.2,0.5c0.3,0.3,0.5,0.7,0.5,1.2s-0.2,0.9-0.5,1.2s-0.7,0.5-1.2,0.5
		C303.9,226,303.5,225.8,303.1,225.5z"/>
</g>
<g>
	<path class="st2" d="M226.9,221.6c0.2,0.2,0.3,0.5,0.3,0.9c0,0.8-0.5,1.2-1.4,1.2h-1.2v1.8c0,0.5-0.1,0.9-0.4,1.1s-0.6,0.4-1.1,0.4
		c-0.4,0-0.8-0.1-1.1-0.4s-0.4-0.6-0.4-1.1v-1.8h-6.1c-0.4,0-0.7-0.1-1-0.4c-0.2-0.2-0.3-0.5-0.3-0.9s0.1-0.7,0.4-1.1l7.2-10.3
		c0.2-0.2,0.3-0.4,0.6-0.5c0.2-0.1,0.5-0.2,0.7-0.2c0.4,0,0.8,0.1,1,0.4s0.4,0.6,0.4,1.1v9.5h1.2
		C226.3,221.3,226.7,221.4,226.9,221.6z M217.4,221.3h4.3V215L217.4,221.3z"/>
	<path class="st2" d="M237.2,217c0.8,0.4,1.4,1.1,1.8,1.9s0.6,1.7,0.6,2.7c0,1.1-0.2,2-0.7,2.8s-1.1,1.5-2,1.9
		c-0.8,0.5-1.8,0.7-2.8,0.7c-2.1,0-3.7-0.7-4.8-2.1s-1.7-3.4-1.7-6c0-1.8,0.3-3.3,0.8-4.6s1.3-2.3,2.3-3s2.1-1,3.5-1
		c0.9,0,1.8,0.2,2.7,0.5s1.6,0.7,2.3,1.3c0.2,0.2,0.3,0.3,0.4,0.5c0.1,0.2,0.1,0.4,0.1,0.6c0,0.3-0.1,0.6-0.3,0.9
		c-0.2,0.2-0.4,0.4-0.7,0.4c-0.2,0-0.3,0-0.4-0.1s-0.3-0.1-0.5-0.3c-1.3-0.9-2.4-1.4-3.4-1.4c-1.1,0-2,0.5-2.7,1.6
		c-0.7,1-1,2.5-1,4.4c0.4-0.7,0.9-1.3,1.6-1.7s1.5-0.6,2.4-0.6C235.6,216.3,236.4,216.5,237.2,217z M236,223.9
		c0.5-0.6,0.8-1.3,0.8-2.2s-0.3-1.6-0.8-2.2c-0.5-0.5-1.2-0.8-2-0.8c-0.9,0-1.6,0.3-2.1,0.8c-0.5,0.6-0.8,1.3-0.8,2.2
		s0.3,1.6,0.8,2.2c0.5,0.6,1.2,0.8,2.1,0.8C234.8,224.7,235.5,224.4,236,223.9z"/>
</g>
<g>
	<g>
		<g>
			<g>
				<g>
					<path class="st3" d="M154,115.1V86.3c0-4.5-3.6-8.2-8.2-8.2h-9.5"/>
					<path class="st4" d="M154,115.1V86.3c0-4.5-3.6-8.2-8.2-8.2h-9.5"/>
				</g>
			</g>
		</g>
		<rect x="131.6" y="68.5" class="st5" width="4.7" height="20.3"/>
	</g>
	<g>
		<g>
			<g>
				<g>
					<path class="st3" d="M97.7,77.7H48.3"/>
				</g>
			</g>
		</g>
	</g>
	<g>
		<path class="st8" d="M128.7,54.7H90.2c-2.2,0-4.1,1.9-4.1,4.1v34.6c0,2.2,1.9,4.1,4.1,4.1h38.5c2.2,0,4.1-1.9,4.1-4.1V58.8
			C132.7,56.5,130.9,54.7,128.7,54.7z"/>
		<g class="st1">
			<g>
				<circle cx="92.3" cy="94.4" r="1.6"/>
				<circle cx="103.7" cy="94.4" r="1.6"/>
				<circle cx="115.1" cy="94.4" r="1.6"/>
				<circle cx="126.6" cy="94.4" r="1.6"/>
			</g>
			<g>
				<circle cx="92.3" cy="57.6" r="1.6"/>
				<circle cx="103.7" cy="57.6" r="1.6"/>
				<circle cx="115.1" cy="57.6" r="1.6"/>
				<circle cx="126.6" cy="57.6" r="1.6"/>
			</g>
			<rect x="87.4" y="91.4" width="44.7" height="0.5"/>
			<rect x="87.4" y="60.1" width="44.7" height="0.5"/>
			<path d="M126.9,61.8H92.5c-1.9,0-3.4,1.6-3.4,3.4v21.3c0,1.9,1.6,3.4,3.4,3.4H127c1.9,0,3.4-1.6,3.4-3.4V65.2
				C130.4,63.4,128.8,61.8,126.9,61.8z"/>
		</g>
	</g>
	<g>
		<path class="st2" d="M108.6,76.4c0.5,0.7,0.8,1.5,0.8,2.6c0,1.4-0.5,2.5-1.6,3.4c-1,0.8-2.4,1.3-4.2,1.3c-1,0-2-0.2-2.9-0.5
			s-1.7-0.7-2.4-1.3c-0.4-0.3-0.5-0.7-0.5-1.1c0-0.3,0.1-0.6,0.3-0.9c0.2-0.2,0.4-0.4,0.7-0.4c0.2,0,0.3,0,0.4,0.1s0.3,0.1,0.5,0.3
			c0.7,0.4,1.3,0.8,1.9,1s1.2,0.3,1.9,0.3c1,0,1.8-0.2,2.3-0.6s0.7-1,0.7-1.9c0-0.8-0.3-1.4-0.8-1.8s-1.3-0.6-2.4-0.6H102
			c-0.4,0-0.6-0.1-0.8-0.4c-0.2-0.2-0.3-0.5-0.3-0.8s0.1-0.6,0.3-0.8c0.2-0.2,0.5-0.3,0.8-0.3h0.9c2.1,0,3.2-0.8,3.2-2.4
			c0-0.7-0.2-1.3-0.7-1.7s-1.1-0.6-1.9-0.6c-1.1,0-2.3,0.5-3.6,1.4c-0.2,0.1-0.4,0.2-0.5,0.3c-0.1,0.1-0.3,0.1-0.4,0.1
			c-0.3,0-0.5-0.1-0.7-0.4c-0.2-0.4-0.3-0.7-0.3-1c0-0.2,0-0.4,0.1-0.6s0.2-0.3,0.4-0.5c0.7-0.5,1.4-1,2.3-1.3s1.8-0.5,2.8-0.5
			c1.6,0,2.9,0.4,3.9,1.2s1.4,1.8,1.4,3.2c0,0.9-0.3,1.7-0.7,2.4c-0.5,0.7-1.1,1.2-1.9,1.5C107.3,75.3,108,75.7,108.6,76.4z"/>
		<path class="st2" d="M122.4,67.4c0.2,0.2,0.3,0.5,0.3,0.9s-0.1,0.7-0.3,1.1L115,82.8c-0.3,0.5-0.7,0.8-1.3,0.8
			c-0.4,0-0.7-0.1-1-0.4s-0.4-0.6-0.4-0.9s0.1-0.5,0.2-0.8l6.7-12.1h-7c-0.9,0-1.4-0.4-1.4-1.2c0-0.8,0.5-1.2,1.4-1.2h9.3
			C121.9,67,122.2,67.1,122.4,67.4z"/>
	</g>
	<rect x="148.6" y="114.9" class="st5" width="10.7" height="4.7"/>
	<g>
		<rect x="28.8" y="74.2" class="st5" width="4.7" height="17.8"/>
	</g>
	<g>
		<path class="st5" d="M51.2,54.7H12.7c-2.2,0-4.1,1.9-4.1,4.1v34.6c0,2.2,1.9,4.1,4.1,4.1h38.5c2.2,0,4.1-1.9,4.1-4.1V58.8
			C55.3,56.5,53.4,54.7,51.2,54.7z"/>
		<g class="st1">
			<g>
				<circle cx="14.7" cy="94.4" r="1.6"/>
				<circle cx="26.2" cy="94.4" r="1.6"/>
				<circle cx="37.7" cy="94.4" r="1.6"/>
				<circle cx="49.1" cy="94.4" r="1.6"/>
			</g>
			<g>
				<circle cx="14.7" cy="57.6" r="1.6"/>
				<circle cx="26.2" cy="57.6" r="1.6"/>
				<circle cx="37.7" cy="57.6" r="1.6"/>
				<circle cx="49.1" cy="57.6" r="1.6"/>
			</g>
			<rect x="9.9" y="91.4" width="44.7" height="0.5"/>
			<rect x="9.9" y="60.1" width="44.7" height="0.5"/>
			<path d="M49.4,61.8H14.9c-1.9,0-3.4,1.6-3.4,3.4v21.3c0,1.9,1.6,3.4,3.4,3.4h34.5c1.9,0,3.4-1.6,3.4-3.4V65.2
				C52.8,63.4,51.3,61.8,49.4,61.8z"/>
		</g>
	</g>
	<g>
		<path class="st2" d="M30.7,79.4c-0.2-0.2-0.2-0.4-0.2-0.8c0-0.9,0.2-1.6,0.5-2.2s0.8-1.2,1.4-1.9c0.5-0.6,0.8-1,1-1.4
			s0.3-0.8,0.3-1.3s-0.2-0.9-0.6-1.2s-0.9-0.5-1.5-0.5c-0.6,0-1.1,0.1-1.6,0.4c-0.5,0.2-1.1,0.6-1.8,1c-0.4,0.2-0.7,0.3-1,0.3
			s-0.5-0.1-0.7-0.4c-0.2-0.2-0.3-0.5-0.3-0.9c0-0.5,0.2-0.8,0.6-1.1c0.7-0.6,1.4-1,2.3-1.3s1.8-0.5,2.7-0.5s1.8,0.2,2.5,0.5
			s1.3,0.8,1.7,1.4s0.6,1.2,0.6,2S36.4,73,36,73.6c-0.4,0.6-1,1.3-1.7,2c-0.6,0.7-1.1,1.2-1.4,1.6c-0.3,0.4-0.5,0.9-0.6,1.5
			c0,0.2-0.2,0.4-0.3,0.6c-0.2,0.1-0.4,0.2-0.6,0.2C31.1,79.7,30.8,79.6,30.7,79.4z M30.1,84.1c-0.3-0.3-0.5-0.7-0.5-1.2
			s0.2-0.9,0.5-1.2c0.3-0.3,0.7-0.5,1.2-0.5s0.9,0.2,1.2,0.5s0.5,0.7,0.5,1.2s-0.2,0.9-0.5,1.2c-0.3,0.3-0.7,0.5-1.2,0.5
			C30.9,84.6,30.5,84.4,30.1,84.1z"/>
	</g>
	<g>
		<g>
			<path class="st0" d="M71.4,66.4c-6.4,0-11.7,5.2-11.7,11.7c0,6.4,5.2,11.7,11.7,11.7s11.7-5.2,11.7-11.7
				C83.1,71.7,77.8,66.4,71.4,66.4z"/>
			<path class="st2" d="M71.4,89.3c-6.2,0-11.2-5-11.2-11.2s5-11.2,11.2-11.2s11.2,5,11.2,11.2S77.6,89.3,71.4,89.3 M71.4,90.2
				c6.7,0,12.1-5.4,12.1-12.1S78.1,66,71.4,66s-12.1,5.4-12.1,12.1C59.3,84.8,64.7,90.2,71.4,90.2L71.4,90.2z"/>
		</g>
		<path class="st2" d="M74.7,79.6H68c-0.7,0-1.3-0.6-1.3-1.3l0,0c0-0.7,0.6-1.3,1.3-1.3h6.7c0.7,0,1.3,0.6,1.3,1.3l0,0
			C76,79,75.4,79.6,74.7,79.6z"/>
	</g>
</g>
<g>
	<g>
		<g>
			<g>
				<g>
					<path class="st3" d="M183.4,115.1V86.3c0-4.5,3.6-8.2,8.2-8.2h9.5"/>
					<path class="st4" d="M183.4,115.1V86.3c0-4.5,3.6-8.2,8.2-8.2h9.5"/>
				</g>
			</g>
		</g>
		<rect x="201.1" y="68.5" class="st5" width="4.7" height="20.3"/>
	</g>
	<g>
		<g>
			<g>
				<g>
					<path class="st3" d="M239.7,77.7h49.5"/>
				</g>
			</g>
		</g>
	</g>
	<g>
		<path class="st9" d="M208.7,54.7h38.5c2.2,0,4.1,1.9,4.1,4.1v34.6c0,2.2-1.9,4.1-4.1,4.1h-38.5c-2.2,0-4.1-1.9-4.1-4.1V58.8
			C204.7,56.5,206.5,54.7,208.7,54.7z"/>
		<g class="st1">
			<g>
				<circle cx="245.1" cy="94.4" r="1.6"/>
				<circle cx="233.6" cy="94.4" r="1.6"/>
				<circle cx="222.3" cy="94.4" r="1.6"/>
				<circle cx="210.8" cy="94.4" r="1.6"/>
			</g>
			<g>
				<circle cx="245.1" cy="57.6" r="1.6"/>
				<circle cx="233.6" cy="57.6" r="1.6"/>
				<circle cx="222.3" cy="57.6" r="1.6"/>
				<circle cx="210.8" cy="57.6" r="1.6"/>
			</g>
			<rect x="205.2" y="91.4" width="44.7" height="0.5"/>
			<rect x="205.2" y="60.1" width="44.7" height="0.5"/>
			<path d="M210.5,61.8H245c1.9,0,3.4,1.6,3.4,3.4v21.3c0,1.9-1.6,3.4-3.4,3.4h-34.5c-1.9,0-3.4-1.6-3.4-3.4V65.2
				C207,63.4,208.6,61.8,210.5,61.8z"/>
		</g>
	</g>
	<rect x="178" y="114.9" class="st5" width="10.7" height="4.7"/>
	<g>
		<rect x="303.9" y="74.2" class="st5" width="4.7" height="17.8"/>
	</g>
	<g>
		<path class="st5" d="M286.2,54.7h38.5c2.2,0,4.1,1.9,4.1,4.1v34.6c0,2.2-1.9,4.1-4.1,4.1h-38.5c-2.2,0-4.1-1.9-4.1-4.1V58.8
			C282.1,56.5,284,54.7,286.2,54.7z"/>
		<g class="st1">
			<g>
				<circle cx="322.7" cy="94.4" r="1.6"/>
				<circle cx="311.2" cy="94.4" r="1.6"/>
				<circle cx="299.7" cy="94.4" r="1.6"/>
				<circle cx="288.3" cy="94.4" r="1.6"/>
			</g>
			<g>
				<circle cx="322.7" cy="57.6" r="1.6"/>
				<circle cx="311.2" cy="57.6" r="1.6"/>
				<circle cx="299.7" cy="57.6" r="1.6"/>
				<circle cx="288.3" cy="57.6" r="1.6"/>
			</g>
			<rect x="282.8" y="91.4" width="44.7" height="0.5"/>
			<rect x="282.8" y="60.1" width="44.7" height="0.5"/>
			<path d="M288,61.8h34.5c1.9,0,3.4,1.6,3.4,3.4v21.3c0,1.9-1.6,3.4-3.4,3.4H288c-1.9,0-3.4-1.6-3.4-3.4V65.2
				C284.6,63.4,286,61.8,288,61.8z"/>
		</g>
	</g>
	<g>
		<g>
			<path class="st0" d="M266,66.4c6.4,0,11.7,5.2,11.7,11.7c0,6.4-5.2,11.7-11.7,11.7s-11.7-5.2-11.7-11.7
				C254.3,71.7,259.6,66.4,266,66.4z"/>
			<path class="st2" d="M266,89.3c-6.2,0-11.2-5-11.2-11.2s5-11.2,11.2-11.2s11.2,5,11.2,11.2S272.2,89.3,266,89.3 M266,90.2
				c6.7,0,12.1-5.4,12.1-12.1S272.7,66,266,66s-12.1,5.4-12.1,12.1S259.3,90.2,266,90.2L266,90.2z"/>
		</g>
		<path class="st2" d="M262.7,79.6h6.7c0.7,0,1.3-0.6,1.3-1.3l0,0c0-0.7-0.6-1.3-1.3-1.3h-6.7c-0.7,0-1.3,0.6-1.3,1.3l0,0
			C261.4,79,262,79.6,262.7,79.6z"/>
	</g>
</g>
<g>
	<path class="st2" d="M303.7,80.4c-0.2-0.2-0.2-0.4-0.2-0.8c0-0.9,0.2-1.6,0.5-2.2s0.8-1.2,1.4-1.9c0.5-0.6,0.8-1,1-1.4
		s0.3-0.8,0.3-1.3s-0.2-0.9-0.6-1.2c-0.4-0.3-0.9-0.5-1.5-0.5s-1.1,0.1-1.6,0.4c-0.5,0.2-1.1,0.6-1.8,1c-0.4,0.2-0.7,0.3-1,0.3
		s-0.5-0.1-0.7-0.4c-0.2-0.2-0.3-0.5-0.3-0.9c0-0.5,0.2-0.8,0.6-1.1c0.7-0.6,1.4-1,2.3-1.3s1.8-0.5,2.7-0.5c0.9,0,1.8,0.2,2.5,0.5
		s1.3,0.8,1.7,1.4c0.4,0.6,0.6,1.2,0.6,2s-0.2,1.5-0.6,2.1s-1,1.3-1.7,2c-0.6,0.7-1.1,1.2-1.4,1.6s-0.5,0.9-0.6,1.5
		c0,0.2-0.2,0.4-0.3,0.6c-0.2,0.1-0.4,0.2-0.6,0.2C304.1,80.7,303.8,80.6,303.7,80.4z M303.1,85.1c-0.3-0.3-0.5-0.7-0.5-1.2
		s0.2-0.9,0.5-1.2c0.3-0.3,0.7-0.5,1.2-0.5s0.9,0.2,1.2,0.5c0.3,0.3,0.5,0.7,0.5,1.2s-0.2,0.9-0.5,1.2c-0.3,0.3-0.7,0.5-1.2,0.5
		C303.9,85.6,303.5,85.4,303.1,85.1z"/>
</g>
<g>
	<path class="st2" d="M224.9,69.9c1.1,1.4,1.7,3.4,1.7,6c0,1.8-0.3,3.3-0.8,4.6s-1.3,2.3-2.3,3s-2.1,1-3.5,1c-0.9,0-1.8-0.2-2.7-0.5
		s-1.6-0.7-2.3-1.3c-0.2-0.2-0.3-0.3-0.4-0.5s-0.1-0.4-0.1-0.6c0-0.3,0.1-0.6,0.3-0.9c0.2-0.2,0.4-0.4,0.7-0.4c0.2,0,0.3,0,0.4,0.1
		c0.1,0.1,0.3,0.1,0.5,0.3c1.3,0.9,2.4,1.4,3.4,1.4c1.1,0,2-0.5,2.7-1.6s1-2.5,1-4.4c-0.4,0.7-0.9,1.3-1.6,1.7
		c-0.7,0.4-1.5,0.6-2.4,0.6c-1,0-1.8-0.2-2.6-0.7c-0.8-0.4-1.4-1.1-1.8-1.9c-0.4-0.8-0.6-1.7-0.6-2.7c0-1.1,0.2-2,0.7-2.8
		s1.1-1.5,2-1.9c0.8-0.5,1.8-0.7,2.8-0.7C222.2,67.8,223.8,68.5,224.9,69.9z M222.4,75.4c0.5-0.6,0.8-1.3,0.8-2.2
		c0-0.9-0.3-1.6-0.8-2.2s-1.2-0.8-2.1-0.8c-0.9,0-1.5,0.3-2,0.8c-0.5,0.6-0.8,1.3-0.8,2.2s0.3,1.6,0.8,2.2c0.5,0.5,1.2,0.8,2,0.8
		C221.1,76.2,221.8,75.9,222.4,75.4z"/>
	<path class="st2" d="M239,77.5c0.5,0.7,0.8,1.6,0.8,2.6c0,1.4-0.5,2.6-1.6,3.4s-2.6,1.2-4.5,1.2s-3.4-0.4-4.5-1.2
		c-1.1-0.8-1.6-1.9-1.6-3.4c0-1,0.3-1.9,0.8-2.6s1.3-1.2,2.2-1.4c-0.8-0.3-1.5-0.8-1.9-1.5c-0.5-0.7-0.7-1.4-0.7-2.3
		c0-1.4,0.5-2.4,1.5-3.2c1-0.8,2.4-1.2,4.2-1.2s3.2,0.4,4.2,1.2s1.5,1.9,1.5,3.2c0,0.9-0.2,1.7-0.7,2.4c-0.5,0.7-1.1,1.1-1.9,1.4
		C237.7,76.3,238.4,76.8,239,77.5z M236.9,79.8c0-1.7-1.1-2.5-3.3-2.5s-3.3,0.8-3.3,2.5s1.1,2.5,3.3,2.5
		C235.8,82.3,236.9,81.5,236.9,79.8z M230.7,72.6c0,0.8,0.2,1.4,0.7,1.8s1.2,0.6,2.2,0.6s1.7-0.2,2.2-0.6s0.7-1,0.7-1.8
		c0-1.6-1-2.4-2.9-2.4S230.7,71,230.7,72.6z"/>
</g>
<g>
	<path class="st2" d="M30.7,221.8c-0.2-0.2-0.2-0.4-0.2-0.8c0-0.9,0.2-1.6,0.5-2.2s0.8-1.2,1.4-1.9c0.5-0.6,0.8-1,1-1.4
		s0.3-0.8,0.3-1.3s-0.2-0.9-0.6-1.2s-0.9-0.5-1.5-0.5c-0.6,0-1.1,0.1-1.6,0.4c-0.5,0.2-1.1,0.6-1.8,1c-0.4,0.2-0.7,0.3-1,0.3
		s-0.5-0.1-0.7-0.4c-0.2-0.2-0.3-0.5-0.3-0.9c0-0.5,0.2-0.8,0.6-1.1c0.7-0.6,1.4-1,2.3-1.3s1.8-0.5,2.7-0.5s1.8,0.2,2.5,0.5
		s1.3,0.8,1.7,1.4c0.4,0.6,0.6,1.2,0.6,2s-0.2,1.5-0.6,2.1c-0.4,0.6-1,1.3-1.7,2c-0.6,0.7-1.1,1.2-1.4,1.6c-0.3,0.4-0.5,0.9-0.6,1.5
		c0,0.2-0.2,0.4-0.3,0.6c-0.2,0.1-0.4,0.2-0.6,0.2C31.1,222.1,30.8,222,30.7,221.8z M30.1,226.5c-0.3-0.3-0.5-0.7-0.5-1.2
		s0.2-0.9,0.5-1.2s0.7-0.5,1.2-0.5s0.9,0.2,1.2,0.5s0.5,0.7,0.5,1.2s-0.2,0.9-0.5,1.2s-0.7,0.5-1.2,0.5
		C30.9,227,30.5,226.8,30.1,226.5z"/>
</g>
</svg>
