<?xml version="1.0" encoding="utf-8"?>
<!-- Generator: Adobe Illustrator 22.1.0, SVG Export Plug-In . SVG Version: 6.00 Build 0)  -->
<svg version="1.1" id="Layer_1" xmlns="http://www.w3.org/2000/svg" xmlns:xlink="http://www.w3.org/1999/xlink" x="0px" y="0px"
	 viewBox="0 0 336.7 293.7" style="enable-background:new 0 0 336.7 293.7;" xml:space="preserve">
<style type="text/css">
	.st0{fill:#647CA0;}
	.st1{fill:#FADC3C;}
	.st2{opacity:0.2;}
	.st3{enable-background:new    ;}
	.st4{fill:#FFFFFF;}
</style>
<g>
	<g>
		<rect x="28.8" y="74.2" class="st0" width="4.7" height="17.8"/>
	</g>
	<g>
		<path class="st1" d="M51.2,54.7H12.7c-2.2,0-4.1,1.9-4.1,4.1v34.6c0,2.2,1.9,4.1,4.1,4.1h38.5c2.2,0,4.1-1.9,4.1-4.1V58.8
			C55.3,56.5,53.4,54.7,51.2,54.7z"/>
		<g class="st2">
			<g>
				<circle cx="14.7" cy="94.4" r="1.6"/>
				<circle cx="26.2" cy="94.4" r="1.6"/>
				<circle cx="37.7" cy="94.4" r="1.6"/>
				<circle cx="49.1" cy="94.4" r="1.6"/>
			</g>
			<g>
				<circle cx="14.7" cy="57.6" r="1.6"/>
				<circle cx="26.2" cy="57.6" r="1.6"/>
				<circle cx="37.7" cy="57.6" r="1.6"/>
				<circle cx="49.1" cy="57.6" r="1.6"/>
			</g>
			<rect x="9.9" y="91.4" width="44.7" height="0.5"/>
			<rect x="9.9" y="60.1" width="44.7" height="0.5"/>
			<path d="M49.4,61.8H14.9c-1.9,0-3.4,1.6-3.4,3.4v21.3c0,1.9,1.6,3.4,3.4,3.4h34.5c1.9,0,3.4-1.6,3.4-3.4V65.2
				C52.8,63.4,51.3,61.8,49.4,61.8z"/>
		</g>
	</g>
	<g class="st3">
		<path class="st4" d="M29.8,74.6c0.8,0.4,1.4,1.1,1.8,1.9c0.4,0.8,0.7,1.7,0.7,2.7c0,1.1-0.2,2-0.7,2.8c-0.5,0.8-1.2,1.5-2.1,1.9
			c-0.9,0.5-1.9,0.7-3.1,0.7c-1,0-1.9-0.2-2.8-0.5c-0.9-0.3-1.7-0.7-2.4-1.3c-0.4-0.3-0.5-0.7-0.5-1.1c0-0.3,0.1-0.6,0.3-0.9
			c0.2-0.2,0.4-0.4,0.7-0.4c0.2,0,0.3,0,0.4,0.1s0.3,0.1,0.5,0.3c0.6,0.4,1.2,0.8,1.8,1c0.6,0.2,1.2,0.3,1.9,0.3
			c1,0,1.8-0.3,2.4-0.8c0.5-0.5,0.8-1.2,0.8-2.2c0-0.9-0.3-1.6-0.8-2.2c-0.6-0.5-1.3-0.8-2.3-0.8c-0.6,0-1.1,0.1-1.6,0.3
			s-1,0.5-1.5,0.9c-0.3,0.2-0.6,0.3-0.9,0.3s-0.6-0.1-0.8-0.3c-0.2-0.2-0.3-0.4-0.3-0.7v-7.3c0-0.4,0.1-0.8,0.4-1
			c0.2-0.2,0.6-0.4,1-0.4h7.8c0.9,0,1.4,0.4,1.4,1.2s-0.5,1.2-1.4,1.2h-6.2v4.4c0.8-0.6,1.8-0.8,2.9-0.8C28.1,74,29,74.2,29.8,74.6z
			"/>
		<path class="st4" d="M44.9,68.4c0.2,0.2,0.3,0.5,0.3,0.9c0,0.4-0.1,0.7-0.3,1.1l-7.4,13.5c-0.3,0.5-0.7,0.8-1.3,0.8
			c-0.4,0-0.7-0.1-1-0.4c-0.3-0.3-0.4-0.6-0.4-0.9c0-0.3,0.1-0.5,0.2-0.8l6.7-12.1h-7c-0.9,0-1.4-0.4-1.4-1.2c0-0.8,0.5-1.2,1.4-1.2
			h9.3C44.3,68,44.6,68.1,44.9,68.4z"/>
	</g>
</g>
</svg>
