<?xml version="1.0" encoding="utf-8"?>
<!-- Generator: Adobe Illustrator 22.1.0, SVG Export Plug-In . SVG Version: 6.00 Build 0)  -->
<svg version="1.1" id="Layer_1" xmlns="http://www.w3.org/2000/svg" xmlns:xlink="http://www.w3.org/1999/xlink" x="0px" y="0px"
	 viewBox="0 0 336.7 293.7" style="enable-background:new 0 0 336.7 293.7;" xml:space="preserve">
<style type="text/css">
	.st0{fill:#647CA0;}
	.st1{fill:#A5D73C;}
	.st2{opacity:0.2;}
	.st3{enable-background:new    ;}
	.st4{fill:#FFFFFF;}
</style>
<g>
	<g>
		<rect x="303.9" y="74.2" class="st0" width="4.7" height="17.8"/>
	</g>
	<g>
		<path class="st1" d="M286.2,54.7h38.5c2.2,0,4.1,1.9,4.1,4.1v34.6c0,2.2-1.9,4.1-4.1,4.1h-38.5c-2.2,0-4.1-1.9-4.1-4.1V58.8
			C282.1,56.5,284,54.7,286.2,54.7z"/>
		<g class="st2">
			<g>
				<circle cx="322.7" cy="94.4" r="1.6"/>
				<circle cx="311.2" cy="94.4" r="1.6"/>
				<circle cx="299.7" cy="94.4" r="1.6"/>
				<circle cx="288.3" cy="94.4" r="1.6"/>
			</g>
			<g>
				<circle cx="322.7" cy="57.6" r="1.6"/>
				<circle cx="311.2" cy="57.6" r="1.6"/>
				<circle cx="299.7" cy="57.6" r="1.6"/>
				<circle cx="288.3" cy="57.6" r="1.6"/>
			</g>
			<rect x="282.8" y="91.4" width="44.7" height="0.5"/>
			<rect x="282.8" y="60.1" width="44.7" height="0.5"/>
			<path d="M288,61.8h34.5c1.9,0,3.4,1.6,3.4,3.4v21.3c0,1.9-1.6,3.4-3.4,3.4H288c-1.9,0-3.4-1.6-3.4-3.4V65.2
				C284.6,63.4,286,61.8,288,61.8z"/>
		</g>
	</g>
</g>
<g class="st3">
	<path class="st4" d="M304.9,68.4c0.2,0.2,0.3,0.5,0.3,0.9c0,0.4-0.1,0.7-0.3,1.1l-7.4,13.5c-0.3,0.5-0.7,0.8-1.3,0.8
		c-0.4,0-0.7-0.1-1-0.4c-0.3-0.3-0.4-0.6-0.4-0.9c0-0.3,0.1-0.5,0.2-0.8l6.7-12.1h-7c-0.9,0-1.4-0.4-1.4-1.2c0-0.8,0.5-1.2,1.4-1.2
		h9.3C304.3,68,304.6,68.1,304.9,68.4z"/>
	<path class="st4" d="M317.6,77.5c0.5,0.7,0.8,1.6,0.8,2.6c0,1.4-0.5,2.6-1.6,3.4c-1.1,0.8-2.6,1.2-4.5,1.2s-3.4-0.4-4.5-1.2
		c-1.1-0.8-1.6-1.9-1.6-3.4c0-1,0.3-1.9,0.8-2.6c0.5-0.7,1.3-1.2,2.2-1.4c-0.8-0.3-1.5-0.8-1.9-1.5c-0.5-0.7-0.7-1.4-0.7-2.3
		c0-1.4,0.5-2.4,1.5-3.2s2.4-1.2,4.2-1.2c1.8,0,3.2,0.4,4.2,1.2s1.5,1.9,1.5,3.2c0,0.9-0.2,1.7-0.7,2.4c-0.5,0.7-1.1,1.1-1.9,1.4
		C316.3,76.3,317,76.8,317.6,77.5z M315.5,79.8c0-1.7-1.1-2.5-3.3-2.5c-2.2,0-3.3,0.8-3.3,2.5c0,1.7,1.1,2.5,3.3,2.5
		C314.4,82.3,315.5,81.5,315.5,79.8z M309.3,72.6c0,0.8,0.2,1.4,0.7,1.8c0.5,0.4,1.2,0.6,2.2,0.6c1,0,1.7-0.2,2.2-0.6s0.7-1,0.7-1.8
		c0-1.6-1-2.4-2.9-2.4S309.3,71,309.3,72.6z"/>
</g>
</svg>
