<?xml version="1.0" encoding="utf-8"?>
<!-- Generator: Adobe Illustrator 22.1.0, SVG Export Plug-In . SVG Version: 6.00 Build 0)  -->
<svg version="1.1" id="Layer_1" xmlns="http://www.w3.org/2000/svg" xmlns:xlink="http://www.w3.org/1999/xlink" x="0px" y="0px"
	 viewBox="0 0 300 300" style="enable-background:new 0 0 300 300;" xml:space="preserve">
<style type="text/css">
	.st0{fill:#00CDC8;}
	.st1{fill:#FFFFFF;}
	.st2{fill:#F24044;}
	.st3{fill:none;stroke:#FFFFFF;stroke-width:3;stroke-linecap:round;stroke-linejoin:round;stroke-miterlimit:10;}
	.st4{fill:#60025E;}
	.st5{enable-background:new    ;}
</style>
<g>
	<path class="st0" d="M151,237c-48,0-87-39-87-87c0-48,39-87,87-87c48,0,87,39,87,87C238,198,199,237,151,237z M151,127.3
		c-12.5,0-22.7,10.2-22.7,22.7c0,12.5,10.2,22.7,22.7,22.7c12.5,0,22.7-10.2,22.7-22.7C173.7,137.5,163.5,127.3,151,127.3z"/>
	<path class="st1" d="M151,68c45.3,0,82,36.7,82,82c0,45.3-36.7,82-82,82s-82-36.7-82-82C69,104.7,105.7,68,151,68 M151,177.7
		c15.3,0,27.7-12.4,27.7-27.7c0-15.3-12.4-27.7-27.7-27.7s-27.7,12.4-27.7,27.7C123.3,165.3,135.7,177.7,151,177.7 M151,58
		c-50.7,0-92,41.3-92,92s41.3,92,92,92s92-41.3,92-92S201.7,58,151,58L151,58z M151,167.7c-9.7,0-17.7-7.9-17.7-17.7
		c0-9.7,7.9-17.7,17.7-17.7c9.7,0,17.7,7.9,17.7,17.7C168.7,159.7,160.7,167.7,151,167.7L151,167.7z"/>
</g>
<g>
	<path class="st2" d="M151,285.9c-75,0-135.9-61-135.9-135.9S76,14.1,151,14.1S286.9,75,286.9,150S226,285.9,151,285.9z M151,67.9
		c-45.3,0-82.1,36.8-82.1,82.1s36.8,82.1,82.1,82.1c45.3,0,82.1-36.8,82.1-82.1S196.3,67.9,151,67.9z"/>
	<path class="st1" d="M151,19.1c72.3,0,130.9,58.6,130.9,130.9c0,72.3-58.6,130.9-130.9,130.9S20.1,222.3,20.1,150
		C20.1,77.7,78.7,19.1,151,19.1 M151,237.1c48.1,0,87.1-39,87.1-87.1s-39-87.1-87.1-87.1s-87.1,39-87.1,87.1S102.9,237.1,151,237.1
		 M151,9.1c-37.6,0-73,14.7-99.7,41.3C24.7,77,10.1,112.4,10.1,150c0,37.6,14.7,73,41.3,99.7c26.6,26.6,62,41.3,99.7,41.3
		s73-14.7,99.7-41.3c26.6-26.6,41.3-62,41.3-99.7c0-37.6-14.7-73-41.3-99.7C224,23.7,188.6,9.1,151,9.1L151,9.1z M151,227.1
		c-42.5,0-77.1-34.6-77.1-77.1s34.6-77.1,77.1-77.1s77.1,34.6,77.1,77.1S193.5,227.1,151,227.1L151,227.1z"/>
</g>
<line class="st3" x1="20.1" y1="150" x2="281.9" y2="150"/>
<line class="st3" x1="151" y1="19.1" x2="151" y2="280.9"/>
<line class="st3" x1="243.6" y1="57.4" x2="58.4" y2="242.6"/>
<line class="st3" x1="243.6" y1="242.6" x2="58.4" y2="57.4"/>
<circle class="st4" cx="151" cy="150" r="23.6"/>
<g>
	<path class="st1" d="M150.6,157.9c0,1-0.6,1.5-1.7,1.5h-9.4c-1.1,0-1.7-0.5-1.7-1.5c0-1,0.6-1.4,1.7-1.4h2.9v-12.7l-2.7,1.6
		c-0.3,0.1-0.5,0.2-0.7,0.2c-0.4,0-0.7-0.2-1-0.5c-0.3-0.3-0.4-0.7-0.4-1.1c0-0.5,0.2-1,0.7-1.3l4.3-2.7c0.6-0.3,1.1-0.5,1.6-0.5
		c0.5,0,0.9,0.2,1.3,0.5c0.3,0.3,0.5,0.8,0.5,1.3v15.1h2.9C150,156.5,150.6,156.9,150.6,157.9z"/>
	<path class="st1" d="M166.2,153.1c0.3,0.2,0.4,0.6,0.4,1c0,0.9-0.6,1.4-1.7,1.4h-1.4v2.2c0,0.6-0.2,1-0.5,1.3
		c-0.3,0.3-0.8,0.5-1.3,0.5s-0.9-0.2-1.3-0.5c-0.3-0.3-0.5-0.8-0.5-1.3v-2.2h-7.3c-0.5,0-0.9-0.1-1.2-0.4s-0.4-0.6-0.4-1.1
		c0-0.4,0.1-0.9,0.4-1.3l8.6-12.4c0.2-0.3,0.4-0.5,0.7-0.6s0.6-0.2,0.9-0.2c0.5,0,0.9,0.2,1.3,0.5c0.4,0.3,0.5,0.8,0.5,1.3v11.4h1.4
		C165.5,152.7,166,152.8,166.2,153.1z M154.8,152.7h5.2v-7.5L154.8,152.7z"/>
</g>
<g>
	<g>
		<path class="st1" d="M167.8,99.4c0.2,0.2,0.2,0.4,0.2,0.6c0,0.2-0.1,0.5-0.2,0.6c-0.2,0.2-0.4,0.2-0.6,0.2h-3.1v3.1
			c0,0.2-0.1,0.5-0.2,0.6c-0.2,0.2-0.4,0.3-0.6,0.3c-0.2,0-0.5-0.1-0.6-0.3c-0.2-0.2-0.2-0.4-0.2-0.6v-3.1h-3.1
			c-0.2,0-0.5-0.1-0.6-0.2c-0.2-0.2-0.2-0.4-0.2-0.6c0-0.2,0.1-0.5,0.2-0.6c0.2-0.2,0.4-0.2,0.6-0.2h3.1v-3.1c0-0.2,0.1-0.5,0.2-0.6
			c0.2-0.2,0.4-0.2,0.6-0.2c0.2,0,0.5,0.1,0.6,0.2c0.2,0.2,0.2,0.4,0.2,0.6v3.1h3.1C167.4,99.2,167.6,99.3,167.8,99.4z"/>
		<path class="st1" d="M178.1,99.8c0.4,0.6,0.7,1.3,0.7,2.2c0,1.2-0.4,2.1-1.3,2.9s-2.1,1.1-3.6,1.1c-0.9,0-1.7-0.1-2.5-0.4
			c-0.8-0.3-1.5-0.6-2-1.1c-0.3-0.3-0.5-0.6-0.5-0.9c0-0.3,0.1-0.5,0.2-0.7c0.2-0.2,0.4-0.3,0.6-0.3c0.1,0,0.2,0,0.4,0.1
			c0.1,0,0.2,0.1,0.4,0.2c0.6,0.4,1.1,0.7,1.6,0.8c0.5,0.2,1,0.3,1.6,0.3c0.9,0,1.5-0.2,1.9-0.5c0.4-0.3,0.6-0.9,0.6-1.6
			c0-0.7-0.2-1.2-0.7-1.5c-0.4-0.3-1.1-0.5-2-0.5h-1.1c-0.3,0-0.5-0.1-0.7-0.3c-0.2-0.2-0.2-0.4-0.2-0.7c0-0.3,0.1-0.5,0.2-0.7
			s0.4-0.3,0.7-0.3h0.8c1.8,0,2.7-0.7,2.7-2c0-0.6-0.2-1.1-0.6-1.5c-0.4-0.3-0.9-0.5-1.6-0.5c-1,0-2,0.4-3.1,1.1
			c-0.2,0.1-0.3,0.2-0.4,0.2c-0.1,0-0.2,0.1-0.4,0.1c-0.2,0-0.4-0.1-0.6-0.3c-0.2-0.2-0.2-0.5-0.2-0.7c0-0.2,0-0.4,0.1-0.5
			s0.2-0.3,0.3-0.4c0.6-0.5,1.2-0.8,2-1.1c0.8-0.3,1.6-0.4,2.4-0.4c1.4,0,2.5,0.3,3.3,1c0.8,0.7,1.2,1.6,1.2,2.7
			c0,0.8-0.2,1.4-0.6,2c-0.4,0.6-0.9,1-1.6,1.3C177.1,98.8,177.7,99.2,178.1,99.8z"/>
	</g>
	<g>
		<path class="st1" d="M121.3,98.4c0.2,0.2,0.2,0.4,0.2,0.6c0,0.2-0.1,0.5-0.2,0.6c-0.2,0.2-0.4,0.2-0.6,0.2h-3.1v3.1
			c0,0.2-0.1,0.5-0.2,0.6c-0.2,0.2-0.4,0.3-0.6,0.3c-0.2,0-0.5-0.1-0.6-0.3c-0.2-0.2-0.2-0.4-0.2-0.6v-3.1h-3.1
			c-0.2,0-0.5-0.1-0.6-0.2c-0.2-0.2-0.2-0.4-0.2-0.6c0-0.2,0.1-0.5,0.2-0.6c0.2-0.2,0.4-0.2,0.6-0.2h3.1v-3.1c0-0.2,0.1-0.5,0.2-0.6
			c0.2-0.2,0.4-0.2,0.6-0.2c0.2,0,0.5,0.1,0.6,0.2c0.2,0.2,0.2,0.4,0.2,0.6v3.1h3.1C121,98.2,121.2,98.3,121.3,98.4z"/>
		<path class="st1" d="M132.7,103.7c0,0.7-0.4,1-1.2,1H124c-0.3,0-0.6-0.1-0.8-0.3c-0.2-0.2-0.3-0.5-0.3-0.8c0-0.4,0.2-0.7,0.5-1.1
			l4.5-4.8c0.6-0.6,1-1.2,1.2-1.7c0.3-0.5,0.4-1,0.4-1.5c0-0.6-0.2-1.1-0.5-1.4s-0.9-0.5-1.5-0.5c-0.5,0-1.1,0.1-1.6,0.3
			c-0.5,0.2-1,0.5-1.5,0.8c-0.1,0.1-0.3,0.2-0.4,0.2s-0.3,0.1-0.4,0.1c-0.2,0-0.4-0.1-0.6-0.3c-0.2-0.2-0.2-0.5-0.2-0.7
			c0-0.2,0-0.4,0.1-0.5s0.2-0.3,0.3-0.4c0.6-0.5,1.3-0.8,2-1.1s1.6-0.4,2.3-0.4c1.4,0,2.4,0.3,3.2,1s1.2,1.6,1.2,2.8
			c0,0.8-0.2,1.6-0.5,2.3c-0.3,0.7-0.9,1.5-1.7,2.4l-3.4,3.6h5.2C132.3,102.6,132.7,103,132.7,103.7z"/>
		<path class="st1" d="M143.8,100.3c0.2,0.2,0.3,0.4,0.3,0.7c0,0.7-0.4,1-1.2,1h-1v1.6c0,0.4-0.1,0.7-0.3,0.9
			c-0.2,0.2-0.5,0.3-0.9,0.3c-0.4,0-0.7-0.1-0.9-0.3c-0.2-0.2-0.3-0.5-0.3-0.9V102h-5.2c-0.4,0-0.6-0.1-0.8-0.3
			c-0.2-0.2-0.3-0.5-0.3-0.8c0-0.3,0.1-0.6,0.3-0.9l6.1-8.8c0.1-0.2,0.3-0.3,0.5-0.4s0.4-0.1,0.6-0.1c0.3,0,0.6,0.1,0.9,0.3
			c0.2,0.2,0.4,0.5,0.4,0.9v8h1C143.3,100,143.6,100.1,143.8,100.3z M135.8,100h3.7v-5.3L135.8,100z"/>
	</g>
	<g>
		<path class="st1" d="M193.2,128.2c0.2,0.2,0.2,0.4,0.2,0.6c0,0.2-0.1,0.5-0.2,0.6c-0.2,0.2-0.4,0.2-0.6,0.2h-3.1v3.1
			c0,0.2-0.1,0.5-0.2,0.6c-0.2,0.2-0.4,0.3-0.6,0.3c-0.2,0-0.5-0.1-0.6-0.3c-0.2-0.2-0.2-0.4-0.2-0.6v-3.1h-3.1
			c-0.2,0-0.5-0.1-0.6-0.2c-0.2-0.2-0.2-0.4-0.2-0.6c0-0.2,0.1-0.5,0.2-0.6c0.2-0.2,0.4-0.2,0.6-0.2h3.1v-3.1c0-0.2,0.1-0.5,0.2-0.6
			c0.2-0.2,0.4-0.2,0.6-0.2c0.2,0,0.5,0.1,0.6,0.2c0.2,0.2,0.2,0.4,0.2,0.6v3.1h3.1C192.9,127.9,193.1,128,193.2,128.2z"/>
		<path class="st1" d="M204.6,133.4c0,0.7-0.4,1-1.2,1h-7.5c-0.3,0-0.6-0.1-0.8-0.3c-0.2-0.2-0.3-0.5-0.3-0.8c0-0.4,0.2-0.7,0.5-1.1
			l4.5-4.8c0.6-0.6,1-1.2,1.2-1.7c0.3-0.5,0.4-1,0.4-1.5c0-0.6-0.2-1.1-0.5-1.4c-0.4-0.3-0.9-0.5-1.5-0.5c-0.5,0-1.1,0.1-1.6,0.3
			c-0.5,0.2-1,0.5-1.5,0.8c-0.1,0.1-0.3,0.2-0.4,0.2s-0.3,0.1-0.4,0.1c-0.2,0-0.4-0.1-0.6-0.3c-0.2-0.2-0.2-0.5-0.2-0.7
			c0-0.2,0-0.4,0.1-0.5s0.2-0.3,0.3-0.4c0.6-0.5,1.3-0.8,2-1.1c0.8-0.3,1.6-0.4,2.3-0.4c1.4,0,2.4,0.3,3.2,1s1.2,1.6,1.2,2.8
			c0,0.8-0.2,1.6-0.5,2.3c-0.3,0.7-0.9,1.5-1.7,2.4l-3.4,3.6h5.2C204.2,132.4,204.6,132.7,204.6,133.4z"/>
		<path class="st1" d="M213.4,126.1c0.6,0.4,1.1,0.9,1.5,1.6c0.4,0.7,0.5,1.4,0.5,2.3c0,0.9-0.2,1.7-0.6,2.4c-0.4,0.7-1,1.3-1.7,1.6
			s-1.5,0.6-2.4,0.6c-1.8,0-3.1-0.6-4.1-1.8c-1-1.2-1.4-2.9-1.4-5.1c0-1.5,0.2-2.8,0.7-3.9c0.4-1.1,1.1-2,1.9-2.6
			c0.8-0.6,1.8-0.9,2.9-0.9c0.7,0,1.5,0.1,2.3,0.4s1.4,0.6,1.9,1.1c0.2,0.1,0.3,0.3,0.4,0.4c0.1,0.1,0.1,0.3,0.1,0.5
			c0,0.3-0.1,0.5-0.2,0.7c-0.2,0.2-0.4,0.3-0.6,0.3c-0.1,0-0.3,0-0.4-0.1c-0.1,0-0.3-0.1-0.4-0.2c-1.1-0.8-2.1-1.1-2.9-1.1
			c-1,0-1.7,0.4-2.3,1.3c-0.6,0.9-0.8,2.1-0.9,3.7c0.3-0.6,0.8-1.1,1.4-1.4c0.6-0.3,1.3-0.5,2-0.5
			C212.1,125.5,212.8,125.7,213.4,126.1z M212.4,131.9c0.4-0.5,0.7-1.1,0.7-1.8c0-0.8-0.2-1.4-0.7-1.8c-0.4-0.5-1-0.7-1.7-0.7
			c-0.7,0-1.3,0.2-1.8,0.7c-0.5,0.5-0.7,1.1-0.7,1.8c0,0.8,0.2,1.4,0.7,1.8c0.5,0.5,1,0.7,1.8,0.7
			C211.4,132.6,212,132.4,212.4,131.9z"/>
	</g>
	<g>
		<path class="st1" d="M199.4,168.4c0.2,0.2,0.2,0.4,0.2,0.6s-0.1,0.5-0.2,0.6c-0.2,0.2-0.4,0.2-0.6,0.2h-3.1v3.1
			c0,0.2-0.1,0.5-0.2,0.6c-0.2,0.2-0.4,0.3-0.6,0.3c-0.2,0-0.5-0.1-0.6-0.3c-0.2-0.2-0.2-0.4-0.2-0.6v-3.1h-3.1
			c-0.2,0-0.5-0.1-0.6-0.2c-0.2-0.2-0.2-0.4-0.2-0.6s0.1-0.5,0.2-0.6c0.2-0.2,0.4-0.2,0.6-0.2h3.1v-3.1c0-0.2,0.1-0.5,0.2-0.6
			c0.2-0.2,0.4-0.2,0.6-0.2c0.2,0,0.5,0.1,0.6,0.2c0.2,0.2,0.2,0.4,0.2,0.6v3.1h3.1C199.1,168.2,199.3,168.2,199.4,168.4z"/>
		<path class="st1" d="M209.3,162.4c1,1.2,1.4,2.9,1.4,5.1c0,1.5-0.2,2.8-0.7,3.9c-0.4,1.1-1.1,2-1.9,2.6s-1.8,0.9-2.9,0.9
			c-0.8,0-1.5-0.1-2.3-0.4c-0.8-0.3-1.4-0.6-1.9-1.1c-0.2-0.1-0.3-0.3-0.4-0.4c-0.1-0.1-0.1-0.3-0.1-0.5c0-0.3,0.1-0.5,0.2-0.7
			c0.2-0.2,0.4-0.3,0.6-0.3c0.1,0,0.3,0,0.4,0.1c0.1,0,0.3,0.1,0.4,0.2c1.1,0.8,2.1,1.1,2.9,1.1c1,0,1.7-0.4,2.3-1.3
			c0.6-0.9,0.8-2.1,0.9-3.7c-0.3,0.6-0.8,1.1-1.4,1.4c-0.6,0.3-1.3,0.5-2,0.5c-0.8,0-1.6-0.2-2.2-0.6c-0.6-0.4-1.1-0.9-1.5-1.6
			c-0.4-0.7-0.5-1.4-0.5-2.3c0-0.9,0.2-1.7,0.6-2.4c0.4-0.7,1-1.3,1.7-1.6c0.7-0.4,1.5-0.6,2.4-0.6
			C207,160.6,208.4,161.2,209.3,162.4z M207.2,167c0.5-0.5,0.7-1.1,0.7-1.8c0-0.8-0.2-1.4-0.7-1.8c-0.5-0.5-1-0.7-1.8-0.7
			c-0.7,0-1.3,0.2-1.7,0.7c-0.4,0.5-0.7,1.1-0.7,1.8c0,0.8,0.2,1.4,0.7,1.8c0.4,0.5,1,0.7,1.7,0.7
			C206.1,167.7,206.7,167.4,207.2,167z"/>
	</g>
	<g>
		<path class="st1" d="M91.8,168.4c0.2,0.2,0.2,0.4,0.2,0.6s-0.1,0.5-0.2,0.6c-0.2,0.2-0.4,0.2-0.6,0.2h-3.1v3.1
			c0,0.2-0.1,0.5-0.2,0.6c-0.2,0.2-0.4,0.3-0.6,0.3c-0.2,0-0.5-0.1-0.6-0.3c-0.2-0.2-0.2-0.4-0.2-0.6v-3.1h-3.1
			c-0.2,0-0.5-0.1-0.6-0.2c-0.2-0.2-0.2-0.4-0.2-0.6s0.1-0.5,0.2-0.6c0.2-0.2,0.4-0.2,0.6-0.2h3.1v-3.1c0-0.2,0.1-0.5,0.2-0.6
			c0.2-0.2,0.4-0.2,0.6-0.2c0.2,0,0.5,0.1,0.6,0.2c0.2,0.2,0.2,0.4,0.2,0.6v3.1h3.1C91.4,168.2,91.6,168.3,91.8,168.4z"/>
		<path class="st1" d="M103.2,173.6c0,0.7-0.4,1-1.2,1h-6.7c-0.8,0-1.2-0.3-1.2-1c0-0.7,0.4-1,1.2-1h2.1v-9l-1.9,1.2
			c-0.2,0.1-0.3,0.2-0.5,0.2c-0.3,0-0.5-0.1-0.7-0.4c-0.2-0.2-0.3-0.5-0.3-0.8c0-0.4,0.2-0.7,0.5-0.9l3.1-1.9
			c0.4-0.2,0.8-0.4,1.1-0.4c0.4,0,0.7,0.1,0.9,0.3s0.3,0.5,0.3,0.9v10.7h2.1C102.8,172.6,103.2,173,103.2,173.6z"/>
		<path class="st1" d="M113.4,168.8c0.4,0.6,0.7,1.3,0.7,2.2c0,1.2-0.5,2.2-1.4,2.9s-2.2,1-3.8,1s-2.9-0.3-3.8-1s-1.4-1.6-1.4-2.9
			c0-0.9,0.2-1.6,0.7-2.2s1.1-1,1.9-1.2c-0.7-0.3-1.2-0.7-1.6-1.2c-0.4-0.6-0.6-1.2-0.6-2c0-1.2,0.4-2.1,1.3-2.7
			c0.9-0.7,2.1-1,3.6-1s2.7,0.3,3.6,1s1.3,1.6,1.3,2.7c0,0.8-0.2,1.4-0.6,2s-0.9,1-1.6,1.2C112.4,167.8,113,168.2,113.4,168.8z
			 M111.7,170.7c0-1.4-0.9-2.1-2.8-2.1s-2.8,0.7-2.8,2.1c0,1.4,0.9,2.1,2.8,2.1S111.7,172.1,111.7,170.7z M106.4,164.6
			c0,0.7,0.2,1.2,0.6,1.5s1,0.5,1.8,0.5s1.4-0.2,1.8-0.5s0.6-0.9,0.6-1.5c0-1.3-0.8-2-2.5-2S106.4,163.3,106.4,164.6z"/>
	</g>
	<g>
		<path class="st1" d="M92.8,131.1c0.2,0.2,0.2,0.4,0.2,0.6c0,0.2-0.1,0.5-0.2,0.6c-0.2,0.2-0.4,0.2-0.6,0.2h-3.1v3.1
			c0,0.2-0.1,0.5-0.2,0.6c-0.2,0.2-0.4,0.3-0.6,0.3c-0.2,0-0.5-0.1-0.6-0.3c-0.2-0.2-0.2-0.4-0.2-0.6v-3.1h-3.1
			c-0.2,0-0.5-0.1-0.6-0.2c-0.2-0.2-0.2-0.4-0.2-0.6c0-0.2,0.1-0.5,0.2-0.6c0.2-0.2,0.4-0.2,0.6-0.2h3.1v-3.1c0-0.2,0.1-0.5,0.2-0.6
			c0.2-0.2,0.4-0.2,0.6-0.2c0.2,0,0.5,0.1,0.6,0.2c0.2,0.2,0.2,0.4,0.2,0.6v3.1h3.1C92.4,130.8,92.6,130.9,92.8,131.1z"/>
		<path class="st1" d="M104.2,136.3c0,0.7-0.4,1-1.2,1h-7.5c-0.3,0-0.6-0.1-0.8-0.3c-0.2-0.2-0.3-0.5-0.3-0.8c0-0.4,0.2-0.7,0.5-1.1
			l4.5-4.8c0.6-0.6,1-1.2,1.2-1.7c0.3-0.5,0.4-1,0.4-1.5c0-0.6-0.2-1.1-0.5-1.4s-0.9-0.5-1.5-0.5c-0.5,0-1.1,0.1-1.6,0.3
			c-0.5,0.2-1,0.5-1.5,0.8c-0.1,0.1-0.3,0.2-0.4,0.2s-0.3,0.1-0.4,0.1c-0.2,0-0.4-0.1-0.6-0.3c-0.2-0.2-0.2-0.5-0.2-0.7
			c0-0.2,0-0.4,0.1-0.5s0.2-0.3,0.3-0.4c0.6-0.5,1.3-0.8,2-1.1s1.6-0.4,2.3-0.4c1.4,0,2.4,0.3,3.2,1s1.2,1.6,1.2,2.8
			c0,0.8-0.2,1.6-0.5,2.3c-0.3,0.7-0.9,1.5-1.7,2.4l-3.4,3.6h5.2C103.8,135.3,104.2,135.6,104.2,136.3z"/>
		<path class="st1" d="M115.1,136.3c0,0.7-0.4,1-1.2,1h-6.7c-0.8,0-1.2-0.3-1.2-1c0-0.7,0.4-1,1.2-1h2.1v-9l-1.9,1.2
			c-0.2,0.1-0.3,0.2-0.5,0.2c-0.3,0-0.5-0.1-0.7-0.4s-0.3-0.5-0.3-0.8c0-0.4,0.2-0.7,0.5-0.9l3.1-1.9c0.4-0.2,0.8-0.4,1.1-0.4
			c0.4,0,0.7,0.1,0.9,0.3s0.3,0.5,0.3,0.9v10.7h2.1C114.7,135.3,115.1,135.6,115.1,136.3z"/>
	</g>
	<g>
		<path class="st1" d="M166.3,201.5c0.2,0.2,0.2,0.4,0.2,0.6s-0.1,0.5-0.2,0.6c-0.2,0.2-0.4,0.2-0.6,0.2h-3.1v3.1
			c0,0.2-0.1,0.5-0.2,0.6c-0.2,0.2-0.4,0.3-0.6,0.3c-0.2,0-0.5-0.1-0.6-0.3c-0.2-0.2-0.2-0.4-0.2-0.6V203h-3.1
			c-0.2,0-0.5-0.1-0.6-0.2c-0.2-0.2-0.2-0.4-0.2-0.6s0.1-0.5,0.2-0.6c0.2-0.2,0.4-0.2,0.6-0.2h3.1v-3.1c0-0.2,0.1-0.5,0.2-0.6
			c0.2-0.2,0.4-0.2,0.6-0.2c0.2,0,0.5,0.1,0.6,0.2c0.2,0.2,0.2,0.4,0.2,0.6v3.1h3.1C166,201.2,166.2,201.3,166.3,201.5z"/>
		<path class="st1" d="M177.8,206.7c0,0.7-0.4,1-1.2,1h-6.7c-0.8,0-1.2-0.3-1.2-1c0-0.7,0.4-1,1.2-1h2.1v-9l-1.9,1.2
			c-0.2,0.1-0.3,0.2-0.5,0.2c-0.3,0-0.5-0.1-0.7-0.4c-0.2-0.2-0.3-0.5-0.3-0.8c0-0.4,0.2-0.7,0.5-0.9l3.1-1.9
			c0.4-0.2,0.8-0.4,1.1-0.4c0.4,0,0.7,0.1,0.9,0.3s0.3,0.5,0.3,0.9v10.7h2.1C177.4,205.7,177.8,206,177.8,206.7z"/>
		<path class="st1" d="M188.6,206.7c0,0.7-0.4,1-1.2,1h-7.5c-0.3,0-0.6-0.1-0.8-0.3s-0.3-0.5-0.3-0.8c0-0.4,0.2-0.7,0.5-1.1l4.5-4.8
			c0.6-0.6,1-1.2,1.2-1.7c0.3-0.5,0.4-1,0.4-1.5c0-0.6-0.2-1.1-0.5-1.4c-0.4-0.3-0.9-0.5-1.5-0.5c-0.5,0-1.1,0.1-1.6,0.3
			c-0.5,0.2-1,0.5-1.5,0.8c-0.1,0.1-0.3,0.2-0.4,0.2c-0.1,0.1-0.3,0.1-0.4,0.1c-0.2,0-0.4-0.1-0.6-0.3c-0.2-0.2-0.2-0.5-0.2-0.8
			c0-0.2,0-0.4,0.1-0.5s0.2-0.3,0.3-0.4c0.6-0.5,1.3-0.8,2-1.1c0.8-0.3,1.6-0.4,2.3-0.4c1.4,0,2.4,0.3,3.2,1s1.2,1.6,1.2,2.8
			c0,0.8-0.2,1.6-0.5,2.3s-0.9,1.5-1.7,2.4l-3.4,3.6h5.2C188.2,205.7,188.6,206,188.6,206.7z"/>
	</g>
	<g>
		<path class="st1" d="M121.4,201.5c0.2,0.2,0.2,0.4,0.2,0.6s-0.1,0.5-0.2,0.6c-0.2,0.2-0.4,0.2-0.6,0.2h-3.1v3.1
			c0,0.2-0.1,0.5-0.2,0.6c-0.2,0.2-0.4,0.3-0.6,0.3c-0.2,0-0.5-0.1-0.6-0.3c-0.2-0.2-0.2-0.4-0.2-0.6V203h-3.1
			c-0.2,0-0.5-0.1-0.6-0.2c-0.2-0.2-0.2-0.4-0.2-0.6s0.1-0.5,0.2-0.6c0.2-0.2,0.4-0.2,0.6-0.2h3.1v-3.1c0-0.2,0.1-0.5,0.2-0.6
			c0.2-0.2,0.4-0.2,0.6-0.2c0.2,0,0.5,0.1,0.6,0.2c0.2,0.2,0.2,0.4,0.2,0.6v3.1h3.1C121,201.2,121.2,201.3,121.4,201.5z"/>
		<path class="st1" d="M131.7,201.8c0.4,0.6,0.7,1.3,0.7,2.2c0,1.2-0.4,2.2-1.3,2.9s-2.1,1.1-3.6,1.1c-0.9,0-1.7-0.1-2.5-0.4
			c-0.8-0.3-1.5-0.6-2-1.1c-0.3-0.3-0.5-0.6-0.5-0.9c0-0.3,0.1-0.5,0.2-0.7c0.2-0.2,0.4-0.3,0.6-0.3c0.1,0,0.2,0,0.4,0.1
			c0.1,0,0.2,0.1,0.4,0.2c0.6,0.4,1.1,0.7,1.6,0.8c0.5,0.2,1,0.3,1.6,0.3c0.9,0,1.5-0.2,1.9-0.5c0.4-0.3,0.6-0.9,0.6-1.6
			c0-0.7-0.2-1.2-0.7-1.5s-1.1-0.5-2-0.5h-1.1c-0.3,0-0.5-0.1-0.7-0.3c-0.2-0.2-0.2-0.4-0.2-0.7c0-0.3,0.1-0.5,0.2-0.7
			c0.2-0.2,0.4-0.3,0.7-0.3h0.8c1.8,0,2.7-0.7,2.7-2c0-0.6-0.2-1.1-0.6-1.5c-0.4-0.3-0.9-0.5-1.6-0.5c-1,0-2,0.4-3.1,1.1
			c-0.2,0.1-0.3,0.2-0.4,0.2c-0.1,0-0.2,0.1-0.4,0.1c-0.2,0-0.4-0.1-0.6-0.3c-0.2-0.2-0.2-0.5-0.2-0.7c0-0.2,0-0.4,0.1-0.5
			c0.1-0.1,0.2-0.3,0.3-0.4c0.6-0.5,1.2-0.8,2-1.1c0.8-0.3,1.6-0.4,2.4-0.4c1.4,0,2.5,0.3,3.3,1s1.2,1.6,1.2,2.7
			c0,0.8-0.2,1.4-0.6,2c-0.4,0.6-0.9,1-1.6,1.3C130.6,200.8,131.2,201.2,131.7,201.8z"/>
		<path class="st1" d="M141.5,199.4c0.7,0.4,1.2,0.9,1.5,1.6c0.4,0.7,0.6,1.4,0.6,2.3c0,0.9-0.2,1.7-0.6,2.4c-0.4,0.7-1,1.2-1.8,1.6
			c-0.8,0.4-1.6,0.6-2.6,0.6c-0.8,0-1.6-0.1-2.4-0.4c-0.8-0.3-1.4-0.6-2-1.1c-0.3-0.3-0.5-0.6-0.5-0.9c0-0.3,0.1-0.5,0.2-0.7
			c0.2-0.2,0.4-0.3,0.6-0.3c0.1,0,0.3,0,0.4,0.1c0.1,0,0.3,0.1,0.4,0.2c0.5,0.4,1,0.7,1.5,0.8s1,0.3,1.6,0.3c0.9,0,1.5-0.2,2-0.7
			c0.5-0.4,0.7-1.1,0.7-1.9c0-0.8-0.2-1.4-0.7-1.8c-0.5-0.5-1.1-0.7-1.9-0.7c-0.5,0-1,0.1-1.4,0.2c-0.4,0.1-0.8,0.4-1.2,0.7
			c-0.2,0.2-0.5,0.3-0.8,0.3s-0.5-0.1-0.7-0.2c-0.2-0.2-0.3-0.4-0.3-0.6V195c0-0.4,0.1-0.7,0.3-0.9c0.2-0.2,0.5-0.3,0.9-0.3h6.6
			c0.8,0,1.2,0.3,1.2,1s-0.4,1-1.2,1h-5.3v3.7c0.7-0.5,1.5-0.7,2.5-0.7C140.1,198.9,140.9,199,141.5,199.4z"/>
	</g>
</g>
<g>
	<path class="st1" d="M189.5,56.1c0,0.8-0.5,1.3-1.4,1.3H180c-1,0-1.5-0.4-1.5-1.3c0-0.8,0.5-1.2,1.5-1.2h2.5V44l-2.3,1.4
		c-0.2,0.1-0.4,0.2-0.6,0.2c-0.3,0-0.6-0.1-0.9-0.4c-0.2-0.3-0.3-0.6-0.3-1c0-0.5,0.2-0.8,0.6-1.1l3.7-2.3c0.5-0.3,0.9-0.4,1.4-0.4
		c0.4,0,0.8,0.1,1.1,0.4c0.3,0.3,0.4,0.6,0.4,1.1v13h2.5C189.1,54.9,189.5,55.3,189.5,56.1z"/>
	<path class="st1" d="M202.9,40.8c0.2,0.2,0.3,0.5,0.3,0.9s-0.1,0.8-0.3,1.2l-7.7,13.9c-0.3,0.5-0.8,0.8-1.3,0.8
		c-0.4,0-0.7-0.1-1-0.4c-0.3-0.3-0.4-0.6-0.4-1c0-0.3,0.1-0.5,0.2-0.8l6.9-12.4h-7.2c-1,0-1.4-0.4-1.4-1.2c0-0.8,0.5-1.3,1.4-1.3
		h9.6C202.4,40.5,202.7,40.6,202.9,40.8z"/>
</g>
<g>
	<text transform="matrix(1 0 0 1 348.0748 -7.629395e-05)" class="st1" style="font-family:'Nunito-Bold'; font-size:24px;">17</text>
</g>
<g>
	<path class="st1" d="M48,108.5c0.5,0.7,0.8,1.6,0.8,2.7c0,1.5-0.5,2.6-1.6,3.5c-1.1,0.9-2.5,1.3-4.3,1.3c-1,0-2-0.2-3-0.5
		s-1.8-0.8-2.4-1.3c-0.4-0.3-0.6-0.7-0.6-1.1c0-0.4,0.1-0.7,0.3-0.9c0.2-0.2,0.4-0.4,0.7-0.4c0.2,0,0.3,0,0.4,0.1
		c0.1,0.1,0.3,0.1,0.5,0.3c0.7,0.4,1.3,0.8,1.9,1c0.6,0.2,1.3,0.4,2,0.4c1.1,0,1.8-0.2,2.4-0.6c0.5-0.4,0.8-1.1,0.8-1.9
		c0-0.8-0.3-1.5-0.8-1.9c-0.5-0.4-1.4-0.6-2.5-0.6h-1.4c-0.4,0-0.7-0.1-0.9-0.4c-0.2-0.2-0.3-0.5-0.3-0.9c0-0.3,0.1-0.6,0.3-0.9
		c0.2-0.2,0.5-0.4,0.9-0.4h1c2.2,0,3.3-0.8,3.3-2.5c0-0.8-0.2-1.4-0.7-1.8c-0.5-0.4-1.1-0.6-1.9-0.6c-1.2,0-2.4,0.5-3.7,1.4
		c-0.2,0.1-0.4,0.2-0.5,0.3c-0.1,0.1-0.3,0.1-0.4,0.1c-0.3,0-0.5-0.1-0.7-0.4c-0.2-0.2-0.3-0.5-0.3-0.9c0-0.2,0-0.4,0.1-0.6
		s0.2-0.3,0.4-0.5c0.7-0.6,1.5-1,2.4-1.3c0.9-0.3,1.9-0.5,2.9-0.5c1.7,0,3,0.4,4,1.2c1,0.8,1.5,1.9,1.5,3.3c0,0.9-0.3,1.7-0.7,2.4
		c-0.5,0.7-1.1,1.2-2,1.5C46.7,107.3,47.5,107.8,48,108.5z"/>
	<path class="st1" d="M60.6,105.6c0.8,0.5,1.4,1.1,1.9,1.9c0.4,0.8,0.7,1.8,0.7,2.8c0,1.1-0.3,2.1-0.8,2.9c-0.5,0.8-1.2,1.5-2.1,2
		c-0.9,0.5-2,0.7-3.2,0.7c-1,0-2-0.2-2.9-0.5c-1-0.3-1.8-0.8-2.4-1.3c-0.4-0.3-0.6-0.7-0.6-1.1c0-0.4,0.1-0.7,0.3-0.9
		c0.2-0.2,0.4-0.4,0.7-0.4c0.2,0,0.3,0,0.5,0.1c0.1,0.1,0.3,0.1,0.5,0.3c0.6,0.4,1.3,0.8,1.9,1c0.6,0.2,1.3,0.4,1.9,0.4
		c1.1,0,1.9-0.3,2.4-0.8c0.6-0.5,0.8-1.3,0.8-2.3c0-0.9-0.3-1.7-0.9-2.2c-0.6-0.6-1.3-0.8-2.3-0.8c-0.6,0-1.2,0.1-1.7,0.3
		c-0.5,0.2-1,0.5-1.5,0.9c-0.3,0.2-0.6,0.3-0.9,0.3c-0.3,0-0.6-0.1-0.8-0.3s-0.3-0.4-0.3-0.8v-7.5c0-0.4,0.1-0.8,0.4-1.1
		c0.3-0.3,0.6-0.4,1.1-0.4h8c1,0,1.4,0.4,1.4,1.2c0,0.8-0.5,1.2-1.4,1.2h-6.4v4.6c0.8-0.6,1.8-0.9,3-0.9
		C58.8,104.9,59.8,105.1,60.6,105.6z"/>
</g>
<g>
	<g>
		<path class="st4" d="M110.9,64.4c-8.2,0-15-6.7-15-15c0-8.2,6.7-15,15-15s15,6.7,15,15S119.1,64.4,110.9,64.4z"/>
		<path class="st1" d="M110.9,35c8,0,14.4,6.4,14.4,14.4s-6.4,14.4-14.4,14.4s-14.4-6.4-14.4-14.4S102.9,35,110.9,35 M110.9,33.9
			c-8.6,0-15.5,6.9-15.5,15.5c0,8.6,6.9,15.5,15.5,15.5s15.5-6.9,15.5-15.5C126.4,40.9,119.4,33.9,110.9,33.9L110.9,33.9z"/>
	</g>
	<g>
		<g class="st5">
			<path class="st1" d="M110,52.9c-0.2-0.2-0.3-0.5-0.3-0.9c0-1,0.2-1.8,0.5-2.4c0.4-0.7,0.9-1.4,1.5-2.2c0.5-0.6,0.9-1.2,1.2-1.6
				c0.2-0.4,0.4-0.9,0.4-1.4c0-0.6-0.2-1-0.6-1.4c-0.4-0.3-1-0.5-1.7-0.5c-0.6,0-1.2,0.1-1.8,0.4s-1.3,0.7-2,1.2
				c-0.4,0.2-0.8,0.4-1.1,0.4s-0.6-0.1-0.8-0.4s-0.3-0.6-0.3-1c0-0.5,0.2-0.9,0.6-1.2c0.7-0.6,1.6-1.1,2.6-1.5s2-0.5,3-0.5
				c1.1,0,2,0.2,2.9,0.6c0.8,0.4,1.5,0.9,1.9,1.5c0.5,0.6,0.7,1.4,0.7,2.2c0,0.9-0.2,1.7-0.7,2.4c-0.4,0.7-1.1,1.4-1.9,2.3
				c-0.7,0.7-1.3,1.4-1.6,1.9s-0.6,1.1-0.7,1.7c-0.1,0.3-0.2,0.5-0.4,0.6s-0.4,0.2-0.7,0.2C110.4,53.2,110.2,53.1,110,52.9z
				 M109.4,58.2c-0.4-0.4-0.6-0.8-0.6-1.4s0.2-1,0.6-1.4c0.4-0.4,0.8-0.6,1.4-0.6s1,0.2,1.4,0.6s0.6,0.8,0.6,1.4s-0.2,1-0.6,1.4
				c-0.4,0.4-0.8,0.6-1.4,0.6C110.2,58.8,109.8,58.6,109.4,58.2z"/>
		</g>
	</g>
</g>
<g>
	<path class="st1" d="M108.4,253.8c0.2,0.2,0.4,0.5,0.4,0.9c0,0.8-0.5,1.2-1.4,1.2h-1.2v1.9c0,0.5-0.1,0.9-0.4,1.2
		c-0.3,0.3-0.6,0.4-1.1,0.4s-0.8-0.1-1.1-0.4c-0.3-0.3-0.4-0.7-0.4-1.2v-1.9h-6.3c-0.4,0-0.8-0.1-1-0.4c-0.2-0.2-0.4-0.6-0.4-0.9
		c0-0.4,0.1-0.8,0.4-1.1l7.4-10.7c0.2-0.2,0.4-0.4,0.6-0.5c0.2-0.1,0.5-0.2,0.7-0.2c0.4,0,0.8,0.1,1.1,0.4c0.3,0.3,0.5,0.7,0.5,1.2
		v9.8h1.2C107.8,253.5,108.1,253.6,108.4,253.8z M98.6,253.5h4.5V247L98.6,253.5z"/>
	<path class="st1" d="M120.1,244.2c1.2,1.4,1.7,3.5,1.7,6.2c0,1.8-0.3,3.4-0.8,4.8c-0.5,1.4-1.3,2.4-2.3,3.1c-1,0.7-2.2,1.1-3.6,1.1
		c-0.9,0-1.8-0.2-2.7-0.5c-0.9-0.3-1.7-0.8-2.3-1.3c-0.2-0.2-0.4-0.3-0.4-0.5s-0.1-0.4-0.1-0.6c0-0.4,0.1-0.7,0.3-0.9
		s0.4-0.4,0.7-0.4c0.2,0,0.3,0,0.5,0.1c0.1,0.1,0.3,0.1,0.5,0.3c1.3,0.9,2.5,1.4,3.6,1.4c1.2,0,2.1-0.5,2.8-1.6
		c0.7-1.1,1-2.6,1.1-4.5c-0.4,0.7-0.9,1.3-1.7,1.7c-0.7,0.4-1.6,0.6-2.5,0.6c-1,0-1.9-0.2-2.7-0.7c-0.8-0.5-1.4-1.1-1.8-1.9
		c-0.4-0.8-0.7-1.8-0.7-2.8c0-1.1,0.2-2.1,0.7-2.9c0.5-0.9,1.2-1.5,2-2c0.9-0.5,1.8-0.7,2.9-0.7C117.3,242.1,119,242.8,120.1,244.2z
		 M117.5,249.8c0.6-0.6,0.8-1.3,0.8-2.2c0-0.9-0.3-1.7-0.8-2.2c-0.6-0.6-1.3-0.9-2.2-0.9c-0.9,0-1.6,0.3-2.1,0.9
		c-0.5,0.6-0.8,1.3-0.8,2.2s0.3,1.7,0.8,2.2c0.5,0.6,1.2,0.8,2.1,0.8C116.2,250.7,116.9,250.4,117.5,249.8z"/>
</g>
<g>
	<path class="st1" d="M250.5,195.9c0,0.8-0.5,1.3-1.4,1.3h-9.1c-0.4,0-0.7-0.1-1-0.4c-0.2-0.2-0.4-0.6-0.4-0.9
		c0-0.5,0.2-0.9,0.6-1.3l5.5-5.9c0.7-0.7,1.2-1.4,1.5-2c0.3-0.6,0.5-1.2,0.5-1.8c0-0.8-0.2-1.3-0.6-1.7c-0.4-0.4-1-0.6-1.8-0.6
		c-0.7,0-1.3,0.1-1.9,0.4c-0.6,0.2-1.2,0.6-1.9,1c-0.2,0.1-0.3,0.2-0.5,0.3s-0.3,0.1-0.5,0.1c-0.3,0-0.5-0.1-0.7-0.4
		c-0.2-0.3-0.3-0.6-0.3-0.9c0-0.2,0-0.4,0.1-0.6c0.1-0.2,0.2-0.3,0.4-0.5c0.7-0.6,1.5-1,2.5-1.3c0.9-0.3,1.9-0.5,2.8-0.5
		c1.6,0,3,0.4,3.9,1.2c1,0.8,1.5,2,1.5,3.4c0,1-0.2,1.9-0.6,2.7c-0.4,0.9-1.1,1.8-2.1,2.9l-4.2,4.4h6.3
		C250,194.7,250.5,195.1,250.5,195.9z"/>
	<path class="st1" d="M263,190c0.5,0.7,0.8,1.6,0.8,2.7c0,1.5-0.5,2.6-1.6,3.5c-1.1,0.9-2.5,1.3-4.3,1.3c-1,0-2-0.2-3-0.5
		c-1-0.3-1.8-0.8-2.4-1.3c-0.4-0.3-0.6-0.7-0.6-1.1c0-0.4,0.1-0.7,0.3-0.9s0.4-0.4,0.7-0.4c0.2,0,0.3,0,0.4,0.1
		c0.1,0.1,0.3,0.1,0.5,0.3c0.7,0.4,1.3,0.8,1.9,1c0.6,0.2,1.3,0.4,2,0.4c1.1,0,1.8-0.2,2.4-0.6c0.5-0.4,0.8-1.1,0.8-1.9
		c0-0.8-0.3-1.5-0.8-1.9s-1.4-0.6-2.5-0.6h-1.4c-0.4,0-0.7-0.1-0.9-0.4c-0.2-0.2-0.3-0.5-0.3-0.9c0-0.3,0.1-0.6,0.3-0.9
		c0.2-0.2,0.5-0.4,0.9-0.4h1c2.2,0,3.3-0.8,3.3-2.5c0-0.8-0.2-1.4-0.7-1.8s-1.1-0.6-1.9-0.6c-1.2,0-2.4,0.5-3.7,1.4
		c-0.2,0.1-0.4,0.2-0.5,0.3c-0.1,0.1-0.3,0.1-0.4,0.1c-0.3,0-0.5-0.1-0.7-0.4s-0.3-0.5-0.3-0.9c0-0.2,0-0.4,0.1-0.6s0.2-0.3,0.4-0.5
		c0.7-0.6,1.5-1,2.4-1.3c0.9-0.3,1.9-0.5,2.9-0.5c1.7,0,3,0.4,4,1.2c1,0.8,1.5,1.9,1.5,3.3c0,0.9-0.3,1.7-0.7,2.4
		c-0.5,0.7-1.1,1.2-2,1.5C261.7,188.8,262.5,189.3,263,190z"/>
</g>
<g>
	<g>
		<path class="st4" d="M194.2,264.8c-8.2,0-15-6.7-15-15c0-8.2,6.7-15,15-15s15,6.7,15,15S202.4,264.8,194.2,264.8z"/>
		<path class="st1" d="M194.2,235.4c8,0,14.4,6.4,14.4,14.4c0,8-6.4,14.4-14.4,14.4s-14.4-6.4-14.4-14.4
			C179.8,241.8,186.2,235.4,194.2,235.4 M194.2,234.2c-8.6,0-15.5,6.9-15.5,15.5s6.9,15.5,15.5,15.5s15.5-6.9,15.5-15.5
			C209.7,241.3,202.8,234.2,194.2,234.2L194.2,234.2z"/>
	</g>
	<g>
		<g class="st5">
			<path class="st1" d="M193.3,253.3c-0.2-0.2-0.3-0.5-0.3-0.9c0-1,0.2-1.8,0.5-2.4c0.4-0.7,0.9-1.4,1.5-2.2
				c0.5-0.6,0.9-1.2,1.2-1.6c0.2-0.4,0.4-0.9,0.4-1.4c0-0.6-0.2-1-0.6-1.4c-0.4-0.3-1-0.5-1.7-0.5c-0.6,0-1.2,0.1-1.8,0.4
				s-1.3,0.7-2,1.2c-0.4,0.2-0.8,0.4-1.1,0.4s-0.6-0.1-0.8-0.4s-0.3-0.6-0.3-1c0-0.5,0.2-0.9,0.6-1.2c0.7-0.6,1.6-1.1,2.6-1.5
				c1-0.4,2-0.5,3-0.5c1.1,0,2,0.2,2.9,0.6c0.8,0.4,1.5,0.9,1.9,1.5c0.5,0.6,0.7,1.4,0.7,2.2c0,0.9-0.2,1.7-0.7,2.4
				c-0.4,0.7-1.1,1.4-1.9,2.3c-0.7,0.7-1.3,1.4-1.6,1.9s-0.6,1.1-0.7,1.7c-0.1,0.3-0.2,0.5-0.4,0.6c-0.2,0.1-0.4,0.2-0.7,0.2
				C193.7,253.6,193.5,253.5,193.3,253.3z M192.7,258.6c-0.4-0.4-0.6-0.8-0.6-1.4s0.2-1,0.6-1.4c0.4-0.4,0.8-0.6,1.4-0.6
				s1,0.2,1.4,0.6c0.4,0.4,0.6,0.8,0.6,1.4s-0.2,1-0.6,1.4c-0.4,0.4-0.8,0.6-1.4,0.6C193.5,259.2,193.1,259,192.7,258.6z"/>
		</g>
	</g>
</g>
<g>
	<g>
		<path class="st4" d="M252.2,126.3c-8.2,0-15-6.7-15-15c0-8.2,6.7-15,15-15c8.3,0,15,6.7,15,15S260.4,126.3,252.2,126.3z"/>
		<path class="st1" d="M252.2,96.9c8,0,14.4,6.4,14.4,14.4s-6.4,14.4-14.4,14.4c-8,0-14.4-6.4-14.4-14.4S244.3,96.9,252.2,96.9
			 M252.2,95.8c-8.6,0-15.5,6.9-15.5,15.5c0,8.6,6.9,15.5,15.5,15.5c8.6,0,15.5-6.9,15.5-15.5C267.7,102.8,260.8,95.8,252.2,95.8
			L252.2,95.8z"/>
	</g>
	<g>
		<g class="st5">
			<path class="st1" d="M251.4,114.8c-0.2-0.2-0.3-0.5-0.3-0.9c0-1,0.2-1.8,0.5-2.4c0.4-0.7,0.9-1.4,1.5-2.2
				c0.5-0.6,0.9-1.2,1.2-1.6c0.2-0.4,0.4-0.9,0.4-1.4c0-0.6-0.2-1-0.6-1.4c-0.4-0.3-1-0.5-1.7-0.5c-0.6,0-1.2,0.1-1.8,0.4
				s-1.3,0.7-2,1.2c-0.4,0.2-0.8,0.4-1.1,0.4s-0.6-0.1-0.8-0.4s-0.3-0.6-0.3-1c0-0.5,0.2-0.9,0.6-1.2c0.7-0.6,1.6-1.1,2.6-1.5
				s2-0.5,3-0.5c1.1,0,2,0.2,2.9,0.6c0.8,0.4,1.5,0.9,1.9,1.5c0.5,0.6,0.7,1.4,0.7,2.2c0,0.9-0.2,1.7-0.7,2.4
				c-0.4,0.7-1.1,1.4-1.9,2.3c-0.7,0.7-1.3,1.4-1.6,1.9s-0.6,1.1-0.7,1.7c-0.1,0.3-0.2,0.5-0.4,0.6s-0.4,0.2-0.7,0.2
				C251.8,115.1,251.6,115,251.4,114.8z M250.8,120.1c-0.4-0.4-0.6-0.8-0.6-1.4s0.2-1,0.6-1.4c0.4-0.4,0.8-0.6,1.4-0.6
				s1,0.2,1.4,0.6s0.6,0.8,0.6,1.4s-0.2,1-0.6,1.4c-0.4,0.4-0.8,0.6-1.4,0.6C251.6,120.7,251.2,120.5,250.8,120.1z"/>
		</g>
	</g>
</g>
<g>
	<g>
		<path class="st4" d="M50,208.2c-8.2,0-15-6.7-15-15c0-8.2,6.7-15,15-15s15,6.7,15,15C65,201.5,58.2,208.2,50,208.2z"/>
		<path class="st1" d="M50,178.8c8,0,14.4,6.4,14.4,14.4c0,8-6.4,14.4-14.4,14.4s-14.4-6.4-14.4-14.4C35.6,185.2,42,178.8,50,178.8
			 M50,177.7c-8.6,0-15.5,6.9-15.5,15.5c0,8.6,6.9,15.5,15.5,15.5s15.5-6.9,15.5-15.5C65.5,184.7,58.6,177.7,50,177.7L50,177.7z"/>
	</g>
	<g>
		<g class="st5">
			<path class="st1" d="M49.1,196.7c-0.2-0.2-0.3-0.5-0.3-0.9c0-1,0.2-1.8,0.5-2.4c0.4-0.7,0.9-1.4,1.5-2.2c0.5-0.6,0.9-1.2,1.2-1.6
				c0.2-0.4,0.4-0.9,0.4-1.4c0-0.6-0.2-1-0.6-1.4c-0.4-0.3-1-0.5-1.7-0.5c-0.6,0-1.2,0.1-1.8,0.4s-1.3,0.7-2,1.2
				c-0.4,0.2-0.8,0.4-1.1,0.4s-0.6-0.1-0.8-0.4s-0.3-0.6-0.3-1c0-0.5,0.2-0.9,0.6-1.2c0.7-0.6,1.6-1.1,2.6-1.5c1-0.4,2-0.5,3-0.5
				c1.1,0,2,0.2,2.9,0.6c0.8,0.4,1.5,0.9,1.9,1.5c0.5,0.6,0.7,1.4,0.7,2.2c0,0.9-0.2,1.7-0.7,2.4c-0.4,0.7-1.1,1.4-1.9,2.3
				c-0.7,0.7-1.3,1.4-1.6,1.9s-0.6,1.1-0.7,1.7c-0.1,0.3-0.2,0.5-0.4,0.6c-0.2,0.1-0.4,0.2-0.7,0.2C49.5,197,49.3,196.9,49.1,196.7z
				 M48.5,202c-0.4-0.4-0.6-0.8-0.6-1.4c0-0.6,0.2-1,0.6-1.4c0.4-0.4,0.8-0.6,1.4-0.6s1,0.2,1.4,0.6c0.4,0.4,0.6,0.8,0.6,1.4
				c0,0.6-0.2,1-0.6,1.4c-0.4,0.4-0.8,0.6-1.4,0.6C49.3,202.6,48.9,202.4,48.5,202z"/>
		</g>
	</g>
</g>
</svg>
