<?xml version="1.0" encoding="utf-8"?>
<!-- Generator: Adobe Illustrator 22.1.0, SVG Export Plug-In . SVG Version: 6.00 Build 0)  -->
<svg version="1.1" id="Layer_1" xmlns="http://www.w3.org/2000/svg" xmlns:xlink="http://www.w3.org/1999/xlink" x="0px" y="0px"
	 viewBox="0 0 300 300" style="enable-background:new 0 0 300 300;" xml:space="preserve">
<style type="text/css">
	.st0{fill:#F24044;}
	.st1{enable-background:new    ;}
	.st2{fill:#FFFFFF;}
</style>
<circle class="st0" cx="110.9" cy="49.4" r="16.7"/>
<g class="st1">
	<path class="st2" d="M108.8,50.7c0.5,0.7,0.8,1.6,0.8,2.7c0,1.5-0.5,2.6-1.6,3.5c-1.1,0.9-2.5,1.3-4.3,1.3c-1,0-2-0.2-3-0.5
		c-1-0.3-1.8-0.8-2.4-1.3c-0.4-0.3-0.6-0.7-0.6-1.1c0-0.4,0.1-0.7,0.3-0.9s0.4-0.4,0.7-0.4c0.2,0,0.3,0,0.4,0.1
		c0.1,0.1,0.3,0.1,0.5,0.3c0.7,0.4,1.3,0.8,1.9,1c0.6,0.2,1.3,0.4,2,0.4c1.1,0,1.8-0.2,2.4-0.6s0.8-1.1,0.8-1.9
		c0-0.8-0.3-1.5-0.8-1.9c-0.5-0.4-1.4-0.6-2.5-0.6H102c-0.4,0-0.7-0.1-0.9-0.4c-0.2-0.2-0.3-0.5-0.3-0.9c0-0.3,0.1-0.6,0.3-0.9
		c0.2-0.2,0.5-0.4,0.9-0.4h1c2.2,0,3.3-0.8,3.3-2.5c0-0.8-0.2-1.4-0.7-1.8c-0.5-0.4-1.1-0.6-1.9-0.6c-1.2,0-2.4,0.5-3.7,1.4
		c-0.2,0.1-0.4,0.2-0.5,0.3c-0.1,0.1-0.3,0.1-0.4,0.1c-0.3,0-0.5-0.1-0.7-0.4c-0.2-0.2-0.3-0.5-0.3-0.9c0-0.2,0-0.4,0.1-0.6
		s0.2-0.3,0.4-0.5c0.7-0.6,1.5-1,2.4-1.3s1.9-0.5,2.9-0.5c1.7,0,3,0.4,4,1.2c1,0.8,1.5,1.9,1.5,3.3c0,0.9-0.3,1.7-0.7,2.4
		c-0.5,0.7-1.1,1.2-2,1.5C107.5,49.6,108.2,50,108.8,50.7z"/>
	<path class="st2" d="M123.8,50.8c0.5,0.7,0.8,1.6,0.8,2.6c0,1.5-0.6,2.7-1.7,3.5c-1.1,0.8-2.7,1.3-4.7,1.3c-2,0-3.5-0.4-4.7-1.3
		c-1.1-0.8-1.7-2-1.7-3.5c0-1,0.3-1.9,0.8-2.7c0.5-0.7,1.3-1.2,2.3-1.5c-0.8-0.3-1.5-0.8-2-1.5c-0.5-0.7-0.7-1.5-0.7-2.4
		c0-1.4,0.5-2.5,1.6-3.3c1.1-0.8,2.5-1.2,4.3-1.2c1.8,0,3.3,0.4,4.3,1.2c1.1,0.8,1.6,1.9,1.6,3.3c0,0.9-0.2,1.7-0.7,2.4
		c-0.5,0.7-1.1,1.2-2,1.5C122.5,49.6,123.3,50.1,123.8,50.8z M121.7,53.2c0-1.7-1.1-2.6-3.4-2.6c-2.3,0-3.4,0.9-3.4,2.6
		s1.1,2.6,3.4,2.6C120.6,55.8,121.7,54.9,121.7,53.2z M115.3,45.7c0,0.8,0.3,1.4,0.8,1.9c0.5,0.4,1.3,0.6,2.2,0.6
		c1,0,1.7-0.2,2.2-0.6c0.5-0.4,0.8-1,0.8-1.9c0-1.6-1-2.4-3-2.4C116.3,43.3,115.3,44.1,115.3,45.7z"/>
</g>
</svg>
