<?xml version="1.0" encoding="utf-8"?>
<!-- Generator: Adobe Illustrator 22.1.0, SVG Export Plug-In . SVG Version: 6.00 Build 0)  -->
<svg version="1.1" id="Layer_1" xmlns="http://www.w3.org/2000/svg" xmlns:xlink="http://www.w3.org/1999/xlink" x="0px" y="0px"
	 viewBox="0 0 300 300" style="enable-background:new 0 0 300 300;" xml:space="preserve">
<style type="text/css">
	.st0{fill:#F24044;}
	.st1{enable-background:new    ;}
	.st2{fill:#FFFFFF;}
</style>
<g>
	<circle class="st0" cx="252.2" cy="111.3" r="16.3"/>
</g>
<g class="st1">
	<path class="st2" d="M251.3,113.6c0.2,0.2,0.4,0.5,0.4,0.9c0,0.8-0.5,1.2-1.4,1.2H249v1.9c0,0.5-0.1,0.9-0.4,1.2
		c-0.3,0.3-0.6,0.4-1.1,0.4c-0.4,0-0.8-0.1-1.1-0.4c-0.3-0.3-0.4-0.7-0.4-1.2v-1.9h-6.3c-0.4,0-0.8-0.1-1-0.4
		c-0.2-0.2-0.4-0.6-0.4-0.9c0-0.4,0.1-0.8,0.4-1.1l7.4-10.7c0.2-0.2,0.4-0.4,0.6-0.5c0.2-0.1,0.5-0.2,0.7-0.2c0.4,0,0.8,0.1,1.1,0.4
		c0.3,0.3,0.5,0.7,0.5,1.2v9.8h1.2C250.7,113.3,251,113.4,251.3,113.6z M241.5,113.3h4.5v-6.5L241.5,113.3z"/>
	<path class="st2" d="M254.6,117c-1.1-1.5-1.6-3.6-1.6-6.5c0-2.8,0.5-5,1.6-6.4c1.1-1.5,2.6-2.2,4.6-2.2c2,0,3.5,0.7,4.6,2.2
		c1.1,1.5,1.6,3.6,1.6,6.4s-0.5,5-1.6,6.5c-1.1,1.5-2.6,2.2-4.6,2.2C257.2,119.2,255.6,118.5,254.6,117z M261.6,115.3
		c0.5-1,0.7-2.6,0.7-4.8c0-2.2-0.2-3.8-0.7-4.8c-0.5-1-1.3-1.5-2.4-1.5c-1.1,0-1.9,0.5-2.4,1.5c-0.5,1-0.7,2.6-0.7,4.8
		s0.2,3.8,0.7,4.8c0.5,1,1.3,1.5,2.4,1.5C260.3,116.8,261.1,116.3,261.6,115.3z"/>
</g>
</svg>
