<?xml version="1.0" encoding="utf-8"?>
<!-- Generator: Adobe Illustrator 22.1.0, SVG Export Plug-In . SVG Version: 6.00 Build 0)  -->
<svg version="1.1" id="Layer_1" xmlns="http://www.w3.org/2000/svg" xmlns:xlink="http://www.w3.org/1999/xlink" x="0px" y="0px"
	 viewBox="0 0 300 300" style="enable-background:new 0 0 300 300;" xml:space="preserve">
<style type="text/css">
	.st0{fill:#F24044;}
	.st1{enable-background:new    ;}
	.st2{fill:#FFFFFF;}
</style>
<circle class="st0" cx="194.2" cy="249.7" r="16.5"/>
<g class="st1">
	<path class="st2" d="M192.9,257.4c0,0.8-0.5,1.3-1.4,1.3h-9.1c-0.4,0-0.7-0.1-1-0.4s-0.4-0.6-0.4-0.9c0-0.5,0.2-0.9,0.6-1.3
		l5.5-5.9c0.7-0.7,1.2-1.4,1.5-2c0.3-0.6,0.5-1.2,0.5-1.8c0-0.8-0.2-1.3-0.6-1.7c-0.4-0.4-1-0.6-1.8-0.6c-0.7,0-1.3,0.1-1.9,0.4
		s-1.2,0.6-1.9,1c-0.2,0.1-0.3,0.2-0.5,0.3c-0.2,0.1-0.3,0.1-0.5,0.1c-0.3,0-0.5-0.1-0.7-0.4c-0.2-0.3-0.3-0.6-0.3-0.9
		c0-0.2,0-0.4,0.1-0.6s0.2-0.3,0.4-0.5c0.7-0.6,1.5-1,2.5-1.3c0.9-0.3,1.9-0.5,2.8-0.5c1.6,0,3,0.4,3.9,1.2c1,0.8,1.5,2,1.5,3.4
		c0,1-0.2,1.9-0.6,2.7c-0.4,0.9-1.1,1.8-2.1,2.9l-4.2,4.4h6.3C192.4,256.2,192.9,256.6,192.9,257.4z"/>
	<path class="st2" d="M204.9,248.5c0.8,0.5,1.4,1.1,1.8,1.9c0.4,0.8,0.7,1.8,0.7,2.8c0,1.1-0.2,2.1-0.7,2.9s-1.2,1.5-2,2
		c-0.9,0.5-1.8,0.7-2.9,0.7c-2.1,0-3.8-0.7-5-2.2s-1.7-3.5-1.7-6.2c0-1.8,0.3-3.4,0.8-4.8c0.5-1.4,1.3-2.4,2.3-3.1
		c1-0.7,2.2-1.1,3.6-1.1c0.9,0,1.8,0.2,2.7,0.5s1.7,0.8,2.3,1.3c0.2,0.2,0.4,0.3,0.4,0.5c0.1,0.2,0.1,0.4,0.1,0.6
		c0,0.4-0.1,0.7-0.3,0.9c-0.2,0.2-0.4,0.4-0.7,0.4c-0.2,0-0.3,0-0.5-0.1c-0.1-0.1-0.3-0.1-0.5-0.3c-1.3-0.9-2.5-1.4-3.6-1.4
		c-1.2,0-2.1,0.5-2.8,1.6c-0.7,1.1-1,2.6-1.1,4.5c0.4-0.7,0.9-1.3,1.7-1.7c0.7-0.4,1.6-0.6,2.5-0.6
		C203.2,247.8,204.1,248,204.9,248.5z M203.7,255.6c0.5-0.6,0.8-1.3,0.8-2.2c0-0.9-0.3-1.7-0.8-2.2c-0.5-0.6-1.2-0.8-2.1-0.8
		c-0.9,0-1.6,0.3-2.2,0.9c-0.6,0.6-0.8,1.3-0.8,2.2c0,0.9,0.3,1.7,0.8,2.2c0.6,0.6,1.3,0.9,2.2,0.9
		C202.4,256.4,203.1,256.2,203.7,255.6z"/>
</g>
</svg>
