<?xml version="1.0" encoding="utf-8"?>
<!-- Generator: Adobe Illustrator 22.1.0, SVG Export Plug-In . SVG Version: 6.00 Build 0)  -->
<svg version="1.1" id="Layer_1" xmlns="http://www.w3.org/2000/svg" xmlns:xlink="http://www.w3.org/1999/xlink" x="0px" y="0px"
	 viewBox="0 0 400 400" style="enable-background:new 0 0 400 400;" xml:space="preserve">
<style type="text/css">
	.st0{fill:#FFFFFF;}
	.st1{fill:#FE9923;}
	.st2{fill:#FD003A;}
	.st3{fill:#FEDB41;}
	.st4{fill:#FEA832;}
	.st5{fill:#713708;}
	.st6{fill:#B58C24;}
	.st7{fill:#9E5416;}
	.st8{fill:#3A3033;}
	.st9{fill:#050000;}
</style>
<g>
	<g>
		<path class="st0" d="M55.4,93.3c-9,0-16.9-4.4-22.4-12.4c-4.6-6.7-7.2-15.7-7.2-24.7v-2.9c0-6.4,5.2-11.6,11.6-11.6
			c4.3,0,8.4,2.5,10.3,6.4l0.6,1.2h11.5v-2.6c-0.5-0.2-1-0.5-1.4-0.7c-3.8-2.2-6.1-6.4-6.1-10.8c0-4.4,2.3-8.5,6.1-10.8
			c1.5-0.9,3.2-1.5,4.9-1.7c2.3-2.4,5.6-3.9,9-3.9c6.5,0,11.9,5,12.5,11.3h4.5c3.8,0,6.9,3.1,6.9,6.9c0,3.9-1.6,7.6-4.2,10.2
			l2.3,6.2c3.8,10.2,2.9,20.3-2.4,27.9c-5.3,7.7-14.3,11.9-25.3,11.9H55.4z"/>
		<path class="st0" d="M72.4,23.9c4.2,0,7.5,3.4,7.5,7.5c0,0.6-0.1,1.2-0.2,1.7c0.9,0.6,1.7,1.3,2.2,2h7.4c1,0,1.9,0.8,1.9,1.9
			c0,3.6-2.1,6.9-5.2,8.4l3.6,9.7c6.6,17.9-3.5,33.1-23,33.1H55.4c-15.9,0-24.5-16.5-24.5-32.1v-2.9c0-3.6,2.9-6.6,6.6-6.6
			c2.5,0,4.8,1.4,5.8,3.6l1.4,2.9c0.3,0.6,1,1,1.7,1h1l0,0c0.1,0,0.2,0,0.4,0H63c0.2,0,0.5,0,0.7-0.2c0.5-0.2,0.8-0.5,1-0.9
			c0.1-0.3,0.2-0.5,0.2-0.8v-1.7l0,0v-8c-1.4,0-2.7-0.4-3.8-1.1c-2.2-1.3-3.7-3.7-3.7-6.5c0-2.8,1.5-5.2,3.7-6.5
			c1.1-0.7,2.5-1,3.8-1c0.3,0,0.7,0,1,0.1C67.2,25.4,69.7,23.9,72.4,23.9 M72.4,13.9c-4.2,0-8.2,1.5-11.4,4.2
			c-1.8,0.4-3.5,1.1-5.1,2c0,0,0,0-0.1,0c-5.3,3.2-8.5,8.9-8.5,15.1c0,1.9,0.3,3.8,0.9,5.6c-3-2.5-6.8-4-10.8-4
			c-9.1,0-16.6,7.4-16.6,16.6v2.9c0,10.1,2.9,19.9,8,27.5c6.4,9.4,15.8,14.6,26.5,14.6h11.2c12.5,0,23.2-5.1,29.4-14
			c6.2-9,7.3-20.8,2.9-32.5l-1.3-3.4c2.3-3.2,3.5-7.1,3.5-11.2c0-6.6-5.3-11.9-11.9-11.9h-0.6C86.3,18.6,79.9,13.9,72.4,13.9
			L72.4,13.9z"/>
	</g>
	<g>
		<path class="st0" d="M324.8,93.3c-9,0-16.9-4.4-22.4-12.4c-4.6-6.7-7.2-15.7-7.2-24.7v-2.9c0-6.4,5.2-11.6,11.6-11.6
			c4.3,0,8.4,2.5,10.3,6.4l0.6,1.2h11.5v-2.6c-0.5-0.2-1-0.5-1.4-0.7c-3.8-2.2-6.1-6.4-6.1-10.8c0-4.4,2.3-8.5,6.1-10.8
			c1.5-0.9,3.2-1.5,4.9-1.7c2.3-2.4,5.6-3.9,9-3.9c6.5,0,11.9,5,12.5,11.3h4.5c3.8,0,6.9,3.1,6.9,6.9c0,3.9-1.6,7.6-4.2,10.2
			l2.3,6.2c3.8,10.2,2.9,20.3-2.4,27.9C356,89.1,347,93.3,336,93.3H324.8z"/>
		<path class="st0" d="M341.8,23.9c4.2,0,7.5,3.4,7.5,7.5c0,0.6-0.1,1.2-0.2,1.7c0.9,0.6,1.7,1.3,2.2,2h7.4c1,0,1.9,0.8,1.9,1.9
			c0,3.6-2.1,6.9-5.2,8.4l3.6,9.7c6.6,17.9-3.5,33.1-23,33.1h-11.2c-15.9,0-24.5-16.5-24.5-32.1v-2.9c0-3.6,2.9-6.6,6.6-6.6
			c2.5,0,4.8,1.4,5.8,3.6l1.4,2.9c0.3,0.6,1,1,1.7,1h1l0,0c0.1,0,0.2,0,0.4,0h15.1c0.2,0,0.5,0,0.7-0.2c0.5-0.2,0.8-0.5,1-0.9
			c0.1-0.3,0.2-0.5,0.2-0.8v-1.7l0,0v-8c-1.4,0-2.7-0.4-3.8-1.1c-2.2-1.3-3.7-3.7-3.7-6.5c0-2.8,1.5-5.2,3.7-6.5
			c1.1-0.7,2.5-1,3.8-1c0.3,0,0.7,0,1,0.1C336.5,25.4,339,23.9,341.8,23.9 M341.8,13.9c-4.2,0-8.2,1.5-11.4,4.2
			c-1.8,0.4-3.5,1.1-5.1,2c0,0,0,0-0.1,0c-5.3,3.2-8.5,8.9-8.5,15.1c0,1.9,0.3,3.8,0.9,5.6c-3-2.5-6.8-4-10.8-4
			c-9.1,0-16.6,7.4-16.6,16.6v2.9c0,10.1,2.9,19.9,8,27.5c6.4,9.4,15.8,14.6,26.5,14.6H336c12.5,0,23.2-5.1,29.4-14
			c6.2-9,7.3-20.8,2.9-32.5l-1.3-3.4c2.3-3.2,3.5-7.1,3.5-11.2c0-6.6-5.3-11.9-11.9-11.9h-0.6C355.7,18.6,349.2,13.9,341.8,13.9
			L341.8,13.9z"/>
	</g>
	<g>
		<path class="st0" d="M190.1,93.3c-9,0-16.9-4.4-22.4-12.4c-4.6-6.7-7.2-15.7-7.2-24.7v-2.9c0-6.4,5.2-11.6,11.6-11.6
			c4.3,0,8.4,2.5,10.3,6.4l0.6,1.2h11.5v-2.6c-0.5-0.2-1-0.5-1.4-0.7c-3.8-2.2-6.1-6.4-6.1-10.8c0-4.4,2.3-8.5,6.1-10.8
			c1.5-0.9,3.2-1.5,4.9-1.7c2.3-2.4,5.6-3.9,9-3.9c6.5,0,11.9,5,12.5,11.3h4.5c3.8,0,6.9,3.1,6.9,6.9c0,3.9-1.6,7.6-4.2,10.2
			l2.3,6.2c3.8,10.2,2.9,20.3-2.4,27.9c-5.3,7.7-14.3,11.9-25.3,11.9H190.1z"/>
		<path class="st0" d="M207.1,23.9c4.2,0,7.5,3.4,7.5,7.5c0,0.6-0.1,1.2-0.2,1.7c0.9,0.6,1.7,1.3,2.2,2h7.4c1,0,1.9,0.8,1.9,1.9
			c0,3.6-2.1,6.9-5.2,8.4l3.6,9.7c6.6,17.9-3.5,33.1-23,33.1h-11.2c-15.9,0-24.5-16.5-24.5-32.1v-2.9c0-3.6,2.9-6.6,6.6-6.6
			c2.5,0,4.8,1.4,5.8,3.6l1.4,2.9c0.3,0.6,1,1,1.7,1h1l0,0c0.1,0,0.2,0,0.4,0h15.1c0.2,0,0.5,0,0.7-0.2c0.5-0.2,0.8-0.5,1-0.9
			c0.1-0.3,0.2-0.5,0.2-0.8v-1.7l0,0v-8c-1.4,0-2.7-0.4-3.8-1.1c-2.2-1.3-3.7-3.7-3.7-6.5c0-2.8,1.5-5.2,3.7-6.5
			c1.1-0.7,2.5-1,3.8-1c0.3,0,0.7,0,1,0.1C201.8,25.4,204.3,23.9,207.1,23.9 M207.1,13.9c-4.2,0-8.2,1.5-11.4,4.2
			c-1.8,0.4-3.5,1.1-5.1,2c0,0,0,0-0.1,0c-5.3,3.2-8.5,8.9-8.5,15.1c0,1.9,0.3,3.8,0.9,5.6c-3-2.5-6.8-4-10.8-4
			c-9.1,0-16.6,7.4-16.6,16.6v2.9c0,10.1,2.9,19.9,8,27.5c6.4,9.4,15.8,14.6,26.5,14.6h11.2c12.5,0,23.2-5.1,29.4-14
			c6.2-9,7.3-20.8,2.9-32.5l-1.3-3.4c2.3-3.2,3.5-7.1,3.5-11.2c0-6.6-5.3-11.9-11.9-11.9h-0.6C221,18.6,214.6,13.9,207.1,13.9
			L207.1,13.9z"/>
	</g>
	<g>
		<path class="st0" d="M122.8,125.5c-9,0-16.9-4.4-22.4-12.4c-4.6-6.7-7.2-15.7-7.2-24.7v-2.9c0-6.4,5.2-11.6,11.6-11.6
			c4.3,0,8.4,2.5,10.3,6.4l0.6,1.2h11.5V79c-0.5-0.2-1-0.5-1.4-0.7c-3.8-2.2-6.1-6.4-6.1-10.8c0-4.4,2.3-8.5,6.1-10.8
			c1.5-0.9,3.2-1.5,4.9-1.7c2.3-2.4,5.6-3.9,9-3.9c6.5,0,11.9,5,12.5,11.3h4.5c3.8,0,6.9,3.1,6.9,6.9c0,3.9-1.6,7.6-4.2,10.2
			l2.3,6.2c3.8,10.2,2.9,20.3-2.4,27.9c-5.3,7.7-14.3,11.9-25.3,11.9H122.8z"/>
		<path class="st0" d="M139.8,56.1c4.2,0,7.5,3.4,7.5,7.5c0,0.6-0.1,1.2-0.2,1.7c0.9,0.6,1.7,1.3,2.2,2h7.4c1,0,1.9,0.8,1.9,1.9
			c0,3.6-2.1,6.9-5.2,8.4l3.6,9.7c6.6,17.9-3.5,33.1-23,33.1h-11.2c-15.9,0-24.5-16.5-24.5-32.1v-2.9c0-3.6,2.9-6.6,6.6-6.6
			c2.5,0,4.8,1.4,5.8,3.6l1.4,2.9c0.3,0.6,1,1,1.7,1h1l0,0c0.1,0,0.2,0,0.4,0h15.1c0.2,0,0.5,0,0.7-0.2c0.5-0.2,0.8-0.5,1-0.9
			c0.1-0.3,0.2-0.5,0.2-0.8V83l0,0v-8c-1.4,0-2.7-0.4-3.8-1.1c-2.2-1.3-3.7-3.7-3.7-6.5c0-2.8,1.5-5.2,3.7-6.5c1.1-0.7,2.5-1,3.8-1
			c0.3,0,0.7,0,1,0.1C134.5,57.6,137,56.1,139.8,56.1 M139.8,46.1c-4.2,0-8.2,1.5-11.4,4.2c-1.8,0.4-3.5,1.1-5.1,2c0,0,0,0-0.1,0
			c-5.3,3.2-8.5,8.9-8.5,15.1c0,1.9,0.3,3.8,0.9,5.6c-3-2.5-6.8-4-10.8-4c-9.1,0-16.6,7.4-16.6,16.6v2.9c0,10.1,2.9,19.9,8,27.5
			c6.4,9.4,15.8,14.6,26.5,14.6H134c12.5,0,23.2-5.1,29.4-14c6.2-9,7.3-20.8,2.9-32.5l-1.3-3.4c2.3-3.2,3.5-7.1,3.5-11.2
			c0-6.6-5.3-11.9-11.9-11.9h-0.6C153.6,50.8,147.2,46.1,139.8,46.1L139.8,46.1z"/>
	</g>
	<g>
		<path class="st0" d="M257.4,125.5c-9,0-16.9-4.4-22.4-12.4c-4.6-6.7-7.2-15.7-7.2-24.7v-2.9c0-6.4,5.2-11.6,11.6-11.6
			c4.3,0,8.4,2.5,10.3,6.4l0.6,1.2h11.5V79c-0.5-0.2-1-0.5-1.4-0.7c-3.8-2.2-6.1-6.4-6.1-10.8c0-4.4,2.3-8.5,6.1-10.8
			c1.5-0.9,3.2-1.5,4.9-1.7c2.3-2.4,5.6-3.9,9-3.9c6.5,0,11.9,5,12.5,11.3h4.5c3.8,0,6.9,3.1,6.9,6.9c0,3.9-1.6,7.6-4.2,10.2
			l2.3,6.2c3.8,10.2,2.9,20.3-2.4,27.9c-5.3,7.7-14.3,11.9-25.3,11.9H257.4z"/>
		<path class="st0" d="M274.4,56.1c4.2,0,7.5,3.4,7.5,7.5c0,0.6-0.1,1.2-0.2,1.7c0.9,0.6,1.7,1.3,2.2,2h7.4c1,0,1.9,0.8,1.9,1.9
			c0,3.6-2.1,6.9-5.2,8.4l3.6,9.7c6.6,17.9-3.5,33.1-23,33.1h-11.2c-15.9,0-24.5-16.5-24.5-32.1v-2.9c0-3.6,2.9-6.6,6.6-6.6
			c2.5,0,4.8,1.4,5.8,3.6l1.4,2.9c0.3,0.6,1,1,1.7,1h1l0,0c0.1,0,0.2,0,0.4,0H265c0.2,0,0.5,0,0.7-0.2c0.5-0.2,0.8-0.5,1-0.9
			c0.1-0.3,0.2-0.5,0.2-0.8V83l0,0v-8c-1.4,0-2.7-0.4-3.8-1.1c-2.2-1.3-3.7-3.7-3.7-6.5c0-2.8,1.5-5.2,3.7-6.5c1.1-0.7,2.5-1,3.8-1
			c0.3,0,0.7,0,1,0.1C269.2,57.6,271.7,56.1,274.4,56.1 M274.4,46.1c-4.2,0-8.2,1.5-11.4,4.2c-1.8,0.4-3.5,1.1-5.1,2c0,0,0,0-0.1,0
			c-5.3,3.2-8.5,8.9-8.5,15.1c0,1.9,0.3,3.8,0.9,5.6c-3-2.5-6.8-4-10.8-4c-9.1,0-16.6,7.4-16.6,16.6v2.9c0,10.1,2.9,19.9,8,27.5
			c6.4,9.4,15.8,14.6,26.5,14.6h11.2c12.5,0,23.2-5.1,29.4-14c6.2-9,7.3-20.8,2.9-32.5l-1.3-3.4c2.3-3.2,3.5-7.1,3.5-11.2
			c0-6.6-5.3-11.9-11.9-11.9h-0.6C288.3,50.8,281.9,46.1,274.4,46.1L274.4,46.1z"/>
	</g>
	<g>
		<path class="st0" d="M55.4,176.9c-9,0-16.9-4.4-22.4-12.4c-4.6-6.7-7.2-15.7-7.2-24.7V137c0-6.4,5.2-11.6,11.6-11.6
			c4.3,0,8.4,2.5,10.3,6.4l0.6,1.2h11.5v-2.6c-0.5-0.2-1-0.5-1.4-0.7c-3.8-2.2-6.1-6.4-6.1-10.8c0-4.4,2.3-8.5,6.1-10.8
			c1.5-0.9,3.2-1.5,4.9-1.7c2.3-2.4,5.6-3.9,9-3.9c6.5,0,11.9,5,12.5,11.3h4.5c3.8,0,6.9,3.1,6.9,6.9c0,3.9-1.6,7.6-4.2,10.2
			l2.3,6.2c3.8,10.2,2.9,20.3-2.4,27.9c-5.3,7.7-14.3,11.9-25.3,11.9H55.4z"/>
		<path class="st0" d="M72.4,107.5c4.2,0,7.5,3.4,7.5,7.5c0,0.6-0.1,1.2-0.2,1.7c0.9,0.6,1.7,1.3,2.2,2h7.4c1,0,1.9,0.8,1.9,1.9
			c0,3.6-2.1,6.9-5.2,8.4l3.6,9.7c6.6,17.9-3.5,33.1-23,33.1H55.4c-15.9,0-24.5-16.5-24.5-32.1V137c0-3.6,2.9-6.6,6.6-6.6
			c2.5,0,4.8,1.4,5.8,3.6l1.4,2.9c0.3,0.6,1,1,1.7,1h1l0,0c0.1,0,0.2,0,0.4,0H63c0.2,0,0.5,0,0.7-0.2c0.5-0.2,0.8-0.5,1-0.9
			c0.1-0.3,0.2-0.5,0.2-0.8v-1.7l0,0v-8c-1.4,0-2.7-0.4-3.8-1.1c-2.2-1.3-3.7-3.7-3.7-6.5c0-2.8,1.5-5.2,3.7-6.5
			c1.1-0.7,2.5-1,3.8-1c0.3,0,0.7,0,1,0.1C67.2,109,69.7,107.5,72.4,107.5 M72.4,97.5c-4.2,0-8.2,1.5-11.4,4.2
			c-1.8,0.4-3.5,1.1-5.1,2c0,0,0,0-0.1,0c-5.3,3.2-8.5,8.9-8.5,15.1c0,1.9,0.3,3.8,0.9,5.6c-3-2.5-6.8-4-10.8-4
			c-9.1,0-16.6,7.4-16.6,16.6v2.9c0,10.1,2.9,19.9,8,27.5c6.4,9.4,15.8,14.6,26.5,14.6h11.2c12.5,0,23.2-5.1,29.4-14
			c6.2-9,7.3-20.8,2.9-32.5l-1.3-3.4c2.3-3.2,3.5-7.1,3.5-11.2c0-6.6-5.3-11.9-11.9-11.9h-0.6C86.3,102.2,79.9,97.5,72.4,97.5
			L72.4,97.5z"/>
	</g>
	<g>
		<path class="st0" d="M324.8,176.9c-9,0-16.9-4.4-22.4-12.4c-4.6-6.7-7.2-15.7-7.2-24.7V137c0-6.4,5.2-11.6,11.6-11.6
			c4.3,0,8.4,2.5,10.3,6.4l0.6,1.2h11.5v-2.6c-0.5-0.2-1-0.5-1.4-0.7c-3.8-2.2-6.1-6.4-6.1-10.8c0-4.4,2.3-8.5,6.1-10.8
			c1.5-0.9,3.2-1.5,4.9-1.7c2.3-2.4,5.6-3.9,9-3.9c6.5,0,11.9,5,12.5,11.3h4.5c3.8,0,6.9,3.1,6.9,6.9c0,3.9-1.6,7.6-4.2,10.2
			l2.3,6.2c3.8,10.2,2.9,20.3-2.4,27.9c-5.3,7.7-14.3,11.9-25.3,11.9H324.8z"/>
		<path class="st0" d="M341.8,107.5c4.2,0,7.5,3.4,7.5,7.5c0,0.6-0.1,1.2-0.2,1.7c0.9,0.6,1.7,1.3,2.2,2h7.4c1,0,1.9,0.8,1.9,1.9
			c0,3.6-2.1,6.9-5.2,8.4l3.6,9.7c6.6,17.9-3.5,33.1-23,33.1h-11.2c-15.9,0-24.5-16.5-24.5-32.1V137c0-3.6,2.9-6.6,6.6-6.6
			c2.5,0,4.8,1.4,5.8,3.6l1.4,2.9c0.3,0.6,1,1,1.7,1h1l0,0c0.1,0,0.2,0,0.4,0h15.1c0.2,0,0.5,0,0.7-0.2c0.5-0.2,0.8-0.5,1-0.9
			c0.1-0.3,0.2-0.5,0.2-0.8v-1.7l0,0v-8c-1.4,0-2.7-0.4-3.8-1.1c-2.2-1.3-3.7-3.7-3.7-6.5c0-2.8,1.5-5.2,3.7-6.5
			c1.1-0.7,2.5-1,3.8-1c0.3,0,0.7,0,1,0.1C336.5,109,339,107.5,341.8,107.5 M341.8,97.5c-4.2,0-8.2,1.5-11.4,4.2
			c-1.8,0.4-3.5,1.1-5.1,2c0,0,0,0-0.1,0c-5.3,3.2-8.5,8.9-8.5,15.1c0,1.9,0.3,3.8,0.9,5.6c-3-2.5-6.8-4-10.8-4
			c-9.1,0-16.6,7.4-16.6,16.6v2.9c0,10.1,2.9,19.9,8,27.5c6.4,9.4,15.8,14.6,26.5,14.6H336c12.5,0,23.2-5.1,29.4-14
			c6.2-9,7.3-20.8,2.9-32.5l-1.3-3.4c2.3-3.2,3.5-7.1,3.5-11.2c0-6.6-5.3-11.9-11.9-11.9h-0.6C355.7,102.2,349.2,97.5,341.8,97.5
			L341.8,97.5z"/>
	</g>
	<g>
		<path class="st0" d="M190.1,176.9c-9,0-16.9-4.4-22.4-12.4c-4.6-6.7-7.2-15.7-7.2-24.7V137c0-6.4,5.2-11.6,11.6-11.6
			c4.3,0,8.4,2.5,10.3,6.4l0.6,1.2h11.5v-2.6c-0.5-0.2-1-0.5-1.4-0.7c-3.8-2.2-6.1-6.4-6.1-10.8c0-4.4,2.3-8.5,6.1-10.8
			c1.5-0.9,3.2-1.5,4.9-1.7c2.3-2.4,5.6-3.9,9-3.9c6.5,0,11.9,5,12.5,11.3h4.5c3.8,0,6.9,3.1,6.9,6.9c0,3.9-1.6,7.6-4.2,10.2
			l2.3,6.2c3.8,10.2,2.9,20.3-2.4,27.9c-5.3,7.7-14.3,11.9-25.3,11.9H190.1z"/>
		<path class="st0" d="M207.1,107.5c4.2,0,7.5,3.4,7.5,7.5c0,0.6-0.1,1.2-0.2,1.7c0.9,0.6,1.7,1.3,2.2,2h7.4c1,0,1.9,0.8,1.9,1.9
			c0,3.6-2.1,6.9-5.2,8.4l3.6,9.7c6.6,17.9-3.5,33.1-23,33.1h-11.2c-15.9,0-24.5-16.5-24.5-32.1V137c0-3.6,2.9-6.6,6.6-6.6
			c2.5,0,4.8,1.4,5.8,3.6l1.4,2.9c0.3,0.6,1,1,1.7,1h1l0,0c0.1,0,0.2,0,0.4,0h15.1c0.2,0,0.5,0,0.7-0.2c0.5-0.2,0.8-0.5,1-0.9
			c0.1-0.3,0.2-0.5,0.2-0.8v-1.7l0,0v-8c-1.4,0-2.7-0.4-3.8-1.1c-2.2-1.3-3.7-3.7-3.7-6.5c0-2.8,1.5-5.2,3.7-6.5
			c1.1-0.7,2.5-1,3.8-1c0.3,0,0.7,0,1,0.1C201.8,109,204.3,107.5,207.1,107.5 M207.1,97.5c-4.2,0-8.2,1.5-11.4,4.2
			c-1.8,0.4-3.5,1.1-5.1,2c0,0,0,0-0.1,0c-5.3,3.2-8.5,8.9-8.5,15.1c0,1.9,0.3,3.8,0.9,5.6c-3-2.5-6.8-4-10.8-4
			c-9.1,0-16.6,7.4-16.6,16.6v2.9c0,10.1,2.9,19.9,8,27.5c6.4,9.4,15.8,14.6,26.5,14.6h11.2c12.5,0,23.2-5.1,29.4-14
			c6.2-9,7.3-20.8,2.9-32.5l-1.3-3.4c2.3-3.2,3.5-7.1,3.5-11.2c0-6.6-5.3-11.9-11.9-11.9h-0.6C221,102.2,214.6,97.5,207.1,97.5
			L207.1,97.5z"/>
	</g>
	<g>
		<path class="st0" d="M122.8,209.1c-9,0-16.9-4.4-22.4-12.4c-4.6-6.7-7.2-15.7-7.2-24.7v-2.9c0-6.4,5.2-11.6,11.6-11.6
			c4.3,0,8.4,2.5,10.3,6.4l0.6,1.2h11.5v-2.6c-0.5-0.2-1-0.5-1.4-0.7c-3.8-2.2-6.1-6.4-6.1-10.8c0-4.4,2.3-8.5,6.1-10.8
			c1.5-0.9,3.2-1.5,4.9-1.7c2.3-2.4,5.6-3.9,9-3.9c6.5,0,11.9,5,12.5,11.3h4.5c3.8,0,6.9,3.1,6.9,6.9c0,3.9-1.6,7.6-4.2,10.2
			l2.3,6.2c3.8,10.2,2.9,20.3-2.4,27.9c-5.3,7.7-14.3,11.9-25.3,11.9H122.8z"/>
		<path class="st0" d="M139.8,139.7c4.2,0,7.5,3.4,7.5,7.5c0,0.6-0.1,1.2-0.2,1.7c0.9,0.6,1.7,1.3,2.2,2h7.4c1,0,1.9,0.8,1.9,1.9
			c0,3.6-2.1,6.9-5.2,8.4l3.6,9.7c6.6,17.9-3.5,33.1-23,33.1h-11.2c-15.9,0-24.5-16.5-24.5-32.1v-2.9c0-3.6,2.9-6.6,6.6-6.6
			c2.5,0,4.8,1.4,5.8,3.6l1.4,2.9c0.3,0.6,1,1,1.7,1h1l0,0c0.1,0,0.2,0,0.4,0h15.1c0.2,0,0.5,0,0.7-0.2c0.5-0.2,0.8-0.5,1-0.9
			c0.1-0.3,0.2-0.5,0.2-0.8v-1.7l0,0v-8c-1.4,0-2.7-0.4-3.8-1.1c-2.2-1.3-3.7-3.7-3.7-6.5c0-2.8,1.5-5.2,3.7-6.5
			c1.1-0.7,2.5-1,3.8-1c0.3,0,0.7,0,1,0.1C134.5,141.2,137,139.7,139.8,139.7 M139.8,129.7c-4.2,0-8.2,1.5-11.4,4.2
			c-1.8,0.4-3.5,1.1-5.1,2c0,0,0,0-0.1,0c-5.3,3.2-8.5,8.9-8.5,15.1c0,1.9,0.3,3.8,0.9,5.6c-3-2.5-6.8-4-10.8-4
			c-9.1,0-16.6,7.4-16.6,16.6v2.9c0,10.1,2.9,19.9,8,27.5c6.4,9.4,15.8,14.6,26.5,14.6H134c12.5,0,23.2-5.1,29.4-14
			c6.2-9,7.3-20.8,2.9-32.5l-1.3-3.4c2.3-3.2,3.5-7.1,3.5-11.2c0-6.6-5.3-11.9-11.9-11.9h-0.6C153.6,134.4,147.2,129.7,139.8,129.7
			L139.8,129.7z"/>
	</g>
	<g>
		<path class="st0" d="M257.4,209.1c-9,0-16.9-4.4-22.4-12.4c-4.6-6.7-7.2-15.7-7.2-24.7v-2.9c0-6.4,5.2-11.6,11.6-11.6
			c4.3,0,8.4,2.5,10.3,6.4l0.6,1.2h11.5v-2.6c-0.5-0.2-1-0.5-1.4-0.7c-3.8-2.2-6.1-6.4-6.1-10.8c0-4.4,2.3-8.5,6.1-10.8
			c1.5-0.9,3.2-1.5,4.9-1.7c2.3-2.4,5.6-3.9,9-3.9c6.5,0,11.9,5,12.5,11.3h4.5c3.8,0,6.9,3.1,6.9,6.9c0,3.9-1.6,7.6-4.2,10.2
			l2.3,6.2c3.8,10.2,2.9,20.3-2.4,27.9c-5.3,7.7-14.3,11.9-25.3,11.9H257.4z"/>
		<path class="st0" d="M274.4,139.7c4.2,0,7.5,3.4,7.5,7.5c0,0.6-0.1,1.2-0.2,1.7c0.9,0.6,1.7,1.3,2.2,2h7.4c1,0,1.9,0.8,1.9,1.9
			c0,3.6-2.1,6.9-5.2,8.4l3.6,9.7c6.6,17.9-3.5,33.1-23,33.1h-11.2c-15.9,0-24.5-16.5-24.5-32.1v-2.9c0-3.6,2.9-6.6,6.6-6.6
			c2.5,0,4.8,1.4,5.8,3.6l1.4,2.9c0.3,0.6,1,1,1.7,1h1l0,0c0.1,0,0.2,0,0.4,0H265c0.2,0,0.5,0,0.7-0.2c0.5-0.2,0.8-0.5,1-0.9
			c0.1-0.3,0.2-0.5,0.2-0.8v-1.7l0,0v-8c-1.4,0-2.7-0.4-3.8-1.1c-2.2-1.3-3.7-3.7-3.7-6.5c0-2.8,1.5-5.2,3.7-6.5
			c1.1-0.7,2.5-1,3.8-1c0.3,0,0.7,0,1,0.1C269.2,141.2,271.7,139.7,274.4,139.7 M274.4,129.7c-4.2,0-8.2,1.5-11.4,4.2
			c-1.8,0.4-3.5,1.1-5.1,2c0,0,0,0-0.1,0c-5.3,3.2-8.5,8.9-8.5,15.1c0,1.9,0.3,3.8,0.9,5.6c-3-2.5-6.8-4-10.8-4
			c-9.1,0-16.6,7.4-16.6,16.6v2.9c0,10.1,2.9,19.9,8,27.5c6.4,9.4,15.8,14.6,26.5,14.6h11.2c12.5,0,23.2-5.1,29.4-14
			c6.2-9,7.3-20.8,2.9-32.5l-1.3-3.4c2.3-3.2,3.5-7.1,3.5-11.2c0-6.6-5.3-11.9-11.9-11.9h-0.6C288.3,134.4,281.9,129.7,274.4,129.7
			L274.4,129.7z"/>
	</g>
	<g>
		<path class="st0" d="M55.4,260.5c-9,0-16.9-4.4-22.4-12.4c-4.6-6.7-7.2-15.7-7.2-24.7v-2.9c0-6.4,5.2-11.6,11.6-11.6
			c4.3,0,8.4,2.5,10.3,6.4l0.6,1.2h11.5v-2.6c-0.5-0.2-1-0.5-1.4-0.7c-3.8-2.2-6.1-6.4-6.1-10.8c0-4.4,2.3-8.5,6.1-10.8
			c1.5-0.9,3.2-1.5,4.9-1.7c2.3-2.4,5.6-3.9,9-3.9c6.5,0,11.9,5,12.5,11.3h4.5c3.8,0,6.9,3.1,6.9,6.9c0,3.9-1.6,7.6-4.2,10.2
			l2.3,6.2c3.8,10.2,2.9,20.3-2.4,27.9c-5.3,7.7-14.3,11.9-25.3,11.9H55.4z"/>
		<path class="st0" d="M72.4,191.1c4.2,0,7.5,3.4,7.5,7.5c0,0.6-0.1,1.2-0.2,1.7c0.9,0.6,1.7,1.3,2.2,2h7.4c1,0,1.9,0.8,1.9,1.9
			c0,3.6-2.1,6.9-5.2,8.4l3.6,9.7c6.6,17.9-3.5,33.1-23,33.1H55.4c-15.9,0-24.5-16.5-24.5-32.1v-2.9c0-3.6,2.9-6.6,6.6-6.6
			c2.5,0,4.8,1.4,5.8,3.6l1.4,2.9c0.3,0.6,1,1,1.7,1h1l0,0c0.1,0,0.2,0,0.4,0H63c0.2,0,0.5,0,0.7-0.2c0.5-0.2,0.8-0.5,1-0.9
			c0.1-0.3,0.2-0.5,0.2-0.8V218l0,0v-8c-1.4,0-2.7-0.4-3.8-1.1c-2.2-1.3-3.7-3.7-3.7-6.5c0-2.8,1.5-5.2,3.7-6.5c1.1-0.7,2.5-1,3.8-1
			c0.3,0,0.7,0,1,0.1C67.2,192.6,69.7,191.1,72.4,191.1 M72.4,181.1c-4.2,0-8.2,1.5-11.4,4.2c-1.8,0.4-3.5,1.1-5.1,2c0,0,0,0-0.1,0
			c-5.3,3.2-8.5,8.9-8.5,15.1c0,1.9,0.3,3.8,0.9,5.6c-3-2.5-6.8-4-10.8-4c-9.1,0-16.6,7.4-16.6,16.6v2.9c0,10.1,2.9,19.9,8,27.5
			c6.4,9.4,15.8,14.6,26.5,14.6h11.2c12.5,0,23.2-5.1,29.4-14c6.2-9,7.3-20.8,2.9-32.5l-1.3-3.4c2.3-3.2,3.5-7.1,3.5-11.2
			c0-6.6-5.3-11.9-11.9-11.9h-0.6C86.3,185.8,79.9,181.1,72.4,181.1L72.4,181.1z"/>
	</g>
	<g>
		<path class="st0" d="M324.8,260.5c-9,0-16.9-4.4-22.4-12.4c-4.6-6.7-7.2-15.7-7.2-24.7v-2.9c0-6.4,5.2-11.6,11.6-11.6
			c4.3,0,8.4,2.5,10.3,6.4l0.6,1.2h11.5v-2.6c-0.5-0.2-1-0.5-1.4-0.7c-3.8-2.2-6.1-6.4-6.1-10.8c0-4.4,2.3-8.5,6.1-10.8
			c1.5-0.9,3.2-1.5,4.9-1.7c2.3-2.4,5.6-3.9,9-3.9c6.5,0,11.9,5,12.5,11.3h4.5c3.8,0,6.9,3.1,6.9,6.9c0,3.9-1.6,7.6-4.2,10.2
			l2.3,6.2c3.8,10.2,2.9,20.3-2.4,27.9c-5.3,7.7-14.3,11.9-25.3,11.9H324.8z"/>
		<path class="st0" d="M341.8,191.1c4.2,0,7.5,3.4,7.5,7.5c0,0.6-0.1,1.2-0.2,1.7c0.9,0.6,1.7,1.3,2.2,2h7.4c1,0,1.9,0.8,1.9,1.9
			c0,3.6-2.1,6.9-5.2,8.4l3.6,9.7c6.6,17.9-3.5,33.1-23,33.1h-11.2c-15.9,0-24.5-16.5-24.5-32.1v-2.9c0-3.6,2.9-6.6,6.6-6.6
			c2.5,0,4.8,1.4,5.8,3.6l1.4,2.9c0.3,0.6,1,1,1.7,1h1l0,0c0.1,0,0.2,0,0.4,0h15.1c0.2,0,0.5,0,0.7-0.2c0.5-0.2,0.8-0.5,1-0.9
			c0.1-0.3,0.2-0.5,0.2-0.8V218l0,0v-8c-1.4,0-2.7-0.4-3.8-1.1c-2.2-1.3-3.7-3.7-3.7-6.5c0-2.8,1.5-5.2,3.7-6.5c1.1-0.7,2.5-1,3.8-1
			c0.3,0,0.7,0,1,0.1C336.5,192.6,339,191.1,341.8,191.1 M341.8,181.1c-4.2,0-8.2,1.5-11.4,4.2c-1.8,0.4-3.5,1.1-5.1,2
			c0,0,0,0-0.1,0c-5.3,3.2-8.5,8.9-8.5,15.1c0,1.9,0.3,3.8,0.9,5.6c-3-2.5-6.8-4-10.8-4c-9.1,0-16.6,7.4-16.6,16.6v2.9
			c0,10.1,2.9,19.9,8,27.5c6.4,9.4,15.8,14.6,26.5,14.6H336c12.5,0,23.2-5.1,29.4-14c6.2-9,7.3-20.8,2.9-32.5l-1.3-3.4
			c2.3-3.2,3.5-7.1,3.5-11.2c0-6.6-5.3-11.9-11.9-11.9h-0.6C355.7,185.8,349.2,181.1,341.8,181.1L341.8,181.1z"/>
	</g>
	<g>
		<path class="st0" d="M190.1,260.5c-9,0-16.9-4.4-22.4-12.4c-4.6-6.7-7.2-15.7-7.2-24.7v-2.9c0-6.4,5.2-11.6,11.6-11.6
			c4.3,0,8.4,2.5,10.3,6.4l0.6,1.2h11.5v-2.6c-0.5-0.2-1-0.5-1.4-0.7c-3.8-2.2-6.1-6.4-6.1-10.8c0-4.4,2.3-8.5,6.1-10.8
			c1.5-0.9,3.2-1.5,4.9-1.7c2.3-2.4,5.6-3.9,9-3.9c6.5,0,11.9,5,12.5,11.3h4.5c3.8,0,6.9,3.1,6.9,6.9c0,3.9-1.6,7.6-4.2,10.2
			l2.3,6.2c3.8,10.2,2.9,20.3-2.4,27.9c-5.3,7.7-14.3,11.9-25.3,11.9H190.1z"/>
		<path class="st0" d="M207.1,191.1c4.2,0,7.5,3.4,7.5,7.5c0,0.6-0.1,1.2-0.2,1.7c0.9,0.6,1.7,1.3,2.2,2h7.4c1,0,1.9,0.8,1.9,1.9
			c0,3.6-2.1,6.9-5.2,8.4l3.6,9.7c6.6,17.9-3.5,33.1-23,33.1h-11.2c-15.9,0-24.5-16.5-24.5-32.1v-2.9c0-3.6,2.9-6.6,6.6-6.6
			c2.5,0,4.8,1.4,5.8,3.6l1.4,2.9c0.3,0.6,1,1,1.7,1h1l0,0c0.1,0,0.2,0,0.4,0h15.1c0.2,0,0.5,0,0.7-0.2c0.5-0.2,0.8-0.5,1-0.9
			c0.1-0.3,0.2-0.5,0.2-0.8V218l0,0v-8c-1.4,0-2.7-0.4-3.8-1.1c-2.2-1.3-3.7-3.7-3.7-6.5c0-2.8,1.5-5.2,3.7-6.5c1.1-0.7,2.5-1,3.8-1
			c0.3,0,0.7,0,1,0.1C201.8,192.6,204.3,191.1,207.1,191.1 M207.1,181.1c-4.2,0-8.2,1.5-11.4,4.2c-1.8,0.4-3.5,1.1-5.1,2
			c0,0,0,0-0.1,0c-5.3,3.2-8.5,8.9-8.5,15.1c0,1.9,0.3,3.8,0.9,5.6c-3-2.5-6.8-4-10.8-4c-9.1,0-16.6,7.4-16.6,16.6v2.9
			c0,10.1,2.9,19.9,8,27.5c6.4,9.4,15.8,14.6,26.5,14.6h11.2c12.5,0,23.2-5.1,29.4-14c6.2-9,7.3-20.8,2.9-32.5l-1.3-3.4
			c2.3-3.2,3.5-7.1,3.5-11.2c0-6.6-5.3-11.9-11.9-11.9h-0.6C221,185.8,214.6,181.1,207.1,181.1L207.1,181.1z"/>
	</g>
	<g>
		<path class="st0" d="M122.8,292.7c-9,0-16.9-4.4-22.4-12.4c-4.6-6.7-7.2-15.7-7.2-24.7v-2.9c0-6.4,5.2-11.6,11.6-11.6
			c4.3,0,8.4,2.5,10.3,6.4l0.6,1.2h11.5v-2.6c-0.5-0.2-1-0.5-1.4-0.7c-3.8-2.2-6.1-6.4-6.1-10.8c0-4.4,2.3-8.5,6.1-10.8
			c1.5-0.9,3.2-1.5,4.9-1.7c2.3-2.4,5.6-3.9,9-3.9c6.5,0,11.9,5,12.5,11.3h4.5c3.8,0,6.9,3.1,6.9,6.9c0,3.9-1.6,7.6-4.2,10.2
			l2.3,6.2c3.8,10.2,2.9,20.3-2.4,27.9c-5.3,7.7-14.3,11.9-25.3,11.9H122.8z"/>
		<path class="st0" d="M139.8,223.3c4.2,0,7.5,3.4,7.5,7.5c0,0.6-0.1,1.2-0.2,1.7c0.9,0.6,1.7,1.3,2.2,2h7.4c1,0,1.9,0.8,1.9,1.9
			c0,3.6-2.1,6.9-5.2,8.4l3.6,9.7c6.6,17.9-3.5,33.1-23,33.1h-11.2c-15.9,0-24.5-16.5-24.5-32.1v-2.9c0-3.6,2.9-6.6,6.6-6.6
			c2.5,0,4.8,1.4,5.8,3.6l1.4,2.9c0.3,0.6,1,1,1.7,1h1l0,0c0.1,0,0.2,0,0.4,0h15.1c0.2,0,0.5,0,0.7-0.2c0.5-0.2,0.8-0.5,1-0.9
			c0.1-0.3,0.2-0.5,0.2-0.8v-1.7l0,0v-8c-1.4,0-2.7-0.4-3.8-1.1c-2.2-1.3-3.7-3.7-3.7-6.5c0-2.8,1.5-5.2,3.7-6.5
			c1.1-0.7,2.5-1,3.8-1c0.3,0,0.7,0,1,0.1C134.5,224.8,137,223.3,139.8,223.3 M139.8,213.3c-4.2,0-8.2,1.5-11.4,4.2
			c-1.8,0.4-3.5,1.1-5.1,2c0,0,0,0-0.1,0c-5.3,3.2-8.5,8.9-8.5,15.1c0,1.9,0.3,3.8,0.9,5.6c-3-2.5-6.8-4-10.8-4
			c-9.1,0-16.6,7.4-16.6,16.6v2.9c0,10.1,2.9,19.9,8,27.5c6.4,9.4,15.8,14.6,26.5,14.6H134c12.5,0,23.2-5.1,29.4-14
			c6.2-9,7.3-20.8,2.9-32.5l-1.3-3.4c2.3-3.2,3.5-7.1,3.5-11.2c0-6.6-5.3-11.9-11.9-11.9h-0.6C153.6,218,147.2,213.3,139.8,213.3
			L139.8,213.3z"/>
	</g>
	<g>
		<path class="st0" d="M257.4,292.7c-9,0-16.9-4.4-22.4-12.4c-4.6-6.7-7.2-15.7-7.2-24.7v-2.9c0-6.4,5.2-11.6,11.6-11.6
			c4.3,0,8.4,2.5,10.3,6.4l0.6,1.2h11.5v-2.6c-0.5-0.2-1-0.5-1.4-0.7c-3.8-2.2-6.1-6.4-6.1-10.8c0-4.4,2.3-8.5,6.1-10.8
			c1.5-0.9,3.2-1.5,4.9-1.7c2.3-2.4,5.6-3.9,9-3.9c6.5,0,11.9,5,12.5,11.3h4.5c3.8,0,6.9,3.1,6.9,6.9c0,3.9-1.6,7.6-4.2,10.2
			l2.3,6.2c3.8,10.2,2.9,20.3-2.4,27.9c-5.3,7.7-14.3,11.9-25.3,11.9H257.4z"/>
		<path class="st0" d="M274.4,223.3c4.2,0,7.5,3.4,7.5,7.5c0,0.6-0.1,1.2-0.2,1.7c0.9,0.6,1.7,1.3,2.2,2h7.4c1,0,1.9,0.8,1.9,1.9
			c0,3.6-2.1,6.9-5.2,8.4l3.6,9.7c6.6,17.9-3.5,33.1-23,33.1h-11.2c-15.9,0-24.5-16.5-24.5-32.1v-2.9c0-3.6,2.9-6.6,6.6-6.6
			c2.5,0,4.8,1.4,5.8,3.6l1.4,2.9c0.3,0.6,1,1,1.7,1h1l0,0c0.1,0,0.2,0,0.4,0H265c0.2,0,0.5,0,0.7-0.2c0.5-0.2,0.8-0.5,1-0.9
			c0.1-0.3,0.2-0.5,0.2-0.8v-1.7l0,0v-8c-1.4,0-2.7-0.4-3.8-1.1c-2.2-1.3-3.7-3.7-3.7-6.5c0-2.8,1.5-5.2,3.7-6.5
			c1.1-0.7,2.5-1,3.8-1c0.3,0,0.7,0,1,0.1C269.2,224.8,271.7,223.3,274.4,223.3 M274.4,213.3c-4.2,0-8.2,1.5-11.4,4.2
			c-1.8,0.4-3.5,1.1-5.1,2c0,0,0,0-0.1,0c-5.3,3.2-8.5,8.9-8.5,15.1c0,1.9,0.3,3.8,0.9,5.6c-3-2.5-6.8-4-10.8-4
			c-9.1,0-16.6,7.4-16.6,16.6v2.9c0,10.1,2.9,19.9,8,27.5c6.4,9.4,15.8,14.6,26.5,14.6h11.2c12.5,0,23.2-5.1,29.4-14
			c6.2-9,7.3-20.8,2.9-32.5l-1.3-3.4c2.3-3.2,3.5-7.1,3.5-11.2c0-6.6-5.3-11.9-11.9-11.9h-0.6C288.3,218,281.9,213.3,274.4,213.3
			L274.4,213.3z"/>
	</g>
	<g>
		<path class="st0" d="M55.4,344.1c-9,0-16.9-4.4-22.4-12.4c-4.6-6.7-7.2-15.7-7.2-24.7v-2.9c0-6.4,5.2-11.6,11.6-11.6
			c4.3,0,8.4,2.5,10.3,6.4l0.6,1.2h11.5v-2.6c-0.5-0.2-1-0.5-1.4-0.7c-3.8-2.2-6.1-6.4-6.1-10.8c0-4.4,2.3-8.5,6.1-10.8
			c1.5-0.9,3.2-1.5,4.9-1.7c2.3-2.4,5.6-3.9,9-3.9c6.5,0,11.9,5,12.5,11.3h4.5c3.8,0,6.9,3.1,6.9,6.9c0,3.9-1.6,7.6-4.2,10.2
			l2.3,6.2c3.8,10.2,2.9,20.3-2.4,27.9c-5.3,7.7-14.3,11.9-25.3,11.9H55.4z"/>
		<path class="st0" d="M72.4,274.7c4.2,0,7.5,3.4,7.5,7.5c0,0.6-0.1,1.2-0.2,1.7c0.9,0.6,1.7,1.3,2.2,2h7.4c1,0,1.9,0.8,1.9,1.9
			c0,3.6-2.1,6.9-5.2,8.4l3.6,9.7c6.6,17.9-3.5,33.1-23,33.1H55.4c-15.9,0-24.5-16.5-24.5-32.1v-2.9c0-3.6,2.9-6.6,6.6-6.6
			c2.5,0,4.8,1.4,5.8,3.6l1.4,2.9c0.3,0.6,1,1,1.7,1h1l0,0c0.1,0,0.2,0,0.4,0H63c0.2,0,0.5,0,0.7-0.2c0.5-0.2,0.8-0.5,1-0.9
			c0.1-0.3,0.2-0.5,0.2-0.8v-1.7l0,0v-8c-1.4,0-2.7-0.4-3.8-1.1c-2.2-1.3-3.7-3.7-3.7-6.5c0-2.8,1.5-5.2,3.7-6.5
			c1.1-0.7,2.5-1,3.8-1c0.3,0,0.7,0,1,0.1C67.2,276.2,69.7,274.7,72.4,274.7 M72.4,264.7c-4.2,0-8.2,1.5-11.4,4.2
			c-1.8,0.4-3.5,1.1-5.1,2c0,0,0,0-0.1,0c-5.3,3.2-8.5,8.9-8.5,15.1c0,1.9,0.3,3.8,0.9,5.6c-3-2.5-6.8-4-10.8-4
			c-9.1,0-16.6,7.4-16.6,16.6v2.9c0,10.1,2.9,19.9,8,27.5c6.4,9.4,15.8,14.6,26.5,14.6h11.2c12.5,0,23.2-5.1,29.4-14
			c6.2-9,7.3-20.8,2.9-32.5l-1.3-3.4c2.3-3.2,3.5-7.1,3.5-11.2c0-6.6-5.3-11.9-11.9-11.9h-0.6C86.3,269.4,79.9,264.7,72.4,264.7
			L72.4,264.7z"/>
	</g>
	<g>
		<path class="st0" d="M324.8,344.1c-9,0-16.9-4.4-22.4-12.4c-4.6-6.7-7.2-15.7-7.2-24.7v-2.9c0-6.4,5.2-11.6,11.6-11.6
			c4.3,0,8.4,2.5,10.3,6.4l0.6,1.2h11.5v-2.6c-0.5-0.2-1-0.5-1.4-0.7c-3.8-2.2-6.1-6.4-6.1-10.8c0-4.4,2.3-8.5,6.1-10.8
			c1.5-0.9,3.2-1.5,4.9-1.7c2.3-2.4,5.6-3.9,9-3.9c6.5,0,11.9,5,12.5,11.3h4.5c3.8,0,6.9,3.1,6.9,6.9c0,3.9-1.6,7.6-4.2,10.2
			l2.3,6.2c3.8,10.2,2.9,20.3-2.4,27.9c-5.3,7.7-14.3,11.9-25.3,11.9H324.8z"/>
		<path class="st0" d="M341.8,274.7c4.2,0,7.5,3.4,7.5,7.5c0,0.6-0.1,1.2-0.2,1.7c0.9,0.6,1.7,1.3,2.2,2h7.4c1,0,1.9,0.8,1.9,1.9
			c0,3.6-2.1,6.9-5.2,8.4l3.6,9.7c6.6,17.9-3.5,33.1-23,33.1h-11.2c-15.9,0-24.5-16.5-24.5-32.1v-2.9c0-3.6,2.9-6.6,6.6-6.6
			c2.5,0,4.8,1.4,5.8,3.6l1.4,2.9c0.3,0.6,1,1,1.7,1h1l0,0c0.1,0,0.2,0,0.4,0h15.1c0.2,0,0.5,0,0.7-0.2c0.5-0.2,0.8-0.5,1-0.9
			c0.1-0.3,0.2-0.5,0.2-0.8v-1.7l0,0v-8c-1.4,0-2.7-0.4-3.8-1.1c-2.2-1.3-3.7-3.7-3.7-6.5c0-2.8,1.5-5.2,3.7-6.5
			c1.1-0.7,2.5-1,3.8-1c0.3,0,0.7,0,1,0.1C336.5,276.2,339,274.7,341.8,274.7 M341.8,264.7c-4.2,0-8.2,1.5-11.4,4.2
			c-1.8,0.4-3.5,1.1-5.1,2c0,0,0,0-0.1,0c-5.3,3.2-8.5,8.9-8.5,15.1c0,1.9,0.3,3.8,0.9,5.6c-3-2.5-6.8-4-10.8-4
			c-9.1,0-16.6,7.4-16.6,16.6v2.9c0,10.1,2.9,19.9,8,27.5c6.4,9.4,15.8,14.6,26.5,14.6H336c12.5,0,23.2-5.1,29.4-14
			c6.2-9,7.3-20.8,2.9-32.5l-1.3-3.4c2.3-3.2,3.5-7.1,3.5-11.2c0-6.6-5.3-11.9-11.9-11.9h-0.6C355.7,269.4,349.2,264.7,341.8,264.7
			L341.8,264.7z"/>
	</g>
	<g>
		<path class="st0" d="M190.1,344.1c-9,0-16.9-4.4-22.4-12.4c-4.6-6.7-7.2-15.7-7.2-24.7v-2.9c0-6.4,5.2-11.6,11.6-11.6
			c4.3,0,8.4,2.5,10.3,6.4l0.6,1.2h11.5v-2.6c-0.5-0.2-1-0.5-1.4-0.7c-3.8-2.2-6.1-6.4-6.1-10.8c0-4.4,2.3-8.5,6.1-10.8
			c1.5-0.9,3.2-1.5,4.9-1.7c2.3-2.4,5.6-3.9,9-3.9c6.5,0,11.9,5,12.5,11.3h4.5c3.8,0,6.9,3.1,6.9,6.9c0,3.9-1.6,7.6-4.2,10.2
			l2.3,6.2c3.8,10.2,2.9,20.3-2.4,27.9c-5.3,7.7-14.3,11.9-25.3,11.9H190.1z"/>
		<path class="st0" d="M207.1,274.7c4.2,0,7.5,3.4,7.5,7.5c0,0.6-0.1,1.2-0.2,1.7c0.9,0.6,1.7,1.3,2.2,2h7.4c1,0,1.9,0.8,1.9,1.9
			c0,3.6-2.1,6.9-5.2,8.4l3.6,9.7c6.6,17.9-3.5,33.1-23,33.1h-11.2c-15.9,0-24.5-16.5-24.5-32.1v-2.9c0-3.6,2.9-6.6,6.6-6.6
			c2.5,0,4.8,1.4,5.8,3.6l1.4,2.9c0.3,0.6,1,1,1.7,1h1l0,0c0.1,0,0.2,0,0.4,0h15.1c0.2,0,0.5,0,0.7-0.2c0.5-0.2,0.8-0.5,1-0.9
			c0.1-0.3,0.2-0.5,0.2-0.8v-1.7l0,0v-8c-1.4,0-2.7-0.4-3.8-1.1c-2.2-1.3-3.7-3.7-3.7-6.5c0-2.8,1.5-5.2,3.7-6.5
			c1.1-0.7,2.5-1,3.8-1c0.3,0,0.7,0,1,0.1C201.8,276.2,204.3,274.7,207.1,274.7 M207.1,264.7c-4.2,0-8.2,1.5-11.4,4.2
			c-1.8,0.4-3.5,1.1-5.1,2c0,0,0,0-0.1,0c-5.3,3.2-8.5,8.9-8.5,15.1c0,1.9,0.3,3.8,0.9,5.6c-3-2.5-6.8-4-10.8-4
			c-9.1,0-16.6,7.4-16.6,16.6v2.9c0,10.1,2.9,19.9,8,27.5c6.4,9.4,15.8,14.6,26.5,14.6h11.2c12.5,0,23.2-5.1,29.4-14
			c6.2-9,7.3-20.8,2.9-32.5l-1.3-3.4c2.3-3.2,3.5-7.1,3.5-11.2c0-6.6-5.3-11.9-11.9-11.9h-0.6C221,269.4,214.6,264.7,207.1,264.7
			L207.1,264.7z"/>
	</g>
	<g>
		<path class="st0" d="M122.8,376.3c-9,0-16.9-4.4-22.4-12.4c-4.6-6.7-7.2-15.7-7.2-24.7v-2.9c0-6.4,5.2-11.6,11.6-11.6
			c4.3,0,8.4,2.5,10.3,6.4l0.6,1.2h11.5v-2.6c-0.5-0.2-1-0.5-1.4-0.7c-3.8-2.2-6.1-6.4-6.1-10.8c0-4.4,2.3-8.5,6.1-10.8
			c1.5-0.9,3.2-1.5,4.9-1.7c2.3-2.4,5.6-3.9,9-3.9c6.5,0,11.9,5,12.5,11.3h4.5c3.8,0,6.9,3.1,6.9,6.9c0,3.9-1.6,7.6-4.2,10.2
			l2.3,6.2c3.8,10.2,2.9,20.3-2.4,27.9c-5.3,7.7-14.3,11.9-25.3,11.9H122.8z"/>
		<path class="st0" d="M139.8,306.9c4.2,0,7.5,3.4,7.5,7.5c0,0.6-0.1,1.2-0.2,1.7c0.9,0.6,1.7,1.3,2.2,2h7.4c1,0,1.9,0.8,1.9,1.9
			c0,3.6-2.1,6.9-5.2,8.4l3.6,9.7c6.6,17.9-3.5,33.1-23,33.1h-11.2c-15.9,0-24.5-16.5-24.5-32.1v-2.9c0-3.6,2.9-6.6,6.6-6.6
			c2.5,0,4.8,1.4,5.8,3.6l1.4,2.9c0.3,0.6,1,1,1.7,1h1l0,0c0.1,0,0.2,0,0.4,0h15.1c0.2,0,0.5,0,0.7-0.2c0.5-0.2,0.8-0.5,1-0.9
			c0.1-0.3,0.2-0.5,0.2-0.8v-1.7l0,0v-8c-1.4,0-2.7-0.4-3.8-1.1c-2.2-1.3-3.7-3.7-3.7-6.5c0-2.8,1.5-5.2,3.7-6.5
			c1.1-0.7,2.5-1,3.8-1c0.3,0,0.7,0,1,0.1C134.5,308.4,137,306.9,139.8,306.9 M139.8,296.9c-4.2,0-8.2,1.5-11.4,4.2
			c-1.8,0.4-3.5,1.1-5.1,2c0,0,0,0-0.1,0c-5.3,3.2-8.5,8.9-8.5,15.1c0,1.9,0.3,3.8,0.9,5.6c-3-2.5-6.8-4-10.8-4
			c-9.1,0-16.6,7.4-16.6,16.6v2.9c0,10.1,2.9,19.9,8,27.5c6.4,9.4,15.8,14.6,26.5,14.6H134c12.5,0,23.2-5.1,29.4-14
			c6.2-9,7.3-20.8,2.9-32.5l-1.3-3.4c2.3-3.2,3.5-7.1,3.5-11.2c0-6.6-5.3-11.9-11.9-11.9h-0.6C153.6,301.6,147.2,296.9,139.8,296.9
			L139.8,296.9z"/>
	</g>
	<g>
		<path class="st0" d="M257.4,376.3c-9,0-16.9-4.4-22.4-12.4c-4.6-6.7-7.2-15.7-7.2-24.7v-2.9c0-6.4,5.2-11.6,11.6-11.6
			c4.3,0,8.4,2.5,10.3,6.4l0.6,1.2h11.5v-2.6c-0.5-0.2-1-0.5-1.4-0.7c-3.8-2.2-6.1-6.4-6.1-10.8c0-4.4,2.3-8.5,6.1-10.8
			c1.5-0.9,3.2-1.5,4.9-1.7c2.3-2.4,5.6-3.9,9-3.9c6.5,0,11.9,5,12.5,11.3h4.5c3.8,0,6.9,3.1,6.9,6.9c0,3.9-1.6,7.6-4.2,10.2
			l2.3,6.2c3.8,10.2,2.9,20.3-2.4,27.9c-5.3,7.7-14.3,11.9-25.3,11.9H257.4z"/>
		<path class="st0" d="M274.4,306.9c4.2,0,7.5,3.4,7.5,7.5c0,0.6-0.1,1.2-0.2,1.7c0.9,0.6,1.7,1.3,2.2,2h7.4c1,0,1.9,0.8,1.9,1.9
			c0,3.6-2.1,6.9-5.2,8.4l3.6,9.7c6.6,17.9-3.5,33.1-23,33.1h-11.2c-15.9,0-24.5-16.5-24.5-32.1v-2.9c0-3.6,2.9-6.6,6.6-6.6
			c2.5,0,4.8,1.4,5.8,3.6l1.4,2.9c0.3,0.6,1,1,1.7,1h1l0,0c0.1,0,0.2,0,0.4,0H265c0.2,0,0.5,0,0.7-0.2c0.5-0.2,0.8-0.5,1-0.9
			c0.1-0.3,0.2-0.5,0.2-0.8v-1.7l0,0v-8c-1.4,0-2.7-0.4-3.8-1.1c-2.2-1.3-3.7-3.7-3.7-6.5c0-2.8,1.5-5.2,3.7-6.5
			c1.1-0.7,2.5-1,3.8-1c0.3,0,0.7,0,1,0.1C269.2,308.4,271.7,306.9,274.4,306.9 M274.4,296.9c-4.2,0-8.2,1.5-11.4,4.2
			c-1.8,0.4-3.5,1.1-5.1,2c0,0,0,0-0.1,0c-5.3,3.2-8.5,8.9-8.5,15.1c0,1.9,0.3,3.8,0.9,5.6c-3-2.5-6.8-4-10.8-4
			c-9.1,0-16.6,7.4-16.6,16.6v2.9c0,10.1,2.9,19.9,8,27.5c6.4,9.4,15.8,14.6,26.5,14.6h11.2c12.5,0,23.2-5.1,29.4-14
			c6.2-9,7.3-20.8,2.9-32.5l-1.3-3.4c2.3-3.2,3.5-7.1,3.5-11.2c0-6.6-5.3-11.9-11.9-11.9h-0.6C288.3,301.6,281.9,296.9,274.4,296.9
			L274.4,296.9z"/>
	</g>
</g>
<g>
	<g>
		<path class="st1" d="M81.9,45.1l-2.8-7.3c-0.5-1.2,0.4-2.6,1.8-2.6h8.5c1,0,1.9,0.8,1.9,1.9c0,4.3-2.9,8.1-7.1,9.2
			C83.2,46.5,82.3,46,81.9,45.1z"/>
		<path class="st2" d="M72.4,23.9c-2.8,0-5.2,1.5-6.6,3.8c-1.7-0.2-3.4,0.2-4.8,1c-2.2,1.3-3.7,3.7-3.7,6.5c0,2.8,1.5,5.2,3.7,6.5
			c1.1,0.7,2.5,1.1,3.8,1.1c1.7,0,3.7-0.4,3.8-2.2c0.2-4.1,4.6-6.5,8-4.9c0.9,0.5,2,0.1,2.5-0.8c0.6-1.1,0.9-2.2,0.9-3.5
			C80,27.3,76.6,23.9,72.4,23.9z"/>
		<path class="st3" d="M89.6,55.2l-6.9-18.8c-1-2.4-4.6-5-8.4-5c-5.1,0-9.2,4-9.4,9.1v10.2l3.8,1.7c0,0.3-0.1,0.5-0.2,0.8
			c-0.2,0.5-0.6,0.8-1,0.9c-0.2,0.1-4.2,3.9-4.5,3.9H51.2l-3.7-3.8h-1c-0.7,0-1.4-0.4-1.7-1l-1.4-2.9c-1.1-2.2-3.4-3.6-5.8-3.6
			c-3.6,0-6.6,2.9-6.6,6.6v2.9c0,15.5,8.6,32.1,24.5,32.1h11.2C86.1,88.3,96.3,73.1,89.6,55.2z"/>
		<path class="st4" d="M76.2,63.8c0,8.8-6.6,16-15.2,16.9c-0.6,0-1.2,0.1-1.8,0.1h-3.8c-4,0-6.8-4.1-5.2-7.7
			c-3.3-0.9-5.1-4.5-3.8-7.5c-6.4-1.8-5.1-11.1,1.5-11.1H63c0.2,0,0.5,0,0.7-0.2c0.5-0.2,0.8-0.5,1-0.9c0.1-0.3,0.2-0.5,0.2-0.8
			v-1.8c3.3-0.1,6.6,1.5,8.7,4.1h0C76.2,57.8,76.2,60.3,76.2,63.8z"/>
		<path class="st5" d="M76.2,40.9c0,1.1-0.8,1.9-1.9,1.9c-1.1,0-1.9-0.8-1.9-1.9c0-1.1,0.8-1.9,1.9-1.9C75.4,39,76.2,39.8,76.2,40.9
			z"/>
	</g>
	<g>
		<path class="st1" d="M351.3,45.1l-2.8-7.3c-0.5-1.2,0.4-2.6,1.8-2.6h8.5c1,0,1.9,0.8,1.9,1.9c0,4.3-2.9,8.1-7.1,9.2
			C352.6,46.5,351.6,46,351.3,45.1z"/>
		<path class="st2" d="M341.8,23.9c-2.8,0-5.2,1.5-6.6,3.8c-1.7-0.2-3.4,0.2-4.8,1c-2.2,1.3-3.7,3.7-3.7,6.5c0,2.8,1.5,5.2,3.7,6.5
			c1.1,0.7,2.5,1.1,3.8,1.1c1.7,0,3.7-0.4,3.8-2.2c0.2-4.1,4.6-6.5,8-4.9c0.9,0.5,2,0.1,2.5-0.8c0.6-1.1,0.9-2.2,0.9-3.5
			C349.3,27.3,345.9,23.9,341.8,23.9z"/>
		<path class="st3" d="M359,55.2l-6.9-18.8c-1-2.4-4.6-5-8.4-5c-5.1,0-9.2,4-9.4,9.1v10.2l3.8,1.7c0,0.3-0.1,0.5-0.2,0.8
			c-0.2,0.5-0.6,0.8-1,0.9c-0.2,0.1-4.2,3.9-4.5,3.9h-11.8l-3.7-3.8h-1c-0.7,0-1.4-0.4-1.7-1l-1.4-2.9c-1.1-2.2-3.4-3.6-5.8-3.6
			c-3.6,0-6.6,2.9-6.6,6.6v2.9c0,15.5,8.6,32.1,24.5,32.1H336C355.4,88.3,365.6,73.1,359,55.2z"/>
		<path class="st4" d="M345.5,63.8c0,8.8-6.6,16-15.2,16.9c-0.6,0-1.2,0.1-1.8,0.1h-3.8c-4,0-6.8-4.1-5.2-7.7
			c-3.3-0.9-5.1-4.5-3.8-7.5c-6.4-1.8-5.1-11.1,1.5-11.1h15.1c0.2,0,0.5,0,0.7-0.2c0.5-0.2,0.8-0.5,1-0.9c0.1-0.3,0.2-0.5,0.2-0.8
			v-1.8c3.3-0.1,6.6,1.5,8.7,4.1h0C345.5,57.8,345.5,60.3,345.5,63.8z"/>
		<path class="st5" d="M345.5,40.9c0,1.1-0.8,1.9-1.9,1.9s-1.9-0.8-1.9-1.9c0-1.1,0.8-1.9,1.9-1.9S345.5,39.8,345.5,40.9z"/>
	</g>
	<g>
		<path class="st1" d="M216.6,45.1l-2.8-7.3c-0.5-1.2,0.4-2.6,1.8-2.6h8.5c1,0,1.9,0.8,1.9,1.9c0,4.3-2.9,8.1-7.1,9.2
			C217.9,46.5,217,46,216.6,45.1z"/>
		<path class="st2" d="M207.1,23.9c-2.8,0-5.2,1.5-6.6,3.8c-1.7-0.2-3.4,0.2-4.8,1c-2.2,1.3-3.7,3.7-3.7,6.5c0,2.8,1.5,5.2,3.7,6.5
			c1.1,0.7,2.5,1.1,3.8,1.1c1.7,0,3.7-0.4,3.8-2.2c0.2-4.1,4.6-6.5,8-4.9c0.9,0.5,2,0.1,2.5-0.8c0.6-1.1,0.9-2.2,0.9-3.5
			C214.6,27.3,211.2,23.9,207.1,23.9z"/>
		<path class="st6" d="M224.3,55.2l-6.9-18.8c-1-2.4-4.6-5-8.4-5c-5.1,0-9.2,4-9.4,9.1v10.2l3.8,1.7c0,0.3-0.1,0.5-0.2,0.8
			c-0.2,0.5-0.6,0.8-1,0.9c-0.2,0.1-4.2,3.9-4.5,3.9h-11.8l-3.7-3.8h-1c-0.7,0-1.4-0.4-1.7-1l-1.4-2.9c-1.1-2.2-3.4-3.6-5.8-3.6
			c-3.6,0-6.6,2.9-6.6,6.6v2.9c0,15.5,8.6,32.1,24.5,32.1h11.2C220.8,88.3,230.9,73.1,224.3,55.2z"/>
		<path class="st7" d="M210.9,63.8c0,8.8-6.6,16-15.2,16.9c-0.6,0-1.2,0.1-1.8,0.1h-3.8c-4,0-6.8-4.1-5.2-7.7
			c-3.3-0.9-5.1-4.5-3.8-7.5c-6.4-1.8-5.1-11.1,1.5-11.1h15.1c0.2,0,0.5,0,0.7-0.2c0.5-0.2,0.8-0.5,1-0.9c0.1-0.3,0.2-0.5,0.2-0.8
			v-1.8c3.3-0.1,6.6,1.5,8.7,4.1h0C210.8,57.8,210.9,60.3,210.9,63.8z"/>
		<path class="st5" d="M210.9,40.9c0,1.1-0.8,1.9-1.9,1.9s-1.9-0.8-1.9-1.9c0-1.1,0.8-1.9,1.9-1.9S210.9,39.8,210.9,40.9z"/>
	</g>
	<g>
		<path class="st1" d="M149.3,77.3l-2.8-7.3c-0.5-1.2,0.4-2.6,1.8-2.6h8.5c1,0,1.9,0.8,1.9,1.9c0,4.3-2.9,8.1-7.1,9.2
			C150.6,78.7,149.6,78.2,149.3,77.3z"/>
		<path class="st2" d="M139.8,56.1c-2.8,0-5.2,1.5-6.6,3.8c-1.7-0.2-3.4,0.2-4.8,1c-2.2,1.3-3.7,3.7-3.7,6.5c0,2.8,1.5,5.2,3.7,6.5
			c1.1,0.7,2.5,1.1,3.8,1.1c1.7,0,3.7-0.4,3.8-2.2c0.2-4.1,4.6-6.5,8-4.9c0.9,0.5,2,0.1,2.5-0.8c0.6-1.1,0.9-2.2,0.9-3.5
			C147.3,59.5,143.9,56.1,139.8,56.1z"/>
		<path class="st8" d="M157,87.4l-6.9-18.8c-1-2.4-4.6-5-8.4-5c-5.1,0-9.2,4-9.4,9.1V83l3.8,1.7c0,0.3-0.1,0.5-0.2,0.8
			c-0.2,0.5-0.6,0.8-1,0.9c-0.2,0.1-4.2,3.9-4.5,3.9h-11.8l-3.7-3.8h-1c-0.7,0-1.4-0.4-1.7-1l-1.4-2.9c-1.1-2.2-3.4-3.6-5.8-3.6
			c-3.6,0-6.6,2.9-6.6,6.6v2.9c0,15.5,8.6,32.1,24.5,32.1H134C153.4,120.5,163.6,105.3,157,87.4z"/>
		<path class="st9" d="M143.5,96c0,8.8-6.6,16-15.2,16.9c-0.6,0-1.2,0.1-1.8,0.1h-3.8c-4,0-6.8-4.1-5.2-7.7
			c-3.3-0.9-5.1-4.5-3.8-7.5c-6.4-1.8-5.1-11.1,1.5-11.1h15.1c0.2,0,0.5,0,0.7-0.2c0.5-0.2,0.8-0.5,1-0.9c0.1-0.3,0.2-0.5,0.2-0.8
			v-1.8c3.3-0.1,6.6,1.5,8.7,4.1h0C143.5,90,143.5,92.5,143.5,96z"/>
		<path class="st0" d="M143.5,73.1c0,1.1-0.8,1.9-1.9,1.9s-1.9-0.8-1.9-1.9s0.8-1.9,1.9-1.9S143.5,72,143.5,73.1z"/>
	</g>
	<g>
		<path class="st1" d="M283.9,77.3l-2.8-7.3c-0.5-1.2,0.4-2.6,1.8-2.6h8.5c1,0,1.9,0.8,1.9,1.9c0,4.3-2.9,8.1-7.1,9.2
			C285.2,78.7,284.3,78.2,283.9,77.3z"/>
		<path class="st2" d="M274.4,56.1c-2.8,0-5.2,1.5-6.6,3.8c-1.7-0.2-3.4,0.2-4.8,1c-2.2,1.3-3.7,3.7-3.7,6.5c0,2.8,1.5,5.2,3.7,6.5
			c1.1,0.7,2.5,1.1,3.8,1.1c1.7,0,3.7-0.4,3.8-2.2c0.2-4.1,4.6-6.5,8-4.9c0.9,0.5,2,0.1,2.5-0.8c0.6-1.1,0.9-2.2,0.9-3.5
			C282,59.5,278.6,56.1,274.4,56.1z"/>
		<path class="st8" d="M291.6,87.4l-6.9-18.8c-1-2.4-4.6-5-8.4-5c-5.1,0-9.2,4-9.4,9.1V83l3.8,1.7c0,0.3-0.1,0.5-0.2,0.8
			c-0.2,0.5-0.6,0.8-1,0.9c-0.2,0.1-4.2,3.9-4.5,3.9h-11.8l-3.7-3.8h-1c-0.7,0-1.4-0.4-1.7-1l-1.4-2.9c-1.1-2.2-3.4-3.6-5.8-3.6
			c-3.6,0-6.6,2.9-6.6,6.6v2.9c0,15.5,8.6,32.1,24.5,32.1h11.2C288.1,120.5,298.3,105.3,291.6,87.4z"/>
		<path class="st9" d="M278.2,96c0,8.8-6.6,16-15.2,16.9c-0.6,0-1.2,0.1-1.8,0.1h-3.8c-4,0-6.8-4.1-5.2-7.7
			c-3.3-0.9-5.1-4.5-3.8-7.5c-6.4-1.8-5.1-11.1,1.5-11.1H265c0.2,0,0.5,0,0.7-0.2c0.5-0.2,0.8-0.5,1-0.9c0.1-0.3,0.2-0.5,0.2-0.8
			v-1.8c3.3-0.1,6.6,1.5,8.7,4.1h0C278.2,90,278.2,92.5,278.2,96z"/>
		<path class="st0" d="M278.2,73.1c0,1.1-0.8,1.9-1.9,1.9s-1.9-0.8-1.9-1.9s0.8-1.9,1.9-1.9S278.2,72,278.2,73.1z"/>
	</g>
	<g>
		<path class="st1" d="M81.9,128.7l-2.8-7.3c-0.5-1.2,0.4-2.6,1.8-2.6h8.5c1,0,1.9,0.8,1.9,1.9c0,4.3-2.9,8.1-7.1,9.2
			C83.2,130.1,82.3,129.6,81.9,128.7z"/>
		<path class="st2" d="M72.4,107.5c-2.8,0-5.2,1.5-6.6,3.8c-1.7-0.2-3.4,0.2-4.8,1c-2.2,1.3-3.7,3.7-3.7,6.5c0,2.8,1.5,5.2,3.7,6.5
			c1.1,0.7,2.5,1.1,3.8,1.1c1.7,0,3.7-0.4,3.8-2.2c0.2-4.1,4.6-6.5,8-4.9c0.9,0.5,2,0.1,2.5-0.8c0.6-1.1,0.9-2.2,0.9-3.5
			C80,110.9,76.6,107.5,72.4,107.5z"/>
		<path class="st3" d="M89.6,138.8L82.7,120c-1-2.4-4.6-5-8.4-5c-5.1,0-9.2,4-9.4,9.1v10.2l3.8,1.7c0,0.3-0.1,0.5-0.2,0.8
			c-0.2,0.5-0.6,0.8-1,0.9c-0.2,0.1-4.2,3.9-4.5,3.9H51.2l-3.7-3.8h-1c-0.7,0-1.4-0.4-1.7-1l-1.4-2.9c-1.1-2.2-3.4-3.6-5.8-3.6
			c-3.6,0-6.6,2.9-6.6,6.6v2.9c0,15.5,8.6,32.1,24.5,32.1h11.2C86.1,171.9,96.3,156.7,89.6,138.8z"/>
		<path class="st4" d="M76.2,147.4c0,8.8-6.6,16-15.2,16.9c-0.6,0-1.2,0.1-1.8,0.1h-3.8c-4,0-6.8-4.1-5.2-7.7
			c-3.3-0.9-5.1-4.5-3.8-7.5c-6.4-1.8-5.1-11.1,1.5-11.1H63c0.2,0,0.5,0,0.7-0.2c0.5-0.2,0.8-0.5,1-0.9c0.1-0.3,0.2-0.5,0.2-0.8
			v-1.8c3.3-0.1,6.6,1.5,8.7,4.1h0C76.2,141.4,76.2,143.9,76.2,147.4z"/>
		<path class="st5" d="M76.2,124.5c0,1.1-0.8,1.9-1.9,1.9c-1.1,0-1.9-0.8-1.9-1.9s0.8-1.9,1.9-1.9C75.4,122.6,76.2,123.4,76.2,124.5
			z"/>
	</g>
	<g>
		<path class="st1" d="M351.3,128.7l-2.8-7.3c-0.5-1.2,0.4-2.6,1.8-2.6h8.5c1,0,1.9,0.8,1.9,1.9c0,4.3-2.9,8.1-7.1,9.2
			C352.6,130.1,351.6,129.6,351.3,128.7z"/>
		<path class="st2" d="M341.8,107.5c-2.8,0-5.2,1.5-6.6,3.8c-1.7-0.2-3.4,0.2-4.8,1c-2.2,1.3-3.7,3.7-3.7,6.5c0,2.8,1.5,5.2,3.7,6.5
			c1.1,0.7,2.5,1.1,3.8,1.1c1.7,0,3.7-0.4,3.8-2.2c0.2-4.1,4.6-6.5,8-4.9c0.9,0.5,2,0.1,2.5-0.8c0.6-1.1,0.9-2.2,0.9-3.5
			C349.3,110.9,345.9,107.5,341.8,107.5z"/>
		<path class="st3" d="M359,138.8l-6.9-18.8c-1-2.4-4.6-5-8.4-5c-5.1,0-9.2,4-9.4,9.1v10.2l3.8,1.7c0,0.3-0.1,0.5-0.2,0.8
			c-0.2,0.5-0.6,0.8-1,0.9c-0.2,0.1-4.2,3.9-4.5,3.9h-11.8l-3.7-3.8h-1c-0.7,0-1.4-0.4-1.7-1l-1.4-2.9c-1.1-2.2-3.4-3.6-5.8-3.6
			c-3.6,0-6.6,2.9-6.6,6.6v2.9c0,15.5,8.6,32.1,24.5,32.1H336C355.4,171.9,365.6,156.7,359,138.8z"/>
		<path class="st4" d="M345.5,147.4c0,8.8-6.6,16-15.2,16.9c-0.6,0-1.2,0.1-1.8,0.1h-3.8c-4,0-6.8-4.1-5.2-7.7
			c-3.3-0.9-5.1-4.5-3.8-7.5c-6.4-1.8-5.1-11.1,1.5-11.1h15.1c0.2,0,0.5,0,0.7-0.2c0.5-0.2,0.8-0.5,1-0.9c0.1-0.3,0.2-0.5,0.2-0.8
			v-1.8c3.3-0.1,6.6,1.5,8.7,4.1h0C345.5,141.4,345.5,143.9,345.5,147.4z"/>
		<path class="st5" d="M345.5,124.5c0,1.1-0.8,1.9-1.9,1.9s-1.9-0.8-1.9-1.9s0.8-1.9,1.9-1.9S345.5,123.4,345.5,124.5z"/>
	</g>
	<g>
		<path class="st1" d="M216.6,128.7l-2.8-7.3c-0.5-1.2,0.4-2.6,1.8-2.6h8.5c1,0,1.9,0.8,1.9,1.9c0,4.3-2.9,8.1-7.1,9.2
			C217.9,130.1,217,129.6,216.6,128.7z"/>
		<path class="st2" d="M207.1,107.5c-2.8,0-5.2,1.5-6.6,3.8c-1.7-0.2-3.4,0.2-4.8,1c-2.2,1.3-3.7,3.7-3.7,6.5c0,2.8,1.5,5.2,3.7,6.5
			c1.1,0.7,2.5,1.1,3.8,1.1c1.7,0,3.7-0.4,3.8-2.2c0.2-4.1,4.6-6.5,8-4.9c0.9,0.5,2,0.1,2.5-0.8c0.6-1.1,0.9-2.2,0.9-3.5
			C214.6,110.9,211.2,107.5,207.1,107.5z"/>
		<path class="st6" d="M224.3,138.8l-6.9-18.8c-1-2.4-4.6-5-8.4-5c-5.1,0-9.2,4-9.4,9.1v10.2l3.8,1.7c0,0.3-0.1,0.5-0.2,0.8
			c-0.2,0.5-0.6,0.8-1,0.9c-0.2,0.1-4.2,3.9-4.5,3.9h-11.8l-3.7-3.8h-1c-0.7,0-1.4-0.4-1.7-1L178,134c-1.1-2.2-3.4-3.6-5.8-3.6
			c-3.6,0-6.6,2.9-6.6,6.6v2.9c0,15.5,8.6,32.1,24.5,32.1h11.2C220.8,171.9,230.9,156.7,224.3,138.8z"/>
		<path class="st7" d="M210.9,147.4c0,8.8-6.6,16-15.2,16.9c-0.6,0-1.2,0.1-1.8,0.1h-3.8c-4,0-6.8-4.1-5.2-7.7
			c-3.3-0.9-5.1-4.5-3.8-7.5c-6.4-1.8-5.1-11.1,1.5-11.1h15.1c0.2,0,0.5,0,0.7-0.2c0.5-0.2,0.8-0.5,1-0.9c0.1-0.3,0.2-0.5,0.2-0.8
			v-1.8c3.3-0.1,6.6,1.5,8.7,4.1h0C210.8,141.4,210.9,143.9,210.9,147.4z"/>
		<path class="st5" d="M210.9,124.5c0,1.1-0.8,1.9-1.9,1.9s-1.9-0.8-1.9-1.9s0.8-1.9,1.9-1.9S210.9,123.4,210.9,124.5z"/>
	</g>
	<g>
		<path class="st1" d="M149.3,160.9l-2.8-7.3c-0.5-1.2,0.4-2.6,1.8-2.6h8.5c1,0,1.9,0.8,1.9,1.9c0,4.3-2.9,8.1-7.1,9.2
			C150.6,162.3,149.6,161.8,149.3,160.9z"/>
		<path class="st2" d="M139.8,139.7c-2.8,0-5.2,1.5-6.6,3.8c-1.7-0.2-3.4,0.2-4.8,1c-2.2,1.3-3.7,3.7-3.7,6.5c0,2.8,1.5,5.2,3.7,6.5
			c1.1,0.7,2.5,1.1,3.8,1.1c1.7,0,3.7-0.4,3.8-2.2c0.2-4.1,4.6-6.5,8-4.9c0.9,0.5,2,0.1,2.5-0.8c0.6-1.1,0.9-2.2,0.9-3.5
			C147.3,143.1,143.9,139.7,139.8,139.7z"/>
		<path class="st8" d="M157,171l-6.9-18.8c-1-2.4-4.6-5-8.4-5c-5.1,0-9.2,4-9.4,9.1v10.2l3.8,1.7c0,0.3-0.1,0.5-0.2,0.8
			c-0.2,0.5-0.6,0.8-1,0.9c-0.2,0.1-4.2,3.9-4.5,3.9h-11.8l-3.7-3.8h-1c-0.7,0-1.4-0.4-1.7-1l-1.4-2.9c-1.1-2.2-3.4-3.6-5.8-3.6
			c-3.6,0-6.6,2.9-6.6,6.6v2.9c0,15.5,8.6,32.1,24.5,32.1H134C153.4,204.1,163.6,188.9,157,171z"/>
		<path class="st9" d="M143.5,179.6c0,8.8-6.6,16-15.2,16.9c-0.6,0-1.2,0.1-1.8,0.1h-3.8c-4,0-6.8-4.1-5.2-7.7
			c-3.3-0.9-5.1-4.5-3.8-7.5c-6.4-1.8-5.1-11.1,1.5-11.1h15.1c0.2,0,0.5,0,0.7-0.2c0.5-0.2,0.8-0.5,1-0.9c0.1-0.3,0.2-0.5,0.2-0.8
			v-1.8c3.3-0.1,6.6,1.5,8.7,4.1h0C143.5,173.6,143.5,176.1,143.5,179.6z"/>
		<path class="st0" d="M143.5,156.7c0,1.1-0.8,1.9-1.9,1.9s-1.9-0.8-1.9-1.9s0.8-1.9,1.9-1.9S143.5,155.6,143.5,156.7z"/>
	</g>
	<g>
		<path class="st1" d="M283.9,160.9l-2.8-7.3c-0.5-1.2,0.4-2.6,1.8-2.6h8.5c1,0,1.9,0.8,1.9,1.9c0,4.3-2.9,8.1-7.1,9.2
			C285.2,162.3,284.3,161.8,283.9,160.9z"/>
		<path class="st2" d="M274.4,139.7c-2.8,0-5.2,1.5-6.6,3.8c-1.7-0.2-3.4,0.2-4.8,1c-2.2,1.3-3.7,3.7-3.7,6.5c0,2.8,1.5,5.2,3.7,6.5
			c1.1,0.7,2.5,1.1,3.8,1.1c1.7,0,3.7-0.4,3.8-2.2c0.2-4.1,4.6-6.5,8-4.9c0.9,0.5,2,0.1,2.5-0.8c0.6-1.1,0.9-2.2,0.9-3.5
			C282,143.1,278.6,139.7,274.4,139.7z"/>
		<path class="st8" d="M291.6,171l-6.9-18.8c-1-2.4-4.6-5-8.4-5c-5.1,0-9.2,4-9.4,9.1v10.2l3.8,1.7c0,0.3-0.1,0.5-0.2,0.8
			c-0.2,0.5-0.6,0.8-1,0.9c-0.2,0.1-4.2,3.9-4.5,3.9h-11.8l-3.7-3.8h-1c-0.7,0-1.4-0.4-1.7-1l-1.4-2.9c-1.1-2.2-3.4-3.6-5.8-3.6
			c-3.6,0-6.6,2.9-6.6,6.6v2.9c0,15.5,8.6,32.1,24.5,32.1h11.2C288.1,204.1,298.3,188.9,291.6,171z"/>
		<path class="st9" d="M278.2,179.6c0,8.8-6.6,16-15.2,16.9c-0.6,0-1.2,0.1-1.8,0.1h-3.8c-4,0-6.8-4.1-5.2-7.7
			c-3.3-0.9-5.1-4.5-3.8-7.5c-6.4-1.8-5.1-11.1,1.5-11.1H265c0.2,0,0.5,0,0.7-0.2c0.5-0.2,0.8-0.5,1-0.9c0.1-0.3,0.2-0.5,0.2-0.8
			v-1.8c3.3-0.1,6.6,1.5,8.7,4.1h0C278.2,173.6,278.2,176.1,278.2,179.6z"/>
		<path class="st0" d="M278.2,156.7c0,1.1-0.8,1.9-1.9,1.9s-1.9-0.8-1.9-1.9s0.8-1.9,1.9-1.9S278.2,155.6,278.2,156.7z"/>
	</g>
	<g>
		<path class="st1" d="M81.9,212.3l-2.8-7.3c-0.5-1.2,0.4-2.6,1.8-2.6h8.5c1,0,1.9,0.8,1.9,1.9c0,4.3-2.9,8.1-7.1,9.2
			C83.2,213.7,82.3,213.2,81.9,212.3z"/>
		<path class="st2" d="M72.4,191.1c-2.8,0-5.2,1.5-6.6,3.8c-1.7-0.2-3.4,0.2-4.8,1c-2.2,1.3-3.7,3.7-3.7,6.5c0,2.8,1.5,5.2,3.7,6.5
			c1.1,0.7,2.5,1.1,3.8,1.1c1.7,0,3.7-0.4,3.8-2.2c0.2-4.1,4.6-6.5,8-4.9c0.9,0.5,2,0.1,2.5-0.8c0.6-1.1,0.9-2.2,0.9-3.5
			C80,194.5,76.6,191.1,72.4,191.1z"/>
		<path class="st3" d="M89.6,222.4l-6.9-18.8c-1-2.4-4.6-5-8.4-5c-5.1,0-9.2,4-9.4,9.1V218l3.8,1.7c0,0.3-0.1,0.5-0.2,0.8
			c-0.2,0.5-0.6,0.8-1,0.9c-0.2,0.1-4.2,3.9-4.5,3.9H51.2l-3.7-3.8h-1c-0.7,0-1.4-0.4-1.7-1l-1.4-2.9c-1.1-2.2-3.4-3.6-5.8-3.6
			c-3.6,0-6.6,2.9-6.6,6.6v2.9c0,15.5,8.6,32.1,24.5,32.1h11.2C86.1,255.5,96.3,240.3,89.6,222.4z"/>
		<path class="st4" d="M76.2,231c0,8.8-6.6,16-15.2,16.9c-0.6,0-1.2,0.1-1.8,0.1h-3.8c-4,0-6.8-4.1-5.2-7.7
			c-3.3-0.9-5.1-4.5-3.8-7.5c-6.4-1.8-5.1-11.1,1.5-11.1H63c0.2,0,0.5,0,0.7-0.2c0.5-0.2,0.8-0.5,1-0.9c0.1-0.3,0.2-0.5,0.2-0.8
			v-1.8c3.3-0.1,6.6,1.5,8.7,4.1h0C76.2,225,76.2,227.5,76.2,231z"/>
		<path class="st5" d="M76.2,208.1c0,1.1-0.8,1.9-1.9,1.9c-1.1,0-1.9-0.8-1.9-1.9s0.8-1.9,1.9-1.9C75.4,206.2,76.2,207,76.2,208.1z"
			/>
	</g>
	<g>
		<path class="st1" d="M351.3,212.3l-2.8-7.3c-0.5-1.2,0.4-2.6,1.8-2.6h8.5c1,0,1.9,0.8,1.9,1.9c0,4.3-2.9,8.1-7.1,9.2
			C352.6,213.7,351.6,213.2,351.3,212.3z"/>
		<path class="st2" d="M341.8,191.1c-2.8,0-5.2,1.5-6.6,3.8c-1.7-0.2-3.4,0.2-4.8,1c-2.2,1.3-3.7,3.7-3.7,6.5c0,2.8,1.5,5.2,3.7,6.5
			c1.1,0.7,2.5,1.1,3.8,1.1c1.7,0,3.7-0.4,3.8-2.2c0.2-4.1,4.6-6.5,8-4.9c0.9,0.5,2,0.1,2.5-0.8c0.6-1.1,0.9-2.2,0.9-3.5
			C349.3,194.5,345.9,191.1,341.8,191.1z"/>
		<path class="st3" d="M359,222.4l-6.9-18.8c-1-2.4-4.6-5-8.4-5c-5.1,0-9.2,4-9.4,9.1V218l3.8,1.7c0,0.3-0.1,0.5-0.2,0.8
			c-0.2,0.5-0.6,0.8-1,0.9c-0.2,0.1-4.2,3.9-4.5,3.9h-11.8l-3.7-3.8h-1c-0.7,0-1.4-0.4-1.7-1l-1.4-2.9c-1.1-2.2-3.4-3.6-5.8-3.6
			c-3.6,0-6.6,2.9-6.6,6.6v2.9c0,15.5,8.6,32.1,24.5,32.1H336C355.4,255.5,365.6,240.3,359,222.4z"/>
		<path class="st4" d="M345.5,231c0,8.8-6.6,16-15.2,16.9c-0.6,0-1.2,0.1-1.8,0.1h-3.8c-4,0-6.8-4.1-5.2-7.7
			c-3.3-0.9-5.1-4.5-3.8-7.5c-6.4-1.8-5.1-11.1,1.5-11.1h15.1c0.2,0,0.5,0,0.7-0.2c0.5-0.2,0.8-0.5,1-0.9c0.1-0.3,0.2-0.5,0.2-0.8
			v-1.8c3.3-0.1,6.6,1.5,8.7,4.1h0C345.5,225,345.5,227.5,345.5,231z"/>
		<path class="st5" d="M345.5,208.1c0,1.1-0.8,1.9-1.9,1.9s-1.9-0.8-1.9-1.9s0.8-1.9,1.9-1.9S345.5,207,345.5,208.1z"/>
	</g>
	<g>
		<path class="st1" d="M216.6,212.3l-2.8-7.3c-0.5-1.2,0.4-2.6,1.8-2.6h8.5c1,0,1.9,0.8,1.9,1.9c0,4.3-2.9,8.1-7.1,9.2
			C217.9,213.7,217,213.2,216.6,212.3z"/>
		<path class="st2" d="M207.1,191.1c-2.8,0-5.2,1.5-6.6,3.8c-1.7-0.2-3.4,0.2-4.8,1c-2.2,1.3-3.7,3.7-3.7,6.5c0,2.8,1.5,5.2,3.7,6.5
			c1.1,0.7,2.5,1.1,3.8,1.1c1.7,0,3.7-0.4,3.8-2.2c0.2-4.1,4.6-6.5,8-4.9c0.9,0.5,2,0.1,2.5-0.8c0.6-1.1,0.9-2.2,0.9-3.5
			C214.6,194.5,211.2,191.1,207.1,191.1z"/>
		<path class="st6" d="M224.3,222.4l-6.9-18.8c-1-2.4-4.6-5-8.4-5c-5.1,0-9.2,4-9.4,9.1V218l3.8,1.7c0,0.3-0.1,0.5-0.2,0.8
			c-0.2,0.5-0.6,0.8-1,0.9c-0.2,0.1-4.2,3.9-4.5,3.9h-11.8l-3.7-3.8h-1c-0.7,0-1.4-0.4-1.7-1l-1.4-2.9c-1.1-2.2-3.4-3.6-5.8-3.6
			c-3.6,0-6.6,2.9-6.6,6.6v2.9c0,15.5,8.6,32.1,24.5,32.1h11.2C220.8,255.5,230.9,240.3,224.3,222.4z"/>
		<path class="st7" d="M210.9,231c0,8.8-6.6,16-15.2,16.9c-0.6,0-1.2,0.1-1.8,0.1h-3.8c-4,0-6.8-4.1-5.2-7.7
			c-3.3-0.9-5.1-4.5-3.8-7.5c-6.4-1.8-5.1-11.1,1.5-11.1h15.1c0.2,0,0.5,0,0.7-0.2c0.5-0.2,0.8-0.5,1-0.9c0.1-0.3,0.2-0.5,0.2-0.8
			v-1.8c3.3-0.1,6.6,1.5,8.7,4.1h0C210.8,225,210.9,227.5,210.9,231z"/>
		<path class="st5" d="M210.9,208.1c0,1.1-0.8,1.9-1.9,1.9s-1.9-0.8-1.9-1.9s0.8-1.9,1.9-1.9S210.9,207,210.9,208.1z"/>
	</g>
	<g>
		<path class="st1" d="M149.3,244.5l-2.8-7.3c-0.5-1.2,0.4-2.6,1.8-2.6h8.5c1,0,1.9,0.8,1.9,1.9c0,4.3-2.9,8.1-7.1,9.2
			C150.6,245.9,149.6,245.4,149.3,244.5z"/>
		<path class="st2" d="M139.8,223.3c-2.8,0-5.2,1.5-6.6,3.8c-1.7-0.2-3.4,0.2-4.8,1c-2.2,1.3-3.7,3.7-3.7,6.5c0,2.8,1.5,5.2,3.7,6.5
			c1.1,0.7,2.5,1.1,3.8,1.1c1.7,0,3.7-0.4,3.8-2.2c0.2-4.1,4.6-6.5,8-4.9c0.9,0.5,2,0.1,2.5-0.8c0.6-1.1,0.9-2.2,0.9-3.5
			C147.3,226.7,143.9,223.3,139.8,223.3z"/>
		<path class="st8" d="M157,254.6l-6.9-18.8c-1-2.4-4.6-5-8.4-5c-5.1,0-9.2,4-9.4,9.1v10.2l3.8,1.7c0,0.3-0.1,0.5-0.2,0.8
			c-0.2,0.5-0.6,0.8-1,0.9c-0.2,0.1-4.2,3.9-4.5,3.9h-11.8l-3.7-3.8h-1c-0.7,0-1.4-0.4-1.7-1l-1.4-2.9c-1.1-2.2-3.4-3.6-5.8-3.6
			c-3.6,0-6.6,2.9-6.6,6.6v2.9c0,15.5,8.6,32.1,24.5,32.1H134C153.4,287.7,163.6,272.5,157,254.6z"/>
		<path class="st9" d="M143.5,263.2c0,8.8-6.6,16-15.2,16.9c-0.6,0-1.2,0.1-1.8,0.1h-3.8c-4,0-6.8-4.1-5.2-7.7
			c-3.3-0.9-5.1-4.5-3.8-7.5c-6.4-1.8-5.1-11.1,1.5-11.1h15.1c0.2,0,0.5,0,0.7-0.2c0.5-0.2,0.8-0.5,1-0.9c0.1-0.3,0.2-0.5,0.2-0.8
			V250c3.3-0.1,6.6,1.5,8.7,4.1h0C143.5,257.2,143.5,259.7,143.5,263.2z"/>
		<path class="st0" d="M143.5,240.3c0,1.1-0.8,1.9-1.9,1.9s-1.9-0.8-1.9-1.9s0.8-1.9,1.9-1.9S143.5,239.2,143.5,240.3z"/>
	</g>
	<g>
		<path class="st1" d="M283.9,244.5l-2.8-7.3c-0.5-1.2,0.4-2.6,1.8-2.6h8.5c1,0,1.9,0.8,1.9,1.9c0,4.3-2.9,8.1-7.1,9.2
			C285.2,245.9,284.3,245.4,283.9,244.5z"/>
		<path class="st2" d="M274.4,223.3c-2.8,0-5.2,1.5-6.6,3.8c-1.7-0.2-3.4,0.2-4.8,1c-2.2,1.3-3.7,3.7-3.7,6.5c0,2.8,1.5,5.2,3.7,6.5
			c1.1,0.7,2.5,1.1,3.8,1.1c1.7,0,3.7-0.4,3.8-2.2c0.2-4.1,4.6-6.5,8-4.9c0.9,0.5,2,0.1,2.5-0.8c0.6-1.1,0.9-2.2,0.9-3.5
			C282,226.7,278.6,223.3,274.4,223.3z"/>
		<path class="st8" d="M291.6,254.6l-6.9-18.8c-1-2.4-4.6-5-8.4-5c-5.1,0-9.2,4-9.4,9.1v10.2l3.8,1.7c0,0.3-0.1,0.5-0.2,0.8
			c-0.2,0.5-0.6,0.8-1,0.9c-0.2,0.1-4.2,3.9-4.5,3.9h-11.8l-3.7-3.8h-1c-0.7,0-1.4-0.4-1.7-1l-1.4-2.9c-1.1-2.2-3.4-3.6-5.8-3.6
			c-3.6,0-6.6,2.9-6.6,6.6v2.9c0,15.5,8.6,32.1,24.5,32.1h11.2C288.1,287.7,298.3,272.5,291.6,254.6z"/>
		<path class="st9" d="M278.2,263.2c0,8.8-6.6,16-15.2,16.9c-0.6,0-1.2,0.1-1.8,0.1h-3.8c-4,0-6.8-4.1-5.2-7.7
			c-3.3-0.9-5.1-4.5-3.8-7.5c-6.4-1.8-5.1-11.1,1.5-11.1H265c0.2,0,0.5,0,0.7-0.2c0.5-0.2,0.8-0.5,1-0.9c0.1-0.3,0.2-0.5,0.2-0.8
			V250c3.3-0.1,6.6,1.5,8.7,4.1h0C278.2,257.2,278.2,259.7,278.2,263.2z"/>
		<path class="st0" d="M278.2,240.3c0,1.1-0.8,1.9-1.9,1.9s-1.9-0.8-1.9-1.9s0.8-1.9,1.9-1.9S278.2,239.2,278.2,240.3z"/>
	</g>
	<g>
		<path class="st1" d="M81.9,295.9l-2.8-7.3c-0.5-1.2,0.4-2.6,1.8-2.6h8.5c1,0,1.9,0.8,1.9,1.9c0,4.3-2.9,8.1-7.1,9.2
			C83.2,297.3,82.3,296.8,81.9,295.9z"/>
		<path class="st2" d="M72.4,274.7c-2.8,0-5.2,1.5-6.6,3.8c-1.7-0.2-3.4,0.2-4.8,1c-2.2,1.3-3.7,3.7-3.7,6.5c0,2.8,1.5,5.2,3.7,6.5
			c1.1,0.7,2.5,1.1,3.8,1.1c1.7,0,3.7-0.4,3.8-2.2c0.2-4.1,4.6-6.5,8-4.9c0.9,0.5,2,0.1,2.5-0.8c0.6-1.1,0.9-2.2,0.9-3.5
			C80,278.1,76.6,274.7,72.4,274.7z"/>
		<path class="st3" d="M89.6,306l-6.9-18.8c-1-2.4-4.6-5-8.4-5c-5.1,0-9.2,4-9.4,9.1v10.2l3.8,1.7c0,0.3-0.1,0.5-0.2,0.8
			c-0.2,0.5-0.6,0.8-1,0.9c-0.2,0.1-4.2,3.9-4.5,3.9H51.2l-3.7-3.8h-1c-0.7,0-1.4-0.4-1.7-1l-1.4-2.9c-1.1-2.2-3.4-3.6-5.8-3.6
			c-3.6,0-6.6,2.9-6.6,6.6v2.9c0,15.5,8.6,32.1,24.5,32.1h11.2C86.1,339.1,96.3,323.9,89.6,306z"/>
		<path class="st4" d="M76.2,314.6c0,8.8-6.6,16-15.2,16.9c-0.6,0-1.2,0.1-1.8,0.1h-3.8c-4,0-6.8-4.1-5.2-7.7
			c-3.3-0.9-5.1-4.5-3.8-7.5c-6.4-1.8-5.1-11.1,1.5-11.1H63c0.2,0,0.5,0,0.7-0.2c0.5-0.2,0.8-0.5,1-0.9c0.1-0.3,0.2-0.5,0.2-0.8
			v-1.8c3.3-0.1,6.6,1.5,8.7,4.1h0C76.2,308.6,76.2,311.1,76.2,314.6z"/>
		<path class="st5" d="M76.2,291.7c0,1.1-0.8,1.9-1.9,1.9c-1.1,0-1.9-0.8-1.9-1.9s0.8-1.9,1.9-1.9C75.4,289.8,76.2,290.6,76.2,291.7
			z"/>
	</g>
	<g>
		<path class="st1" d="M351.3,295.9l-2.8-7.3c-0.5-1.2,0.4-2.6,1.8-2.6h8.5c1,0,1.9,0.8,1.9,1.9c0,4.3-2.9,8.1-7.1,9.2
			C352.6,297.3,351.6,296.8,351.3,295.9z"/>
		<path class="st2" d="M341.8,274.7c-2.8,0-5.2,1.5-6.6,3.8c-1.7-0.2-3.4,0.2-4.8,1c-2.2,1.3-3.7,3.7-3.7,6.5c0,2.8,1.5,5.2,3.7,6.5
			c1.1,0.7,2.5,1.1,3.8,1.1c1.7,0,3.7-0.4,3.8-2.2c0.2-4.1,4.6-6.5,8-4.9c0.9,0.5,2,0.1,2.5-0.8c0.6-1.1,0.9-2.2,0.9-3.5
			C349.3,278.1,345.9,274.7,341.8,274.7z"/>
		<path class="st3" d="M359,306l-6.9-18.8c-1-2.4-4.6-5-8.4-5c-5.1,0-9.2,4-9.4,9.1v10.2l3.8,1.7c0,0.3-0.1,0.5-0.2,0.8
			c-0.2,0.5-0.6,0.8-1,0.9c-0.2,0.1-4.2,3.9-4.5,3.9h-11.8l-3.7-3.8h-1c-0.7,0-1.4-0.4-1.7-1l-1.4-2.9c-1.1-2.2-3.4-3.6-5.8-3.6
			c-3.6,0-6.6,2.9-6.6,6.6v2.9c0,15.5,8.6,32.1,24.5,32.1H336C355.4,339.1,365.6,323.9,359,306z"/>
		<path class="st4" d="M345.5,314.6c0,8.8-6.6,16-15.2,16.9c-0.6,0-1.2,0.1-1.8,0.1h-3.8c-4,0-6.8-4.1-5.2-7.7
			c-3.3-0.9-5.1-4.5-3.8-7.5c-6.4-1.8-5.1-11.1,1.5-11.1h15.1c0.2,0,0.5,0,0.7-0.2c0.5-0.2,0.8-0.5,1-0.9c0.1-0.3,0.2-0.5,0.2-0.8
			v-1.8c3.3-0.1,6.6,1.5,8.7,4.1h0C345.5,308.6,345.5,311.1,345.5,314.6z"/>
		<path class="st5" d="M345.5,291.7c0,1.1-0.8,1.9-1.9,1.9s-1.9-0.8-1.9-1.9s0.8-1.9,1.9-1.9S345.5,290.6,345.5,291.7z"/>
	</g>
	<g>
		<path class="st1" d="M216.6,295.9l-2.8-7.3c-0.5-1.2,0.4-2.6,1.8-2.6h8.5c1,0,1.9,0.8,1.9,1.9c0,4.3-2.9,8.1-7.1,9.2
			C217.9,297.3,217,296.8,216.6,295.9z"/>
		<path class="st2" d="M207.1,274.7c-2.8,0-5.2,1.5-6.6,3.8c-1.7-0.2-3.4,0.2-4.8,1c-2.2,1.3-3.7,3.7-3.7,6.5c0,2.8,1.5,5.2,3.7,6.5
			c1.1,0.7,2.5,1.1,3.8,1.1c1.7,0,3.7-0.4,3.8-2.2c0.2-4.1,4.6-6.5,8-4.9c0.9,0.5,2,0.1,2.5-0.8c0.6-1.1,0.9-2.2,0.9-3.5
			C214.6,278.1,211.2,274.7,207.1,274.7z"/>
		<path class="st6" d="M224.3,306l-6.9-18.8c-1-2.4-4.6-5-8.4-5c-5.1,0-9.2,4-9.4,9.1v10.2l3.8,1.7c0,0.3-0.1,0.5-0.2,0.8
			c-0.2,0.5-0.6,0.8-1,0.9c-0.2,0.1-4.2,3.9-4.5,3.9h-11.8l-3.7-3.8h-1c-0.7,0-1.4-0.4-1.7-1l-1.4-2.9c-1.1-2.2-3.4-3.6-5.8-3.6
			c-3.6,0-6.6,2.9-6.6,6.6v2.9c0,15.5,8.6,32.1,24.5,32.1h11.2C220.8,339.1,230.9,323.9,224.3,306z"/>
		<path class="st7" d="M210.9,314.6c0,8.8-6.6,16-15.2,16.9c-0.6,0-1.2,0.1-1.8,0.1h-3.8c-4,0-6.8-4.1-5.2-7.7
			c-3.3-0.9-5.1-4.5-3.8-7.5c-6.4-1.8-5.1-11.1,1.5-11.1h15.1c0.2,0,0.5,0,0.7-0.2c0.5-0.2,0.8-0.5,1-0.9c0.1-0.3,0.2-0.5,0.2-0.8
			v-1.8c3.3-0.1,6.6,1.5,8.7,4.1h0C210.8,308.6,210.9,311.1,210.9,314.6z"/>
		<path class="st5" d="M210.9,291.7c0,1.1-0.8,1.9-1.9,1.9s-1.9-0.8-1.9-1.9s0.8-1.9,1.9-1.9S210.9,290.6,210.9,291.7z"/>
	</g>
	<g>
		<path class="st1" d="M149.3,328.1l-2.8-7.3c-0.5-1.2,0.4-2.6,1.8-2.6h8.5c1,0,1.9,0.8,1.9,1.9c0,4.3-2.9,8.1-7.1,9.2
			C150.6,329.5,149.6,329,149.3,328.1z"/>
		<path class="st2" d="M139.8,306.9c-2.8,0-5.2,1.5-6.6,3.8c-1.7-0.2-3.4,0.2-4.8,1c-2.2,1.3-3.7,3.7-3.7,6.5c0,2.8,1.5,5.2,3.7,6.5
			c1.1,0.7,2.5,1.1,3.8,1.1c1.7,0,3.7-0.4,3.8-2.2c0.2-4.1,4.6-6.5,8-4.9c0.9,0.5,2,0.1,2.5-0.8c0.6-1.1,0.9-2.2,0.9-3.5
			C147.3,310.3,143.9,306.9,139.8,306.9z"/>
		<path class="st8" d="M157,338.2l-6.9-18.8c-1-2.4-4.6-5-8.4-5c-5.1,0-9.2,4-9.4,9.1v10.2l3.8,1.7c0,0.3-0.1,0.5-0.2,0.8
			c-0.2,0.5-0.6,0.8-1,0.9c-0.2,0.1-4.2,3.9-4.5,3.9h-11.8l-3.7-3.8h-1c-0.7,0-1.4-0.4-1.7-1l-1.4-2.9c-1.1-2.2-3.4-3.6-5.8-3.6
			c-3.6,0-6.6,2.9-6.6,6.6v2.9c0,15.5,8.6,32.1,24.5,32.1H134C153.4,371.3,163.6,356.1,157,338.2z"/>
		<path class="st9" d="M143.5,346.8c0,8.8-6.6,16-15.2,16.9c-0.6,0-1.2,0.1-1.8,0.1h-3.8c-4,0-6.8-4.1-5.2-7.7
			c-3.3-0.9-5.1-4.5-3.8-7.5c-6.4-1.8-5.1-11.1,1.5-11.1h15.1c0.2,0,0.5,0,0.7-0.2c0.5-0.2,0.8-0.5,1-0.9c0.1-0.3,0.2-0.5,0.2-0.8
			v-1.8c3.3-0.1,6.6,1.5,8.7,4.1h0C143.5,340.8,143.5,343.3,143.5,346.8z"/>
		<path class="st0" d="M143.5,323.9c0,1.1-0.8,1.9-1.9,1.9s-1.9-0.8-1.9-1.9s0.8-1.9,1.9-1.9S143.5,322.8,143.5,323.9z"/>
	</g>
	<g>
		<path class="st1" d="M283.9,328.1l-2.8-7.3c-0.5-1.2,0.4-2.6,1.8-2.6h8.5c1,0,1.9,0.8,1.9,1.9c0,4.3-2.9,8.1-7.1,9.2
			C285.2,329.5,284.3,329,283.9,328.1z"/>
		<path class="st2" d="M274.4,306.9c-2.8,0-5.2,1.5-6.6,3.8c-1.7-0.2-3.4,0.2-4.8,1c-2.2,1.3-3.7,3.7-3.7,6.5c0,2.8,1.5,5.2,3.7,6.5
			c1.1,0.7,2.5,1.1,3.8,1.1c1.7,0,3.7-0.4,3.8-2.2c0.2-4.1,4.6-6.5,8-4.9c0.9,0.5,2,0.1,2.5-0.8c0.6-1.1,0.9-2.2,0.9-3.5
			C282,310.3,278.6,306.9,274.4,306.9z"/>
		<path class="st8" d="M291.6,338.2l-6.9-18.8c-1-2.4-4.6-5-8.4-5c-5.1,0-9.2,4-9.4,9.1v10.2l3.8,1.7c0,0.3-0.1,0.5-0.2,0.8
			c-0.2,0.5-0.6,0.8-1,0.9c-0.2,0.1-4.2,3.9-4.5,3.9h-11.8l-3.7-3.8h-1c-0.7,0-1.4-0.4-1.7-1l-1.4-2.9c-1.1-2.2-3.4-3.6-5.8-3.6
			c-3.6,0-6.6,2.9-6.6,6.6v2.9c0,15.5,8.6,32.1,24.5,32.1h11.2C288.1,371.3,298.3,356.1,291.6,338.2z"/>
		<path class="st9" d="M278.2,346.8c0,8.8-6.6,16-15.2,16.9c-0.6,0-1.2,0.1-1.8,0.1h-3.8c-4,0-6.8-4.1-5.2-7.7
			c-3.3-0.9-5.1-4.5-3.8-7.5c-6.4-1.8-5.1-11.1,1.5-11.1H265c0.2,0,0.5,0,0.7-0.2c0.5-0.2,0.8-0.5,1-0.9c0.1-0.3,0.2-0.5,0.2-0.8
			v-1.8c3.3-0.1,6.6,1.5,8.7,4.1h0C278.2,340.8,278.2,343.3,278.2,346.8z"/>
		<path class="st0" d="M278.2,323.9c0,1.1-0.8,1.9-1.9,1.9s-1.9-0.8-1.9-1.9s0.8-1.9,1.9-1.9S278.2,322.8,278.2,323.9z"/>
	</g>
</g>
</svg>
