<?xml version="1.0" encoding="utf-8"?>
<!-- Generator: Adobe Illustrator 22.1.0, SVG Export Plug-In . SVG Version: 6.00 Build 0)  -->
<svg version="1.1" id="Layer_1" xmlns="http://www.w3.org/2000/svg" xmlns:xlink="http://www.w3.org/1999/xlink" x="0px" y="0px"
	 viewBox="0 0 400 400" style="enable-background:new 0 0 400 400;" xml:space="preserve">
<style type="text/css">
	.st0{fill:#FFFFFF;}
	.st1{fill:#FFA754;}
	.st2{fill:#FFCB63;}
	.st3{fill:#85453D;}
	.st4{fill:#B1763C;}
	.st5{fill:#7C5325;}
	.st6{fill:#0A0003;}
	.st7{fill:#633029;}
	.st8{fill:#3C140C;}
	.st9{fill:#4E2E2D;}
</style>
<g>
	<g>
		<path class="st0" d="M102.4,78.6c-1.4,0-2.6-0.4-3.7-1.1c-1,0.7-2.3,1.1-3.6,1.1c-3,0-5.7-1.9-6.7-4.6c-1,2.7-3.5,4.6-6.5,4.6
			c-3.8,0-6.9-3.1-6.9-6.9l0-0.8c-0.4,0.3-0.8,0.6-1.2,0.9c-0.1,3.7-3.1,6.8-6.9,6.8c-3.8,0-6.9-3.1-6.9-6.9V43.4
			c0-3.8,3.1-6.9,6.9-6.9c3.4,0,6.3,2.5,6.8,5.8l9.4-1.6c-2.4-1.1-4.1-3.3-4.7-5.9c-1.5-1.2-2.4-3.1-2.4-5.1c0-3.6,2.9-6.6,6.7-6.8
			c0.2,0,0.3,0,0.5,0h17.4c4.8,0,8.7,3.9,8.7,8.7v6.7c0,0.3,0.1,0.5,0.1,0.8v32.7C109.3,75.5,106.2,78.6,102.4,78.6z"/>
		<path class="st0" d="M100.5,27.8c2.1,0,3.7,1.6,3.7,3.7V39h0.1v32.7c0,1-0.9,1.9-1.9,1.9c-1,0-1.9-0.9-1.9-1.9V61.5h-3.8v10.2
			c0,1-0.5,1.9-1.6,1.9c-1,0-2.1-0.9-2.1-1.9V61.5h-9.2v10.2c0,1-0.9,1.9-1.9,1.9c-1,0-1.9-0.9-1.9-1.9l0-10.2h-5.7
			c0,3.4-2.4,6.3-5.6,7.2v3c0,1-0.9,1.9-1.9,1.9c-1,0-1.9-0.9-1.9-1.9V43.4c0-1,0.9-1.9,1.9-1.9c1,0,1.9,0.9,1.9,1.9v4.8l5.6-0.9
			l11.2-1.9c2-0.4,3.7-2.3,3.7-4.3v-4.4l0.2-0.1h-2.6c-2.1,0-3.7-1.6-3.7-3.7v-1.3c-1.2,0-2.2-0.8-2.2-1.8c0-1,1-1.8,2.2-1.8v0
			H100.5 M100.5,17.8H83.1c-0.3,0-0.6,0-0.9,0c-6.4,0.5-11.3,5.5-11.3,11.8c0,0.9,0.1,1.8,0.3,2.6c-1.3-0.5-2.8-0.8-4.3-0.8
			c-6.6,0-11.9,5.3-11.9,11.9v28.4c0,6.6,5.3,11.9,11.9,11.9c2.8,0,5.4-1,7.5-2.7c2,1.7,4.6,2.7,7.5,2.7c2.4,0,4.7-0.7,6.5-2
			c1.9,1.2,4.2,2,6.7,2c1.3,0,2.5-0.2,3.7-0.6c1.2,0.4,2.4,0.6,3.7,0.6c6.6,0,11.9-5.3,11.9-11.9V39c0-0.4,0-0.7-0.1-1.1v-6.3
			C114.2,24,108,17.8,100.5,17.8L100.5,17.8z"/>
	</g>
	<g>
		<path class="st0" d="M356.3,166.4c-4.2,0-7.7-3.4-7.7-7.7v-1c-2.4-1.4-4.4-3.3-5.7-5.7l0,6.6c0,4.2-3.4,7.7-7.7,7.7
			s-7.7-3.4-7.7-7.7v-9.4h-2.9v9.4c0,4.2-3.7,7.7-8,7.7c-2,0-3.8-0.8-5.1-2.1c-1.4,1.3-3.2,2.1-5.2,2.1c-4.2,0-7.7-3.4-7.7-7.7v-46
			c0-0.3,0-0.6,0.1-0.9v-9.5c0-5.6,4.6-10.2,10.2-10.2h24.5c0.2,0,0.3,0,0.5,0c4.3,0.3,7.6,3.5,7.6,7.6c0,2.5-1.3,4.7-3.2,6
			c-0.7,4.3-4.2,7.8-8.5,8.4v1.4c0,0.4,0.6,1.1,1,1.2l15.7,2.6l2,0.3v-0.8c0-4.2,3.4-7.7,7.7-7.7s7.7,3.4,7.7,7.7v39.9
			C364,163,360.6,166.4,356.3,166.4z"/>
		<path class="st0" d="M333.6,97.1L333.6,97.1c1.7,0,3.1,1.2,3.1,2.6s-1.4,2.5-3.1,2.6v1.8c0,2.9-2.3,5.2-5.2,5.2h-3.6l0.2,0.1v6.2
			c0,2.8,2.3,5.6,5.2,6.1l15.8,2.7l7.8,1.3v-6.7c0-1.5,1.2-2.7,2.7-2.7c1.5,0,2.7,1.2,2.7,2.7v39.9c0,1.5-1.2,2.7-2.7,2.7
			c-1.5,0-2.7-1.2-2.7-2.7v-4.3c-4.5-1.2-7.8-5.3-7.8-10.1h-7.9l0,14.4c0,1.5-1.2,2.7-2.7,2.7c-1.5,0-2.7-1.2-2.7-2.7v-14.4h-12.9
			v14.4c0,1.5-1.5,2.7-3,2.7c-1.5,0-2.2-1.2-2.2-2.7v-14.4h-5.4v14.4c0,1.5-1.2,2.7-2.7,2.7c-1.5,0-2.7-1.2-2.7-2.7v-46h0.1v-10.5
			c0-2.9,2.3-5.2,5.2-5.2H333.6 M333.6,87.1h-24.5c-8.4,0-15.2,6.8-15.2,15.2v9.2c-0.1,0.4-0.1,0.9-0.1,1.3v46
			c0,7,5.7,12.7,12.7,12.7c1.9,0,3.6-0.4,5.2-1.1c1.5,0.7,3.3,1.1,5.1,1.1c3.6,0,7-1.5,9.4-4c2.3,2.4,5.6,4,9.2,4
			c4.4,0,8.2-2.2,10.5-5.6c2.3,3.4,6.1,5.6,10.5,5.6c7,0,12.7-5.7,12.7-12.7v-39.9c0-7-5.7-12.7-12.7-12.7c-5.2,0-9.7,3.2-11.7,7.7
			l-4.2-0.7c1.1-1.4,1.9-3,2.4-4.8c2.3-2.3,3.8-5.4,3.8-8.8c0-6.7-5.3-12-12.2-12.5C334.2,87.1,333.9,87.1,333.6,87.1L333.6,87.1z"
			/>
	</g>
	<g>
		<path class="st0" d="M97.2,166.4c-4.2,0-7.7-3.4-7.7-7.7v-1c-2.4-1.4-4.4-3.3-5.7-5.7l0,6.6c0,4.2-3.4,7.7-7.7,7.7
			c-4.2,0-7.7-3.4-7.7-7.7v-9.4h-2.9v9.4c0,4.2-3.7,7.7-8,7.7c-2,0-3.8-0.8-5.1-2.1c-1.4,1.3-3.2,2.1-5.2,2.1
			c-4.2,0-7.7-3.4-7.7-7.7v-46c0-0.3,0-0.6,0.1-0.9v-9.5c0-5.6,4.6-10.2,10.2-10.2h24.5c0.2,0,0.3,0,0.5,0c4.3,0.3,7.6,3.5,7.6,7.6
			c0,2.5-1.3,4.7-3.2,6c-0.7,4.3-4.2,7.8-8.5,8.4v1.4c0,0.4,0.6,1.1,1,1.2l15.7,2.6l2,0.3v-0.8c0-4.2,3.4-7.7,7.7-7.7
			c4.2,0,7.7,3.4,7.7,7.7v39.9C104.8,163,101.4,166.4,97.2,166.4z"/>
		<path class="st0" d="M74.4,97.1L74.4,97.1c1.7,0,3.1,1.2,3.1,2.6s-1.4,2.5-3.1,2.6v1.8c0,2.9-2.3,5.2-5.2,5.2h-3.6l0.2,0.1v6.2
			c0,2.8,2.3,5.6,5.2,6.1l15.8,2.7l7.8,1.3v-6.7c0-1.5,1.2-2.7,2.7-2.7c1.5,0,2.7,1.2,2.7,2.7v39.9c0,1.5-1.2,2.7-2.7,2.7
			c-1.5,0-2.7-1.2-2.7-2.7v-4.3c-4.5-1.2-7.8-5.3-7.8-10.1h-7.9l0,14.4c0,1.5-1.2,2.7-2.7,2.7c-1.5,0-2.7-1.2-2.7-2.7v-14.4H60.6
			v14.4c0,1.5-1.5,2.7-3,2.7c-1.5,0-2.2-1.2-2.2-2.7v-14.4H50v14.4c0,1.5-1.2,2.7-2.7,2.7s-2.7-1.2-2.7-2.7v-46h0.1v-10.5
			c0-2.9,2.3-5.2,5.2-5.2H74.4 M74.4,87.1H50c-8.4,0-15.2,6.8-15.2,15.2v9.2c-0.1,0.4-0.1,0.9-0.1,1.3v46c0,7,5.7,12.7,12.7,12.7
			c1.9,0,3.6-0.4,5.2-1.1c1.5,0.7,3.3,1.1,5.1,1.1c3.6,0,7-1.5,9.4-4c2.3,2.4,5.6,4,9.2,4c4.4,0,8.2-2.2,10.5-5.6
			c2.3,3.4,6.1,5.6,10.5,5.6c7,0,12.7-5.7,12.7-12.7v-39.9c0-7-5.7-12.7-12.7-12.7c-5.2,0-9.7,3.2-11.7,7.7l-4.2-0.7
			c1.1-1.4,1.9-3,2.4-4.8c2.3-2.3,3.8-5.4,3.8-8.8c0-6.7-5.3-12-12.2-12.5C75,87.1,74.7,87.1,74.4,87.1L74.4,87.1z"/>
	</g>
	<g>
		<path class="st0" d="M189.3,362.2c-2.7,0-5-1.3-6.5-3.2c-1.4,2-3.6,3.2-6.2,3.2c-4.7,0-8.7-3.8-8.7-8.3v-25.2h-5.9v25.2
			c0,4.6-3.7,8.3-8.3,8.3s-8.3-3.7-8.3-8.3l0.1-25.2h-0.6c-1.4,4.7-4.6,8.6-9,10.9v14.3c0,4.6-3.7,8.3-8.3,8.3s-8.3-3.7-8.3-8.3
			v-61.7c0-4.6,3.7-8.3,8.3-8.3s8.3,3.7,8.3,8.3v2.4l3.9-0.6l19.5-3.3c1.1-0.2,2.2-1.5,2.2-2.6v-2.8c-5.5-0.4-10-4.6-10.7-10.1
			c-2.4-1.5-3.9-3.9-3.9-6.8c0-4.3,3.6-7.9,8.3-8.2c0.2,0,0.4,0,0.5,0H186c6.3,0,11.5,5.2,11.5,11.5v11.9c0.1,0.3,0.1,0.7,0.1,1
			v69.3C197.6,358.5,193.8,362.2,189.3,362.2z"/>
		<path class="st0" d="M186,265.2c3.6,0,6.5,2.9,6.5,6.5v13h0.1v69.3c0,1.8-1.5,3.3-3.3,3.3c-1.8,0-3.3-1.5-3.3-3.3v-30.2h-6.7v30.2
			c0,1.8-1,3.3-2.8,3.3c-1.8,0-3.7-1.5-3.7-3.3v-30.2h-15.9v30.2c0,1.8-1.5,3.3-3.3,3.3c-1.8,0-3.3-1.5-3.3-3.3l0.1-30.2h-9.9
			c0,6-4.1,11-9.7,12.5v17.7c0,1.8-1.5,3.3-3.3,3.3c-1.8,0-3.3-1.5-3.3-3.3v-61.7c0-1.8,1.5-3.3,3.3-3.3c1.8,0,3.3,1.5,3.3,3.3v8.3
			l9.7-1.6l19.6-3.3c3.5-0.6,6.4-4,6.4-7.5v-7.7l0.3-0.1h-4.5c-3.6,0-6.5-2.9-6.5-6.5v-2.2c-2.1,0-3.8-1.4-3.8-3.2
			c0-1.7,1.7-3.1,3.8-3.2v0H186 M186,255.2h-30.3c-0.3,0-0.6,0-1,0c-7.3,0.5-12.9,6.2-12.9,13.1c0,3.8,1.7,7.2,4.4,9.6
			c0.9,3.5,3,6.6,5.8,8.8l-11.7,2c-1.5-5.7-6.7-9.9-12.8-9.9c-7.3,0-13.3,6-13.3,13.3v61.7c0,7.3,6,13.3,13.3,13.3
			c6.4,0,11.8-4.6,13-10.6c1.3,6.1,6.6,10.6,13,10.6c4.8,0,9-2.5,11.3-6.3c2.5,3.8,6.8,6.3,11.6,6.3c2.3,0,4.4-0.6,6.3-1.7
			c1.9,1.1,4.1,1.7,6.5,1.7c7.3,0,13.3-6,13.3-13.3v-69.3c0-0.5,0-1-0.1-1.5v-11.5C202.5,262.6,195.1,255.2,186,255.2L186,255.2z"/>
	</g>
	<g>
		<path class="st0" d="M230.3,257.9c-2,0-3.9-0.8-5.2-2.1c-1.3,1.3-3,2.1-5.1,2.1c-4.3,0-8-3.5-8-7.7v-19.4h-2.9v19.4
			c0,4.2-3.4,7.7-7.7,7.7s-7.7-3.4-7.7-7.7l0-16.7c-1.4,2.4-3.3,4.4-5.8,5.7v11c0,4.2-3.4,7.7-7.7,7.7s-7.7-3.4-7.7-7.7v-49.9
			c0-4.2,3.4-7.7,7.7-7.7s7.7,3.4,7.7,7.7v0.8l2-0.3l15.8-2.7c0.4-0.1,1-0.8,1-1.2v-1.4c-4.4-0.7-7.8-4.1-8.5-8.4
			c-2-1.4-3.2-3.6-3.2-6c0-4,3.3-7.3,7.6-7.5c0.2,0,0.3,0,0.5,0h24.5c5.6,0,10.2,4.6,10.2,10.2v9.6c0.1,0.3,0.1,0.6,0.1,0.9v56
			C238,254.4,234.5,257.9,230.3,257.9z"/>
		<path class="st0" d="M227.6,178.5c2.9,0,5.2,2.3,5.2,5.2v10.5h0.1v56c0,1.5-1.2,2.7-2.7,2.7c-1.5,0-2.7-1.2-2.7-2.7v-24.4h-5.4
			v24.4c0,1.5-0.8,2.7-2.2,2.7c-1.5,0-3-1.2-3-2.7v-24.4h-12.9v24.4c0,1.5-1.2,2.7-2.7,2.7s-2.7-1.2-2.7-2.7l0.1-24.4h-8
			c0,4.8-3.3,8.9-7.8,10.1v14.3c0,1.5-1.2,2.7-2.7,2.7c-1.5,0-2.7-1.2-2.7-2.7v-49.9c0-1.5,1.2-2.7,2.7-2.7c1.5,0,2.7,1.2,2.7,2.7
			v6.7l7.8-1.3l15.8-2.7c2.8-0.5,5.2-3.3,5.2-6.1v-6.2l0.2-0.1h-3.6c-2.9,0-5.2-2.3-5.2-5.2v-1.8c-1.7,0-3.1-1.2-3.1-2.6
			c0-1.4,1.4-2.5,3.1-2.6v0H227.6 M227.6,168.5h-24.5c-0.3,0-0.6,0-0.9,0c-6.9,0.5-12.2,5.9-12.2,12.5c0,3.5,1.4,6.6,3.8,8.8
			c0.5,1.7,1.4,3.3,2.4,4.8l-4.2,0.7c-1.9-4.5-6.4-7.7-11.7-7.7c-7,0-12.7,5.7-12.7,12.7v49.9c0,7,5.7,12.7,12.7,12.7
			c4.4,0,8.2-2.2,10.5-5.6c2.3,3.4,6.1,5.6,10.5,5.6c3.6,0,6.9-1.5,9.2-4c2.4,2.4,5.7,4,9.4,4c1.8,0,3.6-0.4,5.1-1.1
			c1.6,0.7,3.3,1.1,5.2,1.1c7,0,12.7-5.7,12.7-12.7v-56c0-0.4,0-0.9-0.1-1.3v-9.2C242.9,175.3,236,168.5,227.6,168.5L227.6,168.5z"
			/>
	</g>
	<g>
		<path class="st0" d="M98.4,362.2c-4.4,0-8-3.6-8-8v-12.6c-3.5-1.9-6.2-5-7.6-8.7l0.1,21.3c0,4.4-3.6,8-8,8s-8-3.6-8-8v-22.3h-4.4
			v22.3c0,4.3-3.8,8-8.4,8c-2.3,0-4.3-1-5.6-2.6c-1.5,1.6-3.6,2.6-5.9,2.6c-4.4,0-8-3.6-8-8v-65.6c-3.1-1.6-5.3-4.6-5.8-8.1
			c-2.2-1.4-3.6-3.8-3.6-6.4c0-4.2,3.5-7.6,7.9-7.9c0.2,0,0.3,0,0.5,0h27.4c6,0,10.9,4.9,10.9,10.9v11.7c0,2.8-1.1,5.5-2.9,7.4
			c0.3,0.2,0.6,0.4,0.8,0.4l17.6,3l2.9,0.5v-3.1c0-4.4,3.6-8,8-8s8,3.6,8,8v57.3C106.4,358.6,102.8,362.2,98.4,362.2z"/>
		<path class="st0" d="M61.2,271.1c3.3,0,5.9,2.6,5.9,5.9v11.7c0,2.5-1.5,4.6-3.7,5.5v0.5c0,3.2,2.6,6.2,5.8,6.8l17.7,3l8.7,1.4v-9
			c0-1.6,1.3-3,3-3c1.6,0,3,1.3,3,3v57.3c0,1.6-1.3,3-3,3c-1.6,0-3-1.3-3-3v-16c-5-1.3-8.7-5.9-8.7-11.3h-8.9l0.1,27.3
			c0,1.6-1.3,3-3,3s-3-1.3-3-3v-27.3H57.5v27.3c0,1.6-1.7,3-3.4,3c-1.6,0-2.5-1.3-2.5-3v-27.3h-6v27.3c0,1.6-1.3,3-3,3
			c-1.6,0-3-1.3-3-3v-69.4h0c-3.3,0-5.9-2.6-5.9-5.9v-2c-1.9,0-3.5-1.3-3.5-2.9s1.5-2.8,3.5-2.9v0H61.2 M61.2,261.1H33.8
			c-0.3,0-0.6,0-0.9,0c-7.1,0.5-12.5,6-12.5,12.8c0,3.6,1.5,6.9,4.1,9.2c0.9,3.2,2.8,6,5.3,8v63c0,7.2,5.8,13,13,13
			c2.1,0,4.1-0.5,5.8-1.4c1.7,0.9,3.6,1.4,5.7,1.4c4.2,0,8-2,10.5-5c2.4,3.1,6.1,5,10.3,5c5.2,0,9.7-3.1,11.8-7.5
			c2.1,4.4,6.6,7.5,11.8,7.5c7.2,0,13-5.8,13-13v-57.3c0-7.2-5.8-13-13-13c-6.2,0-11.4,4.4-12.7,10.3l-9.2-1.6
			c0.3-1.2,0.5-2.6,0.5-3.9V277C77,268.3,69.9,261.1,61.2,261.1L61.2,261.1z"/>
	</g>
	<g>
		<path class="st0" d="M366.7,362.2c-2.3,0-4.4-1-5.9-2.6c-1.4,1.6-3.3,2.6-5.6,2.6c-4.5,0-8.4-3.7-8.4-8v-22.3h-4.4v22.3
			c0,4.4-3.6,8-8,8s-8-3.6-8-8l0.1-21.3c-1.4,3.7-4.1,6.8-7.6,8.7v12.6c0,4.4-3.6,8-8,8s-8-3.6-8-8v-57.3c0-4.4,3.6-8,8-8s8,3.6,8,8
			v3.1l2.9-0.5l17.6-3c0.3,0,0.5-0.2,0.8-0.4c-1.8-2-2.9-4.6-2.9-7.4V277c0-6,4.9-10.9,10.9-10.9h27.4c0.2,0,0.4,0,0.5,0
			c4.5,0.3,7.9,3.7,7.9,7.9c0,2.7-1.4,5-3.6,6.4c-0.5,3.5-2.7,6.5-5.8,8.1v65.6C374.7,358.6,371.1,362.2,366.7,362.2z"/>
		<path class="st0" d="M375.5,271.1L375.5,271.1c1.9,0.1,3.5,1.3,3.5,2.9s-1.5,2.8-3.5,2.9v2c0,3.3-2.6,5.9-5.9,5.9h0v69.4
			c0,1.6-1.3,3-3,3c-1.6,0-3-1.3-3-3v-27.3h-6v27.3c0,1.6-0.9,3-2.5,3s-3.4-1.3-3.4-3v-27.3h-14.4v27.3c0,1.6-1.3,3-3,3
			c-1.6,0-3-1.3-3-3l0.1-27.3h-8.9c0,5.4-3.7,10-8.7,11.3v16c0,1.6-1.3,3-3,3c-1.6,0-3-1.3-3-3v-57.3c0-1.6,1.3-3,3-3
			c1.6,0,3,1.3,3,3v9l8.7-1.4l17.7-3c3.2-0.6,5.8-3.6,5.8-6.8v-0.5c-2.2-0.8-3.7-3-3.7-5.5V277c0-3.3,2.6-5.9,5.9-5.9H375.5
			 M375.5,261.1h-27.4c-8.7,0-15.9,7.1-15.9,15.9v11.7c0,1.3,0.2,2.6,0.5,3.9l-9.2,1.6c-1.2-5.9-6.5-10.3-12.7-10.3
			c-7.2,0-13,5.8-13,13v57.3c0,7.2,5.8,13,13,13c5.2,0,9.7-3.1,11.8-7.5c2.1,4.4,6.6,7.5,11.8,7.5c4.2,0,7.9-2,10.3-5
			c2.5,3,6.3,5,10.5,5c2.1,0,4-0.5,5.7-1.4c1.8,0.9,3.7,1.4,5.8,1.4c7.2,0,13-5.8,13-13v-63c2.5-2,4.4-4.8,5.3-8
			c2.5-2.3,4.1-5.6,4.1-9.2c0-6.8-5.4-12.3-12.5-12.8C376.2,261.2,375.9,261.1,375.5,261.1L375.5,261.1z"/>
	</g>
	<g>
		<path class="st0" d="M303.8,255.4c-4.1,0-7.4-3.3-7.4-7.4v-9.6c-1.7-1-3.1-2.3-4.2-3.8l0,13.5c0,4.1-3.3,7.4-7.4,7.4
			s-7.4-3.3-7.4-7.4v-17h-1.6v17c0,4-3.5,7.4-7.7,7.4c-1.8,0-3.4-0.6-4.6-1.7c-1.3,1.1-2.9,1.7-4.7,1.7c-4.1,0-7.4-3.3-7.4-7.4
			v-52.5c-2.4-1.4-4.1-3.8-4.6-6.6c-1.8-1.3-3-3.4-3-5.7c0-3.9,3.2-7,7.3-7.3c0.2,0,0.3,0,0.5,0h22.1c5.4,0,9.7,4.4,9.7,9.7v9.5
			c0,2-0.6,3.9-1.7,5.5l13.5,2.3l1.2,0.2v-1.4c0-4.1,3.3-7.4,7.4-7.4s7.4,3.3,7.4,7.4V248C311.2,252.1,307.9,255.4,303.8,255.4z"/>
		<path class="st0" d="M273.7,180.9c2.6,0,4.7,2.1,4.7,4.7v9.5c0,2-1.2,3.7-3,4.4v0.4c0,2.6,2.1,5,4.7,5.5l14.3,2.4l7.1,1.2v-7.3
			c0-1.3,1.1-2.4,2.4-2.4s2.4,1.1,2.4,2.4V248c0,1.3-1.1,2.4-2.4,2.4s-2.4-1.1-2.4-2.4v-12.9c-4-1.1-7.1-4.8-7.1-9.1h-7.2l0.1,22
			c0,1.3-1.1,2.4-2.4,2.4c-1.3,0-2.4-1.1-2.4-2.4v-22h-11.6v22c0,1.3-1.4,2.4-2.7,2.4c-1.3,0-2-1.1-2-2.4v-22h-4.9v22
			c0,1.3-1.1,2.4-2.4,2.4c-1.3,0-2.4-1.1-2.4-2.4v-56.1h0c-2.6,0-4.7-2.1-4.7-4.7v-1.6c-1.5,0-2.8-1.1-2.8-2.3
			c0-1.3,1.2-2.3,2.8-2.3v0H273.7 M273.7,170.9h-22.1c-0.3,0-0.6,0-0.9,0c-6.7,0.5-11.9,5.8-11.9,12.3c0,3.3,1.3,6.3,3.5,8.5
			c0.8,2.4,2.2,4.6,4,6.3v50c0,6.8,5.6,12.4,12.4,12.4c1.7,0,3.2-0.3,4.7-0.9c1.4,0.6,3,0.9,4.6,0.9c3.2,0,6.2-1.2,8.4-3.2
			c2.2,2,5.1,3.2,8.3,3.2c3.8,0,7.2-1.7,9.5-4.4c2.3,2.7,5.7,4.4,9.5,4.4c6.8,0,12.4-5.6,12.4-12.4v-46.3c0-6.8-5.6-12.4-12.4-12.4
			c-5.3,0-9.8,3.3-11.6,8l-3.9-0.7c0.1-0.5,0.1-1,0.1-1.6v-9.5C288.4,177.5,281.8,170.9,273.7,170.9L273.7,170.9z"/>
	</g>
	<g>
		<path class="st0" d="M187.1,86.3c-3.7,0-6.8-3-6.8-6.8v-6.4c-0.2-0.1-0.3-0.2-0.5-0.3l0,6.7c0,3.7-3,6.8-6.8,6.8
			c-2.7,0-5-1.5-6.1-3.8c-1.2,2.2-3.6,3.8-6.2,3.8c-1.3,0-2.4-0.3-3.4-0.9c-1,0.6-2.2,0.9-3.4,0.9c-3.7,0-6.8-3-6.8-6.8V41.7
			c-1.6-1.2-2.8-2.8-3.2-4.8c-1.4-1.2-2.3-3-2.3-5c0-3.6,2.9-6.4,6.6-6.7c0.2,0,0.3,0,0.5,0H165c4.7,0,8.5,3.8,8.5,8.5v7
			c0,1.1-0.2,2.1-0.6,3.1l7.5,1.3c0.3-3.5,3.2-6.2,6.7-6.2c3.7,0,6.8,3,6.8,6.8v34.1C193.9,83.3,190.8,86.3,187.1,86.3z"/>
		<path class="st0" d="M165,30.2c1.9,0,3.5,1.5,3.5,3.5v7c0,1.5-0.9,2.7-2.2,3.2v0.3c0,1.9,1.5,3.7,3.4,4l10.5,1.8l5.2,0.9v-5.4
			c0-1,0.8-1.8,1.8-1.8c1,0,1.8,0.8,1.8,1.8v34c0,1-0.8,1.8-1.8,1.8c-1,0-1.8-0.8-1.8-1.8v-9.5c-3-0.8-5.2-3.5-5.2-6.7h-5.3l0,16.2
			c0,1-0.8,1.8-1.8,1.8c-1,0-1.8-0.8-1.8-1.8V63.4h-8.6v16.2c0,1-1,1.8-2,1.8c-1,0-1.5-0.8-1.5-1.8V63.4h-3.6v16.2
			c0,1-0.8,1.8-1.8,1.8c-1,0-1.8-0.8-1.8-1.8V38.3h0c-1.9,0-3.5-1.5-3.5-3.5v-1.2c-1.1,0-2.1-0.8-2.1-1.7s0.9-1.7,2.1-1.7v0H165
			 M165,20.2h-16.3c-0.3,0-0.6,0-0.9,0c-6.3,0.5-11.2,5.5-11.2,11.7c0,2.9,1.1,5.6,2.9,7.7c0.6,1.6,1.5,3,2.6,4.3v35.7
			c0,6.5,5.3,11.8,11.8,11.8c1.2,0,2.3-0.2,3.4-0.5c1.1,0.3,2.2,0.5,3.4,0.5c2.3,0,4.4-0.6,6.2-1.7c1.8,1.1,3.9,1.7,6.1,1.7
			c2.6,0,5-0.9,7-2.3c2,1.4,4.4,2.3,7,2.3c6.5,0,11.8-5.3,11.8-11.8v-34c0-6.5-5.3-11.8-11.8-11.8c-3.4,0-6.5,1.5-8.7,3.8v-3.8
			C178.4,26.3,172.4,20.2,165,20.2L165,20.2z"/>
	</g>
	<g>
		<path class="st0" d="M108.4,253.6c-4.2,0-7.7-3.4-7.7-7.7v-47.4c0-0.3,0-0.6,0.1-0.9v-9.6c-0.1-2.7,1-5.2,2.8-7.2
			c1.9-2,4.6-3.1,7.4-3.1h24.5c0.3,0,0.5,0,0.8,0.1c4.1,0.4,7.2,3.6,7.2,7.5c0,2.4-1.2,4.6-3.1,6c-0.7,4.4-4.2,7.9-8.6,8.6v1.4
			c0,0.4,0.6,1.1,1,1.2l15.7,2.6l2,0.3c0-4.2,3.5-7.6,7.7-7.6c4.2,0,7.7,3.4,7.7,7.7v40.4c0,4.2-3.4,7.7-7.7,7.7
			c-4,0-7.4-3.2-7.7-7.4c0-0.1,0-0.2,0-0.3v-2.4c-2.4-1.3-4.3-3.3-5.6-5.6l0,7.9c0,4.2-3.4,7.7-7.7,7.7c-4.2,0-7.7-3.4-7.7-7.7
			v-10.8h-2.9v10.8c0,4.2-3.7,7.7-8,7.7c-2,0-3.7-0.8-5-2C112.3,252.8,110.4,253.6,108.4,253.6z"/>
		<path class="st0" d="M135.5,182.8L135.5,182.8c1.7,0.1,3,1.2,3,2.6c0,1.4-1.3,2.5-3,2.6v1.8c0,2.9-2.3,5.2-5.2,5.2h-3.7l0.2,0.1
			v6.2c0,2.8,2.3,5.6,5.2,6.1l15.8,2.7l7.8,1.3v-5.9c0-1.5,1.2-2.7,2.7-2.7c1.5,0,2.7,1.2,2.7,2.7v40.4c0,1.5-1.2,2.7-2.7,2.7
			c-1.4,0-2.6-1.2-2.7-2.7v-5.7c-4.5-1.2-7.8-5.3-7.8-10.1h-7.9l0.1,15.8c0,1.5-1.2,2.7-2.7,2.7c-1.5,0-2.7-1.2-2.7-2.7v-15.8h-12.9
			v15.8c0,1.5-1.5,2.7-3,2.7c-1.5,0-2.2-1.2-2.2-2.7v-15.8H111v15.9c0,1.5-1.2,2.7-2.7,2.7c-1.5,0-2.7-1.2-2.7-2.7v-47.4h0.1v0l0,0
			c0,0,0-0.1,0-0.1V188c-0.1-2.8,2.3-5.2,5.2-5.2H135.5 M135.5,172.8H111c-4.1,0-8.1,1.7-11,4.6c-2.8,2.9-4.3,6.8-4.3,10.7v9.1
			c-0.1,0.4-0.1,0.9-0.1,1.3v47.4c0,7,5.7,12.7,12.7,12.7c1.9,0,3.7-0.4,5.3-1.2c1.5,0.7,3.2,1.1,5,1.1c3.6,0,7-1.5,9.4-4
			c2.3,2.4,5.6,4,9.2,4c4.4,0,8.2-2.2,10.5-5.6c2.3,3.4,6.1,5.6,10.4,5.6c7,0,12.7-5.7,12.7-12.7v-40.4c0-7-5.7-12.7-12.7-12.7
			c-4.9,0-9.2,2.8-11.3,6.9l-4.5-0.8c1.1-1.5,2-3.1,2.5-4.9c2.2-2.3,3.6-5.3,3.6-8.7c0-6.4-5-11.7-11.6-12.5
			C136.5,172.8,136,172.8,135.5,172.8L135.5,172.8z"/>
	</g>
	<g>
		<path class="st0" d="M220.1,362.2c-4.6,0-8.3-3.7-8.3-8.3v-58.7c0-0.4,0-0.7,0.1-1v-12c0-6.3,5.2-11.5,11.5-11.5h30.3
			c0.3,0,0.6,0,0.8,0.1c4.5,0.5,7.9,3.9,7.9,8.1c0,2.8-1.5,5.2-3.8,6.7c-0.6,5.5-5.2,9.9-10.8,10.2v2.8c0,1.1,1.1,2.4,2.3,2.6
			l19.5,3.3l3.9,0.7v-1.4c0-4.6,3.7-8.3,8.3-8.3s8.3,3.7,8.3,8.3v50.1c0,4.6-3.7,8.3-8.3,8.3s-8.3-3.7-8.3-8.3v-3.6
			c-4.4-2.3-7.7-6.2-9.1-11H264l0,14.5c0,4.6-3.7,8.3-8.3,8.3c-4.6,0-8.3-3.7-8.3-8.3v-14.6h-5.9v14.6c0,4.5-4,8.3-8.7,8.3
			c-2.6,0-4.8-1.2-6.2-3.1C225.1,360.9,222.7,362.2,220.1,362.2z"/>
		<path class="st0" d="M253.6,275.7L253.6,275.7c2.1,0.1,3.7,1.5,3.7,3.2c0,1.7-1.6,3.1-3.7,3.2v2.2c0,3.6-2.9,6.5-6.5,6.5h-4.6
			l0.3,0.1v7.7c0,3.5,2.9,6.9,6.4,7.5l19.6,3.3l9.8,1.7v-7.3c0-1.8,1.5-3.3,3.3-3.3s3.3,1.5,3.3,3.3v50.1c0,1.8-1.5,3.3-3.3,3.3
			c-1.8,0-3.3-1.5-3.3-3.3v-7c-5.6-1.4-9.8-6.5-9.8-12.5H259l0.1,19.6c0,1.8-1.5,3.3-3.3,3.3c-1.8,0-3.3-1.5-3.3-3.3v-19.6h-15.9
			v19.6c0,1.8-1.9,3.3-3.7,3.3c-1.8,0-2.8-1.5-2.8-3.3v-19.6h-6.7v19.7c0,1.8-1.5,3.3-3.3,3.3c-1.8,0-3.3-1.5-3.3-3.3v-58.7h0.1l0,0
			c0,0,0-0.1,0-0.1v-13c0-3.5,2.9-6.5,6.5-6.5H253.6 M253.6,265.7h-30.3c-9.1,0-16.5,7.4-16.5,16.5v11.6c-0.1,0.5-0.1,1-0.1,1.5
			v58.7c0,7.3,6,13.3,13.3,13.3c2.4,0,4.6-0.6,6.5-1.7c1.8,1,3.9,1.6,6.2,1.6c4.8,0,9.2-2.6,11.6-6.3c2.3,3.8,6.5,6.3,11.3,6.3
			c6.4,0,11.8-4.6,13-10.6c1.3,6,6.6,10.6,13,10.6c7.3,0,13.3-6,13.3-13.3v-50.1c0-7.3-6-13.3-13.3-13.3c-5.8,0-10.7,3.7-12.5,8.9
			l-12-2c2.9-2.2,5-5.4,5.9-9c2.6-2.4,4.2-5.8,4.2-9.5c0-6.7-5.3-12.3-12.2-13.1C254.6,265.7,254.1,265.7,253.6,265.7L253.6,265.7z"
			/>
	</g>
	<g>
		<path class="st0" d="M133.7,167.2c-4.2,0-7.7-3.4-7.7-7.7v-47.4c0-0.3,0-0.6,0.1-0.9v-9.6c0-5.6,4.6-10.2,10.2-10.2h24.5
			c0.3,0,0.5,0,0.8,0.1c4.1,0.4,7.2,3.6,7.2,7.5c0,2.4-1.2,4.6-3.1,6c-0.7,4.4-4.2,7.9-8.6,8.6v1.4c0,0.4,0.6,1.1,1,1.2l15.7,2.6
			l2.1,0.4c0-4.2,3.4-7.6,7.7-7.6c4.2,0,7.7,3.4,7.7,7.7v40.4c0,4.2-3.4,7.7-7.7,7.7c-4.2,0-7.7-3.4-7.7-7.7v-2.3
			c-2.4-1.3-4.4-3.3-5.7-5.6l0,7.9c0,4.2-3.4,7.7-7.7,7.7s-7.7-3.4-7.7-7.7v-10.8H152v10.8c0,4.2-3.7,7.7-8,7.7c-2,0-3.7-0.8-5-2
			C137.6,166.3,135.7,167.2,133.7,167.2z"/>
		<path class="st0" d="M160.8,96.3L160.8,96.3c1.7,0.1,3,1.2,3,2.6c0,1.4-1.3,2.5-3,2.6v1.8c0,2.9-2.3,5.2-5.2,5.2h-3.7l0.2,0.1v6.2
			c0,2.8,2.3,5.6,5.2,6.1l15.8,2.7l7.9,1.4V119c0-1.5,1.2-2.7,2.7-2.7c1.5,0,2.7,1.2,2.7,2.7v40.4c0,1.5-1.2,2.7-2.7,2.7
			c-1.5,0-2.7-1.2-2.7-2.7v-5.7c-4.5-1.2-7.9-5.3-7.9-10.1h-7.9l0.1,15.8c0,1.5-1.2,2.7-2.7,2.7c-1.5,0-2.7-1.2-2.7-2.7v-15.8H147
			v15.8c0,1.5-1.5,2.7-3,2.7c-1.5,0-2.2-1.2-2.2-2.7v-15.8h-5.4v15.9c0,1.5-1.2,2.7-2.7,2.7c-1.5,0-2.7-1.2-2.7-2.7v-47.4h0.1l0,0
			c0,0,0-0.1,0-0.1v-10.5c0-2.8,2.3-5.2,5.2-5.2H160.8 M160.8,86.3h-24.5c-8.4,0-15.2,6.8-15.2,15.2v9.2c-0.1,0.4-0.1,0.9-0.1,1.3
			v47.4c0,7,5.7,12.7,12.7,12.7c1.9,0,3.7-0.4,5.3-1.2c1.5,0.7,3.2,1.1,5,1.1c3.6,0,7-1.5,9.4-4c2.3,2.4,5.6,4,9.2,4
			c4.4,0,8.2-2.2,10.5-5.6c2.3,3.4,6.1,5.6,10.5,5.6c7,0,12.7-5.7,12.7-12.7V119c0-7-5.7-12.7-12.7-12.7c-4.9,0-9.2,2.8-11.3,6.9
			l-4.6-0.8c1.1-1.5,2-3.1,2.5-4.9c2.2-2.3,3.6-5.3,3.6-8.7c0-6.4-5-11.7-11.6-12.5C161.8,86.3,161.3,86.3,160.8,86.3L160.8,86.3z"
			/>
	</g>
	<g>
		<path class="st0" d="M86.1,253.6c-2,0-3.9-0.8-5.3-2.1c-1.3,1.3-3,2-5,2c-4.3,0-8-3.5-8-7.7v-10.8h-2.9v10.8
			c0,4.2-3.4,7.7-7.7,7.7c-4.2,0-7.7-3.4-7.7-7.7l0-7.9c-1.4,2.3-3.3,4.3-5.7,5.6v2.3c0,4.2-3.4,7.7-7.7,7.7c-4.2,0-7.7-3.4-7.7-7.7
			v-40.4c0-4.2,3.4-7.7,7.7-7.7c4.2,0,7.6,3.4,7.7,7.6l2-0.4l15.8-2.7c0.4-0.1,1-0.8,1-1.2v-1.4c-4.4-0.6-7.9-4.1-8.6-8.6
			c-1.9-1.4-3.1-3.5-3.1-6c0-3.9,3.1-7.1,7.2-7.5c0.3,0,0.5-0.1,0.8-0.1h24.5c5.6,0,10.2,4.6,10.2,10.2v9.6c0.1,0.3,0.1,0.6,0.1,0.9
			v47.4C93.8,250.2,90.3,253.6,86.1,253.6z"/>
		<path class="st0" d="M83.4,182.8c2.9,0,5.2,2.4,5.2,5.2v10.5c0,0,0,0.1,0,0.1l0,0h0.1v47.4c0,1.5-1.2,2.7-2.7,2.7
			c-1.5,0-2.7-1.2-2.7-2.7v-15.9H78v15.8c0,1.5-0.8,2.7-2.2,2.7c-1.5,0-3-1.2-3-2.7v-15.8H59.9v15.8c0,1.5-1.2,2.7-2.7,2.7
			c-1.5,0-2.7-1.2-2.7-2.7l0.1-15.8h-7.9c0,4.9-3.4,9-7.9,10.1v5.7c0,1.5-1.2,2.7-2.7,2.7c-1.5,0-2.7-1.2-2.7-2.7v-40.4
			c0-1.5,1.2-2.7,2.7-2.7c1.5,0,2.7,1.2,2.7,2.7v5.9l7.9-1.4l15.8-2.7c2.8-0.5,5.2-3.3,5.2-6.1V195l0.2-0.1h-3.7
			c-2.9,0-5.2-2.3-5.2-5.2v-1.8c-1.7-0.1-3-1.2-3-2.6c0-1.4,1.3-2.5,3-2.6v0H83.4 M83.4,172.8H59c-0.5,0-1,0-1.5,0.1
			C51,173.6,46,178.9,46,185.3c0,3.4,1.4,6.4,3.6,8.7c0.5,1.8,1.4,3.5,2.5,4.9l-4.6,0.8c-2.1-4.1-6.4-6.9-11.3-6.9
			c-7,0-12.7,5.7-12.7,12.7v40.4c0,7,5.7,12.7,12.7,12.7c4.4,0,8.2-2.2,10.5-5.6c2.3,3.4,6.1,5.6,10.5,5.6c3.6,0,6.9-1.5,9.2-4
			c2.4,2.4,5.7,4,9.4,4c1.8,0,3.5-0.4,5-1.1c1.6,0.7,3.4,1.2,5.3,1.2c7,0,12.7-5.7,12.7-12.7v-47.4c0-0.4,0-0.9-0.1-1.3V188
			C98.7,179.6,91.8,172.8,83.4,172.8L83.4,172.8z"/>
	</g>
	<g>
		<path class="st0" d="M355.2,83.4c-1,0-1.9-0.2-2.8-0.6c-0.8,0.4-1.7,0.6-2.6,0.6c-1.9,0-3.7-0.9-4.9-2.2c-1.2,1.3-2.9,2.2-4.8,2.2
			c-2.4,0-4.4-1.3-5.5-3.2c-1.1,1.9-3.2,3.2-5.5,3.2c-3.5,0-6.4-2.9-6.4-6.4V55.7c0-3.5,2.9-6.4,6.4-6.4c2.6,0,4.8,1.5,5.8,3.7
			l3-0.5c-0.7-0.8-1.3-1.8-1.6-2.9c-1.2-1.1-1.9-2.7-1.9-4.4c0-3.2,2.5-5.9,5.9-6.3c0.2,0,0.5-0.1,0.7-0.1h12.9
			c4.3,0,7.8,3.5,7.8,7.8v4.9c0,0.2,0,0.4,0,0.7V77C361.6,80.5,358.8,83.4,355.2,83.4z"/>
		<path class="st0" d="M353.9,43.8c1.5,0,2.8,1.3,2.8,2.8V52c0,0,0,0,0,0l0,0h0V77c0,0.8-0.6,1.4-1.4,1.4s-1.4-0.6-1.4-1.4v-8.3H351
			v8.3c0,0.8-0.4,1.4-1.2,1.4s-1.6-0.6-1.6-1.4v-8.3h-6.8v8.3c0,0.8-0.6,1.4-1.4,1.4c-0.8,0-1.4-0.6-1.4-1.4l0-8.3h-4.1
			c0,2.6-1.8,4.7-4.2,5.3v3c0,0.8-0.6,1.4-1.4,1.4s-1.4-0.6-1.4-1.4V55.7c0-0.8,0.6-1.4,1.4-1.4c0.8,0,1.4,0.6,1.4,1.4v3.1l4.2-0.7
			l8.3-1.4c1.5-0.3,2.7-1.7,2.7-3.2v-3.2l0.1,0h-2c-1.5,0-2.8-1.2-2.8-2.8v-1c-0.9,0-1.6-0.6-1.6-1.3c0-0.7,0.7-1.3,1.6-1.3v0H353.9
			 M353.9,33.8H341c-0.5,0-0.9,0-1.4,0.1c-5.5,0.7-9.7,5-10.1,10.4c-0.1,0-0.3,0-0.4,0c-6.3,0-11.4,5.1-11.4,11.4v21.3
			c0,6.3,5.1,11.4,11.4,11.4c2,0,3.9-0.5,5.5-1.4c1.6,0.9,3.5,1.4,5.5,1.4c1.7,0,3.4-0.4,4.8-1.1c1.5,0.7,3.2,1.1,4.9,1.1
			c0.9,0,1.8-0.1,2.6-0.3c0.9,0.2,1.8,0.3,2.8,0.3c6.3,0,11.4-5.1,11.4-11.4V52.1c0-0.3,0-0.6,0-1v-4.6
			C366.6,39.5,360.9,33.8,353.9,33.8L353.9,33.8z"/>
	</g>
	<g>
		<path class="st0" d="M374.5,253.6c-2,0-3.9-0.8-5.3-2.1c-1.3,1.3-3,2-5,2c-4.3,0-8-3.5-8-7.7v-10.8h-2.9v10.8
			c0,4.2-3.4,7.7-7.7,7.7s-7.7-3.4-7.7-7.7l0-7.9c-1.4,2.3-3.3,4.3-5.7,5.6v2.3c0,4.2-3.4,7.7-7.7,7.7s-7.7-3.4-7.7-7.7v-40.4
			c0-4.2,3.4-7.7,7.7-7.7c4.2,0,7.6,3.4,7.7,7.6l2.1-0.4l15.8-2.7c0.4-0.1,1-0.8,1-1.2v-1.4c-4.4-0.6-7.9-4.1-8.6-8.6
			c-1.9-1.4-3.1-3.5-3.1-6c0-3.9,3.1-7.1,7.2-7.5c0.3,0,0.5-0.1,0.8-0.1h24.5c5.6,0,10.2,4.6,10.2,10.2v9.6c0.1,0.3,0.1,0.6,0.1,0.9
			v47.4C382.2,250.2,378.7,253.6,374.5,253.6z"/>
		<path class="st0" d="M371.8,182.8c2.9,0,5.2,2.4,5.2,5.2v10.5c0,0,0,0.1,0,0.1l0,0h0.1v47.4c0,1.5-1.2,2.7-2.7,2.7
			c-1.5,0-2.7-1.2-2.7-2.7v-15.9h-5.4v15.8c0,1.5-0.8,2.7-2.2,2.7s-3-1.2-3-2.7v-15.8h-12.9v15.8c0,1.5-1.2,2.7-2.7,2.7
			s-2.7-1.2-2.7-2.7l0.1-15.8h-7.9c0,4.9-3.4,9-7.9,10.1v5.7c0,1.5-1.2,2.7-2.7,2.7c-1.5,0-2.7-1.2-2.7-2.7v-40.4
			c0-1.5,1.2-2.7,2.7-2.7c1.5,0,2.7,1.2,2.7,2.7v5.9l7.9-1.4l15.8-2.7c2.8-0.5,5.2-3.3,5.2-6.1V195l0.2-0.1h-3.7
			c-2.9,0-5.2-2.3-5.2-5.2v-1.8c-1.7-0.1-3-1.2-3-2.6c0-1.4,1.3-2.5,3-2.6v0H371.8 M371.8,172.8h-24.5c-0.5,0-1,0-1.5,0.1
			c-6.6,0.8-11.5,6.1-11.5,12.5c0,3.4,1.4,6.4,3.6,8.7c0.5,1.8,1.4,3.5,2.5,4.9l-4.6,0.8c-2.1-4.1-6.4-6.9-11.3-6.9
			c-7,0-12.7,5.7-12.7,12.7v40.4c0,7,5.7,12.7,12.7,12.7c4.4,0,8.2-2.2,10.5-5.6c2.3,3.4,6.1,5.6,10.5,5.6c3.6,0,6.9-1.5,9.2-4
			c2.4,2.4,5.7,4,9.4,4c1.8,0,3.5-0.4,5-1.1c1.6,0.7,3.4,1.2,5.3,1.2c7,0,12.7-5.7,12.7-12.7v-47.4c0-0.4,0-0.9-0.1-1.3V188
			C387.1,179.6,380.2,172.8,371.8,172.8L371.8,172.8z"/>
	</g>
	<g>
		<path class="st0" d="M264.1,168.9c-2,0-3.9-0.8-5.3-2.1c-1.3,1.3-3,2-5,2c-4.3,0-8-3.5-8-7.7v-10.8h-2.9v10.8
			c0,4.2-3.4,7.7-7.7,7.7s-7.7-3.4-7.7-7.7l0-8.1c-1.4,2.4-3.3,4.3-5.7,5.7v2.4c0,4.2-3.4,7.7-7.7,7.7s-7.7-3.4-7.7-7.7v-40.4
			c0-4.2,3.4-7.7,7.7-7.7c4.2,0,7.6,3.4,7.7,7.6l2-0.3l15.8-2.7c0.4-0.1,1-0.8,1-1.2v-11.2c0-0.5,0.1-0.9,0.2-1.3v-4.1
			c0-5.6,4.6-10.2,10.2-10.2c0.5,0,0.9,0,1.2,0.1h21.9c0.4-0.1,0.8-0.1,1.2-0.1c4.5,0,8.2,3.4,8.2,7.6c0,2.4-1.2,4.6-3.1,5.9
			c-0.7,4.5-4.3,8.1-8.8,8.7v0.7c0.1,0.4,0.2,0.9,0.2,1.3v47.4C271.7,165.4,268.3,168.9,264.1,168.9z"/>
		<path class="st0" d="M275.3,94.6c1.8,0,3.2,1.2,3.2,2.6c0,1.4-1.3,2.5-3,2.6v1.9c0,2.9-2.3,5.2-5.2,5.2h-3.7v7h0.2v47.4
			c0,1.5-1.2,2.7-2.7,2.7c-1.5,0-2.7-1.2-2.7-2.7v-15.9H256v15.8c0,1.5-0.8,2.7-2.2,2.7c-1.5,0-3-1.2-3-2.7v-15.8h-12.9v15.8
			c0,1.5-1.2,2.7-2.7,2.7c-1.5,0-2.7-1.2-2.7-2.7l0.1-15.8h-7.9c0,4.8-3.3,8.9-7.8,10.1v5.7c0,1.5-1.2,2.7-2.7,2.7
			c-1.5,0-2.7-1.2-2.7-2.7v-40.4c0-1.5,1.2-2.7,2.7-2.7c1.5,0,2.7,1.2,2.7,2.7v5.9l7.8-1.3l15.8-2.7c2.8-0.5,5.2-3.3,5.2-6.1v-11.2
			h0.2v-5.4c0-2.8,2.3-5.2,5.2-5.2c0.3,0,0.6,0,0.9,0.1h22.7C274.8,94.6,275,94.6,275.3,94.6 M275.3,84.6c-0.5,0-1,0-1.5,0.1h-21.2
			c-0.5,0-1-0.1-1.5-0.1c-8.4,0-15.2,6.8-15.2,15.2v3.6c-0.1,0.6-0.2,1.2-0.2,1.9v8l-10.1,1.7c-2.1-4.1-6.4-6.9-11.3-6.9
			c-7,0-12.7,5.7-12.7,12.7v40.4c0,7,5.7,12.7,12.7,12.7c4.4,0,8.2-2.2,10.5-5.6c2.3,3.4,6.1,5.6,10.5,5.6c3.6,0,6.9-1.5,9.2-4
			c2.4,2.4,5.7,4,9.4,4c1.8,0,3.5-0.4,5-1.1c1.6,0.7,3.4,1.2,5.3,1.2c7,0,12.7-5.7,12.7-12.7v-45.8c3.9-1.9,7-5.4,8.2-9.6
			c2.2-2.3,3.6-5.3,3.6-8.6C288.5,90.2,282.6,84.6,275.3,84.6L275.3,84.6z"/>
	</g>
	<g>
		<path class="st0" d="M269.9,82.7c-1.3,0-2.5-0.4-3.6-1c-1,0.6-2.1,0.9-3.4,0.9c-2.8,0-5.2-1.6-6.4-4c-1.1,2.3-3.4,4-6.2,4
			c-3.7,0-6.8-3.1-6.8-6.8l0-1.2c-0.2,0.2-0.4,0.3-0.6,0.5v0.7c0,3.7-3.1,6.8-6.8,6.8s-6.8-3.1-6.8-6.8V48.5c0-3.7,3.1-6.8,6.8-6.8
			c3.1,0,5.7,2.1,6.5,4.9l9.7-1.6V38c0-0.4,0-0.7,0.1-1.1v-2.6c0-4.7,3.8-8.5,8.5-8.5c0.3,0,0.7,0,0.9,0.1h14.6
			c0.3,0,0.6-0.1,0.9-0.1c3.9,0,7.1,3,7.1,6.7c0,1.9-0.9,3.7-2.2,4.9c-0.7,3-2.9,5.3-5.7,6.2c0,0,0,32.2,0,32.2
			C276.7,79.6,273.7,82.7,269.9,82.7z"/>
		<path class="st0" d="M277.5,30.9c1.2,0,2.1,0.8,2.1,1.7c0,0.9-0.9,1.7-2,1.7v1.3c0,2-1.6,3.5-3.5,3.5h-2.5v4.7h0.1v32
			c0,1-0.8,1.8-1.8,1.8c-1,0-1.8-0.8-1.8-1.8V65.2h-3.7v10.7c0,1-0.5,1.8-1.5,1.8c-1,0-2-0.8-2-1.8V65.2h-8.7v10.7
			c0,1-0.8,1.8-1.8,1.8c-1,0-1.8-0.8-1.8-1.8l0-10.7h-5.4c0,3.3-2.3,6-5.3,6.8v3.8c0,1-0.8,1.8-1.8,1.8c-1,0-1.8-0.8-1.8-1.8V48.5
			c0-1,0.8-1.8,1.8-1.8c1,0,1.8,0.8,1.8,1.8v4l5.3-0.9l10.7-1.8c1.9-0.3,3.5-2.2,3.5-4.1V38h0.1v-3.7c0-1.9,1.6-3.5,3.5-3.5
			c0.2,0,0.4,0,0.6,0.1H277C277.2,30.9,277.4,30.9,277.5,30.9 M277.5,20.9c-0.4,0-0.8,0-1.2,0.1h-14c-0.4,0-0.8-0.1-1.2-0.1
			c-7.5,0-13.5,6.1-13.5,13.5v2.1c-0.1,0.5-0.1,1-0.1,1.5v2.7l-2.1,0.3c-2.2-2.7-5.5-4.4-9.2-4.4c-6.5,0-11.8,5.3-11.8,11.8v27.3
			c0,6.5,5.3,11.8,11.8,11.8c2.7,0,5.1-0.9,7.1-2.4c2,1.5,4.4,2.4,7.1,2.4c2.3,0,4.4-0.6,6.2-1.8c1.8,1.1,4,1.8,6.3,1.8
			c1.2,0,2.3-0.2,3.4-0.5c1.1,0.4,2.3,0.6,3.6,0.6c6.5,0,11.8-5.3,11.8-11.8V46.8c2.4-1.6,4.2-4,5.2-6.7c1.7-2,2.8-4.6,2.8-7.5
			C289.7,26.1,284.2,20.9,277.5,20.9L277.5,20.9z"/>
	</g>
</g>
<g>
	<g>
		<path class="st1" d="M79.9,71.7L80,54h3.7v17.7c0,1-0.9,1.9-1.9,1.9S79.9,72.8,79.9,71.7L79.9,71.7z"/>
		<path class="st1" d="M92.9,54h3.7v17.7c0,1-0.5,1.9-1.6,1.9s-2.1-0.9-2.1-1.9V54z"/>
		<path class="st1" d="M104.3,39v32.7c0,1-0.9,1.9-1.9,1.9s-1.9-0.9-1.9-1.9V39H104.3z"/>
	</g>
	<path class="st1" d="M66.9,48.4v20.5c4.1,0,7.5-3.4,7.5-7.5l4.9-7.1l-4.9-7.1L66.9,48.4z"/>
	<g>
		<path class="st2" d="M74.3,61.5h29.9V39.1l-6-6l-8.9,3.5V41c0,2-1.6,4-3.7,4.3l-11.2,1.9C74.3,47.2,74.3,61.4,74.3,61.5z"/>
		<path class="st2" d="M68.8,71.7V43.4c0-1-0.9-1.9-1.9-1.9S65,42.3,65,43.4v28.4c0,1,0.9,1.9,1.9,1.9S68.8,72.8,68.8,71.7z"/>
	</g>
	<path class="st1" d="M100.5,36.5H86.8c-2.1,0-3.7-1.6-3.7-3.7v-4.9h17.4V36.5z"/>
	<path class="st3" d="M104.2,31.6V39c0,2.1-1.6,3.7-3.7,3.7s-3.7-1.6-3.7-3.7v-7.5c0-2.1,1.6-3.7,3.7-3.7
		C102.5,27.8,104.2,29.5,104.2,31.6z"/>
	<circle class="st3" cx="92.9" cy="30.5" r="0.8"/>
	<ellipse class="st3" cx="83.1" cy="29.7" rx="2.3" ry="1.8"/>
</g>
<g>
	<g>
		<path class="st1" d="M338,158.7c0,1.5-1.2,2.7-2.7,2.7c-1.5,0-2.7-1.2-2.7-2.7v-24.9h5.2L338,158.7L338,158.7z"/>
		<path class="st1" d="M319.8,158.7c0,1.5-1.5,2.7-3,2.7c-1.5,0-2.2-1.2-2.2-2.7v-24.9h5.2V158.7z"/>
		<path class="st1" d="M309.1,112.8v46c0,1.5-1.2,2.7-2.7,2.7s-2.7-1.2-2.7-2.7v-46H309.1z"/>
	</g>
	<path class="st1" d="M345.9,124.3l-7,10l7,10c0,5.8,4.7,10.5,10.5,10.5V126L345.9,124.3z"/>
	<g>
		<path class="st2" d="M345.9,124.3l-15.8-2.7c-2.8-0.5-5.2-3.3-5.2-6.1v-6.2l-12.4-5l-8.5,8.5v31.5h42
			C345.9,144.3,345.9,124.3,345.9,124.3z"/>
		<path class="st2" d="M356.3,161.4c1.5,0,2.7-1.2,2.7-2.7v-39.9c0-1.5-1.2-2.7-2.7-2.7s-2.7,1.2-2.7,2.7v39.9
			C353.7,160.2,354.9,161.4,356.3,161.4z"/>
	</g>
	<path class="st1" d="M309.1,97.1h24.5v7c0,2.9-2.3,5.2-5.2,5.2h-19.2V97.1z"/>
	<path class="st3" d="M309.1,97.1c2.9,0,5.2,2.3,5.2,5.2v10.5c0,2.9-2.3,5.2-5.2,5.2c-2.9,0-5.2-2.3-5.2-5.2v-10.5
		C303.9,99.4,306.2,97.1,309.1,97.1z"/>
	<circle class="st3" cx="319.8" cy="100.8" r="1.1"/>
	<ellipse class="st3" cx="333.5" cy="99.6" rx="3.2" ry="2.6"/>
</g>
<g>
	<g>
		<path class="st1" d="M78.8,158.7c0,1.5-1.2,2.7-2.7,2.7s-2.7-1.2-2.7-2.7v-24.9h5.2L78.8,158.7L78.8,158.7z"/>
		<path class="st1" d="M60.6,158.7c0,1.5-1.5,2.7-3,2.7c-1.5,0-2.2-1.2-2.2-2.7v-24.9h5.2V158.7z"/>
		<path class="st1" d="M50,112.8v46c0,1.5-1.2,2.7-2.7,2.7c-1.5,0-2.7-1.2-2.7-2.7v-46H50z"/>
	</g>
	<path class="st1" d="M86.7,124.3l-7,10l7,10c0,5.8,4.7,10.5,10.5,10.5V126L86.7,124.3z"/>
	<g>
		<path class="st2" d="M86.7,124.3l-15.8-2.7c-2.8-0.5-5.2-3.3-5.2-6.1v-6.2l-12.4-5l-8.5,8.5v31.5h42
			C86.7,144.3,86.7,124.3,86.7,124.3z"/>
		<path class="st2" d="M97.2,161.4c1.5,0,2.7-1.2,2.7-2.7v-39.9c0-1.5-1.2-2.7-2.7-2.7c-1.5,0-2.7,1.2-2.7,2.7v39.9
			C94.5,160.2,95.7,161.4,97.2,161.4z"/>
	</g>
	<path class="st1" d="M50,97.1h24.5v7c0,2.9-2.3,5.2-5.2,5.2H50V97.1z"/>
	<path class="st3" d="M50,97.1c2.9,0,5.2,2.3,5.2,5.2v10.5c0,2.9-2.3,5.2-5.2,5.2c-2.9,0-5.2-2.3-5.2-5.2v-10.5
		C44.7,99.4,47,97.1,50,97.1z"/>
	<circle class="st3" cx="60.6" cy="100.8" r="1.1"/>
	<ellipse class="st3" cx="74.3" cy="99.6" rx="3.2" ry="2.6"/>
</g>
<g>
	<g>
		<path class="st1" d="M150.3,353.9l0.1-43.3h6.5v43.3c0,1.8-1.5,3.3-3.3,3.3C151.8,357.2,150.3,355.7,150.3,353.9L150.3,353.9z"/>
		<path class="st1" d="M172.8,310.6h6.5v43.3c0,1.8-1,3.3-2.8,3.3c-1.8,0-3.7-1.5-3.7-3.3V310.6z"/>
		<path class="st1" d="M192.6,284.6v69.3c0,1.8-1.5,3.3-3.3,3.3c-1.8,0-3.3-1.5-3.3-3.3v-69.3H192.6z"/>
	</g>
	<path class="st1" d="M127.5,301v35.7c7.1,0,13-5.8,13-13l8.6-12.4l-8.6-12.4L127.5,301z"/>
	<g>
		<path class="st2" d="M140.4,323.7h52v-39l-10.5-10.5l-15.4,6.2v7.7c0,3.5-2.9,6.9-6.4,7.5l-19.6,3.3
			C140.5,298.8,140.5,323.6,140.4,323.7z"/>
		<path class="st2" d="M130.8,353.9v-61.7c0-1.8-1.5-3.3-3.3-3.3s-3.3,1.5-3.3,3.3v61.7c0,1.8,1.5,3.3,3.3,3.3
			S130.8,355.7,130.8,353.9z"/>
	</g>
	<path class="st1" d="M186,280.2h-23.8c-3.6,0-6.5-2.9-6.5-6.5v-8.6H186V280.2z"/>
	<path class="st3" d="M192.5,271.6v13c0,3.6-2.9,6.5-6.5,6.5c-3.6,0-6.5-2.9-6.5-6.5v-13c0-3.6,2.9-6.5,6.5-6.5
		C189.6,265.2,192.5,268,192.5,271.6z"/>
	<circle class="st3" cx="172.8" cy="269.7" r="1.4"/>
	<ellipse class="st3" cx="155.8" cy="268.3" rx="3.9" ry="3.2"/>
</g>
<g>
	<g>
		<path class="st1" d="M198.8,250.2l0.1-34.9h5.2v34.9c0,1.5-1.2,2.7-2.7,2.7C200,252.9,198.8,251.7,198.8,250.2L198.8,250.2z"/>
		<path class="st1" d="M217,215.3h5.2v34.9c0,1.5-0.8,2.7-2.2,2.7c-1.5,0-3-1.2-3-2.7V215.3z"/>
		<path class="st1" d="M233,194.2v56c0,1.5-1.2,2.7-2.7,2.7s-2.7-1.2-2.7-2.7v-56H233z"/>
	</g>
	<path class="st1" d="M180.4,207.4v28.8c5.8,0,10.5-4.7,10.5-10.5l7-10l-7-10L180.4,207.4z"/>
	<g>
		<path class="st2" d="M190.8,225.8h42v-31.5l-8.5-8.5l-12.4,5v6.2c0,2.8-2.3,5.6-5.2,6.1l-15.8,2.7
			C190.9,205.7,190.9,225.7,190.8,225.8z"/>
		<path class="st2" d="M183.1,250.2v-49.9c0-1.5-1.2-2.7-2.7-2.7s-2.7,1.2-2.7,2.7v49.9c0,1.5,1.2,2.7,2.7,2.7
			S183.1,251.7,183.1,250.2z"/>
	</g>
	<path class="st1" d="M227.6,190.7h-19.2c-2.9,0-5.2-2.3-5.2-5.2v-7h24.5V190.7z"/>
	<path class="st3" d="M232.9,183.7v10.5c0,2.9-2.3,5.2-5.2,5.2s-5.2-2.3-5.2-5.2v-10.5c0-2.9,2.3-5.2,5.2-5.2
		S232.9,180.8,232.9,183.7z"/>
	<circle class="st3" cx="217" cy="182.2" r="1.1"/>
	<ellipse class="st3" cx="203.3" cy="181.1" rx="3.2" ry="2.6"/>
</g>
<g>
	<g>
		<path class="st4" d="M77.9,354.2c0,1.6-1.3,3-3,3s-3-1.3-3-3v-39.1h5.9L77.9,354.2L77.9,354.2z"/>
		<path class="st4" d="M57.5,354.2c0,1.6-1.7,3-3.4,3s-2.5-1.3-2.5-3v-39.1h5.9V354.2z"/>
		<path class="st4" d="M45.6,278.3v75.9c0,1.6-1.3,3-3,3s-3-1.3-3-3v-75.9H45.6z"/>
	</g>
	<path class="st4" d="M86.7,304.5L79,315.7l7.8,11.2c0,6.4,5.3,11.7,11.7,11.7v-32.3L86.7,304.5z"/>
	<g>
		<path class="st5" d="M86.7,304.5l-17.7-3c-3.2-0.6-5.8-3.6-5.8-6.8v-16.3H49.4h-9.5v48.6h47C86.7,326.8,86.7,304.5,86.7,304.5z"/>
		<path class="st4" d="M61.2,284.8H39.6c-3.3,0-5.9-2.6-5.9-5.9v-7.8h27.4V284.8z"/>
		<path class="st6" d="M67,277v11.7c0,3.3-2.6,5.9-5.9,5.9c-3.3,0-5.9-2.6-5.9-5.9V277c0-3.3,2.6-5.9,5.9-5.9
			C64.4,271.1,67,273.7,67,277z"/>
		<circle class="st3" cx="49.3" cy="275.3" r="1.2"/>
		<ellipse class="st6" cx="33.9" cy="274" rx="3.6" ry="2.9"/>
		<path class="st4" d="M98.4,357.2c1.6,0,3-1.3,3-3v-57.3c0-1.6-1.3-3-3-3c-1.6,0-3,1.3-3,3v57.3C95.5,355.8,96.8,357.2,98.4,357.2z
			"/>
	</g>
</g>
<g>
	<g>
		<path class="st4" d="M331.4,354.2l0.1-39.1h5.9v39.1c0,1.6-1.3,3-3,3S331.4,355.8,331.4,354.2L331.4,354.2z"/>
		<path class="st4" d="M351.8,315.1h5.9v39.1c0,1.6-0.9,3-2.5,3c-1.6,0-3.4-1.3-3.4-3V315.1z"/>
		<path class="st4" d="M369.7,278.3v75.9c0,1.6-1.3,3-3,3s-3-1.3-3-3v-75.9H369.7z"/>
	</g>
	<path class="st4" d="M310.9,306.4v32.3c6.4,0,11.7-5.3,11.7-11.7l7.8-11.2l-7.8-11.2L310.9,306.4z"/>
	<g>
		<path class="st5" d="M322.5,326.9h47v-48.6H360H346v16.3c0,3.2-2.6,6.2-5.8,6.8l-17.7,3C322.6,304.5,322.6,326.8,322.5,326.9z"/>
		<path class="st4" d="M348.2,271.1h27.4v7.8c0,3.3-2.6,5.9-5.9,5.9h-21.5V271.1z"/>
		<path class="st6" d="M348.2,271.1c3.3,0,5.9,2.6,5.9,5.9v11.7c0,3.3-2.6,5.9-5.9,5.9s-5.9-2.6-5.9-5.9V277
			C342.3,273.7,344.9,271.1,348.2,271.1z"/>
		<circle class="st3" cx="360.1" cy="275.3" r="1.2"/>
		<ellipse class="st6" cx="375.4" cy="274" rx="3.6" ry="2.9"/>
		<path class="st4" d="M313.9,354.2v-57.3c0-1.6-1.3-3-3-3s-3,1.3-3,3v57.3c0,1.6,1.3,3,3,3S313.9,355.8,313.9,354.2z"/>
	</g>
</g>
<g>
	<g>
		<path class="st4" d="M287.2,248c0,1.3-1.1,2.4-2.4,2.4c-1.3,0-2.4-1.1-2.4-2.4v-31.6h4.7L287.2,248L287.2,248z"/>
		<path class="st4" d="M270.7,248c0,1.3-1.4,2.4-2.7,2.4c-1.3,0-2-1.1-2-2.4v-31.6h4.7V248z"/>
		<path class="st4" d="M261.1,186.7V248c0,1.3-1.1,2.4-2.4,2.4c-1.3,0-2.4-1.1-2.4-2.4v-61.3H261.1z"/>
	</g>
	<path class="st4" d="M294.3,207.8l-6.3,9.1l6.3,9.1c0,5.2,4.3,9.5,9.5,9.5v-26.1L294.3,207.8z"/>
	<g>
		<path class="st5" d="M294.3,207.8l-14.3-2.4c-2.6-0.5-4.7-2.9-4.7-5.5v-13.2h-11.2h-7.7V226h37.9
			C294.3,225.9,294.3,207.8,294.3,207.8z"/>
		<path class="st4" d="M273.7,191.9h-17.4c-2.6,0-4.7-2.1-4.7-4.7v-6.3h22.1V191.9z"/>
		<path class="st6" d="M278.4,185.7v9.5c0,2.6-2.1,4.7-4.7,4.7s-4.7-2.1-4.7-4.7v-9.5c0-2.6,2.1-4.7,4.7-4.7
			C276.3,180.9,278.4,183,278.4,185.7z"/>
		<circle class="st3" cx="264" cy="184.3" r="1"/>
		<ellipse class="st6" cx="251.6" cy="183.3" rx="2.9" ry="2.3"/>
		<path class="st4" d="M303.8,250.4c1.3,0,2.4-1.1,2.4-2.4v-46.3c0-1.3-1.1-2.4-2.4-2.4s-2.4,1.1-2.4,2.4V248
			C301.4,249.4,302.5,250.4,303.8,250.4z"/>
	</g>
</g>
<g>
	<g>
		<path class="st4" d="M174.9,79.6c0,1-0.8,1.8-1.8,1.8c-1,0-1.8-0.8-1.8-1.8V56.4h3.5L174.9,79.6L174.9,79.6z"/>
		<path class="st4" d="M162.8,79.6c0,1-1,1.8-2,1.8c-1,0-1.5-0.8-1.5-1.8V56.4h3.5V79.6z"/>
		<path class="st4" d="M155.7,34.5v45c0,1-0.8,1.8-1.8,1.8s-1.8-0.8-1.8-1.8v-45H155.7z"/>
	</g>
	<path class="st4" d="M180.2,50l-4.6,6.7l4.6,6.7c0,3.8,3.1,7,7,7V51.2L180.2,50z"/>
	<g>
		<path class="st5" d="M180.2,50l-10.5-1.8c-1.9-0.3-3.4-2.2-3.4-4v-9.7H158h-5.6v28.9h27.9C180.2,63.3,180.2,50,180.2,50z"/>
		<path class="st4" d="M165,38.3h-12.8c-1.9,0-3.5-1.5-3.5-3.5v-4.6H165V38.3z"/>
		<path class="st6" d="M168.4,33.7v7c0,1.9-1.5,3.5-3.5,3.5c-1.9,0-3.5-1.5-3.5-3.5v-7c0-1.9,1.5-3.5,3.5-3.5
			C166.9,30.2,168.4,31.8,168.4,33.7z"/>
		<circle class="st3" cx="157.9" cy="32.7" r="0.7"/>
		<ellipse class="st6" cx="148.8" cy="32" rx="2.1" ry="1.7"/>
		<path class="st4" d="M187.1,81.3c1,0,1.8-0.8,1.8-1.8v-34c0-1-0.8-1.8-1.8-1.8c-1,0-1.8,0.8-1.8,1.8v34
			C185.3,80.5,186.1,81.3,187.1,81.3z"/>
	</g>
</g>
<g>
	<g>
		<path class="st7" d="M139.9,245.9c0,1.5-1.2,2.7-2.7,2.7c-1.5,0-2.7-1.2-2.7-2.7v-26.4h5.2L139.9,245.9L139.9,245.9z"/>
		<path class="st7" d="M121.7,245.9c0,1.5-1.5,2.7-3,2.7c-1.5,0-2.2-1.2-2.2-2.7v-26.4h5.2V245.9z"/>
		<path class="st7" d="M111,198.6v47.4c0,1.5-1.2,2.7-2.7,2.7c-1.5,0-2.7-1.2-2.7-2.7v-47.4H111z"/>
	</g>
	<path class="st3" d="M147.7,210l-7,10l7,10c0,5.8,4.7,10.5,10.5,10.5v-28.8L147.7,210z"/>
	<g>
		<path class="st3" d="M147.7,210l-15.8-2.7c-2.8-0.5-5.2-3.3-5.2-6.1V195l-12.4-5l-8.5,8.5v31.5h42C147.7,230,147.7,210,147.7,210z
			"/>
		<path class="st3" d="M158.2,248.5c1.5,0,2.7-1.2,2.7-2.7v-40.4c0-1.5-1.2-2.7-2.7-2.7c-1.5,0-2.7,1.2-2.7,2.7v40.4
			C155.6,247.3,156.8,248.5,158.2,248.5z"/>
	</g>
	<path class="st3" d="M111,182.8h24.5v7c0,2.9-2.3,5.2-5.2,5.2H111V182.8z"/>
	<path class="st8" d="M111,182.8c2.9,0,5.2,2.3,5.2,5.2v10.5c0,2.9-2.3,5.2-5.2,5.2c-2.9,0-5.2-2.3-5.2-5.2V188
		C105.7,185.2,108.1,182.8,111,182.8z"/>
	<circle class="st8" cx="121.6" cy="186.5" r="1.1"/>
	<ellipse class="st8" cx="135.3" cy="185.3" rx="3.2" ry="2.6"/>
</g>
<g>
	<g>
		<path class="st6" d="M259.1,353.8c0,1.8-1.5,3.3-3.3,3.3s-3.3-1.5-3.3-3.3v-32.6h6.5L259.1,353.8L259.1,353.8z"/>
		<path class="st9" d="M236.5,353.8c0,1.8-1.9,3.3-3.7,3.3s-2.8-1.5-2.8-3.3v-32.6h6.5V353.8z"/>
		<path class="st6" d="M223.4,295.2v58.7c0,1.8-1.5,3.3-3.3,3.3c-1.8,0-3.3-1.5-3.3-3.3v-58.7H223.4z"/>
	</g>
	<path class="st9" d="M268.7,309.4l-8.6,12.4l8.6,12.4c0,7.1,5.8,13,13,13v-35.6L268.7,309.4z"/>
	<g>
		<path class="st9" d="M268.7,309.4l-19.6-3.3c-3.5-0.6-6.4-4-6.4-7.5v-7.7l-15.4-6.2l-10.5,10.5v39h52
			C268.7,334.1,268.7,309.4,268.7,309.4z"/>
		<path class="st9" d="M281.8,357.1c1.8,0,3.3-1.5,3.3-3.3v-50.1c0-1.8-1.5-3.3-3.3-3.3c-1.8,0-3.3,1.5-3.3,3.3v50.1
			C278.5,355.6,280,357.1,281.8,357.1z"/>
	</g>
	<path class="st9" d="M223.4,275.7h30.3v8.6c0,3.6-2.9,6.5-6.5,6.5h-23.8V275.7z"/>
	<path class="st6" d="M223.4,275.7c3.6,0,6.5,2.9,6.5,6.5v13c0,3.6-2.9,6.5-6.5,6.5s-6.5-2.9-6.5-6.5v-13
		C216.9,278.7,219.7,275.7,223.4,275.7z"/>
	<circle class="st0" cx="236.4" cy="280.4" r="1.4"/>
	<ellipse class="st6" cx="253.4" cy="278.9" rx="3.9" ry="3.2"/>
</g>
<g>
	<g>
		<path class="st6" d="M165.2,159.4c0,1.5-1.2,2.7-2.7,2.7c-1.5,0-2.7-1.2-2.7-2.7v-26.4h5.2L165.2,159.4L165.2,159.4z"/>
		<path class="st9" d="M147,159.4c0,1.5-1.5,2.7-3,2.7s-2.2-1.2-2.2-2.7v-26.4h5.2V159.4z"/>
		<path class="st6" d="M136.3,112.1v47.4c0,1.5-1.2,2.7-2.7,2.7s-2.7-1.2-2.7-2.7v-47.4H136.3z"/>
	</g>
	<path class="st9" d="M173,123.5l-7,10l7,10c0,5.8,4.7,10.5,10.5,10.5v-28.8L173,123.5z"/>
	<g>
		<path class="st9" d="M173,123.5l-15.8-2.7c-2.8-0.5-5.2-3.3-5.2-6.1v-6.2l-12.4-5l-8.5,8.5v31.5h42C173,143.5,173,123.5,173,123.5
			z"/>
		<path class="st9" d="M183.6,162.1c1.5,0,2.7-1.2,2.7-2.7V119c0-1.5-1.2-2.7-2.7-2.7c-1.5,0-2.7,1.2-2.7,2.7v40.4
			C180.9,160.9,182.1,162.1,183.6,162.1z"/>
	</g>
	<path class="st9" d="M136.3,96.3h24.5v7c0,2.9-2.3,5.2-5.2,5.2h-19.2V96.3z"/>
	<path class="st6" d="M136.3,96.3c2.9,0,5.2,2.3,5.2,5.2V112c0,2.9-2.3,5.2-5.2,5.2c-2.9,0-5.2-2.3-5.2-5.2v-10.5
		C131.1,98.7,133.4,96.3,136.3,96.3z"/>
	<circle class="st0" cx="146.9" cy="100.1" r="1.1"/>
	<ellipse class="st6" cx="160.6" cy="98.9" rx="3.2" ry="2.6"/>
</g>
<g>
	<g>
		<path class="st6" d="M54.6,245.9l0.1-26.4h5.2v26.4c0,1.5-1.2,2.7-2.7,2.7S54.6,247.3,54.6,245.9L54.6,245.9z"/>
		<path class="st9" d="M72.8,219.5H78v26.4c0,1.5-0.8,2.7-2.2,2.7c-1.5,0-3-1.2-3-2.7V219.5z"/>
		<path class="st6" d="M88.8,198.6v47.4c0,1.5-1.2,2.7-2.7,2.7s-2.7-1.2-2.7-2.7v-47.4H88.8z"/>
	</g>
	<path class="st9" d="M36.3,211.8v28.8c5.8,0,10.5-4.7,10.5-10.5l7-10l-7-10L36.3,211.8z"/>
	<g>
		<path class="st9" d="M46.7,230.1h42v-31.5l-8.5-8.5l-12.4,5v6.2c0,2.8-2.3,5.6-5.2,6.1L46.8,210C46.8,210,46.8,230,46.7,230.1z"/>
		<path class="st9" d="M38.9,245.9v-40.4c0-1.5-1.2-2.7-2.7-2.7c-1.5,0-2.7,1.2-2.7,2.7v40.4c0,1.5,1.2,2.7,2.7,2.7
			C37.7,248.5,38.9,247.3,38.9,245.9z"/>
	</g>
	<path class="st9" d="M83.4,195H64.2c-2.9,0-5.2-2.3-5.2-5.2v-7h24.5V195z"/>
	<path class="st6" d="M88.7,188v10.5c0,2.9-2.3,5.2-5.2,5.2c-2.9,0-5.2-2.3-5.2-5.2V188c0-2.9,2.3-5.2,5.2-5.2
		C86.4,182.8,88.7,185.2,88.7,188z"/>
	<circle class="st0" cx="72.9" cy="186.5" r="1.1"/>
	<ellipse class="st6" cx="59.1" cy="185.3" rx="3.2" ry="2.6"/>
</g>
<g>
	<g>
		<path class="st6" d="M338.7,76.9l0-13.9h2.8v13.9c0,0.8-0.6,1.4-1.4,1.4S338.7,77.7,338.7,76.9L338.7,76.9z"/>
		<path class="st9" d="M348.3,63.1h2.8v13.9c0,0.8-0.4,1.4-1.2,1.4s-1.6-0.6-1.6-1.4V63.1z"/>
		<path class="st6" d="M356.6,52.1V77c0,0.8-0.6,1.4-1.4,1.4c-0.8,0-1.4-0.6-1.4-1.4V52.1H356.6z"/>
	</g>
	<path class="st9" d="M329.1,59v15.1c3,0,5.5-2.5,5.5-5.5l3.7-5.3l-3.7-5.3L329.1,59z"/>
	<g>
		<path class="st9" d="M334.5,68.6h22.1V52.1l-4.5-4.5l-6.5,2.6v3.2c0,1.5-1.2,2.9-2.7,3.2l-8.3,1.4
			C334.6,58.1,334.6,68.6,334.5,68.6z"/>
		<path class="st9" d="M330.4,76.9V55.7c0-0.8-0.6-1.4-1.4-1.4c-0.8,0-1.4,0.6-1.4,1.4v21.3c0,0.8,0.6,1.4,1.4,1.4
			C329.8,78.3,330.4,77.7,330.4,76.9z"/>
	</g>
	<path class="st9" d="M353.9,50.2h-10.1c-1.5,0-2.8-1.2-2.8-2.8v-3.7h12.9V50.2z"/>
	<path class="st6" d="M356.6,46.5V52c0,1.5-1.2,2.8-2.8,2.8s-2.8-1.2-2.8-2.8v-5.5c0-1.5,1.2-2.8,2.8-2.8S356.6,45,356.6,46.5z"/>
	<circle class="st0" cx="348.3" cy="45.7" r="0.6"/>
	<ellipse class="st6" cx="341.1" cy="45.1" rx="1.7" ry="1.4"/>
</g>
<g>
	<g>
		<path class="st6" d="M343,245.9l0.1-26.4h5.2v26.4c0,1.5-1.2,2.7-2.7,2.7S343,247.3,343,245.9L343,245.9z"/>
		<path class="st9" d="M361.2,219.5h5.2v26.4c0,1.5-0.8,2.7-2.2,2.7c-1.5,0-3-1.2-3-2.7V219.5z"/>
		<path class="st6" d="M377.2,198.6v47.4c0,1.5-1.2,2.7-2.7,2.7c-1.5,0-2.7-1.2-2.7-2.7v-47.4H377.2z"/>
	</g>
	<path class="st9" d="M324.7,211.8v28.8c5.8,0,10.5-4.7,10.5-10.5l7-10l-7-10L324.7,211.8z"/>
	<g>
		<path class="st9" d="M335.1,230.1h42v-31.5l-8.5-8.5l-12.4,5v6.2c0,2.8-2.3,5.6-5.2,6.1l-15.8,2.7
			C335.2,210,335.2,230,335.1,230.1z"/>
		<path class="st9" d="M327.3,245.9v-40.4c0-1.5-1.2-2.7-2.7-2.7s-2.7,1.2-2.7,2.7v40.4c0,1.5,1.2,2.7,2.7,2.7
			C326.1,248.5,327.3,247.3,327.3,245.9z"/>
	</g>
	<path class="st9" d="M371.8,195h-19.2c-2.9,0-5.2-2.3-5.2-5.2v-7h24.5V195z"/>
	<path class="st6" d="M377.1,188v10.5c0,2.9-2.3,5.2-5.2,5.2c-2.9,0-5.2-2.3-5.2-5.2V188c0-2.9,2.3-5.2,5.2-5.2
		C374.8,182.8,377.1,185.2,377.1,188z"/>
	<circle class="st0" cx="361.3" cy="186.5" r="1.1"/>
	<ellipse class="st6" cx="347.5" cy="185.3" rx="3.2" ry="2.6"/>
</g>
<g>
	<g>
		<path class="st7" d="M232.6,161.1l0.1-26.4h5.2v26.4c0,1.5-1.2,2.7-2.7,2.7C233.8,163.8,232.6,162.6,232.6,161.1L232.6,161.1z"/>
		<path class="st7" d="M250.8,134.8h5.2v26.4c0,1.5-0.8,2.7-2.2,2.7c-1.5,0-3-1.2-3-2.7V134.8z"/>
		<path class="st7" d="M266.7,113.8v47.4c0,1.5-1.2,2.7-2.7,2.7s-2.7-1.2-2.7-2.7v-47.4H266.7z"/>
	</g>
	<path class="st3" d="M214.2,127v28.8c5.8,0,10.5-4.7,10.5-10.5l7-10l-7-10L214.2,127z"/>
	<g>
		<path class="st3" d="M224.6,145.3h42v-40.1h-8.5h-12.4v11.2c0,2.8-2.3,5.6-5.2,6.1l-15.8,2.7C224.7,125.2,224.7,145.2,224.6,145.3
			z"/>
		<path class="st3" d="M251,94.7h24.5v7c0,2.9-2.3,5.2-5.2,5.2H251V94.7z"/>
		<path class="st8" d="M251,94.6c2.9,0,5.2,2.3,5.2,5.2v10.5c0,2.9-2.3,5.2-5.2,5.2c-2.9,0-5.2-2.3-5.2-5.2V99.8
			C245.8,97,248.1,94.6,251,94.6z"/>
		<circle class="st8" cx="261.6" cy="98.4" r="1.1"/>
		<ellipse class="st8" cx="275.3" cy="97.2" rx="3.2" ry="2.6"/>
		<path class="st3" d="M216.9,161.1v-40.4c0-1.5-1.2-2.7-2.7-2.7c-1.5,0-2.7,1.2-2.7,2.7v40.4c0,1.5,1.2,2.7,2.7,2.7
			C215.7,163.8,216.9,162.6,216.9,161.1z"/>
	</g>
</g>
<g>
	<g>
		<path class="st7" d="M248.6,75.8l0.1-17.8h3.5v17.8c0,1-0.8,1.8-1.8,1.8C249.5,77.6,248.6,76.8,248.6,75.8L248.6,75.8z"/>
		<path class="st7" d="M260.9,58h3.5v17.8c0,1-0.5,1.8-1.5,1.8s-2-0.8-2-1.8V58z"/>
		<path class="st7" d="M271.7,43.9v32c0,1-0.8,1.8-1.8,1.8c-1,0-1.8-0.8-1.8-1.8v-32H271.7z"/>
	</g>
	<path class="st3" d="M236.2,52.8v19.4c3.9,0,7.1-3.2,7.1-7.1l4.7-6.8l-4.7-6.8L236.2,52.8z"/>
	<g>
		<path class="st3" d="M243.2,65.2h28.4V38h-5.7h-8.4v7.6c0,1.9-1.6,3.8-3.5,4.1l-10.7,1.8C243.3,51.6,243.3,65.1,243.2,65.2z"/>
		<path class="st3" d="M261.1,30.9h16.5v4.7c0,2-1.6,3.5-3.5,3.5h-13V30.9z"/>
		<path class="st8" d="M261.1,30.9c2,0,3.5,1.6,3.5,3.5v7.1c0,2-1.6,3.5-3.5,3.5c-2,0-3.5-1.6-3.5-3.5v-7.1
			C257.6,32.5,259.1,30.9,261.1,30.9z"/>
		<circle class="st8" cx="268.3" cy="33.4" r="0.8"/>
		<ellipse class="st8" cx="277.5" cy="32.6" rx="2.1" ry="1.7"/>
		<path class="st3" d="M238,75.8V48.5c0-1-0.8-1.8-1.8-1.8s-1.8,0.8-1.8,1.8v27.3c0,1,0.8,1.8,1.8,1.8C237.2,77.6,238,76.8,238,75.8
			z"/>
	</g>
</g>
</svg>
