<?xml version="1.0" encoding="utf-8"?>
<!-- Generator: Adobe Illustrator 22.1.0, SVG Export Plug-In . SVG Version: 6.00 Build 0)  -->
<svg version="1.1" id="Layer_1" xmlns="http://www.w3.org/2000/svg" xmlns:xlink="http://www.w3.org/1999/xlink" x="0px" y="0px"
	 viewBox="0 0 336.7 293.7" style="enable-background:new 0 0 336.7 293.7;" xml:space="preserve">
<style type="text/css">
	.st0{fill:#647CA0;}
	.st1{fill:none;stroke:#647CA0;stroke-width:5.6683;stroke-linecap:round;stroke-linejoin:round;stroke-miterlimit:10;}
	.st2{fill:none;stroke:#394961;stroke-width:7.5578;stroke-linecap:square;stroke-miterlimit:10;stroke-dasharray:0.9447,14.1708;}
	.st3{fill:#60025E;}
	.st4{opacity:0.2;}
	.st5{enable-background:new    ;}
	.st6{fill:#FFFFFF;}
	.st7{fill:#FADC3C;}
	.st8{fill:#A5D73C;}
	.st9{fill:#00CDC8;}
	.st10{fill:#F24044;}
</style>
<g>
	<g>
		<rect x="30.6" y="35" class="st0" width="5" height="19.1"/>
		<path class="st1" d="M56.7,105.5h-31c-4.8,0-8.8-3.9-8.8-8.8V53.3c0-4.8,3.9-8.8,8.8-8.8h4.8"/>
		<path class="st2" d="M56.7,105.5h-31c-4.8,0-8.8-3.9-8.8-8.8V53.3c0-4.8,3.9-8.8,8.8-8.8h4.8"/>
	</g>
	<rect x="56.7" y="95.9" class="st0" width="5" height="19.1"/>
</g>
<g>
	<g>
		<rect x="137.2" y="35" class="st0" width="5" height="19.1"/>
		<path class="st1" d="M116,105.5h31c4.8,0,8.8-3.9,8.8-8.8V53.3c0-4.8-3.9-8.8-8.8-8.8h-4.8"/>
		<path class="st2" d="M116,105.5h31c4.8,0,8.8-3.9,8.8-8.8V53.3c0-4.8-3.9-8.8-8.8-8.8h-4.8"/>
	</g>
	<rect x="111" y="96" class="st0" width="5" height="19.1"/>
	<path class="st3" d="M106.6,137.9h-40c-2.8,0-5-2.2-5-5V99c0-2.8,2.2-5,5-5h40c2.8,0,5,2.2,5,5v33.9
		C111.6,135.7,109.4,137.9,106.6,137.9z"/>
	<g class="st4">
		<g>
			<circle cx="68.2" cy="97.2" r="1.7"/>
			<circle cx="80.5" cy="97.2" r="1.7"/>
			<circle cx="92.8" cy="97.2" r="1.7"/>
			<circle cx="105.1" cy="97.2" r="1.7"/>
		</g>
		<g>
			<circle cx="68.2" cy="134.8" r="1.7"/>
			<circle cx="80.5" cy="134.8" r="1.7"/>
			<circle cx="92.8" cy="134.8" r="1.7"/>
			<circle cx="105.1" cy="134.8" r="1.7"/>
		</g>
		<rect x="63" y="99.8" width="48" height="0.5"/>
		<rect x="63" y="131.6" width="48" height="0.5"/>
		<path d="M105.4,130.2h-37c-2,0-3.7-1.7-3.7-3.7v-20.9c0-2,1.7-3.7,3.7-3.7h37c2,0,3.7,1.7,3.7,3.7v20.9
			C109.1,128.6,107.4,130.2,105.4,130.2z"/>
	</g>
	<g>
		<g class="st5">
			<path class="st6" d="M85.6,120.2c-0.2-0.2-0.3-0.5-0.3-0.9c0-1,0.2-1.8,0.5-2.4c0.4-0.7,0.9-1.4,1.5-2.2c0.5-0.6,0.9-1.2,1.2-1.6
				s0.4-0.9,0.4-1.4c0-0.6-0.2-1-0.6-1.4c-0.4-0.3-1-0.5-1.7-0.5c-0.6,0-1.2,0.1-1.8,0.4c-0.6,0.3-1.3,0.7-2,1.2
				c-0.4,0.2-0.8,0.4-1.1,0.4c-0.3,0-0.6-0.1-0.8-0.4c-0.2-0.3-0.3-0.6-0.3-1c0-0.5,0.2-0.9,0.6-1.2c0.7-0.6,1.6-1.1,2.6-1.5
				s2-0.5,3-0.5c1.1,0,2,0.2,2.9,0.6c0.8,0.4,1.5,0.9,1.9,1.5c0.5,0.6,0.7,1.4,0.7,2.2c0,0.9-0.2,1.7-0.7,2.4
				c-0.4,0.7-1.1,1.4-1.9,2.3c-0.7,0.7-1.3,1.4-1.6,1.9s-0.6,1.1-0.7,1.7c-0.1,0.3-0.2,0.5-0.4,0.6c-0.2,0.1-0.4,0.2-0.7,0.2
				C86.1,120.5,85.8,120.4,85.6,120.2z M85,125.5c-0.4-0.4-0.6-0.8-0.6-1.4s0.2-1,0.6-1.4s0.8-0.6,1.4-0.6s1,0.2,1.4,0.6
				s0.6,0.8,0.6,1.4s-0.2,1-0.6,1.4s-0.8,0.6-1.4,0.6S85.4,125.9,85,125.5z"/>
		</g>
	</g>
</g>
<g>
	<path class="st7" d="M80.7,71.9H39.4c-2.4,0-4.4-2-4.4-4.4V26.2c0-2.4,2-4.4,4.4-4.4h41.3c2.4,0,4.4,2,4.4,4.4v41.3
		C85.1,70,83.1,71.9,80.7,71.9z"/>
	<g class="st4">
		<g>
			<circle cx="41.6" cy="25.1" r="1.7"/>
			<circle cx="53.9" cy="25.1" r="1.7"/>
			<circle cx="66.2" cy="25.1" r="1.7"/>
			<circle cx="78.5" cy="25.1" r="1.7"/>
		</g>
		<g>
			<circle cx="41.6" cy="68.8" r="1.7"/>
			<circle cx="53.9" cy="68.8" r="1.7"/>
			<circle cx="66.2" cy="68.8" r="1.7"/>
			<circle cx="78.5" cy="68.8" r="1.7"/>
		</g>
		<rect x="36.4" y="27.8" width="48" height="0.5"/>
		<rect x="36.4" y="65.6" width="48" height="0.5"/>
		<path d="M78.8,64.3h-37c-2,0-3.7-1.7-3.7-3.7v-27c0-2,1.7-3.7,3.7-3.7h37c2,0,3.7,1.7,3.7,3.7v27C82.5,62.6,80.9,64.3,78.8,64.3z"
			/>
	</g>
</g>
<g>
	<path class="st7" d="M133.9,71.9H92.6c-2.4,0-4.4-2-4.4-4.4V26.2c0-2.4,2-4.4,4.4-4.4h41.3c2.4,0,4.4,2,4.4,4.4v41.3
		C138.2,70,136.3,71.9,133.9,71.9z"/>
	<g class="st4">
		<g>
			<circle cx="94.8" cy="25.1" r="1.7"/>
			<circle cx="107.1" cy="25.1" r="1.7"/>
			<circle cx="119.3" cy="25.1" r="1.7"/>
			<circle cx="131.6" cy="25.1" r="1.7"/>
		</g>
		<g>
			<circle cx="94.8" cy="68.8" r="1.7"/>
			<circle cx="107.1" cy="68.8" r="1.7"/>
			<circle cx="119.3" cy="68.8" r="1.7"/>
			<circle cx="131.6" cy="68.8" r="1.7"/>
		</g>
		<rect x="89.6" y="27.8" width="48" height="0.5"/>
		<rect x="89.6" y="65.6" width="48" height="0.5"/>
		<path d="M132,64.3H95c-2,0-3.7-1.7-3.7-3.7v-27c0-2,1.7-3.7,3.7-3.7h37c2,0,3.7,1.7,3.7,3.7v27C135.7,62.6,134,64.3,132,64.3z"/>
	</g>
	<g>
		<g class="st5">
			<path class="st6" d="M120.3,49.6c0.3,0.2,0.4,0.6,0.4,1c0,0.9-0.5,1.3-1.6,1.3h-1.3V54c0,0.5-0.2,1-0.5,1.3s-0.7,0.4-1.2,0.4
				s-0.9-0.1-1.2-0.4c-0.3-0.3-0.5-0.7-0.5-1.3v-2.1h-6.9c-0.5,0-0.8-0.1-1.1-0.4c-0.3-0.3-0.4-0.6-0.4-1s0.1-0.8,0.4-1.2l8.1-11.7
				c0.2-0.2,0.4-0.4,0.7-0.6c0.3-0.1,0.5-0.2,0.8-0.2c0.5,0,0.9,0.1,1.2,0.4c0.3,0.3,0.5,0.7,0.5,1.3v10.7h1.3
				C119.7,49.3,120,49.4,120.3,49.6z M109.6,49.3h4.9v-7.1L109.6,49.3z"/>
		</g>
	</g>
</g>
<g>
	<path class="st3" d="M86.6,58.6c-6.4,0-11.7-5.2-11.7-11.7c0-6.4,5.2-11.7,11.7-11.7c6.4,0,11.7,5.2,11.7,11.7
		C98.3,53.3,93.1,58.6,86.6,58.6z"/>
	<path class="st6" d="M86.6,35.7c6.2,0,11.2,5,11.2,11.2s-5,11.2-11.2,11.2s-11.2-5-11.2-11.2S80.4,35.7,86.6,35.7 M86.6,34.8
		c-6.7,0-12.1,5.4-12.1,12.1S80,59,86.6,59s12.1-5.4,12.1-12.1S93.3,34.8,86.6,34.8L86.6,34.8z"/>
</g>
<g>
	<g class="st5">
		<path class="st6" d="M91.2,46.3c0.2,0.2,0.3,0.4,0.3,0.6c0,0.3-0.1,0.5-0.3,0.6c-0.2,0.2-0.4,0.3-0.6,0.3h-3.2V51
			c0,0.3-0.1,0.5-0.3,0.7c-0.2,0.2-0.4,0.3-0.6,0.3s-0.5-0.1-0.6-0.3c-0.2-0.2-0.3-0.4-0.3-0.7v-3.2h-3.2c-0.3,0-0.5-0.1-0.6-0.3
			c-0.2-0.2-0.3-0.4-0.3-0.6c0-0.3,0.1-0.5,0.3-0.6c0.2-0.2,0.4-0.3,0.6-0.3h3.2v-3.2c0-0.3,0.1-0.5,0.3-0.6
			c0.2-0.2,0.4-0.3,0.6-0.3s0.5,0.1,0.6,0.3c0.2,0.2,0.3,0.4,0.3,0.6V46h3.2C90.8,46,91,46.1,91.2,46.3z"/>
	</g>
</g>
<g>
	<g class="st5">
		<path class="st6" d="M65.4,47.6c0.6,0.8,0.9,1.7,0.9,2.9c0,1.6-0.6,2.9-1.8,3.8c-1.2,0.9-2.8,1.4-4.8,1.4c-1.1,0-2.2-0.2-3.3-0.5
			s-1.9-0.8-2.7-1.5c-0.4-0.4-0.6-0.8-0.6-1.2s0.1-0.7,0.3-1s0.5-0.4,0.8-0.4c0.2,0,0.3,0,0.5,0.1c0.1,0.1,0.3,0.2,0.6,0.3
			c0.7,0.5,1.4,0.9,2.1,1.1c0.7,0.3,1.4,0.4,2.2,0.4c1.2,0,2-0.2,2.6-0.7s0.8-1.2,0.8-2.1c0-0.9-0.3-1.6-0.9-2.1
			c-0.6-0.4-1.5-0.7-2.7-0.7H58c-0.4,0-0.7-0.1-0.9-0.4c-0.2-0.3-0.3-0.6-0.3-0.9c0-0.4,0.1-0.7,0.3-0.9c0.2-0.3,0.5-0.4,0.9-0.4h1
			c2.4,0,3.6-0.9,3.6-2.7c0-0.8-0.3-1.5-0.8-1.9c-0.5-0.5-1.2-0.7-2.1-0.7c-1.3,0-2.6,0.5-4.1,1.5c-0.2,0.1-0.4,0.2-0.6,0.3
			c-0.1,0.1-0.3,0.1-0.5,0.1c-0.3,0-0.6-0.1-0.8-0.4c-0.2-0.3-0.3-0.6-0.3-1c0-0.3,0-0.5,0.1-0.7s0.2-0.4,0.5-0.6
			c0.7-0.6,1.6-1.1,2.6-1.5s2.1-0.5,3.1-0.5c1.8,0,3.3,0.4,4.4,1.3c1.1,0.9,1.6,2.1,1.6,3.6c0,1-0.3,1.9-0.8,2.7s-1.2,1.3-2.2,1.7
			C64,46.3,64.9,46.8,65.4,47.6z"/>
	</g>
</g>
<g>
	<g>
		<rect x="193.1" y="35" class="st0" width="5" height="19.1"/>
		<path class="st1" d="M219.3,105.5h-31c-4.8,0-8.8-3.9-8.8-8.8V53.3c0-4.8,3.9-8.8,8.8-8.8h4.8"/>
		<path class="st2" d="M219.3,105.5h-31c-4.8,0-8.8-3.9-8.8-8.8V53.3c0-4.8,3.9-8.8,8.8-8.8h4.8"/>
	</g>
	<rect x="219.3" y="95.9" class="st0" width="5" height="19.1"/>
</g>
<g>
	<g>
		<rect x="299.7" y="35" class="st0" width="5" height="19.1"/>
		<path class="st1" d="M278.6,105.5h31c4.8,0,8.8-3.9,8.8-8.8V53.3c0-4.8-3.9-8.8-8.8-8.8h-4.8"/>
		<path class="st2" d="M278.6,105.5h31c4.8,0,8.8-3.9,8.8-8.8V53.3c0-4.8-3.9-8.8-8.8-8.8h-4.8"/>
	</g>
	<rect x="273.5" y="96" class="st0" width="5" height="19.1"/>
	<path class="st3" d="M269.2,137.9h-40c-2.8,0-5-2.2-5-5V99c0-2.8,2.2-5,5-5h40c2.8,0,5,2.2,5,5v33.9
		C274.2,135.7,272,137.9,269.2,137.9z"/>
	<g class="st4">
		<g>
			<circle cx="230.8" cy="97.2" r="1.7"/>
			<circle cx="243.1" cy="97.2" r="1.7"/>
			<circle cx="255.3" cy="97.2" r="1.7"/>
			<circle cx="267.6" cy="97.2" r="1.7"/>
		</g>
		<g>
			<circle cx="230.8" cy="134.8" r="1.7"/>
			<circle cx="243.1" cy="134.8" r="1.7"/>
			<circle cx="255.3" cy="134.8" r="1.7"/>
			<circle cx="267.6" cy="134.8" r="1.7"/>
		</g>
		<rect x="225.6" y="99.8" width="48" height="0.5"/>
		<rect x="225.6" y="131.6" width="48" height="0.5"/>
		<path d="M268,130.2h-37c-2,0-3.7-1.7-3.7-3.7v-20.9c0-2,1.7-3.7,3.7-3.7h37c2,0,3.7,1.7,3.7,3.7v20.9
			C271.7,128.6,270,130.2,268,130.2z"/>
	</g>
	<g>
		<g class="st5">
			<path class="st6" d="M248.2,120.2c-0.2-0.2-0.3-0.5-0.3-0.9c0-1,0.2-1.8,0.5-2.4c0.4-0.7,0.9-1.4,1.5-2.2
				c0.5-0.6,0.9-1.2,1.2-1.6c0.2-0.4,0.4-0.9,0.4-1.4c0-0.6-0.2-1-0.6-1.4c-0.4-0.3-1-0.5-1.7-0.5c-0.6,0-1.2,0.1-1.8,0.4
				s-1.3,0.7-2,1.2c-0.4,0.2-0.8,0.4-1.1,0.4s-0.6-0.1-0.8-0.4s-0.3-0.6-0.3-1c0-0.5,0.2-0.9,0.6-1.2c0.7-0.6,1.6-1.1,2.6-1.5
				s2-0.5,3-0.5c1.1,0,2,0.2,2.9,0.6c0.8,0.4,1.5,0.9,1.9,1.5c0.5,0.6,0.7,1.4,0.7,2.2c0,0.9-0.2,1.7-0.7,2.4
				c-0.4,0.7-1.1,1.4-1.9,2.3c-0.7,0.7-1.3,1.4-1.6,1.9s-0.6,1.1-0.7,1.7c-0.1,0.3-0.2,0.5-0.4,0.6s-0.4,0.2-0.7,0.2
				C248.6,120.5,248.4,120.4,248.2,120.2z M247.6,125.5c-0.4-0.4-0.6-0.8-0.6-1.4s0.2-1,0.6-1.4c0.4-0.4,0.8-0.6,1.4-0.6
				s1,0.2,1.4,0.6s0.6,0.8,0.6,1.4s-0.2,1-0.6,1.4c-0.4,0.4-0.8,0.6-1.4,0.6C248.4,126.1,248,125.9,247.6,125.5z"/>
		</g>
	</g>
</g>
<g>
	<path class="st8" d="M243.3,71.9H202c-2.4,0-4.4-2-4.4-4.4V26.2c0-2.4,2-4.4,4.4-4.4h41.3c2.4,0,4.4,2,4.4,4.4v41.3
		C247.7,70,245.7,71.9,243.3,71.9z"/>
	<g class="st4">
		<g>
			<circle cx="204.2" cy="25.1" r="1.7"/>
			<circle cx="216.5" cy="25.1" r="1.7"/>
			<circle cx="228.8" cy="25.1" r="1.7"/>
			<circle cx="241.1" cy="25.1" r="1.7"/>
		</g>
		<g>
			<circle cx="204.2" cy="68.8" r="1.7"/>
			<circle cx="216.5" cy="68.8" r="1.7"/>
			<circle cx="228.8" cy="68.8" r="1.7"/>
			<circle cx="241.1" cy="68.8" r="1.7"/>
		</g>
		<rect x="199" y="27.8" width="48" height="0.5"/>
		<rect x="199" y="65.6" width="48" height="0.5"/>
		<path d="M241.4,64.3h-37c-2,0-3.7-1.7-3.7-3.7v-27c0-2,1.7-3.7,3.7-3.7h37c2,0,3.7,1.7,3.7,3.7v27
			C245.1,62.6,243.5,64.3,241.4,64.3z"/>
	</g>
</g>
<g>
	<path class="st8" d="M296.4,71.9h-41.3c-2.4,0-4.4-2-4.4-4.4V26.2c0-2.4,2-4.4,4.4-4.4h41.3c2.4,0,4.4,2,4.4,4.4v41.3
		C300.8,70,298.8,71.9,296.4,71.9z"/>
	<g class="st4">
		<g>
			<ellipse transform="matrix(0.4473 -0.8944 0.8944 0.4473 119.8183 244.1101)" cx="257.4" cy="25.1" rx="1.7" ry="1.7"/>
			<circle cx="269.6" cy="25.1" r="1.7"/>
			<circle cx="281.9" cy="25.1" r="1.7"/>
			<circle cx="294.2" cy="25.1" r="1.7"/>
		</g>
		<g>
			<ellipse transform="matrix(0.3162 -0.9487 0.9487 0.3162 110.7359 291.2363)" cx="257.4" cy="68.8" rx="1.7" ry="1.7"/>
			<circle cx="269.6" cy="68.8" r="1.7"/>
			<circle cx="281.9" cy="68.8" r="1.7"/>
			<circle cx="294.2" cy="68.8" r="1.7"/>
		</g>
		<rect x="252.1" y="27.8" width="48" height="0.5"/>
		<rect x="252.1" y="65.6" width="48" height="0.5"/>
		<path d="M294.6,64.3h-37c-2,0-3.7-1.7-3.7-3.7v-27c0-2,1.7-3.7,3.7-3.7h37c2,0,3.7,1.7,3.7,3.7v27
			C298.3,62.6,296.6,64.3,294.6,64.3z"/>
	</g>
	<g>
		<g class="st5">
			<path class="st6" d="M282.6,54.2c0,0.9-0.5,1.4-1.6,1.4h-10c-0.5,0-0.8-0.1-1.1-0.4c-0.3-0.3-0.4-0.6-0.4-1c0-0.5,0.2-1,0.6-1.4
				l6-6.4c0.7-0.8,1.3-1.5,1.6-2.2c0.3-0.7,0.5-1.3,0.5-2c0-0.8-0.2-1.5-0.7-1.9s-1.1-0.7-2-0.7c-0.7,0-1.4,0.1-2.1,0.4
				c-0.7,0.3-1.4,0.6-2,1.1c-0.2,0.1-0.4,0.2-0.5,0.3c-0.2,0.1-0.4,0.1-0.5,0.1c-0.3,0-0.6-0.1-0.8-0.4c-0.2-0.3-0.3-0.6-0.3-1
				c0-0.3,0-0.5,0.1-0.7s0.2-0.4,0.5-0.6c0.8-0.6,1.7-1.1,2.7-1.5s2.1-0.5,3.1-0.5c1.8,0,3.2,0.5,4.3,1.4s1.6,2.1,1.6,3.7
				c0,1.1-0.2,2.1-0.7,3s-1.2,2-2.3,3.1l-4.6,4.8h6.9C282,52.8,282.6,53.3,282.6,54.2z"/>
		</g>
	</g>
</g>
<g>
	<path class="st3" d="M249.2,58.6c-6.4,0-11.7-5.2-11.7-11.7c0-6.4,5.2-11.7,11.7-11.7s11.7,5.2,11.7,11.7
		C260.9,53.3,255.6,58.6,249.2,58.6z"/>
	<path class="st6" d="M249.2,35.7c6.2,0,11.2,5,11.2,11.2s-5,11.2-11.2,11.2s-11.2-5-11.2-11.2S243,35.7,249.2,35.7 M249.2,34.8
		c-6.7,0-12.1,5.4-12.1,12.1S242.5,59,249.2,59s12.1-5.4,12.1-12.1S255.9,34.8,249.2,34.8L249.2,34.8z"/>
</g>
<g>
	<g class="st5">
		<path class="st6" d="M253.8,46.3c0.2,0.2,0.3,0.4,0.3,0.6c0,0.3-0.1,0.5-0.3,0.6c-0.2,0.2-0.4,0.3-0.6,0.3H250V51
			c0,0.3-0.1,0.5-0.3,0.7s-0.4,0.3-0.6,0.3c-0.3,0-0.5-0.1-0.6-0.3c-0.2-0.2-0.3-0.4-0.3-0.7v-3.2H245c-0.3,0-0.5-0.1-0.6-0.3
			c-0.2-0.2-0.3-0.4-0.3-0.6c0-0.3,0.1-0.5,0.3-0.6c0.2-0.2,0.4-0.3,0.6-0.3h3.2v-3.2c0-0.3,0.1-0.5,0.3-0.6
			c0.2-0.2,0.4-0.3,0.6-0.3c0.3,0,0.5,0.1,0.6,0.3c0.2,0.2,0.3,0.4,0.3,0.6V46h3.2C253.4,46,253.6,46.1,253.8,46.3z"/>
	</g>
</g>
<g>
	<g class="st5">
		<path class="st6" d="M229.4,54.2c0,0.9-0.5,1.4-1.6,1.4h-10c-0.5,0-0.8-0.1-1.1-0.4c-0.3-0.3-0.4-0.6-0.4-1c0-0.5,0.2-1,0.6-1.4
			l6-6.4c0.7-0.8,1.3-1.5,1.6-2.2s0.5-1.3,0.5-2c0-0.8-0.2-1.5-0.7-1.9s-1.1-0.7-2-0.7c-0.7,0-1.4,0.1-2.1,0.4
			c-0.7,0.3-1.4,0.6-2,1.1c-0.2,0.1-0.4,0.2-0.5,0.3c-0.2,0.1-0.4,0.1-0.5,0.1c-0.3,0-0.6-0.1-0.8-0.4c-0.2-0.3-0.3-0.6-0.3-1
			c0-0.3,0-0.5,0.1-0.7s0.2-0.4,0.5-0.6c0.8-0.6,1.7-1.1,2.7-1.5s2.1-0.5,3.1-0.5c1.8,0,3.2,0.5,4.3,1.4s1.6,2.1,1.6,3.7
			c0,1.1-0.2,2.1-0.7,3s-1.2,2-2.3,3.1l-4.6,4.8h6.9C228.9,52.8,229.4,53.3,229.4,54.2z"/>
	</g>
</g>
<g>
	<g>
		<rect x="30.6" y="173.8" class="st0" width="5" height="19.1"/>
		<path class="st1" d="M56.7,244.3h-31c-4.8,0-8.8-3.9-8.8-8.8v-43.4c0-4.8,3.9-8.8,8.8-8.8h4.8"/>
		<path class="st2" d="M56.7,244.3h-31c-4.8,0-8.8-3.9-8.8-8.8v-43.4c0-4.8,3.9-8.8,8.8-8.8h4.8"/>
	</g>
	<rect x="56.7" y="234.8" class="st0" width="5" height="19.1"/>
</g>
<g>
	<g>
		<rect x="137.2" y="173.9" class="st0" width="5" height="19.1"/>
		<path class="st1" d="M116,244.3h31c4.8,0,8.8-3.9,8.8-8.8v-43.4c0-4.8-3.9-8.8-8.8-8.8h-4.8"/>
		<path class="st2" d="M116,244.3h31c4.8,0,8.8-3.9,8.8-8.8v-43.4c0-4.8-3.9-8.8-8.8-8.8h-4.8"/>
	</g>
	<rect x="111" y="234.8" class="st0" width="5" height="19.1"/>
	<path class="st3" d="M106.6,276.7h-40c-2.8,0-5-2.2-5-5v-33.9c0-2.8,2.2-5,5-5h40c2.8,0,5,2.2,5,5v33.9
		C111.6,274.5,109.4,276.7,106.6,276.7z"/>
	<g class="st4">
		<g>
			<circle cx="68.2" cy="236" r="1.7"/>
			<circle cx="80.5" cy="236" r="1.7"/>
			<circle cx="92.8" cy="236" r="1.7"/>
			<circle cx="105.1" cy="236" r="1.7"/>
		</g>
		<g>
			<circle cx="68.2" cy="273.6" r="1.7"/>
			<circle cx="80.5" cy="273.6" r="1.7"/>
			<circle cx="92.8" cy="273.6" r="1.7"/>
			<circle cx="105.1" cy="273.6" r="1.7"/>
		</g>
		<rect x="63" y="238.7" width="48" height="0.5"/>
		<rect x="63" y="270.4" width="48" height="0.5"/>
		<path d="M105.4,269.1h-37c-2,0-3.7-1.7-3.7-3.7v-20.9c0-2,1.7-3.7,3.7-3.7h37c2,0,3.7,1.7,3.7,3.7v20.9
			C109.1,267.4,107.4,269.1,105.4,269.1z"/>
	</g>
	<g>
		<g class="st5">
			<path class="st6" d="M85.6,259c-0.2-0.2-0.3-0.5-0.3-0.9c0-1,0.2-1.8,0.5-2.4c0.4-0.7,0.9-1.4,1.5-2.2c0.5-0.6,0.9-1.2,1.2-1.6
				s0.4-0.9,0.4-1.4c0-0.6-0.2-1-0.6-1.4c-0.4-0.3-1-0.5-1.7-0.5c-0.6,0-1.2,0.1-1.8,0.4c-0.6,0.3-1.3,0.7-2,1.2
				c-0.4,0.2-0.8,0.4-1.1,0.4c-0.3,0-0.6-0.1-0.8-0.4c-0.2-0.3-0.3-0.6-0.3-1c0-0.5,0.2-0.9,0.6-1.2c0.7-0.6,1.6-1.1,2.6-1.5
				s2-0.5,3-0.5c1.1,0,2,0.2,2.9,0.6c0.8,0.4,1.5,0.9,1.9,1.5c0.5,0.6,0.7,1.4,0.7,2.2c0,0.9-0.2,1.7-0.7,2.4
				c-0.4,0.7-1.1,1.4-1.9,2.3c-0.7,0.7-1.3,1.4-1.6,1.9s-0.6,1.1-0.7,1.7c-0.1,0.3-0.2,0.5-0.4,0.6c-0.2,0.1-0.4,0.2-0.7,0.2
				C86.1,259.4,85.8,259.3,85.6,259z M85,264.3c-0.4-0.4-0.6-0.8-0.6-1.4s0.2-1,0.6-1.4s0.8-0.6,1.4-0.6s1,0.2,1.4,0.6
				s0.6,0.8,0.6,1.4s-0.2,1-0.6,1.4s-0.8,0.6-1.4,0.6S85.4,264.7,85,264.3z"/>
		</g>
	</g>
</g>
<g>
	<path class="st9" d="M80.7,210.7H39.4c-2.4,0-4.4-2-4.4-4.4V165c0-2.4,2-4.4,4.4-4.4h41.3c2.4,0,4.4,2,4.4,4.4v41.3
		C85.1,208.8,83.1,210.7,80.7,210.7z"/>
	<g class="st4">
		<g>
			<circle cx="41.6" cy="163.9" r="1.7"/>
			<circle cx="53.9" cy="163.9" r="1.7"/>
			<circle cx="66.2" cy="163.9" r="1.7"/>
			<circle cx="78.5" cy="163.9" r="1.7"/>
		</g>
		<g>
			<circle cx="41.6" cy="207.7" r="1.7"/>
			<circle cx="53.9" cy="207.7" r="1.7"/>
			<circle cx="66.2" cy="207.7" r="1.7"/>
			<circle cx="78.5" cy="207.7" r="1.7"/>
		</g>
		<rect x="36.4" y="166.6" width="48" height="0.5"/>
		<rect x="36.4" y="204.4" width="48" height="0.5"/>
		<path d="M78.8,203.1h-37c-2,0-3.7-1.7-3.7-3.7v-27c0-2,1.7-3.7,3.7-3.7h37c2,0,3.7,1.7,3.7,3.7v27
			C82.5,201.4,80.9,203.1,78.8,203.1z"/>
	</g>
</g>
<g>
	<path class="st9" d="M133.9,210.7H92.6c-2.4,0-4.4-2-4.4-4.4V165c0-2.4,2-4.4,4.4-4.4h41.3c2.4,0,4.4,2,4.4,4.4v41.3
		C138.2,208.8,136.3,210.7,133.9,210.7z"/>
	<g class="st4">
		<g>
			<circle cx="94.8" cy="163.9" r="1.7"/>
			<circle cx="107.1" cy="163.9" r="1.7"/>
			<circle cx="119.3" cy="163.9" r="1.7"/>
			<circle cx="131.6" cy="163.9" r="1.7"/>
		</g>
		<g>
			<circle cx="94.8" cy="207.7" r="1.7"/>
			<circle cx="107.1" cy="207.7" r="1.7"/>
			<circle cx="119.3" cy="207.7" r="1.7"/>
			<circle cx="131.6" cy="207.7" r="1.7"/>
		</g>
		<rect x="89.6" y="166.6" width="48" height="0.5"/>
		<rect x="89.6" y="204.4" width="48" height="0.5"/>
		<path d="M132,203.1H95c-2,0-3.7-1.7-3.7-3.7v-27c0-2,1.7-3.7,3.7-3.7h37c2,0,3.7,1.7,3.7,3.7v27C135.7,201.4,134,203.1,132,203.1z
			"/>
	</g>
	<g>
		<g class="st5">
			<path class="st6" d="M118.6,186.5c0.6,0.8,0.9,1.7,0.9,2.9c0,1.6-0.6,2.9-1.8,3.8c-1.2,0.9-2.8,1.4-4.8,1.4
				c-1.1,0-2.2-0.2-3.3-0.5s-1.9-0.8-2.7-1.5c-0.4-0.4-0.6-0.8-0.6-1.2s0.1-0.7,0.3-1c0.2-0.3,0.5-0.4,0.8-0.4c0.2,0,0.3,0,0.5,0.1
				c0.1,0.1,0.3,0.2,0.6,0.3c0.7,0.5,1.4,0.9,2.1,1.1c0.7,0.3,1.4,0.4,2.2,0.4c1.2,0,2-0.2,2.6-0.7s0.8-1.2,0.8-2.1
				c0-0.9-0.3-1.6-0.9-2.1c-0.6-0.4-1.5-0.7-2.7-0.7h-1.5c-0.4,0-0.7-0.1-0.9-0.4c-0.2-0.3-0.3-0.6-0.3-0.9c0-0.4,0.1-0.7,0.3-0.9
				c0.2-0.3,0.5-0.4,0.9-0.4h1.1c2.4,0,3.6-0.9,3.6-2.7c0-0.8-0.3-1.5-0.8-1.9c-0.5-0.5-1.2-0.7-2.1-0.7c-1.3,0-2.6,0.5-4.1,1.5
				c-0.2,0.1-0.4,0.2-0.6,0.3c-0.1,0.1-0.3,0.1-0.5,0.1c-0.3,0-0.6-0.1-0.8-0.4c-0.2-0.3-0.3-0.6-0.3-1c0-0.3,0-0.5,0.1-0.7
				s0.2-0.4,0.5-0.6c0.7-0.6,1.6-1.1,2.6-1.5s2.1-0.5,3.1-0.5c1.8,0,3.3,0.4,4.4,1.3c1.1,0.9,1.6,2.1,1.6,3.6c0,1-0.3,1.9-0.8,2.7
				s-1.2,1.3-2.2,1.7C117.2,185.1,118,185.7,118.6,186.5z"/>
		</g>
	</g>
</g>
<g>
	<path class="st3" d="M86.6,197.4c-6.4,0-11.7-5.2-11.7-11.7c0-6.4,5.2-11.7,11.7-11.7c6.4,0,11.7,5.2,11.7,11.7
		C98.3,192.2,93.1,197.4,86.6,197.4z"/>
	<path class="st6" d="M86.6,174.5c6.2,0,11.2,5,11.2,11.2s-5,11.2-11.2,11.2s-11.2-5-11.2-11.2S80.4,174.5,86.6,174.5 M86.6,173.6
		c-6.7,0-12.1,5.4-12.1,12.1c0,6.7,5.4,12.1,12.1,12.1s12.1-5.4,12.1-12.1C98.7,179.1,93.3,173.6,86.6,173.6L86.6,173.6z"/>
</g>
<g>
	<g class="st5">
		<path class="st6" d="M91.2,185.1c0.2,0.2,0.3,0.4,0.3,0.6c0,0.3-0.1,0.5-0.3,0.6c-0.2,0.2-0.4,0.3-0.6,0.3h-3.2v3.2
			c0,0.3-0.1,0.5-0.3,0.7c-0.2,0.2-0.4,0.3-0.6,0.3s-0.5-0.1-0.6-0.3c-0.2-0.2-0.3-0.4-0.3-0.7v-3.2h-3.2c-0.3,0-0.5-0.1-0.6-0.3
			c-0.2-0.2-0.3-0.4-0.3-0.6c0-0.3,0.1-0.5,0.3-0.6c0.2-0.2,0.4-0.3,0.6-0.3h3.2v-3.2c0-0.3,0.1-0.5,0.3-0.6
			c0.2-0.2,0.4-0.3,0.6-0.3s0.5,0.1,0.6,0.3c0.2,0.2,0.3,0.4,0.3,0.6v3.2h3.2C90.8,184.9,91,185,91.2,185.1z"/>
	</g>
</g>
<g>
	<g class="st5">
		<path class="st6" d="M66.5,176.2c0.2,0.3,0.4,0.6,0.4,1s-0.1,0.8-0.4,1.3l-8.4,15.2c-0.4,0.6-0.8,0.9-1.4,0.9
			c-0.4,0-0.8-0.1-1.1-0.4s-0.5-0.6-0.5-1.1c0-0.3,0.1-0.6,0.3-0.9l7.6-13.6h-7.9c-1.1,0-1.6-0.4-1.6-1.3c0-0.9,0.5-1.4,1.6-1.4
			h10.5C65.9,175.8,66.2,176,66.5,176.2z"/>
	</g>
</g>
<g>
	<g>
		<rect x="193.1" y="173.8" class="st0" width="5" height="19.1"/>
		<path class="st1" d="M219.3,244.3h-31c-4.8,0-8.8-3.9-8.8-8.8v-43.4c0-4.8,3.9-8.8,8.8-8.8h4.8"/>
		<path class="st2" d="M219.3,244.3h-31c-4.8,0-8.8-3.9-8.8-8.8v-43.4c0-4.8,3.9-8.8,8.8-8.8h4.8"/>
	</g>
	<rect x="219.3" y="234.8" class="st0" width="5" height="19.1"/>
</g>
<g>
	<g>
		<rect x="299.7" y="173.9" class="st0" width="5" height="19.1"/>
		<path class="st1" d="M278.6,244.3h31c4.8,0,8.8-3.9,8.8-8.8v-43.4c0-4.8-3.9-8.8-8.8-8.8h-4.8"/>
		<path class="st2" d="M278.6,244.3h31c4.8,0,8.8-3.9,8.8-8.8v-43.4c0-4.8-3.9-8.8-8.8-8.8h-4.8"/>
	</g>
	<rect x="273.5" y="234.8" class="st0" width="5" height="19.1"/>
	<path class="st3" d="M269.2,276.7h-40c-2.8,0-5-2.2-5-5v-33.9c0-2.8,2.2-5,5-5h40c2.8,0,5,2.2,5,5v33.9
		C274.2,274.5,272,276.7,269.2,276.7z"/>
	<g class="st4">
		<g>
			<circle cx="230.8" cy="236" r="1.7"/>
			<circle cx="243.1" cy="236" r="1.7"/>
			<circle cx="255.3" cy="236" r="1.7"/>
			<circle cx="267.6" cy="236" r="1.7"/>
		</g>
		<g>
			<circle cx="230.8" cy="273.6" r="1.7"/>
			<circle cx="243.1" cy="273.6" r="1.7"/>
			<circle cx="255.3" cy="273.6" r="1.7"/>
			<circle cx="267.6" cy="273.6" r="1.7"/>
		</g>
		<rect x="225.6" y="238.7" width="48" height="0.5"/>
		<rect x="225.6" y="270.4" width="48" height="0.5"/>
		<path d="M268,269.1h-37c-2,0-3.7-1.7-3.7-3.7v-20.9c0-2,1.7-3.7,3.7-3.7h37c2,0,3.7,1.7,3.7,3.7v20.9
			C271.7,267.4,270,269.1,268,269.1z"/>
	</g>
	<g>
		<g class="st5">
			<path class="st6" d="M248.2,259c-0.2-0.2-0.3-0.5-0.3-0.9c0-1,0.2-1.8,0.5-2.4c0.4-0.7,0.9-1.4,1.5-2.2c0.5-0.6,0.9-1.2,1.2-1.6
				c0.2-0.4,0.4-0.9,0.4-1.4c0-0.6-0.2-1-0.6-1.4c-0.4-0.3-1-0.5-1.7-0.5c-0.6,0-1.2,0.1-1.8,0.4c-0.6,0.3-1.3,0.7-2,1.2
				c-0.4,0.2-0.8,0.4-1.1,0.4s-0.6-0.1-0.8-0.4c-0.2-0.3-0.3-0.6-0.3-1c0-0.5,0.2-0.9,0.6-1.2c0.7-0.6,1.6-1.1,2.6-1.5s2-0.5,3-0.5
				c1.1,0,2,0.2,2.9,0.6c0.8,0.4,1.5,0.9,1.9,1.5c0.5,0.6,0.7,1.4,0.7,2.2c0,0.9-0.2,1.7-0.7,2.4c-0.4,0.7-1.1,1.4-1.9,2.3
				c-0.7,0.7-1.3,1.4-1.6,1.9s-0.6,1.1-0.7,1.7c-0.1,0.3-0.2,0.5-0.4,0.6s-0.4,0.2-0.7,0.2C248.6,259.4,248.4,259.3,248.2,259z
				 M247.6,264.3c-0.4-0.4-0.6-0.8-0.6-1.4s0.2-1,0.6-1.4c0.4-0.4,0.8-0.6,1.4-0.6s1,0.2,1.4,0.6s0.6,0.8,0.6,1.4s-0.2,1-0.6,1.4
				c-0.4,0.4-0.8,0.6-1.4,0.6C248.4,264.9,248,264.7,247.6,264.3z"/>
		</g>
	</g>
</g>
<g>
	<path class="st10" d="M243.3,210.7H202c-2.4,0-4.4-2-4.4-4.4V165c0-2.4,2-4.4,4.4-4.4h41.3c2.4,0,4.4,2,4.4,4.4v41.3
		C247.7,208.8,245.7,210.7,243.3,210.7z"/>
	<g class="st4">
		<g>
			<circle cx="204.2" cy="163.9" r="1.7"/>
			<circle cx="216.5" cy="163.9" r="1.7"/>
			<circle cx="228.8" cy="163.9" r="1.7"/>
			<circle cx="241.1" cy="163.9" r="1.7"/>
		</g>
		<g>
			<circle cx="204.2" cy="207.7" r="1.7"/>
			<circle cx="216.5" cy="207.7" r="1.7"/>
			<circle cx="228.8" cy="207.7" r="1.7"/>
			<circle cx="241.1" cy="207.7" r="1.7"/>
		</g>
		<rect x="199" y="166.6" width="48" height="0.5"/>
		<rect x="199" y="204.4" width="48" height="0.5"/>
		<path d="M241.4,203.1h-37c-2,0-3.7-1.7-3.7-3.7v-27c0-2,1.7-3.7,3.7-3.7h37c2,0,3.7,1.7,3.7,3.7v27
			C245.1,201.4,243.5,203.1,241.4,203.1z"/>
	</g>
</g>
<g>
	<path class="st10" d="M296.4,210.7h-41.3c-2.4,0-4.4-2-4.4-4.4V165c0-2.4,2-4.4,4.4-4.4h41.3c2.4,0,4.4,2,4.4,4.4v41.3
		C300.8,208.8,298.8,210.7,296.4,210.7z"/>
	<g class="st4">
		<g>
			<ellipse transform="matrix(0.3162 -0.9487 0.9487 0.3162 20.5157 356.2639)" cx="257.4" cy="163.9" rx="1.7" ry="1.7"/>
			<circle cx="269.6" cy="163.9" r="1.7"/>
			<circle cx="281.9" cy="163.9" r="1.7"/>
			<circle cx="294.2" cy="163.9" r="1.7"/>
		</g>
		<g>
			<ellipse transform="matrix(0.3162 -0.9487 0.9487 0.3162 -21.0368 386.2136)" cx="257.4" cy="207.7" rx="1.7" ry="1.7"/>
			<circle cx="269.6" cy="207.7" r="1.7"/>
			<circle cx="281.9" cy="207.7" r="1.7"/>
			<circle cx="294.2" cy="207.7" r="1.7"/>
		</g>
		<rect x="252.1" y="166.6" width="48" height="0.5"/>
		<rect x="252.1" y="204.4" width="48" height="0.5"/>
		<path d="M294.6,203.1h-37c-2,0-3.7-1.7-3.7-3.7v-27c0-2,1.7-3.7,3.7-3.7h37c2,0,3.7,1.7,3.7,3.7v27
			C298.3,201.4,296.6,203.1,294.6,203.1z"/>
	</g>
	<g>
		<g class="st5">
			<path class="st6" d="M274.9,193.1c0,0.8-0.5,1.3-1.4,1.3h-8c-1,0-1.4-0.4-1.4-1.3c0-0.8,0.5-1.2,1.4-1.2h2.5v-10.8l-2.3,1.4
				c-0.2,0.1-0.4,0.2-0.6,0.2c-0.3,0-0.6-0.1-0.8-0.4c-0.2-0.3-0.3-0.6-0.3-0.9c0-0.5,0.2-0.8,0.6-1.1l3.7-2.3
				c0.5-0.3,0.9-0.4,1.3-0.4s0.8,0.1,1.1,0.4s0.4,0.6,0.4,1.1v12.8h2.5C274.4,191.9,274.9,192.3,274.9,193.1z"/>
			<path class="st6" d="M286.5,184.4c0.8,0.4,1.4,1.1,1.9,1.9c0.4,0.8,0.7,1.7,0.7,2.8s-0.2,2-0.7,2.9c-0.5,0.8-1.2,1.5-2.1,1.9
				c-0.9,0.5-1.9,0.7-3.1,0.7c-1,0-1.9-0.2-2.9-0.5c-0.9-0.3-1.7-0.8-2.4-1.3c-0.4-0.3-0.5-0.7-0.5-1.1c0-0.3,0.1-0.6,0.3-0.9
				c0.2-0.2,0.4-0.4,0.7-0.4c0.2,0,0.3,0,0.4,0.1s0.3,0.1,0.5,0.3c0.6,0.4,1.2,0.8,1.8,1c0.6,0.2,1.2,0.4,1.9,0.4
				c1,0,1.8-0.3,2.4-0.8s0.8-1.3,0.8-2.2s-0.3-1.7-0.8-2.2c-0.6-0.5-1.3-0.8-2.3-0.8c-0.6,0-1.2,0.1-1.6,0.3c-0.5,0.2-1,0.5-1.5,0.9
				c-0.3,0.2-0.6,0.3-0.9,0.3s-0.6-0.1-0.8-0.3c-0.2-0.2-0.3-0.4-0.3-0.8v-7.4c0-0.4,0.1-0.8,0.4-1c0.3-0.3,0.6-0.4,1.1-0.4h7.9
				c0.9,0,1.4,0.4,1.4,1.2s-0.5,1.2-1.4,1.2h-6.3v4.5c0.8-0.6,1.8-0.8,3-0.8C284.8,183.7,285.7,184,286.5,184.4z"/>
		</g>
	</g>
</g>
<g>
	<path class="st3" d="M249.2,197.4c-6.4,0-11.7-5.2-11.7-11.7c0-6.4,5.2-11.7,11.7-11.7s11.7,5.2,11.7,11.7S255.6,197.4,249.2,197.4
		z"/>
	<path class="st6" d="M249.2,174.5c6.2,0,11.2,5,11.2,11.2s-5,11.2-11.2,11.2s-11.2-5-11.2-11.2S243,174.5,249.2,174.5 M249.2,173.6
		c-6.7,0-12.1,5.4-12.1,12.1c0,6.7,5.4,12.1,12.1,12.1s12.1-5.4,12.1-12.1C261.3,179.1,255.9,173.6,249.2,173.6L249.2,173.6z"/>
</g>
<g>
	<g class="st5">
		<path class="st6" d="M253.8,185.1c0.2,0.2,0.3,0.4,0.3,0.6c0,0.3-0.1,0.5-0.3,0.6c-0.2,0.2-0.4,0.3-0.6,0.3H250v3.2
			c0,0.3-0.1,0.5-0.3,0.7s-0.4,0.3-0.6,0.3c-0.3,0-0.5-0.1-0.6-0.3c-0.2-0.2-0.3-0.4-0.3-0.7v-3.2H245c-0.3,0-0.5-0.1-0.6-0.3
			c-0.2-0.2-0.3-0.4-0.3-0.6c0-0.3,0.1-0.5,0.3-0.6c0.2-0.2,0.4-0.3,0.6-0.3h3.2v-3.2c0-0.3,0.1-0.5,0.3-0.6
			c0.2-0.2,0.4-0.3,0.6-0.3c0.3,0,0.5,0.1,0.6,0.3c0.2,0.2,0.3,0.4,0.3,0.6v3.2h3.2C253.4,184.9,253.6,185,253.8,185.1z"/>
	</g>
</g>
<g>
	<g class="st5">
		<path class="st6" d="M219.8,192.2c0,0.8-0.5,1.3-1.4,1.3h-8c-1,0-1.4-0.4-1.4-1.3c0-0.8,0.5-1.2,1.4-1.2h2.5v-10.8l-2.3,1.4
			c-0.2,0.1-0.4,0.2-0.6,0.2c-0.3,0-0.6-0.1-0.8-0.4c-0.2-0.3-0.3-0.6-0.3-0.9c0-0.5,0.2-0.8,0.6-1.1l3.7-2.3
			c0.5-0.3,0.9-0.4,1.3-0.4c0.4,0,0.8,0.1,1.1,0.4c0.3,0.3,0.4,0.6,0.4,1.1V191h2.5C219.4,191,219.8,191.4,219.8,192.2z"/>
		<path class="st6" d="M223.3,191.5c-1-1.5-1.6-3.6-1.6-6.4c0-2.8,0.5-4.9,1.6-6.3c1-1.5,2.5-2.2,4.5-2.2s3.5,0.7,4.5,2.2
			s1.6,3.6,1.6,6.3s-0.5,4.9-1.6,6.4c-1,1.5-2.5,2.2-4.5,2.2C225.9,193.7,224.4,192.9,223.3,191.5z M230.2,189.8
			c0.5-1,0.7-2.5,0.7-4.7s-0.2-3.7-0.7-4.7s-1.3-1.5-2.3-1.5c-1.1,0-1.9,0.5-2.3,1.5c-0.5,1-0.7,2.5-0.7,4.7s0.2,3.7,0.7,4.7
			s1.3,1.5,2.3,1.5S229.7,190.8,230.2,189.8z"/>
	</g>
</g>
</svg>
