<?xml version="1.0" encoding="utf-8"?>
<!-- Generator: Adobe Illustrator 22.1.0, SVG Export Plug-In . SVG Version: 6.00 Build 0)  -->
<svg version="1.1" id="Layer_1" xmlns="http://www.w3.org/2000/svg" xmlns:xlink="http://www.w3.org/1999/xlink" x="0px" y="0px"
	 viewBox="0 0 400 400" style="enable-background:new 0 0 400 400;" xml:space="preserve">
<style type="text/css">
	.st0{fill:#BF515A;}
	.st1{fill:#F2D057;}
	.st2{fill:#4C312C;}
	.st3{fill:#D6805C;}
	.st4{fill:#944851;}
	.st5{fill:#695A69;}
	.st6{fill:#FFFFFF;}
	.st7{fill:#696A6D;}
	.st8{fill:#4980C2;}
	.st9{fill:none;stroke:#CCCCCC;stroke-width:2;stroke-linecap:round;stroke-linejoin:round;stroke-dasharray:0,5.9371;}
	.st10{fill:#FFD782;}
	.st11{fill:#FF6465;}
	.st12{fill:#E3472C;}
	.st13{fill:#FFD884;}
	.st14{fill:#F6F6E7;}
	.st15{fill:#FFC44F;}
	.st16{fill:#F19290;}
	.st17{fill:#E94C4B;}
</style>
<g>
	<polygon class="st0" points="210.9,26.5 220.9,26.5 217.3,20.6 220.9,14.7 207.9,14.7 210.9,17.1 	"/>
	<path class="st0" d="M189.6,102.3v31.1H200v-25.2C195.6,108.2,191.7,105.8,189.6,102.3z"/>
	<path class="st0" d="M210.4,102.3c-2.1,3.5-6,5.9-10.4,5.9v25.2h10.4V102.3z"/>
	<path class="st0" d="M248.7,108.2c-6.7,0-12.2-5.4-12.2-12.2c0,4.1-2.1,7.8-5.2,10v27.4h10.4v53h10.4v-78.8
		C251.1,108,249.9,108.2,248.7,108.2z"/>
	<path class="st0" d="M285.2,96c0,6.7-5.4,12.2-12.2,12.2v78.2h20.9v-78.8C288.9,106.2,285.2,101.5,285.2,96z"/>
	<path class="st1" d="M212.2,96c0,2.3-0.6,4.4-1.7,6.3v31.1h10.4h10.4V106c-2,1.4-4.4,2.2-7,2.2C217.6,108.2,212.2,102.7,212.2,96z"
		/>
	<path class="st1" d="M260.9,96c0,5.5-3.7,10.2-8.7,11.7v78.8H273v-78.2C266.3,108.2,260.9,102.7,260.9,96z"/>
	<path class="st0" d="M114.8,96c0,5.5-3.7,10.2-8.7,11.7v78.8H127v-78.2C120.2,108.2,114.8,102.7,114.8,96z"/>
	<path class="st1" d="M139.1,96c0,6.7-5.4,12.2-12.2,12.2v78.2h20.9v-78.8C142.8,106.2,139.1,101.5,139.1,96z"/>
	<path class="st0" d="M168.7,133.4V106c-3.2-2.2-5.2-5.9-5.2-10c0,6.7-5.4,12.2-12.2,12.2c-1.2,0-2.4-0.2-3.5-0.5v78.8h10.4v-53
		L168.7,133.4L168.7,133.4z"/>
	<path class="st1" d="M189.6,102.3c-1.1-1.8-1.7-4-1.7-6.3c0,6.7-5.4,12.2-12.2,12.2c-2.6,0-5-0.8-7-2.2v27.4h10.4h10.4L189.6,102.3
		L189.6,102.3z"/>
	<path class="st2" d="M231.3,143.8c-5.8,0-10.4-4.7-10.4-10.4c0,5.8-4.7,10.4-10.4,10.4c-5.8,0-10.4-4.7-10.4-10.4
		c0,5.8-4.7,10.4-10.4,10.4c-5.8,0-10.4-4.7-10.4-10.4c0,5.8-4.7,10.4-10.4,10.4s-10.4-4.7-10.4-10.4v53h10.4h20.9h20.9h20.9h10.4
		v-53C241.7,139.1,237.1,143.8,231.3,143.8z"/>
	<path class="st3" d="M114.8,96h-8.7H90.5c0,6.7,5.4,12.2,12.2,12.2c1.2,0,2.4-0.2,3.5-0.5C111.1,106.2,114.8,101.5,114.8,96z"/>
	<path class="st4" d="M114.8,96c0,6.7,5.4,12.2,12.2,12.2c6.7,0,12.2-5.4,12.2-12.2H127L114.8,96L114.8,96z"/>
	<path class="st3" d="M139.1,96c0,5.5,3.7,10.2,8.7,11.7c1.1,0.3,2.3,0.5,3.5,0.5c6.7,0,12.2-5.4,12.2-12.2h-15.6L139.1,96L139.1,96
		z"/>
	<path class="st4" d="M187.8,96h-19.1h-5.2c0,4.1,2.1,7.8,5.2,10c2,1.4,4.4,2.2,7,2.2C182.4,108.2,187.8,102.7,187.8,96z"/>
	<path class="st1" d="M158.3,133.4c0,5.8,4.7,10.4,10.4,10.4s10.4-4.7,10.4-10.4h-10.4H158.3z"/>
	<path class="st4" d="M179.1,133.4c0,5.8,4.7,10.4,10.4,10.4c5.8,0,10.4-4.7,10.4-10.4h-10.4H179.1z"/>
	<path class="st3" d="M200,133.4c0,5.8,4.7,10.4,10.4,10.4c5.8,0,10.4-4.7,10.4-10.4h-10.4H200z"/>
	<path class="st4" d="M231.3,143.8c5.8,0,10.4-4.7,10.4-10.4h-10.4h-10.4C220.9,139.1,225.5,143.8,231.3,143.8z"/>
	<path class="st3" d="M187.8,96c0,2.3,0.6,4.4,1.7,6.3c2.1,3.5,6,5.9,10.4,5.9V96h-10.4L187.8,96L187.8,96z"/>
	<path class="st4" d="M212.2,96c0,6.7,5.4,12.2,12.2,12.2c2.6,0,5-0.8,7-2.2c3.2-2.2,5.2-5.9,5.2-10h-5.2L212.2,96L212.2,96z"/>
	<path class="st3" d="M236.5,96c0,6.7,5.4,12.2,12.2,12.2c1.2,0,2.4-0.2,3.5-0.5c5-1.5,8.7-6.2,8.7-11.7h-8.7L236.5,96L236.5,96z"/>
	<path class="st4" d="M260.9,96c0,6.7,5.4,12.2,12.2,12.2c6.7,0,12.2-5.4,12.2-12.2H273L260.9,96L260.9,96z"/>
	<path class="st3" d="M293.9,96h-8.7c0,5.5,3.7,10.2,8.7,11.7c1.1,0.3,2.3,0.5,3.5,0.5c6.7,0,12.2-5.4,12.2-12.2L293.9,96L293.9,96z
		"/>
	<path class="st3" d="M210.4,102.3c1.1-1.8,1.7-4,1.7-6.3h-1.7H200v12.2C204.4,108.2,208.3,105.8,210.4,102.3z"/>
	<path class="st1" d="M114.8,96c4.7,0,56.5-19.7,84.6-61.7h-0.2C163.1,76.3,96.5,96,90.5,96h15.6H114.8z"/>
	<path class="st1" d="M285.2,96H200l0,0h10.4h1.7h19.1h5.2h15.6h8.7H273H285.2h8.7h15.6c-6,0-72.7-19.7-108.8-61.7h-0.2
		C228.7,76.3,280.5,96,285.2,96z"/>
	<path class="st0" d="M199.6,34.3h-0.2c-28.1,42-79.9,61.7-84.6,61.7H127h12.2C142.5,96,179.5,76.3,199.6,34.3z"/>
	<path class="st1" d="M199.8,34.3h-0.2c-20.1,42-57.1,61.7-60.4,61.7h8.7h15.6C165.5,96,187.7,76.3,199.8,34.3z"/>
	<path class="st0" d="M187.8,96c0.7,0,8.1-19.7,12.1-61.7h-0.2c-12,42-34.3,61.7-36.3,61.7h5.2H187.8z"/>
	<path class="st1" d="M187.8,96h1.7H200l0,0l0,0l0,0l0,0l0,0h0v0h0V34.3h-0.1C195.9,76.3,188.5,96,187.8,96z"/>
	<path class="st0" d="M260.9,96H200l0,0l0,0h85.2c-4.7,0-56.5-19.7-84.6-61.7h-0.2C220.5,76.3,257.5,96,260.9,96z"/>
	<path class="st1" d="M236.5,96H200l0,0l0,0h60.9c-3.4,0-40.4-19.7-60.4-61.7h-0.2C212.3,76.3,234.5,96,236.5,96z"/>
	<path class="st0" d="M212.2,96H200v0h0h36.5c-2,0-24.2-19.7-36.3-61.7h-0.2C204.1,76.3,211.5,96,212.2,96z"/>
	<path class="st1" d="M200,96h12.2c-0.7,0-8.1-19.7-12.1-61.7H200L200,96L200,96z"/>
	<path class="st5" d="M199.6,34.3h0.2h0.2h0.1h0.1h0.2h0.2h0.2h0.2h0.1v-9.6v-7.4v-1.9c-0.3,0.1-0.6,0.2-0.9,0.2s-0.6-0.1-0.9-0.2
		v18.8h0.1h0.2L199.6,34.3L199.6,34.3z"/>
	<path class="st0" d="M200.9,15.4c1-0.4,1.7-1.3,1.7-2.5c0-1.4-1.2-2.6-2.6-2.6s-2.6,1.2-2.6,2.6c0,1.1,0.7,2.1,1.7,2.5
		c0.3,0.1,0.6,0.2,0.9,0.2S200.6,15.5,200.9,15.4z"/>
	<polygon class="st0" points="210.9,28.8 210.9,26.5 210.9,17.1 207.9,17.1 200.9,17.1 200.9,28.8 	"/>
	<polygon class="st4" points="207.9,14.7 207.9,17.1 210.9,17.1 	"/>
</g>
<g>
	<g>
		<path class="st0" d="M354.9,382H39.1c-4.8,0-8.6-3.9-8.6-8.6V182.6c0-4.8,3.9-8.6,8.6-8.6h315.7c4.8,0,8.6,3.9,8.6,8.6v190.7
			C363.5,378.1,359.6,382,354.9,382z"/>
	</g>
	<path class="st6" d="M344.8,376.3c0-7.2,5.9-13.1,13.1-13.1V195c-7.2,0-13-5.8-13.1-12.9c-0.1-0.1-0.1-0.1-0.2-0.2H49.4
		c-0.1,0.1-0.1,0.1-0.2,0.2c-0.1,7.1-5.9,12.9-13.1,12.9v168.3c7.2,0,13.1,5.9,13.1,13.1l0,0c0.1,0.1,0.1,0.1,0.2,0.2h295.2
		C344.6,376.5,344.7,376.4,344.8,376.3L344.8,376.3z"/>
</g>
<circle class="st6" cx="40.1" cy="183.5" r="4.5"/>
<circle class="st6" cx="40.1" cy="372.5" r="4.5"/>
<circle class="st6" cx="354.3" cy="372.5" r="4.5"/>
<circle class="st6" cx="353.3" cy="183.5" r="4.5"/>
<g>
	<path class="st7" d="M112.3,215.5c0.5,0.6,0.7,1.4,0.7,2.3c0,1.2-0.4,2.2-1.3,2.9c-0.9,0.7-2.1,1-3.6,1h-5.3
		c-0.4,0-0.7-0.1-0.9-0.3c-0.2-0.2-0.3-0.5-0.3-0.9v-11.9c0-0.4,0.1-0.7,0.3-0.9c0.2-0.2,0.5-0.3,0.9-0.3h5.1c1.5,0,2.7,0.3,3.5,1
		c0.9,0.7,1.3,1.6,1.3,2.8c0,0.8-0.2,1.4-0.6,2c-0.4,0.6-1,1-1.7,1.2C111.2,214.4,111.8,214.8,112.3,215.5z M104,213.3h3.3
		c1.8,0,2.7-0.7,2.7-2c0-0.7-0.2-1.2-0.7-1.5s-1.1-0.5-2-0.5H104V213.3z M109.8,219.1c0.4-0.3,0.7-0.9,0.7-1.6
		c0-0.7-0.2-1.3-0.7-1.6s-1.1-0.5-2.1-0.5H104v4.3h3.7C108.7,219.6,109.4,219.4,109.8,219.1z"/>
	<path class="st7" d="M117.1,221.2c-0.8-0.4-1.4-1-1.8-1.8c-0.4-0.8-0.6-1.7-0.6-2.8s0.2-2,0.6-2.8c0.4-0.8,1-1.4,1.8-1.8
		c0.8-0.4,1.7-0.6,2.7-0.6s1.9,0.2,2.7,0.6c0.8,0.4,1.4,1,1.8,1.8c0.4,0.8,0.6,1.7,0.6,2.8s-0.2,2-0.6,2.8c-0.4,0.8-1,1.4-1.8,1.8
		c-0.8,0.4-1.7,0.6-2.7,0.6S117.9,221.6,117.1,221.2z M121.7,219c0.4-0.5,0.7-1.4,0.7-2.4c0-1.1-0.2-1.9-0.7-2.4s-1.1-0.8-1.9-0.8
		s-1.5,0.3-1.9,0.8s-0.7,1.4-0.7,2.4c0,1.1,0.2,1.9,0.7,2.4c0.4,0.5,1.1,0.8,1.9,0.8C120.6,219.8,121.2,219.5,121.7,219z"/>
	<path class="st7" d="M127.4,221.4c-0.2-0.2-0.4-0.5-0.4-0.9v-12.2c0-0.4,0.1-0.7,0.4-0.9c0.2-0.2,0.5-0.3,0.9-0.3
		c0.4,0,0.7,0.1,0.9,0.3c0.2,0.2,0.4,0.5,0.4,0.9v12.2c0,0.4-0.1,0.7-0.4,0.9c-0.2,0.2-0.6,0.3-0.9,0.3
		C127.9,221.8,127.6,221.7,127.4,221.4z"/>
	<path class="st7" d="M140.7,219.2c0.1,0.2,0.2,0.4,0.2,0.7c0,0.4-0.3,0.8-0.8,1.1c-0.5,0.3-1,0.5-1.6,0.6c-0.6,0.2-1.1,0.2-1.7,0.2
		c-1.6,0-2.9-0.5-3.8-1.4c-0.9-0.9-1.4-2.2-1.4-3.8c0-1,0.2-1.9,0.6-2.7s1-1.4,1.7-1.8c0.7-0.4,1.6-0.7,2.5-0.7
		c0.9,0,1.7,0.2,2.4,0.6c0.7,0.4,1.2,1,1.6,1.7c0.4,0.7,0.6,1.6,0.6,2.6c0,0.6-0.3,0.9-0.8,0.9h-6c0.1,0.9,0.3,1.6,0.8,2.1
		c0.5,0.4,1.1,0.7,2,0.7c0.4,0,0.8-0.1,1.2-0.2c0.3-0.1,0.7-0.3,1.1-0.5c0.4-0.2,0.7-0.3,0.9-0.3C140.4,218.9,140.5,219,140.7,219.2
		z M134.9,213.8c-0.4,0.4-0.7,1.1-0.7,1.9h4.6c0-0.8-0.2-1.5-0.6-1.9c-0.4-0.4-0.9-0.6-1.6-0.6C135.9,213.2,135.3,213.4,134.9,213.8
		z"/>
	<path class="st7" d="M149.2,220.8c0,0.3-0.1,0.6-0.4,0.7c-0.3,0.2-0.6,0.2-1.1,0.2l-0.6,0c-2.3-0.2-3.4-1.4-3.4-3.7v-4.5h-1
		c-0.4,0-0.7-0.1-0.9-0.2c-0.2-0.2-0.3-0.4-0.3-0.7c0-0.3,0.1-0.6,0.3-0.7s0.5-0.2,0.9-0.2h1v-1.9c0-0.4,0.1-0.7,0.3-0.9
		s0.5-0.3,0.9-0.3c0.4,0,0.7,0.1,0.9,0.3s0.3,0.5,0.3,0.9v1.9h1.7c0.4,0,0.7,0.1,0.9,0.2c0.2,0.2,0.3,0.4,0.3,0.7
		c0,0.3-0.1,0.6-0.3,0.7c-0.2,0.2-0.5,0.2-0.9,0.2h-1.7v4.7c0,1,0.5,1.6,1.4,1.6l0.6,0C148.8,219.9,149.2,220.2,149.2,220.8z"/>
	<path class="st7" d="M152.4,221.2c-0.8-0.4-1.4-1-1.8-1.8c-0.4-0.8-0.6-1.7-0.6-2.8s0.2-2,0.6-2.8c0.4-0.8,1-1.4,1.8-1.8
		c0.8-0.4,1.7-0.6,2.7-0.6s1.9,0.2,2.7,0.6c0.8,0.4,1.4,1,1.8,1.8c0.4,0.8,0.6,1.7,0.6,2.8s-0.2,2-0.6,2.8c-0.4,0.8-1,1.4-1.8,1.8
		c-0.8,0.4-1.7,0.6-2.7,0.6S153.1,221.6,152.4,221.2z M156.9,219c0.4-0.5,0.7-1.4,0.7-2.4c0-1.1-0.2-1.9-0.7-2.4s-1.1-0.8-1.9-0.8
		s-1.5,0.3-1.9,0.8s-0.7,1.4-0.7,2.4c0,1.1,0.2,1.9,0.7,2.4c0.4,0.5,1.1,0.8,1.9,0.8C155.9,219.8,156.5,219.5,156.9,219z"/>
	<path class="st7" d="M101.8,265.4c-0.2-0.2-0.4-0.6-0.4-1v-12c0-0.4,0.1-0.7,0.3-0.9c0.2-0.2,0.5-0.3,0.9-0.3h5
		c1.5,0,2.7,0.4,3.6,1.2s1.3,1.9,1.3,3.2c0,1.4-0.4,2.5-1.3,3.3s-2.1,1.2-3.6,1.2h-3.7v4.4c0,0.4-0.1,0.7-0.4,1
		c-0.2,0.2-0.6,0.4-1,0.4C102.4,265.8,102,265.6,101.8,265.4z M107.4,258c1.8,0,2.7-0.8,2.7-2.4c0-1.6-0.9-2.4-2.7-2.4h-3.3v4.8
		H107.4z"/>
	<path class="st7" d="M121.9,256.4c0.7,0.7,1,1.7,1,3.1v5c0,0.4-0.1,0.7-0.3,0.9c-0.2,0.2-0.5,0.3-0.9,0.3c-0.4,0-0.6-0.1-0.9-0.3
		c-0.2-0.2-0.3-0.5-0.3-0.9v-0.5c-0.2,0.5-0.6,0.9-1.1,1.2c-0.5,0.3-1.1,0.5-1.7,0.5c-0.7,0-1.3-0.1-1.8-0.4c-0.5-0.3-1-0.6-1.3-1.1
		c-0.3-0.5-0.5-1-0.5-1.6c0-0.7,0.2-1.3,0.6-1.7c0.4-0.4,1-0.7,1.8-0.9s2-0.3,3.5-0.3h0.5v-0.5c0-0.7-0.1-1.2-0.4-1.5
		c-0.3-0.3-0.8-0.5-1.4-0.5c-0.4,0-0.8,0.1-1.2,0.2s-0.9,0.3-1.5,0.5c-0.4,0.2-0.6,0.3-0.8,0.3c-0.2,0-0.4-0.1-0.6-0.3
		c-0.2-0.2-0.2-0.4-0.2-0.7c0-0.2,0.1-0.4,0.2-0.6c0.1-0.2,0.3-0.3,0.6-0.5c0.5-0.3,1-0.5,1.7-0.6s1.3-0.2,2-0.2
		C120.2,255.4,121.3,255.7,121.9,256.4z M119.9,263.3c0.4-0.5,0.6-1,0.6-1.8v-0.4h-0.4c-0.9,0-1.6,0-2.1,0.1
		c-0.5,0.1-0.9,0.2-1.1,0.4c-0.2,0.2-0.3,0.5-0.3,0.8c0,0.4,0.2,0.8,0.5,1.1c0.3,0.3,0.7,0.4,1.1,0.4
		C118.9,264,119.4,263.7,119.9,263.3z"/>
	<path class="st7" d="M125.9,265.4c-0.2-0.2-0.4-0.5-0.4-0.9v-12.2c0-0.4,0.1-0.7,0.4-0.9c0.2-0.2,0.5-0.3,0.9-0.3
		c0.4,0,0.7,0.1,0.9,0.3c0.2,0.2,0.4,0.5,0.4,0.9v12.2c0,0.4-0.1,0.7-0.4,0.9c-0.2,0.2-0.6,0.3-0.9,0.3
		C126.4,265.8,126.1,265.7,125.9,265.4z"/>
	<path class="st7" d="M132.6,265.2c-0.8-0.4-1.4-1-1.8-1.8c-0.4-0.8-0.6-1.7-0.6-2.8s0.2-2,0.6-2.8c0.4-0.8,1-1.4,1.8-1.8
		c0.8-0.4,1.7-0.6,2.7-0.6s1.9,0.2,2.7,0.6c0.8,0.4,1.4,1,1.8,1.8c0.4,0.8,0.6,1.7,0.6,2.8s-0.2,2-0.6,2.8c-0.4,0.8-1,1.4-1.8,1.8
		c-0.8,0.4-1.7,0.6-2.7,0.6S133.4,265.6,132.6,265.2z M137.2,263c0.4-0.5,0.7-1.4,0.7-2.4c0-1.1-0.2-1.9-0.7-2.4s-1.1-0.8-1.9-0.8
		s-1.5,0.3-1.9,0.8s-0.7,1.4-0.7,2.4c0,1.1,0.2,1.9,0.7,2.4c0.4,0.5,1.1,0.8,1.9,0.8C136.1,263.8,136.8,263.5,137.2,263z"/>
	<path class="st7" d="M156.9,256.4c0.6,0.6,0.9,1.7,0.9,3.1v5c0,0.4-0.1,0.7-0.4,0.9c-0.2,0.2-0.5,0.3-0.9,0.3
		c-0.4,0-0.7-0.1-0.9-0.3c-0.2-0.2-0.4-0.5-0.4-0.9v-5c0-0.8-0.1-1.3-0.4-1.6c-0.3-0.3-0.7-0.5-1.2-0.5c-0.7,0-1.2,0.2-1.6,0.7
		c-0.4,0.5-0.6,1.1-0.6,1.9v4.6c0,0.4-0.1,0.7-0.4,0.9c-0.2,0.2-0.5,0.3-0.9,0.3s-0.7-0.1-0.9-0.3c-0.2-0.2-0.4-0.5-0.4-0.9v-5
		c0-0.8-0.1-1.3-0.4-1.6c-0.3-0.3-0.7-0.5-1.2-0.5c-0.7,0-1.2,0.2-1.6,0.7c-0.4,0.5-0.6,1.1-0.6,1.9v4.6c0,0.4-0.1,0.7-0.4,0.9
		c-0.2,0.2-0.6,0.3-0.9,0.3c-0.4,0-0.7-0.1-0.9-0.3c-0.2-0.2-0.4-0.5-0.4-0.9v-7.9c0-0.4,0.1-0.7,0.4-0.9c0.2-0.2,0.6-0.3,0.9-0.3
		c0.4,0,0.6,0.1,0.9,0.3c0.2,0.2,0.3,0.5,0.3,0.8v0.5c0.3-0.5,0.7-1,1.3-1.2c0.5-0.3,1.1-0.4,1.8-0.4c1.5,0,2.5,0.6,3,1.9
		c0.3-0.6,0.7-1,1.3-1.4s1.2-0.5,2-0.5C155.5,255.4,156.4,255.7,156.9,256.4z"/>
	<path class="st7" d="M160.6,253.2c-0.3-0.3-0.4-0.6-0.4-1c0-0.4,0.1-0.7,0.4-1c0.3-0.2,0.6-0.4,1.1-0.4c0.5,0,0.8,0.1,1.1,0.4
		c0.3,0.2,0.4,0.6,0.4,1c0,0.4-0.1,0.7-0.4,1c-0.3,0.3-0.6,0.4-1.1,0.4C161.2,253.6,160.8,253.5,160.6,253.2z M160.8,265.4
		c-0.2-0.2-0.4-0.5-0.4-0.9v-7.9c0-0.4,0.1-0.7,0.4-0.9c0.2-0.2,0.5-0.3,0.9-0.3c0.4,0,0.7,0.1,0.9,0.3c0.2,0.2,0.4,0.5,0.4,0.9v7.9
		c0,0.4-0.1,0.7-0.4,0.9c-0.2,0.2-0.6,0.3-0.9,0.3C161.3,265.8,161,265.7,160.8,265.4z"/>
	<path class="st7" d="M171.8,264.8c0,0.3-0.1,0.6-0.4,0.7c-0.3,0.2-0.6,0.2-1.1,0.2l-0.6,0c-2.3-0.2-3.4-1.4-3.4-3.7v-4.5h-1
		c-0.4,0-0.7-0.1-0.9-0.2c-0.2-0.2-0.3-0.4-0.3-0.7c0-0.3,0.1-0.6,0.3-0.7s0.5-0.2,0.9-0.2h1v-1.9c0-0.4,0.1-0.7,0.3-0.9
		s0.5-0.3,0.9-0.3c0.4,0,0.7,0.1,0.9,0.3s0.3,0.5,0.3,0.9v1.9h1.7c0.4,0,0.7,0.1,0.9,0.2c0.2,0.2,0.3,0.4,0.3,0.7
		c0,0.3-0.1,0.6-0.3,0.7c-0.2,0.2-0.5,0.2-0.9,0.2h-1.7v4.7c0,1,0.5,1.6,1.4,1.6l0.6,0C171.5,263.9,171.8,264.2,171.8,264.8z"/>
	<path class="st7" d="M180.6,256.4c0.7,0.7,1,1.7,1,3.1v5c0,0.4-0.1,0.7-0.3,0.9c-0.2,0.2-0.5,0.3-0.9,0.3c-0.4,0-0.6-0.1-0.9-0.3
		c-0.2-0.2-0.3-0.5-0.3-0.9v-0.5c-0.2,0.5-0.6,0.9-1.1,1.2c-0.5,0.3-1.1,0.5-1.7,0.5c-0.7,0-1.3-0.1-1.8-0.4c-0.5-0.3-1-0.6-1.3-1.1
		c-0.3-0.5-0.5-1-0.5-1.6c0-0.7,0.2-1.3,0.6-1.7c0.4-0.4,1-0.7,1.8-0.9s2-0.3,3.5-0.3h0.5v-0.5c0-0.7-0.1-1.2-0.4-1.5
		c-0.3-0.3-0.8-0.5-1.4-0.5c-0.4,0-0.8,0.1-1.2,0.2s-0.9,0.3-1.5,0.5c-0.4,0.2-0.6,0.3-0.8,0.3c-0.2,0-0.4-0.1-0.6-0.3
		c-0.2-0.2-0.2-0.4-0.2-0.7c0-0.2,0.1-0.4,0.2-0.6c0.1-0.2,0.3-0.3,0.6-0.5c0.5-0.3,1-0.5,1.7-0.6s1.3-0.2,2-0.2
		C178.9,255.4,179.9,255.7,180.6,256.4z M178.6,263.3c0.4-0.5,0.6-1,0.6-1.8v-0.4h-0.4c-0.9,0-1.6,0-2.1,0.1
		c-0.5,0.1-0.9,0.2-1.1,0.4c-0.2,0.2-0.3,0.5-0.3,0.8c0,0.4,0.2,0.8,0.5,1.1c0.3,0.3,0.7,0.4,1.1,0.4
		C177.6,264,178.1,263.7,178.6,263.3z"/>
	<path class="st7" d="M184.3,264.9c-0.4-0.3-0.7-0.6-0.7-1.1c0-0.3,0.1-0.5,0.2-0.7s0.3-0.3,0.6-0.3c0.2,0,0.6,0.1,1,0.3
		c0.4,0.2,0.8,0.4,1.2,0.5c0.4,0.1,0.8,0.2,1.4,0.2c0.6,0,1-0.1,1.3-0.3s0.5-0.5,0.5-0.8c0-0.2-0.1-0.4-0.2-0.6
		c-0.1-0.1-0.4-0.3-0.7-0.4c-0.3-0.1-0.8-0.2-1.5-0.4c-1.2-0.2-2.1-0.6-2.6-1c-0.5-0.5-0.8-1.1-0.8-1.9c0-0.6,0.2-1.1,0.5-1.6
		c0.4-0.5,0.8-0.9,1.5-1.1c0.6-0.3,1.3-0.4,2.1-0.4c0.6,0,1.1,0.1,1.7,0.2c0.5,0.1,1,0.4,1.4,0.6c0.4,0.3,0.7,0.6,0.7,1.1
		c0,0.3-0.1,0.5-0.2,0.7c-0.2,0.2-0.3,0.3-0.6,0.3c-0.2,0-0.3,0-0.4-0.1c-0.1-0.1-0.3-0.2-0.5-0.3c-0.4-0.2-0.7-0.4-1-0.5
		c-0.3-0.1-0.6-0.2-1.1-0.2c-0.5,0-0.9,0.1-1.2,0.3c-0.3,0.2-0.4,0.5-0.4,0.8c0,0.3,0.2,0.6,0.5,0.8c0.3,0.2,0.9,0.4,1.7,0.5
		c0.9,0.2,1.6,0.4,2.2,0.7c0.5,0.2,0.9,0.6,1.1,0.9c0.2,0.4,0.3,0.8,0.3,1.4c0,0.9-0.4,1.7-1.2,2.2c-0.8,0.6-1.8,0.8-3.1,0.8
		C186.4,265.8,185.2,265.5,184.3,264.9z"/>
	<path class="st7" d="M113.2,308.7c0,0.3-0.1,0.6-0.4,0.8c-0.3,0.2-0.6,0.3-0.9,0.3c-0.2,0-0.4-0.1-0.6-0.2
		c-0.2-0.1-0.4-0.3-0.5-0.5l-2.7-4.1c-0.3-0.4-0.6-0.7-0.9-0.9c-0.3-0.2-0.7-0.3-1.2-0.3h-2v4.6c0,0.4-0.1,0.7-0.3,1
		c-0.2,0.2-0.5,0.4-0.9,0.4s-0.7-0.1-1-0.4c-0.2-0.2-0.4-0.6-0.4-1v-12c0-0.4,0.1-0.7,0.3-0.9c0.2-0.2,0.5-0.3,0.9-0.3h5.1
		c1.6,0,2.9,0.4,3.7,1.1s1.3,1.8,1.3,3.2c0,1.1-0.3,2-1,2.8c-0.6,0.7-1.5,1.2-2.7,1.4c0.4,0.1,0.7,0.3,1,0.5c0.3,0.2,0.6,0.6,0.9,1
		l1.9,2.8C113.2,308.2,113.2,308.5,113.2,308.7z M109.7,301.3c0.5-0.4,0.7-1,0.7-1.7c0-0.8-0.2-1.4-0.7-1.7
		c-0.5-0.4-1.2-0.5-2.2-0.5H104v4.6h3.4C108.5,301.8,109.2,301.6,109.7,301.3z"/>
	<path class="st7" d="M124,307.2c0.1,0.2,0.2,0.4,0.2,0.7c0,0.4-0.3,0.8-0.8,1.1c-0.5,0.3-1,0.5-1.6,0.6c-0.6,0.2-1.1,0.2-1.7,0.2
		c-1.6,0-2.9-0.5-3.8-1.4c-0.9-0.9-1.4-2.2-1.4-3.8c0-1,0.2-1.9,0.6-2.7s1-1.4,1.7-1.8c0.7-0.4,1.6-0.7,2.5-0.7
		c0.9,0,1.7,0.2,2.4,0.6c0.7,0.4,1.2,1,1.6,1.7c0.4,0.7,0.6,1.6,0.6,2.6c0,0.6-0.3,0.9-0.8,0.9h-6c0.1,0.9,0.3,1.6,0.8,2.1
		c0.5,0.4,1.1,0.7,2,0.7c0.4,0,0.8-0.1,1.2-0.2c0.3-0.1,0.7-0.3,1.1-0.5c0.4-0.2,0.7-0.3,0.9-0.3C123.6,306.9,123.8,307,124,307.2z
		 M118.2,301.8c-0.4,0.4-0.7,1.1-0.7,1.9h4.6c0-0.8-0.2-1.5-0.6-1.9c-0.4-0.4-0.9-0.6-1.6-0.6C119.2,301.2,118.6,301.4,118.2,301.8z
		"/>
	<path class="st7" d="M130,297.7c-0.3,0.3-0.4,0.8-0.4,1.5v0.5h1.7c0.8,0,1.1,0.3,1.1,1c0,0.6-0.4,1-1.1,1h-1.7v7
		c0,0.4-0.1,0.7-0.4,0.9c-0.2,0.2-0.5,0.3-0.9,0.3c-0.4,0-0.7-0.1-0.9-0.3c-0.2-0.2-0.4-0.5-0.4-0.9v-7h-1c-0.8,0-1.1-0.3-1.1-1
		c0-0.6,0.4-1,1.1-1h1v-0.1c0-1.3,0.3-2.3,1-3c0.7-0.7,1.6-1.1,2.9-1.2l0.5,0c0.5,0,0.9,0,1.2,0.2c0.2,0.2,0.3,0.4,0.3,0.7
		c0,0.6-0.3,0.9-1,1l-0.5,0C130.7,297.1,130.3,297.3,130,297.7z"/>
	<path class="st7" d="M140,299.6c0.2,0.2,0.3,0.4,0.3,0.8c0,0.4-0.1,0.6-0.3,0.8c-0.2,0.2-0.5,0.3-1,0.3l-0.6,0.1
		c-0.8,0.1-1.4,0.4-1.8,0.8c-0.4,0.5-0.6,1-0.6,1.7v4.3c0,0.4-0.1,0.7-0.4,0.9c-0.2,0.2-0.6,0.3-0.9,0.3c-0.4,0-0.7-0.1-0.9-0.3
		c-0.2-0.2-0.4-0.5-0.4-0.9v-7.9c0-0.4,0.1-0.7,0.4-0.9c0.2-0.2,0.5-0.3,0.9-0.3c0.4,0,0.6,0.1,0.9,0.3c0.2,0.2,0.3,0.5,0.3,0.8v0.8
		c0.3-0.6,0.6-1.1,1.2-1.4c0.5-0.3,1.1-0.5,1.7-0.6l0.3,0C139.6,299.4,139.8,299.5,140,299.6z"/>
	<path class="st7" d="M149.7,307.2c0.1,0.2,0.2,0.4,0.2,0.7c0,0.4-0.3,0.8-0.8,1.1c-0.5,0.3-1,0.5-1.6,0.6c-0.6,0.2-1.1,0.2-1.7,0.2
		c-1.6,0-2.9-0.5-3.8-1.4c-0.9-0.9-1.4-2.2-1.4-3.8c0-1,0.2-1.9,0.6-2.7s1-1.4,1.7-1.8c0.7-0.4,1.6-0.7,2.5-0.7
		c0.9,0,1.7,0.2,2.4,0.6c0.7,0.4,1.2,1,1.6,1.7c0.4,0.7,0.6,1.6,0.6,2.6c0,0.6-0.3,0.9-0.8,0.9h-6c0.1,0.9,0.3,1.6,0.8,2.1
		c0.5,0.4,1.1,0.7,2,0.7c0.4,0,0.8-0.1,1.2-0.2c0.3-0.1,0.7-0.3,1.1-0.5c0.4-0.2,0.7-0.3,0.9-0.3C149.4,306.9,149.6,307,149.7,307.2
		z M144,301.8c-0.4,0.4-0.7,1.1-0.7,1.9h4.6c0-0.8-0.2-1.5-0.6-1.9c-0.4-0.4-0.9-0.6-1.6-0.6C144.9,301.2,144.4,301.4,144,301.8z"/>
	<path class="st7" d="M152.2,308.9c-0.4-0.3-0.7-0.6-0.7-1.1c0-0.3,0.1-0.5,0.2-0.7s0.3-0.3,0.6-0.3c0.2,0,0.6,0.1,1,0.3
		c0.4,0.2,0.8,0.4,1.2,0.5c0.4,0.1,0.8,0.2,1.4,0.2c0.6,0,1-0.1,1.3-0.3s0.5-0.5,0.5-0.8c0-0.2-0.1-0.4-0.2-0.6
		c-0.1-0.1-0.4-0.3-0.7-0.4c-0.3-0.1-0.8-0.2-1.5-0.4c-1.2-0.2-2.1-0.6-2.6-1c-0.5-0.5-0.8-1.1-0.8-1.9c0-0.6,0.2-1.1,0.5-1.6
		c0.4-0.5,0.8-0.9,1.5-1.1c0.6-0.3,1.3-0.4,2.1-0.4c0.6,0,1.1,0.1,1.7,0.2c0.5,0.1,1,0.4,1.4,0.6c0.4,0.3,0.7,0.6,0.7,1.1
		c0,0.3-0.1,0.5-0.2,0.7c-0.2,0.2-0.3,0.3-0.6,0.3c-0.2,0-0.3,0-0.4-0.1c-0.1-0.1-0.3-0.2-0.5-0.3c-0.4-0.2-0.7-0.4-1-0.5
		c-0.3-0.1-0.6-0.2-1.1-0.2c-0.5,0-0.9,0.1-1.2,0.3c-0.3,0.2-0.4,0.5-0.4,0.8c0,0.3,0.2,0.6,0.5,0.8c0.3,0.2,0.9,0.4,1.7,0.5
		c0.9,0.2,1.6,0.4,2.2,0.7c0.5,0.2,0.9,0.6,1.1,0.9c0.2,0.4,0.3,0.8,0.3,1.4c0,0.9-0.4,1.7-1.2,2.2c-0.8,0.6-1.8,0.8-3.1,0.8
		C154.3,309.8,153.1,309.5,152.2,308.9z"/>
	<path class="st7" d="M163.9,309.2c-0.8-0.4-1.3-1-1.8-1.8c-0.4-0.8-0.6-1.7-0.6-2.7s0.2-2,0.6-2.8c0.4-0.8,1-1.4,1.8-1.9
		c0.8-0.4,1.7-0.7,2.7-0.7c0.5,0,1.1,0.1,1.6,0.2c0.5,0.2,1,0.4,1.4,0.6c0.4,0.3,0.7,0.6,0.7,1.1c0,0.3-0.1,0.5-0.2,0.7
		s-0.3,0.3-0.6,0.3c-0.2,0-0.3,0-0.5-0.1s-0.3-0.2-0.5-0.2c-0.3-0.2-0.6-0.3-0.9-0.4c-0.3-0.1-0.6-0.2-0.9-0.2c-0.8,0-1.5,0.3-2,0.8
		c-0.5,0.6-0.7,1.3-0.7,2.4c0,1,0.2,1.8,0.7,2.4c0.5,0.6,1.1,0.8,2,0.8c0.3,0,0.6-0.1,0.9-0.2c0.3-0.1,0.6-0.2,0.9-0.4
		c0.2-0.1,0.4-0.2,0.5-0.3s0.3-0.1,0.5-0.1c0.2,0,0.4,0.1,0.6,0.3s0.2,0.4,0.2,0.7c0,0.2-0.1,0.4-0.2,0.6s-0.3,0.3-0.5,0.5
		c-0.4,0.3-0.9,0.5-1.5,0.6c-0.6,0.2-1.1,0.2-1.7,0.2C165.5,309.8,164.6,309.6,163.9,309.2z"/>
	<path class="st7" d="M173.9,309.2c-0.8-0.4-1.4-1-1.8-1.8c-0.4-0.8-0.6-1.7-0.6-2.8s0.2-2,0.6-2.8c0.4-0.8,1-1.4,1.8-1.8
		c0.8-0.4,1.7-0.6,2.7-0.6s1.9,0.2,2.7,0.6c0.8,0.4,1.4,1,1.8,1.8c0.4,0.8,0.6,1.7,0.6,2.8s-0.2,2-0.6,2.8c-0.4,0.8-1,1.4-1.8,1.8
		c-0.8,0.4-1.7,0.6-2.7,0.6S174.7,309.6,173.9,309.2z M178.5,307c0.4-0.5,0.7-1.4,0.7-2.4c0-1.1-0.2-1.9-0.7-2.4s-1.1-0.8-1.9-0.8
		s-1.5,0.3-1.9,0.8s-0.7,1.4-0.7,2.4c0,1.1,0.2,1.9,0.7,2.4c0.4,0.5,1.1,0.8,1.9,0.8C177.5,307.8,178.1,307.5,178.5,307z"/>
	<path class="st7" d="M114.7,352.6c0,0.3-0.1,0.6-0.4,0.8c-0.3,0.2-0.5,0.3-0.9,0.3c-0.2,0-0.4-0.1-0.6-0.2
		c-0.2-0.1-0.3-0.3-0.5-0.5l-1.2-2.7h-7.2l-1.2,2.7c-0.1,0.2-0.3,0.4-0.5,0.5c-0.2,0.1-0.4,0.2-0.6,0.2c-0.3,0-0.6-0.1-0.9-0.3
		c-0.3-0.2-0.4-0.5-0.4-0.8c0-0.2,0-0.4,0.1-0.5l5.7-12.1c0.1-0.3,0.3-0.5,0.6-0.6s0.5-0.2,0.8-0.2c0.3,0,0.6,0.1,0.8,0.2
		c0.3,0.1,0.4,0.4,0.6,0.6l5.7,12.1C114.6,352.2,114.7,352.4,114.7,352.6z M104.8,348.2h5.4l-2.7-6.1L104.8,348.2z"/>
	<path class="st7" d="M116.8,353.4c-0.2-0.2-0.4-0.5-0.4-0.9v-12.2c0-0.4,0.1-0.7,0.4-0.9c0.2-0.2,0.5-0.3,0.9-0.3
		c0.4,0,0.7,0.1,0.9,0.3c0.2,0.2,0.4,0.5,0.4,0.9v12.2c0,0.4-0.1,0.7-0.4,0.9c-0.2,0.2-0.6,0.3-0.9,0.3
		C117.3,353.8,117,353.7,116.8,353.4z"/>
	<path class="st7" d="M131,343.7c0.2,0.2,0.3,0.5,0.3,0.9v8.1c0,1.6-0.4,2.8-1.3,3.6s-2.2,1.2-3.9,1.2c-1.5,0-2.7-0.3-3.7-0.8
		c-0.5-0.3-0.8-0.7-0.8-1.1c0-0.3,0.1-0.5,0.2-0.7c0.1-0.2,0.3-0.3,0.6-0.3c0.1,0,0.3,0,0.5,0.1c0.2,0.1,0.4,0.1,0.6,0.2
		c0.5,0.2,0.9,0.4,1.3,0.5s0.8,0.2,1.3,0.2c1.8,0,2.7-0.9,2.7-2.6v-1.3c-0.3,0.6-0.7,1-1.3,1.3c-0.6,0.3-1.2,0.5-2,0.5
		c-0.9,0-1.6-0.2-2.3-0.6c-0.7-0.4-1.2-1-1.6-1.8s-0.6-1.6-0.6-2.6s0.2-1.9,0.6-2.6c0.4-0.8,0.9-1.3,1.6-1.8
		c0.7-0.4,1.5-0.6,2.3-0.6c0.7,0,1.4,0.2,2,0.5c0.6,0.3,1,0.7,1.3,1.3v-0.5c0-0.4,0.1-0.6,0.3-0.9c0.2-0.2,0.5-0.3,0.9-0.3
		S130.8,343.5,131,343.7z M128.2,350.6c0.5-0.5,0.7-1.3,0.7-2.2c0-0.9-0.2-1.7-0.7-2.2c-0.5-0.5-1.1-0.8-1.9-0.8
		c-0.8,0-1.4,0.3-1.9,0.8c-0.5,0.5-0.7,1.3-0.7,2.2c0,0.9,0.2,1.7,0.7,2.2c0.5,0.5,1.1,0.8,1.9,0.8
		C127.1,351.4,127.7,351.1,128.2,350.6z"/>
	<path class="st7" d="M135.9,353.2c-0.8-0.4-1.4-1-1.8-1.8c-0.4-0.8-0.6-1.7-0.6-2.8s0.2-2,0.6-2.8c0.4-0.8,1-1.4,1.8-1.8
		c0.8-0.4,1.7-0.6,2.7-0.6s1.9,0.2,2.7,0.6c0.8,0.4,1.4,1,1.8,1.8c0.4,0.8,0.6,1.7,0.6,2.8s-0.2,2-0.6,2.8c-0.4,0.8-1,1.4-1.8,1.8
		c-0.8,0.4-1.7,0.6-2.7,0.6S136.7,353.6,135.9,353.2z M140.5,351c0.4-0.5,0.7-1.4,0.7-2.4c0-1.1-0.2-1.9-0.7-2.4s-1.1-0.8-1.9-0.8
		s-1.5,0.3-1.9,0.8s-0.7,1.4-0.7,2.4c0,1.1,0.2,1.9,0.7,2.4c0.4,0.5,1.1,0.8,1.9,0.8C139.4,351.8,140,351.5,140.5,351z"/>
	<path class="st7" d="M155.1,339.4c0.2,0.2,0.4,0.5,0.4,0.9v12.3c0,0.4-0.1,0.7-0.3,0.9c-0.2,0.2-0.5,0.3-0.9,0.3s-0.7-0.1-0.9-0.3
		c-0.2-0.2-0.3-0.5-0.3-0.9V352c-0.3,0.6-0.7,1-1.3,1.3c-0.6,0.3-1.2,0.5-1.9,0.5c-0.9,0-1.6-0.2-2.3-0.7c-0.7-0.4-1.2-1.1-1.6-1.9
		s-0.6-1.7-0.6-2.8s0.2-1.9,0.6-2.7s0.9-1.4,1.6-1.8c0.7-0.4,1.4-0.6,2.3-0.6c0.7,0,1.4,0.2,1.9,0.5c0.6,0.3,1,0.7,1.3,1.3v-4.9
		c0-0.3,0.1-0.6,0.3-0.8c0.2-0.2,0.5-0.3,0.9-0.3S154.9,339.2,155.1,339.4z M152.3,351c0.4-0.6,0.7-1.4,0.7-2.4s-0.2-1.8-0.7-2.4
		s-1.1-0.8-1.9-0.8c-0.8,0-1.5,0.3-1.9,0.8c-0.5,0.5-0.7,1.3-0.7,2.4c0,1,0.2,1.8,0.7,2.4c0.5,0.6,1.1,0.9,1.9,0.9
		C151.2,351.8,151.8,351.5,152.3,351z"/>
	<path class="st7" d="M160,353.2c-0.8-0.4-1.4-1-1.8-1.8c-0.4-0.8-0.6-1.7-0.6-2.8s0.2-2,0.6-2.8c0.4-0.8,1-1.4,1.8-1.8
		c0.8-0.4,1.7-0.6,2.7-0.6s1.9,0.2,2.7,0.6c0.8,0.4,1.4,1,1.8,1.8c0.4,0.8,0.6,1.7,0.6,2.8s-0.2,2-0.6,2.8c-0.4,0.8-1,1.4-1.8,1.8
		c-0.8,0.4-1.7,0.6-2.7,0.6S160.8,353.6,160,353.2z M164.6,351c0.4-0.5,0.7-1.4,0.7-2.4c0-1.1-0.2-1.9-0.7-2.4s-1.1-0.8-1.9-0.8
		s-1.5,0.3-1.9,0.8s-0.7,1.4-0.7,2.4c0,1.1,0.2,1.9,0.7,2.4c0.4,0.5,1.1,0.8,1.9,0.8C163.5,351.8,164.1,351.5,164.6,351z
		 M162.7,342.4c-0.2,0-0.4-0.1-0.5-0.2c-0.1-0.1-0.2-0.3-0.2-0.5c0-0.2,0.1-0.3,0.2-0.5l2-2.6c0.3-0.4,0.7-0.6,1.1-0.6
		c0.3,0,0.6,0.1,0.8,0.3s0.3,0.5,0.3,0.7c0,0.4-0.2,0.7-0.6,1l-2.6,2.2C163,342.4,162.9,342.4,162.7,342.4z"/>
	<path class="st7" d="M178.4,344.4c0.6,0.7,0.9,1.7,0.9,3.1v5c0,0.4-0.1,0.7-0.3,0.9c-0.2,0.2-0.5,0.3-0.9,0.3
		c-0.4,0-0.7-0.1-0.9-0.3c-0.2-0.2-0.3-0.5-0.3-0.9v-4.9c0-0.8-0.1-1.3-0.4-1.7c-0.3-0.4-0.8-0.5-1.4-0.5c-0.7,0-1.3,0.2-1.8,0.7
		c-0.4,0.5-0.7,1.1-0.7,1.9v4.6c0,0.4-0.1,0.7-0.3,0.9c-0.2,0.2-0.5,0.3-0.9,0.3c-0.4,0-0.7-0.1-0.9-0.3c-0.2-0.2-0.3-0.5-0.3-0.9
		v-7.9c0-0.4,0.1-0.6,0.3-0.9c0.2-0.2,0.5-0.3,0.9-0.3c0.4,0,0.6,0.1,0.9,0.3c0.2,0.2,0.3,0.5,0.3,0.8v0.6c0.3-0.6,0.8-1,1.4-1.3
		c0.6-0.3,1.2-0.5,1.9-0.5C176.9,343.4,177.8,343.7,178.4,344.4z"/>
</g>
<g>
	<path class="st8" d="M304.4,220.3c-0.8,0.8-1.8,1.2-3.1,1.4v1.3c0,0.3-0.1,0.6-0.3,0.8s-0.4,0.3-0.8,0.3c-0.3,0-0.6-0.1-0.8-0.3
		s-0.3-0.5-0.3-0.8v-1.2c-0.8-0.1-1.5-0.2-2.3-0.5c-0.7-0.3-1.4-0.6-1.9-1c-0.2-0.1-0.3-0.3-0.4-0.4s-0.1-0.3-0.1-0.6
		c0-0.3,0.1-0.5,0.3-0.8c0.2-0.2,0.4-0.3,0.6-0.3c0.1,0,0.3,0,0.4,0.1c0.1,0,0.3,0.1,0.5,0.2c0.6,0.4,1.2,0.7,1.9,0.9
		c0.6,0.2,1.2,0.3,1.9,0.3c0.9,0,1.6-0.2,2.1-0.5c0.5-0.4,0.7-0.9,0.7-1.5c0-0.4-0.1-0.7-0.4-1s-0.6-0.4-1-0.6
		c-0.4-0.1-1-0.3-1.7-0.5c-1-0.3-1.9-0.5-2.5-0.8c-0.6-0.3-1.2-0.7-1.7-1.2c-0.5-0.5-0.7-1.3-0.7-2.2c0-1.1,0.4-2,1.2-2.8
		s1.8-1.3,3.1-1.5v-1.3c0-0.3,0.1-0.6,0.3-0.8c0.2-0.2,0.4-0.3,0.8-0.3c0.3,0,0.6,0.1,0.8,0.3c0.2,0.2,0.3,0.5,0.3,0.8v1.3
		c1.4,0.2,2.6,0.7,3.6,1.5c0.3,0.2,0.5,0.6,0.5,1c0,0.3-0.1,0.5-0.3,0.8c-0.2,0.2-0.4,0.3-0.6,0.3c-0.1,0-0.2,0-0.4-0.1
		s-0.3-0.1-0.5-0.2c-0.6-0.4-1.1-0.7-1.6-0.9c-0.5-0.2-1.1-0.3-1.8-0.3c-0.8,0-1.5,0.2-2,0.6c-0.5,0.4-0.8,0.9-0.8,1.5
		c0,0.5,0.1,0.8,0.4,1.1s0.6,0.5,1.1,0.6c0.4,0.2,1,0.3,1.8,0.5c1,0.2,1.8,0.5,2.4,0.8c0.6,0.3,1.2,0.7,1.6,1.2
		c0.4,0.5,0.7,1.2,0.7,2.1C305.5,218.7,305.1,219.6,304.4,220.3z"/>
	<path class="st8" d="M317.7,220.6c0,0.7-0.4,1.1-1.2,1.1h-6.9c-0.8,0-1.2-0.4-1.2-1.1c0-0.7,0.4-1,1.2-1h2.1v-9.3l-2,1.2
		c-0.2,0.1-0.4,0.2-0.5,0.2c-0.3,0-0.5-0.1-0.7-0.4c-0.2-0.2-0.3-0.5-0.3-0.8c0-0.4,0.2-0.7,0.5-0.9l3.2-2c0.4-0.2,0.8-0.4,1.2-0.4
		c0.4,0,0.7,0.1,0.9,0.3c0.2,0.2,0.3,0.6,0.3,1v11.1h2.2C317.3,219.5,317.7,219.9,317.7,220.6z"/>
	<path class="st8" d="M329.9,220.6c0,0.7-0.4,1.1-1.2,1.1h-7.8c-0.4,0-0.6-0.1-0.8-0.3c-0.2-0.2-0.3-0.5-0.3-0.8
		c0-0.4,0.2-0.8,0.5-1.1l4.7-5c0.6-0.6,1-1.2,1.3-1.7c0.3-0.5,0.4-1,0.4-1.6c0-0.6-0.2-1.1-0.6-1.5c-0.4-0.3-0.9-0.5-1.6-0.5
		c-0.6,0-1.1,0.1-1.6,0.3s-1.1,0.5-1.6,0.9c-0.1,0.1-0.3,0.2-0.4,0.2c-0.1,0.1-0.3,0.1-0.4,0.1c-0.2,0-0.4-0.1-0.6-0.3
		c-0.2-0.2-0.3-0.5-0.3-0.8c0-0.2,0-0.4,0.1-0.5s0.2-0.3,0.4-0.4c0.6-0.5,1.3-0.9,2.1-1.1s1.6-0.4,2.4-0.4c1.4,0,2.5,0.4,3.4,1.1
		s1.3,1.7,1.3,2.9c0,0.8-0.2,1.6-0.5,2.3c-0.4,0.7-1,1.5-1.8,2.4l-3.5,3.8h5.4C329.5,219.5,329.9,219.9,329.9,220.6z"/>
	<path class="st8" d="M304.4,264.3c-0.8,0.8-1.8,1.2-3.1,1.4v1.3c0,0.3-0.1,0.6-0.3,0.8s-0.4,0.3-0.8,0.3c-0.3,0-0.6-0.1-0.8-0.3
		s-0.3-0.5-0.3-0.8v-1.2c-0.8-0.1-1.5-0.2-2.3-0.5c-0.7-0.3-1.4-0.6-1.9-1c-0.2-0.1-0.3-0.3-0.4-0.4s-0.1-0.3-0.1-0.6
		c0-0.3,0.1-0.5,0.3-0.8c0.2-0.2,0.4-0.3,0.6-0.3c0.1,0,0.3,0,0.4,0.1c0.1,0,0.3,0.1,0.5,0.2c0.6,0.4,1.2,0.7,1.9,0.9
		c0.6,0.2,1.2,0.3,1.9,0.3c0.9,0,1.6-0.2,2.1-0.5c0.5-0.4,0.7-0.9,0.7-1.5c0-0.4-0.1-0.7-0.4-1s-0.6-0.4-1-0.6
		c-0.4-0.1-1-0.3-1.7-0.5c-1-0.3-1.9-0.5-2.5-0.8c-0.6-0.3-1.2-0.7-1.7-1.2c-0.5-0.5-0.7-1.3-0.7-2.2c0-1.1,0.4-2,1.2-2.8
		s1.8-1.3,3.1-1.5v-1.3c0-0.3,0.1-0.6,0.3-0.8c0.2-0.2,0.4-0.3,0.8-0.3c0.3,0,0.6,0.1,0.8,0.3c0.2,0.2,0.3,0.5,0.3,0.8v1.3
		c1.4,0.2,2.6,0.7,3.6,1.5c0.3,0.2,0.5,0.6,0.5,1c0,0.3-0.1,0.5-0.3,0.8c-0.2,0.2-0.4,0.3-0.6,0.3c-0.1,0-0.2,0-0.4-0.1
		s-0.3-0.1-0.5-0.2c-0.6-0.4-1.1-0.7-1.6-0.9c-0.5-0.2-1.1-0.3-1.8-0.3c-0.8,0-1.5,0.2-2,0.6c-0.5,0.4-0.8,0.9-0.8,1.5
		c0,0.5,0.1,0.8,0.4,1.1s0.6,0.5,1.1,0.6c0.4,0.2,1,0.3,1.8,0.5c1,0.2,1.8,0.5,2.4,0.8c0.6,0.3,1.2,0.7,1.6,1.2
		c0.4,0.5,0.7,1.2,0.7,2.1C305.5,262.7,305.1,263.6,304.4,264.3z"/>
	<path class="st8" d="M317.7,264.6c0,0.7-0.4,1.1-1.2,1.1h-6.9c-0.8,0-1.2-0.4-1.2-1.1c0-0.7,0.4-1,1.2-1h2.1v-9.3l-2,1.2
		c-0.2,0.1-0.4,0.2-0.5,0.2c-0.3,0-0.5-0.1-0.7-0.4c-0.2-0.2-0.3-0.5-0.3-0.8c0-0.4,0.2-0.7,0.5-0.9l3.2-2c0.4-0.2,0.8-0.4,1.2-0.4
		c0.4,0,0.7,0.1,0.9,0.3c0.2,0.2,0.3,0.6,0.3,1v11.1h2.2C317.3,263.5,317.7,263.9,317.7,264.6z"/>
	<path class="st8" d="M320.7,263.9c-0.9-1.3-1.4-3.1-1.4-5.5c0-2.4,0.5-4.2,1.4-5.5c0.9-1.3,2.2-1.9,3.9-1.9c1.7,0,3,0.6,3.9,1.9
		c0.9,1.3,1.4,3.1,1.4,5.5c0,2.4-0.5,4.2-1.4,5.5c-0.9,1.3-2.2,1.9-3.9,1.9C322.9,265.8,321.6,265.2,320.7,263.9z M326.7,262.5
		c0.4-0.9,0.6-2.2,0.6-4.1c0-1.9-0.2-3.2-0.6-4.1c-0.4-0.8-1.1-1.3-2-1.3s-1.6,0.4-2,1.3c-0.4,0.8-0.6,2.2-0.6,4.1
		c0,1.9,0.2,3.2,0.6,4.1c0.4,0.9,1.1,1.3,2,1.3S326.2,263.3,326.7,262.5z"/>
	<path class="st8" d="M304.4,308.3c-0.8,0.8-1.8,1.2-3.1,1.4v1.3c0,0.3-0.1,0.6-0.3,0.8s-0.4,0.3-0.8,0.3c-0.3,0-0.6-0.1-0.8-0.3
		s-0.3-0.5-0.3-0.8v-1.2c-0.8-0.1-1.5-0.2-2.3-0.5c-0.7-0.3-1.4-0.6-1.9-1c-0.2-0.1-0.3-0.3-0.4-0.4s-0.1-0.3-0.1-0.6
		c0-0.3,0.1-0.5,0.3-0.8c0.2-0.2,0.4-0.3,0.6-0.3c0.1,0,0.3,0,0.4,0.1c0.1,0,0.3,0.1,0.5,0.2c0.6,0.4,1.2,0.7,1.9,0.9
		c0.6,0.2,1.2,0.3,1.9,0.3c0.9,0,1.6-0.2,2.1-0.5c0.5-0.4,0.7-0.9,0.7-1.5c0-0.4-0.1-0.7-0.4-1s-0.6-0.4-1-0.6
		c-0.4-0.1-1-0.3-1.7-0.5c-1-0.3-1.9-0.5-2.5-0.8c-0.6-0.3-1.2-0.7-1.7-1.2c-0.5-0.5-0.7-1.3-0.7-2.2c0-1.1,0.4-2,1.2-2.8
		s1.8-1.3,3.1-1.5v-1.3c0-0.3,0.1-0.6,0.3-0.8c0.2-0.2,0.4-0.3,0.8-0.3c0.3,0,0.6,0.1,0.8,0.3c0.2,0.2,0.3,0.5,0.3,0.8v1.3
		c1.4,0.2,2.6,0.7,3.6,1.5c0.3,0.2,0.5,0.6,0.5,1c0,0.3-0.1,0.5-0.3,0.8c-0.2,0.2-0.4,0.3-0.6,0.3c-0.1,0-0.2,0-0.4-0.1
		s-0.3-0.1-0.5-0.2c-0.6-0.4-1.1-0.7-1.6-0.9c-0.5-0.2-1.1-0.3-1.8-0.3c-0.8,0-1.5,0.2-2,0.6c-0.5,0.4-0.8,0.9-0.8,1.5
		c0,0.5,0.1,0.8,0.4,1.1s0.6,0.5,1.1,0.6c0.4,0.2,1,0.3,1.8,0.5c1,0.2,1.8,0.5,2.4,0.8c0.6,0.3,1.2,0.7,1.6,1.2
		c0.4,0.5,0.7,1.2,0.7,2.1C305.5,306.7,305.1,307.6,304.4,308.3z"/>
	<path class="st8" d="M322.1,301c0.7,0.4,1.2,0.9,1.6,1.6c0.4,0.7,0.6,1.5,0.6,2.4c0,0.9-0.2,1.8-0.6,2.5c-0.4,0.7-1,1.3-1.8,1.7
		c-0.8,0.4-1.7,0.6-2.7,0.6c-0.8,0-1.7-0.1-2.5-0.4c-0.8-0.3-1.5-0.7-2.1-1.1c-0.3-0.3-0.5-0.6-0.5-1c0-0.3,0.1-0.6,0.3-0.8
		s0.4-0.3,0.6-0.3c0.1,0,0.3,0,0.4,0.1c0.1,0,0.3,0.1,0.4,0.2c0.5,0.4,1.1,0.7,1.6,0.9c0.5,0.2,1.1,0.3,1.7,0.3
		c0.9,0,1.6-0.2,2.1-0.7c0.5-0.5,0.7-1.1,0.7-1.9c0-0.8-0.2-1.4-0.7-1.9s-1.2-0.7-2-0.7c-0.5,0-1,0.1-1.4,0.2
		c-0.4,0.2-0.8,0.4-1.3,0.8c-0.3,0.2-0.5,0.3-0.8,0.3s-0.5-0.1-0.7-0.2s-0.3-0.4-0.3-0.7v-6.4c0-0.4,0.1-0.7,0.3-0.9
		c0.2-0.2,0.5-0.3,0.9-0.3h6.8c0.8,0,1.2,0.3,1.2,1c0,0.7-0.4,1-1.2,1h-5.5v3.9c0.7-0.5,1.5-0.7,2.6-0.7
		C320.6,300.4,321.4,300.6,322.1,301z"/>
	<path class="st8" d="M304.4,352.3c-0.8,0.8-1.8,1.2-3.1,1.4v1.3c0,0.3-0.1,0.6-0.3,0.8s-0.4,0.3-0.8,0.3c-0.3,0-0.6-0.1-0.8-0.3
		s-0.3-0.5-0.3-0.8v-1.2c-0.8-0.1-1.5-0.2-2.3-0.5c-0.7-0.3-1.4-0.6-1.9-1c-0.2-0.1-0.3-0.3-0.4-0.4s-0.1-0.3-0.1-0.6
		c0-0.3,0.1-0.5,0.3-0.8c0.2-0.2,0.4-0.3,0.6-0.3c0.1,0,0.3,0,0.4,0.1c0.1,0,0.3,0.1,0.5,0.2c0.6,0.4,1.2,0.7,1.9,0.9
		c0.6,0.2,1.2,0.3,1.9,0.3c0.9,0,1.6-0.2,2.1-0.5c0.5-0.4,0.7-0.9,0.7-1.5c0-0.4-0.1-0.7-0.4-1s-0.6-0.4-1-0.6
		c-0.4-0.1-1-0.3-1.7-0.5c-1-0.3-1.9-0.5-2.5-0.8c-0.6-0.3-1.2-0.7-1.7-1.2c-0.5-0.5-0.7-1.3-0.7-2.2c0-1.1,0.4-2,1.2-2.8
		s1.8-1.3,3.1-1.5v-1.3c0-0.3,0.1-0.6,0.3-0.8c0.2-0.2,0.4-0.3,0.8-0.3c0.3,0,0.6,0.1,0.8,0.3c0.2,0.2,0.3,0.5,0.3,0.8v1.3
		c1.4,0.2,2.6,0.7,3.6,1.5c0.3,0.2,0.5,0.6,0.5,1c0,0.3-0.1,0.5-0.3,0.8c-0.2,0.2-0.4,0.3-0.6,0.3c-0.1,0-0.2,0-0.4-0.1
		s-0.3-0.1-0.5-0.2c-0.6-0.4-1.1-0.7-1.6-0.9c-0.5-0.2-1.1-0.3-1.8-0.3c-0.8,0-1.5,0.2-2,0.6c-0.5,0.4-0.8,0.9-0.8,1.5
		c0,0.5,0.1,0.8,0.4,1.1s0.6,0.5,1.1,0.6c0.4,0.2,1,0.3,1.8,0.5c1,0.2,1.8,0.5,2.4,0.8c0.6,0.3,1.2,0.7,1.6,1.2
		c0.4,0.5,0.7,1.2,0.7,2.1C305.5,350.7,305.1,351.6,304.4,352.3z"/>
	<path class="st8" d="M323.1,347.5c0.5,0.6,0.7,1.4,0.7,2.3c0,1.2-0.5,2.2-1.4,3s-2.2,1.1-3.7,1.1c-0.9,0-1.7-0.1-2.6-0.4
		c-0.8-0.3-1.5-0.7-2.1-1.1c-0.3-0.3-0.5-0.6-0.5-1c0-0.3,0.1-0.6,0.3-0.8s0.4-0.3,0.6-0.3c0.1,0,0.3,0,0.4,0.1s0.3,0.1,0.5,0.2
		c0.6,0.4,1.1,0.7,1.6,0.9c0.5,0.2,1.1,0.3,1.7,0.3c0.9,0,1.6-0.2,2-0.5c0.4-0.4,0.7-0.9,0.7-1.6c0-0.7-0.2-1.3-0.7-1.6
		c-0.5-0.3-1.2-0.5-2.1-0.5h-1.2c-0.3,0-0.6-0.1-0.7-0.3c-0.2-0.2-0.3-0.5-0.3-0.7c0-0.3,0.1-0.5,0.3-0.7c0.2-0.2,0.4-0.3,0.7-0.3
		h0.8c1.9,0,2.8-0.7,2.8-2.1c0-0.7-0.2-1.2-0.6-1.5c-0.4-0.4-0.9-0.5-1.6-0.5c-1,0-2.1,0.4-3.2,1.2c-0.2,0.1-0.3,0.2-0.5,0.2
		c-0.1,0-0.2,0.1-0.4,0.1c-0.2,0-0.4-0.1-0.6-0.3s-0.3-0.5-0.3-0.8c0-0.2,0-0.4,0.1-0.5s0.2-0.3,0.4-0.4c0.6-0.5,1.3-0.9,2.1-1.1
		s1.6-0.4,2.4-0.4c1.4,0,2.6,0.3,3.4,1c0.8,0.7,1.3,1.6,1.3,2.8c0,0.8-0.2,1.5-0.6,2.1c-0.4,0.6-1,1-1.7,1.3
		C322,346.4,322.6,346.9,323.1,347.5z"/>
</g>
<g>
	<g>
		<g>
			<line class="st9" x1="198.1" y1="265" x2="281.6" y2="265"/>
		</g>
	</g>
</g>
<g>
	<g>
		<g>
			<line class="st9" x1="188.1" y1="307.5" x2="281.6" y2="307.5"/>
		</g>
	</g>
</g>
<g>
	<g>
		<g>
			<line class="st9" x1="188.1" y1="351.6" x2="281.6" y2="351.6"/>
		</g>
	</g>
</g>
<g>
	<g>
		<g>
			<line class="st9" x1="168.1" y1="217.5" x2="281.6" y2="217.5"/>
		</g>
	</g>
</g>
<g>
	<path class="st10" d="M92.1,206.8l-1.8-3.7c-0.9,0.3-2.1-0.1-2.5-1.1l-27.2,12.8c0.4,1,0.1,2-0.7,2.5l1.8,3.7
		c0.9-0.3,2.1,0.1,2.5,1.1l0,0c0.4,1,0.1,2-0.7,2.5l1.8,3.7c0.9-0.3,2.1,0.1,2.5,1.1l0,0l0,0L95,216.8l0,0l0,0c-0.4-1-0.1-2,0.7-2.5
		l-1.8-3.7c-0.9,0.3-2.1-0.1-2.5-1.1l0,0C90.9,208.4,91.2,207.4,92.1,206.8z"/>
	<g>
		<path class="st11" d="M83.9,205.4L83.9,205.4l-0.7-1.3c-0.1-0.4-0.1-0.7,0.3-0.9c0.4-0.1,0.7-0.1,0.9,0.3l0.6,1.2
			c0.1,0.4,0.1,0.7-0.3,0.9C84.5,205.8,84.1,205.7,83.9,205.4z"/>
		<path class="st11" d="M88.7,215.4L88.7,215.4l-1.2-2.6c-0.1-0.4-0.1-0.7,0.3-0.9c0.4-0.1,0.7-0.1,0.9,0.3l1.2,2.5
			c0.1,0.4,0.1,0.7-0.3,0.9C89.1,215.7,88.9,215.6,88.7,215.4z M86.3,210.5L86.3,210.5l-1.2-2.6c-0.1-0.4-0.1-0.7,0.3-0.9
			s0.7-0.1,0.9,0.3l1.2,2.5c0.1,0.4,0.1,0.7-0.3,0.9C86.8,210.8,86.4,210.7,86.3,210.5z"/>
		<path class="st11" d="M90.4,219.1L90.4,219.1l-0.7-1.3c-0.1-0.4-0.1-0.7,0.3-0.9c0.4-0.1,0.7-0.1,0.9,0.3l0.6,1.2
			c0.1,0.4,0.1,0.7-0.3,0.9C91,219.5,90.6,219.4,90.4,219.1z"/>
		
			<rect x="65.3" y="211" transform="matrix(0.904 -0.4276 0.4276 0.904 -85.4846 53.1212)" class="st11" width="20.5" height="11.7"/>
	</g>
	<polygon class="st6" points="74,213.5 76.1,215.7 78.7,214.5 77.3,217 79.4,219.2 76.4,218.7 75,221.3 74.6,218.3 71.7,217.7 
		74.3,216.5 	"/>
</g>
<g>
	<path class="st12" d="M86.3,288.9l-2.1,26.6H70.6l-2.1-26.6"/>
	<path class="st13" d="M67.7,285.3h19.4v3.6H67.7C67.7,288.9,67.7,285.3,67.7,285.3z"/>
	<path class="st10" d="M82,298.5c-1.2-0.4-2.6-0.1-3.7,0.6l-2.6,2c-1.6,1.2-3.8,1.1-5.2-0.4l-1.2-1.2l0.5,6.3l4.5,0.5
		c1.4,0.2,2.7-0.4,3.6-1.4c1.1-1.2,2.8-1.7,4.3-1.2l2.8,1l0.4-5.4L82,298.5z"/>
</g>
<g>
	<path class="st13" d="M91.6,247.3c0-0.9-0.9-1.6-2.1-1.6c-0.1-0.1-0.1-0.2-0.2-0.3c1-0.5,1.2-1.5,0.5-2.2c-0.7-0.7-2.1-0.9-3.1-0.4
		l-0.1,0.1c-0.1-0.1-0.2-0.1-0.3-0.2c0.2-0.2,0.2-0.5,0.2-0.7c0-0.9-1-1.6-2.2-1.6c-0.7,0-1.4,0.2-1.8,0.7c-0.4-0.1-0.8-0.2-1.2-0.3
		c-0.1-0.9-1.2-1.5-2.4-1.4c-0.9,0.1-1.6,0.5-1.9,1.1c-0.3,0-0.6,0-1,0.1c-0.3-0.8-1.6-1.3-2.7-1.1c-0.9,0.2-1.6,0.8-1.6,1.5
		c0,0.2,0,0.3,0.1,0.4l0,0c-0.9-0.6-2.3-0.6-3.1,0c-0.4,0.3-0.6,0.7-0.6,1.1v0.1c-0.2-0.1-0.5-0.1-0.7-0.1c-1.2,0-2.2,0.7-2.2,1.6
		c0,0.2,0.1,0.4,0.2,0.6c-1.2,0.2-1.9,1.1-1.5,2c0.2,0.4,0.5,0.8,1.1,1c-0.3,0.8-0.4,1.6-0.4,2.4h26.3c0-0.5-0.1-0.9-0.2-1.4
		C91.2,248.3,91.6,247.8,91.6,247.3L91.6,247.3z"/>
	<path class="st12" d="M88.4,270.4H67L63.8,250h27.8L88.4,270.4z"/>
	<path class="st14" d="M75.5,270.4L74.8,250H69l2.2,20.4H75.5z"/>
	<g>
		<path class="st12" d="M84.3,269.6l-0.1,0.8h4.1C87,270.2,85.6,269.9,84.3,269.6L84.3,269.6z"/>
	</g>
	<path class="st14" d="M86.4,250h-5.8l-0.7,18.2c1.4,0.6,2.9,1,4.4,1.4L86.4,250z"/>
	<path class="st14" d="M79.9,268.2l-0.1,2.2h4.4l0.1-0.8C82.8,269.2,81.4,268.7,79.9,268.2z"/>
</g>
<g>
	<polygon class="st15" points="78.5,338.6 77.8,338.6 76.7,338.6 76.7,361.3 77.8,361.3 77.8,361.3 77.8,361.3 78.9,361.3 
		78.9,338.6 	"/>
	<path class="st16" d="M90.9,340.8c0-2-1.2-3.6-2.8-4.4c0.1-0.4,0.2-0.9,0.2-1.4c0-2.7-2.2-4.9-4.9-4.9c-0.4,0-0.8,0-1.1,0.1
		c-0.7-1.7-2.5-2.9-4.5-2.9s-3.7,1.2-4.5,2.9c-0.4-0.1-0.7-0.1-1.1-0.1c-2.7,0-4.9,2.2-4.9,4.9c0,0.5,0.1,0.9,0.2,1.4
		c-1.7,0.8-2.8,2.5-2.8,4.4c0,2,1.2,3.6,2.8,4.4c-0.1,0.4-0.2,0.9-0.2,1.4c0,2.7,2.2,4.9,4.9,4.9c0.4,0,0.8,0,1.1-0.1
		c0.7,1.7,2.5,2.9,4.5,2.9v0c2,0,3.7-1.2,4.5-2.9c0.4,0.1,0.7,0.1,1.1,0.1c2.7,0,4.9-2.2,4.9-4.9c0-0.5-0.1-0.9-0.2-1.4
		C89.7,344.4,90.9,342.8,90.9,340.8z"/>
	<g>
		<path class="st17" d="M80,335.6L80,335.6c0.4,0,0.7,0.3,0.7,0.7l0,0c0,0.4-0.3,0.7-0.7,0.7l0,0c-0.4,0-0.7-0.3-0.7-0.7l0,0
			C79.3,335.9,79.6,335.6,80,335.6z"/>
	</g>
	<g>
		<path class="st17" d="M83.8,337.8L83.8,337.8c0.4,0,0.7,0.3,0.7,0.7l0,0c0,0.4-0.3,0.7-0.7,0.7l0,0c-0.4,0-0.7-0.3-0.7-0.7l0,0
			C83.1,338.1,83.4,337.8,83.8,337.8z"/>
	</g>
	<g>
		<path class="st17" d="M81.5,340.8L81.5,340.8c0.4,0,0.7,0.3,0.7,0.7l0,0c0,0.4-0.3,0.7-0.7,0.7l0,0c-0.4,0-0.7-0.3-0.7-0.7l0,0
			C80.8,341.1,81.1,340.8,81.5,340.8z"/>
	</g>
	<g>
		<path class="st17" d="M87.2,340.4L87.2,340.4c0.4,0,0.7,0.3,0.7,0.7l0,0c0,0.4-0.3,0.7-0.7,0.7l0,0c-0.4,0-0.7-0.3-0.7-0.7l0,0
			C86.5,340.8,86.8,340.4,87.2,340.4z"/>
	</g>
	<g>
		<path class="st17" d="M84.2,343.4L84.2,343.4c0.4,0,0.7,0.3,0.7,0.7l0,0c0,0.4-0.3,0.7-0.7,0.7h0c-0.4,0-0.7-0.3-0.7-0.7l0,0
			C83.5,343.7,83.8,343.4,84.2,343.4z"/>
	</g>
	<g>
		<path class="st17" d="M80.8,344.8L80.8,344.8c0.4,0,0.7,0.3,0.7,0.7l0,0c0,0.4-0.3,0.7-0.7,0.7l0,0c-0.4,0-0.7-0.3-0.7-0.7l0,0
			C80,345.1,80.4,344.8,80.8,344.8z"/>
	</g>
	<g>
		<path class="st17" d="M83.5,347.8L83.5,347.8c0.4,0,0.7,0.3,0.7,0.7l0,0c0,0.4-0.3,0.7-0.7,0.7h0c-0.4,0-0.7-0.3-0.7-0.7l0,0
			C82.7,348.1,83.1,347.8,83.5,347.8z"/>
	</g>
	<g>
		<path class="st17" d="M82.7,332.9L82.7,332.9c0.4,0,0.7,0.3,0.7,0.7l0,0c0,0.4-0.3,0.7-0.7,0.7l0,0c-0.4,0-0.7-0.3-0.7-0.7l0,0
			C82,333.2,82.3,332.9,82.7,332.9z"/>
	</g>
</g>
</svg>
