<?xml version="1.0" encoding="utf-8"?>
<!-- Generator: Adobe Illustrator 22.1.0, SVG Export Plug-In . SVG Version: 6.00 Build 0)  -->
<svg version="1.1" xmlns="http://www.w3.org/2000/svg" xmlns:xlink="http://www.w3.org/1999/xlink" x="0px" y="0px"
	 viewBox="0 0 184.7 40" style="enable-background:new 0 0 184.7 40;" xml:space="preserve">
<style type="text/css">
	.st0{fill:#637BA1;}
	.st1{fill:#FFFFFF;stroke:#FFFFFF;stroke-width:4;stroke-linecap:round;stroke-linejoin:round;stroke-miterlimit:10;}
	.st2{fill:#FFD782;}
	.st3{fill:#FF6465;}
	.st4{fill:#FFFFFF;}
	.st5{fill:#E3472C;}
	.st6{fill:#FFD884;}
	.st7{fill:#F6F6E7;}
	.st8{fill:#FFC44F;}
	.st9{fill:#F19290;}
	.st10{fill:#E94C4B;}
</style>
<g id="Layer_2">
	<g>
		<path class="st0" d="M184.7,0H0v40h184.7V0L184.7,0z"/>
	</g>
</g>
<g id="Layer_1">
	<g>
		<path class="st1" d="M18.5,5.9l-3.2-0.7c-0.3,0.7-1.1,1.2-1.9,1L8,29.2c0.8,0.2,1.3,0.9,1.2,1.7l3.2,0.7c0.3-0.7,1.1-1.2,1.9-1
			l0,0c0.8,0.2,1.3,0.9,1.2,1.7l3.2,0.7c0.3-0.7,1.1-1.2,1.9-1l0,0l0,0L26,9l0,0l0,0c-0.8-0.2-1.3-0.9-1.2-1.7l-3.2-0.7
			c-0.3,0.7-1.1,1.2-1.9,1l0,0C18.9,7.4,18.4,6.7,18.5,5.9z"/>
		<g>
			<path class="st1" d="M13.6,10.3h-0.1l-1-0.2C12.2,10,12,9.8,12.1,9.5s0.3-0.5,0.6-0.4l1,0.2c0.3,0.1,0.5,0.3,0.4,0.6
				C14.1,10.1,13.9,10.3,13.6,10.3z"/>
			<path class="st1" d="M22.1,12.2H22l-2.1-0.5c-0.3-0.1-0.5-0.3-0.4-0.6s0.3-0.5,0.6-0.4l2.1,0.5c0.3,0.1,0.5,0.3,0.4,0.6
				S22.3,12.2,22.1,12.2z M17.9,11.3h-0.1l-2.1-0.5c-0.3-0.1-0.5-0.3-0.4-0.6s0.3-0.5,0.6-0.4l2.1,0.5c0.3,0.1,0.5,0.3,0.4,0.6
				C18.3,11.1,18.1,11.3,17.9,11.3z"/>
			<path class="st1" d="M25.2,13h-0.1l-1-0.2c-0.3-0.1-0.5-0.3-0.4-0.6s0.3-0.5,0.6-0.4l1,0.2c0.3,0.1,0.5,0.3,0.4,0.6
				C25.7,12.8,25.5,13,25.2,13z"/>
			
				<rect x="8.5" y="16.4" transform="matrix(0.2285 -0.9735 0.9735 0.2285 -7.6984 32.3447)" class="st1" width="16.1" height="9.2"/>
		</g>
		<polygon class="st1" points="13.7,20.3 16.1,20.1 16.6,17.9 17.5,20 19.9,19.8 18.1,21.4 19,23.5 17,22.3 15.2,23.8 15.7,21.6 		
			"/>
	</g>
	<g>
		<path class="st1" d="M40.5,5.9l-3.2-0.7c-0.3,0.7-1.1,1.2-1.9,1l-5.4,23c0.8,0.2,1.3,0.9,1.2,1.7l3.2,0.7c0.3-0.7,1.1-1.2,1.9-1
			l0,0c0.8,0.2,1.3,0.9,1.2,1.7l3.2,0.7c0.3-0.7,1.1-1.2,1.9-1l0,0l0,0L48,9l0,0l0,0c-0.8-0.2-1.3-0.9-1.2-1.7l-3.2-0.7
			c-0.3,0.7-1.1,1.2-1.9,1l0,0C40.9,7.4,40.4,6.7,40.5,5.9z"/>
		<g>
			<path class="st1" d="M35.6,10.3L35.6,10.3l-1.1-0.2C34.2,10,34,9.8,34.1,9.5c0.1-0.3,0.3-0.5,0.6-0.4l1,0.2
				c0.3,0.1,0.5,0.3,0.4,0.6C36.1,10.1,35.9,10.3,35.6,10.3z"/>
			<path class="st1" d="M44.1,12.2L44.1,12.2l-2.2-0.5c-0.3-0.1-0.5-0.3-0.4-0.6s0.3-0.5,0.6-0.4l2.1,0.5c0.3,0.1,0.5,0.3,0.4,0.6
				S44.3,12.2,44.1,12.2z M39.9,11.3L39.9,11.3l-2.2-0.5c-0.3-0.1-0.5-0.3-0.4-0.6s0.3-0.5,0.6-0.4l2.1,0.5c0.3,0.1,0.5,0.3,0.4,0.6
				C40.3,11.1,40.1,11.3,39.9,11.3z"/>
			<path class="st1" d="M47.2,13L47.2,13l-1.1-0.2c-0.3-0.1-0.5-0.3-0.4-0.6s0.3-0.5,0.6-0.4l1,0.2c0.3,0.1,0.5,0.3,0.4,0.6
				C47.7,12.8,47.5,13,47.2,13z"/>
			
				<rect x="30.5" y="16.4" transform="matrix(0.2285 -0.9735 0.9735 0.2285 9.2734 53.7631)" class="st1" width="16.1" height="9.2"/>
		</g>
		<polygon class="st1" points="35.7,20.3 38.1,20.1 38.6,17.9 39.5,20 41.9,19.8 40.1,21.4 41,23.5 39,22.3 37.2,23.8 37.7,21.6 		
			"/>
	</g>
	<g>
		<path class="st1" d="M73.6,13.7l-1.7,21.6H60.8l-1.7-21.6"/>
		<path class="st1" d="M58.5,10.8h15.8v2.9H58.5C58.5,13.7,58.5,10.8,58.5,10.8z"/>
		<path class="st1" d="M70.1,21.5c-1-0.3-2.1-0.1-3,0.5L65,23.6c-1.3,1-3.1,0.9-4.2-0.3l-1-1l0.4,5.1l3.7,0.4
			c1.1,0.2,2.2-0.3,2.9-1.1c0.9-1,2.3-1.4,3.5-1l2.3,0.8l0.3-4.4L70.1,21.5z"/>
	</g>
	<g>
		<path class="st1" d="M95.9,13.7l-1.7,21.6h-11l-1.7-21.6"/>
		<path class="st1" d="M80.8,10.8h15.8v2.9H80.8C80.8,13.7,80.8,10.8,80.8,10.8z"/>
		<path class="st1" d="M92.5,21.5c-1-0.3-2.1-0.1-3,0.5l-2.1,1.6c-1.3,1-3.1,0.9-4.2-0.3l-1-1l0.4,5.1l3.7,0.4
			c1.1,0.2,2.2-0.3,2.9-1.1c0.9-1,2.3-1.4,3.5-1l2.3,0.8l0.3-4.4L92.5,21.5z"/>
	</g>
	<g>
		<path class="st1" d="M140.1,11.6c0-0.9-0.9-1.6-2.1-1.6c-0.1-0.1-0.1-0.2-0.2-0.3c1-0.5,1.2-1.5,0.5-2.2c-0.7-0.7-2.1-0.9-3.1-0.4
			l-0.1,0.1c-0.1-0.1-0.2-0.1-0.3-0.2c0.2-0.2,0.2-0.5,0.2-0.7c0-0.9-1-1.6-2.2-1.6c-0.7,0-1.4,0.2-1.8,0.7
			c-0.4-0.1-0.8-0.2-1.2-0.3c-0.1-0.9-1.2-1.5-2.4-1.4c-0.9,0.1-1.6,0.5-1.9,1.1c-0.3,0-0.6,0-1,0.1c-0.3-0.8-1.6-1.3-2.7-1.1
			c-0.9,0.2-1.6,0.8-1.6,1.5c0,0.2,0,0.3,0.1,0.4l0,0c-0.9-0.6-2.3-0.6-3.1,0c-0.4,0.3-0.6,0.7-0.6,1.1v0.1
			c-0.2-0.1-0.5-0.1-0.7-0.1c-1.2,0-2.2,0.7-2.2,1.6c0,0.2,0.1,0.4,0.2,0.6c-1.2,0.2-1.9,1.1-1.5,2c0.2,0.4,0.5,0.8,1.1,1
			c-0.3,0.8-0.4,1.6-0.4,2.4h26.3c0-0.5-0.1-0.9-0.2-1.4C139.7,12.6,140.1,12.1,140.1,11.6L140.1,11.6z"/>
		<path class="st1" d="M136.9,34.7h-21.4l-3.2-20.4h27.8L136.9,34.7z"/>
		<path class="st1" d="M124,34.7l-0.7-20.4h-5.8l2.2,20.4H124z"/>
		<g>
			<path class="st1" d="M132.8,33.9l-0.1,0.8h4.1C135.5,34.5,134.1,34.2,132.8,33.9L132.8,33.9z"/>
		</g>
		<path class="st1" d="M134.9,14.3h-5.8l-0.7,18.2c1.4,0.6,2.9,1,4.4,1.4L134.9,14.3z"/>
		<path class="st1" d="M128.4,32.5l-0.1,2.2h4.4l0.1-0.8C131.3,33.5,129.9,33,128.4,32.5z"/>
	</g>
	<g>
		<polygon class="st1" points="167.1,15.5 166.4,15.1 165.5,14.5 153,33.5 153.9,34.1 153.9,34.1 153.9,34.1 154.8,34.7 167.4,15.7 
					"/>
		<path class="st1" d="M176.1,24.2c1.1-1.6,1-3.7,0.1-5.2c0.4-0.3,0.7-0.6,0.9-1c1.5-2.2,0.9-5.3-1.4-6.7c-0.3-0.2-0.7-0.4-1-0.5
			c0.3-1.9-0.4-3.8-2.1-4.9c-1.7-1.1-3.8-1-5.3,0c-0.3-0.3-0.5-0.5-0.9-0.7c-2.2-1.5-5.3-0.9-6.7,1.4c-0.3,0.4-0.5,0.8-0.6,1.3
			c-1.8-0.3-3.7,0.5-4.8,2.1c-1.1,1.6-1,3.7-0.1,5.2c-0.4,0.3-0.7,0.6-0.9,1c-1.5,2.2-0.9,5.3,1.4,6.7c0.3,0.2,0.7,0.4,1,0.5
			c-0.3,1.9,0.4,3.8,2.1,4.9l0,0c1.7,1.1,3.8,1,5.3,0c0.3,0.3,0.5,0.5,0.9,0.7c2.2,1.5,5.3,0.9,6.7-1.4c0.3-0.4,0.5-0.8,0.6-1.3
			C173.2,26.6,175,25.8,176.1,24.2z"/>
		<g>
			<path class="st1" d="M170,13.8L170,13.8c0.3,0.2,0.4,0.7,0.2,1v0c-0.2,0.3-0.7,0.4-1,0.2v0c-0.3-0.2-0.4-0.7-0.2-1l0,0
				C169.2,13.7,169.6,13.6,170,13.8z"/>
		</g>
		<g>
			<path class="st1" d="M171.9,17.8L171.9,17.8c0.3,0.2,0.4,0.7,0.2,1v0c-0.2,0.3-0.7,0.4-1,0.2l0,0c-0.3-0.2-0.4-0.7-0.2-1v0
				C171.1,17.7,171.6,17.6,171.9,17.8z"/>
		</g>
		<g>
			<path class="st1" d="M168.3,19L168.3,19c0.3,0.2,0.4,0.7,0.2,1v0c-0.2,0.3-0.7,0.4-1,0.2v0c-0.3-0.2-0.4-0.7-0.2-1v0
				C167.5,18.9,168,18.8,168.3,19z"/>
		</g>
		<g>
			<path class="st1" d="M173.3,21.8L173.3,21.8c0.3,0.2,0.4,0.7,0.2,1v0c-0.2,0.3-0.7,0.4-1,0.2v0c-0.3-0.2-0.4-0.7-0.2-1v0
				C172.5,21.7,172.9,21.6,173.3,21.8z"/>
		</g>
		<g>
			<path class="st1" d="M169.1,22.7L169.1,22.7c0.3,0.2,0.4,0.7,0.2,1v0c-0.2,0.3-0.7,0.4-1,0.2l0,0c-0.3-0.2-0.4-0.7-0.2-1v0
				C168.3,22.5,168.8,22.4,169.1,22.7z"/>
		</g>
		<g>
			<path class="st1" d="M165.5,21.9L165.5,21.9c0.3,0.2,0.4,0.7,0.2,1v0c-0.2,0.3-0.7,0.4-1,0.2v0c-0.3-0.2-0.4-0.7-0.2-1v0
				C164.7,21.8,165.2,21.7,165.5,21.9z"/>
		</g>
		<g>
			<path class="st1" d="M166.1,25.9L166.1,25.9c0.3,0.2,0.4,0.7,0.2,1v0c-0.2,0.3-0.7,0.4-1,0.2v0c-0.3-0.2-0.4-0.7-0.2-1v0
				C165.3,25.8,165.8,25.7,166.1,25.9z"/>
		</g>
		<g>
			<path class="st1" d="M173.7,13.1L173.7,13.1c0.3,0.2,0.4,0.7,0.2,1l0,0c-0.2,0.3-0.7,0.4-1,0.2v0c-0.3-0.2-0.4-0.7-0.2-1v0
				C172.9,12.9,173.3,12.8,173.7,13.1z"/>
		</g>
	</g>
	<g>
		<path class="st2" d="M18.5,5.9l-3.2-0.7c-0.3,0.7-1.1,1.2-1.9,1L8,29.2c0.8,0.2,1.3,0.9,1.2,1.7l3.2,0.7c0.3-0.7,1.1-1.2,1.9-1
			l0,0c0.8,0.2,1.3,0.9,1.2,1.7l3.2,0.7c0.3-0.7,1.1-1.2,1.9-1l0,0l0,0L26,9l0,0l0,0c-0.8-0.2-1.3-0.9-1.2-1.7l-3.2-0.7
			c-0.3,0.7-1.1,1.2-1.9,1l0,0C18.9,7.4,18.4,6.7,18.5,5.9z"/>
		<g>
			<path class="st3" d="M13.6,10.3h-0.1l-1-0.2C12.2,10,12,9.8,12.1,9.5s0.3-0.5,0.6-0.4l1,0.2c0.3,0.1,0.5,0.3,0.4,0.6
				C14.1,10.1,13.9,10.3,13.6,10.3z"/>
			<path class="st3" d="M22.1,12.2H22l-2.1-0.5c-0.3-0.1-0.5-0.3-0.4-0.6s0.3-0.5,0.6-0.4l2.1,0.5c0.3,0.1,0.5,0.3,0.4,0.6
				S22.3,12.2,22.1,12.2z M17.9,11.3h-0.1l-2.1-0.5c-0.3-0.1-0.5-0.3-0.4-0.6s0.3-0.5,0.6-0.4l2.1,0.5c0.3,0.1,0.5,0.3,0.4,0.6
				C18.3,11.1,18.1,11.3,17.9,11.3z"/>
			<path class="st3" d="M25.2,13h-0.1l-1-0.2c-0.3-0.1-0.5-0.3-0.4-0.6s0.3-0.5,0.6-0.4l1,0.2c0.3,0.1,0.5,0.3,0.4,0.6
				C25.7,12.8,25.5,13,25.2,13z"/>
			
				<rect x="8.5" y="16.4" transform="matrix(0.2285 -0.9735 0.9735 0.2285 -7.6984 32.3447)" class="st3" width="16.1" height="9.2"/>
		</g>
		<polygon class="st4" points="13.7,20.3 16.1,20.1 16.6,17.9 17.5,20 19.9,19.8 18.1,21.4 19,23.5 17,22.3 15.2,23.8 15.7,21.6 		
			"/>
	</g>
	<g>
		<path class="st2" d="M40.5,5.9l-3.2-0.7c-0.3,0.7-1.1,1.2-1.9,1l-5.4,23c0.8,0.2,1.3,0.9,1.2,1.7l3.2,0.7c0.3-0.7,1.1-1.2,1.9-1
			l0,0c0.8,0.2,1.3,0.9,1.2,1.7l3.2,0.7c0.3-0.7,1.1-1.2,1.9-1l0,0l0,0L48,9l0,0l0,0c-0.8-0.2-1.3-0.9-1.2-1.7l-3.2-0.7
			c-0.3,0.7-1.1,1.2-1.9,1l0,0C40.9,7.4,40.4,6.7,40.5,5.9z"/>
		<g>
			<path class="st3" d="M35.6,10.3L35.6,10.3l-1.1-0.2C34.2,10,34,9.8,34.1,9.5c0.1-0.3,0.3-0.5,0.6-0.4l1,0.2
				c0.3,0.1,0.5,0.3,0.4,0.6C36.1,10.1,35.9,10.3,35.6,10.3z"/>
			<path class="st3" d="M44.1,12.2L44.1,12.2l-2.2-0.5c-0.3-0.1-0.5-0.3-0.4-0.6s0.3-0.5,0.6-0.4l2.1,0.5c0.3,0.1,0.5,0.3,0.4,0.6
				S44.3,12.2,44.1,12.2z M39.9,11.3L39.9,11.3l-2.2-0.5c-0.3-0.1-0.5-0.3-0.4-0.6s0.3-0.5,0.6-0.4l2.1,0.5c0.3,0.1,0.5,0.3,0.4,0.6
				C40.3,11.1,40.1,11.3,39.9,11.3z"/>
			<path class="st3" d="M47.2,13L47.2,13l-1.1-0.2c-0.3-0.1-0.5-0.3-0.4-0.6s0.3-0.5,0.6-0.4l1,0.2c0.3,0.1,0.5,0.3,0.4,0.6
				C47.7,12.8,47.5,13,47.2,13z"/>
			
				<rect x="30.5" y="16.4" transform="matrix(0.2285 -0.9735 0.9735 0.2285 9.2734 53.7631)" class="st3" width="16.1" height="9.2"/>
		</g>
		<polygon class="st4" points="35.7,20.3 38.1,20.1 38.6,17.9 39.5,20 41.9,19.8 40.1,21.4 41,23.5 39,22.3 37.2,23.8 37.7,21.6 		
			"/>
	</g>
	<g>
		<path class="st5" d="M73.6,13.7l-1.7,21.6H60.8l-1.7-21.6"/>
		<path class="st6" d="M58.5,10.8h15.8v2.9H58.5C58.5,13.7,58.5,10.8,58.5,10.8z"/>
		<path class="st2" d="M70.1,21.5c-1-0.3-2.1-0.1-3,0.5L65,23.6c-1.3,1-3.1,0.9-4.2-0.3l-1-1l0.4,5.1l3.7,0.4
			c1.1,0.2,2.2-0.3,2.9-1.1c0.9-1,2.3-1.4,3.5-1l2.3,0.8l0.3-4.4L70.1,21.5z"/>
	</g>
	<g>
		<path class="st5" d="M95.9,13.7l-1.7,21.6h-11l-1.7-21.6"/>
		<path class="st6" d="M80.8,10.8h15.8v2.9H80.8C80.8,13.7,80.8,10.8,80.8,10.8z"/>
		<path class="st2" d="M92.5,21.5c-1-0.3-2.1-0.1-3,0.5l-2.1,1.6c-1.3,1-3.1,0.9-4.2-0.3l-1-1l0.4,5.1l3.7,0.4
			c1.1,0.2,2.2-0.3,2.9-1.1c0.9-1,2.3-1.4,3.5-1l2.3,0.8l0.3-4.4L92.5,21.5z"/>
	</g>
	<g>
		<path class="st6" d="M140.1,11.6c0-0.9-0.9-1.6-2.1-1.6c-0.1-0.1-0.1-0.2-0.2-0.3c1-0.5,1.2-1.5,0.5-2.2c-0.7-0.7-2.1-0.9-3.1-0.4
			l-0.1,0.1c-0.1-0.1-0.2-0.1-0.3-0.2c0.2-0.2,0.2-0.5,0.2-0.7c0-0.9-1-1.6-2.2-1.6c-0.7,0-1.4,0.2-1.8,0.7
			c-0.4-0.1-0.8-0.2-1.2-0.3c-0.1-0.9-1.2-1.5-2.4-1.4c-0.9,0.1-1.6,0.5-1.9,1.1c-0.3,0-0.6,0-1,0.1c-0.3-0.8-1.6-1.3-2.7-1.1
			c-0.9,0.2-1.6,0.8-1.6,1.5c0,0.2,0,0.3,0.1,0.4l0,0c-0.9-0.6-2.3-0.6-3.1,0c-0.4,0.3-0.6,0.7-0.6,1.1v0.1
			c-0.2-0.1-0.5-0.1-0.7-0.1c-1.2,0-2.2,0.7-2.2,1.6c0,0.2,0.1,0.4,0.2,0.6c-1.2,0.2-1.9,1.1-1.5,2c0.2,0.4,0.5,0.8,1.1,1
			c-0.3,0.8-0.4,1.6-0.4,2.4h26.3c0-0.5-0.1-0.9-0.2-1.4C139.7,12.6,140.1,12.1,140.1,11.6L140.1,11.6z"/>
		<path class="st5" d="M136.9,34.7h-21.4l-3.2-20.4h27.8L136.9,34.7z"/>
		<path class="st7" d="M124,34.7l-0.7-20.4h-5.8l2.2,20.4H124z"/>
		<g>
			<path class="st5" d="M132.8,33.9l-0.1,0.8h4.1C135.5,34.5,134.1,34.2,132.8,33.9L132.8,33.9z"/>
		</g>
		<path class="st7" d="M134.9,14.3h-5.8l-0.7,18.2c1.4,0.6,2.9,1,4.4,1.4L134.9,14.3z"/>
		<path class="st7" d="M128.4,32.5l-0.1,2.2h4.4l0.1-0.8C131.3,33.5,129.9,33,128.4,32.5z"/>
	</g>
	<g>
		<polygon class="st8" points="167.1,15.5 166.4,15.1 165.5,14.5 153,33.5 153.9,34.1 153.9,34.1 153.9,34.1 154.8,34.7 167.4,15.7 
					"/>
		<path class="st9" d="M176.1,24.2c1.1-1.6,1-3.7,0.1-5.2c0.4-0.3,0.7-0.6,0.9-1c1.5-2.2,0.9-5.3-1.4-6.7c-0.3-0.2-0.7-0.4-1-0.5
			c0.3-1.9-0.4-3.8-2.1-4.9c-1.7-1.1-3.8-1-5.3,0c-0.3-0.3-0.5-0.5-0.9-0.7c-2.2-1.5-5.3-0.9-6.7,1.4c-0.3,0.4-0.5,0.8-0.6,1.3
			c-1.8-0.3-3.7,0.5-4.8,2.1c-1.1,1.6-1,3.7-0.1,5.2c-0.4,0.3-0.7,0.6-0.9,1c-1.5,2.2-0.9,5.3,1.4,6.7c0.3,0.2,0.7,0.4,1,0.5
			c-0.3,1.9,0.4,3.8,2.1,4.9l0,0c1.7,1.1,3.8,1,5.3,0c0.3,0.3,0.5,0.5,0.9,0.7c2.2,1.5,5.3,0.9,6.7-1.4c0.3-0.4,0.5-0.8,0.6-1.3
			C173.2,26.6,175,25.8,176.1,24.2z"/>
		<g>
			<path class="st10" d="M170,13.8L170,13.8c0.3,0.2,0.4,0.7,0.2,1v0c-0.2,0.3-0.7,0.4-1,0.2v0c-0.3-0.2-0.4-0.7-0.2-1l0,0
				C169.2,13.7,169.6,13.6,170,13.8z"/>
		</g>
		<g>
			<path class="st10" d="M171.9,17.8L171.9,17.8c0.3,0.2,0.4,0.7,0.2,1v0c-0.2,0.3-0.7,0.4-1,0.2l0,0c-0.3-0.2-0.4-0.7-0.2-1v0
				C171.1,17.7,171.6,17.6,171.9,17.8z"/>
		</g>
		<g>
			<path class="st10" d="M168.3,19L168.3,19c0.3,0.2,0.4,0.7,0.2,1v0c-0.2,0.3-0.7,0.4-1,0.2v0c-0.3-0.2-0.4-0.7-0.2-1v0
				C167.5,18.9,168,18.8,168.3,19z"/>
		</g>
		<g>
			<path class="st10" d="M173.3,21.8L173.3,21.8c0.3,0.2,0.4,0.7,0.2,1v0c-0.2,0.3-0.7,0.4-1,0.2v0c-0.3-0.2-0.4-0.7-0.2-1v0
				C172.5,21.7,172.9,21.6,173.3,21.8z"/>
		</g>
		<g>
			<path class="st10" d="M169.1,22.7L169.1,22.7c0.3,0.2,0.4,0.7,0.2,1v0c-0.2,0.3-0.7,0.4-1,0.2l0,0c-0.3-0.2-0.4-0.7-0.2-1v0
				C168.3,22.5,168.8,22.4,169.1,22.7z"/>
		</g>
		<g>
			<path class="st10" d="M165.5,21.9L165.5,21.9c0.3,0.2,0.4,0.7,0.2,1v0c-0.2,0.3-0.7,0.4-1,0.2v0c-0.3-0.2-0.4-0.7-0.2-1v0
				C164.7,21.8,165.2,21.7,165.5,21.9z"/>
		</g>
		<g>
			<path class="st10" d="M166.1,25.9L166.1,25.9c0.3,0.2,0.4,0.7,0.2,1v0c-0.2,0.3-0.7,0.4-1,0.2v0c-0.3-0.2-0.4-0.7-0.2-1v0
				C165.3,25.8,165.8,25.7,166.1,25.9z"/>
		</g>
		<g>
			<path class="st10" d="M173.7,13.1L173.7,13.1c0.3,0.2,0.4,0.7,0.2,1l0,0c-0.2,0.3-0.7,0.4-1,0.2v0c-0.3-0.2-0.4-0.7-0.2-1v0
				C172.9,12.9,173.3,12.8,173.7,13.1z"/>
		</g>
	</g>
</g>
</svg>
