<?xml version="1.0" encoding="utf-8"?>
<!-- Generator: Adobe Illustrator 22.1.0, SVG Export Plug-In . SVG Version: 6.00 Build 0)  -->
<svg version="1.1" id="Layer_1" xmlns="http://www.w3.org/2000/svg" xmlns:xlink="http://www.w3.org/1999/xlink" x="0px" y="0px"
	 viewBox="0 0 400 400" style="enable-background:new 0 0 400 400;" xml:space="preserve">
<style type="text/css">
	.st0{fill:#FFFFFF;}
	.st1{enable-background:new    ;}
	.st2{fill:#FFFFFF;stroke:#FFFFFF;stroke-width:10;stroke-linecap:round;stroke-linejoin:round;stroke-miterlimit:10;}
	.st3{fill:#CC0000;}
	.st4{fill:none;stroke:#000000;stroke-width:5.4406;stroke-linecap:round;stroke-linejoin:round;stroke-miterlimit:10;}
	.st5{fill:#EA7E1E;}
	.st6{fill:none;stroke:#000000;stroke-width:5.326;stroke-linecap:round;stroke-linejoin:round;stroke-miterlimit:10;}
	.st7{fill:#66AD66;}
	.st8{fill:#4D984E;}
	.st9{fill:#FC5E71;}
	.st10{fill:#FD747F;}
	.st11{fill:#FEC37D;}
	.st12{fill:#F2A559;}
	.st13{fill:#993E29;}
	.st14{fill:#A8503C;}
	.st15{fill:#00779E;}
	.st16{fill:#55C2E3;}
</style>
<g>
	<g>
		<g>
			<g>
				<path class="st0" d="M127.4,102.2c-1.5,0-3-0.5-4.2-1.3c-0.1-0.1-0.2-0.1-0.2-0.2c-3.3-2.5-4.2-7.1-1.9-10.6
					c19.2-28.6,42.6-31.7,51.8-31.7c1.8,0,3,0.1,3.5,0.2c2.1,0.2,4,1.3,5.2,3c1.2,1.6,1.7,3.5,1.5,5.5c-0.4,3.8-3.8,6.8-7.8,6.8
					c-0.3,0-0.5,0-0.8,0c-0.1,0-0.2,0-0.2,0s-0.6-0.1-1.8-0.1c-6.6,0-23.7,2.4-38.7,24.9c-0.1,0.1-0.2,0.2-0.3,0.3
					C132.1,101.1,129.7,102.2,127.4,102.2z"/>
				<path class="st0" d="M172.8,63.5c1.7,0,2.8,0.1,3,0.1c1.5,0.1,2.5,1.6,2.3,3.1c-0.1,1.4-1.4,2.3-2.8,2.3c-0.1,0-0.2,0-0.3,0
					c-0.2,0-1-0.1-2.5-0.1c-6.8,0-26.4,2.4-42.9,27.1c-0.6,0.7-1.5,1.2-2.3,1.2c-0.4,0-1-0.1-1.5-0.4c-1.2-0.9-1.6-2.5-0.7-3.8
					C143.2,66.1,165,63.5,172.8,63.5 M172.8,53.5L172.8,53.5c-10,0-35.5,3.3-56,33.9c-3.8,5.6-2.4,13.3,3,17.4
					c0.1,0.1,0.3,0.2,0.5,0.3c2,1.4,4.5,2.1,7,2.1c3.9,0,7.7-1.8,10.1-4.9c0.2-0.2,0.3-0.5,0.5-0.7c3.6-5.3,16.6-22.7,34.6-22.7
					c0.7,0,1.1,0,1.2,0c0.1,0,0.2,0,0.3,0c0.4,0,0.9,0.1,1.3,0.1c6.6,0,12.1-4.9,12.7-11.4c0.3-3.2-0.6-6.4-2.5-9
					c-2.1-2.8-5.2-4.6-8.7-5C176.2,53.6,174.8,53.5,172.8,53.5L172.8,53.5z"/>
			</g>
		</g>
		<g>
			<g>
				<path class="st0" d="M182,101.1c-3.4,0-6.5-1.3-8.8-3.8l-21.4-21.7c-4.2-4.2-4.6-11-1-15.8l18.4-24.2c2.1-2.8,5.3-4.6,8.8-4.9
					c0,0,58.4-6.3,58.5-6.3c0.3,0,0.6,0,0.9,0c6.6,0,11.9,5.1,12.2,11.6l3.2,45.7c0.2,3.4-0.9,6.6-3.1,9.1c-2.2,2.4-5.1,3.8-8.4,4
					L183,101c-0.1,0-0.1,0-0.2,0C182.6,101.1,182.3,101.1,182,101.1z M169.1,66.2c0.1,0.2,0.2,0.4,0.4,0.4c0.1,0,0.2,0,0.3-0.1
					c0,0,0.1-0.2,0.1-0.3c0-0.1-0.2-0.4-0.4-0.4l0,0c0,0-0.1,0.1-0.2,0.1C169.2,66.1,169.1,66.2,169.1,66.2z"/>
				<path class="st0" d="M237.3,29.4c3.9,0,7.1,3,7.2,6.9l3.2,45.8c0.3,4.1-2.8,7.6-6.9,7.7L182.5,96c-0.2,0-0.4,0-0.5,0
					c-2,0-3.8-0.7-5.1-2.2l-21.4-21.7c-2.3-2.3-2.8-6.4-0.6-9.3l18.4-24.2c1.3-1.8,3.2-2.8,5.3-2.9l58.4-6.3
					C237,29.4,237.1,29.4,237.3,29.4 M169.5,71.7c0.1,0,0.2,0,0.3,0c3.1-0.1,5.3-2.8,5.1-5.7c-0.1-2.8-2.6-5.1-5.4-5.1
					c-0.1,0-0.2,0-0.3,0c-2.9,0.1-5.3,2.8-5.1,5.7C164.4,69.5,166.7,71.7,169.5,71.7 M237.3,19.4c-0.4,0-0.8,0-1.2,0
					c-0.1,0-0.2,0-0.4,0l-58.2,6.3c-4.9,0.4-9.3,2.9-12.3,6.8l-18.4,24.2l0,0c-5.1,6.8-4.5,16.4,1.5,22.4l21.3,21.6
					c3.2,3.4,7.6,5.3,12.4,5.3c0.4,0,0.8,0,1.2,0c0.1,0,0.3,0,0.4,0l58.1-6.2c4.5-0.3,8.7-2.3,11.7-5.6c3.1-3.5,4.7-8.1,4.4-12.8
					l-3.2-45.7C254.1,26.5,246.6,19.4,237.3,19.4L237.3,19.4z"/>
			</g>
		</g>
		<g>
			<g>
				<g class="st1">
					<g>
						<path class="st0" d="M214.3,83.5c-3.4,0-6.4-0.7-8.9-2.2c-3.6-2.1-5.7-5.5-6.2-9.8c-0.3-3,0.2-5.7,1.6-8.1
							c0-0.1,0.1-0.1,0.1-0.2c-1.4-1.8-2.3-4-2.6-6.5c-0.4-4.1,0.8-7.8,3.7-10.6c2.6-2.5,6.2-4,10.6-4.5c0.9-0.1,1.8-0.1,2.7-0.1
							c3.3,0,6.2,0.8,8.7,2.2c3.4,2.1,5.5,5.4,5.9,9.5c0.3,2.5-0.1,4.8-1.1,6.9l0.1,0.1c1.9,2,3,4.5,3.3,7.5
							c0.5,4.3-0.9,8.1-3.9,10.9c-2.7,2.5-6.4,4-11.1,4.5C216.3,83.5,215.3,83.5,214.3,83.5z"/>
						<path class="st0" d="M215.4,46.6c2.4,0,4.4,0.5,6.1,1.5c2.1,1.3,3.3,3.2,3.6,5.8c0.2,1.7-0.1,3.2-0.8,4.6
							c-0.7,1.4-1.8,2.4-3.3,3.1c1.9,0.3,3.4,1.1,4.5,2.3c1.1,1.2,1.8,2.8,2,4.7c0.3,2.7-0.5,5-2.4,6.7c-1.9,1.8-4.6,2.8-8.3,3.2
							c-0.8,0.1-1.6,0.1-2.4,0.1c-2.5,0-4.7-0.5-6.4-1.5c-2.2-1.3-3.5-3.3-3.8-6.1c-0.2-1.9,0.1-3.6,1-5s2.2-2.5,3.9-3.2
							c-1.6-0.4-2.9-1.2-3.9-2.4c-1-1.1-1.6-2.6-1.8-4.2c-0.3-2.6,0.5-4.7,2.2-6.4c1.8-1.7,4.3-2.7,7.7-3.1
							C214.1,46.6,214.8,46.6,215.4,46.6 M213.6,60.2c0.4,0,0.8,0,1.2-0.1c1.8-0.2,3.1-0.7,4-1.6c0.8-0.9,1.2-2.1,1-3.6
							c-0.3-2.6-1.9-4-4.8-4c-0.4,0-0.8,0-1.2,0.1c-3.7,0.4-5.3,2.1-5,5.1c0.2,1.5,0.7,2.6,1.8,3.3C211.3,60,212.3,60.2,213.6,60.2
							 M214.8,74c0.5,0,1,0,1.5-0.1c4.2-0.5,6.1-2.2,5.8-5.4c-0.3-2.7-2.1-4.1-5.3-4.1c-0.5,0-1,0-1.5,0.1c-4.2,0.5-6.1,2.2-5.8,5.4
							C209.8,72.7,211.5,74,214.8,74 M215.4,36.6c-1,0-2.1,0.1-3.2,0.2c-5.6,0.6-10.2,2.6-13.6,5.8c-4,3.8-5.9,9.1-5.2,14.7
							c0.2,2.2,0.9,4.3,1.9,6.3c-1,2.6-1.3,5.5-1,8.5c0.6,5.8,3.7,10.7,8.6,13.6c3.3,1.9,7.1,2.9,11.5,2.9c1.1,0,2.3-0.1,3.5-0.2
							c5.8-0.6,10.5-2.6,14-5.9c4.2-3.9,6.1-9.3,5.5-15.1c-0.3-3-1.3-5.7-2.8-8.1c0.5-2.1,0.7-4.3,0.5-6.5
							c-0.6-5.6-3.5-10.3-8.3-13.2C223.5,37.6,219.7,36.6,215.4,36.6L215.4,36.6z"/>
					</g>
				</g>
			</g>
			<g class="st1">
				<g>
					<path class="st0" d="M191.6,71.1c-1.4,0-2.8-0.5-3.9-1.4c-0.5-0.4-0.9-0.8-1.2-1.3c-1.1-0.3-2.2-0.7-3.1-1.3
						c-0.9-0.5-1.7-1.3-2.2-2.2c-0.4-0.7-0.7-1.6-0.8-2.5c-0.2-1.4,0.2-2.8,0.9-4l0,0c-0.7-1-1.3-2.3-1.5-4.1
						c-0.3-2.5,0.4-4.8,2-6.7c0.6-0.7,1.2-1.3,2-1.8c0.2-0.7,0.6-1.4,1-2c1-1.3,2.5-2.1,4.2-2.3c0.2,0,0.5,0,0.7,0
						c1.4,0,2.8,0.5,3.9,1.4c0.5,0.4,1,1,1.3,1.6c0.8,0.3,1.7,0.7,2.4,1.2c1.6,1,2.7,2.7,2.9,4.6c0.1,1.3-0.1,2.5-0.7,3.6
						c0.8,1,1.6,2.4,1.8,4.5c0.3,2.4-0.4,4.7-1.9,6.6c-0.6,0.7-1.2,1.3-1.9,1.8c-0.2,0.7-0.6,1.4-1,2c-1,1.3-2.5,2.1-4.1,2.3
						C192,71.1,191.8,71.1,191.6,71.1z"/>
					<path class="st0" d="M189.7,46.5c0.3,0,0.5,0.1,0.7,0.2c0.2,0.2,0.3,0.4,0.4,0.7l0.1,1.3c1.4,0,2.7,0.4,3.8,1.1
						c0.4,0.2,0.6,0.5,0.6,0.9c0,0.3,0,0.6-0.2,0.8c-0.1,0.2-0.3,0.4-0.6,0.4h-0.1c-0.1,0-0.2,0-0.2,0c-0.1,0-0.3-0.1-0.5-0.2
						c-0.6-0.3-1.2-0.6-1.7-0.7c-0.3-0.1-0.7-0.1-1.2-0.1c-0.2,0-0.4,0-0.7,0c-0.9,0.1-1.5,0.4-2,0.8c-0.5,0.4-0.7,1-0.6,1.6
						c0,0.5,0.2,0.8,0.6,1.1c0.3,0.3,0.7,0.4,1.2,0.5s1.1,0.2,1.9,0.3c1,0.1,1.9,0.3,2.6,0.5c0.7,0.2,1.2,0.5,1.8,1
						c0.5,0.5,0.8,1.2,0.9,2.1c0.1,1.1-0.2,2.1-0.8,2.9c-0.7,0.8-1.7,1.4-2.9,1.8l0.1,1.3c0,0.3,0,0.6-0.2,0.8
						c-0.2,0.2-0.4,0.4-0.7,0.4c-0.1,0-0.1,0-0.1,0c-0.3,0-0.5-0.1-0.6-0.2c-0.2-0.2-0.3-0.4-0.4-0.7l-0.1-1.3c-0.1,0-0.1,0-0.2,0
						c-0.7,0-1.4-0.1-2.2-0.3s-1.5-0.5-2-0.8c-0.2-0.1-0.3-0.2-0.4-0.4c-0.1-0.1-0.1-0.3-0.2-0.5c0-0.3,0-0.6,0.2-0.8
						c0.1-0.2,0.3-0.4,0.6-0.4h0.1c0.1,0,0.2,0,0.3,0s0.3,0.1,0.5,0.2c0.7,0.3,1.3,0.6,2,0.7c0.4,0.1,0.8,0.1,1.2,0.1
						c0.2,0,0.5,0,0.7,0c0.9-0.1,1.6-0.4,2.1-0.8c0.5-0.4,0.7-1,0.6-1.6c0-0.4-0.2-0.7-0.5-0.9s-0.7-0.4-1.1-0.5
						c-0.4-0.1-1-0.2-1.8-0.3c-1.1-0.2-1.9-0.3-2.6-0.5c-0.7-0.2-1.3-0.6-1.8-1.1s-0.8-1.2-0.9-2.2c-0.1-1.1,0.2-2.1,0.9-3
						s1.7-1.5,3-1.8l-0.1-1.3c0-0.3,0-0.6,0.2-0.8s0.4-0.3,0.7-0.4C189.6,46.5,189.7,46.5,189.7,46.5 M189.7,36.5
						c-0.4,0-0.8,0-1.2,0.1c-3,0.3-5.7,1.8-7.6,4.2c-0.5,0.6-0.9,1.3-1.2,2c-0.6,0.5-1.2,1.1-1.7,1.7c-2.4,2.9-3.5,6.6-3.1,10.4
						c0.2,1.4,0.5,2.7,0.9,3.8c-0.4,1.4-0.5,2.8-0.4,4.3c0.2,1.7,0.7,3.2,1.5,4.6c0.9,1.6,2.3,2.9,3.9,3.9c0.8,0.5,1.8,1,2.7,1.3
						c0.3,0.3,0.6,0.6,0.9,0.9c1.9,1.6,4.5,2.5,7,2.5c0.4,0,0.8,0,1.2-0.1c3-0.3,5.7-1.8,7.5-4.2c0.5-0.6,0.9-1.3,1.3-2
						c0.6-0.5,1.1-1.1,1.6-1.7c2.4-2.9,3.4-6.6,3-10.3c-0.2-1.8-0.7-3.3-1.2-4.5c0.3-1.2,0.3-2.4,0.2-3.6c-0.4-3.4-2.3-6.5-5.2-8.3
						c-0.6-0.4-1.2-0.7-1.9-1c-0.4-0.5-0.9-0.9-1.4-1.3C194.8,37.4,192.3,36.5,189.7,36.5L189.7,36.5z"/>
				</g>
			</g>
		</g>
		<path class="st2" d="M152,71.4c10.7-5.3,18.8-5.1,18.8-5.1"/>
	</g>
	<g>
		<g>
			<g>
				<path class="st0" d="M245.8,285.7c-2.4,0-4.7-1.1-6.2-3c-0.1-0.1-0.2-0.2-0.3-0.3c-14.7-22-31.3-24.3-37.8-24.3
					c-1.1,0-1.7,0.1-1.7,0.1s-0.1,0-0.2,0c-0.3,0-0.5,0-0.8,0c-3.9,0-7.3-3-7.7-6.8c-0.2-1.9,0.3-3.9,1.5-5.5c1.3-1.7,3.1-2.8,5.2-3
					c0.5-0.1,1.7-0.2,3.5-0.2c9,0,32,3,50.8,31.1c2.3,3.5,1.5,8-1.9,10.5c-0.1,0.1-0.2,0.1-0.2,0.2
					C248.8,285.3,247.3,285.7,245.8,285.7z"/>
				<path class="st0" d="M201.3,247.7c7.7,0,29.1,2.6,46.7,28.9c0.9,1.3,0.4,2.9-0.7,3.7c-0.4,0.3-1,0.4-1.4,0.4
					c-0.9,0-1.7-0.4-2.3-1.1c-16.2-24.2-35.3-26.5-42-26.5c-1.4,0-2.2,0.1-2.4,0.1c-0.1,0-0.2,0-0.3,0c-1.3,0-2.6-1-2.7-2.3
					c-0.1-1.4,0.9-2.9,2.3-3C198.6,247.9,199.7,247.7,201.3,247.7 M201.3,237.7L201.3,237.7c-2,0-3.3,0.1-4,0.2
					c-6.8,0.8-11.8,7-11.1,13.9c0.6,6.4,6.1,11.3,12.7,11.3c0.4,0,0.8,0,1.3-0.1c0.1,0,0.2,0,0.3,0s0.5,0,1.1,0
					c17.5,0,30.2,16.9,33.7,22.1c0.2,0.2,0.3,0.5,0.5,0.7c2.5,3.1,6.2,4.9,10.1,4.9c2.5,0,4.9-0.7,7-2.1c0.2-0.1,0.3-0.2,0.5-0.3
					c5.4-4.1,6.8-11.7,3-17.3C236.2,241,211.1,237.7,201.3,237.7L201.3,237.7z"/>
			</g>
		</g>
		<g>
			<g>
				<path class="st0" d="M192.4,284.6c-0.3,0-0.6,0-0.9,0c-0.1,0-0.1,0-0.2,0l-57-6.1c-3.2-0.2-6.1-1.6-8.3-3.9
					c-2.2-2.5-3.3-5.6-3.1-9l3.1-44.8c0.3-6.4,5.5-11.5,12-11.5c0.3,0,0.6,0,0.9,0c0.1,0,0.1,0,0.2,0l57.1,6.1
					c3.4,0.3,6.6,2,8.7,4.8l18,23.7c3.6,4.8,3.1,11.5-1,15.7L201,280.9C198.8,283.3,195.8,284.6,192.4,284.6L192.4,284.6z
					 M204.6,250.2c-0.1,0-0.3,0.2-0.3,0.3s0.1,0.2,0.1,0.3c0,0,0.1,0.1,0.2,0.1l0,0c0.2,0,0.3-0.1,0.3-0.3
					C204.8,250.3,204.7,250.2,204.6,250.2L204.6,250.2z"/>
				<path class="st0" d="M138.2,214.3c0.2,0,0.3,0,0.5,0l57.1,6.1c2,0.1,3.9,1.1,5.1,2.9l18,23.7c2.1,2.9,1.7,6.9-0.6,9.1l-21,21.3
					c-1.3,1.4-3.1,2.2-5,2.2c-0.2,0-0.4,0-0.5,0l-57.1-6.1c-4-0.1-7-3.6-6.7-7.6l3.1-44.8C131.3,217.2,134.4,214.3,138.2,214.3
					 M204.5,255.7c2.7,0,5-2.1,5.3-5c0.1-2.9-2.1-5.4-5-5.6c-0.1,0-0.2,0-0.3,0c-2.8,0-5.2,2.2-5.3,5c-0.1,2.9,2,5.4,5,5.6
					C204.4,255.7,204.5,255.7,204.5,255.7 M138.2,204.3c-9.2,0-16.6,7.1-17,16.2l-3.1,44.7c-0.3,4.6,1.2,9.2,4.3,12.7
					c3,3.3,7.1,5.3,11.6,5.6l56.8,6.1c0.1,0,0.3,0,0.4,0c0.4,0,0.8,0,1.2,0c4.8,0,9.1-1.9,12.3-5.3l20.9-21.2
					c5.9-5.9,6.5-15.4,1.5-22.2l0,0l-18-23.7c-2.9-3.9-7.4-6.4-12.2-6.8l-57-6.1c-0.1,0-0.2,0-0.4,0
					C139,204.3,138.6,204.3,138.2,204.3L138.2,204.3z"/>
			</g>
		</g>
		<g>
			<g>
				<g class="st1">
					<g>
						<path class="st0" d="M166.3,267.4c-0.3,0-0.6,0-0.9,0l-13.2-1.2c-4.3-0.4-7.1-3.6-6.7-7.7c0.3-3.8,3.2-6.3,7.1-6.4l0.5-5.3
							c-2-0.2-3.7-1.3-4.8-3c-1-1.5-1.4-3.1-1.2-4.8c0.2-2.5,1.7-4.6,3.9-5.7l6.4-3.2c1.5-0.7,2.9-1,4.2-1c0.3,0,0.5,0,0.8,0
							c2.1,0.2,3.8,1.1,5.1,2.6c0.9,1.1,1.9,2.9,1.6,5.6l-1.5,16.3c3.8,0.7,6.2,3.7,5.8,7.5C173,264.8,170.2,267.4,166.3,267.4z"/>
						<path class="st0" d="M161.6,234c0.1,0,0.2,0,0.3,0c0.7,0.1,1.3,0.3,1.7,0.8s0.6,1.1,0.5,1.9l-1.9,21.2l4.1,0.4
							c1.6,0.1,2.3,0.9,2.2,2.2c-0.1,1.3-0.8,1.9-2.1,1.9c-0.1,0-0.3,0-0.4,0l-13.2-1.2c-1.6-0.1-2.3-0.9-2.2-2.3
							c0.1-1.2,0.8-1.8,2.1-1.8c0.1,0,0.3,0,0.4,0l4.1,0.4l1.6-17.8l-4,2c-0.3,0.2-0.6,0.2-0.9,0.2h-0.1c-0.5,0-1-0.3-1.3-0.8
							s-0.5-1-0.4-1.6c0.1-0.8,0.5-1.3,1.2-1.7l6.4-3.2C160.3,234.2,160.9,234,161.6,234 M161.6,224L161.6,224
							c-2.1,0-4.3,0.5-6.3,1.5c0,0-0.1,0-0.1,0.1l-6.4,3.2c-3.8,1.9-6.3,5.5-6.7,9.7c-0.3,2.9,0.5,5.6,2.1,8.1
							c0.6,0.9,1.3,1.7,2,2.3c-3.1,1.9-5.3,5.2-5.6,9.1c-0.6,6.9,4.2,12.5,11.3,13.2l13.2,1.2c0.4,0,0.9,0.1,1.3,0.1
							c6.4,0,11.5-4.6,12.1-11c0.4-4.7-1.8-8.9-5.5-11.2l1.1-12.6c0.3-3.4-0.7-6.7-2.8-9.2s-5.1-4.1-8.5-4.4
							C162.4,224,162,224,161.6,224L161.6,224z"/>
					</g>
					<g>
						<path class="st0" d="M182.6,269.2c-0.6,0-1.3,0-2-0.1c-2.2-0.2-4.4-0.7-6.4-1.6c-2.1-0.9-3.9-2.1-5.4-3.6
							c-1.6-1.6-2.3-3.7-2.1-5.9c0.2-1.7,0.8-3.2,2-4.4s2.7-1.9,4.3-2c-0.2-0.8-0.3-1.7-0.2-2.5s0.3-1.5,0.6-2.2
							c-1.3-0.5-2.5-1.3-3.3-2.6c-0.9-1.4-1.3-3-1.2-4.7c0.1-1.2,0.5-2.3,1.1-3.2c0.5-0.7,1.1-1.4,1.9-2c0.1,0,0.1-0.1,0.2-0.1
							c1.7-1.2,3.6-2,5.8-2.5c1.6-0.4,3.1-0.6,4.7-0.6c0.6,0,1.1,0,1.7,0.1c3.9,0.4,7,1.7,9.4,4c2.5,2.5,3.7,5.8,3.4,9.5
							c-0.2,2.2-0.9,4.2-2.1,5.8c1.3,2.1,1.8,4.6,1.6,7.4c-0.4,3.9-2.2,7.1-5.3,9.1C188.7,268.4,185.9,269.2,182.6,269.2z"/>
						<path class="st0" d="M182.5,235.8c0.4,0,0.8,0,1.3,0.1c2.7,0.2,4.8,1.1,6.3,2.6s2.1,3.3,1.9,5.5c-0.2,1.5-0.7,2.8-1.6,3.9
							c-0.9,1.1-2,1.8-3.5,2.2c1.6,0.6,2.8,1.5,3.6,2.7s1.1,2.7,0.9,4.4c-0.2,2.4-1.3,4.2-3.1,5.4c-1.5,1-3.5,1.5-5.7,1.5
							c-0.5,0-1,0-1.5-0.1c-1.7-0.2-3.3-0.6-4.8-1.2c-1.5-0.7-2.8-1.5-3.8-2.6c-0.6-0.6-0.8-1.2-0.7-1.9c0.1-0.6,0.3-1,0.6-1.4
							c0.3-0.3,0.7-0.5,1.1-0.5h0.1c0.3,0,0.5,0.1,0.7,0.2s0.5,0.3,0.8,0.5c1,0.8,2,1.5,3,2s2,0.8,3.2,0.9c0.3,0,0.7,0,1,0
							c1.2,0,2.2-0.2,2.9-0.7c0.9-0.6,1.4-1.6,1.5-3s-0.2-2.4-1-3.2c-0.8-0.7-2.1-1.2-4-1.4l-2.2-0.2c-0.6-0.1-1-0.3-1.3-0.7
							s-0.4-0.9-0.4-1.4s0.3-1,0.6-1.4c0.3-0.3,0.7-0.5,1.2-0.5c0.1,0,0.2,0,0.2,0l1.6,0.1c0.4,0,0.8,0.1,1.1,0.1
							c2.9,0,4.4-1.2,4.6-3.6c0.1-1.3-0.2-2.3-0.9-3s-1.7-1.2-3-1.3c-0.2,0-0.4,0-0.7,0c-1.7,0-3.6,0.6-5.6,1.7
							c-0.4,0.2-0.7,0.3-0.9,0.4c-0.2,0.1-0.3,0.1-0.5,0.1c-0.1,0-0.1,0-0.2,0c-0.4,0-0.8-0.3-1.1-0.7s-0.4-0.9-0.4-1.5
							c0-0.4,0.1-0.7,0.3-1s0.4-0.5,0.8-0.8c1.2-0.8,2.6-1.4,4.1-1.8C180.2,235.9,181.4,235.8,182.5,235.8 M182.5,225.8L182.5,225.8
							c-2,0-4,0.2-5.9,0.7c-2.7,0.7-5.2,1.8-7.4,3.3c-0.1,0.1-0.3,0.2-0.4,0.3c-1.3,1-2.3,2.1-3.1,3.3c-1,1.6-1.7,3.5-1.9,5.5
							c-0.3,2.9,0.4,5.6,2,8c0.4,0.5,0.8,1.1,1.2,1.5c-0.7,0.5-1.3,1-1.9,1.6c-2,2-3.1,4.6-3.4,7.5c-0.3,3.6,0.9,7.1,3.5,9.8l0,0
							c1.9,2,4.3,3.6,7,4.7c2.5,1.1,5.2,1.8,7.9,2c0.8,0.1,1.6,0.1,2.4,0.1c4.3,0,8.1-1.1,11.3-3.2c4.4-2.9,7.1-7.5,7.6-12.9
							c0.2-2.7-0.1-5.3-0.9-7.6c0.8-1.7,1.2-3.5,1.4-5.4c0-0.1,0-0.1,0-0.2c0.5-5.2-1.3-10-4.8-13.5c-3.2-3.2-7.4-5-12.4-5.5
							C184,225.8,183.2,225.8,182.5,225.8L182.5,225.8z"/>
					</g>
				</g>
			</g>
			<g class="st1">
				<g>
					<path class="st0" d="M142,251.6c-0.2,0-0.4,0-0.6,0c-1.7-0.2-3.2-1-4.2-2.2c-0.4-0.4-0.6-0.9-0.9-1.5c-1-0.5-1.9-1.1-2.7-1.8
						s-1.4-1.6-1.7-2.5c-0.3-0.8-0.4-1.7-0.3-2.6c0.1-1.4,0.7-2.7,1.6-3.7c-0.4-1.1-0.8-2.4-0.6-4.2c0.2-2.4,1.3-4.6,3.2-6.1
						c0.7-0.6,1.4-1,2.2-1.4c0.3-0.6,0.8-1.2,1.4-1.7c1.1-0.9,2.5-1.5,3.9-1.5c0.2,0,0.4,0,0.6,0c1.6,0.1,3.1,0.9,4.2,2.2
						c0.4,0.5,0.8,1.1,1,1.8c0.7,0.5,1.4,1,2.1,1.6c1.4,1.3,2.1,3.2,1.9,5.1c-0.1,1.2-0.6,2.4-1.4,3.4c0.6,1.1,1,2.6,0.8,4.6
						c-0.2,2.4-1.3,4.5-3.2,6c-0.7,0.6-1.4,1-2.2,1.4c-0.3,0.6-0.8,1.2-1.4,1.7C144.8,251.1,143.4,251.6,142,251.6z"/>
					<path class="st0" d="M143.5,227.4h0.1c0.3,0,0.6,0.1,0.7,0.4c0.2,0.2,0.2,0.5,0.2,0.8l-0.1,1.3c1.4,0.3,2.5,0.9,3.4,1.8
						c0.3,0.3,0.4,0.6,0.4,1c0,0.3-0.1,0.5-0.3,0.7s-0.4,0.3-0.6,0.3c0,0,0,0-0.1,0s-0.2,0-0.4-0.1c-0.1-0.1-0.3-0.1-0.4-0.3
						c-0.5-0.4-1-0.8-1.5-1s-1.1-0.4-1.7-0.5c-0.2,0-0.3,0-0.5,0c-0.6,0-1.2,0.1-1.6,0.4c-0.5,0.3-0.8,0.8-0.9,1.5
						c0,0.4,0.1,0.8,0.3,1.1c0.3,0.3,0.6,0.6,1,0.7c0.4,0.2,1,0.4,1.7,0.7c1,0.3,1.8,0.7,2.4,1c0.6,0.3,1.1,0.8,1.5,1.3
						c0.4,0.6,0.6,1.3,0.5,2.2c-0.1,1.1-0.6,2-1.4,2.6c-0.8,0.7-1.9,1.1-3.2,1.1l-0.1,1.3c0,0.3-0.1,0.6-0.4,0.7
						c-0.2,0.2-0.4,0.2-0.7,0.2h-0.1c-0.3,0-0.6-0.1-0.7-0.4c-0.2-0.2-0.2-0.5-0.2-0.8l0.1-1.2c-0.8-0.1-1.5-0.4-2.2-0.7
						s-1.3-0.7-1.8-1.2c-0.2-0.1-0.3-0.3-0.3-0.4c-0.1-0.2-0.1-0.3-0.1-0.6s0.1-0.5,0.3-0.7s0.4-0.3,0.6-0.3c0,0,0,0,0.1,0
						s0.3,0,0.4,0.1c0.1,0.1,0.3,0.1,0.4,0.3c0.6,0.5,1.2,0.8,1.8,1.1c0.6,0.2,1.2,0.4,1.9,0.5c0.2,0,0.4,0,0.5,0
						c0.7,0,1.2-0.1,1.6-0.4c0.5-0.3,0.8-0.8,0.9-1.5c0-0.4-0.1-0.7-0.3-1s-0.6-0.5-1-0.7s-0.9-0.4-1.7-0.7c-1-0.3-1.8-0.7-2.4-1
						c-0.6-0.3-1.1-0.8-1.5-1.4c-0.4-0.6-0.6-1.3-0.5-2.3c0.1-1.1,0.6-2,1.4-2.7c0.9-0.7,1.9-1.1,3.2-1.2l0.1-1.3
						c0-0.3,0.1-0.6,0.4-0.7C143,227.5,143.2,227.4,143.5,227.4 M143.5,217.4c-2.6,0-5.2,0.9-7.2,2.7c-0.6,0.5-1.1,1.1-1.6,1.7
						c-0.7,0.4-1.3,0.8-1.9,1.3c-2.9,2.4-4.7,5.8-5.1,9.5c-0.1,1.4-0.1,2.6,0.1,3.8c-0.6,1.3-1,2.6-1.2,4.1c-0.2,1.7,0,3.3,0.6,4.8
						c0.6,1.7,1.7,3.3,3.1,4.5c0.7,0.7,1.5,1.3,2.3,1.8c0.2,0.3,0.5,0.7,0.7,1c1.9,2.3,4.6,3.8,7.6,4.1c0.3,0,0.7,0,1,0
						c2.6,0,5.2-0.9,7.2-2.6c0.6-0.5,1.1-1.1,1.6-1.7c0.7-0.4,1.3-0.8,1.9-1.3c2.9-2.4,4.6-5.7,5-9.4c0.1-1.6,0-3.1-0.3-4.6
						c0.5-1.1,0.7-2.2,0.9-3.4c0.3-3.4-0.9-6.8-3.5-9.1c-0.5-0.5-1-0.9-1.6-1.4c-0.3-0.5-0.6-1-1-1.5c-1.9-2.3-4.6-3.8-7.6-4.1
						C144.2,217.4,143.8,217.4,143.5,217.4L143.5,217.4z"/>
				</g>
			</g>
		</g>
		<path class="st2" d="M203.3,250.4c0,0,8-0.1,18.4,5"/>
	</g>
	<g>
		<g>
			<path class="st0" d="M114,126.6c-13.3,0-19.2-10.4-19.4-10.8c-0.1-0.2-0.2-0.4-0.3-0.6C94.2,115,87,95.6,109.8,85
				c5.6-2.6,12.2-3.9,19.8-3.9c10.8,0,20.3,2.7,22.1,3.3c1.4,0.4,2.6,1.5,3.2,2.8s0.7,2.9,0.1,4.3c-1.7,3.9-10.8,24-27.4,31.7
				C122.9,125.4,118.3,126.6,114,126.6z"/>
			<path class="st0" d="M129.6,86.1c10.1,0,19,2.6,20.7,3.1c0.2,0,0.2,0.2,0.2,0.4c-1.1,2.6-9.7,22.1-24.9,29.2
				c-4.5,2.1-8.3,2.9-11.6,2.9c-10.5,0-15-8.2-15-8.2s-5.8-15.1,13-23.9C117.5,86.9,123.8,86.1,129.6,86.1 M129.6,76.1L129.6,76.1
				c-8.3,0-15.7,1.5-21.9,4.4C94.1,86.8,89.8,96.2,88.5,103c-1.3,7.3,0.6,13,1.1,14.1c0.2,0.4,0.4,0.8,0.6,1.2
				c2.7,5,10.8,13.4,23.8,13.4c5.1,0,10.4-1.3,15.8-3.8c18.2-8.5,28.1-30.1,29.9-34.3c1.1-2.7,1.1-5.7-0.2-8.3
				c-1.2-2.6-3.5-4.6-6.3-5.5C150.5,78.7,140.9,76.1,129.6,76.1L129.6,76.1z"/>
		</g>
		<g>
			<path class="st0" d="M114,126.6c-10.6,0-17.2-6.8-19.4-10.8c-0.7-1.2-0.8-2.6-0.4-4c0.4-1.3,1.4-2.4,2.6-3l51.4-24.2
				c0.7-0.3,1.4-0.5,2.1-0.5c0.5,0,1,0.1,1.5,0.2c1.4,0.4,2.6,1.5,3.2,2.8c0.6,1.4,0.7,2.9,0.1,4.3c-1.7,3.9-10.8,24-27.4,31.8
				C122.9,125.4,118.3,126.6,114,126.6L114,126.6z"/>
			<path class="st0" d="M150.3,89.1c0.2,0,0.2,0.2,0.2,0.4c-1.1,2.6-9.7,22.1-24.9,29.2c-4.5,2.1-8.3,2.9-11.6,2.9
				c-10.5,0-15-8.2-15-8.2L150.3,89.1 M150.3,79.1c-1.5,0-2.9,0.3-4.3,1l-51.4,24.2c-2.5,1.2-4.4,3.4-5.3,6
				c-0.8,2.6-0.6,5.5,0.8,7.9c0.8,1.4,7.9,13.3,23.8,13.3c5.1,0,10.4-1.3,15.8-3.8c18.2-8.5,28.1-30.1,29.9-34.3
				c1.1-2.7,1.1-5.7-0.2-8.4c-1.2-2.6-3.5-4.6-6.3-5.5C152.3,79.3,151.3,79.1,150.3,79.1L150.3,79.1z"/>
		</g>
		<g>
			<path class="st0" d="M87.3,154.4c-4.6,0-8.3-3.7-8.3-8.3V74.4c0-4.6,3.7-8.3,8.3-8.3s8.3,3.7,8.3,8.3V106
				c50.1-21.9,53.1-21.9,54.6-21.9c2.1,0,3.9,1.1,4.7,3c2,4.3-2.2,6.9-3.8,7.9c-1.4,0.9-3.3,2-5.9,3.4c-4.3,2.4-10.5,5.6-18.2,9.6
				c-11.8,6-24.5,12.4-31.4,15.8v22.3C95.6,150.7,91.9,154.4,87.3,154.4z"/>
			<path class="st0" d="M87.3,71.2c1.8,0,3.3,1.5,3.3,3.3v39.3c12.5-5.5,56.1-24.5,59.6-24.5c0.1,0,0.2,0,0.2,0.1
				c0.7,1.5-49.2,26.2-59.8,31.5v25.4c0,1.8-1.5,3.3-3.3,3.3s-3.3-1.5-3.3-3.3v-25.4v-7V74.4C84.1,72.6,85.5,71.2,87.3,71.2
				 M87.3,61.2C80,61.2,74,67.1,74,74.5v39.3v7v25.4c0,7.3,5.9,13.3,13.3,13.3s13.3-5.9,13.3-13.3V127c7.2-3.6,18.3-9.1,28.7-14.5
				c7.8-4,14-7.3,18.4-9.7c2.7-1.5,4.7-2.6,6.1-3.5c1-0.6,1.8-1.2,2.4-1.7c4.6-3.7,5-9,3.3-12.6s-5.2-5.8-9.3-5.8
				c-2.5,0-5.3,0-49.6,19.2v-24C100.6,67.1,94.6,61.2,87.3,61.2L87.3,61.2z"/>
		</g>
		<g>
			<g>
				<path class="st0" d="M87.3,59.6c-10.9,0-14.4-22.9-14.4-29.3c0-10.1,5.2-15.9,14.4-15.9s14.4,5.8,14.4,15.9
					C101.7,36.7,98.3,59.6,87.3,59.6z"/>
				<path class="st0" d="M87.3,19.4c5.2,0,9.4,2.4,9.4,10.9c0,8.4-4.2,24.3-9.4,24.3c-5.2,0-9.4-15.9-9.4-24.3
					C77.9,21.8,82.1,19.4,87.3,19.4 M87.3,9.4c-6.9,0-11.2,2.8-13.6,5.1c-3.8,3.7-5.7,9-5.7,15.7c0,5.5,1.3,12.6,3.3,18.5
					c3.5,10.5,9,15.8,16.1,15.8s12.6-5.3,16.1-15.8c2-6,3.3-13.1,3.3-18.5c0-6.7-1.9-12-5.7-15.7C98.6,12.2,94.3,9.4,87.3,9.4
					L87.3,9.4z"/>
			</g>
			<g>
				<path class="st0" d="M87.3,109.3c-9.1,0-14.4-5.8-14.4-15.9c0-6.5,3.4-29.3,14.4-29.3s14.4,22.9,14.4,29.3
					C101.7,103.5,96.5,109.3,87.3,109.3z"/>
				<path class="st0" d="M87.3,69.1c5.2,0,9.4,15.9,9.4,24.3s-4.2,10.9-9.4,10.9c-5.2,0-9.4-2.4-9.4-10.9
					C77.9,85,82.1,69.1,87.3,69.1 M87.3,59.1c-7.1,0-12.6,5.3-16.1,15.8c-2,6-3.3,13.1-3.3,18.5c0,6.7,1.9,12,5.7,15.7
					c2.4,2.3,6.7,5.1,13.6,5.1s11.2-2.8,13.6-5.1c3.8-3.7,5.7-9,5.7-15.7c0-5.5-1.3-12.6-3.3-18.5C99.9,64.4,94.5,59.1,87.3,59.1
					L87.3,59.1z"/>
			</g>
		</g>
		<g>
			<g>
				<path class="st0" d="M95.2,62.6c-3.2,0-5.2-1.3-6.2-2.4c-7.7-7.7,6-26.3,10.6-30.9c3.7-3.7,7.6-5.6,11.5-5.6
					c3.6,0,6.9,1.5,9.9,4.5c6.5,6.5,6.1,14.3-1.1,21.4C114.5,54.9,102.7,62.6,95.2,62.6z"/>
				<path class="st0" d="M111,28.7c2.4,0,4.5,1.2,6.4,3.1c3.7,3.7,4.9,8.3-1.1,14.3c-5,5-15.5,11.5-21.1,11.5
					c-1.1,0-2.1-0.3-2.7-0.9C88.8,53,97.1,38.8,103,32.9C106,29.9,108.6,28.7,111,28.7 M111,18.7L111,18.7c-5.3,0-10.3,2.4-15,7.1
					c-3.9,3.9-8,9.8-10.8,15.4c-4.9,9.9-4.8,17.5,0.2,22.6c1.7,1.7,4.9,3.8,9.8,3.8c4.4,0,9.7-1.7,15.7-5.2
					c4.8-2.7,9.3-6.1,12.5-9.2c4.7-4.7,7.1-9.9,7.1-15.2c0-3.3-1.1-8.4-6-13.3C119.5,19.8,114.4,18.7,111,18.7L111,18.7z"/>
			</g>
			<g>
				<path class="st0" d="M63.6,99.9c-3.6,0-6.9-1.5-9.9-4.5c-6.5-6.5-6.1-14.3,1.1-21.4c5.3-5.3,17.1-12.9,24.6-12.9
					c3.2,0,5.2,1.3,6.2,2.4c3.4,3.4,3.1,9-0.7,16.8c-2.5,5.1-6.4,10.7-9.8,14.1C71.4,98.1,67.6,99.9,63.6,99.9L63.6,99.9z"/>
				<path class="st0" d="M79.5,66.1c1.1,0,2.1,0.3,2.7,0.9c3.7,3.7-4.6,17.8-10.6,23.8c-3,3-5.6,4.1-8,4.1s-4.5-1.2-6.4-3.1
					c-3.7-3.7-4.9-8.3,1.1-14.3C63.3,72.6,73.9,66.1,79.5,66.1 M79.5,56.1c-4.4,0-9.7,1.7-15.7,5.2c-4.8,2.7-9.3,6.1-12.5,9.2
					c-4.7,4.7-7.1,9.9-7.1,15.2c0,3.3,1.1,8.4,6,13.3c5,5,10,6,13.4,6c5.3,0,10.3-2.4,15-7.1c3.9-3.9,8-9.8,10.8-15.4
					c4.9-9.9,4.8-17.5-0.2-22.6C87.5,58.2,84.4,56.1,79.5,56.1L79.5,56.1z"/>
			</g>
		</g>
		<g>
			<g>
				<path class="st0" d="M118.9,76.2c-6.5,0-29.3-3.4-29.3-14.4s22.9-14.4,29.3-14.4c7.2,0,15.9,2.3,15.9,13.3
					C134.8,70.3,128.7,76.2,118.9,76.2z"/>
				<path class="st0" d="M118.9,52.5c8.4,0,10.9,3.1,10.9,8.3s-2.4,10.5-10.9,10.5c-8.4,0-24.3-4.2-24.3-9.4
					C94.6,56.7,110.5,52.5,118.9,52.5 M118.9,42.5c-5.5,0-12.6,1.3-18.5,3.3c-10.5,3.5-15.8,9-15.8,16.1s5.3,12.6,15.8,16.1
					c6,2,13.1,3.3,18.5,3.3c12.5,0,20.9-8.2,20.9-20.5c0-7.2-3.2-11.4-5.8-13.7C130.4,44,125.4,42.5,118.9,42.5L118.9,42.5z"/>
			</g>
			<g>
				<path class="st0" d="M55.7,76.2c-10.1,0-15.9-5.2-15.9-14.4s5.8-14.4,15.9-14.4c6.5,0,29.3,3.4,29.3,14.4S62.2,76.2,55.7,76.2z"
					/>
				<path class="st0" d="M55.7,52.5c8.4,0,24.3,4.2,24.3,9.4s-15.9,9.4-24.3,9.4s-10.9-4.2-10.9-9.4C44.9,56.7,47.3,52.5,55.7,52.5
					 M55.7,42.5c-6.7,0-12,1.9-15.7,5.7c-2.3,2.4-5.1,6.7-5.1,13.6S37.7,73,40,75.4c3.7,3.8,9,5.7,15.7,5.7c5.5,0,12.6-1.3,18.5-3.3
					c10.5-3.5,15.8-9,15.8-16.1s-5.3-12.6-15.8-16.1C68.3,43.7,61.2,42.5,55.7,42.5L55.7,42.5z"/>
			</g>
		</g>
		<g>
			<g>
				<path class="st0" d="M111,99.9c-3.9,0-7.8-1.9-11.5-5.6c-3.4-3.4-7.3-9-9.8-14.1c-3.9-7.8-4.1-13.4-0.7-16.8
					c1.1-1.1,3-2.4,6.2-2.4c7.5,0,19.4,7.6,24.6,12.9c7.1,7.1,7.5,14.9,1.1,21.4C117.9,98.4,114.5,99.9,111,99.9z"/>
				<path class="st0" d="M95.2,66.1c5.6,0,16.2,6.5,21.1,11.5c6,6,4.7,10.7,1.1,14.3c-1.8,1.8-4,3.1-6.4,3.1s-5-1.2-8-4.1
					c-6-6-14.2-20.2-10.6-23.8C93.1,66.3,94,66.1,95.2,66.1 M95.2,56.1L95.2,56.1c-4.9,0-8,2.1-9.8,3.8c-5.1,5.1-5.1,12.6-0.2,22.6
					C88,88.1,92.1,94,96,97.9c4.7,4.7,9.8,7.1,15,7.1c3.4,0,8.5-1,13.4-6c4.9-4.9,6-9.9,6-13.3c0-5.3-2.3-10.4-7.1-15.2
					c-3.2-3.2-7.7-6.5-12.5-9.2C104.8,57.8,99.5,56.1,95.2,56.1L95.2,56.1z"/>
			</g>
			<g>
				<path class="st0" d="M79.5,62.6c-7.5,0-19.4-7.6-24.6-12.9c-7.1-7.1-7.5-14.9-1.1-21.4c3-3,6.3-4.5,9.9-4.5
					c3.9,0,7.8,1.9,11.5,5.6c4.6,4.6,18.3,23.2,10.6,30.9C84.6,61.3,82.7,62.6,79.5,62.6L79.5,62.6z"/>
				<path class="st0" d="M63.6,28.7c2.4,0,5,1.2,8,4.1c6,6,14.2,20.2,10.6,23.8c-0.6,0.6-1.6,0.9-2.7,0.9c-5.6,0-16.2-6.5-21.1-11.5
					c-6-6-4.7-10.7-1.1-14.3C59.1,30,61.2,28.7,63.6,28.7 M63.6,18.7c-3.4,0-8.5,1-13.4,6c-4.9,4.9-6,9.9-6,13.3
					c0,5.3,2.3,10.4,7.1,15.2c3.2,3.2,7.7,6.5,12.5,9.2c6.1,3.4,11.3,5.2,15.7,5.2c4.9,0,8-2.1,9.8-3.8c5.1-5.1,5.1-12.6,0.2-22.6
					c-2.8-5.7-6.9-11.6-10.8-15.4C74,21.1,68.9,18.7,63.6,18.7L63.6,18.7z"/>
			</g>
		</g>
		<g>
			<g>
				<path class="st0" d="M87.3,78c-8.9,0-16.2-7.3-16.2-16.2s7.3-16.2,16.2-16.2s16.2,7.3,16.2,16.2C103.5,70.8,96.2,78,87.3,78z"/>
				<path class="st0" d="M87.3,50.7c6.2,0,11.2,5,11.2,11.2S93.5,73,87.3,73s-11.2-5-11.2-11.2S81.1,50.7,87.3,50.7 M87.3,40.7
					c-11.7,0-21.2,9.5-21.2,21.2S75.6,83,87.3,83s21.2-9.5,21.2-21.2S99,40.7,87.3,40.7L87.3,40.7z"/>
			</g>
			<g>
				<path class="st0" d="M62.7,216.7c-4.4,0-8.2-3.1-9.1-7.4l-13-64.6c-0.3-1.5,0.1-3,1-4.2s2.4-1.8,3.9-1.8h83.6
					c1.5,0,2.9,0.7,3.9,1.8s1.3,2.7,1,4.2l-13,64.6c-0.9,4.3-4.7,7.4-9.1,7.4L62.7,216.7L62.7,216.7z"/>
				<path class="st0" d="M129.1,143.7l-13,64.6c-0.4,2-2.1,3.4-4.2,3.4H62.7c-2,0-3.8-1.4-4.2-3.4l-13-64.6L129.1,143.7
					 M129.1,133.7H45.5c-3,0-5.8,1.3-7.7,3.7c-1.9,2.3-2.7,5.4-2.1,8.3l13,64.6c1.3,6.6,7.2,11.4,14,11.4h49.2
					c6.8,0,12.6-4.8,14-11.4l13-64.6c0.6-2.9-0.2-6-2.1-8.3C135,135,132.1,133.7,129.1,133.7L129.1,133.7z M129.1,153.7L129.1,153.7
					L129.1,153.7L129.1,153.7z"/>
			</g>
		</g>
		<g>
			<path class="st0" d="M39.2,160.2c-4,0-7.2-3.2-7.2-7.2v-11.5c0-4,3.2-7.2,7.2-7.2h96.3c4,0,7.2,3.2,7.2,7.2V153
				c0,4-3.2,7.2-7.2,7.2H39.2z"/>
			<path class="st0" d="M135.5,139.2c1.2,0,2.2,1,2.2,2.2V153c0,1.2-1,2.2-2.2,2.2H39.2c-1.2,0-2.2-1-2.2-2.2v-11.5
				c0-1.2,1-2.2,2.2-2.2h96.3 M135.5,129.2H39.2c-6.7,0-12.2,5.5-12.2,12.2V153c0,6.7,5.5,12.2,12.2,12.2h96.3
				c6.7,0,12.2-5.5,12.2-12.2v-11.5C147.7,134.7,142.2,129.2,135.5,129.2L135.5,129.2z"/>
		</g>
		<g>
			<path class="st0" d="M53.5,188.2c-2.4,0-4.4-1.7-4.9-4l-1.3-6.5c-0.3-1.5,0.1-3,1-4.2s2.4-1.8,3.9-1.8h70.3
				c1.5,0,2.9,0.7,3.9,1.8s1.3,2.7,1,4.2l-1.3,6.5c-0.5,2.3-2.5,4-4.9,4H53.5z"/>
			<path class="st0" d="M122.5,176.7L122.5,176.7 M122.5,176.7l-1.3,6.5H53.5l-1.3-6.5H122.5 M122.5,166.7L122.5,166.7H52.2
				c-3,0-5.8,1.3-7.7,3.7c-1.9,2.3-2.7,5.4-2.1,8.3l1.3,6.5c0.9,4.7,5,8,9.8,8h67.7c4.8,0,8.9-3.4,9.8-8l1.3-6.2
				c0.2-0.7,0.3-1.5,0.3-2.3C132.5,171.2,128,166.7,122.5,166.7L122.5,166.7z M122.5,186.7L122.5,186.7L122.5,186.7L122.5,186.7z"/>
		</g>
	</g>
	<g>
		<path class="st0" d="M295.5,335.7c-1.3,0-2.6-0.5-3.5-1.5l-59.3-59.3c-0.9-0.9-1.5-2.2-1.5-3.5s0.5-2.6,1.5-3.5l63-63
			c3.9-3.9,9.2-6.1,14.7-6.1s10.8,2.2,14.7,6.1l37,37c8.1,8.1,8.1,21.3,0,29.4l-63,63C298.1,335.2,296.8,335.7,295.5,335.7z"/>
		<path class="st0" d="M310.3,203.8c4,0,8.1,1.5,11.2,4.6l37,37c6.2,6.2,6.2,16.2,0,22.4l-63,63l-59.3-59.3l63-63
			C302.2,205.3,306.3,203.8,310.3,203.8 M310.3,193.8c-6.9,0-13.4,2.7-18.2,7.6l-63,63c-1.9,1.9-2.9,4.4-2.9,7.1s1.1,5.2,2.9,7.1
			l59.3,59.3c1.9,1.9,4.4,2.9,7.1,2.9s5.2-1.1,7.1-2.9l63-63c10.1-10.1,10.1-26.4,0-36.5l-37-37
			C323.7,196.5,317.2,193.8,310.3,193.8L310.3,193.8z"/>
	</g>
	<g>
		<g>
			<path class="st0" d="M301.9,262.2c-1.3,0-2.6-0.5-3.5-1.5l-18-18c-2-2-2-5.1,0-7.1l23-23c1.9-1.9,4.3-2.9,7-2.9
				c2.6,0,5.1,1,7,2.9l14.6,14.6c0.9,0.9,1.5,2.2,1.5,3.5s-0.5,2.6-1.5,3.5l-26.4,26.4C304.5,261.7,303.2,262.2,301.9,262.2z"/>
			<path class="st0" d="M310.3,214.8c1.2,0,2.5,0.5,3.4,1.4l14.6,14.6l-26.4,26.4l-18-18l23-23C307.8,215.2,309.1,214.8,310.3,214.8
				 M310.3,204.8c-4,0-7.7,1.5-10.5,4.3l-23,23c-1.9,1.9-2.9,4.4-2.9,7.1c0,2.7,1.1,5.2,2.9,7.1l18,18c2,2,4.5,2.9,7.1,2.9
				s5.1-1,7.1-2.9l26.4-26.4c1.9-1.9,2.9-4.4,2.9-7.1c0-2.7-1.1-5.2-2.9-7.1l-14.6-14.6C318,206.3,314.3,204.8,310.3,204.8
				L310.3,204.8z"/>
		</g>
		<g>
			<path class="st0" d="M327.7,287.9c-1.3,0-2.6-0.5-3.5-1.5l-18-18c-2-2-2-5.1,0-7.1l26.4-26.4c0.9-0.9,2.2-1.5,3.5-1.5l0,0
				c1.3,0,2.6,0.5,3.5,1.5l14.6,14.6c1.9,1.9,2.9,4.3,2.9,7c0,2.6-1,5.1-2.9,7l-23,23C330.3,287.4,329,287.9,327.7,287.9z"/>
			<path class="st0" d="M336.1,238.5l14.6,14.6c1.9,1.9,1.9,4.9,0,6.8l-23,23l-18-18L336.1,238.5 M336.1,228.5c-2.6,0-5.1,1-7.1,2.9
				l-26.4,26.4c-3.9,3.9-3.9,10.2,0,14.1l18,18c1.9,1.9,4.4,2.9,7.1,2.9s5.2-1.1,7.1-2.9l23-23c2.8-2.8,4.3-6.5,4.3-10.5
				s-1.5-7.7-4.3-10.5l-14.6-14.6C341.2,229.5,338.6,228.5,336.1,228.5L336.1,228.5z"/>
		</g>
		<g>
			<path class="st0" d="M269.7,294.4c-1.3,0-2.6-0.5-3.5-1.5l-18-18c-2-2-2-5.1,0-7.1l24.5-24.5c1-1,2.3-1.5,3.5-1.5
				s2.6,0.5,3.5,1.5l18,18c0.9,0.9,1.5,2.2,1.5,3.5s-0.5,2.6-1.5,3.5l-24.5,24.5C272.3,293.9,271,294.4,269.7,294.4L269.7,294.4z"/>
			<path class="st0" d="M276.2,246.9l18,18l-24.5,24.5l-18-18L276.2,246.9 M276.2,236.9c-2.7,0-5.2,1.1-7.1,2.9l-24.5,24.5
				c-3.9,3.9-3.9,10.2,0,14.1l18,18c2,2,4.5,2.9,7.1,2.9s5.1-1,7.1-2.9l24.5-24.5c3.9-3.9,3.9-10.2,0-14.1l-18-18
				C281.4,238,278.8,236.9,276.2,236.9L276.2,236.9z"/>
		</g>
		<g>
			<path class="st0" d="M295.5,320.2c-1.3,0-2.6-0.5-3.5-1.5l-18-18c-2-2-2-5.1,0-7.1l24.5-24.5c1-1,2.3-1.5,3.5-1.5
				s2.6,0.5,3.5,1.5l18,18c0.9,0.9,1.5,2.2,1.5,3.5s-0.5,2.6-1.5,3.5L299,318.7C298.1,319.6,296.8,320.2,295.5,320.2z"/>
			<path class="st0" d="M301.9,272.7l18,18l-24.5,24.5l-18-18L301.9,272.7 M301.9,262.7c-2.7,0-5.2,1.1-7.1,2.9l-24.5,24.5
				c-3.9,3.9-3.9,10.2,0,14.1l18,18c1.9,1.9,4.4,2.9,7.1,2.9s5.2-1.1,7.1-2.9l24.5-24.5c3.9-3.9,3.9-10.2,0-14.1l-18-18
				C307.1,263.7,304.6,262.7,301.9,262.7L301.9,262.7z"/>
		</g>
	</g>
	<g>
		<path class="st0" d="M239,385.6c-5.6,0-10.8-2.2-14.7-6.1l-37-37c-3.9-3.9-6.1-9.2-6.1-14.7s2.2-10.8,6.1-14.7l39.5-39.5
			c0.9-0.9,2.2-1.5,3.5-1.5s2.6,0.5,3.5,1.5l59.3,59.3c2,2,2,5.1,0,7.1l-39.5,39.5C249.8,383.5,244.5,385.6,239,385.6z"/>
		<path class="st0" d="M230.3,277.2l59.3,59.3L250.2,376c-3.1,3.1-7.1,4.6-11.2,4.6c-4,0-8.1-1.5-11.2-4.6l-37-37
			c-6.2-6.2-6.2-16.2,0-22.4L230.3,277.2 M230.3,267.2c-2.7,0-5.2,1.1-7.1,2.9l-39.5,39.5c-4.9,4.9-7.6,11.4-7.6,18.2
			c0,6.9,2.7,13.4,7.6,18.2l37,37c4.9,4.9,11.4,7.6,18.2,7.6s13.4-2.7,18.2-7.6l39.5-39.5c1.9-1.9,2.9-4.4,2.9-7.1s-1.1-5.2-2.9-7.1
			L237.3,270C235.5,268.3,233,267.2,230.3,267.2L230.3,267.2z"/>
	</g>
	<g>
		<path class="st0" d="M283.7,349.4c-5.7,0-10.7-3.7-12.3-9.1c-0.3-0.9-1-1.6-1.9-1.9l-8.5-2.5c-4.1-1.2-7.4-4.5-8.6-8.6l-2.5-8.5
			c-0.3-0.9-1-1.6-1.9-1.9l-8.5-2.5c-4.1-1.2-7.4-4.5-8.6-8.6l-2.5-8.5c-0.3-0.9-1-1.6-1.9-1.9c-4.4-1.3-7.6-4.7-8.7-9.1
			c-1.1-4.4,0.1-9,3.4-12.2l13.8-13.8c2.4-2.4,5.6-3.7,9-3.7s6.6,1.3,9,3.7l53.4,53.4c5,5,5,13.1,0,18.1l-13.8,13.8
			C290.3,348.1,287.1,349.4,283.7,349.4L283.7,349.4z"/>
		<path class="st0" d="M244,261.6c2,0,4,0.8,5.5,2.3l53.4,53.4c3,3,3,8,0,11l-13.8,13.8c-1.6,1.6-3.5,2.3-5.5,2.3
			c-3.3,0-6.4-2-7.5-5.6c-0.7-2.5-2.7-4.5-5.2-5.2l-8.5-2.5c-2.5-0.7-4.5-2.7-5.2-5.2l-2.5-8.5c-0.7-2.5-2.7-4.5-5.2-5.2l-8.5-2.5
			c-2.5-0.7-4.5-2.7-5.2-5.2l-2.5-8.5c-0.7-2.5-2.7-4.5-5.2-5.2c-5.7-1.7-7.5-8.8-3.3-13l13.8-13.8C240,262.4,242,261.6,244,261.6
			 M244,251.6c-4.8,0-9.2,1.8-12.6,5.2l-13.8,13.8c-4.5,4.5-6.2,10.8-4.7,16.9c1.5,5.7,5.5,10.3,11,12.3l2.2,7.4
			c1.7,5.8,6.2,10.2,12,12l7.3,2.2l2.2,7.3c1.7,5.8,6.2,10.2,12,12l7.4,2.2c2.6,7,9.1,11.5,16.7,11.5c4.7,0,9.2-1.9,12.5-5.2
			l13.8-13.8c6.9-6.9,6.9-18.2,0-25.2l-53.4-53.4C253.2,253.5,248.8,251.6,244,251.6L244,251.6z"/>
	</g>
</g>
<g>
	<g>
		<g>
			<path d="M125.9,96.8c-1.2-0.9-1.6-2.5-0.7-3.8c21.9-32.7,49.5-29.5,50.6-29.3c1.5,0.1,2.5,1.6,2.3,3.1c-0.1,1.5-1.6,2.5-3.1,2.3
				c-1-0.1-25.4-2.9-45.4,27c-0.6,0.7-1.5,1.2-2.3,1.2C126.9,97.2,126.3,97.1,125.9,96.8z"/>
		</g>
		<g>
			<path class="st3" d="M155.4,72.1l21.4,21.7c1.5,1.6,3.5,2.3,5.7,2.2l58.4-6.3c4.1-0.1,7.1-3.6,6.9-7.7l-3.2-45.8
				c-0.1-4.1-3.6-7.1-7.7-6.9l-58.4,6.3c-2,0.1-3.9,1.2-5.3,2.9l-18.4,24.2C152.6,65.7,153,69.8,155.4,72.1z M164.1,66.6
				c-0.1-2.9,2.2-5.5,5.1-5.7c2.9-0.1,5.5,2.2,5.7,5.1c0.1,2.9-2,5.5-5.1,5.7C166.9,71.8,164.4,69.6,164.1,66.6z"/>
		</g>
		<g>
			<g>
				<g class="st1">
					<path class="st0" d="M225.4,63.8c1.1,1.2,1.8,2.8,2,4.7c0.3,2.7-0.5,5-2.4,6.7c-1.9,1.8-4.6,2.8-8.3,3.2
						c-3.6,0.4-6.6-0.1-8.8-1.4s-3.5-3.3-3.8-6.1c-0.2-1.9,0.1-3.6,1-5s2.2-2.5,3.9-3.2c-1.6-0.4-2.9-1.2-3.9-2.4
						c-1-1.1-1.6-2.6-1.8-4.2c-0.3-2.6,0.5-4.7,2.2-6.4c1.8-1.7,4.3-2.7,7.7-3.1s6.1,0.1,8.2,1.4c2.1,1.3,3.3,3.2,3.6,5.8
						c0.2,1.7-0.1,3.2-0.8,4.6c-0.7,1.4-1.8,2.4-3.3,3.1C222.8,61.8,224.3,62.5,225.4,63.8z M208.8,56.2c0.2,1.5,0.7,2.6,1.8,3.3
						c1,0.7,2.4,0.9,4.2,0.7s3.1-0.7,4-1.6c0.8-0.9,1.2-2.1,1-3.6c-0.3-3-2.3-4.3-6-3.9S208.5,53.2,208.8,56.2z M222,68.6
						c-0.3-3.1-2.6-4.5-6.8-4s-6.1,2.2-5.8,5.4c0.3,3.1,2.6,4.5,6.8,4S222.4,71.7,222,68.6z"/>
				</g>
			</g>
			<g class="st1">
				<path class="st0" d="M195.5,61.9c-0.7,0.8-1.7,1.4-2.9,1.8l0.1,1.3c0,0.3,0,0.6-0.2,0.8c-0.2,0.2-0.4,0.4-0.7,0.4
					s-0.6,0-0.8-0.2s-0.3-0.4-0.4-0.7l-0.1-1.3c-0.8,0-1.6-0.1-2.4-0.2c-0.8-0.2-1.5-0.5-2-0.8c-0.2-0.1-0.3-0.2-0.4-0.4
					c-0.1-0.1-0.1-0.3-0.2-0.5c0-0.3,0-0.6,0.2-0.8c0.1-0.2,0.3-0.4,0.6-0.4c0.1,0,0.3,0,0.4,0c0.1,0,0.3,0.1,0.5,0.2
					c0.7,0.3,1.3,0.6,2,0.7c0.6,0.1,1.3,0.2,2,0.1c0.9-0.1,1.6-0.4,2.1-0.8c0.5-0.4,0.7-1,0.6-1.6c0-0.4-0.2-0.7-0.5-0.9
					s-0.7-0.4-1.1-0.5c-0.4-0.1-1-0.2-1.8-0.3c-1.1-0.2-1.9-0.3-2.6-0.5c-0.7-0.2-1.3-0.6-1.8-1.1s-0.8-1.2-0.9-2.2
					c-0.1-1.1,0.2-2.1,0.9-3s1.7-1.5,3-1.8l-0.1-1.3c0-0.3,0-0.6,0.2-0.8s0.4-0.3,0.7-0.4c0.3,0,0.6,0,0.8,0.2s0.3,0.4,0.4,0.7
					l0.1,1.3c1.4,0,2.7,0.4,3.8,1.1c0.4,0.2,0.6,0.5,0.6,0.9c0,0.3,0,0.6-0.2,0.8c-0.1,0.2-0.3,0.4-0.6,0.4c-0.1,0-0.2,0-0.4,0
					c-0.1,0-0.3-0.1-0.5-0.2c-0.6-0.3-1.2-0.6-1.7-0.7c-0.5-0.1-1.1-0.2-1.8-0.1c-0.9,0.1-1.5,0.4-2,0.8c-0.5,0.4-0.7,1-0.6,1.6
					c0,0.5,0.2,0.8,0.6,1.1c0.3,0.3,0.7,0.4,1.2,0.5s1.1,0.2,1.9,0.3c1,0.1,1.9,0.3,2.6,0.5c0.7,0.2,1.2,0.5,1.8,1
					c0.5,0.5,0.8,1.2,0.9,2.1C196.4,60,196.2,61,195.5,61.9z"/>
			</g>
		</g>
		<path class="st4" d="M152,71.4c10.7-5.3,18.8-5.1,18.8-5.1"/>
	</g>
	<g>
		<g>
			<path d="M245.8,280.7c-0.9,0-1.7-0.4-2.3-1.1c-19.6-29.3-43.4-26.6-44.4-26.4c-1.4,0.1-2.9-0.9-3-2.3c-0.1-1.4,0.9-2.9,2.3-3
				c1.1-0.1,28.1-3.3,49.6,28.7c0.9,1.3,0.4,2.9-0.7,3.7C246.8,280.6,246.3,280.7,245.8,280.7z"/>
		</g>
		<g>
			<path class="st5" d="M219,247l-18-23.7c-1.3-1.7-3.1-2.7-5.1-2.9l-57.1-6.1c-4-0.3-7.4,2.7-7.6,6.7l-3.1,44.8
				c-0.3,4,2.7,7.4,6.7,7.6l57.1,6.1c2.1,0.1,4.1-0.6,5.6-2.1l21-21.3C220.7,253.9,221.1,249.9,219,247z M204.3,255.7
				c-3-0.1-5.1-2.7-5-5.6s2.7-5.1,5.6-5s5.1,2.7,5,5.6C209.6,253.7,207.1,255.9,204.3,255.7z"/>
		</g>
		<g>
			<g>
				<g class="st1">
					<path class="st0" d="M168.4,260.5c-0.1,1.4-1,2-2.5,1.9l-13.2-1.2c-1.6-0.1-2.3-0.9-2.2-2.3c0.1-1.3,1-1.9,2.6-1.8l4.1,0.4
						l1.6-17.8l-4,2c-0.4,0.2-0.7,0.3-1,0.2c-0.5,0-1-0.3-1.3-0.8s-0.5-1-0.4-1.6c0.1-0.8,0.5-1.3,1.2-1.7l6.4-3.2
						c0.8-0.4,1.6-0.6,2.3-0.5s1.3,0.3,1.7,0.8s0.6,1.1,0.5,1.9l-1.9,21.2l4.1,0.4C167.8,258.5,168.5,259.2,168.4,260.5z"/>
					<path class="st0" d="M190.6,252.7c0.8,1.2,1.1,2.7,0.9,4.4c-0.2,2.4-1.3,4.2-3.1,5.4c-1.9,1.2-4.3,1.7-7.3,1.5
						c-1.7-0.2-3.3-0.6-4.8-1.2c-1.5-0.7-2.8-1.5-3.8-2.6c-0.6-0.6-0.8-1.2-0.7-1.9c0.1-0.6,0.3-1,0.6-1.4c0.4-0.4,0.8-0.5,1.2-0.5
						c0.3,0,0.5,0.1,0.7,0.2s0.5,0.3,0.8,0.5c1,0.8,2,1.5,3,2s2,0.8,3.2,0.9c1.7,0.2,3-0.1,3.9-0.7s1.4-1.6,1.5-3s-0.2-2.4-1-3.2
						c-0.8-0.7-2.1-1.2-4-1.4l-2.2-0.2c-0.6-0.1-1-0.3-1.3-0.7s-0.4-0.9-0.4-1.4s0.3-1,0.6-1.4c0.4-0.4,0.8-0.5,1.4-0.5l1.6,0.1
						c3.6,0.3,5.5-0.9,5.7-3.5c0.1-1.3-0.2-2.3-0.9-3s-1.7-1.2-3-1.3c-1.9-0.2-4,0.4-6.3,1.7c-0.4,0.2-0.7,0.3-0.9,0.4
						c-0.2,0.1-0.5,0.1-0.7,0.1c-0.4,0-0.8-0.3-1.1-0.7s-0.4-0.9-0.4-1.5c0-0.4,0.1-0.7,0.3-1s0.4-0.5,0.8-0.8
						c1.2-0.8,2.6-1.4,4.1-1.8c1.6-0.4,3.2-0.5,4.7-0.4c2.7,0.2,4.8,1.1,6.3,2.6s2.1,3.3,1.9,5.5c-0.2,1.5-0.7,2.8-1.6,3.9
						c-0.9,1.1-2,1.8-3.5,2.2C188.6,250.6,189.8,251.5,190.6,252.7z"/>
				</g>
			</g>
			<g class="st1">
				<path class="st0" d="M146.3,243.3c-0.8,0.7-1.9,1.1-3.2,1.1l-0.1,1.3c0,0.3-0.1,0.6-0.4,0.7c-0.2,0.2-0.5,0.3-0.8,0.2
					c-0.3,0-0.6-0.1-0.7-0.4c-0.2-0.2-0.2-0.5-0.2-0.8l0.1-1.2c-0.8-0.1-1.5-0.4-2.2-0.7s-1.3-0.7-1.8-1.2c-0.2-0.1-0.3-0.3-0.3-0.4
					c-0.1-0.2-0.1-0.3-0.1-0.6s0.1-0.5,0.3-0.7s0.4-0.3,0.6-0.3c0.1,0,0.3,0,0.4,0.1c0.1,0.1,0.3,0.1,0.4,0.3
					c0.6,0.5,1.2,0.8,1.8,1.1c0.6,0.2,1.2,0.4,1.9,0.5c0.9,0.1,1.6,0,2.2-0.3c0.5-0.3,0.8-0.8,0.9-1.5c0-0.4-0.1-0.7-0.3-1
					s-0.6-0.5-1-0.7s-0.9-0.4-1.7-0.7c-1-0.3-1.8-0.7-2.4-1c-0.6-0.3-1.1-0.8-1.5-1.4c-0.4-0.6-0.6-1.3-0.5-2.3
					c0.1-1.1,0.6-2,1.4-2.7c0.9-0.7,1.9-1.1,3.2-1.2l0.1-1.3c0-0.3,0.1-0.6,0.4-0.7c0.2-0.2,0.5-0.3,0.8-0.2c0.3,0,0.6,0.1,0.7,0.4
					c0.2,0.2,0.2,0.5,0.2,0.8l-0.1,1.3c1.4,0.3,2.5,0.9,3.4,1.8c0.3,0.3,0.4,0.6,0.4,1c0,0.3-0.1,0.5-0.3,0.7s-0.4,0.3-0.6,0.3
					c-0.1,0-0.2,0-0.4-0.1c-0.1-0.1-0.3-0.1-0.4-0.3c-0.5-0.4-1-0.8-1.5-1s-1.1-0.4-1.7-0.5c-0.8-0.1-1.5,0-2.1,0.4
					c-0.5,0.3-0.8,0.8-0.9,1.5c0,0.4,0.1,0.8,0.3,1.1c0.3,0.3,0.6,0.6,1,0.7c0.4,0.2,1,0.4,1.7,0.7c1,0.3,1.8,0.7,2.4,1
					c0.6,0.3,1.1,0.8,1.5,1.3c0.4,0.6,0.6,1.3,0.5,2.2C147.6,241.7,147.1,242.6,146.3,243.3z"/>
			</g>
		</g>
		<path class="st6" d="M203.3,250.4c0,0,8-0.1,18.4,5"/>
	</g>
	<g>
		<path class="st7" d="M150.3,89.1c0.2,0,0.2,0.2,0.2,0.4c-1.1,2.6-9.7,22.1-24.9,29.2c-18.8,8.8-26.6-5.3-26.6-5.3
			s-5.8-15.1,13-23.9C127.1,82.4,147.6,88.3,150.3,89.1z"/>
		<path class="st7" d="M125.6,118.7c15.2-7.1,23.8-26.6,24.9-29.2c0.1-0.2,0-0.3-0.2-0.4l-51.4,24.2
			C98.9,113.4,106.7,127.5,125.6,118.7z"/>
		<path class="st8" d="M90.6,113.7V74.4c0-1.8-1.5-3.3-3.3-3.3S84,72.6,84,74.4v39.3v7v25.4c0,1.8,1.5,3.3,3.3,3.3s3.3-1.5,3.3-3.3
			v-25.4c10.6-5.2,60.5-30,59.8-31.5C149.7,87.9,103.5,108,90.6,113.7z"/>
		<g>
			<path class="st9" d="M96.7,30.2c0,8.4-4.2,24.3-9.4,24.3s-9.4-15.9-9.4-24.3s4.2-10.9,9.4-10.9C92.5,19.4,96.7,21.8,96.7,30.2z"
				/>
			<path class="st9" d="M96.7,93.4c0-8.4-4.2-24.3-9.4-24.3S77.9,85,77.9,93.4s4.2,10.9,9.4,10.9S96.7,101.9,96.7,93.4z"/>
		</g>
		<g>
			<path class="st10" d="M116.3,46.1c-6,6-20.2,14.2-23.8,10.6C88.8,53,97.1,38.8,103,32.9c6-6,10.7-4.7,14.3-1.1
				C121,35.5,122.3,40.2,116.3,46.1z"/>
			<path class="st10" d="M71.6,90.8c6-6,14.2-20.2,10.6-23.8c-3.7-3.7-17.8,4.6-23.8,10.6s-4.7,10.7-1.1,14.3
				C61,95.5,65.6,96.8,71.6,90.8z"/>
		</g>
		<g>
			<path class="st9" d="M118.9,71.2c-8.4,0-24.3-4.2-24.3-9.4s15.9-9.4,24.3-9.4s10.9,3.1,10.9,8.3S127.4,71.2,118.9,71.2z"/>
			<path class="st9" d="M55.7,71.2c8.4,0,24.3-4.2,24.3-9.4s-15.9-9.4-24.3-9.4s-10.9,4.2-10.9,9.4S47.3,71.2,55.7,71.2z"/>
		</g>
		<g>
			<path class="st10" d="M103,90.8c-6-6-14.2-20.2-10.6-23.8c3.7-3.7,17.8,4.6,23.8,10.6s4.7,10.7,1.1,14.3
				C113.7,95.5,109,96.8,103,90.8z"/>
			<path class="st10" d="M58.4,46.1c6,6,20.2,14.2,23.8,10.6c3.7-3.7-4.6-17.8-10.6-23.8S61,28.1,57.3,31.8S52.4,40.2,58.4,46.1z"/>
		</g>
		<g>
			<circle class="st11" cx="87.3" cy="61.8" r="11.2"/>
			<path class="st11" d="M111.9,211.7H62.7c-2,0-3.8-1.4-4.2-3.4l-13-64.6h83.6l-13,64.6C115.7,210.3,114,211.7,111.9,211.7z"/>
		</g>
		<path class="st12" d="M135.5,155.2H39.2c-1.2,0-2.2-1-2.2-2.2v-11.5c0-1.2,1-2.2,2.2-2.2h96.3c1.2,0,2.2,1,2.2,2.2V153
			C137.7,154.2,136.7,155.2,135.5,155.2z"/>
		<polygon class="st12" points="121.2,183.2 122.5,176.7 52.2,176.7 53.5,183.2 		"/>
	</g>
	<path class="st13" d="M358.4,245.4l-37-37c-6.2-6.2-16.2-6.2-22.4,0l-63,63l59.3,59.3l63-63C364.6,261.6,364.6,251.5,358.4,245.4z"
		/>
	<g>
		<path class="st14" d="M301.9,257.2l26.4-26.4l-14.6-14.6c-1.9-1.9-4.9-1.9-6.8,0l-23,23L301.9,257.2z"/>
		<path class="st14" d="M309.7,264.9l18,18l23-23c1.9-1.9,1.9-4.9,0-6.8l-14.6-14.6L309.7,264.9z"/>
		
			<rect x="255.6" y="255.4" transform="matrix(0.7071 -0.7071 0.7071 0.7071 -109.6912 271.5222)" class="st14" width="34.6" height="25.5"/>
		
			<rect x="281.4" y="281.2" transform="matrix(0.7071 -0.7071 0.7071 0.7071 -120.3583 297.319)" class="st14" width="34.6" height="25.5"/>
	</g>
	<path class="st15" d="M230.3,277.2l-39.5,39.5c-6.2,6.2-6.2,16.2,0,22.4l37,37c6.2,6.2,16.2,6.2,22.4,0l39.5-39.5L230.3,277.2z"/>
	<path class="st16" d="M303,317.3l-53.4-53.4c-3-3-8-3-11,0l-13.8,13.8c-4.2,4.2-2.4,11.3,3.3,13c2.5,0.8,4.5,2.7,5.2,5.2l2.5,8.5
		c0.8,2.5,2.7,4.5,5.2,5.2l8.5,2.5c2.5,0.8,4.5,2.7,5.2,5.2l2.5,8.5c0.8,2.5,2.7,4.5,5.2,5.2l8.5,2.5c2.5,0.8,4.5,2.7,5.2,5.2
		c1.7,5.7,8.8,7.5,13,3.3l13.8-13.8C306,325.3,306,320.4,303,317.3z"/>
</g>
</svg>
