<?xml version="1.0" encoding="utf-8"?>
<!-- Generator: Adobe Illustrator 22.1.0, SVG Export Plug-In . SVG Version: 6.00 Build 0)  -->
<svg version="1.1" id="Layer_1" xmlns="http://www.w3.org/2000/svg" xmlns:xlink="http://www.w3.org/1999/xlink" x="0px" y="0px"
	 viewBox="0 0 184.7 40" style="enable-background:new 0 0 184.7 40;" xml:space="preserve">
<style type="text/css">
	.st0{fill:#637BA1;}
	.st1{fill:#FFFFFF;}
	.st2{fill:#66AD66;}
	.st3{fill:#4D984E;}
	.st4{fill:#FC5E71;}
	.st5{fill:#FD747F;}
	.st6{fill:#FEC37D;}
	.st7{fill:#F2A559;}
	.st8{fill:#993E29;}
	.st9{fill:#A8503C;}
	.st10{fill:#00779E;}
	.st11{fill:#55C2E3;}
</style>
<g id="Layer_2_1_">
	<g>
		<path class="st0" d="M184.7,0H0v40h184.7V0L184.7,0z"/>
	</g>
</g>
<g>
	<g>
		<g>
			<path class="st1" d="M23.2,21c-1.8,0-2.9-1.2-3.3-1.9c0,0,0-0.1-0.1-0.1c-0.4-1.2-0.5-3.7,2.6-5.2c0.9-0.4,2-0.7,3.3-0.7
				c1.7,0,3.1,0.4,3.7,0.5l0,0c0.4,0.1,0.8,0.6,0.8,1c0,0.1,0,0.3-0.1,0.4c-0.3,0.7-1.8,4-4.6,5.3C24.7,20.8,23.9,21,23.2,21z"/>
			<path class="st1" d="M25.7,14.2c1.6,0,3.1,0.4,3.4,0.5c0,0,0,0,0,0.1c-0.2,0.4-1.6,3.6-4.1,4.8c-0.7,0.3-1.4,0.5-1.9,0.5
				c-1.7,0-2.4-1.3-2.4-1.3s-0.9-2.5,2.1-3.9C23.7,14.4,24.8,14.2,25.7,14.2 M25.7,12.2L25.7,12.2c-1.4,0-2.7,0.3-3.7,0.8
				c-3.5,1.6-3.8,4.7-3.1,6.4c0,0.1,0.1,0.2,0.1,0.3c0.1,0.2,1.4,2.4,4.2,2.4c0.9,0,1.8-0.2,2.7-0.7c3-1.4,4.6-4.8,5.1-5.8
				c0.1-0.2,0.2-0.5,0.2-0.8c0-1-0.7-1.8-1.6-2C28.9,12.6,27.4,12.2,25.7,12.2L25.7,12.2z"/>
		</g>
		<g>
			<path class="st1" d="M23.2,21c-2.1,0-3.5-1.7-3.5-2.4c0-0.4,0.2-0.7,0.6-0.9l8.4-3.9c0.1-0.1,0.3-0.1,0.4-0.1
				c0.2,0,0.3,0,0.4,0.1c0.2,0.1,0.5,0.4,0.5,0.6s0.1,0.6-0.1,0.8c-0.3,0.6-1.8,3.9-4.5,5.2C24.7,20.8,23.9,21,23.2,21L23.2,21z"/>
			<path class="st1" d="M29.1,14.7C29.1,14.7,29.1,14.8,29.1,14.7c-0.1,0.5-1.5,3.7-4,4.8c-0.7,0.3-1.4,0.5-1.9,0.5
				c-1.7,0-2.5-1.3-2.5-1.4L29.1,14.7 M29.1,12.7c-0.3,0-0.6,0.1-0.9,0.2l-8.4,3.9c-0.7,0.3-1.1,1-1.1,1.8c0,1.3,1.9,3.4,4.5,3.4
				c0.9,0,1.8-0.2,2.7-0.7c3-1.4,4.6-4.7,5-5.8c0.4-1,0-2.2-1-2.7C29.7,12.8,29.4,12.7,29.1,12.7L29.1,12.7z"/>
		</g>
		<g>
			<path class="st1" d="M18.8,25.5c-0.8,0-1.5-0.7-1.5-1.5V12.3c0-0.8,0.7-1.5,1.5-1.5s1.5,0.7,1.5,1.5v4.9c5.3-2.3,8.2-3.5,8.7-3.5
				c0.4,0,0.7,0.2,0.9,0.5c0.5,1.1,0.6,1.2-9.6,6.2V24C20.3,24.9,19.7,25.5,18.8,25.5z"/>
			<path class="st1" d="M18.8,11.8c0.3,0,0.5,0.2,0.5,0.5v6.4c2-0.9,9.2-4,9.7-4l0,0c0.1,0.2-8,4.3-9.7,5.1V24
				c0,0.3-0.2,0.5-0.5,0.5s-0.5-0.2-0.5-0.5v-4.1v-1.1v-6.4C18.3,12,18.5,11.8,18.8,11.8 M18.8,9.8c-1.4,0-2.5,1.1-2.5,2.5v6.4v1.1
				V24c0,1.4,1.1,2.5,2.5,2.5s2.5-1.1,2.5-2.5v-2.9c1.1-0.6,2.9-1.4,4.5-2.3c1.3-0.7,2.3-1.2,3-1.6c1.2-0.7,2.9-1.6,2.1-3.4
				c0,0,0-0.1-0.1-0.1c-0.3-0.6-1.1-1.1-1.8-1.1c-0.4,0-0.9,0-7.7,2.9v-3.3C21.3,10.9,20.2,9.8,18.8,9.8L18.8,9.8z"/>
		</g>
		<g>
			<g>
				<path class="st1" d="M18.8,10.1c-2.1,0-2.5-4.2-2.5-5c0-1.7,0.9-2.8,2.5-2.8s2.5,1.1,2.5,2.8C21.3,5.9,20.9,10.1,18.8,10.1z"/>
				<path class="st1" d="M18.8,3.3c0.8,0,1.5,0.4,1.5,1.8s-0.7,4-1.5,4s-1.5-2.6-1.5-4S18,3.3,18.8,3.3 M18.8,1.3
					c-2.1,0-3.5,1.5-3.5,3.8c0,1.3,0.6,6,3.5,6s3.5-4.7,3.5-6C22.3,2.9,21,1.4,18.8,1.3L18.8,1.3L18.8,1.3z"/>
			</g>
			<g>
				<path class="st1" d="M18.8,18.2c-1.6,0-2.5-1-2.5-2.8c0-0.8,0.5-5,2.5-5c2.1,0,2.5,4.2,2.5,5C21.3,17.2,20.4,18.2,18.8,18.2z"/>
				<path class="st1" d="M18.8,11.5c0.8,0,1.5,2.6,1.5,4s-0.7,1.8-1.5,1.8s-1.5-0.4-1.5-1.8S18,11.5,18.8,11.5 M18.8,9.5
					c-2.9,0-3.5,4.7-3.5,6c0,2.3,1.4,3.8,3.5,3.8s3.5-1.5,3.5-3.8C22.3,14.2,21.7,9.5,18.8,9.5L18.8,9.5z"/>
			</g>
		</g>
		<g>
			<g>
				<path class="st1" d="M20.1,10.6c-0.6,0-0.9-0.2-1.1-0.4c-1.5-1.5,1.2-4.7,1.7-5.3c0.6-0.6,1.3-1,2-1c0.6,0,1.2,0.3,1.7,0.8
					s0.8,1.1,0.8,1.8s-0.3,1.4-1,2C23.4,9.3,21.4,10.6,20.1,10.6z"/>
				<path class="st1" d="M22.7,4.9c0.4,0,0.7,0.2,1,0.5c0.6,0.6,0.8,1.4-0.2,2.3c-0.8,0.8-2.5,1.9-3.4,1.9c-0.2,0-0.3,0-0.4-0.1
					c-0.6-0.6,0.7-2.9,1.7-3.9C21.8,5.1,22.3,4.9,22.7,4.9 M22.7,2.9L22.7,2.9c-1,0-1.9,0.4-2.7,1.3c-0.9,0.9-3.8,4.6-1.7,6.7
					c0.3,0.3,0.9,0.7,1.8,0.7c1.8,0,4.1-1.7,4.9-2.5s1.3-1.7,1.3-2.7c0-0.6-0.2-1.6-1.1-2.5C24.2,3.1,23.3,2.9,22.7,2.9L22.7,2.9z"
					/>
			</g>
			<g>
				<path class="st1" d="M15,16.7c-0.6,0-1.2-0.3-1.7-0.8c-1.1-1.1-1.1-2.5,0.2-3.8c0.8-0.8,2.7-2.2,4.1-2.2c0.6,0,1,0.2,1.2,0.4
					c0.6,0.6,0.6,1.6-0.1,2.9c-0.4,0.9-1.1,1.8-1.6,2.3C16.3,16.3,15.6,16.7,15,16.7L15,16.7z"/>
				<path class="st1" d="M17.5,11c0.2,0,0.3,0,0.4,0.1c0.6,0.6-0.7,2.9-1.7,3.9c-0.5,0.5-0.9,0.7-1.3,0.7c-0.4,0-0.7-0.2-1-0.5
					c-0.6-0.6-0.8-1.4,0.2-2.3C14.9,12,16.6,11,17.5,11 M17.5,9c-1.8,0-4,1.7-4.8,2.5c-1.6,1.6-1.7,3.6-0.2,5.2
					c0.9,0.9,1.8,1.1,2.5,1.1c1,0,1.9-0.4,2.7-1.3c0.9-0.9,3.8-4.6,1.7-6.7C18.9,9.2,18.3,9,17.5,9L17.5,9z"/>
			</g>
		</g>
		<g>
			<g>
				<path class="st1" d="M24,12.8c-0.8,0-5-0.5-5-2.5c0-2.1,4.2-2.5,5-2.5c2.4,0,2.8,1.5,2.8,2.4C26.7,11.7,25.6,12.8,24,12.8z"/>
				<path class="st1" d="M24,8.7c1.4,0,1.8,0.5,1.8,1.4c0,0.8-0.4,1.7-1.8,1.7s-4-0.7-4-1.5S22.6,8.7,24,8.7 M24,6.7
					c-1.3,0-6,0.6-6,3.5s4.7,3.5,6,3.5c2.3,0,3.8-1.5,3.8-3.7C27.7,8.5,26.7,6.7,24,6.7L24,6.7z"/>
			</g>
			<g>
				<path class="st1" d="M13.7,12.8c-1.7,0-2.8-0.9-2.8-2.5s1-2.5,2.8-2.5c0.8,0,5,0.5,5,2.5C18.6,12.3,14.4,12.8,13.7,12.8z"/>
				<path class="st1" d="M13.7,8.7c1.4,0,4,0.7,4,1.5s-2.6,1.5-4,1.5s-1.8-0.7-1.8-1.5C11.9,9.4,12.3,8.7,13.7,8.7 M13.7,6.7
					c-2.3,0-3.8,1.4-3.8,3.5s1.5,3.5,3.8,3.5c1.3,0,6-0.6,6-3.5S14.9,6.7,13.7,6.7L13.7,6.7z"/>
			</g>
		</g>
		<g>
			<g>
				<path class="st1" d="M22.7,16.7c-0.7,0-1.4-0.3-2-1c-0.6-0.6-1.2-1.5-1.6-2.3c-0.7-1.3-0.7-2.3-0.1-2.9c0.2-0.2,0.6-0.4,1.2-0.4
					c1.4,0,3.4,1.4,4.1,2.2c0.7,0.6,1,1.3,1,2c0,0.6-0.3,1.2-0.8,1.7C23.9,16.4,23.3,16.7,22.7,16.7z"/>
				<path class="st1" d="M20.1,11c0.9,0,2.6,1.1,3.4,1.9c1,1,0.8,1.7,0.2,2.3c-0.3,0.3-0.6,0.5-1,0.5s-0.8-0.2-1.3-0.7
					c-1-1-2.3-3.3-1.7-3.9C19.7,11,19.9,11,20.1,11 M20.1,9L20.1,9c-0.7,0-1.4,0.3-1.9,0.7c-0.6,0.6-1.2,1.9-0.1,4.1
					c0.5,1,1.2,2,1.8,2.6c0.8,0.8,1.8,1.3,2.7,1.3c0.6,0,1.5-0.2,2.4-1.1c1.5-1.5,1.4-3.5-0.2-5.2C24.1,10.6,21.9,9,20.1,9L20.1,9z"
					/>
			</g>
			<g>
				<path class="st1" d="M17.5,10.6c-1.3,0-3.3-1.3-4.2-2.2c-0.6-0.6-1-1.3-1-2c0-0.6,0.3-1.2,0.8-1.8c0.5-0.5,1.1-0.8,1.7-0.8
					c0.7,0,1.4,0.3,2,1c0.6,0.6,3.2,3.8,1.7,5.3C18.5,10.3,18.1,10.6,17.5,10.6L17.5,10.6z"/>
				<path class="st1" d="M14.9,4.9c0.4,0,0.8,0.2,1.3,0.7c1,1,2.3,3.3,1.7,3.9c-0.1,0.1-0.2,0.1-0.4,0.1c-0.9,0-2.6-1.1-3.4-1.9
					c-1-1-0.8-1.7-0.2-2.3C14.2,5.1,14.6,4.9,14.9,4.9 M14.9,2.9c-0.6,0-1.5,0.2-2.4,1.1s-1.1,1.8-1.1,2.5c0,1,0.4,1.9,1.3,2.7
					c0.8,0.8,3,2.4,4.8,2.4c0.9,0,1.5-0.4,1.8-0.7c2.4-2.4-1.7-6.7-1.7-6.7C16.8,3.3,15.9,2.9,14.9,2.9L14.9,2.9z"/>
			</g>
		</g>
		<g>
			<g>
				<circle class="st1" cx="18.8" cy="10.3" r="2.8"/>
				<path class="st1" d="M18.8,8.4c1,0,1.8,0.8,1.8,1.8S19.8,12,18.8,12S17,11.3,17,10.3S17.8,8.4,18.8,8.4 M18.8,6.4
					c-2.1,0-3.8,1.7-3.8,3.8s1.7,3.8,3.8,3.8s3.8-1.7,3.8-3.8S20.9,6.4,18.8,6.4L18.8,6.4z"/>
			</g>
			<g>
				<path class="st1" d="M14.8,35.7c-0.8,0-1.5-0.6-1.7-1.4L11,23.8c-0.1-0.3,0-0.6,0.2-0.8c0.2-0.2,0.5-0.4,0.8-0.4h13.6
					c0.3,0,0.6,0.1,0.8,0.4c0.2,0.2,0.3,0.5,0.2,0.8l-2.1,10.5c-0.2,0.8-0.8,1.4-1.7,1.4H14.8z"/>
				<path class="st1" d="M25.6,23.6l-2.1,10.5c-0.1,0.3-0.3,0.6-0.7,0.6h-8c-0.3,0-0.6-0.2-0.7-0.6L12,23.6H25.6 M25.6,21.6H12
					c-0.6,0-1.2,0.3-1.5,0.7c-0.4,0.5-0.5,1.1-0.4,1.7l2.1,10.5c0.3,1.3,1.4,2.2,2.6,2.2h8c1.3,0,2.4-0.9,2.6-2.2L27.6,24
					c0.1-0.6,0-1.2-0.4-1.7C26.8,21.9,26.2,21.6,25.6,21.6L25.6,21.6z M25.6,25.6L25.6,25.6L25.6,25.6L25.6,25.6z"/>
			</g>
		</g>
		<g>
			<path class="st1" d="M11,26.5c-0.7,0-1.4-0.6-1.4-1.4v-1.9c0-0.8,0.6-1.4,1.4-1.4h15.7c0.7,0,1.4,0.6,1.4,1.4v1.9
				c0,0.7-0.6,1.4-1.4,1.4H11z"/>
			<path class="st1" d="M26.7,22.9c0.2,0,0.4,0.2,0.4,0.4v1.9c0,0.2-0.2,0.4-0.4,0.4H11c-0.2,0-0.4-0.2-0.4-0.4v-1.9
				c0-0.2,0.2-0.4,0.4-0.4H26.7 M26.7,20.9H11c-1.3,0-2.4,1.1-2.4,2.4v1.9c0,1.3,1.1,2.4,2.4,2.4h15.7c1.3,0,2.4-1.1,2.4-2.4v-1.9
				C29,22,28,20.9,26.7,20.9L26.7,20.9z"/>
		</g>
		<g>
			<path class="st1" d="M13.3,31.1c-0.5,0-0.9-0.3-1-0.8l-0.2-1.1c-0.1-0.3,0-0.6,0.2-0.8s0.5-0.4,0.8-0.4h11.5
				c0.3,0,0.6,0.1,0.8,0.4s0.3,0.5,0.2,0.8l-0.2,1.1c-0.1,0.5-0.5,0.8-1,0.8H13.3z"/>
			<path class="st1" d="M24.5,29L24.5,29 M24.5,29l-0.2,1.1h-11L13.1,29H24.5 M24.5,27L24.5,27H13.1c-0.6,0-1.2,0.3-1.5,0.7
				c-0.4,0.5-0.5,1.1-0.4,1.7l0.2,1.1c0.2,0.9,1,1.6,2,1.6h11c1,0,1.8-0.7,2-1.6l0.2-1c0-0.2,0.1-0.3,0.1-0.5
				C26.5,27.9,25.7,27,24.5,27L24.5,27z M24.5,31L24.5,31L24.5,31L24.5,31z"/>
		</g>
	</g>
	<g>
		<g>
			<path class="st1" d="M46.7,21c-1.8,0-2.9-1.2-3.3-1.9c0,0,0-0.1-0.1-0.1c-0.4-1.2-0.5-3.7,2.6-5.2c0.9-0.4,2-0.7,3.3-0.7
				c1.7,0,3.1,0.4,3.7,0.5l0,0c0.4,0.1,0.8,0.6,0.8,1c0,0.1,0,0.3-0.1,0.4c-0.3,0.7-1.8,4-4.6,5.3C48.2,20.8,47.5,21,46.7,21z"/>
			<path class="st1" d="M49.3,14.2c1.6,0,3.1,0.4,3.4,0.5c0,0,0,0,0,0.1c-0.2,0.4-1.6,3.6-4.1,4.8c-0.7,0.3-1.4,0.5-1.9,0.5
				c-1.7,0-2.4-1.3-2.4-1.3s-0.9-2.5,2.1-3.9C47.3,14.4,48.3,14.2,49.3,14.2 M49.3,12.2L49.3,12.2c-1.4,0-2.7,0.3-3.7,0.8
				c-3.5,1.6-3.8,4.7-3.1,6.4c0,0.1,0.1,0.2,0.1,0.3c0.1,0.2,1.4,2.4,4.2,2.4c0.9,0,1.8-0.2,2.7-0.7c3-1.4,4.6-4.8,5.1-5.8
				c0.1-0.2,0.2-0.5,0.2-0.8c0-1-0.7-1.8-1.6-2C52.5,12.6,51,12.2,49.3,12.2L49.3,12.2z"/>
		</g>
		<g>
			<path class="st1" d="M46.7,21c-2.1,0-3.5-1.7-3.5-2.4c0-0.4,0.2-0.7,0.6-0.9l8.4-3.9c0.1-0.1,0.3-0.1,0.4-0.1
				c0.2,0,0.3,0,0.4,0.1c0.2,0.1,0.5,0.4,0.5,0.6s0.1,0.6-0.1,0.8c-0.3,0.6-1.8,3.9-4.5,5.2C48.2,20.8,47.5,21,46.7,21L46.7,21z"/>
			<path class="st1" d="M52.7,14.7C52.7,14.7,52.7,14.8,52.7,14.7c-0.1,0.5-1.5,3.7-4,4.8C48,19.8,47.3,20,46.8,20
				c-1.7,0-2.5-1.3-2.5-1.4L52.7,14.7 M52.7,12.7c-0.3,0-0.6,0.1-0.9,0.2l-8.4,3.9c-0.7,0.3-1.1,1-1.1,1.8c0,1.3,1.9,3.4,4.5,3.4
				c0.9,0,1.8-0.2,2.7-0.7c3-1.4,4.6-4.7,5-5.8c0.4-1,0-2.2-1-2.7C53.3,12.8,53,12.7,52.7,12.7L52.7,12.7z"/>
		</g>
		<g>
			<path class="st1" d="M42.4,25.5c-0.8,0-1.5-0.7-1.5-1.5V12.3c0-0.8,0.7-1.5,1.5-1.5s1.5,0.7,1.5,1.5v4.9c5.3-2.3,8.2-3.5,8.7-3.5
				c0.4,0,0.7,0.2,0.9,0.5c0.5,1.1,0.6,1.2-9.6,6.2V24C43.9,24.9,43.2,25.5,42.4,25.5z"/>
			<path class="st1" d="M42.4,11.8c0.3,0,0.5,0.2,0.5,0.5v6.4c2-0.9,9.2-4,9.7-4l0,0c0.1,0.2-8,4.3-9.7,5.1V24
				c0,0.3-0.2,0.5-0.5,0.5s-0.5-0.2-0.5-0.5v-4.1v-1.1v-6.4C41.8,12,42.1,11.8,42.4,11.8 M42.4,9.8c-1.4,0-2.5,1.1-2.5,2.5v6.4v1.1
				V24c0,1.4,1.1,2.5,2.5,2.5s2.5-1.1,2.5-2.5v-2.9c1.1-0.6,2.9-1.4,4.5-2.3c1.3-0.7,2.3-1.2,3-1.6c1.2-0.7,2.9-1.6,2.1-3.4
				c0,0,0-0.1-0.1-0.1c-0.3-0.6-1.1-1.1-1.8-1.1c-0.4,0-0.9,0-7.7,2.9v-3.3C44.9,10.9,43.8,9.8,42.4,9.8L42.4,9.8z"/>
		</g>
		<g>
			<g>
				<path class="st1" d="M42.4,10.1c-2.1,0-2.5-4.2-2.5-5c0-1.7,0.9-2.8,2.5-2.8s2.5,1.1,2.5,2.8C44.9,5.9,44.4,10.1,42.4,10.1z"/>
				<path class="st1" d="M42.4,3.3c0.8,0,1.5,0.4,1.5,1.8s-0.7,4-1.5,4s-1.5-2.6-1.5-4S41.5,3.3,42.4,3.3 M42.4,1.3
					c-2.1,0-3.5,1.5-3.5,3.8c0,1.3,0.6,6,3.5,6s3.5-4.7,3.5-6C45.9,2.9,44.5,1.4,42.4,1.3L42.4,1.3L42.4,1.3z"/>
			</g>
			<g>
				<path class="st1" d="M42.4,18.2c-1.6,0-2.5-1-2.5-2.8c0-0.8,0.5-5,2.5-5s2.5,4.2,2.5,5C44.9,17.2,44,18.2,42.4,18.2z"/>
				<path class="st1" d="M42.4,11.5c0.8,0,1.5,2.6,1.5,4s-0.7,1.8-1.5,1.8s-1.5-0.4-1.5-1.8S41.5,11.5,42.4,11.5 M42.4,9.5
					c-2.9,0-3.5,4.7-3.5,6c0,2.3,1.4,3.8,3.5,3.8s3.5-1.5,3.5-3.8C45.9,14.2,45.3,9.5,42.4,9.5L42.4,9.5z"/>
			</g>
		</g>
		<g>
			<g>
				<path class="st1" d="M43.7,10.6c-0.6,0-0.9-0.2-1.1-0.4c-1.5-1.5,1.2-4.7,1.7-5.3c0.6-0.6,1.3-1,2-1c0.6,0,1.2,0.3,1.7,0.8
					s0.8,1.1,0.8,1.8s-0.3,1.4-1,2C46.9,9.3,44.9,10.6,43.7,10.6z"/>
				<path class="st1" d="M46.2,4.9c0.4,0,0.7,0.2,1,0.5C47.8,6,48,6.8,47,7.7c-0.8,0.8-2.5,1.9-3.4,1.9c-0.2,0-0.3,0-0.4-0.1
					c-0.6-0.6,0.7-2.9,1.7-3.9C45.4,5.1,45.9,4.9,46.2,4.9 M46.2,2.9L46.2,2.9c-1,0-1.9,0.4-2.7,1.3c-0.9,0.9-3.8,4.6-1.7,6.7
					c0.3,0.3,0.9,0.7,1.8,0.7c1.8,0,4.1-1.7,4.9-2.5c0.8-0.8,1.3-1.7,1.3-2.7c0-0.6-0.2-1.6-1.1-2.5C47.8,3.1,46.9,2.9,46.2,2.9
					L46.2,2.9z"/>
			</g>
			<g>
				<path class="st1" d="M38.5,16.7c-0.6,0-1.2-0.3-1.7-0.8c-1.1-1.1-1.1-2.5,0.2-3.8c0.8-0.8,2.7-2.2,4.1-2.2c0.6,0,1,0.2,1.2,0.4
					c0.6,0.6,0.6,1.6-0.1,2.9c-0.4,0.9-1.1,1.8-1.6,2.3C39.9,16.3,39.2,16.7,38.5,16.7L38.5,16.7z"/>
				<path class="st1" d="M41.1,11c0.2,0,0.3,0,0.4,0.1c0.6,0.6-0.7,2.9-1.7,3.9c-0.5,0.5-0.9,0.7-1.3,0.7c-0.4,0-0.7-0.2-1-0.5
					c-0.6-0.6-0.8-1.4,0.2-2.3C38.5,12,40.2,11,41.1,11 M41.1,9c-1.8,0-4,1.7-4.8,2.5c-1.6,1.6-1.7,3.6-0.2,5.2
					c0.9,0.9,1.8,1.1,2.5,1.1c1,0,1.9-0.4,2.7-1.3c0.7-0.7,1.4-1.7,1.8-2.6c1.1-2.2,0.5-3.4-0.1-4.1C42.5,9.2,41.8,9,41.1,9L41.1,9z
					"/>
			</g>
		</g>
		<g>
			<g>
				<path class="st1" d="M47.5,12.8c-0.8,0-5-0.5-5-2.5c0-2.1,4.2-2.5,5-2.5c2.4,0,2.8,1.5,2.8,2.4C50.3,11.7,49.2,12.8,47.5,12.8z"
					/>
				<path class="st1" d="M47.5,8.7c1.4,0,1.8,0.5,1.8,1.4c0,0.8-0.4,1.7-1.8,1.7c-1.4,0-4-0.7-4-1.5S46.2,8.7,47.5,8.7 M47.5,6.7
					c-1.3,0-6,0.6-6,3.5s4.7,3.5,6,3.5c2.3,0,3.8-1.5,3.8-3.7C51.3,8.5,50.3,6.7,47.5,6.7L47.5,6.7z"/>
			</g>
			<g>
				<path class="st1" d="M37.2,12.8c-1.7,0-2.8-0.9-2.8-2.5s1-2.5,2.8-2.5c0.8,0,5,0.5,5,2.5S38,12.8,37.2,12.8z"/>
				<path class="st1" d="M37.2,8.7c1.4,0,4,0.7,4,1.5s-2.6,1.5-4,1.5s-1.8-0.7-1.8-1.5C35.5,9.4,35.9,8.7,37.2,8.7 M37.2,6.7
					c-2.3,0-3.8,1.4-3.8,3.5s1.5,3.5,3.8,3.5c1.3,0,6-0.6,6-3.5S38.5,6.7,37.2,6.7L37.2,6.7z"/>
			</g>
		</g>
		<g>
			<g>
				<path class="st1" d="M46.2,16.7c-0.7,0-1.4-0.3-2-1c-0.6-0.6-1.2-1.5-1.6-2.3c-0.7-1.3-0.7-2.3-0.1-2.9c0.2-0.2,0.6-0.4,1.2-0.4
					c1.4,0,3.4,1.4,4.1,2.2c1.2,1.2,1.3,2.6,0.2,3.7C47.5,16.4,46.9,16.7,46.2,16.7z"/>
				<path class="st1" d="M43.7,11c0.9,0,2.6,1.1,3.4,1.9c1,1,0.8,1.7,0.2,2.3c-0.3,0.3-0.6,0.5-1,0.5S45.5,15.5,45,15
					c-1-1-2.3-3.3-1.7-3.9C43.3,11,43.5,11,43.7,11 M43.7,9L43.7,9c-0.7,0-1.4,0.3-1.9,0.7c-0.6,0.6-1.2,1.9-0.1,4.1
					c0.5,1,1.2,2,1.8,2.6c0.8,0.8,1.8,1.3,2.7,1.3c0.6,0,1.5-0.2,2.4-1.1c1.5-1.5,1.4-3.5-0.2-5.2C47.7,10.6,45.5,9,43.7,9L43.7,9z"
					/>
			</g>
			<g>
				<path class="st1" d="M41.1,10.6c-1.3,0-3.3-1.3-4.2-2.2c-0.6-0.6-1-1.3-1-2c0-0.6,0.3-1.2,0.8-1.8c0.5-0.5,1.1-0.8,1.7-0.8
					c0.7,0,1.4,0.3,2,1c0.6,0.6,3.2,3.8,1.7,5.3C42.1,10.3,41.7,10.6,41.1,10.6L41.1,10.6z"/>
				<path class="st1" d="M38.5,4.9c0.4,0,0.8,0.2,1.3,0.7c1,1,2.3,3.3,1.7,3.9c-0.1,0.1-0.2,0.1-0.4,0.1c-0.9,0-2.6-1.1-3.4-1.9
					c-1-1-0.8-1.7-0.2-2.3C37.8,5.1,38.1,4.9,38.5,4.9 M38.5,2.9c-0.6,0-1.5,0.2-2.4,1.1C35.2,4.9,35,5.8,35,6.4
					c0,1,0.4,1.9,1.3,2.7c0.8,0.8,3,2.4,4.8,2.4c0.9,0,1.5-0.4,1.8-0.7c2.4-2.4-1.7-6.7-1.7-6.7C40.4,3.3,39.5,2.9,38.5,2.9
					L38.5,2.9z"/>
			</g>
		</g>
		<g>
			<g>
				<circle class="st1" cx="42.4" cy="10.3" r="2.8"/>
				<path class="st1" d="M42.4,8.4c1,0,1.8,0.8,1.8,1.8S43.4,12,42.4,12s-1.8-0.8-1.8-1.8S41.4,8.4,42.4,8.4 M42.4,6.4
					c-2.1,0-3.8,1.7-3.8,3.8s1.7,3.8,3.8,3.8s3.8-1.7,3.8-3.8S44.5,6.4,42.4,6.4L42.4,6.4z"/>
			</g>
			<g>
				<path class="st1" d="M38.4,35.7c-0.8,0-1.5-0.6-1.7-1.4l-2.1-10.5c-0.1-0.3,0-0.6,0.2-0.8c0.2-0.2,0.5-0.4,0.8-0.4h13.6
					c0.3,0,0.6,0.1,0.8,0.4c0.2,0.2,0.3,0.5,0.2,0.8l-2.1,10.5c-0.2,0.8-0.8,1.4-1.7,1.4H38.4z"/>
				<path class="st1" d="M49.2,23.6l-2.1,10.5c-0.1,0.3-0.3,0.6-0.7,0.6h-8c-0.3,0-0.6-0.2-0.7-0.6l-2.1-10.5L49.2,23.6 M49.2,21.6
					H35.6c-0.6,0-1.2,0.3-1.5,0.7c-0.4,0.5-0.5,1.1-0.4,1.7l2.1,10.5c0.3,1.3,1.4,2.2,2.6,2.2h8c1.3,0,2.4-0.9,2.6-2.2L51.2,24
					c0.1-0.6,0-1.2-0.4-1.7C50.4,21.9,49.8,21.6,49.2,21.6L49.2,21.6z M49.2,25.6L49.2,25.6L49.2,25.6L49.2,25.6z"/>
			</g>
		</g>
		<g>
			<path class="st1" d="M34.5,26.5c-0.7,0-1.4-0.6-1.4-1.4v-1.9c0-0.8,0.6-1.4,1.4-1.4h15.7c0.7,0,1.4,0.6,1.4,1.4v1.9
				c0,0.7-0.6,1.4-1.4,1.4H34.5z"/>
			<path class="st1" d="M50.2,22.9c0.2,0,0.4,0.2,0.4,0.4v1.9c0,0.2-0.2,0.4-0.4,0.4H34.5c-0.2,0-0.4-0.2-0.4-0.4v-1.9
				c0-0.2,0.2-0.4,0.4-0.4H50.2 M50.2,20.9H34.5c-1.3,0-2.4,1.1-2.4,2.4v1.9c0,1.3,1.1,2.4,2.4,2.4h15.7c1.3,0,2.4-1.1,2.4-2.4v-1.9
				C52.6,22,51.5,20.9,50.2,20.9L50.2,20.9z"/>
		</g>
		<g>
			<path class="st1" d="M36.9,31.1c-0.5,0-0.9-0.3-1-0.8l-0.2-1.1c-0.1-0.3,0-0.6,0.2-0.8s0.5-0.4,0.8-0.4h11.5
				c0.3,0,0.6,0.1,0.8,0.4c0.2,0.2,0.3,0.5,0.2,0.8L49,30.3c-0.1,0.5-0.5,0.8-1,0.8H36.9z"/>
			<path class="st1" d="M48.1,29L48.1,29 M48.1,29l-0.2,1.1h-11L36.7,29H48.1 M48.1,27L48.1,27H36.7c-0.6,0-1.2,0.3-1.5,0.7
				c-0.4,0.5-0.5,1.1-0.4,1.7l0.2,1.1c0.2,0.9,1,1.6,2,1.6h11c1,0,1.8-0.7,2-1.6l0.2-1c0-0.2,0.1-0.3,0.1-0.5
				C50.1,27.9,49.2,27,48.1,27L48.1,27z M48.1,31L48.1,31L48.1,31L48.1,31z"/>
		</g>
	</g>
	<g>
		<g>
			<path class="st1" d="M70.3,21c-1.8,0-2.9-1.2-3.3-1.9c0,0,0-0.1-0.1-0.1c-0.4-1.2-0.5-3.7,2.6-5.2c0.9-0.4,2-0.7,3.3-0.7
				c1.7,0,3.1,0.4,3.7,0.5l0,0c0.4,0.1,0.8,0.6,0.8,1c0,0.1,0,0.3-0.1,0.4c-0.3,0.7-1.8,4-4.6,5.3C71.8,20.8,71,21,70.3,21z"/>
			<path class="st1" d="M72.9,14.2c1.6,0,3.1,0.4,3.4,0.5c0,0,0,0,0,0.1c-0.2,0.4-1.6,3.6-4.1,4.8c-0.7,0.3-1.4,0.5-1.9,0.5
				c-1.7,0-2.4-1.3-2.4-1.3S67,16.3,70,14.9C70.9,14.4,71.9,14.2,72.9,14.2 M72.9,12.2L72.9,12.2c-1.4,0-2.7,0.3-3.7,0.8
				c-3.5,1.6-3.8,4.7-3.1,6.4c0,0.1,0.1,0.2,0.1,0.3c0.1,0.2,1.4,2.4,4.2,2.4c0.9,0,1.8-0.2,2.7-0.7c3-1.4,4.6-4.8,5.1-5.8
				c0.1-0.2,0.2-0.5,0.2-0.8c0-1-0.7-1.8-1.6-2C76,12.6,74.5,12.2,72.9,12.2L72.9,12.2z"/>
		</g>
		<g>
			<path class="st1" d="M70.3,21c-2.1,0-3.5-1.7-3.5-2.4c0-0.4,0.2-0.7,0.6-0.9l8.4-3.9c0.1-0.1,0.3-0.1,0.4-0.1
				c0.2,0,0.3,0,0.4,0.1c0.2,0.1,0.5,0.4,0.5,0.6s0.1,0.6-0.1,0.8c-0.3,0.6-1.8,3.9-4.5,5.2C71.8,20.8,71,21,70.3,21L70.3,21z"/>
			<path class="st1" d="M76.2,14.7C76.3,14.7,76.3,14.8,76.2,14.7c-0.1,0.5-1.5,3.7-4,4.8c-0.7,0.3-1.4,0.5-1.9,0.5
				c-1.7,0-2.5-1.3-2.5-1.4L76.2,14.7 M76.2,12.7c-0.3,0-0.6,0.1-0.9,0.2l-8.3,4c-0.7,0.3-1.1,1-1.1,1.8c0,1.3,1.9,3.4,4.5,3.4
				c0.9,0,1.8-0.2,2.7-0.7c3-1.4,4.6-4.7,5-5.8c0.4-1,0-2.2-1-2.7C76.8,12.8,76.5,12.7,76.2,12.7L76.2,12.7z"/>
		</g>
		<g>
			<path class="st1" d="M66,25.5c-0.8,0-1.5-0.7-1.5-1.5V12.3c0-0.8,0.7-1.5,1.5-1.5s1.5,0.7,1.5,1.5v4.9c5.3-2.3,8.2-3.5,8.7-3.5
				c0.4,0,0.7,0.2,0.9,0.5c0.5,1.1,0.6,1.2-9.6,6.2V24C67.5,24.9,66.8,25.5,66,25.5z"/>
			<path class="st1" d="M66,11.8c0.3,0,0.5,0.2,0.5,0.5v6.4c2-0.9,9.2-4,9.7-4l0,0c0.1,0.2-8,4.3-9.7,5.1V24c0,0.3-0.2,0.5-0.5,0.5
				s-0.5-0.2-0.5-0.5v-4.1v-1.1v-6.4C65.4,12,65.7,11.8,66,11.8 M66,9.8c-1.4,0-2.5,1.1-2.5,2.5v6.4v1.1V24c0,1.4,1.1,2.5,2.5,2.5
				s2.5-1.1,2.5-2.5v-2.9c1.1-0.6,2.9-1.4,4.5-2.3c1.3-0.7,2.3-1.2,3-1.6c1.2-0.7,2.9-1.6,2.1-3.4c0,0,0-0.1-0.1-0.1
				c-0.3-0.6-1.1-1.1-1.8-1.1c-0.4,0-0.9,0-7.7,2.9v-3.3C68.5,10.9,67.4,9.8,66,9.8L66,9.8z"/>
		</g>
		<g>
			<g>
				<path class="st1" d="M66,10.1c-2.1,0-2.5-4.2-2.5-5c0-1.7,0.9-2.8,2.5-2.8s2.5,1.1,2.5,2.8C68.5,5.9,68,10.1,66,10.1z"/>
				<path class="st1" d="M66,3.3c0.8,0,1.5,0.4,1.5,1.8s-0.7,4-1.5,4s-1.5-2.6-1.5-4S65.1,3.3,66,3.3 M66,1.3
					c-2.1,0-3.5,1.5-3.5,3.8c0,1.3,0.6,6,3.5,6s3.5-4.7,3.5-6C69.5,2.9,68.1,1.4,66,1.3L66,1.3L66,1.3z"/>
			</g>
			<g>
				<path class="st1" d="M66,18.2c-1.6,0-2.5-1-2.5-2.8c0-0.8,0.5-5,2.5-5c2.1,0,2.5,4.2,2.5,5C68.5,17.2,67.5,18.2,66,18.2z"/>
				<path class="st1" d="M66,11.5c0.8,0,1.5,2.6,1.5,4s-0.7,1.8-1.5,1.8s-1.5-0.4-1.5-1.8S65.1,11.5,66,11.5 M66,9.5
					c-2.9,0-3.5,4.7-3.5,6c0,2.3,1.4,3.8,3.5,3.8s3.5-1.5,3.5-3.8C69.5,14.2,68.9,9.5,66,9.5L66,9.5z"/>
			</g>
		</g>
		<g>
			<g>
				<path class="st1" d="M67.2,10.6c-0.6,0-0.9-0.2-1.1-0.4c-1.5-1.5,1.2-4.7,1.7-5.3c0.6-0.6,1.3-1,2-1c0.6,0,1.2,0.3,1.7,0.8
					s0.8,1.1,0.8,1.8s-0.3,1.4-1,2C70.5,9.3,68.5,10.6,67.2,10.6z"/>
				<path class="st1" d="M69.8,4.9c0.4,0,0.7,0.2,1,0.5c0.6,0.6,0.8,1.4-0.2,2.3c-0.8,0.8-2.5,1.9-3.4,1.9c-0.2,0-0.3,0-0.4-0.1
					c-0.6-0.6,0.7-2.9,1.7-3.9C69,5.1,69.4,4.9,69.8,4.9 M69.8,2.9L69.8,2.9c-1,0-1.9,0.4-2.7,1.3c-0.7,0.7-1.3,1.6-1.8,2.6
					c-1.1,2.2-0.5,3.5,0.1,4.1c0.3,0.3,0.9,0.7,1.8,0.7c1.8,0,4.1-1.7,4.9-2.5s1.3-1.7,1.3-2.7c0-0.6-0.2-1.6-1.1-2.5
					C71.4,3.1,70.4,2.9,69.8,2.9L69.8,2.9z"/>
			</g>
			<g>
				<path class="st1" d="M62.1,16.7c-0.6,0-1.2-0.3-1.7-0.8c-0.5-0.5-0.8-1.1-0.8-1.7c0-0.7,0.3-1.4,1-2c0.8-0.8,2.7-2.2,4.1-2.2
					c0.6,0,1,0.2,1.2,0.4c0.6,0.6,0.6,1.6-0.1,2.9c-0.4,0.9-1.1,1.8-1.6,2.3C63.5,16.3,62.8,16.7,62.1,16.7L62.1,16.7z"/>
				<path class="st1" d="M64.7,11c0.2,0,0.3,0,0.4,0.1c0.6,0.6-0.7,2.9-1.7,3.9c-0.5,0.5-0.9,0.7-1.3,0.7c-0.4,0-0.7-0.2-1-0.5
					c-0.6-0.6-0.8-1.4,0.2-2.3C62.1,12,63.8,11,64.7,11 M64.7,9c-1.8,0-4,1.7-4.8,2.5c-1.6,1.6-1.7,3.6-0.2,5.2
					c0.9,0.9,1.8,1.1,2.5,1.1c1,0,1.9-0.4,2.7-1.3c0.9-0.9,3.8-4.6,1.7-6.7C66.1,9.2,65.4,9,64.7,9L64.7,9z"/>
			</g>
		</g>
		<g>
			<g>
				<path class="st1" d="M71.1,12.8c-0.8,0-5-0.5-5-2.5c0-2.1,4.2-2.5,5-2.5c2.4,0,2.8,1.5,2.8,2.4C73.9,11.7,72.8,12.8,71.1,12.8z"
					/>
				<path class="st1" d="M71.1,8.7c1.4,0,1.8,0.5,1.8,1.4c0,0.8-0.4,1.7-1.8,1.7s-4-0.7-4-1.5S69.7,8.7,71.1,8.7 M71.1,6.7
					c-1.3,0-6,0.6-6,3.5s4.7,3.5,6,3.5c2.3,0,3.8-1.5,3.8-3.7C74.9,8.5,73.9,6.7,71.1,6.7L71.1,6.7z"/>
			</g>
			<g>
				<path class="st1" d="M60.8,12.8c-1.7,0-2.8-0.9-2.8-2.5s1-2.5,2.8-2.5c0.8,0,5,0.5,5,2.5S61.6,12.8,60.8,12.8z"/>
				<path class="st1" d="M60.8,8.7c1.4,0,4,0.7,4,1.5s-2.6,1.5-4,1.5S59,11.1,59,10.3C59,9.4,59.4,8.7,60.8,8.7 M60.8,6.7
					c-2.3,0-3.8,1.4-3.8,3.5s1.5,3.5,3.8,3.5c1.3,0,6-0.6,6-3.5S62.1,6.7,60.8,6.7L60.8,6.7z"/>
			</g>
		</g>
		<g>
			<g>
				<path class="st1" d="M69.8,16.7c-0.7,0-1.4-0.3-2-1c-0.6-0.6-1.2-1.5-1.6-2.3c-0.7-1.3-0.7-2.3-0.1-2.9c0.2-0.2,0.6-0.4,1.2-0.4
					c1.4,0,3.4,1.4,4.1,2.2c1.2,1.2,1.3,2.6,0.2,3.7C71,16.4,70.4,16.7,69.8,16.7z"/>
				<path class="st1" d="M67.2,11c0.9,0,2.6,1.1,3.4,1.9c1,1,0.8,1.7,0.2,2.3c-0.3,0.3-0.6,0.5-1,0.5S69,15.5,68.5,15
					c-1-1-2.3-3.3-1.7-3.9C66.9,11,67,11,67.2,11 M67.2,9L67.2,9c-0.7,0-1.4,0.3-1.9,0.7c-0.6,0.6-1.2,1.9-0.1,4.1
					c0.5,1,1.2,2,1.8,2.6c0.8,0.8,1.8,1.3,2.7,1.3c0.6,0,1.5-0.2,2.4-1.1c1.5-1.5,1.4-3.5-0.2-5.2C71.3,10.6,69,9,67.2,9L67.2,9z"/>
			</g>
			<g>
				<path class="st1" d="M64.7,10.6c-1.3,0-3.3-1.3-4.2-2.2c-0.6-0.6-1-1.3-1-2c0-0.6,0.3-1.2,0.8-1.8c0.5-0.5,1.1-0.8,1.7-0.8
					c0.7,0,1.4,0.3,2,1c0.6,0.6,3.2,3.8,1.7,5.3C65.6,10.3,65.3,10.6,64.7,10.6L64.7,10.6z"/>
				<path class="st1" d="M62.1,4.9c0.4,0,0.8,0.2,1.3,0.7c1,1,2.3,3.3,1.7,3.9c-0.1,0.1-0.2,0.1-0.4,0.1c-0.9,0-2.6-1.1-3.4-1.9
					c-1-1-0.8-1.7-0.2-2.3C61.4,5.1,61.7,4.9,62.1,4.9 M62.1,2.9c-0.6,0-1.5,0.2-2.4,1.1s-1.1,1.8-1.1,2.5c0,1,0.4,1.9,1.3,2.7
					c0.8,0.8,3,2.4,4.8,2.4c0.9,0,1.5-0.4,1.8-0.7c2.4-2.4-1.7-6.7-1.7-6.7C64,3.3,63.1,2.9,62.1,2.9L62.1,2.9z"/>
			</g>
		</g>
		<g>
			<g>
				<circle class="st1" cx="66" cy="10.3" r="2.8"/>
				<path class="st1" d="M66,8.4c1,0,1.8,0.8,1.8,1.8S67,12.1,66,12.1s-1.8-0.8-1.8-1.8S65,8.4,66,8.4 M66,6.4
					c-2.1,0-3.8,1.7-3.8,3.8S63.9,14,66,14s3.8-1.7,3.8-3.8S68.1,6.4,66,6.4L66,6.4z"/>
			</g>
			<g>
				<path class="st1" d="M62,35.7c-0.8,0-1.5-0.6-1.7-1.4l-2.1-10.5c-0.1-0.3,0-0.6,0.2-0.8c0.2-0.2,0.5-0.4,0.8-0.4h13.6
					c0.3,0,0.6,0.1,0.8,0.4c0.2,0.2,0.3,0.5,0.2,0.8l-2.1,10.5c-0.2,0.8-0.8,1.4-1.7,1.4H62z"/>
				<path class="st1" d="M72.8,23.6l-2.1,10.5c-0.1,0.3-0.3,0.6-0.7,0.6h-8c-0.3,0-0.6-0.2-0.7-0.6l-2.1-10.5L72.8,23.6 M72.8,21.6
					H59.1c-0.6,0-1.2,0.3-1.5,0.7c-0.4,0.5-0.5,1.1-0.4,1.7l2.1,10.5c0.3,1.3,1.4,2.2,2.6,2.2h8c1.3,0,2.4-0.9,2.6-2.2L74.7,24
					c0.1-0.6,0-1.2-0.4-1.7C73.9,21.9,73.4,21.6,72.8,21.6L72.8,21.6z M72.8,25.6L72.8,25.6L72.8,25.6L72.8,25.6z"/>
			</g>
		</g>
		<g>
			<path class="st1" d="M58.1,26.5c-0.7,0-1.4-0.6-1.4-1.4v-1.9c0-0.8,0.6-1.4,1.4-1.4h15.7c0.7,0,1.4,0.6,1.4,1.4v1.9
				c0,0.7-0.6,1.4-1.4,1.4H58.1z"/>
			<path class="st1" d="M73.8,22.9c0.2,0,0.4,0.2,0.4,0.4v1.9c0,0.2-0.2,0.4-0.4,0.4H58.1c-0.2,0-0.4-0.2-0.4-0.4v-1.9
				c0-0.2,0.2-0.4,0.4-0.4H73.8 M73.8,20.9H58.1c-1.3,0-2.4,1.1-2.4,2.4v1.9c0,1.3,1.1,2.4,2.4,2.4h15.7c1.3,0,2.4-1.1,2.4-2.4v-1.9
				C76.2,22,75.1,20.9,73.8,20.9L73.8,20.9z"/>
		</g>
		<g>
			<path class="st1" d="M60.5,31.1c-0.5,0-0.9-0.3-1-0.8l-0.2-1.1c-0.1-0.3,0-0.6,0.2-0.8c0.2-0.2,0.5-0.4,0.8-0.4h11.5
				c0.3,0,0.6,0.1,0.8,0.4s0.3,0.5,0.2,0.8l-0.2,1.1c-0.1,0.5-0.5,0.8-1,0.8H60.5z"/>
			<path class="st1" d="M71.7,29L71.7,29 M71.7,29l-0.2,1.1h-11L60.2,29H71.7 M71.7,27L71.7,27H60.2c-0.6,0-1.2,0.3-1.5,0.7
				c-0.4,0.5-0.5,1.1-0.4,1.7l0.2,1.1c0.2,0.9,1,1.6,2,1.6h11c1,0,1.8-0.7,2-1.6l0.2-1c0-0.2,0.1-0.3,0.1-0.5
				C73.7,27.9,72.8,27,71.7,27L71.7,27z M71.7,31L71.7,31L71.7,31L71.7,31z"/>
		</g>
	</g>
	<g>
		<g>
			<path class="st1" d="M93.9,21c-1.8,0-2.9-1.2-3.3-1.9c0,0,0-0.1-0.1-0.1c-0.4-1.2-0.5-3.7,2.6-5.2c0.9-0.4,2-0.7,3.3-0.7
				c1.7,0,3.1,0.4,3.7,0.5l0,0c0.4,0.1,0.8,0.6,0.8,1c0,0.1,0,0.3-0.1,0.4c-0.3,0.7-1.8,4-4.6,5.3C95.4,20.8,94.6,21,93.9,21z"/>
			<path class="st1" d="M96.4,14.2c1.6,0,3.1,0.4,3.4,0.5c0,0,0,0,0,0.1c-0.2,0.4-1.6,3.6-4.1,4.8c-0.7,0.3-1.4,0.5-1.9,0.5
				c-1.7,0-2.4-1.3-2.4-1.3s-0.9-2.5,2.1-3.9C94.5,14.4,95.5,14.2,96.4,14.2 M96.4,12.2L96.4,12.2c-1.4,0-2.7,0.3-3.7,0.8
				c-3.5,1.6-3.8,4.7-3.1,6.4c0,0.1,0.1,0.2,0.1,0.3c0.1,0.2,1.4,2.4,4.2,2.4c0.9,0,1.8-0.2,2.7-0.7c3-1.4,4.6-4.8,5.1-5.8
				c0.1-0.2,0.2-0.5,0.2-0.8c0-1-0.7-1.8-1.6-2C99.6,12.6,98.1,12.2,96.4,12.2L96.4,12.2z"/>
		</g>
		<g>
			<path class="st1" d="M93.9,21c-2.1,0-3.5-1.7-3.5-2.4c0-0.4,0.2-0.7,0.6-0.9l8.4-3.9c0.1-0.1,0.3-0.1,0.4-0.1s0.3,0,0.4,0.1
				c0.5,0.2,0.7,0.9,0.5,1.4c-0.3,0.6-1.8,3.9-4.5,5.2C95.4,20.8,94.6,21,93.9,21L93.9,21z"/>
			<path class="st1" d="M99.8,14.7C99.8,14.7,99.9,14.8,99.8,14.7c-0.1,0.5-1.5,3.7-4,4.8C95,19.9,94.4,20,93.9,20
				c-1.7,0-2.5-1.3-2.5-1.4L99.8,14.7 M99.8,12.7c-0.3,0-0.6,0.1-0.9,0.2l-8.4,3.9c-0.7,0.3-1.1,1-1.1,1.8c0,1.3,1.9,3.4,4.5,3.4
				c0.9,0,1.8-0.2,2.7-0.7c3-1.4,4.6-4.7,5-5.8c0.4-1,0-2.2-1-2.7C100.4,12.8,100.1,12.7,99.8,12.7L99.8,12.7z"/>
		</g>
		<g>
			<path class="st1" d="M89.5,25.5c-0.8,0-1.5-0.7-1.5-1.5V12.3c0-0.8,0.7-1.5,1.5-1.5s1.5,0.7,1.5,1.5v4.9c5.3-2.3,8.2-3.5,8.7-3.5
				c0.4,0,0.7,0.2,0.9,0.5c0.5,1.1,0.6,1.2-9.6,6.2V24C91.1,24.9,90.4,25.5,89.5,25.5z"/>
			<path class="st1" d="M89.5,11.8c0.3,0,0.5,0.2,0.5,0.5v6.4c2-0.9,9.2-4,9.7-4l0,0c0.1,0.2-8,4.3-9.7,5.1V24
				c0,0.3-0.2,0.5-0.5,0.5S89,24.3,89,24v-4.1v-1.1v-6.4C89,12,89.2,11.8,89.5,11.8 M89.5,9.8c-1.4,0-2.5,1.1-2.5,2.5v6.4v1.1V24
				c0,1.4,1.1,2.5,2.5,2.5S92,25.4,92,24v-2.9c1.1-0.6,2.9-1.4,4.5-2.3c1.3-0.7,2.3-1.2,3-1.6c1.2-0.7,2.9-1.6,2.1-3.4
				c0,0,0-0.1-0.1-0.1c-0.3-0.6-1.1-1.1-1.8-1.1c-0.4,0-0.9,0-7.7,2.9v-3.3C92.1,10.9,90.9,9.8,89.5,9.8L89.5,9.8z"/>
		</g>
		<g>
			<g>
				<path class="st1" d="M89.5,10.1c-2.1,0-2.5-4.2-2.5-5c0-1.7,0.9-2.8,2.5-2.8S92,3.4,92,5.1C92.1,5.9,91.6,10.1,89.5,10.1z"/>
				<path class="st1" d="M89.5,3.3c0.8,0,1.5,0.4,1.5,1.8s-0.7,4-1.5,4S88,6.5,88,5.1S88.7,3.3,89.5,3.3 M89.5,1.3
					c-2.1,0-3.5,1.5-3.5,3.8c0,1.3,0.6,6,3.5,6s3.5-4.7,3.5-6C93.1,2.9,91.7,1.4,89.5,1.3C89.6,1.3,89.6,1.3,89.5,1.3L89.5,1.3z"/>
			</g>
			<g>
				<path class="st1" d="M89.5,18.2c-1.6,0-2.5-1-2.5-2.8c0-0.8,0.5-5,2.5-5c2.1,0,2.5,4.2,2.5,5C92.1,17.2,91.1,18.2,89.5,18.2z"/>
				<path class="st1" d="M89.5,11.5c0.8,0,1.5,2.6,1.5,4s-0.7,1.8-1.5,1.8S88,16.8,88,15.4S88.7,11.5,89.5,11.5 M89.5,9.5
					c-2.9,0-3.5,4.7-3.5,6c0,2.3,1.4,3.8,3.5,3.8s3.5-1.5,3.5-3.8C93.1,14.2,92.5,9.5,89.5,9.5L89.5,9.5z"/>
			</g>
		</g>
		<g>
			<g>
				<path class="st1" d="M90.8,10.6c-0.6,0-0.9-0.2-1.1-0.4c-0.6-0.6-0.6-1.6,0.1-3c0.4-0.8,1.1-1.8,1.6-2.3c0.6-0.6,1.3-1,2-1
					c0.6,0,1.2,0.3,1.7,0.8s0.8,1.1,0.8,1.8s-0.3,1.4-1,2C94.1,9.3,92.1,10.6,90.8,10.6z"/>
				<path class="st1" d="M93.4,4.9c0.4,0,0.7,0.2,1,0.5C95,6,95.2,6.8,94.3,7.7c-0.8,0.8-2.5,1.9-3.4,1.9c-0.2,0-0.3,0-0.4-0.1
					c-0.6-0.6,0.7-2.9,1.7-3.9C92.6,5.1,93,4.9,93.4,4.9 M93.4,2.9L93.4,2.9c-1,0-1.9,0.4-2.7,1.3c-0.7,0.7-1.3,1.6-1.8,2.6
					c-1.1,2.2-0.5,3.5,0.1,4.1c0.3,0.3,0.9,0.7,1.8,0.7c1.8,0,4.1-1.7,4.9-2.5S97,7.4,97,6.4c0-0.6-0.2-1.6-1.1-2.5
					C94.9,3.1,94,2.9,93.4,2.9L93.4,2.9z"/>
			</g>
			<g>
				<path class="st1" d="M85.7,16.7c-0.6,0-1.2-0.3-1.7-0.8c-0.5-0.5-0.8-1.1-0.8-1.7c0-0.7,0.3-1.4,1-2c0.8-0.8,2.7-2.2,4.1-2.2
					c0.6,0,1,0.2,1.2,0.4c0.5,0.6,0.5,1.6-0.2,3c-0.4,0.9-1.1,1.8-1.6,2.3C87,16.3,86.4,16.7,85.7,16.7L85.7,16.7z"/>
				<path class="st1" d="M88.3,11c0.2,0,0.3,0,0.4,0.1C89.3,11.7,88,14,87,15c-0.5,0.5-0.9,0.7-1.3,0.7s-0.7-0.2-1-0.5
					c-0.6-0.6-0.8-1.4,0.2-2.3C85.6,12,87.4,11,88.3,11 M88.3,9c-1.8,0-4,1.7-4.8,2.5c-1.6,1.6-1.7,3.6-0.2,5.2
					c0.9,0.9,1.8,1.1,2.5,1.1c1,0,1.9-0.4,2.7-1.3c0.7-0.7,1.4-1.7,1.8-2.6c1.1-2.2,0.5-3.4-0.1-4.1C89.6,9.2,89,9,88.3,9L88.3,9z"
					/>
			</g>
		</g>
		<g>
			<g>
				<path class="st1" d="M94.7,12.8c-0.8,0-5-0.5-5-2.5c0-2.1,4.2-2.5,5-2.5c2.4,0,2.8,1.5,2.8,2.4C97.5,11.7,96.4,12.8,94.7,12.8z"
					/>
				<path class="st1" d="M94.7,8.7c1.4,0,1.8,0.5,1.8,1.4c0,0.8-0.4,1.7-1.8,1.7s-4-0.7-4-1.5S93.3,8.7,94.7,8.7 M94.7,6.7
					c-1.3,0-6,0.6-6,3.5s4.7,3.5,6,3.5c2.3,0,3.8-1.5,3.8-3.7C98.5,8.5,97.5,6.7,94.7,6.7L94.7,6.7z"/>
			</g>
			<g>
				<path class="st1" d="M84.4,12.8c-1.7,0-2.8-0.9-2.8-2.5s1-2.5,2.8-2.5c0.8,0,5,0.5,5,2.5C89.3,12.3,85.2,12.8,84.4,12.8z"/>
				<path class="st1" d="M84.4,8.7c1.4,0,4,0.7,4,1.5s-2.6,1.5-4,1.5s-1.8-0.7-1.8-1.5S83,8.7,84.4,8.7 M84.4,6.7
					c-2.3,0-3.8,1.4-3.8,3.5s1.5,3.5,3.8,3.5c1.3,0,6-0.6,6-3.5S85.6,6.7,84.4,6.7L84.4,6.7z"/>
			</g>
		</g>
		<g>
			<g>
				<path class="st1" d="M93.4,16.7c-0.7,0-1.4-0.3-2-1c-0.6-0.6-1.2-1.5-1.6-2.3c-0.7-1.3-0.7-2.3-0.1-2.9c0.2-0.2,0.6-0.4,1.2-0.4
					c1.4,0,3.4,1.4,4.1,2.2c0.7,0.6,1,1.3,1,2c0,0.6-0.3,1.2-0.8,1.7C94.6,16.4,94,16.7,93.4,16.7z"/>
				<path class="st1" d="M90.8,11c0.9,0,2.6,1.1,3.4,1.9c1,1,0.8,1.7,0.2,2.3c-0.3,0.3-0.6,0.5-1,0.5s-0.8-0.2-1.3-0.7
					c-1-1-2.3-3.3-1.7-3.9C90.5,11,90.6,11,90.8,11 M90.8,9L90.8,9c-0.7,0-1.4,0.3-1.9,0.7c-0.6,0.6-1.2,1.9-0.1,4.1
					c0.5,1,1.2,2,1.8,2.6c0.8,0.8,1.8,1.3,2.7,1.3c0.6,0,1.5-0.2,2.4-1.1c1.5-1.5,1.4-3.5-0.2-5.2C94.9,10.6,92.6,9,90.8,9L90.8,9z"
					/>
			</g>
			<g>
				<path class="st1" d="M88.3,10.6c-1.3,0-3.3-1.3-4.2-2.2c-0.6-0.6-1-1.3-1-2c0-0.6,0.3-1.2,0.8-1.8c0.5-0.5,1.1-0.8,1.7-0.8
					c0.7,0,1.4,0.3,2,1c0.6,0.6,3.2,3.8,1.7,5.3C89.2,10.3,88.9,10.6,88.3,10.6L88.3,10.6z"/>
				<path class="st1" d="M85.7,4.9c0.4,0,0.8,0.2,1.3,0.7c1,1,2.3,3.3,1.7,3.9c-0.1,0.1-0.2,0.1-0.4,0.1c-0.9,0-2.6-1.1-3.4-1.9
					c-1-1-0.8-1.7-0.2-2.3C85,5.1,85.3,4.9,85.7,4.9 M85.7,2.9c-0.6,0-1.5,0.2-2.4,1.1s-1.1,1.8-1.1,2.5c0,1,0.4,1.9,1.3,2.7
					c0.8,0.8,3,2.4,4.8,2.4c0.9,0,1.5-0.4,1.8-0.7c2.4-2.4-1.7-6.7-1.7-6.7C87.6,3.3,86.6,2.9,85.7,2.9L85.7,2.9z"/>
			</g>
		</g>
		<g>
			<g>
				<path class="st1" d="M89.5,13.1c-1.6,0-2.8-1.3-2.8-2.8s1.3-2.8,2.8-2.8c1.6,0,2.8,1.3,2.8,2.8S91.1,13.1,89.5,13.1z"/>
				<path class="st1" d="M89.5,8.4c1,0,1.8,0.8,1.8,1.8S90.5,12,89.5,12s-1.8-0.8-1.8-1.8S88.5,8.4,89.5,8.4 M89.5,6.4
					c-2.1,0-3.8,1.7-3.8,3.8s1.7,3.8,3.8,3.8s3.8-1.7,3.8-3.8S91.6,6.4,89.5,6.4L89.5,6.4z"/>
			</g>
			<g>
				<path class="st1" d="M85.5,35.7c-0.8,0-1.5-0.6-1.7-1.4l-2.1-10.5c-0.1-0.3,0-0.6,0.2-0.8c0.2-0.2,0.5-0.4,0.8-0.4h13.6
					c0.3,0,0.6,0.1,0.8,0.4c0.2,0.2,0.3,0.5,0.2,0.8l-2.1,10.5c-0.2,0.8-0.8,1.4-1.7,1.4H85.5z"/>
				<path class="st1" d="M96.3,23.6l-2.1,10.5c-0.1,0.3-0.3,0.6-0.7,0.6h-8c-0.3,0-0.6-0.2-0.7-0.6l-2.1-10.5L96.3,23.6 M96.3,21.6
					H82.7c-0.6,0-1.2,0.3-1.5,0.7c-0.4,0.5-0.5,1.1-0.4,1.7l2.1,10.5c0.3,1.3,1.4,2.2,2.6,2.2h8c1.3,0,2.4-0.9,2.6-2.2L98.3,24
					c0.1-0.6,0-1.2-0.4-1.7C97.5,21.9,96.9,21.6,96.3,21.6L96.3,21.6z M96.3,25.6L96.3,25.6L96.3,25.6L96.3,25.6z"/>
			</g>
		</g>
		<g>
			<path class="st1" d="M81.7,26.5c-0.7,0-1.4-0.6-1.4-1.4v-1.9c0-0.8,0.6-1.4,1.4-1.4h15.7c0.8,0,1.4,0.6,1.4,1.4v1.9
				c0,0.7-0.6,1.4-1.4,1.4H81.7z"/>
			<path class="st1" d="M97.4,22.9c0.2,0,0.4,0.2,0.4,0.4v1.9c0,0.2-0.2,0.4-0.4,0.4H81.7c-0.2,0-0.4-0.2-0.4-0.4v-1.9
				c0-0.2,0.2-0.4,0.4-0.4H97.4 M97.4,20.9H81.7c-1.3,0-2.4,1.1-2.4,2.4v1.9c0,1.3,1.1,2.4,2.4,2.4h15.7c1.3,0,2.4-1.1,2.4-2.4v-1.9
				C99.8,22,98.7,20.9,97.4,20.9L97.4,20.9z"/>
		</g>
		<g>
			<path class="st1" d="M84,31.1c-0.5,0-0.9-0.3-1-0.8l-0.2-1.1c-0.1-0.3,0-0.6,0.2-0.8s0.5-0.4,0.8-0.4h11.5c0.3,0,0.6,0.1,0.8,0.4
				c0.2,0.2,0.3,0.5,0.2,0.8L96,30.3c-0.1,0.5-0.5,0.8-1,0.8C95,31.1,84,31.1,84,31.1z"/>
			<path class="st1" d="M95.3,29L95.3,29 M95.3,29l-0.2,1.1H84L83.8,29H95.3 M95.3,27L95.3,27H83.8c-0.6,0-1.2,0.3-1.5,0.7
				c-0.4,0.5-0.5,1.1-0.4,1.7l0.2,1.1c0.2,0.9,1,1.6,2,1.6h11c1,0,1.8-0.7,2-1.6l0.2-1c0-0.2,0.1-0.3,0.1-0.5
				C97.3,27.9,96.4,27,95.3,27L95.3,27z M95.3,31L95.3,31L95.3,31L95.3,31z"/>
		</g>
	</g>
	<g>
		<g>
			<path class="st1" d="M121.7,27.1c-0.2,0-0.3,0-0.5-0.1l-12-6.5c-0.2-0.1-0.4-0.3-0.5-0.6c-0.1-0.3,0-0.5,0.1-0.8l6.9-12.8
				c0.6-1.2,1.8-1.9,3.1-1.9c0.6,0,1.2,0.2,1.7,0.4l7.5,4.1c0.8,0.4,1.5,1.2,1.7,2.1c0.3,0.9,0.2,1.9-0.3,2.7l-6.9,12.7
				C122.4,26.9,122.1,27.1,121.7,27.1z"/>
			<path class="st1" d="M118.9,5.4c0.4,0,0.8,0.1,1.2,0.3l7.5,4.1c1.3,0.7,1.7,2.2,1,3.5l-6.9,12.8l-12-6.5l6.9-12.8
				C117.1,5.9,118,5.4,118.9,5.4 M118.9,3.4c-1.7,0-3.2,0.9-4,2.4L108,18.6c-0.3,0.5-0.3,1-0.2,1.5c0.2,0.5,0.5,0.9,1,1.2l12,6.5
				c0.3,0.2,0.6,0.2,1,0.2c0.7,0,1.4-0.4,1.8-1l6.9-12.8c0.6-1,0.7-2.3,0.4-3.5s-1.1-2.2-2.2-2.7l-7.6-4
				C120.4,3.6,119.7,3.4,118.9,3.4L118.9,3.4z"/>
		</g>
		<g>
			<g>
				<path class="st1" d="M119.3,15.3c-0.2,0-0.3,0-0.5-0.1l-3.6-2c-0.2-0.1-0.4-0.3-0.5-0.6s0-0.5,0.1-0.8l2.5-4.7
					c0.3-0.6,0.9-0.9,1.6-0.9c0.3,0,0.6,0.1,0.9,0.2l3,1.6c0.5,0.3,0.7,0.9,0.4,1.4l-2.9,5.3C120,15.1,119.7,15.3,119.3,15.3z"/>
				<path class="st1" d="M118.9,7.2c0.1,0,0.3,0,0.4,0.1l3,1.6l-2.9,5.3l-3.6-2l2.5-4.7C118.4,7.4,118.6,7.2,118.9,7.2 M118.9,5.2
					c-1,0-2,0.6-2.4,1.5l-2.5,4.7c-0.5,1-0.2,2.2,0.8,2.7l3.6,2c0.3,0.2,0.6,0.2,1,0.2c0.7,0,1.4-0.4,1.8-1l2.9-5.3
					c0.5-1,0.2-2.2-0.8-2.7l-3-1.6C119.8,5.3,119.4,5.2,118.9,5.2L118.9,5.2z"/>
			</g>
			<g>
				<path class="st1" d="M124.6,18.1c-0.2,0-0.3,0-0.5-0.1l-3.6-2c-0.5-0.3-0.7-0.9-0.4-1.4l2.9-5.3c0.1-0.2,0.3-0.4,0.6-0.5
					c0.1,0,0.2,0,0.3,0c0.2,0,0.3,0,0.5,0.1l3,1.6c0.9,0.5,1.2,1.6,0.7,2.4l-2.5,4.7C125.3,17.9,124.9,18.1,124.6,18.1z"/>
				<path class="st1" d="M123.8,9.8l3,1.6c0.4,0.2,0.5,0.7,0.3,1.1l-2.5,4.7l-3.6-2L123.8,9.8 M123.8,7.8c-0.7,0-1.4,0.4-1.8,1
					l-2.9,5.3c-0.3,0.5-0.3,1-0.2,1.5c0.2,0.5,0.5,0.9,1,1.2l3.6,2c0.3,0.2,0.6,0.2,1,0.2c0.7,0,1.4-0.4,1.8-1l2.5-4.7
					c0.4-0.7,0.4-1.4,0.2-2.1s-0.7-1.3-1.3-1.7l-3-1.6C124.5,7.8,124.1,7.8,123.8,7.8L123.8,7.8z"/>
			</g>
			<g>
				<path class="st1" d="M115.8,21.8c-0.2,0-0.3,0-0.5-0.1l-3.7-2c-0.2-0.1-0.4-0.3-0.5-0.6s0-0.5,0.1-0.8l2.7-5
					c0.1-0.2,0.3-0.4,0.6-0.5c0.1,0,0.2,0,0.3,0c0.2,0,0.3,0,0.5,0.1l3.7,2c0.5,0.3,0.7,0.9,0.4,1.4l-2.7,5
					C116.5,21.6,116.1,21.8,115.8,21.8z"/>
				<path class="st1" d="M114.8,13.8l3.7,2l-2.7,5l-3.7-2L114.8,13.8 M114.8,11.8c-0.2,0-0.4,0-0.6,0.1c-0.5,0.2-0.9,0.5-1.2,1
					l-2.7,5c-0.5,1-0.2,2.2,0.8,2.7l3.7,2c0.3,0.2,0.6,0.2,1,0.2c0.2,0,0.4,0,0.6-0.1c0.5-0.2,0.9-0.5,1.2-1l2.7-5
					c0.5-1,0.2-2.2-0.8-2.7l-3.7-2C115.5,11.9,115.2,11.8,114.8,11.8L114.8,11.8z"/>
			</g>
			<g>
				<path class="st1" d="M121,24.6c-0.2,0-0.3,0-0.5-0.1l-3.7-2c-0.5-0.3-0.7-0.9-0.4-1.4l2.7-5c0.2-0.3,0.5-0.5,0.9-0.5
					c0.2,0,0.3,0,0.5,0.1l3.7,2c0.2,0.1,0.4,0.3,0.5,0.6s0,0.5-0.1,0.8l-2.7,5c-0.1,0.2-0.3,0.4-0.6,0.5
					C121.2,24.6,121.1,24.6,121,24.6z"/>
				<path class="st1" d="M120.1,16.7l3.7,2l-2.7,5l-3.7-2L120.1,16.7 M120.1,14.7c-0.2,0-0.4,0-0.6,0.1c-0.5,0.2-0.9,0.5-1.2,1
					l-2.7,5c-0.5,1-0.2,2.2,0.8,2.7l3.7,2c0.3,0.2,0.6,0.2,1,0.2c0.2,0,0.4,0,0.6-0.1c0.5-0.2,0.9-0.5,1.2-1l2.7-5
					c0.5-1,0.2-2.2-0.8-2.7l-3.7-2C120.7,14.8,120.4,14.7,120.1,14.7L120.1,14.7z"/>
			</g>
		</g>
		<g>
			<path class="st1" d="M114.5,37.6c-0.6,0-1.2-0.2-1.7-0.4l-7.5-4.1c-0.8-0.5-1.5-1.2-1.7-2.1c-0.3-0.9-0.2-1.9,0.3-2.7l4.3-8
				c0.1-0.2,0.3-0.4,0.6-0.5c0.1,0,0.2,0,0.3,0c0.2,0,0.3,0,0.5,0.1l12,6.5c0.5,0.3,0.7,0.9,0.4,1.4l-4.3,8
				C117,36.9,115.8,37.6,114.5,37.6z"/>
			<path class="st1" d="M109.1,20.7l12,6.5l-4.3,8c-0.5,0.9-1.4,1.4-2.3,1.4c-0.4,0-0.8-0.1-1.2-0.3l-7.5-4.1
				c-1.3-0.7-1.7-2.2-1-3.5L109.1,20.7 M109.1,18.7c-0.7,0-1.4,0.4-1.8,1l-4.3,8c-1.2,2.2-0.4,5,1.8,6.2l7.5,4.1
				c0.7,0.4,1.4,0.6,2.2,0.6c1.7,0,3.2-0.9,4-2.4l4.3-8c0.3-0.5,0.3-1,0.2-1.5c-0.2-0.5-0.5-0.9-1-1.2L110,19
				C109.7,18.8,109.4,18.7,109.1,18.7L109.1,18.7z"/>
		</g>
		<g>
			<path class="st1" d="M120.1,29.8c-0.8,0-1.5-0.4-1.9-1c0-0.1-0.1-0.1-0.2-0.1h-1.4c-0.8,0-1.4-0.4-1.9-1l-0.8-1.2
				c0-0.1-0.1-0.1-0.2-0.1h-1.4c-0.8,0-1.5-0.4-1.9-1l-0.8-1.2c0-0.1-0.1-0.1-0.2-0.1c-0.8,0-1.5-0.4-1.9-1.1s-0.4-1.5,0-2.2L109,18
				c0.4-0.7,1.2-1.2,2-1.2c0.4,0,0.7,0.1,1.1,0.3l10.8,5.9c0.5,0.3,0.9,0.8,1.1,1.4s0.1,1.2-0.2,1.7l-1.5,2.8
				C121.7,29.3,121,29.8,120.1,29.8L120.1,29.8z"/>
			<path class="st1" d="M110.9,17.6c0.2,0,0.4,0,0.6,0.2l10.8,5.9c0.6,0.3,0.8,1.1,0.5,1.7l-1.5,2.8c-0.2,0.4-0.7,0.7-1.1,0.7
				s-0.8-0.2-1.1-0.6c-0.2-0.4-0.6-0.6-1.1-0.6h-1.4l0,0c-0.4,0-0.8-0.2-1-0.6l-0.8-1.2c-0.2-0.4-0.6-0.6-1.1-0.6h-1.4l0,0
				c-0.4,0-0.8-0.2-1-0.6l-0.8-1.2c-0.2-0.4-0.6-0.6-1.1-0.6c-1,0-1.6-1-1.1-1.9l1.5-2.8C110,17.8,110.4,17.6,110.9,17.6
				 M110.9,15.6c-1.2,0-2.3,0.7-2.9,1.7l-1.5,2.8c-0.6,1-0.5,2.2,0.1,3.2c0.5,0.9,1.4,1.4,2.4,1.6l0.6,0.9c0.6,0.9,1.6,1.5,2.7,1.5
				h1.1l0.6,0.9c0.6,0.9,1.6,1.5,2.7,1.5h1.1c0.6,0.7,1.5,1.2,2.5,1.2c1.2,0,2.3-0.7,2.9-1.7l1.5-2.8c0.4-0.7,0.5-1.6,0.3-2.4
				s-0.8-1.6-1.6-2l-11-6C112,15.7,111.4,15.6,110.9,15.6L110.9,15.6z"/>
		</g>
	</g>
	<g>
		<g>
			<path class="st1" d="M144.5,27.1c-0.2,0-0.3,0-0.5-0.1l-12-6.5c-0.5-0.3-0.7-0.9-0.4-1.4l6.9-12.8c0.6-1.2,1.8-1.9,3.1-1.9
				c0.6,0,1.2,0.2,1.7,0.4l7.5,4.1c0.8,0.4,1.5,1.2,1.7,2.1s0.2,1.9-0.3,2.7l-6.9,12.7C145.2,26.9,144.8,27.1,144.5,27.1z"/>
			<path class="st1" d="M141.7,5.4c0.4,0,0.8,0.1,1.2,0.3l7.5,4.1c1.3,0.7,1.7,2.2,1,3.5l-6.9,12.8l-12-6.5l6.9-12.8
				C139.9,5.9,140.8,5.4,141.7,5.4 M141.7,3.4c-1.7,0-3.2,0.9-4,2.4l-6.9,12.8c-0.3,0.5-0.3,1-0.2,1.5c0.2,0.5,0.5,0.9,1,1.2l12,6.5
				c0.3,0.2,0.6,0.2,1,0.2c0.7,0,1.4-0.4,1.8-1l6.9-12.8c0.6-1,0.7-2.3,0.4-3.5s-1.1-2.2-2.2-2.7l-7.6-4
				C143.2,3.6,142.4,3.4,141.7,3.4L141.7,3.4z"/>
		</g>
		<g>
			<g>
				<path class="st1" d="M142.1,15.3c-0.2,0-0.3,0-0.5-0.1l-3.6-2c-0.2-0.1-0.4-0.3-0.5-0.6s0-0.5,0.1-0.8l2.5-4.7
					c0.3-0.6,0.9-0.9,1.6-0.9c0.3,0,0.6,0.1,0.9,0.2l3,1.6c0.5,0.3,0.7,0.9,0.4,1.4l-2.9,5.3C142.8,15.1,142.5,15.3,142.1,15.3z"/>
				<path class="st1" d="M141.7,7.2c0.1,0,0.3,0,0.4,0.1l3,1.6l-2.9,5.3l-3.6-2l2.5-4.7C141.1,7.4,141.4,7.2,141.7,7.2 M141.7,5.2
					c-1,0-2,0.6-2.4,1.5l-2.5,4.7c-0.3,0.5-0.3,1-0.2,1.5c0.2,0.5,0.5,0.9,1,1.2l3.6,2c0.3,0.2,0.6,0.2,1,0.2c0.7,0,1.4-0.4,1.8-1
					l2.9-5.3c0.3-0.5,0.3-1,0.2-1.5c-0.2-0.5-0.5-0.9-1-1.2l-3-1.6C142.6,5.3,142.2,5.2,141.7,5.2L141.7,5.2z"/>
			</g>
			<g>
				<path class="st1" d="M147.3,18.1c-0.2,0-0.3,0-0.5-0.1l-3.6-2c-0.5-0.3-0.7-0.9-0.4-1.4l2.9-5.3c0.2-0.3,0.5-0.5,0.9-0.5
					c0.2,0,0.3,0,0.5,0.1l3,1.6c0.4,0.2,0.7,0.6,0.9,1.1c0.1,0.5,0.1,0.9-0.1,1.4l-2.5,4.7C148,17.9,147.7,18.1,147.3,18.1z"/>
				<path class="st1" d="M146.6,9.8l3,1.6c0.4,0.2,0.5,0.7,0.3,1.1l-2.5,4.7l-3.6-2L146.6,9.8 M146.6,7.8c-0.7,0-1.4,0.4-1.8,1
					l-2.9,5.3c-0.3,0.5-0.3,1-0.2,1.5c0.2,0.5,0.5,0.9,1,1.2l3.6,2c0.3,0.2,0.6,0.2,1,0.2c0.7,0,1.4-0.4,1.8-1l2.5-4.7
					c0.4-0.7,0.4-1.4,0.2-2.1s-0.7-1.3-1.3-1.7l-3-1.6C147.3,7.8,146.9,7.8,146.6,7.8L146.6,7.8z"/>
			</g>
			<g>
				<path class="st1" d="M138.6,21.8c-0.2,0-0.3,0-0.5-0.1l-3.7-2c-0.2-0.1-0.4-0.3-0.5-0.6s0-0.5,0.1-0.8l2.7-5
					c0.1-0.2,0.3-0.4,0.6-0.5c0.1,0,0.2,0,0.3,0c0.2,0,0.3,0,0.5,0.1l3.7,2c0.5,0.3,0.7,0.9,0.4,1.4l-2.7,5
					C139.3,21.6,138.9,21.8,138.6,21.8z"/>
				<path class="st1" d="M137.6,13.8l3.7,2l-2.7,5l-3.7-2L137.6,13.8 M137.6,11.8c-0.2,0-0.4,0-0.6,0.1c-0.5,0.2-0.9,0.5-1.2,1
					l-2.7,5c-0.5,1-0.2,2.2,0.8,2.7l3.7,2c0.3,0.2,0.6,0.2,1,0.2c0.2,0,0.4,0,0.6-0.1c0.5-0.2,0.9-0.5,1.2-1l2.7-5
					c0.3-0.5,0.3-1,0.2-1.5c-0.2-0.5-0.5-0.9-1-1.2l-3.7-2C138.3,11.9,137.9,11.8,137.6,11.8L137.6,11.8z"/>
			</g>
			<g>
				<path class="st1" d="M143.8,24.6c-0.2,0-0.3,0-0.5-0.1l-3.7-2c-0.5-0.3-0.7-0.9-0.4-1.4l2.7-5c0.2-0.3,0.5-0.5,0.9-0.5
					c0.2,0,0.3,0,0.5,0.1l3.7,2c0.2,0.1,0.4,0.3,0.5,0.6s0,0.5-0.1,0.8l-2.7,5c-0.1,0.2-0.3,0.4-0.6,0.5
					C144,24.6,143.9,24.6,143.8,24.6z"/>
				<path class="st1" d="M142.8,16.7l3.7,2l-2.7,5l-3.7-2L142.8,16.7 M142.8,14.7c-0.2,0-0.4,0-0.6,0.1c-0.5,0.2-0.9,0.5-1.2,1
					l-2.7,5c-0.5,1-0.2,2.2,0.8,2.7l3.7,2c0.3,0.2,0.6,0.2,1,0.2c0.2,0,0.4,0,0.6-0.1c0.5-0.2,0.9-0.5,1.2-1l2.7-5
					c0.3-0.5,0.3-1,0.2-1.5c-0.2-0.5-0.5-0.9-1-1.2l-3.7-2C143.5,14.8,143.2,14.7,142.8,14.7L142.8,14.7z"/>
			</g>
		</g>
		<g>
			<path class="st1" d="M137.3,37.6c-0.6,0-1.2-0.2-1.7-0.4l-7.5-4.1c-0.8-0.5-1.5-1.2-1.7-2.1c-0.3-0.9-0.2-1.9,0.3-2.7l4.3-8
				c0.1-0.2,0.3-0.4,0.6-0.5c0.1,0,0.2,0,0.3,0c0.2,0,0.3,0,0.5,0.1l12,6.5c0.5,0.3,0.7,0.9,0.4,1.4l-4.3,8
				C139.8,36.9,138.6,37.6,137.3,37.6z"/>
			<path class="st1" d="M131.9,20.7l12,6.5l-4.3,8c-0.5,0.9-1.4,1.4-2.3,1.4c-0.4,0-0.8-0.1-1.2-0.3l-7.5-4.1
				c-1.3-0.7-1.7-2.2-1-3.5L131.9,20.7 M131.9,18.7c-0.7,0-1.4,0.4-1.8,1l-4.3,8c-1.2,2.2-0.4,5,1.8,6.2l7.5,4.1
				c0.7,0.4,1.4,0.6,2.2,0.6c1.7,0,3.2-0.9,4-2.4l4.3-8c0.3-0.5,0.3-1,0.2-1.5c-0.2-0.5-0.5-0.9-1-1.2l-12-6.5
				C132.5,18.8,132.2,18.7,131.9,18.7L131.9,18.7z"/>
		</g>
		<g>
			<path class="st1" d="M142.9,29.8c-0.8,0-1.5-0.4-1.9-1c0-0.1-0.1-0.1-0.2-0.1h-1.4c-0.8,0-1.5-0.4-1.9-1l-0.8-1.2
				c0-0.1-0.1-0.1-0.2-0.1h-1.4c-0.8,0-1.5-0.4-1.9-1l-0.8-1.2c0-0.1-0.1-0.1-0.2-0.1c-0.8,0-1.5-0.4-1.9-1.1s-0.4-1.5,0-2.2
				l1.5-2.8c0.4-0.7,1.2-1.2,2-1.2c0.4,0,0.7,0.1,1.1,0.3l10.8,5.9c0.5,0.3,0.9,0.8,1.1,1.4c0.2,0.6,0.1,1.2-0.2,1.7l-1.5,2.8
				C144.5,29.3,143.7,29.8,142.9,29.8L142.9,29.8z"/>
			<path class="st1" d="M133.7,17.6c0.2,0,0.4,0,0.6,0.2l10.8,5.9c0.6,0.3,0.8,1.1,0.5,1.7l-1.5,2.8c-0.2,0.4-0.7,0.7-1.1,0.7
				c-0.4,0-0.8-0.2-1.1-0.6c-0.2-0.4-0.6-0.6-1.1-0.6h-1.4l0,0c-0.4,0-0.8-0.2-1-0.6l-0.8-1.2c-0.2-0.4-0.6-0.6-1.1-0.6h-1.4l0,0
				c-0.4,0-0.8-0.2-1-0.6l-0.8-1.2c-0.2-0.4-0.6-0.6-1.1-0.6c-1,0-1.6-1-1.1-1.9l1.5-2.8C132.8,17.8,133.2,17.6,133.7,17.6
				 M133.7,15.6c-1.2,0-2.3,0.7-2.9,1.7l-1.5,2.8c-0.6,1-0.5,2.2,0.1,3.2c0.5,0.9,1.4,1.4,2.4,1.6l0.6,0.9c0.6,0.9,1.6,1.5,2.7,1.5
				h1.1l0.6,0.9c0.6,0.9,1.6,1.5,2.7,1.5h1.1c0.6,0.7,1.5,1.2,2.5,1.2c1.2,0,2.3-0.7,2.9-1.7l1.5-2.8c0.4-0.7,0.5-1.6,0.3-2.4
				s-0.8-1.6-1.6-2l-11-6C134.7,15.7,134.2,15.6,133.7,15.6L133.7,15.6z"/>
		</g>
	</g>
	<g>
		<g>
			<path class="st1" d="M167.3,27.1c-0.2,0-0.3,0-0.5-0.1l-12-6.5c-0.5-0.3-0.7-0.9-0.4-1.4l6.9-12.8c0.6-1.2,1.8-1.9,3.1-1.9
				c0.6,0,1.2,0.2,1.7,0.4l7.5,4.1c0.8,0.4,1.5,1.2,1.7,2.1c0.3,0.9,0.2,1.9-0.3,2.7l-6.9,12.7c-0.1,0.2-0.3,0.4-0.6,0.5
				C167.5,27,167.4,27.1,167.3,27.1z"/>
			<path class="st1" d="M164.5,5.4c0.4,0,0.8,0.1,1.2,0.3l7.5,4.1c1.3,0.7,1.7,2.2,1,3.5l-6.9,12.8l-12-6.5l6.9-12.8
				C162.7,5.9,163.5,5.4,164.5,5.4 M164.5,3.4c-1.7,0-3.2,0.9-4,2.4l-6.9,12.8c-0.3,0.5-0.3,1-0.2,1.5c0.2,0.5,0.5,0.9,1,1.2l12,6.5
				c0.3,0.2,0.6,0.2,1,0.2c0.7,0,1.4-0.4,1.8-1l6.9-12.8c0.6-1,0.7-2.3,0.4-3.5s-1.1-2.2-2.2-2.7l-7.7-4
				C166,3.6,165.2,3.4,164.5,3.4L164.5,3.4z"/>
		</g>
		<g>
			<g>
				<path class="st1" d="M164.9,15.3c-0.2,0-0.3,0-0.5-0.1l-3.6-2c-0.2-0.1-0.4-0.3-0.5-0.6s0-0.5,0.1-0.8l2.5-4.7
					c0.3-0.6,0.9-0.9,1.6-0.9c0.3,0,0.6,0.1,0.9,0.2l3,1.6c0.5,0.3,0.7,0.9,0.4,1.4l-2.9,5.3C165.6,15.1,165.2,15.3,164.9,15.3z"/>
				<path class="st1" d="M164.5,7.2c0.1,0,0.3,0,0.4,0.1l3,1.6l-2.9,5.3l-3.6-2l2.5-4.7C163.9,7.4,164.2,7.2,164.5,7.2 M164.5,5.2
					c-1,0-2,0.6-2.4,1.5l-2.5,4.7c-0.5,1-0.2,2.2,0.8,2.7l3.6,2c0.3,0.2,0.6,0.2,1,0.2c0.2,0,0.4,0,0.6-0.1c0.5-0.2,0.9-0.5,1.2-1
					l2.9-5.3c0.5-1,0.2-2.2-0.8-2.7l-3-1.6C165.4,5.3,164.9,5.2,164.5,5.2L164.5,5.2z"/>
			</g>
			<g>
				<path class="st1" d="M170.1,18.1c-0.2,0-0.3,0-0.5-0.1l-3.6-2c-0.5-0.3-0.7-0.9-0.4-1.4l2.9-5.3c0.1-0.2,0.3-0.4,0.6-0.5
					c0.1,0,0.2,0,0.3,0c0.2,0,0.3,0,0.5,0.1l3,1.6c0.9,0.5,1.2,1.6,0.7,2.4l-2.5,4.7C170.8,17.9,170.5,18.1,170.1,18.1z"/>
				<path class="st1" d="M169.4,9.8l3,1.6c0.4,0.2,0.5,0.7,0.3,1.1l-2.5,4.7l-3.6-2L169.4,9.8 M169.4,7.8c-0.2,0-0.4,0-0.6,0.1
					c-0.5,0.2-0.9,0.5-1.2,1l-2.9,5.3c-0.3,0.5-0.3,1-0.2,1.5c0.2,0.5,0.5,0.9,1,1.2l3.6,2c0.3,0.2,0.6,0.2,1,0.2
					c0.7,0,1.4-0.4,1.8-1l2.5-4.7c0.7-1.3,0.2-3-1.1-3.8l-3-1.6C170,7.8,169.7,7.8,169.4,7.8L169.4,7.8z"/>
			</g>
			<g>
				<path class="st1" d="M161.4,21.8c-0.2,0-0.3,0-0.5-0.1l-3.7-2c-0.5-0.3-0.7-0.9-0.4-1.4l2.7-5c0.1-0.2,0.3-0.4,0.6-0.5
					c0.1,0,0.2,0,0.3,0c0.2,0,0.3,0,0.5,0.1l3.7,2c0.5,0.3,0.7,0.9,0.4,1.4l-2.7,5c-0.1,0.2-0.3,0.4-0.6,0.5
					C161.5,21.8,161.4,21.8,161.4,21.8z"/>
				<path class="st1" d="M160.4,13.8l3.7,2l-2.7,5l-3.7-2L160.4,13.8 M160.4,11.8c-0.2,0-0.4,0-0.6,0.1c-0.5,0.2-0.9,0.5-1.2,1
					l-2.7,5c-0.3,0.5-0.3,1-0.2,1.5c0.2,0.5,0.5,0.9,1,1.2l3.7,2c0.3,0.2,0.6,0.2,1,0.2c0.2,0,0.4,0,0.6-0.1c0.5-0.2,0.9-0.5,1.2-1
					l2.7-5c0.5-1,0.2-2.2-0.8-2.7l-3.7-2C161.1,11.9,160.7,11.8,160.4,11.8L160.4,11.8z"/>
			</g>
			<g>
				<path class="st1" d="M166.6,24.6c-0.2,0-0.3,0-0.5-0.1l-3.7-2c-0.5-0.3-0.7-0.9-0.4-1.4l2.7-5c0.2-0.3,0.5-0.5,0.9-0.5
					c0.2,0,0.3,0,0.5,0.1l3.7,2c0.2,0.1,0.4,0.3,0.5,0.6c0.1,0.3,0,0.5-0.1,0.8l-2.7,5c-0.1,0.2-0.3,0.4-0.6,0.5
					C166.8,24.6,166.7,24.6,166.6,24.6z"/>
				<path class="st1" d="M165.6,16.7l3.7,2l-2.7,5l-3.7-2L165.6,16.7 M165.6,14.7c-0.2,0-0.4,0-0.6,0.1c-0.5,0.2-0.9,0.5-1.2,1
					l-2.7,5c-0.3,0.5-0.3,1-0.2,1.5c0.2,0.5,0.5,0.9,1,1.2l3.7,2c0.3,0.2,0.6,0.2,1,0.2c0.2,0,0.4,0,0.6-0.1c0.5-0.2,0.9-0.5,1.2-1
					l2.7-5c0.5-1,0.2-2.2-0.8-2.7l-3.7-2C166.3,14.8,165.9,14.7,165.6,14.7L165.6,14.7z"/>
			</g>
		</g>
		<g>
			<path class="st1" d="M160,37.6c-0.6,0-1.2-0.2-1.7-0.4l-7.5-4.1c-0.8-0.5-1.5-1.2-1.7-2.1c-0.3-0.9-0.2-1.9,0.3-2.7l4.3-8
				c0.1-0.2,0.3-0.4,0.6-0.5c0.1,0,0.2,0,0.3,0c0.2,0,0.3,0,0.5,0.1l12,6.5c0.5,0.3,0.7,0.9,0.4,1.4l-4.3,8
				C162.6,36.9,161.4,37.6,160,37.6z"/>
			<path class="st1" d="M154.6,20.7l12,6.5l-4.3,8c-0.5,0.9-1.4,1.4-2.3,1.4c-0.4,0-0.8-0.1-1.2-0.3l-7.5-4.1
				c-1.3-0.7-1.7-2.2-1-3.5L154.6,20.7 M154.6,18.7c-0.7,0-1.4,0.4-1.8,1l-4.3,8c-0.6,1.1-0.7,2.3-0.4,3.5s1.1,2.1,2.2,2.7l7.5,4.1
				c0.7,0.4,1.4,0.6,2.2,0.6c1.7,0,3.2-0.9,4-2.4l4.3-8c0.5-1,0.2-2.2-0.8-2.7l-12-6.5C155.3,18.8,155,18.7,154.6,18.7L154.6,18.7z"
				/>
		</g>
		<g>
			<path class="st1" d="M165.7,29.8c-0.8,0-1.5-0.4-1.9-1c0-0.1-0.1-0.1-0.2-0.1h-1.4c-0.8,0-1.5-0.4-1.9-1l-0.8-1.2
				c0-0.1-0.1-0.1-0.2-0.1h-1.4c-0.8,0-1.5-0.4-1.9-1l-0.8-1.2c0-0.1-0.1-0.1-0.2-0.1c-0.8,0-1.5-0.4-1.9-1.1s-0.4-1.5,0-2.2
				l1.5-2.8c0.4-0.7,1.2-1.2,2-1.2c0.4,0,0.7,0.1,1.1,0.3l10.8,5.9c0.5,0.3,0.9,0.8,1.1,1.4c0.2,0.6,0.1,1.2-0.2,1.7l-1.5,2.8
				C167.3,29.3,166.5,29.8,165.7,29.8L165.7,29.8z"/>
			<path class="st1" d="M156.4,17.6c0.2,0,0.4,0,0.6,0.2l10.8,5.9c0.6,0.3,0.8,1.1,0.5,1.7l-1.5,2.8c-0.2,0.4-0.7,0.7-1.1,0.7
				c-0.4,0-0.8-0.2-1.1-0.6c-0.2-0.4-0.6-0.6-1.1-0.6h-1.4l0,0c-0.4,0-0.8-0.2-1-0.6l-0.8-1.2c-0.2-0.4-0.6-0.6-1.1-0.6h-1.4l0,0
				c-0.4,0-0.8-0.2-1-0.6l-0.8-1.2c-0.2-0.4-0.6-0.6-1.1-0.6c-1,0-1.6-1-1.1-1.9l1.5-2.8C155.5,17.8,156,17.6,156.4,17.6
				 M156.4,15.6c-1.2,0-2.3,0.7-2.9,1.7l-1.5,2.8c-0.6,1-0.5,2.2,0.1,3.2c0.5,0.9,1.4,1.4,2.4,1.6l0.6,0.9c0.6,0.9,1.6,1.5,2.7,1.5
				h1.1l0.6,0.9c0.6,0.9,1.6,1.5,2.7,1.5h1.1c0.6,0.7,1.5,1.2,2.5,1.2c1.2,0,2.3-0.7,2.9-1.7l1.5-2.8c0.4-0.7,0.5-1.6,0.3-2.4
				s-0.8-1.6-1.6-2L158,16C157.5,15.7,157,15.6,156.4,15.6L156.4,15.6z"/>
		</g>
	</g>
</g>
<g>
	<g>
		<path class="st2" d="M29.1,14.7C29.1,14.7,29.1,14.8,29.1,14.7c-0.1,0.5-1.5,3.7-4,4.8c-3.1,1.4-4.3-0.9-4.3-0.9s-0.9-2.5,2.1-3.9
			C25.3,13.6,28.6,14.6,29.1,14.7z"/>
		<path class="st2" d="M25,19.5c2.5-1.2,3.9-4.3,4.1-4.8c0,0,0,0,0-0.1l-8.4,3.9C20.7,18.7,22,21,25,19.5z"/>
		<path class="st3" d="M19.3,18.7v-6.4c0-0.3-0.2-0.5-0.5-0.5s-0.5,0.2-0.5,0.5v6.4v1.1V24c0,0.3,0.2,0.5,0.5,0.5s0.5-0.2,0.5-0.5
			v-4.1c1.7-0.8,9.9-4.9,9.7-5.1C29,14.5,21.4,17.8,19.3,18.7z"/>
		<g>
			<path class="st4" d="M20.3,5.1c0,1.4-0.7,4-1.5,4s-1.5-2.6-1.5-4s0.7-1.8,1.5-1.8C19.7,3.4,20.3,3.8,20.3,5.1z"/>
			<path class="st4" d="M20.3,15.4c0-1.4-0.7-4-1.5-4s-1.5,2.6-1.5,4s0.7,1.8,1.5,1.8S20.3,16.8,20.3,15.4z"/>
		</g>
		<g>
			<path class="st5" d="M23.5,7.7c-1,1-3.3,2.3-3.9,1.7s0.7-2.9,1.7-3.9s1.7-0.8,2.3-0.2C24.3,6,24.5,6.8,23.5,7.7z"/>
			<path class="st5" d="M16.2,15c1-1,2.3-3.3,1.7-3.9c-0.6-0.6-2.9,0.7-3.9,1.7s-0.8,1.7-0.2,2.3C14.5,15.8,15.3,16,16.2,15z"/>
		</g>
		<g>
			<path class="st4" d="M24,11.8c-1.4,0-4-0.7-4-1.5s2.6-1.5,4-1.5s1.8,0.5,1.8,1.4C25.7,10.9,25.3,11.8,24,11.8z"/>
			<path class="st4" d="M13.7,11.8c1.4,0,4-0.7,4-1.5s-2.6-1.5-4-1.5s-1.8,0.7-1.8,1.5C11.9,11.1,12.3,11.8,13.7,11.8z"/>
		</g>
		<g>
			<path class="st5" d="M21.4,15c-1-1-2.3-3.3-1.7-3.9c0.6-0.6,2.9,0.7,3.9,1.7s0.8,1.7,0.2,2.3C23.1,15.8,22.3,16,21.4,15z"/>
			<path class="st5" d="M14.1,7.7c1,1,3.3,2.3,3.9,1.7s-0.7-2.9-1.7-3.9S14.6,4.7,14,5.3C13.3,6,13.1,6.8,14.1,7.7z"/>
		</g>
		<g>
			<circle class="st6" cx="18.8" cy="10.3" r="1.8"/>
			<path class="st6" d="M22.8,34.7h-8c-0.3,0-0.6-0.2-0.7-0.6L12,23.6h13.6l-2.1,10.5C23.4,34.5,23.2,34.7,22.8,34.7z"/>
		</g>
		<path class="st7" d="M26.7,25.5H11c-0.2,0-0.4-0.2-0.4-0.4v-1.9c0-0.2,0.2-0.4,0.4-0.4h15.7c0.2,0,0.4,0.2,0.4,0.4v1.9
			C27,25.3,26.9,25.5,26.7,25.5z"/>
		<polygon class="st7" points="24.3,30.1 24.5,29 13.1,29 13.3,30.1 		"/>
	</g>
	<g>
		<path class="st2" d="M52.7,14.7C52.7,14.7,52.7,14.8,52.7,14.7c-0.1,0.5-1.5,3.7-4,4.8c-3.1,1.4-4.3-0.9-4.3-0.9s-0.9-2.5,2.1-3.9
			C48.9,13.6,52.2,14.6,52.7,14.7z"/>
		<path class="st2" d="M48.6,19.5c2.5-1.2,3.9-4.3,4.1-4.8c0,0,0,0,0-0.1l-8.4,3.9C44.3,18.7,45.5,21,48.6,19.5z"/>
		<path class="st3" d="M42.9,18.7v-6.4c0-0.3-0.2-0.5-0.5-0.5s-0.5,0.2-0.5,0.5v6.4v1.1V24c0,0.3,0.2,0.5,0.5,0.5s0.5-0.2,0.5-0.5
			v-4.1c1.7-0.8,9.9-4.9,9.7-5.1C52.6,14.5,45,17.8,42.9,18.7z"/>
		<g>
			<path class="st4" d="M43.9,5.1c0,1.4-0.7,4-1.5,4s-1.5-2.6-1.5-4s0.7-1.8,1.5-1.8C43.2,3.4,43.9,3.8,43.9,5.1z"/>
			<path class="st4" d="M43.9,15.4c0-1.4-0.7-4-1.5-4s-1.5,2.6-1.5,4s0.7,1.8,1.5,1.8S43.9,16.8,43.9,15.4z"/>
		</g>
		<g>
			<path class="st5" d="M47.1,7.7c-1,1-3.3,2.3-3.9,1.7c-0.6-0.6,0.7-2.9,1.7-3.9s1.7-0.8,2.3-0.2C47.9,6,48.1,6.8,47.1,7.7z"/>
			<path class="st5" d="M39.8,15c1-1,2.3-3.3,1.7-3.9c-0.6-0.6-2.9,0.7-3.9,1.7s-0.8,1.7-0.2,2.3C38.1,15.8,38.8,16,39.8,15z"/>
		</g>
		<g>
			<path class="st4" d="M47.5,11.8c-1.4,0-4-0.7-4-1.5s2.6-1.5,4-1.5s1.8,0.5,1.8,1.4C49.3,10.9,48.9,11.8,47.5,11.8z"/>
			<path class="st4" d="M37.2,11.8c1.4,0,4-0.7,4-1.5s-2.6-1.5-4-1.5s-1.8,0.7-1.8,1.5C35.5,11.1,35.9,11.8,37.2,11.8z"/>
		</g>
		<g>
			<path class="st5" d="M44.9,15c-1-1-2.3-3.3-1.7-3.9c0.6-0.6,2.9,0.7,3.9,1.7s0.8,1.7,0.2,2.3C46.7,15.8,45.9,16,44.9,15z"/>
			<path class="st5" d="M37.7,7.7c1,1,3.3,2.3,3.9,1.7c0.6-0.6-0.7-2.9-1.7-3.9s-1.7-0.8-2.3-0.2S36.7,6.8,37.7,7.7z"/>
		</g>
		<g>
			<circle class="st6" cx="42.4" cy="10.3" r="1.8"/>
			<path class="st6" d="M46.4,34.7h-8c-0.3,0-0.6-0.2-0.7-0.6l-2.1-10.5h13.6l-2.1,10.5C47,34.5,46.7,34.7,46.4,34.7z"/>
		</g>
		<path class="st7" d="M50.2,25.5H34.5c-0.2,0-0.4-0.2-0.4-0.4v-1.9c0-0.2,0.2-0.4,0.4-0.4h15.7c0.2,0,0.4,0.2,0.4,0.4v1.9
			C50.6,25.3,50.4,25.5,50.2,25.5z"/>
		<polygon class="st7" points="47.9,30.1 48.1,29 36.7,29 36.9,30.1 		"/>
	</g>
	<g>
		<path class="st2" d="M76.2,14.7C76.3,14.7,76.3,14.8,76.2,14.7c-0.1,0.5-1.5,3.7-4,4.8c-3.1,1.4-4.3-0.9-4.3-0.9S67,16.1,70,14.7
			C72.4,13.6,75.8,14.6,76.2,14.7z"/>
		<path class="st2" d="M72.2,19.5c2.5-1.2,3.9-4.3,4.1-4.8c0,0,0,0,0-0.1l-8.4,3.9C67.9,18.7,69.1,21,72.2,19.5z"/>
		<path class="st3" d="M66.5,18.7v-6.4c0-0.3-0.2-0.5-0.5-0.5s-0.5,0.2-0.5,0.5v6.4v1.1V24c0,0.3,0.2,0.5,0.5,0.5s0.5-0.2,0.5-0.5
			v-4.1c1.7-0.8,9.9-4.9,9.7-5.1C76.1,14.5,68.6,17.8,66.5,18.7z"/>
		<g>
			<path class="st4" d="M67.5,5.1c0,1.4-0.7,4-1.5,4s-1.5-2.6-1.5-4s0.7-1.8,1.5-1.8C66.8,3.4,67.5,3.8,67.5,5.1z"/>
			<path class="st4" d="M67.5,15.4c0-1.4-0.7-4-1.5-4s-1.5,2.6-1.5,4s0.7,1.8,1.5,1.8C66.8,17.2,67.5,16.8,67.5,15.4z"/>
		</g>
		<g>
			<path class="st5" d="M70.7,7.7c-1,1-3.3,2.3-3.9,1.7s0.7-2.9,1.7-3.9s1.7-0.8,2.3-0.2C71.5,6,71.7,6.8,70.7,7.7z"/>
			<path class="st5" d="M63.4,15c1-1,2.3-3.3,1.7-3.9c-0.6-0.6-2.9,0.7-3.9,1.7s-0.8,1.7-0.2,2.3C61.7,15.8,62.4,16,63.4,15z"/>
		</g>
		<g>
			<path class="st4" d="M71.1,11.8c-1.4,0-4-0.7-4-1.5s2.6-1.5,4-1.5s1.8,0.5,1.8,1.4C72.9,10.9,72.5,11.8,71.1,11.8z"/>
			<path class="st4" d="M60.8,11.8c1.4,0,4-0.7,4-1.5s-2.6-1.5-4-1.5S59,9.4,59,10.3C59,11.1,59.4,11.8,60.8,11.8z"/>
		</g>
		<g>
			<path class="st5" d="M68.5,15c-1-1-2.3-3.3-1.7-3.9c0.6-0.6,2.9,0.7,3.9,1.7s0.8,1.7,0.2,2.3C70.3,15.8,69.5,16,68.5,15z"/>
			<path class="st5" d="M61.3,7.7c1,1,3.3,2.3,3.9,1.7s-0.7-2.9-1.7-3.9s-1.7-0.8-2.3-0.2C60.5,6,60.3,6.8,61.3,7.7z"/>
		</g>
		<g>
			<circle class="st6" cx="66" cy="10.3" r="1.8"/>
			<path class="st6" d="M70,34.7h-8c-0.3,0-0.6-0.2-0.7-0.6l-2.1-10.5h13.6l-2.1,10.5C70.6,34.5,70.3,34.7,70,34.7z"/>
		</g>
		<path class="st7" d="M73.8,25.5H58.1c-0.2,0-0.4-0.2-0.4-0.4v-1.9c0-0.2,0.2-0.4,0.4-0.4h15.7c0.2,0,0.4,0.2,0.4,0.4v1.9
			C74.2,25.3,74,25.5,73.8,25.5z"/>
		<polygon class="st7" points="71.5,30.1 71.7,29 60.2,29 60.5,30.1 		"/>
	</g>
	<g>
		<path class="st2" d="M99.8,14.7C99.8,14.7,99.8,14.8,99.8,14.7c-0.1,0.5-1.5,3.7-4,4.8c-3.1,1.4-4.3-0.9-4.3-0.9s-0.9-2.5,2.1-3.9
			C96,13.6,99.4,14.6,99.8,14.7z"/>
		<path class="st2" d="M95.8,19.5c2.5-1.2,3.9-4.3,4.1-4.8c0,0,0,0,0-0.1l-8.4,3.9C91.4,18.7,92.7,21,95.8,19.5z"/>
		<path class="st3" d="M90.1,18.7v-6.4c0-0.3-0.2-0.5-0.5-0.5s-0.5,0.2-0.5,0.5v6.4v1.1V24c0,0.3,0.2,0.5,0.5,0.5s0.5-0.2,0.5-0.5
			v-4.1c1.7-0.8,9.9-4.9,9.7-5.1C99.7,14.5,92.2,17.8,90.1,18.7z"/>
		<g>
			<path class="st4" d="M91.1,5.1c0,1.4-0.7,4-1.5,4s-1.5-2.6-1.5-4s0.7-1.8,1.5-1.8C90.4,3.4,91.1,3.8,91.1,5.1z"/>
			<path class="st4" d="M91.1,15.4c0-1.4-0.7-4-1.5-4s-1.5,2.6-1.5,4s0.7,1.8,1.5,1.8S91.1,16.8,91.1,15.4z"/>
		</g>
		<g>
			<path class="st5" d="M94.3,7.7c-1,1-3.3,2.3-3.9,1.7s0.7-2.9,1.7-3.9s1.7-0.8,2.3-0.2C95,6,95.2,6.8,94.3,7.7z"/>
			<path class="st5" d="M87,15c1-1,2.3-3.3,1.7-3.9c-0.6-0.6-2.9,0.7-3.9,1.7s-0.8,1.7-0.2,2.3C85.3,15.8,86,16,87,15z"/>
		</g>
		<g>
			<path class="st4" d="M94.7,11.8c-1.4,0-4-0.7-4-1.5s2.6-1.5,4-1.5s1.8,0.5,1.8,1.4C96.5,10.9,96.1,11.8,94.7,11.8z"/>
			<path class="st4" d="M84.4,11.8c1.4,0,4-0.7,4-1.5s-2.6-1.5-4-1.5s-1.8,0.7-1.8,1.5S83,11.8,84.4,11.8z"/>
		</g>
		<g>
			<path class="st5" d="M92.1,15c-1-1-2.3-3.3-1.7-3.9c0.6-0.6,2.9,0.7,3.9,1.7s0.8,1.7,0.2,2.3C93.8,15.8,93.1,16,92.1,15z"/>
			<path class="st5" d="M84.8,7.7c1,1,3.3,2.3,3.9,1.7C89.3,8.8,88,6.5,87,5.6s-1.7-0.8-2.3-0.2S83.9,6.8,84.8,7.7z"/>
		</g>
		<g>
			<circle class="st6" cx="89.5" cy="10.3" r="1.8"/>
			<path class="st6" d="M93.5,34.7h-8c-0.3,0-0.6-0.2-0.7-0.6l-2.1-10.5h13.6l-2.1,10.5C94.2,34.5,93.9,34.7,93.5,34.7z"/>
		</g>
		<path class="st7" d="M97.4,25.5H81.7c-0.2,0-0.4-0.2-0.4-0.4v-1.9c0-0.2,0.2-0.4,0.4-0.4h15.7c0.2,0,0.4,0.2,0.4,0.4v1.9
			C97.8,25.3,97.6,25.5,97.4,25.5z"/>
		<polygon class="st7" points="95.1,30.1 95.3,29 83.8,29 84,30.1 		"/>
	</g>
	<g>
		<path class="st8" d="M127.6,9.8l-7.5-4.1c-1.3-0.7-2.8-0.2-3.5,1l-6.9,12.8l12,6.5l6.9-12.8C129.3,12.1,128.9,10.5,127.6,9.8z"/>
		<g>
			<path class="st9" d="M119.3,14.3l2.9-5.3l-3-1.6c-0.4-0.2-0.9-0.1-1.1,0.3l-2.5,4.7L119.3,14.3z"/>
			<path class="st9" d="M120.9,15.1l3.6,2l2.5-4.7c0.2-0.4,0.1-0.9-0.3-1.1l-3-1.6L120.9,15.1z"/>
			
				<rect x="112.5" y="15.2" transform="matrix(0.4777 -0.8785 0.8785 0.4777 44.9987 110.3385)" class="st9" width="5.6" height="4.2"/>
			
				<rect x="117.8" y="18.1" transform="matrix(0.4777 -0.8785 0.8785 0.4777 45.2134 116.4752)" class="st9" width="5.6" height="4.2"/>
		</g>
		<path class="st10" d="M109.1,20.7l-4.3,8c-0.7,1.3-0.2,2.8,1,3.5l7.5,4.1c1.3,0.7,2.8,0.2,3.5-1l4.3-8L109.1,20.7z"/>
		<path class="st11" d="M122.3,23.6l-10.8-5.9c-0.6-0.3-1.4-0.1-1.7,0.5l-1.5,2.8c-0.5,0.9,0.1,1.9,1.1,1.9c0.4,0,0.8,0.2,1.1,0.6
			l0.8,1.2c0.2,0.4,0.6,0.6,1.1,0.6h1.4c0.4,0,0.8,0.2,1.1,0.6l0.8,1.2c0.2,0.4,0.6,0.6,1.1,0.6h1.4c0.4,0,0.8,0.2,1.1,0.6
			c0.5,0.8,1.7,0.8,2.2-0.1l1.5-2.8C123.1,24.7,122.9,23.9,122.3,23.6z"/>
	</g>
	<g>
		<path class="st8" d="M150.4,9.8l-7.5-4.1c-1.3-0.7-2.8-0.2-3.5,1l-6.9,12.8l12,6.5l6.9-12.8C152.1,12.1,151.7,10.5,150.4,9.8z"/>
		<g>
			<path class="st9" d="M142.1,14.3L145,9l-3-1.6c-0.4-0.2-0.9-0.1-1.1,0.3l-2.5,4.7L142.1,14.3z"/>
			<path class="st9" d="M143.7,15.1l3.6,2l2.5-4.7c0.2-0.4,0.1-0.9-0.3-1.1l-3-1.6L143.7,15.1z"/>
			
				<rect x="135.3" y="15.2" transform="matrix(0.4777 -0.8785 0.8785 0.4777 56.9169 130.3503)" class="st9" width="5.6" height="4.2"/>
			
				<rect x="140.6" y="18.1" transform="matrix(0.4777 -0.8785 0.8785 0.4777 57.1316 136.487)" class="st9" width="5.6" height="4.2"/>
		</g>
		<path class="st10" d="M131.9,20.7l-4.3,8c-0.7,1.3-0.2,2.8,1,3.5l7.5,4.1c1.3,0.7,2.8,0.2,3.5-1l4.3-8L131.9,20.7z"/>
		<path class="st11" d="M145.1,23.6l-10.8-5.9c-0.6-0.3-1.4-0.1-1.7,0.5L131,21c-0.5,0.9,0.1,1.9,1.1,1.9c0.4,0,0.8,0.2,1.1,0.6
			l0.8,1.2c0.2,0.4,0.6,0.6,1.1,0.6h1.4c0.4,0,0.8,0.2,1.1,0.6l0.8,1.2c0.2,0.4,0.6,0.6,1.1,0.6h1.4c0.4,0,0.8,0.2,1.1,0.6
			c0.5,0.8,1.7,0.8,2.2-0.1l1.5-2.8C145.9,24.7,145.7,23.9,145.1,23.6z"/>
	</g>
	<g>
		<path class="st8" d="M173.2,9.8l-7.5-4.1c-1.3-0.7-2.8-0.2-3.5,1l-6.9,12.8l12,6.5l6.9-12.8C174.9,12.1,174.4,10.5,173.2,9.8z"/>
		<g>
			<path class="st9" d="M164.9,14.3l2.9-5.3l-3-1.6c-0.4-0.2-0.9-0.1-1.1,0.3l-2.5,4.7L164.9,14.3z"/>
			<path class="st9" d="M166.5,15.1l3.6,2l2.5-4.7c0.2-0.4,0.1-0.9-0.3-1.1l-3-1.6L166.5,15.1z"/>
			
				<rect x="158.1" y="15.2" transform="matrix(0.4777 -0.8785 0.8785 0.4777 68.8351 150.3622)" class="st9" width="5.6" height="4.2"/>
			
				<rect x="163.3" y="18.1" transform="matrix(0.4777 -0.8785 0.8785 0.4777 69.0499 156.4988)" class="st9" width="5.6" height="4.2"/>
		</g>
		<path class="st10" d="M154.6,20.7l-4.3,8c-0.7,1.3-0.2,2.8,1,3.5l7.5,4.1c1.3,0.7,2.8,0.2,3.5-1l4.3-8L154.6,20.7z"/>
		<path class="st11" d="M167.8,23.6L157,17.7c-0.6-0.3-1.4-0.1-1.7,0.5l-1.5,2.8c-0.5,0.9,0.1,1.9,1.1,1.9c0.4,0,0.8,0.2,1.1,0.6
			l0.8,1.2c0.2,0.4,0.6,0.6,1.1,0.6h1.4c0.4,0,0.8,0.2,1.1,0.6l0.8,1.2c0.2,0.4,0.6,0.6,1.1,0.6h1.4c0.4,0,0.8,0.2,1.1,0.6
			c0.5,0.8,1.7,0.8,2.2-0.1l1.5-2.8C168.7,24.7,168.5,23.9,167.8,23.6z"/>
	</g>
</g>
</svg>
