<?xml version="1.0" encoding="utf-8"?>
<!-- Generator: Adobe Illustrator 22.1.0, SVG Export Plug-In . SVG Version: 6.00 Build 0)  -->
<svg version="1.1" id="Layer_1" xmlns="http://www.w3.org/2000/svg" xmlns:xlink="http://www.w3.org/1999/xlink" x="0px" y="0px"
	 viewBox="0 0 400 400" style="enable-background:new 0 0 400 400;" xml:space="preserve">
<style type="text/css">
	.st0{fill:#BB832C;}
	.st1{fill:#5B4B3B;}
	.st2{fill:#E7A531;}
	.st3{fill:#75503E;}
	.st4{fill:#FFC73A;}
	.st5{fill:#2C3B46;}
	.st6{fill:none;stroke:#A0A0A0;stroke-width:4;stroke-miterlimit:10;}
	.st7{fill:#566D76;}
	.st8{fill:#8396A3;}
	.st9{fill:#E5DBBF;}
	.st10{fill:#FFFFFF;}
	.st11{fill:#3A3D3F;}
	.st12{fill:none;stroke:#566D76;stroke-width:1.0677;stroke-linecap:round;stroke-linejoin:round;stroke-miterlimit:10;}
	.st13{fill:none;stroke:#343833;stroke-width:3.8822;stroke-miterlimit:10;}
	.st14{fill:#6EBE44;}
	.st15{enable-background:new    ;}
	.st16{fill:#FFF79B;}
	.st17{fill:none;stroke:#356B12;stroke-width:2;stroke-linecap:round;stroke-linejoin:round;stroke-dasharray:0,5.9371;}
	.st18{fill:#FFD782;}
	.st19{fill:#FF6465;}
	.st20{fill:#FCFCFD;}
	.st21{fill:#6EB1E1;}
	.st22{fill:#4F5565;}
	.st23{fill:#FFFFFC;}
	.st24{fill:#F9DB87;}
	.st25{fill:#E5B94C;}
	.st26{fill:#B5600B;}
	.st27{fill:#FCEDCA;}
	.st28{fill:#03A9F4;}
	.st29{fill:#0288D1;}
	.st30{fill:#1976D2;}
</style>
<g>
	<g>
		<g>
			<path class="st0" d="M103.4,49.6c-1.4,0.8-3.3-0.1-4.5-2.2c-1.3-2.1-1.2-4.2,0.2-5c1.4-0.8,3.3,0.1,4.5,2.2
				C104.9,46.6,104.8,48.7,103.4,49.6z"/>
			<ellipse transform="matrix(0.8571 -0.5152 0.5152 0.8571 -9.2084 58.7434)" class="st0" cx="101.3" cy="46" rx="1.4" ry="2.8"/>
		</g>
		<g>
			<path class="st0" d="M149.5,120l-2,67.3c0,0.4-0.3,0.7-0.7,0.7h-6c-0.4,0-0.7-0.3-0.7-0.7l-2-67.3H149.5z"/>
		</g>
		<g>
			<path class="st0" d="M113.6,120l-2,67.3c0,0.4-0.3,0.7-0.7,0.7h-6c-0.4,0-0.7-0.3-0.7-0.7l-2-67.3H113.6z"/>
		</g>
		<path class="st1" d="M111.8,36.9v8.2h3.2V37c0-0.8-0.6-1.6-1.5-1.7C112.6,35.3,111.8,36,111.8,36.9z"/>
		<path class="st1" d="M106.7,36.9v8.2h3.2V37c0-0.8-0.6-1.6-1.5-1.7C107.5,35.3,106.7,36,106.7,36.9z"/>
		<g>
			<path class="st2" d="M162.9,122.4c0-8.8-7.2-16-16-16c-0.8,0-1.4-0.6-1.4-1.4s0.6-1.4,1.4-1.4c10.4,0,18.8,8.5,18.8,18.8
				c0,0.8-0.6,1.4-1.4,1.4C163.5,123.8,162.9,123.2,162.9,122.4z"/>
			<path class="st3" d="M161.6,123.9c0.3-1.5,1.7-2.5,3.2-2.2c1.5,0.3,2.5,1.7,2.2,3.2l-0.6,3.4c-0.2,0.8-0.8,1.5-1.7,1.7
				c-1.1,0.2-2.2-0.6-2.5-1.7l-0.6-3.4C161.5,124.6,161.5,124.2,161.6,123.9z"/>
		</g>
		<path class="st2" d="M88.3,53.4c0,2.6,2.1,4.8,4.8,4.8h10.4c0,0,0,0,0,0l-2.1,45.2c0,0,0,0,0,0l-0.8,16.4
			c0,9.1,7.4,16.5,16.5,16.5h26.9c8.8,0,16.1-7,16.5-15.7c0.4-9.4-7.3-17.3-16.7-17.3h-20.4c0,0,0,0,0,0l-4.4-54.9l0,0
			c-0.2-3.3-3-6-6.4-6h-5.5v0c0,0-0.1,0-0.1,0c-2,0-3.7,0.9-4.9,2.3h0c-2.3,2.3-5.5,3.8-9,3.8C90.4,48.6,88.3,50.8,88.3,53.4z"/>
		<g>
			<path class="st2" d="M160.6,120l-2,67.3c0,0.4-0.3,0.7-0.7,0.7h-6c-0.4,0-0.7-0.3-0.7-0.7l-2-67.3H160.6z"/>
		</g>
		<g>
			<path class="st2" d="M124.7,120l-2,67.3c0,0.4-0.3,0.7-0.7,0.7h-6c-0.4,0-0.7-0.3-0.7-0.7l-2-67.3H124.7z"/>
		</g>
		<ellipse class="st2" cx="109.5" cy="51.2" rx="10.5" ry="9.5"/>
		<path class="st2" d="M93,48h9.8c3.4,0,6.2,2.8,6.2,6.2v0c0,3.4-2,6.2-5.4,6.2H93c-3.4,0-6.2-2.8-6.2-6.2v0
			C86.8,50.8,89.6,48,93,48z"/>
		<g>
			<path class="st2" d="M114.7,48.1c-0.8-1.4,0.1-3.3,2.2-4.5c2.1-1.3,4.2-1.2,5,0.2c0.8,1.4-0.1,3.3-2.2,4.5
				C117.6,49.6,115.5,49.5,114.7,48.1z"/>
			<ellipse transform="matrix(0.8571 -0.5152 0.5152 0.8571 -6.7792 67.4986)" class="st4" cx="118.3" cy="46" rx="2.8" ry="1.4"/>
		</g>
	</g>
	<path class="st5" d="M108.7,50.5h0.1c0.5,0,1-0.4,1-1V48c0-0.5-0.4-1-1-1h-0.1c-0.5,0-1,0.4-1,1v1.5
		C107.7,50.1,108.2,50.5,108.7,50.5z"/>
	<path class="st5" d="M105,50.5h0.1c0.5,0,1-0.4,1-1V48c0-0.5-0.4-1-1-1H105c-0.5,0-1,0.4-1,1v1.5C104,50.1,104.4,50.5,105,50.5z"/>
	<circle class="st3" cx="145.7" cy="112" r="6.1"/>
	<circle class="st3" cx="137.2" cy="125.7" r="6.1"/>
	<circle class="st3" cx="114.8" cy="96.9" r="4"/>
	<circle class="st3" cx="121.2" cy="111.3" r="4"/>
	<circle class="st3" cx="114.6" cy="124.5" r="6.1"/>
	<circle class="st3" cx="155.1" cy="119.9" r="2.4"/>
	<circle class="st3" cx="134.4" cy="110.3" r="2.4"/>
	<circle class="st3" cx="107.3" cy="114.3" r="2.4"/>
	<circle class="st3" cx="126.1" cy="121.6" r="2.4"/>
	<circle class="st3" cx="109.6" cy="106.1" r="2.4"/>
	<circle class="st3" cx="107" cy="89.6" r="2.4"/>
	<circle class="st3" cx="108.5" cy="75.5" r="2.4"/>
	<circle class="st3" cx="114.6" cy="69.1" r="2.4"/>
	<circle class="st3" cx="114.7" cy="82.5" r="2.4"/>
	<circle class="st3" cx="149.7" cy="128" r="2.4"/>
</g>
<g>
	<path class="st6" d="M266,89.7H74c-6.6,0-12,5.4-12,12V190c0,6.6,5.4,12,12,12h192c6.6,0,12-5.4,12-12v-88.3
		C278,95.1,272.6,89.7,266,89.7z"/>
	<line class="st6" x1="92.9" y1="89.7" x2="92.9" y2="179"/>
	<line class="st6" x1="216.3" y1="89.7" x2="216.3" y2="179"/>
	<line class="st6" x1="185.4" y1="89.7" x2="185.4" y2="179"/>
	<line class="st6" x1="154.6" y1="89.7" x2="154.6" y2="179"/>
	<line class="st6" x1="123.7" y1="89.7" x2="123.7" y2="179"/>
	<line class="st6" x1="247.1" y1="89.7" x2="247.1" y2="179"/>
</g>
<g>
	<path class="st7" d="M232.4,107.6c-9.9,0-18-7.9-18-17.7s8.1-17.7,18-17.7c9.9,0,18,7.9,18,17.7L232.4,107.6z"/>
	<g>
		<path class="st7" d="M307.8,115.4v53.5c0,1.3-1.5,2.4-3.3,2.4h-11.7c-1.2,0-1.8-1.1-0.9-1.7l2.1-1.4v-52.8c0-1.3,1.5-2.4,3.3-2.4
			h7.2C306.4,113,307.8,114.1,307.8,115.4z"/>
		<path class="st8" d="M295.6,170.9c0,0.2,0,0.3-0.1,0.5h-3c0-0.1-0.1-0.3-0.1-0.5c0-0.9,0.7-1.6,1.6-1.6
			C294.9,169.3,295.6,170,295.6,170.9z"/>
		<path class="st8" d="M299.5,170.9c0,0.2,0,0.3-0.1,0.5h-3c0-0.1-0.1-0.3-0.1-0.5c0-0.9,0.7-1.6,1.6-1.6
			C298.8,169.3,299.5,170,299.5,170.9z"/>
	</g>
	<g>
		<path class="st7" d="M257.2,115.4v53.5c0,1.3-1.5,2.4-3.3,2.4h-11.7c-1.2,0-1.8-1.1-0.9-1.7l2.1-1.4v-52.8c0-1.3,1.5-2.4,3.3-2.4
			h7.2C255.7,113,257.2,114.1,257.2,115.4z"/>
		<path class="st8" d="M245,170.9c0,0.2,0,0.3-0.1,0.5h-3c0-0.1-0.1-0.3-0.1-0.5c0-0.9,0.7-1.6,1.6-1.6
			C244.3,169.3,245,170,245,170.9z"/>
		<path class="st8" d="M248.9,170.9c0,0.2,0,0.3-0.1,0.5h-3c0-0.1-0.1-0.3-0.1-0.5c0-0.9,0.7-1.6,1.6-1.6
			C248.2,169.3,248.9,170,248.9,170.9z"/>
	</g>
	<path class="st9" d="M229.4,114.8c0.6-1.2-0.1-2.7-1.5-3.4c-0.6-0.3-1.2-0.3-1.7-0.3c-0.1,0-0.2,0-0.2,0c0,0-0.1,0-0.1,0.1
		c-0.3,0.1-0.7,0.2-0.9,0.4c-8.9,3.9-22.5,1.5-22.5,1.5C212.4,120,228.4,116.8,229.4,114.8z"/>
	<g>
		<path class="st8" d="M329.1,114.7v28.2h-2.2v-28.2c0-0.2,0-0.4,0-0.7c-0.3-4.8-4.3-8.5-9.2-8.5h-4.2v-2.2h4.2c3.7,0,7,1.8,9.1,4.6
			C328.3,109.8,329.1,112.2,329.1,114.7z"/>
	</g>
	<path class="st7" d="M330.7,144.4c0,3.1-2.7,5.6-2.7,5.6s-2.7-2.5-2.7-5.6c0-3.1,1.2-5.6,2.7-5.6
		C329.5,138.7,330.7,141.3,330.7,144.4z"/>
	<g>
		<path class="st8" d="M272.4,115.4v53.5c0,1.3-1.5,2.4-3.3,2.4h-11.7c-1.2,0-1.8-1.1-0.9-1.7l2.1-1.4v-52.8c0-1.3,1.5-2.4,3.3-2.4
			h7.2C271,113,272.4,114.1,272.4,115.4z"/>
		<path class="st10" d="M260.3,170.9c0,0.2,0,0.3-0.1,0.5h-3c0-0.1-0.1-0.3-0.1-0.5c0-0.9,0.7-1.6,1.6-1.6S260.3,170,260.3,170.9z"
			/>
		<path class="st10" d="M264.2,170.9c0,0.2,0,0.3-0.1,0.5h-3c0-0.1-0.1-0.3-0.1-0.5c0-0.9,0.7-1.6,1.6-1.6S264.2,170,264.2,170.9z"
			/>
	</g>
	<g>
		<path class="st8" d="M323.4,115.4v53.5c0,1.3-1.5,2.4-3.3,2.4h-11.7c-1.2,0-1.8-1.1-0.9-1.7l2.1-1.4v-52.8c0-1.3,1.5-2.4,3.3-2.4
			h7.2C321.9,113,323.4,114.1,323.4,115.4z"/>
		<path class="st10" d="M311.2,170.9c0,0.2,0,0.3-0.1,0.5h-3c0-0.1-0.1-0.3-0.1-0.5c0-0.9,0.7-1.6,1.6-1.6
			C310.5,169.3,311.2,170,311.2,170.9z"/>
		<path class="st10" d="M315.1,170.9c0,0.2,0,0.3-0.1,0.5h-3c0-0.1-0.1-0.3-0.1-0.5c0-0.9,0.7-1.6,1.6-1.6
			C314.4,169.3,315.1,170,315.1,170.9z"/>
	</g>
	<path class="st8" d="M313.9,105.5v8.1c0,11-9,20-20,20H263c-11,0-20-9-20-20v-8.1c0-5.6,2.3-10.7,6.1-14.3c0,0,0.1-0.1,0.1-0.1
		c3.6-3.5,8.5-5.6,13.8-5.6h30.9C304.8,85.5,313.9,94.5,313.9,105.5z"/>
	<circle class="st8" cx="297" cy="109.9" r="27.9"/>
	<path class="st8" d="M271.4,82.6C271.4,82.6,271.4,82.6,271.4,82.6c-3-3-7.2-4.8-11.7-4.7h-21.1l0,0c-6.8-0.3-13.7,3.7-17.3,10.7
		c-4.8,9.3-5.1,27.3,3.2,31.6c5.9,3,14.5-1.5,20.8-7.6c1,1.6,2.9,2.5,4.9,2.2c11.3-2,20.5-10.2,23.9-21
		C275.3,89.9,274.4,85.5,271.4,82.6z"/>
	<path class="st8" d="M232.3,107.9c-3,34.6-2.3,36.9-7.1,42.7c-2.7,3.2-6.2,5.3-9.7,6.1c-3.2,0.9-6.7,0.4-10.2,0.1
		c0-0.4,0.1-0.8,0.4-1.1c0.2-0.3,0.6-0.5,1-0.6l0.4-0.1l-0.4-0.1c-0.8-0.1-1.4-0.8-1.4-1.7v-0.2c0,0,4.7-0.4,4.7-0.4
		c0,0-0.1,0-0.1,0c5.7-0.8,10.3-4.6,10.9-10.6c0.1-0.8,0.1-1.7,0-2.6c0,0,0-0.1,0-0.1c0-0.6-0.1-1.4-0.2-2.6
		c-0.1-0.8-0.1-1.7-0.2-2.7c-0.1-0.8-0.1-1.7-0.2-2.6c-0.1-0.9-0.2-1.8-0.2-2.7c-0.1-0.8-0.1-1.7-0.2-2.6c-0.1-0.9-0.2-1.8-0.2-2.7
		c-0.1-0.9-0.1-1.7-0.2-2.6c-0.1-0.9-0.2-1.8-0.2-2.7c-0.1-0.9-0.2-1.7-0.2-2.6c-0.1-1-0.2-1.9-0.2-2.7c-0.1-0.9-0.2-1.8-0.2-2.6
		c-0.1-1.1-0.2-2-0.2-2.6H232.3z"/>
	<path class="st11" d="M231.9,99.7c0,0.7-0.6,1.3-1.3,1.3c-0.7,0-1.3-0.6-1.3-1.3c0-0.7,0.6-1.3,1.3-1.3
		C231.3,98.4,231.9,99,231.9,99.7z"/>
	<path class="st10" d="M237.3,116.7c0-1.3-1.3-2.4-2.8-2.4c-0.6,0-1.2,0.2-1.7,0.5c-0.1,0-0.2,0.1-0.2,0.1c0,0-0.1,0.1-0.1,0.1
		c-0.3,0.2-0.5,0.5-0.7,0.8c-6.5,7.3-19.8,10.8-19.8,10.8C224.1,128.7,237.2,119,237.3,116.7z"/>
	<path class="st12" d="M259.5,81.7c9.9,0,18,7.9,18,17.7s-8.1,17.7-18,17.7c-9.9,0-18-7.9-18-17.7"/>
</g>
<g>
	<path class="st13" d="M335.3,134H180c-6.6,0-12,5.4-12,12v75c0,6.6,5.4,12,12,12h155.3c6.6,0,12-5.4,12-12v-75
		C347.3,139.4,341.9,134,335.3,134z"/>
	<line class="st13" x1="193.7" y1="134" x2="193.7" y2="212.7"/>
	<line class="st13" x1="289.7" y1="134" x2="289.7" y2="212.7"/>
	<line class="st13" x1="257.7" y1="134" x2="257.7" y2="212.7"/>
	<line class="st13" x1="225.7" y1="134" x2="225.7" y2="212.7"/>
	<line class="st13" x1="321.7" y1="134" x2="321.7" y2="212.7"/>
</g>
<g>
	<g>
		<path class="st14" d="M354.9,382H39.1c-4.8,0-8.6-3.9-8.6-8.6V182.6c0-4.8,3.9-8.6,8.6-8.6h315.7c4.8,0,8.6,3.9,8.6,8.6v190.7
			C363.5,378.1,359.6,382,354.9,382z"/>
	</g>
	<g>
		<path class="st14" d="M52,373.6c-1.2-6.6-6.3-11.8-12.9-13V197.7c6.5-1.2,11.6-6.4,12.8-12.8h290.2c1.2,6.5,6.4,11.6,12.8,12.8
			v162.8c-6.6,1.2-11.8,6.5-12.9,13.1H52z"/>
		<path class="st10" d="M339.8,187.9c1.9,5.7,6.4,10.2,12.1,12.1v158.1c-5.8,1.9-10.4,6.6-12.2,12.4H54.3
			c-1.9-5.8-6.4-10.4-12.2-12.3V200c5.7-1.9,10.2-6.4,12.1-12.1H339.8 M344.6,181.9H49.4c-0.1,0.1-0.1,0.1-0.2,0.2
			c-0.1,7.1-5.9,12.9-13.1,12.9v168.3c7.2,0,13.1,5.9,13.1,13.1c0.1,0.1,0.1,0.1,0.2,0.2h295.2c0-0.1,0.1-0.2,0.2-0.3
			c0-7.2,5.9-13.1,13.1-13.1V195c-7.2,0-13-5.8-13.1-12.9C344.7,182,344.7,182,344.6,181.9L344.6,181.9z"/>
	</g>
</g>
<circle class="st10" cx="40.1" cy="183.5" r="4.5"/>
<circle class="st10" cx="40.1" cy="372.5" r="4.5"/>
<circle class="st10" cx="354.3" cy="372.5" r="4.5"/>
<circle class="st10" cx="353.3" cy="183.5" r="4.5"/>
<g class="st15">
	<path class="st10" d="M112.3,215.5c0.5,0.6,0.7,1.4,0.7,2.3c0,1.2-0.4,2.2-1.3,2.9s-2.1,1-3.6,1h-5.3c-0.4,0-0.7-0.1-0.9-0.3
		c-0.2-0.2-0.3-0.5-0.3-0.9v-11.9c0-0.4,0.1-0.7,0.3-0.9c0.2-0.2,0.5-0.3,0.9-0.3h5.1c1.5,0,2.7,0.3,3.5,1c0.9,0.7,1.3,1.6,1.3,2.8
		c0,0.8-0.2,1.4-0.6,2c-0.4,0.6-1,1-1.7,1.2C111.2,214.4,111.8,214.8,112.3,215.5z M104,213.3h3.3c1.8,0,2.7-0.7,2.7-2
		c0-0.7-0.2-1.2-0.7-1.5s-1.1-0.5-2-0.5H104V213.3z M109.8,219.1c0.4-0.3,0.7-0.9,0.7-1.6c0-0.7-0.2-1.3-0.7-1.6s-1.1-0.5-2.1-0.5
		H104v4.3h3.7C108.7,219.6,109.4,219.4,109.8,219.1z"/>
	<path class="st10" d="M117.1,221.2c-0.8-0.4-1.4-1-1.8-1.8c-0.4-0.8-0.6-1.7-0.6-2.8s0.2-2,0.6-2.8c0.4-0.8,1-1.4,1.8-1.8
		c0.8-0.4,1.7-0.6,2.7-0.6s1.9,0.2,2.7,0.6c0.8,0.4,1.4,1,1.8,1.8c0.4,0.8,0.6,1.7,0.6,2.8s-0.2,2-0.6,2.8c-0.4,0.8-1,1.4-1.8,1.8
		c-0.8,0.4-1.7,0.6-2.7,0.6S117.9,221.6,117.1,221.2z M121.7,219c0.4-0.5,0.7-1.4,0.7-2.4c0-1.1-0.2-1.9-0.7-2.4s-1.1-0.8-1.9-0.8
		s-1.5,0.3-1.9,0.8s-0.7,1.4-0.7,2.4c0,1.1,0.2,1.9,0.7,2.4c0.4,0.5,1.1,0.8,1.9,0.8C120.6,219.8,121.2,219.5,121.7,219z"/>
	<path class="st10" d="M127.4,221.4c-0.2-0.2-0.4-0.5-0.4-0.9v-12.2c0-0.4,0.1-0.7,0.4-0.9c0.2-0.2,0.5-0.3,0.9-0.3
		c0.4,0,0.7,0.1,0.9,0.3c0.2,0.2,0.4,0.5,0.4,0.9v12.2c0,0.4-0.1,0.7-0.4,0.9c-0.2,0.2-0.6,0.3-0.9,0.3
		C127.9,221.8,127.6,221.7,127.4,221.4z"/>
	<path class="st10" d="M140.7,219.2c0.1,0.2,0.2,0.4,0.2,0.7c0,0.4-0.3,0.8-0.8,1.1c-0.5,0.3-1,0.5-1.6,0.6
		c-0.6,0.2-1.1,0.2-1.7,0.2c-1.6,0-2.9-0.5-3.8-1.4c-0.9-0.9-1.4-2.2-1.4-3.8c0-1,0.2-1.9,0.6-2.7s1-1.4,1.7-1.8
		c0.7-0.4,1.6-0.7,2.5-0.7c0.9,0,1.7,0.2,2.4,0.6c0.7,0.4,1.2,1,1.6,1.7c0.4,0.7,0.6,1.6,0.6,2.6c0,0.6-0.3,0.9-0.8,0.9h-6
		c0.1,0.9,0.3,1.6,0.8,2.1c0.5,0.4,1.1,0.7,2,0.7c0.4,0,0.8-0.1,1.2-0.2c0.3-0.1,0.7-0.3,1.1-0.5c0.4-0.2,0.7-0.3,0.9-0.3
		C140.4,218.9,140.5,219,140.7,219.2z M134.9,213.8c-0.4,0.4-0.7,1.1-0.7,1.9h4.6c0-0.8-0.2-1.5-0.6-1.9c-0.4-0.4-0.9-0.6-1.6-0.6
		C135.9,213.2,135.3,213.4,134.9,213.8z"/>
	<path class="st10" d="M149.2,220.8c0,0.3-0.1,0.6-0.4,0.7c-0.3,0.2-0.6,0.2-1.1,0.2l-0.6,0c-2.3-0.2-3.4-1.4-3.4-3.7v-4.5h-1
		c-0.4,0-0.7-0.1-0.9-0.2c-0.2-0.2-0.3-0.4-0.3-0.7c0-0.3,0.1-0.6,0.3-0.7s0.5-0.2,0.9-0.2h1v-1.9c0-0.4,0.1-0.7,0.3-0.9
		s0.5-0.3,0.9-0.3c0.4,0,0.7,0.1,0.9,0.3s0.3,0.5,0.3,0.9v1.9h1.7c0.4,0,0.7,0.1,0.9,0.2c0.2,0.2,0.3,0.4,0.3,0.7
		c0,0.3-0.1,0.6-0.3,0.7c-0.2,0.2-0.5,0.2-0.9,0.2h-1.7v4.7c0,1,0.5,1.6,1.4,1.6l0.6,0C148.8,219.9,149.2,220.2,149.2,220.8z"/>
	<path class="st10" d="M152.4,221.2c-0.8-0.4-1.4-1-1.8-1.8c-0.4-0.8-0.6-1.7-0.6-2.8s0.2-2,0.6-2.8c0.4-0.8,1-1.4,1.8-1.8
		c0.8-0.4,1.7-0.6,2.7-0.6s1.9,0.2,2.7,0.6c0.8,0.4,1.4,1,1.8,1.8c0.4,0.8,0.6,1.7,0.6,2.8s-0.2,2-0.6,2.8c-0.4,0.8-1,1.4-1.8,1.8
		c-0.8,0.4-1.7,0.6-2.7,0.6S153.1,221.6,152.4,221.2z M156.9,219c0.4-0.5,0.7-1.4,0.7-2.4c0-1.1-0.2-1.9-0.7-2.4s-1.1-0.8-1.9-0.8
		s-1.5,0.3-1.9,0.8s-0.7,1.4-0.7,2.4c0,1.1,0.2,1.9,0.7,2.4c0.4,0.5,1.1,0.8,1.9,0.8C155.9,219.8,156.5,219.5,156.9,219z"/>
</g>
<g class="st15">
	<path class="st10" d="M101.8,265.4c-0.2-0.2-0.4-0.6-0.4-1v-12c0-0.4,0.1-0.7,0.3-0.9c0.2-0.2,0.5-0.3,0.9-0.3h7.2
		c0.8,0,1.2,0.4,1.2,1.1c0,0.7-0.4,1-1.2,1h-5.9v3.9h5.4c0.8,0,1.2,0.4,1.2,1.1c0,0.7-0.4,1-1.2,1h-5.4v5.1c0,0.4-0.1,0.7-0.3,1
		s-0.5,0.4-0.9,0.4S102,265.6,101.8,265.4z"/>
	<path class="st10" d="M114.5,265.2c-0.8-0.4-1.4-1-1.8-1.8c-0.4-0.8-0.6-1.7-0.6-2.8s0.2-2,0.6-2.8c0.4-0.8,1-1.4,1.8-1.8
		c0.8-0.4,1.7-0.6,2.7-0.6s1.9,0.2,2.7,0.6c0.8,0.4,1.4,1,1.8,1.8c0.4,0.8,0.6,1.7,0.6,2.8s-0.2,2-0.6,2.8c-0.4,0.8-1,1.4-1.8,1.8
		c-0.8,0.4-1.7,0.6-2.7,0.6S115.3,265.6,114.5,265.2z M119.1,263c0.4-0.5,0.7-1.4,0.7-2.4c0-1.1-0.2-1.9-0.7-2.4s-1.1-0.8-1.9-0.8
		s-1.5,0.3-1.9,0.8s-0.7,1.4-0.7,2.4c0,1.1,0.2,1.9,0.7,2.4c0.4,0.5,1.1,0.8,1.9,0.8C118,263.8,118.6,263.5,119.1,263z"/>
	<path class="st10" d="M130.6,264.8c0,0.3-0.1,0.6-0.4,0.7c-0.3,0.2-0.6,0.2-1.1,0.2l-0.6,0c-2.3-0.2-3.4-1.4-3.4-3.7v-4.5h-1
		c-0.4,0-0.7-0.1-0.9-0.2c-0.2-0.2-0.3-0.4-0.3-0.7c0-0.3,0.1-0.6,0.3-0.7s0.5-0.2,0.9-0.2h1v-1.9c0-0.4,0.1-0.7,0.3-0.9
		s0.5-0.3,0.9-0.3c0.4,0,0.7,0.1,0.9,0.3s0.3,0.5,0.3,0.9v1.9h1.7c0.4,0,0.7,0.1,0.9,0.2c0.2,0.2,0.3,0.4,0.3,0.7
		c0,0.3-0.1,0.6-0.3,0.7c-0.2,0.2-0.5,0.2-0.9,0.2h-1.7v4.7c0,1,0.5,1.6,1.4,1.6l0.6,0C130.2,263.9,130.6,264.2,130.6,264.8z"/>
	<path class="st10" d="M133.8,265.2c-0.8-0.4-1.4-1-1.8-1.8c-0.4-0.8-0.6-1.7-0.6-2.8s0.2-2,0.6-2.8c0.4-0.8,1-1.4,1.8-1.8
		c0.8-0.4,1.7-0.6,2.7-0.6s1.9,0.2,2.7,0.6c0.8,0.4,1.4,1,1.8,1.8c0.4,0.8,0.6,1.7,0.6,2.8s-0.2,2-0.6,2.8c-0.4,0.8-1,1.4-1.8,1.8
		c-0.8,0.4-1.7,0.6-2.7,0.6S134.5,265.6,133.8,265.2z M138.3,263c0.4-0.5,0.7-1.4,0.7-2.4c0-1.1-0.2-1.9-0.7-2.4s-1.1-0.8-1.9-0.8
		s-1.5,0.3-1.9,0.8s-0.7,1.4-0.7,2.4c0,1.1,0.2,1.9,0.7,2.4c0.4,0.5,1.1,0.8,1.9,0.8C137.3,263.8,137.9,263.5,138.3,263z"/>
	<path class="st10" d="M153.1,255.7c0.2,0.2,0.3,0.5,0.3,0.9v8.1c0,1.6-0.4,2.8-1.3,3.6s-2.2,1.2-3.9,1.2c-1.5,0-2.7-0.3-3.7-0.8
		c-0.5-0.3-0.8-0.7-0.8-1.1c0-0.3,0.1-0.5,0.2-0.7c0.1-0.2,0.3-0.3,0.6-0.3c0.1,0,0.3,0,0.5,0.1c0.2,0.1,0.4,0.1,0.6,0.2
		c0.5,0.2,0.9,0.4,1.3,0.5s0.8,0.2,1.3,0.2c1.8,0,2.7-0.9,2.7-2.6v-1.3c-0.3,0.6-0.7,1-1.3,1.3c-0.6,0.3-1.2,0.5-2,0.5
		c-0.9,0-1.6-0.2-2.3-0.6c-0.7-0.4-1.2-1-1.6-1.8s-0.6-1.6-0.6-2.6s0.2-1.9,0.6-2.6c0.4-0.8,0.9-1.3,1.6-1.8
		c0.7-0.4,1.5-0.6,2.3-0.6c0.7,0,1.4,0.2,2,0.5c0.6,0.3,1,0.7,1.3,1.3v-0.5c0-0.4,0.1-0.6,0.3-0.9c0.2-0.2,0.5-0.3,0.9-0.3
		S152.8,255.5,153.1,255.7z M150.2,262.6c0.5-0.5,0.7-1.3,0.7-2.2c0-0.9-0.2-1.7-0.7-2.2c-0.5-0.5-1.1-0.8-1.9-0.8
		c-0.8,0-1.4,0.3-1.9,0.8c-0.5,0.5-0.7,1.3-0.7,2.2c0,0.9,0.2,1.7,0.7,2.2c0.5,0.5,1.1,0.8,1.9,0.8
		C149.1,263.4,149.7,263.1,150.2,262.6z"/>
	<path class="st10" d="M162.5,255.6c0.2,0.2,0.3,0.4,0.3,0.8c0,0.4-0.1,0.6-0.3,0.8c-0.2,0.2-0.5,0.3-1,0.3l-0.6,0.1
		c-0.8,0.1-1.4,0.4-1.8,0.8c-0.4,0.5-0.6,1-0.6,1.7v4.3c0,0.4-0.1,0.7-0.4,0.9c-0.2,0.2-0.6,0.3-0.9,0.3c-0.4,0-0.7-0.1-0.9-0.3
		c-0.2-0.2-0.4-0.5-0.4-0.9v-7.9c0-0.4,0.1-0.7,0.4-0.9c0.2-0.2,0.5-0.3,0.9-0.3c0.4,0,0.6,0.1,0.9,0.3c0.2,0.2,0.3,0.5,0.3,0.8v0.8
		c0.3-0.6,0.6-1.1,1.2-1.4c0.5-0.3,1.1-0.5,1.7-0.6l0.3,0C162,255.4,162.3,255.5,162.5,255.6z"/>
	<path class="st10" d="M171.3,256.4c0.7,0.7,1,1.7,1,3.1v5c0,0.4-0.1,0.7-0.3,0.9c-0.2,0.2-0.5,0.3-0.9,0.3c-0.4,0-0.6-0.1-0.9-0.3
		c-0.2-0.2-0.3-0.5-0.3-0.9v-0.5c-0.2,0.5-0.6,0.9-1.1,1.2c-0.5,0.3-1.1,0.5-1.7,0.5c-0.7,0-1.3-0.1-1.8-0.4c-0.5-0.3-1-0.6-1.3-1.1
		c-0.3-0.5-0.5-1-0.5-1.6c0-0.7,0.2-1.3,0.6-1.7c0.4-0.4,1-0.7,1.8-0.9s2-0.3,3.5-0.3h0.5v-0.5c0-0.7-0.1-1.2-0.4-1.5
		c-0.3-0.3-0.8-0.5-1.4-0.5c-0.4,0-0.8,0.1-1.2,0.2s-0.9,0.3-1.5,0.5c-0.4,0.2-0.6,0.3-0.8,0.3c-0.2,0-0.4-0.1-0.6-0.3
		c-0.2-0.2-0.2-0.4-0.2-0.7c0-0.2,0.1-0.4,0.2-0.6c0.1-0.2,0.3-0.3,0.6-0.5c0.5-0.3,1-0.5,1.7-0.6s1.3-0.2,2-0.2
		C169.6,255.4,170.6,255.7,171.3,256.4z M169.3,263.3c0.4-0.5,0.6-1,0.6-1.8v-0.4h-0.4c-0.9,0-1.6,0-2.1,0.1
		c-0.5,0.1-0.9,0.2-1.1,0.4c-0.2,0.2-0.3,0.5-0.3,0.8c0,0.4,0.2,0.8,0.5,1.1c0.3,0.3,0.7,0.4,1.1,0.4
		C168.3,264,168.8,263.7,169.3,263.3z"/>
	<path class="st10" d="M178.6,253.7c-0.3,0.3-0.4,0.8-0.4,1.5v0.5h1.7c0.8,0,1.1,0.3,1.1,1c0,0.6-0.4,1-1.1,1h-1.7v7
		c0,0.4-0.1,0.7-0.4,0.9c-0.2,0.2-0.5,0.3-0.9,0.3c-0.4,0-0.7-0.1-0.9-0.3c-0.2-0.2-0.4-0.5-0.4-0.9v-7h-1c-0.8,0-1.1-0.3-1.1-1
		c0-0.6,0.4-1,1.1-1h1v-0.1c0-1.3,0.3-2.3,1-3c0.7-0.7,1.6-1.1,2.9-1.2l0.5,0c0.5,0,0.9,0,1.2,0.2c0.2,0.2,0.3,0.4,0.3,0.7
		c0,0.6-0.3,0.9-1,1l-0.5,0C179.4,253.1,178.9,253.3,178.6,253.7z"/>
	<path class="st10" d="M182.6,265.4c-0.2-0.2-0.4-0.5-0.4-0.9v-7.9c0-0.4,0.1-0.7,0.4-0.9c0.2-0.2,0.5-0.3,0.9-0.3
		c0.4,0,0.7,0.1,0.9,0.3c0.2,0.2,0.4,0.5,0.4,0.9v7.9c0,0.4-0.1,0.7-0.4,0.9c-0.2,0.2-0.6,0.3-0.9,0.3
		C183.2,265.8,182.9,265.7,182.6,265.4z M183.6,254.4c-0.2,0-0.4-0.1-0.5-0.2c-0.1-0.1-0.2-0.3-0.2-0.5c0-0.2,0.1-0.3,0.2-0.5l2-2.6
		c0.3-0.4,0.7-0.6,1.1-0.6c0.3,0,0.6,0.1,0.8,0.3c0.2,0.2,0.3,0.5,0.3,0.7c0,0.4-0.2,0.7-0.6,1l-2.6,2.2
		C183.9,254.4,183.8,254.4,183.6,254.4z"/>
	<path class="st10" d="M194.9,256.4c0.7,0.7,1,1.7,1,3.1v5c0,0.4-0.1,0.7-0.3,0.9c-0.2,0.2-0.5,0.3-0.9,0.3c-0.4,0-0.6-0.1-0.9-0.3
		c-0.2-0.2-0.3-0.5-0.3-0.9v-0.5c-0.2,0.5-0.6,0.9-1.1,1.2c-0.5,0.3-1.1,0.5-1.7,0.5c-0.7,0-1.3-0.1-1.8-0.4c-0.5-0.3-1-0.6-1.3-1.1
		c-0.3-0.5-0.5-1-0.5-1.6c0-0.7,0.2-1.3,0.6-1.7c0.4-0.4,1-0.7,1.8-0.9s2-0.3,3.5-0.3h0.5v-0.5c0-0.7-0.1-1.2-0.4-1.5
		c-0.3-0.3-0.8-0.5-1.4-0.5c-0.4,0-0.8,0.1-1.2,0.2s-0.9,0.3-1.5,0.5c-0.4,0.2-0.6,0.3-0.8,0.3c-0.2,0-0.4-0.1-0.6-0.3
		c-0.2-0.2-0.2-0.4-0.2-0.7c0-0.2,0.1-0.4,0.2-0.6c0.1-0.2,0.3-0.3,0.6-0.5c0.5-0.3,1-0.5,1.7-0.6s1.3-0.2,2-0.2
		C193.2,255.4,194.2,255.7,194.9,256.4z M192.9,263.3c0.4-0.5,0.6-1,0.6-1.8v-0.4h-0.4c-0.9,0-1.6,0-2.1,0.1
		c-0.5,0.1-0.9,0.2-1.1,0.4c-0.2,0.2-0.3,0.5-0.3,0.8c0,0.4,0.2,0.8,0.5,1.1c0.3,0.3,0.7,0.4,1.1,0.4
		C191.9,264,192.4,263.7,192.9,263.3z"/>
</g>
<g class="st15">
	<path class="st10" d="M101.8,309.4c-0.2-0.2-0.4-0.6-0.4-1v-12c0-0.4,0.1-0.7,0.3-0.9c0.2-0.2,0.5-0.3,0.9-0.3h5
		c1.5,0,2.7,0.4,3.6,1.2s1.3,1.9,1.3,3.2c0,1.4-0.4,2.5-1.3,3.3s-2.1,1.2-3.6,1.2h-3.7v4.4c0,0.4-0.1,0.7-0.4,1
		c-0.2,0.2-0.6,0.4-1,0.4C102.4,309.8,102,309.6,101.8,309.4z M107.4,302c1.8,0,2.7-0.8,2.7-2.4c0-1.6-0.9-2.4-2.7-2.4h-3.3v4.8
		H107.4z"/>
	<path class="st10" d="M115.1,309.4c-0.2-0.2-0.4-0.5-0.4-0.9v-12.2c0-0.4,0.1-0.7,0.4-0.9c0.2-0.2,0.5-0.3,0.9-0.3
		c0.4,0,0.7,0.1,0.9,0.3c0.2,0.2,0.4,0.5,0.4,0.9v12.2c0,0.4-0.1,0.7-0.4,0.9c-0.2,0.2-0.6,0.3-0.9,0.3
		C115.6,309.8,115.3,309.7,115.1,309.4z"/>
	<path class="st10" d="M127.4,300.4c0.7,0.7,1,1.7,1,3.1v5c0,0.4-0.1,0.7-0.3,0.9c-0.2,0.2-0.5,0.3-0.9,0.3c-0.4,0-0.6-0.1-0.9-0.3
		c-0.2-0.2-0.3-0.5-0.3-0.9v-0.5c-0.2,0.5-0.6,0.9-1.1,1.2c-0.5,0.3-1.1,0.5-1.7,0.5c-0.7,0-1.3-0.1-1.8-0.4c-0.5-0.3-1-0.6-1.3-1.1
		c-0.3-0.5-0.5-1-0.5-1.6c0-0.7,0.2-1.3,0.6-1.7c0.4-0.4,1-0.7,1.8-0.9s2-0.3,3.5-0.3h0.5v-0.5c0-0.7-0.1-1.2-0.4-1.5
		c-0.3-0.3-0.8-0.5-1.4-0.5c-0.4,0-0.8,0.1-1.2,0.2s-0.9,0.3-1.5,0.5c-0.4,0.2-0.6,0.3-0.8,0.3c-0.2,0-0.4-0.1-0.6-0.3
		c-0.2-0.2-0.2-0.4-0.2-0.7c0-0.2,0.1-0.4,0.2-0.6c0.1-0.2,0.3-0.3,0.6-0.5c0.5-0.3,1-0.5,1.7-0.6s1.3-0.2,2-0.2
		C125.7,299.4,126.7,299.7,127.4,300.4z M125.3,307.3c0.4-0.5,0.6-1,0.6-1.8v-0.4h-0.4c-0.9,0-1.6,0-2.1,0.1
		c-0.5,0.1-0.9,0.2-1.1,0.4c-0.2,0.2-0.3,0.5-0.3,0.8c0,0.4,0.2,0.8,0.5,1.1c0.3,0.3,0.7,0.4,1.1,0.4
		C124.3,308,124.9,307.7,125.3,307.3z"/>
	<path class="st10" d="M138.4,299.6c0.2-0.1,0.4-0.2,0.6-0.2c0.3,0,0.6,0.1,0.9,0.3c0.3,0.2,0.4,0.5,0.4,0.8c0,0.2,0,0.3-0.1,0.5
		l-5.6,11.7c-0.2,0.5-0.6,0.7-1.1,0.7c-0.3,0-0.6-0.1-0.8-0.3c-0.2-0.2-0.4-0.4-0.4-0.7c0-0.2,0-0.3,0.1-0.5l1.4-2.9L130,301
		c-0.1-0.1-0.1-0.3-0.1-0.5c0-0.3,0.1-0.6,0.4-0.8c0.3-0.2,0.6-0.3,0.9-0.3c0.2,0,0.4,0.1,0.6,0.2c0.2,0.1,0.3,0.3,0.5,0.5l2.9,6.3
		l2.8-6.3C138.1,299.9,138.3,299.7,138.4,299.6z"/>
	<path class="st10" d="M150.1,307.2c0.1,0.2,0.2,0.4,0.2,0.7c0,0.4-0.3,0.8-0.8,1.1c-0.5,0.3-1,0.5-1.6,0.6
		c-0.6,0.2-1.1,0.2-1.7,0.2c-1.6,0-2.9-0.5-3.8-1.4c-0.9-0.9-1.4-2.2-1.4-3.8c0-1,0.2-1.9,0.6-2.7s1-1.4,1.7-1.8
		c0.7-0.4,1.6-0.7,2.5-0.7c0.9,0,1.7,0.2,2.4,0.6c0.7,0.4,1.2,1,1.6,1.7c0.4,0.7,0.6,1.6,0.6,2.6c0,0.6-0.3,0.9-0.8,0.9h-6
		c0.1,0.9,0.3,1.6,0.8,2.1c0.5,0.4,1.1,0.7,2,0.7c0.4,0,0.8-0.1,1.2-0.2c0.3-0.1,0.7-0.3,1.1-0.5c0.4-0.2,0.7-0.3,0.9-0.3
		C149.8,306.9,150,307,150.1,307.2z M144.3,301.8c-0.4,0.4-0.7,1.1-0.7,1.9h4.6c0-0.8-0.2-1.5-0.6-1.9c-0.4-0.4-0.9-0.6-1.6-0.6
		C145.3,301.2,144.8,301.4,144.3,301.8z"/>
	<path class="st10" d="M158.9,299.6c0.2,0.2,0.3,0.4,0.3,0.8c0,0.4-0.1,0.6-0.3,0.8c-0.2,0.2-0.5,0.3-1,0.3l-0.6,0.1
		c-0.8,0.1-1.4,0.4-1.8,0.8c-0.4,0.5-0.6,1-0.6,1.7v4.3c0,0.4-0.1,0.7-0.4,0.9c-0.2,0.2-0.6,0.3-0.9,0.3c-0.4,0-0.7-0.1-0.9-0.3
		c-0.2-0.2-0.4-0.5-0.4-0.9v-7.9c0-0.4,0.1-0.7,0.4-0.9c0.2-0.2,0.5-0.3,0.9-0.3c0.4,0,0.6,0.1,0.9,0.3c0.2,0.2,0.3,0.5,0.3,0.8v0.8
		c0.3-0.6,0.6-1.1,1.2-1.4c0.5-0.3,1.1-0.5,1.7-0.6l0.3,0C158.5,299.4,158.7,299.5,158.9,299.6z"/>
	<path class="st10" d="M167.8,300.4c0.7,0.7,1,1.7,1,3.1v5c0,0.4-0.1,0.7-0.3,0.9c-0.2,0.2-0.5,0.3-0.9,0.3c-0.4,0-0.6-0.1-0.9-0.3
		c-0.2-0.2-0.3-0.5-0.3-0.9v-0.5c-0.2,0.5-0.6,0.9-1.1,1.2c-0.5,0.3-1.1,0.5-1.7,0.5c-0.7,0-1.3-0.1-1.8-0.4c-0.5-0.3-1-0.6-1.3-1.1
		c-0.3-0.5-0.5-1-0.5-1.6c0-0.7,0.2-1.3,0.6-1.7c0.4-0.4,1-0.7,1.8-0.9s2-0.3,3.5-0.3h0.5v-0.5c0-0.7-0.1-1.2-0.4-1.5
		c-0.3-0.3-0.8-0.5-1.4-0.5c-0.4,0-0.8,0.1-1.2,0.2s-0.9,0.3-1.5,0.5c-0.4,0.2-0.6,0.3-0.8,0.3c-0.2,0-0.4-0.1-0.6-0.3
		c-0.2-0.2-0.2-0.4-0.2-0.7c0-0.2,0.1-0.4,0.2-0.6c0.1-0.2,0.3-0.3,0.6-0.5c0.5-0.3,1-0.5,1.7-0.6s1.3-0.2,2-0.2
		C166,299.4,167.1,299.7,167.8,300.4z M165.7,307.3c0.4-0.5,0.6-1,0.6-1.8v-0.4H166c-0.9,0-1.6,0-2.1,0.1c-0.5,0.1-0.9,0.2-1.1,0.4
		c-0.2,0.2-0.3,0.5-0.3,0.8c0,0.4,0.2,0.8,0.5,1.1c0.3,0.3,0.7,0.4,1.1,0.4C164.7,308,165.3,307.7,165.7,307.3z"/>
</g>
<g class="st15">
	<path class="st10" d="M101.8,353.4c-0.2-0.2-0.4-0.6-0.4-1v-12c0-0.4,0.1-0.7,0.3-0.9c0.2-0.2,0.5-0.3,0.9-0.3h5
		c1.5,0,2.7,0.4,3.6,1.2s1.3,1.9,1.3,3.2c0,1.4-0.4,2.5-1.3,3.3s-2.1,1.2-3.6,1.2h-3.7v4.4c0,0.4-0.1,0.7-0.4,1
		c-0.2,0.2-0.6,0.4-1,0.4C102.4,353.8,102,353.6,101.8,353.4z M107.4,346c1.8,0,2.7-0.8,2.7-2.4c0-1.6-0.9-2.4-2.7-2.4h-3.3v4.8
		H107.4z"/>
	<path class="st10" d="M121.9,344.4c0.7,0.7,1,1.7,1,3.1v5c0,0.4-0.1,0.7-0.3,0.9c-0.2,0.2-0.5,0.3-0.9,0.3c-0.4,0-0.6-0.1-0.9-0.3
		c-0.2-0.2-0.3-0.5-0.3-0.9v-0.5c-0.2,0.5-0.6,0.9-1.1,1.2c-0.5,0.3-1.1,0.5-1.7,0.5c-0.7,0-1.3-0.1-1.8-0.4c-0.5-0.3-1-0.6-1.3-1.1
		c-0.3-0.5-0.5-1-0.5-1.6c0-0.7,0.2-1.3,0.6-1.7c0.4-0.4,1-0.7,1.8-0.9s2-0.3,3.5-0.3h0.5v-0.5c0-0.7-0.1-1.2-0.4-1.5
		c-0.3-0.3-0.8-0.5-1.4-0.5c-0.4,0-0.8,0.1-1.2,0.2s-0.9,0.3-1.5,0.5c-0.4,0.2-0.6,0.3-0.8,0.3c-0.2,0-0.4-0.1-0.6-0.3
		c-0.2-0.2-0.2-0.4-0.2-0.7c0-0.2,0.1-0.4,0.2-0.6c0.1-0.2,0.3-0.3,0.6-0.5c0.5-0.3,1-0.5,1.7-0.6s1.3-0.2,2-0.2
		C120.2,343.4,121.3,343.7,121.9,344.4z M119.9,351.3c0.4-0.5,0.6-1,0.6-1.8v-0.4h-0.4c-0.9,0-1.6,0-2.1,0.1
		c-0.5,0.1-0.9,0.2-1.1,0.4c-0.2,0.2-0.3,0.5-0.3,0.8c0,0.4,0.2,0.8,0.5,1.1c0.3,0.3,0.7,0.4,1.1,0.4
		C118.9,352,119.4,351.7,119.9,351.3z"/>
	<path class="st10" d="M125.9,353.4c-0.2-0.2-0.4-0.5-0.4-0.9v-12.2c0-0.4,0.1-0.7,0.4-0.9c0.2-0.2,0.5-0.3,0.9-0.3
		c0.4,0,0.7,0.1,0.9,0.3c0.2,0.2,0.4,0.5,0.4,0.9v12.2c0,0.4-0.1,0.7-0.4,0.9c-0.2,0.2-0.6,0.3-0.9,0.3
		C126.4,353.8,126.1,353.7,125.9,353.4z"/>
	<path class="st10" d="M139.2,351.2c0.1,0.2,0.2,0.4,0.2,0.7c0,0.4-0.3,0.8-0.8,1.1c-0.5,0.3-1,0.5-1.6,0.6
		c-0.6,0.2-1.1,0.2-1.7,0.2c-1.6,0-2.9-0.5-3.8-1.4c-0.9-0.9-1.4-2.2-1.4-3.8c0-1,0.2-1.9,0.6-2.7s1-1.4,1.7-1.8
		c0.7-0.4,1.6-0.7,2.5-0.7c0.9,0,1.7,0.2,2.4,0.6c0.7,0.4,1.2,1,1.6,1.7c0.4,0.7,0.6,1.6,0.6,2.6c0,0.6-0.3,0.9-0.8,0.9h-6
		c0.1,0.9,0.3,1.6,0.8,2.1c0.5,0.4,1.1,0.7,2,0.7c0.4,0,0.8-0.1,1.2-0.2c0.3-0.1,0.7-0.3,1.1-0.5c0.4-0.2,0.7-0.3,0.9-0.3
		C138.9,350.9,139.1,351,139.2,351.2z M133.5,345.8c-0.4,0.4-0.7,1.1-0.7,1.9h4.6c0-0.8-0.2-1.5-0.6-1.9c-0.4-0.4-0.9-0.6-1.6-0.6
		C134.4,345.2,133.9,345.4,133.5,345.8z"/>
	<path class="st10" d="M147.7,352.8c0,0.3-0.1,0.6-0.4,0.7c-0.3,0.2-0.6,0.2-1.1,0.2l-0.6,0c-2.3-0.2-3.4-1.4-3.4-3.7v-4.5h-1
		c-0.4,0-0.7-0.1-0.9-0.2c-0.2-0.2-0.3-0.4-0.3-0.7c0-0.3,0.1-0.6,0.3-0.7s0.5-0.2,0.9-0.2h1v-1.9c0-0.4,0.1-0.7,0.3-0.9
		s0.5-0.3,0.9-0.3c0.4,0,0.7,0.1,0.9,0.3s0.3,0.5,0.3,0.9v1.9h1.7c0.4,0,0.7,0.1,0.9,0.2c0.2,0.2,0.3,0.4,0.3,0.7
		c0,0.3-0.1,0.6-0.3,0.7c-0.2,0.2-0.5,0.2-0.9,0.2h-1.7v4.7c0,1,0.5,1.6,1.4,1.6l0.6,0C147.4,351.9,147.7,352.2,147.7,352.8z"/>
	<path class="st10" d="M156.5,344.4c0.7,0.7,1,1.7,1,3.1v5c0,0.4-0.1,0.7-0.3,0.9c-0.2,0.2-0.5,0.3-0.9,0.3c-0.4,0-0.6-0.1-0.9-0.3
		c-0.2-0.2-0.3-0.5-0.3-0.9v-0.5c-0.2,0.5-0.6,0.9-1.1,1.2c-0.5,0.3-1.1,0.5-1.7,0.5c-0.7,0-1.3-0.1-1.8-0.4c-0.5-0.3-1-0.6-1.3-1.1
		c-0.3-0.5-0.5-1-0.5-1.6c0-0.7,0.2-1.3,0.6-1.7c0.4-0.4,1-0.7,1.8-0.9s2-0.3,3.5-0.3h0.5v-0.5c0-0.7-0.1-1.2-0.4-1.5
		c-0.3-0.3-0.8-0.5-1.4-0.5c-0.4,0-0.8,0.1-1.2,0.2s-0.9,0.3-1.5,0.5c-0.4,0.2-0.6,0.3-0.8,0.3c-0.2,0-0.4-0.1-0.6-0.3
		c-0.2-0.2-0.2-0.4-0.2-0.7c0-0.2,0.1-0.4,0.2-0.6c0.1-0.2,0.3-0.3,0.6-0.5c0.5-0.3,1-0.5,1.7-0.6s1.3-0.2,2-0.2
		C154.8,343.4,155.8,343.7,156.5,344.4z M154.4,351.3c0.4-0.5,0.6-1,0.6-1.8v-0.4h-0.4c-0.9,0-1.6,0-2.1,0.1
		c-0.5,0.1-0.9,0.2-1.1,0.4c-0.2,0.2-0.3,0.5-0.3,0.8c0,0.4,0.2,0.8,0.5,1.1c0.3,0.3,0.7,0.4,1.1,0.4
		C153.4,352,154,351.7,154.4,351.3z"/>
</g>
<g class="st15">
	<path class="st16" d="M304.4,220.3c-0.8,0.8-1.8,1.2-3.1,1.4v1.3c0,0.3-0.1,0.6-0.3,0.8s-0.4,0.3-0.8,0.3c-0.3,0-0.6-0.1-0.8-0.3
		c-0.2-0.2-0.3-0.5-0.3-0.8v-1.2c-0.8-0.1-1.5-0.2-2.3-0.5c-0.7-0.3-1.4-0.6-1.9-1c-0.2-0.1-0.3-0.3-0.4-0.4s-0.1-0.3-0.1-0.6
		c0-0.3,0.1-0.5,0.3-0.8c0.2-0.2,0.4-0.3,0.6-0.3c0.1,0,0.3,0,0.4,0.1s0.3,0.1,0.5,0.2c0.6,0.4,1.2,0.7,1.9,0.9
		c0.6,0.2,1.2,0.3,1.9,0.3c0.9,0,1.6-0.2,2.1-0.5c0.5-0.4,0.7-0.9,0.7-1.5c0-0.4-0.1-0.7-0.4-1c-0.3-0.2-0.6-0.4-1-0.6
		c-0.4-0.1-1-0.3-1.7-0.5c-1-0.3-1.9-0.5-2.5-0.8c-0.6-0.3-1.2-0.7-1.7-1.2c-0.5-0.5-0.7-1.3-0.7-2.2c0-1.1,0.4-2,1.2-2.8
		s1.8-1.3,3.1-1.5v-1.3c0-0.3,0.1-0.6,0.3-0.8c0.2-0.2,0.4-0.3,0.8-0.3c0.3,0,0.6,0.1,0.8,0.3c0.2,0.2,0.3,0.5,0.3,0.8v1.3
		c1.4,0.2,2.6,0.7,3.6,1.5c0.3,0.2,0.5,0.6,0.5,1c0,0.3-0.1,0.5-0.3,0.8c-0.2,0.2-0.4,0.3-0.6,0.3c-0.1,0-0.2,0-0.4-0.1
		s-0.3-0.1-0.5-0.2c-0.6-0.4-1.1-0.7-1.6-0.9c-0.5-0.2-1.1-0.3-1.8-0.3c-0.8,0-1.5,0.2-2,0.6c-0.5,0.4-0.8,0.9-0.8,1.5
		c0,0.5,0.1,0.8,0.4,1.1s0.6,0.5,1.1,0.6s1,0.3,1.8,0.5c1,0.2,1.8,0.5,2.4,0.8c0.6,0.3,1.2,0.7,1.6,1.2c0.4,0.5,0.7,1.2,0.7,2.1
		C305.5,218.7,305.1,219.6,304.4,220.3z"/>
	<path class="st16" d="M317.7,220.6c0,0.7-0.4,1.1-1.2,1.1h-6.9c-0.8,0-1.2-0.4-1.2-1.1c0-0.7,0.4-1,1.2-1h2.1v-9.3l-2,1.2
		c-0.2,0.1-0.4,0.2-0.5,0.2c-0.3,0-0.5-0.1-0.7-0.4c-0.2-0.2-0.3-0.5-0.3-0.8c0-0.4,0.2-0.7,0.5-0.9l3.2-2c0.4-0.2,0.8-0.4,1.2-0.4
		c0.4,0,0.7,0.1,0.9,0.3c0.2,0.2,0.3,0.6,0.3,1v11.1h2.2C317.3,219.5,317.7,219.9,317.7,220.6z"/>
	<path class="st16" d="M320.7,219.9c-0.9-1.3-1.4-3.1-1.4-5.5c0-2.4,0.5-4.2,1.4-5.5c0.9-1.3,2.2-1.9,3.9-1.9s3,0.6,3.9,1.9
		c0.9,1.3,1.4,3.1,1.4,5.5c0,2.4-0.5,4.2-1.4,5.5c-0.9,1.3-2.2,1.9-3.9,1.9S321.6,221.2,320.7,219.9z M326.7,218.5
		c0.4-0.9,0.6-2.2,0.6-4.1c0-1.9-0.2-3.2-0.6-4.1c-0.4-0.8-1.1-1.3-2-1.3s-1.6,0.4-2,1.3c-0.4,0.8-0.6,2.2-0.6,4.1
		c0,1.9,0.2,3.2,0.6,4.1c0.4,0.9,1.1,1.3,2,1.3S326.2,219.3,326.7,218.5z"/>
</g>
<g class="st15">
	<path class="st16" d="M304.4,264.3c-0.8,0.8-1.8,1.2-3.1,1.4v1.3c0,0.3-0.1,0.6-0.3,0.8s-0.4,0.3-0.8,0.3c-0.3,0-0.6-0.1-0.8-0.3
		c-0.2-0.2-0.3-0.5-0.3-0.8v-1.2c-0.8-0.1-1.5-0.2-2.3-0.5c-0.7-0.3-1.4-0.6-1.9-1c-0.2-0.1-0.3-0.3-0.4-0.4s-0.1-0.3-0.1-0.6
		c0-0.3,0.1-0.5,0.3-0.8c0.2-0.2,0.4-0.3,0.6-0.3c0.1,0,0.3,0,0.4,0.1s0.3,0.1,0.5,0.2c0.6,0.4,1.2,0.7,1.9,0.9
		c0.6,0.2,1.2,0.3,1.9,0.3c0.9,0,1.6-0.2,2.1-0.5c0.5-0.4,0.7-0.9,0.7-1.5c0-0.4-0.1-0.7-0.4-1c-0.3-0.2-0.6-0.4-1-0.6
		c-0.4-0.1-1-0.3-1.7-0.5c-1-0.3-1.9-0.5-2.5-0.8c-0.6-0.3-1.2-0.7-1.7-1.2c-0.5-0.5-0.7-1.3-0.7-2.2c0-1.1,0.4-2,1.2-2.8
		s1.8-1.3,3.1-1.5v-1.3c0-0.3,0.1-0.6,0.3-0.8c0.2-0.2,0.4-0.3,0.8-0.3c0.3,0,0.6,0.1,0.8,0.3c0.2,0.2,0.3,0.5,0.3,0.8v1.3
		c1.4,0.2,2.6,0.7,3.6,1.5c0.3,0.2,0.5,0.6,0.5,1c0,0.3-0.1,0.5-0.3,0.8c-0.2,0.2-0.4,0.3-0.6,0.3c-0.1,0-0.2,0-0.4-0.1
		s-0.3-0.1-0.5-0.2c-0.6-0.4-1.1-0.7-1.6-0.9c-0.5-0.2-1.1-0.3-1.8-0.3c-0.8,0-1.5,0.2-2,0.6c-0.5,0.4-0.8,0.9-0.8,1.5
		c0,0.5,0.1,0.8,0.4,1.1s0.6,0.5,1.1,0.6s1,0.3,1.8,0.5c1,0.2,1.8,0.5,2.4,0.8c0.6,0.3,1.2,0.7,1.6,1.2c0.4,0.5,0.7,1.2,0.7,2.1
		C305.5,262.7,305.1,263.6,304.4,264.3z"/>
	<path class="st16" d="M317.6,264.6c0,0.7-0.4,1.1-1.2,1.1h-7.8c-0.4,0-0.6-0.1-0.8-0.3s-0.3-0.5-0.3-0.8c0-0.4,0.2-0.8,0.5-1.1
		l4.7-5c0.6-0.6,1-1.2,1.3-1.7c0.3-0.5,0.4-1,0.4-1.6c0-0.6-0.2-1.1-0.6-1.5c-0.4-0.3-0.9-0.5-1.6-0.5c-0.6,0-1.1,0.1-1.6,0.3
		c-0.5,0.2-1.1,0.5-1.6,0.9c-0.1,0.1-0.3,0.2-0.4,0.2s-0.3,0.1-0.4,0.1c-0.2,0-0.4-0.1-0.6-0.3c-0.2-0.2-0.3-0.5-0.3-0.8
		c0-0.2,0-0.4,0.1-0.5s0.2-0.3,0.4-0.4c0.6-0.5,1.3-0.9,2.1-1.1s1.6-0.4,2.4-0.4c1.4,0,2.5,0.4,3.4,1.1s1.3,1.7,1.3,2.9
		c0,0.8-0.2,1.6-0.5,2.3c-0.4,0.7-1,1.5-1.8,2.4l-3.5,3.8h5.4C317.2,263.5,317.6,263.9,317.6,264.6z"/>
	<path class="st16" d="M327.8,257c0.7,0.4,1.2,0.9,1.6,1.6c0.4,0.7,0.6,1.5,0.6,2.4c0,0.9-0.2,1.8-0.6,2.5c-0.4,0.7-1,1.3-1.8,1.7
		c-0.8,0.4-1.7,0.6-2.7,0.6c-0.8,0-1.7-0.1-2.5-0.4c-0.8-0.3-1.5-0.7-2.1-1.1c-0.3-0.3-0.5-0.6-0.5-1c0-0.3,0.1-0.6,0.3-0.8
		s0.4-0.3,0.6-0.3c0.1,0,0.3,0,0.4,0.1s0.3,0.1,0.4,0.2c0.5,0.4,1.1,0.7,1.6,0.9c0.5,0.2,1.1,0.3,1.7,0.3c0.9,0,1.6-0.2,2.1-0.7
		c0.5-0.5,0.7-1.1,0.7-1.9c0-0.8-0.2-1.4-0.7-1.9c-0.5-0.5-1.2-0.7-2-0.7c-0.5,0-1,0.1-1.4,0.2c-0.4,0.2-0.8,0.4-1.3,0.8
		c-0.3,0.2-0.5,0.3-0.8,0.3c-0.3,0-0.5-0.1-0.7-0.2s-0.3-0.4-0.3-0.7v-6.4c0-0.4,0.1-0.7,0.3-0.9c0.2-0.2,0.5-0.3,0.9-0.3h6.8
		c0.8,0,1.2,0.3,1.2,1c0,0.7-0.4,1-1.2,1h-5.5v3.9c0.7-0.5,1.5-0.7,2.6-0.7C326.3,256.4,327.1,256.6,327.8,257z"/>
</g>
<g class="st15">
	<path class="st16" d="M304.4,308.3c-0.8,0.8-1.8,1.2-3.1,1.4v1.3c0,0.3-0.1,0.6-0.3,0.8s-0.4,0.3-0.8,0.3c-0.3,0-0.6-0.1-0.8-0.3
		c-0.2-0.2-0.3-0.5-0.3-0.8v-1.2c-0.8-0.1-1.5-0.2-2.3-0.5c-0.7-0.3-1.4-0.6-1.9-1c-0.2-0.1-0.3-0.3-0.4-0.4s-0.1-0.3-0.1-0.6
		c0-0.3,0.1-0.5,0.3-0.8c0.2-0.2,0.4-0.3,0.6-0.3c0.1,0,0.3,0,0.4,0.1s0.3,0.1,0.5,0.2c0.6,0.4,1.2,0.7,1.9,0.9
		c0.6,0.2,1.2,0.3,1.9,0.3c0.9,0,1.6-0.2,2.1-0.5c0.5-0.4,0.7-0.9,0.7-1.5c0-0.4-0.1-0.7-0.4-1c-0.3-0.2-0.6-0.4-1-0.6
		c-0.4-0.1-1-0.3-1.7-0.5c-1-0.3-1.9-0.5-2.5-0.8c-0.6-0.3-1.2-0.7-1.7-1.2c-0.5-0.5-0.7-1.3-0.7-2.2c0-1.1,0.4-2,1.2-2.8
		s1.8-1.3,3.1-1.5v-1.3c0-0.3,0.1-0.6,0.3-0.8c0.2-0.2,0.4-0.3,0.8-0.3c0.3,0,0.6,0.1,0.8,0.3c0.2,0.2,0.3,0.5,0.3,0.8v1.3
		c1.4,0.2,2.6,0.7,3.6,1.5c0.3,0.2,0.5,0.6,0.5,1c0,0.3-0.1,0.5-0.3,0.8c-0.2,0.2-0.4,0.3-0.6,0.3c-0.1,0-0.2,0-0.4-0.1
		s-0.3-0.1-0.5-0.2c-0.6-0.4-1.1-0.7-1.6-0.9c-0.5-0.2-1.1-0.3-1.8-0.3c-0.8,0-1.5,0.2-2,0.6c-0.5,0.4-0.8,0.9-0.8,1.5
		c0,0.5,0.1,0.8,0.4,1.1s0.6,0.5,1.1,0.6s1,0.3,1.8,0.5c1,0.2,1.8,0.5,2.4,0.8c0.6,0.3,1.2,0.7,1.6,1.2c0.4,0.5,0.7,1.2,0.7,2.1
		C305.5,306.7,305.1,307.6,304.4,308.3z"/>
</g>
<g class="st15">
	<path class="st16" d="M316.5,303.5c0.5,0.6,0.7,1.4,0.7,2.3c0,1.2-0.5,2.2-1.4,3s-2.2,1.1-3.7,1.1c-0.9,0-1.7-0.1-2.6-0.4
		c-0.8-0.3-1.5-0.7-2.1-1.1c-0.3-0.3-0.5-0.6-0.5-1c0-0.3,0.1-0.6,0.3-0.8s0.4-0.3,0.6-0.3c0.1,0,0.3,0,0.4,0.1
		c0.1,0,0.3,0.1,0.5,0.2c0.6,0.4,1.1,0.7,1.6,0.9c0.5,0.2,1.1,0.3,1.7,0.3c0.9,0,1.6-0.2,2-0.5c0.4-0.4,0.7-0.9,0.7-1.6
		c0-0.7-0.2-1.3-0.7-1.6c-0.5-0.3-1.2-0.5-2.1-0.5h-1.2c-0.3,0-0.6-0.1-0.7-0.3s-0.3-0.5-0.3-0.7c0-0.3,0.1-0.5,0.3-0.7
		s0.4-0.3,0.7-0.3h0.8c1.9,0,2.8-0.7,2.8-2.1c0-0.7-0.2-1.2-0.6-1.5c-0.4-0.4-0.9-0.5-1.6-0.5c-1,0-2.1,0.4-3.2,1.2
		c-0.2,0.1-0.3,0.2-0.5,0.2s-0.2,0.1-0.4,0.1c-0.2,0-0.4-0.1-0.6-0.3s-0.3-0.5-0.3-0.8c0-0.2,0-0.4,0.1-0.5s0.2-0.3,0.4-0.4
		c0.6-0.5,1.3-0.9,2.1-1.1c0.8-0.3,1.6-0.4,2.4-0.4c1.4,0,2.6,0.3,3.4,1c0.8,0.7,1.3,1.6,1.3,2.8c0,0.8-0.2,1.5-0.6,2.1
		c-0.4,0.6-1,1-1.7,1.3C315.4,302.4,316.1,302.9,316.5,303.5z"/>
	<path class="st16" d="M328.8,301c0.7,0.4,1.2,0.9,1.6,1.6c0.4,0.7,0.6,1.5,0.6,2.4c0,0.9-0.2,1.8-0.6,2.5c-0.4,0.7-1,1.3-1.8,1.7
		c-0.8,0.4-1.7,0.6-2.7,0.6c-0.8,0-1.7-0.1-2.5-0.4c-0.8-0.3-1.5-0.7-2.1-1.1c-0.3-0.3-0.5-0.6-0.5-1c0-0.3,0.1-0.6,0.3-0.8
		s0.4-0.3,0.6-0.3c0.1,0,0.3,0,0.4,0.1s0.3,0.1,0.4,0.2c0.5,0.4,1.1,0.7,1.6,0.9c0.5,0.2,1.1,0.3,1.7,0.3c0.9,0,1.6-0.2,2.1-0.7
		c0.5-0.5,0.7-1.1,0.7-1.9c0-0.8-0.2-1.4-0.7-1.9c-0.5-0.5-1.2-0.7-2-0.7c-0.5,0-1,0.1-1.4,0.2c-0.4,0.2-0.8,0.4-1.3,0.8
		c-0.3,0.2-0.5,0.3-0.8,0.3c-0.3,0-0.5-0.1-0.7-0.2s-0.3-0.4-0.3-0.7v-6.4c0-0.4,0.1-0.7,0.3-0.9c0.2-0.2,0.5-0.3,0.9-0.3h6.8
		c0.8,0,1.2,0.3,1.2,1c0,0.7-0.4,1-1.2,1h-5.5v3.9c0.7-0.5,1.5-0.7,2.6-0.7C327.3,300.4,328.1,300.6,328.8,301z"/>
</g>
<g class="st15">
	<path class="st16" d="M304.4,352.3c-0.8,0.8-1.8,1.2-3.1,1.4v1.3c0,0.3-0.1,0.6-0.3,0.8s-0.4,0.3-0.8,0.3c-0.3,0-0.6-0.1-0.8-0.3
		c-0.2-0.2-0.3-0.5-0.3-0.8v-1.2c-0.8-0.1-1.5-0.2-2.3-0.5c-0.7-0.3-1.4-0.6-1.9-1c-0.2-0.1-0.3-0.3-0.4-0.4s-0.1-0.3-0.1-0.6
		c0-0.3,0.1-0.5,0.3-0.8c0.2-0.2,0.4-0.3,0.6-0.3c0.1,0,0.3,0,0.4,0.1s0.3,0.1,0.5,0.2c0.6,0.4,1.2,0.7,1.9,0.9
		c0.6,0.2,1.2,0.3,1.9,0.3c0.9,0,1.6-0.2,2.1-0.5c0.5-0.4,0.7-0.9,0.7-1.5c0-0.4-0.1-0.7-0.4-1c-0.3-0.2-0.6-0.4-1-0.6
		c-0.4-0.1-1-0.3-1.7-0.5c-1-0.3-1.9-0.5-2.5-0.8c-0.6-0.3-1.2-0.7-1.7-1.2c-0.5-0.5-0.7-1.3-0.7-2.2c0-1.1,0.4-2,1.2-2.8
		s1.8-1.3,3.1-1.5v-1.3c0-0.3,0.1-0.6,0.3-0.8c0.2-0.2,0.4-0.3,0.8-0.3c0.3,0,0.6,0.1,0.8,0.3c0.2,0.2,0.3,0.5,0.3,0.8v1.3
		c1.4,0.2,2.6,0.7,3.6,1.5c0.3,0.2,0.5,0.6,0.5,1c0,0.3-0.1,0.5-0.3,0.8c-0.2,0.2-0.4,0.3-0.6,0.3c-0.1,0-0.2,0-0.4-0.1
		s-0.3-0.1-0.5-0.2c-0.6-0.4-1.1-0.7-1.6-0.9c-0.5-0.2-1.1-0.3-1.8-0.3c-0.8,0-1.5,0.2-2,0.6c-0.5,0.4-0.8,0.9-0.8,1.5
		c0,0.5,0.1,0.8,0.4,1.1s0.6,0.5,1.1,0.6s1,0.3,1.8,0.5c1,0.2,1.8,0.5,2.4,0.8c0.6,0.3,1.2,0.7,1.6,1.2c0.4,0.5,0.7,1.2,0.7,2.1
		C305.5,350.7,305.1,351.6,304.4,352.3z"/>
</g>
<g class="st15">
	<path class="st16" d="M317.7,352.6c0,0.7-0.4,1.1-1.2,1.1h-6.9c-0.8,0-1.2-0.4-1.2-1.1c0-0.7,0.4-1,1.2-1h2.1v-9.3l-2,1.2
		c-0.2,0.1-0.4,0.2-0.5,0.2c-0.3,0-0.5-0.1-0.7-0.4c-0.2-0.2-0.3-0.5-0.3-0.8c0-0.4,0.2-0.7,0.5-0.9l3.2-2c0.4-0.2,0.8-0.4,1.2-0.4
		c0.4,0,0.7,0.1,0.9,0.3c0.2,0.2,0.3,0.6,0.3,1v11.1h2.2C317.3,351.5,317.7,351.9,317.7,352.6z"/>
	<path class="st16" d="M330.9,352.6c0,0.7-0.4,1.1-1.2,1.1h-7.8c-0.4,0-0.6-0.1-0.8-0.3c-0.2-0.2-0.3-0.5-0.3-0.8
		c0-0.4,0.2-0.8,0.5-1.1l4.7-5c0.6-0.6,1-1.2,1.3-1.7c0.3-0.5,0.4-1,0.4-1.6c0-0.6-0.2-1.1-0.6-1.5c-0.4-0.3-0.9-0.5-1.6-0.5
		c-0.6,0-1.1,0.1-1.6,0.3c-0.5,0.2-1.1,0.5-1.6,0.9c-0.1,0.1-0.3,0.2-0.4,0.2s-0.3,0.1-0.4,0.1c-0.2,0-0.4-0.1-0.6-0.3
		c-0.2-0.2-0.3-0.5-0.3-0.8c0-0.2,0-0.4,0.1-0.5c0.1-0.2,0.2-0.3,0.4-0.4c0.6-0.5,1.3-0.9,2.1-1.1c0.8-0.3,1.6-0.4,2.4-0.4
		c1.4,0,2.5,0.4,3.4,1.1s1.3,1.7,1.3,2.9c0,0.8-0.2,1.6-0.5,2.3s-1,1.5-1.8,2.4l-3.5,3.8h5.4C330.5,351.5,330.9,351.9,330.9,352.6z"
		/>
</g>
<g>
	<g>
		<g>
			<line class="st17" x1="203.1" y1="265" x2="286.6" y2="265"/>
		</g>
	</g>
</g>
<g>
	<g>
		<g>
			<line class="st17" x1="178.1" y1="307.5" x2="281.6" y2="307.5"/>
		</g>
	</g>
</g>
<g>
	<g>
		<g>
			<line class="st17" x1="168.1" y1="351.6" x2="281.6" y2="351.6"/>
		</g>
	</g>
</g>
<g>
	<g>
		<g>
			<line class="st17" x1="168.1" y1="217.5" x2="281.6" y2="217.5"/>
		</g>
	</g>
</g>
<g>
	<path class="st18" d="M92.1,206.8l-1.8-3.7c-0.9,0.3-2.1-0.1-2.5-1.1l-27.2,12.8c0.4,1,0.1,2-0.7,2.5l1.8,3.7
		c0.9-0.3,2.1,0.1,2.5,1.1l0,0c0.4,1,0.1,2-0.7,2.5l1.8,3.7c0.9-0.3,2.1,0.1,2.5,1.1l0,0l0,0L95,216.8l0,0l0,0c-0.4-1-0.1-2,0.7-2.5
		l-1.8-3.7c-0.9,0.3-2.1-0.1-2.5-1.1l0,0C90.9,208.4,91.2,207.4,92.1,206.8z"/>
	<g>
		<path class="st19" d="M83.9,205.4L83.9,205.4l-0.7-1.3c-0.1-0.4-0.1-0.7,0.3-0.9c0.4-0.1,0.7-0.1,0.9,0.3l0.6,1.2
			c0.1,0.4,0.1,0.7-0.3,0.9C84.5,205.8,84.1,205.7,83.9,205.4z"/>
		<path class="st19" d="M88.7,215.4L88.7,215.4l-1.2-2.6c-0.1-0.4-0.1-0.7,0.3-0.9c0.4-0.1,0.7-0.1,0.9,0.3l1.2,2.5
			c0.1,0.4,0.1,0.7-0.3,0.9C89.1,215.7,88.9,215.6,88.7,215.4z M86.3,210.5L86.3,210.5l-1.2-2.6c-0.1-0.4-0.1-0.7,0.3-0.9
			s0.7-0.1,0.9,0.3l1.2,2.5c0.1,0.4,0.1,0.7-0.3,0.9C86.8,210.8,86.4,210.7,86.3,210.5z"/>
		<path class="st19" d="M90.4,219.1L90.4,219.1l-0.7-1.3c-0.1-0.4-0.1-0.7,0.3-0.9c0.4-0.1,0.7-0.1,0.9,0.3l0.6,1.2
			c0.1,0.4,0.1,0.7-0.3,0.9C91,219.5,90.6,219.4,90.4,219.1z"/>
		
			<rect x="65.3" y="211" transform="matrix(0.904 -0.4276 0.4276 0.904 -85.4681 53.1221)" class="st19" width="20.5" height="11.7"/>
	</g>
	<polygon class="st10" points="74,213.5 76.1,215.7 78.7,214.5 77.3,217 79.4,219.2 76.4,218.7 75,221.3 74.6,218.3 71.7,217.7 
		74.3,216.5 	"/>
</g>
<polygon class="st14" points="230.2,161.1 225.6,170.2 221,161.1 212.1,179 221.2,179 230,179 239.1,179 "/>
<polygon class="st14" points="316.2,161.1 311.6,170.2 307,161.1 298.1,179 307.2,179 316,179 325.1,179 "/>
<polygon class="st14" points="208.7,161.1 204.1,170.2 199.5,161.1 190.6,179 199.7,179 208.5,179 217.6,179 "/>
<polygon class="st14" points="294.7,161.1 290.1,170.2 285.5,161.1 276.6,179 285.7,179 294.5,179 303.6,179 "/>
<polygon class="st14" points="187.2,161.1 182.6,170.2 178,161.1 169.1,179 178.2,179 187,179 196.1,179 "/>
<polygon class="st14" points="273.2,161.1 268.6,170.2 264,161.1 255.1,179 264.2,179 273,179 282.1,179 "/>
<polygon class="st14" points="122.7,161.1 118.1,170.2 113.6,161.1 104.6,179 113.7,179 122.5,179 131.6,179 "/>
<polygon class="st14" points="251.7,161.1 247.1,170.2 242.5,161.1 233.6,179 242.7,179 251.5,179 260.6,179 "/>
<polygon class="st14" points="58.2,161.1 53.6,170.2 49.1,161.1 40.1,179 49.2,179 58,179 67.1,179 "/>
<polygon class="st14" points="337.7,161.1 333.1,170.2 328.5,161.1 319.6,179 328.7,179 337.5,179 346.6,179 "/>
<polygon class="st14" points="165.7,161.1 161.1,170.2 156.5,161.1 147.6,179 156.7,179 165.5,179 174.6,179 "/>
<polygon class="st14" points="101.2,161.1 96.6,170.2 92.1,161.1 83.1,179 92.2,179 101,179 110.1,179 "/>
<polygon class="st14" points="144.2,161.1 139.6,170.2 135,161.1 126.1,179 135.2,179 144,179 153.1,179 "/>
<polygon class="st14" points="79.7,161.1 75.1,170.2 70.6,161.1 61.6,179 70.7,179 79.5,179 88.6,179 "/>
<g>
	<path class="st20" d="M90.2,244.3H65c-1.2,0-2.2,1-2.2,2.2v25.2c0,1.2,1,2.2,2.2,2.2h25.2c1.2,0,2.2-1,2.2-2.2v-25.2
		C92.4,245.3,91.4,244.3,90.2,244.3z"/>
	<polygon class="st21" points="77.2,259.8 84.2,252.8 89.7,258.3 89.7,246.8 65.6,246.8 65.6,260.9 71.9,254.6 	"/>
	<polygon class="st22" points="84.2,252.8 77.2,259.8 71.9,254.6 65.6,260.9 65.6,267.2 89.7,267.2 89.7,258.3 	"/>
	<circle class="st23" cx="77.4" cy="251.7" r="2.1"/>
</g>
<g>
	<path class="st24" d="M77.2,352.6l-3.1,7.9c-0.6,1.6-2.4,2.4-4,1.8c-1.6-0.6-2.4-2.4-1.8-4l3.1-7.9L77.2,352.6z"/>
	<g>
		<path class="st25" d="M70.3,359.1l3.1-7.8l-2-0.8l-3.1,7.8c-0.6,1.6,0.2,3.4,1.8,4c0.4,0.1,0.7,0.2,1.1,0.2
			C70.2,361.7,69.8,360.3,70.3,359.1z"/>
		
			<rect x="72.6" y="349.6" transform="matrix(0.3637 -0.9315 0.9315 0.3637 -281.6217 293.1709)" class="st25" width="2.4" height="6.2"/>
	</g>
	<path class="st26" d="M91,333.2l-7.6,19.4c-0.5,1.2-1.9,1.9-3.1,1.4l-12.1-4.7c-1.2-0.5-1.9-1.9-1.4-3.1l7.6-19.4
		c0.5-1.2,1.9-1.9,3.1-1.4l12.1,4.7C90.9,330.5,91.5,331.9,91,333.2z"/>
	<path class="st27" d="M91,333.2l-3,7.7l-16.6-6.5l3-7.7c0.5-1.2,1.9-1.9,3.1-1.4l12.1,4.7C90.9,330.5,91.5,331.9,91,333.2z"/>
</g>
<g>
	<path class="st28" d="M91.4,286.2c-2.4-1.9-7.6-3.1-7.8-3.1c-0.4-0.1-0.8,0.2-0.9,0.6c0,0.1,0,0.1,0,0.2c0,1-2.1,2.2-4.5,2.2
		s-4.5-1.2-4.5-2.2c0-0.2-0.1-0.4-0.3-0.6c-0.2-0.1-0.4-0.2-0.6-0.1c-0.2,0-5.4,1.2-7.8,3.1c-2.5,2-3.2,11.4-3.3,12.5
		c0,0.3,0.1,0.6,0.4,0.7c1.8,0.8,3.6,1.3,5.6,1.5v15.7c0,0.3,0.2,0.5,0.4,0.7c0.1,0.1,3.1,1.6,10.1,1.6s10-1.5,10.1-1.6
		c0.2-0.1,0.4-0.4,0.4-0.7V301c1.9-0.2,3.8-0.7,5.6-1.5c0.3-0.1,0.4-0.4,0.4-0.7C94.6,297.6,93.9,288.2,91.4,286.2z"/>
	<g>
		<path class="st29" d="M68.5,301c-0.4,0-0.7-0.3-0.7-0.7v-4.5c0.1-1.4-0.4-2.8-1.3-4c-0.3-0.3-0.3-0.8,0-1.1c0.3-0.3,0.7-0.3,1,0
			c1.2,1.4,1.8,3.2,1.7,5v4.5C69.2,300.7,68.9,301,68.5,301z"/>
		<path class="st29" d="M88,301c-0.4,0-0.7-0.3-0.7-0.7v-4.5c-0.1-1.8,0.5-3.6,1.7-5c0.3-0.3,0.8-0.3,1.1,0c0.3,0.3,0.3,0.8,0,1.1
			c0,0,0,0,0,0c-0.9,1.1-1.3,2.5-1.3,4v4.5C88.7,300.7,88.4,301,88,301z"/>
	</g>
	<path class="st30" d="M83.9,283.2c-0.2-0.1-0.4-0.2-0.6-0.2c-1.7,0.3-3.4,0.6-5.1,0.7c-1.7-0.1-3.4-0.4-5.1-0.7
		c-0.2,0-0.4,0-0.6,0.2c-0.2,0.1-0.3,0.4-0.3,0.6c0,2.2,3.1,3.7,6,3.7c2.9,0,6-1.5,6-3.7C84.2,283.6,84.1,283.4,83.9,283.2z"/>
</g>
</svg>
