<?xml version="1.0" encoding="utf-8"?>
<!-- Generator: Adobe Illustrator 22.1.0, SVG Export Plug-In . SVG Version: 6.00 Build 0)  -->
<svg version="1.1" id="Layer_1" xmlns="http://www.w3.org/2000/svg" xmlns:xlink="http://www.w3.org/1999/xlink" x="0px" y="0px"
	 viewBox="0 0 184.7 40" style="enable-background:new 0 0 184.7 40;" xml:space="preserve">
<style type="text/css">
	.st0{fill:#637BA1;}
	.st1{fill:#FFFFFF;stroke:#FFFFFF;stroke-width:3;stroke-linecap:round;stroke-linejoin:round;stroke-miterlimit:10;}
	.st2{fill:#FFD782;}
	.st3{fill:#FF6465;}
	.st4{fill:#FFFFFF;}
	.st5{fill:#FCFCFD;}
	.st6{fill:#6EB1E1;}
	.st7{fill:#4F5565;}
	.st8{fill:#FFFFFC;}
	.st9{fill:#F9DB87;}
	.st10{fill:#E5B94C;}
	.st11{fill:#B5600B;}
	.st12{fill:#FCEDCA;}
	.st13{fill:#03A9F4;}
	.st14{fill:#0288D1;}
	.st15{fill:#1976D2;}
</style>
<g id="Layer_2_1_">
	<g>
		<path class="st0" d="M184.7,0H0v40h184.7V0L184.7,0z"/>
	</g>
</g>
<g>
	<g>
		<path class="st1" d="M32.1,7.6l-3-1.8c-0.5,0.6-1.5,0.9-2.3,0.4l-13.2,22c0.8,0.5,1,1.4,0.7,2.1l3,1.8c0.5-0.6,1.5-0.9,2.3-0.4
			l0,0c0.8,0.5,1,1.4,0.7,2.1l3,1.8c0.5-0.6,1.5-0.9,2.3-0.4l0,0l0,0l13.3-21.9l0,0l0,0c-0.8-0.5-1-1.4-0.7-2.1l-3-1.8
			c-0.5,0.6-1.5,0.9-2.3,0.4l0,0C32,9.3,31.7,8.4,32.1,7.6z"/>
		<g>
			<path class="st1" d="M25.6,10.5L25.6,10.5l-1.1-0.6c-0.3-0.2-0.4-0.4-0.2-0.8c0.2-0.3,0.4-0.4,0.8-0.2l1,0.6
				c0.3,0.2,0.4,0.4,0.2,0.8C26.2,10.5,25.9,10.6,25.6,10.5z"/>
			<path class="st1" d="M33.8,15.3L33.8,15.3L31.7,14c-0.3-0.2-0.4-0.4-0.2-0.8c0.2-0.3,0.4-0.4,0.8-0.2l2,1.2
				c0.3,0.2,0.4,0.4,0.2,0.8C34.2,15.3,34,15.3,33.8,15.3z M29.7,13L29.7,13l-2.1-1.3c-0.3-0.2-0.4-0.4-0.2-0.8
				c0.2-0.3,0.4-0.4,0.8-0.2l2,1.2c0.3,0.2,0.4,0.4,0.2,0.8C30.2,12.9,29.9,13.1,29.7,13z"/>
			<path class="st1" d="M36.7,17.1L36.7,17.1l-1.1-0.6c-0.3-0.2-0.4-0.4-0.2-0.8c0.2-0.3,0.4-0.4,0.8-0.2l1,0.6
				c0.3,0.2,0.4,0.4,0.2,0.8C37.3,17.1,37,17.2,36.7,17.1z"/>
			
				<rect x="16.4" y="17.6" transform="matrix(0.5123 -0.8588 0.8588 0.5123 -7.1497 32.5818)" class="st1" width="17.5" height="10"/>
		</g>
		<polygon class="st1" points="22.4,20.9 25,21.5 26.2,19.4 26.4,21.9 29,22.4 26.6,23.5 26.8,26 25.1,24.1 22.8,25 24.1,22.9 		"/>
	</g>
	<g>
		<path class="st1" d="M56,6.3l-3-1.8c-0.5,0.6-1.5,0.9-2.3,0.4L37.5,27c0.8,0.5,1,1.4,0.7,2.1l3,1.8c0.5-0.6,1.5-0.9,2.3-0.4l0,0
			c0.8,0.5,1,1.4,0.7,2.1l3,1.8c0.5-0.6,1.5-0.9,2.3-0.4l0,0l0,0L62.8,12l0,0l0,0c-0.8-0.5-1-1.4-0.7-2.1l-3-1.8
			c-0.5,0.6-1.5,0.9-2.3,0.4l0,0C55.9,8,55.7,7.1,56,6.3z"/>
		<g>
			<path class="st1" d="M49.5,9.2L49.5,9.2l-1.1-0.6c-0.3-0.2-0.4-0.4-0.2-0.8c0.2-0.3,0.4-0.4,0.8-0.2l1,0.6
				c0.3,0.2,0.4,0.4,0.2,0.8C50.1,9.2,49.8,9.3,49.5,9.2z"/>
			<path class="st1" d="M57.7,14L57.7,14l-2.1-1.3c-0.3-0.2-0.4-0.4-0.2-0.8c0.2-0.3,0.4-0.4,0.8-0.2l2,1.2c0.3,0.2,0.4,0.4,0.2,0.8
				C58.1,14,57.9,14.1,57.7,14z M53.7,11.7L53.7,11.7l-2.1-1.3c-0.3-0.2-0.4-0.4-0.2-0.8c0.2-0.3,0.4-0.4,0.8-0.2l2,1.2
				c0.3,0.2,0.4,0.4,0.2,0.8C54.2,11.7,53.8,11.8,53.7,11.7z"/>
			<path class="st1" d="M60.7,15.8L60.7,15.8l-1.1-0.6c-0.3-0.2-0.4-0.4-0.2-0.8c0.2-0.3,0.4-0.4,0.8-0.2l1,0.6
				c0.3,0.2,0.4,0.4,0.2,0.8C61.3,15.8,60.9,15.9,60.7,15.8z"/>
			
				<rect x="40.3" y="16.3" transform="matrix(0.5123 -0.8588 0.8588 0.5123 5.6232 52.5135)" class="st1" width="17.5" height="10"/>
		</g>
		<polygon class="st1" points="46.4,19.7 48.9,20.2 50.2,18.1 50.4,20.6 52.9,21.1 50.5,22.2 50.8,24.7 49.1,22.8 46.7,23.7 
			48,21.6 		"/>
	</g>
	<g>
		<path class="st1" d="M98,8H76.5c-1,0-1.9,0.9-1.9,1.9v21.5c0,1,0.9,1.9,1.9,1.9H98c1,0,1.9-0.9,1.9-1.9V9.9C99.9,8.8,99.1,8,98,8z
			"/>
		<polygon class="st1" points="86.9,21.2 92.9,15.2 97.6,19.9 97.6,10.1 77,10.1 77,22.1 82.4,16.8 		"/>
		<polygon class="st1" points="92.9,15.2 86.9,21.2 82.4,16.8 77,22.1 77,27.5 97.6,27.5 97.6,19.9 		"/>
		<circle class="st1" cx="87.1" cy="14.3" r="1.8"/>
	</g>
	<g>
		<path class="st1" d="M160.1,27.2l-2.3,5.8c-0.5,1.2-1.8,1.7-2.9,1.3c-1.2-0.5-1.7-1.8-1.3-2.9l2.3-5.8L160.1,27.2z"/>
		<g>
			<path class="st1" d="M155.1,32l2.2-5.7l-1.5-0.6l-2.2,5.7c-0.5,1.2,0.1,2.5,1.3,2.9c0.3,0.1,0.5,0.2,0.8,0.2
				C155,33.9,154.8,32.9,155.1,32z"/>
			
				<rect x="156.8" y="25" transform="matrix(0.3637 -0.9315 0.9315 0.3637 74.878 164.2507)" class="st1" width="1.8" height="4.5"/>
		</g>
		<path class="st1" d="M170.2,13l-5.5,14.2c-0.4,0.9-1.4,1.4-2.3,1l-8.8-3.5c-0.9-0.4-1.4-1.4-1-2.3l5.5-14.2c0.4-0.9,1.4-1.4,2.3-1
			l8.8,3.5C170.1,11.1,170.6,12.1,170.2,13z"/>
		<path class="st1" d="M170.2,13l-2.2,5.6l-12.2-4.7l2.2-5.6c0.4-0.9,1.4-1.4,2.3-1l8.8,3.5C170.1,11.1,170.6,12.1,170.2,13z"/>
	</g>
	<g>
		<path class="st1" d="M135.2,8c-2.1-1.6-6.5-2.6-6.6-2.7c-0.3-0.1-0.7,0.1-0.8,0.5c0,0,0,0.1,0,0.1c0,0.9-1.8,1.9-3.8,1.9
			s-3.8-1.1-3.8-1.9c0-0.2-0.1-0.4-0.2-0.5c-0.2-0.1-0.4-0.2-0.5-0.1c-0.2,0-4.6,1.1-6.6,2.7c-2.1,1.7-2.7,9.8-2.8,10.7
			c0,0.3,0.1,0.5,0.4,0.6c1.5,0.7,3.1,1.1,4.8,1.3v13.5c0,0.2,0.1,0.5,0.3,0.6c0.1,0.1,2.6,1.4,8.6,1.4s8.5-1.3,8.6-1.4
			c0.2-0.1,0.3-0.3,0.3-0.6V20.7c1.6-0.2,3.3-0.6,4.8-1.3c0.2-0.1,0.4-0.4,0.4-0.6C137.9,17.8,137.3,9.7,135.2,8z"/>
		<g>
			<path class="st1" d="M115.6,20.7c-0.4,0-0.6-0.3-0.6-0.6v-3.8c0.1-1.2-0.3-2.4-1.1-3.4c-0.2-0.3-0.2-0.7,0-0.9
				c0.2-0.2,0.6-0.2,0.9,0c1,1.2,1.5,2.7,1.5,4.3v3.8C116.3,20.4,116,20.7,115.6,20.7z"/>
			<path class="st1" d="M132.3,20.7c-0.4,0-0.6-0.3-0.6-0.6v-3.8c-0.1-1.6,0.5-3.1,1.5-4.3c0.2-0.3,0.6-0.3,0.9,0
				c0.3,0.2,0.3,0.6,0,0.9c0,0,0,0,0,0c-0.8,1-1.1,2.2-1.1,3.4v3.8C132.9,20.4,132.6,20.7,132.3,20.7z"/>
		</g>
		<path class="st1" d="M128.8,5.5c-0.1-0.1-0.3-0.2-0.5-0.1c-1.4,0.3-2.9,0.5-4.4,0.6c-1.5-0.1-2.9-0.3-4.4-0.6
			c-0.2,0-0.4,0-0.5,0.1c-0.1,0.1-0.2,0.3-0.2,0.5c0,1.9,2.6,3.2,5.1,3.2c2.5,0,5.1-1.3,5.1-3.2C129.1,5.8,129,5.6,128.8,5.5z"/>
	</g>
</g>
<g>
	<g>
		<path class="st2" d="M32.1,7.6l-3-1.8c-0.5,0.6-1.5,0.9-2.3,0.4l-13.2,22c0.8,0.5,1,1.4,0.7,2.1l3,1.8c0.5-0.6,1.5-0.9,2.3-0.4
			l0,0c0.8,0.5,1,1.4,0.7,2.1l3,1.8c0.5-0.6,1.5-0.9,2.3-0.4l0,0l0,0l13.3-21.9l0,0l0,0c-0.8-0.5-1-1.4-0.7-2.1l-3-1.8
			c-0.5,0.6-1.5,0.9-2.3,0.4l0,0C32,9.3,31.7,8.4,32.1,7.6z"/>
		<g>
			<path class="st3" d="M25.6,10.5L25.6,10.5l-1.1-0.6c-0.3-0.2-0.4-0.4-0.2-0.8c0.2-0.3,0.4-0.4,0.8-0.2l1,0.6
				c0.3,0.2,0.4,0.4,0.2,0.8C26.2,10.5,25.9,10.6,25.6,10.5z"/>
			<path class="st3" d="M33.8,15.3L33.8,15.3L31.7,14c-0.3-0.2-0.4-0.4-0.2-0.8c0.2-0.3,0.4-0.4,0.8-0.2l2,1.2
				c0.3,0.2,0.4,0.4,0.2,0.8C34.2,15.3,34,15.3,33.8,15.3z M29.7,13L29.7,13l-2.1-1.3c-0.3-0.2-0.4-0.4-0.2-0.8
				c0.2-0.3,0.4-0.4,0.8-0.2l2,1.2c0.3,0.2,0.4,0.4,0.2,0.8C30.2,12.9,29.9,13.1,29.7,13z"/>
			<path class="st3" d="M36.7,17.1L36.7,17.1l-1.1-0.6c-0.3-0.2-0.4-0.4-0.2-0.8c0.2-0.3,0.4-0.4,0.8-0.2l1,0.6
				c0.3,0.2,0.4,0.4,0.2,0.8C37.3,17.1,37,17.2,36.7,17.1z"/>
			
				<rect x="16.4" y="17.6" transform="matrix(0.5123 -0.8588 0.8588 0.5123 -7.1497 32.5818)" class="st3" width="17.5" height="10"/>
		</g>
		<polygon class="st4" points="22.4,20.9 25,21.5 26.2,19.4 26.4,21.9 29,22.4 26.6,23.5 26.8,26 25.1,24.1 22.8,25 24.1,22.9 		"/>
	</g>
	<g>
		<path class="st2" d="M56,6.3l-3-1.8c-0.5,0.6-1.5,0.9-2.3,0.4L37.5,27c0.8,0.5,1,1.4,0.7,2.1l3,1.8c0.5-0.6,1.5-0.9,2.3-0.4l0,0
			c0.8,0.5,1,1.4,0.7,2.1l3,1.8c0.5-0.6,1.5-0.9,2.3-0.4l0,0l0,0L62.8,12l0,0l0,0c-0.8-0.5-1-1.4-0.7-2.1l-3-1.8
			c-0.5,0.6-1.5,0.9-2.3,0.4l0,0C55.9,8,55.7,7.1,56,6.3z"/>
		<g>
			<path class="st3" d="M49.5,9.2L49.5,9.2l-1.1-0.6c-0.3-0.2-0.4-0.4-0.2-0.8c0.2-0.3,0.4-0.4,0.8-0.2l1,0.6
				c0.3,0.2,0.4,0.4,0.2,0.8C50.1,9.2,49.8,9.3,49.5,9.2z"/>
			<path class="st3" d="M57.7,14L57.7,14l-2.1-1.3c-0.3-0.2-0.4-0.4-0.2-0.8c0.2-0.3,0.4-0.4,0.8-0.2l2,1.2c0.3,0.2,0.4,0.4,0.2,0.8
				C58.1,14,57.9,14.1,57.7,14z M53.7,11.7L53.7,11.7l-2.1-1.3c-0.3-0.2-0.4-0.4-0.2-0.8c0.2-0.3,0.4-0.4,0.8-0.2l2,1.2
				c0.3,0.2,0.4,0.4,0.2,0.8C54.2,11.7,53.8,11.8,53.7,11.7z"/>
			<path class="st3" d="M60.7,15.8L60.7,15.8l-1.1-0.6c-0.3-0.2-0.4-0.4-0.2-0.8c0.2-0.3,0.4-0.4,0.8-0.2l1,0.6
				c0.3,0.2,0.4,0.4,0.2,0.8C61.3,15.8,60.9,15.9,60.7,15.8z"/>
			
				<rect x="40.3" y="16.3" transform="matrix(0.5123 -0.8588 0.8588 0.5123 5.6232 52.5135)" class="st3" width="17.5" height="10"/>
		</g>
		<polygon class="st4" points="46.4,19.7 48.9,20.2 50.2,18.1 50.4,20.6 52.9,21.1 50.5,22.2 50.8,24.7 49.1,22.8 46.7,23.7 
			48,21.6 		"/>
	</g>
	<g>
		<path class="st5" d="M98,8H76.5c-1,0-1.9,0.9-1.9,1.9v21.5c0,1,0.9,1.9,1.9,1.9H98c1,0,1.9-0.9,1.9-1.9V9.9C99.9,8.8,99.1,8,98,8z
			"/>
		<polygon class="st6" points="86.9,21.2 92.9,15.2 97.6,19.9 97.6,10.1 77,10.1 77,22.1 82.4,16.8 		"/>
		<polygon class="st7" points="92.9,15.2 86.9,21.2 82.4,16.8 77,22.1 77,27.5 97.6,27.5 97.6,19.9 		"/>
		<circle class="st8" cx="87.1" cy="14.3" r="1.8"/>
	</g>
	<g>
		<path class="st9" d="M160.1,27.2l-2.3,5.8c-0.5,1.2-1.8,1.7-2.9,1.3c-1.2-0.5-1.7-1.8-1.3-2.9l2.3-5.8L160.1,27.2z"/>
		<g>
			<path class="st10" d="M155.1,32l2.2-5.7l-1.5-0.6l-2.2,5.7c-0.5,1.2,0.1,2.5,1.3,2.9c0.3,0.1,0.5,0.2,0.8,0.2
				C155,33.9,154.8,32.9,155.1,32z"/>
			
				<rect x="156.8" y="25" transform="matrix(0.3637 -0.9315 0.9315 0.3637 74.878 164.2507)" class="st10" width="1.8" height="4.5"/>
		</g>
		<path class="st11" d="M170.2,13l-5.5,14.2c-0.4,0.9-1.4,1.4-2.3,1l-8.8-3.5c-0.9-0.4-1.4-1.4-1-2.3l5.5-14.2
			c0.4-0.9,1.4-1.4,2.3-1l8.8,3.5C170.1,11.1,170.6,12.1,170.2,13z"/>
		<path class="st12" d="M170.2,13l-2.2,5.6l-12.2-4.7l2.2-5.6c0.4-0.9,1.4-1.4,2.3-1l8.8,3.5C170.1,11.1,170.6,12.1,170.2,13z"/>
	</g>
	<g>
		<path class="st13" d="M135.2,8c-2.1-1.6-6.5-2.6-6.6-2.7c-0.3-0.1-0.7,0.1-0.8,0.5c0,0,0,0.1,0,0.1c0,0.9-1.8,1.9-3.8,1.9
			s-3.8-1.1-3.8-1.9c0-0.2-0.1-0.4-0.2-0.5c-0.2-0.1-0.4-0.2-0.5-0.1c-0.2,0-4.6,1.1-6.6,2.7c-2.1,1.7-2.7,9.8-2.8,10.7
			c0,0.3,0.1,0.5,0.4,0.6c1.5,0.7,3.1,1.1,4.8,1.3v13.5c0,0.2,0.1,0.5,0.3,0.6c0.1,0.1,2.6,1.4,8.6,1.4s8.5-1.3,8.6-1.4
			c0.2-0.1,0.3-0.3,0.3-0.6V20.7c1.6-0.2,3.3-0.6,4.8-1.3c0.2-0.1,0.4-0.4,0.4-0.6C137.9,17.8,137.3,9.7,135.2,8z"/>
		<g>
			<path class="st14" d="M115.6,20.7c-0.4,0-0.6-0.3-0.6-0.6v-3.8c0.1-1.2-0.3-2.4-1.1-3.4c-0.2-0.3-0.2-0.7,0-0.9
				c0.2-0.2,0.6-0.2,0.9,0c1,1.2,1.5,2.7,1.5,4.3v3.8C116.3,20.4,116,20.7,115.6,20.7z"/>
			<path class="st14" d="M132.3,20.7c-0.4,0-0.6-0.3-0.6-0.6v-3.8c-0.1-1.6,0.5-3.1,1.5-4.3c0.2-0.3,0.6-0.3,0.9,0
				c0.3,0.2,0.3,0.6,0,0.9c0,0,0,0,0,0c-0.8,1-1.1,2.2-1.1,3.4v3.8C132.9,20.4,132.6,20.7,132.3,20.7z"/>
		</g>
		<path class="st15" d="M128.8,5.5c-0.1-0.1-0.3-0.2-0.5-0.1c-1.4,0.3-2.9,0.5-4.4,0.6c-1.5-0.1-2.9-0.3-4.4-0.6
			c-0.2,0-0.4,0-0.5,0.1c-0.1,0.1-0.2,0.3-0.2,0.5c0,1.9,2.6,3.2,5.1,3.2c2.5,0,5.1-1.3,5.1-3.2C129.1,5.8,129,5.6,128.8,5.5z"/>
	</g>
</g>
</svg>
