<?xml version="1.0" encoding="utf-8"?>
<!-- Generator: Adobe Illustrator 22.1.0, SVG Export Plug-In . SVG Version: 6.00 Build 0)  -->
<svg version="1.1" id="Layer_1" xmlns="http://www.w3.org/2000/svg" xmlns:xlink="http://www.w3.org/1999/xlink" x="0px" y="0px"
	 viewBox="0 0 400 400" style="enable-background:new 0 0 400 400;" xml:space="preserve">
<style type="text/css">
	.st0{fill:#FFFFFF;}
	.st1{fill:#333333;}
	.st2{fill:#1A1A1A;}
	.st3{fill:#ED1C24;}
	.st4{fill:#4D4D4D;}
	.st5{fill:#C0151B;}
	.st6{fill:#9E2F71;}
	.st7{fill:#66255E;}
	.st8{fill:#008EB8;}
	.st9{fill:#006E9D;}
	.st10{fill:#FFA900;}
	.st11{fill:#FF8800;}
</style>
<g>
	<g>
		<path class="st0" d="M182.5,75.8c-0.8,0-1.6-0.2-2.3-0.6c-1.2-0.6-2.1-1.7-2.5-2.9l-1.5-4.7l0,0c-3.5,3.4-8.1,5.3-13.1,5.3
			c-5,0-9.6-1.9-13.1-5.3l0,0l-1.5,4.7c-0.4,1.3-1.3,2.3-2.5,2.9c-0.7,0.4-1.5,0.6-2.3,0.6c-0.5,0-1-0.1-1.5-0.2l-2.8-0.9
			c-2.6-0.8-4.1-3.6-3.3-6.3l1.9-6.1c-0.6-0.2-1.2-0.6-1.6-1.1l-2.1-2.1c-2-1.9-2-5.1-0.1-7.1l5.6-5.7c-0.5-0.5-0.8-1.1-1-1.8
			l-2.6-8.3c-0.4-1.3-0.3-2.6,0.3-3.8c0.6-1.2,1.7-2.1,2.9-2.5l2.8-0.9c0.5-0.2,1-0.2,1.5-0.2c2.1,0,4.1,1.4,4.8,3.5l0.4,1.2
			c0.5-2,1.5-3.9,2.8-5.5c-0.3-0.7-0.5-1.4-0.5-2.3v-3c0-2.8,2.2-5,5-5c2.8,0,5.3,1.2,7,3c1.8-1.9,4.3-3,7-3c2.8,0,5,2.2,5,5v3
			c0,0.8-0.2,1.6-0.5,2.3c1.3,1.6,2.2,3.5,2.8,5.5l0.4-1.2c0.7-2.1,2.6-3.5,4.8-3.5c0.5,0,1,0.1,1.5,0.2l2.8,0.9
			c1.3,0.4,2.3,1.3,2.9,2.5c0.6,1.2,0.7,2.5,0.3,3.8l-2.6,8.3c-0.2,0.7-0.6,1.3-1,1.8l5.6,5.7c0.9,0.9,1.4,2.2,1.4,3.6
			c0,1.3-0.6,2.6-1.5,3.5l-2.1,2.1c-0.5,0.5-1,0.8-1.6,1.1l1.9,6.1c0.8,2.6-0.6,5.4-3.3,6.3l-2.8,0.9
			C183.5,75.7,183,75.8,182.5,75.8z"/>
		<path class="st0" d="M170.2,22.7v3c-1,0-1.7,0.8-1.7,1.7V29c2.7,1.7,4.4,4.7,4.4,8.1v3.3h4h0l0,0v1.7l3.4-1.3l2.2-7l2.8,0.9
			l-2.6,8.3l-5.8,2.3v4.3h5.7l5.8,6l-2.1,2.1l-5-5.1h-4.5v1.6c0,1.7-0.3,3.3-0.9,4.8l6.7,2.6l2.6,8.3l-2.8,0.9l-2.2-7l-5.6-2.2
			c-2.4,3.8-6.7,6.3-11.6,6.3s-9.1-2.5-11.6-6.3l-5.6,2.2l-2.2,7l-2.8-0.9l2.6-8.3l6.7-2.6c-0.6-1.5-0.9-3.1-0.9-4.8v-1.6h-4.5
			l-5,5.1l-2.1-2.1l5.8-6h5.7v-4.3l-5.8-2.3l-2.6-8.3l2.8-0.9l2.2,7l3.4,1.3v-1.7h0h4v-3.3c0-3.4,1.8-6.4,4.4-8.1v-1.6
			c0-1-0.8-1.7-1.7-1.7v-3c2.6,0,4.7,2.1,4.7,4.7v0.3c0.7-0.2,1.5-0.3,2.3-0.3c0.8,0,1.6,0.1,2.3,0.3v-0.3
			C165.5,24.9,167.6,22.7,170.2,22.7 M170.2,12.7c-2.5,0-4.9,0.6-7,1.8c-2.1-1.1-4.5-1.8-7-1.8c-5.5,0-10,4.5-10,10v1.3
			c-0.8-0.2-1.6-0.3-2.4-0.3c-1,0-2,0.2-3,0.5l-2.8,0.9c-5.3,1.7-8.2,7.3-6.5,12.6l2.4,7.6l-3.1,3.2c-1.9,1.9-2.9,4.5-2.8,7.1
			s1.1,5.2,3,7l1.4,1.4l-0.9,2.8c-0.8,2.5-0.6,5.3,0.7,7.6c1.2,2.4,3.3,4.1,5.9,4.9l2.8,0.9c1,0.3,2,0.5,3,0.5c3.7,0,7.1-2,8.8-5.3
			c3.2,1.6,6.8,2.5,10.5,2.5c3.7,0,7.3-0.9,10.5-2.5c1.7,3.3,5.2,5.3,8.8,5.3c1,0,2-0.2,3-0.5l2.8-0.9c5.3-1.7,8.2-7.3,6.5-12.6
			l-0.9-2.8l1.4-1.4c1.9-1.9,3-4.4,3-7s-1-5.2-2.8-7.1l-3.1-3.2l2.4-7.6c1.7-5.3-1.2-10.9-6.5-12.6l-2.8-0.9c-1-0.3-2-0.5-3-0.5
			c-0.8,0-1.6,0.1-2.4,0.3v-1.3C180.2,17.2,175.7,12.7,170.2,12.7L170.2,12.7z"/>
	</g>
	<g>
		<path class="st0" d="M251.4,75.8c-0.8,0-1.6-0.2-2.3-0.6c-1.2-0.6-2.1-1.7-2.5-2.9l-1.5-4.7l0,0c-3.5,3.4-8.1,5.3-13.1,5.3
			c-5,0-9.6-1.9-13.1-5.3l0,0l-1.5,4.7c-0.4,1.3-1.3,2.3-2.5,2.9c-0.7,0.4-1.5,0.6-2.3,0.6c-0.5,0-1-0.1-1.5-0.2l-2.8-0.9
			c-2.6-0.8-4.1-3.6-3.3-6.3l1.9-6.1c-0.6-0.2-1.2-0.6-1.6-1.1l-2.1-2.1c-2-1.9-2-5.1-0.1-7.1l5.6-5.7c-0.5-0.5-0.8-1.1-1-1.8
			l-2.6-8.3c-0.4-1.3-0.3-2.6,0.3-3.8c0.6-1.2,1.7-2.1,2.9-2.5l2.8-0.9c0.5-0.2,1-0.2,1.5-0.2c2.1,0,4.1,1.4,4.8,3.5l0.4,1.2
			c0.5-2,1.5-3.9,2.8-5.5c-0.3-0.7-0.5-1.4-0.5-2.3v-3c0-2.8,2.2-5,5-5c2.8,0,5.3,1.2,7,3c1.8-1.9,4.3-3,7-3c2.8,0,5,2.2,5,5v3
			c0,0.8-0.2,1.6-0.5,2.3c1.3,1.6,2.2,3.5,2.8,5.5l0.4-1.2c0.7-2.1,2.6-3.5,4.8-3.5c0.5,0,1,0.1,1.5,0.2l2.8,0.9
			c1.3,0.4,2.3,1.3,2.9,2.5c0.6,1.2,0.7,2.5,0.3,3.8l-2.6,8.3c-0.2,0.7-0.6,1.3-1,1.8l5.6,5.7c0.9,0.9,1.4,2.2,1.4,3.6
			c0,1.3-0.6,2.6-1.5,3.5l-2.1,2.1c-0.5,0.5-1,0.8-1.6,1.1l1.9,6.1c0.8,2.6-0.6,5.4-3.3,6.3l-2.8,0.9
			C252.4,75.7,251.9,75.8,251.4,75.8z"/>
		<path class="st0" d="M239.1,22.7v3c-1,0-1.7,0.8-1.7,1.7V29c2.7,1.7,4.4,4.7,4.4,8.1v3.3h4h0l0,0v1.7l3.4-1.3l2.2-7l2.8,0.9
			l-2.6,8.3l-5.8,2.3v4.3h5.7l5.8,6l-2.1,2.1l-5-5.1h-4.5v1.6c0,1.7-0.3,3.3-0.9,4.8l6.7,2.6l2.6,8.3l-2.8,0.9l-2.2-7l-5.6-2.2
			c-2.4,3.8-6.7,6.3-11.6,6.3s-9.1-2.5-11.6-6.3l-5.6,2.2l-2.2,7l-2.8-0.9l2.6-8.3l6.7-2.6c-0.6-1.5-0.9-3.1-0.9-4.8v-1.6h-4.5
			l-5,5.1l-2.1-2.1l5.8-6h5.7v-4.3l-5.8-2.3l-2.6-8.3l2.8-0.9l2.2,7l3.4,1.3v-1.7h0h4v-3.3c0-3.4,1.8-6.4,4.4-8.1v-1.6
			c0-1-0.8-1.7-1.7-1.7v-3c2.6,0,4.7,2.1,4.7,4.7v0.3c0.7-0.2,1.5-0.3,2.3-0.3c0.8,0,1.6,0.1,2.3,0.3v-0.3
			C234.4,24.9,236.5,22.7,239.1,22.7 M239.1,12.7c-2.5,0-4.9,0.6-7,1.8c-2.1-1.1-4.5-1.8-7-1.8c-5.5,0-10,4.5-10,10v1.3
			c-0.8-0.2-1.6-0.3-2.4-0.3c-1,0-2,0.2-3,0.5l-2.8,0.9c-5.3,1.7-8.2,7.3-6.5,12.6l2.4,7.6l-3.1,3.2c-1.9,1.9-2.9,4.5-2.8,7.1
			s1.1,5.2,3,7l1.4,1.4l-0.9,2.8c-1.7,5.3,1.2,10.9,6.5,12.6l2.8,0.9c1,0.3,2,0.5,3,0.5c1.6,0,3.2-0.4,4.6-1.1
			c1.8-0.9,3.3-2.4,4.2-4.2c3.2,1.6,6.8,2.5,10.5,2.5c3.7,0,7.3-0.9,10.5-2.5c1.7,3.3,5.2,5.3,8.8,5.3c1,0,2-0.2,3-0.5l2.8-0.9
			c5.3-1.7,8.2-7.3,6.5-12.6l-0.9-2.8l1.4-1.4c1.9-1.9,3-4.4,3-7c0-2.7-1-5.2-2.8-7.1l-3.1-3.2l2.4-7.6c0.8-2.5,0.6-5.3-0.7-7.6
			c-1.2-2.4-3.3-4.1-5.9-4.9l-2.8-0.9c-1-0.3-2-0.5-3-0.5c-0.8,0-1.6,0.1-2.4,0.3v-1.3C249.1,17.2,244.6,12.7,239.1,12.7L239.1,12.7
			z"/>
	</g>
	<g>
		<path class="st0" d="M74.9,75.8c-0.5,0-1-0.1-1.5-0.2l-2.8-0.9c-2.6-0.8-4.1-3.6-3.3-6.3l1.9-6.1c-0.6-0.2-1.2-0.6-1.6-1.1
			l-2.1-2.1c-2-1.9-2-5.1-0.1-7.1l5.6-5.7c-0.5-0.5-0.8-1.1-1-1.8l-2.6-8.3c-0.8-2.6,0.6-5.4,3.3-6.3l2.8-0.9c0.5-0.2,1-0.2,1.5-0.2
			c2.1,0,4.1,1.4,4.8,3.5l0.4,1.2c0.5-2,1.5-3.9,2.8-5.5c-0.3-0.7-0.5-1.4-0.5-2.3v-3c0-2.8,2.2-5,5-5c2.8,0,5.3,1.2,7,3
			c1.8-1.9,4.3-3,7-3c2.8,0,5,2.2,5,5v3c0,0.8-0.2,1.6-0.5,2.3c1.3,1.6,2.2,3.5,2.8,5.5l0.4-1.2c0.7-2.1,2.6-3.5,4.8-3.5
			c0.5,0,1,0.1,1.5,0.2l2.8,0.9c1.3,0.4,2.3,1.3,2.9,2.5c0.6,1.2,0.7,2.5,0.3,3.8l-2.6,8.3c-0.2,0.7-0.6,1.3-1,1.8l5.6,5.7
			c0.9,0.9,1.4,2.2,1.4,3.6c0,1.3-0.6,2.6-1.5,3.5l-2.1,2.1c-0.5,0.5-1,0.8-1.6,1.1l1.9,6.1c0.8,2.6-0.6,5.4-3.3,6.3l-2.8,0.9
			c-0.5,0.2-1,0.2-1.5,0.2c-0.8,0-1.6-0.2-2.3-0.6c-1.2-0.6-2.1-1.7-2.5-2.9l-1.5-4.7l0,0c-3.5,3.4-8.1,5.3-13.1,5.3
			c-5,0-9.6-1.9-13.1-5.3l0,0l-1.5,4.7c-0.4,1.3-1.3,2.3-2.5,2.9C76.4,75.6,75.6,75.8,74.9,75.8z"/>
		<path class="st0" d="M101.3,22.7v3c-1,0-1.7,0.8-1.7,1.7V29c2.7,1.7,4.4,4.7,4.4,8.1v3.3h4h0l0,0v1.7l3.4-1.3l2.2-7l2.8,0.9
			l-2.6,8.3l-5.8,2.3v4.3h5.7l5.8,6l-2.1,2.1l-5-5.1H108v1.6c0,1.7-0.3,3.3-0.9,4.8l6.7,2.6l2.6,8.3l-2.8,0.9l-2.2-7l-5.6-2.2
			c-2.4,3.8-6.7,6.3-11.6,6.3s-9.1-2.5-11.6-6.3l-5.6,2.2l-2.2,7L72,69.9l2.6-8.3l6.7-2.6c-0.6-1.5-0.9-3.1-0.9-4.8v-1.6H76l-5,5.1
			l-2.1-2.1l5.8-6h5.7v-4.3L74.7,43L72,34.7l2.8-0.9l2.2,7l3.4,1.3v-1.7h0h4v-3.3c0-3.4,1.8-6.4,4.4-8.1v-1.6c0-1-0.8-1.7-1.7-1.7
			v-3c2.6,0,4.7,2.1,4.7,4.7v0.3c0.7-0.2,1.5-0.3,2.3-0.3c0.8,0,1.6,0.1,2.3,0.3v-0.3C96.6,24.9,98.7,22.7,101.3,22.7 M101.3,12.7
			c-2.5,0-4.9,0.6-7,1.8c-2.1-1.1-4.5-1.8-7-1.8c-5.5,0-10,4.5-10,10v1.3c-0.8-0.2-1.6-0.3-2.4-0.3c-1,0-2,0.2-3,0.5L69,25.2
			c-5.3,1.7-8.2,7.3-6.5,12.6l2.4,7.6l-3.1,3.2c-1.9,1.9-2.9,4.5-2.8,7.1c0,2.7,1.1,5.2,3,7l1.4,1.4l-0.9,2.8
			c-0.8,2.5-0.6,5.3,0.7,7.6c1.2,2.4,3.3,4.1,5.9,4.9l2.8,0.9c1,0.3,2,0.5,3,0.5c3.7,0,7.1-2,8.8-5.3c3.2,1.6,6.8,2.5,10.5,2.5
			c3.7,0,7.3-0.9,10.5-2.5c1.7,3.3,5.2,5.3,8.8,5.3c1,0,2-0.2,3-0.5l2.8-0.9c2.5-0.8,4.6-2.6,5.9-4.9c1.2-2.4,1.5-5.1,0.7-7.6
			l-0.9-2.8l1.4-1.4c1.9-1.9,3-4.4,3-7s-1-5.2-2.8-7.1l-3.1-3.2l2.4-7.6c1.7-5.3-1.2-10.9-6.5-12.6l-2.8-0.9c-1-0.3-2-0.5-3-0.5
			c-0.8,0-1.6,0.1-2.4,0.3v-1.3C111.3,17.2,106.8,12.7,101.3,12.7L101.3,12.7z"/>
	</g>
	<g>
		<path class="st0" d="M320.3,75.8c-0.8,0-1.6-0.2-2.3-0.6c-1.2-0.6-2.1-1.7-2.5-2.9l-1.5-4.7l0,0c-3.5,3.4-8.1,5.3-13.1,5.3
			c-5,0-9.6-1.9-13.1-5.3l0,0l-1.5,4.7c-0.4,1.3-1.3,2.3-2.5,2.9c-0.7,0.4-1.5,0.6-2.3,0.6c-0.5,0-1-0.1-1.5-0.2l-2.8-0.9
			c-2.6-0.8-4.1-3.6-3.3-6.3l1.9-6.1c-0.6-0.2-1.2-0.6-1.6-1.1l-2.1-2.1c-2-1.9-2-5.1-0.1-7.1l5.6-5.7c-0.5-0.5-0.8-1.1-1-1.8
			l-2.6-8.3c-0.4-1.3-0.3-2.6,0.3-3.8c0.6-1.2,1.7-2.1,2.9-2.5L280,29c0.5-0.2,1-0.2,1.5-0.2c2.1,0,4.1,1.4,4.8,3.5l0.4,1.2
			c0.5-2,1.5-3.9,2.8-5.5c-0.3-0.7-0.5-1.4-0.5-2.3v-3c0-2.8,2.2-5,5-5c2.8,0,5.3,1.2,7,3c1.8-1.9,4.3-3,7-3c2.8,0,5,2.2,5,5v3
			c0,0.8-0.2,1.6-0.5,2.3c1.3,1.6,2.2,3.5,2.8,5.5l0.4-1.2c0.7-2.1,2.6-3.5,4.8-3.5c0.5,0,1,0.1,1.5,0.2l2.8,0.9
			c1.3,0.4,2.3,1.3,2.9,2.5c0.6,1.2,0.7,2.5,0.3,3.8l-2.6,8.3c-0.2,0.7-0.6,1.3-1,1.8l5.6,5.7c0.9,0.9,1.4,2.2,1.4,3.6
			c0,1.3-0.6,2.6-1.5,3.5l-2.1,2.1c-0.5,0.5-1,0.8-1.6,1.1l1.9,6.1c0.8,2.6-0.6,5.4-3.3,6.3l-2.8,0.9
			C321.3,75.7,320.8,75.8,320.3,75.8z"/>
		<path class="st0" d="M308,22.7v3c-1,0-1.7,0.8-1.7,1.7V29c2.7,1.7,4.4,4.7,4.4,8.1v3.3h4h0l0,0v1.7l3.4-1.3l2.2-7l2.8,0.9
			l-2.6,8.3l-5.8,2.3v4.3h5.7l5.8,6l-2.1,2.1l-5-5.1h-4.5v1.6c0,1.7-0.3,3.3-0.9,4.8l6.7,2.6l2.6,8.3l-2.8,0.9l-2.2-7l-5.6-2.2
			c-2.4,3.8-6.7,6.3-11.6,6.3s-9.1-2.5-11.6-6.3l-5.6,2.2l-2.2,7l-2.8-0.9l2.6-8.3L288,59c-0.6-1.5-0.9-3.1-0.9-4.8v-1.6h-4.5
			l-5,5.1l-2.1-2.1l5.8-6h5.7v-4.3l-5.8-2.3l-2.6-8.3l2.8-0.9l2.2,7l3.4,1.3v-1.7h0h4v-3.3c0-3.4,1.8-6.4,4.4-8.1v-1.6
			c0-1-0.8-1.7-1.7-1.7v-3c2.6,0,4.7,2.1,4.7,4.7v0.3c0.7-0.2,1.5-0.3,2.3-0.3c0.8,0,1.6,0.1,2.3,0.3v-0.3
			C303.3,24.9,305.4,22.7,308,22.7 M308,12.7c-2.5,0-4.9,0.6-7,1.8c-2.1-1.1-4.5-1.8-7-1.8c-5.5,0-10,4.5-10,10v1.3
			c-0.8-0.2-1.6-0.3-2.4-0.3c-1,0-2,0.2-3,0.5l-2.8,0.9c-5.3,1.7-8.2,7.3-6.5,12.6l2.4,7.6l-3.1,3.2c-1.9,1.9-2.9,4.5-2.8,7.1
			c0,2.7,1.1,5.2,3,7l1.4,1.4l-0.9,2.8c-0.8,2.5-0.6,5.3,0.7,7.6c1.2,2.4,3.3,4.1,5.9,4.9l2.8,0.9c1,0.3,2,0.5,3,0.5
			c1.6,0,3.2-0.4,4.6-1.1c1.8-0.9,3.3-2.4,4.2-4.2c3.2,1.6,6.8,2.5,10.5,2.5c3.7,0,7.3-0.9,10.5-2.5c1.7,3.3,5.2,5.3,8.8,5.3
			c1,0,2-0.2,3-0.5l2.8-0.9c5.3-1.7,8.2-7.3,6.5-12.6l-0.9-2.8l1.4-1.4c1.9-1.9,3-4.4,3-7c0-2.7-1-5.2-2.8-7.1l-3.1-3.2l2.4-7.6
			c1.7-5.3-1.2-10.9-6.5-12.6l-2.8-0.9c-1-0.3-2-0.5-3-0.5c-0.8,0-1.6,0.1-2.4,0.3v-1.3C318,17.2,313.5,12.7,308,12.7L308,12.7z"/>
	</g>
	<g>
		<path class="st0" d="M83.6,258.1c-2.1,0-4.1-1.4-4.8-3.5l-1.5-4.7l0,0c-3.5,3.4-8.1,5.3-13.1,5.3s-9.6-1.9-13.1-5.3l0,0l-1.5,4.7
			c-0.7,2.1-2.6,3.5-4.8,3.5c-0.5,0-1-0.1-1.5-0.2l-2.8-0.9c-1.3-0.4-2.3-1.3-2.9-2.5c-0.6-1.2-0.7-2.5-0.3-3.8l1.9-6.1
			c-0.6-0.2-1.2-0.6-1.6-1.1l-2.1-2.1c-2-1.9-2-5.1-0.1-7.1l5.6-5.7c-0.5-0.5-0.8-1.1-1-1.8l-2.6-8.3c-0.8-2.6,0.6-5.4,3.3-6.3
			l2.8-0.9c0.5-0.2,1-0.2,1.5-0.2c0.8,0,1.6,0.2,2.3,0.6c1.2,0.6,2.1,1.7,2.5,2.9l0.4,1.2c0.5-2,1.5-3.9,2.8-5.5
			c-0.3-0.7-0.5-1.4-0.5-2.3v-3c0-2.8,2.2-5,5-5c2.8,0,5.3,1.2,7,3c1.8-1.9,4.3-3,7-3c2.8,0,5,2.2,5,5v3c0,0.8-0.2,1.6-0.5,2.3
			c1.3,1.6,2.2,3.5,2.8,5.5l0.4-1.2c0.4-1.3,1.3-2.3,2.5-2.9c0.7-0.4,1.5-0.6,2.3-0.6c0.5,0,1,0.1,1.5,0.2l2.8,0.9
			c2.6,0.8,4.1,3.6,3.3,6.3l-2.6,8.3c-0.2,0.7-0.6,1.3-1,1.8l5.6,5.7c0.9,0.9,1.4,2.2,1.4,3.6c0,1.3-0.6,2.6-1.5,3.5l-2.1,2.1
			c-0.5,0.5-1,0.8-1.6,1.1l1.9,6.1c0.4,1.3,0.3,2.6-0.3,3.8c-0.6,1.2-1.7,2.1-2.9,2.5l-2.8,0.9C84.6,258,84.1,258.1,83.6,258.1z"/>
		<path class="st0" d="M71.3,205.1v3c-1,0-1.7,0.8-1.7,1.7v1.6c2.7,1.7,4.4,4.7,4.4,8.1v3.3h4h0l0,0v1.7l3.4-1.3l2.2-7l2.8,0.9
			l-2.6,8.3l-5.8,2.3v4.3h5.7l5.8,6l-2.1,2.1l-5-5.1H78v1.6c0,1.7-0.3,3.3-0.9,4.8l6.7,2.6l2.6,8.3l-2.8,0.9l-2.2-7l-5.6-2.2
			c-2.4,3.8-6.7,6.3-11.6,6.3c-4.9,0-9.1-2.5-11.6-6.3l-5.6,2.2l-2.2,7l-2.8-0.9l2.6-8.3l6.7-2.6c-0.6-1.5-0.9-3.1-0.9-4.8v-1.6H46
			l-5,5.1l-2.1-2.1l5.8-6h5.7v-4.3l-5.8-2.3L42,217l2.8-0.9l2.2,7l3.4,1.3v-1.7h0h4v-3.3c0-3.4,1.8-6.4,4.4-8.1v-1.6
			c0-1-0.8-1.7-1.7-1.7v-3c2.6,0,4.7,2.1,4.7,4.7v0.3c0.7-0.2,1.5-0.3,2.3-0.3c0.8,0,1.6,0.1,2.3,0.3v-0.3
			C66.6,207.2,68.7,205.1,71.3,205.1 M71.3,195.1c-2.5,0-4.9,0.6-7,1.8c-2.1-1.1-4.5-1.8-7-1.8c-5.5,0-10,4.5-10,10v1.3
			c-0.8-0.2-1.6-0.3-2.4-0.3c-1,0-2,0.2-3,0.5l-2.8,0.9c-5.3,1.7-8.2,7.3-6.5,12.6l2.4,7.6l-3.1,3.2c-1.9,1.9-2.9,4.5-2.8,7.1
			c0,2.7,1.1,5.2,3,7l1.4,1.4l-0.9,2.8c-0.8,2.5-0.6,5.3,0.7,7.6c1.2,2.4,3.3,4.1,5.9,4.9l2.8,0.9c1,0.3,2,0.5,3,0.5
			c1.6,0,3.2-0.4,4.6-1.1c1.8-0.9,3.3-2.4,4.2-4.2c3.2,1.6,6.8,2.5,10.5,2.5c3.7,0,7.3-0.9,10.5-2.5c1.7,3.3,5.2,5.3,8.8,5.3
			c1,0,2-0.2,3-0.5l2.8-0.9c5.3-1.7,8.2-7.3,6.5-12.6l-0.9-2.8l1.4-1.4c1.9-1.9,3-4.4,3-7c0-2.7-1-5.2-2.8-7.1l-3.1-3.2L96,220
			c1.7-5.3-1.2-10.9-6.5-12.6l-2.8-0.9c-1-0.3-2-0.5-3-0.5c-0.8,0-1.6,0.1-2.4,0.3v-1.3C81.3,199.5,76.8,195.1,71.3,195.1
			L71.3,195.1z"/>
	</g>
	<g>
		<path class="st0" d="M290.3,258.1c-2.1,0-4.1-1.4-4.8-3.5l-1.5-4.7l0,0c-3.5,3.4-8.1,5.3-13.1,5.3s-9.6-1.9-13.1-5.3l0,0l-1.5,4.7
			c-0.7,2.1-2.6,3.5-4.8,3.5c-0.5,0-1-0.1-1.5-0.2l-2.8-0.9c-1.3-0.4-2.3-1.3-2.9-2.5c-0.6-1.2-0.7-2.5-0.3-3.8l1.9-6.1
			c-0.6-0.2-1.2-0.6-1.6-1.1l-2.1-2.1c-2-1.9-2-5.1-0.1-7.1l5.6-5.7c-0.5-0.5-0.8-1.1-1-1.8l-2.6-8.3c-0.8-2.6,0.6-5.4,3.3-6.3
			l2.8-0.9c0.5-0.2,1-0.2,1.5-0.2c0.8,0,1.6,0.2,2.3,0.6c1.2,0.6,2.1,1.7,2.5,2.9l0.4,1.2c0.5-2,1.5-3.9,2.8-5.5
			c-0.3-0.7-0.5-1.4-0.5-2.3v-3c0-2.8,2.2-5,5-5c2.8,0,5.3,1.2,7,3c1.8-1.9,4.3-3,7-3c2.8,0,5,2.2,5,5v3c0,0.8-0.2,1.6-0.5,2.3
			c1.3,1.6,2.2,3.5,2.8,5.5l0.4-1.2c0.4-1.3,1.3-2.3,2.5-2.9c0.7-0.4,1.5-0.6,2.3-0.6c0.5,0,1,0.1,1.5,0.2l2.8,0.9
			c2.6,0.8,4.1,3.6,3.3,6.3l-2.6,8.3c-0.2,0.7-0.6,1.3-1,1.8l5.6,5.7c0.9,0.9,1.4,2.2,1.4,3.6c0,1.3-0.6,2.6-1.5,3.5l-2.1,2.1
			c-0.5,0.5-1,0.8-1.6,1.1l1.9,6.1c0.4,1.3,0.3,2.6-0.3,3.8c-0.6,1.2-1.7,2.1-2.9,2.5l-2.8,0.9C291.3,258,290.8,258.1,290.3,258.1z"
			/>
		<path class="st0" d="M278,205.1v3c-1,0-1.7,0.8-1.7,1.7v1.6c2.7,1.7,4.4,4.7,4.4,8.1v3.3h4h0l0,0v1.7l3.4-1.3l2.2-7l2.8,0.9
			l-2.6,8.3l-5.8,2.3v4.3h5.7l5.8,6l-2.1,2.1l-5-5.1h-4.5v1.6c0,1.7-0.3,3.3-0.9,4.8l6.7,2.6l2.6,8.3l-2.8,0.9l-2.2-7l-5.6-2.2
			c-2.4,3.8-6.7,6.3-11.6,6.3c-4.9,0-9.1-2.5-11.6-6.3l-5.6,2.2l-2.2,7l-2.8-0.9l2.6-8.3l6.7-2.6c-0.6-1.5-0.9-3.1-0.9-4.8v-1.6
			h-4.5l-5,5.1l-2.1-2.1l5.8-6h5.7v-4.3l-5.8-2.3l-2.6-8.3l2.8-0.9l2.2,7l3.4,1.3v-1.7h0h4v-3.3c0-3.4,1.8-6.4,4.4-8.1v-1.6
			c0-1-0.8-1.7-1.7-1.7v-3c2.6,0,4.7,2.1,4.7,4.7v0.3c0.7-0.2,1.5-0.3,2.3-0.3c0.8,0,1.6,0.1,2.3,0.3v-0.3
			C273.3,207.2,275.4,205.1,278,205.1 M278,195.1c-2.5,0-4.9,0.6-7,1.8c-2.1-1.1-4.5-1.8-7-1.8c-5.5,0-10,4.5-10,10v1.3
			c-0.8-0.2-1.6-0.3-2.4-0.3c-1,0-2,0.2-3,0.5l-2.8,0.9c-5.3,1.7-8.2,7.3-6.5,12.6l2.4,7.6l-3.1,3.2c-1.9,1.9-2.9,4.5-2.8,7.1
			c0,2.7,1.1,5.2,3,7l1.4,1.4l-0.9,2.8c-0.8,2.5-0.6,5.3,0.7,7.6c1.2,2.4,3.3,4.1,5.9,4.9l2.8,0.9c1,0.3,2,0.5,3,0.5
			c3.7,0,7.1-2,8.8-5.3c3.2,1.6,6.8,2.5,10.5,2.5c3.7,0,7.3-0.9,10.5-2.5c1.7,3.3,5.2,5.3,8.8,5.3c1,0,2-0.2,3-0.5l2.8-0.9
			c2.5-0.8,4.6-2.6,5.9-4.9c1.2-2.4,1.5-5.1,0.7-7.6l-0.9-2.8l1.4-1.4c1.9-1.9,3-4.4,3-7c0-2.7-1-5.2-2.8-7.1l-3.1-3.2l2.4-7.6
			c1.7-5.3-1.2-10.9-6.5-12.6l-2.8-0.9c-1-0.3-2-0.5-3-0.5c-0.8,0-1.6,0.1-2.4,0.3v-1.3C288,199.5,283.5,195.1,278,195.1L278,195.1z
			"/>
	</g>
	<g>
		<path class="st0" d="M113.7,258.1c-0.5,0-1-0.1-1.5-0.2l-2.8-0.9c-1.3-0.4-2.3-1.3-2.9-2.5c-0.6-1.2-0.7-2.5-0.3-3.8l1.9-6.1
			c-0.6-0.2-1.2-0.6-1.6-1.1l-2.1-2.1c-2-1.9-2-5.1-0.1-7.1l5.6-5.7c-0.5-0.5-0.8-1.1-1-1.8l-2.6-8.3c-0.8-2.6,0.6-5.4,3.3-6.3
			l2.8-0.9c0.5-0.2,1-0.2,1.5-0.2c0.8,0,1.6,0.2,2.3,0.6c1.2,0.6,2.1,1.7,2.5,2.9l0.4,1.2c0.5-2,1.5-3.9,2.8-5.5
			c-0.3-0.7-0.5-1.4-0.5-2.3v-3c0-2.8,2.2-5,5-5c2.8,0,5.3,1.2,7,3c1.8-1.9,4.3-3,7-3c2.8,0,5,2.2,5,5v3c0,0.8-0.2,1.6-0.5,2.3
			c1.3,1.6,2.2,3.5,2.8,5.5l0.4-1.2c0.4-1.3,1.3-2.3,2.5-2.9c0.7-0.4,1.5-0.6,2.3-0.6c0.5,0,1,0.1,1.5,0.2l2.8,0.9
			c2.6,0.8,4.1,3.6,3.3,6.3l-2.6,8.3c-0.2,0.7-0.6,1.3-1,1.8l5.6,5.7c1.9,2,1.9,5.1-0.1,7.1l-2.1,2.1c-0.5,0.5-1,0.8-1.6,1.1
			l1.9,6.1c0.4,1.3,0.3,2.6-0.3,3.8c-0.6,1.2-1.7,2.1-2.9,2.5l-2.8,0.9c-0.5,0.2-1,0.2-1.5,0.2c-2.1,0-4.1-1.4-4.8-3.5l-1.5-4.7l0,0
			c-3.5,3.4-8.1,5.3-13.1,5.3c-5,0-9.6-1.9-13.1-5.3l0,0l-1.5,4.7C117.8,256.8,115.9,258.1,113.7,258.1z"/>
		<path class="st0" d="M140.2,205.1v3c-1,0-1.7,0.8-1.7,1.7v1.6c2.7,1.7,4.4,4.7,4.4,8.1v3.3h4h0l0,0v1.7l3.4-1.3l2.2-7l2.8,0.9
			l-2.6,8.3l-5.8,2.3v4.3h5.7l5.8,6l-2.1,2.1l-5-5.1h-4.5v1.6c0,1.7-0.3,3.3-0.9,4.8l6.7,2.6l2.6,8.3l-2.8,0.9l-2.2-7l-5.6-2.2
			c-2.4,3.8-6.7,6.3-11.6,6.3s-9.1-2.5-11.6-6.3l-5.6,2.2l-2.2,7l-2.8-0.9l2.6-8.3l6.7-2.6c-0.6-1.5-0.9-3.1-0.9-4.8v-1.6h-4.5
			l-5,5.1l-2.1-2.1l5.8-6h5.7v-4.3l-5.8-2.3l-2.6-8.3l2.8-0.9l2.2,7l3.4,1.3v-1.7h0h4v-3.3c0-3.4,1.8-6.4,4.4-8.1v-1.6
			c0-1-0.8-1.7-1.7-1.7v-3c2.6,0,4.7,2.1,4.7,4.7v0.3c0.7-0.2,1.5-0.3,2.3-0.3s1.6,0.1,2.3,0.3v-0.3
			C135.5,207.2,137.6,205.1,140.2,205.1 M140.2,195.1c-2.5,0-4.9,0.6-7,1.8c-2.1-1.1-4.5-1.8-7-1.8c-5.5,0-10,4.5-10,10v1.3
			c-0.8-0.2-1.6-0.3-2.4-0.3c-1,0-2,0.2-3,0.5l-2.8,0.9c-5.3,1.7-8.2,7.3-6.5,12.6l2.4,7.6l-3.1,3.2c-1.9,1.9-2.9,4.5-2.8,7.1
			c0,2.7,1.1,5.2,3,7l1.4,1.4l-0.9,2.8c-0.8,2.5-0.6,5.3,0.7,7.6c1.2,2.4,3.3,4.1,5.9,4.9l2.8,0.9c1,0.3,2,0.5,3,0.5
			c1.6,0,3.2-0.4,4.6-1.1c1.8-0.9,3.3-2.4,4.2-4.2c3.2,1.6,6.8,2.5,10.5,2.5c3.7,0,7.3-0.9,10.5-2.5c0.9,1.8,2.4,3.3,4.2,4.2
			c1.4,0.7,3,1.1,4.6,1.1c1,0,2-0.2,3-0.5l2.8-0.9c5.3-1.7,8.2-7.3,6.5-12.6l-0.9-2.8l1.4-1.4c1.9-1.9,3-4.4,3-7
			c0-2.7-1-5.2-2.8-7.1l-3.1-3.2l2.4-7.6c1.7-5.3-1.2-10.9-6.5-12.6l-2.8-0.9c-1-0.3-2-0.5-3-0.5c-0.8,0-1.6,0.1-2.4,0.3v-1.3
			C150.2,199.5,145.7,195.1,140.2,195.1L140.2,195.1z"/>
	</g>
	<g>
		<path class="st0" d="M359.2,258.1c-2.1,0-4.1-1.4-4.8-3.5l-1.5-4.7l0,0c-3.5,3.4-8.1,5.3-13.1,5.3s-9.6-1.9-13.1-5.3l0,0l-1.5,4.7
			c-0.7,2.1-2.6,3.5-4.8,3.5c-0.5,0-1-0.1-1.5-0.2l-2.8-0.9c-1.3-0.4-2.3-1.3-2.9-2.5c-0.6-1.2-0.7-2.5-0.3-3.8l1.9-6.1
			c-0.6-0.2-1.2-0.6-1.6-1.1l-2.1-2.1c-2-1.9-2-5.1-0.1-7.1l5.6-5.7c-0.5-0.5-0.8-1.1-1-1.8l-2.6-8.3c-0.8-2.6,0.6-5.4,3.3-6.3
			l2.8-0.9c0.5-0.2,1-0.2,1.5-0.2c0.8,0,1.6,0.2,2.3,0.6c1.2,0.6,2.1,1.7,2.5,2.9l0.4,1.2c0.5-2,1.5-3.9,2.8-5.5
			c-0.3-0.7-0.5-1.4-0.5-2.3v-3c0-2.8,2.2-5,5-5c2.8,0,5.3,1.2,7,3c1.8-1.9,4.3-3,7-3c2.8,0,5,2.2,5,5v3c0,0.8-0.2,1.6-0.5,2.3
			c1.3,1.6,2.2,3.5,2.8,5.5l0.4-1.2c0.4-1.3,1.3-2.3,2.5-2.9c0.7-0.4,1.5-0.6,2.3-0.6c0.5,0,1,0.1,1.5,0.2l2.8,0.9
			c2.6,0.8,4.1,3.6,3.3,6.3l-2.6,8.3c-0.2,0.7-0.6,1.3-1,1.8l5.6,5.7c1.9,2,1.9,5.1-0.1,7.1l-2.1,2.1c-0.5,0.5-1,0.8-1.6,1.1
			l1.9,6.1c0.4,1.3,0.3,2.6-0.3,3.8c-0.6,1.2-1.7,2.1-2.9,2.5l-2.8,0.9C360.2,258,359.7,258.1,359.2,258.1z"/>
		<path class="st0" d="M346.9,205.1v3c-1,0-1.7,0.8-1.7,1.7v1.6c2.7,1.7,4.4,4.7,4.4,8.1v3.3h4h0l0,0v1.7l3.4-1.3l2.2-7l2.8,0.9
			l-2.6,8.3l-5.8,2.3v4.3h5.7l5.8,6l-2.1,2.1l-5-5.1h-4.5v1.6c0,1.7-0.3,3.3-0.9,4.8l6.7,2.6l2.6,8.3l-2.8,0.9l-2.2-7l-5.6-2.2
			c-2.4,3.8-6.7,6.3-11.6,6.3c-4.9,0-9.1-2.5-11.6-6.3l-5.6,2.2l-2.2,7l-2.8-0.9l2.6-8.3l6.7-2.6c-0.6-1.5-0.9-3.1-0.9-4.8v-1.6
			h-4.5l-5,5.1l-2.1-2.1l5.8-6h5.7v-4.3l-5.8-2.3l-2.6-8.3l2.8-0.9l2.2,7l3.4,1.3v-1.7h0h4v-3.3c0-3.4,1.8-6.4,4.4-8.1v-1.6
			c0-1-0.8-1.7-1.7-1.7v-3c2.6,0,4.7,2.1,4.7,4.7v0.3c0.7-0.2,1.5-0.3,2.3-0.3c0.8,0,1.6,0.1,2.3,0.3v-0.3
			C342.2,207.2,344.3,205.1,346.9,205.1 M346.9,195.1c-2.5,0-4.9,0.6-7,1.8c-2.1-1.1-4.5-1.8-7-1.8c-5.5,0-10,4.5-10,10v1.3
			c-0.8-0.2-1.6-0.3-2.4-0.3c-1,0-2,0.2-3,0.5l-2.8,0.9c-5.3,1.7-8.2,7.3-6.5,12.6l2.4,7.6l-3.1,3.2c-1.9,1.9-2.9,4.5-2.8,7.1
			c0,2.7,1.1,5.2,3,7l1.4,1.4l-0.9,2.8c-0.8,2.5-0.6,5.3,0.7,7.6s3.3,4.1,5.9,4.9l2.8,0.9c1,0.3,2,0.5,3,0.5c3.7,0,7.1-2,8.8-5.3
			c3.2,1.6,6.8,2.5,10.5,2.5c3.7,0,7.3-0.9,10.5-2.5c1.7,3.3,5.2,5.3,8.8,5.3c1,0,2-0.2,3-0.5l2.8-0.9c2.5-0.8,4.6-2.6,5.9-4.9
			c1.2-2.4,1.5-5.1,0.7-7.6l-0.9-2.8l1.4-1.4c1.9-1.9,3-4.4,3-7c0-2.7-1-5.2-2.8-7.1l-3.1-3.2l2.4-7.6c1.7-5.3-1.2-10.9-6.5-12.6
			l-2.8-0.9c-1-0.3-2-0.5-3-0.5c-0.8,0-1.6,0.1-2.4,0.3v-1.3C356.9,199.5,352.4,195.1,346.9,195.1L346.9,195.1z"/>
	</g>
	<g>
		<path class="st0" d="M320.3,196.6c-2.1,0-4.1-1.4-4.8-3.5l-1.5-4.7l0,0c-3.5,3.4-8.1,5.3-13.1,5.3s-9.6-1.9-13.1-5.3l0,0l-1.5,4.7
			c-0.7,2.1-2.6,3.5-4.8,3.5c-0.5,0-1-0.1-1.5-0.2l-2.8-0.9c-1.3-0.4-2.3-1.3-2.9-2.5c-0.6-1.2-0.7-2.5-0.3-3.8l1.9-6.1
			c-0.6-0.2-1.2-0.6-1.6-1.1l-2.1-2.1c-2-1.9-2-5.1-0.1-7.1l5.6-5.7c-0.5-0.5-0.8-1.1-1-1.8l-2.6-8.3c-0.4-1.3-0.3-2.6,0.3-3.8
			c0.6-1.2,1.7-2.1,2.9-2.5l2.8-0.9c0.5-0.2,1-0.2,1.5-0.2c2.1,0,4.1,1.4,4.8,3.5l0.4,1.2c0.5-2,1.5-3.9,2.8-5.5
			c-0.3-0.7-0.5-1.4-0.5-2.3v-3c0-2.8,2.2-5,5-5c2.8,0,5.3,1.2,7,3c1.8-1.9,4.3-3,7-3c2.8,0,5,2.2,5,5v3c0,0.8-0.2,1.6-0.5,2.3
			c1.3,1.6,2.2,3.5,2.8,5.5l0.4-1.2c0.7-2.1,2.6-3.5,4.8-3.5c0.5,0,1,0.1,1.5,0.2l2.8,0.9c1.3,0.4,2.3,1.3,2.9,2.5
			c0.6,1.2,0.7,2.5,0.3,3.8l-2.6,8.3c-0.2,0.7-0.6,1.3-1,1.8l5.6,5.7c0.9,0.9,1.4,2.2,1.4,3.6c0,1.3-0.6,2.6-1.5,3.5l-2.1,2.1
			c-0.5,0.5-1,0.8-1.6,1.1l1.9,6.1c0.4,1.3,0.3,2.6-0.3,3.8c-0.6,1.2-1.7,2.1-2.9,2.5l-2.8,0.9C321.3,196.5,320.8,196.6,320.3,196.6
			z"/>
		<path class="st0" d="M308,143.6v3c-1,0-1.7,0.8-1.7,1.7v1.6c2.7,1.7,4.4,4.7,4.4,8.1v3.3h4h0v1.7l3.4-1.3l2.2-7l2.8,0.9l-2.6,8.3
			l-5.8,2.3v4.3h5.7l5.8,6l-2.1,2.1l-5-5.1h-4.5v1.6c0,1.7-0.3,3.3-0.9,4.8l6.7,2.6l2.6,8.3l-2.8,0.9l-2.2-7l-5.6-2.2
			c-2.4,3.8-6.7,6.3-11.6,6.3c-4.9,0-9.1-2.5-11.6-6.3l-5.6,2.2l-2.2,7l-2.8-0.9l2.6-8.3l6.7-2.6c-0.6-1.5-0.9-3.1-0.9-4.8v-1.6
			h-4.5l-5,5.1l-2.1-2.1l5.8-6h5.7v-4.3l-5.8-2.3l-2.6-8.3l2.8-0.9l2.2,7l3.4,1.3v-1.7l0,0h0h4V158c0-3.4,1.8-6.4,4.4-8.1v-1.6
			c0-1-0.8-1.7-1.7-1.7v-3c2.6,0,4.7,2.1,4.7,4.7v0.3c0.7-0.2,1.5-0.3,2.3-0.3c0.8,0,1.6,0.1,2.3,0.3v-0.3
			C303.3,145.7,305.4,143.6,308,143.6 M308,133.6c-2.5,0-4.9,0.6-7,1.8c-2.1-1.1-4.5-1.8-7-1.8c-5.5,0-10,4.5-10,10v1.3
			c-0.8-0.2-1.6-0.3-2.4-0.3c-1,0-2,0.2-3,0.5l-2.8,0.9c-5.3,1.7-8.2,7.3-6.5,12.6l2.4,7.6l-3.1,3.2c-1.9,1.9-2.9,4.5-2.8,7.1
			c0,2.7,1.1,5.2,3,7l1.4,1.4l-0.9,2.8c-1.7,5.3,1.2,10.9,6.5,12.6l2.8,0.9c1,0.3,2,0.5,3,0.5c1.6,0,3.2-0.4,4.6-1.1
			c1.8-0.9,3.3-2.4,4.2-4.2c3.2,1.6,6.8,2.5,10.5,2.5c3.7,0,7.3-0.9,10.5-2.5c1.7,3.3,5.2,5.3,8.8,5.3c1,0,2-0.2,3-0.5l2.8-0.9
			c2.5-0.8,4.6-2.6,5.9-4.9c1.2-2.4,1.5-5.1,0.7-7.6l-0.9-2.8l1.4-1.4c1.9-1.9,3-4.4,3-7c0-2.7-1-5.2-2.8-7.1l-3.1-3.2l2.4-7.6
			c1.7-5.3-1.2-10.9-6.5-12.6l-2.8-0.9c-1-0.3-2-0.5-3-0.5c-0.8,0-1.6,0.1-2.4,0.3v-1.3C318,138,313.5,133.6,308,133.6L308,133.6z"
			/>
	</g>
	<g>
		<path class="st0" d="M251.4,196.6c-2.1,0-4.1-1.4-4.8-3.5l-1.5-4.7l0,0c-3.5,3.4-8.1,5.3-13.1,5.3c-5,0-9.6-1.9-13.1-5.3l0,0
			l-1.5,4.7c-0.7,2.1-2.6,3.5-4.8,3.5c-0.5,0-1-0.1-1.5-0.2l-2.8-0.9c-1.3-0.4-2.3-1.3-2.9-2.5c-0.6-1.2-0.7-2.5-0.3-3.8l1.9-6.1
			c-0.6-0.2-1.2-0.6-1.6-1.1l-2.1-2.1c-2-1.9-2-5.1-0.1-7.1l5.6-5.7c-0.5-0.5-0.8-1.1-1-1.8l-2.6-8.3c-0.4-1.3-0.3-2.6,0.3-3.8
			c0.6-1.2,1.7-2.1,2.9-2.5l2.8-0.9c0.5-0.2,1-0.2,1.5-0.2c2.1,0,4.1,1.4,4.8,3.5l0.4,1.2c0.5-2,1.5-3.9,2.8-5.5
			c-0.3-0.7-0.5-1.4-0.5-2.3v-3c0-2.8,2.2-5,5-5c2.8,0,5.3,1.2,7,3c1.8-1.9,4.3-3,7-3c2.8,0,5,2.2,5,5v3c0,0.8-0.2,1.6-0.5,2.3
			c1.3,1.6,2.2,3.5,2.8,5.5l0.4-1.2c0.7-2.1,2.6-3.5,4.8-3.5c0.5,0,1,0.1,1.5,0.2l2.8,0.9c1.3,0.4,2.3,1.3,2.9,2.5
			c0.6,1.2,0.7,2.5,0.3,3.8l-2.6,8.3c-0.2,0.7-0.6,1.3-1,1.8l5.6,5.7c0.9,0.9,1.4,2.2,1.4,3.6c0,1.3-0.6,2.6-1.5,3.5l-2.1,2.1
			c-0.5,0.5-1,0.8-1.6,1.1l1.9,6.1c0.4,1.3,0.3,2.6-0.3,3.8c-0.6,1.2-1.7,2.1-2.9,2.5l-2.8,0.9C252.4,196.5,251.9,196.6,251.4,196.6
			z"/>
		<path class="st0" d="M239.1,143.6v3c-1,0-1.7,0.8-1.7,1.7v1.6c2.7,1.7,4.4,4.7,4.4,8.1v3.3h4h0v1.7l3.4-1.3l2.2-7l2.8,0.9
			l-2.6,8.3l-5.8,2.3v4.3h5.7l5.8,6l-2.1,2.1l-5-5.1h-4.5v1.6c0,1.7-0.3,3.3-0.9,4.8l6.7,2.6l2.6,8.3l-2.8,0.9l-2.2-7l-5.6-2.2
			c-2.4,3.8-6.7,6.3-11.6,6.3c-4.9,0-9.1-2.5-11.6-6.3l-5.6,2.2l-2.2,7l-2.8-0.9l2.6-8.3l6.7-2.6c-0.6-1.5-0.9-3.1-0.9-4.8v-1.6
			h-4.5l-5,5.1l-2.1-2.1l5.8-6h5.7v-4.3l-5.8-2.3l-2.6-8.3l2.8-0.9l2.2,7l3.4,1.3v-1.7l0,0h0h4V158c0-3.4,1.8-6.4,4.4-8.1v-1.6
			c0-1-0.8-1.7-1.7-1.7v-3c2.6,0,4.7,2.1,4.7,4.7v0.3c0.7-0.2,1.5-0.3,2.3-0.3c0.8,0,1.6,0.1,2.3,0.3v-0.3
			C234.4,145.7,236.5,143.6,239.1,143.6 M239.1,133.6c-2.5,0-4.9,0.6-7,1.8c-2.1-1.1-4.5-1.8-7-1.8c-5.5,0-10,4.5-10,10v1.3
			c-0.8-0.2-1.6-0.3-2.4-0.3c-1,0-2,0.2-3,0.5l-2.8,0.9c-5.3,1.7-8.2,7.3-6.5,12.6l2.4,7.6l-3.1,3.2c-1.9,1.9-2.9,4.5-2.8,7.1
			c0,2.7,1.1,5.2,3,7l1.4,1.4l-0.9,2.8c-1.7,5.3,1.2,10.9,6.5,12.6l2.8,0.9c1,0.3,2,0.5,3,0.5c1.6,0,3.2-0.4,4.6-1.1
			c1.8-0.9,3.3-2.4,4.2-4.2c3.2,1.6,6.8,2.5,10.5,2.5c3.7,0,7.3-0.9,10.5-2.5c1.7,3.3,5.2,5.3,8.8,5.3c1,0,2-0.2,3-0.5l2.8-0.9
			c2.5-0.8,4.6-2.6,5.9-4.9c1.2-2.4,1.5-5.1,0.7-7.6l-0.9-2.8l1.4-1.4c1.9-1.9,3-4.4,3-7c0-2.7-1-5.2-2.8-7.1l-3.1-3.2l2.4-7.6
			c1.7-5.3-1.2-10.9-6.5-12.6l-2.8-0.9c-1-0.3-2-0.5-3-0.5c-0.8,0-1.6,0.1-2.4,0.3v-1.3C249.1,138,244.6,133.6,239.1,133.6
			L239.1,133.6z"/>
	</g>
	<g>
		<path class="st0" d="M74.9,196.6c-0.5,0-1-0.1-1.5-0.2l-2.8-0.9c-1.3-0.4-2.3-1.3-2.9-2.5c-0.6-1.2-0.7-2.5-0.3-3.8l1.9-6.1
			c-0.6-0.2-1.2-0.6-1.6-1.1l-2.1-2.1c-0.9-0.9-1.5-2.2-1.5-3.5c0-1.3,0.5-2.6,1.4-3.6l5.6-5.7c-0.5-0.5-0.8-1.1-1-1.8l-2.6-8.3
			c-0.8-2.6,0.6-5.4,3.3-6.3l2.8-0.9c0.5-0.2,1-0.2,1.5-0.2c2.1,0,4.1,1.4,4.8,3.5l0.4,1.2c0.5-2,1.5-3.9,2.8-5.5
			c-0.3-0.7-0.5-1.4-0.5-2.3v-3c0-2.8,2.2-5,5-5c2.8,0,5.3,1.2,7,3c1.8-1.9,4.3-3,7-3c2.8,0,5,2.2,5,5v3c0,0.8-0.2,1.6-0.5,2.3
			c1.3,1.6,2.2,3.5,2.8,5.5l0.4-1.2c0.7-2.1,2.6-3.5,4.8-3.5c0.5,0,1,0.1,1.5,0.2l2.8,0.9c1.3,0.4,2.3,1.3,2.9,2.5
			c0.6,1.2,0.7,2.5,0.3,3.8l-2.6,8.3c-0.2,0.7-0.6,1.3-1,1.8l5.6,5.7c0.9,0.9,1.4,2.2,1.4,3.6c0,1.3-0.6,2.6-1.5,3.5l-2.1,2.1
			c-0.5,0.5-1,0.8-1.6,1.1l1.9,6.1c0.4,1.3,0.3,2.6-0.3,3.8c-0.6,1.2-1.7,2.1-2.9,2.5l-2.8,0.9c-0.5,0.2-1,0.2-1.5,0.2
			c-2.1,0-4.1-1.4-4.8-3.5l-1.5-4.7l0,0c-3.5,3.4-8.1,5.3-13.1,5.3s-9.6-1.9-13.1-5.3l0,0l-1.5,4.7C78.9,195.3,77,196.6,74.9,196.6z
			"/>
		<path class="st0" d="M101.3,143.6v3c-1,0-1.7,0.8-1.7,1.7v1.6c2.7,1.7,4.4,4.7,4.4,8.1v3.3h4h0v1.7l3.4-1.3l2.2-7l2.8,0.9
			l-2.6,8.3l-5.8,2.3v4.3h5.7l5.8,6l-2.1,2.1l-5-5.1H108v1.6c0,1.7-0.3,3.3-0.9,4.8l6.7,2.6l2.6,8.3l-2.8,0.9l-2.2-7l-5.6-2.2
			c-2.4,3.8-6.7,6.3-11.6,6.3s-9.1-2.5-11.6-6.3l-5.6,2.2l-2.2,7l-2.8-0.9l2.6-8.3l6.7-2.6c-0.6-1.5-0.9-3.1-0.9-4.8v-1.6H76l-5,5.1
			l-2.1-2.1l5.8-6h5.7v-4.3l-5.8-2.3l-2.6-8.3l2.8-0.9l2.2,7l3.4,1.3v-1.7l0,0h0h4V158c0-3.4,1.8-6.4,4.4-8.1v-1.6
			c0-1-0.8-1.7-1.7-1.7v-3c2.6,0,4.7,2.1,4.7,4.7v0.3c0.7-0.2,1.5-0.3,2.3-0.3c0.8,0,1.6,0.1,2.3,0.3v-0.3
			C96.6,145.7,98.7,143.6,101.3,143.6 M101.3,133.6c-2.5,0-4.9,0.6-7,1.8c-2.1-1.1-4.5-1.8-7-1.8c-5.5,0-10,4.5-10,10v1.3
			c-0.8-0.2-1.6-0.3-2.4-0.3c-1,0-2,0.2-3,0.5L69,146c-5.3,1.7-8.2,7.3-6.5,12.6l2.4,7.6l-3.1,3.2c-1.9,1.9-2.9,4.5-2.8,7.1
			c0,2.7,1.1,5.2,3,7l1.4,1.4l-0.9,2.8c-1.7,5.3,1.2,10.9,6.5,12.6l2.8,0.9c1,0.3,2,0.5,3,0.5c3.7,0,7.1-2,8.8-5.3
			c3.2,1.6,6.8,2.5,10.5,2.5c3.7,0,7.3-0.9,10.5-2.5c1.7,3.3,5.2,5.3,8.8,5.3c1,0,2-0.2,3-0.5l2.8-0.9c2.5-0.8,4.6-2.6,5.9-4.9
			c1.2-2.4,1.5-5.1,0.7-7.6l-0.9-2.8l1.4-1.4c1.9-1.9,3-4.4,3-7c0-2.7-1-5.2-2.8-7.1l-3.1-3.2l2.4-7.6c1.7-5.3-1.2-10.9-6.5-12.6
			l-2.8-0.9c-1-0.3-2-0.5-3-0.5c-0.8,0-1.6,0.1-2.4,0.3v-1.3C111.3,138,106.8,133.6,101.3,133.6L101.3,133.6z"/>
	</g>
	<g>
		<path class="st0" d="M182.5,196.6c-2.1,0-4.1-1.4-4.8-3.5l-1.5-4.7l0,0c-3.5,3.4-8.1,5.3-13.1,5.3c-5,0-9.6-1.9-13.1-5.3l0,0
			l-1.5,4.7c-0.7,2.1-2.6,3.5-4.8,3.5c-0.5,0-1-0.1-1.5-0.2l-2.8-0.9c-1.3-0.4-2.3-1.3-2.9-2.5c-0.6-1.2-0.7-2.5-0.3-3.8l1.9-6.1
			c-0.6-0.2-1.2-0.6-1.6-1.1l-2.1-2.1c-0.9-0.9-1.5-2.2-1.5-3.5c0-1.3,0.5-2.6,1.4-3.6l5.6-5.7c-0.5-0.5-0.8-1.1-1-1.8l-2.6-8.3
			c-0.4-1.3-0.3-2.6,0.3-3.8c0.6-1.2,1.7-2.1,2.9-2.5l2.8-0.9c0.5-0.2,1-0.2,1.5-0.2c2.1,0,4.1,1.4,4.8,3.5l0.4,1.2
			c0.5-2,1.5-3.9,2.8-5.5c-0.3-0.7-0.5-1.4-0.5-2.3v-3c0-2.8,2.2-5,5-5c2.8,0,5.3,1.2,7,3c1.8-1.9,4.3-3,7-3c2.8,0,5,2.2,5,5v3
			c0,0.8-0.2,1.6-0.5,2.3c1.3,1.6,2.2,3.5,2.8,5.5l0.4-1.2c0.7-2.1,2.6-3.5,4.8-3.5c0.5,0,1,0.1,1.5,0.2l2.8,0.9
			c1.3,0.4,2.3,1.3,2.9,2.5c0.6,1.2,0.7,2.5,0.3,3.8l-2.6,8.3c-0.2,0.7-0.6,1.3-1,1.8l5.6,5.7c0.9,0.9,1.4,2.2,1.4,3.6
			c0,1.3-0.6,2.6-1.5,3.5l-2.1,2.1c-0.5,0.5-1,0.8-1.6,1.1l1.9,6.1c0.4,1.3,0.3,2.6-0.3,3.8c-0.6,1.2-1.7,2.1-2.9,2.5l-2.8,0.9
			C183.5,196.5,183,196.6,182.5,196.6z"/>
		<path class="st0" d="M170.2,143.6v3c-1,0-1.7,0.8-1.7,1.7v1.6c2.7,1.7,4.4,4.7,4.4,8.1v3.3h4h0v1.7l3.4-1.3l2.2-7l2.8,0.9
			l-2.6,8.3l-5.8,2.3v4.3h5.7l5.8,6l-2.1,2.1l-5-5.1h-4.5v1.6c0,1.7-0.3,3.3-0.9,4.8l6.7,2.6l2.6,8.3l-2.8,0.9l-2.2-7l-5.6-2.2
			c-2.4,3.8-6.7,6.3-11.6,6.3s-9.1-2.5-11.6-6.3l-5.6,2.2l-2.2,7l-2.8-0.9l2.6-8.3l6.7-2.6c-0.6-1.5-0.9-3.1-0.9-4.8v-1.6h-4.5
			l-5,5.1l-2.1-2.1l5.8-6h5.7v-4.3l-5.8-2.3l-2.6-8.3l2.8-0.9l2.2,7l3.4,1.3v-1.7l0,0h0h4V158c0-3.4,1.8-6.4,4.4-8.1v-1.6
			c0-1-0.8-1.7-1.7-1.7v-3c2.6,0,4.7,2.1,4.7,4.7v0.3c0.7-0.2,1.5-0.3,2.3-0.3c0.8,0,1.6,0.1,2.3,0.3v-0.3
			C165.5,145.7,167.6,143.6,170.2,143.6 M170.2,133.6c-2.5,0-4.9,0.6-7,1.8c-2.1-1.1-4.5-1.8-7-1.8c-5.5,0-10,4.5-10,10v1.3
			c-0.8-0.2-1.6-0.3-2.4-0.3c-1,0-2,0.2-3,0.5l-2.8,0.9c-5.3,1.7-8.2,7.3-6.5,12.6l2.4,7.6l-3.1,3.2c-1.9,1.9-2.9,4.5-2.8,7.1
			c0,2.7,1.1,5.2,3,7l1.4,1.4l-0.9,2.8c-0.8,2.5-0.6,5.3,0.7,7.6c1.2,2.4,3.3,4.1,5.9,4.9l2.8,0.9c1,0.3,2,0.5,3,0.5
			c3.7,0,7.1-2,8.8-5.3c3.2,1.6,6.8,2.5,10.5,2.5s7.3-0.9,10.5-2.5c1.7,3.3,5.2,5.3,8.8,5.3c1,0,2-0.2,3-0.5l2.8-0.9
			c2.5-0.8,4.6-2.6,5.9-4.9c1.2-2.4,1.5-5.1,0.7-7.6l-0.9-2.8l1.4-1.4c1.9-1.9,3-4.4,3-7c0-2.7-1-5.2-2.8-7.1l-3.1-3.2l2.4-7.6
			c1.7-5.3-1.2-10.9-6.5-12.6l-2.8-0.9c-1-0.3-2-0.5-3-0.5c-0.8,0-1.6,0.1-2.4,0.3v-1.3C180.2,138,175.7,133.6,170.2,133.6
			L170.2,133.6z"/>
	</g>
	<g>
		<path class="st0" d="M359,136.2c-2.1,0-4.1-1.4-4.8-3.5l-1.5-4.7l0,0c-3.5,3.4-8.1,5.3-13.1,5.3c-5,0-9.6-1.9-13.1-5.3l0,0
			l-1.5,4.7c-0.7,2.1-2.6,3.5-4.8,3.5c-0.5,0-1-0.1-1.5-0.2l-2.8-0.9c-1.3-0.4-2.3-1.3-2.9-2.5c-0.6-1.2-0.7-2.5-0.3-3.8l1.9-6.1
			c-0.6-0.2-1.2-0.6-1.6-1.1l-2.1-2.1c-2-1.9-2-5.1-0.1-7.1l5.6-5.7c-0.5-0.5-0.8-1.1-1-1.8l-2.6-8.3c-0.8-2.6,0.6-5.4,3.3-6.3
			l2.8-0.9c0.5-0.2,1-0.2,1.5-0.2c0.8,0,1.6,0.2,2.3,0.6c1.2,0.6,2.1,1.7,2.5,2.9l0.4,1.2c0.5-2,1.5-3.9,2.8-5.5
			c-0.3-0.7-0.5-1.4-0.5-2.3v-3c0-2.8,2.2-5,5-5c2.8,0,5.3,1.2,7,3c1.8-1.9,4.3-3,7-3c2.8,0,5,2.2,5,5v3c0,0.8-0.2,1.6-0.5,2.3
			c1.3,1.6,2.2,3.5,2.8,5.5l0.4-1.2c0.4-1.3,1.3-2.3,2.5-2.9c0.7-0.4,1.5-0.6,2.3-0.6c0.5,0,1,0.1,1.5,0.2l2.8,0.9
			c2.6,0.8,4.1,3.6,3.3,6.3l-2.6,8.3c-0.2,0.7-0.6,1.3-1,1.8l5.6,5.7c0.9,0.9,1.4,2.2,1.4,3.6c0,1.3-0.6,2.6-1.5,3.5l-2.1,2.1
			c-0.5,0.5-1,0.8-1.6,1.1l1.9,6.1c0.4,1.3,0.3,2.6-0.3,3.8c-0.6,1.2-1.7,2.1-2.9,2.5l-2.8,0.9C360,136.1,359.5,136.2,359,136.2z"/>
		<path class="st0" d="M346.7,83.1v3c-1,0-1.7,0.8-1.7,1.7v1.6c2.7,1.7,4.4,4.7,4.4,8.1v3.3h4h0v1.7l3.4-1.3l2.2-7l2.8,0.9l-2.6,8.3
			l-5.8,2.3v4.3h5.7l5.8,6l-2.1,2.1l-5-5.1h-4.5v1.6c0,1.7-0.3,3.3-0.9,4.8l6.7,2.6l2.6,8.3l-2.8,0.9l-2.2-7l-5.6-2.2
			c-2.4,3.8-6.7,6.3-11.6,6.3c-4.9,0-9.1-2.5-11.6-6.3l-5.6,2.2l-2.2,7l-2.8-0.9l2.6-8.3l6.7-2.6c-0.6-1.5-0.9-3.1-0.9-4.8v-1.6
			h-4.5l-5,5.1l-2.1-2.1l5.8-6h5.7v-4.3l-5.8-2.3l-2.6-8.3l2.8-0.9l2.2,7l3.4,1.3v-1.7l0,0h0h4v-3.3c0-3.4,1.8-6.4,4.4-8.1v-1.6
			c0-1-0.8-1.7-1.7-1.7v-3c2.6,0,4.7,2.1,4.7,4.7v0.3c0.7-0.2,1.5-0.3,2.3-0.3c0.8,0,1.6,0.1,2.3,0.3v-0.3
			C342,85.3,344.1,83.1,346.7,83.1 M346.7,73.1c-2.5,0-4.9,0.6-7,1.8c-2.1-1.1-4.5-1.8-7-1.8c-5.5,0-10,4.5-10,10v1.3
			c-0.8-0.2-1.6-0.3-2.4-0.3c-1,0-2,0.2-3,0.5l-2.8,0.9c-5.3,1.7-8.2,7.3-6.5,12.6l2.4,7.6l-3.1,3.2c-1.9,1.9-2.9,4.5-2.8,7.1
			c0,2.7,1.1,5.2,3,7l1.4,1.4l-0.9,2.8c-1.7,5.3,1.2,10.9,6.5,12.6l2.8,0.9c1,0.3,2,0.5,3,0.5c3.7,0,7.1-2,8.8-5.3
			c3.2,1.6,6.8,2.5,10.5,2.5c3.7,0,7.3-0.9,10.5-2.5c0.9,1.8,2.4,3.3,4.2,4.2c1.4,0.7,3,1.1,4.6,1.1c1,0,2-0.2,3-0.5l2.8-0.9
			c2.5-0.8,4.6-2.6,5.9-4.9c1.2-2.4,1.5-5.1,0.7-7.6l-0.9-2.8l1.4-1.4c1.9-1.9,3-4.4,3-7c0-2.7-1-5.2-2.8-7.1l-3.1-3.2l2.4-7.6
			c1.7-5.3-1.2-10.9-6.5-12.6l-2.8-0.9c-1-0.3-2-0.5-3-0.5c-0.8,0-1.6,0.1-2.4,0.3v-1.3C356.7,77.6,352.2,73.1,346.7,73.1
			L346.7,73.1z"/>
	</g>
	<g>
		<path class="st0" d="M290.1,136.2c-2.1,0-4.1-1.4-4.8-3.5l-1.5-4.7l0,0c-3.5,3.4-8.1,5.3-13.1,5.3c-5,0-9.6-1.9-13.1-5.3l0,0
			l-1.5,4.7c-0.4,1.3-1.3,2.3-2.5,2.9c-0.7,0.4-1.5,0.6-2.3,0.6c-0.5,0-1-0.1-1.5-0.2l-2.8-0.9c-1.3-0.4-2.3-1.3-2.9-2.5
			c-0.6-1.2-0.7-2.5-0.3-3.8l1.9-6.1c-0.6-0.2-1.2-0.6-1.6-1.1l-2.1-2.1c-2-1.9-2-5.1-0.1-7.1l5.6-5.7c-0.5-0.5-0.8-1.1-1-1.8
			l-2.6-8.3c-0.8-2.6,0.6-5.4,3.3-6.3l2.8-0.9c0.5-0.2,1-0.2,1.5-0.2c0.8,0,1.6,0.2,2.3,0.6c1.2,0.6,2.1,1.7,2.5,2.9l0.4,1.2
			c0.5-2,1.5-3.9,2.8-5.5c-0.3-0.7-0.5-1.4-0.5-2.3v-3c0-2.8,2.2-5,5-5c2.8,0,5.3,1.2,7,3c1.8-1.9,4.3-3,7-3c2.8,0,5,2.2,5,5v3
			c0,0.8-0.2,1.6-0.5,2.3c1.3,1.6,2.2,3.5,2.8,5.5l0.4-1.2c0.4-1.3,1.3-2.3,2.5-2.9c0.7-0.4,1.5-0.6,2.3-0.6c0.5,0,1,0.1,1.5,0.2
			l2.8,0.9c2.6,0.8,4.1,3.6,3.3,6.3l-2.6,8.3c-0.2,0.7-0.6,1.3-1,1.8l5.6,5.7c0.9,0.9,1.4,2.2,1.4,3.6c0,1.3-0.6,2.6-1.5,3.5
			l-2.1,2.1c-0.5,0.5-1,0.8-1.6,1.1l1.9,6.1c0.4,1.3,0.3,2.6-0.3,3.8c-0.6,1.2-1.7,2.1-2.9,2.5l-2.8,0.9
			C291.1,136.1,290.6,136.2,290.1,136.2z"/>
		<path class="st0" d="M277.8,83.1v3c-1,0-1.7,0.8-1.7,1.7v1.6c2.7,1.7,4.4,4.7,4.4,8.1v3.3h4h0v1.7l3.4-1.3l2.2-7l2.8,0.9l-2.6,8.3
			l-5.8,2.3v4.3h5.7l5.8,6l-2.1,2.1l-5-5.1h-4.5v1.6c0,1.7-0.3,3.3-0.9,4.8l6.7,2.6l2.6,8.3l-2.8,0.9l-2.2-7l-5.6-2.2
			c-2.4,3.8-6.7,6.3-11.6,6.3c-4.9,0-9.1-2.5-11.6-6.3l-5.6,2.2l-2.2,7l-2.8-0.9l2.6-8.3l6.7-2.6c-0.6-1.5-0.9-3.1-0.9-4.8v-1.6
			h-4.5l-5,5.1l-2.1-2.1l5.8-6h5.7v-4.3l-5.8-2.3l-2.6-8.3l2.8-0.9l2.2,7l3.4,1.3v-1.7l0,0h0h4v-3.3c0-3.4,1.8-6.4,4.4-8.1v-1.6
			c0-1-0.8-1.7-1.7-1.7v-3c2.6,0,4.7,2.1,4.7,4.7v0.3c0.7-0.2,1.5-0.3,2.3-0.3c0.8,0,1.6,0.1,2.3,0.3v-0.3
			C273.1,85.3,275.2,83.1,277.8,83.1 M277.8,73.1c-2.5,0-4.9,0.6-7,1.8c-2.1-1.1-4.5-1.8-7-1.8c-5.5,0-10,4.5-10,10v1.3
			c-0.8-0.2-1.6-0.3-2.4-0.3c-1,0-2,0.2-3,0.5l-2.8,0.9c-5.3,1.7-8.2,7.3-6.5,12.6l2.4,7.6l-3.1,3.2c-1.9,1.9-2.9,4.5-2.8,7.1
			s1.1,5.2,3,7l1.4,1.4l-0.9,2.8c-1.7,5.3,1.2,10.9,6.5,12.6l2.8,0.9c1,0.3,2,0.5,3,0.5c1.6,0,3.2-0.4,4.6-1.1
			c1.8-0.9,3.3-2.4,4.2-4.2c3.2,1.6,6.8,2.5,10.5,2.5c3.7,0,7.3-0.9,10.5-2.5c1.7,3.3,5.2,5.3,8.8,5.3c1,0,2-0.2,3-0.5l2.8-0.9
			c2.5-0.8,4.6-2.6,5.9-4.9c1.2-2.4,1.5-5.1,0.7-7.6l-0.9-2.8l1.4-1.4c1.9-1.9,3-4.4,3-7c0-2.7-1-5.2-2.8-7.1l-3.1-3.2l2.4-7.6
			c1.7-5.3-1.2-10.9-6.5-12.6l-2.8-0.9c-1-0.3-2-0.5-3-0.5c-0.8,0-1.6,0.1-2.4,0.3v-1.3C287.8,77.6,283.3,73.1,277.8,73.1
			L277.8,73.1z"/>
	</g>
	<g>
		<path class="st0" d="M182.4,136.2c-0.5,0-1-0.1-1.5-0.2l-2.8-0.9c-2.6-0.8-4.1-3.6-3.3-6.3l1.9-6.1c-0.6-0.2-1.2-0.6-1.6-1.1
			l-2.1-2.1c-2-1.9-2-5.1-0.1-7.1l5.6-5.7c-0.5-0.5-0.8-1.1-1-1.8l-2.6-8.3c-0.8-2.6,0.6-5.4,3.3-6.3l2.8-0.9c0.5-0.2,1-0.2,1.5-0.2
			c0.8,0,1.6,0.2,2.3,0.6c1.2,0.6,2.1,1.7,2.5,2.9l0.4,1.2c0.5-2,1.5-3.9,2.8-5.5c-0.3-0.7-0.5-1.4-0.5-2.3v-3c0-2.8,2.2-5,5-5
			c2.8,0,5.3,1.2,7,3c1.8-1.9,4.3-3,7-3c2.8,0,5,2.2,5,5v3c0,0.8-0.2,1.6-0.5,2.3c1.3,1.6,2.2,3.5,2.8,5.5l0.4-1.2
			c0.4-1.3,1.3-2.3,2.5-2.9c0.7-0.4,1.5-0.6,2.3-0.6c0.5,0,1,0.1,1.5,0.2l2.8,0.9c2.6,0.8,4.1,3.6,3.3,6.3l-2.6,8.3
			c-0.2,0.7-0.6,1.3-1,1.8l5.6,5.7c0.9,0.9,1.4,2.2,1.4,3.6c0,1.3-0.6,2.6-1.5,3.5l-2.1,2.1c-0.5,0.5-1,0.8-1.6,1.1l1.9,6.1
			c0.8,2.6-0.6,5.4-3.3,6.3l-2.8,0.9c-0.5,0.2-1,0.2-1.5,0.2c-0.8,0-1.6-0.2-2.3-0.6c-1.2-0.6-2.1-1.7-2.5-2.9L215,128l0,0
			c-3.5,3.4-8.1,5.3-13.1,5.3c-5,0-9.6-1.9-13.1-5.3l0,0l-1.5,4.7C186.5,134.9,184.6,136.2,182.4,136.2z"/>
		<path class="st0" d="M208.9,83.1v3c-1,0-1.7,0.8-1.7,1.7v1.6c2.7,1.7,4.4,4.7,4.4,8.1v3.3h4h0v1.7l3.4-1.3l2.2-7l2.8,0.9l-2.6,8.3
			l-5.8,2.3v4.3h5.7l5.8,6L225,118l-5-5.1h-4.5v1.6c0,1.7-0.3,3.3-0.9,4.8l6.7,2.6l2.6,8.3l-2.8,0.9l-2.2-7l-5.6-2.2
			c-2.4,3.8-6.7,6.3-11.6,6.3c-4.9,0-9.1-2.5-11.6-6.3l-5.6,2.2l-2.2,7l-2.8-0.9l2.6-8.3l6.7-2.6c-0.6-1.5-0.9-3.1-0.9-4.8v-1.6
			h-4.5l-5,5.1l-2.1-2.1l5.8-6h5.7v-4.3l-5.8-2.3l-2.6-8.3l2.8-0.9l2.2,7l3.4,1.3v-1.7l0,0h0h4v-3.3c0-3.4,1.8-6.4,4.4-8.1v-1.6
			c0-1-0.8-1.7-1.7-1.7v-3c2.6,0,4.7,2.1,4.7,4.7v0.3c0.7-0.2,1.5-0.3,2.3-0.3c0.8,0,1.6,0.1,2.3,0.3v-0.3
			C204.2,85.3,206.3,83.1,208.9,83.1 M208.9,73.1c-2.5,0-4.9,0.6-7,1.8c-2.1-1.1-4.5-1.8-7-1.8c-5.5,0-10,4.5-10,10v1.3
			c-0.8-0.2-1.6-0.3-2.4-0.3c-1,0-2,0.2-3,0.5l-2.8,0.9c-5.3,1.7-8.2,7.3-6.5,12.6l2.4,7.6l-3.1,3.2c-1.9,1.9-2.9,4.5-2.8,7.1
			s1.1,5.2,3,7l1.4,1.4l-0.9,2.8c-1.7,5.3,1.2,10.9,6.5,12.6l2.8,0.9c1,0.3,2,0.5,3,0.5c1.6,0,3.2-0.4,4.6-1.1
			c1.8-0.9,3.3-2.4,4.2-4.2c3.2,1.6,6.8,2.5,10.5,2.5c3.7,0,7.3-0.9,10.5-2.5c1.7,3.3,5.2,5.3,8.8,5.3c1,0,2-0.2,3-0.5l2.8-0.9
			c2.5-0.8,4.6-2.6,5.9-4.9c1.2-2.4,1.5-5.1,0.7-7.6l-0.9-2.8l1.4-1.4c1.9-1.9,3-4.4,3-7c0-2.7-1-5.2-2.8-7.1l-3.1-3.2l2.4-7.6
			c1.7-5.3-1.2-10.9-6.5-12.6l-2.8-0.9c-1-0.3-2-0.5-3-0.5c-0.8,0-1.6,0.1-2.4,0.3v-1.3C218.9,77.6,214.4,73.1,208.9,73.1
			L208.9,73.1z"/>
	</g>
	<g>
		<path class="st0" d="M83.4,136.2c-2.1,0-4.1-1.4-4.8-3.5l-1.5-4.7l0,0c-3.5,3.4-8.1,5.3-13.1,5.3s-9.6-1.9-13.1-5.3l0,0l-1.5,4.7
			c-0.7,2.1-2.6,3.5-4.8,3.5c-0.5,0-1-0.1-1.5-0.2l-2.8-0.9c-1.3-0.4-2.3-1.3-2.9-2.5c-0.6-1.2-0.7-2.5-0.3-3.8l1.9-6.1
			c-0.6-0.2-1.2-0.6-1.6-1.1l-2.1-2.1c-2-1.9-2-5.1-0.1-7.1l5.6-5.7c-0.5-0.5-0.8-1.1-1-1.8l-2.6-8.3c-0.8-2.6,0.6-5.4,3.3-6.3
			l2.8-0.9c0.5-0.2,1-0.2,1.5-0.2c0.8,0,1.6,0.2,2.3,0.6c1.2,0.6,2.1,1.7,2.5,2.9l0.4,1.2c0.5-2,1.5-3.9,2.8-5.5
			c-0.3-0.7-0.5-1.4-0.5-2.3v-3c0-2.8,2.2-5,5-5c2.8,0,5.3,1.2,7,3c1.8-1.9,4.3-3,7-3c2.8,0,5,2.2,5,5v3c0,0.8-0.2,1.6-0.5,2.3
			c1.3,1.6,2.2,3.5,2.8,5.5l0.4-1.2c0.4-1.3,1.3-2.3,2.5-2.9c0.7-0.4,1.5-0.6,2.3-0.6c0.5,0,1,0.1,1.5,0.2l2.8,0.9
			c2.6,0.8,4.1,3.6,3.3,6.3l-2.6,8.3c-0.2,0.7-0.6,1.3-1,1.8l5.6,5.7c1.9,2,1.9,5.1-0.1,7.1l-2.1,2.1c-0.5,0.5-1,0.8-1.6,1.1
			l1.9,6.1c0.4,1.3,0.3,2.6-0.3,3.8c-0.6,1.2-1.7,2.1-2.9,2.5l-2.8,0.9C84.4,136.1,83.9,136.2,83.4,136.2z"/>
		<path class="st0" d="M71.1,83.1v3c-1,0-1.7,0.8-1.7,1.7v1.6c2.7,1.7,4.4,4.7,4.4,8.1v3.3h4h0v1.7l3.4-1.3l2.2-7l2.8,0.9l-2.6,8.3
			l-5.8,2.3v4.3h5.7l5.8,6l-2.1,2.1l-5-5.1h-4.5v1.6c0,1.7-0.3,3.3-0.9,4.8l6.7,2.6l2.6,8.3l-2.8,0.9l-2.2-7l-5.6-2.2
			c-2.4,3.8-6.7,6.3-11.6,6.3s-9.1-2.5-11.6-6.3l-5.6,2.2l-2.2,7l-2.8-0.9l2.6-8.3l6.7-2.6c-0.6-1.5-0.9-3.1-0.9-4.8v-1.6h-4.5
			l-5,5.1l-2.1-2.1l5.8-6h5.7v-4.3l-5.8-2.3l-2.6-8.3l2.8-0.9l2.2,7l3.4,1.3v-1.7l0,0h0h4v-3.3c0-3.4,1.8-6.4,4.4-8.1v-1.6
			c0-1-0.8-1.7-1.7-1.7v-3c2.6,0,4.7,2.1,4.7,4.7v0.3c0.7-0.2,1.5-0.3,2.3-0.3c0.8,0,1.6,0.1,2.3,0.3v-0.3
			C66.4,85.3,68.5,83.1,71.1,83.1 M71.1,73.1c-2.5,0-4.9,0.6-7,1.8c-2.1-1.1-4.5-1.8-7-1.8c-5.5,0-10,4.5-10,10v1.3
			c-0.8-0.2-1.6-0.3-2.4-0.3c-1,0-2,0.2-3,0.5l-2.8,0.9c-5.3,1.7-8.2,7.3-6.5,12.6l2.4,7.6l-3.1,3.2c-1.9,1.9-2.9,4.5-2.8,7.1
			c0,2.7,1.1,5.2,3,7l1.4,1.4l-0.9,2.8c-1.7,5.3,1.2,10.9,6.5,12.6l2.8,0.9c1,0.3,2,0.5,3,0.5c3.7,0,7.1-2,8.8-5.3
			c3.2,1.6,6.8,2.5,10.5,2.5c3.7,0,7.3-0.9,10.5-2.5c1.7,3.3,5.2,5.3,8.8,5.3c1,0,2-0.2,3-0.5l2.8-0.9c2.5-0.8,4.6-2.6,5.9-4.9
			c1.2-2.4,1.5-5.1,0.7-7.6l-0.9-2.8l1.4-1.4c1.9-1.9,3-4.4,3-7s-1-5.2-2.8-7.1l-3.1-3.2l2.4-7.6c1.7-5.3-1.2-10.9-6.5-12.6
			l-2.8-0.9c-1-0.3-2-0.5-3-0.5c-0.8,0-1.6,0.1-2.4,0.3v-1.3C81.1,77.6,76.6,73.1,71.1,73.1L71.1,73.1z"/>
	</g>
	<g>
		<path class="st0" d="M152.3,136.2c-2.1,0-4.1-1.4-4.8-3.5l-1.5-4.7l0,0c-3.5,3.4-8.1,5.3-13.1,5.3s-9.6-1.9-13.1-5.3l0,0l-1.5,4.7
			c-0.7,2.1-2.6,3.5-4.8,3.5c-0.5,0-1-0.1-1.5-0.2l-2.8-0.9c-2.6-0.8-4.1-3.6-3.3-6.3l1.9-6.1c-0.6-0.2-1.2-0.6-1.6-1.1l-2.1-2.1
			c-2-1.9-2-5.1-0.1-7.1l5.6-5.7c-0.5-0.5-0.8-1.1-1-1.8l-2.6-8.3c-0.8-2.6,0.6-5.4,3.3-6.3l2.8-0.9c0.5-0.2,1-0.2,1.5-0.2
			c0.8,0,1.6,0.2,2.3,0.6c1.2,0.6,2.1,1.7,2.5,2.9l0.4,1.2c0.5-2,1.5-3.9,2.8-5.5c-0.3-0.7-0.5-1.4-0.5-2.3v-3c0-2.8,2.2-5,5-5
			c2.8,0,5.3,1.2,7,3c1.8-1.9,4.3-3,7-3c2.8,0,5,2.2,5,5v3c0,0.8-0.2,1.6-0.5,2.3c1.3,1.6,2.2,3.5,2.8,5.5l0.4-1.2
			c0.4-1.3,1.3-2.3,2.5-2.9c0.7-0.4,1.5-0.6,2.3-0.6c0.5,0,1,0.1,1.5,0.2l2.8,0.9c2.6,0.8,4.1,3.6,3.3,6.3l-2.6,8.3
			c-0.2,0.7-0.6,1.3-1,1.8l5.6,5.7c1.9,2,1.9,5.1-0.1,7.1l-2.1,2.1c-0.5,0.5-1,0.8-1.6,1.1l1.9,6.1c0.4,1.3,0.3,2.6-0.3,3.8
			c-0.6,1.2-1.7,2.1-2.9,2.5l-2.8,0.9C153.3,136.1,152.8,136.2,152.3,136.2z"/>
		<path class="st0" d="M140,83.1v3c-1,0-1.7,0.8-1.7,1.7v1.6c2.7,1.7,4.4,4.7,4.4,8.1v3.3h4h0v1.7l3.4-1.3l2.2-7l2.8,0.9l-2.6,8.3
			l-5.8,2.3v4.3h5.7l5.8,6l-2.1,2.1l-5-5.1h-4.5v1.6c0,1.7-0.3,3.3-0.9,4.8l6.7,2.6l2.6,8.3l-2.8,0.9l-2.2-7l-5.6-2.2
			c-2.4,3.8-6.7,6.3-11.6,6.3s-9.1-2.5-11.6-6.3l-5.6,2.2l-2.2,7l-2.8-0.9l2.6-8.3l6.7-2.6c-0.6-1.5-0.9-3.1-0.9-4.8v-1.6h-4.5
			l-5,5.1l-2.1-2.1l5.8-6h5.7v-4.3l-5.8-2.3l-2.6-8.3l2.8-0.9l2.2,7l3.4,1.3v-1.7l0,0h0h4v-3.3c0-3.4,1.8-6.4,4.4-8.1v-1.6
			c0-1-0.8-1.7-1.7-1.7v-3c2.6,0,4.7,2.1,4.7,4.7v0.3c0.7-0.2,1.5-0.3,2.3-0.3c0.8,0,1.6,0.1,2.3,0.3v-0.3
			C135.3,85.3,137.4,83.1,140,83.1 M140,73.1c-2.5,0-4.9,0.6-7,1.8c-2.1-1.1-4.5-1.8-7-1.8c-5.5,0-10,4.5-10,10v1.3
			c-0.8-0.2-1.6-0.3-2.4-0.3c-1,0-2,0.2-3,0.5l-2.8,0.9c-5.3,1.7-8.2,7.3-6.5,12.6l2.4,7.6l-3.1,3.2c-1.9,1.9-2.9,4.5-2.8,7.1
			s1.1,5.2,3,7l1.4,1.4l-0.9,2.8c-0.8,2.5-0.6,5.3,0.7,7.6c1.2,2.4,3.3,4.1,5.9,4.9l2.8,0.9c1,0.3,2,0.5,3,0.5c3.7,0,7.1-2,8.8-5.3
			c3.2,1.6,6.8,2.5,10.5,2.5s7.3-0.9,10.5-2.5c1.7,3.3,5.2,5.3,8.8,5.3c1,0,2-0.2,3-0.5l2.8-0.9c2.5-0.8,4.6-2.6,5.9-4.9
			c1.2-2.4,1.5-5.1,0.7-7.6l-0.9-2.8l1.4-1.4c1.9-1.9,3-4.4,3-7s-1-5.2-2.8-7.1l-3.1-3.2l2.4-7.6c1.7-5.3-1.2-10.9-6.5-12.6
			l-2.8-0.9c-1-0.3-2-0.5-3-0.5c-0.8,0-1.6,0.1-2.4,0.3v-1.3C150,77.6,145.5,73.1,140,73.1L140,73.1z"/>
	</g>
	<g>
		<path class="st0" d="M182.5,319.6c-2.1,0-4.1-1.4-4.8-3.5l-1.5-4.7l0,0c-3.5,3.4-8.1,5.3-13.1,5.3s-9.6-1.9-13.1-5.3l0,0l-1.5,4.7
			c-0.7,2.1-2.6,3.5-4.8,3.5c-0.5,0-1-0.1-1.5-0.2l-2.8-0.9c-1.3-0.4-2.3-1.3-2.9-2.5c-0.6-1.2-0.7-2.5-0.3-3.8l1.9-6.1
			c-0.6-0.2-1.2-0.6-1.6-1.1l-2.1-2.1c-2-1.9-2-5.1-0.1-7.1l5.6-5.7c-0.5-0.5-0.8-1.1-1-1.8l-2.6-8.3c-0.8-2.6,0.6-5.4,3.3-6.3
			l2.8-0.9c0.5-0.2,1-0.2,1.5-0.2c0.8,0,1.6,0.2,2.3,0.6c1.2,0.6,2.1,1.7,2.5,2.9l0.4,1.2c0.5-2,1.5-3.9,2.8-5.5
			c-0.3-0.7-0.5-1.4-0.5-2.3v-3c0-2.8,2.2-5,5-5c2.8,0,5.3,1.2,7,3c1.8-1.9,4.3-3,7-3c2.8,0,5,2.2,5,5v3c0,0.8-0.2,1.6-0.5,2.3
			c1.3,1.6,2.2,3.5,2.8,5.5l0.4-1.2c0.4-1.3,1.3-2.3,2.5-2.9c0.7-0.4,1.5-0.6,2.3-0.6c0.5,0,1,0.1,1.5,0.2l2.8,0.9
			c2.6,0.8,4.1,3.6,3.3,6.3l-2.6,8.3c-0.2,0.7-0.6,1.3-1,1.8l5.6,5.7c0.9,0.9,1.4,2.2,1.4,3.6c0,1.3-0.6,2.6-1.5,3.5l-2.1,2.1
			c-0.5,0.5-1,0.8-1.6,1.1l1.9,6.1c0.4,1.3,0.3,2.6-0.3,3.8c-0.6,1.2-1.7,2.1-2.9,2.5l-2.8,0.9C183.5,319.5,183,319.6,182.5,319.6z"
			/>
		<path class="st0" d="M170.2,266.6v3c-1,0-1.7,0.8-1.7,1.7v1.6c2.7,1.7,4.4,4.7,4.4,8.1v3.3h4h0l0,0v1.7l3.4-1.3l2.2-7l2.8,0.9
			l-2.6,8.3l-5.8,2.3v4.3h5.7l5.8,6l-2.1,2.1l-5-5.1h-4.5v1.6c0,1.7-0.3,3.3-0.9,4.8l6.7,2.6l2.6,8.3l-2.8,0.9l-2.2-7l-5.6-2.2
			c-2.4,3.8-6.7,6.3-11.6,6.3c-4.9,0-9.1-2.5-11.6-6.3l-5.6,2.2l-2.2,7l-2.8-0.9l2.6-8.3l6.7-2.6c-0.6-1.5-0.9-3.1-0.9-4.8v-1.6
			h-4.5l-5,5.1l-2.1-2.1l5.8-6h5.7v-4.3l-5.8-2.3l-2.6-8.3l2.8-0.9l2.2,7l3.4,1.3v-1.7h0h4V281c0-3.4,1.8-6.4,4.4-8.1v-1.6
			c0-1-0.8-1.7-1.7-1.7v-3c2.6,0,4.7,2.1,4.7,4.7v0.3c0.7-0.2,1.5-0.3,2.3-0.3c0.8,0,1.6,0.1,2.3,0.3v-0.3
			C165.5,268.7,167.6,266.6,170.2,266.6 M170.2,256.6c-2.5,0-4.9,0.6-7,1.8c-2.1-1.1-4.5-1.8-7-1.8c-5.5,0-10,4.5-10,10v1.3
			c-0.8-0.2-1.6-0.3-2.4-0.3c-1,0-2,0.2-3,0.5l-2.8,0.9c-5.3,1.7-8.2,7.3-6.5,12.6l2.4,7.6l-3.1,3.2c-1.9,1.9-2.9,4.5-2.8,7.1
			c0,2.7,1.1,5.2,3,7l1.4,1.4l-0.9,2.8c-0.8,2.5-0.6,5.3,0.7,7.6c1.2,2.4,3.3,4.1,5.9,4.9l2.8,0.9c1,0.3,2,0.5,3,0.5
			c3.7,0,7.1-2,8.8-5.3c3.2,1.6,6.8,2.5,10.5,2.5c3.7,0,7.3-0.9,10.5-2.5c1.7,3.3,5.2,5.3,8.8,5.3c1,0,2-0.2,3-0.5l2.8-0.9
			c5.3-1.7,8.2-7.3,6.5-12.6l-0.9-2.8l1.4-1.4c1.9-1.9,3-4.4,3-7s-1-5.2-2.8-7.1l-3.1-3.2l2.4-7.6c1.7-5.3-1.2-10.9-6.5-12.6
			l-2.8-0.9c-1-0.3-2-0.5-3-0.5c-0.8,0-1.6,0.1-2.4,0.3v-1.3C180.2,261,175.7,256.6,170.2,256.6L170.2,256.6z"/>
	</g>
	<g>
		<path class="st0" d="M251.4,319.6c-2.1,0-4.1-1.4-4.8-3.5l-1.5-4.7l0,0c-3.5,3.4-8.1,5.3-13.1,5.3c-5,0-9.6-1.9-13.1-5.3l0,0
			l-1.5,4.7c-0.7,2.1-2.6,3.5-4.8,3.5c-0.5,0-1-0.1-1.5-0.2l-2.8-0.9c-1.3-0.4-2.3-1.3-2.9-2.5c-0.6-1.2-0.7-2.5-0.3-3.8l1.9-6.1
			c-0.6-0.2-1.2-0.6-1.6-1.1l-2.1-2.1c-2-1.9-2-5.1-0.1-7.1l5.6-5.7c-0.5-0.5-0.8-1.1-1-1.8l-2.6-8.3c-0.8-2.6,0.6-5.4,3.3-6.3
			l2.8-0.9c0.5-0.2,1-0.2,1.5-0.2c0.8,0,1.6,0.2,2.3,0.6c1.2,0.6,2.1,1.7,2.5,2.9l0.4,1.2c0.5-2,1.5-3.9,2.8-5.5
			c-0.3-0.7-0.5-1.4-0.5-2.3v-3c0-2.8,2.2-5,5-5c2.8,0,5.3,1.2,7,3c1.8-1.9,4.3-3,7-3c2.8,0,5,2.2,5,5v3c0,0.8-0.2,1.6-0.5,2.3
			c1.3,1.6,2.2,3.5,2.8,5.5l0.4-1.2c0.4-1.3,1.3-2.3,2.5-2.9c0.7-0.4,1.5-0.6,2.3-0.6c0.5,0,1,0.1,1.5,0.2l2.8,0.9
			c2.6,0.8,4.1,3.6,3.3,6.3l-2.6,8.3c-0.2,0.7-0.6,1.3-1,1.8l5.6,5.7c0.9,0.9,1.4,2.2,1.4,3.6c0,1.3-0.6,2.6-1.5,3.5l-2.1,2.1
			c-0.5,0.5-1,0.8-1.6,1.1l1.9,6.1c0.4,1.3,0.3,2.6-0.3,3.8c-0.6,1.2-1.7,2.1-2.9,2.5l-2.8,0.9C252.4,319.5,251.9,319.6,251.4,319.6
			z"/>
		<path class="st0" d="M239.1,266.6v3c-1,0-1.7,0.8-1.7,1.7v1.6c2.7,1.7,4.4,4.7,4.4,8.1v3.3h4h0l0,0v1.7l3.4-1.3l2.2-7l2.8,0.9
			l-2.6,8.3l-5.8,2.3v4.3h5.7l5.8,6l-2.1,2.1l-5-5.1h-4.5v1.6c0,1.7-0.3,3.3-0.9,4.8l6.7,2.6l2.6,8.3l-2.8,0.9l-2.2-7l-5.6-2.2
			c-2.4,3.8-6.7,6.3-11.6,6.3c-4.9,0-9.1-2.5-11.6-6.3l-5.6,2.2l-2.2,7l-2.8-0.9l2.6-8.3l6.7-2.6c-0.6-1.5-0.9-3.1-0.9-4.8v-1.6
			h-4.5l-5,5.1l-2.1-2.1l5.8-6h5.7v-4.3l-5.8-2.3l-2.6-8.3l2.8-0.9l2.2,7l3.4,1.3v-1.7h0h4V281c0-3.4,1.8-6.4,4.4-8.1v-1.6
			c0-1-0.8-1.7-1.7-1.7v-3c2.6,0,4.7,2.1,4.7,4.7v0.3c0.7-0.2,1.5-0.3,2.3-0.3c0.8,0,1.6,0.1,2.3,0.3v-0.3
			C234.4,268.7,236.5,266.6,239.1,266.6 M239.1,256.6c-2.5,0-4.9,0.6-7,1.8c-2.1-1.1-4.5-1.8-7-1.8c-5.5,0-10,4.5-10,10v1.3
			c-0.8-0.2-1.6-0.3-2.4-0.3c-1,0-2,0.2-3,0.5l-2.8,0.9c-5.3,1.7-8.2,7.3-6.5,12.6l2.4,7.6l-3.1,3.2c-1.9,1.9-2.9,4.5-2.8,7.1
			c0,2.7,1.1,5.2,3,7l1.4,1.4l-0.9,2.8c-1.7,5.3,1.2,10.9,6.5,12.6l2.8,0.9c1,0.3,2,0.5,3,0.5c1.6,0,3.2-0.4,4.6-1.1
			c1.8-0.9,3.3-2.4,4.2-4.2c3.2,1.6,6.8,2.5,10.5,2.5c3.7,0,7.3-0.9,10.5-2.5c1.7,3.3,5.2,5.3,8.8,5.3c1,0,2-0.2,3-0.5l2.8-0.9
			c5.3-1.7,8.2-7.3,6.5-12.6l-0.9-2.8l1.4-1.4c1.9-1.9,3-4.4,3-7s-1-5.2-2.8-7.1l-3.1-3.2l2.4-7.6c1.7-5.3-1.2-10.9-6.5-12.6
			l-2.8-0.9c-1-0.3-2-0.5-3-0.5c-0.8,0-1.6,0.1-2.4,0.3v-1.3C249.1,261,244.6,256.6,239.1,256.6L239.1,256.6z"/>
	</g>
	<g>
		<path class="st0" d="M113.6,319.6c-2.1,0-4.1-1.4-4.8-3.5l-1.5-4.7l0,0c-3.5,3.4-8.1,5.3-13.1,5.3s-9.6-1.9-13.1-5.3l0,0l-1.5,4.7
			c-0.7,2.1-2.6,3.5-4.8,3.5c-0.5,0-1-0.1-1.5-0.2l-2.8-0.9c-1.3-0.4-2.3-1.3-2.9-2.5c-0.6-1.2-0.7-2.5-0.3-3.8l1.9-6.1
			c-0.6-0.2-1.2-0.6-1.6-1.1l-2.1-2.1c-2-1.9-2-5.1-0.1-7.1l5.6-5.7c-0.5-0.5-0.8-1.1-1-1.8l-2.6-8.3c-0.8-2.6,0.6-5.4,3.3-6.3
			l2.8-0.9c0.5-0.2,1-0.2,1.5-0.2c0.8,0,1.6,0.2,2.3,0.6c1.2,0.6,2.1,1.7,2.5,2.9l0.4,1.2c0.5-2,1.5-3.9,2.8-5.5
			c-0.3-0.7-0.5-1.4-0.5-2.3v-3c0-2.8,2.2-5,5-5c2.8,0,5.3,1.2,7,3c1.8-1.9,4.3-3,7-3c2.8,0,5,2.2,5,5v3c0,0.8-0.2,1.6-0.5,2.3
			c1.3,1.6,2.2,3.5,2.8,5.5l0.4-1.2c0.4-1.3,1.3-2.3,2.5-2.9c0.7-0.4,1.5-0.6,2.3-0.6c0.5,0,1,0.1,1.5,0.2l2.8,0.9
			c2.6,0.8,4.1,3.6,3.3,6.3l-2.6,8.3c-0.2,0.7-0.6,1.3-1,1.8l5.6,5.7c0.9,0.9,1.4,2.2,1.4,3.6c0,1.3-0.6,2.6-1.5,3.5l-2.1,2.1
			c-0.5,0.5-1,0.8-1.6,1.1l1.9,6.1c0.4,1.3,0.3,2.6-0.3,3.8c-0.6,1.2-1.7,2.1-2.9,2.5l-2.8,0.9C114.6,319.5,114.1,319.6,113.6,319.6
			z"/>
		<path class="st0" d="M101.3,266.6v3c-1,0-1.7,0.8-1.7,1.7v1.6c2.7,1.7,4.4,4.7,4.4,8.1v3.3h4h0l0,0v1.7l3.4-1.3l2.2-7l2.8,0.9
			l-2.6,8.3l-5.8,2.3v4.3h5.7l5.8,6l-2.1,2.1l-5-5.1H108v1.6c0,1.7-0.3,3.3-0.9,4.8l6.7,2.6l2.6,8.3l-2.8,0.9l-2.2-7l-5.6-2.2
			c-2.4,3.8-6.7,6.3-11.6,6.3c-4.9,0-9.1-2.5-11.6-6.3l-5.6,2.2l-2.2,7l-2.8-0.9l2.6-8.3l6.7-2.6c-0.6-1.5-0.9-3.1-0.9-4.8v-1.6H76
			l-5,5.1l-2.1-2.1l5.8-6h5.7v-4.3l-5.8-2.3l-2.6-8.3l2.8-0.9l2.2,7l3.4,1.3v-1.7h0h4V281c0-3.4,1.8-6.4,4.4-8.1v-1.6
			c0-1-0.8-1.7-1.7-1.7v-3c2.6,0,4.7,2.1,4.7,4.7v0.3c0.7-0.2,1.5-0.3,2.3-0.3c0.8,0,1.6,0.1,2.3,0.3v-0.3
			C96.6,268.7,98.7,266.6,101.3,266.6 M101.3,256.6c-2.5,0-4.9,0.6-7,1.8c-2.1-1.1-4.5-1.8-7-1.8c-5.5,0-10,4.5-10,10v1.3
			c-0.8-0.2-1.6-0.3-2.4-0.3c-1,0-2,0.2-3,0.5L69,269c-5.3,1.7-8.2,7.3-6.5,12.6l2.4,7.6l-3.1,3.2c-1.9,1.9-2.9,4.5-2.8,7.1
			c0,2.7,1.1,5.2,3,7l1.4,1.4l-0.9,2.8c-0.8,2.5-0.6,5.3,0.7,7.6c1.2,2.4,3.3,4.1,5.9,4.9l2.8,0.9c1,0.3,2,0.5,3,0.5
			c3.7,0,7.1-2,8.8-5.3c3.2,1.6,6.8,2.5,10.5,2.5c3.7,0,7.3-0.9,10.5-2.5c1.7,3.3,5.2,5.3,8.8,5.3c1,0,2-0.2,3-0.5l2.8-0.9
			c2.5-0.8,4.6-2.6,5.9-4.9c1.2-2.4,1.5-5.1,0.7-7.6l-0.9-2.8l1.4-1.4c1.9-1.9,3-4.4,3-7c0-2.7-1-5.2-2.8-7.1l-3.1-3.2l2.4-7.6
			c1.7-5.3-1.2-10.9-6.5-12.6l-2.8-0.9c-1-0.3-2-0.5-3-0.5c-0.8,0-1.6,0.1-2.4,0.3v-1.3C111.3,261,106.8,256.6,101.3,256.6
			L101.3,256.6z"/>
	</g>
	<g>
		<path class="st0" d="M320.3,319.6c-2.1,0-4.1-1.4-4.8-3.5l-1.5-4.7l0,0c-3.5,3.4-8.1,5.3-13.1,5.3s-9.6-1.9-13.1-5.3l0,0l-1.5,4.7
			c-0.7,2.1-2.6,3.5-4.8,3.5c-0.5,0-1-0.1-1.5-0.2l-2.8-0.9c-1.3-0.4-2.3-1.3-2.9-2.5c-0.6-1.2-0.7-2.5-0.3-3.8l1.9-6.1
			c-0.6-0.2-1.2-0.6-1.6-1.1l-2.1-2.1c-2-1.9-2-5.1-0.1-7.1l5.6-5.7c-0.5-0.5-0.8-1.1-1-1.8l-2.6-8.3c-0.8-2.6,0.6-5.4,3.3-6.3
			l2.8-0.9c0.5-0.2,1-0.2,1.5-0.2c0.8,0,1.6,0.2,2.3,0.6c1.2,0.6,2.1,1.7,2.5,2.9l0.4,1.2c0.5-2,1.5-3.9,2.8-5.5
			c-0.3-0.7-0.5-1.4-0.5-2.3v-3c0-2.8,2.2-5,5-5c2.8,0,5.3,1.2,7,3c1.8-1.9,4.3-3,7-3c2.8,0,5,2.2,5,5v3c0,0.8-0.2,1.6-0.5,2.3
			c1.3,1.6,2.2,3.5,2.8,5.5l0.4-1.2c0.4-1.3,1.3-2.3,2.5-2.9c0.7-0.4,1.5-0.6,2.3-0.6c0.5,0,1,0.1,1.5,0.2l2.8,0.9
			c2.6,0.8,4.1,3.6,3.3,6.3l-2.6,8.3c-0.2,0.7-0.6,1.3-1,1.8l5.6,5.7c0.9,0.9,1.4,2.2,1.4,3.6c0,1.3-0.6,2.6-1.5,3.5l-2.1,2.1
			c-0.5,0.5-1,0.8-1.6,1.1l1.9,6.1c0.4,1.3,0.3,2.6-0.3,3.8c-0.6,1.2-1.7,2.1-2.9,2.5l-2.8,0.9C321.3,319.5,320.8,319.6,320.3,319.6
			z"/>
		<path class="st0" d="M308,266.6v3c-1,0-1.7,0.8-1.7,1.7v1.6c2.7,1.7,4.4,4.7,4.4,8.1v3.3h4h0l0,0v1.7l3.4-1.3l2.2-7l2.8,0.9
			l-2.6,8.3l-5.8,2.3v4.3h5.7l5.8,6l-2.1,2.1l-5-5.1h-4.5v1.6c0,1.7-0.3,3.3-0.9,4.8l6.7,2.6l2.6,8.3l-2.8,0.9l-2.2-7l-5.6-2.2
			c-2.4,3.8-6.7,6.3-11.6,6.3c-4.9,0-9.1-2.5-11.6-6.3l-5.6,2.2l-2.2,7l-2.8-0.9l2.6-8.3l6.7-2.6c-0.6-1.5-0.9-3.1-0.9-4.8v-1.6
			h-4.5l-5,5.1l-2.1-2.1l5.8-6h5.7v-4.3l-5.8-2.3l-2.6-8.3l2.8-0.9l2.2,7l3.4,1.3v-1.7h0h4V281c0-3.4,1.8-6.4,4.4-8.1v-1.6
			c0-1-0.8-1.7-1.7-1.7v-3c2.6,0,4.7,2.1,4.7,4.7v0.3c0.7-0.2,1.5-0.3,2.3-0.3c0.8,0,1.6,0.1,2.3,0.3v-0.3
			C303.3,268.7,305.4,266.6,308,266.6 M308,256.6c-2.5,0-4.9,0.6-7,1.8c-2.1-1.1-4.5-1.8-7-1.8c-5.5,0-10,4.5-10,10v1.3
			c-0.8-0.2-1.6-0.3-2.4-0.3c-1,0-2,0.2-3,0.5l-2.8,0.9c-5.3,1.7-8.2,7.3-6.5,12.6l2.4,7.6l-3.1,3.2c-1.9,1.9-2.9,4.5-2.8,7.1
			c0,2.7,1.1,5.2,3,7l1.4,1.4l-0.9,2.8c-0.8,2.5-0.6,5.3,0.7,7.6c1.2,2.4,3.3,4.1,5.9,4.9l2.8,0.9c1,0.3,2,0.5,3,0.5
			c1.6,0,3.2-0.4,4.6-1.1c1.8-0.9,3.3-2.4,4.2-4.2c3.2,1.6,6.8,2.5,10.5,2.5c3.7,0,7.3-0.9,10.5-2.5c1.7,3.3,5.2,5.3,8.8,5.3
			c1,0,2-0.2,3-0.5l2.8-0.9c5.3-1.7,8.2-7.3,6.5-12.6l-0.9-2.8l1.4-1.4c1.9-1.9,3-4.4,3-7c0-2.7-1-5.2-2.8-7.1l-3.1-3.2l2.4-7.6
			c1.7-5.3-1.2-10.9-6.5-12.6l-2.8-0.9c-1-0.3-2-0.5-3-0.5c-0.8,0-1.6,0.1-2.4,0.3v-1.3C318,261,313.5,256.6,308,256.6L308,256.6z"
			/>
	</g>
	<g>
		<path class="st0" d="M359,380c-2.1,0-4.1-1.4-4.8-3.5l-1.5-4.7l0,0c-3.5,3.4-8.1,5.3-13.1,5.3c-5,0-9.6-1.9-13.1-5.3l0,0l-1.5,4.7
			c-0.7,2.1-2.6,3.5-4.8,3.5c-0.5,0-1-0.1-1.5-0.2l-2.8-0.9c-1.3-0.4-2.3-1.3-2.9-2.5c-0.6-1.2-0.7-2.5-0.3-3.8l1.9-6.1
			c-0.6-0.2-1.2-0.6-1.6-1.1l-2.1-2.1c-2-1.9-2-5.1-0.1-7.1l5.6-5.7c-0.5-0.5-0.8-1.1-1-1.8l-2.6-8.3c-0.4-1.3-0.3-2.6,0.3-3.8
			c0.6-1.2,1.7-2.1,2.9-2.5l2.8-0.9c0.5-0.2,1-0.2,1.5-0.2c2.1,0,4.1,1.4,4.8,3.5l0.4,1.2c0.5-2,1.5-3.9,2.8-5.5
			c-0.3-0.7-0.5-1.4-0.5-2.3v-3c0-2.8,2.2-5,5-5c2.8,0,5.3,1.2,7,3c1.8-1.9,4.3-3,7-3c2.8,0,5,2.2,5,5v3c0,0.8-0.2,1.6-0.5,2.3
			c1.3,1.6,2.2,3.5,2.8,5.5l0.4-1.2c0.7-2.1,2.6-3.5,4.8-3.5c0.5,0,1,0.1,1.5,0.2l2.8,0.9c1.3,0.4,2.3,1.3,2.9,2.5
			c0.6,1.2,0.7,2.5,0.3,3.8l-2.6,8.3c-0.2,0.7-0.6,1.3-1,1.8l5.6,5.7c0.9,0.9,1.4,2.2,1.4,3.6c0,1.3-0.6,2.6-1.5,3.5l-2.1,2.1
			c-0.5,0.5-1,0.8-1.6,1.1l1.9,6.1c0.4,1.3,0.3,2.6-0.3,3.8c-0.6,1.2-1.7,2.1-2.9,2.5l-2.8,0.9C360,379.9,359.5,380,359,380z"/>
		<path class="st0" d="M346.7,327v3c-1,0-1.7,0.8-1.7,1.7v1.6c2.7,1.7,4.4,4.7,4.4,8.1v3.3h4h0v1.7l3.4-1.3l2.2-7l2.8,0.9l-2.6,8.3
			l-5.8,2.3v4.3h5.7l5.8,6l-2.1,2.1l-5-5.1h-4.5v1.6c0,1.7-0.3,3.3-0.9,4.8l6.7,2.6l2.6,8.3L359,375l-2.2-7l-5.6-2.2
			c-2.4,3.8-6.7,6.3-11.6,6.3c-4.9,0-9.1-2.5-11.6-6.3l-5.6,2.2l-2.2,7l-2.8-0.9l2.6-8.3l6.7-2.6c-0.6-1.5-0.9-3.1-0.9-4.8v-1.6
			h-4.5l-5,5.1l-2.1-2.1l5.8-6h5.7v-4.3l-5.8-2.3l-2.6-8.3l2.8-0.9l2.2,7l3.4,1.3v-1.7l0,0h0h4v-3.3c0-3.4,1.8-6.4,4.4-8.1v-1.6
			c0-1-0.8-1.7-1.7-1.7v-3c2.6,0,4.7,2.1,4.7,4.7v0.3c0.7-0.2,1.5-0.3,2.3-0.3c0.8,0,1.6,0.1,2.3,0.3v-0.3
			C342,329.1,344.1,327,346.7,327 M346.7,317c-2.5,0-4.9,0.6-7,1.8c-2.1-1.1-4.5-1.8-7-1.8c-5.5,0-10,4.5-10,10v1.3
			c-0.8-0.2-1.6-0.3-2.4-0.3c-1,0-2,0.2-3,0.5l-2.8,0.9c-5.3,1.7-8.2,7.3-6.5,12.6l2.4,7.6l-3.1,3.2c-1.9,1.9-2.9,4.5-2.8,7.1
			c0,2.7,1.1,5.2,3,7l1.4,1.4l-0.9,2.8c-1.7,5.3,1.2,10.9,6.5,12.6l2.8,0.9c1,0.3,2,0.5,3,0.5c3.7,0,7.1-2,8.8-5.3
			c3.2,1.6,6.8,2.5,10.5,2.5c3.7,0,7.3-0.9,10.5-2.5c0.9,1.8,2.4,3.3,4.2,4.2c1.4,0.7,3,1.1,4.6,1.1c1,0,2-0.2,3-0.5l2.8-0.9
			c2.5-0.8,4.6-2.6,5.9-4.9c1.2-2.4,1.5-5.1,0.7-7.6l-0.9-2.8l1.4-1.4c1.9-1.9,3-4.4,3-7c0-2.7-1-5.2-2.8-7.1l-3.1-3.2l2.4-7.6
			c1.7-5.3-1.2-10.9-6.5-12.6l-2.8-0.9c-1-0.3-2-0.5-3-0.5c-0.8,0-1.6,0.1-2.4,0.3V327C356.7,321.4,352.2,317,346.7,317L346.7,317z"
			/>
	</g>
	<g>
		<path class="st0" d="M290.1,380c-2.1,0-4.1-1.4-4.8-3.5l-1.5-4.7l0,0c-3.5,3.4-8.1,5.3-13.1,5.3c-5,0-9.6-1.9-13.1-5.3l0,0
			l-1.5,4.7c-0.4,1.3-1.3,2.3-2.5,2.9c-0.7,0.4-1.5,0.6-2.3,0.6c-0.5,0-1-0.1-1.5-0.2l-2.8-0.9c-1.3-0.4-2.3-1.3-2.9-2.5
			c-0.6-1.2-0.7-2.5-0.3-3.8l1.9-6.1c-0.6-0.2-1.2-0.6-1.6-1.1l-2.1-2.1c-2-1.9-2-5.1-0.1-7.1l5.6-5.7c-0.5-0.5-0.8-1.1-1-1.8
			l-2.6-8.3c-0.4-1.3-0.3-2.6,0.3-3.8c0.6-1.2,1.7-2.1,2.9-2.5l2.8-0.9c0.5-0.2,1-0.2,1.5-0.2c0.8,0,1.6,0.2,2.3,0.6
			c1.2,0.6,2.1,1.7,2.5,2.9l0.4,1.2c0.5-2,1.5-3.9,2.8-5.5c-0.3-0.7-0.5-1.4-0.5-2.3v-3c0-2.8,2.2-5,5-5c2.8,0,5.3,1.2,7,3
			c1.8-1.9,4.3-3,7-3c2.8,0,5,2.2,5,5v3c0,0.8-0.2,1.6-0.5,2.3c1.3,1.6,2.2,3.5,2.8,5.5l0.4-1.2c0.7-2.1,2.6-3.5,4.8-3.5
			c0.5,0,1,0.1,1.5,0.2l2.8,0.9c1.3,0.4,2.3,1.3,2.9,2.5c0.6,1.2,0.7,2.5,0.3,3.8l-2.6,8.3c-0.2,0.7-0.6,1.3-1,1.8l5.6,5.7
			c0.9,0.9,1.4,2.2,1.4,3.6c0,1.3-0.6,2.6-1.5,3.5l-2.1,2.1c-0.5,0.5-1,0.8-1.6,1.1l1.9,6.1c0.4,1.3,0.3,2.6-0.3,3.8
			c-0.6,1.2-1.7,2.1-2.9,2.5l-2.8,0.9C291.1,379.9,290.6,380,290.1,380z"/>
		<path class="st0" d="M277.8,327v3c-1,0-1.7,0.8-1.7,1.7v1.6c2.7,1.7,4.4,4.7,4.4,8.1v3.3h4h0v1.7l3.4-1.3l2.2-7l2.8,0.9l-2.6,8.3
			l-5.8,2.3v4.3h5.7l5.8,6l-2.1,2.1l-5-5.1h-4.5v1.6c0,1.7-0.3,3.3-0.9,4.8l6.7,2.6l2.6,8.3l-2.8,0.9l-2.2-7l-5.6-2.2
			c-2.4,3.8-6.7,6.3-11.6,6.3c-4.9,0-9.1-2.5-11.6-6.3l-5.6,2.2l-2.2,7l-2.8-0.9l2.6-8.3l6.7-2.6c-0.6-1.5-0.9-3.1-0.9-4.8v-1.6
			h-4.5l-5,5.1l-2.1-2.1l5.8-6h5.7v-4.3l-5.8-2.3l-2.6-8.3l2.8-0.9l2.2,7l3.4,1.3v-1.7l0,0h0h4v-3.3c0-3.4,1.8-6.4,4.4-8.1v-1.6
			c0-1-0.8-1.7-1.7-1.7v-3c2.6,0,4.7,2.1,4.7,4.7v0.3c0.7-0.2,1.5-0.3,2.3-0.3c0.8,0,1.6,0.1,2.3,0.3v-0.3
			C273.1,329.1,275.2,327,277.8,327 M277.8,317c-2.5,0-4.9,0.6-7,1.8c-2.1-1.1-4.5-1.8-7-1.8c-5.5,0-10,4.5-10,10v1.3
			c-0.8-0.2-1.6-0.3-2.4-0.3c-1,0-2,0.2-3,0.5l-2.8,0.9c-5.3,1.7-8.2,7.3-6.5,12.6l2.4,7.6l-3.1,3.2c-1.9,1.9-2.9,4.5-2.8,7.1
			c0,2.7,1.1,5.2,3,7l1.4,1.4l-0.9,2.8c-1.7,5.3,1.2,10.9,6.5,12.6l2.8,0.9c1,0.3,2,0.5,3,0.5c1.6,0,3.2-0.4,4.6-1.1
			c1.8-0.9,3.3-2.4,4.2-4.2c3.2,1.6,6.8,2.5,10.5,2.5c3.7,0,7.3-0.9,10.5-2.5c1.7,3.3,5.2,5.3,8.8,5.3c1,0,2-0.2,3-0.5l2.8-0.9
			c2.5-0.8,4.6-2.6,5.9-4.9c1.2-2.4,1.5-5.1,0.7-7.6l-0.9-2.8l1.4-1.4c1.9-1.9,3-4.4,3-7c0-2.7-1-5.2-2.8-7.1l-3.1-3.2l2.4-7.6
			c1.7-5.3-1.2-10.9-6.5-12.6l-2.8-0.9c-1-0.3-2-0.5-3-0.5c-0.8,0-1.6,0.1-2.4,0.3V327C287.8,321.4,283.3,317,277.8,317L277.8,317z"
			/>
	</g>
	<g>
		<path class="st0" d="M182.4,380c-0.5,0-1-0.1-1.5-0.2l-2.8-0.9c-1.3-0.4-2.3-1.3-2.9-2.5c-0.6-1.2-0.7-2.5-0.3-3.8l1.9-6.1
			c-0.6-0.2-1.2-0.6-1.6-1.1l-2.1-2.1c-0.9-0.9-1.5-2.2-1.5-3.5c0-1.3,0.5-2.6,1.4-3.6l5.6-5.7c-0.5-0.5-0.8-1.1-1-1.8l-2.6-8.3
			c-0.4-1.3-0.3-2.6,0.3-3.8c0.6-1.2,1.7-2.1,2.9-2.5l2.8-0.9c0.5-0.2,1-0.2,1.5-0.2c2.1,0,4.1,1.4,4.8,3.5l0.4,1.2
			c0.5-2,1.5-3.9,2.8-5.5c-0.3-0.7-0.5-1.4-0.5-2.3v-3c0-2.8,2.2-5,5-5c2.8,0,5.3,1.2,7,3c1.8-1.9,4.3-3,7-3c2.8,0,5,2.2,5,5v3
			c0,0.8-0.2,1.6-0.5,2.3c1.3,1.6,2.2,3.5,2.8,5.5l0.4-1.2c0.4-1.3,1.3-2.3,2.5-2.9c0.7-0.4,1.5-0.6,2.3-0.6c0.5,0,1,0.1,1.5,0.2
			l2.8,0.9c2.6,0.8,4.1,3.6,3.3,6.3l-2.6,8.3c-0.2,0.7-0.6,1.3-1,1.8l5.6,5.7c0.9,0.9,1.4,2.2,1.4,3.6c0,1.3-0.6,2.6-1.5,3.5
			l-2.1,2.1c-0.5,0.5-1,0.8-1.6,1.1l1.9,6.1c0.8,2.6-0.6,5.4-3.3,6.3l-2.8,0.9c-0.5,0.2-1,0.2-1.5,0.2c-2.1,0-4.1-1.4-4.8-3.5
			l-1.5-4.7l0,0c-3.5,3.4-8.1,5.3-13.1,5.3s-9.6-1.9-13.1-5.3l0,0l-1.5,4.7C186.5,378.7,184.6,380,182.4,380z"/>
		<path class="st0" d="M208.9,327v3c-1,0-1.7,0.8-1.7,1.7v1.6c2.7,1.7,4.4,4.7,4.4,8.1v3.3h4h0v1.7l3.4-1.3l2.2-7l2.8,0.9l-2.6,8.3
			l-5.8,2.3v4.3h5.7l5.8,6l-2.1,2.1l-5-5.1h-4.5v1.6c0,1.7-0.3,3.3-0.9,4.8l6.7,2.6l2.6,8.3l-2.8,0.9l-2.2-7l-5.6-2.2
			c-2.4,3.8-6.7,6.3-11.6,6.3c-4.9,0-9.1-2.5-11.6-6.3l-5.6,2.2l-2.2,7l-2.8-0.9l2.6-8.3l6.7-2.6c-0.6-1.5-0.9-3.1-0.9-4.8v-1.6
			h-4.5l-5,5.1l-2.1-2.1l5.8-6h5.7v-4.3l-5.8-2.3l-2.6-8.3l2.8-0.9l2.2,7l3.4,1.3v-1.7l0,0h0h4v-3.3c0-3.4,1.8-6.4,4.4-8.1v-1.6
			c0-1-0.8-1.7-1.7-1.7v-3c2.6,0,4.7,2.1,4.7,4.7v0.3c0.7-0.2,1.5-0.3,2.3-0.3c0.8,0,1.6,0.1,2.3,0.3v-0.3
			C204.2,329.1,206.3,327,208.9,327 M208.9,317c-2.5,0-4.9,0.6-7,1.8c-2.1-1.1-4.5-1.8-7-1.8c-5.5,0-10,4.5-10,10v1.3
			c-0.8-0.2-1.6-0.3-2.4-0.3c-1,0-2,0.2-3,0.5l-2.8,0.9c-5.3,1.7-8.2,7.3-6.5,12.6l2.4,7.6l-3.1,3.2c-1.9,1.9-2.9,4.5-2.8,7.1
			c0,2.7,1.1,5.2,3,7l1.4,1.4l-0.9,2.8c-1.7,5.3,1.2,10.9,6.5,12.6l2.8,0.9c1,0.3,2,0.5,3,0.5c1.6,0,3.2-0.4,4.6-1.1
			c1.8-0.9,3.3-2.4,4.2-4.2c3.2,1.6,6.8,2.5,10.5,2.5c3.7,0,7.3-0.9,10.5-2.5c1.7,3.3,5.2,5.3,8.8,5.3c1,0,2-0.2,3-0.5l2.8-0.9
			c2.5-0.8,4.6-2.6,5.9-4.9c1.2-2.4,1.5-5.1,0.7-7.6l-0.9-2.8l1.4-1.4c1.9-1.9,3-4.4,3-7c0-2.7-1-5.2-2.8-7.1l-3.1-3.2l2.4-7.6
			c1.7-5.3-1.2-10.9-6.5-12.6l-2.8-0.9c-1-0.3-2-0.5-3-0.5c-0.8,0-1.6,0.1-2.4,0.3V327C218.9,321.4,214.4,317,208.9,317L208.9,317z"
			/>
	</g>
	<g>
		<path class="st0" d="M83.4,380c-2.1,0-4.1-1.4-4.8-3.5l-1.5-4.7l0,0c-3.5,3.4-8.1,5.3-13.1,5.3c-5,0-9.6-1.9-13.1-5.3l0,0
			l-1.5,4.7c-0.7,2.1-2.6,3.5-4.8,3.5c-0.5,0-1-0.1-1.5-0.2l-2.8-0.9c-1.3-0.4-2.3-1.3-2.9-2.5c-0.6-1.2-0.7-2.5-0.3-3.8l1.9-6.1
			c-0.6-0.2-1.2-0.6-1.6-1.1l-2.1-2.1c-0.9-0.9-1.5-2.2-1.5-3.5c0-1.3,0.5-2.6,1.4-3.6l5.6-5.7c-0.5-0.5-0.8-1.1-1-1.8l-2.6-8.3
			c-0.4-1.3-0.3-2.6,0.3-3.8c0.6-1.2,1.7-2.1,2.9-2.5l2.8-0.9c0.5-0.2,1-0.2,1.5-0.2c2.1,0,4.1,1.4,4.8,3.5l0.4,1.2
			c0.5-2,1.5-3.9,2.8-5.5c-0.3-0.7-0.5-1.4-0.5-2.3v-3c0-2.8,2.2-5,5-5c2.8,0,5.3,1.2,7,3c1.8-1.9,4.3-3,7-3c2.8,0,5,2.2,5,5v3
			c0,0.8-0.2,1.6-0.5,2.3c1.3,1.6,2.2,3.5,2.8,5.5l0.4-1.2c0.7-2.1,2.6-3.5,4.8-3.5c0.5,0,1,0.1,1.5,0.2l2.8,0.9
			c1.3,0.4,2.3,1.3,2.9,2.5c0.6,1.2,0.7,2.5,0.3,3.8l-2.6,8.3c-0.2,0.7-0.6,1.3-1,1.8l5.6,5.7c0.9,0.9,1.4,2.2,1.4,3.6
			c0,1.3-0.6,2.6-1.5,3.5l-2.1,2.1c-0.5,0.5-1,0.8-1.6,1.1l1.9,6.1c0.4,1.3,0.3,2.6-0.3,3.8c-0.6,1.2-1.7,2.1-2.9,2.5l-2.8,0.9
			C84.4,379.9,83.9,380,83.4,380z"/>
		<path class="st0" d="M71.1,327v3c-1,0-1.7,0.8-1.7,1.7v1.6c2.7,1.7,4.4,4.7,4.4,8.1v3.3h4h0v1.7l3.4-1.3l2.2-7l2.8,0.9l-2.6,8.3
			l-5.8,2.3v4.3h5.7l5.8,6l-2.1,2.1l-5-5.1h-4.5v1.6c0,1.7-0.3,3.3-0.9,4.8l6.7,2.6l2.6,8.3l-2.8,0.9l-2.2-7l-5.6-2.2
			c-2.4,3.8-6.7,6.3-11.6,6.3c-4.9,0-9.1-2.5-11.6-6.3l-5.6,2.2l-2.2,7l-2.8-0.9l2.6-8.3l6.7-2.6c-0.6-1.5-0.9-3.1-0.9-4.8v-1.6
			h-4.5l-5,5.1l-2.1-2.1l5.8-6h5.7v-4.3l-5.8-2.3l-2.6-8.3l2.8-0.9l2.2,7l3.4,1.3v-1.7l0,0h0h4v-3.3c0-3.4,1.8-6.4,4.4-8.1v-1.6
			c0-1-0.8-1.7-1.7-1.7v-3c2.6,0,4.7,2.1,4.7,4.7v0.3c0.7-0.2,1.5-0.3,2.3-0.3c0.8,0,1.6,0.1,2.3,0.3v-0.3
			C66.4,329.1,68.5,327,71.1,327 M71.1,317c-2.5,0-4.9,0.6-7,1.8c-2.1-1.1-4.5-1.8-7-1.8c-5.5,0-10,4.5-10,10v1.3
			c-0.8-0.2-1.6-0.3-2.4-0.3c-1,0-2,0.2-3,0.5l-2.8,0.9c-5.3,1.7-8.2,7.3-6.5,12.6l2.4,7.6l-3.1,3.2c-1.9,1.9-2.9,4.5-2.8,7.1
			c0,2.7,1.1,5.2,3,7l1.4,1.4l-0.9,2.8c-1.7,5.3,1.2,10.9,6.5,12.6l2.8,0.9c1,0.3,2,0.5,3,0.5c3.7,0,7.1-2,8.8-5.3
			c3.2,1.6,6.8,2.5,10.5,2.5c3.7,0,7.3-0.9,10.5-2.5c1.7,3.3,5.2,5.3,8.8,5.3c1,0,2-0.2,3-0.5l2.8-0.9c2.5-0.8,4.6-2.6,5.9-4.9
			c1.2-2.4,1.5-5.1,0.7-7.6l-0.9-2.8l1.4-1.4c1.9-1.9,3-4.4,3-7c0-2.7-1-5.2-2.8-7.1l-3.1-3.2l2.4-7.6c1.7-5.3-1.2-10.9-6.5-12.6
			l-2.8-0.9c-1-0.3-2-0.5-3-0.5c-0.8,0-1.6,0.1-2.4,0.3V327C81.1,321.4,76.6,317,71.1,317L71.1,317z"/>
	</g>
	<g>
		<path class="st0" d="M152.3,380c-2.1,0-4.1-1.4-4.8-3.5l-1.5-4.7l0,0c-3.5,3.4-8.1,5.3-13.1,5.3c-5,0-9.6-1.9-13.1-5.3l0,0
			l-1.5,4.7c-0.7,2.1-2.6,3.5-4.8,3.5c-0.5,0-1-0.1-1.5-0.2l-2.8-0.9c-1.3-0.4-2.3-1.3-2.9-2.5c-0.6-1.2-0.7-2.5-0.3-3.8l1.9-6.1
			c-0.6-0.2-1.2-0.6-1.6-1.1l-2.1-2.1c-0.9-0.9-1.5-2.2-1.5-3.5c0-1.3,0.5-2.6,1.4-3.6l5.6-5.7c-0.5-0.5-0.8-1.1-1-1.8l-2.6-8.3
			c-0.4-1.3-0.3-2.6,0.3-3.8c0.6-1.2,1.7-2.1,2.9-2.5l2.8-0.9c0.5-0.2,1-0.2,1.5-0.2c2.1,0,4.1,1.4,4.8,3.5l0.4,1.2
			c0.5-2,1.5-3.9,2.8-5.5c-0.3-0.7-0.5-1.4-0.5-2.3v-3c0-2.8,2.2-5,5-5c2.8,0,5.3,1.2,7,3c1.8-1.9,4.3-3,7-3c2.8,0,5,2.2,5,5v3
			c0,0.8-0.2,1.6-0.5,2.3c1.3,1.6,2.2,3.5,2.8,5.5l0.4-1.2c0.7-2.1,2.6-3.5,4.8-3.5c0.5,0,1,0.1,1.5,0.2l2.8,0.9
			c1.3,0.4,2.3,1.3,2.9,2.5c0.6,1.2,0.7,2.5,0.3,3.8l-2.6,8.3c-0.2,0.7-0.6,1.3-1,1.8l5.6,5.7c0.9,0.9,1.4,2.2,1.4,3.6
			c0,1.3-0.6,2.6-1.5,3.5l-2.1,2.1c-0.5,0.5-1,0.8-1.6,1.1l1.9,6.1c0.4,1.3,0.3,2.6-0.3,3.8c-0.6,1.2-1.7,2.1-2.9,2.5l-2.8,0.9
			C153.3,379.9,152.8,380,152.3,380z"/>
		<path class="st0" d="M140,327v3c-1,0-1.7,0.8-1.7,1.7v1.6c2.7,1.7,4.4,4.7,4.4,8.1v3.3h4h0v1.7l3.4-1.3l2.2-7l2.8,0.9l-2.6,8.3
			l-5.8,2.3v4.3h5.7l5.8,6l-2.1,2.1l-5-5.1h-4.5v1.6c0,1.7-0.3,3.3-0.9,4.8l6.7,2.6l2.6,8.3l-2.8,0.9l-2.2-7l-5.6-2.2
			c-2.4,3.8-6.7,6.3-11.6,6.3c-4.9,0-9.1-2.5-11.6-6.3l-5.6,2.2l-2.2,7l-2.8-0.9l2.6-8.3l6.7-2.6c-0.6-1.5-0.9-3.1-0.9-4.8v-1.6
			h-4.5l-5,5.1l-2.1-2.1l5.8-6h5.7v-4.3l-5.8-2.3l-2.6-8.3l2.8-0.9l2.2,7l3.4,1.3v-1.7l0,0h0h4v-3.3c0-3.4,1.8-6.4,4.4-8.1v-1.6
			c0-1-0.8-1.7-1.7-1.7v-3c2.6,0,4.7,2.1,4.7,4.7v0.3c0.7-0.2,1.5-0.3,2.3-0.3c0.8,0,1.6,0.1,2.3,0.3v-0.3
			C135.3,329.1,137.4,327,140,327 M140,317c-2.5,0-4.9,0.6-7,1.8c-2.1-1.1-4.5-1.8-7-1.8c-5.5,0-10,4.5-10,10v1.3
			c-0.8-0.2-1.6-0.3-2.4-0.3c-1,0-2,0.2-3,0.5l-2.8,0.9c-5.3,1.7-8.2,7.3-6.5,12.6l2.4,7.6l-3.1,3.2c-1.9,1.9-2.9,4.5-2.8,7.1
			c0,2.7,1.1,5.2,3,7l1.4,1.4l-0.9,2.8c-0.8,2.5-0.6,5.3,0.7,7.6c1.2,2.4,3.3,4.1,5.9,4.9l2.8,0.9c1,0.3,2,0.5,3,0.5
			c3.7,0,7.1-2,8.8-5.3c3.2,1.6,6.8,2.5,10.5,2.5c3.7,0,7.3-0.9,10.5-2.5c1.7,3.3,5.2,5.3,8.8,5.3c1,0,2-0.2,3-0.5l2.8-0.9
			c2.5-0.8,4.6-2.6,5.9-4.9c1.2-2.4,1.5-5.1,0.7-7.6l-0.9-2.8l1.4-1.4c1.9-1.9,3-4.4,3-7s-1-5.2-2.8-7.1l-3.1-3.2l2.4-7.6
			c1.7-5.3-1.2-10.9-6.5-12.6l-2.8-0.9c-1-0.3-2-0.5-3-0.5c-0.8,0-1.6,0.1-2.4,0.3V327C150,321.4,145.5,317,140,317L140,317z"/>
	</g>
</g>
<g>
	<g>
		<polygon class="st1" points="143.7,70.8 140.9,69.9 143.6,61.6 151.2,58.6 152.3,61.3 146,63.8 		"/>
		<polygon class="st1" points="149.7,45.4 143.6,43 140.9,34.7 143.7,33.8 146,40.8 150.8,42.7 		"/>
		<polygon class="st1" points="140,57.6 137.8,55.6 143.7,49.6 150.2,49.6 150.2,52.5 144.9,52.5 		"/>
	</g>
	<g>
		<polygon class="st2" points="182.5,70.8 180.3,63.8 174,61.3 175.1,58.6 182.7,61.6 185.4,69.9 		"/>
		<polygon class="st2" points="176.6,45.4 175.5,42.7 180.3,40.8 182.5,33.8 185.4,34.7 182.7,43 		"/>
		<polygon class="st2" points="186.3,57.6 181.4,52.5 176.1,52.5 176.1,49.6 182.6,49.6 188.4,55.6 		"/>
	</g>
	<path class="st1" d="M160.8,29.6h-3v-2.2c0-1-0.8-1.7-1.7-1.7v-3c2.6,0,4.7,2.1,4.7,4.7V29.6L160.8,29.6z"/>
	<path class="st2" d="M168.4,29.6h-3v-2.2c0-2.6,2.1-4.7,4.7-4.7v3c-1,0-1.7,0.8-1.7,1.7V29.6L168.4,29.6z"/>
	<path class="st3" d="M163.1,67.9L163.1,67.9c-7.6,0-13.8-6.2-13.8-13.8V40.4h27.5v13.8C176.9,61.8,170.7,67.9,163.1,67.9z"/>
	<path class="st4" d="M163.1,27.5L163.1,27.5c-5.4,0-9.7,4.3-9.7,9.7v5.4h19.4v-5.4C172.9,31.8,168.5,27.5,163.1,27.5z"/>
	<path class="st1" d="M163.1,27.5L163.1,27.5c0,3.6,0,15.1,0,15.1h9.7v-5.4C172.9,31.8,168.5,27.5,163.1,27.5z"/>
	<polygon class="st5" points="176.9,40.4 149.4,40.4 163.1,51.6 	"/>
</g>
<g>
	<g>
		<polygon class="st1" points="212.6,70.8 209.8,69.9 212.5,61.6 220.1,58.6 221.2,61.3 214.9,63.8 		"/>
		<polygon class="st1" points="218.6,45.4 212.5,43 209.8,34.7 212.6,33.8 214.9,40.8 219.7,42.7 		"/>
		<polygon class="st1" points="208.9,57.6 206.7,55.6 212.6,49.6 219.1,49.6 219.1,52.5 213.8,52.5 		"/>
	</g>
	<g>
		<polygon class="st2" points="251.4,70.8 249.2,63.8 242.9,61.3 243.9,58.6 251.6,61.6 254.3,69.9 		"/>
		<polygon class="st2" points="245.5,45.4 244.4,42.7 249.2,40.8 251.4,33.8 254.3,34.7 251.6,43 		"/>
		<polygon class="st2" points="255.2,57.6 250.2,52.5 245,52.5 245,49.6 251.5,49.6 257.3,55.6 		"/>
	</g>
	<path class="st1" d="M229.7,29.6h-3v-2.2c0-1-0.8-1.7-1.7-1.7v-3c2.6,0,4.7,2.1,4.7,4.7L229.7,29.6L229.7,29.6z"/>
	<path class="st2" d="M237.3,29.6h-3v-2.2c0-2.6,2.1-4.7,4.7-4.7v3c-1,0-1.7,0.8-1.7,1.7L237.3,29.6L237.3,29.6z"/>
	<path class="st6" d="M232,67.9L232,67.9c-7.6,0-13.8-6.2-13.8-13.8V40.4h27.5v13.8C245.8,61.8,239.6,67.9,232,67.9z"/>
	<path class="st4" d="M232,27.5L232,27.5c-5.4,0-9.7,4.3-9.7,9.7v5.4h19.4v-5.4C241.7,31.8,237.4,27.5,232,27.5z"/>
	<path class="st1" d="M232,27.5L232,27.5c0,3.6,0,15.1,0,15.1h9.7v-5.4C241.7,31.8,237.4,27.5,232,27.5z"/>
	<polygon class="st7" points="245.8,40.4 218.3,40.4 232,51.6 	"/>
</g>
<g>
	<g>
		<polygon class="st1" points="74.9,70.8 72,69.9 74.7,61.6 82.3,58.6 83.4,61.3 77.1,63.8 		"/>
		<polygon class="st1" points="80.8,45.4 74.7,43 72,34.7 74.9,33.8 77.1,40.8 81.9,42.7 		"/>
		<polygon class="st1" points="71.1,57.6 68.9,55.6 74.8,49.6 81.3,49.6 81.3,52.5 76,52.5 		"/>
	</g>
	<g>
		<polygon class="st2" points="113.6,70.8 111.4,63.8 105.1,61.3 106.2,58.6 113.8,61.6 116.5,69.9 		"/>
		<polygon class="st2" points="107.7,45.4 106.6,42.7 111.4,40.8 113.6,33.8 116.5,34.7 113.8,43 		"/>
		<polygon class="st2" points="117.4,57.6 112.5,52.5 107.2,52.5 107.2,49.6 113.7,49.6 119.5,55.6 		"/>
	</g>
	<path class="st1" d="M91.9,29.6h-3v-2.2c0-1-0.8-1.7-1.7-1.7v-3c2.6,0,4.7,2.1,4.7,4.7L91.9,29.6L91.9,29.6z"/>
	<path class="st2" d="M99.5,29.6h-3v-2.2c0-2.6,2.1-4.7,4.7-4.7v3c-1,0-1.7,0.8-1.7,1.7L99.5,29.6L99.5,29.6z"/>
	<path class="st8" d="M94.2,67.9L94.2,67.9c-7.6,0-13.8-6.2-13.8-13.8V40.4H108v13.8C108,61.8,101.8,67.9,94.2,67.9z"/>
	<path class="st4" d="M94.2,27.5L94.2,27.5c-5.4,0-9.7,4.3-9.7,9.7v5.4H104v-5.4C104,31.8,99.6,27.5,94.2,27.5z"/>
	<path class="st1" d="M94.2,27.5L94.2,27.5c0,3.6,0,15.1,0,15.1h9.7v-5.4C104,31.8,99.6,27.5,94.2,27.5z"/>
	<polygon class="st9" points="108,40.4 80.5,40.4 94.2,51.6 	"/>
</g>
<g>
	<g>
		<polygon class="st1" points="281.5,70.8 278.7,69.9 281.4,61.6 289,58.6 290.1,61.3 283.8,63.8 		"/>
		<polygon class="st1" points="287.5,45.4 281.4,43 278.7,34.7 281.5,33.8 283.8,40.8 288.5,42.7 		"/>
		<polygon class="st1" points="277.8,57.6 275.6,55.6 281.5,49.6 288,49.6 288,52.5 282.7,52.5 		"/>
	</g>
	<g>
		<polygon class="st2" points="320.3,70.8 318.1,63.8 311.8,61.3 312.8,58.6 320.5,61.6 323.2,69.9 		"/>
		<polygon class="st2" points="314.4,45.4 313.3,42.7 318.1,40.8 320.3,33.8 323.2,34.7 320.5,43 		"/>
		<polygon class="st2" points="324.1,57.6 319.1,52.5 313.9,52.5 313.9,49.6 320.4,49.6 326.2,55.6 		"/>
	</g>
	<path class="st1" d="M298.6,29.6h-3v-2.2c0-1-0.8-1.7-1.7-1.7v-3c2.6,0,4.7,2.1,4.7,4.7V29.6L298.6,29.6z"/>
	<path class="st2" d="M306.2,29.6h-3v-2.2c0-2.6,2.1-4.7,4.7-4.7v3c-1,0-1.7,0.8-1.7,1.7V29.6L306.2,29.6z"/>
	<path class="st10" d="M300.9,67.9L300.9,67.9c-7.6,0-13.8-6.2-13.8-13.8V40.4h27.5v13.8C314.7,61.8,308.5,67.9,300.9,67.9z"/>
	<path class="st4" d="M300.9,27.5L300.9,27.5c-5.4,0-9.7,4.3-9.7,9.7v5.4h19.4v-5.4C310.6,31.8,306.3,27.5,300.9,27.5z"/>
	<path class="st1" d="M300.9,27.5L300.9,27.5c0,3.6,0,15.1,0,15.1h9.7v-5.4C310.6,31.8,306.3,27.5,300.9,27.5z"/>
	<polygon class="st11" points="314.7,40.4 287.2,40.4 300.9,51.6 	"/>
</g>
<g>
	<g>
		<polygon class="st1" points="44.8,253.1 42,252.2 44.7,243.9 52.3,240.9 53.4,243.6 47.1,246.1 		"/>
		<polygon class="st1" points="50.8,227.7 44.7,225.3 42,217 44.8,216.1 47.1,223.1 51.9,225 		"/>
		<polygon class="st1" points="41.1,239.9 38.9,237.9 44.8,231.9 51.3,231.9 51.3,234.8 46,234.8 		"/>
	</g>
	<g>
		<polygon class="st2" points="83.6,253.1 81.4,246.1 75.1,243.6 76.1,240.9 83.8,243.9 86.5,252.2 		"/>
		<polygon class="st2" points="77.7,227.7 76.6,225 81.4,223.1 83.6,216.1 86.5,217 83.8,225.3 		"/>
		<polygon class="st2" points="87.4,239.9 82.4,234.8 77.2,234.8 77.2,231.9 83.7,231.9 89.5,237.9 		"/>
	</g>
	<path class="st1" d="M61.9,211.9h-3v-2.2c0-1-0.8-1.7-1.7-1.7v-3c2.6,0,4.7,2.1,4.7,4.7L61.9,211.9L61.9,211.9z"/>
	<path class="st2" d="M69.5,211.9h-3v-2.2c0-2.6,2.1-4.7,4.7-4.7v3c-1,0-1.7,0.8-1.7,1.7L69.5,211.9L69.5,211.9z"/>
	<path class="st10" d="M64.2,250.2L64.2,250.2c-7.6,0-13.8-6.2-13.8-13.8v-13.8H78v13.8C78,244.1,71.8,250.2,64.2,250.2z"/>
	<path class="st4" d="M64.2,209.8L64.2,209.8c-5.4,0-9.7,4.3-9.7,9.7v5.4h19.4v-5.4C73.9,214.1,69.6,209.8,64.2,209.8z"/>
	<path class="st1" d="M64.2,209.8L64.2,209.8c0,3.6,0,15.1,0,15.1h9.7v-5.4C73.9,214.1,69.6,209.8,64.2,209.8z"/>
	<polygon class="st11" points="78,222.7 50.5,222.7 64.2,233.9 	"/>
</g>
<g>
	<g>
		<polygon class="st1" points="251.5,253.1 248.7,252.2 251.4,243.9 259,240.9 260.1,243.6 253.8,246.1 		"/>
		<polygon class="st1" points="257.5,227.7 251.4,225.3 248.7,217 251.5,216.1 253.8,223.1 258.5,225 		"/>
		<polygon class="st1" points="247.7,239.9 245.6,237.9 251.5,231.9 258,231.9 258,234.8 252.7,234.8 		"/>
	</g>
	<g>
		<polygon class="st2" points="290.3,253.1 288.1,246.1 281.8,243.6 282.8,240.9 290.5,243.9 293.1,252.2 		"/>
		<polygon class="st2" points="284.4,227.7 283.3,225 288.1,223.1 290.3,216.1 293.1,217 290.5,225.3 		"/>
		<polygon class="st2" points="294.1,239.9 289.1,234.8 283.9,234.8 283.9,231.9 290.4,231.9 296.2,237.9 		"/>
	</g>
	<path class="st1" d="M268.6,211.9h-3v-2.2c0-1-0.8-1.7-1.7-1.7v-3c2.6,0,4.7,2.1,4.7,4.7V211.9L268.6,211.9z"/>
	<path class="st2" d="M276.2,211.9h-3v-2.2c0-2.6,2.1-4.7,4.7-4.7v3c-1,0-1.7,0.8-1.7,1.7V211.9L276.2,211.9z"/>
	<path class="st6" d="M270.9,250.2L270.9,250.2c-7.6,0-13.8-6.2-13.8-13.8v-13.8h27.5v13.8C284.7,244.1,278.5,250.2,270.9,250.2z"/>
	<path class="st4" d="M270.9,209.8L270.9,209.8c-5.4,0-9.7,4.3-9.7,9.7v5.4h19.4v-5.4C280.6,214.1,276.3,209.8,270.9,209.8z"/>
	<path class="st1" d="M270.9,209.8L270.9,209.8c0,3.6,0,15.1,0,15.1h9.7v-5.4C280.6,214.1,276.3,209.8,270.9,209.8z"/>
	<polygon class="st7" points="284.7,222.7 257.2,222.7 270.9,233.9 	"/>
</g>
<g>
	<g>
		<polygon class="st1" points="113.7,253.1 110.9,252.2 113.6,243.9 121.2,240.9 122.3,243.6 116,246.1 		"/>
		<polygon class="st1" points="119.7,227.7 113.6,225.3 110.9,217 113.7,216.1 116,223.1 120.7,225 		"/>
		<polygon class="st1" points="110,239.9 107.8,237.9 113.7,231.9 120.2,231.9 120.2,234.8 114.9,234.8 		"/>
	</g>
	<g>
		<polygon class="st2" points="152.5,253.1 150.3,246.1 144,243.6 145,240.9 152.7,243.9 155.4,252.2 		"/>
		<polygon class="st2" points="146.6,227.7 145.5,225 150.3,223.1 152.5,216.1 155.4,217 152.7,225.3 		"/>
		<polygon class="st2" points="156.3,239.9 151.3,234.8 146.1,234.8 146.1,231.9 152.6,231.9 158.4,237.9 		"/>
	</g>
	<path class="st1" d="M130.8,211.9h-3v-2.2c0-1-0.8-1.7-1.7-1.7v-3c2.6,0,4.7,2.1,4.7,4.7V211.9L130.8,211.9z"/>
	<path class="st2" d="M138.4,211.9h-3v-2.2c0-2.6,2.1-4.7,4.7-4.7v3c-1,0-1.7,0.8-1.7,1.7V211.9L138.4,211.9z"/>
	<path class="st8" d="M133.1,250.2L133.1,250.2c-7.6,0-13.8-6.2-13.8-13.8v-13.8h27.5v13.8C146.9,244.1,140.7,250.2,133.1,250.2z"/>
	<path class="st4" d="M133.1,209.8L133.1,209.8c-5.4,0-9.7,4.3-9.7,9.7v5.4h19.4v-5.4C142.8,214.1,138.5,209.8,133.1,209.8z"/>
	<path class="st1" d="M133.1,209.8L133.1,209.8c0,3.6,0,15.1,0,15.1h9.7v-5.4C142.8,214.1,138.5,209.8,133.1,209.8z"/>
	<polygon class="st9" points="146.9,222.7 119.4,222.7 133.1,233.9 	"/>
</g>
<g>
	<g>
		<polygon class="st1" points="320.4,253.1 317.6,252.2 320.3,243.9 327.9,240.9 329,243.6 322.7,246.1 		"/>
		<polygon class="st1" points="326.4,227.7 320.3,225.3 317.6,217 320.4,216.1 322.7,223.1 327.4,225 		"/>
		<polygon class="st1" points="316.6,239.9 314.5,237.9 320.4,231.9 326.9,231.9 326.9,234.8 321.6,234.8 		"/>
	</g>
	<g>
		<polygon class="st2" points="359.2,253.1 357,246.1 350.7,243.6 351.7,240.9 359.4,243.9 362,252.2 		"/>
		<polygon class="st2" points="353.3,227.7 352.2,225 357,223.1 359.2,216.1 362,217 359.4,225.3 		"/>
		<polygon class="st2" points="363,239.9 358,234.8 352.8,234.8 352.8,231.9 359.3,231.9 365.1,237.9 		"/>
	</g>
	<path class="st1" d="M337.5,211.9h-3v-2.2c0-1-0.8-1.7-1.7-1.7v-3c2.6,0,4.7,2.1,4.7,4.7V211.9L337.5,211.9z"/>
	<path class="st2" d="M345.1,211.9h-3v-2.2c0-2.6,2.1-4.7,4.7-4.7v3c-1,0-1.7,0.8-1.7,1.7V211.9L345.1,211.9z"/>
	<path class="st10" d="M339.8,250.2L339.8,250.2c-7.6,0-13.8-6.2-13.8-13.8v-13.8h27.5v13.8C353.6,244.1,347.4,250.2,339.8,250.2z"
		/>
	<path class="st4" d="M339.8,209.8L339.8,209.8c-5.4,0-9.7,4.3-9.7,9.7v5.4h19.4v-5.4C349.5,214.1,345.2,209.8,339.8,209.8z"/>
	<path class="st1" d="M339.8,209.8L339.8,209.8c0,3.6,0,15.1,0,15.1h9.7v-5.4C349.5,214.1,345.2,209.8,339.8,209.8z"/>
	<polygon class="st11" points="353.6,222.7 326.1,222.7 339.8,233.9 	"/>
</g>
<g>
	<g>
		<polygon class="st1" points="318.1,184.6 311.8,182.1 312.8,179.4 320.5,182.4 323.2,190.7 320.3,191.6 		"/>
		<polygon class="st1" points="313.3,163.5 318.1,161.6 320.3,154.6 323.2,155.5 320.5,163.8 314.4,166.2 		"/>
		<polygon class="st1" points="319.1,173.3 313.9,173.3 313.9,170.4 320.4,170.4 326.2,176.4 324.1,178.4 		"/>
	</g>
	<g>
		<polygon class="st2" points="278.7,190.7 281.4,182.4 289,179.4 290.1,182.1 283.8,184.6 281.5,191.6 		"/>
		<polygon class="st2" points="281.4,163.8 278.7,155.5 281.5,154.6 283.8,161.6 288.5,163.5 287.5,166.2 		"/>
		<polygon class="st2" points="275.6,176.4 281.5,170.4 288,170.4 288,173.3 282.7,173.3 277.8,178.4 		"/>
	</g>
	<path class="st1" d="M303.3,150.4v-2.2c0-2.6,2.1-4.7,4.7-4.7v3c-1,0-1.7,0.8-1.7,1.7v2.2H303.3L303.3,150.4z"/>
	<path class="st2" d="M295.6,150.4v-2.2c0-1-0.8-1.7-1.7-1.7v-3c2.6,0,4.7,2.1,4.7,4.7v2.2H295.6L295.6,150.4z"/>
	<path class="st6" d="M287.2,175v-13.8h27.5V175c0,7.6-6.2,13.8-13.8,13.8l0,0C293.3,188.7,287.2,182.6,287.2,175z"/>
	<path class="st4" d="M291.2,158v5.4h19.4V158c0-5.4-4.3-9.7-9.7-9.7l0,0C295.6,148.3,291.2,152.6,291.2,158z"/>
	<path class="st1" d="M291.2,158v5.4h9.7c0,0,0-11.5,0-15.1l0,0C295.6,148.3,291.2,152.6,291.2,158z"/>
	<polygon class="st7" points="300.9,172.4 314.7,161.2 287.2,161.2 	"/>
</g>
<g>
	<g>
		<polygon class="st1" points="249.2,184.6 242.9,182.1 243.9,179.4 251.6,182.4 254.3,190.7 251.4,191.6 		"/>
		<polygon class="st1" points="244.4,163.5 249.2,161.6 251.4,154.6 254.3,155.5 251.6,163.8 245.5,166.2 		"/>
		<polygon class="st1" points="250.2,173.3 245,173.3 245,170.4 251.5,170.4 257.3,176.4 255.2,178.4 		"/>
	</g>
	<g>
		<polygon class="st2" points="209.8,190.7 212.5,182.4 220.1,179.4 221.2,182.1 214.9,184.6 212.6,191.6 		"/>
		<polygon class="st2" points="212.5,163.8 209.8,155.5 212.6,154.6 214.9,161.6 219.7,163.5 218.6,166.2 		"/>
		<polygon class="st2" points="206.7,176.4 212.6,170.4 219.1,170.4 219.1,173.3 213.8,173.3 208.9,178.4 		"/>
	</g>
	<path class="st1" d="M234.4,150.4v-2.2c0-2.6,2.1-4.7,4.7-4.7v3c-1,0-1.7,0.8-1.7,1.7v2.2H234.4L234.4,150.4z"/>
	<path class="st2" d="M226.7,150.4v-2.2c0-1-0.8-1.7-1.7-1.7v-3c2.6,0,4.7,2.1,4.7,4.7v2.2H226.7L226.7,150.4z"/>
	<path class="st10" d="M218.3,175v-13.8h27.5V175c0,7.6-6.2,13.8-13.8,13.8l0,0C224.4,188.7,218.3,182.6,218.3,175z"/>
	<path class="st4" d="M222.3,158v5.4h19.4V158c0-5.4-4.3-9.7-9.7-9.7l0,0C226.7,148.3,222.3,152.6,222.3,158z"/>
	<path class="st1" d="M222.3,158v5.4h9.7c0,0,0-11.5,0-15.1l0,0C226.7,148.3,222.3,152.6,222.3,158z"/>
	<polygon class="st11" points="232,172.4 245.8,161.2 218.3,161.2 	"/>
</g>
<g>
	<g>
		<polygon class="st1" points="111.4,184.6 105.1,182.1 106.2,179.4 113.8,182.4 116.5,190.7 113.6,191.6 		"/>
		<polygon class="st1" points="106.6,163.5 111.4,161.6 113.6,154.6 116.5,155.5 113.8,163.8 107.7,166.2 		"/>
		<polygon class="st1" points="112.5,173.3 107.2,173.3 107.2,170.4 113.7,170.4 119.5,176.4 117.4,178.4 		"/>
	</g>
	<g>
		<polygon class="st2" points="72,190.7 74.7,182.4 82.3,179.4 83.4,182.1 77.1,184.6 74.9,191.6 		"/>
		<polygon class="st2" points="74.7,163.8 72,155.5 74.9,154.6 77.1,161.6 81.9,163.5 80.8,166.2 		"/>
		<polygon class="st2" points="68.9,176.4 74.8,170.4 81.3,170.4 81.3,173.3 76,173.3 71.1,178.4 		"/>
	</g>
	<path class="st1" d="M96.6,150.4v-2.2c0-2.6,2.1-4.7,4.7-4.7v3c-1,0-1.7,0.8-1.7,1.7v2.2H96.6L96.6,150.4z"/>
	<path class="st2" d="M88.9,150.4v-2.2c0-1-0.8-1.7-1.7-1.7v-3c2.6,0,4.7,2.1,4.7,4.7v2.2H88.9L88.9,150.4z"/>
	<path class="st3" d="M80.5,175v-13.8H108V175c0,7.6-6.2,13.8-13.8,13.8l0,0C86.6,188.7,80.5,182.6,80.5,175z"/>
	<path class="st4" d="M84.5,158v5.4H104V158c0-5.4-4.3-9.7-9.7-9.7l0,0C88.9,148.3,84.5,152.6,84.5,158z"/>
	<path class="st1" d="M84.5,158v5.4h9.7c0,0,0-11.5,0-15.1l0,0C88.9,148.3,84.5,152.6,84.5,158z"/>
	<polygon class="st5" points="94.2,172.4 108,161.2 80.5,161.2 	"/>
</g>
<g>
	<g>
		<polygon class="st1" points="180.3,184.6 174,182.1 175.1,179.4 182.7,182.4 185.4,190.7 182.5,191.6 		"/>
		<polygon class="st1" points="175.5,163.5 180.3,161.6 182.5,154.6 185.4,155.5 182.7,163.8 176.6,166.2 		"/>
		<polygon class="st1" points="181.4,173.3 176.1,173.3 176.1,170.4 182.6,170.4 188.4,176.4 186.3,178.4 		"/>
	</g>
	<g>
		<polygon class="st2" points="140.9,190.7 143.6,182.4 151.2,179.4 152.3,182.1 146,184.6 143.7,191.6 		"/>
		<polygon class="st2" points="143.6,163.8 140.9,155.5 143.7,154.6 146,161.6 150.8,163.5 149.7,166.2 		"/>
		<polygon class="st2" points="137.8,176.4 143.7,170.4 150.2,170.4 150.2,173.3 144.9,173.3 140,178.4 		"/>
	</g>
	<path class="st1" d="M165.5,150.4v-2.2c0-2.6,2.1-4.7,4.7-4.7v3c-1,0-1.7,0.8-1.7,1.7v2.2H165.5L165.5,150.4z"/>
	<path class="st2" d="M157.8,150.4v-2.2c0-1-0.8-1.7-1.7-1.7v-3c2.6,0,4.7,2.1,4.7,4.7v2.2H157.8L157.8,150.4z"/>
	<path class="st8" d="M149.4,175v-13.8h27.5V175c0,7.6-6.2,13.8-13.8,13.8l0,0C155.5,188.7,149.4,182.6,149.4,175z"/>
	<path class="st4" d="M153.4,158v5.4h19.4V158c0-5.4-4.3-9.7-9.7-9.7l0,0C157.8,148.3,153.4,152.6,153.4,158z"/>
	<path class="st1" d="M153.4,158v5.4h9.7c0,0,0-11.5,0-15.1l0,0C157.8,148.3,153.4,152.6,153.4,158z"/>
	<polygon class="st9" points="163.1,172.4 176.9,161.2 149.4,161.2 	"/>
</g>
<g>
	<g>
		<polygon class="st1" points="356.8,124.2 350.5,121.7 351.5,119 359.2,122 361.9,130.3 359,131.2 		"/>
		<polygon class="st1" points="352,103.1 356.8,101.2 359,94.2 361.9,95.1 359.2,103.4 353.1,105.8 		"/>
		<polygon class="st1" points="357.8,112.9 352.6,112.9 352.6,110 359.1,110 364.9,116 362.8,118 		"/>
	</g>
	<g>
		<polygon class="st2" points="317.4,130.3 320.1,122 327.7,119 328.8,121.7 322.5,124.2 320.2,131.2 		"/>
		<polygon class="st2" points="320.1,103.4 317.4,95.1 320.2,94.2 322.5,101.2 327.2,103.1 326.2,105.8 		"/>
		<polygon class="st2" points="314.3,116 320.2,110 326.7,110 326.7,112.9 321.4,112.9 316.5,118 		"/>
	</g>
	<path class="st1" d="M342,90v-2.2c0-2.6,2.1-4.7,4.7-4.7v3c-1,0-1.7,0.8-1.7,1.7V90H342L342,90z"/>
	<path class="st2" d="M334.3,90v-2.2c0-1-0.8-1.7-1.7-1.7v-3c2.6,0,4.7,2.1,4.7,4.7V90H334.3L334.3,90z"/>
	<path class="st3" d="M325.9,114.6v-13.8h27.5v13.8c0,7.6-6.2,13.8-13.8,13.8l0,0C332,128.3,325.9,122.2,325.9,114.6z"/>
	<path class="st4" d="M329.9,97.6v5.4h19.4v-5.4c0-5.4-4.3-9.7-9.7-9.7l0,0C334.3,87.9,329.9,92.2,329.9,97.6z"/>
	<path class="st1" d="M329.9,97.6v5.4h9.7c0,0,0-11.5,0-15.1l0,0C334.3,87.9,329.9,92.2,329.9,97.6z"/>
	<polygon class="st5" points="339.6,112 353.4,100.8 325.9,100.8 	"/>
</g>
<g>
	<g>
		<polygon class="st1" points="287.9,124.2 281.6,121.7 282.6,119 290.3,122 293,130.3 290.1,131.2 		"/>
		<polygon class="st1" points="283.1,103.1 287.9,101.2 290.1,94.2 293,95.1 290.3,103.4 284.2,105.8 		"/>
		<polygon class="st1" points="288.9,112.9 283.7,112.9 283.7,110 290.2,110 296,116 293.9,118 		"/>
	</g>
	<g>
		<polygon class="st2" points="248.5,130.3 251.2,122 258.8,119 259.9,121.7 253.6,124.2 251.3,131.2 		"/>
		<polygon class="st2" points="251.2,103.4 248.5,95.1 251.3,94.2 253.6,101.2 258.3,103.1 257.3,105.8 		"/>
		<polygon class="st2" points="245.4,116 251.3,110 257.8,110 257.8,112.9 252.5,112.9 247.6,118 		"/>
	</g>
	<path class="st1" d="M273.1,90v-2.2c0-2.6,2.1-4.7,4.7-4.7v3c-1,0-1.7,0.8-1.7,1.7V90H273.1L273.1,90z"/>
	<path class="st2" d="M265.4,90v-2.2c0-1-0.8-1.7-1.7-1.7v-3c2.6,0,4.7,2.1,4.7,4.7V90H265.4L265.4,90z"/>
	<path class="st6" d="M257,114.6v-13.8h27.5v13.8c0,7.6-6.2,13.8-13.8,13.8l0,0C263.1,128.3,257,122.2,257,114.6z"/>
	<path class="st4" d="M261,97.6v5.4h19.4v-5.4c0-5.4-4.3-9.7-9.7-9.7l0,0C265.4,87.9,261,92.2,261,97.6z"/>
	<path class="st1" d="M261,97.6v5.4h9.7c0,0,0-11.5,0-15.1l0,0C265.4,87.9,261,92.2,261,97.6z"/>
	<polygon class="st7" points="270.7,112 284.5,100.8 257,100.8 	"/>
</g>
<g>
	<g>
		<polygon class="st1" points="219,124.2 212.7,121.7 213.7,119 221.4,122 224.1,130.3 221.2,131.2 		"/>
		<polygon class="st1" points="214.2,103.1 219,101.2 221.2,94.2 224.1,95.1 221.4,103.4 215.3,105.8 		"/>
		<polygon class="st1" points="220,112.9 214.8,112.9 214.8,110 221.3,110 227.1,116 225,118 		"/>
	</g>
	<g>
		<polygon class="st2" points="179.6,130.3 182.3,122 189.9,119 191,121.7 184.7,124.2 182.4,131.2 		"/>
		<polygon class="st2" points="182.3,103.4 179.6,95.1 182.4,94.2 184.7,101.2 189.5,103.1 188.4,105.8 		"/>
		<polygon class="st2" points="176.5,116 182.4,110 188.9,110 188.9,112.9 183.6,112.9 178.7,118 		"/>
	</g>
	<path class="st1" d="M204.2,90v-2.2c0-2.6,2.1-4.7,4.7-4.7v3c-1,0-1.7,0.8-1.7,1.7V90H204.2L204.2,90z"/>
	<path class="st2" d="M196.5,90v-2.2c0-1-0.8-1.7-1.7-1.7v-3c2.6,0,4.7,2.1,4.7,4.7V90H196.5L196.5,90z"/>
	<path class="st10" d="M188.1,114.6v-13.8h27.5v13.8c0,7.6-6.2,13.8-13.8,13.8l0,0C194.2,128.3,188.1,122.2,188.1,114.6z"/>
	<path class="st4" d="M192.1,97.6v5.4h19.4v-5.4c0-5.4-4.3-9.7-9.7-9.7l0,0C196.5,87.9,192.1,92.2,192.1,97.6z"/>
	<path class="st1" d="M192.1,97.6v5.4h9.7c0,0,0-11.5,0-15.1l0,0C196.5,87.9,192.1,92.2,192.1,97.6z"/>
	<polygon class="st11" points="201.8,112 215.6,100.8 188.1,100.8 	"/>
</g>
<g>
	<g>
		<polygon class="st1" points="81.2,124.2 74.9,121.7 76,119 83.6,122 86.3,130.3 83.4,131.2 		"/>
		<polygon class="st1" points="76.4,103.1 81.2,101.2 83.4,94.2 86.3,95.1 83.6,103.4 77.5,105.8 		"/>
		<polygon class="st1" points="82.3,112.9 77,112.9 77,110 83.5,110 89.3,116 87.2,118 		"/>
	</g>
	<g>
		<polygon class="st2" points="41.8,130.3 44.5,122 52.1,119 53.2,121.7 46.9,124.2 44.6,131.2 		"/>
		<polygon class="st2" points="44.5,103.4 41.8,95.1 44.6,94.2 46.9,101.2 51.7,103.1 50.6,105.8 		"/>
		<polygon class="st2" points="38.7,116 44.6,110 51.1,110 51.1,112.9 45.8,112.9 40.9,118 		"/>
	</g>
	<path class="st1" d="M66.4,90v-2.2c0-2.6,2.1-4.7,4.7-4.7v3c-1,0-1.7,0.8-1.7,1.7V90H66.4L66.4,90z"/>
	<path class="st2" d="M58.7,90v-2.2c0-1-0.8-1.7-1.7-1.7v-3c2.6,0,4.7,2.1,4.7,4.7V90H58.7L58.7,90z"/>
	<path class="st3" d="M50.3,114.6v-13.8h27.5v13.8c0,7.6-6.2,13.8-13.8,13.8l0,0C56.4,128.3,50.3,122.2,50.3,114.6z"/>
	<path class="st4" d="M54.3,97.6v5.4h19.4v-5.4c0-5.4-4.3-9.7-9.7-9.7l0,0C58.7,87.9,54.3,92.2,54.3,97.6z"/>
	<path class="st1" d="M54.3,97.6v5.4H64c0,0,0-11.5,0-15.1l0,0C58.7,87.9,54.3,92.2,54.3,97.6z"/>
	<polygon class="st5" points="64,112 77.8,100.8 50.3,100.8 	"/>
</g>
<g>
	<g>
		<polygon class="st1" points="150.1,124.2 143.8,121.7 144.8,119 152.5,122 155.2,130.3 152.3,131.2 		"/>
		<polygon class="st1" points="145.3,103.1 150.1,101.2 152.3,94.2 155.2,95.1 152.5,103.4 146.4,105.8 		"/>
		<polygon class="st1" points="151.1,112.9 145.9,112.9 145.9,110 152.4,110 158.2,116 156.1,118 		"/>
	</g>
	<g>
		<polygon class="st2" points="110.7,130.3 113.4,122 121,119 122.1,121.7 115.8,124.2 113.5,131.2 		"/>
		<polygon class="st2" points="113.4,103.4 110.7,95.1 113.5,94.2 115.8,101.2 120.6,103.1 119.5,105.8 		"/>
		<polygon class="st2" points="107.6,116 113.5,110 120,110 120,112.9 114.7,112.9 109.8,118 		"/>
	</g>
	<path class="st1" d="M135.3,90v-2.2c0-2.6,2.1-4.7,4.7-4.7v3c-1,0-1.7,0.8-1.7,1.7V90H135.3L135.3,90z"/>
	<path class="st2" d="M127.6,90v-2.2c0-1-0.8-1.7-1.7-1.7v-3c2.6,0,4.7,2.1,4.7,4.7V90H127.6L127.6,90z"/>
	<path class="st8" d="M119.2,114.6v-13.8h27.5v13.8c0,7.6-6.2,13.8-13.8,13.8l0,0C125.3,128.3,119.2,122.2,119.2,114.6z"/>
	<path class="st4" d="M123.2,97.6v5.4h19.4v-5.4c0-5.4-4.3-9.7-9.7-9.7l0,0C127.6,87.9,123.2,92.2,123.2,97.6z"/>
	<path class="st1" d="M123.2,97.6v5.4h9.7c0,0,0-11.5,0-15.1l0,0C127.6,87.9,123.2,92.2,123.2,97.6z"/>
	<polygon class="st9" points="132.9,112 146.7,100.8 119.2,100.8 	"/>
</g>
<g>
	<g>
		<polygon class="st1" points="143.7,314.6 140.9,313.7 143.6,305.4 151.2,302.4 152.3,305.1 146,307.6 		"/>
		<polygon class="st1" points="149.7,289.2 143.6,286.8 140.9,278.5 143.7,277.6 146,284.6 150.8,286.5 		"/>
		<polygon class="st1" points="140,301.4 137.8,299.4 143.7,293.4 150.2,293.4 150.2,296.3 144.9,296.3 		"/>
	</g>
	<g>
		<polygon class="st2" points="182.5,314.6 180.3,307.6 174,305.1 175.1,302.4 182.7,305.4 185.4,313.7 		"/>
		<polygon class="st2" points="176.6,289.2 175.5,286.5 180.3,284.6 182.5,277.6 185.4,278.5 182.7,286.8 		"/>
		<polygon class="st2" points="186.3,301.4 181.4,296.3 176.1,296.3 176.1,293.4 182.6,293.4 188.4,299.4 		"/>
	</g>
	<path class="st1" d="M160.8,273.4h-3v-2.2c0-1-0.8-1.7-1.7-1.7v-3c2.6,0,4.7,2.1,4.7,4.7V273.4L160.8,273.4z"/>
	<path class="st2" d="M168.4,273.4h-3v-2.2c0-2.6,2.1-4.7,4.7-4.7v3c-1,0-1.7,0.8-1.7,1.7V273.4L168.4,273.4z"/>
	<path class="st3" d="M163.1,311.7L163.1,311.7c-7.6,0-13.8-6.2-13.8-13.8v-13.8h27.5V298C176.9,305.6,170.7,311.7,163.1,311.7z"/>
	<path class="st4" d="M163.1,271.3L163.1,271.3c-5.4,0-9.7,4.3-9.7,9.7v5.4h19.4V281C172.9,275.6,168.5,271.3,163.1,271.3z"/>
	<path class="st1" d="M163.1,271.3L163.1,271.3c0,3.6,0,15.1,0,15.1h9.7V281C172.9,275.6,168.5,271.3,163.1,271.3z"/>
	<polygon class="st5" points="176.9,284.2 149.4,284.2 163.1,295.4 	"/>
</g>
<g>
	<g>
		<polygon class="st1" points="212.6,314.6 209.8,313.7 212.5,305.4 220.1,302.4 221.2,305.1 214.9,307.6 		"/>
		<polygon class="st1" points="218.6,289.2 212.5,286.8 209.8,278.5 212.6,277.6 214.9,284.6 219.7,286.5 		"/>
		<polygon class="st1" points="208.9,301.4 206.7,299.4 212.6,293.4 219.1,293.4 219.1,296.3 213.8,296.3 		"/>
	</g>
	<g>
		<polygon class="st2" points="251.4,314.6 249.2,307.6 242.9,305.1 243.9,302.4 251.6,305.4 254.3,313.7 		"/>
		<polygon class="st2" points="245.5,289.2 244.4,286.5 249.2,284.6 251.4,277.6 254.3,278.5 251.6,286.8 		"/>
		<polygon class="st2" points="255.2,301.4 250.2,296.3 245,296.3 245,293.4 251.5,293.4 257.3,299.4 		"/>
	</g>
	<path class="st1" d="M229.7,273.4h-3v-2.2c0-1-0.8-1.7-1.7-1.7v-3c2.6,0,4.7,2.1,4.7,4.7L229.7,273.4L229.7,273.4z"/>
	<path class="st2" d="M237.3,273.4h-3v-2.2c0-2.6,2.1-4.7,4.7-4.7v3c-1,0-1.7,0.8-1.7,1.7L237.3,273.4L237.3,273.4z"/>
	<path class="st6" d="M232,311.7L232,311.7c-7.6,0-13.8-6.2-13.8-13.8v-13.8h27.5V298C245.8,305.6,239.6,311.7,232,311.7z"/>
	<path class="st4" d="M232,271.3L232,271.3c-5.4,0-9.7,4.3-9.7,9.7v5.4h19.4V281C241.7,275.6,237.4,271.3,232,271.3z"/>
	<path class="st1" d="M232,271.3L232,271.3c0,3.6,0,15.1,0,15.1h9.7V281C241.7,275.6,237.4,271.3,232,271.3z"/>
	<polygon class="st7" points="245.8,284.2 218.3,284.2 232,295.4 	"/>
</g>
<g>
	<g>
		<polygon class="st1" points="74.9,314.6 72,313.7 74.7,305.4 82.3,302.4 83.4,305.1 77.1,307.6 		"/>
		<polygon class="st1" points="80.8,289.2 74.7,286.8 72,278.5 74.9,277.6 77.1,284.6 81.9,286.5 		"/>
		<polygon class="st1" points="71.1,301.4 68.9,299.4 74.8,293.4 81.3,293.4 81.3,296.3 76,296.3 		"/>
	</g>
	<g>
		<polygon class="st2" points="113.6,314.6 111.4,307.6 105.1,305.1 106.2,302.4 113.8,305.4 116.5,313.7 		"/>
		<polygon class="st2" points="107.7,289.2 106.6,286.5 111.4,284.6 113.6,277.6 116.5,278.5 113.8,286.8 		"/>
		<polygon class="st2" points="117.4,301.4 112.5,296.3 107.2,296.3 107.2,293.4 113.7,293.4 119.5,299.4 		"/>
	</g>
	<path class="st1" d="M91.9,273.4h-3v-2.2c0-1-0.8-1.7-1.7-1.7v-3c2.6,0,4.7,2.1,4.7,4.7L91.9,273.4L91.9,273.4z"/>
	<path class="st2" d="M99.5,273.4h-3v-2.2c0-2.6,2.1-4.7,4.7-4.7v3c-1,0-1.7,0.8-1.7,1.7L99.5,273.4L99.5,273.4z"/>
	<path class="st8" d="M94.2,311.7L94.2,311.7c-7.6,0-13.8-6.2-13.8-13.8v-13.8H108V298C108,305.6,101.8,311.7,94.2,311.7z"/>
	<path class="st4" d="M94.2,271.3L94.2,271.3c-5.4,0-9.7,4.3-9.7,9.7v5.4H104V281C104,275.6,99.6,271.3,94.2,271.3z"/>
	<path class="st1" d="M94.2,271.3L94.2,271.3c0,3.6,0,15.1,0,15.1h9.7V281C104,275.6,99.6,271.3,94.2,271.3z"/>
	<polygon class="st9" points="108,284.2 80.5,284.2 94.2,295.4 	"/>
</g>
<g>
	<g>
		<polygon class="st1" points="281.5,314.6 278.7,313.7 281.4,305.4 289,302.4 290.1,305.1 283.8,307.6 		"/>
		<polygon class="st1" points="287.5,289.2 281.4,286.8 278.7,278.5 281.5,277.6 283.8,284.6 288.5,286.5 		"/>
		<polygon class="st1" points="277.8,301.4 275.6,299.4 281.5,293.4 288,293.4 288,296.3 282.7,296.3 		"/>
	</g>
	<g>
		<polygon class="st2" points="320.3,314.6 318.1,307.6 311.8,305.1 312.8,302.4 320.5,305.4 323.2,313.7 		"/>
		<polygon class="st2" points="314.4,289.2 313.3,286.5 318.1,284.6 320.3,277.6 323.2,278.5 320.5,286.8 		"/>
		<polygon class="st2" points="324.1,301.4 319.1,296.3 313.9,296.3 313.9,293.4 320.4,293.4 326.2,299.4 		"/>
	</g>
	<path class="st1" d="M298.6,273.4h-3v-2.2c0-1-0.8-1.7-1.7-1.7v-3c2.6,0,4.7,2.1,4.7,4.7V273.4L298.6,273.4z"/>
	<path class="st2" d="M306.2,273.4h-3v-2.2c0-2.6,2.1-4.7,4.7-4.7v3c-1,0-1.7,0.8-1.7,1.7V273.4L306.2,273.4z"/>
	<path class="st10" d="M300.9,311.7L300.9,311.7c-7.6,0-13.8-6.2-13.8-13.8v-13.8h27.5V298C314.7,305.6,308.5,311.7,300.9,311.7z"/>
	<path class="st4" d="M300.9,271.3L300.9,271.3c-5.4,0-9.7,4.3-9.7,9.7v5.4h19.4V281C310.6,275.6,306.3,271.3,300.9,271.3z"/>
	<path class="st1" d="M300.9,271.3L300.9,271.3c0,3.6,0,15.1,0,15.1h9.7V281C310.6,275.6,306.3,271.3,300.9,271.3z"/>
	<polygon class="st11" points="314.7,284.2 287.2,284.2 300.9,295.4 	"/>
</g>
<g>
	<g>
		<polygon class="st1" points="356.8,368 350.5,365.5 351.5,362.8 359.2,365.8 361.9,374.1 359,375 		"/>
		<polygon class="st1" points="352,346.9 356.8,345 359,338 361.9,338.9 359.2,347.2 353.1,349.6 		"/>
		<polygon class="st1" points="357.8,356.8 352.6,356.8 352.6,353.8 359.1,353.8 364.9,359.8 362.8,361.8 		"/>
	</g>
	<g>
		<polygon class="st2" points="317.4,374.1 320.1,365.8 327.7,362.8 328.8,365.5 322.5,368 320.2,375 		"/>
		<polygon class="st2" points="320.1,347.2 317.4,338.9 320.2,338 322.5,345 327.2,346.9 326.2,349.6 		"/>
		<polygon class="st2" points="314.3,359.8 320.2,353.8 326.7,353.8 326.7,356.8 321.4,356.8 316.5,361.8 		"/>
	</g>
	<path class="st1" d="M342,333.8v-2.2c0-2.6,2.1-4.7,4.7-4.7v3c-1,0-1.7,0.8-1.7,1.7v2.2H342L342,333.8z"/>
	<path class="st2" d="M334.3,333.8v-2.2c0-1-0.8-1.7-1.7-1.7v-3c2.6,0,4.7,2.1,4.7,4.7v2.2H334.3L334.3,333.8z"/>
	<path class="st3" d="M325.9,358.4v-13.8h27.5v13.8c0,7.6-6.2,13.8-13.8,13.8l0,0C332,372.1,325.9,366,325.9,358.4z"/>
	<path class="st4" d="M329.9,341.4v5.4h19.4v-5.4c0-5.4-4.3-9.7-9.7-9.7l0,0C334.3,331.7,329.9,336,329.9,341.4z"/>
	<path class="st1" d="M329.9,341.4v5.4h9.7c0,0,0-11.5,0-15.1l0,0C334.3,331.7,329.9,336,329.9,341.4z"/>
	<polygon class="st5" points="339.6,355.8 353.4,344.6 325.9,344.6 	"/>
</g>
<g>
	<g>
		<polygon class="st1" points="287.9,368 281.6,365.5 282.6,362.8 290.3,365.8 293,374.1 290.1,375 		"/>
		<polygon class="st1" points="283.1,346.9 287.9,345 290.1,338 293,338.9 290.3,347.2 284.2,349.6 		"/>
		<polygon class="st1" points="288.9,356.8 283.7,356.8 283.7,353.8 290.2,353.8 296,359.8 293.9,361.8 		"/>
	</g>
	<g>
		<polygon class="st2" points="248.5,374.1 251.2,365.8 258.8,362.8 259.9,365.5 253.6,368 251.3,375 		"/>
		<polygon class="st2" points="251.2,347.2 248.5,338.9 251.3,338 253.6,345 258.3,346.9 257.3,349.6 		"/>
		<polygon class="st2" points="245.4,359.8 251.3,353.8 257.8,353.8 257.8,356.8 252.5,356.8 247.6,361.8 		"/>
	</g>
	<path class="st1" d="M273.1,333.8v-2.2c0-2.6,2.1-4.7,4.7-4.7v3c-1,0-1.7,0.8-1.7,1.7v2.2H273.1L273.1,333.8z"/>
	<path class="st2" d="M265.4,333.8v-2.2c0-1-0.8-1.7-1.7-1.7v-3c2.6,0,4.7,2.1,4.7,4.7v2.2H265.4L265.4,333.8z"/>
	<path class="st6" d="M257,358.4v-13.8h27.5v13.8c0,7.6-6.2,13.8-13.8,13.8l0,0C263.1,372.1,257,366,257,358.4z"/>
	<path class="st4" d="M261,341.4v5.4h19.4v-5.4c0-5.4-4.3-9.7-9.7-9.7l0,0C265.4,331.7,261,336,261,341.4z"/>
	<path class="st1" d="M261,341.4v5.4h9.7c0,0,0-11.5,0-15.1l0,0C265.4,331.7,261,336,261,341.4z"/>
	<polygon class="st7" points="270.7,355.8 284.5,344.6 257,344.6 	"/>
</g>
<g>
	<g>
		<polygon class="st1" points="219,368 212.7,365.5 213.7,362.8 221.4,365.8 224.1,374.1 221.2,375 		"/>
		<polygon class="st1" points="214.2,346.9 219,345 221.2,338 224.1,338.9 221.4,347.2 215.3,349.6 		"/>
		<polygon class="st1" points="220,356.8 214.8,356.8 214.8,353.8 221.3,353.8 227.1,359.8 225,361.8 		"/>
	</g>
	<g>
		<polygon class="st2" points="179.6,374.1 182.3,365.8 189.9,362.8 191,365.5 184.7,368 182.4,375 		"/>
		<polygon class="st2" points="182.3,347.2 179.6,338.9 182.4,338 184.7,345 189.5,346.9 188.4,349.6 		"/>
		<polygon class="st2" points="176.5,359.8 182.4,353.8 188.9,353.8 188.9,356.8 183.6,356.8 178.7,361.8 		"/>
	</g>
	<path class="st1" d="M204.2,333.8v-2.2c0-2.6,2.1-4.7,4.7-4.7v3c-1,0-1.7,0.8-1.7,1.7v2.2H204.2L204.2,333.8z"/>
	<path class="st2" d="M196.5,333.8v-2.2c0-1-0.8-1.7-1.7-1.7v-3c2.6,0,4.7,2.1,4.7,4.7v2.2H196.5L196.5,333.8z"/>
	<path class="st10" d="M188.1,358.4v-13.8h27.5v13.8c0,7.6-6.2,13.8-13.8,13.8l0,0C194.2,372.1,188.1,366,188.1,358.4z"/>
	<path class="st4" d="M192.1,341.4v5.4h19.4v-5.4c0-5.4-4.3-9.7-9.7-9.7l0,0C196.5,331.7,192.1,336,192.1,341.4z"/>
	<path class="st1" d="M192.1,341.4v5.4h9.7c0,0,0-11.5,0-15.1l0,0C196.5,331.7,192.1,336,192.1,341.4z"/>
	<polygon class="st11" points="201.8,355.8 215.6,344.6 188.1,344.6 	"/>
</g>
<g>
	<g>
		<polygon class="st1" points="81.2,368 74.9,365.5 76,362.8 83.6,365.8 86.3,374.1 83.4,375 		"/>
		<polygon class="st1" points="76.4,346.9 81.2,345 83.4,338 86.3,338.9 83.6,347.2 77.5,349.6 		"/>
		<polygon class="st1" points="82.3,356.8 77,356.8 77,353.8 83.5,353.8 89.3,359.8 87.2,361.8 		"/>
	</g>
	<g>
		<polygon class="st2" points="41.8,374.1 44.5,365.8 52.1,362.8 53.2,365.5 46.9,368 44.6,375 		"/>
		<polygon class="st2" points="44.5,347.2 41.8,338.9 44.6,338 46.9,345 51.7,346.9 50.6,349.6 		"/>
		<polygon class="st2" points="38.7,359.8 44.6,353.8 51.1,353.8 51.1,356.8 45.8,356.8 40.9,361.8 		"/>
	</g>
	<path class="st1" d="M66.4,333.8v-2.2c0-2.6,2.1-4.7,4.7-4.7v3c-1,0-1.7,0.8-1.7,1.7v2.2H66.4L66.4,333.8z"/>
	<path class="st2" d="M58.7,333.8v-2.2c0-1-0.8-1.7-1.7-1.7v-3c2.6,0,4.7,2.1,4.7,4.7v2.2H58.7L58.7,333.8z"/>
	<path class="st3" d="M50.3,358.4v-13.8h27.5v13.8c0,7.6-6.2,13.8-13.8,13.8l0,0C56.4,372.1,50.3,366,50.3,358.4z"/>
	<path class="st4" d="M54.3,341.4v5.4h19.4v-5.4c0-5.4-4.3-9.7-9.7-9.7l0,0C58.7,331.7,54.3,336,54.3,341.4z"/>
	<path class="st1" d="M54.3,341.4v5.4H64c0,0,0-11.5,0-15.1l0,0C58.7,331.7,54.3,336,54.3,341.4z"/>
	<polygon class="st5" points="64,355.8 77.8,344.6 50.3,344.6 	"/>
</g>
<g>
	<g>
		<polygon class="st1" points="150.1,368 143.8,365.5 144.8,362.8 152.5,365.8 155.2,374.1 152.3,375 		"/>
		<polygon class="st1" points="145.3,346.9 150.1,345 152.3,338 155.2,338.9 152.5,347.2 146.4,349.6 		"/>
		<polygon class="st1" points="151.1,356.8 145.9,356.8 145.9,353.8 152.4,353.8 158.2,359.8 156.1,361.8 		"/>
	</g>
	<g>
		<polygon class="st2" points="110.7,374.1 113.4,365.8 121,362.8 122.1,365.5 115.8,368 113.5,375 		"/>
		<polygon class="st2" points="113.4,347.2 110.7,338.9 113.5,338 115.8,345 120.6,346.9 119.5,349.6 		"/>
		<polygon class="st2" points="107.6,359.8 113.5,353.8 120,353.8 120,356.8 114.7,356.8 109.8,361.8 		"/>
	</g>
	<path class="st1" d="M135.3,333.8v-2.2c0-2.6,2.1-4.7,4.7-4.7v3c-1,0-1.7,0.8-1.7,1.7v2.2H135.3L135.3,333.8z"/>
	<path class="st2" d="M127.6,333.8v-2.2c0-1-0.8-1.7-1.7-1.7v-3c2.6,0,4.7,2.1,4.7,4.7v2.2H127.6L127.6,333.8z"/>
	<path class="st8" d="M119.2,358.4v-13.8h27.5v13.8c0,7.6-6.2,13.8-13.8,13.8l0,0C125.3,372.1,119.2,366,119.2,358.4z"/>
	<path class="st4" d="M123.2,341.4v5.4h19.4v-5.4c0-5.4-4.3-9.7-9.7-9.7l0,0C127.6,331.7,123.2,336,123.2,341.4z"/>
	<path class="st1" d="M123.2,341.4v5.4h9.7c0,0,0-11.5,0-15.1l0,0C127.6,331.7,123.2,336,123.2,341.4z"/>
	<polygon class="st9" points="132.9,355.8 146.7,344.6 119.2,344.6 	"/>
</g>
</svg>
