<?xml version="1.0" encoding="utf-8"?>
<!-- Generator: Adobe Illustrator 22.1.0, SVG Export Plug-In . SVG Version: 6.00 Build 0)  -->
<svg version="1.1" id="Layer_1" xmlns="http://www.w3.org/2000/svg" xmlns:xlink="http://www.w3.org/1999/xlink" x="0px" y="0px"
	 viewBox="0 0 336.7 293.7" style="enable-background:new 0 0 336.7 293.7;" xml:space="preserve">
<style type="text/css">
	.st0{fill:#A5D73C;}
	.st1{opacity:0.2;}
	.st2{enable-background:new    ;}
	.st3{fill:#FFFFFF;}
</style>
<g>
	<path class="st0" d="M269.2,137.9h-40c-2.8,0-5-2.2-5-5V99c0-2.8,2.2-5,5-5h40c2.8,0,5,2.2,5,5v33.9
		C274.2,135.7,272,137.9,269.2,137.9z"/>
	<g class="st1">
		<g>
			<circle cx="230.8" cy="97.2" r="1.7"/>
			<circle cx="243.1" cy="97.2" r="1.7"/>
			<circle cx="255.3" cy="97.2" r="1.7"/>
			<circle cx="267.6" cy="97.2" r="1.7"/>
		</g>
		<g>
			<circle cx="230.8" cy="134.8" r="1.7"/>
			<circle cx="243.1" cy="134.8" r="1.7"/>
			<circle cx="255.3" cy="134.8" r="1.7"/>
			<circle cx="267.6" cy="134.8" r="1.7"/>
		</g>
		<rect x="225.6" y="99.8" width="48" height="0.5"/>
		<rect x="225.6" y="131.6" width="48" height="0.5"/>
		<path d="M268,130.2h-37c-2,0-3.7-1.7-3.7-3.7v-20.9c0-2,1.7-3.7,3.7-3.7h37c2,0,3.7,1.7,3.7,3.7v20.9
			C271.7,128.6,270,130.2,268,130.2z"/>
	</g>
</g>
<g>
	<g class="st2">
		<path class="st3" d="M256.3,120c0.3,0.2,0.4,0.6,0.4,1c0,0.9-0.5,1.3-1.6,1.3h-1.3v2.1c0,0.5-0.2,1-0.5,1.3s-0.7,0.4-1.2,0.4
			s-0.9-0.1-1.2-0.4s-0.5-0.7-0.5-1.3v-2.1h-6.9c-0.5,0-0.8-0.1-1.1-0.4s-0.4-0.6-0.4-1s0.1-0.8,0.4-1.2l8.1-11.7
			c0.2-0.2,0.4-0.4,0.7-0.6c0.3-0.1,0.5-0.2,0.8-0.2c0.5,0,0.9,0.1,1.2,0.4s0.5,0.7,0.5,1.3v10.7h1.3
			C255.7,119.6,256,119.8,256.3,120z M245.6,119.6h4.9v-7.1L245.6,119.6z"/>
	</g>
</g>
</svg>
