<?xml version="1.0" encoding="utf-8"?>
<!-- Generator: Adobe Illustrator 22.1.0, SVG Export Plug-In . SVG Version: 6.00 Build 0)  -->
<svg version="1.1" id="Layer_1" xmlns="http://www.w3.org/2000/svg" xmlns:xlink="http://www.w3.org/1999/xlink" x="0px" y="0px"
	 viewBox="0 0 336.7 293.7" style="enable-background:new 0 0 336.7 293.7;" xml:space="preserve">
<style type="text/css">
	.st0{fill:#00CDC8;}
	.st1{opacity:0.2;}
	.st2{enable-background:new    ;}
	.st3{fill:#FFFFFF;}
</style>
<g>
	<path class="st0" d="M106.6,276.7h-40c-2.8,0-5-2.2-5-5v-33.9c0-2.8,2.2-5,5-5h40c2.8,0,5,2.2,5,5v33.9
		C111.6,274.5,109.4,276.7,106.6,276.7z"/>
	<g class="st1">
		<g>
			<circle cx="68.2" cy="236" r="1.7"/>
			<circle cx="80.5" cy="236" r="1.7"/>
			<circle cx="92.8" cy="236" r="1.7"/>
			<circle cx="105.1" cy="236" r="1.7"/>
		</g>
		<g>
			<circle cx="68.2" cy="273.6" r="1.7"/>
			<circle cx="80.5" cy="273.6" r="1.7"/>
			<circle cx="92.8" cy="273.6" r="1.7"/>
			<circle cx="105.1" cy="273.6" r="1.7"/>
		</g>
		<rect x="63" y="238.7" width="48" height="0.5"/>
		<rect x="63" y="270.4" width="48" height="0.5"/>
		<path d="M105.4,269.1h-37c-2,0-3.7-1.7-3.7-3.7v-20.9c0-2,1.7-3.7,3.7-3.7h37c2,0,3.7,1.7,3.7,3.7v20.9
			C109.1,267.4,107.4,269.1,105.4,269.1z"/>
	</g>
</g>
<g>
	<g class="st2">
		<path class="st3" d="M84.8,262c0,0.8-0.5,1.3-1.4,1.3h-8c-1,0-1.4-0.4-1.4-1.3c0-0.8,0.5-1.2,1.4-1.2h2.5V250l-2.3,1.4
			c-0.2,0.1-0.4,0.2-0.6,0.2c-0.3,0-0.6-0.1-0.8-0.4c-0.2-0.3-0.3-0.6-0.3-0.9c0-0.5,0.2-0.8,0.6-1.1l3.7-2.3
			c0.5-0.3,0.9-0.4,1.3-0.4s0.8,0.1,1.1,0.4c0.3,0.3,0.4,0.6,0.4,1.1v12.8h2.5C84.4,260.8,84.8,261.2,84.8,262z"/>
		<path class="st3" d="M88.3,261.3c-1-1.5-1.6-3.6-1.6-6.4s0.5-4.9,1.6-6.3c1-1.5,2.5-2.2,4.5-2.2s3.5,0.7,4.5,2.2s1.6,3.6,1.6,6.3
			c0,2.7-0.5,4.9-1.6,6.4c-1,1.5-2.5,2.2-4.5,2.2C90.9,263.5,89.4,262.7,88.3,261.3z M95.2,259.6c0.5-1,0.7-2.5,0.7-4.7
			s-0.2-3.7-0.7-4.7s-1.3-1.5-2.3-1.5c-1.1,0-1.9,0.5-2.3,1.5c-0.5,1-0.7,2.5-0.7,4.7s0.2,3.7,0.7,4.7s1.3,1.5,2.3,1.5
			S94.7,260.6,95.2,259.6z"/>
	</g>
</g>
</svg>
