<?xml version="1.0" encoding="utf-8"?>
<!-- Generator: Adobe Illustrator 22.1.0, SVG Export Plug-In . SVG Version: 6.00 Build 0)  -->
<svg version="1.1" id="Layer_1" xmlns="http://www.w3.org/2000/svg" xmlns:xlink="http://www.w3.org/1999/xlink" x="0px" y="0px"
	 viewBox="0 0 336.7 293.7" style="enable-background:new 0 0 336.7 293.7;" xml:space="preserve">
<style type="text/css">
	.st0{fill:#F24044;}
	.st1{opacity:0.2;}
	.st2{fill:#FFFFFF;}
</style>
<g>
	<path class="st0" d="M269.2,276.7h-40c-2.8,0-5-2.2-5-5v-33.9c0-2.8,2.2-5,5-5h40c2.8,0,5,2.2,5,5v33.9
		C274.2,274.5,272,276.7,269.2,276.7z"/>
	<g class="st1">
		<g>
			<circle cx="230.8" cy="236" r="1.7"/>
			<circle cx="243.1" cy="236" r="1.7"/>
			<circle cx="255.3" cy="236" r="1.7"/>
			<circle cx="267.6" cy="236" r="1.7"/>
		</g>
		<g>
			<circle cx="230.8" cy="273.6" r="1.7"/>
			<circle cx="243.1" cy="273.6" r="1.7"/>
			<circle cx="255.3" cy="273.6" r="1.7"/>
			<circle cx="267.6" cy="273.6" r="1.7"/>
		</g>
		<rect x="225.6" y="238.7" width="48" height="0.5"/>
		<rect x="225.6" y="270.4" width="48" height="0.5"/>
		<path d="M268,269.1h-37c-2,0-3.7-1.7-3.7-3.7v-20.9c0-2,1.7-3.7,3.7-3.7h37c2,0,3.7,1.7,3.7,3.7v20.9
			C271.7,267.4,270,269.1,268,269.1z"/>
	</g>
</g>
<g>
	<path class="st2" d="M249,262.2c0,0.8-0.4,1.1-1.3,1.1h-8.2c-0.4,0-0.7-0.1-0.9-0.3c-0.2-0.2-0.3-0.5-0.3-0.8
		c0-0.4,0.2-0.8,0.5-1.2l4.9-5.3c0.6-0.7,1-1.3,1.3-1.8c0.3-0.6,0.4-1.1,0.4-1.7c0-0.7-0.2-1.2-0.6-1.6c-0.4-0.4-0.9-0.5-1.7-0.5
		c-0.6,0-1.2,0.1-1.7,0.3c-0.6,0.2-1.1,0.5-1.7,0.9c-0.1,0.1-0.3,0.2-0.4,0.2c-0.1,0.1-0.3,0.1-0.4,0.1c-0.2,0-0.5-0.1-0.6-0.3
		c-0.2-0.2-0.3-0.5-0.3-0.8c0-0.2,0-0.4,0.1-0.6c0.1-0.2,0.2-0.3,0.4-0.5c0.6-0.5,1.4-0.9,2.2-1.2c0.9-0.3,1.7-0.4,2.6-0.4
		c1.5,0,2.7,0.4,3.6,1.1c0.9,0.7,1.3,1.8,1.3,3c0,0.9-0.2,1.7-0.6,2.5c-0.4,0.8-1,1.6-1.9,2.6l-3.7,4h5.7
		C248.6,261.1,249,261.5,249,262.2z"/>
	<path class="st2" d="M259.7,254.2c0.7,0.4,1.3,1,1.7,1.7c0.4,0.7,0.6,1.6,0.6,2.5c0,1-0.2,1.9-0.7,2.6c-0.5,0.8-1.1,1.4-1.9,1.8
		s-1.8,0.6-2.9,0.6c-0.9,0-1.8-0.1-2.6-0.4c-0.9-0.3-1.6-0.7-2.2-1.2c-0.3-0.3-0.5-0.6-0.5-1c0-0.3,0.1-0.6,0.3-0.8
		c0.2-0.2,0.4-0.3,0.6-0.3c0.1,0,0.3,0,0.4,0.1s0.3,0.1,0.5,0.2c0.6,0.4,1.1,0.7,1.7,0.9c0.5,0.2,1.1,0.3,1.8,0.3
		c1,0,1.7-0.2,2.2-0.7s0.8-1.2,0.8-2c0-0.9-0.3-1.5-0.8-2s-1.2-0.7-2.1-0.7c-0.6,0-1.1,0.1-1.5,0.2c-0.4,0.2-0.9,0.4-1.4,0.8
		c-0.3,0.2-0.6,0.3-0.8,0.3c-0.3,0-0.5-0.1-0.7-0.3c-0.2-0.2-0.3-0.4-0.3-0.7v-6.7c0-0.4,0.1-0.7,0.3-1s0.6-0.3,1-0.3h7.2
		c0.9,0,1.3,0.4,1.3,1.1s-0.4,1.1-1.3,1.1h-5.8v4.1c0.7-0.5,1.6-0.8,2.7-0.8C258.2,253.6,259,253.8,259.7,254.2z"/>
</g>
</svg>
