<?xml version="1.0" encoding="utf-8"?>
<!-- Generator: Adobe Illustrator 22.1.0, SVG Export Plug-In . SVG Version: 6.00 Build 0)  -->
<svg version="1.1" id="Layer_1" xmlns="http://www.w3.org/2000/svg" xmlns:xlink="http://www.w3.org/1999/xlink" x="0px" y="0px"
	 viewBox="0 0 400 142.4" style="enable-background:new 0 0 400 142.4;" xml:space="preserve">
<style type="text/css">
	.st0{fill:none;stroke:#FFFFFF;stroke-width:4.0966;stroke-linecap:round;stroke-linejoin:round;}
	.st1{fill:#FFFFFF;}
	.st2{fill:#FF5A00;}
	.st3{fill:#445672;}
	.st4{opacity:0.1;}
	.st5{fill:#00CDC8;}
	.st6{fill:#F24044;}
	.st7{fill:#A5D73C;}
	.st8{fill:#647CA0;}
	.st9{fill:#859BB8;}
</style>
<g>
	<g>
		<g>
			<path class="st0" d="M282.6,63.9c4-5.3,54.1-16.7,69.5,7.3"/>
			<g>
				<path class="st1" d="M351.4,66.5c2.6-0.3,4.9,1.5,5.2,4c0.3,2.6-1.5,4.9-4,5.2c-2.6,0.3-4.9-1.5-5.2-4
					C347.1,69.1,348.9,66.8,351.4,66.5z"/>
			</g>
			<g>
				<path class="st1" d="M289.1,67.8c-3.7-1.4-7.7-2.4-11.6-1.8c2.4-3.1,3.5-7.1,4-11c1.2,1.9,2.1,5.4,1.6,7.7
					C285.7,63.4,287.7,65.7,289.1,67.8z"/>
			</g>
		</g>
	</g>
</g>
<circle class="st2" cx="319.4" cy="26.1" r="24.6"/>
<g>
	<path class="st1" d="M313.1,27.6c0.4,0.4,0.5,0.7,0.5,1.2c0,0.5-0.1,0.9-0.5,1.2c-0.4,0.4-0.7,0.5-1.2,0.5h-6.1h-3.3h-2.1
		c-0.5,0-0.9-0.1-1.2-0.5c-0.4-0.4-0.5-0.7-0.5-1.2c0-0.5,0.1-0.9,0.5-1.2c0.4-0.4,0.7-0.5,1.2-0.5h2.1l3.3,0h6.1
		C312.4,27.1,312.9,27.2,313.1,27.6z"/>
	<path class="st1" d="M331.7,28.2c0.8,1.2,1.3,2.6,1.3,4.4c0,2.4-0.8,4.2-2.6,5.7c-1.8,1.4-4.1,2.1-7.1,2.1c-1.6,0-3.3-0.2-4.9-0.8
		c-1.5-0.5-2.9-1.3-4-2.2c-0.6-0.5-0.9-1.2-0.9-1.9c0-0.6,0.1-1.1,0.5-1.4c0.4-0.4,0.7-0.6,1.2-0.6c0.2,0,0.5,0,0.7,0.1
		c0.2,0.1,0.5,0.2,0.8,0.5c1.1,0.7,2.1,1.3,3.2,1.6c0.9,0.4,2.1,0.6,3.3,0.6c1.8,0,2.9-0.4,3.9-1.1c0.8-0.7,1.3-1.8,1.3-3.2
		c0-1.4-0.5-2.4-1.3-3.1s-2.2-0.9-4-0.9h-2.2c-0.6,0-1.1-0.2-1.4-0.6c-0.4-0.4-0.5-0.8-0.5-1.4c0-0.6,0.1-1.1,0.5-1.4
		c0.4-0.4,0.8-0.6,1.4-0.6h1.5c3.5,0,5.4-1.3,5.4-4c0-1.3-0.4-2.2-1.2-2.9c-0.7-0.7-1.8-1.1-3.2-1.1c-1.9,0-3.9,0.7-6.1,2.2
		c-0.4,0.2-0.7,0.4-0.8,0.5c-0.2,0.1-0.5,0.1-0.7,0.1c-0.5,0-0.8-0.2-1.2-0.6c-0.4-0.4-0.5-0.9-0.5-1.4c0-0.4,0.1-0.7,0.2-0.9
		c0.1-0.2,0.4-0.6,0.7-0.8c1.1-0.9,2.4-1.6,3.9-2.1c1.5-0.6,3.1-0.8,4.7-0.8c2.7,0,4.8,0.7,6.5,2c1.6,1.3,2.4,3.1,2.4,5.3
		c0,1.5-0.5,2.8-1.2,4c-0.8,1.2-1.9,2-3.2,2.5C329.5,26.3,330.8,27,331.7,28.2z"/>
</g>
<g>
	<path class="st1" d="M26.2,137.6c-4.6,0-8.3-3.7-8.3-8.3v-3.2c0-4.3,3.3-7.9,7.5-8.2V85.8c0-1.4,1.1-2.5,2.5-2.5h204.3V68.4
		c0-1.4,1.1-2.5,2.5-2.5h34.8c1.4,0,2.5,1.1,2.5,2.5v14.9H373c1.4,0,2.5,1.1,2.5,2.5v32c4.4,0.1,8,3.8,8,8.3v3.2
		c0,4.6-3.7,8.3-8.3,8.3H26.2z M266.8,117.9v-12.1h-9v12.1H266.8z M246.1,117.9v-12.1h-8.5v12.1H246.1z"/>
	<path class="st1" d="M269.6,68.4v17.4h34.2h0.3h34.2h0.3H373v34.5h2.2c3.2,0,5.8,2.6,5.8,5.8v3.2c0,3.2-2.6,5.8-5.8,5.8h-349
		c-3.2,0-5.8-2.6-5.8-5.8v-3.2c0-3.2,2.6-5.8,5.8-5.8H28V85.8h34.5h0.3h34.2h0.3h34.2h0.3h34.2h0.3h34.2h0.3h34.2V68.4H269.6
		 M255.2,120.4h14v-17.1h-14V120.4 M235.1,120.4h13.5v-17.1h-13.5V120.4 M269.6,63.4h-34.8c-2.8,0-5,2.2-5,5v12.4h-29.2h-0.3h-34.2
		h-0.3h-34.2h-0.3H97.2h-0.3H62.8h-0.3H28c-2.8,0-5,2.2-5,5v30c-4.4,1.4-7.5,5.5-7.5,10.3v3.2c0,5.9,4.8,10.8,10.8,10.8h349
		c5.9,0,10.8-4.8,10.8-10.8v-3.2c0-5-3.4-9.2-8-10.4V85.8c0-2.8-2.2-5-5-5h-34.5h-0.3H304h-0.3h-29.2V68.4
		C274.6,65.7,272.3,63.4,269.6,63.4L269.6,63.4z M260.2,108.2h4v7.1h-4V108.2L260.2,108.2z M240.1,108.2h3.5v7.1h-3.5V108.2
		L240.1,108.2z"/>
</g>
<g>
	<g>
		<path class="st1" d="M256.8,83.4c0.2,0.2,0.3,0.5,0.3,0.8s-0.1,0.7-0.3,1.1l-7.2,13c-0.3,0.5-0.7,0.8-1.2,0.8
			c-0.4,0-0.7-0.1-1-0.4c-0.3-0.2-0.4-0.6-0.4-0.9s0.1-0.5,0.2-0.8l6.4-11.6h-6.8c-0.9,0-1.3-0.4-1.3-1.1c0-0.8,0.4-1.2,1.3-1.2h9
			C256.3,83.1,256.6,83.2,256.8,83.4z"/>
	</g>
</g>
<g>
	<rect x="248.6" y="100" class="st3" width="6.7" height="21.6"/>
	<g class="st4">
		<polygon points="99.2,88.1 65,88.1 64.7,88.1 30.3,88.1 30.3,122.9 64.7,122.9 65,122.9 99.2,122.9 99.5,122.9 134,122.9 
			134,88.1 99.5,88.1 		"/>
	</g>
	<rect x="28" y="85.8" class="st5" width="34.8" height="34.8"/>
	<g>
		<g>
			<path class="st1" d="M44.5,110.9c0,0.8-0.4,1.2-1.3,1.2h-7.5c-0.9,0-1.4-0.4-1.4-1.2c0-0.8,0.5-1.1,1.4-1.1H38V99.6l-2.1,1.3
				c-0.2,0.1-0.4,0.2-0.6,0.2c-0.3,0-0.6-0.1-0.8-0.4c-0.2-0.3-0.3-0.6-0.3-0.9c0-0.4,0.2-0.8,0.6-1l3.5-2.1
				c0.4-0.3,0.9-0.4,1.3-0.4c0.4,0,0.7,0.1,1,0.4c0.3,0.3,0.4,0.6,0.4,1v12.1h2.3C44.1,109.8,44.5,110.2,44.5,110.9z"/>
			<path class="st1" d="M57.9,110.9c0,0.8-0.4,1.2-1.3,1.2H49c-0.9,0-1.4-0.4-1.4-1.2c0-0.8,0.5-1.1,1.4-1.1h2.3V99.6l-2.1,1.3
				c-0.2,0.1-0.4,0.2-0.6,0.2c-0.3,0-0.6-0.1-0.8-0.4c-0.2-0.3-0.3-0.6-0.3-0.9c0-0.4,0.2-0.8,0.6-1l3.5-2.1
				c0.4-0.3,0.9-0.4,1.3-0.4c0.4,0,0.7,0.1,1,0.4c0.3,0.3,0.4,0.6,0.4,1v12.1h2.3C57.4,109.8,57.9,110.2,57.9,110.9z"/>
		</g>
	</g>
	<rect x="62.5" y="85.8" class="st6" width="34.8" height="34.8"/>
	<rect x="96.9" y="85.8" class="st2" width="34.8" height="34.8"/>
	<rect x="165.9" y="85.8" class="st5" width="34.8" height="34.8"/>
	<rect x="200.3" y="85.8" class="st6" width="34.8" height="34.8"/>
	<rect x="269.3" y="85.8" class="st7" width="34.8" height="34.8"/>
	<rect x="303.7" y="85.8" class="st5" width="34.8" height="34.8"/>
	<rect x="338.2" y="85.8" class="st6" width="34.8" height="34.8"/>
	<g>
		<g>
			<path class="st1" d="M355.2,110.9c0,0.8-0.4,1.2-1.3,1.2h-8.5c-0.4,0-0.7-0.1-0.9-0.3c-0.2-0.2-0.3-0.5-0.3-0.9
				c0-0.4,0.2-0.8,0.5-1.2l5.1-5.5c0.6-0.7,1.1-1.3,1.4-1.9c0.3-0.6,0.4-1.1,0.4-1.7c0-0.7-0.2-1.2-0.6-1.6c-0.4-0.4-1-0.6-1.7-0.6
				c-0.6,0-1.2,0.1-1.8,0.3c-0.6,0.2-1.1,0.5-1.7,0.9c-0.1,0.1-0.3,0.2-0.4,0.3c-0.1,0.1-0.3,0.1-0.4,0.1c-0.3,0-0.5-0.1-0.7-0.4
				s-0.3-0.5-0.3-0.8c0-0.2,0-0.4,0.1-0.6c0.1-0.2,0.2-0.3,0.4-0.5c0.7-0.5,1.4-0.9,2.3-1.2c0.9-0.3,1.8-0.5,2.6-0.5
				c1.5,0,2.7,0.4,3.7,1.2c0.9,0.8,1.4,1.8,1.4,3.1c0,0.9-0.2,1.8-0.6,2.5s-1,1.7-2,2.7l-3.9,4.1h5.9
				C354.8,109.8,355.2,110.2,355.2,110.9z"/>
			<path class="st1" d="M357.5,110.2c-1-1.4-1.5-3.4-1.5-6c0-2.6,0.5-4.6,1.5-6c1-1.4,2.4-2.1,4.3-2.1c1.9,0,3.3,0.7,4.3,2.1
				c1,1.4,1.5,3.4,1.5,6s-0.5,4.6-1.5,6c-1,1.4-2.4,2.1-4.3,2.1C359.9,112.3,358.5,111.6,357.5,110.2z M363.9,108.7
				c0.5-0.9,0.7-2.4,0.7-4.4c0-2-0.2-3.5-0.7-4.4c-0.5-0.9-1.2-1.4-2.2-1.4s-1.7,0.5-2.2,1.4c-0.5,0.9-0.7,2.4-0.7,4.4
				s0.2,3.5,0.7,4.4c0.5,0.9,1.2,1.4,2.2,1.4S363.5,109.6,363.9,108.7z"/>
		</g>
	</g>
	<rect x="131.4" y="85.8" class="st7" width="34.8" height="34.8"/>
	<g>
		<g>
			<path class="st1" d="M147.9,110.9c0,0.8-0.4,1.2-1.3,1.2h-7.5c-0.9,0-1.4-0.4-1.4-1.2c0-0.8,0.5-1.1,1.4-1.1h2.3V99.6l-2.1,1.3
				c-0.2,0.1-0.4,0.2-0.6,0.2c-0.3,0-0.6-0.1-0.8-0.4c-0.2-0.3-0.3-0.6-0.3-0.9c0-0.4,0.2-0.8,0.6-1l3.5-2.1
				c0.4-0.3,0.9-0.4,1.3-0.4c0.4,0,0.7,0.1,1,0.4c0.3,0.3,0.4,0.6,0.4,1v12.1h2.3C147.5,109.8,147.9,110.2,147.9,110.9z"/>
			<path class="st1" d="M161.5,107.1c0.2,0.2,0.3,0.5,0.3,0.8c0,0.7-0.4,1.1-1.3,1.1h-1.1v1.8c0,0.5-0.1,0.8-0.4,1.1
				c-0.3,0.3-0.6,0.4-1,0.4s-0.8-0.1-1-0.4s-0.4-0.6-0.4-1.1V109h-5.8c-0.4,0-0.7-0.1-0.9-0.3c-0.2-0.2-0.3-0.5-0.3-0.9
				c0-0.4,0.1-0.7,0.4-1l6.9-9.9c0.1-0.2,0.3-0.4,0.6-0.5s0.5-0.2,0.7-0.2c0.4,0,0.7,0.1,1,0.4c0.3,0.3,0.4,0.6,0.4,1.1v9.1h1.1
				C160.9,106.8,161.2,106.9,161.5,107.1z M152.4,106.8h4.1v-6L152.4,106.8z"/>
		</g>
	</g>
	<rect x="234.8" y="68.4" class="st2" width="34.8" height="34.8"/>
	<path class="st8" d="M375.2,135.1h-349c-3.2,0-5.8-2.6-5.8-5.8v-3.2c0-3.2,2.6-5.8,5.8-5.8h349c3.2,0,5.8,2.6,5.8,5.8v3.2
		C381,132.5,378.4,135.1,375.2,135.1z"/>
	<g>
		<circle class="st9" cx="373.6" cy="127.7" r="4.9"/>
		<circle class="st9" cx="360.8" cy="127.7" r="4.9"/>
		<circle class="st9" cx="348" cy="127.7" r="4.9"/>
		<circle class="st9" cx="335.2" cy="127.7" r="4.9"/>
		<circle class="st9" cx="322.4" cy="127.7" r="4.9"/>
		<circle class="st9" cx="309.6" cy="127.7" r="4.9"/>
		<circle class="st9" cx="296.8" cy="127.7" r="4.9"/>
		<circle class="st9" cx="284" cy="127.7" r="4.9"/>
		<circle class="st9" cx="271.2" cy="127.7" r="4.9"/>
		<circle class="st9" cx="258.4" cy="127.7" r="4.9"/>
		<circle class="st9" cx="245.6" cy="127.7" r="4.9"/>
		<circle class="st9" cx="232.7" cy="127.7" r="4.9"/>
		<circle class="st9" cx="219.9" cy="127.7" r="4.9"/>
		<circle class="st9" cx="207.1" cy="127.7" r="4.9"/>
		<circle class="st9" cx="194.3" cy="127.7" r="4.9"/>
		<circle class="st9" cx="181.5" cy="127.7" r="4.9"/>
		<circle class="st9" cx="168.7" cy="127.7" r="4.9"/>
		<circle class="st9" cx="155.9" cy="127.7" r="4.9"/>
		<circle class="st9" cx="143.1" cy="127.7" r="4.9"/>
		<circle class="st9" cx="130.3" cy="127.7" r="4.9"/>
		<circle class="st9" cx="117.5" cy="127.7" r="4.9"/>
		<circle class="st9" cx="104.7" cy="127.7" r="4.9"/>
		<circle class="st9" cx="91.9" cy="127.7" r="4.9"/>
		<circle class="st9" cx="79.1" cy="127.7" r="4.9"/>
		<circle class="st9" cx="66.3" cy="127.7" r="4.9"/>
		<circle class="st9" cx="53.5" cy="127.7" r="4.9"/>
		<circle class="st9" cx="40.6" cy="127.7" r="4.9"/>
		<circle class="st9" cx="27.8" cy="127.7" r="4.9"/>
	</g>
</g>
</svg>
