<?xml version="1.0" encoding="utf-8"?>
<!-- Generator: Adobe Illustrator 22.1.0, SVG Export Plug-In . SVG Version: 6.00 Build 0)  -->
<svg version="1.1" id="Layer_1" xmlns="http://www.w3.org/2000/svg" xmlns:xlink="http://www.w3.org/1999/xlink" x="0px" y="0px"
	 viewBox="0 0 400 142.4" style="enable-background:new 0 0 400 142.4;" xml:space="preserve">
<style type="text/css">
	.st0{opacity:0.1;}
	.st1{fill:#FFFFFF;}
	.st2{fill:#F24044;}
	.st3{fill:none;stroke:#FFFFFF;stroke-width:4.0966;stroke-linecap:round;stroke-linejoin:round;}
	.st4{fill:#00CDC8;}
	.st5{fill:#FF5A00;}
	.st6{fill:#A5D73C;}
	.st7{fill:#647CA0;}
	.st8{fill:#859BB8;}
</style>
<g>
	<g class="st0">
		<g>
			<path class="st1" d="M30.3,124.9c-1.1,0-2-0.9-2-2V88.1c0-1.1,0.9-2,2-2H134c1.1,0,2,0.9,2,2v34.8c0,1.1-0.9,2-2,2H30.3z"/>
			<path class="st1" d="M134,88.1v34.8H99.5h-0.3H65h-0.3H30.3V88.1h34.5H65h34.2h0.3H134 M134,84.1H99.5h-0.3H65h-0.3H30.3
				c-2.2,0-4,1.8-4,4v34.8c0,2.2,1.8,4,4,4h34.5H65h34.2h0.3H134c2.2,0,4-1.8,4-4V88.1C138,85.9,136.2,84.1,134,84.1L134,84.1z"/>
		</g>
	</g>
	<g>
		<path class="st1" d="M28,122.6c-1.1,0-2-0.9-2-2V85.8c0-1.1,0.9-2,2-2h34.8c1.1,0,2,0.9,2,2v34.8c0,1.1-0.9,2-2,2H28z"/>
		<path class="st1" d="M62.8,85.8v34.8H28V85.8H62.8 M62.8,81.8H28c-2.2,0-4,1.8-4,4v34.8c0,2.2,1.8,4,4,4h34.8c2.2,0,4-1.8,4-4
			V85.8C66.8,83.6,65,81.8,62.8,81.8L62.8,81.8z"/>
	</g>
	<g>
		<path class="st1" d="M62.5,122.6c-1.1,0-2-0.9-2-2V85.8c0-1.1,0.9-2,2-2h34.8c1.1,0,2,0.9,2,2v34.8c0,1.1-0.9,2-2,2H62.5z"/>
		<path class="st1" d="M97.2,85.8v34.8H62.5V85.8H97.2 M97.2,81.8H62.5c-2.2,0-4,1.8-4,4v34.8c0,2.2,1.8,4,4,4h34.8c2.2,0,4-1.8,4-4
			V85.8C101.2,83.6,99.4,81.8,97.2,81.8L97.2,81.8z"/>
	</g>
	<g>
		<path class="st1" d="M96.9,112.6c-1.1,0-2-0.9-2-2V75.8c0-1.1,0.9-2,2-2h34.8c1.1,0,2,0.9,2,2v34.8c0,1.1-0.9,2-2,2H96.9z"/>
		<path class="st1" d="M131.7,75.8v34.8H96.9V75.8H131.7 M131.7,71.8H96.9c-2.2,0-4,1.8-4,4v34.8c0,2.2,1.8,4,4,4h34.8
			c2.2,0,4-1.8,4-4V75.8C135.7,73.6,133.9,71.8,131.7,71.8L131.7,71.8z"/>
	</g>
	<g>
		<path class="st1" d="M165.9,122.6c-1.1,0-2-0.9-2-2V85.8c0-1.1,0.9-2,2-2h34.8c1.1,0,2,0.9,2,2v34.8c0,1.1-0.9,2-2,2H165.9z"/>
		<path class="st1" d="M200.6,85.8v34.8h-34.8V85.8H200.6 M200.6,81.8h-34.8c-2.2,0-4,1.8-4,4v34.8c0,2.2,1.8,4,4,4h34.8
			c2.2,0,4-1.8,4-4V85.8C204.6,83.6,202.8,81.8,200.6,81.8L200.6,81.8z"/>
	</g>
	<g>
		<path class="st1" d="M200.3,122.6c-1.1,0-2-0.9-2-2V85.8c0-1.1,0.9-2,2-2h34.8c1.1,0,2,0.9,2,2v34.8c0,1.1-0.9,2-2,2H200.3z"/>
		<path class="st1" d="M235.1,85.8v34.8h-34.8V85.8H235.1 M235.1,81.8h-34.8c-2.2,0-4,1.8-4,4v34.8c0,2.2,1.8,4,4,4h34.8
			c2.2,0,4-1.8,4-4V85.8C239.1,83.6,237.3,81.8,235.1,81.8L235.1,81.8z"/>
	</g>
	<g>
		<path class="st1" d="M269.3,122.6c-1.1,0-2-0.9-2-2V85.8c0-1.1,0.9-2,2-2H304c1.1,0,2,0.9,2,2v34.8c0,1.1-0.9,2-2,2H269.3z"/>
		<path class="st1" d="M304,85.8v34.8h-34.8V85.8H304 M304,81.8h-34.8c-2.2,0-4,1.8-4,4v34.8c0,2.2,1.8,4,4,4H304c2.2,0,4-1.8,4-4
			V85.8C308,83.6,306.3,81.8,304,81.8L304,81.8z"/>
	</g>
	<g>
		<path class="st1" d="M303.7,112.6c-1.1,0-2-0.9-2-2V75.8c0-1.1,0.9-2,2-2h34.8c1.1,0,2,0.9,2,2v34.8c0,1.1-0.9,2-2,2H303.7z"/>
		<path class="st1" d="M338.5,75.8v34.8h-34.8V75.8H338.5 M338.5,71.8h-34.8c-2.2,0-4,1.8-4,4v34.8c0,2.2,1.8,4,4,4h34.8
			c2.2,0,4-1.8,4-4V75.8C342.5,73.6,340.7,71.8,338.5,71.8L338.5,71.8z"/>
	</g>
	<g>
		<path class="st1" d="M338.2,122.6c-1.1,0-2-0.9-2-2V85.8c0-1.1,0.9-2,2-2H373c1.1,0,2,0.9,2,2v34.8c0,1.1-0.9,2-2,2H338.2z"/>
		<path class="st1" d="M373,85.8v34.8h-34.8V85.8H373 M373,81.8h-34.8c-2.2,0-4,1.8-4,4v34.8c0,2.2,1.8,4,4,4H373c2.2,0,4-1.8,4-4
			V85.8C377,83.6,375.2,81.8,373,81.8L373,81.8z"/>
	</g>
	<g>
		<path class="st1" d="M131.4,122.6c-1.1,0-2-0.9-2-2V85.8c0-1.1,0.9-2,2-2h34.8c1.1,0,2,0.9,2,2v34.8c0,1.1-0.9,2-2,2H131.4z"/>
		<path class="st1" d="M166.2,85.8v34.8h-34.8V85.8H166.2 M166.2,81.8h-34.8c-2.2,0-4,1.8-4,4v34.8c0,2.2,1.8,4,4,4h34.8
			c2.2,0,4-1.8,4-4V85.8C170.2,83.6,168.4,81.8,166.2,81.8L166.2,81.8z"/>
	</g>
	<g>
		<path class="st1" d="M234.8,122.6c-1.1,0-2-0.9-2-2V85.8c0-1.1,0.9-2,2-2h34.8c1.1,0,2,0.9,2,2v34.8c0,1.1-0.9,2-2,2H234.8z"/>
		<path class="st1" d="M269.6,85.8v34.8h-34.8V85.8H269.6 M269.6,81.8h-34.8c-2.2,0-4,1.8-4,4v34.8c0,2.2,1.8,4,4,4h34.8
			c2.2,0,4-1.8,4-4V85.8C273.6,83.6,271.8,81.8,269.6,81.8L269.6,81.8z"/>
	</g>
	<g>
		<path class="st1" d="M26.2,137.1c-4.3,0-7.8-3.5-7.8-7.8v-3.2c0-4.3,3.5-7.8,7.8-7.8h349c4.3,0,7.8,3.5,7.8,7.8v3.2
			c0,4.3-3.5,7.8-7.8,7.8H26.2z"/>
		<path class="st1" d="M375.2,120.4c3.2,0,5.8,2.6,5.8,5.8v3.2c0,3.2-2.6,5.8-5.8,5.8h-349c-3.2,0-5.8-2.6-5.8-5.8v-3.2
			c0-3.2,2.6-5.8,5.8-5.8H375.2 M375.2,116.4h-349c-5.4,0-9.8,4.4-9.8,9.8v3.2c0,5.4,4.4,9.8,9.8,9.8h349c5.4,0,9.8-4.4,9.8-9.8
			v-3.2C385,120.7,380.6,116.4,375.2,116.4L375.2,116.4z"/>
	</g>
	<g>
		<g>
			<path class="st1" d="M373.6,134.6c-3.8,0-6.9-3.1-6.9-6.9c0-3.8,3.1-6.9,6.9-6.9c3.8,0,6.9,3.1,6.9,6.9
				C380.5,131.5,377.4,134.6,373.6,134.6z"/>
			<path class="st1" d="M373.6,122.8c2.7,0,4.9,2.2,4.9,4.9s-2.2,4.9-4.9,4.9c-2.7,0-4.9-2.2-4.9-4.9S370.9,122.8,373.6,122.8
				 M373.6,118.8c-4.9,0-8.9,4-8.9,8.9c0,4.9,4,8.9,8.9,8.9c4.9,0,8.9-4,8.9-8.9C382.5,122.8,378.5,118.8,373.6,118.8L373.6,118.8z"
				/>
		</g>
		<g>
			<path class="st1" d="M360.8,134.6c-3.8,0-6.9-3.1-6.9-6.9c0-3.8,3.1-6.9,6.9-6.9c3.8,0,6.9,3.1,6.9,6.9
				C367.7,131.5,364.6,134.6,360.8,134.6z"/>
			<path class="st1" d="M360.8,122.8c2.7,0,4.9,2.2,4.9,4.9s-2.2,4.9-4.9,4.9s-4.9-2.2-4.9-4.9S358.1,122.8,360.8,122.8
				 M360.8,118.8c-4.9,0-8.9,4-8.9,8.9c0,4.9,4,8.9,8.9,8.9s8.9-4,8.9-8.9C369.7,122.8,365.7,118.8,360.8,118.8L360.8,118.8z"/>
		</g>
		<g>
			<path class="st1" d="M348,134.6c-3.8,0-6.9-3.1-6.9-6.9c0-3.8,3.1-6.9,6.9-6.9c3.8,0,6.9,3.1,6.9,6.9
				C354.9,131.5,351.8,134.6,348,134.6z"/>
			<path class="st1" d="M348,122.8c2.7,0,4.9,2.2,4.9,4.9s-2.2,4.9-4.9,4.9c-2.7,0-4.9-2.2-4.9-4.9S345.3,122.8,348,122.8
				 M348,118.8c-4.9,0-8.9,4-8.9,8.9c0,4.9,4,8.9,8.9,8.9c4.9,0,8.9-4,8.9-8.9C356.9,122.8,352.9,118.8,348,118.8L348,118.8z"/>
		</g>
		<g>
			<path class="st1" d="M335.2,134.6c-3.8,0-6.9-3.1-6.9-6.9c0-3.8,3.1-6.9,6.9-6.9c3.8,0,6.9,3.1,6.9,6.9
				C342.1,131.5,339,134.6,335.2,134.6z"/>
			<path class="st1" d="M335.2,122.8c2.7,0,4.9,2.2,4.9,4.9s-2.2,4.9-4.9,4.9s-4.9-2.2-4.9-4.9S332.5,122.8,335.2,122.8
				 M335.2,118.8c-4.9,0-8.9,4-8.9,8.9c0,4.9,4,8.9,8.9,8.9s8.9-4,8.9-8.9C344.1,122.8,340.1,118.8,335.2,118.8L335.2,118.8z"/>
		</g>
		<g>
			<path class="st1" d="M322.4,134.6c-3.8,0-6.9-3.1-6.9-6.9c0-3.8,3.1-6.9,6.9-6.9c3.8,0,6.9,3.1,6.9,6.9
				C329.3,131.5,326.2,134.6,322.4,134.6z"/>
			<path class="st1" d="M322.4,122.8c2.7,0,4.9,2.2,4.9,4.9s-2.2,4.9-4.9,4.9c-2.7,0-4.9-2.2-4.9-4.9S319.7,122.8,322.4,122.8
				 M322.4,118.8c-4.9,0-8.9,4-8.9,8.9c0,4.9,4,8.9,8.9,8.9s8.9-4,8.9-8.9C331.3,122.8,327.3,118.8,322.4,118.8L322.4,118.8z"/>
		</g>
		<g>
			<path class="st1" d="M309.6,134.6c-3.8,0-6.9-3.1-6.9-6.9c0-3.8,3.1-6.9,6.9-6.9c3.8,0,6.9,3.1,6.9,6.9
				C316.5,131.5,313.4,134.6,309.6,134.6z"/>
			<path class="st1" d="M309.6,122.8c2.7,0,4.9,2.2,4.9,4.9s-2.2,4.9-4.9,4.9c-2.7,0-4.9-2.2-4.9-4.9S306.9,122.8,309.6,122.8
				 M309.6,118.8c-4.9,0-8.9,4-8.9,8.9c0,4.9,4,8.9,8.9,8.9s8.9-4,8.9-8.9C318.5,122.8,314.5,118.8,309.6,118.8L309.6,118.8z"/>
		</g>
		<g>
			<path class="st1" d="M296.8,134.6c-3.8,0-6.9-3.1-6.9-6.9c0-3.8,3.1-6.9,6.9-6.9c3.8,0,6.9,3.1,6.9,6.9
				C303.7,131.5,300.6,134.6,296.8,134.6z"/>
			<path class="st1" d="M296.8,122.8c2.7,0,4.9,2.2,4.9,4.9s-2.2,4.9-4.9,4.9c-2.7,0-4.9-2.2-4.9-4.9S294.1,122.8,296.8,122.8
				 M296.8,118.8c-4.9,0-8.9,4-8.9,8.9c0,4.9,4,8.9,8.9,8.9s8.9-4,8.9-8.9C305.7,122.8,301.7,118.8,296.8,118.8L296.8,118.8z"/>
		</g>
		<g>
			<path class="st1" d="M284,134.6c-3.8,0-6.9-3.1-6.9-6.9c0-3.8,3.1-6.9,6.9-6.9c3.8,0,6.9,3.1,6.9,6.9
				C290.9,131.5,287.8,134.6,284,134.6z"/>
			<path class="st1" d="M284,122.8c2.7,0,4.9,2.2,4.9,4.9s-2.2,4.9-4.9,4.9c-2.7,0-4.9-2.2-4.9-4.9S281.3,122.8,284,122.8
				 M284,118.8c-4.9,0-8.9,4-8.9,8.9c0,4.9,4,8.9,8.9,8.9s8.9-4,8.9-8.9C292.9,122.8,288.9,118.8,284,118.8L284,118.8z"/>
		</g>
		<g>
			<path class="st1" d="M271.2,134.6c-3.8,0-6.9-3.1-6.9-6.9c0-3.8,3.1-6.9,6.9-6.9c3.8,0,6.9,3.1,6.9,6.9
				C278,131.5,275,134.6,271.2,134.6z"/>
			<path class="st1" d="M271.2,122.8c2.7,0,4.9,2.2,4.9,4.9s-2.2,4.9-4.9,4.9c-2.7,0-4.9-2.2-4.9-4.9S268.5,122.8,271.2,122.8
				 M271.2,118.8c-4.9,0-8.9,4-8.9,8.9c0,4.9,4,8.9,8.9,8.9s8.9-4,8.9-8.9C280,122.8,276.1,118.8,271.2,118.8L271.2,118.8z"/>
		</g>
		<g>
			<path class="st1" d="M258.4,134.6c-3.8,0-6.9-3.1-6.9-6.9c0-3.8,3.1-6.9,6.9-6.9c3.8,0,6.9,3.1,6.9,6.9
				C265.2,131.5,262.2,134.6,258.4,134.6z"/>
			<path class="st1" d="M258.4,122.8c2.7,0,4.9,2.2,4.9,4.9s-2.2,4.9-4.9,4.9c-2.7,0-4.9-2.2-4.9-4.9S255.7,122.8,258.4,122.8
				 M258.4,118.8c-4.9,0-8.9,4-8.9,8.9c0,4.9,4,8.9,8.9,8.9c4.9,0,8.9-4,8.9-8.9C267.2,122.8,263.3,118.8,258.4,118.8L258.4,118.8z"
				/>
		</g>
		<g>
			<path class="st1" d="M245.5,134.6c-3.8,0-6.9-3.1-6.9-6.9c0-3.8,3.1-6.9,6.9-6.9c3.8,0,6.9,3.1,6.9,6.9
				C252.4,131.5,249.3,134.6,245.5,134.6z"/>
			<path class="st1" d="M245.6,122.8c2.7,0,4.9,2.2,4.9,4.9s-2.2,4.9-4.9,4.9c-2.7,0-4.9-2.2-4.9-4.9S242.9,122.8,245.6,122.8
				 M245.6,118.8c-4.9,0-8.9,4-8.9,8.9c0,4.9,4,8.9,8.9,8.9c4.9,0,8.9-4,8.9-8.9C254.4,122.8,250.4,118.8,245.6,118.8L245.6,118.8z"
				/>
		</g>
		<g>
			<path class="st1" d="M232.7,134.6c-3.8,0-6.9-3.1-6.9-6.9c0-3.8,3.1-6.9,6.9-6.9c3.8,0,6.9,3.1,6.9,6.9
				C239.6,131.5,236.5,134.6,232.7,134.6z"/>
			<path class="st1" d="M232.7,122.8c2.7,0,4.9,2.2,4.9,4.9s-2.2,4.9-4.9,4.9s-4.9-2.2-4.9-4.9S230,122.8,232.7,122.8 M232.7,118.8
				c-4.9,0-8.9,4-8.9,8.9c0,4.9,4,8.9,8.9,8.9c4.9,0,8.9-4,8.9-8.9C241.6,122.8,237.6,118.8,232.7,118.8L232.7,118.8z"/>
		</g>
		<g>
			<path class="st1" d="M219.9,134.6c-3.8,0-6.9-3.1-6.9-6.9c0-3.8,3.1-6.9,6.9-6.9c3.8,0,6.9,3.1,6.9,6.9
				C226.8,131.5,223.7,134.6,219.9,134.6z"/>
			<path class="st1" d="M219.9,122.8c2.7,0,4.9,2.2,4.9,4.9s-2.2,4.9-4.9,4.9s-4.9-2.2-4.9-4.9S217.2,122.8,219.9,122.8
				 M219.9,118.8c-4.9,0-8.9,4-8.9,8.9c0,4.9,4,8.9,8.9,8.9c4.9,0,8.9-4,8.9-8.9C228.8,122.8,224.8,118.8,219.9,118.8L219.9,118.8z"
				/>
		</g>
		<g>
			<path class="st1" d="M207.1,134.6c-3.8,0-6.9-3.1-6.9-6.9c0-3.8,3.1-6.9,6.9-6.9c3.8,0,6.9,3.1,6.9,6.9
				C214,131.5,210.9,134.6,207.1,134.6z"/>
			<path class="st1" d="M207.1,122.8c2.7,0,4.9,2.2,4.9,4.9s-2.2,4.9-4.9,4.9s-4.9-2.2-4.9-4.9S204.4,122.8,207.1,122.8
				 M207.1,118.8c-4.9,0-8.9,4-8.9,8.9c0,4.9,4,8.9,8.9,8.9c4.9,0,8.9-4,8.9-8.9C216,122.8,212,118.8,207.1,118.8L207.1,118.8z"/>
		</g>
		<g>
			<path class="st1" d="M194.3,134.6c-3.8,0-6.9-3.1-6.9-6.9c0-3.8,3.1-6.9,6.9-6.9s6.9,3.1,6.9,6.9
				C201.2,131.5,198.1,134.6,194.3,134.6z"/>
			<path class="st1" d="M194.3,122.8c2.7,0,4.9,2.2,4.9,4.9s-2.2,4.9-4.9,4.9s-4.9-2.2-4.9-4.9S191.6,122.8,194.3,122.8
				 M194.3,118.8c-4.9,0-8.9,4-8.9,8.9c0,4.9,4,8.9,8.9,8.9s8.9-4,8.9-8.9C203.2,122.8,199.2,118.8,194.3,118.8L194.3,118.8z"/>
		</g>
		<g>
			<path class="st1" d="M181.5,134.6c-3.8,0-6.9-3.1-6.9-6.9c0-3.8,3.1-6.9,6.9-6.9s6.9,3.1,6.9,6.9
				C188.4,131.5,185.3,134.6,181.5,134.6z"/>
			<path class="st1" d="M181.5,122.8c2.7,0,4.9,2.2,4.9,4.9s-2.2,4.9-4.9,4.9s-4.9-2.2-4.9-4.9S178.8,122.8,181.5,122.8
				 M181.5,118.8c-4.9,0-8.9,4-8.9,8.9c0,4.9,4,8.9,8.9,8.9s8.9-4,8.9-8.9C190.4,122.8,186.4,118.8,181.5,118.8L181.5,118.8z"/>
		</g>
		<g>
			<path class="st1" d="M168.7,134.6c-3.8,0-6.9-3.1-6.9-6.9c0-3.8,3.1-6.9,6.9-6.9s6.9,3.1,6.9,6.9
				C175.6,131.5,172.5,134.6,168.7,134.6z"/>
			<path class="st1" d="M168.7,122.8c2.7,0,4.9,2.2,4.9,4.9s-2.2,4.9-4.9,4.9s-4.9-2.2-4.9-4.9S166,122.8,168.7,122.8 M168.7,118.8
				c-4.9,0-8.9,4-8.9,8.9c0,4.9,4,8.9,8.9,8.9c4.9,0,8.9-4,8.9-8.9C177.6,122.8,173.6,118.8,168.7,118.8L168.7,118.8z"/>
		</g>
		<g>
			<path class="st1" d="M155.9,134.6c-3.8,0-6.9-3.1-6.9-6.9c0-3.8,3.1-6.9,6.9-6.9s6.9,3.1,6.9,6.9
				C162.8,131.5,159.7,134.6,155.9,134.6z"/>
			<path class="st1" d="M155.9,122.8c2.7,0,4.9,2.2,4.9,4.9s-2.2,4.9-4.9,4.9s-4.9-2.2-4.9-4.9S153.2,122.8,155.9,122.8
				 M155.9,118.8c-4.9,0-8.9,4-8.9,8.9c0,4.9,4,8.9,8.9,8.9c4.9,0,8.9-4,8.9-8.9C164.8,122.8,160.8,118.8,155.9,118.8L155.9,118.8z"
				/>
		</g>
		<g>
			<path class="st1" d="M143.1,134.6c-3.8,0-6.9-3.1-6.9-6.9c0-3.8,3.1-6.9,6.9-6.9s6.9,3.1,6.9,6.9
				C150,131.5,146.9,134.6,143.1,134.6z"/>
			<path class="st1" d="M143.1,122.8c2.7,0,4.9,2.2,4.9,4.9s-2.2,4.9-4.9,4.9s-4.9-2.2-4.9-4.9S140.4,122.8,143.1,122.8
				 M143.1,118.8c-4.9,0-8.9,4-8.9,8.9c0,4.9,4,8.9,8.9,8.9c4.9,0,8.9-4,8.9-8.9C152,122.8,148,118.8,143.1,118.8L143.1,118.8z"/>
		</g>
		<g>
			<path class="st1" d="M130.3,134.6c-3.8,0-6.9-3.1-6.9-6.9c0-3.8,3.1-6.9,6.9-6.9s6.9,3.1,6.9,6.9
				C137.2,131.5,134.1,134.6,130.3,134.6z"/>
			<path class="st1" d="M130.3,122.8c2.7,0,4.9,2.2,4.9,4.9s-2.2,4.9-4.9,4.9c-2.7,0-4.9-2.2-4.9-4.9S127.6,122.8,130.3,122.8
				 M130.3,118.8c-4.9,0-8.9,4-8.9,8.9c0,4.9,4,8.9,8.9,8.9c4.9,0,8.9-4,8.9-8.9C139.2,122.8,135.2,118.8,130.3,118.8L130.3,118.8z"
				/>
		</g>
		<g>
			<path class="st1" d="M117.5,134.6c-3.8,0-6.9-3.1-6.9-6.9c0-3.8,3.1-6.9,6.9-6.9s6.9,3.1,6.9,6.9
				C124.4,131.5,121.3,134.6,117.5,134.6z"/>
			<path class="st1" d="M117.5,122.8c2.7,0,4.9,2.2,4.9,4.9s-2.2,4.9-4.9,4.9s-4.9-2.2-4.9-4.9S114.8,122.8,117.5,122.8
				 M117.5,118.8c-4.9,0-8.9,4-8.9,8.9c0,4.9,4,8.9,8.9,8.9s8.9-4,8.9-8.9C126.4,122.8,122.4,118.8,117.5,118.8L117.5,118.8z"/>
		</g>
		<g>
			<path class="st1" d="M104.7,134.6c-3.8,0-6.9-3.1-6.9-6.9c0-3.8,3.1-6.9,6.9-6.9s6.9,3.1,6.9,6.9
				C111.6,131.5,108.5,134.6,104.7,134.6z"/>
			<path class="st1" d="M104.7,122.8c2.7,0,4.9,2.2,4.9,4.9s-2.2,4.9-4.9,4.9s-4.9-2.2-4.9-4.9S102,122.8,104.7,122.8 M104.7,118.8
				c-4.9,0-8.9,4-8.9,8.9c0,4.9,4,8.9,8.9,8.9s8.9-4,8.9-8.9C113.6,122.8,109.6,118.8,104.7,118.8L104.7,118.8z"/>
		</g>
		<g>
			<path class="st1" d="M91.9,134.6c-3.8,0-6.9-3.1-6.9-6.9c0-3.8,3.1-6.9,6.9-6.9s6.9,3.1,6.9,6.9
				C98.8,131.5,95.7,134.6,91.9,134.6z"/>
			<path class="st1" d="M91.9,122.8c2.7,0,4.9,2.2,4.9,4.9s-2.2,4.9-4.9,4.9s-4.9-2.2-4.9-4.9S89.2,122.8,91.9,122.8 M91.9,118.8
				c-4.9,0-8.9,4-8.9,8.9c0,4.9,4,8.9,8.9,8.9s8.9-4,8.9-8.9C100.8,122.8,96.8,118.8,91.9,118.8L91.9,118.8z"/>
		</g>
		<g>
			<path class="st1" d="M79.1,134.6c-3.8,0-6.9-3.1-6.9-6.9c0-3.8,3.1-6.9,6.9-6.9s6.9,3.1,6.9,6.9
				C85.9,131.5,82.9,134.6,79.1,134.6z"/>
			<path class="st1" d="M79.1,122.8c2.7,0,4.9,2.2,4.9,4.9s-2.2,4.9-4.9,4.9s-4.9-2.2-4.9-4.9S76.4,122.8,79.1,122.8 M79.1,118.8
				c-4.9,0-8.9,4-8.9,8.9c0,4.9,4,8.9,8.9,8.9s8.9-4,8.9-8.9C87.9,122.8,84,118.8,79.1,118.8L79.1,118.8z"/>
		</g>
		<g>
			<path class="st1" d="M66.3,134.6c-3.8,0-6.9-3.1-6.9-6.9c0-3.8,3.1-6.9,6.9-6.9s6.9,3.1,6.9,6.9
				C73.1,131.5,70.1,134.6,66.3,134.6z"/>
			<path class="st1" d="M66.3,122.8c2.7,0,4.9,2.2,4.9,4.9s-2.2,4.9-4.9,4.9c-2.7,0-4.9-2.2-4.9-4.9S63.6,122.8,66.3,122.8
				 M66.3,118.8c-4.9,0-8.9,4-8.9,8.9c0,4.9,4,8.9,8.9,8.9s8.9-4,8.9-8.9C75.1,122.8,71.2,118.8,66.3,118.8L66.3,118.8z"/>
		</g>
		<g>
			<path class="st1" d="M53.5,134.6c-3.8,0-6.9-3.1-6.9-6.9c0-3.8,3.1-6.9,6.9-6.9c3.8,0,6.9,3.1,6.9,6.9
				C60.3,131.5,57.2,134.6,53.5,134.6z"/>
			<path class="st1" d="M53.5,122.8c2.7,0,4.9,2.2,4.9,4.9s-2.2,4.9-4.9,4.9s-4.9-2.2-4.9-4.9S50.8,122.8,53.5,122.8 M53.5,118.8
				c-4.9,0-8.9,4-8.9,8.9c0,4.9,4,8.9,8.9,8.9s8.9-4,8.9-8.9C62.3,122.8,58.3,118.8,53.5,118.8L53.5,118.8z"/>
		</g>
		<g>
			<path class="st1" d="M40.6,134.6c-3.8,0-6.9-3.1-6.9-6.9c0-3.8,3.1-6.9,6.9-6.9c3.8,0,6.9,3.1,6.9,6.9
				C47.5,131.5,44.4,134.6,40.6,134.6z"/>
			<path class="st1" d="M40.6,122.8c2.7,0,4.9,2.2,4.9,4.9s-2.2,4.9-4.9,4.9s-4.9-2.2-4.9-4.9S37.9,122.8,40.6,122.8 M40.6,118.8
				c-4.9,0-8.9,4-8.9,8.9c0,4.9,4,8.9,8.9,8.9s8.9-4,8.9-8.9C49.5,122.8,45.5,118.8,40.6,118.8L40.6,118.8z"/>
		</g>
		<g>
			<path class="st1" d="M27.8,134.6c-3.8,0-6.9-3.1-6.9-6.9c0-3.8,3.1-6.9,6.9-6.9c3.8,0,6.9,3.1,6.9,6.9
				C34.7,131.5,31.6,134.6,27.8,134.6z"/>
			<path class="st1" d="M27.8,122.8c2.7,0,4.9,2.2,4.9,4.9s-2.2,4.9-4.9,4.9s-4.9-2.2-4.9-4.9S25.1,122.8,27.8,122.8 M27.8,118.8
				c-4.9,0-8.9,4-8.9,8.9c0,4.9,4,8.9,8.9,8.9s8.9-4,8.9-8.9C36.7,122.8,32.7,118.8,27.8,118.8L27.8,118.8z"/>
		</g>
	</g>
</g>
<g>
	<g>
		<path class="st1" d="M349.3,113c-2.6,0-4.7-1-6.1-2.8c-1.4-1.7-2-4-2-7c0-2,0.3-3.7,0.9-5.2c0.6-1.6,1.6-2.9,2.9-3.8
			c1.3-0.9,2.8-1.4,4.5-1.4c1.1,0,2.2,0.2,3.2,0.6c1.1,0.4,2,0.9,2.8,1.6c0.4,0.3,0.7,0.7,0.9,1.1c0.2,0.4,0.3,0.9,0.3,1.5
			c0,0.8-0.2,1.5-0.7,2.1c-0.4,0.4-0.8,0.8-1.3,0.9c0.4,0.4,0.8,1,1.1,1.5c0.6,1.1,0.8,2.2,0.8,3.6c0,1.4-0.3,2.6-0.9,3.7
			c-0.6,1.1-1.5,2-2.6,2.6C351.8,112.7,350.6,113,349.3,113z M349.1,105c-0.4,0-0.5,0.1-0.6,0.2c-0.1,0.1-0.2,0.2-0.2,0.7
			c0,0.5,0.1,0.6,0.2,0.7c0.1,0.1,0.2,0.2,0.6,0.2c0.3,0,0.4-0.1,0.5-0.1c0.1-0.1,0.2-0.2,0.2-0.7c0-0.5-0.1-0.6-0.2-0.7
			C349.5,105.1,349.5,105,349.1,105z"/>
		<path class="st1" d="M349.3,95c0.8,0,1.7,0.2,2.5,0.5s1.6,0.7,2.2,1.2c0.2,0.2,0.3,0.3,0.4,0.5c0.1,0.2,0.1,0.3,0.1,0.6
			c0,0.3-0.1,0.6-0.3,0.8s-0.4,0.3-0.7,0.3c-0.1,0-0.3,0-0.4-0.1c-0.1-0.1-0.3-0.1-0.5-0.3c-1.2-0.9-2.3-1.3-3.3-1.3
			c-1.1,0-1.9,0.5-2.6,1.5c-0.6,1-0.9,2.4-1,4.2c0.3-0.7,0.9-1.2,1.5-1.6c0.7-0.4,1.4-0.6,2.3-0.6c0.9,0,1.8,0.2,2.5,0.6
			s1.3,1,1.7,1.8c0.4,0.8,0.6,1.6,0.6,2.6c0,1-0.2,1.9-0.7,2.7s-1.1,1.4-1.9,1.9c-0.8,0.4-1.7,0.7-2.7,0.7c-2,0-3.5-0.7-4.6-2
			c-1.1-1.3-1.6-3.3-1.6-5.7c0-1.7,0.3-3.2,0.8-4.4c0.5-1.3,1.2-2.2,2.2-2.9S348,95,349.3,95 M349.1,108.8c0.8,0,1.5-0.3,2-0.8
			c0.5-0.5,0.7-1.2,0.7-2.1c0-0.9-0.2-1.5-0.7-2.1c-0.5-0.5-1.1-0.8-2-0.8c-0.8,0-1.5,0.3-2,0.8c-0.5,0.5-0.8,1.2-0.8,2.1
			c0,0.9,0.3,1.6,0.8,2.1C347.6,108.5,348.3,108.8,349.1,108.8 M349.3,91c-2.1,0-4,0.6-5.6,1.7c-1.6,1.1-2.8,2.7-3.6,4.6
			c-0.7,1.7-1,3.7-1,5.9c0,3.4,0.8,6.2,2.5,8.2c1.3,1.6,3.7,3.5,7.7,3.5c1.7,0,3.3-0.4,4.7-1.2c1.4-0.8,2.6-1.9,3.4-3.4
			c0.8-1.4,1.2-3,1.2-4.7c0-1.6-0.4-3.1-1.1-4.5c0-0.1-0.1-0.1-0.1-0.2c0,0,0-0.1,0.1-0.1c0.8-0.9,1.2-2.1,1.2-3.3
			c0-0.9-0.2-1.7-0.6-2.4c-0.3-0.6-0.8-1.1-1.3-1.6c-1-0.8-2.1-1.5-3.4-2C351.9,91.2,350.6,91,349.3,91L349.3,91z"/>
	</g>
	<g>
		<path class="st1" d="M362.1,113c-2.5,0-4.5-1-5.9-2.9c-1.2-1.7-1.8-4.1-1.8-7.1c0-3.1,0.6-5.4,1.8-7.1c1.4-1.9,3.4-2.9,5.9-2.9
			s4.5,1,5.9,2.9c1.2,1.7,1.8,4.1,1.8,7.1c0,3.1-0.6,5.4-1.8,7.1C366.6,112,364.6,113,362.1,113z M362.1,99.2c-0.2,0-0.3,0-0.4,0.3
			c-0.2,0.4-0.5,1.3-0.5,3.5c0,2.2,0.3,3.2,0.5,3.5c0.1,0.3,0.2,0.3,0.4,0.3s0.3,0,0.4-0.3c0.2-0.4,0.5-1.3,0.5-3.5
			c0-2.2-0.3-3.2-0.5-3.5C362.4,99.2,362.3,99.2,362.1,99.2z"/>
		<path class="st1" d="M362.1,95c1.9,0,3.3,0.7,4.2,2.1c1,1.4,1.5,3.4,1.5,6s-0.5,4.6-1.5,6c-1,1.4-2.4,2.1-4.2,2.1
			c-1.9,0-3.3-0.7-4.2-2.1c-1-1.4-1.5-3.4-1.5-6c0-2.6,0.5-4.6,1.5-6C358.8,95.6,360.2,95,362.1,95 M362.1,108.8
			c1,0,1.7-0.5,2.2-1.4c0.5-0.9,0.7-2.4,0.7-4.4c0-2-0.2-3.5-0.7-4.4c-0.5-0.9-1.2-1.4-2.2-1.4c-1,0-1.7,0.5-2.2,1.4
			s-0.7,2.4-0.7,4.4s0.2,3.5,0.7,4.4S361.1,108.8,362.1,108.8 M362.1,91c-3.2,0-5.8,1.3-7.5,3.7c-1.5,2.1-2.2,4.8-2.2,8.3
			c0,3.5,0.7,6.2,2.2,8.3c1.7,2.4,4.3,3.7,7.5,3.7c3.2,0,5.8-1.3,7.5-3.8c1.5-2.1,2.2-4.8,2.2-8.3c0-3.5-0.7-6.2-2.2-8.3
			C367.8,92.2,365.2,91,362.1,91L362.1,91z"/>
	</g>
</g>
<g>
	<g>
		<path class="st1" d="M38.1,113c-1.1,0-2.3-0.2-3.3-0.6c-1.1-0.4-2.1-0.9-2.9-1.6c-0.8-0.7-1.2-1.6-1.2-2.6c0-0.8,0.2-1.5,0.7-2.1
			c0.2-0.3,0.4-0.5,0.7-0.6c-0.6-0.5-0.9-1.3-0.9-2.1v-6.9c0-1.2,0.5-2,0.9-2.4c0.4-0.4,1.2-0.9,2.4-0.9h7.4c2.3,0,3.3,1.6,3.3,3.1
			c0,1.5-1,3.1-3.3,3.1h-0.2c0.2,0.1,0.4,0.2,0.6,0.3c1.1,0.6,1.9,1.5,2.5,2.5c0.6,1.1,0.9,2.3,0.9,3.6c0,1.4-0.3,2.6-1,3.7
			c-0.7,1.1-1.6,2-2.8,2.6C40.8,112.7,39.5,113,38.1,113z M35.9,106c0.4,0.2,0.7,0.4,1,0.5c0.3,0.1,0.7,0.2,1.1,0.2
			c0.5,0,0.8-0.1,0.9-0.2c0.1-0.1,0.1-0.4,0.1-0.6c0-0.5-0.1-0.6-0.2-0.6c-0.1-0.1-0.4-0.2-0.8-0.2c-0.3,0-0.6,0-0.9,0.1
			c-0.2,0.1-0.5,0.3-0.8,0.5c0,0-0.1,0.1-0.1,0.1C36.1,105.8,36,105.9,35.9,106z"/>
		<path class="st1" d="M41.9,95.2c0.9,0,1.3,0.4,1.3,1.1c0,0.7-0.4,1.1-1.3,1.1h-6v4.2c0.8-0.5,1.7-0.8,2.8-0.8c1,0,1.8,0.2,2.6,0.6
			s1.3,1,1.7,1.8c0.4,0.8,0.6,1.6,0.6,2.6c0,1-0.2,1.9-0.7,2.7c-0.5,0.8-1.1,1.4-2,1.8c-0.9,0.4-1.8,0.7-2.9,0.7
			c-0.9,0-1.8-0.2-2.7-0.5c-0.9-0.3-1.6-0.7-2.3-1.2c-0.3-0.3-0.5-0.6-0.5-1c0-0.3,0.1-0.6,0.3-0.8c0.2-0.2,0.4-0.3,0.7-0.3
			c0.1,0,0.3,0,0.4,0.1c0.1,0.1,0.3,0.1,0.5,0.3c0.6,0.4,1.2,0.7,1.7,1c0.6,0.2,1.2,0.3,1.8,0.3c1,0,1.7-0.2,2.2-0.7
			c0.5-0.5,0.8-1.2,0.8-2.1c0-0.9-0.3-1.6-0.8-2.1c-0.5-0.5-1.2-0.8-2.2-0.8c-0.6,0-1.1,0.1-1.5,0.2c-0.5,0.2-0.9,0.4-1.4,0.8
			c-0.3,0.2-0.6,0.3-0.9,0.3c-0.3,0-0.5-0.1-0.8-0.3c-0.2-0.2-0.3-0.4-0.3-0.7v-6.9c0-0.4,0.1-0.7,0.4-1c0.2-0.2,0.6-0.4,1-0.4H41.9
			 M41.9,91.2h-7.4c-1.5,0-2.8,0.5-3.8,1.5c-1,1-1.5,2.3-1.5,3.8v6.9c0,0.7,0.1,1.3,0.3,1.9c-0.6,0.9-0.9,1.9-0.9,3
			c0,1.6,0.7,3,1.9,4.1c0,0,0,0,0.1,0.1c1,0.8,2.2,1.5,3.5,1.9c1.3,0.4,2.6,0.7,4,0.7c1.7,0,3.3-0.4,4.8-1.1
			c1.5-0.8,2.7-1.9,3.6-3.4c0.8-1.4,1.3-3,1.3-4.8c0-1.7-0.4-3.2-1.1-4.5c-0.3-0.5-0.6-0.9-0.9-1.3c1-0.9,1.5-2.2,1.5-3.7
			C47.3,93.3,45,91.2,41.9,91.2L41.9,91.2z"/>
	</g>
	<g>
		<path class="st1" d="M51.3,113c-2.5,0-4.5-1-5.9-2.9c-1.2-1.7-1.8-4.1-1.8-7.1c0-3.1,0.6-5.4,1.8-7.1c1.4-1.9,3.4-2.9,5.9-2.9
			c2.5,0,4.5,1,5.9,2.9c1.2,1.7,1.8,4.1,1.8,7.1c0,3.1-0.6,5.4-1.8,7.1C55.8,112,53.8,113,51.3,113z M51.3,99.2
			c-0.2,0-0.3,0-0.4,0.3c-0.2,0.4-0.5,1.3-0.5,3.5c0,2.2,0.3,3.2,0.5,3.5c0.1,0.3,0.2,0.3,0.4,0.3c0.2,0,0.3,0,0.4-0.3
			c0.2-0.4,0.5-1.3,0.5-3.5c0-2.2-0.3-3.2-0.5-3.5C51.5,99.2,51.5,99.2,51.3,99.2z"/>
		<path class="st1" d="M51.3,95c1.9,0,3.3,0.7,4.2,2.1c1,1.4,1.5,3.4,1.5,6s-0.5,4.6-1.5,6c-1,1.4-2.4,2.1-4.2,2.1
			c-1.9,0-3.3-0.7-4.2-2.1c-1-1.4-1.5-3.4-1.5-6c0-2.6,0.5-4.6,1.5-6C48,95.6,49.4,95,51.3,95 M51.3,108.8c1,0,1.7-0.5,2.2-1.4
			c0.5-0.9,0.7-2.4,0.7-4.4c0-2-0.2-3.5-0.7-4.4c-0.5-0.9-1.2-1.4-2.2-1.4c-1,0-1.7,0.5-2.2,1.4s-0.7,2.4-0.7,4.4s0.2,3.5,0.7,4.4
			S50.3,108.8,51.3,108.8 M51.3,91c-3.2,0-5.8,1.3-7.5,3.7c-1.5,2.1-2.2,4.8-2.2,8.3c0,3.5,0.7,6.2,2.2,8.3c1.7,2.4,4.3,3.7,7.5,3.7
			c3.2,0,5.8-1.3,7.5-3.8c1.5-2.1,2.2-4.8,2.2-8.3c0-3.5-0.7-6.2-2.2-8.3C57,92.2,54.4,91,51.3,91L51.3,91z"/>
	</g>
</g>
<g>
	<g>
		<path class="st1" d="M211,113c-1.1,0-2.3-0.2-3.3-0.6c-1.1-0.4-2.1-0.9-2.9-1.6c-0.8-0.7-1.2-1.6-1.2-2.6c0-0.8,0.2-1.5,0.7-2.1
			c0.2-0.3,0.4-0.5,0.7-0.6c-0.6-0.5-0.9-1.3-0.9-2.1v-6.9c0-1.2,0.5-2,0.9-2.4s1.2-0.9,2.4-0.9h7.4c2.3,0,3.3,1.6,3.3,3.1
			c0,1.5-1,3.1-3.3,3.1h-0.2c0.2,0.1,0.4,0.2,0.6,0.3c1.1,0.6,1.9,1.5,2.5,2.5c0.6,1.1,0.9,2.3,0.9,3.6c0,1.4-0.3,2.6-1,3.7
			c-0.7,1.1-1.6,2-2.8,2.6C213.7,112.7,212.4,113,211,113z M208.7,106c0.4,0.2,0.7,0.4,1,0.5c0.3,0.1,0.7,0.2,1.1,0.2
			c0.5,0,0.8-0.1,0.9-0.2c0.1-0.1,0.1-0.4,0.1-0.6c0-0.5-0.1-0.6-0.2-0.6c-0.1-0.1-0.4-0.2-0.8-0.2c-0.3,0-0.6,0-0.9,0.1
			c-0.2,0.1-0.5,0.3-0.8,0.5c0,0-0.1,0.1-0.1,0.1C209,105.8,208.9,105.9,208.7,106z"/>
		<path class="st1" d="M214.8,95.2c0.9,0,1.3,0.4,1.3,1.1c0,0.7-0.4,1.1-1.3,1.1h-6v4.2c0.8-0.5,1.7-0.8,2.8-0.8
			c1,0,1.8,0.2,2.6,0.6s1.3,1,1.7,1.8c0.4,0.8,0.6,1.6,0.6,2.6c0,1-0.2,1.9-0.7,2.7c-0.5,0.8-1.1,1.4-2,1.8s-1.8,0.7-2.9,0.7
			c-0.9,0-1.8-0.2-2.7-0.5c-0.9-0.3-1.6-0.7-2.3-1.2c-0.3-0.3-0.5-0.6-0.5-1c0-0.3,0.1-0.6,0.3-0.8c0.2-0.2,0.4-0.3,0.7-0.3
			c0.1,0,0.3,0,0.4,0.1c0.1,0.1,0.3,0.1,0.5,0.3c0.6,0.4,1.2,0.7,1.7,1c0.6,0.2,1.2,0.3,1.8,0.3c1,0,1.7-0.2,2.2-0.7
			c0.5-0.5,0.8-1.2,0.8-2.1c0-0.9-0.3-1.6-0.8-2.1s-1.2-0.8-2.2-0.8c-0.6,0-1.1,0.1-1.5,0.2c-0.5,0.2-0.9,0.4-1.4,0.8
			c-0.3,0.2-0.6,0.3-0.9,0.3c-0.3,0-0.5-0.1-0.8-0.3c-0.2-0.2-0.3-0.4-0.3-0.7v-6.9c0-0.4,0.1-0.7,0.4-1c0.2-0.2,0.6-0.4,1-0.4
			H214.8 M214.8,91.2h-7.4c-1.5,0-2.8,0.5-3.8,1.5c-1,1-1.5,2.3-1.5,3.8v6.9c0,0.7,0.1,1.3,0.3,1.9c-0.6,0.9-0.9,1.9-0.9,3
			c0,1.6,0.7,3,1.9,4.1c0,0,0,0,0.1,0.1c1,0.8,2.2,1.5,3.5,1.9c1.3,0.4,2.6,0.7,4,0.7c1.7,0,3.3-0.4,4.8-1.1
			c1.5-0.8,2.7-1.9,3.6-3.4c0.8-1.4,1.3-3,1.3-4.8c0-1.7-0.4-3.2-1.1-4.5c-0.3-0.5-0.6-0.9-0.9-1.3c1-0.9,1.5-2.2,1.5-3.7
			C220.1,93.3,217.9,91.2,214.8,91.2L214.8,91.2z"/>
	</g>
	<g>
		<path class="st1" d="M224.3,113c-1.1,0-2.3-0.2-3.3-0.6c-1.1-0.4-2.1-0.9-2.9-1.6c-0.8-0.7-1.2-1.6-1.2-2.6c0-0.8,0.2-1.5,0.7-2.1
			c0.2-0.3,0.4-0.5,0.7-0.6c-0.6-0.5-0.9-1.3-0.9-2.1v-6.9c0-1.2,0.5-2,0.9-2.4s1.2-0.9,2.4-0.9h7.4c2.3,0,3.3,1.6,3.3,3.1
			c0,1.5-1,3.1-3.3,3.1h-0.2c0.2,0.1,0.4,0.2,0.6,0.3c1.1,0.6,1.9,1.5,2.5,2.5c0.6,1.1,0.9,2.3,0.9,3.6c0,1.4-0.3,2.6-1,3.7
			c-0.7,1.1-1.6,2-2.8,2.6C227,112.7,225.7,113,224.3,113z M222.1,106c0.4,0.2,0.7,0.4,1,0.5c0.3,0.1,0.7,0.2,1.1,0.2
			c0.5,0,0.8-0.1,0.9-0.2c0.1-0.1,0.1-0.4,0.1-0.6c0-0.5-0.1-0.6-0.2-0.6c-0.1-0.1-0.4-0.2-0.8-0.2c-0.3,0-0.6,0-0.9,0.1
			c-0.2,0.1-0.5,0.3-0.8,0.5c0,0-0.1,0.1-0.1,0.1C222.3,105.8,222.2,105.9,222.1,106z"/>
		<path class="st1" d="M228.1,95.2c0.9,0,1.3,0.4,1.3,1.1c0,0.7-0.4,1.1-1.3,1.1h-6v4.2c0.8-0.5,1.7-0.8,2.8-0.8
			c1,0,1.8,0.2,2.6,0.6s1.3,1,1.7,1.8c0.4,0.8,0.6,1.6,0.6,2.6c0,1-0.2,1.9-0.7,2.7c-0.5,0.8-1.1,1.4-2,1.8s-1.8,0.7-2.9,0.7
			c-0.9,0-1.8-0.2-2.7-0.5c-0.9-0.3-1.6-0.7-2.3-1.2c-0.3-0.3-0.5-0.6-0.5-1c0-0.3,0.1-0.6,0.3-0.8c0.2-0.2,0.4-0.3,0.7-0.3
			c0.1,0,0.3,0,0.4,0.1c0.1,0.1,0.3,0.1,0.5,0.3c0.6,0.4,1.2,0.7,1.7,1c0.6,0.2,1.2,0.3,1.8,0.3c1,0,1.7-0.2,2.2-0.7
			c0.5-0.5,0.8-1.2,0.8-2.1c0-0.9-0.3-1.6-0.8-2.1s-1.2-0.8-2.2-0.8c-0.6,0-1.1,0.1-1.5,0.2c-0.5,0.2-0.9,0.4-1.4,0.8
			c-0.3,0.2-0.6,0.3-0.9,0.3c-0.3,0-0.5-0.1-0.8-0.3c-0.2-0.2-0.3-0.4-0.3-0.7v-6.9c0-0.4,0.1-0.7,0.4-1c0.2-0.2,0.6-0.4,1-0.4
			H228.1 M228.1,91.2h-7.4c-1.5,0-2.8,0.5-3.8,1.5c-1,1-1.5,2.3-1.5,3.8v6.9c0,0.7,0.1,1.3,0.3,1.9c-0.6,0.9-0.9,1.9-0.9,3
			c0,1.6,0.7,3,1.9,4.1c0,0,0,0,0.1,0.1c1,0.8,2.2,1.5,3.5,1.9c1.3,0.4,2.6,0.7,4,0.7c1.7,0,3.3-0.4,4.8-1.1
			c1.5-0.8,2.7-1.9,3.6-3.4c0.8-1.4,1.3-3,1.3-4.8c0-1.7-0.4-3.2-1.1-4.5c-0.3-0.5-0.6-0.9-0.9-1.3c1-0.9,1.5-2.2,1.5-3.7
			C233.5,93.3,231.2,91.2,228.1,91.2L228.1,91.2z"/>
	</g>
</g>
<circle class="st2" cx="317.5" cy="34.5" r="28.2"/>
<g>
	<path class="st1" d="M298.6,38.2c-0.5,0-0.9-0.1-1.2-0.5c-0.3-0.3-0.5-0.7-0.5-1.2c0-0.5,0.1-0.9,0.5-1.2c0.3-0.3,0.7-0.5,1.2-0.5
		l10.7,0c0.5,0,0.9,0.1,1.2,0.5c0.3,0.3,0.5,0.7,0.5,1.2c0,0.5-0.1,0.9-0.5,1.2c-0.3,0.3-0.7,0.5-1.2,0.5H298.6z"/>
</g>
<g>
	<g>
		<path class="st1" d="M333.7,20.2c0.5,0.5,0.6,1,0.6,1.6c0,0.6-0.2,1.4-0.6,2.2l-14.8,26.7c-0.6,1-1.4,1.6-2.4,1.6
			c-0.8,0-1.4-0.2-2.1-0.8c-0.6-0.5-0.8-1.3-0.8-1.9c0-0.6,0.2-1,0.5-1.6l13.2-23.9h-14c-1.9,0-2.7-0.8-2.7-2.2
			c0-1.6,0.8-2.4,2.7-2.4h18.5C332.6,19.7,333.3,19.9,333.7,20.2z"/>
	</g>
</g>
<g>
	<g>
		<g>
			<path class="st3" d="M116,60.4c35.8-16.2,180.8-3.8,183,5.4"/>
			<g>
				<path class="st1" d="M298.3,61.1c2.6-0.3,4.9,1.5,5.2,4c0.3,2.6-1.5,4.9-4,5.2c-2.6,0.3-4.9-1.5-5.2-4
					C294,63.7,295.8,61.4,298.3,61.1z"/>
			</g>
			<g>
				<path class="st1" d="M122.4,65c-3.7-1.2-7.8-1.9-11.7-1c2.2-3.3,3-7.3,3.2-11.2c1.3,1.9,2.5,5.2,2.1,7.6
					C118.6,60.9,120.8,63.1,122.4,65z"/>
			</g>
		</g>
	</g>
</g>
<g>
	<g class="st0">
		<polygon points="99.2,88.1 65,88.1 64.7,88.1 30.3,88.1 30.3,122.9 64.7,122.9 65,122.9 99.2,122.9 99.5,122.9 134,122.9 
			134,88.1 99.5,88.1 		"/>
	</g>
	<rect x="28" y="85.8" class="st4" width="34.8" height="34.8"/>
	<rect x="62.5" y="85.8" class="st2" width="34.8" height="34.8"/>
	<rect x="96.9" y="75.8" class="st5" width="34.8" height="34.8"/>
	<rect x="165.9" y="85.8" class="st4" width="34.8" height="34.8"/>
	<rect x="200.3" y="85.8" class="st2" width="34.8" height="34.8"/>
	<rect x="269.3" y="85.8" class="st6" width="34.8" height="34.8"/>
	<rect x="303.7" y="75.8" class="st4" width="34.8" height="34.8"/>
	<rect x="338.2" y="85.8" class="st2" width="34.8" height="34.8"/>
	<rect x="131.4" y="85.8" class="st6" width="34.8" height="34.8"/>
	<rect x="234.8" y="85.8" class="st5" width="34.8" height="34.8"/>
	<path class="st7" d="M375.2,135.1h-349c-3.2,0-5.8-2.6-5.8-5.8v-3.2c0-3.2,2.6-5.8,5.8-5.8h349c3.2,0,5.8,2.6,5.8,5.8v3.2
		C381,132.5,378.4,135.1,375.2,135.1z"/>
	<g>
		<circle class="st8" cx="373.6" cy="127.7" r="4.9"/>
		<circle class="st8" cx="360.8" cy="127.7" r="4.9"/>
		<circle class="st8" cx="348" cy="127.7" r="4.9"/>
		<circle class="st8" cx="335.2" cy="127.7" r="4.9"/>
		<circle class="st8" cx="322.4" cy="127.7" r="4.9"/>
		<circle class="st8" cx="309.6" cy="127.7" r="4.9"/>
		<circle class="st8" cx="296.8" cy="127.7" r="4.9"/>
		<circle class="st8" cx="284" cy="127.7" r="4.9"/>
		<circle class="st8" cx="271.2" cy="127.7" r="4.9"/>
		<circle class="st8" cx="258.4" cy="127.7" r="4.9"/>
		<circle class="st8" cx="245.6" cy="127.7" r="4.9"/>
		<circle class="st8" cx="232.7" cy="127.7" r="4.9"/>
		<circle class="st8" cx="219.9" cy="127.7" r="4.9"/>
		<circle class="st8" cx="207.1" cy="127.7" r="4.9"/>
		<circle class="st8" cx="194.3" cy="127.7" r="4.9"/>
		<circle class="st8" cx="181.5" cy="127.7" r="4.9"/>
		<circle class="st8" cx="168.7" cy="127.7" r="4.9"/>
		<circle class="st8" cx="155.9" cy="127.7" r="4.9"/>
		<circle class="st8" cx="143.1" cy="127.7" r="4.9"/>
		<circle class="st8" cx="130.3" cy="127.7" r="4.9"/>
		<circle class="st8" cx="117.5" cy="127.7" r="4.9"/>
		<circle class="st8" cx="104.7" cy="127.7" r="4.9"/>
		<circle class="st8" cx="91.9" cy="127.7" r="4.9"/>
		<circle class="st8" cx="79.1" cy="127.7" r="4.9"/>
		<circle class="st8" cx="66.3" cy="127.7" r="4.9"/>
		<circle class="st8" cx="53.5" cy="127.7" r="4.9"/>
		<circle class="st8" cx="40.6" cy="127.7" r="4.9"/>
		<circle class="st8" cx="27.8" cy="127.7" r="4.9"/>
	</g>
</g>
<g>
	<path class="st1" d="M352.2,101.4c0.7,0.4,1.3,1,1.7,1.8s0.6,1.6,0.6,2.6c0,1-0.2,1.9-0.7,2.7s-1.1,1.4-1.9,1.9
		c-0.8,0.4-1.7,0.7-2.7,0.7c-2,0-3.5-0.7-4.6-2c-1.1-1.3-1.6-3.3-1.6-5.7c0-1.7,0.3-3.2,0.8-4.4c0.5-1.3,1.2-2.2,2.2-2.9s2-1,3.3-1
		c0.8,0,1.7,0.2,2.5,0.5s1.6,0.7,2.2,1.2c0.2,0.2,0.3,0.3,0.4,0.5c0.1,0.2,0.1,0.3,0.1,0.6c0,0.3-0.1,0.6-0.3,0.8s-0.4,0.3-0.7,0.3
		c-0.1,0-0.3,0-0.4-0.1c-0.1-0.1-0.3-0.1-0.5-0.3c-1.2-0.9-2.3-1.3-3.3-1.3c-1.1,0-1.9,0.5-2.6,1.5c-0.6,1-0.9,2.4-1,4.2
		c0.3-0.7,0.9-1.2,1.5-1.6c0.7-0.4,1.4-0.6,2.3-0.6C350.6,100.8,351.5,101,352.2,101.4z M351.1,108c0.5-0.5,0.7-1.2,0.7-2.1
		c0-0.9-0.2-1.5-0.7-2.1c-0.5-0.5-1.1-0.8-2-0.8c-0.8,0-1.5,0.3-2,0.8c-0.5,0.5-0.8,1.2-0.8,2.1c0,0.9,0.3,1.6,0.8,2.1
		c0.5,0.5,1.2,0.8,2,0.8C349.9,108.8,350.6,108.5,351.1,108z"/>
	<path class="st1" d="M357.8,109c-1-1.4-1.5-3.4-1.5-6c0-2.6,0.5-4.6,1.5-6c1-1.4,2.4-2.1,4.2-2.1c1.9,0,3.3,0.7,4.2,2.1
		c1,1.4,1.5,3.4,1.5,6s-0.5,4.6-1.5,6c-1,1.4-2.4,2.1-4.2,2.1C360.2,111,358.8,110.3,357.8,109z M364.3,107.4
		c0.5-0.9,0.7-2.4,0.7-4.4c0-2-0.2-3.5-0.7-4.4c-0.5-0.9-1.2-1.4-2.2-1.4c-1,0-1.7,0.5-2.2,1.4s-0.7,2.4-0.7,4.4s0.2,3.5,0.7,4.4
		s1.2,1.4,2.2,1.4C363.1,108.8,363.8,108.3,364.3,107.4z"/>
</g>
<g>
	<path class="st1" d="M41.3,101.4c0.7,0.4,1.3,1,1.7,1.8c0.4,0.8,0.6,1.6,0.6,2.6c0,1-0.2,1.9-0.7,2.7c-0.5,0.8-1.1,1.4-2,1.8
		s-1.8,0.7-2.9,0.7c-0.9,0-1.8-0.2-2.7-0.5c-0.9-0.3-1.6-0.7-2.3-1.2c-0.3-0.3-0.5-0.6-0.5-1c0-0.3,0.1-0.6,0.3-0.8
		c0.2-0.2,0.4-0.3,0.7-0.3c0.1,0,0.3,0,0.4,0.1c0.1,0.1,0.3,0.1,0.5,0.3c0.6,0.4,1.2,0.7,1.7,1c0.6,0.2,1.2,0.3,1.8,0.3
		c1,0,1.7-0.2,2.2-0.7c0.5-0.5,0.8-1.2,0.8-2.1c0-0.9-0.3-1.6-0.8-2.1S39,103,38,103c-0.6,0-1.1,0.1-1.5,0.2
		c-0.5,0.2-0.9,0.4-1.4,0.8c-0.3,0.2-0.6,0.3-0.9,0.3c-0.3,0-0.5-0.1-0.8-0.3c-0.2-0.2-0.3-0.4-0.3-0.7v-6.9c0-0.4,0.1-0.7,0.4-1
		c0.2-0.2,0.6-0.4,1-0.4h7.4c0.9,0,1.3,0.4,1.3,1.1c0,0.7-0.4,1.1-1.3,1.1h-6v4.2c0.8-0.5,1.7-0.8,2.8-0.8
		C39.7,100.8,40.6,101,41.3,101.4z"/>
	<path class="st1" d="M47,109c-1-1.4-1.5-3.4-1.5-6c0-2.6,0.5-4.6,1.5-6c1-1.4,2.4-2.1,4.2-2.1c1.9,0,3.3,0.7,4.2,2.1
		c1,1.4,1.5,3.4,1.5,6s-0.5,4.6-1.5,6c-1,1.4-2.4,2.1-4.2,2.1C49.4,111,48,110.3,47,109z M53.5,107.4c0.5-0.9,0.7-2.4,0.7-4.4
		c0-2-0.2-3.5-0.7-4.4c-0.5-0.9-1.2-1.4-2.2-1.4c-1,0-1.7,0.5-2.2,1.4s-0.7,2.4-0.7,4.4s0.2,3.5,0.7,4.4s1.2,1.4,2.2,1.4
		C52.3,108.8,53,108.3,53.5,107.4z"/>
</g>
<g>
	<path class="st1" d="M214.2,101.4c0.7,0.4,1.3,1,1.7,1.8c0.4,0.8,0.6,1.6,0.6,2.6c0,1-0.2,1.9-0.7,2.7c-0.5,0.8-1.1,1.4-2,1.8
		s-1.8,0.7-2.9,0.7c-0.9,0-1.8-0.2-2.7-0.5c-0.9-0.3-1.6-0.7-2.3-1.2c-0.3-0.3-0.5-0.6-0.5-1c0-0.3,0.1-0.6,0.3-0.8
		c0.2-0.2,0.4-0.3,0.7-0.3c0.1,0,0.3,0,0.4,0.1c0.1,0.1,0.3,0.1,0.5,0.3c0.6,0.4,1.2,0.7,1.7,1c0.6,0.2,1.2,0.3,1.8,0.3
		c1,0,1.7-0.2,2.2-0.7c0.5-0.5,0.8-1.2,0.8-2.1c0-0.9-0.3-1.6-0.8-2.1s-1.2-0.8-2.2-0.8c-0.6,0-1.1,0.1-1.5,0.2
		c-0.5,0.2-0.9,0.4-1.4,0.8c-0.3,0.2-0.6,0.3-0.9,0.3c-0.3,0-0.5-0.1-0.8-0.3c-0.2-0.2-0.3-0.4-0.3-0.7v-6.9c0-0.4,0.1-0.7,0.4-1
		c0.2-0.2,0.6-0.4,1-0.4h7.4c0.9,0,1.3,0.4,1.3,1.1c0,0.7-0.4,1.1-1.3,1.1h-6v4.2c0.8-0.5,1.7-0.8,2.8-0.8
		C212.6,100.8,213.5,101,214.2,101.4z"/>
	<path class="st1" d="M227.5,101.4c0.7,0.4,1.3,1,1.7,1.8c0.4,0.8,0.6,1.6,0.6,2.6c0,1-0.2,1.9-0.7,2.7c-0.5,0.8-1.1,1.4-2,1.8
		s-1.8,0.7-2.9,0.7c-0.9,0-1.8-0.2-2.7-0.5c-0.9-0.3-1.6-0.7-2.3-1.2c-0.3-0.3-0.5-0.6-0.5-1c0-0.3,0.1-0.6,0.3-0.8
		c0.2-0.2,0.4-0.3,0.7-0.3c0.1,0,0.3,0,0.4,0.1c0.1,0.1,0.3,0.1,0.5,0.3c0.6,0.4,1.2,0.7,1.7,1c0.6,0.2,1.2,0.3,1.8,0.3
		c1,0,1.7-0.2,2.2-0.7c0.5-0.5,0.8-1.2,0.8-2.1c0-0.9-0.3-1.6-0.8-2.1s-1.2-0.8-2.2-0.8c-0.6,0-1.1,0.1-1.5,0.2
		c-0.5,0.2-0.9,0.4-1.4,0.8c-0.3,0.2-0.6,0.3-0.9,0.3c-0.3,0-0.5-0.1-0.8-0.3c-0.2-0.2-0.3-0.4-0.3-0.7v-6.9c0-0.4,0.1-0.7,0.4-1
		c0.2-0.2,0.6-0.4,1-0.4h7.4c0.9,0,1.3,0.4,1.3,1.1c0,0.7-0.4,1.1-1.3,1.1h-6v4.2c0.8-0.5,1.7-0.8,2.8-0.8
		C225.9,100.8,226.8,101,227.5,101.4z"/>
</g>
</svg>
