<?xml version="1.0" encoding="utf-8"?>
<!-- Generator: Adobe Illustrator 22.1.0, SVG Export Plug-In . SVG Version: 6.00 Build 0)  -->
<svg version="1.1" id="Layer_1" xmlns="http://www.w3.org/2000/svg" xmlns:xlink="http://www.w3.org/1999/xlink" x="0px" y="0px"
	 viewBox="0 0 336.7 293.7" style="enable-background:new 0 0 336.7 293.7;" xml:space="preserve">
<style type="text/css">
	.st0{fill:#FADC3C;}
	.st1{opacity:0.2;}
	.st2{fill:#FFFFFF;}
</style>
<g>
	<path class="st0" d="M106.6,137.9h-40c-2.8,0-5-2.2-5-5V99c0-2.8,2.2-5,5-5h40c2.8,0,5,2.2,5,5v33.9
		C111.6,135.7,109.4,137.9,106.6,137.9z"/>
	<g class="st1">
		<g>
			<circle cx="68.2" cy="97.2" r="1.7"/>
			<circle cx="80.5" cy="97.2" r="1.7"/>
			<circle cx="92.8" cy="97.2" r="1.7"/>
			<circle cx="105.1" cy="97.2" r="1.7"/>
		</g>
		<g>
			<circle cx="68.2" cy="134.8" r="1.7"/>
			<circle cx="80.5" cy="134.8" r="1.7"/>
			<circle cx="92.8" cy="134.8" r="1.7"/>
			<circle cx="105.1" cy="134.8" r="1.7"/>
		</g>
		<rect x="63" y="99.8" width="48" height="0.5"/>
		<rect x="63" y="131.6" width="48" height="0.5"/>
		<path d="M105.4,130.2h-37c-2,0-3.7-1.7-3.7-3.7v-20.9c0-2,1.7-3.7,3.7-3.7h37c2,0,3.7,1.7,3.7,3.7v20.9
			C109.1,128.6,107.4,130.2,105.4,130.2z"/>
	</g>
</g>
<g>
	<path class="st2" d="M92.9,117.1c0.6,0.8,0.8,1.7,0.8,2.8c0,1.5-0.6,2.8-1.8,3.6c-1.2,0.9-2.8,1.3-4.9,1.3s-3.7-0.4-4.9-1.3
		s-1.8-2.1-1.8-3.6c0-1.1,0.3-2,0.9-2.8s1.4-1.3,2.4-1.5c-0.9-0.3-1.6-0.9-2.1-1.6s-0.8-1.5-0.8-2.5c0-1.5,0.5-2.6,1.6-3.5
		c1.1-0.8,2.6-1.3,4.5-1.3s3.4,0.4,4.5,1.3s1.6,2,1.6,3.5c0,1-0.2,1.8-0.8,2.5c-0.5,0.7-1.2,1.2-2,1.5
		C91.5,115.8,92.3,116.4,92.9,117.1z M90.7,119.6c0-1.8-1.2-2.7-3.6-2.7s-3.6,0.9-3.6,2.7c0,1.8,1.2,2.7,3.6,2.7
		C89.5,122.3,90.7,121.4,90.7,119.6z M84,111.8c0,0.9,0.3,1.5,0.8,1.9s1.3,0.7,2.3,0.7s1.8-0.2,2.3-0.7c0.5-0.4,0.8-1.1,0.8-1.9
		c0-1.7-1-2.6-3.1-2.6C85,109.3,84,110.1,84,111.8z"/>
</g>
</svg>
