<?xml version="1.0" encoding="utf-8"?>
<!-- Generator: Adobe Illustrator 22.1.0, SVG Export Plug-In . SVG Version: 6.00 Build 0)  -->
<svg version="1.1" id="Layer_1" xmlns="http://www.w3.org/2000/svg" xmlns:xlink="http://www.w3.org/1999/xlink" x="0px" y="0px"
	 viewBox="0 0 336.7 293.7" style="enable-background:new 0 0 336.7 293.7;" xml:space="preserve">
<style type="text/css">
	.st0{fill:#A5D73C;}
	.st1{opacity:0.2;}
	.st2{fill:#FFFFFF;}
</style>
<g>
	<path class="st0" d="M269.2,137.9h-40c-2.8,0-5-2.2-5-5V99c0-2.8,2.2-5,5-5h40c2.8,0,5,2.2,5,5v33.9
		C274.2,135.7,272,137.9,269.2,137.9z"/>
	<g class="st1">
		<g>
			<circle cx="230.8" cy="97.2" r="1.7"/>
			<circle cx="243.1" cy="97.2" r="1.7"/>
			<circle cx="255.3" cy="97.2" r="1.7"/>
			<circle cx="267.6" cy="97.2" r="1.7"/>
		</g>
		<g>
			<circle cx="230.8" cy="134.8" r="1.7"/>
			<circle cx="243.1" cy="134.8" r="1.7"/>
			<circle cx="255.3" cy="134.8" r="1.7"/>
			<circle cx="267.6" cy="134.8" r="1.7"/>
		</g>
		<rect x="225.6" y="99.8" width="48" height="0.5"/>
		<rect x="225.6" y="131.6" width="48" height="0.5"/>
		<path d="M268,130.2h-37c-2,0-3.7-1.7-3.7-3.7v-20.9c0-2,1.7-3.7,3.7-3.7h37c2,0,3.7,1.7,3.7,3.7v20.9
			C271.7,128.6,270,130.2,268,130.2z"/>
	</g>
</g>
<g>
	<path class="st2" d="M246.8,114.5c0.8,0.5,1.5,1.1,2,2s0.7,1.8,0.7,2.9s-0.3,2.2-0.8,3c-0.5,0.9-1.3,1.6-2.2,2.1
		c-1,0.5-2.1,0.7-3.3,0.7c-1,0-2-0.2-3-0.5s-1.8-0.8-2.5-1.4c-0.4-0.3-0.6-0.7-0.6-1.2c0-0.4,0.1-0.7,0.3-0.9
		c0.2-0.3,0.5-0.4,0.7-0.4s0.3,0,0.5,0.1s0.3,0.2,0.5,0.3c0.7,0.5,1.3,0.8,1.9,1.1c0.6,0.2,1.3,0.4,2,0.4c1.1,0,1.9-0.3,2.5-0.8
		s0.9-1.3,0.9-2.3s-0.3-1.8-0.9-2.3c-0.6-0.6-1.4-0.9-2.4-0.9c-0.7,0-1.2,0.1-1.7,0.3c-0.5,0.2-1,0.5-1.6,0.9
		c-0.3,0.2-0.6,0.3-1,0.3s-0.6-0.1-0.8-0.3c-0.2-0.2-0.4-0.5-0.4-0.8V109c0-0.5,0.1-0.8,0.4-1.1c0.3-0.3,0.6-0.4,1.1-0.4h8.3
		c1,0,1.5,0.4,1.5,1.2c0,0.8-0.5,1.2-1.5,1.2h-6.7v4.8c0.8-0.6,1.9-0.9,3.1-0.9C245,113.8,246,114.1,246.8,114.5z"/>
	<path class="st2" d="M252.1,123c-1.1-1.5-1.6-3.8-1.6-6.7c0-2.9,0.5-5.2,1.6-6.7s2.7-2.3,4.8-2.3c2.1,0,3.7,0.8,4.8,2.3
		c1.1,1.5,1.7,3.8,1.7,6.7c0,2.9-0.5,5.2-1.7,6.7c-1.1,1.6-2.7,2.3-4.8,2.3C254.8,125.3,253.2,124.6,252.1,123z M259.4,121.2
		c0.5-1,0.8-2.7,0.8-5s-0.3-3.9-0.8-5s-1.3-1.5-2.5-1.5c-1.1,0-2,0.5-2.5,1.6c-0.5,1-0.8,2.7-0.8,4.9c0,2.3,0.3,3.9,0.8,5
		s1.3,1.6,2.5,1.6C258.1,122.8,258.9,122.3,259.4,121.2z"/>
</g>
</svg>
