<?xml version="1.0" encoding="utf-8"?>
<!-- Generator: Adobe Illustrator 22.1.0, SVG Export Plug-In . SVG Version: 6.00 Build 0)  -->
<svg version="1.1" id="Layer_1" xmlns="http://www.w3.org/2000/svg" xmlns:xlink="http://www.w3.org/1999/xlink" x="0px" y="0px"
	 viewBox="0 0 336.7 293.7" style="enable-background:new 0 0 336.7 293.7;" xml:space="preserve">
<style type="text/css">
	.st0{fill:#00CDC8;}
	.st1{opacity:0.2;}
	.st2{fill:#FFFFFF;}
</style>
<g>
	<path class="st0" d="M106.6,276.7h-40c-2.8,0-5-2.2-5-5v-33.9c0-2.8,2.2-5,5-5h40c2.8,0,5,2.2,5,5v33.9
		C111.6,274.5,109.4,276.7,106.6,276.7z"/>
	<g class="st1">
		<g>
			<circle cx="68.2" cy="236" r="1.7"/>
			<circle cx="80.5" cy="236" r="1.7"/>
			<circle cx="92.8" cy="236" r="1.7"/>
			<circle cx="105.1" cy="236" r="1.7"/>
		</g>
		<g>
			<circle cx="68.2" cy="273.6" r="1.7"/>
			<circle cx="80.5" cy="273.6" r="1.7"/>
			<circle cx="92.8" cy="273.6" r="1.7"/>
			<circle cx="105.1" cy="273.6" r="1.7"/>
		</g>
		<rect x="63" y="238.7" width="48" height="0.5"/>
		<rect x="63" y="270.4" width="48" height="0.5"/>
		<path d="M105.4,269.1h-37c-2,0-3.7-1.7-3.7-3.7v-20.9c0-2,1.7-3.7,3.7-3.7h37c2,0,3.7,1.7,3.7,3.7v20.9
			C109.1,267.4,107.4,269.1,105.4,269.1z"/>
	</g>
</g>
<g>
	<path class="st2" d="M86.6,261.8c0,0.9-0.5,1.3-1.5,1.3h-9.5c-0.4,0-0.8-0.1-1-0.4s-0.4-0.6-0.4-1c0-0.5,0.2-0.9,0.6-1.3l5.7-6.1
		c0.7-0.8,1.2-1.5,1.5-2.1s0.5-1.3,0.5-1.9c0-0.8-0.2-1.4-0.7-1.8c-0.4-0.4-1.1-0.6-1.9-0.6c-0.7,0-1.3,0.1-2,0.4
		c-0.6,0.3-1.3,0.6-1.9,1.1c-0.2,0.1-0.3,0.2-0.5,0.3s-0.3,0.1-0.5,0.1c-0.3,0-0.5-0.1-0.7-0.4s-0.3-0.6-0.3-1c0-0.2,0-0.5,0.1-0.6
		c0.1-0.2,0.2-0.4,0.4-0.5c0.7-0.6,1.6-1,2.6-1.4c1-0.3,2-0.5,3-0.5c1.7,0,3.1,0.4,4.1,1.3c1,0.9,1.5,2,1.5,3.5c0,1-0.2,2-0.6,2.9
		s-1.2,1.9-2.2,3l-4.3,4.6h6.6C86.1,260.5,86.6,260.9,86.6,261.8z"/>
	<path class="st2" d="M100.6,261.8c0,0.9-0.5,1.3-1.5,1.3h-8.4c-1,0-1.5-0.4-1.5-1.3c0-0.8,0.5-1.3,1.5-1.3h2.6v-11.4l-2.4,1.5
		c-0.2,0.1-0.4,0.2-0.6,0.2c-0.4,0-0.6-0.2-0.9-0.5c-0.2-0.3-0.4-0.6-0.4-1c0-0.5,0.2-0.9,0.6-1.1l3.9-2.4c0.5-0.3,1-0.5,1.4-0.5
		c0.5,0,0.8,0.1,1.1,0.4c0.3,0.3,0.4,0.7,0.4,1.2v13.5H99C100.1,260.5,100.6,260.9,100.6,261.8z"/>
</g>
</svg>
