<?xml version="1.0" encoding="utf-8"?>
<!-- Generator: Adobe Illustrator 22.1.0, SVG Export Plug-In . SVG Version: 6.00 Build 0)  -->
<svg version="1.1" id="Layer_1" xmlns="http://www.w3.org/2000/svg" xmlns:xlink="http://www.w3.org/1999/xlink" x="0px" y="0px"
	 viewBox="0 0 336.7 293.7" style="enable-background:new 0 0 336.7 293.7;" xml:space="preserve">
<style type="text/css">
	.st0{fill:#F24044;}
	.st1{opacity:0.2;}
	.st2{fill:#FFFFFF;}
</style>
<g>
	<path class="st0" d="M269.2,276.7h-40c-2.8,0-5-2.2-5-5v-33.9c0-2.8,2.2-5,5-5h40c2.8,0,5,2.2,5,5v33.9
		C274.2,274.5,272,276.7,269.2,276.7z"/>
	<g class="st1">
		<g>
			<circle cx="230.8" cy="236" r="1.7"/>
			<circle cx="243.1" cy="236" r="1.7"/>
			<circle cx="255.3" cy="236" r="1.7"/>
			<circle cx="267.6" cy="236" r="1.7"/>
		</g>
		<g>
			<circle cx="230.8" cy="273.6" r="1.7"/>
			<circle cx="243.1" cy="273.6" r="1.7"/>
			<circle cx="255.3" cy="273.6" r="1.7"/>
			<circle cx="267.6" cy="273.6" r="1.7"/>
		</g>
		<rect x="225.6" y="238.7" width="48" height="0.5"/>
		<rect x="225.6" y="270.4" width="48" height="0.5"/>
		<path d="M268,269.1h-37c-2,0-3.7-1.7-3.7-3.7v-20.9c0-2,1.7-3.7,3.7-3.7h37c2,0,3.7,1.7,3.7,3.7v20.9
			C271.7,267.4,270,269.1,268,269.1z"/>
	</g>
</g>
<g>
	<path class="st2" d="M248.6,262.5c0,0.9-0.5,1.3-1.5,1.3h-8.5c-1,0-1.5-0.4-1.5-1.3c0-0.8,0.5-1.3,1.5-1.3h2.6v-11.4l-2.4,1.5
		c-0.2,0.1-0.4,0.2-0.6,0.2c-0.4,0-0.6-0.2-0.9-0.5c-0.2-0.3-0.4-0.6-0.4-1c0-0.5,0.2-0.9,0.6-1.1l3.9-2.4c0.5-0.3,1-0.5,1.4-0.5
		c0.5,0,0.8,0.1,1.1,0.4c0.3,0.3,0.4,0.7,0.4,1.2v13.5h2.6C248.1,261.2,248.6,261.7,248.6,262.5z"/>
	<path class="st2" d="M259.9,253.3c0.8,0.5,1.5,1.1,2,2s0.7,1.8,0.7,2.9c0,1.2-0.3,2.2-0.8,3c-0.5,0.9-1.3,1.6-2.2,2.1
		c-1,0.5-2.1,0.7-3.3,0.7c-1,0-2-0.2-3-0.5c-1-0.3-1.8-0.8-2.5-1.4c-0.4-0.3-0.6-0.7-0.6-1.2c0-0.4,0.1-0.7,0.3-0.9
		c0.2-0.3,0.5-0.4,0.7-0.4c0.2,0,0.3,0,0.5,0.1c0.2,0.1,0.3,0.2,0.5,0.3c0.7,0.5,1.3,0.8,2,1.1c0.6,0.2,1.3,0.4,2,0.4
		c1.1,0,1.9-0.3,2.5-0.8c0.6-0.5,0.9-1.3,0.9-2.3c0-1-0.3-1.8-0.9-2.3s-1.4-0.9-2.4-0.9c-0.6,0-1.2,0.1-1.7,0.3
		c-0.5,0.2-1,0.5-1.6,0.9c-0.3,0.2-0.6,0.3-1,0.3c-0.3,0-0.6-0.1-0.9-0.3s-0.3-0.5-0.3-0.8v-7.8c0-0.5,0.1-0.8,0.4-1.1
		c0.3-0.3,0.6-0.4,1.1-0.4h8.3c1,0,1.5,0.4,1.5,1.2s-0.5,1.2-1.5,1.2h-6.7v4.8c0.9-0.6,1.9-0.9,3.1-0.9
		C258,252.6,259,252.8,259.9,253.3z"/>
</g>
</svg>
