<?xml version="1.0" encoding="utf-8"?>
<!-- Generator: Adobe Illustrator 22.1.0, SVG Export Plug-In . SVG Version: 6.00 Build 0)  -->
<svg version="1.1" id="Layer_1" xmlns="http://www.w3.org/2000/svg" xmlns:xlink="http://www.w3.org/1999/xlink" x="0px" y="0px"
	 viewBox="0 0 336.7 293.7" style="enable-background:new 0 0 336.7 293.7;" xml:space="preserve">
<style type="text/css">
	.st0{fill:#00CDC8;}
	.st1{opacity:0.2;}
	.st2{enable-background:new    ;}
	.st3{fill:#FFFFFF;}
</style>
<g>
	<g>
		<path class="st0" d="M51.2,238.6H12.7c-2.2,0-4.1-1.9-4.1-4.1v-34.6c0-2.2,1.9-4.1,4.1-4.1h38.5c2.2,0,4.1,1.9,4.1,4.1v34.6
			C55.3,236.8,53.4,238.6,51.2,238.6z"/>
		<g class="st1">
			<g>
				<circle cx="14.7" cy="198.9" r="1.6"/>
				<circle cx="26.2" cy="198.9" r="1.6"/>
				<circle cx="37.7" cy="198.9" r="1.6"/>
				<circle cx="49.1" cy="198.9" r="1.6"/>
			</g>
			<g>
				<circle cx="14.7" cy="235.7" r="1.6"/>
				<circle cx="26.2" cy="235.7" r="1.6"/>
				<circle cx="37.7" cy="235.7" r="1.6"/>
				<circle cx="49.1" cy="235.7" r="1.6"/>
			</g>
			<rect x="9.9" y="201.4" width="44.7" height="0.5"/>
			<rect x="9.9" y="232.7" width="44.7" height="0.5"/>
			<path d="M49.4,231.5H14.9c-1.9,0-3.4-1.6-3.4-3.4v-21.3c0-1.9,1.6-3.4,3.4-3.4h34.5c1.9,0,3.4,1.6,3.4,3.4v21.3
				C52.8,229.9,51.3,231.5,49.4,231.5z"/>
		</g>
	</g>
</g>
<g class="st2">
	<path class="st3" d="M37.4,219.8c0.5,0.7,0.8,1.5,0.8,2.6c0,1.4-0.5,2.5-1.6,3.4c-1,0.8-2.4,1.3-4.2,1.3c-1,0-2-0.2-2.9-0.5
		s-1.7-0.7-2.4-1.3c-0.4-0.3-0.5-0.7-0.5-1.1c0-0.3,0.1-0.6,0.3-0.9c0.2-0.2,0.4-0.4,0.7-0.4c0.2,0,0.3,0,0.4,0.1
		c0.1,0.1,0.3,0.1,0.5,0.3c0.7,0.4,1.3,0.8,1.9,1c0.6,0.2,1.2,0.3,1.9,0.3c1,0,1.8-0.2,2.3-0.6c0.5-0.4,0.7-1,0.7-1.9
		c0-0.8-0.3-1.4-0.8-1.8s-1.3-0.6-2.4-0.6h-1.3c-0.4,0-0.6-0.1-0.8-0.4c-0.2-0.2-0.3-0.5-0.3-0.8s0.1-0.6,0.3-0.8s0.5-0.3,0.8-0.3
		h0.9c2.1,0,3.2-0.8,3.2-2.4c0-0.7-0.2-1.3-0.7-1.7s-1.1-0.6-1.9-0.6c-1.1,0-2.3,0.5-3.6,1.4c-0.2,0.1-0.4,0.2-0.5,0.3
		s-0.3,0.1-0.4,0.1c-0.3,0-0.5-0.1-0.7-0.4c-0.2-0.2-0.3-0.5-0.3-0.9c0-0.2,0-0.4,0.1-0.6s0.2-0.3,0.4-0.5c0.7-0.5,1.4-1,2.3-1.3
		c0.9-0.3,1.8-0.5,2.8-0.5c1.6,0,2.9,0.4,3.9,1.2s1.4,1.8,1.4,3.2c0,0.9-0.3,1.7-0.7,2.4c-0.5,0.7-1.1,1.2-1.9,1.5
		C36.1,218.7,36.9,219.1,37.4,219.8z"/>
</g>
</svg>
