<?xml version="1.0" encoding="utf-8"?>
<!-- Generator: Adobe Illustrator 22.1.0, SVG Export Plug-In . SVG Version: 6.00 Build 0)  -->
<svg version="1.1" id="Layer_1" xmlns="http://www.w3.org/2000/svg" xmlns:xlink="http://www.w3.org/1999/xlink" x="0px" y="0px"
	 viewBox="0 0 336.7 293.7" style="enable-background:new 0 0 336.7 293.7;" xml:space="preserve">
<style type="text/css">
	.st0{fill:#F24044;}
	.st1{opacity:0.2;}
	.st2{enable-background:new    ;}
	.st3{fill:#FFFFFF;}
</style>
<g>
	<g>
		<path class="st0" d="M286.2,238.6h38.5c2.2,0,4.1-1.9,4.1-4.1v-34.6c0-2.2-1.9-4.1-4.1-4.1h-38.5c-2.2,0-4.1,1.9-4.1,4.1v34.6
			C282.1,236.8,284,238.6,286.2,238.6z"/>
		<g class="st1">
			<g>
				<circle cx="322.7" cy="198.9" r="1.6"/>
				<circle cx="311.2" cy="198.9" r="1.6"/>
				<circle cx="299.7" cy="198.9" r="1.6"/>
				<circle cx="288.3" cy="198.9" r="1.6"/>
			</g>
			<g>
				<circle cx="322.7" cy="235.7" r="1.6"/>
				<circle cx="311.2" cy="235.7" r="1.6"/>
				<circle cx="299.7" cy="235.7" r="1.6"/>
				<circle cx="288.3" cy="235.7" r="1.6"/>
			</g>
			<rect x="282.8" y="201.4" width="44.7" height="0.5"/>
			<rect x="282.8" y="232.7" width="44.7" height="0.5"/>
			<path d="M288,231.5h34.5c1.9,0,3.4-1.6,3.4-3.4v-21.3c0-1.9-1.6-3.4-3.4-3.4H288c-1.9,0-3.4,1.6-3.4,3.4v21.3
				C284.6,229.9,286,231.5,288,231.5z"/>
		</g>
	</g>
</g>
<g class="st2">
	<path class="st3" d="M304.8,224.6c0,0.8-0.5,1.2-1.4,1.2h-7.9c-0.9,0-1.4-0.4-1.4-1.2s0.5-1.2,1.4-1.2h2.4v-10.6l-2.2,1.4
		c-0.2,0.1-0.4,0.2-0.6,0.2c-0.3,0-0.6-0.1-0.8-0.4c-0.2-0.3-0.3-0.6-0.3-0.9c0-0.4,0.2-0.8,0.6-1l3.6-2.2c0.5-0.3,0.9-0.4,1.3-0.4
		s0.8,0.1,1,0.4s0.4,0.6,0.4,1.1v12.6h2.4C304.3,223.4,304.8,223.8,304.8,224.6z"/>
	<path class="st3" d="M316.3,216c0.8,0.4,1.4,1.1,1.8,1.9s0.6,1.7,0.6,2.7c0,1.1-0.2,2-0.7,2.8s-1.1,1.5-2,1.9s-1.8,0.7-2.8,0.7
		c-2.1,0-3.7-0.7-4.8-2.1s-1.7-3.4-1.7-6c0-1.8,0.3-3.3,0.8-4.6s1.3-2.3,2.3-3s2.1-1,3.5-1c0.9,0,1.8,0.2,2.7,0.5s1.7,0.7,2.3,1.3
		c0.2,0.2,0.3,0.3,0.4,0.5s0.1,0.4,0.1,0.6c0,0.3-0.1,0.6-0.3,0.9c-0.2,0.2-0.4,0.4-0.7,0.4c-0.2,0-0.3,0-0.4-0.1s-0.3-0.1-0.5-0.3
		c-1.3-0.9-2.4-1.4-3.4-1.4c-1.1,0-2,0.5-2.7,1.6s-1,2.5-1,4.4c0.4-0.7,0.9-1.3,1.6-1.7s1.5-0.6,2.4-0.6
		C314.7,215.3,315.5,215.5,316.3,216z M315.1,222.9c0.5-0.6,0.8-1.3,0.8-2.2s-0.3-1.6-0.8-2.2c-0.5-0.5-1.2-0.8-2-0.8
		c-0.9,0-1.6,0.3-2.1,0.8c-0.5,0.6-0.8,1.3-0.8,2.2s0.3,1.6,0.8,2.2c0.5,0.6,1.2,0.8,2.1,0.8C313.9,223.7,314.6,223.4,315.1,222.9z"
		/>
</g>
</svg>
