<?xml version="1.0" encoding="utf-8"?>
<!-- Generator: Adobe Illustrator 22.1.0, SVG Export Plug-In . SVG Version: 6.00 Build 0)  -->
<svg version="1.1" id="Layer_1" xmlns="http://www.w3.org/2000/svg" xmlns:xlink="http://www.w3.org/1999/xlink" x="0px" y="0px"
	 viewBox="0 0 400 400" style="enable-background:new 0 0 400 400;" xml:space="preserve">
<style type="text/css">
	.st0{fill:#691869;}
	.st1{fill:#FFFFFF;}
	.st2{fill:#975D50;}
	.st3{fill:#F8C442;}
	.st4{fill:#CCCCCC;}
</style>
<g>
	<path class="st0" d="M216.2,197.8c0.6,0.6,0.9,1.3,0.9,2.2s-0.3,1.6-0.9,2.2s-1.3,0.9-2.2,0.9h-10.9h-6.2H186
		c-0.9,0-1.6-0.3-2.2-0.9s-0.9-1.3-0.9-2.2s0.3-1.6,0.9-2.2s1.3-0.9,2.2-0.9h10.9h6.2H214C214.9,196.9,215.6,197.2,216.2,197.8z"/>
</g>
<g>
	<g>
		<path class="st1" d="M108.5,235.4c-3.5,0-6.4-2.9-6.4-6.4l0-1c-2.8-1.1-5.2-3-7-5.5c-0.1-0.1-0.2-0.2-0.2-0.3
			c-0.1-0.1-0.1-0.2-0.2-0.3c-0.2-0.2-0.3-0.5-0.5-0.7l-0.1-0.1c-0.1-0.2-0.2-0.3-0.3-0.5c-0.2-0.4-0.4-0.7-0.6-1.1
			c-0.1-0.1-0.1-0.3-0.2-0.4c-0.2-0.5-0.4-1.1-0.6-1.6c0-0.1-0.1-0.3-0.1-0.5c-0.1-0.3-0.2-0.7-0.3-1.1c0-0.1,0-0.1,0-0.2
			c0-0.1,0-0.2-0.1-0.3c-0.2-1-0.3-1.9-0.3-2.8l0-0.6c-1.6,0.4-3.2,0.6-4.7,0.6c-3.4,0-6.5-1.1-8.9-3.1c-1.1-1-2.1-2.2-3-3.6
			c-0.7-1.2-1.4-2.8-1.7-4.4l-0.2-0.8c-0.3-1.6-0.4-3.3-0.3-4.7c0.2-1.6,0.6-3.1,1.2-4.5c1.8-3.8,6.2-8.4,16.6-8.4
			c1.9,0,4,0.2,6.1,0.5c0.4-0.6,0.8-1.1,1.2-1.6c-0.6-1.3-0.8-2.7-0.5-4.2c0.4-1.7,1.4-3.1,2.8-4c1-0.7,2.2-1,3.4-1
			c1.7,0,3.2,0.6,4.4,1.7c1.2-1.1,2.7-1.8,4.4-1.8c1.2,0,2.4,0.3,3.4,1c2.8,1.7,3.8,5.3,2.4,8.2c0,0,0,0,0,0c0.4,0.5,0.9,1,1.2,1.5
			c2.2-0.3,4.4-0.5,6.3-0.5c10.3,0,14.6,4.5,16.4,8.3c0.6,1.3,1.1,2.9,1.3,4.5c0.2,1.4,0.1,3.1-0.3,4.7l-0.2,0.8
			c-0.3,1.6-1,3.2-1.7,4.4c-0.8,1.4-1.9,2.6-3,3.6c-2.5,2.1-5.6,3.2-9,3.2c0,0,0,0,0,0c-1.5,0-3-0.2-4.6-0.6l0,0.6
			c0,0.9-0.1,1.9-0.2,2.8c0,0.1,0,0.2,0,0.2c0,0.1,0,0.2-0.1,0.3c-0.1,0.4-0.2,0.7-0.3,1.1c0,0.1-0.1,0.3-0.1,0.5
			c-0.2,0.6-0.4,1.1-0.6,1.6c-0.1,0.2-0.1,0.3-0.2,0.5c-0.2,0.3-0.3,0.7-0.5,1.1c-0.1,0.2-0.2,0.3-0.3,0.5c-0.2,0.3-0.4,0.6-0.5,0.9
			c-0.1,0.1-0.1,0.2-0.2,0.3c-0.1,0.1-0.1,0.2-0.2,0.3c-1.8,2.5-4.3,4.4-7,5.5l0,1c0,1.7-0.7,3.3-1.9,4.5
			C111.8,234.7,110.2,235.4,108.5,235.4C108.5,235.4,108.5,235.4,108.5,235.4z"/>
		<path class="st1" d="M112.7,177.7c0.3,0,0.5,0.1,0.8,0.2c0.7,0.4,0.9,1.3,0.5,2l-2.1,3.3c1.1,0.5,2.1,1.2,3,2.1
			c1,1.1,1.7,2.4,2.1,3.7c2.6-0.6,5.9-1.1,9.2-1.1c5,0,9.9,1.2,11.9,5.5c0.4,0.9,0.7,1.9,0.8,2.9c0.1,0.9,0,2.1-0.2,3.1
			c-0.1,0.3-0.1,0.5-0.2,0.8c-0.2,0.9-0.6,2.1-1.1,2.9c-0.5,0.9-1.2,1.7-1.9,2.4c-1.7,1.4-3.6,2-5.7,2c-3.1,0-6.5-1.3-9.6-2.9
			c0,0.1,0,0.3,0,0.4l0,1.5h0l0,4.6h0l0,1.5c0,0.8-0.1,1.5-0.2,2.2h0c0,0,0,0.1,0,0.1c-0.1,0.3-0.1,0.6-0.2,0.9
			c0,0.1-0.1,0.2-0.1,0.3c-0.1,0.4-0.3,0.8-0.4,1.1c0,0.1-0.1,0.2-0.2,0.3c-0.1,0.3-0.2,0.5-0.4,0.8c-0.1,0.1-0.2,0.3-0.2,0.4
			c-0.1,0.2-0.3,0.4-0.4,0.6c0,0,0,0.1-0.1,0.1l0,0c-1.9,2.6-4.8,4.5-8.2,4.9l0,4.8c0,0.8-0.6,1.4-1.4,1.4c0,0,0,0,0,0
			c-0.8,0-1.4-0.6-1.4-1.4l0-4.8c-3.4-0.4-6.3-2.2-8.2-4.9l0,0c0,0,0-0.1-0.1-0.1c-0.1-0.2-0.3-0.4-0.4-0.6
			c-0.1-0.1-0.2-0.3-0.2-0.4c-0.1-0.3-0.3-0.5-0.4-0.8c0-0.1-0.1-0.2-0.1-0.3c-0.2-0.4-0.3-0.7-0.4-1.1c0-0.1,0-0.2-0.1-0.3
			c-0.1-0.3-0.2-0.6-0.2-0.9c0,0,0,0,0-0.1h0c-0.1-0.7-0.2-1.4-0.2-2.2l0-7.5c0-0.1,0-0.3,0-0.4c-3.1,1.7-6.5,3-9.7,3
			c-2.1,0-4-0.6-5.7-2c-0.8-0.6-1.4-1.4-2-2.3c-0.5-0.8-0.9-1.9-1.1-2.9c-0.1-0.3-0.1-0.5-0.2-0.8c-0.2-0.9-0.3-2.2-0.2-3.1
			c0.1-1,0.4-2,0.8-2.9c2-4.3,7-5.5,12.1-5.5c3.2,0,6.5,0.5,9,1c0.4-1.6,1.3-3.1,2.6-4.3c0.8-0.7,1.6-1.2,2.5-1.6l-2.1-3.3
			c-0.4-0.7-0.2-1.5,0.4-2c0.2-0.1,0.5-0.2,0.8-0.2c0.5,0,0.9,0.2,1.2,0.7l2.4,3.8c0.1,0.1,0.1,0.2,0.1,0.3c0.2,0,0.4,0,0.7,0
			c0.2,0,0.4,0,0.7,0c0-0.1,0.1-0.2,0.1-0.3l2.4-3.8C111.8,177.9,112.3,177.7,112.7,177.7 M112.7,167.7
			C112.7,167.7,112.7,167.7,112.7,167.7C112.7,167.7,112.7,167.7,112.7,167.7c-1.6,0-3.1,0.3-4.4,0.9c-1.4-0.6-2.8-0.9-4.4-0.9
			c-2.2,0-4.3,0.6-6.1,1.8c-2.6,1.6-4.4,4.2-5,7.1c-0.1,0.5-0.2,0.9-0.2,1.4c-0.6,0-1.2,0-1.8,0c-13.7,0-19.1,7.1-21.1,11.3
			c-0.9,1.8-1.4,3.9-1.7,6.1c-0.3,2.7,0.1,5.3,0.4,6.3l0.2,0.8c0.2,1,0.9,3.6,2.3,5.9c1.1,1.9,2.5,3.5,4.1,4.8
			c3.4,2.8,7.5,4.3,12.1,4.3c0.1,0,0.2,0,0.3,0c0.1,0.3,0.1,0.5,0.2,0.8c0.1,0.2,0.1,0.4,0.2,0.7c0.2,0.7,0.5,1.4,0.8,2.1
			c0.1,0.2,0.2,0.4,0.3,0.7c0.2,0.4,0.4,0.8,0.7,1.3c0.1,0.3,0.3,0.5,0.4,0.7c0.1,0.2,0.3,0.5,0.6,0.9c0.1,0.1,0.2,0.3,0.3,0.4
			c0.1,0.2,0.2,0.3,0.4,0.5c1.7,2.2,3.8,4.1,6.2,5.5c1,5.3,5.7,9.3,11.2,9.3c3.1,0,5.9-1.2,8.1-3.4c1.6-1.7,2.7-3.7,3.1-6
			c2.4-1.4,4.5-3.3,6.2-5.6c0.1-0.2,0.2-0.3,0.4-0.5c0.1-0.1,0.2-0.3,0.3-0.4c0.2-0.4,0.4-0.7,0.6-0.9c0.1-0.2,0.3-0.5,0.4-0.7
			c0.3-0.5,0.5-0.9,0.6-1.3c0.1-0.2,0.2-0.5,0.3-0.7c0.3-0.7,0.5-1.4,0.8-2.1c0.1-0.2,0.1-0.5,0.2-0.7c0.1-0.2,0.1-0.4,0.2-0.7
			c0,0,0.1,0,0.1,0c4.6,0,8.9-1.5,12.2-4.4c1.5-1.3,2.9-2.9,4-4.8c1.4-2.4,2.1-4.9,2.3-5.9l0.2-0.8c0.2-1,0.7-3.6,0.3-6.3
			c-0.3-2.2-0.8-4.2-1.7-6c-2-4.2-7.4-11.2-20.9-11.2c-0.7,0-1.4,0-2.1,0.1c-0.3-3.4-2.2-6.6-5.3-8.5
			C117,168.3,114.9,167.7,112.7,167.7L112.7,167.7L112.7,167.7z"/>
	</g>
	<g>
		<path class="st1" d="M50.7,207.7c-3.5,0-6.4-2.9-6.4-6.4l0-1c-2.8-1.1-5.2-3-7-5.5c-0.1-0.1-0.2-0.2-0.2-0.3
			c-0.1-0.1-0.1-0.2-0.2-0.3c-0.2-0.2-0.3-0.5-0.5-0.7l-0.1-0.1c-0.1-0.2-0.2-0.3-0.3-0.5c-0.2-0.4-0.4-0.7-0.6-1.1
			c-0.1-0.1-0.1-0.3-0.2-0.4c-0.2-0.5-0.4-1.1-0.6-1.6c0-0.2-0.1-0.3-0.1-0.5c-0.1-0.4-0.2-0.8-0.3-1.1c0-0.1,0-0.2-0.1-0.3
			c0-0.1,0-0.2,0-0.2c-0.2-1-0.3-1.9-0.3-2.8l0-0.6c-1.6,0.4-3.2,0.6-4.7,0.6c0,0,0,0,0,0c-3.4,0-6.5-1.1-8.9-3.1
			c-1.1-1-2.1-2.2-3-3.6c-0.7-1.2-1.4-2.8-1.7-4.4l-0.2-0.8c-0.3-1.6-0.4-3.3-0.3-4.7c0.2-1.6,0.6-3.1,1.2-4.5
			c1.8-3.8,6.2-8.4,16.6-8.4c1.9,0,4,0.2,6.1,0.5c0.4-0.6,0.8-1.1,1.2-1.6c-1.4-2.9-0.4-6.4,2.4-8.2c1-0.7,2.2-1,3.4-1
			c1.7,0,3.2,0.6,4.4,1.7c1.2-1.1,2.7-1.8,4.4-1.8c1.2,0,2.4,0.3,3.4,1c2.8,1.7,3.8,5.3,2.4,8.2c0,0,0,0,0,0c0.4,0.5,0.9,1,1.2,1.5
			c2.2-0.3,4.4-0.5,6.3-0.5c10.3,0,14.6,4.5,16.4,8.3c0.6,1.3,1.1,2.9,1.3,4.5c0.2,1.4,0.1,3.1-0.3,4.7l-0.2,0.8
			c-0.3,1.6-1,3.2-1.7,4.4c-0.8,1.4-1.9,2.6-3,3.6c-2.5,2.1-5.6,3.2-9,3.2c-1.5,0-3-0.2-4.6-0.6l0,0.6c0,0.9-0.1,1.9-0.2,2.8
			c0,0.1,0,0.2,0,0.3c0,0.1,0,0.2-0.1,0.2c-0.1,0.4-0.2,0.7-0.3,1.1c0,0.1-0.1,0.3-0.1,0.5c-0.2,0.6-0.4,1.1-0.6,1.6
			c-0.1,0.2-0.1,0.3-0.2,0.5c-0.2,0.3-0.3,0.7-0.5,1.1c-0.1,0.2-0.2,0.3-0.3,0.5c-0.2,0.3-0.4,0.6-0.5,0.8c-0.1,0.1-0.1,0.2-0.2,0.3
			c-0.1,0.1-0.1,0.2-0.2,0.3c-1.8,2.5-4.3,4.4-7,5.5l0,1c0,1.7-0.7,3.3-1.9,4.5C54.1,207,52.5,207.7,50.7,207.7
			C50.7,207.7,50.7,207.7,50.7,207.7z"/>
		<path class="st1" d="M55,150c0.3,0,0.5,0.1,0.8,0.2c0.7,0.4,0.9,1.3,0.5,2l-2.1,3.3c1.1,0.5,2.1,1.2,3,2.1c1,1.1,1.7,2.4,2.1,3.7
			c2.6-0.6,5.9-1.1,9.2-1.1c5,0,9.9,1.2,11.9,5.5c0.4,0.9,0.7,1.9,0.8,2.9c0.1,0.9,0,2.1-0.2,3.1c-0.1,0.3-0.1,0.5-0.2,0.8
			c-0.2,0.9-0.6,2.1-1.1,2.9c-0.5,0.9-1.2,1.7-1.9,2.4c-1.7,1.4-3.6,2-5.7,2c-3.1,0-6.5-1.3-9.6-2.9c0,0.1,0,0.3,0,0.4l0,1.5h0
			l0,4.6h0l0,1.5c0,0.8-0.1,1.5-0.2,2.2h0c0,0,0,0.1,0,0.1c-0.1,0.3-0.1,0.6-0.2,0.9c0,0.1-0.1,0.2-0.1,0.3
			c-0.1,0.4-0.3,0.8-0.4,1.1c0,0.1-0.1,0.2-0.2,0.3c-0.1,0.3-0.2,0.5-0.4,0.8c-0.1,0.1-0.2,0.3-0.2,0.4c-0.1,0.2-0.3,0.4-0.4,0.6
			c0,0,0,0.1-0.1,0.1l0,0c-1.9,2.6-4.8,4.5-8.2,4.9l0,4.8c0,0.8-0.6,1.4-1.4,1.4c0,0,0,0,0,0c-0.8,0-1.4-0.6-1.4-1.4l0-4.8
			c-3.4-0.4-6.3-2.2-8.2-4.9l0,0c0,0,0-0.1-0.1-0.1c-0.1-0.2-0.3-0.4-0.4-0.6c-0.1-0.1-0.2-0.3-0.2-0.4c-0.1-0.3-0.3-0.5-0.4-0.8
			c0-0.1-0.1-0.2-0.1-0.3c-0.2-0.4-0.3-0.7-0.4-1.1c0-0.1,0-0.2-0.1-0.3c-0.1-0.3-0.2-0.6-0.2-0.9c0,0,0,0,0-0.1h0
			c-0.1-0.7-0.2-1.4-0.2-2.2l0-7.5c0-0.1,0-0.3,0-0.4c-3.1,1.7-6.5,3-9.7,3c-2.1,0-4-0.6-5.7-2c-0.8-0.6-1.4-1.4-2-2.3
			c-0.5-0.8-0.9-1.9-1.1-2.9c-0.1-0.3-0.1-0.5-0.2-0.8c-0.2-0.9-0.3-2.2-0.2-3.1c0.1-1,0.4-2,0.8-2.9c2-4.3,7-5.5,12.1-5.5
			c3.2,0,6.5,0.5,9,1c0.4-1.6,1.3-3.1,2.6-4.3c0.8-0.7,1.6-1.2,2.5-1.6l-2.1-3.3c-0.4-0.7-0.2-1.5,0.4-2c0.2-0.1,0.5-0.2,0.8-0.2
			c0.5,0,0.9,0.2,1.2,0.7l2.4,3.8c0.1,0.1,0.1,0.2,0.1,0.3c0.2,0,0.4,0,0.7,0c0.2,0,0.4,0,0.7,0c0-0.1,0.1-0.2,0.1-0.3l2.4-3.8
			C54.1,150.2,54.5,150,55,150 M55,140C55,140,55,140,55,140c-1.6,0-3.1,0.3-4.4,0.9c-1.4-0.6-2.8-0.9-4.4-0.9
			c-2.2,0-4.3,0.6-6.1,1.8c-2.6,1.6-4.4,4.2-5,7.1c-0.1,0.5-0.2,0.9-0.2,1.4c-0.6,0-1.2,0-1.8,0c-13.7,0-19.1,7.1-21.1,11.3
			c-0.9,1.8-1.4,3.9-1.7,6.1c-0.3,2.7,0.1,5.3,0.4,6.3l0.2,0.7c0.2,1,0.9,3.6,2.3,6c1.1,1.9,2.5,3.5,4.1,4.8
			c3.4,2.8,7.5,4.3,12.1,4.3c0.1,0,0.2,0,0.3,0c0.1,0.3,0.1,0.5,0.2,0.8c0.1,0.2,0.1,0.4,0.2,0.7c0.2,0.7,0.5,1.4,0.8,2.1
			c0.1,0.2,0.2,0.4,0.3,0.7c0.2,0.4,0.4,0.8,0.7,1.3c0.1,0.3,0.3,0.5,0.4,0.7c0.1,0.2,0.3,0.5,0.6,0.9c0.1,0.1,0.2,0.3,0.3,0.4
			c0.1,0.2,0.3,0.3,0.4,0.5c1.7,2.2,3.8,4.1,6.2,5.5c1,5.3,5.7,9.3,11.2,9.3c3.1,0,5.9-1.2,8.1-3.4c1.6-1.7,2.7-3.7,3.1-6
			c2.4-1.4,4.5-3.3,6.2-5.6c0.1-0.2,0.2-0.3,0.4-0.5c0.1-0.1,0.2-0.3,0.3-0.4c0.2-0.4,0.4-0.7,0.6-0.9c0.1-0.2,0.3-0.5,0.4-0.7
			c0.3-0.5,0.5-0.9,0.6-1.3c0.1-0.2,0.2-0.5,0.3-0.7c0.3-0.7,0.5-1.4,0.8-2.1c0.1-0.2,0.1-0.5,0.2-0.7c0.1-0.2,0.1-0.4,0.2-0.7
			c0,0,0.1,0,0.1,0c4.6,0,8.9-1.5,12.2-4.4c1.5-1.3,2.9-2.9,4-4.8c1.4-2.4,2.1-4.9,2.3-5.9l0.2-0.8c0.2-1,0.7-3.6,0.3-6.3
			c-0.3-2.2-0.8-4.2-1.7-6c-2-4.2-7.4-11.2-20.9-11.2c-0.7,0-1.4,0-2.1,0.1c-0.3-3.4-2.2-6.6-5.3-8.5C59.2,140.6,57.1,140,55,140
			L55,140z"/>
	</g>
	<g>
		<path class="st1" d="M108.5,302.4c-3.5,0-6.4-2.9-6.4-6.4l0-1c-2.8-1.1-5.2-3-7-5.5c-0.1-0.1-0.2-0.2-0.2-0.3
			c-0.1-0.1-0.1-0.2-0.2-0.3c-0.2-0.2-0.3-0.5-0.5-0.7l-0.1-0.1c-0.1-0.2-0.2-0.3-0.3-0.5c-0.2-0.4-0.4-0.7-0.6-1.1
			c-0.1-0.1-0.1-0.3-0.2-0.4c-0.2-0.5-0.4-1.1-0.6-1.6c-0.1-0.2-0.1-0.3-0.1-0.5c-0.1-0.3-0.2-0.7-0.3-1.1c0-0.1,0-0.1,0-0.2
			c0-0.1,0-0.2-0.1-0.3c-0.2-1-0.3-1.9-0.3-2.8l0-0.6c-1.6,0.4-3.2,0.6-4.7,0.6c-3.4,0-6.5-1.1-8.9-3.1c-1.1-1-2.1-2.2-3-3.6
			c-0.7-1.2-1.4-2.8-1.7-4.4l-0.2-0.8c-0.3-1.6-0.4-3.3-0.3-4.7c0.2-1.6,0.6-3.1,1.2-4.5c1.8-3.8,6.2-8.4,16.6-8.4
			c1.9,0,4,0.2,6.1,0.5c0.4-0.6,0.8-1.1,1.2-1.6c-0.6-1.3-0.8-2.7-0.5-4.2c0.4-1.7,1.4-3.1,2.8-4c1-0.7,2.2-1,3.4-1
			c1.7,0,3.2,0.6,4.4,1.7c1.2-1.1,2.7-1.8,4.4-1.8c1.2,0,2.4,0.3,3.4,1c2.8,1.7,3.8,5.3,2.4,8.2c0,0,0,0,0,0c0.5,0.5,0.9,1,1.2,1.5
			c2.2-0.3,4.4-0.5,6.3-0.5c10.3,0,14.6,4.5,16.4,8.3c0.6,1.3,1.1,2.9,1.3,4.5c0.2,1.4,0.1,3.1-0.3,4.7l-0.2,0.8
			c-0.3,1.6-1,3.2-1.7,4.4c-0.8,1.4-1.8,2.6-3,3.6c-2.5,2.1-5.6,3.2-9,3.2c0,0,0,0,0,0c-1.5,0-3-0.2-4.6-0.6l0,0.6
			c0,0.9-0.1,1.9-0.2,2.8c0,0.1,0,0.2,0,0.2c0,0.1,0,0.2-0.1,0.3c-0.1,0.4-0.2,0.7-0.3,1.1c0,0.1-0.1,0.3-0.1,0.5
			c-0.2,0.6-0.4,1.1-0.6,1.6c-0.1,0.2-0.2,0.3-0.2,0.5c-0.2,0.3-0.3,0.7-0.5,1.1c-0.1,0.2-0.2,0.3-0.3,0.5c-0.2,0.3-0.4,0.6-0.5,0.9
			c-0.1,0.1-0.1,0.2-0.2,0.3c-0.1,0.1-0.1,0.2-0.2,0.3c-1.8,2.5-4.3,4.4-7,5.5l0,1c0,1.7-0.7,3.3-1.9,4.5
			C111.8,301.7,110.2,302.4,108.5,302.4C108.5,302.4,108.5,302.4,108.5,302.4z"/>
		<path class="st1" d="M112.7,244.7c0.3,0,0.5,0.1,0.8,0.2c0.7,0.4,0.9,1.3,0.5,2l-2.1,3.3c1.1,0.5,2.1,1.2,3,2.1
			c1,1.1,1.7,2.4,2.1,3.7c2.6-0.6,5.9-1.1,9.2-1.1c5,0,9.9,1.2,11.9,5.5c0.4,0.9,0.7,1.9,0.8,2.9c0.1,0.9,0,2.1-0.2,3.1
			c-0.1,0.3-0.1,0.5-0.2,0.8c-0.2,0.9-0.6,2.1-1.1,2.9c-0.5,0.9-1.2,1.7-1.9,2.4c-1.7,1.4-3.6,2-5.7,2c-3.1,0-6.5-1.3-9.6-2.9
			c0,0.1,0,0.3,0,0.4l0,1.5h0l0,4.6h0l0,1.5c0,0.8-0.1,1.5-0.2,2.2h0c0,0,0,0.1,0,0.1c-0.1,0.3-0.1,0.6-0.2,0.9
			c0,0.1-0.1,0.2-0.1,0.3c-0.1,0.4-0.3,0.8-0.4,1.1c0,0.1-0.1,0.2-0.2,0.3c-0.1,0.3-0.2,0.5-0.4,0.8c-0.1,0.1-0.2,0.3-0.2,0.4
			c-0.1,0.2-0.3,0.4-0.4,0.6c0,0,0,0.1-0.1,0.1l0,0c-1.9,2.6-4.8,4.5-8.2,4.9l0,4.8c0,0.8-0.6,1.4-1.4,1.4c0,0,0,0,0,0
			c-0.8,0-1.4-0.6-1.4-1.4l0-4.8c-3.4-0.4-6.3-2.2-8.2-4.9l0,0c0,0,0-0.1-0.1-0.1c-0.1-0.2-0.3-0.4-0.4-0.6
			c-0.1-0.1-0.2-0.3-0.2-0.4c-0.1-0.3-0.3-0.5-0.4-0.8c0-0.1-0.1-0.2-0.1-0.3c-0.2-0.4-0.3-0.7-0.4-1.1c0-0.1,0-0.2-0.1-0.3
			c-0.1-0.3-0.2-0.6-0.2-0.9c0,0,0,0,0-0.1h0c-0.1-0.7-0.2-1.4-0.2-2.2l0-7.5c0-0.1,0-0.3,0-0.4c-3.1,1.7-6.5,3-9.7,3
			c-2.1,0-4-0.6-5.7-2c-0.8-0.6-1.4-1.4-2-2.3c-0.5-0.8-0.9-1.9-1.1-2.9c-0.1-0.3-0.1-0.5-0.2-0.8c-0.2-0.9-0.3-2.2-0.2-3.1
			c0.1-1,0.4-2,0.8-2.9c2-4.3,7-5.5,12.1-5.5c3.2,0,6.5,0.5,9,1c0.4-1.6,1.3-3.1,2.6-4.3c0.8-0.7,1.6-1.2,2.5-1.6l-2.1-3.3
			c-0.4-0.7-0.2-1.5,0.4-2c0.2-0.1,0.5-0.2,0.8-0.2c0.5,0,0.9,0.2,1.2,0.7l2.4,3.8c0.1,0.1,0.1,0.2,0.1,0.3c0.2,0,0.4,0,0.7,0
			c0.2,0,0.4,0,0.7,0c0-0.1,0.1-0.2,0.1-0.3l2.4-3.8C111.8,244.9,112.3,244.7,112.7,244.7 M112.7,234.7
			C112.7,234.7,112.7,234.7,112.7,234.7c-1.6,0-3.1,0.3-4.4,0.9c-1.4-0.6-2.8-0.9-4.4-0.9c-2.2,0-4.3,0.6-6.1,1.8
			c-3.1,2-4.9,5.2-5.3,8.6c-0.6,0-1.2,0-1.8,0c-13.7,0-19.1,7.1-21.1,11.3c-0.9,1.8-1.4,3.9-1.7,6.1c-0.3,2.7,0.1,5.3,0.4,6.3
			l0.2,0.8c0.2,1,0.9,3.6,2.3,5.9c1.1,1.9,2.5,3.5,4.1,4.8c3.4,2.8,7.5,4.3,12.1,4.3c0.1,0,0.2,0,0.3,0c0.1,0.3,0.1,0.5,0.2,0.8
			c0.1,0.2,0.1,0.4,0.2,0.7c0.2,0.7,0.5,1.4,0.8,2.1c0.1,0.2,0.2,0.4,0.3,0.7c0.2,0.4,0.4,0.8,0.7,1.3c0.1,0.3,0.3,0.5,0.4,0.7
			c0.1,0.2,0.3,0.5,0.6,0.9c0.1,0.1,0.2,0.3,0.3,0.4c0.1,0.2,0.2,0.3,0.4,0.5c1.7,2.2,3.8,4.1,6.2,5.5c1,5.3,5.7,9.3,11.2,9.3
			c3.1,0,5.9-1.2,8.1-3.4c1.6-1.7,2.7-3.7,3.1-6c2.4-1.4,4.5-3.3,6.2-5.6c0.1-0.2,0.2-0.3,0.4-0.5c0.1-0.1,0.2-0.3,0.3-0.4
			c0.2-0.4,0.4-0.7,0.6-0.9c0.1-0.2,0.3-0.5,0.4-0.7c0.3-0.5,0.5-0.9,0.6-1.3c0.1-0.2,0.2-0.5,0.3-0.7c0.3-0.7,0.5-1.4,0.8-2.1
			c0.1-0.2,0.1-0.5,0.2-0.7c0.1-0.2,0.1-0.4,0.2-0.7c0,0,0.1,0,0.1,0c4.6,0,8.9-1.5,12.2-4.4c1.5-1.3,2.9-2.9,4-4.8
			c1.4-2.4,2.1-4.9,2.3-5.9l0.2-0.8c0.2-1,0.7-3.6,0.3-6.3c-0.3-2.2-0.8-4.2-1.7-6c-2-4.2-7.4-11.2-20.9-11.2c-0.7,0-1.4,0-2.1,0.1
			c-0.3-3.4-2.2-6.6-5.3-8.5C117,235.3,114.9,234.7,112.7,234.7L112.7,234.7z"/>
	</g>
	<g>
		<path class="st1" d="M50.7,274.7c-3.5,0-6.4-2.9-6.4-6.4l0-1c-2.8-1.1-5.2-3-7-5.5c-0.1-0.1-0.2-0.2-0.2-0.3
			c-0.1-0.1-0.1-0.2-0.2-0.3c-0.1-0.2-0.3-0.5-0.5-0.7c-0.2-0.2-0.3-0.4-0.4-0.6c-0.2-0.4-0.4-0.7-0.5-1.1c-0.1-0.1-0.1-0.3-0.2-0.4
			c-0.2-0.5-0.4-1.1-0.6-1.6c-0.1-0.2-0.1-0.3-0.1-0.5c-0.1-0.3-0.2-0.7-0.3-1.1c0-0.1,0-0.2-0.1-0.3c0-0.1,0-0.2,0-0.2
			c-0.2-1-0.3-1.9-0.3-2.8l0-0.6c-1.6,0.4-3.2,0.6-4.7,0.6c0,0,0,0,0,0c-3.4,0-6.4-1.1-8.9-3.1c-1.1-1-2.1-2.2-3-3.6
			c-0.7-1.2-1.4-2.8-1.7-4.4l-0.2-0.8c-0.3-1.6-0.4-3.3-0.3-4.7c0.2-1.6,0.6-3.1,1.2-4.5c1.8-3.8,6.2-8.4,16.6-8.4
			c1.9,0,4,0.2,6.1,0.5c0.4-0.6,0.8-1.1,1.2-1.6c-0.6-1.3-0.8-2.7-0.5-4.2c0.4-1.7,1.4-3.1,2.8-4c1-0.7,2.2-1,3.4-1
			c1.7,0,3.2,0.6,4.4,1.7c1.2-1.1,2.7-1.8,4.4-1.8c1.2,0,2.4,0.3,3.4,1c2.8,1.7,3.8,5.3,2.4,8.2c0,0,0,0,0,0c0.4,0.5,0.9,1,1.2,1.5
			c2.2-0.3,4.4-0.5,6.3-0.5c10.3,0,14.6,4.5,16.4,8.3c0.6,1.3,1.1,2.9,1.3,4.5c0.2,1.4,0.1,3.1-0.3,4.7l-0.2,0.8
			c-0.3,1.6-1,3.2-1.7,4.4c-0.9,1.4-1.9,2.6-3,3.6c-2.5,2.1-5.6,3.2-9,3.2c-1.5,0-3-0.2-4.6-0.6l0,0.6c0,0.9-0.1,1.9-0.2,2.8
			c0,0.1,0,0.2-0.1,0.3c0,0.1,0,0.2-0.1,0.2c-0.1,0.4-0.2,0.7-0.3,1.1c0,0.1-0.1,0.3-0.1,0.5c-0.2,0.6-0.4,1.1-0.6,1.6
			c-0.1,0.2-0.1,0.3-0.2,0.5c-0.2,0.3-0.3,0.7-0.5,1.1c-0.1,0.2-0.2,0.3-0.3,0.5c-0.2,0.3-0.4,0.6-0.5,0.8c-0.1,0.1-0.1,0.2-0.2,0.3
			c-0.1,0.1-0.1,0.2-0.2,0.3c-1.8,2.5-4.3,4.4-7,5.5l0,1c0,1.7-0.7,3.3-1.9,4.5C54.1,274,52.5,274.7,50.7,274.7
			C50.7,274.7,50.7,274.7,50.7,274.7z"/>
		<path class="st1" d="M55,217c0.3,0,0.5,0.1,0.8,0.2c0.7,0.4,0.9,1.3,0.5,2l-2.1,3.3c1.1,0.5,2.1,1.2,3,2.1c1,1.1,1.7,2.4,2.1,3.7
			c2.6-0.6,5.9-1.1,9.2-1.1c5,0,9.9,1.2,11.9,5.5c0.4,0.9,0.7,1.9,0.8,2.9c0.1,0.9,0,2.1-0.2,3.1c-0.1,0.3-0.1,0.5-0.2,0.8
			c-0.2,0.9-0.6,2.1-1.1,2.9c-0.5,0.9-1.2,1.7-1.9,2.4c-1.7,1.4-3.6,2-5.7,2c-3.1,0-6.5-1.3-9.6-2.9c0,0.1,0,0.3,0,0.4l0,1.5h0
			l0,4.6h0l0,1.5c0,0.8-0.1,1.5-0.2,2.2h0c0,0,0,0.1,0,0.1c-0.1,0.3-0.1,0.6-0.2,0.9c0,0.1-0.1,0.2-0.1,0.3
			c-0.1,0.4-0.3,0.8-0.4,1.1c0,0.1-0.1,0.2-0.2,0.3c-0.1,0.3-0.2,0.5-0.4,0.8c-0.1,0.1-0.2,0.3-0.2,0.4c-0.1,0.2-0.3,0.4-0.4,0.6
			c0,0,0,0.1-0.1,0.1l0,0c-1.9,2.6-4.8,4.5-8.2,4.9l0,4.8c0,0.8-0.6,1.4-1.4,1.4c0,0,0,0,0,0c-0.8,0-1.4-0.6-1.4-1.4l0-4.8
			c-3.4-0.4-6.3-2.2-8.2-4.9l0,0c0,0,0-0.1-0.1-0.1c-0.1-0.2-0.3-0.4-0.4-0.6c-0.1-0.1-0.2-0.3-0.2-0.4c-0.1-0.3-0.3-0.5-0.4-0.8
			c0-0.1-0.1-0.2-0.1-0.3c-0.2-0.4-0.3-0.7-0.4-1.1c0-0.1,0-0.2-0.1-0.3c-0.1-0.3-0.2-0.6-0.2-0.9c0,0,0,0,0-0.1h0
			c-0.1-0.7-0.2-1.4-0.2-2.2l0-7.5c0-0.1,0-0.3,0-0.4c-3.1,1.7-6.5,3-9.7,3c-2.1,0-4-0.6-5.7-2c-0.8-0.6-1.4-1.4-2-2.3
			c-0.5-0.8-0.9-1.9-1.1-2.9c-0.1-0.3-0.1-0.5-0.2-0.8c-0.2-0.9-0.3-2.2-0.2-3.1c0.1-1,0.4-2,0.8-2.9c2-4.3,7-5.5,12.1-5.5
			c3.2,0,6.5,0.5,9,1c0.4-1.6,1.3-3.1,2.6-4.3c0.8-0.7,1.6-1.2,2.5-1.6l-2.1-3.3c-0.4-0.7-0.2-1.5,0.4-2c0.2-0.1,0.5-0.2,0.8-0.2
			c0.5,0,0.9,0.2,1.2,0.7l2.4,3.8c0.1,0.1,0.1,0.2,0.1,0.3c0.2,0,0.4,0,0.7,0c0.2,0,0.4,0,0.7,0c0-0.1,0.1-0.2,0.1-0.3l2.4-3.8
			C54.1,217.2,54.5,217,55,217 M55,207C55,207,55,207,55,207c-1.6,0-3.1,0.3-4.4,0.9c-1.4-0.6-2.8-0.9-4.4-0.9
			c-2.2,0-4.3,0.6-6.1,1.8c-2.6,1.6-4.4,4.2-5,7.1c-0.1,0.5-0.2,0.9-0.2,1.4c-0.6,0-1.2,0-1.8,0c-13.7,0-19.1,7.1-21.1,11.3
			c-0.9,1.8-1.4,3.9-1.7,6.1c-0.3,2.7,0.1,5.3,0.4,6.3l0.2,0.8c0.2,1,0.9,3.6,2.3,6c1.1,1.9,2.5,3.5,4.1,4.8
			c3.4,2.8,7.5,4.3,12.1,4.3c0.1,0,0.2,0,0.3,0c0.1,0.3,0.1,0.6,0.2,0.8c0.1,0.2,0.1,0.4,0.2,0.7c0.2,0.7,0.5,1.4,0.8,2.1
			c0.1,0.2,0.2,0.5,0.3,0.7c0.2,0.4,0.4,0.8,0.7,1.3c0.1,0.3,0.3,0.5,0.4,0.7l8.5-5.2l-8.5,5.3c0.1,0.2,0.3,0.5,0.5,0.8
			c0.1,0.1,0.2,0.3,0.3,0.4c0.1,0.2,0.2,0.3,0.4,0.5c1.7,2.2,3.8,4.1,6.2,5.5c1,5.3,5.7,9.3,11.2,9.3c3.1,0,5.9-1.2,8.1-3.4
			c1.6-1.7,2.7-3.7,3.1-6c2.4-1.4,4.5-3.3,6.2-5.6c0.1-0.2,0.2-0.3,0.4-0.5c0.1-0.1,0.2-0.3,0.3-0.4c0.3-0.4,0.4-0.7,0.6-0.9
			c0.1-0.2,0.3-0.5,0.4-0.7c0.3-0.5,0.5-0.9,0.6-1.3c0.1-0.2,0.2-0.5,0.3-0.7c0.3-0.7,0.5-1.4,0.8-2.1c0.1-0.2,0.1-0.5,0.2-0.7
			c0.1-0.2,0.1-0.4,0.2-0.7c0,0,0.1,0,0.1,0c4.6,0,8.9-1.5,12.2-4.4c1.5-1.3,2.9-2.9,4-4.8c1.4-2.4,2.1-4.9,2.3-5.9l0.2-0.8
			c0.2-1,0.7-3.6,0.3-6.3c-0.3-2.2-0.8-4.2-1.7-6c-2-4.2-7.4-11.2-20.9-11.2c-0.7,0-1.4,0-2.1,0.1c-0.3-3.4-2.2-6.6-5.3-8.5
			C59.2,207.6,57.1,207,55,207L55,207z"/>
	</g>
	<g>
		<path class="st1" d="M108.5,367.1c-3.5,0-6.4-2.9-6.4-6.4l0-1c-2.8-1.1-5.2-3-7-5.5c-0.1-0.1-0.2-0.2-0.2-0.3
			c-0.1-0.1-0.1-0.2-0.2-0.3c-0.2-0.2-0.3-0.5-0.5-0.7l-0.1-0.1c-0.1-0.2-0.2-0.3-0.3-0.5c-0.2-0.4-0.4-0.7-0.6-1.1
			c-0.1-0.1-0.1-0.3-0.2-0.4c-0.2-0.5-0.4-1.1-0.6-1.6c0-0.1-0.1-0.3-0.1-0.5c-0.1-0.3-0.2-0.7-0.3-1.1c0-0.1,0-0.1,0-0.2
			c0-0.1,0-0.2-0.1-0.3c-0.2-1-0.3-1.9-0.3-2.8l0-0.6c-1.6,0.4-3.2,0.6-4.7,0.6c-3.4,0-6.5-1.1-8.9-3.1c-1.1-1-2.1-2.2-3-3.6
			c-0.7-1.2-1.4-2.8-1.7-4.4l-0.2-0.8c-0.3-1.6-0.4-3.3-0.3-4.7c0.2-1.6,0.6-3.1,1.2-4.5c1.8-3.8,6.2-8.4,16.6-8.4
			c1.9,0,4,0.2,6.1,0.5c0.4-0.6,0.8-1.1,1.2-1.6c-0.6-1.3-0.8-2.7-0.5-4.2c0.4-1.7,1.4-3.1,2.8-4c1-0.7,2.2-1,3.4-1
			c1.7,0,3.2,0.6,4.4,1.7c1.2-1.1,2.7-1.8,4.4-1.8c1.2,0,2.4,0.3,3.4,1c2.8,1.7,3.8,5.3,2.4,8.2c0,0,0,0,0,0c0.5,0.5,0.9,1,1.2,1.5
			c2.2-0.3,4.4-0.5,6.3-0.5c10.3,0,14.6,4.5,16.4,8.3c0.6,1.3,1.1,2.9,1.3,4.5c0.2,1.4,0.1,3.1-0.3,4.7l-0.2,0.8
			c-0.3,1.6-1,3.2-1.7,4.4c-0.8,1.4-1.8,2.6-3,3.6c-2.5,2.1-5.6,3.2-9,3.2c0,0,0,0,0,0c-1.5,0-3-0.2-4.6-0.6l0,0.6
			c0,0.9-0.1,1.9-0.2,2.8c0,0.1,0,0.2,0,0.2c0,0.1,0,0.2-0.1,0.3c-0.1,0.4-0.2,0.7-0.3,1.1c0,0.1-0.1,0.3-0.1,0.5
			c-0.2,0.6-0.4,1.1-0.6,1.6c-0.1,0.2-0.1,0.3-0.2,0.5c-0.2,0.4-0.3,0.7-0.5,1.1c-0.1,0.2-0.2,0.3-0.3,0.5c-0.2,0.3-0.4,0.6-0.5,0.8
			c-0.1,0.1-0.1,0.2-0.2,0.3c-0.1,0.1-0.1,0.2-0.2,0.3c-1.8,2.5-4.3,4.4-7,5.5l0,1c0,1.7-0.7,3.3-1.9,4.5
			C111.8,366.4,110.2,367.1,108.5,367.1C108.5,367.1,108.5,367.1,108.5,367.1z"/>
		<path class="st1" d="M112.7,309.4c0.3,0,0.5,0.1,0.8,0.2c0.7,0.4,0.9,1.3,0.5,2l-2.1,3.3c1.1,0.5,2.1,1.2,3,2.1
			c1,1.1,1.7,2.4,2.1,3.7c2.6-0.6,5.9-1.1,9.2-1.1c5,0,9.9,1.2,11.9,5.5c0.4,0.9,0.7,1.9,0.8,2.9c0.1,0.9,0,2.1-0.2,3.1
			c-0.1,0.3-0.1,0.5-0.2,0.8c-0.2,0.9-0.6,2.1-1.1,2.9c-0.5,0.9-1.2,1.7-1.9,2.4c-1.7,1.4-3.6,2-5.7,2c-3.1,0-6.5-1.3-9.6-2.9
			c0,0.1,0,0.3,0,0.4l0,1.5h0l0,4.6h0l0,1.5c0,0.8-0.1,1.5-0.2,2.2h0c0,0,0,0.1,0,0.1c-0.1,0.3-0.1,0.6-0.2,0.9
			c0,0.1-0.1,0.2-0.1,0.3c-0.1,0.4-0.3,0.8-0.4,1.1c0,0.1-0.1,0.2-0.2,0.3c-0.1,0.3-0.2,0.5-0.4,0.8c-0.1,0.1-0.2,0.3-0.2,0.4
			c-0.1,0.2-0.3,0.4-0.4,0.6c0,0,0,0.1-0.1,0.1l0,0c-1.9,2.6-4.8,4.5-8.2,4.9l0,4.8c0,0.8-0.6,1.4-1.4,1.4c0,0,0,0,0,0
			c-0.8,0-1.4-0.6-1.4-1.4l0-4.8c-3.4-0.4-6.3-2.2-8.2-4.9l0,0c0,0,0-0.1-0.1-0.1c-0.1-0.2-0.3-0.4-0.4-0.6
			c-0.1-0.1-0.2-0.3-0.2-0.4c-0.1-0.3-0.3-0.5-0.4-0.8c0-0.1-0.1-0.2-0.1-0.3c-0.2-0.4-0.3-0.7-0.4-1.1c0-0.1,0-0.2-0.1-0.3
			c-0.1-0.3-0.2-0.6-0.2-0.9c0,0,0,0,0-0.1h0c-0.1-0.7-0.2-1.4-0.2-2.2l0-7.5c0-0.1,0-0.3,0-0.4c-3.1,1.7-6.5,3-9.7,3
			c-2.1,0-4-0.6-5.7-2c-0.8-0.6-1.4-1.4-2-2.3c-0.5-0.8-0.9-1.9-1.1-2.9c-0.1-0.3-0.1-0.5-0.2-0.8c-0.2-0.9-0.3-2.2-0.2-3.1
			c0.1-1,0.4-2,0.8-2.9c2-4.3,7-5.5,12.1-5.5c3.2,0,6.5,0.5,9,1c0.4-1.6,1.3-3.1,2.6-4.3c0.8-0.7,1.6-1.2,2.5-1.6l-2.1-3.3
			c-0.4-0.7-0.2-1.5,0.4-2c0.2-0.1,0.5-0.2,0.8-0.2c0.5,0,0.9,0.2,1.2,0.7l2.4,3.8c0.1,0.1,0.1,0.2,0.1,0.3c0.2,0,0.4,0,0.7,0
			c0.2,0,0.4,0,0.7,0c0-0.1,0.1-0.2,0.1-0.3l2.4-3.8C111.8,309.6,112.3,309.4,112.7,309.4 M112.7,299.4
			C112.7,299.4,112.7,299.4,112.7,299.4C112.7,299.4,112.7,299.4,112.7,299.4c-1.6,0-3.1,0.3-4.4,0.9c-1.4-0.6-2.8-0.9-4.4-0.9
			c-2.2,0-4.3,0.6-6.1,1.8c-3.1,2-4.9,5.2-5.3,8.6c-0.6,0-1.2,0-1.8,0c-13.7,0-19.1,7.1-21.1,11.3c-0.9,1.8-1.4,3.9-1.7,6.1
			c-0.3,2.7,0.1,5.3,0.4,6.3l0.2,0.8c0.2,1,0.9,3.6,2.3,5.9c1.1,1.9,2.5,3.5,4.1,4.8c3.4,2.8,7.5,4.3,12.1,4.3c0.1,0,0.2,0,0.3,0
			c0.1,0.3,0.1,0.5,0.2,0.8c0.1,0.2,0.1,0.4,0.2,0.7c0.2,0.7,0.5,1.4,0.8,2.1c0.1,0.2,0.2,0.5,0.3,0.7c0.2,0.4,0.4,0.8,0.7,1.3
			c0.1,0.3,0.3,0.5,0.4,0.7c0.1,0.2,0.3,0.5,0.6,0.9c0.1,0.1,0.2,0.3,0.3,0.4c0.1,0.2,0.2,0.3,0.4,0.5c1.7,2.2,3.8,4.1,6.2,5.5
			c1,5.3,5.7,9.3,11.2,9.3c3.1,0,5.9-1.2,8.1-3.4c1.6-1.7,2.7-3.7,3.1-6c2.4-1.4,4.5-3.3,6.2-5.6c0.1-0.2,0.2-0.3,0.4-0.5
			c0.1-0.1,0.2-0.3,0.3-0.4c0.3-0.4,0.4-0.7,0.6-0.9c0.1-0.2,0.3-0.5,0.4-0.7c0.3-0.5,0.5-0.9,0.6-1.3c0.1-0.2,0.2-0.5,0.3-0.7
			c0.3-0.7,0.5-1.4,0.8-2.1c0.1-0.2,0.1-0.5,0.2-0.7c0.1-0.2,0.1-0.4,0.2-0.7c0,0,0.1,0,0.1,0c4.6,0,8.9-1.5,12.2-4.4
			c1.5-1.3,2.9-2.9,4-4.8c1.4-2.4,2.1-4.9,2.3-5.9l0.2-0.8c0.2-1,0.7-3.6,0.3-6.3c-0.3-2.2-0.8-4.2-1.7-6c-2-4.2-7.4-11.2-20.9-11.2
			c-0.7,0-1.4,0-2.1,0.1c-0.3-3.4-2.2-6.6-5.3-8.5C117,300,114.9,299.4,112.7,299.4L112.7,299.4L112.7,299.4z"/>
	</g>
	<g>
		<path class="st1" d="M50.7,339.4c-3.5,0-6.4-2.9-6.4-6.4l0-1c-2.8-1.1-5.2-3-7-5.5c-0.1-0.1-0.2-0.2-0.2-0.3
			c-0.1-0.1-0.1-0.2-0.2-0.3c-0.2-0.2-0.3-0.5-0.5-0.7l-0.1-0.1c-0.1-0.2-0.2-0.3-0.3-0.5c-0.2-0.4-0.4-0.7-0.6-1.1
			c-0.1-0.1-0.1-0.3-0.2-0.4c-0.2-0.5-0.4-1-0.6-1.6c0-0.1-0.1-0.3-0.1-0.5c-0.1-0.4-0.2-0.8-0.3-1.1c0-0.1,0-0.2-0.1-0.3
			c0-0.1,0-0.2,0-0.2c-0.2-1-0.3-1.9-0.3-2.8l0-0.6c-1.6,0.4-3.2,0.6-4.7,0.6c-3.4,0-6.4-1.1-8.9-3.1c-1.1-1-2.1-2.2-3-3.6
			c-0.7-1.2-1.4-2.8-1.7-4.4l-0.2-0.8c-0.3-1.6-0.4-3.3-0.3-4.7c0.2-1.6,0.6-3.1,1.2-4.5c1.8-3.8,6.2-8.4,16.6-8.4
			c1.9,0,4,0.2,6.1,0.5c0.4-0.6,0.8-1.1,1.2-1.6c-0.6-1.3-0.8-2.7-0.5-4.2c0.4-1.7,1.4-3.1,2.8-4c1-0.7,2.2-1,3.4-1
			c1.7,0,3.2,0.6,4.4,1.7c1.2-1.1,2.7-1.8,4.4-1.8c1.2,0,2.4,0.3,3.4,1c2.8,1.7,3.8,5.3,2.4,8.2c0,0,0,0,0,0c0.4,0.5,0.9,1,1.2,1.5
			c2.2-0.3,4.4-0.5,6.3-0.5c10.3,0,14.6,4.5,16.4,8.3c0.6,1.3,1.1,2.9,1.3,4.5c0.2,1.4,0.1,3.1-0.3,4.7l-0.2,0.8
			c-0.3,1.6-1,3.2-1.7,4.4c-0.8,1.4-1.9,2.6-3,3.6c-2.5,2.1-5.6,3.2-9,3.2l0,0c-1.5,0-3-0.2-4.6-0.6l0,0.6c0,0.9-0.1,1.9-0.2,2.8
			c0,0.1,0,0.2-0.1,0.3c0,0.1,0,0.2,0,0.2c-0.1,0.4-0.2,0.7-0.3,1.1c0,0.1-0.1,0.3-0.1,0.5c-0.2,0.5-0.4,1.1-0.6,1.6
			c-0.1,0.2-0.1,0.3-0.2,0.5c-0.2,0.3-0.3,0.7-0.5,1.1c-0.1,0.2-0.2,0.3-0.3,0.5c-0.2,0.3-0.4,0.6-0.5,0.8c-0.1,0.1-0.1,0.2-0.2,0.3
			c-0.1,0.1-0.1,0.2-0.2,0.3c-1.8,2.5-4.3,4.4-7,5.5l0,1c0,1.7-0.7,3.3-1.9,4.5C54.1,338.7,52.5,339.3,50.7,339.4
			C50.7,339.4,50.7,339.4,50.7,339.4z"/>
		<path class="st1" d="M55,281.6c0.3,0,0.5,0.1,0.8,0.2c0.7,0.4,0.9,1.3,0.5,2l-2.1,3.3c1.1,0.5,2.1,1.2,3,2.1
			c1,1.1,1.7,2.4,2.1,3.7c2.6-0.6,5.9-1.1,9.2-1.1c5,0,9.9,1.2,11.9,5.5c0.4,0.9,0.7,1.9,0.8,2.9c0.1,0.9,0,2.1-0.2,3.1
			c-0.1,0.3-0.1,0.5-0.2,0.8c-0.2,0.9-0.6,2.1-1.1,2.9c-0.5,0.9-1.2,1.7-1.9,2.4c-1.7,1.4-3.6,2-5.7,2c-3.1,0-6.5-1.3-9.6-2.9
			c0,0.1,0,0.3,0,0.4l0,1.5h0l0,4.6h0l0,1.5c0,0.8-0.1,1.5-0.2,2.2h0c0,0,0,0.1,0,0.1c-0.1,0.3-0.1,0.6-0.2,0.9
			c0,0.1-0.1,0.2-0.1,0.3c-0.1,0.4-0.3,0.8-0.4,1.1c0,0.1-0.1,0.2-0.2,0.3c-0.1,0.3-0.2,0.5-0.4,0.8c-0.1,0.1-0.2,0.3-0.2,0.4
			c-0.1,0.2-0.3,0.4-0.4,0.6c0,0,0,0.1-0.1,0.1l0,0c-1.9,2.6-4.8,4.5-8.2,4.9l0,4.8c0,0.8-0.6,1.4-1.4,1.4c0,0,0,0,0,0
			c-0.8,0-1.4-0.6-1.4-1.4l0-4.8c-3.4-0.4-6.3-2.2-8.2-4.9l0,0c0,0,0-0.1-0.1-0.1c-0.1-0.2-0.3-0.4-0.4-0.6
			c-0.1-0.1-0.2-0.3-0.2-0.4c-0.1-0.3-0.3-0.5-0.4-0.8c0-0.1-0.1-0.2-0.1-0.3c-0.2-0.4-0.3-0.7-0.4-1.1c0-0.1,0-0.2-0.1-0.3
			c-0.1-0.3-0.2-0.6-0.2-0.9c0,0,0,0,0-0.1h0c-0.1-0.7-0.2-1.4-0.2-2.2l0-7.5c0-0.1,0-0.3,0-0.4c-3.1,1.7-6.5,3-9.7,3
			c-2.1,0-4-0.6-5.7-2c-0.8-0.6-1.4-1.4-2-2.3c-0.5-0.8-0.9-1.9-1.1-2.9c-0.1-0.3-0.1-0.5-0.2-0.8c-0.2-0.9-0.3-2.2-0.2-3.1
			c0.1-1,0.4-2,0.8-2.9c2-4.3,7-5.5,12.1-5.5c3.2,0,6.5,0.5,9,1c0.4-1.6,1.3-3.1,2.6-4.3c0.8-0.7,1.6-1.2,2.5-1.6l-2.1-3.3
			c-0.4-0.7-0.2-1.5,0.4-2c0.2-0.1,0.5-0.2,0.8-0.2c0.5,0,0.9,0.2,1.2,0.7l2.4,3.8c0.1,0.1,0.1,0.2,0.1,0.3c0.2,0,0.4,0,0.7,0
			c0.2,0,0.4,0,0.7,0c0-0.1,0.1-0.2,0.1-0.3l2.4-3.8C54.1,281.9,54.5,281.6,55,281.6 M55,271.6C55,271.6,55,271.6,55,271.6
			c-1.6,0-3.1,0.3-4.4,0.9c-1.4-0.6-2.8-0.9-4.4-0.9c-2.2,0-4.3,0.6-6.1,1.8c-3.1,2-4.9,5.2-5.3,8.6c-0.6,0-1.2,0-1.8,0
			c-13.7,0-19.1,7.1-21.1,11.3c-0.9,1.8-1.4,3.9-1.7,6.1c-0.3,2.7,0.1,5.3,0.4,6.3l0.2,0.7c0.2,1,0.9,3.6,2.3,6
			c1.1,1.9,2.5,3.5,4.1,4.8c3.4,2.8,7.5,4.3,12.1,4.3c0.1,0,0.2,0,0.3,0c0.1,0.3,0.1,0.6,0.2,0.8c0.1,0.2,0.1,0.4,0.2,0.7
			c0.2,0.7,0.5,1.4,0.8,2.1c0.1,0.2,0.2,0.4,0.3,0.7c0.2,0.4,0.4,0.8,0.7,1.3c0.1,0.3,0.3,0.5,0.4,0.7l8.5-5.2l-8.5,5.3
			c0.1,0.2,0.3,0.5,0.5,0.8c0.1,0.1,0.2,0.3,0.3,0.4c0.1,0.2,0.3,0.3,0.4,0.5c1.7,2.2,3.8,4.1,6.2,5.5c1,5.3,5.7,9.3,11.2,9.3
			c3.1,0,5.9-1.2,8.1-3.4c1.6-1.7,2.7-3.7,3.1-6c2.4-1.4,4.5-3.3,6.2-5.6c0.1-0.2,0.2-0.3,0.4-0.5c0.1-0.1,0.2-0.3,0.3-0.4
			c0.2-0.4,0.4-0.7,0.6-0.9c0.1-0.2,0.3-0.5,0.4-0.7c0.3-0.5,0.5-0.9,0.6-1.3c0.1-0.2,0.2-0.5,0.3-0.7c0.3-0.7,0.5-1.4,0.8-2.1
			c0.1-0.2,0.1-0.5,0.2-0.7c0.1-0.2,0.1-0.4,0.2-0.7c0,0,0.1,0,0.1,0c4.6,0,8.9-1.5,12.2-4.4c1.5-1.3,2.9-2.9,4-4.8
			c1.4-2.4,2.1-4.9,2.3-5.9l0.2-0.8c0.2-1,0.7-3.6,0.3-6.3c-0.3-2.2-0.8-4.2-1.7-6c-2-4.2-7.4-11.2-20.9-11.2c-0.7,0-1.4,0-2.1,0.1
			c-0.3-3.4-2.2-6.6-5.3-8.5C59.2,272.2,57.1,271.6,55,271.6L55,271.6z"/>
	</g>
	<g>
		<path class="st1" d="M108.5,175c-3.5,0-6.4-2.9-6.4-6.4l0-1c-2.8-1.1-5.2-3-7-5.5c-0.1-0.1-0.2-0.2-0.2-0.3
			c-0.1-0.1-0.1-0.2-0.2-0.3c-0.2-0.2-0.3-0.5-0.5-0.7l-0.1-0.1c-0.1-0.2-0.2-0.3-0.3-0.5c-0.2-0.3-0.4-0.7-0.6-1.1
			c-0.1-0.1-0.1-0.3-0.2-0.4c-0.2-0.5-0.4-1.1-0.6-1.6c0-0.2-0.1-0.3-0.1-0.5c-0.1-0.3-0.2-0.7-0.3-1.1c0-0.1,0-0.1,0-0.2
			c0-0.1,0-0.2-0.1-0.3c-0.2-1-0.3-1.9-0.3-2.8l0-0.6c-1.6,0.4-3.2,0.6-4.7,0.6c-3.4,0-6.5-1.1-8.9-3.1c-1.1-1-2.1-2.2-3-3.6
			c-0.7-1.2-1.4-2.8-1.7-4.4l-0.2-0.8c-0.3-1.6-0.4-3.3-0.3-4.7c0.2-1.6,0.6-3.1,1.2-4.5c1.8-3.8,6.2-8.4,16.6-8.4
			c1.9,0,4,0.2,6.1,0.5c0.4-0.6,0.8-1.1,1.2-1.6c-1.4-2.9-0.4-6.4,2.4-8.2c1-0.7,2.2-1,3.4-1c1.7,0,3.2,0.6,4.4,1.7
			c1.2-1.1,2.7-1.8,4.4-1.8c1.2,0,2.4,0.3,3.4,1c2.8,1.7,3.8,5.3,2.4,8.2c0,0,0,0,0,0c0.5,0.5,0.9,1,1.2,1.5
			c2.2-0.3,4.4-0.5,6.3-0.5c10.3,0,14.6,4.5,16.4,8.3c0.6,1.3,1.1,2.9,1.3,4.5c0.2,1.4,0.1,3.1-0.3,4.7l-0.2,0.8
			c-0.3,1.6-1,3.2-1.7,4.4c-0.8,1.4-1.9,2.6-3,3.6c-2.5,2.1-5.6,3.2-9,3.2c0,0,0,0,0,0c-1.5,0-3-0.2-4.6-0.6l0,0.6
			c0,0.9-0.1,1.9-0.2,2.8c0,0.1,0,0.1,0,0.2c0,0.1,0,0.2-0.1,0.3c-0.1,0.4-0.2,0.7-0.3,1.1c0,0.1-0.1,0.3-0.1,0.5
			c-0.2,0.6-0.4,1.1-0.6,1.6c-0.1,0.2-0.1,0.3-0.2,0.5c-0.2,0.3-0.3,0.7-0.5,1.1c-0.1,0.2-0.2,0.3-0.3,0.5c-0.2,0.3-0.4,0.6-0.5,0.9
			c-0.1,0.1-0.1,0.2-0.2,0.3c-0.1,0.1-0.1,0.2-0.2,0.3c-1.8,2.5-4.3,4.4-7,5.5l0,1c0,1.7-0.7,3.3-1.9,4.5
			C111.8,174.3,110.2,174.9,108.5,175C108.5,175,108.5,175,108.5,175z"/>
		<path class="st1" d="M112.7,117.2c0.3,0,0.5,0.1,0.8,0.2c0.7,0.4,0.9,1.3,0.5,2l-2.1,3.3c1.1,0.5,2.1,1.2,3,2.1
			c1,1.1,1.7,2.4,2.1,3.7c2.6-0.6,5.9-1.1,9.2-1.1c5,0,9.9,1.2,11.9,5.5c0.4,0.9,0.7,1.9,0.8,2.9c0.1,0.9,0,2.1-0.2,3.1
			c-0.1,0.3-0.1,0.5-0.2,0.8c-0.2,0.9-0.6,2.1-1.1,2.9c-0.5,0.9-1.2,1.7-1.9,2.4c-1.7,1.4-3.6,2-5.7,2c-3.1,0-6.5-1.3-9.6-2.9
			c0,0.1,0,0.3,0,0.4l0,1.5h0l0,4.6h0l0,1.5c0,0.8-0.1,1.5-0.2,2.2h0c0,0,0,0.1,0,0.1c-0.1,0.3-0.1,0.6-0.2,0.9
			c0,0.1-0.1,0.2-0.1,0.3c-0.1,0.4-0.3,0.8-0.4,1.1c0,0.1-0.1,0.2-0.2,0.3c-0.1,0.3-0.2,0.5-0.4,0.8c-0.1,0.1-0.2,0.3-0.2,0.4
			c-0.1,0.2-0.3,0.4-0.4,0.6c0,0,0,0.1-0.1,0.1l0,0c-1.9,2.6-4.8,4.5-8.2,4.9l0,4.8c0,0.8-0.6,1.4-1.4,1.4c0,0,0,0,0,0
			c-0.8,0-1.4-0.6-1.4-1.4l0-4.8c-3.4-0.4-6.3-2.2-8.2-4.9l0,0c0,0,0-0.1-0.1-0.1c-0.1-0.2-0.3-0.4-0.4-0.6
			c-0.1-0.1-0.2-0.3-0.2-0.4c-0.1-0.3-0.3-0.5-0.4-0.8c0-0.1-0.1-0.2-0.1-0.3c-0.2-0.4-0.3-0.7-0.4-1.1c0-0.1,0-0.2-0.1-0.3
			c-0.1-0.3-0.2-0.6-0.2-0.9c0,0,0,0,0-0.1h0c-0.1-0.7-0.2-1.4-0.2-2.2l0-7.5c0-0.1,0-0.3,0-0.4c-3.1,1.7-6.5,3-9.7,3
			c-2.1,0-4-0.6-5.7-2c-0.8-0.6-1.4-1.4-2-2.3c-0.5-0.8-0.9-1.9-1.1-2.9c-0.1-0.3-0.1-0.5-0.2-0.8c-0.2-0.9-0.3-2.2-0.2-3.1
			c0.1-1,0.4-2,0.8-2.9c2-4.3,7-5.5,12.1-5.5c3.2,0,6.5,0.5,9,1c0.4-1.6,1.3-3.1,2.6-4.3c0.8-0.7,1.6-1.2,2.5-1.6l-2.1-3.3
			c-0.4-0.7-0.2-1.5,0.4-2c0.2-0.1,0.5-0.2,0.8-0.2c0.5,0,0.9,0.2,1.2,0.7l2.4,3.8c0.1,0.1,0.1,0.2,0.1,0.3c0.2,0,0.4,0,0.7,0
			c0.2,0,0.4,0,0.7,0c0-0.1,0.1-0.2,0.1-0.3l2.4-3.8C111.8,117.5,112.3,117.2,112.7,117.2 M112.7,107.2
			C112.7,107.2,112.7,107.2,112.7,107.2c-1.6,0-3.1,0.3-4.4,0.9c-1.4-0.6-2.8-0.9-4.4-0.9c-2.2,0-4.3,0.6-6.1,1.8
			c-3.1,2-4.9,5.2-5.3,8.6c-0.6,0-1.2,0-1.8,0c-13.7,0-19.1,7.1-21.1,11.3c-0.9,1.8-1.4,3.9-1.7,6.1c-0.3,2.7,0.1,5.3,0.4,6.3
			l0.2,0.8c0.2,1,0.9,3.6,2.3,5.9c1.1,1.9,2.5,3.5,4.1,4.8c3.4,2.8,7.5,4.3,12.1,4.3c0.1,0,0.2,0,0.3,0c0.1,0.3,0.1,0.5,0.2,0.8
			c0.1,0.2,0.1,0.4,0.2,0.7c0.2,0.7,0.5,1.4,0.8,2.1c0.1,0.2,0.2,0.4,0.3,0.7c0.2,0.4,0.4,0.8,0.7,1.3c0.1,0.3,0.3,0.5,0.4,0.7
			c0.1,0.2,0.3,0.5,0.6,0.9c0.1,0.1,0.2,0.3,0.3,0.4c0.1,0.2,0.2,0.3,0.4,0.5c1.7,2.2,3.8,4.1,6.2,5.5c1,5.3,5.7,9.3,11.2,9.3
			c3.1,0,5.9-1.2,8.1-3.4c1.6-1.7,2.7-3.7,3.1-6c2.4-1.4,4.5-3.3,6.2-5.6c0.1-0.2,0.2-0.3,0.4-0.5c0.1-0.1,0.2-0.3,0.3-0.4
			c0.2-0.4,0.4-0.7,0.6-0.9c0.1-0.2,0.3-0.5,0.4-0.7c0.3-0.5,0.5-0.9,0.6-1.3c0.1-0.2,0.2-0.5,0.3-0.7c0.3-0.7,0.5-1.4,0.8-2.1
			c0.1-0.2,0.1-0.5,0.2-0.7c0.1-0.2,0.1-0.4,0.2-0.7c0,0,0.1,0,0.1,0c4.6,0,8.9-1.5,12.2-4.4c1.5-1.3,2.9-2.9,4-4.8
			c1.4-2.4,2.1-4.9,2.3-5.9l0.2-0.8c0.2-1,0.7-3.6,0.3-6.3c-0.3-2.2-0.8-4.2-1.7-6c-2-4.2-7.4-11.2-20.9-11.2c-0.7,0-1.4,0-2.1,0.1
			c-0.3-3.4-2.2-6.6-5.3-8.5C117,107.8,114.9,107.2,112.7,107.2L112.7,107.2z"/>
	</g>
	<g>
		<path class="st1" d="M343.2,235.4c-3.5,0-6.4-2.9-6.4-6.4l0-1c-2.8-1.1-5.2-3-7-5.5c-0.1-0.1-0.2-0.2-0.3-0.3
			c0-0.1-0.1-0.2-0.2-0.2c-0.2-0.2-0.3-0.5-0.4-0.7l-0.1-0.1c-0.1-0.2-0.2-0.3-0.3-0.5c-0.2-0.4-0.4-0.7-0.6-1.1
			c-0.1-0.1-0.1-0.3-0.2-0.4c-0.2-0.5-0.4-1-0.6-1.6c0-0.2-0.1-0.3-0.1-0.4c-0.1-0.4-0.2-0.8-0.3-1.2c0-0.1,0-0.1,0-0.2
			c0-0.1,0-0.2-0.1-0.3c-0.2-0.9-0.3-1.9-0.3-2.8l0-0.6c-1.6,0.4-3.2,0.6-4.7,0.6c-3.4,0-6.5-1.1-8.9-3.1c-1.1-1-2.1-2.2-3-3.6
			c-0.7-1.2-1.4-2.8-1.7-4.4l-0.2-0.8c-0.3-1.6-0.4-3.3-0.3-4.7c0.2-1.6,0.6-3.1,1.2-4.5c1.8-3.8,6.2-8.4,16.6-8.4
			c1.9,0,4,0.2,6.1,0.5c0.4-0.6,0.8-1.1,1.2-1.6c-0.6-1.3-0.8-2.7-0.5-4.2c0.4-1.7,1.4-3.1,2.8-4c1-0.7,2.2-1,3.4-1
			c1.7,0,3.2,0.6,4.4,1.7c1.2-1.1,2.7-1.8,4.4-1.8c1.2,0,2.4,0.3,3.4,1c2.8,1.7,3.8,5.3,2.4,8.2c0,0,0,0,0,0c0.5,0.5,0.9,1,1.2,1.5
			c2.2-0.3,4.4-0.5,6.3-0.5c10.3,0,14.6,4.5,16.4,8.3c0.6,1.3,1.1,2.9,1.3,4.5c0.2,1.4,0.1,3.1-0.3,4.7l-0.2,0.8
			c-0.3,1.6-1,3.2-1.7,4.4c-0.8,1.4-1.9,2.6-3,3.6c-2.5,2.1-5.6,3.2-9,3.2l0,0c-1.5,0-3-0.2-4.6-0.6l0,0.6c0,0.9-0.1,1.9-0.2,2.8
			c0,0.1,0,0.2-0.1,0.3c0,0.1,0,0.1,0,0.2c-0.1,0.4-0.2,0.7-0.3,1.1c0,0.1-0.1,0.3-0.1,0.4c-0.2,0.6-0.4,1.1-0.6,1.6
			c-0.1,0.2-0.1,0.3-0.2,0.5c-0.2,0.3-0.3,0.7-0.5,1.1c-0.1,0.2-0.2,0.3-0.3,0.5c-0.2,0.3-0.4,0.6-0.5,0.9c-0.1,0.1-0.1,0.2-0.2,0.3
			c-0.1,0.1-0.1,0.2-0.2,0.3c-1.8,2.5-4.3,4.4-7,5.5l0,1c0,1.7-0.7,3.3-1.9,4.5S344.9,235.4,343.2,235.4
			C343.2,235.4,343.2,235.4,343.2,235.4z"/>
		<path class="st1" d="M347.4,177.7c0.3,0,0.5,0.1,0.8,0.2c0.7,0.4,0.9,1.3,0.5,2l-2.1,3.3c1.1,0.5,2.1,1.2,3,2.1
			c1,1.1,1.7,2.4,2.1,3.7c2.6-0.6,5.9-1.1,9.2-1.1c5,0,9.9,1.2,11.9,5.5c0.4,0.9,0.7,1.9,0.8,2.9c0.1,0.9,0,2.1-0.2,3.1
			c-0.1,0.3-0.1,0.5-0.2,0.8c-0.2,0.9-0.6,2.1-1.1,2.9c-0.5,0.9-1.2,1.7-1.9,2.4c-1.7,1.4-3.6,2-5.7,2c-3.1,0-6.5-1.3-9.6-2.9
			c0,0.1,0,0.3,0,0.4l0,1.5h0l0,4.6h0l0,1.5c0,0.8-0.1,1.5-0.2,2.2h0c0,0,0,0.1,0,0.1c-0.1,0.3-0.1,0.6-0.2,0.9
			c0,0.1-0.1,0.2-0.1,0.3c-0.1,0.4-0.3,0.8-0.4,1.1c0,0.1-0.1,0.2-0.2,0.3c-0.1,0.3-0.2,0.5-0.4,0.8c-0.1,0.1-0.2,0.3-0.2,0.4
			c-0.1,0.2-0.3,0.4-0.4,0.6c0,0,0,0.1-0.1,0.1l0,0c-1.9,2.6-4.8,4.5-8.2,4.9l0,4.8c0,0.8-0.6,1.4-1.4,1.4c0,0,0,0,0,0
			c-0.8,0-1.4-0.6-1.4-1.4l0-4.8c-3.4-0.4-6.3-2.2-8.2-4.9l0,0c0,0,0-0.1-0.1-0.1c-0.1-0.2-0.3-0.4-0.4-0.6
			c-0.1-0.1-0.2-0.3-0.2-0.4c-0.1-0.3-0.3-0.5-0.4-0.8c0-0.1-0.1-0.2-0.1-0.3c-0.2-0.4-0.3-0.7-0.4-1.1c0-0.1,0-0.2-0.1-0.3
			c-0.1-0.3-0.2-0.6-0.2-0.9c0,0,0,0,0-0.1h0c-0.1-0.7-0.2-1.4-0.2-2.2l0-7.5c0-0.1,0-0.3,0-0.4c-3.1,1.7-6.5,3-9.7,3
			c-2.1,0-4-0.6-5.7-2c-0.8-0.6-1.4-1.4-2-2.3c-0.5-0.8-0.9-1.9-1.1-2.9c-0.1-0.3-0.1-0.5-0.2-0.8c-0.2-0.9-0.3-2.2-0.2-3.1
			c0.1-1,0.4-2,0.8-2.9c2-4.3,7-5.5,12.1-5.5c3.2,0,6.5,0.5,9,1c0.4-1.6,1.3-3.1,2.6-4.3c0.8-0.7,1.6-1.2,2.5-1.6l-2.1-3.3
			c-0.4-0.7-0.2-1.5,0.4-2c0.2-0.1,0.5-0.2,0.8-0.2c0.5,0,0.9,0.2,1.2,0.7l2.4,3.8c0.1,0.1,0.1,0.2,0.1,0.3c0.2,0,0.4,0,0.7,0
			c0.2,0,0.4,0,0.7,0c0-0.1,0.1-0.2,0.1-0.3l2.4-3.8C346.5,177.9,346.9,177.7,347.4,177.7 M347.4,167.7
			C347.4,167.7,347.4,167.7,347.4,167.7C347.4,167.7,347.4,167.7,347.4,167.7c-1.6,0-3.1,0.3-4.4,0.9c-1.4-0.6-2.8-0.9-4.4-0.9
			c-2.2,0-4.3,0.6-6.1,1.8c-2.6,1.6-4.4,4.2-5,7.1c-0.1,0.5-0.2,0.9-0.2,1.4c-0.6,0-1.2,0-1.8,0c-13.7,0-19.1,7.1-21.1,11.3
			c-0.9,1.8-1.4,3.9-1.7,6.1c-0.3,2.7,0.1,5.3,0.4,6.3l0.2,0.8c0.2,1,0.9,3.6,2.3,5.9c1.1,1.9,2.5,3.5,4.1,4.8
			c3.4,2.8,7.5,4.3,12.1,4.3c0.1,0,0.2,0,0.3,0c0.1,0.3,0.1,0.6,0.2,0.8c0.1,0.2,0.1,0.4,0.2,0.7c0.2,0.7,0.5,1.4,0.8,2.1
			c0.1,0.2,0.2,0.4,0.3,0.7c0.2,0.4,0.4,0.8,0.7,1.3c0.1,0.3,0.3,0.5,0.4,0.7l8.5-5.2l-8.5,5.3c0.1,0.2,0.3,0.5,0.5,0.8
			c0.1,0.1,0.2,0.3,0.3,0.4c0.1,0.2,0.3,0.3,0.4,0.5c1.7,2.2,3.8,4.1,6.2,5.5c1,5.3,5.7,9.3,11.2,9.3c3.1,0,5.9-1.2,8.1-3.4
			c1.6-1.7,2.7-3.7,3.1-6c2.4-1.4,4.5-3.3,6.2-5.6c0.1-0.2,0.2-0.3,0.4-0.5c0.1-0.1,0.2-0.3,0.3-0.4c0.2-0.4,0.4-0.7,0.6-0.9
			c0.1-0.2,0.3-0.5,0.4-0.7c0.3-0.5,0.5-0.9,0.6-1.3c0.1-0.2,0.2-0.5,0.3-0.7c0.3-0.7,0.5-1.4,0.8-2.1c0.1-0.2,0.1-0.5,0.2-0.7
			c0.1-0.2,0.1-0.4,0.2-0.7c0,0,0.1,0,0.1,0c4.6,0,8.9-1.5,12.2-4.4c1.5-1.3,2.9-2.9,4-4.8c1.4-2.4,2.1-4.9,2.3-5.9l0.2-0.8
			c0.2-1,0.7-3.6,0.3-6.3c-0.3-2.2-0.8-4.2-1.7-6c-2-4.2-7.4-11.2-20.9-11.2c-0.7,0-1.4,0-2.1,0.1c-0.3-3.4-2.2-6.6-5.3-8.5
			C351.6,168.3,349.6,167.7,347.4,167.7L347.4,167.7L347.4,167.7z"/>
	</g>
	<g>
		<path class="st1" d="M285.4,207.7c-3.5,0-6.4-2.9-6.4-6.4l0-1c-2.8-1.1-5.2-3-7-5.5c-0.1-0.1-0.2-0.2-0.2-0.3
			c-0.1-0.1-0.1-0.2-0.2-0.3c-0.2-0.3-0.3-0.5-0.5-0.8c-0.1-0.2-0.2-0.4-0.3-0.6c-0.2-0.4-0.4-0.7-0.5-1.1c-0.1-0.1-0.1-0.3-0.2-0.4
			c-0.2-0.5-0.4-1.1-0.6-1.6c0-0.2-0.1-0.3-0.1-0.5c-0.1-0.4-0.2-0.7-0.3-1.1c0-0.1,0-0.1,0-0.2c0-0.1,0-0.2-0.1-0.3
			c-0.2-1-0.3-1.9-0.3-2.8l0-0.6c-1.6,0.4-3.2,0.6-4.7,0.6c0,0,0,0,0,0c-3.4,0-6.5-1.1-8.9-3.1c-1.1-1-2.1-2.2-3-3.6
			c-0.7-1.2-1.4-2.8-1.7-4.4l-0.2-0.8c-0.3-1.6-0.4-3.3-0.3-4.7c0.2-1.6,0.6-3.1,1.2-4.5c1.8-3.8,6.2-8.4,16.6-8.4
			c1.9,0,4,0.2,6.1,0.5c0.4-0.6,0.8-1.1,1.2-1.6c-1.4-2.9-0.4-6.4,2.4-8.2c1-0.7,2.2-1,3.4-1c1.7,0,3.2,0.6,4.4,1.7
			c1.2-1.1,2.7-1.8,4.4-1.8c1.2,0,2.4,0.3,3.4,1c2.8,1.7,3.8,5.3,2.4,8.2c0,0,0,0,0,0c0.5,0.5,0.9,1,1.2,1.5
			c2.2-0.3,4.4-0.5,6.3-0.5c10.3,0,14.6,4.5,16.4,8.3c0.6,1.3,1.1,2.9,1.3,4.5c0.2,1.4,0.1,3.1-0.3,4.7l-0.2,0.8
			c-0.3,1.6-1,3.2-1.7,4.4c-0.8,1.4-1.8,2.6-3,3.6c-2.5,2.1-5.6,3.2-9,3.2c-1.5,0-3-0.2-4.6-0.6l0,0.6c0,0.9-0.1,1.9-0.2,2.8
			c0,0.1,0,0.2,0,0.3c0,0.1,0,0.2,0,0.2c-0.1,0.4-0.2,0.7-0.3,1.1c0,0.1-0.1,0.3-0.1,0.5c-0.2,0.6-0.4,1.1-0.6,1.6
			c-0.1,0.2-0.1,0.3-0.2,0.5c-0.2,0.4-0.3,0.7-0.5,1.1c-0.1,0.2-0.2,0.3-0.3,0.5c-0.2,0.3-0.4,0.6-0.5,0.8c-0.1,0.1-0.1,0.2-0.2,0.3
			c-0.1,0.1-0.1,0.2-0.2,0.3c-1.8,2.5-4.3,4.4-7,5.5l0,1c0,1.7-0.7,3.3-1.9,4.5C288.7,207,287.1,207.7,285.4,207.7
			C285.4,207.7,285.4,207.7,285.4,207.7z"/>
		<path class="st1" d="M289.7,150c0.3,0,0.5,0.1,0.8,0.2c0.7,0.4,0.9,1.3,0.5,2l-2.1,3.3c1.1,0.5,2.1,1.2,3,2.1
			c1,1.1,1.7,2.4,2.1,3.7c2.6-0.6,5.9-1.1,9.2-1.1c5,0,9.9,1.2,11.9,5.5c0.4,0.9,0.7,1.9,0.8,2.9c0.1,0.9,0,2.1-0.2,3.1
			c-0.1,0.3-0.1,0.5-0.2,0.8c-0.2,0.9-0.6,2.1-1.1,2.9c-0.5,0.9-1.2,1.7-1.9,2.4c-1.7,1.4-3.6,2-5.7,2c-3.1,0-6.5-1.3-9.6-2.9
			c0,0.1,0,0.3,0,0.4l0,1.5h0l0,4.6h0l0,1.5c0,0.8-0.1,1.5-0.2,2.2h0c0,0,0,0,0,0.1c-0.1,0.3-0.1,0.6-0.2,0.9c0,0.1,0,0.2-0.1,0.3
			c-0.1,0.4-0.3,0.8-0.4,1.1c0,0.1-0.1,0.2-0.2,0.3c-0.1,0.3-0.2,0.5-0.4,0.8c-0.1,0.1-0.2,0.3-0.2,0.4c-0.1,0.2-0.3,0.4-0.4,0.6
			c0,0,0,0.1-0.1,0.1l0,0c-1.9,2.6-4.8,4.5-8.2,4.9l0,4.8c0,0.8-0.6,1.4-1.4,1.4c0,0,0,0,0,0c-0.8,0-1.4-0.6-1.4-1.4l0-4.8
			c-3.4-0.4-6.3-2.2-8.2-4.9l0,0c0,0,0-0.1-0.1-0.1c-0.1-0.2-0.3-0.4-0.4-0.6c-0.1-0.1-0.2-0.3-0.2-0.4c-0.1-0.3-0.3-0.5-0.4-0.8
			c0-0.1-0.1-0.2-0.1-0.3c-0.2-0.4-0.3-0.7-0.4-1.1c0-0.1,0-0.2-0.1-0.3c-0.1-0.3-0.2-0.6-0.2-0.9c0,0,0,0,0-0.1h0
			c-0.1-0.7-0.2-1.4-0.2-2.2l0-7.5c0-0.1,0-0.3,0-0.4c-3.1,1.7-6.5,3-9.7,3c-2.1,0-4-0.6-5.7-2c-0.8-0.6-1.4-1.4-2-2.3
			c-0.5-0.8-0.9-1.9-1.1-2.9c-0.1-0.3-0.1-0.5-0.2-0.8c-0.2-0.9-0.3-2.2-0.2-3.1c0.1-1,0.4-2,0.8-2.9c2-4.3,7-5.5,12.1-5.5
			c3.2,0,6.5,0.5,9,1c0.4-1.6,1.3-3.1,2.6-4.3c0.8-0.7,1.6-1.2,2.5-1.6l-2.1-3.3c-0.4-0.7-0.2-1.5,0.4-2c0.2-0.1,0.5-0.2,0.8-0.2
			c0.5,0,0.9,0.2,1.2,0.7l2.4,3.8c0.1,0.1,0.1,0.2,0.1,0.3c0.2,0,0.4,0,0.7,0c0.2,0,0.4,0,0.7,0c0-0.1,0.1-0.2,0.1-0.3l2.4-3.8
			C288.7,150.2,289.2,150,289.7,150 M289.7,140C289.7,140,289.7,140,289.7,140c-1.6,0-3.1,0.3-4.4,0.9c-1.4-0.6-2.8-0.9-4.4-0.9
			c-2.2,0-4.3,0.6-6.1,1.8c-3.1,2-4.9,5.2-5.3,8.6c-0.6,0-1.2,0-1.8,0c-13.7,0-19.1,7.1-21.1,11.3c-0.9,1.8-1.4,3.9-1.7,6.1
			c-0.3,2.7,0.1,5.3,0.4,6.3l0.2,0.8c0.2,1,0.9,3.6,2.3,5.9c1.1,1.9,2.5,3.5,4.1,4.8c3.4,2.8,7.5,4.3,12.1,4.3c0.1,0,0.2,0,0.3,0
			c0.1,0.3,0.1,0.5,0.2,0.8c0.1,0.2,0.1,0.4,0.2,0.7c0.2,0.7,0.5,1.4,0.8,2.1c0.1,0.2,0.2,0.4,0.3,0.7c0.2,0.4,0.4,0.8,0.7,1.3
			c0.1,0.3,0.3,0.5,0.4,0.7c0.1,0.2,0.3,0.5,0.6,0.9c0.1,0.1,0.2,0.3,0.3,0.4c0.1,0.2,0.2,0.3,0.4,0.5c1.7,2.2,3.8,4.1,6.2,5.5
			c1,5.3,5.7,9.3,11.2,9.3c3.1,0,5.9-1.2,8.1-3.4c1.6-1.7,2.7-3.7,3.1-6c2.4-1.4,4.5-3.3,6.2-5.6c0.1-0.2,0.2-0.3,0.4-0.5
			c0.1-0.1,0.2-0.3,0.3-0.4c0.3-0.4,0.4-0.7,0.6-0.9c0.1-0.2,0.3-0.5,0.4-0.7c0.3-0.5,0.5-0.9,0.6-1.3c0.1-0.2,0.2-0.5,0.3-0.7
			c0.3-0.7,0.5-1.4,0.8-2.1c0.1-0.2,0.1-0.5,0.2-0.7c0.1-0.2,0.1-0.5,0.2-0.7c0,0,0.1,0,0.1,0c4.6,0,8.9-1.5,12.2-4.4
			c1.5-1.3,2.9-2.9,4-4.8c1.4-2.4,2.1-4.9,2.3-5.9l0.2-0.8c0.2-1,0.7-3.6,0.3-6.3c-0.3-2.2-0.8-4.2-1.7-6c-2-4.2-7.4-11.2-20.9-11.2
			c-0.7,0-1.4,0-2.1,0.1c-0.3-3.4-2.2-6.6-5.3-8.5C293.9,140.6,291.8,140,289.7,140L289.7,140z"/>
	</g>
	<g>
		<path class="st1" d="M343.2,302.4c-3.5,0-6.4-2.9-6.4-6.4l0-1c-2.8-1.1-5.2-3-7-5.5c-0.1-0.1-0.2-0.2-0.3-0.3
			c0-0.1-0.1-0.2-0.2-0.2c-0.2-0.2-0.3-0.4-0.4-0.7l-0.1-0.2c-0.1-0.2-0.2-0.3-0.3-0.5c-0.2-0.4-0.4-0.7-0.6-1.1
			c-0.1-0.1-0.1-0.3-0.2-0.4c-0.2-0.5-0.4-1.1-0.6-1.6c0-0.2-0.1-0.3-0.1-0.4c-0.1-0.4-0.2-0.8-0.3-1.2c0-0.1,0-0.1,0-0.2
			c0-0.1,0-0.2-0.1-0.3c-0.2-0.9-0.3-1.9-0.3-2.8l0-0.6c-1.6,0.4-3.2,0.6-4.7,0.6c-3.4,0-6.5-1.1-8.9-3.1c-1.1-1-2.1-2.2-3-3.6
			c-0.7-1.2-1.4-2.8-1.7-4.4l-0.2-0.8c-0.3-1.6-0.4-3.3-0.3-4.7c0.2-1.6,0.6-3.1,1.2-4.5c1.8-3.8,6.2-8.4,16.6-8.4
			c1.9,0,4,0.2,6.1,0.5c0.4-0.6,0.8-1.1,1.2-1.6c-0.6-1.3-0.8-2.7-0.5-4.2c0.4-1.7,1.4-3.1,2.8-4c1-0.7,2.2-1,3.4-1
			c1.7,0,3.2,0.6,4.4,1.7c1.2-1.1,2.7-1.8,4.4-1.8c1.2,0,2.4,0.3,3.4,1c2.8,1.7,3.8,5.3,2.4,8.2c0,0,0,0,0,0c0.5,0.5,0.9,1,1.2,1.5
			c2.2-0.3,4.4-0.5,6.3-0.5c10.3,0,14.6,4.5,16.4,8.3c0.6,1.3,1.1,2.9,1.3,4.5c0.2,1.4,0.1,3.1-0.3,4.7l-0.2,0.8
			c-0.3,1.6-1,3.2-1.7,4.4c-0.8,1.4-1.8,2.6-3,3.6c-2.5,2.1-5.6,3.2-9,3.2c0,0,0,0,0,0c-1.5,0-3-0.2-4.6-0.6l0,0.6
			c0,0.9-0.1,1.9-0.2,2.8c0,0.1,0,0.2-0.1,0.3c0,0.1,0,0.1,0,0.2c-0.1,0.4-0.2,0.7-0.3,1.1c0,0.1-0.1,0.3-0.1,0.4
			c-0.2,0.6-0.4,1.1-0.6,1.6c-0.1,0.2-0.1,0.3-0.2,0.5c-0.2,0.3-0.3,0.7-0.5,1.1c-0.1,0.2-0.2,0.3-0.3,0.5c-0.2,0.3-0.4,0.6-0.5,0.9
			c-0.1,0.1-0.1,0.2-0.2,0.3c-0.1,0.1-0.1,0.2-0.2,0.3c-1.8,2.5-4.3,4.4-7,5.5l0,1c0,1.7-0.7,3.3-1.9,4.5S344.9,302.4,343.2,302.4
			C343.2,302.4,343.2,302.4,343.2,302.4z"/>
		<path class="st1" d="M347.4,244.7c0.3,0,0.5,0.1,0.8,0.2c0.7,0.4,0.9,1.3,0.5,2l-2.1,3.3c1.1,0.5,2.1,1.2,3,2.1
			c1,1.1,1.7,2.4,2.1,3.7c2.6-0.6,5.9-1.1,9.2-1.1c5,0,9.9,1.2,11.9,5.5c0.4,0.9,0.7,1.9,0.8,2.9c0.1,0.9,0,2.1-0.2,3.1
			c-0.1,0.3-0.1,0.5-0.2,0.8c-0.2,0.9-0.6,2.1-1.1,2.9c-0.5,0.9-1.2,1.7-1.9,2.4c-1.7,1.4-3.6,2-5.7,2c-3.1,0-6.5-1.3-9.6-2.9
			c0,0.1,0,0.3,0,0.4l0,1.5h0l0,4.6h0l0,1.5c0,0.8-0.1,1.5-0.2,2.2h0c0,0,0,0.1,0,0.1c-0.1,0.3-0.1,0.6-0.2,0.9
			c0,0.1-0.1,0.2-0.1,0.3c-0.1,0.4-0.3,0.8-0.4,1.1c0,0.1-0.1,0.2-0.2,0.3c-0.1,0.3-0.2,0.5-0.4,0.8c-0.1,0.1-0.2,0.3-0.2,0.4
			c-0.1,0.2-0.3,0.4-0.4,0.6c0,0,0,0.1-0.1,0.1l0,0c-1.9,2.6-4.8,4.5-8.2,4.9l0,4.8c0,0.8-0.6,1.4-1.4,1.4c0,0,0,0,0,0
			c-0.8,0-1.4-0.6-1.4-1.4l0-4.8c-3.4-0.4-6.3-2.2-8.2-4.9l0,0c0,0,0-0.1-0.1-0.1c-0.1-0.2-0.3-0.4-0.4-0.6
			c-0.1-0.1-0.2-0.3-0.2-0.4c-0.1-0.3-0.3-0.5-0.4-0.8c0-0.1-0.1-0.2-0.1-0.3c-0.2-0.4-0.3-0.7-0.4-1.1c0-0.1,0-0.2-0.1-0.3
			c-0.1-0.3-0.2-0.6-0.2-0.9c0,0,0,0,0-0.1h0c-0.1-0.7-0.2-1.4-0.2-2.2l0-7.5c0-0.1,0-0.3,0-0.4c-3.1,1.7-6.5,3-9.7,3
			c-2.1,0-4-0.6-5.7-2c-0.8-0.6-1.4-1.4-2-2.3c-0.5-0.8-0.9-1.9-1.1-2.9c-0.1-0.3-0.1-0.5-0.2-0.8c-0.2-0.9-0.3-2.2-0.2-3.1
			c0.1-1,0.4-2,0.8-2.9c2-4.3,7-5.5,12.1-5.5c3.2,0,6.5,0.5,9,1c0.4-1.6,1.3-3.1,2.6-4.3c0.8-0.7,1.6-1.2,2.5-1.6l-2.1-3.3
			c-0.4-0.7-0.2-1.5,0.4-2c0.2-0.1,0.5-0.2,0.8-0.2c0.5,0,0.9,0.2,1.2,0.7l2.4,3.8c0.1,0.1,0.1,0.2,0.1,0.3c0.2,0,0.4,0,0.7,0
			c0.2,0,0.4,0,0.7,0c0-0.1,0.1-0.2,0.1-0.3l2.4-3.8C346.5,244.9,346.9,244.7,347.4,244.7 M347.4,234.7
			C347.4,234.7,347.4,234.7,347.4,234.7c-1.6,0-3.1,0.3-4.4,0.9c-1.4-0.6-2.8-0.9-4.4-0.9c-2.2,0-4.3,0.6-6.1,1.8
			c-3.1,2-4.9,5.2-5.3,8.6c-0.6,0-1.2,0-1.8,0c-13.7,0-19.1,7.1-21.1,11.3c-0.9,1.8-1.4,3.9-1.7,6.1c-0.3,2.7,0.1,5.3,0.4,6.3
			l0.2,0.7c0,0,0,0,0,0.1c0.2,1,0.9,3.6,2.3,5.9c1.1,1.9,2.5,3.5,4.1,4.8c3.4,2.8,7.5,4.3,12.1,4.3c0.1,0,0.2,0,0.3,0
			c0.1,0.3,0.1,0.6,0.2,0.8c0.1,0.2,0.1,0.4,0.2,0.7c0.2,0.7,0.5,1.4,0.8,2.1c0.1,0.2,0.2,0.4,0.3,0.7c0.2,0.4,0.4,0.8,0.7,1.3
			c0.1,0.3,0.3,0.5,0.4,0.7l8.5-5.2l-8.5,5.3c0.1,0.2,0.3,0.5,0.5,0.8c0.1,0.1,0.2,0.3,0.3,0.4c0.1,0.2,0.3,0.3,0.4,0.5
			c1.7,2.2,3.8,4.1,6.2,5.5c1,5.3,5.7,9.3,11.2,9.3c3.1,0,5.9-1.2,8.1-3.4c1.6-1.7,2.7-3.7,3.1-6c2.4-1.4,4.5-3.3,6.2-5.6
			c0.1-0.2,0.2-0.3,0.4-0.5c0.1-0.1,0.2-0.3,0.3-0.4c0.2-0.4,0.4-0.7,0.6-0.9c0.1-0.2,0.3-0.5,0.4-0.7c0.3-0.5,0.5-0.9,0.6-1.3
			c0.1-0.2,0.2-0.5,0.3-0.7c0.3-0.7,0.5-1.4,0.8-2.1c0.1-0.2,0.1-0.5,0.2-0.7c0.1-0.2,0.1-0.4,0.2-0.7c0,0,0.1,0,0.1,0
			c4.6,0,8.9-1.5,12.2-4.4c1.5-1.3,2.9-2.9,4-4.8c1.4-2.4,2.1-4.9,2.3-5.9l0.2-0.8c0.2-1,0.7-3.6,0.3-6.3c-0.3-2.2-0.8-4.2-1.7-6
			c-2-4.2-7.4-11.2-20.9-11.2c-0.7,0-1.4,0-2.1,0.1c-0.3-3.4-2.2-6.6-5.3-8.5C351.6,235.3,349.6,234.7,347.4,234.7L347.4,234.7z"/>
	</g>
	<g>
		<path class="st1" d="M285.4,274.7c-3.5,0-6.4-2.9-6.4-6.4l0-1c-2.8-1.1-5.2-3-7-5.5c-0.1-0.1-0.2-0.2-0.3-0.3
			c0-0.1-0.1-0.2-0.2-0.2c-0.2-0.2-0.3-0.5-0.5-0.7l-0.1-0.1c-0.1-0.2-0.2-0.3-0.3-0.5c-0.2-0.4-0.4-0.8-0.6-1.1
			c-0.1-0.1-0.1-0.3-0.2-0.4c-0.2-0.5-0.4-1.1-0.6-1.6c-0.1-0.2-0.1-0.3-0.1-0.5c-0.1-0.3-0.2-0.7-0.3-1.1c0-0.1,0-0.1,0-0.2
			c0-0.1,0-0.2-0.1-0.3c-0.2-1-0.3-1.9-0.3-2.8l0-0.6c-1.6,0.4-3.2,0.6-4.7,0.6c-3.4,0-6.5-1.1-8.9-3.1c-1.1-1-2.1-2.2-3-3.6
			c-0.7-1.2-1.4-2.8-1.7-4.4l-0.2-0.8c-0.3-1.6-0.4-3.3-0.3-4.7c0.2-1.6,0.6-3.1,1.2-4.5c1.8-3.8,6.2-8.4,16.6-8.4
			c1.9,0,4,0.2,6.1,0.5c0.4-0.6,0.8-1.1,1.2-1.6c-1.4-2.9-0.4-6.4,2.4-8.2c1-0.7,2.2-1,3.4-1c1.7,0,3.2,0.6,4.4,1.7
			c1.2-1.1,2.7-1.8,4.4-1.8c1.2,0,2.4,0.3,3.4,1c2.8,1.7,3.8,5.3,2.4,8.2c0,0,0,0,0,0c0.5,0.5,0.9,1,1.2,1.5
			c2.2-0.3,4.4-0.5,6.3-0.5c10.3,0,14.6,4.5,16.4,8.3c0.6,1.3,1.1,2.9,1.3,4.5c0.2,1.4,0.1,3.1-0.3,4.7l-0.2,0.8
			c-0.3,1.6-1,3.2-1.7,4.4c-0.8,1.4-1.8,2.6-3,3.6c-2.5,2.1-5.6,3.2-9,3.2l0,0c-1.5,0-3-0.2-4.6-0.6l0,0.6c0,0.9-0.1,1.9-0.2,2.8
			c0,0.1,0,0.2-0.1,0.3c0,0.1,0,0.1,0,0.2c-0.1,0.4-0.2,0.7-0.3,1.1c0,0.1-0.1,0.3-0.1,0.5c-0.2,0.6-0.4,1.1-0.6,1.6
			c-0.1,0.2-0.1,0.3-0.2,0.5c-0.2,0.3-0.3,0.7-0.5,1.1c-0.1,0.2-0.2,0.3-0.3,0.5c-0.2,0.3-0.4,0.6-0.5,0.8c-0.1,0.1-0.1,0.2-0.2,0.3
			c-0.1,0.1-0.1,0.2-0.2,0.3c-1.8,2.5-4.3,4.4-7,5.5l0,1c0,1.7-0.7,3.3-1.9,4.5C288.7,274,287.1,274.7,285.4,274.7
			C285.4,274.7,285.4,274.7,285.4,274.7z"/>
		<path class="st1" d="M289.7,217c0.3,0,0.5,0.1,0.8,0.2c0.7,0.4,0.9,1.3,0.5,2l-2.1,3.3c1.1,0.5,2.1,1.2,3,2.1
			c1,1.1,1.7,2.4,2.1,3.7c2.6-0.6,5.9-1.1,9.2-1.1c5,0,9.9,1.2,11.9,5.5c0.4,0.9,0.7,1.9,0.8,2.9c0.1,0.9,0,2.1-0.2,3.1
			c-0.1,0.3-0.1,0.5-0.2,0.8c-0.2,0.9-0.6,2.1-1.1,2.9c-0.5,0.9-1.2,1.7-1.9,2.4c-1.7,1.4-3.6,2-5.7,2c-3.1,0-6.5-1.3-9.6-2.9
			c0,0.1,0,0.3,0,0.4l0,1.5h0l0,4.6h0l0,1.5c0,0.8-0.1,1.5-0.2,2.2h0c0,0,0,0,0,0.1c-0.1,0.3-0.1,0.6-0.2,0.9c0,0.1,0,0.2-0.1,0.3
			c-0.1,0.4-0.3,0.8-0.4,1.1c0,0.1-0.1,0.2-0.2,0.3c-0.1,0.3-0.2,0.5-0.4,0.8c-0.1,0.1-0.2,0.3-0.2,0.4c-0.1,0.2-0.3,0.4-0.4,0.6
			c0,0,0,0.1-0.1,0.1l0,0c-1.9,2.6-4.8,4.5-8.2,4.9l0,4.8c0,0.8-0.6,1.4-1.4,1.4c0,0,0,0,0,0c-0.8,0-1.4-0.6-1.4-1.4l0-4.8
			c-3.4-0.4-6.3-2.2-8.2-4.9l0,0c0,0,0-0.1-0.1-0.1c-0.1-0.2-0.3-0.4-0.4-0.6c-0.1-0.1-0.2-0.3-0.2-0.4c-0.1-0.3-0.3-0.5-0.4-0.8
			c0-0.1-0.1-0.2-0.1-0.3c-0.2-0.4-0.3-0.7-0.4-1.1c0-0.1,0-0.2-0.1-0.3c-0.1-0.3-0.2-0.6-0.2-0.9c0,0,0,0,0-0.1h0
			c-0.1-0.7-0.2-1.4-0.2-2.2l0-7.5c0-0.1,0-0.3,0-0.4c-3.1,1.7-6.5,3-9.7,3c-2.1,0-4-0.6-5.7-2c-0.8-0.6-1.4-1.4-2-2.3
			c-0.5-0.8-0.9-1.9-1.1-2.9c-0.1-0.3-0.1-0.5-0.2-0.8c-0.2-0.9-0.3-2.2-0.2-3.1c0.1-1,0.4-2,0.8-2.9c2-4.3,7-5.5,12.1-5.5
			c3.2,0,6.5,0.5,9,1c0.4-1.6,1.3-3.1,2.6-4.3c0.8-0.7,1.6-1.2,2.5-1.6l-2.1-3.3c-0.4-0.7-0.2-1.5,0.4-2c0.2-0.1,0.5-0.2,0.8-0.2
			c0.5,0,0.9,0.2,1.2,0.7l2.4,3.8c0.1,0.1,0.1,0.2,0.1,0.3c0.2,0,0.4,0,0.7,0c0.2,0,0.4,0,0.7,0c0-0.1,0.1-0.2,0.1-0.3l2.4-3.8
			C288.7,217.2,289.2,217,289.7,217 M289.7,207C289.7,207,289.7,207,289.7,207c-1.6,0-3.1,0.3-4.4,0.9c-1.4-0.6-2.8-0.9-4.4-0.9
			c-2.2,0-4.3,0.6-6.1,1.8c-2.6,1.6-4.4,4.2-5,7.1c-0.1,0.5-0.2,0.9-0.2,1.4c-0.6,0-1.2,0-1.8,0c-13.7,0-19.1,7.1-21.1,11.3
			c-0.9,1.8-1.4,3.9-1.7,6.1c-0.3,2.7,0.1,5.3,0.4,6.3l0.2,0.8c0.2,1,0.9,3.6,2.3,5.9c1.1,1.9,2.5,3.5,4.1,4.8
			c3.4,2.8,7.5,4.3,12.1,4.3c0.1,0,0.2,0,0.3,0c0.1,0.3,0.1,0.5,0.2,0.8c0.1,0.2,0.1,0.4,0.2,0.7c0.2,0.7,0.5,1.4,0.8,2.1
			c0.1,0.2,0.2,0.5,0.3,0.7c0.2,0.4,0.4,0.8,0.7,1.3c0.1,0.3,0.3,0.5,0.4,0.7c0.1,0.2,0.3,0.5,0.6,0.9c0.1,0.1,0.2,0.3,0.3,0.4
			c0.1,0.2,0.2,0.3,0.4,0.5c1.7,2.2,3.8,4.1,6.2,5.5c1,5.3,5.7,9.3,11.2,9.3c3.1,0,5.9-1.2,8.1-3.4c1.6-1.7,2.7-3.7,3.1-6
			c2.4-1.4,4.5-3.3,6.2-5.6c0.1-0.2,0.2-0.3,0.4-0.5c0.1-0.1,0.2-0.3,0.3-0.4c0.3-0.4,0.5-0.7,0.6-0.9c0.1-0.2,0.3-0.5,0.4-0.7
			c0.3-0.5,0.5-0.9,0.7-1.3c0.1-0.2,0.2-0.5,0.3-0.7c0.3-0.7,0.5-1.4,0.8-2.1c0.1-0.2,0.1-0.5,0.2-0.7c0.1-0.2,0.1-0.5,0.2-0.7
			c0,0,0.1,0,0.1,0c4.6,0,8.9-1.5,12.2-4.4c1.5-1.3,2.9-2.9,4-4.8c1.4-2.4,2.1-4.9,2.3-5.9l0.2-0.8c0.2-1,0.7-3.6,0.3-6.3
			c-0.3-2.2-0.8-4.2-1.7-6c-2-4.2-7.4-11.2-20.9-11.2c-0.7,0-1.4,0-2.1,0.1c-0.3-3.4-2.2-6.6-5.3-8.5
			C293.9,207.6,291.8,207,289.7,207L289.7,207z"/>
	</g>
	<g>
		<path class="st1" d="M343.2,175c-3.5,0-6.4-2.9-6.4-6.4l0-1c-2.8-1.1-5.2-3-7-5.5c-0.1-0.1-0.2-0.2-0.3-0.3c0-0.1-0.1-0.1-0.2-0.2
			c-0.1-0.2-0.3-0.5-0.4-0.7l-0.1-0.1c-0.1-0.2-0.2-0.3-0.3-0.5c-0.2-0.4-0.4-0.7-0.6-1.1c-0.1-0.1-0.1-0.3-0.2-0.4
			c-0.2-0.5-0.4-1-0.6-1.6c0-0.2-0.1-0.3-0.1-0.4c-0.1-0.4-0.2-0.8-0.3-1.2c0-0.1,0-0.1,0-0.2c0-0.1,0-0.2-0.1-0.3
			c-0.2-0.9-0.3-1.9-0.3-2.8l0-0.6c-1.6,0.4-3.2,0.6-4.7,0.6h0c-3.4,0-6.5-1.1-8.9-3.1c-1.1-1-2.1-2.2-3-3.6
			c-0.7-1.2-1.4-2.8-1.7-4.4l-0.2-0.8c-0.3-1.6-0.4-3.3-0.3-4.7c0.2-1.6,0.6-3.1,1.2-4.5c1.8-3.8,6.2-8.4,16.6-8.4
			c1.9,0,4,0.2,6.1,0.5c0.4-0.6,0.8-1.1,1.2-1.6c-0.6-1.3-0.8-2.7-0.5-4.2c0.4-1.7,1.4-3.1,2.8-4c1-0.7,2.2-1,3.4-1
			c1.7,0,3.2,0.6,4.4,1.7c1.2-1.1,2.7-1.8,4.4-1.8c1.2,0,2.4,0.3,3.4,1c2.8,1.7,3.8,5.3,2.4,8.2c0,0,0,0,0,0c0.5,0.5,0.9,1,1.2,1.5
			c2.2-0.3,4.4-0.5,6.3-0.5c10.3,0,14.6,4.5,16.4,8.3c0.6,1.3,1.1,2.9,1.3,4.5c0.2,1.4,0.1,3.1-0.3,4.7l-0.2,0.8
			c-0.3,1.6-1,3.2-1.7,4.4c-0.8,1.4-1.9,2.6-3,3.6c-2.5,2.1-5.6,3.2-9,3.2c-1.5,0-3-0.2-4.6-0.6l0,0.6c0,0.9-0.1,1.9-0.2,2.8
			c0,0.1,0,0.2,0,0.3c0,0.1,0,0.2,0,0.2c-0.1,0.4-0.2,0.7-0.3,1.1c0,0.1-0.1,0.3-0.1,0.4c-0.2,0.6-0.4,1.1-0.6,1.6
			c-0.1,0.2-0.1,0.3-0.2,0.5c-0.2,0.3-0.3,0.7-0.5,1.1c-0.1,0.2-0.2,0.3-0.3,0.5c-0.2,0.3-0.4,0.6-0.5,0.9c-0.1,0.1-0.1,0.2-0.2,0.3
			c-0.1,0.1-0.1,0.2-0.2,0.3c-1.8,2.5-4.3,4.4-7,5.5l0,1c0,1.7-0.7,3.3-1.9,4.5S344.9,174.9,343.2,175
			C343.2,175,343.2,175,343.2,175z"/>
		<path class="st1" d="M347.4,117.2c0.3,0,0.5,0.1,0.8,0.2c0.7,0.4,0.9,1.3,0.5,2l-2.1,3.3c1.1,0.5,2.1,1.2,3,2.1
			c1,1.1,1.7,2.4,2.1,3.7c2.6-0.6,5.9-1.1,9.2-1.1c5,0,9.9,1.2,11.9,5.5c0.4,0.9,0.7,1.9,0.8,2.9c0.1,0.9,0,2.1-0.2,3.1
			c-0.1,0.3-0.1,0.5-0.2,0.8c-0.2,0.9-0.6,2.1-1.1,2.9c-0.5,0.9-1.2,1.7-1.9,2.4c-1.7,1.4-3.6,2-5.7,2c-3.1,0-6.5-1.3-9.6-2.9
			c0,0.1,0,0.3,0,0.4l0,1.5h0l0,4.6h0l0,1.5c0,0.8-0.1,1.5-0.2,2.2h0c0,0,0,0.1,0,0.1c-0.1,0.3-0.1,0.6-0.2,0.9
			c0,0.1-0.1,0.2-0.1,0.3c-0.1,0.4-0.3,0.8-0.4,1.1c0,0.1-0.1,0.2-0.2,0.3c-0.1,0.3-0.2,0.5-0.4,0.8c-0.1,0.1-0.2,0.3-0.2,0.4
			c-0.1,0.2-0.3,0.4-0.4,0.6c0,0,0,0.1-0.1,0.1l0,0c-1.9,2.6-4.8,4.5-8.2,4.9l0,4.8c0,0.8-0.6,1.4-1.4,1.4c0,0,0,0,0,0
			c-0.8,0-1.4-0.6-1.4-1.4l0-4.8c-3.4-0.4-6.3-2.2-8.2-4.9l0,0c0,0,0-0.1-0.1-0.1c-0.1-0.2-0.3-0.4-0.4-0.6
			c-0.1-0.1-0.2-0.3-0.2-0.4c-0.1-0.3-0.3-0.5-0.4-0.8c0-0.1-0.1-0.2-0.1-0.3c-0.2-0.4-0.3-0.7-0.4-1.1c0-0.1,0-0.2-0.1-0.3
			c-0.1-0.3-0.2-0.6-0.2-0.9c0,0,0,0,0-0.1h0c-0.1-0.7-0.2-1.4-0.2-2.2l0-7.5c0-0.1,0-0.3,0-0.4c-3.1,1.7-6.5,3-9.7,3
			c-2.1,0-4-0.6-5.7-2c-0.8-0.6-1.4-1.4-2-2.3c-0.5-0.8-0.9-1.9-1.1-2.9c-0.1-0.3-0.1-0.5-0.2-0.8c-0.2-0.9-0.3-2.2-0.2-3.1
			c0.1-1,0.4-2,0.8-2.9c2-4.3,7-5.5,12.1-5.5c3.2,0,6.5,0.5,9,1c0.4-1.6,1.3-3.1,2.6-4.3c0.8-0.7,1.6-1.2,2.5-1.6l-2.1-3.3
			c-0.4-0.7-0.2-1.5,0.4-2c0.2-0.1,0.5-0.2,0.8-0.2c0.5,0,0.9,0.2,1.2,0.7l2.4,3.8c0.1,0.1,0.1,0.2,0.1,0.3c0.2,0,0.4,0,0.7,0
			c0.2,0,0.4,0,0.7,0c0-0.1,0.1-0.2,0.1-0.3l2.4-3.8C346.5,117.5,346.9,117.2,347.4,117.2 M347.4,107.2
			C347.4,107.2,347.4,107.2,347.4,107.2c-1.6,0-3.1,0.3-4.4,0.9c-1.4-0.6-2.8-0.9-4.4-0.9c-2.2,0-4.3,0.6-6.1,1.8
			c-3.1,2-4.9,5.2-5.3,8.6c-0.6,0-1.2,0-1.8,0c-13.7,0-19.1,7.1-21.1,11.3c-0.9,1.8-1.4,3.9-1.7,6.1c-0.3,2.7,0.1,5.3,0.4,6.3
			l0.2,0.7c0.2,1,0.9,3.6,2.3,6c1.1,1.9,2.5,3.5,4.1,4.8c3.4,2.8,7.5,4.3,12.1,4.3c0.1,0,0.2,0,0.3,0c0.1,0.3,0.1,0.6,0.2,0.8
			c0.1,0.2,0.1,0.4,0.2,0.7c0.2,0.7,0.5,1.4,0.8,2.1c0.1,0.2,0.2,0.4,0.3,0.7c0.2,0.4,0.4,0.8,0.7,1.3c0.1,0.3,0.3,0.5,0.4,0.7
			l8.5-5.2l-8.5,5.3c0.1,0.2,0.3,0.5,0.5,0.8c0.1,0.1,0.2,0.3,0.3,0.4c0.1,0.2,0.3,0.3,0.4,0.5c1.7,2.2,3.8,4.1,6.2,5.5
			c1,5.3,5.7,9.3,11.2,9.3c3.1,0,5.9-1.2,8.1-3.4c1.6-1.7,2.7-3.7,3.1-6c2.4-1.4,4.5-3.3,6.2-5.6c0.1-0.2,0.2-0.3,0.4-0.5
			c0.1-0.1,0.2-0.3,0.3-0.4c0.2-0.4,0.4-0.7,0.6-0.9c0.1-0.2,0.3-0.5,0.4-0.7c0.3-0.5,0.5-0.9,0.6-1.3c0.1-0.2,0.2-0.5,0.3-0.7
			c0.3-0.7,0.5-1.4,0.8-2.1c0.1-0.2,0.1-0.5,0.2-0.7c0.1-0.2,0.1-0.4,0.2-0.7c0,0,0.1,0,0.1,0c4.6,0,8.9-1.5,12.2-4.4
			c1.5-1.3,2.9-2.9,4-4.8c1.4-2.4,2.1-4.9,2.3-5.9l0.2-0.8c0.2-1,0.7-3.6,0.3-6.3c-0.3-2.2-0.8-4.2-1.7-6c-2-4.2-7.4-11.2-20.9-11.2
			c-0.7,0-1.4,0-2.1,0.1c-0.3-3.4-2.2-6.6-5.3-8.5C351.6,107.8,349.6,107.2,347.4,107.2L347.4,107.2z"/>
	</g>
	<g>
		<path class="st1" d="M108.5,113c-3.5,0-6.4-2.9-6.4-6.4l0-1c-2.8-1.1-5.2-3-7-5.5c-0.1-0.1-0.2-0.2-0.2-0.3
			c-0.1-0.1-0.1-0.2-0.2-0.3c-0.2-0.2-0.3-0.5-0.5-0.7l-0.1-0.1c-0.1-0.2-0.2-0.3-0.3-0.5c-0.2-0.4-0.4-0.7-0.5-1.1
			c-0.1-0.1-0.1-0.3-0.2-0.4c-0.2-0.5-0.4-1.1-0.6-1.6c0-0.2-0.1-0.3-0.1-0.5c-0.1-0.3-0.2-0.7-0.3-1.1c0-0.1,0-0.1,0-0.2
			c0-0.1,0-0.2-0.1-0.3c-0.2-1-0.3-1.9-0.3-2.8l0-0.6c-1.6,0.4-3.2,0.6-4.7,0.6c-3.4,0-6.5-1.1-8.9-3.1c-1.1-1-2.1-2.2-3-3.6
			c-0.7-1.2-1.4-2.8-1.7-4.4l-0.2-0.8c-0.3-1.6-0.4-3.3-0.3-4.7c0.2-1.6,0.6-3.1,1.2-4.5c1.8-3.8,6.2-8.4,16.6-8.4
			c1.9,0,4,0.2,6.1,0.5c0.4-0.6,0.8-1.1,1.2-1.6c-0.6-1.3-0.8-2.7-0.5-4.2c0.4-1.7,1.4-3.1,2.8-4c1-0.7,2.2-1,3.4-1
			c1.7,0,3.2,0.6,4.4,1.7c1.2-1.1,2.7-1.8,4.4-1.8c1.2,0,2.4,0.3,3.4,1c2.8,1.7,3.8,5.3,2.4,8.2c0,0,0,0,0,0c0.4,0.5,0.9,1,1.2,1.5
			c2.2-0.3,4.4-0.5,6.3-0.5c10.3,0,14.6,4.5,16.4,8.3c0.6,1.3,1.1,2.9,1.3,4.5c0.2,1.4,0.1,3.1-0.3,4.7l-0.2,0.8
			c-0.3,1.6-1,3.2-1.7,4.4c-0.8,1.4-1.8,2.6-3,3.6c-2.5,2.1-5.6,3.2-9,3.2c0,0,0,0,0,0c-1.5,0-3-0.2-4.6-0.6l0,0.6
			c0,0.9-0.1,1.9-0.2,2.8c0,0.1,0,0.1,0,0.2c0,0.1,0,0.2-0.1,0.3c-0.1,0.3-0.2,0.7-0.3,1.1c0,0.1-0.1,0.3-0.1,0.5
			c-0.2,0.6-0.4,1.1-0.6,1.6c-0.1,0.2-0.1,0.3-0.2,0.5c-0.2,0.4-0.3,0.7-0.5,1.1c-0.1,0.2-0.2,0.3-0.3,0.5c-0.2,0.3-0.4,0.6-0.5,0.9
			c-0.1,0.1-0.1,0.2-0.2,0.3c-0.1,0.1-0.1,0.2-0.2,0.3c-1.8,2.5-4.3,4.4-7,5.5l0,1c0,1.7-0.7,3.3-1.9,4.5
			C111.8,112.3,110.2,113,108.5,113C108.5,113,108.5,113,108.5,113z"/>
		<path class="st1" d="M112.7,55.3c0.3,0,0.5,0.1,0.8,0.2c0.7,0.4,0.9,1.3,0.5,2l-2.1,3.3c1.1,0.5,2.1,1.2,3,2.1
			c1,1.1,1.7,2.4,2.1,3.7c2.6-0.6,5.9-1.1,9.2-1.1c5,0,9.9,1.2,11.9,5.5c0.4,0.9,0.7,1.9,0.8,2.9c0.1,0.9,0,2.1-0.2,3.1
			c-0.1,0.3-0.1,0.5-0.2,0.8c-0.2,0.9-0.6,2.1-1.1,2.9c-0.5,0.9-1.2,1.7-1.9,2.4c-1.7,1.4-3.6,2-5.7,2c-3.1,0-6.5-1.3-9.6-2.9
			c0,0.1,0,0.3,0,0.4l0,1.5h0l0,4.6h0l0,1.5c0,0.8-0.1,1.5-0.2,2.2h0c0,0,0,0.1,0,0.1c-0.1,0.3-0.1,0.6-0.2,0.9
			c0,0.1-0.1,0.2-0.1,0.3c-0.1,0.4-0.3,0.8-0.4,1.1c0,0.1-0.1,0.2-0.2,0.3c-0.1,0.3-0.2,0.5-0.4,0.8c-0.1,0.1-0.2,0.3-0.2,0.4
			c-0.1,0.2-0.3,0.4-0.4,0.6c0,0,0,0.1-0.1,0.1l0,0c-1.9,2.6-4.8,4.5-8.2,4.9l0,4.8c0,0.8-0.6,1.4-1.4,1.4c0,0,0,0,0,0
			c-0.8,0-1.4-0.6-1.4-1.4l0-4.8c-3.4-0.4-6.3-2.2-8.2-4.9l0,0c0,0,0-0.1-0.1-0.1c-0.1-0.2-0.3-0.4-0.4-0.6
			c-0.1-0.1-0.2-0.3-0.2-0.4c-0.1-0.3-0.3-0.5-0.4-0.8c0-0.1-0.1-0.2-0.1-0.3c-0.2-0.4-0.3-0.7-0.4-1.1c0-0.1,0-0.2-0.1-0.3
			C97,93,97,92.6,96.9,92.3c0,0,0,0,0-0.1h0c-0.1-0.7-0.2-1.4-0.2-2.2l0-7.5c0-0.1,0-0.3,0-0.4c-3.1,1.7-6.5,3-9.7,3
			c-2.1,0-4-0.6-5.7-2c-0.8-0.6-1.4-1.4-2-2.3c-0.5-0.8-0.9-1.9-1.1-2.9c-0.1-0.3-0.1-0.5-0.2-0.8c-0.2-0.9-0.3-2.2-0.2-3.1
			c0.1-1,0.4-2,0.8-2.9c2-4.3,7-5.5,12.1-5.5c3.2,0,6.5,0.5,9,1c0.4-1.6,1.3-3.1,2.6-4.3c0.8-0.7,1.6-1.2,2.5-1.6l-2.1-3.3
			c-0.4-0.7-0.2-1.5,0.4-2c0.2-0.1,0.5-0.2,0.8-0.2c0.5,0,0.9,0.2,1.2,0.7l2.4,3.8c0.1,0.1,0.1,0.2,0.1,0.3c0.2,0,0.4,0,0.7,0
			c0.2,0,0.4,0,0.7,0c0-0.1,0.1-0.2,0.1-0.3l2.4-3.8C111.8,55.5,112.3,55.3,112.7,55.3 M112.7,45.3
			C112.7,45.3,112.7,45.3,112.7,45.3C112.7,45.3,112.7,45.3,112.7,45.3c-1.6,0-3.1,0.3-4.4,0.9c-1.4-0.6-2.8-0.9-4.4-0.9
			c-2.2,0-4.3,0.6-6.1,1.8c-3.1,2-4.9,5.2-5.3,8.6c-0.6,0-1.2,0-1.8,0c-13.7,0-19.1,7.1-21.1,11.3c-0.9,1.8-1.4,3.9-1.7,6.1
			c-0.3,2.7,0.1,5.3,0.4,6.3l0.2,0.8c0.2,1,0.9,3.6,2.3,5.9c1.1,1.9,2.5,3.5,4.1,4.8c3.4,2.8,7.5,4.3,12.1,4.3c0.1,0,0.2,0,0.3,0
			c0.1,0.3,0.1,0.5,0.2,0.8c0.1,0.2,0.1,0.4,0.2,0.7c0.2,0.7,0.5,1.4,0.8,2.1c0.1,0.2,0.2,0.5,0.3,0.7c0.2,0.4,0.4,0.8,0.7,1.3
			c0.1,0.3,0.3,0.5,0.4,0.7c0.1,0.2,0.3,0.5,0.6,0.9c0.1,0.1,0.2,0.3,0.3,0.4c0.1,0.2,0.2,0.3,0.4,0.5c1.7,2.2,3.8,4.1,6.2,5.5
			c1,5.3,5.7,9.3,11.2,9.3c3.1,0,5.9-1.2,8.1-3.4c1.6-1.7,2.7-3.7,3.1-6c2.4-1.4,4.5-3.3,6.2-5.6c0.1-0.2,0.2-0.3,0.4-0.5
			c0.1-0.1,0.2-0.3,0.3-0.4c0.3-0.4,0.4-0.7,0.6-0.9c0.1-0.2,0.3-0.5,0.4-0.7c0.3-0.5,0.5-0.9,0.6-1.3c0.1-0.2,0.2-0.5,0.3-0.7
			c0.3-0.7,0.5-1.4,0.8-2.1c0.1-0.2,0.1-0.5,0.2-0.7c0.1-0.2,0.1-0.4,0.2-0.7c0,0,0.1,0,0.1,0c4.6,0,8.9-1.5,12.2-4.4
			c1.5-1.3,2.9-2.9,4-4.8c1.4-2.4,2.1-4.9,2.3-5.9l0.2-0.8c0.2-1,0.7-3.6,0.3-6.3c-0.3-2.2-0.8-4.2-1.7-6c-2-4.2-7.4-11.2-20.9-11.2
			c-0.7,0-1.4,0-2.1,0.1c-0.3-3.4-2.2-6.6-5.3-8.5C117,45.9,114.9,45.3,112.7,45.3L112.7,45.3L112.7,45.3z"/>
	</g>
	<g>
		<path class="st1" d="M50.7,147.2c-3.5,0-6.4-2.9-6.4-6.4l0-1c-2.8-1.1-5.2-3-7-5.5c-0.1-0.1-0.2-0.2-0.3-0.3
			c0-0.1-0.1-0.2-0.2-0.2c-0.2-0.2-0.3-0.5-0.5-0.7c-0.2-0.3-0.3-0.4-0.4-0.6c-0.2-0.4-0.4-0.7-0.5-1.1c-0.1-0.1-0.1-0.3-0.2-0.4
			c-0.2-0.5-0.4-1.1-0.6-1.6c0-0.1-0.1-0.3-0.1-0.4c-0.1-0.4-0.2-0.8-0.3-1.1c0-0.1,0-0.2-0.1-0.3c0-0.1,0-0.2,0-0.2
			c-0.2-1-0.3-1.9-0.3-2.8l0-0.6c-1.6,0.4-3.2,0.6-4.7,0.6c0,0,0,0,0,0c-3.4,0-6.5-1.1-8.9-3.1c-1.1-1-2.1-2.2-3-3.6
			c-0.7-1.2-1.4-2.8-1.7-4.4l-0.2-0.8c-0.3-1.6-0.4-3.3-0.3-4.7c0.2-1.6,0.6-3.1,1.2-4.5c1.8-3.8,6.2-8.4,16.6-8.4
			c1.9,0,4,0.2,6.1,0.5c0.4-0.6,0.8-1.1,1.2-1.6c-0.6-1.3-0.8-2.7-0.5-4.2c0.4-1.7,1.4-3.1,2.8-4c1-0.7,2.2-1,3.4-1
			c1.7,0,3.2,0.6,4.4,1.7c1.2-1.1,2.7-1.8,4.4-1.8c1.2,0,2.4,0.3,3.4,1c2.8,1.7,3.8,5.3,2.4,8.2c0,0,0,0,0,0c0.4,0.5,0.9,1,1.2,1.5
			c2.2-0.3,4.4-0.5,6.3-0.5c10.3,0,14.6,4.5,16.4,8.3c0.6,1.3,1.1,2.9,1.3,4.5c0.2,1.4,0.1,3.1-0.3,4.7l-0.2,0.8
			c-0.3,1.6-1,3.2-1.7,4.4c-0.8,1.4-1.9,2.6-3,3.6c-2.5,2.1-5.6,3.2-9,3.2c-1.5,0-3-0.2-4.6-0.6l0,0.6c0,0.9-0.1,1.9-0.2,2.8
			c0,0.1,0,0.2,0,0.3c0,0.1,0,0.2-0.1,0.2c-0.1,0.4-0.2,0.7-0.3,1.1c0,0.1-0.1,0.3-0.1,0.5c-0.2,0.6-0.4,1.1-0.6,1.6
			c-0.1,0.2-0.1,0.3-0.2,0.5c-0.2,0.3-0.3,0.7-0.5,1.1c-0.1,0.2-0.2,0.3-0.3,0.5c-0.2,0.3-0.4,0.6-0.5,0.8c-0.1,0.1-0.1,0.2-0.2,0.3
			c-0.1,0.1-0.1,0.2-0.2,0.3c-1.8,2.5-4.3,4.4-7,5.5l0,1c0,1.7-0.7,3.3-1.9,4.5C54.1,146.6,52.5,147.2,50.7,147.2
			C50.7,147.2,50.7,147.2,50.7,147.2z"/>
		<path class="st1" d="M55,89.5c0.3,0,0.5,0.1,0.8,0.2c0.7,0.4,0.9,1.3,0.5,2L54.1,95c1.1,0.5,2.1,1.2,3,2.1c1,1.1,1.7,2.4,2.1,3.7
			c2.6-0.6,5.9-1.1,9.2-1.1c5,0,9.9,1.2,11.9,5.5c0.4,0.9,0.7,1.9,0.8,2.9c0.1,0.9,0,2.1-0.2,3.1c-0.1,0.3-0.1,0.5-0.2,0.8
			c-0.2,0.9-0.6,2.1-1.1,2.9c-0.5,0.9-1.2,1.7-1.9,2.4c-1.7,1.4-3.6,2-5.7,2c-3.1,0-6.5-1.3-9.6-2.9c0,0.1,0,0.3,0,0.4l0,1.5h0
			l0,4.6h0l0,1.5c0,0.8-0.1,1.5-0.2,2.2h0c0,0,0,0.1,0,0.1c-0.1,0.3-0.1,0.6-0.2,0.9c0,0.1-0.1,0.2-0.1,0.3
			c-0.1,0.4-0.3,0.8-0.4,1.1c0,0.1-0.1,0.2-0.2,0.3c-0.1,0.3-0.2,0.5-0.4,0.8c-0.1,0.1-0.2,0.3-0.2,0.4c-0.1,0.2-0.3,0.4-0.4,0.6
			c0,0,0,0.1-0.1,0.1l0,0c-1.9,2.6-4.8,4.5-8.2,4.9l0,4.8c0,0.8-0.6,1.4-1.4,1.4c0,0,0,0,0,0c-0.8,0-1.4-0.6-1.4-1.4l0-4.8
			c-3.4-0.4-6.3-2.2-8.2-4.9l0,0c0,0,0-0.1-0.1-0.1c-0.1-0.2-0.3-0.4-0.4-0.6c-0.1-0.1-0.2-0.3-0.2-0.4c-0.1-0.3-0.3-0.5-0.4-0.8
			c0-0.1-0.1-0.2-0.1-0.3c-0.2-0.4-0.3-0.7-0.4-1.1c0-0.1,0-0.2-0.1-0.3c-0.1-0.3-0.2-0.6-0.2-0.9c0,0,0,0,0-0.1h0
			c-0.1-0.7-0.2-1.4-0.2-2.2l0-7.5c0-0.1,0-0.3,0-0.4c-3.1,1.7-6.5,3-9.7,3c-2.1,0-4-0.6-5.7-2c-0.8-0.6-1.4-1.4-2-2.3
			c-0.5-0.8-0.9-1.9-1.1-2.9c-0.1-0.3-0.1-0.5-0.2-0.8c-0.2-0.9-0.3-2.2-0.2-3.1c0.1-1,0.4-2,0.8-2.9c2-4.3,7-5.5,12.1-5.5
			c3.2,0,6.5,0.5,9,1c0.4-1.6,1.3-3.1,2.6-4.3c0.8-0.7,1.6-1.2,2.5-1.6L45,91.7c-0.4-0.7-0.2-1.5,0.4-2c0.2-0.1,0.5-0.2,0.8-0.2
			c0.5,0,0.9,0.2,1.2,0.7l2.4,3.8c0.1,0.1,0.1,0.2,0.1,0.3c0.2,0,0.4,0,0.7,0c0.2,0,0.4,0,0.7,0c0-0.1,0.1-0.2,0.1-0.3l2.4-3.8
			C54.1,89.8,54.5,89.5,55,89.5 M55,79.5C55,79.5,55,79.5,55,79.5C55,79.5,55,79.5,55,79.5c-1.6,0-3.1,0.3-4.4,0.9
			c-1.4-0.6-2.8-0.9-4.4-0.9c-2.2,0-4.3,0.6-6.1,1.8c-3.1,2-4.9,5.2-5.3,8.6c-0.6,0-1.2,0-1.8,0c-13.7,0-19.1,7.1-21.1,11.3
			c-0.9,1.8-1.4,3.9-1.7,6.1c-0.3,2.7,0.1,5.3,0.4,6.3l0.2,0.8c0.2,1,0.9,3.6,2.3,6c1.1,1.9,2.5,3.5,4.1,4.8
			c3.4,2.8,7.5,4.3,12.1,4.3c0.1,0,0.2,0,0.3,0c0.1,0.3,0.1,0.6,0.2,0.8c0.1,0.2,0.1,0.4,0.2,0.7c0.2,0.7,0.5,1.4,0.8,2.1
			c0.1,0.2,0.2,0.5,0.3,0.7c0.2,0.4,0.4,0.8,0.7,1.3c0.1,0.3,0.3,0.5,0.4,0.7l8.5-5.2l-8.5,5.3c0.1,0.2,0.3,0.5,0.5,0.8
			c0.1,0.1,0.2,0.3,0.3,0.4c0.1,0.2,0.2,0.3,0.4,0.5c1.7,2.2,3.8,4.1,6.2,5.5c1,5.3,5.7,9.3,11.2,9.3c3.1,0,5.9-1.2,8.1-3.4
			c1.6-1.7,2.7-3.7,3.1-6c2.4-1.4,4.5-3.3,6.2-5.6c0.1-0.2,0.2-0.3,0.4-0.5c0.1-0.1,0.2-0.3,0.3-0.4c0.3-0.4,0.4-0.7,0.6-0.9
			c0.1-0.2,0.3-0.5,0.4-0.7c0.3-0.5,0.5-0.9,0.6-1.3c0.1-0.2,0.2-0.5,0.3-0.7c0.3-0.7,0.5-1.4,0.8-2.1c0.1-0.2,0.1-0.5,0.2-0.7
			c0.1-0.2,0.1-0.4,0.2-0.7c0,0,0.1,0,0.1,0c4.6,0,8.9-1.5,12.2-4.4c1.5-1.3,2.9-2.9,4-4.8c1.4-2.4,2.1-4.9,2.3-5.9l0.2-0.8
			c0.2-1,0.7-3.6,0.3-6.3c-0.3-2.2-0.8-4.2-1.7-6c-2-4.2-7.4-11.2-20.9-11.2c-0.7,0-1.4,0-2.1,0.1c-0.3-3.4-2.2-6.6-5.3-8.5
			C59.2,80.1,57.1,79.5,55,79.5L55,79.5L55,79.5z"/>
	</g>
</g>
<g>
	<g>
		<path class="st2" d="M108.5,230.4c-0.8,0-1.4-0.6-1.4-1.4l0-5.1c0-0.8,0.6-1.4,1.4-1.4c0.8,0,1.4,0.6,1.4,1.4l0,5.1
			C109.9,229.8,109.3,230.4,108.5,230.4z"/>
		<path class="st3" d="M108.5,224.2L108.5,224.2c-6.5,0-11.8-5.3-11.8-11.7l0-7.5c0-6.5,5.3-11.8,11.7-11.8l0,0
			c6.5,0,11.8,5.3,11.8,11.7l0,7.5C120.2,218.9,115,224.2,108.5,224.2z"/>
		<g>
			<path class="st2" d="M118,198.1l-19.2,0.1c-1,1.4-1.6,2.9-1.9,4.6l23.1-0.1C119.7,201,119,199.5,118,198.1z"/>
			
				<rect x="96.7" y="206.4" transform="matrix(1 -2.851758e-03 2.851758e-03 1 -0.5947 0.3101)" class="st2" width="23.6" height="4.6"/>
			<path class="st2" d="M98.9,219.3l19.2-0.1c1-1.4,1.6-2.9,2-4.6l-23.1,0.1C97.2,216.4,97.9,217.9,98.9,219.3z"/>
		</g>
		<g>
			<path class="st4" d="M106.4,197.6l-0.8-3.6l-0.8-3.6c0,0-21.3-7-26.1,3.2c-0.4,0.9-0.7,1.9-0.8,2.9c-0.1,0.9,0,2.1,0.2,3.1
				c0.1,0.3,0.1,0.5,0.2,0.8c0.2,0.9,0.6,2.1,1.1,2.9c0.5,0.9,1.2,1.7,2,2.3C89.9,212.8,106.4,197.6,106.4,197.6z"/>
			<path class="st4" d="M110.4,197.6l0.8-3.6l0.8-3.6c0,0,21.2-7.1,26.1,3.1c0.4,0.9,0.7,1.9,0.8,2.9c0.1,0.9,0,2.1-0.2,3.1
				c-0.1,0.3-0.1,0.5-0.2,0.8c-0.2,0.9-0.6,2.1-1.1,2.9c-0.5,0.9-1.2,1.7-1.9,2.4C127,212.7,110.4,197.6,110.4,197.6z"/>
		</g>
		<g>
			<circle class="st2" cx="108.4" cy="191.3" r="8.9"/>
			<path class="st2" d="M110.4,184.4c-0.3,0-0.5-0.1-0.8-0.2c-0.7-0.4-0.9-1.3-0.5-2l2.4-3.8c0.4-0.7,1.3-0.9,2-0.5
				c0.7,0.4,0.9,1.3,0.5,2l-2.4,3.8C111.3,184.1,110.8,184.4,110.4,184.4z"/>
			<path class="st2" d="M106.4,184.4c-0.5,0-0.9-0.2-1.2-0.7l-2.4-3.8c-0.4-0.7-0.2-1.5,0.4-2c0.7-0.4,1.5-0.2,2,0.4l2.4,3.8
				c0.4,0.7,0.2,1.5-0.4,2C106.9,184.3,106.6,184.4,106.4,184.4z"/>
		</g>
	</g>
	<g>
		<path class="st2" d="M50.7,202.7c-0.8,0-1.4-0.6-1.4-1.4l0-5.1c0-0.8,0.6-1.4,1.4-1.4c0.8,0,1.4,0.6,1.4,1.4l0,5.1
			C52.2,202.1,51.5,202.7,50.7,202.7z"/>
		<path class="st3" d="M50.7,196.5L50.7,196.5c-6.5,0-11.8-5.3-11.8-11.7l0-7.5c0-6.5,5.3-11.8,11.7-11.8l0,0
			c6.5,0,11.8,5.3,11.8,11.7l0,7.5C62.5,191.2,57.2,196.5,50.7,196.5z"/>
		<g>
			<path class="st2" d="M60.2,170.4L41,170.5c-1,1.4-1.6,2.9-1.9,4.6l23.1-0.1C61.9,173.3,61.2,171.7,60.2,170.4z"/>
			
				<rect x="38.9" y="178.7" transform="matrix(1 -2.851758e-03 2.851758e-03 1 -0.5159 0.1452)" class="st2" width="23.6" height="4.6"/>
			<path class="st2" d="M41.1,191.6l19.2-0.1c1-1.4,1.6-2.9,2-4.6L39.1,187C39.4,188.7,40.1,190.2,41.1,191.6z"/>
		</g>
		<g>
			<path class="st4" d="M48.6,169.9l-0.8-3.6l-0.8-3.6c0,0-21.3-7-26.1,3.2c-0.4,0.9-0.7,1.9-0.8,2.9c-0.1,0.9,0,2.1,0.2,3.1
				c0.1,0.3,0.1,0.5,0.2,0.8c0.2,0.9,0.6,2.1,1.1,2.9c0.5,0.9,1.2,1.7,2,2.3C32.2,185.1,48.6,169.9,48.6,169.9z"/>
			<path class="st4" d="M52.7,169.9l0.8-3.6l0.8-3.6c0,0,21.2-7.1,26.1,3.1c0.4,0.9,0.7,1.9,0.8,2.9c0.1,0.9,0,2.1-0.2,3.1
				c-0.1,0.3-0.1,0.5-0.2,0.8c-0.2,0.9-0.6,2.1-1.1,2.9c-0.5,0.9-1.2,1.7-1.9,2.4C69.2,185,52.7,169.9,52.7,169.9z"/>
		</g>
		<g>
			<circle class="st2" cx="50.6" cy="163.6" r="8.9"/>
			<path class="st2" d="M52.6,156.6c-0.3,0-0.5-0.1-0.8-0.2c-0.7-0.4-0.9-1.3-0.5-2l2.4-3.8c0.4-0.7,1.3-0.9,2-0.5
				c0.7,0.4,0.9,1.3,0.5,2l-2.4,3.8C53.5,156.4,53.1,156.6,52.6,156.6z"/>
			<path class="st2" d="M48.6,156.7c-0.5,0-0.9-0.2-1.2-0.7l-2.4-3.8c-0.4-0.7-0.2-1.5,0.4-2c0.7-0.4,1.5-0.2,2,0.4l2.4,3.8
				c0.4,0.7,0.2,1.5-0.4,2C49.1,156.6,48.9,156.7,48.6,156.7z"/>
		</g>
	</g>
	<g>
		<path class="st2" d="M108.5,297.4c-0.8,0-1.4-0.6-1.4-1.4l0-5.1c0-0.8,0.6-1.4,1.4-1.4c0.8,0,1.4,0.6,1.4,1.4l0,5.1
			C109.9,296.8,109.3,297.4,108.5,297.4z"/>
		<path class="st3" d="M108.5,291.3L108.5,291.3c-6.5,0-11.8-5.3-11.8-11.7l0-7.5c0-6.5,5.3-11.8,11.7-11.8l0,0
			c6.5,0,11.8,5.3,11.8,11.7l0,7.5C120.2,285.9,115,291.2,108.5,291.3z"/>
		<g>
			<path class="st2" d="M118,265.1l-19.2,0.1c-1,1.4-1.6,2.9-1.9,4.6l23.1-0.1C119.7,268,119,266.5,118,265.1z"/>
			
				<rect x="96.7" y="273.4" transform="matrix(1 -2.851758e-03 2.851758e-03 1 -0.7858 0.3103)" class="st2" width="23.6" height="4.6"/>
			<path class="st2" d="M98.9,286.3l19.2-0.1c1-1.4,1.6-2.9,2-4.6l-23.1,0.1C97.2,283.4,97.9,284.9,98.9,286.3z"/>
		</g>
		<g>
			<path class="st4" d="M106.4,264.6l-0.8-3.6l-0.8-3.6c0,0-21.3-7-26.1,3.2c-0.4,0.9-0.7,1.9-0.8,2.9c-0.1,0.9,0,2.1,0.2,3.1
				c0.1,0.3,0.1,0.5,0.2,0.8c0.2,0.9,0.6,2.1,1.1,2.9c0.5,0.9,1.2,1.7,2,2.3C89.9,279.8,106.4,264.6,106.4,264.6z"/>
			<path class="st4" d="M110.4,264.6l0.8-3.6l0.8-3.6c0,0,21.2-7.1,26.1,3.1c0.4,0.9,0.7,1.9,0.8,2.9c0.1,0.9,0,2.1-0.2,3.1
				c-0.1,0.3-0.1,0.5-0.2,0.8c-0.2,0.9-0.6,2.1-1.1,2.9c-0.5,0.9-1.2,1.7-1.9,2.4C127,279.7,110.4,264.6,110.4,264.6z"/>
		</g>
		<g>
			<circle class="st2" cx="108.4" cy="258.3" r="8.9"/>
			<path class="st2" d="M110.4,251.4c-0.3,0-0.5-0.1-0.8-0.2c-0.7-0.4-0.9-1.3-0.5-2l2.4-3.8c0.4-0.7,1.3-0.9,2-0.5
				c0.7,0.4,0.9,1.3,0.5,2l-2.4,3.8C111.3,251.1,110.8,251.4,110.4,251.4z"/>
			<path class="st2" d="M106.4,251.4c-0.5,0-0.9-0.2-1.2-0.7l-2.4-3.8c-0.4-0.7-0.2-1.5,0.4-2c0.7-0.4,1.5-0.2,2,0.4l2.4,3.8
				c0.4,0.7,0.2,1.5-0.4,2C106.9,251.3,106.6,251.4,106.4,251.4z"/>
		</g>
	</g>
	<g>
		<path class="st2" d="M50.7,269.7c-0.8,0-1.4-0.6-1.4-1.4l0-5.1c0-0.8,0.6-1.4,1.4-1.4c0.8,0,1.4,0.6,1.4,1.4l0,5.1
			C52.2,269.1,51.5,269.7,50.7,269.7z"/>
		<path class="st3" d="M50.7,263.5L50.7,263.5c-6.5,0-11.8-5.3-11.8-11.7l0-7.5c0-6.5,5.3-11.8,11.7-11.8l0,0
			c6.5,0,11.8,5.3,11.8,11.7l0,7.5C62.5,258.2,57.2,263.5,50.7,263.5z"/>
		<g>
			<path class="st2" d="M60.2,237.4L41,237.5c-1,1.4-1.6,2.9-1.9,4.6l23.1-0.1C61.9,240.3,61.2,238.8,60.2,237.4z"/>
			
				<rect x="38.9" y="245.7" transform="matrix(1 -2.851758e-03 2.851758e-03 1 -0.707 0.1455)" class="st2" width="23.6" height="4.6"/>
			<path class="st2" d="M41.1,258.6l19.2-0.1c1-1.4,1.6-2.9,2-4.6L39.1,254C39.4,255.7,40.1,257.2,41.1,258.6z"/>
		</g>
		<g>
			<path class="st4" d="M48.6,236.9l-0.8-3.6l-0.8-3.6c0,0-21.3-7-26.1,3.2c-0.4,0.9-0.7,1.9-0.8,2.9c-0.1,0.9,0,2.1,0.2,3.1
				c0.1,0.3,0.1,0.5,0.2,0.8c0.2,0.9,0.6,2.1,1.1,2.9c0.5,0.9,1.2,1.7,2,2.3C32.2,252.1,48.6,236.9,48.6,236.9z"/>
			<path class="st4" d="M52.7,236.9l0.8-3.6l0.8-3.6c0,0,21.2-7.1,26.1,3.1c0.4,0.9,0.7,1.9,0.8,2.9c0.1,0.9,0,2.1-0.2,3.1
				c-0.1,0.3-0.1,0.5-0.2,0.8c-0.2,0.9-0.6,2.1-1.1,2.9c-0.5,0.9-1.2,1.7-1.9,2.4C69.2,252,52.7,236.9,52.7,236.9z"/>
		</g>
		<g>
			<circle class="st2" cx="50.6" cy="230.6" r="8.9"/>
			<path class="st2" d="M52.6,223.7c-0.3,0-0.5-0.1-0.8-0.2c-0.7-0.4-0.9-1.3-0.5-2l2.4-3.8c0.4-0.7,1.3-0.9,2-0.5
				c0.7,0.4,0.9,1.3,0.5,2l-2.4,3.8C53.5,223.4,53.1,223.7,52.6,223.7z"/>
			<path class="st2" d="M48.6,223.7c-0.5,0-0.9-0.2-1.2-0.7l-2.4-3.8c-0.4-0.7-0.2-1.5,0.4-2c0.7-0.4,1.5-0.2,2,0.4l2.4,3.8
				c0.4,0.7,0.2,1.5-0.4,2C49.1,223.6,48.9,223.7,48.6,223.7z"/>
		</g>
	</g>
	<g>
		<path class="st2" d="M108.5,362.1c-0.8,0-1.4-0.6-1.4-1.4l0-5.1c0-0.8,0.6-1.4,1.4-1.4s1.4,0.6,1.4,1.4l0,5.1
			C109.9,361.4,109.3,362.1,108.5,362.1z"/>
		<path class="st3" d="M108.5,355.9L108.5,355.9c-6.5,0-11.8-5.3-11.8-11.7l0-7.5c0-6.5,5.3-11.8,11.7-11.8l0,0
			c6.5,0,11.8,5.3,11.8,11.7l0,7.5C120.2,350.6,115,355.9,108.5,355.9z"/>
		<g>
			<path class="st2" d="M118,329.8l-19.2,0.1c-1,1.4-1.6,2.9-1.9,4.6l23.1-0.1C119.7,332.7,119,331.1,118,329.8z"/>
			
				<rect x="96.7" y="338" transform="matrix(1 -2.851758e-03 2.851758e-03 1 -0.9701 0.3106)" class="st2" width="23.6" height="4.6"/>
			<path class="st2" d="M98.9,350.9l19.2-0.1c1-1.4,1.6-2.9,2-4.6l-23.1,0.1C97.2,348,97.9,349.6,98.9,350.9z"/>
		</g>
		<g>
			<path class="st4" d="M106.4,329.3l-0.8-3.6l-0.8-3.6c0,0-21.3-7-26.1,3.2c-0.4,0.9-0.7,1.9-0.8,2.9c-0.1,0.9,0,2.1,0.2,3.1
				c0.1,0.3,0.1,0.5,0.2,0.8c0.2,0.9,0.6,2.1,1.1,2.9c0.5,0.9,1.2,1.7,2,2.3C89.9,344.5,106.4,329.3,106.4,329.3z"/>
			<path class="st4" d="M110.4,329.3l0.8-3.6l0.8-3.6c0,0,21.2-7.1,26.1,3.1c0.4,0.9,0.7,1.9,0.8,2.9c0.1,0.9,0,2.1-0.2,3.1
				c-0.1,0.3-0.1,0.5-0.2,0.8c-0.2,0.9-0.6,2.1-1.1,2.9c-0.5,0.9-1.2,1.7-1.9,2.4C127,344.4,110.4,329.3,110.4,329.3z"/>
		</g>
		<g>
			<circle class="st2" cx="108.4" cy="323" r="8.9"/>
			<path class="st2" d="M110.4,316c-0.3,0-0.5-0.1-0.8-0.2c-0.7-0.4-0.9-1.3-0.5-2l2.4-3.8c0.4-0.7,1.3-0.9,2-0.5
				c0.7,0.4,0.9,1.3,0.5,2l-2.4,3.8C111.3,315.8,110.8,316,110.4,316z"/>
			<path class="st2" d="M106.4,316c-0.5,0-0.9-0.2-1.2-0.7l-2.4-3.8c-0.4-0.7-0.2-1.5,0.4-2c0.7-0.4,1.5-0.2,2,0.4l2.4,3.8
				c0.4,0.7,0.2,1.5-0.4,2C106.9,315.9,106.6,316,106.4,316z"/>
		</g>
	</g>
	<g>
		<path class="st2" d="M50.7,334.4c-0.8,0-1.4-0.6-1.4-1.4l0-5.1c0-0.8,0.6-1.4,1.4-1.4c0.8,0,1.4,0.6,1.4,1.4l0,5.1
			C52.2,333.7,51.5,334.4,50.7,334.4z"/>
		<path class="st3" d="M50.7,328.2L50.7,328.2c-6.5,0-11.8-5.3-11.8-11.7l0-7.5c0-6.5,5.3-11.8,11.7-11.8l0,0
			c6.5,0,11.8,5.3,11.8,11.7l0,7.5C62.5,322.8,57.2,328.2,50.7,328.2z"/>
		<g>
			<path class="st2" d="M60.2,302L41,302.1c-1,1.4-1.6,2.9-1.9,4.6l23.1-0.1C61.9,305,61.2,303.4,60.2,302z"/>
			
				<rect x="38.9" y="310.3" transform="matrix(1 -2.851758e-03 2.851758e-03 1 -0.8914 0.1458)" class="st2" width="23.6" height="4.6"/>
			<path class="st2" d="M41.1,323.2l19.2-0.1c1-1.4,1.6-2.9,2-4.6l-23.1,0.1C39.4,320.3,40.1,321.9,41.1,323.2z"/>
		</g>
		<g>
			<path class="st4" d="M48.6,301.6l-0.8-3.6l-0.8-3.6c0,0-21.3-7-26.1,3.2c-0.4,0.9-0.7,1.9-0.8,2.9c-0.1,0.9,0,2.1,0.2,3.1
				c0.1,0.3,0.1,0.5,0.2,0.8c0.2,0.9,0.6,2.1,1.1,2.9c0.5,0.9,1.2,1.7,2,2.3C32.2,316.8,48.6,301.6,48.6,301.6z"/>
			<path class="st4" d="M52.7,301.6l0.8-3.6l0.8-3.6c0,0,21.2-7.1,26.1,3.1c0.4,0.9,0.7,1.9,0.8,2.9c0.1,0.9,0,2.1-0.2,3.1
				c-0.1,0.3-0.1,0.5-0.2,0.8c-0.2,0.9-0.6,2.1-1.1,2.9c-0.5,0.9-1.2,1.7-1.9,2.4C69.2,316.7,52.7,301.6,52.7,301.6z"/>
		</g>
		<g>
			<circle class="st2" cx="50.6" cy="295.3" r="8.9"/>
			<path class="st2" d="M52.6,288.3c-0.3,0-0.5-0.1-0.8-0.2c-0.7-0.4-0.9-1.3-0.5-2l2.4-3.8c0.4-0.7,1.3-0.9,2-0.5
				c0.7,0.4,0.9,1.3,0.5,2l-2.4,3.8C53.5,288.1,53.1,288.3,52.6,288.3z"/>
			<path class="st2" d="M48.6,288.3c-0.5,0-0.9-0.2-1.2-0.7l-2.4-3.8c-0.4-0.7-0.2-1.5,0.4-2c0.7-0.4,1.5-0.2,2,0.4l2.4,3.8
				c0.4,0.7,0.2,1.5-0.4,2C49.1,288.2,48.9,288.3,48.6,288.3z"/>
		</g>
	</g>
	<g>
		<path class="st2" d="M108.5,170c-0.8,0-1.4-0.6-1.4-1.4l0-5.1c0-0.8,0.6-1.4,1.4-1.4c0.8,0,1.4,0.6,1.4,1.4l0,5.1
			C109.9,169.3,109.3,169.9,108.5,170z"/>
		<path class="st3" d="M108.5,163.8L108.5,163.8c-6.5,0-11.8-5.3-11.8-11.7l0-7.5c0-6.5,5.3-11.8,11.7-11.8l0,0
			c6.5,0,11.8,5.3,11.8,11.7l0,7.5C120.2,158.4,115,163.8,108.5,163.8z"/>
		<g>
			<path class="st2" d="M118,137.6l-19.2,0.1c-1,1.4-1.6,2.9-1.9,4.6l23.1-0.1C119.7,140.6,119,139,118,137.6z"/>
			
				<rect x="96.7" y="145.9" transform="matrix(1 -2.851758e-03 2.851758e-03 1 -0.4223 0.3098)" class="st2" width="23.6" height="4.6"/>
			<path class="st2" d="M98.9,158.8l19.2-0.1c1-1.4,1.6-2.9,2-4.6l-23.1,0.1C97.2,155.9,97.9,157.5,98.9,158.8z"/>
		</g>
		<g>
			<path class="st4" d="M106.4,137.2l-0.8-3.6l-0.8-3.6c0,0-21.3-7-26.1,3.2c-0.4,0.9-0.7,1.9-0.8,2.9c-0.1,0.9,0,2.1,0.2,3.1
				c0.1,0.3,0.1,0.5,0.2,0.8c0.2,0.9,0.6,2.1,1.1,2.9c0.5,0.9,1.2,1.7,2,2.3C89.9,152.4,106.4,137.2,106.4,137.2z"/>
			<path class="st4" d="M110.4,137.2l0.8-3.6l0.8-3.6c0,0,21.2-7.1,26.1,3.1c0.4,0.9,0.7,1.9,0.8,2.9c0.1,0.9,0,2.1-0.2,3.1
				c-0.1,0.3-0.1,0.5-0.2,0.8c-0.2,0.9-0.6,2.1-1.1,2.9c-0.5,0.9-1.2,1.7-1.9,2.4C127,152.3,110.4,137.2,110.4,137.2z"/>
		</g>
		<g>
			<circle class="st2" cx="108.4" cy="130.9" r="8.9"/>
			<path class="st2" d="M110.4,123.9c-0.3,0-0.5-0.1-0.8-0.2c-0.7-0.4-0.9-1.3-0.5-2l2.4-3.8c0.4-0.7,1.3-0.9,2-0.5
				c0.7,0.4,0.9,1.3,0.5,2l-2.4,3.8C111.3,123.7,110.8,123.9,110.4,123.9z"/>
			<path class="st2" d="M106.4,123.9c-0.5,0-0.9-0.2-1.2-0.7l-2.4-3.8c-0.4-0.7-0.2-1.5,0.4-2c0.7-0.4,1.5-0.2,2,0.4l2.4,3.8
				c0.4,0.7,0.2,1.5-0.4,2C106.9,123.8,106.6,123.9,106.4,123.9z"/>
		</g>
	</g>
	<g>
		<path class="st2" d="M343.2,230.4c-0.8,0-1.4-0.6-1.4-1.4l0-5.1c0-0.8,0.6-1.4,1.4-1.4c0.8,0,1.4,0.6,1.4,1.4l0,5.1
			C344.6,229.8,343.9,230.4,343.2,230.4z"/>
		<path class="st3" d="M343.1,224.2L343.1,224.2c-6.5,0-11.8-5.3-11.8-11.7l0-7.5c0-6.5,5.3-11.8,11.7-11.8l0,0
			c6.5,0,11.8,5.3,11.8,11.7l0,7.5C354.9,218.9,349.6,224.2,343.1,224.2z"/>
		<g>
			<path class="st2" d="M352.7,198.1l-19.2,0.1c-1,1.4-1.6,2.9-1.9,4.6l23.1-0.1C354.3,201,353.6,199.5,352.7,198.1z"/>
			
				<rect x="331.3" y="206.4" transform="matrix(1 -2.851758e-03 2.851758e-03 1 -0.5938 0.9793)" class="st2" width="23.6" height="4.6"/>
			<path class="st2" d="M333.5,219.3l19.2-0.1c1-1.4,1.6-2.9,2-4.6l-23.1,0.1C331.9,216.4,332.6,217.9,333.5,219.3z"/>
		</g>
		<g>
			<path class="st4" d="M341.1,197.6l-0.8-3.6l-0.8-3.6c0,0-21.3-7-26.1,3.2c-0.4,0.9-0.7,1.9-0.8,2.9c-0.1,0.9,0,2.1,0.2,3.1
				c0.1,0.3,0.1,0.5,0.2,0.8c0.2,0.9,0.6,2.1,1.1,2.9c0.5,0.9,1.2,1.7,2,2.3C324.6,212.8,341.1,197.6,341.1,197.6z"/>
			<path class="st4" d="M345.1,197.6l0.8-3.6l0.8-3.6c0,0,21.2-7.1,26.1,3.1c0.4,0.9,0.7,1.9,0.8,2.9c0.1,0.9,0,2.1-0.2,3.1
				c-0.1,0.3-0.1,0.5-0.2,0.8c-0.2,0.9-0.6,2.1-1.1,2.9c-0.5,0.9-1.2,1.7-1.9,2.4C361.6,212.7,345.1,197.6,345.1,197.6z"/>
		</g>
		<g>
			<circle class="st2" cx="343" cy="191.3" r="8.9"/>
			<path class="st2" d="M345,184.4c-0.3,0-0.5-0.1-0.8-0.2c-0.7-0.4-0.9-1.3-0.5-2l2.4-3.8c0.4-0.7,1.3-0.9,2-0.5
				c0.7,0.4,0.9,1.3,0.5,2l-2.4,3.8C346,184.1,345.5,184.4,345,184.4z"/>
			<path class="st2" d="M341,184.4c-0.5,0-0.9-0.2-1.2-0.7l-2.4-3.8c-0.4-0.7-0.2-1.5,0.4-2c0.7-0.4,1.5-0.2,2,0.4l2.4,3.8
				c0.4,0.7,0.2,1.5-0.4,2C341.6,184.3,341.3,184.4,341,184.4z"/>
		</g>
	</g>
	<g>
		<path class="st2" d="M285.4,202.7c-0.8,0-1.4-0.6-1.4-1.4l0-5.1c0-0.8,0.6-1.4,1.4-1.4c0.8,0,1.4,0.6,1.4,1.4l0,5.1
			C286.8,202.1,286.2,202.7,285.4,202.7z"/>
		<path class="st3" d="M285.4,196.5L285.4,196.5c-6.5,0-11.8-5.3-11.8-11.7l0-7.5c0-6.5,5.3-11.8,11.7-11.8l0,0
			c6.5,0,11.8,5.3,11.8,11.7l0,7.5C297.1,191.2,291.9,196.5,285.4,196.5z"/>
		<g>
			<path class="st2" d="M294.9,170.4l-19.2,0.1c-1,1.4-1.6,2.9-1.9,4.6l23.1-0.1C296.6,173.3,295.9,171.7,294.9,170.4z"/>
			
				<rect x="273.6" y="178.7" transform="matrix(1 -2.851758e-03 2.851758e-03 1 -0.515 0.8145)" class="st2" width="23.6" height="4.6"/>
			<path class="st2" d="M275.8,191.6l19.2-0.1c1-1.4,1.6-2.9,2-4.6l-23.1,0.1C274.1,188.7,274.8,190.2,275.8,191.6z"/>
		</g>
		<g>
			<path class="st4" d="M283.3,169.9l-0.8-3.6l-0.8-3.6c0,0-21.3-7-26.1,3.2c-0.4,0.9-0.7,1.9-0.8,2.9c-0.1,0.9,0,2.1,0.2,3.1
				c0.1,0.3,0.1,0.5,0.2,0.8c0.2,0.9,0.6,2.1,1.1,2.9c0.5,0.9,1.2,1.7,2,2.3C266.8,185.1,283.3,169.9,283.3,169.9z"/>
			<path class="st4" d="M287.3,169.9l0.8-3.6l0.8-3.6c0,0,21.2-7.1,26.1,3.1c0.4,0.9,0.7,1.9,0.8,2.9c0.1,0.9,0,2.1-0.2,3.1
				c-0.1,0.3-0.1,0.5-0.2,0.8c-0.2,0.9-0.6,2.1-1.1,2.9c-0.5,0.9-1.2,1.7-1.9,2.4C303.9,185,287.3,169.9,287.3,169.9z"/>
		</g>
		<g>
			<circle class="st2" cx="285.3" cy="163.6" r="8.9"/>
			<path class="st2" d="M287.3,156.6c-0.3,0-0.5-0.1-0.8-0.2c-0.7-0.4-0.9-1.3-0.5-2l2.4-3.8c0.4-0.7,1.3-0.9,2-0.5
				c0.7,0.4,0.9,1.3,0.5,2l-2.4,3.8C288.2,156.4,287.7,156.6,287.3,156.6z"/>
			<path class="st2" d="M283.3,156.7c-0.5,0-0.9-0.2-1.2-0.7l-2.4-3.8c-0.4-0.7-0.2-1.5,0.4-2c0.7-0.4,1.5-0.2,2,0.4l2.4,3.8
				c0.4,0.7,0.2,1.5-0.4,2C283.8,156.6,283.5,156.7,283.3,156.7z"/>
		</g>
	</g>
	<g>
		<path class="st2" d="M343.2,297.4c-0.8,0-1.4-0.6-1.4-1.4l0-5.1c0-0.8,0.6-1.4,1.4-1.4c0.8,0,1.4,0.6,1.4,1.4l0,5.1
			C344.6,296.8,343.9,297.4,343.2,297.4z"/>
		<path class="st3" d="M343.1,291.3L343.1,291.3c-6.5,0-11.8-5.3-11.8-11.7l0-7.5c0-6.5,5.3-11.8,11.7-11.8l0,0
			c6.5,0,11.8,5.3,11.8,11.7l0,7.5C354.9,285.9,349.6,291.2,343.1,291.3z"/>
		<g>
			<path class="st2" d="M352.7,265.1l-19.2,0.1c-1,1.4-1.6,2.9-1.9,4.6l23.1-0.1C354.3,268,353.6,266.5,352.7,265.1z"/>
			
				<rect x="331.3" y="273.4" transform="matrix(1 -2.851758e-03 2.851758e-03 1 -0.7848 0.9796)" class="st2" width="23.6" height="4.6"/>
			<path class="st2" d="M333.5,286.3l19.2-0.1c1-1.4,1.6-2.9,2-4.6l-23.1,0.1C331.9,283.4,332.6,284.9,333.5,286.3z"/>
		</g>
		<g>
			<path class="st4" d="M341.1,264.6l-0.8-3.6l-0.8-3.6c0,0-21.3-7-26.1,3.2c-0.4,0.9-0.7,1.9-0.8,2.9c-0.1,0.9,0,2.1,0.2,3.1
				c0.1,0.3,0.1,0.5,0.2,0.8c0.2,0.9,0.6,2.1,1.1,2.9c0.5,0.9,1.2,1.7,2,2.3C324.6,279.8,341.1,264.6,341.1,264.6z"/>
			<path class="st4" d="M345.1,264.6l0.8-3.6l0.8-3.6c0,0,21.2-7.1,26.1,3.1c0.4,0.9,0.7,1.9,0.8,2.9c0.1,0.9,0,2.1-0.2,3.1
				c-0.1,0.3-0.1,0.5-0.2,0.8c-0.2,0.9-0.6,2.1-1.1,2.9c-0.5,0.9-1.2,1.7-1.9,2.4C361.6,279.7,345.1,264.6,345.1,264.6z"/>
		</g>
		<g>
			<circle class="st2" cx="343" cy="258.3" r="8.9"/>
			<path class="st2" d="M345,251.4c-0.3,0-0.5-0.1-0.8-0.2c-0.7-0.4-0.9-1.3-0.5-2l2.4-3.8c0.4-0.7,1.3-0.9,2-0.5
				c0.7,0.4,0.9,1.3,0.5,2l-2.4,3.8C346,251.1,345.5,251.4,345,251.4z"/>
			<path class="st2" d="M341,251.4c-0.5,0-0.9-0.2-1.2-0.7l-2.4-3.8c-0.4-0.7-0.2-1.5,0.4-2c0.7-0.4,1.5-0.2,2,0.4l2.4,3.8
				c0.4,0.7,0.2,1.5-0.4,2C341.6,251.3,341.3,251.4,341,251.4z"/>
		</g>
	</g>
	<g>
		<path class="st2" d="M285.4,269.7c-0.8,0-1.4-0.6-1.4-1.4l0-5.1c0-0.8,0.6-1.4,1.4-1.4c0.8,0,1.4,0.6,1.4,1.4l0,5.1
			C286.8,269.1,286.2,269.7,285.4,269.7z"/>
		<path class="st3" d="M285.4,263.5L285.4,263.5c-6.5,0-11.8-5.3-11.8-11.7l0-7.5c0-6.5,5.3-11.8,11.7-11.8l0,0
			c6.5,0,11.8,5.3,11.8,11.7l0,7.5C297.1,258.2,291.9,263.5,285.4,263.5z"/>
		<g>
			<path class="st2" d="M294.9,237.4l-19.2,0.1c-1,1.4-1.6,2.9-1.9,4.6l23.1-0.1C296.6,240.3,295.9,238.8,294.9,237.4z"/>
			
				<rect x="273.6" y="245.7" transform="matrix(1 -2.851758e-03 2.851758e-03 1 -0.7061 0.8147)" class="st2" width="23.6" height="4.6"/>
			<path class="st2" d="M275.8,258.6l19.2-0.1c1-1.4,1.6-2.9,2-4.6l-23.1,0.1C274.1,255.7,274.8,257.2,275.8,258.6z"/>
		</g>
		<g>
			<path class="st4" d="M283.3,236.9l-0.8-3.6l-0.8-3.6c0,0-21.3-7-26.1,3.2c-0.4,0.9-0.7,1.9-0.8,2.9c-0.1,0.9,0,2.1,0.2,3.1
				c0.1,0.3,0.1,0.5,0.2,0.8c0.2,0.9,0.6,2.1,1.1,2.9c0.5,0.9,1.2,1.7,2,2.3C266.8,252.1,283.3,236.9,283.3,236.9z"/>
			<path class="st4" d="M287.3,236.9l0.8-3.6l0.8-3.6c0,0,21.2-7.1,26.1,3.1c0.4,0.9,0.7,1.9,0.8,2.9c0.1,0.9,0,2.1-0.2,3.1
				c-0.1,0.3-0.1,0.5-0.2,0.8c-0.2,0.9-0.6,2.1-1.1,2.9c-0.5,0.9-1.2,1.7-1.9,2.4C303.9,252,287.3,236.9,287.3,236.9z"/>
		</g>
		<g>
			<circle class="st2" cx="285.3" cy="230.6" r="8.9"/>
			<path class="st2" d="M287.3,223.7c-0.3,0-0.5-0.1-0.8-0.2c-0.7-0.4-0.9-1.3-0.5-2l2.4-3.8c0.4-0.7,1.3-0.9,2-0.5
				c0.7,0.4,0.9,1.3,0.5,2l-2.4,3.8C288.2,223.4,287.7,223.7,287.3,223.7z"/>
			<path class="st2" d="M283.3,223.7c-0.5,0-0.9-0.2-1.2-0.7l-2.4-3.8c-0.4-0.7-0.2-1.5,0.4-2c0.7-0.4,1.5-0.2,2,0.4l2.4,3.8
				c0.4,0.7,0.2,1.5-0.4,2C283.8,223.6,283.5,223.7,283.3,223.7z"/>
		</g>
	</g>
	<g>
		<path class="st2" d="M343.2,170c-0.8,0-1.4-0.6-1.4-1.4l0-5.1c0-0.8,0.6-1.4,1.4-1.4c0.8,0,1.4,0.6,1.4,1.4l0,5.1
			C344.6,169.3,343.9,169.9,343.2,170z"/>
		<path class="st3" d="M343.1,163.8L343.1,163.8c-6.5,0-11.8-5.3-11.8-11.7l0-7.5c0-6.5,5.3-11.8,11.7-11.8l0,0
			c6.5,0,11.8,5.3,11.8,11.7l0,7.5C354.9,158.4,349.6,163.8,343.1,163.8z"/>
		<g>
			<path class="st2" d="M352.7,137.6l-19.2,0.1c-1,1.4-1.6,2.9-1.9,4.6l23.1-0.1C354.3,140.6,353.6,139,352.7,137.6z"/>
			
				<rect x="331.3" y="145.9" transform="matrix(1 -2.851758e-03 2.851758e-03 1 -0.4213 0.979)" class="st2" width="23.6" height="4.6"/>
			<path class="st2" d="M333.5,158.8l19.2-0.1c1-1.4,1.6-2.9,2-4.6l-23.1,0.1C331.9,155.9,332.6,157.5,333.5,158.8z"/>
		</g>
		<g>
			<path class="st4" d="M341.1,137.2l-0.8-3.6l-0.8-3.6c0,0-21.3-7-26.1,3.2c-0.4,0.9-0.7,1.9-0.8,2.9c-0.1,0.9,0,2.1,0.2,3.1
				c0.1,0.3,0.1,0.5,0.2,0.8c0.2,0.9,0.6,2.1,1.1,2.9c0.5,0.9,1.2,1.7,2,2.3C324.6,152.4,341.1,137.2,341.1,137.2z"/>
			<path class="st4" d="M345.1,137.2l0.8-3.6l0.8-3.6c0,0,21.2-7.1,26.1,3.1c0.4,0.9,0.7,1.9,0.8,2.9c0.1,0.9,0,2.1-0.2,3.1
				c-0.1,0.3-0.1,0.5-0.2,0.8c-0.2,0.9-0.6,2.1-1.1,2.9c-0.5,0.9-1.2,1.7-1.9,2.4C361.6,152.3,345.1,137.2,345.1,137.2z"/>
		</g>
		<g>
			<circle class="st2" cx="343" cy="130.9" r="8.9"/>
			<path class="st2" d="M345,123.9c-0.3,0-0.5-0.1-0.8-0.2c-0.7-0.4-0.9-1.3-0.5-2l2.4-3.8c0.4-0.7,1.3-0.9,2-0.5
				c0.7,0.4,0.9,1.3,0.5,2l-2.4,3.8C346,123.7,345.5,123.9,345,123.9z"/>
			<path class="st2" d="M341,123.9c-0.5,0-0.9-0.2-1.2-0.7l-2.4-3.8c-0.4-0.7-0.2-1.5,0.4-2c0.7-0.4,1.5-0.2,2,0.4l2.4,3.8
				c0.4,0.7,0.2,1.5-0.4,2C341.6,123.8,341.3,123.9,341,123.9z"/>
		</g>
	</g>
	<g>
		<path class="st2" d="M108.5,108c-0.8,0-1.4-0.6-1.4-1.4l0-5.1c0-0.8,0.6-1.4,1.4-1.4s1.4,0.6,1.4,1.4l0,5.1
			C109.9,107.3,109.3,108,108.5,108z"/>
		<path class="st3" d="M108.5,101.8L108.5,101.8c-6.5,0-11.8-5.3-11.8-11.7l0-7.5c0-6.5,5.3-11.8,11.7-11.8l0,0
			c6.5,0,11.8,5.3,11.8,11.7l0,7.5C120.2,96.5,115,101.8,108.5,101.8z"/>
		<g>
			<path class="st2" d="M118,75.7l-19.2,0.1c-1,1.4-1.6,2.9-1.9,4.6l23.1-0.1C119.7,78.6,119,77,118,75.7z"/>
			
				<rect x="96.7" y="84" transform="matrix(1 -2.851758e-03 2.851758e-03 1 -0.2456 0.3096)" class="st2" width="23.6" height="4.6"/>
			<path class="st2" d="M98.9,96.9l19.2-0.1c1-1.4,1.6-2.9,2-4.6l-23.1,0.1C97.2,93.9,97.9,95.5,98.9,96.9z"/>
		</g>
		<g>
			<path class="st4" d="M106.4,75.2l-0.8-3.6l-0.8-3.6c0,0-21.3-7-26.1,3.2C78.3,72,78,73,77.9,74.1c-0.1,0.9,0,2.1,0.2,3.1
				c0.1,0.3,0.1,0.5,0.2,0.8c0.2,0.9,0.6,2.1,1.1,2.9c0.5,0.9,1.2,1.7,2,2.3C89.9,90.4,106.4,75.2,106.4,75.2z"/>
			<path class="st4" d="M110.4,75.2l0.8-3.6l0.8-3.6c0,0,21.2-7.1,26.1,3.1c0.4,0.9,0.7,1.9,0.8,2.9c0.1,0.9,0,2.1-0.2,3.1
				c-0.1,0.3-0.1,0.5-0.2,0.8c-0.2,0.9-0.6,2.1-1.1,2.9c-0.5,0.9-1.2,1.7-1.9,2.4C127,90.3,110.4,75.2,110.4,75.2z"/>
		</g>
		<g>
			<circle class="st2" cx="108.4" cy="68.9" r="8.9"/>
			<path class="st2" d="M110.4,61.9c-0.3,0-0.5-0.1-0.8-0.2c-0.7-0.4-0.9-1.3-0.5-2l2.4-3.8c0.4-0.7,1.3-0.9,2-0.5
				c0.7,0.4,0.9,1.3,0.5,2l-2.4,3.8C111.3,61.7,110.8,61.9,110.4,61.9z"/>
			<path class="st2" d="M106.4,61.9c-0.5,0-0.9-0.2-1.2-0.7l-2.4-3.8c-0.4-0.7-0.2-1.5,0.4-2c0.7-0.4,1.5-0.2,2,0.4l2.4,3.8
				c0.4,0.7,0.2,1.5-0.4,2C106.9,61.9,106.6,61.9,106.4,61.9z"/>
		</g>
	</g>
	<g>
		<path class="st2" d="M50.7,142.2c-0.8,0-1.4-0.6-1.4-1.4l0-5.1c0-0.8,0.6-1.4,1.4-1.4c0.8,0,1.4,0.6,1.4,1.4l0,5.1
			C52.2,141.6,51.5,142.2,50.7,142.2z"/>
		<path class="st3" d="M50.7,136.1L50.7,136.1c-6.5,0-11.8-5.3-11.8-11.7l0-7.5c0-6.5,5.3-11.8,11.7-11.8l0,0
			c6.5,0,11.8,5.3,11.8,11.7l0,7.5C62.5,130.7,57.2,136.1,50.7,136.1z"/>
		<g>
			<path class="st2" d="M60.2,109.9L41,110c-1,1.4-1.6,2.9-1.9,4.6l23.1-0.1C61.9,112.8,61.2,111.3,60.2,109.9z"/>
			
				<rect x="38.9" y="118.2" transform="matrix(1 -2.851758e-03 2.851758e-03 1 -0.3435 0.145)" class="st2" width="23.6" height="4.6"/>
			<path class="st2" d="M41.1,131.1l19.2-0.1c1-1.4,1.6-2.9,2-4.6l-23.1,0.1C39.4,128.2,40.1,129.8,41.1,131.1z"/>
		</g>
		<g>
			<path class="st4" d="M48.6,109.5l-0.8-3.6l-0.8-3.6c0,0-21.3-7-26.1,3.2c-0.4,0.9-0.7,1.9-0.8,2.9c-0.1,0.9,0,2.1,0.2,3.1
				c0.1,0.3,0.1,0.5,0.2,0.8c0.2,0.9,0.6,2.1,1.1,2.9c0.5,0.9,1.2,1.7,2,2.3C32.2,124.6,48.6,109.5,48.6,109.5z"/>
			<path class="st4" d="M52.7,109.5l0.8-3.6l0.8-3.6c0,0,21.2-7.1,26.1,3.1c0.4,0.9,0.7,1.9,0.8,2.9c0.1,0.9,0,2.1-0.2,3.1
				c-0.1,0.3-0.1,0.5-0.2,0.8c-0.2,0.9-0.6,2.1-1.1,2.9c-0.5,0.9-1.2,1.7-1.9,2.4C69.2,124.5,52.7,109.5,52.7,109.5z"/>
		</g>
		<g>
			<circle class="st2" cx="50.6" cy="103.1" r="8.9"/>
			<path class="st2" d="M52.6,96.2c-0.3,0-0.5-0.1-0.8-0.2c-0.7-0.4-0.9-1.3-0.5-2l2.4-3.8c0.4-0.7,1.3-0.9,2-0.5
				c0.7,0.4,0.9,1.3,0.5,2l-2.4,3.8C53.5,95.9,53.1,96.2,52.6,96.2z"/>
			<path class="st2" d="M48.6,96.2c-0.5,0-0.9-0.2-1.2-0.7L45,91.7c-0.4-0.7-0.2-1.5,0.4-2c0.7-0.4,1.5-0.2,2,0.4l2.4,3.8
				c0.4,0.7,0.2,1.5-0.4,2C49.1,96.1,48.9,96.2,48.6,96.2z"/>
		</g>
	</g>
</g>
</svg>
