<?xml version="1.0" encoding="utf-8"?>
<!-- Generator: Adobe Illustrator 22.0.1, SVG Export Plug-In . SVG Version: 6.00 Build 0)  -->
<svg version="1.1" id="Layer_1" xmlns="http://www.w3.org/2000/svg" xmlns:xlink="http://www.w3.org/1999/xlink" x="0px" y="0px"
	 viewBox="0 0 400 500" style="enable-background:new 0 0 400 500;" xml:space="preserve">
<style type="text/css">
	.st0{fill:#00CDC8;}
	.st1{fill:#FFFFFF;}
	.st2{fill:#A5D73C;}
	.st3{fill:#F86A00;}
	.st4{fill:#FADC3C;}
	.st5{fill:#F24044;}
	.st6{fill:#60025E;}
</style>
<g>
	<g>
		<path class="st0" d="M235.6,12.9H32c-5.9,0-10.7,4.8-10.7,10.7v19.2c0,5.9,4.8,10.7,10.7,10.7h203.6c5.9,0,10.7-4.8,10.7-10.7
			V23.7C246.3,17.7,241.5,12.9,235.6,12.9z"/>
	</g>
	<g>
		<g>
			<path class="st1" d="M105.5,39.5c0,0.3-0.1,0.6-0.4,0.7c-0.3,0.2-0.6,0.2-1.1,0.2l-0.5,0c-2.3-0.2-3.4-1.4-3.4-3.7v-4.4h-1
				c-0.4,0-0.6-0.1-0.8-0.2c-0.2-0.2-0.3-0.4-0.3-0.7c0-0.3,0.1-0.5,0.3-0.7c0.2-0.2,0.5-0.2,0.8-0.2h1v-1.9c0-0.4,0.1-0.7,0.3-0.9
				c0.2-0.2,0.5-0.3,0.9-0.3c0.4,0,0.7,0.1,0.9,0.3c0.2,0.2,0.3,0.5,0.3,0.9v1.9h1.7c0.4,0,0.6,0.1,0.8,0.2c0.2,0.2,0.3,0.4,0.3,0.7
				c0,0.3-0.1,0.5-0.3,0.7c-0.2,0.2-0.5,0.2-0.8,0.2h-1.7V37c0,1,0.5,1.5,1.4,1.6l0.5,0C105.2,38.7,105.5,39,105.5,39.5z"/>
			<path class="st1" d="M113.2,30.5c0.2,0.2,0.3,0.4,0.3,0.8c0,0.4-0.1,0.6-0.3,0.8s-0.5,0.3-1,0.3l-0.6,0.1
				c-0.8,0.1-1.4,0.4-1.8,0.8c-0.4,0.5-0.6,1-0.6,1.7v4.3c0,0.4-0.1,0.7-0.4,0.9c-0.2,0.2-0.5,0.3-0.9,0.3c-0.4,0-0.7-0.1-0.9-0.3
				c-0.2-0.2-0.4-0.5-0.4-0.9v-7.8c0-0.4,0.1-0.7,0.4-0.9c0.2-0.2,0.5-0.3,0.9-0.3s0.6,0.1,0.9,0.3c0.2,0.2,0.3,0.5,0.3,0.8v0.8
				c0.3-0.6,0.6-1.1,1.1-1.4c0.5-0.3,1.1-0.5,1.7-0.5l0.3,0C112.7,30.3,113,30.3,113.2,30.5z"/>
			<path class="st1" d="M114.8,28.1c-0.3-0.2-0.4-0.6-0.4-1c0-0.4,0.1-0.7,0.4-1s0.6-0.4,1.1-0.4c0.4,0,0.8,0.1,1.1,0.4
				c0.3,0.2,0.4,0.6,0.4,1c0,0.4-0.1,0.7-0.4,1c-0.3,0.3-0.6,0.4-1.1,0.4C115.4,28.5,115.1,28.3,114.8,28.1z M115,40.2
				c-0.2-0.2-0.4-0.5-0.4-0.9v-7.8c0-0.4,0.1-0.7,0.4-0.9c0.2-0.2,0.5-0.3,0.9-0.3c0.4,0,0.7,0.1,0.9,0.3c0.2,0.2,0.4,0.5,0.4,0.9
				v7.8c0,0.4-0.1,0.7-0.4,0.9c-0.2,0.2-0.5,0.3-0.9,0.3C115.5,40.5,115.2,40.4,115,40.2z"/>
			<path class="st1" d="M127.1,31.3c0.7,0.7,1,1.7,1,3.1v4.9c0,0.4-0.1,0.7-0.3,0.9c-0.2,0.2-0.5,0.3-0.9,0.3
				c-0.4,0-0.6-0.1-0.9-0.3c-0.2-0.2-0.3-0.5-0.3-0.9v-0.4c-0.2,0.5-0.6,0.9-1.1,1.2c-0.5,0.3-1.1,0.4-1.7,0.4
				c-0.7,0-1.3-0.1-1.8-0.4c-0.5-0.3-1-0.6-1.3-1.1c-0.3-0.5-0.5-1-0.5-1.6c0-0.7,0.2-1.3,0.6-1.7c0.4-0.4,1-0.7,1.8-0.9
				c0.8-0.2,2-0.3,3.5-0.3h0.5v-0.5c0-0.7-0.1-1.1-0.4-1.5c-0.3-0.3-0.7-0.5-1.4-0.5c-0.4,0-0.8,0.1-1.2,0.2
				c-0.4,0.1-0.9,0.3-1.4,0.5c-0.4,0.2-0.6,0.3-0.8,0.3c-0.2,0-0.4-0.1-0.6-0.3s-0.2-0.4-0.2-0.7c0-0.2,0.1-0.4,0.2-0.6
				c0.1-0.2,0.3-0.3,0.6-0.5c0.5-0.3,1-0.5,1.7-0.6s1.3-0.2,1.9-0.2C125.4,30.2,126.5,30.6,127.1,31.3z M125.1,38.1
				c0.4-0.5,0.6-1,0.6-1.8v-0.4h-0.4c-0.9,0-1.6,0-2.1,0.1s-0.9,0.2-1.1,0.4c-0.2,0.2-0.3,0.5-0.3,0.8c0,0.4,0.2,0.8,0.5,1.1
				c0.3,0.3,0.7,0.4,1.1,0.4C124.1,38.7,124.7,38.5,125.1,38.1z M124.1,29.3c-0.2,0-0.3-0.1-0.5-0.2c-0.1-0.1-0.2-0.3-0.2-0.5
				c0-0.1,0.1-0.3,0.2-0.4l2-2.6c0.3-0.4,0.7-0.6,1.1-0.6c0.3,0,0.6,0.1,0.8,0.3c0.2,0.2,0.3,0.5,0.3,0.7c0,0.4-0.2,0.7-0.5,1
				l-2.6,2.1C124.4,29.2,124.3,29.3,124.1,29.3z"/>
			<path class="st1" d="M139.1,31.3c0.6,0.7,0.9,1.7,0.9,3.1v5c0,0.4-0.1,0.7-0.3,0.9c-0.2,0.2-0.5,0.3-0.9,0.3s-0.7-0.1-0.9-0.3
				c-0.2-0.2-0.3-0.5-0.3-0.9v-4.8c0-0.8-0.1-1.3-0.4-1.7c-0.3-0.4-0.7-0.5-1.4-0.5c-0.7,0-1.3,0.2-1.8,0.7s-0.7,1.1-0.7,1.8v4.5
				c0,0.4-0.1,0.7-0.3,0.9c-0.2,0.2-0.5,0.3-0.9,0.3c-0.4,0-0.7-0.1-0.9-0.3c-0.2-0.2-0.3-0.5-0.3-0.9v-7.8c0-0.4,0.1-0.6,0.3-0.9
				c0.2-0.2,0.5-0.3,0.9-0.3c0.4,0,0.6,0.1,0.9,0.3c0.2,0.2,0.3,0.5,0.3,0.8V32c0.3-0.6,0.8-1,1.4-1.3c0.6-0.3,1.2-0.4,1.9-0.4
				C137.7,30.2,138.6,30.6,139.1,31.3z"/>
			<path class="st1" d="M151.9,30.6c0.2,0.2,0.3,0.5,0.3,0.9v8c0,1.6-0.4,2.7-1.3,3.5c-0.9,0.8-2.1,1.2-3.8,1.2
				c-1.5,0-2.7-0.3-3.7-0.8c-0.5-0.3-0.8-0.7-0.8-1.1c0-0.3,0.1-0.5,0.2-0.7s0.3-0.3,0.6-0.3c0.1,0,0.3,0,0.4,0.1
				c0.2,0.1,0.4,0.1,0.5,0.2c0.5,0.2,0.9,0.4,1.3,0.5c0.4,0.1,0.8,0.2,1.3,0.2c1.8,0,2.7-0.9,2.7-2.6v-1.3c-0.3,0.6-0.7,1-1.3,1.3
				s-1.2,0.5-1.9,0.5c-0.9,0-1.6-0.2-2.3-0.6s-1.2-1-1.6-1.7s-0.6-1.6-0.6-2.6s0.2-1.8,0.6-2.6c0.4-0.8,0.9-1.3,1.6-1.7
				c0.7-0.4,1.4-0.6,2.3-0.6c0.7,0,1.4,0.2,1.9,0.5s1,0.7,1.3,1.3v-0.5c0-0.4,0.1-0.6,0.3-0.9c0.2-0.2,0.5-0.3,0.9-0.3
				C151.4,30.3,151.7,30.4,151.9,30.6z M149,37.4c0.5-0.5,0.7-1.3,0.7-2.2c0-0.9-0.2-1.7-0.7-2.2c-0.5-0.5-1.1-0.8-1.9-0.8
				c-0.8,0-1.4,0.3-1.9,0.8c-0.5,0.5-0.7,1.3-0.7,2.2c0,0.9,0.2,1.6,0.7,2.2c0.5,0.5,1.1,0.8,1.9,0.8C148,38.1,148.6,37.9,149,37.4z
				"/>
			<path class="st1" d="M163.6,30.6c0.2,0.2,0.3,0.5,0.3,0.9v7.9c0,0.4-0.1,0.6-0.4,0.9c-0.2,0.2-0.5,0.3-0.9,0.3
				c-0.4,0-0.7-0.1-0.9-0.3c-0.2-0.2-0.3-0.5-0.3-0.8v-0.5c-0.3,0.5-0.7,1-1.3,1.2s-1.1,0.4-1.8,0.4c-2.4,0-3.7-1.4-3.7-4.1v-5
				c0-0.4,0.1-0.7,0.3-0.9c0.2-0.2,0.5-0.3,0.9-0.3c0.4,0,0.7,0.1,0.9,0.3c0.2,0.2,0.3,0.5,0.3,0.9v5c0,0.7,0.1,1.2,0.4,1.6
				c0.3,0.3,0.7,0.5,1.3,0.5c0.7,0,1.3-0.2,1.7-0.7c0.4-0.5,0.6-1.1,0.6-1.9v-4.5c0-0.4,0.1-0.7,0.3-0.9c0.2-0.2,0.5-0.3,0.9-0.3
				C163.1,30.3,163.4,30.4,163.6,30.6z"/>
			<path class="st1" d="M167,40.2c-0.2-0.2-0.4-0.5-0.4-0.9V27.2c0-0.4,0.1-0.7,0.4-0.9c0.2-0.2,0.5-0.3,0.9-0.3
				c0.4,0,0.7,0.1,0.9,0.3c0.2,0.2,0.4,0.5,0.4,0.9v12.1c0,0.4-0.1,0.7-0.4,0.9c-0.2,0.2-0.5,0.3-0.9,0.3
				C167.5,40.5,167.2,40.4,167,40.2z"/>
			<path class="st1" d="M173.6,39.9c-0.8-0.4-1.4-1-1.8-1.8c-0.4-0.8-0.6-1.7-0.6-2.7c0-1,0.2-1.9,0.6-2.7c0.4-0.8,1-1.4,1.8-1.8
				c0.8-0.4,1.7-0.6,2.7-0.6c1,0,1.9,0.2,2.7,0.6c0.8,0.4,1.4,1,1.8,1.8c0.4,0.8,0.6,1.7,0.6,2.7c0,1-0.2,2-0.6,2.7
				c-0.4,0.8-1,1.4-1.8,1.8s-1.7,0.6-2.7,0.6C175.3,40.6,174.4,40.4,173.6,39.9z M178.1,37.8c0.4-0.5,0.6-1.3,0.6-2.4
				c0-1-0.2-1.8-0.6-2.4c-0.4-0.5-1.1-0.8-1.9-0.8c-0.8,0-1.4,0.3-1.9,0.8c-0.4,0.5-0.7,1.3-0.7,2.4c0,1.1,0.2,1.9,0.6,2.4
				c0.4,0.5,1.1,0.8,1.9,0.8C177.1,38.6,177.7,38.3,178.1,37.8z"/>
		</g>
	</g>
	<g>
		<polygon class="st0" points="328,54.1 296.8,54.1 312.4,27.1 328,0 343.7,27.1 359.3,54.1 		"/>
	</g>
</g>
<g>
	<g>
		<path class="st2" d="M235.6,95.1H32c-5.9,0-10.7,4.8-10.7,10.7v19.2c0,5.9,4.8,10.7,10.7,10.7h203.6c5.9,0,10.7-4.8,10.7-10.7
			v-19.2C246.3,99.9,241.5,95.1,235.6,95.1z"/>
	</g>
	<g>
		<g>
			<path class="st1" d="M99.5,122.7c-0.8-0.4-1.3-1-1.7-1.8c-0.4-0.8-0.6-1.7-0.6-2.7s0.2-1.9,0.6-2.7c0.4-0.8,1-1.4,1.8-1.8
				c0.8-0.4,1.7-0.6,2.7-0.6c0.5,0,1.1,0.1,1.6,0.2c0.5,0.1,1,0.4,1.4,0.6c0.4,0.3,0.6,0.6,0.6,1.1c0,0.3-0.1,0.5-0.2,0.7
				c-0.1,0.2-0.3,0.3-0.6,0.3c-0.1,0-0.3,0-0.5-0.1c-0.2-0.1-0.3-0.1-0.5-0.2c-0.3-0.2-0.6-0.3-0.9-0.4c-0.3-0.1-0.6-0.2-0.9-0.2
				c-0.8,0-1.5,0.3-1.9,0.8c-0.5,0.5-0.7,1.3-0.7,2.4c0,1,0.2,1.8,0.7,2.3c0.5,0.5,1.1,0.8,1.9,0.8c0.3,0,0.6-0.1,0.9-0.2
				c0.3-0.1,0.6-0.2,0.9-0.4c0.2-0.1,0.4-0.2,0.5-0.3c0.1-0.1,0.3-0.1,0.4-0.1c0.2,0,0.4,0.1,0.5,0.3c0.1,0.2,0.2,0.4,0.2,0.7
				c0,0.2-0.1,0.4-0.2,0.6c-0.1,0.2-0.3,0.3-0.5,0.5c-0.4,0.3-0.9,0.5-1.5,0.6s-1.1,0.2-1.7,0.2C101.1,123.3,100.2,123.1,99.5,122.7
				z"/>
			<path class="st1" d="M116.3,113.4c0.2,0.2,0.3,0.5,0.3,0.9v7.9c0,0.4-0.1,0.6-0.4,0.9c-0.2,0.2-0.5,0.3-0.9,0.3
				c-0.4,0-0.7-0.1-0.9-0.3c-0.2-0.2-0.3-0.5-0.3-0.8v-0.5c-0.3,0.5-0.7,1-1.3,1.2s-1.1,0.4-1.8,0.4c-2.4,0-3.7-1.4-3.7-4.1v-5
				c0-0.4,0.1-0.7,0.3-0.9c0.2-0.2,0.5-0.3,0.9-0.3c0.4,0,0.7,0.1,0.9,0.3c0.2,0.2,0.3,0.5,0.3,0.9v5c0,0.7,0.1,1.2,0.4,1.6
				c0.3,0.3,0.7,0.5,1.3,0.5c0.7,0,1.3-0.2,1.7-0.7c0.4-0.5,0.6-1.1,0.6-1.9v-4.5c0-0.4,0.1-0.7,0.3-0.9c0.2-0.2,0.5-0.3,0.9-0.3
				C115.8,113,116.1,113.2,116.3,113.4z"/>
			<path class="st1" d="M126.7,114c0.7,0.7,1,1.7,1,3.1v4.9c0,0.4-0.1,0.7-0.3,0.9c-0.2,0.2-0.5,0.3-0.9,0.3c-0.4,0-0.6-0.1-0.9-0.3
				c-0.2-0.2-0.3-0.5-0.3-0.9v-0.4c-0.2,0.5-0.6,0.9-1.1,1.2c-0.5,0.3-1.1,0.4-1.7,0.4c-0.7,0-1.3-0.1-1.8-0.4
				c-0.5-0.3-1-0.6-1.3-1.1c-0.3-0.5-0.5-1-0.5-1.6c0-0.7,0.2-1.3,0.6-1.7c0.4-0.4,1-0.7,1.8-0.9c0.8-0.2,2-0.3,3.5-0.3h0.5v-0.5
				c0-0.7-0.1-1.1-0.4-1.5c-0.3-0.3-0.7-0.5-1.4-0.5c-0.4,0-0.8,0.1-1.2,0.2c-0.4,0.1-0.9,0.3-1.4,0.5c-0.4,0.2-0.6,0.3-0.8,0.3
				c-0.2,0-0.4-0.1-0.6-0.3s-0.2-0.4-0.2-0.7c0-0.2,0.1-0.4,0.2-0.6c0.1-0.2,0.3-0.3,0.6-0.5c0.5-0.3,1-0.5,1.7-0.6s1.3-0.2,1.9-0.2
				C125,113,126,113.3,126.7,114z M124.6,120.8c0.4-0.5,0.6-1,0.6-1.8v-0.4h-0.4c-0.9,0-1.6,0-2.1,0.1s-0.9,0.2-1.1,0.4
				c-0.2,0.2-0.3,0.5-0.3,0.8c0,0.4,0.2,0.8,0.5,1.1c0.3,0.3,0.7,0.4,1.1,0.4C123.7,121.5,124.2,121.3,124.6,120.8z"/>
			<path class="st1" d="M139.5,109.1c0.2,0.2,0.4,0.5,0.4,0.9v12.1c0,0.4-0.1,0.7-0.3,0.9c-0.2,0.2-0.5,0.3-0.9,0.3
				s-0.7-0.1-0.9-0.3c-0.2-0.2-0.3-0.5-0.3-0.9v-0.5c-0.3,0.6-0.7,1-1.3,1.3s-1.2,0.5-1.9,0.5c-0.9,0-1.6-0.2-2.3-0.6
				c-0.7-0.4-1.2-1-1.6-1.8c-0.4-0.8-0.6-1.7-0.6-2.7c0-1,0.2-1.9,0.6-2.7c0.4-0.8,0.9-1.4,1.6-1.8c0.7-0.4,1.4-0.6,2.3-0.6
				c0.7,0,1.4,0.1,1.9,0.4c0.6,0.3,1,0.7,1.3,1.3v-4.8c0-0.3,0.1-0.6,0.3-0.8c0.2-0.2,0.5-0.3,0.9-0.3S139.2,108.9,139.5,109.1z
				 M136.7,120.5c0.4-0.6,0.7-1.3,0.7-2.4c0-1-0.2-1.8-0.7-2.4c-0.4-0.5-1.1-0.8-1.9-0.8c-0.8,0-1.4,0.3-1.9,0.8
				c-0.4,0.5-0.7,1.3-0.7,2.3c0,1,0.2,1.8,0.7,2.4c0.4,0.6,1.1,0.9,1.9,0.9C135.6,121.4,136.2,121.1,136.7,120.5z"/>
			<path class="st1" d="M148.8,113.3c0.2,0.2,0.3,0.4,0.3,0.8c0,0.4-0.1,0.6-0.3,0.8s-0.5,0.3-1,0.3l-0.6,0.1
				c-0.8,0.1-1.4,0.4-1.8,0.8c-0.4,0.5-0.6,1-0.6,1.7v4.3c0,0.4-0.1,0.7-0.4,0.9c-0.2,0.2-0.5,0.3-0.9,0.3c-0.4,0-0.7-0.1-0.9-0.3
				c-0.2-0.2-0.4-0.5-0.4-0.9v-7.8c0-0.4,0.1-0.7,0.4-0.9c0.2-0.2,0.5-0.3,0.9-0.3s0.6,0.1,0.9,0.3c0.2,0.2,0.3,0.5,0.3,0.8v0.8
				c0.3-0.6,0.6-1.1,1.1-1.4c0.5-0.3,1.1-0.5,1.7-0.5l0.3,0C148.3,113,148.6,113.1,148.8,113.3z"/>
			<path class="st1" d="M157.5,114c0.7,0.7,1,1.7,1,3.1v4.9c0,0.4-0.1,0.7-0.3,0.9c-0.2,0.2-0.5,0.3-0.9,0.3c-0.4,0-0.6-0.1-0.9-0.3
				c-0.2-0.2-0.3-0.5-0.3-0.9v-0.4c-0.2,0.5-0.6,0.9-1.1,1.2c-0.5,0.3-1.1,0.4-1.7,0.4c-0.7,0-1.3-0.1-1.8-0.4
				c-0.5-0.3-1-0.6-1.3-1.1c-0.3-0.5-0.5-1-0.5-1.6c0-0.7,0.2-1.3,0.6-1.7c0.4-0.4,1-0.7,1.8-0.9c0.8-0.2,2-0.3,3.5-0.3h0.5v-0.5
				c0-0.7-0.1-1.1-0.4-1.5c-0.3-0.3-0.7-0.5-1.4-0.5c-0.4,0-0.8,0.1-1.2,0.2c-0.4,0.1-0.9,0.3-1.4,0.5c-0.4,0.2-0.6,0.3-0.8,0.3
				c-0.2,0-0.4-0.1-0.6-0.3s-0.2-0.4-0.2-0.7c0-0.2,0.1-0.4,0.2-0.6c0.1-0.2,0.3-0.3,0.6-0.5c0.5-0.3,1-0.5,1.7-0.6s1.3-0.2,1.9-0.2
				C155.8,113,156.9,113.3,157.5,114z M155.5,120.8c0.4-0.5,0.6-1,0.6-1.8v-0.4h-0.4c-0.9,0-1.6,0-2.1,0.1s-0.9,0.2-1.1,0.4
				c-0.2,0.2-0.3,0.5-0.3,0.8c0,0.4,0.2,0.8,0.5,1.1c0.3,0.3,0.7,0.4,1.1,0.4C154.5,121.5,155.1,121.3,155.5,120.8z"/>
			<path class="st1" d="M170.3,109.1c0.2,0.2,0.4,0.5,0.4,0.9v12.1c0,0.4-0.1,0.7-0.3,0.9c-0.2,0.2-0.5,0.3-0.9,0.3
				s-0.7-0.1-0.9-0.3c-0.2-0.2-0.3-0.5-0.3-0.9v-0.5c-0.3,0.6-0.7,1-1.3,1.3s-1.2,0.5-1.9,0.5c-0.9,0-1.6-0.2-2.3-0.6
				c-0.7-0.4-1.2-1-1.6-1.8c-0.4-0.8-0.6-1.7-0.6-2.7c0-1,0.2-1.9,0.6-2.7c0.4-0.8,0.9-1.4,1.6-1.8c0.7-0.4,1.4-0.6,2.3-0.6
				c0.7,0,1.4,0.1,1.9,0.4c0.6,0.3,1,0.7,1.3,1.3v-4.8c0-0.3,0.1-0.6,0.3-0.8c0.2-0.2,0.5-0.3,0.9-0.3S170.1,108.9,170.3,109.1z
				 M167.5,120.5c0.4-0.6,0.7-1.3,0.7-2.4c0-1-0.2-1.8-0.7-2.4c-0.4-0.5-1.1-0.8-1.9-0.8c-0.8,0-1.4,0.3-1.9,0.8
				c-0.4,0.5-0.7,1.3-0.7,2.3c0,1,0.2,1.8,0.7,2.4c0.4,0.6,1.1,0.9,1.9,0.9C166.5,121.4,167.1,121.1,167.5,120.5z"/>
			<path class="st1" d="M175.2,122.7c-0.8-0.4-1.4-1-1.8-1.8c-0.4-0.8-0.6-1.7-0.6-2.7c0-1,0.2-1.9,0.6-2.7c0.4-0.8,1-1.4,1.8-1.8
				c0.8-0.4,1.7-0.6,2.7-0.6c1,0,1.9,0.2,2.7,0.6c0.8,0.4,1.4,1,1.8,1.8c0.4,0.8,0.6,1.7,0.6,2.7c0,1-0.2,2-0.6,2.7
				c-0.4,0.8-1,1.4-1.8,1.8s-1.7,0.6-2.7,0.6C176.8,123.3,175.9,123.1,175.2,122.7z M179.7,120.5c0.4-0.5,0.6-1.3,0.6-2.4
				c0-1-0.2-1.8-0.6-2.4c-0.4-0.5-1.1-0.8-1.9-0.8c-0.8,0-1.4,0.3-1.9,0.8c-0.4,0.5-0.7,1.3-0.7,2.4c0,1.1,0.2,1.9,0.6,2.4
				c0.4,0.5,1.1,0.8,1.9,0.8C178.6,121.4,179.3,121.1,179.7,120.5z"/>
		</g>
	</g>
	<g>
		<rect x="300.4" y="88.4" class="st2" width="54.1" height="54.1"/>
	</g>
</g>
<g>
	<g>
		<path class="st3" d="M235.6,275.8H32c-5.9,0-10.7,4.8-10.7,10.7v19.2c0,5.9,4.8,10.7,10.7,10.7h203.6c5.9,0,10.7-4.8,10.7-10.7
			v-19.2C246.3,280.6,241.5,275.8,235.6,275.8z"/>
	</g>
	<g>
		<g>
			<path class="st1" d="M114.5,293.9c0.2,0.2,0.3,0.4,0.3,0.8c0,0.4-0.1,0.6-0.3,0.8c-0.2,0.2-0.5,0.3-1,0.3l-0.6,0.1
				c-0.8,0.1-1.4,0.4-1.8,0.8c-0.4,0.5-0.6,1-0.6,1.7v4.3c0,0.4-0.1,0.7-0.4,0.9c-0.2,0.2-0.5,0.3-0.9,0.3c-0.4,0-0.7-0.1-0.9-0.3
				c-0.2-0.2-0.4-0.5-0.4-0.9v-7.8c0-0.4,0.1-0.7,0.4-0.9c0.2-0.2,0.5-0.3,0.9-0.3s0.6,0.1,0.9,0.3c0.2,0.2,0.3,0.5,0.3,0.8v0.8
				c0.3-0.6,0.6-1.1,1.1-1.4c0.5-0.3,1.1-0.5,1.7-0.5l0.3,0C114.1,293.7,114.3,293.7,114.5,293.9z"/>
			<path class="st1" d="M117.6,303.3c-0.8-0.4-1.4-1-1.8-1.8c-0.4-0.8-0.6-1.7-0.6-2.7s0.2-2,0.6-2.7c0.4-0.8,1-1.4,1.8-1.8
				c0.8-0.4,1.7-0.6,2.7-0.6c1,0,1.9,0.2,2.7,0.6s1.4,1,1.8,1.8c0.4,0.8,0.6,1.7,0.6,2.7s-0.2,2-0.6,2.7c-0.4,0.8-1,1.4-1.8,1.8
				c-0.8,0.4-1.7,0.6-2.7,0.6C119.3,304,118.4,303.8,117.6,303.3z M122.1,301.2c0.4-0.5,0.6-1.3,0.6-2.4c0-1-0.2-1.8-0.6-2.4
				c-0.4-0.5-1.1-0.8-1.9-0.8c-0.8,0-1.4,0.3-1.9,0.8c-0.4,0.5-0.7,1.3-0.7,2.4c0,1.1,0.2,1.9,0.6,2.4c0.4,0.5,1.1,0.8,1.9,0.8
				C121.1,302,121.7,301.7,122.1,301.2z"/>
			<path class="st1" d="M141.7,294.6c0.6,0.6,0.9,1.7,0.9,3.1v5c0,0.4-0.1,0.7-0.4,0.9c-0.2,0.2-0.5,0.3-0.9,0.3
				c-0.4,0-0.7-0.1-0.9-0.3c-0.2-0.2-0.4-0.5-0.4-0.9v-5c0-0.7-0.1-1.3-0.4-1.6s-0.7-0.5-1.2-0.5c-0.7,0-1.2,0.2-1.6,0.7
				c-0.4,0.5-0.6,1.1-0.6,1.9v4.5c0,0.4-0.1,0.7-0.4,0.9c-0.2,0.2-0.5,0.3-0.9,0.3c-0.4,0-0.7-0.1-0.9-0.3c-0.2-0.2-0.4-0.5-0.4-0.9
				v-5c0-0.7-0.1-1.3-0.4-1.6s-0.7-0.5-1.2-0.5c-0.7,0-1.2,0.2-1.6,0.7c-0.4,0.5-0.6,1.1-0.6,1.9v4.5c0,0.4-0.1,0.7-0.4,0.9
				c-0.2,0.2-0.5,0.3-0.9,0.3c-0.4,0-0.7-0.1-0.9-0.3c-0.2-0.2-0.4-0.5-0.4-0.9v-7.8c0-0.4,0.1-0.7,0.4-0.9c0.2-0.2,0.5-0.3,0.9-0.3
				c0.4,0,0.6,0.1,0.9,0.3c0.2,0.2,0.3,0.5,0.3,0.8v0.5c0.3-0.5,0.7-1,1.2-1.2s1.1-0.4,1.8-0.4c1.5,0,2.5,0.6,3,1.9
				c0.3-0.6,0.7-1,1.3-1.4c0.6-0.3,1.2-0.5,2-0.5C140.3,293.7,141.1,294,141.7,294.6z"/>
			<path class="st1" d="M153.1,294.3c0.7,0.4,1.2,1,1.6,1.8c0.4,0.8,0.6,1.7,0.6,2.7s-0.2,1.9-0.6,2.7c-0.4,0.8-0.9,1.4-1.6,1.8
				s-1.4,0.6-2.3,0.6c-0.7,0-1.4-0.2-1.9-0.5c-0.6-0.3-1-0.7-1.3-1.3v0.5c0,0.4-0.1,0.7-0.3,0.9c-0.2,0.2-0.5,0.3-0.9,0.3
				s-0.7-0.1-0.9-0.3c-0.2-0.2-0.3-0.5-0.3-0.9v-12.1c0-0.4,0.1-0.6,0.4-0.9c0.2-0.2,0.5-0.3,0.9-0.3s0.7,0.1,0.9,0.3
				s0.3,0.5,0.3,0.8v4.8c0.3-0.5,0.7-1,1.3-1.2c0.6-0.3,1.2-0.4,1.9-0.4C151.7,293.7,152.4,293.9,153.1,294.3z M152,301.2
				c0.4-0.6,0.7-1.4,0.7-2.4c0-1-0.2-1.8-0.7-2.3c-0.4-0.5-1.1-0.8-1.9-0.8s-1.4,0.3-1.9,0.8c-0.4,0.5-0.7,1.3-0.7,2.4
				s0.2,1.8,0.7,2.4c0.4,0.6,1.1,0.8,1.9,0.8C150.9,302,151.6,301.7,152,301.2z"/>
			<path class="st1" d="M159.2,303.3c-0.8-0.4-1.4-1-1.8-1.8c-0.4-0.8-0.6-1.7-0.6-2.7s0.2-2,0.6-2.7c0.4-0.8,1-1.4,1.8-1.8
				c0.8-0.4,1.7-0.6,2.7-0.6c1,0,1.9,0.2,2.7,0.6s1.4,1,1.8,1.8c0.4,0.8,0.6,1.7,0.6,2.7s-0.2,2-0.6,2.7c-0.4,0.8-1,1.4-1.8,1.8
				c-0.8,0.4-1.7,0.6-2.7,0.6C160.8,304,159.9,303.8,159.2,303.3z M163.7,301.2c0.4-0.5,0.6-1.3,0.6-2.4c0-1-0.2-1.8-0.6-2.4
				c-0.4-0.5-1.1-0.8-1.9-0.8c-0.8,0-1.4,0.3-1.9,0.8c-0.4,0.5-0.7,1.3-0.7,2.4c0,1.1,0.2,1.9,0.6,2.4c0.4,0.5,1.1,0.8,1.9,0.8
				C162.6,302,163.3,301.7,163.7,301.2z"/>
		</g>
	</g>
	<g>
		<polygon class="st3" points="303.8,292.7 327.9,322 351.2,291.8 327,262.5 		"/>
	</g>
</g>
<g>
	<g>
		<path class="st4" d="M235.6,184.1H32c-5.9,0-10.7,4.8-10.7,10.7v19.2c0,5.9,4.8,10.7,10.7,10.7h203.6c5.9,0,10.7-4.8,10.7-10.7
			v-19.2C246.3,188.9,241.5,184.1,235.6,184.1z"/>
	</g>
	<g>
		<g>
			<path class="st1" d="M95.2,203.5c0.2,0.2,0.3,0.4,0.3,0.8c0,0.4-0.1,0.6-0.3,0.8s-0.5,0.3-1,0.3l-0.6,0.1
				c-0.8,0.1-1.4,0.4-1.8,0.8c-0.4,0.5-0.6,1-0.6,1.7v4.3c0,0.4-0.1,0.7-0.4,0.9c-0.2,0.2-0.5,0.3-0.9,0.3c-0.4,0-0.7-0.1-0.9-0.3
				c-0.2-0.2-0.4-0.5-0.4-0.9v-7.8c0-0.4,0.1-0.7,0.4-0.9c0.2-0.2,0.5-0.3,0.9-0.3s0.6,0.1,0.9,0.3c0.2,0.2,0.3,0.5,0.3,0.8v0.8
				c0.3-0.6,0.6-1.1,1.1-1.4c0.5-0.3,1.1-0.5,1.7-0.5l0.3,0C94.8,203.3,95,203.3,95.2,203.5z"/>
			<path class="st1" d="M104.8,211c0.1,0.2,0.2,0.4,0.2,0.7c0,0.4-0.2,0.8-0.8,1.1c-0.5,0.3-1,0.5-1.6,0.6c-0.6,0.2-1.1,0.2-1.7,0.2
				c-1.6,0-2.9-0.5-3.8-1.4c-0.9-0.9-1.4-2.2-1.4-3.8c0-1,0.2-1.9,0.6-2.7c0.4-0.8,1-1.4,1.7-1.8c0.7-0.4,1.6-0.6,2.5-0.6
				c0.9,0,1.7,0.2,2.3,0.6c0.7,0.4,1.2,0.9,1.5,1.7c0.4,0.7,0.5,1.6,0.5,2.5c0,0.6-0.3,0.9-0.8,0.9h-6c0.1,0.9,0.3,1.6,0.8,2.1
				c0.4,0.4,1.1,0.7,1.9,0.7c0.4,0,0.8-0.1,1.1-0.2c0.3-0.1,0.7-0.3,1.1-0.4c0.4-0.2,0.7-0.3,0.9-0.3
				C104.5,210.7,104.7,210.8,104.8,211z M99.1,205.7c-0.4,0.4-0.7,1.1-0.7,1.9h4.6c0-0.8-0.2-1.5-0.6-1.9s-0.9-0.6-1.6-0.6
				C100.1,205,99.5,205.2,99.1,205.7z"/>
			<path class="st1" d="M109,212.9c-0.8-0.4-1.3-1-1.7-1.8c-0.4-0.8-0.6-1.7-0.6-2.7s0.2-1.9,0.6-2.7c0.4-0.8,1-1.4,1.8-1.8
				c0.8-0.4,1.7-0.6,2.7-0.6c0.5,0,1.1,0.1,1.6,0.2c0.5,0.1,1,0.4,1.4,0.6c0.4,0.3,0.6,0.6,0.6,1.1c0,0.3-0.1,0.5-0.2,0.7
				c-0.1,0.2-0.3,0.3-0.6,0.3c-0.1,0-0.3,0-0.5-0.1c-0.2-0.1-0.3-0.1-0.5-0.2c-0.3-0.2-0.6-0.3-0.9-0.4c-0.3-0.1-0.6-0.2-0.9-0.2
				c-0.8,0-1.5,0.3-1.9,0.8c-0.5,0.5-0.7,1.3-0.7,2.4c0,1,0.2,1.8,0.7,2.3c0.5,0.5,1.1,0.8,1.9,0.8c0.3,0,0.6-0.1,0.9-0.2
				c0.3-0.1,0.6-0.2,0.9-0.4c0.2-0.1,0.4-0.2,0.5-0.3c0.1-0.1,0.3-0.1,0.4-0.1c0.2,0,0.4,0.1,0.5,0.3c0.1,0.2,0.2,0.4,0.2,0.7
				c0,0.2-0.1,0.4-0.2,0.6c-0.1,0.2-0.3,0.3-0.5,0.5c-0.4,0.3-0.9,0.5-1.5,0.6s-1.1,0.2-1.7,0.2C110.6,213.6,109.7,213.4,109,212.9z
				"/>
			<path class="st1" d="M123.3,212.6c0,0.3-0.1,0.6-0.4,0.7c-0.3,0.2-0.6,0.2-1.1,0.2l-0.5,0c-2.3-0.2-3.4-1.4-3.4-3.7v-4.4h-1
				c-0.4,0-0.6-0.1-0.8-0.2c-0.2-0.2-0.3-0.4-0.3-0.7c0-0.3,0.1-0.5,0.3-0.7c0.2-0.2,0.5-0.2,0.8-0.2h1v-1.9c0-0.4,0.1-0.7,0.3-0.9
				c0.2-0.2,0.5-0.3,0.9-0.3c0.4,0,0.7,0.1,0.9,0.3c0.2,0.2,0.3,0.5,0.3,0.9v1.9h1.7c0.4,0,0.6,0.1,0.8,0.2c0.2,0.2,0.3,0.4,0.3,0.7
				c0,0.3-0.1,0.5-0.3,0.7c-0.2,0.2-0.5,0.2-0.8,0.2h-1.7v4.6c0,1,0.5,1.5,1.4,1.6l0.5,0C123,211.7,123.3,212,123.3,212.6z"/>
			<path class="st1" d="M132,204.3c0.7,0.7,1,1.7,1,3.1v4.9c0,0.4-0.1,0.7-0.3,0.9c-0.2,0.2-0.5,0.3-0.9,0.3c-0.4,0-0.6-0.1-0.9-0.3
				c-0.2-0.2-0.3-0.5-0.3-0.9v-0.4c-0.2,0.5-0.6,0.9-1.1,1.2c-0.5,0.3-1.1,0.4-1.7,0.4c-0.7,0-1.3-0.1-1.8-0.4
				c-0.5-0.3-1-0.6-1.3-1.1c-0.3-0.5-0.5-1-0.5-1.6c0-0.7,0.2-1.3,0.6-1.7c0.4-0.4,1-0.7,1.8-0.9c0.8-0.2,2-0.3,3.5-0.3h0.5v-0.5
				c0-0.7-0.1-1.1-0.4-1.5c-0.3-0.3-0.7-0.5-1.4-0.5c-0.4,0-0.8,0.1-1.2,0.2c-0.4,0.1-0.9,0.3-1.4,0.5c-0.4,0.2-0.6,0.3-0.8,0.3
				c-0.2,0-0.4-0.1-0.6-0.3s-0.2-0.4-0.2-0.7c0-0.2,0.1-0.4,0.2-0.6c0.1-0.2,0.3-0.3,0.6-0.5c0.5-0.3,1-0.5,1.7-0.6s1.3-0.2,1.9-0.2
				C130.3,203.2,131.3,203.6,132,204.3z M130,211.1c0.4-0.5,0.6-1,0.6-1.8v-0.4h-0.4c-0.9,0-1.6,0-2.1,0.1s-0.9,0.2-1.1,0.4
				c-0.2,0.2-0.3,0.5-0.3,0.8c0,0.4,0.2,0.8,0.5,1.1c0.3,0.3,0.7,0.4,1.1,0.4C129,211.7,129.5,211.5,130,211.1z M129,202.3
				c-0.2,0-0.3-0.1-0.5-0.2c-0.1-0.1-0.2-0.3-0.2-0.5c0-0.1,0.1-0.3,0.2-0.4l2-2.6c0.3-0.4,0.7-0.6,1.1-0.6c0.3,0,0.6,0.1,0.8,0.3
				c0.2,0.2,0.3,0.5,0.3,0.7c0,0.4-0.2,0.7-0.5,1l-2.6,2.1C129.3,202.2,129.1,202.3,129,202.3z"/>
			<path class="st1" d="M144,204.3c0.6,0.7,0.9,1.7,0.9,3.1v5c0,0.4-0.1,0.7-0.3,0.9c-0.2,0.2-0.5,0.3-0.9,0.3s-0.7-0.1-0.9-0.3
				c-0.2-0.2-0.3-0.5-0.3-0.9v-4.8c0-0.8-0.1-1.3-0.4-1.7c-0.3-0.4-0.7-0.5-1.4-0.5c-0.7,0-1.3,0.2-1.8,0.7s-0.7,1.1-0.7,1.8v4.5
				c0,0.4-0.1,0.7-0.3,0.9c-0.2,0.2-0.5,0.3-0.9,0.3c-0.4,0-0.7-0.1-0.9-0.3c-0.2-0.2-0.3-0.5-0.3-0.9v-7.8c0-0.4,0.1-0.6,0.3-0.9
				c0.2-0.2,0.5-0.3,0.9-0.3c0.4,0,0.6,0.1,0.9,0.3c0.2,0.2,0.3,0.5,0.3,0.8v0.5c0.3-0.6,0.8-1,1.4-1.3c0.6-0.3,1.2-0.4,1.9-0.4
				C142.5,203.2,143.4,203.6,144,204.3z"/>
			<path class="st1" d="M156.8,203.6c0.2,0.2,0.3,0.5,0.3,0.9v8c0,1.6-0.4,2.7-1.3,3.5c-0.9,0.8-2.1,1.2-3.8,1.2
				c-1.5,0-2.7-0.3-3.7-0.8c-0.5-0.3-0.8-0.7-0.8-1.1c0-0.3,0.1-0.5,0.2-0.7s0.3-0.3,0.6-0.3c0.1,0,0.3,0,0.4,0.1
				c0.2,0.1,0.4,0.1,0.5,0.2c0.5,0.2,0.9,0.4,1.3,0.5c0.4,0.1,0.8,0.2,1.3,0.2c1.8,0,2.7-0.9,2.7-2.6v-1.3c-0.3,0.6-0.7,1-1.3,1.3
				s-1.2,0.5-1.9,0.5c-0.9,0-1.6-0.2-2.3-0.6s-1.2-1-1.6-1.7s-0.6-1.6-0.6-2.6s0.2-1.8,0.6-2.6c0.4-0.8,0.9-1.3,1.6-1.7
				c0.7-0.4,1.4-0.6,2.3-0.6c0.7,0,1.4,0.2,1.9,0.5s1,0.7,1.3,1.3v-0.5c0-0.4,0.1-0.6,0.3-0.9c0.2-0.2,0.5-0.3,0.9-0.3
				C156.2,203.3,156.5,203.4,156.8,203.6z M153.9,210.4c0.5-0.5,0.7-1.3,0.7-2.2c0-0.9-0.2-1.7-0.7-2.2c-0.5-0.5-1.1-0.8-1.9-0.8
				c-0.8,0-1.4,0.3-1.9,0.8c-0.5,0.5-0.7,1.3-0.7,2.2c0,0.9,0.2,1.6,0.7,2.2c0.5,0.5,1.1,0.8,1.9,0.8
				C152.8,211.2,153.5,210.9,153.9,210.4z"/>
			<path class="st1" d="M168.5,203.6c0.2,0.2,0.3,0.5,0.3,0.9v7.9c0,0.4-0.1,0.6-0.4,0.9c-0.2,0.2-0.5,0.3-0.9,0.3
				c-0.4,0-0.7-0.1-0.9-0.3c-0.2-0.2-0.3-0.5-0.3-0.8v-0.5c-0.3,0.5-0.7,1-1.3,1.2s-1.1,0.4-1.8,0.4c-2.4,0-3.7-1.4-3.7-4.1v-5
				c0-0.4,0.1-0.7,0.3-0.9c0.2-0.2,0.5-0.3,0.9-0.3c0.4,0,0.7,0.1,0.9,0.3c0.2,0.2,0.3,0.5,0.3,0.9v5c0,0.7,0.1,1.2,0.4,1.6
				c0.3,0.3,0.7,0.5,1.3,0.5c0.7,0,1.3-0.2,1.7-0.7c0.4-0.5,0.6-1.1,0.6-1.9v-4.5c0-0.4,0.1-0.7,0.3-0.9c0.2-0.2,0.5-0.3,0.9-0.3
				C167.9,203.3,168.3,203.4,168.5,203.6z"/>
			<path class="st1" d="M171.8,213.2c-0.2-0.2-0.4-0.5-0.4-0.9v-12.1c0-0.4,0.1-0.7,0.4-0.9c0.2-0.2,0.5-0.3,0.9-0.3
				c0.4,0,0.7,0.1,0.9,0.3c0.2,0.2,0.4,0.5,0.4,0.9v12.1c0,0.4-0.1,0.7-0.4,0.9c-0.2,0.2-0.5,0.3-0.9,0.3
				C172.4,213.5,172.1,213.4,171.8,213.2z"/>
			<path class="st1" d="M178.5,212.9c-0.8-0.4-1.4-1-1.8-1.8c-0.4-0.8-0.6-1.7-0.6-2.7c0-1,0.2-1.9,0.6-2.7c0.4-0.8,1-1.4,1.8-1.8
				c0.8-0.4,1.7-0.6,2.7-0.6c1,0,1.9,0.2,2.7,0.6c0.8,0.4,1.4,1,1.8,1.8c0.4,0.8,0.6,1.7,0.6,2.7c0,1-0.2,2-0.6,2.7
				c-0.4,0.8-1,1.4-1.8,1.8s-1.7,0.6-2.7,0.6C180.1,213.6,179.2,213.4,178.5,212.9z M183,210.8c0.4-0.5,0.6-1.3,0.6-2.4
				c0-1-0.2-1.8-0.6-2.4c-0.4-0.5-1.1-0.8-1.9-0.8c-0.8,0-1.4,0.3-1.9,0.8c-0.4,0.5-0.7,1.3-0.7,2.4c0,1.1,0.2,1.9,0.6,2.4
				c0.4,0.5,1.1,0.8,1.9,0.8C181.9,211.6,182.6,211.3,183,210.8z"/>
		</g>
	</g>
	<g>
		<rect x="282.2" y="176.8" class="st4" width="90.6" height="54.1"/>
	</g>
</g>
<g>
	<g>
		<path class="st5" d="M235.6,358.9H32c-5.9,0-10.7,4.8-10.7,10.7v19.2c0,5.9,4.8,10.7,10.7,10.7h203.6c5.9,0,10.7-4.8,10.7-10.7
			v-19.2C246.3,363.7,241.5,358.9,235.6,358.9z"/>
	</g>
	<g>
		<g>
			<path class="st1" d="M112.6,385.9c-0.8-0.4-1.3-1-1.7-1.8c-0.4-0.8-0.6-1.7-0.6-2.7s0.2-1.9,0.6-2.7c0.4-0.8,1-1.4,1.8-1.8
				c0.8-0.4,1.7-0.6,2.7-0.6c0.5,0,1.1,0.1,1.6,0.2c0.5,0.1,1,0.4,1.4,0.6c0.4,0.3,0.6,0.6,0.6,1.1c0,0.3-0.1,0.5-0.2,0.7
				s-0.3,0.3-0.6,0.3c-0.1,0-0.3,0-0.5-0.1c-0.2-0.1-0.3-0.1-0.5-0.2c-0.3-0.2-0.6-0.3-0.9-0.4s-0.6-0.2-0.9-0.2
				c-0.8,0-1.5,0.3-1.9,0.8s-0.7,1.3-0.7,2.4c0,1,0.2,1.8,0.7,2.3s1.1,0.8,1.9,0.8c0.3,0,0.6-0.1,0.9-0.2s0.6-0.2,0.9-0.4
				c0.2-0.1,0.4-0.2,0.5-0.3c0.1-0.1,0.3-0.1,0.4-0.1c0.2,0,0.4,0.1,0.5,0.3c0.1,0.2,0.2,0.4,0.2,0.7c0,0.2-0.1,0.4-0.2,0.6
				c-0.1,0.2-0.3,0.3-0.5,0.5c-0.4,0.3-0.9,0.5-1.5,0.6s-1.1,0.2-1.7,0.2C114.2,386.5,113.3,386.3,112.6,385.9z"/>
			<path class="st1" d="M121,386.2c-0.2-0.2-0.4-0.5-0.4-0.9v-7.8c0-0.4,0.1-0.7,0.4-0.9c0.2-0.2,0.5-0.3,0.9-0.3
				c0.4,0,0.7,0.1,0.9,0.3c0.2,0.2,0.4,0.5,0.4,0.9v7.8c0,0.4-0.1,0.7-0.4,0.9c-0.2,0.2-0.5,0.3-0.9,0.3
				C121.6,386.5,121.3,386.4,121,386.2z M122,375.2c-0.2,0-0.3-0.1-0.5-0.2c-0.1-0.1-0.2-0.3-0.2-0.5c0-0.1,0.1-0.3,0.2-0.4l2-2.6
				c0.3-0.4,0.7-0.6,1.1-0.6c0.3,0,0.6,0.1,0.8,0.3c0.2,0.2,0.3,0.5,0.3,0.7c0,0.4-0.2,0.7-0.5,1l-2.6,2.1
				C122.3,375.2,122.2,375.2,122,375.2z"/>
			<path class="st1" d="M132.2,376.5c0.2,0.2,0.3,0.4,0.3,0.8c0,0.4-0.1,0.6-0.3,0.8c-0.2,0.2-0.5,0.3-1,0.3l-0.6,0.1
				c-0.8,0.1-1.4,0.4-1.8,0.8c-0.4,0.5-0.6,1-0.6,1.7v4.3c0,0.4-0.1,0.7-0.4,0.9c-0.2,0.2-0.5,0.3-0.9,0.3c-0.4,0-0.7-0.1-0.9-0.3
				c-0.2-0.2-0.4-0.5-0.4-0.9v-7.8c0-0.4,0.1-0.7,0.4-0.9c0.2-0.2,0.5-0.3,0.9-0.3s0.6,0.1,0.9,0.3c0.2,0.2,0.3,0.5,0.3,0.8v0.8
				c0.3-0.6,0.6-1.1,1.1-1.4c0.5-0.3,1.1-0.5,1.7-0.5l0.3,0C131.7,376.2,132,376.3,132.2,376.5z"/>
			<path class="st1" d="M135.2,385.9c-0.8-0.4-1.3-1-1.7-1.8c-0.4-0.8-0.6-1.7-0.6-2.7s0.2-1.9,0.6-2.7c0.4-0.8,1-1.4,1.8-1.8
				c0.8-0.4,1.7-0.6,2.7-0.6c0.5,0,1.1,0.1,1.6,0.2c0.5,0.1,1,0.4,1.4,0.6c0.4,0.3,0.6,0.6,0.6,1.1c0,0.3-0.1,0.5-0.2,0.7
				s-0.3,0.3-0.6,0.3c-0.1,0-0.3,0-0.5-0.1c-0.2-0.1-0.3-0.1-0.5-0.2c-0.3-0.2-0.6-0.3-0.9-0.4s-0.6-0.2-0.9-0.2
				c-0.8,0-1.5,0.3-1.9,0.8s-0.7,1.3-0.7,2.4c0,1,0.2,1.8,0.7,2.3s1.1,0.8,1.9,0.8c0.3,0,0.6-0.1,0.9-0.2s0.6-0.2,0.9-0.4
				c0.2-0.1,0.4-0.2,0.5-0.3c0.1-0.1,0.3-0.1,0.4-0.1c0.2,0,0.4,0.1,0.5,0.3c0.1,0.2,0.2,0.4,0.2,0.7c0,0.2-0.1,0.4-0.2,0.6
				c-0.1,0.2-0.3,0.3-0.5,0.5c-0.4,0.3-0.9,0.5-1.5,0.6s-1.1,0.2-1.7,0.2C136.8,386.5,135.9,386.3,135.2,385.9z"/>
			<path class="st1" d="M152.1,376.6c0.2,0.2,0.3,0.5,0.3,0.9v7.9c0,0.4-0.1,0.6-0.4,0.9c-0.2,0.2-0.5,0.3-0.9,0.3
				c-0.4,0-0.7-0.1-0.9-0.3c-0.2-0.2-0.3-0.5-0.3-0.8v-0.5c-0.3,0.5-0.7,1-1.3,1.2c-0.5,0.3-1.1,0.4-1.8,0.4c-2.4,0-3.7-1.4-3.7-4.1
				v-5c0-0.4,0.1-0.7,0.3-0.9c0.2-0.2,0.5-0.3,0.9-0.3c0.4,0,0.7,0.1,0.9,0.3c0.2,0.2,0.3,0.5,0.3,0.9v5c0,0.7,0.1,1.2,0.4,1.6
				c0.3,0.3,0.7,0.5,1.3,0.5c0.7,0,1.3-0.2,1.7-0.7c0.4-0.5,0.6-1.1,0.6-1.9v-4.5c0-0.4,0.1-0.7,0.3-0.9c0.2-0.2,0.5-0.3,0.9-0.3
				C151.5,376.2,151.8,376.3,152.1,376.6z"/>
			<path class="st1" d="M155.4,386.2c-0.2-0.2-0.4-0.5-0.4-0.9v-12.1c0-0.4,0.1-0.7,0.4-0.9c0.2-0.2,0.5-0.3,0.9-0.3
				c0.4,0,0.7,0.1,0.9,0.3c0.2,0.2,0.4,0.5,0.4,0.9v12.1c0,0.4-0.1,0.7-0.4,0.9c-0.2,0.2-0.5,0.3-0.9,0.3
				C155.9,386.5,155.6,386.4,155.4,386.2z"/>
			<path class="st1" d="M162,385.9c-0.8-0.4-1.4-1-1.8-1.8c-0.4-0.8-0.6-1.7-0.6-2.7s0.2-2,0.6-2.7c0.4-0.8,1-1.4,1.8-1.8
				c0.8-0.4,1.7-0.6,2.7-0.6c1,0,1.9,0.2,2.7,0.6s1.4,1,1.8,1.8c0.4,0.8,0.6,1.7,0.6,2.7s-0.2,2-0.6,2.7c-0.4,0.8-1,1.4-1.8,1.8
				c-0.8,0.4-1.7,0.6-2.7,0.6C163.7,386.5,162.8,386.3,162,385.9z M166.6,383.7c0.4-0.5,0.6-1.3,0.6-2.4c0-1-0.2-1.8-0.6-2.4
				c-0.4-0.5-1.1-0.8-1.9-0.8c-0.8,0-1.4,0.3-1.9,0.8c-0.4,0.5-0.7,1.3-0.7,2.4c0,1.1,0.2,1.9,0.6,2.4c0.4,0.5,1.1,0.8,1.9,0.8
				C165.5,384.5,166.1,384.3,166.6,383.7z"/>
		</g>
	</g>
	<g>
		<circle class="st5" cx="326.6" cy="380.7" r="28.2"/>
	</g>
</g>
<g>
	<path class="st6" d="M235.6,455.3H32c-5.9,0-10.7,4.8-10.7,10.7v19.2c0,5.9,4.8,10.7,10.7,10.7h203.6c5.9,0,10.7-4.8,10.7-10.7
		v-19.2C246.3,460.2,241.5,455.3,235.6,455.3z"/>
	<g>
		<g>
			<path class="st1" d="M98.9,473.9c0.7,0.4,1.2,1,1.6,1.8c0.4,0.8,0.6,1.7,0.6,2.7s-0.2,1.9-0.6,2.7c-0.4,0.8-0.9,1.4-1.6,1.8
				c-0.7,0.4-1.4,0.6-2.3,0.6c-0.7,0-1.3-0.1-1.9-0.4c-0.6-0.3-1-0.7-1.3-1.2v4.1c0,0.4-0.1,0.6-0.3,0.8c-0.2,0.2-0.5,0.3-0.9,0.3
				s-0.7-0.1-0.9-0.3c-0.2-0.2-0.4-0.5-0.4-0.9v-11.5c0-0.4,0.1-0.7,0.3-0.9c0.2-0.2,0.5-0.3,0.9-0.3s0.7,0.1,0.9,0.3
				c0.2,0.2,0.3,0.5,0.3,0.9v0.5c0.3-0.6,0.7-1,1.3-1.3c0.6-0.3,1.2-0.5,1.9-0.5C97.5,473.2,98.3,473.4,98.9,473.9z M97.9,480.8
				c0.4-0.5,0.7-1.3,0.7-2.3c0-1-0.2-1.8-0.7-2.4c-0.4-0.6-1.1-0.9-1.9-0.9c-0.8,0-1.4,0.3-1.9,0.8s-0.7,1.3-0.7,2.4
				c0,1,0.2,1.8,0.7,2.4c0.4,0.6,1.1,0.8,1.9,0.8C96.8,481.6,97.4,481.3,97.9,480.8z"/>
			<path class="st1" d="M111.6,480.9c0.1,0.2,0.2,0.4,0.2,0.7c0,0.4-0.2,0.8-0.8,1.1c-0.5,0.3-1,0.5-1.6,0.6
				c-0.6,0.2-1.1,0.2-1.7,0.2c-1.6,0-2.9-0.5-3.8-1.4c-0.9-0.9-1.4-2.2-1.4-3.8c0-1,0.2-1.9,0.6-2.7c0.4-0.8,1-1.4,1.7-1.8
				c0.7-0.4,1.6-0.6,2.5-0.6c0.9,0,1.7,0.2,2.3,0.6c0.7,0.4,1.2,0.9,1.5,1.7c0.4,0.7,0.5,1.6,0.5,2.5c0,0.6-0.3,0.9-0.8,0.9h-6
				c0.1,0.9,0.3,1.6,0.8,2.1c0.4,0.4,1.1,0.7,1.9,0.7c0.4,0,0.8-0.1,1.1-0.2c0.3-0.1,0.7-0.3,1.1-0.4c0.4-0.2,0.7-0.3,0.9-0.3
				C111.2,480.7,111.4,480.7,111.6,480.9z M105.8,475.7c-0.4,0.4-0.7,1.1-0.7,1.9h4.6c0-0.8-0.2-1.4-0.6-1.9
				c-0.4-0.4-0.9-0.6-1.6-0.6C106.8,475,106.3,475.2,105.8,475.7z"/>
			<path class="st1" d="M122.3,474.2c0.6,0.7,0.9,1.7,0.9,3.1v5c0,0.4-0.1,0.7-0.3,0.9c-0.2,0.2-0.5,0.3-0.9,0.3s-0.7-0.1-0.9-0.3
				c-0.2-0.2-0.3-0.5-0.3-0.9v-4.8c0-0.8-0.1-1.3-0.4-1.7s-0.7-0.5-1.4-0.5c-0.7,0-1.3,0.2-1.8,0.7s-0.7,1.1-0.7,1.8v4.5
				c0,0.4-0.1,0.7-0.3,0.9c-0.2,0.2-0.5,0.3-0.9,0.3c-0.4,0-0.7-0.1-0.9-0.3c-0.2-0.2-0.3-0.5-0.3-0.9v-7.8c0-0.4,0.1-0.6,0.3-0.9
				c0.2-0.2,0.5-0.3,0.9-0.3c0.4,0,0.6,0.1,0.9,0.3c0.2,0.2,0.3,0.5,0.3,0.8v0.5c0.3-0.6,0.8-1,1.4-1.3c0.6-0.3,1.2-0.4,1.9-0.4
				C120.9,473.2,121.8,473.6,122.3,474.2z"/>
			<path class="st1" d="M131.9,482.5c0,0.3-0.1,0.6-0.4,0.7s-0.6,0.2-1.1,0.2l-0.5,0c-2.3-0.2-3.4-1.4-3.4-3.7v-4.4h-1
				c-0.4,0-0.6-0.1-0.8-0.2c-0.2-0.2-0.3-0.4-0.3-0.7c0-0.3,0.1-0.5,0.3-0.7c0.2-0.2,0.5-0.2,0.8-0.2h1v-1.9c0-0.4,0.1-0.7,0.3-0.9
				c0.2-0.2,0.5-0.3,0.9-0.3c0.4,0,0.7,0.1,0.9,0.3c0.2,0.2,0.3,0.5,0.3,0.9v1.9h1.7c0.4,0,0.6,0.1,0.8,0.2c0.2,0.2,0.3,0.4,0.3,0.7
				c0,0.3-0.1,0.5-0.3,0.7c-0.2,0.2-0.5,0.2-0.8,0.2H129v4.6c0,1,0.5,1.5,1.4,1.6l0.5,0C131.6,481.7,131.9,482,131.9,482.5z"/>
			<path class="st1" d="M140.6,474.2c0.7,0.7,1,1.7,1,3.1v4.9c0,0.4-0.1,0.7-0.3,0.9s-0.5,0.3-0.9,0.3c-0.4,0-0.6-0.1-0.9-0.3
				c-0.2-0.2-0.3-0.5-0.3-0.9v-0.4c-0.2,0.5-0.6,0.9-1.1,1.2c-0.5,0.3-1.1,0.4-1.7,0.4c-0.7,0-1.3-0.1-1.8-0.4
				c-0.5-0.3-1-0.6-1.3-1.1c-0.3-0.5-0.5-1-0.5-1.6c0-0.7,0.2-1.3,0.6-1.7c0.4-0.4,1-0.7,1.8-0.9c0.8-0.2,2-0.3,3.5-0.3h0.5v-0.5
				c0-0.7-0.1-1.1-0.4-1.5c-0.3-0.3-0.7-0.5-1.4-0.5c-0.4,0-0.8,0.1-1.2,0.2c-0.4,0.1-0.9,0.3-1.4,0.5c-0.4,0.2-0.6,0.3-0.8,0.3
				c-0.2,0-0.4-0.1-0.6-0.3s-0.2-0.4-0.2-0.7c0-0.2,0.1-0.4,0.2-0.6c0.1-0.2,0.3-0.3,0.6-0.5c0.5-0.3,1-0.5,1.7-0.6
				c0.7-0.1,1.3-0.2,1.9-0.2C138.9,473.2,140,473.6,140.6,474.2z M138.6,481c0.4-0.5,0.6-1,0.6-1.8v-0.4h-0.4c-0.9,0-1.6,0-2.1,0.1
				s-0.9,0.2-1.1,0.4c-0.2,0.2-0.3,0.5-0.3,0.8c0,0.4,0.2,0.8,0.5,1.1c0.3,0.3,0.7,0.4,1.1,0.4C137.6,481.7,138.2,481.5,138.6,481z
				 M137.6,472.3c-0.2,0-0.3-0.1-0.5-0.2c-0.1-0.1-0.2-0.3-0.2-0.5c0-0.1,0.1-0.3,0.2-0.4l2-2.6c0.3-0.4,0.7-0.6,1.1-0.6
				c0.3,0,0.6,0.1,0.8,0.3c0.2,0.2,0.3,0.5,0.3,0.7c0,0.4-0.2,0.7-0.5,1l-2.6,2.1C137.9,472.2,137.8,472.3,137.6,472.3z"/>
			<path class="st1" d="M153.5,473.6c0.2,0.2,0.3,0.5,0.3,0.9v8c0,1.6-0.4,2.7-1.3,3.5s-2.1,1.2-3.8,1.2c-1.5,0-2.7-0.3-3.7-0.8
				c-0.5-0.3-0.8-0.7-0.8-1.1c0-0.3,0.1-0.5,0.2-0.7s0.3-0.3,0.6-0.3c0.1,0,0.3,0,0.4,0.1c0.2,0.1,0.4,0.1,0.5,0.2
				c0.5,0.2,0.9,0.4,1.3,0.5s0.8,0.2,1.3,0.2c1.8,0,2.7-0.9,2.7-2.6v-1.3c-0.3,0.6-0.7,1-1.3,1.3c-0.6,0.3-1.2,0.5-1.9,0.5
				c-0.9,0-1.6-0.2-2.3-0.6s-1.2-1-1.6-1.7c-0.4-0.7-0.6-1.6-0.6-2.6s0.2-1.8,0.6-2.6c0.4-0.8,0.9-1.3,1.6-1.7
				c0.7-0.4,1.4-0.6,2.3-0.6c0.7,0,1.4,0.2,1.9,0.5c0.6,0.3,1,0.7,1.3,1.3v-0.5c0-0.4,0.1-0.6,0.3-0.9c0.2-0.2,0.5-0.3,0.9-0.3
				C153,473.3,153.3,473.4,153.5,473.6z M150.7,480.3c0.5-0.5,0.7-1.2,0.7-2.2c0-0.9-0.2-1.7-0.7-2.2c-0.5-0.5-1.1-0.8-1.9-0.8
				c-0.8,0-1.4,0.3-1.9,0.8c-0.5,0.5-0.7,1.3-0.7,2.2c0,0.9,0.2,1.6,0.7,2.2c0.5,0.5,1.1,0.8,1.9,0.8
				C149.6,481.1,150.2,480.9,150.7,480.3z"/>
			<path class="st1" d="M158.3,482.9c-0.8-0.4-1.4-1-1.8-1.8c-0.4-0.8-0.6-1.7-0.6-2.7s0.2-2,0.6-2.7c0.4-0.8,1-1.4,1.8-1.8
				c0.8-0.4,1.7-0.6,2.7-0.6c1,0,1.9,0.2,2.7,0.6s1.4,1,1.8,1.8c0.4,0.8,0.6,1.7,0.6,2.7s-0.2,2-0.6,2.7c-0.4,0.8-1,1.4-1.8,1.8
				c-0.8,0.4-1.7,0.6-2.7,0.6C160,483.5,159.1,483.3,158.3,482.9z M162.9,480.8c0.4-0.5,0.6-1.3,0.6-2.4c0-1-0.2-1.8-0.6-2.4
				c-0.4-0.5-1.1-0.8-1.9-0.8c-0.8,0-1.4,0.3-1.9,0.8c-0.4,0.5-0.7,1.3-0.7,2.4c0,1.1,0.2,1.9,0.6,2.4c0.4,0.5,1.1,0.8,1.9,0.8
				C161.8,481.6,162.4,481.3,162.9,480.8z"/>
			<path class="st1" d="M176.6,474.2c0.6,0.7,0.9,1.7,0.9,3.1v5c0,0.4-0.1,0.7-0.3,0.9c-0.2,0.2-0.5,0.3-0.9,0.3s-0.7-0.1-0.9-0.3
				c-0.2-0.2-0.3-0.5-0.3-0.9v-4.8c0-0.8-0.1-1.3-0.4-1.7s-0.7-0.5-1.4-0.5c-0.7,0-1.3,0.2-1.8,0.7s-0.7,1.1-0.7,1.8v4.5
				c0,0.4-0.1,0.7-0.3,0.9c-0.2,0.2-0.5,0.3-0.9,0.3c-0.4,0-0.7-0.1-0.9-0.3c-0.2-0.2-0.3-0.5-0.3-0.9v-7.8c0-0.4,0.1-0.6,0.3-0.9
				c0.2-0.2,0.5-0.3,0.9-0.3c0.4,0,0.6,0.1,0.9,0.3c0.2,0.2,0.3,0.5,0.3,0.8v0.5c0.3-0.6,0.8-1,1.4-1.3c0.6-0.3,1.2-0.4,1.9-0.4
				C175.1,473.2,176,473.6,176.6,474.2z"/>
			<path class="st1" d="M181.9,482.9c-0.8-0.4-1.4-1-1.8-1.8c-0.4-0.8-0.6-1.7-0.6-2.7s0.2-2,0.6-2.7c0.4-0.8,1-1.4,1.8-1.8
				c0.8-0.4,1.7-0.6,2.7-0.6c1,0,1.9,0.2,2.7,0.6s1.4,1,1.8,1.8c0.4,0.8,0.6,1.7,0.6,2.7s-0.2,2-0.6,2.7c-0.4,0.8-1,1.4-1.8,1.8
				c-0.8,0.4-1.7,0.6-2.7,0.6C183.5,483.5,182.6,483.3,181.9,482.9z M186.4,480.8c0.4-0.5,0.6-1.3,0.6-2.4c0-1-0.2-1.8-0.6-2.4
				c-0.4-0.5-1.1-0.8-1.9-0.8c-0.8,0-1.4,0.3-1.9,0.8c-0.4,0.5-0.7,1.3-0.7,2.4c0,1.1,0.2,1.9,0.6,2.4c0.4,0.5,1.1,0.8,1.9,0.8
				C185.3,481.6,186,481.3,186.4,480.8z"/>
		</g>
	</g>
	<polygon class="st6" points="328,438.2 295.5,461.8 308,500 348.1,500 360.6,461.8 	"/>
</g>
</svg>
