<?xml version="1.0" encoding="utf-8"?>
<!-- Generator: Adobe Illustrator 22.0.1, SVG Export Plug-In . SVG Version: 6.00 Build 0)  -->
<svg version="1.1" id="Layer_1" xmlns="http://www.w3.org/2000/svg" xmlns:xlink="http://www.w3.org/1999/xlink" x="0px" y="0px"
	 viewBox="0 0 400 500" style="enable-background:new 0 0 400 500;" xml:space="preserve">
<style type="text/css">
	.st0{fill:#FFFFFF;stroke:#FFFFFF;stroke-width:10;stroke-linecap:round;stroke-linejoin:round;stroke-miterlimit:10;}
	.st1{fill:#00CDC8;}
	.st2{fill:#FFFFFF;}
	.st3{fill:#A5D73C;}
	.st4{fill:#F86A00;}
	.st5{fill:#FADC3C;}
	.st6{fill:#F24044;}
	.st7{fill:#60025E;}
</style>
<g>
	<path class="st0" d="M235.6,17.9H32c-5.9,0-10.7,4.8-10.7,10.7v19.2c0,5.9,4.8,10.7,10.7,10.7h203.6c5.9,0,10.7-4.8,10.7-10.7V28.7
		C246.3,22.7,241.5,17.9,235.6,17.9z"/>
	<polygon class="st0" points="359.3,59.1 343.7,32.1 328,5 312.4,32.1 296.8,59.1 328,59.1 	"/>
	<path class="st0" d="M235.6,97.1H32c-5.9,0-10.7,4.8-10.7,10.7v19.2c0,5.9,4.8,10.7,10.7,10.7h203.6c5.9,0,10.7-4.8,10.7-10.7
		v-19.2C246.3,101.9,241.5,97.1,235.6,97.1z"/>
	<rect x="300.4" y="90.4" class="st0" width="54.1" height="54.1"/>
	<path class="st0" d="M235.6,275.8H32c-5.9,0-10.7,4.8-10.7,10.7v19.2c0,5.9,4.8,10.7,10.7,10.7h203.6c5.9,0,10.7-4.8,10.7-10.7
		v-19.2C246.3,280.6,241.5,275.8,235.6,275.8z"/>
	<polygon class="st0" points="351.2,291.8 327,262.5 303.8,292.7 327.9,322 	"/>
	<path class="st0" d="M235.6,185.1H32c-5.9,0-10.7,4.8-10.7,10.7v19.2c0,5.9,4.8,10.7,10.7,10.7h203.6c5.9,0,10.7-4.8,10.7-10.7
		v-19.2C246.3,189.9,241.5,185.1,235.6,185.1z"/>
	<rect x="282.2" y="177.8" class="st0" width="90.6" height="54.1"/>
	<path class="st0" d="M235.6,356.9H32c-5.9,0-10.7,4.8-10.7,10.7v19.2c0,5.9,4.8,10.7,10.7,10.7h203.6c5.9,0,10.7-4.8,10.7-10.7
		v-19.2C246.3,361.7,241.5,356.9,235.6,356.9z"/>
	<circle class="st0" cx="326.6" cy="378.7" r="28.2"/>
	<path class="st0" d="M235.6,450.3H32c-5.9,0-10.7,4.8-10.7,10.7v19.2c0,5.9,4.8,10.7,10.7,10.7h203.6c5.9,0,10.7-4.8,10.7-10.7
		v-19.2C246.3,455.2,241.5,450.3,235.6,450.3z"/>
	<polygon class="st0" points="295.5,456.8 308,495 348.1,495 360.6,456.8 328,433.2 	"/>
</g>
<g>
	<g>
		<path class="st1" d="M235.6,17.9H32c-5.9,0-10.7,4.8-10.7,10.7v19.2c0,5.9,4.8,10.7,10.7,10.7h203.6c5.9,0,10.7-4.8,10.7-10.7
			V28.7C246.3,22.7,241.5,17.9,235.6,17.9z"/>
	</g>
	<g>
		<g>
			<path class="st2" d="M105.5,44.5c0,0.3-0.1,0.6-0.4,0.7c-0.3,0.2-0.6,0.2-1.1,0.2l-0.5,0c-2.3-0.2-3.4-1.4-3.4-3.7v-4.4h-1
				c-0.4,0-0.6-0.1-0.8-0.2c-0.2-0.2-0.3-0.4-0.3-0.7c0-0.3,0.1-0.5,0.3-0.7c0.2-0.2,0.5-0.2,0.8-0.2h1v-1.9c0-0.4,0.1-0.7,0.3-0.9
				c0.2-0.2,0.5-0.3,0.9-0.3c0.4,0,0.7,0.1,0.9,0.3c0.2,0.2,0.3,0.5,0.3,0.9v1.9h1.7c0.4,0,0.6,0.1,0.8,0.2c0.2,0.2,0.3,0.4,0.3,0.7
				c0,0.3-0.1,0.5-0.3,0.7c-0.2,0.2-0.5,0.2-0.8,0.2h-1.7V42c0,1,0.5,1.5,1.4,1.6l0.5,0C105.2,43.7,105.5,44,105.5,44.5z"/>
			<path class="st2" d="M113.2,35.5c0.2,0.2,0.3,0.4,0.3,0.8c0,0.4-0.1,0.6-0.3,0.8s-0.5,0.3-1,0.3l-0.6,0.1
				c-0.8,0.1-1.4,0.4-1.8,0.8c-0.4,0.5-0.6,1-0.6,1.7v4.3c0,0.4-0.1,0.7-0.4,0.9c-0.2,0.2-0.5,0.3-0.9,0.3c-0.4,0-0.7-0.1-0.9-0.3
				c-0.2-0.2-0.4-0.5-0.4-0.9v-7.8c0-0.4,0.1-0.7,0.4-0.9c0.2-0.2,0.5-0.3,0.9-0.3s0.6,0.1,0.9,0.3c0.2,0.2,0.3,0.5,0.3,0.8v0.8
				c0.3-0.6,0.6-1.1,1.1-1.4c0.5-0.3,1.1-0.5,1.7-0.5l0.3,0C112.7,35.3,113,35.3,113.2,35.5z"/>
			<path class="st2" d="M114.8,33.1c-0.3-0.2-0.4-0.6-0.4-1c0-0.4,0.1-0.7,0.4-1s0.6-0.4,1.1-0.4c0.4,0,0.8,0.1,1.1,0.4
				c0.3,0.2,0.4,0.6,0.4,1c0,0.4-0.1,0.7-0.4,1c-0.3,0.3-0.6,0.4-1.1,0.4C115.4,33.5,115.1,33.3,114.8,33.1z M115,45.2
				c-0.2-0.2-0.4-0.5-0.4-0.9v-7.8c0-0.4,0.1-0.7,0.4-0.9c0.2-0.2,0.5-0.3,0.9-0.3c0.4,0,0.7,0.1,0.9,0.3c0.2,0.2,0.4,0.5,0.4,0.9
				v7.8c0,0.4-0.1,0.7-0.4,0.9c-0.2,0.2-0.5,0.3-0.9,0.3C115.5,45.5,115.2,45.4,115,45.2z"/>
			<path class="st2" d="M127.1,36.3c0.7,0.7,1,1.7,1,3.1v4.9c0,0.4-0.1,0.7-0.3,0.9c-0.2,0.2-0.5,0.3-0.9,0.3
				c-0.4,0-0.6-0.1-0.9-0.3c-0.2-0.2-0.3-0.5-0.3-0.9v-0.4c-0.2,0.5-0.6,0.9-1.1,1.2c-0.5,0.3-1.1,0.4-1.7,0.4
				c-0.7,0-1.3-0.1-1.8-0.4c-0.5-0.3-1-0.6-1.3-1.1c-0.3-0.5-0.5-1-0.5-1.6c0-0.7,0.2-1.3,0.6-1.7c0.4-0.4,1-0.7,1.8-0.9
				c0.8-0.2,2-0.3,3.5-0.3h0.5v-0.5c0-0.7-0.1-1.1-0.4-1.5c-0.3-0.3-0.7-0.5-1.4-0.5c-0.4,0-0.8,0.1-1.2,0.2
				c-0.4,0.1-0.9,0.3-1.4,0.5c-0.4,0.2-0.6,0.3-0.8,0.3c-0.2,0-0.4-0.1-0.6-0.3s-0.2-0.4-0.2-0.7c0-0.2,0.1-0.4,0.2-0.6
				c0.1-0.2,0.3-0.3,0.6-0.5c0.5-0.3,1-0.5,1.7-0.6s1.3-0.2,1.9-0.2C125.4,35.2,126.5,35.6,127.1,36.3z M125.1,43.1
				c0.4-0.5,0.6-1,0.6-1.8v-0.4h-0.4c-0.9,0-1.6,0-2.1,0.1s-0.9,0.2-1.1,0.4c-0.2,0.2-0.3,0.5-0.3,0.8c0,0.4,0.2,0.8,0.5,1.1
				c0.3,0.3,0.7,0.4,1.1,0.4C124.1,43.7,124.7,43.5,125.1,43.1z M124.1,34.3c-0.2,0-0.3-0.1-0.5-0.2c-0.1-0.1-0.2-0.3-0.2-0.5
				c0-0.1,0.1-0.3,0.2-0.4l2-2.6c0.3-0.4,0.7-0.6,1.1-0.6c0.3,0,0.6,0.1,0.8,0.3c0.2,0.2,0.3,0.5,0.3,0.7c0,0.4-0.2,0.7-0.5,1
				l-2.6,2.1C124.4,34.2,124.3,34.3,124.1,34.3z"/>
			<path class="st2" d="M139.1,36.3c0.6,0.7,0.9,1.7,0.9,3.1v5c0,0.4-0.1,0.7-0.3,0.9c-0.2,0.2-0.5,0.3-0.9,0.3s-0.7-0.1-0.9-0.3
				c-0.2-0.2-0.3-0.5-0.3-0.9v-4.8c0-0.8-0.1-1.3-0.4-1.7c-0.3-0.4-0.7-0.5-1.4-0.5c-0.7,0-1.3,0.2-1.8,0.7s-0.7,1.1-0.7,1.8v4.5
				c0,0.4-0.1,0.7-0.3,0.9c-0.2,0.2-0.5,0.3-0.9,0.3c-0.4,0-0.7-0.1-0.9-0.3c-0.2-0.2-0.3-0.5-0.3-0.9v-7.8c0-0.4,0.1-0.6,0.3-0.9
				c0.2-0.2,0.5-0.3,0.9-0.3c0.4,0,0.6,0.1,0.9,0.3c0.2,0.2,0.3,0.5,0.3,0.8V37c0.3-0.6,0.8-1,1.4-1.3c0.6-0.3,1.2-0.4,1.9-0.4
				C137.7,35.2,138.6,35.6,139.1,36.3z"/>
			<path class="st2" d="M151.9,35.6c0.2,0.2,0.3,0.5,0.3,0.9v8c0,1.6-0.4,2.7-1.3,3.5c-0.9,0.8-2.1,1.2-3.8,1.2
				c-1.5,0-2.7-0.3-3.7-0.8c-0.5-0.3-0.8-0.7-0.8-1.1c0-0.3,0.1-0.5,0.2-0.7s0.3-0.3,0.6-0.3c0.1,0,0.3,0,0.4,0.1
				c0.2,0.1,0.4,0.1,0.5,0.2c0.5,0.2,0.9,0.4,1.3,0.5c0.4,0.1,0.8,0.2,1.3,0.2c1.8,0,2.7-0.9,2.7-2.6v-1.3c-0.3,0.6-0.7,1-1.3,1.3
				s-1.2,0.5-1.9,0.5c-0.9,0-1.6-0.2-2.3-0.6s-1.2-1-1.6-1.7s-0.6-1.6-0.6-2.6s0.2-1.8,0.6-2.6c0.4-0.8,0.9-1.3,1.6-1.7
				c0.7-0.4,1.4-0.6,2.3-0.6c0.7,0,1.4,0.2,1.9,0.5s1,0.7,1.3,1.3v-0.5c0-0.4,0.1-0.6,0.3-0.9c0.2-0.2,0.5-0.3,0.9-0.3
				C151.4,35.3,151.7,35.4,151.9,35.6z M149,42.4c0.5-0.5,0.7-1.3,0.7-2.2c0-0.9-0.2-1.7-0.7-2.2c-0.5-0.5-1.1-0.8-1.9-0.8
				c-0.8,0-1.4,0.3-1.9,0.8c-0.5,0.5-0.7,1.3-0.7,2.2c0,0.9,0.2,1.6,0.7,2.2c0.5,0.5,1.1,0.8,1.9,0.8C148,43.1,148.6,42.9,149,42.4z
				"/>
			<path class="st2" d="M163.6,35.6c0.2,0.2,0.3,0.5,0.3,0.9v7.9c0,0.4-0.1,0.6-0.4,0.9c-0.2,0.2-0.5,0.3-0.9,0.3
				c-0.4,0-0.7-0.1-0.9-0.3c-0.2-0.2-0.3-0.5-0.3-0.8v-0.5c-0.3,0.5-0.7,1-1.3,1.2s-1.1,0.4-1.8,0.4c-2.4,0-3.7-1.4-3.7-4.1v-5
				c0-0.4,0.1-0.7,0.3-0.9c0.2-0.2,0.5-0.3,0.9-0.3c0.4,0,0.7,0.1,0.9,0.3c0.2,0.2,0.3,0.5,0.3,0.9v5c0,0.7,0.1,1.2,0.4,1.6
				c0.3,0.3,0.7,0.5,1.3,0.5c0.7,0,1.3-0.2,1.7-0.7c0.4-0.5,0.6-1.1,0.6-1.9v-4.5c0-0.4,0.1-0.7,0.3-0.9c0.2-0.2,0.5-0.3,0.9-0.3
				C163.1,35.3,163.4,35.4,163.6,35.6z"/>
			<path class="st2" d="M167,45.2c-0.2-0.2-0.4-0.5-0.4-0.9V32.2c0-0.4,0.1-0.7,0.4-0.9c0.2-0.2,0.5-0.3,0.9-0.3
				c0.4,0,0.7,0.1,0.9,0.3c0.2,0.2,0.4,0.5,0.4,0.9v12.1c0,0.4-0.1,0.7-0.4,0.9c-0.2,0.2-0.5,0.3-0.9,0.3
				C167.5,45.5,167.2,45.4,167,45.2z"/>
			<path class="st2" d="M173.6,44.9c-0.8-0.4-1.4-1-1.8-1.8c-0.4-0.8-0.6-1.7-0.6-2.7c0-1,0.2-1.9,0.6-2.7c0.4-0.8,1-1.4,1.8-1.8
				c0.8-0.4,1.7-0.6,2.7-0.6c1,0,1.9,0.2,2.7,0.6c0.8,0.4,1.4,1,1.8,1.8c0.4,0.8,0.6,1.7,0.6,2.7c0,1-0.2,2-0.6,2.7
				c-0.4,0.8-1,1.4-1.8,1.8s-1.7,0.6-2.7,0.6C175.3,45.6,174.4,45.4,173.6,44.9z M178.1,42.8c0.4-0.5,0.6-1.3,0.6-2.4
				c0-1-0.2-1.8-0.6-2.4c-0.4-0.5-1.1-0.8-1.9-0.8c-0.8,0-1.4,0.3-1.9,0.8c-0.4,0.5-0.7,1.3-0.7,2.4c0,1.1,0.2,1.9,0.6,2.4
				c0.4,0.5,1.1,0.8,1.9,0.8C177.1,43.6,177.7,43.3,178.1,42.8z"/>
		</g>
	</g>
	<g>
		<polygon class="st1" points="328,59.1 296.8,59.1 312.4,32.1 328,5 343.7,32.1 359.3,59.1 		"/>
	</g>
</g>
<g>
	<g>
		<path class="st3" d="M235.6,97.1H32c-5.9,0-10.7,4.8-10.7,10.7v19.2c0,5.9,4.8,10.7,10.7,10.7h203.6c5.9,0,10.7-4.8,10.7-10.7
			v-19.2C246.3,101.9,241.5,97.1,235.6,97.1z"/>
	</g>
	<g>
		<g>
			<path class="st2" d="M99.5,124.7c-0.8-0.4-1.3-1-1.7-1.8c-0.4-0.8-0.6-1.7-0.6-2.7s0.2-1.9,0.6-2.7c0.4-0.8,1-1.4,1.8-1.8
				c0.8-0.4,1.7-0.6,2.7-0.6c0.5,0,1.1,0.1,1.6,0.2c0.5,0.1,1,0.4,1.4,0.6c0.4,0.3,0.6,0.6,0.6,1.1c0,0.3-0.1,0.5-0.2,0.7
				c-0.1,0.2-0.3,0.3-0.6,0.3c-0.1,0-0.3,0-0.5-0.1c-0.2-0.1-0.3-0.1-0.5-0.2c-0.3-0.2-0.6-0.3-0.9-0.4c-0.3-0.1-0.6-0.2-0.9-0.2
				c-0.8,0-1.5,0.3-1.9,0.8c-0.5,0.5-0.7,1.3-0.7,2.4c0,1,0.2,1.8,0.7,2.3c0.5,0.5,1.1,0.8,1.9,0.8c0.3,0,0.6-0.1,0.9-0.2
				c0.3-0.1,0.6-0.2,0.9-0.4c0.2-0.1,0.4-0.2,0.5-0.3c0.1-0.1,0.3-0.1,0.4-0.1c0.2,0,0.4,0.1,0.5,0.3c0.1,0.2,0.2,0.4,0.2,0.7
				c0,0.2-0.1,0.4-0.2,0.6c-0.1,0.2-0.3,0.3-0.5,0.5c-0.4,0.3-0.9,0.5-1.5,0.6s-1.1,0.2-1.7,0.2C101.1,125.3,100.2,125.1,99.5,124.7
				z"/>
			<path class="st2" d="M116.3,115.4c0.2,0.2,0.3,0.5,0.3,0.9v7.9c0,0.4-0.1,0.6-0.4,0.9c-0.2,0.2-0.5,0.3-0.9,0.3
				c-0.4,0-0.7-0.1-0.9-0.3c-0.2-0.2-0.3-0.5-0.3-0.8v-0.5c-0.3,0.5-0.7,1-1.3,1.2s-1.1,0.4-1.8,0.4c-2.4,0-3.7-1.4-3.7-4.1v-5
				c0-0.4,0.1-0.7,0.3-0.9c0.2-0.2,0.5-0.3,0.9-0.3c0.4,0,0.7,0.1,0.9,0.3c0.2,0.2,0.3,0.5,0.3,0.9v5c0,0.7,0.1,1.2,0.4,1.6
				c0.3,0.3,0.7,0.5,1.3,0.5c0.7,0,1.3-0.2,1.7-0.7c0.4-0.5,0.6-1.1,0.6-1.9v-4.5c0-0.4,0.1-0.7,0.3-0.9c0.2-0.2,0.5-0.3,0.9-0.3
				C115.8,115,116.1,115.2,116.3,115.4z"/>
			<path class="st2" d="M126.7,116c0.7,0.7,1,1.7,1,3.1v4.9c0,0.4-0.1,0.7-0.3,0.9c-0.2,0.2-0.5,0.3-0.9,0.3c-0.4,0-0.6-0.1-0.9-0.3
				c-0.2-0.2-0.3-0.5-0.3-0.9v-0.4c-0.2,0.5-0.6,0.9-1.1,1.2c-0.5,0.3-1.1,0.4-1.7,0.4c-0.7,0-1.3-0.1-1.8-0.4
				c-0.5-0.3-1-0.6-1.3-1.1c-0.3-0.5-0.5-1-0.5-1.6c0-0.7,0.2-1.3,0.6-1.7c0.4-0.4,1-0.7,1.8-0.9c0.8-0.2,2-0.3,3.5-0.3h0.5v-0.5
				c0-0.7-0.1-1.1-0.4-1.5c-0.3-0.3-0.7-0.5-1.4-0.5c-0.4,0-0.8,0.1-1.2,0.2c-0.4,0.1-0.9,0.3-1.4,0.5c-0.4,0.2-0.6,0.3-0.8,0.3
				c-0.2,0-0.4-0.1-0.6-0.3s-0.2-0.4-0.2-0.7c0-0.2,0.1-0.4,0.2-0.6c0.1-0.2,0.3-0.3,0.6-0.5c0.5-0.3,1-0.5,1.7-0.6s1.3-0.2,1.9-0.2
				C125,115,126,115.3,126.7,116z M124.6,122.8c0.4-0.5,0.6-1,0.6-1.8v-0.4h-0.4c-0.9,0-1.6,0-2.1,0.1s-0.9,0.2-1.1,0.4
				c-0.2,0.2-0.3,0.5-0.3,0.8c0,0.4,0.2,0.8,0.5,1.1c0.3,0.3,0.7,0.4,1.1,0.4C123.7,123.5,124.2,123.3,124.6,122.8z"/>
			<path class="st2" d="M139.5,111.1c0.2,0.2,0.4,0.5,0.4,0.9v12.1c0,0.4-0.1,0.7-0.3,0.9c-0.2,0.2-0.5,0.3-0.9,0.3
				s-0.7-0.1-0.9-0.3c-0.2-0.2-0.3-0.5-0.3-0.9v-0.5c-0.3,0.6-0.7,1-1.3,1.3s-1.2,0.5-1.9,0.5c-0.9,0-1.6-0.2-2.3-0.6
				c-0.7-0.4-1.2-1-1.6-1.8c-0.4-0.8-0.6-1.7-0.6-2.7c0-1,0.2-1.9,0.6-2.7c0.4-0.8,0.9-1.4,1.6-1.8c0.7-0.4,1.4-0.6,2.3-0.6
				c0.7,0,1.4,0.1,1.9,0.4c0.6,0.3,1,0.7,1.3,1.3v-4.8c0-0.3,0.1-0.6,0.3-0.8c0.2-0.2,0.5-0.3,0.9-0.3S139.2,110.9,139.5,111.1z
				 M136.7,122.5c0.4-0.6,0.7-1.3,0.7-2.4c0-1-0.2-1.8-0.7-2.4c-0.4-0.5-1.1-0.8-1.9-0.8c-0.8,0-1.4,0.3-1.9,0.8
				c-0.4,0.5-0.7,1.3-0.7,2.3c0,1,0.2,1.8,0.7,2.4c0.4,0.6,1.1,0.9,1.9,0.9C135.6,123.4,136.2,123.1,136.7,122.5z"/>
			<path class="st2" d="M148.8,115.3c0.2,0.2,0.3,0.4,0.3,0.8c0,0.4-0.1,0.6-0.3,0.8s-0.5,0.3-1,0.3l-0.6,0.1
				c-0.8,0.1-1.4,0.4-1.8,0.8c-0.4,0.5-0.6,1-0.6,1.7v4.3c0,0.4-0.1,0.7-0.4,0.9c-0.2,0.2-0.5,0.3-0.9,0.3c-0.4,0-0.7-0.1-0.9-0.3
				c-0.2-0.2-0.4-0.5-0.4-0.9v-7.8c0-0.4,0.1-0.7,0.4-0.9c0.2-0.2,0.5-0.3,0.9-0.3s0.6,0.1,0.9,0.3c0.2,0.2,0.3,0.5,0.3,0.8v0.8
				c0.3-0.6,0.6-1.1,1.1-1.4c0.5-0.3,1.1-0.5,1.7-0.5l0.3,0C148.3,115,148.6,115.1,148.8,115.3z"/>
			<path class="st2" d="M157.5,116c0.7,0.7,1,1.7,1,3.1v4.9c0,0.4-0.1,0.7-0.3,0.9c-0.2,0.2-0.5,0.3-0.9,0.3c-0.4,0-0.6-0.1-0.9-0.3
				c-0.2-0.2-0.3-0.5-0.3-0.9v-0.4c-0.2,0.5-0.6,0.9-1.1,1.2c-0.5,0.3-1.1,0.4-1.7,0.4c-0.7,0-1.3-0.1-1.8-0.4
				c-0.5-0.3-1-0.6-1.3-1.1c-0.3-0.5-0.5-1-0.5-1.6c0-0.7,0.2-1.3,0.6-1.7c0.4-0.4,1-0.7,1.8-0.9c0.8-0.2,2-0.3,3.5-0.3h0.5v-0.5
				c0-0.7-0.1-1.1-0.4-1.5c-0.3-0.3-0.7-0.5-1.4-0.5c-0.4,0-0.8,0.1-1.2,0.2c-0.4,0.1-0.9,0.3-1.4,0.5c-0.4,0.2-0.6,0.3-0.8,0.3
				c-0.2,0-0.4-0.1-0.6-0.3s-0.2-0.4-0.2-0.7c0-0.2,0.1-0.4,0.2-0.6c0.1-0.2,0.3-0.3,0.6-0.5c0.5-0.3,1-0.5,1.7-0.6s1.3-0.2,1.9-0.2
				C155.8,115,156.9,115.3,157.5,116z M155.5,122.8c0.4-0.5,0.6-1,0.6-1.8v-0.4h-0.4c-0.9,0-1.6,0-2.1,0.1s-0.9,0.2-1.1,0.4
				c-0.2,0.2-0.3,0.5-0.3,0.8c0,0.4,0.2,0.8,0.5,1.1c0.3,0.3,0.7,0.4,1.1,0.4C154.5,123.5,155.1,123.3,155.5,122.8z"/>
			<path class="st2" d="M170.3,111.1c0.2,0.2,0.4,0.5,0.4,0.9v12.1c0,0.4-0.1,0.7-0.3,0.9c-0.2,0.2-0.5,0.3-0.9,0.3
				s-0.7-0.1-0.9-0.3c-0.2-0.2-0.3-0.5-0.3-0.9v-0.5c-0.3,0.6-0.7,1-1.3,1.3s-1.2,0.5-1.9,0.5c-0.9,0-1.6-0.2-2.3-0.6
				c-0.7-0.4-1.2-1-1.6-1.8c-0.4-0.8-0.6-1.7-0.6-2.7c0-1,0.2-1.9,0.6-2.7c0.4-0.8,0.9-1.4,1.6-1.8c0.7-0.4,1.4-0.6,2.3-0.6
				c0.7,0,1.4,0.1,1.9,0.4c0.6,0.3,1,0.7,1.3,1.3v-4.8c0-0.3,0.1-0.6,0.3-0.8c0.2-0.2,0.5-0.3,0.9-0.3S170.1,110.9,170.3,111.1z
				 M167.5,122.5c0.4-0.6,0.7-1.3,0.7-2.4c0-1-0.2-1.8-0.7-2.4c-0.4-0.5-1.1-0.8-1.9-0.8c-0.8,0-1.4,0.3-1.9,0.8
				c-0.4,0.5-0.7,1.3-0.7,2.3c0,1,0.2,1.8,0.7,2.4c0.4,0.6,1.1,0.9,1.9,0.9C166.5,123.4,167.1,123.1,167.5,122.5z"/>
			<path class="st2" d="M175.2,124.7c-0.8-0.4-1.4-1-1.8-1.8c-0.4-0.8-0.6-1.7-0.6-2.7c0-1,0.2-1.9,0.6-2.7c0.4-0.8,1-1.4,1.8-1.8
				c0.8-0.4,1.7-0.6,2.7-0.6c1,0,1.9,0.2,2.7,0.6c0.8,0.4,1.4,1,1.8,1.8c0.4,0.8,0.6,1.7,0.6,2.7c0,1-0.2,2-0.6,2.7
				c-0.4,0.8-1,1.4-1.8,1.8s-1.7,0.6-2.7,0.6C176.8,125.3,175.9,125.1,175.2,124.7z M179.7,122.5c0.4-0.5,0.6-1.3,0.6-2.4
				c0-1-0.2-1.8-0.6-2.4c-0.4-0.5-1.1-0.8-1.9-0.8c-0.8,0-1.4,0.3-1.9,0.8c-0.4,0.5-0.7,1.3-0.7,2.4c0,1.1,0.2,1.9,0.6,2.4
				c0.4,0.5,1.1,0.8,1.9,0.8C178.6,123.4,179.3,123.1,179.7,122.5z"/>
		</g>
	</g>
	<g>
		<rect x="300.4" y="90.4" class="st3" width="54.1" height="54.1"/>
	</g>
</g>
<g>
	<g>
		<path class="st4" d="M235.6,275.8H32c-5.9,0-10.7,4.8-10.7,10.7v19.2c0,5.9,4.8,10.7,10.7,10.7h203.6c5.9,0,10.7-4.8,10.7-10.7
			v-19.2C246.3,280.6,241.5,275.8,235.6,275.8z"/>
	</g>
	<g>
		<g>
			<path class="st2" d="M114.5,293.9c0.2,0.2,0.3,0.4,0.3,0.8c0,0.4-0.1,0.6-0.3,0.8c-0.2,0.2-0.5,0.3-1,0.3l-0.6,0.1
				c-0.8,0.1-1.4,0.4-1.8,0.8c-0.4,0.5-0.6,1-0.6,1.7v4.3c0,0.4-0.1,0.7-0.4,0.9c-0.2,0.2-0.5,0.3-0.9,0.3c-0.4,0-0.7-0.1-0.9-0.3
				c-0.2-0.2-0.4-0.5-0.4-0.9v-7.8c0-0.4,0.1-0.7,0.4-0.9c0.2-0.2,0.5-0.3,0.9-0.3s0.6,0.1,0.9,0.3c0.2,0.2,0.3,0.5,0.3,0.8v0.8
				c0.3-0.6,0.6-1.1,1.1-1.4c0.5-0.3,1.1-0.5,1.7-0.5l0.3,0C114.1,293.7,114.3,293.7,114.5,293.9z"/>
			<path class="st2" d="M117.6,303.3c-0.8-0.4-1.4-1-1.8-1.8c-0.4-0.8-0.6-1.7-0.6-2.7s0.2-2,0.6-2.7c0.4-0.8,1-1.4,1.8-1.8
				c0.8-0.4,1.7-0.6,2.7-0.6c1,0,1.9,0.2,2.7,0.6s1.4,1,1.8,1.8c0.4,0.8,0.6,1.7,0.6,2.7s-0.2,2-0.6,2.7c-0.4,0.8-1,1.4-1.8,1.8
				c-0.8,0.4-1.7,0.6-2.7,0.6C119.3,304,118.4,303.8,117.6,303.3z M122.1,301.2c0.4-0.5,0.6-1.3,0.6-2.4c0-1-0.2-1.8-0.6-2.4
				c-0.4-0.5-1.1-0.8-1.9-0.8c-0.8,0-1.4,0.3-1.9,0.8c-0.4,0.5-0.7,1.3-0.7,2.4c0,1.1,0.2,1.9,0.6,2.4c0.4,0.5,1.1,0.8,1.9,0.8
				C121.1,302,121.7,301.7,122.1,301.2z"/>
			<path class="st2" d="M141.7,294.6c0.6,0.6,0.9,1.7,0.9,3.1v5c0,0.4-0.1,0.7-0.4,0.9c-0.2,0.2-0.5,0.3-0.9,0.3
				c-0.4,0-0.7-0.1-0.9-0.3c-0.2-0.2-0.4-0.5-0.4-0.9v-5c0-0.7-0.1-1.3-0.4-1.6s-0.7-0.5-1.2-0.5c-0.7,0-1.2,0.2-1.6,0.7
				c-0.4,0.5-0.6,1.1-0.6,1.9v4.5c0,0.4-0.1,0.7-0.4,0.9c-0.2,0.2-0.5,0.3-0.9,0.3c-0.4,0-0.7-0.1-0.9-0.3c-0.2-0.2-0.4-0.5-0.4-0.9
				v-5c0-0.7-0.1-1.3-0.4-1.6s-0.7-0.5-1.2-0.5c-0.7,0-1.2,0.2-1.6,0.7c-0.4,0.5-0.6,1.1-0.6,1.9v4.5c0,0.4-0.1,0.7-0.4,0.9
				c-0.2,0.2-0.5,0.3-0.9,0.3c-0.4,0-0.7-0.1-0.9-0.3c-0.2-0.2-0.4-0.5-0.4-0.9v-7.8c0-0.4,0.1-0.7,0.4-0.9c0.2-0.2,0.5-0.3,0.9-0.3
				c0.4,0,0.6,0.1,0.9,0.3c0.2,0.2,0.3,0.5,0.3,0.8v0.5c0.3-0.5,0.7-1,1.2-1.2s1.1-0.4,1.8-0.4c1.5,0,2.5,0.6,3,1.9
				c0.3-0.6,0.7-1,1.3-1.4c0.6-0.3,1.2-0.5,2-0.5C140.3,293.7,141.1,294,141.7,294.6z"/>
			<path class="st2" d="M153.1,294.3c0.7,0.4,1.2,1,1.6,1.8c0.4,0.8,0.6,1.7,0.6,2.7s-0.2,1.9-0.6,2.7c-0.4,0.8-0.9,1.4-1.6,1.8
				s-1.4,0.6-2.3,0.6c-0.7,0-1.4-0.2-1.9-0.5c-0.6-0.3-1-0.7-1.3-1.3v0.5c0,0.4-0.1,0.7-0.3,0.9c-0.2,0.2-0.5,0.3-0.9,0.3
				s-0.7-0.1-0.9-0.3c-0.2-0.2-0.3-0.5-0.3-0.9v-12.1c0-0.4,0.1-0.6,0.4-0.9c0.2-0.2,0.5-0.3,0.9-0.3s0.7,0.1,0.9,0.3
				s0.3,0.5,0.3,0.8v4.8c0.3-0.5,0.7-1,1.3-1.2c0.6-0.3,1.2-0.4,1.9-0.4C151.7,293.7,152.4,293.9,153.1,294.3z M152,301.2
				c0.4-0.6,0.7-1.4,0.7-2.4c0-1-0.2-1.8-0.7-2.3c-0.4-0.5-1.1-0.8-1.9-0.8s-1.4,0.3-1.9,0.8c-0.4,0.5-0.7,1.3-0.7,2.4
				s0.2,1.8,0.7,2.4c0.4,0.6,1.1,0.8,1.9,0.8C150.9,302,151.6,301.7,152,301.2z"/>
			<path class="st2" d="M159.2,303.3c-0.8-0.4-1.4-1-1.8-1.8c-0.4-0.8-0.6-1.7-0.6-2.7s0.2-2,0.6-2.7c0.4-0.8,1-1.4,1.8-1.8
				c0.8-0.4,1.7-0.6,2.7-0.6c1,0,1.9,0.2,2.7,0.6s1.4,1,1.8,1.8c0.4,0.8,0.6,1.7,0.6,2.7s-0.2,2-0.6,2.7c-0.4,0.8-1,1.4-1.8,1.8
				c-0.8,0.4-1.7,0.6-2.7,0.6C160.8,304,159.9,303.8,159.2,303.3z M163.7,301.2c0.4-0.5,0.6-1.3,0.6-2.4c0-1-0.2-1.8-0.6-2.4
				c-0.4-0.5-1.1-0.8-1.9-0.8c-0.8,0-1.4,0.3-1.9,0.8c-0.4,0.5-0.7,1.3-0.7,2.4c0,1.1,0.2,1.9,0.6,2.4c0.4,0.5,1.1,0.8,1.9,0.8
				C162.6,302,163.3,301.7,163.7,301.2z"/>
		</g>
	</g>
	<g>
		<polygon class="st4" points="303.8,292.7 327.9,322 351.2,291.8 327,262.5 		"/>
	</g>
</g>
<g>
	<g>
		<path class="st5" d="M235.6,185.1H32c-5.9,0-10.7,4.8-10.7,10.7v19.2c0,5.9,4.8,10.7,10.7,10.7h203.6c5.9,0,10.7-4.8,10.7-10.7
			v-19.2C246.3,189.9,241.5,185.1,235.6,185.1z"/>
	</g>
	<g>
		<g>
			<path class="st2" d="M95.2,204.5c0.2,0.2,0.3,0.4,0.3,0.8c0,0.4-0.1,0.6-0.3,0.8s-0.5,0.3-1,0.3l-0.6,0.1
				c-0.8,0.1-1.4,0.4-1.8,0.8c-0.4,0.5-0.6,1-0.6,1.7v4.3c0,0.4-0.1,0.7-0.4,0.9c-0.2,0.2-0.5,0.3-0.9,0.3c-0.4,0-0.7-0.1-0.9-0.3
				c-0.2-0.2-0.4-0.5-0.4-0.9v-7.8c0-0.4,0.1-0.7,0.4-0.9c0.2-0.2,0.5-0.3,0.9-0.3s0.6,0.1,0.9,0.3c0.2,0.2,0.3,0.5,0.3,0.8v0.8
				c0.3-0.6,0.6-1.1,1.1-1.4c0.5-0.3,1.1-0.5,1.7-0.5l0.3,0C94.8,204.3,95,204.3,95.2,204.5z"/>
			<path class="st2" d="M104.8,212c0.1,0.2,0.2,0.4,0.2,0.7c0,0.4-0.2,0.8-0.8,1.1c-0.5,0.3-1,0.5-1.6,0.6c-0.6,0.2-1.1,0.2-1.7,0.2
				c-1.6,0-2.9-0.5-3.8-1.4c-0.9-0.9-1.4-2.2-1.4-3.8c0-1,0.2-1.9,0.6-2.7c0.4-0.8,1-1.4,1.7-1.8c0.7-0.4,1.6-0.6,2.5-0.6
				c0.9,0,1.7,0.2,2.3,0.6c0.7,0.4,1.2,0.9,1.5,1.7c0.4,0.7,0.5,1.6,0.5,2.5c0,0.6-0.3,0.9-0.8,0.9h-6c0.1,0.9,0.3,1.6,0.8,2.1
				c0.4,0.4,1.1,0.7,1.9,0.7c0.4,0,0.8-0.1,1.1-0.2c0.3-0.1,0.7-0.3,1.1-0.4c0.4-0.2,0.7-0.3,0.9-0.3
				C104.5,211.7,104.7,211.8,104.8,212z M99.1,206.7c-0.4,0.4-0.7,1.1-0.7,1.9h4.6c0-0.8-0.2-1.5-0.6-1.9s-0.9-0.6-1.6-0.6
				C100.1,206,99.5,206.2,99.1,206.7z"/>
			<path class="st2" d="M109,213.9c-0.8-0.4-1.3-1-1.7-1.8c-0.4-0.8-0.6-1.7-0.6-2.7s0.2-1.9,0.6-2.7c0.4-0.8,1-1.4,1.8-1.8
				c0.8-0.4,1.7-0.6,2.7-0.6c0.5,0,1.1,0.1,1.6,0.2c0.5,0.1,1,0.4,1.4,0.6c0.4,0.3,0.6,0.6,0.6,1.1c0,0.3-0.1,0.5-0.2,0.7
				c-0.1,0.2-0.3,0.3-0.6,0.3c-0.1,0-0.3,0-0.5-0.1c-0.2-0.1-0.3-0.1-0.5-0.2c-0.3-0.2-0.6-0.3-0.9-0.4c-0.3-0.1-0.6-0.2-0.9-0.2
				c-0.8,0-1.5,0.3-1.9,0.8c-0.5,0.5-0.7,1.3-0.7,2.4c0,1,0.2,1.8,0.7,2.3c0.5,0.5,1.1,0.8,1.9,0.8c0.3,0,0.6-0.1,0.9-0.2
				c0.3-0.1,0.6-0.2,0.9-0.4c0.2-0.1,0.4-0.2,0.5-0.3c0.1-0.1,0.3-0.1,0.4-0.1c0.2,0,0.4,0.1,0.5,0.3c0.1,0.2,0.2,0.4,0.2,0.7
				c0,0.2-0.1,0.4-0.2,0.6c-0.1,0.2-0.3,0.3-0.5,0.5c-0.4,0.3-0.9,0.5-1.5,0.6s-1.1,0.2-1.7,0.2C110.6,214.6,109.7,214.4,109,213.9z
				"/>
			<path class="st2" d="M123.3,213.6c0,0.3-0.1,0.6-0.4,0.7c-0.3,0.2-0.6,0.2-1.1,0.2l-0.5,0c-2.3-0.2-3.4-1.4-3.4-3.7v-4.4h-1
				c-0.4,0-0.6-0.1-0.8-0.2c-0.2-0.2-0.3-0.4-0.3-0.7c0-0.3,0.1-0.5,0.3-0.7c0.2-0.2,0.5-0.2,0.8-0.2h1v-1.9c0-0.4,0.1-0.7,0.3-0.9
				c0.2-0.2,0.5-0.3,0.9-0.3c0.4,0,0.7,0.1,0.9,0.3c0.2,0.2,0.3,0.5,0.3,0.9v1.9h1.7c0.4,0,0.6,0.1,0.8,0.2c0.2,0.2,0.3,0.4,0.3,0.7
				c0,0.3-0.1,0.5-0.3,0.7c-0.2,0.2-0.5,0.2-0.8,0.2h-1.7v4.6c0,1,0.5,1.5,1.4,1.6l0.5,0C123,212.7,123.3,213,123.3,213.6z"/>
			<path class="st2" d="M132,205.3c0.7,0.7,1,1.7,1,3.1v4.9c0,0.4-0.1,0.7-0.3,0.9c-0.2,0.2-0.5,0.3-0.9,0.3c-0.4,0-0.6-0.1-0.9-0.3
				c-0.2-0.2-0.3-0.5-0.3-0.9v-0.4c-0.2,0.5-0.6,0.9-1.1,1.2c-0.5,0.3-1.1,0.4-1.7,0.4c-0.7,0-1.3-0.1-1.8-0.4
				c-0.5-0.3-1-0.6-1.3-1.1c-0.3-0.5-0.5-1-0.5-1.6c0-0.7,0.2-1.3,0.6-1.7c0.4-0.4,1-0.7,1.8-0.9c0.8-0.2,2-0.3,3.5-0.3h0.5v-0.5
				c0-0.7-0.1-1.1-0.4-1.5c-0.3-0.3-0.7-0.5-1.4-0.5c-0.4,0-0.8,0.1-1.2,0.2c-0.4,0.1-0.9,0.3-1.4,0.5c-0.4,0.2-0.6,0.3-0.8,0.3
				c-0.2,0-0.4-0.1-0.6-0.3s-0.2-0.4-0.2-0.7c0-0.2,0.1-0.4,0.2-0.6c0.1-0.2,0.3-0.3,0.6-0.5c0.5-0.3,1-0.5,1.7-0.6s1.3-0.2,1.9-0.2
				C130.3,204.2,131.3,204.6,132,205.3z M130,212.1c0.4-0.5,0.6-1,0.6-1.8v-0.4h-0.4c-0.9,0-1.6,0-2.1,0.1s-0.9,0.2-1.1,0.4
				c-0.2,0.2-0.3,0.5-0.3,0.8c0,0.4,0.2,0.8,0.5,1.1c0.3,0.3,0.7,0.4,1.1,0.4C129,212.7,129.5,212.5,130,212.1z M129,203.3
				c-0.2,0-0.3-0.1-0.5-0.2c-0.1-0.1-0.2-0.3-0.2-0.5c0-0.1,0.1-0.3,0.2-0.4l2-2.6c0.3-0.4,0.7-0.6,1.1-0.6c0.3,0,0.6,0.1,0.8,0.3
				c0.2,0.2,0.3,0.5,0.3,0.7c0,0.4-0.2,0.7-0.5,1l-2.6,2.1C129.3,203.2,129.1,203.3,129,203.3z"/>
			<path class="st2" d="M144,205.3c0.6,0.7,0.9,1.7,0.9,3.1v5c0,0.4-0.1,0.7-0.3,0.9c-0.2,0.2-0.5,0.3-0.9,0.3s-0.7-0.1-0.9-0.3
				c-0.2-0.2-0.3-0.5-0.3-0.9v-4.8c0-0.8-0.1-1.3-0.4-1.7c-0.3-0.4-0.7-0.5-1.4-0.5c-0.7,0-1.3,0.2-1.8,0.7s-0.7,1.1-0.7,1.8v4.5
				c0,0.4-0.1,0.7-0.3,0.9c-0.2,0.2-0.5,0.3-0.9,0.3c-0.4,0-0.7-0.1-0.9-0.3c-0.2-0.2-0.3-0.5-0.3-0.9v-7.8c0-0.4,0.1-0.6,0.3-0.9
				c0.2-0.2,0.5-0.3,0.9-0.3c0.4,0,0.6,0.1,0.9,0.3c0.2,0.2,0.3,0.5,0.3,0.8v0.5c0.3-0.6,0.8-1,1.4-1.3c0.6-0.3,1.2-0.4,1.9-0.4
				C142.5,204.2,143.4,204.6,144,205.3z"/>
			<path class="st2" d="M156.8,204.6c0.2,0.2,0.3,0.5,0.3,0.9v8c0,1.6-0.4,2.7-1.3,3.5c-0.9,0.8-2.1,1.2-3.8,1.2
				c-1.5,0-2.7-0.3-3.7-0.8c-0.5-0.3-0.8-0.7-0.8-1.1c0-0.3,0.1-0.5,0.2-0.7s0.3-0.3,0.6-0.3c0.1,0,0.3,0,0.4,0.1
				c0.2,0.1,0.4,0.1,0.5,0.2c0.5,0.2,0.9,0.4,1.3,0.5c0.4,0.1,0.8,0.2,1.3,0.2c1.8,0,2.7-0.9,2.7-2.6v-1.3c-0.3,0.6-0.7,1-1.3,1.3
				s-1.2,0.5-1.9,0.5c-0.9,0-1.6-0.2-2.3-0.6s-1.2-1-1.6-1.7s-0.6-1.6-0.6-2.6s0.2-1.8,0.6-2.6c0.4-0.8,0.9-1.3,1.6-1.7
				c0.7-0.4,1.4-0.6,2.3-0.6c0.7,0,1.4,0.2,1.9,0.5s1,0.7,1.3,1.3v-0.5c0-0.4,0.1-0.6,0.3-0.9c0.2-0.2,0.5-0.3,0.9-0.3
				C156.2,204.3,156.5,204.4,156.8,204.6z M153.9,211.4c0.5-0.5,0.7-1.3,0.7-2.2c0-0.9-0.2-1.7-0.7-2.2c-0.5-0.5-1.1-0.8-1.9-0.8
				c-0.8,0-1.4,0.3-1.9,0.8c-0.5,0.5-0.7,1.3-0.7,2.2c0,0.9,0.2,1.6,0.7,2.2c0.5,0.5,1.1,0.8,1.9,0.8
				C152.8,212.2,153.5,211.9,153.9,211.4z"/>
			<path class="st2" d="M168.5,204.6c0.2,0.2,0.3,0.5,0.3,0.9v7.9c0,0.4-0.1,0.6-0.4,0.9c-0.2,0.2-0.5,0.3-0.9,0.3
				c-0.4,0-0.7-0.1-0.9-0.3c-0.2-0.2-0.3-0.5-0.3-0.8v-0.5c-0.3,0.5-0.7,1-1.3,1.2s-1.1,0.4-1.8,0.4c-2.4,0-3.7-1.4-3.7-4.1v-5
				c0-0.4,0.1-0.7,0.3-0.9c0.2-0.2,0.5-0.3,0.9-0.3c0.4,0,0.7,0.1,0.9,0.3c0.2,0.2,0.3,0.5,0.3,0.9v5c0,0.7,0.1,1.2,0.4,1.6
				c0.3,0.3,0.7,0.5,1.3,0.5c0.7,0,1.3-0.2,1.7-0.7c0.4-0.5,0.6-1.1,0.6-1.9v-4.5c0-0.4,0.1-0.7,0.3-0.9c0.2-0.2,0.5-0.3,0.9-0.3
				C167.9,204.3,168.3,204.4,168.5,204.6z"/>
			<path class="st2" d="M171.8,214.2c-0.2-0.2-0.4-0.5-0.4-0.9v-12.1c0-0.4,0.1-0.7,0.4-0.9c0.2-0.2,0.5-0.3,0.9-0.3
				c0.4,0,0.7,0.1,0.9,0.3c0.2,0.2,0.4,0.5,0.4,0.9v12.1c0,0.4-0.1,0.7-0.4,0.9c-0.2,0.2-0.5,0.3-0.9,0.3
				C172.4,214.5,172.1,214.4,171.8,214.2z"/>
			<path class="st2" d="M178.5,213.9c-0.8-0.4-1.4-1-1.8-1.8c-0.4-0.8-0.6-1.7-0.6-2.7c0-1,0.2-1.9,0.6-2.7c0.4-0.8,1-1.4,1.8-1.8
				c0.8-0.4,1.7-0.6,2.7-0.6c1,0,1.9,0.2,2.7,0.6c0.8,0.4,1.4,1,1.8,1.8c0.4,0.8,0.6,1.7,0.6,2.7c0,1-0.2,2-0.6,2.7
				c-0.4,0.8-1,1.4-1.8,1.8s-1.7,0.6-2.7,0.6C180.1,214.6,179.2,214.4,178.5,213.9z M183,211.8c0.4-0.5,0.6-1.3,0.6-2.4
				c0-1-0.2-1.8-0.6-2.4c-0.4-0.5-1.1-0.8-1.9-0.8c-0.8,0-1.4,0.3-1.9,0.8c-0.4,0.5-0.7,1.3-0.7,2.4c0,1.1,0.2,1.9,0.6,2.4
				c0.4,0.5,1.1,0.8,1.9,0.8C181.9,212.6,182.6,212.3,183,211.8z"/>
		</g>
	</g>
	<g>
		<rect x="282.2" y="177.8" class="st5" width="90.6" height="54.1"/>
	</g>
</g>
<g>
	<g>
		<path class="st6" d="M235.6,356.9H32c-5.9,0-10.7,4.8-10.7,10.7v19.2c0,5.9,4.8,10.7,10.7,10.7h203.6c5.9,0,10.7-4.8,10.7-10.7
			v-19.2C246.3,361.7,241.5,356.9,235.6,356.9z"/>
	</g>
	<g>
		<g>
			<path class="st2" d="M112.6,383.9c-0.8-0.4-1.3-1-1.7-1.8c-0.4-0.8-0.6-1.7-0.6-2.7s0.2-1.9,0.6-2.7c0.4-0.8,1-1.4,1.8-1.8
				c0.8-0.4,1.7-0.6,2.7-0.6c0.5,0,1.1,0.1,1.6,0.2c0.5,0.1,1,0.4,1.4,0.6c0.4,0.3,0.6,0.6,0.6,1.1c0,0.3-0.1,0.5-0.2,0.7
				s-0.3,0.3-0.6,0.3c-0.1,0-0.3,0-0.5-0.1c-0.2-0.1-0.3-0.1-0.5-0.2c-0.3-0.2-0.6-0.3-0.9-0.4s-0.6-0.2-0.9-0.2
				c-0.8,0-1.5,0.3-1.9,0.8s-0.7,1.3-0.7,2.4c0,1,0.2,1.8,0.7,2.3s1.1,0.8,1.9,0.8c0.3,0,0.6-0.1,0.9-0.2s0.6-0.2,0.9-0.4
				c0.2-0.1,0.4-0.2,0.5-0.3c0.1-0.1,0.3-0.1,0.4-0.1c0.2,0,0.4,0.1,0.5,0.3c0.1,0.2,0.2,0.4,0.2,0.7c0,0.2-0.1,0.4-0.2,0.6
				c-0.1,0.2-0.3,0.3-0.5,0.5c-0.4,0.3-0.9,0.5-1.5,0.6s-1.1,0.2-1.7,0.2C114.2,384.5,113.3,384.3,112.6,383.9z"/>
			<path class="st2" d="M121,384.2c-0.2-0.2-0.4-0.5-0.4-0.9v-7.8c0-0.4,0.1-0.7,0.4-0.9c0.2-0.2,0.5-0.3,0.9-0.3
				c0.4,0,0.7,0.1,0.9,0.3c0.2,0.2,0.4,0.5,0.4,0.9v7.8c0,0.4-0.1,0.7-0.4,0.9c-0.2,0.2-0.5,0.3-0.9,0.3
				C121.6,384.5,121.3,384.4,121,384.2z M122,373.2c-0.2,0-0.3-0.1-0.5-0.2c-0.1-0.1-0.2-0.3-0.2-0.5c0-0.1,0.1-0.3,0.2-0.4l2-2.6
				c0.3-0.4,0.7-0.6,1.1-0.6c0.3,0,0.6,0.1,0.8,0.3c0.2,0.2,0.3,0.5,0.3,0.7c0,0.4-0.2,0.7-0.5,1l-2.6,2.1
				C122.3,373.2,122.2,373.2,122,373.2z"/>
			<path class="st2" d="M132.2,374.5c0.2,0.2,0.3,0.4,0.3,0.8c0,0.4-0.1,0.6-0.3,0.8c-0.2,0.2-0.5,0.3-1,0.3l-0.6,0.1
				c-0.8,0.1-1.4,0.4-1.8,0.8c-0.4,0.5-0.6,1-0.6,1.7v4.3c0,0.4-0.1,0.7-0.4,0.9c-0.2,0.2-0.5,0.3-0.9,0.3c-0.4,0-0.7-0.1-0.9-0.3
				c-0.2-0.2-0.4-0.5-0.4-0.9v-7.8c0-0.4,0.1-0.7,0.4-0.9c0.2-0.2,0.5-0.3,0.9-0.3s0.6,0.1,0.9,0.3c0.2,0.2,0.3,0.5,0.3,0.8v0.8
				c0.3-0.6,0.6-1.1,1.1-1.4c0.5-0.3,1.1-0.5,1.7-0.5l0.3,0C131.7,374.2,132,374.3,132.2,374.5z"/>
			<path class="st2" d="M135.2,383.9c-0.8-0.4-1.3-1-1.7-1.8c-0.4-0.8-0.6-1.7-0.6-2.7s0.2-1.9,0.6-2.7c0.4-0.8,1-1.4,1.8-1.8
				c0.8-0.4,1.7-0.6,2.7-0.6c0.5,0,1.1,0.1,1.6,0.2c0.5,0.1,1,0.4,1.4,0.6c0.4,0.3,0.6,0.6,0.6,1.1c0,0.3-0.1,0.5-0.2,0.7
				s-0.3,0.3-0.6,0.3c-0.1,0-0.3,0-0.5-0.1c-0.2-0.1-0.3-0.1-0.5-0.2c-0.3-0.2-0.6-0.3-0.9-0.4s-0.6-0.2-0.9-0.2
				c-0.8,0-1.5,0.3-1.9,0.8s-0.7,1.3-0.7,2.4c0,1,0.2,1.8,0.7,2.3s1.1,0.8,1.9,0.8c0.3,0,0.6-0.1,0.9-0.2s0.6-0.2,0.9-0.4
				c0.2-0.1,0.4-0.2,0.5-0.3c0.1-0.1,0.3-0.1,0.4-0.1c0.2,0,0.4,0.1,0.5,0.3c0.1,0.2,0.2,0.4,0.2,0.7c0,0.2-0.1,0.4-0.2,0.6
				c-0.1,0.2-0.3,0.3-0.5,0.5c-0.4,0.3-0.9,0.5-1.5,0.6s-1.1,0.2-1.7,0.2C136.8,384.5,135.9,384.3,135.2,383.9z"/>
			<path class="st2" d="M152.1,374.6c0.2,0.2,0.3,0.5,0.3,0.9v7.9c0,0.4-0.1,0.6-0.4,0.9c-0.2,0.2-0.5,0.3-0.9,0.3
				c-0.4,0-0.7-0.1-0.9-0.3c-0.2-0.2-0.3-0.5-0.3-0.8v-0.5c-0.3,0.5-0.7,1-1.3,1.2c-0.5,0.3-1.1,0.4-1.8,0.4c-2.4,0-3.7-1.4-3.7-4.1
				v-5c0-0.4,0.1-0.7,0.3-0.9c0.2-0.2,0.5-0.3,0.9-0.3c0.4,0,0.7,0.1,0.9,0.3c0.2,0.2,0.3,0.5,0.3,0.9v5c0,0.7,0.1,1.2,0.4,1.6
				c0.3,0.3,0.7,0.5,1.3,0.5c0.7,0,1.3-0.2,1.7-0.7c0.4-0.5,0.6-1.1,0.6-1.9v-4.5c0-0.4,0.1-0.7,0.3-0.9c0.2-0.2,0.5-0.3,0.9-0.3
				C151.5,374.2,151.8,374.3,152.1,374.6z"/>
			<path class="st2" d="M155.4,384.2c-0.2-0.2-0.4-0.5-0.4-0.9v-12.1c0-0.4,0.1-0.7,0.4-0.9c0.2-0.2,0.5-0.3,0.9-0.3
				c0.4,0,0.7,0.1,0.9,0.3c0.2,0.2,0.4,0.5,0.4,0.9v12.1c0,0.4-0.1,0.7-0.4,0.9c-0.2,0.2-0.5,0.3-0.9,0.3
				C155.9,384.5,155.6,384.4,155.4,384.2z"/>
			<path class="st2" d="M162,383.9c-0.8-0.4-1.4-1-1.8-1.8c-0.4-0.8-0.6-1.7-0.6-2.7s0.2-2,0.6-2.7c0.4-0.8,1-1.4,1.8-1.8
				c0.8-0.4,1.7-0.6,2.7-0.6c1,0,1.9,0.2,2.7,0.6s1.4,1,1.8,1.8c0.4,0.8,0.6,1.7,0.6,2.7s-0.2,2-0.6,2.7c-0.4,0.8-1,1.4-1.8,1.8
				c-0.8,0.4-1.7,0.6-2.7,0.6C163.7,384.5,162.8,384.3,162,383.9z M166.6,381.7c0.4-0.5,0.6-1.3,0.6-2.4c0-1-0.2-1.8-0.6-2.4
				c-0.4-0.5-1.1-0.8-1.9-0.8c-0.8,0-1.4,0.3-1.9,0.8c-0.4,0.5-0.7,1.3-0.7,2.4c0,1.1,0.2,1.9,0.6,2.4c0.4,0.5,1.1,0.8,1.9,0.8
				C165.5,382.5,166.1,382.3,166.6,381.7z"/>
		</g>
	</g>
	<g>
		<circle class="st6" cx="326.6" cy="378.7" r="28.2"/>
	</g>
</g>
<g>
	<path class="st7" d="M235.6,450.3H32c-5.9,0-10.7,4.8-10.7,10.7v19.2c0,5.9,4.8,10.7,10.7,10.7h203.6c5.9,0,10.7-4.8,10.7-10.7
		v-19.2C246.3,455.2,241.5,450.3,235.6,450.3z"/>
	<g>
		<g>
			<path class="st2" d="M98.9,468.9c0.7,0.4,1.2,1,1.6,1.8c0.4,0.8,0.6,1.7,0.6,2.7s-0.2,1.9-0.6,2.7c-0.4,0.8-0.9,1.4-1.6,1.8
				c-0.7,0.4-1.4,0.6-2.3,0.6c-0.7,0-1.3-0.1-1.9-0.4c-0.6-0.3-1-0.7-1.3-1.2v4.1c0,0.4-0.1,0.6-0.3,0.8c-0.2,0.2-0.5,0.3-0.9,0.3
				s-0.7-0.1-0.9-0.3c-0.2-0.2-0.4-0.5-0.4-0.9v-11.5c0-0.4,0.1-0.7,0.3-0.9c0.2-0.2,0.5-0.3,0.9-0.3s0.7,0.1,0.9,0.3
				c0.2,0.2,0.3,0.5,0.3,0.9v0.5c0.3-0.6,0.7-1,1.3-1.3c0.6-0.3,1.2-0.5,1.9-0.5C97.5,468.2,98.3,468.4,98.9,468.9z M97.9,475.8
				c0.4-0.5,0.7-1.3,0.7-2.3c0-1-0.2-1.8-0.7-2.4c-0.4-0.6-1.1-0.9-1.9-0.9c-0.8,0-1.4,0.3-1.9,0.8s-0.7,1.3-0.7,2.4
				c0,1,0.2,1.8,0.7,2.4c0.4,0.6,1.1,0.8,1.9,0.8C96.8,476.6,97.4,476.3,97.9,475.8z"/>
			<path class="st2" d="M111.6,475.9c0.1,0.2,0.2,0.4,0.2,0.7c0,0.4-0.2,0.8-0.8,1.1c-0.5,0.3-1,0.5-1.6,0.6
				c-0.6,0.2-1.1,0.2-1.7,0.2c-1.6,0-2.9-0.5-3.8-1.4c-0.9-0.9-1.4-2.2-1.4-3.8c0-1,0.2-1.9,0.6-2.7c0.4-0.8,1-1.4,1.7-1.8
				c0.7-0.4,1.6-0.6,2.5-0.6c0.9,0,1.7,0.2,2.3,0.6c0.7,0.4,1.2,0.9,1.5,1.7c0.4,0.7,0.5,1.6,0.5,2.5c0,0.6-0.3,0.9-0.8,0.9h-6
				c0.1,0.9,0.3,1.6,0.8,2.1c0.4,0.4,1.1,0.7,1.9,0.7c0.4,0,0.8-0.1,1.1-0.2c0.3-0.1,0.7-0.3,1.1-0.4c0.4-0.2,0.7-0.3,0.9-0.3
				C111.2,475.7,111.4,475.7,111.6,475.9z M105.8,470.7c-0.4,0.4-0.7,1.1-0.7,1.9h4.6c0-0.8-0.2-1.4-0.6-1.9
				c-0.4-0.4-0.9-0.6-1.6-0.6C106.8,470,106.3,470.2,105.8,470.7z"/>
			<path class="st2" d="M122.3,469.2c0.6,0.7,0.9,1.7,0.9,3.1v5c0,0.4-0.1,0.7-0.3,0.9c-0.2,0.2-0.5,0.3-0.9,0.3s-0.7-0.1-0.9-0.3
				c-0.2-0.2-0.3-0.5-0.3-0.9v-4.8c0-0.8-0.1-1.3-0.4-1.7s-0.7-0.5-1.4-0.5c-0.7,0-1.3,0.2-1.8,0.7s-0.7,1.1-0.7,1.8v4.5
				c0,0.4-0.1,0.7-0.3,0.9c-0.2,0.2-0.5,0.3-0.9,0.3c-0.4,0-0.7-0.1-0.9-0.3c-0.2-0.2-0.3-0.5-0.3-0.9v-7.8c0-0.4,0.1-0.6,0.3-0.9
				c0.2-0.2,0.5-0.3,0.9-0.3c0.4,0,0.6,0.1,0.9,0.3c0.2,0.2,0.3,0.5,0.3,0.8v0.5c0.3-0.6,0.8-1,1.4-1.3c0.6-0.3,1.2-0.4,1.9-0.4
				C120.9,468.2,121.8,468.6,122.3,469.2z"/>
			<path class="st2" d="M131.9,477.5c0,0.3-0.1,0.6-0.4,0.7s-0.6,0.2-1.1,0.2l-0.5,0c-2.3-0.2-3.4-1.4-3.4-3.7v-4.4h-1
				c-0.4,0-0.6-0.1-0.8-0.2c-0.2-0.2-0.3-0.4-0.3-0.7c0-0.3,0.1-0.5,0.3-0.7c0.2-0.2,0.5-0.2,0.8-0.2h1v-1.9c0-0.4,0.1-0.7,0.3-0.9
				c0.2-0.2,0.5-0.3,0.9-0.3c0.4,0,0.7,0.1,0.9,0.3c0.2,0.2,0.3,0.5,0.3,0.9v1.9h1.7c0.4,0,0.6,0.1,0.8,0.2c0.2,0.2,0.3,0.4,0.3,0.7
				c0,0.3-0.1,0.5-0.3,0.7c-0.2,0.2-0.5,0.2-0.8,0.2H129v4.6c0,1,0.5,1.5,1.4,1.6l0.5,0C131.6,476.7,131.9,477,131.9,477.5z"/>
			<path class="st2" d="M140.6,469.2c0.7,0.7,1,1.7,1,3.1v4.9c0,0.4-0.1,0.7-0.3,0.9s-0.5,0.3-0.9,0.3c-0.4,0-0.6-0.1-0.9-0.3
				c-0.2-0.2-0.3-0.5-0.3-0.9v-0.4c-0.2,0.5-0.6,0.9-1.1,1.2c-0.5,0.3-1.1,0.4-1.7,0.4c-0.7,0-1.3-0.1-1.8-0.4
				c-0.5-0.3-1-0.6-1.3-1.1c-0.3-0.5-0.5-1-0.5-1.6c0-0.7,0.2-1.3,0.6-1.7c0.4-0.4,1-0.7,1.8-0.9c0.8-0.2,2-0.3,3.5-0.3h0.5v-0.5
				c0-0.7-0.1-1.1-0.4-1.5c-0.3-0.3-0.7-0.5-1.4-0.5c-0.4,0-0.8,0.1-1.2,0.2c-0.4,0.1-0.9,0.3-1.4,0.5c-0.4,0.2-0.6,0.3-0.8,0.3
				c-0.2,0-0.4-0.1-0.6-0.3s-0.2-0.4-0.2-0.7c0-0.2,0.1-0.4,0.2-0.6c0.1-0.2,0.3-0.3,0.6-0.5c0.5-0.3,1-0.5,1.7-0.6
				c0.7-0.1,1.3-0.2,1.9-0.2C138.9,468.2,140,468.6,140.6,469.2z M138.6,476c0.4-0.5,0.6-1,0.6-1.8v-0.4h-0.4c-0.9,0-1.6,0-2.1,0.1
				s-0.9,0.2-1.1,0.4c-0.2,0.2-0.3,0.5-0.3,0.8c0,0.4,0.2,0.8,0.5,1.1c0.3,0.3,0.7,0.4,1.1,0.4C137.6,476.7,138.2,476.5,138.6,476z
				 M137.6,467.3c-0.2,0-0.3-0.1-0.5-0.2c-0.1-0.1-0.2-0.3-0.2-0.5c0-0.1,0.1-0.3,0.2-0.4l2-2.6c0.3-0.4,0.7-0.6,1.1-0.6
				c0.3,0,0.6,0.1,0.8,0.3c0.2,0.2,0.3,0.5,0.3,0.7c0,0.4-0.2,0.7-0.5,1l-2.6,2.1C137.9,467.2,137.8,467.3,137.6,467.3z"/>
			<path class="st2" d="M153.5,468.6c0.2,0.2,0.3,0.5,0.3,0.9v8c0,1.6-0.4,2.7-1.3,3.5s-2.1,1.2-3.8,1.2c-1.5,0-2.7-0.3-3.7-0.8
				c-0.5-0.3-0.8-0.7-0.8-1.1c0-0.3,0.1-0.5,0.2-0.7s0.3-0.3,0.6-0.3c0.1,0,0.3,0,0.4,0.1c0.2,0.1,0.4,0.1,0.5,0.2
				c0.5,0.2,0.9,0.4,1.3,0.5s0.8,0.2,1.3,0.2c1.8,0,2.7-0.9,2.7-2.6v-1.3c-0.3,0.6-0.7,1-1.3,1.3c-0.6,0.3-1.2,0.5-1.9,0.5
				c-0.9,0-1.6-0.2-2.3-0.6s-1.2-1-1.6-1.7c-0.4-0.7-0.6-1.6-0.6-2.6s0.2-1.8,0.6-2.6c0.4-0.8,0.9-1.3,1.6-1.7
				c0.7-0.4,1.4-0.6,2.3-0.6c0.7,0,1.4,0.2,1.9,0.5c0.6,0.3,1,0.7,1.3,1.3v-0.5c0-0.4,0.1-0.6,0.3-0.9c0.2-0.2,0.5-0.3,0.9-0.3
				C153,468.3,153.3,468.4,153.5,468.6z M150.7,475.3c0.5-0.5,0.7-1.2,0.7-2.2c0-0.9-0.2-1.7-0.7-2.2c-0.5-0.5-1.1-0.8-1.9-0.8
				c-0.8,0-1.4,0.3-1.9,0.8c-0.5,0.5-0.7,1.3-0.7,2.2c0,0.9,0.2,1.6,0.7,2.2c0.5,0.5,1.1,0.8,1.9,0.8
				C149.6,476.1,150.2,475.9,150.7,475.3z"/>
			<path class="st2" d="M158.3,477.9c-0.8-0.4-1.4-1-1.8-1.8c-0.4-0.8-0.6-1.7-0.6-2.7s0.2-2,0.6-2.7c0.4-0.8,1-1.4,1.8-1.8
				c0.8-0.4,1.7-0.6,2.7-0.6c1,0,1.9,0.2,2.7,0.6s1.4,1,1.8,1.8c0.4,0.8,0.6,1.7,0.6,2.7s-0.2,2-0.6,2.7c-0.4,0.8-1,1.4-1.8,1.8
				c-0.8,0.4-1.7,0.6-2.7,0.6C160,478.5,159.1,478.3,158.3,477.9z M162.9,475.8c0.4-0.5,0.6-1.3,0.6-2.4c0-1-0.2-1.8-0.6-2.4
				c-0.4-0.5-1.1-0.8-1.9-0.8c-0.8,0-1.4,0.3-1.9,0.8c-0.4,0.5-0.7,1.3-0.7,2.4c0,1.1,0.2,1.9,0.6,2.4c0.4,0.5,1.1,0.8,1.9,0.8
				C161.8,476.6,162.4,476.3,162.9,475.8z"/>
			<path class="st2" d="M176.6,469.2c0.6,0.7,0.9,1.7,0.9,3.1v5c0,0.4-0.1,0.7-0.3,0.9c-0.2,0.2-0.5,0.3-0.9,0.3s-0.7-0.1-0.9-0.3
				c-0.2-0.2-0.3-0.5-0.3-0.9v-4.8c0-0.8-0.1-1.3-0.4-1.7s-0.7-0.5-1.4-0.5c-0.7,0-1.3,0.2-1.8,0.7s-0.7,1.1-0.7,1.8v4.5
				c0,0.4-0.1,0.7-0.3,0.9c-0.2,0.2-0.5,0.3-0.9,0.3c-0.4,0-0.7-0.1-0.9-0.3c-0.2-0.2-0.3-0.5-0.3-0.9v-7.8c0-0.4,0.1-0.6,0.3-0.9
				c0.2-0.2,0.5-0.3,0.9-0.3c0.4,0,0.6,0.1,0.9,0.3c0.2,0.2,0.3,0.5,0.3,0.8v0.5c0.3-0.6,0.8-1,1.4-1.3c0.6-0.3,1.2-0.4,1.9-0.4
				C175.1,468.2,176,468.6,176.6,469.2z"/>
			<path class="st2" d="M181.9,477.9c-0.8-0.4-1.4-1-1.8-1.8c-0.4-0.8-0.6-1.7-0.6-2.7s0.2-2,0.6-2.7c0.4-0.8,1-1.4,1.8-1.8
				c0.8-0.4,1.7-0.6,2.7-0.6c1,0,1.9,0.2,2.7,0.6s1.4,1,1.8,1.8c0.4,0.8,0.6,1.7,0.6,2.7s-0.2,2-0.6,2.7c-0.4,0.8-1,1.4-1.8,1.8
				c-0.8,0.4-1.7,0.6-2.7,0.6C183.5,478.5,182.6,478.3,181.9,477.9z M186.4,475.8c0.4-0.5,0.6-1.3,0.6-2.4c0-1-0.2-1.8-0.6-2.4
				c-0.4-0.5-1.1-0.8-1.9-0.8c-0.8,0-1.4,0.3-1.9,0.8c-0.4,0.5-0.7,1.3-0.7,2.4c0,1.1,0.2,1.9,0.6,2.4c0.4,0.5,1.1,0.8,1.9,0.8
				C185.3,476.6,186,476.3,186.4,475.8z"/>
		</g>
	</g>
	<polygon class="st7" points="328,433.2 295.5,456.8 308,495 348.1,495 360.6,456.8 	"/>
</g>
</svg>
