<?xml version="1.0" encoding="utf-8"?>
<!-- Generator: Adobe Illustrator 22.0.1, SVG Export Plug-In . SVG Version: 6.00 Build 0)  -->
<svg version="1.1" xmlns="http://www.w3.org/2000/svg" xmlns:xlink="http://www.w3.org/1999/xlink" x="0px" y="0px"
	 viewBox="0 0 336.7 400" style="enable-background:new 0 0 336.7 400;" xml:space="preserve">
<style type="text/css">
	.st0{display:none;}
	.st1{display:inline;fill:#EBD2AF;}
	.st2{display:inline;fill:#CEA57C;}
	.st3{display:inline;fill:#E1C3A0;}
	.st4{display:inline;fill:#F0DCBE;}
	.st5{display:inline;fill:#C49A69;}
	.st6{display:inline;}
	.st7{fill:#FADC3C;}
	.st8{fill:#FFFFFF;}
	.st9{fill:#A5D73C;}
	.st10{fill:#00CDC8;}
	.st11{fill:#F24044;}
</style>
<g id="Layer_1" class="st0">
	<path class="st1" d="M269.1,192.3H66.9c-4.3,0-7.8-3.5-7.8-7.8V55h217.8v129.6C276.9,188.9,273.4,192.3,269.1,192.3z"/>
	<path class="st2" d="M259.1,182.3H76.9c-4.3,0-7.8-3.5-7.8-7.8V55h197.8v119.6C266.9,178.9,263.4,182.3,259.1,182.3z"/>
	<rect x="59.1" y="55" class="st3" width="217.8" height="11.7"/>
	<path class="st4" d="M276.9,58.9H59.1c-2.1,0-3.9-1.7-3.9-3.9V37.8c0-4.3,3.5-7.8,7.8-7.8h210c4.3,0,7.8,3.5,7.8,7.8V55
		C280.8,57.1,279,58.9,276.9,58.9z"/>
	<path class="st5" d="M69.1,174.6l24.2-15.9h155.3l18.7,16.7c0,0-0.8,7-8.2,7c-7.4,0-182.2,0-182.2,0S69.1,182.4,69.1,174.6z"/>
	<g class="st6">
		<g>
			<circle class="st7" cx="232.7" cy="95.4" r="19.3"/>
			<path class="st8" d="M232.7,77.2c10.1,0,18.3,8.2,18.3,18.3s-8.2,18.3-18.3,18.3c-10.1,0-18.3-8.2-18.3-18.3
				S222.7,77.2,232.7,77.2 M232.7,75.2c-11.2,0-20.3,9.1-20.3,20.3s9.1,20.3,20.3,20.3s20.3-9.1,20.3-20.3S243.9,75.2,232.7,75.2
				L232.7,75.2z"/>
		</g>
		<g>
			<path class="st9" d="M163.2,178.2c-10.6,0-19.3-8.6-19.3-19.3s8.6-19.3,19.3-19.3c10.6,0,19.3,8.6,19.3,19.3
				S173.9,178.2,163.2,178.2z"/>
			<path class="st8" d="M163.2,140.7c10.1,0,18.3,8.2,18.3,18.3s-8.2,18.3-18.3,18.3c-10.1,0-18.3-8.2-18.3-18.3
				S153.2,140.7,163.2,140.7 M163.2,138.7c-11.2,0-20.3,9.1-20.3,20.3c0,11.2,9.1,20.3,20.3,20.3s20.3-9.1,20.3-20.3
				C183.5,147.8,174.4,138.7,163.2,138.7L163.2,138.7z"/>
		</g>
		<g>
			<path class="st10" d="M87.3,168.9c-0.6,0-1-0.4-1-1v-26.7c0-0.6,0.4-1,1-1H114c0.6,0,1,0.4,1,1v26.7c0,0.6-0.4,1-1,1H87.3z"/>
			<path class="st8" d="M114,141.2v26.7H87.3v-26.7H114 M114,139.2H87.3c-1.1,0-2,0.9-2,2v26.7c0,1.1,0.9,2,2,2H114c1.1,0,2-0.9,2-2
				v-26.7C116,140.1,115.1,139.2,114,139.2L114,139.2z"/>
		</g>
		<g>
			<path class="st7" d="M123.9,137.9c-0.6,0-1-0.4-1-1v-26.7c0-0.6,0.4-1,1-1h26.7c0.6,0,1,0.4,1,1v26.7c0,0.6-0.4,1-1,1H123.9z"/>
			<path class="st8" d="M150.6,110.2v26.7h-26.7v-26.7H150.6 M150.6,108.2h-26.7c-1.1,0-2,0.9-2,2v26.7c0,1.1,0.9,2,2,2h26.7
				c1.1,0,2-0.9,2-2v-26.7C152.6,109.1,151.7,108.2,150.6,108.2L150.6,108.2z"/>
		</g>
		<g>
			<path class="st11" d="M94.6,112.8c-0.2,0-0.3,0-0.5-0.1c-0.3-0.2-0.5-0.5-0.5-0.9V79c0-0.4,0.2-0.7,0.5-0.9
				c0.2-0.1,0.3-0.1,0.5-0.1s0.3,0,0.5,0.1l28.4,16.4c0.3,0.2,0.5,0.5,0.5,0.9s-0.2,0.7-0.5,0.9l-28.4,16.4
				C94.9,112.8,94.7,112.8,94.6,112.8z"/>
			<path class="st8" d="M94.6,79L123,95.4l-28.4,16.4V79 M94.6,77c-0.3,0-0.7,0.1-1,0.3c-0.6,0.4-1,1-1,1.7v32.8
				c0,0.7,0.4,1.4,1,1.7c0.3,0.2,0.7,0.3,1,0.3c0.3,0,0.7-0.1,1-0.3L124,97.2c0.6-0.4,1-1,1-1.7s-0.4-1.4-1-1.7L95.6,77.3
				C95.2,77.1,94.9,77,94.6,77L94.6,77z"/>
		</g>
		<g>
			<path class="st9" d="M174.8,109.4c-0.2,0-0.3,0-0.5-0.1l-28.4-16.4c-0.3-0.2-0.5-0.5-0.5-0.9s0.2-0.7,0.5-0.9l28.4-16.4
				c0.2-0.1,0.3-0.1,0.5-0.1s0.3,0,0.5,0.1c0.3,0.2,0.5,0.5,0.5,0.9v32.8c0,0.4-0.2,0.7-0.5,0.9C175.2,109.4,175,109.4,174.8,109.4z
				"/>
			<path class="st8" d="M174.8,75.6v32.8L146.4,92L174.8,75.6 M174.8,73.6c-0.3,0-0.7,0.1-1,0.3l-28.4,16.4c-0.6,0.4-1,1-1,1.7
				s0.4,1.4,1,1.7l28.4,16.4c0.3,0.2,0.7,0.3,1,0.3c0.3,0,0.7-0.1,1-0.3c0.6-0.4,1-1,1-1.7V75.6c0-0.7-0.4-1.4-1-1.7
				C175.5,73.7,175.2,73.6,174.8,73.6L174.8,73.6z"/>
		</g>
		<g>
			<path class="st11" d="M220.3,170.9c-0.6,0-1-0.4-1-1V128c0-0.6,0.4-1,1-1h26.7c0.6,0,1,0.4,1,1v41.9c0,0.6-0.4,1-1,1H220.3z"/>
			<path class="st8" d="M247.1,128v41.9h-26.7V128H247.1 M247.1,126h-26.7c-1.1,0-2,0.9-2,2v41.9c0,1.1,0.9,2,2,2h26.7
				c1.1,0,2-0.9,2-2V128C249.1,126.9,248.2,126,247.1,126L247.1,126z"/>
		</g>
		<g>
			<path class="st10" d="M187.7,150.3c-0.6,0-1-0.4-1-1V113c0-0.6,0.4-1,1-1h23.1c0.6,0,1,0.4,1,1v36.3c0,0.6-0.4,1-1,1H187.7z"/>
			<path class="st8" d="M210.8,113v36.3h-23.1V113H210.8 M210.8,111h-23.1c-1.1,0-2,0.9-2,2v36.3c0,1.1,0.9,2,2,2h23.1
				c1.1,0,2-0.9,2-2V113C212.8,111.9,211.9,111,210.8,111L210.8,111z"/>
		</g>
	</g>
	<path class="st1" d="M269.1,375H66.9c-4.3,0-7.8-3.5-7.8-7.8V237.7h217.8v129.6C276.9,371.5,273.4,375,269.1,375z"/>
	<path class="st2" d="M259.1,365H76.9c-4.3,0-7.8-3.5-7.8-7.8V237.7h197.8v119.6C266.9,361.5,263.4,365,259.1,365z"/>
	<rect x="59.1" y="237.7" class="st3" width="217.8" height="11.7"/>
	<path class="st4" d="M276.9,241.6H59.1c-2.1,0-3.9-1.7-3.9-3.9v-17.2c0-4.3,3.5-7.8,7.8-7.8h210c4.3,0,7.8,3.5,7.8,7.8v17.2
		C280.8,239.8,279,241.6,276.9,241.6z"/>
	<path class="st5" d="M69.1,357.2l24.2-15.9h155.3l18.7,16.7c0,0-0.8,7-8.2,7c-7.4,0-182.2,0-182.2,0S69.1,365.1,69.1,357.2z"/>
	<g class="st6">
		<g>
			<circle class="st7" cx="193" cy="339" r="19.3"/>
			<path class="st8" d="M193,320.7c10.1,0,18.3,8.2,18.3,18.3s-8.2,18.3-18.3,18.3c-10.1,0-18.3-8.2-18.3-18.3
				S182.9,320.7,193,320.7 M193,318.7c-11.2,0-20.3,9.1-20.3,20.3s9.1,20.3,20.3,20.3s20.3-9.1,20.3-20.3S204.2,318.7,193,318.7
				L193,318.7z"/>
		</g>
		<g>
			<path class="st10" d="M135,300c-0.6,0-1-0.4-1-1v-26.7c0-0.6,0.4-1,1-1h26.7c0.6,0,1,0.4,1,1V299c0,0.6-0.4,1-1,1H135z"/>
			<path class="st8" d="M161.7,272.3V299H135v-26.7H161.7 M161.7,270.3H135c-1.1,0-2,0.9-2,2V299c0,1.1,0.9,2,2,2h26.7
				c1.1,0,2-0.9,2-2v-26.7C163.7,271.2,162.8,270.3,161.7,270.3L161.7,270.3z"/>
		</g>
		<g>
			<path class="st10" d="M220.9,354.9c-0.6,0-1-0.4-1-1v-23.1c0-0.6,0.4-1,1-1h36.3c0.6,0,1,0.4,1,1v23.1c0,0.6-0.4,1-1,1H220.9z"/>
			<path class="st8" d="M257.1,330.8v23.1h-36.3v-23.1H257.1 M257.1,328.8h-36.3c-1.1,0-2,0.9-2,2v23.1c0,1.1,0.9,2,2,2h36.3
				c1.1,0,2-0.9,2-2v-23.1C259.1,329.7,258.3,328.8,257.1,328.8L257.1,328.8z"/>
		</g>
		<g>
			<path class="st11" d="M82.1,356c-0.6,0-1-0.4-1-1v-26.7c0-0.6,0.4-1,1-1h41.9c0.6,0,1,0.4,1,1V355c0,0.6-0.4,1-1,1H82.1z"/>
			<path class="st8" d="M123.9,328.3V355H82.1v-26.7H123.9 M123.9,326.3H82.1c-1.1,0-2,0.9-2,2V355c0,1.1,0.9,2,2,2h41.9
				c1.1,0,2-0.9,2-2v-26.7C125.9,327.2,125.1,326.3,123.9,326.3L123.9,326.3z"/>
		</g>
		<g>
			<path class="st9" d="M239,312.3c-0.4,0-0.7-0.2-0.9-0.5l-16.4-28.4c-0.2-0.3-0.2-0.7,0-1s0.5-0.5,0.9-0.5h32.8
				c0.4,0,0.7,0.2,0.9,0.5s0.2,0.7,0,1l-16.4,28.4C239.7,312.1,239.3,312.3,239,312.3z"/>
			<path class="st8" d="M255.4,282.8L255.4,282.8 M255.4,282.8L239,311.3l-16.4-28.4H255.4 M255.4,280.8L255.4,280.8h-32.8
				c-0.7,0-1.4,0.4-1.7,1c-0.4,0.6-0.4,1.4,0,2l16.4,28.4c0.4,0.6,1,1,1.7,1s1.4-0.4,1.7-1l16.4-28.4c0.2-0.3,0.3-0.7,0.3-1.1
				C257.4,281.7,256.5,280.8,255.4,280.8L255.4,280.8z M255.4,284.8L255.4,284.8L255.4,284.8L255.4,284.8z"/>
		</g>
	</g>
</g>
<g id="Layer_2">
	<g>
		<path class="st11" d="M176,303c-0.4,0-0.7-0.2-0.9-0.5s-0.2-0.7,0-1l16.4-28.4c0.2-0.3,0.5-0.5,0.9-0.5s0.7,0.2,0.9,0.5l16.4,28.4
			c0.2,0.3,0.2,0.7,0,1s-0.5,0.5-0.9,0.5H176z"/>
		<path class="st8" d="M192.4,273.6l16.4,28.4H176L192.4,273.6 M192.4,271.6c-0.7,0-1.4,0.4-1.7,1L174.3,301c-0.4,0.6-0.4,1.4,0,2
			c0.4,0.6,1,1,1.7,1h32.8c0.7,0,1.4-0.4,1.7-1c0.4-0.6,0.4-1.4,0-2l-16.4-28.4C193.8,271.9,193.1,271.6,192.4,271.6L192.4,271.6z"
			/>
	</g>
</g>
</svg>
