<?xml version="1.0" encoding="utf-8"?>
<!-- Generator: Adobe Illustrator 22.0.1, SVG Export Plug-In . SVG Version: 6.00 Build 0)  -->
<svg version="1.1" id="Layer_1" xmlns="http://www.w3.org/2000/svg" xmlns:xlink="http://www.w3.org/1999/xlink" x="0px" y="0px"
	 viewBox="0 0 336.7 400" style="enable-background:new 0 0 336.7 400;" xml:space="preserve">
<style type="text/css">
	.st0{fill:#FFFFFF;}
	.st1{fill:#60025E;}
	.st2{fill:#FADC3C;}
	.st3{fill:#F86A00;}
	.st4{fill:#F24044;}
	.st5{fill:#00CDC8;}
	.st6{fill:#A5D73C;}
</style>
<g>
	<path class="st0" d="M76.8,348.6c-1,0-2-0.3-2.9-0.9c-1.8-1.3-2.5-3.5-1.9-5.6L105.6,236l-91.8-65.3c-1.8-1.3-2.5-3.5-1.9-5.6
		c0.7-2.1,2.6-3.5,4.7-3.5l112.7-0.8l33.5-106.9c0.6-2.1,2.6-3.5,4.7-3.5c0,0,0,0,0,0c2.2,0,4.1,1.4,4.7,3.4l35.6,106.9
		c0,0,112.1-1.2,112.1-1.2c2.1,0,4.1,1.4,4.7,3.4c0.7,2.1,0,4.3-1.8,5.6l-90.7,66.9L268,341.7c0.7,2.1,0,4.3-1.8,5.6
		c-0.9,0.7-1.9,1-3,1c-1,0-2-0.3-2.9-0.9l-91.8-65.7l-88.8,65.9C78.9,348.3,77.8,348.6,76.8,348.6z"/>
	<path class="st0" d="M167.6,55.4l36.8,110.4l115.7-1.2l-93.6,69.1l36.9,109.6l-94.6-67.7l-0.2-0.1l-91.7,68.1l34.7-109.5l-0.6-0.4
		l0,0l-94.3-67l116.3-0.9l0,0L167.6,55.4 M320,164.6L320,164.6 M167.6,45.4C167.5,45.4,167.5,45.4,167.6,45.4c-4.4,0-8.2,2.9-9.5,7
		l-32.4,103.4l-109,0.8c-4.3,0-8.2,2.9-9.5,7c-1.3,4.1,0.2,8.6,3.7,11.2L99.8,238L67.3,340.6c-1.3,4.1,0.2,8.6,3.7,11.2
		c1.7,1.2,3.8,1.9,5.8,1.9c2.1,0,4.2-0.7,6-2l85.8-63.7l88.9,63.6c1.7,1.2,3.8,1.9,5.8,1.9c2.1,0,4.2-0.7,5.9-2
		c3.5-2.6,4.9-7.1,3.5-11.2l-34.6-102.7l87.6-64.7c2.5-1.8,4.2-4.8,4.2-8.1c0-5.5-4.5-10-10-10h0c0,0-0.1,0-0.1,0l-108.4,1.1
		L177.1,52.3C175.7,48.2,171.9,45.4,167.6,45.4L167.6,45.4z"/>
</g>
<g>
	<polygon class="st1" points="204.3,165.8 133,165.8 110.9,233.7 168.7,275.6 226.4,233.7 	"/>
	<g>
		<polygon class="st2" points="204.3,165.8 167.6,55.4 133,165.8 		"/>
	</g>
	<g>
		<polygon class="st3" points="226.4,233.7 320,164.6 204.3,165.8 		"/>
	</g>
	<g>
		<polygon class="st4" points="168.7,275.6 263.3,343.3 226.4,233.7 		"/>
	</g>
	<g>
		<polygon class="st5" points="110.9,233.7 75.8,344.6 168.7,275.6 		"/>
	</g>
	<g>
		<polygon class="st6" points="133,165.8 16.7,166.7 111,233.7 		"/>
	</g>
	<g>
		<circle class="st0" cx="169.6" cy="218.6" r="26.5"/>
	</g>
	<g>
		<circle class="st5" cx="168.7" cy="125" r="14.3"/>
	</g>
	<g>
		<circle class="st3" cx="117.1" cy="285.9" r="14.3"/>
	</g>
	<g>
		<circle class="st6" cx="253.4" cy="185.4" r="14.3"/>
	</g>
	<g>
		<circle class="st4" cx="78.9" cy="185.4" r="14.3"/>
	</g>
	<g>
		<circle class="st2" cx="222.7" cy="289.1" r="14.3"/>
	</g>
</g>
</svg>
