<?xml version="1.0" encoding="utf-8"?>
<!-- Generator: Adobe Illustrator 22.0.1, SVG Export Plug-In . SVG Version: 6.00 Build 0)  -->
<svg version="1.1" id="Layer_1" xmlns="http://www.w3.org/2000/svg" xmlns:xlink="http://www.w3.org/1999/xlink" x="0px" y="0px"
	 viewBox="0 0 336.7 400" style="enable-background:new 0 0 336.7 400;" xml:space="preserve">
<style type="text/css">
	.st0{fill:#8BC53F;}
	.st1{fill:#FFFFFF;}
	.st2{opacity:0.4;}
	.st3{fill:none;stroke:#FFFFFF;stroke-linecap:round;stroke-linejoin:round;stroke-miterlimit:10;}
	.st4{fill:none;stroke:#FFFFFF;stroke-width:5;stroke-linecap:round;stroke-linejoin:round;}
	.st5{fill:#FAFDFF;}
	.st6{fill:#ABB0AD;}
	.st7{fill:#BC3027;}
	.st8{fill:#D4EAF7;}
	.st9{fill:#467D93;}
	.st10{fill:#6D9BB2;}
	.st11{fill:#603B15;}
	.st12{fill:#5B4A42;}
	.st13{fill:#71B744;}
	.st14{fill:#658339;}
</style>
<g>
	<rect x="26" y="67" class="st0" width="286" height="246"/>
</g>
<g>
	<path class="st1" d="M312,67v246H26V67H312 M312,57H26c-5.5,0-10,4.5-10,10v246c0,5.5,4.5,10,10,10h286c5.5,0,10-4.5,10-10V67
		C322,61.5,317.5,57,312,57L312,57z"/>
</g>
<g class="st2">
	<line class="st3" x1="169" y1="67" x2="169" y2="313"/>
	<line class="st3" x1="264.3" y1="67" x2="264.3" y2="313"/>
	<line class="st3" x1="121.3" y1="67" x2="121.3" y2="313"/>
	<line class="st3" x1="216.7" y1="67" x2="216.7" y2="313"/>
	<line class="st3" x1="73.7" y1="67" x2="73.7" y2="313"/>
</g>
<g class="st2">
	<line class="st3" x1="311.5" y1="168.5" x2="24.5" y2="168.5"/>
	<line class="st3" x1="311.5" y1="263.8" x2="24.5" y2="263.8"/>
	<line class="st3" x1="311.5" y1="120.8" x2="24.5" y2="120.8"/>
	<line class="st3" x1="311.5" y1="216.2" x2="24.5" y2="216.2"/>
</g>
<g>
	<g>
		<polyline class="st4" points="190,87.9 190,240 96,240 96,290 288.1,290 		"/>
		<g>
			<ellipse transform="matrix(0.5257 -0.8506 0.8506 0.5257 14.9138 203.5484)" class="st1" cx="190" cy="88.4" rx="9.4" ry="9.4"/>
		</g>
	</g>
</g>
<g>
	<g>
		<polygon class="st5" points="273.2,292.6 293.3,304.5 293.3,288.7 273.2,276.8 		"/>
		<g>
			<polygon class="st6" points="293.3,288.7 305.3,281.8 305.3,297.6 293.3,304.5 			"/>
			<polygon class="st6" points="293.3,288.7 298.8,276.2 305.3,281.8 			"/>
		</g>
		<polygon class="st7" points="273.2,276.8 293.3,288.7 298.8,276.2 281.8,266 		"/>
	</g>
	<g>
		<g>
			<polygon class="st8" points="286.5,286.9 286.5,291.5 289.9,293.5 289.9,288.9 			"/>
			<polygon class="st9" points="286.5,291.5 286.8,291.3 286.8,287.2 286.5,286.9 			"/>
			<polygon class="st10" points="289.9,293.5 286.5,291.5 286.8,291.3 289.9,293 			"/>
		</g>
		<g>
			<polygon class="st8" points="286.5,293.1 286.5,297.7 289.9,299.6 289.9,295.1 			"/>
			<polygon class="st9" points="286.5,297.7 286.8,297.5 286.8,293.3 286.5,293.1 			"/>
			<polygon class="st10" points="289.9,299.6 286.5,297.7 286.8,297.5 289.9,299.2 			"/>
		</g>
	</g>
	<polygon class="st11" points="301.8,299.6 301.8,291.3 298.5,293.2 298.5,301.5 	"/>
</g>
<g>
	<circle class="st0" cx="189.9" cy="88.6" r="5.6"/>
</g>
<g>
	<polygon class="st12" points="148.6,202.8 148.6,204 154.6,207.4 158.9,204.9 158.9,203 	"/>
	<g>
		<polygon class="st13" points="147.7,202.3 154.6,206.3 159.4,203.5 154.6,182.5 		"/>
		<polygon class="st14" points="154.6,206.3 159.4,203.5 154.6,182.5 		"/>
	</g>
</g>
<g>
	<polygon class="st12" points="132.3,195.2 132.3,196.3 138.2,199.8 142.6,197.3 142.6,195.4 	"/>
	<g>
		<polygon class="st13" points="131.3,194.6 138.2,198.6 143.1,195.8 138.2,174.8 		"/>
		<polygon class="st14" points="138.2,198.6 143.1,195.8 138.2,174.8 		"/>
	</g>
</g>
<g>
	<polygon class="st12" points="151.3,160.2 151.3,161.3 157.2,164.8 161.6,162.3 161.6,160.4 	"/>
	<g>
		<polygon class="st13" points="150.3,159.6 157.2,163.6 162.1,160.8 157.2,139.8 		"/>
		<polygon class="st14" points="157.2,163.6 162.1,160.8 157.2,139.8 		"/>
	</g>
</g>
<g>
	<polygon class="st12" points="106.8,195.2 106.8,196.3 112.7,199.8 117.1,197.3 117.1,195.4 	"/>
	<g>
		<polygon class="st13" points="105.8,194.6 112.7,198.6 117.6,195.8 112.7,174.8 		"/>
		<polygon class="st14" points="112.7,198.6 117.6,195.8 112.7,174.8 		"/>
	</g>
</g>
<g>
	<polygon class="st12" points="89.7,157.4 89.7,159.1 97.8,163.8 103.8,160.3 103.8,157.7 	"/>
	<g>
		<polygon class="st13" points="88.3,156.7 97.8,162.2 104.5,158.3 97.8,129.5 		"/>
		<polygon class="st14" points="97.8,162.2 104.5,158.3 97.8,129.5 		"/>
	</g>
</g>
<g>
	<polygon class="st12" points="230.2,246.4 230.2,248.1 238.3,252.8 244.3,249.3 244.3,246.7 	"/>
	<g>
		<polygon class="st13" points="228.8,245.7 238.3,251.2 245,247.3 238.3,218.5 		"/>
		<polygon class="st14" points="238.3,251.2 245,247.3 238.3,218.5 		"/>
	</g>
</g>
<g>
	<polygon class="st12" points="129.3,152.2 129.3,153.3 135.2,156.8 139.6,154.3 139.6,152.4 	"/>
	<g>
		<polygon class="st13" points="128.3,151.6 135.2,155.6 140.1,152.8 135.2,131.8 		"/>
		<polygon class="st14" points="135.2,155.6 140.1,152.8 135.2,131.8 		"/>
	</g>
</g>
<g>
	<polygon class="st12" points="143,140.2 143,141.3 148.9,144.8 153.3,142.3 153.3,140.4 	"/>
	<g>
		<polygon class="st13" points="142,139.6 148.9,143.6 153.8,140.8 148.9,119.8 		"/>
		<polygon class="st14" points="148.9,143.6 153.8,140.8 148.9,119.8 		"/>
	</g>
</g>
<g>
	<polygon class="st12" points="224,154.2 224,155.3 229.9,158.8 234.3,156.3 234.3,154.4 	"/>
	<g>
		<polygon class="st13" points="223,153.6 229.9,157.6 234.8,154.8 229.9,133.8 		"/>
		<polygon class="st14" points="229.9,157.6 234.8,154.8 229.9,133.8 		"/>
	</g>
</g>
<g>
	<polygon class="st12" points="240,135.7 240,136.8 245.9,140.3 250.3,137.8 250.3,135.9 	"/>
	<g>
		<polygon class="st13" points="239,135.1 245.9,139.1 250.8,136.3 245.9,115.3 		"/>
		<polygon class="st14" points="245.9,139.1 250.8,136.3 245.9,115.3 		"/>
	</g>
</g>
<g>
	<polygon class="st12" points="247.5,157.7 247.5,158.8 253.4,162.3 257.8,159.8 257.8,157.9 	"/>
	<g>
		<polygon class="st13" points="246.5,157.1 253.4,161.1 258.3,158.3 253.4,137.3 		"/>
		<polygon class="st14" points="253.4,161.1 258.3,158.3 253.4,137.3 		"/>
	</g>
</g>
<g>
	<polygon class="st12" points="34.1,148.3 34.1,149.5 40.1,152.9 44.4,150.4 44.4,148.5 	"/>
	<g>
		<polygon class="st13" points="33.2,147.8 40.1,151.8 44.9,149 40.1,128 		"/>
		<polygon class="st14" points="40.1,151.8 44.9,149 40.1,128 		"/>
	</g>
</g>
<g>
	<polygon class="st12" points="52.1,145.8 52.1,147 58.1,150.4 62.4,147.9 62.4,146 	"/>
	<g>
		<polygon class="st13" points="51.2,145.3 58.1,149.3 62.9,146.5 58.1,125.5 		"/>
		<polygon class="st14" points="58.1,149.3 62.9,146.5 58.1,125.5 		"/>
	</g>
</g>
<g>
	<polygon class="st12" points="35.1,191.8 35.1,193 41.1,196.4 45.4,193.9 45.4,192 	"/>
	<g>
		<polygon class="st13" points="34.2,191.3 41.1,195.3 45.9,192.5 41.1,171.5 		"/>
		<polygon class="st14" points="41.1,195.3 45.9,192.5 41.1,171.5 		"/>
	</g>
</g>
<g>
	<polygon class="st12" points="58.1,195.8 58.1,197 64.1,200.4 68.4,197.9 68.4,196 	"/>
	<g>
		<polygon class="st13" points="57.2,195.3 64.1,199.3 68.9,196.5 64.1,175.5 		"/>
		<polygon class="st14" points="64.1,199.3 68.9,196.5 64.1,175.5 		"/>
	</g>
</g>
<g>
	<polygon class="st12" points="47.1,204.3 47.1,205.5 53.1,208.9 57.4,206.4 57.4,204.5 	"/>
	<g>
		<polygon class="st13" points="46.2,203.8 53.1,207.8 57.9,205 53.1,184 		"/>
		<polygon class="st14" points="53.1,207.8 57.9,205 53.1,184 		"/>
	</g>
</g>
<g>
	<polygon class="st12" points="36.1,239.8 36.1,241 42.1,244.4 46.4,241.9 46.4,240 	"/>
	<g>
		<polygon class="st13" points="35.2,239.3 42.1,243.3 46.9,240.5 42.1,219.5 		"/>
		<polygon class="st14" points="42.1,243.3 46.9,240.5 42.1,219.5 		"/>
	</g>
</g>
<g>
	<polygon class="st12" points="53.6,252.3 53.6,253.5 59.6,256.9 63.9,254.4 63.9,252.5 	"/>
	<g>
		<polygon class="st13" points="52.7,251.8 59.6,255.8 64.4,253 59.6,232 		"/>
		<polygon class="st14" points="59.6,255.8 64.4,253 59.6,232 		"/>
	</g>
</g>
<g>
	<polygon class="st12" points="41.6,295.3 41.6,296.5 47.6,299.9 51.9,297.4 51.9,295.5 	"/>
	<g>
		<polygon class="st13" points="40.7,294.8 47.6,298.8 52.4,296 47.6,275 		"/>
		<polygon class="st14" points="47.6,298.8 52.4,296 47.6,275 		"/>
	</g>
</g>
<g>
	<polygon class="st12" points="141.1,102.3 141.1,103.5 147.1,106.9 151.4,104.4 151.4,102.5 	"/>
	<g>
		<polygon class="st13" points="140.2,101.8 147.1,105.8 151.9,103 147.1,82 		"/>
		<polygon class="st14" points="147.1,105.8 151.9,103 147.1,82 		"/>
	</g>
</g>
<g>
	<polygon class="st12" points="84.6,92.8 84.6,94 90.6,97.4 94.9,94.9 94.9,93 	"/>
	<g>
		<polygon class="st13" points="83.7,92.3 90.6,96.3 95.4,93.5 90.6,72.5 		"/>
		<polygon class="st14" points="90.6,96.3 95.4,93.5 90.6,72.5 		"/>
	</g>
</g>
<g>
	<polygon class="st12" points="102.6,108.8 102.6,110 108.6,113.4 112.9,110.9 112.9,109 	"/>
	<g>
		<polygon class="st13" points="101.7,108.3 108.6,112.3 113.4,109.5 108.6,88.5 		"/>
		<polygon class="st14" points="108.6,112.3 113.4,109.5 108.6,88.5 		"/>
	</g>
</g>
<g>
	<polygon class="st12" points="45.1,103.3 45.1,104.5 51.1,107.9 55.4,105.4 55.4,103.5 	"/>
	<g>
		<polygon class="st13" points="44.2,102.8 51.1,106.8 55.9,104 51.1,83 		"/>
		<polygon class="st14" points="51.1,106.8 55.9,104 51.1,83 		"/>
	</g>
</g>
<g>
	<polygon class="st12" points="226,111.7 226,112.8 231.9,116.3 236.3,113.8 236.3,111.9 	"/>
	<g>
		<polygon class="st13" points="225,111.1 231.9,115.1 236.8,112.3 231.9,91.3 		"/>
		<polygon class="st14" points="231.9,115.1 236.8,112.3 231.9,91.3 		"/>
	</g>
</g>
<g>
	<polygon class="st12" points="241.5,100.2 241.5,101.3 247.4,104.8 251.8,102.3 251.8,100.4 	"/>
	<g>
		<polygon class="st13" points="240.5,99.6 247.4,103.6 252.3,100.8 247.4,79.8 		"/>
		<polygon class="st14" points="247.4,103.6 252.3,100.8 247.4,79.8 		"/>
	</g>
</g>
<g>
	<polygon class="st12" points="270.5,107.2 270.5,108.3 276.4,111.8 280.8,109.3 280.8,107.4 	"/>
	<g>
		<polygon class="st13" points="269.5,106.6 276.4,110.6 281.3,107.8 276.4,86.8 		"/>
		<polygon class="st14" points="276.4,110.6 281.3,107.8 276.4,86.8 		"/>
	</g>
</g>
<g>
	<polygon class="st12" points="284.5,91.2 284.5,92.3 290.4,95.8 294.8,93.3 294.8,91.4 	"/>
	<g>
		<polygon class="st13" points="283.5,90.6 290.4,94.6 295.3,91.8 290.4,70.8 		"/>
		<polygon class="st14" points="290.4,94.6 295.3,91.8 290.4,70.8 		"/>
	</g>
</g>
<g>
	<polygon class="st12" points="298,107.7 298,108.8 303.9,112.3 308.3,109.8 308.3,107.9 	"/>
	<g>
		<polygon class="st13" points="297,107.1 303.9,111.1 308.8,108.3 303.9,87.3 		"/>
		<polygon class="st14" points="303.9,111.1 308.8,108.3 303.9,87.3 		"/>
	</g>
</g>
<g>
	<polygon class="st12" points="277.5,140.2 277.5,141.3 283.4,144.8 287.8,142.3 287.8,140.4 	"/>
	<g>
		<polygon class="st13" points="276.5,139.6 283.4,143.6 288.3,140.8 283.4,119.8 		"/>
		<polygon class="st14" points="283.4,143.6 288.3,140.8 283.4,119.8 		"/>
	</g>
</g>
<g>
	<polygon class="st12" points="295.5,148.7 295.5,149.8 301.4,153.3 305.8,150.8 305.8,148.9 	"/>
	<g>
		<polygon class="st13" points="294.5,148.1 301.4,152.1 306.3,149.3 301.4,128.3 		"/>
		<polygon class="st14" points="301.4,152.1 306.3,149.3 301.4,128.3 		"/>
	</g>
</g>
<g>
	<polygon class="st12" points="278,189.2 278,190.3 283.9,193.8 288.3,191.3 288.3,189.4 	"/>
	<g>
		<polygon class="st13" points="277,188.6 283.9,192.6 288.8,189.8 283.9,168.8 		"/>
		<polygon class="st14" points="283.9,192.6 288.8,189.8 283.9,168.8 		"/>
	</g>
</g>
<g>
	<polygon class="st12" points="230,193.2 230,194.3 235.9,197.8 240.3,195.3 240.3,193.4 	"/>
	<g>
		<polygon class="st13" points="229,192.6 235.9,196.6 240.8,193.8 235.9,172.8 		"/>
		<polygon class="st14" points="235.9,196.6 240.8,193.8 235.9,172.8 		"/>
	</g>
</g>
<g>
	<polygon class="st12" points="246.5,208.7 246.5,209.8 252.4,213.3 256.8,210.8 256.8,208.9 	"/>
	<g>
		<polygon class="st13" points="245.5,208.1 252.4,212.1 257.3,209.3 252.4,188.3 		"/>
		<polygon class="st14" points="252.4,212.1 257.3,209.3 252.4,188.3 		"/>
	</g>
</g>
<g>
	<polygon class="st12" points="273.5,242.7 273.5,243.8 279.4,247.3 283.8,244.8 283.8,242.9 	"/>
	<g>
		<polygon class="st13" points="272.5,242.1 279.4,246.1 284.3,243.3 279.4,222.3 		"/>
		<polygon class="st14" points="279.4,246.1 284.3,243.3 279.4,222.3 		"/>
	</g>
</g>
<g>
	<polygon class="st12" points="293,249.2 293,250.3 298.9,253.8 303.3,251.3 303.3,249.4 	"/>
	<g>
		<polygon class="st13" points="292,248.6 298.9,252.6 303.8,249.8 298.9,228.8 		"/>
		<polygon class="st14" points="298.9,252.6 303.8,249.8 298.9,228.8 		"/>
	</g>
</g>
</svg>
