<?xml version="1.0" encoding="utf-8"?>
<!-- Generator: Adobe Illustrator 22.0.1, SVG Export Plug-In . SVG Version: 6.00 Build 0)  -->
<svg version="1.1" id="Layer_1" xmlns="http://www.w3.org/2000/svg" xmlns:xlink="http://www.w3.org/1999/xlink" x="0px" y="0px"
	 viewBox="0 0 336.7 400" style="enable-background:new 0 0 336.7 400;" xml:space="preserve">
<style type="text/css">
	.st0{fill:#8BC53F;}
	.st1{fill:#FFFFFF;}
	.st2{fill:#81B941;}
	.st3{fill:#A8CE38;}
	.st4{opacity:0.4;}
	.st5{fill:none;stroke:#FFFFFF;stroke-linecap:round;stroke-linejoin:round;stroke-miterlimit:10;}
	
		.st6{fill:none;stroke:#490A3D;stroke-width:3;stroke-linecap:round;stroke-linejoin:round;stroke-miterlimit:10;stroke-dasharray:5.1482,5.1482;}
	.st7{fill:#88C057;}
	.st8{fill:#008E4A;}
	.st9{fill:#20A94C;}
	.st10{fill:#006E46;}
	.st11{fill:#ED8F20;}
	.st12{fill:#DD7017;}
	.st13{fill:#E2E3E4;}
	.st14{fill:#EDDCD5;}
	.st15{fill:#7F513D;}
	.st16{fill:#492E22;}
</style>
<g>
	<rect x="26" y="67" class="st0" width="286" height="246"/>
</g>
<g>
	<path class="st1" d="M312,67v246H26V67H312 M312,57H26c-5.5,0-10,4.5-10,10v246c0,5.5,4.5,10,10,10h286c5.5,0,10-4.5,10-10V67
		C322,61.5,317.5,57,312,57L312,57z"/>
</g>
<g>
	<g>
		<g>
			<circle class="st2" cx="54.2" cy="148.3" r="2.3"/>
		</g>
		<g>
			<circle class="st2" cx="51.6" cy="87.1" r="2.3"/>
		</g>
		<g>
			<circle class="st3" cx="59.3" cy="97.5" r="2.3"/>
		</g>
		<g>
			<circle class="st3" cx="51.9" cy="115.6" r="2.3"/>
		</g>
		<g>
			<circle class="st3" cx="99.4" cy="107.7" r="2.3"/>
		</g>
		<g>
			<path class="st2" d="M66.6,126.7c-0.7,0-1.3,0.6-1.3,1.3s0.6,1.3,1.3,1.3s1.3-0.6,1.3-1.3S67.4,126.7,66.6,126.7 M66.6,125.7
				c1.3,0,2.3,1,2.3,2.3s-1,2.3-2.3,2.3c-1.3,0-2.3-1-2.3-2.3S65.4,125.7,66.6,125.7L66.6,125.7z"/>
		</g>
		<g>
			<path class="st2" d="M74.6,105c-0.7,0-1.3,0.6-1.3,1.3s0.6,1.3,1.3,1.3s1.3-0.6,1.3-1.3S75.4,105,74.6,105 M74.6,104
				c1.3,0,2.3,1,2.3,2.3s-1,2.3-2.3,2.3s-2.3-1-2.3-2.3S73.4,104,74.6,104L74.6,104z"/>
		</g>
		<g>
			<circle class="st3" cx="96.1" cy="85.3" r="2.3"/>
		</g>
		<g>
			<circle class="st3" cx="88.7" cy="103.5" r="2.3"/>
		</g>
		<g>
			<circle class="st2" cx="42.4" cy="125.6" r="2.3"/>
		</g>
		<g>
			<path class="st2" d="M70,88.9c-0.7,0-1.3,0.6-1.3,1.3s0.6,1.3,1.3,1.3s1.3-0.6,1.3-1.3S70.7,88.9,70,88.9 M70,87.9
				c1.3,0,2.3,1,2.3,2.3s-1,2.3-2.3,2.3s-2.3-1-2.3-2.3S68.7,87.9,70,87.9L70,87.9z"/>
		</g>
		<g>
			<path class="st2" d="M111.5,92.8c-0.7,0-1.3,0.6-1.3,1.3s0.6,1.3,1.3,1.3s1.3-0.6,1.3-1.3S112.2,92.8,111.5,92.8 M111.5,91.8
				c1.3,0,2.3,1,2.3,2.3s-1,2.3-2.3,2.3s-2.3-1-2.3-2.3S110.2,91.8,111.5,91.8L111.5,91.8z"/>
		</g>
		<g>
			<circle class="st3" cx="84" cy="132.4" r="2.3"/>
		</g>
		<g>
			<circle class="st3" cx="112.8" cy="116" r="2.3"/>
		</g>
		<g>
			<circle class="st3" cx="105.4" cy="134.2" r="2.3"/>
		</g>
		<g>
			<path class="st2" d="M82.1,139.2c-0.7,0-1.3,0.6-1.3,1.3s0.6,1.3,1.3,1.3s1.3-0.6,1.3-1.3S82.8,139.2,82.1,139.2 M82.1,138.2
				c1.3,0,2.3,1,2.3,2.3s-1,2.3-2.3,2.3s-2.3-1-2.3-2.3S80.8,138.2,82.1,138.2L82.1,138.2z"/>
		</g>
		<g>
			<path class="st2" d="M85.7,89.6c-0.7,0-1.3,0.6-1.3,1.3s0.6,1.3,1.3,1.3s1.3-0.6,1.3-1.3S86.4,89.6,85.7,89.6 M85.7,88.6
				c1.3,0,2.3,1,2.3,2.3s-1,2.3-2.3,2.3s-2.3-1-2.3-2.3S84.4,88.6,85.7,88.6L85.7,88.6z"/>
		</g>
	</g>
	<g>
		<g>
			<circle class="st2" cx="54.2" cy="218.4" r="2.3"/>
		</g>
		<g>
			<circle class="st2" cx="44.3" cy="152.7" r="2.3"/>
		</g>
		<g>
			<circle class="st3" cx="62" cy="176" r="2.3"/>
		</g>
		<g>
			<circle class="st3" cx="51.9" cy="185.7" r="2.3"/>
		</g>
		<g>
			<circle class="st3" cx="98.7" cy="189" r="2.3"/>
		</g>
		<g>
			<path class="st2" d="M66,194c-0.7,0-1.3,0.6-1.3,1.3s0.6,1.3,1.3,1.3s1.3-0.6,1.3-1.3S66.7,194,66,194 M66,193
				c1.3,0,2.3,1,2.3,2.3s-1,2.3-2.3,2.3c-1.3,0-2.3-1-2.3-2.3S64.7,193,66,193L66,193z"/>
		</g>
		<g>
			<path class="st2" d="M39.6,176.8c-0.7,0-1.3,0.6-1.3,1.3s0.6,1.3,1.3,1.3s1.3-0.6,1.3-1.3S40.4,176.8,39.6,176.8 M39.6,175.8
				c1.3,0,2.3,1,2.3,2.3s-1,2.3-2.3,2.3s-2.3-1-2.3-2.3S38.4,175.8,39.6,175.8L39.6,175.8z"/>
		</g>
		<g>
			<circle class="st3" cx="96.1" cy="155.4" r="2.3"/>
		</g>
		<g>
			<circle class="st3" cx="88.7" cy="173.6" r="2.3"/>
		</g>
		<g>
			<circle class="st2" cx="42.4" cy="195.7" r="2.3"/>
		</g>
		<g>
			<path class="st2" d="M70,159c-0.7,0-1.3,0.6-1.3,1.3s0.6,1.3,1.3,1.3s1.3-0.6,1.3-1.3S70.7,159,70,159 M70,158
				c1.3,0,2.3,1,2.3,2.3s-1,2.3-2.3,2.3s-2.3-1-2.3-2.3S68.7,158,70,158L70,158z"/>
		</g>
		<g>
			<path class="st2" d="M111.5,162.9c-0.7,0-1.3,0.6-1.3,1.3s0.6,1.3,1.3,1.3s1.3-0.6,1.3-1.3S112.2,162.9,111.5,162.9 M111.5,161.9
				c1.3,0,2.3,1,2.3,2.3s-1,2.3-2.3,2.3s-2.3-1-2.3-2.3S110.2,161.9,111.5,161.9L111.5,161.9z"/>
		</g>
		<g>
			<circle class="st3" cx="84" cy="202.5" r="2.3"/>
		</g>
		<g>
			<circle class="st3" cx="112.8" cy="186.1" r="2.3"/>
		</g>
		<g>
			<circle class="st3" cx="105.4" cy="204.3" r="2.3"/>
		</g>
		<g>
			<path class="st2" d="M94.7,204c-0.7,0-1.3,0.6-1.3,1.3s0.6,1.3,1.3,1.3s1.3-0.6,1.3-1.3S95.5,204,94.7,204 M94.7,203
				c1.3,0,2.3,1,2.3,2.3s-1,2.3-2.3,2.3s-2.3-1-2.3-2.3S93.5,203,94.7,203L94.7,203z"/>
		</g>
		<g>
			<path class="st2" d="M86.7,189.7c-0.7,0-1.3,0.6-1.3,1.3s0.6,1.3,1.3,1.3s1.3-0.6,1.3-1.3S87.4,189.7,86.7,189.7 M86.7,188.7
				c1.3,0,2.3,1,2.3,2.3s-1,2.3-2.3,2.3s-2.3-1-2.3-2.3S85.4,188.7,86.7,188.7L86.7,188.7z"/>
		</g>
	</g>
	<g>
		<g>
			<circle class="st2" cx="54.2" cy="291.8" r="2.3"/>
		</g>
		<g>
			<circle class="st2" cx="51.6" cy="230.7" r="2.3"/>
		</g>
		<g>
			<circle class="st3" cx="59.3" cy="241" r="2.3"/>
		</g>
		<g>
			<circle class="st3" cx="51.9" cy="259.2" r="2.3"/>
		</g>
		<g>
			<circle class="st3" cx="99" cy="255.5" r="2.3"/>
		</g>
		<g>
			<path class="st2" d="M64,275c-0.7,0-1.3,0.6-1.3,1.3s0.6,1.3,1.3,1.3s1.3-0.6,1.3-1.3S64.7,275,64,275 M64,274
				c1.3,0,2.3,1,2.3,2.3s-1,2.3-2.3,2.3c-1.3,0-2.3-1-2.3-2.3S62.7,274,64,274L64,274z"/>
		</g>
		<g>
			<path class="st2" d="M44,244.5c-0.7,0-1.3,0.6-1.3,1.3s0.6,1.3,1.3,1.3s1.3-0.6,1.3-1.3S44.7,244.5,44,244.5 M44,243.5
				c1.3,0,2.3,1,2.3,2.3s-1,2.3-2.3,2.3s-2.3-1-2.3-2.3S42.7,243.5,44,243.5L44,243.5z"/>
		</g>
		<g>
			<circle class="st3" cx="96.1" cy="228.8" r="2.3"/>
		</g>
		<g>
			<circle class="st3" cx="88.7" cy="247" r="2.3"/>
		</g>
		<g>
			<circle class="st2" cx="42.4" cy="269.1" r="2.3"/>
		</g>
		<g>
			<path class="st2" d="M64,226.9c-0.7,0-1.3,0.6-1.3,1.3s0.6,1.3,1.3,1.3s1.3-0.6,1.3-1.3S64.7,226.9,64,226.9 M64,225.9
				c1.3,0,2.3,1,2.3,2.3s-1,2.3-2.3,2.3s-2.3-1-2.3-2.3S62.7,225.9,64,225.9L64,225.9z"/>
		</g>
		<g>
			<path class="st2" d="M111.5,236.3c-0.7,0-1.3,0.6-1.3,1.3s0.6,1.3,1.3,1.3s1.3-0.6,1.3-1.3S112.2,236.3,111.5,236.3 M111.5,235.3
				c1.3,0,2.3,1,2.3,2.3s-1,2.3-2.3,2.3s-2.3-1-2.3-2.3S110.2,235.3,111.5,235.3L111.5,235.3z"/>
		</g>
		<g>
			<circle class="st3" cx="84" cy="275.9" r="2.3"/>
		</g>
		<g>
			<circle class="st3" cx="112.8" cy="259.6" r="2.3"/>
		</g>
		<g>
			<circle class="st3" cx="105.4" cy="277.7" r="2.3"/>
		</g>
		<g>
			<path class="st2" d="M82.1,282.8c-0.7,0-1.3,0.6-1.3,1.3s0.6,1.3,1.3,1.3s1.3-0.6,1.3-1.3S82.8,282.8,82.1,282.8 M82.1,281.8
				c1.3,0,2.3,1,2.3,2.3s-1,2.3-2.3,2.3s-2.3-1-2.3-2.3S80.8,281.8,82.1,281.8L82.1,281.8z"/>
		</g>
		<g>
			<path class="st2" d="M101.5,293.5c-0.7,0-1.3,0.6-1.3,1.3s0.6,1.3,1.3,1.3s1.3-0.6,1.3-1.3S102.2,293.5,101.5,293.5 M101.5,292.5
				c1.3,0,2.3,1,2.3,2.3s-1,2.3-2.3,2.3s-2.3-1-2.3-2.3S100.2,292.5,101.5,292.5L101.5,292.5z"/>
		</g>
	</g>
	<g>
		<g>
			<circle class="st2" cx="141.1" cy="230.7" r="2.3"/>
		</g>
		<g>
			<circle class="st3" cx="148.8" cy="241" r="2.3"/>
		</g>
		<g>
			<path class="st2" d="M164.1,248.5c-0.7,0-1.3,0.6-1.3,1.3s0.6,1.3,1.3,1.3s1.3-0.6,1.3-1.3S164.9,248.5,164.1,248.5 M164.1,247.5
				c1.3,0,2.3,1,2.3,2.3s-1,2.3-2.3,2.3s-2.3-1-2.3-2.3S162.9,247.5,164.1,247.5L164.1,247.5z"/>
		</g>
		<g>
			<circle class="st3" cx="185.6" cy="228.8" r="2.3"/>
		</g>
		<g>
			<circle class="st3" cx="178.2" cy="247" r="2.3"/>
		</g>
		<g>
			<path class="st2" d="M159.5,232.4c-0.7,0-1.3,0.6-1.3,1.3s0.6,1.3,1.3,1.3s1.3-0.6,1.3-1.3S160.2,232.4,159.5,232.4 M159.5,231.4
				c1.3,0,2.3,1,2.3,2.3s-1,2.3-2.3,2.3s-2.3-1-2.3-2.3S158.2,231.4,159.5,231.4L159.5,231.4z"/>
		</g>
		<g>
			<path class="st2" d="M201,236.3c-0.7,0-1.3,0.6-1.3,1.3s0.6,1.3,1.3,1.3s1.3-0.6,1.3-1.3S201.7,236.3,201,236.3 M201,235.3
				c1.3,0,2.3,1,2.3,2.3s-1,2.3-2.3,2.3s-2.3-1-2.3-2.3S199.7,235.3,201,235.3L201,235.3z"/>
		</g>
	</g>
	<g>
		<g>
			<circle class="st2" cx="189" cy="188.2" r="2.3"/>
		</g>
		<g>
			<circle class="st3" cx="196.7" cy="198.5" r="2.3"/>
		</g>
		<g>
			<path class="st2" d="M212.1,206c-0.7,0-1.3,0.6-1.3,1.3s0.6,1.3,1.3,1.3s1.3-0.6,1.3-1.3S212.8,206,212.1,206 M212.1,205
				c1.3,0,2.3,1,2.3,2.3s-1,2.3-2.3,2.3s-2.3-1-2.3-2.3S210.8,205,212.1,205L212.1,205z"/>
		</g>
		<g>
			<path class="st2" d="M207.4,189.9c-0.7,0-1.3,0.6-1.3,1.3s0.6,1.3,1.3,1.3s1.3-0.6,1.3-1.3S208.1,189.9,207.4,189.9 M207.4,188.9
				c1.3,0,2.3,1,2.3,2.3s-1,2.3-2.3,2.3s-2.3-1-2.3-2.3S206.1,188.9,207.4,188.9L207.4,188.9z"/>
		</g>
	</g>
	<g>
		<g>
			<circle class="st2" cx="274.8" cy="185.2" r="2.3"/>
		</g>
		<g>
			<circle class="st3" cx="282.5" cy="195.5" r="2.3"/>
		</g>
		<g>
			<path class="st2" d="M297.9,203c-0.7,0-1.3,0.6-1.3,1.3s0.6,1.3,1.3,1.3s1.3-0.6,1.3-1.3S298.6,203,297.9,203 M297.9,202
				c1.3,0,2.3,1,2.3,2.3s-1,2.3-2.3,2.3s-2.3-1-2.3-2.3S296.6,202,297.9,202L297.9,202z"/>
		</g>
		<g>
			<path class="st2" d="M293.2,186.9c-0.7,0-1.3,0.6-1.3,1.3s0.6,1.3,1.3,1.3s1.3-0.6,1.3-1.3S293.9,186.9,293.2,186.9 M293.2,185.9
				c1.3,0,2.3,1,2.3,2.3s-1,2.3-2.3,2.3s-2.3-1-2.3-2.3S291.9,185.9,293.2,185.9L293.2,185.9z"/>
		</g>
	</g>
	<g>
		<g>
			<circle class="st2" cx="273.8" cy="155.7" r="2.3"/>
		</g>
		<g>
			<circle class="st3" cx="301.5" cy="146" r="2.3"/>
		</g>
		<g>
			<path class="st2" d="M296.9,173.5c-0.7,0-1.3,0.6-1.3,1.3s0.6,1.3,1.3,1.3s1.3-0.6,1.3-1.3S297.6,173.5,296.9,173.5 M296.9,172.5
				c1.3,0,2.3,1,2.3,2.3s-1,2.3-2.3,2.3s-2.3-1-2.3-2.3S295.6,172.5,296.9,172.5L296.9,172.5z"/>
		</g>
		<g>
			<path class="st2" d="M292.2,157.4c-0.7,0-1.3,0.6-1.3,1.3s0.6,1.3,1.3,1.3s1.3-0.6,1.3-1.3S292.9,157.4,292.2,157.4 M292.2,156.4
				c1.3,0,2.3,1,2.3,2.3s-1,2.3-2.3,2.3s-2.3-1-2.3-2.3S290.9,156.4,292.2,156.4L292.2,156.4z"/>
		</g>
	</g>
	<g>
		<g>
			<circle class="st2" cx="138.1" cy="84.3" r="2.3"/>
		</g>
		<g>
			<circle class="st3" cx="145.8" cy="94.6" r="2.3"/>
		</g>
		<g>
			<circle class="st3" cx="138.4" cy="112.8" r="2.3"/>
		</g>
		<g>
			<path class="st2" d="M161.1,102.1c-0.7,0-1.3,0.6-1.3,1.3s0.6,1.3,1.3,1.3s1.3-0.6,1.3-1.3S161.8,102.1,161.1,102.1 M161.1,101.1
				c1.3,0,2.3,1,2.3,2.3s-1,2.3-2.3,2.3s-2.3-1-2.3-2.3S159.9,101.1,161.1,101.1L161.1,101.1z"/>
		</g>
		<g>
			<circle class="st3" cx="182.6" cy="82.4" r="2.3"/>
		</g>
		<g>
			<circle class="st3" cx="175.2" cy="100.6" r="2.3"/>
		</g>
		<g>
			<circle class="st2" cx="128.3" cy="98.3" r="2.3"/>
		</g>
		<g>
			<path class="st2" d="M156.5,86c-0.7,0-1.3,0.6-1.3,1.3s0.6,1.3,1.3,1.3s1.3-0.6,1.3-1.3S157.2,86,156.5,86 M156.5,85
				c1.3,0,2.3,1,2.3,2.3s-1,2.3-2.3,2.3s-2.3-1-2.3-2.3S155.2,85,156.5,85L156.5,85z"/>
		</g>
		<g>
			<path class="st2" d="M197.9,89.9c-0.7,0-1.3,0.6-1.3,1.3s0.6,1.3,1.3,1.3s1.3-0.6,1.3-1.3S198.7,89.9,197.9,89.9 M197.9,88.9
				c1.3,0,2.3,1,2.3,2.3s-1,2.3-2.3,2.3s-2.3-1-2.3-2.3S196.7,88.9,197.9,88.9L197.9,88.9z"/>
		</g>
	</g>
	<g>
		<g>
			<circle class="st2" cx="235" cy="86" r="2.3"/>
		</g>
		<g>
			<circle class="st3" cx="242.7" cy="96.3" r="2.3"/>
		</g>
		<g>
			<circle class="st3" cx="241.7" cy="113.7" r="2.3"/>
		</g>
		<g>
			<circle class="st3" cx="286.3" cy="107" r="2.3"/>
		</g>
		<g>
			<path class="st2" d="M258.1,103.8c-0.7,0-1.3,0.6-1.3,1.3s0.6,1.3,1.3,1.3s1.3-0.6,1.3-1.3S258.8,103.8,258.1,103.8 M258.1,102.8
				c1.3,0,2.3,1,2.3,2.3s-1,2.3-2.3,2.3s-2.3-1-2.3-2.3S256.8,102.8,258.1,102.8L258.1,102.8z"/>
		</g>
		<g>
			<circle class="st3" cx="279.5" cy="84.2" r="2.3"/>
		</g>
		<g>
			<circle class="st3" cx="272.1" cy="102.3" r="2.3"/>
		</g>
		<g>
			<path class="st2" d="M253.4,87.7c-0.7,0-1.3,0.6-1.3,1.3s0.6,1.3,1.3,1.3s1.3-0.6,1.3-1.3S254.1,87.7,253.4,87.7 M253.4,86.7
				c1.3,0,2.3,1,2.3,2.3s-1,2.3-2.3,2.3s-2.3-1-2.3-2.3S252.1,86.7,253.4,86.7L253.4,86.7z"/>
		</g>
		<g>
			<path class="st2" d="M294.9,91.7c-0.7,0-1.3,0.6-1.3,1.3s0.6,1.3,1.3,1.3s1.3-0.6,1.3-1.3S295.6,91.7,294.9,91.7 M294.9,90.7
				c1.3,0,2.3,1,2.3,2.3s-1,2.3-2.3,2.3s-2.3-1-2.3-2.3S293.6,90.7,294.9,90.7L294.9,90.7z"/>
		</g>
		<g>
			<circle class="st3" cx="229.6" cy="103.3" r="2.3"/>
		</g>
		<g>
			<circle class="st3" cx="296.2" cy="114.9" r="2.3"/>
		</g>
		<g>
			<circle class="st3" cx="288.8" cy="133" r="2.3"/>
		</g>
		<g>
			<path class="st2" d="M278.1,138.1c-0.7,0-1.3,0.6-1.3,1.3s0.6,1.3,1.3,1.3s1.3-0.6,1.3-1.3S278.9,138.1,278.1,138.1 M278.1,137.1
				c1.3,0,2.3,1,2.3,2.3s-1,2.3-2.3,2.3s-2.3-1-2.3-2.3S276.9,137.1,278.1,137.1L278.1,137.1z"/>
		</g>
		<g>
			<path class="st2" d="M195.1,105.8c-0.7,0-1.3,0.6-1.3,1.3s0.6,1.3,1.3,1.3s1.3-0.6,1.3-1.3S195.8,105.8,195.1,105.8 M195.1,104.8
				c1.3,0,2.3,1,2.3,2.3s-1,2.3-2.3,2.3s-2.3-1-2.3-2.3S193.8,104.8,195.1,104.8L195.1,104.8z"/>
		</g>
	</g>
	<g>
		<g>
			<circle class="st3" cx="291" cy="250.5" r="2.3"/>
		</g>
		<g>
			<circle class="st3" cx="286" cy="232.7" r="2.3"/>
		</g>
		<g>
			<circle class="st3" cx="278.6" cy="250.8" r="2.3"/>
		</g>
		<g>
			<path class="st2" d="M301.4,240.2c-0.7,0-1.3,0.6-1.3,1.3s0.6,1.3,1.3,1.3s1.3-0.6,1.3-1.3S302.1,240.2,301.4,240.2 M301.4,239.2
				c1.3,0,2.3,1,2.3,2.3s-1,2.3-2.3,2.3s-2.3-1-2.3-2.3S300.1,239.2,301.4,239.2L301.4,239.2z"/>
		</g>
		<g>
			<circle class="st3" cx="274.7" cy="286.5" r="2.3"/>
		</g>
		<g>
			<circle class="st3" cx="298" cy="271.7" r="2.3"/>
		</g>
		<g>
			<circle class="st3" cx="296.7" cy="291.5" r="2.3"/>
		</g>
		<g>
			<path class="st2" d="M280.2,301.2c-0.7,0-1.3,0.6-1.3,1.3s0.6,1.3,1.3,1.3s1.3-0.6,1.3-1.3S280.9,301.2,280.2,301.2 M280.2,300.2
				c1.3,0,2.3,1,2.3,2.3s-1,2.3-2.3,2.3s-2.3-1-2.3-2.3S278.9,300.2,280.2,300.2L280.2,300.2z"/>
		</g>
		<g>
			<path class="st2" d="M282,273.9c-0.7,0-1.3,0.6-1.3,1.3s0.6,1.3,1.3,1.3s1.3-0.6,1.3-1.3S282.7,273.9,282,273.9 M282,272.9
				c1.3,0,2.3,1,2.3,2.3s-1,2.3-2.3,2.3s-2.3-1-2.3-2.3S280.7,272.9,282,272.9L282,272.9z"/>
		</g>
	</g>
</g>
<g class="st4">
	<line class="st5" x1="169" y1="67" x2="169" y2="313"/>
	<line class="st5" x1="264.3" y1="67" x2="264.3" y2="313"/>
	<line class="st5" x1="121.3" y1="67" x2="121.3" y2="313"/>
	<line class="st5" x1="216.7" y1="67" x2="216.7" y2="313"/>
	<line class="st5" x1="73.7" y1="67" x2="73.7" y2="313"/>
</g>
<g class="st4">
	<line class="st5" x1="311.5" y1="168.5" x2="24.5" y2="168.5"/>
	<line class="st5" x1="311.5" y1="263.8" x2="24.5" y2="263.8"/>
	<line class="st5" x1="311.5" y1="120.8" x2="24.5" y2="120.8"/>
	<line class="st5" x1="311.5" y1="216.2" x2="24.5" y2="216.2"/>
</g>
<g>
	<path class="st6" d="M145,195.7c-5.6-8-17.7-11.7-17.7-25.7c0-11.7,14.6-15.3,24.3-15c3.8-10.6,5.8-26.6,22.3-28.7
		c15.7-2,23.5,10.9,27.9,21.3c-0.3,0.1,4.1-20.9,24.4-16.9c15.9,3.1,15.9,15.4,13.9,23.9c10.4,2.2,18.3,13,17.2,23.6
		s-11.1,19.5-21.7,19.5c9.8,4.6,20,18.8,19.9,29.6c-0.1,10.9-10.6,17.8-20.5,22.2c9,2.7,18.5,14.7,18.5,24.1
		c0,13-6.4,15.5-14.9,19.7c0.8,0.8-7.7-18.3-22.4-18.3c-11.3,0-19,9.5-18.8,18.3c-9.4-14.8-27-19.5-39.7-7.4"/>
	<g>
		<path class="st7" d="M157.6,273.6c0,0,0.9-9.1,9.2-9.2c0,0,2-0.1,2.5,1.5s-1,3.2-2.8,3.2C164.8,269.1,162.1,270,157.6,273.6z"/>
		<path class="st8" d="M157.6,273.6c0,0-3.4-8.4-10.7-6.2c0,0-2.7,0.5-3.2,2.4c-0.5,1.7,1.3,3.2,3,2.5
			C148.5,271.4,151.9,271,157.6,273.6z"/>
		<path class="st8" d="M167.1,264.8c0,0,0.1,0,0.2,0c0-0.2-0.1-0.4-0.1-0.7c-0.6-2.1-2.3-2-2.3-2c-7.1-0.4-7.4,10.8-7.4,10.8
			c0.3-0.3,0.6-0.6,0.8-0.9C159.1,269.3,161.3,264.9,167.1,264.8z"/>
		<path class="st9" d="M146.9,267.4c5.6-1.7,8.9,2.9,10.1,5.1l0.1,0.1c0,0-3.4-10.7-9.6-8.3c0,0-2.3,0.5-2.7,2.8
			c-0.1,0.4-0.1,0.8,0,1.1C145.9,267.6,146.9,267.4,146.9,267.4z"/>
		<path class="st10" d="M155.1,259.2c-2.6,1-2.5,4.7-2.5,4.7c0.2,0.7,0.4,1.5,0.7,2.2c2.1,2.1,3.6,5.5,4.1,7.2
			c0.1,0.2,0.2,0.3,0.3,0.4c0.1-1.3,0.4-5.1,1.8-8c0.1-0.9,0-1.9-0.1-2.8C158.9,258.1,155.1,259.2,155.1,259.2z"/>
		<path class="st9" d="M157.6,273.6c0,0,0.9-9.1,9.2-9.2c0,0,2-0.1,2.5,1.5s-1,3.2-2.8,3.2C164.8,269.1,162.1,270,157.6,273.6z"/>
		<g>
			<path class="st11" d="M163.1,272c-0.4-0.7-1-1.1-1.7-1.4c-1.1,0.7-2.4,1.5-3.8,2.7c-1.9-0.9-3.5-1.4-4.9-1.7
				c-0.7,0.5-1.3,1.2-1.6,2.1c-0.9,2.9,6.2,24,9.9,29.7c0.3,0.5,1,0.4,1.2-0.2C164,296.8,164.8,274.6,163.1,272z"/>
		</g>
		<g>
			<path class="st12" d="M159.9,296.2c-0.4,0.2-0.9,0.4-1.3,0.6c-0.3,0.1-0.5,0.5-0.4,0.8s0.5,0.5,0.8,0.4c0.5-0.2,1.1-0.4,1.6-0.6
				c0.1,0,0.2-0.1,0.2-0.2c0.1-0.2,0.2-0.5,0.1-0.7C160.6,296.2,160.2,296.1,159.9,296.2z"/>
			<path class="st12" d="M161.9,273.2c-1.2,0.8-2.6,1.2-4.3,1.3c-0.4,0-0.6,0.3-0.6,0.7c0,0.4,0.3,0.6,0.7,0.6
				c1.9-0.1,3.5-0.6,4.9-1.5c0.1,0,0.1-0.1,0.2-0.2c0.2-0.2,0.2-0.5,0-0.7C162.6,273.1,162.2,273,161.9,273.2z"/>
			<g>
				<path class="st12" d="M151.6,278.6c0.2-0.2,0.5-0.2,0.7-0.1c0.9,0.5,2.3,0.9,3.4,0.5c0.3-0.1,0.7,0.1,0.8,0.4
					c0.1,0.2,0,0.4-0.1,0.6c-0.1,0.1-0.2,0.2-0.3,0.2c-1.5,0.5-3.2,0-4.2-0.5"/>
				<path class="st12" d="M156.1,280.3c0.1,0,0.2-0.1,0.3-0.2c0.1-0.2,0.2-0.4,0.1-0.6c-0.1-0.3-0.5-0.5-0.8-0.4
					c-1.1,0.4-2.5,0-3.4-0.5c-0.2-0.1-0.5-0.1-0.7,0.1c0.1,0.4,0.2,0.8,0.3,1.1C153,280.4,154.7,280.8,156.1,280.3z"/>
			</g>
			<g>
				<path class="st12" d="M164,281.8c-0.9,0.9-2.3,1.7-3.9,1.7c-0.4,0-0.6-0.3-0.6-0.7c0-0.4,0.3-0.6,0.7-0.6c1.2,0,2.4-0.7,3.1-1.5
					c0.2-0.2,0.5-0.2,0.7-0.1"/>
				<path class="st12" d="M163.3,280.7c-0.7,0.8-1.9,1.5-3.1,1.5c-0.4,0-0.6,0.3-0.7,0.6c0,0.4,0.3,0.6,0.6,0.7c1.5,0,3-0.9,3.9-1.7
					c0-0.4,0-0.8,0-1.2C163.8,280.5,163.5,280.5,163.3,280.7z"/>
			</g>
			<g>
				<path class="st12" d="M153.9,286.7c0.2-0.2,0.5-0.2,0.7-0.1c0.6,0.3,1.4,0.6,2.1,0.3c0.3-0.1,0.7,0.1,0.8,0.4
					c0.1,0.2,0,0.4-0.1,0.6c-0.1,0.1-0.2,0.2-0.3,0.2c-1,0.3-2.1,0.1-2.8-0.3"/>
				<path class="st12" d="M157.2,288.2c0.1,0,0.2-0.1,0.3-0.2c0.1-0.2,0.2-0.4,0.1-0.6c-0.1-0.3-0.5-0.5-0.8-0.4
					c-0.7,0.2-1.6,0-2.1-0.3c-0.2-0.1-0.5-0.1-0.7,0.1c0.1,0.4,0.3,0.8,0.4,1.2C155.1,288.2,156.2,288.5,157.2,288.2z"/>
			</g>
			<g>
				<path class="st12" d="M163.7,291.3c-0.6,0.6-1.7,1.3-2.8,1.3c-0.4,0-0.6-0.3-0.6-0.7c0-0.4,0.3-0.6,0.7-0.6
					c0.7,0,1.5-0.5,1.9-0.9c0.2-0.3,0.6-0.3,0.9,0l0,0"/>
				<path class="st12" d="M162.8,290.4c-0.4,0.5-1.2,1-1.9,0.9c-0.4,0-0.6,0.3-0.7,0.6c0,0.4,0.3,0.6,0.6,0.7c1.2,0,2.2-0.7,2.8-1.3
					c0-0.3,0-0.6,0.1-0.9l0,0C163.5,290.1,163.1,290.1,162.8,290.4z"/>
			</g>
		</g>
	</g>
	<g>
		<path class="st7" d="M133.5,280.9c0,0-1.9-7.7,4.8-10.2c0,0,1.6-0.7,2.5,0.5s0.1,2.9-1.4,3.4C138.1,275.1,136.1,276.6,133.5,280.9
			z"/>
		<path class="st8" d="M133.5,280.9c0,0-5.3-5.9-10.6-1.9c0,0-2,1.2-1.9,2.9c0.1,1.6,2,2.2,3.2,1.1
			C125.5,281.8,128.1,280.5,133.5,280.9z"/>
		<path class="st8" d="M138.6,270.9h0.1c-0.1-0.2-0.2-0.3-0.3-0.5c-1.1-1.5-2.4-1-2.4-1c-5.9,1.8-2.8,11-2.8,11
			c0.1-0.4,0.3-0.7,0.4-1C133.4,277,133.9,272.7,138.6,270.9z"/>
		<path class="st9" d="M123,279c4.1-3.1,8.2-0.3,9.8,1.2h0.1c0,0-5.9-7.7-10.3-4c0,0-1.7,1.1-1.3,3.1c0.1,0.3,0.2,0.6,0.3,0.9
			C122.2,279.5,123,279,123,279z"/>
		<path class="st10" d="M127.2,269.9c-1.8,1.6-0.7,4.6-0.7,4.6c0.4,0.6,0.8,1.1,1.2,1.6c2.4,1.1,4.5,3.5,5.5,4.6
			c0.2,0.1,0.3,0.2,0.4,0.2c-0.3-1.1-1.2-4.3-0.9-7.1c-0.2-0.8-0.5-1.6-0.9-2.3C129.9,267.8,127.2,269.9,127.2,269.9z"/>
		<path class="st9" d="M133.5,280.9c0,0-1.9-7.7,4.8-10.2c0,0,1.6-0.7,2.5,0.5s0.1,2.9-1.4,3.4C138.1,275.1,136.1,276.6,133.5,280.9
			z"/>
		<g>
			<path class="st11" d="M137.6,278c-0.6-0.4-1.2-0.6-1.8-0.6c-0.7,0.9-1.5,2-2.3,3.4c-1.8-0.1-3.3-0.1-4.5,0.1
				c-0.4,0.6-0.8,1.3-0.7,2.2c0.1,2.7,12.2,17.7,16.9,21.3c0.4,0.3,0.9,0.1,0.9-0.5C145.6,297.9,139.7,279.6,137.6,278z"/>
		</g>
		<g>
			<path class="st12" d="M142.1,298.7c-0.3,0.3-0.6,0.6-0.9,0.8c-0.2,0.2-0.3,0.5-0.1,0.8c0.2,0.2,0.5,0.3,0.8,0.1
				c0.4-0.3,0.8-0.6,1.1-1c0.1-0.1,0.1-0.1,0.1-0.2c0.1-0.2,0-0.4-0.2-0.6C142.7,298.5,142.3,298.5,142.1,298.7z"/>
			<path class="st12" d="M136.9,279.3c-0.7,1-1.8,1.7-3.1,2.3c-0.3,0.1-0.4,0.5-0.3,0.7c0.1,0.3,0.5,0.4,0.7,0.3
				c1.5-0.7,2.7-1.6,3.5-2.7c0-0.1,0.1-0.1,0.1-0.2c0.1-0.2,0-0.5-0.2-0.6C137.4,279,137.1,279.1,136.9,279.3z"/>
			<g>
				<path class="st12" d="M130.1,286.8c0.1-0.2,0.3-0.3,0.6-0.3c0.9,0.2,2.1,0,2.9-0.6c0.2-0.2,0.6-0.1,0.8,0.1
					c0.1,0.1,0.1,0.3,0.1,0.5c0,0.1-0.1,0.2-0.2,0.3c-1.1,0.8-2.6,1-3.6,0.8"/>
				<path class="st12" d="M134.3,286.8c0.1-0.1,0.2-0.2,0.2-0.3c0-0.2,0-0.4-0.1-0.5c-0.2-0.2-0.5-0.3-0.8-0.1
					c-0.8,0.6-2,0.7-2.9,0.6c-0.2,0-0.5,0.1-0.6,0.3c0.2,0.3,0.4,0.6,0.6,0.9C131.8,287.8,133.3,287.7,134.3,286.8z"/>
			</g>
			<g>
				<path class="st12" d="M141.2,285.7c-0.5,1-1.4,2.1-2.6,2.5c-0.3,0.1-0.6-0.1-0.7-0.3c-0.1-0.3,0.1-0.6,0.3-0.7
					c0.9-0.3,1.7-1.3,2.1-2.1c0.1-0.2,0.3-0.3,0.5-0.3"/>
				<path class="st12" d="M140.3,285c-0.4,0.8-1.1,1.8-2.1,2.1c-0.3,0.1-0.4,0.4-0.3,0.7c0.1,0.3,0.4,0.4,0.7,0.3
					c1.3-0.4,2.2-1.6,2.6-2.5c-0.1-0.3-0.2-0.7-0.4-1C140.6,284.7,140.4,284.8,140.3,285z"/>
			</g>
			<g>
				<path class="st12" d="M134.4,292.7c0.1-0.2,0.3-0.3,0.6-0.3c0.6,0.1,1.3,0,1.8-0.3c0.2-0.2,0.6-0.1,0.8,0.1
					c0.1,0.1,0.1,0.3,0.1,0.5c0,0.1-0.1,0.2-0.2,0.3c-0.7,0.6-1.7,0.7-2.4,0.6"/>
				<path class="st12" d="M137.5,292.9c0.1-0.1,0.2-0.2,0.2-0.3c0-0.2,0-0.4-0.1-0.5c-0.2-0.2-0.5-0.3-0.8-0.1
					c-0.5,0.4-1.3,0.5-1.8,0.3c-0.2,0-0.5,0.1-0.6,0.3c0.2,0.3,0.5,0.6,0.7,0.9C135.8,293.6,136.8,293.5,137.5,292.9z"/>
			</g>
			<g>
				<path class="st12" d="M143.7,293.5c-0.3,0.7-1,1.6-1.9,1.9c-0.3,0.1-0.6-0.1-0.7-0.3c-0.1-0.3,0.1-0.6,0.3-0.7
					c0.6-0.2,1.1-0.8,1.3-1.3c0.1-0.3,0.4-0.4,0.7-0.3l0,0"/>
				<path class="st12" d="M142.8,293.1c-0.2,0.5-0.7,1.1-1.3,1.3c-0.3,0.1-0.4,0.4-0.3,0.7c0.1,0.3,0.4,0.4,0.7,0.3
					c0.9-0.3,1.6-1.2,1.9-1.9c-0.1-0.3-0.1-0.5-0.2-0.8l0,0C143.2,292.6,142.9,292.8,142.8,293.1z"/>
			</g>
		</g>
	</g>
	<path class="st13" d="M161.1,203.2L161.1,203.2c-0.8,0.7-2.1,0.6-2.8-0.2l-5.8-6.6c-0.7-0.8-0.6-2.1,0.2-2.8l0,0
		c0.8-0.7,2.1-0.6,2.8,0.2l5.8,6.6C162,201.2,162,202.4,161.1,203.2z"/>
	<path class="st13" d="M122,206.3L122,206.3c-1.2-1.1-1.3-2.9-0.2-4.1l8.5-9.3c1.1-1.2,2.9-1.3,4.1-0.2l0,0c1.2,1.1,1.3,2.9,0.2,4.1
		l-8.5,9.3C125,207.2,123.2,207.3,122,206.3z"/>
	<g>
		<g id="XMLID_2790_">
			<path id="XMLID_1145_" class="st1" d="M146,169.1L146,169.1c0.7-0.5,1.7-0.5,2.3,0.1l3.8,3.3c0.6,0.5,1.1,1.1,1.5,1.7l3.5,5.5
				l-3.6,2.8l-4.5-4.7c-0.5-0.5-1-1.2-1.3-1.8l-2.3-4.5C145.1,170.6,145.3,169.6,146,169.1z"/>
			<path id="XMLID_1148_" class="st14" d="M147.4,170.9c0.2-0.2,0.6-0.1,0.9,0.2l1.7,1.7c0.2,0.3,0.5,0.5,0.7,0.8l1.1,1.7
				c0.3,0.5,0.3,1.1,0,1.4s-0.9,0.1-1.3-0.4l-1.3-1.5c-0.2-0.3-0.4-0.6-0.6-0.9l-1.2-2.1C147.2,171.4,147.2,171,147.4,170.9z"/>
			<path id="XMLID_919_" class="st13" d="M148.1,173c0.7,0.3,1.3,0.7,1.9,1.2l3,2.7l3,0.9l1.1,1.8l-3.6,2.8l-4.5-4.7
				c-0.5-0.5-1-1.2-1.3-1.8l-2-4.1L148.1,173z"/>
			<path id="XMLID_1109_" class="st1" d="M144.5,187.2L144.5,187.2L161,183l-3.1,10.2c-1.7,5.6-6.4,9.7-12.1,10.6l-6.7,1.1l-13.1-4
				c-0.9-0.3-1.3-1.2-1.1-2l0.5-1.5C127.8,189.3,136.4,184.7,144.5,187.2z"/>
			<path class="st13" d="M161,183l-10.1,2.6l0,0l-1.8,0.5c-0.2,1.3-0.1,2.7,0.5,3.8l0,0c0,0,0,0,0,0.1c0.1,0.2,0.2,0.3,0.2,0.5
				c0,0,0,0.1,0.1,0.1c0.2,0.4,0.5,0.7,0.8,1l0.1,0.1c0.1,0.1,0.2,0.2,0.3,0.3c0.1,0,0.1,0.1,0.2,0.1c0.1,0.1,0.2,0.2,0.3,0.3
				c0.1,0,0.1,0.1,0.2,0.1c0.1,0.1,0.2,0.2,0.4,0.2c0.1,0,0.1,0.1,0.2,0.1c0.1,0.1,0.3,0.1,0.4,0.2c0.1,0,0.1,0.1,0.2,0.1
				c0.2,0.1,0.4,0.2,0.6,0.2l3.8,1.2l0,0c0,0,0,0,0-0.1c0.1-0.2,0.4-1.2,0.5-1.3L161,183z"/>
			<path id="XMLID_1108_" class="st1" d="M140.9,172.4L140.9,172.4c0.5-0.7,1.5-1,2.3-0.6l4.6,2.2c0.7,0.3,1.3,0.7,1.9,1.2l3,2.7
				l6.7,2.1c1.5,0.5,2.8,1.5,3.6,2.8l3.6,5.9c0.1,0.2,0.1,0.4,0.1,0.7l-0.4,1.2c-0.8,2.6-3.5,4-6,3.2l-6.2-1.9c-2.6-0.8-4-3.5-3.2-6
				l0.6-2c0.1-0.4,0-0.7-0.4-0.9l-4.9-2.9c-0.6-0.4-1.2-0.9-1.7-1.4l-3.4-3.8C140.5,174.1,140.4,173.1,140.9,172.4z"/>
			<path id="XMLID_1106_" class="st14" d="M143,173.9c0.2-0.2,0.6-0.2,0.9,0l2.1,1.2c0.3,0.2,0.6,0.4,0.9,0.6l1.5,1.3
				c0.5,0.4,0.6,1,0.4,1.3c-0.2,0.3-0.8,0.3-1.4,0l-1.7-1.1c-0.3-0.2-0.6-0.4-0.8-0.7l-1.7-1.7C142.9,174.5,142.8,174.1,143,173.9z"
				/>
			<path id="XMLID_1105_" class="st15" d="M165.8,187.5l0.7,1.2c0.1,0.2,0.1,0.4,0.1,0.7l-0.1,0.5c-0.1,0.3-0.4,0.4-0.6,0.2
				c-0.5-0.4-0.8-1.1-0.6-1.8l0.2-0.8C165.6,187.4,165.8,187.3,165.8,187.5z"/>
			<path id="XMLID_924_" class="st16" d="M160.8,184.2c0.4,0.1,0.7,0.6,0.5,1c-0.1,0.4-0.6,0.7-1,0.5c-0.4-0.1-0.7-0.6-0.5-1
				C159.9,184.3,160.3,184.1,160.8,184.2z"/>
			<path id="XMLID_1_" class="st1" d="M161.1,184.3c0.2,0.1,0.4,0.3,0.3,0.5c-0.1,0.2-0.3,0.4-0.5,0.3c-0.2-0.1-0.4-0.3-0.3-0.5
				C160.7,184.4,160.9,184.2,161.1,184.3z"/>
		</g>
	</g>
	<path class="st1" d="M156.8,206.4L156.8,206.4c-1,0.5-2.2,0-2.7-1l-3.7-7.9c-0.5-1,0-2.2,1-2.7l0,0c1-0.5,2.2,0,2.7,1l3.7,7.9
		C158.2,204.7,157.8,205.9,156.8,206.4z"/>
	<path class="st1" d="M139.8,210L139.8,210c-1.1,1.2-3,1.3-4.2,0.3l-9.8-8.7c-1.2-1.1-1.3-3-0.3-4.2l0,0c1.1-1.2,3-1.3,4.2-0.3
		l9.8,8.7C140.8,206.9,140.9,208.8,139.8,210z"/>
</g>
</svg>
