<?xml version="1.0" encoding="utf-8"?>
<!-- Generator: Adobe Illustrator 22.0.1, SVG Export Plug-In . SVG Version: 6.00 Build 0)  -->
<svg version="1.1" id="Layer_1" xmlns="http://www.w3.org/2000/svg" xmlns:xlink="http://www.w3.org/1999/xlink" x="0px" y="0px"
	 viewBox="0 0 400 500" style="enable-background:new 0 0 400 500;" xml:space="preserve">
<style type="text/css">
	.st0{fill:#FFFFFF;}
	.st1{fill:#FADC3C;}
	.st2{fill:#424A60;}
	.st3{fill:#1EAFD8;}
	.st4{fill:#FF5A00;}
	.st5{fill:#00CDC8;}
	.st6{fill:#490A3D;}
	.st7{fill:#4ECEC3;}
</style>
<g>
	<g>
		
			<ellipse transform="matrix(0.7071 -0.7071 0.7071 0.7071 -47.4878 185.3532)" class="st0" cx="200" cy="150" rx="137.6" ry="137.6"/>
		<path class="st0" d="M200,17.4c73.1,0,132.6,59.5,132.6,132.6S273.1,282.6,200,282.6S67.4,223.1,67.4,150S126.9,17.4,200,17.4
			 M200,7.4c-78.6,0-142.6,64-142.6,142.6s64,142.6,142.6,142.6s142.6-64,142.6-142.6S278.6,7.4,200,7.4L200,7.4z"/>
	</g>
	<circle class="st0" cx="200" cy="150.1" r="123.1"/>
	<circle class="st1" cx="200" cy="150.1" r="27.6"/>
	<g>
		<g>
			<path class="st2" d="M198.4,65.6c0,1.2-0.7,1.9-2.1,1.9h-11.9c-1.4,0-2.1-0.6-2.1-1.9c0-1.2,0.7-1.8,2.1-1.8h3.6v-16l-3.4,2.1
				c-0.3,0.2-0.6,0.3-0.9,0.3c-0.5,0-0.9-0.2-1.2-0.6c-0.3-0.4-0.5-0.9-0.5-1.4c0-0.7,0.3-1.2,0.9-1.6l5.4-3.4
				c0.7-0.4,1.4-0.6,2-0.6c0.7,0,1.2,0.2,1.6,0.6c0.4,0.4,0.6,0.9,0.6,1.6v19h3.7C197.7,63.8,198.4,64.4,198.4,65.6z"/>
			<path class="st2" d="M219.3,65.6c0,1.2-0.7,1.9-2.1,1.9h-13.3c-0.6,0-1.1-0.2-1.4-0.5c-0.4-0.4-0.5-0.8-0.5-1.4
				c0-0.7,0.3-1.3,0.8-1.9l8-8.6c1-1.1,1.7-2.1,2.2-3s0.7-1.8,0.7-2.7c0-1.1-0.3-1.9-0.9-2.5s-1.5-0.9-2.7-0.9c-1,0-1.9,0.2-2.8,0.5
				c-0.9,0.4-1.8,0.9-2.7,1.5c-0.2,0.2-0.5,0.3-0.7,0.4c-0.2,0.1-0.5,0.2-0.7,0.2c-0.4,0-0.7-0.2-1-0.6c-0.3-0.4-0.4-0.8-0.4-1.3
				c0-0.4,0.1-0.7,0.2-0.9c0.1-0.3,0.3-0.5,0.6-0.7c1-0.8,2.2-1.5,3.6-1.9c1.4-0.5,2.8-0.7,4.1-0.7c2.4,0,4.3,0.6,5.8,1.8
				c1.4,1.2,2.2,2.9,2.2,4.9c0,1.4-0.3,2.8-0.9,4c-0.6,1.3-1.6,2.6-3.1,4.2l-6.1,6.5h9.3C218.6,63.8,219.3,64.4,219.3,65.6z"/>
		</g>
		<g>
			<path class="st2" d="M205.2,238.7c1.1,0.7,2,1.6,2.7,2.8c0.6,1.2,1,2.6,1,4.1c0,1.6-0.4,3-1.1,4.3s-1.7,2.2-2.9,2.9
				c-1.2,0.7-2.7,1.1-4.3,1.1c-3.1,0-5.5-1.1-7.2-3.2c-1.7-2.1-2.5-5.1-2.5-9.1c0-2.7,0.4-5,1.2-7c0.8-2,1.9-3.5,3.4-4.5
				c1.5-1.1,3.2-1.6,5.2-1.6c1.3,0,2.7,0.2,4,0.7c1.3,0.5,2.5,1.1,3.4,1.9c0.3,0.3,0.5,0.5,0.6,0.8c0.1,0.2,0.2,0.5,0.2,0.9
				c0,0.5-0.1,1-0.4,1.3c-0.3,0.4-0.6,0.5-1,0.5c-0.2,0-0.5,0-0.7-0.1c-0.2-0.1-0.5-0.2-0.8-0.4c-1.9-1.4-3.7-2-5.2-2
				c-1.7,0-3.1,0.8-4,2.4c-1,1.6-1.5,3.8-1.5,6.6c0.5-1.1,1.3-1.9,2.4-2.5s2.3-0.9,3.6-0.9C202.8,237.7,204.1,238.1,205.2,238.7z
				 M203.4,249.1c0.8-0.8,1.2-1.9,1.2-3.3s-0.4-2.4-1.2-3.3c-0.8-0.8-1.8-1.2-3.1-1.2c-1.3,0-2.4,0.4-3.2,1.2
				c-0.8,0.8-1.2,1.9-1.2,3.2c0,1.4,0.4,2.4,1.2,3.3c0.8,0.8,1.9,1.2,3.2,1.2C201.6,250.3,202.7,249.9,203.4,249.1z"/>
		</g>
		<g>
			<path class="st2" d="M112.3,138.8c1.7,2.1,2.5,5.1,2.5,9.1c0,2.7-0.4,5-1.2,7c-0.8,2-1.9,3.5-3.4,4.5c-1.5,1.1-3.2,1.6-5.2,1.6
				c-1.3,0-2.7-0.2-4-0.7s-2.5-1.1-3.4-1.9c-0.3-0.3-0.5-0.5-0.6-0.8c-0.1-0.2-0.2-0.5-0.2-0.9c0-0.5,0.1-1,0.4-1.3
				c0.3-0.4,0.6-0.5,1-0.5c0.2,0,0.5,0,0.7,0.1s0.5,0.2,0.8,0.4c1.9,1.4,3.7,2,5.2,2c1.7,0,3.1-0.8,4-2.4c1-1.6,1.5-3.8,1.5-6.6
				c-0.5,1.1-1.3,1.9-2.4,2.5s-2.3,0.9-3.6,0.9c-1.5,0-2.8-0.3-3.9-1s-2-1.6-2.7-2.8c-0.6-1.2-1-2.6-1-4.1c0-1.6,0.4-3,1.1-4.3
				s1.7-2.2,2.9-2.9c1.3-0.7,2.7-1.1,4.3-1.1C108.2,135.6,110.6,136.7,112.3,138.8z M108.5,146.9c0.8-0.8,1.2-1.9,1.2-3.2
				c0-1.4-0.4-2.4-1.2-3.3c-0.8-0.8-1.9-1.2-3.2-1.2c-1.3,0-2.3,0.4-3.1,1.2c-0.8,0.8-1.2,1.9-1.2,3.3s0.4,2.4,1.2,3.3
				c0.8,0.8,1.8,1.2,3.1,1.2C106.6,148.2,107.7,147.8,108.5,146.9z"/>
		</g>
		<g>
			<path class="st2" d="M129.2,190.3c0.5,0.7,0.8,1.5,0.8,2.5c0,1.4-0.5,2.5-1.6,3.3c-1.1,0.8-2.5,1.2-4.4,1.2s-3.3-0.4-4.4-1.2
				c-1.1-0.8-1.6-1.9-1.6-3.3c0-1,0.3-1.8,0.8-2.5s1.2-1.2,2.2-1.4c-0.8-0.3-1.4-0.8-1.9-1.4s-0.7-1.4-0.7-2.3
				c0-1.3,0.5-2.4,1.5-3.1c1-0.8,2.4-1.2,4.1-1.2s3.1,0.4,4.1,1.2c1,0.8,1.5,1.8,1.5,3.1c0,0.9-0.2,1.6-0.7,2.3
				c-0.5,0.6-1.1,1.1-1.9,1.4C128,189.2,128.7,189.7,129.2,190.3z M127.2,192.6c0-1.6-1.1-2.4-3.2-2.4s-3.2,0.8-3.2,2.4
				s1.1,2.4,3.2,2.4S127.2,194.2,127.2,192.6z M121.1,185.6c0,0.8,0.2,1.4,0.7,1.8s1.2,0.6,2.1,0.6s1.6-0.2,2.1-0.6s0.7-1,0.7-1.8
				c0-1.5-0.9-2.3-2.8-2.3C122.1,183.3,121.1,184,121.1,185.6z"/>
		</g>
		<g>
			<path class="st2" d="M123.1,116.7c0,0.8-0.5,1.2-1.4,1.2h-7.6c-0.9,0-1.4-0.4-1.4-1.2s0.5-1.2,1.4-1.2h2.4v-10.2l-2.2,1.3
				c-0.2,0.1-0.4,0.2-0.6,0.2c-0.3,0-0.6-0.1-0.8-0.4c-0.2-0.3-0.3-0.6-0.3-0.9c0-0.4,0.2-0.8,0.6-1l3.5-2.2
				c0.5-0.3,0.9-0.4,1.3-0.4s0.8,0.1,1,0.4c0.3,0.3,0.4,0.6,0.4,1.1v12.3h2.3C122.6,115.6,123.1,116,123.1,116.7z"/>
			<path class="st2" d="M126.4,116c-1-1.4-1.5-3.4-1.5-6.1c0-2.7,0.5-4.7,1.5-6.1c1-1.4,2.4-2.1,4.3-2.1c1.9,0,3.3,0.7,4.3,2.1
				c1,1.4,1.5,3.4,1.5,6.1s-0.5,4.7-1.5,6.1c-1,1.4-2.4,2.1-4.3,2.1C128.9,118.1,127.4,117.4,126.4,116z M133,114.4
				c0.5-0.9,0.7-2.4,0.7-4.5s-0.2-3.6-0.7-4.5s-1.2-1.4-2.2-1.4s-1.8,0.5-2.2,1.4c-0.5,0.9-0.7,2.4-0.7,4.5s0.2,3.5,0.7,4.5
				c0.5,0.9,1.2,1.4,2.2,1.4S132.5,115.4,133,114.4z"/>
		</g>
		<g>
			<path class="st2" d="M152.5,83.6c0,0.8-0.5,1.2-1.4,1.2h-7.6c-0.9,0-1.4-0.4-1.4-1.2s0.5-1.2,1.4-1.2h2.4V72.1l-2.2,1.3
				c-0.2,0.1-0.4,0.2-0.6,0.2c-0.3,0-0.6-0.1-0.8-0.4c-0.2-0.3-0.3-0.6-0.3-0.9c0-0.4,0.2-0.8,0.6-1l3.5-2.2
				c0.5-0.3,0.9-0.4,1.3-0.4s0.8,0.1,1,0.4c0.3,0.3,0.4,0.6,0.4,1.1v12.3h2.4C152.1,82.5,152.5,82.9,152.5,83.6z"/>
			<path class="st2" d="M166.1,83.6c0,0.8-0.5,1.2-1.4,1.2h-7.6c-0.9,0-1.4-0.4-1.4-1.2s0.5-1.2,1.4-1.2h2.4V72.1l-2.2,1.3
				c-0.2,0.1-0.4,0.2-0.6,0.2c-0.3,0-0.6-0.1-0.8-0.4c-0.2-0.3-0.3-0.6-0.3-0.9c0-0.4,0.2-0.8,0.6-1l3.5-2.2
				c0.5-0.3,0.9-0.4,1.3-0.4c0.4,0,0.8,0.1,1,0.4c0.3,0.3,0.4,0.6,0.4,1.1v12.3h2.4C165.6,82.5,166.1,82.9,166.1,83.6z"/>
		</g>
		<g>
			<path class="st2" d="M280.9,116.7c0,0.8-0.5,1.2-1.4,1.2h-8.6c-0.4,0-0.7-0.1-0.9-0.4c-0.2-0.2-0.3-0.5-0.3-0.9
				c0-0.5,0.2-0.9,0.5-1.2l5.2-5.5c0.6-0.7,1.1-1.3,1.4-1.9c0.3-0.6,0.4-1.2,0.4-1.7c0-0.7-0.2-1.3-0.6-1.6c-0.4-0.4-1-0.6-1.7-0.6
				c-0.6,0-1.2,0.1-1.8,0.4c-0.6,0.2-1.2,0.6-1.8,1c-0.2,0.1-0.3,0.2-0.5,0.3c-0.2,0.1-0.3,0.1-0.5,0.1c-0.3,0-0.5-0.1-0.7-0.4
				c-0.2-0.2-0.3-0.5-0.3-0.9c0-0.2,0-0.4,0.1-0.6c0.1-0.2,0.2-0.3,0.4-0.5c0.7-0.5,1.4-0.9,2.3-1.3c0.9-0.3,1.8-0.5,2.7-0.5
				c1.6,0,2.8,0.4,3.7,1.2s1.4,1.8,1.4,3.2c0,0.9-0.2,1.8-0.6,2.6s-1.1,1.7-2,2.7l-3.9,4.2h6C280.4,115.6,280.9,116,280.9,116.7z"/>
		</g>
		<g>
			<path class="st2" d="M281.1,192c0.2,0.2,0.3,0.5,0.3,0.8c0,0.8-0.5,1.1-1.4,1.1h-1.2v1.8c0,0.5-0.1,0.8-0.4,1.1
				c-0.3,0.3-0.6,0.4-1,0.4s-0.8-0.1-1-0.4c-0.3-0.3-0.4-0.6-0.4-1.1v-1.8h-5.9c-0.4,0-0.7-0.1-1-0.4c-0.2-0.2-0.3-0.5-0.3-0.9
				s0.1-0.7,0.4-1l7-10c0.2-0.2,0.3-0.4,0.6-0.5c0.2-0.1,0.5-0.2,0.7-0.2c0.4,0,0.7,0.1,1,0.4c0.3,0.3,0.4,0.6,0.4,1.1v9.2h1.2
				C280.6,191.7,280.9,191.8,281.1,192z M271.9,191.7h4.2v-6.1L271.9,191.7z"/>
		</g>
		<g>
			<path class="st2" d="M251.9,222.6c0.8,0.4,1.4,1,1.8,1.8s0.6,1.7,0.6,2.6c0,1-0.2,2-0.7,2.8s-1.1,1.4-2,1.9
				c-0.9,0.4-1.9,0.7-3,0.7c-0.9,0-1.9-0.2-2.7-0.5c-0.9-0.3-1.7-0.7-2.3-1.3c-0.3-0.3-0.5-0.7-0.5-1.1c0-0.3,0.1-0.6,0.3-0.8
				c0.2-0.2,0.4-0.4,0.7-0.4c0.2,0,0.3,0,0.4,0.1s0.3,0.1,0.5,0.3c0.6,0.4,1.2,0.7,1.8,1s1.2,0.3,1.8,0.3c1,0,1.8-0.2,2.3-0.7
				s0.8-1.2,0.8-2.1s-0.3-1.6-0.8-2.1s-1.3-0.8-2.2-0.8c-0.6,0-1.1,0.1-1.6,0.2c-0.5,0.2-0.9,0.4-1.4,0.8c-0.3,0.2-0.6,0.3-0.9,0.3
				s-0.6-0.1-0.8-0.3c-0.2-0.2-0.3-0.4-0.3-0.7v-7.1c0-0.4,0.1-0.8,0.4-1c0.2-0.2,0.6-0.4,1-0.4h7.5c0.9,0,1.4,0.4,1.4,1.1
				c0,0.8-0.5,1.1-1.4,1.1h-6.1v4.3c0.8-0.5,1.7-0.8,2.8-0.8C250.3,222,251.2,222.2,251.9,222.6z"/>
		</g>
		<g>
			<path class="st2" d="M158.9,216.6c0.2,0.2,0.3,0.5,0.3,0.8s-0.1,0.7-0.3,1.1l-7.2,13.1c-0.3,0.5-0.7,0.8-1.2,0.8
				c-0.4,0-0.7-0.1-1-0.4c-0.3-0.2-0.4-0.6-0.4-0.9s0.1-0.5,0.2-0.8l6.5-11.7H149c-0.9,0-1.4-0.4-1.4-1.2c0-0.8,0.5-1.2,1.4-1.2h9.1
				C158.4,216.3,158.7,216.4,158.9,216.6z"/>
		</g>
		<g>
			<path class="st2" d="M254.3,83.6c0,0.8-0.5,1.2-1.4,1.2h-7.6c-0.9,0-1.4-0.4-1.4-1.2s0.5-1.2,1.4-1.2h2.4V72.1l-2.2,1.3
				c-0.2,0.1-0.4,0.2-0.6,0.2c-0.3,0-0.6-0.1-0.8-0.4c-0.2-0.3-0.3-0.6-0.3-0.9c0-0.4,0.2-0.8,0.6-1l3.5-2.2
				c0.5-0.3,0.9-0.4,1.3-0.4s0.8,0.1,1,0.4c0.3,0.3,0.4,0.6,0.4,1.1v12.3h2.4C253.9,82.5,254.3,82.9,254.3,83.6z"/>
		</g>
		<g>
			<path class="st2" d="M303.1,150.1c0.8,1,1.2,2.3,1.2,3.9c0,2.1-0.8,3.8-2.4,5.1s-3.7,1.9-6.3,1.9c-1.5,0-3-0.2-4.4-0.7
				s-2.6-1.1-3.6-2c-0.5-0.5-0.8-1-0.8-1.6c0-0.5,0.1-1,0.4-1.3s0.6-0.5,1-0.5c0.2,0,0.4,0,0.6,0.1s0.4,0.2,0.8,0.4
				c1,0.7,1.9,1.2,2.8,1.5c0.9,0.4,1.9,0.5,2.9,0.5c1.5,0,2.7-0.3,3.4-0.9c0.7-0.6,1.1-1.6,1.1-2.8s-0.4-2.2-1.2-2.8
				c-0.8-0.6-2-0.9-3.6-0.9h-2c-0.5,0-1-0.2-1.2-0.5c-0.3-0.4-0.4-0.8-0.4-1.2c0-0.5,0.1-0.9,0.4-1.3c0.3-0.4,0.7-0.5,1.2-0.5h1.4
				c3.2,0,4.8-1.2,4.8-3.6c0-1.1-0.3-2-1-2.6s-1.6-0.9-2.8-0.9c-1.7,0-3.5,0.7-5.5,2c-0.3,0.2-0.6,0.3-0.8,0.4
				c-0.2,0.1-0.4,0.1-0.6,0.1c-0.4,0-0.7-0.2-1-0.5c-0.3-0.4-0.4-0.8-0.4-1.3c0-0.4,0.1-0.6,0.2-0.9c0.1-0.2,0.3-0.5,0.6-0.8
				c1-0.8,2.2-1.5,3.5-1.9c1.4-0.5,2.8-0.7,4.2-0.7c2.4,0,4.4,0.6,5.8,1.8s2.2,2.8,2.2,4.8c0,1.4-0.4,2.5-1.1,3.6
				c-0.7,1-1.7,1.8-2.9,2.2C301.2,148.3,302.4,149,303.1,150.1z"/>
		</g>
	</g>
	<path class="st3" d="M200,282.6c-73.1,0-132.6-59.5-132.6-132.6S126.9,17.4,200,17.4S332.6,76.9,332.6,150S273.1,282.6,200,282.6z
		 M200,36.4c-62.7,0-113.6,51-113.6,113.6s51,113.6,113.6,113.6s113.7-50.9,113.7-113.5S262.7,36.4,200,36.4z"/>
	<path class="st4" d="M192.8,193.7v-44.4c0-4,3.3-7.4,7.4-7.4c4,0,7.4,3.3,7.4,7.4v44.4c0,4-3.3,7.4-7.4,7.4
		C196.1,201.1,192.7,197.8,192.8,193.7z"/>
	<path class="st5" d="M200,140.6c-2.6,0-4.7-2.1-4.7-4.7V83.8c0-2.6,2.1-4.7,4.7-4.7s4.7,2.1,4.7,4.7v52.1
		C204.8,138.5,202.7,140.6,200,140.6z"/>
	<g>
		<circle class="st0" cx="200" cy="150.1" r="18.5"/>
		<path class="st2" d="M200,169c-10.4,0-18.9-8.5-18.9-18.9s8.5-18.9,18.9-18.9s18.9,8.5,18.9,18.9S210.5,169,200,169z M200,140.6
			c-5.2,0-9.5,4.2-9.5,9.5c0,5.2,4.2,9.5,9.5,9.5c5.2,0,9.5-4.2,9.5-9.5S205.3,140.6,200,140.6z"/>
	</g>
</g>
<g>
	<g>
		<path class="st0" d="M284.3,364.7H121.7c-12.7,0-23-10.3-23-23v0c0-12.7,10.3-23,23-23h162.7c12.7,0,23,10.3,23,23v0
			C307.3,354.4,297,364.7,284.3,364.7z"/>
	</g>
	<g>
		<path class="st4" d="M179,352.9c0,1.4-0.8,2.1-2.4,2.1h-13.5c-1.6,0-2.4-0.7-2.4-2.1c0-1.4,0.8-2,2.4-2h4.2v-18.2l-3.8,2.4
			c-0.4,0.2-0.7,0.3-1,0.3c-0.6,0-1-0.2-1.4-0.7c-0.4-0.5-0.6-1-0.6-1.6c0-0.8,0.3-1.4,1-1.8l6.2-3.8c0.8-0.5,1.6-0.7,2.3-0.7
			c0.7,0,1.3,0.2,1.8,0.7c0.5,0.5,0.7,1.1,0.7,1.9v21.7h4.2C178.2,350.9,179,351.6,179,352.9z"/>
		<path class="st6" d="M184.6,340.2c-0.6-0.6-0.8-1.3-0.8-2.1c0-0.9,0.3-1.6,0.8-2.1c0.6-0.6,1.3-0.8,2.1-0.8s1.6,0.3,2.1,0.8
			c0.6,0.6,0.8,1.3,0.8,2.1c0,0.9-0.3,1.6-0.8,2.1c-0.6,0.6-1.3,0.9-2.1,0.9S185.1,340.8,184.6,340.2z M184.6,354.4
			c-0.6-0.6-0.8-1.3-0.8-2.1s0.3-1.6,0.8-2.1c0.6-0.6,1.3-0.9,2.1-0.9s1.6,0.3,2.1,0.9c0.6,0.6,0.8,1.3,0.8,2.1s-0.3,1.6-0.8,2.1
			c-0.6,0.6-1.3,0.9-2.1,0.9S185.1,355,184.6,354.4z"/>
		<path class="st5" d="M197.2,351.7c-1.8-2.5-2.6-6.1-2.6-10.8c0-4.7,0.9-8.3,2.6-10.7c1.8-2.5,4.3-3.7,7.6-3.7
			c3.3,0,5.9,1.2,7.6,3.7c1.8,2.5,2.6,6,2.6,10.7c0,4.7-0.9,8.3-2.6,10.8c-1.8,2.5-4.3,3.7-7.6,3.7
			C201.5,355.4,199,354.2,197.2,351.7z M208.8,348.9c0.8-1.7,1.2-4.3,1.2-7.9c0-3.7-0.4-6.3-1.2-7.9c-0.8-1.6-2.1-2.5-4-2.5
			c-1.8,0-3.1,0.8-4,2.5c-0.8,1.7-1.2,4.3-1.2,7.9c0,3.6,0.4,6.3,1.2,7.9c0.8,1.7,2.1,2.5,4,2.5C206.7,351.4,208,350.5,208.8,348.9z
			"/>
		<path class="st5" d="M222.4,351.7c-1.8-2.5-2.6-6.1-2.6-10.8c0-4.7,0.9-8.3,2.6-10.7s4.3-3.7,7.6-3.7c3.3,0,5.9,1.2,7.6,3.7
			c1.8,2.5,2.6,6,2.6,10.7c0,4.7-0.9,8.3-2.6,10.8c-1.8,2.5-4.3,3.7-7.6,3.7C226.7,355.4,224.2,354.2,222.4,351.7z M234,348.9
			c0.8-1.7,1.2-4.3,1.2-7.9c0-3.7-0.4-6.3-1.2-7.9c-0.8-1.6-2.1-2.5-4-2.5c-1.8,0-3.1,0.8-4,2.5c-0.8,1.7-1.2,4.3-1.2,7.9
			c0,3.6,0.4,6.3,1.2,7.9c0.8,1.7,2.1,2.5,4,2.5C231.9,351.4,233.2,350.5,234,348.9z"/>
	</g>
</g>
<g>
	<g>
		<path class="st0" d="M65.1,416.4c0,1.2-0.7,1.8-2,1.8H52c-1.3,0-2-0.6-2-1.8c0-1.1,0.7-1.7,2-1.7h3.4v-15.1l-3.2,1.9
			c-0.3,0.2-0.6,0.3-0.8,0.3c-0.5,0-0.9-0.2-1.2-0.6c-0.3-0.4-0.5-0.8-0.5-1.3c0-0.6,0.3-1.1,0.9-1.5l5.1-3.2
			c0.7-0.4,1.3-0.6,1.9-0.6c0.6,0,1.1,0.2,1.5,0.6c0.4,0.4,0.6,0.9,0.6,1.6v17.9h3.5C64.5,414.7,65.1,415.2,65.1,416.4z"/>
		<path class="st4" d="M92.7,408.2v8.1c0,0.6-0.2,1.1-0.5,1.5c-0.4,0.4-0.9,0.5-1.5,0.5s-1.1-0.2-1.5-0.5c-0.4-0.4-0.6-0.8-0.6-1.5
			v-8.1c0-1.2-0.2-2-0.7-2.6c-0.5-0.5-1.2-0.8-2.2-0.8c-1.2,0-2.1,0.4-2.9,1.1s-1.1,1.8-1.1,3v7.4c0,0.6-0.2,1.1-0.6,1.5
			c-0.4,0.4-0.9,0.5-1.5,0.5c-0.6,0-1.1-0.2-1.5-0.5c-0.4-0.4-0.5-0.8-0.5-1.5v-19.8c0-0.6,0.2-1,0.6-1.4s0.9-0.5,1.5-0.5
			c0.6,0,1.1,0.2,1.5,0.5c0.4,0.3,0.6,0.8,0.6,1.4v7.7c0.6-0.9,1.3-1.5,2.2-2c0.9-0.5,2-0.7,3.1-0.7
			C90.8,401.6,92.7,403.8,92.7,408.2z"/>
		<path class="st4" d="M99.9,417.3c-1.2-0.7-2.2-1.7-2.9-2.9s-1-2.8-1-4.5c0-1.7,0.3-3.2,1-4.4c0.7-1.3,1.6-2.2,2.9-2.9
			c1.2-0.7,2.7-1,4.3-1s3.1,0.3,4.3,1s2.2,1.7,2.9,2.9c0.7,1.3,1,2.7,1,4.4c0,1.7-0.3,3.2-1,4.5c-0.7,1.3-1.6,2.3-2.9,2.9
			c-1.2,0.7-2.7,1-4.3,1S101.1,418,99.9,417.3z M107.3,413.8c0.7-0.9,1.1-2.2,1.1-3.9c0-1.7-0.4-3-1.1-3.9c-0.7-0.9-1.7-1.3-3-1.3
			s-2.3,0.4-3.1,1.3c-0.7,0.9-1.1,2.2-1.1,3.9c0,1.7,0.4,3,1.1,3.9c0.7,0.9,1.7,1.3,3,1.3C105.5,415.2,106.6,414.7,107.3,413.8z"/>
		<path class="st4" d="M126.2,402c0.3,0.3,0.5,0.7,0.5,1.3c0,0.6-0.1,1-0.4,1.3s-0.8,0.5-1.6,0.6l-1,0.1c-1.3,0.1-2.3,0.6-2.9,1.3
			c-0.6,0.7-0.9,1.7-0.9,2.8v6.9c0,0.6-0.2,1.1-0.6,1.5s-0.9,0.5-1.5,0.5s-1.1-0.2-1.5-0.5s-0.6-0.8-0.6-1.5v-12.8
			c0-0.6,0.2-1.1,0.6-1.4s0.9-0.5,1.4-0.5c0.6,0,1,0.2,1.4,0.5c0.4,0.3,0.5,0.8,0.5,1.4v1.3c0.4-1,1-1.7,1.9-2.2s1.7-0.8,2.8-0.9
			l0.5,0C125.5,401.6,125.9,401.7,126.2,402z"/>
		<path class="st4" d="M140.5,403.2c1.1,1.1,1.6,2.8,1.6,5.1v8.1c0,0.6-0.2,1.1-0.5,1.4c-0.4,0.3-0.8,0.5-1.5,0.5
			c-0.6,0-1-0.2-1.4-0.5c-0.4-0.4-0.5-0.8-0.5-1.4v-0.7c-0.4,0.9-1,1.5-1.8,2c-0.8,0.5-1.7,0.7-2.8,0.7c-1.1,0-2.1-0.2-2.9-0.7
			c-0.9-0.4-1.6-1-2.1-1.8c-0.5-0.8-0.8-1.6-0.8-2.6c0-1.2,0.3-2.1,0.9-2.8c0.6-0.7,1.6-1.2,3-1.5c1.4-0.3,3.2-0.5,5.6-0.5h0.8v-0.8
			c0-1.1-0.2-1.9-0.7-2.4c-0.5-0.5-1.2-0.7-2.2-0.7c-0.6,0-1.3,0.1-1.9,0.3c-0.7,0.2-1.4,0.5-2.3,0.8c-0.6,0.3-1,0.4-1.3,0.4
			c-0.4,0-0.7-0.1-1-0.4c-0.3-0.3-0.4-0.7-0.4-1.1c0-0.4,0.1-0.7,0.3-1c0.2-0.3,0.5-0.5,0.9-0.8c0.8-0.4,1.7-0.7,2.8-1
			c1.1-0.2,2.1-0.4,3.2-0.4C137.7,401.6,139.4,402.1,140.5,403.2z M137.1,414.3c0.7-0.7,1-1.7,1-2.9v-0.7h-0.6
			c-1.5,0-2.6,0.1-3.4,0.2c-0.8,0.1-1.4,0.4-1.8,0.7s-0.5,0.8-0.5,1.4c0,0.7,0.2,1.3,0.7,1.7c0.5,0.5,1.1,0.7,1.8,0.7
			C135.5,415.4,136.4,415,137.1,414.3z"/>
		<path class="st0" d="M155.6,406.4c-0.3-0.3-0.4-0.6-0.4-1s0.1-0.8,0.4-1c0.3-0.3,0.6-0.4,1-0.4h13.2c0.4,0,0.8,0.1,1,0.4
			s0.4,0.6,0.4,1.1c0,0.4-0.1,0.7-0.4,1s-0.6,0.4-1,0.4h-13.2C156.2,406.8,155.8,406.7,155.6,406.4z M155.6,413
			c-0.3-0.3-0.4-0.6-0.4-1c0-0.4,0.1-0.8,0.4-1c0.3-0.3,0.6-0.4,1-0.4h13.2c0.4,0,0.8,0.1,1,0.4s0.4,0.6,0.4,1.1
			c0,0.4-0.1,0.7-0.4,1s-0.6,0.4-1,0.4h-13.2C156.2,413.4,155.8,413.3,155.6,413z"/>
		<path class="st0" d="M196.9,404.1c1.1,0.6,1.9,1.5,2.5,2.6c0.6,1.1,0.9,2.4,0.9,3.9c0,1.5-0.3,2.8-1,4c-0.7,1.2-1.6,2.1-2.8,2.8
			c-1.2,0.7-2.5,1-4,1c-3,0-5.2-1-6.8-3c-1.6-2-2.4-4.8-2.4-8.5c0-2.5,0.4-4.7,1.1-6.6s1.8-3.3,3.2-4.3c1.4-1,3-1.5,4.9-1.5
			c1.3,0,2.5,0.2,3.8,0.7c1.3,0.5,2.3,1.1,3.2,1.8c0.3,0.2,0.5,0.5,0.6,0.7c0.1,0.2,0.2,0.5,0.2,0.8c0,0.5-0.1,0.9-0.4,1.2
			c-0.3,0.3-0.6,0.5-1,0.5c-0.2,0-0.4,0-0.6-0.1s-0.4-0.2-0.7-0.4c-1.8-1.3-3.5-1.9-4.9-1.9c-1.6,0-2.9,0.7-3.8,2.2
			s-1.4,3.6-1.5,6.3c0.5-1,1.3-1.8,2.3-2.4c1-0.6,2.1-0.9,3.4-0.9C194.6,403.2,195.8,403.5,196.9,404.1z M195.2,413.9
			c0.7-0.8,1.1-1.8,1.1-3.1c0-1.3-0.4-2.3-1.1-3.1c-0.7-0.8-1.7-1.2-2.9-1.2c-1.2,0-2.2,0.4-3,1.2c-0.8,0.8-1.1,1.8-1.1,3.1
			c0,1.3,0.4,2.3,1.1,3.1c0.8,0.8,1.8,1.2,3,1.2C193.5,415,194.5,414.6,195.2,413.9z"/>
		<path class="st0" d="M205.3,415.3c-1.5-2-2.2-5-2.2-8.9c0-3.9,0.7-6.8,2.2-8.9c1.5-2,3.6-3.1,6.3-3.1c2.8,0,4.9,1,6.3,3.1
			s2.2,5,2.2,8.9s-0.7,6.8-2.2,8.9c-1.5,2-3.6,3.1-6.3,3.1C208.9,418.4,206.8,417.4,205.3,415.3z M214.9,413c0.7-1.4,1-3.6,1-6.6
			c0-3-0.3-5.2-1-6.6c-0.7-1.4-1.8-2-3.3-2s-2.6,0.7-3.3,2c-0.7,1.4-1,3.5-1,6.5c0,3,0.3,5.2,1,6.6c0.7,1.4,1.8,2.1,3.3,2.1
			S214.2,414.4,214.9,413z"/>
		<path class="st7" d="M255.9,403.1c0.9,1,1.4,2.7,1.4,5.1v8.1c0,0.6-0.2,1.1-0.6,1.5c-0.4,0.3-0.9,0.5-1.5,0.5
			c-0.6,0-1.1-0.2-1.5-0.5c-0.4-0.3-0.6-0.8-0.6-1.5v-8.1c0-1.2-0.2-2.1-0.6-2.6s-1.1-0.8-2-0.8c-1.1,0-1.9,0.4-2.6,1.1
			c-0.6,0.7-1,1.7-1,3v7.4c0,0.6-0.2,1.1-0.6,1.5c-0.4,0.3-0.9,0.5-1.5,0.5s-1.1-0.2-1.5-0.5s-0.6-0.8-0.6-1.5v-8.1
			c0-1.2-0.2-2.1-0.6-2.6s-1.1-0.8-2-0.8c-1.1,0-1.9,0.4-2.6,1.1c-0.6,0.7-0.9,1.7-0.9,3v7.4c0,0.6-0.2,1.1-0.6,1.5
			s-0.9,0.5-1.5,0.5s-1.1-0.2-1.5-0.5s-0.6-0.8-0.6-1.5v-12.8c0-0.6,0.2-1.1,0.6-1.4s0.9-0.5,1.5-0.5c0.6,0,1,0.2,1.4,0.5
			c0.4,0.3,0.5,0.8,0.5,1.4v0.8c0.5-0.9,1.2-1.6,2-2c0.8-0.5,1.8-0.7,2.9-0.7c2.4,0,4,1,4.9,3c0.5-0.9,1.2-1.7,2.1-2.2
			c0.9-0.5,2-0.8,3.2-0.8C253.6,401.6,254.9,402.1,255.9,403.1z"/>
		<path class="st7" d="M261.7,398.1c-0.4-0.4-0.7-0.9-0.7-1.6c0-0.7,0.2-1.2,0.7-1.6c0.4-0.4,1-0.6,1.8-0.6c0.7,0,1.3,0.2,1.8,0.6
			c0.5,0.4,0.7,0.9,0.7,1.6c0,0.7-0.2,1.2-0.7,1.6c-0.4,0.4-1,0.6-1.8,0.6C262.8,398.7,262.2,398.5,261.7,398.1z M262,417.8
			c-0.4-0.3-0.6-0.8-0.6-1.5v-12.8c0-0.6,0.2-1.1,0.6-1.5s0.9-0.5,1.5-0.5s1.1,0.2,1.5,0.5s0.6,0.8,0.6,1.5v12.8
			c0,0.6-0.2,1.1-0.6,1.5s-0.9,0.5-1.5,0.5S262.4,418.1,262,417.8z"/>
		<path class="st7" d="M283.6,403.2c0.9,1.1,1.4,2.8,1.4,5v8.1c0,0.6-0.2,1.1-0.5,1.5c-0.4,0.4-0.9,0.5-1.5,0.5s-1.1-0.2-1.5-0.5
			c-0.4-0.4-0.6-0.8-0.6-1.5v-7.9c0-1.3-0.2-2.2-0.7-2.7c-0.5-0.6-1.2-0.9-2.2-0.9c-1.2,0-2.1,0.4-2.9,1.1s-1.1,1.8-1.1,3v7.4
			c0,0.6-0.2,1.1-0.6,1.5c-0.4,0.4-0.9,0.5-1.5,0.5c-0.6,0-1.1-0.2-1.5-0.5c-0.4-0.4-0.5-0.8-0.5-1.5v-12.8c0-0.6,0.2-1,0.6-1.4
			c0.4-0.4,0.9-0.5,1.5-0.5c0.6,0,1,0.2,1.4,0.5c0.4,0.3,0.5,0.8,0.5,1.3v0.9c0.5-0.9,1.3-1.6,2.2-2.1c0.9-0.5,2-0.7,3.1-0.7
			C281.2,401.6,282.6,402.1,283.6,403.2z"/>
		<path class="st7" d="M303.5,402.1c0.4,0.4,0.6,0.8,0.6,1.4v12.8c0,0.6-0.2,1-0.6,1.4s-0.9,0.5-1.5,0.5c-0.6,0-1.1-0.2-1.4-0.5
			s-0.5-0.8-0.5-1.4v-0.8c-0.5,0.9-1.2,1.6-2,2s-1.8,0.7-2.9,0.7c-4,0-5.9-2.2-5.9-6.7v-8.1c0-0.6,0.2-1.1,0.6-1.4
			c0.4-0.4,0.9-0.5,1.5-0.5c0.6,0,1.1,0.2,1.5,0.5c0.4,0.4,0.6,0.8,0.6,1.4v8.2c0,1.1,0.2,2,0.7,2.5c0.5,0.6,1.2,0.8,2.2,0.8
			c1.1,0,2.1-0.4,2.8-1.1c0.7-0.8,1-1.8,1-3v-7.4c0-0.6,0.2-1.1,0.6-1.4c0.4-0.4,0.9-0.5,1.5-0.5
			C302.6,401.6,303.1,401.8,303.5,402.1z"/>
		<path class="st7" d="M318.4,416.7c0,0.5-0.2,0.9-0.6,1.2c-0.4,0.3-1,0.4-1.8,0.3l-0.9-0.1c-3.7-0.3-5.6-2.2-5.6-5.9v-7.2h-1.7
			c-0.6,0-1.1-0.1-1.4-0.4c-0.3-0.3-0.5-0.7-0.5-1.2s0.2-0.9,0.5-1.2c0.3-0.3,0.8-0.4,1.4-0.4h1.7v-3c0-0.6,0.2-1.1,0.6-1.4
			c0.4-0.4,0.9-0.5,1.5-0.5c0.6,0,1.1,0.2,1.5,0.5c0.4,0.4,0.6,0.8,0.6,1.4v3h2.8c0.6,0,1.1,0.1,1.4,0.4c0.3,0.3,0.5,0.6,0.5,1.2
			s-0.2,0.9-0.5,1.2c-0.3,0.3-0.8,0.4-1.4,0.4h-2.8v7.5c0,1.6,0.7,2.5,2.2,2.6l0.9,0.1C317.8,415.3,318.4,415.8,318.4,416.7z"/>
		<path class="st7" d="M323.5,417.3c-1.2-0.7-2.2-1.7-2.9-2.9s-1-2.8-1-4.5c0-1.7,0.3-3.2,1-4.4c0.7-1.3,1.6-2.2,2.9-2.9
			c1.2-0.7,2.7-1,4.3-1s3.1,0.3,4.3,1s2.2,1.7,2.9,2.9c0.7,1.3,1,2.7,1,4.4c0,1.7-0.3,3.2-1,4.5c-0.7,1.3-1.6,2.3-2.9,2.9
			c-1.2,0.7-2.7,1-4.3,1S324.8,418,323.5,417.3z M330.9,413.8c0.7-0.9,1.1-2.2,1.1-3.9c0-1.7-0.4-3-1.1-3.9c-0.7-0.9-1.7-1.3-3-1.3
			s-2.3,0.4-3.1,1.3c-0.7,0.9-1.1,2.2-1.1,3.9c0,1.7,0.4,3,1.1,3.9c0.7,0.9,1.7,1.3,3,1.3C329.2,415.2,330.2,414.7,330.9,413.8z"/>
		<path class="st7" d="M339.5,416.9c-0.7-0.4-1.1-1-1.1-1.8c0-0.4,0.1-0.8,0.4-1.1s0.5-0.4,0.9-0.4c0.4,0,0.9,0.2,1.6,0.5
			c0.7,0.3,1.3,0.6,1.9,0.8c0.6,0.2,1.3,0.3,2.2,0.3c0.9,0,1.6-0.2,2.2-0.5s0.8-0.7,0.8-1.3c0-0.4-0.1-0.7-0.3-0.9
			c-0.2-0.2-0.6-0.4-1.1-0.6c-0.5-0.2-1.4-0.4-2.5-0.6c-2-0.4-3.4-1-4.2-1.7s-1.3-1.7-1.3-3c0-1,0.3-1.8,0.9-2.6
			c0.6-0.8,1.4-1.4,2.4-1.8c1-0.4,2.1-0.6,3.4-0.6c0.9,0,1.8,0.1,2.7,0.3c0.9,0.2,1.6,0.6,2.3,1c0.7,0.4,1.1,1,1.1,1.8
			c0,0.4-0.1,0.8-0.4,1.1s-0.5,0.4-0.9,0.4c-0.2,0-0.5,0-0.7-0.1c-0.2-0.1-0.5-0.2-0.9-0.4c-0.6-0.3-1.2-0.6-1.7-0.7
			c-0.5-0.2-1-0.2-1.7-0.2c-0.8,0-1.5,0.2-1.9,0.5c-0.5,0.3-0.7,0.8-0.7,1.4c0,0.6,0.2,1,0.7,1.3c0.5,0.3,1.4,0.6,2.8,0.9
			c1.5,0.3,2.6,0.7,3.5,1.1s1.4,0.9,1.8,1.5c0.4,0.6,0.5,1.4,0.5,2.3c0,1.5-0.6,2.7-1.9,3.6c-1.2,0.9-2.9,1.4-5,1.4
			C343,418.4,341,417.9,339.5,416.9z"/>
	</g>
</g>
</svg>
