<?xml version="1.0" encoding="utf-8"?>
<!-- Generator: Adobe Illustrator 22.0.1, SVG Export Plug-In . SVG Version: 6.00 Build 0)  -->
<svg version="1.1" id="Layer_1" xmlns="http://www.w3.org/2000/svg" xmlns:xlink="http://www.w3.org/1999/xlink" x="0px" y="0px"
	 viewBox="0 0 512 512" style="enable-background:new 0 0 512 512;" xml:space="preserve">
<style type="text/css">
	.st0{fill:#FFFFFF;}
	.st1{fill:#ADB2BC;}
	.st2{fill:#424A60;}
	.st3{fill:#FADC3C;}
	.st4{fill:#C7CFE2;}
	.st5{fill:#FF5A00;}
	.st6{fill:#00CDC8;}
	.st7{fill:#C7CEDD;}
</style>
<g>
	<path class="st0" d="M381.2,504c-6.8,0-13.4-2.7-18.1-7.5l-23.7-23.7c-26.5,14-56.2,21.3-86.3,21.3c-29.1,0-58-6.9-83.8-20.1
		l-22.4,22.4c-4.9,4.8-11.5,7.5-18.1,7.5c-6.7,0-13.2-2.7-18-7.5c-9.9-9.9-9.9-26.1,0-36.1l16.1-16.1
		C89.2,409.1,67.7,360,67.7,308.6c0-43.3,15.2-85.2,42.9-118.4l-0.7-0.7l-33.3,33.3c-1,1-2.3,1.5-3.5,1.5s-2.6-0.5-3.5-1.5
		c-24.4-24.2-28.7-61.7-11.1-90.8c-3.7-3.4-5.8-8.2-5.8-13.3c0-10,8.1-18.1,18.1-18.1c5.1,0,10,2.2,13.3,5.9
		C95.5,99.6,108.6,96,122.2,96c19.8,0,38.5,7.7,52.6,21.8c0.9,0.9,1.5,2.2,1.5,3.5s-0.5,2.6-1.5,3.5l-36.3,36.3l1.2,1.2
		c32.4-25.1,72.5-38.9,113.5-38.9c40.6,0,80.5,13.6,112.7,38.3l4.1-4.1l-32.7-32.7c-0.9-0.9-1.5-2.2-1.5-3.5s0.5-2.6,1.5-3.5
		c14-14,32.7-21.8,52.5-21.8c14.9,0,29.6,4.5,41.9,12.9c3.1-2.3,6.8-3.6,10.8-3.6c10,0,18.1,8.1,18.1,18.1c0,4.7-1.8,9-4.9,12.3
		c15.2,28.7,10,64-13.2,87.3c-0.9,0.9-2.2,1.5-3.5,1.5s-2.6-0.5-3.5-1.5l-36.8-36.8l-3.5,3.5c28.1,33.4,43.5,75.5,43.5,119.2
		c0,50.4-20.8,98.9-57.3,133.9l17.8,17.8c9.9,9.9,9.9,26.1,0,36.1C394.4,501.3,387.8,504,381.2,504z"/>
	<path class="st0" d="M389.7,101c14.9,0,29.9,4.8,42.3,14.4c2.4-3.1,6.1-5.1,10.3-5.1c7.2,0,13.1,5.8,13.1,13.1
		c0,4.7-2.5,8.9-6.3,11.1c16.1,26.7,12.7,61.9-10.3,84.9l-40.3-40.3l-10.3,10.3c28.2,31.8,45.3,73.7,45.3,119.4
		c0,53-23,100.7-59.5,133.7l21.5,21.5c8,8,8,21,0,29c-3.9,3.9-9.3,6-14.4,6c-5.3,0-10.6-2-14.6-6l-26.3-26.3
		c-25.9,14.3-55.6,22.5-87.2,22.5c-30.6,0-59.5-7.7-84.8-21.2l-25,25c-4.1,3.9-9.4,6-14.6,6c-5.2,0-10.5-2-14.4-6c-8-8-8-21,0-29
		l19.8-19.8c-37.6-33.1-61.4-81.6-61.4-135.5c0-45.4,16.9-87,44.7-118.7l-7.5-7.5L73,219.3c-24.2-24.2-26.7-61.7-7.8-88.8
		c-4.5-2-7.7-6.6-7.7-11.9c0-7.2,5.8-13.1,13.1-13.1c5.3,0,9.9,3.2,11.9,7.7c12-8.1,25.8-12.2,39.7-12.2c17.7,0,35.5,6.8,49.1,20.3
		l-39.8,39.8l7.9,7.9c31.1-25.4,70.7-40.6,113.8-40.6c42.8,0,82.1,15,113.1,40l10.8-10.8l-36.3-36.3C354.3,107.8,372,101,389.7,101
		 M389.7,91c-21.2,0-41.1,8.2-56,23.2c-1.9,1.9-2.9,4.4-2.9,7.1s1.1,5.2,2.9,7.1l16.9,16.9c-10.5-6.3-21.6-11.6-33.1-15.7
		c-20.6-7.4-42.3-11.2-64.4-11.2c-22.3,0-44.1,3.8-64.9,11.4c-6.8,2.5-13.5,5.3-19.9,8.6l10-10c1.9-1.9,2.9-4.4,2.9-7.1
		s-1.1-5.2-2.9-7.1c-15-15-35-23.2-56.1-23.2c-13.2,0-26,3.2-37.5,9.4c-3.9-3-8.8-4.7-14-4.7c-12.7,0-23.1,10.3-23.1,23
		c0,5.1,1.7,10,4.7,14c-7.2,13.4-10.5,28.9-9.2,44.2c1.5,18.7,9.7,36.3,23,49.6c2,2,4.5,2.9,7.1,2.9s5.1-1,7.1-2.9l2.5-2.5
		c-13.1,26.2-20,55.2-20,84.9c0,51.1,20.7,100,57,135.7L107.3,457c-11.9,11.9-11.9,31.2,0,43.1c5.7,5.7,13.5,8.9,21.5,8.9
		c7.9,0,15.7-3.2,21.5-8.8l0.1-0.1l19.9-19.9c25.7,12.5,54.2,19,82.8,19c29.6,0,58.9-7,85.3-20.2l21.1,21.1
		c5.7,5.7,13.5,8.9,21.6,8.9c8,0,15.8-3.2,21.5-8.9c5.8-5.8,8.9-13.4,8.9-21.6c0-8.1-3.2-15.8-8.9-21.6l-14.3-14.3
		c16-16.1,28.8-34.7,38.2-55.4c11.2-24.7,16.9-51.2,16.9-78.5c0-34.5-9.4-68.2-26.9-97.5l15.2,15.2c1.9,1.9,4.4,2.9,7.1,2.9
		s5.2-1.1,7.1-2.9c12.8-12.8,20.7-29.1,22.7-47c1.7-14.8-0.8-29.8-7.1-43.2c2.6-3.7,4-8.2,4-13c0-12.7-10.3-23.1-23.1-23.1
		c-3.8,0-7.5,0.9-10.8,2.7C419.1,95.2,404.5,91,389.7,91v10V91L389.7,91L389.7,91z"/>
</g>
<g>
	<path class="st1" d="M344.4,211.6c-6-6-6-15.5,0-21.5l45.4-45.4c6-6,15.5-6,21.5,0s6,15.5,0,21.5l-45.4,45.4c-3,3-6.8,4.5-10.7,4.5
		C351.4,216.1,347.4,214.6,344.4,211.6z"/>
	<path class="st1" d="M149.7,216.1c-3.9,0-7.8-1.5-10.7-4.5l-45.4-45.4c-6-6-6-15.5,0-21.5s15.5-6,21.5,0l45.4,45.4
		c6,6,6,15.5,0,21.5C157.5,214.6,153.5,216.1,149.7,216.1z"/>
	<path class="st2" d="M128.8,499c-5.2,0-10.5-2-14.4-6c-8-8-8-21,0-29l80.4-80.4c8-8,21-8,29,0s8,21,0,29L143.3,493
		C139.3,497,134,499,128.8,499z"/>
	<path class="st2" d="M366.6,493l-80.4-80.4c-8-8-8-21,0-29s21-8,29,0l80.4,80.4c8,8,8,21,0,29c-3.9,3.9-9.3,6-14.4,6
		C375.9,499,370.6,497,366.6,493z"/>
	<circle class="st0" cx="253.1" cy="308.9" r="167.5"/>
	<circle class="st3" cx="253.1" cy="308.9" r="37.6"/>
	<g>
		<g>
			<path class="st2" d="M251,194c0,1.6-1,2.6-2.9,2.6h-16.2c-1.9,0-2.9-0.8-2.9-2.6c0-1.6,1-2.4,2.9-2.4h4.9v-21.8l-4.6,2.9
				c-0.4,0.3-0.8,0.4-1.2,0.4c-0.7,0-1.2-0.3-1.6-0.8c-0.4-0.5-0.7-1.2-0.7-1.9c0-1,0.4-1.6,1.2-2.2l7.3-4.6c1-0.5,1.9-0.8,2.7-0.8
				c1,0,1.6,0.3,2.2,0.8c0.5,0.5,0.8,1.2,0.8,2.2v25.9h5C250,191.5,251,192.3,251,194z"/>
			<path class="st2" d="M279.4,194c0,1.6-1,2.6-2.9,2.6h-18.1c-0.8,0-1.5-0.3-1.9-0.7c-0.5-0.5-0.7-1.1-0.7-1.9c0-1,0.4-1.8,1.1-2.6
				l10.9-11.7c1.4-1.5,2.3-2.9,3-4.1s1-2.4,1-3.7c0-1.5-0.4-2.6-1.2-3.4c-0.8-0.8-2-1.2-3.7-1.2c-1.4,0-2.6,0.3-3.8,0.7
				c-1.2,0.5-2.4,1.2-3.7,2c-0.3,0.3-0.7,0.4-1,0.5c-0.3,0.1-0.7,0.3-1,0.3c-0.5,0-1-0.3-1.4-0.8s-0.5-1.1-0.5-1.8
				c0-0.5,0.1-1,0.3-1.2c0.1-0.4,0.4-0.7,0.8-1c1.4-1.1,3-2,4.9-2.6c1.9-0.7,3.8-1,5.6-1c3.3,0,5.9,0.8,7.9,2.4c1.9,1.6,3,3.9,3,6.7
				c0,1.9-0.4,3.8-1.2,5.4c-0.8,1.8-2.2,3.5-4.2,5.7l-8.3,8.8H277C278.4,191.5,279.4,192.3,279.4,194z"/>
		</g>
		<g>
			<path class="st2" d="M260.2,429.5c1.5,1,2.7,2.2,3.7,3.8c0.8,1.6,1.4,3.5,1.4,5.6c0,2.2-0.5,4.1-1.5,5.9s-2.3,3-3.9,3.9
				c-1.6,1-3.7,1.5-5.9,1.5c-4.2,0-7.5-1.5-9.8-4.4s-3.4-6.9-3.4-12.4c0-3.7,0.5-6.8,1.6-9.5s2.6-4.8,4.6-6.1c2-1.5,4.4-2.2,7.1-2.2
				c1.8,0,3.7,0.3,5.4,1s3.4,1.5,4.6,2.6c0.4,0.4,0.7,0.7,0.8,1.1c0.1,0.3,0.3,0.7,0.3,1.2c0,0.7-0.1,1.4-0.5,1.8
				c-0.4,0.5-0.8,0.7-1.4,0.7c-0.3,0-0.7,0-1-0.1s-0.7-0.3-1.1-0.5c-2.6-1.9-5-2.7-7.1-2.7c-2.3,0-4.2,1.1-5.4,3.3
				c-1.4,2.2-2,5.2-2,9c0.7-1.5,1.8-2.6,3.3-3.4s3.1-1.2,4.9-1.2C257,428.1,258.7,428.7,260.2,429.5z M257.8,443.6
				c1.1-1.1,1.6-2.6,1.6-4.5s-0.5-3.3-1.6-4.5c-1.1-1.1-2.4-1.6-4.2-1.6s-3.3,0.5-4.4,1.6c-1.1,1.1-1.6,2.6-1.6,4.4
				c0,1.9,0.5,3.3,1.6,4.5c1.1,1.1,2.6,1.6,4.4,1.6C255.3,445.3,256.8,444.7,257.8,443.6z"/>
		</g>
		<g>
			<path class="st2" d="M133.8,293.6c2.3,2.9,3.4,6.9,3.4,12.4c0,3.7-0.5,6.8-1.6,9.5s-2.6,4.8-4.6,6.1c-2,1.5-4.4,2.2-7.1,2.2
				c-1.8,0-3.7-0.3-5.4-1c-1.8-0.7-3.4-1.5-4.6-2.6c-0.4-0.4-0.7-0.7-0.8-1.1c-0.1-0.3-0.3-0.7-0.3-1.2c0-0.7,0.1-1.4,0.5-1.8
				c0.4-0.5,0.8-0.7,1.4-0.7c0.3,0,0.7,0,1,0.1s0.7,0.3,1.1,0.5c2.6,1.9,5,2.7,7.1,2.7c2.3,0,4.2-1.1,5.4-3.3c1.4-2.2,2-5.2,2-9
				c-0.7,1.5-1.8,2.6-3.3,3.4s-3.1,1.2-4.9,1.2c-2,0-3.8-0.4-5.3-1.4s-2.7-2.2-3.7-3.8c-0.8-1.6-1.4-3.5-1.4-5.6
				c0-2.2,0.5-4.1,1.5-5.9c1-1.8,2.3-3,3.9-3.9c1.8-1,3.7-1.5,5.9-1.5C128.2,289.2,131.5,290.7,133.8,293.6z M128.7,304.6
				c1.1-1.1,1.6-2.6,1.6-4.4c0-1.9-0.5-3.3-1.6-4.5c-1.1-1.1-2.6-1.6-4.4-1.6s-3.1,0.5-4.2,1.6s-1.6,2.6-1.6,4.5s0.5,3.3,1.6,4.5
				c1.1,1.1,2.4,1.6,4.2,1.6C126.1,306.3,127.6,305.8,128.7,304.6z"/>
		</g>
		<g>
			<path class="st2" d="M156.8,363.6c0.7,1,1.1,2,1.1,3.4c0,1.9-0.7,3.4-2.2,4.5s-3.4,1.6-6,1.6s-4.5-0.5-6-1.6s-2.2-2.6-2.2-4.5
				c0-1.4,0.4-2.4,1.1-3.4s1.6-1.6,3-1.9c-1.1-0.4-1.9-1.1-2.6-1.9s-1-1.9-1-3.1c0-1.8,0.7-3.3,2-4.2c1.4-1.1,3.3-1.6,5.6-1.6
				s4.2,0.5,5.6,1.6c1.4,1.1,2,2.4,2,4.2c0,1.2-0.3,2.2-1,3.1c-0.7,0.8-1.5,1.5-2.6,1.9C155.2,362.1,156.1,362.8,156.8,363.6z
				 M154.1,366.8c0-2.2-1.5-3.3-4.4-3.3s-4.4,1.1-4.4,3.3c0,2.2,1.5,3.3,4.4,3.3C152.6,370,154.1,368.9,154.1,366.8z M145.8,357.2
				c0,1.1,0.3,1.9,1,2.4s1.6,0.8,2.9,0.8c1.2,0,2.2-0.3,2.9-0.8s1-1.4,1-2.4c0-2-1.2-3.1-3.8-3.1
				C147.2,354.1,145.8,355.1,145.8,357.2z"/>
		</g>
		<g>
			<path class="st2" d="M148.5,263.5c0,1.1-0.7,1.6-1.9,1.6h-10.3c-1.2,0-1.9-0.5-1.9-1.6s0.7-1.6,1.9-1.6h3.3V248l-3,1.8
				c-0.3,0.1-0.5,0.3-0.8,0.3c-0.4,0-0.8-0.1-1.1-0.5s-0.4-0.8-0.4-1.2c0-0.5,0.3-1.1,0.8-1.4l4.8-3c0.7-0.4,1.2-0.5,1.8-0.5
				c0.5,0,1.1,0.1,1.4,0.5c0.4,0.4,0.5,0.8,0.5,1.5v16.7h3.1C147.8,262,148.5,262.5,148.5,263.5z"/>
			<path class="st2" d="M153,262.5c-1.4-1.9-2-4.6-2-8.3s0.7-6.4,2-8.3c1.4-1.9,3.3-2.9,5.9-2.9c2.6,0,4.5,1,5.9,2.9s2,4.6,2,8.3
				s-0.7,6.4-2,8.3c-1.4,1.9-3.3,2.9-5.9,2.9C156.4,265.4,154.4,264.4,153,262.5z M162,260.4c0.7-1.2,1-3.3,1-6.1
				c0-2.9-0.3-4.9-1-6.1s-1.6-1.9-3-1.9s-2.4,0.7-3,1.9c-0.7,1.2-1,3.3-1,6.1c0,2.9,0.3,4.8,1,6.1c0.7,1.2,1.6,1.9,3,1.9
				S161.3,261.7,162,260.4z"/>
		</g>
		<g>
			<path class="st2" d="M188.5,218.5c0,1.1-0.7,1.6-1.9,1.6h-10.3c-1.2,0-1.9-0.5-1.9-1.6s0.7-1.6,1.9-1.6h3.3v-14l-3,1.8
				c-0.3,0.1-0.5,0.3-0.8,0.3c-0.4,0-0.8-0.1-1.1-0.5s-0.4-0.8-0.4-1.2c0-0.5,0.3-1.1,0.8-1.4l4.8-3c0.7-0.4,1.2-0.5,1.8-0.5
				c0.5,0,1.1,0.1,1.4,0.5c0.4,0.4,0.5,0.8,0.5,1.5V217h3.3C188,217,188.5,217.5,188.5,218.5z"/>
			<path class="st2" d="M207,218.5c0,1.1-0.7,1.6-1.9,1.6h-10.3c-1.2,0-1.9-0.5-1.9-1.6s0.7-1.6,1.9-1.6h3.3v-14l-3,1.8
				c-0.3,0.1-0.5,0.3-0.8,0.3c-0.4,0-0.8-0.1-1.1-0.5s-0.4-0.8-0.4-1.2c0-0.5,0.3-1.1,0.8-1.4l4.8-3c0.7-0.4,1.2-0.5,1.8-0.5
				c0.5,0,1.1,0.1,1.4,0.5c0.4,0.4,0.5,0.8,0.5,1.5V217h3.3C206.3,217,207,217.5,207,218.5z"/>
		</g>
		<g>
			<path class="st2" d="M363.2,263.5c0,1.1-0.7,1.6-1.9,1.6h-11.7c-0.5,0-1-0.1-1.2-0.5c-0.3-0.3-0.4-0.7-0.4-1.2
				c0-0.7,0.3-1.2,0.7-1.6l7.1-7.5c0.8-1,1.5-1.8,1.9-2.6s0.5-1.6,0.5-2.3c0-1-0.3-1.8-0.8-2.2c-0.5-0.5-1.4-0.8-2.3-0.8
				c-0.8,0-1.6,0.1-2.4,0.5c-0.8,0.3-1.6,0.8-2.4,1.4c-0.3,0.1-0.4,0.3-0.7,0.4c-0.3,0.1-0.4,0.1-0.7,0.1c-0.4,0-0.7-0.1-1-0.5
				c-0.3-0.3-0.4-0.7-0.4-1.2c0-0.3,0-0.5,0.1-0.8s0.3-0.4,0.5-0.7c1-0.7,1.9-1.2,3.1-1.8c1.2-0.4,2.4-0.7,3.7-0.7
				c2.2,0,3.8,0.5,5,1.6s1.9,2.4,1.9,4.4c0,1.2-0.3,2.4-0.8,3.5s-1.5,2.3-2.7,3.7L353,262h8.2C362.5,262,363.2,262.5,363.2,263.5z"
				/>
		</g>
		<g>
			<path class="st2" d="M363.5,365.9c0.3,0.3,0.4,0.7,0.4,1.1c0,1.1-0.7,1.5-1.9,1.5h-1.6v2.4c0,0.7-0.1,1.1-0.5,1.5
				s-0.8,0.5-1.4,0.5c-0.5,0-1.1-0.1-1.4-0.5c-0.4-0.4-0.5-0.8-0.5-1.5v-2.4h-8c-0.5,0-1-0.1-1.4-0.5c-0.3-0.3-0.4-0.7-0.4-1.2
				s0.1-1,0.5-1.4l9.5-13.6c0.3-0.3,0.4-0.5,0.8-0.7c0.3-0.1,0.7-0.3,1-0.3c0.5,0,1,0.1,1.4,0.5s0.5,0.8,0.5,1.5v12.5h1.6
				C362.8,365.5,363.2,365.7,363.5,365.9z M351,365.5h5.7v-8.3L351,365.5z"/>
		</g>
		<g>
			<path class="st2" d="M323.8,407.6c1.1,0.5,1.9,1.4,2.4,2.4c0.5,1.1,0.8,2.3,0.8,3.5c0,1.4-0.3,2.7-1,3.8
				c-0.7,1.1-1.5,1.9-2.7,2.6c-1.2,0.5-2.6,1-4.1,1c-1.2,0-2.6-0.3-3.7-0.7c-1.2-0.4-2.3-1-3.1-1.8c-0.4-0.4-0.7-1-0.7-1.5
				c0-0.4,0.1-0.8,0.4-1.1c0.3-0.3,0.5-0.5,1-0.5c0.3,0,0.4,0,0.5,0.1s0.4,0.1,0.7,0.4c0.8,0.5,1.6,1,2.4,1.4s1.6,0.4,2.4,0.4
				c1.4,0,2.4-0.3,3.1-1s1.1-1.6,1.1-2.9c0-1.2-0.4-2.2-1.1-2.9c-0.7-0.7-1.8-1.1-3-1.1c-0.8,0-1.5,0.1-2.2,0.3
				c-0.7,0.3-1.2,0.5-1.9,1.1c-0.4,0.3-0.8,0.4-1.2,0.4c-0.4,0-0.8-0.1-1.1-0.4c-0.3-0.3-0.4-0.5-0.4-1v-9.7c0-0.5,0.1-1.1,0.5-1.4
				c0.3-0.3,0.8-0.5,1.4-0.5h10.2c1.2,0,1.9,0.5,1.9,1.5c0,1.1-0.7,1.5-1.9,1.5h-8.3v5.9c1.1-0.7,2.3-1.1,3.8-1.1
				C321.6,406.8,322.8,407,323.8,407.6z"/>
		</g>
		<g>
			<path class="st2" d="M197.2,399.4c0.3,0.3,0.4,0.7,0.4,1.1s-0.1,1-0.4,1.5l-9.8,17.8c-0.4,0.7-1,1.1-1.6,1.1
				c-0.5,0-1-0.1-1.4-0.5c-0.4-0.3-0.5-0.8-0.5-1.2s0.1-0.7,0.3-1.1l8.8-15.9h-9.3c-1.2,0-1.9-0.5-1.9-1.6s0.7-1.6,1.9-1.6h12.4
				C196.5,399,197,399.1,197.2,399.4z"/>
		</g>
		<g>
			<path class="st2" d="M327,218.5c0,1.1-0.7,1.6-1.9,1.6h-10.3c-1.2,0-1.9-0.5-1.9-1.6s0.7-1.6,1.9-1.6h3.3v-14l-3,1.8
				c-0.3,0.1-0.5,0.3-0.8,0.3c-0.4,0-0.8-0.1-1.1-0.5c-0.3-0.4-0.4-0.8-0.4-1.2c0-0.5,0.3-1.1,0.8-1.4l4.8-3
				c0.7-0.4,1.2-0.5,1.8-0.5s1.1,0.1,1.4,0.5c0.4,0.4,0.5,0.8,0.5,1.5V217h3.3C326.5,217,327,217.5,327,218.5z"/>
		</g>
		<g>
			<path class="st2" d="M393.4,308.9c1.1,1.4,1.6,3.1,1.6,5.3c0,2.9-1.1,5.2-3.3,6.9s-5,2.6-8.6,2.6c-2,0-4.1-0.3-6-1
				s-3.5-1.5-4.9-2.7c-0.7-0.7-1.1-1.4-1.1-2.2c0-0.7,0.1-1.4,0.5-1.8s0.8-0.7,1.4-0.7c0.3,0,0.5,0,0.8,0.1s0.5,0.3,1.1,0.5
				c1.4,1,2.6,1.6,3.8,2c1.2,0.5,2.6,0.7,3.9,0.7c2,0,3.7-0.4,4.6-1.2c1-0.8,1.5-2.2,1.5-3.8c0-1.6-0.5-3-1.6-3.8s-2.7-1.2-4.9-1.2
				h-2.7c-0.7,0-1.4-0.3-1.6-0.7c-0.4-0.5-0.5-1.1-0.5-1.6c0-0.7,0.1-1.2,0.5-1.8c0.4-0.5,1-0.7,1.6-0.7h1.9c4.4,0,6.5-1.6,6.5-4.9
				c0-1.5-0.4-2.7-1.4-3.5c-1-0.8-2.2-1.2-3.8-1.2c-2.3,0-4.8,1-7.5,2.7c-0.4,0.3-0.8,0.4-1.1,0.5c-0.3,0.1-0.5,0.1-0.8,0.1
				c-0.5,0-1-0.3-1.4-0.7c-0.4-0.5-0.5-1.1-0.5-1.8c0-0.5,0.1-0.8,0.3-1.2c0.1-0.3,0.4-0.7,0.8-1.1c1.4-1.1,3-2,4.8-2.6
				c1.9-0.7,3.8-1,5.7-1c3.3,0,6,0.8,7.9,2.4c1.9,1.6,3,3.8,3,6.5c0,1.9-0.5,3.4-1.5,4.9c-1,1.4-2.3,2.4-3.9,3
				C390.8,306.5,392.5,307.4,393.4,308.9z"/>
		</g>
	</g>
	<path class="st4" d="M253.1,489.2c-99.5,0-180.4-81-180.4-180.4s81-180.4,180.4-180.4s180.4,81,180.4,180.4
		S352.6,489.2,253.1,489.2z M253.1,154.2c-85.3,0-154.6,69.4-154.6,154.6S168,463.4,253.1,463.4S407.8,394.1,407.8,309
		S338.5,154.2,253.1,154.2z"/>
	<path class="st5" d="M281.5,363.6l-35.7-48.8c-3.2-4.5-2.3-10.8,2.2-14s10.8-2.3,14,2.2l35.7,48.8c3.2,4.5,2.3,10.8-2.2,14
		C291.2,369,284.7,368.2,281.5,363.6z"/>
	<path class="st6" d="M253.1,296c-3.5,0-6.4-2.9-6.4-6.4v-70.9c0-3.5,2.9-6.4,6.4-6.4s6.4,2.9,6.4,6.4v70.9
		C259.7,293.1,256.8,296,253.1,296z"/>
	<circle class="st1" cx="70.7" cy="118.7" r="13.1"/>
	<circle class="st1" cx="442.4" cy="123.3" r="13.1"/>
	<path class="st7" d="M73.1,121.3c-27.1,27.1-27.1,71,0,98.1l98.1-98.1C144,94.2,100.2,94.2,73.1,121.3z"/>
	<path class="st7" d="M340.8,121.3l98.1,98.1c27.1-27.1,27.1-71,0-98.1C411.6,94.2,367.8,94.2,340.8,121.3z"/>
	<g>
		<circle class="st0" cx="253.1" cy="308.9" r="25.2"/>
		<path class="st2" d="M253.1,334.6c-14.1,0-25.7-11.6-25.7-25.7s11.6-25.7,25.7-25.7c14.1,0,25.7,11.6,25.7,25.7
			C278.9,323.1,267.4,334.6,253.1,334.6z M253.1,296c-7.1,0-12.9,5.7-12.9,12.9c0,7.1,5.7,12.9,12.9,12.9c7.1,0,12.9-5.7,12.9-12.9
			C266.1,301.7,260.4,296,253.1,296z"/>
	</g>
</g>
</svg>
