<?xml version="1.0" encoding="utf-8"?>
<!-- Generator: Adobe Illustrator 22.0.1, SVG Export Plug-In . SVG Version: 6.00 Build 0)  -->
<svg version="1.1" id="Layer_1" xmlns="http://www.w3.org/2000/svg" xmlns:xlink="http://www.w3.org/1999/xlink" x="0px" y="0px"
	 viewBox="0 0 512 512" style="enable-background:new 0 0 512 512;" xml:space="preserve">
<style type="text/css">
	.st0{fill:#FFFFFF;}
	.st1{fill:#FADC3C;}
	.st2{fill:#424A60;}
	.st3{fill:#1EAFD8;}
	.st4{fill:#FF5A00;}
	.st5{fill:#00CDC8;}
</style>
<g>
	<circle class="st0" cx="256" cy="291" r="207.4"/>
	<path class="st0" d="M256,88.6c111.6,0,202.4,90.8,202.4,202.4S367.6,493.4,256,493.4S53.6,402.6,53.6,291S144.4,88.6,256,88.6
		 M256,78.6C138.9,78.6,43.6,173.9,43.6,291S138.9,503.4,256,503.4S468.4,408.1,468.4,291S373.1,78.6,256,78.6L256,78.6z"/>
</g>
<g>
	<circle class="st0" cx="256" cy="291.2" r="187.9"/>
	<circle class="st1" cx="256" cy="291.2" r="42.1"/>
	<g>
		<g>
			<path class="st2" d="M253.6,162.2c0,1.8-1.1,2.9-3.2,2.9h-18.2c-2.1,0-3.2-0.9-3.2-2.9c0-1.8,1.1-2.7,3.2-2.7h5.5V135l-5.2,3.2
				c-0.5,0.3-0.9,0.5-1.4,0.5c-0.8,0-1.4-0.3-1.8-0.9c-0.5-0.6-0.8-1.4-0.8-2.1c0-1.1,0.5-1.8,1.4-2.4l8.2-5.2
				c1.1-0.6,2.1-0.9,3.1-0.9c1.1,0,1.8,0.3,2.4,0.9c0.6,0.6,0.9,1.4,0.9,2.4v29h5.6C252.5,159.4,253.6,160.3,253.6,162.2z"/>
			<path class="st2" d="M285.5,162.2c0,1.8-1.1,2.9-3.2,2.9H262c-0.9,0-1.7-0.3-2.1-0.8c-0.6-0.6-0.8-1.2-0.8-2.1
				c0-1.1,0.5-2,1.2-2.9l12.2-13.1c1.5-1.7,2.6-3.2,3.4-4.6c0.8-1.4,1.1-2.7,1.1-4.1c0-1.7-0.5-2.9-1.4-3.8
				c-0.9-0.9-2.3-1.4-4.1-1.4c-1.5,0-2.9,0.3-4.3,0.8c-1.4,0.6-2.7,1.4-4.1,2.3c-0.3,0.3-0.8,0.5-1.1,0.6c-0.3,0.2-0.8,0.3-1.1,0.3
				c-0.6,0-1.1-0.3-1.5-0.9c-0.5-0.6-0.6-1.2-0.6-2c0-0.6,0.2-1.1,0.3-1.4c0.2-0.5,0.5-0.8,0.9-1.1c1.5-1.2,3.4-2.3,5.5-2.9
				c2.1-0.8,4.3-1.1,6.3-1.1c3.7,0,6.6,0.9,8.9,2.7c2.1,1.8,3.4,4.4,3.4,7.5c0,2.1-0.5,4.3-1.4,6.1c-0.9,2-2.4,4-4.7,6.4l-9.3,9.9
				h14.2C284.4,159.4,285.5,160.3,285.5,162.2z"/>
		</g>
		<g>
			<path class="st2" d="M263.9,426.4c1.7,1.1,3.1,2.4,4.1,4.3c0.9,1.8,1.5,4,1.5,6.3c0,2.4-0.6,4.6-1.7,6.6s-2.6,3.4-4.4,4.4
				s-4.1,1.7-6.6,1.7c-4.7,0-8.4-1.7-11-4.9c-2.6-3.2-3.8-7.8-3.8-13.9c0-4.1,0.6-7.6,1.8-10.7s2.9-5.3,5.2-6.9
				c2.3-1.7,4.9-2.4,7.9-2.4c2,0,4.1,0.3,6.1,1.1c2,0.8,3.8,1.7,5.2,2.9c0.5,0.5,0.8,0.8,0.9,1.2c0.2,0.3,0.3,0.8,0.3,1.4
				c0,0.8-0.2,1.5-0.6,2c-0.5,0.6-0.9,0.8-1.5,0.8c-0.3,0-0.8,0-1.1-0.2s-0.8-0.3-1.2-0.6c-2.9-2.1-5.6-3.1-7.9-3.1
				c-2.6,0-4.7,1.2-6.1,3.7c-1.5,2.4-2.3,5.8-2.3,10.1c0.8-1.7,2-2.9,3.7-3.8s3.5-1.4,5.5-1.4C260.3,424.9,262.3,425.5,263.9,426.4z
				 M261.2,442.3c1.2-1.2,1.8-2.9,1.8-5s-0.6-3.7-1.8-5c-1.2-1.2-2.7-1.8-4.7-1.8s-3.7,0.6-4.9,1.8c-1.2,1.2-1.8,2.9-1.8,4.9
				c0,2.1,0.6,3.7,1.8,5c1.2,1.2,2.9,1.8,4.9,1.8C258.4,444.1,260.1,443.5,261.2,442.3z"/>
		</g>
		<g>
			<path class="st2" d="M122.1,273.9c2.6,3.2,3.8,7.8,3.8,13.9c0,4.1-0.6,7.6-1.8,10.7c-1.2,3.1-2.9,5.3-5.2,6.9
				c-2.3,1.7-4.9,2.4-7.9,2.4c-2,0-4.1-0.3-6.1-1.1c-2-0.8-3.8-1.7-5.2-2.9c-0.5-0.5-0.8-0.8-0.9-1.2c-0.2-0.3-0.3-0.8-0.3-1.4
				c0-0.8,0.2-1.5,0.6-2c0.5-0.6,0.9-0.8,1.5-0.8c0.3,0,0.8,0,1.1,0.2c0.3,0.2,0.8,0.3,1.2,0.6c2.9,2.1,5.6,3.1,7.9,3.1
				c2.6,0,4.7-1.2,6.1-3.7c1.5-2.4,2.3-5.8,2.3-10.1c-0.8,1.7-2,2.9-3.7,3.8s-3.5,1.4-5.5,1.4c-2.3,0-4.3-0.5-6-1.5
				c-1.7-1.1-3.1-2.4-4.1-4.3c-0.9-1.8-1.5-4-1.5-6.3c0-2.4,0.6-4.6,1.7-6.6s2.6-3.4,4.4-4.4c2-1.1,4.1-1.7,6.6-1.7
				C115.9,269,119.5,270.7,122.1,273.9z M116.3,286.3c1.2-1.2,1.8-2.9,1.8-4.9c0-2.1-0.6-3.7-1.8-5c-1.2-1.2-2.9-1.8-4.9-1.8
				s-3.5,0.6-4.7,1.8c-1.2,1.2-1.8,2.9-1.8,5s0.6,3.7,1.8,5c1.2,1.2,2.7,1.8,4.7,1.8C113.4,288.3,115.1,287.6,116.3,286.3z"/>
		</g>
		<g>
			<path class="st2" d="M147.9,352.5c0.8,1.1,1.2,2.3,1.2,3.8c0,2.1-0.8,3.8-2.4,5s-3.8,1.8-6.7,1.8s-5-0.6-6.7-1.8
				c-1.7-1.2-2.4-2.9-2.4-5c0-1.5,0.5-2.7,1.2-3.8c0.8-1.1,1.8-1.8,3.4-2.1c-1.2-0.5-2.1-1.2-2.9-2.1c-0.8-0.9-1.1-2.1-1.1-3.5
				c0-2,0.8-3.7,2.3-4.7c1.5-1.2,3.7-1.8,6.3-1.8s4.7,0.6,6.3,1.8c1.5,1.2,2.3,2.7,2.3,4.7c0,1.4-0.3,2.4-1.1,3.5
				c-0.8,0.9-1.7,1.7-2.9,2.1C146.1,350.8,147.1,351.6,147.9,352.5z M144.9,356c0-2.4-1.7-3.7-4.9-3.7s-4.9,1.2-4.9,3.7
				c0,2.4,1.7,3.7,4.9,3.7S144.9,358.5,144.9,356z M135.5,345.3c0,1.2,0.3,2.1,1.1,2.7s1.8,0.9,3.2,0.9s2.4-0.3,3.2-0.9
				s1.1-1.5,1.1-2.7c0-2.3-1.4-3.5-4.3-3.5C137.1,341.8,135.5,342.9,135.5,345.3z"/>
		</g>
		<g>
			<path class="st2" d="M138.6,240.2c0,1.2-0.8,1.8-2.1,1.8h-11.6c-1.4,0-2.1-0.6-2.1-1.8s0.8-1.8,2.1-1.8h3.7v-15.6l-3.4,2
				c-0.3,0.2-0.6,0.3-0.9,0.3c-0.5,0-0.9-0.2-1.2-0.6c-0.3-0.5-0.5-0.9-0.5-1.4c0-0.6,0.3-1.2,0.9-1.5l5.3-3.4
				c0.8-0.5,1.4-0.6,2-0.6s1.2,0.2,1.5,0.6c0.5,0.5,0.6,0.9,0.6,1.7v18.8h3.5C137.8,238.5,138.6,239.1,138.6,240.2z"/>
			<path class="st2" d="M143.6,239.1c-1.5-2.1-2.3-5.2-2.3-9.3s0.8-7.2,2.3-9.3s3.7-3.2,6.6-3.2s5,1.1,6.6,3.2
				c1.5,2.1,2.3,5.2,2.3,9.3s-0.8,7.2-2.3,9.3s-3.7,3.2-6.6,3.2C147.5,242.3,145.2,241.2,143.6,239.1z M153.7,236.7
				c0.8-1.4,1.1-3.7,1.1-6.9s-0.3-5.5-1.1-6.9s-1.8-2.1-3.4-2.1s-2.7,0.8-3.4,2.1c-0.8,1.4-1.1,3.7-1.1,6.9s0.3,5.3,1.1,6.9
				c0.8,1.4,1.8,2.1,3.4,2.1S153,238.2,153.7,236.7z"/>
		</g>
		<g>
			<path class="st2" d="M183.5,189.6c0,1.2-0.8,1.8-2.1,1.8h-11.6c-1.4,0-2.1-0.6-2.1-1.8s0.8-1.8,2.1-1.8h3.7v-15.7l-3.4,2
				c-0.3,0.2-0.6,0.3-0.9,0.3c-0.5,0-0.9-0.2-1.2-0.6c-0.3-0.5-0.5-0.9-0.5-1.4c0-0.6,0.3-1.2,0.9-1.5l5.3-3.4
				c0.8-0.5,1.4-0.6,2-0.6s1.2,0.2,1.5,0.6c0.5,0.5,0.6,0.9,0.6,1.7V188h3.7C182.9,188,183.5,188.6,183.5,189.6z"/>
			<path class="st2" d="M204.2,189.6c0,1.2-0.8,1.8-2.1,1.8h-11.6c-1.4,0-2.1-0.6-2.1-1.8s0.8-1.8,2.1-1.8h3.7v-15.7l-3.4,2
				c-0.3,0.2-0.6,0.3-0.9,0.3c-0.5,0-0.9-0.2-1.2-0.6c-0.3-0.5-0.5-0.9-0.5-1.4c0-0.6,0.3-1.2,0.9-1.5l5.3-3.4
				c0.8-0.5,1.4-0.6,2-0.6s1.2,0.2,1.5,0.6c0.5,0.5,0.6,0.9,0.6,1.7V188h3.7C203.5,188,204.2,188.6,204.2,189.6z"/>
		</g>
		<g>
			<path class="st2" d="M379.5,240.2c0,1.2-0.8,1.8-2.1,1.8h-13.1c-0.6,0-1.1-0.2-1.4-0.6c-0.3-0.3-0.5-0.8-0.5-1.4
				c0-0.8,0.3-1.4,0.8-1.8l7.9-8.4c0.9-1.1,1.7-2,2.1-2.9c0.5-0.9,0.6-1.8,0.6-2.6c0-1.1-0.3-2-0.9-2.4c-0.6-0.6-1.5-0.9-2.6-0.9
				c-0.9,0-1.8,0.2-2.7,0.6c-0.9,0.3-1.8,0.9-2.7,1.5c-0.3,0.2-0.5,0.3-0.8,0.5s-0.5,0.2-0.8,0.2c-0.5,0-0.8-0.2-1.1-0.6
				c-0.3-0.3-0.5-0.8-0.5-1.4c0-0.3,0-0.6,0.2-0.9c0.2-0.3,0.3-0.5,0.6-0.8c1.1-0.8,2.1-1.4,3.5-2c1.4-0.5,2.7-0.8,4.1-0.8
				c2.4,0,4.3,0.6,5.6,1.8c1.4,1.2,2.1,2.7,2.1,4.9c0,1.4-0.3,2.7-0.9,4c-0.6,1.2-1.7,2.6-3.1,4.1l-6,6.4h9.2
				C378.7,238.5,379.5,239.1,379.5,240.2z"/>
		</g>
		<g>
			<path class="st2" d="M379.8,355.1c0.3,0.3,0.5,0.8,0.5,1.2c0,1.2-0.8,1.7-2.1,1.7h-1.8v2.7c0,0.8-0.2,1.2-0.6,1.7
				c-0.5,0.5-0.9,0.6-1.5,0.6s-1.2-0.2-1.5-0.6c-0.5-0.5-0.6-0.9-0.6-1.7V358h-9c-0.6,0-1.1-0.2-1.5-0.6c-0.3-0.3-0.5-0.8-0.5-1.4
				s0.2-1.1,0.6-1.5l10.7-15.3c0.3-0.3,0.5-0.6,0.9-0.8c0.3-0.2,0.8-0.3,1.1-0.3c0.6,0,1.1,0.2,1.5,0.6c0.5,0.5,0.6,0.9,0.6,1.7v14
				h1.8C379,354.7,379.5,354.8,379.8,355.1z M365.8,354.7h6.4v-9.3L365.8,354.7z"/>
		</g>
		<g>
			<path class="st2" d="M335.2,401.8c1.2,0.6,2.1,1.5,2.7,2.7s0.9,2.6,0.9,4c0,1.5-0.3,3.1-1.1,4.3c-0.8,1.2-1.7,2.1-3.1,2.9
				c-1.4,0.6-2.9,1.1-4.6,1.1c-1.4,0-2.9-0.3-4.1-0.8c-1.4-0.5-2.6-1.1-3.5-2c-0.5-0.5-0.8-1.1-0.8-1.7c0-0.5,0.2-0.9,0.5-1.2
				c0.3-0.3,0.6-0.6,1.1-0.6c0.3,0,0.5,0,0.6,0.2c0.2,0.2,0.5,0.2,0.8,0.5c0.9,0.6,1.8,1.1,2.7,1.5c0.9,0.5,1.8,0.5,2.7,0.5
				c1.5,0,2.7-0.3,3.5-1.1c0.8-0.8,1.2-1.8,1.2-3.2c0-1.4-0.5-2.4-1.2-3.2c-0.8-0.8-2-1.2-3.4-1.2c-0.9,0-1.7,0.2-2.4,0.3
				c-0.8,0.3-1.4,0.6-2.1,1.2c-0.5,0.3-0.9,0.5-1.4,0.5s-0.9-0.2-1.2-0.5c-0.3-0.3-0.5-0.6-0.5-1.1V394c0-0.6,0.2-1.2,0.6-1.5
				c0.3-0.3,0.9-0.6,1.5-0.6H336c1.4,0,2.1,0.6,2.1,1.7c0,1.2-0.8,1.7-2.1,1.7h-9v6.6c1.2-0.8,2.6-1.2,4.3-1.2
				C332.8,400.9,334.2,401.2,335.2,401.8z"/>
		</g>
		<g>
			<path class="st2" d="M193.3,392.7c0.3,0.3,0.5,0.8,0.5,1.2s-0.2,1.1-0.5,1.7l-11,20c-0.5,0.8-1.1,1.2-1.8,1.2
				c-0.6,0-1.1-0.2-1.5-0.6c-0.5-0.3-0.6-0.9-0.6-1.4s0.2-0.8,0.3-1.2l9.9-17.9h-10.4c-1.4,0-2.1-0.6-2.1-1.8c0-1.2,0.8-1.8,2.1-1.8
				H192C192.5,392.2,192.9,392.4,193.3,392.7z"/>
		</g>
		<g>
			<path class="st2" d="M338.9,189.6c0,1.2-0.8,1.8-2.1,1.8h-11.6c-1.4,0-2.1-0.6-2.1-1.8s0.8-1.8,2.1-1.8h3.7v-15.7l-3.4,2
				c-0.3,0.2-0.6,0.3-0.9,0.3c-0.5,0-0.9-0.2-1.2-0.6c-0.3-0.5-0.5-0.9-0.5-1.4c0-0.6,0.3-1.2,0.9-1.5l5.3-3.4
				c0.8-0.5,1.4-0.6,2-0.6s1.2,0.2,1.5,0.6c0.5,0.5,0.6,0.9,0.6,1.7V188h3.7C338.3,188,338.9,188.6,338.9,189.6z"/>
		</g>
		<g>
			<path class="st2" d="M413.4,291.2c1.2,1.5,1.8,3.5,1.8,6c0,3.2-1.2,5.8-3.7,7.8c-2.4,2-5.6,2.9-9.6,2.9c-2.3,0-4.6-0.3-6.7-1.1
				c-2.1-0.8-4-1.7-5.5-3.1c-0.8-0.8-1.2-1.5-1.2-2.4c0-0.8,0.2-1.5,0.6-2c0.5-0.5,0.9-0.8,1.5-0.8c0.3,0,0.6,0,0.9,0.2
				s0.6,0.3,1.2,0.6c1.5,1.1,2.9,1.8,4.3,2.3c1.4,0.6,2.9,0.8,4.4,0.8c2.3,0,4.1-0.5,5.2-1.4s1.7-2.4,1.7-4.3s-0.6-3.4-1.8-4.3
				c-1.2-0.9-3.1-1.4-5.5-1.4h-3c-0.8,0-1.5-0.3-1.8-0.8c-0.5-0.6-0.6-1.2-0.6-1.8c0-0.8,0.2-1.4,0.6-2c0.5-0.6,1.1-0.8,1.8-0.8h2.1
				c4.9,0,7.3-1.8,7.3-5.5c0-1.7-0.5-3.1-1.5-4c-1.1-0.9-2.4-1.4-4.3-1.4c-2.6,0-5.3,1.1-8.4,3.1c-0.5,0.3-0.9,0.5-1.2,0.6
				c-0.3,0.2-0.6,0.2-0.9,0.2c-0.6,0-1.1-0.3-1.5-0.8c-0.5-0.6-0.6-1.2-0.6-2c0-0.6,0.2-0.9,0.3-1.4c0.2-0.3,0.5-0.8,0.9-1.2
				c1.5-1.2,3.4-2.3,5.3-2.9c2.1-0.8,4.3-1.1,6.4-1.1c3.7,0,6.7,0.9,8.9,2.7c2.2,1.8,3.4,4.3,3.4,7.3c0,2.1-0.6,3.8-1.7,5.5
				c-1.1,1.5-2.6,2.7-4.4,3.4C410.5,288.4,412.3,289.5,413.4,291.2z"/>
		</g>
	</g>
	<path class="st3" d="M256,493.4c-111.6,0-202.4-90.8-202.4-202.4S144.4,88.6,256,88.6S458.4,179.4,458.4,291S367.6,493.4,256,493.4
		z M256,117.6c-95.7,0-173.4,77.9-173.4,173.4S160.4,464.4,256,464.4s173.6-77.7,173.6-173.3S351.7,117.6,256,117.6z"/>
	<path class="st4" d="M321.9,267.8L262.3,300c-5.3,2.8-12.3,0.8-15.3-4.6c-2.8-5.3-0.8-12.3,4.6-15.3l59.6-32.2
		c5.3-2.8,12.3-0.8,15.3,4.6C329.5,258,327.6,265.2,321.9,267.8z"/>
	<path class="st5" d="M256,276.6c-4,0-7.2-3.2-7.2-7.2v-79.5c0-4,3.2-7.2,7.2-7.2s7.2,3.2,7.2,7.2v79.5
		C263.3,273.4,260.1,276.6,256,276.6z"/>
	<g>
		<circle class="st0" cx="256" cy="291.2" r="28.2"/>
		<path class="st2" d="M256,320c-15.9,0-28.9-13-28.9-28.9s13-28.9,28.9-28.9s28.9,13,28.9,28.9S272,320,256,320z M256,276.6
			c-7.9,0-14.5,6.4-14.5,14.5c0,7.9,6.4,14.5,14.5,14.5c7.9,0,14.5-6.4,14.5-14.5C270.5,283.1,264.1,276.6,256,276.6z"/>
	</g>
</g>
</svg>
