<?xml version="1.0" encoding="utf-8"?>
<!-- Generator: Adobe Illustrator 22.0.1, SVG Export Plug-In . SVG Version: 6.00 Build 0)  -->
<svg version="1.1" id="Layer_1" xmlns="http://www.w3.org/2000/svg" xmlns:xlink="http://www.w3.org/1999/xlink" x="0px" y="0px"
	 viewBox="0 0 512 512" style="enable-background:new 0 0 512 512;" xml:space="preserve">
<style type="text/css">
	.st0{fill:#FFFFFF;}
	.st1{fill:#512B0B;}
	.st2{fill:#683A10;}
	.st3{fill:#A36032;}
	.st4{fill:#424A60;}
	.st5{fill:#FF5A00;}
	.st6{fill:#00CDC8;}
</style>
<g>
	<path class="st0" d="M379.2,505.4c-9.6,0-17.4-7.8-17.4-17.4v-6H153.7v6c0,9.6-7.8,17.4-17.4,17.4H98.2c-9.6,0-17.4-7.8-17.4-17.4
		v-8.4c-14.9-5.5-25-19.9-25-35.9V97c0-21.1,17.2-38.4,38.4-38.4h323.7c21.1,0,38.4,17.2,38.4,38.4v346.6c0,14.5-8.5,28-21.5,34.4
		v9.9c0,9.6-7.8,17.4-17.4,17.4L379.2,505.4L379.2,505.4z"/>
	<path class="st0" d="M417.8,63.3c18.4,0,33.6,15.1,33.6,33.6v346.6c0,14.2-9,26.5-21.5,31.3v13.1c0,7-5.6,12.6-12.6,12.6h-38.1
		c-7,0-12.6-5.6-12.6-12.6v-10.8H149v10.8c0,7-5.6,12.6-12.6,12.6H98.2c-7,0-12.6-5.6-12.6-12.6V476c-14.3-3.8-25-17-25-32.5V97
		c0-18.4,15.1-33.6,33.6-33.6h323.6 M417.8,53.8H94.2C70.4,53.8,51,73.2,51,97v346.6c0,17,9.9,32.1,25,39.2v5.3
		c0,12.2,9.9,22.2,22.2,22.2h38.1c12.2,0,22.2-9.9,22.2-22.2v-1.2H357v1.2c0,12.2,9.9,22.2,22.2,22.2h38.1
		c12.2,0,22.2-9.9,22.2-22.2V481c13.1-7.6,21.5-21.9,21.5-37.3V97C461,73.2,441.6,53.8,417.8,53.8L417.8,53.8z"/>
</g>
<g>
	<path class="st1" d="M136.3,500.7H98.2c-7,0-12.6-5.6-12.6-12.6v-26.4c0-7,5.6-12.6,12.6-12.6h38.1c7,0,12.6,5.6,12.6,12.6v26.4
		C149,494.9,143.3,500.7,136.3,500.7z"/>
	<path class="st1" d="M417.3,500.7h-38.1c-7,0-12.6-5.6-12.6-12.6v-26.4c0-7,5.6-12.6,12.6-12.6h38.1c7,0,12.6,5.6,12.6,12.6v26.4
		C429.9,494.9,424.3,500.7,417.3,500.7z"/>
	<path class="st2" d="M417.8,477.2H94.2c-18.4,0-33.6-15.1-33.6-33.6V97c0-18.4,15.1-33.6,33.6-33.6h323.7
		c18.4,0,33.6,15.1,33.6,33.6v346.6C451.4,462.1,436.3,477.2,417.8,477.2z"/>
	<g>
		<circle class="st0" cx="258.9" cy="277.1" r="163.2"/>
		<circle class="st3" cx="258.9" cy="277.1" r="36.6"/>
		<g>
			<g>
				<path class="st4" d="M256.8,165.1c0,1.5-1,2.5-2.8,2.5h-15.8c-1.8,0-2.8-0.8-2.8-2.5c0-1.5,1-2.4,2.8-2.4h4.8v-21.3l-4.5,2.8
					c-0.5,0.3-0.8,0.5-1.2,0.5c-0.7,0-1.2-0.3-1.5-0.8c-0.5-0.5-0.7-1.2-0.7-1.8c0-1,0.5-1.5,1.2-2.1l7.2-4.5c1-0.5,1.8-0.8,2.7-0.8
					c1,0,1.5,0.3,2.1,0.8c0.5,0.5,0.8,1.2,0.8,2.1v25.2h4.9C255.8,162.6,256.8,163.4,256.8,165.1z"/>
				<path class="st4" d="M284.5,165.1c0,1.5-1,2.5-2.8,2.5H264c-0.8,0-1.4-0.3-1.8-0.7c-0.5-0.5-0.7-1.1-0.7-1.8
					c0-1,0.5-1.7,1.1-2.5l10.6-11.4c1.3-1.4,2.3-2.8,3-4s1-2.4,1-3.5c0-1.4-0.5-2.5-1.2-3.3s-2-1.2-3.5-1.2c-1.3,0-2.5,0.3-3.7,0.7
					c-1.2,0.5-2.4,1.2-3.5,2c-0.3,0.3-0.7,0.5-1,0.5c-0.3,0.2-0.7,0.3-1,0.3c-0.5,0-1-0.3-1.3-0.8c-0.5-0.5-0.5-1.1-0.5-1.7
					c0-0.5,0.2-1,0.3-1.2c0.2-0.5,0.5-0.7,0.8-1c1.3-1.1,3-2,4.8-2.5c1.8-0.7,3.7-1,5.4-1c3.2,0,5.7,0.8,7.7,2.4
					c1.8,1.5,3,3.8,3,6.5c0,1.8-0.5,3.7-1.2,5.3c-0.8,1.7-2.1,3.4-4.1,5.5l-8.1,8.6h12.3C283.5,162.6,284.5,163.4,284.5,165.1z"/>
			</g>
			<g>
				<path class="st4" d="M265.7,394.6c1.4,1,2.7,2.1,3.5,3.7c0.8,1.5,1.3,3.4,1.3,5.4c0,2.1-0.5,4-1.4,5.7c-1,1.7-2.3,3-3.8,3.8
					s-3.5,1.4-5.7,1.4c-4.1,0-7.3-1.4-9.6-4.3c-2.3-2.8-3.3-6.8-3.3-12c0-3.5,0.5-6.6,1.5-9.3c1.1-2.7,2.5-4.6,4.5-6
					s4.3-2.1,6.9-2.1c1.7,0,3.5,0.3,5.3,1c1.7,0.7,3.3,1.4,4.5,2.5c0.5,0.5,0.7,0.7,0.8,1.1c0.2,0.3,0.3,0.7,0.3,1.2
					c0,0.7-0.2,1.3-0.5,1.7c-0.5,0.5-0.8,0.7-1.3,0.7c-0.3,0-0.7,0-1-0.2s-0.7-0.3-1.1-0.5c-2.5-1.8-4.9-2.7-6.9-2.7
					c-2.3,0-4.1,1.1-5.3,3.2c-1.3,2.1-2,5.1-2,8.8c0.7-1.4,1.7-2.5,3.2-3.3c1.4-0.8,3.1-1.2,4.8-1.2
					C262.6,393.3,264.3,393.8,265.7,394.6z M263.4,408.4c1.1-1.1,1.5-2.5,1.5-4.3s-0.5-3.2-1.5-4.3c-1.1-1.1-2.4-1.5-4.1-1.5
					s-3.2,0.5-4.3,1.5c-1.1,1.1-1.5,2.5-1.5,4.3s0.5,3.2,1.5,4.3c1.1,1.1,2.5,1.5,4.3,1.5C261,410,262.4,409.5,263.4,408.4z"/>
			</g>
			<g>
				<path class="st4" d="M142.6,262.1c2.3,2.8,3.3,6.8,3.3,12c0,3.5-0.5,6.6-1.5,9.3c-1.1,2.7-2.5,4.6-4.5,6s-4.3,2.1-6.9,2.1
					c-1.7,0-3.5-0.3-5.3-1c-1.7-0.7-3.3-1.4-4.5-2.5c-0.5-0.5-0.7-0.7-0.8-1.1c-0.2-0.3-0.3-0.7-0.3-1.2c0-0.7,0.2-1.3,0.5-1.7
					c0.5-0.5,0.8-0.7,1.3-0.7c0.3,0,0.7,0,1,0.2s0.7,0.3,1.1,0.5c2.5,1.8,4.9,2.7,6.9,2.7c2.3,0,4.1-1.1,5.3-3.2
					c1.3-2.1,2-5.1,2-8.8c-0.7,1.4-1.7,2.5-3.2,3.3c-1.4,0.8-3.1,1.2-4.8,1.2c-2,0-3.7-0.5-5.3-1.3c-1.4-1-2.7-2.1-3.5-3.7
					c-0.8-1.5-1.3-3.4-1.3-5.4c0-2.1,0.5-4,1.4-5.7s2.3-3,3.8-3.8c1.7-1,3.5-1.4,5.7-1.4C137.1,257.9,140.3,259.3,142.6,262.1z
					 M137.5,272.9c1.1-1.1,1.5-2.5,1.5-4.3s-0.5-3.2-1.5-4.3c-1.1-1.1-2.5-1.5-4.3-1.5c-1.7,0-3.1,0.5-4.1,1.5s-1.5,2.5-1.5,4.3
					s0.5,3.2,1.5,4.3c1.1,1.1,2.4,1.5,4.1,1.5C135,274.6,136.4,274.1,137.5,272.9z"/>
			</g>
			<g>
				<path class="st4" d="M164.9,330.5c0.7,1,1.1,2,1.1,3.3c0,1.8-0.7,3.3-2.1,4.3c-1.4,1.1-3.3,1.5-5.8,1.5s-4.3-0.5-5.8-1.5
					c-1.4-1.1-2.1-2.5-2.1-4.3c0-1.3,0.5-2.4,1.1-3.3c0.7-1,1.5-1.5,3-1.8c-1.1-0.5-1.8-1.1-2.5-1.8c-0.7-0.8-1-1.8-1-3.1
					c0-1.7,0.7-3.2,2-4.1c1.3-1.1,3.2-1.5,5.4-1.5c2.3,0,4.1,0.5,5.4,1.5c1.3,1.1,2,2.4,2,4.1c0,1.2-0.3,2.1-1,3.1
					c-0.7,0.8-1.4,1.4-2.5,1.8C163.4,328.9,164.3,329.6,164.9,330.5z M162.3,333.4c0-2.1-1.4-3.2-4.3-3.2s-4.3,1.1-4.3,3.2
					s1.4,3.2,4.3,3.2S162.3,335.6,162.3,333.4z M154.2,324.1c0,1.1,0.3,1.8,1,2.4c0.7,0.5,1.5,0.8,2.8,0.8c1.2,0,2.1-0.3,2.8-0.8
					s1-1.3,1-2.4c0-2-1.2-3.1-3.7-3.1C155.6,321.1,154.2,322,154.2,324.1z"/>
			</g>
			<g>
				<path class="st4" d="M156.9,232.9c0,1.1-0.7,1.5-1.8,1.5h-10c-1.2,0-1.8-0.5-1.8-1.5s0.7-1.5,1.8-1.5h3.2v-13.6l-3,1.7
					c-0.3,0.2-0.5,0.3-0.8,0.3c-0.5,0-0.8-0.2-1.1-0.5c-0.3-0.5-0.5-0.8-0.5-1.2s0.3-1.1,0.8-1.3l4.6-3c0.7-0.5,1.2-0.5,1.7-0.5
					s1.1,0.2,1.3,0.5c0.5,0.5,0.5,0.8,0.5,1.4v16.3h3.1C156.1,231.3,156.9,231.9,156.9,232.9z"/>
				<path class="st4" d="M161.2,231.9c-1.3-1.8-2-4.5-2-8.1c0-3.5,0.7-6.2,2-8.1c1.3-1.8,3.2-2.8,5.7-2.8s4.3,1,5.7,2.8
					c1.3,1.8,2,4.5,2,8.1c0,3.5-0.7,6.2-2,8.1c-1.3,1.8-3.2,2.8-5.7,2.8C164.6,234.7,162.6,233.7,161.2,231.9z M170,229.8
					c0.7-1.2,1-3.2,1-6s-0.3-4.8-1-6s-1.5-1.8-3-1.8s-2.4,0.7-3,1.8c-0.7,1.2-1,3.2-1,6s0.3,4.6,1,6c0.7,1.2,1.5,1.8,3,1.8
					S169.4,231.2,170,229.8z"/>
			</g>
			<g>
				<path class="st4" d="M195.9,188.9c0,1.1-0.7,1.5-1.8,1.5h-10c-1.2,0-1.8-0.5-1.8-1.5s0.7-1.5,1.8-1.5h3.2v-13.7l-3,1.7
					c-0.3,0.2-0.5,0.3-0.8,0.3c-0.5,0-0.8-0.2-1.1-0.5c-0.3-0.5-0.5-0.8-0.5-1.2c0-0.5,0.3-1.1,0.8-1.3l4.6-3
					c0.7-0.5,1.2-0.5,1.7-0.5s1.1,0.2,1.3,0.5c0.5,0.5,0.5,0.8,0.5,1.4v16.3h3.2C195.3,187.5,195.9,188.1,195.9,188.9z"/>
				<path class="st4" d="M213.9,188.9c0,1.1-0.7,1.5-1.8,1.5h-10c-1.2,0-1.8-0.5-1.8-1.5s0.7-1.5,1.8-1.5h3.2v-13.7l-3,1.7
					c-0.3,0.2-0.5,0.3-0.8,0.3c-0.5,0-0.8-0.2-1.1-0.5c-0.3-0.5-0.5-0.8-0.5-1.2c0-0.5,0.3-1.1,0.8-1.3l4.6-3
					c0.7-0.5,1.2-0.5,1.7-0.5s1.1,0.2,1.3,0.5c0.5,0.5,0.5,0.8,0.5,1.4v16.3h3.2C213.3,187.5,213.9,188.1,213.9,188.9z"/>
			</g>
			<g>
				<path class="st4" d="M366.2,232.9c0,1.1-0.7,1.5-1.8,1.5H353c-0.5,0-1-0.2-1.2-0.5c-0.3-0.3-0.5-0.7-0.5-1.2
					c0-0.7,0.3-1.2,0.7-1.5l6.9-7.3c0.8-1,1.4-1.7,1.8-2.5c0.5-0.8,0.5-1.5,0.5-2.3c0-1-0.3-1.7-0.8-2.1c-0.5-0.5-1.3-0.8-2.3-0.8
					c-0.8,0-1.5,0.2-2.4,0.5c-0.8,0.3-1.5,0.8-2.4,1.3c-0.3,0.2-0.5,0.3-0.7,0.5c-0.3,0.2-0.5,0.2-0.7,0.2c-0.5,0-0.7-0.2-1-0.5
					s-0.5-0.7-0.5-1.2c0-0.3,0-0.5,0.2-0.8s0.3-0.5,0.5-0.7c1-0.7,1.8-1.2,3.1-1.7c1.2-0.5,2.4-0.7,3.5-0.7c2.1,0,3.7,0.5,4.9,1.5
					c1.2,1.1,1.8,2.4,1.8,4.3c0,1.2-0.3,2.4-0.8,3.4c-0.5,1.1-1.4,2.3-2.7,3.5l-5.3,5.5h8C365.4,231.3,366.2,231.9,366.2,232.9z"/>
			</g>
			<g>
				<path class="st4" d="M366.4,332.7c0.3,0.3,0.5,0.7,0.5,1.1c0,1.1-0.7,1.4-1.8,1.4h-1.5v2.4c0,0.7-0.2,1.1-0.5,1.4
					c-0.5,0.5-0.8,0.5-1.3,0.5s-1.1-0.2-1.3-0.5c-0.5-0.5-0.5-0.8-0.5-1.4v-2.4h-8c-0.5,0-1-0.2-1.3-0.5s-0.5-0.7-0.5-1.2
					c0-0.6,0.2-1,0.5-1.3l9.3-13.3c0.3-0.3,0.5-0.5,0.8-0.7s0.7-0.3,1-0.3c0.5,0,1,0.2,1.3,0.5c0.5,0.5,0.5,0.8,0.5,1.4v12.1h1.5
					C365.7,332.4,366.2,332.5,366.4,332.7z M354.2,332.4h5.5v-8.1L354.2,332.4z"/>
			</g>
			<g>
				<path class="st4" d="M327.7,373.3c1.1,0.5,1.8,1.3,2.4,2.4c0.5,1.1,0.8,2.3,0.8,3.4c0,1.3-0.3,2.7-1,3.7
					c-0.7,1.1-1.4,1.8-2.7,2.5c-1.2,0.5-2.5,1-4,1c-1.2,0-2.5-0.3-3.5-0.7c-1.2-0.5-2.3-1-3.1-1.7c-0.5-0.5-0.7-1-0.7-1.4
					c0-0.5,0.2-0.8,0.5-1.1c0.3-0.3,0.5-0.5,1-0.5c0.3,0,0.5,0,0.5,0.2c0.2,0.2,0.5,0.2,0.7,0.5c0.8,0.5,1.5,1,2.4,1.3
					c0.8,0.5,1.5,0.5,2.4,0.5c1.3,0,2.4-0.3,3.1-1s1.1-1.5,1.1-2.8c0-1.2-0.5-2.1-1.1-2.8c-0.7-0.7-1.7-1.1-3-1.1
					c-0.8,0-1.4,0.2-2.1,0.3c-0.7,0.3-1.2,0.5-1.8,1.1c-0.5,0.3-0.8,0.5-1.2,0.5c-0.5,0-0.8-0.2-1.1-0.5c-0.3-0.3-0.5-0.5-0.5-1
					v-9.5c0-0.5,0.2-1.1,0.5-1.3c0.3-0.3,0.8-0.5,1.3-0.5h9.9c1.2,0,1.8,0.5,1.8,1.4c0,1.1-0.7,1.4-1.8,1.4h-7.8v5.7
					c1.1-0.7,2.3-1.1,3.7-1.1C325.6,372.5,326.8,372.7,327.7,373.3z"/>
			</g>
			<g>
				<path class="st4" d="M204.4,365.3c0.3,0.3,0.5,0.7,0.5,1.1s-0.2,1-0.5,1.4l-9.6,17.4c-0.5,0.7-1,1.1-1.5,1.1s-1-0.2-1.3-0.5
					c-0.5-0.3-0.5-0.8-0.5-1.2s0.2-0.7,0.3-1.1l8.6-15.6h-9.1c-1.2,0-1.8-0.5-1.8-1.5s0.7-1.5,1.8-1.5h11.9
					C203.7,365,204,365.1,204.4,365.3z"/>
			</g>
			<g>
				<path class="st4" d="M330.9,188.9c0,1.1-0.7,1.5-1.8,1.5h-10c-1.2,0-1.8-0.5-1.8-1.5s0.7-1.5,1.8-1.5h3.2v-13.7l-3,1.7
					c-0.3,0.2-0.5,0.3-0.8,0.3c-0.5,0-0.8-0.2-1.1-0.5c-0.3-0.5-0.5-0.8-0.5-1.2c0-0.5,0.3-1.1,0.8-1.3l4.6-3
					c0.7-0.5,1.2-0.5,1.7-0.5s1.1,0.2,1.3,0.5c0.5,0.5,0.5,0.8,0.5,1.4v16.3h3.2C330.4,187.5,330.9,188.1,330.9,188.9z"/>
			</g>
			<g>
				<path class="st4" d="M395.6,277.1c1.1,1.3,1.5,3.1,1.5,5.3c0,2.8-1.1,5.1-3.2,6.8c-2.1,1.7-4.9,2.5-8.3,2.5c-2,0-4-0.3-5.8-1
					s-3.4-1.4-4.8-2.7c-0.7-0.7-1.1-1.3-1.1-2.1c0-0.7,0.2-1.3,0.5-1.7c0.5-0.5,0.8-0.7,1.3-0.7c0.3,0,0.5,0,0.8,0.2
					s0.5,0.3,1.1,0.5c1.3,1,2.5,1.5,3.7,2s2.5,0.7,3.8,0.7c2,0,3.5-0.5,4.5-1.2c1-0.8,1.4-2.1,1.4-3.7s-0.5-3-1.5-3.7
					c-1.1-0.8-2.7-1.2-4.8-1.2h-2.6c-0.7,0-1.3-0.3-1.5-0.7c-0.5-0.5-0.5-1.1-0.5-1.5c0-0.7,0.2-1.2,0.5-1.7c0.5-0.5,1-0.7,1.5-0.7
					h1.8c4.3,0,6.3-1.5,6.3-4.8c0-1.4-0.5-2.7-1.3-3.4c-1-0.8-2.1-1.2-3.7-1.2c-2.3,0-4.6,1-7.3,2.7c-0.5,0.3-0.8,0.5-1.1,0.5
					c-0.3,0.2-0.5,0.2-0.8,0.2c-0.5,0-1-0.3-1.3-0.7c-0.5-0.5-0.5-1.1-0.5-1.7c0-0.5,0.2-0.8,0.3-1.2c0.2-0.3,0.5-0.7,0.8-1.1
					c1.3-1.1,3-2,4.6-2.5c1.8-0.7,3.7-1,5.5-1c3.2,0,5.8,0.8,7.7,2.4c1.9,1.6,3,3.7,3,6.3c0,1.8-0.5,3.3-1.4,4.8
					c-1,1.3-2.3,2.4-3.8,3C393.1,274.7,394.7,275.7,395.6,277.1z"/>
			</g>
		</g>
		<path class="st1" d="M258.9,452.9C161.9,452.9,83,374,83,277s78.8-175.9,175.9-175.9S434.7,180,434.7,277S355.9,452.9,258.9,452.9
			z M258.9,126.3c-83.1,0-150.6,67.7-150.6,150.6s67.6,150.7,150.6,150.7s150.8-67.5,150.8-150.5S342,126.3,258.9,126.3z"/>
		<path class="st5" d="M310.4,307.4l-53.8-23.8c-4.9-2.2-7.1-8-5-13c2.2-4.9,8-7.1,13-5l53.8,23.8c4.9,2.2,7.1,8,5,13
			C321.2,307.4,315.3,309.9,310.4,307.4z"/>
		<path class="st6" d="M258.9,264.5c-3.4,0-6.2-2.8-6.2-6.2v-69.1c0-3.4,2.8-6.2,6.2-6.2s6.2,2.8,6.2,6.2v69.1
			C265.2,261.7,262.4,264.5,258.9,264.5z"/>
		<g>
			<circle class="st0" cx="258.9" cy="277.1" r="24.5"/>
			<path class="st1" d="M258.9,302.2c-13.9,0-25.1-11.3-25.1-25.1s11.3-25.1,25.1-25.1c13.9,0,25.1,11.3,25.1,25.1
				C284,290.9,272.7,302.2,258.9,302.2z M258.9,264.5c-6.9,0-12.6,5.5-12.6,12.6c0,6.9,5.5,12.6,12.6,12.6c6.9,0,12.6-5.5,12.6-12.6
				C271.5,270.1,265.9,264.5,258.9,264.5z"/>
		</g>
	</g>
</g>
</svg>
