<?xml version="1.0" encoding="utf-8"?>
<!-- Generator: Adobe Illustrator 22.0.1, SVG Export Plug-In . SVG Version: 6.00 Build 0)  -->
<svg version="1.1" id="Layer_1" xmlns="http://www.w3.org/2000/svg" xmlns:xlink="http://www.w3.org/1999/xlink" x="0px" y="0px"
	 viewBox="0 0 512 512" style="enable-background:new 0 0 512 512;" xml:space="preserve">
<style type="text/css">
	.st0{fill:#FFFFFF;}
	.st1{fill:#512B0B;}
	.st2{fill:#683A10;}
	.st3{fill:#A36032;}
	.st4{fill:#424A60;}
	.st5{fill:#FF5A00;}
	.st6{fill:#00CDC8;}
</style>
<g>
	<path class="st0" d="M384.9,489.8c-10,0-18.2-8.2-18.2-18.2v-6.3H149v6.3c0,10-8.2,18.2-18.2,18.2H90.9c-10,0-18.2-8.2-18.2-18.2
		v-8.8c-15.6-5.8-26.2-20.8-26.2-37.6V62.4c0-22.1,18-40.2,40.2-40.2h338.7c22.1,0,40.2,18,40.2,40.2v362.7c0,15.2-8.9,29.3-22.5,36
		v10.4c0,10-8.2,18.2-18.2,18.2H384.9z"/>
	<path class="st0" d="M425.3,27.2c19.3,0,35.2,15.8,35.2,35.2v362.7c0,14.9-9.4,27.7-22.5,32.8v13.7c0,7.3-5.9,13.2-13.2,13.2h-39.9
		c-7.3,0-13.2-5.9-13.2-13.2v-11.3H144v11.3c0,7.3-5.9,13.2-13.2,13.2H90.9c-7.3,0-13.2-5.9-13.2-13.2v-12.5
		c-15-4-26.2-17.8-26.2-34V62.4c0-19.3,15.8-35.2,35.2-35.2H425.3 M425.3,17.2H86.7c-24.9,0-45.2,20.3-45.2,45.2v362.7
		c0,17.8,10.4,33.6,26.2,41v5.5c0,12.8,10.4,23.2,23.2,23.2h39.9c12.8,0,23.2-10.4,23.2-23.2v-1.3h207.7v1.3
		c0,12.8,10.4,23.2,23.2,23.2h39.9c12.8,0,23.2-10.4,23.2-23.2v-7.4c13.7-8,22.5-22.9,22.5-39V62.4
		C470.5,37.5,450.2,17.2,425.3,17.2L425.3,17.2z"/>
</g>
<g>
	<path class="st1" d="M130.8,484.8H90.9c-7.3,0-13.2-5.9-13.2-13.2V444c0-7.3,5.9-13.2,13.2-13.2h39.9c7.3,0,13.2,5.9,13.2,13.2
		v27.6C144,478.8,138.1,484.8,130.8,484.8z"/>
	<path class="st1" d="M424.8,484.8h-39.9c-7.3,0-13.2-5.9-13.2-13.2V444c0-7.3,5.9-13.2,13.2-13.2h39.9c7.3,0,13.2,5.9,13.2,13.2
		v27.6C438,478.8,432.1,484.8,424.8,484.8z"/>
	<path class="st2" d="M425.3,460.2H86.7c-19.3,0-35.2-15.8-35.2-35.2V62.4c0-19.3,15.8-35.2,35.2-35.2h338.7
		c19.3,0,35.2,15.8,35.2,35.2v362.7C460.5,444.4,444.7,460.2,425.3,460.2z"/>
	<g>
		<circle class="st0" cx="259" cy="250.9" r="170.8"/>
		<circle class="st3" cx="259" cy="250.9" r="38.3"/>
		<g>
			<g>
				<path class="st4" d="M256.8,133.7c0,1.6-1,2.6-2.9,2.6h-16.5c-1.9,0-2.9-0.8-2.9-2.6c0-1.6,1-2.5,2.9-2.5h5v-22.3l-4.7,2.9
					c-0.5,0.3-0.8,0.5-1.3,0.5c-0.7,0-1.3-0.3-1.6-0.8c-0.5-0.5-0.7-1.3-0.7-1.9c0-1,0.5-1.6,1.3-2.2l7.5-4.7c1-0.5,1.9-0.8,2.8-0.8
					c1,0,1.6,0.3,2.2,0.8c0.5,0.5,0.8,1.3,0.8,2.2v26.4h5.1C255.8,131.1,256.8,131.9,256.8,133.7z"/>
				<path class="st4" d="M285.8,133.7c0,1.6-1,2.6-2.9,2.6h-18.5c-0.8,0-1.5-0.3-1.9-0.7c-0.5-0.5-0.7-1.1-0.7-1.9
					c0-1,0.5-1.8,1.1-2.6l11.1-11.9c1.4-1.5,2.4-2.9,3.1-4.2s1-2.5,1-3.7c0-1.5-0.5-2.6-1.3-3.5s-2.1-1.3-3.7-1.3
					c-1.4,0-2.6,0.3-3.9,0.7c-1.3,0.5-2.5,1.3-3.7,2.1c-0.3,0.3-0.7,0.5-1,0.5c-0.3,0.2-0.7,0.3-1,0.3c-0.5,0-1-0.3-1.4-0.8
					c-0.5-0.5-0.5-1.1-0.5-1.8c0-0.5,0.2-1,0.3-1.3c0.2-0.5,0.5-0.7,0.8-1c1.4-1.1,3.1-2.1,5-2.6c1.9-0.7,3.9-1,5.7-1
					c3.4,0,6,0.8,8.1,2.5c1.9,1.6,3.1,4,3.1,6.8c0,1.9-0.5,3.9-1.3,5.5c-0.8,1.8-2.2,3.6-4.3,5.8l-8.5,9h12.9
					C284.8,131.1,285.8,131.9,285.8,133.7z"/>
			</g>
			<g>
				<path class="st4" d="M266.2,373.8c1.5,1,2.8,2.2,3.7,3.9c0.8,1.6,1.4,3.6,1.4,5.7c0,2.2-0.5,4.2-1.5,6c-1,1.8-2.4,3.1-4,4
					s-3.7,1.5-6,1.5c-4.3,0-7.6-1.5-10-4.5c-2.4-2.9-3.5-7.1-3.5-12.6c0-3.7,0.5-6.9,1.6-9.7c1.1-2.8,2.6-4.8,4.7-6.3
					c2.1-1.5,4.5-2.2,7.2-2.2c1.8,0,3.7,0.3,5.5,1c1.8,0.7,3.5,1.5,4.7,2.6c0.5,0.5,0.7,0.7,0.8,1.1c0.2,0.3,0.3,0.7,0.3,1.3
					c0,0.7-0.2,1.4-0.5,1.8c-0.5,0.5-0.8,0.7-1.4,0.7c-0.3,0-0.7,0-1-0.2s-0.7-0.3-1.1-0.5c-2.6-1.9-5.1-2.8-7.2-2.8
					c-2.4,0-4.3,1.1-5.5,3.4c-1.4,2.2-2.1,5.3-2.1,9.2c0.7-1.5,1.8-2.6,3.4-3.5c1.5-0.8,3.2-1.3,5-1.3
					C262.9,372.5,264.7,373,266.2,373.8z M263.7,388.3c1.1-1.1,1.6-2.6,1.6-4.5c0-1.9-0.5-3.4-1.6-4.5c-1.1-1.1-2.5-1.6-4.3-1.6
					c-1.8,0-3.4,0.5-4.5,1.6c-1.1,1.1-1.6,2.6-1.6,4.5c0,1.9,0.5,3.4,1.6,4.5c1.1,1.1,2.6,1.6,4.5,1.6
					C261.2,389.9,262.7,389.4,263.7,388.3z"/>
			</g>
			<g>
				<path class="st4" d="M137.3,235.2c2.4,2.9,3.5,7.1,3.5,12.6c0,3.7-0.5,6.9-1.6,9.7c-1.1,2.8-2.6,4.8-4.7,6.3
					c-2.1,1.5-4.5,2.2-7.2,2.2c-1.8,0-3.7-0.3-5.5-1c-1.8-0.7-3.5-1.5-4.7-2.6c-0.5-0.5-0.7-0.7-0.8-1.1c-0.2-0.3-0.3-0.7-0.3-1.3
					c0-0.7,0.2-1.4,0.5-1.8c0.5-0.5,0.8-0.7,1.4-0.7c0.3,0,0.7,0,1,0.2c0.3,0.2,0.7,0.3,1.1,0.5c2.6,1.9,5.1,2.8,7.2,2.8
					c2.4,0,4.3-1.1,5.5-3.4c1.4-2.2,2.1-5.3,2.1-9.2c-0.7,1.5-1.8,2.6-3.4,3.5c-1.5,0.8-3.2,1.3-5,1.3c-2.1,0-3.9-0.5-5.5-1.4
					c-1.5-1-2.8-2.2-3.7-3.9c-0.8-1.6-1.4-3.6-1.4-5.7c0-2.2,0.5-4.2,1.5-6c1-1.8,2.4-3.1,4-4c1.8-1,3.7-1.5,6-1.5
					C131.6,230.8,134.9,232.3,137.3,235.2z M132,246.5c1.1-1.1,1.6-2.6,1.6-4.5c0-1.9-0.5-3.4-1.6-4.5c-1.1-1.1-2.6-1.6-4.5-1.6
					c-1.8,0-3.2,0.5-4.3,1.6c-1.1,1.1-1.6,2.6-1.6,4.5s0.5,3.4,1.6,4.5c1.1,1.1,2.5,1.6,4.3,1.6C129.4,248.3,130.9,247.7,132,246.5z
					"/>
			</g>
			<g>
				<path class="st4" d="M160.7,306.7c0.7,1,1.1,2.1,1.1,3.5c0,1.9-0.7,3.5-2.2,4.5c-1.5,1.1-3.5,1.6-6.1,1.6s-4.5-0.5-6.1-1.6
					c-1.5-1.1-2.2-2.6-2.2-4.5c0-1.4,0.5-2.5,1.1-3.5c0.7-1,1.6-1.6,3.1-1.9c-1.1-0.5-1.9-1.1-2.6-1.9c-0.7-0.8-1-1.9-1-3.2
					c0-1.8,0.7-3.4,2.1-4.3c1.4-1.1,3.4-1.6,5.7-1.6c2.4,0,4.3,0.5,5.7,1.6c1.4,1.1,2.1,2.5,2.1,4.3c0,1.3-0.3,2.2-1,3.2
					c-0.7,0.8-1.5,1.5-2.6,1.9C159.1,305.1,160,305.8,160.7,306.7z M158,309.8c0-2.2-1.5-3.4-4.5-3.4s-4.5,1.1-4.5,3.4
					c0,2.2,1.5,3.4,4.5,3.4S158,312.1,158,309.8z M149.5,300.1c0,1.1,0.3,1.9,1,2.5c0.7,0.5,1.6,0.8,2.9,0.8c1.3,0,2.2-0.3,2.9-0.8
					c0.7-0.5,1-1.4,1-2.5c0-2.1-1.3-3.2-3.9-3.2C150.9,296.9,149.5,297.9,149.5,300.1z"/>
			</g>
			<g>
				<path class="st4" d="M152.3,204.6c0,1.1-0.7,1.6-1.9,1.6h-10.5c-1.3,0-1.9-0.5-1.9-1.6c0-1.1,0.7-1.6,1.9-1.6h3.4v-14.2
					l-3.1,1.8c-0.3,0.2-0.5,0.3-0.8,0.3c-0.5,0-0.8-0.2-1.1-0.5c-0.3-0.5-0.5-0.8-0.5-1.3c0-0.5,0.3-1.1,0.8-1.4l4.8-3.1
					c0.7-0.5,1.3-0.5,1.8-0.5s1.1,0.2,1.4,0.5c0.5,0.5,0.5,0.8,0.5,1.5v17.1h3.2C151.5,203,152.3,203.6,152.3,204.6z"/>
				<path class="st4" d="M156.8,203.6c-1.4-1.9-2.1-4.7-2.1-8.5c0-3.7,0.7-6.5,2.1-8.5c1.4-1.9,3.4-2.9,6-2.9s4.5,1,6,2.9
					c1.4,1.9,2.1,4.7,2.1,8.5c0,3.7-0.7,6.5-2.1,8.5c-1.4,1.9-3.4,2.9-6,2.9C160.4,206.5,158.3,205.5,156.8,203.6z M166,201.4
					c0.7-1.3,1-3.4,1-6.3s-0.3-5-1-6.3s-1.6-1.9-3.1-1.9c-1.5,0-2.5,0.7-3.1,1.9c-0.7,1.3-1,3.4-1,6.3s0.3,4.8,1,6.3
					c0.7,1.3,1.6,1.9,3.1,1.9C164.4,203.3,165.4,202.8,166,201.4z"/>
			</g>
			<g>
				<path class="st4" d="M193.1,158.6c0,1.1-0.7,1.6-1.9,1.6h-10.5c-1.3,0-1.9-0.5-1.9-1.6c0-1.1,0.7-1.6,1.9-1.6h3.4v-14.3
					l-3.1,1.8c-0.3,0.2-0.5,0.3-0.8,0.3c-0.5,0-0.8-0.2-1.1-0.5c-0.3-0.5-0.5-0.8-0.5-1.3c0-0.5,0.3-1.1,0.8-1.4l4.8-3.1
					c0.7-0.5,1.3-0.5,1.8-0.5s1.1,0.2,1.4,0.5c0.5,0.5,0.5,0.8,0.5,1.5v17.1h3.4C192.5,157.1,193.1,157.7,193.1,158.6z"/>
				<path class="st4" d="M211.9,158.6c0,1.1-0.7,1.6-1.9,1.6h-10.5c-1.3,0-1.9-0.5-1.9-1.6c0-1.1,0.7-1.6,1.9-1.6h3.4v-14.3
					l-3.1,1.8c-0.3,0.2-0.5,0.3-0.8,0.3c-0.5,0-0.8-0.2-1.1-0.5c-0.3-0.5-0.5-0.8-0.5-1.3c0-0.5,0.3-1.1,0.8-1.4l4.8-3.1
					c0.7-0.5,1.3-0.5,1.8-0.5s1.1,0.2,1.4,0.5c0.5,0.5,0.5,0.8,0.5,1.5v17.1h3.4C211.3,157.1,211.9,157.7,211.9,158.6z"/>
			</g>
			<g>
				<path class="st4" d="M371.3,204.6c0,1.1-0.7,1.6-1.9,1.6h-11.9c-0.5,0-1-0.2-1.3-0.5c-0.3-0.3-0.5-0.7-0.5-1.3
					c0-0.7,0.3-1.3,0.7-1.6l7.2-7.6c0.8-1,1.5-1.8,1.9-2.6c0.5-0.8,0.5-1.6,0.5-2.4c0-1-0.3-1.8-0.8-2.2c-0.5-0.5-1.4-0.8-2.4-0.8
					c-0.8,0-1.6,0.2-2.5,0.5c-0.8,0.3-1.6,0.8-2.5,1.4c-0.3,0.2-0.5,0.3-0.7,0.5c-0.3,0.2-0.5,0.2-0.7,0.2c-0.5,0-0.7-0.2-1-0.5
					c-0.3-0.3-0.5-0.7-0.5-1.3c0-0.3,0-0.5,0.2-0.8c0.2-0.3,0.3-0.5,0.5-0.7c1-0.7,1.9-1.3,3.2-1.8c1.3-0.5,2.5-0.7,3.7-0.7
					c2.2,0,3.9,0.5,5.1,1.6c1.3,1.1,1.9,2.5,1.9,4.5c0,1.3-0.3,2.5-0.8,3.6c-0.5,1.1-1.5,2.4-2.8,3.7l-5.5,5.8h8.4
					C370.5,203,371.3,203.6,371.3,204.6z"/>
			</g>
			<g>
				<path class="st4" d="M371.5,309c0.3,0.3,0.5,0.7,0.5,1.1c0,1.1-0.7,1.5-1.9,1.5h-1.6v2.5c0,0.7-0.2,1.1-0.5,1.5
					c-0.5,0.5-0.8,0.5-1.4,0.5s-1.1-0.2-1.4-0.5c-0.5-0.5-0.5-0.8-0.5-1.5v-2.5h-8.2c-0.5,0-1-0.2-1.4-0.5c-0.3-0.3-0.5-0.7-0.5-1.3
					s0.2-1,0.5-1.4l9.7-13.9c0.3-0.3,0.5-0.5,0.8-0.7c0.3-0.2,0.7-0.3,1-0.3c0.5,0,1,0.2,1.4,0.5c0.5,0.5,0.5,0.8,0.5,1.5v12.7h1.6
					C370.8,308.7,371.3,308.8,371.5,309z M358.8,308.7h5.8v-8.5L358.8,308.7z"/>
			</g>
			<g>
				<path class="st4" d="M331,351.5c1.1,0.5,1.9,1.4,2.5,2.5c0.5,1.1,0.8,2.4,0.8,3.6c0,1.4-0.3,2.8-1,3.9c-0.7,1.1-1.5,1.9-2.8,2.6
					c-1.3,0.5-2.6,1-4.2,1c-1.3,0-2.6-0.3-3.7-0.7c-1.3-0.5-2.4-1-3.2-1.8c-0.5-0.5-0.7-1-0.7-1.5c0-0.5,0.2-0.8,0.5-1.1
					c0.3-0.3,0.5-0.5,1-0.5c0.3,0,0.5,0,0.5,0.2c0.2,0.2,0.5,0.2,0.7,0.5c0.8,0.5,1.6,1,2.5,1.4c0.8,0.5,1.6,0.5,2.5,0.5
					c1.4,0,2.5-0.3,3.2-1c0.7-0.7,1.1-1.6,1.1-2.9s-0.5-2.2-1.1-2.9c-0.7-0.7-1.8-1.1-3.1-1.1c-0.8,0-1.5,0.2-2.2,0.3
					c-0.7,0.3-1.3,0.5-1.9,1.1c-0.5,0.3-0.8,0.5-1.3,0.5c-0.5,0-0.8-0.2-1.1-0.5c-0.3-0.3-0.5-0.5-0.5-1v-9.9c0-0.5,0.2-1.1,0.5-1.4
					c0.3-0.3,0.8-0.5,1.4-0.5h10.4c1.3,0,1.9,0.5,1.9,1.5c0,1.1-0.7,1.5-1.9,1.5h-8.2v6c1.1-0.7,2.4-1.1,3.9-1.1
					C328.8,350.7,330.1,350.9,331,351.5z"/>
			</g>
			<g>
				<path class="st4" d="M202,343.2c0.3,0.3,0.5,0.7,0.5,1.1c0,0.4-0.2,1-0.5,1.5L192,364c-0.5,0.7-1,1.1-1.6,1.1
					c-0.5,0-1-0.2-1.4-0.5c-0.5-0.3-0.5-0.8-0.5-1.3c0-0.5,0.2-0.7,0.3-1.1l9-16.3h-9.5c-1.3,0-1.9-0.5-1.9-1.6
					c0-1.1,0.7-1.6,1.9-1.6h12.5C201.3,342.8,201.6,342.9,202,343.2z"/>
			</g>
			<g>
				<path class="st4" d="M334.4,158.6c0,1.1-0.7,1.6-1.9,1.6h-10.5c-1.3,0-1.9-0.5-1.9-1.6c0-1.1,0.7-1.6,1.9-1.6h3.4v-14.3
					l-3.1,1.8c-0.3,0.2-0.5,0.3-0.8,0.3c-0.5,0-0.8-0.2-1.1-0.5c-0.3-0.5-0.5-0.8-0.5-1.3c0-0.5,0.3-1.1,0.8-1.4l4.8-3.1
					c0.7-0.5,1.3-0.5,1.8-0.5s1.1,0.2,1.4,0.5c0.5,0.5,0.5,0.8,0.5,1.5v17.1h3.4C333.8,157.1,334.4,157.7,334.4,158.6z"/>
			</g>
			<g>
				<path class="st4" d="M402.1,250.9c1.1,1.4,1.6,3.2,1.6,5.5c0,2.9-1.1,5.3-3.4,7.1c-2.2,1.8-5.1,2.6-8.7,2.6
					c-2.1,0-4.2-0.3-6.1-1c-1.9-0.7-3.6-1.5-5-2.8c-0.7-0.7-1.1-1.4-1.1-2.2c0-0.7,0.2-1.4,0.5-1.8c0.5-0.5,0.8-0.7,1.4-0.7
					c0.3,0,0.5,0,0.8,0.2c0.3,0.2,0.5,0.3,1.1,0.5c1.4,1,2.6,1.6,3.9,2.1c1.3,0.5,2.6,0.7,4,0.7c2.1,0,3.7-0.5,4.7-1.3
					c1-0.8,1.5-2.2,1.5-3.9s-0.5-3.1-1.6-3.9s-2.8-1.3-5-1.3h-2.7c-0.7,0-1.4-0.3-1.6-0.7c-0.5-0.5-0.5-1.1-0.5-1.6
					c0-0.7,0.2-1.3,0.5-1.8c0.5-0.5,1-0.7,1.6-0.7h1.9c4.5,0,6.6-1.6,6.6-5c0-1.5-0.5-2.8-1.4-3.6c-1-0.8-2.2-1.3-3.9-1.3
					c-2.4,0-4.8,1-7.6,2.8c-0.5,0.3-0.8,0.5-1.1,0.5c-0.3,0.2-0.5,0.2-0.8,0.2c-0.5,0-1-0.3-1.4-0.7c-0.5-0.5-0.5-1.1-0.5-1.8
					c0-0.5,0.2-0.8,0.3-1.3c0.2-0.3,0.5-0.7,0.8-1.1c1.4-1.1,3.1-2.1,4.8-2.6c1.9-0.7,3.9-1,5.8-1c3.4,0,6.1,0.8,8.1,2.5
					s3.1,3.9,3.1,6.6c0,1.9-0.5,3.5-1.5,5c-1,1.4-2.4,2.5-4,3.1C399.5,248.4,401.1,249.4,402.1,250.9z"/>
			</g>
		</g>
		<path class="st1" d="M259,434.8c-101.5,0-184-82.5-184-184s82.5-184,184-184s184,82.5,184,184S360.5,434.8,259,434.8z M259,93.1
			c-87,0-157.6,70.8-157.6,157.6S172.1,408.4,259,408.4s157.8-70.6,157.8-157.5S346,93.1,259,93.1z"/>
		<path class="st5" d="M318.9,229.7l-54.2,29.2c-4.9,2.6-11.2,0.7-13.9-4.2c-2.6-4.9-0.7-11.2,4.2-13.9l54.2-29.2
			c4.9-2.6,11.2-0.7,13.9,4.2C325.8,220.8,324.1,227.3,318.9,229.7z"/>
		<path class="st6" d="M259,237.7c-3.6,0-6.5-2.9-6.5-6.5v-72.3c0-3.6,2.9-6.5,6.5-6.5c3.6,0,6.5,2.9,6.5,6.5v72.3
			C265.6,234.8,262.7,237.7,259,237.7z"/>
		<g>
			<circle class="st0" cx="259" cy="250.9" r="25.6"/>
			<path class="st1" d="M259,277.1c-14.5,0-26.3-11.8-26.3-26.3c0-14.5,11.8-26.3,26.3-26.3c14.5,0,26.3,11.8,26.3,26.3
				C285.3,265.3,273.5,277.1,259,277.1z M259,237.7c-7.2,0-13.2,5.8-13.2,13.2c0,7.2,5.8,13.2,13.2,13.2c7.2,0,13.2-5.8,13.2-13.2
				C272.2,243.6,266.4,237.7,259,237.7z"/>
		</g>
	</g>
</g>
</svg>
