<?xml version="1.0" encoding="utf-8"?>
<!-- Generator: Adobe Illustrator 22.0.1, SVG Export Plug-In . SVG Version: 6.00 Build 0)  -->
<svg version="1.1" id="Layer_1" xmlns="http://www.w3.org/2000/svg" xmlns:xlink="http://www.w3.org/1999/xlink" x="0px" y="0px"
	 viewBox="0 0 336.7 400" style="enable-background:new 0 0 336.7 400;" xml:space="preserve">
<style type="text/css">
	.st0{fill:#FFFFFF;}
	.st1{fill:#F24044;}
	.st2{fill:#F86A00;}
	.st3{fill:#60025E;}
	.st4{fill:#00CDC8;}
</style>
<g>
	<g>
		<path class="st0" d="M49.1,290.6c-13.9,0-25.3-11.3-25.3-25.3S35.1,240,49.1,240s25.3,11.3,25.3,25.3S63,290.6,49.1,290.6z"/>
		<path class="st0" d="M49.1,245c11.2,0,20.3,9.1,20.3,20.3c0,11.2-9.1,20.3-20.3,20.3s-20.3-9.1-20.3-20.3
			C28.8,254.1,37.9,245,49.1,245 M49.1,235c-16.7,0-30.3,13.6-30.3,30.3s13.6,30.3,30.3,30.3s30.3-13.6,30.3-30.3S65.8,235,49.1,235
			L49.1,235z"/>
	</g>
	<g>
		<path class="st0" d="M108.1,290.6c-13.9,0-25.3-11.3-25.3-25.3S94.2,240,108.1,240s25.3,11.3,25.3,25.3S122.1,290.6,108.1,290.6z"
			/>
		<path class="st0" d="M108.1,245c11.2,0,20.3,9.1,20.3,20.3c0,11.2-9.1,20.3-20.3,20.3s-20.3-9.1-20.3-20.3
			C87.8,254.1,96.9,245,108.1,245 M108.1,235c-16.7,0-30.3,13.6-30.3,30.3s13.6,30.3,30.3,30.3s30.3-13.6,30.3-30.3
			S124.8,235,108.1,235L108.1,235z"/>
	</g>
	<g>
		<path class="st0" d="M284.3,290.6c-13.9,0-25.3-11.3-25.3-25.3c0-5.7,1.9-11,5.1-15.3h-18.6c3.2,4.2,5.1,9.5,5.1,15.3
			c0,13.9-11.3,25.3-25.3,25.3S200,279.2,200,265.3c0-5.7,1.9-11,5.1-15.3h-6.6c-0.3,0.1-0.6,0.1-0.9,0.1c-0.3,0-0.6,0-0.9-0.1h-9.2
			c3.2,4.2,5.1,9.5,5.1,15.3c0,13.9-11.3,25.3-25.3,25.3c-13.9,0-25.3-11.3-25.3-25.3c0-5.7,1.9-11,5.1-15.3h-8.7
			c-0.2,0-0.4,0-0.7,0H17.8c-2.8,0-5-2.2-5-5v-34.6c0-0.2-0.1-0.5-0.1-0.7v-37.4c0-2.8,2.2-5,5-5H77c0.3-0.1,0.6-0.1,0.9-0.1h55.4
			v-34.9h-1.9c-2.8,0-5-2.2-5-5v-12.8c0-2.8,2.2-5,5-5h74c2.8,0,5,2.2,5,5v12.8c0,2.8-2.2,5-5,5h-1.9v47.6h2V138
			c0-1.3,0.5-2.6,1.5-3.5l23.6-23.6c0.9-0.9,2.2-1.5,3.5-1.5s2.6,0.5,3.5,1.5l23.6,23.6c0.9,0.9,1.5,2.2,1.5,3.5v44.6l58.9,58.9
			c1.4,1.4,1.9,3.6,1.1,5.4c-0.8,1.9-2.6,3.1-4.6,3.1h-13.4c3.2,4.2,5.1,9.5,5.1,15.3C309.6,279.2,298.3,290.6,284.3,290.6z"/>
		<path class="st0" d="M234.1,114.4l23.6,23.6v46.9h0l0.1-0.1L318,245h-33c10.9,0.3,19.6,9.3,19.6,20.3c0,11.2-9.1,20.3-20.3,20.3
			s-20.3-9.1-20.3-20.3c0-11,8.7-19.9,19.6-20.3h-25.9h-31.9c10.9,0.3,19.6,9.3,19.6,20.3c0,11.2-9.1,20.3-20.3,20.3
			s-20.3-9.1-20.3-20.3c0-11,8.7-19.9,19.6-20.3h-26.1h-0.9l-0.1,0.1V245h-29.7c10.9,0.3,19.6,9.3,19.6,20.3
			c0,11.2-9.1,20.3-20.3,20.3c-11.2,0-20.3-9.1-20.3-20.3c0-11,8.7-19.9,19.6-20.3h-28.2v0H77.9H17.8v-35.3h-0.1v-37.4h60.2v-0.1
			h60.4v-44.9h-6.9v-12.8h74v12.8h-6.9v57.6h12V138L234.1,114.4 M234.1,104.4c-2.6,0-5.1,1-7.1,2.9L215.4,119v-4.5
			c0-5.5-4.5-10-10-10h-74c-5.5,0-10,4.5-10,10v12.8c0,4.4,2.9,8.2,6.9,9.5v25.4H77.9c-0.4,0-0.9,0-1.3,0.1H17.7
			c-5.5,0-10,4.5-10,10v37.4c0,0.4,0,0.7,0.1,1.1V245c0,5.5,4.5,10,10,10h60.2h59.5c0.3,0,0.6,0,0.9,0h0.4
			c-1.2,3.3-1.8,6.7-1.8,10.3c0,16.7,13.6,30.3,30.3,30.3c13.7,0,25.3-9.1,29-21.6c3.7,12.5,15.3,21.6,29,21.6
			c14.4,0,26.5-10.1,29.5-23.5c3.1,13.5,15.2,23.5,29.5,23.5c16.7,0,30.3-13.6,30.3-30.3c0-3.5-0.6-7-1.8-10.3h5.1
			c4,0,7.7-2.4,9.2-6.2c1.5-3.7,0.7-8-2.2-10.9l-57.4-57.4V138c0-2.7-1.1-5.2-2.9-7.1l-23.6-23.6
			C239.2,105.4,236.6,104.4,234.1,104.4L234.1,104.4z M253.8,255h2c-0.4,1.1-0.7,2.3-1,3.5C254.5,257.3,254.2,256.1,253.8,255
			L253.8,255z M195.7,255h0.5c0.2,0,0.4,0,0.5,0.1c-0.2,0.5-0.3,1-0.5,1.5C196.1,256,195.9,255.5,195.7,255L195.7,255z"/>
	</g>
</g>
<g>
	<polygon class="st1" points="258.8,184.9 198.5,184.9 198.5,245.1 	"/>
	<polygon class="st2" points="258.8,184.8 198.5,245 258.8,245 319,245 	"/>
	
		<rect x="138.3" y="127.2" transform="matrix(-1 -8.991531e-11 8.991531e-11 -1 336.8616 372.2187)" class="st3" width="60.2" height="117.8"/>
	
		<rect x="77.9" y="172.2" transform="matrix(-1 -4.490775e-11 4.490775e-11 -1 216.2433 381.7287)" class="st2" width="60.4" height="37.4"/>
	
		<rect x="17.7" y="172.2" transform="matrix(-1 -4.506319e-11 4.506319e-11 -1 95.625 381.8901)" class="st4" width="60.2" height="37.4"/>
	<circle class="st0" cx="168.4" cy="172.3" r="17.2"/>
	<circle class="st1" cx="49.1" cy="265.3" r="20.3"/>
	<circle class="st2" cx="108.1" cy="265.3" r="20.3"/>
	<circle class="st1" cx="167.2" cy="265.3" r="20.3"/>
	<circle class="st2" cx="226.3" cy="265.3" r="20.3"/>
	<circle class="st1" cx="285.3" cy="265.3" r="20.3"/>
	<rect x="131.4" y="114.4" class="st1" width="74" height="12.8"/>
	<rect x="17.8" y="209.6" class="st2" width="60.2" height="35.4"/>
	<rect x="77.9" y="209.6" class="st4" width="60.4" height="35.4"/>
</g>
<g>
	<polygon class="st1" points="258.6,138 235.1,114.4 211.5,138 	"/>
	<rect x="211.5" y="138" class="st3" width="47.1" height="47.1"/>
</g>
</svg>
