<?xml version="1.0" encoding="utf-8"?>
<!-- Generator: Adobe Illustrator 22.0.1, SVG Export Plug-In . SVG Version: 6.00 Build 0)  -->
<svg version="1.1" id="Layer_1" xmlns="http://www.w3.org/2000/svg" xmlns:xlink="http://www.w3.org/1999/xlink" x="0px" y="0px"
	 viewBox="0 0 336.7 400" style="enable-background:new 0 0 336.7 400;" xml:space="preserve">
<style type="text/css">
	.st0{fill:#FFFFFF;}
	.st1{fill:#490A3D;}
	.st2{fill:#F24044;}
	.st3{fill:#A5D73C;}
	.st4{fill:#00CDC8;}
	.st5{fill:#60025E;}
	.st6{fill:#FADC3C;}
</style>
<g>
	<path class="st0" d="M62.7,281.1c-1.9,0-3.7-1.1-4.5-2.8L16,191.4c-0.8-1.5-0.7-3.4,0.3-4.8c0.9-1.5,2.5-2.3,4.2-2.3h26.1v-18.2
		c0-0.2,0-0.3,0-0.5l0-10.8v-18.3c0-0.2,0-0.4,0-0.6l0-2c0-1.7,0.9-3.3,2.4-4.2c0.8-0.5,1.7-0.7,2.6-0.7c0.8,0,1.5,0.2,2.2,0.5
		l33.5,16.8c1.7,0.9,2.8,2.7,2.8,4.6c0,1.9-1.2,3.7-3,4.5L58.6,168v16.2h23.2l73.9-162.4c0.8-1.8,2.6-2.9,4.6-2.9s3.7,1.1,4.6,2.9
		l2.5,5.6l75.5,80.3c0.4,0.2,0.7,0.5,1,0.8l16.9,17.8c0.3,0.3,0.5,0.6,0.7,1l15.6,16.4c0.4,0.2,0.8,0.5,1.1,0.9l16.9,17.8
		c0.6,0.6,1,1.3,1.2,2l18.6,19.8h2.1c1.7,0,3.3,0.9,4.2,2.3c0.9,1.5,1,3.3,0.3,4.8l-42.2,86.9c-0.8,1.7-2.6,2.8-4.5,2.8H62.7z
		 M298.1,184.2L287,172.4l-22,6.7c-0.5,0.1-1,0.2-1.5,0.2c-1.4,0-2.7-0.6-3.7-1.6c-1.3-1.4-1.7-3.5-0.9-5.3l6.9-16.6l-18,5.5
		c-0.5,0.1-1,0.2-1.5,0.2c-1.4,0-2.7-0.6-3.7-1.6c-1.3-1.4-1.7-3.5-0.9-5.3l7.1-17.1l-18.2,5.5c-0.5,0.1-1,0.2-1.5,0.2
		c-1.4,0-2.7-0.6-3.7-1.6c-1.3-1.4-1.7-3.5-0.9-5.3l8.7-20.9L183,61.8l55.7,122.4H298.1z"/>
	<path class="st0" d="M160.2,23.9l2.9,6.3l77,81.9l0.1-0.2l16.9,17.8l-0.3,0.1l0.5,0.5l0.1-0.1l16.9,17.8l-0.3,0.1l0.3,0.3l0.2-0.4
		l16.9,17.8l-0.6,0.2l21.8,23.2h4.3l-42.2,86.9H62.7l-42.2-86.9h31.1v-23.6l0,0l0-10.8v-18.3h0l0-2.6l33.5,16.8l-31.6,14v24.5h9.1
		H85L160.2,23.9 M235.5,189.2h39.3h34.9l-21.2-22.5l-24.9,7.6l9.8-23.7l-1.7-1.8l-25.3,7.7l9.9-24l-1.9-2l-25.2,7.7l9.9-23.9
		l-73.3-78L235.5,189.2 M317,189.2L317,189.2 M160.2,13.9c-3.9,0-7.5,2.3-9.1,5.9l-57.3,126c-1-1.6-2.4-3-4.2-3.9L56.1,125
		c-1.4-0.7-3-1.1-4.5-1.1c-1.8,0-3.6,0.5-5.2,1.5c-3,1.8-4.8,5-4.8,8.5l0,1.8c0,0.3,0,0.6,0,0.9v18.3l0,10.7c0,0.2,0,0.4,0,0.7v13
		H20.5c-3.4,0-6.6,1.8-8.5,4.7c-1.8,2.9-2,6.6-0.5,9.7l42.2,86.9c1.7,3.4,5.2,5.6,9,5.6h212.1c3.8,0,7.3-2.2,9-5.6l42.1-86.6
		c0.7-1.4,1.1-3,1.1-4.6c0-5.5-4.5-10-10-10l-16.4-17.5c-0.5-1-1.1-1.9-1.9-2.8l-16.9-17.8c-0.4-0.5-0.9-0.9-1.5-1.3l-14.8-15.6
		c-0.3-0.5-0.7-1-1.1-1.4l-16.9-17.8c-0.4-0.4-0.9-0.8-1.4-1.2l-74.6-79.3l-2.2-4.8C167.7,16.2,164.2,13.9,160.2,13.9L160.2,13.9z
		 M220.8,132.7l-20.7-45.5l27.4,29.2L220.8,132.7L220.8,132.7z M229.3,148.2c1,0,2-0.1,2.9-0.4l8.1-2.5l-3.1,7.4
		c-1.5,3.6-0.8,7.7,1.8,10.5c1.9,2.1,4.6,3.3,7.4,3.3c1,0,2-0.1,2.9-0.4l7.8-2.4l-2.8,6.8c-1.2,2.9-1,6.1,0.5,8.7h-13l-14.2-31.1
		C228.3,148.2,228.8,148.2,229.3,148.2L229.3,148.2z M63.6,171.2l23.3-10.3l-8.3,18.3h-15V171.2L63.6,171.2z M281.9,179.2l3.7-1.1
		l1.1,1.1H281.9L281.9,179.2z"/>
</g>
<g>
	<rect x="51.6" y="136.5" class="st1" width="2" height="61.9"/>
</g>
<g>
	<g>
		
			<rect x="235.7" y="-1.3" transform="matrix(0.7284 -0.6851 0.6851 0.7284 -11.1581 192.1687)" class="st1" width="2.2" height="222.8"/>
	</g>
	<polygon class="st2" points="62.7,276.1 20.5,189.2 62.7,189.2 	"/>
	<polygon class="st3" points="160.2,23.9 85,189.2 160.2,189.2 	"/>
	<polygon class="st4" points="160.2,23.9 235.5,189.2 160.2,189.2 	"/>
	<polygon class="st2" points="274.8,276.1 317,189.2 274.8,189.2 	"/>
	<rect x="62.7" y="189.2" class="st5" width="212.1" height="86.9"/>
	<polygon class="st6" points="291.4,165.9 274.5,148 263.6,174.3 	"/>
	<polygon class="st4" points="274.3,148.1 257.4,130.2 246.5,156.5 	"/>
	<polygon class="st6" points="257.1,129.8 240.2,111.9 229.3,138.2 	"/>
	<g>
		<circle class="st6" cx="157.2" cy="221.6" r="15.7"/>
		<circle class="st6" cx="199.8" cy="221.6" r="15.7"/>
		<circle class="st6" cx="242.3" cy="221.6" r="15.7"/>
	</g>
	<polygon class="st6" points="51.6,133.9 51.6,165.6 85.2,150.7 	"/>
</g>
</svg>
