<?xml version="1.0" encoding="utf-8"?>
<!-- Generator: Adobe Illustrator 22.0.1, SVG Export Plug-In . SVG Version: 6.00 Build 0)  -->
<svg version="1.1" id="Layer_1" xmlns="http://www.w3.org/2000/svg" xmlns:xlink="http://www.w3.org/1999/xlink" x="0px" y="0px"
	 viewBox="0 0 336.7 400" style="enable-background:new 0 0 336.7 400;" xml:space="preserve">
<style type="text/css">
	.st0{fill:#AF7841;}
	.st1{opacity:0.19;}
	.st2{clip-path:url(#SVGID_2_);}
	.st3{fill:none;stroke:#41210D;stroke-width:1.8312;stroke-linecap:round;stroke-linejoin:round;stroke-miterlimit:10;}
	.st4{fill:#CEA57C;}
	.st5{opacity:0.15;clip-path:url(#SVGID_4_);}
	.st6{clip-path:url(#SVGID_6_);}
	.st7{opacity:0.15;clip-path:url(#SVGID_8_);}
	.st8{fill:#EBD2AF;}
	.st9{fill:#E1C3A0;}
	.st10{fill:#F0DCBE;}
	.st11{fill:#C49A69;}
	.st12{fill:#FADC3C;}
	.st13{fill:#FFFFFF;}
	.st14{fill:#A5D73C;}
	.st15{fill:#00CDC8;}
	.st16{fill:#F24044;}
	.st17{opacity:0.1;}
</style>
<g>
	<circle class="st0" cx="163.6" cy="106.8" r="76.9"/>
	<g class="st1">
		<defs>
			<circle id="SVGID_1_" class="st1" cx="163.6" cy="106.8" r="76.9"/>
		</defs>
		<clipPath id="SVGID_2_">
			<use xlink:href="#SVGID_1_"  style="overflow:visible;"/>
		</clipPath>
		<g class="st2">
			<g>
				<line class="st3" x1="61" y1="44.5" x2="255.1" y2="15"/>
				<line class="st3" x1="62.8" y1="56.8" x2="257" y2="27.3"/>
				<line class="st3" x1="64.7" y1="69.2" x2="258.8" y2="39.6"/>
				<line class="st3" x1="66.6" y1="81.5" x2="260.7" y2="52"/>
				<line class="st3" x1="68.5" y1="93.8" x2="262.6" y2="64.3"/>
				<line class="st3" x1="70.4" y1="106.2" x2="264.5" y2="76.6"/>
				<line class="st3" x1="72.2" y1="118.5" x2="266.3" y2="89"/>
				<line class="st3" x1="74.1" y1="130.8" x2="268.2" y2="101.3"/>
				<line class="st3" x1="76" y1="143.2" x2="270.1" y2="113.6"/>
				<line class="st3" x1="77.9" y1="155.5" x2="272" y2="126"/>
				<line class="st3" x1="79.7" y1="167.8" x2="273.9" y2="138.3"/>
				<line class="st3" x1="81.6" y1="180.2" x2="275.7" y2="150.6"/>
				<line class="st3" x1="83.5" y1="192.5" x2="277.6" y2="163"/>
			</g>
			<g>
				<line class="st3" x1="228.5" y1="-4.6" x2="258" y2="189.5"/>
				<line class="st3" x1="216.2" y1="-2.7" x2="245.7" y2="191.4"/>
				<line class="st3" x1="203.8" y1="-0.8" x2="233.4" y2="193.3"/>
				<line class="st3" x1="191.5" y1="1.1" x2="221" y2="195.2"/>
				<line class="st3" x1="179.2" y1="2.9" x2="208.7" y2="197"/>
				<line class="st3" x1="166.9" y1="4.8" x2="196.4" y2="198.9"/>
				<line class="st3" x1="154.5" y1="6.7" x2="184.1" y2="200.8"/>
				<line class="st3" x1="142.2" y1="8.6" x2="171.7" y2="202.7"/>
				<line class="st3" x1="129.9" y1="10.4" x2="159.4" y2="204.6"/>
				<line class="st3" x1="117.5" y1="12.3" x2="147.1" y2="206.4"/>
				<line class="st3" x1="105.2" y1="14.2" x2="134.7" y2="208.3"/>
				<line class="st3" x1="92.9" y1="16.1" x2="122.4" y2="210.2"/>
				<line class="st3" x1="80.5" y1="17.9" x2="110.1" y2="212.1"/>
			</g>
		</g>
	</g>
	<circle class="st4" cx="163.6" cy="106.8" r="66.8"/>
	<g>
		<defs>
			<circle id="SVGID_3_" cx="163.6" cy="106.8" r="66.8"/>
		</defs>
		<clipPath id="SVGID_4_">
			<use xlink:href="#SVGID_3_"  style="overflow:visible;"/>
		</clipPath>
		<g class="st5">
			<g>
				<line class="st3" x1="122.3" y1="-5.9" x2="292.4" y2="92.2"/>
				<line class="st3" x1="116.1" y1="4.9" x2="286.1" y2="103"/>
				<line class="st3" x1="109.9" y1="15.7" x2="279.9" y2="113.8"/>
				<line class="st3" x1="103.6" y1="26.5" x2="273.7" y2="124.6"/>
				<line class="st3" x1="97.4" y1="37.3" x2="267.4" y2="135.4"/>
				<line class="st3" x1="91.2" y1="48.1" x2="261.2" y2="146.2"/>
				<line class="st3" x1="84.9" y1="58.9" x2="255" y2="157"/>
				<line class="st3" x1="78.7" y1="69.7" x2="248.7" y2="167.8"/>
				<line class="st3" x1="72.4" y1="80.5" x2="242.5" y2="178.6"/>
				<line class="st3" x1="66.2" y1="91.3" x2="236.3" y2="189.4"/>
				<line class="st3" x1="60" y1="102.1" x2="230" y2="200.2"/>
				<line class="st3" x1="53.7" y1="112.9" x2="223.8" y2="211.1"/>
				<line class="st3" x1="47.5" y1="123.7" x2="217.5" y2="221.9"/>
			</g>
			<g>
				<line class="st3" x1="283.8" y1="60.3" x2="185.7" y2="230.4"/>
				<line class="st3" x1="273" y1="54.1" x2="174.9" y2="224.2"/>
				<line class="st3" x1="262.2" y1="47.9" x2="164.1" y2="217.9"/>
				<line class="st3" x1="251.4" y1="41.6" x2="153.3" y2="211.7"/>
				<line class="st3" x1="240.6" y1="35.4" x2="142.5" y2="205.5"/>
				<line class="st3" x1="229.8" y1="29.2" x2="131.7" y2="199.2"/>
				<line class="st3" x1="219" y1="22.9" x2="120.9" y2="193"/>
				<line class="st3" x1="208.2" y1="16.7" x2="110" y2="186.7"/>
				<line class="st3" x1="197.4" y1="10.5" x2="99.2" y2="180.5"/>
				<line class="st3" x1="186.6" y1="4.2" x2="88.4" y2="174.3"/>
				<line class="st3" x1="175.8" y1="-2" x2="77.6" y2="168"/>
				<line class="st3" x1="165" y1="-8.3" x2="66.8" y2="161.8"/>
				<line class="st3" x1="154.2" y1="-14.5" x2="56" y2="155.6"/>
			</g>
		</g>
	</g>
</g>
<g>
	<circle class="st0" cx="163.6" cy="292" r="76.9"/>
	<g class="st1">
		<defs>
			<circle id="SVGID_5_" class="st1" cx="163.6" cy="292" r="76.9"/>
		</defs>
		<clipPath id="SVGID_6_">
			<use xlink:href="#SVGID_5_"  style="overflow:visible;"/>
		</clipPath>
		<g class="st6">
			<g>
				<line class="st3" x1="61" y1="229.7" x2="255.1" y2="200.2"/>
				<line class="st3" x1="62.8" y1="242.1" x2="257" y2="212.6"/>
				<line class="st3" x1="64.7" y1="254.4" x2="258.8" y2="224.9"/>
				<line class="st3" x1="66.6" y1="266.7" x2="260.7" y2="237.2"/>
				<line class="st3" x1="68.5" y1="279.1" x2="262.6" y2="249.5"/>
				<line class="st3" x1="70.4" y1="291.4" x2="264.5" y2="261.9"/>
				<line class="st3" x1="72.2" y1="303.7" x2="266.3" y2="274.2"/>
				<line class="st3" x1="74.1" y1="316.1" x2="268.2" y2="286.5"/>
				<line class="st3" x1="76" y1="328.4" x2="270.1" y2="298.9"/>
				<line class="st3" x1="77.9" y1="340.7" x2="272" y2="311.2"/>
				<line class="st3" x1="79.7" y1="353.1" x2="273.9" y2="323.5"/>
				<line class="st3" x1="81.6" y1="365.4" x2="275.7" y2="335.9"/>
				<line class="st3" x1="83.5" y1="377.7" x2="277.6" y2="348.2"/>
			</g>
			<g>
				<line class="st3" x1="228.5" y1="180.7" x2="258" y2="374.8"/>
				<line class="st3" x1="216.2" y1="182.5" x2="245.7" y2="376.7"/>
				<line class="st3" x1="203.8" y1="184.4" x2="233.4" y2="378.5"/>
				<line class="st3" x1="191.5" y1="186.3" x2="221" y2="380.4"/>
				<line class="st3" x1="179.2" y1="188.2" x2="208.7" y2="382.3"/>
				<line class="st3" x1="166.9" y1="190" x2="196.4" y2="384.2"/>
				<line class="st3" x1="154.5" y1="191.9" x2="184.1" y2="386"/>
				<line class="st3" x1="142.2" y1="193.8" x2="171.7" y2="387.9"/>
				<line class="st3" x1="129.9" y1="195.7" x2="159.4" y2="389.8"/>
				<line class="st3" x1="117.5" y1="197.5" x2="147.1" y2="391.7"/>
				<line class="st3" x1="105.2" y1="199.4" x2="134.7" y2="393.5"/>
				<line class="st3" x1="92.9" y1="201.3" x2="122.4" y2="395.4"/>
				<line class="st3" x1="80.5" y1="203.2" x2="110.1" y2="397.3"/>
			</g>
		</g>
	</g>
	<circle class="st4" cx="163.6" cy="292" r="66.8"/>
	<g>
		<defs>
			<circle id="SVGID_7_" cx="163.6" cy="292" r="66.8"/>
		</defs>
		<clipPath id="SVGID_8_">
			<use xlink:href="#SVGID_7_"  style="overflow:visible;"/>
		</clipPath>
		<g class="st7">
			<g>
				<line class="st3" x1="122.3" y1="179.3" x2="292.4" y2="277.5"/>
				<line class="st3" x1="116.1" y1="190.1" x2="286.1" y2="288.3"/>
				<line class="st3" x1="109.9" y1="200.9" x2="279.9" y2="299.1"/>
				<line class="st3" x1="103.6" y1="211.7" x2="273.7" y2="309.9"/>
				<line class="st3" x1="97.4" y1="222.5" x2="267.4" y2="320.7"/>
				<line class="st3" x1="91.2" y1="233.3" x2="261.2" y2="331.5"/>
				<line class="st3" x1="84.9" y1="244.1" x2="255" y2="342.3"/>
				<line class="st3" x1="78.7" y1="254.9" x2="248.7" y2="353.1"/>
				<line class="st3" x1="72.4" y1="265.7" x2="242.5" y2="363.9"/>
				<line class="st3" x1="66.2" y1="276.5" x2="236.3" y2="374.7"/>
				<line class="st3" x1="60" y1="287.3" x2="230" y2="385.5"/>
				<line class="st3" x1="53.7" y1="298.1" x2="223.8" y2="396.3"/>
				<line class="st3" x1="47.5" y1="308.9" x2="217.5" y2="407.1"/>
			</g>
			<g>
				<line class="st3" x1="283.8" y1="245.6" x2="185.7" y2="415.6"/>
				<line class="st3" x1="273" y1="239.3" x2="174.9" y2="409.4"/>
				<line class="st3" x1="262.2" y1="233.1" x2="164.1" y2="403.2"/>
				<line class="st3" x1="251.4" y1="226.9" x2="153.3" y2="396.9"/>
				<line class="st3" x1="240.6" y1="220.6" x2="142.5" y2="390.7"/>
				<line class="st3" x1="229.8" y1="214.4" x2="131.7" y2="384.4"/>
				<line class="st3" x1="219" y1="208.2" x2="120.9" y2="378.2"/>
				<line class="st3" x1="208.2" y1="201.9" x2="110" y2="372"/>
				<line class="st3" x1="197.4" y1="195.7" x2="99.2" y2="365.7"/>
				<line class="st3" x1="186.6" y1="189.5" x2="88.4" y2="359.5"/>
				<line class="st3" x1="175.8" y1="183.2" x2="77.6" y2="353.3"/>
				<line class="st3" x1="165" y1="177" x2="66.8" y2="347"/>
				<line class="st3" x1="154.2" y1="170.7" x2="56" y2="340.8"/>
			</g>
		</g>
	</g>
</g>
<g id="Layer_1_1_">
	<path class="st8" d="M636.4,192.3H434.2c-4.3,0-7.8-3.5-7.8-7.8V55h217.8v129.6C644.2,188.9,640.7,192.3,636.4,192.3z"/>
	<path class="st4" d="M626.4,182.3H444.2c-4.3,0-7.8-3.5-7.8-7.8V55h197.8v119.6C634.2,178.9,630.7,182.3,626.4,182.3z"/>
	<rect x="426.4" y="55" class="st9" width="217.8" height="11.7"/>
	<path class="st10" d="M644.2,58.9H426.4c-2.1,0-3.9-1.7-3.9-3.9V37.8c0-4.3,3.5-7.8,7.8-7.8h210c4.3,0,7.8,3.5,7.8,7.8V55
		C648.1,57.1,646.3,58.9,644.2,58.9z"/>
	<path class="st11" d="M436.4,174.6l24.2-15.9h155.3l18.7,16.7c0,0-0.8,7-8.2,7s-182.2,0-182.2,0S436.4,182.4,436.4,174.6z"/>
	<g>
		<g>
			<g>
				<path class="st12" d="M600,115.7c-11.2,0-20.3-9.1-20.3-20.3c0-11.2,9.1-20.3,20.3-20.3s20.3,9.1,20.3,20.3
					C620.3,106.6,611.2,115.7,600,115.7z"/>
				<path class="st13" d="M600,76.1c10.7,0,19.3,8.6,19.3,19.3s-8.6,19.3-19.3,19.3c-10.7,0-19.3-8.6-19.3-19.3S589.4,76.1,600,76.1
					 M600,74.1c-11.7,0-21.3,9.6-21.3,21.3c0,11.7,9.6,21.3,21.3,21.3s21.3-9.6,21.3-21.3C621.3,83.7,611.8,74.1,600,74.1L600,74.1z
					"/>
			</g>
			<path class="st13" d="M600,77.2c10.1,0,18.3,8.2,18.3,18.3s-8.2,18.3-18.3,18.3c-10.1,0-18.3-8.2-18.3-18.3S590,77.2,600,77.2
				 M600,75.2c-11.2,0-20.3,9.1-20.3,20.3s9.1,20.3,20.3,20.3s20.3-9.1,20.3-20.3S611.2,75.2,600,75.2L600,75.2z"/>
		</g>
		<g>
			<g>
				<path class="st14" d="M530.5,179.2c-11.2,0-20.3-9.1-20.3-20.3c0-11.2,9.1-20.3,20.3-20.3s20.3,9.1,20.3,20.3
					C550.8,170.1,541.7,179.2,530.5,179.2z"/>
				<path class="st13" d="M530.5,139.6c10.6,0,19.3,8.6,19.3,19.3s-8.6,19.3-19.3,19.3c-10.6,0-19.3-8.6-19.3-19.3
					S519.8,139.6,530.5,139.6 M530.5,137.6c-11.7,0-21.3,9.6-21.3,21.3c0,11.7,9.6,21.3,21.3,21.3s21.3-9.6,21.3-21.3
					C551.8,147.2,542.3,137.6,530.5,137.6L530.5,137.6z"/>
			</g>
			<path class="st13" d="M530.5,140.7c10.1,0,18.3,8.2,18.3,18.3s-8.2,18.3-18.3,18.3c-10.1,0-18.3-8.2-18.3-18.3
				S520.5,140.7,530.5,140.7 M530.5,138.7c-11.2,0-20.3,9.1-20.3,20.3s9.1,20.3,20.3,20.3s20.3-9.1,20.3-20.3
				S541.7,138.7,530.5,138.7L530.5,138.7z"/>
		</g>
		<g>
			<g>
				<path class="st15" d="M454.6,169.9c-1.2,0-2-0.8-2-2v-26.7c0-1.2,0.8-2,2-2h26.7c1.2,0,2,0.8,2,2v26.7c0,1.2-0.8,2-2,2H454.6z"
					/>
				<path class="st13" d="M481.3,140.2c0.6,0,1,0.4,1,1v26.7c0,0.6-0.4,1-1,1h-26.7c-0.6,0-1-0.4-1-1v-26.7c0-0.6,0.4-1,1-1H481.3
					 M481.3,138.2h-26.7c-1.7,0-3,1.3-3,3v26.7c0,1.7,1.3,3,3,3h26.7c1.7,0,3-1.3,3-3v-26.7C484.3,139.5,483,138.2,481.3,138.2
					L481.3,138.2z"/>
			</g>
			<path class="st13" d="M481.3,141.2v26.7h-26.7v-26.7H481.3 M481.3,139.2h-26.7c-1.1,0-2,0.9-2,2v26.7c0,1.1,0.9,2,2,2h26.7
				c1.1,0,2-0.9,2-2v-26.7C483.3,140.1,482.4,139.2,481.3,139.2L481.3,139.2z"/>
		</g>
		<g>
			<g>
				<path class="st12" d="M491.2,138.9c-1.2,0-2-0.8-2-2v-26.7c0-1.2,0.8-2,2-2h26.7c1.2,0,2,0.8,2,2v26.7c0,1.2-0.8,2-2,2H491.2z"
					/>
				<path class="st13" d="M517.9,109.2c0.6,0,1,0.4,1,1v26.7c0,0.6-0.4,1-1,1h-26.7c-0.6,0-1-0.4-1-1v-26.7c0-0.6,0.4-1,1-1H517.9
					 M517.9,107.2h-26.7c-1.7,0-3,1.3-3,3v26.7c0,1.7,1.3,3,3,3h26.7c1.7,0,3-1.3,3-3v-26.7C520.9,108.5,519.6,107.2,517.9,107.2
					L517.9,107.2z"/>
			</g>
			<path class="st13" d="M517.9,110.2v26.7h-26.7v-26.7H517.9 M517.9,108.2h-26.7c-1.1,0-2,0.9-2,2v26.7c0,1.1,0.9,2,2,2h26.7
				c1.1,0,2-0.9,2-2v-26.7C519.9,109.1,519,108.2,517.9,108.2L517.9,108.2z"/>
		</g>
		<g>
			<g>
				<path class="st16" d="M461.9,113.8c-0.3,0-0.5,0-0.9-0.2c0,0-0.1,0-0.1-0.1c-0.6-0.4-0.9-1-0.9-1.7V79c0-0.7,0.3-1.3,0.9-1.7
					c0,0,0.1,0,0.1-0.1c0.4-0.2,0.7-0.2,0.9-0.2s0.5,0,0.9,0.2l28.5,16.4c0.7,0.4,1,1.1,1,1.8c0,0.7-0.3,1.3-0.9,1.7l-28.5,16.4
					C462.5,113.8,462.1,113.8,461.9,113.8z"/>
				<path class="st13" d="M461.9,78c0.2,0,0.3,0,0.5,0.1l28.4,16.4c0.3,0.2,0.5,0.5,0.5,0.9s-0.2,0.7-0.5,0.9l-28.4,16.4
					c-0.2,0.1-0.4,0.1-0.5,0.1c-0.2,0-0.3,0-0.5-0.1c-0.3-0.2-0.5-0.5-0.5-0.9V79c0-0.4,0.2-0.7,0.5-0.9C461.6,78,461.7,78,461.9,78
					 M461.9,76c-0.4,0-0.8,0-1.4,0.3c-0.1,0-0.1,0.1-0.2,0.1c-0.9,0.6-1.4,1.5-1.4,2.6v32.8c0,1,0.5,2,1.4,2.6
					c0.1,0,0.1,0.1,0.2,0.1c0.6,0.3,1,0.3,1.4,0.3c0.2,0,0.8,0,1.4-0.3c0,0,0.1,0,0.1-0.1L491.8,98c0,0,0.1,0,0.1-0.1
					c0.9-0.6,1.4-1.5,1.4-2.6c0-1-0.5-2-1.4-2.6c0,0-0.1,0-0.1-0.1l-28.4-16.4c0,0-0.1,0-0.1-0.1C462.8,76,462.3,76,461.9,76
					L461.9,76z"/>
			</g>
			<path class="st13" d="M461.9,79l28.4,16.4l-28.4,16.4V79 M461.9,77c-0.3,0-0.7,0.1-1,0.3c-0.6,0.4-1,1-1,1.7v32.8
				c0,0.7,0.4,1.4,1,1.7c0.3,0.2,0.7,0.3,1,0.3c0.3,0,0.7-0.1,1-0.3l28.4-16.3c0.6-0.4,1-1,1-1.7s-0.4-1.4-1-1.7l-28.4-16.5
				C462.5,77.1,462.2,77,461.9,77L461.9,77z"/>
		</g>
		<g>
			<g>
				<path class="st14" d="M542.1,110.4c-0.3,0-0.5,0-0.9-0.2l-28.5-16.4c-0.7-0.4-1-1.1-1-1.8s0.3-1.3,0.9-1.7l28.5-16.4
					c0.5-0.2,0.7-0.2,1-0.2c0.3,0,0.5,0,0.9,0.2c0,0,0.1,0,0.1,0.1c0.6,0.4,0.9,1,0.9,1.7v32.8c0,0.7-0.3,1.3-0.9,1.7
					C542.9,110.4,542.4,110.4,542.1,110.4z"/>
				<path class="st13" d="M542.1,74.6c0.2,0,0.3,0,0.5,0.1c0.3,0.2,0.5,0.5,0.5,0.9v32.8c0,0.4-0.2,0.7-0.5,0.9
					c-0.1,0.1-0.3,0.1-0.5,0.1c-0.2,0-0.3,0-0.5-0.1l-28.4-16.4c-0.3-0.2-0.5-0.5-0.5-0.9s0.2-0.7,0.5-0.9l28.4-16.4
					C541.8,74.6,541.9,74.6,542.1,74.6 M542.1,72.6c-0.4,0-0.8,0-1.4,0.3c0,0-0.1,0-0.1,0.1l-28.4,16.4c0,0-0.1,0-0.1,0.1
					c-0.9,0.6-1.4,1.5-1.4,2.6s0.5,2,1.4,2.6c0,0,0.1,0,0.1,0.1l28.4,16.4c0,0,0.1,0,0.1,0.1c0.6,0.3,1,0.3,1.4,0.3
					c0.3,0,1.1,0,1.7-0.5c0.8-0.6,1.3-1.5,1.3-2.5V75.6c0-1-0.5-2-1.4-2.6c-0.1,0-0.1-0.1-0.2-0.1C543,72.6,542.5,72.6,542.1,72.6
					L542.1,72.6z"/>
			</g>
			<path class="st13" d="M542.1,75.6v32.8L513.7,92L542.1,75.6 M542.1,73.6c-0.3,0-0.7,0.1-1,0.3l-28.4,16.4c-0.6,0.4-1,1-1,1.7
				s0.4,1.4,1,1.7l28.4,16.4c0.3,0.2,0.7,0.3,1,0.3c0.3,0,0.7-0.1,1-0.3c0.6-0.4,1-1,1-1.7V75.6c0-0.7-0.4-1.4-1-1.7
				C542.8,73.7,542.5,73.6,542.1,73.6L542.1,73.6z"/>
		</g>
		<g>
			<g>
				<path class="st16" d="M587.6,171.9c-1.2,0-2-0.8-2-2V128c0-1.2,0.8-2,2-2h26.7c1.2,0,2,0.8,2,2v41.9c0,1.2-0.8,2-2,2H587.6z"/>
				<path class="st13" d="M614.3,127c0.6,0,1,0.4,1,1v41.9c0,0.6-0.4,1-1,1h-26.7c-0.6,0-1-0.4-1-1V128c0-0.6,0.4-1,1-1H614.3
					 M614.3,125h-26.7c-1.7,0-3,1.3-3,3v41.9c0,1.7,1.3,3,3,3h26.7c1.7,0,3-1.3,3-3V128C617.3,126.3,616,125,614.3,125L614.3,125z"
					/>
			</g>
			<path class="st13" d="M614.4,128v41.9h-26.7V128H614.4 M614.4,126h-26.7c-1.1,0-2,0.9-2,2v41.9c0,1.1,0.9,2,2,2h26.7
				c1.1,0,2-0.9,2-2V128C616.4,126.9,615.5,126,614.4,126L614.4,126z"/>
		</g>
		<g>
			<g>
				<path class="st15" d="M555,151.3c-1.2,0-2-0.8-2-2V113c0-1.2,0.8-2,2-2h23.1c1.2,0,2,0.8,2,2v36.3c0,1.2-0.8,2-2,2H555z"/>
				<path class="st13" d="M578.1,112c0.6,0,1,0.4,1,1v36.3c0,0.6-0.4,1-1,1H555c-0.6,0-1-0.4-1-1V113c0-0.6,0.4-1,1-1H578.1
					 M578.1,110H555c-1.7,0-3,1.3-3,3v36.3c0,1.7,1.3,3,3,3h23.1c1.7,0,3-1.3,3-3V113C581.1,111.3,579.8,110,578.1,110L578.1,110z"
					/>
			</g>
			<path class="st13" d="M578.1,113v36.3H555V113H578.1 M578.1,111H555c-1.1,0-2,0.9-2,2v36.3c0,1.1,0.9,2,2,2h23.1c1.1,0,2-0.9,2-2
				V113C580.1,111.9,579.2,111,578.1,111L578.1,111z"/>
		</g>
	</g>
	<path class="st8" d="M636.4,375H434.2c-4.3,0-7.8-3.5-7.8-7.8V237.7h217.8v129.6C644.2,371.5,640.7,375,636.4,375z"/>
	<path class="st4" d="M626.4,365H444.2c-4.3,0-7.8-3.5-7.8-7.8V237.7h197.8v119.6C634.2,361.5,630.7,365,626.4,365z"/>
	<rect x="426.4" y="237.7" class="st9" width="217.8" height="11.7"/>
	<path class="st10" d="M644.2,241.6H426.4c-2.1,0-3.9-1.7-3.9-3.9v-17.2c0-4.3,3.5-7.8,7.8-7.8h210c4.3,0,7.8,3.5,7.8,7.8v17.2
		C648.1,239.8,646.3,241.6,644.2,241.6z"/>
	<path class="st11" d="M436.4,357.2l24.2-15.9h155.3l18.7,16.7c0,0-0.8,7-8.2,7s-182.2,0-182.2,0S436.4,365.1,436.4,357.2z"/>
	<g>
		<g>
			<g>
				<path class="st12" d="M560.3,359.3c-11.2,0-20.3-9.1-20.3-20.3s9.1-20.3,20.3-20.3c11.2,0,20.3,9.1,20.3,20.3
					S571.5,359.3,560.3,359.3z"/>
				<path class="st13" d="M560.3,319.7c10.7,0,19.3,8.6,19.3,19.3s-8.6,19.3-19.3,19.3c-10.7,0-19.3-8.6-19.3-19.3
					S549.7,319.7,560.3,319.7 M560.3,317.7c-11.7,0-21.3,9.6-21.3,21.3s9.6,21.3,21.3,21.3s21.3-9.6,21.3-21.3
					S572.1,317.7,560.3,317.7L560.3,317.7z"/>
			</g>
			<path class="st13" d="M560.3,320.7c10.1,0,18.3,8.2,18.3,18.3s-8.2,18.3-18.3,18.3c-10.1,0-18.3-8.2-18.3-18.3
				S550.2,320.7,560.3,320.7 M560.3,318.7c-11.2,0-20.3,9.1-20.3,20.3s9.1,20.3,20.3,20.3c11.2,0,20.3-9.1,20.3-20.3
				S571.5,318.7,560.3,318.7L560.3,318.7z"/>
		</g>
		<g>
			<g>
				<path class="st15" d="M502.3,301c-1.2,0-2-0.8-2-2v-26.7c0-1.2,0.8-2,2-2H529c1.2,0,2,0.8,2,2V299c0,1.2-0.8,2-2,2H502.3z"/>
				<path class="st13" d="M529,271.3c0.6,0,1,0.4,1,1V299c0,0.6-0.4,1-1,1h-26.7c-0.6,0-1-0.4-1-1v-26.7c0-0.6,0.4-1,1-1H529
					 M529,269.3h-26.7c-1.7,0-3,1.3-3,3V299c0,1.7,1.3,3,3,3H529c1.7,0,3-1.3,3-3v-26.7C532,270.6,530.7,269.3,529,269.3L529,269.3z
					"/>
			</g>
			<path class="st13" d="M529,272.3V299h-26.7v-26.7H529 M529,270.3h-26.7c-1.1,0-2,0.9-2,2V299c0,1.1,0.9,2,2,2H529
				c1.1,0,2-0.9,2-2v-26.7C531,271.2,530.1,270.3,529,270.3L529,270.3z"/>
		</g>
		<g>
			<g>
				<path class="st15" d="M588.2,355.9c-1.2,0-2-0.8-2-2v-23.1c0-1.2,0.8-2,2-2h36.3c1.2,0,2,0.8,2,2v23.1c0,1.2-0.8,2-2,2H588.2z"
					/>
				<path class="st13" d="M624.5,329.8c0.6,0,1,0.4,1,1v23.1c0,0.6-0.4,1-1,1h-36.3c-0.6,0-1-0.4-1-1v-23.1c0-0.6,0.4-1,1-1H624.5
					 M624.5,327.8h-36.3c-1.7,0-3,1.3-3,3v23.1c0,1.7,1.3,3,3,3h36.3c1.7,0,3-1.3,3-3v-23.1C627.5,329.1,626.2,327.8,624.5,327.8
					L624.5,327.8z"/>
			</g>
			<path class="st13" d="M624.4,330.8v23.1h-36.3v-23.1H624.4 M624.4,328.8h-36.3c-1.1,0-2,0.9-2,2v23.1c0,1.1,0.9,2,2,2h36.3
				c1.1,0,2-0.9,2-2v-23.1C626.4,329.7,625.6,328.8,624.4,328.8L624.4,328.8z"/>
		</g>
		<g>
			<g>
				<path class="st16" d="M449.4,357c-1.2,0-2-0.8-2-2v-26.7c0-1.2,0.8-2,2-2h41.9c1.2,0,2,0.8,2,2V355c0,1.2-0.8,2-2,2H449.4z"/>
				<path class="st13" d="M491.3,327.3c0.6,0,1,0.4,1,1V355c0,0.6-0.4,1-1,1h-41.9c-0.6,0-1-0.4-1-1v-26.7c0-0.6,0.4-1,1-1H491.3
					 M491.3,325.3h-41.9c-1.7,0-3,1.3-3,3V355c0,1.7,1.3,3,3,3h41.9c1.7,0,3-1.3,3-3v-26.7C494.3,326.6,493,325.3,491.3,325.3
					L491.3,325.3z"/>
			</g>
			<path class="st13" d="M491.2,328.3V355h-41.8v-26.7H491.2 M491.2,326.3h-41.8c-1.1,0-2,0.9-2,2V355c0,1.1,0.9,2,2,2h41.9
				c1.1,0,2-0.9,2-2v-26.7C493.2,327.2,492.4,326.3,491.2,326.3L491.2,326.3z"/>
		</g>
		<g>
			<g>
				<path class="st14" d="M606.3,313.3c-0.7,0-1.3-0.3-1.7-0.9l-16.4-28.5c-0.4-0.6-0.4-1.4,0-2.1c0.4-0.6,1-0.9,1.7-0.9h32.8
					c0.7,0,1.3,0.3,1.7,0.9c0.4,0.6,0.4,1.5,0,2.1l-16.4,28.3C607.7,312.9,607,313.3,606.3,313.3z"/>
				<path class="st13" d="M622.7,281.9c0.4,0,0.7,0.2,0.9,0.5s0.2,0.7,0,1l-16.4,28.4c-0.2,0.3-0.6,0.5-0.9,0.5
					c-0.4,0-0.7-0.2-0.9-0.5L589,283.4c-0.2-0.3-0.2-0.7,0-1c0.2-0.3,0.5-0.5,0.9-0.5H622.7 M622.7,279.9h-32.8c-1,0-2,0.5-2.6,1.4
					c-0.6,1-0.7,2.2,0,3.1l16.4,28.4c0,0,0,0.1,0.1,0.1c0.6,0.9,1.5,1.4,2.6,1.4c1,0,2-0.5,2.6-1.4c0,0,0-0.1,0.1-0.1l16.4-28.4
					c0.6-1,0.6-2.2,0-3.2C624.7,280.4,623.8,279.9,622.7,279.9L622.7,279.9z"/>
			</g>
			<path class="st13" d="M622.7,282.8L622.7,282.8 M622.7,282.8l-16.4,28.5l-16.4-28.4h32.8 M622.7,280.8L622.7,280.8h-32.8
				c-0.7,0-1.4,0.4-1.7,1c-0.4,0.6-0.4,1.4,0,2l16.4,28.4c0.4,0.6,1,1,1.7,1s1.4-0.4,1.7-1l16.4-28.4c0.2-0.3,0.3-0.7,0.3-1.1
				C624.7,281.7,623.8,280.8,622.7,280.8L622.7,280.8z M622.7,284.8L622.7,284.8L622.7,284.8L622.7,284.8z"/>
		</g>
	</g>
</g>
<g id="Layer_2_1_">
</g>
<g class="st17">
	<g>
		<rect x="137.8" y="56.5" width="21" height="21"/>
	</g>
	<g>
		<rect x="201.5" y="96.8" width="21" height="21"/>
	</g>
	<g>
		<polygon points="197.8,65.3 181.7,65.3 181.4,65.3 165.3,65.3 165.3,81.7 181.4,81.7 181.7,81.7 197.8,81.7 		"/>
	</g>
	<g>
		<polygon points="190.6,160.7 190.6,144.6 190.6,144.3 190.6,128.3 174.2,128.3 174.2,144.3 174.2,144.6 174.2,160.7 		"/>
	</g>
	<g>
		<polygon points="142.5,150.6 142.5,117.7 163.5,124.7 163.5,157.6 		"/>
	</g>
	<g>
		<polygon points="193.8,90.9 168,90.4 154.6,112.5 180.5,113 		"/>
	</g>
	<g>
		<polygon points="115.3,146.5 115.3,117.7 133.6,123.8 133.6,152.6 		"/>
	</g>
	<g>
		<polygon points="151.7,98.8 127.1,84.6 102.5,98.8 127.1,113 		"/>
	</g>
</g>
<g>
	<path class="st15" d="M137.9,76c-0.6,0-1-0.4-1-1V54c0-0.6,0.4-1,1-1h21c0.6,0,1,0.4,1,1v21c0,0.6-0.4,1-1,1H137.9z"/>
	<path class="st13" d="M158.8,54v21h-21V54H158.8 M158.8,52h-21c-1.1,0-2,0.9-2,2v21c0,1.1,0.9,2,2,2h21c1.1,0,2-0.9,2-2V54
		C160.8,52.9,159.9,52,158.8,52L158.8,52z"/>
</g>
<g>
	<path class="st12" d="M201.6,116.2c-0.6,0-1-0.4-1-1v-21c0-0.6,0.4-1,1-1h21c0.6,0,1,0.4,1,1v21c0,0.6-0.4,1-1,1H201.6z"/>
	<path class="st13" d="M222.5,94.3v21h-21v-21H222.5 M222.5,92.3h-21c-1.1,0-2,0.9-2,2v21c0,1.1,0.9,2,2,2h21c1.1,0,2-0.9,2-2v-21
		C224.5,93.2,223.6,92.3,222.5,92.3L222.5,92.3z"/>
</g>
<g>
	<path class="st14" d="M165.4,80.2c-0.6,0-1-0.4-1-1V62.8c0-0.6,0.4-1,1-1h32.4c0.6,0,1,0.4,1,1v16.4c0,0.6-0.4,1-1,1H165.4z"/>
	<path class="st13" d="M197.9,62.8v16.4h-16.1h-0.3h-16.1V62.8h16.1h0.3H197.9 M197.9,60.8h-16.1h-0.3h-16.1c-1.1,0-2,0.9-2,2v16.4
		c0,1.1,0.9,2,2,2h16.1h0.3h16.1c1.1,0,2-0.9,2-2V62.8C199.9,61.7,199,60.8,197.9,60.8L197.9,60.8z"/>
</g>
<g>
	<path class="st15" d="M174.2,159.1c-0.6,0-1-0.4-1-1v-32.4c0-0.6,0.4-1,1-1h16.4c0.6,0,1,0.4,1,1v32.4c0,0.6-0.4,1-1,1H174.2z"/>
	<path class="st13" d="M190.6,125.7v16.1v0.3v16.1h-16.4V142v-0.3v-16.1H190.6 M190.6,123.7h-16.4c-1.1,0-2,0.9-2,2v16.1v0.3v16.1
		c0,1.1,0.9,2,2,2h16.4c1.1,0,2-0.9,2-2V142v-0.3v-16.1C192.6,124.6,191.7,123.7,190.6,123.7L190.6,123.7z"/>
</g>
<g>
	<path class="st12" d="M163.6,156.2c-0.1,0-0.2,0-0.3-0.1l-21-7c-0.4-0.1-0.7-0.5-0.7-0.9v-32.9c0-0.3,0.2-0.6,0.4-0.8
		c0.2-0.1,0.4-0.2,0.6-0.2c0.1,0,0.2,0,0.3,0.1l21,7c0.4,0.1,0.7,0.5,0.7,0.9v32.9c0,0.3-0.2,0.6-0.4,0.8
		C164,156.1,163.8,156.2,163.6,156.2z"/>
	<path class="st13" d="M142.6,115.2l21,7v32.9l-21-7V115.2 M142.6,113.2c-0.4,0-0.8,0.1-1.2,0.4c-0.5,0.4-0.8,1-0.8,1.6v32.9
		c0,0.9,0.6,1.6,1.4,1.9l21,7c0.2,0.1,0.4,0.1,0.6,0.1c0.4,0,0.8-0.1,1.2-0.4c0.5-0.4,0.8-1,0.8-1.6v-32.9c0-0.9-0.6-1.6-1.4-1.9
		l-21-7C143,113.3,142.8,113.2,142.6,113.2L142.6,113.2z"/>
</g>
<g>
	<path class="st16" d="M154.7,111c-0.4,0-0.7-0.2-0.9-0.5s-0.2-0.7,0-1l13.4-22.1c0.2-0.3,0.5-0.5,0.9-0.5c0,0,25.9,0.5,25.9,0.5
		c0.4,0,0.7,0.2,0.9,0.5s0.2,0.7,0,1l-13.4,22.1c-0.2,0.3-0.5,0.5-0.9,0.5C180.6,111.6,154.7,111,154.7,111z"/>
	<path class="st13" d="M168.1,87.9l25.9,0.5l-13.4,22.1l-25.9-0.5L168.1,87.9 M168.1,85.9c-0.7,0-1.3,0.4-1.7,1L153,109
		c-0.4,0.6-0.4,1.4,0,2c0.3,0.6,1,1,1.7,1l25.9,0.5c0,0,0,0,0,0c0.7,0,1.3-0.4,1.7-1l13.4-22.1c0.4-0.6,0.4-1.4,0-2
		c-0.3-0.6-1-1-1.7-1L168.1,85.9C168.1,85.9,168.1,85.9,168.1,85.9L168.1,85.9z"/>
</g>
<g>
	<path class="st16" d="M133.7,151.1c-0.1,0-0.2,0-0.3-0.1l-18.4-6.1c-0.4-0.1-0.7-0.5-0.7-0.9v-28.8c0-0.3,0.2-0.6,0.4-0.8
		c0.2-0.1,0.4-0.2,0.6-0.2c0.1,0,0.2,0,0.3,0.1l18.4,6.1c0.4,0.1,0.7,0.5,0.7,0.9v28.8c0,0.3-0.2,0.6-0.4,0.8
		C134.1,151.1,133.9,151.1,133.7,151.1z"/>
	<path class="st13" d="M115.4,115.2l18.4,6.1v28.8l-18.4-6.1V115.2 M115.4,113.2c-0.4,0-0.8,0.1-1.2,0.4c-0.5,0.4-0.8,1-0.8,1.6V144
		c0,0.9,0.6,1.6,1.4,1.9l18.4,6.1c0.2,0.1,0.4,0.1,0.6,0.1c0.4,0,0.8-0.1,1.2-0.4c0.5-0.4,0.8-1,0.8-1.6v-28.8
		c0-0.9-0.6-1.6-1.4-1.9l-18.4-6.1C115.8,113.3,115.6,113.2,115.4,113.2L115.4,113.2z"/>
</g>
<g>
	<path class="st14" d="M127.2,111.6c-0.2,0-0.3,0-0.5-0.1l-24.6-14.2c-0.3-0.2-0.5-0.5-0.5-0.9s0.2-0.7,0.5-0.9l24.6-14.2
		c0.2-0.1,0.3-0.1,0.5-0.1s0.3,0,0.5,0.1l24.6,14.2c0.3,0.2,0.5,0.5,0.5,0.9s-0.2,0.7-0.5,0.9l-24.6,14.2
		C127.5,111.5,127.4,111.6,127.2,111.6z"/>
	<path class="st13" d="M127.2,82.2l24.6,14.2l-24.6,14.2l-24.6-14.2L127.2,82.2 M127.2,80.2c-0.3,0-0.7,0.1-1,0.3l-24.6,14.2
		c-0.6,0.4-1,1-1,1.7s0.4,1.4,1,1.7l24.6,14.2c0.3,0.2,0.7,0.3,1,0.3c0.3,0,0.7-0.1,1-0.3l24.6-14.2c0.6-0.4,1-1,1-1.7
		s-0.4-1.4-1-1.7l-24.6-14.2C127.9,80.2,127.5,80.2,127.2,80.2L127.2,80.2z"/>
</g>
<g class="st17">
	<polygon points="186,319.2 186,352.2 165,345.2 165,312.2 	"/>
</g>
<g class="st17">
	<polygon points="139.1,295.7 165,296.3 178.3,274.2 152.5,273.6 	"/>
</g>
<g class="st17">
	<polygon points="212,259.1 212,287.9 193.6,281.8 193.6,253 	"/>
</g>
<g class="st17">
	<polygon points="175.5,306.8 200.1,321 224.7,306.8 200.1,292.6 	"/>
</g>
<g class="st17">
	<rect x="107.1" y="284.9" width="21" height="21"/>
</g>
<g>
	<path class="st12" d="M186,350.6c-0.1,0-0.2,0-0.3-0.1l-21-7c-0.4-0.1-0.7-0.5-0.7-0.9v-32.9c0-0.3,0.2-0.6,0.4-0.8
		c0.2-0.1,0.4-0.2,0.6-0.2c0.1,0,0.2,0,0.3,0.1l21,7c0.4,0.1,0.7,0.5,0.7,0.9v32.9c0,0.3-0.2,0.6-0.4,0.8
		C186.5,350.5,186.2,350.6,186,350.6z"/>
	<path class="st13" d="M165,309.6l21,7v32.9l-21-7V309.6 M165,307.6c-0.4,0-0.8,0.1-1.2,0.4c-0.5,0.4-0.8,1-0.8,1.6v32.9
		c0,0.9,0.6,1.6,1.4,1.9l21,7c0.2,0.1,0.4,0.1,0.6,0.1c0.4,0,0.8-0.1,1.2-0.4c0.5-0.4,0.8-1,0.8-1.6v-32.9c0-0.9-0.6-1.6-1.4-1.9
		l-21-7C165.5,307.7,165.3,307.6,165,307.6L165,307.6z"/>
</g>
<g>
	<path class="st16" d="M139.1,294.2c-0.4,0-0.7-0.2-0.9-0.5c-0.2-0.3-0.2-0.7,0-1l13.4-22.1c0.2-0.3,0.5-0.5,0.9-0.5
		c0,0,25.9,0.5,25.9,0.5c0.4,0,0.7,0.2,0.9,0.5c0.2,0.3,0.2,0.7,0,1l-13.4,22.1c-0.2,0.3-0.5,0.5-0.9,0.5
		C164.9,294.7,139.1,294.2,139.1,294.2z"/>
	<path class="st13" d="M152.5,271l25.9,0.5L165,293.7l-25.9-0.5L152.5,271 M152.5,269c-0.7,0-1.3,0.4-1.7,1l-13.4,22.1
		c-0.4,0.6-0.4,1.4,0,2c0.3,0.6,1,1,1.7,1l25.9,0.5c0,0,0,0,0,0c0.7,0,1.3-0.4,1.7-1l13.4-22.1c0.4-0.6,0.4-1.4,0-2
		c-0.3-0.6-1-1-1.7-1L152.5,269C152.5,269,152.5,269,152.5,269L152.5,269z"/>
</g>
<g>
	<path class="st16" d="M212,286.3c-0.1,0-0.2,0-0.3-0.1l-18.4-6.1c-0.4-0.1-0.7-0.5-0.7-0.9v-28.8c0-0.3,0.2-0.6,0.4-0.8
		c0.2-0.1,0.4-0.2,0.6-0.2c0.1,0,0.2,0,0.3,0.1l18.4,6.1c0.4,0.1,0.7,0.5,0.7,0.9v28.8c0,0.3-0.2,0.6-0.4,0.8
		C212.4,286.3,212.2,286.3,212,286.3z"/>
	<path class="st13" d="M193.6,250.4l18.4,6.1v28.8l-18.4-6.1V250.4 M193.6,248.4c-0.4,0-0.8,0.1-1.2,0.4c-0.5,0.4-0.8,1-0.8,1.6
		v28.8c0,0.9,0.6,1.6,1.4,1.9l18.4,6.1c0.2,0.1,0.4,0.1,0.6,0.1c0.4,0,0.8-0.1,1.2-0.4c0.5-0.4,0.8-1,0.8-1.6v-28.8
		c0-0.9-0.6-1.6-1.4-1.9l-18.4-6.1C194,248.5,193.8,248.4,193.6,248.4L193.6,248.4z"/>
</g>
<g>
	<path class="st14" d="M200.1,319.4c-0.2,0-0.3,0-0.5-0.1L175,305.1c-0.3-0.2-0.5-0.5-0.5-0.9s0.2-0.7,0.5-0.9l24.6-14.2
		c0.2-0.1,0.3-0.1,0.5-0.1s0.3,0,0.5,0.1l24.6,14.2c0.3,0.2,0.5,0.5,0.5,0.9s-0.2,0.7-0.5,0.9l-24.6,14.2
		C200.5,319.4,200.3,319.4,200.1,319.4z"/>
	<path class="st13" d="M200.1,290l24.6,14.2l-24.6,14.2l-24.6-14.2L200.1,290 M200.1,288c-0.3,0-0.7,0.1-1,0.3l-24.6,14.2
		c-0.6,0.4-1,1-1,1.7s0.4,1.4,1,1.7l24.6,14.2c0.3,0.2,0.7,0.3,1,0.3s0.7-0.1,1-0.3l24.6-14.2c0.6-0.4,1-1,1-1.7s-0.4-1.4-1-1.7
		l-24.6-14.2C200.8,288.1,200.5,288,200.1,288L200.1,288z"/>
</g>
<g>
	<path class="st12" d="M107.1,304.3c-0.6,0-1-0.4-1-1v-21c0-0.6,0.4-1,1-1h21c0.6,0,1,0.4,1,1v21c0,0.6-0.4,1-1,1H107.1z"/>
	<path class="st13" d="M128,282.4v21h-21v-21H128 M128,280.4h-21c-1.1,0-2,0.9-2,2v21c0,1.1,0.9,2,2,2h21c1.1,0,2-0.9,2-2v-21
		C130,281.3,129.1,280.4,128,280.4L128,280.4z"/>
</g>
</svg>
