<?xml version="1.0" encoding="utf-8"?>
<!-- Generator: Adobe Illustrator 22.0.1, SVG Export Plug-In . SVG Version: 6.00 Build 0)  -->
<svg version="1.1" id="Layer_1" xmlns="http://www.w3.org/2000/svg" xmlns:xlink="http://www.w3.org/1999/xlink" x="0px" y="0px"
	 viewBox="0 0 50 50" style="enable-background:new 0 0 50 50;" xml:space="preserve">
<style type="text/css">
	.st0{fill:#3CBFBF;}
	.st1{fill:#FFFFFF;}
</style>
<g>
	<path class="st0" d="M11.5,40c-0.8,0-1.5-0.7-1.5-1.5v-27c0-0.8,0.7-1.5,1.5-1.5h27c0.8,0,1.5,0.7,1.5,1.5v27
		c0,0.8-0.7,1.5-1.5,1.5H11.5z"/>
	<path class="st1" d="M38.5,11.5v27h-27v-27H38.5 M38.5,8.5h-27c-1.7,0-3,1.3-3,3v27c0,1.7,1.3,3,3,3h27c1.7,0,3-1.3,3-3v-27
		C41.5,9.9,40.1,8.5,38.5,8.5L38.5,8.5z"/>
</g>
</svg>
