<?xml version="1.0" encoding="utf-8"?>
<!-- Generator: Adobe Illustrator 22.0.1, SVG Export Plug-In . SVG Version: 6.00 Build 0)  -->
<svg version="1.1" id="Layer_1" xmlns="http://www.w3.org/2000/svg" xmlns:xlink="http://www.w3.org/1999/xlink" x="0px" y="0px"
	 viewBox="0 0 50 50" style="enable-background:new 0 0 50 50;" xml:space="preserve">
<style type="text/css">
	.st0{fill:#A5D73C;}
	.st1{fill:#FFFFFF;}
</style>
<g>
	<path class="st0" d="M14.5,45c-0.8,0-1.5-0.7-1.5-1.5v-36C13,6.7,13.7,6,14.5,6h21C36.3,6,37,6.7,37,7.5v36c0,0.8-0.7,1.5-1.5,1.5
		H14.5z"/>
	<path class="st1" d="M35.5,7.5v36h-21v-36H35.5 M35.5,4.5h-21c-1.7,0-3,1.3-3,3v36c0,1.7,1.3,3,3,3h21c1.7,0,3-1.3,3-3v-36
		C38.5,5.9,37.1,4.5,35.5,4.5L35.5,4.5z"/>
</g>
</svg>
