<?xml version="1.0" encoding="utf-8"?>
<!-- Generator: Adobe Illustrator 22.0.1, SVG Export Plug-In . SVG Version: 6.00 Build 0)  -->
<svg version="1.1" id="Layer_1" xmlns="http://www.w3.org/2000/svg" xmlns:xlink="http://www.w3.org/1999/xlink" x="0px" y="0px"
	 viewBox="0 0 50 50" style="enable-background:new 0 0 50 50;" xml:space="preserve">
<style type="text/css">
	.st0{fill:#00CDC8;}
	.st1{fill:#FFFFFF;}
</style>
<g>
	<path class="st0" d="M16.3,45c-0.7,0-1.1-0.5-1.1-1.1V7.2c0-0.7,0.5-1.1,1.1-1.1h18.6c0.7,0,1.1,0.5,1.1,1.1v36.7
		c0,0.7-0.5,1.1-1.1,1.1H16.3z"/>
	<path class="st1" d="M34.8,7.1v18.2v0.3v18.2H16.3V25.7v-0.3V7.1H34.8 M34.8,4.8H16.3c-1.2,0-2.3,1-2.3,2.3v18.2v0.3v18.2
		c0,1.2,1,2.3,2.3,2.3h18.6c1.2,0,2.3-1,2.3-2.3V25.7v-0.3V7.1C37.1,5.9,36.1,4.8,34.8,4.8L34.8,4.8z"/>
</g>
</svg>
