<?xml version="1.0" encoding="utf-8"?>
<!-- Generator: Adobe Illustrator 22.1.0, SVG Export Plug-In . SVG Version: 6.00 Build 0)  -->
<svg version="1.1" id="Layer_1" xmlns="http://www.w3.org/2000/svg" xmlns:xlink="http://www.w3.org/1999/xlink" x="0px" y="0px"
	 viewBox="0 0 50 50" style="enable-background:new 0 0 50 50;" xml:space="preserve">
<style type="text/css">
	.st0{fill:#A5D73C;}
	.st1{fill:#FFFFFF;}
</style>
<g>
	<path class="st0" d="M10.7,43.7c-0.3,0-0.5-0.1-0.7-0.3c-0.3-0.3-0.4-0.6-0.3-1l6.8-25.3c0.1-0.3,0.4-0.6,0.7-0.7l25.3-6.8
		c0.1,0,0.2,0,0.3,0c0.3,0,0.5,0.1,0.7,0.3c0.3,0.3,0.4,0.6,0.3,1L37,36.2c-0.1,0.3-0.4,0.6-0.7,0.7L11,43.7
		C10.9,43.7,10.8,43.7,10.7,43.7z"/>
	<path class="st1" d="M42.9,10.6L42.9,10.6 M42.9,10.6l-6.8,25.3l-25.3,6.8l6.8-25.3L42.9,10.6 M42.9,8.6c0,0-0.1,0-0.1,0
		c-0.2,0-0.3,0-0.5,0.1L17,15.5c-0.7,0.2-1.2,0.7-1.4,1.4L8.8,42.2c-0.2,0.7,0,1.4,0.5,1.9c0.4,0.4,0.9,0.6,1.4,0.6
		c0.2,0,0.3,0,0.5-0.1l25.3-6.8c0.7-0.2,1.2-0.7,1.4-1.4l6.8-25.2c0.1-0.2,0.1-0.4,0.1-0.6C44.9,9.5,44,8.6,42.9,8.6
		C42.9,8.6,42.9,8.6,42.9,8.6L42.9,8.6z M42.9,12.6L42.9,12.6L42.9,12.6L42.9,12.6z"/>
</g>
</svg>
