<?xml version="1.0" encoding="utf-8"?>
<!-- Generator: Adobe Illustrator 22.1.0, SVG Export Plug-In . SVG Version: 6.00 Build 0)  -->
<svg version="1.1" id="Layer_1" xmlns="http://www.w3.org/2000/svg" xmlns:xlink="http://www.w3.org/1999/xlink" x="0px" y="0px"
	 viewBox="0 0 50 50" style="enable-background:new 0 0 50 50;" xml:space="preserve">
<style type="text/css">
	.st0{fill:#FADC3C;}
	.st1{fill:#E7C42A;}
	.st2{fill:#FFFFFF;}
</style>
<g>
	<g>
		<polygon class="st0" points="11.5,46.1 11.5,8.9 11.7,8.9 11.8,8.9 38.5,4 38.5,41.2 38.3,41.2 38.2,41.2 11.9,46.1 		"/>
		<g>
			<path class="st1" d="M36.9,5.8v34l-23.8,4.4v-34L36.9,5.8 M38.5,2.4l-27,5c-0.8,0-1.5,0.7-1.5,1.5v37.2c0,0.8,0.7,1.5,1.5,1.5
				v0.1l27-5c0.8,0,1.5-0.7,1.5-1.5V3.9C40,3,39.3,2.4,38.5,2.4L38.5,2.4z"/>
		</g>
	</g>
	<path class="st2" d="M38.5,3.9v37.3l-27,5V8.9L38.5,3.9 M38.5,0.9l-27,5c-1.7,0-3,1.3-3,3v37.3c0,1.7,1.3,3,3,3l27-5
		c1.7,0,3-1.3,3-3V3.9C41.5,2.2,40.1,0.9,38.5,0.9L38.5,0.9z"/>
</g>
</svg>
