<?xml version="1.0" encoding="utf-8"?>
<!-- Generator: Adobe Illustrator 22.1.0, SVG Export Plug-In . SVG Version: 6.00 Build 0)  -->
<svg version="1.1" id="Layer_1" xmlns="http://www.w3.org/2000/svg" xmlns:xlink="http://www.w3.org/1999/xlink" x="0px" y="0px"
	 viewBox="0 0 50 50" style="enable-background:new 0 0 50 50;" xml:space="preserve">
<style type="text/css">
	.st0{fill:#F24044;}
	.st1{fill:#FFFFFF;}
</style>
<g>
	<path class="st0" d="M10.9,42c-0.4,0-0.8-0.2-1.1-0.4c-0.4-0.4-0.5-0.9-0.4-1.4L16,15.6c0.1-0.5,0.5-0.9,1.1-1.1L41.6,8
		C41.7,8,41.9,8,42,8c0.4,0,0.8,0.2,1.1,0.4c0.4,0.4,0.5,0.9,0.4,1.4l-6.6,24.5c-0.1,0.5-0.5,0.9-1.1,1.1L11.3,42
		C11.2,42,11,42,10.9,42z"/>
	<path class="st1" d="M42,9.5L42,9.5 M42,9.5L35.4,34l-24.5,6.6L17.5,16L42,9.5 M42,6.5c-0.1,0-0.1,0-0.2,0c-0.2,0-0.5,0.1-0.7,0.1
		l-24.5,6.6c-1,0.3-1.8,1.1-2.1,2.1L8,39.8c-0.3,1,0,2.1,0.8,2.9c0.6,0.6,1.3,0.9,2.1,0.9c0.3,0,0.5,0,0.8-0.1l24.5-6.6
		c1-0.3,1.8-1.1,2.1-2.1l6.5-24.4C45,10.1,45,9.8,45,9.5C45,7.8,43.7,6.5,42,6.5C42,6.5,42,6.5,42,6.5L42,6.5z M42,12.5L42,12.5
		L42,12.5L42,12.5z"/>
</g>
</svg>
