<?xml version="1.0" encoding="utf-8"?>
<!-- Generator: Adobe Illustrator 22.1.0, SVG Export Plug-In . SVG Version: 6.00 Build 0)  -->
<svg version="1.1" id="Layer_1" xmlns="http://www.w3.org/2000/svg" xmlns:xlink="http://www.w3.org/1999/xlink" x="0px" y="0px"
	 viewBox="0 0 50 50" style="enable-background:new 0 0 50 50;" xml:space="preserve">
<style type="text/css">
	.st0{fill:#F24044;}
	.st1{fill:#FFFFFF;}
</style>
<g>
	<path class="st0" d="M7.6,46.7c-0.3,0-0.6-0.1-0.8-0.2c-0.4-0.3-0.7-0.7-0.7-1.2L4.7,19.1c0-0.6,0.3-1.2,0.9-1.5L41.9,3.4
		c0.2-0.1,0.4-0.1,0.5-0.1c0.3,0,0.6,0.1,0.8,0.2c0.4,0.3,0.7,0.7,0.7,1.2l1.4,26.1c0,0.6-0.3,1.2-0.9,1.5L8.1,46.6
		C8,46.6,7.8,46.7,7.6,46.7z"/>
	<path class="st1" d="M42.4,4.8l1.4,26.1L7.6,45.2L6.2,19.1L42.4,4.8 M42.4,1.8c-0.4,0-0.7,0.1-1.1,0.2L5.1,16.3
		c-1.2,0.5-2,1.7-1.9,3l1.4,26.1c0.1,1,0.6,1.8,1.4,2.4C6.4,48,7,48.2,7.6,48.2c0.4,0,0.7-0.1,1.1-0.2l36.2-14.2
		c1.2-0.5,2-1.7,1.9-3L45.4,4.7c-0.1-1-0.6-1.8-1.4-2.4C43.6,2,43,1.8,42.4,1.8L42.4,1.8z"/>
</g>
</svg>
