<?xml version="1.0" encoding="utf-8"?>
<!-- Generator: Adobe Illustrator 22.0.1, SVG Export Plug-In . SVG Version: 6.00 Build 0)  -->
<svg version="1.1" id="Layer_1" xmlns="http://www.w3.org/2000/svg" xmlns:xlink="http://www.w3.org/1999/xlink" x="0px" y="0px"
	 viewBox="0 0 50 50" style="enable-background:new 0 0 50 50;" xml:space="preserve">
<style type="text/css">
	.st0{fill:#A6CF41;}
	.st1{fill:#FFFFFF;}
</style>
<g>
	<path class="st0" d="M6.7,42.4c-0.5,0-1-0.3-1.3-0.8c-0.3-0.5-0.3-1,0-1.5L23.7,8.4C24,7.9,24.5,7.6,25,7.6s1,0.3,1.3,0.8
		l18.3,31.7c0.3,0.5,0.3,1,0,1.5c-0.3,0.5-0.8,0.8-1.3,0.8H6.7z"/>
	<path class="st1" d="M25,9.1l18.3,31.7H6.7L25,9.1 M25,6.1c-1.1,0-2.1,0.6-2.6,1.5L4.1,39.4c-0.5,0.9-0.5,2.1,0,3
		c0.5,0.9,1.5,1.5,2.6,1.5h36.6c1.1,0,2.1-0.6,2.6-1.5c0.5-0.9,0.5-2.1,0-3L27.6,7.6C27.1,6.7,26.1,6.1,25,6.1L25,6.1z"/>
</g>
</svg>
