<?xml version="1.0" encoding="utf-8"?>
<!-- Generator: Adobe Illustrator 22.0.1, SVG Export Plug-In . SVG Version: 6.00 Build 0)  -->
<svg version="1.1" id="Layer_1" xmlns="http://www.w3.org/2000/svg" xmlns:xlink="http://www.w3.org/1999/xlink" x="0px" y="0px"
	 viewBox="0 0 336.7 400" style="enable-background:new 0 0 336.7 400;" xml:space="preserve">
<style type="text/css">
	.st0{fill:#A5D73C;}
	.st1{fill:#FFFFFF;}
</style>
<g id="Layer_2_1_">
</g>
<g>
	<path class="st0" d="M120.6,273.2c-0.1,0-0.2,0-0.4-0.1c-0.2-0.1-0.4-0.3-0.6-0.5l-6.6-15c-0.2-0.5,0-1.1,0.5-1.3l29.7-13.1
		c0.1-0.1,0.3-0.1,0.4-0.1c0.4,0,0.8,0.2,0.9,0.6l6.6,15c0.1,0.2,0.1,0.5,0,0.8c-0.1,0.2-0.3,0.4-0.5,0.6l-29.6,13
		C120.9,273.1,120.8,273.2,120.6,273.2z"/>
	<path class="st1" d="M143.7,244.1l6.6,15l-14.7,6.5l-0.3,0.1l-14.7,6.5l-6.6-15l14.7-6.5l0.3-0.1L143.7,244.1 M143.7,242.1
		c-0.3,0-0.5,0.1-0.8,0.2l-14.7,6.5l-0.3,0.1l-14.7,6.5c-1,0.4-1.5,1.6-1,2.6l6.6,15c0.2,0.5,0.6,0.9,1.1,1.1
		c0.2,0.1,0.5,0.1,0.7,0.1c0.3,0,0.6-0.1,0.8-0.2l14.7-6.5l0.3-0.1l14.7-6.5c0.5-0.2,0.9-0.6,1.1-1.1s0.2-1,0-1.5l-6.6-15
		C145.2,242.5,144.5,242.1,143.7,242.1L143.7,242.1z"/>
</g>
</svg>
