<?xml version="1.0" encoding="utf-8"?>
<!-- Generator: Adobe Illustrator 22.0.1, SVG Export Plug-In . SVG Version: 6.00 Build 0)  -->
<svg version="1.1" id="Layer_1" xmlns="http://www.w3.org/2000/svg" xmlns:xlink="http://www.w3.org/1999/xlink" x="0px" y="0px"
	 viewBox="0 0 336.7 400" style="enable-background:new 0 0 336.7 400;" xml:space="preserve">
<style type="text/css">
	.st0{fill:#00CDC8;}
	.st1{fill:#FFFFFF;}
</style>
<g id="Layer_2_1_">
</g>
<g>
	<path class="st0" d="M136.5,343.4c-0.6,0-1-0.4-1-1V310c0-0.6,0.4-1,1-1h16.4c0.6,0,1,0.4,1,1v32.4c0,0.6-0.4,1-1,1H136.5z"/>
	<path class="st1" d="M152.9,309.9V326v0.3v16.1h-16.4v-16.1V326v-16.1H152.9 M152.9,307.9h-16.4c-1.1,0-2,0.9-2,2V326v0.3v16.1
		c0,1.1,0.9,2,2,2h16.4c1.1,0,2-0.9,2-2v-16.1V326v-16.1C154.9,308.8,154,307.9,152.9,307.9L152.9,307.9z"/>
</g>
</svg>
