<?xml version="1.0" encoding="utf-8"?>
<!-- Generator: Adobe Illustrator 22.0.1, SVG Export Plug-In . SVG Version: 6.00 Build 0)  -->
<svg version="1.1" id="Layer_1" xmlns="http://www.w3.org/2000/svg" xmlns:xlink="http://www.w3.org/1999/xlink" x="0px" y="0px"
	 viewBox="0 0 336.7 400" style="enable-background:new 0 0 336.7 400;" xml:space="preserve">
<style type="text/css">
	.st0{fill:#00CDC8;}
	.st1{fill:#FFFFFF;}
</style>
<g id="Layer_2_1_">
</g>
<g>
	<path class="st0" d="M160.4,262.4c-0.6,0-1-0.4-1-1v-21c0-0.6,0.4-1,1-1h21c0.6,0,1,0.4,1,1v21c0,0.6-0.4,1-1,1H160.4z"/>
	<path class="st1" d="M181.3,240.4v21h-21v-21H181.3 M181.3,238.4h-21c-1.1,0-2,0.9-2,2v21c0,1.1,0.9,2,2,2h21c1.1,0,2-0.9,2-2v-21
		C183.3,239.3,182.5,238.4,181.3,238.4L181.3,238.4z"/>
</g>
</svg>
