<?xml version="1.0" encoding="utf-8"?>
<!-- Generator: Adobe Illustrator 22.0.1, SVG Export Plug-In . SVG Version: 6.00 Build 0)  -->
<svg version="1.1" id="Layer_1" xmlns="http://www.w3.org/2000/svg" xmlns:xlink="http://www.w3.org/1999/xlink" x="0px" y="0px"
	 viewBox="0 0 336.7 400" style="enable-background:new 0 0 336.7 400;" xml:space="preserve">
<style type="text/css">
	.st0{fill:#EBD2AF;}
	.st1{fill:#CEA57C;}
	.st2{fill:#E1C3A0;}
	.st3{fill:#F0DCBE;}
	.st4{fill:#C49A69;}
	.st5{fill:#FADC3C;}
	.st6{fill:#FFFFFF;}
	.st7{fill:#A5D73C;}
	.st8{fill:#00CDC8;}
	.st9{fill:#F24044;}
</style>
<g id="Layer_1_1_">
	<path class="st0" d="M636.4,192.3H434.2c-4.3,0-7.8-3.5-7.8-7.8V55h217.8v129.6C644.2,188.9,640.7,192.3,636.4,192.3z"/>
	<path class="st1" d="M626.4,182.3H444.2c-4.3,0-7.8-3.5-7.8-7.8V55h197.8v119.6C634.2,178.9,630.7,182.3,626.4,182.3z"/>
	<rect x="426.4" y="55" class="st2" width="217.8" height="11.7"/>
	<path class="st3" d="M644.2,58.9H426.4c-2.1,0-3.9-1.7-3.9-3.9V37.8c0-4.3,3.5-7.8,7.8-7.8h210c4.3,0,7.8,3.5,7.8,7.8V55
		C648.1,57.1,646.3,58.9,644.2,58.9z"/>
	<path class="st4" d="M436.4,174.6l24.2-15.9h155.3l18.7,16.7c0,0-0.8,7-8.2,7s-182.2,0-182.2,0S436.4,182.4,436.4,174.6z"/>
	<g>
		<g>
			<g>
				<path class="st5" d="M600,115.7c-11.2,0-20.3-9.1-20.3-20.3c0-11.2,9.1-20.3,20.3-20.3s20.3,9.1,20.3,20.3
					C620.3,106.6,611.2,115.7,600,115.7z"/>
				<path class="st6" d="M600,76.1c10.7,0,19.3,8.6,19.3,19.3s-8.6,19.3-19.3,19.3c-10.7,0-19.3-8.6-19.3-19.3S589.4,76.1,600,76.1
					 M600,74.1c-11.7,0-21.3,9.6-21.3,21.3c0,11.7,9.6,21.3,21.3,21.3s21.3-9.6,21.3-21.3C621.3,83.7,611.8,74.1,600,74.1L600,74.1z
					"/>
			</g>
			<path class="st6" d="M600,77.2c10.1,0,18.3,8.2,18.3,18.3s-8.2,18.3-18.3,18.3c-10.1,0-18.3-8.2-18.3-18.3S590,77.2,600,77.2
				 M600,75.2c-11.2,0-20.3,9.1-20.3,20.3s9.1,20.3,20.3,20.3s20.3-9.1,20.3-20.3S611.2,75.2,600,75.2L600,75.2z"/>
		</g>
		<g>
			<g>
				<path class="st7" d="M530.5,179.2c-11.2,0-20.3-9.1-20.3-20.3c0-11.2,9.1-20.3,20.3-20.3s20.3,9.1,20.3,20.3
					C550.8,170.1,541.7,179.2,530.5,179.2z"/>
				<path class="st6" d="M530.5,139.6c10.6,0,19.3,8.6,19.3,19.3s-8.6,19.3-19.3,19.3c-10.6,0-19.3-8.6-19.3-19.3
					S519.8,139.6,530.5,139.6 M530.5,137.6c-11.7,0-21.3,9.6-21.3,21.3c0,11.7,9.6,21.3,21.3,21.3s21.3-9.6,21.3-21.3
					C551.8,147.2,542.3,137.6,530.5,137.6L530.5,137.6z"/>
			</g>
			<path class="st6" d="M530.5,140.7c10.1,0,18.3,8.2,18.3,18.3s-8.2,18.3-18.3,18.3c-10.1,0-18.3-8.2-18.3-18.3
				S520.5,140.7,530.5,140.7 M530.5,138.7c-11.2,0-20.3,9.1-20.3,20.3s9.1,20.3,20.3,20.3s20.3-9.1,20.3-20.3
				S541.7,138.7,530.5,138.7L530.5,138.7z"/>
		</g>
		<g>
			<g>
				<path class="st8" d="M454.6,169.9c-1.2,0-2-0.8-2-2v-26.7c0-1.2,0.8-2,2-2h26.7c1.2,0,2,0.8,2,2v26.7c0,1.2-0.8,2-2,2H454.6z"/>
				<path class="st6" d="M481.3,140.2c0.6,0,1,0.4,1,1v26.7c0,0.6-0.4,1-1,1h-26.7c-0.6,0-1-0.4-1-1v-26.7c0-0.6,0.4-1,1-1H481.3
					 M481.3,138.2h-26.7c-1.7,0-3,1.3-3,3v26.7c0,1.7,1.3,3,3,3h26.7c1.7,0,3-1.3,3-3v-26.7C484.3,139.5,483,138.2,481.3,138.2
					L481.3,138.2z"/>
			</g>
			<path class="st6" d="M481.3,141.2v26.7h-26.7v-26.7H481.3 M481.3,139.2h-26.7c-1.1,0-2,0.9-2,2v26.7c0,1.1,0.9,2,2,2h26.7
				c1.1,0,2-0.9,2-2v-26.7C483.3,140.1,482.4,139.2,481.3,139.2L481.3,139.2z"/>
		</g>
		<g>
			<g>
				<path class="st5" d="M491.2,138.9c-1.2,0-2-0.8-2-2v-26.7c0-1.2,0.8-2,2-2h26.7c1.2,0,2,0.8,2,2v26.7c0,1.2-0.8,2-2,2H491.2z"/>
				<path class="st6" d="M517.9,109.2c0.6,0,1,0.4,1,1v26.7c0,0.6-0.4,1-1,1h-26.7c-0.6,0-1-0.4-1-1v-26.7c0-0.6,0.4-1,1-1H517.9
					 M517.9,107.2h-26.7c-1.7,0-3,1.3-3,3v26.7c0,1.7,1.3,3,3,3h26.7c1.7,0,3-1.3,3-3v-26.7C520.9,108.5,519.6,107.2,517.9,107.2
					L517.9,107.2z"/>
			</g>
			<path class="st6" d="M517.9,110.2v26.7h-26.7v-26.7H517.9 M517.9,108.2h-26.7c-1.1,0-2,0.9-2,2v26.7c0,1.1,0.9,2,2,2h26.7
				c1.1,0,2-0.9,2-2v-26.7C519.9,109.1,519,108.2,517.9,108.2L517.9,108.2z"/>
		</g>
		<g>
			<g>
				<path class="st9" d="M461.9,113.8c-0.3,0-0.5,0-0.9-0.2c0,0-0.1,0-0.1-0.1c-0.6-0.4-0.9-1-0.9-1.7V79c0-0.7,0.3-1.3,0.9-1.7
					c0,0,0.1,0,0.1-0.1c0.4-0.2,0.7-0.2,0.9-0.2s0.5,0,0.9,0.2l28.5,16.4c0.7,0.4,1,1.1,1,1.8c0,0.7-0.3,1.3-0.9,1.7l-28.5,16.4
					C462.5,113.8,462.1,113.8,461.9,113.8z"/>
				<path class="st6" d="M461.9,78c0.2,0,0.3,0,0.5,0.1l28.4,16.4c0.3,0.2,0.5,0.5,0.5,0.9s-0.2,0.7-0.5,0.9l-28.4,16.4
					c-0.2,0.1-0.4,0.1-0.5,0.1c-0.2,0-0.3,0-0.5-0.1c-0.3-0.2-0.5-0.5-0.5-0.9V79c0-0.4,0.2-0.7,0.5-0.9C461.6,78,461.7,78,461.9,78
					 M461.9,76c-0.4,0-0.8,0-1.4,0.3c-0.1,0-0.1,0.1-0.2,0.1c-0.9,0.6-1.4,1.5-1.4,2.6v32.8c0,1,0.5,2,1.4,2.6
					c0.1,0,0.1,0.1,0.2,0.1c0.6,0.3,1,0.3,1.4,0.3c0.2,0,0.8,0,1.4-0.3c0,0,0.1,0,0.1-0.1L491.8,98c0,0,0.1,0,0.1-0.1
					c0.9-0.6,1.4-1.5,1.4-2.6c0-1-0.5-2-1.4-2.6c0,0-0.1,0-0.1-0.1l-28.4-16.4c0,0-0.1,0-0.1-0.1C462.8,76,462.3,76,461.9,76
					L461.9,76z"/>
			</g>
			<path class="st6" d="M461.9,79l28.4,16.4l-28.4,16.4V79 M461.9,77c-0.3,0-0.7,0.1-1,0.3c-0.6,0.4-1,1-1,1.7v32.8
				c0,0.7,0.4,1.4,1,1.7c0.3,0.2,0.7,0.3,1,0.3c0.3,0,0.7-0.1,1-0.3l28.4-16.3c0.6-0.4,1-1,1-1.7s-0.4-1.4-1-1.7l-28.4-16.5
				C462.5,77.1,462.2,77,461.9,77L461.9,77z"/>
		</g>
		<g>
			<g>
				<path class="st7" d="M542.1,110.4c-0.3,0-0.5,0-0.9-0.2l-28.5-16.4c-0.7-0.4-1-1.1-1-1.8s0.3-1.3,0.9-1.7l28.5-16.4
					c0.5-0.2,0.7-0.2,1-0.2c0.3,0,0.5,0,0.9,0.2c0,0,0.1,0,0.1,0.1c0.6,0.4,0.9,1,0.9,1.7v32.8c0,0.7-0.3,1.3-0.9,1.7
					C542.9,110.4,542.4,110.4,542.1,110.4z"/>
				<path class="st6" d="M542.1,74.6c0.2,0,0.3,0,0.5,0.1c0.3,0.2,0.5,0.5,0.5,0.9v32.8c0,0.4-0.2,0.7-0.5,0.9
					c-0.1,0.1-0.3,0.1-0.5,0.1c-0.2,0-0.3,0-0.5-0.1l-28.4-16.4c-0.3-0.2-0.5-0.5-0.5-0.9s0.2-0.7,0.5-0.9l28.4-16.4
					C541.8,74.6,541.9,74.6,542.1,74.6 M542.1,72.6c-0.4,0-0.8,0-1.4,0.3c0,0-0.1,0-0.1,0.1l-28.4,16.4c0,0-0.1,0-0.1,0.1
					c-0.9,0.6-1.4,1.5-1.4,2.6s0.5,2,1.4,2.6c0,0,0.1,0,0.1,0.1l28.4,16.4c0,0,0.1,0,0.1,0.1c0.6,0.3,1,0.3,1.4,0.3
					c0.3,0,1.1,0,1.7-0.5c0.8-0.6,1.3-1.5,1.3-2.5V75.6c0-1-0.5-2-1.4-2.6c-0.1,0-0.1-0.1-0.2-0.1C543,72.6,542.5,72.6,542.1,72.6
					L542.1,72.6z"/>
			</g>
			<path class="st6" d="M542.1,75.6v32.8L513.7,92L542.1,75.6 M542.1,73.6c-0.3,0-0.7,0.1-1,0.3l-28.4,16.4c-0.6,0.4-1,1-1,1.7
				s0.4,1.4,1,1.7l28.4,16.4c0.3,0.2,0.7,0.3,1,0.3c0.3,0,0.7-0.1,1-0.3c0.6-0.4,1-1,1-1.7V75.6c0-0.7-0.4-1.4-1-1.7
				C542.8,73.7,542.5,73.6,542.1,73.6L542.1,73.6z"/>
		</g>
		<g>
			<g>
				<path class="st9" d="M587.6,171.9c-1.2,0-2-0.8-2-2V128c0-1.2,0.8-2,2-2h26.7c1.2,0,2,0.8,2,2v41.9c0,1.2-0.8,2-2,2H587.6z"/>
				<path class="st6" d="M614.3,127c0.6,0,1,0.4,1,1v41.9c0,0.6-0.4,1-1,1h-26.7c-0.6,0-1-0.4-1-1V128c0-0.6,0.4-1,1-1H614.3
					 M614.3,125h-26.7c-1.7,0-3,1.3-3,3v41.9c0,1.7,1.3,3,3,3h26.7c1.7,0,3-1.3,3-3V128C617.3,126.3,616,125,614.3,125L614.3,125z"
					/>
			</g>
			<path class="st6" d="M614.4,128v41.9h-26.7V128H614.4 M614.4,126h-26.7c-1.1,0-2,0.9-2,2v41.9c0,1.1,0.9,2,2,2h26.7
				c1.1,0,2-0.9,2-2V128C616.4,126.9,615.5,126,614.4,126L614.4,126z"/>
		</g>
		<g>
			<g>
				<path class="st8" d="M555,151.3c-1.2,0-2-0.8-2-2V113c0-1.2,0.8-2,2-2h23.1c1.2,0,2,0.8,2,2v36.3c0,1.2-0.8,2-2,2H555z"/>
				<path class="st6" d="M578.1,112c0.6,0,1,0.4,1,1v36.3c0,0.6-0.4,1-1,1H555c-0.6,0-1-0.4-1-1V113c0-0.6,0.4-1,1-1H578.1
					 M578.1,110H555c-1.7,0-3,1.3-3,3v36.3c0,1.7,1.3,3,3,3h23.1c1.7,0,3-1.3,3-3V113C581.1,111.3,579.8,110,578.1,110L578.1,110z"
					/>
			</g>
			<path class="st6" d="M578.1,113v36.3H555V113H578.1 M578.1,111H555c-1.1,0-2,0.9-2,2v36.3c0,1.1,0.9,2,2,2h23.1c1.1,0,2-0.9,2-2
				V113C580.1,111.9,579.2,111,578.1,111L578.1,111z"/>
		</g>
	</g>
	<path class="st0" d="M636.4,375H434.2c-4.3,0-7.8-3.5-7.8-7.8V237.7h217.8v129.6C644.2,371.5,640.7,375,636.4,375z"/>
	<path class="st1" d="M626.4,365H444.2c-4.3,0-7.8-3.5-7.8-7.8V237.7h197.8v119.6C634.2,361.5,630.7,365,626.4,365z"/>
	<rect x="426.4" y="237.7" class="st2" width="217.8" height="11.7"/>
	<path class="st3" d="M644.2,241.6H426.4c-2.1,0-3.9-1.7-3.9-3.9v-17.2c0-4.3,3.5-7.8,7.8-7.8h210c4.3,0,7.8,3.5,7.8,7.8v17.2
		C648.1,239.8,646.3,241.6,644.2,241.6z"/>
	<path class="st4" d="M436.4,357.2l24.2-15.9h155.3l18.7,16.7c0,0-0.8,7-8.2,7s-182.2,0-182.2,0S436.4,365.1,436.4,357.2z"/>
	<g>
		<g>
			<g>
				<path class="st5" d="M560.3,359.3c-11.2,0-20.3-9.1-20.3-20.3s9.1-20.3,20.3-20.3c11.2,0,20.3,9.1,20.3,20.3
					S571.5,359.3,560.3,359.3z"/>
				<path class="st6" d="M560.3,319.7c10.7,0,19.3,8.6,19.3,19.3s-8.6,19.3-19.3,19.3c-10.7,0-19.3-8.6-19.3-19.3
					S549.7,319.7,560.3,319.7 M560.3,317.7c-11.7,0-21.3,9.6-21.3,21.3s9.6,21.3,21.3,21.3s21.3-9.6,21.3-21.3
					S572.1,317.7,560.3,317.7L560.3,317.7z"/>
			</g>
			<path class="st6" d="M560.3,320.7c10.1,0,18.3,8.2,18.3,18.3s-8.2,18.3-18.3,18.3c-10.1,0-18.3-8.2-18.3-18.3
				S550.2,320.7,560.3,320.7 M560.3,318.7c-11.2,0-20.3,9.1-20.3,20.3s9.1,20.3,20.3,20.3c11.2,0,20.3-9.1,20.3-20.3
				S571.5,318.7,560.3,318.7L560.3,318.7z"/>
		</g>
		<g>
			<g>
				<path class="st8" d="M502.3,301c-1.2,0-2-0.8-2-2v-26.7c0-1.2,0.8-2,2-2H529c1.2,0,2,0.8,2,2V299c0,1.2-0.8,2-2,2H502.3z"/>
				<path class="st6" d="M529,271.3c0.6,0,1,0.4,1,1V299c0,0.6-0.4,1-1,1h-26.7c-0.6,0-1-0.4-1-1v-26.7c0-0.6,0.4-1,1-1H529
					 M529,269.3h-26.7c-1.7,0-3,1.3-3,3V299c0,1.7,1.3,3,3,3H529c1.7,0,3-1.3,3-3v-26.7C532,270.6,530.7,269.3,529,269.3L529,269.3z
					"/>
			</g>
			<path class="st6" d="M529,272.3V299h-26.7v-26.7H529 M529,270.3h-26.7c-1.1,0-2,0.9-2,2V299c0,1.1,0.9,2,2,2H529c1.1,0,2-0.9,2-2
				v-26.7C531,271.2,530.1,270.3,529,270.3L529,270.3z"/>
		</g>
		<g>
			<g>
				<path class="st8" d="M588.2,355.9c-1.2,0-2-0.8-2-2v-23.1c0-1.2,0.8-2,2-2h36.3c1.2,0,2,0.8,2,2v23.1c0,1.2-0.8,2-2,2H588.2z"/>
				<path class="st6" d="M624.5,329.8c0.6,0,1,0.4,1,1v23.1c0,0.6-0.4,1-1,1h-36.3c-0.6,0-1-0.4-1-1v-23.1c0-0.6,0.4-1,1-1H624.5
					 M624.5,327.8h-36.3c-1.7,0-3,1.3-3,3v23.1c0,1.7,1.3,3,3,3h36.3c1.7,0,3-1.3,3-3v-23.1C627.5,329.1,626.2,327.8,624.5,327.8
					L624.5,327.8z"/>
			</g>
			<path class="st6" d="M624.4,330.8v23.1h-36.3v-23.1H624.4 M624.4,328.8h-36.3c-1.1,0-2,0.9-2,2v23.1c0,1.1,0.9,2,2,2h36.3
				c1.1,0,2-0.9,2-2v-23.1C626.4,329.7,625.6,328.8,624.4,328.8L624.4,328.8z"/>
		</g>
		<g>
			<g>
				<path class="st9" d="M449.4,357c-1.2,0-2-0.8-2-2v-26.7c0-1.2,0.8-2,2-2h41.9c1.2,0,2,0.8,2,2V355c0,1.2-0.8,2-2,2H449.4z"/>
				<path class="st6" d="M491.3,327.3c0.6,0,1,0.4,1,1V355c0,0.6-0.4,1-1,1h-41.9c-0.6,0-1-0.4-1-1v-26.7c0-0.6,0.4-1,1-1H491.3
					 M491.3,325.3h-41.9c-1.7,0-3,1.3-3,3V355c0,1.7,1.3,3,3,3h41.9c1.7,0,3-1.3,3-3v-26.7C494.3,326.6,493,325.3,491.3,325.3
					L491.3,325.3z"/>
			</g>
			<path class="st6" d="M491.2,328.3V355h-41.8v-26.7H491.2 M491.2,326.3h-41.8c-1.1,0-2,0.9-2,2V355c0,1.1,0.9,2,2,2h41.9
				c1.1,0,2-0.9,2-2v-26.7C493.2,327.2,492.4,326.3,491.2,326.3L491.2,326.3z"/>
		</g>
		<g>
			<g>
				<path class="st7" d="M606.3,313.3c-0.7,0-1.3-0.3-1.7-0.9l-16.4-28.5c-0.4-0.6-0.4-1.4,0-2.1c0.4-0.6,1-0.9,1.7-0.9h32.8
					c0.7,0,1.3,0.3,1.7,0.9c0.4,0.6,0.4,1.5,0,2.1l-16.4,28.3C607.7,312.9,607,313.3,606.3,313.3z"/>
				<path class="st6" d="M622.7,281.9c0.4,0,0.7,0.2,0.9,0.5s0.2,0.7,0,1l-16.4,28.4c-0.2,0.3-0.6,0.5-0.9,0.5
					c-0.4,0-0.7-0.2-0.9-0.5L589,283.4c-0.2-0.3-0.2-0.7,0-1c0.2-0.3,0.5-0.5,0.9-0.5H622.7 M622.7,279.9h-32.8c-1,0-2,0.5-2.6,1.4
					c-0.6,1-0.7,2.2,0,3.1l16.4,28.4c0,0,0,0.1,0.1,0.1c0.6,0.9,1.5,1.4,2.6,1.4c1,0,2-0.5,2.6-1.4c0,0,0-0.1,0.1-0.1l16.4-28.4
					c0.6-1,0.6-2.2,0-3.2C624.7,280.4,623.8,279.9,622.7,279.9L622.7,279.9z"/>
			</g>
			<path class="st6" d="M622.7,282.8L622.7,282.8 M622.7,282.8l-16.4,28.5l-16.4-28.4h32.8 M622.7,280.8L622.7,280.8h-32.8
				c-0.7,0-1.4,0.4-1.7,1c-0.4,0.6-0.4,1.4,0,2l16.4,28.4c0.4,0.6,1,1,1.7,1s1.4-0.4,1.7-1l16.4-28.4c0.2-0.3,0.3-0.7,0.3-1.1
				C624.7,281.7,623.8,280.8,622.7,280.8L622.7,280.8z M622.7,284.8L622.7,284.8L622.7,284.8L622.7,284.8z"/>
		</g>
	</g>
</g>
<g id="Layer_2_1_">
</g>
<g>
	<path class="st8" d="M160.4,262.4c-0.6,0-1-0.4-1-1v-21c0-0.6,0.4-1,1-1h21c0.6,0,1,0.4,1,1v21c0,0.6-0.4,1-1,1H160.4z"/>
	<path class="st6" d="M181.3,240.4v21h-21v-21H181.3 M181.3,238.4h-21c-1.1,0-2,0.9-2,2v21c0,1.1,0.9,2,2,2h21c1.1,0,2-0.9,2-2v-21
		C183.3,239.3,182.5,238.4,181.3,238.4L181.3,238.4z"/>
</g>
</svg>
