<?xml version="1.0" encoding="utf-8"?>
<!-- Generator: Adobe Illustrator 22.0.1, SVG Export Plug-In . SVG Version: 6.00 Build 0)  -->
<svg version="1.1" id="Layer_1" xmlns="http://www.w3.org/2000/svg" xmlns:xlink="http://www.w3.org/1999/xlink" x="0px" y="0px"
	 viewBox="0 0 336.7 400" style="enable-background:new 0 0 336.7 400;" xml:space="preserve">
<style type="text/css">
	.st0{fill:#EDB26C;}
	.st1{opacity:0.2;}
	.st2{fill:#E09637;}
	.st3{fill:none;}
	.st4{opacity:0.4;}
	.st5{fill:none;stroke:#FFFFFF;stroke-linecap:round;stroke-linejoin:round;stroke-miterlimit:10;}
	.st6{fill:#37A7DE;}
	.st7{clip-path:url(#SVGID_2_);}
	.st8{fill:none;stroke:#008EA6;stroke-width:1.3299;stroke-linecap:square;stroke-linejoin:bevel;stroke-miterlimit:10;}
	.st9{fill:#4A5058;}
	.st10{opacity:0.1;enable-background:new    ;}
	.st11{fill:#FFFFFF;}
	.st12{opacity:8.000000e-02;enable-background:new    ;}
	.st13{fill:#EDBCB9;}
</style>
<g>
	<rect x="25.9" y="66.8" class="st0" width="286" height="246"/>
</g>
<g class="st1">
	<g>
		<path class="st2" d="M23.4,74c0.2,0.3,0.7,0.5,1.3,0.5c0,0,0,0,0.1,0c0,0,0.1,0,0.1,0c0.1,0,0.2,0,0.3,0
			c40.8,0.8,98.8,1.3,139.6,1.1c25.6-0.1,50.9-1.2,76.5-1.9c21.8-0.5,51.7-0.9,73.6-1.2c1.1,0,1.7-0.3,1.8-0.7
			c0-0.2,0.1-0.3,0.1-0.5c0.1-0.4-0.9-0.8-1.8-0.8c-21.2,0.2-50.5,0.6-71.7,1.1c-25.7,0.6-51.2,1.8-77,1.9
			c-41.5,0.2-100-0.5-141.5-1.3c-1.2,0-2,0.5-1.8,0.9C23.2,73.6,23.3,73.8,23.4,74z"/>
		<path class="st2" d="M23.3,78.3c0.1,0.2,0.3,0.3,0.6,0.4c0.3,0.1,0.6,0.2,1.1,0.2c38.9,0.1,94.8,0.1,133.6,0
			c22.9-0.1,45.8-0.7,68.7-0.6c26.6,0.1,62.6,3.2,87.2,7.6c1.1,0.2,2.3-0.2,2.3-0.7c0-0.2,0-0.4,0-0.6c0-0.4-0.6-0.6-1.3-0.7
			c-23.5-4.2-57.6-6.8-82.9-7.4c-11.7-0.3-23.4,0.2-35.1,0.3c-12.2,0.1-24.5,0.2-36.7,0.2c-39.7,0.1-96.4,0-136.2-0.1
			c-1.2,0-2.1,0.4-1.8,0.9C23.1,77.9,23.2,78.1,23.3,78.3z"/>
		<path class="st2" d="M25,85.3c28.5-0.6,74.2-0.8,102.7-1.8c20.4-0.7,40.6-0.4,61.1,0.2c39.5,1.1,86.7,3.5,125.8,6.2
			c1.4,0.1,2.5-0.3,2.2-0.9c-0.1-0.2-0.2-0.5-0.3-0.7c-0.1-0.2-0.7-0.5-1.3-0.5c-38.5-2.6-85.2-4.9-124.1-6
			c-20.7-0.6-41.5-1.2-62.1-0.3C100.3,82.6,54,82.7,25,83.3c-1,0-1.8,0.3-1.8,0.7c0,0.2,0,0.3,0,0.5c0,0.2,0.1,0.3,0.3,0.4
			C23.7,85.1,24.2,85.3,25,85.3z"/>
		<path class="st2" d="M299.7,99.4c-8.4-0.5-16.6-1.4-24.7-2.3c-18.7-2-37-4.6-55.5-7c-13.3-1.7-27.1-3.8-41-4.5
			c-8.6-0.4-17.3-0.3-25.9-0.2c-37.2,0.4-91.3,2-128.2,3.7c-1.1,0-1.4,0.4-1.3,0.7c0,0.1,0,0.1,0,0.2c0.1,0.2,0.1,0.3,0.2,0.5
			c0.1,0.4,1.4,0.6,2.2,0.5c34.8-1.6,86.8-3,121.8-3.5c8.7-0.1,17.5-0.2,26.2,0c12.4,0.3,24.5,2.1,36.4,3.5
			c18.3,2.3,36.4,4.8,54.7,7c14,1.7,36.4,3.4,50.9,3.8c1.3,0,2.4-0.6,1.6-1.1C314.5,99.3,303.8,99.6,299.7,99.4z"/>
		<path class="st2" d="M41.7,104.5c11.6-1,23.1-2.2,34.6-3.6c3.7-0.4,22.5-1.8,22.5-4.2c0-3.8-67.7-0.7-74.7-0.4
			c-0.7,0-1.4,0.4-1.3,0.7c0,0.2,0.1,0.3,0.1,0.5c0.1,0.4,0.7,0.8,1.8,0.8c10.2-0.4,37.4-0.8,47.7-1.1c4.2-0.1,8.4-0.2,12.6-0.2
			c1.8,0,3.6,0,5.4,0c0.1,0,0.3,0,0.4,0c-5.5,1.2-13,1.7-18.6,2.3c-10.4,1.2-20.9,2.2-31.4,3.1c-0.6,0.1-1,0.2-1.2,0.4c0,0,0,0,0,0
			c0,0,0,0-0.1,0.1c-0.1,0.1-0.1,0.1-0.1,0.2c0,0.2,0,0.4,0,0.7C39.4,104.2,40.6,104.6,41.7,104.5z"/>
		<path class="st2" d="M164.7,149.5c41.5,0.1,83,0.9,124.5,2c1.2,0,2-0.4,1.8-0.9c-0.1-0.2-0.2-0.4-0.3-0.6
			c-0.2-0.3-0.7-0.5-1.3-0.5c0,0,0,0-0.1,0c0,0-0.1,0-0.1,0c-0.1,0-0.2,0-0.3,0c-40.8-1-81.8-1.7-122.6-1.8
			c-25.6-0.1-51,0.9-76.5,1.4c-21.9,0.4-43.7,0.6-65.6,0.8c-1.1,0-1.7,0.3-1.8,0.7c0,0.2-0.1,0.3-0.1,0.5c-0.1,0.4,0.9,0.8,1.8,0.8
			c21.2-0.1,42.5-0.4,63.7-0.8C113.4,150.5,138.9,149.5,164.7,149.5z"/>
		<path class="st2" d="M23.6,138.7c23.4,4.3,49.5,7,74.8,7.8c11.6,0.4,23.4-0.1,35.1-0.1c12.2-0.1,24.5,0,36.7,0
			c39.7,0.1,79.5,0.5,119.2,0.8c1.2,0,2.1-0.4,1.8-0.9c-0.1-0.2-0.2-0.4-0.4-0.6c-0.1-0.2-0.3-0.3-0.6-0.4c-0.3-0.1-0.6-0.2-1.1-0.2
			c-38.9-0.4-77.8-0.6-116.6-0.7c-22.9,0-45.9,0.5-68.7,0.2c-26.6-0.3-54.5-3.5-79-8c-1.1-0.2-2.3,0.2-2.3,0.7c0,0.2,0,0.4,0,0.6
			C22.3,138.3,22.8,138.5,23.6,138.7z"/>
		<path class="st2" d="M312.3,138.6c-28.6,0.4-80.2,0.4-108.7,1.3c-20.4,0.6-40.6,0.2-61.1-0.5c-39.5-1.3-78.6-4-117.7-6.9
			c-1.4-0.1-2.5,0.3-2.3,0.9c0.1,0.2,0.2,0.5,0.3,0.7c0.1,0.2,0.7,0.5,1.3,0.5c38.5,2.8,77.1,5.3,116,6.7
			c20.7,0.7,41.5,1.4,62.1,0.6c28.9-1.1,81.1-1,110.1-1.4c1,0,1.8-0.3,1.8-0.7c0-0.2,0-0.3,0-0.5c0-0.2-0.1-0.3-0.3-0.4
			C313.5,138.8,313,138.6,312.3,138.6z"/>
		<path class="st2" d="M31.9,123c8.3,0.5,16.6,1.5,24.7,2.4c18.6,2.1,36.9,4.8,55.3,7.3c13.3,1.8,27,4,41,4.7
			c8.6,0.5,17.3,0.4,25.9,0.4c37.2-0.2,97.4-1.5,134.3-3c1.1,0,1.4-0.4,1.3-0.7c0-0.1,0-0.1,0-0.2c0-0.2-0.1-0.3-0.1-0.5
			c-0.1-0.4-1.3-0.6-2.2-0.6c-34.8,1.4-92.8,2.6-127.9,2.9c-8.7,0.1-17.5,0.1-26.2-0.1c-12.4-0.3-24.5-2.2-36.3-3.7
			c-18.2-2.4-36.3-5-54.6-7.3c-13.9-1.7-28.3-3.6-42.8-4c-1.3,0-2.4,0.6-1.6,1.1C25,123.1,27.8,122.8,31.9,123z"/>
		<path class="st2" d="M290.9,116.3c-8.6-0.6-18.7,1-27,1.6c-21.2,1.7-42.4,3.4-63.5,5.3c-13.5,1.2-26.9,2.4-40.2,3.9
			c-4.7,0.5-9.6,1.1-13.9,2c-1.1,0.2-2.9,0.7-2.7,1.4c0.4,2.2,12,2.1,15.7,2.2c23.8,0.7,47.8,0.2,71.5-0.1c19.6-0.2,62.2-0.6,81.8-1
			c1,0,1.8-0.3,1.8-0.7c0-0.2,0-0.3,0-0.5c0-0.4-0.8-0.8-1.8-0.8c-39.4,0.8-102.1,1.6-141.7,1.3c-4.3,0-8.7-0.1-13-0.2
			c-1.7-0.1-3.3-0.1-5-0.2c-0.7,0-1.2-0.1-1.7-0.1c2-0.3,4.7-0.6,5.9-0.8c20.3-2.7,41.6-4.4,62.6-6.2c23.6-2,47.2-3.8,71-5.6
			c1-0.1,1.4-0.4,1.3-0.7C292.3,116.7,291.9,116.4,290.9,116.3z"/>
		<path class="st2" d="M290.9,121.5c0.6-0.1,1-0.2,1.2-0.4c0,0,0,0,0,0c0,0,0,0,0.1-0.1c0-0.1,0.1-0.1,0.1-0.2c0-0.2,0-0.4,0-0.7
			c0-0.5-1.1-0.9-2.3-0.8c-11.6,1-23.2,2.1-34.7,3.4c-3.7,0.4-22.6,1.7-22.6,4.1c-0.1,3.8,73.7,1,80.7,0.8c0.7,0,1.4-0.4,1.4-0.7
			c0-0.2-0.1-0.3-0.1-0.5c-0.1-0.4-0.7-0.8-1.8-0.8c-10.2,0.4-43.4,0.7-53.7,0.9c-4.2,0.1-8.4,0.1-12.6,0.1c-1.8,0-3.6,0-5.4-0.1
			c-0.1,0-0.3,0-0.4,0c5.5-1.1,13.1-1.6,18.7-2.2C269.8,123.4,280.3,122.4,290.9,121.5z"/>
		<path class="st2" d="M35.7,119.1c10,0.7,20,1.6,29.9,2.5c18.8,1.7,37.8,5.2,57.2,4.4c11.7-0.5,23.1-1.7,34.5-2.8
			c13.8-1.3,27.7-2.4,41.7-3.6c11.9-1,23.8-1.9,35.7-2.8c4.1-0.3,9.2-0.4,13.2-1c0.4,0,0.7-0.1,0.9-0.2c1.1-0.3,0.6-1.2-0.8-1.3
			c12.2,0.2,24.4,0.4,36.6,0.7c7,0.2,22.4,0.1,29.3,0.6c1,0.1,2.5-0.2,2.3-0.7c-0.1-0.2-0.1-0.5-0.2-0.7c-0.1-0.3-0.5-0.7-1.3-0.7
			c-6.7-0.5-21.7-0.5-28.5-0.6c-13.3-0.2-26.6-0.4-40-0.6c-19.8-0.2-39.7-0.4-59.5-0.6c-0.9,0-1.4,0.2-1.6,0.4
			c-8.3,0.4-16.7,1.4-24.5,2c-9.5,0.6-19,1.3-28.6,1.7c-6.1,0.3-12.4,0.7-18.7,0.3c-29.2-1.8-58.6-3.2-87.9-4.6
			c-1.2-0.1-2,0.5-1.8,0.9c0.1,0.2,0.2,0.4,0.3,0.6c0.2,0.3,1,0.5,1.7,0.6c29,1.4,58,2.7,86.9,4.4c14,0.8,29.6-0.8,43.3-1.7
			c13.5-0.9,26.9-1.8,40.4-2.9c15.2,0.2,30.4,0.4,45.6,0.7c-9.6,0.1-19.2,1.4-28.4,2.1c-26.5,2.2-52.8,4.7-79.2,6.9
			c-10.5,0.9-21.1,1.3-31.7,0.2c-9.4-0.9-18.7-2.2-28.2-3.2c-16.1-1.6-33.1-3.5-49.7-3.9c-1.7,0-2.3,0.8-1.3,1.2
			C25.7,119.1,31.7,118.8,35.7,119.1z"/>
		<path class="st2" d="M25.3,108.8c6.7,0.6,13.7,0.5,20.5,0.7c13.3,0.3,26.6,0.6,40,0.8c16.3,0.3,32.6,0.5,48.9,0.8
			c0.1,0,0.1,0,0.2,0.1c0,0,0,0,0,0c0.1,0,0.2,0,0.3,0.1c0,0,0,0,0.1,0c0.1,0,0.1,0,0.2,0c0.1,0,0.1,0,0.2,0c2.5,0.1,5.1,0.1,7.6,0
			c0.7,0,1.4,0,2.1,0c0.6,0,1-0.1,1.3-0.2c8.4-0.4,16.9-1.5,24.8-2.1c9.5-0.7,19-1.4,28.5-1.9c6.1-0.3,12.4-0.8,18.6-0.4
			c29.2,1.6,66.6,2.8,95.9,4.1c1.2,0.1,2-0.5,1.8-0.9c-0.1-0.2-0.2-0.4-0.4-0.6c-0.2-0.3-1-0.5-1.8-0.6c-29-1.3-66.1-2.4-95-3.9
			c-14-0.8-29.6,1-43.2,1.9c-12.5,0.9-24.9,1.8-37.4,2.9c-0.6,0-1.3-0.1-1.9-0.1c-11.7-0.2-23.5-0.5-35.2-0.7
			c5.8-0.5,11.5-1.2,17.1-1.7c26.4-2.3,52.7-5,79.1-7.3c10.5-0.9,21-1.4,31.7-0.4c9.5,0.9,18.8,2.1,28.2,3
			c16.1,1.5,41.2,3.3,57.8,3.6c1.7,0,2.2-0.8,1.3-1.3c-2.6-1.4-16.6-1.1-20.6-1.3c-10-0.6-20-1.4-29.9-2.3
			c-18.8-1.6-37.9-5-57.3-4.1c-11.7,0.6-23,1.8-34.4,3c-13.8,1.4-27.7,2.6-41.6,3.8c-11.9,1-23.7,2-35.6,3C93,107,88,107.2,84,107.8
			c-0.4,0-0.7,0.1-0.9,0.2c-0.3,0.1-0.4,0.2-0.5,0.3c-10.9-0.2-21.8-0.5-32.6-0.8c6.1-0.4,12.4-1.3,17.9-1.7
			c21.2-1.8,42.3-3.7,63.4-5.6c13.4-1.3,26.9-2.6,40.1-4.2c4.6-0.6,9.6-1.1,13.8-2.1c1.1-0.3,2.8-0.8,2.7-1.4
			c-0.4-2.2-12-2-15.8-2.1c-23.8-0.5-47.8,0-71.5,0.5c-19.6,0.4-56.2,0.8-75.8,1.3c-1,0-1.8,0.3-1.8,0.7c0,0.2,0,0.3,0,0.5
			c0,0.4,0.8,0.8,1.8,0.8c39.4-1.1,96.1-2.1,135.7-1.9c4.3,0,8.7,0.1,13,0.2c1.7,0,3.3,0.1,5,0.2c0.7,0,1.2,0.1,1.7,0.1
			c-2,0.3-4.7,0.7-5.9,0.8c-20.3,2.8-41.5,4.7-62.4,6.6c-23.5,2.2-47.1,4.1-70.8,6c-1,0.1-1.4,0.4-1.3,0.7c-0.1,0.2,0,0.3,0.2,0.4
			c-4.6-0.1-9.3-0.2-13.7-0.6c-1-0.1-2.5,0.1-2.3,0.7c0.1,0.2,0.1,0.5,0.2,0.7C24.1,108.4,24.4,108.8,25.3,108.8z"/>
		<path class="st2" d="M165.4,154.6c-41.5,0.2-102-0.5-143.5-1.3c-1.2,0-2,0.5-1.8,0.9c0.1,0.2,0.2,0.4,0.3,0.6
			c0.2,0.3,0.7,0.5,1.3,0.5c0,0,0,0,0.1,0c0,0,0.1,0,0.1,0c0.1,0,0.2,0,0.3,0c40.8,0.8,100.8,1.3,141.6,1.1
			c25.6-0.1,50.9-1.2,76.5-1.9c21.8-0.5,43.7-0.9,65.6-1.2c1.1,0,1.7-0.3,1.8-0.7c0-0.2,0.1-0.3,0.1-0.5c0.1-0.4-0.9-0.8-1.8-0.8
			c-21.2,0.2-42.5,0.6-63.7,1.1C216.7,153.3,191.2,154.5,165.4,154.6z"/>
		<path class="st2" d="M316,165.4c0-0.4-0.6-0.6-1.3-0.7c-23.5-4.2-57.6-6.8-82.9-7.4c-11.7-0.3-23.4,0.2-35.1,0.3
			c-12.2,0.1-24.5,0.2-36.7,0.2c-39.7,0.1-98.4,0-138.2-0.1c-1.2,0-2.1,0.4-1.8,0.9c0.1,0.2,0.3,0.4,0.4,0.6
			c0.1,0.2,0.3,0.3,0.6,0.4c0.3,0.1,0.6,0.2,1.1,0.2c38.9,0.1,96.8,0.1,135.6,0c22.9-0.1,45.8-0.7,68.7-0.6
			c26.6,0.1,62.6,3.2,87.2,7.6c1.1,0.2,2.3-0.3,2.3-0.7C316,165.8,316,165.6,316,165.4z"/>
		<path class="st2" d="M314.3,168.6c-38.5-2.6-85.2-4.9-124.1-6c-20.7-0.6-41.5-1.2-62.1-0.3c-28.8,1.2-77.1,1.3-106,1.9
			c-1,0-1.8,0.3-1.8,0.7c0,0.2,0,0.3,0,0.5c0,0.2,0.1,0.3,0.3,0.4c0.3,0.2,0.8,0.3,1.5,0.3c28.5-0.6,76.2-0.8,104.7-1.8
			c20.4-0.7,40.6-0.4,61.1,0.2c39.5,1.1,86.6,3.5,125.8,6.2c1.4,0.1,2.5-0.3,2.3-0.9c-0.1-0.2-0.2-0.5-0.3-0.7
			C315.5,168.9,314.9,168.7,314.3,168.6z"/>
		<path class="st2" d="M306.8,180.4c-8.4-0.5-24.6-1.4-32.8-2.3c-18.7-2-37-4.6-55.5-7c-13.3-1.7-27.1-3.8-41-4.5
			c-8.6-0.4-17.3-0.3-25.9-0.2c-37.2,0.4-93.3,1.9-130.2,3.7c-1.1,0.1-1.4,0.4-1.3,0.7c0,0.1,0,0.1,0,0.2c0.1,0.2,0.1,0.3,0.2,0.5
			c0.1,0.4,1.4,0.6,2.2,0.5c34.8-1.6,88.7-3,123.8-3.5c8.7-0.1,17.4-0.2,26.2,0c12.4,0.3,24.5,2.1,36.4,3.5
			c18.3,2.3,36.4,4.8,54.7,7c14,1.7,36.4,3.4,50.9,3.8c1.3,0,2.4-0.6,1.6-1.1C313.6,180.3,310.9,180.6,306.8,180.4z"/>
		<path class="st2" d="M170.4,176.9c4.6-0.6,9.6-1.1,13.8-2.1c1.1-0.3,2.8-0.8,2.7-1.4c-0.4-2.2-12-2-15.8-2.1
			c-23.8-0.5-47.8,0-71.5,0.5c-19.6,0.4-58.2,0.8-77.8,1.3c-1,0-1.8,0.3-1.8,0.7c0,0.2,0,0.3,0,0.5c0,0.4,0.8,0.8,1.8,0.8
			c39.4-1.1,98.1-2.1,137.7-1.9c4.3,0,8.7,0.1,13,0.2c1.7,0,3.3,0.1,5,0.2c0.7,0,1.2,0.1,1.7,0.1c-2,0.3-4.7,0.7-5.9,0.8
			c-20.3,2.8-41.5,4.7-62.4,6.6c-23.5,2.2-66.2,4.1-89.8,6c-1,0.1-1.4,0.4-1.3,0.7c-0.1,0.3,0.2,0.7,1.3,0.7
			c8.6,0.6,37.6-1.1,45.9-1.8c21.2-1.8,42.3-3.7,63.4-5.6C143.7,179.8,157.2,178.5,170.4,176.9z"/>
		<path class="st2" d="M21.8,185.4c11.6-1.1,42.2-2.2,53.6-3.6c3.7-0.4,22.5-1.8,22.5-4.2c0-3.8-69.7-0.7-76.7-0.4
			c-0.7,0-1.4,0.4-1.3,0.7c0,0.2,0.1,0.3,0.1,0.5c0.1,0.4,0.7,0.8,1.8,0.8c10.2-0.4,39.4-0.8,49.7-1.1c4.2-0.1,8.4-0.2,12.6-0.2
			c1.8,0,3.6,0,5.4,0c0.1,0,0.3,0,0.4,0c-5.5,1.2-13,1.6-18.6,2.3c-10.4,1.2-39.9,2.2-50.4,3.1c-0.6,0.1-1,0.2-1.2,0.4c0,0,0,0,0,0
			c0,0,0,0-0.1,0.1c-0.1,0.1-0.1,0.1-0.1,0.2c0,0.2,0,0.5,0,0.7C19.5,185.2,20.7,185.5,21.8,185.4z"/>
		<path class="st2" d="M295.1,184.3c-10-0.6-20-1.4-29.9-2.3c-18.8-1.6-37.9-5-57.3-4.1c-11.7,0.6-23,1.8-34.4,3
			c-13.8,1.4-27.7,2.6-41.6,3.8c-11.9,1-23.7,2-35.6,3c-4.1,0.3-9.2,0.4-13.2,1.1c-0.4,0-0.7,0.1-0.9,0.2c-1.2,0.4-0.4,1.4,1.2,1.3
			c0,0,0.1,0,0.1,0c11.4,0.4,23-1.2,34.1-2.2c26.4-2.3,52.7-5,79.1-7.3c10.5-0.9,21-1.4,31.7-0.4c9.5,0.9,18.8,2.1,28.2,3
			c16.2,1.5,41.2,3.3,57.8,3.6c1.7,0,2.2-0.8,1.3-1.3C313,184.3,299.1,184.6,295.1,184.3z"/>
		<path class="st2" d="M314.9,190.2c-0.2-0.3-1-0.5-1.8-0.6c-29-1.3-66.1-2.4-95-3.9c-14-0.8-29.6,1-43.2,1.9
			c-13.6,1-27.1,2-40.6,3.1c-0.5,0-0.9,0.1-1.2,0.2c-0.6,0.3-0.5,0.7,0.1,1c0,0,0,0,0,0c0.1,0,0.1,0.1,0.2,0.1c0,0,0,0,0,0
			c0.1,0,0.2,0.1,0.3,0.1c0,0,0,0,0,0c0.1,0,0.2,0,0.3,0.1c0,0,0,0,0.1,0c0.1,0,0.1,0,0.2,0c0.1,0,0.1,0,0.2,0
			c11.7,0.5,24.3-1.4,35.7-2.3c9.5-0.7,19-1.4,28.5-1.9c6.1-0.3,12.4-0.8,18.6-0.4c29.2,1.6,66.6,2.8,95.9,4.1
			c1.2,0.1,2-0.5,1.8-0.9C315.2,190.6,315,190.4,314.9,190.2z"/>
		<path class="st2" d="M313.6,194.5c-6.7-0.5-21.7-0.5-28.5-0.6c-13.3-0.2-26.6-0.4-40-0.6c-19.8-0.2-39.7-0.4-59.5-0.6
			c-2.4,0-2.3,1.4,0,1.5c2.9,0.1,5.8,0.2,8.7,0.3c17.3,0.2,34.6,0.5,51.9,0.8c12.5,0.2,24.9,0.4,37.3,0.7c7,0.1,22.4,0.1,29.3,0.6
			c1,0.1,2.5-0.2,2.3-0.7c-0.1-0.2-0.1-0.5-0.2-0.7C314.9,194.9,314.5,194.6,313.6,194.5z"/>
	</g>
	<g>
		<path class="st2" d="M20.4,197.9c0.2,0.3,0.7,0.5,1.3,0.5c0,0,0,0,0.1,0c0,0,0.1,0,0.1,0c0.1,0,0.2,0,0.3,0
			c40.8,0.8,101.8,1.3,142.6,1.1c25.6-0.1,50.9-1.2,76.5-1.9c21.8-0.5,51.7-0.9,73.6-1.2c1.1,0,1.7-0.3,1.8-0.7
			c0-0.2,0.1-0.3,0.1-0.5c0.1-0.4-0.9-0.8-1.8-0.8c-21.2,0.2-50.5,0.6-71.7,1.1c-25.7,0.6-51.2,1.8-77,1.9
			c-41.5,0.2-103-0.5-144.5-1.3c-1.2,0-2,0.5-1.8,0.9C20.2,197.5,20.3,197.7,20.4,197.9z"/>
		<path class="st2" d="M20.3,202.2c0.1,0.2,0.3,0.3,0.6,0.4c0.3,0.1,0.6,0.2,1.1,0.2c38.9,0.1,97.8,0.1,136.6,0
			c22.9-0.1,45.8-0.7,68.7-0.6c26.6,0.1,62.6,3.2,87.2,7.6c1.1,0.2,2.3-0.2,2.3-0.7c0-0.2,0-0.4,0-0.6c0-0.4-0.6-0.6-1.3-0.7
			c-23.5-4.2-57.6-6.8-82.9-7.4c-11.7-0.3-23.4,0.2-35.1,0.3c-12.2,0.1-24.5,0.2-36.7,0.2c-39.7,0.1-99.4,0-139.2-0.1
			c-1.2,0-2.1,0.4-1.8,0.9C20.1,201.8,20.2,202,20.3,202.2z"/>
		<path class="st2" d="M22,209.2c28.5-0.6,77.2-0.8,105.7-1.8c20.4-0.7,40.6-0.4,61.1,0.2c39.5,1.1,86.7,3.5,125.8,6.2
			c1.4,0.1,2.5-0.3,2.2-0.9c-0.1-0.2-0.2-0.5-0.3-0.7c-0.1-0.2-0.7-0.5-1.3-0.5c-38.5-2.6-85.2-4.9-124.1-6
			c-20.7-0.6-41.5-1.2-62.1-0.3c-28.8,1.2-78.1,1.3-107.1,1.9c-1,0-1.8,0.3-1.8,0.7c0,0.2,0,0.3,0,0.5c0,0.2,0.1,0.3,0.3,0.4
			C20.7,209.1,21.2,209.2,22,209.2z"/>
		<path class="st2" d="M307.7,223.4c-8.4-0.5-24.6-1.4-32.7-2.3c-18.7-2-37-4.6-55.5-7c-13.3-1.7-27.1-3.8-41-4.5
			c-8.6-0.4-17.3-0.3-25.9-0.2c-37.2,0.4-94.3,2-131.2,3.7c-1.1,0-1.4,0.4-1.3,0.7c0,0.1,0,0.1,0,0.2c0.1,0.2,0.1,0.3,0.2,0.5
			c0.1,0.4,1.4,0.6,2.2,0.5c34.8-1.6,89.8-3,124.8-3.5c8.7-0.1,17.5-0.2,26.2,0c12.4,0.3,24.5,2.1,36.4,3.5
			c18.3,2.3,36.4,4.8,54.7,7c14,1.7,36.4,3.4,50.9,3.8c1.3,0,2.4-0.6,1.6-1.1C314.5,223.2,311.8,223.6,307.7,223.4z"/>
		<path class="st2" d="M41.7,228.4c11.6-1,23.1-2.2,34.6-3.6c3.7-0.4,22.5-1.8,22.5-4.2c0-3.8-70.7-0.7-77.7-0.4
			c-0.7,0-1.4,0.4-1.3,0.7c0,0.2,0.1,0.3,0.1,0.5c0.1,0.4,20.7,0.8,21.8,0.8c10.2-0.4,20.4-0.8,30.7-1.1c4.2-0.1,8.4-0.2,12.6-0.2
			c1.8,0,3.6,0,5.4,0c0.1,0,0.3,0,0.4,0c-5.5,1.2-13,1.7-18.6,2.3c-10.4,1.2-20.9,2.2-31.4,3.1c-0.6,0.1-1,0.2-1.2,0.4c0,0,0,0,0,0
			c0,0,0,0-0.1,0.1c-0.1,0.1-0.1,0.1-0.1,0.2c0,0.2,0,0.4,0,0.7C39.4,228.2,40.6,228.5,41.7,228.4z"/>
		<path class="st2" d="M164.7,273.4c41.5,0.1,83,0.9,124.5,2c1.2,0,2-0.4,1.8-0.9c-0.1-0.2-0.2-0.4-0.3-0.6
			c-0.2-0.3-0.7-0.5-1.3-0.5c0,0,0,0-0.1,0c0,0-0.1,0-0.1,0c-0.1,0-0.2,0-0.3,0c-40.8-1-81.8-1.7-122.6-1.8
			c-25.6-0.1-51,0.9-76.5,1.4c-21.9,0.4-43.7,0.6-65.6,0.8c-1.1,0-1.7,0.3-1.8,0.7c0,0.2-0.1,0.3-0.1,0.5c-0.1,0.4,0.9,0.8,1.8,0.8
			c21.2-0.1,42.5-0.4,63.7-0.8C113.3,274.4,138.9,273.4,164.7,273.4z"/>
		<path class="st2" d="M23.6,262.6c23.4,4.3,49.5,7,74.8,7.8c11.6,0.4,23.4-0.1,35.1-0.1c12.2-0.1,24.5,0,36.7,0
			c39.7,0.1,102.5,0.5,142.2,0.8c1.2,0,2.1-0.4,1.8-0.9c-0.1-0.2-0.2-0.4-0.4-0.6c-0.1-0.2-0.3-0.3-0.6-0.4
			c-0.3-0.1-0.6-0.2-1.1-0.2c-38.9-0.4-100.8-0.6-139.6-0.7c-22.9,0-45.9,0.5-68.7,0.2c-26.6-0.3-54.5-3.5-79-8
			c-1.1-0.2-2.3,0.2-2.3,0.7c0,0.2,0,0.4,0,0.6C22.3,262.2,22.8,262.5,23.6,262.6z"/>
		<path class="st2" d="M312.3,262.6c-28.6,0.4-80.2,0.4-108.7,1.3c-20.4,0.6-40.6,0.2-61.1-0.5c-39.5-1.3-78.6-4-117.7-6.9
			c-1.4-0.1-2.5,0.3-2.3,0.9c0.1,0.2,0.2,0.5,0.3,0.7c0.1,0.2,0.7,0.5,1.3,0.5c38.5,2.8,77.1,5.3,116,6.7
			c20.7,0.7,41.5,1.4,62.1,0.6c28.9-1.1,81.1-1,110.1-1.4c1,0,1.8-0.3,1.8-0.7c0-0.2,0-0.3,0-0.5c0-0.2-0.1-0.3-0.3-0.4
			C313.5,262.7,313,262.6,312.3,262.6z"/>
		<path class="st2" d="M31.9,247c8.3,0.5,16.6,1.5,24.7,2.4c18.6,2.1,36.9,4.8,55.3,7.3c13.3,1.8,27,4,41,4.7
			c8.6,0.5,17.3,0.4,25.9,0.4c37.2-0.2,97.4-1.5,134.3-3c1.1,0,1.4-0.4,1.3-0.7c0-0.1,0-0.1,0-0.2c0-0.2-0.1-0.3-0.1-0.5
			c-0.1-0.4-1.3-0.6-2.2-0.6c-34.8,1.4-92.8,2.6-127.9,2.9c-8.7,0.1-17.5,0.1-26.2-0.1c-12.4-0.3-24.5-2.2-36.3-3.7
			c-18.2-2.4-36.3-5-54.6-7.3c-13.9-1.7-28.3-3.6-42.8-4c-1.3,0-2.4,0.6-1.6,1.1C25,247,27.8,246.7,31.9,247z"/>
		<path class="st2" d="M290.9,240.3c-8.6-0.6-18.7,1-27,1.6c-21.2,1.7-42.4,3.4-63.5,5.3c-13.5,1.2-26.9,2.4-40.2,3.9
			c-4.7,0.5-9.6,1.1-13.9,2c-1.1,0.2-2.9,0.7-2.7,1.4c0.4,2.2,12,2.1,15.7,2.2c23.8,0.7,47.8,0.2,71.5-0.1c19.6-0.2,62.2-0.6,81.8-1
			c1,0,1.8-0.3,1.8-0.7c0-0.2,0-0.3,0-0.5c0-0.4-0.8-0.8-1.8-0.8c-39.4,0.8-102.1,1.6-141.7,1.3c-4.3,0-8.7-0.1-13-0.2
			c-1.7-0.1-3.3-0.1-5-0.2c-0.7,0-1.2-0.1-1.7-0.1c2-0.3,4.7-0.6,5.9-0.8c20.3-2.7,41.6-4.4,62.6-6.2c23.6-2,47.2-3.8,71-5.6
			c1-0.1,1.4-0.4,1.3-0.7C292.3,240.7,291.9,240.4,290.9,240.3z"/>
		<path class="st2" d="M313.9,245.5c0.6-0.1,1-0.2,1.2-0.4c0,0,0,0,0,0c0,0,0,0,0.1-0.1c0-0.1,0.1-0.1,0.1-0.2c0-0.2,0-0.4,0-0.7
			c0-0.5-1.1-0.9-2.3-0.8c-11.6,1-46.2,2.1-57.7,3.4c-3.7,0.4-22.6,1.7-22.6,4.1c-0.1,3.8,73.7,1,80.7,0.8c0.7,0,1.4-0.4,1.4-0.7
			c0-0.2-0.1-0.3-0.1-0.5c-0.1-0.4-0.7-0.8-1.8-0.8c-10.2,0.4-43.4,0.7-53.7,0.9c-4.2,0.1-8.4,0.1-12.6,0.1c-1.8,0-3.6,0-5.4-0.1
			c-0.1,0-0.3,0-0.4,0c5.5-1.1,13.1-1.6,18.7-2.2C269.8,247.3,303.3,246.4,313.9,245.5z"/>
		<path class="st2" d="M35.7,243c10,0.7,20,1.6,29.9,2.5c18.8,1.7,37.8,5.2,57.2,4.4c11.7-0.5,23.1-1.7,34.5-2.8
			c13.8-1.3,27.7-2.4,41.7-3.6c11.9-1,23.8-1.9,35.7-2.8c4.1-0.3,9.2-0.4,13.2-1c0.4,0,0.7-0.1,0.9-0.2c1.1-0.3,0.6-1.2-0.8-1.3
			c12.2,0.2,24.4,0.4,36.6,0.7c7,0.2,22.4,0.1,29.3,0.6c1,0.1,2.5-0.2,2.3-0.7c-0.1-0.2-0.1-0.5-0.2-0.7c-0.1-0.3-0.5-0.7-1.3-0.7
			c-6.7-0.5-21.7-0.5-28.5-0.6c-13.3-0.2-26.6-0.4-40-0.6c-19.8-0.2-39.7-0.4-59.5-0.6c-0.9,0-1.4,0.2-1.6,0.4
			c-8.3,0.4-16.7,1.4-24.5,2c-9.5,0.6-19,1.3-28.6,1.7c-6.1,0.3-12.4,0.7-18.7,0.3c-29.2-1.8-58.6-3.2-87.9-4.6
			c-1.2-0.1-2,0.5-1.8,0.9c0.1,0.2,0.2,0.4,0.3,0.6c0.2,0.3,1,0.5,1.7,0.6c29,1.4,58,2.7,86.9,4.4c14,0.8,29.6-0.8,43.3-1.7
			c13.5-0.9,26.9-1.8,40.4-2.9c15.2,0.2,30.4,0.4,45.6,0.7c-9.6,0.1-19.2,1.4-28.4,2.1c-26.5,2.2-52.8,4.7-79.2,6.9
			c-10.5,0.9-21.1,1.3-31.7,0.2c-9.4-0.9-18.7-2.2-28.2-3.2c-16.1-1.6-33.1-3.5-49.7-3.9c-1.7,0-2.3,0.8-1.3,1.2
			C25.7,243,31.7,242.8,35.7,243z"/>
		<path class="st2" d="M25.3,232.8c6.7,0.6,13.7,0.5,20.5,0.7c13.3,0.3,26.6,0.6,40,0.8c16.3,0.3,32.6,0.5,48.9,0.8
			c0.1,0,0.1,0,0.2,0.1c0,0,0,0,0,0c0.1,0,0.2,0,0.3,0.1c0,0,0,0,0.1,0c0.1,0,0.1,0,0.2,0c0.1,0,0.1,0,0.2,0c2.5,0.1,5.1,0.1,7.6,0
			c0.7,0,1.4,0,2.1,0c0.6,0,1-0.1,1.3-0.2c8.4-0.4,16.9-1.5,24.8-2.1c9.5-0.7,19-1.4,28.5-1.9c6.1-0.3,12.4-0.8,18.6-0.4
			c29.2,1.6,66.6,2.8,95.9,4.1c1.2,0.1,2-0.5,1.8-0.9c-0.1-0.2-0.2-0.4-0.4-0.6c-0.2-0.3-1-0.5-1.8-0.6c-29-1.3-66.1-2.4-95-3.9
			c-14-0.8-29.6,1-43.2,1.9c-12.5,0.9-24.9,1.8-37.4,2.9c-0.6,0-1.3-0.1-1.9-0.1c-11.7-0.2-23.5-0.5-35.2-0.7
			c5.8-0.5,11.5-1.2,17.1-1.7c26.4-2.3,52.7-5,79.1-7.3c10.5-0.9,21-1.4,31.7-0.4c9.5,0.9,18.8,2.1,28.2,3
			c16.1,1.5,41.2,3.3,57.8,3.6c1.7,0,2.2-0.8,1.3-1.3c-2.6-1.4-16.6-1.1-20.6-1.3c-10-0.6-20-1.4-29.9-2.3
			c-18.8-1.6-37.9-5-57.3-4.1c-11.7,0.6-23,1.8-34.4,3c-13.8,1.4-27.7,2.6-41.6,3.8c-11.9,1-23.7,2-35.6,3
			c-4.1,0.3-9.2,0.4-13.2,1.1c-0.4,0-0.7,0.1-0.9,0.2c-0.3,0.1-0.4,0.2-0.5,0.3c-10.9-0.2-21.8-0.5-32.6-0.8
			c6.1-0.4,12.4-1.3,17.9-1.7c21.2-1.8,42.3-3.7,63.4-5.6c13.4-1.3,26.9-2.6,40.1-4.2c4.6-0.6,9.6-1.1,13.8-2.1
			c1.1-0.3,2.8-0.8,2.7-1.4c-0.4-2.2-12-2-15.8-2.1c-23.8-0.5-47.8,0-71.5,0.5c-19.6,0.4-59.2,0.8-78.8,1.3c-1,0-1.8,0.3-1.8,0.7
			c0,0.2,0,0.3,0,0.5c0,0.4,0.8,0.8,1.8,0.8c39.4-1.1,99.1-2.1,138.7-1.9c4.3,0,8.7,0.1,13,0.2c1.7,0,3.3,0.1,5,0.2
			c0.7,0,1.2,0.1,1.7,0.1c-2,0.3-4.7,0.7-5.9,0.8c-20.3,2.8-41.5,4.7-62.4,6.6c-23.5,2.2-47.1,4.1-70.8,6c-1,0.1-1.4,0.4-1.3,0.7
			c-0.1,0.2,0,0.3,0.2,0.4c-4.6-0.1-9.3-0.2-13.7-0.6c-1-0.1-2.5,0.1-2.3,0.7c0.1,0.2,0.1,0.5,0.2,0.7
			C24.1,232.3,24.4,232.7,25.3,232.8z"/>
		<path class="st2" d="M165.4,278.6c-41.5,0.2-99-0.5-140.5-1.3c-1.2,0-2,0.5-1.8,0.9c0.1,0.2,0.2,0.4,0.3,0.6
			c0.2,0.3,0.7,0.5,1.3,0.5c0,0,0,0,0.1,0c0,0,0.1,0,0.1,0c0.1,0,0.2,0,0.3,0c40.8,0.8,97.8,1.3,138.6,1.1
			c25.6-0.1,50.9-1.2,76.5-1.9c21.8-0.5,43.7-0.9,65.6-1.2c1.1,0,1.7-0.3,1.8-0.7c0-0.2,0.1-0.3,0.1-0.5c0.1-0.4-0.9-0.8-1.8-0.8
			c-21.2,0.2-42.5,0.6-63.7,1.1C216.7,277.3,191.2,278.5,165.4,278.6z"/>
		<path class="st2" d="M317,289.3c0-0.4-0.6-0.6-1.3-0.7c-23.5-4.2-58.6-6.8-83.9-7.4c-11.7-0.3-23.4,0.2-35.1,0.3
			c-12.2,0.1-24.5,0.2-36.7,0.2c-39.7,0.1-95.4,0-135.2-0.1c-1.2,0-2.1,0.4-1.8,0.9c0.1,0.2,0.3,0.4,0.4,0.6
			c0.1,0.2,0.3,0.3,0.6,0.4c0.3,0.1,0.6,0.2,1.1,0.2c38.9,0.1,93.8,0.1,132.6,0c22.9-0.1,45.8-0.7,68.7-0.6
			c26.6,0.1,63.6,3.2,88.2,7.6c1.1,0.2,2.3-0.3,2.3-0.7C317,289.8,317,289.6,317,289.3z"/>
		<path class="st2" d="M315.3,292.6c-38.5-2.6-86.2-4.9-125.1-6c-20.7-0.6-41.5-1.2-62.1-0.3c-28.8,1.2-74.1,1.3-103,1.9
			c-1,0-1.8,0.3-1.8,0.7c0,0.2,0,0.3,0,0.5c0,0.2,0.1,0.3,0.3,0.4c0.3,0.2,0.8,0.3,1.5,0.3c28.5-0.6,73.2-0.8,101.7-1.8
			c20.4-0.7,40.6-0.4,61.1,0.2c39.5,1.1,87.6,3.5,126.8,6.2c1.4,0.1,2.5-0.3,2.3-0.9c-0.1-0.2-0.2-0.5-0.3-0.7
			C316.5,292.9,315.9,292.6,315.3,292.6z"/>
		<path class="st2" d="M307.8,304.3c-8.4-0.5-25.6-1.4-33.8-2.3c-18.7-2-37-4.6-55.5-7c-13.3-1.7-27.1-3.8-41-4.5
			c-8.6-0.4-17.3-0.3-25.9-0.2c-37.2,0.4-90.3,1.9-127.2,3.7c-1.1,0.1-1.4,0.4-1.3,0.7c0,0.1,0,0.1,0,0.2c0.1,0.2,0.1,0.3,0.2,0.5
			c0.1,0.4,1.4,0.6,2.2,0.5c34.8-1.6,85.7-3,120.8-3.5c8.7-0.1,17.4-0.2,26.2,0c12.4,0.3,24.5,2.1,36.4,3.5
			c18.3,2.3,36.4,4.8,54.7,7c14,1.7,37.4,3.4,51.9,3.8c1.3,0,2.4-0.6,1.6-1.1C314.6,304.2,311.9,304.5,307.8,304.3z"/>
		<path class="st2" d="M170.4,300.9c4.6-0.6,9.6-1.1,13.8-2.1c1.1-0.3,2.8-0.8,2.7-1.4c-0.4-2.2-12-2-15.8-2.1
			c-23.8-0.5-47.8,0-71.5,0.5c-19.6,0.4-55.2,0.8-74.8,1.3c-1,0-1.8,0.3-1.8,0.7c0,0.2,0,0.3,0,0.5c0,0.4,0.8,0.8,1.8,0.8
			c39.4-1.1,95.1-2.1,134.7-1.9c4.3,0,8.7,0.1,13,0.2c1.7,0,3.3,0.1,5,0.2c0.7,0,1.2,0.1,1.7,0.1c-2,0.3-4.7,0.7-5.9,0.8
			c-20.3,2.8-41.5,4.7-62.4,6.6c-23.5,2.2-63.2,4.1-86.8,6c-1,0.1-1.4,0.4-1.3,0.7c-0.1,0.3,0.2,0.7,1.3,0.7
			c8.6,0.6,34.6-1.1,42.9-1.8c21.2-1.8,42.3-3.7,63.4-5.6C143.7,303.8,157.2,302.5,170.4,300.9z"/>
		<path class="st2" d="M24.8,309.4c11.6-1.1,39.2-2.2,50.6-3.6c3.7-0.4,22.5-1.8,22.5-4.2c0-3.8-66.7-0.7-73.7-0.4
			c-0.7,0-1.4,0.4-1.3,0.7c0,0.2,0.1,0.3,0.1,0.5c0.1,0.4,0.7,0.8,1.8,0.8c10.2-0.4,36.4-0.8,46.7-1.1c4.2-0.1,8.4-0.2,12.6-0.2
			c1.8,0,3.6,0,5.4,0c0.1,0,0.3,0,0.4,0c-5.5,1.2-13,1.6-18.6,2.3c-10.4,1.2-36.9,2.2-47.4,3.1c-0.6,0.1-1,0.2-1.2,0.4c0,0,0,0,0,0
			c0,0,0,0-0.1,0.1c-0.1,0.1-0.1,0.1-0.1,0.2c0,0.2,0,0.5,0,0.7C22.5,309.1,23.6,309.5,24.8,309.4z"/>
		<path class="st2" d="M295,308.2c-10-0.6-20-1.4-29.9-2.3c-18.8-1.6-37.9-5-57.3-4.1c-11.7,0.6-23,1.8-34.4,3
			c-13.8,1.4-27.7,2.6-41.6,3.8c-11.9,1-23.7,2-35.6,3c-4.1,0.3-9.2,0.4-13.2,1.1c-0.4,0-0.7,0.1-0.9,0.2c-1.2,0.4-0.4,1.4,1.2,1.3
			c0,0,0.1,0,0.1,0c11.4,0.4,23-1.2,34.1-2.2c26.4-2.3,52.7-5,79.1-7.3c10.5-0.9,21-1.4,31.7-0.4c9.5,0.9,18.8,2.1,28.2,3
			c16.2,1.5,42.2,3.3,58.8,3.6c1.7,0,2.2-0.8,1.3-1.3C314,308.2,299,308.5,295,308.2z"/>
		<path class="st2" d="M315.9,314.1c-0.2-0.3-1-0.5-1.8-0.6c-29-1.3-67.1-2.4-96-3.9c-14-0.8-29.6,1-43.2,1.9
			c-13.6,1-27.1,2-40.6,3.1c-0.5,0-0.9,0.1-1.2,0.2c-0.6,0.3-0.5,0.7,0.1,1c0,0,0,0,0,0c0.1,0,0.1,0.1,0.2,0.1c0,0,0,0,0,0
			c0.1,0,0.2,0.1,0.3,0.1c0,0,0,0,0,0c0.1,0,0.2,0,0.3,0.1c0,0,0,0,0.1,0c0.1,0,0.1,0,0.2,0c0.1,0,0.1,0,0.2,0
			c11.7,0.5,24.3-1.4,35.7-2.3c9.5-0.7,19-1.4,28.5-1.9c6.1-0.3,12.4-0.8,18.6-0.4c29.2,1.6,67.6,2.8,96.9,4.1
			c1.2,0.1,2-0.5,1.8-0.9C316.1,314.6,316,314.4,315.9,314.1z"/>
		<path class="st2" d="M314.6,318.4c-6.7-0.5-22.7-0.5-29.5-0.6c-13.3-0.2-26.6-0.4-40-0.6c-19.8-0.2-39.7-0.4-59.5-0.6
			c-2.4,0-2.3,1.4,0,1.5c2.9,0.1,5.8,0.2,8.7,0.3c17.3,0.2,34.6,0.5,51.9,0.8c12.5,0.2,24.9,0.4,37.3,0.7c7,0.1,23.4,0.1,30.3,0.6
			c1,0.1,2.5-0.2,2.3-0.7c-0.1-0.2-0.1-0.5-0.2-0.7C315.9,318.9,315.5,318.5,314.6,318.4z"/>
	</g>
</g>
<path class="st3" d="M183.7-102.6c0,17-14,31-31,31h-106c-17,0-31-14-31-31v-4c0-17,14-31,31-31h106c17,0,31,14,31,31V-102.6z"/>
<g>
	<g class="st4">
		<line class="st5" x1="169" y1="67" x2="169" y2="313"/>
		<line class="st5" x1="264.3" y1="67" x2="264.3" y2="313"/>
		<line class="st5" x1="121.3" y1="67" x2="121.3" y2="313"/>
		<line class="st5" x1="216.7" y1="67" x2="216.7" y2="313"/>
		<line class="st5" x1="73.7" y1="67" x2="73.7" y2="313"/>
	</g>
	<g class="st4">
		<line class="st5" x1="311.5" y1="168.5" x2="24.5" y2="168.5"/>
		<line class="st5" x1="311.5" y1="263.8" x2="24.5" y2="263.8"/>
		<line class="st5" x1="311.5" y1="120.8" x2="24.5" y2="120.8"/>
		<line class="st5" x1="311.5" y1="216.2" x2="24.5" y2="216.2"/>
	</g>
</g>
<g>
	<path class="st6" d="M223.9,291.4c-2.1-3.1-6-3.6-9.7-2.8c-5.1,1.1-8.5,4.7-13,6.7c-4.7,2.1-9.8,1-10.9-3.9c-0.4-1.7-0.1-3.6,0.9-5
		c1.7-2.2,4.9-2.4,7.4-3.4c4-1.6,7.4-5.1,7.4-9.2c0-3.4-2.4-6.8-6.2-7.6c-4.6-1-8.9,2-11.2,5.4c-1.4,2-2.3,4.3-3.2,6.5
		c-1,2.3-2.7,7.6-6.5,5.5c-4.1-2.3-4.6-8.7-4.7-12.6c0-4.4,1.1-9.2,4.6-12.5c7-6.7,21.2-3.1,26.4-12.1c2.1-3.8,0.6-7.9-2.4-10.9
		c-3.7-3.7-9.1-5.1-14.2-6.7c-5.3-1.6-11.3-4.1-12.9-9.5c-1.6-5.5,4-8.4,9.1-9.2c5.2-0.8,10.5,0,15.7-1.2c5.4-1.3,8.4-4.6,9.2-9.5
		c1.4-9.6-1.1-23-13.8-25c-0.5-0.1-1,0.1-1.1,0.6l-2.6,11.5c-0.7,2.9-1,9.2-5.6,9.3c-3.9,0.1-7-3.6-8.5-6.4
		c-1.7-2.9-2.6-6.5-1.9-9.7c1.6-7,9.9-8.2,15.5-11.6c3.7-2.3,7.1-7.3,5.1-11.4c-1-2-3.2-3.1-5.6-3.5c-3.7-0.5-7.3,0-10.7-2
		c-3-1.8-4.7-5.7-2.5-8.6c2.6-3.5,7.9-1.7,11.2-0.3c4.6,2,9.5,4.7,14.8,2.9c5.4-1.9,4.2-7.4,0.7-10.4c-8.6-7.3-23.6-6.8-32.6-0.4
		c-5.4,3.9-8.4,9.9-13.8,13.8c-6.2,4.4-16.4,4.8-20.7-2c-2.1-3.4-0.8-6.5-0.4-10.1c0.3-2.4-0.6-5-3.1-6.2c-2.3-1.1-4.4-0.1-5.7,1.7
		c-1.9,2.8-3.1,6.1-4.2,9.2c-1.1,3.2-1.8,6.6-2.1,10c-0.2,1.7,0,3.5-0.5,5.1c-0.6,2.2-2.6,3-4.8,3.4c-4.3,0.8-8.7,1.1-13.1,1.1
		c-3.7,0-7.7,0-11.3-1.1c-2.7-0.8-6.5-2.5-6.5-5.5c0-3.6,4.7-5,7.8-5.8c4-1.1,8.1-2.1,12.2-2.9c2.7-0.5,6.6-0.5,8.7-2.5
		c3.9-3.6-1.8-7.9-5.7-8.5c-3.4-0.5-7.3,0.5-10.5-1.1c-3.7-1.9-3.2-6.4-1-9.1c2.2-2.7,1.9-5.2,5.2-6.6c1.1-0.5,0.1-1.9-0.9-1.4
		c-5.6,2.3-8.2,6.7-7.8,13.1c0.1,2.4,1.5,4.5,3.9,5.6c3,1.4,6.5,0.8,9.7,1c1.8,0.1,3.6,0.7,5,1.8c2,1.7,1.9,3.9-0.8,4.8
		c-1.7,0.6-3.6,0.7-5.4,1c-2.1,0.4-4.2,0.8-6.3,1.3c-5,1.2-14.8,2.5-15.8,8.3c-0.8,5,5.7,7.7,10.1,8.5c3.8,0.7,7.8,0.6,11.6,0.5
		c4.1-0.1,8.4-0.4,12.3-1.3c2.9-0.7,4.8-2.2,5.3-4.9c0.6-3.6,0.6-7.3,1.5-10.9c0.9-3.8,2.3-7.4,4.1-10.9c0.5-0.9,0.9-1.6,1.7-2.3
		c1.5-1.1,3-0.1,3.9,1.2c1.2,1.9,0.3,4.3-0.1,6.3c-1.1,5.6,2,11,7.9,13.1c6.5,2.4,13.7,0,18.5-4.2c5.3-4.6,8.5-11,15.2-14.3
		c6.1-3,13.7-3.5,20.3-1.4c3.4,1.1,7.9,3.3,9.1,6.6c1.2,3.6-2.5,5.1-5.8,5c-6.6-0.2-11.6-5.8-18.4-5.1c-5.8,0.6-8.1,6.6-5.2,10.8
		c1.5,2.3,4.3,3.8,7.1,4.4c3.4,0.8,8.7-0.4,11,2.4c2.1,2.5,0.2,6.1-1.7,8.2c-2.3,2.4-5.8,3.6-8.9,5c-5.8,2.6-10.1,6.4-9.9,12.6
		c0.2,5.4,3.6,12,9.3,14.3c2.5,1,5.3,0.9,7.3-0.9c2.3-2.2,2.6-5.7,3.2-8.5c0.8-3.7,1.7-7.4,2.5-11.1c5.4,1.2,9.2,5.4,10.7,10.1
		c0.9,2.5,1.1,5.2,1.1,7.9c0,2.9,0,6.3-1.5,8.9c-2.5,4.5-8.9,5-13.8,5.1c-4.3,0.1-8.7,0-12.8,1.6c-3.5,1.3-6.3,4.1-6.5,7.7
		c-0.1,4.1,3,7.8,6.6,10c4.7,2.9,10.6,3.6,15.7,5.8c4.9,2.1,10.6,7.2,7.6,12.5c-2.6,4.8-9.4,5.7-14.5,6.7c-4.7,0.9-9.2,2.3-12.3,5.8
		c-5.2,5.8-5.7,15.7-2.6,22.5c1.3,2.7,4.3,6.2,8.1,4.8c1.9-0.7,2.9-2.5,3.7-4.1c1.2-2.5,2.1-5.2,3.5-7.7c1.3-2.2,3-4.1,5.5-5.2
		c3.2-1.4,6.7-0.6,8.4,2.2c3.2,5.3-2.2,10-7.5,11.6c-4.2,1.2-7.3,3.1-7.5,7.3c-0.2,3.2,1.5,6.6,4.8,8c5.1,2.1,10.4-1.3,14.3-3.8
		c3.7-2.4,11.5-6.5,14.9-1.4C222.9,293.2,224.5,292.3,223.9,291.4z"/>
	<g>
		<g>
			<defs>
				<circle id="SVGID_1_" cx="240.5" cy="287.9" r="18.8"/>
			</defs>
			<use xlink:href="#SVGID_1_"  style="overflow:visible;fill:#37A7DE;"/>
			<clipPath id="SVGID_2_">
				<use xlink:href="#SVGID_1_"  style="overflow:visible;"/>
			</clipPath>
			<g class="st7">
				<g>
					<line class="st8" x1="232.1" y1="268.7" x2="248.2" y2="305.1"/>
					<line class="st8" x1="229" y1="271.3" x2="245.1" y2="307.8"/>
					<line class="st8" x1="225.9" y1="273.9" x2="241.9" y2="310.4"/>
					<line class="st8" x1="222.8" y1="276.5" x2="238.8" y2="313"/>
					<line class="st8" x1="219.7" y1="279.2" x2="235.7" y2="315.6"/>
				</g>
				<g>
					<line class="st8" x1="234.8" y1="273.9" x2="269.9" y2="286.3"/>
					<line class="st8" x1="237" y1="278.8" x2="269.5" y2="290.3"/>
					<line class="st8" x1="239.3" y1="283.7" x2="269.1" y2="294.2"/>
					<line class="st8" x1="241.6" y1="288.5" x2="268.6" y2="298.1"/>
					<line class="st8" x1="243.3" y1="293.2" x2="268.2" y2="302.1"/>
				</g>
				<g>
					<line class="st8" x1="232.8" y1="241.4" x2="249" y2="278.5"/>
					<line class="st8" x1="229.6" y1="243.8" x2="244" y2="276.8"/>
					<line class="st8" x1="226.5" y1="246.2" x2="239.1" y2="275"/>
				</g>
			</g>
		</g>
	</g>
	<g>
		<g>
			<path class="st9" d="M86.7,101.1c-8.4,0-15.2-6.8-15.2-15.2c0-3.8,1.4-7.4,3.9-10.2c0.7-0.8,1.9-0.8,2.7-0.1
				c0.8,0.7,0.8,1.9,0.1,2.7c-1.9,2.1-2.9,4.8-2.9,7.6c0,6.3,5.1,11.4,11.4,11.4c1,0,1.9,0.8,1.9,1.9
				C88.6,100.2,87.7,101.1,86.7,101.1z"/>
			<path class="st10" d="M91.2,97.3c-1.5,0-2.9-0.3-4.2-0.8c-1.2,0.7-2.2,1.6-2.9,2.8c2.1,1.1,4.6,1.8,7.1,1.8c1,0,1.9-0.8,1.9-1.9
				C93.1,98.1,92.3,97.3,91.2,97.3z"/>
			<path class="st9" d="M110.4,118L110.4,118c-1.7,0-3.1-1.4-3.1-3.1v-11.3h6.1v11.3C113.5,116.6,112.1,118,110.4,118z"/>
			<path class="st11" d="M107,95.4H90c-4.5,0-8.2,3.7-8.2,8.2v11.3c0,1.7,1.4,3.1,3.1,3.1c1.7,0,3.1-1.4,3.1-3.1v-3.4
				c0.7,0.2,1.4,0.3,2.1,0.3h8.5v3.1c0,1.7,1.4,3.1,3.1,3.1l0,0c1.7,0,3.1-1.4,3.1-3.1v-3.1c5.2-0.1,9.3-4.3,9.3-9.5l0,0
				C113.9,98.5,110.8,95.4,107,95.4z"/>
			<path class="st12" d="M107,95.4H94.6c-2.2,0-5.7-0.3-7.7,0.7c2.4,4.3,9.2,8.8,14.8,8.8h11.9c0.2-0.8,0.3-1.6,0.3-2.5l0,0
				C113.9,98.5,110.8,95.4,107,95.4z"/>
			<g>
				<path class="st11" d="M120,74.1L120,74.1c-2.9,0.7-5.7,1.7-8.4,2.9c-1.5-0.4-3.1-0.6-4.7-0.6l0,0c-1.6,0-3.2,0.2-4.7,0.6
					c-2.7-1.2-5.5-2.2-8.4-2.9l0,0c-2.1-0.5-4.1,1.1-4,3.3l0,0c0.2,3,0.6,6,1.3,9c-0.5,1.2-0.9,2.5-1,3.8l0,0
					c-0.9,6.4,4.5,12.1,11.5,12.1h10.8c7,0,12.3-5.7,11.5-12.1l0,0c-0.2-1.3-0.5-2.6-1-3.8c0.7-3,1.1-6,1.3-9l0,0
					C124.2,75.2,122.1,73.6,120,74.1z"/>
				<path class="st13" d="M104.5,92.9v4.8c0,1.3,1.1,2.4,2.4,2.4c1.3,0,2.4-1.1,2.4-2.4v-4.8H104.5z"/>
				<path class="st10" d="M106.9,97.9c-0.4,0-0.7-0.3-0.7-0.7v-4c0-0.4,0.3-0.7,0.7-0.7c0.4,0,0.7,0.3,0.7,0.7v4
					C107.6,97.6,107.3,97.9,106.9,97.9z"/>
				<path class="st11" d="M111,96.3c-3.2,0-4.1-2.2-4.1-3.2c0,1-0.9,3.2-4.1,3.2l-2-5.6H113L111,96.3z"/>
				<path class="st13" d="M119,77.6L119,77.6c-1.3,0.3-2.6,0.8-3.9,1.4c-0.6,0.3-0.7,1-0.3,1.5l0,0c1.1,1.3,2.5,2.4,4,3.3
					c0.6,0.3,1.3,0,1.4-0.6l0,0c0.3-1.3,0.5-2.7,0.6-4.1C120.8,78.1,119.9,77.4,119,77.6z"/>
				<path class="st13" d="M93.1,79.1L93.1,79.1c0.1,1.4,0.3,2.7,0.6,4.1l0,0c0.2,0.6,0.9,0.9,1.4,0.6l0,0c1.5-0.9,2.8-2,4-3.3l0,0
					c0.4-0.5,0.3-1.2-0.3-1.5l0,0c-1.2-0.6-2.5-1-3.9-1.4l0,0C93.9,77.4,93,78.1,93.1,79.1z"/>
				<g>
					<path class="st9" d="M109.4,92.1l-0.6,0.7c-1,1.2-2.8,1.2-3.7,0l-0.6-0.7c-0.3-0.3,0-0.9,0.4-0.9h4.1
						C109.4,91.2,109.7,91.8,109.4,92.1z"/>
					<path class="st9" d="M94.6,93.5c-0.3,0-0.7-0.3-0.7-0.6c0-0.4,0.2-0.7,0.6-0.8l3.9-0.5c0.4,0,0.7,0.2,0.8,0.6
						c0,0.4-0.2,0.7-0.6,0.8L94.6,93.5C94.7,93.5,94.7,93.5,94.6,93.5z"/>
					<path class="st9" d="M96.3,97.7c-0.2,0-0.4-0.1-0.6-0.3c-0.2-0.3-0.2-0.7,0.1-1l3.1-2.4c0.3-0.2,0.7-0.2,1,0.1
						c0.2,0.3,0.2,0.7-0.1,1l-3.1,2.4C96.6,97.6,96.4,97.7,96.3,97.7z"/>
					<path class="st9" d="M119.2,93.5C119.2,93.5,119.2,93.5,119.2,93.5l-4-0.5c-0.4,0-0.7-0.4-0.6-0.8c0-0.4,0.4-0.7,0.8-0.6
						l3.9,0.5c0.4,0,0.7,0.4,0.6,0.8C119.9,93.3,119.6,93.5,119.2,93.5z"/>
					<path class="st9" d="M117.6,97.7c-0.2,0-0.3,0-0.4-0.1l-3.1-2.4c-0.3-0.2-0.4-0.7-0.1-1c0.2-0.3,0.7-0.4,1-0.1l3.1,2.4
						c0.3,0.2,0.4,0.7,0.1,1C118,97.6,117.8,97.7,117.6,97.7z"/>
				</g>
			</g>
		</g>
		<circle class="st9" cx="101.4" cy="86.1" r="4.9"/>
		<g>
			<path class="st11" d="M102.2,88.3c-0.4,0-0.7-0.3-0.7-0.7v-1.1c0-0.4,0.3-0.7,0.7-0.7c0.4,0,0.7,0.3,0.7,0.7v1.1
				C102.9,88,102.6,88.3,102.2,88.3z"/>
			<path class="st9" d="M114.7,88.3c-0.4,0-0.7-0.3-0.7-0.7v-1.1c0-0.4,0.3-0.7,0.7-0.7c0.4,0,0.7,0.3,0.7,0.7v1.1
				C115.4,88,115.1,88.3,114.7,88.3z"/>
		</g>
	</g>
</g>
<g>
	<path class="st11" d="M312,67v246H26V67H312 M312,57H26c-5.5,0-10,4.5-10,10v246c0,5.5,4.5,10,10,10h286c5.5,0,10-4.5,10-10V67
		C322,61.5,317.5,57,312,57L312,57z"/>
</g>
</svg>
