<?xml version="1.0" encoding="utf-8"?>
<!-- Generator: Adobe Illustrator 22.0.1, SVG Export Plug-In . SVG Version: 6.00 Build 0)  -->
<svg version="1.1" id="Layer_1" xmlns="http://www.w3.org/2000/svg" xmlns:xlink="http://www.w3.org/1999/xlink" x="0px" y="0px"
	 viewBox="0 0 336.7 400" style="enable-background:new 0 0 336.7 400;" xml:space="preserve">
<style type="text/css">
	.st0{fill:#8BC53F;}
	.st1{fill:none;}
	.st2{opacity:0.4;}
	.st3{fill:none;stroke:#FFFFFF;stroke-linecap:round;stroke-linejoin:round;stroke-miterlimit:10;}
	.st4{fill:#FFFFFF;}
	.st5{fill:#557C11;}
	.st6{fill:#E7CBAF;}
	.st7{fill:#EEE9E4;}
	.st8{fill:#A0695E;}
	.st9{fill:#7D6262;}
	.st10{fill:#E4AEC0;}
	.st11{fill:none;stroke:#7D6262;stroke-width:0.4173;stroke-linecap:round;stroke-linejoin:round;stroke-miterlimit:10;}
	.st12{fill:#0094CB;}
	.st13{fill:#9FB6D8;}
	.st14{fill:#5E5B68;}
	
		.st15{opacity:0.31;fill:none;stroke:#FFFFFF;stroke-width:0.8346;stroke-linecap:round;stroke-linejoin:round;stroke-miterlimit:10;}
	.st16{fill:#00A56D;}
	.st17{fill:none;stroke:#00A56D;stroke-width:1.252;stroke-linecap:round;stroke-linejoin:round;stroke-miterlimit:10;}
	.st18{fill:#81B941;}
	.st19{fill:#A8CE38;}
</style>
<g>
	<rect x="22.1" y="65.6" class="st0" width="294.4" height="251.4"/>
</g>
<path class="st1" d="M183.7-102.6c0,17-14,31-31,31h-106c-17,0-31-14-31-31v-4c0-17,14-31,31-31h106c17,0,31,14,31,31V-102.6z"/>
<g>
	<g class="st2">
		<line class="st3" x1="169" y1="67" x2="169" y2="313"/>
		<line class="st3" x1="264.3" y1="67" x2="264.3" y2="313"/>
		<line class="st3" x1="121.3" y1="67" x2="121.3" y2="313"/>
		<line class="st3" x1="216.7" y1="67" x2="216.7" y2="313"/>
		<line class="st3" x1="73.7" y1="67" x2="73.7" y2="313"/>
	</g>
	<g class="st2">
		<line class="st3" x1="311.5" y1="168.5" x2="24.5" y2="168.5"/>
		<line class="st3" x1="311.5" y1="263.8" x2="24.5" y2="263.8"/>
		<line class="st3" x1="311.5" y1="120.8" x2="24.5" y2="120.8"/>
		<line class="st3" x1="311.5" y1="216.2" x2="24.5" y2="216.2"/>
	</g>
</g>
<g>
	<path class="st4" d="M312,67v246H26V67H312 M312,57H26c-5.5,0-10,4.5-10,10v246c0,5.5,4.5,10,10,10h286c5.5,0,10-4.5,10-10V67
		C322,61.5,317.5,57,312,57L312,57z"/>
</g>
<g>
	<ellipse class="st5" cx="104.8" cy="131.5" rx="1.4" ry="1.8"/>
	<ellipse class="st5" cx="100.3" cy="134.2" rx="1.4" ry="1.8"/>
	<ellipse class="st5" cx="109.8" cy="131.5" rx="1.4" ry="1.8"/>
	<ellipse class="st5" cx="114.3" cy="134.2" rx="1.4" ry="1.8"/>
	<path class="st5" d="M111.6,137.4c-2,0-1.9-2-4.2-2c-2.3,0-2.2,2-4.2,2c-1.6,0-3.3,2.6-1.9,5c1.4,2.4,3.7,0.7,6.1,0.7
		c2.4,0,4.7,1.6,6.1-0.7C114.9,140,113.1,137.4,111.6,137.4z"/>
</g>
<g>
	<ellipse class="st5" cx="85.1" cy="149.8" rx="1.4" ry="1.8"/>
	<ellipse class="st5" cx="80.6" cy="152.6" rx="1.4" ry="1.8"/>
	<ellipse class="st5" cx="90.2" cy="149.8" rx="1.4" ry="1.8"/>
	<ellipse class="st5" cx="94.7" cy="152.6" rx="1.4" ry="1.8"/>
	<path class="st5" d="M91.9,155.7c-2,0-1.9-2-4.2-2s-2.2,2-4.2,2c-1.6,0-3.3,2.6-1.9,5s3.7,0.7,6.1,0.7s4.7,1.6,6.1-0.7
		C95.2,158.3,93.5,155.7,91.9,155.7z"/>
</g>
<g>
	
		<ellipse transform="matrix(0.4752 -0.8799 0.8799 0.4752 -14.7703 137.1103)" class="st5" cx="107.6" cy="80.9" rx="1.8" ry="1.4"/>
	
		<ellipse transform="matrix(0.4752 -0.8799 0.8799 0.4752 -17.7492 132.6152)" class="st5" cx="102.3" cy="81.2" rx="1.8" ry="1.4"/>
	<ellipse transform="matrix(0.4752 -0.8799 0.8799 0.4752 -14.5514 142.2448)" class="st5" cx="112" cy="83.3" rx="1.8" ry="1.4"/>
	
		<ellipse transform="matrix(0.4752 -0.8799 0.8799 0.4752 -17.1367 146.9773)" class="st5" cx="114.6" cy="87.9" rx="1.8" ry="1.4"/>
	<path class="st5" d="M110.7,89.3c-1.8-1-0.7-2.6-2.8-3.8c-2-1.1-2.9,0.7-4.7-0.3c-1.4-0.7-4.2,0.7-4,3.5s2.9,2.4,5,3.6
		s3.4,3.7,5.7,2.3C112.4,93.2,112.1,90.1,110.7,89.3z"/>
</g>
<g>
	<ellipse transform="matrix(0.3711 -0.9286 0.9286 0.3711 -37.3327 143.4387)" class="st5" cx="87.2" cy="99.3" rx="1.8" ry="1.4"/>
	<ellipse transform="matrix(0.3711 -0.9286 0.9286 0.3711 -41.3899 139.1506)" class="st5" cx="82" cy="100.1" rx="1.8" ry="1.4"/>
	
		<ellipse transform="matrix(0.3711 -0.9286 0.9286 0.3711 -36.1317 148.9348)" class="st5" cx="91.9" cy="101.1" rx="1.8" ry="1.4"/>
	
		<ellipse transform="matrix(0.3711 -0.9286 0.9286 0.3711 -38.0306 154.5244)" class="st5" cx="95.1" cy="105.3" rx="1.8" ry="1.4"/>
	<path class="st5" d="M91.3,107.2c-1.9-0.7-1-2.5-3.2-3.4c-2.2-0.9-2.8,1-4.7,0.3c-1.5-0.6-4.1,1.2-3.6,3.9s3.2,2.1,5.4,3
		c2.2,0.9,3.8,3.3,6,1.6C93.4,110.9,92.8,107.8,91.3,107.2z"/>
</g>
<g>
	
		<ellipse transform="matrix(0.9885 -0.1512 0.1512 0.9885 -13.5977 25.0068)" class="st5" cx="157.7" cy="101.9" rx="1.8" ry="1.4"/>
	<ellipse transform="matrix(0.9885 -0.1512 0.1512 0.9885 -13.0249 24.4511)" class="st5" cx="154.3" cy="97.9" rx="1.8" ry="1.4"/>
	
		<ellipse transform="matrix(0.9885 -0.1512 0.1512 0.9885 -14.3386 25.1784)" class="st5" cx="158.4" cy="106.9" rx="1.8" ry="1.4"/>
	
		<ellipse transform="matrix(0.9885 -0.1512 0.1512 0.9885 -15.0974 24.9312)" class="st5" cx="156.4" cy="111.8" rx="1.8" ry="1.4"/>
	<path class="st5" d="M152.9,109.5c-0.3-2,1.7-2.2,1.3-4.5c-0.4-2.3-2.3-1.9-2.6-3.9c-0.2-1.6-3.1-2.9-5.2-1.1
		c-2.1,1.8-0.2,3.8,0.2,6.2c0.4,2.4-0.9,4.9,1.7,6C150.8,113.2,153.1,111,152.9,109.5z"/>
</g>
<g>
	<ellipse transform="matrix(0.9885 -0.1512 0.1512 0.9885 -10.6131 22.1523)" class="st5" cx="140.4" cy="80.9" rx="1.8" ry="1.4"/>
	<ellipse transform="matrix(0.9885 -0.1512 0.1512 0.9885 -10.0403 21.5966)" class="st5" cx="137" cy="76.8" rx="1.8" ry="1.4"/>
	<ellipse transform="matrix(0.9885 -0.1512 0.1512 0.9885 -11.354 22.3239)" class="st5" cx="141.1" cy="85.8" rx="1.8" ry="1.4"/>
	<ellipse transform="matrix(0.9885 -0.1512 0.1512 0.9885 -12.1128 22.0767)" class="st5" cx="139.1" cy="90.7" rx="1.8" ry="1.4"/>
	<path class="st5" d="M135.6,88.4c-0.3-2,1.7-2.2,1.3-4.5s-2.3-1.9-2.6-3.9c-0.2-1.6-3.1-2.9-5.2-1.1c-2.1,1.8-0.2,3.8,0.2,6.2
		c0.4,2.4-0.9,4.9,1.7,6C133.5,92.1,135.8,90,135.6,88.4z"/>
</g>
<g>
	<ellipse transform="matrix(0.7037 -0.7105 0.7105 0.7037 -12.9763 160.8876)" class="st5" cx="186.4" cy="96" rx="1.4" ry="1.8"/>
	<ellipse transform="matrix(0.7037 -0.7105 0.7105 0.7037 -8.9744 160.2539)" class="st5" cx="187.7" cy="90.9" rx="1.4" ry="1.8"/>
	
		<ellipse transform="matrix(0.7037 -0.7105 0.7105 0.7037 -16.5541 159.4355)" class="st5" cx="182.9" cy="99.6" rx="1.4" ry="1.8"/>
	
		<ellipse transform="matrix(0.7037 -0.7105 0.7105 0.7037 -18.9822 156.192)" class="st5" cx="177.8" cy="100.9" rx="1.4" ry="1.8"/>
	<path class="st5" d="M177.5,96.7c1.4-1.4,2.7,0,4.4-1.6c1.6-1.7,0.2-3,1.6-4.4c1.1-1.1,0.5-4.2-2.2-4.9c-2.7-0.7-3.2,2.1-4.8,3.8
		c-1.7,1.7-4.5,2.2-3.8,4.9C173.3,97.2,176.4,97.8,177.5,96.7z"/>
</g>
<g>
	<ellipse transform="matrix(0.7037 -0.7105 0.7105 0.7037 -5.8168 177.8723)" class="st5" cx="210.4" cy="95.9" rx="1.4" ry="1.8"/>
	<ellipse transform="matrix(0.7037 -0.7105 0.7105 0.7037 -1.815 177.2385)" class="st5" cx="211.6" cy="90.8" rx="1.4" ry="1.8"/>
	<ellipse transform="matrix(0.7037 -0.7105 0.7105 0.7037 -9.3946 176.4201)" class="st5" cx="206.8" cy="99.5" rx="1.4" ry="1.8"/>
	
		<ellipse transform="matrix(0.7037 -0.7105 0.7105 0.7037 -11.8228 173.1766)" class="st5" cx="201.7" cy="100.8" rx="1.4" ry="1.8"/>
	<path class="st5" d="M201.4,96.6c1.4-1.4,2.7,0,4.4-1.6c1.6-1.7,0.2-3,1.6-4.4c1.1-1.1,0.5-4.2-2.2-4.9c-2.7-0.7-3.2,2.1-4.8,3.8
		c-1.7,1.7-4.5,2.2-3.8,4.9C197.2,97.1,200.3,97.7,201.4,96.6z"/>
</g>
<g>
	<ellipse transform="matrix(1 -4.756655e-03 4.756655e-03 1 -0.752 0.974)" class="st5" cx="204.4" cy="158.6" rx="1.4" ry="1.8"/>
	
		<ellipse transform="matrix(1 -4.756609e-03 4.756609e-03 1 -0.7389 0.9954)" class="st5" cx="208.9" cy="155.8" rx="1.4" ry="1.8"/>
	
		<ellipse transform="matrix(1 -4.756655e-03 4.756655e-03 1 -0.7522 0.9502)" class="st5" cx="199.4" cy="158.6" rx="1.4" ry="1.8"/>
	
		<ellipse transform="matrix(1 -4.756655e-03 4.756655e-03 1 -0.7394 0.9286)" class="st5" cx="194.9" cy="155.9" rx="1.4" ry="1.8"/>
	<path class="st5" d="M197.6,152.7c2,0,1.9,2,4.2,2s2.2-2,4.2-2c1.6,0,3.3-2.6,1.9-5s-3.7-0.7-6.1-0.7c-2.4,0-4.7-1.6-6.1,0.8
		C194.3,150.1,196,152.7,197.6,152.7z"/>
</g>
<g>
	<ellipse transform="matrix(1 -4.756655e-03 4.756655e-03 1 -0.6571 0.885)" class="st5" cx="185.7" cy="138.6" rx="1.4" ry="1.8"/>
	<ellipse transform="matrix(1 -4.756609e-03 4.756609e-03 1 -0.644 0.9063)" class="st5" cx="190.2" cy="135.8" rx="1.4" ry="1.8"/>
	
		<ellipse transform="matrix(1 -4.756655e-03 4.756655e-03 1 -0.6573 0.8611)" class="st5" cx="180.7" cy="138.6" rx="1.4" ry="1.8"/>
	
		<ellipse transform="matrix(1 -4.756655e-03 4.756655e-03 1 -0.6445 0.8396)" class="st5" cx="176.2" cy="135.9" rx="1.4" ry="1.8"/>
	<path class="st5" d="M179,132.7c2,0,1.9,2,4.2,2s2.2-2,4.2-2c1.6,0,3.3-2.6,1.9-5c-1.4-2.4-3.7-0.7-6.1-0.7c-2.4,0-4.7-1.6-6.1,0.8
		C175.6,130.1,177.4,132.7,179,132.7z"/>
</g>
<g>
	
		<ellipse transform="matrix(0.9179 -0.3969 0.3969 0.9179 -64.3667 98.6733)" class="st5" cx="206.2" cy="204.8" rx="1.4" ry="1.8"/>
	
		<ellipse transform="matrix(0.9179 -0.3969 0.3969 0.9179 -62.4152 99.5354)" class="st5" cx="209.3" cy="200.6" rx="1.4" ry="1.8"/>
	
		<ellipse transform="matrix(0.9179 -0.3969 0.3969 0.9179 -65.5351 97.0094)" class="st5" cx="201.6" cy="206.8" rx="1.4" ry="1.8"/>
	
		<ellipse transform="matrix(0.9179 -0.3969 0.3969 0.9179 -65.6835 94.8812)" class="st5" cx="196.4" cy="206.1" rx="1.4" ry="1.8"/>
	<path class="st5" d="M197.7,202.1c1.8-0.8,2.5,1.1,4.7,0.1c2.1-0.9,1.3-2.7,3.1-3.5c1.4-0.6,2-3.7-0.2-5.3
		c-2.3-1.6-3.7,0.8-5.9,1.8c-2.2,1-5,0.4-5.3,3.1C193.6,201.1,196.2,202.8,197.7,202.1z"/>
</g>
<g>
	
		<ellipse transform="matrix(0.9512 -0.3085 0.3085 0.9512 -48.0188 66.7816)" class="st5" cx="187.2" cy="185.2" rx="1.4" ry="1.8"/>
	
		<ellipse transform="matrix(0.9512 -0.3085 0.3085 0.9512 -46.6239 67.6517)" class="st5" cx="190.6" cy="181.3" rx="1.4" ry="1.8"/>
	<ellipse transform="matrix(0.9512 -0.3085 0.3085 0.9512 -48.729 65.385)" class="st5" cx="182.4" cy="186.8" rx="1.4" ry="1.8"/>
	
		<ellipse transform="matrix(0.9512 -0.3085 0.3085 0.9512 -48.6105 63.7452)" class="st5" cx="177.3" cy="185.6" rx="1.4" ry="1.8"/>
	<path class="st5" d="M178.9,181.7c1.9-0.6,2.4,1.3,4.6,0.6c2.2-0.7,1.5-2.6,3.4-3.2c1.5-0.5,2.4-3.5,0.3-5.3
		c-2.1-1.8-3.8,0.5-6.1,1.2c-2.3,0.7-5-0.1-5.6,2.6C175,180.3,177.4,182.2,178.9,181.7z"/>
</g>
<g>
	<ellipse transform="matrix(0.774 -0.6332 0.6332 0.774 -111.4489 187.6803)" class="st5" cx="207.2" cy="250" rx="1.4" ry="1.8"/>
	<ellipse transform="matrix(0.774 -0.6332 0.6332 0.774 -107.91 187.6791)" class="st5" cx="209" cy="245" rx="1.4" ry="1.8"/>
	
		<ellipse transform="matrix(0.774 -0.6332 0.6332 0.774 -114.3375 185.9398)" class="st5" cx="203.3" cy="253.1" rx="1.4" ry="1.8"/>
	
		<ellipse transform="matrix(0.774 -0.6332 0.6332 0.774 -115.9902 182.8105)" class="st5" cx="198.1" cy="253.9" rx="1.4" ry="1.8"/>
	<path class="st5" d="M198.2,249.7c1.6-1.3,2.7,0.3,4.5-1.2c1.8-1.5,0.5-2.9,2-4.2c1.2-1,0.9-4.1-1.7-5.1s-3.4,1.8-5.2,3.3
		c-1.9,1.5-4.7,1.7-4.3,4.5C194,249.8,197,250.7,198.2,249.7z"/>
</g>
<g>
	
		<ellipse transform="matrix(0.8419 -0.5396 0.5396 0.8419 -96.0583 138.6007)" class="st5" cx="188.5" cy="233.2" rx="1.4" ry="1.8"/>
	
		<ellipse transform="matrix(0.8419 -0.5396 0.5396 0.8419 -93.1428 139.1107)" class="st5" cx="190.8" cy="228.5" rx="1.4" ry="1.8"/>
	
		<ellipse transform="matrix(0.8419 -0.5396 0.5396 0.8419 -98.1868 136.7497)" class="st5" cx="184.3" cy="235.9" rx="1.4" ry="1.8"/>
	<ellipse transform="matrix(0.8419 -0.5396 0.5396 0.8419 -99.0964 133.9332)" class="st5" cx="179" cy="236.1" rx="1.4" ry="1.8"/>
	<path class="st5" d="M179.7,231.9c1.7-1.1,2.7,0.6,4.6-0.6c2-1.3,0.8-2.9,2.5-4c1.3-0.8,1.4-4-1.1-5.2c-2.5-1.2-3.5,1.4-5.6,2.7
		c-2,1.3-4.8,1.2-4.8,3.9C175.4,231.5,178.3,232.8,179.7,231.9z"/>
</g>
<g>
	
		<ellipse transform="matrix(0.2594 -0.9658 0.9658 0.2594 -48.6555 395.3226)" class="st5" cx="233.4" cy="229.4" rx="1.4" ry="1.8"/>
	<ellipse transform="matrix(0.2594 -0.9658 0.9658 0.2594 -44.8483 390.1708)" class="st5" cx="232" cy="224.3" rx="1.4" ry="1.8"/>
	
		<ellipse transform="matrix(0.2594 -0.9658 0.9658 0.2594 -54.2979 397.6535)" class="st5" cx="232.1" cy="234.2" rx="1.4" ry="1.8"/>
	
		<ellipse transform="matrix(0.2594 -0.9658 0.9658 0.2594 -60.6311 396.6907)" class="st5" cx="228.3" cy="237.9" rx="1.4" ry="1.8"/>
	<path class="st5" d="M226,234.4c0.5-1.9,2.4-1.3,3-3.6c0.6-2.2-1.3-2.7-0.8-4.6c0.4-1.5-1.7-3.9-4.3-3.1c-2.7,0.8-1.7,3.4-2.3,5.7
		c-0.6,2.3-2.8,4.1-0.9,6.1C222.6,236.9,225.6,235.9,226,234.4z"/>
</g>
<g>
	<path class="st6" d="M82.7,193.8l1.4,16.7c0.1,1.1,1,2,2.1,2h5.5c0.6,0,1.1-0.5,1.1-1.1v-0.8c0-0.8-0.5-1.5-1.2-1.9l-3.1-1.5
		c0,0,0-8,5-16.4L82.7,193.8z"/>
	<path class="st6" d="M103.6,192.1l6.5,18.6c0.1,1.1,1,2,2.1,2h5.5c0.6,0,1.1-0.5,1.1-1.1v-0.8c0-0.8-0.5-1.5-1.2-1.9l-3.1-1.5
		c0,0-3.6-10.8,1.4-19.3L103.6,192.1z"/>
	<g>
		<path class="st7" d="M70.3,173.2c0,4.7,3.6,7.8,5.7,9.1l2.3-4.2c-7.2-4.4-3-12.5-0.8-15.9c0.3-0.4-0.2-0.9-0.6-0.6
			C72.9,164.3,70.3,169.3,70.3,173.2z"/>
		<path class="st7" d="M71.6,198c-0.2,0.2-0.2,0.5-0.2,0.8l1.8,12.2c0.2,1,1.1,1.8,2.1,1.8H81c0.6,0,1.1-0.5,1.1-1.1V211
			c0-0.9-0.5-1.7-1.3-2l-4-1.6v-7.3c0,0,6.3-1.3,10.9-7.7c4.5,2.2,11.6,3.3,17.3,1.7l1.4,16.7c0.1,1.1,1,2,2.1,2h5.5
			c0.6,0,1.1-0.5,1.1-1.1v-0.8c0-0.8-0.5-1.5-1.2-1.9l-3.1-1.5c0,0,0-8,5-16.4c1.6-2.7,2.8-5.1,3.6-7.1l1.2-3.2
			c0.8-2.6,1.1-4.8,1.1-6.3c0-0.5,0.5-0.9,1-0.9c3.2,0,6-0.7,7.6-1.2c0.8-0.2,1.3-0.9,1.5-1.7l0.2-1.4c0.9-0.1,1.7-0.8,1.8-1.7
			l0.4-1.9c0.1-0.5-0.2-1.1-0.8-1.2l-6.7-1.9l-2.7-2.5c-1.2-1.1-2.8-1.7-4.4-1.7h-2.9c-3.6,0-7.3,4.4-8.3,6.5
			c-0.6,1.3-0.8,3-0.4,4.5l-0.1,0.1l-1,1.3c-0.7,1-1.8,1.6-3,1.7l-19.8,2.1c-4.9,0.5-8.6,4.6-8.6,9.6v6c0,1.6-0.5,3.1-1.4,4.4
			L71.6,198z"/>
		<path class="st6" d="M104.9,194.1l-0.2-3.5c-0.1-1.4-1.3-2.3-2.7-2c-3,0.6-6.1,1.4-11.1,0.3c-0.8-0.2-1.7,0.3-2,1
			c-0.3,0.7-0.7,1.6-1.3,2.5C92.1,194.5,99.2,195.6,104.9,194.1z"/>
		<path class="st8" d="M133.4,164.5l-1-0.3c-0.4,0.3-0.7,0.8-0.7,1.3c0,1,0.9,1.8,1.9,1.8c0.1,0,0.1,0,0.2,0l0.3-1.6
			C134.3,165.1,134,164.6,133.4,164.5z"/>
		<path class="st9" d="M120.3,181.7c-0.3-0.1-8.1-1.9-14.9-9.5c-0.4-0.4-0.4-1.1,0-1.5c0.4-0.4,1-0.4,1.4,0
			c6.3,7.1,13.8,8.9,13.9,8.9c0.5,0.1,0.9,0.7,0.8,1.3c-0.1,0.5-0.5,0.8-1,0.8C120.4,181.8,120.3,181.7,120.3,181.7z"/>
		<path class="st10" d="M129.1,170.6c0,0,1.4,2.9,3.4,1.7c0,0,0.9-1.2-0.6-2.8C131.8,169.5,131.6,170.2,129.1,170.6z"/>
		<path class="st11" d="M132,169.3c0,0-3.3,2.7-6.4,0.2"/>
		<path class="st12" d="M118.2,167.1l-0.8,1.4c-0.2,0.4-0.1,0.9,0.3,1.2l0.1,0c0.4,0.2,0.9,0.1,1.2-0.3l0.8-1.4
			c0.2-0.4,0.1-0.9-0.3-1.1l0,0C119,166.6,118.5,166.7,118.2,167.1z"/>
		<path class="st12" d="M115.6,163.7c0,0,2,3.9,5,4.8c0,0,4.7-5.2,7.8-5.5c0,0-1-3-4.2-4C122.7,158.6,118.1,158.3,115.6,163.7z"/>
		<path class="st13" d="M117.1,163.3c0,0,1.6,3.1,4,3.8c0,0,3.8-4.1,6.2-4.4c0,0-0.8-2.4-3.3-3.2
			C122.9,159.1,119.1,158.9,117.1,163.3z"/>
		<path class="st14" d="M121.5,163.2c0-0.5,0.4-0.8,0.8-0.8h0c0.5,0,0.8,0.4,0.8,0.8c0,0.5-0.4,0.8-0.9,0.8
			C121.8,164.1,121.5,163.7,121.5,163.2z"/>
		<path class="st6" d="M112.5,172c4.3-0.5,3.7-5.8,5.1-8.5c0.4-0.8,0.5-1.6,0.2-2.4l0,0c-0.7-1.8-2.8-2.5-4.4-1.5
			c-2.3,1.5-4.1,3.9-4.8,5.4C107.2,167.5,107.7,172.5,112.5,172z"/>
		<path class="st15" d="M122.7,160c0,0,2.1,0,3.5,2.4"/>
		<path class="st16" d="M84.3,174.5c-0.6,0.3-8.2,13.4,10.2,11.8s10.9-14,10.9-14S91.1,171.3,84.3,174.5z"/>
		<path class="st17" d="M105.4,180.7c0,0,7.4,5.7,13.5,4.9"/>
		<path class="st17" d="M91.7,186.3c0,0,0.4,5.7,2.4,8.6"/>
		<path class="st17" d="M95.8,186c0,0,0.3,8.1,3.3,9.5"/>
	</g>
</g>
<path class="st4" d="M254.1,252c0.9-0.7,1.4-1.8,1.4-3c0-2.2-1.8-3.9-3.9-3.9c-1.9,0-3.5,1.4-3.9,3.2h-12.9c-0.4-1.8-2-3.2-3.9-3.2
	c-2.2,0-3.9,1.8-3.9,3.9c0,1.2,0.6,2.3,1.4,3c-0.9,0.7-1.4,1.8-1.4,3c0,2.2,1.8,3.9,3.9,3.9c1.9,0,3.4-1.3,3.8-3h13
	c0.4,1.7,2,3,3.8,3c2.2,0,3.9-1.8,3.9-3.9C255.5,253.8,254.9,252.7,254.1,252z"/>
<path class="st4" d="M257.8,237.7c0.9-0.1,1.7-0.5,2.3-1.2c1-1.4,0.7-3.3-0.6-4.3c-1.2-0.9-2.8-0.8-3.9,0.2l-8.1-6
	c0.6-1.3,0.2-2.9-1-3.8c-1.4-1-3.3-0.7-4.3,0.6c-0.6,0.8-0.7,1.7-0.5,2.5c-0.9,0.1-1.7,0.5-2.3,1.2c-1,1.4-0.7,3.3,0.6,4.3
	c1.2,0.9,2.7,0.8,3.8-0.1l8.1,6c-0.5,1.3-0.2,2.8,1,3.7c1.4,1,3.3,0.7,4.3-0.6C257.8,239.5,258,238.6,257.8,237.7z"/>
<g>
	<circle class="st18" cx="54.2" cy="148.3" r="2.3"/>
</g>
<g>
	<circle class="st18" cx="51.6" cy="87.1" r="2.3"/>
</g>
<g>
	<circle class="st19" cx="59.3" cy="97.5" r="2.3"/>
</g>
<g>
	<circle class="st19" cx="46.8" cy="106.5" r="2.3"/>
</g>
<g>
	<path class="st18" d="M66.6,126.7c-0.7,0-1.3,0.6-1.3,1.3c0,0.7,0.6,1.3,1.3,1.3s1.3-0.6,1.3-1.3S67.4,126.7,66.6,126.7
		 M66.6,125.7c1.3,0,2.3,1,2.3,2.3s-1,2.3-2.3,2.3s-2.3-1-2.3-2.3S65.4,125.7,66.6,125.7L66.6,125.7z"/>
</g>
<g>
	<circle class="st18" cx="42.4" cy="125.6" r="2.3"/>
</g>
<g>
	<circle class="st18" cx="54.2" cy="218.4" r="2.3"/>
</g>
<g>
	<circle class="st18" cx="44.3" cy="152.7" r="2.3"/>
</g>
<g>
	<circle class="st19" cx="62" cy="176" r="2.3"/>
</g>
<g>
	<circle class="st19" cx="51.9" cy="185.7" r="2.3"/>
</g>
<g>
	<circle class="st19" cx="148.7" cy="183" r="2.3"/>
</g>
<g>
	<path class="st18" d="M63,194.9c-0.7,0-1.3,0.6-1.3,1.3s0.6,1.3,1.3,1.3s1.3-0.6,1.3-1.3S63.7,194.9,63,194.9 M63,193.9
		c1.3,0,2.3,1,2.3,2.3s-1,2.3-2.3,2.3s-2.3-1-2.3-2.3S61.7,193.9,63,193.9L63,193.9z"/>
</g>
<g>
	<path class="st18" d="M39.6,176.8c-0.7,0-1.3,0.6-1.3,1.3s0.6,1.3,1.3,1.3s1.3-0.6,1.3-1.3S40.4,176.8,39.6,176.8 M39.6,175.8
		c1.3,0,2.3,1,2.3,2.3s-1,2.3-2.3,2.3s-2.3-1-2.3-2.3S38.4,175.8,39.6,175.8L39.6,175.8z"/>
</g>
<g>
	<circle class="st19" cx="136.7" cy="175.6" r="2.3"/>
</g>
<g>
	<circle class="st18" cx="42.4" cy="195.7" r="2.3"/>
</g>
<g>
	<path class="st18" d="M63.7,150.7c-0.7,0-1.3,0.6-1.3,1.3s0.6,1.3,1.3,1.3s1.3-0.6,1.3-1.3S64.4,150.7,63.7,150.7 M63.7,149.7
		c1.3,0,2.3,1,2.3,2.3s-1,2.3-2.3,2.3s-2.3-1-2.3-2.3S62.4,149.7,63.7,149.7L63.7,149.7z"/>
</g>
<g>
	<path class="st18" d="M137,135.4c-0.7,0-1.3,0.6-1.3,1.3s0.6,1.3,1.3,1.3s1.3-0.6,1.3-1.3S137.7,135.4,137,135.4 M137,134.4
		c1.3,0,2.3,1,2.3,2.3s-1,2.3-2.3,2.3s-2.3-1-2.3-2.3S135.7,134.4,137,134.4L137,134.4z"/>
</g>
<g>
	<circle class="st19" cx="132" cy="204.5" r="2.3"/>
</g>
<g>
	<circle class="st19" cx="160.8" cy="188.1" r="2.3"/>
</g>
<g>
	<circle class="st19" cx="145.7" cy="151" r="2.3"/>
</g>
<g>
	<circle class="st19" cx="159.8" cy="148.1" r="2.3"/>
</g>
<g>
	<circle class="st19" cx="153.4" cy="206.3" r="2.3"/>
</g>
<g>
	<path class="st18" d="M142.7,206c-0.7,0-1.3,0.6-1.3,1.3s0.6,1.3,1.3,1.3c0.7,0,1.3-0.6,1.3-1.3S143.5,206,142.7,206 M142.7,205
		c1.3,0,2.3,1,2.3,2.3s-1,2.3-2.3,2.3s-2.3-1-2.3-2.3S141.5,205,142.7,205L142.7,205z"/>
</g>
<g>
	<path class="st18" d="M134.7,191.7c-0.7,0-1.3,0.6-1.3,1.3s0.6,1.3,1.3,1.3c0.7,0,1.3-0.6,1.3-1.3S135.4,191.7,134.7,191.7
		 M134.7,190.7c1.3,0,2.3,1,2.3,2.3s-1,2.3-2.3,2.3s-2.3-1-2.3-2.3S133.4,190.7,134.7,190.7L134.7,190.7z"/>
</g>
<g>
	<circle class="st18" cx="52.2" cy="296.1" r="2.3"/>
</g>
<g>
	<circle class="st18" cx="51.6" cy="230.7" r="2.3"/>
</g>
<g>
	<circle class="st19" cx="59.3" cy="241" r="2.3"/>
</g>
<g>
	<circle class="st19" cx="51.9" cy="259.2" r="2.3"/>
</g>
<g>
	<circle class="st19" cx="101" cy="248.3" r="2.3"/>
</g>
<g>
	<path class="st18" d="M62.1,280.6c-0.7,0-1.3,0.6-1.3,1.3s0.6,1.3,1.3,1.3c0.7,0,1.3-0.6,1.3-1.3S62.8,280.6,62.1,280.6
		 M62.1,279.6c1.3,0,2.3,1,2.3,2.3s-1,2.3-2.3,2.3c-1.3,0-2.3-1-2.3-2.3S60.8,279.6,62.1,279.6L62.1,279.6z"/>
</g>
<g>
	<path class="st18" d="M44,244.5c-0.7,0-1.3,0.6-1.3,1.3s0.6,1.3,1.3,1.3s1.3-0.6,1.3-1.3S44.7,244.5,44,244.5 M44,243.5
		c1.3,0,2.3,1,2.3,2.3s-1,2.3-2.3,2.3s-2.3-1-2.3-2.3S42.7,243.5,44,243.5L44,243.5z"/>
</g>
<g>
	<circle class="st19" cx="96.1" cy="228.8" r="2.3"/>
</g>
<g>
	<circle class="st19" cx="88.7" cy="247" r="2.3"/>
</g>
<g>
	<circle class="st18" cx="42.4" cy="269.1" r="2.3"/>
</g>
<g>
	<path class="st18" d="M64,226.9c-0.7,0-1.3,0.6-1.3,1.3s0.6,1.3,1.3,1.3c0.7,0,1.3-0.6,1.3-1.3S64.7,226.9,64,226.9 M64,225.9
		c1.3,0,2.3,1,2.3,2.3s-1,2.3-2.3,2.3s-2.3-1-2.3-2.3S62.7,225.9,64,225.9L64,225.9z"/>
</g>
<g>
	<path class="st18" d="M111.5,236.3c-0.7,0-1.3,0.6-1.3,1.3s0.6,1.3,1.3,1.3s1.3-0.6,1.3-1.3S112.2,236.3,111.5,236.3 M111.5,235.3
		c1.3,0,2.3,1,2.3,2.3s-1,2.3-2.3,2.3s-2.3-1-2.3-2.3S110.2,235.3,111.5,235.3L111.5,235.3z"/>
</g>
<g>
	<circle class="st19" cx="81.7" cy="280.7" r="2.3"/>
</g>
<g>
	<circle class="st19" cx="84" cy="236.7" r="2.3"/>
</g>
<g>
	<circle class="st19" cx="101.7" cy="277" r="2.3"/>
</g>
<g>
	<path class="st18" d="M65.5,298c-0.7,0-1.3,0.6-1.3,1.3s0.6,1.3,1.3,1.3s1.3-0.6,1.3-1.3S66.2,298,65.5,298 M65.5,297
		c1.3,0,2.3,1,2.3,2.3s-1,2.3-2.3,2.3s-2.3-1-2.3-2.3S64.2,297,65.5,297L65.5,297z"/>
</g>
<g>
	<path class="st18" d="M91.6,296.1c-0.7,0-1.3,0.6-1.3,1.3s0.6,1.3,1.3,1.3s1.3-0.6,1.3-1.3S92.3,296.1,91.6,296.1 M91.6,295.1
		c1.3,0,2.3,1,2.3,2.3s-1,2.3-2.3,2.3s-2.3-1-2.3-2.3S90.3,295.1,91.6,295.1L91.6,295.1z"/>
</g>
<g>
	<circle class="st18" cx="141.1" cy="230.7" r="2.3"/>
</g>
<g>
	<circle class="st19" cx="148.8" cy="241" r="2.3"/>
</g>
<g>
	<path class="st18" d="M144.8,254.2c-0.7,0-1.3,0.6-1.3,1.3c0,0.7,0.6,1.3,1.3,1.3s1.3-0.6,1.3-1.3
		C146.1,254.8,145.6,254.2,144.8,254.2 M144.8,253.2c1.3,0,2.3,1,2.3,2.3c0,1.3-1,2.3-2.3,2.3s-2.3-1-2.3-2.3
		C142.5,254.2,143.6,253.2,144.8,253.2L144.8,253.2z"/>
</g>
<g>
	<path class="st18" d="M159.5,232.4c-0.7,0-1.3,0.6-1.3,1.3s0.6,1.3,1.3,1.3s1.3-0.6,1.3-1.3S160.2,232.4,159.5,232.4 M159.5,231.4
		c1.3,0,2.3,1,2.3,2.3s-1,2.3-2.3,2.3s-2.3-1-2.3-2.3S158.2,231.4,159.5,231.4L159.5,231.4z"/>
</g>
<g>
	<circle class="st18" cx="274.8" cy="185.2" r="2.3"/>
</g>
<g>
	<circle class="st19" cx="282.5" cy="195.5" r="2.3"/>
</g>
<g>
	<path class="st18" d="M297.9,203c-0.7,0-1.3,0.6-1.3,1.3s0.6,1.3,1.3,1.3s1.3-0.6,1.3-1.3S298.6,203,297.9,203 M297.9,202
		c1.3,0,2.3,1,2.3,2.3s-1,2.3-2.3,2.3s-2.3-1-2.3-2.3S296.6,202,297.9,202L297.9,202z"/>
</g>
<g>
	<path class="st18" d="M293.2,186.9c-0.7,0-1.3,0.6-1.3,1.3s0.6,1.3,1.3,1.3s1.3-0.6,1.3-1.3S293.9,186.9,293.2,186.9 M293.2,185.9
		c1.3,0,2.3,1,2.3,2.3s-1,2.3-2.3,2.3s-2.3-1-2.3-2.3S291.9,185.9,293.2,185.9L293.2,185.9z"/>
</g>
<g>
	<circle class="st18" cx="273.8" cy="155.7" r="2.3"/>
</g>
<g>
	<circle class="st19" cx="301.5" cy="146" r="2.3"/>
</g>
<g>
	<path class="st18" d="M296.9,173.5c-0.7,0-1.3,0.6-1.3,1.3s0.6,1.3,1.3,1.3s1.3-0.6,1.3-1.3S297.6,173.5,296.9,173.5 M296.9,172.5
		c1.3,0,2.3,1,2.3,2.3s-1,2.3-2.3,2.3s-2.3-1-2.3-2.3S295.6,172.5,296.9,172.5L296.9,172.5z"/>
</g>
<g>
	<path class="st18" d="M292.2,157.4c-0.7,0-1.3,0.6-1.3,1.3s0.6,1.3,1.3,1.3s1.3-0.6,1.3-1.3S292.9,157.4,292.2,157.4 M292.2,156.4
		c1.3,0,2.3,1,2.3,2.3s-1,2.3-2.3,2.3s-2.3-1-2.3-2.3S290.9,156.4,292.2,156.4L292.2,156.4z"/>
</g>
<g>
	<circle class="st18" cx="235" cy="86" r="2.3"/>
</g>
<g>
	<circle class="st19" cx="242.7" cy="96.3" r="2.3"/>
</g>
<g>
	<circle class="st19" cx="241.7" cy="113.7" r="2.3"/>
</g>
<g>
	<circle class="st19" cx="286.3" cy="107" r="2.3"/>
</g>
<g>
	<path class="st18" d="M258.1,103.8c-0.7,0-1.3,0.6-1.3,1.3s0.6,1.3,1.3,1.3s1.3-0.6,1.3-1.3S258.8,103.8,258.1,103.8 M258.1,102.8
		c1.3,0,2.3,1,2.3,2.3s-1,2.3-2.3,2.3s-2.3-1-2.3-2.3S256.8,102.8,258.1,102.8L258.1,102.8z"/>
</g>
<g>
	<circle class="st19" cx="279.5" cy="84.2" r="2.3"/>
</g>
<g>
	<circle class="st19" cx="274.7" cy="98.5" r="2.3"/>
</g>
<g>
	<path class="st18" d="M253.4,87.7c-0.7,0-1.3,0.6-1.3,1.3s0.6,1.3,1.3,1.3s1.3-0.6,1.3-1.3S254.1,87.7,253.4,87.7 M253.4,86.7
		c1.3,0,2.3,1,2.3,2.3s-1,2.3-2.3,2.3s-2.3-1-2.3-2.3S252.1,86.7,253.4,86.7L253.4,86.7z"/>
</g>
<g>
	<path class="st18" d="M294.9,91.7c-0.7,0-1.3,0.6-1.3,1.3s0.6,1.3,1.3,1.3s1.3-0.6,1.3-1.3S295.6,91.7,294.9,91.7 M294.9,90.7
		c1.3,0,2.3,1,2.3,2.3s-1,2.3-2.3,2.3s-2.3-1-2.3-2.3S293.6,90.7,294.9,90.7L294.9,90.7z"/>
</g>
<g>
	<circle class="st19" cx="229.6" cy="103.3" r="2.3"/>
</g>
<g>
	<circle class="st19" cx="296.2" cy="114.9" r="2.3"/>
</g>
<g>
	<circle class="st19" cx="288.8" cy="133" r="2.3"/>
</g>
<g>
	<path class="st18" d="M278.1,138.1c-0.7,0-1.3,0.6-1.3,1.3s0.6,1.3,1.3,1.3s1.3-0.6,1.3-1.3S278.9,138.1,278.1,138.1 M278.1,137.1
		c1.3,0,2.3,1,2.3,2.3s-1,2.3-2.3,2.3s-2.3-1-2.3-2.3S276.9,137.1,278.1,137.1L278.1,137.1z"/>
</g>
<g>
	<circle class="st18" cx="229.1" cy="185.2" r="2.3"/>
</g>
<g>
	<circle class="st19" cx="236.8" cy="195.5" r="2.3"/>
</g>
<g>
	<path class="st18" d="M252.2,203c-0.7,0-1.3,0.6-1.3,1.3s0.6,1.3,1.3,1.3s1.3-0.6,1.3-1.3S252.9,203,252.2,203 M252.2,202
		c1.3,0,2.3,1,2.3,2.3s-1,2.3-2.3,2.3s-2.3-1-2.3-2.3S250.9,202,252.2,202L252.2,202z"/>
</g>
<g>
	<path class="st18" d="M247.5,186.9c-0.7,0-1.3,0.6-1.3,1.3s0.6,1.3,1.3,1.3s1.3-0.6,1.3-1.3S248.2,186.9,247.5,186.9 M247.5,185.9
		c1.3,0,2.3,1,2.3,2.3s-1,2.3-2.3,2.3s-2.3-1-2.3-2.3S246.2,185.9,247.5,185.9L247.5,185.9z"/>
</g>
<g>
	<circle class="st18" cx="228.1" cy="155.7" r="2.3"/>
</g>
<g>
	<circle class="st19" cx="255.8" cy="146" r="2.3"/>
</g>
<g>
	<path class="st18" d="M251.2,173.5c-0.7,0-1.3,0.6-1.3,1.3s0.6,1.3,1.3,1.3s1.3-0.6,1.3-1.3S251.9,173.5,251.2,173.5 M251.2,172.5
		c1.3,0,2.3,1,2.3,2.3s-1,2.3-2.3,2.3s-2.3-1-2.3-2.3S249.9,172.5,251.2,172.5L251.2,172.5z"/>
</g>
<g>
	<path class="st18" d="M246.5,157.4c-0.7,0-1.3,0.6-1.3,1.3s0.6,1.3,1.3,1.3s1.3-0.6,1.3-1.3S247.2,157.4,246.5,157.4 M246.5,156.4
		c1.3,0,2.3,1,2.3,2.3s-1,2.3-2.3,2.3s-2.3-1-2.3-2.3S245.2,156.4,246.5,156.4L246.5,156.4z"/>
</g>
<g>
	<circle class="st19" cx="243.1" cy="133" r="2.3"/>
</g>
<g>
	<path class="st18" d="M232.4,138.1c-0.7,0-1.3,0.6-1.3,1.3s0.6,1.3,1.3,1.3s1.3-0.6,1.3-1.3S233.2,138.1,232.4,138.1 M232.4,137.1
		c1.3,0,2.3,1,2.3,2.3s-1,2.3-2.3,2.3s-2.3-1-2.3-2.3S231.2,137.1,232.4,137.1L232.4,137.1z"/>
</g>
<g>
	<circle class="st19" cx="291" cy="250.5" r="2.3"/>
</g>
<g>
	<circle class="st19" cx="286" cy="232.7" r="2.3"/>
</g>
<g>
	<circle class="st19" cx="278.6" cy="250.8" r="2.3"/>
</g>
<g>
	<path class="st18" d="M301.4,240.2c-0.7,0-1.3,0.6-1.3,1.3s0.6,1.3,1.3,1.3s1.3-0.6,1.3-1.3S302.1,240.2,301.4,240.2 M301.4,239.2
		c1.3,0,2.3,1,2.3,2.3s-1,2.3-2.3,2.3s-2.3-1-2.3-2.3S300.1,239.2,301.4,239.2L301.4,239.2z"/>
</g>
<g>
	<circle class="st19" cx="258.7" cy="285.8" r="2.3"/>
</g>
<g>
	<circle class="st19" cx="298" cy="270.4" r="2.3"/>
</g>
<g>
	<circle class="st19" cx="288.2" cy="290.9" r="2.3"/>
</g>
<g>
	<path class="st18" d="M278.5,296.9c-0.7,0-1.3,0.6-1.3,1.3s0.6,1.3,1.3,1.3s1.3-0.6,1.3-1.3S279.2,296.9,278.5,296.9 M278.5,295.9
		c1.3,0,2.3,1,2.3,2.3s-1,2.3-2.3,2.3s-2.3-1-2.3-2.3S277.2,295.9,278.5,295.9L278.5,295.9z"/>
</g>
<g>
	<path class="st18" d="M278.3,274.2c-0.7,0-1.3,0.6-1.3,1.3s0.6,1.3,1.3,1.3s1.3-0.6,1.3-1.3S279,274.2,278.3,274.2 M278.3,273.2
		c1.3,0,2.3,1,2.3,2.3s-1,2.3-2.3,2.3s-2.3-1-2.3-2.3S277,273.2,278.3,273.2L278.3,273.2z"/>
</g>
<g>
	<circle class="st19" cx="209.5" cy="287.1" r="2.3"/>
</g>
<g>
	<circle class="st19" cx="248.8" cy="271.7" r="2.3"/>
</g>
<g>
	<circle class="st19" cx="239" cy="292.2" r="2.3"/>
</g>
<g>
	<path class="st18" d="M225.2,301.7c-0.7,0-1.3,0.6-1.3,1.3s0.6,1.3,1.3,1.3s1.3-0.6,1.3-1.3S225.9,301.7,225.2,301.7 M225.2,300.7
		c1.3,0,2.3,1,2.3,2.3s-1,2.3-2.3,2.3s-2.3-1-2.3-2.3S223.9,300.7,225.2,300.7L225.2,300.7z"/>
</g>
<g>
	<path class="st18" d="M229.2,275.5c-0.7,0-1.3,0.6-1.3,1.3s0.6,1.3,1.3,1.3s1.3-0.6,1.3-1.3S229.9,275.5,229.2,275.5 M229.2,274.5
		c1.3,0,2.3,1,2.3,2.3s-1,2.3-2.3,2.3s-2.3-1-2.3-2.3S227.9,274.5,229.2,274.5L229.2,274.5z"/>
</g>
<g>
	<circle class="st19" cx="160.4" cy="288.4" r="2.3"/>
</g>
<g>
	<circle class="st19" cx="199.7" cy="273" r="2.3"/>
</g>
<g>
	<circle class="st19" cx="189.9" cy="293.5" r="2.3"/>
</g>
<g>
	<path class="st18" d="M155.2,302.2c-0.7,0-1.3,0.6-1.3,1.3s0.6,1.3,1.3,1.3s1.3-0.6,1.3-1.3S155.9,302.2,155.2,302.2 M155.2,301.2
		c1.3,0,2.3,1,2.3,2.3s-1,2.3-2.3,2.3s-2.3-1-2.3-2.3S153.9,301.2,155.2,301.2L155.2,301.2z"/>
</g>
<g>
	<path class="st18" d="M180,276.8c-0.7,0-1.3,0.6-1.3,1.3s0.6,1.3,1.3,1.3s1.3-0.6,1.3-1.3S180.7,276.8,180,276.8 M180,275.8
		c1.3,0,2.3,1,2.3,2.3s-1,2.3-2.3,2.3s-2.3-1-2.3-2.3S178.7,275.8,180,275.8L180,275.8z"/>
</g>
<g>
	<circle class="st19" cx="111.2" cy="289.7" r="2.3"/>
</g>
<g>
	<circle class="st19" cx="150.5" cy="274.2" r="2.3"/>
</g>
<g>
	<circle class="st19" cx="140.7" cy="294.8" r="2.3"/>
</g>
<g>
	<path class="st18" d="M110.8,304.7c-0.7,0-1.3,0.6-1.3,1.3s0.6,1.3,1.3,1.3s1.3-0.6,1.3-1.3S111.5,304.7,110.8,304.7 M110.8,303.7
		c1.3,0,2.3,1,2.3,2.3s-1,2.3-2.3,2.3s-2.3-1-2.3-2.3S109.5,303.7,110.8,303.7L110.8,303.7z"/>
</g>
<g>
	<path class="st18" d="M130.9,278.1c-0.7,0-1.3,0.6-1.3,1.3s0.6,1.3,1.3,1.3s1.3-0.6,1.3-1.3S131.6,278.1,130.9,278.1 M130.9,277.1
		c1.3,0,2.3,1,2.3,2.3s-1,2.3-2.3,2.3s-2.3-1-2.3-2.3S129.6,277.1,130.9,277.1L130.9,277.1z"/>
</g>
</svg>
