<?xml version="1.0" encoding="utf-8"?>
<!-- Generator: Adobe Illustrator 22.0.1, SVG Export Plug-In . SVG Version: 6.00 Build 0)  -->
<svg version="1.1" id="Layer_1" xmlns="http://www.w3.org/2000/svg" xmlns:xlink="http://www.w3.org/1999/xlink" x="0px" y="0px"
	 viewBox="0 0 336.7 400" style="enable-background:new 0 0 336.7 400;" xml:space="preserve">
<style type="text/css">
	.st0{fill:#FFDEAC;}
	.st1{fill:none;}
	.st2{fill:#FFFFFF;}
	.st3{opacity:0.22;fill:#FFFFFF;}
	.st4{opacity:0.38;fill:#FFFFFF;}
	.st5{fill:#EEC391;}
	.st6{fill:#E5AF7A;}
	.st7{fill:#FFEFD9;}
	.st8{fill:#FCD8A9;}
	.st9{fill:none;stroke:#DEDEDE;stroke-miterlimit:10;}
	.st10{fill:#EE3E31;}
	.st11{opacity:0.4;}
	.st12{fill:none;stroke:#FFFFFF;stroke-linecap:round;stroke-linejoin:round;stroke-miterlimit:10;}
	.st13{fill:#CD2B27;}
	.st14{fill:#DB372A;}
	.st15{fill:#7E4429;}
	.st16{fill:#B92026;}
	.st17{fill:#D6C1A7;}
	.st18{fill:#4B3F4E;}
	.st19{fill:#F2E8DA;}
</style>
<g>
	<rect x="22.4" y="65.7" class="st0" width="294.4" height="251.4"/>
</g>
<path class="st1" d="M183.7-102.6c0,17-14,31-31,31h-106c-17,0-31-14-31-31v-4c0-17,14-31,31-31h106c17,0,31,14,31,31V-102.6z"/>
<g>
	<path class="st2" d="M312,67v246H26V67H312 M312,57H26c-5.5,0-10,4.5-10,10v246c0,5.5,4.5,10,10,10h286c5.5,0,10-4.5,10-10V67
		C322,61.5,317.5,57,312,57L312,57z"/>
</g>
<path class="st3" d="M59,244.6c0.9,1.1,2.5,1.2,3.6,0.4c1.1-0.9,1.3-2.5,0.3-3.6c-0.9-1.1-2.5-1.3-3.6-0.4
	C58.3,241.9,58.1,243.6,59,244.6z"/>
<path class="st3" d="M39.6,234.7c0.9,1.1,2.5,1.2,3.6,0.4c1.1-0.9,1.3-2.5,0.3-3.6c-0.9-1.1-2.5-1.3-3.6-0.4
	C38.8,232,38.6,233.6,39.6,234.7z"/>
<path class="st4" d="M98.9,227.7c0.9,1.1,2.5,1.3,3.6,0.4c1.1-0.9,1.3-2.5,0.3-3.6c-0.9-1.1-2.5-1.2-3.6-0.4
	C98.1,225,98,226.6,98.9,227.7z"/>
<path class="st5" d="M46,254.7c0.9,1.1,2.5,1.3,3.6,0.4c1.1-0.9,1.2-2.5,0.3-3.6c-0.9-1.1-2.5-1.2-3.6-0.4
	C45.3,252,45.1,253.6,46,254.7z"/>
<g>
	<path class="st6" d="M106.6,257.3c0.9,1.1,2.5,1.3,3.6,0.4c1.1-0.9,1.3-2.5,0.4-3.6c-0.9-1.1-2.5-1.3-3.6-0.4
		C105.9,254.6,105.7,256.2,106.6,257.3z"/>
</g>
<g>
	<path class="st6" d="M110.5,302c0.9,1.1,2.5,1.3,3.6,0.4c1.1-0.9,1.3-2.5,0.4-3.6c-0.9-1.1-2.5-1.3-3.6-0.4
		C109.8,299.3,109.6,300.9,110.5,302z"/>
</g>
<g>
	<path class="st6" d="M88.6,249.6c0.9,1.1,2.5,1.3,3.6,0.4c1.1-0.9,1.3-2.5,0.4-3.6c-0.9-1.1-2.5-1.3-3.6-0.4
		C87.9,247,87.7,248.6,88.6,249.6z"/>
</g>
<g>
	<path class="st6" d="M128.7,230.3c0.9,1.1,2.5,1.3,3.6,0.4c1.1-0.9,1.3-2.5,0.4-3.6c-0.9-1.1-2.5-1.3-3.6-0.4
		C128,227.6,127.8,229.2,128.7,230.3z"/>
</g>
<path class="st7" d="M79.5,260c0.9,1.1,2.5,1.3,3.6,0.3c1.1-0.9,1.3-2.5,0.4-3.6c-0.9-1.1-2.5-1.2-3.6-0.4
	C78.7,257.3,78.6,258.9,79.5,260z"/>
<path class="st7" d="M84.5,278.1c0.9,1.1,2.5,1.3,3.6,0.3c1.1-0.9,1.3-2.5,0.4-3.6c-0.9-1.1-2.5-1.2-3.6-0.4
	C83.8,275.4,83.6,277,84.5,278.1z"/>
<path class="st7" d="M61,255.7c0.9,1.1,2.5,1.3,3.6,0.3c1.1-0.9,1.3-2.5,0.4-3.6c-0.9-1.1-2.5-1.2-3.6-0.4
	C60.2,253.1,60.1,254.6,61,255.7z"/>
<g>
	<path class="st8" d="M80.3,233.4c0.9,1.1,2.5,1.3,3.6,0.4c1.1-0.9,1.3-2.5,0.4-3.6c-0.9-1.1-2.5-1.3-3.6-0.3
		C79.6,230.7,79.5,232.3,80.3,233.4z"/>
</g>
<g>
	<path class="st9" d="M51.8,281.8c0.9,1.1,2.5,1.3,3.6,0.4c1.1-0.9,1.3-2.5,0.4-3.6c-0.9-1.1-2.5-1.3-3.6-0.4
		C51.1,279.1,50.9,280.7,51.8,281.8z"/>
</g>
<g>
	<path class="st9" d="M107.6,233.4c0.9,1.1,2.5,1.3,3.6,0.4c1.1-0.9,1.3-2.5,0.4-3.6c-0.9-1.1-2.5-1.3-3.6-0.4
		C106.9,230.7,106.7,232.3,107.6,233.4z"/>
</g>
<g>
	<path class="st9" d="M147,232.9c0.9,1.1,2.5,1.3,3.6,0.4c1.1-0.9,1.3-2.5,0.4-3.6c-0.9-1.1-2.5-1.3-3.6-0.4
		C146.3,230.2,146.1,231.8,147,232.9z"/>
</g>
<path class="st4" d="M149,250c0.9,1.1,2.5,1.3,3.6,0.4c1.1-0.9,1.3-2.5,0.3-3.6c-0.9-1.1-2.5-1.2-3.6-0.4
	C148.2,247.4,148.1,248.9,149,250z"/>
<g>
	<path class="st6" d="M156.7,279.6c0.9,1.1,2.5,1.3,3.6,0.4c1.1-0.9,1.3-2.5,0.4-3.6c-0.9-1.1-2.5-1.3-3.6-0.4
		C156,276.9,155.8,278.5,156.7,279.6z"/>
</g>
<g>
	<path class="st6" d="M138.7,271.9c0.9,1.1,2.5,1.3,3.6,0.4c1.1-0.9,1.3-2.5,0.4-3.6c-0.9-1.1-2.5-1.3-3.6-0.4
		C138,269.3,137.8,270.9,138.7,271.9z"/>
</g>
<g>
	<path class="st6" d="M137.4,244.6c0.9,1.1,2.5,1.3,3.6,0.4c1.1-0.9,1.3-2.5,0.4-3.6c-0.9-1.1-2.5-1.3-3.6-0.4
		C136.7,242,136.5,243.6,137.4,244.6z"/>
</g>
<g>
	<path class="st6" d="M132,289.6c0.9,1.1,2.5,1.3,3.6,0.4c1.1-0.9,1.3-2.5,0.4-3.6c-0.9-1.1-2.5-1.3-3.6-0.4
		C131.3,286.9,131.1,288.5,132,289.6z"/>
</g>
<g>
	<path class="st6" d="M37,289.6c0.9,1.1,2.5,1.3,3.6,0.4c1.1-0.9,1.3-2.5,0.4-3.6c-0.9-1.1-2.5-1.3-3.6-0.4
		C36.3,287,36.2,288.6,37,289.6z"/>
</g>
<g>
	<path class="st6" d="M100.3,293.9c0.9,1.1,2.5,1.3,3.6,0.4c1.1-0.9,1.3-2.5,0.4-3.6c-0.9-1.1-2.5-1.3-3.6-0.4
		C99.6,291.3,99.4,292.9,100.3,293.9z"/>
</g>
<path class="st7" d="M129.6,282.3c0.9,1.1,2.5,1.3,3.6,0.3c1.1-0.9,1.3-2.5,0.4-3.6c-0.9-1.1-2.5-1.2-3.6-0.4
	C128.8,279.6,128.7,281.2,129.6,282.3z"/>
<g>
	<path class="st8" d="M130.4,255.7c0.9,1.1,2.5,1.3,3.6,0.4c1.1-0.9,1.3-2.5,0.4-3.6c-0.9-1.1-2.5-1.3-3.6-0.3
		C129.7,253,129.5,254.6,130.4,255.7z"/>
</g>
<g>
	<path class="st8" d="M141.5,304c0.9,1.1,2.5,1.3,3.6,0.4c1.1-0.9,1.3-2.5,0.4-3.6c-0.9-1.1-2.5-1.3-3.6-0.3
		C140.8,301.3,140.6,302.9,141.5,304z"/>
</g>
<g>
	<path class="st8" d="M61.1,304.3c0.9,1.1,2.5,1.3,3.6,0.4c1.1-0.9,1.3-2.5,0.4-3.6c-0.9-1.1-2.5-1.3-3.6-0.3
		C60.3,301.6,60.2,303.2,61.1,304.3z"/>
</g>
<g>
	<path class="st9" d="M157.7,255.7c0.9,1.1,2.5,1.3,3.6,0.4c1.1-0.9,1.3-2.5,0.4-3.6c-0.9-1.1-2.5-1.3-3.6-0.4
		C157,253,156.8,254.6,157.7,255.7z"/>
</g>
<g>
	<path class="st9" d="M147,291.1c0.9,1.1,2.5,1.3,3.6,0.4c1.1-0.9,1.3-2.5,0.4-3.6c-0.9-1.1-2.5-1.3-3.6-0.4
		C146.3,288.4,146.1,290,147,291.1z"/>
</g>
<path class="st3" d="M48,168.1c0.9,1.1,2.5,1.2,3.6,0.4c1.1-0.9,1.3-2.5,0.3-3.6c-0.9-1.1-2.5-1.3-3.6-0.4
	C47.2,165.4,47.1,167.1,48,168.1z"/>
<path class="st4" d="M53.8,135.9c0.9,1.1,2.5,1.3,3.6,0.4c1.1-0.9,1.3-2.5,0.3-3.6c-0.9-1.1-2.5-1.2-3.6-0.4
	C53,133.3,52.9,134.9,53.8,135.9z"/>
<path class="st5" d="M35,178.2c0.9,1.1,2.5,1.3,3.6,0.4c1.1-0.9,1.2-2.5,0.3-3.6c-0.9-1.1-2.5-1.2-3.6-0.4
	C34.2,175.5,34,177.1,35,178.2z"/>
<g>
	<path class="st6" d="M149.6,200.6c0.9,1.1,2.5,1.3,3.6,0.4c1.1-0.9,1.3-2.5,0.4-3.6c-0.9-1.1-2.5-1.3-3.6-0.4
		C148.9,197.9,148.8,199.5,149.6,200.6z"/>
</g>
<g>
	<path class="st6" d="M65.4,210.2c0.9,1.1,2.5,1.3,3.6,0.4c1.1-0.9,1.3-2.5,0.4-3.6c-0.9-1.1-2.5-1.3-3.6-0.4
		C64.7,207.6,64.5,209.2,65.4,210.2z"/>
</g>
<g>
	<path class="st6" d="M64,182.9c0.9,1.1,2.5,1.3,3.6,0.4c1.1-0.9,1.3-2.5,0.4-3.6c-0.9-1.1-2.5-1.3-3.6-0.4
		C63.3,180.3,63.1,181.9,64,182.9z"/>
</g>
<g>
	<path class="st6" d="M160,187.6c0.9,1.1,2.5,1.3,3.6,0.4c1.1-0.9,1.3-2.5,0.4-3.6c-0.9-1.1-2.5-1.3-3.6-0.4
		C159.3,184.9,159.1,186.5,160,187.6z"/>
</g>
<path class="st7" d="M34.4,158.2c0.9,1.1,2.5,1.3,3.6,0.3c1.1-0.9,1.3-2.5,0.4-3.6c-0.9-1.1-2.5-1.2-3.6-0.4
	C33.7,155.5,33.5,157.1,34.4,158.2z"/>
<path class="st7" d="M39.4,186.3c0.9,1.1,2.5,1.3,3.6,0.3c1.1-0.9,1.3-2.5,0.4-3.6c-0.9-1.1-2.5-1.2-3.6-0.4
	C38.7,183.7,38.5,185.2,39.4,186.3z"/>
<path class="st7" d="M51,178.6c0.9,1.1,2.5,1.3,3.6,0.3c1.1-0.9,1.3-2.5,0.4-3.6c-0.9-1.1-2.5-1.2-3.6-0.4
	C50.3,175.9,50.1,177.5,51,178.6z"/>
<g>
	<path class="st8" d="M35.3,141.6c0.9,1.1,2.5,1.3,3.6,0.4c1.1-0.9,1.3-2.5,0.4-3.6c-0.9-1.1-2.5-1.3-3.6-0.3
		C34.5,138.9,34.4,140.5,35.3,141.6z"/>
</g>
<g>
	<path class="st9" d="M40.8,205.3c0.9,1.1,2.5,1.3,3.6,0.4c1.1-0.9,1.3-2.5,0.4-3.6c-0.9-1.1-2.5-1.3-3.6-0.4
		C40.1,202.6,39.9,204.2,40.8,205.3z"/>
</g>
<g>
	<path class="st9" d="M62.5,141.6c0.9,1.1,2.5,1.3,3.6,0.4c1.1-0.9,1.3-2.5,0.4-3.6c-0.9-1.1-2.5-1.3-3.6-0.4
		C61.8,139,61.6,140.6,62.5,141.6z"/>
</g>
<path class="st4" d="M135.9,193.9c0.9,1.1,2.5,1.3,3.6,0.4c1.1-0.9,1.3-2.5,0.3-3.6c-0.9-1.1-2.5-1.2-3.6-0.4
	C135.1,191.3,135,192.8,135.9,193.9z"/>
<g>
	<path class="st6" d="M111.6,187.8c0.9,1.1,2.5,1.3,3.6,0.4c1.1-0.9,1.3-2.5,0.4-3.6c-0.9-1.1-2.5-1.3-3.6-0.4
		C110.9,185.2,110.7,186.7,111.6,187.8z"/>
</g>
<g>
	<path class="st6" d="M93.6,180.2c0.9,1.1,2.5,1.3,3.6,0.4c1.1-0.9,1.3-2.5,0.4-3.6c-0.9-1.1-2.5-1.3-3.6-0.4
		C92.9,177.5,92.7,179.1,93.6,180.2z"/>
</g>
<g>
	<path class="st6" d="M86.9,197.8c0.9,1.1,2.5,1.3,3.6,0.4c1.1-0.9,1.3-2.5,0.4-3.6c-0.9-1.1-2.5-1.3-3.6-0.4
		C86.2,195.2,86,196.8,86.9,197.8z"/>
</g>
<g>
	<path class="st6" d="M55.2,202.2c0.9,1.1,2.5,1.3,3.6,0.4c1.1-0.9,1.3-2.5,0.4-3.6c-0.9-1.1-2.5-1.3-3.6-0.4
		C54.5,199.5,54.4,201.1,55.2,202.2z"/>
</g>
<path class="st5" d="M79.5,80.6c0.9,1.1,2.5,1.3,3.6,0.4c1.1-0.9,1.2-2.5,0.3-3.6c-0.9-1.1-2.5-1.2-3.6-0.4
	C78.7,77.9,78.5,79.5,79.5,80.6z"/>
<g>
	<path class="st6" d="M109.9,112.6c0.9,1.1,2.5,1.3,3.6,0.4c1.1-0.9,1.3-2.5,0.4-3.6c-0.9-1.1-2.5-1.3-3.6-0.4
		C109.2,110,109,111.6,109.9,112.6z"/>
</g>
<g>
	<path class="st6" d="M108.5,85.3c0.9,1.1,2.5,1.3,3.6,0.4c1.1-0.9,1.3-2.5,0.4-3.6c-0.9-1.1-2.5-1.3-3.6-0.4
		C107.8,82.7,107.6,84.3,108.5,85.3z"/>
</g>
<path class="st7" d="M83.9,88.7c0.9,1.1,2.5,1.3,3.6,0.3c1.1-0.9,1.3-2.5,0.4-3.6c-0.9-1.1-2.5-1.2-3.6-0.4
	C83.2,86.1,83,87.6,83.9,88.7z"/>
<path class="st7" d="M95.5,81c0.9,1.1,2.5,1.3,3.6,0.3c1.1-0.9,1.3-2.5,0.4-3.6c-0.9-1.1-2.5-1.2-3.6-0.4
	C94.8,78.3,94.6,79.9,95.5,81z"/>
<g>
	<path class="st9" d="M85.3,107.7c0.9,1.1,2.5,1.3,3.6,0.4c1.1-0.9,1.3-2.5,0.4-3.6c-0.9-1.1-2.5-1.3-3.6-0.4
		C84.6,105,84.4,106.6,85.3,107.7z"/>
</g>
<g>
	<path class="st6" d="M99.7,104.6c0.9,1.1,2.5,1.3,3.6,0.4c1.1-0.9,1.3-2.5,0.4-3.6c-0.9-1.1-2.5-1.3-3.6-0.4
		C99,101.9,98.9,103.5,99.7,104.6z"/>
</g>
<path class="st5" d="M79.5,80.6c0.9,1.1,2.5,1.3,3.6,0.4c1.1-0.9,1.2-2.5,0.3-3.6c-0.9-1.1-2.5-1.2-3.6-0.4
	C78.7,77.9,78.5,79.5,79.5,80.6z"/>
<g>
	<path class="st6" d="M109.9,112.6c0.9,1.1,2.5,1.3,3.6,0.4c1.1-0.9,1.3-2.5,0.4-3.6c-0.9-1.1-2.5-1.3-3.6-0.4
		C109.2,110,109,111.6,109.9,112.6z"/>
</g>
<g>
	<path class="st6" d="M108.5,85.3c0.9,1.1,2.5,1.3,3.6,0.4c1.1-0.9,1.3-2.5,0.4-3.6c-0.9-1.1-2.5-1.3-3.6-0.4
		C107.8,82.7,107.6,84.3,108.5,85.3z"/>
</g>
<path class="st7" d="M83.9,88.7c0.9,1.1,2.5,1.3,3.6,0.3c1.1-0.9,1.3-2.5,0.4-3.6c-0.9-1.1-2.5-1.2-3.6-0.4
	C83.2,86.1,83,87.6,83.9,88.7z"/>
<path class="st7" d="M95.5,81c0.9,1.1,2.5,1.3,3.6,0.3c1.1-0.9,1.3-2.5,0.4-3.6c-0.9-1.1-2.5-1.2-3.6-0.4
	C94.8,78.3,94.6,79.9,95.5,81z"/>
<g>
	<path class="st9" d="M85.3,107.7c0.9,1.1,2.5,1.3,3.6,0.4c1.1-0.9,1.3-2.5,0.4-3.6c-0.9-1.1-2.5-1.3-3.6-0.4
		C84.6,105,84.4,106.6,85.3,107.7z"/>
</g>
<g>
	<path class="st6" d="M99.7,104.6c0.9,1.1,2.5,1.3,3.6,0.4c1.1-0.9,1.3-2.5,0.4-3.6c-0.9-1.1-2.5-1.3-3.6-0.4
		C99,101.9,98.9,103.5,99.7,104.6z"/>
</g>
<path class="st5" d="M33.4,80.6c0.9,1.1,2.5,1.3,3.6,0.4c1.1-0.9,1.2-2.5,0.3-3.6c-0.9-1.1-2.5-1.2-3.6-0.4
	C32.7,77.9,32.5,79.5,33.4,80.6z"/>
<g>
	<path class="st6" d="M63.9,112.6c0.9,1.1,2.5,1.3,3.6,0.4c1.1-0.9,1.3-2.5,0.4-3.6c-0.9-1.1-2.5-1.3-3.6-0.4
		C63.2,110,63,111.6,63.9,112.6z"/>
</g>
<g>
	<path class="st6" d="M62.5,85.3c0.9,1.1,2.5,1.3,3.6,0.4c1.1-0.9,1.3-2.5,0.4-3.6c-0.9-1.1-2.5-1.3-3.6-0.4
		C61.8,82.7,61.6,84.3,62.5,85.3z"/>
</g>
<path class="st7" d="M37.9,88.7c0.9,1.1,2.5,1.3,3.6,0.3c1.1-0.9,1.3-2.5,0.4-3.6c-0.9-1.1-2.5-1.2-3.6-0.4
	C37.2,86.1,37,87.6,37.9,88.7z"/>
<path class="st7" d="M49.5,81c0.9,1.1,2.5,1.3,3.6,0.3c1.1-0.9,1.3-2.5,0.4-3.6c-0.9-1.1-2.5-1.2-3.6-0.4
	C48.7,78.3,48.6,79.9,49.5,81z"/>
<g>
	<path class="st9" d="M39.2,107.7c0.9,1.1,2.5,1.3,3.6,0.4c1.1-0.9,1.3-2.5,0.4-3.6c-0.9-1.1-2.5-1.3-3.6-0.4
		C38.5,105,38.4,106.6,39.2,107.7z"/>
</g>
<g>
	<path class="st6" d="M53.7,104.6c0.9,1.1,2.5,1.3,3.6,0.4c1.1-0.9,1.3-2.5,0.4-3.6c-0.9-1.1-2.5-1.3-3.6-0.4
		C53,101.9,52.8,103.5,53.7,104.6z"/>
</g>
<path class="st7" d="M84.5,190.5c0.9,1.1,2.5,1.3,3.6,0.3c1.1-0.9,1.3-2.5,0.4-3.6c-0.9-1.1-2.5-1.2-3.6-0.4
	C83.7,187.9,83.6,189.4,84.5,190.5z"/>
<g>
	<path class="st8" d="M131,208.6c0.9,1.1,2.5,1.3,3.6,0.4c1.1-0.9,1.3-2.5,0.4-3.6c-0.9-1.1-2.5-1.3-3.6-0.3
		C130.3,205.9,130.1,207.5,131,208.6z"/>
</g>
<g>
	<path class="st8" d="M96.4,212.2c0.9,1.1,2.5,1.3,3.6,0.4c1.1-0.9,1.3-2.5,0.4-3.6c-0.9-1.1-2.5-1.3-3.6-0.3
		C95.7,209.6,95.5,211.1,96.4,212.2z"/>
</g>
<g>
	<path class="st9" d="M141.7,182c0.9,1.1,2.5,1.3,3.6,0.4c1.1-0.9,1.3-2.5,0.4-3.6c-0.9-1.1-2.5-1.3-3.6-0.4
		C141,179.3,140.8,180.9,141.7,182z"/>
</g>
<g>
	<path class="st6" d="M174.8,230.3c0.9,1.1,2.5,1.3,3.6,0.4c1.1-0.9,1.3-2.5,0.4-3.6c-0.9-1.1-2.5-1.3-3.6-0.4
		C174.1,227.6,173.9,229.2,174.8,230.3z"/>
</g>
<g>
	<path class="st9" d="M193.1,232.9c0.9,1.1,2.5,1.3,3.6,0.4c1.1-0.9,1.3-2.5,0.4-3.6c-0.9-1.1-2.5-1.3-3.6-0.4
		C192.4,230.2,192.2,231.8,193.1,232.9z"/>
</g>
<path class="st4" d="M195.1,250c0.9,1.1,2.5,1.3,3.6,0.4c1.1-0.9,1.3-2.5,0.3-3.6c-0.9-1.1-2.5-1.2-3.6-0.4
	C194.3,247.4,194.2,248.9,195.1,250z"/>
<g>
	<path class="st6" d="M202.8,279.6c0.9,1.1,2.5,1.3,3.6,0.4c1.1-0.9,1.3-2.5,0.4-3.6c-0.9-1.1-2.5-1.3-3.6-0.4
		C202.1,276.9,201.9,278.5,202.8,279.6z"/>
</g>
<g>
	<path class="st6" d="M184.8,271.9c0.9,1.1,2.5,1.3,3.6,0.4c1.1-0.9,1.3-2.5,0.4-3.6c-0.9-1.1-2.5-1.3-3.6-0.4
		C184.1,269.3,183.9,270.9,184.8,271.9z"/>
</g>
<g>
	<path class="st6" d="M183.5,244.6c0.9,1.1,2.5,1.3,3.6,0.4c1.1-0.9,1.3-2.5,0.4-3.6c-0.9-1.1-2.5-1.3-3.6-0.4
		C182.8,242,182.6,243.6,183.5,244.6z"/>
</g>
<g>
	<path class="st6" d="M178.1,289.6c0.9,1.1,2.5,1.3,3.6,0.4c1.1-0.9,1.3-2.5,0.4-3.6c-0.9-1.1-2.5-1.3-3.6-0.4
		C177.4,286.9,177.2,288.5,178.1,289.6z"/>
</g>
<path class="st7" d="M175.7,282.3c0.9,1.1,2.5,1.3,3.6,0.3c1.1-0.9,1.3-2.5,0.4-3.6c-0.9-1.1-2.5-1.2-3.6-0.4
	C175,279.6,174.8,281.2,175.7,282.3z"/>
<g>
	<path class="st8" d="M176.5,255.7c0.9,1.1,2.5,1.3,3.6,0.4c1.1-0.9,1.3-2.5,0.4-3.6c-0.9-1.1-2.5-1.3-3.6-0.3
		C175.8,253,175.7,254.6,176.5,255.7z"/>
</g>
<g>
	<path class="st8" d="M187.6,304c0.9,1.1,2.5,1.3,3.6,0.4c1.1-0.9,1.3-2.5,0.4-3.6c-0.9-1.1-2.5-1.3-3.6-0.3
		C186.9,301.3,186.7,302.9,187.6,304z"/>
</g>
<g>
	<path class="st9" d="M203.8,255.7c0.9,1.1,2.5,1.3,3.6,0.4c1.1-0.9,1.3-2.5,0.4-3.6c-0.9-1.1-2.5-1.3-3.6-0.4
		C203.1,253,202.9,254.6,203.8,255.7z"/>
</g>
<g>
	<path class="st9" d="M193.1,291.1c0.9,1.1,2.5,1.3,3.6,0.4c1.1-0.9,1.3-2.5,0.4-3.6c-0.9-1.1-2.5-1.3-3.6-0.4
		C192.4,288.4,192.2,290,193.1,291.1z"/>
</g>
<g>
	<path class="st6" d="M253.6,279.6c0.9,1.1,2.5,1.3,3.6,0.4c1.1-0.9,1.3-2.5,0.4-3.6c-0.9-1.1-2.5-1.3-3.6-0.4
		C252.9,276.9,252.8,278.5,253.6,279.6z"/>
</g>
<g>
	<path class="st6" d="M235.6,271.9c0.9,1.1,2.5,1.3,3.6,0.4c1.1-0.9,1.3-2.5,0.4-3.6c-0.9-1.1-2.5-1.3-3.6-0.4
		C234.9,269.3,234.8,270.9,235.6,271.9z"/>
</g>
<g>
	<path class="st6" d="M229,289.6c0.9,1.1,2.5,1.3,3.6,0.4c1.1-0.9,1.3-2.5,0.4-3.6c-0.9-1.1-2.5-1.3-3.6-0.4
		C228.3,286.9,228.1,288.5,229,289.6z"/>
</g>
<path class="st7" d="M226.6,282.3c0.9,1.1,2.5,1.3,3.6,0.3c1.1-0.9,1.3-2.5,0.4-3.6c-0.9-1.1-2.5-1.2-3.6-0.4
	C225.8,279.6,225.7,281.2,226.6,282.3z"/>
<g>
	<path class="st8" d="M238.5,304c0.9,1.1,2.5,1.3,3.6,0.4c1.1-0.9,1.3-2.5,0.4-3.6c-0.9-1.1-2.5-1.3-3.6-0.3
		C237.8,301.3,237.6,302.9,238.5,304z"/>
</g>
<g>
	<path class="st9" d="M244,291.1c0.9,1.1,2.5,1.3,3.6,0.4c1.1-0.9,1.3-2.5,0.4-3.6c-0.9-1.1-2.5-1.3-3.6-0.4
		C243.3,288.4,243.1,290,244,291.1z"/>
</g>
<g>
	<path class="st6" d="M299.8,279.6c0.9,1.1,2.5,1.3,3.6,0.4c1.1-0.9,1.3-2.5,0.4-3.6c-0.9-1.1-2.5-1.3-3.6-0.4
		C299.1,276.9,298.9,278.5,299.8,279.6z"/>
</g>
<g>
	<path class="st6" d="M294.1,238.9c0.9,1.1,2.5,1.3,3.6,0.4c1.1-0.9,1.3-2.5,0.4-3.6c-0.9-1.1-2.5-1.3-3.6-0.4
		C293.4,236.3,293.2,237.9,294.1,238.9z"/>
</g>
<g>
	<path class="st6" d="M287.4,181.6c0.9,1.1,2.5,1.3,3.6,0.4c1.1-0.9,1.3-2.5,0.4-3.6c-0.9-1.1-2.5-1.3-3.6-0.4
		C286.7,178.9,286.5,180.5,287.4,181.6z"/>
</g>
<g>
	<path class="st6" d="M281.8,271.9c0.9,1.1,2.5,1.3,3.6,0.4c1.1-0.9,1.3-2.5,0.4-3.6c-0.9-1.1-2.5-1.3-3.6-0.4
		C281.1,269.3,280.9,270.9,281.8,271.9z"/>
</g>
<g>
	<path class="st6" d="M277.4,231.6c0.9,1.1,2.5,1.3,3.6,0.4c1.1-0.9,1.3-2.5,0.4-3.6c-0.9-1.1-2.5-1.3-3.6-0.4
		C276.7,228.9,276.5,230.5,277.4,231.6z"/>
</g>
<g>
	<path class="st6" d="M275.1,289.6c0.9,1.1,2.5,1.3,3.6,0.4c1.1-0.9,1.3-2.5,0.4-3.6c-0.9-1.1-2.5-1.3-3.6-0.4
		C274.4,286.9,274.2,288.5,275.1,289.6z"/>
</g>
<g>
	<path class="st6" d="M283,248.6c0.9,1.1,2.5,1.3,3.6,0.4c1.1-0.9,1.3-2.5,0.4-3.6c-0.9-1.1-2.5-1.3-3.6-0.4
		C282.3,245.9,282.1,247.5,283,248.6z"/>
</g>
<g>
	<path class="st6" d="M294.3,205.3c0.9,1.1,2.5,1.3,3.6,0.4c1.1-0.9,1.3-2.5,0.4-3.6c-0.9-1.1-2.5-1.3-3.6-0.4
		C293.6,202.6,293.4,204.2,294.3,205.3z"/>
</g>
<path class="st7" d="M272.7,282.3c0.9,1.1,2.5,1.3,3.6,0.3c1.1-0.9,1.3-2.5,0.4-3.6c-0.9-1.1-2.5-1.2-3.6-0.4
	C271.9,279.6,271.8,281.2,272.7,282.3z"/>
<path class="st7" d="M291.4,227.9c0.9,1.1,2.5,1.3,3.6,0.3c1.1-0.9,1.3-2.5,0.4-3.6c-0.9-1.1-2.5-1.2-3.6-0.4
	C290.6,225.3,290.4,226.8,291.4,227.9z"/>
<path class="st7" d="M278,201.3c0.9,1.1,2.5,1.3,3.6,0.3c1.1-0.9,1.3-2.5,0.4-3.6c-0.9-1.1-2.5-1.2-3.6-0.4
	C277.3,198.6,277.1,200.2,278,201.3z"/>
<g>
	<path class="st8" d="M284.6,304c0.9,1.1,2.5,1.3,3.6,0.4c1.1-0.9,1.3-2.5,0.4-3.6c-0.9-1.1-2.5-1.3-3.6-0.3
		C283.9,301.3,283.7,302.9,284.6,304z"/>
</g>
<g>
	<path class="st8" d="M297.7,253.3c0.9,1.1,2.5,1.3,3.6,0.4c1.1-0.9,1.3-2.5,0.4-3.6c-0.9-1.1-2.5-1.3-3.6-0.3
		C296.9,250.6,296.8,252.1,297.7,253.3z"/>
</g>
<g>
	<path class="st8" d="M283.7,212.9c0.9,1.1,2.5,1.3,3.6,0.4c1.1-0.9,1.3-2.5,0.4-3.6c-0.9-1.1-2.5-1.3-3.6-0.3
		C283,210.2,282.8,211.8,283.7,212.9z"/>
</g>
<g>
	<path class="st9" d="M290.1,291.1c0.9,1.1,2.5,1.3,3.6,0.4c1.1-0.9,1.3-2.5,0.4-3.6c-0.9-1.1-2.5-1.3-3.6-0.4
		C289.4,288.4,289.2,290,290.1,291.1z"/>
</g>
<g>
	<path class="st9" d="M277.4,187.1c0.9,1.1,2.5,1.3,3.6,0.4c1.1-0.9,1.3-2.5,0.4-3.6c-0.9-1.1-2.5-1.3-3.6-0.4
		C276.7,184.4,276.5,186,277.4,187.1z"/>
</g>
<g>
	<path class="st6" d="M195.8,200.6c0.9,1.1,2.5,1.3,3.6,0.4c1.1-0.9,1.3-2.5,0.4-3.6c-0.9-1.1-2.5-1.3-3.6-0.4
		C195.1,197.9,194.9,199.5,195.8,200.6z"/>
</g>
<g>
	<path class="st6" d="M206.1,187.6c0.9,1.1,2.5,1.3,3.6,0.4c1.1-0.9,1.3-2.5,0.4-3.6c-0.9-1.1-2.5-1.3-3.6-0.4
		C205.4,184.9,205.2,186.5,206.1,187.6z"/>
</g>
<path class="st4" d="M182,193.9c0.9,1.1,2.5,1.3,3.6,0.4c1.1-0.9,1.3-2.5,0.3-3.6c-0.9-1.1-2.5-1.2-3.6-0.4
	C181.2,191.3,181.1,192.8,182,193.9z"/>
<g>
	<path class="st8" d="M177.1,208.6c0.9,1.1,2.5,1.3,3.6,0.4c1.1-0.9,1.3-2.5,0.4-3.6c-0.9-1.1-2.5-1.3-3.6-0.3
		C176.4,205.9,176.2,207.5,177.1,208.6z"/>
</g>
<g>
	<path class="st9" d="M187.8,182c0.9,1.1,2.5,1.3,3.6,0.4c1.1-0.9,1.3-2.5,0.4-3.6c-0.9-1.1-2.5-1.3-3.6-0.4
		C187.1,179.3,186.9,180.9,187.8,182z"/>
</g>
<g>
	<path class="st6" d="M184.3,147.9c-1.1,0.9-1.3,2.5-0.4,3.6c0.9,1.1,2.5,1.3,3.6,0.4c1.1-0.9,1.3-2.5,0.4-3.6
		C187,147.2,185.4,147,184.3,147.9z"/>
</g>
<g>
	<path class="st6" d="M197.3,158.2c-1.1,0.9-1.3,2.5-0.4,3.6c0.9,1.1,2.5,1.3,3.6,0.4c1.1-0.9,1.3-2.5,0.4-3.6
		C200,157.5,198.4,157.4,197.3,158.2z"/>
</g>
<path class="st4" d="M191,134.2c-1.1,0.9-1.3,2.5-0.4,3.6c0.9,1.1,2.5,1.3,3.6,0.3c1.1-0.9,1.2-2.5,0.4-3.6
	C193.7,133.4,192.1,133.3,191,134.2z"/>
<g>
	<path class="st8" d="M176.3,129.3c-1.1,0.9-1.3,2.5-0.4,3.6c0.9,1.1,2.5,1.3,3.6,0.4c1.1-0.9,1.3-2.5,0.3-3.6
		C179,128.6,177.4,128.4,176.3,129.3z"/>
</g>
<g>
	<path class="st9" d="M202.9,139.9c-1.1,0.9-1.3,2.5-0.4,3.6c0.9,1.1,2.5,1.3,3.6,0.4c1.1-0.9,1.3-2.5,0.4-3.6
		C205.6,139.2,204,139.1,202.9,139.9z"/>
</g>
<g>
	<path class="st6" d="M279.8,147.9c-1.1,0.9-1.3,2.5-0.4,3.6c0.9,1.1,2.5,1.3,3.6,0.4c1.1-0.9,1.3-2.5,0.4-3.6
		C282.5,147.2,280.9,147,279.8,147.9z"/>
</g>
<g>
	<path class="st6" d="M292.8,158.2c-1.1,0.9-1.3,2.5-0.4,3.6c0.9,1.1,2.5,1.3,3.6,0.4c1.1-0.9,1.3-2.5,0.4-3.6
		C295.5,157.5,293.9,157.4,292.8,158.2z"/>
</g>
<path class="st4" d="M286.4,134.2c-1.1,0.9-1.3,2.5-0.4,3.6c0.9,1.1,2.5,1.3,3.6,0.3c1.1-0.9,1.2-2.5,0.4-3.6
	C289.1,133.4,287.5,133.3,286.4,134.2z"/>
<g>
	<path class="st8" d="M271.8,129.3c-1.1,0.9-1.3,2.5-0.4,3.6c0.9,1.1,2.5,1.3,3.6,0.4c1.1-0.9,1.3-2.5,0.3-3.6
		C274.4,128.6,272.9,128.4,271.8,129.3z"/>
</g>
<g>
	<path class="st9" d="M298.4,139.9c-1.1,0.9-1.3,2.5-0.4,3.6c0.9,1.1,2.5,1.3,3.6,0.4c1.1-0.9,1.3-2.5,0.4-3.6
		C301,139.2,299.4,139.1,298.4,139.9z"/>
</g>
<g>
	<path class="st6" d="M279.8,95.3c-1.1,0.9-1.3,2.5-0.4,3.6c0.9,1.1,2.5,1.3,3.6,0.4c1.1-0.9,1.3-2.5,0.4-3.6
		C282.5,94.6,280.9,94.4,279.8,95.3z"/>
</g>
<g>
	<path class="st6" d="M292.8,105.6c-1.1,0.9-1.3,2.5-0.4,3.6c0.9,1.1,2.5,1.3,3.6,0.4c1.1-0.9,1.3-2.5,0.4-3.6
		C295.5,104.9,293.9,104.7,292.8,105.6z"/>
</g>
<path class="st4" d="M286.4,81.5c-1.1,0.9-1.3,2.5-0.4,3.6c0.9,1.1,2.5,1.3,3.6,0.3c1.1-0.9,1.2-2.5,0.4-3.6
	C289.1,80.8,287.5,80.6,286.4,81.5z"/>
<g>
	<path class="st8" d="M273.3,87.5c-1.1,0.9-1.3,2.5-0.4,3.6c0.9,1.1,2.5,1.3,3.6,0.4c1.1-0.9,1.3-2.5,0.3-3.6
		C276,86.8,274.4,86.6,273.3,87.5z"/>
</g>
<g>
	<path class="st9" d="M298.4,87.3c-1.1,0.9-1.3,2.5-0.4,3.6c0.9,1.1,2.5,1.3,3.6,0.4c1.1-0.9,1.3-2.5,0.4-3.6
		C301,86.6,299.4,86.4,298.4,87.3z"/>
</g>
<g>
	<path class="st9" d="M101.9,199.3c0.9,1.1,2.5,1.3,3.6,0.4c1.1-0.9,1.3-2.5,0.4-3.6c-0.9-1.1-2.5-1.3-3.6-0.4
		C101.2,196.7,101,198.3,101.9,199.3z"/>
</g>
<g>
	<path class="st10" d="M227.6,197.3c1.3,1.6,3.6,1.8,5.2,0.5c1.6-1.2,1.8-3.6,0.5-5.1c-1.3-1.6-3.6-1.8-5.2-0.5
		C226.6,193.5,226.4,195.8,227.6,197.3z"/>
</g>
<g>
	<path class="st10" d="M243.5,186.6c1.3,1.6,3.6,1.8,5.2,0.5c1.6-1.2,1.8-3.6,0.5-5.1c-1.3-1.6-3.6-1.8-5.2-0.5
		C242.5,182.8,242.2,185.1,243.5,186.6z"/>
</g>
<g>
	<path class="st10" d="M230.1,179c1.3,1.6,3.6,1.8,5.2,0.5c1.6-1.2,1.8-3.6,0.5-5.1c-1.3-1.6-3.6-1.8-5.2-0.5
		C229.1,175.2,228.9,177.4,230.1,179z"/>
</g>
<g>
	<path class="st10" d="M230.6,131.3c1.3,1.6,3.6,1.8,5.2,0.5c1.6-1.2,1.8-3.6,0.5-5.1c-1.3-1.6-3.6-1.8-5.2-0.5
		C229.6,127.5,229.4,129.8,230.6,131.3z"/>
</g>
<g>
	<path class="st10" d="M228.8,106.6c1.3,1.6,3.6,1.8,5.2,0.5c1.6-1.2,1.8-3.6,0.5-5.1c-1.3-1.6-3.6-1.8-5.2-0.5
		C227.8,102.8,227.5,105.1,228.8,106.6z"/>
</g>
<g>
	<path class="st10" d="M199.8,109.3c1.3,1.6,3.6,1.8,5.2,0.5c1.6-1.2,1.8-3.6,0.5-5.1c-1.3-1.6-3.6-1.8-5.2-0.5
		C198.8,105.5,198.5,107.8,199.8,109.3z"/>
</g>
<g>
	<path class="st10" d="M179.5,111.6c1.3,1.6,3.6,1.8,5.2,0.5c1.6-1.2,1.8-3.6,0.5-5.1c-1.3-1.6-3.6-1.8-5.2-0.5
		C178.5,107.8,178.2,110.1,179.5,111.6z"/>
</g>
<g>
	<path class="st10" d="M154.1,85.6c1.3,1.6,3.6,1.8,5.2,0.5c1.6-1.2,1.8-3.6,0.5-5.1c-1.3-1.6-3.6-1.8-5.2-0.5
		C153.1,81.8,152.9,84.1,154.1,85.6z"/>
</g>
<g>
	<path class="st10" d="M149.8,106.3c1.3,1.6,3.6,1.8,5.2,0.5c1.6-1.2,1.8-3.6,0.5-5.1c-1.3-1.6-3.6-1.8-5.2-0.5
		C148.8,102.5,148.5,104.8,149.8,106.3z"/>
</g>
<g>
	<path class="st10" d="M148.5,131c1.3,1.6,3.6,1.8,5.2,0.5c1.6-1.2,1.8-3.6,0.5-5.1c-1.3-1.6-3.6-1.8-5.2-0.5
		C147.5,127.2,147.2,129.4,148.5,131z"/>
</g>
<g>
	<path class="st10" d="M150.5,150c1.3,1.6,3.6,1.8,5.2,0.5c1.6-1.2,1.8-3.6,0.5-5.1c-1.3-1.6-3.6-1.8-5.2-0.5
		C149.5,146.2,149.2,148.4,150.5,150z"/>
</g>
<g>
	<path class="st10" d="M128.5,111.1c1.3,1.6,3.6,1.8,5.2,0.5c1.6-1.2,1.8-3.6,0.5-5.1c-1.3-1.6-3.6-1.8-5.2-0.5
		C127.5,107.3,127.2,109.6,128.5,111.1z"/>
</g>
<g>
	<path class="st10" d="M129.8,137.8c1.3,1.6,3.6,1.8,5.2,0.5c1.6-1.2,1.8-3.6,0.5-5.1c-1.3-1.6-3.6-1.8-5.2-0.5
		C128.8,134,128.5,136.3,129.8,137.8z"/>
</g>
<g>
	<path class="st10" d="M109.6,133c1.3,1.6,3.6,1.8,5.2,0.5c1.6-1.2,1.8-3.6,0.5-5.1c-1.3-1.6-3.6-1.8-5.2-0.5
		C108.6,129.2,108.4,131.5,109.6,133z"/>
</g>
<g>
	<path class="st10" d="M129.8,159.6c1.3,1.6,3.6,1.8,5.2,0.5c1.6-1.2,1.8-3.6,0.5-5.1c-1.3-1.6-3.6-1.8-5.2-0.5
		C128.8,155.8,128.5,158.1,129.8,159.6z"/>
</g>
<g>
	<path class="st10" d="M226.1,85.6c1.3,1.6,3.6,1.8,5.2,0.5c1.6-1.2,1.8-3.6,0.5-5.1c-1.3-1.6-3.6-1.8-5.2-0.5
		C225.1,81.8,224.9,84.1,226.1,85.6z"/>
</g>
<g>
	<path class="st10" d="M198.1,82.6c1.3,1.6,3.6,1.8,5.2,0.5c1.6-1.2,1.8-3.6,0.5-5.1c-1.3-1.6-3.6-1.8-5.2-0.5
		C197.1,78.8,196.9,81.1,198.1,82.6z"/>
</g>
<g>
	<path class="st10" d="M180.8,90.6c1.3,1.6,3.6,1.8,5.2,0.5c1.6-1.2,1.8-3.6,0.5-5.1c-1.3-1.6-3.6-1.8-5.2-0.5
		C179.8,86.8,179.5,89.1,180.8,90.6z"/>
</g>
<g>
	<path class="st10" d="M133.6,87.8c1.3,1.6,3.6,1.8,5.2,0.5c1.6-1.2,1.8-3.6,0.5-5.1c-1.3-1.6-3.6-1.8-5.2-0.5
		C132.6,84,132.4,86.3,133.6,87.8z"/>
</g>
<g>
	<path class="st10" d="M251.9,134.4c-1.3-1.6-3.6-1.8-5.2-0.5c-1.6,1.2-1.8,3.6-0.5,5.1c1.3,1.6,3.6,1.8,5.2,0.5
		C252.9,138.2,253.1,135.9,251.9,134.4z"/>
</g>
<g>
	<path class="st10" d="M254,102.4c-1.3-1.6-3.6-1.8-5.2-0.5c-1.6,1.2-1.8,3.6-0.5,5.1c1.3,1.6,3.6,1.8,5.2,0.5
		C255,106.2,255.3,104,254,102.4z"/>
</g>
<g>
	<path class="st10" d="M252.2,79c-1.3-1.6-3.6-1.8-5.2-0.5c-1.6,1.2-1.8,3.6-0.5,5.1c1.3,1.6,3.6,1.8,5.2,0.5
		C253.2,82.8,253.5,80.6,252.2,79z"/>
</g>
<g>
	<path class="st10" d="M234.9,147.7c-1.3-1.6-3.6-1.8-5.2-0.5c-1.6,1.2-1.8,3.6-0.5,5.1c1.3,1.6,3.6,1.8,5.2,0.5
		C235.9,151.5,236.1,149.2,234.9,147.7z"/>
</g>
<g>
	<path class="st10" d="M252.3,154.9c-1.3-1.6-3.6-1.8-5.2-0.5c-1.6,1.2-1.8,3.6-0.5,5.1c1.3,1.6,3.6,1.8,5.2,0.5
		C253.3,158.7,253.6,156.4,252.3,154.9z"/>
</g>
<path class="st6" d="M266.5,254.3h-52.1c-2.4,0-4.4,2-4.4,4.4l0,0c0,2.4,2,4.4,4.4,4.4h52.1c2.4,0,4.4-2,4.4-4.4l0,0
	C270.9,256.3,269,254.3,266.5,254.3z"/>
<g>
	<g class="st11">
		<line class="st12" x1="169" y1="67" x2="169" y2="313"/>
		<line class="st12" x1="264.3" y1="67" x2="264.3" y2="313"/>
		<line class="st12" x1="121.3" y1="67" x2="121.3" y2="313"/>
		<line class="st12" x1="216.7" y1="67" x2="216.7" y2="313"/>
		<line class="st12" x1="73.7" y1="67" x2="73.7" y2="313"/>
	</g>
	<g class="st11">
		<line class="st12" x1="311.5" y1="168.5" x2="24.5" y2="168.5"/>
		<line class="st12" x1="311.5" y1="263.8" x2="24.5" y2="263.8"/>
		<line class="st12" x1="311.5" y1="120.8" x2="24.5" y2="120.8"/>
		<line class="st12" x1="311.5" y1="216.2" x2="24.5" y2="216.2"/>
	</g>
</g>
<g>
	<g>
		<path class="st13" d="M258.3,238.1c2,0,3.7,1.7,3.7,3.7l0,0l-12.1-0.1v-3.7L258.3,238.1z"/>
		<path class="st10" d="M262,231.6V226c2,0,3.7,1.7,3.7,3.7v2.8l-3.7,3.7V231.6z"/>
		<g>
			<path class="st13" d="M265.7,232.5v5.6c0,2-1.7,3.7-3.7,3.7v-5.6L265.7,232.5z"/>
			<path class="st13" d="M219.3,238.2c-2,0-3.7,1.7-3.7,3.7l0,0l12.1-0.1v-3.7L219.3,238.2z"/>
		</g>
		<path class="st10" d="M215.6,231.6v-5.6c-2,0-3.7,1.7-3.7,3.7v2.8l3.7,3.7V231.6z"/>
		<path class="st13" d="M211.9,232.6v5.6c0,2,1.7,3.7,3.7,3.7v-5.6L211.9,232.6z"/>
		<path class="st10" d="M249.4,245.6l-0.1,0.2c-1.3,2.2-3.7,3.5-6.2,3.5h-8.5c-2.5,0-4.9-1.3-6.2-3.5l0,0c-0.4-0.7-1-1.4-1.7-1.9
			l-8.3-6.6l0.6-0.6c5.6-5,12.8-7.8,20.3-7.8l0,0c6.9,0,13.6,2.3,18.9,6.6l1,0.8l-8.5,7.6C250.2,244.4,249.8,245,249.4,245.6z"/>
		<path class="st14" d="M258.2,235.6c-2.6-2-5.4-3.7-8.5-4.8c-4.2,8.1-11.8,14-20.8,15.9c1.4,1.7,3.4,2.6,5.6,2.7h8.5
			c2.5,0,4.9-1.3,6.2-3.5l0.1-0.2c0.4-0.6,0.8-1.2,1.4-1.7l8.5-7.6L258.2,235.6z"/>
		<g>
			<rect x="248.1" y="224.2" class="st13" width="1.9" height="5.6"/>
			<rect x="250.9" y="222.4" class="st13" width="1.9" height="4.6"/>
			<rect x="253.7" y="220.5" class="st13" width="1.9" height="3.7"/>
			<rect x="227.7" y="224.2" class="st13" width="1.9" height="5.6"/>
			<rect x="224.9" y="222.4" class="st13" width="1.9" height="4.6"/>
			<rect x="222.1" y="220.5" class="st13" width="1.9" height="4.6"/>
		</g>
		<g>
			<path class="st15" d="M233.2,229.8c-1.5,0-2.8-1.2-2.8-2.8c0-1.5,1.2-2.8,2.8-2.8c1.5,0,2.8,1.2,2.8,2.8
				C236,228.6,234.8,229.8,233.2,229.8z"/>
			<path class="st15" d="M244.4,229.8c-1.5,0-2.8-1.2-2.8-2.8c0-1.5,1.2-2.8,2.8-2.8c1.5,0,2.8,1.2,2.8,2.8
				C247.2,228.6,245.9,229.8,244.4,229.8z"/>
		</g>
		<path class="st13" d="M228.6,253h2.8c2,0,3.7-1.7,3.7-3.7h-10.2C224.9,251.4,226.6,253,228.6,253z"/>
		<path class="st10" d="M221.2,253L221.2,253c0-2,1.7-3.7,3.7-3.7l0,0v7.4l0,0C222.8,256.7,221.2,255.1,221.2,253z"/>
		<path class="st13" d="M220.3,249.3h2.8c2,0,3.7-1.7,3.7-3.7h-10.2C216.5,247.6,218.2,249.3,220.3,249.3z"/>
		<path class="st10" d="M212.8,250.2v1.9l3.7,3.7v-10.2C213.8,245.6,212.8,248.1,212.8,250.2z"/>
		<g>
			<path class="st13" d="M218.4,261.3h2.8l-4.6-5.6h-3.7C212.8,258.8,215.3,261.3,218.4,261.3L218.4,261.3z"/>
			<path class="st13" d="M249,253h-2.8c-2,0-3.7-1.7-3.7-3.7h10.2C252.7,251.4,251.1,253,249,253z"/>
		</g>
		<path class="st10" d="M256.4,253L256.4,253c0-2-1.7-3.7-3.7-3.7l0,0v7.4l0,0C254.8,256.7,256.4,255.1,256.4,253z"/>
		<g>
			<path class="st13" d="M256.4,249.3h-2.8c-2,0-3.7-1.7-3.7-3.7h10.2C260.2,247.6,258.5,249.3,256.4,249.3z"/>
			<path class="st13" d="M260.2,254.8v6.5c2,0,3.7-1.7,3.7-3.7v-6.5L260.2,254.8z"/>
		</g>
		<path class="st10" d="M263.9,249.3c0-2-1.7-3.7-3.7-3.7v9.3l3.7-3.7V249.3z"/>
		<g>
			<path class="st13" d="M224.9,256.7h7c1.3,0,2.3,1,2.3,2.3l0,0c0,1.3-1,2.3-2.3,2.3h-4.6c-1.3,0-2.3-1-2.3-2.3V256.7L224.9,256.7z
				"/>
			<path class="st13" d="M250.4,261.3h-4.6c-1.3,0-2.3-1-2.3-2.3l0,0c0-1.3,1-2.3,2.3-2.3h7l0,0v2.3
				C252.7,260.3,251.7,261.3,250.4,261.3z"/>
			<path class="st13" d="M236,214c0-2-1.7-3.7-3.7-3.7h-4.6l1.9,3.7H236z"/>
		</g>
		<g>
			<path class="st10" d="M229.5,214l-1.9-3.7h-2.8c-4.1,0-7.4,3.3-7.4,7.4h14.8c2,0,3.7-1.7,3.7-3.7H229.5z"/>
			<path class="st10" d="M217.5,217.7L217.5,217.7c-2.6,2.6-2.6,6.7,0,9.3l2.5,2.2c2.8,2.4,6.8,1.5,10.5,0.6L217.5,217.7z"/>
		</g>
		<path class="st16" d="M250.1,210.2l-2.7-2.3c-1.8-1.8-4.7-1.8-6.6,0c-0.4,0.4-0.4,1,0,1.3c0.3,0.3,0.7,0.3,1,0.2l0.6-0.3l4,5.4
			c0.2,0.2,0.4,0.4,0.7,0.4h0.7c0.4,0,0.7-0.2,0.8-0.5l1.5-3.1C250.5,210.9,250.4,210.5,250.1,210.2z"/>
		<g>
			<path class="st10" d="M252.6,210.3h-2.8L248,214h-6.5c0,2,1.7,3.7,3.7,3.7H260C260,213.6,256.7,210.3,252.6,210.3z"/>
			<path class="st10" d="M260.1,217.7L260.1,217.7c2.6,2.6,2.6,6.7,0,9.3l-2.5,2.2c-2.8,2.4-6.8,1.5-10.5,0.6L260.1,217.7z"/>
		</g>
		<g>
			<path class="st16" d="M246.2,240c-0.5,0-0.9-0.4-0.9-0.9c0-0.3,0.1-0.5,0.3-0.7c1.4-1.3,3.2-2.1,5.1-2.1l8.6-0.1
				c0.5,0,0.9,0.4,0.9,0.9s-0.4,0.9-0.9,0.9l-8.6,0.1c-1.4,0-2.8,0.6-3.8,1.5C246.7,239.9,246.5,240,246.2,240z"/>
			<path class="st16" d="M231.4,240.9c-0.2,0-0.5-0.1-0.6-0.3c-1-1-2.4-1.5-3.8-1.5h-8.6c-0.5,0-0.9-0.4-0.9-0.9
				c0-0.5,0.4-0.9,0.9-0.9h8.6c1.9,0,3.7,0.7,5.1,2.1c0.4,0.4,0.4,0.9,0,1.3C231.9,240.8,231.6,240.9,231.4,240.9z"/>
			<rect x="232.3" y="233.5" class="st16" width="1.9" height="1.9"/>
			<rect x="237.9" y="233.5" class="st16" width="1.9" height="1.9"/>
			<rect x="243.4" y="233.5" class="st16" width="1.9" height="1.9"/>
			<rect x="235.1" y="237.2" class="st16" width="1.9" height="1.9"/>
			<rect x="240.7" y="237.2" class="st16" width="1.9" height="1.9"/>
		</g>
	</g>
</g>
<path class="st6" d="M111.2,155.3H76.5c-3,0-5.5,2.5-5.5,5.5v0c0,3,2.5,5.5,5.5,5.5h34.7c3,0,5.5-2.5,5.5-5.5v0
	C116.7,157.8,114.2,155.3,111.2,155.3z"/>
<g>
	<g>
		<path class="st10" d="M106,151.6c1.7,2.1,4.9,2.4,7,0.7c2.1-1.7,2.4-4.8,0.7-6.9c-1.7-2.1-4.8-2.5-7-0.7
			C104.6,146.4,104.3,149.5,106,151.6z"/>
	</g>
	<path class="st2" d="M114.6,139c-2.3-4.3-7.6-5.8-11.5-4.8l-5.5,19.6L99,159c3.7,3.5,6.3,3.3,6.3,3.3
		C116,165.2,119.6,148.3,114.6,139z"/>
	<path class="st17" d="M110.7,138c-2.5-1.8-5.8-2-8.9-1l-4,20.5C114.6,166.8,117.8,143,110.7,138z"/>
	<path class="st18" d="M101.6,138.1L98.4,155c13.6,3.5,15.8-12.2,9.4-15.7C106,138.3,103.8,138,101.6,138.1z"/>
	<path class="st19" d="M72,116.7c-2.7,2,0.2,5.7,0.2,5.7l5.1-4.8C77.4,117.6,74.3,115,72,116.7z"/>
	<path class="st2" d="M74.3,118.9c-5.7,4.9-0.4,11.9-0.4,11.9l9.7-10.8C83.6,120.1,79.2,114.7,74.3,118.9z"/>
	<g>
		<path class="st19" d="M75.8,125.5c-1.4-1.5-2.3-4-2-6.2c-5.1,4.9,0,11.6,0,11.6l3.4-3.7L75.8,125.5z"/>
		<path class="st19" d="M82.9,119.9c-0.8,0.2-1.6,0.6-2.3,1l-0.6,0.4c-0.9,0.6-1.7,1.2-2.5,2c0,0,0,0,0,0c-8.6,9-1.2,18.8-1.2,18.8
			l14.9-18.7C91.3,123.5,88.1,118.6,82.9,119.9z"/>
	</g>
	<path class="st17" d="M78.6,133.4c-3-2-3.2-5.5-2.8-7.9c-5.7,8.3,0.6,16.6,0.6,16.6l6-7.5L78.6,133.4z"/>
	<path class="st2" d="M100.8,158.5c-2.4-4.6-0.5-12,1.7-18.2c4.1-11.1-5.5-18.8-12.8-17c-0.7,0.2-1.4,0.5-2,0.8
		c-2.3,1.3-4.4,2.9-6.2,4.9c-5,5.7-8,14.7-2.3,23.8c7.6,12,18.7,12.2,25.9,9.4C105.3,162.3,102.5,161.7,100.8,158.5z"/>
	<path class="st19" d="M100.8,158.5c-0.4-0.8-0.7-1.6-0.8-2.6c-13-1.4-20.1-13.6-21.3-22.6c-2.9,5.5-3.7,12.4,0.7,19.5
		c7.6,12,18.7,12.2,25.9,9.4C105.3,162.3,102.5,161.7,100.8,158.5z"/>
</g>
</svg>
