<?xml version="1.0" encoding="utf-8"?>
<!-- Generator: Adobe Illustrator 22.0.1, SVG Export Plug-In . SVG Version: 6.00 Build 0)  -->
<svg version="1.1" id="Layer_1" xmlns="http://www.w3.org/2000/svg" xmlns:xlink="http://www.w3.org/1999/xlink" x="0px" y="0px"
	 viewBox="0 0 336.7 400" style="enable-background:new 0 0 336.7 400;" xml:space="preserve">
<style type="text/css">
	.st0{fill:#FFFFFF;}
	.st1{fill:#E8A434;}
	.st2{fill:#424A60;}
	.st3{fill:#FFEEA4;}
	.st4{fill:#FADC3C;}
	.st5{fill:#FF5A00;}
	.st6{fill:#00CDC8;}
</style>
<g>
	<path class="st0" d="M262.3,387.1c-5.5,0-10.7-2.2-14.6-6.1l-16.3-16.3c-19.4,10-41.1,15.2-63,15.2c-21.3,0-42.4-5-61.4-14.4
		l-15.5,15.5c-3.9,3.9-9.1,6.1-14.6,6.1c-5.5,0-10.7-2.2-14.6-6.1c-8.1-8.1-8.1-21.2,0-29.3l10.4-10.4c-27.1-26-42.5-62-42.5-99.7
		c0-25.8,7.2-50.8,20.6-72.5L40,180c-1.1,1.1-2.6,1.7-4,1.7c-1.4,0-2.9-0.6-4-1.7c-18.2-18.2-21.7-45.9-9.3-67.9
		c-2.4-2.7-3.8-6.3-3.8-10.1c0-8.4,6.9-15.3,15.3-15.3c3.8,0,7.4,1.4,10.1,3.9c8.4-4.8,17.9-7.2,27.7-7.2c15.1,0,29.3,5.9,40,16.6
		c1.1,1.1,1.7,2.5,1.7,4s-0.6,2.9-1.7,4l-16.2,16.2c21.7-13.4,46.9-20.6,72.5-20.6c29.7,0,58.8,9.7,82.6,27.5l0.4-0.4l-22.7-22.7
		c-1.1-1.1-1.7-2.5-1.7-4s0.6-2.9,1.7-4c10.7-10.7,24.9-16.6,40-16.6c10.9,0,21.6,3.2,30.7,9.1c2.4-1.5,5.1-2.3,8-2.3
		c8.4,0,15.3,6.9,15.3,15.3c0,3.5-1.2,6.8-3.3,9.4c10.7,21.6,6.6,47.8-10.7,65.1c-1.1,1.1-2.5,1.7-4,1.7c-1.5,0-2.9-0.6-4-1.7
		l-24.3-24.3c19.5,24.4,30.2,54.7,30.2,86.1c0,37-15,72.5-41.3,98.4l11.7,11.7c8.1,8.1,8.1,21.2,0,29.3
		C273.1,385,267.9,387.1,262.3,387.1z"/>
	<path class="st0" d="M268.7,89c11,0,22,3.5,31.1,10.6c1.8-2.3,4.5-3.8,7.7-3.8c5.3,0,9.6,4.3,9.6,9.6c0,3.5-1.9,6.6-4.7,8.3
		c11.8,19.6,9.3,45.4-7.6,62.3l-29.6-29.6l-7.6,7.6c20.7,23.4,33.4,54.2,33.4,87.8c0,38.9-16.9,74-43.7,98.3l15.8,15.8
		c5.9,5.9,5.9,15.4,0,21.3c-2.9,2.9-6.8,4.4-10.6,4.4s-7.7-1.5-10.6-4.4l-19.3-19.3c-19,10.5-40.8,16.5-64.1,16.5
		c-22.6,0-43.8-5.7-62.4-15.7l-18.4,18.4c-2.9,2.9-6.8,4.4-10.6,4.4s-7.7-1.5-10.6-4.4c-5.9-5.9-5.9-15.4,0-21.3l14.6-14.6
		c-27.6-24.3-45.1-59.9-45.1-99.5c0-33.4,12.4-63.9,32.8-87.2l-5.6-5.6L36,176c-17.7-17.7-19.6-45.3-5.7-65.2
		c-3.4-1.5-5.7-4.9-5.7-8.8c0-5.3,4.3-9.6,9.6-9.6c3.9,0,7.3,2.3,8.8,5.7C51.7,92,61.9,89,72,89c13,0,26.1,5,36,14.9l-29.2,29.2
		l5.9,5.9c22.8-18.6,52-29.8,83.7-29.8c31.4,0,60.3,11,83.1,29.4l7.9-7.9l-26.7-26.7C242.6,94,255.6,89,268.7,89 M268.7,77.7
		c-16.6,0-32.3,6.5-44,18.2c-3.4,3.4-4.2,8.3-2.4,12.4c-1.7-0.7-3.5-1.4-5.3-2c-15.6-5.6-32-8.5-48.6-8.5c-16.8,0-33.3,2.9-49,8.6
		c-0.1,0-0.2,0.1-0.3,0.1c0.9-3.7-0.1-7.8-3-10.7c-11.8-11.8-27.4-18.2-44-18.2c-9.6,0-18.8,2.1-27.3,6.3c-3.2-1.9-6.8-2.9-10.6-2.9
		c-11.5,0-20.9,9.4-20.9,20.9c0,3.8,1,7.4,2.9,10.5C4.5,136.1,8.9,164.9,28,184c2,2,4.6,3.1,7.2,3.3c-7,17.2-10.7,35.6-10.7,54.5
		c0,37.2,14.5,72.9,40.2,99.7l-6.4,6.4c-5,5-7.7,11.6-7.7,18.6c0,7,2.7,13.6,7.7,18.6c5,5,11.6,7.7,18.6,7.7c7,0,13.7-2.7,18.6-7.7
		l12.7-12.7c18.8,8.7,39.4,13.2,60.2,13.2c21.4,0,42.7-4.8,61.9-14l13.5,13.5c5,5,11.6,7.7,18.6,7.7c7,0,13.7-2.7,18.6-7.7
		c5-5,7.7-11.6,7.7-18.6c0-7-2.7-13.6-7.7-18.6l-7.7-7.7c10.8-11.5,19.6-24.6,26.1-39c8.5-18.7,12.8-38.7,12.8-59.3
		c0-19-3.8-37.7-11-55c1.1,0.4,2.3,0.5,3.4,0.5c3,0,5.9-1.2,8-3.3c18.3-18.3,23.2-45.5,13.2-68.7c1.6-3,2.5-6.4,2.5-9.9
		c0-11.5-9.4-20.9-20.9-20.9c-2.7,0-5.3,0.5-7.8,1.5C290.3,80.6,279.5,77.7,268.7,77.7L268.7,77.7z"/>
</g>
<path class="st1" d="M235.4,170.3c-4.4-4.4-4.4-11.4,0-15.8l33.4-33.4c4.4-4.4,11.4-4.4,15.8,0s4.4,11.4,0,15.8l-33.4,33.4
	c-2.2,2.2-5,3.3-7.9,3.3C240.5,173.6,237.6,172.5,235.4,170.3z"/>
<path class="st1" d="M92.3,173.6c-2.9,0-5.7-1.1-7.9-3.3L51,136.9c-4.4-4.4-4.4-11.4,0-15.8s11.4-4.4,15.8,0l33.4,33.4
	c4.4,4.4,4.4,11.4,0,15.8C98,172.5,95.1,173.6,92.3,173.6z"/>
<path class="st2" d="M76.9,381.5c-3.8,0-7.7-1.5-10.6-4.4c-5.9-5.9-5.9-15.4,0-21.3l59.1-59.1c5.9-5.9,15.4-5.9,21.3,0
	c5.9,5.9,5.9,15.4,0,21.3l-59.1,59.1C84.6,380,80.7,381.5,76.9,381.5z"/>
<path class="st2" d="M251.7,377.1L192.6,318c-5.9-5.9-5.9-15.4,0-21.3s15.4-5.9,21.3,0l59.1,59.1c5.9,5.9,5.9,15.4,0,21.3
	c-2.9,2.9-6.8,4.4-10.6,4.4C258.5,381.5,254.6,380,251.7,377.1z"/>
<circle class="st3" cx="168.3" cy="241.8" r="123.1"/>
<circle class="st4" cx="168.3" cy="241.8" r="27.6"/>
<g>
	<g>
		<path class="st2" d="M166.7,157.3c0,1.2-0.7,1.9-2.1,1.9h-11.9c-1.4,0-2.1-0.6-2.1-1.9c0-1.2,0.7-1.8,2.1-1.8h3.6v-16l-3.4,2.1
			c-0.3,0.2-0.6,0.3-0.9,0.3c-0.5,0-0.9-0.2-1.2-0.6c-0.3-0.4-0.5-0.9-0.5-1.4c0-0.7,0.3-1.2,0.9-1.6l5.4-3.4c0.7-0.4,1.4-0.6,2-0.6
			c0.7,0,1.2,0.2,1.6,0.6c0.4,0.4,0.6,0.9,0.6,1.6v19h3.7C166,155.5,166.7,156.1,166.7,157.3z"/>
		<path class="st2" d="M187.6,157.3c0,1.2-0.7,1.9-2.1,1.9h-13.3c-0.6,0-1.1-0.2-1.4-0.5c-0.4-0.4-0.5-0.8-0.5-1.4
			c0-0.7,0.3-1.3,0.8-1.9l8-8.6c1-1.1,1.7-2.1,2.2-3c0.5-0.9,0.7-1.8,0.7-2.7c0-1.1-0.3-1.9-0.9-2.5c-0.6-0.6-1.5-0.9-2.7-0.9
			c-1,0-1.9,0.2-2.8,0.5c-0.9,0.4-1.8,0.9-2.7,1.5c-0.2,0.2-0.5,0.3-0.7,0.4c-0.2,0.1-0.5,0.2-0.7,0.2c-0.4,0-0.7-0.2-1-0.6
			c-0.3-0.4-0.4-0.8-0.4-1.3c0-0.4,0.1-0.7,0.2-0.9c0.1-0.3,0.3-0.5,0.6-0.7c1-0.8,2.2-1.5,3.6-1.9c1.4-0.5,2.8-0.7,4.1-0.7
			c2.4,0,4.3,0.6,5.8,1.8c1.4,1.2,2.2,2.9,2.2,4.9c0,1.4-0.3,2.8-0.9,4c-0.6,1.3-1.6,2.6-3.1,4.2l-6.1,6.5h9.3
			C186.9,155.5,187.6,156.1,187.6,157.3z"/>
	</g>
	<g>
		<path class="st2" d="M173.5,330.4c1.1,0.7,2,1.6,2.7,2.8c0.6,1.2,1,2.6,1,4.1c0,1.6-0.4,3-1.1,4.3c-0.7,1.3-1.7,2.2-2.9,2.9
			s-2.7,1.1-4.3,1.1c-3.1,0-5.5-1.1-7.2-3.2c-1.7-2.1-2.5-5.1-2.5-9.1c0-2.7,0.4-5,1.2-7c0.8-2,1.9-3.5,3.4-4.5
			c1.5-1.1,3.2-1.6,5.2-1.6c1.3,0,2.7,0.2,4,0.7c1.3,0.5,2.5,1.1,3.4,1.9c0.3,0.3,0.5,0.5,0.6,0.8c0.1,0.2,0.2,0.5,0.2,0.9
			c0,0.5-0.1,1-0.4,1.3c-0.3,0.4-0.6,0.5-1,0.5c-0.2,0-0.5,0-0.7-0.1c-0.2-0.1-0.5-0.2-0.8-0.4c-1.9-1.4-3.7-2-5.2-2
			c-1.7,0-3.1,0.8-4,2.4c-1,1.6-1.5,3.8-1.5,6.6c0.5-1.1,1.3-1.9,2.4-2.5c1.1-0.6,2.3-0.9,3.6-0.9
			C171.1,329.4,172.4,329.8,173.5,330.4z M171.7,340.8c0.8-0.8,1.2-1.9,1.2-3.3s-0.4-2.4-1.2-3.3c-0.8-0.8-1.8-1.2-3.1-1.2
			c-1.3,0-2.4,0.4-3.2,1.2c-0.8,0.8-1.2,1.9-1.2,3.2c0,1.4,0.4,2.4,1.2,3.3c0.8,0.8,1.9,1.2,3.2,1.2
			C169.9,342,171,341.6,171.7,340.8z"/>
	</g>
	<g>
		<path class="st2" d="M80.6,230.5c1.7,2.1,2.5,5.1,2.5,9.1c0,2.7-0.4,5-1.2,7c-0.8,2-1.9,3.5-3.4,4.5c-1.5,1.1-3.2,1.6-5.2,1.6
			c-1.3,0-2.7-0.2-4-0.7c-1.3-0.5-2.5-1.1-3.4-1.9c-0.3-0.3-0.5-0.5-0.6-0.8c-0.1-0.2-0.2-0.5-0.2-0.9c0-0.5,0.1-1,0.4-1.3
			c0.3-0.4,0.6-0.5,1-0.5c0.2,0,0.5,0,0.7,0.1c0.2,0.1,0.5,0.2,0.8,0.4c1.9,1.4,3.7,2,5.2,2c1.7,0,3.1-0.8,4-2.4
			c1-1.6,1.5-3.8,1.5-6.6c-0.5,1.1-1.3,1.9-2.4,2.5c-1.1,0.6-2.3,0.9-3.6,0.9c-1.5,0-2.8-0.3-3.9-1c-1.1-0.7-2-1.6-2.7-2.8
			c-0.6-1.2-1-2.6-1-4.1c0-1.6,0.4-3,1.1-4.3c0.7-1.3,1.7-2.2,2.9-2.9c1.3-0.7,2.7-1.1,4.3-1.1C76.5,227.3,78.9,228.4,80.6,230.5z
			 M76.8,238.6c0.8-0.8,1.2-1.9,1.2-3.2c0-1.4-0.4-2.4-1.2-3.3c-0.8-0.8-1.9-1.2-3.2-1.2c-1.3,0-2.3,0.4-3.1,1.2
			c-0.8,0.8-1.2,1.9-1.2,3.3s0.4,2.4,1.2,3.3c0.8,0.8,1.8,1.2,3.1,1.2C74.9,239.9,76,239.5,76.8,238.6z"/>
	</g>
	<g>
		<path class="st2" d="M97.5,282c0.5,0.7,0.8,1.5,0.8,2.5c0,1.4-0.5,2.5-1.6,3.3c-1.1,0.8-2.5,1.2-4.4,1.2c-1.9,0-3.3-0.4-4.4-1.2
			c-1.1-0.8-1.6-1.9-1.6-3.3c0-1,0.3-1.8,0.8-2.5c0.5-0.7,1.2-1.2,2.2-1.4c-0.8-0.3-1.4-0.8-1.9-1.4c-0.5-0.6-0.7-1.4-0.7-2.3
			c0-1.3,0.5-2.4,1.5-3.1c1-0.8,2.4-1.2,4.1-1.2c1.7,0,3.1,0.4,4.1,1.2c1,0.8,1.5,1.8,1.5,3.1c0,0.9-0.2,1.6-0.7,2.3
			c-0.5,0.6-1.1,1.1-1.9,1.4C96.3,280.9,97,281.4,97.5,282z M95.5,284.3c0-1.6-1.1-2.4-3.2-2.4s-3.2,0.8-3.2,2.4
			c0,1.6,1.1,2.4,3.2,2.4S95.5,285.9,95.5,284.3z M89.4,277.3c0,0.8,0.2,1.4,0.7,1.8c0.5,0.4,1.2,0.6,2.1,0.6s1.6-0.2,2.1-0.6
			s0.7-1,0.7-1.8c0-1.5-0.9-2.3-2.8-2.3C90.4,275,89.4,275.7,89.4,277.3z"/>
	</g>
	<g>
		<path class="st2" d="M91.4,208.4c0,0.8-0.5,1.2-1.4,1.2h-7.6c-0.9,0-1.4-0.4-1.4-1.2c0-0.8,0.5-1.2,1.4-1.2h2.4V197l-2.2,1.3
			c-0.2,0.1-0.4,0.2-0.6,0.2c-0.3,0-0.6-0.1-0.8-0.4c-0.2-0.3-0.3-0.6-0.3-0.9c0-0.4,0.2-0.8,0.6-1L85,194c0.5-0.3,0.9-0.4,1.3-0.4
			c0.4,0,0.8,0.1,1,0.4c0.3,0.3,0.4,0.6,0.4,1.1v12.3H90C90.9,207.3,91.4,207.7,91.4,208.4z"/>
		<path class="st2" d="M94.7,207.7c-1-1.4-1.5-3.4-1.5-6.1c0-2.7,0.5-4.7,1.5-6.1c1-1.4,2.4-2.1,4.3-2.1c1.9,0,3.3,0.7,4.3,2.1
			c1,1.4,1.5,3.4,1.5,6.1s-0.5,4.7-1.5,6.1c-1,1.4-2.4,2.1-4.3,2.1C97.2,209.8,95.7,209.1,94.7,207.7z M101.3,206.1
			c0.5-0.9,0.7-2.4,0.7-4.5c0-2.1-0.2-3.6-0.7-4.5c-0.5-0.9-1.2-1.4-2.2-1.4c-1,0-1.8,0.5-2.2,1.4c-0.5,0.9-0.7,2.4-0.7,4.5
			c0,2.1,0.2,3.5,0.7,4.5c0.5,0.9,1.2,1.4,2.2,1.4C100.1,207.5,100.8,207.1,101.3,206.1z"/>
	</g>
	<g>
		<path class="st2" d="M120.8,175.3c0,0.8-0.5,1.2-1.4,1.2h-7.6c-0.9,0-1.4-0.4-1.4-1.2c0-0.8,0.5-1.2,1.4-1.2h2.4v-10.3l-2.2,1.3
			c-0.2,0.1-0.4,0.2-0.6,0.2c-0.3,0-0.6-0.1-0.8-0.4c-0.2-0.3-0.3-0.6-0.3-0.9c0-0.4,0.2-0.8,0.6-1l3.5-2.2c0.5-0.3,0.9-0.4,1.3-0.4
			c0.4,0,0.8,0.1,1,0.4c0.3,0.3,0.4,0.6,0.4,1.1v12.3h2.4C120.4,174.2,120.8,174.6,120.8,175.3z"/>
		<path class="st2" d="M134.4,175.3c0,0.8-0.5,1.2-1.4,1.2h-7.6c-0.9,0-1.4-0.4-1.4-1.2c0-0.8,0.5-1.2,1.4-1.2h2.4v-10.3l-2.2,1.3
			c-0.2,0.1-0.4,0.2-0.6,0.2c-0.3,0-0.6-0.1-0.8-0.4c-0.2-0.3-0.3-0.6-0.3-0.9c0-0.4,0.2-0.8,0.6-1l3.5-2.2c0.5-0.3,0.9-0.4,1.3-0.4
			c0.4,0,0.8,0.1,1,0.4c0.3,0.3,0.4,0.6,0.4,1.1v12.3h2.4C133.9,174.2,134.4,174.6,134.4,175.3z"/>
	</g>
	<g>
		<path class="st2" d="M249.2,208.4c0,0.8-0.5,1.2-1.4,1.2h-8.6c-0.4,0-0.7-0.1-0.9-0.4c-0.2-0.2-0.3-0.5-0.3-0.9
			c0-0.5,0.2-0.9,0.5-1.2l5.2-5.5c0.6-0.7,1.1-1.3,1.4-1.9c0.3-0.6,0.4-1.2,0.4-1.7c0-0.7-0.2-1.3-0.6-1.6c-0.4-0.4-1-0.6-1.7-0.6
			c-0.6,0-1.2,0.1-1.8,0.4c-0.6,0.2-1.2,0.6-1.8,1c-0.2,0.1-0.3,0.2-0.5,0.3c-0.2,0.1-0.3,0.1-0.5,0.1c-0.3,0-0.5-0.1-0.7-0.4
			c-0.2-0.2-0.3-0.5-0.3-0.9c0-0.2,0-0.4,0.1-0.6c0.1-0.2,0.2-0.3,0.4-0.5c0.7-0.5,1.4-0.9,2.3-1.3c0.9-0.3,1.8-0.5,2.7-0.5
			c1.6,0,2.8,0.4,3.7,1.2c0.9,0.8,1.4,1.8,1.4,3.2c0,0.9-0.2,1.8-0.6,2.6c-0.4,0.8-1.1,1.7-2,2.7l-3.9,4.2h6
			C248.7,207.3,249.2,207.7,249.2,208.4z"/>
	</g>
	<g>
		<path class="st2" d="M249.4,283.7c0.2,0.2,0.3,0.5,0.3,0.8c0,0.8-0.5,1.1-1.4,1.1h-1.2v1.8c0,0.5-0.1,0.8-0.4,1.1
			c-0.3,0.3-0.6,0.4-1,0.4c-0.4,0-0.8-0.1-1-0.4c-0.3-0.3-0.4-0.6-0.4-1.1v-1.8h-5.9c-0.4,0-0.7-0.1-1-0.4c-0.2-0.2-0.3-0.5-0.3-0.9
			c0-0.4,0.1-0.7,0.4-1l7-10c0.2-0.2,0.3-0.4,0.6-0.5c0.2-0.1,0.5-0.2,0.7-0.2c0.4,0,0.7,0.1,1,0.4c0.3,0.3,0.4,0.6,0.4,1.1v9.2h1.2
			C248.9,283.4,249.2,283.5,249.4,283.7z M240.2,283.4h4.2v-6.1L240.2,283.4z"/>
	</g>
	<g>
		<path class="st2" d="M220.2,314.3c0.8,0.4,1.4,1,1.8,1.8c0.4,0.8,0.6,1.7,0.6,2.6c0,1-0.2,2-0.7,2.8c-0.5,0.8-1.1,1.4-2,1.9
			c-0.9,0.4-1.9,0.7-3,0.7c-0.9,0-1.9-0.2-2.7-0.5c-0.9-0.3-1.7-0.7-2.3-1.3c-0.3-0.3-0.5-0.7-0.5-1.1c0-0.3,0.1-0.6,0.3-0.8
			c0.2-0.2,0.4-0.4,0.7-0.4c0.2,0,0.3,0,0.4,0.1c0.1,0.1,0.3,0.1,0.5,0.3c0.6,0.4,1.2,0.7,1.8,1s1.2,0.3,1.8,0.3
			c1,0,1.8-0.2,2.3-0.7c0.5-0.5,0.8-1.2,0.8-2.1c0-0.9-0.3-1.6-0.8-2.1c-0.5-0.5-1.3-0.8-2.2-0.8c-0.6,0-1.1,0.1-1.6,0.2
			c-0.5,0.2-0.9,0.4-1.4,0.8c-0.3,0.2-0.6,0.3-0.9,0.3s-0.6-0.1-0.8-0.3c-0.2-0.2-0.3-0.4-0.3-0.7v-7.1c0-0.4,0.1-0.8,0.4-1
			c0.2-0.2,0.6-0.4,1-0.4h7.5c0.9,0,1.4,0.4,1.4,1.1c0,0.8-0.5,1.1-1.4,1.1h-6.1v4.3c0.8-0.5,1.7-0.8,2.8-0.8
			C218.6,313.7,219.5,313.9,220.2,314.3z"/>
	</g>
	<g>
		<path class="st2" d="M127.2,308.3c0.2,0.2,0.3,0.5,0.3,0.8c0,0.3-0.1,0.7-0.3,1.1l-7.2,13.1c-0.3,0.5-0.7,0.8-1.2,0.8
			c-0.4,0-0.7-0.1-1-0.4c-0.3-0.2-0.4-0.6-0.4-0.9c0-0.3,0.1-0.5,0.2-0.8l6.5-11.7h-6.8c-0.9,0-1.4-0.4-1.4-1.2
			c0-0.8,0.5-1.2,1.4-1.2h9.1C126.7,308,127,308.1,127.2,308.3z"/>
	</g>
	<g>
		<path class="st2" d="M222.6,175.3c0,0.8-0.5,1.2-1.4,1.2h-7.6c-0.9,0-1.4-0.4-1.4-1.2c0-0.8,0.5-1.2,1.4-1.2h2.4v-10.3l-2.2,1.3
			c-0.2,0.1-0.4,0.2-0.6,0.2c-0.3,0-0.6-0.1-0.8-0.4c-0.2-0.3-0.3-0.6-0.3-0.9c0-0.4,0.2-0.8,0.6-1l3.5-2.2c0.5-0.3,0.9-0.4,1.3-0.4
			c0.4,0,0.8,0.1,1,0.4c0.3,0.3,0.4,0.6,0.4,1.1v12.3h2.4C222.2,174.2,222.6,174.6,222.6,175.3z"/>
	</g>
	<g>
		<path class="st2" d="M271.4,241.8c0.8,1,1.2,2.3,1.2,3.9c0,2.1-0.8,3.8-2.4,5.1c-1.6,1.3-3.7,1.9-6.3,1.9c-1.5,0-3-0.2-4.4-0.7
			c-1.4-0.5-2.6-1.1-3.6-2c-0.5-0.5-0.8-1-0.8-1.6c0-0.5,0.1-1,0.4-1.3s0.6-0.5,1-0.5c0.2,0,0.4,0,0.6,0.1c0.2,0.1,0.4,0.2,0.8,0.4
			c1,0.7,1.9,1.2,2.8,1.5c0.9,0.4,1.9,0.5,2.9,0.5c1.5,0,2.7-0.3,3.4-0.9c0.7-0.6,1.1-1.6,1.1-2.8c0-1.2-0.4-2.2-1.2-2.8
			c-0.8-0.6-2-0.9-3.6-0.9h-2c-0.5,0-1-0.2-1.2-0.5c-0.3-0.4-0.4-0.8-0.4-1.2c0-0.5,0.1-0.9,0.4-1.3c0.3-0.4,0.7-0.5,1.2-0.5h1.4
			c3.2,0,4.8-1.2,4.8-3.6c0-1.1-0.3-2-1-2.6c-0.7-0.6-1.6-0.9-2.8-0.9c-1.7,0-3.5,0.7-5.5,2c-0.3,0.2-0.6,0.3-0.8,0.4
			c-0.2,0.1-0.4,0.1-0.6,0.1c-0.4,0-0.7-0.2-1-0.5c-0.3-0.4-0.4-0.8-0.4-1.3c0-0.4,0.1-0.6,0.2-0.9c0.1-0.2,0.3-0.5,0.6-0.8
			c1-0.8,2.2-1.5,3.5-1.9c1.4-0.5,2.8-0.7,4.2-0.7c2.4,0,4.4,0.6,5.8,1.8c1.4,1.2,2.2,2.8,2.2,4.8c0,1.4-0.4,2.5-1.1,3.6
			c-0.7,1-1.7,1.8-2.9,2.2C269.5,240,270.7,240.7,271.4,241.8z"/>
	</g>
</g>
<path class="st4" d="M168.3,374.3c-73.1,0-132.6-59.5-132.6-132.6s59.5-132.6,132.6-132.6s132.6,59.5,132.6,132.6
	S241.4,374.3,168.3,374.3z M168.3,128.1c-62.7,0-113.6,51-113.6,113.6s51,113.6,113.6,113.6S282,304.4,282,241.8
	S231,128.1,168.3,128.1z"/>
<path class="st5" d="M127,258.3l38.5-22.1c3.5-2,8.1-0.8,10.1,2.7c2,3.5,0.8,8.1-2.7,10.1l-38.5,22.1c-3.5,2-8.1,0.8-10.1-2.7
	S123.4,260.3,127,258.3z"/>
<path class="st6" d="M168.3,232.3c-2.6,0-4.7-2.1-4.7-4.7v-52.1c0-2.6,2.1-4.7,4.7-4.7c2.6,0,4.7,2.1,4.7,4.7v52.1
	C173.1,230.2,171,232.3,168.3,232.3z"/>
<circle class="st1" cx="34.2" cy="102" r="9.6"/>
<circle class="st1" cx="307.4" cy="105.4" r="9.6"/>
<path class="st4" d="M36,103.9c-19.9,19.9-19.9,52.2,0,72.1l72.1-72.1C88.1,84,55.9,84,36,103.9z"/>
<path class="st4" d="M232.7,103.9l72.1,72.1c19.9-19.9,19.9-52.2,0-72.1C284.8,84,252.6,84,232.7,103.9z"/>
<g>
	<circle class="st0" cx="168.3" cy="241.8" r="18.5"/>
	<path class="st2" d="M168.3,260.7c-10.4,0-18.9-8.5-18.9-18.9s8.5-18.9,18.9-18.9c10.4,0,18.9,8.5,18.9,18.9
		S178.8,260.7,168.3,260.7z M168.3,232.3c-5.2,0-9.5,4.2-9.5,9.5c0,5.2,4.2,9.5,9.5,9.5c5.2,0,9.5-4.2,9.5-9.5
		C177.8,236.5,173.6,232.3,168.3,232.3z"/>
</g>
</svg>
