<?xml version="1.0" encoding="utf-8"?>
<!-- Generator: Adobe Illustrator 22.0.1, SVG Export Plug-In . SVG Version: 6.00 Build 0)  -->
<svg version="1.1" id="Layer_1" xmlns="http://www.w3.org/2000/svg" xmlns:xlink="http://www.w3.org/1999/xlink" x="0px" y="0px"
	 viewBox="0 0 336.7 400" style="enable-background:new 0 0 336.7 400;" xml:space="preserve">
<style type="text/css">
	.st0{fill:#FFFFFF;}
	.st1{fill:#FADC3C;}
	.st2{fill:#424A60;}
	.st3{fill:#1EAFD8;}
	.st4{fill:#FF5A00;}
	.st5{fill:#00CDC8;}
</style>
<g>
	
		<ellipse transform="matrix(0.7071 -0.7071 0.7071 0.7071 -117.3716 188.0389)" class="st0" cx="168.3" cy="235.7" rx="137.6" ry="137.6"/>
	<path class="st0" d="M168.3,103.1c73.1,0,132.6,59.5,132.6,132.6s-59.5,132.6-132.6,132.6S35.7,308.8,35.7,235.7
		S95.2,103.1,168.3,103.1 M168.3,93.1c-78.6,0-142.6,64-142.6,142.6s64,142.6,142.6,142.6s142.6-64,142.6-142.6
		S246.9,93.1,168.3,93.1L168.3,93.1z"/>
</g>
<circle class="st0" cx="168.3" cy="235.8" r="123.1"/>
<circle class="st1" cx="168.3" cy="235.8" r="27.6"/>
<g>
	<g>
		<path class="st2" d="M166.7,151.3c0,1.2-0.7,1.9-2.1,1.9h-11.9c-1.4,0-2.1-0.6-2.1-1.9c0-1.2,0.7-1.8,2.1-1.8h3.6v-16l-3.4,2.1
			c-0.3,0.2-0.6,0.3-0.9,0.3c-0.5,0-0.9-0.2-1.2-0.6c-0.3-0.4-0.5-0.9-0.5-1.4c0-0.7,0.3-1.2,0.9-1.6l5.4-3.4c0.7-0.4,1.4-0.6,2-0.6
			c0.7,0,1.2,0.2,1.6,0.6c0.4,0.4,0.6,0.9,0.6,1.6v19h3.7C166,149.5,166.7,150.1,166.7,151.3z"/>
		<path class="st2" d="M187.6,151.3c0,1.2-0.7,1.9-2.1,1.9h-13.3c-0.6,0-1.1-0.2-1.4-0.5c-0.4-0.4-0.5-0.8-0.5-1.4
			c0-0.7,0.3-1.3,0.8-1.9l8-8.6c1-1.1,1.7-2.1,2.2-3s0.7-1.8,0.7-2.7c0-1.1-0.3-1.9-0.9-2.5c-0.6-0.6-1.5-0.9-2.7-0.9
			c-1,0-1.9,0.2-2.8,0.5c-0.9,0.4-1.8,0.9-2.7,1.5c-0.2,0.2-0.5,0.3-0.7,0.4c-0.2,0.1-0.5,0.2-0.7,0.2c-0.4,0-0.7-0.2-1-0.6
			c-0.3-0.4-0.4-0.8-0.4-1.3c0-0.4,0.1-0.7,0.2-0.9c0.1-0.3,0.3-0.5,0.6-0.7c1-0.8,2.2-1.5,3.6-1.9c1.4-0.5,2.8-0.7,4.1-0.7
			c2.4,0,4.3,0.6,5.8,1.8c1.4,1.2,2.2,2.9,2.2,4.9c0,1.4-0.3,2.8-0.9,4c-0.6,1.3-1.6,2.6-3.1,4.2l-6.1,6.5h9.3
			C186.9,149.5,187.6,150.1,187.6,151.3z"/>
	</g>
	<g>
		<path class="st2" d="M173.5,324.4c1.1,0.7,2,1.6,2.7,2.8c0.6,1.2,1,2.6,1,4.1c0,1.6-0.4,3-1.1,4.3c-0.7,1.3-1.7,2.2-2.9,2.9
			s-2.7,1.1-4.3,1.1c-3.1,0-5.5-1.1-7.2-3.2s-2.5-5.1-2.5-9.1c0-2.7,0.4-5,1.2-7s1.9-3.5,3.4-4.5c1.5-1.1,3.2-1.6,5.2-1.6
			c1.3,0,2.7,0.2,4,0.7s2.5,1.1,3.4,1.9c0.3,0.3,0.5,0.5,0.6,0.8c0.1,0.2,0.2,0.5,0.2,0.9c0,0.5-0.1,1-0.4,1.3
			c-0.3,0.4-0.6,0.5-1,0.5c-0.2,0-0.5,0-0.7-0.1s-0.5-0.2-0.8-0.4c-1.9-1.4-3.7-2-5.2-2c-1.7,0-3.1,0.8-4,2.4
			c-1,1.6-1.5,3.8-1.5,6.6c0.5-1.1,1.3-1.9,2.4-2.5c1.1-0.6,2.3-0.9,3.6-0.9C171.1,323.4,172.4,323.8,173.5,324.4z M171.7,334.8
			c0.8-0.8,1.2-1.9,1.2-3.3s-0.4-2.4-1.2-3.3c-0.8-0.8-1.8-1.2-3.1-1.2s-2.4,0.4-3.2,1.2c-0.8,0.8-1.2,1.9-1.2,3.2
			c0,1.4,0.4,2.4,1.2,3.3c0.8,0.8,1.9,1.2,3.2,1.2C169.9,336,171,335.6,171.7,334.8z"/>
	</g>
	<g>
		<path class="st2" d="M80.6,224.5c1.7,2.1,2.5,5.1,2.5,9.1c0,2.7-0.4,5-1.2,7c-0.8,2-1.9,3.5-3.4,4.5c-1.5,1.1-3.2,1.6-5.2,1.6
			c-1.3,0-2.7-0.2-4-0.7s-2.5-1.1-3.4-1.9c-0.3-0.3-0.5-0.5-0.6-0.8c-0.1-0.2-0.2-0.5-0.2-0.9c0-0.5,0.1-1,0.4-1.3
			c0.3-0.4,0.6-0.5,1-0.5c0.2,0,0.5,0,0.7,0.1s0.5,0.2,0.8,0.4c1.9,1.4,3.7,2,5.2,2c1.7,0,3.1-0.8,4-2.4c1-1.6,1.5-3.8,1.5-6.6
			c-0.5,1.1-1.3,1.9-2.4,2.5s-2.3,0.9-3.6,0.9c-1.5,0-2.8-0.3-3.9-1s-2-1.6-2.7-2.8c-0.6-1.2-1-2.6-1-4.1c0-1.6,0.4-3,1.1-4.3
			s1.7-2.2,2.9-2.9c1.3-0.7,2.7-1.1,4.3-1.1C76.5,221.3,78.9,222.4,80.6,224.5z M76.8,232.6c0.8-0.8,1.2-1.9,1.2-3.2
			c0-1.4-0.4-2.4-1.2-3.3c-0.8-0.8-1.9-1.2-3.2-1.2c-1.3,0-2.3,0.4-3.1,1.2c-0.8,0.8-1.2,1.9-1.2,3.3s0.4,2.4,1.2,3.3
			c0.8,0.8,1.8,1.2,3.1,1.2C74.9,233.9,76,233.5,76.8,232.6z"/>
	</g>
	<g>
		<path class="st2" d="M97.5,276c0.5,0.7,0.8,1.5,0.8,2.5c0,1.4-0.5,2.5-1.6,3.3s-2.5,1.2-4.4,1.2s-3.3-0.4-4.4-1.2
			c-1.1-0.8-1.6-1.9-1.6-3.3c0-1,0.3-1.8,0.8-2.5s1.2-1.2,2.2-1.4c-0.8-0.3-1.4-0.8-1.9-1.4s-0.7-1.4-0.7-2.3c0-1.3,0.5-2.4,1.5-3.1
			c1-0.8,2.4-1.2,4.1-1.2s3.1,0.4,4.1,1.2c1,0.8,1.5,1.8,1.5,3.1c0,0.9-0.2,1.6-0.7,2.3c-0.5,0.6-1.1,1.1-1.9,1.4
			C96.3,274.9,97,275.4,97.5,276z M95.5,278.3c0-1.6-1.1-2.4-3.2-2.4s-3.2,0.8-3.2,2.4s1.1,2.4,3.2,2.4S95.5,279.9,95.5,278.3z
			 M89.4,271.3c0,0.8,0.2,1.4,0.7,1.8s1.2,0.6,2.1,0.6s1.6-0.2,2.1-0.6s0.7-1,0.7-1.8c0-1.5-0.9-2.3-2.8-2.3
			C90.4,269,89.4,269.7,89.4,271.3z"/>
	</g>
	<g>
		<path class="st2" d="M91.4,202.4c0,0.8-0.5,1.2-1.4,1.2h-7.6c-0.9,0-1.4-0.4-1.4-1.2s0.5-1.2,1.4-1.2h2.4V191l-2.2,1.3
			c-0.2,0.1-0.4,0.2-0.6,0.2c-0.3,0-0.6-0.1-0.8-0.4c-0.2-0.3-0.3-0.6-0.3-0.9c0-0.4,0.2-0.8,0.6-1L85,188c0.5-0.3,0.9-0.4,1.3-0.4
			s0.8,0.1,1,0.4c0.3,0.3,0.4,0.6,0.4,1.1v12.3H90C90.9,201.3,91.4,201.7,91.4,202.4z"/>
		<path class="st2" d="M94.7,201.7c-1-1.4-1.5-3.4-1.5-6.1c0-2.7,0.5-4.7,1.5-6.1c1-1.4,2.4-2.1,4.3-2.1s3.3,0.7,4.3,2.1
			c1,1.4,1.5,3.4,1.5,6.1s-0.5,4.7-1.5,6.1c-1,1.4-2.4,2.1-4.3,2.1C97.2,203.8,95.7,203.1,94.7,201.7z M101.3,200.1
			c0.5-0.9,0.7-2.4,0.7-4.5s-0.2-3.6-0.7-4.5s-1.2-1.4-2.2-1.4s-1.8,0.5-2.2,1.4c-0.5,0.9-0.7,2.4-0.7,4.5s0.2,3.5,0.7,4.5
			c0.5,0.9,1.2,1.4,2.2,1.4C100.1,201.5,100.8,201.1,101.3,200.1z"/>
	</g>
	<g>
		<path class="st2" d="M120.8,169.3c0,0.8-0.5,1.2-1.4,1.2h-7.6c-0.9,0-1.4-0.4-1.4-1.2s0.5-1.2,1.4-1.2h2.4v-10.3l-2.2,1.3
			c-0.2,0.1-0.4,0.2-0.6,0.2c-0.3,0-0.6-0.1-0.8-0.4c-0.2-0.3-0.3-0.6-0.3-0.9c0-0.4,0.2-0.8,0.6-1l3.5-2.2c0.5-0.3,0.9-0.4,1.3-0.4
			s0.8,0.1,1,0.4c0.3,0.3,0.4,0.6,0.4,1.1v12.3h2.4C120.4,168.2,120.8,168.6,120.8,169.3z"/>
		<path class="st2" d="M134.4,169.3c0,0.8-0.5,1.2-1.4,1.2h-7.6c-0.9,0-1.4-0.4-1.4-1.2s0.5-1.2,1.4-1.2h2.4v-10.3l-2.2,1.3
			c-0.2,0.1-0.4,0.2-0.6,0.2c-0.3,0-0.6-0.1-0.8-0.4c-0.2-0.3-0.3-0.6-0.3-0.9c0-0.4,0.2-0.8,0.6-1l3.5-2.2c0.5-0.3,0.9-0.4,1.3-0.4
			c0.4,0,0.8,0.1,1,0.4c0.3,0.3,0.4,0.6,0.4,1.1v12.3h2.4C133.9,168.2,134.4,168.6,134.4,169.3z"/>
	</g>
	<g>
		<path class="st2" d="M249.2,202.4c0,0.8-0.5,1.2-1.4,1.2h-8.6c-0.4,0-0.7-0.1-0.9-0.4c-0.2-0.2-0.3-0.5-0.3-0.9
			c0-0.5,0.2-0.9,0.5-1.2l5.2-5.5c0.6-0.7,1.1-1.3,1.4-1.9c0.3-0.6,0.4-1.2,0.4-1.7c0-0.7-0.2-1.3-0.6-1.6c-0.4-0.4-1-0.6-1.7-0.6
			c-0.6,0-1.2,0.1-1.8,0.4c-0.6,0.2-1.2,0.6-1.8,1c-0.2,0.1-0.3,0.2-0.5,0.3s-0.3,0.1-0.5,0.1c-0.3,0-0.5-0.1-0.7-0.4
			c-0.2-0.2-0.3-0.5-0.3-0.9c0-0.2,0-0.4,0.1-0.6c0.1-0.2,0.2-0.3,0.4-0.5c0.7-0.5,1.4-0.9,2.3-1.3c0.9-0.3,1.8-0.5,2.7-0.5
			c1.6,0,2.8,0.4,3.7,1.2s1.4,1.8,1.4,3.2c0,0.9-0.2,1.8-0.6,2.6c-0.4,0.8-1.1,1.7-2,2.7l-3.9,4.2h6
			C248.7,201.3,249.2,201.7,249.2,202.4z"/>
	</g>
	<g>
		<path class="st2" d="M249.4,277.7c0.2,0.2,0.3,0.5,0.3,0.8c0,0.8-0.5,1.1-1.4,1.1h-1.2v1.8c0,0.5-0.1,0.8-0.4,1.1
			c-0.3,0.3-0.6,0.4-1,0.4s-0.8-0.1-1-0.4c-0.3-0.3-0.4-0.6-0.4-1.1v-1.8h-5.9c-0.4,0-0.7-0.1-1-0.4c-0.2-0.2-0.3-0.5-0.3-0.9
			s0.1-0.7,0.4-1l7-10c0.2-0.2,0.3-0.4,0.6-0.5c0.2-0.1,0.5-0.2,0.7-0.2c0.4,0,0.7,0.1,1,0.4s0.4,0.6,0.4,1.1v9.2h1.2
			C248.9,277.4,249.2,277.5,249.4,277.7z M240.2,277.4h4.2v-6.1L240.2,277.4z"/>
	</g>
	<g>
		<path class="st2" d="M220.2,308.3c0.8,0.4,1.4,1,1.8,1.8c0.4,0.8,0.6,1.7,0.6,2.6c0,1-0.2,2-0.7,2.8s-1.1,1.4-2,1.9
			c-0.9,0.4-1.9,0.7-3,0.7c-0.9,0-1.9-0.2-2.7-0.5c-0.9-0.3-1.7-0.7-2.3-1.3c-0.3-0.3-0.5-0.7-0.5-1.1c0-0.3,0.1-0.6,0.3-0.8
			c0.2-0.2,0.4-0.4,0.7-0.4c0.2,0,0.3,0,0.4,0.1c0.1,0.1,0.3,0.1,0.5,0.3c0.6,0.4,1.2,0.7,1.8,1s1.2,0.3,1.8,0.3
			c1,0,1.8-0.2,2.3-0.7s0.8-1.2,0.8-2.1s-0.3-1.6-0.8-2.1s-1.3-0.8-2.2-0.8c-0.6,0-1.1,0.1-1.6,0.2c-0.5,0.2-0.9,0.4-1.4,0.8
			c-0.3,0.2-0.6,0.3-0.9,0.3s-0.6-0.1-0.8-0.3c-0.2-0.2-0.3-0.4-0.3-0.7v-7.1c0-0.4,0.1-0.8,0.4-1c0.2-0.2,0.6-0.4,1-0.4h7.5
			c0.9,0,1.4,0.4,1.4,1.1c0,0.8-0.5,1.1-1.4,1.1h-6.1v4.3c0.8-0.5,1.7-0.8,2.8-0.8C218.6,307.7,219.5,307.9,220.2,308.3z"/>
	</g>
	<g>
		<path class="st2" d="M127.2,302.3c0.2,0.2,0.3,0.5,0.3,0.8s-0.1,0.7-0.3,1.1l-7.2,13.1c-0.3,0.5-0.7,0.8-1.2,0.8
			c-0.4,0-0.7-0.1-1-0.4c-0.3-0.2-0.4-0.6-0.4-0.9s0.1-0.5,0.2-0.8l6.5-11.7h-6.8c-0.9,0-1.4-0.4-1.4-1.2c0-0.8,0.5-1.2,1.4-1.2h9.1
			C126.7,302,127,302.1,127.2,302.3z"/>
	</g>
	<g>
		<path class="st2" d="M222.6,169.3c0,0.8-0.5,1.2-1.4,1.2h-7.6c-0.9,0-1.4-0.4-1.4-1.2s0.5-1.2,1.4-1.2h2.4v-10.3l-2.2,1.3
			c-0.2,0.1-0.4,0.2-0.6,0.2c-0.3,0-0.6-0.1-0.8-0.4c-0.2-0.3-0.3-0.6-0.3-0.9c0-0.4,0.2-0.8,0.6-1l3.5-2.2c0.5-0.3,0.9-0.4,1.3-0.4
			c0.4,0,0.8,0.1,1,0.4c0.3,0.3,0.4,0.6,0.4,1.1v12.3h2.4C222.2,168.2,222.6,168.6,222.6,169.3z"/>
	</g>
	<g>
		<path class="st2" d="M271.4,235.8c0.8,1,1.2,2.3,1.2,3.9c0,2.1-0.8,3.8-2.4,5.1s-3.7,1.9-6.3,1.9c-1.5,0-3-0.2-4.4-0.7
			s-2.6-1.1-3.6-2c-0.5-0.5-0.8-1-0.8-1.6c0-0.5,0.1-1,0.4-1.3s0.6-0.5,1-0.5c0.2,0,0.4,0,0.6,0.1s0.4,0.2,0.8,0.4
			c1,0.7,1.9,1.2,2.8,1.5c0.9,0.4,1.9,0.5,2.9,0.5c1.5,0,2.7-0.3,3.4-0.9c0.7-0.6,1.1-1.6,1.1-2.8s-0.4-2.2-1.2-2.8
			c-0.8-0.6-2-0.9-3.6-0.9h-2c-0.5,0-1-0.2-1.2-0.5c-0.3-0.4-0.4-0.8-0.4-1.2c0-0.5,0.1-0.9,0.4-1.3c0.3-0.4,0.7-0.5,1.2-0.5h1.4
			c3.2,0,4.8-1.2,4.8-3.6c0-1.1-0.3-2-1-2.6s-1.6-0.9-2.8-0.9c-1.7,0-3.5,0.7-5.5,2c-0.3,0.2-0.6,0.3-0.8,0.4
			c-0.2,0.1-0.4,0.1-0.6,0.1c-0.4,0-0.7-0.2-1-0.5c-0.3-0.4-0.4-0.8-0.4-1.3c0-0.4,0.1-0.6,0.2-0.9c0.1-0.2,0.3-0.5,0.6-0.8
			c1-0.8,2.2-1.5,3.5-1.9c1.4-0.5,2.8-0.7,4.2-0.7c2.4,0,4.4,0.6,5.8,1.8s2.2,2.8,2.2,4.8c0,1.4-0.4,2.5-1.1,3.6
			c-0.7,1-1.7,1.8-2.9,2.2C269.5,234,270.7,234.7,271.4,235.8z"/>
	</g>
</g>
<path class="st3" d="M168.3,368.3c-73.1,0-132.6-59.5-132.6-132.6s59.5-132.6,132.6-132.6s132.6,59.5,132.6,132.6
	S241.4,368.3,168.3,368.3z M168.3,122.1c-62.7,0-113.6,51-113.6,113.6s51,113.6,113.6,113.6S282,298.4,282,235.8
	S231,122.1,168.3,122.1z"/>
<path class="st4" d="M201.6,202.7L174,237.5c-2.5,3.1-7.2,3.7-10.4,1.2c-3.1-2.5-3.7-7.2-1.2-10.4l27.6-34.8
	c2.5-3.1,7.2-3.7,10.4-1.2S204.3,199.6,201.6,202.7z"/>
<path class="st5" d="M168.3,226.3c-2.6,0-4.7-2.1-4.7-4.7v-52.1c0-2.6,2.1-4.7,4.7-4.7c2.6,0,4.7,2.1,4.7,4.7v52.1
	C173.1,224.2,171,226.3,168.3,226.3z"/>
<g>
	<circle class="st0" cx="168.3" cy="235.8" r="18.5"/>
	<path class="st2" d="M168.3,254.7c-10.4,0-18.9-8.5-18.9-18.9s8.5-18.9,18.9-18.9s18.9,8.5,18.9,18.9S178.8,254.7,168.3,254.7z
		 M168.3,226.3c-5.2,0-9.5,4.2-9.5,9.5c0,5.2,4.2,9.5,9.5,9.5c5.2,0,9.5-4.2,9.5-9.5S173.6,226.3,168.3,226.3z"/>
</g>
</svg>
