<?xml version="1.0" encoding="utf-8"?>
<!-- Generator: Adobe Illustrator 22.1.0, SVG Export Plug-In . SVG Version: 6.00 Build 0)  -->
<svg version="1.1" id="Layer_1" xmlns="http://www.w3.org/2000/svg" xmlns:xlink="http://www.w3.org/1999/xlink" x="0px" y="0px"
	 viewBox="0 0 336.7 400" style="enable-background:new 0 0 336.7 400;" xml:space="preserve">
<style type="text/css">
	.st0{fill:#019E92;}
	.st1{fill:#5AAAE7;}
	.st2{fill:#96C8EF;}
	.st3{fill:#D1E7F8;}
	.st4{fill:#3D9AE2;}
	.st5{fill:#006DF0;}
	.st6{fill:#00479B;}
	.st7{fill:#FBD490;}
	.st8{fill:#E6E6E6;}
	.st9{fill:#A5A5A5;}
	.st10{fill:#D2D5D7;}
	.st11{fill:#38454F;}
	.st12{fill:#D8AF6F;}
	.st13{fill:#FFFFFF;}
	.st14{fill:#C2C4C6;}
	.st15{fill:#FF5A00;}
	.st16{fill:#490A3D;}
	.st17{fill:#00CDC8;}
	.st18{fill:#F15A24;}
	.st19{fill:#F7931E;}
	.st20{fill:#FBB03B;}
	.st21{fill:#A46F3E;}
	.st22{fill:#704928;}
	.st23{fill:#775131;}
	.st24{fill:#80AE92;}
	.st25{fill:#EAE5D8;}
	.st26{fill:#F4F1E6;}
	.st27{fill:#FFB000;}
	.st28{fill:#FF7900;}
	.st29{fill:#FFDA00;}
	.st30{fill:#C95039;}
	.st31{fill:#AD361A;}
	.st32{fill:#ED8A72;}
</style>
<ellipse class="st0" cx="211.4" cy="312.5" rx="106.2" ry="39.5"/>
<g>
	<path class="st1" d="M129.2,74.1H94.6c-2.5,0-4.6,1.6-4.6,3.5v7c0,1.9,2.1,3.5,4.6,3.5h34.6c2.5,0,4.6-1.6,4.6-3.5v-7
		C133.8,75.7,131.7,74.1,129.2,74.1z"/>
	<path class="st2" d="M90.3,83.5c0,0-2.8-0.1-4.4,2l-18.5,23.2l35.5,8.6l27.9-4.2l3-29.5L90.3,83.5z"/>
	<g>
		<path class="st1" d="M89,94.4c-0.4,0-0.8-0.1-1.1-0.4c-0.7-0.6-0.9-1.7-0.3-2.4l1.8-2.2c0.6-0.7,1.7-0.9,2.4-0.3
			c0.7,0.6,0.9,1.7,0.3,2.4l-1.8,2.2C90,94.1,89.5,94.4,89,94.4z"/>
		<path class="st1" d="M81.1,104.3c-0.4,0-0.8-0.1-1.1-0.4c-0.7-0.6-0.9-1.7-0.3-2.4l4.8-6.1c0.6-0.7,1.7-0.9,2.4-0.3
			c0.7,0.6,0.9,1.7,0.3,2.4l-4.8,6.1C82.1,104,81.6,104.3,81.1,104.3z"/>
	</g>
	<path class="st3" d="M69.4,107.7h55.7c1.4,0,2.5,1.1,2.5,2.5v114.1c0,1.4-1.1,2.5-2.5,2.5H69.4c-1.4,0-2.5-1.1-2.5-2.5V110.2
		C66.9,108.8,68,107.7,69.4,107.7z"/>
	<rect x="66.9" y="145.7" class="st2" width="83.7" height="5.5"/>
	<path class="st1" d="M150.1,107.7l-14.5-23.1c-0.4-0.7-1.1-1.1-1.7-1.1c0,0,0,0,0,0c-0.7,0-1.3,0.4-1.7,1.1l-14.5,23.1
		c-0.4,0.6-0.6,1.3-0.6,2.1v113.9c0,1.7,1,3.1,2.3,3.1h29.1c1.3,0,2.3-1.4,2.3-3.1V109.8C150.6,109,150.4,108.3,150.1,107.7z"/>
	<path class="st4" d="M133.8,83.5c-0.7,0-1.3,0.4-1.7,1.1l-14.5,23.1c-0.4,0.6-0.6,1.3-0.6,2.1v113.9c0,1.7,1,3.1,2.3,3.1h14.5
		L133.8,83.5L133.8,83.5z"/>
	<path class="st2" d="M117.5,107.7c-0.4,0.6-0.6,1.3-0.6,2.1v113.9c0,1.7,1,3.1,2.3,3.1h29.1c1.3,0,2.3-1.4,2.3-3.1V109.8
		c0-0.8-0.2-1.5-0.6-2.1L117.5,107.7z"/>
	<rect x="117" y="145.7" class="st1" width="33.6" height="5.5"/>
	<rect x="66.9" y="128.5" class="st5" width="83.7" height="17.1"/>
	<rect x="117" y="128.5" class="st6" width="33.6" height="17.1"/>
</g>
<g>
	<path class="st7" d="M202.5,157.6V170h83.1v-12.5c0-0.2,0.1-0.4,0.3-0.5c10.3-5.9,9.7-17.7,7.5-30.8c-2-12.1-11.7-22-23.8-24.1
		c-4.3-0.8-8.5-0.6-12.4,0.3c-8.7,2.1-17.7,2.1-26.4,0c-3.3-0.8-6.8-1-10.5-0.6c-13,1.5-23.7,11.7-25.8,24.6
		C192.4,139.8,191.6,151.9,202.5,157.6z"/>
	<path class="st8" d="M179.9,198.6c0-15.8,12.8-28.6,28.6-28.6h71.3c15.8,0,28.6,12.8,28.6,28.6v48.5H179.9V198.6z"/>
	<path class="st9" d="M285.5,249.9v-2.9h17.1v2.9c0,4.7-3.8,8.6-8.6,8.6l0,0C289.4,258.5,285.5,254.7,285.5,249.9z"/>
	<path class="st9" d="M185.6,249.9v-2.9h17.1v2.9c0,4.7-3.8,8.6-8.6,8.6l0,0C189.4,258.5,185.6,254.7,185.6,249.9z"/>
	<path class="st9" d="M277,192.8v-8.6c0-1.6,1.3-2.9,2.9-2.9s2.9,1.3,2.9,2.9v8.6c0,1.6-1.3,2.9-2.9,2.9S277,194.4,277,192.8z"/>
	<path class="st9" d="M277,218.5v-14.3c0-1.6,1.3-2.9,2.9-2.9s2.9,1.3,2.9,2.9v14.3c0,1.6-1.3,2.9-2.9,2.9S277,220.1,277,218.5z"/>
	<rect x="179.9" y="232.8" class="st10" width="128.5" height="14.3"/>
	<path class="st11" d="M268.4,198.5L268.4,198.5c0-3.1,2.6-5.7,5.7-5.7h11.4c3.1,0,5.7,2.6,5.7,5.7l0,0c0,3.1-2.6,5.7-5.7,5.7h-11.4
		C271,204.3,268.4,201.7,268.4,198.5z"/>
	<path class="st12" d="M274.9,137.7l-18.6-18.6c-1.1-1.1-1.1-2.9,0-4c1.1-1.1,2.9-1.1,4,0l18.6,18.6c1.1,1.1,1.1,2.9,0,4
		c-0.6,0.6-1.3,0.8-2,0.8C276.2,138.6,275.5,138.3,274.9,137.7z"/>
	<path class="st12" d="M269.2,154.9l-40-40c-1.1-1.1-1.1-2.9,0-4c1.1-1.1,2.9-1.1,4,0l40,40c1.1,1.1,1.1,2.9,0,4
		c-0.6,0.6-1.3,0.8-2,0.8C270.5,155.7,269.8,155.4,269.2,154.9z"/>
	<path class="st12" d="M254.9,163.4l-42.8-42.8c-1.1-1.1-1.1-2.9,0-4c1.1-1.1,2.9-1.1,4,0l42.8,42.8c1.1,1.1,1.1,2.9,0,4
		c-0.6,0.6-1.3,0.8-2,0.8C256.2,164.3,255.5,164,254.9,163.4z"/>
	<path class="st12" d="M232.1,163.4L210.7,142c-1.1-1.1-1.1-2.9,0-4c1.1-1.1,2.9-1.1,4,0l21.4,21.4c1.1,1.1,1.1,2.9,0,4
		c-0.6,0.6-1.3,0.8-2,0.8S232.7,164,232.1,163.4z"/>
</g>
<g>
	<g>
		<g>
			<path class="st13" d="M118.5,61.9c-6.1,0-11.1-5-11.1-11.1V27.6c0-6.1,5-11.1,11.1-11.1h95.3c6.1,0,11.1,5,11.1,11.1v23.2
				c0,6.1-5,11.1-11.1,11.1H118.5z"/>
			<path class="st14" d="M213.8,17.6c5.6,0,10.1,4.5,10.1,10.1v23.2c0,5.6-4.5,10.1-10.1,10.1h-95.3c-5.6,0-10.1-4.5-10.1-10.1
				l0-23.2c0-5.6,4.5-10.1,10.1-10.1H213.8 M213.8,15.6h-95.3c-6.7,0-12.1,5.4-12.1,12.1l0,23.2c0,6.7,5.4,12.1,12.1,12.1h95.3
				c6.7,0,12.1-5.4,12.1-12.1V27.6C225.9,21,220.4,15.6,213.8,15.6L213.8,15.6z"/>
		</g>
	</g>
	<g>
		<g>
			<g>
				<path class="st15" d="M146.2,26.3c0.4,0.4,0.5,0.8,0.5,1.4c0,0.6-0.2,1.2-0.5,1.8l-12.1,21.9c-0.5,0.9-1.2,1.3-2.1,1.3
					c-0.6,0-1.1-0.2-1.6-0.6c-0.5-0.4-0.7-0.9-0.7-1.5c0-0.4,0.1-0.9,0.4-1.3L141,29.7h-11.4c-1.5,0-2.3-0.6-2.3-1.9
					c0-1.3,0.8-2,2.3-2h15.1C145.4,25.7,145.9,25.9,146.2,26.3z"/>
				<path class="st16" d="M152.2,38.3c-0.5-0.5-0.8-1.2-0.8-2c0-0.8,0.3-1.5,0.8-2c0.5-0.5,1.2-0.8,2-0.8c0.8,0,1.5,0.3,2,0.8
					c0.5,0.5,0.8,1.2,0.8,2c0,0.8-0.3,1.5-0.8,2c-0.5,0.5-1.2,0.8-2,0.8C153.4,39.2,152.7,38.9,152.2,38.3z M152.2,51.8
					c-0.5-0.5-0.8-1.2-0.8-2c0-0.8,0.3-1.5,0.8-2c0.5-0.5,1.2-0.8,2-0.8c0.8,0,1.5,0.3,2,0.8c0.5,0.5,0.8,1.2,0.8,2
					c0,0.8-0.3,1.5-0.8,2c-0.5,0.5-1.2,0.8-2,0.8C153.4,52.6,152.7,52.3,152.2,51.8z"/>
				<path class="st17" d="M164.2,49.2c-1.7-2.3-2.5-5.7-2.5-10.2c0-4.4,0.8-7.8,2.5-10.2c1.7-2.3,4.1-3.5,7.2-3.5
					c3.2,0,5.6,1.2,7.2,3.5c1.7,2.3,2.5,5.7,2.5,10.2c0,4.4-0.8,7.8-2.5,10.2c-1.7,2.3-4.1,3.5-7.2,3.5
					C168.2,52.7,165.8,51.6,164.2,49.2z M175.1,46.5c0.8-1.6,1.2-4.1,1.2-7.5c0-3.5-0.4-6-1.2-7.5c-0.8-1.6-2-2.3-3.7-2.3
					c-1.7,0-3,0.8-3.7,2.3c-0.8,1.6-1.2,4.1-1.2,7.5c0,3.4,0.4,5.9,1.2,7.5c0.8,1.6,2,2.4,3.7,2.4C173.1,48.9,174.3,48.1,175.1,46.5
					z"/>
				<path class="st17" d="M188,49.2c-1.7-2.3-2.5-5.7-2.5-10.2c0-4.4,0.8-7.8,2.5-10.2c1.7-2.3,4.1-3.5,7.2-3.5
					c3.2,0,5.6,1.2,7.2,3.5c1.7,2.3,2.5,5.7,2.5,10.2c0,4.4-0.8,7.8-2.5,10.2c-1.7,2.3-4.1,3.5-7.2,3.5
					C192.1,52.7,189.6,51.6,188,49.2z M198.9,46.5c0.8-1.6,1.2-4.1,1.2-7.5c0-3.5-0.4-6-1.2-7.5c-0.8-1.6-2-2.3-3.7-2.3
					c-1.7,0-3,0.8-3.7,2.3c-0.8,1.6-1.2,4.1-1.2,7.5c0,3.4,0.4,5.9,1.2,7.5c0.8,1.6,2,2.4,3.7,2.4C196.9,48.9,198.2,48.1,198.9,46.5
					z"/>
			</g>
		</g>
	</g>
</g>
<g>
	<path class="st18" d="M216.1,237.2v-6.1c6.7,0,12.2-5.5,12.2-12.2v-15.3h-12.2v-6.1h15.3c1.7,0,3.1,1.4,3.1,3.1v18.3
		C234.5,229,226.3,237.2,216.1,237.2z"/>
	<path class="st19" d="M188.6,264.6h-15.2c-16.9,0-30.6-13.7-30.6-30.6v-33.5c0-1.7,1.4-3.1,3.1-3.1l0,0h70.3c1.7,0,3.1,1.4,3.1,3.1
		v33.5C219.2,250.9,205.5,264.6,188.6,264.6z"/>
	<g>
		<path class="st20" d="M179.5,250c0,1.3-1.1,2.4-2.4,2.4h-0.6c-11.8,0-21.4-9.6-21.4-21.4v-0.6c0-1.3,1.1-2.4,2.4-2.4h1.3
			c1.3,0,2.4,1.1,2.4,2.4v0.6c0,8.4,6.8,15.3,15.3,15.3h0.6c1.3,0,2.4,1.1,2.4,2.4V250z"/>
		<path class="st20" d="M158.1,215.8L158.1,215.8c1.7,0,3.1,1.4,3.1,3.1v0c0,1.7-1.4,3.1-3.1,3.1l0,0c-1.7,0-3.1-1.4-3.1-3.1v0
			C155,217.2,156.4,215.8,158.1,215.8z"/>
	</g>
	<path class="st19" d="M222.9,273.8h-80.6c-2.3,0-4.4-1.3-5.5-3.4l0,0c-2-4.1,0.9-8.8,5.5-8.8h80.6c4.5,0,7.5,4.8,5.5,8.8h0
		C227.3,272.5,225.2,273.8,222.9,273.8z"/>
	<path class="st18" d="M133.7,258.5h97.7c1.7,0,3.1,1.4,3.1,3.1l0,0c0,1.7-1.4,3.1-3.1,3.1h-97.7c-1.7,0-3.1-1.4-3.1-3.1l0,0
		C130.6,259.9,132,258.5,133.7,258.5z"/>
</g>
<g>
	<path class="st21" d="M112.7,194.8H75.5h-2H36.4c-8.6,0-15.6,7-15.6,15.6v11.7c0,4.3,1.8,8.2,4.6,11.1c2.1,2.1,3.2,5.1,3.2,8.1v14
		c0,7.6,6.2,13.7,13.7,13.7h31.2h2h32.9c6.6,0,12-5.4,12-12v-15.2c0-3.3,1.2-6.5,3.5-8.9c2.7-2.8,4.3-6.6,4.3-10.7v-11.7
		C128.3,201.8,121.3,194.8,112.7,194.8z"/>
	<path class="st7" d="M65.3,194.8H36.4c-8.6,0-15.6,7-15.6,15.6v11.7c0,4.3,1.8,8.2,4.6,11.1c2.1,2.1,3.2,5.1,3.2,8.1v14
		c0,7.6,6.2,13.7,13.7,13.7H57c6.9,0,12.6-5.7,12.6-12.6v-16c0-2.7,1.2-5.3,3.2-7.2c2.9-2.8,4.6-6.8,4.6-11.1V207
		C77.5,200.3,72,194.8,65.3,194.8z"/>
	<path class="st22" d="M110.7,237.8H93.1c-1.1,0-2-0.9-2-2s0.9-2,2-2h17.6c1.1,0,2,0.9,2,2S111.8,237.8,110.7,237.8z"/>
	<path class="st22" d="M85.3,237.8h-3.9c-1.1,0-2-0.9-2-2s0.9-2,2-2h3.9c1.1,0,2,0.9,2,2S86.4,237.8,85.3,237.8z"/>
	<path class="st21" d="M39.3,246.6c-0.5,0-1-0.2-1.4-0.6c-0.8-0.8-0.8-2,0-2.8l2.9-2.9c0.8-0.8,2-0.8,2.8,0s0.8,2,0,2.8l-2.9,2.9
		C40.3,246.4,39.8,246.6,39.3,246.6z"/>
	<path class="st21" d="M55.2,232.7c-0.4,0-0.8-0.1-1.2-0.4l-3.3-2.5c-0.9-0.7-1-1.9-0.4-2.7c0.7-0.9,1.9-1,2.7-0.4l3.3,2.5
		c0.9,0.7,1,1.9,0.4,2.7C56.3,232.5,55.8,232.7,55.2,232.7z"/>
	<path class="st21" d="M44.2,261.3c-0.4,0-0.8-0.1-1.2-0.4l-3.3-2.5c-0.9-0.7-1-1.9-0.4-2.7c0.7-0.9,1.9-1,2.7-0.4l3.3,2.5
		c0.9,0.7,1,1.9,0.4,2.7C45.4,261,44.8,261.3,44.2,261.3z"/>
	<path class="st21" d="M54.3,253.4c-0.8,0-1.6-0.5-1.9-1.4c-0.3-1,0.3-2.1,1.3-2.4l4-1.2c1-0.3,2.1,0.3,2.4,1.3s-0.3,2.1-1.3,2.4
		l-4,1.2C54.6,253.3,54.5,253.4,54.3,253.4z"/>
	<path class="st21" d="M31.2,211.4c-0.5,0-1-0.2-1.4-0.6c-0.8-0.8-0.8-2,0-2.8l2.9-2.9c0.8-0.8,2-0.8,2.8,0c0.8,0.8,0.8,2,0,2.8
		l-2.9,2.9C32.2,211.2,31.7,211.4,31.2,211.4z"/>
	<path class="st21" d="M36.1,226.1c-0.4,0-0.8-0.1-1.2-0.4l-3.3-2.5c-0.9-0.7-1-1.9-0.4-2.7c0.7-0.9,1.9-1,2.7-0.4l3.3,2.5
		c0.9,0.7,1,1.9,0.4,2.7C37.2,225.8,36.7,226.1,36.1,226.1z"/>
	<path class="st21" d="M67.7,224.9c-0.9,0-1.8-0.7-1.9-1.6l-0.7-4.1c-0.2-1.1,0.5-2.1,1.6-2.3c1.1-0.2,2.1,0.5,2.3,1.6l0.7,4.1
		c0.2,1.1-0.5,2.1-1.6,2.3C67.9,224.9,67.8,224.9,67.7,224.9z"/>
	<path class="st21" d="M46.1,218.2c-0.8,0-1.6-0.5-1.9-1.4c-0.3-1,0.3-2.1,1.3-2.4l4-1.2c1-0.3,2.1,0.3,2.4,1.3
		c0.3,1-0.3,2.1-1.3,2.4l-4,1.2C46.5,218.1,46.3,218.2,46.1,218.2z"/>
	<path class="st21" d="M61.8,210c-0.2,0-0.5,0-0.7-0.1l-3.9-1.5c-1-0.4-1.5-1.5-1.1-2.5c0.4-1,1.5-1.5,2.5-1.1l3.9,1.5
		c1,0.4,1.5,1.5,1.1,2.5C63.3,209.5,62.6,210,61.8,210z"/>
	<path class="st23" d="M111.9,205.3c1.1-3.3,1.3-7.1-2-10c-0.4-0.4-1-0.6-1.5-0.6H106c-1.9,0-3.1,2.2-1.9,3.8
		c1.4,1.9,2.6,4.1,3.3,6.6C108,207.4,111.1,207.5,111.9,205.3z"/>
	<path class="st23" d="M93.5,205.3c1.1-3.3,1.3-7.1-2-10c-0.4-0.4-1-0.6-1.5-0.6h-2.4c-1.9,0-3.1,2.2-1.9,3.8
		c1.4,1.9,2.6,4.1,3.3,6.6C89.6,207.4,92.8,207.5,93.5,205.3z"/>
</g>
<ellipse class="st24" cx="211.4" cy="305.5" rx="106.2" ry="39.5"/>
<g>
	<path class="st25" d="M265.8,304.8c0,16.4-26.7,21.6-59.7,21.6s-59.7-5.1-59.7-21.6c0-16.6,26.7-29.9,59.7-29.9
		S265.8,288.2,265.8,304.8z"/>
	<path class="st13" d="M262.2,303.8c0,16-26,21-58.1,21c-31.8,0-57.8-4.9-57.8-21s26-28.9,58.1-28.9
		C236.2,274.9,262.2,287.8,262.2,303.8z"/>
	<path class="st26" d="M204.4,274.9c32,0,58.1,13,58.1,28.9s-26.3,21-58.1,21"/>
	<ellipse class="st27" cx="204.4" cy="295.4" rx="24.1" ry="10.7"/>
	<path class="st28" d="M204.4,284.6c13.2,0,24.1,4.8,24.1,10.7c0,5.9-10.8,10.7-24.1,10.7"/>
	
		<ellipse transform="matrix(0.9348 -0.3553 0.3553 0.9348 -90.6658 87.2854)" class="st29" cx="192.3" cy="290.5" rx="8.9" ry="2.3"/>
	<ellipse class="st26" cx="169.4" cy="302.3" rx="3.1" ry="1.8"/>
	<ellipse class="st13" cx="241" cy="301.5" rx="3.1" ry="1.8"/>
	<ellipse class="st26" cx="163.7" cy="312.2" rx="3.6" ry="2.1"/>
	<ellipse class="st13" cx="234" cy="313" rx="5.1" ry="2.9"/>
	<ellipse class="st26" cx="171.6" cy="288.6" rx="2.6" ry="1.5"/>
</g>
<circle class="st13" cx="223.6" cy="278.4" r="1.9"/>
<g>
	<path class="st30" d="M201.3,326.6c3.4,1.5,11.3,2.6,20.7,2.6c10.6,0.2,19.3-1.5,21.7-3.3l0,0c2.1-1.7,11-2.9,21.9-2.7
		c9.9,0.2,17.6,1.9,21,3.4v-12.7c-3.4-1.7-11.1-2.9-20.9-3.1c-10.8,0-20,1.4-21.9,3.3l0,0c-2.2,1.9-11.1,3.1-21.7,2.9
		c-9.8,0-17.5-1.4-20.9-3.1V326.6L201.3,326.6z"/>
	<path class="st31" d="M201.3,326.6c3.4,1.5,11.3,2.9,20.7,2.9c9.4,0.2,17.3-1.5,20.7-3.1l0.2-11.8c-3.4,1.5-11.3,2.4-20.5,2.2
		c-9.8,0.2-17.6-1.2-21-2.9V326.6z"/>
	<g>
		<path class="st32" d="M201.3,318.9c3.4,1.7,11.3,2.9,20.9,3.1c10.6,0.2,19.5-1.2,21.9-2.9l0,0c1.9-1.9,11-3.3,21.9-3.1
			c9.8,0,17.5,1.4,20.9,3.1v-1.7c-3.4-1.7-11.3-2.9-21-3.1c-11-0.3-20,1-21.9,3.1l0,0c-2.2,1.9-11.1,3.1-21.7,2.9
			c-9.8-0.2-17.5-1.4-20.9-3.1V318.9L201.3,318.9z"/>
		<path class="st32" d="M201.3,323.3c3.4,1.5,11.3,2.9,20.7,2.9c10.6,0.2,19.5-1.2,21.9-2.9l0,0c2.1-1.9,11-3.3,21.9-3.1
			c9.9,0.2,17.6,1.4,21,3.1v-1.7c-3.4-1.7-11.1-3.1-21-3.1c-11-0.2-20,1.2-22.1,3.1l0,0c-2.4,1.9-11.1,3.1-21.7,2.9
			c-9.6,0-17.3-1.4-20.7-2.9C201.3,321.6,201.3,323.3,201.3,323.3z"/>
	</g>
</g>
<g>
	<path class="st30" d="M168.9,338.1c3.4,1.5,11.3,2.6,20.7,2.6c10.6,0.2,19.3-1.5,21.7-3.3l0,0c2.1-1.7,11-2.9,21.9-2.7
		c9.9,0.2,17.6,1.9,21,3.4v-12.7c-3.4-1.7-11.1-2.9-20.9-3.1c-10.8,0-20,1.4-21.9,3.3l0,0c-2.2,1.9-11.1,3.1-21.7,2.9
		c-9.8,0-17.5-1.4-20.9-3.1V338.1L168.9,338.1z"/>
	<path class="st31" d="M168.9,338.1c3.4,1.5,11.3,2.9,20.7,2.9c9.4,0.2,17.3-1.5,20.7-3.1l0.2-11.8c-3.4,1.5-11.3,2.4-20.5,2.2
		c-9.8,0.2-17.6-1.2-21-2.9V338.1z"/>
	<g>
		<path class="st32" d="M168.9,330.4c3.4,1.7,11.3,2.9,20.9,3.1c10.6,0.2,19.5-1.2,21.9-2.9l0,0c1.9-1.9,11-3.3,21.9-3.1
			c9.8,0,17.5,1.4,20.9,3.1v-1.7c-3.4-1.7-11.3-2.9-21-3.1c-11-0.3-20,1-21.9,3.1l0,0c-2.2,1.9-11.1,3.1-21.7,2.9
			c-9.8-0.2-17.5-1.4-20.9-3.1V330.4L168.9,330.4z"/>
		<path class="st32" d="M168.9,334.9c3.4,1.5,11.3,2.9,20.7,2.9c10.6,0.2,19.5-1.2,21.9-2.9l0,0c2.1-1.9,11-3.3,21.9-3.1
			c9.9,0.2,17.6,1.4,21,3.1v-1.7c-3.4-1.7-11.1-3.1-21-3.1c-11-0.2-20,1.2-22.1,3.1l0,0c-2.4,1.9-11.1,3.1-21.7,2.9
			c-9.6,0-17.3-1.4-20.7-2.9C168.9,333.2,168.9,334.9,168.9,334.9z"/>
	</g>
</g>
</svg>
