<?xml version="1.0" encoding="utf-8"?>
<!-- Generator: Adobe Illustrator 22.1.0, SVG Export Plug-In . SVG Version: 6.00 Build 0)  -->
<svg version="1.1" id="Layer_1" xmlns="http://www.w3.org/2000/svg" xmlns:xlink="http://www.w3.org/1999/xlink" x="0px" y="0px"
	 viewBox="0 0 42.5 42.5" style="enable-background:new 0 0 42.5 42.5;" xml:space="preserve">
<style type="text/css">
	.st0{fill:#FFFFFF;}
	.st1{fill:#FADC3C;}
	.st2{fill:#424A60;}
	.st3{fill:#1EAFD8;}
	.st4{fill:#FF5A00;}
	.st5{fill:#00CDC8;}
</style>
<g>
	<g>
		<circle class="st0" cx="21.2" cy="21.2" r="20.5"/>
		<path class="st0" d="M21.2,1.3c11,0,20,9,20,20s-9,20-20,20s-20-9-20-20S10.2,1.3,21.2,1.3 M21.2,0.3C9.7,0.3,0.3,9.7,0.3,21.2
			s9.4,20.9,20.9,20.9s20.9-9.4,20.9-20.9S32.8,0.3,21.2,0.3L21.2,0.3z"/>
	</g>
	<g>
		<circle class="st0" cx="21.2" cy="21.3" r="18.5"/>
		<circle class="st1" cx="21.2" cy="21.3" r="4.2"/>
		<g>
			<g>
				<path class="st2" d="M21,8.5c0,0.2-0.1,0.3-0.3,0.3h-1.8c-0.2,0-0.3-0.1-0.3-0.3c0-0.2,0.1-0.3,0.3-0.3h0.5V5.9l-0.5,0.3
					c0,0-0.1,0-0.1,0c-0.1,0-0.1,0-0.2-0.1c0-0.1-0.1-0.1-0.1-0.2c0-0.1,0-0.2,0.1-0.2l0.8-0.5c0.1-0.1,0.2-0.1,0.3-0.1
					c0.1,0,0.2,0,0.2,0.1c0.1,0.1,0.1,0.1,0.1,0.2v2.9h0.6C20.9,8.3,21,8.4,21,8.5z"/>
				<path class="st2" d="M24.2,8.5c0,0.2-0.1,0.3-0.3,0.3h-2c-0.1,0-0.2,0-0.2-0.1c-0.1-0.1-0.1-0.1-0.1-0.2c0-0.1,0-0.2,0.1-0.3
					L22.9,7c0.1-0.2,0.3-0.3,0.3-0.5c0.1-0.1,0.1-0.3,0.1-0.4c0-0.2,0-0.3-0.1-0.4c-0.1-0.1-0.2-0.1-0.4-0.1c-0.1,0-0.3,0-0.4,0.1
					c-0.1,0.1-0.3,0.1-0.4,0.2c0,0-0.1,0-0.1,0.1c0,0-0.1,0-0.1,0c-0.1,0-0.1,0-0.1-0.1c0-0.1-0.1-0.1-0.1-0.2c0-0.1,0-0.1,0-0.1
					c0,0,0-0.1,0.1-0.1c0.1-0.1,0.3-0.2,0.5-0.3c0.2-0.1,0.4-0.1,0.6-0.1c0.4,0,0.7,0.1,0.9,0.3C23.9,5.5,24,5.8,24,6.1
					c0,0.2,0,0.4-0.1,0.6c-0.1,0.2-0.2,0.4-0.5,0.6l-0.9,1h1.4C24.1,8.3,24.2,8.4,24.2,8.5z"/>
			</g>
			<g>
				<path class="st2" d="M22,34.6c0.2,0.1,0.3,0.2,0.4,0.4c0.1,0.2,0.1,0.4,0.1,0.6c0,0.2-0.1,0.5-0.2,0.7c-0.1,0.2-0.3,0.3-0.4,0.4
					c-0.2,0.1-0.4,0.2-0.7,0.2c-0.5,0-0.8-0.2-1.1-0.5c-0.3-0.3-0.4-0.8-0.4-1.4c0-0.4,0.1-0.7,0.2-1.1c0.1-0.3,0.3-0.5,0.5-0.7
					c0.2-0.2,0.5-0.2,0.8-0.2c0.2,0,0.4,0,0.6,0.1s0.4,0.2,0.5,0.3c0,0,0.1,0.1,0.1,0.1c0,0,0,0.1,0,0.1c0,0.1,0,0.1-0.1,0.2
					c0,0.1-0.1,0.1-0.1,0.1c0,0-0.1,0-0.1,0c0,0-0.1,0-0.1-0.1c-0.3-0.2-0.6-0.3-0.8-0.3c-0.3,0-0.5,0.1-0.6,0.4
					c-0.1,0.2-0.2,0.6-0.2,1c0.1-0.2,0.2-0.3,0.4-0.4c0.2-0.1,0.3-0.1,0.5-0.1C21.7,34.5,21.9,34.5,22,34.6z M21.8,36.2
					c0.1-0.1,0.2-0.3,0.2-0.5s-0.1-0.4-0.2-0.5c-0.1-0.1-0.3-0.2-0.5-0.2s-0.4,0.1-0.5,0.2c-0.1,0.1-0.2,0.3-0.2,0.5
					c0,0.2,0.1,0.4,0.2,0.5c0.1,0.1,0.3,0.2,0.5,0.2C21.5,36.4,21.7,36.3,21.8,36.2z"/>
			</g>
			<g>
				<path class="st2" d="M8,19.6c0.3,0.3,0.4,0.8,0.4,1.4c0,0.4-0.1,0.7-0.2,1.1c-0.1,0.3-0.3,0.5-0.5,0.7c-0.2,0.2-0.5,0.2-0.8,0.2
					c-0.2,0-0.4,0-0.6-0.1c-0.2-0.1-0.4-0.2-0.5-0.3c0,0-0.1-0.1-0.1-0.1c0,0,0-0.1,0-0.1c0-0.1,0-0.1,0.1-0.2C5.8,22,5.9,22,5.9,22
					C6,22,6,22,6,22c0,0,0.1,0,0.1,0.1c0.3,0.2,0.6,0.3,0.8,0.3c0.3,0,0.5-0.1,0.6-0.4c0.1-0.2,0.2-0.6,0.2-1
					c-0.1,0.2-0.2,0.3-0.4,0.4c-0.2,0.1-0.3,0.1-0.5,0.1c-0.2,0-0.4,0-0.6-0.1c-0.2-0.1-0.3-0.2-0.4-0.4c-0.1-0.2-0.1-0.4-0.1-0.6
					c0-0.2,0.1-0.5,0.2-0.7c0.1-0.2,0.3-0.3,0.4-0.4c0.2-0.1,0.4-0.2,0.7-0.2C7.4,19.1,7.8,19.2,8,19.6z M7.5,20.8
					c0.1-0.1,0.2-0.3,0.2-0.5c0-0.2-0.1-0.4-0.2-0.5c-0.1-0.1-0.3-0.2-0.5-0.2s-0.3,0.1-0.5,0.2c-0.1,0.1-0.2,0.3-0.2,0.5
					c0,0.2,0.1,0.4,0.2,0.5C6.6,20.9,6.8,21,7,21C7.2,21,7.4,20.9,7.5,20.8z"/>
			</g>
			<g>
				<path class="st2" d="M10.6,27.3c0.1,0.1,0.1,0.2,0.1,0.4c0,0.2-0.1,0.4-0.2,0.5c-0.2,0.1-0.4,0.2-0.7,0.2
					c-0.3,0-0.5-0.1-0.7-0.2c-0.2-0.1-0.2-0.3-0.2-0.5c0-0.1,0-0.3,0.1-0.4c0.1-0.1,0.2-0.2,0.3-0.2c-0.1,0-0.2-0.1-0.3-0.2
					C9,26.8,9,26.7,9,26.6c0-0.2,0.1-0.4,0.2-0.5c0.1-0.1,0.4-0.2,0.6-0.2s0.5,0.1,0.6,0.2c0.1,0.1,0.2,0.3,0.2,0.5
					c0,0.1,0,0.2-0.1,0.3c-0.1,0.1-0.2,0.2-0.3,0.2C10.4,27.1,10.5,27.2,10.6,27.3z M10.3,27.7c0-0.2-0.2-0.4-0.5-0.4
					c-0.3,0-0.5,0.1-0.5,0.4c0,0.2,0.2,0.4,0.5,0.4C10.1,28,10.3,27.9,10.3,27.7z M9.4,26.6c0,0.1,0,0.2,0.1,0.3S9.7,27,9.8,27
					c0.1,0,0.2,0,0.3-0.1s0.1-0.1,0.1-0.3c0-0.2-0.1-0.3-0.4-0.3C9.5,26.3,9.4,26.4,9.4,26.6z"/>
			</g>
			<g>
				<path class="st2" d="M9.7,16.2c0,0.1-0.1,0.2-0.2,0.2H8.3c-0.1,0-0.2-0.1-0.2-0.2c0-0.1,0.1-0.2,0.2-0.2h0.4v-1.5l-0.3,0.2
					c0,0-0.1,0-0.1,0c0,0-0.1,0-0.1-0.1c0,0,0-0.1,0-0.1c0-0.1,0-0.1,0.1-0.1l0.5-0.3C8.8,14,8.8,14,8.9,14S9,14,9,14.1
					c0,0,0.1,0.1,0.1,0.2v1.9h0.3C9.6,16.1,9.7,16.1,9.7,16.2z"/>
				<path class="st2" d="M10.2,16.1c-0.1-0.2-0.2-0.5-0.2-0.9s0.1-0.7,0.2-0.9s0.4-0.3,0.7-0.3s0.5,0.1,0.7,0.3
					c0.1,0.2,0.2,0.5,0.2,0.9s-0.1,0.7-0.2,0.9c-0.1,0.2-0.4,0.3-0.7,0.3C10.5,16.4,10.3,16.3,10.2,16.1z M11.2,15.9
					c0.1-0.1,0.1-0.4,0.1-0.7c0-0.3,0-0.5-0.1-0.7s-0.2-0.2-0.3-0.2c-0.2,0-0.3,0.1-0.3,0.2c-0.1,0.1-0.1,0.4-0.1,0.7
					c0,0.3,0,0.5,0.1,0.7c0.1,0.1,0.2,0.2,0.3,0.2C11,16.1,11.1,16,11.2,15.9z"/>
			</g>
			<g>
				<path class="st2" d="M14.1,11.2c0,0.1-0.1,0.2-0.2,0.2h-1.1c-0.1,0-0.2-0.1-0.2-0.2c0-0.1,0.1-0.2,0.2-0.2h0.4V9.5l-0.3,0.2
					c0,0-0.1,0-0.1,0c0,0-0.1,0-0.1-0.1c0,0,0-0.1,0-0.1c0-0.1,0-0.1,0.1-0.1l0.5-0.3C13.2,9,13.3,9,13.3,9c0.1,0,0.1,0,0.1,0.1
					c0,0,0.1,0.1,0.1,0.2v1.9h0.4C14,11.1,14.1,11.1,14.1,11.2z"/>
				<path class="st2" d="M16.1,11.2c0,0.1-0.1,0.2-0.2,0.2h-1.1c-0.1,0-0.2-0.1-0.2-0.2c0-0.1,0.1-0.2,0.2-0.2h0.4V9.5l-0.3,0.2
					c0,0-0.1,0-0.1,0c0,0-0.1,0-0.1-0.1c0,0,0-0.1,0-0.1c0-0.1,0-0.1,0.1-0.1l0.5-0.3C15.3,9,15.3,9,15.4,9s0.1,0,0.1,0.1
					c0,0,0.1,0.1,0.1,0.2v1.9h0.4C16.1,11.1,16.1,11.1,16.1,11.2z"/>
			</g>
			<g>
				<path class="st2" d="M33.4,16.2c0,0.1-0.1,0.2-0.2,0.2h-1.3c-0.1,0-0.1,0-0.1-0.1c0,0,0-0.1,0-0.1c0-0.1,0-0.1,0.1-0.2l0.8-0.8
					c0.1-0.1,0.2-0.2,0.2-0.3c0-0.1,0.1-0.2,0.1-0.3c0-0.1,0-0.2-0.1-0.2c-0.1-0.1-0.1-0.1-0.3-0.1c-0.1,0-0.2,0-0.3,0.1
					c-0.1,0-0.2,0.1-0.3,0.1c0,0,0,0-0.1,0s0,0-0.1,0c0,0-0.1,0-0.1-0.1c0,0,0-0.1,0-0.1c0,0,0-0.1,0-0.1c0,0,0,0,0.1-0.1
					c0.1-0.1,0.2-0.1,0.3-0.2c0.1,0,0.3-0.1,0.4-0.1c0.2,0,0.4,0.1,0.6,0.2c0.1,0.1,0.2,0.3,0.2,0.5c0,0.1,0,0.3-0.1,0.4
					c-0.1,0.1-0.2,0.3-0.3,0.4l-0.6,0.6h0.9C33.4,16.1,33.4,16.1,33.4,16.2z"/>
			</g>
			<g>
				<path class="st2" d="M33.5,27.6c0,0,0,0.1,0,0.1c0,0.1-0.1,0.2-0.2,0.2h-0.2v0.3c0,0.1,0,0.1-0.1,0.2c0,0-0.1,0.1-0.1,0.1
					c-0.1,0-0.1,0-0.1-0.1c0,0-0.1-0.1-0.1-0.2v-0.3h-0.9c-0.1,0-0.1,0-0.1-0.1c0,0,0-0.1,0-0.1s0-0.1,0.1-0.1l1.1-1.5
					c0,0,0-0.1,0.1-0.1c0,0,0.1,0,0.1,0c0.1,0,0.1,0,0.1,0.1c0,0,0.1,0.1,0.1,0.2v1.4h0.2C33.4,27.5,33.4,27.5,33.5,27.6z
					 M32.1,27.5h0.6v-0.9L32.1,27.5z"/>
			</g>
			<g>
				<path class="st2" d="M29.1,32.2c0.1,0.1,0.2,0.1,0.3,0.3s0.1,0.3,0.1,0.4c0,0.1,0,0.3-0.1,0.4c-0.1,0.1-0.2,0.2-0.3,0.3
					c-0.1,0.1-0.3,0.1-0.5,0.1c-0.1,0-0.3,0-0.4-0.1c-0.1,0-0.3-0.1-0.3-0.2c0,0-0.1-0.1-0.1-0.2c0,0,0-0.1,0-0.1
					c0,0,0.1-0.1,0.1-0.1c0,0,0,0,0.1,0c0,0,0,0,0.1,0c0.1,0.1,0.2,0.1,0.3,0.1c0.1,0,0.2,0,0.3,0c0.1,0,0.3,0,0.3-0.1
					C29,33.1,29,33,29,32.9c0-0.1,0-0.2-0.1-0.3c-0.1-0.1-0.2-0.1-0.3-0.1c-0.1,0-0.2,0-0.2,0c-0.1,0-0.1,0.1-0.2,0.1
					c0,0-0.1,0-0.1,0c0,0-0.1,0-0.1,0c0,0,0-0.1,0-0.1v-1.1c0-0.1,0-0.1,0.1-0.1c0,0,0.1-0.1,0.1-0.1h1.1c0.1,0,0.2,0.1,0.2,0.2
					c0,0.1-0.1,0.2-0.2,0.2h-0.9v0.7c0.1-0.1,0.3-0.1,0.4-0.1C28.8,32.1,29,32.1,29.1,32.2z"/>
			</g>
			<g>
				<path class="st2" d="M15.1,31.3c0,0,0,0.1,0,0.1c0,0,0,0.1,0,0.2l-1.1,2c0,0.1-0.1,0.1-0.2,0.1c-0.1,0-0.1,0-0.1-0.1
					c0,0-0.1-0.1-0.1-0.1c0,0,0-0.1,0-0.1l1-1.8h-1c-0.1,0-0.2-0.1-0.2-0.2c0-0.1,0.1-0.2,0.2-0.2h1.4C15,31.2,15,31.3,15.1,31.3z"
					/>
			</g>
			<g>
				<path class="st2" d="M29.4,11.2c0,0.1-0.1,0.2-0.2,0.2h-1.1c-0.1,0-0.2-0.1-0.2-0.2c0-0.1,0.1-0.2,0.2-0.2h0.4V9.5l-0.3,0.2
					c0,0-0.1,0-0.1,0c0,0-0.1,0-0.1-0.1c0,0,0-0.1,0-0.1c0-0.1,0-0.1,0.1-0.1l0.5-0.3C28.5,9,28.6,9,28.7,9s0.1,0,0.1,0.1
					c0,0,0.1,0.1,0.1,0.2v1.9h0.4C29.4,11.1,29.4,11.1,29.4,11.2z"/>
			</g>
			<g>
				<path class="st2" d="M36.8,21.3c0.1,0.1,0.2,0.3,0.2,0.6c0,0.3-0.1,0.6-0.4,0.8c-0.2,0.2-0.6,0.3-0.9,0.3c-0.2,0-0.5,0-0.7-0.1
					c-0.2-0.1-0.4-0.2-0.5-0.3c-0.1-0.1-0.1-0.1-0.1-0.2c0-0.1,0-0.1,0.1-0.2c0,0,0.1-0.1,0.1-0.1c0,0,0.1,0,0.1,0
					c0,0,0.1,0,0.1,0.1c0.1,0.1,0.3,0.2,0.4,0.2c0.1,0.1,0.3,0.1,0.4,0.1c0.2,0,0.4,0,0.5-0.1c0.1-0.1,0.2-0.2,0.2-0.4
					c0-0.2-0.1-0.3-0.2-0.4c-0.1-0.1-0.3-0.1-0.5-0.1h-0.3c-0.1,0-0.1,0-0.2-0.1c0-0.1-0.1-0.1-0.1-0.2c0-0.1,0-0.1,0.1-0.2
					c0-0.1,0.1-0.1,0.2-0.1h0.2c0.5,0,0.7-0.2,0.7-0.5c0-0.2,0-0.3-0.1-0.4c-0.1-0.1-0.2-0.1-0.4-0.1c-0.3,0-0.5,0.1-0.8,0.3
					c0,0-0.1,0-0.1,0.1c0,0-0.1,0-0.1,0c-0.1,0-0.1,0-0.1-0.1c0-0.1-0.1-0.1-0.1-0.2c0-0.1,0-0.1,0-0.1c0,0,0-0.1,0.1-0.1
					c0.1-0.1,0.3-0.2,0.5-0.3c0.2-0.1,0.4-0.1,0.6-0.1c0.4,0,0.7,0.1,0.9,0.3c0.2,0.2,0.3,0.4,0.3,0.7c0,0.2-0.1,0.4-0.2,0.5
					c-0.1,0.1-0.3,0.3-0.4,0.3C36.5,21,36.7,21.1,36.8,21.3z"/>
			</g>
		</g>
		<path class="st3" d="M21.2,41.2c-11,0-20-9-20-20s9-20,20-20s20,9,20,20S32.3,41.2,21.2,41.2z M21.2,4.1
			c-9.4,0-17.1,7.7-17.1,17.1s7.7,17.1,17.1,17.1s17.1-7.7,17.1-17.1S30.7,4.1,21.2,4.1z"/>
		<path class="st4" d="M17.2,26l3.7-5.6c0.3-0.5,1-0.6,1.5-0.3c0.5,0.3,0.6,1,0.3,1.5L19,27.2c-0.3,0.5-1,0.6-1.5,0.3
			C17,27.2,16.8,26.5,17.2,26z"/>
		<path class="st5" d="M21.2,19.8c-0.4,0-0.7-0.3-0.7-0.7v-7.8c0-0.4,0.3-0.7,0.7-0.7s0.7,0.3,0.7,0.7v7.8
			C22,19.5,21.7,19.8,21.2,19.8z"/>
		<g>
			<circle class="st0" cx="21.2" cy="21.3" r="2.8"/>
			<path class="st2" d="M21.2,24.1c-1.6,0-2.9-1.3-2.9-2.9s1.3-2.9,2.9-2.9s2.9,1.3,2.9,2.9S22.8,24.1,21.2,24.1z M21.2,19.8
				c-0.8,0-1.4,0.6-1.4,1.4c0,0.8,0.6,1.4,1.4,1.4c0.8,0,1.4-0.6,1.4-1.4C22.7,20.5,22,19.8,21.2,19.8z"/>
		</g>
	</g>
</g>
</svg>
