<?xml version="1.0" encoding="utf-8"?>
<!-- Generator: Adobe Illustrator 22.0.1, SVG Export Plug-In . SVG Version: 6.00 Build 0)  -->
<svg version="1.1" id="Layer_1" xmlns="http://www.w3.org/2000/svg" xmlns:xlink="http://www.w3.org/1999/xlink" x="0px" y="0px"
	 viewBox="0 0 512 512" style="enable-background:new 0 0 512 512;" xml:space="preserve">
<style type="text/css">
	.st0{fill:#FFFFFF;}
	.st1{fill:#A5D73C;}
	.st2{fill:#F24044;}
	.st3{fill:#FADC3C;}
	.st4{fill:#FF5A00;}
	.st5{fill:#691869;}
</style>
<g>
	<g>
		
			<ellipse transform="matrix(0.7071 -0.7071 0.7071 0.7071 -102.4674 247.606)" class="st0" cx="247.7" cy="247.5" rx="68.1" ry="68.1"/>
		<path class="st0" d="M247.7,184.4c34.9,0,63.1,28.3,63.1,63.1c0,34.9-28.3,63.1-63.1,63.1c-34.9,0-63.1-28.3-63.1-63.1
			C184.5,212.6,212.8,184.4,247.7,184.4 M247.7,174.4c-40.3,0-73.1,32.8-73.1,73.1s32.8,73.1,73.1,73.1s73.1-32.8,73.1-73.1
			S288,174.4,247.7,174.4L247.7,174.4z"/>
	</g>
	<g>
		<path class="st0" d="M24.3,443c-2.8,0-5-2.2-5-5V143c0-0.9,0.2-1.7,0.7-2.5l63.5-110C84.3,29,86,28,87.8,28s3.4,1,4.3,2.5
			l63.5,110c0.4,0.8,0.7,1.6,0.7,2.5v163h194c1.4,0,2.7,0.6,3.6,1.5l108.4,63.1c1.5,0.9,2.5,2.5,2.5,4.3c0,1.8-1,3.4-2.5,4.3
			l-109.4,63c-0.1,0-0.1,0.1-0.2,0.1c-0.7,0.4-1.5,0.6-2.4,0.6H24.3z"/>
		<path class="st0" d="M87.8,33l63.5,110v168h199v0.2l109.5,63.7l-109.4,63l-0.1-58.5V438h-199h-127V311V143L87.8,33 M87.8,23
			c-3.6,0-6.9,1.9-8.7,5L15.6,138c-0.9,1.5-1.3,3.2-1.3,5v168v127c0,5.5,4.5,10,10,10h127h199c1.8,0,3.4-0.5,4.8-1.2
			c0.1-0.1,0.2-0.1,0.3-0.2l109.4-63c3.1-1.8,5-5.1,5-8.6c0-3.6-1.9-6.9-5-8.7l-107.9-62.8c-1.8-1.6-4.1-2.5-6.6-2.5h-189V143
			c0-1.8-0.5-3.5-1.3-5L96.4,28C94.6,24.9,91.3,23,87.8,23L87.8,23z"/>
	</g>
</g>
<g>
	<g>
		<rect x="151.3" y="311" class="st1" width="199" height="127"/>
	</g>
	<g>
		<rect x="24.3" y="143" class="st1" width="127" height="168"/>
	</g>
	<g>
		<rect x="24.3" y="311" class="st2" width="127" height="127"/>
	</g>
	<g>
		<circle class="st3" cx="247.7" cy="247.5" r="63.1"/>
	</g>
	<g>
		<polygon class="st4" points="87.8,33 24.3,143 151.3,143 		"/>
	</g>
	<g>
		<polygon class="st4" points="350.1,311.1 350.4,437.9 459.7,374.9 		"/>
	</g>
</g>
<g>
	<path class="st5" d="M408.4,243.4c-1.5-1.5-2.3-3.5-2.3-5.7s0.8-4.2,2.3-5.7s3.5-2.3,5.7-2.3H487c2.3,0,4.2,0.8,5.7,2.4
		c1.5,1.5,2.3,3.5,2.3,5.9c0,2.1-0.8,4.1-2.3,5.6s-3.5,2.3-5.7,2.3h-72.9C411.8,245.7,409.9,244.9,408.4,243.4z M408.4,279.9
		c-1.5-1.5-2.3-3.5-2.3-5.7s0.8-4.2,2.3-5.7s3.5-2.3,5.7-2.3H487c2.3,0,4.2,0.8,5.7,2.4c1.5,1.5,2.3,3.5,2.3,5.9
		c0,2.1-0.8,4.1-2.3,5.6s-3.5,2.3-5.7,2.3h-72.9C411.8,282.2,409.9,281.4,408.4,279.9z"/>
</g>
</svg>
