<?xml version="1.0" encoding="utf-8"?>
<!-- Generator: Adobe Illustrator 22.0.1, SVG Export Plug-In . SVG Version: 6.00 Build 0)  -->
<svg version="1.1" id="Layer_1" xmlns="http://www.w3.org/2000/svg" xmlns:xlink="http://www.w3.org/1999/xlink" x="0px" y="0px"
	 viewBox="0 0 512 512" style="enable-background:new 0 0 512 512;" xml:space="preserve">
<style type="text/css">
	.st0{fill:#691869;}
	.st1{fill:#FFFFFF;}
	.st2{fill:#FF5A00;}
	.st3{fill:#A5D73C;}
	.st4{fill:#F24044;}
	.st5{fill:#00CDC8;}
	.st6{fill:#FADC3C;}
</style>
<g>
	<path class="st0" d="M408.4,243.4c-1.5-1.5-2.3-3.5-2.3-5.7s0.8-4.2,2.3-5.7s3.5-2.3,5.7-2.3H487c2.3,0,4.2,0.8,5.7,2.4
		c1.5,1.5,2.3,3.5,2.3,5.9c0,2.1-0.8,4.1-2.3,5.6s-3.5,2.3-5.7,2.3h-72.9C411.8,245.7,409.9,244.9,408.4,243.4z M408.4,279.9
		c-1.5-1.5-2.3-3.5-2.3-5.7s0.8-4.2,2.3-5.7s3.5-2.3,5.7-2.3H487c2.3,0,4.2,0.8,5.7,2.4c1.5,1.5,2.3,3.5,2.3,5.9
		c0,2.1-0.8,4.1-2.3,5.6s-3.5,2.3-5.7,2.3h-72.9C411.8,282.2,409.9,281.4,408.4,279.9z"/>
</g>
<g>
	<path class="st1" d="M21.7,434.6c-3,0-5.4-2.4-5.4-5.4V170.3c0-1.1,0.3-2.1,0.9-3l50.2-87c1-1.7,2.7-2.7,4.7-2.7s3.7,1,4.7,2.7
		l50.2,87c0.6,0.8,0.9,1.9,0.9,2.9v51.9h147.4v-51.9c0-1.1,0.3-2.1,0.9-3l50.2-87c1-1.7,2.7-2.7,4.7-2.7s3.7,1,4.7,2.7l50.2,87
		c0.6,0.8,0.9,1.9,0.9,2.9v258.9c0,3-2.4,5.4-5.4,5.4H21.7z"/>
	<path class="st1" d="M331.1,83l50.4,87.3h0v158.1v100.8H280.7H122.6H21.7V328.4V170.3h0L72.2,83l50.4,87.3h0v57.3h158.1v-57.3h0
		L331.1,83 M331.1,72.3c-3.8,0-7.4,2-9.3,5.4l-50.2,86.9c-1.1,1.7-1.7,3.6-1.7,5.8v46.5H133.3v-46.5c0-2.1-0.6-4.1-1.7-5.8
		L81.5,77.6c-1.9-3.3-5.5-5.4-9.3-5.4c-3.8,0-7.4,2-9.3,5.4l-50.2,86.9c-1.1,1.7-1.7,3.6-1.7,5.8v158.1v100.8
		c0,5.9,4.8,10.7,10.7,10.7h100.8h158.1h100.8c5.9,0,10.7-4.8,10.7-10.7V328.4V170.3c0-2.1-0.6-4.1-1.7-5.8l-50.1-86.8
		C338.5,74.3,334.9,72.3,331.1,72.3L331.1,72.3z"/>
</g>
<g>
	<rect x="122.6" y="227.6" class="st2" width="158.1" height="100.8"/>
</g>
<g>
	<rect x="122.6" y="328.4" class="st3" width="158.1" height="100.8"/>
</g>
<g>
	<rect x="280.7" y="328.4" class="st4" width="100.8" height="100.8"/>
</g>
<g>
	<rect x="21.7" y="328.4" class="st4" width="100.8" height="100.8"/>
</g>
<g>
	<rect x="280.7" y="170.3" class="st5" width="100.8" height="158.1"/>
</g>
<g>
	<polygon class="st6" points="331.1,83 280.7,170.3 381.5,170.3 	"/>
</g>
<g>
	<rect x="21.7" y="170.3" class="st5" width="100.8" height="158.1"/>
</g>
<g>
	<polygon class="st6" points="72.2,83 21.8,170.3 122.5,170.3 	"/>
</g>
</svg>
