<?xml version="1.0" encoding="utf-8"?>
<!-- Generator: Adobe Illustrator 22.0.1, SVG Export Plug-In . SVG Version: 6.00 Build 0)  -->
<svg version="1.1" id="Layer_1" xmlns="http://www.w3.org/2000/svg" xmlns:xlink="http://www.w3.org/1999/xlink" x="0px" y="0px"
	 viewBox="0 0 512 512" style="enable-background:new 0 0 512 512;" xml:space="preserve">
<style type="text/css">
	.st0{fill:#691869;}
	.st1{fill:#FFFFFF;}
	.st2{fill:#F24044;}
	.st3{fill:#FADC3C;}
	.st4{fill:#00CDC8;}
	.st5{fill:#A5D73C;}
</style>
<g>
	<path class="st0" d="M408.4,243.4c-1.5-1.5-2.3-3.5-2.3-5.7s0.8-4.2,2.3-5.7s3.5-2.3,5.7-2.3H487c2.3,0,4.2,0.8,5.7,2.4
		c1.5,1.5,2.3,3.5,2.3,5.9c0,2.1-0.8,4.1-2.3,5.6s-3.5,2.3-5.7,2.3h-72.9C411.8,245.7,409.9,244.9,408.4,243.4z M408.4,279.9
		c-1.5-1.5-2.3-3.5-2.3-5.7s0.8-4.2,2.3-5.7s3.5-2.3,5.7-2.3H487c2.3,0,4.2,0.8,5.7,2.4c1.5,1.5,2.3,3.5,2.3,5.9
		c0,2.1-0.8,4.1-2.3,5.6s-3.5,2.3-5.7,2.3h-72.9C411.8,282.2,409.9,281.4,408.4,279.9z"/>
</g>
<g>
	<path class="st1" d="M45.4,427.9c-2.8,0-5-2.2-5-5V90.3c0-2.8,2.2-5,5-5H368c2.8,0,5,2.2,5,5v332.6c0,2.8-2.2,5-5,5H45.4z"/>
	<path class="st1" d="M368,90.3v166.3v166.3H206.7H45.4V256.6V90.3h161.3H368 M368,80.3H206.7H45.4c-5.5,0-10,4.5-10,10v166.3v166.3
		c0,5.5,4.5,10,10,10h161.3H368c5.5,0,10-4.5,10-10V256.6V90.3C378,84.7,373.5,80.3,368,80.3L368,80.3z"/>
</g>
<g>
	<polygon class="st2" points="368,256.6 206.7,256.6 368,90.3 	"/>
</g>
<g>
	<polygon class="st3" points="206.7,256.6 206.7,90.3 368,90.3 	"/>
</g>
<g>
	<polygon class="st3" points="206.7,422.9 45.4,422.9 206.7,256.6 	"/>
</g>
<g>
	<polygon class="st2" points="45.4,422.9 45.4,256.6 206.7,256.6 	"/>
</g>
<g>
	<rect x="206.7" y="256.6" class="st4" width="161.3" height="166.3"/>
</g>
<g>
	<rect x="45.4" y="90.3" class="st5" width="161.3" height="166.3"/>
</g>
</svg>
