<?xml version="1.0" encoding="utf-8"?>
<!-- Generator: Adobe Illustrator 22.0.1, SVG Export Plug-In . SVG Version: 6.00 Build 0)  -->
<svg version="1.1" id="Layer_1" xmlns="http://www.w3.org/2000/svg" xmlns:xlink="http://www.w3.org/1999/xlink" x="0px" y="0px"
	 viewBox="0 0 512 512" style="enable-background:new 0 0 512 512;" xml:space="preserve">
<style type="text/css">
	.st0{fill:#691869;}
	.st1{fill:#FFFFFF;}
	.st2{fill:#00CDC8;}
	.st3{fill:#FF5A00;}
	.st4{fill:#F24044;}
	.st5{fill:#A5D73C;}
	.st6{fill:#FADC3C;}
</style>
<g>
	<path class="st0" d="M408.4,243.4c-1.5-1.5-2.3-3.5-2.3-5.7s0.8-4.2,2.3-5.7s3.5-2.3,5.7-2.3H487c2.3,0,4.2,0.8,5.7,2.4
		c1.5,1.5,2.3,3.5,2.3,5.9c0,2.1-0.8,4.1-2.3,5.6s-3.5,2.3-5.7,2.3h-72.9C411.8,245.7,409.9,244.9,408.4,243.4z M408.4,279.9
		c-1.5-1.5-2.3-3.5-2.3-5.7s0.8-4.2,2.3-5.7s3.5-2.3,5.7-2.3H487c2.3,0,4.2,0.8,5.7,2.4c1.5,1.5,2.3,3.5,2.3,5.9
		c0,2.1-0.8,4.1-2.3,5.6s-3.5,2.3-5.7,2.3h-72.9C411.8,282.2,409.9,281.4,408.4,279.9z"/>
</g>
<g>
	<path class="st1" d="M50.8,431.5c-1.3,0-2.6-0.5-3.5-1.5c-0.9-0.9-1.5-2.2-1.5-3.5l0-324.5c0-2.8,2.2-5,5-5h308.6c2.8,0,5,2.2,5,5
		v324.4c0,2.8-2.2,5.1-5,5.1H50.8z"/>
	<path class="st1" d="M359.4,102v108.2h0v108.2h0v108.1l0,0h0v0.1H256.5v0H153.7v0H50.8v-0.1h0V318.3v-0.1V210.2V102h102.9h0h102.9
		h0h0H359.4 M359.4,92H256.5H153.7H50.8c-5.5,0-10,4.5-10,10v108.2v108.1v0.1v108.1c0,0,0,0,0,0.1l0,0.1c0,5.5,4.5,9.9,10,9.9h102.9
		l102.9,0l102.9,0c2.7,0,5.2-1.1,7.1-2.9c1.9-1.9,2.9-4.4,2.9-7.1v-0.1l0-108.1l0-108.2l0-108.2C369.4,96.5,364.9,92,359.4,92
		L359.4,92z"/>
</g>
<g>
	<g>
		<polygon class="st2" points="359.4,102 256.5,210.2 256.5,102 		"/>
	</g>
	<g>
		<rect x="256.5" y="318.3" class="st3" width="102.9" height="108.2"/>
	</g>
	<g>
		<polygon class="st2" points="256.5,210.2 153.7,318.3 153.7,210.2 		"/>
	</g>
	<g>
		<polygon class="st4" points="153.7,318.3 256.5,210.2 256.5,318.3 		"/>
	</g>
	<g>
		<polygon class="st2" points="153.7,318.3 50.8,426.4 50.8,318.3 		"/>
	</g>
	<g>
		<polygon class="st4" points="50.8,426.4 153.7,318.3 153.7,426.4 		"/>
	</g>
	<g>
		<polygon class="st4" points="256.5,210.2 359.4,102 359.4,210.2 		"/>
	</g>
	<g>
		<rect x="153.7" y="318.3" class="st5" width="102.9" height="108.2"/>
	</g>
	<g>
		<rect x="256.5" y="210.2" class="st6" width="102.9" height="108.2"/>
	</g>
	<g>
		<rect x="50.8" y="102" class="st3" width="102.9" height="108.2"/>
	</g>
	<g>
		<rect x="50.8" y="210.2" class="st6" width="102.9" height="108.2"/>
	</g>
	<g>
		<rect x="153.7" y="102" class="st5" width="102.9" height="108.2"/>
	</g>
</g>
</svg>
