<?xml version="1.0" encoding="utf-8"?>
<!-- Generator: Adobe Illustrator 22.0.1, SVG Export Plug-In . SVG Version: 6.00 Build 0)  -->
<svg version="1.1" id="Layer_1" xmlns="http://www.w3.org/2000/svg" xmlns:xlink="http://www.w3.org/1999/xlink" x="0px" y="0px"
	 viewBox="0 0 512 512" style="enable-background:new 0 0 512 512;" xml:space="preserve">
<style type="text/css">
	.st0{fill:#691869;}
	.st1{fill:#FFFFFF;}
	.st2{fill:none;}
	.st3{fill:#00CDC8;}
	.st4{fill:#137A75;}
	.st5{fill:#F24044;}
	.st6{fill:#E60F0F;}
	.st7{fill:#FADC3C;}
	.st8{fill:#E7C42A;}
	.st9{fill:#A5D73C;}
	.st10{fill:#8ABB2A;}
</style>
<g>
	<path class="st0" d="M408.4,243.4c-1.5-1.5-2.3-3.5-2.3-5.7s0.8-4.2,2.3-5.7s3.5-2.3,5.7-2.3H487c2.3,0,4.2,0.8,5.7,2.4
		c1.5,1.5,2.3,3.5,2.3,5.9c0,2.1-0.8,4.1-2.3,5.6s-3.5,2.3-5.7,2.3h-72.9C411.8,245.7,409.9,244.9,408.4,243.4z M408.4,279.9
		c-1.5-1.5-2.3-3.5-2.3-5.7s0.8-4.2,2.3-5.7s3.5-2.3,5.7-2.3H487c2.3,0,4.2,0.8,5.7,2.4c1.5,1.5,2.3,3.5,2.3,5.9
		c0,2.1-0.8,4.1-2.3,5.6s-3.5,2.3-5.7,2.3h-72.9C411.8,282.2,409.9,281.4,408.4,279.9z"/>
</g>
<g>
	<path class="st1" d="M48.4,426c-2.8,0-5-2.2-5-5V99c0-2.8,2.2-5,5-5h322c2.8,0,5,2.2,5,5v322c0,2.8-2.2,5-5,5H48.4z"/>
	<path class="st1" d="M370.4,99v161v161h-322V99h161H370.4 M370.4,89h-161h-161c-5.5,0-10,4.5-10,10v322c0,5.5,4.5,10,10,10h322
		c5.5,0,10-4.5,10-10V260V99C380.4,93.5,375.9,89,370.4,89L370.4,89z"/>
</g>
<path class="st2" d="M290.9,394.7"/>
<g>
	<rect x="212.4" y="101.9" class="st3" width="155.1" height="155.1"/>
	<path class="st4" d="M364.6,104.9v149.3H215.3V104.9H364.6 M370.4,99h-161v161h161V99L370.4,99z"/>
</g>
<g>
	<polygon class="st5" points="216.5,262.9 367.5,262.9 367.5,413.9 	"/>
	<path class="st6" d="M364.6,265.8v141l-141-141H364.6 M370.4,260h-161l161,161V260L370.4,260z"/>
</g>
<g>
	<polygon class="st7" points="51.3,418.1 51.3,106 363.4,418.1 	"/>
	<path class="st8" d="M54.2,113l302.2,302.2H54.2V113 M48.4,99v322h322L48.4,99L48.4,99z"/>
</g>
<g>
	<polygon class="st9" points="55.5,101.9 206.5,101.9 206.5,252.9 	"/>
	<g>
		<path class="st10" d="M203.6,104.9v141l-141-141H203.6 M209.4,99h-161l161,161V99L209.4,99z"/>
	</g>
</g>
</svg>
