<?xml version="1.0" encoding="utf-8"?>
<!-- Generator: Adobe Illustrator 22.0.1, SVG Export Plug-In . SVG Version: 6.00 Build 0)  -->
<svg version="1.1" id="Layer_1" xmlns="http://www.w3.org/2000/svg" xmlns:xlink="http://www.w3.org/1999/xlink" x="0px" y="0px"
	 viewBox="0 0 50 50" style="enable-background:new 0 0 50 50;" xml:space="preserve">
<style type="text/css">
	.st0{fill:#3CBFBF;}
	.st1{fill:#EF4245;}
	.st2{fill:#F9DC3E;}
	.st3{fill:#A6CF41;}
	.st4{fill:#FFFFFF;}
</style>
<g>
	<rect x="138.1" y="51.9" class="st0" width="42.3" height="27"/>
</g>
<g>
	<polygon class="st1" points="227.6,47.5 209.3,79.2 245.9,79.2 	"/>
</g>
<g>
	<rect x="214.9" y="9.4" class="st0" width="27" height="27"/>
</g>
<g>
	<rect x="71.9" y="9.4" class="st1" width="42.3" height="27"/>
</g>
<g>
	<circle class="st2" cx="160.7" cy="22.9" r="16.1"/>
</g>
<polygon class="st3" points="99.3,51 117.6,82.7 81,82.7 "/>
<g>
	<path class="st2" d="M11.5,40c-0.8,0-1.5-0.7-1.5-1.5v-27c0-0.8,0.7-1.5,1.5-1.5h27c0.8,0,1.5,0.7,1.5,1.5v27
		c0,0.8-0.7,1.5-1.5,1.5H11.5z"/>
	<path class="st4" d="M38.5,11.5v27h-27v-27H38.5 M38.5,8.5h-27c-1.7,0-3,1.3-3,3v27c0,1.7,1.3,3,3,3h27c1.7,0,3-1.3,3-3v-27
		C41.5,9.9,40.1,8.5,38.5,8.5L38.5,8.5z"/>
</g>
</svg>
