<?xml version="1.0" encoding="utf-8"?>
<!-- Generator: Adobe Illustrator 22.0.1, SVG Export Plug-In . SVG Version: 6.00 Build 0)  -->
<svg version="1.1" id="Layer_1" xmlns="http://www.w3.org/2000/svg" xmlns:xlink="http://www.w3.org/1999/xlink" x="0px" y="0px"
	 viewBox="0 0 50 50" style="enable-background:new 0 0 50 50;" xml:space="preserve">
<style type="text/css">
	.st0{fill:#A6CF41;}
	.st1{fill:#FFFFFF;}
</style>
<g>
	<path class="st0" d="M25,42.7c-9.7,0-17.6-7.9-17.6-17.6S15.3,7.4,25,7.4S42.6,15.3,42.6,25S34.7,42.7,25,42.7z"/>
	<path class="st1" d="M25,8.9c8.9,0,16.1,7.2,16.1,16.1S33.9,41.1,25,41.1S8.9,33.9,8.9,25S16.1,8.9,25,8.9 M25,5.9
		C14.4,5.9,5.9,14.5,5.9,25S14.5,44.1,25,44.1S44.1,35.5,44.1,25S35.6,5.9,25,5.9L25,5.9z"/>
</g>
</svg>
