<?xml version="1.0" encoding="utf-8"?>
<!-- Generator: Adobe Illustrator 22.0.1, SVG Export Plug-In . SVG Version: 6.00 Build 0)  -->
<svg version="1.1" id="Layer_1" xmlns="http://www.w3.org/2000/svg" xmlns:xlink="http://www.w3.org/1999/xlink" x="0px" y="0px"
	 viewBox="0 0 50 50" style="enable-background:new 0 0 50 50;" xml:space="preserve">
<style type="text/css">
	.st0{fill:#3CBFBF;}
	.st1{fill:#FFFFFF;}
</style>
<g>
	<path class="st0" d="M11.5,47.6c-0.8,0-1.5-0.7-1.5-1.5V3.9c0-0.8,0.7-1.5,1.5-1.5h27C39.3,2.4,40,3,40,3.9v42.3
		c0,0.8-0.7,1.5-1.5,1.5H11.5z"/>
	<path class="st1" d="M38.5,3.9v42.3h-27V3.9H38.5 M38.5,0.9h-27c-1.7,0-3,1.3-3,3v42.3c0,1.7,1.3,3,3,3h27c1.7,0,3-1.3,3-3V3.9
		C41.5,2.2,40.1,0.9,38.5,0.9L38.5,0.9z"/>
</g>
</svg>
