<?xml version="1.0" encoding="utf-8"?>
<!-- Generator: Adobe Illustrator 22.0.1, SVG Export Plug-In . SVG Version: 6.00 Build 0)  -->
<svg version="1.1" id="Layer_1" xmlns="http://www.w3.org/2000/svg" xmlns:xlink="http://www.w3.org/1999/xlink" x="0px" y="0px"
	 viewBox="0 0 512 512" style="enable-background:new 0 0 512 512;" xml:space="preserve">
<style type="text/css">
	.st0{fill:#FFFFFF;}
	.st1{fill:#231F20;}
	.st2{fill:none;stroke:#000000;stroke-width:1.2049;stroke-miterlimit:10;}
	.st3{fill:#FF5A00;}
	.st4{fill:#00CDC8;}
</style>
<g>
	<path class="st0" d="M201.9,506.8c-10.2,0-18.6-7.6-19.6-17.7l-2.8-27.4h-5.7c-6.8,0-12.9-4.3-15-10.9l-24.4-73.2
		c-21.6-26.2-33.5-59.5-33.5-93.5s11.9-67.3,33.4-93.5l24.4-73.2c2.1-6.5,8.2-10.9,15-10.9h5.7l2.8-27.4c1-10.1,9.4-17.7,19.6-17.7
		H295c10.2,0,18.6,7.6,19.6,17.7l2.8,27.4h5.7c6.8,0,12.9,4.3,15,10.9l24.4,73.2c15.8,19.2,26.4,42.1,30.9,66.4h5.4
		c6.7,0,12.2,5.4,12.2,12.2v30.1c0,6.7-5.4,12.2-12.2,12.2h-5.3c-4.5,24.3-15.1,47.2-30.9,66.4L338.1,451c-2.1,6.5-8.2,10.9-15,10.9
		h-5.7l-2.8,27.4c-1,10.1-9.4,17.7-19.6,17.7L201.9,506.8L201.9,506.8z M184.9,423c1.3-0.5,2.7-0.7,4.2-0.7h7.9
		c-4.3-1.6-8.6-3.4-12.7-5.4L184.9,423z M307.9,422.3c1.4,0,2.8,0.3,4.2,0.7l0.6-6.2c-4.2,2-8.4,3.8-12.7,5.4L307.9,422.3
		L307.9,422.3z M299.9,145.7c4.3,1.6,8.6,3.4,12.7,5.4L312,145c-1.3,0.5-2.7,0.7-4.2,0.7H299.9z M184.3,151.1
		c4.2-2,8.4-3.8,12.7-5.4h-7.9c-1.4,0-2.8-0.3-4.2-0.7L184.3,151.1z"/>
	<path class="st0" d="M295.1,65.9c7.8,0,14.2,5.8,15,13.6l3.1,31.6h9.9c4.9,0,9.1,3.1,10.7,7.8l24.6,74c16,19.3,27,42.8,31.1,68.7
		h9.3c4.2,0,7.6,3.3,7.6,7.6v30.1c0,4.2-3.3,7.6-7.6,7.6h-9.3c-4.1,25.8-15.1,49.4-31.1,68.7l-24.6,74c-1.6,4.6-5.8,7.8-10.7,7.8
		h-9.9l-3.1,31.6c-0.7,7.7-7.2,13.6-15,13.6H202c-7.8,0-14.2-5.8-15-13.6l-3.1-31.6h-10c-4.9,0-9.1-3.1-10.7-7.8l-24.6-74
		c-20.6-24.9-33-56.7-33-91.4s12.4-66.5,33-91.3l24.6-74c1.6-4.6,5.8-7.8,10.7-7.8h10l3.1-31.6c0.7-7.7,7.2-13.6,15-13.6L295.1,65.9
		 M178.8,159.2c20.6-11.5,44.3-18.1,69.6-18.1s49,6.6,69.6,18.1l-2.8-27.5l0.1,1.1c0.5,4.4-3,8.3-7.5,8.3h-59.4H189
		c-4.4,0-7.9-3.9-7.5-8.3l0.2-1.7L178.8,159.2 M318.1,408.8c-20.6,11.5-44.3,18.1-69.6,18.1s-49-6.6-69.6-18.1l2.9,27.7l-0.1-1.3
		c-0.5-4.4,3-8.3,7.5-8.3h59.4H308c4.4,0,7.9,3.9,7.5,8.3l-0.2,1.5L318.1,408.8 M295.1,56.6H202c-12.6,0-22.9,9.4-24.2,21.9
		l-2.3,23.3h-1.6c-8.9,0-16.7,5.6-19.5,14l-24.2,72.5c-10.5,13-18.8,27.6-24.6,43.3c-6.1,16.7-9.2,34.3-9.2,52.4s3.1,35.7,9.3,52.5
		c5.8,15.7,14,30.2,24.6,43.3l24.2,72.5c2.8,8.4,10.6,14,19.5,14h1.6l2.3,23.3c1.3,12.5,11.6,21.9,24.2,21.9h93.1
		c12.6,0,22.9-9.4,24.2-21.9l2.3-23.3h1.6c8.9,0,16.7-5.6,19.5-14l24.2-72.5c15.1-18.6,25.7-40.6,30.6-64h1.7
		c9.2,0,16.8-7.5,16.8-16.8v-30c0-9.2-7.5-16.8-16.8-16.8h-1.7c-5-23.4-15.5-45.3-30.6-64l-24.2-72.5c-2.8-8.4-10.6-14-19.5-14h-1.7
		l-2.3-23.3C318,65.9,307.6,56.6,295.1,56.6L295.1,56.6z"/>
</g>
<g>
	<path d="M398.9,306.6h-15v-45.1h15c4.2,0,7.6,3.3,7.6,7.6v30.1C406.5,303.2,403.2,306.6,398.9,306.6z"/>
	<path d="M183.9,111l-5.7,55.1l-42.5,35.2l27.5-82.5c1.6-4.6,5.8-7.8,10.7-7.8H183.9L183.9,111z"/>
	<path d="M313.1,111l5.7,55.1l42.5,35.2l-27.5-82.5c-1.6-4.6-5.8-7.8-10.7-7.8H313.1L313.1,111z"/>
	<path d="M313.1,457l5.7-55.1l42.5-35.2l-27.5,82.5c-1.6,4.6-5.8,7.8-10.7,7.8L313.1,457L313.1,457z"/>
	<path d="M183.9,457l-5.7-55.1l-42.5-35.2l27.5,82.5c1.6,4.6,5.8,7.8,10.7,7.8L183.9,457L183.9,457z"/>
</g>
<path class="st1" d="M307.9,141.1H189.1c-4.4,0-7.9-3.9-7.5-8.3l5.4-53.5c0.7-7.7,7.2-13.6,15-13.6h93.1c7.8,0,14.2,5.8,15,13.6
	l5.4,53.5C315.8,137.2,312.3,141.1,307.9,141.1z"/>
<path d="M293.7,126h-90.3c-4.2,0-7.6-3.3-7.6-7.6l0,0c0-4.2,3.3-7.6,7.6-7.6h90.3c4.2,0,7.6,3.3,7.6,7.6l0,0
	C301.2,122.6,297.8,126,293.7,126z"/>
<path class="st1" d="M189.1,426.9h118.8c4.4,0,7.9,3.9,7.5,8.3l-5.4,53.5c-0.7,7.7-7.2,13.6-15,13.6h-93.1c-7.8,0-14.2-5.8-15-13.6
	l-5.4-53.5C181.1,430.8,184.6,426.9,189.1,426.9z"/>
<path d="M203.4,442h90.3c4.2,0,7.6,3.3,7.6,7.6l0,0c0,4.2-3.3,7.6-7.6,7.6h-90.3c-4.2,0-7.6-3.3-7.6-7.6l0,0
	C195.8,445.4,199.1,442,203.4,442z"/>
<circle class="st1" cx="248.4" cy="284" r="142.9"/>
<circle cx="248.4" cy="284" r="127.9"/>
<circle class="st1" cx="248.4" cy="284" r="112.8"/>
<ellipse transform="matrix(0.9239 -0.3827 0.3827 0.9239 -90.7688 116.8747)" class="st2" cx="248.4" cy="286.6" rx="44.1" ry="44.1"/>
<g>
	<g>
		<path class="st0" d="M245.6,204.5c0,1.2-0.6,1.8-2,1.8H232c-1.4,0-2-0.6-2-1.8s0.6-1.8,2-1.8h3.5v-15.6l-3.3,2
			c-0.3,0.2-0.6,0.3-0.9,0.3c-0.5,0-0.9-0.2-1.2-0.6s-0.5-0.9-0.5-1.4c0-0.6,0.3-1.2,0.9-1.6l5.3-3.3c0.6-0.4,1.4-0.6,1.9-0.6
			c0.6,0,1.2,0.2,1.6,0.6c0.4,0.4,0.6,0.9,0.6,1.6v18.6h3.6C244.8,202.8,245.6,203.3,245.6,204.5z"/>
		<path class="st0" d="M265.9,204.5c0,1.2-0.6,1.8-2,1.8H251c-0.6,0-1.1-0.2-1.4-0.5c-0.4-0.4-0.5-0.7-0.5-1.4s0.3-1.3,0.7-1.8
			l7.8-8.4c1-1.1,1.7-2,2.1-3c0.5-0.9,0.6-1.8,0.6-2.7c0-1.1-0.3-1.8-0.9-2.4c-0.6-0.6-1.5-0.9-2.7-0.9c-1,0-1.8,0.2-2.8,0.5
			c-0.9,0.4-1.8,0.9-2.7,1.5c-0.2,0.2-0.5,0.3-0.6,0.4c-0.2,0.1-0.5,0.2-0.6,0.2c-0.4,0-0.6-0.2-1-0.6c-0.4-0.4-0.4-0.7-0.4-1.3
			c0-0.4,0.1-0.6,0.2-0.9c0.1-0.3,0.3-0.5,0.6-0.6c1-0.7,2.1-1.5,3.5-1.8c1.4-0.5,2.8-0.6,4-0.6c2.3,0,4.2,0.6,5.6,1.8
			s2.1,2.9,2.1,4.8c0,1.4-0.3,2.8-0.9,3.9c-0.6,1.3-1.6,2.5-3,4.1l-5.9,6.4h9C265.2,202.8,265.9,203.3,265.9,204.5z"/>
	</g>
	<g>
		<path class="st0" d="M252.1,373.3c1.1,0.6,1.9,1.6,2.7,2.8c0.6,1.2,1,2.5,1,4c0,1.6-0.4,3-1.1,4.2c-0.6,1.3-1.7,2.1-2.9,2.9
			c-1.2,0.6-2.7,1.1-4.2,1.1c-3,0-5.4-1.1-7-3.1s-2.4-5-2.4-8.9c0-2.7,0.4-4.9,1.2-6.8c0.7-1.9,1.8-3.4,3.3-4.4
			c1.5-1.1,3.1-1.6,5.1-1.6c1.3,0,2.7,0.2,3.9,0.6c1.3,0.5,2.4,1.1,3.3,1.8c0.3,0.3,0.5,0.5,0.6,0.7s0.2,0.5,0.2,0.9
			c0,0.5-0.1,1-0.4,1.3c-0.3,0.4-0.6,0.5-1,0.5c-0.2,0-0.5,0-0.6-0.1c-0.2-0.1-0.5-0.2-0.7-0.4c-1.8-1.4-3.6-1.9-5.1-1.9
			c-1.7,0-3,0.7-3.9,2.3c-1,1.6-1.5,3.7-1.5,6.5c0.5-1.1,1.3-1.8,2.3-2.4c1.1-0.6,2.2-0.9,3.5-0.9
			C249.8,372.4,251.1,372.7,252.1,373.3z M250.4,383.4c0.7-0.7,1.2-1.8,1.2-3.2c0-1.4-0.4-2.3-1.2-3.2c-0.7-0.7-1.8-1.2-3-1.2
			s-2.3,0.4-3.1,1.2c-0.7,0.7-1.2,1.8-1.2,3.1c0,1.4,0.4,2.3,1.2,3.2c0.7,0.7,1.8,1.2,3.1,1.2C248.6,384.6,249.7,384.2,250.4,383.4z
			"/>
	</g>
	<g>
		<path class="st0" d="M161.6,275.9c1.7,2,2.4,5,2.4,8.9c0,2.7-0.4,4.9-1.2,6.8c-0.7,1.9-1.8,3.4-3.3,4.4c-1.5,1.1-3.1,1.6-5.1,1.6
			c-1.3,0-2.7-0.2-3.9-0.6c-1.3-0.5-2.4-1.1-3.3-1.8c-0.3-0.3-0.5-0.5-0.6-0.7s-0.2-0.5-0.2-0.9c0-0.5,0.1-1,0.4-1.3
			c0.3-0.4,0.6-0.5,1-0.5c0.2,0,0.5,0,0.6,0.1s0.5,0.2,0.7,0.4c1.8,1.4,3.6,1.9,5.1,1.9c1.7,0,3-0.7,3.9-2.3c1-1.6,1.5-3.7,1.5-6.5
			c-0.5,1.1-1.3,1.8-2.3,2.4c-1.1,0.6-2.2,0.9-3.5,0.9c-1.5,0-2.8-0.3-3.8-1c-1.1-0.6-1.9-1.6-2.7-2.8c-0.6-1.2-1-2.5-1-4
			c0-1.6,0.4-3,1.1-4.2c0.6-1.3,1.7-2.1,2.9-2.9c1.3-0.6,2.7-1.1,4.2-1.1C157.6,272.7,159.9,273.8,161.6,275.9z M157.9,283.8
			c0.7-0.7,1.2-1.8,1.2-3.1c0-1.4-0.4-2.3-1.2-3.2c-0.7-0.7-1.8-1.2-3.1-1.2s-2.2,0.4-3,1.2c-0.7,0.7-1.2,1.8-1.2,3.2
			c0,1.4,0.4,2.3,1.2,3.2c0.7,0.7,1.8,1.2,3,1.2C156,285,157.1,284.7,157.9,283.8z"/>
	</g>
	<g>
		<path class="st0" d="M178.1,326.1c0.5,0.6,0.7,1.5,0.7,2.4c0,1.4-0.5,2.4-1.6,3.2c-1.1,0.8-2.4,1.2-4.2,1.2s-3.2-0.4-4.2-1.2
			c-1.1-0.7-1.6-1.8-1.6-3.2c0-1,0.3-1.8,0.7-2.4s1.2-1.2,2.1-1.4c-0.7-0.3-1.4-0.7-1.8-1.4c-0.5-0.6-0.6-1.4-0.6-2.2
			c0-1.3,0.5-2.3,1.5-3s2.3-1.2,4-1.2s3,0.4,4,1.2c1,0.7,1.5,1.8,1.5,3c0,0.9-0.2,1.6-0.6,2.2c-0.5,0.6-1.1,1.1-1.8,1.4
			C176.9,325,177.6,325.5,178.1,326.1z M176.2,328.3c0-1.6-1.1-2.3-3.1-2.3s-3.1,0.7-3.1,2.3s1.1,2.3,3.1,2.3
			S176.2,329.9,176.2,328.3z M170.2,321.5c0,0.7,0.2,1.4,0.6,1.8c0.5,0.4,1.2,0.6,2,0.6s1.6-0.2,2-0.6c0.5-0.4,0.6-1,0.6-1.8
			c0-1.5-0.9-2.2-2.8-2.2C171.2,319.3,170.2,319.9,170.2,321.5z"/>
	</g>
	<g>
		<path class="st0" d="M172.1,254.4c0,0.7-0.5,1.2-1.4,1.2h-7.4c-0.9,0-1.4-0.4-1.4-1.2s0.5-1.2,1.4-1.2h2.3v-10l-2.1,1.3
			c-0.2,0.1-0.4,0.2-0.6,0.2c-0.3,0-0.6-0.1-0.7-0.4c-0.2-0.3-0.3-0.6-0.3-0.9c0-0.4,0.2-0.7,0.6-1l3.4-2.1c0.5-0.3,0.9-0.4,1.3-0.4
			c0.4,0,0.7,0.1,1,0.4c0.3,0.3,0.4,0.6,0.4,1.1v12h2.2C171.6,253.3,172.1,253.6,172.1,254.4z"/>
		<path class="st0" d="M175.3,253.6c-1-1.4-1.5-3.3-1.5-5.9c0-2.7,0.5-4.6,1.5-5.9c1-1.4,2.3-2,4.2-2s3.2,0.6,4.2,2s1.5,3.3,1.5,5.9
			s-0.5,4.6-1.5,5.9c-1,1.4-2.3,2-4.2,2C177.8,255.8,176.3,255,175.3,253.6z M181.8,252.1c0.5-0.9,0.6-2.3,0.6-4.4
			c0-2.1-0.2-3.5-0.6-4.4s-1.2-1.4-2.1-1.4c-1,0-1.8,0.5-2.1,1.4c-0.5,0.9-0.6,2.3-0.6,4.4c0,2.1,0.2,3.4,0.6,4.4
			c0.5,0.9,1.2,1.4,2.1,1.4C180.6,253.4,181.3,253.1,181.8,252.1z"/>
	</g>
	<g>
		<path class="st0" d="M200.8,222.1c0,0.7-0.5,1.2-1.4,1.2H192c-0.9,0-1.4-0.4-1.4-1.2c0-0.7,0.5-1.2,1.4-1.2h2.3v-10.1l-2.1,1.3
			c-0.2,0.1-0.4,0.2-0.6,0.2c-0.3,0-0.6-0.1-0.7-0.4c-0.2-0.3-0.3-0.6-0.3-0.9s0.2-0.7,0.6-1l3.4-2.1c0.5-0.3,0.9-0.4,1.3-0.4
			c0.4,0,0.7,0.1,1,0.4c0.3,0.3,0.4,0.6,0.4,1.1v12h2.3C200.4,221,200.8,221.4,200.8,222.1z"/>
		<path class="st0" d="M214.1,222.1c0,0.7-0.5,1.2-1.4,1.2h-7.4c-0.9,0-1.4-0.4-1.4-1.2c0-0.7,0.5-1.2,1.4-1.2h2.3v-10.1l-2.1,1.3
			c-0.2,0.1-0.4,0.2-0.6,0.2c-0.3,0-0.6-0.1-0.7-0.4c-0.2-0.3-0.3-0.6-0.3-0.9s0.2-0.7,0.6-1l3.4-2.1c0.5-0.3,0.9-0.4,1.3-0.4
			c0.4,0,0.7,0.1,1,0.4s0.4,0.6,0.4,1.1v12h2.3C213.5,221,214.1,221.4,214.1,222.1z"/>
	</g>
	<g>
		<path class="st0" d="M326,254.4c0,0.7-0.5,1.2-1.4,1.2h-8.4c-0.4,0-0.6-0.1-0.9-0.4c-0.2-0.2-0.3-0.5-0.3-0.9s0.2-0.9,0.5-1.2
			l5.1-5.4c0.6-0.6,1.1-1.3,1.4-1.8c0.3-0.6,0.4-1.2,0.4-1.7c0-0.6-0.2-1.3-0.6-1.6c-0.4-0.4-1-0.6-1.7-0.6c-0.6,0-1.2,0.1-1.8,0.4
			c-0.6,0.2-1.2,0.6-1.8,1c-0.2,0.1-0.3,0.2-0.5,0.3s-0.3,0.1-0.5,0.1c-0.3,0-0.5-0.1-0.6-0.4c-0.2-0.2-0.3-0.5-0.3-0.9
			c0-0.2,0-0.4,0.1-0.6c0.1-0.2,0.2-0.3,0.4-0.5c0.6-0.5,1.4-0.9,2.2-1.3c0.9-0.3,1.8-0.5,2.7-0.5c1.6,0,2.8,0.4,3.6,1.2
			c0.9,0.7,1.4,1.8,1.4,3.1c0,0.9-0.2,1.8-0.6,2.5s-1.1,1.7-1.9,2.7l-3.8,4.1h5.8C325.5,253.3,326,253.6,326,254.4z"/>
	</g>
	<g>
		<path class="st0" d="M326.2,327.8c0.2,0.2,0.3,0.5,0.3,0.7c0,0.7-0.5,1.1-1.4,1.1h-1.2v1.8c0,0.5-0.1,0.7-0.4,1.1
			c-0.3,0.3-0.6,0.4-1,0.4c-0.5,0-0.7-0.1-1-0.4s-0.4-0.6-0.4-1.1v-1.8h-5.7c-0.4,0-0.6-0.1-1-0.4c-0.2-0.2-0.3-0.5-0.3-0.9
			c0-0.5,0.1-0.6,0.4-1l6.8-9.8c0.2-0.2,0.3-0.4,0.6-0.5c0.2-0.1,0.5-0.2,0.6-0.2c0.4,0,0.6,0.1,1,0.4c0.3,0.3,0.4,0.6,0.4,1.1v9
			h1.2C325.7,327.5,326,327.6,326.2,327.8z M317.2,327.5h4.1v-5.9L317.2,327.5z"/>
	</g>
	<g>
		<path class="st0" d="M297.7,357.6c0.7,0.4,1.4,1,1.8,1.8c0.4,0.7,0.6,1.7,0.6,2.5c0,1-0.2,1.9-0.6,2.8c-0.5,0.7-1.1,1.4-1.9,1.8
			c-0.9,0.4-1.8,0.6-3,0.6c-0.9,0-1.8-0.2-2.7-0.5c-0.9-0.3-1.7-0.6-2.2-1.3c-0.3-0.3-0.5-0.6-0.5-1.1c0-0.3,0.1-0.6,0.3-0.7
			c0.2-0.2,0.4-0.4,0.6-0.4s0.3,0,0.4,0.1s0.3,0.1,0.5,0.3c0.6,0.4,1.2,0.6,1.8,1c0.6,0.3,1.2,0.3,1.8,0.3c1,0,1.8-0.2,2.2-0.6
			c0.5-0.5,0.7-1.2,0.7-2s-0.3-1.6-0.7-2c-0.5-0.5-1.3-0.7-2.1-0.7c-0.6,0-1.1,0.1-1.6,0.2c-0.5,0.2-0.9,0.4-1.4,0.7
			c-0.3,0.2-0.6,0.3-0.9,0.3s-0.6-0.1-0.7-0.3s-0.3-0.4-0.3-0.6v-6.9c0-0.4,0.1-0.7,0.4-1c0.2-0.2,0.6-0.4,1-0.4h7.3
			c0.9,0,1.4,0.4,1.4,1.1s-0.5,1.1-1.4,1.1h-5.9v4.2c0.7-0.5,1.7-0.7,2.8-0.7C296.2,357,297,357.2,297.7,357.6z"/>
	</g>
	<g>
		<path class="st0" d="M207.1,351.8c0.2,0.2,0.3,0.5,0.3,0.7s-0.1,0.6-0.3,1.1l-7,12.7c-0.3,0.5-0.6,0.7-1.2,0.7
			c-0.4,0-0.6-0.1-1-0.4c-0.3-0.2-0.4-0.6-0.4-0.9s0.1-0.5,0.2-0.7l6.4-11.4h-6.6c-0.9,0-1.4-0.4-1.4-1.2c0-0.7,0.5-1.2,1.4-1.2h8.9
			C206.5,351.5,206.8,351.6,207.1,351.8z"/>
	</g>
	<g>
		<path class="st0" d="M300,222.1c0,0.7-0.5,1.2-1.4,1.2h-7.4c-0.9,0-1.4-0.4-1.4-1.2c0-0.7,0.5-1.2,1.4-1.2h2.3v-10.1l-2.1,1.3
			c-0.2,0.1-0.4,0.2-0.6,0.2c-0.3,0-0.6-0.1-0.7-0.4c-0.2-0.3-0.3-0.6-0.3-0.9s0.2-0.7,0.6-1l3.4-2.1c0.5-0.3,0.9-0.4,1.3-0.4
			s0.7,0.1,1,0.4c0.3,0.3,0.4,0.6,0.4,1.1v12h2.3C299.7,221,300,221.4,300,222.1z"/>
	</g>
	<g>
		<path class="st0" d="M347.6,286.9c0.7,1,1.2,2.2,1.2,3.8c0,2-0.7,3.7-2.3,5c-1.6,1.3-3.6,1.8-6.2,1.8c-1.5,0-3-0.2-4.2-0.6
			c-1.4-0.5-2.5-1.1-3.5-1.9c-0.5-0.5-0.7-1-0.7-1.6c0-0.5,0.1-1,0.4-1.3s0.6-0.5,1-0.5c0.2,0,0.4,0,0.6,0.1s0.4,0.2,0.7,0.4
			c1,0.6,1.8,1.2,2.8,1.5c0.9,0.4,1.8,0.5,2.9,0.5c1.5,0,2.7-0.3,3.3-0.9s1.1-1.6,1.1-2.8s-0.4-2.1-1.2-2.8
			c-0.7-0.6-1.9-0.9-3.5-0.9h-1.9c-0.5,0-1-0.2-1.2-0.5c-0.3-0.4-0.4-0.7-0.4-1.2s0.1-0.9,0.4-1.3s0.6-0.5,1.2-0.5h1.4
			c3.1,0,4.7-1.2,4.7-3.5c0-1.1-0.3-1.9-1-2.5c-0.6-0.6-1.6-0.9-2.8-0.9c-1.7,0-3.4,0.6-5.4,1.9c-0.3,0.2-0.6,0.3-0.7,0.4
			c-0.2,0.1-0.4,0.1-0.6,0.1c-0.4,0-0.6-0.2-1-0.5c-0.3-0.4-0.4-0.7-0.4-1.3c0-0.4,0.1-0.6,0.2-0.9c0.1-0.2,0.3-0.5,0.6-0.7
			c1-0.7,2.1-1.5,3.4-1.8c1.4-0.5,2.8-0.6,4.1-0.6c2.3,0,4.2,0.6,5.6,1.8c1.4,1.2,2.1,2.8,2.1,4.7c0,1.4-0.4,2.4-1.1,3.5
			c-0.6,1-1.7,1.8-2.9,2.1C345.7,285.1,346.9,285.9,347.6,286.9z"/>
	</g>
</g>
<path class="st3" d="M206.7,298.5l33.9-16.9c3-1.5,6.9-0.2,8.5,2.9c1.5,3,0.2,6.9-2.9,8.5l-33.9,16.9c-3,1.5-6.9,0.2-8.5-2.9
	C202.2,303.9,203.5,299.9,206.7,298.5z"/>
<path class="st4" d="M249.7,293.4c-2.2,0-4-1.8-4-4v-70.1c0-2.2,1.8-4,4-4s4,1.8,4,4v70C253.9,291.6,252,293.4,249.7,293.4z"/>
<circle cx="248.4" cy="286.6" r="11.3"/>
</svg>
