<?xml version="1.0" encoding="utf-8"?>
<!-- Generator: Adobe Illustrator 22.0.1, SVG Export Plug-In . SVG Version: 6.00 Build 0)  -->
<svg version="1.1" id="Layer_1" xmlns="http://www.w3.org/2000/svg" xmlns:xlink="http://www.w3.org/1999/xlink" x="0px" y="0px"
	 viewBox="0 0 80.6 80.6" style="enable-background:new 0 0 80.6 80.6;" xml:space="preserve">
<style type="text/css">
	.st0{fill:#FCC731;}
	.st1{fill:#F9DB39;stroke:#E6C436;stroke-width:1.93;stroke-miterlimit:10;}
	.st2{fill:none;stroke:#F8DC38;stroke-width:2.0075;stroke-linecap:round;stroke-linejoin:round;stroke-dasharray:1.0209,7.1461;}
	.st3{fill:#7C682F;}
	.st4{font-family:'Nunito-Bold';}
	.st5{font-size:35.1152px;}
</style>
<g>
	<g>
		<g>
			<g>
				<path class="st0" d="M40.3,80.6C18.1,80.6,0,62.5,0,40.3S18.1,0,40.3,0c22.2,0,40.3,18.1,40.3,40.3S62.6,80.6,40.3,80.6z"/>
			</g>
			<circle class="st1" cx="40.3" cy="40.3" r="29.1"/>
		</g>
		<g>
			<g>
				<ellipse class="st2" cx="40.3" cy="40.3" rx="32.5" ry="32.5"/>
			</g>
		</g>
		<g>
			<text transform="matrix(1 0 0 1 23.3141 51.0351)" class="st3 st4 st5">10</text>
		</g>
	</g>
	<path id="XMLID_3_" class="st3" d="M19.6,46.3c-0.3,0-0.5-0.2-0.5-0.5v-0.6c-0.9-0.2-1.5-0.3-2.3-0.9v0.6c0,0.3-0.2,0.5-0.5,0.5
		s-0.5-0.2-0.5-0.5V42c0-0.3,0.2-0.5,0.5-0.5s0.5,0.2,0.5,0.5v1c0.5,0.5,0.8,0.7,1.7,1c0.2,0.1,0.4,0.2,0.7,0.2v-4.4
		c-0.9-0.2-1.5-0.5-2-0.7s-0.8-0.5-1.2-0.9s-0.4-0.8-0.4-1.3c0-0.9,0.3-1.6,0.9-2.2c0.5-0.5,1.5-0.8,2.6-0.8v-0.6
		c0-0.3,0.2-0.5,0.5-0.5s0.5,0.2,0.5,0.5V34c0.8,0.2,1.5,0.5,2.2,0.8c0.2,0.1,0.1,0.2,0.2,0.3v-0.6c0-0.3,0.2-0.5,0.5-0.5
		s0.5,0.2,0.5,0.5v2.9c0,0.3-0.2,0.5-0.5,0.5s-0.5-0.2-0.5-0.5v-1c-0.5-0.5-1-1-1.7-1.3c-0.2-0.1-0.4-0.2-0.6-0.2v4.2
		c0.2,0,0.4,0.1,0.7,0.2c0.5,0.2,1.1,0.3,1.5,0.5s0.8,0.5,1.2,0.9c0.3,0.4,0.4,0.8,0.4,1.3c0,1-0.3,1.8-1,2.3
		c-0.6,0.5-1.6,0.8-2.8,0.8v0.6C20,46.1,19.8,46.3,19.6,46.3 M17.7,44.3c0.1,0,0.2,0.1,0.2,0.1C17.9,44.3,17.8,44.3,17.7,44.3
		 M20,40v4.2c0.9,0,1.7-0.2,2.2-0.6c0.5-0.4,0.8-0.9,0.8-1.5c0-0.3-0.1-0.6-0.3-0.8c-0.2-0.2-0.5-0.5-0.8-0.6
		c-0.3-0.2-0.7-0.3-1.1-0.4L20,40z M22.6,43.9c-0.1,0.1-0.2,0.2-0.2,0.2c-0.1,0.1-0.2,0.2-0.4,0.2c0.2-0.1,0.3-0.2,0.4-0.3
		C22.6,44,22.6,43.9,22.6,43.9 M19.1,34.8c-0.9,0-1.5,0.2-2,0.5c-0.5,0.4-0.7,0.8-0.7,1.4c0,0.3,0.1,0.6,0.3,0.8
		c0.2,0.2,0.5,0.5,0.8,0.6c0.3,0.2,0.7,0.3,1,0.4c0.2,0.1,0.4,0.1,0.5,0.2v-3.9H19.1z"/>
</g>
</svg>
