<?xml version="1.0" encoding="utf-8"?>
<!-- Generator: Adobe Illustrator 22.0.1, SVG Export Plug-In . SVG Version: 6.00 Build 0)  -->
<svg version="1.1" id="Layer_1" xmlns="http://www.w3.org/2000/svg" xmlns:xlink="http://www.w3.org/1999/xlink" x="0px" y="0px"
	 viewBox="0 0 40 40" style="enable-background:new 0 0 40 40;" xml:space="preserve">
<style type="text/css">
	.st0{fill:#A5D73C;}
	.st1{fill:#FFFFFF;}
</style>
<g>
	<path class="st0" d="M3.5,38C2.6,38,2,37.3,2,36.5v-33C2,2.6,2.6,2,3.5,2h33C37.3,2,38,2.6,38,3.5v33c0,0.8-0.7,1.5-1.5,1.5H3.5z"
		/>
	<path class="st1" d="M36.5,3.5v33h-33v-33H36.5 M36.5,0.5h-33c-1.7,0-3,1.3-3,3v33c0,1.7,1.3,3,3,3h33c1.7,0,3-1.3,3-3v-33
		C39.5,1.8,38.2,0.5,36.5,0.5L36.5,0.5z"/>
</g>
</svg>
