<?xml version="1.0" encoding="utf-8"?>
<!-- Generator: Adobe Illustrator 22.0.1, SVG Export Plug-In . SVG Version: 6.00 Build 0)  -->
<svg version="1.1" id="Layer_1" xmlns="http://www.w3.org/2000/svg" xmlns:xlink="http://www.w3.org/1999/xlink" x="0px" y="0px"
	 viewBox="0 0 40 40" style="enable-background:new 0 0 40 40;" xml:space="preserve">
<style type="text/css">
	.st0{fill:#FADC3C;}
	.st1{fill:#FFFFFF;}
</style>
<g>
	<path class="st0" d="M4.3,31.8c-0.8,0-1.5-0.7-1.5-1.5V9.7c0-0.8,0.7-1.5,1.5-1.5h31.4c0.8,0,1.5,0.7,1.5,1.5v20.6
		c0,0.8-0.7,1.5-1.5,1.5H4.3z"/>
	<path class="st1" d="M35.7,9.7v20.6H4.3V9.7H35.7 M35.7,6.7H4.3c-1.7,0-3,1.3-3,3v20.6c0,1.7,1.3,3,3,3h31.4c1.7,0,3-1.3,3-3V9.7
		C38.7,8.1,37.4,6.7,35.7,6.7L35.7,6.7z"/>
</g>
</svg>
