<?xml version="1.0" encoding="utf-8"?>
<!-- Generator: Adobe Illustrator 22.0.1, SVG Export Plug-In . SVG Version: 6.00 Build 0)  -->
<svg version="1.1" id="Layer_1" xmlns="http://www.w3.org/2000/svg" xmlns:xlink="http://www.w3.org/1999/xlink" x="0px" y="0px"
	 viewBox="0 0 40 40" style="enable-background:new 0 0 40 40;" xml:space="preserve">
<style type="text/css">
	.st0{fill:#60025E;}
	.st1{fill:#FFFFFF;}
</style>
<g>
	<path class="st0" d="M9.7,37.2c-0.6,0-1.2-0.4-1.4-1L1.9,16.5c-0.2-0.6,0-1.3,0.5-1.7L19.1,2.7c0.3-0.2,0.6-0.3,0.9-0.3
		s0.6,0.1,0.9,0.3l16.7,12.1c0.5,0.4,0.7,1.1,0.5,1.7l-6.4,19.6c-0.2,0.6-0.8,1-1.4,1H9.7z"/>
	<path class="st1" d="M20,4l16.7,12.1l-6.4,19.6H9.7L3.3,16.1L20,4 M20,1c-0.6,0-1.2,0.2-1.8,0.6L1.6,13.6c-1.1,0.8-1.5,2.1-1.1,3.4
		l6.4,19.6c0.4,1.2,1.6,2.1,2.9,2.1h20.6c1.3,0,2.5-0.8,2.9-2.1L39.5,17c0.4-1.2,0-2.6-1.1-3.4L21.8,1.5C21.2,1.2,20.6,1,20,1L20,1z
		"/>
</g>
</svg>
