<?xml version="1.0" encoding="utf-8"?>
<!-- Generator: Adobe Illustrator 22.0.1, SVG Export Plug-In . SVG Version: 6.00 Build 0)  -->
<svg version="1.1" id="Layer_1" xmlns="http://www.w3.org/2000/svg" xmlns:xlink="http://www.w3.org/1999/xlink" x="0px" y="0px"
	 viewBox="0 0 40 40" style="enable-background:new 0 0 40 40;" xml:space="preserve">
<style type="text/css">
	.st0{fill:#F86A00;}
	.st1{fill:#FFFFFF;}
</style>
<g>
	<path class="st0" d="M20.2,37.2c-0.4,0-0.9-0.2-1.2-0.5L6.3,21.2c-0.4-0.5-0.5-1.3,0-1.9L18.6,3.4c0.3-0.4,0.7-0.6,1.2-0.6
		c0,0,0,0,0,0c0.4,0,0.9,0.2,1.2,0.5l12.7,15.5c0.4,0.5,0.5,1.3,0,1.9L21.4,36.6C21.1,37,20.7,37.2,20.2,37.2
		C20.3,37.2,20.2,37.2,20.2,37.2z"/>
	<path class="st1" d="M19.8,4.3l12.7,15.5L20.2,35.7L7.5,20.2L19.8,4.3 M19.8,1.3C19.7,1.3,19.7,1.3,19.8,1.3c-1,0-1.8,0.4-2.4,1.2
		L5.1,18.4c-0.9,1.1-0.8,2.7,0.1,3.7l12.7,15.5c0.6,0.7,1.4,1.1,2.3,1.1c0,0,0,0,0.1,0c0.9,0,1.8-0.4,2.3-1.2l12.3-15.9
		c0.9-1.1,0.8-2.7-0.1-3.7L22.1,2.4C21.5,1.7,20.7,1.3,19.8,1.3L19.8,1.3z"/>
</g>
</svg>
