<?xml version="1.0" encoding="utf-8"?>
<!-- Generator: Adobe Illustrator 22.0.1, SVG Export Plug-In . SVG Version: 6.00 Build 0)  -->
<svg version="1.1" id="Layer_1" xmlns="http://www.w3.org/2000/svg" xmlns:xlink="http://www.w3.org/1999/xlink" x="0px" y="0px"
	 viewBox="0 0 40 40" style="enable-background:new 0 0 40 40;" xml:space="preserve">
<style type="text/css">
	.st0{fill:#00CDC8;}
	.st1{fill:#FFFFFF;}
</style>
<g>
	<path class="st0" d="M3.3,35.9c-0.5,0-1-0.3-1.3-0.8c-0.3-0.5-0.3-1,0-1.5L18.7,4.8C19,4.4,19.5,4.1,20,4.1l0,0
		c0.5,0,1,0.3,1.3,0.8L38,33.7c0.3,0.5,0.3,1,0,1.5c-0.3,0.5-0.8,0.8-1.3,0.8H3.3z"/>
	<path class="st1" d="M20,5.6L28.3,20l8.3,14.4H20H3.3L11.7,20L20,5.6 M20,2.6c-1.1,0-2.1,0.6-2.6,1.5L9.1,18.5L0.7,32.9
		c-0.5,0.9-0.5,2.1,0,3c0.5,0.9,1.5,1.5,2.6,1.5H20h16.7c1.1,0,2.1-0.6,2.6-1.5c0.5-0.9,0.5-2.1,0-3l-8.3-14.4L22.6,4.1
		C22.1,3.1,21.1,2.6,20,2.6L20,2.6z"/>
</g>
</svg>
