<?xml version="1.0" encoding="utf-8"?>
<!-- Generator: Adobe Illustrator 22.0.1, SVG Export Plug-In . SVG Version: 6.00 Build 0)  -->
<svg version="1.1" id="Layer_1" xmlns="http://www.w3.org/2000/svg" xmlns:xlink="http://www.w3.org/1999/xlink" x="0px" y="0px"
	 viewBox="0 0 40 40" style="enable-background:new 0 0 40 40;" xml:space="preserve">
<style type="text/css">
	.st0{fill:#F24044;}
	.st1{fill:#FFFFFF;}
</style>
<g>
	<path class="st0" d="M20,36.4C11,36.4,3.6,29,3.6,20S11,3.6,20,3.6S36.4,11,36.4,20S29,36.4,20,36.4z"/>
	<path class="st1" d="M20,5.1c8.2,0,14.9,6.7,14.9,14.9S28.2,34.9,20,34.9S5.1,28.2,5.1,20S11.8,5.1,20,5.1 M20,2.1
		c-9.9,0-17.9,8-17.9,17.9s8,17.9,17.9,17.9s17.9-8,17.9-17.9S29.9,2.1,20,2.1L20,2.1z"/>
</g>
</svg>
