<?xml version="1.0" encoding="utf-8"?>
<!-- Generator: Adobe Illustrator 22.0.1, SVG Export Plug-In . SVG Version: 6.00 Build 0)  -->
<svg version="1.1" id="Layer_1" xmlns="http://www.w3.org/2000/svg" xmlns:xlink="http://www.w3.org/1999/xlink" x="0px" y="0px"
	 viewBox="0 0 100 100" style="enable-background:new 0 0 100 100;" xml:space="preserve">
<style type="text/css">
	.st0{fill:#01B20E;}
	.st1{fill:#FFFFFF;}
</style>
<title>Artboard 1</title>
<circle class="st0" cx="50.5" cy="50.5" r="44.5"/>
<path class="st1" d="M50.5,9C73.4,9,92,27.6,92,50.5S73.4,92,50.5,92S9,73.4,9,50.5C9,27.6,27.6,9,50.5,9 M50.5,3
	C24.3,3,3,24.3,3,50.5S24.3,98,50.5,98S98,76.7,98,50.5S76.7,3,50.5,3z"/>
<path class="st1" d="M29.5,43.5h41c3.6,0,6.5,2.9,6.5,6.5l0,0c0,3.6-2.9,6.5-6.5,6.5h-41c-3.6,0-6.5-2.9-6.5-6.5l0,0
	C23,46.4,25.9,43.5,29.5,43.5z"/>
<path class="st1" d="M75.1,45.4L75.1,45.4c2.5,2.5,2.5,6.7,0,9.2L60.2,69.4c-2.5,2.5-6.7,2.5-9.2,0l0,0c-2.5-2.5-2.5-6.7,0-9.2
	l14.8-14.8C68.4,42.9,72.6,42.9,75.1,45.4z"/>
<path class="st1" d="M75.1,54.6L75.1,54.6c-2.5,2.5-6.7,2.5-9.2,0L51.1,39.7c-2.5-2.5-2.5-6.7,0-9.2l0,0c2.5-2.5,6.7-2.5,9.2,0
	l14.8,14.8C77.6,47.9,77.6,52.1,75.1,54.6z"/>
</svg>
