<?xml version="1.0" encoding="utf-8"?>
<!-- Generator: Adobe Illustrator 22.0.1, SVG Export Plug-In . SVG Version: 6.00 Build 0)  -->
<svg version="1.1" id="Layer_1" xmlns="http://www.w3.org/2000/svg" xmlns:xlink="http://www.w3.org/1999/xlink" x="0px" y="0px"
	 viewBox="0 0 750 1334" style="enable-background:new 0 0 750 1334;" xml:space="preserve">
<style type="text/css">
	.st0{fill:#BAC9DA;}
	.st1{opacity:0.3;}
	.st2{opacity:0.3;clip-path:url(#SVGID_2_);}
	.st3{fill:none;stroke:#3B5367;stroke-width:1.0013;stroke-miterlimit:10;}
	.st4{fill:none;stroke:#3B5367;stroke-width:5;stroke-miterlimit:10;}
	.st5{clip-path:url(#SVGID_12_);}
	.st6{clip-path:url(#SVGID_13_);}
	.st7{clip-path:url(#SVGID_14_);}
	.st8{clip-path:url(#SVGID_15_);}
	.st9{clip-path:url(#SVGID_16_);}
	.st10{clip-path:url(#SVGID_17_);}
	.st11{clip-path:url(#SVGID_18_);}
	.st12{clip-path:url(#SVGID_21_);}
	.st13{clip-path:url(#SVGID_22_);}
</style>
<polyline class="st0" points="751,1 751,1334 1,1334 1,1 "/>
<g class="st1">
	<g>
		<g>
			<defs>
				<polyline id="SVGID_1_" points="751,1 751,1334 1,1334 1,1 				"/>
			</defs>
			<clipPath id="SVGID_2_">
				<use xlink:href="#SVGID_1_"  style="overflow:visible;"/>
			</clipPath>
			<g class="st2">
				<rect x="29" y="603.5" class="st3" width="370" height="12"/>
				<rect x="29" y="623.5" class="st3" width="370" height="12"/>
				<rect x="29" y="643.5" class="st3" width="370" height="12"/>
				<ellipse class="st3" cx="389" cy="672.4" rx="7" ry="7"/>
				<ellipse class="st3" cx="350.9" cy="672.4" rx="7" ry="7"/>
				<ellipse class="st3" cx="312.8" cy="672.4" rx="7" ry="7"/>
				<ellipse class="st3" cx="274.7" cy="672.4" rx="7" ry="7"/>
				<ellipse class="st3" cx="236.6" cy="672.4" rx="7" ry="7"/>
				<polyline class="st4" points="766.5,1311.2 435.2,980.1 435.2,35.2 473.9,-3.3 				"/>
				<polyline class="st3" points="501.3,1331 501.3,1094.6 415.1,1008.6 415.1,27.7 446.4,-3.3 				"/>
				<line class="st3" x1="438.7" y1="831.3" x2="753" y2="831.3"/>
				<rect x="507.3" y="45.4" class="st3" width="39.1" height="753"/>
				<polyline class="st4" points="520.9,798.4 520.9,56.9 546.5,56.9 				"/>
				<polyline class="st4" points="581,798.4 581,56.9 606.6,56.9 				"/>
				<rect x="567.5" y="45.4" class="st3" width="39.1" height="753"/>
				<polyline class="st3" points="753,943.8 507.3,943.8 507.3,978.9 754.9,1226.2 				"/>
				<polyline class="st3" points="753,916.4 507.3,916.4 507.3,899.4 753,899.4 				"/>
				<polyline class="st3" points="753,882.4 507.3,882.4 507.3,865.4 753,865.4 				"/>
				<path class="st3" d="M185.5,947.9H61.1c-18,0-32.5-14.6-32.5-32.5V747.2c0-18,14.6-32.5,32.5-32.5h124.4
					c18,0,32.5,14.6,32.5,32.5v168.1C218.1,933.3,203.5,947.9,185.5,947.9z"/>
				<path class="st3" d="M172.4,927.9H74.3c-14.2,0-25.7-11.5-25.7-25.7V760.3c0-14.2,11.5-25.7,25.7-25.7h98.1
					c14.2,0,25.7,11.5,25.7,25.7v141.9C198,916.4,186.5,927.9,172.4,927.9z"/>
				<rect x="167" y="978.9" class="st3" width="51.1" height="10"/>
				<rect x="305.8" y="301.8" class="st3" width="92.7" height="249.7"/>
				<ellipse class="st3" cx="352.7" cy="379.6" rx="38.2" ry="38.1"/>
				<ellipse class="st3" cx="352.7" cy="379.6" rx="31.6" ry="31.6"/>
				<g>
					<g>
						<g>
							<defs>
								<circle id="SVGID_3_" cx="352.7" cy="379.6" r="31.6"/>
							</defs>
							<defs>
								<circle id="SVGID_5_" cx="352.7" cy="379.6" r="31.6"/>
							</defs>
							<defs>
								<circle id="SVGID_7_" cx="352.7" cy="379.6" r="31.6"/>
							</defs>
							<defs>
								<circle id="SVGID_8_" cx="352.7" cy="379.6" r="31.6"/>
							</defs>
							<defs>
								<circle id="SVGID_9_" cx="352.7" cy="379.6" r="31.6"/>
							</defs>
							<defs>
								<circle id="SVGID_10_" cx="352.7" cy="379.6" r="31.6"/>
							</defs>
							<defs>
								<circle id="SVGID_11_" cx="352.7" cy="379.6" r="31.6"/>
							</defs>
							<clipPath id="SVGID_12_">
								<use xlink:href="#SVGID_3_"  style="overflow:visible;"/>
							</clipPath>
							<clipPath id="SVGID_13_" class="st5">
								<use xlink:href="#SVGID_5_"  style="overflow:visible;"/>
							</clipPath>
							<clipPath id="SVGID_14_" class="st6">
								<use xlink:href="#SVGID_7_"  style="overflow:visible;"/>
							</clipPath>
							<clipPath id="SVGID_15_" class="st7">
								<use xlink:href="#SVGID_8_"  style="overflow:visible;"/>
							</clipPath>
							<clipPath id="SVGID_16_" class="st8">
								<use xlink:href="#SVGID_9_"  style="overflow:visible;"/>
							</clipPath>
							<clipPath id="SVGID_17_" class="st9">
								<use xlink:href="#SVGID_10_"  style="overflow:visible;"/>
							</clipPath>
							<clipPath id="SVGID_18_" class="st10">
								<use xlink:href="#SVGID_11_"  style="overflow:visible;"/>
							</clipPath>
							<g class="st11">
								<line class="st3" x1="325.3" y1="347.5" x2="325.3" y2="411.7"/>
								<line class="st3" x1="329.5" y1="347.5" x2="329.5" y2="411.7"/>
								<line class="st3" x1="333.7" y1="347.5" x2="333.7" y2="411.7"/>
								<line class="st3" x1="338" y1="347.5" x2="338" y2="411.7"/>
								<line class="st3" x1="342.2" y1="347.5" x2="342.2" y2="411.7"/>
								<line class="st3" x1="346.4" y1="347.5" x2="346.4" y2="411.7"/>
								<line class="st3" x1="350.6" y1="347.5" x2="350.6" y2="411.7"/>
								<line class="st3" x1="354.8" y1="347.5" x2="354.8" y2="411.7"/>
								<line class="st3" x1="359.1" y1="347.5" x2="359.1" y2="411.7"/>
								<line class="st3" x1="363.3" y1="347.5" x2="363.3" y2="411.7"/>
								<line class="st3" x1="367.5" y1="347.5" x2="367.5" y2="411.7"/>
								<line class="st3" x1="371.7" y1="347.5" x2="371.7" y2="411.7"/>
								<line class="st3" x1="375.9" y1="347.5" x2="375.9" y2="411.7"/>
								<line class="st3" x1="380.2" y1="347.5" x2="380.2" y2="411.7"/>
							</g>
							<g class="st11">
								<line class="st3" x1="320.5" y1="406.9" x2="384.9" y2="406.9"/>
								<line class="st3" x1="320.5" y1="402.7" x2="384.9" y2="402.7"/>
								<line class="st3" x1="320.5" y1="398.5" x2="384.9" y2="398.5"/>
								<line class="st3" x1="320.5" y1="394.3" x2="384.9" y2="394.3"/>
								<line class="st3" x1="320.5" y1="390.1" x2="384.9" y2="390.1"/>
								<line class="st3" x1="320.5" y1="385.9" x2="384.9" y2="385.9"/>
								<line class="st3" x1="320.5" y1="381.7" x2="384.9" y2="381.7"/>
								<line class="st3" x1="320.5" y1="377.5" x2="384.9" y2="377.5"/>
								<line class="st3" x1="320.5" y1="373.3" x2="384.9" y2="373.3"/>
								<line class="st3" x1="320.5" y1="369.1" x2="384.9" y2="369.1"/>
								<line class="st3" x1="320.5" y1="364.9" x2="384.9" y2="364.9"/>
								<line class="st3" x1="320.5" y1="360.7" x2="384.9" y2="360.7"/>
								<line class="st3" x1="320.5" y1="356.5" x2="384.9" y2="356.5"/>
								<line class="st3" x1="320.5" y1="352.2" x2="384.9" y2="352.2"/>
							</g>
							<g class="st11">
								<ellipse id="SVGID_4_" class="st3" cx="352.7" cy="379.6" rx="31.6" ry="31.6"/>
							</g>
						</g>
						<g>
							<ellipse class="st3" cx="381.1" cy="430.9" rx="6.5" ry="6.5"/>
							<ellipse class="st3" cx="381.1" cy="430.9" rx="5.5" ry="5.4"/>
							<line class="st3" x1="381.1" y1="421.2" x2="381.1" y2="422.8"/>
							<line class="st3" x1="381.1" y1="439.1" x2="381.1" y2="440.7"/>
							<line class="st3" x1="374.2" y1="424" x2="375.3" y2="425.2"/>
							<line class="st3" x1="386.9" y1="436.7" x2="388" y2="437.9"/>
							<line class="st3" x1="371.3" y1="430.9" x2="372.9" y2="430.9"/>
							<line class="st3" x1="389.3" y1="430.9" x2="390.9" y2="430.9"/>
							<line class="st3" x1="374.2" y1="437.9" x2="375.3" y2="436.7"/>
							<line class="st3" x1="386.9" y1="425.2" x2="388" y2="424"/>
						</g>
						<rect x="314.5" y="449.7" class="st3" width="75.3" height="15.2"/>
						<rect x="319.5" y="455.1" class="st3" width="65.5" height="4.4"/>
						<line class="st3" x1="314.5" y1="449.7" x2="319.5" y2="455.1"/>
						<line class="st3" x1="319.5" y1="459.5" x2="314.5" y2="464.9"/>
						<line class="st3" x1="384.9" y1="459.5" x2="389.8" y2="464.9"/>
						<line class="st3" x1="384.9" y1="455.1" x2="389.8" y2="449.7"/>
						<rect x="314.5" y="472.3" class="st3" width="21.5" height="21.4"/>
						<rect x="341.6" y="472.3" class="st3" width="21.5" height="21.4"/>
						<rect x="368.6" y="472.3" class="st3" width="21.5" height="21.4"/>
						<rect x="314.5" y="497.8" class="st3" width="21.5" height="21.4"/>
						<rect x="341.6" y="497.8" class="st3" width="21.5" height="21.4"/>
						<rect x="368.6" y="497.8" class="st3" width="21.5" height="21.4"/>
						<rect x="314.5" y="523.3" class="st3" width="21.5" height="21.4"/>
						<rect x="341.6" y="523.3" class="st3" width="21.5" height="21.4"/>
						<rect x="368.6" y="523.3" class="st3" width="21.5" height="21.4"/>
						<rect x="28.5" y="301.7" class="st4" width="250.4" height="249.7"/>
						<path class="st3" d="M68.1,496h173.7c13.1,0,23.7-10.6,23.7-23.7V338c0-13.1-10.6-23.7-23.7-23.7H68.1
							c-13.1,0-23.7,10.6-23.7,23.7v134.3C44.4,485.4,55,496,68.1,496z"/>
						<g>
							<polygon class="st3" points="55.5,513.2 55.5,533 55.5,534.9 55.5,536.8 50.2,536.8 50.2,534.9 50.2,533 50.2,513.2 							
								"/>
							<path class="st3" d="M61.3,525c0,3.7-2.5,6.9-5.8,8v-16C58.9,518,61.3,521.2,61.3,525z"/>
							<path class="st3" d="M50.2,516.9v16c-3.4-1.1-5.8-4.3-5.8-8S46.9,518,50.2,516.9z"/>
						</g>
						<g>
							<polygon class="st3" points="80.2,514.8 94.3,528.8 95.6,530.1 97,531.5 93.2,535.2 91.9,533.8 90.6,532.5 76.5,518.5 
															"/>
							<path class="st3" d="M92.7,519c2.7,2.7,3.2,6.6,1.6,9.8l-11.4-11.3C86.1,515.8,90.1,516.3,92.7,519z"/>
							<path class="st3" d="M79.2,521.1l11.4,11.3c-3.2,1.6-7.2,1.1-9.8-1.6C78.1,528.3,77.6,524.3,79.2,521.1z"/>
						</g>
						<g>
							<polygon class="st3" points="130.8,518.5 116.8,532.5 115.4,533.8 114.1,535.2 110.4,531.5 111.7,530.1 113.1,528.8 
								127.1,514.8 							"/>
							<path class="st3" d="M126.6,530.9c-2.7,2.7-6.6,3.2-9.8,1.6l11.4-11.3C129.8,524.3,129.3,528.3,126.6,530.9z"/>
							<path class="st3" d="M124.4,517.4L113,528.7c-1.6-3.2-1.1-7.1,1.6-9.8C117.3,516.3,121.3,515.8,124.4,517.4z"/>
						</g>
						<g>
							<polygon class="st3" points="142.7,522.3 162.5,522.3 164.4,522.3 166.3,522.3 166.3,527.6 164.4,527.6 162.5,527.6 
								142.7,527.6 							"/>
							<path class="st3" d="M154.5,516.5c3.8,0,6.9,2.4,8,5.8h-16.1C147.5,519,150.7,516.5,154.5,516.5z"/>
							<path class="st3" d="M146.4,527.6h16.1c-1.1,3.4-4.3,5.8-8,5.8C150.7,533.4,147.5,531,146.4,527.6z"/>
						</g>
						<g>
							<g>
								<g>
									<defs>
										<path id="SVGID_19_" d="M68.1,496h173.6c13.1,0,23.7-10.6,23.7-23.7V338c0-13.1-10.6-23.7-23.7-23.7H68.1
											c-13.1,0-23.7,10.6-23.7,28.2v134.3C44.4,485.4,55,496,68.1,496z"/>
									</defs>
									<defs>
										<path id="SVGID_20_" d="M68.1,496h173.6c13.1,0,23.7-10.6,23.7-23.7V338c0-13.1-10.6-23.7-23.7-23.7H68.1
											c-13.1,0-23.7,10.6-23.7,28.2v134.3C44.4,485.4,55,496,68.1,496z"/>
									</defs>
									<clipPath id="SVGID_21_">
										<use xlink:href="#SVGID_19_"  style="overflow:visible;"/>
									</clipPath>
									<clipPath id="SVGID_22_" class="st12">
										<use xlink:href="#SVGID_20_"  style="overflow:visible;"/>
									</clipPath>
									<g class="st13">
										<ellipse class="st3" cx="154.9" cy="405.2" rx="102.1" ry="101.8"/>
										<ellipse class="st3" cx="154.9" cy="405.2" rx="48" ry="47.9"/>
										<line class="st3" x1="260.3" y1="510.2" x2="49.6" y2="300.1"/>
										<line class="st3" x1="154.9" y1="553.8" x2="154.9" y2="256.5"/>
										<line class="st3" x1="49.6" y1="510.2" x2="260.3" y2="300.1"/>
										<line class="st3" x1="5.9" y1="405.2" x2="303.9" y2="405.2"/>
									</g>
									<g class="st13">
										<path id="SVGID_6_" class="st3" d="M68.1,496h173.6c13.1,0,23.7-10.6,23.7-23.7V338c0-13.1-10.6-23.7-23.7-23.7H68.1
											c-13.1,0-23.7,10.6-23.7,28.2v134.3C44.4,485.4,55,496,68.1,496z"/>
									</g>
								</g>
								<ellipse class="st3" cx="224.6" cy="379.6" rx="4.6" ry="4.6"/>
								<ellipse class="st3" cx="352.2" cy="321.1" rx="9.7" ry="9.6"/>
								<ellipse class="st3" cx="352.2" cy="321.1" rx="5.1" ry="5.1"/>
								<ellipse class="st3" cx="352.2" cy="321.1" rx="1.4" ry="1.4"/>
								<rect x="211.1" y="291.4" class="st3" width="21.6" height="10.3"/>
								<rect x="239.6" y="291.4" class="st3" width="21.6" height="10.3"/>
								<line class="st4" x1="226.5" y1="1" x2="226.5" y2="291.4"/>
								<line class="st4" x1="217.3" y1="291.4" x2="217.3" y2="1"/>
								<rect x="402.6" y="46.9" class="st3" width="12.5" height="27.3"/>
								<path class="st4" d="M402.6,65.8H268.5c-7.2,0-13.1,5.9-13.1,13.1v212.5"/>
								<path class="st4" d="M245.3,291.4V78.9c0-12.7,10.4-23.1,23.1-23.1h134.1"/>
								<polyline class="st3" points="753,43.6 638.4,43.6 638.4,798.4 753,798.4 								"/>
								<line class="st3" x1="218.5" y1="853.4" x2="415.1" y2="853.4"/>
								<line class="st3" x1="1" y1="853.4" x2="28.6" y2="853.4"/>
								<polyline class="st3" points="240.9,853.4 240.9,1114.5 253.2,1114.5 253.2,1329.4 								"/>
								<rect x="253.2" y="865" class="st3" width="148.3" height="133"/>
								<line class="st3" x1="240.9" y1="1009.1" x2="415.1" y2="1009.1"/>
							</g>
						</g>
					</g>
				</g>
			</g>
		</g>
	</g>
</g>
</svg>
