<?xml version="1.0" encoding="utf-8"?>
<!-- Generator: Adobe Illustrator 22.0.1, SVG Export Plug-In . SVG Version: 6.00 Build 0)  -->
<svg version="1.1" id="Layer_1" xmlns="http://www.w3.org/2000/svg" xmlns:xlink="http://www.w3.org/1999/xlink" x="0px" y="0px"
	 viewBox="0 0 750 1334" style="enable-background:new 0 0 750 1334;" xml:space="preserve">
<style type="text/css">
	.st0{fill:#2F0026;}
	.st1{clip-path:url(#SVGID_2_);}
	.st2{fill:none;stroke:#490A3D;stroke-width:1.0013;stroke-miterlimit:10;}
	.st3{fill:none;stroke:#490A3D;stroke-width:5;stroke-miterlimit:10;}
	.st4{clip-path:url(#SVGID_4_);}
	.st5{clip-path:url(#SVGID_6_);}
</style>
<polyline class="st0" points="751,-1 751,1336 1,1336 1,-1 "/>
<g>
	<defs>
		<rect id="SVGID_1_" x="1" y="-1" width="750" height="1337"/>
	</defs>
	<clipPath id="SVGID_2_">
		<use xlink:href="#SVGID_1_"  style="overflow:visible;"/>
	</clipPath>
	<g class="st1">
		
			<rect x="208.1" y="422.5" transform="matrix(-1.836970e-16 1 -1 -1.836970e-16 821.5236 393.3717)" class="st2" width="12" height="370"/>
		
			<rect x="208.1" y="442.5" transform="matrix(-1.836970e-16 1 -1 -1.836970e-16 841.5236 413.3717)" class="st2" width="12" height="370"/>
		
			<rect x="208.1" y="462.5" transform="matrix(-1.836970e-16 1 -1 -1.836970e-16 861.5236 433.3717)" class="st2" width="12" height="370"/>
		<ellipse class="st2" cx="389" cy="670.4" rx="7" ry="7"/>
		<ellipse class="st2" cx="350.9" cy="670.4" rx="7" ry="7"/>
		<ellipse class="st2" cx="312.8" cy="670.4" rx="7" ry="7"/>
		<ellipse class="st2" cx="274.7" cy="670.4" rx="7" ry="7"/>
		<ellipse class="st2" cx="236.6" cy="670.4" rx="7" ry="7"/>
		<polyline class="st3" points="766.5,1309.2 435.2,978.1 435.2,33.2 473.9,-5.3 		"/>
		<polyline class="st2" points="501.3,1333 501.3,1092.6 415.1,1006.6 415.1,25.7 446.4,-5.3 		"/>
		<line class="st2" x1="438.7" y1="829.3" x2="753" y2="829.3"/>
		<rect x="507.3" y="43.4" class="st2" width="39.1" height="753"/>
		<polyline class="st3" points="520.9,796.4 520.9,54.9 546.5,54.9 		"/>
		<polyline class="st3" points="581,796.4 581,54.9 606.6,54.9 		"/>
		<rect x="567.5" y="43.4" class="st2" width="39.1" height="753"/>
		<polyline class="st2" points="753,941.8 507.3,941.8 507.3,976.9 754.9,1224.2 		"/>
		<polyline class="st2" points="753,914.4 507.3,914.4 507.3,897.4 753,897.4 		"/>
		<polyline class="st2" points="753,880.4 507.3,880.4 507.3,863.4 753,863.4 		"/>
		<path class="st2" d="M185.5,945.9H61.1c-18,0-32.5-14.6-32.5-32.5V745.2c0-18,14.6-32.5,32.5-32.5h124.4c18,0,32.5,14.6,32.5,32.5
			v168.1C218.1,931.3,203.5,945.9,185.5,945.9z"/>
		<path class="st2" d="M172.4,925.9H74.3c-14.2,0-25.7-11.5-25.7-25.7V758.3c0-14.2,11.5-25.7,25.7-25.7h98.1
			c14.2,0,25.7,11.5,25.7,25.7v141.9C198,914.4,186.5,925.9,172.4,925.9z"/>
		<rect x="167" y="976.9" class="st2" width="51.1" height="10"/>
		<rect x="305.8" y="299.8" class="st2" width="92.7" height="249.7"/>
		<ellipse class="st2" cx="352.7" cy="377.6" rx="38.2" ry="38.1"/>
		<ellipse class="st2" cx="352.7" cy="377.6" rx="31.6" ry="31.6"/>
		<g>
			<defs>
				<ellipse id="SVGID_3_" cx="352.7" cy="377.6" rx="31.6" ry="31.6"/>
			</defs>
			<clipPath id="SVGID_4_">
				<use xlink:href="#SVGID_3_"  style="overflow:visible;"/>
			</clipPath>
			<g class="st4">
				<line class="st2" x1="325.3" y1="345.5" x2="325.3" y2="409.7"/>
				<line class="st2" x1="329.5" y1="345.5" x2="329.5" y2="409.7"/>
				<line class="st2" x1="333.7" y1="345.5" x2="333.7" y2="409.7"/>
				<line class="st2" x1="338" y1="345.5" x2="338" y2="409.7"/>
				<line class="st2" x1="342.2" y1="345.5" x2="342.2" y2="409.7"/>
				<line class="st2" x1="346.4" y1="345.5" x2="346.4" y2="409.7"/>
				<line class="st2" x1="350.6" y1="345.5" x2="350.6" y2="409.7"/>
				<line class="st2" x1="354.8" y1="345.5" x2="354.8" y2="409.7"/>
				<line class="st2" x1="359.1" y1="345.5" x2="359.1" y2="409.7"/>
				<line class="st2" x1="363.3" y1="345.5" x2="363.3" y2="409.7"/>
				<line class="st2" x1="367.5" y1="345.5" x2="367.5" y2="409.7"/>
				<line class="st2" x1="371.7" y1="345.5" x2="371.7" y2="409.7"/>
				<line class="st2" x1="375.9" y1="345.5" x2="375.9" y2="409.7"/>
				<line class="st2" x1="380.2" y1="345.5" x2="380.2" y2="409.7"/>
			</g>
			<g class="st4">
				<line class="st2" x1="320.5" y1="404.9" x2="384.9" y2="404.9"/>
				<line class="st2" x1="320.5" y1="400.7" x2="384.9" y2="400.7"/>
				<line class="st2" x1="320.5" y1="396.5" x2="384.9" y2="396.5"/>
				<line class="st2" x1="320.5" y1="392.3" x2="384.9" y2="392.3"/>
				<line class="st2" x1="320.5" y1="388.1" x2="384.9" y2="388.1"/>
				<line class="st2" x1="320.5" y1="383.9" x2="384.9" y2="383.9"/>
				<line class="st2" x1="320.5" y1="379.7" x2="384.9" y2="379.7"/>
				<line class="st2" x1="320.5" y1="375.5" x2="384.9" y2="375.5"/>
				<line class="st2" x1="320.5" y1="371.3" x2="384.9" y2="371.3"/>
				<line class="st2" x1="320.5" y1="367.1" x2="384.9" y2="367.1"/>
				<line class="st2" x1="320.5" y1="362.9" x2="384.9" y2="362.9"/>
				<line class="st2" x1="320.5" y1="358.7" x2="384.9" y2="358.7"/>
				<line class="st2" x1="320.5" y1="354.5" x2="384.9" y2="354.5"/>
				<line class="st2" x1="320.5" y1="350.2" x2="384.9" y2="350.2"/>
			</g>
			<use xlink:href="#SVGID_3_"  style="overflow:visible;fill:none;stroke:#490A3D;stroke-width:1.0013;stroke-miterlimit:10;"/>
		</g>
		<g>
			<ellipse class="st2" cx="381.1" cy="428.9" rx="6.5" ry="6.5"/>
			<ellipse class="st2" cx="381.1" cy="428.9" rx="5.5" ry="5.4"/>
			<line class="st2" x1="381.1" y1="419.2" x2="381.1" y2="420.8"/>
			<line class="st2" x1="381.1" y1="437.1" x2="381.1" y2="438.7"/>
			<line class="st2" x1="374.2" y1="422" x2="375.3" y2="423.2"/>
			<line class="st2" x1="386.9" y1="434.7" x2="388" y2="435.9"/>
			<line class="st2" x1="371.3" y1="428.9" x2="372.9" y2="428.9"/>
			<line class="st2" x1="389.3" y1="428.9" x2="390.9" y2="428.9"/>
			<line class="st2" x1="374.2" y1="435.9" x2="375.3" y2="434.7"/>
			<line class="st2" x1="386.9" y1="423.2" x2="388" y2="422"/>
		</g>
		<rect x="314.5" y="447.7" class="st2" width="75.3" height="15.2"/>
		<rect x="319.5" y="453.1" class="st2" width="65.5" height="4.4"/>
		<line class="st2" x1="314.5" y1="447.7" x2="319.5" y2="453.1"/>
		<line class="st2" x1="319.5" y1="457.5" x2="314.5" y2="462.9"/>
		<line class="st2" x1="384.9" y1="457.5" x2="389.8" y2="462.9"/>
		<line class="st2" x1="384.9" y1="453.1" x2="389.8" y2="447.7"/>
		<rect x="314.5" y="470.3" class="st2" width="21.5" height="21.4"/>
		<rect x="341.6" y="470.3" class="st2" width="21.5" height="21.4"/>
		<rect x="368.6" y="470.3" class="st2" width="21.5" height="21.4"/>
		<rect x="314.5" y="495.8" class="st2" width="21.5" height="21.4"/>
		<rect x="341.6" y="495.8" class="st2" width="21.5" height="21.4"/>
		<rect x="368.6" y="495.8" class="st2" width="21.5" height="21.4"/>
		<rect x="314.5" y="521.3" class="st2" width="21.5" height="21.4"/>
		<rect x="341.6" y="521.3" class="st2" width="21.5" height="21.4"/>
		<rect x="368.6" y="521.3" class="st2" width="21.5" height="21.4"/>
		
			<rect x="28.6" y="299.8" transform="matrix(-1 -4.473811e-11 4.473811e-11 -1 307.5301 849.1994)" class="st3" width="250.4" height="249.7"/>
		<path class="st2" d="M68.1,494h173.7c13.1,0,23.7-10.6,23.7-23.7V336c0-13.1-10.6-23.7-23.7-23.7H68.1
			c-13.1,0-23.7,10.6-23.7,23.7v134.3C44.4,483.4,55,494,68.1,494z"/>
		<g>
			<polygon class="st2" points="55.5,511.2 55.5,531 55.5,532.9 55.5,534.8 50.2,534.8 50.2,532.9 50.2,531 50.2,511.2 			"/>
			<path class="st2" d="M61.3,523c0,3.7-2.5,6.9-5.8,8v-16C58.9,516,61.3,519.2,61.3,523z"/>
			<path class="st2" d="M50.2,514.9v16c-3.4-1.1-5.8-4.3-5.8-8C44.4,519.2,46.9,516,50.2,514.9z"/>
		</g>
		<g>
			<polygon class="st2" points="80.2,512.8 94.3,526.8 95.6,528.1 97,529.5 93.2,533.2 91.9,531.8 90.6,530.5 76.5,516.5 			"/>
			<path class="st2" d="M92.7,517c2.7,2.7,3.2,6.6,1.6,9.8l-11.4-11.3C86.1,513.8,90.1,514.3,92.7,517z"/>
			<path class="st2" d="M79.2,519.1l11.4,11.3c-3.2,1.6-7.2,1.1-9.8-1.6C78.1,526.3,77.6,522.3,79.2,519.1z"/>
		</g>
		<g>
			<polygon class="st2" points="130.8,516.5 116.8,530.5 115.4,531.8 114.1,533.2 110.4,529.5 111.7,528.1 113.1,526.8 127.1,512.8 
							"/>
			<path class="st2" d="M126.6,528.9c-2.7,2.7-6.6,3.2-9.8,1.6l11.4-11.3C129.8,522.3,129.3,526.3,126.6,528.9z"/>
			<path class="st2" d="M124.4,515.4l-11.4,11.3c-1.6-3.2-1.1-7.1,1.6-9.8C117.3,514.3,121.3,513.8,124.4,515.4z"/>
		</g>
		<g>
			<polygon class="st2" points="142.7,520.3 162.5,520.3 164.4,520.3 166.3,520.3 166.3,525.6 164.4,525.6 162.5,525.6 142.7,525.6 
							"/>
			<path class="st2" d="M154.5,514.5c3.8,0,6.9,2.4,8,5.8h-16.1C147.5,517,150.7,514.5,154.5,514.5z"/>
			<path class="st2" d="M146.4,525.6h16.1c-1.1,3.4-4.3,5.8-8,5.8C150.7,531.4,147.5,529,146.4,525.6z"/>
		</g>
		<g>
			<defs>
				<path id="SVGID_5_" d="M68.1,494h173.6c13.1,0,23.7-10.6,23.7-23.7V336c0-13.1-10.6-23.7-23.7-23.7H68.1
					c-13.1,0-23.7,10.6-23.7,28.2v134.3C44.4,483.4,55,494,68.1,494z"/>
			</defs>
			<clipPath id="SVGID_6_">
				<use xlink:href="#SVGID_5_"  style="overflow:visible;"/>
			</clipPath>
			<g class="st5">
				<ellipse class="st2" cx="154.9" cy="403.2" rx="102.1" ry="101.8"/>
				<ellipse class="st2" cx="154.9" cy="403.2" rx="48" ry="47.9"/>
				<line class="st2" x1="260.3" y1="508.2" x2="49.6" y2="298.1"/>
				<line class="st2" x1="154.9" y1="551.8" x2="154.9" y2="254.5"/>
				<line class="st2" x1="49.6" y1="508.2" x2="260.3" y2="298.1"/>
				<line class="st2" x1="5.9" y1="403.2" x2="303.9" y2="403.2"/>
			</g>
			<use xlink:href="#SVGID_5_"  style="overflow:visible;fill:none;stroke:#490A3D;stroke-width:1.0013;stroke-miterlimit:10;"/>
		</g>
		<ellipse class="st2" cx="224.6" cy="377.6" rx="4.6" ry="4.6"/>
		<ellipse class="st2" cx="352.2" cy="319.1" rx="9.7" ry="9.6"/>
		<ellipse class="st2" cx="352.2" cy="319.1" rx="5.1" ry="5.1"/>
		<ellipse class="st2" cx="352.2" cy="319.1" rx="1.4" ry="1.4"/>
		<rect x="211.1" y="289.4" class="st2" width="21.6" height="10.3"/>
		<rect x="239.6" y="289.4" class="st2" width="21.6" height="10.3"/>
		<line class="st3" x1="226.5" y1="-1" x2="226.5" y2="289.4"/>
		<line class="st3" x1="217.3" y1="289.4" x2="217.3" y2="-1"/>
		<rect x="402.6" y="44.9" class="st2" width="12.5" height="27.3"/>
		<path class="st3" d="M402.6,63.8H268.5c-7.2,0-13.1,5.9-13.1,13.1v212.5"/>
		<path class="st3" d="M245.3,289.4V76.9c0-12.7,10.4-23.1,23.1-23.1h134.1"/>
		<polyline class="st2" points="753,41.6 638.4,41.6 638.4,796.4 753,796.4 		"/>
		<line class="st2" x1="218.5" y1="851.4" x2="415.1" y2="851.4"/>
		<line class="st2" x1="1" y1="851.4" x2="28.6" y2="851.4"/>
		<polyline class="st2" points="240.9,851.4 240.9,1112.5 253.2,1112.5 253.2,1331.4 		"/>
		<rect x="253.2" y="863" class="st2" width="148.3" height="133"/>
		<line class="st2" x1="240.9" y1="1007.1" x2="415.1" y2="1007.1"/>
	</g>
</g>
</svg>
