<?xml version="1.0" encoding="utf-8"?>
<!-- Generator: Adobe Illustrator 22.0.1, SVG Export Plug-In . SVG Version: 6.00 Build 0)  -->
<svg version="1.1" id="Layer_1" xmlns="http://www.w3.org/2000/svg" xmlns:xlink="http://www.w3.org/1999/xlink" x="0px" y="0px"
	 viewBox="0 0 198.4 23.9" style="enable-background:new 0 0 198.4 23.9;" xml:space="preserve">
<style type="text/css">
	.st0{fill:#FFFFFF;}
	.st1{display:none;}
	.st2{display:inline;fill:#87868A;}
	.st3{fill:#E6B54A;}
</style>
<path class="st0" d="M187.6,1.2c-3.4,0-6.4,1.6-8.4,4.1h-70.7c-2-2.5-5-4.1-8.5-4.1c-3.4,0-6.4,1.6-8.4,4.1H19.5
	c-2-2.5-5-4.1-8.4-4.1C5.2,1.2,0.4,6,0.4,11.9s4.8,10.7,10.7,10.7c3.3,0,6.3-1.5,8.3-3.9h72.5c2,2.4,4.9,3.9,8.3,3.9
	c3.3,0,6.3-1.5,8.3-3.9h71.2c2,2.4,4.9,3.9,8.3,3.9c5.9,0,10.7-4.8,10.7-10.7C198.4,6,193.6,1.2,187.6,1.2z"/>
<g id="Layer_2_1_" class="st1">
	<rect class="st2" width="199.7" height="23.9"/>
</g>
<circle class="st3" cx="11.1" cy="11.9" r="7.7"/>
</svg>
