<?xml version="1.0" encoding="utf-8"?>
<!-- Generator: Adobe Illustrator 22.1.0, SVG Export Plug-In . SVG Version: 6.00 Build 0)  -->
<svg version="1.1" id="Layer_1" xmlns="http://www.w3.org/2000/svg" xmlns:xlink="http://www.w3.org/1999/xlink" x="0px" y="0px"
	 viewBox="0 0 250 250" style="enable-background:new 0 0 250 250;" xml:space="preserve">
<style type="text/css">
	.st0{fill:#FFFFFF;}
</style>
<g>
	<g>
		<path class="st0" d="M156.6,117.4H95.3c-18.4,0-33.5-15-33.5-33.5v-1.6c0-18.4,15-33.5,33.5-33.5h61.4c18.4,0,33.5,15,33.5,33.5
			v1.6C190.1,102.4,175.1,117.4,156.6,117.4z M95.3,57.4c-13.8,0-24.9,11.2-24.9,24.9v1.6c0,13.8,11.2,24.9,24.9,24.9h61.4
			c13.8,0,24.9-11.2,24.9-24.9v-1.6c0-13.8-11.2-24.9-24.9-24.9H95.3z"/>
	</g>
	<circle class="st0" cx="126" cy="31.8" r="8.5"/>
	<circle class="st0" cx="87.5" cy="81.7" r="8.5"/>
	<circle class="st0" cx="164.4" cy="81.7" r="8.5"/>
	<g>
		<path class="st0" d="M125.6,100c-9.3,0-17.3-6.9-19.1-16.5c-0.2-1.2,0.5-2.3,1.7-2.5c1.2-0.2,2.3,0.5,2.5,1.7
			c1.4,7.5,7.7,13,14.9,13c7.2,0,13.5-5.5,14.9-13c0.2-1.2,1.3-1.9,2.5-1.7c1.2,0.2,1.9,1.3,1.7,2.5C143,93.1,134.9,100,125.6,100z"
			/>
	</g>
	<g>
		<g>
			<g>
				<path class="st0" d="M202.3,185.5c-2.2,0.2-3.8,2.2-3.8,4.4v10.6c0,1.2-0.9,2.1-2.1,2.1h-12.8c-1.2,0-2.1-0.9-2.1-2.1v-10.6
					c0-2.2-1.6-4.2-3.8-4.4c-2.5-0.2-4.7,1.7-4.7,4.2v17.1c0,2.4,1.9,4.3,4.3,4.3h6.4c1.2,0,2.1,0.9,2.1,2.1l0,10.5
					c0,2.2,1.6,4.2,3.8,4.4c2.5,0.2,4.7-1.7,4.7-4.2v-10.7c0-1.2,0.9-2.1,2.1-2.1h6.4c2.4,0,4.3-1.9,4.3-4.3v-1.4v-15.7
					C207,187.2,204.9,185.2,202.3,185.5z"/>
				<path class="st0" d="M117.2,185.6H91.7c-2.4,0-4.3,1.9-4.3,4.3l0,33.9c0,2.2,1.6,4.2,3.8,4.4c2.5,0.2,4.7-1.7,4.7-4.2l0-9.2
					c0-1.2,0.9-2.1,2.1-2.1h12.8c1.2,0,2.1,0.9,2.1,2.1l0,9.1c0,2.2,1.6,4.2,3.8,4.4c2.5,0.2,4.7-1.7,4.7-4.2l0-34
					C121.5,187.5,119.6,185.6,117.2,185.6z M113,199.9c0,1.2-0.9,2.1-2.1,2.1H98.1c-1.2,0-2.1-0.9-2.1-2.1v-3.8
					c0-1.2,0.9-2.1,2.1-2.1h12.8c1.2,0,2.1,0.9,2.1,2.1V199.9z"/>
			</g>
			<path class="st0" d="M74.7,185.6H49.2c-2.4,0-4.3,1.9-4.3,4.3l0,33.9c0,2.2,1.6,4.2,3.8,4.4c2.5,0.2,4.7-1.7,4.7-4.2v-9.2
				c0-1.2,0.9-2.1,2.1-2.1h19.2c2.4,0,4.3-1.9,4.3-4.3v-18.4C79,187.5,77,185.6,74.7,185.6z M53.4,200.5v-4.4c0-1.2,0.9-2.1,2.1-2.1
				h12.8c1.2,0,2.1,0.9,2.1,2.1v4.4c0,1.2-0.9,2.1-2.1,2.1H55.5C54.4,202.6,53.4,201.6,53.4,200.5z"/>
		</g>
		<path class="st0" d="M160.2,185.6h-6.7h-10.4h-8.6c-2.4,0-4.3,1.9-4.3,4.3c0,2.4,1.9,4.3,4.3,4.3h8.7l0,29.8
			c0,2.4,1.9,4.3,4.3,4.3c2.4,0,4.3-1.9,4.3-4.3v-29.8h8.5c2.4,0,4.3-1.9,4.3-4.3C164.4,187.5,162.5,185.6,160.2,185.6z"/>
	</g>
	<g>
		<path class="st0" d="M151.6,151.4h-19.4c-1,0-1.9-0.8-1.9-1.9v-4.7c0-1,0.8-1.9,1.9-1.9l19.2,0c2.2,0,4.2-1.6,4.4-3.8
			c0.2-2.5-1.7-4.7-4.2-4.7H126c-2.4,0-4.3,1.9-4.3,4.3V155c0,0.1,0,0.2,0,0.4c0,0.1,0,0.2,0,0.4c0,2.4,1.9,4.3,4.3,4.3h19.4
			c1,0,1.9,0.8,1.9,1.9v4.7c0,1-0.8,1.9-1.9,1.9h-19.2c-2.2,0-4.2,1.6-4.4,3.8c-0.2,2.5,1.7,4.7,4.2,4.7h25.5c2.4,0,4.3-1.9,4.3-4.3
			v-17C155.8,153.3,153.9,151.4,151.6,151.4z"/>
		<path class="st0" d="M194.3,151.4h-19.4c-1,0-1.9-0.8-1.9-1.9v-4.7c0-1,0.8-1.9,1.9-1.9l19.2,0c2.2,0,4.2-1.6,4.4-3.8
			c0.2-2.5-1.7-4.7-4.2-4.7h-25.5c-2.4,0-4.3,1.9-4.3,4.3V155c0,0.1,0,0.2,0,0.4c0,0.1,0,0.2,0,0.4c0,2.4,1.9,4.3,4.3,4.3h19.4
			c1,0,1.9,0.8,1.9,1.9v4.7c0,1-0.8,1.9-1.9,1.9H169c-2.2,0-4.2,1.6-4.4,3.8c-0.2,2.5,1.7,4.7,4.2,4.7h25.5c2.4,0,4.3-1.9,4.3-4.3
			v-17C198.6,153.3,196.7,151.4,194.3,151.4z"/>
		<path class="st0" d="M91.6,134.4h-34c-2.4,0-4.3,1.9-4.3,4.3v34c0,2.2,1.6,4.2,3.8,4.4c2.5,0.2,4.7-1.7,4.7-4.2V145
			c0-1.2,0.9-2.1,2.1-2.1h4.5c1.2,0,2.1,0.9,2.1,2.1v19.1c0,2.2,1.6,4.2,3.8,4.4c2.5,0.2,4.7-1.7,4.7-4.2V145c0-1.2,0.9-2.1,2.1-2.1
			h4.1c1.2,0,2.1,0.9,2.1,2.1v27.6c0,2.2,1.6,4.2,3.8,4.4c2.5,0.2,4.7-1.7,4.7-4.2v-34.1C95.9,136.3,94,134.4,91.6,134.4z"/>
		<path class="st0" d="M105.8,176c-0.8-0.7-1.2-1.7-1.2-3v-34.7c0-1.3,0.4-2.3,1.2-2.9c0.8-0.7,1.8-1,3-1c1.2,0,2.2,0.3,3,1
			c0.8,0.7,1.2,1.6,1.2,2.9V173c0,1.3-0.4,2.3-1.2,3c-0.8,0.7-1.8,1-3,1C107.6,177,106.6,176.7,105.8,176z"/>
	</g>
</g>
</svg>
