<?xml version="1.0" encoding="utf-8"?>
<!-- Generator: Adobe Illustrator 22.1.0, SVG Export Plug-In . SVG Version: 6.00 Build 0)  -->
<svg version="1.1" id="Layer_1" xmlns="http://www.w3.org/2000/svg" xmlns:xlink="http://www.w3.org/1999/xlink" x="0px" y="0px"
	 viewBox="0 0 100 100" style="enable-background:new 0 0 100 100;" xml:space="preserve">
<style type="text/css">
	.st0{fill:#7A257C;enable-background:new    ;}
	.st1{fill:#FFFFFF;}
</style>
<title>Artboard 1</title>
<path class="st0" d="M50,100L50,100C22.4,100,0,77.6,0,50l0,0C0,22.4,22.4,0,50,0l0,0c27.6,0,50,22.4,50,50l0,0
	C100,77.6,77.6,100,50,100z"/>
<g>
	<path class="st1" d="M25.5,23.9h49c2.9,0,5.2,2.3,5.2,5.2l0,0c0,2.9-2.3,5.2-5.2,5.2h-49c-2.9,0-5.2-2.3-5.2-5.2l0,0
		C20.2,26.2,22.6,23.9,25.5,23.9z"/>
	<path class="st1" d="M25.5,65.7h49c2.9,0,5.2,2.3,5.2,5.2l0,0c0,2.9-2.3,5.2-5.2,5.2h-49c-2.9,0-5.2-2.3-5.2-5.2l0,0
		C20.2,68,22.6,65.7,25.5,65.7z"/>
	<path class="st1" d="M25.5,44.8h49c2.9,0,5.2,2.3,5.2,5.2l0,0c0,2.9-2.3,5.2-5.2,5.2h-49c-2.9,0-5.2-2.3-5.2-5.2l0,0
		C20.2,47.1,22.6,44.8,25.5,44.8z"/>
</g>
</svg>
