<?xml version="1.0" encoding="utf-8"?>
<!-- Generator: Adobe Illustrator 22.1.0, SVG Export Plug-In . SVG Version: 6.00 Build 0)  -->
<svg version="1.1" id="Layer_1" xmlns="http://www.w3.org/2000/svg" xmlns:xlink="http://www.w3.org/1999/xlink" x="0px" y="0px"
	 viewBox="0 0 400 500" style="enable-background:new 0 0 400 500;" xml:space="preserve">
<style type="text/css">
	.st0{opacity:0.1;}
	.st1{fill:#00CDC8;}
	.st2{fill:#FADC3C;}
	.st3{fill:none;stroke:#FFFFFF;stroke-width:6;stroke-linecap:round;stroke-miterlimit:10;}
	.st4{fill:#FFFFFF;}
	.st5{fill:#F24044;}
	.st6{fill:#FF5A00;}
	.st7{fill:none;stroke:#FF5A00;stroke-width:6;stroke-miterlimit:10;}
	.st8{fill:#490A3D;}
	.st9{font-family:'Ubuntu-Bold';}
	.st10{font-size:23.428px;}
</style>
<g>
	<path class="st0" d="M294.3,56.2c0.6,1,0.9,2.1,0.9,3.3c0,3.5-2.9,6.4-6.4,6.4c-1.2,0-2.4-0.3-3.3-0.9c1.1,1.8,3.1,3,5.4,3
		c3.5,0,6.4-2.9,6.4-6.4C297.4,59.3,296.2,57.3,294.3,56.2z"/>
	<g>
		<g class="st0">
			<circle cx="25.1" cy="131" r="6.4"/>
			<circle cx="41.8" cy="131" r="6.4"/>
			<circle cx="58.5" cy="131" r="6.4"/>
		</g>
		<path class="st0" d="M28.4,125.5c0.6,1,0.9,2.1,0.9,3.3c0,3.5-2.9,6.4-6.4,6.4c-1.2,0-2.4-0.3-3.3-0.9c1.1,1.8,3.1,3,5.4,3
			c3.5,0,6.4-2.9,6.4-6.4C31.4,128.7,30.2,126.7,28.4,125.5z"/>
		<path class="st0" d="M45.1,125.5c0.6,1,0.9,2.1,0.9,3.3c0,3.5-2.9,6.4-6.4,6.4c-1.2,0-2.4-0.3-3.3-0.9c1.1,1.8,3.1,3,5.4,3
			c3.5,0,6.4-2.9,6.4-6.4C48.2,128.7,47,126.7,45.1,125.5z"/>
		<path class="st0" d="M56.4,135.3c-1.2,0-2.4-0.3-3.3-0.9c1.1,1.8,3.1,3,5.4,3c3.5,0,6.4-2.9,6.4-6.4c0-2.3-1.2-4.3-3-5.4
			c0.6,1,0.9,2.1,0.9,3.3C62.8,132.4,59.9,135.3,56.4,135.3z"/>
		<g>
			<circle class="st1" cx="24" cy="129.9" r="6.4"/>
			<circle class="st1" cx="40.7" cy="129.9" r="6.4"/>
			<circle class="st1" cx="57.4" cy="129.9" r="6.4"/>
		</g>
		<path class="st0" d="M27.3,124.5c0.6,1,0.9,2.1,0.9,3.3c0,3.5-2.9,6.4-6.4,6.4c-1.2,0-2.4-0.3-3.3-0.9c1.1,1.8,3.1,3,5.4,3
			c3.5,0,6.4-2.9,6.4-6.4C30.4,127.6,29.1,125.6,27.3,124.5z"/>
		<path class="st0" d="M44,124.5c0.6,1,0.9,2.1,0.9,3.3c0,3.5-2.9,6.4-6.4,6.4c-1.2,0-2.4-0.3-3.3-0.9c1.1,1.8,3.1,3,5.4,3
			c3.5,0,6.4-2.9,6.4-6.4C47.1,127.6,45.9,125.6,44,124.5z"/>
		<path class="st0" d="M55.3,134.2c-1.2,0-2.4-0.3-3.3-0.9c1.1,1.8,3.1,3,5.4,3c3.5,0,6.4-2.9,6.4-6.4c0-2.3-1.2-4.3-3-5.4
			c0.6,1,0.9,2.1,0.9,3.3C61.7,131.3,58.9,134.2,55.3,134.2z"/>
		<rect x="19.4" y="37.6" class="st0" width="164.4" height="9.1"/>
		<rect x="19.4" y="55.5" class="st0" width="164.4" height="9.1"/>
		<rect x="19.4" y="73.5" class="st0" width="164.4" height="9.1"/>
		<rect x="19.4" y="91.4" class="st0" width="164.4" height="9.1"/>
		<rect x="19.4" y="109.3" class="st0" width="164.4" height="9.1"/>
		<rect x="18" y="35.8" class="st2" width="164.4" height="9.1"/>
		<rect x="18" y="53.7" class="st2" width="164.4" height="9.1"/>
		<rect x="18" y="71.6" class="st2" width="164.4" height="9.1"/>
		<rect x="18" y="89.6" class="st2" width="164.4" height="9.1"/>
		<rect x="18" y="107.5" class="st2" width="164.4" height="9.1"/>
		<rect x="19.4" y="19.9" class="st0" width="164.4" height="9.1"/>
		<rect x="18" y="18.1" class="st2" width="164.4" height="9.1"/>
	</g>
	<g>
		<g class="st0">
			<circle cx="224.2" cy="61.6" r="6.4"/>
			<circle cx="241" cy="61.6" r="6.4"/>
			<circle cx="257.7" cy="61.6" r="6.4"/>
			<circle cx="274.4" cy="61.6" r="6.4"/>
		</g>
		<path class="st0" d="M227.6,56.1c0.6,1,0.9,2.1,0.9,3.3c0,3.5-2.9,6.4-6.4,6.4c-1.2,0-2.4-0.3-3.3-0.9c1.1,1.8,3.1,3,5.4,3
			c3.5,0,6.4-2.9,6.4-6.4C230.6,59.3,229.4,57.3,227.6,56.1z"/>
		<path class="st0" d="M244.3,56.1c0.6,1,0.9,2.1,0.9,3.3c0,3.5-2.9,6.4-6.4,6.4c-1.2,0-2.4-0.3-3.3-0.9c1.1,1.8,3.1,3,5.4,3
			c3.5,0,6.4-2.9,6.4-6.4C247.3,59.3,246.1,57.3,244.3,56.1z"/>
		<path class="st0" d="M255.6,65.9c-1.2,0-2.4-0.3-3.3-0.9c1.1,1.8,3.1,3,5.4,3c3.5,0,6.4-2.9,6.4-6.4c0-2.3-1.2-4.3-3-5.4
			c0.6,1,0.9,2.1,0.9,3.3C262,63,259.1,65.9,255.6,65.9z"/>
		<path class="st0" d="M277.8,56.1c0.6,1,0.9,2.1,0.9,3.3c0,3.5-2.9,6.4-6.4,6.4c-1.2,0-2.4-0.3-3.3-0.9c1.1,1.8,3.1,3,5.4,3
			c3.5,0,6.4-2.9,6.4-6.4C280.8,59.3,279.6,57.3,277.8,56.1z"/>
		<g>
			<circle class="st1" cx="223.1" cy="60.5" r="6.4"/>
			<circle class="st1" cx="239.9" cy="60.5" r="6.4"/>
			<circle class="st1" cx="256.6" cy="60.5" r="6.4"/>
			<circle class="st1" cx="273.3" cy="60.5" r="6.4"/>
		</g>
		<path class="st0" d="M226.5,55.1c0.6,1,0.9,2.1,0.9,3.3c0,3.5-2.9,6.4-6.4,6.4c-1.2,0-2.4-0.3-3.3-0.9c1.1,1.8,3.1,3,5.4,3
			c3.5,0,6.4-2.9,6.4-6.4C229.5,58.2,228.3,56.2,226.5,55.1z"/>
		<path class="st0" d="M243.2,55.1c0.6,1,0.9,2.1,0.9,3.3c0,3.5-2.9,6.4-6.4,6.4c-1.2,0-2.4-0.3-3.3-0.9c1.1,1.8,3.1,3,5.4,3
			c3.5,0,6.4-2.9,6.4-6.4C246.3,58.2,245,56.2,243.2,55.1z"/>
		<path class="st0" d="M254.5,64.8c-1.2,0-2.4-0.3-3.3-0.9c1.1,1.8,3.1,3,5.4,3c3.5,0,6.4-2.9,6.4-6.4c0-2.3-1.2-4.3-3-5.4
			c0.6,1,0.9,2.1,0.9,3.3C260.9,61.9,258,64.8,254.5,64.8z"/>
		<path class="st0" d="M276.7,55.1c0.6,1,0.9,2.1,0.9,3.3c0,3.5-2.9,6.4-6.4,6.4c-1.2,0-2.4-0.3-3.3-0.9c1.1,1.8,3.1,3,5.4,3
			c3.5,0,6.4-2.9,6.4-6.4C279.7,58.2,278.5,56.2,276.7,55.1z"/>
		<circle class="st1" cx="289.9" cy="60.6" r="6.4"/>
		<path class="st0" d="M293.3,55.1c0.6,1,0.9,2.1,0.9,3.3c0,3.5-2.9,6.4-6.4,6.4c-1.2,0-2.4-0.3-3.3-0.9c1.1,1.8,3.1,3,5.4,3
			c3.5,0,6.4-2.9,6.4-6.4C296.3,58.3,295.1,56.2,293.3,55.1z"/>
		<rect x="218.6" y="37.6" class="st0" width="164.4" height="9.1"/>
		<rect x="217.1" y="35.8" class="st2" width="164.4" height="9.1"/>
		<rect x="218.6" y="19.9" class="st0" width="164.4" height="9.1"/>
		<rect x="217.1" y="18.1" class="st2" width="164.4" height="9.1"/>
	</g>
	<line class="st3" x1="25.1" y1="253.7" x2="348.9" y2="253.7"/>
	<g>
		<g>
			<circle class="st0" cx="58.6" cy="202.8" r="31.4"/>
			<g>
				<circle class="st1" cx="56" cy="200.2" r="31.4"/>
			</g>
			<g>
				<path class="st4" d="M51.3,199.4c1.1,0.7,2,1.6,2.7,2.8c0.6,1.2,1,2.6,1,4.1c0,1.6-0.4,3-1.1,4.3c-0.7,1.2-1.7,2.2-2.9,2.9
					c-1.2,0.7-2.7,1-4.3,1c-3.1,0-5.5-1.1-7.2-3.2c-1.7-2.1-2.5-5.1-2.5-9c0-2.7,0.4-5,1.2-7c0.8-2,1.9-3.5,3.4-4.5
					c1.5-1,3.2-1.6,5.2-1.6c1.3,0,2.7,0.2,4,0.7c1.3,0.5,2.5,1.1,3.4,1.9c0.3,0.3,0.5,0.5,0.6,0.8c0.1,0.2,0.2,0.5,0.2,0.9
					c0,0.5-0.1,1-0.4,1.3c-0.3,0.4-0.6,0.5-1,0.5c-0.2,0-0.5,0-0.7-0.1c-0.2-0.1-0.5-0.2-0.8-0.4c-1.9-1.4-3.7-2-5.2-2
					c-1.7,0-3,0.8-4,2.4s-1.5,3.8-1.5,6.6c0.5-1,1.3-1.9,2.4-2.5c1.1-0.6,2.3-0.9,3.6-0.9C48.9,198.4,50.2,198.7,51.3,199.4z
					 M49.5,209.7c0.8-0.8,1.2-1.9,1.2-3.3c0-1.4-0.4-2.4-1.2-3.3c-0.8-0.8-1.8-1.2-3.1-1.2c-1.3,0-2.4,0.4-3.2,1.2
					c-0.8,0.8-1.2,1.9-1.2,3.2c0,1.4,0.4,2.4,1.2,3.3c0.8,0.8,1.9,1.2,3.2,1.2C47.7,210.9,48.8,210.5,49.5,209.7z"/>
				<path class="st4" d="M73.2,203.6c0.8,1,1.2,2.3,1.2,3.9c0,2.1-0.8,3.8-2.3,5.1c-1.6,1.3-3.7,1.9-6.3,1.9c-1.5,0-3-0.2-4.4-0.7
					c-1.4-0.5-2.6-1.1-3.6-2c-0.5-0.5-0.8-1-0.8-1.6c0-0.5,0.1-1,0.4-1.3c0.3-0.4,0.6-0.5,1-0.5c0.2,0,0.4,0,0.6,0.1
					c0.2,0.1,0.4,0.2,0.8,0.4c1,0.7,1.9,1.2,2.8,1.5s1.9,0.5,2.9,0.5c1.5,0,2.7-0.3,3.4-0.9c0.7-0.6,1.1-1.6,1.1-2.8
					c0-1.2-0.4-2.2-1.2-2.7c-0.8-0.6-2-0.9-3.6-0.9h-2c-0.5,0-1-0.2-1.2-0.5c-0.3-0.4-0.4-0.8-0.4-1.2c0-0.5,0.1-0.9,0.4-1.3
					c0.3-0.4,0.7-0.5,1.2-0.5h1.4c3.2,0,4.8-1.2,4.8-3.6c0-1.1-0.3-2-1-2.6c-0.7-0.6-1.6-0.9-2.8-0.9c-1.7,0-3.5,0.7-5.5,2
					c-0.3,0.2-0.6,0.3-0.8,0.4c-0.2,0.1-0.4,0.1-0.6,0.1c-0.4,0-0.7-0.2-1-0.5c-0.3-0.4-0.4-0.8-0.4-1.3c0-0.4,0.1-0.6,0.2-0.9
					c0.1-0.2,0.3-0.5,0.6-0.8c1-0.8,2.2-1.5,3.5-1.9c1.4-0.5,2.8-0.7,4.2-0.7c2.4,0,4.4,0.6,5.8,1.8s2.2,2.8,2.2,4.8
					c0,1.4-0.4,2.5-1.1,3.6c-0.7,1-1.7,1.8-2.9,2.2C71.3,201.9,72.4,202.6,73.2,203.6z"/>
			</g>
		</g>
		<g>
			<circle class="st0" cx="177.4" cy="202.8" r="31.4"/>
			<g>
				<circle class="st5" cx="174.7" cy="200.2" r="31.4"/>
			</g>
			<g>
				<path class="st4" d="M174.7,212.3c0,1.2-0.7,1.9-2.1,1.9h-13.3c-0.6,0-1.1-0.2-1.4-0.5c-0.3-0.4-0.5-0.8-0.5-1.3
					c0-0.7,0.3-1.3,0.8-1.9l8-8.6c1-1.1,1.7-2.1,2.2-3c0.5-0.9,0.7-1.8,0.7-2.7c0-1.1-0.3-1.9-0.9-2.5c-0.6-0.6-1.5-0.9-2.7-0.9
					c-1,0-1.9,0.2-2.8,0.5c-0.9,0.4-1.8,0.9-2.7,1.5c-0.2,0.2-0.5,0.3-0.7,0.4c-0.2,0.1-0.5,0.2-0.7,0.2c-0.4,0-0.7-0.2-1-0.6
					c-0.3-0.4-0.4-0.8-0.4-1.3c0-0.4,0.1-0.7,0.2-0.9c0.1-0.3,0.3-0.5,0.6-0.7c1-0.8,2.2-1.5,3.6-1.9c1.4-0.5,2.8-0.7,4.1-0.7
					c2.4,0,4.3,0.6,5.8,1.8c1.4,1.2,2.2,2.8,2.2,4.9c0,1.4-0.3,2.8-0.9,4c-0.6,1.2-1.6,2.6-3.1,4.2l-6.1,6.4h9.2
					C174,210.5,174.7,211.1,174.7,212.3z"/>
				<path class="st4" d="M191.2,199.4c1.2,0.7,2.1,1.6,2.7,2.8c0.7,1.2,1,2.6,1,4.1c0,1.6-0.4,3-1.1,4.3c-0.7,1.2-1.8,2.2-3.1,2.9
					c-1.3,0.7-2.9,1-4.6,1c-1.4,0-2.9-0.2-4.3-0.7c-1.4-0.5-2.6-1.1-3.6-1.9c-0.5-0.5-0.8-1-0.8-1.6c0-0.5,0.1-1,0.4-1.3
					c0.3-0.4,0.6-0.5,1-0.5c0.2,0,0.5,0,0.7,0.1c0.2,0.1,0.5,0.2,0.7,0.4c0.9,0.7,1.8,1.2,2.7,1.5s1.8,0.5,2.8,0.5
					c1.5,0,2.7-0.4,3.5-1.2c0.8-0.8,1.2-1.9,1.2-3.3c0-1.4-0.4-2.5-1.2-3.3c-0.8-0.8-2-1.2-3.4-1.2c-0.9,0-1.7,0.1-2.4,0.4
					c-0.7,0.3-1.4,0.7-2.2,1.3c-0.4,0.3-0.9,0.5-1.4,0.5c-0.5,0-0.9-0.1-1.2-0.4c-0.3-0.3-0.5-0.7-0.5-1.1v-10.9
					c0-0.7,0.2-1.2,0.6-1.5c0.4-0.4,0.9-0.6,1.6-0.6h11.7c1.4,0,2.1,0.6,2.1,1.8c0,1.2-0.7,1.8-2.1,1.8h-9.4v6.6
					c1.2-0.8,2.6-1.3,4.4-1.3C188.7,198.4,190.1,198.7,191.2,199.4z"/>
			</g>
		</g>
		<g>
			<circle class="st0" cx="296.1" cy="202.8" r="31.4"/>
			<g>
				<circle class="st6" cx="293.5" cy="200.2" r="31.4"/>
			</g>
			<g>
				<path class="st4" d="M292.6,203.7c0.8,1,1.2,2.3,1.2,3.9c0,2.2-0.8,3.9-2.5,5.1c-1.6,1.2-3.9,1.8-6.8,1.8
					c-2.9,0-5.2-0.6-6.8-1.8c-1.6-1.2-2.5-2.9-2.5-5.1c0-1.5,0.4-2.8,1.2-3.9c0.8-1.1,1.9-1.8,3.4-2.2c-1.2-0.5-2.2-1.2-2.9-2.2
					c-0.7-1-1-2.2-1-3.5c0-2.1,0.8-3.7,2.3-4.9s3.7-1.8,6.3-1.8c2.7,0,4.8,0.6,6.3,1.8s2.3,2.8,2.3,4.9c0,1.4-0.3,2.5-1,3.5
					c-0.7,1-1.7,1.7-2.9,2.1C290.7,201.9,291.8,202.6,292.6,203.7z M289.5,207.2c0-2.5-1.7-3.7-5-3.7s-5,1.2-5,3.7
					c0,2.5,1.7,3.7,5,3.7S289.5,209.7,289.5,207.2z M280.1,196.3c0,1.2,0.4,2.1,1.1,2.7s1.8,0.9,3.3,0.9c1.4,0,2.5-0.3,3.3-0.9
					s1.1-1.5,1.1-2.7c0-2.4-1.5-3.6-4.4-3.6C281.6,192.7,280.1,193.9,280.1,196.3z"/>
				<path class="st4" d="M312.7,203.7c0.8,1,1.2,2.3,1.2,3.9c0,2.2-0.8,3.9-2.5,5.1c-1.6,1.2-3.9,1.8-6.8,1.8
					c-2.9,0-5.2-0.6-6.8-1.8c-1.6-1.2-2.5-2.9-2.5-5.1c0-1.5,0.4-2.8,1.2-3.9c0.8-1.1,1.9-1.8,3.4-2.2c-1.2-0.5-2.2-1.2-2.9-2.2
					c-0.7-1-1-2.2-1-3.5c0-2.1,0.8-3.7,2.3-4.9s3.7-1.8,6.3-1.8c2.7,0,4.8,0.6,6.3,1.8s2.3,2.8,2.3,4.9c0,1.4-0.3,2.5-1,3.5
					c-0.7,1-1.7,1.7-2.9,2.1C310.8,201.9,311.9,202.6,312.7,203.7z M309.6,207.2c0-2.5-1.7-3.7-5-3.7s-5,1.2-5,3.7
					c0,2.5,1.7,3.7,5,3.7S309.6,209.7,309.6,207.2z M300.2,196.3c0,1.2,0.4,2.1,1.1,2.7s1.8,0.9,3.3,0.9c1.4,0,2.5-0.3,3.3-0.9
					s1.1-1.5,1.1-2.7c0-2.4-1.5-3.6-4.4-3.6C301.7,192.7,300.2,193.9,300.2,196.3z"/>
			</g>
		</g>
		<g>
			<g class="st0">
				<path d="M120.6,205.6v9.8h-6.1v-9.8h-10v-5.9h10v-9.8h6.1v9.8h10v5.9H120.6z"/>
			</g>
			<g>
				<path class="st4" d="M118.9,203.3v9.8h-6.1v-9.8h-10v-5.9h10v-9.8h6.1v9.8h10v5.9H118.9z"/>
			</g>
		</g>
		<g>
			<polyline class="st0" points="251.1,201.1 225,201.1 225,195.1 251.1,195.1 			"/>
			<g>
				<polyline class="st0" points="251.1,210.2 225,210.2 225,204.2 251.1,204.2 				"/>
			</g>
		</g>
		<rect x="222.1" y="192.8" class="st4" width="26.1" height="6"/>
		<rect x="222.1" y="201.9" class="st4" width="26.1" height="6"/>
		<g>
			<circle class="st0" cx="58.6" cy="307.2" r="31.4"/>
			<g>
				<circle class="st1" cx="56" cy="304.6" r="31.4"/>
			</g>
			<g>
				<path class="st4" d="M51.3,303.8c1.1,0.7,2,1.6,2.7,2.8c0.6,1.2,1,2.6,1,4.1c0,1.6-0.4,3-1.1,4.3c-0.7,1.2-1.7,2.2-2.9,2.9
					c-1.2,0.7-2.7,1.1-4.3,1.1c-3.1,0-5.5-1.1-7.2-3.2c-1.7-2.1-2.5-5.1-2.5-9c0-2.7,0.4-5,1.2-7c0.8-2,1.9-3.5,3.4-4.5
					c1.5-1,3.2-1.6,5.2-1.6c1.3,0,2.7,0.2,4,0.7c1.3,0.5,2.5,1.1,3.4,1.9c0.3,0.3,0.5,0.5,0.6,0.8c0.1,0.2,0.2,0.5,0.2,0.9
					c0,0.5-0.1,1-0.4,1.3c-0.3,0.4-0.6,0.5-1,0.5c-0.2,0-0.5,0-0.7-0.1s-0.5-0.2-0.8-0.4c-1.9-1.4-3.7-2-5.2-2c-1.7,0-3,0.8-4,2.4
					s-1.5,3.8-1.5,6.6c0.5-1.1,1.3-1.9,2.4-2.5s2.3-0.9,3.6-0.9C48.9,302.8,50.2,303.1,51.3,303.8z M49.5,314.1
					c0.8-0.8,1.2-1.9,1.2-3.3s-0.4-2.4-1.2-3.3c-0.8-0.8-1.8-1.2-3.1-1.2c-1.3,0-2.4,0.4-3.2,1.2c-0.8,0.8-1.2,1.9-1.2,3.2
					c0,1.4,0.4,2.4,1.2,3.3c0.8,0.8,1.9,1.2,3.2,1.2C47.7,315.3,48.8,314.9,49.5,314.1z"/>
				<path class="st4" d="M59.3,315.7c-1.5-2.2-2.3-5.3-2.3-9.4c0-4.1,0.8-7.2,2.3-9.4c1.5-2.2,3.8-3.2,6.7-3.2
					c2.9,0,5.1,1.1,6.7,3.2c1.5,2.2,2.3,5.3,2.3,9.4c0,4.1-0.8,7.2-2.3,9.4c-1.5,2.2-3.8,3.3-6.7,3.3
					C63.1,318.9,60.9,317.8,59.3,315.7z M69.5,313.2c0.7-1.5,1.1-3.8,1.1-6.9c0-3.2-0.4-5.5-1.1-6.9c-0.7-1.4-1.9-2.2-3.5-2.2
					c-1.6,0-2.7,0.7-3.5,2.2c-0.7,1.4-1.1,3.8-1.1,6.9c0,3.2,0.4,5.5,1.1,6.9c0.7,1.5,1.9,2.2,3.5,2.2
					C67.6,315.4,68.8,314.6,69.5,313.2z"/>
			</g>
		</g>
		<g>
			<circle class="st0" cx="177.4" cy="307.2" r="31.4"/>
			<g>
				<circle class="st5" cx="174.7" cy="304.6" r="31.4"/>
			</g>
			<g>
				<path class="st4" d="M174.7,316.7c0,1.2-0.7,1.9-2.1,1.9h-13.3c-0.6,0-1.1-0.2-1.4-0.5c-0.3-0.4-0.5-0.8-0.5-1.3
					c0-0.7,0.3-1.3,0.8-1.9l8-8.6c1-1.1,1.7-2.1,2.2-3s0.7-1.8,0.7-2.7c0-1.1-0.3-1.9-0.9-2.5c-0.6-0.6-1.5-0.9-2.7-0.9
					c-1,0-1.9,0.2-2.8,0.5c-0.9,0.4-1.8,0.9-2.7,1.5c-0.2,0.2-0.5,0.3-0.7,0.4c-0.2,0.1-0.5,0.2-0.7,0.2c-0.4,0-0.7-0.2-1-0.6
					c-0.3-0.4-0.4-0.8-0.4-1.3c0-0.4,0.1-0.7,0.2-0.9c0.1-0.3,0.3-0.5,0.6-0.7c1-0.8,2.2-1.5,3.6-1.9c1.4-0.5,2.8-0.7,4.1-0.7
					c2.4,0,4.3,0.6,5.8,1.8c1.4,1.2,2.2,2.8,2.2,4.9c0,1.4-0.3,2.8-0.9,4c-0.6,1.2-1.6,2.6-3.1,4.2l-6.1,6.4h9.2
					C174,315,174.7,315.5,174.7,316.7z"/>
				<path class="st4" d="M179.2,315.7c-1.5-2.2-2.3-5.3-2.3-9.4c0-4.1,0.8-7.2,2.3-9.4c1.5-2.2,3.8-3.2,6.7-3.2
					c2.9,0,5.1,1.1,6.7,3.2c1.5,2.2,2.3,5.3,2.3,9.4c0,4.1-0.8,7.2-2.3,9.4c-1.5,2.2-3.8,3.3-6.7,3.3
					C183,318.9,180.7,317.8,179.2,315.7z M189.3,313.2c0.7-1.5,1.1-3.8,1.1-6.9c0-3.2-0.4-5.5-1.1-6.9c-0.7-1.4-1.9-2.2-3.5-2.2
					c-1.6,0-2.7,0.7-3.5,2.2c-0.7,1.4-1.1,3.8-1.1,6.9c0,3.2,0.4,5.5,1.1,6.9c0.7,1.5,1.9,2.2,3.5,2.2
					C187.5,315.4,188.6,314.6,189.3,313.2z"/>
			</g>
		</g>
		<g>
			<circle class="st0" cx="296.1" cy="307.2" r="31.4"/>
			<g>
				<circle class="st6" cx="293.5" cy="304.6" r="31.4"/>
			</g>
			<g>
				<path class="st4" d="M292.6,308.1c0.8,1,1.2,2.3,1.2,3.8c0,2.2-0.8,3.9-2.5,5.1c-1.6,1.2-3.9,1.8-6.8,1.8
					c-2.9,0-5.2-0.6-6.8-1.8c-1.6-1.2-2.5-2.9-2.5-5.1c0-1.5,0.4-2.8,1.2-3.9c0.8-1.1,1.9-1.8,3.4-2.2c-1.2-0.5-2.2-1.2-2.9-2.2
					c-0.7-1-1-2.2-1-3.5c0-2.1,0.8-3.7,2.3-4.9c1.5-1.2,3.7-1.8,6.3-1.8c2.7,0,4.8,0.6,6.3,1.8c1.5,1.2,2.3,2.8,2.3,4.9
					c0,1.4-0.3,2.5-1,3.5s-1.7,1.7-2.9,2.1C290.7,306.3,291.8,307,292.6,308.1z M289.5,311.6c0-2.5-1.7-3.7-5-3.7s-5,1.2-5,3.7
					c0,2.5,1.7,3.7,5,3.7S289.5,314.1,289.5,311.6z M280.1,300.7c0,1.2,0.4,2.1,1.1,2.7c0.7,0.6,1.8,0.9,3.3,0.9
					c1.4,0,2.5-0.3,3.3-0.9c0.7-0.6,1.1-1.5,1.1-2.7c0-2.4-1.5-3.6-4.4-3.6C281.6,297.1,280.1,298.3,280.1,300.7z"/>
				<path class="st4" d="M297.9,315.7c-1.5-2.2-2.3-5.3-2.3-9.4c0-4.1,0.8-7.2,2.3-9.4c1.5-2.2,3.8-3.2,6.7-3.2
					c2.9,0,5.1,1.1,6.7,3.2c1.5,2.2,2.3,5.3,2.3,9.4c0,4.1-0.8,7.2-2.3,9.4c-1.5,2.2-3.8,3.3-6.7,3.3
					C301.7,318.9,299.5,317.8,297.9,315.7z M308.1,313.2c0.7-1.5,1.1-3.8,1.1-6.9c0-3.2-0.4-5.5-1.1-6.9c-0.7-1.4-1.9-2.2-3.5-2.2
					s-2.7,0.7-3.5,2.2c-0.7,1.4-1.1,3.8-1.1,6.9c0,3.2,0.4,5.5,1.1,6.9c0.7,1.5,1.9,2.2,3.5,2.2S307.4,314.6,308.1,313.2z"/>
			</g>
		</g>
		<g>
			<g class="st0">
				<path d="M120.6,310v9.8h-6.1V310h-10v-5.9h10v-9.8h6.1v9.8h10v5.9H120.6z"/>
			</g>
			<g>
				<g>
					<path class="st4" d="M118.9,307.7v9.8h-6.1v-9.8h-10v-5.9h10V292h6.1v9.8h10v5.9H118.9z"/>
				</g>
			</g>
		</g>
		<g>
			<polyline class="st0" points="251.1,305.5 225,305.5 225,299.5 251.1,299.5 			"/>
			<g>
				<polyline class="st0" points="251.1,314.6 225,314.6 225,308.6 251.1,308.6 				"/>
			</g>
		</g>
		<rect x="222.1" y="297.2" class="st4" width="26.1" height="6"/>
		<rect x="222.1" y="306.3" class="st4" width="26.1" height="6"/>
		<g>
			<circle class="st0" cx="58.6" cy="411.6" r="31.4"/>
			<g>
				<circle class="st1" cx="56" cy="409" r="31.4"/>
			</g>
			<g>
				<path class="st4" d="M63.1,412.4c0.8,1,1.2,2.3,1.2,3.9c0,2.1-0.8,3.8-2.3,5.1c-1.6,1.3-3.7,1.9-6.3,1.9c-1.5,0-3-0.2-4.4-0.7
					s-2.6-1.1-3.6-2c-0.5-0.5-0.8-1-0.8-1.6c0-0.5,0.1-1,0.4-1.3c0.3-0.4,0.6-0.5,1-0.5c0.2,0,0.4,0,0.6,0.1
					c0.2,0.1,0.4,0.2,0.8,0.4c1,0.7,1.9,1.2,2.8,1.5c0.9,0.3,1.9,0.5,2.9,0.5c1.5,0,2.7-0.3,3.4-0.9c0.7-0.6,1.1-1.6,1.1-2.8
					c0-1.2-0.4-2.2-1.2-2.7c-0.8-0.6-2-0.9-3.6-0.9h-2c-0.5,0-1-0.2-1.2-0.5c-0.3-0.4-0.4-0.8-0.4-1.2c0-0.5,0.1-0.9,0.4-1.3
					c0.3-0.4,0.7-0.5,1.2-0.5h1.4c3.2,0,4.8-1.2,4.8-3.6c0-1.1-0.3-2-1-2.6c-0.7-0.6-1.6-0.9-2.8-0.9c-1.7,0-3.5,0.7-5.5,2
					c-0.3,0.2-0.6,0.3-0.8,0.4c-0.2,0.1-0.4,0.1-0.6,0.1c-0.4,0-0.7-0.2-1-0.5c-0.3-0.4-0.4-0.8-0.4-1.3c0-0.4,0.1-0.6,0.2-0.9
					c0.1-0.2,0.3-0.5,0.6-0.8c1-0.8,2.2-1.5,3.5-1.9c1.4-0.5,2.8-0.7,4.2-0.7c2.4,0,4.4,0.6,5.8,1.8c1.4,1.2,2.2,2.8,2.2,4.8
					c0,1.4-0.4,2.5-1.1,3.6c-0.7,1-1.7,1.8-2.9,2.2C61.2,410.7,62.3,411.4,63.1,412.4z"/>
			</g>
		</g>
		<g>
			<circle class="st0" cx="177.4" cy="411.6" r="31.4"/>
			<g>
				<circle class="st5" cx="174.7" cy="409" r="31.4"/>
			</g>
			<g>
				<path class="st4" d="M181.2,408.2c1.2,0.7,2.1,1.6,2.7,2.8c0.7,1.2,1,2.6,1,4.1c0,1.6-0.4,3-1.1,4.3c-0.7,1.2-1.8,2.2-3.1,2.9
					c-1.3,0.7-2.9,1-4.6,1c-1.4,0-2.9-0.2-4.3-0.7c-1.4-0.5-2.6-1.1-3.6-1.9c-0.5-0.5-0.8-1-0.8-1.6c0-0.5,0.1-1,0.4-1.3
					c0.3-0.4,0.6-0.5,1-0.5c0.2,0,0.5,0,0.7,0.1c0.2,0.1,0.5,0.2,0.7,0.4c0.9,0.7,1.8,1.2,2.7,1.5c0.9,0.3,1.8,0.5,2.8,0.5
					c1.5,0,2.7-0.4,3.5-1.2c0.8-0.8,1.2-1.9,1.2-3.3c0-1.4-0.4-2.5-1.2-3.3c-0.8-0.8-2-1.2-3.4-1.2c-0.9,0-1.7,0.1-2.4,0.4
					c-0.7,0.3-1.4,0.7-2.2,1.3c-0.4,0.3-0.9,0.5-1.4,0.5c-0.5,0-0.9-0.1-1.2-0.4c-0.3-0.3-0.5-0.7-0.5-1.1v-10.9
					c0-0.7,0.2-1.2,0.6-1.5c0.4-0.4,0.9-0.6,1.6-0.6h11.7c1.4,0,2.1,0.6,2.1,1.8s-0.7,1.8-2.1,1.8h-9.4v6.6c1.2-0.8,2.6-1.3,4.4-1.3
					C178.6,407.2,180,407.5,181.2,408.2z"/>
			</g>
		</g>
		<g>
			<circle class="st0" cx="296.1" cy="411.6" r="31.4"/>
			<g>
				<circle class="st6" cx="293.5" cy="409" r="31.4"/>
			</g>
			<g>
				<path class="st4" d="M302.6,412.5c0.8,1,1.2,2.3,1.2,3.8c0,2.2-0.8,3.9-2.5,5.1c-1.6,1.2-3.9,1.8-6.8,1.8
					c-2.9,0-5.2-0.6-6.8-1.8c-1.6-1.2-2.5-2.9-2.5-5.1c0-1.5,0.4-2.8,1.2-3.9c0.8-1.1,1.9-1.8,3.4-2.2c-1.2-0.5-2.2-1.2-2.9-2.2
					c-0.7-1-1-2.2-1-3.5c0-2.1,0.8-3.7,2.3-4.9c1.5-1.2,3.7-1.8,6.3-1.8c2.7,0,4.8,0.6,6.3,1.8c1.5,1.2,2.3,2.8,2.3,4.9
					c0,1.4-0.3,2.5-1,3.5s-1.7,1.7-2.9,2.1C300.7,410.7,301.8,411.4,302.6,412.5z M299.6,416c0-2.5-1.7-3.7-5-3.7s-5,1.2-5,3.7
					c0,2.5,1.7,3.7,5,3.7S299.6,418.5,299.6,416z M290.2,405.1c0,1.2,0.4,2.1,1.1,2.7c0.7,0.6,1.8,0.9,3.3,0.9
					c1.4,0,2.5-0.3,3.3-0.9c0.7-0.6,1.1-1.5,1.1-2.7c0-2.4-1.5-3.6-4.4-3.6C291.6,401.5,290.2,402.7,290.2,405.1z"/>
			</g>
		</g>
		<g>
			<g class="st0">
				<path d="M120.6,414.4v9.8h-6.1v-9.8h-10v-5.9h10v-9.8h6.1v9.8h10v5.9H120.6z"/>
			</g>
			<g>
				<g>
					<path class="st4" d="M118.9,412.1v9.8h-6.1v-9.8h-10v-5.9h10v-9.8h6.1v9.8h10v5.9H118.9z"/>
				</g>
			</g>
		</g>
		<g>
			<polyline class="st0" points="251.1,409.9 225,409.9 225,403.9 251.1,403.9 			"/>
			<g>
				<polyline class="st0" points="251.1,419 225,419 225,413 251.1,413 				"/>
			</g>
		</g>
		<rect x="222.1" y="401.6" class="st4" width="26.1" height="6"/>
		<rect x="222.1" y="410.7" class="st4" width="26.1" height="6"/>
		<rect x="322.5" y="401.8" class="st6" width="8.1" height="18.1"/>
		<rect x="322.5" y="295.7" class="st6" width="8.1" height="18.1"/>
		<rect x="322.5" y="191.1" class="st6" width="8.1" height="18.1"/>
		<path class="st7" d="M330.6,305.6h13.8c3.3,0,6,2.7,6,6v93.3c0,3.3-2.7,6-6,6h-13.8"/>
		<path class="st7" d="M327.6,200.2h43.2c3.3,0,6,2.7,6,6l-0.1,145.9c0,3.3-2.7,6-6,6h-13.8"/>
		<g>
			<circle class="st4" cx="350.5" cy="358.2" r="14.3"/>
			<circle class="st8" cx="350.5" cy="358.2" r="12.8"/>
			<text transform="matrix(1 0 0 1 343.5986 364.9902)" class="st4 st9 st10">+</text>
		</g>
	</g>
</g>
</svg>
