<?xml version="1.0" encoding="utf-8"?>
<!-- Generator: Adobe Illustrator 22.1.0, SVG Export Plug-In . SVG Version: 6.00 Build 0)  -->
<svg version="1.1" id="Layer_1" xmlns="http://www.w3.org/2000/svg" xmlns:xlink="http://www.w3.org/1999/xlink" x="0px" y="0px"
	 viewBox="0 0 400 500" style="enable-background:new 0 0 400 500;" xml:space="preserve">
<style type="text/css">
	.st0{opacity:0.1;}
	.st1{fill:#00CDC8;}
	.st2{fill:#FADC3C;}
	.st3{fill:none;stroke:#FFFFFF;stroke-width:6;stroke-linecap:round;stroke-miterlimit:10;}
	.st4{fill:#FFFFFF;}
	.st5{fill:#F24044;}
	.st6{fill:#FF5A00;}
</style>
<g>
	<g class="st0">
		<circle cx="22.3" cy="174.2" r="6.2"/>
		<circle cx="38.6" cy="174.2" r="6.2"/>
		<circle cx="54.8" cy="174.2" r="6.2"/>
	</g>
	<path class="st0" d="M25.6,168.9c0.6,0.9,0.9,2,0.9,3.2c0,3.4-2.8,6.2-6.2,6.2c-1.2,0-2.3-0.3-3.2-0.9c1.1,1.8,3,3,5.3,3
		c3.4,0,6.2-2.8,6.2-6.2C28.5,171.9,27.3,170,25.6,168.9z"/>
	<path class="st0" d="M41.8,168.9c0.6,0.9,0.9,2,0.9,3.2c0,3.4-2.8,6.2-6.2,6.2c-1.2,0-2.3-0.3-3.2-0.9c1.1,1.8,3,3,5.3,3
		c3.4,0,6.2-2.8,6.2-6.2C44.8,171.9,43.6,170,41.8,168.9z"/>
	<path class="st0" d="M52.7,178.3c-1.2,0-2.3-0.3-3.2-0.9c1.1,1.8,3,3,5.3,3c3.4,0,6.2-2.8,6.2-6.2c0-2.2-1.2-4.2-3-5.3
		c0.6,0.9,0.9,2,0.9,3.2C58.9,175.5,56.2,178.3,52.7,178.3z"/>
	<g>
		<circle class="st1" cx="21.3" cy="173.1" r="6.2"/>
		<circle class="st1" cx="37.5" cy="173.1" r="6.2"/>
	</g>
	<path class="st0" d="M24.5,167.8c0.6,0.9,0.9,2,0.9,3.2c0,3.4-2.8,6.2-6.2,6.2c-1.2,0-2.3-0.3-3.2-0.9c1.1,1.8,3,3,5.3,3
		c3.4,0,6.2-2.8,6.2-6.2C27.5,170.9,26.3,168.9,24.5,167.8z"/>
	<path class="st0" d="M40.7,167.8c0.6,0.9,0.9,2,0.9,3.2c0,3.4-2.8,6.2-6.2,6.2c-1.2,0-2.3-0.3-3.2-0.9c1.1,1.8,3,3,5.3,3
		c3.4,0,6.2-2.8,6.2-6.2C43.7,170.9,42.5,168.9,40.7,167.8z"/>
	<path class="st0" d="M51.7,177.3c-1.2,0-2.3-0.3-3.2-0.9c1.1,1.8,3,3,5.3,3c3.4,0,6.2-2.8,6.2-6.2c0-2.2-1.2-4.2-3-5.3
		c0.6,0.9,0.9,2,0.9,3.2C57.9,174.5,55.1,177.3,51.7,177.3z"/>
	<rect x="16.9" y="83.6" class="st0" width="159.5" height="8.8"/>
	<rect x="16.9" y="101" class="st0" width="159.5" height="8.8"/>
	<rect x="16.9" y="118.4" class="st0" width="159.5" height="8.8"/>
	<rect x="16.9" y="135.7" class="st0" width="159.5" height="8.8"/>
	<rect x="16.9" y="153.1" class="st0" width="159.5" height="8.8"/>
	<rect x="15.4" y="81.9" class="st2" width="159.5" height="8.8"/>
	<rect x="16.9" y="66.2" class="st0" width="159.5" height="8.8"/>
	<rect x="15.4" y="64.4" class="st2" width="159.5" height="8.8"/>
	<rect x="16.9" y="48.7" class="st0" width="159.5" height="8.8"/>
	<rect x="15.4" y="47" class="st2" width="159.5" height="8.8"/>
	<rect x="16.9" y="31.3" class="st0" width="159.5" height="8.8"/>
	<rect x="15.4" y="29.5" class="st2" width="159.5" height="8.8"/>
	<rect x="16.9" y="13.9" class="st0" width="159.5" height="8.8"/>
	<rect x="15.4" y="12.1" class="st2" width="159.5" height="8.8"/>
	<rect x="15.4" y="99.2" class="st2" width="159.5" height="8.8"/>
	<rect x="15.4" y="116.6" class="st2" width="159.5" height="8.8"/>
	<rect x="15.4" y="134" class="st2" width="159.5" height="8.8"/>
	<rect x="15.4" y="151.4" class="st2" width="159.5" height="8.8"/>
</g>
<g>
	<g class="st0">
		<circle cx="215.5" cy="89.2" r="6.2"/>
		<circle cx="231.7" cy="89.2" r="6.2"/>
		<circle cx="248" cy="89.2" r="6.2"/>
		<circle cx="264.2" cy="89.2" r="6.2"/>
	</g>
	<g>
		<circle class="st1" cx="214.5" cy="88.1" r="6.2"/>
		<circle class="st1" cx="230.7" cy="88.1" r="6.2"/>
		<circle class="st1" cx="246.9" cy="88.1" r="6.2"/>
		<circle class="st1" cx="263.1" cy="88.1" r="6.2"/>
	</g>
	<path class="st0" d="M217.7,82.8c0.6,0.9,0.9,2,0.9,3.2c0,3.4-2.8,6.2-6.2,6.2c-1.2,0-2.3-0.3-3.2-0.9c1.1,1.8,3,3,5.3,3
		c3.4,0,6.2-2.8,6.2-6.2C220.7,85.9,219.5,83.9,217.7,82.8z"/>
	<path class="st0" d="M233.9,82.8c0.6,0.9,0.9,2,0.9,3.2c0,3.4-2.8,6.2-6.2,6.2c-1.2,0-2.3-0.3-3.2-0.9c1.1,1.8,3,3,5.3,3
		c3.4,0,6.2-2.8,6.2-6.2C236.9,85.9,235.7,83.9,233.9,82.8z"/>
	<path class="st0" d="M244.9,92.3c-1.2,0-2.3-0.3-3.2-0.9c1.1,1.8,3,3,5.3,3c3.4,0,6.2-2.8,6.2-6.2c0-2.2-1.2-4.2-3-5.3
		c0.6,0.9,0.9,2,0.9,3.2C251.1,89.5,248.3,92.3,244.9,92.3z"/>
	<path class="st0" d="M266.4,82.8c0.6,0.9,0.9,2,0.9,3.2c0,3.4-2.8,6.2-6.2,6.2c-1.2,0-2.3-0.3-3.2-0.9c1.1,1.8,3,3,5.3,3
		c3.4,0,6.2-2.8,6.2-6.2C269.3,85.9,268.2,83.9,266.4,82.8z"/>
	<rect x="210.1" y="65.9" class="st0" width="159.5" height="8.8"/>
	<rect x="208.6" y="64.2" class="st2" width="159.5" height="8.8"/>
	<rect x="210.1" y="48.7" class="st0" width="159.5" height="8.8"/>
	<rect x="208.6" y="47" class="st2" width="159.5" height="8.8"/>
	<rect x="210.1" y="31.3" class="st0" width="159.5" height="8.8"/>
	<rect x="208.6" y="29.5" class="st2" width="159.5" height="8.8"/>
	<rect x="210.1" y="13.9" class="st0" width="159.5" height="8.8"/>
	<rect x="208.6" y="12.1" class="st2" width="159.5" height="8.8"/>
	<path class="st0" d="M283.6,83.9c0.6,0.9,0.9,2,0.9,3.2c0,3.4-2.8,6.2-6.2,6.2c-1.2,0-2.3-0.3-3.2-0.9c1.1,1.8,3,3,5.3,3
		c3.4,0,6.2-2.8,6.2-6.2C286.5,86.9,285.4,85,283.6,83.9z"/>
	<circle class="st1" cx="279.3" cy="88.1" r="6.2"/>
	<path class="st0" d="M282.5,82.8c0.6,0.9,0.9,2,0.9,3.2c0,3.4-2.8,6.2-6.2,6.2c-1.2,0-2.3-0.3-3.2-0.9c1.1,1.8,3,3,5.3,3
		c3.4,0,6.2-2.8,6.2-6.2C285.5,85.9,284.3,83.9,282.5,82.8z"/>
	<path class="st0" d="M299.7,83.9c0.6,0.9,0.9,2,0.9,3.2c0,3.4-2.8,6.2-6.2,6.2c-1.2,0-2.3-0.3-3.2-0.9c1.1,1.8,3,3,5.3,3
		c3.4,0,6.2-2.8,6.2-6.2C302.6,86.9,301.5,85,299.7,83.9z"/>
	<circle class="st1" cx="295.4" cy="88.1" r="6.2"/>
	<path class="st0" d="M298.6,82.8c0.6,0.9,0.9,2,0.9,3.2c0,3.4-2.8,6.2-6.2,6.2c-1.2,0-2.3-0.3-3.2-0.9c1.1,1.8,3,3,5.3,3
		c3.4,0,6.2-2.8,6.2-6.2C301.6,85.9,300.4,83.9,298.6,82.8z"/>
	<path class="st0" d="M315.8,83.9c0.6,0.9,0.9,2,0.9,3.2c0,3.4-2.8,6.2-6.2,6.2c-1.2,0-2.3-0.3-3.2-0.9c1.1,1.8,3,3,5.3,3
		c3.4,0,6.2-2.8,6.2-6.2C318.7,86.9,317.5,85,315.8,83.9z"/>
	<circle class="st1" cx="311.5" cy="88.1" r="6.2"/>
	<path class="st0" d="M314.7,82.8c0.6,0.9,0.9,2,0.9,3.2c0,3.4-2.8,6.2-6.2,6.2c-1.2,0-2.3-0.3-3.2-0.9c1.1,1.8,3,3,5.3,3
		c3.4,0,6.2-2.8,6.2-6.2C317.7,85.9,316.5,83.9,314.7,82.8z"/>
</g>
<line class="st3" x1="22.3" y1="293.2" x2="336.4" y2="293.2"/>
<g>
	<circle class="st0" cx="78.8" cy="243.8" r="30.4"/>
	<g>
		<circle class="st1" cx="76.2" cy="241.3" r="30.4"/>
	</g>
	<g>
		<path class="st4" d="M72.5,232.4c1.7,2.2,2.6,5.3,2.6,9.3c0,2.8-0.4,5.2-1.2,7.2c-0.8,2-2,3.6-3.5,4.7c-1.5,1.1-3.3,1.6-5.4,1.6
			c-1.4,0-2.7-0.2-4.1-0.7c-1.4-0.5-2.6-1.2-3.5-2c-0.3-0.3-0.5-0.5-0.7-0.8c-0.1-0.3-0.2-0.6-0.2-0.9c0-0.5,0.1-1,0.5-1.4
			c0.3-0.4,0.7-0.6,1.1-0.6c0.2,0,0.5,0,0.7,0.1c0.2,0.1,0.5,0.2,0.8,0.4c2,1.4,3.8,2.1,5.3,2.1c1.8,0,3.1-0.8,4.1-2.4
			c1-1.6,1.5-3.9,1.6-6.8c-0.6,1.1-1.4,1.9-2.5,2.6c-1.1,0.6-2.3,1-3.7,1c-1.5,0-2.9-0.3-4-1c-1.2-0.7-2.1-1.6-2.8-2.9s-1-2.6-1-4.2
			c0-1.6,0.4-3.1,1.1-4.4c0.7-1.3,1.7-2.3,3-3c1.3-0.7,2.7-1.1,4.4-1.1C68.3,229.2,70.7,230.2,72.5,232.4z M68.6,240.8
			c0.8-0.9,1.2-2,1.2-3.3c0-1.4-0.4-2.5-1.2-3.4c-0.8-0.9-1.9-1.3-3.3-1.3c-1.3,0-2.4,0.4-3.2,1.3c-0.8,0.9-1.2,2-1.2,3.4
			s0.4,2.5,1.2,3.3c0.8,0.8,1.8,1.3,3.2,1.3C66.6,242.1,67.7,241.7,68.6,240.8z"/>
		<path class="st4" d="M95.9,253c0,1.3-0.7,1.9-2.2,1.9H80c-0.6,0-1.1-0.2-1.5-0.6s-0.5-0.8-0.5-1.4c0-0.7,0.3-1.4,0.8-1.9l8.2-8.8
			c1-1.1,1.7-2.1,2.2-3c0.5-0.9,0.7-1.8,0.7-2.8c0-1.1-0.3-2-1-2.6s-1.6-0.9-2.8-0.9c-1,0-1.9,0.2-2.9,0.6c-0.9,0.4-1.9,0.9-2.8,1.5
			c-0.2,0.2-0.5,0.3-0.7,0.4c-0.2,0.1-0.5,0.2-0.7,0.2c-0.4,0-0.8-0.2-1.1-0.6c-0.3-0.4-0.5-0.8-0.5-1.4c0-0.4,0.1-0.7,0.2-0.9
			c0.1-0.3,0.3-0.5,0.6-0.8c1.1-0.8,2.3-1.5,3.7-2c1.4-0.5,2.8-0.7,4.2-0.7c2.5,0,4.4,0.6,5.9,1.9s2.2,2.9,2.2,5
			c0,1.5-0.3,2.8-0.9,4.1s-1.7,2.7-3.2,4.3l-6.2,6.6h9.5C95.1,251.1,95.9,251.7,95.9,253z"/>
	</g>
</g>
<g>
	<circle class="st0" cx="194" cy="243.8" r="30.4"/>
	<g>
		<circle class="st5" cx="191.4" cy="241.3" r="30.4"/>
	</g>
	<g>
		<path class="st4" d="M191.8,246.8c0.4,0.3,0.5,0.8,0.5,1.3c0,1.2-0.7,1.8-2.2,1.8h-1.8v2.8c0,0.7-0.2,1.3-0.6,1.7
			c-0.4,0.4-1,0.6-1.6,0.6s-1.2-0.2-1.6-0.6c-0.4-0.4-0.6-1-0.6-1.7v-2.8h-9.4c-0.6,0-1.2-0.2-1.5-0.6c-0.4-0.4-0.5-0.8-0.5-1.4
			c0-0.6,0.2-1.1,0.6-1.7l11.1-16c0.2-0.3,0.5-0.6,0.9-0.8s0.7-0.3,1.1-0.3c0.6,0,1.2,0.2,1.6,0.6c0.5,0.4,0.7,1,0.7,1.7v14.7h1.8
			C190.9,246.3,191.5,246.5,191.8,246.8z M177.2,246.3h6.7v-9.7L177.2,246.3z"/>
		<path class="st4" d="M211.6,230c0.3,0.3,0.5,0.8,0.5,1.4s-0.2,1.1-0.5,1.7l-11.5,20.8c-0.5,0.8-1.1,1.2-2,1.2
			c-0.6,0-1.1-0.2-1.5-0.6c-0.4-0.4-0.7-0.9-0.7-1.5c0-0.4,0.1-0.8,0.4-1.2l10.3-18.6h-10.9c-1.4,0-2.2-0.6-2.2-1.8
			c0-1.3,0.7-1.9,2.2-1.9h14.4C210.8,229.5,211.2,229.7,211.6,230z"/>
	</g>
</g>
<g>
	<circle class="st0" cx="309.2" cy="243.8" r="30.4"/>
	<g>
		<circle class="st6" cx="306.6" cy="241.3" r="30.4"/>
	</g>
	<g>
		<path class="st4" d="M307,246.8c0.4,0.3,0.5,0.8,0.5,1.3c0,1.2-0.7,1.8-2.2,1.8h-1.8v2.8c0,0.7-0.2,1.3-0.6,1.7
			c-0.4,0.4-1,0.6-1.6,0.6s-1.2-0.2-1.6-0.6c-0.4-0.4-0.6-1-0.6-1.7v-2.8h-9.4c-0.6,0-1.2-0.2-1.5-0.6c-0.4-0.4-0.5-0.8-0.5-1.4
			c0-0.6,0.2-1.1,0.6-1.7l11.1-16c0.2-0.3,0.5-0.6,0.9-0.8c0.4-0.2,0.7-0.3,1.1-0.3c0.6,0,1.2,0.2,1.6,0.6c0.5,0.4,0.7,1,0.7,1.7
			v14.7h1.8C306.1,246.3,306.7,246.5,307,246.8z M292.3,246.3h6.7v-9.7L292.3,246.3z"/>
		<path class="st4" d="M323.5,239.7c1.2,0.7,2.2,1.6,2.8,2.9c0.7,1.2,1,2.6,1,4.2c0,1.7-0.4,3.1-1.1,4.4c-0.8,1.3-1.8,2.3-3.2,3
			c-1.4,0.7-3,1.1-4.8,1.1c-1.5,0-2.9-0.2-4.4-0.7c-1.4-0.5-2.6-1.2-3.7-2c-0.6-0.5-0.8-1-0.8-1.7c0-0.5,0.1-1,0.5-1.4
			c0.3-0.4,0.7-0.6,1.1-0.6c0.2,0,0.5,0,0.7,0.1c0.2,0.1,0.5,0.2,0.8,0.4c1,0.7,1.9,1.2,2.8,1.5c0.9,0.4,1.9,0.5,2.9,0.5
			c1.6,0,2.8-0.4,3.6-1.2c0.8-0.8,1.3-1.9,1.3-3.4c0-1.4-0.4-2.5-1.3-3.4c-0.9-0.8-2-1.2-3.5-1.2c-0.9,0-1.8,0.1-2.5,0.4
			c-0.7,0.3-1.5,0.7-2.2,1.3c-0.5,0.3-0.9,0.5-1.4,0.5c-0.5,0-0.9-0.1-1.2-0.4s-0.5-0.7-0.5-1.2v-11.2c0-0.7,0.2-1.2,0.6-1.6
			s0.9-0.6,1.6-0.6h12c1.4,0,2.2,0.6,2.2,1.8s-0.7,1.8-2.2,1.8h-9.6v6.8c1.2-0.9,2.7-1.3,4.5-1.3C320.9,238.6,322.3,239,323.5,239.7
			z"/>
	</g>
</g>
<g>
	<g class="st0">
		<path d="M123.3,246.5v-5.7h25.3v5.7H123.3z"/>
	</g>
	<g>
		<g>
			<path class="st4" d="M121.6,244.3v-5.7h25.3v5.7H121.6z"/>
		</g>
	</g>
</g>
<g>
	<polyline class="st0" points="265.5,242.2 240.2,242.2 240.2,236.3 265.5,236.3 	"/>
	<g>
		<polyline class="st0" points="265.5,251 240.2,251 240.2,245.2 265.5,245.2 		"/>
	</g>
</g>
<rect x="237.4" y="234.1" class="st4" width="25.3" height="5.8"/>
<rect x="237.4" y="243" class="st4" width="25.3" height="5.8"/>
<g>
	<circle class="st0" cx="78.8" cy="345.1" r="30.4"/>
	<g>
		<circle class="st1" cx="76.2" cy="342.6" r="30.4"/>
	</g>
	<g>
		<path class="st4" d="M72.5,333.7c1.7,2.2,2.6,5.3,2.6,9.3c0,2.8-0.4,5.2-1.2,7.2c-0.8,2-2,3.6-3.5,4.7c-1.5,1.1-3.3,1.6-5.4,1.6
			c-1.4,0-2.7-0.2-4.1-0.7c-1.4-0.5-2.6-1.2-3.5-2c-0.3-0.3-0.5-0.5-0.7-0.8c-0.1-0.3-0.2-0.6-0.2-0.9c0-0.5,0.1-1,0.5-1.4
			c0.3-0.4,0.7-0.6,1.1-0.6c0.2,0,0.5,0,0.7,0.1c0.2,0.1,0.5,0.2,0.8,0.4c2,1.4,3.8,2.1,5.3,2.1c1.8,0,3.1-0.8,4.1-2.4
			c1-1.6,1.5-3.9,1.6-6.8c-0.6,1.1-1.4,1.9-2.5,2.6c-1.1,0.6-2.3,1-3.7,1c-1.5,0-2.9-0.3-4-1c-1.2-0.7-2.1-1.6-2.8-2.9s-1-2.6-1-4.2
			c0-1.6,0.4-3.1,1.1-4.4c0.7-1.3,1.7-2.3,3-3c1.3-0.7,2.7-1.1,4.4-1.1C68.3,330.4,70.7,331.5,72.5,333.7z M68.6,342.1
			c0.8-0.9,1.2-2,1.2-3.3c0-1.4-0.4-2.5-1.2-3.4c-0.8-0.9-1.9-1.3-3.3-1.3c-1.3,0-2.4,0.4-3.2,1.3c-0.8,0.9-1.2,2-1.2,3.4
			s0.4,2.5,1.2,3.3c0.8,0.8,1.8,1.3,3.2,1.3C66.6,343.4,67.7,342.9,68.6,342.1z"/>
		<path class="st4" d="M95.9,354.2c0,1.3-0.7,1.9-2.2,1.9H80c-0.6,0-1.1-0.2-1.5-0.6s-0.5-0.8-0.5-1.4c0-0.7,0.3-1.4,0.8-1.9
			l8.2-8.8c1-1.1,1.7-2.1,2.2-3c0.5-0.9,0.7-1.8,0.7-2.8c0-1.1-0.3-2-1-2.6s-1.6-0.9-2.8-0.9c-1,0-1.9,0.2-2.9,0.6
			c-0.9,0.4-1.9,0.9-2.8,1.5c-0.2,0.2-0.5,0.3-0.7,0.4c-0.2,0.1-0.5,0.2-0.7,0.2c-0.4,0-0.8-0.2-1.1-0.6c-0.3-0.4-0.5-0.8-0.5-1.4
			c0-0.4,0.1-0.7,0.2-0.9c0.1-0.3,0.3-0.5,0.6-0.8c1.1-0.8,2.3-1.5,3.7-2c1.4-0.5,2.8-0.7,4.2-0.7c2.5,0,4.4,0.6,5.9,1.9
			s2.2,2.9,2.2,5c0,1.5-0.3,2.8-0.9,4.1s-1.7,2.7-3.2,4.3l-6.2,6.6h9.5C95.1,352.4,95.9,353,95.9,354.2z"/>
	</g>
</g>
<g>
	<circle class="st0" cx="194" cy="345.1" r="30.4"/>
	<g>
		<circle class="st5" cx="191.4" cy="342.6" r="30.4"/>
	</g>
	<g>
		<path class="st4" d="M191.8,348c0.4,0.3,0.5,0.8,0.5,1.3c0,1.2-0.7,1.8-2.2,1.8h-1.8v2.8c0,0.7-0.2,1.3-0.6,1.7
			c-0.4,0.4-1,0.6-1.6,0.6s-1.2-0.2-1.6-0.6c-0.4-0.4-0.6-1-0.6-1.7v-2.8h-9.4c-0.6,0-1.2-0.2-1.5-0.6c-0.4-0.4-0.5-0.8-0.5-1.4
			c0-0.6,0.2-1.1,0.6-1.7l11.1-16c0.2-0.3,0.5-0.6,0.9-0.8s0.7-0.3,1.1-0.3c0.6,0,1.2,0.2,1.6,0.6c0.5,0.4,0.7,1,0.7,1.7v14.7h1.8
			C190.9,347.6,191.5,347.7,191.8,348z M177.2,347.6h6.7v-9.7L177.2,347.6z"/>
		<path class="st4" d="M195.9,353.1c-1.6-2.2-2.4-5.5-2.4-9.7c0-4.2,0.8-7.4,2.4-9.7s3.9-3.3,6.9-3.3s5.3,1.1,6.9,3.3
			s2.4,5.4,2.4,9.7c0,4.2-0.8,7.5-2.4,9.7c-1.6,2.2-3.9,3.3-6.9,3.3S197.5,355.3,195.9,353.1z M206.4,350.6c0.7-1.5,1.1-3.9,1.1-7.1
			c0-3.3-0.4-5.7-1.1-7.1c-0.7-1.5-1.9-2.2-3.6-2.2s-2.8,0.7-3.6,2.2c-0.7,1.5-1.1,3.9-1.1,7.1c0,3.3,0.4,5.6,1.1,7.1
			c0.7,1.5,1.9,2.2,3.6,2.2S205.6,352.1,206.4,350.6z"/>
	</g>
</g>
<g>
	<circle class="st0" cx="309.2" cy="345.1" r="30.4"/>
	<g>
		<circle class="st6" cx="306.6" cy="342.6" r="30.4"/>
	</g>
	<g>
		<path class="st4" d="M302.8,340.9c1.2,0.7,2.2,1.6,2.8,2.9c0.7,1.2,1,2.6,1,4.2c0,1.7-0.4,3.1-1.1,4.4c-0.8,1.3-1.8,2.3-3.2,3
			c-1.4,0.7-3,1.1-4.8,1.1c-1.5,0-2.9-0.2-4.4-0.7c-1.4-0.5-2.6-1.2-3.7-2c-0.6-0.5-0.8-1-0.8-1.7c0-0.5,0.1-1,0.5-1.4
			c0.3-0.4,0.7-0.6,1.1-0.6c0.2,0,0.5,0,0.7,0.1c0.2,0.1,0.5,0.2,0.8,0.4c1,0.7,1.9,1.2,2.8,1.5s1.9,0.5,2.9,0.5
			c1.6,0,2.8-0.4,3.6-1.2s1.3-1.9,1.3-3.4c0-1.4-0.4-2.5-1.3-3.4c-0.9-0.8-2-1.2-3.5-1.2c-0.9,0-1.8,0.1-2.5,0.4
			c-0.7,0.3-1.5,0.7-2.2,1.3c-0.5,0.3-0.9,0.5-1.4,0.5c-0.5,0-0.9-0.1-1.2-0.4s-0.5-0.7-0.5-1.2v-11.2c0-0.7,0.2-1.2,0.6-1.6
			s0.9-0.6,1.6-0.6h12c1.4,0,2.2,0.6,2.2,1.8s-0.7,1.8-2.2,1.8h-9.6v6.8c1.2-0.9,2.7-1.3,4.5-1.3
			C300.2,339.9,301.6,340.2,302.8,340.9z"/>
		<path class="st4" d="M327.3,354.2c0,1.3-0.7,1.9-2.2,1.9h-13.7c-0.6,0-1.1-0.2-1.5-0.6c-0.4-0.4-0.5-0.8-0.5-1.4
			c0-0.7,0.3-1.4,0.8-1.9l8.2-8.8c1-1.1,1.7-2.1,2.2-3c0.5-0.9,0.7-1.8,0.7-2.8c0-1.1-0.3-2-1-2.6c-0.6-0.6-1.6-0.9-2.8-0.9
			c-1,0-1.9,0.2-2.9,0.6c-0.9,0.4-1.9,0.9-2.8,1.5c-0.2,0.2-0.5,0.3-0.7,0.4c-0.2,0.1-0.5,0.2-0.7,0.2c-0.4,0-0.8-0.2-1.1-0.6
			c-0.3-0.4-0.5-0.8-0.5-1.4c0-0.4,0.1-0.7,0.2-0.9c0.1-0.3,0.3-0.5,0.6-0.8c1.1-0.8,2.3-1.5,3.7-2s2.8-0.7,4.2-0.7
			c2.5,0,4.4,0.6,5.9,1.9s2.2,2.9,2.2,5c0,1.5-0.3,2.8-0.9,4.1c-0.6,1.3-1.7,2.7-3.2,4.3l-6.2,6.6h9.5
			C326.6,352.4,327.3,353,327.3,354.2z"/>
	</g>
</g>
<g>
	<polyline class="st0" points="265.5,343.4 240.2,343.4 240.2,337.6 265.5,337.6 	"/>
	<g>
		<polyline class="st0" points="265.5,352.3 240.2,352.3 240.2,346.4 265.5,346.4 		"/>
	</g>
</g>
<rect x="237.4" y="335.4" class="st4" width="25.3" height="5.8"/>
<rect x="237.4" y="344.2" class="st4" width="25.3" height="5.8"/>
<path class="st0" d="M78.8,476.8c16.8,0,30.4-13.6,30.4-30.4c0-16.8-13.6-30.4-30.4-30.4c-16.8,0-30.4,13.6-30.4,30.4
	C48.4,463.2,62,476.8,78.8,476.8"/>
<g>
	<path class="st1" d="M76.2,474.2c-16.8,0-30.4-13.6-30.4-30.4s13.6-30.4,30.4-30.4s30.4,13.6,30.4,30.4S93,474.2,76.2,474.2"/>
</g>
<g>
	<path class="st4" d="M71.4,442.2c1.2,0.7,2.2,1.6,2.8,2.9c0.7,1.2,1,2.6,1,4.2c0,1.7-0.4,3.1-1.1,4.4c-0.8,1.3-1.8,2.3-3.2,3
		c-1.4,0.7-3,1.1-4.8,1.1c-1.5,0-2.9-0.2-4.4-0.7c-1.4-0.5-2.6-1.2-3.7-2c-0.6-0.5-0.8-1-0.8-1.7c0-0.5,0.1-1,0.5-1.4
		c0.3-0.4,0.7-0.6,1.1-0.6c0.2,0,0.5,0,0.7,0.1c0.2,0.1,0.5,0.2,0.8,0.4c1,0.7,1.9,1.2,2.8,1.5c0.9,0.4,1.9,0.5,2.9,0.5
		c1.6,0,2.8-0.4,3.6-1.2c0.8-0.8,1.3-1.9,1.3-3.4c0-1.4-0.4-2.5-1.3-3.4c-0.9-0.8-2-1.2-3.5-1.2c-0.9,0-1.8,0.1-2.5,0.4
		c-0.7,0.3-1.5,0.7-2.2,1.3c-0.5,0.3-0.9,0.5-1.4,0.5c-0.5,0-0.9-0.1-1.2-0.4c-0.3-0.3-0.5-0.7-0.5-1.2v-11.2c0-0.7,0.2-1.2,0.6-1.6
		c0.4-0.4,0.9-0.6,1.6-0.6h12c1.4,0,2.2,0.6,2.2,1.8s-0.7,1.8-2.2,1.8h-9.6v6.8c1.2-0.9,2.7-1.3,4.5-1.3
		C68.8,441.2,70.2,441.5,71.4,442.2z"/>
	<path class="st4" d="M95.9,455.5c0,1.3-0.7,1.9-2.2,1.9H80c-0.6,0-1.1-0.2-1.5-0.6S78,456,78,455.5c0-0.7,0.3-1.4,0.8-1.9l8.2-8.8
		c1-1.1,1.7-2.1,2.2-3c0.5-0.9,0.7-1.8,0.7-2.8c0-1.1-0.3-2-1-2.6s-1.6-0.9-2.8-0.9c-1,0-1.9,0.2-2.9,0.6c-0.9,0.4-1.9,0.9-2.8,1.5
		c-0.2,0.2-0.5,0.3-0.7,0.4c-0.2,0.1-0.5,0.2-0.7,0.2c-0.4,0-0.8-0.2-1.1-0.6c-0.3-0.4-0.5-0.8-0.5-1.4c0-0.4,0.1-0.7,0.2-0.9
		c0.1-0.3,0.3-0.5,0.6-0.8c1.1-0.8,2.3-1.5,3.7-2c1.4-0.5,2.8-0.7,4.2-0.7c2.5,0,4.4,0.6,5.9,1.9s2.2,2.9,2.2,5
		c0,1.5-0.3,2.8-0.9,4.1s-1.7,2.7-3.2,4.3l-6.2,6.6h9.5C95.1,453.7,95.9,454.3,95.9,455.5z"/>
</g>
<path class="st0" d="M194,476.8c16.8,0,30.4-13.6,30.4-30.4c0-16.8-13.6-30.4-30.4-30.4c-16.8,0-30.4,13.6-30.4,30.4
	C163.6,463.2,177.2,476.8,194,476.8"/>
<g>
	<path class="st5" d="M191.4,474.2c-16.8,0-30.4-13.6-30.4-30.4s13.6-30.4,30.4-30.4s30.4,13.6,30.4,30.4S208.2,474.2,191.4,474.2"
		/>
</g>
<g>
	<path class="st4" d="M201.2,432.5c0.3,0.3,0.5,0.8,0.5,1.4s-0.2,1.1-0.5,1.7l-11.5,20.8c-0.5,0.8-1.1,1.2-2,1.2
		c-0.6,0-1.1-0.2-1.5-0.6c-0.4-0.4-0.7-0.9-0.7-1.5c0-0.4,0.1-0.8,0.4-1.2l10.3-18.6h-10.9c-1.4,0-2.2-0.6-2.2-1.8
		c0-1.3,0.7-1.9,2.2-1.9h14.4C200.4,432,200.9,432.2,201.2,432.5z"/>
</g>
<path class="st0" d="M309.2,476.8c16.8,0,30.4-13.6,30.4-30.4c0-16.8-13.6-30.4-30.4-30.4c-16.8,0-30.4,13.6-30.4,30.4
	C278.8,463.2,292.4,476.8,309.2,476.8"/>
<g>
	<path class="st6" d="M306.6,474.2c-16.8,0-30.4-13.6-30.4-30.4s13.6-30.4,30.4-30.4c16.8,0,30.4,13.6,30.4,30.4
		S323.4,474.2,306.6,474.2"/>
</g>
<g>
	<path class="st4" d="M307,449.3c0.4,0.3,0.5,0.8,0.5,1.3c0,1.2-0.7,1.8-2.2,1.8h-1.8v2.8c0,0.7-0.2,1.3-0.6,1.7
		c-0.4,0.4-1,0.6-1.6,0.6s-1.2-0.2-1.6-0.6c-0.4-0.4-0.6-1-0.6-1.7v-2.8h-9.4c-0.6,0-1.2-0.2-1.5-0.6c-0.4-0.4-0.5-0.8-0.5-1.4
		c0-0.6,0.2-1.1,0.6-1.7l11.1-16c0.2-0.3,0.5-0.6,0.9-0.8c0.4-0.2,0.7-0.3,1.1-0.3c0.6,0,1.2,0.2,1.6,0.6c0.5,0.4,0.7,1,0.7,1.7
		v14.7h1.8C306.1,448.8,306.7,449,307,449.3z M292.3,448.8h6.7v-9.7L292.3,448.8z"/>
	<path class="st4" d="M323.5,442.2c1.2,0.7,2.2,1.6,2.8,2.9c0.7,1.2,1,2.6,1,4.2c0,1.7-0.4,3.1-1.1,4.4c-0.8,1.3-1.8,2.3-3.2,3
		c-1.4,0.7-3,1.1-4.8,1.1c-1.5,0-2.9-0.2-4.4-0.7c-1.4-0.5-2.6-1.2-3.7-2c-0.6-0.5-0.8-1-0.8-1.7c0-0.5,0.1-1,0.5-1.4
		c0.3-0.4,0.7-0.6,1.1-0.6c0.2,0,0.5,0,0.7,0.1c0.2,0.1,0.5,0.2,0.8,0.4c1,0.7,1.9,1.2,2.8,1.5s1.9,0.5,2.9,0.5
		c1.6,0,2.8-0.4,3.6-1.2s1.3-1.9,1.3-3.4c0-1.4-0.4-2.5-1.3-3.4c-0.9-0.8-2-1.2-3.5-1.2c-0.9,0-1.8,0.1-2.5,0.4
		c-0.7,0.3-1.5,0.7-2.2,1.3c-0.5,0.3-0.9,0.5-1.4,0.5c-0.5,0-0.9-0.1-1.2-0.4s-0.5-0.7-0.5-1.2v-11.2c0-0.7,0.2-1.2,0.6-1.6
		s0.9-0.6,1.6-0.6h12c1.4,0,2.2,0.6,2.2,1.8s-0.7,1.8-2.2,1.8h-9.6v6.8c1.2-0.9,2.7-1.3,4.5-1.3
		C320.9,441.2,322.3,441.5,323.5,442.2z"/>
</g>
<g>
	<polyline class="st0" points="265.5,444.7 240.2,444.7 240.2,438.9 265.5,438.9 	"/>
	<g>
		<polyline class="st0" points="265.5,453.5 240.2,453.5 240.2,447.7 265.5,447.7 		"/>
	</g>
</g>
<rect x="237.4" y="436.7" class="st4" width="25.3" height="5.8"/>
<rect x="237.4" y="445.5" class="st4" width="25.3" height="5.8"/>
<g>
	<g class="st0">
		<path d="M123.3,347.4v-5.7h25.3v5.7H123.3z"/>
	</g>
	<g>
		<g>
			<path class="st4" d="M121.6,345.2v-5.7h25.3v5.7H121.6z"/>
		</g>
	</g>
</g>
<g>
	<g class="st0">
		<path d="M123.3,448.3v-5.7h25.3v5.7H123.3z"/>
	</g>
	<g>
		<g>
			<path class="st4" d="M121.6,446.1v-5.7h25.3v5.7H121.6z"/>
		</g>
	</g>
</g>
</svg>
