<?xml version="1.0" encoding="utf-8"?>
<!-- Generator: Adobe Illustrator 22.1.0, SVG Export Plug-In . SVG Version: 6.00 Build 0)  -->
<svg version="1.1" id="Layer_1" xmlns="http://www.w3.org/2000/svg" xmlns:xlink="http://www.w3.org/1999/xlink" x="0px" y="0px"
	 viewBox="0 0 400 400" style="enable-background:new 0 0 400 400;" xml:space="preserve">
<style type="text/css">
	.st0{fill:#FFFFFF;}
	.st1{fill:#3D2315;}
	.st2{fill:#A77251;}
	.st3{fill:#875133;}
	.st4{fill:#4F2E1D;}
	.st5{fill:#77472C;}
	.st6{fill:#5F3924;}
	.st7{fill:#7F553D;}
	.st8{fill:#402318;}
	.st9{fill:#212121;}
	.st10{fill:#FFA726;}
	.st11{fill:#FB8C00;}
	.st12{fill:#FFCA28;}
	.st13{fill:#424242;}
	.st14{fill:#757575;}
	.st15{fill:#616161;}
	.st16{fill:#4F4F4F;}
	.st17{fill:#D1C5A5;}
	.st18{fill:#4C4C4C;}
	.st19{fill:#ECE2C8;}
	.st20{fill:#00CDC8;}
	.st21{fill:#704835;}
	.st22{fill:#9E6B51;}
</style>
<g>
	<g>
		<path class="st0" d="M132.7,372.8c-23.5,0-42.6-19.1-42.6-42.6c0-1.5,0.1-3.1,0.2-4.6h-6.1c-1.5,0-2.9-0.7-3.9-1.8s-1.3-2.7-1-4.2
			c0.5-2.7,2-5.1,4.3-7v-1c-8.2-5.2-14.1-17.7-15.3-32.9c0,0-0.1,0-0.1,0c-2.7,0-5.2-0.8-6.8-1.5c-1.2-0.5-2-1-2.1-1.1
			c-2.1-1.3-3-4-2-6.2c0.2-0.5,1.8-3.9,4.9-6.5c-1.3-2.9-1.8-6.3-1.1-10.1c0.5-2.8,2.8-4.8,5.6-4.8c1.3,0,2.4,0.4,3.4,1.1
			c4.3-10.6,16.9-18.3,31.8-18.3c7.8,0,15.3,2.1,21.3,6c0.2,0.1,0.5,0.3,0.7,0.4l0.5,0.3c0.6,0.3,1.1,0.7,1.6,0.9
			c0.2,0.1,0.3,0.2,0.5,0.3l0.4,0.2c0.5,0.3,0.9,0.5,1.4,0.8c0.2,0.1,0.9,0.5,0.9,0.5l0.2,0.1c0.4,0.2,0.8,0.4,1.2,0.6
			c0.2,0.1,0.4,0.2,0.6,0.3l0.7,0.3c0.4,0.2,0.8,0.3,1.1,0.5c0.2,0.1,0.5,0.2,0.7,0.3l0.8,0.3c0.3,0.1,0.6,0.3,1,0.4
			c0.3,0.1,0.6,0.2,0.9,0.3l0.9,0.3c0.3,0.1,0.5,0.2,0.8,0.2c0.4,0.1,0.9,0.2,1.3,0.3l0.9,0.2c0.2,0,0.4,0.1,0.6,0.1
			c1,0.2,2,0.4,2.9,0.6c4.4,0.8,9.5,1.3,15.7,1.5c8,0,15.5,4.2,19.9,11c2.4,2.1,4.3,5,5.5,8.5c1.5,4.2,2,9.3,1.4,14.4
			c0,0.1,0,0.1,0.1,0.2c1.9,5.4,1.3,10.7-1.6,15.4c-0.7,1-1.6,1.7-2.7,2.1c-0.4,0.5-0.8,0.9-1.1,1.2c0.4,1.6,0.3,3.3-0.4,4.8
			l-6.3,16c-0.1,0.1-0.1,0.3-0.2,0.4c0.6,3,1,6,1,9C175.2,353.7,156.1,372.8,132.7,372.8z"/>
		<path class="st0" d="M102,236.4c7.1,0,13.6,2,18.6,5.2l0,0c0.4,0.3,0.9,0.5,1.3,0.8c0.6,0.3,1.1,0.7,1.7,1
			c0.3,0.2,0.6,0.4,0.9,0.5c0.5,0.3,1.1,0.6,1.6,0.9c0.3,0.2,0.7,0.3,1,0.5c0.5,0.3,1.1,0.5,1.6,0.8c0.4,0.2,0.7,0.3,1.1,0.5
			c0.5,0.2,1,0.5,1.5,0.7c0.4,0.2,0.8,0.3,1.2,0.5c0.5,0.2,1,0.4,1.5,0.6c0.5,0.2,1,0.3,1.4,0.5c0.5,0.1,0.9,0.3,1.4,0.4
			c0.6,0.2,1.2,0.3,1.8,0.5c0.4,0.1,0.8,0.2,1.2,0.3c1,0.2,2.1,0.5,3.2,0.7c4.7,0.9,10.1,1.4,16.5,1.6v0c6.9,0,12.9,3.7,16.1,9.3
			c2,1.5,3.6,3.9,4.6,6.8c1.4,3.9,1.8,8.7,1,13.8c0.2,0.2,0.4,0.5,0.5,0.8c1.4,4.1,0.9,7.8-1.1,11l-0.5-2.7c-0.5,3.5-3,5.3-3,5.3
			c0.5-6-3-7.1,0.9-14c0.2-0.4,0.6-0.7,0.9-0.9c0.4-2.3,0.5-4.5,0.4-6.5c-0.1-2.4-0.6-4.5-1.3-6.4c0.1,0.7,0.1,1.4,0.1,2.1
			c0,4.4-1.5,8.4-4.1,11.6c-4.9,7.9-2.2,13.2-0.8,15.3c0.4,0.5,0.8,0.9,1.3,1.2c1.3,0.8,1.8,2.5,1.3,3.9l-6.3,16
			c-0.2,0.4-0.5,0.8-0.9,1.1c0.9,3.2,1.4,6.6,1.4,10.1c0,20.7-16.8,37.6-37.6,37.6s-37.6-16.8-37.6-37.6c0-8.2,2.6-15.7,7-21.8
			c-1-0.4-2-0.9-2.9-1.6c-1.3,0.9-2.6,1.6-4,2v8.6c0,1.8-1.5,3.3-3.3,3.3h-7.6c0.4-2,1.9-4,4.4-5.4v-6.6c-8.9-3.2-15.6-18-15.6-35.7
			c0-0.2,0-0.3,0-0.5c-0.8,0.4-1.6,0.8-2.6,1.1c-0.8,0.2-1.5,0.3-2.3,0.3c-1.8,0-3.6-0.6-4.8-1.1c-0.9-0.4-1.5-0.8-1.5-0.8
			s2.1-4.8,6.2-6.1c0.8-0.2,1.6-0.4,2.3-0.5c-3.6-2.2-5.2-6-4.4-11.1c0.1-0.4,0.4-0.6,0.7-0.6c0.3,0,0.5,0.1,0.6,0.4
			c1.3,3.4,3.5,5.4,6.5,6.4c-0.2-0.9-0.3-1.9-0.3-2.8C73.7,245.9,86.4,236.4,102,236.4 M165.5,312l3.5-8.9c-9.7-1-14.7-8-16.9-12.3
			c-0.1,3.4,1.2,5.8,2.1,7c0.4,0.5,0.8,0.9,1.3,1.2c0.9,0.6,1.4,1.5,1.5,2.6C160.4,304.5,163.3,308,165.5,312 M102,226.4
			c-9.7,0-18.9,2.9-26,8.2c-3.5,2.6-6.3,5.6-8.3,9c-0.3,0-0.6,0-0.9,0c-5.3,0-9.7,3.8-10.6,9c-0.6,3.4-0.4,6.6,0.3,9.5
			c-2.2,2.6-3.4,5.1-3.8,5.9c-2,4.6-0.3,9.9,3.9,12.5c0.4,0.2,1.3,0.8,2.8,1.4c1.1,0.5,2.6,1,4.3,1.4c1.7,12.6,6.4,23.1,13.1,29.5
			c-1.2,1.8-2,3.8-2.5,5.9c-0.6,2.9,0.2,6,2.1,8.3c1.9,2.3,4.7,3.7,7.7,3.7h0.8c0.2,26,21.5,47.1,47.6,47.1
			c26.2,0,47.6-21.3,47.6-47.6c0-2.9-0.3-5.7-0.8-8.5l5.9-15c0.6-1.4,0.8-2.9,0.9-4.3c1.1-0.8,2.1-1.7,2.9-2.9
			c3.6-5.6,4.5-12.3,2.4-18.8c0.5-5.5-0.1-10.8-1.8-15.5c-1.4-4-3.6-7.5-6.4-10.1c-5.3-7.8-14.1-12.6-23.6-12.7
			c-5.9-0.2-10.8-0.7-14.9-1.4c-0.9-0.2-1.8-0.4-2.7-0.6c-0.1,0-0.3-0.1-0.4-0.1c-0.2-0.1-0.4-0.1-0.6-0.2l-0.4-0.1
			c-0.4-0.1-0.8-0.2-1.1-0.3c-0.2-0.1-0.4-0.1-0.6-0.2l-0.5-0.2l-0.5-0.1c-0.2-0.1-0.5-0.1-0.7-0.2c-0.3-0.1-0.5-0.2-0.8-0.3
			l-0.4-0.2l-0.5-0.2c-0.2-0.1-0.4-0.1-0.5-0.2c-0.3-0.1-0.6-0.3-1-0.4l-0.3-0.1l-0.4-0.2c-0.2-0.1-0.3-0.1-0.5-0.2
			c-0.4-0.2-0.7-0.4-1.1-0.6l-0.2-0.1l-0.4-0.2c-0.1-0.1-0.3-0.1-0.4-0.2c-0.4-0.2-0.9-0.5-1.3-0.7l-0.1,0L129,235
			c-0.1-0.1-0.3-0.2-0.4-0.2c-0.5-0.3-1-0.6-1.5-0.9l-0.5-0.3c-0.2-0.1-0.4-0.3-0.6-0.4C119.2,228.8,110.7,226.4,102,226.4
			L102,226.4z"/>
	</g>
	<g>
		<path class="st0" d="M132.7,213.3c-23.5,0-42.6-19.1-42.6-42.6c0-7.6,2-14.9,5.7-21.3c-1.8-0.5-3.2-1.8-3.9-3.6
			c-0.9-2.4-0.3-5,1.6-6.7l0.2-0.2V92.4c-1.6,1-3.3,1.8-4.9,2.5c-0.4,0.5-0.8,1-1.3,1.5c-1.8,22.5-2.3,26.2-7.7,32.8
			c-3.6,4.3-8.5,7.5-13.8,8.8c-1.8,0.5-3.8,0.8-6,0.8c-2,0-3.9-0.2-5.8-0.4c-0.6-0.1-1.2-0.1-1.7-0.2c-2.6-0.2-4.6-2.4-4.6-5
			c0-0.7,0.1-1.4,0.3-2c-0.2-0.6-0.3-1.3-0.3-2v-0.3c0-2.6,2-4.8,4.6-5c0.4,0,3.9-0.3,5-0.4c1.8-0.3,7.8-1.6,8.4-7.9
			c0.1-0.7,0.1-1.4,0-2.1l-0.5-6.3c-0.1-0.9-0.2-1.8-0.2-2.8l0-0.2c-2.4-0.4-4.7-1.1-6.9-2.1c-1.7-0.8-2.9-2.2-3.6-3.9
			c-0.6-1.7-0.5-3.6,0.2-5.3c0.6-1.3,1.7-2.4,2.9-3.1c-0.9-0.9-1.7-1.8-2.4-2.8c-1.1-1.5-1.6-3.3-1.3-5.1c0.3-1.8,1.2-3.5,2.7-4.6
			c1.2-0.9,2.7-1.4,4.2-1.4c0.6,0,1.2,0.1,1.8,0.2c-0.7-8.4,0.9-17.9,4.3-24.5c4.7-9,13.7-14.9,23.2-15.2l5.3-3
			c3.7-2.2,7.8-3.4,12.1-3.4c2.1,0,4.2,0.3,6.2,0.8c0,0,0.1,0,0.1,0c3.8,1.1,7,3.3,9.4,6.4c2,0.6,3.9,1.5,5.8,2.6h13.5
			c5.2-2.7,11.1-4.1,17-4.1c18,0,33.1,12.4,36.7,29.8c0.8,0.7,1.5,1.5,2.1,2.4c2.4,3.2,3.6,7,3.6,10.9v26.9c1.2,2,1.9,4.7,1.9,7.6
			c0,5.6-4.2,9.8-4.7,10.2c-1,0.9-2.2,1.4-3.4,1.4c-0.5,0-1.1-0.1-1.6-0.2v17.3c0,4.3-3.5,7.8-7.8,7.8h-9.9c-1.2,0-2.4-0.4-3.4-1
			c-1,0.6-2.1,0.9-3.3,1c3.6,6.4,5.6,13.6,5.6,21.1C175.2,194.2,156.1,213.3,132.7,213.3z M132.7,128.2c8.1,0,15.9,2.3,22.6,6.5
			v-24.3c-4.9-0.6-9.7-2.1-14.1-4.5h-8.7v22.4C132.5,128.2,132.6,128.2,132.7,128.2z"/>
		<path class="st0" d="M107.5,34.9c1.7,0,3.3,0.2,4.9,0.7c0,0,0.1,0,0.1,0c3.3,0.9,6,3.1,7.7,6c2.7,0.5,5.2,1.6,7.3,3.2h5h11.3
			c4.7-2.6,10-4.1,15.7-4.1c16.2,0,29.7,11.9,32.1,27.4c1,0.8,2,1.7,2.7,2.7c1.7,2.2,2.6,5,2.6,7.9v28.5c1.1,1,1.9,3.3,1.9,6
			c0,3.6-3.1,6.6-3.1,6.6s-3.1-2.9-3.1-6.6c0-2.7,0.8-5,1.9-6V78.8c0-0.3,0-0.5,0-0.8c-0.2-2.3-1.1-4.4-2.4-6c0,0.4,0,0.8,0,1.2
			c0,4.7-1,9.2-2.9,13.3v55.4c0,1.5-1.2,2.8-2.8,2.8h-1.9h-3.5h-1h-3.5h0c-1,0-1.5-1.3-0.8-2l1.8-1.7v-40.8
			c-1.7,1.1-3.5,2.1-5.4,2.9v38.8c0,1.5-1.2,2.8-2.8,2.8h-1.9h-3.5h-1h-3.1c6.5,6.8,10.5,15.9,10.5,26.1c0,20.7-16.8,37.6-37.6,37.6
			c-20.7,0-37.6-16.8-37.6-37.6c0-10.1,4-19.3,10.5-26.1h-3.5h-1h-3.5h0c-1,0-1.5-1.3-0.8-2l1.8-1.7V87c-0.5-1.1-0.9-2.3-1.3-3.6
			c-3.6,3.2-7.7,5.8-11.7,7.2c-0.9,1.2-1.9,2.4-3,3.4c-1.9,23.5-2.1,26.3-6.8,31.9c-3.1,3.8-7.2,6.1-11.3,7.1
			c-1.5,0.4-3.1,0.6-4.7,0.6c-2.3,0-4.7-0.3-7.1-0.5c0-0.5,0.2-0.9,0.5-1.3c0.3-0.3,0.7-0.6,1.2-0.7l0.5-0.1l-0.5-0.1
			c-0.9-0.2-1.6-1-1.6-1.9v-0.3c0,0,5.4-0.5,5.4-0.5c-0.1,0-0.1,0-0.1,0c6.7-0.9,12-5.3,12.7-12.4c0.1-1,0.1-2,0-3c0,0,0-0.1,0-0.1
			c-0.1-0.7-0.1-1.7-0.3-3c-0.1-0.9-0.2-2-0.3-3.1c-0.1-0.9-0.2-1.9-0.3-3c-0.1-1-0.2-2.1-0.3-3.1c0-0.4-0.1-0.8-0.1-1.3
			c-0.3,0-0.5,0-0.8,0c-2.9,0-5.9-0.6-8.7-1.9c-1-0.5-1.4-1.6-0.9-2.6c0.3-0.7,1-1.1,1.7-1.1c0.3,0,0.6,0.1,0.8,0.2
			c2.2,1,4.6,1.6,7,1.6c0.2,0,0.3,0,0.5,0c0-0.3-0.1-0.7-0.1-1c-0.1-1-0.2-2-0.3-3c0-0.2,0-0.4-0.1-0.7c-1-0.3-2-0.7-2.9-1.2
			c-2.6-1.4-4.9-3.3-6.8-5.8c-0.6-0.8-0.5-2.1,0.4-2.7c0.3-0.3,0.8-0.4,1.2-0.4c0.6,0,1.2,0.3,1.5,0.8c1.7,2.2,3.8,3.9,6.2,5
			c0-0.4-0.1-0.8-0.1-1.2c-0.1-1.1-0.2-2.2-0.3-3.1c-0.1-1.1-0.2-2.1-0.3-3c-0.1-1.3-0.2-2.3-0.3-3h0c-0.8-7.7,0.7-16.6,3.7-22.4
			c4.1-7.9,11.7-12.5,19.4-12.5c0.2,0,0.5,0,0.7,0l6.5-3.7C100.9,35.7,104.2,34.9,107.5,34.9 M110.3,140.5c1.7-1.3,3.5-2.4,5.4-3.3
			v-36.8c-1.9-0.3-3.7-0.9-5.4-1.7V140.5 M127.4,133.6c1.7-0.2,3.4-0.4,5.2-0.4c9.8,0,18.8,3.8,25.5,10c0.1-0.2,0.1-0.3,0.3-0.5
			l1.8-1.7v-35.5c-0.3,0-0.5,0-0.8,0c-6.2,0-12-1.7-16.9-4.8h-15.1V133.6 M107.5,24.9C107.5,24.9,107.5,24.9,107.5,24.9
			c-5.2,0-10.2,1.4-14.6,4.1l-4.2,2.4C77.8,32.1,67.7,39,62.4,49.2c-3.1,6.1-4.9,14.2-5,22c-1.4,0.4-2.7,1.1-3.8,1.9
			c-2.5,1.9-4.2,4.7-4.6,7.9c-0.4,3,0.3,5.9,2,8.3c-0.3,0.4-0.5,0.8-0.7,1.3c-1.4,2.9-1.5,6.1-0.4,9.1c1.1,3,3.3,5.4,6.2,6.7
			c1.4,0.7,2.9,1.2,4.4,1.7l0.1,1l0.1,1.6c0.1,1.3,0.2,2.4,0.3,3c0,0,0,0.1,0,0.1l0,0c0,0.4,0,0.8,0,1.1c-0.2,1.9-1.5,3-4,3.4
			c-1.2,0.1-4.3,0.4-4.8,0.4c-5.2,0.4-9.2,4.7-9.2,10v0.3c0,0.7,0.1,1.4,0.2,2c-0.1,0.7-0.2,1.3-0.2,2c0,5.2,4,9.5,9.1,10
			c0.6,0,1.1,0.1,1.7,0.2c1.9,0.2,4.1,0.4,6.3,0.4c2.7,0,5.1-0.3,7.3-0.9c6.4-1.6,12.2-5.3,16.4-10.4c2.3-2.8,3.9-5.3,5-8.3v13
			c-2.2,3-2.8,7-1.4,10.6c0.5,1.3,1.2,2.5,2.1,3.4c-2.8,6.1-4.3,12.8-4.3,19.7c0,26.2,21.3,47.6,47.6,47.6
			c26.2,0,47.6-21.3,47.6-47.6c0-5.6-1-11-2.8-16.1h2.4h1h3.5h1.9c7,0,12.8-5.7,12.8-12.8v-12.6c1.2-0.4,2.4-1.1,3.4-2.1
			c1.1-1,6.3-6.3,6.3-13.9c0-3.3-0.7-6.3-1.9-8.8V78.8c0-5.1-1.6-9.9-4.7-13.9c-0.5-0.6-1-1.3-1.6-1.9c-2.1-8.5-6.8-16.2-13.5-21.9
			c-7.7-6.7-17.6-10.3-27.8-10.3c-6.3,0-12.5,1.4-18.1,4.1h-8.9h-2.1c-1.3-0.7-2.7-1.4-4.2-1.9c-2.9-3.3-6.7-5.8-11-7l-0.1,0
			C112.6,25.2,110,24.9,107.5,24.9L107.5,24.9z M137.4,110.8h2.4c3.3,1.7,6.8,3,10.4,3.8v12c-4.1-1.6-8.4-2.7-12.8-3.1V110.8
			L137.4,110.8z"/>
	</g>
	<g>
		<path class="st0" d="M309.7,213.3c-23.5,0-42.6-19.1-42.6-42.6c0-12,5-23.3,13.8-31.4v-19.5c-1.3-1.5-2.4-3.2-3.1-5.1
			c-8.4-19.9-3.2-38,1.1-52.5c1.5-5,2.8-9.7,3.5-13.8c-0.1,0-0.2,0-0.3,0l-1.5,0.8c-1,0.5-2.2,0.8-3.3,0.8c-0.6,0-1.3-0.1-1.9-0.2
			c-0.1,0-0.1,0-0.2,0c-0.9,0-1.7-0.2-2.5-0.5c-3.8-1.5-5.6-6.1-3.9-10.2c0.7-1.7,1.9-3.2,3.3-4.1c-1.2-1.4-1.9-2.6-2.1-3
			c-0.7-1.3-0.8-2.9-0.3-4.3s1.8-2.5,3.3-2.9c0.2-0.1,1.6-0.4,3.5-0.6c0.1-1.1,0.4-2.2,1-3.2c1-1.6,2.5-2.8,4.4-3.2
			c0.6-0.1,1.1-0.2,1.7-0.2c0.9,0,1.8,0.2,2.6,0.5c0.9-0.4,1.8-0.6,2.8-0.6c0.4,0,0.8,0,1.1,0.1c3.4,0.5,5.8,3.4,6,6.7
			c2,0.1,3.6,0.6,3.9,0.7c1.5,0.4,2.7,1.5,3.3,2.9c0.6,1.4,0.5,3-0.3,4.3c-0.3,0.5-1.2,2-2.6,3.6c0.3,0.7,0.5,1.5,0.7,2.3
			c0,0,0,0.1,0,0.1c0.1,0.6,0.3,1.1,0.4,1.7c0,0,0,0.2,0,0.2c0.1,0.5,0.2,1.1,0.3,1.6c0,0,0,0.1,0,0.1c0.1,0.6,0.1,1.1,0.2,1.7
			c0,0,0,0.1,0,0.1c0.4,3.9,0.2,8.4-0.6,14c0,0,0,0,0,0c-0.4,3-0.9,6-1.4,9l-0.4,2.2c-0.3,1.8-0.7,4.1-1,6.4
			c-0.7,5.3-1,9.5-0.8,13.3c0.1,2.3,1.8,4.2,4.1,4.4l21.3,2.2c0.5,0,1,0.1,1.5,0.2c0.2,0,0.4,0.1,0.6,0.1l0.1,0
			c0.3,0.1,0.5,0.1,0.7,0.2c0.3,0.1,0.6,0.2,0.9,0.2l0.4,0.1c1.5,0.5,2.9,1.1,4.2,1.8c0.9,0.1,1.8,0.3,2.7,0.6c3,1,5.7,2.9,7.6,5.4
			c2,2.7,3.1,5.9,3.1,9.3v9.9c1,1.7,1.5,3.9,1.5,6.3c0,4.8-3.4,8.2-4.1,8.8c-0.7,0.6-1.5,1-2.3,1.2v1.5c7.8,7.9,12.3,18.7,12.3,29.9
			C352.2,194.2,333.1,213.3,309.7,213.3z M309.7,128.2c1,0,2.1,0,3.1,0.1v-0.4l-4.4-0.4v0.7C308.8,128.2,309.2,128.2,309.7,128.2z"
			/>
		<path class="st0" d="M288.9,22.2c0.1,0,0.2,0,0.3,0c1.2,0.2,1.9,1.3,1.8,2.4c-0.1,0.8-0.7,1.4-1.3,1.6l-0.5,2.9
			c0,0.1,0,0.1-0.1,0.1c0.5,0.2,1,0.5,1.4,0.8c0.4-0.3,0.9-0.6,1.5-0.8c0.8-0.3,1.8-0.5,2.7-0.5c1.9,0,3.7,0.5,3.7,0.5
			s-2,3.5-4.5,4.6c0,0,0,0,0,0c0.8,1.2,1.2,2.2,1.2,2.2c0.4,0.9,0.7,1.9,1,2.9h0c0,0,0,0,0,0c0.1,0.5,0.2,1,0.4,1.5c0,0,0,0.1,0,0.1
			c0.1,0.5,0.2,1,0.2,1.4c0,0,0,0.1,0,0.1c0.1,0.5,0.1,1,0.2,1.5c0,0,0,0,0,0.1c0.4,4,0,8.4-0.6,12.9c0,0,0,0,0,0
			c-0.5,3.6-1.2,7.3-1.8,11.1c-0.4,2.2-0.7,4.4-1,6.6c-0.7,4.7-1.1,9.5-0.9,14.2c0.2,4.8,3.9,8.7,8.6,9.2c1.3,0.1,2.7,0.3,4.1,0.4
			c1.8,0.2,3.7,0.4,5.5,0.6l0,0c3.8,0.4,7.4,0.7,10.4,1c0.5,0,0.9,0.1,1.4,0.1c0.4,0,0.7,0.1,1.1,0.2c0.2,0,0.4,0.1,0.5,0.1
			c0.2,0,0.3,0.1,0.5,0.1c0.2,0.1,0.5,0.1,0.7,0.2c0.1,0,0.2,0.1,0.3,0.1c1.5,0.5,2.8,1.1,4,2c1,0,1.9,0.2,2.8,0.5
			c2.1,0.7,3.9,2,5.2,3.7c1.3,1.8,2.1,3.9,2.1,6.3v11.5c0.9,0.8,1.5,2.6,1.5,4.7c0,2.9-2.5,5.2-2.5,5.2s-2.5-2.3-2.5-5.2
			c0-2.1,0.6-3.9,1.5-4.7V113c0-0.2,0-0.4,0-0.6c-0.2-2.2-1.1-4.1-2.6-5.5c-0.8-0.7-1.7-1.3-2.7-1.7c1.1,1.5,1.9,3.2,2.2,5.1
			c0,0.2,0.1,0.3,0.1,0.5c0,0.1,0,0.3,0,0.4c0,0.3,0.1,0.7,0.1,1l0,15.6l0,0.4l0,5.9c0,0.2,0,0.3,0,0.4l0,8.4
			c7.6,6.9,12.3,16.8,12.3,27.8c0,20.7-16.8,37.6-37.6,37.6c-20.7,0-37.6-16.8-37.6-37.6c0-11.7,5.4-22.2,13.8-29.1v-23.9
			c-1.5-1.3-2.7-2.9-3.4-4.8c-10.7-25.1,2.4-47.2,4.8-63.8l0,0c0.1-0.5,0.1-0.9,0.2-1.4l0,0c0.2-2,0.3-3.9,0.1-5.8
			c-0.4,0.4-0.9,0.7-1.4,0.9c-0.9,0.4-1.7,0.6-2.6,0.6c-0.7,0-1.4-0.2-2-0.4l-3.2,1.6c-0.3,0.2-0.7,0.3-1.1,0.3
			c-0.5,0-0.9-0.1-1.3-0.4c-0.2,0.1-0.5,0.1-0.7,0.1c-0.2,0-0.5,0-0.7-0.1c-1.2-0.5-1.7-2.2-1.1-3.8c0.4-1.1,1.2-1.8,2.1-2
			c1-1.4,2.2-3.1,3.6-4.7c-0.1,0-0.2-0.1-0.2-0.1c-2.5-1.1-4.5-4.6-4.5-4.6s1.8-0.5,3.7-0.5c0.9,0,1.9,0.1,2.7,0.5
			c0.8,0.3,1.5,0.7,1.9,1.2c0.4-0.3,0.7-0.5,1.1-0.8l-0.8-3.3c-0.7-0.2-1.3-0.8-1.5-1.5c-0.3-1.1,0.4-2.3,1.5-2.6
			c0.2,0,0.3-0.1,0.5-0.1c0.9,0,1.8,0.6,2.1,1.6c0.2,0.8-0.1,1.5-0.6,2l0.8,3c0.3-0.1,0.6-0.1,0.9-0.1c0.2,0,0.3,0,0.5,0l0.5-2.9
			c-0.6-0.5-0.9-1.2-0.8-2C287,23,287.9,22.2,288.9,22.2 M292.7,137.3c1.3-0.7,2.6-1.3,4-1.8v-14.2c-1-0.1-1.9-0.2-2.7-0.3
			c-0.5,0-0.9-0.1-1.3-0.2V137.3 M303.4,133.7c2-0.3,4.1-0.5,6.2-0.5c2.8,0,5.5,0.3,8.1,0.9v-10.7c-1.6-0.2-3.4-0.3-5.1-0.5
			c-0.2,0-0.4,0-0.5-0.1c-2.9-0.3-5.9-0.6-8.7-0.9V133.7 M328.2,138.1v-13.6c0,0-1.4-0.1-3.7-0.4v12.1
			C325.8,136.8,327,137.4,328.2,138.1 M288.9,12.2c-1,0-1.9,0.1-2.9,0.3c-0.8-0.2-1.7-0.3-2.5-0.3c-1,0-2,0.1-2.9,0.4
			c-3.1,0.8-5.8,2.7-7.5,5.5c-0.3,0.5-0.5,0.9-0.7,1.4c-0.4,0.1-0.6,0.2-0.8,0.2c-2.9,0.8-5.3,3-6.5,5.8c-1.2,2.8-1,6,0.5,8.7
			c0,0,0,0,0,0c-0.6,0.9-1.1,1.8-1.5,2.8c-2.6,6.7,0.4,14.2,6.7,16.7c1.3,0.5,2.6,0.8,4,0.8c0.4,0.1,0.7,0.1,1.1,0.2
			c-0.5,1.9-1.1,3.9-1.7,6c-4.2,14.4-10,34.2-0.9,55.8c0.7,1.8,1.6,3.4,2.7,4.9v15.6c-8.8,8.9-13.8,20.8-13.8,33.5
			c0,26.2,21.3,47.6,47.6,47.6c26.2,0,47.6-21.3,47.6-47.6c0-11-3.8-21.6-10.6-30c1.7-1.9,4.7-6,4.7-11.5c0-2.7-0.5-5.2-1.5-7.4V113
			c0-4.5-1.4-8.7-4.1-12.3c-2.6-3.4-6-5.9-10.1-7.2c-0.8-0.3-1.7-0.5-2.6-0.7c-1.4-0.7-2.8-1.4-4.4-1.8c-0.1,0-0.2-0.1-0.4-0.1
			c-0.4-0.1-0.8-0.2-1.2-0.3c-0.2-0.1-0.5-0.1-0.7-0.2l-0.1,0l-0.1,0c-0.3-0.1-0.5-0.1-0.8-0.2c-0.6-0.1-1.2-0.2-1.8-0.3l-1.3-0.1
			c-3-0.3-6.6-0.7-10.3-1l-5.5-0.6l-3.8-0.4c-0.1-3.4,0.1-7.3,0.8-12.1c0.3-2.2,0.7-4.5,1-6.3l0.4-2.3c0.5-3,1-6.1,1.5-9.1
			c0,0,0,0,0,0c0.8-6,1-10.8,0.6-15.1l0-0.1c-0.1-0.7-0.1-1.3-0.2-2l0-0.2c-0.1-0.6-0.2-1.3-0.3-1.9c0-0.1,0-0.2,0-0.2
			c-0.1-0.7-0.3-1.4-0.5-2c0,0,0,0,0,0c0.7-1,1.2-1.8,1.4-2.2c1.5-2.7,1.7-5.9,0.5-8.7c-1.2-2.8-3.6-5-6.5-5.8
			c-0.2-0.1-0.7-0.2-1.2-0.3c-0.3-0.8-0.8-1.5-1.3-2.2c-1.9-2.6-4.7-4.4-7.9-4.9C290.2,12.3,289.6,12.2,288.9,12.2L288.9,12.2z"/>
	</g>
	<g>
		<path class="st0" d="M309.7,372.8c-23.5,0-42.6-19.1-42.6-42.6c0-11,4.3-21.7,12-29.6v-9.9c-3-2.3-5.4-5.2-7.2-8.5
			c-0.6-1.1-1.1-2.2-1.6-3.3c-0.1,0.1-0.3,0.1-0.4,0.2c-0.4,0.3-0.7,0.5-0.8,0.6c-0.8,0.6-1.8,0.9-2.8,0.9c-1,0-2-0.3-2.8-0.9
			c-0.1-0.1-0.4-0.3-0.8-0.6c-0.7-0.2-1.3-0.6-1.9-1.2c-0.3-0.3-1.5-1.6-2.4-3.5c-1.2,0.5-2.5,0.8-3.9,0.8c-3.2,0-6.2-1.6-8.1-4.3
			l-1.4-2c-3-4.4-1.9-10.5,2.6-13.5l5.9-4c-2.9-2.4-4.7-5.9-4.7-9.9v-8.5c0-4.1,3.3-7.4,7.4-7.4c2.2,0,4.1,0.9,5.4,2.4
			c1.3-1.5,3.3-2.4,5.4-2.4h1.2c2.1,0,4.1,0.9,5.4,2.4c1.3-1.5,3.3-2.4,5.4-2.4h1.2c2.2,0,4.1,0.9,5.4,2.4c1.3-1.5,3.3-2.4,5.4-2.4
			h5.8c4.1,0,7.4,3.3,7.4,7.4v3.8c0,4.7-1.9,9-4.9,12.2c3.9,0.2,7.7,1.4,11,3.5l1.5,0.9c1.9,1.2,4.2,1.9,6.5,1.9
			c0.6,0,1.3,0,1.9-0.1c1.7-0.3,3.4-0.4,5-0.4c8.9,0,14,4,16.9,8c3.7,1.3,6.4,4.8,7,9c0.4,2.8-0.3,5.6-1.8,7.9
			c-0.1,0.1-0.2,0.3-0.3,0.4c0,0.3,0,0.6,0,0.8l0,29.2c3.3,6.2,5.1,13.1,5.1,20.1C352.2,353.7,333.1,372.8,309.7,372.8z"/>
		<path class="st0" d="M297,230.6c1.3,0,2.4,1.1,2.4,2.4v3.8c0,6.9-5.7,12.6-12.6,12.6h-11.3l-1,0.8c0.6,0.4,1.1,0.8,1.5,1.3
			c0.7-0.2,1.5-0.3,2.3-0.3c1.2,0,2.4,0.2,3.8,0.6c1.7,0.5,3.1,1.7,4,2.9c1,0.1,2,0.1,3,0.1c2.1,0,4.2-0.2,6.2-0.6
			c1-0.2,2.1-0.3,3.1-0.3c3.2,0,6.5,1,9.2,2.7l1.5,0.9c2.8,1.8,6,2.7,9.2,2.7c0.9,0,1.8-0.1,2.6-0.2c1.5-0.2,2.9-0.3,4.3-0.3
			c6.6,0,11.1,2.7,13.8,7.4c0.1,0,0.3,0,0.4,0c2.4,0.3,4.4,2.5,4.7,5.2c0.2,1.7-0.2,3.2-1,4.4c-0.3,0.5-0.8,0.9-1.3,1.3
			c0.1,0.9,0.1,1.8,0.1,2.8v22.6c0,0,0,0,0,0v7.9c3.2,5.5,5.1,12,5.1,18.8c0,20.7-16.8,37.6-37.6,37.6c-20.7,0-37.6-16.8-37.6-37.6
			c0-10.9,4.6-20.7,12-27.5v-0.2c0,0,0,0,0,0V288c-3.2-2-5.9-4.8-7.8-8.3c-2.2-4-3.5-8.5-4.1-13.6c-0.6,0.8-1.4,1.5-2.3,2
			c0.1,0.6,0.2,1.2,0.2,2c0,2.3-1.9,4.2-1.9,4.2s-0.1-0.1-0.3-0.3c-0.8,0.9-1.6,1.5-1.6,1.5s-0.9-0.6-1.6-1.5
			c-0.2,0.2-0.3,0.3-0.3,0.3s-1.9-1.9-1.9-4.2c0-0.5,0-0.9,0.1-1.3c-1-0.3-1.8-0.8-2.6-1.3l-2.8,1.9c-0.8,0.6-1.7,0.8-2.7,0.8
			c-1.5,0-3-0.7-3.9-2.1l-1.4-2c-1.5-2.2-0.9-5.1,1.3-6.6l13.8-9.4c0.6-0.4,1.3-0.7,2-0.8c0.1,0,0.1,0,0.2-0.1h-4.8
			c-4.3,0-7.9-3.5-7.9-7.9v-8.5c0-1.3,1.1-2.4,2.4-2.4c1.3,0,2.4,1.1,2.4,2.4v7.6c0,1.3,1.1,2.4,2.4,2.4h1.4c1.3,0,2.4-1.1,2.4-2.4
			v-7.6c0-1.3,1.1-2.4,2.4-2.4h1.2c1.3,0,2.4,1.1,2.4,2.4v7.6c0,1.3,1.1,2.4,2.4,2.4h1.4c1.3,0,2.4-1.1,2.4-2.4v-7.6
			c0-1.3,1.1-2.4,2.4-2.4h1.2c1.3,0,2.4,1.1,2.4,2.4v7.6c0,1.3,1.1,2.4,2.4,2.4h1.4c1.3,0,2.4-1.1,2.4-2.4v-7.6
			c0-1.3,1.1-2.4,2.4-2.4H297 M337.2,304.7v-0.6c0,0,0,0,0,0v-3.6c-1.8-0.9-3.1-2.7-3.1-4.9v-7.1l-2.9,0.4v10.6
			C333.5,301,335.4,302.8,337.2,304.7 M309.6,292.6C309.6,292.6,309.6,292.6,309.6,292.6c4.9,0,9.5,0.9,13.7,2.6v-5.3l0,0
			C323.3,289.9,316.9,292.1,309.6,292.6 M289,298.8c1.9-1.3,3.9-2.3,6.1-3.2v-4.1c-2.1-0.1-4.1-0.5-6.1-1.1V298.8 M300,293.9
			c2.2-0.6,4.6-1,7-1.2c-0.1,0-0.2,0-0.4,0c-2.2,0-4.5-0.2-6.6-0.7V293.9 M297,220.6h-5.8c-1.9,0-3.8,0.5-5.4,1.3
			c-1.6-0.8-3.5-1.3-5.4-1.3h-1.2c-1.9,0-3.8,0.5-5.4,1.3c-1.6-0.8-3.5-1.3-5.4-1.3h-1.2c-1.9,0-3.8,0.5-5.4,1.3
			c-1.6-0.8-3.5-1.3-5.4-1.3c-6.8,0-12.4,5.5-12.4,12.4v8.5c0,3.2,0.9,6.3,2.4,8.9l-1.4,0.9c-3.2,2.2-5.4,5.6-6.2,9.4
			c-0.7,3.9,0.1,7.8,2.3,11l1.4,2c2.7,4,7.3,6.4,12.2,6.4c0.5,0,1,0,1.6-0.1c0.5,0.6,0.9,1.1,1.2,1.3c0.9,0.9,1.8,1.5,2.9,2
			c0.2,0.2,0.4,0.3,0.5,0.4c1.7,1.2,3.7,1.7,5.6,1.7c0.6,0,1.1,0,1.7-0.1c1.7,2.8,3.7,5.4,6.2,7.6v5.7c-7.7,8.7-12,19.9-12,31.6
			c0,26.2,21.3,47.6,47.6,47.6c26.2,0,47.6-21.3,47.6-47.6c0-7.4-1.7-14.8-5.1-21.4v-5.4l0-22c1.8-3.1,2.6-6.8,2.1-10.5
			c-0.7-5.5-4.1-10.1-8.7-12.4c-4.7-5.8-11.7-8.9-20.1-8.9c-1.8,0-3.8,0.1-5.8,0.4c-0.4,0.1-0.8,0.1-1.2,0.1c-1.4,0-2.7-0.4-3.9-1.1
			l-1.5-0.9c-1.8-1.1-3.6-2-5.6-2.7c1.1-2.7,1.8-5.6,1.8-8.7v-3.8C309.4,226.1,303.8,220.6,297,220.6L297,220.6z"/>
	</g>
</g>
<g>
	<g>
		<path class="st1" d="M180.2,281.7c-0.8-0.1-1.7,0.3-2.1,1c-3.8,6.9-0.4,8-0.9,14c0,0,2.5-1.9,3-5.3l0.5,2.7c2-3.2,2.6-6.9,1.1-11
			C181.6,282.3,181,281.8,180.2,281.7z"/>
		<g>
			<path class="st2" d="M181.1,283.4c-0.1,0.5-0.6,0.9-1.1,0.9c-0.1,0-0.1,0-0.2,0c-0.6-0.1-1-0.7-0.9-1.3c0.5-2.6,0.7-5.2,0.5-7.6
				c-0.4-7-3.4-12.4-8-13.3c-0.6-0.1-1-0.7-0.9-1.3c0.1-0.6,0.7-1,1.3-0.9c3.8,0.8,6.8,4,8.4,8.6
				C181.8,272.6,182.2,277.8,181.1,283.4z"/>
		</g>
		<path class="st3" d="M180.4,269.5c0,2-0.3,4-0.9,5.8c-0.4-7-3.4-12.4-8-13.3c-0.6-0.1-1-0.7-0.9-1.3c0.1-0.6,0.7-1,1.3-0.9
			c3.8,0.8,6.8,4,8.4,8.6C180.4,268.7,180.4,269.1,180.4,269.5z"/>
		<path class="st4" d="M91.9,320.6h-7.6c0.5-2.6,2.8-5.2,6.8-6.5L91.9,320.6z"/>
		<path class="st3" d="M91.9,320.6c-1.8,0-3.3-1.5-3.3-3.3v-17c0-1.8,1.5-3.3,3.3-3.3c1.8,0,3.3,1.5,3.3,3.3v17
			C95.2,319.2,93.7,320.6,91.9,320.6z"/>
		<path class="st4" d="M147.5,320.6h-7.6c0.5-2.6,2.8-5.2,6.8-6.5L147.5,320.6z"/>
		<path class="st3" d="M156.8,303l-6.3,16c-0.4,0.9-1.5,1.7-2.5,1.7h-1.7c-1.7,0-2.8-1.7-2.2-3.3l5.6-14.3c-6.5-0.7-10.9-4-13.8-7.5
			c-3.3-4.1-4.5-8.2-4.5-8.2c-4-16.4,17.9-20.2,23.8-5.3c-2.1,3.2-3,6.1-3.1,8.4c-0.2,3.6,1.2,6.1,2.1,7.3c0.4,0.5,0.8,0.9,1.3,1.2
			C156.8,299.9,157.4,301.5,156.8,303z"/>
		<path class="st4" d="M106.5,320.6h-7.6c0.5-2.6,2.8-5.2,6.8-6.5L106.5,320.6z"/>
		<path class="st3" d="M106.5,320.6c-1.8,0-3.3-1.5-3.3-3.3v-17c0-1.8,1.5-3.3,3.3-3.3c1.8,0,3.3,1.5,3.3,3.3v17
			C109.7,319.2,108.3,320.6,106.5,320.6z"/>
		<path class="st4" d="M166.8,320.6h-7.6c0.5-2.6,2.8-5.2,6.8-6.5L166.8,320.6z"/>
		<circle class="st2" cx="159.6" cy="271" r="18.7"/>
		<path class="st5" d="M155.3,282.1c-2.1,3.2-3,6.1-3.1,8.4c-5.5,3.2-10.5,4.9-16.2,5.1c-3.3-4.1-4.5-8.2-4.5-8.2
			C127.5,271,149.4,267.2,155.3,282.1z"/>
		<path class="st2" d="M159.6,252.3l-3.4,31.2c-15.3,11.3-23.3,15-40,10.5l4.3-50.7l0.1-1.6c7.1,4.5,13.6,7.4,22.5,9
			C147.8,251.5,153.1,252.1,159.6,252.3z"/>
		<path class="st1" d="M73.3,268.3c-0.1,1.5-0.2,3-0.2,4.5c0,20.1,8.6,36.4,19.2,36.4s19.2-16.3,19.2-36.4c0-1.5-0.1-3-0.2-4.5H73.3
			z"/>
		<ellipse class="st4" cx="106.5" cy="273.7" rx="20.1" ry="35.5"/>
		<path class="st6" d="M143.1,250.7c-8.6-1.6-15-4.4-21.9-8.7c-5-3.5-11.8-5.6-19.2-5.6c-15.6,0-28.3,9.4-28.3,21.1
			c0,11.7,12.7,21.1,28.3,21.1s28.3-9.4,28.3-21.1C130.3,252,136.8,250.7,143.1,250.7z"/>
		<path class="st2" d="M173.5,297.9c-1.5-2-4.3-7.6,1.1-15.7c-5.9-14.9-27.8-11.1-23.8,5.3c0,0,4.1,14.3,18.3,15.7l-5.6,14.3
			c-0.6,1.6,0.5,3.3,2.2,3.3h1.7c1,0,2.1-0.8,2.5-1.7l6.3-16c0.6-1.5,0-3.1-1.3-3.9C174.3,298.7,173.8,298.3,173.5,297.9z"/>
		<g>
			<path class="st4" d="M76.2,269.7c-1,1.5-3,2.9-5.6,3.7c-2.6,0.8-5.4,0-7-0.8c-0.9-0.4-1.5-0.8-1.5-0.8s2.1-4.8,6.2-6.1
				c4.1-1.3,7.9-0.6,8.5,1.5C76.9,268.1,76.7,268.9,76.2,269.7z"/>
			<path class="st4" d="M113.3,271.9c0,0-0.6,0.4-1.5,0.8c-1.7,0.7-4.4,1.6-7,0.8c-2.6-0.8-4.7-2.2-5.6-3.7
				c-0.5-0.8-0.7-1.7-0.5-2.4c0.7-2.1,4.5-2.8,8.5-1.5C111.2,267.1,113.3,271.9,113.3,271.9z"/>
			<path class="st3" d="M76.2,269.7c-1,1.5-3,2.9-5.6,3.7c-2.6,0.8-5.4,0-7-0.8c1-1.4,2.6-3,4.7-3.6C71.6,268,74.9,268.3,76.2,269.7
				z"/>
			<path class="st3" d="M111.8,272.7c-1.7,0.7-4.4,1.6-7,0.8c-2.6-0.8-4.7-2.2-5.6-3.7c1.3-1.4,4.6-1.7,8-0.7
				C109.2,269.7,110.7,271.3,111.8,272.7z"/>
			<g>
				<path class="st6" d="M92.5,294c0,4.3-5.1,7.8-5.1,7.8s-5.1-3.5-5.1-7.8c0-4.3,2.3-7.8,5.1-7.8C90.2,286.2,92.5,289.7,92.5,294z"
					/>
				<g>
					<path class="st6" d="M87.2,292.7c0,4.3-3.5,7.8-3.5,7.8s-3.5-3.5-3.5-7.8c0-4.3,1.6-7.8,3.5-7.8
						C85.7,284.9,87.2,288.4,87.2,292.7z"/>
					<path class="st6" d="M94.5,292.7c0,4.3-3.5,7.8-3.5,7.8s-3.5-3.5-3.5-7.8c0-4.3,1.6-7.8,3.5-7.8
						C92.9,284.9,94.5,288.4,94.5,292.7z"/>
				</g>
			</g>
			<path class="st6" d="M102.2,270.7c0,11.7-6.5,21.2-14.5,21.2c-8,0-14.5-9.5-14.5-21.2c0-11.7,6.5-16.1,14.5-16.1
				C95.7,254.6,102.2,258.9,102.2,270.7z"/>
			<g>
				<path class="st2" d="M67.5,254c1.7,4.4,4.8,6.4,9.3,7c1.6,0.2,2.7,1.5,2.7,3.1c0,1.9-1.7,3.4-3.5,3.1c-7.2-1.1-11-5.7-9.8-13
					C66.2,253.5,67.2,253.4,67.5,254z"/>
				<path class="st2" d="M107.8,254c-1.7,4.4-4.8,6.4-9.3,7c-1.6,0.2-2.7,1.5-2.7,3.1c0,1.9,1.7,3.4,3.5,3.1c7.2-1.1,11-5.7,9.8-13
					C109.1,253.5,108.1,253.4,107.8,254z"/>
			</g>
			<polygon class="st7" points="91.5,284.6 83.8,284.6 80.9,267 94.4,267 			"/>
			<g>
				<path class="st8" d="M89.1,293.4h-2.9c-2,0-3.7-1.7-3.7-3.7c0-2,1.7-3.7,3.7-3.7h2.9c2,0,3.7,1.7,3.7,3.7
					C92.8,291.7,91.1,293.4,89.1,293.4z"/>
				<path class="st4" d="M89.4,292.3h-3.5c-2.5,0-4.6-2.1-4.6-4.6c0-2.5,2.1-4.6,4.6-4.6h3.5c2.5,0,4.6,2.1,4.6,4.6
					C94,290.3,91.9,292.3,89.4,292.3z"/>
				<g>
					<path class="st8" d="M83.9,288.8c0.6,0.6,1.4,0.7,2,0.4c0.4-0.1,0.5-0.6,0.2-0.9l-1.8-1.8c-0.3-0.3-0.8-0.2-0.9,0.2
						C83.2,287.5,83.3,288.3,83.9,288.8z"/>
					<path class="st8" d="M91.4,288.8c-0.6,0.6-1.4,0.7-2,0.4c-0.4-0.1-0.5-0.6-0.2-0.9l1.8-1.8c0.3-0.3,0.8-0.2,0.9,0.2
						C92.1,287.5,92,288.3,91.4,288.8z"/>
				</g>
			</g>
			<g>
				<path class="st9" d="M96.9,272.3c0,0,0,1.3-0.6,1.6c-0.7,0.4-1.7-0.2-1.7-0.2s0-1.3,0.6-1.6C95.8,271.7,96.9,272.3,96.9,272.3z"
					/>
				<path class="st9" d="M78.4,272.3c0,0,0,1.3,0.6,1.6c0.7,0.4,1.7-0.2,1.7-0.2s0-1.3-0.6-1.6C79.5,271.7,78.4,272.3,78.4,272.3z"
					/>
			</g>
			<path class="st4" d="M96.7,269.1H78.6c-2.6,0-4.7-2.1-4.7-4.7v-7.1c0-2.6,2.1-4.7,4.7-4.7h18.1c2.6,0,4.7,2.1,4.7,4.7v7.1
				C101.3,267,99.2,269.1,96.7,269.1z"/>
		</g>
	</g>
	<g>
		<g>
			<path class="st10" d="M339.8,113v14.9h-2V113c0-0.2,0-0.4,0-0.6c-0.2-2.2-1.1-4.1-2.6-5.5c-1.5-1.5-3.6-2.3-5.8-2.3h-3.8v-2h3.8
				c1.1,0,2.2,0.2,3.2,0.5c2.1,0.7,3.9,2,5.2,3.7C339.1,108.5,339.8,110.6,339.8,113z"/>
		</g>
		<path class="st7" d="M341.3,129.2c0,2.9-2.5,5.2-2.5,5.2s-2.5-2.3-2.5-5.2c0-2.9,1.1-5.2,2.5-5.2
			C340.2,124,341.3,126.3,341.3,129.2z"/>
		<path class="st11" d="M335.2,106.9c-1.5-1.5-3.6-2.3-5.8-2.3h-3.8v-2h3.8c1.1,0,2.2,0.2,3.2,0.5
			C333.7,104.1,334.6,105.4,335.2,106.9z"/>
		<g>
			<path class="st11" d="M274.3,29.5c0,0,2,3.5,4.5,4.6c2.5,1.1,4.2,0.5,4.7-0.8c0.5-1.3-0.3-2.8-2.8-3.9
				C278.2,28.3,274.3,29.5,274.3,29.5z"/>
		</g>
		<g>
			<path class="st12" d="M281.3,33.4c0.6,0,1-0.2,1.2-0.6c0.1-0.2,0.1-0.5-0.1-0.9c-0.3-0.5-1.1-1-2-1.4c-0.6-0.2-1.3-0.4-2.2-0.4
				c-0.6,0-1.2,0.1-1.7,0.1c0.8,1,1.8,2.1,2.9,2.6C280,33.2,280.7,33.4,281.3,33.4z"/>
		</g>
		<g>
			<path class="st11" d="M285.4,32c-0.6,0.1-1.1-0.2-1.3-0.8l-1.4-5.5c-0.1-0.6,0.2-1.1,0.8-1.3c0.6-0.1,1.1,0.2,1.3,0.8l1.4,5.5
				C286.3,31.3,286,31.9,285.4,32z"/>
			<path class="st7" d="M285.6,23.9c0.3,1.1-0.4,2.3-1.5,2.6c-1.1,0.3-2.3-0.4-2.6-1.5c-0.3-1.1,0.4-2.3,1.5-2.6
				S285.3,22.8,285.6,23.9z"/>
		</g>
		<path class="st7" d="M289.3,159.1h-6c0.4-2.1,2.2-4,5.3-5.1L289.3,159.1z"/>
		<path class="st7" d="M300.1,159.1h-6c0.4-2.1,2.2-4,5.3-5.1L300.1,159.1z"/>
		<path class="st7" d="M321.1,159.1h-6c0.4-2.1,2.2-4,5.3-5.1L321.1,159.1z"/>
		<path class="st7" d="M331.6,159.1h-6c0.4-2.1,2.2-4,5.3-5.1L331.6,159.1z"/>
		<g>
			<path class="st11" d="M321.1,159.1c1.9,0,3.4-1.5,3.4-3.4v-32.7c0-0.9-0.4-3.7-1-4.3c-0.8-0.8-1.9-1.2-3.1-0.9
				c-1.6,0.3-2.7,1.8-2.7,3.4v34.5C317.8,157.6,319.3,159.1,321.1,159.1z"/>
		</g>
		<g>
			<path class="st10" d="M331.6,159.1c1.9,0,3.4-1.5,3.4-3.4l0-21.2c0-0.9-0.4-15.2-1-15.8c-0.8-0.8-1.9-1.2-3.1-0.9
				c-1.6,0.3-2.7,1.8-2.7,3.4v34.5C328.2,157.6,329.7,159.1,331.6,159.1z"/>
		</g>
		<g>
			<path class="st11" d="M292.7,155.7v-38c0-1.8-1.3-3.3-3-3.5c-2-0.2-3.7,1.4-3.7,3.3v38.1c0,1.9,1.5,3.4,3.4,3.4
				C291.2,159.1,292.7,157.6,292.7,155.7z"/>
		</g>
		<g>
			<path class="st10" d="M303.4,155.7v-38c0-1.8-1.3-3.3-3-3.5c-2-0.2-3.7,1.4-3.7,3.3v38.1c0,1.9,1.5,3.4,3.4,3.4
				C301.9,159.1,303.4,157.6,303.4,155.7z"/>
		</g>
		<path class="st10" d="M334.9,112.2c0-6.8-5.6-11.6-12.3-12.3c-5.5-0.6-14.1-1.4-21.3-2.2c-4.7-0.5-8.4-4.4-8.6-9.2
			c-0.9-18.7,8.3-38.4,2.5-52.4H286c8.4,17.1-17.2,44.4-3.5,76.7c1.7,4.7,6.3,7.5,11.5,8.1c9.9,1,34.2,3.5,34.2,3.5
			c0,2.2,0,7.1,0,9.5c0,6.9,0.1,10.1,6.7,10.1L334.9,112.2z"/>
		<g>
			<g>
				<path class="st7" d="M304.2,100.2c-0.3,0.4-0.3,1,0,1.4l1.3,2.2c0.3,0.4,0.7,0.7,1.3,0.7h2.5c0.5,0,1-0.3,1.3-0.7l1.3-2.2
					c0.3-0.4,0.3-1,0-1.4l-0.9-1.5c-1.8-0.2-3.7-0.4-5.5-0.6L304.2,100.2z"/>
			</g>
			<g>
				<path class="st7" d="M299.1,106.5l-0.8,1.3c-0.2,0.3-0.2,0.6,0,0.9l0.8,1.3c0.2,0.3,0.4,0.4,0.8,0.4h1.5c0.3,0,0.6-0.2,0.8-0.4
					l0.8-1.3c0.2-0.3,0.2-0.6,0-0.9l-0.8-1.3c-0.2-0.3-0.4-0.4-0.8-0.4h-1.5C299.6,106,299.3,106.2,299.1,106.5z"/>
			</g>
			<g>
				<path class="st7" d="M298.8,116l-1,1.7c-0.2,0.3-0.2,0.8,0,1.1l1,1.7c0.2,0.3,0.6,0.6,1,0.6h2c0.4,0,0.8-0.2,1-0.6l1-1.7
					c0.2-0.3,0.2-0.8,0-1.1l-1-1.7c-0.2-0.3-0.6-0.6-1-0.6h-2C299.4,115.4,299,115.6,298.8,116z"/>
			</g>
			<g>
				<path class="st7" d="M318.2,106.7l-0.9-1.6c-0.2-0.3-0.5-0.5-0.9-0.5h-1.9c-0.4,0-0.7,0.2-0.9,0.5l-0.9,1.6
					c-0.2,0.3-0.2,0.7,0,1.1l0.9,1.6c0.2,0.3,0.5,0.5,0.9,0.5h1.9c0.4,0,0.7-0.2,0.9-0.5l0.9-1.6
					C318.4,107.5,318.4,107.1,318.2,106.7z"/>
			</g>
			<g>
				<path class="st7" d="M309.6,109.1h-2.4c-0.5,0-0.9,0.3-1.2,0.7l-1.2,2.1c-0.2,0.4-0.2,0.9,0,1.4l1.2,2.1
					c0.2,0.4,0.7,0.7,1.2,0.7h2.4c0.5,0,0.9-0.3,1.2-0.7l1.2-2.1c0.2-0.4,0.2-0.9,0-1.4l-1.2-2.1
					C310.5,109.4,310.1,109.1,309.6,109.1z"/>
			</g>
			<g>
				<path class="st7" d="M294,53.1c-0.5,0-1,0.3-1.3,0.7l-1.3,2.2c-0.3,0.5-0.3,1,0,1.5l1.3,2.2c0.3,0.5,0.7,0.7,1.3,0.7h1.8
					c0.4-2.5,0.7-4.9,1-7.3c-0.1,0-0.2,0-0.3,0H294z"/>
			</g>
			<g>
				<path class="st7" d="M289.6,82.4h-1.8c-0.4,0-0.7,0.2-0.9,0.5l-0.9,1.5c-0.2,0.3-0.2,0.7,0,1l0.9,1.5c0.2,0.3,0.5,0.5,0.9,0.5
					h1.8c0.4,0,0.7-0.2,0.9-0.5l0.9-1.5c0.2-0.3,0.2-0.7,0-1l-0.9-1.5C290.3,82.6,290,82.4,289.6,82.4z"/>
			</g>
			<g>
				<path class="st7" d="M289.6,67.9l-1.3,2.2c-0.3,0.4-0.3,1,0,1.4l1.3,2.2c0.3,0.4,0.7,0.7,1.2,0.7h2.5c0.1,0,0.1,0,0.1,0
					c0.3-2.2,0.7-4.4,1-6.6c-0.3-0.4-0.7-0.6-1.2-0.6h-2.5C290.4,67.1,289.9,67.4,289.6,67.9z"/>
			</g>
			<g>
				<path class="st7" d="M330.7,109.6l-1.1,2c-0.2,0.4-0.2,0.9,0,1.3l1.1,2c0.2,0.4,0.7,0.6,1.1,0.6h2.3c0.3,0,0.5-0.1,0.8-0.3l0-3
					c0-1.1-0.2-2.2-0.5-3.2c-0.1,0-0.2,0-0.3,0h-2.3C331.4,109,331,109.2,330.7,109.6z"/>
			</g>
			<g>
				<path class="st7" d="M319,116.8c0.3,0.4,0.7,0.7,1.2,0.7h2.5c0.5,0,1-0.3,1.2-0.7l1.2-2.1c0.3-0.4,0.3-1,0-1.4l-1.2-2.1
					c-0.3-0.4-0.7-0.7-1.2-0.7h-2.5c-0.5,0-1,0.3-1.2,0.7l-1.2,2.1c-0.3,0.4-0.3,1,0,1.4L319,116.8z"/>
			</g>
			<g>
				<path class="st7" d="M294.1,39.7l-1.1,1.9c-0.2,0.4-0.2,0.9,0,1.3l1.1,1.9c0.2,0.4,0.6,0.6,1.1,0.6h1.9
					c-0.1-2.2-0.4-4.3-0.9-6.3h-1C294.7,39.1,294.3,39.3,294.1,39.7z"/>
			</g>
			<g>
				<path class="st7" d="M331,137.6l0.7-1.3c0.1-0.3,0.1-0.6,0-0.8l-0.7-1.3c-0.1-0.3-0.4-0.4-0.7-0.4h-1.5c-0.2,0-0.4,0.1-0.6,0.2
					c0,1.4,0,2.7,0.1,3.8c0.1,0.1,0.3,0.2,0.5,0.2h1.5C330.5,138,330.8,137.9,331,137.6z"/>
			</g>
			<g>
				<path class="st7" d="M289.8,61.8c-0.2-0.3-0.6-0.6-1-0.6h-2c-0.4,0-0.8,0.2-1,0.6l-1,1.7c-0.2,0.3-0.2,0.8,0,1.1l1,1.7
					c0.2,0.3,0.6,0.6,1,0.6h2c0.4,0,0.8-0.2,1-0.6l1-1.7c0.2-0.3,0.2-0.8,0-1.1L289.8,61.8z"/>
			</g>
			<g>
				<path class="st7" d="M329.4,128.3c0.1,0.2,0.3,0.3,0.5,0.3h1c0.2,0,0.4-0.1,0.5-0.3l0.5-0.8c0.1-0.2,0.1-0.4,0-0.5l-0.5-0.8
					c-0.1-0.2-0.3-0.3-0.5-0.3h-1c-0.2,0-0.4,0.1-0.5,0.3l-0.5,0.8c-0.1,0.2-0.1,0.4,0,0.5L329.4,128.3z"/>
			</g>
			<g>
				<path class="st7" d="M321.3,99.8c0,0-0.1,0.1-0.1,0.1L320,102c-0.2,0.4-0.2,1,0,1.4l1.2,2.1c0.2,0.4,0.7,0.7,1.2,0.7h2.4
					c0.5,0,1-0.3,1.2-0.7l1.2-2.1c0.2-0.4,0.2-1,0-1.4l-0.7-1.1c-1.2-0.5-2.6-0.8-3.9-0.9C322.2,99.9,321.7,99.8,321.3,99.8z"/>
			</g>
			<g>
				<path class="st7" d="M330,122.2l0.9-1.5c0.2-0.3,0.2-0.7,0-1l-0.9-1.5c-0.2-0.3-0.5-0.5-0.9-0.5h-1.8c-0.4,0-0.7,0.2-0.9,0.5
					l-0.9,1.5c-0.2,0.3-0.2,0.7,0,1l0.9,1.5c0.2,0.3,0.5,0.5,0.9,0.5h1.8C329.5,122.7,329.9,122.5,330,122.2z"/>
			</g>
			<g>
				<path class="st7" d="M293.1,99.4l1-1.7c0.2-0.3,0.2-0.8,0-1.1l-1-1.7c-0.2-0.3-0.6-0.6-1-0.6h-1.9c-0.4,0-0.8,0.2-1,0.6l-1,1.7
					c-0.2,0.3-0.2,0.8,0,1.1l1,1.7c0.2,0.3,0.6,0.6,1,0.6h1.9C292.5,99.9,292.9,99.7,293.1,99.4z"/>
			</g>
			<g>
				<path class="st7" d="M286.1,110.5c0.2,0,0.4-0.1,0.5-0.3l0.5-0.8c0.1-0.2,0.1-0.4,0-0.5l-0.5-0.8c-0.1-0.2-0.3-0.3-0.5-0.3h-1
					c-0.2,0-0.4,0.1-0.5,0.3l-0.5,0.8c-0.1,0.2-0.1,0.4,0,0.5l0.5,0.8c0.1,0.2,0.3,0.3,0.5,0.3H286.1z"/>
			</g>
			<g>
				<path class="st7" d="M296.2,111.7l0.9-1.6c0.2-0.3,0.2-0.7,0-1.1l-0.9-1.6c-0.2-0.3-0.6-0.5-0.9-0.5h-1.9
					c-0.4,0-0.7,0.2-0.9,0.5l-0.9,1.6c-0.2,0.3-0.2,0.7,0,1.1l0.9,1.6c0.2,0.3,0.6,0.5,0.9,0.5h1.9C295.6,112.2,296,112,296.2,111.7
					z"/>
			</g>
			<g>
				<path class="st7" d="M283.2,97.9l0.5-0.9c0.1-0.2,0.1-0.4,0-0.6l-0.5-0.9c-0.1-0.2-0.3-0.3-0.5-0.3h-1c-0.2,0-0.4,0.1-0.5,0.3
					l-0.5,0.9c-0.1,0.2-0.1,0.4,0,0.6l0.5,0.9c0.1,0.2,0.3,0.3,0.5,0.3h1C282.9,98.1,283.1,98,283.2,97.9z"/>
			</g>
			<g>
				<path class="st7" d="M334.9,127.8H334c-0.4,0-0.7,0.2-0.9,0.5l-0.9,1.6c-0.2,0.3-0.2,0.7,0,1.1l0.9,1.6c0.2,0.3,0.5,0.5,0.9,0.5
					h0.9L334.9,127.8z"/>
			</g>
			<g>
				<path class="st7" d="M279.7,85.6c0.1,0.2,0.3,0.3,0.5,0.3h0.9c0.2,0,0.4-0.1,0.5-0.3l0.5-0.8c0.1-0.2,0.1-0.4,0-0.5l-0.5-0.8
					c-0.1-0.2-0.3-0.3-0.5-0.3h-0.9c-0.2,0-0.4,0.1-0.5,0.3l-0.5,0.8c-0.1,0.2-0.1,0.4,0,0.5L279.7,85.6z"/>
			</g>
			<g>
				<path class="st7" d="M317.1,121.6c0.2-0.3,0.2-0.8,0-1.1l-1-1.6c-0.2-0.3-0.6-0.5-0.9-0.5h-1.9c-0.4,0-0.8,0.2-0.9,0.5l-1,1.6
					c-0.2,0.3-0.2,0.8,0,1.1l0.7,1.2c1.4,0.1,2.7,0.3,4,0.4L317.1,121.6z"/>
			</g>
			<g>
				<path class="st7" d="M281.9,71.7l0.6-1.1c0.1-0.2,0.1-0.5,0-0.7l-0.4-0.7c-0.3,0.9-0.5,1.9-0.8,2.9
					C281.6,72,281.8,71.9,281.9,71.7z"/>
			</g>
			<g>
				<path class="st7" d="M283.2,103.2l0.8,1.3c0.2,0.3,0.4,0.4,0.7,0.4h1.5c0.3,0,0.6-0.2,0.7-0.4l0.8-1.3c0.2-0.3,0.2-0.6,0-0.9
					L287,101c-0.2-0.3-0.4-0.4-0.7-0.4h-1.5c-0.3,0-0.6,0.2-0.7,0.4l-0.8,1.3C283,102.6,283,102.9,283.2,103.2z"/>
			</g>
			<g>
				<path class="st7" d="M286.6,115.4l0.7,1.3c0.1,0.3,0.4,0.4,0.7,0.4h1.5c0.3,0,0.6-0.2,0.7-0.4l0.7-1.3c0.1-0.3,0.1-0.6,0-0.8
					l-0.7-1.3c-0.1-0.3-0.4-0.4-0.7-0.4h-1.5c-0.3,0-0.6,0.2-0.7,0.4l-0.7,1.3C286.5,114.8,286.5,115.1,286.6,115.4z"/>
			</g>
			<g>
				<path class="st7" d="M281.5,90.5l0.7,1.2c0.1,0.2,0.4,0.4,0.7,0.4h1.4c0.3,0,0.5-0.2,0.7-0.4l0.7-1.2c0.1-0.2,0.1-0.5,0-0.8
					l-0.7-1.2c-0.1-0.2-0.4-0.4-0.7-0.4h-1.4c-0.3,0-0.5,0.2-0.7,0.4l-0.7,1.2C281.3,90,281.3,90.3,281.5,90.5z"/>
			</g>
			<g>
				<path class="st7" d="M289,51h1.7c0.3,0,0.7-0.2,0.8-0.5l0.9-1.5c0.2-0.3,0.2-0.7,0-1l-0.9-1.5c-0.2-0.3-0.5-0.5-0.8-0.5H289
					c-0.3,0-0.7,0.2-0.8,0.5l-0.6,1.1c0,0.5-0.1,0.9-0.2,1.4l0.8,1.4C288.3,50.9,288.7,51,289,51z"/>
			</g>
			<g>
				<path class="st7" d="M295.2,101.9c0.1,0.2,0.4,0.4,0.6,0.4h1.3c0.3,0,0.5-0.1,0.6-0.4l0.6-1.1c0.1-0.2,0.1-0.5,0-0.7l-0.6-1.1
					c-0.1-0.2-0.4-0.4-0.6-0.4h-1.3c-0.3,0-0.5,0.1-0.6,0.4l-0.6,1.1c-0.1,0.2-0.1,0.5,0,0.7L295.2,101.9z"/>
			</g>
			<g>
				<path class="st7" d="M282.9,75.8l-1,1.7c-0.2,0.3-0.2,0.8,0,1.1l1,1.7c0.2,0.3,0.6,0.6,1,0.6h1.9c0.4,0,0.8-0.2,1-0.6l1-1.7
					c0.2-0.3,0.2-0.8,0-1.1l-1-1.7c-0.2-0.3-0.6-0.6-1-0.6h-1.9C283.5,75.2,283.1,75.4,282.9,75.8z"/>
			</g>
		</g>
		<path class="st10" d="M286.6,28.8c-5.5,0-13.5,13.6-13.5,13.6l2.6,2c0.8,0.6,1.8,0.7,2.6,0.3l16.8-8.5
			C295.2,36.2,292.1,28.8,286.6,28.8z"/>
		<path class="st10" d="M289,37.4c0.9,1.9-0.4,4.4-2.8,5.6s-5.2,0.6-6.1-1.3c-0.9-1.9,0.4-4.4,2.8-5.6
			C285.4,34.9,288.1,35.5,289,37.4z"/>
		<g>
			<path class="st10" d="M288,30.1c-0.6-0.1-1-0.6-0.9-1.2l0.6-3.7c0.1-0.6,0.6-1,1.2-0.9c0.6,0.1,1,0.6,0.9,1.2l-0.6,3.7
				C289.1,29.8,288.6,30.2,288,30.1z"/>
			<path class="st7" d="M291,24.7c-0.2,1.2-1.3,1.9-2.4,1.8c-1.2-0.2-1.9-1.3-1.8-2.4c0.2-1.2,1.3-1.9,2.4-1.8
				C290.4,22.5,291.2,23.6,291,24.7z"/>
		</g>
		<g>
			<path class="st13" d="M284.9,35.6c0,0-0.8,1.1-1.4,1.1c-0.6,0-1.1-0.5-1.1-1.1c0-0.6,0.5-1.1,1.1-1.1
				C284,34.5,284.9,35.6,284.9,35.6z"/>
		</g>
		<g>
			<path class="st10" d="M298.5,29.5c0,0-2,3.5-4.5,4.6c-2.5,1.1-4.2,0.5-4.7-0.8c-0.5-1.3,0.3-2.8,2.8-3.9
				C294.6,28.3,298.5,29.5,298.5,29.5z"/>
		</g>
		<g>
			<path class="st12" d="M291.6,33.4c-0.6,0-1-0.2-1.2-0.6c-0.1-0.2-0.1-0.5,0.1-0.9c0.3-0.5,1-1,2-1.4c0.6-0.2,1.3-0.4,2.2-0.4
				c0.6,0,1.2,0.1,1.7,0.1c-0.8,1-1.8,2.1-2.9,2.6C292.8,33.2,292.1,33.4,291.6,33.4z"/>
		</g>
		<path class="st10" d="M277.9,42.6c0.6-1.6,0.1-3.3-1.1-3.8c-1.2-0.5-2.8,0.4-3.4,2c-0.6,1.6-0.1,3.3,1.1,3.8
			C275.7,45.1,277.2,44.2,277.9,42.6z"/>
	</g>
	<g>
		<g>
			<path class="st14" d="M196.9,78.8v32.8h-2.6V78.8c0-0.3,0-0.5,0-0.8c-0.4-5.5-5-9.9-10.7-9.9h-4.8v-2.6h4.8
				c4.3,0,8.2,2.1,10.6,5.3C195.9,73,196.9,75.8,196.9,78.8z"/>
		</g>
		<path class="st15" d="M198.7,113.3c0,3.6-3.1,6.6-3.1,6.6s-3.1-2.9-3.1-6.6c0-3.6,1.4-6.6,3.1-6.6
			C197.3,106.7,198.7,109.7,198.7,113.3z"/>
		<path class="st16" d="M194.5,74.6c0,1.1-0.1,2.3-0.2,3.4c-0.4-5.5-5-9.9-10.7-9.9h-4.8v-2.6h4.8c4.3,0,8.2,2.1,10.6,5.3
			C194.4,72.1,194.5,73.3,194.5,74.6z"/>
		<path class="st15" d="M171.9,79.5v62.3c0,1.5-1.2,2.8-2.8,2.8h-9.9c-1,0-1.5-1.3-0.8-2l1.8-1.7V79.5c0-1.5,1.2-2.8,2.8-2.8h6.1
			C170.7,76.8,171.9,78,171.9,79.5z"/>
		<path class="st17" d="M162.8,144.1c0,0.2,0,0.4-0.1,0.5h-3.5c-0.1-0.2-0.1-0.3-0.1-0.5c0-1,0.8-1.8,1.8-1.8
			C162,142.3,162.8,143.1,162.8,144.1z"/>
		<path class="st17" d="M167.4,144.1c0,0.2,0,0.4-0.1,0.5h-3.5c-0.1-0.2-0.1-0.3-0.1-0.5c0-1,0.8-1.8,1.8-1.8
			S167.4,143.1,167.4,144.1z"/>
		<path class="st15" d="M110.3,79.5v62.3c0,1.5-1.2,2.8-2.8,2.8h-9.9c-1,0-1.5-1.3-0.8-2l1.8-1.7V79.5c0-1.5,1.2-2.8,2.8-2.8h6.1
			C109.1,76.8,110.3,78,110.3,79.5z"/>
		<path class="st17" d="M101.2,144.1c0,0.2,0,0.4-0.1,0.5h-3.5c-0.1-0.2-0.1-0.3-0.1-0.5c0-1,0.8-1.8,1.8-1.8
			C100.4,142.3,101.2,143.1,101.2,144.1z"/>
		<path class="st17" d="M105.8,144.1c0,0.2,0,0.4-0.1,0.5h-3.5c-0.1-0.2-0.1-0.3-0.1-0.5c0-1,0.8-1.8,1.8-1.8
			S105.8,143.1,105.8,144.1z"/>
		<path class="st14" d="M127.4,79.5v62.3c0,1.5-1.2,2.8-2.8,2.8h-9.9c-1,0-1.5-1.3-0.8-2l1.8-1.7V79.5c0-1.5,1.2-2.8,2.8-2.8h6.1
			C126.2,76.8,127.4,78,127.4,79.5z"/>
		<path class="st17" d="M118.3,144.1c0,0.2,0,0.4-0.1,0.5h-3.5c-0.1-0.2-0.1-0.3-0.1-0.5c0-1,0.8-1.8,1.8-1.8
			C117.5,142.3,118.3,143.1,118.3,144.1z"/>
		<path class="st17" d="M122.9,144.1c0,0.2,0,0.4-0.1,0.5h-3.5c-0.1-0.2-0.1-0.3-0.1-0.5c0-1,0.8-1.8,1.8-1.8
			S122.9,143.1,122.9,144.1z"/>
		<g>
			<path class="st17" d="M66,89.6c-2.6-1.4-4.9-3.3-6.8-5.8c-0.6-0.8-0.5-2.1,0.4-2.7c0.8-0.6,2.1-0.5,2.7,0.4
				c2.7,3.5,6.6,5.8,11,6.4c4.4,0.6,8.8-0.5,12.4-3.2c0.8-0.6,2.1-0.5,2.7,0.4c0.6,0.8,0.5,2.1-0.4,2.7C81.4,92.8,72.8,93.2,66,89.6
				z"/>
		</g>
		<path class="st18" d="M112.5,35.6C112.5,35.5,112.4,35.5,112.5,35.6c-4.8-1.3-10.1-0.8-14.6,2L76.5,49.7l12.9,5.7
			c0.3,2.4,1.1,4.9,2.3,7.1l9.2,16.2c1.7,3.1,5.8,3.9,8.5,1.6c10.3-8.5,14.9-22.1,12.1-35C120.6,40.7,117.1,36.9,112.5,35.6z"/>
		<path class="st14" d="M179.1,68.1v9.4c0,12.8-10.5,23.3-23.3,23.3h-35.9c-12.8,0-23.3-10.5-23.3-23.3v-9.4
			c0-6.5,2.7-12.4,7.1-16.7c0,0,0.1-0.1,0.1-0.1c4.2-4,9.9-6.5,16.1-6.5h35.9C168.6,44.8,179.1,55.3,179.1,68.1z"/>
		<circle class="st14" cx="159.5" cy="73.1" r="32.4"/>
		<path class="st14" d="M106.7,72c5.6-10.8,2.2-23.7-7.6-28.7c-9.8-5-22.2-0.3-27.8,10.5c-5.6,10.8-6,31.8,3.8,36.8
			C84.9,95.6,101.1,82.8,106.7,72z"/>
		<path class="st16" d="M137.7,59.8c-4,12.5-18.8,23.3-32.7,24.4c-4.1-2.4-6.8-6-8.4-9.9c-4.2-9.9-1.5-21.8,3.3-21.8l3.8-1.2
			l21.1-6.6h7.7c0.8,0.6,1.5,1.2,2.2,1.9c0,0,0,0,0.1,0.1C138.1,50.1,139.2,55.2,137.7,59.8z"/>
		<path class="st14" d="M129.7,46.7C129.7,46.7,129.7,46.7,129.7,46.7c-3.5-3.5-8.4-5.6-13.7-5.4H91.5l8.4,11.3
			c-1,2.3-1.5,4.7-1.5,7.3v18.7c0,3.5,3.2,6.2,6.6,5.6c13.2-2.3,23.8-11.9,27.8-24.4C134.3,55.2,133.1,50.1,129.7,46.7z"/>
		<path class="st14" d="M84.2,76.2c-3.5,40.3-2.6,42.9-8.3,49.7c-3.1,3.8-7.2,6.1-11.3,7.1c-3.7,1.1-7.8,0.4-11.9,0.1
			c0-0.5,0.2-0.9,0.5-1.3c0.3-0.3,0.7-0.6,1.2-0.7l0.5-0.1l-0.5-0.1c-0.9-0.2-1.6-1-1.6-1.9v-0.3c0,0,5.4-0.5,5.4-0.5
			c-0.1,0-0.1,0-0.1,0c6.7-0.9,12-5.3,12.7-12.4c0.1-1,0.1-2,0-3c0,0,0-0.1,0-0.1c-0.1-0.7-0.1-1.7-0.3-3c-0.1-0.9-0.2-2-0.3-3.1
			c-0.1-0.9-0.2-1.9-0.3-3c-0.1-1-0.2-2.1-0.3-3.1c-0.1-1-0.2-2-0.3-3c-0.1-1-0.2-2.1-0.3-3.1c-0.1-1-0.2-2-0.3-3
			c-0.1-1.1-0.2-2.1-0.3-3.1c-0.1-1-0.2-2-0.3-3c-0.1-1.1-0.2-2.2-0.3-3.1c-0.1-1.1-0.2-2.1-0.3-3c-0.1-1.3-0.2-2.3-0.3-3H84.2z"/>
		<path class="st13" d="M83.7,66.6c0,0.8-0.7,1.5-1.5,1.5c-0.8,0-1.5-0.7-1.5-1.5c0-0.8,0.7-1.5,1.5-1.5
			C83.1,65.1,83.7,65.8,83.7,66.6z"/>
		<path class="st18" d="M74.3,114.4c0,0.4-0.2,0.8-0.5,1.1c-0.3,0.3-0.7,0.5-1.1,0.5h-1.9c0.1-1,0.1-2,0-3c0,0,0-0.1,0-0.1h1.9
			C73.5,112.9,74.3,113.6,74.3,114.4z"/>
		<path class="st18" d="M74.3,108.3c0,0.4-0.2,0.8-0.5,1.1c-0.3,0.3-0.7,0.5-1.1,0.5h-2.1c-0.1-0.9-0.2-2-0.3-3.1h2.4
			C73.5,106.7,74.3,107.4,74.3,108.3z"/>
		<path class="st18" d="M74.3,102.2c0,0.4-0.2,0.8-0.5,1.1c-0.3,0.3-0.7,0.5-1.1,0.5H70c-0.1-1-0.2-2.1-0.3-3.1h2.9
			C73.5,100.6,74.3,101.3,74.3,102.2z"/>
		<path class="st18" d="M74.3,96c0,0.4-0.2,0.8-0.5,1.1c-0.3,0.3-0.7,0.5-1.1,0.5h-3.2c-0.1-1-0.2-2.1-0.3-3.1h3.5
			C73.5,94.5,74.3,95.2,74.3,96z"/>
		<path class="st18" d="M74.3,89.9c0,0.4-0.2,0.8-0.5,1.1c-0.3,0.3-0.7,0.5-1.1,0.5h-3.7c-0.1-1.1-0.2-2.1-0.3-3.1h4
			C73.5,88.3,74.3,89,74.3,89.9z"/>
		<path class="st18" d="M74.3,83.8c0,0.4-0.2,0.8-0.5,1.1c-0.3,0.3-0.7,0.5-1.1,0.5h-4.3c-0.1-1.1-0.2-2.2-0.3-3.1h4.6
			C73.5,82.2,74.3,82.9,74.3,83.8z"/>
		<path class="st18" d="M74.3,77.6c0,0.4-0.2,0.8-0.5,1.1c-0.3,0.3-0.7,0.5-1.1,0.5h-4.8c-0.1-1.3-0.2-2.3-0.3-3h5.7
			C73.9,76.4,74.3,77,74.3,77.6z"/>
		<g>
			<path class="st19" d="M68.9,99.4c-2.9,0-5.9-0.6-8.7-1.9c-1-0.5-1.4-1.6-0.9-2.6c0.5-1,1.6-1.4,2.6-0.9c4,1.9,8.5,2.1,12.7,0.6
				c4.2-1.5,7.6-4.6,9.4-8.6c0.5-1,1.6-1.4,2.6-0.9c1,0.5,1.4,1.6,0.9,2.6C84,95,76.6,99.4,68.9,99.4z"/>
		</g>
		<path class="st14" d="M189,79.5v62.3c0,1.5-1.2,2.8-2.8,2.8h-9.9c-1,0-1.5-1.3-0.8-2l1.8-1.7V79.5c0-1.5,1.2-2.8,2.8-2.8h6.1
			C187.8,76.8,189,78,189,79.5z"/>
		<path class="st17" d="M179.9,144.1c0,0.2,0,0.4-0.1,0.5h-3.5c-0.1-0.2-0.1-0.3-0.1-0.5c0-1,0.8-1.8,1.8-1.8
			S179.9,143.1,179.9,144.1z"/>
		<path class="st17" d="M184.5,144.1c0,0.2,0,0.4-0.1,0.5h-3.5c-0.1-0.2-0.1-0.3-0.1-0.5c0-1,0.8-1.8,1.8-1.8
			C183.7,142.3,184.5,143.1,184.5,144.1z"/>
	</g>
	<g>
		<circle class="st20" cx="132.7" cy="170.7" r="37.6"/>
	</g>
	<g>
		<g>
			<path class="st0" d="M130.1,183.5c0,1.4-0.8,2.1-2.4,2.1h-13.5c-1.6,0-2.4-0.7-2.4-2.1c0-1.4,0.8-2,2.4-2h4.2v-18.2l-3.8,2.4
				c-0.4,0.2-0.7,0.3-1,0.3c-0.6,0-1-0.2-1.4-0.7s-0.6-1-0.6-1.6c0-0.8,0.3-1.4,1-1.8l6.2-3.8c0.8-0.5,1.6-0.7,2.3-0.7
				c0.7,0,1.3,0.2,1.8,0.7c0.5,0.5,0.7,1.1,0.7,1.9v21.7h4.2C129.3,181.5,130.1,182.2,130.1,183.5z"/>
			<path class="st0" d="M148.8,168.7c1.3,0.8,2.4,1.8,3.1,3.2c0.7,1.4,1.1,2.9,1.1,4.7c0,1.8-0.4,3.5-1.3,4.9
				c-0.8,1.4-2,2.5-3.6,3.3c-1.5,0.8-3.3,1.2-5.3,1.2c-1.7,0-3.3-0.3-4.9-0.8c-1.6-0.5-2.9-1.3-4.1-2.2c-0.6-0.5-0.9-1.2-0.9-1.9
				c0-0.6,0.2-1.1,0.5-1.5c0.3-0.4,0.7-0.6,1.2-0.6c0.3,0,0.5,0,0.8,0.1c0.2,0.1,0.5,0.2,0.8,0.5c1.1,0.7,2.1,1.3,3.1,1.7
				s2.1,0.6,3.2,0.6c1.8,0,3.1-0.4,4-1.3c0.9-0.9,1.4-2.1,1.4-3.8c0-1.6-0.5-2.8-1.4-3.7s-2.2-1.4-3.9-1.4c-1,0-2,0.1-2.8,0.4
				c-0.8,0.3-1.6,0.8-2.5,1.5c-0.5,0.3-1,0.5-1.6,0.5c-0.5,0-1-0.2-1.4-0.5c-0.4-0.3-0.6-0.7-0.6-1.3v-12.5c0-0.7,0.2-1.3,0.6-1.8
				c0.4-0.4,1-0.6,1.8-0.6h13.3c1.6,0,2.4,0.7,2.4,2c0,1.3-0.8,2-2.4,2h-10.7v7.6c1.4-1,3-1.4,5-1.4
				C145.9,167.6,147.4,168,148.8,168.7z"/>
		</g>
	</g>
	<g>
		<circle class="st20" cx="309.7" cy="170.7" r="37.6"/>
	</g>
	<g>
		<g>
			<path class="st0" d="M307,182.5c0,1.4-0.8,2.1-2.4,2.1h-13.5c-1.6,0-2.4-0.7-2.4-2.1c0-1.4,0.8-2,2.4-2h4.2v-18.2l-3.8,2.4
				c-0.4,0.2-0.7,0.3-1,0.3c-0.6,0-1-0.2-1.4-0.7s-0.6-1-0.6-1.6c0-0.8,0.3-1.4,1-1.8l6.2-3.8c0.8-0.5,1.6-0.7,2.3-0.7
				c0.7,0,1.3,0.2,1.8,0.7c0.5,0.5,0.7,1.1,0.7,1.9v21.7h4.2C306.2,180.5,307,181.2,307,182.5z"/>
			<path class="st0" d="M329.9,182.5c0,1.4-0.8,2.1-2.4,2.1h-15.2c-0.7,0-1.2-0.2-1.6-0.6c-0.4-0.4-0.6-0.9-0.6-1.5
				c0-0.8,0.3-1.5,0.9-2.2l9.1-9.8c1.1-1.2,1.9-2.4,2.5-3.4c0.5-1,0.8-2,0.8-3.1c0-1.3-0.4-2.2-1.1-2.9c-0.7-0.7-1.7-1-3.1-1
				c-1.1,0-2.2,0.2-3.2,0.6c-1,0.4-2.1,1-3.1,1.7c-0.3,0.2-0.5,0.3-0.8,0.5c-0.3,0.1-0.5,0.2-0.8,0.2c-0.5,0-0.8-0.2-1.2-0.6
				c-0.3-0.4-0.5-0.9-0.5-1.5c0-0.4,0.1-0.7,0.2-1c0.1-0.3,0.4-0.6,0.7-0.8c1.2-0.9,2.5-1.7,4.1-2.2c1.6-0.5,3.1-0.8,4.7-0.8
				c2.7,0,4.9,0.7,6.6,2.1c1.6,1.4,2.5,3.3,2.5,5.6c0,1.6-0.3,3.2-1,4.6c-0.7,1.4-1.9,3-3.5,4.8l-6.9,7.4h10.6
				C329.1,180.5,329.9,181.2,329.9,182.5z"/>
		</g>
	</g>
	<g>
		<circle class="st20" cx="132.7" cy="330.2" r="37.6"/>
	</g>
	<g>
		<g>
			<path class="st0" d="M138.5,320.2c1.9,2.4,2.9,5.9,2.9,10.3c0,3.1-0.5,5.7-1.4,8c-0.9,2.3-2.2,4-3.9,5.2c-1.7,1.2-3.7,1.8-6,1.8
				c-1.5,0-3-0.3-4.6-0.8c-1.5-0.5-2.8-1.3-3.9-2.2c-0.3-0.3-0.6-0.6-0.7-0.9c-0.1-0.3-0.2-0.6-0.2-1c0-0.6,0.2-1.1,0.5-1.5
				c0.3-0.4,0.7-0.6,1.2-0.6c0.3,0,0.5,0,0.8,0.1c0.2,0.1,0.5,0.2,0.9,0.5c2.2,1.5,4.2,2.3,5.9,2.3c1.9,0,3.5-0.9,4.6-2.7
				c1.1-1.8,1.7-4.3,1.8-7.6c-0.6,1.2-1.5,2.2-2.8,2.9c-1.2,0.7-2.6,1.1-4.1,1.1c-1.7,0-3.2-0.4-4.5-1.1c-1.3-0.8-2.3-1.8-3.1-3.2
				c-0.7-1.4-1.1-2.9-1.1-4.7c0-1.8,0.4-3.4,1.2-4.9c0.8-1.4,1.9-2.5,3.4-3.3s3-1.2,4.9-1.2C133.8,316.5,136.5,317.8,138.5,320.2z
				 M134.1,329.5c0.9-0.9,1.4-2.2,1.4-3.7c0-1.5-0.5-2.8-1.4-3.7c-0.9-0.9-2.1-1.4-3.6-1.4c-1.5,0-2.6,0.5-3.5,1.4
				c-0.9,0.9-1.3,2.2-1.3,3.7s0.4,2.8,1.3,3.7c0.9,0.9,2.1,1.4,3.5,1.4C132,330.9,133.2,330.4,134.1,329.5z"/>
		</g>
	</g>
	<g>
		<path class="st4" d="M286.6,318.7h-5.8c0.4-2,2.1-3.9,5.1-4.9L286.6,318.7z"/>
		<path class="st21" d="M286.6,318.7c-1.4,0-2.5-1.1-2.5-2.5v-29.5c0-1.4,1.1-2.5,2.5-2.5c1.4,0,2.5,1.1,2.5,2.5v29.5
			C289,317.6,287.9,318.7,286.6,318.7z"/>
		<path class="st4" d="M328.8,318.7h-5.8c0.4-2,2.1-3.9,5.1-4.9L328.8,318.7z"/>
		<path class="st21" d="M328.8,318.7c-1.4,0-2.5-1.1-2.5-2.5v-35.4c0-1.4,1.1-2.5,2.5-2.5c1.4,0,2.5,1.1,2.5,2.5v35.4
			C331.3,317.6,330.2,318.7,328.8,318.7z"/>
		<path class="st21" d="M324.9,276.7h3.8c0.9,0,1.6,0.7,1.6,1.6v21.1c0,0.9-0.7,1.6-1.6,1.6c-3,0-5.4-2.4-5.4-5.4v-17.3
			C323.3,277.5,324,276.7,324.9,276.7z"/>
		<path class="st2" d="M284.1,302.4v13.8c0,1.4,1.1,2.5,2.5,2.5c1.4,0,2.5-1.1,2.5-2.5v-13C287.4,303,285.7,302.7,284.1,302.4z"/>
		<path class="st2" d="M326.4,305v11.3c0,1.4,1.1,2.5,2.5,2.5s2.5-1.1,2.5-2.5v-11.6C329.7,304.8,328,304.9,326.4,305z"/>
		<path class="st7" d="M343.3,276.7c-0.8,1.2-2,2-3.5,2.2c-2.9,0.4-5.6-2-6-5.3c-0.4-3.3,1.6-6.3,4.5-6.6c0.4-0.1,0.9-0.1,1.3,0
			c2.4,0.3,4.4,2.5,4.7,5.2C344.6,274,344.1,275.5,343.3,276.7z"/>
		<path class="st6" d="M343.3,276.7c-0.8,1.2-2,2-3.5,2.2c-2.9,0.4-5.6-2-6-5.3c-0.4-3.3,1.6-6.3,4.5-6.6c0.4-0.1,0.9-0.1,1.3,0
			C341.5,269.6,342.7,272.8,343.3,276.7z"/>
		<path class="st4" d="M297.5,318.7h-5.8c0.4-2,2.1-3.9,5.1-4.9L297.5,318.7z"/>
		<path class="st7" d="M297.5,318.7c-1.4,0-2.5-1.1-2.5-2.5v-29.5c0-1.4,1.1-2.5,2.5-2.5c1.4,0,2.5,1.1,2.5,2.5v29.5
			C300,317.6,298.9,318.7,297.5,318.7z"/>
		<path class="st6" d="M273.1,263.4c0,3.2-3.4,5.8-7.7,5.8c-4.2,0-7.7-2.6-7.7-5.8c0-3.2,3.4-5.8,7.7-5.8
			C269.7,257.5,273.1,260.1,273.1,263.4z"/>
		<path class="st7" d="M321.2,260c-4.1,0.6-8.4-0.2-11.9-2.5l-1.5-0.9c-3.6-2.3-8.1-3.3-12.3-2.4c-6.8,1.4-14.3,0-18.1-0.9
			c-1.4-2.7-4.3-4.6-7.6-4.6c-1.2,0-2.4,0.3-3.4,0.7c-0.7,0.1-1.4,0.3-2,0.8l-13.8,9.4c-2.2,1.5-2.7,4.4-1.3,6.6l1.4,2
			c1.5,2.2,4.4,2.7,6.6,1.3l7.5-5.1c1.4,1,3.2,1.7,5.1,1.7c0.8,0,1.6-0.1,2.3-0.3c0.5,5.4,1.9,10.1,4.2,14.2
			c3.9,7.3,11.6,11.8,19.9,11.8h2c10.2,3.5,25.1-1.6,25.1-1.6l13.3-1.8l5.5-7.3C342.1,266.4,335.8,257.8,321.2,260z"/>
		<path class="st2" d="M299.4,232.9v3.8c0,6.9-5.7,12.6-12.6,12.6h-25.1c-4.3,0-7.9-3.5-7.9-7.9v-8.5c0-1.3,1.1-2.4,2.4-2.4
			s2.4,1.1,2.4,2.4v7.6c0,1.3,1.1,2.4,2.4,2.4h1.4c1.3,0,2.4-1.1,2.4-2.4v-7.6c0-1.3,1.1-2.4,2.4-2.4h1.2c1.3,0,2.4,1.1,2.4,2.4v7.6
			c0,1.3,1.1,2.4,2.4,2.4h1.4c1.3,0,2.4-1.1,2.4-2.4v-7.6c0-1.3,1.1-2.4,2.4-2.4h1.2c1.3,0,2.4,1.1,2.4,2.4v7.6
			c0,1.3,1.1,2.4,2.4,2.4h1.4c1.3,0,2.4-1.1,2.4-2.4v-7.6c0-1.3,1.1-2.4,2.4-2.4h5.8C298.3,230.6,299.4,231.6,299.4,232.9z"/>
		<path class="st2" d="M278.8,246.4l-8.1,7c-1,0.9-2.5,0.8-3.4-0.2c-0.9-1-0.8-2.5,0.2-3.4l8.1-7c1-0.9,2.5-0.8,3.4,0.2
			C280,243.9,279.8,245.5,278.8,246.4z"/>
		<path class="st6" d="M274.6,255.4c0.9,1.4,2.9,2.8,5.4,3.5c2.5,0.8,5.2,0,6.7-0.7c0.9-0.4,1.4-0.7,1.4-0.7s-2-4.6-5.9-5.9
			c-3.9-1.2-7.5-0.6-8.2,1.5C273.8,253.8,274,254.6,274.6,255.4z"/>
		<path class="st22" d="M274.6,255.4c0.9,1.4,2.9,2.8,5.4,3.5c2.5,0.8,5.2,0,6.7-0.7c-1-1.3-2.5-2.8-4.5-3.5
			C278.9,253.8,275.8,254.1,274.6,255.4z"/>
		<path class="st9" d="M264.8,255.8c0,0,0,1.2-0.6,1.6c-0.6,0.4-1.7-0.2-1.7-0.2s0-1.2,0.6-1.6C263.7,255.2,264.8,255.8,264.8,255.8
			z"/>
		<g>
			<path class="st6" d="M269,271.2c0,2.3-2.8,4.2-2.8,4.2s-2.8-1.9-2.8-4.2c0-2.3,1.2-4.2,2.8-4.2S269,268.9,269,271.2z"/>
			<g>
				<path class="st6" d="M266.2,270.1c0,2.3-1.9,4.2-1.9,4.2s-1.9-1.9-1.9-4.2c0-2.3,0.9-4.2,1.9-4.2
					C265.4,265.8,266.2,267.7,266.2,270.1z"/>
				<path class="st6" d="M270.1,270.1c0,2.3-1.9,4.2-1.9,4.2s-1.9-1.9-1.9-4.2c0-2.3,0.9-4.2,1.9-4.2
					C269.3,265.8,270.1,267.7,270.1,270.1z"/>
			</g>
		</g>
		<path class="st8" d="M254.2,265.7c-0.5,0.5-1.3,0.7-2,0.4c-0.4-0.1-0.5-0.6-0.2-0.9l1.7-1.7c0.3-0.3,0.7-0.2,0.9,0.2
			C254.8,264.4,254.7,265.2,254.2,265.7z"/>
		<path class="st4" d="M339.7,318.7h-5.8c0.4-2,2.1-3.9,5.1-4.9L339.7,318.7z"/>
		<path class="st7" d="M339.7,318.7c-1.4,0-2.5-1.1-2.5-2.5v-35.4c0-1.4,1.1-2.5,2.5-2.5c1.4,0,2.5,1.1,2.5,2.5v35.4
			C342.1,317.6,341,318.7,339.7,318.7z"/>
		<path class="st7" d="M335.8,276.7h3.8c0.9,0,1.6,0.7,1.6,1.6v21.1c0,0.9-0.7,1.6-1.6,1.6c-3,0-5.4-2.4-5.4-5.4v-17.3
			C334.2,277.5,334.9,276.7,335.8,276.7z"/>
		<path class="st2" d="M295.1,304.1v12.2c0,1.4,1.1,2.5,2.5,2.5c1.4,0,2.5-1.1,2.5-2.5v-11.7C298.4,304.4,296.7,304.2,295.1,304.1z"
			/>
		<path class="st2" d="M337.2,304.1v12.2c0,1.4,1.1,2.5,2.5,2.5s2.5-1.1,2.5-2.5v-12.8C340.5,303.7,338.9,303.9,337.2,304.1z"/>
	</g>
	<g>
		<circle class="st20" cx="309.7" cy="330.2" r="37.6"/>
	</g>
	<g>
		<g>
			<path class="st0" d="M307.1,342c0,1.4-0.8,2.1-2.4,2.1h-13.5c-1.6,0-2.4-0.7-2.4-2.1c0-1.4,0.8-2,2.4-2h4.2v-18.2l-3.8,2.4
				c-0.4,0.2-0.7,0.3-1,0.3c-0.6,0-1-0.2-1.4-0.7s-0.6-1-0.6-1.6c0-0.8,0.3-1.4,1-1.8l6.2-3.8c0.8-0.5,1.6-0.7,2.3-0.7
				c0.7,0,1.3,0.2,1.8,0.7c0.5,0.5,0.7,1.1,0.7,1.9v21.7h4.2C306.3,339.9,307.1,340.6,307.1,342z"/>
			<path class="st0" d="M312,340.8c-1.8-2.5-2.6-6.1-2.6-10.8c0-4.7,0.9-8.3,2.6-10.7c1.8-2.5,4.3-3.7,7.6-3.7
				c3.3,0,5.9,1.2,7.6,3.7c1.8,2.5,2.6,6,2.6,10.7c0,4.7-0.9,8.3-2.6,10.8c-1.8,2.5-4.3,3.7-7.6,3.7
				C316.3,344.5,313.7,343.2,312,340.8z M323.6,337.9c0.8-1.7,1.2-4.3,1.2-7.9c0-3.7-0.4-6.3-1.2-7.9c-0.8-1.6-2.1-2.5-4-2.5
				s-3.1,0.8-4,2.5c-0.8,1.7-1.2,4.3-1.2,7.9c0,3.6,0.4,6.3,1.2,7.9c0.8,1.7,2.1,2.5,4,2.5S322.7,339.6,323.6,337.9z"/>
		</g>
	</g>
</g>
<g>
	<g>
		<path class="st1" d="M180.2,281.7c-0.8-0.1-1.7,0.3-2.1,1c-3.8,6.9-0.4,8-0.9,14c0,0,2.5-1.9,3-5.3l0.5,2.7c2-3.2,2.6-6.9,1.1-11
			C181.6,282.3,181,281.8,180.2,281.7z"/>
		<g>
			<path class="st2" d="M181.1,283.4c-0.1,0.5-0.6,0.9-1.1,0.9c-0.1,0-0.1,0-0.2,0c-0.6-0.1-1-0.7-0.9-1.3c0.5-2.6,0.7-5.2,0.5-7.6
				c-0.4-7-3.4-12.4-8-13.3c-0.6-0.1-1-0.7-0.9-1.3c0.1-0.6,0.7-1,1.3-0.9c3.8,0.8,6.8,4,8.4,8.6
				C181.8,272.6,182.2,277.8,181.1,283.4z"/>
		</g>
		<path class="st3" d="M180.4,269.5c0,2-0.3,4-0.9,5.8c-0.4-7-3.4-12.4-8-13.3c-0.6-0.1-1-0.7-0.9-1.3c0.1-0.6,0.7-1,1.3-0.9
			c3.8,0.8,6.8,4,8.4,8.6C180.4,268.7,180.4,269.1,180.4,269.5z"/>
		<path class="st4" d="M91.9,320.6h-7.6c0.5-2.6,2.8-5.2,6.8-6.5L91.9,320.6z"/>
		<path class="st3" d="M91.9,320.6c-1.8,0-3.3-1.5-3.3-3.3v-17c0-1.8,1.5-3.3,3.3-3.3c1.8,0,3.3,1.5,3.3,3.3v17
			C95.2,319.2,93.7,320.6,91.9,320.6z"/>
		<path class="st4" d="M147.5,320.6h-7.6c0.5-2.6,2.8-5.2,6.8-6.5L147.5,320.6z"/>
		<path class="st3" d="M156.8,303l-6.3,16c-0.4,0.9-1.5,1.7-2.5,1.7h-1.7c-1.7,0-2.8-1.7-2.2-3.3l5.6-14.3c-6.5-0.7-10.9-4-13.8-7.5
			c-3.3-4.1-4.5-8.2-4.5-8.2c-4-16.4,17.9-20.2,23.8-5.3c-2.1,3.2-3,6.1-3.1,8.4c-0.2,3.6,1.2,6.1,2.1,7.3c0.4,0.5,0.8,0.9,1.3,1.2
			C156.8,299.9,157.4,301.5,156.8,303z"/>
		<path class="st4" d="M106.5,320.6h-7.6c0.5-2.6,2.8-5.2,6.8-6.5L106.5,320.6z"/>
		<path class="st3" d="M106.5,320.6c-1.8,0-3.3-1.5-3.3-3.3v-17c0-1.8,1.5-3.3,3.3-3.3c1.8,0,3.3,1.5,3.3,3.3v17
			C109.7,319.2,108.3,320.6,106.5,320.6z"/>
		<path class="st4" d="M166.8,320.6h-7.6c0.5-2.6,2.8-5.2,6.8-6.5L166.8,320.6z"/>
		<circle class="st2" cx="159.6" cy="271" r="18.7"/>
		<path class="st5" d="M155.3,282.1c-2.1,3.2-3,6.1-3.1,8.4c-5.5,3.2-10.5,4.9-16.2,5.1c-3.3-4.1-4.5-8.2-4.5-8.2
			C127.5,271,149.4,267.2,155.3,282.1z"/>
		<path class="st2" d="M159.6,252.3l-3.4,31.2c-15.3,11.3-23.3,15-40,10.5l4.3-50.7l0.1-1.6c7.1,4.5,13.6,7.4,22.5,9
			C147.8,251.5,153.1,252.1,159.6,252.3z"/>
		<path class="st1" d="M73.3,268.3c-0.1,1.5-0.2,3-0.2,4.5c0,20.1,8.6,36.4,19.2,36.4s19.2-16.3,19.2-36.4c0-1.5-0.1-3-0.2-4.5H73.3
			z"/>
		<ellipse class="st4" cx="106.5" cy="273.7" rx="20.1" ry="35.5"/>
		<path class="st6" d="M143.1,250.7c-8.6-1.6-15-4.4-21.9-8.7c-5-3.5-11.8-5.6-19.2-5.6c-15.6,0-28.3,9.4-28.3,21.1
			c0,11.7,12.7,21.1,28.3,21.1s28.3-9.4,28.3-21.1C130.3,252,136.8,250.7,143.1,250.7z"/>
		<path class="st2" d="M173.5,297.9c-1.5-2-4.3-7.6,1.1-15.7c-5.9-14.9-27.8-11.1-23.8,5.3c0,0,4.1,14.3,18.3,15.7l-5.6,14.3
			c-0.6,1.6,0.5,3.3,2.2,3.3h1.7c1,0,2.1-0.8,2.5-1.7l6.3-16c0.6-1.5,0-3.1-1.3-3.9C174.3,298.7,173.8,298.3,173.5,297.9z"/>
		<g>
			<path class="st4" d="M76.2,269.7c-1,1.5-3,2.9-5.6,3.7c-2.6,0.8-5.4,0-7-0.8c-0.9-0.4-1.5-0.8-1.5-0.8s2.1-4.8,6.2-6.1
				c4.1-1.3,7.9-0.6,8.5,1.5C76.9,268.1,76.7,268.9,76.2,269.7z"/>
			<path class="st4" d="M113.3,271.9c0,0-0.6,0.4-1.5,0.8c-1.7,0.7-4.4,1.6-7,0.8c-2.6-0.8-4.7-2.2-5.6-3.7
				c-0.5-0.8-0.7-1.7-0.5-2.4c0.7-2.1,4.5-2.8,8.5-1.5C111.2,267.1,113.3,271.9,113.3,271.9z"/>
			<path class="st3" d="M76.2,269.7c-1,1.5-3,2.9-5.6,3.7c-2.6,0.8-5.4,0-7-0.8c1-1.4,2.6-3,4.7-3.6C71.6,268,74.9,268.3,76.2,269.7
				z"/>
			<path class="st3" d="M111.8,272.7c-1.7,0.7-4.4,1.6-7,0.8c-2.6-0.8-4.7-2.2-5.6-3.7c1.3-1.4,4.6-1.7,8-0.7
				C109.2,269.7,110.7,271.3,111.8,272.7z"/>
			<g>
				<path class="st6" d="M92.5,294c0,4.3-5.1,7.8-5.1,7.8s-5.1-3.5-5.1-7.8c0-4.3,2.3-7.8,5.1-7.8C90.2,286.2,92.5,289.7,92.5,294z"
					/>
				<g>
					<path class="st6" d="M87.2,292.7c0,4.3-3.5,7.8-3.5,7.8s-3.5-3.5-3.5-7.8c0-4.3,1.6-7.8,3.5-7.8
						C85.7,284.9,87.2,288.4,87.2,292.7z"/>
					<path class="st6" d="M94.5,292.7c0,4.3-3.5,7.8-3.5,7.8s-3.5-3.5-3.5-7.8c0-4.3,1.6-7.8,3.5-7.8
						C92.9,284.9,94.5,288.4,94.5,292.7z"/>
				</g>
			</g>
			<path class="st6" d="M102.2,270.7c0,11.7-6.5,21.2-14.5,21.2c-8,0-14.5-9.5-14.5-21.2c0-11.7,6.5-16.1,14.5-16.1
				C95.7,254.6,102.2,258.9,102.2,270.7z"/>
			<g>
				<path class="st2" d="M67.5,254c1.7,4.4,4.8,6.4,9.3,7c1.6,0.2,2.7,1.5,2.7,3.1c0,1.9-1.7,3.4-3.5,3.1c-7.2-1.1-11-5.7-9.8-13
					C66.2,253.5,67.2,253.4,67.5,254z"/>
				<path class="st2" d="M107.8,254c-1.7,4.4-4.8,6.4-9.3,7c-1.6,0.2-2.7,1.5-2.7,3.1c0,1.9,1.7,3.4,3.5,3.1c7.2-1.1,11-5.7,9.8-13
					C109.1,253.5,108.1,253.4,107.8,254z"/>
			</g>
			<polygon class="st7" points="91.5,284.6 83.8,284.6 80.9,267 94.4,267 			"/>
			<g>
				<path class="st8" d="M89.1,293.4h-2.9c-2,0-3.7-1.7-3.7-3.7c0-2,1.7-3.7,3.7-3.7h2.9c2,0,3.7,1.7,3.7,3.7
					C92.8,291.7,91.1,293.4,89.1,293.4z"/>
				<path class="st4" d="M89.4,292.3h-3.5c-2.5,0-4.6-2.1-4.6-4.6c0-2.5,2.1-4.6,4.6-4.6h3.5c2.5,0,4.6,2.1,4.6,4.6
					C94,290.3,91.9,292.3,89.4,292.3z"/>
				<g>
					<path class="st8" d="M83.9,288.8c0.6,0.6,1.4,0.7,2,0.4c0.4-0.1,0.5-0.6,0.2-0.9l-1.8-1.8c-0.3-0.3-0.8-0.2-0.9,0.2
						C83.2,287.5,83.3,288.3,83.9,288.8z"/>
					<path class="st8" d="M91.4,288.8c-0.6,0.6-1.4,0.7-2,0.4c-0.4-0.1-0.5-0.6-0.2-0.9l1.8-1.8c0.3-0.3,0.8-0.2,0.9,0.2
						C92.1,287.5,92,288.3,91.4,288.8z"/>
				</g>
			</g>
			<g>
				<path class="st9" d="M96.9,272.3c0,0,0,1.3-0.6,1.6c-0.7,0.4-1.7-0.2-1.7-0.2s0-1.3,0.6-1.6C95.8,271.7,96.9,272.3,96.9,272.3z"
					/>
				<path class="st9" d="M78.4,272.3c0,0,0,1.3,0.6,1.6c0.7,0.4,1.7-0.2,1.7-0.2s0-1.3-0.6-1.6C79.5,271.7,78.4,272.3,78.4,272.3z"
					/>
			</g>
			<path class="st4" d="M96.7,269.1H78.6c-2.6,0-4.7-2.1-4.7-4.7v-7.1c0-2.6,2.1-4.7,4.7-4.7h18.1c2.6,0,4.7,2.1,4.7,4.7v7.1
				C101.3,267,99.2,269.1,96.7,269.1z"/>
		</g>
	</g>
	<g>
		<g>
			<path class="st10" d="M339.8,113v14.9h-2V113c0-0.2,0-0.4,0-0.6c-0.2-2.2-1.1-4.1-2.6-5.5c-1.5-1.5-3.6-2.3-5.8-2.3h-3.8v-2h3.8
				c1.1,0,2.2,0.2,3.2,0.5c2.1,0.7,3.9,2,5.2,3.7C339.1,108.5,339.8,110.6,339.8,113z"/>
		</g>
		<path class="st7" d="M341.3,129.2c0,2.9-2.5,5.2-2.5,5.2s-2.5-2.3-2.5-5.2c0-2.9,1.1-5.2,2.5-5.2
			C340.2,124,341.3,126.3,341.3,129.2z"/>
		<path class="st11" d="M335.2,106.9c-1.5-1.5-3.6-2.3-5.8-2.3h-3.8v-2h3.8c1.1,0,2.2,0.2,3.2,0.5
			C333.7,104.1,334.6,105.4,335.2,106.9z"/>
		<g>
			<path class="st11" d="M274.3,29.5c0,0,2,3.5,4.5,4.6c2.5,1.1,4.2,0.5,4.7-0.8c0.5-1.3-0.3-2.8-2.8-3.9
				C278.2,28.3,274.3,29.5,274.3,29.5z"/>
		</g>
		<g>
			<path class="st12" d="M281.3,33.4c0.6,0,1-0.2,1.2-0.6c0.1-0.2,0.1-0.5-0.1-0.9c-0.3-0.5-1.1-1-2-1.4c-0.6-0.2-1.3-0.4-2.2-0.4
				c-0.6,0-1.2,0.1-1.7,0.1c0.8,1,1.8,2.1,2.9,2.6C280,33.2,280.7,33.4,281.3,33.4z"/>
		</g>
		<g>
			<path class="st11" d="M285.4,32c-0.6,0.1-1.1-0.2-1.3-0.8l-1.4-5.5c-0.1-0.6,0.2-1.1,0.8-1.3c0.6-0.1,1.1,0.2,1.3,0.8l1.4,5.5
				C286.3,31.3,286,31.9,285.4,32z"/>
			<path class="st7" d="M285.6,23.9c0.3,1.1-0.4,2.3-1.5,2.6c-1.1,0.3-2.3-0.4-2.6-1.5c-0.3-1.1,0.4-2.3,1.5-2.6
				S285.3,22.8,285.6,23.9z"/>
		</g>
		<path class="st7" d="M289.3,159.1h-6c0.4-2.1,2.2-4,5.3-5.1L289.3,159.1z"/>
		<path class="st7" d="M300.1,159.1h-6c0.4-2.1,2.2-4,5.3-5.1L300.1,159.1z"/>
		<path class="st7" d="M321.1,159.1h-6c0.4-2.1,2.2-4,5.3-5.1L321.1,159.1z"/>
		<path class="st7" d="M331.6,159.1h-6c0.4-2.1,2.2-4,5.3-5.1L331.6,159.1z"/>
		<g>
			<path class="st11" d="M321.1,159.1c1.9,0,3.4-1.5,3.4-3.4v-32.7c0-0.9-0.4-3.7-1-4.3c-0.8-0.8-1.9-1.2-3.1-0.9
				c-1.6,0.3-2.7,1.8-2.7,3.4v34.5C317.8,157.6,319.3,159.1,321.1,159.1z"/>
		</g>
		<g>
			<path class="st10" d="M331.6,159.1c1.9,0,3.4-1.5,3.4-3.4l0-21.2c0-0.9-0.4-15.2-1-15.8c-0.8-0.8-1.9-1.2-3.1-0.9
				c-1.6,0.3-2.7,1.8-2.7,3.4v34.5C328.2,157.6,329.7,159.1,331.6,159.1z"/>
		</g>
		<g>
			<path class="st11" d="M292.7,155.7v-38c0-1.8-1.3-3.3-3-3.5c-2-0.2-3.7,1.4-3.7,3.3v38.1c0,1.9,1.5,3.4,3.4,3.4
				C291.2,159.1,292.7,157.6,292.7,155.7z"/>
		</g>
		<g>
			<path class="st10" d="M303.4,155.7v-38c0-1.8-1.3-3.3-3-3.5c-2-0.2-3.7,1.4-3.7,3.3v38.1c0,1.9,1.5,3.4,3.4,3.4
				C301.9,159.1,303.4,157.6,303.4,155.7z"/>
		</g>
		<path class="st10" d="M334.9,112.2c0-6.8-5.6-11.6-12.3-12.3c-5.5-0.6-14.1-1.4-21.3-2.2c-4.7-0.5-8.4-4.4-8.6-9.2
			c-0.9-18.7,8.3-38.4,2.5-52.4H286c8.4,17.1-17.2,44.4-3.5,76.7c1.7,4.7,6.3,7.5,11.5,8.1c9.9,1,34.2,3.5,34.2,3.5
			c0,2.2,0,7.1,0,9.5c0,6.9,0.1,10.1,6.7,10.1L334.9,112.2z"/>
		<g>
			<g>
				<path class="st7" d="M304.2,100.2c-0.3,0.4-0.3,1,0,1.4l1.3,2.2c0.3,0.4,0.7,0.7,1.3,0.7h2.5c0.5,0,1-0.3,1.3-0.7l1.3-2.2
					c0.3-0.4,0.3-1,0-1.4l-0.9-1.5c-1.8-0.2-3.7-0.4-5.5-0.6L304.2,100.2z"/>
			</g>
			<g>
				<path class="st7" d="M299.1,106.5l-0.8,1.3c-0.2,0.3-0.2,0.6,0,0.9l0.8,1.3c0.2,0.3,0.4,0.4,0.8,0.4h1.5c0.3,0,0.6-0.2,0.8-0.4
					l0.8-1.3c0.2-0.3,0.2-0.6,0-0.9l-0.8-1.3c-0.2-0.3-0.4-0.4-0.8-0.4h-1.5C299.6,106,299.3,106.2,299.1,106.5z"/>
			</g>
			<g>
				<path class="st7" d="M298.8,116l-1,1.7c-0.2,0.3-0.2,0.8,0,1.1l1,1.7c0.2,0.3,0.6,0.6,1,0.6h2c0.4,0,0.8-0.2,1-0.6l1-1.7
					c0.2-0.3,0.2-0.8,0-1.1l-1-1.7c-0.2-0.3-0.6-0.6-1-0.6h-2C299.4,115.4,299,115.6,298.8,116z"/>
			</g>
			<g>
				<path class="st7" d="M318.2,106.7l-0.9-1.6c-0.2-0.3-0.5-0.5-0.9-0.5h-1.9c-0.4,0-0.7,0.2-0.9,0.5l-0.9,1.6
					c-0.2,0.3-0.2,0.7,0,1.1l0.9,1.6c0.2,0.3,0.5,0.5,0.9,0.5h1.9c0.4,0,0.7-0.2,0.9-0.5l0.9-1.6
					C318.4,107.5,318.4,107.1,318.2,106.7z"/>
			</g>
			<g>
				<path class="st7" d="M309.6,109.1h-2.4c-0.5,0-0.9,0.3-1.2,0.7l-1.2,2.1c-0.2,0.4-0.2,0.9,0,1.4l1.2,2.1
					c0.2,0.4,0.7,0.7,1.2,0.7h2.4c0.5,0,0.9-0.3,1.2-0.7l1.2-2.1c0.2-0.4,0.2-0.9,0-1.4l-1.2-2.1
					C310.5,109.4,310.1,109.1,309.6,109.1z"/>
			</g>
			<g>
				<path class="st7" d="M294,53.1c-0.5,0-1,0.3-1.3,0.7l-1.3,2.2c-0.3,0.5-0.3,1,0,1.5l1.3,2.2c0.3,0.5,0.7,0.7,1.3,0.7h1.8
					c0.4-2.5,0.7-4.9,1-7.3c-0.1,0-0.2,0-0.3,0H294z"/>
			</g>
			<g>
				<path class="st7" d="M289.6,82.4h-1.8c-0.4,0-0.7,0.2-0.9,0.5l-0.9,1.5c-0.2,0.3-0.2,0.7,0,1l0.9,1.5c0.2,0.3,0.5,0.5,0.9,0.5
					h1.8c0.4,0,0.7-0.2,0.9-0.5l0.9-1.5c0.2-0.3,0.2-0.7,0-1l-0.9-1.5C290.3,82.6,290,82.4,289.6,82.4z"/>
			</g>
			<g>
				<path class="st7" d="M289.6,67.9l-1.3,2.2c-0.3,0.4-0.3,1,0,1.4l1.3,2.2c0.3,0.4,0.7,0.7,1.2,0.7h2.5c0.1,0,0.1,0,0.1,0
					c0.3-2.2,0.7-4.4,1-6.6c-0.3-0.4-0.7-0.6-1.2-0.6h-2.5C290.4,67.1,289.9,67.4,289.6,67.9z"/>
			</g>
			<g>
				<path class="st7" d="M330.7,109.6l-1.1,2c-0.2,0.4-0.2,0.9,0,1.3l1.1,2c0.2,0.4,0.7,0.6,1.1,0.6h2.3c0.3,0,0.5-0.1,0.8-0.3l0-3
					c0-1.1-0.2-2.2-0.5-3.2c-0.1,0-0.2,0-0.3,0h-2.3C331.4,109,331,109.2,330.7,109.6z"/>
			</g>
			<g>
				<path class="st7" d="M319,116.8c0.3,0.4,0.7,0.7,1.2,0.7h2.5c0.5,0,1-0.3,1.2-0.7l1.2-2.1c0.3-0.4,0.3-1,0-1.4l-1.2-2.1
					c-0.3-0.4-0.7-0.7-1.2-0.7h-2.5c-0.5,0-1,0.3-1.2,0.7l-1.2,2.1c-0.3,0.4-0.3,1,0,1.4L319,116.8z"/>
			</g>
			<g>
				<path class="st7" d="M294.1,39.7l-1.1,1.9c-0.2,0.4-0.2,0.9,0,1.3l1.1,1.9c0.2,0.4,0.6,0.6,1.1,0.6h1.9
					c-0.1-2.2-0.4-4.3-0.9-6.3h-1C294.7,39.1,294.3,39.3,294.1,39.7z"/>
			</g>
			<g>
				<path class="st7" d="M331,137.6l0.7-1.3c0.1-0.3,0.1-0.6,0-0.8l-0.7-1.3c-0.1-0.3-0.4-0.4-0.7-0.4h-1.5c-0.2,0-0.4,0.1-0.6,0.2
					c0,1.4,0,2.7,0.1,3.8c0.1,0.1,0.3,0.2,0.5,0.2h1.5C330.5,138,330.8,137.9,331,137.6z"/>
			</g>
			<g>
				<path class="st7" d="M289.8,61.8c-0.2-0.3-0.6-0.6-1-0.6h-2c-0.4,0-0.8,0.2-1,0.6l-1,1.7c-0.2,0.3-0.2,0.8,0,1.1l1,1.7
					c0.2,0.3,0.6,0.6,1,0.6h2c0.4,0,0.8-0.2,1-0.6l1-1.7c0.2-0.3,0.2-0.8,0-1.1L289.8,61.8z"/>
			</g>
			<g>
				<path class="st7" d="M329.4,128.3c0.1,0.2,0.3,0.3,0.5,0.3h1c0.2,0,0.4-0.1,0.5-0.3l0.5-0.8c0.1-0.2,0.1-0.4,0-0.5l-0.5-0.8
					c-0.1-0.2-0.3-0.3-0.5-0.3h-1c-0.2,0-0.4,0.1-0.5,0.3l-0.5,0.8c-0.1,0.2-0.1,0.4,0,0.5L329.4,128.3z"/>
			</g>
			<g>
				<path class="st7" d="M321.3,99.8c0,0-0.1,0.1-0.1,0.1L320,102c-0.2,0.4-0.2,1,0,1.4l1.2,2.1c0.2,0.4,0.7,0.7,1.2,0.7h2.4
					c0.5,0,1-0.3,1.2-0.7l1.2-2.1c0.2-0.4,0.2-1,0-1.4l-0.7-1.1c-1.2-0.5-2.6-0.8-3.9-0.9C322.2,99.9,321.7,99.8,321.3,99.8z"/>
			</g>
			<g>
				<path class="st7" d="M330,122.2l0.9-1.5c0.2-0.3,0.2-0.7,0-1l-0.9-1.5c-0.2-0.3-0.5-0.5-0.9-0.5h-1.8c-0.4,0-0.7,0.2-0.9,0.5
					l-0.9,1.5c-0.2,0.3-0.2,0.7,0,1l0.9,1.5c0.2,0.3,0.5,0.5,0.9,0.5h1.8C329.5,122.7,329.9,122.5,330,122.2z"/>
			</g>
			<g>
				<path class="st7" d="M293.1,99.4l1-1.7c0.2-0.3,0.2-0.8,0-1.1l-1-1.7c-0.2-0.3-0.6-0.6-1-0.6h-1.9c-0.4,0-0.8,0.2-1,0.6l-1,1.7
					c-0.2,0.3-0.2,0.8,0,1.1l1,1.7c0.2,0.3,0.6,0.6,1,0.6h1.9C292.5,99.9,292.9,99.7,293.1,99.4z"/>
			</g>
			<g>
				<path class="st7" d="M286.1,110.5c0.2,0,0.4-0.1,0.5-0.3l0.5-0.8c0.1-0.2,0.1-0.4,0-0.5l-0.5-0.8c-0.1-0.2-0.3-0.3-0.5-0.3h-1
					c-0.2,0-0.4,0.1-0.5,0.3l-0.5,0.8c-0.1,0.2-0.1,0.4,0,0.5l0.5,0.8c0.1,0.2,0.3,0.3,0.5,0.3H286.1z"/>
			</g>
			<g>
				<path class="st7" d="M296.2,111.7l0.9-1.6c0.2-0.3,0.2-0.7,0-1.1l-0.9-1.6c-0.2-0.3-0.6-0.5-0.9-0.5h-1.9
					c-0.4,0-0.7,0.2-0.9,0.5l-0.9,1.6c-0.2,0.3-0.2,0.7,0,1.1l0.9,1.6c0.2,0.3,0.6,0.5,0.9,0.5h1.9C295.6,112.2,296,112,296.2,111.7
					z"/>
			</g>
			<g>
				<path class="st7" d="M283.2,97.9l0.5-0.9c0.1-0.2,0.1-0.4,0-0.6l-0.5-0.9c-0.1-0.2-0.3-0.3-0.5-0.3h-1c-0.2,0-0.4,0.1-0.5,0.3
					l-0.5,0.9c-0.1,0.2-0.1,0.4,0,0.6l0.5,0.9c0.1,0.2,0.3,0.3,0.5,0.3h1C282.9,98.1,283.1,98,283.2,97.9z"/>
			</g>
			<g>
				<path class="st7" d="M334.9,127.8H334c-0.4,0-0.7,0.2-0.9,0.5l-0.9,1.6c-0.2,0.3-0.2,0.7,0,1.1l0.9,1.6c0.2,0.3,0.5,0.5,0.9,0.5
					h0.9L334.9,127.8z"/>
			</g>
			<g>
				<path class="st7" d="M279.7,85.6c0.1,0.2,0.3,0.3,0.5,0.3h0.9c0.2,0,0.4-0.1,0.5-0.3l0.5-0.8c0.1-0.2,0.1-0.4,0-0.5l-0.5-0.8
					c-0.1-0.2-0.3-0.3-0.5-0.3h-0.9c-0.2,0-0.4,0.1-0.5,0.3l-0.5,0.8c-0.1,0.2-0.1,0.4,0,0.5L279.7,85.6z"/>
			</g>
			<g>
				<path class="st7" d="M317.1,121.6c0.2-0.3,0.2-0.8,0-1.1l-1-1.6c-0.2-0.3-0.6-0.5-0.9-0.5h-1.9c-0.4,0-0.8,0.2-0.9,0.5l-1,1.6
					c-0.2,0.3-0.2,0.8,0,1.1l0.7,1.2c1.4,0.1,2.7,0.3,4,0.4L317.1,121.6z"/>
			</g>
			<g>
				<path class="st7" d="M281.9,71.7l0.6-1.1c0.1-0.2,0.1-0.5,0-0.7l-0.4-0.7c-0.3,0.9-0.5,1.9-0.8,2.9
					C281.6,72,281.8,71.9,281.9,71.7z"/>
			</g>
			<g>
				<path class="st7" d="M283.2,103.2l0.8,1.3c0.2,0.3,0.4,0.4,0.7,0.4h1.5c0.3,0,0.6-0.2,0.7-0.4l0.8-1.3c0.2-0.3,0.2-0.6,0-0.9
					L287,101c-0.2-0.3-0.4-0.4-0.7-0.4h-1.5c-0.3,0-0.6,0.2-0.7,0.4l-0.8,1.3C283,102.6,283,102.9,283.2,103.2z"/>
			</g>
			<g>
				<path class="st7" d="M286.6,115.4l0.7,1.3c0.1,0.3,0.4,0.4,0.7,0.4h1.5c0.3,0,0.6-0.2,0.7-0.4l0.7-1.3c0.1-0.3,0.1-0.6,0-0.8
					l-0.7-1.3c-0.1-0.3-0.4-0.4-0.7-0.4h-1.5c-0.3,0-0.6,0.2-0.7,0.4l-0.7,1.3C286.5,114.8,286.5,115.1,286.6,115.4z"/>
			</g>
			<g>
				<path class="st7" d="M281.5,90.5l0.7,1.2c0.1,0.2,0.4,0.4,0.7,0.4h1.4c0.3,0,0.5-0.2,0.7-0.4l0.7-1.2c0.1-0.2,0.1-0.5,0-0.8
					l-0.7-1.2c-0.1-0.2-0.4-0.4-0.7-0.4h-1.4c-0.3,0-0.5,0.2-0.7,0.4l-0.7,1.2C281.3,90,281.3,90.3,281.5,90.5z"/>
			</g>
			<g>
				<path class="st7" d="M289,51h1.7c0.3,0,0.7-0.2,0.8-0.5l0.9-1.5c0.2-0.3,0.2-0.7,0-1l-0.9-1.5c-0.2-0.3-0.5-0.5-0.8-0.5H289
					c-0.3,0-0.7,0.2-0.8,0.5l-0.6,1.1c0,0.5-0.1,0.9-0.2,1.4l0.8,1.4C288.3,50.9,288.7,51,289,51z"/>
			</g>
			<g>
				<path class="st7" d="M295.2,101.9c0.1,0.2,0.4,0.4,0.6,0.4h1.3c0.3,0,0.5-0.1,0.6-0.4l0.6-1.1c0.1-0.2,0.1-0.5,0-0.7l-0.6-1.1
					c-0.1-0.2-0.4-0.4-0.6-0.4h-1.3c-0.3,0-0.5,0.1-0.6,0.4l-0.6,1.1c-0.1,0.2-0.1,0.5,0,0.7L295.2,101.9z"/>
			</g>
			<g>
				<path class="st7" d="M282.9,75.8l-1,1.7c-0.2,0.3-0.2,0.8,0,1.1l1,1.7c0.2,0.3,0.6,0.6,1,0.6h1.9c0.4,0,0.8-0.2,1-0.6l1-1.7
					c0.2-0.3,0.2-0.8,0-1.1l-1-1.7c-0.2-0.3-0.6-0.6-1-0.6h-1.9C283.5,75.2,283.1,75.4,282.9,75.8z"/>
			</g>
		</g>
		<path class="st10" d="M286.6,28.8c-5.5,0-13.5,13.6-13.5,13.6l2.6,2c0.8,0.6,1.8,0.7,2.6,0.3l16.8-8.5
			C295.2,36.2,292.1,28.8,286.6,28.8z"/>
		<path class="st10" d="M289,37.4c0.9,1.9-0.4,4.4-2.8,5.6s-5.2,0.6-6.1-1.3c-0.9-1.9,0.4-4.4,2.8-5.6
			C285.4,34.9,288.1,35.5,289,37.4z"/>
		<g>
			<path class="st10" d="M288,30.1c-0.6-0.1-1-0.6-0.9-1.2l0.6-3.7c0.1-0.6,0.6-1,1.2-0.9c0.6,0.1,1,0.6,0.9,1.2l-0.6,3.7
				C289.1,29.8,288.6,30.2,288,30.1z"/>
			<path class="st7" d="M291,24.7c-0.2,1.2-1.3,1.9-2.4,1.8c-1.2-0.2-1.9-1.3-1.8-2.4c0.2-1.2,1.3-1.9,2.4-1.8
				C290.4,22.5,291.2,23.6,291,24.7z"/>
		</g>
		<g>
			<path class="st13" d="M284.9,35.6c0,0-0.8,1.1-1.4,1.1c-0.6,0-1.1-0.5-1.1-1.1c0-0.6,0.5-1.1,1.1-1.1
				C284,34.5,284.9,35.6,284.9,35.6z"/>
		</g>
		<g>
			<path class="st10" d="M298.5,29.5c0,0-2,3.5-4.5,4.6c-2.5,1.1-4.2,0.5-4.7-0.8c-0.5-1.3,0.3-2.8,2.8-3.9
				C294.6,28.3,298.5,29.5,298.5,29.5z"/>
		</g>
		<g>
			<path class="st12" d="M291.6,33.4c-0.6,0-1-0.2-1.2-0.6c-0.1-0.2-0.1-0.5,0.1-0.9c0.3-0.5,1-1,2-1.4c0.6-0.2,1.3-0.4,2.2-0.4
				c0.6,0,1.2,0.1,1.7,0.1c-0.8,1-1.8,2.1-2.9,2.6C292.8,33.2,292.1,33.4,291.6,33.4z"/>
		</g>
		<path class="st10" d="M277.9,42.6c0.6-1.6,0.1-3.3-1.1-3.8c-1.2-0.5-2.8,0.4-3.4,2c-0.6,1.6-0.1,3.3,1.1,3.8
			C275.7,45.1,277.2,44.2,277.9,42.6z"/>
	</g>
	<g>
		<g>
			<path class="st14" d="M196.9,78.8v32.8h-2.6V78.8c0-0.3,0-0.5,0-0.8c-0.4-5.5-5-9.9-10.7-9.9h-4.8v-2.6h4.8
				c4.3,0,8.2,2.1,10.6,5.3C195.9,73,196.9,75.8,196.9,78.8z"/>
		</g>
		<path class="st15" d="M198.7,113.3c0,3.6-3.1,6.6-3.1,6.6s-3.1-2.9-3.1-6.6c0-3.6,1.4-6.6,3.1-6.6
			C197.3,106.7,198.7,109.7,198.7,113.3z"/>
		<path class="st16" d="M194.5,74.6c0,1.1-0.1,2.3-0.2,3.4c-0.4-5.5-5-9.9-10.7-9.9h-4.8v-2.6h4.8c4.3,0,8.2,2.1,10.6,5.3
			C194.4,72.1,194.5,73.3,194.5,74.6z"/>
		<path class="st15" d="M171.9,79.5v62.3c0,1.5-1.2,2.8-2.8,2.8h-9.9c-1,0-1.5-1.3-0.8-2l1.8-1.7V79.5c0-1.5,1.2-2.8,2.8-2.8h6.1
			C170.7,76.8,171.9,78,171.9,79.5z"/>
		<path class="st17" d="M162.8,144.1c0,0.2,0,0.4-0.1,0.5h-3.5c-0.1-0.2-0.1-0.3-0.1-0.5c0-1,0.8-1.8,1.8-1.8
			C162,142.3,162.8,143.1,162.8,144.1z"/>
		<path class="st17" d="M167.4,144.1c0,0.2,0,0.4-0.1,0.5h-3.5c-0.1-0.2-0.1-0.3-0.1-0.5c0-1,0.8-1.8,1.8-1.8
			S167.4,143.1,167.4,144.1z"/>
		<path class="st15" d="M110.3,79.5v62.3c0,1.5-1.2,2.8-2.8,2.8h-9.9c-1,0-1.5-1.3-0.8-2l1.8-1.7V79.5c0-1.5,1.2-2.8,2.8-2.8h6.1
			C109.1,76.8,110.3,78,110.3,79.5z"/>
		<path class="st17" d="M101.2,144.1c0,0.2,0,0.4-0.1,0.5h-3.5c-0.1-0.2-0.1-0.3-0.1-0.5c0-1,0.8-1.8,1.8-1.8
			C100.4,142.3,101.2,143.1,101.2,144.1z"/>
		<path class="st17" d="M105.8,144.1c0,0.2,0,0.4-0.1,0.5h-3.5c-0.1-0.2-0.1-0.3-0.1-0.5c0-1,0.8-1.8,1.8-1.8
			S105.8,143.1,105.8,144.1z"/>
		<path class="st14" d="M127.4,79.5v62.3c0,1.5-1.2,2.8-2.8,2.8h-9.9c-1,0-1.5-1.3-0.8-2l1.8-1.7V79.5c0-1.5,1.2-2.8,2.8-2.8h6.1
			C126.2,76.8,127.4,78,127.4,79.5z"/>
		<path class="st17" d="M118.3,144.1c0,0.2,0,0.4-0.1,0.5h-3.5c-0.1-0.2-0.1-0.3-0.1-0.5c0-1,0.8-1.8,1.8-1.8
			C117.5,142.3,118.3,143.1,118.3,144.1z"/>
		<path class="st17" d="M122.9,144.1c0,0.2,0,0.4-0.1,0.5h-3.5c-0.1-0.2-0.1-0.3-0.1-0.5c0-1,0.8-1.8,1.8-1.8
			S122.9,143.1,122.9,144.1z"/>
		<g>
			<path class="st17" d="M66,89.6c-2.6-1.4-4.9-3.3-6.8-5.8c-0.6-0.8-0.5-2.1,0.4-2.7c0.8-0.6,2.1-0.5,2.7,0.4
				c2.7,3.5,6.6,5.8,11,6.4c4.4,0.6,8.8-0.5,12.4-3.2c0.8-0.6,2.1-0.5,2.7,0.4c0.6,0.8,0.5,2.1-0.4,2.7C81.4,92.8,72.8,93.2,66,89.6
				z"/>
		</g>
		<path class="st18" d="M112.5,35.6C112.5,35.5,112.4,35.5,112.5,35.6c-4.8-1.3-10.1-0.8-14.6,2L76.5,49.7l12.9,5.7
			c0.3,2.4,1.1,4.9,2.3,7.1l9.2,16.2c1.7,3.1,5.8,3.9,8.5,1.6c10.3-8.5,14.9-22.1,12.1-35C120.6,40.7,117.1,36.9,112.5,35.6z"/>
		<path class="st14" d="M179.1,68.1v9.4c0,12.8-10.5,23.3-23.3,23.3h-35.9c-12.8,0-23.3-10.5-23.3-23.3v-9.4
			c0-6.5,2.7-12.4,7.1-16.7c0,0,0.1-0.1,0.1-0.1c4.2-4,9.9-6.5,16.1-6.5h35.9C168.6,44.8,179.1,55.3,179.1,68.1z"/>
		<circle class="st14" cx="159.5" cy="73.1" r="32.4"/>
		<path class="st14" d="M106.7,72c5.6-10.8,2.2-23.7-7.6-28.7c-9.8-5-22.2-0.3-27.8,10.5c-5.6,10.8-6,31.8,3.8,36.8
			C84.9,95.6,101.1,82.8,106.7,72z"/>
		<path class="st16" d="M137.7,59.8c-4,12.5-18.8,23.3-32.7,24.4c-4.1-2.4-6.8-6-8.4-9.9c-4.2-9.9-1.5-21.8,3.3-21.8l3.8-1.2
			l21.1-6.6h7.7c0.8,0.6,1.5,1.2,2.2,1.9c0,0,0,0,0.1,0.1C138.1,50.1,139.2,55.2,137.7,59.8z"/>
		<path class="st14" d="M129.7,46.7C129.7,46.7,129.7,46.7,129.7,46.7c-3.5-3.5-8.4-5.6-13.7-5.4H91.5l8.4,11.3
			c-1,2.3-1.5,4.7-1.5,7.3v18.7c0,3.5,3.2,6.2,6.6,5.6c13.2-2.3,23.8-11.9,27.8-24.4C134.3,55.2,133.1,50.1,129.7,46.7z"/>
		<path class="st14" d="M84.2,76.2c-3.5,40.3-2.6,42.9-8.3,49.7c-3.1,3.8-7.2,6.1-11.3,7.1c-3.7,1.1-7.8,0.4-11.9,0.1
			c0-0.5,0.2-0.9,0.5-1.3c0.3-0.3,0.7-0.6,1.2-0.7l0.5-0.1l-0.5-0.1c-0.9-0.2-1.6-1-1.6-1.9v-0.3c0,0,5.4-0.5,5.4-0.5
			c-0.1,0-0.1,0-0.1,0c6.7-0.9,12-5.3,12.7-12.4c0.1-1,0.1-2,0-3c0,0,0-0.1,0-0.1c-0.1-0.7-0.1-1.7-0.3-3c-0.1-0.9-0.2-2-0.3-3.1
			c-0.1-0.9-0.2-1.9-0.3-3c-0.1-1-0.2-2.1-0.3-3.1c-0.1-1-0.2-2-0.3-3c-0.1-1-0.2-2.1-0.3-3.1c-0.1-1-0.2-2-0.3-3
			c-0.1-1.1-0.2-2.1-0.3-3.1c-0.1-1-0.2-2-0.3-3c-0.1-1.1-0.2-2.2-0.3-3.1c-0.1-1.1-0.2-2.1-0.3-3c-0.1-1.3-0.2-2.3-0.3-3H84.2z"/>
		<path class="st13" d="M83.7,66.6c0,0.8-0.7,1.5-1.5,1.5c-0.8,0-1.5-0.7-1.5-1.5c0-0.8,0.7-1.5,1.5-1.5
			C83.1,65.1,83.7,65.8,83.7,66.6z"/>
		<path class="st18" d="M74.3,114.4c0,0.4-0.2,0.8-0.5,1.1c-0.3,0.3-0.7,0.5-1.1,0.5h-1.9c0.1-1,0.1-2,0-3c0,0,0-0.1,0-0.1h1.9
			C73.5,112.9,74.3,113.6,74.3,114.4z"/>
		<path class="st18" d="M74.3,108.3c0,0.4-0.2,0.8-0.5,1.1c-0.3,0.3-0.7,0.5-1.1,0.5h-2.1c-0.1-0.9-0.2-2-0.3-3.1h2.4
			C73.5,106.7,74.3,107.4,74.3,108.3z"/>
		<path class="st18" d="M74.3,102.2c0,0.4-0.2,0.8-0.5,1.1c-0.3,0.3-0.7,0.5-1.1,0.5H70c-0.1-1-0.2-2.1-0.3-3.1h2.9
			C73.5,100.6,74.3,101.3,74.3,102.2z"/>
		<path class="st18" d="M74.3,96c0,0.4-0.2,0.8-0.5,1.1c-0.3,0.3-0.7,0.5-1.1,0.5h-3.2c-0.1-1-0.2-2.1-0.3-3.1h3.5
			C73.5,94.5,74.3,95.2,74.3,96z"/>
		<path class="st18" d="M74.3,89.9c0,0.4-0.2,0.8-0.5,1.1c-0.3,0.3-0.7,0.5-1.1,0.5h-3.7c-0.1-1.1-0.2-2.1-0.3-3.1h4
			C73.5,88.3,74.3,89,74.3,89.9z"/>
		<path class="st18" d="M74.3,83.8c0,0.4-0.2,0.8-0.5,1.1c-0.3,0.3-0.7,0.5-1.1,0.5h-4.3c-0.1-1.1-0.2-2.2-0.3-3.1h4.6
			C73.5,82.2,74.3,82.9,74.3,83.8z"/>
		<path class="st18" d="M74.3,77.6c0,0.4-0.2,0.8-0.5,1.1c-0.3,0.3-0.7,0.5-1.1,0.5h-4.8c-0.1-1.3-0.2-2.3-0.3-3h5.7
			C73.9,76.4,74.3,77,74.3,77.6z"/>
		<g>
			<path class="st19" d="M68.9,99.4c-2.9,0-5.9-0.6-8.7-1.9c-1-0.5-1.4-1.6-0.9-2.6c0.5-1,1.6-1.4,2.6-0.9c4,1.9,8.5,2.1,12.7,0.6
				c4.2-1.5,7.6-4.6,9.4-8.6c0.5-1,1.6-1.4,2.6-0.9c1,0.5,1.4,1.6,0.9,2.6C84,95,76.6,99.4,68.9,99.4z"/>
		</g>
		<path class="st14" d="M189,79.5v62.3c0,1.5-1.2,2.8-2.8,2.8h-9.9c-1,0-1.5-1.3-0.8-2l1.8-1.7V79.5c0-1.5,1.2-2.8,2.8-2.8h6.1
			C187.8,76.8,189,78,189,79.5z"/>
		<path class="st17" d="M179.9,144.1c0,0.2,0,0.4-0.1,0.5h-3.5c-0.1-0.2-0.1-0.3-0.1-0.5c0-1,0.8-1.8,1.8-1.8
			S179.9,143.1,179.9,144.1z"/>
		<path class="st17" d="M184.5,144.1c0,0.2,0,0.4-0.1,0.5h-3.5c-0.1-0.2-0.1-0.3-0.1-0.5c0-1,0.8-1.8,1.8-1.8
			C183.7,142.3,184.5,143.1,184.5,144.1z"/>
	</g>
	<g>
		<circle class="st20" cx="132.7" cy="170.7" r="37.6"/>
	</g>
	<g>
		<g>
			<path class="st0" d="M130.1,183.5c0,1.4-0.8,2.1-2.4,2.1h-13.5c-1.6,0-2.4-0.7-2.4-2.1c0-1.4,0.8-2,2.4-2h4.2v-18.2l-3.8,2.4
				c-0.4,0.2-0.7,0.3-1,0.3c-0.6,0-1-0.2-1.4-0.7s-0.6-1-0.6-1.6c0-0.8,0.3-1.4,1-1.8l6.2-3.8c0.8-0.5,1.6-0.7,2.3-0.7
				c0.7,0,1.3,0.2,1.8,0.7c0.5,0.5,0.7,1.1,0.7,1.9v21.7h4.2C129.3,181.5,130.1,182.2,130.1,183.5z"/>
			<path class="st0" d="M148.8,168.7c1.3,0.8,2.4,1.8,3.1,3.2c0.7,1.4,1.1,2.9,1.1,4.7c0,1.8-0.4,3.5-1.3,4.9
				c-0.8,1.4-2,2.5-3.6,3.3c-1.5,0.8-3.3,1.2-5.3,1.2c-1.7,0-3.3-0.3-4.9-0.8c-1.6-0.5-2.9-1.3-4.1-2.2c-0.6-0.5-0.9-1.2-0.9-1.9
				c0-0.6,0.2-1.1,0.5-1.5c0.3-0.4,0.7-0.6,1.2-0.6c0.3,0,0.5,0,0.8,0.1c0.2,0.1,0.5,0.2,0.8,0.5c1.1,0.7,2.1,1.3,3.1,1.7
				s2.1,0.6,3.2,0.6c1.8,0,3.1-0.4,4-1.3c0.9-0.9,1.4-2.1,1.4-3.8c0-1.6-0.5-2.8-1.4-3.7s-2.2-1.4-3.9-1.4c-1,0-2,0.1-2.8,0.4
				c-0.8,0.3-1.6,0.8-2.5,1.5c-0.5,0.3-1,0.5-1.6,0.5c-0.5,0-1-0.2-1.4-0.5c-0.4-0.3-0.6-0.7-0.6-1.3v-12.5c0-0.7,0.2-1.3,0.6-1.8
				c0.4-0.4,1-0.6,1.8-0.6h13.3c1.6,0,2.4,0.7,2.4,2c0,1.3-0.8,2-2.4,2h-10.7v7.6c1.4-1,3-1.4,5-1.4
				C145.9,167.6,147.4,168,148.8,168.7z"/>
		</g>
	</g>
	<g>
		<circle class="st20" cx="309.7" cy="170.7" r="37.6"/>
	</g>
	<g>
		<g>
			<path class="st0" d="M307,182.5c0,1.4-0.8,2.1-2.4,2.1h-13.5c-1.6,0-2.4-0.7-2.4-2.1c0-1.4,0.8-2,2.4-2h4.2v-18.2l-3.8,2.4
				c-0.4,0.2-0.7,0.3-1,0.3c-0.6,0-1-0.2-1.4-0.7s-0.6-1-0.6-1.6c0-0.8,0.3-1.4,1-1.8l6.2-3.8c0.8-0.5,1.6-0.7,2.3-0.7
				c0.7,0,1.3,0.2,1.8,0.7c0.5,0.5,0.7,1.1,0.7,1.9v21.7h4.2C306.2,180.5,307,181.2,307,182.5z"/>
			<path class="st0" d="M329.9,182.5c0,1.4-0.8,2.1-2.4,2.1h-15.2c-0.7,0-1.2-0.2-1.6-0.6c-0.4-0.4-0.6-0.9-0.6-1.5
				c0-0.8,0.3-1.5,0.9-2.2l9.1-9.8c1.1-1.2,1.9-2.4,2.5-3.4c0.5-1,0.8-2,0.8-3.1c0-1.3-0.4-2.2-1.1-2.9c-0.7-0.7-1.7-1-3.1-1
				c-1.1,0-2.2,0.2-3.2,0.6c-1,0.4-2.1,1-3.1,1.7c-0.3,0.2-0.5,0.3-0.8,0.5c-0.3,0.1-0.5,0.2-0.8,0.2c-0.5,0-0.8-0.2-1.2-0.6
				c-0.3-0.4-0.5-0.9-0.5-1.5c0-0.4,0.1-0.7,0.2-1c0.1-0.3,0.4-0.6,0.7-0.8c1.2-0.9,2.5-1.7,4.1-2.2c1.6-0.5,3.1-0.8,4.7-0.8
				c2.7,0,4.9,0.7,6.6,2.1c1.6,1.4,2.5,3.3,2.5,5.6c0,1.6-0.3,3.2-1,4.6c-0.7,1.4-1.9,3-3.5,4.8l-6.9,7.4h10.6
				C329.1,180.5,329.9,181.2,329.9,182.5z"/>
		</g>
	</g>
	<g>
		<circle class="st20" cx="132.7" cy="330.2" r="37.6"/>
	</g>
	<g>
		<g>
			<path class="st0" d="M138.5,320.2c1.9,2.4,2.9,5.9,2.9,10.3c0,3.1-0.5,5.7-1.4,8c-0.9,2.3-2.2,4-3.9,5.2c-1.7,1.2-3.7,1.8-6,1.8
				c-1.5,0-3-0.3-4.6-0.8c-1.5-0.5-2.8-1.3-3.9-2.2c-0.3-0.3-0.6-0.6-0.7-0.9c-0.1-0.3-0.2-0.6-0.2-1c0-0.6,0.2-1.1,0.5-1.5
				c0.3-0.4,0.7-0.6,1.2-0.6c0.3,0,0.5,0,0.8,0.1c0.2,0.1,0.5,0.2,0.9,0.5c2.2,1.5,4.2,2.3,5.9,2.3c1.9,0,3.5-0.9,4.6-2.7
				c1.1-1.8,1.7-4.3,1.8-7.6c-0.6,1.2-1.5,2.2-2.8,2.9c-1.2,0.7-2.6,1.1-4.1,1.1c-1.7,0-3.2-0.4-4.5-1.1c-1.3-0.8-2.3-1.8-3.1-3.2
				c-0.7-1.4-1.1-2.9-1.1-4.7c0-1.8,0.4-3.4,1.2-4.9c0.8-1.4,1.9-2.5,3.4-3.3s3-1.2,4.9-1.2C133.8,316.5,136.5,317.8,138.5,320.2z
				 M134.1,329.5c0.9-0.9,1.4-2.2,1.4-3.7c0-1.5-0.5-2.8-1.4-3.7c-0.9-0.9-2.1-1.4-3.6-1.4c-1.5,0-2.6,0.5-3.5,1.4
				c-0.9,0.9-1.3,2.2-1.3,3.7s0.4,2.8,1.3,3.7c0.9,0.9,2.1,1.4,3.5,1.4C132,330.9,133.2,330.4,134.1,329.5z"/>
		</g>
	</g>
	<g>
		<path class="st4" d="M286.6,318.7h-5.8c0.4-2,2.1-3.9,5.1-4.9L286.6,318.7z"/>
		<path class="st21" d="M286.6,318.7c-1.4,0-2.5-1.1-2.5-2.5v-29.5c0-1.4,1.1-2.5,2.5-2.5c1.4,0,2.5,1.1,2.5,2.5v29.5
			C289,317.6,287.9,318.7,286.6,318.7z"/>
		<path class="st4" d="M328.8,318.7h-5.8c0.4-2,2.1-3.9,5.1-4.9L328.8,318.7z"/>
		<path class="st21" d="M328.8,318.7c-1.4,0-2.5-1.1-2.5-2.5v-35.4c0-1.4,1.1-2.5,2.5-2.5c1.4,0,2.5,1.1,2.5,2.5v35.4
			C331.3,317.6,330.2,318.7,328.8,318.7z"/>
		<path class="st21" d="M324.9,276.7h3.8c0.9,0,1.6,0.7,1.6,1.6v21.1c0,0.9-0.7,1.6-1.6,1.6c-3,0-5.4-2.4-5.4-5.4v-17.3
			C323.3,277.5,324,276.7,324.9,276.7z"/>
		<path class="st2" d="M284.1,302.4v13.8c0,1.4,1.1,2.5,2.5,2.5c1.4,0,2.5-1.1,2.5-2.5v-13C287.4,303,285.7,302.7,284.1,302.4z"/>
		<path class="st2" d="M326.4,305v11.3c0,1.4,1.1,2.5,2.5,2.5s2.5-1.1,2.5-2.5v-11.6C329.7,304.8,328,304.9,326.4,305z"/>
		<path class="st7" d="M343.3,276.7c-0.8,1.2-2,2-3.5,2.2c-2.9,0.4-5.6-2-6-5.3c-0.4-3.3,1.6-6.3,4.5-6.6c0.4-0.1,0.9-0.1,1.3,0
			c2.4,0.3,4.4,2.5,4.7,5.2C344.6,274,344.1,275.5,343.3,276.7z"/>
		<path class="st6" d="M343.3,276.7c-0.8,1.2-2,2-3.5,2.2c-2.9,0.4-5.6-2-6-5.3c-0.4-3.3,1.6-6.3,4.5-6.6c0.4-0.1,0.9-0.1,1.3,0
			C341.5,269.6,342.7,272.8,343.3,276.7z"/>
		<path class="st4" d="M297.5,318.7h-5.8c0.4-2,2.1-3.9,5.1-4.9L297.5,318.7z"/>
		<path class="st7" d="M297.5,318.7c-1.4,0-2.5-1.1-2.5-2.5v-29.5c0-1.4,1.1-2.5,2.5-2.5c1.4,0,2.5,1.1,2.5,2.5v29.5
			C300,317.6,298.9,318.7,297.5,318.7z"/>
		<path class="st6" d="M273.1,263.4c0,3.2-3.4,5.8-7.7,5.8c-4.2,0-7.7-2.6-7.7-5.8c0-3.2,3.4-5.8,7.7-5.8
			C269.7,257.5,273.1,260.1,273.1,263.4z"/>
		<path class="st7" d="M321.2,260c-4.1,0.6-8.4-0.2-11.9-2.5l-1.5-0.9c-3.6-2.3-8.1-3.3-12.3-2.4c-6.8,1.4-14.3,0-18.1-0.9
			c-1.4-2.7-4.3-4.6-7.6-4.6c-1.2,0-2.4,0.3-3.4,0.7c-0.7,0.1-1.4,0.3-2,0.8l-13.8,9.4c-2.2,1.5-2.7,4.4-1.3,6.6l1.4,2
			c1.5,2.2,4.4,2.7,6.6,1.3l7.5-5.1c1.4,1,3.2,1.7,5.1,1.7c0.8,0,1.6-0.1,2.3-0.3c0.5,5.4,1.9,10.1,4.2,14.2
			c3.9,7.3,11.6,11.8,19.9,11.8h2c10.2,3.5,25.1-1.6,25.1-1.6l13.3-1.8l5.5-7.3C342.1,266.4,335.8,257.8,321.2,260z"/>
		<path class="st2" d="M299.4,232.9v3.8c0,6.9-5.7,12.6-12.6,12.6h-25.1c-4.3,0-7.9-3.5-7.9-7.9v-8.5c0-1.3,1.1-2.4,2.4-2.4
			s2.4,1.1,2.4,2.4v7.6c0,1.3,1.1,2.4,2.4,2.4h1.4c1.3,0,2.4-1.1,2.4-2.4v-7.6c0-1.3,1.1-2.4,2.4-2.4h1.2c1.3,0,2.4,1.1,2.4,2.4v7.6
			c0,1.3,1.1,2.4,2.4,2.4h1.4c1.3,0,2.4-1.1,2.4-2.4v-7.6c0-1.3,1.1-2.4,2.4-2.4h1.2c1.3,0,2.4,1.1,2.4,2.4v7.6
			c0,1.3,1.1,2.4,2.4,2.4h1.4c1.3,0,2.4-1.1,2.4-2.4v-7.6c0-1.3,1.1-2.4,2.4-2.4h5.8C298.3,230.6,299.4,231.6,299.4,232.9z"/>
		<path class="st2" d="M278.8,246.4l-8.1,7c-1,0.9-2.5,0.8-3.4-0.2c-0.9-1-0.8-2.5,0.2-3.4l8.1-7c1-0.9,2.5-0.8,3.4,0.2
			C280,243.9,279.8,245.5,278.8,246.4z"/>
		<path class="st6" d="M274.6,255.4c0.9,1.4,2.9,2.8,5.4,3.5c2.5,0.8,5.2,0,6.7-0.7c0.9-0.4,1.4-0.7,1.4-0.7s-2-4.6-5.9-5.9
			c-3.9-1.2-7.5-0.6-8.2,1.5C273.8,253.8,274,254.6,274.6,255.4z"/>
		<path class="st22" d="M274.6,255.4c0.9,1.4,2.9,2.8,5.4,3.5c2.5,0.8,5.2,0,6.7-0.7c-1-1.3-2.5-2.8-4.5-3.5
			C278.9,253.8,275.8,254.1,274.6,255.4z"/>
		<path class="st9" d="M264.8,255.8c0,0,0,1.2-0.6,1.6c-0.6,0.4-1.7-0.2-1.7-0.2s0-1.2,0.6-1.6C263.7,255.2,264.8,255.8,264.8,255.8
			z"/>
		<g>
			<path class="st6" d="M269,271.2c0,2.3-2.8,4.2-2.8,4.2s-2.8-1.9-2.8-4.2c0-2.3,1.2-4.2,2.8-4.2S269,268.9,269,271.2z"/>
			<g>
				<path class="st6" d="M266.2,270.1c0,2.3-1.9,4.2-1.9,4.2s-1.9-1.9-1.9-4.2c0-2.3,0.9-4.2,1.9-4.2
					C265.4,265.8,266.2,267.7,266.2,270.1z"/>
				<path class="st6" d="M270.1,270.1c0,2.3-1.9,4.2-1.9,4.2s-1.9-1.9-1.9-4.2c0-2.3,0.9-4.2,1.9-4.2
					C269.3,265.8,270.1,267.7,270.1,270.1z"/>
			</g>
		</g>
		<path class="st8" d="M254.2,265.7c-0.5,0.5-1.3,0.7-2,0.4c-0.4-0.1-0.5-0.6-0.2-0.9l1.7-1.7c0.3-0.3,0.7-0.2,0.9,0.2
			C254.8,264.4,254.7,265.2,254.2,265.7z"/>
		<path class="st4" d="M339.7,318.7h-5.8c0.4-2,2.1-3.9,5.1-4.9L339.7,318.7z"/>
		<path class="st7" d="M339.7,318.7c-1.4,0-2.5-1.1-2.5-2.5v-35.4c0-1.4,1.1-2.5,2.5-2.5c1.4,0,2.5,1.1,2.5,2.5v35.4
			C342.1,317.6,341,318.7,339.7,318.7z"/>
		<path class="st7" d="M335.8,276.7h3.8c0.9,0,1.6,0.7,1.6,1.6v21.1c0,0.9-0.7,1.6-1.6,1.6c-3,0-5.4-2.4-5.4-5.4v-17.3
			C334.2,277.5,334.9,276.7,335.8,276.7z"/>
		<path class="st2" d="M295.1,304.1v12.2c0,1.4,1.1,2.5,2.5,2.5c1.4,0,2.5-1.1,2.5-2.5v-11.7C298.4,304.4,296.7,304.2,295.1,304.1z"
			/>
		<path class="st2" d="M337.2,304.1v12.2c0,1.4,1.1,2.5,2.5,2.5s2.5-1.1,2.5-2.5v-12.8C340.5,303.7,338.9,303.9,337.2,304.1z"/>
	</g>
	<g>
		<circle class="st20" cx="309.7" cy="330.2" r="37.6"/>
	</g>
	<g>
		<g>
			<path class="st0" d="M307.1,342c0,1.4-0.8,2.1-2.4,2.1h-13.5c-1.6,0-2.4-0.7-2.4-2.1c0-1.4,0.8-2,2.4-2h4.2v-18.2l-3.8,2.4
				c-0.4,0.2-0.7,0.3-1,0.3c-0.6,0-1-0.2-1.4-0.7s-0.6-1-0.6-1.6c0-0.8,0.3-1.4,1-1.8l6.2-3.8c0.8-0.5,1.6-0.7,2.3-0.7
				c0.7,0,1.3,0.2,1.8,0.7c0.5,0.5,0.7,1.1,0.7,1.9v21.7h4.2C306.3,339.9,307.1,340.6,307.1,342z"/>
			<path class="st0" d="M312,340.8c-1.8-2.5-2.6-6.1-2.6-10.8c0-4.7,0.9-8.3,2.6-10.7c1.8-2.5,4.3-3.7,7.6-3.7
				c3.3,0,5.9,1.2,7.6,3.7c1.8,2.5,2.6,6,2.6,10.7c0,4.7-0.9,8.3-2.6,10.8c-1.8,2.5-4.3,3.7-7.6,3.7
				C316.3,344.5,313.7,343.2,312,340.8z M323.6,337.9c0.8-1.7,1.2-4.3,1.2-7.9c0-3.7-0.4-6.3-1.2-7.9c-0.8-1.6-2.1-2.5-4-2.5
				s-3.1,0.8-4,2.5c-0.8,1.7-1.2,4.3-1.2,7.9c0,3.6,0.4,6.3,1.2,7.9c0.8,1.7,2.1,2.5,4,2.5S322.7,339.6,323.6,337.9z"/>
		</g>
	</g>
</g>
</svg>
