<?xml version="1.0" encoding="utf-8"?>
<!-- Generator: Adobe Illustrator 22.1.0, SVG Export Plug-In . SVG Version: 6.00 Build 0)  -->
<svg version="1.1" id="Layer_1" xmlns="http://www.w3.org/2000/svg" xmlns:xlink="http://www.w3.org/1999/xlink" x="0px" y="0px"
	 viewBox="0 0 400 400" style="enable-background:new 0 0 400 400;" xml:space="preserve">
<style type="text/css">
	.st0{fill:#FFCC33;}
	.st1{fill:#FFFFFF;}
	.st2{fill:#565759;}
	.st3{fill:#990000;}
	.st4{fill:#490A3D;}
	.st5{fill:none;stroke:#CCCCCC;stroke-width:2;stroke-linecap:round;stroke-linejoin:round;}
	.st6{fill:none;stroke:#CCCCCC;stroke-width:2;stroke-linecap:round;stroke-linejoin:round;stroke-dasharray:0,5.9371;}
	.st7{fill:none;stroke:#CCCCCC;stroke-width:2;stroke-linecap:round;stroke-linejoin:round;stroke-dasharray:0,5.8603;}
	.st8{fill:none;stroke:#CCCCCC;stroke-width:2;stroke-linecap:round;stroke-linejoin:round;stroke-dasharray:0,5.9093;}
	.st9{fill:none;stroke:#CCCCCC;stroke-width:2;stroke-linecap:round;stroke-linejoin:round;stroke-dasharray:0,5.986;}
	.st10{fill:#AAB5BC;}
	.st11{fill:#C2C8CC;}
	.st12{fill:#81C562;}
	.st13{fill:#EBF0F2;}
	.st14{fill:#55CAF0;}
	.st15{fill:#1F99AD;}
	.st16{fill:#6A3311;}
	.st17{fill:#A8431A;}
	.st18{fill:#ED3F32;}
	.st19{fill:#F9EA80;}
	.st20{fill:#D28F1B;}
	.st21{fill:#FDE3AA;}
	.st22{fill:#8B9AA3;}
	.st23{fill:#D5DEE2;}
	.st24{fill:#68A547;}
	.st25{fill:#FFB000;}
	.st26{fill:#FFD01F;}
	.st27{fill:#D9FBFF;}
	.st28{fill:#F4900C;}
	.st29{opacity:0.5;fill:#662113;enable-background:new    ;}
	.st30{fill:#FFE8B6;}
</style>
<g>
	<path class="st0" d="M334.9,171H59.1c-4.8,0-8.6-3.9-8.6-8.6V15.6c0-4.8,3.9-8.6,8.6-8.6h275.7c4.8,0,8.6,3.9,8.6,8.6v146.7
		C343.5,167.1,339.6,171,334.9,171z"/>
	<path class="st1" d="M324.8,165.3c0-7.2,5.9-13.1,13.1-13.1V63c-7.2,0-13-5.8-13.1-12.9c-0.1-0.1-0.1-0.1-0.2-0.2H69.4
		c-0.1,0.1-0.1,0.1-0.2,0.2C69.1,57.2,63.3,63,56.1,63v89.3c7.2,0,13.1,5.9,13.1,13.1c0,0,0,0,0,0c0.1,0.1,0.1,0.1,0.2,0.2h255.2
		C324.6,165.5,324.7,165.4,324.8,165.3C324.8,165.3,324.8,165.3,324.8,165.3z"/>
</g>
<g>
	<g>
		<g>
			<path class="st2" d="M77.7,78.5c-0.8-0.5-1.4-1.1-1.8-2c-0.4-0.9-0.6-1.9-0.6-3.1c0-1.2,0.2-2.2,0.6-3.1s1-1.5,1.8-2
				c0.8-0.5,1.7-0.7,2.8-0.7c0.7,0,1.4,0.1,2,0.3c0.6,0.2,1.2,0.6,1.7,1c0.2,0.2,0.3,0.3,0.3,0.6c0,0.1,0,0.3-0.1,0.4
				s-0.2,0.2-0.3,0.2c-0.1,0-0.3-0.1-0.5-0.2c-0.5-0.4-1-0.7-1.5-0.9c-0.4-0.2-1-0.3-1.5-0.3c-1.2,0-2.2,0.4-2.9,1.2
				c-0.7,0.8-1,1.9-1,3.4c0,1.5,0.3,2.6,1,3.4c0.7,0.8,1.6,1.2,2.9,1.2c0.6,0,1.1-0.1,1.5-0.3c0.4-0.2,0.9-0.5,1.5-0.9
				c0.2-0.1,0.3-0.2,0.5-0.2c0.1,0,0.2,0.1,0.3,0.2s0.1,0.2,0.1,0.4c0,0.2-0.1,0.4-0.3,0.6c-0.5,0.4-1,0.8-1.7,1
				c-0.6,0.2-1.3,0.3-2,0.3C79.4,79.2,78.5,78.9,77.7,78.5z"/>
			<path class="st2" d="M92.3,74.1v4.4c0,0.2-0.1,0.3-0.2,0.5s-0.3,0.2-0.5,0.2s-0.3-0.1-0.5-0.2c-0.1-0.1-0.2-0.3-0.2-0.5v-0.8
				c-0.2,0.5-0.5,0.8-0.9,1.1c-0.4,0.2-0.9,0.4-1.4,0.4c-0.5,0-1-0.1-1.4-0.3c-0.4-0.2-0.8-0.5-1-0.8c-0.2-0.4-0.4-0.8-0.4-1.2
				c0-0.6,0.1-1,0.4-1.4c0.3-0.3,0.8-0.6,1.5-0.7c0.7-0.1,1.6-0.2,2.8-0.2H91V74c0-0.6-0.1-1.1-0.4-1.4c-0.3-0.3-0.7-0.4-1.3-0.4
				c-0.7,0-1.5,0.2-2.2,0.6c-0.3,0.2-0.5,0.3-0.6,0.3c-0.1,0-0.2,0-0.3-0.1c-0.1-0.1-0.1-0.2-0.1-0.4s0-0.3,0.1-0.4s0.2-0.2,0.4-0.3
				c0.4-0.2,0.8-0.4,1.3-0.5c0.5-0.1,0.9-0.2,1.4-0.2C91.3,71,92.3,72.1,92.3,74.1z M90.4,77.5c0.4-0.4,0.6-1,0.6-1.7v-0.5h-0.3
				c-0.9,0-1.7,0-2.1,0.1c-0.5,0.1-0.8,0.2-1,0.4s-0.3,0.5-0.3,0.8c0,0.4,0.2,0.8,0.5,1c0.3,0.3,0.7,0.4,1.1,0.4
				C89.4,78.1,90,77.9,90.4,77.5z"/>
			<path class="st2" d="M96.8,69.3c-0.3,0.3-0.4,0.8-0.4,1.4v0.5h1.8c0.2,0,0.3,0,0.4,0.1c0.1,0.1,0.1,0.2,0.1,0.4s0,0.3-0.1,0.4
				c-0.1,0.1-0.2,0.1-0.4,0.1h-1.8v6.2c0,0.2-0.1,0.4-0.2,0.5c-0.1,0.1-0.3,0.2-0.5,0.2c-0.2,0-0.3-0.1-0.5-0.2s-0.2-0.3-0.2-0.5
				v-6.2H94c-0.2,0-0.3,0-0.4-0.1c-0.1-0.1-0.2-0.2-0.2-0.4c0-0.2,0.1-0.3,0.2-0.4c0.1-0.1,0.2-0.1,0.4-0.1h1.1V71
				c0-1,0.2-1.7,0.7-2.3c0.5-0.5,1.2-0.9,2.1-0.9l0.4,0c0.3,0,0.5,0,0.6,0.1C99,67.9,99,68,99,68.2c0,0.3-0.2,0.5-0.6,0.5l-0.4,0
				C97.5,68.8,97.1,69,96.8,69.3z"/>
			<path class="st2" d="M106.1,77.4c0.1,0.1,0.1,0.2,0.1,0.4c0,0.3-0.2,0.5-0.6,0.7c-0.4,0.2-0.8,0.4-1.2,0.5
				c-0.4,0.1-0.8,0.2-1.2,0.2c-1.2,0-2.2-0.4-2.9-1.1c-0.7-0.7-1-1.7-1-3c0-0.8,0.2-1.5,0.5-2.1c0.3-0.6,0.7-1.1,1.3-1.4
				c0.6-0.3,1.2-0.5,1.9-0.5c1,0,1.8,0.3,2.4,1c0.6,0.7,0.9,1.6,0.9,2.7c0,0.2,0,0.4-0.1,0.5c-0.1,0.1-0.2,0.1-0.4,0.1h-5.2
				c0.1,1.8,1,2.8,2.6,2.8c0.4,0,0.8-0.1,1.1-0.2c0.3-0.1,0.6-0.3,1-0.5c0.3-0.2,0.5-0.2,0.6-0.2C105.9,77.2,106,77.3,106.1,77.4z
				 M101.4,72.7c-0.4,0.4-0.7,1-0.7,1.8h4.5c0-0.8-0.2-1.4-0.6-1.8c-0.4-0.4-0.9-0.6-1.6-0.6C102.3,72.1,101.8,72.3,101.4,72.7z
				 M103,70.3c-0.1,0-0.2,0-0.3-0.1s-0.1-0.2-0.1-0.2c0-0.1,0-0.2,0.1-0.2l1.9-2.4c0.2-0.2,0.4-0.4,0.7-0.4c0.2,0,0.3,0.1,0.4,0.2
				c0.1,0.1,0.2,0.3,0.2,0.4c0,0.2-0.1,0.4-0.3,0.6l-2.3,2.1C103.2,70.3,103.1,70.3,103,70.3z"/>
			<path class="st2" d="M84.6,88.9c0.1,0.1,0.2,0.3,0.2,0.5v10.1c0,0.2-0.1,0.4-0.2,0.5c-0.1,0.1-0.3,0.2-0.5,0.2s-0.4-0.1-0.5-0.3
				L76.9,91v8.5c0,0.2-0.1,0.4-0.2,0.5c-0.1,0.1-0.3,0.2-0.5,0.2s-0.3-0.1-0.4-0.2c-0.1-0.1-0.2-0.3-0.2-0.5V89.3
				c0-0.2,0.1-0.4,0.2-0.5c0.1-0.1,0.3-0.2,0.5-0.2c0.2,0,0.4,0.1,0.5,0.3l6.6,8.9v-8.5c0-0.2,0.1-0.4,0.2-0.5
				c0.1-0.1,0.3-0.2,0.5-0.2C84.3,88.7,84.4,88.7,84.6,88.9z"/>
			<path class="st2" d="M93.4,95.1v4.4c0,0.2-0.1,0.3-0.2,0.5s-0.3,0.2-0.5,0.2s-0.3-0.1-0.5-0.2c-0.1-0.1-0.2-0.3-0.2-0.5v-0.8
				c-0.2,0.5-0.5,0.8-0.9,1.1c-0.4,0.2-0.9,0.4-1.4,0.4c-0.5,0-1-0.1-1.4-0.3c-0.4-0.2-0.8-0.5-1-0.8c-0.2-0.4-0.4-0.8-0.4-1.2
				c0-0.6,0.1-1,0.4-1.4c0.3-0.3,0.8-0.6,1.5-0.7c0.7-0.1,1.6-0.2,2.8-0.2h0.4V95c0-0.6-0.1-1.1-0.4-1.4c-0.3-0.3-0.7-0.4-1.3-0.4
				c-0.7,0-1.5,0.2-2.2,0.6C88,93.9,87.8,94,87.7,94c-0.1,0-0.2,0-0.3-0.1c-0.1-0.1-0.1-0.2-0.1-0.4s0-0.3,0.1-0.4s0.2-0.2,0.4-0.3
				c0.4-0.2,0.8-0.4,1.3-0.5c0.5-0.1,0.9-0.2,1.4-0.2C92.4,92,93.4,93.1,93.4,95.1z M91.5,98.5c0.4-0.4,0.6-1,0.6-1.7v-0.5h-0.3
				c-0.9,0-1.7,0-2.1,0.1c-0.5,0.1-0.8,0.2-1,0.4s-0.3,0.5-0.3,0.8c0,0.4,0.2,0.8,0.5,1c0.3,0.3,0.7,0.4,1.1,0.4
				C90.6,99.1,91.1,98.9,91.5,98.5z"/>
			<path class="st2" d="M100.3,92.6c0,0.2,0,0.3-0.1,0.4s-0.3,0.2-0.5,0.2l-0.5,0c-0.7,0.1-1.2,0.3-1.6,0.8c-0.3,0.4-0.5,1-0.5,1.6
				v3.9c0,0.2-0.1,0.4-0.2,0.5s-0.3,0.2-0.5,0.2s-0.3-0.1-0.5-0.2s-0.2-0.3-0.2-0.5v-6.8c0-0.2,0.1-0.4,0.2-0.5s0.3-0.2,0.5-0.2
				c0.2,0,0.3,0.1,0.4,0.2c0.1,0.1,0.2,0.3,0.2,0.5v0.9c0.2-0.5,0.5-0.8,1-1.1s0.9-0.4,1.4-0.4l0.2,0
				C100.1,92,100.3,92.2,100.3,92.6z"/>
			<path class="st2" d="M107.5,95.1v4.4c0,0.2-0.1,0.3-0.2,0.5s-0.3,0.2-0.5,0.2s-0.3-0.1-0.5-0.2c-0.1-0.1-0.2-0.3-0.2-0.5v-0.8
				c-0.2,0.5-0.5,0.8-0.9,1.1c-0.4,0.2-0.9,0.4-1.4,0.4c-0.5,0-1-0.1-1.4-0.3c-0.4-0.2-0.8-0.5-1-0.8c-0.2-0.4-0.4-0.8-0.4-1.2
				c0-0.6,0.1-1,0.4-1.4c0.3-0.3,0.8-0.6,1.5-0.7c0.7-0.1,1.6-0.2,2.8-0.2h0.4V95c0-0.6-0.1-1.1-0.4-1.4c-0.3-0.3-0.7-0.4-1.3-0.4
				c-0.7,0-1.5,0.2-2.2,0.6c-0.3,0.2-0.5,0.3-0.6,0.3c-0.1,0-0.2,0-0.3-0.1c-0.1-0.1-0.1-0.2-0.1-0.4s0-0.3,0.1-0.4s0.2-0.2,0.4-0.3
				c0.4-0.2,0.8-0.4,1.3-0.5c0.5-0.1,0.9-0.2,1.4-0.2C106.5,92,107.5,93.1,107.5,95.1z M105.6,98.5c0.4-0.4,0.6-1,0.6-1.7v-0.5h-0.3
				c-0.9,0-1.7,0-2.1,0.1c-0.5,0.1-0.8,0.2-1,0.4s-0.3,0.5-0.3,0.8c0,0.4,0.2,0.8,0.5,1c0.3,0.3,0.7,0.4,1.1,0.4
				C104.7,99.1,105.2,98.9,105.6,98.5z"/>
			<path class="st2" d="M116.6,95.1v4.3c0,0.2-0.1,0.4-0.2,0.5s-0.3,0.2-0.5,0.2s-0.4-0.1-0.5-0.2c-0.1-0.1-0.2-0.3-0.2-0.5v-4.3
				c0-0.7-0.1-1.3-0.4-1.6c-0.3-0.3-0.7-0.5-1.4-0.5c-0.7,0-1.3,0.2-1.7,0.7c-0.4,0.4-0.6,1-0.6,1.8v3.9c0,0.2-0.1,0.4-0.2,0.5
				c-0.1,0.1-0.3,0.2-0.5,0.2s-0.4-0.1-0.5-0.2c-0.1-0.1-0.2-0.3-0.2-0.5v-6.8c0-0.2,0.1-0.3,0.2-0.5c0.1-0.1,0.3-0.2,0.5-0.2
				c0.2,0,0.3,0.1,0.5,0.2c0.1,0.1,0.2,0.3,0.2,0.4v0.8c0.3-0.5,0.6-0.8,1.1-1.1c0.5-0.2,1-0.4,1.6-0.4
				C115.6,92,116.6,93.1,116.6,95.1z"/>
			<path class="st2" d="M116.7,102.8c-0.1-0.1-0.2-0.2-0.2-0.4c0-0.3,0.2-0.5,0.6-0.5l0.4,0c0.5,0,0.8-0.2,1.1-0.4
				c0.2-0.3,0.3-0.7,0.3-1.3v-7.5c0-0.2,0.1-0.4,0.2-0.5s0.3-0.2,0.5-0.2s0.3,0.1,0.5,0.2s0.2,0.3,0.2,0.5v7.4c0,0.9-0.2,1.6-0.6,2
				c-0.4,0.4-1,0.7-1.9,0.8l-0.4,0C117.1,103,116.9,102.9,116.7,102.8z M119,90.2c-0.2-0.1-0.2-0.3-0.2-0.6c0-0.2,0.1-0.4,0.2-0.6
				c0.2-0.1,0.4-0.2,0.6-0.2s0.5,0.1,0.6,0.2c0.2,0.2,0.2,0.3,0.2,0.6c0,0.2-0.1,0.4-0.2,0.6c-0.2,0.2-0.4,0.2-0.6,0.2
				S119.1,90.3,119,90.2z"/>
			<path class="st2" d="M128.8,95.1v4.4c0,0.2-0.1,0.3-0.2,0.5s-0.3,0.2-0.5,0.2s-0.3-0.1-0.5-0.2c-0.1-0.1-0.2-0.3-0.2-0.5v-0.8
				c-0.2,0.5-0.5,0.8-0.9,1.1c-0.4,0.2-0.9,0.4-1.4,0.4c-0.5,0-1-0.1-1.4-0.3c-0.4-0.2-0.8-0.5-1-0.8c-0.2-0.4-0.4-0.8-0.4-1.2
				c0-0.6,0.1-1,0.4-1.4c0.3-0.3,0.8-0.6,1.5-0.7c0.7-0.1,1.6-0.2,2.8-0.2h0.4V95c0-0.6-0.1-1.1-0.4-1.4c-0.3-0.3-0.7-0.4-1.3-0.4
				c-0.7,0-1.5,0.2-2.2,0.6c-0.3,0.2-0.5,0.3-0.6,0.3c-0.1,0-0.2,0-0.3-0.1c-0.1-0.1-0.1-0.2-0.1-0.4s0-0.3,0.1-0.4s0.2-0.2,0.4-0.3
				c0.4-0.2,0.8-0.4,1.3-0.5c0.5-0.1,0.9-0.2,1.4-0.2C127.8,92,128.8,93.1,128.8,95.1z M126.9,98.5c0.4-0.4,0.6-1,0.6-1.7v-0.5h-0.3
				c-0.9,0-1.7,0-2.1,0.1c-0.5,0.1-0.8,0.2-1,0.4s-0.3,0.5-0.3,0.8c0,0.4,0.2,0.8,0.5,1c0.3,0.3,0.7,0.4,1.1,0.4
				C125.9,99.1,126.5,98.9,126.9,98.5z"/>
			<path class="st2" d="M137.9,88.8c0.1,0.1,0.2,0.3,0.2,0.4v10.2c0,0.2-0.1,0.3-0.2,0.5c-0.1,0.1-0.3,0.2-0.5,0.2s-0.4-0.1-0.5-0.2
				c-0.1-0.1-0.2-0.3-0.2-0.5v-0.9c-0.2,0.5-0.6,0.9-1,1.1c-0.5,0.3-1,0.4-1.6,0.4c-0.7,0-1.3-0.2-1.8-0.5c-0.5-0.3-0.9-0.8-1.2-1.4
				s-0.4-1.3-0.4-2.1c0-0.8,0.1-1.5,0.4-2.1s0.7-1.1,1.2-1.4c0.5-0.3,1.1-0.5,1.8-0.5c0.6,0,1.1,0.1,1.6,0.4c0.5,0.3,0.8,0.6,1,1.1
				v-4.3c0-0.2,0.1-0.3,0.2-0.5c0.1-0.1,0.3-0.2,0.5-0.2S137.7,88.7,137.9,88.8z M136.1,98.3c0.4-0.5,0.6-1.2,0.6-2.2
				s-0.2-1.7-0.6-2.2c-0.4-0.5-1-0.8-1.8-0.8c-0.8,0-1.3,0.3-1.8,0.8c-0.4,0.5-0.6,1.2-0.6,2.2c0,0.9,0.2,1.7,0.6,2.2
				c0.4,0.5,1,0.8,1.8,0.8C135.1,99.1,135.7,98.8,136.1,98.3z"/>
			<path class="st2" d="M146.5,95.1v4.4c0,0.2-0.1,0.3-0.2,0.5s-0.3,0.2-0.5,0.2s-0.3-0.1-0.5-0.2c-0.1-0.1-0.2-0.3-0.2-0.5v-0.8
				c-0.2,0.5-0.5,0.8-0.9,1.1c-0.4,0.2-0.9,0.4-1.4,0.4c-0.5,0-1-0.1-1.4-0.3c-0.4-0.2-0.8-0.5-1-0.8c-0.2-0.4-0.4-0.8-0.4-1.2
				c0-0.6,0.1-1,0.4-1.4c0.3-0.3,0.8-0.6,1.5-0.7c0.7-0.1,1.6-0.2,2.8-0.2h0.4V95c0-0.6-0.1-1.1-0.4-1.4c-0.3-0.3-0.7-0.4-1.3-0.4
				c-0.7,0-1.5,0.2-2.2,0.6c-0.3,0.2-0.5,0.3-0.6,0.3c-0.1,0-0.2,0-0.3-0.1c-0.1-0.1-0.1-0.2-0.1-0.4s0-0.3,0.1-0.4s0.2-0.2,0.4-0.3
				c0.4-0.2,0.8-0.4,1.3-0.5c0.5-0.1,0.9-0.2,1.4-0.2C145.6,92,146.5,93.1,146.5,95.1z M144.7,98.5c0.4-0.4,0.6-1,0.6-1.7v-0.5H145
				c-0.9,0-1.7,0-2.1,0.1c-0.5,0.1-0.8,0.2-1,0.4s-0.3,0.5-0.3,0.8c0,0.4,0.2,0.8,0.5,1c0.3,0.3,0.7,0.4,1.1,0.4
				C143.7,99.1,144.3,98.9,144.7,98.5z"/>
			<path class="st2" d="M77,120.8c-0.7-0.2-1.3-0.6-1.8-1c-0.2-0.1-0.2-0.3-0.2-0.6c0-0.1,0-0.3,0.1-0.4c0.1-0.1,0.2-0.2,0.3-0.2
				c0.1,0,0.3,0.1,0.4,0.2c1,0.8,2.1,1.2,3.4,1.2c0.9,0,1.6-0.2,2.1-0.5c0.5-0.4,0.7-0.9,0.7-1.5c0-0.4-0.1-0.7-0.4-0.9
				c-0.2-0.2-0.5-0.4-0.9-0.6c-0.4-0.1-0.9-0.3-1.6-0.4c-0.9-0.2-1.6-0.4-2.2-0.6c-0.6-0.2-1-0.5-1.4-1s-0.5-1-0.5-1.6
				c0-0.6,0.2-1.2,0.5-1.7s0.8-0.9,1.5-1.2s1.3-0.4,2.1-0.4c0.7,0,1.4,0.1,2.1,0.3c0.6,0.2,1.2,0.6,1.6,1c0.2,0.2,0.3,0.4,0.3,0.6
				c0,0.1,0,0.3-0.1,0.4c-0.1,0.1-0.2,0.2-0.3,0.2s-0.3-0.1-0.5-0.2c-0.5-0.4-1-0.7-1.5-0.9c-0.4-0.2-1-0.3-1.6-0.3
				c-0.9,0-1.6,0.2-2.1,0.6c-0.5,0.4-0.7,0.9-0.7,1.5c0,0.6,0.2,1,0.6,1.3s1.1,0.5,2,0.7c1,0.2,1.7,0.5,2.3,0.6
				c0.6,0.2,1,0.5,1.4,0.9s0.6,0.9,0.6,1.6c0,0.6-0.2,1.2-0.5,1.7c-0.3,0.5-0.8,0.9-1.5,1.1c-0.6,0.3-1.3,0.4-2.2,0.4
				C78.5,121.2,77.7,121,77,120.8z"/>
			<path class="st2" d="M91.5,116.1v4.4c0,0.2-0.1,0.3-0.2,0.5s-0.3,0.2-0.5,0.2s-0.3-0.1-0.5-0.2c-0.1-0.1-0.2-0.3-0.2-0.5v-0.8
				c-0.2,0.5-0.5,0.8-0.9,1.1c-0.4,0.2-0.9,0.4-1.4,0.4c-0.5,0-1-0.1-1.4-0.3c-0.4-0.2-0.8-0.5-1-0.8c-0.2-0.4-0.4-0.8-0.4-1.2
				c0-0.6,0.1-1,0.4-1.4c0.3-0.3,0.8-0.6,1.5-0.7c0.7-0.1,1.6-0.2,2.8-0.2h0.4V116c0-0.6-0.1-1.1-0.4-1.4c-0.3-0.3-0.7-0.4-1.3-0.4
				c-0.7,0-1.5,0.2-2.2,0.6c-0.3,0.2-0.5,0.3-0.6,0.3c-0.1,0-0.2,0-0.3-0.1c-0.1-0.1-0.1-0.2-0.1-0.4s0-0.3,0.1-0.4s0.2-0.2,0.4-0.3
				c0.4-0.2,0.8-0.4,1.3-0.5c0.5-0.1,0.9-0.2,1.4-0.2C90.5,113,91.5,114.1,91.5,116.1z M89.6,119.5c0.4-0.4,0.6-1,0.6-1.7v-0.5h-0.3
				c-0.9,0-1.7,0-2.1,0.1c-0.5,0.1-0.8,0.2-1,0.4s-0.3,0.5-0.3,0.8c0,0.4,0.2,0.8,0.5,1c0.3,0.3,0.7,0.4,1.1,0.4
				C88.6,120.1,89.2,119.9,89.6,119.5z"/>
			<path class="st2" d="M100.5,116.1v4.3c0,0.2-0.1,0.4-0.2,0.5s-0.3,0.2-0.5,0.2s-0.4-0.1-0.5-0.2c-0.1-0.1-0.2-0.3-0.2-0.5v-4.3
				c0-0.7-0.1-1.3-0.4-1.6c-0.3-0.3-0.7-0.5-1.4-0.5c-0.7,0-1.3,0.2-1.7,0.7c-0.4,0.4-0.6,1-0.6,1.8v3.9c0,0.2-0.1,0.4-0.2,0.5
				c-0.1,0.1-0.3,0.2-0.5,0.2s-0.4-0.1-0.5-0.2c-0.1-0.1-0.2-0.3-0.2-0.5v-6.8c0-0.2,0.1-0.3,0.2-0.5c0.1-0.1,0.3-0.2,0.5-0.2
				c0.2,0,0.3,0.1,0.5,0.2c0.1,0.1,0.2,0.3,0.2,0.4v0.8c0.3-0.5,0.6-0.8,1.1-1.1c0.5-0.2,1-0.4,1.6-0.4
				C99.6,113,100.5,114.1,100.5,116.1z"/>
			<path class="st2" d="M109.7,109.8c0.1,0.1,0.2,0.3,0.2,0.4v10.2c0,0.2-0.1,0.3-0.2,0.5c-0.1,0.1-0.3,0.2-0.5,0.2
				s-0.4-0.1-0.5-0.2c-0.1-0.1-0.2-0.3-0.2-0.5v-0.9c-0.2,0.5-0.6,0.9-1,1.1c-0.5,0.3-1,0.4-1.6,0.4c-0.7,0-1.3-0.2-1.8-0.5
				c-0.5-0.3-0.9-0.8-1.2-1.4s-0.4-1.3-0.4-2.1c0-0.8,0.1-1.5,0.4-2.1s0.7-1.1,1.2-1.4c0.5-0.3,1.1-0.5,1.8-0.5
				c0.6,0,1.1,0.1,1.6,0.4c0.5,0.3,0.8,0.6,1,1.1v-4.3c0-0.2,0.1-0.3,0.2-0.5c0.1-0.1,0.3-0.2,0.5-0.2S109.5,109.7,109.7,109.8z
				 M107.9,119.3c0.4-0.5,0.6-1.2,0.6-2.2s-0.2-1.7-0.6-2.2c-0.4-0.5-1-0.8-1.8-0.8c-0.8,0-1.3,0.3-1.8,0.8
				c-0.4,0.5-0.6,1.2-0.6,2.2c0,0.9,0.2,1.7,0.6,2.2c0.4,0.5,1,0.8,1.8,0.8C106.9,120.1,107.5,119.8,107.9,119.3z"/>
			<path class="st2" d="M123.4,113.1c0.2,0,0.3,0.1,0.4,0.2s0.2,0.2,0.2,0.4c0,0.1,0,0.2,0,0.2l-2.7,6.7c-0.1,0.1-0.2,0.2-0.3,0.3
				s-0.3,0.1-0.4,0.1c-0.1,0-0.3,0-0.4-0.1c-0.1-0.1-0.2-0.2-0.3-0.3l-2.2-5.6l-2.2,5.6c-0.1,0.1-0.1,0.2-0.3,0.3s-0.3,0.1-0.4,0.1
				c-0.1,0-0.3,0-0.4-0.1s-0.2-0.2-0.3-0.3l-2.7-6.7c0-0.1,0-0.2,0-0.2c0-0.2,0.1-0.3,0.2-0.4s0.3-0.2,0.5-0.2
				c0.3,0,0.4,0.1,0.5,0.4l2.2,5.9l2.3-5.9c0.1-0.1,0.2-0.2,0.3-0.3c0.1-0.1,0.2-0.1,0.4-0.1c0.1,0,0.3,0,0.4,0.1
				c0.1,0.1,0.2,0.2,0.2,0.3l2.3,5.8l2.2-5.9C123,113.2,123.2,113.1,123.4,113.1z"/>
			<path class="st2" d="M125.7,111.2c-0.2-0.1-0.2-0.3-0.2-0.6c0-0.2,0.1-0.4,0.2-0.6c0.2-0.1,0.4-0.2,0.6-0.2s0.5,0.1,0.6,0.2
				c0.2,0.2,0.2,0.3,0.2,0.6c0,0.2-0.1,0.4-0.2,0.6c-0.2,0.2-0.4,0.2-0.6,0.2S125.9,111.3,125.7,111.2z M125.9,120.9
				c-0.1-0.1-0.2-0.3-0.2-0.5v-6.8c0-0.2,0.1-0.4,0.2-0.5s0.3-0.2,0.5-0.2s0.3,0.1,0.5,0.2s0.2,0.3,0.2,0.5v6.8
				c0,0.2-0.1,0.4-0.2,0.5s-0.3,0.2-0.5,0.2S126,121.1,125.9,120.9z"/>
			<path class="st2" d="M130.7,120.6c-0.6-0.3-1-0.8-1.3-1.4c-0.3-0.6-0.5-1.3-0.5-2.1c0-0.8,0.2-1.5,0.5-2.1
				c0.3-0.6,0.8-1.1,1.3-1.4c0.6-0.3,1.2-0.5,2-0.5c0.4,0,0.8,0.1,1.2,0.2c0.4,0.1,0.7,0.3,1,0.5c0.2,0.1,0.3,0.3,0.4,0.4
				c0.1,0.1,0.1,0.3,0.1,0.4s0,0.3-0.1,0.4c-0.1,0.1-0.2,0.1-0.3,0.1c-0.1,0-0.2,0-0.2-0.1c-0.1,0-0.2-0.1-0.2-0.1
				c-0.1,0-0.1-0.1-0.1-0.1c-0.3-0.2-0.5-0.3-0.8-0.4c-0.3-0.1-0.6-0.2-0.9-0.2c-0.8,0-1.4,0.3-1.8,0.8c-0.4,0.5-0.6,1.3-0.6,2.2
				c0,0.9,0.2,1.7,0.6,2.2c0.4,0.5,1,0.8,1.8,0.8c0.4,0,0.7-0.1,0.9-0.2c0.3-0.1,0.5-0.2,0.8-0.4c0.1-0.1,0.2-0.1,0.3-0.2
				c0.1-0.1,0.2-0.1,0.3-0.1c0.1,0,0.2,0,0.3,0.1c0.1,0.1,0.1,0.2,0.1,0.4c0,0.1,0,0.3-0.1,0.4c-0.1,0.1-0.2,0.2-0.4,0.4
				c-0.3,0.2-0.7,0.4-1.1,0.5c-0.4,0.1-0.8,0.2-1.3,0.2C131.9,121.1,131.3,121,130.7,120.6z"/>
			<path class="st2" d="M143.1,113.8c0.5,0.5,0.7,1.3,0.7,2.3v4.3c0,0.2-0.1,0.4-0.2,0.5c-0.1,0.1-0.3,0.2-0.5,0.2
				c-0.2,0-0.4-0.1-0.5-0.2c-0.1-0.1-0.2-0.3-0.2-0.5v-4.3c0-0.7-0.1-1.2-0.4-1.5c-0.3-0.3-0.7-0.5-1.4-0.5c-0.7,0-1.3,0.2-1.7,0.7
				c-0.4,0.4-0.6,1-0.6,1.8v3.9c0,0.2-0.1,0.4-0.2,0.5c-0.1,0.1-0.3,0.2-0.5,0.2s-0.4-0.1-0.5-0.2c-0.1-0.1-0.2-0.3-0.2-0.5v-10.2
				c0-0.2,0.1-0.3,0.2-0.4s0.3-0.2,0.5-0.2c0.2,0,0.4,0.1,0.5,0.2c0.1,0.1,0.2,0.3,0.2,0.5v4.2c0.3-0.5,0.6-0.8,1.1-1.1
				c0.5-0.2,1-0.4,1.6-0.4C141.9,113,142.6,113.3,143.1,113.8z"/>
			<path class="st2" d="M75.8,141.9c-0.1-0.1-0.2-0.3-0.2-0.5v-10c0-0.2,0.1-0.3,0.2-0.5c0.1-0.1,0.3-0.2,0.5-0.2h3.8
				c1.2,0,2.1,0.3,2.8,0.9c0.7,0.6,1,1.4,1,2.4c0,1.1-0.3,1.9-1,2.5c-0.7,0.6-1.6,0.9-2.8,0.9H77v4c0,0.2-0.1,0.4-0.2,0.5
				c-0.1,0.1-0.3,0.2-0.5,0.2S76,142.1,75.8,141.9z M80,136.3c1.7,0,2.6-0.8,2.6-2.3c0-1.5-0.9-2.2-2.6-2.2h-3v4.5H80z"/>
			<path class="st2" d="M90.2,134.6c0,0.2,0,0.3-0.1,0.4s-0.3,0.2-0.5,0.2l-0.5,0c-0.7,0.1-1.2,0.3-1.6,0.8c-0.3,0.4-0.5,1-0.5,1.6
				v3.9c0,0.2-0.1,0.4-0.2,0.5s-0.3,0.2-0.5,0.2s-0.3-0.1-0.5-0.2s-0.2-0.3-0.2-0.5v-6.8c0-0.2,0.1-0.4,0.2-0.5s0.3-0.2,0.5-0.2
				c0.2,0,0.3,0.1,0.4,0.2c0.1,0.1,0.2,0.3,0.2,0.5v0.9c0.2-0.5,0.5-0.8,1-1.1s0.9-0.4,1.4-0.4l0.2,0
				C89.9,134,90.2,134.2,90.2,134.6z"/>
			<path class="st2" d="M97.5,140.4c0.1,0.1,0.1,0.2,0.1,0.4c0,0.3-0.2,0.5-0.6,0.7c-0.4,0.2-0.8,0.4-1.2,0.5
				c-0.4,0.1-0.8,0.2-1.2,0.2c-1.2,0-2.2-0.4-2.9-1.1c-0.7-0.7-1-1.7-1-3c0-0.8,0.2-1.5,0.5-2.1c0.3-0.6,0.7-1.1,1.3-1.4
				c0.6-0.3,1.2-0.5,1.9-0.5c1,0,1.8,0.3,2.4,1c0.6,0.7,0.9,1.6,0.9,2.7c0,0.2,0,0.4-0.1,0.5c-0.1,0.1-0.2,0.1-0.4,0.1H92
				c0.1,1.8,1,2.8,2.6,2.8c0.4,0,0.8-0.1,1.1-0.2c0.3-0.1,0.6-0.3,1-0.5c0.3-0.2,0.5-0.2,0.6-0.2C97.3,140.2,97.4,140.3,97.5,140.4z
				 M92.7,135.7c-0.4,0.4-0.7,1-0.7,1.8h4.5c0-0.8-0.2-1.4-0.6-1.8c-0.4-0.4-0.9-0.6-1.6-0.6C93.7,135.1,93.1,135.3,92.7,135.7z"/>
			<path class="st2" d="M103.7,141.6c0,0.2-0.1,0.3-0.2,0.4c-0.1,0.1-0.3,0.1-0.6,0.1l-0.4,0c-0.9-0.1-1.5-0.3-1.9-0.8
				c-0.4-0.4-0.6-1.1-0.6-2v-4h-1.1c-0.2,0-0.3,0-0.4-0.1c-0.1-0.1-0.2-0.2-0.2-0.4c0-0.2,0.1-0.3,0.2-0.4c0.1-0.1,0.2-0.1,0.4-0.1
				h1.1v-1.8c0-0.2,0.1-0.4,0.2-0.5c0.1-0.1,0.3-0.2,0.5-0.2c0.2,0,0.3,0.1,0.5,0.2c0.1,0.1,0.2,0.3,0.2,0.5v1.8h1.8
				c0.2,0,0.3,0,0.4,0.1c0.1,0.1,0.2,0.2,0.2,0.4c0,0.1-0.1,0.3-0.2,0.4c-0.1,0.1-0.2,0.1-0.4,0.1h-1.8v4.1c0,0.6,0.1,1,0.4,1.3
				c0.2,0.3,0.6,0.4,1.1,0.4l0.4,0C103.5,141.1,103.7,141.3,103.7,141.6z"/>
			<path class="st2" d="M111.1,141.1c0.1,0.1,0.1,0.2,0.1,0.4s0,0.3-0.1,0.4c-0.1,0.1-0.2,0.1-0.4,0.1h-5.6c-0.2,0-0.3-0.1-0.4-0.2
				s-0.2-0.2-0.2-0.4c0-0.2,0.1-0.3,0.2-0.5l4.7-5.7H105c-0.2,0-0.3,0-0.4-0.1c-0.1-0.1-0.2-0.2-0.2-0.4c0-0.2,0.1-0.3,0.2-0.4
				c0.1-0.1,0.2-0.1,0.4-0.1h5.4c0.2,0,0.3,0.1,0.5,0.2c0.1,0.1,0.2,0.2,0.2,0.4c0,0.2-0.1,0.3-0.2,0.5l-4.8,5.7h4.6
				C110.9,141,111,141.1,111.1,141.1z"/>
			<path class="st2" d="M119.2,140.4c0.1,0.1,0.1,0.2,0.1,0.4c0,0.3-0.2,0.5-0.6,0.7c-0.4,0.2-0.8,0.4-1.2,0.5
				c-0.4,0.1-0.8,0.2-1.2,0.2c-1.2,0-2.2-0.4-2.9-1.1c-0.7-0.7-1-1.7-1-3c0-0.8,0.2-1.5,0.5-2.1c0.3-0.6,0.7-1.1,1.3-1.4
				c0.6-0.3,1.2-0.5,1.9-0.5c1,0,1.8,0.3,2.4,1c0.6,0.7,0.9,1.6,0.9,2.7c0,0.2,0,0.4-0.1,0.5c-0.1,0.1-0.2,0.1-0.4,0.1h-5.2
				c0.1,1.8,1,2.8,2.6,2.8c0.4,0,0.8-0.1,1.1-0.2c0.3-0.1,0.6-0.3,1-0.5c0.3-0.2,0.5-0.2,0.6-0.2C119,140.2,119.1,140.3,119.2,140.4
				z M114.4,135.7c-0.4,0.4-0.7,1-0.7,1.8h4.5c0-0.8-0.2-1.4-0.6-1.8c-0.4-0.4-0.9-0.6-1.6-0.6C115.4,135.1,114.8,135.3,114.4,135.7
				z"/>
			<path class="st2" d="M121.5,141.9c-0.1-0.1-0.2-0.3-0.2-0.5v-10.2c0-0.2,0.1-0.4,0.2-0.5c0.1-0.1,0.3-0.2,0.5-0.2
				c0.2,0,0.3,0.1,0.5,0.2c0.1,0.1,0.2,0.3,0.2,0.5v10.2c0,0.2-0.1,0.4-0.2,0.5s-0.3,0.2-0.5,0.2
				C121.7,142.1,121.6,142.1,121.5,141.9z"/>
		</g>
	</g>
	<g>
		<path class="st3" d="M294.4,78.5c-0.6,0.6-1.4,1-2.4,1.1v1c0,0.2-0.1,0.4-0.2,0.6c-0.1,0.2-0.3,0.2-0.6,0.2s-0.4-0.1-0.6-0.2
			c-0.1-0.2-0.2-0.4-0.2-0.6v-1c-0.6-0.1-1.2-0.2-1.8-0.4c-0.6-0.2-1.1-0.5-1.5-0.8c-0.1-0.1-0.2-0.2-0.3-0.3s-0.1-0.3-0.1-0.4
			c0-0.2,0.1-0.4,0.2-0.6s0.3-0.3,0.5-0.3c0.1,0,0.2,0,0.3,0.1c0.1,0,0.2,0.1,0.4,0.2c0.5,0.3,1,0.6,1.4,0.7c0.5,0.1,1,0.2,1.5,0.2
			c0.7,0,1.3-0.1,1.7-0.4s0.6-0.7,0.6-1.2c0-0.3-0.1-0.6-0.3-0.8c-0.2-0.2-0.5-0.3-0.8-0.5c-0.3-0.1-0.8-0.2-1.3-0.4
			c-0.8-0.2-1.5-0.4-2-0.6s-0.9-0.5-1.3-1s-0.5-1-0.5-1.7c0-0.9,0.3-1.6,0.9-2.2c0.6-0.6,1.4-1,2.4-1.1v-1c0-0.2,0.1-0.4,0.2-0.6
			s0.3-0.2,0.6-0.2s0.4,0.1,0.6,0.2s0.2,0.4,0.2,0.6v1c1.1,0.1,2,0.5,2.8,1.2c0.3,0.2,0.4,0.4,0.4,0.8c0,0.2-0.1,0.4-0.2,0.6
			c-0.1,0.2-0.3,0.3-0.5,0.3c-0.1,0-0.2,0-0.3,0s-0.2-0.1-0.4-0.2c-0.4-0.3-0.9-0.5-1.2-0.7c-0.4-0.2-0.9-0.2-1.4-0.2
			c-0.7,0-1.2,0.1-1.6,0.4s-0.6,0.7-0.6,1.2c0,0.4,0.1,0.6,0.3,0.9c0.2,0.2,0.5,0.4,0.8,0.5c0.3,0.1,0.8,0.2,1.4,0.4
			c0.8,0.2,1.4,0.4,1.9,0.6c0.5,0.2,0.9,0.5,1.3,0.9c0.3,0.4,0.5,1,0.5,1.7C295.3,77.2,295,78,294.4,78.5z"/>
		<path class="st3" d="M304.8,78.7c0,0.6-0.3,0.8-1,0.8h-5.4c-0.7,0-1-0.3-1-0.8c0-0.5,0.3-0.8,1-0.8h1.7v-7.3l-1.5,0.9
			c-0.1,0.1-0.3,0.1-0.4,0.1c-0.2,0-0.4-0.1-0.6-0.3c-0.2-0.2-0.2-0.4-0.2-0.6c0-0.3,0.1-0.5,0.4-0.7l2.5-1.5
			c0.3-0.2,0.6-0.3,0.9-0.3c0.3,0,0.5,0.1,0.7,0.3c0.2,0.2,0.3,0.4,0.3,0.8v8.7h1.7C304.5,77.9,304.8,78.2,304.8,78.7z"/>
		<path class="st3" d="M314.3,78.7c0,0.6-0.3,0.8-1,0.8h-6.1c-0.3,0-0.5-0.1-0.7-0.2c-0.2-0.2-0.2-0.4-0.2-0.6
			c0-0.3,0.1-0.6,0.4-0.9l3.6-3.9c0.4-0.5,0.8-0.9,1-1.4c0.2-0.4,0.3-0.8,0.3-1.2c0-0.5-0.1-0.9-0.4-1.2s-0.7-0.4-1.2-0.4
			c-0.4,0-0.9,0.1-1.3,0.2c-0.4,0.2-0.8,0.4-1.2,0.7c-0.1,0.1-0.2,0.1-0.3,0.2S307,71,306.9,71c-0.2,0-0.3-0.1-0.5-0.3
			c-0.1-0.2-0.2-0.4-0.2-0.6c0-0.2,0-0.3,0.1-0.4s0.2-0.2,0.3-0.3c0.5-0.4,1-0.7,1.6-0.9c0.6-0.2,1.3-0.3,1.9-0.3
			c1.1,0,2,0.3,2.6,0.8c0.7,0.6,1,1.3,1,2.2c0,0.7-0.1,1.3-0.4,1.8c-0.3,0.6-0.7,1.2-1.4,1.9l-2.8,2.9h4.2
			C314,77.9,314.3,78.2,314.3,78.7z"/>
		<path class="st3" d="M294.4,99.5c-0.6,0.6-1.4,1-2.4,1.1v1c0,0.2-0.1,0.4-0.2,0.6c-0.1,0.2-0.3,0.2-0.6,0.2s-0.4-0.1-0.6-0.2
			c-0.1-0.2-0.2-0.4-0.2-0.6v-1c-0.6-0.1-1.2-0.2-1.8-0.4c-0.6-0.2-1.1-0.5-1.5-0.8c-0.1-0.1-0.2-0.2-0.3-0.3s-0.1-0.3-0.1-0.4
			c0-0.2,0.1-0.4,0.2-0.6s0.3-0.3,0.5-0.3c0.1,0,0.2,0,0.3,0.1c0.1,0,0.2,0.1,0.4,0.2c0.5,0.3,1,0.6,1.4,0.7c0.5,0.1,1,0.2,1.5,0.2
			c0.7,0,1.3-0.1,1.7-0.4s0.6-0.7,0.6-1.2c0-0.3-0.1-0.6-0.3-0.8c-0.2-0.2-0.5-0.3-0.8-0.5c-0.3-0.1-0.8-0.2-1.3-0.4
			c-0.8-0.2-1.5-0.4-2-0.6s-0.9-0.5-1.3-1s-0.5-1-0.5-1.7c0-0.9,0.3-1.6,0.9-2.2c0.6-0.6,1.4-1,2.4-1.1v-1c0-0.2,0.1-0.4,0.2-0.6
			s0.3-0.2,0.6-0.2s0.4,0.1,0.6,0.2s0.2,0.4,0.2,0.6v1c1.1,0.1,2,0.5,2.8,1.2c0.3,0.2,0.4,0.4,0.4,0.8c0,0.2-0.1,0.4-0.2,0.6
			c-0.1,0.2-0.3,0.3-0.5,0.3c-0.1,0-0.2,0-0.3,0s-0.2-0.1-0.4-0.2c-0.4-0.3-0.9-0.5-1.2-0.7c-0.4-0.2-0.9-0.2-1.4-0.2
			c-0.7,0-1.2,0.1-1.6,0.4s-0.6,0.7-0.6,1.2c0,0.4,0.1,0.6,0.3,0.9c0.2,0.2,0.5,0.4,0.8,0.5c0.3,0.1,0.8,0.2,1.4,0.4
			c0.8,0.2,1.4,0.4,1.9,0.6c0.5,0.2,0.9,0.5,1.3,0.9c0.3,0.4,0.5,1,0.5,1.7C295.3,98.2,295,99,294.4,99.5z"/>
		<path class="st3" d="M304.8,99.7c0,0.6-0.3,0.8-1,0.8h-5.4c-0.7,0-1-0.3-1-0.8c0-0.5,0.3-0.8,1-0.8h1.7v-7.3l-1.5,0.9
			c-0.1,0.1-0.3,0.1-0.4,0.1c-0.2,0-0.4-0.1-0.6-0.3c-0.2-0.2-0.2-0.4-0.2-0.6c0-0.3,0.1-0.5,0.4-0.7l2.5-1.5
			c0.3-0.2,0.6-0.3,0.9-0.3c0.3,0,0.5,0.1,0.7,0.3c0.2,0.2,0.3,0.4,0.3,0.8v8.7h1.7C304.5,98.9,304.8,99.2,304.8,99.7z"/>
		<path class="st3" d="M314.5,97c0.2,0.1,0.2,0.3,0.2,0.6c0,0.5-0.3,0.8-1,0.8H313v1.3c0,0.3-0.1,0.6-0.3,0.8
			c-0.2,0.2-0.4,0.3-0.7,0.3c-0.3,0-0.5-0.1-0.7-0.3c-0.2-0.2-0.3-0.4-0.3-0.8v-1.3h-4.2c-0.3,0-0.5-0.1-0.7-0.2
			c-0.2-0.2-0.2-0.4-0.2-0.6c0-0.3,0.1-0.5,0.3-0.7l4.9-7.1c0.1-0.1,0.2-0.3,0.4-0.3c0.2-0.1,0.3-0.1,0.5-0.1c0.3,0,0.5,0.1,0.7,0.3
			c0.2,0.2,0.3,0.4,0.3,0.8v6.5h0.8C314.1,96.8,314.4,96.8,314.5,97z M308,96.8h3v-4.3L308,96.8z"/>
		<path class="st3" d="M294.4,120.5c-0.6,0.6-1.4,1-2.4,1.1v1c0,0.2-0.1,0.4-0.2,0.6c-0.1,0.2-0.3,0.2-0.6,0.2s-0.4-0.1-0.6-0.2
			c-0.1-0.2-0.2-0.4-0.2-0.6v-1c-0.6-0.1-1.2-0.2-1.8-0.4c-0.6-0.2-1.1-0.5-1.5-0.8c-0.1-0.1-0.2-0.2-0.3-0.3s-0.1-0.3-0.1-0.4
			c0-0.2,0.1-0.4,0.2-0.6s0.3-0.3,0.5-0.3c0.1,0,0.2,0,0.3,0.1c0.1,0,0.2,0.1,0.4,0.2c0.5,0.3,1,0.6,1.4,0.7c0.5,0.1,1,0.2,1.5,0.2
			c0.7,0,1.3-0.1,1.7-0.4s0.6-0.7,0.6-1.2c0-0.3-0.1-0.6-0.3-0.8c-0.2-0.2-0.5-0.3-0.8-0.5c-0.3-0.1-0.8-0.2-1.3-0.4
			c-0.8-0.2-1.5-0.4-2-0.6s-0.9-0.5-1.3-1s-0.5-1-0.5-1.7c0-0.9,0.3-1.6,0.9-2.2c0.6-0.6,1.4-1,2.4-1.1v-1c0-0.2,0.1-0.4,0.2-0.6
			s0.3-0.2,0.6-0.2s0.4,0.1,0.6,0.2s0.2,0.4,0.2,0.6v1c1.1,0.1,2,0.5,2.8,1.2c0.3,0.2,0.4,0.4,0.4,0.8c0,0.2-0.1,0.4-0.2,0.6
			c-0.1,0.2-0.3,0.3-0.5,0.3c-0.1,0-0.2,0-0.3,0s-0.2-0.1-0.4-0.2c-0.4-0.3-0.9-0.5-1.2-0.7c-0.4-0.2-0.9-0.2-1.4-0.2
			c-0.7,0-1.2,0.1-1.6,0.4s-0.6,0.7-0.6,1.2c0,0.4,0.1,0.6,0.3,0.9c0.2,0.2,0.5,0.4,0.8,0.5c0.3,0.1,0.8,0.2,1.4,0.4
			c0.8,0.2,1.4,0.4,1.9,0.6c0.5,0.2,0.9,0.5,1.3,0.9c0.3,0.4,0.5,1,0.5,1.7C295.3,119.2,295,120,294.4,120.5z"/>
		<path class="st3" d="M304.8,120.7c0,0.6-0.3,0.8-1,0.8h-5.4c-0.7,0-1-0.3-1-0.8c0-0.5,0.3-0.8,1-0.8h1.7v-7.3l-1.5,0.9
			c-0.1,0.1-0.3,0.1-0.4,0.1c-0.2,0-0.4-0.1-0.6-0.3c-0.2-0.2-0.2-0.4-0.2-0.6c0-0.3,0.1-0.5,0.4-0.7l2.5-1.5
			c0.3-0.2,0.6-0.3,0.9-0.3c0.3,0,0.5,0.1,0.7,0.3c0.2,0.2,0.3,0.4,0.3,0.8v8.7h1.7C304.5,119.9,304.8,120.2,304.8,120.7z"/>
		<path class="st3" d="M312.7,114.8c0.5,0.3,1,0.7,1.3,1.3s0.4,1.2,0.4,1.9c0,0.7-0.2,1.4-0.5,2s-0.8,1-1.4,1.3s-1.3,0.5-2.1,0.5
			c-0.7,0-1.3-0.1-1.9-0.3s-1.2-0.5-1.6-0.9c-0.2-0.2-0.4-0.5-0.4-0.8c0-0.2,0.1-0.4,0.2-0.6c0.1-0.2,0.3-0.2,0.5-0.2
			c0.1,0,0.2,0,0.3,0.1s0.2,0.1,0.3,0.2c0.4,0.3,0.8,0.5,1.2,0.7s0.8,0.2,1.3,0.2c0.7,0,1.2-0.2,1.6-0.5c0.4-0.4,0.6-0.9,0.6-1.5
			c0-0.6-0.2-1.1-0.6-1.5c-0.4-0.4-0.9-0.6-1.6-0.6c-0.4,0-0.8,0.1-1.1,0.2s-0.7,0.3-1,0.6c-0.2,0.1-0.4,0.2-0.6,0.2
			c-0.2,0-0.4-0.1-0.5-0.2s-0.2-0.3-0.2-0.5v-5c0-0.3,0.1-0.5,0.3-0.7c0.2-0.2,0.4-0.3,0.7-0.3h5.3c0.6,0,1,0.3,1,0.8
			c0,0.5-0.3,0.8-1,0.8h-4.3v3c0.5-0.4,1.2-0.6,2-0.6C311.5,114.4,312.1,114.5,312.7,114.8z"/>
		<path class="st3" d="M294.4,141.5c-0.6,0.6-1.4,1-2.4,1.1v1c0,0.2-0.1,0.4-0.2,0.6c-0.1,0.2-0.3,0.2-0.6,0.2s-0.4-0.1-0.6-0.2
			c-0.1-0.2-0.2-0.4-0.2-0.6v-1c-0.6-0.1-1.2-0.2-1.8-0.4c-0.6-0.2-1.1-0.5-1.5-0.8c-0.1-0.1-0.2-0.2-0.3-0.3s-0.1-0.3-0.1-0.4
			c0-0.2,0.1-0.4,0.2-0.6s0.3-0.3,0.5-0.3c0.1,0,0.2,0,0.3,0.1c0.1,0,0.2,0.1,0.4,0.2c0.5,0.3,1,0.6,1.4,0.7c0.5,0.1,1,0.2,1.5,0.2
			c0.7,0,1.3-0.1,1.7-0.4s0.6-0.7,0.6-1.2c0-0.3-0.1-0.6-0.3-0.8c-0.2-0.2-0.5-0.3-0.8-0.5c-0.3-0.1-0.8-0.2-1.3-0.4
			c-0.8-0.2-1.5-0.4-2-0.6s-0.9-0.5-1.3-1s-0.5-1-0.5-1.7c0-0.9,0.3-1.6,0.9-2.2c0.6-0.6,1.4-1,2.4-1.1v-1c0-0.2,0.1-0.4,0.2-0.6
			s0.3-0.2,0.6-0.2s0.4,0.1,0.6,0.2s0.2,0.4,0.2,0.6v1c1.1,0.1,2,0.5,2.8,1.2c0.3,0.2,0.4,0.4,0.4,0.8c0,0.2-0.1,0.4-0.2,0.6
			c-0.1,0.2-0.3,0.3-0.5,0.3c-0.1,0-0.2,0-0.3,0s-0.2-0.1-0.4-0.2c-0.4-0.3-0.9-0.5-1.2-0.7c-0.4-0.2-0.9-0.2-1.4-0.2
			c-0.7,0-1.2,0.1-1.6,0.4s-0.6,0.7-0.6,1.2c0,0.4,0.1,0.6,0.3,0.9c0.2,0.2,0.5,0.4,0.8,0.5c0.3,0.1,0.8,0.2,1.4,0.4
			c0.8,0.2,1.4,0.4,1.9,0.6c0.5,0.2,0.9,0.5,1.3,0.9c0.3,0.4,0.5,1,0.5,1.7C295.3,140.2,295,141,294.4,141.5z"/>
		<path class="st3" d="M304.8,141.7c0,0.6-0.3,0.8-1,0.8h-5.4c-0.7,0-1-0.3-1-0.8c0-0.5,0.3-0.8,1-0.8h1.7v-7.3l-1.5,0.9
			c-0.1,0.1-0.3,0.1-0.4,0.1c-0.2,0-0.4-0.1-0.6-0.3c-0.2-0.2-0.2-0.4-0.2-0.6c0-0.3,0.1-0.5,0.4-0.7l2.5-1.5
			c0.3-0.2,0.6-0.3,0.9-0.3c0.3,0,0.5,0.1,0.7,0.3c0.2,0.2,0.3,0.4,0.3,0.8v8.7h1.7C304.5,140.9,304.8,141.2,304.8,141.7z"/>
		<path class="st3" d="M313.5,137.7c0.4,0.5,0.5,1.1,0.5,1.8c0,1-0.4,1.7-1.1,2.3c-0.7,0.6-1.7,0.9-2.9,0.9c-0.7,0-1.4-0.1-2-0.3
			c-0.6-0.2-1.2-0.5-1.6-0.9c-0.2-0.2-0.4-0.5-0.4-0.8c0-0.2,0.1-0.4,0.2-0.6c0.1-0.2,0.3-0.2,0.5-0.2c0.1,0,0.2,0,0.3,0.1
			c0.1,0,0.2,0.1,0.4,0.2c0.4,0.3,0.9,0.5,1.3,0.7c0.4,0.2,0.8,0.2,1.3,0.2c0.7,0,1.2-0.1,1.6-0.4c0.3-0.3,0.5-0.7,0.5-1.3
			c0-0.6-0.2-1-0.5-1.3c-0.4-0.3-0.9-0.4-1.7-0.4h-0.9c-0.2,0-0.4-0.1-0.6-0.2c-0.1-0.2-0.2-0.4-0.2-0.6c0-0.2,0.1-0.4,0.2-0.6
			c0.1-0.2,0.3-0.2,0.6-0.2h0.6c1.5,0,2.2-0.5,2.2-1.6c0-0.5-0.2-0.9-0.5-1.2c-0.3-0.3-0.7-0.4-1.3-0.4c-0.8,0-1.6,0.3-2.5,0.9
			c-0.1,0.1-0.3,0.1-0.4,0.2c-0.1,0-0.2,0.1-0.3,0.1c-0.2,0-0.3-0.1-0.5-0.2c-0.1-0.2-0.2-0.4-0.2-0.6c0-0.2,0-0.3,0.1-0.4
			c0.1-0.1,0.2-0.2,0.3-0.3c0.4-0.4,1-0.7,1.6-0.9s1.3-0.3,1.9-0.3c1.1,0,2,0.3,2.6,0.8c0.7,0.5,1,1.3,1,2.2c0,0.6-0.2,1.2-0.5,1.6
			c-0.3,0.5-0.8,0.8-1.3,1C312.6,137,313.1,137.3,313.5,137.7z"/>
	</g>
</g>
<g>
	<path class="st1" d="M247.3,41.9H141c-7.4,0-13.4-6-13.4-13.4v0c0-7.4,6-13.4,13.4-13.4h106.3c7.4,0,13.4,6,13.4,13.4v0
		C260.7,35.9,254.7,41.9,247.3,41.9z"/>
	<g>
		<g>
			<path class="st4" d="M183.2,19.4c0.3,0.3,0.4,0.7,0.4,1.2v14.7c0,0.5-0.1,0.8-0.4,1.1c-0.3,0.3-0.6,0.4-1,0.4s-0.8-0.1-1-0.4
				c-0.2-0.3-0.4-0.6-0.4-1.1V25l-4.2,8c-0.2,0.4-0.4,0.6-0.6,0.8s-0.5,0.3-0.8,0.3s-0.6-0.1-0.8-0.2c-0.2-0.2-0.4-0.4-0.6-0.8
				l-4.2-7.9v10.1c0,0.4-0.1,0.8-0.4,1.1c-0.3,0.3-0.6,0.4-1,0.4s-0.8-0.1-1-0.4c-0.2-0.3-0.4-0.6-0.4-1.1V20.5
				c0-0.5,0.1-0.9,0.4-1.2c0.3-0.3,0.6-0.4,1.1-0.4c0.6,0,1.2,0.4,1.5,1.1l5.5,10.5l5.5-10.5c0.4-0.7,0.9-1.1,1.5-1.1
				C182.5,18.9,182.9,19.1,183.2,19.4z"/>
			<path class="st4" d="M197.4,33.6c0.2,0.2,0.3,0.5,0.3,0.9c0,0.5-0.3,0.9-0.9,1.3c-0.6,0.3-1.2,0.6-1.9,0.8
				c-0.7,0.2-1.4,0.3-2,0.3c-2,0-3.5-0.6-4.6-1.7c-1.1-1.1-1.7-2.7-1.7-4.6c0-1.2,0.2-2.3,0.7-3.3c0.5-1,1.2-1.7,2.1-2.2
				c0.9-0.5,1.9-0.8,3.1-0.8c1.1,0,2,0.2,2.9,0.7c0.8,0.5,1.4,1.2,1.9,2c0.4,0.9,0.7,1.9,0.7,3.1c0,0.7-0.3,1.1-0.9,1.1h-7.3
				c0.1,1.1,0.4,2,1,2.5c0.5,0.5,1.3,0.8,2.4,0.8c0.5,0,1-0.1,1.4-0.2c0.4-0.1,0.9-0.3,1.4-0.5c0.5-0.3,0.9-0.4,1.1-0.4
				C197,33.2,197.3,33.4,197.4,33.6z M190.4,27.1c-0.5,0.5-0.8,1.3-0.9,2.3h5.6c0-1-0.3-1.8-0.7-2.3c-0.5-0.5-1.1-0.8-1.9-0.8
				C191.6,26.3,190.9,26.6,190.4,27.1z"/>
			<path class="st4" d="M210.6,25.4c0.7,0.8,1.1,2.1,1.1,3.7v6.1c0,0.5-0.1,0.8-0.4,1.1c-0.3,0.3-0.7,0.4-1.1,0.4
				c-0.5,0-0.9-0.1-1.1-0.4s-0.4-0.6-0.4-1.1v-5.9c0-0.9-0.2-1.6-0.5-2.1c-0.4-0.4-0.9-0.6-1.7-0.6c-0.9,0-1.6,0.3-2.1,0.8
				s-0.8,1.3-0.8,2.3v5.5c0,0.5-0.1,0.8-0.4,1.1c-0.3,0.3-0.7,0.4-1.1,0.4c-0.5,0-0.9-0.1-1.1-0.4c-0.3-0.3-0.4-0.6-0.4-1.1v-9.6
				c0-0.4,0.1-0.8,0.4-1c0.3-0.3,0.7-0.4,1.1-0.4c0.4,0,0.8,0.1,1.1,0.4c0.3,0.3,0.4,0.6,0.4,1v0.7c0.4-0.7,1-1.2,1.7-1.6
				s1.5-0.5,2.4-0.5C208.8,24.1,209.9,24.5,210.6,25.4z"/>
			<path class="st4" d="M225.6,24.6c0.3,0.3,0.4,0.6,0.4,1.1v9.6c0,0.4-0.1,0.8-0.4,1c-0.3,0.3-0.7,0.4-1.1,0.4
				c-0.4,0-0.8-0.1-1.1-0.4s-0.4-0.6-0.4-1v-0.6c-0.4,0.7-0.9,1.2-1.5,1.5c-0.6,0.4-1.4,0.5-2.2,0.5c-3,0-4.5-1.7-4.5-5v-6.1
				c0-0.4,0.1-0.8,0.4-1.1c0.3-0.3,0.7-0.4,1.1-0.4c0.5,0,0.9,0.1,1.1,0.4c0.3,0.3,0.4,0.6,0.4,1.1v6.1c0,0.9,0.2,1.5,0.5,1.9
				c0.3,0.4,0.9,0.6,1.6,0.6c0.9,0,1.6-0.3,2.1-0.9s0.8-1.3,0.8-2.3v-5.5c0-0.4,0.1-0.8,0.4-1.1s0.7-0.4,1.1-0.4
				C224.9,24.2,225.3,24.3,225.6,24.6z M220.5,23c-0.2,0-0.4-0.1-0.6-0.2s-0.2-0.3-0.2-0.6c0-0.2,0.1-0.4,0.2-0.5l2.4-3.2
				c0.4-0.5,0.8-0.7,1.3-0.7c0.4,0,0.7,0.1,0.9,0.4c0.3,0.3,0.4,0.6,0.4,0.9c0,0.5-0.2,0.9-0.7,1.2l-3.2,2.6
				C220.9,22.9,220.7,23,220.5,23z"/>
		</g>
	</g>
</g>
<circle class="st1" cx="60.1" cy="16.5" r="4.5"/>
<circle class="st1" cx="333.3" cy="16.5" r="4.5"/>
<g>
	<g>
		<g>
			<line class="st5" x1="120.2" y1="74" x2="120.2" y2="74"/>
			<line class="st6" x1="126.1" y1="74" x2="271.6" y2="74"/>
			<line class="st5" x1="274.5" y1="74" x2="274.5" y2="74"/>
		</g>
	</g>
	<g>
		<g>
			<line class="st5" x1="163.2" y1="98.3" x2="163.2" y2="98.3"/>
			<line class="st7" x1="169" y1="98.3" x2="271.6" y2="98.3"/>
			<line class="st5" x1="274.5" y1="98.3" x2="274.5" y2="98.3"/>
		</g>
	</g>
	<g>
		<g>
			<line class="st5" x1="156.3" y1="120.8" x2="156.3" y2="120.8"/>
			<line class="st8" x1="162.2" y1="120.8" x2="271.6" y2="120.8"/>
			<line class="st5" x1="274.5" y1="120.8" x2="274.5" y2="120.8"/>
		</g>
	</g>
	<g>
		<g>
			<line class="st5" x1="142.8" y1="143" x2="142.8" y2="143"/>
			<line class="st9" x1="148.8" y1="143" x2="271.5" y2="143"/>
			<line class="st5" x1="274.5" y1="143" x2="274.5" y2="143"/>
		</g>
	</g>
</g>
<polygon class="st4" points="109.8,18.9 112.2,23.8 117.6,24.6 113.7,28.4 114.6,33.7 109.8,31.2 105,33.7 105.9,28.4 102.1,24.6 
	107.4,23.8 "/>
<polygon class="st4" points="83.9,18.9 86.3,23.8 91.6,24.6 87.8,28.4 88.7,33.7 83.9,31.2 79.1,33.7 80,28.4 76.1,24.6 81.5,23.8 
	"/>
<polygon class="st4" points="304,18.9 306.4,23.8 311.7,24.6 307.8,28.4 308.8,33.7 304,31.2 299.2,33.7 300.1,28.4 296.2,24.6 
	301.6,23.8 "/>
<polygon class="st4" points="278,18.9 280.4,23.8 285.8,24.6 281.9,28.4 282.8,33.7 278,31.2 273.2,33.7 274.1,28.4 270.2,24.6 
	275.6,23.8 "/>
<g>
	<g>
		<path class="st1" d="M109.8,352.6c-17.4,0-33.9-4.6-46.3-13c-13-8.8-20.2-20.7-20.2-33.6c0-12.8,7.4-25,20.5-33.7
			c0.2-0.5,0.6-1,1-1.4l41.3-41.3c0.9-0.9,2.2-1.5,3.5-1.5s2.6,0.5,3.5,1.5l41.3,41.3c0.3,0.3,0.6,0.7,0.8,1
			c11,7.2,18.1,16.7,20.3,27.2c0,0.1,0.1,0.3,0.1,0.4c0,0.2,0.1,0.4,0.1,0.7l0,0.3c0,0.3,0.1,0.6,0.1,0.8l0,0.4
			c0.2,1.6,0.3,3,0.3,4.3c0,10.6-4.8,20.5-14,28.7l-0.2,0.2c-0.1,0-0.1,0.1-0.2,0.1C149.3,346.2,130.3,352.6,109.8,352.6z"/>
		<path class="st1" d="M109.7,233l41.3,41.3v0.7c10.6,6.5,17.9,15.4,19.8,25.4l0,0c0,0.2,0.1,0.5,0.1,0.7c0,0.3,0.1,0.5,0.1,0.8
			c0,0.1,0,0.2,0,0.3c0.2,1.2,0.2,2.4,0.2,3.7c0,9.4-4.6,18-12.4,25c-0.1,0.1-0.2,0.2-0.2,0.2l0,0c-11.2,10-29,16.4-49,16.4
			c-34,0-61.5-18.6-61.5-41.6c0-12.2,7.7-23.1,20-30.7v-0.9L109.7,233 M109.7,223c-2.7,0-5.2,1.1-7.1,2.9l-41.3,41.3
			c-0.4,0.4-0.8,0.9-1.2,1.4c-13.9,9.6-21.7,23-21.7,37.2c0,14.5,8,27.9,22.4,37.7c13.3,9,30.7,13.9,49.1,13.9
			c21.7,0,41.8-6.8,55.4-18.8c0.1-0.1,0.1-0.1,0.2-0.2c0,0,0.1-0.1,0.3-0.3c10.1-9.1,15.6-20.6,15.6-32.4c0-1.6-0.1-3.2-0.3-4.9
			c0-0.1,0-0.3-0.1-0.5c0,0,0,0,0-0.1c0-0.3-0.1-0.6-0.2-1l0-0.1l0-0.1c0-0.3-0.1-0.6-0.1-0.9c0-0.2-0.1-0.5-0.2-0.7
			c-2.5-11.4-10.1-21.8-21.6-29.6c-0.3-0.3-0.5-0.6-0.8-0.9l-41.3-41.3C114.8,224.1,112.3,223,109.7,223L109.7,223z"/>
	</g>
	<g>
		<path class="st1" d="M222,366.9c-26,0-46.4-14.5-46.4-33c0-8.6,4.6-16.8,12.8-22.8v-16.5c0-4,3.3-7.3,7.3-7.3h51.9
			c2,0,3.9,0.8,5.2,2.2h6.1c4,0,7.3,3.3,7.3,7.3v13.5c0,3.2-0.8,6.3-2.4,9.1c3.1,4.5,4.7,9.5,4.7,14.6c0,9.6-5.8,18.7-15.8,24.9
			l-0.1,0h0c-1.5,1-2.6,1.5-2.7,1.6c-0.1,0.1-0.3,0.1-0.4,0.2C241.4,364.7,231.9,366.9,222,366.9z"/>
		<path class="st1" d="M247.5,292.4c1.2,0,2.2,1,2.2,2.2h9c1.2,0,2.3,1,2.3,2.3v13.5c0,3.5-1.4,6.8-3.6,9.2
			c3.8,4.2,5.9,9.1,5.9,14.4c0,8.2-5.2,15.5-13.4,20.6c0,0,0,0,0,0c0,0-0.1,0-0.1,0.1c-1.4,0.9-2.2,1.3-2.2,1.3l0,0
			c-7,3.7-15.9,6-25.5,6c-22.8,0-41.4-12.5-41.4-28c0-8,4.9-15.1,12.8-20.2v-19.1c0-1.2,1-2.3,2.3-2.3H247.5 M254.2,316.4
			c1.5-1.6,2.4-3.7,2.4-6.1V299h-6.8v14.2C251.3,314.2,252.8,315.2,254.2,316.4 M247.5,282.4h-51.9c-6.8,0-12.3,5.5-12.3,12.3v14
			c-8.2,6.9-12.8,15.8-12.8,25.3c0,10.7,6,21,16.5,28.1c9.5,6.4,21.8,9.9,34.9,9.9c10.7,0,20.8-2.3,29.5-6.7
			c0.2-0.1,0.3-0.1,0.5-0.2c0.2-0.1,1.5-0.7,3.2-1.8c0,0,0.1,0,0.1-0.1c0,0,0,0,0,0c11.5-7.2,18.1-17.7,18.1-29.1
			c0-5.2-1.4-10.2-4-14.9c1.1-2.7,1.7-5.7,1.7-8.7v-13.5c0-6.8-5.5-12.3-12.3-12.3h-4.3C252.5,283.2,250.1,282.4,247.5,282.4
			L247.5,282.4z"/>
	</g>
	<g>
		<path class="st1" d="M301.1,310.9c-19.6,0-35-11.4-35-25.9c0-5.8,2.5-11.3,7.2-15.8l-6.1-57.8c-0.2-1.5,0.3-3,1.3-4.1
			c1-1.1,2.4-1.7,3.9-1.7h27.7c2.3-12.2,13-21.4,25.9-21.4c14.5,0,26.3,11.8,26.3,26.3c0,12.6-8.8,23.1-20.7,25.7l-3.4,32.4
			c5,4.5,7.8,10.2,7.8,16.2c0.4,4.9-1.6,9.9-5.6,14.4l-0.5,0.5c-1.1,1.2-2.4,2.4-3.9,3.5c-0.4,0.3-0.8,0.6-1,0.7
			c0,0-0.1,0.1-0.1,0.1C318.5,308.5,310,310.9,301.1,310.9z"/>
		<path class="st1" d="M326,189.2c11.8,0,21.3,9.6,21.3,21.3c0,11.4-9,20.7-20.3,21.3l-4.1,39c5,3.7,8.1,8.7,8.1,14.3
			c0.4,4.4-1.9,8.2-4.3,10.8c0,0-0.1,0.1-0.1,0.1c-0.1,0.1-0.2,0.2-0.3,0.3c-1,1-2,2-3.2,2.9c-0.4,0.3-0.6,0.5-0.8,0.6
			c0,0-0.1,0.1-0.1,0.1c0,0,0,0,0,0h0c-5.4,3.7-12.8,6-21.1,6c-16.5,0-30-9.3-30-20.9c0-5.3,2.8-10.1,7.4-13.8l-6.4-60.4
			c0-0.2,0.1-0.3,0.3-0.3h32.3c0,0,0-0.1,0-0.1C304.7,198.7,314.2,189.2,326,189.2 M326,179.2c-13.8,0-25.6,9-29.7,21.4h-23.9
			c-2.9,0-5.7,1.2-7.6,3.4c-1.9,2.2-2.9,5.1-2.6,7.9l5.9,55.5c-4.5,5.1-7,11.2-7,17.6c0,17.3,17.5,30.9,40,30.9
			c9.9,0,19.4-2.8,26.7-7.7c0,0,0,0,0,0c0,0,0.1-0.1,0.1-0.1l0,0l0.1-0.1l0,0c0.3-0.2,0.7-0.5,1.2-0.9c1.6-1.2,3.2-2.6,4.5-4.1
			c0.1-0.1,0.2-0.2,0.3-0.4c0,0,0,0,0,0c0.1-0.1,0.1-0.1,0.2-0.2c4.9-5.5,7.3-11.7,6.8-17.9c-0.1-6.6-2.8-12.7-7.6-17.9l2.8-26.6
			c12.4-4.2,21.1-15.9,21.1-29.6C357.4,193.2,343.3,179.2,326,179.2L326,179.2z"/>
	</g>
	<g>
		<path class="st1" d="M163.1,276.1c-1.4,0-2.7-0.6-3.6-1.5s-1.4-2.3-1.4-3.7l2.8-61.8c0.1-2.6,2.2-4.7,4.9-4.8
			c0,0,73.3-1.7,73.3-1.7c2.4,0,4.4,1.7,4.9,4l12.5,63.5c0.3,1.5-0.1,3-1,4.1c-1,1.2-2.4,1.8-3.9,1.8H163.1z"/>
		<path class="st1" d="M239.1,207.5l5.5,28.1h0l6.9,35.4h-10.3h-78.2l2.8-61.8L239.1,207.5 M239.1,197.5c-0.1,0-0.2,0-0.2,0
			l-73.2,1.7c-5.3,0.1-9.5,4.3-9.8,9.5l-2.8,61.8c-0.1,2.7,0.9,5.4,2.8,7.4c1.9,2,4.5,3.1,7.2,3.1h78.2h10.3c3,0,5.8-1.3,7.7-3.6
			c1.9-2.3,2.7-5.3,2.1-8.3l-6.9-35.4l-5.5-28.1C248,200.9,243.9,197.5,239.1,197.5L239.1,197.5z"/>
	</g>
</g>
<ellipse class="st10" cx="222" cy="333.9" rx="41.4" ry="28"/>
<ellipse class="st11" cx="222" cy="332.7" rx="34.4" ry="23.3"/>
<ellipse class="st12" cx="301.1" cy="285.1" rx="30" ry="20.9"/>
<polygon class="st13" points="165.9,209.3 163.1,271.1 251.6,271.1 239.1,207.5 "/>
<ellipse class="st14" cx="109.8" cy="305.9" rx="61.5" ry="41.6"/>
<g>
	<defs>
		<ellipse id="SVGID_1_" cx="109.8" cy="305.9" rx="61.5" ry="41.6"/>
	</defs>
	<clipPath id="SVGID_2_">
		<use xlink:href="#SVGID_1_"  style="overflow:visible;"/>
	</clipPath>
</g>
<g>
	<defs>
		<ellipse id="SVGID_3_" cx="222" cy="333.9" rx="41.4" ry="28"/>
	</defs>
	<clipPath id="SVGID_4_">
		<use xlink:href="#SVGID_3_"  style="overflow:visible;"/>
	</clipPath>
</g>
<path class="st15" d="M64.8,320.9l94,10.2c0,0,15.4-13.5,12-30.7l-65.1-29.3L64.8,320.9z"/>
<g>
	<path class="st16" d="M153.9,307.8H67.3c-2.7,0-4.9-2.2-4.9-4.9l0,0c0-2.7,2.2-4.9,4.9-4.9h86.6c2.7,0,4.9,2.2,4.9,4.9l0,0
		C158.8,305.6,156.6,307.8,153.9,307.8z"/>
	<path class="st17" d="M153.9,299.9H67.3c-2.7,0-4.9-2.2-4.9-4.9l0,0c0-2.7,2.2-4.9,4.9-4.9h86.6c2.7,0,4.9,2.2,4.9,4.9l0,0
		C158.8,297.7,156.6,299.9,153.9,299.9z"/>
	<path class="st18" d="M75.2,286.1c-5.4,0-4.7-2-4.9-3.9c-5.2,1-7.9,3.9-7.9,6.9c0,3.8,6.2,6.9,13.8,6.9s13.8-3.1,13.8-6.9
		c0-1.1-0.5-2.1-1.3-3H75.2z"/>
	<path class="st19" d="M88.6,286.1c0.9,0.9,1.4,1.9,1.4,3c0,1.6-1.1,3.1-3,4.3c2.5,1.6,6.4,2.6,10.8,2.6c7.6,0,13.8-3.1,13.8-6.9
		c0-1.1-0.5-2.1-1.3-3H88.6z"/>
	<rect x="68.3" y="274.3" class="st20" width="82.6" height="11.8"/>
	<polygon class="st21" points="151,274.3 68.3,274.3 109.7,233 	"/>
	<path class="st19" d="M151,285.2v0.9h-18.1c-0.2,0.1-0.4,0.2-0.7,0.3c0.7,0.8,1.1,1.7,1.1,2.6c0,1.4-0.8,2.7-2.3,3.8
		c2.3,1.8,6.9,3.1,12.1,3.1c7.6,0,13.8-2.6,13.8-5.9C156.9,288.1,154.5,286.3,151,285.2z"/>
	<path class="st18" d="M110.3,286.1c0.9,0.9,1.4,1.9,1.4,3c0,1.3-0.7,2.5-2,3.5c2.4,2,6.8,3.4,11.8,3.4c7.6,0,13.8-3.1,13.8-6.9
		c0-1.1-0.5-2.1-1.3-3H110.3z"/>
	<circle class="st20" cx="129.3" cy="266.5" r="2"/>
	<circle class="st20" cx="107.7" cy="248.7" r="2"/>
	<circle class="st20" cx="90" cy="266.5" r="2"/>
	<circle class="st20" cx="115.6" cy="260.6" r="2"/>
	<circle class="st20" cx="103.8" cy="262.5" r="2"/>
	<rect x="64.8" y="307.8" class="st21" width="90.1" height="13.2"/>
	<circle class="st20" cx="123.4" cy="311.7" r="2"/>
	<circle class="st20" cx="139.2" cy="315.6" r="2"/>
	<circle class="st20" cx="76.2" cy="315.6" r="2"/>
	<circle class="st20" cx="109.7" cy="315.6" r="2"/>
	<circle class="st20" cx="91.9" cy="311.7" r="2"/>
</g>
<path class="st22" d="M202.9,337.8l44.6,18.2c0,0,15.1-7.4,15.8-22l-37.2-13L202.9,337.8z"/>
<g>
	<path class="st22" d="M247.5,323.8v-4.5c5,0,9-4,9-9V299h-9v-4.5h11.3c1.2,0,2.3,1,2.3,2.3v13.5C261,317.8,255,323.8,247.5,323.8z"
		/>
	<path class="st23" d="M227.2,341.9H216c-12.5,0-22.6-10.1-22.6-22.6v-24.7c0-1.2,1-2.3,2.3-2.3l0,0h51.9c1.2,0,2.3,1,2.3,2.3v24.7
		C249.7,331.8,239.6,341.9,227.2,341.9z"/>
	<g>
		<path class="st1" d="M220.4,330.7c0,1.2-1,2.3-2.3,2.3l0,0c-8.7,0-15.8-7.1-15.8-15.8l0,0c0-1.2,1-2.3,2.3-2.3l0,0
			c1.2,0,2.3,1,2.3,2.3l0,0c0,6.2,5,11.3,11.3,11.3l0,0C219.4,328.4,220.4,329.4,220.4,330.7L220.4,330.7z"/>
		<path class="st1" d="M204.7,305.9L204.7,305.9c1.2,0,2.3,1,2.3,2.3l0,0c0,1.2-1,2.3-2.3,2.3l0,0c-1.2,0-2.3-1-2.3-2.3l0,0
			C202.4,306.9,203.4,305.9,204.7,305.9z"/>
	</g>
</g>
<path class="st24" d="M280.7,291.7l41.4,8.2c0,0,9.7-6.3,8.9-14.8l-28.8-12.3L280.7,291.7z"/>
<g>
	<g>
		<g>
			<circle class="st25" cx="326" cy="210.5" r="21.3"/>
		</g>
		<g>
			<circle class="st26" cx="326.3" cy="210.2" r="17.5"/>
		</g>
		<g>
			<circle class="st26" cx="326.3" cy="210.2" r="17.5"/>
		</g>
		<g>
			<g>
				<path class="st25" d="M325.5,209.2v-13.4c-7.5,0.3-13.5,6.1-14.3,13.4H325.5z"/>
			</g>
			<g>
				<path class="st25" d="M341.5,209c-1.2-7-7-12.4-14.1-13.2V209H341.5z"/>
			</g>
			<g>
				<path class="st25" d="M325.5,211.2v13.4c-7.5-0.3-13.5-6.1-14.3-13.4C311.2,211.2,325.5,211.2,325.5,211.2z"/>
			</g>
			<g>
				<path class="st25" d="M341.5,211.4c-1.2,7-7,12.4-14.1,13.2v-13.2H341.5z"/>
			</g>
		</g>
	</g>
	<g>
		<path class="st27" d="M320.5,291.4h-39.6c-0.1,0-0.2-0.1-0.3-0.2l-8.5-80.3c0-0.2,0.1-0.3,0.3-0.3H329c0.2,0,0.3,0.1,0.3,0.3
			l-8.5,80.3C320.7,291.3,320.6,291.4,320.5,291.4z"/>
	</g>
	<g>
		<path class="st25" d="M278.7,231.5l4.1,45.8c0.2,2.8,2.6,4.9,5.4,4.9h25c2.8,0,5.1-2.1,5.4-4.9l4.1-45.8c0.3-3.1-2.2-5.9-5.4-5.9
			h-33.3C280.9,225.6,278.4,228.3,278.7,231.5z"/>
	</g>
	<path class="st1" d="M314.6,271.2c-0.2,1.8-1.8,3.1-3.6,3l0,0c-1.8-0.2-3.1-1.8-3-3.6l3.1-34c0.2-1.8,1.8-3.1,3.6-3l0,0
		c1.8,0.2,3.1,1.8,3,3.6L314.6,271.2z"/>
</g>
<polygon class="st11" points="191.9,260.6 241.2,271.1 251.6,271.1 244.6,235.7 219.8,215.7 187.6,220.8 177,233.8 "/>
<g>
	<path class="st28" d="M223.1,243c-0.6,0.8-1.2,1.5-1.9,2.2c-2.4-1.8-5.3-3.3-8.8-3.9c-0.6-0.1-1.2-0.2-1.8-0.4
		c2.6-2.8,3.6-6.2,3.6-8.9c0-2.8-0.6-5.2-1.6-7.3c0.5-0.1,1.1-0.1,1.6-0.1c2.1,0,9.2-0.3,11.2,5.6
		C226.9,234.5,226.2,238.8,223.1,243 M204.9,250.6c-4.3,0-8.3-0.7-11.8-2.4c1.2-0.7,2.6-1.2,4.3-1.4c2.9-0.3,5.4-1,7.5-1.9
		c2.1,0.9,4.5,1.6,7.5,1.9c1.7,0.2,3.1,0.7,4.3,1.4C213.2,249.9,209.2,250.6,204.9,250.6 M186.7,243c-3-4.2-3.7-8.5-2.3-12.9
		c2-5.9,9-5.6,11.2-5.6c0.5,0,1.1,0,1.6,0.1c-1,2.1-1.6,4.5-1.6,7.3c0,2.7,1.1,6.1,3.6,8.9c-0.6,0.1-1.1,0.3-1.8,0.4
		c-3.6,0.6-6.5,2.1-8.8,3.9C187.9,244.5,187.2,243.8,186.7,243 M204.9,237.9c-2.6-2.7-1.9-6-1.9-6c0-1.3,0.7-2.6,1.9-3.8
		c1.2,1.2,1.9,2.5,1.9,3.8C206.8,232,207.5,235.2,204.9,237.9 M236.6,235.7c0-14.9-11.2-20.5-22.4-20.5c-3.2,0-6.5,0.7-9.3,2
		c-2.8-1.4-6.1-2-9.3-2c-11.2,0-22.4,5.6-22.4,20.5c0,5.6,2.4,10.5,5.6,14.9c0.8,1.1,1.7,2.1,2.6,3.1c-0.7,1.1-1.1,2-1.5,2.5
		c-1.2,1.9,0.7,3.7,2.6,3.7c1.3,0,2.2-1.2,3.3-2.8c5.2,3.3,11.7,4.6,19.1,4.6c7.4,0,13.9-1.4,19.1-4.6c1,1.6,2,2.8,3.3,2.8
		c1.9,0,3.7-1.9,2.6-3.7c-0.3-0.5-0.8-1.4-1.5-2.5c0.9-0.9,1.8-1.9,2.6-3.1C234.1,246.2,236.6,241.3,236.6,235.7"/>
	<g>
		<path class="st29" d="M188.8,252.4c-1.3,2.3-2.3,3.8-3,4.7v0c0.6,0.4,1.3,0.8,1.9,1.1c0.7-1.3,1.6-3.1,2.9-5
			c1.4-2.2,3.5-3.6,4.6-4.2c-0.7-0.2-1.4-0.5-2.1-0.8C191.8,249.1,189.9,250.5,188.8,252.4z"/>
		<path class="st29" d="M215,247.5c0.6,0.2,1.1,0.5,1.7,0.7c-0.4,0.2-0.7,0.3-1.1,0.4c1.1,0.8,2.5,2,3.7,3.8
			c1.4,2.1,2.6,4.1,3.3,5.5c0.5-0.3,1-0.5,1.4-0.8c0.4,0.6,0.7,1.1,1,1.5h0c0,0-1.1-1.5-3.7-6.2C218.6,247.8,215,247.5,215,247.5
			L215,247.5L215,247.5L215,247.5z"/>
		<path class="st29" d="M213.3,226.4c-0.2-0.6-0.4-1.2-0.7-1.7c-1.1,0.2-2.6,0.5-4,1c-1.6,0.6-2.9,1.7-3.7,2.5
			c0.4,0.4,0.8,0.9,1.1,1.4C207.3,228.4,209.9,226.7,213.3,226.4L213.3,226.4L213.3,226.4z"/>
		<path class="st29" d="M210.8,240.6c-1.1,0.8-2.5,2-3.8,3c-0.7,0.6-1.4,1-2.2,1.3v0c0.7,0.3,1.6,0.6,2.4,0.9c1-0.5,2.2-1.3,3.2-2.2
			c1-1,1.7-1.7,2-2.3c-0.1,0-0.1,0-0.2,0c-0.6-0.1-1.2-0.2-1.8-0.4C210.7,240.8,210.7,240.7,210.8,240.6L210.8,240.6z"/>
	</g>
	<g>
		<path class="st30" d="M193.7,217.1c-1,0-1.9,0.8-1.9,1.9c0,1,0.8,1.9,1.9,1.9c1,0,1.9-0.8,1.9-1.9S194.7,217.1,193.7,217.1z"/>
		<path class="st30" d="M212.3,218.9c-1,0-1.9,0.8-1.9,1.9c0,1,0.8,1.9,1.9,1.9c1,0,1.9-0.8,1.9-1.9S213.4,218.9,212.3,218.9z"/>
		<path class="st30" d="M206.8,224.5c1,0,1.9-0.8,1.9-1.9c0-1-0.8-1.9-1.9-1.9c-1,0-1.9,0.8-1.9,1.9
			C204.9,223.7,205.7,224.5,206.8,224.5z"/>
		<path class="st30" d="M177,230.1c-1,0-1.9,0.8-1.9,1.9c0,1,0.8,1.9,1.9,1.9s1.9-0.8,1.9-1.9C178.8,230.9,178,230.1,177,230.1z"/>
		<path class="st30" d="M184.4,226.4c0-1-0.8-1.9-1.9-1.9s-1.9,0.8-1.9,1.9c0,1,0.8,1.9,1.9,1.9S184.4,227.4,184.4,226.4z"/>
		<path class="st30" d="M229.1,235.7c-1,0-1.9,0.8-1.9,1.9c0,1,0.8,1.9,1.9,1.9s1.9-0.8,1.9-1.9S230.1,235.7,229.1,235.7z"/>
		<path class="st30" d="M229.1,224.5c1,0,1.9-0.8,1.9-1.9c0-1-0.8-1.9-1.9-1.9s-1.9,0.8-1.9,1.9
			C227.3,223.7,228.1,224.5,229.1,224.5z"/>
		<path class="st30" d="M197.4,254.3c-1,0-1.9,0.8-1.9,1.9s0.8,1.9,1.9,1.9c1,0,1.9-0.8,1.9-1.9S198.5,254.3,197.4,254.3z"/>
		<path class="st30" d="M210.5,252.5c-1,0-1.9,0.8-1.9,1.9s0.8,1.9,1.9,1.9c1,0,1.9-0.8,1.9-1.9S211.5,252.5,210.5,252.5z"/>
		<path class="st30" d="M217.9,254.3c-1,0-1.9,0.8-1.9,1.9s0.8,1.9,1.9,1.9c1,0,1.9-0.8,1.9-1.9S219,254.3,217.9,254.3z"/>
		<path class="st30" d="M184.4,245c-1,0-1.9,0.8-1.9,1.9s0.8,1.9,1.9,1.9s1.9-0.8,1.9-1.9S185.4,245,184.4,245z"/>
	</g>
</g>
</svg>
