<?xml version="1.0" encoding="utf-8"?>
<!-- Generator: Adobe Illustrator 22.0.1, SVG Export Plug-In . SVG Version: 6.00 Build 0)  -->
<svg version="1.1" id="Layer_1" xmlns="http://www.w3.org/2000/svg" xmlns:xlink="http://www.w3.org/1999/xlink" x="0px" y="0px"
	 viewBox="0 0 40 40" style="enable-background:new 0 0 40 40;" xml:space="preserve">
<style type="text/css">
	.st0{fill:#637BA1;}
	.st1{fill:#FCC62D;}
	.st2{fill:#F9DC39;}
	.st3{fill:#7C6608;stroke:#7C6608;stroke-width:0.9224;stroke-miterlimit:10;}
</style>
<g>
	<path class="st0" d="M40,0H0v40h40V0L40,0z"/>
</g>
<g>
	<g>
		<g>
			<g>
				<path class="st1" d="M20,37.8c-9.8,0-17.8-8-17.8-17.8S10.2,2.2,20,2.2c9.8,0,17.8,8,17.8,17.8S29.9,37.8,20,37.8z"/>
			</g>
		</g>
		<g>
			<g>
				<g>
					<path class="st2" d="M20.1,36.6c-0.3,0-0.5-0.2-0.5-0.5c0-0.3,0.2-0.5,0.5-0.5c0.2,0,0.3,0,0.5,0c0.3,0,0.5,0.2,0.5,0.5
						c0,0.3-0.2,0.5-0.5,0.5C20.4,36.6,20.3,36.6,20.1,36.6C20.1,36.6,20.1,36.6,20.1,36.6z M16.6,36.2c0,0-0.1,0-0.1,0
						c-0.2,0-0.3-0.1-0.5-0.1c-0.3-0.1-0.4-0.3-0.4-0.6c0.1-0.3,0.3-0.4,0.6-0.4c0.2,0,0.3,0.1,0.5,0.1c0.3,0.1,0.4,0.3,0.4,0.6
						C17,36.1,16.8,36.2,16.6,36.2z M24.1,36.1c-0.2,0-0.4-0.1-0.5-0.4c-0.1-0.3,0.1-0.5,0.4-0.6c0.2,0,0.3-0.1,0.5-0.1
						c0.3-0.1,0.5,0.1,0.6,0.3c0.1,0.3-0.1,0.5-0.3,0.6c-0.2,0-0.3,0.1-0.5,0.1C24.2,36,24.1,36.1,24.1,36.1z M12.8,34.9
						c-0.1,0-0.2,0-0.2-0.1c-0.2-0.1-0.3-0.2-0.5-0.2c-0.2-0.1-0.3-0.4-0.2-0.7c0.1-0.2,0.4-0.3,0.7-0.2c0.1,0.1,0.3,0.2,0.4,0.2
						c0.2,0.1,0.3,0.4,0.2,0.7C13.1,34.8,13,34.9,12.8,34.9z M27.8,34.6c-0.2,0-0.3-0.1-0.4-0.3c-0.1-0.2,0-0.5,0.2-0.7
						c0.1-0.1,0.3-0.2,0.4-0.2c0.2-0.1,0.5-0.1,0.7,0.2c0.1,0.2,0.1,0.5-0.2,0.7c-0.1,0.1-0.3,0.2-0.4,0.3
						C28,34.5,27.9,34.6,27.8,34.6z M9.4,32.6c-0.1,0-0.2,0-0.3-0.1c-0.1-0.1-0.3-0.2-0.4-0.3c-0.2-0.2-0.2-0.5,0-0.7
						c0.2-0.2,0.5-0.2,0.7,0c0.1,0.1,0.2,0.2,0.4,0.3c0.2,0.2,0.2,0.5,0,0.7C9.7,32.6,9.6,32.6,9.4,32.6z M31.1,32.2
						c-0.1,0-0.3-0.1-0.4-0.2c-0.2-0.2-0.2-0.5,0-0.7c0.1-0.1,0.2-0.2,0.3-0.3c0.2-0.2,0.5-0.2,0.7,0c0.2,0.2,0.2,0.5,0,0.7
						c-0.1,0.1-0.2,0.2-0.4,0.4C31.3,32.1,31.2,32.2,31.1,32.2z M6.7,29.6c-0.2,0-0.3-0.1-0.4-0.2c-0.1-0.1-0.2-0.3-0.3-0.4
						c-0.1-0.2-0.1-0.5,0.1-0.7s0.5-0.1,0.7,0.1c0.1,0.1,0.2,0.3,0.3,0.4c0.2,0.2,0.1,0.5-0.1,0.7C6.9,29.6,6.8,29.6,6.7,29.6z
						 M33.6,29c-0.1,0-0.2,0-0.3-0.1c-0.2-0.1-0.3-0.5-0.2-0.7c0.1-0.1,0.2-0.3,0.3-0.4c0.1-0.2,0.4-0.3,0.7-0.2
						c0.2,0.1,0.3,0.4,0.2,0.7c-0.1,0.2-0.2,0.3-0.3,0.4C34,29,33.8,29,33.6,29z M4.9,26c-0.2,0-0.4-0.1-0.5-0.3
						c-0.1-0.2-0.1-0.3-0.2-0.5c-0.1-0.3,0.1-0.5,0.3-0.6c0.3-0.1,0.5,0.1,0.6,0.3c0.1,0.2,0.1,0.3,0.2,0.5c0.1,0.3,0,0.5-0.3,0.6
						C5,26,5,26,4.9,26z M35.3,25.4c-0.1,0-0.1,0-0.2,0c-0.3-0.1-0.4-0.4-0.3-0.6c0-0.2,0.1-0.3,0.1-0.5c0.1-0.3,0.3-0.4,0.6-0.3
						c0.3,0.1,0.4,0.4,0.3,0.6c0,0.2-0.1,0.3-0.2,0.5C35.7,25.3,35.5,25.4,35.3,25.4z M4,22.1c-0.3,0-0.5-0.2-0.5-0.4
						c0-0.2,0-0.3,0-0.5c0-0.3,0.2-0.5,0.5-0.5c0.3,0,0.5,0.2,0.5,0.5c0,0.2,0,0.3,0,0.5C4.5,21.8,4.3,22.1,4,22.1
						C4,22.1,4,22.1,4,22.1z M36.1,21.4C36.1,21.4,36,21.4,36.1,21.4c-0.3,0-0.5-0.3-0.5-0.5c0-0.2,0-0.3,0-0.5
						c0-0.3,0.2-0.5,0.5-0.5c0.3,0,0.5,0.2,0.5,0.5c0,0.2,0,0.3,0,0.5C36.5,21.2,36.3,21.4,36.1,21.4z M4.1,18.1
						C4.1,18.1,4,18.1,4.1,18.1c-0.3,0-0.5-0.3-0.5-0.6c0-0.2,0.1-0.3,0.1-0.5c0-0.3,0.3-0.4,0.6-0.4c0.3,0,0.4,0.3,0.4,0.6
						c0,0.2-0.1,0.3-0.1,0.5C4.5,17.9,4.3,18.1,4.1,18.1z M35.8,17.4c-0.2,0-0.4-0.2-0.5-0.4c0-0.2-0.1-0.3-0.1-0.5
						c-0.1-0.3,0.1-0.5,0.4-0.6c0.3-0.1,0.5,0.1,0.6,0.4c0,0.2,0.1,0.3,0.1,0.5C36.3,17.1,36.2,17.3,35.8,17.4
						C35.9,17.4,35.8,17.4,35.8,17.4z M5.2,14.2c-0.1,0-0.1,0-0.2,0c-0.3-0.1-0.4-0.4-0.3-0.7C4.8,13.3,4.9,13.2,5,13
						c0.1-0.2,0.4-0.4,0.7-0.2c0.2,0.1,0.4,0.4,0.2,0.7c-0.1,0.1-0.1,0.3-0.2,0.4C5.6,14.1,5.4,14.2,5.2,14.2z M34.5,13.6
						c-0.2,0-0.4-0.1-0.4-0.3c-0.1-0.1-0.1-0.3-0.2-0.4c-0.1-0.2,0-0.5,0.2-0.7c0.2-0.1,0.5,0,0.7,0.2c0.1,0.2,0.2,0.3,0.2,0.5
						c0.1,0.2,0,0.5-0.2,0.7C34.7,13.6,34.6,13.6,34.5,13.6z M7.2,10.7c-0.1,0-0.2,0-0.3-0.1c-0.2-0.2-0.3-0.5-0.1-0.7
						C6.9,9.8,7,9.6,7.2,9.5c0.2-0.2,0.5-0.2,0.7-0.1c0.2,0.2,0.2,0.5,0.1,0.7c-0.1,0.1-0.2,0.3-0.3,0.4C7.5,10.6,7.4,10.7,7.2,10.7
						z M32.4,10.2c-0.1,0-0.3-0.1-0.4-0.2c-0.1-0.1-0.2-0.2-0.3-0.4c-0.2-0.2-0.2-0.5,0-0.7c0.2-0.2,0.5-0.2,0.7,0
						c0.1,0.1,0.2,0.3,0.3,0.4c0.2,0.2,0.1,0.5-0.1,0.7C32.6,10.1,32.5,10.2,32.4,10.2z M10.1,7.8c-0.1,0-0.3-0.1-0.4-0.2
						C9.5,7.4,9.5,7.1,9.8,7c0.1-0.1,0.3-0.2,0.4-0.3c0.2-0.2,0.5-0.1,0.7,0.1C11,7,11,7.3,10.8,7.4c-0.1,0.1-0.3,0.2-0.4,0.3
						C10.3,7.8,10.2,7.8,10.1,7.8z M29.4,7.4c-0.1,0-0.2,0-0.3-0.1c-0.1-0.1-0.3-0.2-0.4-0.3c-0.2-0.2-0.3-0.5-0.1-0.7
						c0.2-0.2,0.5-0.3,0.7-0.1c0.1,0.1,0.3,0.2,0.4,0.3C29.9,6.7,30,7,29.8,7.2C29.7,7.4,29.6,7.4,29.4,7.4z M13.5,5.8
						c-0.2,0-0.4-0.1-0.5-0.3c-0.1-0.3,0-0.5,0.3-0.7c0.2-0.1,0.3-0.1,0.5-0.2c0.3-0.1,0.5,0,0.6,0.3c0.1,0.3,0,0.5-0.3,0.6
						c-0.2,0.1-0.3,0.1-0.5,0.2C13.6,5.8,13.6,5.8,13.5,5.8z M25.9,5.5c-0.1,0-0.1,0-0.2,0c-0.2-0.1-0.3-0.1-0.5-0.2
						c-0.3-0.1-0.4-0.4-0.3-0.6c0.1-0.3,0.4-0.4,0.6-0.3c0.2,0.1,0.3,0.1,0.5,0.2c0.3,0.1,0.4,0.4,0.3,0.6
						C26.3,5.4,26.1,5.5,25.9,5.5z M17.4,4.6c-0.2,0-0.5-0.2-0.5-0.4c0-0.3,0.1-0.5,0.4-0.6l0.1,0.5l-0.1-0.5c0.2,0,0.4-0.1,0.5-0.1
						c0.3,0,0.5,0.2,0.6,0.4c0,0.3-0.2,0.5-0.4,0.6c-0.2,0-0.3,0-0.5,0.1C17.5,4.6,17.5,4.6,17.4,4.6C17.4,4.6,17.4,4.6,17.4,4.6z
						 M22,4.5C21.9,4.5,21.9,4.5,22,4.5c-0.2,0-0.4,0-0.5-0.1c-0.3,0-0.5-0.3-0.5-0.5c0-0.3,0.3-0.5,0.5-0.5c0.2,0,0.3,0,0.5,0.1
						c0.3,0,0.5,0.3,0.4,0.6C22.4,4.3,22.2,4.5,22,4.5z"/>
				</g>
			</g>
		</g>
	</g>
	<path id="XMLID_1_" class="st3" d="M19.8,32.4c-0.6,0-0.9-0.3-0.9-0.9v-1.2c-1.7-0.3-2.9-0.6-4.3-1.7v1.2c0,0.6-0.3,0.9-0.9,0.9
		c-0.6,0-0.9-0.3-0.9-0.9v-5.3c0-0.6,0.3-0.9,0.9-0.9c0.6,0,0.9,0.3,0.9,0.9v1.9c0.9,1,1.6,1.3,3.2,1.9c0.4,0.1,0.7,0.3,1.3,0.3
		v-8.2c-1.7-0.4-2.9-0.9-3.8-1.3c-0.9-0.4-1.6-1-2.2-1.7c-0.6-0.7-0.7-1.4-0.7-2.5c0-1.7,0.6-3,1.7-4c1-1,2.7-1.4,4.9-1.6V8
		c0-0.6,0.3-0.9,0.9-0.9s0.9,0.3,0.9,0.9v1.3c1.6,0.3,2.9,0.9,4,1.6c0.3,0.1,0.1,0.4,0.3,0.6v-1.2c0-0.6,0.3-0.9,0.9-0.9
		s0.9,0.3,0.9,0.9v5.3c0,0.6-0.3,0.9-0.9,0.9s-0.9-0.3-0.9-0.9v-1.9c-1-1-1.9-1.9-3.2-2.5c-0.3-0.1-0.7-0.3-1.2-0.3v7.8
		c0.3,0,0.7,0.1,1.3,0.3c1,0.3,2,0.6,2.9,1c0.9,0.4,1.6,1,2.2,1.7c0.6,0.7,0.7,1.6,0.7,2.5c0,1.9-0.6,3.3-1.9,4.3
		c-1.2,1-3,1.6-5.2,1.6v1.2C20.6,32.1,20.2,32.4,19.8,32.4 M20.6,20.7v7.9c1.7,0,3.2-0.4,4-1.2c1-0.7,1.4-1.7,1.4-2.9
		c0-0.6-0.1-1.2-0.6-1.6c-0.4-0.4-0.9-0.9-1.6-1.2c-0.6-0.3-1.3-0.6-2-0.7L20.6,20.7z M18.9,11.1c-1.7,0-2.9,0.4-3.8,1
		c-0.9,0.7-1.3,1.6-1.3,2.6c0,0.6,0.1,1.2,0.6,1.6c0.4,0.4,0.9,0.9,1.6,1.2c0.6,0.3,1.3,0.6,1.9,0.7c0.3,0.1,0.7,0.1,1,0.3V11.1
		L18.9,11.1z"/>
</g>
</svg>
