<?xml version="1.0" encoding="utf-8"?>
<!-- Generator: Adobe Illustrator 22.1.0, SVG Export Plug-In . SVG Version: 6.00 Build 0)  -->
<svg version="1.1" id="Layer_1" xmlns="http://www.w3.org/2000/svg" xmlns:xlink="http://www.w3.org/1999/xlink" x="0px" y="0px"
	 viewBox="0 0 400 400" style="enable-background:new 0 0 400 400;" xml:space="preserve">
<style type="text/css">
	.st0{fill:#B8E4F1;}
	.st1{fill:#8CC63F;}
	.st2{fill:#E0B07B;}
	.st3{fill:#008F40;}
	.st4{fill:#FF5A00;}
	.st5{opacity:0.42;fill:#B8E4F1;}
</style>
<path class="st0" d="M370.3,361.7H28.9c-10.4,0-18.9-8.5-18.9-18.9V37.1c0-10.4,8.5-18.9,18.9-18.9h341.4c10.4,0,18.9,8.5,18.9,18.9
	v305.7C389.2,353.2,380.7,361.7,370.3,361.7z"/>
<path class="st1" d="M370.3,361.7H28.9c-10.4,0-18.9-8.5-18.9-18.9v-55.7c0-10.4,8.5-18.9,18.9-18.9h341.4
	c10.4,0,18.9,8.5,18.9,18.9v55.7C389.2,353.2,380.7,361.7,370.3,361.7z"/>
<g>
	<path class="st2" d="M226.8,221.4h-38.3c-10.6,0-19.3-8.7-19.3-19.3v-15.3c0-2.2,1.8-4,4-4l0,0c2.2,0,4,1.8,4,4v15.3
		c0,6.2,5.1,11.3,11.3,11.3h38.3c2.2,0,4,1.8,4,4C230.8,219.6,229,221.4,226.8,221.4z"/>
	<path class="st2" d="M280.4,185.7h-38.3c-2.2,0-4-1.8-4-4s1.8-4,4-4h38.3c6.2,0,11.3-5.1,11.3-11.3v-5.1c0-2.2,1.8-4,4-4l0,0
		c2.2,0,4,1.8,4,4v5.1C299.7,177,291,185.7,280.4,185.7z"/>
	<rect x="226.8" y="130.6" class="st2" width="15.3" height="135.1"/>
</g>
<path class="st1" d="M275.3,270.8c0-8.5-6.9-15.3-15.3-15.3h-51.1c-8.5,0-15.3,6.9-15.3,15.3H275.3z"/>
<path class="st1" d="M326.3,89.8L326.3,89.8c0-11.3-9.1-20.4-20.4-20.4h-10.2V59.1c0-11.3-9.1-20.4-20.4-20.4h-51.1
	c-11.3,0-20.4,9.1-20.4,20.4h-15.3c-8.5,0-15.3,6.9-15.3,15.3h-12.8c-9,0-16.5,6.7-17.7,15.3h-5.3c-14.1,0-25.5,11.4-25.5,25.5
	s11.4,25.5,25.5,25.5h188.9c14.1,0,25.5-11.4,25.5-25.5C351.9,101.2,340.4,89.8,326.3,89.8z"/>
<path class="st1" d="M305.9,125.5c5.6,0,10.2,4.6,10.2,10.2v5.1h10.2c5.6,0,10.2,4.6,10.2,10.2c0,5.6-4.6,10.2-10.2,10.2h-56.2
	c-5.6,0-10.2-4.6-10.2-10.2s4.6-10.2,10.2-10.2h5.1v-5.1c0-5.6,4.6-10.2,10.2-10.2H305.9L305.9,125.5z"/>
<path class="st1" d="M162.9,151.1c-5.6,0-10.2,4.6-10.2,10.2v5.1h-10.2c-5.6,0-10.2,4.6-10.2,10.2c0,5.6,4.6,10.2,10.2,10.2h56.2
	c5.6,0,10.2-4.6,10.2-10.2c0-5.6-4.6-10.2-10.2-10.2h-5.1v-5.1c0-5.6-4.6-10.2-10.2-10.2H162.9L162.9,151.1z"/>
<g>
	<g>
		<path class="st3" d="M193,73.4c-0.6,0-1.2-1-1.2-2.3s0.5-2.3,1.2-2.3V73.4z"/>
		<path class="st3" d="M192.9,73.3c0-0.6,1.1-1.1,2.4-1.1s2.4,0.5,2.4,1.1H192.9z"/>
	</g>
	<ellipse class="st4" cx="192.9" cy="77.8" rx="4.6" ry="4.5"/>
</g>
<g>
	<g>
		<path class="st3" d="M295.8,54.7c-0.6,0-1.2-1-1.2-2.3s0.5-2.3,1.2-2.3V54.7z"/>
		<path class="st3" d="M295.7,54.6c0-0.6,1.1-1.1,2.4-1.1s2.4,0.5,2.4,1.1H295.7z"/>
	</g>
	<ellipse class="st4" cx="295.7" cy="59.1" rx="4.6" ry="4.5"/>
</g>
<g>
	<g>
		<path class="st3" d="M194.2,182.4c-0.6,0-1.2-1-1.2-2.3s0.5-2.3,1.2-2.3V182.4z"/>
		<path class="st3" d="M194,182.3c0-0.6,1.1-1.1,2.4-1.1s2.4,0.5,2.4,1.1H194z"/>
	</g>
	<ellipse class="st4" cx="194.1" cy="186.8" rx="4.6" ry="4.5"/>
</g>
<g>
	<g>
		<path class="st3" d="M217.1,136.7c-0.6,0-1.2-1-1.2-2.3s0.5-2.3,1.2-2.3V136.7z"/>
		<path class="st3" d="M217,136.6c0-0.6,1.1-1.1,2.4-1.1s2.4,0.5,2.4,1.1H217z"/>
	</g>
	<ellipse class="st4" cx="217" cy="141.1" rx="4.6" ry="4.5"/>
</g>
<g>
	<g>
		<path class="st3" d="M152.1,161.5c-0.8,0-1.4-1.2-1.4-2.8c0-1.5,0.6-2.8,1.4-2.8V161.5z"/>
		<path class="st3" d="M152,161.4c0-0.8,1.3-1.4,2.8-1.4c1.6,0,2.8,0.6,2.8,1.4H152z"/>
	</g>
	<ellipse class="st4" cx="152" cy="166.9" rx="5.6" ry="5.4"/>
</g>
<g>
	<g>
		<path class="st3" d="M93.9,268.2c-0.8,0-1.4-1.2-1.4-2.8c0-1.5,0.6-2.8,1.4-2.8V268.2z"/>
		<path class="st3" d="M93.8,268.1c0-0.8,1.3-1.4,2.8-1.4c1.6,0,2.8,0.6,2.8,1.4H93.8z"/>
	</g>
	<ellipse class="st4" cx="93.8" cy="273.5" rx="5.6" ry="5.4"/>
</g>
<g>
	<g>
		<path class="st3" d="M39.6,279.7c-0.8,0-1.4-1.2-1.4-2.8s0.6-2.8,1.4-2.8V279.7z"/>
		<path class="st3" d="M39.5,279.6c0-0.8,1.3-1.4,2.8-1.4c1.6,0,2.8,0.6,2.8,1.4H39.5z"/>
	</g>
	<ellipse class="st4" cx="39.5" cy="285" rx="5.6" ry="5.4"/>
</g>
<g>
	<g>
		<path class="st3" d="M127.6,276.3c-0.8,0-1.4-1.2-1.4-2.8s0.6-2.8,1.4-2.8V276.3z"/>
		<path class="st3" d="M127.5,276.2c0-0.8,1.3-1.4,2.8-1.4s2.8,0.6,2.8,1.4H127.5z"/>
	</g>
	<ellipse class="st4" cx="127.5" cy="281.7" rx="5.6" ry="5.4"/>
</g>
<g>
	<g>
		<path class="st3" d="M228.2,271.5c-0.8,0-1.4-1.2-1.4-2.8s0.6-2.8,1.4-2.8V271.5z"/>
		<path class="st3" d="M228.1,271.4c0-0.8,1.3-1.4,2.8-1.4c1.6,0,2.8,0.6,2.8,1.4H228.1z"/>
	</g>
	<ellipse class="st4" cx="228.1" cy="276.9" rx="5.6" ry="5.4"/>
</g>
<g>
	<g>
		<path class="st3" d="M63,287.2c-0.8,0-1.4-1.2-1.4-2.8c0-1.5,0.6-2.8,1.4-2.8V287.2z"/>
		<path class="st3" d="M62.9,287.1c0-0.8,1.3-1.4,2.8-1.4c1.6,0,2.8,0.6,2.8,1.4H62.9z"/>
	</g>
	<ellipse class="st4" cx="62.9" cy="292.5" rx="5.6" ry="5.4"/>
</g>
<g>
	<g>
		<path class="st3" d="M96.7,295.4c-0.8,0-1.4-1.2-1.4-2.8s0.6-2.8,1.4-2.8V295.4z"/>
		<path class="st3" d="M96.6,295.2c0-0.8,1.3-1.4,2.8-1.4s2.8,0.6,2.8,1.4H96.6z"/>
	</g>
	<ellipse class="st4" cx="96.6" cy="300.7" rx="5.6" ry="5.4"/>
</g>
<g>
	<g>
		<path class="st3" d="M327.5,268.2c-0.8,0-1.4-1.2-1.4-2.8c0-1.5,0.6-2.8,1.4-2.8V268.2z"/>
		<path class="st3" d="M327.4,268.1c0-0.8,1.3-1.4,2.8-1.4c1.6,0,2.8,0.6,2.8,1.4H327.4z"/>
	</g>
	<ellipse class="st4" cx="327.4" cy="273.5" rx="5.6" ry="5.4"/>
</g>
<g>
	<g>
		<path class="st3" d="M164.1,284.5c-0.8,0-1.4-1.2-1.4-2.8s0.6-2.8,1.4-2.8V284.5z"/>
		<path class="st3" d="M164,284.4c0-0.8,1.3-1.4,2.8-1.4s2.8,0.6,2.8,1.4H164z"/>
	</g>
	<ellipse class="st4" cx="164" cy="289.8" rx="5.6" ry="5.4"/>
</g>
<g>
	<g>
		<path class="st3" d="M197.4,289.9c-0.8,0-1.4-1.2-1.4-2.8c0-1.5,0.6-2.8,1.4-2.8V289.9z"/>
		<path class="st3" d="M197.3,289.8c0-0.8,1.3-1.4,2.8-1.4s2.8,0.6,2.8,1.4H197.3z"/>
	</g>
	<ellipse class="st4" cx="197.3" cy="295.3" rx="5.6" ry="5.4"/>
</g>
<g>
	<g>
		<path class="st3" d="M139.2,300.8c-0.8,0-1.4-1.2-1.4-2.8s0.6-2.8,1.4-2.8V300.8z"/>
		<path class="st3" d="M139.1,300.7c0-0.8,1.3-1.4,2.8-1.4s2.8,0.6,2.8,1.4H139.1z"/>
	</g>
	<ellipse class="st4" cx="139.1" cy="306.1" rx="5.6" ry="5.4"/>
</g>
<g>
	<g>
		<path class="st3" d="M284.7,283.1c-0.8,0-1.4-1.2-1.4-2.8s0.6-2.8,1.4-2.8V283.1z"/>
		<path class="st3" d="M284.6,283c0-0.8,1.3-1.4,2.8-1.4c1.6,0,2.8,0.6,2.8,1.4H284.6z"/>
	</g>
	<ellipse class="st4" cx="284.6" cy="288.4" rx="5.6" ry="5.4"/>
</g>
<g>
	<g>
		<path class="st3" d="M267.6,268.2c-0.8,0-1.4-1.2-1.4-2.8c0-1.5,0.6-2.8,1.4-2.8V268.2z"/>
		<path class="st3" d="M267.5,268.1c0-0.8,1.3-1.4,2.8-1.4c1.6,0,2.8,0.6,2.8,1.4H267.5z"/>
	</g>
	<ellipse class="st4" cx="267.5" cy="273.5" rx="5.6" ry="5.4"/>
</g>
<g>
	<g>
		<path class="st3" d="M231.1,298.1c-0.8,0-1.4-1.2-1.4-2.8c0-1.5,0.6-2.8,1.4-2.8V298.1z"/>
		<path class="st3" d="M230.9,298c0-0.8,1.3-1.4,2.8-1.4c1.6,0,2.8,0.6,2.8,1.4H230.9z"/>
	</g>
	<ellipse class="st4" cx="231" cy="303.4" rx="5.6" ry="5.4"/>
</g>
<g>
	<g>
		<path class="st3" d="M309.9,298.1c-0.8,0-1.4-1.2-1.4-2.8c0-1.5,0.6-2.8,1.4-2.8V298.1z"/>
		<path class="st3" d="M309.7,298c0-0.8,1.3-1.4,2.8-1.4c1.6,0,2.8,0.6,2.8,1.4H309.7z"/>
	</g>
	<ellipse class="st4" cx="309.8" cy="303.4" rx="5.6" ry="5.4"/>
</g>
<g>
	<g>
		<path class="st3" d="M368.1,265.5c-0.8,0-1.4-1.2-1.4-2.8s0.6-2.8,1.4-2.8V265.5z"/>
		<path class="st3" d="M368,265.4c0-0.8,1.3-1.4,2.8-1.4c1.6,0,2.8,0.6,2.8,1.4H368z"/>
	</g>
	<ellipse class="st4" cx="368" cy="270.8" rx="5.6" ry="5.4"/>
</g>
<g>
	<g>
		<path class="st3" d="M200.1,317.1c-0.8,0-1.4-1.2-1.4-2.8c0-1.5,0.6-2.8,1.4-2.8V317.1z"/>
		<path class="st3" d="M200,317c0-0.8,1.3-1.4,2.8-1.4s2.8,0.6,2.8,1.4H200z"/>
	</g>
	<ellipse class="st4" cx="200" cy="322.4" rx="5.6" ry="5.4"/>
</g>
<g>
	<g>
		<path class="st3" d="M153.6,266.2c-0.8,0-1.4-1.2-1.4-2.8s0.6-2.8,1.4-2.8V266.2z"/>
		<path class="st3" d="M153.5,266c0-0.8,1.3-1.4,2.8-1.4c1.6,0,2.8,0.6,2.8,1.4H153.5z"/>
	</g>
	<ellipse class="st4" cx="153.5" cy="271.5" rx="5.6" ry="5.4"/>
</g>
<g>
	<g>
		<path class="st3" d="M50.8,308.9c-0.8,0-1.4-1.2-1.4-2.8c0-1.5,0.6-2.8,1.4-2.8V308.9z"/>
		<path class="st3" d="M50.7,308.8c0-0.8,1.3-1.4,2.8-1.4c1.6,0,2.8,0.6,2.8,1.4H50.7z"/>
	</g>
	<ellipse class="st4" cx="50.7" cy="314.3" rx="5.6" ry="5.4"/>
</g>
<g>
	<g>
		<path class="st3" d="M351.6,292.7c-0.8,0-1.4-1.2-1.4-2.8s0.6-2.8,1.4-2.8V292.7z"/>
		<path class="st3" d="M351.5,292.6c0-0.8,1.3-1.4,2.8-1.4c1.6,0,2.8,0.6,2.8,1.4H351.5z"/>
	</g>
	<ellipse class="st4" cx="351.5" cy="298.1" rx="5.6" ry="5.4"/>
</g>
<g>
	<g>
		<path class="st3" d="M269.8,303.6c-0.8,0-1.4-1.2-1.4-2.8s0.6-2.8,1.4-2.8V303.6z"/>
		<path class="st3" d="M269.6,303.5c0-0.8,1.3-1.4,2.8-1.4s2.8,0.6,2.8,1.4H269.6z"/>
	</g>
	<ellipse class="st4" cx="269.7" cy="308.9" rx="5.6" ry="5.4"/>
</g>
<g>
	<g>
		<path class="st3" d="M38.6,322.1c-0.8,0-1.4-1.3-1.3-2.8c0-1.5,0.7-2.7,1.5-2.7L38.6,322.1z"/>
		<path class="st3" d="M38.5,322c0-0.8,1.3-1.4,2.9-1.3c1.6,0,2.8,0.7,2.8,1.4L38.5,322z"/>
	</g>
	
		<ellipse transform="matrix(2.373799e-02 -0.9997 0.9997 2.373799e-02 -289.8315 357.9463)" class="st4" cx="38.4" cy="327.4" rx="5.4" ry="5.6"/>
</g>
<g>
	<g>
		<path class="st3" d="M81,328.5c-0.8,0-1.4-1.3-1.3-2.8c0-1.5,0.7-2.7,1.5-2.7L81,328.5z"/>
		<path class="st3" d="M80.9,328.4c0-0.8,1.3-1.4,2.9-1.3s2.8,0.7,2.8,1.4L80.9,328.4z"/>
	</g>
	
		<ellipse transform="matrix(2.373799e-02 -0.9997 0.9997 2.373799e-02 -254.9114 406.5646)" class="st4" cx="80.7" cy="333.8" rx="5.4" ry="5.6"/>
</g>
<g>
	<g>
		<path class="st3" d="M119.4,321.7c-0.8,0-1.4-1.3-1.3-2.8s0.7-2.7,1.5-2.7L119.4,321.7z"/>
		<path class="st3" d="M119.3,321.6c0-0.8,1.3-1.4,2.9-1.3c1.6,0,2.8,0.7,2.8,1.4L119.3,321.6z"/>
	</g>
	
		<ellipse transform="matrix(2.373799e-02 -0.9997 0.9997 2.373799e-02 -210.6149 438.4096)" class="st4" cx="119.2" cy="327" rx="5.4" ry="5.6"/>
</g>
<g>
	<g>
		<path class="st3" d="M251.6,329.9c-0.8,0-1.4-1.3-1.3-2.8c0-1.5,0.7-2.7,1.5-2.7L251.6,329.9z"/>
		<path class="st3" d="M251.5,329.7c0-0.8,1.3-1.4,2.9-1.3c1.6,0,2.8,0.7,2.8,1.4L251.5,329.7z"/>
	</g>
	
		<ellipse transform="matrix(2.373799e-02 -0.9997 0.9997 2.373799e-02 -89.642 578.5961)" class="st4" cx="251.4" cy="335.2" rx="5.4" ry="5.6"/>
</g>
<g>
	<g>
		<path class="st3" d="M171.6,311.6c-0.8,0-1.4-1.3-1.3-2.8c0-1.5,0.7-2.7,1.5-2.7L171.6,311.6z"/>
		<path class="st3" d="M171.5,311.5c0-0.8,1.3-1.4,2.9-1.3c1.6,0,2.8,0.7,2.8,1.4L171.5,311.5z"/>
	</g>
	
		<ellipse transform="matrix(2.373799e-02 -0.9997 0.9997 2.373799e-02 -149.5331 480.8152)" class="st4" cx="171.4" cy="317" rx="5.4" ry="5.6"/>
</g>
<g>
	<g>
		<path class="st3" d="M318.4,317.1c-0.8,0-1.4-1.3-1.3-2.8c0-1.5,0.7-2.7,1.5-2.7L318.4,317.1z"/>
		<path class="st3" d="M318.2,317c0-0.8,1.3-1.4,2.9-1.3s2.8,0.7,2.8,1.4L318.2,317z"/>
	</g>
	
		<ellipse transform="matrix(2.373799e-02 -0.9997 0.9997 2.373799e-02 -11.7777 632.8204)" class="st4" cx="318.1" cy="322.4" rx="5.4" ry="5.6"/>
</g>
<g>
	<g>
		<path class="st3" d="M275.4,133.5c-0.8,0-1.4-1.2-1.4-2.8c0-1.5,0.6-2.8,1.4-2.8V133.5z"/>
		<path class="st3" d="M275.3,133.4c0-0.8,1.3-1.4,2.8-1.4c1.6,0,2.8,0.6,2.8,1.4H275.3z"/>
	</g>
	<ellipse class="st4" cx="275.3" cy="138.9" rx="5.6" ry="5.4"/>
</g>
<g>
	<g>
		<path class="st3" d="M321.6,154.7c-0.8,0-1.4-1.2-1.4-2.8s0.6-2.8,1.4-2.8V154.7z"/>
		<path class="st3" d="M321.5,154.5c0-0.8,1.3-1.4,2.8-1.4c1.6,0,2.8,0.6,2.8,1.4H321.5z"/>
	</g>
	<ellipse class="st4" cx="321.5" cy="160" rx="5.6" ry="5.4"/>
</g>
<g>
	<g>
		<path class="st3" d="M316.1,101.7c-0.8,0-1.4-1.2-1.4-2.8c0-1.5,0.6-2.8,1.4-2.8V101.7z"/>
		<path class="st3" d="M316,101.6c0-0.8,1.3-1.4,2.8-1.4c1.6,0,2.8,0.6,2.8,1.4H316z"/>
	</g>
	<ellipse class="st4" cx="316" cy="107" rx="5.6" ry="5.4"/>
</g>
<g>
	<g>
		<path class="st3" d="M252.6,82.6c-0.8,0-1.4-1.2-1.4-2.8c0-1.5,0.6-2.8,1.4-2.8V82.6z"/>
		<path class="st3" d="M252.5,82.5c0-0.8,1.3-1.4,2.8-1.4c1.6,0,2.8,0.6,2.8,1.4H252.5z"/>
	</g>
	<ellipse class="st4" cx="252.5" cy="87.9" rx="5.6" ry="5.4"/>
</g>
<g>
	<g>
		<path class="st3" d="M126.8,104.4c-0.8,0-1.4-1.2-1.4-2.8c0-1.5,0.6-2.8,1.4-2.8V104.4z"/>
		<path class="st3" d="M126.6,104.3c0-0.8,1.3-1.4,2.8-1.4c1.6,0,2.8,0.6,2.8,1.4H126.6z"/>
	</g>
	<ellipse class="st4" cx="126.7" cy="109.7" rx="5.6" ry="5.4"/>
</g>
<g>
	<g>
		<path class="st2" d="M71.3,253.5H58.2c-3.6,0-6.6-3-6.6-6.6v-5.3c0-0.8,0.6-1.4,1.4-1.4l0,0c0.8,0,1.4,0.6,1.4,1.4v5.3
			c0,2.1,1.8,3.9,3.9,3.9h13.2c0.8,0,1.4,0.6,1.4,1.4S72.1,253.5,71.3,253.5z"/>
		<path class="st2" d="M89.7,241.2H76.6c-0.8,0-1.4-0.6-1.4-1.4s0.6-1.4,1.4-1.4h13.2c2.1,0,3.9-1.8,3.9-3.9v-1.8
			c0-0.8,0.6-1.4,1.4-1.4l0,0c0.8,0,1.4,0.6,1.4,1.4v1.8C96.4,238.2,93.4,241.2,89.7,241.2z"/>
		<rect x="71.3" y="222.3" class="st2" width="5.3" height="46.4"/>
	</g>
	<path class="st1" d="M105.5,208.3L105.5,208.3c0-3.9-3.1-7-7-7H95v-3.5c0-3.9-3.1-7-7-7H70.4c-3.9,0-7,3.1-7,7h-5.3
		c-2.9,0-5.3,2.4-5.3,5.3h-4.4c-3.1,0-5.7,2.3-6.1,5.3h-1.8c-4.8,0-8.8,3.9-8.8,8.8c0,4.8,3.9,8.8,8.8,8.8h64.9
		c4.8,0,8.8-3.9,8.8-8.8C114.3,212.2,110.3,208.3,105.5,208.3z"/>
	<path class="st1" d="M98.5,220.5c1.9,0,3.5,1.6,3.5,3.5v1.8h3.5c1.9,0,3.5,1.6,3.5,3.5c0,1.9-1.6,3.5-3.5,3.5H86.2
		c-1.9,0-3.5-1.6-3.5-3.5c0-1.9,1.6-3.5,3.5-3.5H88V224c0-1.9,1.6-3.5,3.5-3.5H98.5L98.5,220.5z"/>
	<path class="st1" d="M49.4,229.3c-1.9,0-3.5,1.6-3.5,3.5v1.8h-3.5c-1.9,0-3.5,1.6-3.5,3.5c0,1.9,1.6,3.5,3.5,3.5h19.3
		c1.9,0,3.5-1.6,3.5-3.5c0-1.9-1.6-3.5-3.5-3.5h-1.8v-1.8c0-1.9-1.6-3.5-3.5-3.5H49.4L49.4,229.3z"/>
	<g>
		<g>
			<path class="st3" d="M59.7,202.6c-0.2,0-0.4-0.3-0.4-0.8c0-0.4,0.2-0.8,0.4-0.8V202.6z"/>
			<path class="st3" d="M59.7,202.6c0-0.2,0.4-0.4,0.8-0.4s0.8,0.2,0.8,0.4H59.7z"/>
		</g>
		<ellipse class="st4" cx="59.7" cy="204.1" rx="1.6" ry="1.5"/>
	</g>
	<g>
		<g>
			<path class="st3" d="M95,196.2c-0.2,0-0.4-0.3-0.4-0.8c0-0.4,0.2-0.8,0.4-0.8V196.2z"/>
			<path class="st3" d="M95,196.2c0-0.2,0.4-0.4,0.8-0.4c0.4,0,0.8,0.2,0.8,0.4H95z"/>
		</g>
		<ellipse class="st4" cx="95" cy="197.7" rx="1.6" ry="1.5"/>
	</g>
	<g>
		<g>
			<path class="st3" d="M60.1,240.1c-0.2,0-0.4-0.3-0.4-0.8c0-0.4,0.2-0.8,0.4-0.8V240.1z"/>
			<path class="st3" d="M60.1,240c0-0.2,0.4-0.4,0.8-0.4c0.4,0,0.8,0.2,0.8,0.4H60.1z"/>
		</g>
		<ellipse class="st4" cx="60.1" cy="241.6" rx="1.6" ry="1.5"/>
	</g>
	<g>
		<g>
			<path class="st3" d="M68,224.4c-0.2,0-0.4-0.3-0.4-0.8s0.2-0.8,0.4-0.8V224.4z"/>
			<path class="st3" d="M68,224.3c0-0.2,0.4-0.4,0.8-0.4s0.8,0.2,0.8,0.4H68z"/>
		</g>
		<ellipse class="st4" cx="68" cy="225.9" rx="1.6" ry="1.5"/>
	</g>
	<g>
		<g>
			<path class="st3" d="M45.7,232.9c-0.3,0-0.5-0.4-0.5-1c0-0.5,0.2-1,0.5-1V232.9z"/>
			<path class="st3" d="M45.6,232.9c0-0.3,0.4-0.5,1-0.5c0.5,0,1,0.2,1,0.5H45.6z"/>
		</g>
		<ellipse class="st4" cx="45.6" cy="234.8" rx="1.9" ry="1.9"/>
	</g>
	<g>
		<g>
			<path class="st3" d="M88,223.3c-0.3,0-0.5-0.4-0.5-1c0-0.5,0.2-1,0.5-1V223.3z"/>
			<path class="st3" d="M88,223.3c0-0.3,0.4-0.5,1-0.5c0.5,0,1,0.2,1,0.5H88z"/>
		</g>
		<ellipse class="st4" cx="88" cy="225.1" rx="1.9" ry="1.9"/>
	</g>
	<g>
		<g>
			<path class="st3" d="M103.9,230.6c-0.3,0-0.5-0.4-0.5-1c0-0.5,0.2-1,0.5-1V230.6z"/>
			<path class="st3" d="M103.9,230.5c0-0.3,0.4-0.5,1-0.5c0.5,0,1,0.2,1,0.5H103.9z"/>
		</g>
		<ellipse class="st4" cx="103.9" cy="232.4" rx="1.9" ry="1.9"/>
	</g>
	<g>
		<g>
			<path class="st3" d="M102,212.4c-0.3,0-0.5-0.4-0.5-1c0-0.5,0.2-1,0.5-1V212.4z"/>
			<path class="st3" d="M102,212.3c0-0.3,0.4-0.5,1-0.5c0.5,0,1,0.2,1,0.5H102z"/>
		</g>
		<ellipse class="st4" cx="102" cy="214.2" rx="1.9" ry="1.9"/>
	</g>
	<g>
		<g>
			<path class="st3" d="M80.2,205.8c-0.3,0-0.5-0.4-0.5-1c0-0.5,0.2-1,0.5-1V205.8z"/>
			<path class="st3" d="M80.2,205.8c0-0.3,0.4-0.5,1-0.5c0.5,0,1,0.2,1,0.5H80.2z"/>
		</g>
		<ellipse class="st4" cx="80.2" cy="207.6" rx="1.9" ry="1.9"/>
	</g>
	<path class="st5" d="M105.5,225.8c4.8,0,8.8-3.9,8.8-8.8c0-4.8-3.9-8.7-8.8-8.7c0-3.9-3.1-7-7-7H95v-2c0.9,0,1.6-0.7,1.6-1.5
		c0-0.8-0.7-1.5-1.5-1.5v0h1.6c0-0.2-0.4-0.4-0.8-0.4c-0.4,0-0.7,0.1-0.8,0.3v-1.5c-0.2,0-0.4,0.3-0.4,0.8c0,0,0,0,0,0.1
		c-0.9-2.8-3.5-4.8-6.6-4.8H70.4c-3.9,0-7,3.1-7,7h-5.3c-2.9,0-5.3,2.4-5.3,5.3h-4.4c-3.1,0-5.7,2.3-6.1,5.3h-1.8
		c-4.8,0-8.8,3.9-8.8,8.8s3.9,8.8,8.8,8.8h25.8c0,0,0,0.1,0,0.1c0,0.9,0.7,1.5,1.6,1.5s1.6-0.7,1.6-1.5c0,0,0-0.1,0-0.1h1.8v25H58.2
		c-2.1,0-3.9-1.8-3.9-3.9v-5.3h4.2c0,0.9,0.7,1.5,1.6,1.5c0.9,0,1.6-0.7,1.6-1.5c1.9,0,3.5-1.6,3.5-3.5c0-1.9-1.6-3.5-3.5-3.5h-1.8
		v-1.8c0-1.9-1.6-3.5-3.5-3.5h-7c-1.8,0-3.3,1.4-3.5,3.2c-0.1,0.1-0.2,0.2-0.2,0.2V231c-0.3,0-0.5,0.4-0.5,1c0,0.5,0.2,1,0.5,1v0
		h0.2v0.1c-0.1,0-0.2,0-0.2,0c-1,0-1.8,0.7-1.9,1.7h-1.4c-1.9,0-3.5,1.6-3.5,3.5c0,1.9,1.6,3.5,3.5,3.5h9.2v5.3c0,3.6,3,6.6,6.6,6.6
		h13.2v15.2h5.3v-27.5h13.2c3.6,0,6.6-3,6.6-6.6v-1.8c0,0,0,0,0,0h5.6c0.2,0.8,1,1.4,1.9,1.4c0.9,0,1.7-0.6,1.9-1.5
		c1.8-0.1,3.3-1.6,3.3-3.5C109,227.4,107.4,225.8,105.5,225.8l-3.5,0v0H105.5z M95,196.2c0,0-0.1,0-0.1,0c0-0.1,0-0.1,0-0.2
		C94.8,196.1,94.9,196.2,95,196.2z M93.6,232.8v1.8c0,2.1-1.8,3.9-3.9,3.9H76.6v-12.7h9.6c0,0,0,0,0,0c-1.9,0-3.5,1.6-3.5,3.5
		c0,1.9,1.6,3.5,3.5,3.5L93.6,232.8C93.6,232.8,93.6,232.8,93.6,232.8z"/>
</g>
</svg>
