<?xml version="1.0" encoding="utf-8"?>
<!-- Generator: Adobe Illustrator 22.1.0, SVG Export Plug-In . SVG Version: 6.00 Build 0)  -->
<svg version="1.1" id="Layer_1" xmlns="http://www.w3.org/2000/svg" xmlns:xlink="http://www.w3.org/1999/xlink" x="0px" y="0px"
	 viewBox="0 0 400 400" style="enable-background:new 0 0 400 400;" xml:space="preserve">
<style type="text/css">
	.st0{fill:#B8E4F1;}
	.st1{fill:#EE412A;}
	.st2{fill:#FFFFFF;}
	.st3{fill:#0091C8;}
	.st4{fill:#F6921E;}
	.st5{fill:#72CDE5;}
	.st6{clip-path:url(#SVGID_2_);}
	.st7{fill:#242420;}
	.st8{fill:#FBAF28;}
	.st9{font-family:'Nunito-Bold';}
	.st10{font-size:53.8549px;}
	.st11{font-size:58.3359px;}
</style>
<path class="st0" d="M370.3,361.7H28.9c-10.4,0-18.9-8.5-18.9-18.9V37.1c0-10.4,8.5-18.9,18.9-18.9h341.4c10.4,0,18.9,8.5,18.9,18.9
	v305.7C389.2,353.2,380.7,361.7,370.3,361.7z"/>
<path class="st1" d="M105,117.7c2,1.3,4.4,1.8,6.7,1.3c2.3-0.5,4.3-1.8,5.7-3.8c2.7-4.1,1.6-9.7-2.5-12.4c-4.1-2.7-9.7-1.6-12.4,2.5
	C99.8,109.4,100.9,115,105,117.7z M107.5,108.6c0.9-1.3,2.7-1.7,4.1-0.8c1.3,0.9,1.7,2.8,0.8,4.1c-0.9,1.4-2.7,1.8-4.1,0.8
	C107,111.9,106.6,110,107.5,108.6z"/>
<path class="st1" d="M35.8,320.8c2,1.3,4.4,1.8,6.7,1.3c2.3-0.5,4.3-1.8,5.7-3.8c2.7-4.1,1.6-9.7-2.5-12.4
	c-4.1-2.7-9.7-1.6-12.4,2.5C30.5,312.6,31.7,318.1,35.8,320.8z M38.2,311.7c0.9-1.3,2.7-1.7,4.1-0.8c1.3,0.9,1.7,2.8,0.8,4.1
	c-0.9,1.4-2.7,1.8-4.1,0.8C37.7,315,37.3,313.2,38.2,311.7z"/>
<path class="st1" d="M256.2,329.8c2,1.3,4.4,1.8,6.7,1.3c2.3-0.5,4.3-1.8,5.7-3.8c2.7-4.1,1.6-9.7-2.5-12.4
	c-4.1-2.7-9.7-1.6-12.4,2.5C251,321.5,252.1,327,256.2,329.8z M258.7,320.7c0.9-1.3,2.7-1.7,4.1-0.8c1.3,0.9,1.7,2.8,0.8,4.1
	c-0.9,1.4-2.7,1.8-4.1,0.8C258.2,323.9,257.8,322.1,258.7,320.7z"/>
<path class="st2" d="M170.9,96.9c2,1.3,4.4,1.8,6.7,1.3c2.3-0.5,4.3-1.8,5.7-3.8c2.7-4.1,1.6-9.7-2.5-12.4
	c-4.1-2.7-9.7-1.6-12.4,2.5C165.7,88.6,166.8,94.2,170.9,96.9z M173.4,87.8c0.9-1.3,2.7-1.7,4.1-0.8c1.3,0.9,1.7,2.8,0.8,4.1
	c-0.9,1.4-2.7,1.8-4.1,0.8C172.9,91,172.4,89.2,173.4,87.8z"/>
<path class="st2" d="M294.6,311.9c2,1.3,4.4,1.8,6.7,1.3c2.3-0.5,4.3-1.8,5.7-3.8c2.7-4.1,1.6-9.7-2.5-12.4
	c-4.1-2.7-9.7-1.6-12.4,2.5C289.4,303.6,290.5,309.2,294.6,311.9z M297.1,302.8c0.9-1.3,2.7-1.7,4.1-0.8c1.3,0.9,1.7,2.8,0.8,4.1
	c-0.9,1.4-2.7,1.8-4.1,0.8C296.6,306.1,296.2,304.2,297.1,302.8z"/>
<path class="st2" d="M29.8,108.8c2,1.3,4.4,1.8,6.7,1.3c2.3-0.5,4.3-1.8,5.7-3.8c2.7-4.1,1.6-9.7-2.5-12.4
	c-4.1-2.7-9.7-1.6-12.4,2.5C24.6,100.5,25.7,106.1,29.8,108.8z M32.3,99.7c0.9-1.3,2.7-1.7,4.1-0.8c1.3,0.9,1.7,2.8,0.8,4.1
	c-0.9,1.4-2.7,1.8-4.1,0.8C31.8,102.9,31.3,101.1,32.3,99.7z"/>
<path class="st1" d="M309.9,99.9c2,1.3,4.4,1.8,6.7,1.3s4.3-1.8,5.7-3.8c2.7-4.1,1.6-9.7-2.5-12.4c-4.1-2.7-9.7-1.6-12.4,2.5
	C304.6,91.6,305.7,97.1,309.9,99.9z M312.3,90.8c0.9-1.3,2.7-1.7,4.1-0.8c1.3,0.9,1.7,2.8,0.8,4.1c-0.9,1.4-2.7,1.8-4.1,0.8
	C311.8,94,311.4,92.2,312.3,90.8z"/>
<path class="st1" d="M351,52.6c2,1.3,4.4,1.8,6.7,1.3c2.3-0.5,4.3-1.8,5.7-3.8c2.7-4.1,1.6-9.7-2.5-12.4c-4.1-2.7-9.7-1.6-12.4,2.5
	C345.8,44.3,346.9,49.9,351,52.6z M353.5,43.5c0.9-1.3,2.7-1.7,4.1-0.8c1.3,0.9,1.7,2.8,0.8,4.1c-0.9,1.4-2.7,1.8-4.1,0.8
	C353,46.7,352.6,44.9,353.5,43.5z"/>
<circle class="st3" cx="243.2" cy="247.3" r="3"/>
<circle class="st3" cx="118.9" cy="290.7" r="3"/>
<circle class="st1" cx="199" cy="194.6" r="3"/>
<circle class="st1" cx="31.8" cy="155.8" r="3"/>
<circle class="st1" cx="25.8" cy="54.1" r="3"/>
<circle class="st3" cx="217.4" cy="216.8" r="3"/>
<circle class="st3" cx="195.4" cy="253.2" r="3"/>
<g>
	<path class="st4" d="M245.7,218l-0.6-2.9c-0.3-1.6,0.7-3.2,2.3-3.5c1.6-0.3,3.2,0.7,3.5,2.3l0.6,2.9c0.3,1.6-0.7,3.2-2.3,3.5
		C247.6,220.7,246,219.6,245.7,218z"/>
	<path class="st4" d="M248.6,232.6l-0.6-2.9c-0.3-1.6,0.7-3.2,2.3-3.5c1.6-0.3,3.2,0.7,3.5,2.3l0.6,2.9c0.3,1.6-0.7,3.2-2.3,3.5
		C250.5,235.3,248.9,234.2,248.6,232.6z"/>
	<path class="st4" d="M252.7,222.7c-0.3-1.6,0.7-3.2,2.3-3.5l2.9-0.6c1.6-0.3,3.2,0.7,3.5,2.3s-0.7,3.2-2.3,3.5l-2.9,0.6
		C254.6,225.3,253,224.3,252.7,222.7z"/>
	<path class="st4" d="M238.1,225.6c-0.3-1.6,0.7-3.2,2.3-3.5l2.9-0.6c1.6-0.3,3.2,0.7,3.5,2.3c0.3,1.6-0.7,3.2-2.3,3.5l-2.9,0.6
		C240,228.3,238.4,227.2,238.1,225.6z"/>
</g>
<g>
	<path class="st4" d="M52.8,63.5l-0.6-2.9c-0.3-1.6,0.7-3.2,2.3-3.5s3.2,0.7,3.5,2.3l0.6,2.9c0.3,1.6-0.7,3.2-2.3,3.5
		C54.7,66.2,53.2,65.2,52.8,63.5z"/>
	<path class="st4" d="M55.8,78.1l-0.6-2.9c-0.3-1.6,0.7-3.2,2.3-3.5c1.6-0.3,3.2,0.7,3.5,2.3l0.6,2.9c0.3,1.6-0.7,3.2-2.3,3.5
		C57.6,80.8,56.1,79.7,55.8,78.1z"/>
	<path class="st4" d="M59.8,68.2c-0.3-1.6,0.7-3.2,2.3-3.5l2.9-0.6c1.6-0.3,3.2,0.7,3.5,2.3c0.3,1.6-0.7,3.2-2.3,3.5l-2.9,0.6
		C61.7,70.9,60.2,69.8,59.8,68.2z"/>
	<path class="st4" d="M45.2,71.1c-0.3-1.6,0.7-3.2,2.3-3.5l2.9-0.6c1.6-0.3,3.2,0.7,3.5,2.3c0.3,1.6-0.7,3.2-2.3,3.5l-2.9,0.6
		C47.1,73.8,45.6,72.7,45.2,71.1z"/>
</g>
<path class="st4" d="M205.3,281.9c2,1.3,4.4,1.8,6.7,1.3c2.3-0.5,4.3-1.8,5.7-3.8c2.7-4.1,1.6-9.7-2.5-12.4
	c-4.1-2.7-9.7-1.6-12.4,2.5C200.1,273.6,201.2,279.2,205.3,281.9z M207.8,272.8c0.9-1.3,2.7-1.7,4.1-0.8c1.3,0.9,1.7,2.8,0.8,4.1
	c-0.9,1.4-2.7,1.8-4.1,0.8C207.3,276.1,206.9,274.2,207.8,272.8z"/>
<path class="st4" d="M32.8,295.6c2,1.3,4.4,1.8,6.7,1.3c2.3-0.5,4.3-1.8,5.7-3.8c2.7-4.1,1.6-9.7-2.5-12.4
	c-4.1-2.7-9.7-1.6-12.4,2.5C27.6,287.3,28.7,292.8,32.8,295.6z M35.3,286.5c0.9-1.3,2.7-1.7,4.1-0.8c1.3,0.9,1.7,2.8,0.8,4.1
	c-0.9,1.4-2.7,1.8-4.1,0.8C34.7,289.7,34.3,287.9,35.3,286.5z"/>
<path class="st4" d="M136.6,55.6c2,1.3,4.4,1.8,6.7,1.3c2.3-0.5,4.3-1.8,5.7-3.8c2.7-4.1,1.6-9.7-2.5-12.4
	c-4.1-2.7-9.7-1.6-12.4,2.5C131.4,47.3,132.5,52.8,136.6,55.6z M139.1,46.5c0.9-1.3,2.7-1.7,4.1-0.8c1.3,0.9,1.7,2.8,0.8,4.1
	c-0.9,1.4-2.7,1.8-4.1,0.8C138.5,49.7,138.1,47.9,139.1,46.5z"/>
<path class="st4" d="M173.5,238c2,1.3,4.4,1.8,6.7,1.3s4.3-1.8,5.7-3.8c2.7-4.1,1.6-9.7-2.5-12.4c-4.1-2.7-9.7-1.6-12.4,2.5
	C168.2,229.7,169.3,235.3,173.5,238z M175.9,228.9c0.9-1.3,2.7-1.7,4.1-0.8c1.3,0.9,1.7,2.8,0.8,4.1c-0.9,1.4-2.7,1.8-4.1,0.8
	C175.4,232.1,175,230.3,175.9,228.9z"/>
<path class="st4" d="M204.6,106.7c0.8,0.5,1.8,0.7,2.7,0.5c1-0.2,1.8-0.7,2.3-1.6c1.1-1.7,0.7-3.9-1-5c-1.7-1.1-3.9-0.7-5,1
	C202.5,103.3,203,105.6,204.6,106.7z M205.6,103c0.4-0.5,1.1-0.7,1.7-0.3c0.5,0.4,0.7,1.1,0.3,1.7c-0.4,0.6-1.1,0.7-1.7,0.3
	C205.4,104.3,205.3,103.6,205.6,103z"/>
<path class="st4" d="M125.8,86.4c0.8,0.5,1.8,0.7,2.7,0.5c1-0.2,1.8-0.7,2.3-1.6c1.1-1.7,0.7-3.9-1-5c-1.7-1.1-3.9-0.7-5,1
	C123.7,83,124.1,85.3,125.8,86.4z M126.8,82.7c0.4-0.5,1.1-0.7,1.7-0.3c0.5,0.4,0.7,1.1,0.3,1.7c-0.4,0.6-1.1,0.7-1.7,0.3
	C126.6,84,126.4,83.3,126.8,82.7z"/>
<path class="st4" d="M220,313.5c0.8,0.5,1.8,0.7,2.7,0.5s1.8-0.7,2.3-1.6c1.1-1.7,0.7-3.9-1-5c-1.7-1.1-3.9-0.7-5,1
	C217.9,310.1,218.3,312.3,220,313.5z M221,309.8c0.4-0.5,1.1-0.7,1.7-0.3c0.5,0.4,0.7,1.1,0.3,1.7c-0.4,0.6-1.1,0.7-1.7,0.3
	C220.8,311.1,220.6,310.3,221,309.8z"/>
<path class="st4" d="M376.5,127.9c0.8,0.5,1.8,0.7,2.7,0.5c1-0.2,1.8-0.7,2.3-1.6c1.1-1.7,0.7-3.9-1-5c-1.7-1.1-3.9-0.7-5,1
	C374.4,124.5,374.9,126.8,376.5,127.9z M377.6,124.2c0.4-0.5,1.1-0.7,1.7-0.3c0.5,0.4,0.7,1.1,0.3,1.7c-0.4,0.6-1.1,0.7-1.7,0.3
	C377.3,125.5,377.2,124.8,377.6,124.2z"/>
<path class="st4" d="M252.5,44c0.8,0.5,1.8,0.7,2.7,0.5c1-0.2,1.8-0.7,2.3-1.6c1.1-1.7,0.7-3.9-1-5c-1.7-1.1-3.9-0.7-5,1
	C250.4,40.7,250.8,42.9,252.5,44z M253.5,40.3c0.4-0.5,1.1-0.7,1.7-0.3c0.5,0.4,0.7,1.1,0.3,1.7c-0.4,0.6-1.1,0.7-1.7,0.3
	C253.3,41.7,253.1,40.9,253.5,40.3z"/>
<path class="st4" d="M119.9,160.3c2,1.3,4.4,1.8,6.7,1.3c2.3-0.5,4.3-1.8,5.7-3.8c2.7-4.1,1.6-9.7-2.5-12.4
	c-4.1-2.7-9.7-1.6-12.4,2.5C114.7,152,115.8,157.6,119.9,160.3z M122.4,151.2c0.9-1.3,2.7-1.7,4.1-0.8c1.3,0.9,1.7,2.8,0.8,4.1
	c-0.9,1.4-2.7,1.8-4.1,0.8C121.9,154.4,121.4,152.6,122.4,151.2z"/>
<path class="st4" d="M95.7,61.5c2,1.3,4.4,1.8,6.7,1.3c2.3-0.5,4.3-1.8,5.7-3.8c2.7-4.1,1.6-9.7-2.5-12.4c-4.1-2.7-9.7-1.6-12.4,2.5
	C90.5,53.2,91.6,58.8,95.7,61.5z M98.2,52.4c0.9-1.3,2.7-1.7,4.1-0.8c1.3,0.9,1.7,2.8,0.8,4.1c-0.9,1.4-2.7,1.8-4.1,0.8
	C97.6,55.7,97.2,53.8,98.2,52.4z"/>
<g>
	<path class="st2" d="M167,278.2l-0.6-2.9c-0.3-1.6,0.7-3.2,2.3-3.5s3.2,0.7,3.5,2.3l0.6,2.9c0.3,1.6-0.7,3.2-2.3,3.5
		C168.9,280.8,167.3,279.8,167,278.2z"/>
	<path class="st2" d="M169.9,292.7l-0.6-2.9c-0.3-1.6,0.7-3.2,2.3-3.5c1.6-0.3,3.2,0.7,3.5,2.3l0.6,2.9c0.3,1.6-0.7,3.2-2.3,3.5
		C171.8,295.4,170.3,294.4,169.9,292.7z"/>
	<path class="st2" d="M174,282.8c-0.3-1.6,0.7-3.2,2.3-3.5l2.9-0.6c1.6-0.3,3.2,0.7,3.5,2.3c0.3,1.6-0.7,3.2-2.3,3.5l-2.9,0.6
		C175.9,285.5,174.3,284.4,174,282.8z"/>
	<path class="st2" d="M159.4,285.7c-0.3-1.6,0.7-3.2,2.3-3.5l2.9-0.6c1.6-0.3,3.2,0.7,3.5,2.3c0.3,1.6-0.7,3.2-2.3,3.5l-2.9,0.6
		C161.3,288.4,159.7,287.4,159.4,285.7z"/>
</g>
<g>
	<path class="st1" d="M206.2,335.6l-0.6-2.9c-0.3-1.6,0.7-3.2,2.3-3.5c1.6-0.3,3.2,0.7,3.5,2.3l0.6,2.9c0.3,1.6-0.7,3.2-2.3,3.5
		C208.1,338.3,206.5,337.3,206.2,335.6z"/>
	<path class="st1" d="M209.1,350.2l-0.6-2.9c-0.3-1.6,0.7-3.2,2.3-3.5c1.6-0.3,3.2,0.7,3.5,2.3l0.6,2.9c0.3,1.6-0.7,3.2-2.3,3.5
		C211,352.9,209.4,351.8,209.1,350.2z"/>
	<path class="st1" d="M213.2,340.3c-0.3-1.6,0.7-3.2,2.3-3.5l2.9-0.6c1.6-0.3,3.2,0.7,3.5,2.3c0.3,1.6-0.7,3.2-2.3,3.5l-2.9,0.6
		C215.1,343,213.5,341.9,213.2,340.3z"/>
	<path class="st1" d="M198.6,343.2c-0.3-1.6,0.7-3.2,2.3-3.5l2.9-0.6c1.6-0.3,3.2,0.7,3.5,2.3s-0.7,3.2-2.3,3.5l-2.9,0.6
		C200.5,345.9,198.9,344.9,198.6,343.2z"/>
</g>
<g>
	<path class="st5" d="M59.9,29.8l-0.6-2.9c-0.3-1.6,0.7-3.2,2.3-3.5s3.2,0.7,3.5,2.3l0.6,2.9c0.3,1.6-0.7,3.2-2.3,3.5
		C61.8,32.5,60.3,31.4,59.9,29.8z"/>
	<path class="st5" d="M62.9,44.4l-0.6-2.9C62,39.9,63,38.3,64.6,38c1.6-0.3,3.2,0.7,3.5,2.3l0.6,2.9c0.3,1.6-0.7,3.2-2.3,3.5
		C64.8,47.1,63.2,46,62.9,44.4z"/>
	<path class="st5" d="M67,34.5c-0.3-1.6,0.7-3.2,2.3-3.5l2.9-0.6c1.6-0.3,3.2,0.7,3.5,2.3c0.3,1.6-0.7,3.2-2.3,3.5l-2.9,0.6
		C68.8,37.1,67.3,36.1,67,34.5z"/>
	<path class="st5" d="M52.4,37.4c-0.3-1.6,0.7-3.2,2.3-3.5l2.9-0.6c1.6-0.3,3.2,0.7,3.5,2.3c0.3,1.6-0.7,3.2-2.3,3.5l-2.9,0.6
		C54.3,40.1,52.7,39,52.4,37.4z"/>
</g>
<g>
	<path class="st5" d="M277.6,70.8l-0.6-2.9c-0.3-1.6,0.7-3.2,2.3-3.5c1.6-0.3,3.2,0.7,3.5,2.3l0.6,2.9c0.3,1.6-0.7,3.2-2.3,3.5
		C279.5,73.5,278,72.4,277.6,70.8z"/>
	<path class="st5" d="M280.6,85.4l-0.6-2.9c-0.3-1.6,0.7-3.2,2.3-3.5s3.2,0.7,3.5,2.3l0.6,2.9c0.3,1.6-0.7,3.2-2.3,3.5
		C282.5,88.1,280.9,87,280.6,85.4z"/>
	<path class="st5" d="M284.6,75.5c-0.3-1.6,0.7-3.2,2.3-3.5l2.9-0.6c1.6-0.3,3.2,0.7,3.5,2.3c0.3,1.6-0.7,3.2-2.3,3.5l-2.9,0.6
		C286.5,78.2,285,77.1,284.6,75.5z"/>
	<path class="st5" d="M270.1,78.4c-0.3-1.6,0.7-3.2,2.3-3.5l2.9-0.6c1.6-0.3,3.2,0.7,3.5,2.3c0.3,1.6-0.7,3.2-2.3,3.5l-2.9,0.6
		C272,81.1,270.4,80,270.1,78.4z"/>
</g>
<g>
	<path class="st5" d="M164.1,328.4l-0.6-2.9c-0.3-1.6,0.7-3.2,2.3-3.5s3.2,0.7,3.5,2.3l0.6,2.9c0.3,1.6-0.7,3.2-2.3,3.5
		C166,331,164.5,330,164.1,328.4z"/>
	<path class="st5" d="M167.1,342.9l-0.6-2.9c-0.3-1.6,0.7-3.2,2.3-3.5c1.6-0.3,3.2,0.7,3.5,2.3l0.6,2.9c0.3,1.6-0.7,3.2-2.3,3.5
		C169,345.6,167.4,344.6,167.1,342.9z"/>
	<path class="st5" d="M171.2,333c-0.3-1.6,0.7-3.2,2.3-3.5l2.9-0.6c1.6-0.3,3.2,0.7,3.5,2.3c0.3,1.6-0.7,3.2-2.3,3.5l-2.9,0.6
		C173,335.7,171.5,334.6,171.2,333z"/>
	<path class="st5" d="M156.6,335.9c-0.3-1.6,0.7-3.2,2.3-3.5l2.9-0.6c1.6-0.3,3.2,0.7,3.5,2.3c0.3,1.6-0.7,3.2-2.3,3.5l-2.9,0.6
		C158.5,338.6,156.9,337.6,156.6,335.9z"/>
</g>
<g>
	<path class="st5" d="M369.7,326.9l-0.6-2.9c-0.3-1.6,0.7-3.2,2.3-3.5s3.2,0.7,3.5,2.3l0.6,2.9c0.3,1.6-0.7,3.2-2.3,3.5
		C371.6,329.5,370.1,328.5,369.7,326.9z"/>
	<path class="st5" d="M372.7,341.5l-0.6-2.9c-0.3-1.6,0.7-3.2,2.3-3.5c1.6-0.3,3.2,0.7,3.5,2.3l0.6,2.9c0.3,1.6-0.7,3.2-2.3,3.5
		C374.6,344.1,373,343.1,372.7,341.5z"/>
	<path class="st5" d="M376.7,331.6c-0.3-1.6,0.7-3.2,2.3-3.5l2.9-0.6c1.6-0.3,3.2,0.7,3.5,2.3c0.3,1.6-0.7,3.2-2.3,3.5l-2.9,0.6
		C378.6,334.2,377.1,333.2,376.7,331.6z"/>
	<path class="st5" d="M362.1,334.5c-0.3-1.6,0.7-3.2,2.3-3.5l2.9-0.6c1.6-0.3,3.2,0.7,3.5,2.3s-0.7,3.2-2.3,3.5l-2.9,0.6
		C364,337.1,362.5,336.1,362.1,334.5z"/>
</g>
<g>
	<path class="st1" d="M233.7,269.1c-0.3-1.6,0.7-3.2,2.3-3.5l10.2-2c1.6-0.3,3.2,0.7,3.5,2.3s-0.7,3.2-2.3,3.5l-10.2,2
		C235.6,271.8,234,270.7,233.7,269.1z"/>
	<circle class="st1" cx="264.1" cy="260.1" r="3"/>
	<circle class="st3" cx="249.8" cy="280.3" r="3"/>
</g>
<g>
	<path class="st1" d="M226.5,79.4c-0.3-1.6,0.7-3.2,2.3-3.5l10.2-2c1.6-0.3,3.2,0.7,3.5,2.3c0.3,1.6-0.7,3.2-2.3,3.5l-10.2,2
		C228.4,82.1,226.8,81,226.5,79.4z"/>
	<circle class="st1" cx="256.9" cy="70.4" r="3"/>
	<circle class="st3" cx="242.6" cy="90.6" r="3"/>
</g>
<g>
	<path class="st1" d="M182.9,47c-0.3-1.6,0.7-3.2,2.3-3.5l10.2-2c1.6-0.3,3.2,0.7,3.5,2.3c0.3,1.6-0.7,3.2-2.3,3.5l-10.2,2
		C184.8,49.7,183.2,48.7,182.9,47z"/>
	<circle class="st1" cx="213.4" cy="38" r="3"/>
	<circle class="st3" cx="199" cy="58.2" r="3"/>
</g>
<g>
	<path class="st1" d="M327.4,315c1.6-0.1,3,1.2,3.1,2.9l0.4,10.4c0.1,1.6-1.2,3-2.9,3.1c-1.6,0.1-3-1.2-3.1-2.9l-0.4-10.4
		C324.5,316.4,325.8,315,327.4,315z"/>
	<circle class="st1" cx="331.5" cy="346.5" r="3"/>
	<circle class="st3" cx="313.8" cy="329.1" r="3"/>
</g>
<g>
	<path class="st1" d="M45,130.9c-0.3-1.6,0.7-3.2,2.3-3.5l10.2-2c1.6-0.3,3.2,0.7,3.5,2.3c0.3,1.6-0.7,3.2-2.3,3.5l-10.2,2
		C46.9,133.6,45.3,132.5,45,130.9z"/>
	<circle class="st1" cx="75.4" cy="121.9" r="3"/>
	<circle class="st3" cx="61.1" cy="142.1" r="3"/>
</g>
<path class="st5" d="M145.5,126.6c2,1.3,4.4,1.8,6.7,1.3c2.3-0.5,4.3-1.8,5.7-3.8c2.7-4.1,1.6-9.7-2.5-12.4
	c-4.1-2.7-9.7-1.6-12.4,2.5C140.3,118.4,141.4,123.9,145.5,126.6z M148,117.6c0.9-1.3,2.7-1.7,4.1-0.8c1.3,0.9,1.7,2.8,0.8,4.1
	c-0.9,1.4-2.7,1.8-4.1,0.8C147.5,120.8,147,119,148,117.6z"/>
<path class="st5" d="M285.7,270c2,1.3,4.4,1.8,6.7,1.3c2.3-0.5,4.3-1.8,5.7-3.8c2.7-4.1,1.6-9.7-2.5-12.4c-4.1-2.7-9.7-1.6-12.4,2.5
	C280.5,261.7,281.6,267.3,285.7,270z M288.2,260.9c0.9-1.3,2.7-1.7,4.1-0.8c1.3,0.9,1.7,2.8,0.8,4.1c-0.9,1.4-2.7,1.8-4.1,0.8
	C287.7,264.2,287.2,262.3,288.2,260.9z"/>
<path class="st5" d="M329.5,298.1c2,1.3,4.4,1.8,6.7,1.3c2.3-0.5,4.3-1.8,5.7-3.8c2.7-4.1,1.6-9.7-2.5-12.4
	c-4.1-2.7-9.7-1.6-12.4,2.5C324.3,289.8,325.4,295.4,329.5,298.1z M332,289c0.9-1.3,2.7-1.7,4.1-0.8c1.3,0.9,1.7,2.8,0.8,4.1
	c-0.9,1.4-2.7,1.8-4.1,0.8C331.5,292.3,331.1,290.5,332,289z"/>
<path class="st5" d="M368.9,96.9c2,1.3,4.4,1.8,6.7,1.3s4.3-1.8,5.7-3.8c2.7-4.1,1.6-9.7-2.5-12.4c-4.1-2.7-9.7-1.6-12.4,2.5
	C363.7,88.6,364.8,94.2,368.9,96.9z M371.4,87.8c0.9-1.3,2.7-1.7,4.1-0.8c1.3,0.9,1.7,2.8,0.8,4.1c-0.9,1.4-2.7,1.8-4.1,0.8
	C370.8,91,370.4,89.2,371.4,87.8z"/>
<path class="st5" d="M23.9,267.5c2,1.3,4.4,1.8,6.7,1.3c2.3-0.5,4.3-1.8,5.7-3.8c2.7-4.1,1.6-9.7-2.5-12.4
	c-4.1-2.7-9.7-1.6-12.4,2.5C18.6,259.3,19.8,264.8,23.9,267.5z M26.3,258.4c0.9-1.3,2.7-1.7,4.1-0.8c1.3,0.9,1.7,2.8,0.8,4.1
	c-0.9,1.4-2.7,1.8-4.1,0.8C25.8,261.7,25.4,259.9,26.3,258.4z"/>
<g>
	<defs>
		<rect id="SVGID_1_" x="10" y="18.2" width="379.2" height="343.4"/>
	</defs>
	<clipPath id="SVGID_2_">
		<use xlink:href="#SVGID_1_"  style="overflow:visible;"/>
	</clipPath>
	<g class="st6">
		<g>
			<g>
				<polygon class="st1" points="62.1,256.1 26.9,202.4 37,195.2 82.6,241.4 				"/>
				<circle class="st1" cx="72.4" cy="248.8" r="12.6"/>
			</g>
			<g>
				<circle class="st1" cx="31.4" cy="198.5" r="6.2"/>
				<path class="st1" d="M73.7,158.9L73.7,158.9c-2.3-2.5-6.3-2.6-8.8-0.3L27.1,194l8.5,9.1l37.8-35.4
					C76,165.3,76.1,161.4,73.7,158.9z"/>
				<path class="st2" d="M73.7,158.9L73.7,158.9c-2.3-2.5-6.3-2.6-8.8-0.3l-4.7,4.4l8.5,9.1l4.7-4.4C76,165.3,76.1,161.4,73.7,158.9
					z"/>
			</g>
		</g>
		<g>
			<path d="M84.5,202.8L84.5,202.8c2.8,0,5.1-2.3,5.1-5.1v-25.4h-5.1c-2.8,0-5.1,2.3-5.1,5.1v20.3C79.4,200.5,81.7,202.8,84.5,202.8
				z"/>
			<path class="st1" d="M67.4,371.7h65.2c4.7,0,8.4-3.8,8.4-8.4l-7-122.7c0-9.3-7.6-16.9-16.9-16.9H82.9c-9.3,0-16.9,7.6-16.9,16.9
				l-7,122.7C59,367.9,62.8,371.7,67.4,371.7z"/>
			<g>
				<g>
					<circle class="st1" cx="121.9" cy="241" r="16.3"/>
				</g>
			</g>
			<g>
				<path d="M102.8,182h15.7c2.4,0,4.3,1.9,4.3,4.3l0,0c0,2.4-1.9,4.3-4.3,4.3h-15.7c-2.4,0-4.3-1.9-4.3-4.3l0,0
					C98.5,183.9,100.4,182,102.8,182z"/>
				<path d="M81.6,182h36.8c2.4,0,4.3,1.9,4.3,4.3l0,0c0,2.4-1.9,4.3-4.3,4.3H81.6c-2.4,0-4.3-1.9-4.3-4.3l0,0
					C77.4,183.9,79.3,182,81.6,182z"/>
				<path d="M88.7,172.3h22.7c2.4,0,4.3,1.9,4.3,4.3v0c0,2.4-1.9,4.3-4.3,4.3H88.7c-2.4,0-4.3-1.9-4.3-4.3v0
					C84.4,174.3,86.3,172.3,88.7,172.3z"/>
				<path class="st2" d="M91,214.9h19.2c4,0,7.2-3.2,7.2-7.2v-19.2c0-4-3.2-7.2-7.2-7.2H91c-4,0-7.2,3.2-7.2,7.2v19.2
					C83.8,211.7,87,214.9,91,214.9z"/>
				<path class="st2" d="M99.2,233.7h2.8c4,0,7.2-3.2,7.2-7.2v-23.9c0-4-3.2-7.2-7.2-7.2h-2.8c-4,0-7.2,3.2-7.2,7.2v23.9
					C92,230.4,95.3,233.7,99.2,233.7z"/>
				<path d="M85.5,176.6h30.7c2.7,0,4.8,2.2,4.8,4.8v0c0,2.7-2.2,4.8-4.8,4.8H85.5c-2.7,0-4.8-2.2-4.8-4.8v0
					C80.7,178.8,82.8,176.6,85.5,176.6z"/>
			</g>
			<path d="M86.1,193.8L86.1,193.8c1.5,0,2.7-1.2,2.7-2.7v-11.3c0-1.5-1.2-2.7-2.7-2.7h0c-1.5,0-2.7,1.2-2.7,2.7v11.3
				C83.4,192.6,84.6,193.8,86.1,193.8z"/>
			<path d="M118,193.8L118,193.8c1.5,0,2.7-1.2,2.7-2.7v-11.3c0-1.5-1.2-2.7-2.7-2.7l0,0c-1.5,0-2.7,1.2-2.7,2.7v11.3
				C115.4,192.6,116.6,193.8,118,193.8z"/>
			<path class="st1" d="M100.9,205.4L100.9,205.4c0.9,0,1.7-0.8,1.7-1.7v-6.6c0-0.9-0.8-1.7-1.7-1.7h0c-0.9,0-1.7,0.8-1.7,1.7v6.6
				C99.1,204.6,99.9,205.4,100.9,205.4z"/>
			<circle class="st7" cx="109" cy="196.9" r="1.6"/>
			<circle class="st7" cx="92.8" cy="196.9" r="1.6"/>
		</g>
		<g>
			<g>
				<polygon class="st1" points="139.8,255.5 173.2,200.7 162.9,193.8 118.8,241.6 				"/>
				<circle class="st1" cx="129.3" cy="248.5" r="12.6"/>
			</g>
			<g>
				<circle class="st1" cx="167.6" cy="197.7" r="6.2"/>
				<path class="st1" d="M155.9,140.9L155.9,140.9c3.4-0.7,6.6,1.5,7.3,4.8l10.5,50.7l-12.2,2.5L151,148.2
					C150.4,144.9,152.5,141.6,155.9,140.9z"/>
				<path class="st2" d="M155.9,140.9L155.9,140.9c3.4-0.7,6.6,1.5,7.3,4.8l1.3,6.3l-12.2,2.5l-1.3-6.3
					C150.4,144.9,152.5,141.6,155.9,140.9z"/>
			</g>
		</g>
	</g>
	<g class="st6">
		<g>
			<polygon class="st8" points="282.4,199.9 207,184.4 209.4,169.7 287.4,170.1 			"/>
			<circle class="st8" cx="284.9" cy="185" r="15.1"/>
		</g>
		<g>
			<circle class="st8" cx="207.5" cy="177.2" r="7.4"/>
			<path class="st8" d="M209.7,107.7L209.7,107.7c-4.1-0.1-7.5,3.1-7.7,7.2l-2,62.1l14.9,0.5l2-62.1
				C217.1,111.2,213.8,107.8,209.7,107.7z"/>
			<path class="st2" d="M209.7,107.7L209.7,107.7c-4.1-0.1-7.5,3.1-7.7,7.2l-0.2,7.7l14.9,0.5l0.2-7.7
				C217.1,111.2,213.8,107.8,209.7,107.7z"/>
		</g>
	</g>
	<g class="st6">
		<path d="M262.1,145.2l0.7-0.6c2.2-2.2,2.3-5.8,0.1-8l-21.5-22.3l-4.7,4.5c-2.2,2.2-2.3,5.8-0.1,8l17.5,18.2
			C256.3,147.2,259.9,147.3,262.1,145.2z"/>
		<path class="st8" d="M408.3,345l36.4-94.3c4-3.9,4.1-10.3,0.3-14.3L336.7,136.2c-7.8-8.1-20.6-8.3-28.6-0.5l-29.6,28.6
			c-8.1,7.8-8.3,20.6-0.5,28.6L394,344.7C397.8,348.7,404.2,348.9,408.3,345z"/>
		<g>
			<g>
				<circle class="st8" cx="326.6" cy="146.6" r="19.5"/>
			</g>
		</g>
		<g>
			<path d="M260.9,111.6l13.5-13c2-2,5.3-1.9,7.3,0.1v0c2,2,1.9,5.3-0.1,7.3L268,119c-2,2-5.3,1.9-7.3-0.1v0
				C258.8,116.8,258.9,113.6,260.9,111.6z"/>
			<path d="M242.7,129.2l31.8-30.6c2-2,5.3-1.9,7.3,0.1v0c2,2,1.9,5.3-0.1,7.3l-31.8,30.6c-2,2-5.3,1.9-7.3-0.1v0
				C240.6,134.4,240.6,131.1,242.7,129.2z"/>
			<path d="M240.7,115l19.6-18.9c2-2,5.3-1.9,7.3,0.1l0,0c2,2,1.9,5.3-0.1,7.3l-19.6,18.9c-2,2-5.3,1.9-7.3-0.1v0
				C238.6,120.2,238.7,116.9,240.7,115z"/>
			<path class="st2" d="M278.2,149.8l16.6-16c3.4-3.3,3.6-8.8,0.2-12.3L279,105c-3.3-3.4-8.8-3.6-12.3-0.2l-16.6,16
				c-3.4,3.3-3.6,8.8-0.2,12.3l16,16.6C269.3,153.1,274.7,153.2,278.2,149.8z"/>
			<path class="st2" d="M300.9,159.2l2.4-2.3c3.4-3.3,3.6-8.8,0.2-12.3L283.6,124c-3.3-3.4-8.8-3.6-12.3-0.2l-2.4,2.3
				c-3.4,3.3-3.6,8.8-0.2,12.3l19.9,20.6C292,162.4,297.5,162.5,300.9,159.2z"/>
			<path d="M241.5,121.3L268,95.8c2.3-2.2,6-2.1,8.2,0.2v0c2.2,2.3,2.1,6-0.2,8.2l-26.5,25.5c-2.3,2.2-6,2.1-8.2-0.2l0,0
				C239.1,127.2,239.2,123.5,241.5,121.3z"/>
		</g>
		<path d="M256.4,135.7L256.4,135.7c1.3-1.2,1.3-3.3,0.1-4.5l-9.4-9.8c-1.2-1.3-3.3-1.3-4.5-0.1l0,0c-1.3,1.2-1.3,3.3-0.1,4.5
			l9.4,9.8C253.1,136.9,255.1,136.9,256.4,135.7z"/>
		<path d="M284,109.2L284,109.2c1.3-1.2,1.3-3.3,0.1-4.5l-9.4-9.8c-1.2-1.3-3.3-1.3-4.5-0.1v0c-1.3,1.2-1.3,3.3-0.1,4.5l9.4,9.8
			C280.7,110.3,282.7,110.4,284,109.2z"/>
		<path class="st1" d="M278.8,133.4L278.8,133.4c0.8-0.8,0.8-2.1,0.1-2.9l-5.5-5.7c-0.8-0.8-2.1-0.8-2.9-0.1l0,0
			c-0.8,0.8-0.8,2.1-0.1,2.9l5.5,5.7C276.6,134.2,277.9,134.2,278.8,133.4z"/>
		<circle class="st7" cx="278.8" cy="119.3" r="1.9"/>
		<circle class="st7" cx="264.7" cy="132.8" r="1.9"/>
	</g>
	<g class="st6">
		<g>
			<polygon class="st8" points="354.2,144.3 337.4,69.1 322.7,71.8 324.4,149.7 			"/>
			<circle class="st8" cx="339.3" cy="147" r="15.1"/>
		</g>
		<g>
			<circle class="st8" cx="330" cy="71.2" r="7.4"/>
			<path class="st8" d="M272.6,31.9L272.6,31.9c2.3-3.4,7-4.3,10.3-1.9L334.3,65l-8.4,12.3l-51.3-35.1
				C271.1,39.9,270.3,35.3,272.6,31.9z"/>
			<path class="st2" d="M272.6,31.9L272.6,31.9c2.3-3.4,7-4.3,10.3-1.9l6.4,4.4l-8.4,12.3l-6.4-4.4
				C271.1,39.9,270.3,35.3,272.6,31.9z"/>
		</g>
	</g>
</g>
<text transform="matrix(1 0 0 1 66.2697 313.4062)" class="st2 st9 st10">45</text>
<text transform="matrix(0.7713 -0.6365 0.6365 0.7713 328.5236 239.4882)" class="st2 st9 st11">37</text>
</svg>
