<?xml version="1.0" encoding="utf-8"?>
<!-- Generator: Adobe Illustrator 22.1.0, SVG Export Plug-In . SVG Version: 6.00 Build 0)  -->
<svg version="1.1" id="Layer_1" xmlns="http://www.w3.org/2000/svg" xmlns:xlink="http://www.w3.org/1999/xlink" x="0px" y="0px"
	 viewBox="0 0 400 400" style="enable-background:new 0 0 400 400;" xml:space="preserve">
<style type="text/css">
	.st0{fill:#252B2B;}
	.st1{fill:#E3472C;}
	.st2{fill:#FFD884;}
	.st3{fill:#FFD782;}
	.st4{fill:#2BB3CE;}
	.st5{fill:#FF6465;}
	.st6{fill:#FFFFFF;}
	.st7{fill:#F6F6E7;}
	.st8{fill:#E4E5E6;}
	.st9{fill:#F24044;}
	.st10{fill:#00CDC8;}
	.st11{fill:#110F0F;}
	.st12{fill:#F6EF7A;}
	.st13{font-family:'Nunito-Bold';}
	.st14{font-size:33.1636px;}
	.st15{fill:none;stroke:#FFFFFF;stroke-width:11;stroke-miterlimit:10;}
</style>
<path class="st0" d="M360.1,351.5H37.4c-7.1,0-12.8-5.7-12.8-12.8V65.2c0-7.1,5.7-12.8,12.8-12.8h322.7c7.1,0,12.8,5.7,12.8,12.8
	v273.5C372.9,345.7,367.2,351.5,360.1,351.5z"/>
<g>
	<path class="st1" d="M180.4,278.5l-3.6,46.6h-23.9l-3.6-46.6"/>
	<path class="st2" d="M147.8,272.3H182v6.2h-34.2C147.8,278.5,147.8,272.3,147.8,272.3z"/>
	<path class="st3" d="M173,295.2c-2.2-0.7-4.6-0.3-6.4,1.1l-4.5,3.5c-2.8,2.1-6.7,1.9-9.2-0.6l-2.2-2.2l0.9,11.1l7.9,0.9
		c2.4,0.3,4.8-0.6,6.3-2.4c1.8-2.2,4.9-3,7.6-2.1l4.9,1.7l0.7-9.5L173,295.2z"/>
	<path class="st4" d="M168,272.3l-4.7-20.2h-15.5v6.2h10.9l3.1,14H168z"/>
</g>
<g>
	<path class="st3" d="M56.4,136.4l-6.1,5c1,1.6,0.7,3.8-0.8,5.1l36.5,44.2c1.5-1.3,3.7-1.2,5.2,0.1l6.1-5c-1-1.6-0.7-3.8,0.8-5.1
		l0,0c1.5-1.3,3.7-1.2,5.2,0.1l6.1-5c-1-1.6-0.7-3.8,0.8-5.1l0,0l0,0l-36.5-44.2l0,0l0,0c-1.5,1.3-3.7,1.2-5.2-0.1l-6.1,5
		c1,1.6,0.7,3.8-0.8,5.1l0,0C60,137.8,57.8,137.7,56.4,136.4z"/>
	<g>
		<path class="st5" d="M57.7,152.1c-0.1,0.1-0.1,0.1-0.2,0.2l-2,1.6c-0.5,0.4-1.3,0.4-1.8-0.2c-0.4-0.5-0.4-1.3,0.2-1.8l2-1.6
			c0.5-0.4,1.3-0.4,1.8,0.2C58.1,151,58.1,151.6,57.7,152.1z"/>
		<path class="st5" d="M74,138.7c-0.1,0.1-0.1,0.1-0.2,0.2l-4.1,3.3c-0.5,0.4-1.3,0.4-1.8-0.2c-0.4-0.5-0.4-1.3,0.2-1.8l4.1-3.3
			c0.5-0.4,1.3-0.4,1.8,0.2C74.3,137.6,74.3,138.2,74,138.7z M65.9,145.4c-0.1,0.1-0.1,0.1-0.2,0.2l-4.1,3.3
			c-0.5,0.4-1.3,0.4-1.8-0.2c-0.4-0.5-0.4-1.3,0.2-1.8l4.1-3.3c0.5-0.4,1.3-0.4,1.8,0.2C66.2,144.3,66.2,144.9,65.9,145.4z"/>
		<path class="st5" d="M80,133.7c-0.1,0.1-0.1,0.1-0.2,0.2l-2,1.6c-0.5,0.4-1.3,0.4-1.8-0.2c-0.4-0.5-0.4-1.3,0.2-1.8l2-1.6
			c0.5-0.4,1.3-0.4,1.8,0.2C80.3,132.6,80.3,133.3,80,133.7z"/>
		
			<rect x="71.6" y="142.7" transform="matrix(0.7714 -0.6363 0.6363 0.7714 -84.3044 89.7396)" class="st5" width="22.4" height="39.1"/>
	</g>
	<polygon class="st6" points="77.3,166.7 80.3,161.9 76.7,157.5 82.2,159 85.3,154.1 85.7,159.8 91.2,161.3 85.9,163.4 86.2,169.1 
		82.6,164.7 	"/>
</g>
<g>
	<path class="st2" d="M353.9,276.5c0-1.9-2-3.4-4.6-3.5c-0.2-0.2-0.3-0.5-0.5-0.7c2.1-1.1,2.6-3.3,1-4.8c-1.5-1.5-4.5-1.9-6.6-0.8
		c-0.1,0.1-0.2,0.1-0.3,0.2c-0.2-0.1-0.4-0.3-0.7-0.4c0.3-0.5,0.5-1,0.5-1.5c0-1.9-2.1-3.5-4.7-3.5c-1.5,0-3,0.5-3.9,1.5
		c-0.8-0.2-1.7-0.4-2.5-0.6c-0.2-1.9-2.5-3.3-5.1-3.1c-1.9,0.1-3.5,1-4,2.4c-0.7,0-1.4,0.1-2.1,0.1c-0.8-1.8-3.4-2.9-5.9-2.3
		c-2,0.4-3.4,1.8-3.4,3.3c0,0.3,0.1,0.6,0.2,1l-0.1,0c-1.9-1.3-4.9-1.3-6.7,0.1c-0.9,0.6-1.3,1.5-1.3,2.4c0,0.1,0,0.1,0,0.2
		c-0.5-0.1-1.1-0.2-1.6-0.2c-2.6,0-4.7,1.5-4.7,3.5c0,0.5,0.1,0.9,0.3,1.3c-2.5,0.5-4,2.4-3.3,4.2c0.3,0.9,1.2,1.7,2.3,2.2
		c-0.6,1.7-0.9,3.4-0.9,5.1h56.9c0-1-0.1-2-0.3-3C353.1,278.7,353.9,277.6,353.9,276.5L353.9,276.5z"/>
	<path class="st1" d="M346.9,326.4h-46.2l-6.9-44h60L346.9,326.4z"/>
	<path class="st7" d="M319.1,326.4l-1.6-44h-12.6l4.7,44H319.1z"/>
	<g>
		<path class="st1" d="M338.2,324.6l-0.2,1.7h8.9C344,325.9,341.1,325.4,338.2,324.6L338.2,324.6z"/>
	</g>
	<path class="st7" d="M342.8,282.3h-12.6l-1.4,39.2c3,1.2,6.2,2.2,9.5,3.1L342.8,282.3z"/>
	<path class="st7" d="M328.8,321.6l-0.2,4.8h9.5l0.2-1.7C335,323.8,331.8,322.8,328.8,321.6z"/>
</g>
<g>
	<g>
		<path class="st8" d="M226.9,125.1l-16.7,20.6l28.3,22.9l0,0c2.7-3.3,7.5-3.8,10.8-1.1c3.3,2.7,3.8,7.5,1.1,10.8l0,0l28.3,22.9
			l16.7-20.6L226.9,125.1z"/>
	</g>
	<g>
		<path class="st9" d="M239.5,161.1l-19.3-15.6c-0.9-0.7-1.1-2.1-0.3-3l6.9-8.5c0.7-0.9,2.1-1.1,3-0.3l19.3,15.6
			c0.9,0.7,1.1,2.1,0.3,3l-6.9,8.5C241.7,161.7,240.4,161.8,239.5,161.1z"/>
	</g>
	<g>
		<path class="st10" d="M276.6,191.2l-19.3-15.6c-0.9-0.7-1.1-2.1-0.3-3l6.9-8.5c0.7-0.9,2.1-1.1,3-0.3l19.3,15.6
			c0.9,0.7,1.1,2.1,0.3,3l-6.9,8.5C278.9,191.8,277.5,191.9,276.6,191.2z"/>
	</g>
</g>
<path class="st11" d="M372.3,215.7H27.7c-2,0-3.7-1.7-3.7-3.7v0c0-2,1.7-3.7,3.7-3.7h344.5c2,0,3.7,1.7,3.7,3.7v0
	C376,214.1,374.3,215.7,372.3,215.7z"/>
<path class="st11" d="M196.3,349.3V52.7c0-2,1.7-3.7,3.7-3.7l0,0c2,0,3.7,1.7,3.7,3.7v296.6c0,2-1.7,3.7-3.7,3.7l0,0
	C198,353,196.3,351.3,196.3,349.3z"/>
<g>
	<path class="st6" d="M81,83.1c0.5,0.6,0.7,1.4,0.7,2.2c0,1.2-0.4,2.2-1.3,2.9c-0.9,0.7-2.1,1-3.6,1h-5.3c-0.4,0-0.7-0.1-0.9-0.3
		c-0.2-0.2-0.3-0.5-0.3-0.9V76.1c0-0.4,0.1-0.7,0.3-0.9c0.2-0.2,0.5-0.3,0.9-0.3h5.1c1.5,0,2.7,0.3,3.5,1c0.9,0.7,1.3,1.6,1.3,2.8
		c0,0.8-0.2,1.4-0.6,2c-0.4,0.6-1,1-1.7,1.2C79.9,82.1,80.5,82.5,81,83.1z M72.7,81h3.3c1.8,0,2.7-0.7,2.7-2c0-0.7-0.2-1.2-0.7-1.5
		c-0.4-0.3-1.1-0.5-2-0.5h-3.3V81z M78.5,86.8c0.4-0.3,0.7-0.9,0.7-1.6c0-0.7-0.2-1.3-0.7-1.6C78,83.2,77.4,83,76.4,83h-3.7v4.3h3.7
		C77.4,87.3,78.1,87.1,78.5,86.8z"/>
	<path class="st6" d="M85.8,88.8c-0.8-0.4-1.4-1-1.8-1.8c-0.4-0.8-0.6-1.7-0.6-2.8c0-1,0.2-2,0.6-2.7c0.4-0.8,1-1.4,1.8-1.8
		c0.8-0.4,1.7-0.6,2.7-0.6s1.9,0.2,2.7,0.6c0.8,0.4,1.4,1,1.8,1.8c0.4,0.8,0.6,1.7,0.6,2.7c0,1-0.2,2-0.6,2.8
		c-0.4,0.8-1,1.4-1.8,1.8c-0.8,0.4-1.7,0.6-2.7,0.6S86.5,89.3,85.8,88.8z M90.3,86.7c0.4-0.5,0.7-1.3,0.7-2.4c0-1-0.2-1.8-0.7-2.4
		c-0.4-0.6-1.1-0.8-1.9-0.8s-1.4,0.3-1.9,0.8c-0.4,0.6-0.7,1.4-0.7,2.4c0,1.1,0.2,1.9,0.7,2.4c0.4,0.5,1.1,0.8,1.9,0.8
		C89.3,87.5,89.9,87.2,90.3,86.7z"/>
	<path class="st6" d="M96,89.1c-0.2-0.2-0.4-0.5-0.4-0.9V76c0-0.4,0.1-0.7,0.4-0.9c0.2-0.2,0.5-0.3,0.9-0.3c0.4,0,0.7,0.1,0.9,0.3
		c0.2,0.2,0.4,0.5,0.4,0.9v12.2c0,0.4-0.1,0.7-0.4,0.9c-0.2,0.2-0.6,0.3-0.9,0.3C96.5,89.4,96.2,89.3,96,89.1z"/>
	<path class="st6" d="M109.3,86.8c0.1,0.2,0.2,0.4,0.2,0.7c0,0.4-0.3,0.8-0.8,1.1c-0.5,0.3-1,0.5-1.6,0.6c-0.6,0.2-1.1,0.2-1.7,0.2
		c-1.6,0-2.9-0.5-3.8-1.4c-0.9-0.9-1.4-2.2-1.4-3.8c0-1,0.2-1.9,0.6-2.7c0.4-0.8,1-1.4,1.7-1.8c0.7-0.4,1.6-0.7,2.5-0.7
		c0.9,0,1.7,0.2,2.4,0.6c0.7,0.4,1.2,1,1.6,1.7c0.4,0.7,0.6,1.6,0.6,2.6c0,0.6-0.3,0.9-0.8,0.9h-6c0.1,0.9,0.3,1.6,0.8,2.1
		c0.4,0.4,1.1,0.7,2,0.7c0.4,0,0.8-0.1,1.2-0.2c0.3-0.1,0.7-0.3,1.1-0.4c0.4-0.2,0.7-0.3,0.9-0.3C109,86.6,109.2,86.7,109.3,86.8z
		 M103.5,81.5c-0.4,0.4-0.7,1.1-0.7,1.9h4.6c0-0.8-0.2-1.5-0.6-1.9c-0.4-0.4-0.9-0.6-1.6-0.6C104.5,80.9,104,81.1,103.5,81.5z"/>
	<path class="st6" d="M117.8,88.4c0,0.3-0.1,0.6-0.4,0.7c-0.3,0.2-0.6,0.2-1.1,0.2l-0.6,0c-2.3-0.2-3.4-1.4-3.4-3.7v-4.5h-1
		c-0.4,0-0.7-0.1-0.8-0.2c-0.2-0.2-0.3-0.4-0.3-0.7s0.1-0.6,0.3-0.7c0.2-0.2,0.5-0.2,0.8-0.2h1v-1.9c0-0.4,0.1-0.7,0.3-0.9
		c0.2-0.2,0.5-0.3,0.9-0.3c0.4,0,0.7,0.1,0.9,0.3c0.2,0.2,0.3,0.5,0.3,0.9v1.9h1.7c0.4,0,0.7,0.1,0.8,0.2c0.2,0.2,0.3,0.4,0.3,0.7
		s-0.1,0.6-0.3,0.7c-0.2,0.2-0.5,0.2-0.8,0.2h-1.7v4.6c0,1,0.5,1.5,1.4,1.6l0.6,0C117.4,87.6,117.8,87.9,117.8,88.4z"/>
	<path class="st6" d="M120.9,88.8c-0.8-0.4-1.4-1-1.8-1.8c-0.4-0.8-0.6-1.7-0.6-2.8c0-1,0.2-2,0.6-2.7c0.4-0.8,1-1.4,1.8-1.8
		c0.8-0.4,1.7-0.6,2.7-0.6s1.9,0.2,2.7,0.6c0.8,0.4,1.4,1,1.8,1.8c0.4,0.8,0.6,1.7,0.6,2.7c0,1-0.2,2-0.6,2.8
		c-0.4,0.8-1,1.4-1.8,1.8c-0.8,0.4-1.7,0.6-2.7,0.6S121.7,89.3,120.9,88.8z M125.5,86.7c0.4-0.5,0.7-1.3,0.7-2.4
		c0-1-0.2-1.8-0.7-2.4c-0.4-0.6-1.1-0.8-1.9-0.8s-1.4,0.3-1.9,0.8c-0.4,0.6-0.7,1.4-0.7,2.4c0,1.1,0.2,1.9,0.7,2.4
		c0.4,0.5,1.1,0.8,1.9,0.8C124.4,87.5,125.1,87.2,125.5,86.7z"/>
</g>
<g>
	<path class="st6" d="M246.1,87.7c-0.2-0.2-0.3-0.5-0.3-0.9v-12c0-0.4,0.1-0.7,0.4-1c0.2-0.2,0.6-0.4,1-0.4c0.4,0,0.7,0.1,1,0.4
		c0.2,0.2,0.4,0.6,0.4,1v11h5.7c0.8,0,1.2,0.4,1.2,1.1c0,0.7-0.4,1.1-1.2,1.1H247C246.6,88,246.3,87.9,246.1,87.7z"/>
	<path class="st6" d="M265.3,85.6c0.1,0.2,0.2,0.4,0.2,0.7c0,0.4-0.3,0.8-0.8,1.1c-0.5,0.3-1,0.5-1.6,0.6s-1.1,0.2-1.7,0.2
		c-1.6,0-2.9-0.5-3.8-1.4c-0.9-0.9-1.4-2.2-1.4-3.8c0-1,0.2-1.9,0.6-2.7c0.4-0.8,1-1.4,1.7-1.8c0.7-0.4,1.6-0.7,2.5-0.7
		c0.9,0,1.7,0.2,2.3,0.6c0.7,0.4,1.2,1,1.6,1.7c0.4,0.7,0.6,1.6,0.6,2.6c0,0.6-0.3,0.9-0.8,0.9h-6c0.1,0.9,0.3,1.6,0.8,2.1
		c0.4,0.4,1.1,0.7,2,0.7c0.4,0,0.8-0.1,1.2-0.2c0.3-0.1,0.7-0.3,1.1-0.4c0.4-0.2,0.7-0.3,0.9-0.3C265,85.3,265.2,85.4,265.3,85.6z
		 M259.5,80.3c-0.4,0.4-0.7,1.1-0.7,1.9h4.6c0-0.8-0.2-1.5-0.6-1.9c-0.4-0.4-0.9-0.6-1.6-0.6C260.5,79.6,259.9,79.8,259.5,80.3z"/>
	<path class="st6" d="M276.2,78.8c0.6,0.7,0.9,1.7,0.9,3.1v5c0,0.4-0.1,0.7-0.3,0.9s-0.5,0.3-0.9,0.3c-0.4,0-0.7-0.1-0.9-0.3
		c-0.2-0.2-0.3-0.5-0.3-0.9v-4.9c0-0.8-0.1-1.3-0.4-1.7c-0.3-0.4-0.8-0.5-1.4-0.5c-0.7,0-1.3,0.2-1.8,0.7c-0.4,0.5-0.7,1.1-0.7,1.9
		v4.6c0,0.4-0.1,0.7-0.3,0.9c-0.2,0.2-0.5,0.3-0.9,0.3c-0.4,0-0.7-0.1-0.9-0.3s-0.3-0.5-0.3-0.9V79c0-0.4,0.1-0.6,0.3-0.9
		c0.2-0.2,0.5-0.3,0.9-0.3c0.4,0,0.6,0.1,0.9,0.3c0.2,0.2,0.3,0.5,0.3,0.8v0.6c0.3-0.6,0.8-1,1.4-1.3c0.6-0.3,1.2-0.4,1.9-0.4
		C274.7,77.8,275.6,78.1,276.2,78.8z"/>
	<path class="st6" d="M285.8,87.2c0,0.3-0.1,0.6-0.4,0.7c-0.3,0.2-0.6,0.2-1.1,0.2l-0.6,0c-2.3-0.2-3.4-1.4-3.4-3.7V80h-1
		c-0.4,0-0.7-0.1-0.8-0.2c-0.2-0.2-0.3-0.4-0.3-0.7c0-0.3,0.1-0.6,0.3-0.7c0.2-0.2,0.5-0.2,0.8-0.2h1v-1.9c0-0.4,0.1-0.7,0.3-0.9
		c0.2-0.2,0.5-0.3,0.9-0.3c0.4,0,0.7,0.1,0.9,0.3c0.2,0.2,0.3,0.5,0.3,0.9V78h1.7c0.4,0,0.7,0.1,0.8,0.2c0.2,0.2,0.3,0.4,0.3,0.7
		c0,0.3-0.1,0.6-0.3,0.7c-0.2,0.2-0.5,0.2-0.8,0.2h-1.7v4.6c0,1,0.5,1.5,1.4,1.6l0.6,0C285.5,86.3,285.8,86.6,285.8,87.2z"/>
	<path class="st6" d="M295.6,85.6c0.1,0.2,0.2,0.4,0.2,0.7c0,0.4-0.3,0.8-0.8,1.1c-0.5,0.3-1,0.5-1.6,0.6c-0.6,0.2-1.1,0.2-1.7,0.2
		c-1.6,0-2.9-0.5-3.8-1.4c-0.9-0.9-1.4-2.2-1.4-3.8c0-1,0.2-1.9,0.6-2.7c0.4-0.8,1-1.4,1.7-1.8c0.7-0.4,1.6-0.7,2.5-0.7
		c0.9,0,1.7,0.2,2.4,0.6c0.7,0.4,1.2,1,1.6,1.7c0.4,0.7,0.6,1.6,0.6,2.6c0,0.6-0.3,0.9-0.8,0.9h-6c0.1,0.9,0.3,1.6,0.8,2.1
		s1.1,0.7,2,0.7c0.4,0,0.8-0.1,1.2-0.2c0.3-0.1,0.7-0.3,1.1-0.4c0.4-0.2,0.7-0.3,0.9-0.3C295.3,85.3,295.5,85.4,295.6,85.6z
		 M289.9,80.3c-0.4,0.4-0.7,1.1-0.7,1.9h4.6c0-0.8-0.2-1.5-0.6-1.9c-0.4-0.4-0.9-0.6-1.6-0.6C290.8,79.6,290.3,79.8,289.9,80.3z"/>
	<path class="st6" d="M298,87.3c-0.4-0.3-0.7-0.6-0.7-1.1c0-0.3,0.1-0.5,0.2-0.7c0.1-0.2,0.3-0.3,0.6-0.3c0.2,0,0.6,0.1,1,0.3
		c0.4,0.2,0.8,0.4,1.2,0.5c0.4,0.1,0.8,0.2,1.4,0.2c0.6,0,1-0.1,1.3-0.3c0.3-0.2,0.5-0.5,0.5-0.8c0-0.2-0.1-0.4-0.2-0.6
		c-0.1-0.1-0.4-0.3-0.7-0.4c-0.3-0.1-0.8-0.2-1.5-0.4c-1.2-0.2-2.1-0.6-2.6-1c-0.5-0.4-0.8-1.1-0.8-1.9c0-0.6,0.2-1.1,0.5-1.6
		c0.4-0.5,0.8-0.9,1.5-1.1c0.6-0.3,1.3-0.4,2.1-0.4c0.6,0,1.1,0.1,1.7,0.2c0.5,0.1,1,0.4,1.4,0.6c0.4,0.3,0.7,0.6,0.7,1.1
		c0,0.3-0.1,0.5-0.2,0.7c-0.2,0.2-0.3,0.3-0.6,0.3c-0.1,0-0.3,0-0.4-0.1c-0.1-0.1-0.3-0.2-0.5-0.3c-0.4-0.2-0.7-0.4-1-0.5
		c-0.3-0.1-0.6-0.2-1.1-0.2c-0.5,0-0.9,0.1-1.2,0.3c-0.3,0.2-0.4,0.5-0.4,0.8c0,0.3,0.1,0.6,0.4,0.8c0.3,0.2,0.9,0.4,1.7,0.5
		c0.9,0.2,1.6,0.4,2.1,0.7c0.5,0.2,0.9,0.6,1.1,0.9c0.2,0.4,0.3,0.8,0.3,1.4c0,0.9-0.4,1.7-1.2,2.2c-0.8,0.6-1.8,0.8-3.1,0.8
		C300.2,88.2,299,87.9,298,87.3z"/>
</g>
<g>
	<path class="st6" d="M78.1,240.6c0,0.3-0.1,0.6-0.4,0.8c-0.3,0.2-0.5,0.3-0.9,0.3c-0.2,0-0.4-0.1-0.6-0.2c-0.2-0.1-0.4-0.3-0.5-0.5
		L73,237c-0.3-0.4-0.6-0.7-0.9-0.9c-0.3-0.2-0.7-0.3-1.2-0.3h-2v4.6c0,0.4-0.1,0.7-0.3,1c-0.2,0.2-0.5,0.4-0.9,0.4
		c-0.4,0-0.7-0.1-1-0.4c-0.2-0.2-0.4-0.6-0.4-1v-12c0-0.4,0.1-0.7,0.3-0.9c0.2-0.2,0.5-0.3,0.9-0.3h5.1c1.6,0,2.9,0.4,3.7,1.1
		c0.9,0.7,1.3,1.8,1.3,3.2c0,1.1-0.3,2-1,2.7c-0.6,0.7-1.5,1.2-2.7,1.4c0.4,0.1,0.7,0.3,1,0.5c0.3,0.2,0.6,0.6,0.9,1l1.9,2.8
		C78.1,240.2,78.1,240.4,78.1,240.6z M74.6,233.2c0.5-0.4,0.7-0.9,0.7-1.7c0-0.8-0.2-1.4-0.7-1.7c-0.5-0.4-1.2-0.5-2.2-0.5h-3.4v4.6
		h3.4C73.4,233.8,74.1,233.6,74.6,233.2z"/>
	<path class="st6" d="M88.8,239.1c0.1,0.2,0.2,0.4,0.2,0.7c0,0.4-0.3,0.8-0.8,1.1c-0.5,0.3-1,0.5-1.6,0.6c-0.6,0.2-1.1,0.2-1.7,0.2
		c-1.6,0-2.9-0.5-3.8-1.4c-0.9-0.9-1.4-2.2-1.4-3.8c0-1,0.2-1.9,0.6-2.7c0.4-0.8,1-1.4,1.7-1.8c0.7-0.4,1.6-0.7,2.5-0.7
		c0.9,0,1.7,0.2,2.4,0.6c0.7,0.4,1.2,1,1.6,1.7c0.4,0.7,0.6,1.6,0.6,2.6c0,0.6-0.3,0.9-0.8,0.9h-6c0.1,0.9,0.3,1.6,0.8,2.1
		c0.4,0.4,1.1,0.7,2,0.7c0.4,0,0.8-0.1,1.2-0.2c0.3-0.1,0.7-0.3,1.1-0.4c0.4-0.2,0.7-0.3,0.9-0.3C88.5,238.8,88.7,238.9,88.8,239.1z
		 M83.1,233.8c-0.4,0.4-0.7,1.1-0.7,1.9h4.6c0-0.8-0.2-1.5-0.6-1.9c-0.4-0.4-0.9-0.6-1.6-0.6C84,233.1,83.5,233.3,83.1,233.8z"/>
	<path class="st6" d="M94.8,229.6c-0.3,0.3-0.4,0.8-0.4,1.5v0.5h1.7c0.8,0,1.1,0.3,1.1,1s-0.4,1-1.1,1h-1.7v7c0,0.4-0.1,0.7-0.4,0.9
		c-0.2,0.2-0.5,0.3-0.9,0.3c-0.4,0-0.7-0.1-0.9-0.3c-0.2-0.2-0.4-0.5-0.4-0.9v-7h-1c-0.8,0-1.1-0.3-1.1-1s0.4-1,1.1-1h1v-0.1
		c0-1.3,0.3-2.3,1-3c0.7-0.7,1.6-1.1,2.9-1.2l0.5,0c0.5,0,0.9,0,1.2,0.2c0.2,0.2,0.3,0.4,0.3,0.7c0,0.6-0.3,0.9-1,1l-0.5,0
		C95.6,229.1,95.1,229.3,94.8,229.6z"/>
	<path class="st6" d="M104.9,231.6c0.2,0.2,0.3,0.4,0.3,0.8c0,0.4-0.1,0.6-0.3,0.8c-0.2,0.2-0.5,0.3-1,0.3l-0.6,0.1
		c-0.8,0.1-1.4,0.4-1.8,0.8c-0.4,0.5-0.6,1-0.6,1.7v4.3c0,0.4-0.1,0.7-0.4,0.9c-0.2,0.2-0.6,0.3-0.9,0.3c-0.4,0-0.7-0.1-0.9-0.3
		c-0.2-0.2-0.4-0.5-0.4-0.9v-7.9c0-0.4,0.1-0.7,0.4-0.9c0.2-0.2,0.5-0.3,0.9-0.3s0.6,0.1,0.9,0.3c0.2,0.2,0.3,0.5,0.3,0.8v0.8
		c0.3-0.6,0.6-1.1,1.2-1.4c0.5-0.3,1.1-0.5,1.7-0.6l0.3,0C104.4,231.3,104.7,231.4,104.9,231.6z"/>
	<path class="st6" d="M114.5,239.1c0.1,0.2,0.2,0.4,0.2,0.7c0,0.4-0.3,0.8-0.8,1.1c-0.5,0.3-1,0.5-1.6,0.6c-0.6,0.2-1.1,0.2-1.7,0.2
		c-1.6,0-2.9-0.5-3.8-1.4c-0.9-0.9-1.4-2.2-1.4-3.8c0-1,0.2-1.9,0.6-2.7c0.4-0.8,1-1.4,1.7-1.8c0.7-0.4,1.6-0.7,2.5-0.7
		c0.9,0,1.7,0.2,2.4,0.6c0.7,0.4,1.2,1,1.6,1.7c0.4,0.7,0.6,1.6,0.6,2.6c0,0.6-0.3,0.9-0.8,0.9h-6c0.1,0.9,0.3,1.6,0.8,2.1
		c0.4,0.4,1.1,0.7,2,0.7c0.4,0,0.8-0.1,1.2-0.2c0.3-0.1,0.7-0.3,1.1-0.4c0.4-0.2,0.7-0.3,0.9-0.3
		C114.2,238.8,114.4,238.9,114.5,239.1z M108.8,233.8c-0.4,0.4-0.7,1.1-0.7,1.9h4.6c0-0.8-0.2-1.5-0.6-1.9c-0.4-0.4-0.9-0.6-1.6-0.6
		C109.7,233.1,109.2,233.3,108.8,233.8z"/>
	<path class="st6" d="M116.9,240.9c-0.4-0.3-0.7-0.6-0.7-1.1c0-0.3,0.1-0.5,0.2-0.7c0.1-0.2,0.3-0.3,0.6-0.3c0.2,0,0.6,0.1,1,0.3
		c0.4,0.2,0.8,0.4,1.2,0.5c0.4,0.1,0.8,0.2,1.4,0.2c0.6,0,1-0.1,1.3-0.3c0.3-0.2,0.5-0.5,0.5-0.8c0-0.2-0.1-0.4-0.2-0.6
		c-0.1-0.1-0.4-0.3-0.7-0.4c-0.3-0.1-0.8-0.2-1.5-0.4c-1.2-0.2-2.1-0.6-2.6-1c-0.5-0.4-0.8-1.1-0.8-1.9c0-0.6,0.2-1.1,0.5-1.6
		c0.4-0.5,0.8-0.9,1.5-1.1c0.6-0.3,1.3-0.4,2.1-0.4c0.6,0,1.1,0.1,1.7,0.2c0.5,0.1,1,0.4,1.4,0.6c0.4,0.3,0.7,0.6,0.7,1.1
		c0,0.3-0.1,0.5-0.2,0.7c-0.2,0.2-0.3,0.3-0.6,0.3c-0.2,0-0.3,0-0.4-0.1c-0.1-0.1-0.3-0.2-0.5-0.3c-0.4-0.2-0.7-0.4-1-0.5
		c-0.3-0.1-0.6-0.2-1.1-0.2c-0.5,0-0.9,0.1-1.2,0.3c-0.3,0.2-0.4,0.5-0.4,0.8c0,0.3,0.1,0.6,0.4,0.8c0.3,0.2,0.9,0.4,1.7,0.5
		c0.9,0.2,1.6,0.4,2.1,0.7c0.5,0.2,0.9,0.6,1.1,0.9c0.2,0.4,0.3,0.8,0.3,1.4c0,0.9-0.4,1.7-1.2,2.2s-1.8,0.8-3.1,0.8
		C119.1,241.7,117.9,241.4,116.9,240.9z"/>
	<path class="st6" d="M128.6,241.1c-0.8-0.4-1.3-1-1.7-1.8c-0.4-0.8-0.6-1.7-0.6-2.7s0.2-2,0.6-2.7c0.4-0.8,1-1.4,1.8-1.8
		c0.8-0.4,1.7-0.7,2.7-0.7c0.5,0,1.1,0.1,1.6,0.2c0.5,0.1,1,0.4,1.4,0.6c0.4,0.3,0.7,0.6,0.7,1.1c0,0.3-0.1,0.5-0.2,0.7
		c-0.1,0.2-0.3,0.3-0.6,0.3c-0.2,0-0.3,0-0.5-0.1c-0.2-0.1-0.3-0.1-0.5-0.2c-0.3-0.2-0.6-0.3-0.9-0.4c-0.3-0.1-0.6-0.2-0.9-0.2
		c-0.8,0-1.5,0.3-2,0.8c-0.5,0.6-0.7,1.3-0.7,2.4c0,1,0.2,1.8,0.7,2.4c0.5,0.6,1.1,0.8,2,0.8c0.3,0,0.6-0.1,0.9-0.2
		c0.3-0.1,0.6-0.2,0.9-0.4c0.2-0.1,0.4-0.2,0.5-0.3c0.1-0.1,0.3-0.1,0.4-0.1c0.2,0,0.4,0.1,0.6,0.3s0.2,0.4,0.2,0.7
		c0,0.2-0.1,0.4-0.2,0.6c-0.1,0.2-0.3,0.3-0.5,0.5c-0.4,0.3-0.9,0.5-1.5,0.6c-0.6,0.2-1.1,0.2-1.7,0.2
		C130.3,241.7,129.4,241.5,128.6,241.1z"/>
	<path class="st6" d="M138.7,241.1c-0.8-0.4-1.4-1-1.8-1.8c-0.4-0.8-0.6-1.7-0.6-2.8c0-1,0.2-2,0.6-2.7c0.4-0.8,1-1.4,1.8-1.8
		c0.8-0.4,1.7-0.6,2.7-0.6c1,0,1.9,0.2,2.7,0.6c0.8,0.4,1.4,1,1.8,1.8c0.4,0.8,0.6,1.7,0.6,2.7c0,1-0.2,2-0.6,2.8
		c-0.4,0.8-1,1.4-1.8,1.8c-0.8,0.4-1.7,0.6-2.7,0.6C140.3,241.7,139.4,241.5,138.7,241.1z M143.2,238.9c0.4-0.5,0.7-1.3,0.7-2.4
		c0-1-0.2-1.8-0.7-2.4c-0.4-0.6-1.1-0.8-1.9-0.8c-0.8,0-1.4,0.3-1.9,0.8c-0.4,0.6-0.7,1.4-0.7,2.4c0,1.1,0.2,1.9,0.7,2.4
		c0.4,0.5,1.1,0.8,1.9,0.8C142.2,239.7,142.8,239.5,143.2,238.9z"/>
</g>
<g>
	<path class="st6" d="M238,240.8c-0.2-0.2-0.4-0.6-0.4-1v-12c0-0.4,0.1-0.7,0.3-0.9c0.2-0.2,0.5-0.3,0.9-0.3h5
		c1.5,0,2.7,0.4,3.6,1.2c0.9,0.8,1.3,1.8,1.3,3.2c0,1.4-0.4,2.5-1.3,3.2c-0.9,0.8-2.1,1.2-3.6,1.2h-3.7v4.4c0,0.4-0.1,0.7-0.4,1
		c-0.2,0.2-0.6,0.4-1,0.4C238.6,241.2,238.3,241.1,238,240.8z M243.6,233.4c1.8,0,2.7-0.8,2.7-2.4c0-1.6-0.9-2.4-2.7-2.4h-3.3v4.7
		H243.6z"/>
	<path class="st6" d="M258.1,231.8c0.7,0.7,1,1.7,1,3.1v5c0,0.4-0.1,0.7-0.3,0.9c-0.2,0.2-0.5,0.3-0.9,0.3c-0.4,0-0.6-0.1-0.9-0.3
		c-0.2-0.2-0.3-0.5-0.3-0.9v-0.4c-0.2,0.5-0.6,0.9-1.1,1.2c-0.5,0.3-1.1,0.4-1.7,0.4c-0.7,0-1.3-0.1-1.8-0.4c-0.5-0.3-1-0.6-1.3-1.1
		c-0.3-0.5-0.5-1-0.5-1.6c0-0.7,0.2-1.3,0.6-1.7c0.4-0.4,1-0.7,1.8-0.9c0.8-0.2,2-0.3,3.5-0.3h0.5v-0.5c0-0.7-0.1-1.2-0.4-1.5
		c-0.3-0.3-0.7-0.5-1.4-0.5c-0.4,0-0.8,0.1-1.2,0.2c-0.4,0.1-0.9,0.3-1.5,0.5c-0.4,0.2-0.6,0.3-0.8,0.3c-0.2,0-0.4-0.1-0.6-0.3
		c-0.2-0.2-0.2-0.4-0.2-0.7c0-0.2,0.1-0.4,0.2-0.6c0.1-0.2,0.3-0.3,0.6-0.5c0.5-0.3,1-0.5,1.7-0.6c0.7-0.2,1.3-0.2,2-0.2
		C256.4,230.8,257.4,231.2,258.1,231.8z M256,238.7c0.4-0.5,0.6-1,0.6-1.8v-0.4h-0.4c-0.9,0-1.6,0-2.1,0.1c-0.5,0.1-0.9,0.2-1.1,0.4
		c-0.2,0.2-0.3,0.5-0.3,0.8c0,0.4,0.2,0.8,0.5,1.1c0.3,0.3,0.7,0.4,1.1,0.4C255,239.4,255.6,239.1,256,238.7z"/>
	<path class="st6" d="M262.1,240.9c-0.2-0.2-0.4-0.5-0.4-0.9v-12.2c0-0.4,0.1-0.7,0.4-0.9c0.2-0.2,0.5-0.3,0.9-0.3
		c0.4,0,0.7,0.1,0.9,0.3c0.2,0.2,0.4,0.5,0.4,0.9v12.2c0,0.4-0.1,0.7-0.4,0.9c-0.2,0.2-0.6,0.3-0.9,0.3
		C262.6,241.2,262.3,241.1,262.1,240.9z"/>
	<path class="st6" d="M268.8,240.6c-0.8-0.4-1.4-1-1.8-1.8c-0.4-0.8-0.6-1.7-0.6-2.8c0-1,0.2-2,0.6-2.7c0.4-0.8,1-1.4,1.8-1.8
		c0.8-0.4,1.7-0.6,2.7-0.6c1,0,1.9,0.2,2.7,0.6c0.8,0.4,1.4,1,1.8,1.8c0.4,0.8,0.6,1.7,0.6,2.7c0,1-0.2,2-0.6,2.8
		c-0.4,0.8-1,1.4-1.8,1.8c-0.8,0.4-1.7,0.6-2.7,0.6C270.4,241.2,269.5,241,268.8,240.6z M273.3,238.4c0.4-0.5,0.7-1.3,0.7-2.4
		c0-1-0.2-1.8-0.7-2.4c-0.4-0.6-1.1-0.8-1.9-0.8c-0.8,0-1.4,0.3-1.9,0.8c-0.4,0.6-0.7,1.4-0.7,2.4c0,1.1,0.2,1.9,0.7,2.4
		c0.4,0.5,1.1,0.8,1.9,0.8C272.3,239.2,272.9,239,273.3,238.4z"/>
	<path class="st6" d="M293,231.8c0.6,0.6,0.9,1.7,0.9,3.1v5c0,0.4-0.1,0.7-0.4,0.9c-0.2,0.2-0.5,0.3-0.9,0.3c-0.4,0-0.7-0.1-0.9-0.3
		c-0.2-0.2-0.4-0.5-0.4-0.9v-5c0-0.7-0.1-1.3-0.4-1.6s-0.7-0.5-1.2-0.5c-0.7,0-1.2,0.2-1.6,0.7c-0.4,0.5-0.6,1.1-0.6,1.9v4.6
		c0,0.4-0.1,0.7-0.4,0.9c-0.2,0.2-0.5,0.3-0.9,0.3c-0.4,0-0.7-0.1-0.9-0.3c-0.2-0.2-0.4-0.5-0.4-0.9v-5c0-0.7-0.1-1.3-0.4-1.6
		s-0.7-0.5-1.2-0.5c-0.7,0-1.2,0.2-1.6,0.7c-0.4,0.5-0.6,1.1-0.6,1.9v4.6c0,0.4-0.1,0.7-0.4,0.9c-0.2,0.2-0.6,0.3-0.9,0.3
		c-0.4,0-0.7-0.1-0.9-0.3c-0.2-0.2-0.4-0.5-0.4-0.9V232c0-0.4,0.1-0.7,0.4-0.9c0.2-0.2,0.6-0.3,0.9-0.3c0.4,0,0.6,0.1,0.9,0.3
		c0.2,0.2,0.3,0.5,0.3,0.8v0.5c0.3-0.5,0.7-1,1.3-1.2c0.5-0.3,1.1-0.4,1.8-0.4c1.5,0,2.5,0.6,3,1.9c0.3-0.6,0.7-1,1.3-1.4
		c0.6-0.3,1.2-0.5,2-0.5C291.6,230.8,292.4,231.1,293,231.8z"/>
	<path class="st6" d="M296.6,228.7c-0.3-0.3-0.4-0.6-0.4-1c0-0.4,0.1-0.7,0.4-1c0.3-0.2,0.6-0.4,1.1-0.4c0.4,0,0.8,0.1,1.1,0.4
		c0.3,0.2,0.4,0.6,0.4,1c0,0.4-0.1,0.7-0.4,1c-0.3,0.3-0.6,0.4-1.1,0.4C297.3,229,296.9,228.9,296.6,228.7z M296.8,240.9
		c-0.2-0.2-0.4-0.5-0.4-0.9v-7.9c0-0.4,0.1-0.7,0.4-0.9c0.2-0.2,0.5-0.3,0.9-0.3c0.4,0,0.7,0.1,0.9,0.3c0.2,0.2,0.4,0.5,0.4,0.9v7.9
		c0,0.4-0.1,0.7-0.4,0.9c-0.2,0.2-0.6,0.3-0.9,0.3C297.4,241.2,297.1,241.1,296.8,240.9z"/>
	<path class="st6" d="M307.9,240.2c0,0.3-0.1,0.6-0.4,0.7c-0.3,0.2-0.6,0.2-1.1,0.2l-0.6,0c-2.3-0.2-3.4-1.4-3.4-3.7V233h-1
		c-0.4,0-0.7-0.1-0.8-0.2c-0.2-0.2-0.3-0.4-0.3-0.7c0-0.3,0.1-0.6,0.3-0.7c0.2-0.2,0.5-0.2,0.8-0.2h1v-1.9c0-0.4,0.1-0.7,0.3-0.9
		c0.2-0.2,0.5-0.3,0.9-0.3c0.4,0,0.7,0.1,0.9,0.3c0.2,0.2,0.3,0.5,0.3,0.9v1.9h1.7c0.4,0,0.7,0.1,0.8,0.2c0.2,0.2,0.3,0.4,0.3,0.7
		c0,0.3-0.1,0.6-0.3,0.7c-0.2,0.2-0.5,0.2-0.8,0.2h-1.7v4.6c0,1,0.5,1.5,1.4,1.6l0.6,0C307.5,239.3,307.9,239.6,307.9,240.2z"/>
	<path class="st6" d="M316.6,231.8c0.7,0.7,1,1.7,1,3.1v5c0,0.4-0.1,0.7-0.3,0.9c-0.2,0.2-0.5,0.3-0.9,0.3c-0.4,0-0.6-0.1-0.9-0.3
		c-0.2-0.2-0.3-0.5-0.3-0.9v-0.4c-0.2,0.5-0.6,0.9-1.1,1.2c-0.5,0.3-1.1,0.4-1.7,0.4c-0.7,0-1.3-0.1-1.8-0.4c-0.5-0.3-1-0.6-1.3-1.1
		c-0.3-0.5-0.5-1-0.5-1.6c0-0.7,0.2-1.3,0.6-1.7c0.4-0.4,1-0.7,1.8-0.9c0.8-0.2,2-0.3,3.5-0.3h0.5v-0.5c0-0.7-0.1-1.2-0.4-1.5
		c-0.3-0.3-0.7-0.5-1.4-0.5c-0.4,0-0.8,0.1-1.2,0.2c-0.4,0.1-0.9,0.3-1.5,0.5c-0.4,0.2-0.6,0.3-0.8,0.3c-0.2,0-0.4-0.1-0.6-0.3
		c-0.2-0.2-0.2-0.4-0.2-0.7c0-0.2,0.1-0.4,0.2-0.6c0.1-0.2,0.3-0.3,0.6-0.5c0.5-0.3,1-0.5,1.7-0.6c0.7-0.2,1.3-0.2,2-0.2
		C314.9,230.8,316,231.2,316.6,231.8z M314.6,238.7c0.4-0.5,0.6-1,0.6-1.8v-0.4h-0.4c-0.9,0-1.6,0-2.1,0.1c-0.5,0.1-0.9,0.2-1.1,0.4
		c-0.2,0.2-0.3,0.5-0.3,0.8c0,0.4,0.2,0.8,0.5,1.1c0.3,0.3,0.7,0.4,1.1,0.4C313.6,239.4,314.1,239.1,314.6,238.7z"/>
	<path class="st6" d="M320.3,240.3c-0.4-0.3-0.7-0.6-0.7-1.1c0-0.3,0.1-0.5,0.2-0.7s0.3-0.3,0.6-0.3c0.2,0,0.6,0.1,1,0.3
		c0.4,0.2,0.8,0.4,1.2,0.5c0.4,0.1,0.8,0.2,1.4,0.2c0.6,0,1-0.1,1.3-0.3c0.3-0.2,0.5-0.5,0.5-0.8c0-0.2-0.1-0.4-0.2-0.6
		c-0.1-0.1-0.4-0.3-0.7-0.4c-0.3-0.1-0.8-0.2-1.5-0.4c-1.2-0.2-2.1-0.6-2.6-1c-0.5-0.4-0.8-1.1-0.8-1.9c0-0.6,0.2-1.1,0.5-1.6
		c0.4-0.5,0.8-0.9,1.5-1.1c0.6-0.3,1.3-0.4,2.1-0.4c0.6,0,1.1,0.1,1.7,0.2c0.5,0.1,1,0.4,1.4,0.6c0.4,0.3,0.7,0.6,0.7,1.1
		c0,0.3-0.1,0.5-0.2,0.7c-0.2,0.2-0.3,0.3-0.6,0.3c-0.1,0-0.3,0-0.4-0.1c-0.1-0.1-0.3-0.2-0.5-0.3c-0.4-0.2-0.7-0.4-1-0.5
		c-0.3-0.1-0.6-0.2-1.1-0.2c-0.5,0-0.9,0.1-1.2,0.3c-0.3,0.2-0.4,0.5-0.4,0.8c0,0.3,0.1,0.6,0.4,0.8c0.3,0.2,0.9,0.4,1.7,0.5
		c0.9,0.2,1.6,0.4,2.1,0.7c0.5,0.2,0.9,0.6,1.1,0.9c0.2,0.4,0.3,0.8,0.3,1.4c0,0.9-0.4,1.7-1.2,2.2c-0.8,0.6-1.8,0.8-3.1,0.8
		C322.4,241.2,321.2,240.9,320.3,240.3z"/>
</g>
<text transform="matrix(1 0 0 1 108.0317 136.1733)" class="st12 st13 st14">$15</text>
<text transform="matrix(1 0 0 1 286.2588 130.8633)" class="st12 st13 st14">$9</text>
<text transform="matrix(1 0 0 1 224.8447 309.123)" class="st12 st13 st14">$21</text>
<text transform="matrix(1 0 0 1 55.7422 315.4238)" class="st12 st13 st14">$11</text>
<path class="st15" d="M360.1,351.5H37.4c-7.1,0-12.8-5.7-12.8-12.8V65.2c0-7.1,5.7-12.8,12.8-12.8h322.7c7.1,0,12.8,5.7,12.8,12.8
	v273.5C372.9,345.7,367.2,351.5,360.1,351.5z"/>
<g>
	<circle class="st3" cx="323.5" cy="39.8" r="5.8"/>
	<circle class="st3" cx="280" cy="39.8" r="5.8"/>
	<circle class="st3" cx="236.4" cy="39.8" r="5.8"/>
	<circle class="st3" cx="192.9" cy="39.8" r="5.8"/>
	<circle class="st3" cx="149.4" cy="39.8" r="5.8"/>
	<circle class="st3" cx="105.8" cy="39.8" r="5.8"/>
	<circle class="st3" cx="62.3" cy="39.8" r="5.8"/>
	<circle class="st3" cx="345.3" cy="39.8" r="5.8"/>
	<circle class="st3" cx="301.7" cy="39.8" r="5.8"/>
	<circle class="st3" cx="258.2" cy="39.8" r="5.8"/>
	<circle class="st3" cx="214.7" cy="39.8" r="5.8"/>
	<circle class="st3" cx="171.1" cy="39.8" r="5.8"/>
	<circle class="st3" cx="127.6" cy="39.8" r="5.8"/>
	<circle class="st3" cx="84" cy="39.8" r="5.8"/>
	<circle class="st3" cx="40.5" cy="39.8" r="5.8"/>
	<circle class="st3" cx="367" cy="39.8" r="5.8"/>
</g>
<g>
	<circle class="st3" cx="323.5" cy="363.3" r="5.8"/>
	<circle class="st3" cx="280" cy="363.3" r="5.8"/>
	<circle class="st3" cx="236.4" cy="363.3" r="5.8"/>
	<circle class="st3" cx="192.9" cy="363.3" r="5.8"/>
	<circle class="st3" cx="149.4" cy="363.3" r="5.8"/>
	<circle class="st3" cx="105.8" cy="363.3" r="5.8"/>
	<circle class="st3" cx="62.3" cy="363.3" r="5.8"/>
	<circle class="st3" cx="345.3" cy="363.3" r="5.8"/>
	<circle class="st3" cx="301.7" cy="363.3" r="5.8"/>
	<circle class="st3" cx="258.2" cy="363.3" r="5.8"/>
	<circle class="st3" cx="214.7" cy="363.3" r="5.8"/>
	<circle class="st3" cx="171.1" cy="363.3" r="5.8"/>
	<circle class="st3" cx="127.6" cy="363.3" r="5.8"/>
	<circle class="st3" cx="84" cy="363.3" r="5.8"/>
	<circle class="st3" cx="40.5" cy="363.3" r="5.8"/>
	<circle class="st3" cx="367" cy="363.3" r="5.8"/>
</g>
<g>
	<circle class="st3" cx="385.8" cy="344.5" r="5.8"/>
	<circle class="st3" cx="385.8" cy="301" r="5.8"/>
	<circle class="st3" cx="385.8" cy="257.4" r="5.8"/>
	<circle class="st3" cx="385.8" cy="213.9" r="5.8"/>
	<circle class="st3" cx="385.8" cy="170.3" r="5.8"/>
	<circle class="st3" cx="385.8" cy="126.8" r="5.8"/>
	<circle class="st3" cx="385.8" cy="83.3" r="5.8"/>
	<circle class="st3" cx="385.8" cy="322.7" r="5.8"/>
	<circle class="st3" cx="385.8" cy="279.2" r="5.8"/>
	<circle class="st3" cx="385.8" cy="235.7" r="5.8"/>
	<circle class="st3" cx="385.8" cy="192.1" r="5.8"/>
	<circle class="st3" cx="385.8" cy="148.6" r="5.8"/>
	<circle class="st3" cx="385.8" cy="105" r="5.8"/>
	<circle class="st3" cx="385.8" cy="61.5" r="5.8"/>
</g>
<g>
	<circle class="st3" cx="11.8" cy="344.5" r="5.8"/>
	<circle class="st3" cx="11.8" cy="301" r="5.8"/>
	<circle class="st3" cx="11.8" cy="257.4" r="5.8"/>
	<circle class="st3" cx="11.8" cy="213.9" r="5.8"/>
	<circle class="st3" cx="11.8" cy="170.3" r="5.8"/>
	<circle class="st3" cx="11.8" cy="126.8" r="5.8"/>
	<circle class="st3" cx="11.8" cy="83.3" r="5.8"/>
	<circle class="st3" cx="11.8" cy="322.7" r="5.8"/>
	<circle class="st3" cx="11.8" cy="279.2" r="5.8"/>
	<circle class="st3" cx="11.8" cy="235.7" r="5.8"/>
	<circle class="st3" cx="11.8" cy="192.1" r="5.8"/>
	<circle class="st3" cx="11.8" cy="148.6" r="5.8"/>
	<circle class="st3" cx="11.8" cy="105" r="5.8"/>
	<circle class="st3" cx="11.8" cy="61.5" r="5.8"/>
</g>
</svg>
