<?xml version="1.0" encoding="utf-8"?>
<!-- Generator: Adobe Illustrator 22.1.0, SVG Export Plug-In . SVG Version: 6.00 Build 0)  -->
<svg version="1.1" id="Layer_1" xmlns="http://www.w3.org/2000/svg" xmlns:xlink="http://www.w3.org/1999/xlink" x="0px" y="0px"
	 viewBox="0 0 184.7 40" style="enable-background:new 0 0 184.7 40;" xml:space="preserve">
<style type="text/css">
	.st0{fill:#637BA1;}
	.st1{fill:#FFFFFF;}
	.st2{fill:#FFD782;}
	.st3{fill:#FF6465;}
	.st4{fill:#E3472C;}
	.st5{fill:#FFD884;}
	.st6{fill:#2BB3CE;}
	.st7{fill:#F6F6E7;}
	.st8{fill:#E4E5E6;}
	.st9{fill:#F24044;}
	.st10{fill:#00CDC8;}
</style>
<g>
	<path class="st0" d="M184.7,0H0v40h184.7V0L184.7,0z"/>
</g>
<g>
	<g>
		<path class="st1" d="M35.9,35.1c-0.1,0-0.2,0-0.2,0l-3.2-0.7c-0.5-0.1-0.8-0.6-0.8-1.1c0-0.3-0.2-0.6-0.5-0.7c0,0-0.1,0-0.1,0
			c-0.3,0-0.5,0.2-0.6,0.4c-0.2,0.4-0.5,0.6-0.9,0.6c-0.1,0-0.2,0-0.2,0l-3.2-0.7c-0.5-0.1-0.8-0.6-0.8-1.1c0-0.3-0.2-0.6-0.5-0.7
			c-0.3-0.1-0.5-0.2-0.6-0.4s-0.2-0.5-0.1-0.8l4.4-18.5c0,0,0-0.1-0.1-0.1c-0.2-0.3-0.3-0.8-0.2-1.2c0.1-0.4,0.4-0.8,0.8-1l0.5-2.2
			c0.1-0.5,0.5-0.8,1-0.8c0.1,0,0.2,0,0.2,0c0,0,0.1,0,0.1,0c0.3,0,0.5-0.2,0.6-0.4c0.2-0.4,0.5-0.6,0.9-0.6c0.1,0,0.2,0,0.2,0
			l3.2,0.7C36.4,6,36.7,6.5,36.6,7c0,0.3,0.2,0.6,0.5,0.7c0,0,0.1,0,0.1,0c0.3,0,0.5-0.2,0.6-0.4c0.2-0.4,0.5-0.6,0.9-0.6
			c0.1,0,0.2,0,0.2,0l3.2,0.7C42.7,7.5,43,8,42.9,8.5c0,0.3,0.2,0.6,0.5,0.7c0.5,0.1,0.9,0.7,0.7,1.2l-0.5,2.2
			c0.2,0.3,0.4,0.8,0.2,1.2c-0.1,0.4-0.4,0.8-0.8,1l-4.4,18.5c-0.1,0.3-0.2,0.5-0.4,0.6c-0.2,0.1-0.3,0.2-0.5,0.2
			c-0.1,0-0.2,0-0.2,0c0,0-0.1,0-0.1,0c-0.3,0-0.5,0.2-0.6,0.4C36.7,34.9,36.3,35.1,35.9,35.1z"/>
		<path class="st1" d="M32.5,6.1l3.2,0.7c-0.1,0.8,0.4,1.5,1.2,1.7c0.1,0,0.2,0,0.4,0c0.7,0,1.3-0.4,1.5-1l3.2,0.7
			c-0.1,0.8,0.4,1.5,1.2,1.7l-0.7,2.8h0c0.3,0.1,0.5,0.3,0.4,0.6c-0.1,0.2-0.3,0.4-0.5,0.4c0,0-0.1,0-0.1,0l-4.5,19.2
			c-0.1,0-0.2,0-0.4,0c-0.7,0-1.3,0.4-1.5,1l-3.2-0.7c0.1-0.8-0.4-1.5-1.2-1.7c-0.1,0-0.2,0-0.4,0c-0.7,0-1.3,0.4-1.5,1l-3.2-0.7
			c0.1-0.8-0.4-1.5-1.2-1.7L29.7,11h0c-0.3-0.1-0.5-0.3-0.4-0.6c0.1-0.2,0.3-0.4,0.5-0.4c0,0,0.1,0,0.1,0h0l0.7-2.8
			c0.1,0,0.2,0,0.4,0C31.6,7.2,32.2,6.8,32.5,6.1 M32.5,4.1c-0.7,0-1.4,0.4-1.7,1c0,0-0.1,0-0.1,0c-0.4,0-0.7,0.1-1.1,0.3
			c-0.5,0.3-0.8,0.7-0.9,1.2l-0.4,1.8c-0.4,0.3-0.7,0.8-0.9,1.4c-0.1,0.5-0.1,1.1,0.2,1.6l-4.3,18.2c-0.2,1,0.3,1.9,1.2,2.3
			c0.1,0.9,0.7,1.6,1.5,1.8l3.2,0.7c0.2,0,0.3,0.1,0.5,0.1c0.5,0,0.9-0.2,1.3-0.5c0.2,0.6,0.7,1,1.4,1.1l3.2,0.7
			c0.2,0,0.3,0.1,0.5,0.1c0.7,0,1.4-0.4,1.7-1c0,0,0.1,0,0.1,0c0.9,0,1.7-0.6,1.9-1.5L44,15.4c0.4-0.3,0.7-0.8,0.9-1.4
			c0.1-0.5,0.1-1.1-0.2-1.6l0.4-1.9c0.2-1-0.3-1.9-1.2-2.3c-0.1-0.9-0.7-1.6-1.5-1.8l-3.2-0.7c-0.2,0-0.3-0.1-0.5-0.1
			c-0.5,0-0.9,0.2-1.3,0.5c-0.2-0.6-0.7-1-1.4-1.1l-3.2-0.7C32.8,4.2,32.6,4.1,32.5,4.1L32.5,4.1z"/>
	</g>
	<g>
		<path class="st1" d="M16.7,35.1c-0.1,0-0.2,0-0.2,0l-3.2-0.7c-0.5-0.1-0.8-0.6-0.8-1.1c0-0.3-0.2-0.6-0.5-0.7c0,0-0.1,0-0.1,0
			c-0.3,0-0.5,0.2-0.6,0.4c-0.2,0.4-0.5,0.6-0.9,0.6c-0.1,0-0.2,0-0.2,0L7,32.9c-0.5-0.1-0.8-0.6-0.8-1.1c0-0.3-0.2-0.6-0.5-0.7
			c-0.3-0.1-0.5-0.2-0.6-0.4C5,30.5,5,30.2,5,29.9l4.4-18.5C9.1,11,9,10.6,9.1,10.1c0.1-0.4,0.4-0.8,0.8-1l0.5-2.2
			c0.1-0.5,0.5-0.8,1-0.8c0.1,0,0.2,0,0.2,0c0,0,0.1,0,0.1,0c0.3,0,0.5-0.2,0.6-0.4c0.2-0.4,0.5-0.6,0.9-0.6c0.1,0,0.2,0,0.2,0
			l3.2,0.7C17.2,6,17.5,6.5,17.5,7c0,0.3,0.2,0.6,0.5,0.7c0,0,0.1,0,0.1,0c0.3,0,0.5-0.2,0.6-0.4c0.2-0.4,0.5-0.6,0.9-0.6
			c0.1,0,0.2,0,0.2,0L23,7.4c0.5,0.1,0.8,0.6,0.8,1.1c0,0.3,0.2,0.6,0.5,0.7c0.5,0.1,0.9,0.7,0.7,1.2l-0.5,2.2
			c0.2,0.3,0.4,0.8,0.2,1.2c-0.1,0.4-0.4,0.8-0.8,1l-4.4,18.5c-0.1,0.3-0.2,0.5-0.4,0.6c-0.2,0.1-0.3,0.2-0.5,0.2
			c-0.1,0-0.2,0-0.2,0c0,0-0.1,0-0.1,0c-0.3,0-0.5,0.2-0.6,0.4C17.5,34.9,17.1,35.1,16.7,35.1z"/>
		<path class="st1" d="M13.3,6.1l3.2,0.7c-0.1,0.8,0.4,1.5,1.2,1.7c0.1,0,0.2,0,0.4,0c0.7,0,1.3-0.4,1.5-1l3.2,0.7
			c-0.1,0.8,0.4,1.5,1.2,1.7l-0.7,2.8h0c0.3,0.1,0.5,0.3,0.4,0.6c-0.1,0.2-0.3,0.4-0.5,0.4c0,0-0.1,0-0.1,0h0l-4.5,19.2
			c-0.1,0-0.2,0-0.4,0c-0.7,0-1.3,0.4-1.5,1l-3.2-0.7c0.1-0.8-0.4-1.5-1.2-1.7c-0.1,0-0.2,0-0.4,0c-0.7,0-1.3,0.4-1.5,1l-3.2-0.7
			c0.1-0.8-0.4-1.5-1.2-1.7L10.5,11l0,0c-0.3-0.1-0.5-0.3-0.4-0.6c0.1-0.2,0.3-0.4,0.5-0.4c0,0,0.1,0,0.1,0l0,0l0.7-2.8
			c0.1,0,0.2,0,0.4,0C12.4,7.2,13.1,6.8,13.3,6.1 M13.3,4.1c-0.7,0-1.4,0.4-1.7,1c0,0-0.1,0-0.1,0c-0.4,0-0.7,0.1-1.1,0.3
			C9.9,5.7,9.6,6.2,9.5,6.7L9,8.5C8.6,8.9,8.3,9.4,8.2,9.9C8,10.5,8.1,11,8.3,11.5L4.1,29.7c-0.2,1,0.3,1.9,1.2,2.3
			c0.1,0.9,0.7,1.6,1.5,1.8l3.2,0.7c0.2,0,0.3,0.1,0.5,0.1c0.5,0,0.9-0.2,1.3-0.5c0.2,0.6,0.7,1,1.4,1.1l3.2,0.7
			c0.2,0,0.3,0.1,0.5,0.1c0.7,0,1.4-0.4,1.7-1c0,0,0.1,0,0.1,0c0.4,0,0.7-0.1,1.1-0.3c0.5-0.3,0.8-0.7,0.9-1.2l4.3-18.2
			c0.4-0.3,0.7-0.8,0.9-1.4c0.1-0.6,0.1-1.1-0.2-1.6l0.4-1.9c0.2-1-0.3-1.9-1.2-2.3c-0.1-0.9-0.7-1.6-1.5-1.8L20,5.7
			c-0.2,0-0.3-0.1-0.5-0.1c-0.5,0-0.9,0.2-1.3,0.5c-0.2-0.6-0.7-1-1.4-1.1l-3.2-0.7C13.6,4.2,13.4,4.1,13.3,4.1L13.3,4.1z"/>
	</g>
	<g>
		<path class="st1" d="M55.8,37.3c-0.5,0-1-0.4-1-0.9l-0.6-7.8c0,0,0-0.1,0-0.1l-0.4-5.1c0,0,0-0.1,0-0.1l-0.6-7.6
			c-0.5-0.1-0.8-0.5-0.8-1v-2.9c0-0.6,0.4-1,1-1h5.2l-1-4.5h-4.2c-0.6,0-1-0.4-1-1V2.5c0-0.6,0.4-1,1-1h7.2c0.5,0,0.9,0.3,1,0.8
			l2,8.6h5.7c0.6,0,1,0.4,1,1v2.9c0,0.5-0.3,0.9-0.8,1l-1.6,20.7c0,0.5-0.5,0.9-1,0.9H55.8z"/>
		<path class="st1" d="M60.7,2.5l2.2,9.3h6.5v2.9h-0.7l-0.7,8.5l0,0l-0.3,4.4l0,0l-0.7,8.7H55.8l-0.6-7.9l0,0l-0.4-5.1l0,0l-0.7-8.6
			h-0.7v-2.9h6.5l-1.4-6.5h-5V2.5H60.7 M60.7,0.5h-7.2c-1.1,0-2,0.9-2,2v2.9c0,1.1,0.9,2,2,2h3.4l0.5,2.5h-4c-1.1,0-2,0.9-2,2v2.9
			c0,0.7,0.3,1.3,0.8,1.6l0.5,6.9c0,0.1,0,0.1,0,0.2l0.4,5.1c0,0.1,0,0.1,0,0.2l0.6,7.7c0.1,1,0.9,1.8,2,1.8h11.1c1,0,1.9-0.8,2-1.8
			l0.7-8.7l0.3-4.4l0.5-7c0.5-0.4,0.8-1,0.8-1.6v-2.9c0-1.1-0.9-2-2-2h-4.9l-1.8-7.8C62.4,1.1,61.6,0.5,60.7,0.5L60.7,0.5z"/>
	</g>
	<g>
		<path class="st1" d="M78.2,37.3c-0.5,0-1-0.4-1-0.9l-0.6-7.8c0,0,0-0.1,0-0.1l-0.4-5.1c0,0,0-0.1,0-0.1l-0.6-7.6
			c-0.5-0.1-0.8-0.5-0.8-1v-2.9c0-0.6,0.4-1,1-1H81l-1-4.5h-4.2c-0.6,0-1-0.4-1-1V2.5c0-0.6,0.4-1,1-1H83c0.5,0,0.9,0.3,1,0.8l2,8.6
			h5.7c0.6,0,1,0.4,1,1v2.9c0,0.5-0.3,0.9-0.8,1l-1.6,20.7c0,0.5-0.5,0.9-1,0.9H78.2z"/>
		<path class="st1" d="M83,2.5l2.2,9.3h6.5v2.9h-0.7l-0.7,8.5l0,0l-0.3,4.4l0,0l-0.7,8.7H78.2l-0.6-7.9l0,0l-0.4-5.1l0,0l-0.7-8.6
			h-0.7v-2.9h6.5l-1.4-6.5h-5V2.5H83 M83,0.5h-7.2c-1.1,0-2,0.9-2,2v2.9c0,1.1,0.9,2,2,2h3.4l0.5,2.5h-4c-1.1,0-2,0.9-2,2v2.9
			c0,0.7,0.3,1.3,0.8,1.6l0.5,6.9c0,0.1,0,0.1,0,0.2l0.4,5.1c0,0.1,0,0.1,0,0.2l0.6,7.7c0.1,1,0.9,1.8,2,1.8h11.1c1,0,1.9-0.8,2-1.8
			l0.7-8.7l0.3-4.4l0.5-7c0.5-0.4,0.8-1,0.8-1.6v-2.9c0-1.1-0.9-2-2-2h-4.9l-1.8-7.8C84.7,1.1,83.9,0.5,83,0.5L83,0.5z"/>
	</g>
	<g>
		<path class="st1" d="M104.5,36.7c-0.5,0-0.9-0.4-1-0.8l-3.2-20.4c0-0.3,0-0.6,0.2-0.8c0.1-0.2,0.3-0.3,0.6-0.3
			c0-0.3,0.1-0.6,0.2-0.9c-0.4-0.3-0.7-0.7-0.8-1.1c-0.2-0.6-0.2-1.3,0.2-1.9c0.3-0.5,0.7-0.8,1.2-1.1c0-1.4,1.4-2.6,3.2-2.6
			c0.2-0.3,0.4-0.7,0.8-0.9c0.6-0.4,1.4-0.7,2.2-0.7c0.2,0,0.5,0,0.7,0.1c0.4-0.8,1.1-1.3,2.1-1.6c0.3-0.1,0.6-0.1,0.8-0.1
			c1,0,2,0.4,2.6,1c0.5-0.6,1.4-1,2.3-1c0.1,0,0.2,0,0.3,0c1.3,0,2.5,0.7,2.9,1.6c0.1,0,0.1,0,0.2,0c0.6-0.4,1.3-0.6,2-0.6
			c1,0,1.9,0.3,2.5,1c0.3,0.3,0.6,0.8,0.7,1.2c0.2,0,0.4,0,0.5,0c1,0,1.9,0.3,2.5,1c0.5,0.5,0.8,1.3,0.7,2c0,0.2-0.1,0.4-0.2,0.6
			c1,0.4,1.6,1.3,1.7,2.3c0,0.6-0.3,1.2-0.8,1.7c0.2,0,0.4,0.2,0.5,0.3c0.2,0.2,0.3,0.5,0.2,0.8l-3.2,20.4c-0.1,0.5-0.5,0.8-1,0.8
			H104.5z"/>
		<path class="st1" d="M116.6,4.6c1.1,0,2.1,0.6,2.2,1.5c0.4,0.1,0.8,0.2,1.2,0.3c0.4-0.4,1.1-0.7,1.8-0.7c0,0,0,0,0,0
			c1.2,0,2.2,0.7,2.2,1.6c0,0.2-0.1,0.5-0.2,0.7c0.1,0.1,0.2,0.1,0.3,0.2c0,0,0.1-0.1,0.1-0.1c0.4-0.2,0.8-0.3,1.3-0.3
			c0.7,0,1.3,0.2,1.8,0.7c0.7,0.7,0.5,1.7-0.5,2.2c0.1,0.1,0.2,0.2,0.2,0.3c1.2,0,2.1,0.7,2.1,1.6c0,0.5-0.3,1-0.9,1.3
			c0.1,0.5,0.1,0.9,0.2,1.4h0.7l-3.2,20.4h-4.1h-4.4H113h-4.4h-4.1l-3.2-20.4h0.7c0-0.8,0.1-1.6,0.4-2.4c-0.5-0.2-0.9-0.6-1.1-1
			c-0.3-0.9,0.4-1.7,1.5-2c-0.1-0.2-0.2-0.4-0.2-0.6c0-0.9,1-1.6,2.2-1.6c0,0,0,0,0,0c0.3,0,0.5,0,0.7,0.1c0,0,0-0.1,0-0.1
			c0-0.4,0.2-0.8,0.6-1.1c0.4-0.3,1-0.5,1.6-0.5c0.5,0,1.1,0.2,1.5,0.5l0,0c-0.1-0.1-0.1-0.3-0.1-0.4c0-0.7,0.6-1.3,1.6-1.5
			c0.2,0,0.4-0.1,0.6-0.1c0.9,0,1.8,0.4,2.1,1.1c0.3,0,0.6,0,1-0.1c0.3-0.6,1-1,1.9-1.1C116.5,4.6,116.6,4.6,116.6,4.6 M116.6,2.6
			c-0.1,0-0.2,0-0.3,0c-0.8,0.1-1.6,0.3-2.2,0.7c-0.7-0.5-1.6-0.7-2.6-0.7c-0.4,0-0.7,0-1.1,0.1c-1,0.2-1.9,0.8-2.4,1.5
			c-0.1,0-0.1,0-0.2,0c-1,0-2,0.3-2.8,0.9c-0.3,0.2-0.5,0.5-0.7,0.7c-1.8,0.2-3.2,1.4-3.5,2.9c-0.5,0.3-0.8,0.7-1.1,1.2
			c-0.5,0.8-0.6,1.8-0.2,2.7c0.1,0.4,0.3,0.7,0.6,1.1c-0.1,0.1-0.2,0.2-0.3,0.3c-0.4,0.4-0.5,1-0.5,1.6l3.2,20.4c0.2,1,1,1.7,2,1.7
			h4.1h4.4h4.4h4.4h4.1c1,0,1.8-0.7,2-1.7l3.2-20.4c0.1-0.5,0-1.1-0.4-1.5c0.2-0.5,0.4-1,0.4-1.5c0-1.1-0.6-2.1-1.5-2.8c0,0,0,0,0,0
			c0.2-1-0.2-2.1-1-2.8c-0.8-0.8-1.9-1.2-3-1.2c-0.2-0.3-0.4-0.6-0.6-0.9c-0.8-0.8-1.9-1.2-3.2-1.2c-0.6,0-1.2,0.1-1.8,0.3
			C119.2,3.1,118,2.6,116.6,2.6L116.6,2.6C116.6,2.6,116.6,2.6,116.6,2.6L116.6,2.6z"/>
	</g>
	<g>
		<path class="st1" d="M150.6,35.9c-0.1,0-0.2,0-0.3,0l-8.9-2.4c-0.5-0.1-0.9-0.7-0.7-1.2l7.9-29.7c0.1-0.3,0.2-0.5,0.5-0.6
			c0.2-0.1,0.3-0.1,0.5-0.1c0.1,0,0.2,0,0.3,0l8.9,2.4c0.5,0.1,0.9,0.7,0.7,1.2l-3.3,12.3c-0.1,0.3-0.3,0.5-0.5,0.6
			c-0.1,0.1-0.3,0.1-0.4,0.1c-0.1,0-0.2,0-0.3,0c-0.1,0-0.3,0-0.4,0c-0.8,0-1.4,0.5-1.6,1.2c-0.1,0.4-0.1,0.9,0.2,1.3s0.6,0.7,1,0.8
			c0.5,0.1,0.9,0.7,0.7,1.2l-3.3,12.3c-0.1,0.3-0.2,0.5-0.5,0.6C150.9,35.8,150.7,35.9,150.6,35.9z"/>
		<path class="st1" d="M149.5,2.8l8.9,2.4l-3.3,12.3l0,0c-0.2-0.1-0.5-0.1-0.7-0.1c-1.2,0-2.3,0.8-2.6,2c-0.4,1.4,0.5,2.9,1.9,3.3
			l0,0l-3.3,12.3l-8.9-2.4L149.5,2.8 M149.5,0.8c-0.9,0-1.7,0.6-1.9,1.5L139.7,32c-0.1,0.5-0.1,1.1,0.2,1.5c0.3,0.5,0.7,0.8,1.2,0.9
			l8.9,2.4c0.2,0,0.3,0.1,0.5,0.1c0.9,0,1.7-0.6,1.9-1.5l3.3-12.3c0.1-0.5,0.1-1.1-0.3-1.6c-0.3-0.4-0.7-0.7-1.2-0.9
			c-0.3-0.1-0.5-0.5-0.4-0.8c0.1-0.3,0.4-0.5,0.6-0.5c0.1,0,0.1,0,0.2,0c0.2,0,0.3,0.1,0.5,0.1c0.3,0,0.6-0.1,0.9-0.2
			c0.5-0.3,0.9-0.7,1-1.3l3.3-12.3c0.3-1.1-0.3-2.2-1.4-2.4l-8.9-2.4C149.9,0.9,149.7,0.8,149.5,0.8L149.5,0.8z"/>
	</g>
	<g>
		<path class="st1" d="M169.6,35.9c-0.1,0-0.2,0-0.3,0l-8.9-2.4c-0.5-0.1-0.9-0.7-0.7-1.2l7.9-29.7c0.1-0.3,0.2-0.5,0.5-0.6
			c0.2-0.1,0.3-0.1,0.5-0.1c0.1,0,0.2,0,0.3,0l8.9,2.4c0.5,0.1,0.9,0.7,0.7,1.2l-3.3,12.3c-0.1,0.3-0.3,0.5-0.5,0.6
			c-0.1,0.1-0.3,0.1-0.4,0.1c-0.1,0-0.2,0-0.3,0c-0.1,0-0.3,0-0.4,0c-0.8,0-1.4,0.5-1.6,1.2c-0.1,0.4-0.1,0.9,0.2,1.3s0.6,0.7,1,0.8
			c0.5,0.1,0.9,0.7,0.7,1.2l-3.3,12.3c-0.1,0.3-0.2,0.5-0.5,0.6C169.9,35.8,169.7,35.9,169.6,35.9z"/>
		<path class="st1" d="M168.5,2.8l8.9,2.4l-3.3,12.3l0,0c-0.2-0.1-0.5-0.1-0.7-0.1c-1.2,0-2.3,0.8-2.6,2c-0.4,1.4,0.5,2.9,1.9,3.3
			l0,0l-3.3,12.3l-8.9-2.4L168.5,2.8 M168.5,0.8c-0.9,0-1.7,0.6-1.9,1.5L158.7,32c-0.1,0.5-0.1,1.1,0.2,1.5c0.3,0.5,0.7,0.8,1.2,0.9
			l8.9,2.4c0.2,0,0.3,0.1,0.5,0.1c0.9,0,1.7-0.6,1.9-1.5l3.3-12.3c0.1-0.5,0.1-1.1-0.3-1.6c-0.3-0.4-0.7-0.7-1.2-0.9
			c-0.3-0.1-0.5-0.5-0.4-0.8c0.1-0.3,0.4-0.5,0.6-0.5c0.1,0,0.1,0,0.2,0c0.2,0,0.3,0.1,0.5,0.1c0.3,0,0.6-0.1,0.9-0.2
			c0.5-0.3,0.9-0.7,1-1.3l3.3-12.3c0.3-1.1-0.3-2.2-1.4-2.4l-8.9-2.4C168.9,0.9,168.7,0.8,168.5,0.8L168.5,0.8z"/>
	</g>
</g>
<g>
	<g>
		<path class="st2" d="M16.5,6.9l-3.2-0.7c-0.3,0.7-1.1,1.2-1.9,1L6,30.2c0.8,0.2,1.3,0.9,1.2,1.7l3.2,0.7c0.3-0.7,1.1-1.2,1.9-1
			l0,0c0.8,0.2,1.3,0.9,1.2,1.7l3.2,0.7c0.3-0.7,1.1-1.2,1.9-1l0,0l0,0l5.4-23l0,0l0,0c-0.8-0.2-1.3-0.9-1.2-1.7l-3.2-0.7
			c-0.3,0.7-1.1,1.2-1.9,1l0,0C16.9,8.4,16.4,7.7,16.5,6.9z"/>
		<g>
			<path class="st3" d="M11.6,11.3c0,0-0.1,0-0.1,0l-1-0.2c-0.3-0.1-0.5-0.3-0.4-0.6c0.1-0.3,0.3-0.5,0.6-0.4l1,0.2
				c0.3,0.1,0.5,0.3,0.4,0.6C12.1,11.1,11.9,11.3,11.6,11.3z"/>
			<path class="st3" d="M20.1,13.2c0,0-0.1,0-0.1,0l-2.1-0.5c-0.3-0.1-0.5-0.3-0.4-0.6c0.1-0.3,0.3-0.5,0.6-0.4l2.1,0.5
				c0.3,0.1,0.5,0.3,0.4,0.6C20.5,13.1,20.3,13.2,20.1,13.2z M15.9,12.3c0,0-0.1,0-0.1,0l-2.1-0.5c-0.3-0.1-0.5-0.3-0.4-0.6
				c0.1-0.3,0.3-0.5,0.6-0.4l2.1,0.5c0.3,0.1,0.5,0.3,0.4,0.6C16.3,12.1,16.1,12.3,15.9,12.3z"/>
			<path class="st3" d="M23.2,14c0,0-0.1,0-0.1,0l-1-0.2c-0.3-0.1-0.5-0.3-0.4-0.6c0.1-0.3,0.3-0.5,0.6-0.4l1,0.2
				c0.3,0.1,0.5,0.3,0.4,0.6C23.7,13.8,23.5,14,23.2,14z"/>
			
				<rect x="6.5" y="17.4" transform="matrix(0.2285 -0.9735 0.9735 0.2285 -10.183 31.1671)" class="st3" width="16.1" height="9.2"/>
		</g>
		<polygon class="st1" points="11.7,21.3 14.1,21.1 14.6,18.9 15.5,21 17.9,20.8 16.1,22.4 17,24.5 15,23.3 13.2,24.8 13.7,22.6 		
			"/>
	</g>
	<g>
		<path class="st2" d="M35.5,6.9l-3.2-0.7c-0.3,0.7-1.1,1.2-1.9,1l-5.4,23c0.8,0.2,1.3,0.9,1.2,1.7l3.2,0.7c0.3-0.7,1.1-1.2,1.9-1
			l0,0c0.8,0.2,1.3,0.9,1.2,1.7l3.2,0.7c0.3-0.7,1.1-1.2,1.9-1l0,0l0,0l5.4-23l0,0l0,0c-0.8-0.2-1.3-0.9-1.2-1.7l-3.2-0.7
			c-0.3,0.7-1.1,1.2-1.9,1l0,0C35.9,8.4,35.4,7.7,35.5,6.9z"/>
		<g>
			<path class="st3" d="M30.6,11.3c0,0-0.1,0-0.1,0l-1-0.2c-0.3-0.1-0.5-0.3-0.4-0.6c0.1-0.3,0.3-0.5,0.6-0.4l1,0.2
				c0.3,0.1,0.5,0.3,0.4,0.6C31.1,11.1,30.9,11.3,30.6,11.3z"/>
			<path class="st3" d="M39.1,13.2c0,0-0.1,0-0.1,0l-2.1-0.5c-0.3-0.1-0.5-0.3-0.4-0.6c0.1-0.3,0.3-0.5,0.6-0.4l2.1,0.5
				c0.3,0.1,0.5,0.3,0.4,0.6C39.5,13.1,39.3,13.2,39.1,13.2z M34.9,12.3c0,0-0.1,0-0.1,0l-2.1-0.5c-0.3-0.1-0.5-0.3-0.4-0.6
				c0.1-0.3,0.3-0.5,0.6-0.4l2.1,0.5c0.3,0.1,0.5,0.3,0.4,0.6C35.3,12.1,35.1,12.3,34.9,12.3z"/>
			<path class="st3" d="M42.2,14c0,0-0.1,0-0.1,0l-1-0.2c-0.3-0.1-0.5-0.3-0.4-0.6c0.1-0.3,0.3-0.5,0.6-0.4l1,0.2
				c0.3,0.1,0.5,0.3,0.4,0.6C42.7,13.8,42.5,14,42.2,14z"/>
			
				<rect x="25.5" y="17.4" transform="matrix(0.2285 -0.9735 0.9735 0.2285 4.4753 49.6644)" class="st3" width="16.1" height="9.2"/>
		</g>
		<polygon class="st1" points="30.7,21.3 33.1,21.1 33.6,18.9 34.5,21 36.9,20.8 35.1,22.4 36,24.5 34,23.3 32.2,24.8 32.7,22.6 		
			"/>
	</g>
	<g>
		<path class="st4" d="M68.6,14.7l-1.7,21.6H55.8l-1.7-21.6"/>
		<path class="st5" d="M53.5,11.8h15.8v2.9H53.5C53.5,14.7,53.5,11.8,53.5,11.8z"/>
		<path class="st2" d="M65.1,22.5c-1-0.3-2.1-0.1-3,0.5l-2.1,1.6c-1.3,1-3.1,0.9-4.2-0.3l-1-1l0.4,5.1l3.7,0.4
			c1.1,0.2,2.2-0.3,2.9-1.1c0.9-1,2.3-1.4,3.5-1l2.3,0.8l0.3-4.4L65.1,22.5z"/>
		<path class="st6" d="M62.8,11.8l-2.2-9.3h-7.2v2.9h5l1.4,6.5H62.8z"/>
	</g>
	<g>
		<path class="st4" d="M90.9,14.7l-1.7,21.6H78.2l-1.7-21.6"/>
		<path class="st5" d="M75.8,11.8h15.8v2.9H75.8C75.8,14.7,75.8,11.8,75.8,11.8z"/>
		<path class="st2" d="M87.5,22.5c-1-0.3-2.1-0.1-3,0.5l-2.1,1.6c-1.3,1-3.1,0.9-4.2-0.3l-1-1l0.4,5.1l3.7,0.4
			c1.1,0.2,2.2-0.3,2.9-1.1c0.9-1,2.3-1.4,3.5-1l2.3,0.8l0.3-4.4L87.5,22.5z"/>
		<path class="st6" d="M85.1,11.8L83,2.5h-7.2v2.9h5l1.4,6.5H85.1z"/>
	</g>
	<g>
		<path class="st5" d="M129.1,12.6c0-0.9-0.9-1.6-2.1-1.6c-0.1-0.1-0.1-0.2-0.2-0.3c1-0.5,1.2-1.5,0.5-2.2c-0.7-0.7-2.1-0.9-3.1-0.4
			c0,0-0.1,0.1-0.1,0.1c-0.1-0.1-0.2-0.1-0.3-0.2c0.2-0.2,0.2-0.5,0.2-0.7c0-0.9-1-1.6-2.2-1.6c-0.7,0-1.4,0.2-1.8,0.7
			c-0.4-0.1-0.8-0.2-1.2-0.3c-0.1-0.9-1.2-1.5-2.4-1.4c-0.9,0.1-1.6,0.5-1.9,1.1c-0.3,0-0.6,0-1,0.1c-0.3-0.8-1.6-1.3-2.7-1.1
			c-0.9,0.2-1.6,0.8-1.6,1.5c0,0.2,0,0.3,0.1,0.4l0,0c-0.9-0.6-2.3-0.6-3.1,0c-0.4,0.3-0.6,0.7-0.6,1.1c0,0,0,0.1,0,0.1
			c-0.2-0.1-0.5-0.1-0.7-0.1c-1.2,0-2.2,0.7-2.2,1.6c0,0.2,0.1,0.4,0.2,0.6c-1.2,0.2-1.9,1.1-1.5,2c0.2,0.4,0.5,0.8,1.1,1
			c-0.3,0.8-0.4,1.6-0.4,2.4h26.3c0-0.5-0.1-0.9-0.2-1.4C128.7,13.6,129.1,13.1,129.1,12.6L129.1,12.6z"/>
		<path class="st4" d="M125.9,35.7h-21.4l-3.2-20.4h27.8L125.9,35.7z"/>
		<path class="st7" d="M113,35.7l-0.7-20.4h-5.8l2.2,20.4H113z"/>
		<g>
			<path class="st4" d="M121.8,34.9l-0.1,0.8h4.1C124.5,35.5,123.1,35.2,121.8,34.9L121.8,34.9z"/>
		</g>
		<path class="st7" d="M123.9,15.3h-5.8l-0.7,18.2c1.4,0.6,2.9,1,4.4,1.4L123.9,15.3z"/>
		<path class="st7" d="M117.4,33.5l-0.1,2.2h4.4l0.1-0.8C120.3,34.5,118.9,34,117.4,33.5z"/>
	</g>
	<g>
		<g>
			<path class="st8" d="M141.6,32.5l8.9,2.4l3.3-12.3l0,0c-1.4-0.4-2.3-1.8-1.9-3.3c0.4-1.4,1.8-2.3,3.3-1.9l0,0l3.3-12.3l-8.9-2.4
				L141.6,32.5z"/>
		</g>
		<g>
			<path class="st9" d="M150.9,24.7l-1.5,5.6c-0.3,1.1-1.5,1.8-2.6,1.5l-1-0.3c-1.1-0.3-1.8-1.5-1.5-2.6l1.5-5.6
				c0.3-1.1,1.5-1.8,2.6-1.5l1,0.3C150.6,22.4,151.2,23.6,150.9,24.7z"/>
		</g>
		<g>
			<path class="st10" d="M155.2,8.6l-1.5,5.6c-0.3,1.1-1.5,1.8-2.6,1.5l-1-0.3c-1.1-0.3-1.8-1.5-1.5-2.6l1.5-5.6
				c0.3-1.1,1.5-1.8,2.6-1.5l1,0.3C154.9,6.3,155.5,7.5,155.2,8.6z"/>
		</g>
	</g>
	<g>
		<g>
			<path class="st8" d="M160.6,32.5l8.9,2.4l3.3-12.3l0,0c-1.4-0.4-2.3-1.8-1.9-3.3c0.4-1.4,1.8-2.3,3.3-1.9l0,0l3.3-12.3l-8.9-2.4
				L160.6,32.5z"/>
		</g>
		<g>
			<path class="st9" d="M169.9,24.7l-1.5,5.6c-0.3,1.1-1.5,1.8-2.6,1.5l-1-0.3c-1.1-0.3-1.8-1.5-1.5-2.6l1.5-5.6
				c0.3-1.1,1.5-1.8,2.6-1.5l1,0.3C169.6,22.4,170.2,23.6,169.9,24.7z"/>
		</g>
		<g>
			<path class="st10" d="M174.2,8.6l-1.5,5.6c-0.3,1.1-1.5,1.8-2.6,1.5l-1-0.3c-1.1-0.3-1.8-1.5-1.5-2.6l1.5-5.6
				c0.3-1.1,1.5-1.8,2.6-1.5l1,0.3C173.9,6.3,174.5,7.5,174.2,8.6z"/>
		</g>
	</g>
</g>
</svg>
