<?xml version="1.0" encoding="utf-8"?>
<!-- Generator: Adobe Illustrator 22.1.0, SVG Export Plug-In . SVG Version: 6.00 Build 0)  -->
<svg version="1.1" id="Layer_1" xmlns="http://www.w3.org/2000/svg" xmlns:xlink="http://www.w3.org/1999/xlink" x="0px" y="0px"
	 viewBox="0 0 400 400" style="enable-background:new 0 0 400 400;" xml:space="preserve">
<style type="text/css">
	.st0{fill:#FFFFFF;}
	.st1{fill:#212121;}
	.st2{fill:#EF5959;}
	.st3{fill:#D32F2F;}
	.st4{fill:#C62828;}
	.st5{fill:#424242;}
	.st6{fill:#EFDFB9;}
	.st7{fill:#00CDC8;}
	.st8{fill:#8D5B49;}
	.st9{fill:#A17362;}
	.st10{fill:#5D3326;}
	.st11{fill:#6D3D2D;}
	.st12{fill:#D7AFA1;}
	.st13{fill:#EDC5B9;}
	.st14{fill:#423636;}
	.st15{fill:#F9A825;}
	.st16{fill:#1E88E5;}
	.st17{fill:#033C8E;}
	.st18{fill:#FDD835;}
	.st19{fill:#0D47A1;}
	.st20{fill:#FF9100;}
	.st21{fill:#EF5350;}
	.st22{fill:#E53935;}
	.st23{fill:#1565C0;}
	.st24{fill:#FBC02D;}
	.st25{fill:#FFEE58;}
	.st26{fill:#546E7A;}
	.st27{fill:#455A64;}
	.st28{font-family:'Nunito-Bold';}
	.st29{font-size:42px;}
</style>
<g>
	<g>
		<path class="st0" d="M116.4,203.5c-23.5,0-42.6-19.1-42.6-42.6c0-6.9,1.7-13.7,4.9-19.7c-1.1-1.2-2.1-2.4-3-3.6
			c-0.8,1.8-1.3,3.7-1.3,5.7c0,3.8-3.1,6.9-6.9,6.9s-6.9-3.1-6.9-6.9c0-6.8,2.6-13.3,7.6-19.1c-2-5-3.2-10.2-3.8-15.5h-9.9
			c-3.8,0-6.9-3.1-6.9-6.9s3.1-6.9,6.9-6.9h10c0.6-4.8,1.8-9.4,3.5-13.9c-4.9-5.7-7.5-12.2-7.5-18.9c0-3.8,3.1-6.9,6.9-6.9
			s6.9,3.1,6.9,6.9c0,1.8,0.4,3.6,1.1,5.4c0.2-0.2,0.3-0.5,0.5-0.7c-0.6-1.9-0.6-4,0.1-5.8c0.4-1,0.9-1.9,1.6-2.8
			c3.4-4,7.4-7.4,11.8-10.2c1.2-0.7,2.3-1.4,3.5-2c1.2-3,3.5-5.6,6.5-7.6c-1.7-1.3-3.7-2-5.9-2c-4,0-7.3-3.3-7.3-7.3
			c0-4,3.3-7.3,7.3-7.3c8.7,0,16.7,4.8,21,12.2c0.1,0,0.6,0,0.8,0c4.3-7.4,12.3-12.2,21-12.2c4,0,7.3,3.3,7.3,7.3
			c0,4-3.3,7.3-7.3,7.3c-2.2,0-4.2,0.7-5.9,2c0.1,0,0.6,0.4,0.6,0.4c0.4,0.3,0.8,0.6,1.2,1c0,0,0.1,0.1,0.2,0.2
			c0.3,0.3,0.6,0.6,0.9,0.9c0.1,0.1,0.3,0.3,0.4,0.4c0.3,0.3,0.5,0.5,0.7,0.7c0.1,0.2,0.3,0.3,0.4,0.5c0.1,0.1,0.1,0.1,0.2,0.2
			c0.1,0.1,0.1,0.2,0.2,0.3c0.7,1,1.3,2,1.8,3.1c5.8,3,10.9,7.1,15.3,12.2c2.1,2.5,2.7,5.7,1.7,8.6c0.5,0.6,1,1.3,1.4,1.9
			c1-1.9,1.8-4.2,1.8-6.6c0-3.8,3.1-6.9,6.9-6.9s6.9,3.1,6.9,6.9c0,7.2-2.9,14.1-8.5,20.1c1.5,4.1,2.5,8.3,3.1,12.7h11.5
			c3.8,0,6.9,3.1,6.9,6.9s-3.1,6.9-6.9,6.9h-11.4c-0.5,4.9-1.6,9.7-3.3,14.3c5.7,6,8.6,13,8.6,20.2c0,3.8-3.1,6.9-6.9,6.9
			s-6.9-3.1-6.9-6.9c0-2.6-0.8-4.9-1.9-6.9c-0.7,1-1.5,2-2.3,3c3.9,6.5,5.9,13.9,5.9,21.6C159,184.3,139.9,203.5,116.4,203.5z"/>
		<path class="st0" d="M136.4,26.6c1.3,0,2.3,1,2.3,2.3c0,1.3-1,2.3-2.3,2.3c-6,0-11.2,3.6-13.4,8.8c0.1,0,0.1,0,0.2,0.1
			c0.3,0.1,0.7,0.2,1,0.4c0.1,0,0.2,0.1,0.3,0.1c0.4,0.2,0.8,0.4,1.2,0.6c0.1,0,0.1,0.1,0.2,0.1c0.3,0.2,0.6,0.3,1,0.5
			c0.1,0.1,0.2,0.1,0.3,0.2c0.3,0.2,0.5,0.3,0.8,0.5c0.1,0.1,0.2,0.1,0.3,0.2c0.3,0.2,0.6,0.5,0.9,0.7c0,0,0.1,0.1,0.1,0.1
			c0.3,0.2,0.5,0.5,0.7,0.7c0.1,0.1,0.2,0.2,0.3,0.3c0.2,0.2,0.3,0.3,0.4,0.5c0.1,0.1,0.2,0.3,0.3,0.4c0,0,0.1,0.1,0.1,0.1
			c0,0,0,0,0,0c0.9,1.2,1.6,2.5,1.9,3.9c5.9,2.7,11.3,6.8,15.6,11.9c1.3,1.5,1.3,3.7,0,5.1c-0.2,0.2-0.4,0.4-0.6,0.7
			c2.7,3,5.1,6.5,7,10.2c4.6-4.4,7.3-9.7,7.3-15.4c0-1.1,0.9-1.9,1.9-1.9c1.1,0,1.9,0.9,1.9,1.9c0,7-3.5,13.6-9.4,18.9
			c2.5,5.8,4,12.2,4.3,18.9h16.1c1.1,0,1.9,0.9,1.9,1.9c0,1.1-0.9,1.9-1.9,1.9H161c-0.2,7.4-1.8,14.3-4.5,20.6
			c6,5.3,9.5,11.9,9.5,19c0,1.1-0.9,1.9-1.9,1.9c-1.1,0-1.9-0.9-1.9-1.9c0-5.7-2.7-11-7.4-15.5c-2.2,4.1-4.9,7.9-8,11.1
			c4.5,6.2,7.2,13.8,7.2,22.1c0,20.8-16.8,37.6-37.6,37.6s-37.6-16.8-37.6-37.6c0-7.6,2.2-14.6,6.1-20.5c-3.5-3.4-6.6-7.3-9.1-11.8
			c-4.1,4.3-6.4,9.2-6.4,14.5c0,1.1-0.9,1.9-1.9,1.9c-1.1,0-1.9-0.9-1.9-1.9c0-6.7,3.1-12.9,8.5-18c-3-6.5-4.8-13.8-5-21.6H54.5
			c-1.1,0-1.9-0.9-1.9-1.9c0-1.1,0.9-1.9,1.9-1.9h14.6c0.3-7.1,2-13.9,4.8-19.9c-5.3-5.1-8.3-11.3-8.3-17.9c0-1.1,0.9-1.9,1.9-1.9
			c1.1,0,1.9,0.9,1.9,1.9c0,5.2,2.3,10.1,6.3,14.4c1.8-3.3,4-6.4,6.5-9.2c-0.2-0.2-0.4-0.4-0.6-0.7c-0.3-0.4-0.6-0.8-0.7-1.2
			c-0.3-0.9-0.3-1.8,0-2.7c0.2-0.4,0.4-0.8,0.7-1.2c3.1-3.6,6.7-6.7,10.7-9.2c1.6-1,3.2-1.9,4.9-2.7c0.9-4.1,4.7-7.6,9.9-9.4
			c-2.2-5.2-7.4-8.8-13.4-8.8c-1.3,0-2.3-1-2.3-2.3c0-1.3,1-2.3,2.3-2.3c8.2,0,15.2,5.2,17.9,12.4c1.1-0.1,2.2-0.2,3.4-0.2
			c0.5,0,1,0,1.5,0c0.2,0,0.3,0,0.5,0c0.4,0,0.7,0.1,1.1,0.1c0.1,0,0.2,0,0.4,0C121.2,31.8,128.2,26.6,136.4,26.6 M136.4,16.6
			c-8.2,0-15.9,3.5-21.4,9.3c-5.4-5.8-13.2-9.3-21.4-9.3c-6.8,0-12.3,5.5-12.3,12.3c0,5.6,3.7,10.3,8.8,11.8c-0.3,0.5-0.6,1-0.9,1.5
			c-0.8,0.4-1.5,0.9-2.3,1.4c-4.2,2.6-8.1,5.8-11.5,9.5c-2.1-1.9-4.9-3.1-8-3.1c-6.6,0-11.9,5.3-11.9,11.9c0,7,2.3,13.8,6.8,19.9
			c-0.9,2.6-1.6,5.3-2.1,8h-5.7c-6.6,0-11.9,5.3-11.9,11.9c0,6.6,5.3,11.9,11.9,11.9H60c0.6,3.3,1.4,6.5,2.5,9.6
			c-4.5,6.1-6.9,12.9-6.9,20c0,6.6,5.3,11.9,11.9,11.9c0.6,0,1.1,0,1.7-0.1c-0.2,2-0.4,3.9-0.4,5.9c0,26.2,21.4,47.6,47.6,47.6
			s47.6-21.4,47.6-47.6c0-2-0.1-3.9-0.4-5.8c0.2,0,0.4,0,0.5,0c6.6,0,11.9-5.3,11.9-11.9c0-7.5-2.8-14.9-8-21.4
			c0.9-2.7,1.5-5.4,2-8.2h7c6.6,0,11.9-5.3,11.9-11.9c0-6.6-5.3-11.9-11.9-11.9h-7.3c-0.4-2.2-1-4.4-1.7-6.6
			c5.1-6.4,7.9-13.7,7.9-21.2c0-6.6-5.3-11.9-11.9-11.9c-3.5,0-6.6,1.5-8.8,3.9c-4.2-4.8-9.1-8.7-14.5-11.7c-0.3-0.5-0.6-1-0.9-1.5
			c5.1-1.5,8.8-6.2,8.8-11.8C148.7,22.1,143.2,16.6,136.4,16.6L136.4,16.6z"/>
	</g>
	<g>
		<path class="st0" d="M309.7,213.3c-23.5,0-42.6-19.1-42.6-42.6c0-2.3,0.2-4.6,0.6-6.8h-7.3c-0.3,0-0.5,0-0.8,0c-0.3,0-0.5,0-0.8,0
			h-7.9c-4.4,0-8-3.6-8-8c0-1.7,0.5-3.3,1.5-4.6h-18.7c-1.7,0.5-3.4,0.8-5.2,0.8c-3.4,0-6.7-1-9.2-2.7c-0.5-0.3-0.9-0.7-1.3-1
			c-0.1-0.1-0.2-0.2-0.3-0.3c-0.2-0.2-0.3-0.3-0.5-0.5c-0.1-0.1-0.2-0.3-0.3-0.4c-0.2-0.3-0.4-0.6-0.6-0.9c-0.1-0.2-0.2-0.4-0.4-0.6
			c-0.1-0.2-0.2-0.3-0.3-0.5c-0.1-0.3-0.3-0.5-0.4-0.8c-0.1-0.1-0.1-0.3-0.2-0.4c-0.1-0.4-0.3-0.8-0.4-1.2c0-0.1-0.1-0.3-0.1-0.4
			c-0.1-0.4-0.1-0.7-0.2-1.1c0,0,0-0.1,0-0.2c-0.1-0.5-0.1-0.9-0.1-1.4c0-0.1,0-0.2,0-0.2c0-0.4,0.1-0.8,0.1-1.2c0-0.1,0-0.1,0-0.2
			c0.1-0.4,0.2-0.9,0.3-1.4c0-0.1,0.1-0.2,0.1-0.2c0.1-0.4,0.3-0.8,0.5-1.2l0.1-0.2c0.2-0.5,0.5-0.9,0.7-1.3c0.4-0.7,0.9-1.3,1.3-2
			c0.4-0.7,0.9-1.3,1.3-2c7.4-11.2,14.5-21.4,21-30.3c-0.6-6-1.5-23.7,6.2-39.2c0.7-1.3,1.9-2.3,3.4-2.6c0.4-0.1,0.7-0.1,1.1-0.1
			c1.1,0,2.2,0.4,3.1,1.1l5.3,4.2c0.3-1.1,0.7-2.4,1.2-3.6c2.8-7.3,8.9-17.1,21.5-21.9c0.6-0.2,1.2-0.3,1.8-0.3c1.9,0,3.8,1.1,4.6,3
			l2.1,4.8c0.1-0.1,0.2-0.2,0.4-0.3C287.6,39.8,296,34,306.1,34c1.9,0,3.9,0.2,5.7,0.6c2.5,0.6,4.2,2.9,3.9,5.5l-0.5,4.4
			c3.5-1.3,7.8-2.4,12.5-2.4c5.1,0,10,1.3,14.4,3.8c1.2,0.7,2,1.8,2.4,3.1c0.3,1.3,0.1,2.7-0.6,3.8l-2.9,4.8
			c11.6,0.7,20.8,6.1,26.1,15.6c0.7,1.2,0.8,2.7,0.4,4.1c-0.5,1.3-1.5,2.4-2.8,3l-6.3,2.7c7.2,6.4,14,17.5,11.3,33.6
			c-0.2,1.3-1,2.5-2.1,3.3c-0.8,0.6-1.8,0.9-2.8,0.9c-0.3,0-0.7,0-1-0.1l-4.3-0.9c2.4,9.5,2,22.1-8.6,31.7c-0.7,0.7-1.6,1.1-2.6,1.2
			c2.6,5.6,4.1,11.8,4.1,18.1C352.3,194.2,333.2,213.3,309.7,213.3z"/>
		<path class="st0" d="M306.1,39c1.5,0,3.1,0.2,4.6,0.5L309,53.4c0,0,8.2-6.3,18.6-6.3c3.8,0,7.9,0.9,11.9,3.2l-7.8,12.9
			c0,0,2.7-0.6,6.7-0.6c7.1,0,18,2,24.2,13.1l-14.8,6.3c0,0,21.1,8.9,16.9,33.7l-13.2-2.6c0,0,11.6,20.6-4.1,34.6l-13.7-9.7
			c-0.9,0.6-1.8,1.3-2.7,1.8c9.8,6.8,16.2,18.1,16.2,30.9c0,20.8-16.8,37.6-37.6,37.6c-20.8,0-37.6-16.8-37.6-37.6
			c0-9.3,3.4-17.9,9-24.4h-10v9.6c0,1.6-1.3,3-3,3c0,0,0,0,0,0c0,0,0,0,0,0h-7.8c-0.3,0-0.5-0.1-0.8-0.1c-0.3,0.1-0.5,0.1-0.8,0.1
			c0,0,0,0,0,0c0,0,0,0,0,0h-7.8c-1.6,0-3-1.3-3-3c0-1.6,1.3-3,3-3h4.9v-6.6h-27.5h-3.4c-1.3,0.5-2.8,0.8-4.4,0.8
			c-2.5,0-4.8-0.7-6.4-1.8c-0.3-0.2-0.5-0.4-0.8-0.6c-0.1,0-0.1-0.1-0.2-0.1c-0.1-0.1-0.2-0.2-0.3-0.3c-0.1-0.1-0.1-0.2-0.2-0.2
			c-0.1-0.2-0.2-0.3-0.3-0.5c-0.1-0.1-0.1-0.2-0.2-0.3c-0.1-0.1-0.1-0.2-0.2-0.3c-0.1-0.1-0.1-0.3-0.2-0.5c0-0.1-0.1-0.1-0.1-0.2
			c-0.1-0.2-0.2-0.4-0.2-0.7c0-0.1,0-0.1,0-0.2c0-0.2-0.1-0.4-0.1-0.6c0,0,0-0.1,0-0.1c0-0.3,0-0.5,0-0.8c0,0,0-0.1,0-0.1
			c0-0.2,0-0.5,0.1-0.7c0,0,0-0.1,0-0.1c0-0.3,0.1-0.5,0.2-0.8c0,0,0,0,0,0c0.1-0.2,0.2-0.5,0.3-0.7c0-0.1,0-0.1,0.1-0.2
			c0.1-0.2,0.3-0.5,0.4-0.7c0.8-1.3,1.7-2.6,2.6-3.9c6.6-10,14.2-21.1,22-31.6c0,0-3.1-21,5.5-38.3l11.8,9.3c0,0,0.2-4.9,2.5-10.8
			c2.6-6.8,7.9-15,18.6-19l5.1,11.8c0,0,1.9-2.6,5.3-5.7C290.3,44.1,297.6,39,306.1,39 M261.7,152.9h3.5v-6.6h-3.5V152.9 M306.1,29
			C306.1,29,306.1,29,306.1,29c-7.5,0-15.2,2.7-22.3,8c-1.8-3-5.1-4.8-8.5-4.8c-1.2,0-2.4,0.2-3.5,0.6c-10.4,3.9-18.4,11.5-23.2,22
			c-1.8-1.4-3.9-2.1-6.2-2.1c-0.7,0-1.4,0.1-2.2,0.2c-2.9,0.7-5.4,2.6-6.8,5.3c-7.5,15.1-7.5,32.1-6.9,39.9
			c-6.3,8.6-13,18.3-20.1,29c-0.5,0.7-0.9,1.4-1.4,2.1c-0.4,0.6-0.8,1.2-1.2,1.9c-0.4,0.6-0.7,1.2-1.1,1.9c-0.1,0.1-0.1,0.3-0.2,0.4
			c-0.3,0.6-0.5,1.1-0.7,1.7c0,0.1-0.1,0.2-0.1,0.3c-0.2,0.6-0.4,1.3-0.5,2.1c0,0.1,0,0.3-0.1,0.4c-0.1,0.6-0.1,1.1-0.1,1.6
			c0,0.1,0,0.3,0,0.4c0,0.7,0,1.3,0.1,2c0,0.1,0,0.3,0.1,0.5c0.1,0.5,0.2,1,0.3,1.4c0,0.2,0.1,0.3,0.1,0.5c0.2,0.6,0.3,1.2,0.5,1.7
			c0.1,0.2,0.2,0.4,0.2,0.6c0.2,0.4,0.3,0.7,0.5,1c0.1,0.2,0.2,0.5,0.4,0.7c0.2,0.3,0.4,0.6,0.5,0.9c0.3,0.4,0.5,0.8,0.9,1.2
			c0.2,0.2,0.4,0.4,0.5,0.6c0.3,0.3,0.6,0.6,0.8,0.8c0.2,0.1,0.3,0.3,0.4,0.4c0.6,0.5,1.2,1,1.8,1.5c3.3,2.3,7.6,3.6,12.1,3.6
			c2,0,4-0.3,5.9-0.8h1.9h9.7c0.2,7,5.9,12.6,13,12.6h7.8c0,0,0,0,0,0c0,0,0,0,0,0c0.3,0,0.5,0,0.8,0c0.3,0,0.5,0,0.8,0h1.8
			c0,0.6,0,1.2,0,1.8c0,26.2,21.4,47.6,47.6,47.6c26.2,0,47.6-21.4,47.6-47.6c0-5.5-1-10.9-2.8-16c8.1-7.5,12-17.8,11-29.1
			c1.7-0.1,3.4-0.7,4.9-1.7c2.2-1.5,3.7-3.9,4.2-6.5c2.4-14.2-1.8-25-7.7-32.6c2.5-1.1,4.4-3.3,5.3-5.8c0.9-2.7,0.6-5.6-0.7-8.1
			c-4.9-8.8-12.7-14.6-22.5-17c0.7-1.9,0.8-4,0.3-6c-0.7-2.6-2.4-4.8-4.7-6.2c-5.2-3-10.9-4.5-16.9-4.5c-2.5,0-4.8,0.3-7,0.7
			c-0.7-3.9-3.6-7.1-7.7-8C310.7,29.2,308.4,29,306.1,29L306.1,29z"/>
	</g>
	<g>
		<path class="st0" d="M96.6,372.8c-23.5,0-42.6-19.1-42.6-42.6c0-14.6,7.4-27.6,18.8-35.3c-1-0.4-1.8-1-2.4-1.9
			c-2.8-4.3-4.6-9-5.2-13.9h-6.4c-1.3,0-2.6-0.5-3.6-1.5c-0.9-1-1.5-2.3-1.4-3.6c0.2-6.2,1.3-12.2,3.4-17.8l-4.7-1.6
			c-1.3-0.4-2.3-1.4-2.9-2.6c-0.6-1.2-0.6-2.6-0.2-3.9c6.7-17.8,23.3-29.8,41.3-29.8c4.4,0,8.8,0.7,13.1,2.2
			c19.9,6.8,31.2,27.4,27.7,48.6h6.1c1.4,0,2.7-0.3,3.9-1c2.7-1.5,4.4-4.3,4.4-7.4v-12.4c0-0.9,0.1-1.8,0.2-2.6
			c-4.7-1.7-8.6-5.3-10.7-10c-1-2.3-1.5-4.7-1.5-7.2c0-2.8,2.2-5,5-5h15.6c2.5,0,5,0.5,7.2,1.5c6.1,2.6,10.3,8.4,11,15
			c0.1,0.1,0.2,0.3,0.3,0.4c0.1,0.1,0.2,0.3,0.3,0.5c0.1,0.2,0.3,0.4,0.4,0.7c0.1,0.2,0.2,0.4,0.3,0.5l-0.5,0.3c0.1,0,0.1,0,0.2,0
			l0.3-0.2c0,0.1,0.1,0.2,0.1,0.3c5,1.2,8.4,5.2,8.8,5.7c1.2,1.4,1.4,3.3,0.8,4.9c2.6,2.6,4.1,6.2,4.1,10.1v11.1
			c0,1.8-0.9,3.3-2.3,4.2v10.6c0,0.3,0,0.6,0,0.9c-0.1,1.9-0.3,3.8-0.7,5.6c-2.4,10.7-10.4,19.6-20.8,23.2
			c-3.2,6.5-7.9,11.8-13.2,15.2c-1.9,1.2-3.8,2.1-5.8,2.7l0,5.1c6,0.2,11.1,4.4,12.5,10.3c0.3,1.5,0,3-1,4.2
			c-0.9,1.2-2.4,1.9-3.9,1.9h-24.3C120.5,367.5,109,372.8,96.6,372.8z M84.4,289.4c0.7-0.2,1.3-0.4,2-0.5c0-0.1,0-0.9,0-0.9
			L84.4,289.4z"/>
		<path class="st0" d="M90.8,223.3c3.8,0,7.7,0.6,11.5,1.9c19.3,6.6,29.4,28.3,23.1,48.9h12.4c2.3,0,4.4-0.6,6.2-1.5
			c4.2-2.2,7.1-6.7,7.1-11.8v-12.4c0-2.5,1-4.8,2.5-6.5h-1.1c-5.5,0-10.2-3.3-12.3-8.1c-0.7-1.6-1.1-3.4-1.1-5.3h15.6
			c1.9,0,3.6,0.4,5.3,1.1c4.7,2,8.1,6.7,8.1,12.2c0,0,0.1,0.1,0.1,0.1c0.1,0.1,0.2,0.3,0.3,0.4c0.1,0.1,0.2,0.2,0.2,0.3
			c0.1,0.1,0.2,0.3,0.3,0.4c0.1,0.1,0.1,0.2,0.2,0.4c0.1,0.1,0.2,0.3,0.2,0.4c0.1,0.1,0.1,0.3,0.2,0.4c0.1,0.1,0.1,0.3,0.2,0.4
			c0.1,0.1,0.1,0.3,0.2,0.5c0,0.1,0.1,0.3,0.1,0.4c0.1,0.2,0.1,0.3,0.1,0.5c0,0.1,0.1,0.3,0.1,0.4c0,0.2,0.1,0.4,0.1,0.6
			c0,0,0,0.1,0,0.1c0.3,0,0.7-0.1,1.1-0.1c4.2,0,7.7,4.2,7.7,4.2s-1.3,1.5-3.2,2.8c4,1.1,7,4.8,7,9.1v11.1c-0.8,0-1.6-0.1-2.3-0.3
			c0,0.1,0,0.2,0,0.3c0,0,0,0.1,0,0.1c0,0,0,0,0,0c0,0,0,0,0,0c0,0.2,0,0.4,0,0.6v14.1c0,0.3,0,0.5,0,0.8c-0.1,1.6-0.3,3.1-0.6,4.6
			c-2.2,9.9-9.8,17.7-19.5,20.3c-0.2,0.4-0.3,0.8-0.5,1.2c-2.9,6.2-7.2,11-11.7,13.9c-2.7,1.7-5.5,2.7-8.1,2.9l0,15.5
			c1.3-0.9,2.9-1.4,4.5-1.4c3.9,0,7.2,2.7,8.1,6.4h-13.3h-2.9h-10.4c-6.9,8.9-17.6,14.6-29.7,14.6C75.8,367.8,59,351,59,330.2
			c0-19.1,14.3-34.9,32.8-37.3c-0.2-1.4-0.3-2.8-0.3-4.3v-10.3l-16.8,11.8c-3.3-5-4.8-10.7-4.7-16.1H58.8c0.2-7.7,2.1-14.8,5.2-20.9
			l-9.8-3.4C60.3,233.5,75.2,223.3,90.8,223.3 M130.3,346.9c0.4-0.1,0.8-0.1,1.2-0.1c2,0,3.8,0.7,5.2,1.8v-2.3c-2.6-2.5-4.3-4-4.3-4
			l4.3,0v-9.9c-0.8-0.2-1.6-0.4-2.3-0.8c-0.1,0-0.2-0.1-0.3-0.1C134,337,132.6,342.2,130.3,346.9 M90.8,213.3
			C90.8,213.3,90.8,213.3,90.8,213.3c-20.1,0-38.6,13.3-46,33c-1,2.5-0.8,5.3,0.3,7.8c1.2,2.4,3.3,4.3,5.8,5.2l0,0
			c-1.3,4.7-2,9.6-2.2,14.5c-0.1,2.7,0.9,5.3,2.8,7.2c1.9,1.9,4.5,3,7.2,3H61c0.9,3.6,2.4,7,4.3,10.3C55.3,303.1,49,316,49,330.2
			c0,26.2,21.4,47.6,47.6,47.6c13.1,0,25.3-5.3,34.3-14.6h5.9h2.9h13.3c3,0,5.9-1.4,7.8-3.8c1.9-2.4,2.6-5.5,1.9-8.5
			c-1.3-5.5-4.9-9.9-9.7-12.3c0.3-0.2,0.5-0.3,0.8-0.5c5.6-3.5,10.5-8.9,14.1-15.4c11-4.6,19.5-14.4,22.1-26.2
			c0.5-2.1,0.8-4.3,0.9-6.5c0-0.4,0-0.7,0-1.1v-8.4c1.4-1.7,2.3-3.9,2.3-6.4v-11.1c0-4.3-1.4-8.3-3.8-11.5c0.1-2.4-0.7-4.7-2.2-6.7
			c-0.8-1-4.1-4.8-9.2-6.7c0,0-0.1-0.1-0.1-0.1c-1.2-7.8-6.4-14.6-13.8-17.8c-2.9-1.3-6-1.9-9.2-1.9h-15.6c-5.5,0-10,4.5-10,10
			c0,2.7,0.4,5.3,1.3,7.8c-5.7-9.7-14.4-17-24.9-20.6C100.8,214.1,95.8,213.3,90.8,213.3L90.8,213.3z M137.1,264
			c0.4-7.7-1-15.4-4.1-22.5c2.1,3.1,4.8,5.6,8,7.3v11.9c0,1.5-0.9,2.5-1.8,3c-0.5,0.3-1,0.4-1.6,0.4H137.1L137.1,264z"/>
	</g>
	<g>
		<path class="st0" d="M309.7,372.8c-21.3,0-39.1-15.7-42.1-36.4c-0.6-0.2-1.2-0.3-1.8-0.5c0,0,0,0,0,0c-0.9-0.2-1.8-0.5-2.6-0.7
			l-0.3-0.1c-2.6-0.7-5.2-1.5-7.6-2.2c-2-0.6-4-1.2-5.9-1.7l-2-0.6l-2-0.5c-0.6-0.2-1.2-0.3-1.8-0.5c0,0-1.6-0.4-2-0.5l-0.8-0.2
			c-0.4-0.1-0.9-0.2-1.3-0.2l-0.7-0.1c-0.6-0.1-1.2-0.2-1.9-0.3l-0.4,0c-0.5-0.1-1-0.1-1.5-0.2l-0.6-0.1c-0.5,0-0.9-0.1-1.4-0.1
			l-0.6,0c-0.6,0-1.3,0-1.9,0c-2.3,0-4.5-0.7-6.2-1.9c-1-0.7-1.9-1.6-2.5-2.7c-1.5-2.4-2-5.3-1.3-8c0.7-2.6,2.3-4.7,4.6-6.1
			c4.6-3.8,6.1-14.6,8.4-32.2c0.4-2.9,0.8-5.9,1.2-9.2c3.9-28.1,26.6-46.8,58-47.6c0.6,0,1.3,0,1.9,0h21.6
			c17.4,0,33.7,7.8,44.7,21.4c2.9,3.6,4.3,8.3,3.7,13c-0.1,0.6-0.2,1.2-0.3,1.8c0.9-0.3,1.8-0.5,2.7-0.5c3.8,0,7.1,2.7,7.8,6.5
			c1.1,5.6,1.6,11.6,1.6,17.7c0,6.1-0.5,12.1-1.6,17.8c-0.7,3.8-4,6.5-7.8,6.5c0,0,0,0,0,0c-0.9,0-1.8-0.2-2.7-0.5
			c0.1,0.6,0.2,1.2,0.3,1.8c0.6,4.6-0.7,9.3-3.7,13c-2.6,3.2-5.5,6.1-8.7,8.7c0.1,1,0.1,1.9,0.1,2.8
			C352.3,353.7,333.2,372.8,309.7,372.8z"/>
		<path class="st0" d="M316.2,225.3c16.4,0,31.2,7.6,40.8,19.5c4.3,5.3,3.4,13.2-2.1,17.2c-3.3,2.4-5.9,5.2-7.7,8.2c0,0,0,0,0,0
			c-0.6,1-1.1,2-1.5,3.1c0.8,0.5,1.7,0.8,2.7,0.8c1.7,0,3.4-0.9,4.3-2.4c1.7-2.7,4.2-5.3,7.3-7.4c1.7-1.2,3.6-2.3,5.7-3.2
			c0.4-0.2,0.8-0.3,1.2-0.3c1.4,0,2.6,1,2.9,2.4c1,5.2,1.5,10.9,1.5,16.8c0,5.9-0.5,11.6-1.5,16.8c-0.3,1.4-1.5,2.4-2.9,2.4
			c-0.4,0-0.8-0.1-1.2-0.3c-2.1-1-4-2-5.7-3.2c-3.1-2.1-5.6-4.7-7.3-7.4c-0.9-1.5-2.6-2.4-4.3-2.4c-1,0-2,0.3-2.7,0.8
			c0.1,0.2,0.2,0.5,0.3,0.7c0.1,0.2,0.2,0.4,0.3,0.6c0.1,0.2,0.2,0.4,0.3,0.5c1.8,3.5,4.7,6.7,8.4,9.4c5.5,4,6.4,11.9,2.1,17.2
			c-2.9,3.6-6.3,6.8-10.1,9.6c0.2,1.7,0.4,3.4,0.4,5.1c0,20.8-16.8,37.6-37.6,37.6c-20,0-36.4-15.7-37.5-35.4
			c-0.7-0.2-1.4-0.3-2.1-0.5c-0.1,0-0.2-0.1-0.4-0.1c-0.9-0.2-1.8-0.4-2.6-0.7c0,0,0,0,0,0c-0.9-0.2-1.7-0.5-2.6-0.7
			c-0.1,0-0.2-0.1-0.3-0.1c-4.7-1.3-9.2-2.7-13.5-4c-0.3-0.1-0.6-0.2-0.9-0.3c-0.4-0.1-0.8-0.2-1.2-0.3c-0.3-0.1-0.7-0.2-1-0.3
			c-0.3-0.1-0.7-0.2-1-0.3c-0.6-0.2-1.3-0.3-1.9-0.5c-0.3-0.1-0.5-0.1-0.8-0.2c-0.4-0.1-0.9-0.2-1.3-0.3c-0.3-0.1-0.6-0.1-0.8-0.2
			c-0.5-0.1-0.9-0.2-1.4-0.3c-0.2,0-0.5-0.1-0.7-0.1c-0.7-0.1-1.4-0.2-2-0.3c-0.1,0-0.3,0-0.4-0.1c-0.6-0.1-1.1-0.1-1.7-0.2
			c-0.2,0-0.5,0-0.7-0.1c-0.5,0-1-0.1-1.5-0.1c-0.2,0-0.4,0-0.6,0c-0.7,0-1.4-0.1-2.1-0.1c-1.3,0-2.4-0.4-3.3-1
			c-0.5-0.4-0.9-0.8-1.2-1.3c-1.5-2.3-1.2-5.6,1.8-7.2c7.4-5.6,8.3-18.9,11.8-44.9c3.8-27.9,27-42.6,53.1-43.2c0.6,0,1.2,0,1.8,0
			h3.7h8.4h3.7H316.2 M316.2,215.3h-5.7h-3.7h-8.4h-3.7c-0.7,0-1.4,0-2.1,0c-15.6,0.4-29.6,5-40.7,13.4
			c-12.3,9.3-19.9,22.6-22.1,38.5c-0.4,3.3-0.9,6.3-1.2,9.2c-1.8,13.9-3.4,25.9-6.4,28.8c-3.3,2.1-5.6,5.2-6.5,8.9
			c-1,4-0.3,8.3,2,11.9c1,1.6,2.3,3,3.8,4.1c2.6,1.9,5.8,2.9,9.2,2.9c0.5,0,1,0,1.7,0c0.1,0,0.2,0,0.3,0l0.2,0
			c0.4,0,0.8,0.1,1.2,0.1l0.1,0c0.2,0,0.3,0,0.5,0c0.5,0,0.9,0.1,1.4,0.2l0.3,0l0.1,0c0.5,0.1,1.1,0.2,1.7,0.3l0.3,0.1l0.3,0
			c0.4,0.1,0.8,0.2,1.2,0.2c0.2,0,0.5,0.1,0.7,0.2c0.4,0.1,0.8,0.2,1.2,0.3l0.3,0.1l0.4,0.1c0.6,0.1,1.2,0.3,1.7,0.4
			c0.2,0.1,0.5,0.1,0.7,0.2l0.3,0.1c0.3,0.1,0.6,0.2,0.9,0.3c0.4,0.1,0.7,0.2,1.1,0.3l0.8,0.2c1.9,0.5,3.8,1.1,5.8,1.7
			c2.5,0.7,5,1.5,7.7,2.3l0.3,0.1c0.5,0.1,1,0.3,1.5,0.4c4.7,21.4,23.9,37.3,46.5,37.3c26.2,0,47.6-21.4,47.6-47.6
			c0-0.2,0-0.4,0-0.6c2.7-2.4,5.3-5,7.5-7.8c2.9-3.6,4.6-8.1,4.9-12.7c5-1.1,9-5.1,10-10.3c1.1-5.9,1.7-12.2,1.7-18.7
			c0-6.5-0.6-12.7-1.7-18.7c-1-5.2-5-9.2-10-10.3c-0.3-4.6-2-9.1-4.9-12.7C352.8,223.7,335.1,215.3,316.2,215.3L316.2,215.3z"/>
	</g>
</g>
<g>
	<g>
		<path class="st1" d="M164.2,145c-1.1,0-1.9-0.9-1.9-1.9c0-15.8-20.8-28.7-46.4-28.7c-25.6,0-46.4,12.9-46.4,28.7
			c0,1.1-0.9,1.9-1.9,1.9c-1.1,0-1.9-0.9-1.9-1.9c0-17.9,22.5-32.5,50.3-32.5c27.7,0,50.3,14.6,50.3,32.5
			C166.1,144.2,165.2,145,164.2,145z"/>
	</g>
	<g>
		<path class="st1" d="M115.8,94.4c-27.7,0-50.3-14.6-50.3-32.5c0-1.1,0.9-1.9,1.9-1.9c1.1,0,1.9,0.9,1.9,1.9
			c0,15.8,20.8,28.7,46.4,28.7c25.6,0,46.4-12.9,46.4-28.7c0-1.1,0.9-1.9,1.9-1.9c1.1,0,1.9,0.9,1.9,1.9
			C166.1,79.8,143.5,94.4,115.8,94.4z"/>
	</g>
	<g>
		<path class="st1" d="M177.1,103.5H54.5c-1.1,0-1.9-0.9-1.9-1.9c0-1.1,0.9-1.9,1.9-1.9h122.6c1.1,0,1.9,0.9,1.9,1.9
			C179,102.7,178.2,103.5,177.1,103.5z"/>
	</g>
	<g>
		<path class="st2" d="M161.1,102.3c0,26.7-18.9,48.5-42.9,50.3c-0.4,0-0.8,0.1-1.2,0.1c-0.7,0-1.3,0.1-2,0.1c-0.7,0-1.3,0-2-0.1
			c-24.5-1.1-44-23.2-44-50.3c0-27.8,20.6-50.4,46-50.4c1.1,0,2.1,0,3.1,0.1C142.1,53.8,161.1,75.6,161.1,102.3z"/>
		<path class="st3" d="M161.1,102.3c0,26.7-18.9,48.5-42.9,50.3c-1.1-0.1-2.1-0.2-3.1-0.3c-22.4-3.3-39.7-24.4-39.7-49.9
			c0-25.5,17.3-46.6,39.7-49.9c1-0.2,2.1-0.3,3.2-0.4C142.1,53.8,161.1,75.6,161.1,102.3z"/>
		<path class="st1" d="M90.1,87.3c0,2.8-2.2,5-5,5c-2.8,0-5-2.2-5-5c0-2.8,2.2-5,5-5C87.8,82.3,90.1,84.6,90.1,87.3z"/>
		<path class="st1" d="M110.5,132.5c0,2.8-2.2,5-5,5c-2.8,0-5-2.2-5-5c0-2.8,2.2-5,5-5C108.3,127.5,110.5,129.7,110.5,132.5z"/>
		<path class="st1" d="M96.3,114.5c0,4.8-3.9,8.7-8.7,8.7c-4.8,0-8.7-3.9-8.7-8.7c0-4.8,3.9-8.7,8.7-8.7
			C92.4,105.8,96.3,109.7,96.3,114.5z"/>
		<path class="st4" d="M161.1,102.3c0,26.7-18.9,48.5-42.9,50.3c-1.1-0.1-2.1-0.2-3.1-0.3c0-27.3-0.1-85.5,0-99.8
			c1-0.2,2.1-0.3,3.2-0.4C142.1,53.8,161.1,75.6,161.1,102.3z"/>
		<path class="st1" d="M140,87.3c0,2.8,2.2,5,5,5c2.8,0,5-2.2,5-5c0-2.8-2.2-5-5-5C142.3,82.3,140,84.6,140,87.3z"/>
		<path class="st1" d="M119.6,132.5c0,2.8,2.2,5,5,5c2.8,0,5-2.2,5-5c0-2.8-2.2-5-5-5C121.8,127.5,119.6,129.7,119.6,132.5z"/>
		<path class="st1" d="M133.8,114.5c0,4.8,3.9,8.7,8.7,8.7c4.8,0,8.7-3.9,8.7-8.7c0-4.8-3.9-8.7-8.7-8.7
			C137.7,105.8,133.8,109.7,133.8,114.5z"/>
		<path class="st1" d="M129.5,97.6c0,6.5-6.5,11.8-14.5,11.8c-8,0-14.5-5.3-14.5-11.8s6.5-11.8,14.5-11.8
			C123,85.8,129.5,91.1,129.5,97.6z"/>
		<g>
			<g>
				<path class="st1" d="M102.6,56.2c-1.3,0-2.3-1-2.3-2.3c0-1.3,1-2.3,2.3-2.3c3.2,0,5.8-2.6,5.8-5.8c0-8.1-6.6-14.6-14.6-14.6
					c-1.3,0-2.3-1-2.3-2.3s1-2.3,2.3-2.3c10.6,0,19.2,8.6,19.2,19.2C112.9,51.6,108.3,56.2,102.6,56.2z"/>
			</g>
			<g>
				<path class="st1" d="M127.5,56.2c-5.7,0-10.4-4.6-10.4-10.4c0-10.6,8.6-19.2,19.2-19.2c1.3,0,2.3,1,2.3,2.3s-1,2.3-2.3,2.3
					c-8.1,0-14.6,6.6-14.6,14.6c0,3.2,2.6,5.8,5.8,5.8c1.3,0,2.3,1,2.3,2.3C129.8,55.2,128.8,56.2,127.5,56.2z"/>
			</g>
		</g>
		<path class="st1" d="M148.5,61.3c-4.4-5.1-9.7-9.1-15.6-11.9c-1.3-6-8.8-10.6-17.9-10.6c-9.1,0-16.6,4.6-17.9,10.6
			c-5.9,2.7-11.3,6.8-15.6,11.9c-1.3,1.5-1.3,3.7,0,5.1c8.4,9.8,20.3,15.8,33.5,15.8s25.1-6.1,33.5-15.8
			C149.8,65,149.8,62.8,148.5,61.3z"/>
		<path class="st5" d="M131.1,45.5c-3.3-2.6-8.1-4.2-13.5-4.2c-9.1,0-16.6,4.6-17.9,10.6c-5.9,2.7-11.3,6.8-15.6,11.9
			c-1.3,1.5-1.3,3.7,0,5.1c0.4,0.5,0.8,0.9,1.2,1.4c-1.3-1.2-2.6-2.5-3.7-3.9c-1.3-1.5-1.3-3.6,0-5.1c4.4-5.1,9.7-9.1,15.6-11.9
			c1.3-6,8.8-10.6,17.9-10.6C122,38.8,128.1,41.5,131.1,45.5z"/>
		<g>
			<path class="st6" d="M108.9,53.9c2,2.3,1.1,6.4-2,9.2c-3.2,2.7-7.3,3.1-9.4,0.7c-2-2.3-1.1-6.4,2-9.2
				C102.7,51.9,106.9,51.5,108.9,53.9z"/>
			<path class="st6" d="M121.2,53.9c-2,2.3-1.1,6.4,2,9.2c3.2,2.7,7.3,3.1,9.4,0.7c2-2.3,1.1-6.4-2-9.2
				C127.4,51.9,123.2,51.5,121.2,53.9z"/>
		</g>
	</g>
</g>
<g>
	<circle class="st7" cx="116.4" cy="160.9" r="37.6"/>
</g>
<g>
	<circle class="st7" cx="309.7" cy="170.7" r="37.6"/>
</g>
<g>
	<circle class="st7" cx="309.7" cy="330.2" r="37.6"/>
</g>
<g>
	<circle class="st7" cx="116.4" cy="160.9" r="37.6"/>
</g>
<g>
	<g>
		<path class="st8" d="M261.7,143.2v12.7c0,1.6-1.3,3-3,3c-1.6,0-3-1.3-3-3v-12.7c0-1.6,1.3-3,3-3
			C260.3,140.2,261.7,141.5,261.7,143.2z"/>
		<path class="st8" d="M261.7,155.9c0,1.6-1.3,3-3,3h-7.8c-1.6,0-3-1.3-3-3s1.3-3,3-3h7.8C260.3,152.9,261.7,154.2,261.7,155.9z"/>
	</g>
	<g>
		<path class="st8" d="M307.8,143.2v12.7c0,1.6-1.3,3-3,3c-1.6,0-3-1.3-3-3v-12.7c0-1.6,1.3-3,3-3
			C306.5,140.2,307.8,141.5,307.8,143.2z"/>
		<path class="st8" d="M307.8,155.9c0,1.6-1.3,3-3,3H297c-1.6,0-3-1.3-3-3s1.3-3,3-3h7.8C306.5,152.9,307.8,154.2,307.8,155.9z"/>
	</g>
	<g>
		<path class="st9" d="M271.1,143.2v12.7c0,1.6-1.3,3-3,3c-1.6,0-3-1.3-3-3v-12.7c0-1.6,1.3-3,3-3
			C269.8,140.2,271.1,141.5,271.1,143.2z"/>
		<path class="st9" d="M271.1,155.9c0,1.6-1.3,3-3,3h-7.8c-1.6,0-3-1.3-3-3s1.3-3,3-3h7.8C269.8,152.9,271.1,154.2,271.1,155.9z"/>
	</g>
	<g>
		<path class="st9" d="M317.3,143.2v12.7c0,1.6-1.3,3-3,3c-1.6,0-3-1.3-3-3v-12.7c0-1.6,1.3-3,3-3
			C315.9,140.2,317.3,141.5,317.3,143.2z"/>
		<path class="st9" d="M317.3,155.9c0,1.6-1.3,3-3,3h-7.8c-1.6,0-3-1.3-3-3s1.3-3,3-3h7.8C315.9,152.9,317.3,154.2,317.3,155.9z"/>
	</g>
	<path class="st10" d="M364.7,115.6l-13.2-2.6c0,0,11.6,20.6-4.1,34.6l-13.7-9.7l-1.7-1.2l-11.6-4.4l-27.9-10.5l-55.8-20.9
		c0,0-3.1-21,5.5-38.3l11.8,9.3c0,0,0.2-4.9,2.5-10.8c2.6-6.8,7.9-15,18.6-19l5.1,11.8c0,0,1.9-2.6,5.3-5.7
		c5.5-5,14.7-11.2,25.1-8.8L309,53.4c0,0,15.4-11.8,30.5-3.2l-7.8,12.9c0,0,21.2-4.9,30.9,12.5l-14.8,6.3
		C347.9,81.9,369,90.9,364.7,115.6z"/>
	<path class="st10" d="M350.3,112.7c-2.2,10.1-8.2,19.1-16.6,25.2c-3.8,2.8-8.2,5.1-12.9,6.5c-3.9,1.2-8.1,1.9-12.5,1.9h-90.9
		c-5,0-8.1-5.6-5.3-9.8c3.7-5.6,7.8-11.8,12.1-18c4-5.8,8.2-11.8,12.5-17.5c9.1-12.2,18.4-23.6,26.6-31.2c3.8-3.6,7.3-6.3,10.5-8
		c5.6-3,11.5-4.9,17.5-5.7c4.8-0.7,9.7-0.7,14.5,0c4.2,0.5,8.3,1.6,12.3,3.1c2.8,1.1,5.5,2.4,8.1,3.9c7.7,4.6,14.4,11.1,19.2,19.4
		c0.3,0.6,0.6,1.1,0.9,1.7c0.4,0.7,0.8,1.5,1.1,2.3c2.4,5.2,3.7,10.5,3.9,15.7C351.5,105.7,351.1,109.2,350.3,112.7z"/>
	<path class="st11" d="M336.7,103.6c0,5.1-2.8,10.1-8.5,12.1c-5.3,1.9-8.6,6.9-8.6,12.1c0,1.5,0.3,3,0.8,4.5c0.1,0.3,0.3,0.7,0.4,1
		c0.9,1.9,1.3,3.8,1.3,5.6c0,1.9-0.5,3.8-1.3,5.5c-3.9,1.2-8.1,1.9-12.5,1.9h-80.2c-2.5-3.5-3.3-8.2-1.1-12.9
		c0.8-1.8,1.3-3.7,1.3-5.5c0-3.5-1.5-7-4.1-9.4c4-5.8,8.2-11.8,12.5-17.5c0,0-3.1-21,5.5-38.3l11.8,9.3c0,0,0.2-4.9,2.5-10.8
		c2.6-6.8,7.9-15,18.6-19l5.1,11.8c0,0,1.9-2.6,5.3-5.7c0.2,0.4,0.3,0.7,0.5,1.2c1,2.8,2.9,5.1,5.3,6.6c3.6,2.3,8.2,2.7,12.4,0.7
		c0.7-0.3,1.4-0.6,2.1-0.8c0,0,3.2-0.5,3.2-0.5h0.2c3.4,0,6.5,1.4,8.8,3.6c3.7,3.6,5.4,9.3,2.7,14.8c-0.8,1.8-1.3,3.7-1.3,5.5
		c0,5.2,3.2,10.2,8.6,12.1c5.3,1.9,8.2,6.4,8.5,11.2C336.7,103,336.7,103.3,336.7,103.6z"/>
	<path class="st8" d="M301.8,110.5c0,4.4-2.5,8.8-7.4,10.5c-0.6,0.2-1.2,0.5-1.8,0.8c-3.6,2-5.7,5.8-5.7,9.7c0,1.6,0.4,3.2,1.1,4.8
		c0.8,1.6,1.1,3.3,1.1,4.9c0,1.8-0.4,3.5-1.2,5h-70.4c-5,0-8.1-5.6-5.3-9.8c3.7-5.6,7.8-11.8,12.1-18c4-5.8,8.2-11.8,12.5-17.5
		c0,0-3.1-21,5.5-38.3l11.8,9.3c0,0,0.2-4.9,2.5-10.8c0.4,0.7,0.8,1.4,1.1,2.3c1,2.9,3.1,5.1,5.6,6.3c2.9,1.4,6.5,1.6,9.7,0
		c1.6-0.8,3.3-1.1,4.9-1.1c7.6,0,13.8,8.2,10,16c-0.7,1.6-1.1,3.2-1.1,4.8c0,4.6,2.8,8.9,7.5,10.6
		C299.3,101.8,301.8,106.2,301.8,110.5z"/>
	<path class="st12" d="M258.1,137.3c0,3.1-0.3,6.1-1,8.9h-39.7c-1.5,0-2.9-0.5-3.9-1.4c-2.4-1.9-3.3-5.5-1.4-8.4
		c0.8-1.3,1.7-2.6,2.6-3.9c6.6-10,14.2-21.1,22-31.6C249.5,108.1,258.1,121.7,258.1,137.3z"/>
	<path class="st13" d="M229.2,141.2c0,3.2-3.9,5.9-8.8,5.9c-2.7,0-5.2-0.8-6.8-2.1c-1.2-1-2-2.3-2-3.7c0-3.2,3.9-5.9,8.8-5.9
		C225.2,135.3,229.2,138,229.2,141.2z"/>
	<path class="st14" d="M240.6,124.3c0,2.4-1.9,4.3-4.3,4.3c-2.4,0-4.3-1.9-4.3-4.3c0-2.4,1.9-4.3,4.3-4.3
		C238.7,120,240.6,122,240.6,124.3z"/>
	<path class="st14" d="M220,138.7c0,3.4-2.8,6.2-6.2,6.2c-0.1,0-0.1,0-0.2,0c-2.4-1.9-3.3-5.5-1.4-8.4c0.8-1.3,1.7-2.6,2.6-3.9
		C217.7,133,220,135.6,220,138.7z"/>
	<path class="st12" d="M243.7,119.6c-2.1-2.6-1.6-6.4,1-8.5l3.2-2.6c2.6-2.1,6.4-1.6,8.5,1c2.1,2.6,1.6,6.4-1,8.5l-3.2,2.6
		C249.6,122.7,245.7,122.3,243.7,119.6z"/>
	<path class="st9" d="M248.4,118.7c-0.9,0-1.7-0.4-2.2-1.1c-0.5-0.6-0.7-1.3-0.6-2.1c0.1-0.7,0.5-1.4,1-1.9l3.2-2.6
		c0.6-0.5,1.3-0.6,1.7-0.6c0.9,0,1.7,0.4,2.2,1.1c0.5,0.6,0.7,1.3,0.6,2.1c-0.1,0.7-0.5,1.4-1,1.9l-3.2,2.6
		C249.5,118.6,248.9,118.7,248.4,118.7z"/>
</g>
<g>
	<circle class="st7" cx="309.7" cy="170.7" r="37.6"/>
</g>
<g>
	<path class="st15" d="M152.9,353.2c-0.9-3.7-4.2-6.4-8.1-6.4c-3.9,0-7.2,2.7-8.1,6.4H152.9z"/>
	<path class="st16" d="M125.3,274c6.3-20.6-3.8-42.3-23.1-48.9c-19.3-6.6-40.5,4.4-48.1,24.6L125.3,274z"/>
	<path class="st16" d="M116.4,260.8c-8.8-11.7-24.8-14.9-36.1-6.9c-11.3,8-13.8,24-5.7,36.3L116.4,260.8z"/>
	<g>
		<polygon class="st15" points="140.3,350 140.3,320.1 136.7,321.7 136.7,353.2 		"/>
		<path class="st15" d="M138.1,342.3v5.4c-3.4-3.2-5.7-5.4-5.7-5.4L138.1,342.3z"/>
		<path class="st17" d="M126.9,313.6h34.3c-0.3,0.8-0.6,1.6-1,2.3c-2.9,6.2-7.2,11-11.7,13.9c-4.7,3-9.8,3.8-14,1.8
			c-3.8-1.8-6.3-5.7-7.2-10.6c-0.1-0.5-0.2-1.1-0.3-1.6c-0.1-0.9-0.2-1.8-0.2-2.8c0-0.1,0-0.3,0-0.4
			C126.7,315.3,126.8,314.4,126.9,313.6z"/>
	</g>
	<g>
		<polygon class="st18" points="126.9,350 127,320.1 123.4,321.7 123.4,353.2 		"/>
		<path class="st18" d="M124.8,342.3v5.4c-3.4-3.2-5.7-5.4-5.7-5.4L124.8,342.3z"/>
		<path class="st19" d="M111.9,313.6h34.3c-0.3,0.8-0.6,1.6-1,2.3c-2.9,6.2-7.2,11-11.7,13.9c-4.7,3-9.8,3.8-14,1.8
			c-3.8-1.8-6.3-5.7-7.2-10.6c-0.1-0.5-0.2-1.1-0.3-1.6c-0.1-0.9-0.2-1.8-0.2-2.8c0-0.1,0-0.3,0-0.4
			C111.8,315.3,111.9,314.4,111.9,313.6z"/>
	</g>
	<path class="st19" d="M180.8,275v14.1c0,0.3,0,0.5,0,0.8c-0.1,1.6-0.3,3.1-0.6,4.6c-2.4,10.8-11.2,19.2-22.2,20.9
		c-1.3,0.2-2.7,0.3-4.1,0.3h-35.6c-14.8,0-26.9-12.1-26.9-26.9v-13.5c0-5.1,1.4-9.9,4-14c4.7,7.7,13.3,12.9,23,12.9h19.4
		c2.3,0,4.4-0.6,6.2-1.5c4.2-2.2,7.1-6.7,7.1-11.8v-12.4c0-2.7,1.1-5.1,2.9-6.9c1.8-1.8,4.2-2.9,6.9-2.9c5.4,0,9.8,4.4,9.8,9.8v8.2
		c5.8,3.9,9.7,10.4,10.2,17.8C180.8,274.6,180.8,274.8,180.8,275z"/>
	<path class="st20" d="M180.8,274.4c-0.3,3.5-3.2,6.2-6.8,6.2h-23.3c-3.7,0-6.8-3.1-6.8-6.8v-1.3c4.2-2.2,7.1-6.7,7.1-11.8v-12.4
		c0-2.7,1.1-5.1,2.9-6.9c1.8-1.8,4.2-2.9,6.9-2.9c2,0,3.9,0.6,5.5,1.7c0.6,0.4,1.2,0.9,1.7,1.5c1.6,1.7,2.6,4.1,2.6,6.6v8.2
		c0.2,0.1,0.4,0.3,0.6,0.4C176.7,260.9,180.4,267.2,180.8,274.4z"/>
	<path class="st3" d="M183.1,274.3v-11.1c0-5.2-4.2-9.5-9.5-9.5l0,11.1C173.6,270.1,177.9,274.3,183.1,274.3z"/>
	<path class="st21" d="M179,263.2v11.1c-5.2,0-9.5-4.2-9.5-9.5v-11.1c0.9,0,1.7,0.1,2.5,0.3C176.1,255.2,179,258.8,179,263.2z"/>
	<path class="st22" d="M179,263.2V274c-4-1.1-7-4.8-7-9.2v-10.8C176.1,255.2,179,258.8,179,263.2z"/>
	<path class="st21" d="M170.6,248.3v7.1c-1.4,0.7-3.1,1-4.9,1c-5.4,0-9.8-3.4-9.8-7.6c0-4.2,4.4-7.6,9.8-7.6c0.6,0,1.2,0,1.8,0.1
		c0.2,0.1,0.3,0.2,0.5,0.3C169.6,243.5,170.6,245.8,170.6,248.3z"/>
	<circle class="st5" cx="160.8" cy="248.9" r="2.4"/>
	<path class="st23" d="M125.3,274c-0.6-22.2-15.3-40-33.3-40c-18,0-32.7,17.8-33.3,40H125.3z"/>
	<path class="st16" d="M117.4,274H66.7c1.2-6.3,3.9-12.1,7.7-16.7c4.9-5.9,11.1-9.1,17.7-9.1c6.5,0,12.8,3.2,17.7,9.1
		C113.5,262,116.1,267.7,117.4,274z"/>
	<path class="st23" d="M108,274H76.1c0.7-1.4,1.4-2.6,2.1-3.9c3.8-5.9,8.7-9.1,13.8-9.1c5.1,0,10,3.2,13.8,9.1
		C106.6,271.4,107.3,272.7,108,274z"/>
	<path class="st20" d="M131.9,300.2h-27.1c-1.6,0-3,1.3-3,3c0,1.6,1.3,3,3,3h27.1c1.6,0,3-1.3,3-3
		C134.9,301.6,133.6,300.2,131.9,300.2z"/>
	<path class="st20" d="M134.6,294.2h-27.1c-1.6,0-3,1.3-3,3c0,1.6,1.3,3,3,3h27.1c1.6,0,3-1.3,3-3
		C137.6,295.6,136.2,294.2,134.6,294.2z"/>
	<path class="st20" d="M137.2,288.2h-27.1c-1.6,0-3,1.3-3,3c0,1.6,1.3,3,3,3h27.1c1.6,0,3-1.3,3-3
		C140.2,289.6,138.9,288.2,137.2,288.2z"/>
	<path class="st23" d="M152.6,293.1c0-7.8-9.3-14-20.8-14c-11.5,0-20.8,6.3-20.8,14c0,7.8,9.3,14,20.8,14
		C143.3,307.2,152.6,300.9,152.6,293.1z"/>
	<path class="st18" d="M139.6,353.2c-0.9-3.7-4.2-6.4-8.1-6.4c-3.9,0-7.2,2.7-8.1,6.4H139.6z"/>
	<path class="st20" d="M156.3,286.1c-1.8,0-3.3-1.5-3.3-3.3v-4c0-1.8,1.5-3.3,3.3-3.3c1.8,0,3.3,1.5,3.3,3.3v4
		C159.7,284.6,158.2,286.1,156.3,286.1z"/>
	<path class="st20" d="M163,286.1c-1.8,0-3.3-1.5-3.3-3.3v-4c0-1.8,1.5-3.3,3.3-3.3c1.8,0,3.3,1.5,3.3,3.3v4
		C166.3,284.6,164.8,286.1,163,286.1z"/>
	<path class="st20" d="M169.6,286.1c-1.8,0-3.3-1.5-3.3-3.3v-4c0-1.8,1.5-3.3,3.3-3.3c1.8,0,3.3,1.5,3.3,3.3v4
		C172.9,284.6,171.5,286.1,169.6,286.1z"/>
	<path class="st15" d="M179.3,251.3c0,0-3.4,4.2-7.7,4.2c-0.5,0-1,0-1.4-0.1c-2.9-0.4-3.3-2.1-3.3-4.1c0-2,0.4-3.7,3.3-4.1
		c0.4-0.1,0.9-0.1,1.4-0.1C175.9,247.1,179.3,251.3,179.3,251.3z"/>
	<path class="st18" d="M176.8,251.3c0,0-2.9,3.5-6.6,4.1c-2.9-0.4-3.3-2.1-3.3-4.1c0-2,0.4-3.7,3.3-4.1
		C173.9,247.8,176.8,251.3,176.8,251.3z"/>
	<path class="st15" d="M171.2,249.9c0,0.5-0.4,1-1,1c-0.5,0-1-0.4-1-1c0-0.5,0.4-1,1-1C170.8,248.9,171.2,249.3,171.2,249.9z"/>
	<path class="st22" d="M168.1,241.8h-15.6c-5.5,0-10.2-3.3-12.3-8.1c-0.7-1.6-1.1-3.4-1.1-5.3h15.6c1.9,0,3.6,0.4,5.3,1.1
		C164.7,231.6,168.1,236.3,168.1,241.8z"/>
	<path class="st21" d="M161,234.8h-15.6c-1.9,0-3.6-0.4-5.3-1.1c-0.7-1.6-1.1-3.4-1.1-5.3h15.6c1.9,0,3.6,0.4,5.3,1.1
		C160.7,231.2,161,232.9,161,234.8z"/>
	<path class="st23" d="M180.8,289.8c-0.1,1.6-0.3,3.1-0.6,4.6c-2.4,10.8-11.2,19.2-22.2,20.9c-1.5-2.6-2.4-5.7-2.4-8.9
		c0-9.9,8.1-18,18-18C176.2,288.4,178.6,288.9,180.8,289.8z"/>
</g>
<g>
	
		<ellipse transform="matrix(7.088903e-02 -0.9975 0.9975 7.088903e-02 -239.6494 403.1149)" class="st7" cx="96.6" cy="330.2" rx="37.6" ry="37.6"/>
</g>
<g>
	<path class="st24" d="M354.9,298.3c5.5,4,6.4,11.9,2.1,17.2c-9.7,11.9-24.4,19.5-40.8,19.5h-21.6c-27.5,0-45-12.2-64.1-12.2
		c-5.4,0-7.5-7-2.6-9.5c3.5-1.8,6-5.1,6.9-9l7.6-32.8c3.1-26,25.4-46.4,52.2-46.4h21.6c16.4,0,31.2,7.6,40.8,19.5
		c4.3,5.3,3.4,13.2-2.1,17.2c-6.5,4.8-10.5,11.2-10.5,18.1C344.4,287.1,348.4,293.5,354.9,298.3z"/>
	<path class="st24" d="M344.4,280.2c0,3.5,1,6.9,2.8,9.9c0,0.1,0,0.2-0.1,0.3c-3.6,19.7-17.6,36.3-36.6,44.7h-15.9
		c-27.5,0-45-12.2-64.1-12.2c-5.4,0-7.5-7-2.6-9.5c3.5-1.8,6-5.1,6.9-9l7.6-32.8c0.5-4.5,1.6-8.8,3.2-12.9
		c4.3-11,12.2-20.2,22.3-26.2c0,0,0.1,0,0.1-0.1c7.8-4.6,16.8-7.2,26.5-7.2h15.9c19,8.5,33,25,36.6,44.7c0,0.1,0,0.2,0.1,0.3
		C345.4,273.3,344.4,276.7,344.4,280.2z"/>
	<path class="st15" d="M344.4,280.2c0,3.5,1,6.9,2.8,9.9c0,0.1,0,0.2-0.1,0.3c-3.6,19.7-17.6,36.3-36.6,44.7h-12.2
		c-27.5,0-45-12.2-64.1-12.2c-5.4,0-7-6.2-2.6-9.5c7.4-5.6,8.2-18.9,11.8-44.9c0.5-3.5,1.3-6.7,2.3-9.8c4-11.8,12.1-20.6,22.3-26.2
		c0,0,0.1,0,0.1-0.1c8.8-4.8,19.3-7.2,30.2-7.2h12.2c19,8.5,33,25,36.6,44.7c0,0.1,0,0.2,0.1,0.3
		C345.4,273.3,344.4,276.7,344.4,280.2z"/>
	<path class="st18" d="M371.4,280.2c0,5.9-0.5,11.6-1.5,16.8c-0.3,1.9-2.4,2.9-4.1,2.1c-2.1-1-4-2-5.7-3.2c-3.1-2.1-5.6-4.7-7.3-7.4
		c-0.9-1.5-2.6-2.4-4.3-2.4c-2.5,0-4.6,1.8-5,4.2c-3.6,19.7-17.6,36.3-36.6,44.7h-12.2c-18.6,0-32.6-5.5-45.6-9.1
		c-6.3-1.7-12.3-3-18.6-3c-1.3,0-2.4-0.4-3.3-1c-2.6-1.9-2.7-6.1,0.6-8.5c7.4-5.6,8.3-18.9,11.8-44.9c3.9-28.6,28.1-43.3,54.9-43.3
		h12.2c19,8.5,33,25,36.6,44.7c0.4,2.4,2.5,4.2,5,4.2c1.7,0,3.4-0.9,4.3-2.4c1.7-2.7,4.2-5.3,7.3-7.4c1.7-1.2,3.6-2.3,5.7-3.2
		c1.7-0.8,3.8,0.3,4.1,2.1C370.9,268.5,371.4,274.2,371.4,280.2z"/>
	<ellipse class="st25" cx="298.4" cy="280.2" rx="36.2" ry="26.4"/>
	<path class="st25" d="M276.7,241.4c3,4.4,0.6,11.4-5.5,15.5c-6.1,4.1-13.4,3.9-16.5-0.5c-3-4.4-0.6-11.4,5.5-15.5
		C266.3,236.8,273.7,237,276.7,241.4z"/>
	<path class="st24" d="M371.4,280.2c0,5.9-0.5,11.6-1.5,16.8c-0.3,1.9-2.4,2.9-4.1,2.1c-2.1-1-4-2-5.7-3.2
		c-0.9-5.1-1.3-10.3-1.3-15.8c0-5.4,0.5-10.7,1.3-15.8c1.7-1.2,3.6-2.3,5.7-3.2c1.7-0.8,3.8,0.3,4.1,2.1
		C370.9,268.5,371.4,274.2,371.4,280.2z"/>
	<g>
		<path class="st24" d="M328.6,312.1c0.3-16.5-3.7-49,0-63.8C325.5,263.5,335,296,328.6,312.1z"/>
		<path class="st24" d="M319.6,316.4c0.3-19.3-3.9-56.1,0-72.5C316.1,260.1,326.5,296.8,319.6,316.4z"/>
		<path class="st24" d="M310.6,318.4c0.2-23.1-4-59.8,0-76.4C306.9,257.9,317.5,294.7,310.6,318.4z"/>
		<path class="st24" d="M301.6,322.5c0.1-26-4.2-67.4,0-84.7C297.7,255.2,308.8,296.4,301.6,322.5z"/>
		<path class="st24" d="M292.6,326.7c0.5-21.8-4.5-70.9,0-93C288.9,255.2,300.2,304.6,292.6,326.7z"/>
		<path class="st24" d="M283.6,318.4c0.1-23.7-4-60.4,0-76.4C279.7,257.1,290.5,293.7,283.6,318.4z"/>
		<path class="st24" d="M274.6,300.6c0.6-13.2-4.1-41.8,0-56.7C271.5,258.4,281.4,287.1,274.6,300.6z"/>
		<path class="st24" d="M265.6,292c0.5-10.4-3.8-32.9,0-43.7C262.4,258.4,271.9,280.8,265.6,292z"/>
		<path class="st24" d="M337,299.9c0.5-10.4-3.8-32.9,0-43.7C333.8,266.3,343.3,288.7,337,299.9z"/>
	</g>
	<path class="st26" d="M246.7,305.9l6.1,10.3c2.5,4.2,8.7,4,10.9-0.4l4.8-9.7c1.1-2.2,0.8-4.9-0.8-6.8l-6.9-8.1
		c-3.2-3.8-9.4-2.5-10.7,2.4L246.7,305.9z"/>
	<circle class="st27" cx="247.1" cy="306.1" r="4.6"/>
	<path class="st24" d="M249.1,325.9c-6.3-1.7-12.3-3-18.6-3c-1.3,0-2.4-0.4-3.3-1c2.5-2.2,5.8-3.6,9.4-3.6
		C242.1,318.3,246.8,321.4,249.1,325.9z"/>
	<path class="st27" d="M263.8,303.2c0,4.9-2.4,9.2-6.1,11.8c2-3.2,3.2-7.4,3.2-11.8c0-4.5-1.2-8.6-3.2-11.8
		C261.4,294,263.8,298.3,263.8,303.2z"/>
</g>
<g>
	<circle class="st7" cx="309.7" cy="330.2" r="37.6"/>
</g>
<text transform="matrix(1 0 0 1 89.6274 175.0332)" class="st0 st28 st29">23</text>
<text transform="matrix(1 0 0 1 285.6949 186.0332)" class="st0 st28 st29">17</text>
<text transform="matrix(1 0 0 1 70.8321 345.238)" class="st0 st28 st29">15</text>
<text transform="matrix(1 0 0 1 281.8494 345.238)" class="st0 st28 st29">19</text>
</svg>
