<?xml version="1.0" encoding="utf-8"?>
<!-- Generator: Adobe Illustrator 22.1.0, SVG Export Plug-In . SVG Version: 6.00 Build 0)  -->
<svg version="1.1" id="Layer_1" xmlns="http://www.w3.org/2000/svg" xmlns:xlink="http://www.w3.org/1999/xlink" x="0px" y="0px"
	 viewBox="0 0 140 40" style="enable-background:new 0 0 140 40;" xml:space="preserve">
<style type="text/css">
	.st0{fill:#637BA1;}
	.st1{fill:#FFFFFF;}
	.st2{fill:#212121;}
	.st3{fill:#EF5959;}
	.st4{fill:#D32F2F;}
	.st5{fill:#C62828;}
	.st6{fill:#424242;}
	.st7{fill:#EFDFB9;}
	.st8{fill:#8D5B49;}
	.st9{fill:#A17362;}
	.st10{fill:#5D3326;}
	.st11{fill:#6D3D2D;}
	.st12{fill:#D7AFA1;}
	.st13{fill:#EDC5B9;}
	.st14{fill:#423636;}
	.st15{fill:#F9A825;}
	.st16{fill:#1E88E5;}
	.st17{fill:#033C8E;}
	.st18{fill:#FDD835;}
	.st19{fill:#0D47A1;}
	.st20{fill:#FF9100;}
	.st21{fill:#EF5350;}
	.st22{fill:#E53935;}
	.st23{fill:#1565C0;}
	.st24{fill:#FBC02D;}
	.st25{fill:#FFEE58;}
	.st26{fill:#546E7A;}
	.st27{fill:#455A64;}
</style>
<g>
	<path class="st0" d="M140,0H-0.3v40H140V0L140,0z"/>
</g>
<g>
	<path class="st0" d="M140,0H-0.3v40H140V0L140,0z"/>
</g>
<g>
	<g>
		<g>
			<g>
				<path class="st1" d="M27.6,32.2c-0.8,0-1.4-0.6-1.4-1.4c0-2.6-3.8-4.8-8.4-4.8s-8.4,2.2-8.4,4.8c0,0.8-0.6,1.4-1.4,1.4
					s-1.4-0.6-1.4-1.4c0-4.2,5-7.6,11.2-7.6S29,26.6,29,30.8C29,31.6,28.3,32.2,27.6,32.2z"/>
				<path class="st1" d="M17.8,24.2c5.6,0,10.2,2.9,10.2,6.6c0,0.2-0.2,0.4-0.4,0.4c-0.2,0-0.4-0.2-0.4-0.4c0-3.2-4.2-5.8-9.4-5.8
					c-5.2,0-9.4,2.6-9.4,5.8c0,0.2-0.2,0.4-0.4,0.4c-0.2,0-0.4-0.2-0.4-0.4C7.6,27.2,12.2,24.2,17.8,24.2 M17.8,22.2
					C11,22.2,5.6,26,5.6,30.8c0,1.3,1.1,2.4,2.4,2.4c1.3,0,2.4-1.1,2.4-2.4c0-1.8,3.2-3.8,7.4-3.8c4.2,0,7.4,2,7.4,3.8
					c0,1.3,1.1,2.4,2.4,2.4c1.3,0,2.4-1.1,2.4-2.4C30,26,24.6,22.2,17.8,22.2L17.8,22.2z"/>
			</g>
		</g>
		<g>
			<g>
				<path class="st1" d="M17.8,22c-6.2,0-11.2-3.4-11.2-7.6C6.6,13.6,7.3,13,8,13s1.4,0.6,1.4,1.4c0,2.6,3.8,4.8,8.4,4.8
					s8.4-2.2,8.4-4.8c0-0.8,0.6-1.4,1.4-1.4s1.4,0.6,1.4,1.4C29,18.6,24,22,17.8,22z"/>
				<path class="st1" d="M27.6,14c0.2,0,0.4,0.2,0.4,0.4C28,18,23.4,21,17.8,21C12.2,21,7.6,18,7.6,14.4C7.6,14.2,7.8,14,8,14
					c0.2,0,0.4,0.2,0.4,0.4c0,3.2,4.2,5.8,9.4,5.8c5.2,0,9.4-2.6,9.4-5.8C27.2,14.2,27.4,14,27.6,14 M27.6,12
					c-1.3,0-2.4,1.1-2.4,2.4c0,1.8-3.2,3.8-7.4,3.8c-4.2,0-7.4-2-7.4-3.8c0-1.3-1.1-2.4-2.4-2.4c-1.3,0-2.4,1.1-2.4,2.4
					c0,4.8,5.3,8.6,12.2,8.6c6.8,0,12.2-3.8,12.2-8.6C30,13.1,28.9,12,27.6,12L27.6,12z"/>
			</g>
		</g>
		<g>
			<g>
				<path class="st1" d="M5.4,23.8c-0.8,0-1.4-0.6-1.4-1.4S4.6,21,5.4,21h24.8c0.8,0,1.4,0.6,1.4,1.4s-0.6,1.4-1.4,1.4H5.4z"/>
				<path class="st1" d="M30.2,22c0.2,0,0.4,0.2,0.4,0.4c0,0.2-0.2,0.4-0.4,0.4H5.4c-0.2,0-0.4-0.2-0.4-0.4C5,22.2,5.2,22,5.4,22
					H30.2 M30.2,20H5.4C4.1,20,3,21.1,3,22.4c0,1.3,1.1,2.4,2.4,2.4h24.8c1.3,0,2.4-1.1,2.4-2.4C32.6,21.1,31.5,20,30.2,20L30.2,20z
					"/>
			</g>
		</g>
		<g>
			<g>
				<path class="st1" d="M17.7,33.8c-0.2,0-0.3,0-0.5,0c-5.5-0.3-9.8-5.2-9.8-11.2c0-6.2,4.6-11.2,10.3-11.2c0.2,0,0.5,0,0.7,0
					c5.4,0.4,9.6,5.3,9.6,11.2c0,5.9-4.2,10.8-9.6,11.2l-0.3,0C18,33.7,17.8,33.8,17.7,33.8z"/>
				<path class="st1" d="M17.7,12.4c0.2,0,0.4,0,0.6,0c4.8,0.4,8.7,4.8,8.7,10.2c0,5.4-3.8,9.8-8.7,10.2c-0.1,0-0.2,0-0.2,0
					c-0.1,0-0.3,0-0.4,0c-0.1,0-0.3,0-0.4,0c-5-0.2-8.9-4.7-8.9-10.2C8.3,16.9,12.5,12.4,17.7,12.4 M17.7,10.4
					c-6.2,0-11.3,5.5-11.3,12.2c0,6.6,4.8,11.9,10.8,12.2c0.1,0,0.3,0,0.5,0c0.2,0,0.3,0,0.5,0c0.1,0,0.2,0,0.3,0
					C24.3,34.3,29,28.9,29,22.6c0-6.4-4.6-11.7-10.5-12.2C18.2,10.4,17.9,10.4,17.7,10.4L17.7,10.4z"/>
			</g>
			<g>
				<path class="st1" d="M18.2,33.7c-0.2,0-0.5,0-0.7-0.1c-5.1-0.8-8.9-5.5-8.9-11.1c0-5.6,3.8-10.3,8.9-11.1c0.2,0,0.5-0.1,0.7-0.1
					l0.1,0l0.1,0c5.4,0.4,9.6,5.3,9.6,11.2c0,5.9-4.2,10.8-9.6,11.2H18.2L18.2,33.7z"/>
				<path class="st1" d="M18.3,12.4c4.8,0.4,8.7,4.8,8.7,10.2c0,5.4-3.8,9.8-8.7,10.2c-0.2,0-0.4,0-0.6-0.1c-4.5-0.7-8-4.9-8-10.1
					c0-5.2,3.5-9.4,8-10.1C17.9,12.4,18.1,12.4,18.3,12.4 M18.3,10.4l-0.1,0c-0.3,0-0.5,0-0.8,0.1c-5.5,0.8-9.7,6-9.7,12.1
					c0,6.1,4.2,11.2,9.7,12.1c0.3,0,0.5,0.1,0.8,0.1l0.1,0l0.1,0C24.3,34.3,29,28.9,29,22.6c0-6.4-4.6-11.7-10.5-12.2L18.3,10.4
					L18.3,10.4z"/>
			</g>
			<g>
				<circle class="st1" cx="11.6" cy="19.5" r="2"/>
				<path class="st1" d="M11.6,18.5c0.6,0,1,0.5,1,1c0,0.6-0.5,1-1,1c-0.6,0-1-0.5-1-1C10.6,19,11,18.5,11.6,18.5 M11.6,16.5
					c-1.7,0-3,1.4-3,3c0,1.7,1.4,3,3,3c1.7,0,3-1.4,3-3C14.6,17.9,13.2,16.5,11.6,16.5L11.6,16.5z"/>
			</g>
			<g>
				<path class="st1" d="M15.7,30.7c-1.1,0-2-0.9-2-2c0-1.1,0.9-2,2-2c1.1,0,2,0.9,2,2C17.7,29.8,16.8,30.7,15.7,30.7z"/>
				<path class="st1" d="M15.7,27.6c0.6,0,1,0.5,1,1c0,0.6-0.5,1-1,1c-0.6,0-1-0.5-1-1C14.7,28.1,15.2,27.6,15.7,27.6 M15.7,25.6
					c-1.7,0-3,1.4-3,3c0,1.7,1.4,3,3,3c1.7,0,3-1.4,3-3C18.7,27,17.4,25.6,15.7,25.6L15.7,25.6z"/>
			</g>
			<g>
				<path class="st1" d="M12.1,27.8c-1.5,0-2.8-1.2-2.8-2.8c0-1.5,1.2-2.8,2.8-2.8s2.8,1.2,2.8,2.8C14.9,26.6,13.6,27.8,12.1,27.8z"
					/>
				<path class="st1" d="M12.1,23.3c1,0,1.8,0.8,1.8,1.8c0,1-0.8,1.8-1.8,1.8c-1,0-1.8-0.8-1.8-1.8C10.3,24.1,11.1,23.3,12.1,23.3
					 M12.1,21.3C10,21.3,8.3,23,8.3,25c0,2.1,1.7,3.8,3.8,3.8c2.1,0,3.8-1.7,3.8-3.8C15.9,23,14.2,21.3,12.1,21.3L12.1,21.3z"/>
			</g>
			<g>
				<path class="st1" d="M18.2,33.7c-0.2,0-0.5,0-0.7-0.1l-0.8-0.1l0-0.9c0-5.5,0-17.3,0-20.2l0-0.9l0.8-0.1c0.2,0,0.5-0.1,0.7-0.1
					l0.1,0l0.1,0c5.4,0.4,9.6,5.3,9.6,11.2c0,5.9-4.2,10.8-9.6,11.2H18.2L18.2,33.7z"/>
				<path class="st1" d="M18.3,12.4c4.8,0.4,8.7,4.8,8.7,10.2c0,5.4-3.8,9.8-8.7,10.2c-0.2,0-0.4,0-0.6-0.1c0-5.5,0-17.3,0-20.2
					C17.9,12.4,18.1,12.4,18.3,12.4 M18.3,10.4l-0.1,0c-0.3,0-0.5,0-0.8,0.1l-1.7,0.3l0,1.7c0,3,0,15.1,0,20.2l0,1.7l1.7,0.3
					c0.3,0,0.5,0.1,0.8,0.1l0.1,0l0.1,0C24.3,34.3,29,28.9,29,22.6c0-6.4-4.6-11.7-10.5-12.2L18.3,10.4L18.3,10.4z"/>
			</g>
			<g>
				<path class="st1" d="M23.7,21.5c-1.1,0-2-0.9-2-2c0-1.1,0.9-2,2-2c1.1,0,2,0.9,2,2C25.7,20.6,24.8,21.5,23.7,21.5z"/>
				<path class="st1" d="M23.7,18.5c0.6,0,1,0.5,1,1c0,0.6-0.5,1-1,1c-0.6,0-1-0.5-1-1C22.7,19,23.2,18.5,23.7,18.5 M23.7,16.5
					c-1.7,0-3,1.4-3,3c0,1.7,1.4,3,3,3c1.7,0,3-1.4,3-3C26.7,17.9,25.4,16.5,23.7,16.5L23.7,16.5z"/>
			</g>
			<g>
				<path class="st1" d="M19.6,30.7c-1.1,0-2-0.9-2-2c0-1.1,0.9-2,2-2c1.1,0,2,0.9,2,2C21.6,29.8,20.7,30.7,19.6,30.7z"/>
				<path class="st1" d="M19.6,27.6c0.6,0,1,0.5,1,1c0,0.6-0.5,1-1,1c-0.6,0-1-0.5-1-1C18.6,28.1,19,27.6,19.6,27.6 M19.6,25.6
					c-1.7,0-3,1.4-3,3c0,1.7,1.4,3,3,3c1.7,0,3-1.4,3-3C22.6,27,21.2,25.6,19.6,25.6L19.6,25.6z"/>
			</g>
			<g>
				<path class="st1" d="M23.2,27.8c-1.5,0-2.8-1.2-2.8-2.8c0-1.5,1.2-2.8,2.8-2.8S26,23.5,26,25C26,26.6,24.7,27.8,23.2,27.8z"/>
				<path class="st1" d="M23.2,23.3c1,0,1.8,0.8,1.8,1.8c0,1-0.8,1.8-1.8,1.8c-1,0-1.8-0.8-1.8-1.8C21.4,24.1,22.2,23.3,23.2,23.3
					 M23.2,21.3c-2.1,0-3.8,1.7-3.8,3.8c0,2.1,1.7,3.8,3.8,3.8c2.1,0,3.8-1.7,3.8-3.8C27,23,25.3,21.3,23.2,21.3L23.2,21.3z"/>
			</g>
			<g>
				<path class="st1" d="M17.7,25c-2.2,0-3.9-1.5-3.9-3.4c0-1.9,1.8-3.4,3.9-3.4s3.9,1.5,3.9,3.4C21.6,23.5,19.8,25,17.7,25z"/>
				<path class="st1" d="M17.7,19.2c1.6,0,2.9,1.1,2.9,2.4S19.3,24,17.7,24c-1.6,0-2.9-1.1-2.9-2.4S16,19.2,17.7,19.2 M17.7,17.2
					c-2.7,0-4.9,2-4.9,4.4s2.2,4.4,4.9,4.4c2.7,0,4.9-2,4.9-4.4S20.4,17.2,17.7,17.2L17.7,17.2z"/>
			</g>
			<g>
				<g>
					<g>
						<path class="st1" d="M15.1,14.2c-0.8,0-1.5-0.7-1.5-1.5s0.7-1.5,1.5-1.5c0.1,0,0.2-0.1,0.2-0.2c0-1.1-0.9-2-2-2
							c-0.8,0-1.5-0.7-1.5-1.5s0.7-1.5,1.5-1.5c2.7,0,4.9,2.2,4.9,4.9C18.2,12.8,16.8,14.2,15.1,14.2z"/>
						<path class="st1" d="M13.3,7.3c2.1,0,3.9,1.7,3.9,3.9c0,1.2-0.9,2.1-2.1,2.1c-0.3,0-0.5-0.2-0.5-0.5c0-0.3,0.2-0.5,0.5-0.5
							c0.6,0,1.2-0.5,1.2-1.2c0-1.6-1.3-3-3-3c-0.3,0-0.5-0.2-0.5-0.5C12.9,7.5,13.1,7.3,13.3,7.3 M13.3,5.3c-1.4,0-2.5,1.1-2.5,2.5
							c0,1.4,1.1,2.5,2.5,2.5c0.3,0,0.6,0.1,0.7,0.4c-0.8,0.4-1.4,1.2-1.4,2.2c0,1.4,1.1,2.5,2.5,2.5c2.3,0,4.1-1.8,4.1-4.1
							C19.2,7.9,16.6,5.3,13.3,5.3L13.3,5.3z"/>
					</g>
				</g>
				<g>
					<g>
						<path class="st1" d="M20.2,14.2c-1.7,0-3.1-1.4-3.1-3.1c0-2.7,2.2-4.9,4.9-4.9c0.8,0,1.5,0.7,1.5,1.5S22.8,9.2,22,9.2
							c-1.1,0-2,0.9-2,2c0,0.1,0.1,0.2,0.2,0.2c0.8,0,1.5,0.7,1.5,1.5S21,14.2,20.2,14.2z"/>
						<path class="st1" d="M22,7.3c0.3,0,0.5,0.2,0.5,0.5c0,0.3-0.2,0.5-0.5,0.5c-1.6,0-3,1.3-3,3c0,0.6,0.5,1.2,1.2,1.2
							c0.3,0,0.5,0.2,0.5,0.5c0,0.3-0.2,0.5-0.5,0.5c-1.2,0-2.1-0.9-2.1-2.1C18.1,9,19.8,7.3,22,7.3 M22,5.3c-3.2,0-5.9,2.6-5.9,5.9
							c0,2.3,1.8,4.1,4.1,4.1c1.4,0,2.5-1.1,2.5-2.5c0-1-0.6-1.8-1.4-2.2c0.2-0.2,0.4-0.4,0.7-0.4c1.4,0,2.5-1.1,2.5-2.5
							C24.4,6.4,23.3,5.3,22,5.3L22,5.3z"/>
					</g>
				</g>
			</g>
			<g>
				<path class="st1" d="M17.7,19.5c-2.8,0-5.6-1.3-7.5-3.6c-0.6-0.7-0.6-1.7,0-2.3c0.9-1,1.9-1.9,3.1-2.5c0.6-1.4,2.4-2.4,4.4-2.4
					c2.1,0,3.8,1,4.4,2.4c1.2,0.6,2.2,1.4,3.1,2.5c0.6,0.7,0.6,1.7,0,2.3C23.2,18.2,20.5,19.5,17.7,19.5z"/>
				<path class="st1" d="M17.7,9.7c1.8,0,3.4,0.9,3.6,2.2c1.2,0.6,2.3,1.4,3.2,2.4c0.3,0.3,0.3,0.7,0,1c-1.7,2-4.1,3.2-6.8,3.2
					s-5.1-1.2-6.8-3.2c-0.3-0.3-0.3-0.7,0-1c0.9-1,2-1.8,3.2-2.4C14.3,10.6,15.8,9.7,17.7,9.7 M17.7,7.7c-2.3,0-4.3,1.1-5.2,2.7
					c-1.2,0.6-2.2,1.5-3.1,2.5c-0.9,1.1-0.9,2.6,0,3.6c2.1,2.5,5.2,3.9,8.3,3.9c3.1,0,6.2-1.4,8.3-3.9c0.9-1.1,0.9-2.6,0-3.6
					c-0.9-1-1.9-1.9-3.1-2.5C22,8.8,20,7.7,17.7,7.7L17.7,7.7z"/>
			</g>
			<g>
				<path class="st1" d="M11,16.8c-0.3-0.3-0.6-0.6-0.8-0.9c-0.6-0.7-0.6-1.7,0-2.3c0.9-1,1.9-1.9,3.1-2.5c0.6-1.4,2.4-2.4,4.4-2.4
					c1.7,0,3.2,0.7,4,1.8l4.5,6l-5.9-4.6c-0.5-0.4-1.3-0.6-2.1-0.6c-1.4,0-2.5,0.7-2.6,1.4l-0.1,0.5L15,13.3c-1,0.5-1.9,1.1-2.7,2
					c0,0,0.1,0.1,0.1,0.1L11,16.8z"/>
				<path class="st1" d="M17.7,9.7c1.4,0,2.6,0.6,3.2,1.4c-0.7-0.5-1.6-0.9-2.7-0.9c-1.8,0-3.4,0.9-3.6,2.2
					c-1.2,0.6-2.3,1.4-3.2,2.4c-0.3,0.3-0.3,0.7,0,1c0.1,0.1,0.2,0.2,0.2,0.3c-0.3-0.2-0.5-0.5-0.8-0.8c-0.3-0.3-0.3-0.7,0-1
					c0.9-1,2-1.8,3.2-2.4C14.3,10.6,15.8,9.7,17.7,9.7 M17.7,7.7c-2.3,0-4.3,1.1-5.2,2.7c-1.2,0.6-2.2,1.5-3.1,2.5
					c-0.9,1.1-0.9,2.6,0,3.6c0.3,0.3,0.6,0.6,0.9,0.9l2.8-2.8c0.2,0.4,0.2,1-0.2,1.3c0.7-0.8,1.5-1.5,2.5-1.9l0.9-0.4l0.2-1
					c0.1-0.2,0.7-0.6,1.7-0.6c0.6,0,1.2,0.2,1.5,0.4L31.6,22L22.5,9.9C21.5,8.5,19.7,7.7,17.7,7.7L17.7,7.7z"/>
			</g>
			<g>
				<g>
					<path class="st1" d="M14.9,16.1c-0.6,0-1.1-0.2-1.5-0.7c-0.8-0.9-0.6-2.3,0.5-3.3c0.5-0.5,1.2-0.7,1.8-0.7
						c0.6,0,1.1,0.2,1.5,0.7c0.8,0.9,0.6,2.3-0.5,3.3C16.1,15.8,15.5,16.1,14.9,16.1z"/>
					<path class="st1" d="M15.7,12.4c0.3,0,0.6,0.1,0.8,0.3c0.4,0.5,0.2,1.3-0.4,1.9c-0.4,0.3-0.8,0.5-1.1,0.5
						c-0.3,0-0.6-0.1-0.8-0.3c-0.4-0.5-0.2-1.3,0.4-1.9C14.9,12.6,15.3,12.4,15.7,12.4 M15.7,10.4L15.7,10.4c-0.9,0-1.7,0.3-2.5,1
						c-0.6,0.5-1.1,1.3-1.2,2c-0.2,1,0,1.9,0.6,2.6c0.6,0.6,1.4,1,2.3,1c0.9,0,1.7-0.3,2.5-1c1.5-1.3,1.8-3.4,0.6-4.7
						C17.4,10.8,16.6,10.4,15.7,10.4L15.7,10.4z"/>
				</g>
				<g>
					<path class="st1" d="M20.4,16.1c-0.6,0-1.3-0.3-1.8-0.7c-0.5-0.4-0.8-0.9-0.9-1.5c-0.1-0.7,0-1.3,0.4-1.8
						c0.4-0.4,0.9-0.7,1.5-0.7c0.6,0,1.3,0.3,1.8,0.7c0.5,0.4,0.8,0.9,0.9,1.5c0.1,0.7,0,1.3-0.4,1.8C21.6,15.8,21,16.1,20.4,16.1
						L20.4,16.1z"/>
					<path class="st1" d="M19.6,12.4c0.4,0,0.8,0.2,1.1,0.5c0.6,0.6,0.8,1.4,0.4,1.9c-0.2,0.2-0.5,0.3-0.8,0.3
						c-0.4,0-0.8-0.2-1.1-0.5c-0.6-0.6-0.8-1.4-0.4-1.9C19.1,12.6,19.3,12.4,19.6,12.4 M19.6,10.4c-0.9,0-1.7,0.4-2.3,1
						c-0.6,0.7-0.8,1.7-0.6,2.6c0.2,0.8,0.6,1.5,1.2,2c0.7,0.6,1.6,1,2.5,1c0.9,0,1.7-0.4,2.3-1c0.6-0.7,0.8-1.7,0.6-2.6
						c-0.2-0.8-0.6-1.5-1.2-2C21.4,10.8,20.5,10.4,19.6,10.4L19.6,10.4z"/>
				</g>
			</g>
		</g>
	</g>
	<g>
		<g>
			<path class="st2" d="M27.6,31.2c-0.2,0-0.4-0.2-0.4-0.4c0-3.2-4.2-5.8-9.4-5.8c-5.2,0-9.4,2.6-9.4,5.8c0,0.2-0.2,0.4-0.4,0.4
				c-0.2,0-0.4-0.2-0.4-0.4c0-3.6,4.6-6.6,10.2-6.6c5.6,0,10.2,2.9,10.2,6.6C28,31,27.8,31.2,27.6,31.2z"/>
		</g>
		<g>
			<path class="st2" d="M17.8,21C12.2,21,7.6,18,7.6,14.4C7.6,14.2,7.8,14,8,14c0.2,0,0.4,0.2,0.4,0.4c0,3.2,4.2,5.8,9.4,5.8
				c5.2,0,9.4-2.6,9.4-5.8c0-0.2,0.2-0.4,0.4-0.4c0.2,0,0.4,0.2,0.4,0.4C28,18,23.4,21,17.8,21z"/>
		</g>
		<g>
			<path class="st2" d="M30.2,22.8H5.4c-0.2,0-0.4-0.2-0.4-0.4C5,22.2,5.2,22,5.4,22h24.8c0.2,0,0.4,0.2,0.4,0.4
				C30.6,22.6,30.4,22.8,30.2,22.8z"/>
		</g>
		<g>
			<path class="st3" d="M27,22.6c0,5.4-3.8,9.8-8.7,10.2c-0.1,0-0.2,0-0.2,0c-0.1,0-0.3,0-0.4,0c-0.1,0-0.3,0-0.4,0
				c-5-0.2-8.9-4.7-8.9-10.2c0-5.6,4.2-10.2,9.3-10.2c0.2,0,0.4,0,0.6,0C23.1,12.7,27,17.2,27,22.6z"/>
			<path class="st4" d="M27,22.6c0,5.4-3.8,9.8-8.7,10.2c-0.2,0-0.4,0-0.6-0.1c-4.5-0.7-8-4.9-8-10.1c0-5.2,3.5-9.4,8-10.1
				c0.2,0,0.4-0.1,0.6-0.1C23.1,12.7,27,17.2,27,22.6z"/>
			<path class="st2" d="M12.6,19.5c0,0.6-0.5,1-1,1c-0.6,0-1-0.5-1-1c0-0.6,0.5-1,1-1C12.1,18.5,12.6,19,12.6,19.5z"/>
			<path class="st2" d="M16.7,28.7c0,0.6-0.5,1-1,1c-0.6,0-1-0.5-1-1c0-0.6,0.5-1,1-1C16.3,27.6,16.7,28.1,16.7,28.7z"/>
			<path class="st2" d="M13.9,25c0,1-0.8,1.8-1.8,1.8c-1,0-1.8-0.8-1.8-1.8c0-1,0.8-1.8,1.8-1.8C13.1,23.3,13.9,24.1,13.9,25z"/>
			<path class="st5" d="M27,22.6c0,5.4-3.8,9.8-8.7,10.2c-0.2,0-0.4,0-0.6-0.1c0-5.5,0-17.3,0-20.2c0.2,0,0.4-0.1,0.6-0.1
				C23.1,12.7,27,17.2,27,22.6z"/>
			<path class="st2" d="M22.7,19.5c0,0.6,0.5,1,1,1s1-0.5,1-1c0-0.6-0.5-1-1-1S22.7,19,22.7,19.5z"/>
			<path class="st2" d="M18.6,28.7c0,0.6,0.5,1,1,1c0.6,0,1-0.5,1-1c0-0.6-0.5-1-1-1C19,27.6,18.6,28.1,18.6,28.7z"/>
			<path class="st2" d="M21.4,25c0,1,0.8,1.8,1.8,1.8c1,0,1.8-0.8,1.8-1.8c0-1-0.8-1.8-1.8-1.8C22.2,23.3,21.4,24.1,21.4,25z"/>
			<path class="st2" d="M20.6,21.6c0,1.3-1.3,2.4-2.9,2.4c-1.6,0-2.9-1.1-2.9-2.4c0-1.3,1.3-2.4,2.9-2.4
				C19.3,19.2,20.6,20.3,20.6,21.6z"/>
			<g>
				<g>
					<path class="st2" d="M15.1,13.2c-0.3,0-0.5-0.2-0.5-0.5s0.2-0.5,0.5-0.5c0.6,0,1.2-0.5,1.2-1.2c0-1.6-1.3-3-3-3
						c-0.3,0-0.5-0.2-0.5-0.5s0.2-0.5,0.5-0.5c2.1,0,3.9,1.7,3.9,3.9C17.2,12.3,16.3,13.2,15.1,13.2z"/>
				</g>
				<g>
					<path class="st2" d="M20.2,13.2c-1.2,0-2.1-0.9-2.1-2.1c0-2.1,1.7-3.9,3.9-3.9c0.3,0,0.5,0.2,0.5,0.5S22.2,8.2,22,8.2
						c-1.6,0-3,1.3-3,3c0,0.6,0.5,1.2,1.2,1.2c0.3,0,0.5,0.2,0.5,0.5S20.4,13.2,20.2,13.2z"/>
				</g>
			</g>
			<path class="st2" d="M24.4,14.3c-0.9-1-2-1.8-3.2-2.4c-0.3-1.2-1.8-2.2-3.6-2.2c-1.8,0-3.4,0.9-3.6,2.2c-1.2,0.6-2.3,1.4-3.2,2.4
				c-0.3,0.3-0.3,0.7,0,1c1.7,2,4.1,3.2,6.8,3.2s5.1-1.2,6.8-3.2C24.7,15,24.7,14.6,24.4,14.3z"/>
			<path class="st6" d="M20.9,11.1c-0.7-0.5-1.6-0.9-2.7-0.9c-1.8,0-3.4,0.9-3.6,2.2c-1.2,0.6-2.3,1.4-3.2,2.4c-0.3,0.3-0.3,0.7,0,1
				c0.1,0.1,0.2,0.2,0.2,0.3c-0.3-0.2-0.5-0.5-0.8-0.8c-0.3-0.3-0.3-0.7,0-1c0.9-1,2-1.8,3.2-2.4c0.3-1.2,1.8-2.2,3.6-2.2
				C19.1,9.7,20.3,10.3,20.9,11.1z"/>
			<g>
				<path class="st7" d="M16.4,12.8c0.4,0.5,0.2,1.3-0.4,1.9c-0.6,0.6-1.5,0.6-1.9,0.1c-0.4-0.5-0.2-1.3,0.4-1.9
					C15.2,12.4,16,12.3,16.4,12.8z"/>
				<path class="st7" d="M18.9,12.8c-0.4,0.5-0.2,1.3,0.4,1.9c0.6,0.6,1.5,0.6,1.9,0.1c0.4-0.5,0.2-1.3-0.4-1.9
					C20.1,12.4,19.3,12.3,18.9,12.8z"/>
			</g>
		</g>
	</g>
</g>
<g>
	<g>
		<g>
			<g>
				<path class="st1" d="M113.1,35c-0.9,0-1.6-0.7-1.6-1.6v-2.6c0-0.9,0.7-1.6,1.6-1.6c0.9,0,1.6,0.7,1.6,1.6v2.6
					C114.7,34.3,114,35,113.1,35z"/>
				<path class="st1" d="M113.1,30.2c0.3,0,0.6,0.3,0.6,0.6v2.6c0,0.3-0.3,0.6-0.6,0.6c-0.3,0-0.6-0.3-0.6-0.6v-2.6
					C112.4,30.4,112.7,30.2,113.1,30.2 M113.1,28.2c-1.4,0-2.6,1.2-2.6,2.6v2.6c0,1.4,1.2,2.6,2.6,2.6c1.4,0,2.6-1.2,2.6-2.6v-2.6
					C115.7,29.3,114.5,28.2,113.1,28.2L113.1,28.2z"/>
			</g>
			<g>
				<path class="st1" d="M111.4,35c-0.9,0-1.6-0.7-1.6-1.6s0.7-1.6,1.6-1.6h1.6c0.9,0,1.6,0.7,1.6,1.6S114,35,113.1,35H111.4z"/>
				<path class="st1" d="M113.1,32.8c0.3,0,0.6,0.3,0.6,0.6c0,0.3-0.3,0.6-0.6,0.6h-1.6c-0.3,0-0.6-0.3-0.6-0.6
					c0-0.3,0.3-0.6,0.6-0.6H113.1 M113.1,30.8h-1.6c-1.4,0-2.6,1.2-2.6,2.6s1.2,2.6,2.6,2.6h1.6c1.4,0,2.6-1.2,2.6-2.6
					S114.5,30.8,113.1,30.8L113.1,30.8z"/>
			</g>
		</g>
		<g>
			<g>
				<path class="st1" d="M122.6,35c-0.9,0-1.6-0.7-1.6-1.6v-2.6c0-0.9,0.7-1.6,1.6-1.6c0.9,0,1.6,0.7,1.6,1.6v2.6
					C124.3,34.3,123.5,35,122.6,35z"/>
				<path class="st1" d="M122.6,30.2c0.3,0,0.6,0.3,0.6,0.6v2.6c0,0.3-0.3,0.6-0.6,0.6c-0.3,0-0.6-0.3-0.6-0.6v-2.6
					C122,30.4,122.3,30.2,122.6,30.2 M122.6,28.2c-1.4,0-2.6,1.2-2.6,2.6v2.6c0,1.4,1.2,2.6,2.6,2.6c1.4,0,2.6-1.2,2.6-2.6v-2.6
					C125.3,29.3,124.1,28.2,122.6,28.2L122.6,28.2z"/>
			</g>
			<g>
				<path class="st1" d="M121,35c-0.9,0-1.6-0.7-1.6-1.6s0.7-1.6,1.6-1.6h1.6c0.9,0,1.6,0.7,1.6,1.6s-0.7,1.6-1.6,1.6H121z"/>
				<path class="st1" d="M122.6,32.8c0.3,0,0.6,0.3,0.6,0.6c0,0.3-0.3,0.6-0.6,0.6H121c-0.3,0-0.6-0.3-0.6-0.6
					c0-0.3,0.3-0.6,0.6-0.6H122.6 M122.6,30.8H121c-1.4,0-2.6,1.2-2.6,2.6s1.2,2.6,2.6,2.6h1.6c1.4,0,2.6-1.2,2.6-2.6
					S124.1,30.8,122.6,30.8L122.6,30.8z"/>
			</g>
		</g>
		<g>
			<g>
				<path class="st1" d="M115,35c-0.9,0-1.6-0.7-1.6-1.6v-2.6c0-0.9,0.7-1.6,1.6-1.6c0.9,0,1.6,0.7,1.6,1.6v2.6
					C116.6,34.3,115.9,35,115,35z"/>
				<path class="st1" d="M115,30.2c0.3,0,0.6,0.3,0.6,0.6v2.6c0,0.3-0.3,0.6-0.6,0.6c-0.3,0-0.6-0.3-0.6-0.6v-2.6
					C114.4,30.4,114.7,30.2,115,30.2 M115,28.2c-1.4,0-2.6,1.2-2.6,2.6v2.6c0,1.4,1.2,2.6,2.6,2.6c1.4,0,2.6-1.2,2.6-2.6v-2.6
					C117.6,29.3,116.5,28.2,115,28.2L115,28.2z"/>
			</g>
			<g>
				<path class="st1" d="M113.4,35c-0.9,0-1.6-0.7-1.6-1.6s0.7-1.6,1.6-1.6h1.6c0.9,0,1.6,0.7,1.6,1.6S115.9,35,115,35H113.4z"/>
				<path class="st1" d="M115,32.8c0.3,0,0.6,0.3,0.6,0.6c0,0.3-0.3,0.6-0.6,0.6h-1.6c-0.3,0-0.6-0.3-0.6-0.6c0-0.3,0.3-0.6,0.6-0.6
					H115 M115,30.8h-1.6c-1.4,0-2.6,1.2-2.6,2.6s1.2,2.6,2.6,2.6h1.6c1.4,0,2.6-1.2,2.6-2.6S116.5,30.8,115,30.8L115,30.8z"/>
			</g>
		</g>
		<g>
			<g>
				<path class="st1" d="M124.6,35c-0.9,0-1.6-0.7-1.6-1.6v-2.6c0-0.9,0.7-1.6,1.6-1.6c0.9,0,1.6,0.7,1.6,1.6v2.6
					C126.2,34.3,125.5,35,124.6,35z"/>
				<path class="st1" d="M124.6,30.2c0.3,0,0.6,0.3,0.6,0.6v2.6c0,0.3-0.3,0.6-0.6,0.6c-0.3,0-0.6-0.3-0.6-0.6v-2.6
					C124,30.4,124.3,30.2,124.6,30.2 M124.6,28.2c-1.4,0-2.6,1.2-2.6,2.6v2.6c0,1.4,1.2,2.6,2.6,2.6c1.4,0,2.6-1.2,2.6-2.6v-2.6
					C127.2,29.3,126,28.2,124.6,28.2L124.6,28.2z"/>
			</g>
			<g>
				<path class="st1" d="M123,35c-0.9,0-1.6-0.7-1.6-1.6s0.7-1.6,1.6-1.6h1.6c0.9,0,1.6,0.7,1.6,1.6s-0.7,1.6-1.6,1.6H123z"/>
				<path class="st1" d="M124.6,32.8c0.3,0,0.6,0.3,0.6,0.6c0,0.3-0.3,0.6-0.6,0.6H123c-0.3,0-0.6-0.3-0.6-0.6
					c0-0.3,0.3-0.6,0.6-0.6H124.6 M124.6,30.8H123c-1.4,0-2.6,1.2-2.6,2.6s1.2,2.6,2.6,2.6h1.6c1.4,0,2.6-1.2,2.6-2.6
					S126,30.8,124.6,30.8L124.6,30.8z"/>
			</g>
		</g>
		<g>
			<path class="st1" d="M131.5,32.7c-0.2,0-0.4-0.1-0.6-0.2l-3.1-2.2L108.2,23c-0.3-0.1-0.6-0.4-0.6-0.8c0-0.2-0.7-4.7,1.2-8.5
				c0.1-0.3,0.4-0.5,0.7-0.5c0.1,0,0.1,0,0.2,0c0.2,0,0.4,0.1,0.6,0.2l1.1,0.9c0.1-0.3,0.2-0.5,0.3-0.8c0.6-1.5,1.8-3.5,4.4-4.5
				c0.1,0,0.2-0.1,0.4-0.1c0.4,0,0.8,0.2,0.9,0.6l0.5,1c0,0,0.1-0.1,0.1-0.1c1.1-1,2.8-2.2,4.9-2.2c0.4,0,0.8,0,1.2,0.1
				c0.5,0.1,0.8,0.6,0.8,1.1l-0.1,1c0.7-0.3,1.6-0.5,2.6-0.5c1.1,0,2.1,0.3,3,0.8c0.2,0.1,0.4,0.4,0.5,0.6s0,0.5-0.1,0.8l-0.6,1
				c2.4,0.1,4.3,1.3,5.4,3.2c0.1,0.2,0.2,0.5,0.1,0.8c-0.1,0.3-0.3,0.5-0.6,0.6l-1.4,0.6c1.5,1.3,2.9,3.6,2.4,7
				c0,0.3-0.2,0.5-0.4,0.7c-0.2,0.1-0.4,0.2-0.6,0.2c-0.1,0-0.1,0-0.2,0l-0.9-0.2c0.5,2,0.5,4.6-1.8,6.6
				C131.9,32.6,131.7,32.7,131.5,32.7z"/>
			<path class="st1" d="M122.9,9.2c0.3,0,0.6,0,1,0.1l-0.4,2.9c0,0,1.7-1.3,3.9-1.3c0.8,0,1.6,0.2,2.5,0.7l-1.6,2.7
				c0,0,0.6-0.1,1.4-0.1c1.5,0,3.7,0.4,5,2.7l-3.1,1.3c0,0,4.4,1.9,3.5,7l-2.7-0.5c0,0,2.4,4.3-0.8,7.2l-2.8-2l-0.4-0.3l-2.4-0.9
				l-5.8-2.2L108.5,22c0,0-0.6-4.3,1.1-7.9l2.4,1.9c0,0,0.1-1,0.5-2.2c0.5-1.4,1.6-3.1,3.8-3.9l1.1,2.5c0,0,0.4-0.5,1.1-1.2
				C119.6,10.2,121.1,9.2,122.9,9.2 M122.9,7.2c-1.6,0-3.2,0.6-4.7,1.7c-0.4-0.6-1-1-1.7-1c-0.2,0-0.5,0-0.7,0.1
				c-2.2,0.8-3.8,2.4-4.8,4.6l-0.1,0c-0.4-0.3-0.8-0.4-1.2-0.4c-0.1,0-0.3,0-0.4,0c-0.6,0.1-1.1,0.5-1.4,1.1
				c-2.1,4.1-1.4,8.9-1.3,9.1c0.1,0.7,0.6,1.3,1.3,1.6l11.6,4.3l5.8,2.2l2.2,0.8l0.2,0.1l2.8,2c0.3,0.2,0.8,0.4,1.2,0.4
				c0.5,0,1-0.2,1.3-0.5c2-1.8,2.5-4.1,2.3-6.1c0.4,0,0.7-0.1,1.1-0.3c0.4-0.3,0.7-0.8,0.8-1.3c0.5-3-0.4-5.2-1.6-6.8l0,0
				c0.5-0.2,0.9-0.7,1.1-1.2c0.2-0.5,0.1-1.1-0.1-1.6c-1-1.8-2.7-3-4.7-3.5c0.2-0.4,0.2-0.8,0.1-1.3c-0.1-0.5-0.5-1-0.9-1.2
				c-1.1-0.6-2.2-0.9-3.5-0.9c-0.5,0-1,0.1-1.5,0.2c-0.1-0.8-0.7-1.5-1.5-1.7C123.8,7.2,123.4,7.2,122.9,7.2L122.9,7.2z"/>
		</g>
		<g>
			<path class="st1" d="M104.5,32.4c-0.9,0-1.6-0.5-2-1.2c-0.4-0.7-0.4-1.7,0.1-2.4c0.8-1.2,1.6-2.5,2.5-3.8c1-1.4,1.8-2.6,2.6-3.7
				c2.2-2.9,4.1-5.1,5.6-6.6c0.9-0.8,1.7-1.4,2.4-1.8c1.3-0.7,2.6-1.1,4-1.3c0.6-0.1,1.1-0.1,1.7-0.1c0.5,0,1.1,0,1.6,0.1
				c0.9,0.1,1.9,0.4,2.8,0.7c0.6,0.2,1.2,0.5,1.8,0.9c1.8,1.1,3.3,2.6,4.3,4.4l0.2,0.4c0.1,0.2,0.2,0.3,0.3,0.5
				c0.5,1.2,0.9,2.4,0.9,3.6c0,0.8,0,1.7-0.2,2.5c-0.5,2.3-1.9,4.4-3.8,5.8c-0.9,0.7-1.9,1.2-3,1.5c-0.9,0.3-1.9,0.4-2.9,0.4H104.5z
				"/>
			<path class="st1" d="M121.4,12.6c0.5,0,1,0,1.5,0.1c0.9,0.1,1.7,0.3,2.5,0.6c0.6,0.2,1.1,0.5,1.7,0.8c1.6,0.9,3,2.3,4,4
				c0.1,0.1,0.1,0.2,0.2,0.3c0.1,0.2,0.2,0.3,0.2,0.5c0.5,1.1,0.8,2.2,0.8,3.3c0,0.7,0,1.5-0.2,2.2c-0.5,2.1-1.7,4-3.4,5.2
				c-0.8,0.6-1.7,1.1-2.7,1.3c-0.8,0.2-1.7,0.4-2.6,0.4h-18.8c-1,0-1.7-1.2-1.1-2c0.8-1.2,1.6-2.4,2.5-3.7c0.8-1.2,1.7-2.4,2.6-3.6
				c1.9-2.5,3.8-4.9,5.5-6.5c0.8-0.7,1.5-1.3,2.2-1.7c1.2-0.6,2.4-1,3.6-1.2C120.4,12.6,120.9,12.6,121.4,12.6 M121.4,10.6
				c-0.6,0-1.2,0-1.8,0.1c-1.5,0.2-2.9,0.7-4.3,1.4c-0.8,0.4-1.6,1.1-2.6,2c-1.6,1.5-3.5,3.8-5.7,6.7c-0.8,1.1-1.7,2.3-2.6,3.7
				c-0.8,1.1-1.6,2.3-2.5,3.8c-0.7,1-0.7,2.3-0.1,3.4c0.6,1.1,1.7,1.7,2.9,1.7h18.8c1.1,0,2.2-0.2,3.2-0.5c1.2-0.3,2.3-0.9,3.3-1.6
				c2.1-1.6,3.6-3.8,4.2-6.4c0.2-0.9,0.3-1.8,0.2-2.7c-0.1-1.4-0.4-2.7-1-4c-0.1-0.2-0.2-0.4-0.3-0.5l-0.2-0.4
				c-1.1-2-2.8-3.6-4.7-4.8c-0.6-0.4-1.3-0.7-2-1c-1-0.4-2-0.6-3-0.8C122.5,10.6,122,10.6,121.4,10.6L121.4,10.6z"/>
		</g>
		<g>
			<path class="st1" d="M106.7,32.4c-0.3,0-0.6-0.2-0.8-0.4c-0.8-1.1-0.9-2.5-0.3-3.7c0.1-0.2,0.2-0.5,0.2-0.7
				c0-0.5-0.2-0.9-0.5-1.2c-0.4-0.3-0.4-0.9-0.1-1.3c0.9-1.3,1.7-2.4,2.4-3.3c-0.1-1.2-0.3-4.9,1.3-8.1c0.1-0.3,0.4-0.5,0.7-0.5
				c0.1,0,0.1,0,0.2,0c0.2,0,0.4,0.1,0.6,0.2l1.1,0.9c0.1-0.3,0.2-0.5,0.3-0.8c0.6-1.5,1.8-3.5,4.4-4.5c0.1,0,0.2-0.1,0.4-0.1
				c0.4,0,0.8,0.2,0.9,0.6l0.5,1c0,0,0.1-0.1,0.1-0.1c0.2-0.2,0.4-0.3,0.7-0.3c0.1,0,0.1,0,0.2,0c0.3,0.1,0.6,0.3,0.7,0.5
				c0.1,0.1,0.1,0.2,0.1,0.3c0.1,0.4,0.4,0.7,0.7,0.8c0.3,0.2,0.6,0.3,0.9,0.3c0.2,0,0.5-0.1,0.7-0.2c0.2-0.1,0.4-0.2,0.6-0.2
				c0,0,0.1,0,0.1,0l0.7-0.1c0.1,0,0.1,0,0.2,0c1,0,1.9,0.4,2.6,1c1.2,1.1,1.5,2.8,0.8,4.2c-0.1,0.2-0.2,0.5-0.2,0.7
				c0,0.7,0.4,1.3,1.1,1.6c1.4,0.5,2.3,1.7,2.4,3.2c0,0.1,0,0.2,0,0.3c0,1.6-1,2.9-2.4,3.5c-0.7,0.2-1.1,0.9-1.1,1.6
				c0,0.2,0,0.4,0.1,0.6c0,0.1,0,0.1,0.1,0.2c0.2,0.5,0.4,1,0.4,1.6c0,0.6-0.1,1.1-0.4,1.6c-0.1,0.2-0.3,0.4-0.6,0.5
				c-0.9,0.3-1.9,0.4-2.9,0.4H106.7z"/>
			<path class="st1" d="M116.5,9.8l1.1,2.5c0,0,0.4-0.5,1.1-1.2c0,0.1,0.1,0.2,0.1,0.2c0.2,0.6,0.6,1.1,1.1,1.4
				c0.4,0.3,0.9,0.4,1.4,0.4c0.4,0,0.8-0.1,1.1-0.3c0.1-0.1,0.3-0.1,0.4-0.2c0,0,0.7-0.1,0.7-0.1h0c0.7,0,1.3,0.3,1.8,0.7
				c0.8,0.7,1.1,1.9,0.6,3.1c-0.2,0.4-0.3,0.8-0.3,1.1c0,1.1,0.7,2.1,1.8,2.5c1.1,0.4,1.7,1.3,1.8,2.3c0,0.1,0,0.1,0,0.2
				c0,1-0.6,2.1-1.8,2.5c-1.1,0.4-1.8,1.4-1.8,2.5c0,0.3,0.1,0.6,0.2,0.9c0,0.1,0.1,0.1,0.1,0.2c0.2,0.4,0.3,0.8,0.3,1.2
				c0,0.4-0.1,0.8-0.3,1.1c-0.8,0.2-1.7,0.4-2.6,0.4h-16.6c-0.5-0.7-0.7-1.7-0.2-2.7c0.2-0.4,0.3-0.8,0.3-1.1c0-0.7-0.3-1.4-0.8-1.9
				c0.8-1.2,1.7-2.4,2.6-3.6c0,0-0.6-4.3,1.1-7.9l2.4,1.9c0,0,0.1-1,0.5-2.2C113.2,12.4,114.3,10.7,116.5,9.8 M116.5,7.8
				c-0.2,0-0.5,0-0.7,0.1c-2.2,0.8-3.8,2.4-4.8,4.6l-0.1,0c-0.4-0.3-0.8-0.4-1.2-0.4c-0.1,0-0.3,0-0.4,0c-0.6,0.1-1.1,0.5-1.4,1.1
				c-1.6,3.1-1.5,6.7-1.4,8.3c-0.7,0.9-1.4,1.9-2.2,3.1c-0.6,0.8-0.4,1.9,0.3,2.6c0.1,0.1,0.2,0.3,0.2,0.5c0,0.1,0,0.2-0.1,0.3
				c-0.7,1.5-0.6,3.3,0.4,4.7c0.4,0.5,1,0.8,1.6,0.8h16.6c1.1,0,2.2-0.2,3.2-0.5c0.5-0.2,1-0.5,1.2-1c0.3-0.6,0.5-1.3,0.5-2
				c0-0.7-0.2-1.4-0.5-2c0,0,0,0,0-0.1c0-0.1,0-0.1,0-0.2c0-0.2,0.1-0.5,0.4-0.6c1.9-0.7,3.1-2.4,3.1-4.4c0-0.1,0-0.2,0-0.3
				c-0.1-1.9-1.3-3.5-3.1-4.1c-0.3-0.1-0.4-0.4-0.4-0.6c0-0.1,0-0.2,0.1-0.3c0.9-1.8,0.5-4-1-5.4c-0.9-0.8-2-1.3-3.2-1.3
				c-0.1,0-0.3,0-0.4,0l-0.7,0.1c-0.1,0-0.2,0-0.3,0.1c-0.3,0.1-0.5,0.2-0.8,0.3c-0.1,0-0.2,0.1-0.3,0.1c-0.1,0-0.3,0-0.4-0.1
				c-0.1-0.1-0.2-0.2-0.3-0.3c-0.1-0.2-0.1-0.3-0.2-0.4c-0.3-0.6-0.8-1-1.4-1.1c-0.1,0-0.3,0-0.4,0c-0.1,0-0.2,0-0.3,0l0-0.1
				C118,8.3,117.3,7.8,116.5,7.8L116.5,7.8z"/>
		</g>
		<g>
			<path class="st1" d="M104.5,32.4c-0.9,0-1.6-0.5-2-1.2c-0.4-0.7-0.4-1.7,0.1-2.4c0.8-1.2,1.6-2.5,2.5-3.8
				c0.9-1.3,1.7-2.4,2.4-3.3c-0.1-1.2-0.3-4.9,1.3-8.1c0.1-0.3,0.4-0.5,0.7-0.5c0.1,0,0.1,0,0.2,0c0.2,0,0.4,0.1,0.6,0.2l1.1,0.9
				c0.1-0.3,0.2-0.5,0.3-0.8c0.1-0.4,0.5-0.6,0.8-0.6c0,0,0.1,0,0.1,0c0.3,0,0.7,0.2,0.8,0.5c0.1,0.2,0.2,0.4,0.3,0.7
				c0.1,0.3,0.4,0.6,0.7,0.7c0.2,0.1,0.4,0.1,0.6,0.1c0.2,0,0.4,0,0.6-0.1c0.5-0.2,0.9-0.3,1.4-0.3c1.1,0,2.2,0.6,2.8,1.6
				c0.6,1,0.7,2.1,0.2,3.2c-0.1,0.2-0.1,0.4-0.1,0.6c0,0.6,0.4,1.1,0.9,1.2c1.3,0.5,2.2,1.7,2.2,3.1c0,1.4-0.9,2.6-2.2,3.1
				c-0.1,0-0.2,0.1-0.2,0.1c-0.4,0.2-0.7,0.7-0.7,1.1c0,0.2,0,0.4,0.1,0.6c0.2,0.5,0.3,0.9,0.3,1.4c0,0.5-0.1,1-0.4,1.5
				c-0.2,0.3-0.5,0.5-0.9,0.5H104.5z"/>
			<path class="st1" d="M112.6,13.8c0.1,0.1,0.2,0.3,0.2,0.5c0.2,0.6,0.6,1.1,1.2,1.3c0.3,0.2,0.7,0.2,1,0.2c0.3,0,0.7-0.1,1-0.2
				c0.3-0.2,0.7-0.2,1-0.2c1.6,0,2.9,1.7,2.1,3.3c-0.2,0.3-0.2,0.7-0.2,1c0,0.9,0.6,1.8,1.5,2.2c1,0.4,1.5,1.3,1.5,2.2
				c0,0.9-0.5,1.8-1.5,2.2c-0.1,0-0.3,0.1-0.4,0.2c-0.7,0.4-1.2,1.2-1.2,2c0,0.3,0.1,0.7,0.2,1c0.2,0.3,0.2,0.7,0.2,1
				c0,0.4-0.1,0.7-0.3,1h-14.6c-1,0-1.7-1.2-1.1-2c0.8-1.2,1.6-2.4,2.5-3.7c0.8-1.2,1.7-2.4,2.6-3.6c0,0-0.6-4.3,1.1-7.9l2.4,1.9
				C112.1,16,112.2,15,112.6,13.8 M112.6,11.8c-0.1,0-0.1,0-0.2,0c-0.6,0.1-1.1,0.4-1.4,0.8l-0.1-0.1c-0.4-0.3-0.8-0.4-1.2-0.4
				c-0.1,0-0.3,0-0.4,0c-0.6,0.1-1.1,0.5-1.4,1.1c-1.6,3.1-1.5,6.7-1.4,8.3c-0.7,0.9-1.4,1.9-2.2,3.1c-0.8,1.1-1.6,2.3-2.5,3.8
				c-0.7,1-0.7,2.3-0.1,3.4c0.6,1.1,1.7,1.7,2.9,1.7h14.6c0.7,0,1.4-0.4,1.8-1.1c0.3-0.6,0.5-1.3,0.5-2c0-0.6-0.1-1.3-0.4-1.9
				c0,0,0-0.1,0-0.1c0-0.1,0.1-0.2,0.2-0.3c0,0,0,0,0,0c0,0,0,0,0.1,0c1.7-0.6,2.9-2.2,2.9-4.1c0-1.8-1.1-3.4-2.9-4.1
				c-0.2-0.1-0.2-0.2-0.2-0.3c0,0,0-0.1,0-0.1c0.6-1.3,0.5-2.9-0.2-4.1c-0.8-1.3-2.2-2-3.7-2c-0.6,0-1.3,0.1-1.9,0.4
				c0,0-0.1,0-0.1,0c0,0-0.1,0-0.1,0c-0.1,0-0.1-0.1-0.2-0.2c-0.1-0.3-0.3-0.6-0.4-0.9C114,12.1,113.3,11.8,112.6,11.8L112.6,11.8z"
				/>
		</g>
		<g>
			<path class="st1" d="M104.5,32.4c-0.5,0-1-0.2-1.4-0.5c-0.9-0.7-1.2-2.1-0.5-3.1l0.5-0.8c1.6-2.5,3.2-4.7,4.6-6.6
				c0.2-0.3,0.5-0.4,0.8-0.4c0.2,0,0.3,0,0.5,0.1c3,1.7,4.9,4.9,4.9,8.4c0,0.7-0.1,1.4-0.2,2.1c-0.1,0.5-0.5,0.8-1,0.8H104.5z"/>
			<path class="st1" d="M108.5,22c2.6,1.5,4.4,4.3,4.4,7.5c0,0.6-0.1,1.3-0.2,1.9h-8.2c-0.3,0-0.6-0.1-0.8-0.3
				c-0.5-0.4-0.7-1.1-0.3-1.7c0.2-0.3,0.4-0.5,0.5-0.8C105.3,26.5,106.9,24.2,108.5,22 M108.5,20c-0.6,0-1.2,0.3-1.6,0.8
				c-1.4,1.9-3,4.2-4.6,6.6l-0.3,0.4l-0.3,0.4c-0.9,1.4-0.6,3.3,0.7,4.4c0.6,0.5,1.3,0.7,2.1,0.7h8.2c0.9,0,1.7-0.6,2-1.6
				c0.2-0.7,0.3-1.5,0.3-2.3c0-3.8-2.1-7.4-5.4-9.3C109.2,20.1,108.9,20,108.5,20L108.5,20z"/>
		</g>
		<g>
			<path class="st1" d="M105.1,32.6c-0.8,0-1.5-0.2-2-0.7c-0.5-0.4-0.8-1-0.8-1.5c0-1.2,1.2-2.2,2.8-2.2s2.8,1,2.8,2.2
				S106.7,32.6,105.1,32.6z"/>
			<path class="st1" d="M105.1,29.2c1,0,1.8,0.5,1.8,1.2c0,0.7-0.8,1.2-1.8,1.2c-0.6,0-1.1-0.2-1.4-0.4c-0.3-0.2-0.4-0.5-0.4-0.8
				C103.3,29.7,104.1,29.2,105.1,29.2 M105.1,27.2c-2.1,0-3.8,1.4-3.8,3.2c0,0.9,0.4,1.7,1.2,2.3c0.7,0.6,1.7,0.9,2.7,0.9
				c2.1,0,3.8-1.4,3.8-3.2C108.9,28.6,107.3,27.2,105.1,27.2L105.1,27.2z"/>
		</g>
		<g>
			<circle class="st1" cx="108.4" cy="26.9" r="1.9"/>
			<path class="st1" d="M108.4,26c0.5,0,0.9,0.4,0.9,0.9c0,0.5-0.4,0.9-0.9,0.9c-0.5,0-0.9-0.4-0.9-0.9
				C107.5,26.4,107.9,26,108.4,26 M108.4,24c-1.6,0-2.9,1.3-2.9,2.9c0,1.6,1.3,2.9,2.9,2.9c1.6,0,2.9-1.3,2.9-2.9
				C111.3,25.3,110,24,108.4,24L108.4,24z"/>
		</g>
		<g>
			<path class="st1" d="M103.8,32.1c-0.1,0-0.2,0-0.3,0c-0.1,0-0.3-0.1-0.4-0.2c-0.9-0.7-1.2-2.1-0.5-3.1l0.5-0.8
				c0.2-0.3,0.5-0.5,0.8-0.5c0.1,0,0.1,0,0.2,0c1.1,0.2,1.9,1.1,1.9,2.3C106,31.1,105,32.1,103.8,32.1z"/>
			<path class="st1" d="M104,28.6c0.6,0.1,1.1,0.6,1.1,1.3c0,0.7-0.6,1.3-1.3,1.3c0,0,0,0,0,0c-0.5-0.4-0.7-1.1-0.3-1.7
				C103.6,29.1,103.8,28.9,104,28.6 M104,26.6c-0.7,0-1.3,0.3-1.7,0.9l-0.3,0.4l-0.3,0.4c-0.9,1.4-0.6,3.3,0.7,4.4
				c0.2,0.2,0.5,0.3,0.8,0.4c0.2,0,0.4,0.1,0.5,0.1c1.8,0,3.3-1.5,3.3-3.3c0-1.6-1.2-3-2.8-3.2C104.2,26.6,104.1,26.6,104,26.6
				L104,26.6z"/>
		</g>
		<g>
			<path class="st1" d="M110.9,27.4c-0.7,0-1.3-0.3-1.8-0.9c-0.8-1-0.6-2.4,0.4-3.2l0.7-0.5c0.4-0.3,0.9-0.5,1.4-0.5
				c0.7,0,1.3,0.3,1.8,0.8c0.8,1,0.6,2.4-0.4,3.2l-0.7,0.5C111.9,27.2,111.4,27.4,110.9,27.4z"/>
			<path class="st1" d="M111.6,23.3c0.4,0,0.7,0.2,1,0.5c0.4,0.5,0.3,1.3-0.2,1.8l-0.7,0.5c-0.2,0.2-0.5,0.3-0.8,0.3
				c-0.4,0-0.7-0.2-1-0.5c-0.4-0.5-0.3-1.3,0.2-1.8l0.7-0.5C111.1,23.4,111.3,23.3,111.6,23.3 M111.6,21.3
				C111.6,21.3,111.6,21.3,111.6,21.3c-0.7,0-1.4,0.3-2,0.7l-0.7,0.5c-1.4,1.1-1.6,3.2-0.5,4.6c0.6,0.8,1.6,1.2,2.6,1.2
				c0.7,0,1.4-0.3,2-0.7l0.7-0.5c0.7-0.5,1.1-1.3,1.2-2.2c0.1-0.9-0.1-1.7-0.7-2.4C113.5,21.8,112.6,21.3,111.6,21.3L111.6,21.3z"/>
		</g>
		<g>
			<path class="st1" d="M110.9,26.7c-0.5,0-0.9-0.2-1.2-0.6c-0.3-0.3-0.4-0.7-0.3-1.2c0-0.4,0.3-0.8,0.6-1.1l0.7-0.5
				c0.3-0.2,0.6-0.3,1-0.3c0.5,0,0.9,0.2,1.2,0.6c0.3,0.3,0.4,0.7,0.3,1.2c0,0.4-0.3,0.8-0.6,1.1l-0.7,0.5
				C111.6,26.6,111.3,26.7,110.9,26.7z"/>
			<path class="st1" d="M111.6,24c0.2,0,0.3,0.1,0.5,0.2c0.1,0.1,0.1,0.3,0.1,0.4c0,0.2-0.1,0.3-0.2,0.4l-0.7,0.5
				c-0.1,0.1-0.3,0.1-0.4,0.1c-0.2,0-0.3-0.1-0.5-0.2c-0.1-0.1-0.1-0.3-0.1-0.4c0-0.2,0.1-0.3,0.2-0.4l0.7-0.5
				C111.4,24,111.5,24,111.6,24 M111.6,22c-0.6,0-1.2,0.2-1.6,0.6l-0.7,0.5c-0.5,0.4-0.9,1-1,1.7c-0.1,0.7,0.1,1.4,0.5,1.9
				c0.5,0.6,1.2,1,2,1c0.6,0,1.1-0.2,1.6-0.6l0.7-0.5c0.5-0.4,0.9-1,1-1.7c0.1-0.7-0.1-1.4-0.5-1.9C113.1,22.4,112.4,22,111.6,22
				L111.6,22z"/>
		</g>
	</g>
	<g>
		<g>
			<path class="st8" d="M113.7,30.8v2.6c0,0.3-0.3,0.6-0.6,0.6c-0.3,0-0.6-0.3-0.6-0.6v-2.6c0-0.3,0.3-0.6,0.6-0.6
				C113.4,30.2,113.7,30.4,113.7,30.8z"/>
			<path class="st8" d="M113.7,33.4c0,0.3-0.3,0.6-0.6,0.6h-1.6c-0.3,0-0.6-0.3-0.6-0.6c0-0.3,0.3-0.6,0.6-0.6h1.6
				C113.4,32.8,113.7,33.1,113.7,33.4z"/>
		</g>
		<g>
			<path class="st8" d="M123.3,30.8v2.6c0,0.3-0.3,0.6-0.6,0.6c-0.3,0-0.6-0.3-0.6-0.6v-2.6c0-0.3,0.3-0.6,0.6-0.6
				C123,30.2,123.3,30.4,123.3,30.8z"/>
			<path class="st8" d="M123.2,33.4c0,0.3-0.3,0.6-0.6,0.6H121c-0.3,0-0.6-0.3-0.6-0.6c0-0.3,0.3-0.6,0.6-0.6h1.6
				C123,32.8,123.2,33.1,123.2,33.4z"/>
		</g>
		<g>
			<path class="st9" d="M115.6,30.8v2.6c0,0.3-0.3,0.6-0.6,0.6c-0.3,0-0.6-0.3-0.6-0.6v-2.6c0-0.3,0.3-0.6,0.6-0.6
				C115.4,30.2,115.6,30.4,115.6,30.8z"/>
			<path class="st9" d="M115.6,33.4c0,0.3-0.3,0.6-0.6,0.6h-1.6c-0.3,0-0.6-0.3-0.6-0.6c0-0.3,0.3-0.6,0.6-0.6h1.6
				C115.4,32.8,115.6,33.1,115.6,33.4z"/>
		</g>
		<g>
			<path class="st9" d="M125.2,30.8v2.6c0,0.3-0.3,0.6-0.6,0.6c-0.3,0-0.6-0.3-0.6-0.6v-2.6c0-0.3,0.3-0.6,0.6-0.6
				C124.9,30.2,125.2,30.4,125.2,30.8z"/>
			<path class="st9" d="M125.2,33.4c0,0.3-0.3,0.6-0.6,0.6H123c-0.3,0-0.6-0.3-0.6-0.6c0-0.3,0.3-0.6,0.6-0.6h1.6
				C124.9,32.8,125.2,33.1,125.2,33.4z"/>
		</g>
		<path class="st10" d="M135,25.1l-2.7-0.5c0,0,2.4,4.3-0.8,7.2l-2.8-2l-0.4-0.3l-2.4-0.9l-5.8-2.2L108.5,22c0,0-0.6-4.3,1.1-7.9
			l2.4,1.9c0,0,0.1-1,0.5-2.2c0.5-1.4,1.6-3.1,3.8-3.9l1.1,2.5c0,0,0.4-0.5,1.1-1.2c1.1-1,3-2.3,5.2-1.8l-0.4,2.9
			c0,0,3.2-2.5,6.3-0.7l-1.6,2.7c0,0,4.4-1,6.4,2.6l-3.1,1.3C131.6,18.1,135.9,19.9,135,25.1z"/>
		<path class="st10" d="M132.1,24.5c-0.5,2.1-1.7,4-3.4,5.2c-0.8,0.6-1.7,1.1-2.7,1.3c-0.8,0.2-1.7,0.4-2.6,0.4h-18.8
			c-1,0-1.7-1.2-1.1-2c0.8-1.2,1.6-2.4,2.5-3.7c0.8-1.2,1.7-2.4,2.6-3.6c1.9-2.5,3.8-4.9,5.5-6.5c0.8-0.7,1.5-1.3,2.2-1.7
			c1.2-0.6,2.4-1,3.6-1.2c1-0.1,2-0.1,3,0c0.9,0.1,1.7,0.3,2.5,0.6c0.6,0.2,1.1,0.5,1.7,0.8c1.6,0.9,3,2.3,4,4
			c0.1,0.1,0.1,0.2,0.2,0.3c0.1,0.2,0.2,0.3,0.2,0.5c0.5,1.1,0.8,2.2,0.8,3.3C132.3,23,132.2,23.7,132.1,24.5z"/>
		<path class="st11" d="M129.2,22.6c0,1-0.6,2.1-1.8,2.5c-1.1,0.4-1.8,1.4-1.8,2.5c0,0.3,0.1,0.6,0.2,0.9c0,0.1,0.1,0.1,0.1,0.2
			c0.2,0.4,0.3,0.8,0.3,1.2c0,0.4-0.1,0.8-0.3,1.1c-0.8,0.2-1.7,0.4-2.6,0.4h-16.6c-0.5-0.7-0.7-1.7-0.2-2.7
			c0.2-0.4,0.3-0.8,0.3-1.1c0-0.7-0.3-1.4-0.8-1.9c0.8-1.2,1.7-2.4,2.6-3.6c0,0-0.6-4.3,1.1-7.9l2.4,1.9c0,0,0.1-1,0.5-2.2
			c0.5-1.4,1.6-3.1,3.8-3.9l1.1,2.5c0,0,0.4-0.5,1.1-1.2c0,0.1,0.1,0.2,0.1,0.2c0.2,0.6,0.6,1.1,1.1,1.4c0.7,0.5,1.7,0.6,2.6,0.2
			c0.1-0.1,0.3-0.1,0.4-0.2c0,0,0.7-0.1,0.7-0.1h0c0.7,0,1.3,0.3,1.8,0.7c0.8,0.7,1.1,1.9,0.6,3.1c-0.2,0.4-0.3,0.8-0.3,1.1
			c0,1.1,0.7,2.1,1.8,2.5c1.1,0.4,1.7,1.3,1.8,2.3C129.2,22.5,129.2,22.5,129.2,22.6z"/>
		<path class="st8" d="M122,24c0,0.9-0.5,1.8-1.5,2.2c-0.1,0-0.3,0.1-0.4,0.2c-0.7,0.4-1.2,1.2-1.2,2c0,0.3,0.1,0.7,0.2,1
			c0.2,0.3,0.2,0.7,0.2,1c0,0.4-0.1,0.7-0.3,1h-14.6c-1,0-1.7-1.2-1.1-2c0.8-1.2,1.6-2.4,2.5-3.7c0.8-1.2,1.7-2.4,2.6-3.6
			c0,0-0.6-4.3,1.1-7.9l2.4,1.9c0,0,0.1-1,0.5-2.2c0.1,0.1,0.2,0.3,0.2,0.5c0.2,0.6,0.6,1.1,1.2,1.3c0.6,0.3,1.3,0.3,2,0
			c0.3-0.2,0.7-0.2,1-0.2c1.6,0,2.9,1.7,2.1,3.3c-0.2,0.3-0.2,0.7-0.2,1c0,0.9,0.6,1.8,1.5,2.2C121.5,22.2,122,23.1,122,24z"/>
		<path class="st12" d="M113,29.6c0,0.6-0.1,1.3-0.2,1.9h-8.2c-0.3,0-0.6-0.1-0.8-0.3c-0.5-0.4-0.7-1.1-0.3-1.7
			c0.2-0.3,0.4-0.5,0.5-0.8c1.4-2.1,2.9-4.4,4.6-6.6C111.2,23.5,113,26.3,113,29.6z"/>
		<path class="st13" d="M106.9,30.4c0,0.7-0.8,1.2-1.8,1.2c-0.6,0-1.1-0.2-1.4-0.4c-0.3-0.2-0.4-0.5-0.4-0.8c0-0.7,0.8-1.2,1.8-1.2
			S106.9,29.7,106.9,30.4z"/>
		<path class="st14" d="M109.3,26.9c0,0.5-0.4,0.9-0.9,0.9c-0.5,0-0.9-0.4-0.9-0.9c0-0.5,0.4-0.9,0.9-0.9
			C108.9,26,109.3,26.4,109.3,26.9z"/>
		<path class="st14" d="M105,29.8c0,0.7-0.6,1.3-1.3,1.3c0,0,0,0,0,0c-0.5-0.4-0.7-1.1-0.3-1.7c0.2-0.3,0.4-0.5,0.5-0.8
			C104.6,28.7,105,29.2,105,29.8z"/>
		<path class="st12" d="M110,25.9c-0.4-0.5-0.3-1.3,0.2-1.8l0.7-0.5c0.5-0.4,1.3-0.3,1.8,0.2c0.4,0.5,0.3,1.3-0.2,1.8l-0.7,0.5
			C111.2,26.5,110.4,26.4,110,25.9z"/>
		<path class="st9" d="M110.9,25.7c-0.2,0-0.3-0.1-0.5-0.2c-0.1-0.1-0.1-0.3-0.1-0.4c0-0.2,0.1-0.3,0.2-0.4l0.7-0.5
			c0.1-0.1,0.3-0.1,0.4-0.1c0.2,0,0.3,0.1,0.5,0.2c0.1,0.1,0.1,0.3,0.1,0.4c0,0.2-0.1,0.3-0.2,0.4l-0.7,0.5
			C111.2,25.7,111,25.7,110.9,25.7z"/>
	</g>
</g>
<g>
	<g>
		<g>
			<path class="st1" d="M52.1,33.6c-0.3,0-0.6-0.1-0.8-0.4c-0.2-0.2-0.3-0.6-0.2-0.8c0.3-1.2,1.3-2,2.6-2s2.3,0.8,2.6,2
				c0.1,0.3,0,0.6-0.2,0.8c-0.2,0.2-0.5,0.4-0.8,0.4H52.1z"/>
			<path class="st1" d="M53.6,31.3c0.8,0,1.4,0.5,1.6,1.3h-3.2C52.2,31.8,52.9,31.3,53.6,31.3 M53.6,29.3c-1.7,0-3.1,1.2-3.5,2.8
				c-0.1,0.6,0,1.2,0.4,1.7s1,0.8,1.6,0.8h3.2c0.6,0,1.2-0.3,1.6-0.8s0.5-1.1,0.4-1.7C56.8,30.5,55.3,29.3,53.6,29.3L53.6,29.3z"/>
		</g>
		<g>
			<path class="st1" d="M49.9,18.1c-0.1,0-0.2,0-0.3-0.1l-13.9-4.7c-0.3-0.1-0.5-0.3-0.6-0.5c-0.1-0.2-0.1-0.5,0-0.8
				c1.3-3.5,4.6-5.8,8.1-5.8c0.9,0,1.7,0.1,2.6,0.4c4.3,1.5,6.5,6.2,5.1,10.8c-0.1,0.3-0.3,0.5-0.5,0.6C50.2,18.1,50,18.1,49.9,18.1
				z"/>
			<path class="st1" d="M43.1,7.2c0.7,0,1.5,0.1,2.2,0.4c3.8,1.3,5.7,5.5,4.5,9.5L36,12.4C37.2,9.3,40.1,7.2,43.1,7.2 M43.1,5.2
				c-3.9,0-7.6,2.6-9,6.5c-0.2,0.5-0.2,1.1,0.1,1.6s0.7,0.9,1.2,1L49.2,19c0.2,0.1,0.4,0.1,0.6,0.1c0.3,0,0.6-0.1,0.9-0.2
				c0.5-0.2,0.8-0.7,1-1.2c1.6-5.1-1-10.4-5.8-12C45.1,5.4,44.1,5.2,43.1,5.2L43.1,5.2z"/>
		</g>
		<g>
			<path class="st1" d="M40,21.3c-0.1,0-0.1,0-0.2,0c-0.3-0.1-0.5-0.2-0.6-0.4c-1.9-2.9-1.3-6.6,1.4-8.4c1-0.7,2.1-1,3.3-1
				c2,0,3.9,1,5.1,2.6c0.2,0.2,0.2,0.5,0.2,0.8c0,0.3-0.2,0.5-0.4,0.7l-8.1,5.7C40.4,21.2,40.2,21.3,40,21.3z"/>
			<path class="st1" d="M43.8,12.4c1.6,0,3.2,0.8,4.3,2.2L40,20.3c-1.6-2.4-1.1-5.5,1.1-7.1C41.9,12.6,42.9,12.4,43.8,12.4
				 M43.8,10.4c-1.4,0-2.8,0.4-3.9,1.2c-3.1,2.2-3.8,6.5-1.6,9.8c0.3,0.5,0.8,0.8,1.3,0.9c0.1,0,0.2,0,0.4,0c0.4,0,0.8-0.1,1.1-0.4
				l8.1-5.7c0.4-0.3,0.7-0.8,0.8-1.3c0.1-0.5-0.1-1.1-0.4-1.5C48.3,11.5,46.1,10.4,43.8,10.4L43.8,10.4z"/>
		</g>
		<g>
			<g>
				<path class="st1" d="M52.1,33.6c-0.1,0-0.3,0-0.4-0.1c-0.4-0.2-0.6-0.5-0.6-0.9v-6.2c0-0.4,0.2-0.8,0.6-0.9l0.7-0.3
					c0.1-0.1,0.3-0.1,0.4-0.1c0.2,0,0.4,0.1,0.5,0.2c0.3,0.2,0.5,0.5,0.5,0.8l0,5.8c0,0.3-0.1,0.6-0.3,0.7l-0.7,0.6
					C52.6,33.5,52.3,33.6,52.1,33.6z"/>
				<path class="st1" d="M52.8,26.1L52.8,26.1 M52.8,26.1l0,5.8l-0.7,0.6v-6.2L52.8,26.1 M52.8,24.1C52.8,24.1,52.7,24.1,52.8,24.1
					c-0.3,0-0.6,0.1-0.8,0.2l-0.7,0.3c-0.7,0.3-1.2,1-1.2,1.8v6.2c0,0.8,0.5,1.5,1.2,1.8c0.3,0.1,0.5,0.2,0.8,0.2
					c0.5,0,1-0.2,1.3-0.5l0.7-0.6c0.4-0.4,0.7-0.9,0.7-1.5l0-5.7c0,0,0-0.1,0-0.1C54.8,25,53.9,24.1,52.8,24.1
					C52.8,24.1,52.8,24.1,52.8,24.1L52.8,24.1z M52.8,28.1L52.8,28.1L52.8,28.1L52.8,28.1z"/>
			</g>
			<g>
				<path class="st1" d="M52.3,32.5c-0.2,0-0.5-0.1-0.7-0.3l-1.1-1c-0.3-0.3-0.4-0.7-0.2-1.1c0.2-0.4,0.5-0.6,0.9-0.6h1.1
					c0.6,0,1,0.4,1,1v1c0,0.4-0.2,0.8-0.6,0.9C52.6,32.4,52.5,32.5,52.3,32.5z"/>
				<path class="st1" d="M51.2,30.4l1.1,0v1C51.7,30.8,51.2,30.4,51.2,30.4 M51.2,28.4c-0.8,0-1.6,0.5-1.9,1.3
					c-0.3,0.8-0.1,1.6,0.5,2.2l1.1,1c0.4,0.4,0.9,0.5,1.4,0.5c0.3,0,0.5-0.1,0.8-0.2c0.7-0.3,1.2-1,1.2-1.8v-1c0-1.1-0.9-2-2-2
					L51.2,28.4L51.2,28.4z"/>
			</g>
			<g>
				<path class="st1" d="M52.6,29.6c-0.5,0-1-0.1-1.4-0.3c-1-0.5-1.7-1.5-2-2.8c0-0.1,0-0.3-0.1-0.4c0-0.2,0-0.4,0-0.7
					c0,0,0-0.1,0-0.2c0-0.1,0-0.3,0-0.5c0-0.5,0.5-0.9,1-0.9h6.7c0.3,0,0.6,0.2,0.8,0.4c0.2,0.3,0.2,0.6,0.1,0.9
					c-0.1,0.2-0.1,0.3-0.2,0.5c-0.6,1.3-1.6,2.4-2.7,3.1C54.1,29.3,53.3,29.6,52.6,29.6z"/>
				<path class="st1" d="M56.8,24.8c-0.1,0.2-0.1,0.3-0.2,0.5c-0.6,1.2-1.4,2.1-2.3,2.7c-0.6,0.4-1.2,0.6-1.8,0.6
					c-0.3,0-0.7-0.1-1-0.2c-0.7-0.4-1.2-1.1-1.4-2.1c0-0.1,0-0.2,0-0.3c0-0.2,0-0.4,0-0.5c0,0,0,0,0-0.1c0-0.2,0-0.3,0-0.5H56.8
					 M56.8,22.8h-6.7c-1,0-1.9,0.8-2,1.8c0,0.2,0,0.4,0,0.7c0,0,0,0.1,0,0.1c0,0.3,0,0.5,0,0.8c0,0.2,0,0.3,0.1,0.5
					c0.3,1.6,1.2,2.9,2.5,3.5c0.6,0.3,1.2,0.4,1.8,0.4c0.9,0,1.9-0.3,2.8-0.9c1.2-0.8,2.3-2,3-3.5c0.1-0.2,0.2-0.4,0.3-0.6
					c0.2-0.6,0.2-1.3-0.2-1.9C58.1,23.2,57.5,22.8,56.8,22.8L56.8,22.8z M56.8,26.8L56.8,26.8L56.8,26.8L56.8,26.8z"/>
			</g>
		</g>
		<g>
			<g>
				<path class="st1" d="M49.5,33.6c-0.1,0-0.3,0-0.4-0.1c-0.4-0.2-0.6-0.5-0.6-0.9v-6.2c0-0.4,0.2-0.8,0.6-0.9l0.7-0.3
					c0.1-0.1,0.3-0.1,0.4-0.1c0.2,0,0.4,0.1,0.5,0.2c0.3,0.2,0.5,0.5,0.5,0.8l0,5.8c0,0.3-0.1,0.6-0.3,0.7l-0.7,0.6
					C50,33.5,49.7,33.6,49.5,33.6z"/>
				<path class="st1" d="M50.2,26.1L50.2,26.1 M50.2,26.1l0,5.8l-0.7,0.6v-6.2L50.2,26.1 M50.2,24.1C50.2,24.1,50.1,24.1,50.2,24.1
					c-0.3,0-0.6,0.1-0.8,0.2l-0.7,0.3c-0.7,0.3-1.2,1-1.2,1.8v6.2c0,0.8,0.5,1.5,1.2,1.8c0.3,0.1,0.5,0.2,0.8,0.2
					c0.5,0,1-0.2,1.3-0.5l0.7-0.6c0.4-0.4,0.7-0.9,0.7-1.5l0-5.7c0,0,0-0.1,0-0.1C52.2,25,51.3,24.1,50.2,24.1
					C50.2,24.1,50.2,24.1,50.2,24.1L50.2,24.1z M50.2,28.1L50.2,28.1L50.2,28.1L50.2,28.1z"/>
			</g>
			<g>
				<path class="st1" d="M49.8,32.5c-0.2,0-0.5-0.1-0.7-0.3l-1.1-1c-0.3-0.3-0.4-0.7-0.2-1.1c0.2-0.4,0.5-0.6,0.9-0.6h1.1
					c0.6,0,1,0.4,1,1v1c0,0.4-0.2,0.8-0.6,0.9C50,32.4,49.9,32.5,49.8,32.5z"/>
				<path class="st1" d="M48.6,30.4l1.1,0v1C49.1,30.8,48.6,30.4,48.6,30.4 M48.6,28.4c-0.8,0-1.6,0.5-1.9,1.3
					c-0.3,0.8-0.1,1.6,0.5,2.2l1.1,1c0.4,0.4,0.9,0.5,1.4,0.5c0.3,0,0.5-0.1,0.8-0.2c0.7-0.3,1.2-1,1.2-1.8v-1c0-1.1-0.9-2-2-2
					L48.6,28.4L48.6,28.4z"/>
			</g>
			<g>
				<path class="st1" d="M49.7,29.6c-0.5,0-1-0.1-1.4-0.3c-1-0.5-1.7-1.5-2-2.8c0-0.1,0-0.3-0.1-0.4c0-0.2,0-0.4,0-0.7
					c0,0,0-0.1,0-0.2c0-0.1,0-0.3,0-0.5c0-0.5,0.5-0.9,1-0.9h6.7c0.3,0,0.6,0.2,0.8,0.4c0.2,0.3,0.2,0.6,0.1,0.9
					c-0.1,0.2-0.1,0.3-0.2,0.5C54,27,53.1,28.2,52,28.8C51.2,29.3,50.4,29.6,49.7,29.6z"/>
				<path class="st1" d="M53.9,24.8c-0.1,0.2-0.1,0.3-0.2,0.5c-0.6,1.2-1.4,2.1-2.3,2.7c-0.6,0.4-1.2,0.6-1.8,0.6
					c-0.3,0-0.7-0.1-1-0.2c-0.7-0.4-1.2-1.1-1.4-2.1c0-0.1,0-0.2,0-0.3c0-0.2,0-0.4,0-0.5c0,0,0,0,0-0.1c0-0.2,0-0.3,0-0.5H53.9
					 M53.9,22.8h-6.7c-1,0-1.9,0.8-2,1.8c0,0.2,0,0.4,0,0.7c0,0,0,0.1,0,0.1c0,0.3,0,0.5,0,0.8c0,0.2,0,0.3,0.1,0.5
					c0.3,1.6,1.2,2.9,2.5,3.5c0.6,0.3,1.2,0.4,1.8,0.4c0.9,0,1.9-0.3,2.8-0.9c1.2-0.8,2.3-2,3-3.5c0.1-0.2,0.2-0.4,0.3-0.6
					c0.2-0.6,0.2-1.3-0.2-1.9C55.2,23.2,54.6,22.8,53.9,22.8L53.9,22.8z M53.9,26.8L53.9,26.8L53.9,26.8L53.9,26.8z"/>
			</g>
		</g>
		<g>
			<path class="st1" d="M48.5,26.2c-3.4,0-6.2-2.8-6.2-6.2v-2.6c0-1.1,0.3-2.3,0.9-3.2c0.2-0.3,0.5-0.5,0.9-0.5s0.7,0.2,0.9,0.5
				c0.8,1.3,2.1,2,3.6,2h3.8c0.3,0,0.5-0.1,0.7-0.2c0.5-0.3,0.9-0.8,0.9-1.4v-2.4c0-0.8,0.3-1.5,0.9-2.1c0.6-0.6,1.3-0.9,2.1-0.9
				c1.6,0,2.9,1.3,2.9,2.9v1.1c1.2,1,1.9,2.4,2,3.9c0,0.1,0,0.1,0,0.2l0,2.9c0,0.4-0.1,0.7-0.1,1.1c-0.5,2.5-2.6,4.4-5.1,4.8
				c-0.3,0-0.6,0.1-0.9,0.1H48.5z"/>
			<path class="st1" d="M56.8,10.2c1,0,1.9,0.9,1.9,1.9v1.6c1.1,0.8,1.9,2,2,3.5c0,0.1,0,0.1,0,0.1v2.7c0,0,0,0.1,0,0.1
				c0,0.3-0.1,0.6-0.1,0.9c-0.5,2.1-2.2,3.7-4.3,4.1c-0.3,0-0.5,0.1-0.8,0.1h-6.9c-2.9,0-5.2-2.4-5.2-5.2v-2.6c0-1,0.3-1.9,0.8-2.7
				c0.9,1.5,2.6,2.5,4.5,2.5h3.8c0.4,0,0.9-0.1,1.2-0.3c0.8-0.4,1.4-1.3,1.4-2.3v-2.4c0-0.5,0.2-1,0.6-1.3
				C55.8,10.4,56.2,10.2,56.8,10.2 M56.8,8.2c-1,0-2,0.4-2.8,1.1c-0.7,0.7-1.1,1.7-1.1,2.8v2.4c0,0.3-0.2,0.4-0.3,0.5
				c-0.1,0-0.2,0.1-0.3,0.1h-3.8c-1.1,0-2.2-0.6-2.8-1.6c-0.4-0.6-1-1-1.7-1c-0.7,0-1.3,0.4-1.7,1c-0.7,1.1-1.1,2.4-1.1,3.8V20
				c0,4,3.2,7.2,7.2,7.2h6.9c0.4,0,0.7,0,1.1-0.1c2.9-0.5,5.3-2.7,6-5.6c0.1-0.4,0.2-0.8,0.2-1.3c0-0.1,0-0.1,0-0.2v-2.7
				c0-0.1,0-0.2,0-0.3c-0.1-1.6-0.8-3.1-2-4.3v-0.7C60.7,10,58.9,8.2,56.8,8.2L56.8,8.2z"/>
		</g>
		<g>
			<path class="st1" d="M54.8,19.4c-1.3,0-2.3-1-2.3-2.3v-0.2c0-0.4,0.2-0.7,0.5-0.9c0.5-0.3,0.9-0.8,0.9-1.4v-2.4
				c0-0.8,0.3-1.5,0.9-2.1c0.6-0.6,1.3-0.9,2.1-0.9c0.6,0,1.1,0.2,1.6,0.5c0.2,0.1,0.4,0.3,0.5,0.4c0.5,0.5,0.8,1.2,0.8,2v1.1
				c1.2,1,1.9,2.4,2,3.9c0,0,0,0.1,0,0.1c-0.1,1.2-1.1,2.1-2.3,2.1H54.8z"/>
			<path class="st1" d="M56.8,10.2c0.4,0,0.8,0.1,1.1,0.3c0.1,0.1,0.2,0.2,0.3,0.3c0.3,0.3,0.5,0.8,0.5,1.3v1.6c0,0,0.1,0.1,0.1,0.1
				c1.1,0.8,1.8,2,1.9,3.4c-0.1,0.7-0.6,1.2-1.3,1.2h-4.5c-0.7,0-1.3-0.6-1.3-1.3v-0.2c0.8-0.4,1.4-1.3,1.4-2.3v-2.4
				c0-0.5,0.2-1,0.6-1.3C55.8,10.4,56.2,10.2,56.8,10.2 M56.8,8.2c-1,0-2,0.4-2.8,1.1c-0.7,0.7-1.1,1.7-1.1,2.8v2.4
				c0,0.3-0.2,0.4-0.3,0.5c-0.7,0.3-1.1,1-1.1,1.8v0.2c0,1.8,1.5,3.3,3.3,3.3h4.5c1.7,0,3.2-1.3,3.3-3c0-0.1,0-0.2,0-0.3
				c-0.1-1.7-0.8-3.2-2-4.3v-0.7c0-1-0.4-1.9-1-2.6c-0.2-0.2-0.4-0.4-0.7-0.6C58.3,8.5,57.6,8.2,56.8,8.2L56.8,8.2z"/>
		</g>
		<g>
			<path class="st1" d="M61.1,18.2c-1.6,0-2.8-1.3-2.8-2.8v-2.2c0-0.6,0.4-1,1-1c1.6,0,2.8,1.3,2.8,2.8v2.2
				C62.1,17.7,61.7,18.2,61.1,18.2z"/>
			<path class="st1" d="M59.3,13.2c1,0,1.8,0.8,1.8,1.8v2.2c-1,0-1.8-0.8-1.8-1.8L59.3,13.2 M59.3,11.2c-1.1,0-2,0.9-2,2l0,2.2
				c0,2.1,1.7,3.8,3.8,3.8c1.1,0,2-0.9,2-2V15C63.1,12.9,61.4,11.2,59.3,11.2L59.3,11.2z"/>
		</g>
		<g>
			<path class="st1" d="M60.3,18.2c-1.6,0-2.8-1.3-2.8-2.8v-2.2c0-0.6,0.4-1,1-1c0.3,0,0.5,0,0.8,0.1c1.2,0.3,2.1,1.5,2.1,2.7v2.2
				C61.3,17.7,60.9,18.2,60.3,18.2z"/>
			<path class="st1" d="M58.5,13.2c0.2,0,0.3,0,0.5,0.1c0.8,0.2,1.4,0.9,1.4,1.8v2.2c-1,0-1.8-0.8-1.8-1.8V13.2 M58.5,11.2
				c-1.1,0-2,0.9-2,2v2.2c0,2.1,1.7,3.8,3.8,3.8c1.1,0,2-0.9,2-2V15c0-1.7-1.2-3.3-2.8-3.7C59.2,11.2,58.8,11.2,58.5,11.2L58.5,11.2
				z"/>
		</g>
		<g>
			<path class="st1" d="M60.3,18.1c-0.1,0-0.2,0-0.3,0c-1.2-0.3-2.1-1.5-2.1-2.7v-2.1c0-0.3,0.1-0.6,0.4-0.8
				c0.2-0.1,0.4-0.2,0.6-0.2c0.1,0,0.2,0,0.3,0c1.2,0.3,2.1,1.5,2.1,2.7v2.1c0,0.3-0.1,0.6-0.4,0.8C60.7,18.1,60.5,18.1,60.3,18.1z"
				/>
			<path class="st1" d="M59,13.2c0.8,0.2,1.4,0.9,1.4,1.8v2.1c-0.8-0.2-1.4-0.9-1.4-1.8V13.2 M59,11.2c-0.4,0-0.9,0.1-1.2,0.4
				c-0.5,0.4-0.8,1-0.8,1.6v2.1c0,1.7,1.2,3.3,2.8,3.7c0.2,0,0.4,0.1,0.5,0.1c0.4,0,0.9-0.1,1.2-0.4c0.5-0.4,0.8-1,0.8-1.6V15
				c0-1.7-1.2-3.3-2.8-3.7C59.3,11.3,59.1,11.2,59,11.2L59,11.2z"/>
		</g>
		<g>
			<path class="st1" d="M57.7,14.7c-1.6,0-2.9-1.1-2.9-2.5s1.3-2.5,2.9-2.5c0.2,0,0.3,0,0.5,0c0.1,0,0.2,0.1,0.3,0.1
				c0.1,0,0.1,0.1,0.2,0.1c0.1,0,0.2,0.1,0.2,0.2c0.5,0.5,0.8,1.2,0.8,2v1.4c0,0.4-0.2,0.8-0.6,0.9C58.7,14.6,58.2,14.7,57.7,14.7z"
				/>
			<path class="st1" d="M57.7,10.8c0.1,0,0.2,0,0.4,0c0,0,0.1,0,0.1,0.1c0.3,0.3,0.5,0.8,0.5,1.3v1.4c-0.3,0.1-0.6,0.2-1,0.2
				c-1.1,0-1.9-0.7-1.9-1.5S56.7,10.8,57.7,10.8 M57.7,8.8c-2.2,0-3.9,1.5-3.9,3.5c0,2,1.7,3.5,3.9,3.5c0.6,0,1.2-0.1,1.8-0.4
				c0.7-0.3,1.2-1,1.2-1.8v-1.4c0-1-0.4-1.9-1-2.6c-0.1-0.1-0.3-0.3-0.4-0.4c-0.1,0-0.1-0.1-0.2-0.1c-0.2-0.1-0.4-0.2-0.6-0.2
				C58.2,8.8,57.9,8.8,57.7,8.8L57.7,8.8z"/>
		</g>
		<g>
			<circle class="st1" cx="56.8" cy="12.2" r="1.5"/>
			<path class="st1" d="M56.8,11.8c0.3,0,0.5,0.2,0.5,0.5s-0.2,0.5-0.5,0.5s-0.5-0.2-0.5-0.5S56.5,11.8,56.8,11.8 M56.8,9.8
				c-1.4,0-2.5,1.1-2.5,2.5s1.1,2.5,2.5,2.5s2.5-1.1,2.5-2.5S58.1,9.8,56.8,9.8L56.8,9.8z"/>
		</g>
		<g>
			<path class="st1" d="M36.9,18.1c-0.3,0-0.5-0.1-0.7-0.3c-0.2-0.2-0.3-0.5-0.3-0.7c0.1-4.9,3.4-8.8,7.5-8.8s7.3,3.8,7.5,8.8
				c0,0.3-0.1,0.5-0.3,0.7c-0.2,0.2-0.4,0.3-0.7,0.3H36.9z"/>
			<path class="st1" d="M43.4,9.4c3.5,0,6.4,3.5,6.5,7.8h-13C37,12.8,39.9,9.4,43.4,9.4 M43.4,7.4c-4.6,0-8.3,4.3-8.5,9.7
				c0,0.5,0.2,1.1,0.6,1.4c0.4,0.4,0.9,0.6,1.4,0.6h13c0.5,0,1.1-0.2,1.4-0.6c0.4-0.4,0.6-0.9,0.6-1.4C51.7,11.6,48,7.4,43.4,7.4
				L43.4,7.4z"/>
		</g>
		<g>
			<path class="st1" d="M38.4,18.1c-0.3,0-0.6-0.1-0.8-0.4c-0.2-0.2-0.3-0.5-0.2-0.8c0.3-1.4,0.9-2.7,1.7-3.7
				c1.1-1.4,2.6-2.1,4.2-2.1s3.1,0.8,4.2,2.1c0.8,1,1.4,2.3,1.7,3.7c0.1,0.3,0,0.6-0.2,0.8s-0.5,0.4-0.8,0.4H38.4z"/>
			<path class="st1" d="M43.4,12.1c1.3,0,2.5,0.6,3.4,1.8c0.7,0.9,1.3,2,1.5,3.2h-9.9c0.2-1.2,0.8-2.4,1.5-3.2
				C40.9,12.8,42.1,12.1,43.4,12.1 M43.4,10.1c-1.9,0-3.6,0.9-5,2.5c-0.9,1.1-1.6,2.6-1.9,4.1c-0.1,0.6,0,1.2,0.4,1.7
				s0.9,0.7,1.5,0.7h9.9c0.6,0,1.2-0.3,1.5-0.7s0.5-1.1,0.4-1.7c-0.3-1.6-1-3-1.9-4.1C47,11,45.3,10.1,43.4,10.1L43.4,10.1z"/>
		</g>
		<g>
			<path class="st1" d="M40.3,18.1c-0.3,0-0.7-0.2-0.8-0.5s-0.2-0.7-0.1-1c0.1-0.3,0.3-0.6,0.5-0.9c0.9-1.4,2.2-2.2,3.5-2.2
				c1.3,0,2.6,0.8,3.5,2.2c0.2,0.3,0.3,0.6,0.5,0.9c0.1,0.3,0.1,0.7-0.1,1s-0.5,0.5-0.8,0.5H40.3z"/>
			<path class="st1" d="M43.4,14.6c1,0,1.9,0.6,2.7,1.8c0.2,0.2,0.3,0.5,0.4,0.8h-6.2c0.1-0.3,0.3-0.5,0.4-0.8
				C41.4,15.2,42.4,14.6,43.4,14.6 M43.4,12.6c-1.7,0-3.2,1-4.4,2.7c-0.2,0.3-0.4,0.6-0.5,1c-0.3,0.6-0.3,1.3,0.1,1.9
				c0.4,0.6,1,0.9,1.7,0.9h6.2c0.7,0,1.3-0.4,1.7-0.9c0.4-0.6,0.4-1.3,0.1-1.9c-0.2-0.3-0.3-0.7-0.5-1
				C46.6,13.6,45.1,12.6,43.4,12.6L43.4,12.6z"/>
		</g>
		<g>
			<path class="st1" d="M45.9,24.4c-0.9,0-1.6-0.7-1.6-1.6c0-0.9,0.7-1.6,1.6-1.6h5.3c0.9,0,1.6,0.7,1.6,1.6c0,0.9-0.7,1.6-1.6,1.6
				H45.9z"/>
			<path class="st1" d="M51.1,22.2c0.3,0,0.6,0.3,0.6,0.6c0,0.3-0.3,0.6-0.6,0.6h-5.3c-0.3,0-0.6-0.3-0.6-0.6c0-0.3,0.3-0.6,0.6-0.6
				H51.1 M51.1,20.2h-5.3c-1.4,0-2.6,1.2-2.6,2.6c0,1.4,1.2,2.6,2.6,2.6h5.3c1.4,0,2.6-1.2,2.6-2.6C53.7,21.4,52.6,20.2,51.1,20.2
				L51.1,20.2z"/>
		</g>
		<g>
			<path class="st1" d="M46.4,23.2c-0.9,0-1.6-0.7-1.6-1.6c0-0.9,0.7-1.6,1.6-1.6h5.3c0.9,0,1.6,0.7,1.6,1.6c0,0.9-0.7,1.6-1.6,1.6
				H46.4z"/>
			<path class="st1" d="M51.7,21.1c0.3,0,0.6,0.3,0.6,0.6s-0.3,0.6-0.6,0.6h-5.3c-0.3,0-0.6-0.3-0.6-0.6s0.3-0.6,0.6-0.6H51.7
				 M51.7,19.1h-5.3c-1.4,0-2.6,1.2-2.6,2.6s1.2,2.6,2.6,2.6h5.3c1.4,0,2.6-1.2,2.6-2.6S53.1,19.1,51.7,19.1L51.7,19.1z"/>
		</g>
		<g>
			<path class="st1" d="M46.9,22.1c-0.9,0-1.6-0.7-1.6-1.6s0.7-1.6,1.6-1.6h5.3c0.9,0,1.6,0.7,1.6,1.6s-0.7,1.6-1.6,1.6H46.9z"/>
			<path class="st1" d="M52.2,19.9c0.3,0,0.6,0.3,0.6,0.6c0,0.3-0.3,0.6-0.6,0.6h-5.3c-0.3,0-0.6-0.3-0.6-0.6c0-0.3,0.3-0.6,0.6-0.6
				H52.2 M52.2,17.9h-5.3c-1.4,0-2.6,1.2-2.6,2.6c0,1.4,1.2,2.6,2.6,2.6h5.3c1.4,0,2.6-1.2,2.6-2.6C54.8,19.1,53.6,17.9,52.2,17.9
				L52.2,17.9z"/>
		</g>
		<g>
			<path class="st1" d="M51.1,24.6c-2.8,0-5-1.6-5-3.7s2.2-3.7,5-3.7s5,1.6,5,3.7S54,24.6,51.1,24.6z"/>
			<path class="st1" d="M51.1,18.1c2.2,0,4,1.2,4,2.7c0,1.5-1.8,2.7-4,2.7c-2.2,0-4-1.2-4-2.7C47.1,19.3,48.9,18.1,51.1,18.1
				 M51.1,16.1c-3.4,0-6,2.1-6,4.7c0,2.7,2.7,4.7,6,4.7c3.4,0,6-2.1,6-4.7C57.2,18.2,54.5,16.1,51.1,16.1L51.1,16.1z"/>
		</g>
		<g>
			<path class="st1" d="M49.5,33.6c-0.3,0-0.6-0.1-0.8-0.4c-0.2-0.2-0.3-0.6-0.2-0.8c0.3-1.2,1.3-2,2.6-2s2.3,0.8,2.6,2
				c0.1,0.3,0,0.6-0.2,0.8c-0.2,0.2-0.5,0.4-0.8,0.4H49.5z"/>
			<path class="st1" d="M51.1,31.3c0.8,0,1.4,0.5,1.6,1.3h-3.2C49.6,31.8,50.3,31.3,51.1,31.3 M51.1,29.3c-1.7,0-3.1,1.2-3.5,2.8
				c-0.1,0.6,0,1.2,0.4,1.7s1,0.8,1.6,0.8h3.2c0.6,0,1.2-0.3,1.6-0.8s0.5-1.1,0.4-1.7C54.2,30.5,52.7,29.3,51.1,29.3L51.1,29.3z"/>
		</g>
		<g>
			<path class="st1" d="M55.9,20.5c-0.9,0-1.6-0.7-1.6-1.6v-0.8c0-0.9,0.7-1.6,1.6-1.6s1.6,0.7,1.6,1.6v0.8
				C57.5,19.7,56.8,20.5,55.9,20.5z"/>
			<path class="st1" d="M55.9,17.4c0.4,0,0.6,0.3,0.6,0.6v0.8c0,0.4-0.3,0.6-0.6,0.6c-0.4,0-0.6-0.3-0.6-0.6v-0.8
				C55.2,17.7,55.5,17.4,55.9,17.4 M55.9,15.4c-1.5,0-2.6,1.2-2.6,2.6v0.8c0,1.5,1.2,2.6,2.6,2.6c1.5,0,2.6-1.2,2.6-2.6v-0.8
				C58.5,16.6,57.4,15.4,55.9,15.4L55.9,15.4z"/>
		</g>
		<g>
			<path class="st1" d="M57.2,20.5c-0.9,0-1.6-0.7-1.6-1.6v-0.8c0-0.9,0.7-1.6,1.6-1.6s1.6,0.7,1.6,1.6v0.8
				C58.8,19.7,58.1,20.5,57.2,20.5z"/>
			<path class="st1" d="M57.2,17.4c0.4,0,0.6,0.3,0.6,0.6v0.8c0,0.4-0.3,0.6-0.6,0.6c-0.4,0-0.6-0.3-0.6-0.6v-0.8
				C56.5,17.7,56.8,17.4,57.2,17.4 M57.2,15.4c-1.5,0-2.6,1.2-2.6,2.6v0.8c0,1.5,1.2,2.6,2.6,2.6c1.5,0,2.6-1.2,2.6-2.6v-0.8
				C59.8,16.6,58.6,15.4,57.2,15.4L57.2,15.4z"/>
		</g>
		<g>
			<path class="st1" d="M58.5,20.5c-0.9,0-1.6-0.7-1.6-1.6v-0.8c0-0.9,0.7-1.6,1.6-1.6s1.6,0.7,1.6,1.6v0.8
				C60.1,19.7,59.4,20.5,58.5,20.5z"/>
			<path class="st1" d="M58.5,17.4c0.4,0,0.6,0.3,0.6,0.6v0.8c0,0.4-0.3,0.6-0.6,0.6c-0.4,0-0.6-0.3-0.6-0.6v-0.8
				C57.8,17.7,58.1,17.4,58.5,17.4 M58.5,15.4c-1.5,0-2.6,1.2-2.6,2.6v0.8c0,1.5,1.2,2.6,2.6,2.6s2.6-1.2,2.6-2.6v-0.8
				C61.1,16.6,59.9,15.4,58.5,15.4L58.5,15.4z"/>
		</g>
		<g>
			<path class="st1" d="M58.9,14.5c-0.2,0-0.3,0-0.4,0C58,14.4,57,14.1,57,12.7c0-1.4,1.1-1.7,1.5-1.8c0.1,0,0.3,0,0.4,0
				c1.3,0,2.2,1.1,2.3,1.2c0.3,0.4,0.3,0.9,0,1.3C61,13.5,60.1,14.5,58.9,14.5z"/>
			<path class="st1" d="M58.9,11.9c0.8,0,1.5,0.8,1.5,0.8s-0.7,0.8-1.5,0.8c-0.1,0-0.2,0-0.3,0C58,13.4,58,13.1,58,12.7
				c0-0.4,0.1-0.7,0.6-0.8C58.7,11.9,58.8,11.9,58.9,11.9 M58.9,9.9c-0.2,0-0.4,0-0.5,0c-1.2,0.2-2.4,1-2.4,2.8
				c0,1.8,1.2,2.6,2.4,2.8c0.2,0,0.4,0,0.6,0c1.7,0,2.8-1.3,3-1.6c0.6-0.7,0.6-1.8,0-2.5C61.7,11.2,60.6,9.9,58.9,9.9L58.9,9.9z"/>
		</g>
		<g>
			<path class="st1" d="M58.6,14.5c0,0-0.1,0-0.1,0C58,14.4,57,14.1,57,12.7c0-1.4,1.1-1.7,1.5-1.8c0,0,0.1,0,0.1,0
				c0.1,0,0.1,0,0.2,0c1.1,0.2,1.8,1.1,1.9,1.2c0.3,0.4,0.3,0.9,0,1.3c-0.1,0.1-0.8,1-1.9,1.2C58.7,14.5,58.7,14.5,58.6,14.5z"/>
			<path class="st1" d="M58.6,11.9c0.7,0.1,1.3,0.8,1.3,0.8s-0.6,0.7-1.3,0.8C58,13.4,58,13.1,58,12.7C58,12.3,58,12,58.6,11.9
				 M58.6,9.9c-0.1,0-0.2,0-0.3,0c-1.1,0.2-2.4,1-2.4,2.8c0,1.8,1.2,2.6,2.4,2.8c0.1,0,0.2,0,0.3,0c0.1,0,0.2,0,0.3,0
				c1.4-0.2,2.3-1.3,2.5-1.5c0.6-0.7,0.6-1.8,0-2.5c-0.2-0.2-1.1-1.3-2.5-1.5C58.8,9.9,58.7,9.9,58.6,9.9L58.6,9.9z"/>
		</g>
		<g>
			<path class="st1" d="M58.6,13.6c-0.7,0-1.2-0.5-1.2-1.2s0.5-1.2,1.2-1.2s1.2,0.5,1.2,1.2S59.3,13.6,58.6,13.6z"/>
			<path class="st1" d="M58.6,12.2c0.1,0,0.2,0.1,0.2,0.2c0,0.1-0.1,0.2-0.2,0.2c-0.1,0-0.2-0.1-0.2-0.2
				C58.4,12.3,58.5,12.2,58.6,12.2 M58.6,10.2c-1.2,0-2.2,1-2.2,2.2c0,1.2,1,2.2,2.2,2.2c1.2,0,2.2-1,2.2-2.2
				C60.8,11.2,59.8,10.2,58.6,10.2L58.6,10.2z"/>
		</g>
		<g>
			<path class="st1" d="M55.1,11.9c-1.4,0-2.7-0.9-3.3-2.2c-0.2-0.5-0.3-0.9-0.3-1.4c0-0.6,0.4-1,1-1h3c0.5,0,1,0.1,1.4,0.3
				c1.3,0.6,2.2,1.9,2.2,3.3c0,0.6-0.4,1-1,1H55.1z"/>
			<path class="st1" d="M55.6,8.3c0.4,0,0.7,0.1,1,0.2c0.9,0.4,1.6,1.3,1.6,2.4h-3c-1.1,0-2-0.6-2.4-1.6c-0.1-0.3-0.2-0.7-0.2-1
				H55.6 M55.6,6.3h-3c-1.1,0-2,0.9-2,2c0,0.6,0.1,1.2,0.4,1.8c0.7,1.7,2.4,2.8,4.2,2.8h3c1.1,0,2-0.9,2-2c0-1.8-1.1-3.5-2.8-4.2
				C56.8,6.4,56.2,6.3,55.6,6.3L55.6,6.3z"/>
		</g>
		<g>
			<path class="st1" d="M53.8,10.5c-0.5,0-1-0.1-1.4-0.3c-0.2-0.1-0.4-0.3-0.5-0.5c-0.2-0.4-0.3-0.9-0.3-1.4c0-0.6,0.4-1,1-1h3
				c0.5,0,1,0.1,1.4,0.3c0.2,0.1,0.4,0.3,0.5,0.5c0.2,0.4,0.3,0.9,0.3,1.4c0,0.6-0.4,1-1,1H53.8z"/>
			<path class="st1" d="M55.6,8.3c0.4,0,0.7,0.1,1,0.2c0.1,0.3,0.2,0.7,0.2,1h-3c-0.4,0-0.7-0.1-1-0.2c-0.1-0.3-0.2-0.7-0.2-1H55.6
				 M55.6,6.3h-3c-1.1,0-2,0.9-2,2c0,0.6,0.1,1.2,0.4,1.8c0.2,0.5,0.6,0.8,1,1c0.6,0.2,1.2,0.4,1.8,0.4h3c1.1,0,2-0.9,2-2
				c0-0.6-0.1-1.2-0.4-1.8c-0.2-0.5-0.6-0.8-1-1C56.8,6.4,56.2,6.3,55.6,6.3L55.6,6.3z"/>
		</g>
		<g>
			<path class="st1" d="M56.2,26.2c-0.4,0-0.7-0.2-0.9-0.5c-0.4-0.7-0.6-1.4-0.6-2.2c0-2.5,2-4.5,4.5-4.5c0.6,0,1.2,0.1,1.8,0.4
				c0.4,0.2,0.6,0.5,0.6,0.9c0,0.4-0.1,0.7-0.1,1.1c-0.5,2.5-2.6,4.4-5.1,4.8C56.3,26.2,56.3,26.2,56.2,26.2z"/>
			<path class="st1" d="M59.3,19.9c0.5,0,1,0.1,1.4,0.3c0,0.3-0.1,0.6-0.1,0.9c-0.5,2.1-2.2,3.7-4.3,4.1c-0.3-0.5-0.5-1.1-0.5-1.7
				C55.8,21.5,57.3,19.9,59.3,19.9 M59.3,17.9c-3,0-5.5,2.5-5.5,5.5c0,1,0.2,1.9,0.7,2.7c0.4,0.6,1,1,1.7,1c0.1,0,0.2,0,0.3,0
				c2.9-0.5,5.3-2.7,6-5.6c0.1-0.4,0.2-0.8,0.2-1.3c0-0.8-0.4-1.6-1.2-1.9C60.8,18.1,60,17.9,59.3,17.9L59.3,17.9z"/>
		</g>
	</g>
	<g>
		<path class="st15" d="M55.2,32.6c-0.2-0.7-0.8-1.3-1.6-1.3c-0.8,0-1.4,0.5-1.6,1.3H55.2z"/>
		<path class="st16" d="M49.9,17.1c1.2-4-0.7-8.2-4.5-9.5c-3.8-1.3-7.9,0.9-9.4,4.8L49.9,17.1z"/>
		<path class="st16" d="M48.1,14.6c-1.7-2.3-4.8-2.9-7-1.3c-2.2,1.5-2.7,4.7-1.1,7.1L48.1,14.6z"/>
		<g>
			<polygon class="st15" points="52.8,31.9 52.8,26.1 52.1,26.4 52.1,32.6 			"/>
			<path class="st15" d="M52.3,30.4v1c-0.7-0.6-1.1-1-1.1-1L52.3,30.4z"/>
			<path class="st17" d="M50.2,24.8h6.7c-0.1,0.2-0.1,0.3-0.2,0.5c-0.6,1.2-1.4,2.1-2.3,2.7c-0.9,0.6-1.9,0.7-2.7,0.4
				c-0.7-0.4-1.2-1.1-1.4-2.1c0-0.1,0-0.2,0-0.3c0-0.2,0-0.4,0-0.5c0,0,0,0,0-0.1C50.1,25.2,50.1,25,50.2,24.8z"/>
		</g>
		<g>
			<polygon class="st18" points="50.2,31.9 50.2,26.1 49.5,26.4 49.5,32.6 			"/>
			<path class="st18" d="M49.8,30.4v1c-0.7-0.6-1.1-1-1.1-1L49.8,30.4z"/>
			<path class="st19" d="M47.3,24.8h6.7c-0.1,0.2-0.1,0.3-0.2,0.5c-0.6,1.2-1.4,2.1-2.3,2.7c-0.9,0.6-1.9,0.7-2.7,0.4
				c-0.7-0.4-1.2-1.1-1.4-2.1c0-0.1,0-0.2,0-0.3c0-0.2,0-0.4,0-0.5c0,0,0,0,0-0.1C47.2,25.2,47.2,25,47.3,24.8z"/>
		</g>
		<path class="st19" d="M60.7,17.3v2.7c0,0,0,0.1,0,0.1c0,0.3-0.1,0.6-0.1,0.9c-0.5,2.1-2.2,3.7-4.3,4.1c-0.3,0-0.5,0.1-0.8,0.1
			h-6.9c-2.9,0-5.2-2.4-5.2-5.2v-2.6c0-1,0.3-1.9,0.8-2.7c0.9,1.5,2.6,2.5,4.5,2.5h3.8c0.4,0,0.9-0.1,1.2-0.3
			c0.8-0.4,1.4-1.3,1.4-2.3v-2.4c0-0.5,0.2-1,0.6-1.3c0.3-0.3,0.8-0.6,1.3-0.6c1,0,1.9,0.9,1.9,1.9v1.6c1.1,0.8,1.9,2,2,3.5
			C60.7,17.2,60.7,17.3,60.7,17.3z"/>
		<path class="st20" d="M60.7,17.2c-0.1,0.7-0.6,1.2-1.3,1.2h-4.5c-0.7,0-1.3-0.6-1.3-1.3v-0.2c0.8-0.4,1.4-1.3,1.4-2.3v-2.4
			c0-0.5,0.2-1,0.6-1.3c0.3-0.3,0.8-0.6,1.3-0.6c0.4,0,0.8,0.1,1.1,0.3c0.1,0.1,0.2,0.2,0.3,0.3c0.3,0.3,0.5,0.8,0.5,1.3v1.6
			c0,0,0.1,0.1,0.1,0.1C59.9,14.6,60.6,15.8,60.7,17.2z"/>
		<path class="st4" d="M61.1,17.2V15c0-1-0.8-1.8-1.8-1.8l0,2.2C59.3,16.4,60.1,17.2,61.1,17.2z"/>
		<path class="st21" d="M60.3,15v2.2c-1,0-1.8-0.8-1.8-1.8v-2.2c0.2,0,0.3,0,0.5,0.1C59.7,13.5,60.3,14.2,60.3,15z"/>
		<path class="st22" d="M60.3,15v2.1c-0.8-0.2-1.4-0.9-1.4-1.8v-2.1C59.7,13.5,60.3,14.2,60.3,15z"/>
		<path class="st21" d="M58.7,12.1v1.4c-0.3,0.1-0.6,0.2-1,0.2c-1.1,0-1.9-0.7-1.9-1.5s0.9-1.5,1.9-1.5c0.1,0,0.2,0,0.4,0
			c0,0,0.1,0,0.1,0.1C58.5,11.2,58.7,11.6,58.7,12.1z"/>
		<circle class="st6" cx="56.8" cy="12.2" r="0.5"/>
		<path class="st23" d="M49.9,17.1c-0.1-4.3-3-7.8-6.5-7.8c-3.5,0-6.4,3.5-6.5,7.8H49.9z"/>
		<path class="st16" d="M48.3,17.1h-9.9c0.2-1.2,0.8-2.4,1.5-3.2c0.9-1.1,2.2-1.8,3.4-1.8s2.5,0.6,3.4,1.8
			C47.6,14.8,48.1,15.9,48.3,17.1z"/>
		<path class="st23" d="M46.5,17.1h-6.2c0.1-0.3,0.3-0.5,0.4-0.8c0.7-1.1,1.7-1.8,2.7-1.8c1,0,1.9,0.6,2.7,1.8
			C46.2,16.6,46.4,16.9,46.5,17.1z"/>
		<path class="st20" d="M51.1,22.2h-5.3c-0.3,0-0.6,0.3-0.6,0.6c0,0.3,0.3,0.6,0.6,0.6h5.3c0.3,0,0.6-0.3,0.6-0.6
			C51.7,22.5,51.5,22.2,51.1,22.2z"/>
		<path class="st20" d="M51.7,21.1h-5.3c-0.3,0-0.6,0.3-0.6,0.6c0,0.3,0.3,0.6,0.6,0.6h5.3c0.3,0,0.6-0.3,0.6-0.6
			C52.2,21.3,52,21.1,51.7,21.1z"/>
		<path class="st20" d="M52.2,19.9h-5.3c-0.3,0-0.6,0.3-0.6,0.6c0,0.3,0.3,0.6,0.6,0.6h5.3c0.3,0,0.6-0.3,0.6-0.6
			C52.8,20.2,52.5,19.9,52.2,19.9z"/>
		<path class="st23" d="M55.2,20.9c0-1.5-1.8-2.7-4-2.7c-2.2,0-4,1.2-4,2.7c0,1.5,1.8,2.7,4,2.7C53.4,23.6,55.2,22.4,55.2,20.9z"/>
		<path class="st18" d="M52.6,32.6c-0.2-0.7-0.8-1.3-1.6-1.3c-0.8,0-1.4,0.5-1.6,1.3H52.6z"/>
		<path class="st20" d="M55.9,19.5c-0.4,0-0.6-0.3-0.6-0.6v-0.8c0-0.4,0.3-0.6,0.6-0.6s0.6,0.3,0.6,0.6v0.8
			C56.5,19.2,56.3,19.5,55.9,19.5z"/>
		<path class="st20" d="M57.2,19.5c-0.4,0-0.6-0.3-0.6-0.6v-0.8c0-0.4,0.3-0.6,0.6-0.6c0.4,0,0.6,0.3,0.6,0.6v0.8
			C57.8,19.2,57.5,19.5,57.2,19.5z"/>
		<path class="st20" d="M58.5,19.5c-0.4,0-0.6-0.3-0.6-0.6v-0.8c0-0.4,0.3-0.6,0.6-0.6c0.4,0,0.6,0.3,0.6,0.6v0.8
			C59.1,19.2,58.8,19.5,58.5,19.5z"/>
		<path class="st15" d="M60.4,12.7c0,0-0.7,0.8-1.5,0.8c-0.1,0-0.2,0-0.3,0C58,13.4,58,13.1,58,12.7c0-0.4,0.1-0.7,0.6-0.8
			c0.1,0,0.2,0,0.3,0C59.7,11.9,60.4,12.7,60.4,12.7z"/>
		<path class="st18" d="M59.9,12.7c0,0-0.6,0.7-1.3,0.8C58,13.4,58,13.1,58,12.7c0-0.4,0.1-0.7,0.6-0.8C59.3,12,59.9,12.7,59.9,12.7
			z"/>
		<path class="st15" d="M58.8,12.4c0,0.1-0.1,0.2-0.2,0.2c-0.1,0-0.2-0.1-0.2-0.2c0-0.1,0.1-0.2,0.2-0.2
			C58.7,12.2,58.8,12.3,58.8,12.4z"/>
		<path class="st22" d="M58.2,10.9h-3c-1.1,0-2-0.6-2.4-1.6c-0.1-0.3-0.2-0.7-0.2-1h3c0.4,0,0.7,0.1,1,0.2
			C57.5,8.9,58.2,9.8,58.2,10.9z"/>
		<path class="st21" d="M56.8,9.5h-3c-0.4,0-0.7-0.1-1-0.2c-0.1-0.3-0.2-0.7-0.2-1h3c0.4,0,0.7,0.1,1,0.2
			C56.7,8.8,56.8,9.1,56.8,9.5z"/>
		<path class="st23" d="M60.7,20.2c0,0.3-0.1,0.6-0.1,0.9c-0.5,2.1-2.2,3.7-4.3,4.1c-0.3-0.5-0.5-1.1-0.5-1.7c0-1.9,1.6-3.5,3.5-3.5
			C59.8,19.9,60.2,20,60.7,20.2z"/>
	</g>
</g>
<g>
	<g>
		<g>
			<path class="st1" d="M81.7,32.6c-3.2,0-5.7-0.8-8-1.4c-1.8-0.5-3.4-1-5-1c-1,0-1.8-0.6-2-1.6c-0.2-0.9,0.2-1.8,1-2.2
				c0.5-0.2,0.8-0.7,0.9-1.2l1.5-6.6c0.7-5.8,5.7-10.2,11.5-10.2H86c3.5,0,6.8,1.6,9,4.3c0.6,0.7,0.9,1.7,0.7,2.6
				c-0.1,0.9-0.6,1.7-1.4,2.3c-1.1,0.8-1.7,1.8-1.7,2.9s0.6,2,1.7,2.9c0.8,0.6,1.2,1.4,1.4,2.3c0.1,0.9-0.2,1.9-0.7,2.6
				c-2.2,2.7-5.5,4.3-9,4.3H81.7z"/>
			<path class="st1" d="M86,9.4c3.3,0,6.3,1.5,8.2,3.9c0.9,1.1,0.7,2.7-0.4,3.5c-1.3,1-2.1,2.3-2.1,3.7c0,1.4,0.8,2.7,2.1,3.7
				c1.1,0.8,1.3,2.4,0.4,3.5c-1.9,2.4-4.9,3.9-8.2,3.9h-4.4c-5.6,0-9.1-2.5-12.9-2.5c-1.1,0-1.5-1.4-0.5-1.9c0.7-0.4,1.2-1,1.4-1.8
				l1.5-6.6c0.6-5.2,5.1-9.4,10.5-9.4H86 M86,7.4h-4.4c-6.3,0-11.7,4.7-12.5,11l-1.5,6.5c0,0.2-0.2,0.4-0.4,0.5
				c-1.2,0.7-1.9,2-1.5,3.4c0.3,1.4,1.6,2.3,3,2.3c1.5,0,3,0.5,4.7,1c2.3,0.7,4.9,1.5,8.2,1.5H86c3.8,0,7.4-1.7,9.8-4.7
				c0.8-0.9,1.1-2.2,1-3.4c-0.2-1.2-0.8-2.3-1.8-3c-0.5-0.4-1.3-1.1-1.3-2c0-0.9,0.8-1.7,1.3-2c1-0.7,1.6-1.8,1.8-3
				c0.2-1.2-0.2-2.4-1-3.4C93.4,9.1,89.8,7.4,86,7.4L86,7.4z"/>
		</g>
		<g>
			<path class="st1" d="M81.7,32.6c-3.2,0-5.7-0.8-8-1.4c-1.8-0.5-3.4-1-5-1c-1,0-1.8-0.6-2-1.6c-0.2-0.9,0.2-1.8,1-2.2
				c0.5-0.2,0.8-0.7,0.9-1.2l1.5-6.6c0.1-1,0.4-1.9,0.7-2.8c0.9-2.4,2.7-4.5,4.9-5.8c0,0,0,0,0.1,0c1.8-1,3.8-1.6,5.8-1.6h3.2
				c0.1,0,0.3,0,0.4,0.1c4.2,1.9,7.2,5.5,8,9.8c0,0.2,0,0.5-0.1,0.7c-0.3,0.5-0.4,1-0.4,1.5c0,0.5,0.1,1,0.4,1.5
				c0.1,0.2,0.2,0.5,0.1,0.8c-0.8,4.2-3.8,7.9-8,9.7c-0.1,0.1-0.3,0.1-0.4,0.1H81.7z"/>
			<path class="st1" d="M84.9,9.4c3.8,1.7,6.7,5,7.4,9c0,0,0,0,0,0.1c-0.4,0.6-0.6,1.3-0.6,2c0,0.7,0.2,1.4,0.6,2c0,0,0,0,0,0.1
				c-0.7,4-3.6,7.3-7.4,9h-3.2c-5.6,0-9.1-2.5-12.9-2.5c-1.1,0-1.5-1.4-0.5-1.9c0.7-0.4,1.2-1,1.4-1.8l1.5-6.6
				c0.1-0.9,0.3-1.8,0.7-2.6c0.9-2.2,2.5-4.1,4.5-5.3c0,0,0,0,0,0c1.6-0.9,3.4-1.5,5.3-1.5H84.9 M84.9,7.4h-3.2
				c-2.2,0-4.4,0.6-6.3,1.7c0,0,0,0-0.1,0c-2.4,1.4-4.3,3.7-5.3,6.3c-0.4,1-0.6,2-0.8,3l-1.5,6.5c0,0.2-0.2,0.4-0.4,0.5
				c-1.2,0.7-1.9,2-1.5,3.4c0.3,1.4,1.6,2.3,3,2.3c1.5,0,3,0.5,4.7,1c2.3,0.7,4.9,1.5,8.2,1.5h3.2c0.3,0,0.6-0.1,0.8-0.2
				c4.5-2,7.7-5.9,8.5-10.4c0.1-0.5,0-1-0.2-1.5c-0.2-0.3-0.3-0.7-0.3-1c0-0.3,0.1-0.6,0.3-1c0.3-0.5,0.3-1,0.2-1.5
				c-0.9-4.5-4-8.4-8.5-10.4C85.4,7.5,85.2,7.4,84.9,7.4L84.9,7.4z"/>
		</g>
		<g>
			<path class="st1" d="M82.4,32.6c-3.2,0-5.7-0.8-8-1.4c-1.8-0.5-3.4-1-5-1c-0.9,0-1.7-0.5-1.9-1.3c-0.3-0.8,0-1.8,0.8-2.4
				c1-0.7,1.3-2.9,1.7-6.5l0.2-1.9c0.1-0.8,0.3-1.5,0.5-2.2c0.9-2.5,2.6-4.5,5-5.8c0,0,0,0,0.1,0c1.9-1,4.2-1.6,6.5-1.6h2.5
				c0.1,0,0.3,0,0.4,0.1c4.2,1.9,7.2,5.5,8,9.8c0,0.2,0,0.5-0.1,0.7c-0.3,0.5-0.4,1-0.4,1.5c0,0.5,0.1,1,0.4,1.5
				c0.1,0.2,0.2,0.5,0.1,0.8c-0.8,4.2-3.8,7.9-8,9.7c-0.1,0.1-0.3,0.1-0.4,0.1H82.4z"/>
			<path class="st1" d="M84.9,9.4c3.8,1.7,6.7,5,7.4,9c0,0,0,0,0,0.1c-0.4,0.6-0.6,1.3-0.6,2c0,0.7,0.2,1.4,0.6,2c0,0,0,0,0,0.1
				c-0.7,4-3.6,7.3-7.4,9h-2.5c-5.6,0-9.1-2.5-12.9-2.5c-1.1,0-1.4-1.3-0.5-1.9c1.5-1.1,1.7-3.8,2.4-9.1c0.1-0.7,0.3-1.4,0.5-2
				c0.8-2.4,2.4-4.2,4.5-5.3c0,0,0,0,0,0c1.8-1,3.9-1.5,6.1-1.5H84.9 M84.9,7.4h-2.5c-2.6,0-5,0.6-7,1.7c0,0,0,0,0,0c0,0,0,0,0,0
				c-2.6,1.4-4.5,3.6-5.4,6.4c-0.3,0.7-0.4,1.5-0.6,2.4c-0.1,0.7-0.2,1.3-0.3,1.9c-0.4,3-0.7,5.4-1.4,5.9c-1.1,0.8-1.6,2.2-1.2,3.5
				c0.4,1.2,1.5,2,2.9,2c1.5,0,3,0.5,4.7,1c2.3,0.7,4.9,1.5,8.2,1.5h2.5c0.3,0,0.6-0.1,0.8-0.2c4.5-2,7.7-5.9,8.5-10.4
				c0.1-0.5,0-1-0.2-1.5c-0.2-0.3-0.3-0.7-0.3-1c0-0.3,0.1-0.6,0.3-1c0.3-0.5,0.3-1,0.2-1.5c-0.9-4.5-4-8.4-8.5-10.4
				C85.4,7.5,85.2,7.4,84.9,7.4L84.9,7.4z"/>
		</g>
		<g>
			<path class="st1" d="M81.7,32.6c-3.2,0-5.7-0.8-8-1.4c-0.5-0.2-1-0.3-1.5-0.4c-1-0.3-2.2-0.6-3.5-0.6c-0.5,0-0.9-0.1-1.2-0.4
				c-0.5-0.4-0.8-0.9-0.8-1.6c0-0.7,0.3-1.3,0.9-1.8c1-0.7,1.3-2.9,1.7-6.5l0.2-1.8c0.8-5.8,5.5-9.6,12.1-9.6h2.5
				c0.1,0,0.3,0,0.4,0.1c4.2,1.9,7.2,5.5,8,9.8c0.5-0.6,1.1-1.2,1.8-1.8c0.4-0.3,0.8-0.5,1.3-0.7c0.2-0.1,0.4-0.1,0.7-0.1
				c0.8,0,1.4,0.5,1.6,1.3c0.2,1.1,0.3,2.3,0.3,3.6c0,1.2-0.1,2.4-0.3,3.6c-0.1,0.8-0.8,1.3-1.6,1.3c-0.2,0-0.5,0-0.7-0.1
				c-0.5-0.2-0.9-0.5-1.3-0.7c-0.8-0.5-1.3-1.1-1.8-1.8c-0.8,4.3-3.8,7.9-8,9.8c-0.1,0.1-0.3,0.1-0.4,0.1H81.7z"/>
			<path class="st1" d="M84.1,9.4c3.8,1.7,6.7,5,7.4,9c0.1,0.5,0.5,0.8,1,0.8c0.4,0,0.7-0.2,0.9-0.5c0.3-0.6,0.8-1.1,1.5-1.5
				c0.3-0.2,0.7-0.5,1.1-0.6c0.1,0,0.2-0.1,0.2-0.1c0.3,0,0.5,0.2,0.6,0.5c0.2,1.1,0.3,2.2,0.3,3.4c0,1.2-0.1,2.3-0.3,3.4
				c-0.1,0.3-0.3,0.5-0.6,0.5c-0.1,0-0.2,0-0.2-0.1c-0.4-0.2-0.8-0.4-1.1-0.6c-0.6-0.4-1.1-0.9-1.5-1.5c-0.2-0.3-0.5-0.5-0.9-0.5
				c-0.5,0-0.9,0.4-1,0.8c-0.7,4-3.6,7.3-7.4,9h-2.5c-3.7,0-6.6-1.1-9.2-1.8c-1.3-0.4-2.5-0.6-3.7-0.6c-0.3,0-0.5-0.1-0.7-0.2
				c-0.5-0.4-0.5-1.2,0.1-1.7c1.5-1.1,1.7-3.8,2.4-9.1c0.8-5.8,5.7-8.7,11.1-8.7H84.1 M84.1,7.4h-2.5c-7,0-12.2,4.2-13.1,10.5
				c-0.1,0.7-0.2,1.3-0.2,1.9c-0.4,3-0.7,5.4-1.4,5.9c-0.8,0.6-1.3,1.6-1.3,2.6c0,0.9,0.5,1.8,1.2,2.4c0.5,0.4,1.2,0.6,1.8,0.6
				c1.1,0,2.2,0.3,3.2,0.5c0.5,0.1,1,0.3,1.5,0.4c2.3,0.7,4.9,1.5,8.2,1.5h2.5c0.3,0,0.6-0.1,0.8-0.2c3.9-1.7,6.8-4.9,8.1-8.6
				c0.2,0.2,0.5,0.4,0.7,0.6c0.4,0.3,0.9,0.6,1.4,0.8c0.3,0.2,0.7,0.2,1.1,0.2c1.2,0,2.3-0.9,2.5-2.1c0.2-1.2,0.3-2.5,0.3-3.8
				c0-1.3-0.1-2.6-0.3-3.8c-0.2-1.2-1.3-2.1-2.5-2.1c-0.4,0-0.7,0.1-1.1,0.2c-0.5,0.2-1,0.5-1.5,0.8c-0.3,0.2-0.5,0.4-0.7,0.6
				c-1.3-3.8-4.2-6.9-8.1-8.6C84.7,7.5,84.4,7.4,84.1,7.4L84.1,7.4z"/>
		</g>
		<g>
			<ellipse class="st1" cx="82.4" cy="20.5" rx="8.3" ry="6.3"/>
			<path class="st1" d="M82.4,15.1c4,0,7.3,2.4,7.3,5.3s-3.3,5.3-7.3,5.3c-4,0-7.3-2.4-7.3-5.3S78.4,15.1,82.4,15.1 M82.4,13.1
				c-5.2,0-9.3,3.2-9.3,7.3c0,4.1,4.1,7.3,9.3,7.3c5.2,0,9.3-3.2,9.3-7.3C91.7,16.4,87.7,13.1,82.4,13.1L82.4,13.1z"/>
		</g>
		<g>
			<path class="st1" d="M75.1,17.4c-1,0-1.8-0.4-2.3-1.1c-0.5-0.7-0.6-1.6-0.2-2.5c0.3-0.8,0.9-1.5,1.6-2c0.7-0.5,1.6-0.8,2.4-0.8
				c1,0,1.8,0.4,2.3,1.1c0.5,0.7,0.6,1.6,0.2,2.5c-0.3,0.8-0.9,1.5-1.6,2C76.8,17.1,75.9,17.4,75.1,17.4z"/>
			<path class="st1" d="M76.5,12c0.6,0,1.2,0.2,1.5,0.7c0.6,0.9,0.1,2.3-1.1,3.1c-0.6,0.4-1.2,0.6-1.8,0.6c-0.6,0-1.2-0.2-1.5-0.7
				c-0.6-0.9-0.1-2.3,1.1-3.1C75.3,12.2,76,12,76.5,12 M76.5,10C76.5,10,76.5,10,76.5,10c-1,0-2,0.3-2.9,0.9
				c-2.2,1.5-2.9,4.1-1.6,5.9c0.7,1,1.8,1.6,3.2,1.6c1,0,2-0.3,2.9-0.9c2.2-1.5,2.9-4.1,1.6-5.9C79,10.5,77.9,10,76.5,10L76.5,10z"
				/>
		</g>
		<g>
			<path class="st1" d="M96.3,25.4c-0.2,0-0.5,0-0.7-0.1c-0.5-0.2-0.9-0.5-1.3-0.7c-0.2-0.2-0.4-0.4-0.4-0.7
				c-0.2-1.1-0.3-2.2-0.3-3.3s0.1-2.3,0.3-3.3c0-0.3,0.2-0.5,0.4-0.7c0.4-0.3,0.8-0.5,1.3-0.7c0.2-0.1,0.4-0.1,0.7-0.1
				c0.8,0,1.4,0.5,1.6,1.3c0.2,1.1,0.3,2.3,0.3,3.6c0,1.2-0.1,2.4-0.3,3.6C97.7,24.8,97,25.4,96.3,25.4z"/>
			<path class="st1" d="M96.3,16.6c0.3,0,0.5,0.2,0.6,0.5c0.2,1.1,0.3,2.2,0.3,3.4c0,1.2-0.1,2.3-0.3,3.4c-0.1,0.3-0.3,0.5-0.6,0.5
				c-0.1,0-0.2,0-0.2-0.1c-0.4-0.2-0.8-0.4-1.1-0.6c-0.2-1-0.3-2.1-0.3-3.2c0-1.1,0.1-2.2,0.3-3.2c0.3-0.2,0.7-0.5,1.1-0.6
				C96.1,16.6,96.2,16.6,96.3,16.6 M96.3,14.6C96.3,14.6,96.3,14.6,96.3,14.6c-0.4,0-0.7,0.1-1.1,0.2c-0.5,0.2-1,0.5-1.5,0.8
				C93.3,16,93,16.4,92.9,17c-0.2,1.1-0.3,2.3-0.3,3.5c0,1.2,0.1,2.4,0.3,3.5c0.1,0.5,0.4,1,0.8,1.3c0.4,0.3,0.9,0.6,1.4,0.8
				c0.3,0.2,0.7,0.2,1.1,0.2c1.2,0,2.3-0.9,2.5-2.1c0.2-1.2,0.3-2.5,0.3-3.8c0-1.3-0.1-2.6-0.3-3.8C98.6,15.5,97.5,14.6,96.3,14.6
				L96.3,14.6z"/>
		</g>
		<g>
			<g>
				<path class="st1" d="M88.5,27.9c-0.1,0-0.1,0-0.2,0c-0.5-0.1-0.8-0.5-0.8-1c0-1.1-0.1-2.6-0.1-4.2c-0.2-3.2-0.4-6.8,0.2-8.9
					c0.1-0.5,0.5-0.8,1-0.8c0.1,0,0.1,0,0.2,0c0.5,0.1,0.9,0.6,0.8,1.2c-0.2,1.2,0,3.1,0.2,5.1c0.3,2.9,0.6,5.9-0.2,7.9
					C89.3,27.7,88.9,27.9,88.5,27.9z"/>
				<path class="st1" d="M88.5,14c-0.6,3.1,1.3,9.6,0,12.9C88.6,23.6,87.8,17,88.5,14 M88.5,12c-0.9,0-1.7,0.6-1.9,1.5
					c-0.6,2.3-0.4,5.8-0.2,9.2c0.1,1.6,0.2,3,0.1,4.1c0,1,0.7,1.8,1.6,2c0.1,0,0.3,0,0.4,0c0.8,0,1.6-0.5,1.9-1.3
					c0.9-2.3,0.6-5.4,0.3-8.4c-0.2-1.8-0.4-3.8-0.2-4.8c0.2-1.1-0.5-2.1-1.5-2.3C88.8,12.1,88.7,12,88.5,12L88.5,12z M88.5,16
					L88.5,16L88.5,16L88.5,16z"/>
			</g>
			<g>
				<path class="st1" d="M86.7,28.8c-0.1,0-0.1,0-0.2,0c-0.5-0.1-0.8-0.5-0.8-1c0-1.3-0.1-3-0.2-4.8c-0.2-3.6-0.4-7.7,0.2-10.1
					c0.1-0.5,0.5-0.8,1-0.8c0.1,0,0.1,0,0.2,0c0.5,0.1,0.9,0.7,0.8,1.2c-0.3,1.3-0.1,3.4,0.2,5.6c0.3,3.3,0.7,6.7-0.2,9.1
					C87.5,28.5,87.1,28.8,86.7,28.8z"/>
				<path class="st1" d="M86.7,13.2c-0.7,3.3,1.4,10.7,0,14.6C86.8,23.9,85.9,16.5,86.7,13.2 M86.7,11.2c-0.9,0-1.7,0.6-1.9,1.5
					c-0.6,2.5-0.4,6.5-0.2,10.4c0.1,1.8,0.2,3.5,0.2,4.7c0,1,0.7,1.8,1.6,2c0.1,0,0.2,0,0.4,0c0.8,0,1.6-0.5,1.9-1.3
					c0.9-2.7,0.6-6.2,0.2-9.5c-0.2-2.1-0.4-4.2-0.2-5.3c0.2-1.1-0.4-2.1-1.5-2.4C87,11.2,86.9,11.2,86.7,11.2L86.7,11.2z M86.7,15.2
					L86.7,15.2L86.7,15.2L86.7,15.2z"/>
			</g>
			<g>
				<path class="st1" d="M84.9,29.2c0,0-0.1,0-0.1,0c-0.5-0.1-0.9-0.5-0.9-1c0-1.6-0.1-3.4-0.2-5.4c-0.2-3.9-0.4-7.9,0.2-10.3
					c0.1-0.5,0.5-0.8,1-0.8c0.1,0,0.2,0,0.2,0c0.5,0.1,0.9,0.7,0.7,1.2c-0.3,1.2-0.1,3.4,0.1,5.6c0.3,3.2,0.7,6.9-0.2,9.8
					C85.7,28.9,85.3,29.2,84.9,29.2z"/>
				<path class="st1" d="M84.9,12.8c-0.8,3.2,1.4,10.6,0,15.4C84.9,23.5,84.1,16.1,84.9,12.8 M84.9,10.8c-0.9,0-1.7,0.6-1.9,1.5
					c-0.6,2.5-0.4,6.6-0.2,10.6c0.1,1.9,0.2,3.8,0.2,5.3c0,1,0.7,1.9,1.7,2c0.1,0,0.2,0,0.3,0c0.9,0,1.7-0.6,1.9-1.4
					c0.9-3.1,0.5-6.9,0.2-10.2c-0.2-2.1-0.4-4.2-0.2-5.3c0.3-1.1-0.4-2.1-1.5-2.4C85.2,10.8,85,10.8,84.9,10.8L84.9,10.8z
					 M84.9,14.8L84.9,14.8L84.9,14.8L84.9,14.8z"/>
			</g>
			<g>
				<path class="st1" d="M83.1,30c0,0-0.1,0-0.1,0c-0.5-0.1-0.9-0.5-0.9-1c0-1.7-0.1-3.8-0.2-6c-0.2-4.4-0.4-8.9,0.2-11.4
					c0.1-0.5,0.5-0.8,1-0.8c0.1,0,0.2,0,0.2,0c0.5,0.1,0.9,0.7,0.7,1.2c-0.3,1.4-0.1,3.7,0.2,6.3c0.3,3.6,0.7,7.7-0.2,10.9
					C83.9,29.7,83.5,30,83.1,30z"/>
				<path class="st1" d="M83.1,11.9c-0.8,3.5,1.5,11.8,0,17.1C83.1,23.8,82.2,15.4,83.1,11.9 M83.1,9.9c-0.9,0-1.7,0.6-1.9,1.5
					c-0.6,2.6-0.4,7.2-0.2,11.6c0.1,2.2,0.2,4.2,0.2,5.9c0,1,0.7,1.9,1.7,2c0.1,0,0.2,0,0.3,0c0.9,0,1.7-0.6,1.9-1.5
					c0.9-3.3,0.5-7.5,0.2-11.2c-0.2-2.3-0.4-4.8-0.2-6c0.2-1.1-0.4-2.1-1.5-2.4C83.4,9.9,83.2,9.9,83.1,9.9L83.1,9.9z M83.1,13.9
					L83.1,13.9L83.1,13.9L83.1,13.9z"/>
			</g>
			<g>
				<path class="st1" d="M81.3,30.9c-0.1,0-0.1,0-0.2,0c-0.5-0.1-0.8-0.5-0.8-1c0-1.5-0.1-3.6-0.2-5.9c-0.2-4.7-0.4-10,0.2-13
					c0.1-0.5,0.5-0.8,1-0.8c0.1,0,0.1,0,0.2,0c0.5,0.1,0.9,0.6,0.8,1.2c-0.3,1.7-0.1,4.6,0.2,7.6c0.4,4.2,0.7,8.6-0.2,11.3
					C82.1,30.6,81.7,30.9,81.3,30.9z"/>
				<path class="st1" d="M81.3,11.1c-0.7,4.3,1.5,14.3,0,18.8C81.4,25.5,80.3,15.5,81.3,11.1 M81.3,9.1c-0.9,0-1.8,0.7-2,1.6
					c-0.7,3.2-0.4,8.5-0.2,13.3c0.1,2.3,0.2,4.4,0.2,5.9c0,1,0.7,1.8,1.6,2c0.1,0,0.2,0,0.4,0c0.8,0,1.6-0.5,1.9-1.3
					c1-2.9,0.6-7.4,0.3-11.7c-0.2-2.8-0.5-5.7-0.2-7.4c0.2-1.1-0.5-2.1-1.6-2.3C81.5,9.1,81.4,9.1,81.3,9.1L81.3,9.1z M81.3,13.1
					L81.3,13.1L81.3,13.1L81.3,13.1z"/>
			</g>
			<g>
				<path class="st1" d="M79.4,29.2c0,0-0.1,0-0.1,0c-0.5-0.1-0.9-0.5-0.9-1c0-1.6-0.1-3.4-0.2-5.4c-0.2-3.9-0.4-7.8,0.2-10.1
					c0,0,0-0.1,0-0.1c0.1-0.5,0.5-0.8,1-0.8c0.1,0,0.2,0,0.2,0c0.5,0.1,0.9,0.7,0.7,1.2c0,0,0,0.1,0,0.1c-0.3,1.2-0.1,3.2,0.2,5.4
					c0.3,3.3,0.7,6.9-0.1,10C80.3,28.9,79.9,29.2,79.4,29.2z"/>
				<path class="st1" d="M79.4,12.8L79.4,12.8 M79.4,12.8c0,0,0,0.1,0,0.1C79.4,12.8,79.4,12.8,79.4,12.8 M79.4,12.9
					c-0.7,3.1,1.4,10.4,0,15.3C79.5,23.5,78.7,16.2,79.4,12.9 M79.4,10.8c-0.1,0-0.3,0-0.4,0c-0.3,0.1-0.6,0.2-0.8,0.4
					c-0.2,0.2-0.4,0.4-0.6,0.7c-0.1,0.2-0.1,0.3-0.2,0.5l0,0c0,0,0,0,0,0c-0.6,2.4-0.4,6.5-0.2,10.4c0.1,1.9,0.2,3.8,0.2,5.3
					c0,1,0.7,1.9,1.7,2c0.1,0,0.2,0,0.3,0c0.9,0,1.7-0.6,1.9-1.5c0.9-3.2,0.5-7,0.2-10.3c-0.2-2-0.4-4.1-0.2-5.1
					c0.1-0.2,0.1-0.4,0.1-0.6c0-1.1-0.8-1.9-1.9-2C79.5,10.8,79.5,10.8,79.4,10.8L79.4,10.8z"/>
			</g>
			<g>
				<path class="st1" d="M77.6,25.6c-0.1,0-0.2,0-0.3,0c-0.5-0.1-0.8-0.5-0.7-1c0-0.9,0-2.2-0.1-3.6c-0.2-2.8-0.4-6,0.2-8.1
					c0.1-0.4,0.5-0.7,1-0.7c0.1,0,0.2,0,0.2,0c0.5,0.1,0.9,0.7,0.7,1.2c-0.2,1.1,0,2.9,0.2,4.6c0.3,2.6,0.6,5.3-0.3,7.1
					C78.3,25.4,78,25.6,77.6,25.6z"/>
				<path class="st1" d="M77.6,13.2c-0.6,2.9,1.4,8.7,0,11.4C77.7,21.9,76.8,16.1,77.6,13.2 M77.6,11.2c-0.9,0-1.7,0.6-1.9,1.5
					c-0.6,2.3-0.4,5.5-0.2,8.4c0.1,1.4,0.2,2.7,0.1,3.5c0,0.9,0.6,1.8,1.5,2c0.2,0,0.3,0.1,0.5,0.1c0.7,0,1.4-0.4,1.8-1.1
					c1.1-2.1,0.7-4.9,0.4-7.7c-0.2-1.6-0.4-3.3-0.2-4.3c0.2-1.1-0.4-2.1-1.5-2.4C77.9,11.2,77.8,11.2,77.6,11.2L77.6,11.2z
					 M77.6,15.2L77.6,15.2L77.6,15.2L77.6,15.2z"/>
			</g>
			<g>
				<path class="st1" d="M75.8,23.9c-0.1,0-0.2,0-0.3,0c-0.4-0.1-0.7-0.5-0.7-1c0-0.7,0-1.7-0.1-2.7c-0.2-2.2-0.4-4.7,0.2-6.4
					c0.1-0.4,0.5-0.7,0.9-0.7c0.1,0,0.2,0,0.3,0.1c0.5,0.2,0.8,0.7,0.6,1.2c-0.2,0.7,0,2,0.2,3.2c0.3,2,0.6,4.2-0.3,5.8
					C76.5,23.7,76.2,23.9,75.8,23.9z"/>
				<path class="st1" d="M75.8,14c-0.6,2,1.3,6.6,0,8.8C75.9,20.8,75.1,16.2,75.8,14 M75.8,12c-0.8,0-1.6,0.5-1.9,1.3
					c-0.6,1.8-0.4,4.5-0.2,6.8c0.1,1,0.2,2,0.1,2.6c0,0.9,0.6,1.8,1.4,2c0.2,0.1,0.4,0.1,0.6,0.1c0.7,0,1.4-0.4,1.7-1
					c1.1-1.9,0.7-4.3,0.4-6.4c-0.1-1-0.3-2.3-0.2-2.8c0.3-1-0.3-2.2-1.3-2.5C76.2,12.1,76,12,75.8,12L75.8,12z M75.8,16L75.8,16
					L75.8,16L75.8,16z"/>
			</g>
			<g>
				<path class="st1" d="M90.2,25.5c-0.1,0-0.2,0-0.3,0c-0.4-0.1-0.7-0.5-0.7-1c0-0.7,0-1.7-0.1-2.7c-0.2-2.2-0.4-4.7,0.2-6.4
					c0.1-0.4,0.5-0.7,0.9-0.7c0.1,0,0.2,0,0.3,0c0.5,0.2,0.8,0.7,0.6,1.2c-0.2,0.7,0,2,0.2,3.2c0.3,2,0.6,4.2-0.3,5.8
					C90.9,25.3,90.6,25.5,90.2,25.5z"/>
				<path class="st1" d="M90.2,15.6c-0.6,2,1.3,6.6,0,8.8C90.3,22.4,89.5,17.8,90.2,15.6 M90.2,13.6c-0.8,0-1.6,0.5-1.9,1.3
					c-0.6,1.8-0.4,4.5-0.2,6.8c0.1,1,0.2,2,0.1,2.6c0,0.9,0.6,1.8,1.4,2c0.2,0.1,0.4,0.1,0.6,0.1c0.7,0,1.4-0.4,1.7-1
					c1.1-1.9,0.7-4.3,0.4-6.4c-0.1-1-0.3-2.3-0.2-2.8c0.3-1-0.3-2.2-1.3-2.5C90.6,13.7,90.4,13.6,90.2,13.6L90.2,13.6z M90.2,17.6
					L90.2,17.6L90.2,17.6L90.2,17.6z"/>
			</g>
		</g>
		<g>
			<path class="st1" d="M74.3,29.4c-0.8,0-1.5-0.4-1.9-1.1l-1.2-2.1C71,25.9,71,25.7,71,25.4l0.7-2.5c0.3-1,1.1-1.7,2.2-1.7
				c0.7,0,1.3,0.3,1.7,0.8l1.4,1.6c0.6,0.7,0.7,1.7,0.3,2.5l-1,2C75.9,28.9,75.2,29.4,74.3,29.4L74.3,29.4z"/>
			<path class="st1" d="M73.9,22.3c0.3,0,0.7,0.1,1,0.4l1.4,1.6c0.3,0.4,0.4,0.9,0.2,1.4l-1,2c-0.2,0.5-0.7,0.7-1.1,0.7
				c-0.4,0-0.8-0.2-1.1-0.6L72,25.7l0.7-2.5C72.8,22.6,73.4,22.3,73.9,22.3 M73.9,20.3c-1.5,0-2.8,1-3.1,2.4l-0.7,2.5
				c-0.1,0.5-0.1,1.1,0.2,1.5l1.2,2.1c0.6,1,1.6,1.6,2.8,1.6c1.2,0,2.4-0.7,2.9-1.8l1-2c0.6-1.2,0.4-2.6-0.4-3.6l-1.4-1.6
				C75.8,20.7,74.9,20.3,73.9,20.3L73.9,20.3z"/>
		</g>
		<g>
			<circle class="st1" cx="72.1" cy="25.7" r="1.9"/>
			<path class="st1" d="M72.1,24.8c0.5,0,0.9,0.4,0.9,0.9c0,0.5-0.4,0.9-0.9,0.9c-0.5,0-0.9-0.4-0.9-0.9
				C71.2,25.2,71.6,24.8,72.1,24.8 M72.1,22.8c-1.6,0-2.9,1.3-2.9,2.9s1.3,2.9,2.9,2.9c1.6,0,2.9-1.3,2.9-2.9S73.7,22.8,72.1,22.8
				L72.1,22.8z"/>
		</g>
		<g>
			<path class="st1" d="M72.5,30.7c-0.1,0-0.2,0-0.3,0c-1-0.3-2.2-0.6-3.5-0.6c-0.5,0-0.9-0.1-1.2-0.4c-0.2-0.2-0.4-0.5-0.4-0.8
				s0.1-0.6,0.3-0.8c0.7-0.6,1.6-1,2.6-1c1.4,0,2.7,0.8,3.4,2.1c0.2,0.4,0.1,0.8-0.1,1.1C73.1,30.6,72.8,30.7,72.5,30.7z"/>
			<path class="st1" d="M70,28.2c1.1,0,2,0.6,2.5,1.5c-1.3-0.4-2.5-0.6-3.7-0.6c-0.3,0-0.5-0.1-0.7-0.2C68.6,28.4,69.2,28.2,70,28.2
				 M70,26.2c-1.2,0-2.3,0.4-3.2,1.2c-0.4,0.4-0.7,1-0.7,1.6c0,0.6,0.3,1.2,0.8,1.5c0.5,0.4,1.2,0.6,1.8,0.6c1.1,0,2.2,0.3,3.2,0.5
				c0.2,0,0.4,0.1,0.5,0.1c0.6,0,1.2-0.3,1.5-0.7c0.5-0.6,0.6-1.5,0.2-2.2C73.4,27.2,71.8,26.2,70,26.2L70,26.2z"/>
		</g>
		<g>
			<path class="st1" d="M74.2,28.5c-0.2,0-0.5-0.1-0.7-0.3c-0.3-0.3-0.4-0.9-0.2-1.3c0.3-0.5,0.5-1.2,0.5-1.9s-0.2-1.3-0.5-1.9
				c-0.3-0.4-0.2-0.9,0.2-1.3c0.2-0.2,0.4-0.3,0.7-0.3c0.2,0,0.4,0.1,0.6,0.2c1,0.7,1.6,1.9,1.6,3.2s-0.6,2.5-1.6,3.2
				C74.6,28.5,74.4,28.5,74.2,28.5z"/>
			<path class="st1" d="M74.2,22.7c0.7,0.5,1.2,1.4,1.2,2.4c0,1-0.5,1.9-1.2,2.4c0.4-0.7,0.7-1.5,0.7-2.4S74.6,23.4,74.2,22.7
				 M74.2,20.7c-0.5,0-1,0.2-1.4,0.5c-0.7,0.7-0.8,1.7-0.3,2.5c0.2,0.4,0.4,0.8,0.4,1.3c0,0.5-0.1,1-0.4,1.3
				c-0.5,0.8-0.4,1.9,0.3,2.5c0.4,0.4,0.9,0.5,1.4,0.5c0.4,0,0.8-0.1,1.2-0.4c1.3-0.9,2.1-2.4,2.1-4c0-1.6-0.8-3.1-2.1-4
				C75,20.9,74.6,20.7,74.2,20.7L74.2,20.7z"/>
		</g>
	</g>
	<g>
		<path class="st24" d="M93.8,24.1c1.1,0.8,1.3,2.4,0.4,3.5c-1.9,2.4-4.9,3.9-8.2,3.9h-4.4c-5.6,0-9.1-2.5-12.9-2.5
			c-1.1,0-1.5-1.4-0.5-1.9c0.7-0.4,1.2-1,1.4-1.8l1.5-6.6c0.6-5.2,5.1-9.4,10.5-9.4H86c3.3,0,6.3,1.5,8.2,3.9
			c0.9,1.1,0.7,2.7-0.4,3.5c-1.3,1-2.1,2.3-2.1,3.7C91.7,21.9,92.5,23.2,93.8,24.1z"/>
		<path class="st24" d="M91.7,20.5c0,0.7,0.2,1.4,0.6,2c0,0,0,0,0,0.1c-0.7,4-3.6,7.3-7.4,9h-3.2c-5.6,0-9.1-2.5-12.9-2.5
			c-1.1,0-1.5-1.4-0.5-1.9c0.7-0.4,1.2-1,1.4-1.8l1.5-6.6c0.1-0.9,0.3-1.8,0.7-2.6c0.9-2.2,2.5-4.1,4.5-5.3c0,0,0,0,0,0
			c1.6-0.9,3.4-1.5,5.3-1.5h3.2c3.8,1.7,6.7,5,7.4,9c0,0,0,0,0,0.1C91.9,19.1,91.7,19.8,91.7,20.5z"/>
		<path class="st15" d="M91.7,20.5c0,0.7,0.2,1.4,0.6,2c0,0,0,0,0,0.1c-0.7,4-3.6,7.3-7.4,9h-2.5c-5.6,0-9.1-2.5-12.9-2.5
			c-1.1,0-1.4-1.3-0.5-1.9c1.5-1.1,1.7-3.8,2.4-9.1c0.1-0.7,0.3-1.4,0.5-2c0.8-2.4,2.4-4.2,4.5-5.3c0,0,0,0,0,0
			c1.8-1,3.9-1.5,6.1-1.5h2.5c3.8,1.7,6.7,5,7.4,9c0,0,0,0,0,0.1C91.9,19.1,91.7,19.8,91.7,20.5z"/>
		<path class="st18" d="M97.2,20.5c0,1.2-0.1,2.3-0.3,3.4c-0.1,0.4-0.5,0.6-0.8,0.4c-0.4-0.2-0.8-0.4-1.1-0.6
			c-0.6-0.4-1.1-0.9-1.5-1.5c-0.2-0.3-0.5-0.5-0.9-0.5c-0.5,0-0.9,0.4-1,0.8c-0.7,4-3.6,7.3-7.4,9h-2.5c-3.7,0-6.6-1.1-9.2-1.8
			c-1.3-0.4-2.5-0.6-3.7-0.6c-0.3,0-0.5-0.1-0.7-0.2c-0.5-0.4-0.5-1.2,0.1-1.7c1.5-1.1,1.7-3.8,2.4-9.1c0.8-5.8,5.7-8.7,11.1-8.7
			h2.5c3.8,1.7,6.7,5,7.4,9c0.1,0.5,0.5,0.8,1,0.8c0.4,0,0.7-0.2,0.9-0.5c0.3-0.6,0.8-1.1,1.5-1.5c0.3-0.2,0.7-0.5,1.1-0.6
			c0.4-0.2,0.8,0.1,0.8,0.4C97.1,18.1,97.2,19.3,97.2,20.5z"/>
		<ellipse class="st25" cx="82.4" cy="20.5" rx="7.3" ry="5.3"/>
		<path class="st25" d="M78,12.7c0.6,0.9,0.1,2.3-1.1,3.1c-1.2,0.8-2.7,0.8-3.3-0.1c-0.6-0.9-0.1-2.3,1.1-3.1
			C76,11.7,77.4,11.8,78,12.7z"/>
		<path class="st24" d="M97.2,20.5c0,1.2-0.1,2.3-0.3,3.4c-0.1,0.4-0.5,0.6-0.8,0.4c-0.4-0.2-0.8-0.4-1.1-0.6
			c-0.2-1-0.3-2.1-0.3-3.2c0-1.1,0.1-2.2,0.3-3.2c0.3-0.2,0.7-0.5,1.1-0.6c0.4-0.2,0.8,0.1,0.8,0.4C97.1,18.1,97.2,19.3,97.2,20.5z"
			/>
		<g>
			<path class="st24" d="M88.5,26.9c0.1-3.3-0.7-9.9,0-12.9C87.9,17.1,89.8,23.7,88.5,26.9z"/>
			<path class="st24" d="M86.7,27.8c0.1-3.9-0.8-11.3,0-14.6C86,16.4,88.1,23.8,86.7,27.8z"/>
			<path class="st24" d="M84.9,28.2c0-4.7-0.8-12.1,0-15.4C84.1,16,86.3,23.4,84.9,28.2z"/>
			<path class="st24" d="M83.1,29c0-5.3-0.8-13.6,0-17.1C82.3,15.4,84.5,23.8,83.1,29z"/>
			<path class="st24" d="M81.3,29.9c0.1-4.4-0.9-14.3,0-18.8C80.5,15.4,82.8,25.4,81.3,29.9z"/>
			<path class="st24" d="M79.4,28.2c0-4.8-0.8-12.2,0-15.4C78.7,15.8,80.8,23.2,79.4,28.2z"/>
			<path class="st24" d="M77.6,24.6c0.1-2.7-0.8-8.4,0-11.4C77,16.1,79,21.9,77.6,24.6z"/>
			<path class="st24" d="M75.8,22.9c0.1-2.1-0.8-6.6,0-8.8C75.2,16.1,77.1,20.6,75.8,22.9z"/>
			<path class="st24" d="M90.2,24.5c0.1-2.1-0.8-6.6,0-8.8C89.6,17.7,91.5,22.2,90.2,24.5z"/>
		</g>
		<path class="st26" d="M72,25.7l1.2,2.1c0.5,0.9,1.8,0.8,2.2-0.1l1-2c0.2-0.4,0.2-1-0.2-1.4l-1.4-1.6c-0.7-0.8-1.9-0.5-2.2,0.5
			L72,25.7z"/>
		<circle class="st27" cx="72.1" cy="25.7" r="0.9"/>
		<path class="st24" d="M72.5,29.7c-1.3-0.4-2.5-0.6-3.7-0.6c-0.3,0-0.5-0.1-0.7-0.2c0.5-0.5,1.2-0.7,1.9-0.7
			C71.1,28.2,72,28.8,72.5,29.7z"/>
		<path class="st27" d="M75.5,25.1c0,1-0.5,1.9-1.2,2.4c0.4-0.7,0.7-1.5,0.7-2.4s-0.2-1.7-0.7-2.4C75,23.3,75.5,24.1,75.5,25.1z"/>
	</g>
</g>
</svg>
