<?xml version="1.0" encoding="utf-8"?>
<!-- Generator: Adobe Illustrator 22.1.0, SVG Export Plug-In . SVG Version: 6.00 Build 0)  -->
<svg version="1.1" id="Layer_1" xmlns="http://www.w3.org/2000/svg" xmlns:xlink="http://www.w3.org/1999/xlink" x="0px" y="0px"
	 viewBox="0 0 400 400" style="enable-background:new 0 0 400 400;" xml:space="preserve">
<style type="text/css">
	.st0{fill:#FFFFFF;}
	.st1{fill:#CC0000;}
	.st2{font-family:'Nunito-Bold';}
	.st3{font-size:21.0374px;}
	.st4{fill:#00CDC8;stroke:#1CA49D;stroke-width:1.9246;stroke-linecap:round;stroke-linejoin:round;stroke-miterlimit:10;}
	.st5{fill:none;stroke:#1CA49D;stroke-width:1.9246;stroke-linecap:round;stroke-linejoin:round;stroke-miterlimit:10;}
	.st6{fill:none;stroke:#490A3D;stroke-width:3.8492;stroke-linecap:round;stroke-miterlimit:10;}
	.st7{fill:#00CDC8;stroke:#1CA49D;stroke-width:1.7468;stroke-linecap:round;stroke-linejoin:round;stroke-miterlimit:10;}
	.st8{fill:none;stroke:#1CA49D;stroke-width:1.7468;stroke-linecap:round;stroke-linejoin:round;stroke-miterlimit:10;}
	.st9{fill:none;stroke:#490A3D;stroke-width:3.4936;stroke-linecap:round;stroke-miterlimit:10;}
	.st10{fill:#00CDC8;stroke:#1CA49D;stroke-width:2.0894;stroke-linecap:round;stroke-linejoin:round;stroke-miterlimit:10;}
	.st11{fill:none;stroke:#1CA49D;stroke-width:2.0894;stroke-linecap:round;stroke-linejoin:round;stroke-miterlimit:10;}
	.st12{fill:none;stroke:#490A3D;stroke-width:4.1788;stroke-linecap:round;stroke-miterlimit:10;}
	.st13{font-size:26.5254px;}
</style>
<g>
	<path class="st0" d="M201.1,376.4c-96.9,0-175.8-78.9-175.8-175.8c0-47.1,18.2-91.3,51.4-124.4S154,24.8,201.1,24.8
		c46.8,0,90.8,18.2,123.8,51.4c33.1,33.2,51.3,77.4,51.3,124.4v9.3c0,0.1,0,0.2,0,0.3c-1.4,23.5-6.9,45.3-16.8,66.6
		c-14.3,29.4-36.4,54.2-63.7,71.8C267.4,366.8,234.7,376.4,201.1,376.4z"/>
	<path class="st0" d="M201.1,29.3c94.2,0,170.5,76.3,170.5,171.2c0,2.9,0,6.4,0,9.3c-1.4,23.5-7.1,45-16.4,64.9
		c-27.8,57.1-86.3,97-154.1,97c-94.9,0-171.2-77.1-171.2-171.2C29.9,105.7,106.2,29.3,201.1,29.3 M201.1,20.2
		c-48.3,0-93.7,18.7-127.7,52.7s-52.7,79.3-52.7,127.7c0,24.3,4.8,47.8,14.1,70c9.1,21.5,22,40.8,38.6,57.4s35.8,29.6,57.3,38.8
		c22.3,9.4,45.9,14.2,70.4,14.2c34.4,0,68-9.9,97-28.6c28.1-18.1,50.7-43.6,65.3-73.6c0-0.1,0.1-0.1,0.1-0.2
		c10.1-21.9,15.8-44.2,17.2-68.2c0-0.2,0-0.4,0-0.6v-9.3c0-48.3-18.7-93.6-52.6-127.7c-16.5-16.5-35.7-29.5-57.1-38.6
		C248.9,24.9,225.4,20.2,201.1,20.2L201.1,20.2z"/>
</g>
<path class="st1" d="M371.7,200.6c0,2.9,0,6.4,0,9.3c-1.4,23.5-7.1,45-16.4,64.9c-27.8,57.1-86.3,97-154.1,97
	C106.3,371.8,30,294.7,30,200.6c0-94.9,76.3-171.2,171.2-171.2C295.3,29.3,371.7,105.7,371.7,200.6z"/>
<circle class="st0" cx="200.4" cy="200.6" r="135.6"/>
<circle class="st1" cx="200.4" cy="200.6" r="100.6"/>
<circle class="st0" cx="200.4" cy="200.6" r="64.9"/>
<ellipse class="st1" cx="200.4" cy="200.6" rx="29.3" ry="29.3"/>
<g>
	<text transform="matrix(1 0 0 1 139.7461 206.2002)" class="st1 st2 st3">20</text>
	<text transform="matrix(1 0 0 1 104.9888 206.2002)" class="st0 st2 st3">15</text>
	<g>
		<text transform="matrix(1 0 0 1 68.5059 206.2002)" class="st1 st2 st3">10</text>
	</g>
	<text transform="matrix(1 0 0 1 40.6089 206.2002)" class="st0 st2 st3">5</text>
</g>
<g>
	<text transform="matrix(6.123234e-17 1 -1 6.123234e-17 193.9922 138.8872)" class="st1 st2 st3">20</text>
	<text transform="matrix(6.123234e-17 1 -1 6.123234e-17 193.9922 104.1299)" class="st0 st2 st3">15</text>
	<g>
		<text transform="matrix(6.123234e-17 1 -1 6.123234e-17 193.9922 67.647)" class="st1 st2 st3">10</text>
	</g>
	<text transform="matrix(6.123234e-17 1 -1 6.123234e-17 193.9922 39.7495)" class="st0 st2 st3">5</text>
</g>
<g>
	<polygon class="st4" points="300.3,124.5 279.6,124.8 309,95.4 329.7,95.1 	"/>
	<polygon class="st4" points="279.9,104.1 279.6,124.8 309,95.4 309.3,74.7 	"/>
	<line class="st5" x1="295.3" y1="109.1" x2="321.4" y2="109.1"/>
	<line class="st5" x1="297.9" y1="106.5" x2="326.9" y2="106.5"/>
	<line class="st5" x1="284.8" y1="119" x2="284.8" y2="92.9"/>
	<line class="st5" x1="287.4" y1="116.4" x2="287.4" y2="87.4"/>
	<g>
		<line class="st6" x1="314" y1="90.4" x2="207.8" y2="196.6"/>
	</g>
</g>
<g>
	<polygon class="st7" points="71.2,322.9 90,322.6 63.3,349.3 44.5,349.6 	"/>
	<polygon class="st7" points="89.7,341.4 90,322.6 63.3,349.3 63,368.1 	"/>
	<line class="st8" x1="75.7" y1="336.9" x2="52" y2="336.9"/>
	<line class="st8" x1="73.4" y1="339.2" x2="47" y2="339.2"/>
	<line class="st8" x1="85.2" y1="327.9" x2="85.2" y2="351.6"/>
	<line class="st8" x1="82.9" y1="330.2" x2="82.9" y2="356.5"/>
	<g>
		<line class="st9" x1="58.7" y1="353.9" x2="149.1" y2="263.5"/>
	</g>
</g>
<g>
	<polygon class="st10" points="305.5,335.3 305.1,312.8 337,344.7 337.4,367.2 	"/>
	<polygon class="st10" points="327.6,313.1 305.1,312.8 337,344.7 359.5,345.1 	"/>
	<line class="st11" x1="322.2" y1="329.9" x2="322.2" y2="358.2"/>
	<line class="st11" x1="324.9" y1="332.6" x2="324.9" y2="364.1"/>
	<line class="st11" x1="311.4" y1="318.5" x2="339.8" y2="318.5"/>
	<line class="st11" x1="314.2" y1="321.2" x2="345.7" y2="321.2"/>
	<g>
		<line class="st12" x1="342.5" y1="350.2" x2="227.2" y2="234.9"/>
	</g>
</g>
<text transform="matrix(1 0 0 1 182.688 208.6973)" class="st0 st2 st13">25</text>
</svg>
