<?xml version="1.0" encoding="utf-8"?>
<!-- Generator: Adobe Illustrator 22.1.0, SVG Export Plug-In . SVG Version: 6.00 Build 0)  -->
<svg version="1.1" id="Layer_1" xmlns="http://www.w3.org/2000/svg" xmlns:xlink="http://www.w3.org/1999/xlink" x="0px" y="0px"
	 viewBox="0 0 400 400" style="enable-background:new 0 0 400 400;" xml:space="preserve">
<style type="text/css">
	.st0{fill:#FFFFFF;}
	.st1{fill:#00A0D8;}
	.st2{enable-background:new    ;}
	.st3{fill:none;stroke:#000000;stroke-width:3.7291;stroke-linecap:round;stroke-linejoin:round;stroke-miterlimit:10;}
	.st4{fill:#F94848;}
	.st5{fill:#E23D3D;}
	.st6{fill:#B25719;}
	.st7{fill:#659C35;}
	.st8{fill:#88C057;}
	.st9{fill:#E22020;}
	.st10{fill:#ED8F20;}
	.st11{fill:#EF771D;}
	.st12{fill:#9B6026;}
	.st13{fill:#6DC069;}
	.st14{fill:#3B9645;}
	.st15{fill:#2A7936;}
	.st16{fill:#F2D422;}
	.st17{fill:#E2C01A;}
	.st18{fill:#585A60;}
	.st19{opacity:0.1;enable-background:new    ;}
	.st20{fill:#F8D65C;}
	.st21{fill:#CCB24D;}
</style>
<g>
	<g>
		<path class="st0" d="M148.1,111.4c-2.5,0-5.1-0.4-7.5-1.1c-0.7-0.2-1.4-0.3-2.2-0.3s-1.5,0.1-2.2,0.3c-2.4,0.7-5,1.1-7.5,1.1
			c-4.7,0-9.7-2.5-14.3-7.1C106.2,96.1,100,82.2,100,72c0-3,0.3-5.8,1-8.4l-8.9,9c-2,2-4.7,3.1-7.6,3.1c-0.2,0-0.3,0-0.5,0
			c-0.1,0-0.2,0-0.3,0l-40-4.3c-2.8-0.2-5.3-1.5-7.1-3.5c-1.9-2.1-2.8-4.9-2.6-7.7l2.2-31.4c0.1-2.8,1.4-5.4,3.6-7.2
			c1.9-1.7,4.3-2.6,6.9-2.6c0.3,0,0.6,0,0.9,0l40.2,4.3c3,0.3,5.7,1.8,7.5,4.2L107.7,44c0.7,0.9,1.2,2,1.6,3.1
			c0.5,0.3,1,0.5,1.5,0.8c2.7-2.1,5.7-3.7,8.8-4.5c1.7-0.4,3.5-0.6,5.4-0.6c0.9,0,1.7,0,2.6,0.1c-0.3-1.2-0.3-2.5,0.1-3.8
			c0.5-1.8,1.7-3.2,3.4-4.1c1-0.5,2.1-0.8,3.2-0.8c0.7,0,1.4,0.1,2,0.3c0.7,0.2,1.3,0.5,1.9,0.9c0.1-0.1,0.2-0.2,0.3-0.3
			c3.8-6.7,9.5-10.7,16-11.2c0.9-0.1,1.8-0.1,2.6-0.1c4,0,7.3,0.7,9.9,1.2c1.6,0.3,2.9,0.6,3.8,0.6c0.5,0,0.6-0.1,0.7-0.1l0.9-0.6
			c0.8-0.5,1.8-0.8,2.7-0.8s1.9,0.3,2.7,0.8c1.7,1.1,2.5,3,2.3,4.9l-0.2,1.1c-0.2,1.5-2.2,13.3-11.5,19.2c4.8,5,8.3,12.3,8.3,21.8
			c0,10.6-6.4,24.7-14.9,32.9C157.4,109.1,152.6,111.4,148.1,111.4z"/>
		<path class="st0" d="M46.6,23.8c0.2,0,0.3,0,0.5,0l40.1,4.3c1.6,0.2,3,1,4,2.2L103.7,47c0.7,1,1.1,2.2,1.1,3.4
			c2.2,1,4.4,2.3,6.5,3.8c2.7-3,6-5.1,9.5-6c1.3-0.3,2.6-0.5,4.1-0.5c2.2,0,4.6,0.3,7.2,1c1,0.3,2.1,0.5,3.1,0.6
			c-1.1-4.4-2.7-7.4-2.7-7.4c-0.2-0.4-0.3-1-0.1-1.4c0.1-0.5,0.5-0.9,0.9-1.1c0.3-0.1,0.6-0.2,0.9-0.2c0.2,0,0.4,0,0.6,0.1
			c0.5,0.1,0.9,0.5,1.1,0.9c0.2,0.3,1,1.9,1.8,4.3l3.2-4.8c0.3-0.4,0.7-0.7,1.2-0.8c1.8-3.6,5.8-9.4,12.8-9.9
			c0.8-0.1,1.5-0.1,2.3-0.1c3.5,0,6.4,0.6,8.8,1.1c1.9,0.4,3.4,0.7,4.8,0.7c1.2,0,2.4-0.3,3.4-0.9l0.9-0.6l-0.2,1.1
			c-0.1,0.5-2,13.2-11.9,17c-1.5,0.6-3,0.8-4.5,0.8c-4.5,0-8.5-2.3-11.6-4.1c-1.3-0.7-2.4-1.4-3.3-1.7l-4.6,7c0,0.1,0,0.2,0.1,0.3
			c1.1,0,2.3-0.1,3.3-0.3c0.7-0.1,1.4-0.3,2.1-0.4c2.6-0.7,5.1-1,7.2-1c1.5,0,2.9,0.2,4.1,0.5c7.6,2,15.8,10.2,15.8,23.8
			c0,9.2-5.9,22-13.4,29.3c-3.5,3.4-7.1,5.2-10.3,5.2c-2,0-4.1-0.3-6.1-0.9c-1.2-0.4-2.4-0.5-3.6-0.5c-1.2,0-2.4,0.2-3.6,0.5
			c-1.9,0.6-4,0.9-6.1,0.9c-3.4,0-7.1-1.9-10.8-5.6c-7-7.6-12.7-20.2-12.7-29.1c0-5.2,1.2-9.9,3.5-13.9c-1.9-1.3-3.8-2.5-5.8-3.4
			L88.6,69c-1.1,1.1-2.5,1.6-4,1.6c-0.1,0-0.2,0-0.3,0l-40.1-4.3c-1.5-0.1-2.8-0.7-3.8-1.9c-1-1.1-1.4-2.5-1.3-4L41.2,29
			c0.1-1.5,0.7-2.8,1.9-3.8C44.1,24.3,45.3,23.8,46.6,23.8 M46.6,13.8c-3.7,0-7.3,1.4-10.2,3.8c-3.1,2.7-5,6.5-5.3,10.7L29,59.6
			c-0.3,4.2,1,8.2,3.8,11.3c2.7,3.1,6.4,4.9,10.5,5.2l39.9,4.3c0.2,0,0.4,0,0.6,0s0.5,0,0.7,0c4.1,0,7.9-1.5,10.8-4.2
			c1.4,10.8,7.5,23.4,15.5,31.5c7.1,7.1,13.6,8.6,17.9,8.6c3,0,6.1-0.5,9-1.3c0.2-0.1,0.5-0.1,0.7-0.1s0.5,0,0.7,0.1
			c2.9,0.9,6,1.3,9,1.3c5.9,0,11.8-2.8,17.2-8c9.5-9.2,16.5-24.5,16.5-36.5c0-7.9-2.2-15.1-6.3-21.1c7.4-7.4,9.2-17.7,9.4-19.2
			l0.2-1.1c0.6-3.9-1.2-7.7-4.5-9.8c-1.6-1.1-3.5-1.6-5.4-1.6c-1.8,0-3.6,0.5-5.2,1.4c-0.6-0.1-1.3-0.3-2-0.4
			c-2.7-0.6-6.3-1.3-10.9-1.3c-1,0-2,0-3,0.1c-7,0.5-13.3,4.2-17.8,10.4c-0.7-0.1-1.4-0.2-2-0.2c-1.9,0-3.9,0.5-5.6,1.4
			c-2.8,1.5-4.8,4-5.8,7c0,0.1,0,0.1-0.1,0.2c-1.6,0.1-3.1,0.4-4.5,0.7c-2.2,0.6-4.4,1.5-6.5,2.6l-0.1-0.1c0,0,0,0-0.1-0.1
			L99.1,24.3c-2.6-3.5-6.5-5.7-10.9-6.1l-40-4.3c-0.1,0-0.2,0-0.3,0C47.5,13.8,47,13.8,46.6,13.8L46.6,13.8z"/>
	</g>
	<g>
		<path class="st0" d="M302.7,127.2c-22.9,0-41.5-18.6-41.5-41.5c0-11,4.4-21.6,12.1-29.3c-0.6-0.4-1.1-0.8-1.7-1.1L260,67
			c-2,2-4.7,3.1-7.6,3.1l0,0c-0.2,0-0.3,0-0.5,0c-0.1,0-0.2,0-0.3,0l-40-4.3c-2.8-0.2-5.3-1.4-7.1-3.6c-1.9-2.1-2.8-4.9-2.6-7.7
			l2.1-31.4c0.1-2.8,1.4-5.4,3.6-7.2c1.9-1.7,4.3-2.6,6.9-2.6c0.3,0,0.6,0,0.8,0l40.2,4.3c3,0.3,5.7,1.8,7.5,4.2l12.5,16.6
			c0.7,0.9,1.2,2,1.6,3.1c3.1,1.7,6.1,3.7,8.8,6.2c5.2-2.3,10.9-3.5,16.7-3.5c4.3,0,8.6,0.7,12.7,2c4.5-4.6,10.6-7.3,17.1-7.3
			c0.7,0,1.3,0,2,0.1l8.3,0.7c1.6,0.1,3,1,3.8,2.3s1,3,0.4,4.5l-3.1,7.7c-1.4,3.5-3.6,6.6-6.4,9c4.3,6.6,6.6,14.4,6.6,22.4
			C344.2,108.6,325.5,127.2,302.7,127.2z"/>
		<path class="st0" d="M214.6,18.3c0.1,0,0.3,0,0.4,0l40.1,4.3c1.6,0.2,3.1,1,4,2.2l12.6,16.6c0.7,1,1.1,2.2,1.1,3.4
			c4.5,2,8.6,5,12.4,8.8c5.4-2.9,11.4-4.5,17.6-4.5c5,0,9.8,1,14.3,2.9c3.5-5.2,9.4-8.2,15.5-8.2c0.5,0,1,0,1.6,0.1l8.3,0.7
			l-3.1,7.7c-1.7,4.2-4.8,7.6-8.8,9.7c5.6,6.6,8.6,14.9,8.6,23.5c0,20.1-16.4,36.5-36.5,36.5s-36.5-16.4-36.5-36.5
			c0-11.6,5.5-22.5,14.8-29.4c-3.2-3.1-6.7-5.5-10.4-7.2l-14.2,14.3c-1.1,1.1-2.5,1.6-4,1.6c-0.1,0-0.2,0-0.3,0L212,60.5
			c-1.5-0.1-2.8-0.7-3.8-1.9c-1-1.1-1.4-2.5-1.3-4l2.2-31.4c0.1-1.5,0.7-2.8,1.9-3.8C212,18.8,213.2,18.3,214.6,18.3 M214.6,8.3
			c-3.7,0-7.4,1.4-10.2,3.8c-3.1,2.7-5,6.5-5.3,10.7L197,54.2c-0.3,4.2,1,8.2,3.8,11.3c2.7,3.1,6.4,4.9,10.5,5.2l39.9,4.3
			c0.2,0,0.4,0,0.6,0c0.2,0,0.5,0,0.7,0c1.8,0,3.6-0.3,5.2-0.9c-1,3.7-1.5,7.6-1.5,11.5c0,25.6,20.8,46.5,46.5,46.5
			c25.6,0,46.5-20.8,46.5-46.5c0-7.6-1.9-15-5.3-21.6c2-2.4,3.6-5.1,4.8-8l3.1-7.7c1.2-2.9,0.9-6.3-0.8-9c-1.7-2.7-4.5-4.4-7.7-4.7
			l-8.3-0.7c-0.8-0.1-1.6-0.1-2.4-0.1c-6.8,0-13.3,2.4-18.5,6.7c-3.7-0.9-7.5-1.4-11.4-1.4c-5.4,0-10.7,0.9-15.7,2.8
			c-1.9-1.5-3.8-2.8-5.8-3.9c-0.4-0.9-0.9-1.7-1.5-2.5c0,0,0-0.1-0.1-0.1L267,18.8c-2.6-3.5-6.5-5.7-10.9-6.1l-40-4.3
			c-0.1,0-0.2,0-0.3,0C215.4,8.3,215,8.3,214.6,8.3L214.6,8.3z"/>
	</g>
	<g>
		<path class="st0" d="M329.6,256.8c-0.9,0-1.7,0-2.6-0.1c-19.5-1.3-33-14.7-32.7-32.6c0.1-7.7,2.7-15.1,7.3-21.1
			c-0.5-0.3-1-0.7-1.5-1l-11.6,11.7c-2,2-4.7,3.1-7.5,3.1c-0.2,0-0.4,0-0.6,0c-0.1,0-0.2,0-0.2,0l-40-4.3c-2.8-0.2-5.3-1.4-7.1-3.5
			c-1.9-2.1-2.8-4.9-2.6-7.7l2.1-31.4c0.1-2.8,1.4-5.4,3.6-7.2c1.9-1.7,4.3-2.6,6.9-2.6c0.3,0,0.6,0,0.9,0l40.2,4.3
			c3,0.3,5.7,1.8,7.5,4.2l12.5,16.6c0.7,0.9,1.2,2,1.6,3.1c1,0.5,1.9,1.1,2.9,1.7c2.4-6.9,7.8-12.3,14.3-14.5
			c-0.2-3.7-1-6.6-2.3-7.9c-1.3-1.3-2.1-3.1-2.1-5s0.7-3.7,2.1-5c1.3-1.3,3.1-2.1,5-2.1s3.7,0.7,5,2.1c0.7,0.7,1.4,1.6,2,2.5
			c1.9-3,4.7-5.3,8-6.7c2.1-0.9,4.4-1.4,6.8-1.4c2.5,0,5,0.5,7.3,1.6l11,5c1.5,0.7,2.5,2,2.8,3.6s-0.2,3.2-1.3,4.4l-8.3,8.8
			c-3.3,3.5-8,5.5-12.8,5.5h-0.1c-0.2,0-0.4,0-0.7,0c3.4,3.3,5.8,7.7,6.7,12.6c0,0,0,0.3,0.1,0.3c0.4,2.3,1.4,4.3,3,5.9
			c6.7,6.7,10.4,15.6,10.4,25.1c0,8.7-3.1,16.3-8.9,22.1c-6.5,6.5-16,10.1-26.6,10.1L329.6,256.8z"/>
		<path class="st0" d="M347.4,157c1.8,0,3.5,0.4,5.2,1.1l11,5l-8.3,8.8c-2.4,2.5-5.7,3.9-9.2,3.9l0,0c-3.5,0-6.8-1.5-9.1-4.1
			l-0.4-0.5c-0.2-0.2-0.3-0.4-0.5-0.6c-0.4,0-0.7,0-1,0c-1.2,0-2.4-0.2-3.5-0.5c0.7,3.4,0.7,6.8,0.6,9.3c7.4,1,13.5,7,15,14.9v0.1
			l-0.5,0.1l0.5-0.1c0.5,3.3,2,6.3,4.4,8.6c5.8,5.8,8.9,13.4,8.9,21.6c0,7.3-2.6,13.7-7.4,18.5c-5.6,5.6-13.8,8.6-23,8.6
			c-0.1,0-0.2,0-0.3,0c-0.8,0-1.6,0-2.3-0.1c-16.7-1.1-28.2-12.4-28-27.5c0.1-8.1,3.3-15.6,9.1-21.3c0.2-0.2,0.3-0.3,0.5-0.5
			c-3-2.8-6.3-5-9.7-6.5l-14.2,14.3c-1.1,1.1-2.5,1.6-4,1.6c-0.1,0-0.2,0-0.3,0l-40.1-4.3c-1.5-0.1-2.8-0.7-3.8-1.9
			c-1-1.1-1.4-2.5-1.3-4l2.2-31.4c0.1-1.5,0.7-2.8,1.9-3.8c1-0.9,2.3-1.3,3.6-1.3c0.1,0,0.3,0,0.4,0l40.1,4.3c1.6,0.2,3.1,1,4,2.2
			l12.6,16.6c0.7,1,1.1,2.2,1.1,3.4c3.6,1.7,7.1,3.9,10.2,6.8c0.5-1.2,0.9-2.5,1.1-3.8c0-0.1,0-0.2,0-0.3c1.5-7.9,7.8-14,15.3-14.9
			c0.2-4.3-0.1-11.6-3.8-15.4c-0.4-0.4-0.6-0.9-0.6-1.5s0.2-1.1,0.6-1.5s0.9-0.6,1.5-0.6c0.5,0,1.1,0.2,1.5,0.6
			c1.2,1.2,2.2,2.7,3,4.6c1,0.8,2.6,1.7,5,1.7c0-0.5,0.1-1,0.3-1.5l0.2-0.6c1.2-3.3,3.7-5.9,6.9-7.2
			C344.1,157.3,345.8,157,347.4,157 M347.4,147L347.4,147c-3,0-5.9,0.6-8.7,1.7c-2.3,1-4.4,2.3-6.2,3.9c-2-1.4-4.4-2.1-6.9-2.1
			c-3.2,0-6.3,1.2-8.5,3.5c-2.3,2.3-3.5,5.3-3.5,8.5s1.2,6.2,3.5,8.5c0.1,0.2,0.3,0.6,0.5,1.4c-4,2.1-7.4,5.2-10,8.9l-11.9-15.8
			c-2.6-3.5-6.5-5.7-10.9-6.1l-40-4.3c-0.1,0-0.2,0-0.3,0c-0.4,0-0.8-0.1-1.3-0.1c-3.7,0-7.4,1.4-10.2,3.8c-3.1,2.8-5,6.6-5.3,10.7
			l-2.1,31.3c-0.3,4.2,1,8.2,3.8,11.3c2.7,3.1,6.4,4.9,10.5,5.2l39.9,4.3c0.2,0,0.3,0,0.5,0c0.3,0,0.6,0,0.9,0
			c3.1,0,6.1-0.9,8.6-2.6c-0.2,1.6-0.3,3.2-0.3,4.8c-0.3,20.4,15.4,36.2,37.4,37.6c1,0.1,1.9,0.1,2.9,0.1h0.4
			c11.9,0,22.6-4.1,30.1-11.5c6.8-6.8,10.4-15.6,10.4-25.6c0-10.8-4.2-21-11.8-28.6c-0.8-0.8-1.4-1.9-1.6-3.2c0,0,0,0,0-0.1
			s0-0.3-0.1-0.5c-0.6-2.8-1.5-5.5-2.8-8c3.2-1.2,6-3.1,8.4-5.5l8.3-8.8c2.2-2.3,3.2-5.6,2.6-8.8s-2.7-5.8-5.7-7.2l-11-5
			C353.8,147.7,350.6,147,347.4,147L347.4,147L347.4,147z"/>
	</g>
	<g>
		<path class="st0" d="M121,368.8c-3.2,0-6.3-0.4-9.3-1.2c-5.3-1.4-10.1-4.2-13.5-7.8c-4.6-0.8-8.3-3.9-9.5-8.2
			c-1.3-4.3,0.2-9,3.6-12.2c0.1-0.7,0.3-1.4,0.5-2c-1.1,0.4-2.3,0.6-3.5,0.6c-0.2,0-0.4,0-0.6,0c-0.1,0-0.2,0-0.3,0l-40-4.3
			c-2.8-0.2-5.3-1.4-7.1-3.5c-1.9-2.1-2.8-4.9-2.6-7.7l2.1-31.4c0.1-2.8,1.4-5.4,3.6-7.2c1.9-1.7,4.3-2.6,6.9-2.6c0.3,0,0.6,0,0.8,0
			l40.2,4.3c3,0.3,5.7,1.8,7.5,4.2l12.5,16.6c0.7,0.9,1.2,2,1.6,3.1c2.4,1.3,4.6,2.8,6.8,4.5c2.5-0.5,5-0.7,7.6-0.7
			c9,0,17.1,3.1,22.5,8.7c4.7,0.8,8.5,3.9,9.8,8.2c1.3,4.3-0.1,8.9-3.4,12.1c-0.9,4.9-3.3,9.8-7,14c-4.5,5.1-10.6,8.9-17.7,11
			C128.7,368.2,124.9,368.8,121,368.8z"/>
		<path class="st0" d="M51.4,286.1c0.1,0,0.3,0,0.4,0l40.1,4.3c1.6,0.2,3.1,1,4,2.2l12.6,16.6c0.7,1,1.1,2.2,1.1,3.4
			c3.5,1.6,6.9,3.8,10,6.5c3-0.8,6-1.2,8.9-1.2c8.2,0,15.7,3,20.1,8.5h0.1c3.4,0,6.4,2,7.2,4.9l0,0c0.9,2.9-0.5,6.2-3.3,8.1
			c-0.4,4.6-2.5,9.3-6,13.3c-3.9,4.4-9.2,7.7-15.4,9.6c-3.4,1-6.8,1.5-10.1,1.5c-2.7,0-5.4-0.3-8-1c-5.1-1.4-9.5-4.1-12.3-7.8l0,0
			c-3.4,0-6.3-1.9-7.2-4.9c-0.9-2.9,0.5-6.2,3.5-8.1c0.8-8.6,7.6-16.7,17.3-21c-2.2-1.7-4.5-3-6.8-4.1l-14.2,14.3
			c-1.1,1.1-2.5,1.6-4,1.6c-0.1,0-0.2,0-0.3,0L49,328.5c-1.5-0.1-2.8-0.7-3.8-1.9c-1-1.1-1.4-2.5-1.3-4l2.2-31.4
			c0.1-1.5,0.7-2.8,1.9-3.8C48.8,286.5,50,286.1,51.4,286.1 M51.4,276.1L51.4,276.1c-3.7,0-7.3,1.4-10.2,3.8
			c-3.1,2.8-5,6.6-5.3,10.7l-2.1,31.3c-0.3,4.2,1,8.2,3.8,11.3c2.7,3.1,6.4,4.9,10.5,5.2l36.3,3.9c-1.3,3.4-1.5,7.1-0.4,10.6
			c1.7,5.6,6.2,9.8,11.8,11.3c3.9,3.7,9,6.6,14.7,8.1c3.4,0.9,7,1.4,10.6,1.4c4.3,0,8.7-0.7,13-1.9c7.9-2.4,14.8-6.7,20-12.5
			c3.9-4.4,6.6-9.6,7.8-14.9c3.9-4.4,5.3-10.4,3.6-16c-1.7-5.7-6.3-9.9-12.1-11.4c-6.3-5.8-15.1-9.1-24.9-9.1
			c-2.1,0-4.2,0.1-6.3,0.4c-1.3-1-2.7-1.9-4.1-2.7c-0.4-0.9-0.9-1.7-1.5-2.5c0,0,0,0-0.1-0.1l-12.6-16.6c-2.6-3.5-6.5-5.7-10.9-6.1
			L53,276c-0.1,0-0.2,0-0.3,0C52.2,276.1,51.8,276.1,51.4,276.1L51.4,276.1L51.4,276.1z"/>
	</g>
	<g>
		<path class="st0" d="M291.9,361.5c-0.9,0-1.7,0-2.6,0c-1.7-0.1-3.4-0.2-5-0.4c-7-0.8-13.2-2.6-18-5.3c-0.7-0.4-1.4-0.8-2.1-1.2
			l-0.4-0.3c-0.7-0.4-1.3-0.8-1.9-1.2l-1.1-0.7c-0.1-0.1-0.2-0.1-0.3-0.2c-5.2-3.6-9.4-7.6-12.5-11.8c-0.1-0.1-0.2-0.3-0.3-0.4
			l-0.3-0.5c-0.2-0.3-0.4-0.6-0.6-0.9l-0.2-0.3c-0.2-0.4-0.4-0.7-0.6-1l-0.2-0.3c-0.2-0.4-0.4-0.7-0.6-1l-0.1-0.2
			c-0.3-0.5-0.5-0.9-0.7-1.3s-0.4-0.8-0.5-1.2c-1.3-4,0.5-8.3,4.2-10.4c1.3-0.7,2.7-1.1,4.2-1.1c0.7,0,1.3,0.1,2,0.2
			c1.2,0.3,2.5,0.6,4,0.8c3.5,0.7,7,1.1,10.5,1.5l-31.9-12c-2.6-0.9-4.8-2.7-6-5.2c-1.3-2.5-1.5-5.4-0.6-8.1l9.9-29.8
			c0.8-2.6,2.7-4.8,5.2-6.1c1.5-0.7,3.1-1.1,4.7-1.1c1.2,0,2.3,0.2,3.4,0.6l37.8,14.2c2.8,1.1,5,3.2,6.2,5.9l8,19.2
			c0.4,1.1,0.7,2.2,0.8,3.4c3.8,3.5,7.1,7.8,9.8,12.8c13.4-5,22.2-11.3,24.6-13.1l4.8-7.4c1.6-2.6,4.4-4.1,7.5-4.1
			c1.7,0,3.4,0.5,4.8,1.4l1.2,0.8c4.1,2.7,5.3,8.2,2.7,12.3l-4.7,7.4c-0.2,1.1-0.5,2.2-0.8,3.2c-2.6,9.2-7.4,17.3-14.1,24
			c-0.9,0.9-1.7,1.7-2.6,2.4l-0.4,0.4c-0.7,0.6-1.4,1.2-2.3,1.8c-0.8,0.6-1.7,1.3-2.6,1.9c-0.5,0.4-1,0.7-1.6,1.1s-1.2,0.8-1.9,1.2
			c-1.3,0.8-2.6,1.5-3.8,2.1c-3.9,2-8.1,3.7-12.5,5c-1.2,0.4-2.4,0.7-3.6,1c-0.6,0.2-1.2,0.3-1.8,0.4c-0.5,0.1-1,0.2-1.5,0.3
			c-0.7,0.1-1.4,0.3-2.2,0.4c-4.2,0.7-8.4,1.1-12.5,1.2L291.9,361.5z M285,324.4c5.6-0.3,11.1-1.1,16.6-2.3
			c-1.2-1.9-2.6-3.6-4.1-5.1L285,324.4z"/>
		<path class="st0" d="M250.1,266.7c0.6,0,1.2,0.1,1.8,0.3l37.7,14.1c1.5,0.6,2.7,1.7,3.3,3.1l8,19.2c0.5,1.1,0.5,2.4,0.2,3.6
			c5.2,4.2,9.4,9.8,12.5,16.8c18.5-6.1,29.9-15.2,30.8-15.9l5.2-8.1c0.7-1.2,2-1.8,3.3-1.8c0.7,0,1.5,0.2,2.1,0.6l1.2,0.8
			c1.8,1.2,2.3,3.6,1.2,5.4l-5.2,8.1c-0.3,1.3-0.6,2.6-0.9,3.8c-2.4,8.4-6.7,15.7-12.8,21.8c-0.8,0.8-1.6,1.5-2.4,2.2l-0.4,0.3
			c-0.7,0.6-1.4,1.1-2.1,1.7c-0.8,0.6-1.6,1.2-2.4,1.7c-0.5,0.3-1,0.7-1.4,1c-0.6,0.4-1.1,0.7-1.7,1.1c-1.2,0.7-2.4,1.4-3.5,2
			c-3.6,1.9-7.5,3.4-11.7,4.7c-1.1,0.3-2.3,0.6-3.4,0.9c-0.6,0.1-1.1,0.3-1.7,0.4c-0.5,0.1-0.9,0.2-1.4,0.3c-0.7,0.1-1.3,0.3-2,0.4
			c-3.9,0.7-7.9,1-11.7,1.1c-0.2,0-0.4,0-0.7,0c-0.8,0-1.6,0-2.4,0c-1.6-0.1-3.1-0.2-4.7-0.3c-6.3-0.7-11.8-2.3-16-4.7
			c-0.7-0.4-1.3-0.8-1.9-1.1l-0.4-0.3c-0.6-0.4-1.2-0.7-1.7-1.1l-1-0.7l0,0c-4.9-3.4-8.9-7.2-11.8-11.2l0,0l-0.3-0.4l0.3-0.4
			l-0.4,0.3c-0.2-0.3-0.4-0.6-0.6-0.9l-0.2-0.3c-0.2-0.3-0.4-0.6-0.5-0.8l-0.2-0.3c-0.2-0.3-0.3-0.6-0.5-0.8l-0.1-0.3
			c-0.2-0.4-0.4-0.7-0.5-1c-0.1-0.2-0.2-0.4-0.2-0.5c-0.5-1.7,0.2-3.6,1.8-4.5c0.6-0.3,1.2-0.5,1.8-0.5c0.3,0,0.6,0,0.9,0.1
			c1.3,0.3,2.7,0.6,4.2,0.9c7.1,1.3,14.2,2,21.3,2c10.2,0,20.4-1.4,30.4-4.2c-2.8-6.1-6.5-11-11-14.6L281,321
			c-0.9,0.5-1.8,0.8-2.8,0.8c-0.6,0-1.2-0.1-1.8-0.3l-37.7-14.2c-1.4-0.4-2.5-1.4-3.2-2.7c-0.7-1.3-0.8-2.8-0.3-4.2l9.9-29.9
			c0.4-1.4,1.4-2.6,2.8-3.2C248.4,266.9,249.2,266.7,250.1,266.7 M250.1,256.7L250.1,256.7L250.1,256.7c-2.4,0-4.8,0.6-7,1.7
			c-3.7,1.9-6.5,5.1-7.8,9.1l-9.9,29.8c-1.3,4-1,8.2,0.8,11.9c1.8,3.7,5,6.4,8.8,7.7l8.2,3.1c-4.1,3.6-5.9,9.3-4.2,14.6
			c0.2,0.6,0.5,1.3,0.8,1.9c0.2,0.4,0.5,0.9,0.7,1.4c0,0,0,0.1,0.1,0.1l0.1,0.2c0.2,0.4,0.4,0.7,0.6,1.1c0,0,0,0.1,0.1,0.1l0.2,0.3
			c0.2,0.3,0.4,0.7,0.7,1.1c0,0,0,0.1,0.1,0.1l0.2,0.3c0.2,0.3,0.4,0.6,0.7,1l0.1,0.1l0.3,0.4c0.2,0.2,0.3,0.5,0.5,0.7
			c3.5,4.6,8,8.9,13.5,12.8c0.2,0.1,0.3,0.2,0.5,0.3l1,0.7c0,0,0,0,0.1,0c0.6,0.4,1.3,0.8,2,1.3l0.5,0.3c0.8,0.5,1.5,0.9,2.2,1.3
			c5.4,3.1,12.3,5.1,19.9,5.9c1.8,0.2,3.6,0.3,5.4,0.4c0.9,0,1.8,0,2.7,0c0.2,0,0.5,0,0.7,0c4.4,0,8.9-0.5,13.4-1.2
			c0.7-0.1,1.5-0.3,2.3-0.4c0.5-0.1,1-0.2,1.5-0.3c0.7-0.1,1.3-0.3,2-0.5c1.3-0.3,2.6-0.7,3.9-1.1c4.7-1.4,9.2-3.2,13.4-5.4
			c1.3-0.7,2.7-1.5,4.1-2.3c0.7-0.4,1.4-0.8,2-1.3c0.6-0.4,1.1-0.7,1.7-1.1c1-0.7,1.9-1.4,2.8-2.1s1.7-1.3,2.4-2l0.4-0.4
			c0,0,0,0,0.1,0c1-0.8,1.9-1.7,2.8-2.6c7.4-7.3,12.6-16.1,15.4-26.2c0.2-0.9,0.5-1.7,0.7-2.6l4.3-6.6c4.1-6.4,2.3-15.1-4.2-19.2
			l-1.2-0.8c-2.2-1.4-4.8-2.2-7.5-2.2c-4.8,0-9.1,2.4-11.7,6.4l-4.3,6.7c-2.5,1.9-9.1,6.3-18.7,10.3c-2.1-3.3-4.6-6.3-7.2-9
			c-0.2-1-0.5-1.9-0.8-2.8v-0.1l-8-19.2c-1.7-4-4.9-7.1-9.1-8.7l-37.7-14.1c-0.1,0-0.2-0.1-0.3-0.1
			C253.5,257,251.8,256.7,250.1,256.7L250.1,256.7L250.1,256.7z"/>
	</g>
	<g>
		<path class="st0" d="M143.9,265.5c-20.2,0-37.4-15.1-40.1-35.1c-0.4-3.1-0.7-6.3-0.9-9.5l-4,7.5c-1.5,2.7-3.9,4.5-6.9,5.3
			c-0.1,0-0.2,0-0.3,0.1l-39.6,7.1c-0.7,0.2-1.5,0.2-2.2,0.2c-2,0-3.9-0.6-5.6-1.6c-2.4-1.5-4-3.9-4.6-6.7L32.9,202
			c-0.6-2.7-0.1-5.5,1.4-7.9s3.9-4,6.7-4.6l39.8-7.1c0.6-0.1,1.3-0.2,2-0.2c2.3,0,4.5,0.7,6.3,2.1l15.8,11.8
			c0.7-2.6,1.7-5.1,2.9-7.5c-1.6-0.9-3.1-1.9-4.4-3c-10.1-7.8-14.5-19.7-16.2-26.1c-0.7-2.5-0.2-5.1,1.4-7.1c1.5-2,3.9-3.1,6.4-3.2
			h0.1c3.1,0,8.3,0.4,13.9,1.9c-0.7-7.5,0.4-14.2,1.3-18.2c0.6-2.5,2.3-4.6,4.6-5.6c1-0.5,2.2-0.7,3.3-0.7c1.4,0,2.8,0.4,4,1
			c2.3,1.3,5.9,3.5,9.7,6.8c2-3.8,4.1-6.8,5.4-8.6c1.6-2.1,3.9-3.2,6.5-3.2s5,1.2,6.5,3.2c1.4,1.8,3.4,4.8,5.4,8.6
			c3.8-3.3,7.4-5.5,9.7-6.8c1.2-0.7,2.6-1,4-1c1.1,0,2.3,0.2,3.3,0.7c2.4,1,4,3.1,4.6,5.6c0.9,4,2.1,10.8,1.3,18.2
			c5.6-1.5,10.8-1.8,13.9-1.9c2.6,0,5,1.2,6.5,3.2c1.6,2,2.1,4.6,1.4,7.1c-1.7,6.4-6.1,18.3-16.2,26.1c-1.4,1.1-2.9,2.1-4.4,3
			c2.1,4.1,3.5,8.5,4.1,13c1.3,9.6,1.3,19.4,0,29C181.3,250.4,164,265.5,143.9,265.5z"/>
		<path class="st0" d="M143.9,127.4c1,0,1.9,0.5,2.5,1.3c2,2.6,5.5,7.8,7.7,14.4c4.8-5.7,10.7-9.4,13.8-11.1c0.5-0.3,1-0.4,1.5-0.4
			c0.4,0,0.9,0.1,1.3,0.3c0.9,0.4,1.6,1.2,1.8,2.2c1.2,5.2,2.7,15.2-0.6,24.9c7.9-3.9,16.3-4.6,20.7-4.7c1,0,1.9,0.4,2.5,1.2
			s0.8,1.8,0.5,2.8c-1.6,5.8-5.5,16.5-14.5,23.5c-2.5,1.9-5.3,3.5-8.5,4.8c3.3,4.7,5.5,10.1,6.2,15.8c1.2,9.2,1.2,18.5,0,27.6
			c-2.4,17.5-17.5,30.7-35.1,30.7c-17.7,0-32.8-13.2-35.1-30.7c-0.9-6.8-1.1-13.8-0.7-20.6c-1.3-0.4-2.7-0.6-4-0.8L94.5,226
			c-0.8,1.4-2.1,2.4-3.7,2.8l-39.7,7.1c-0.4,0.1-0.8,0.1-1.2,0.1c-1,0-2-0.3-2.9-0.9c-1.2-0.8-2.1-2-2.4-3.5l-6.8-30.8
			c-0.3-1.4-0.1-2.9,0.7-4.2c0.8-1.2,2-2.1,3.5-2.4l39.7-7.1c0.4-0.1,0.7-0.1,1.1-0.1c1.2,0,2.4,0.4,3.3,1.1l16.7,12.4
			c1,0.7,1.7,1.8,2,3c1.2,0.2,2.4,0.4,3.6,0.7c0.1-0.7,0.2-1.5,0.3-2.2c0.8-5.7,2.9-11.1,6.2-15.8c-3.2-1.3-6-2.9-8.5-4.8
			c-8.9-6.9-12.9-17.7-14.5-23.5c-0.3-1-0.1-2,0.5-2.8s1.5-1.2,2.5-1.2c4.4,0.1,12.9,0.7,20.7,4.7c-3.3-9.7-1.8-19.6-0.6-24.9
			c0.2-1,0.9-1.8,1.8-2.2c0.4-0.2,0.8-0.3,1.3-0.3s1.1,0.1,1.5,0.4c3.1,1.7,9,5.5,13.8,11.1c2.2-6.5,5.7-11.8,7.7-14.4
			C142,127.8,142.9,127.4,143.9,127.4L143.9,127.4 M143.9,117.4c-4.2,0-8,1.9-10.5,5.2c-0.8,1-1.8,2.5-2.9,4.2
			c-2.3-1.6-4.3-2.8-5.8-3.7c-1.9-1.1-4.2-1.7-6.4-1.7c-1.8,0-3.6,0.4-5.3,1.1c-3.8,1.7-6.5,5-7.5,9c-0.7,3.1-1.6,7.8-1.7,13.2
			c-3.5-0.5-6.5-0.7-8.6-0.7h-0.1H95c-4.1,0.1-7.8,1.9-10.3,5.1c-2.5,3.3-3.4,7.5-2.3,11.5c1.2,4.6,3.8,11.8,8.6,18.7
			c-2.4-1.5-5.2-2.3-8.1-2.3c-1,0-1.9,0.1-2.9,0.3l-39.6,7.1c-0.1,0-0.2,0-0.3,0.1c-4.1,0.9-7.6,3.3-9.9,6.8c-2.2,3.5-3,7.7-2,11.8
			l6.7,30.7c0.9,4.1,3.3,7.6,6.8,9.8c2.5,1.6,5.4,2.4,8.3,2.4c1.1,0,2.1-0.1,3.2-0.3l39.5-7.1c0.2,0,0.4-0.1,0.6-0.1
			c2.4-0.6,4.6-1.7,6.5-3.2c4.7,20.4,23.1,35.2,44.3,35.2c22.7,0,42-16.9,45.1-39.4c1.3-10.1,1.3-20.2,0-30.3
			c-0.5-3.6-1.4-7.1-2.7-10.5c0.4-0.3,0.8-0.6,1.2-0.9c11.3-8.7,16.1-21.8,18-28.7c1.1-4,0.3-8.2-2.3-11.5
			c-2.5-3.2-6.3-5.1-10.4-5.1l0,0h-0.1c-2.2,0-5.2,0.2-8.6,0.7c-0.1-5.4-0.9-10.1-1.7-13.2c-1-4.1-3.7-7.3-7.5-9
			c-1.7-0.7-3.5-1.1-5.3-1.1c-2.2,0-4.4,0.6-6.4,1.7c-1.5,0.8-3.5,2-5.8,3.7c-1.1-1.7-2.1-3.1-2.9-4.2
			C151.9,119.3,148,117.4,143.9,117.4L143.9,117.4z"/>
	</g>
</g>
<g>
	<g>
		<path d="M122.1,70.9c-0.6,0-1.2-0.3-1.6-0.8c-13.7-20.5-30.4-18.6-31.1-18.5c-1,0.1-2-0.6-2.1-1.6s0.6-2,1.6-2.1
			c0.8-0.1,19.7-2.3,34.7,20.1c0.6,0.9,0.3,2-0.5,2.6C122.8,70.8,122.4,70.9,122.1,70.9z"/>
	</g>
	<g>
		<path class="st1" d="M103.3,47.3L90.7,30.7c-0.9-1.2-2.2-1.9-3.6-2l-40-4.3c-2.8-0.2-5.2,1.9-5.3,4.7l-2.2,31.4
			c-0.2,2.8,1.9,5.2,4.7,5.3l40,4.3c1.5,0.1,2.9-0.4,3.9-1.5l14.7-14.9C104.5,52.1,104.8,49.3,103.3,47.3z M93,53.4
			c-2.1-0.1-3.6-1.9-3.5-3.9s1.9-3.6,3.9-3.5s3.6,1.9,3.5,3.9C96.7,52,95,53.5,93,53.4z"/>
	</g>
	<g>
		<g>
			<g class="st2">
				<path class="st0" d="M73.7,46.4c0.6,1,0.9,2.1,0.8,3.4c-0.1,1.9-0.9,3.3-2.4,4.3c-1.5,1-3.5,1.4-6,1.2c-2.5-0.2-4.4-0.8-5.8-2
					c-1.3-1.2-1.9-2.7-1.8-4.5c0.1-1.3,0.5-2.4,1.3-3.3c0.7-0.9,1.8-1.4,3-1.7c-1-0.5-1.8-1.2-2.4-2.1c-0.5-0.9-0.8-1.9-0.7-3.1
					c0.1-1.8,0.9-3.1,2.3-4.1c1.4-0.9,3.3-1.3,5.6-1.2c2.3,0.2,4.1,0.8,5.4,1.9c1.3,1.1,1.8,2.6,1.7,4.3c-0.1,1.2-0.4,2.2-1.1,3
					c-0.7,0.8-1.5,1.4-2.6,1.7C72.2,44.8,73.1,45.5,73.7,46.4z M70.9,49.3c0.1-2.2-1.2-3.3-4.1-3.5c-2.9-0.2-4.4,0.8-4.5,2.9
					c-0.1,2.2,1.2,3.3,4.1,3.5C69.2,52.4,70.8,51.4,70.9,49.3z M63.4,39.3c-0.1,1,0.2,1.8,0.8,2.4c0.6,0.6,1.5,0.9,2.8,1
					c1.2,0.1,2.2-0.1,2.9-0.6c0.7-0.5,1-1.3,1.1-2.3c0.1-2.1-1.1-3.2-3.6-3.3C64.9,36.3,63.6,37.3,63.4,39.3z"/>
			</g>
		</g>
		<g class="st2">
			<path class="st0" d="M53.8,41.6c-0.6,0.5-1.3,0.8-2.2,0.8l-0.1,0.9c0,0.2-0.1,0.4-0.2,0.5C51.1,44,51,44,50.7,44
				s-0.4-0.1-0.5-0.2c-0.1-0.1-0.2-0.3-0.2-0.5l0.1-0.9c-0.5-0.1-1.1-0.2-1.6-0.4c-0.5-0.2-0.9-0.5-1.3-0.8
				c-0.1-0.1-0.2-0.2-0.2-0.3c0-0.1-0.1-0.2,0-0.4c0-0.2,0.1-0.4,0.2-0.5c0.1-0.1,0.3-0.2,0.4-0.2c0.1,0,0.2,0,0.3,0.1
				c0.1,0,0.2,0.1,0.3,0.2c0.4,0.3,0.8,0.6,1.2,0.7c0.4,0.2,0.9,0.3,1.3,0.3c0.6,0,1.1,0,1.5-0.3s0.6-0.6,0.6-1
				c0-0.3-0.1-0.5-0.2-0.7c-0.2-0.2-0.4-0.3-0.7-0.5c-0.3-0.1-0.7-0.3-1.2-0.4c-0.7-0.2-1.3-0.5-1.7-0.7c-0.4-0.2-0.8-0.5-1.1-0.9
				c-0.3-0.4-0.4-0.9-0.4-1.6c0.1-0.8,0.4-1.4,1-1.9c0.6-0.5,1.3-0.8,2.2-0.9l0.1-0.9c0-0.2,0.1-0.4,0.2-0.5
				c0.1-0.1,0.3-0.2,0.5-0.2c0.2,0,0.4,0.1,0.5,0.2c0.1,0.1,0.2,0.3,0.2,0.5l-0.1,0.9c1,0.2,1.8,0.6,2.4,1.2
				c0.2,0.2,0.3,0.4,0.3,0.7c0,0.2-0.1,0.4-0.2,0.5c-0.1,0.1-0.3,0.2-0.4,0.2c-0.1,0-0.2,0-0.2-0.1c-0.1,0-0.2-0.1-0.3-0.2
				c-0.4-0.3-0.7-0.5-1.1-0.7c-0.3-0.2-0.7-0.3-1.2-0.3c-0.6,0-1.1,0.1-1.4,0.3c-0.4,0.2-0.6,0.6-0.6,1c0,0.3,0.1,0.6,0.2,0.8
				c0.2,0.2,0.4,0.4,0.7,0.5c0.3,0.1,0.7,0.3,1.2,0.4c0.7,0.2,1.2,0.4,1.7,0.6c0.4,0.2,0.8,0.5,1.1,0.9c0.3,0.4,0.4,0.9,0.4,1.5
				C54.6,40.4,54.3,41.1,53.8,41.6z"/>
		</g>
	</g>
	<path class="st3" d="M92.3,49.7c0,0,5.6-0.1,12.9,3.5"/>
</g>
<g>
	<g>
		<path d="M290,65.3c-0.6,0-1.2-0.3-1.6-0.8C274.8,44.1,258,45.9,257.3,46c-1,0.1-2-0.6-2.1-1.6s0.6-2,1.6-2.1
			c0.8-0.1,19.7-2.3,34.7,20.1c0.6,0.9,0.3,2-0.5,2.6C290.7,65.2,290.4,65.3,290,65.3z"/>
	</g>
	<g>
		<path class="st1" d="M271.2,41.8l-12.6-16.6c-0.9-1.2-2.2-1.9-3.6-2l-40-4.3c-2.8-0.2-5.2,1.9-5.3,4.7L207.5,55
			c-0.2,2.8,1.9,5.2,4.7,5.3l40,4.3c1.5,0.1,2.9-0.4,3.9-1.5l14.7-14.9C272.5,46.6,272.7,43.8,271.2,41.8z M260.9,47.9
			c-2.1-0.1-3.6-1.9-3.5-3.9s1.9-3.6,3.9-3.5s3.6,1.9,3.5,3.9C264.7,46.5,262.9,48,260.9,47.9z"/>
	</g>
	<g>
		<g>
			<g class="st2">
				<path class="st0" d="M242.7,43.2c0.3,0.3,0.4,0.7,0.4,1.1c-0.1,1-0.7,1.5-1.9,1.4l-1.5-0.1l-0.2,2.4c0,0.6-0.3,1.1-0.6,1.4
					c-0.4,0.3-0.8,0.5-1.4,0.4c-0.6,0-1-0.2-1.3-0.6c-0.3-0.4-0.5-0.9-0.4-1.5l0.2-2.4l-7.9-0.5c-0.5,0-1-0.2-1.2-0.6
					c-0.3-0.3-0.4-0.7-0.4-1.2c0-0.5,0.2-0.9,0.6-1.4L237.1,29c0.2-0.3,0.5-0.5,0.8-0.6c0.3-0.1,0.6-0.2,1-0.2c0.5,0,1,0.2,1.3,0.6
					c0.4,0.4,0.5,0.9,0.5,1.5l-0.8,12.3l1.5,0.1C242,42.8,242.4,43,242.7,43.2z M230.4,42l5.6,0.4l0.5-8.1L230.4,42z"/>
			</g>
		</g>
		<g class="st2">
			<path class="st0" d="M221.7,36.1c-0.6,0.5-1.3,0.8-2.2,0.8l-0.1,0.9c0,0.2-0.1,0.4-0.2,0.5c-0.1,0.1-0.3,0.2-0.5,0.2
				s-0.4-0.1-0.5-0.2c-0.1-0.1-0.2-0.3-0.2-0.5l0.1-0.9c-0.5-0.1-1.1-0.2-1.6-0.4c-0.5-0.2-0.9-0.5-1.3-0.8
				c-0.1-0.1-0.2-0.2-0.2-0.3c0-0.1-0.1-0.2,0-0.4c0-0.2,0.1-0.4,0.2-0.5s0.3-0.2,0.4-0.2c0.1,0,0.2,0,0.3,0.1s0.2,0.1,0.3,0.2
				c0.4,0.3,0.8,0.6,1.2,0.7c0.4,0.2,0.9,0.3,1.3,0.3c0.6,0,1.1,0,1.5-0.3c0.4-0.2,0.6-0.6,0.6-1c0-0.3-0.1-0.5-0.2-0.7
				c-0.2-0.2-0.4-0.3-0.7-0.5c-0.3-0.1-0.7-0.3-1.2-0.4c-0.7-0.2-1.3-0.5-1.7-0.7s-0.8-0.5-1.1-0.9s-0.4-0.9-0.4-1.6
				c0.1-0.8,0.4-1.4,1-1.9c0.6-0.5,1.3-0.8,2.2-0.9l0.1-0.9c0-0.2,0.1-0.4,0.2-0.5c0.1-0.1,0.3-0.2,0.5-0.2s0.4,0.1,0.5,0.2
				c0.1,0.1,0.2,0.3,0.2,0.5l-0.1,0.9c1,0.2,1.8,0.6,2.4,1.2c0.2,0.2,0.3,0.4,0.3,0.7c0,0.2-0.1,0.4-0.2,0.5
				c-0.1,0.1-0.3,0.2-0.4,0.2c-0.1,0-0.2,0-0.2-0.1c-0.1,0-0.2-0.1-0.3-0.2c-0.4-0.3-0.7-0.5-1.1-0.7c-0.3-0.2-0.7-0.3-1.2-0.3
				c-0.6,0-1.1,0.1-1.4,0.3c-0.4,0.2-0.6,0.6-0.6,1c0,0.3,0.1,0.6,0.2,0.8c0.2,0.2,0.4,0.4,0.7,0.5c0.3,0.1,0.7,0.3,1.2,0.4
				c0.7,0.2,1.2,0.4,1.7,0.6s0.8,0.5,1.1,0.9c0.3,0.4,0.4,0.9,0.4,1.5C222.6,34.9,222.3,35.6,221.7,36.1z"/>
		</g>
	</g>
	<path class="st3" d="M260.2,44.2c0,0,5.6-0.1,12.9,3.5"/>
</g>
<g>
	<g>
		<path d="M318.6,212.1c-0.6,0-1.2-0.3-1.6-0.8c-13.7-20.5-30.4-18.6-31.1-18.5c-1,0.1-2-0.6-2.1-1.6s0.6-2,1.6-2.1
			c0.8-0.1,19.7-2.3,34.7,20.1c0.6,0.9,0.3,2-0.5,2.6C319.3,212,318.9,212.1,318.6,212.1z"/>
	</g>
	<g>
		<path class="st1" d="M299.8,188.5l-12.6-16.6c-0.9-1.2-2.2-1.9-3.6-2l-40-4.3c-2.8-0.2-5.2,1.9-5.3,4.7l-2.2,31.4
			c-0.2,2.8,1.9,5.2,4.7,5.3l40,4.3c1.5,0.1,2.9-0.4,3.9-1.5l14.7-14.9C301.1,193.4,301.3,190.5,299.8,188.5z M289.5,194.6
			c-2.1-0.1-3.6-1.9-3.5-3.9s1.9-3.6,3.9-3.5s3.6,1.9,3.5,3.9C293.2,193.2,291.5,194.8,289.5,194.6z"/>
	</g>
	<g>
		<g>
			<g class="st2">
				<path class="st0" d="M271.4,175.9c0.3,0.3,0.4,0.7,0.3,1.2c0,0.5-0.2,0.9-0.5,1.4l-10.8,16.8c-0.4,0.7-1,1-1.7,0.9
					c-0.5,0-0.9-0.2-1.2-0.6c-0.4-0.4-0.5-0.8-0.5-1.3c0-0.3,0.1-0.7,0.4-1l9.7-15.1l-9.1-0.6c-1.2-0.1-1.8-0.6-1.7-1.7
					c0.1-1.1,0.7-1.6,1.9-1.5l12.1,0.8C270.8,175.4,271.2,175.6,271.4,175.9z"/>
			</g>
		</g>
		<g class="st2">
			<path class="st0" d="M250.3,182.8c-0.6,0.5-1.3,0.8-2.2,0.8l-0.1,0.9c0,0.2-0.1,0.4-0.2,0.5c-0.1,0.1-0.3,0.2-0.5,0.2
				s-0.4-0.1-0.5-0.2s-0.2-0.3-0.2-0.5l0.1-0.9c-0.5-0.1-1.1-0.2-1.6-0.4c-0.5-0.2-0.9-0.5-1.3-0.8c-0.1-0.1-0.2-0.2-0.2-0.3
				c0-0.1-0.1-0.2,0-0.4c0-0.2,0.1-0.4,0.2-0.5s0.3-0.2,0.4-0.2c0.1,0,0.2,0,0.3,0.1c0.1,0,0.2,0.1,0.3,0.2c0.4,0.3,0.8,0.6,1.2,0.7
				c0.4,0.2,0.9,0.3,1.3,0.3c0.6,0,1.1,0,1.5-0.3c0.4-0.2,0.6-0.6,0.6-1c0-0.3-0.1-0.5-0.2-0.7c-0.2-0.2-0.4-0.3-0.7-0.5
				c-0.3-0.1-0.7-0.3-1.2-0.4c-0.7-0.2-1.3-0.5-1.7-0.7c-0.4-0.2-0.8-0.5-1.1-0.9c-0.3-0.4-0.4-0.9-0.4-1.6c0.1-0.8,0.4-1.4,1-1.9
				c0.6-0.5,1.3-0.8,2.2-0.9l0.1-0.9c0-0.2,0.1-0.4,0.2-0.5c0.1-0.1,0.3-0.2,0.5-0.2c0.2,0,0.4,0.1,0.5,0.2c0.1,0.1,0.2,0.3,0.2,0.5
				l-0.1,0.9c1,0.2,1.8,0.6,2.4,1.2c0.2,0.2,0.3,0.4,0.3,0.7c0,0.2-0.1,0.4-0.2,0.5s-0.3,0.2-0.4,0.2c-0.1,0-0.2,0-0.2-0.1
				c-0.1,0-0.2-0.1-0.3-0.2c-0.4-0.3-0.7-0.5-1.1-0.7c-0.3-0.2-0.7-0.3-1.2-0.3c-0.6,0-1.1,0.1-1.4,0.3c-0.4,0.2-0.6,0.6-0.6,1
				c0,0.3,0.1,0.6,0.2,0.8c0.2,0.2,0.4,0.4,0.7,0.5c0.3,0.1,0.7,0.3,1.2,0.4c0.7,0.2,1.2,0.4,1.7,0.6c0.4,0.2,0.8,0.5,1.1,0.9
				c0.3,0.4,0.4,0.9,0.4,1.5C251.2,181.7,250.8,182.3,250.3,182.8z"/>
		</g>
	</g>
	<path class="st3" d="M288.8,190.9c0,0,5.6-0.1,12.9,3.5"/>
</g>
<g>
	<g>
		<path d="M126.8,333.1c-0.6,0-1.2-0.3-1.6-0.8c-13.7-20.5-30.4-18.6-31.1-18.5c-1,0.1-2-0.6-2.1-1.6s0.6-2,1.6-2.1
			c0.8-0.1,19.7-2.3,34.7,20.1c0.6,0.9,0.3,2-0.5,2.6C127.5,333,127.2,333.1,126.8,333.1z"/>
	</g>
	<g>
		<path class="st1" d="M108,309.5l-12.6-16.6c-0.9-1.2-2.2-1.9-3.6-2l-40-4.3c-2.8-0.2-5.2,1.9-5.3,4.7l-2.2,31.4
			c-0.2,2.8,1.9,5.2,4.7,5.3l40,4.3c1.5,0.1,2.9-0.4,3.9-1.5l14.7-14.9C109.3,314.4,109.5,311.5,108,309.5z M97.7,315.6
			c-2.1-0.1-3.6-1.9-3.5-3.9s1.9-3.6,3.9-3.5s3.6,1.9,3.5,3.9C101.5,314.2,99.7,315.8,97.7,315.6z"/>
	</g>
	<g>
		<g>
			<g class="st2">
				<path class="st0" d="M76.4,304.8c0.9,0.6,1.7,1.5,2.1,2.6c0.5,1.1,0.7,2.3,0.6,3.6c-0.1,1.4-0.5,2.6-1.2,3.6
					c-0.7,1-1.6,1.8-2.7,2.4c-1.1,0.5-2.4,0.8-3.7,0.7c-2.7-0.2-4.7-1.2-6.1-3.2c-1.3-1.9-1.9-4.6-1.7-8c0.2-2.3,0.6-4.3,1.4-6
					c0.8-1.7,1.9-2.9,3.2-3.7c1.3-0.8,2.9-1.2,4.6-1.1c1.1,0.1,2.3,0.4,3.4,0.9c1.1,0.5,2.1,1.1,2.8,1.9c0.2,0.2,0.4,0.5,0.5,0.7
					c0.1,0.2,0.1,0.5,0.1,0.8c0,0.4-0.2,0.8-0.5,1.1c-0.3,0.3-0.6,0.4-0.9,0.4c-0.2,0-0.4-0.1-0.6-0.1c-0.2-0.1-0.4-0.2-0.6-0.4
					c-1.6-1.3-3-2-4.4-2.1c-1.5-0.1-2.7,0.5-3.6,1.8s-1.5,3.2-1.7,5.6c0.5-0.9,1.3-1.5,2.2-2c1-0.5,2-0.7,3.2-0.6
					C74.4,303.8,75.5,304.1,76.4,304.8z M74.3,313.6c0.7-0.7,1.1-1.6,1.2-2.8c0.1-1.2-0.2-2.1-0.8-2.9c-0.6-0.7-1.5-1.2-2.6-1.2
					c-1.1-0.1-2.1,0.2-2.8,0.9s-1.2,1.6-1.2,2.7c-0.1,1.2,0.2,2.1,0.9,2.9c0.6,0.8,1.5,1.2,2.7,1.3
					C72.7,314.5,73.6,314.2,74.3,313.6z"/>
			</g>
		</g>
		<g class="st2">
			<path class="st0" d="M58.5,303.8c-0.6,0.5-1.3,0.8-2.2,0.8l-0.1,0.9c0,0.2-0.1,0.4-0.2,0.5c-0.1,0.1-0.3,0.2-0.5,0.2
				c-0.2,0-0.4-0.1-0.5-0.2c-0.1-0.1-0.2-0.3-0.2-0.5l0.1-0.9c-0.5-0.1-1.1-0.2-1.6-0.4c-0.5-0.2-0.9-0.5-1.3-0.8
				c-0.1-0.1-0.2-0.2-0.2-0.3c0-0.1-0.1-0.2,0-0.4c0-0.2,0.1-0.4,0.2-0.5c0.1-0.1,0.3-0.2,0.4-0.2c0.1,0,0.2,0,0.3,0.1
				c0.1,0,0.2,0.1,0.3,0.2c0.4,0.3,0.8,0.6,1.2,0.7c0.4,0.2,0.9,0.3,1.3,0.3c0.6,0,1.1,0,1.5-0.3c0.4-0.2,0.6-0.6,0.6-1
				c0-0.3-0.1-0.5-0.2-0.7c-0.2-0.2-0.4-0.3-0.7-0.5s-0.7-0.3-1.2-0.4c-0.7-0.2-1.3-0.5-1.7-0.7c-0.4-0.2-0.8-0.5-1.1-0.9
				c-0.3-0.4-0.4-0.9-0.4-1.6c0.1-0.8,0.4-1.4,1-1.9c0.6-0.5,1.3-0.8,2.2-0.9l0.1-0.9c0-0.2,0.1-0.4,0.2-0.5
				c0.1-0.1,0.3-0.2,0.5-0.2c0.2,0,0.4,0.1,0.5,0.2c0.1,0.1,0.2,0.3,0.2,0.5l-0.1,0.9c1,0.2,1.8,0.6,2.4,1.2
				c0.2,0.2,0.3,0.4,0.3,0.7c0,0.2-0.1,0.4-0.2,0.5c-0.1,0.1-0.3,0.2-0.4,0.2c-0.1,0-0.2,0-0.2-0.1c-0.1,0-0.2-0.1-0.3-0.2
				c-0.4-0.3-0.7-0.5-1.1-0.7c-0.3-0.2-0.7-0.3-1.2-0.3c-0.6,0-1.1,0.1-1.4,0.3c-0.4,0.2-0.6,0.6-0.6,1c0,0.3,0.1,0.6,0.2,0.8
				c0.2,0.2,0.4,0.4,0.7,0.5c0.3,0.1,0.7,0.3,1.2,0.4c0.7,0.2,1.2,0.4,1.7,0.6c0.4,0.2,0.8,0.5,1.1,0.9s0.4,0.9,0.4,1.5
				C59.4,302.7,59.1,303.3,58.5,303.8z"/>
		</g>
	</g>
	<path class="st3" d="M97,311.9c0,0,5.6-0.1,12.9,3.5"/>
</g>
<g>
	<g>
		<path d="M312.8,331.2c-0.6-0.1-1.1-0.6-1.3-1.2c-8.2-23.2-24.8-25.6-25.5-25.7c-1-0.1-1.7-1.1-1.6-2.1s1-1.7,2.1-1.6
			c0.8,0.1,19.6,2.6,28.6,28.1c0.3,1-0.2,2-1.1,2.4C313.5,331.3,313.1,331.3,312.8,331.2z"/>
	</g>
	<g>
		<path class="st1" d="M300.4,303.7l-8-19.2c-0.6-1.4-1.7-2.4-3-2.8l-37.7-14.1c-2.7-0.9-5.5,0.6-6.3,3.2l-9.9,29.9
			c-0.9,2.7,0.6,5.5,3.2,6.3l37.7,14.1c1.4,0.4,2.9,0.3,4.2-0.5l17.9-10.7C300.5,308.7,301.4,306.1,300.4,303.7z M288.9,307.1
			c-2-0.7-3-2.8-2.4-4.7c0.6-1.9,2.8-3,4.7-2.4c1.9,0.6,3,2.8,2.4,4.7C292.9,306.7,290.8,307.7,288.9,307.1z"/>
	</g>
	<g>
		<g>
			<g class="st2">
				<path class="st0" d="M271,291.3c0.8,0.9,1.3,1.9,1.5,3c0.2,1.2,0.1,2.4-0.3,3.6c-0.4,1.3-1.1,2.4-2.1,3.2
					c-0.9,0.8-2.1,1.3-3.3,1.5c-1.3,0.2-2.7,0.1-4.1-0.4c-1.2-0.4-2.3-1-3.3-1.7c-1-0.8-1.8-1.6-2.4-2.6c-0.3-0.5-0.4-1.1-0.2-1.6
					c0.1-0.4,0.4-0.7,0.7-1c0.3-0.2,0.7-0.3,1-0.2c0.2,0.1,0.4,0.2,0.5,0.3c0.2,0.1,0.3,0.3,0.5,0.5c0.6,0.8,1.2,1.4,1.8,2
					c0.6,0.5,1.4,0.9,2.2,1.2c1.3,0.4,2.3,0.4,3.2,0c0.9-0.4,1.5-1.2,1.9-2.4c0.4-1.1,0.3-2.1-0.1-3s-1.3-1.5-2.5-1.9
					c-0.7-0.2-1.4-0.4-2.1-0.3s-1.4,0.2-2.1,0.5c-0.4,0.1-0.9,0.1-1.2,0c-0.4-0.1-0.7-0.3-0.9-0.7c-0.2-0.3-0.2-0.7-0.1-1.1l3-9
					c0.2-0.5,0.5-0.9,0.9-1.1c0.4-0.2,0.9-0.2,1.4,0l9.6,3.2c1.1,0.4,1.6,1,1.2,2c-0.3,1-1,1.2-2.2,0.9l-7.7-2.5l-1.8,5.5
					c1.2-0.4,2.5-0.3,3.9,0.1C269.2,289.8,270.2,290.4,271,291.3z"/>
			</g>
		</g>
		<g class="st2">
			<path class="st0" d="M253.9,285.9c-0.7,0.3-1.4,0.4-2.3,0.3l-0.3,0.9c-0.1,0.2-0.2,0.4-0.4,0.4c-0.2,0.1-0.4,0.1-0.6,0
				c-0.2-0.1-0.4-0.2-0.4-0.4c-0.1-0.2-0.1-0.4,0-0.6l0.3-0.8c-0.5-0.2-1-0.5-1.4-0.8c-0.4-0.3-0.8-0.7-1-1.1
				c-0.1-0.1-0.1-0.2-0.2-0.4c0-0.1,0-0.2,0.1-0.4c0.1-0.2,0.2-0.3,0.3-0.4c0.2-0.1,0.3-0.1,0.5-0.1c0.1,0,0.2,0.1,0.2,0.1
				c0.1,0.1,0.2,0.1,0.3,0.3c0.3,0.4,0.7,0.7,1,1c0.4,0.3,0.8,0.5,1.2,0.6c0.6,0.2,1.1,0.2,1.5,0.1c0.4-0.1,0.7-0.4,0.8-0.9
				c0.1-0.3,0.1-0.5-0.1-0.7c-0.1-0.2-0.3-0.4-0.6-0.6c-0.2-0.2-0.6-0.4-1-0.7c-0.6-0.4-1.1-0.8-1.5-1.1c-0.4-0.3-0.6-0.7-0.8-1.2
				c-0.2-0.5-0.2-1,0-1.6c0.2-0.7,0.7-1.3,1.4-1.6c0.7-0.3,1.5-0.4,2.4-0.3l0.3-0.9c0.1-0.2,0.2-0.4,0.4-0.4c0.2-0.1,0.4-0.1,0.6,0
				c0.2,0.1,0.4,0.2,0.4,0.4c0.1,0.2,0.1,0.4,0,0.6l-0.3,0.8c0.9,0.4,1.6,1,2,1.8c0.2,0.2,0.2,0.5,0.1,0.7c-0.1,0.2-0.2,0.3-0.3,0.4
				c-0.2,0.1-0.3,0.1-0.5,0.1c-0.1,0-0.2-0.1-0.2-0.1c-0.1-0.1-0.2-0.1-0.3-0.3c-0.3-0.4-0.6-0.7-0.9-0.9s-0.7-0.4-1.1-0.6
				c-0.6-0.2-1.1-0.2-1.5-0.1c-0.4,0.1-0.7,0.4-0.8,0.9c-0.1,0.3-0.1,0.6,0,0.8c0.1,0.2,0.3,0.5,0.6,0.7c0.3,0.2,0.6,0.4,1.1,0.7
				c0.6,0.4,1.1,0.7,1.5,1c0.4,0.3,0.6,0.7,0.8,1.1s0.2,1,0,1.6C255,285,254.6,285.5,253.9,285.9z"/>
		</g>
	</g>
	<path class="st3" d="M289.2,303.3c0,0,5.5,1.3,11.6,6.6"/>
</g>
<g>
	<g>
		<path d="M127.2,218.4c-0.6,0.2-1.2,0.1-1.7-0.4c-18.9-15.8-34.4-9.3-35.1-9c-0.9,0.4-2,0-2.5-1c-0.4-0.9,0-2,0.9-2.5
			c0.7-0.3,18.2-7.8,39,9.6c0.8,0.7,0.9,1.8,0.2,2.6C127.8,218.1,127.5,218.3,127.2,218.4z"/>
	</g>
	<g>
		<path class="st1" d="M102.5,201.1l-16.7-12.4c-1.2-0.9-2.7-1.2-4.1-0.9l-39.6,7.1c-2.8,0.6-4.4,3.3-3.8,6l6.8,30.8
			c0.6,2.8,3.3,4.4,6,3.8l39.6-7.1c1.4-0.3,2.7-1.2,3.4-2.5l9.9-18.4C105.1,205.4,104.5,202.6,102.5,201.1z M94.3,209.8
			c-2,0.4-4-0.8-4.5-2.8c-0.4-2,0.8-4,2.8-4.5c2-0.4,4,0.8,4.5,2.8C97.6,207.4,96.3,209.4,94.3,209.8z"/>
	</g>
	<g>
		<g>
			<g class="st2">
				<path class="st0" d="M70.4,199.3c1.8,1.5,3.1,3.9,3.8,7.2c0.5,2.3,0.6,4.3,0.3,6.1c-0.3,1.8-1,3.3-2,4.5
					c-1.1,1.2-2.4,1.9-4.1,2.3c-1.1,0.2-2.3,0.3-3.5,0.1c-1.2-0.2-2.3-0.5-3.2-1c-0.3-0.2-0.5-0.3-0.7-0.5c-0.2-0.2-0.3-0.4-0.3-0.7
					c-0.1-0.4-0.1-0.8,0.1-1.2s0.4-0.6,0.8-0.7c0.2,0,0.4-0.1,0.6,0s0.4,0.1,0.7,0.2c1.9,0.8,3.5,1,4.8,0.7c1.4-0.3,2.4-1.2,3-2.7
					c0.5-1.5,0.6-3.5,0.1-5.9c-0.3,1-0.8,1.8-1.6,2.6c-0.8,0.7-1.7,1.2-2.9,1.5c-1.2,0.3-2.4,0.2-3.5-0.1s-2-1-2.8-1.9
					c-0.8-0.9-1.3-2-1.6-3.3c-0.3-1.3-0.3-2.6,0.1-3.8c0.4-1.2,1-2.2,1.9-3c0.9-0.8,2.1-1.4,3.4-1.7
					C66.4,197.4,68.6,197.8,70.4,199.3z M68.7,206.9c0.5-0.8,0.7-1.8,0.4-3c-0.3-1.1-0.8-2-1.6-2.5c-0.8-0.5-1.8-0.7-2.9-0.5
					c-1.1,0.2-1.9,0.8-2.4,1.6c-0.5,0.8-0.6,1.8-0.4,3c0.3,1.1,0.8,2,1.6,2.5c0.8,0.5,1.7,0.7,2.8,0.5
					C67.4,208.3,68.2,207.7,68.7,206.9z"/>
			</g>
		</g>
		<g class="st2">
			<path class="st0" d="M53.4,209.5c-0.4,0.6-1,1.1-1.9,1.4l0.2,0.9c0,0.2,0,0.4-0.1,0.6c-0.1,0.2-0.3,0.3-0.5,0.3
				c-0.2,0-0.4,0-0.6-0.1c-0.2-0.1-0.3-0.3-0.3-0.5l-0.2-0.9c-0.5,0.1-1.1,0.1-1.6,0c-0.5-0.1-1-0.2-1.5-0.4
				c-0.1-0.1-0.2-0.1-0.3-0.2c-0.1-0.1-0.1-0.2-0.2-0.4c0-0.2,0-0.4,0.1-0.6c0.1-0.2,0.2-0.3,0.3-0.3c0.1,0,0.2,0,0.3,0
				c0.1,0,0.2,0,0.3,0.1c0.5,0.2,1,0.3,1.4,0.3c0.4,0,0.9,0,1.3-0.1c0.6-0.1,1.1-0.4,1.4-0.7c0.3-0.3,0.4-0.7,0.3-1.2
				c-0.1-0.3-0.2-0.5-0.4-0.6c-0.2-0.1-0.5-0.2-0.8-0.2c-0.3,0-0.7-0.1-1.2-0.1c-0.7,0-1.3-0.1-1.8-0.2c-0.5-0.1-0.9-0.3-1.3-0.6
				c-0.4-0.3-0.7-0.8-0.8-1.4c-0.2-0.8,0-1.5,0.4-2.1c0.4-0.7,1.1-1.1,1.9-1.5l-0.2-0.9c0-0.2,0-0.4,0.1-0.6
				c0.1-0.2,0.3-0.3,0.5-0.3s0.4,0,0.6,0.1c0.2,0.1,0.3,0.3,0.3,0.5l0.2,0.9c1-0.1,1.9,0.1,2.7,0.5c0.3,0.1,0.4,0.3,0.5,0.6
				c0,0.2,0,0.4-0.1,0.6c-0.1,0.2-0.2,0.3-0.4,0.3c-0.1,0-0.2,0-0.3,0s-0.2,0-0.4-0.1c-0.4-0.2-0.8-0.3-1.2-0.4
				c-0.4-0.1-0.8,0-1.3,0.1c-0.6,0.1-1,0.4-1.3,0.7c-0.3,0.3-0.4,0.7-0.3,1.2c0.1,0.3,0.2,0.5,0.5,0.7c0.2,0.1,0.5,0.2,0.8,0.3
				c0.3,0,0.8,0.1,1.3,0.1c0.7,0,1.3,0.1,1.8,0.1c0.5,0.1,0.9,0.3,1.3,0.6c0.4,0.3,0.6,0.7,0.8,1.4
				C53.9,208.2,53.8,208.9,53.4,209.5z"/>
		</g>
	</g>
	<path class="st3" d="M92.6,206.5c0,0,5.4-1.7,13.3-0.3"/>
</g>
<g>
	<g>
		<g>
			<path class="st4" d="M171.3,72c0,9.2-6,21.9-13.2,28.9c-3.2,3.1-6.7,5-10,5c-2.1,0-4.2-0.3-5.9-0.9c-2.4-0.7-5-0.7-7.5,0
				c-1.8,0.5-3.9,0.9-5.9,0.9c-3.4,0-7.1-2.1-10.4-5.5c-7-7-12.8-19.4-12.8-28.4c0-13.3,8-21.3,15.4-23.3c3.6-0.9,7.7-0.3,11.1,0.5
				c3.5,0.9,7.1,1.1,10.6,0.5c0.7-0.1,1.4-0.3,2.1-0.5c3.4-0.9,7.5-1.5,11.1-0.5C163.3,50.6,171.3,58.7,171.3,72z"/>
			<path class="st5" d="M145.3,54.2c0,1.5-2.4,2.8-5.5,3.1c-0.4,0-0.9,0.1-1.4,0.1s-1,0-1.4-0.1c-3.1-0.3-5.5-1.6-5.5-3.1H145.3z"/>
			<path class="st6" d="M143.6,41.5l-5.1,7.7c0.4,1.6,0.7,3.3,0.9,5.1c0.1,1,0.2,2,0.2,3.1c-0.4,0-0.9,0.1-1.4,0.1s-1,0-1.4-0.1
				c0-1-0.1-2.1-0.3-3.1c-0.9-7.2-3.7-12.5-3.7-12.5c-0.4-0.7-0.1-1.5,0.6-1.9c0.7-0.4,1.5-0.1,1.9,0.6c0.1,0.2,1.1,2.1,2.1,5.2
				l3.7-5.7c0.4-0.6,1.3-0.8,1.9-0.4C143.9,40,144.1,40.8,143.6,41.5z"/>
		</g>
		<path class="st7" d="M174.5,30.2c0,0-1.8,12.9-11.6,16.6c-9.3,3.6-17.6-6.1-21-5.3c-0.2,0-0.3,0.1-0.4,0.2l0,0l0,0
			c0.1-0.3,3.8-11.5,13.4-12.2C164.6,28.7,169.9,33.1,174.5,30.2z"/>
		<path class="st8" d="M142.9,39.9l-1.4,1.8l1,0.4c11.7-6.2,22.3-6.2,23.4-5.9l0.3-0.8l0.4,0.8l0.5-0.8l-0.5-0.8
			C165.9,34.1,155,33.9,142.9,39.9z"/>
	</g>
	<circle class="st9" cx="163.1" cy="70.3" r="2.6"/>
	<circle class="st9" cx="158" cy="61.2" r="2.6"/>
	<circle class="st9" cx="155.4" cy="71.9" r="2.6"/>
</g>
<g>
	<path class="st10" d="M320.2,63.8l-7.6-0.6l2.8-7.1c0.5-1.2,1-2.2,1.7-3.3c-4.4-1.9-9.3-3-14.5-3c-19.9,0-36,16.1-36,36
		s16.1,36,36,36s36-16.1,36-36c0-9.1-3.4-17.4-8.9-23.7C326.8,63.4,323.6,64.1,320.2,63.8z"/>
	<circle class="st11" cx="323.3" cy="72.2" r="3"/>
	<circle class="st11" cx="331.3" cy="88.9" r="3"/>
	<circle class="st11" cx="330.8" cy="79.7" r="3"/>
	<circle class="st11" cx="321.8" cy="85.7" r="3"/>
	<circle class="st11" cx="323.3" cy="96.2" r="3"/>
	<circle class="st11" cx="296.3" cy="60.2" r="3"/>
	<circle class="st11" cx="285.8" cy="64.7" r="3"/>
	<g>
		<path class="st10" d="M307.2,61.7c0,0,6.4,1,8.1,5.4"/>
		<path class="st12" d="M315.3,68.6c-0.6,0-1.2-0.4-1.4-0.9c-1.4-3.5-6.9-4.5-6.9-4.5c-0.8-0.1-1.4-0.9-1.2-1.7
			c0.1-0.8,0.9-1.4,1.7-1.2c0.3,0,7.2,1.2,9.2,6.3c0.3,0.8-0.1,1.6-0.8,1.9C315.6,68.6,315.5,68.6,315.3,68.6z"/>
	</g>
	<g>
		<path class="st10" d="M308.1,66.2c1.6-1.7,3.5-3,5.7-3.8"/>
		<path class="st12" d="M308.1,67.7c-0.4,0-0.7-0.1-1-0.4c-0.6-0.6-0.7-1.5-0.1-2.1c1.7-1.9,3.9-3.3,6.3-4.2
			c0.8-0.3,1.6,0.1,1.9,0.9c0.3,0.8-0.1,1.6-0.9,1.9c-1.9,0.7-3.7,1.9-5.1,3.5C308.9,67.6,308.5,67.7,308.1,67.7z"/>
	</g>
	<path class="st7" d="M341.6,45.1l-7.6-0.6c-8.1-0.7-15.6,4-18.6,11.5l-2.8,7.1l7.6,0.6c8.1,0.7,15.6-4,18.6-11.5L341.6,45.1z"/>
	<path class="st8" d="M313.5,61l-0.8,2.1l1.1,0.1C323.2,54,333.4,51,334.5,51l0.1-0.8l0.6,0.6l0.2-0.9l-0.7-0.6
		C333.7,49.1,323.3,52,313.5,61z"/>
</g>
<g>
	<g>
		<g>
			<path class="st13" d="M360,224.7c0,16.7-13.6,26.8-30.3,26.7c-0.8,0-1.5,0-2.3-0.1l0,0c-15.5-1-27.8-11.2-27.5-27
				c0.1-8.2,3.5-15.6,9-21c2.3-2.3,3.8-5.3,4.3-8.6c0-0.1,0-0.2,0-0.3c1.6-8.3,8.5-14.6,16.8-14.6h0.1c8.2,0,15.1,6.3,16.7,14.6v0.1
				c0.5,3.4,2.1,6.5,4.5,8.9C356.6,208.9,360,216.4,360,224.7z"/>
			<path class="st6" d="M329.6,185.8c-0.1,0-0.2,0-0.3,0c-0.9-0.2-1.4-1-1.3-1.8l0,0c0-0.1,2.4-14.3-3.5-20.2
				c-0.6-0.6-0.6-1.6,0-2.2c0.6-0.6,1.6-0.6,2.2,0c7.1,7.1,4.5,22.4,4.4,23C331,185.2,330.3,185.8,329.6,185.8z"/>
			<path class="st14" d="M326.3,183.4c0.9,0,1.5,0,2.1-0.1c0.5,0,1-0.1,1.4-0.1s0.9,0,1.4,0c0.6,0,1.2,0,2.1,0.1
				c0,0.9-0.5,1.7-1.1,2.2c-0.7,0.5-1.5,0.8-2.4,0.8s-1.7-0.3-2.4-0.8C326.7,185.1,326.3,184.3,326.3,183.4z"/>
			<path class="st6" d="M335,170.2c-5.5,0-8-3.7-8.2-3.9c-0.4-0.5-0.2-1.2,0.3-1.6c0.5-0.4,1.2-0.2,1.6,0.3c0.1,0.2,3,4.2,9.5,2.4
				c0.6-0.2,1.2,0.2,1.4,0.8c0.2,0.6-0.2,1.2-0.8,1.4C337.4,170,336.2,170.2,335,170.2z"/>
			<path class="st14" d="M354.9,171.6l7.8-8.3l-10.4-4.7c-6.4-2.9-13.8,0.2-16.2,6.8l-0.2,0.6c-0.6,1.7-0.2,3.6,1,4.9l0.4,0.5
				C342,176.6,350.1,176.7,354.9,171.6z"/>
		</g>
		<g>
			<circle class="st14" cx="347" cy="220.8" r="2.5"/>
			<circle class="st14" cx="348.5" cy="236" r="2.5"/>
			<circle class="st14" cx="350.7" cy="228.7" r="2.5"/>
			<circle class="st14" cx="342" cy="230.9" r="2.5"/>
			<circle class="st14" cx="340.3" cy="239.4" r="2.5"/>
		</g>
	</g>
</g>
<g>
	<g>
		<path class="st14" d="M131,361.8c-6,1.8-12.2,2-17.8,0.5c-5.1-1.4-9.4-4.1-12.2-7.8c-3.3,0.1-6.1-1.7-7-4.5l0,0
			c-0.9-2.8,0.6-6,3.5-7.7c0.8-9.7,9.3-18.8,21-22.3s23.8-0.6,29.8,7c3.3-0.1,6.3,1.7,7.1,4.5l0,0c0.9,2.8-0.5,5.9-3.3,7.6
			c-0.3,4.6-2.4,9.2-5.9,13.2C142.2,356.7,137,360,131,361.8z"/>
	</g>
	<g>
		<circle class="st15" cx="140.7" cy="335" r="2.3"/>
		<circle class="st15" cx="142.2" cy="349.4" r="2.3"/>
		<circle class="st15" cx="144.3" cy="342.5" r="2.3"/>
		<circle class="st15" cx="136" cy="344.6" r="2.3"/>
		<circle class="st15" cx="134.4" cy="352.7" r="2.3"/>
	</g>
</g>
<g>
	<g>
		<path class="st16" d="M351.7,312.9c-8.7,42.3-61.9,49.8-82.6,38.1c-11.9-6.8-17.3-14.1-19.7-19.1c-1.2-2.5,1-5.3,3.7-4.7
			c54.4,12.3,91.7-18.8,91.7-18.8L351.7,312.9z"/>
		<g>
			<path class="st17" d="M271.8,340.2c0.2-0.8,1.1-1.2,1.9-1c16.3,4.9,32.9,2.6,49.3-6.8c12.3-7.1,19.9-15.7,20-15.8l0,0
				c0.5-0.6,1.5-0.7,2.1-0.2s0.7,1.5,0.2,2.1c-0.3,0.4-7.9,9.1-20.7,16.4c-7.5,4.3-15.2,7.2-22.9,8.7c-9.7,1.8-19.4,1.3-28.8-1.6
				c-0.1,0-0.3-0.1-0.4-0.2C271.9,341.5,271.6,340.9,271.8,340.2z"/>
			<path class="st17" d="M264,347.8c1.5,1.1,3.2,2.1,5.1,3.2c20.7,11.8,73.9,4.2,82.6-38.1l-3.3-2.2c-8.7,42.3-61.9,49.8-82.6,38.1
				C265.2,348.5,264.6,348.1,264,347.8z"/>
		</g>
		<path class="st18" d="M249.4,331.9c0.7,1.3,1.5,2.9,2.7,4.5c2.9-1.9,4.9-4.9,5.5-8.2c-1.5-0.3-2.9-0.6-4.4-0.9
			C250.4,326.6,248.2,329.4,249.4,331.9z"/>
		<path class="st17" d="M350.1,300.2l-5.3,8.2l6.9,4.4l5.3-8.2c1-1.6,0.6-3.7-1-4.7l-1.2-0.8C353.2,298.2,351.1,298.6,350.1,300.2z"
			/>
	</g>
</g>
<g>
	<path class="st7" d="M121.1,162.6c8.9,6.9,12.8,17.8,14.3,23.2c0.5,1.7-0.8,3.4-2.6,3.4c-5.6-0.1-17.1-1.1-26-8S94,163.4,92.5,158
		c-0.5-1.7,0.8-3.4,2.6-3.4C100.6,154.7,112.1,155.7,121.1,162.6z"/>
	<path class="st19" d="M127.2,180.9c-0.4,0-0.8-0.1-1.2-0.4l-18.3-14.2c-0.8-0.7-1-1.9-0.3-2.7s1.9-1,2.7-0.3l18.3,14.2
		c0.8,0.7,1,1.9,0.3,2.7C128.4,180.7,127.8,180.9,127.2,180.9z"/>
	<path class="st14" d="M138.6,151.8c4.6,10.3,2.8,21.8,1.6,27.2c-0.4,1.7-2.3,2.6-3.9,1.7c-4.9-2.7-14.5-9.1-19.1-19.5
		c-4.6-10.3-2.8-21.8-1.6-27.2c0.4-1.7,2.3-2.6,3.9-1.7C124.5,135,134.1,141.4,138.6,151.8z"/>
	<path class="st19" d="M132.6,169c-0.7,0-1.5-0.4-1.8-1.2l-9.4-21.2c-0.4-1,0-2.1,1-2.6c1-0.4,2.1,0,2.6,1l9.4,21.2
		c0.4,1,0,2.1-1,2.6C133.2,169,132.9,169,132.6,169z"/>
	<path class="st7" d="M166.7,162.6c-8.9,6.9-12.8,17.8-14.3,23.2c-0.5,1.7,0.8,3.4,2.6,3.4c5.6-0.1,17.1-1.1,26-8
		s12.8-17.8,14.3-23.2c0.5-1.7-0.8-3.4-2.6-3.4C187.1,154.7,175.6,155.7,166.7,162.6z"/>
	<path class="st19" d="M164.7,180.9c-0.6,0-1.2-0.3-1.5-0.8c-0.7-0.8-0.5-2.1,0.3-2.7l18.3-14.2c0.8-0.7,2.1-0.5,2.7,0.3
		c0.7,0.8,0.5,2.1-0.3,2.7l-18.3,14.2C165.5,180.8,165.1,180.9,164.7,180.9z"/>
	<path class="st14" d="M149.1,151.8c-4.6,10.3-2.8,21.8-1.6,27.2c0.4,1.7,2.3,2.6,3.9,1.7c4.9-2.7,14.5-9.1,19.1-19.5
		s2.8-21.8,1.6-27.2c-0.4-1.7-2.3-2.6-3.9-1.7C163.3,135,153.7,141.4,149.1,151.8z"/>
	<path class="st19" d="M155.1,169c-0.3,0-0.5-0.1-0.8-0.2c-1-0.4-1.4-1.6-1-2.6l9.4-21.2c0.4-1,1.6-1.4,2.6-1s1.4,1.6,1,2.6
		l-9.4,21.2C156.6,168.6,155.8,169,155.1,169z"/>
	<path class="st7" d="M155.6,154.4c0,11.3-6.2,21.1-9.6,25.5c-1.1,1.4-3.2,1.4-4.2,0c-3.4-4.5-9.6-14.2-9.6-25.5s6.2-21.1,9.6-25.5
		c1.1-1.4,3.2-1.4,4.2,0C149.4,133.4,155.6,143.1,155.6,154.4z"/>
	<path class="st19" d="M143.9,168c-1.1,0-1.9-0.9-1.9-1.9v-23.2c0-1.1,0.9-1.9,1.9-1.9c1.1,0,1.9,0.9,1.9,1.9V166
		C145.8,167.1,144.9,168,143.9,168z"/>
	<path class="st20" d="M143.9,171.9L143.9,171.9c-17.5,0-32.3,13-34.6,30.3l0,0c-1.2,9.1-1.2,18.4,0,27.5l0,0
		c2.3,17.4,17.1,30.3,34.6,30.3l0,0c17.5,0,32.3-13,34.6-30.3l0,0c1.2-9.1,1.2-18.4,0-27.5l0,0C176.2,184.8,161.4,171.9,143.9,171.9
		z"/>
	<g>
		<path class="st21" d="M121.1,196.1c-0.5,0-1-0.2-1.4-0.6c-0.8-0.8-0.8-2,0-2.7l3.3-3.3c0.8-0.8,2-0.8,2.7,0l3.3,3.3
			c0.8,0.8,0.8,2,0,2.7c-0.8,0.8-2,0.8-2.7,0l-1.9-1.9l-1.9,1.9C122.1,195.9,121.6,196.1,121.1,196.1z"/>
		<path class="st21" d="M147.1,253.7c-0.5,0-1-0.2-1.4-0.6l-1.9-1.9l-1.9,1.9c-0.8,0.8-2,0.8-2.7,0c-0.8-0.8-0.8-2,0-2.7l3.3-3.3
			c0.8-0.8,2-0.8,2.7,0l3.3,3.3c0.8,0.8,0.8,2,0,2.7C148.1,253.5,147.6,253.7,147.1,253.7z"/>
		<path class="st21" d="M121.1,235.2c-0.5,0-1-0.2-1.4-0.6c-0.8-0.8-0.8-2,0-2.7l3.3-3.3c0.4-0.4,0.9-0.6,1.4-0.6s1,0.2,1.4,0.6
			l3.3,3.3c0.8,0.8,0.8,2,0,2.7c-0.8,0.8-2,0.8-2.7,0l-1.9-1.9l-1.9,1.9C122.1,235,121.6,235.2,121.1,235.2z"/>
		<path class="st21" d="M130.8,244.5c-0.5,0-1-0.2-1.4-0.6c-0.8-0.8-0.8-2,0-2.7l3.3-3.3c0.4-0.4,0.9-0.6,1.4-0.6s1,0.2,1.4,0.6
			l3.3,3.3c0.8,0.8,0.8,2,0,2.7c-0.8,0.8-2,0.8-2.7,0l-1.9-1.9l-1.9,1.9C131.8,244.3,131.3,244.5,130.8,244.5z"/>
		<path class="st21" d="M147.1,196.1c-0.5,0-1-0.2-1.4-0.6l-1.9-1.9l-1.9,1.9c-0.8,0.8-2,0.8-2.7,0s-0.8-2,0-2.7l3.3-3.3
			c0.8-0.8,2-0.8,2.7,0l3.3,3.3c0.8,0.8,0.8,2,0,2.7C148.1,195.9,147.6,196.1,147.1,196.1z"/>
		<path class="st21" d="M130.8,186.8c-0.5,0-1-0.2-1.4-0.6c-0.8-0.8-0.8-2,0-2.7l3.3-3.3c0.4-0.4,0.9-0.6,1.4-0.6s1,0.2,1.4,0.6
			l3.3,3.3c0.8,0.8,0.8,2,0,2.7c-0.8,0.8-2,0.8-2.7,0l-1.9-1.9l-1.9,1.9C131.8,186.6,131.3,186.8,130.8,186.8z"/>
		<path class="st21" d="M166.7,196.1c-0.5,0-1-0.2-1.4-0.6l-1.9-1.9l-1.9,1.9c-0.8,0.8-2,0.8-2.7,0c-0.8-0.8-0.8-2,0-2.7l3.3-3.3
			c0.8-0.8,2-0.8,2.7,0l3.3,3.3c0.8,0.8,0.8,2,0,2.7C167.6,195.9,167.1,196.1,166.7,196.1z"/>
		<path class="st21" d="M156.9,186.8c-0.5,0-1-0.2-1.4-0.6l-1.9-1.9l-1.9,1.9c-0.8,0.8-2,0.8-2.7,0c-0.8-0.8-0.8-2,0-2.7l3.3-3.3
			c0.4-0.4,0.9-0.6,1.4-0.6l0,0c0.5,0,1,0.2,1.4,0.6l3.3,3.3c0.8,0.8,0.8,2,0,2.7C157.9,186.6,157.4,186.8,156.9,186.8z"/>
		<path class="st21" d="M147.1,235.2c-0.5,0-1-0.2-1.4-0.6l-1.9-1.9l-1.9,1.9c-0.8,0.8-2,0.8-2.7,0c-0.8-0.8-0.8-2,0-2.7l3.3-3.3
			c0.8-0.8,2-0.8,2.7,0l3.3,3.3c0.8,0.8,0.8,2,0,2.7C148.1,235,147.6,235.2,147.1,235.2z"/>
		<path class="st21" d="M147.1,219.5c-0.5,0-1-0.2-1.4-0.6l-1.9-1.9l-1.8,2c-0.8,0.8-2,0.8-2.7,0c-0.8-0.8-0.8-2,0-2.7l3.3-3.3
			c0.8-0.8,2-0.8,2.7,0l3.3,3.3c0.8,0.8,0.8,2,0,2.7C148.1,219.3,147.6,219.5,147.1,219.5z"/>
		<path class="st21" d="M130.8,226c-0.5,0-1-0.2-1.4-0.6c-0.8-0.8-0.8-2,0-2.7l3.3-3.3c0.8-0.8,2-0.8,2.7,0l3.3,3.3
			c0.8,0.8,0.8,2,0,2.7c-0.8,0.8-2,0.8-2.7,0l-1.9-1.9l-1.9,1.9C131.8,225.8,131.3,226,130.8,226z"/>
		<path class="st21" d="M119.5,221.4c-0.5,0-1-0.2-1.4-0.6c-0.8-0.8-0.8-2,0-2.7l3.3-3.3c0.8-0.8,2-0.8,2.7,0l3.3,3.3
			c0.8,0.8,0.8,2,0,2.7c-0.8,0.8-2,0.8-2.7,0l-1.9-1.9l-1.9,1.9C120.5,221.2,120,221.4,119.5,221.4z"/>
		<path class="st21" d="M163.1,221.4c-0.5,0-1-0.2-1.4-0.6c-0.8-0.8-0.8-2,0-2.7l3.3-3.3c0.8-0.8,2-0.8,2.7,0l3.3,3.3
			c0.8,0.8,0.8,2,0,2.7c-0.8,0.8-2,0.8-2.7,0l-1.9-1.9l-1.9,1.9C164.1,221.2,163.6,221.4,163.1,221.4z"/>
		<path class="st21" d="M166.7,235.2c-0.5,0-1-0.2-1.4-0.6l-1.9-1.9l-1.9,1.9c-0.8,0.8-2,0.8-2.7,0c-0.8-0.8-0.8-2,0-2.7l3.3-3.3
			c0.4-0.4,0.9-0.6,1.4-0.6l0,0c0.5,0,1,0.2,1.4,0.6l3.3,3.3c0.8,0.8,0.8,2,0,2.7C167.6,235,167.1,235.2,166.7,235.2z"/>
		<path class="st21" d="M121.1,207.6c-0.5,0-1-0.2-1.4-0.6c-0.8-0.8-0.8-2,0-2.7l3.3-3.3c0.4-0.4,0.9-0.6,1.4-0.6s1,0.2,1.4,0.6
			l3.3,3.3c0.8,0.8,0.8,2,0,2.7c-0.8,0.8-2,0.8-2.7,0l-1.9-1.9l-1.9,1.9C122.1,207.4,121.6,207.6,121.1,207.6z"/>
		<path class="st21" d="M147.1,207.6c-0.5,0-1-0.2-1.4-0.6l-1.9-1.9l-1.9,1.9c-0.8,0.8-2,0.8-2.7,0c-0.8-0.8-0.8-2,0-2.7l3.3-3.3
			c0.8-0.8,2-0.8,2.7,0l3.3,3.3c0.8,0.8,0.8,2,0,2.7C148.1,207.4,147.6,207.6,147.1,207.6z"/>
		<path class="st21" d="M166.7,207.6c-0.5,0-1-0.2-1.4-0.6l-1.9-1.9l-1.9,1.9c-0.8,0.8-2,0.8-2.7,0c-0.8-0.8-0.8-2,0-2.7l3.3-3.3
			c0.4-0.4,0.9-0.6,1.4-0.6l0,0c0.5,0,1,0.2,1.4,0.6l3.3,3.3c0.8,0.8,0.8,2,0,2.7C167.6,207.4,167.1,207.6,166.7,207.6z"/>
		<path class="st21" d="M156.9,226c-0.5,0-1-0.2-1.4-0.6l-1.9-1.9l-1.9,1.9c-0.8,0.8-2,0.8-2.7,0c-0.8-0.8-0.8-2,0-2.7l3.3-3.3
			c0.8-0.8,2-0.8,2.7,0l3.3,3.3c0.8,0.8,0.8,2,0,2.7C157.9,225.8,157.4,226,156.9,226z"/>
		<path class="st21" d="M156.9,244.5c-0.5,0-1-0.2-1.4-0.6l-1.9-1.9l-1.9,1.9c-0.8,0.8-2,0.8-2.7,0c-0.8-0.8-0.8-2,0-2.7l3.3-3.3
			c0.4-0.4,0.9-0.6,1.4-0.6l0,0c0.5,0,1,0.2,1.4,0.6l3.3,3.3c0.8,0.8,0.8,2,0,2.7C157.9,244.3,157.4,244.5,156.9,244.5z"/>
	</g>
</g>
</svg>
