<?xml version="1.0" encoding="utf-8"?>
<!-- Generator: Adobe Illustrator 22.1.0, SVG Export Plug-In . SVG Version: 6.00 Build 0)  -->
<svg version="1.1" xmlns="http://www.w3.org/2000/svg" xmlns:xlink="http://www.w3.org/1999/xlink" x="0px" y="0px"
	 viewBox="0 0 184.7 40" style="enable-background:new 0 0 184.7 40;" xml:space="preserve">
<style type="text/css">
	.st0{fill:#637BA1;}
	.st1{fill:#FFFFFF;}
	.st2{fill:#ED8F20;}
	.st3{fill:#EF771D;}
	.st4{fill:#9B6026;}
	.st5{fill:#659C35;}
	.st6{fill:#88C057;}
	.st7{fill:#F94848;}
	.st8{fill:#E23D3D;}
	.st9{fill:#B25719;}
	.st10{fill:#E22020;}
	.st11{opacity:0.1;enable-background:new    ;}
	.st12{fill:#3B9645;}
	.st13{fill:#F8D65C;}
	.st14{fill:#CCB24D;}
	.st15{fill:#6DC069;}
	.st16{fill:#2A7936;}
	.st17{fill:#F2D422;}
	.st18{fill:#E2C01A;}
	.st19{fill:#585A60;}
</style>
<g id="Layer_2">
	<g>
		<path class="st0" d="M184.7,0H0v40h184.7V0L184.7,0z"/>
	</g>
</g>
<g id="Layer_1">
	<g>
		<g>
			<path class="st1" d="M53.9,34.6c-6.3,0-11.4-5.1-11.4-11.4c0-6.3,5.1-11.4,11.4-11.4c1.3,0,2.6,0.2,3.8,0.7
				c1.2-1.4,2.9-2.2,4.8-2.2c0.2,0,0.3,0,0.5,0l2.2,0.2c0.3,0,0.6,0.2,0.8,0.5c0.2,0.3,0.2,0.6,0.1,0.9l-0.8,2.1
				c-0.4,1.1-1.2,2-2.1,2.7c1.4,1.9,2.1,4.2,2.1,6.6C65.2,29.5,60.1,34.6,53.9,34.6z"/>
			<path class="st1" d="M62.5,11.3c0.1,0,0.3,0,0.4,0l2.2,0.2l-0.8,2.1c-0.5,1.3-1.5,2.3-2.7,2.9c0,0,0.1,0,0.1,0
				c1.6,1.8,2.6,4.2,2.6,6.8c0,5.7-4.6,10.4-10.4,10.4c-5.7,0-10.4-4.6-10.4-10.4s4.6-10.4,10.4-10.4c1.5,0,2.9,0.3,4.2,0.9
				c0,0,0,0,0,0.1C59,12.2,60.6,11.3,62.5,11.3 M61,16.6c-0.1,0-0.1,0-0.2,0.1C60.9,16.7,61,16.6,61,16.6c0.1,0,0.1,0,0.2-0.1
				C61.2,16.6,61.1,16.6,61,16.6 M60.2,16.8c-0.1,0-0.2,0-0.2,0C60.1,16.8,60.2,16.8,60.2,16.8c0.1,0,0.2,0,0.2,0
				C60.4,16.8,60.3,16.8,60.2,16.8 M59.3,16.9c0.1,0,0.3,0,0.4,0C59.6,16.9,59.5,16.9,59.3,16.9c-0.1,0-0.3,0-0.4,0
				C59.1,16.9,59.2,16.9,59.3,16.9 M62.5,9.3c-1.9,0-3.7,0.7-5.1,2c-1.1-0.3-2.3-0.5-3.6-0.5c-6.8,0-12.4,5.6-12.4,12.4
				c0,6.8,5.6,12.4,12.4,12.4c6.8,0,12.4-5.6,12.4-12.4c0-2.3-0.6-4.5-1.8-6.4c0.7-0.7,1.3-1.6,1.7-2.5l0.8-2.1
				c0.2-0.6,0.2-1.3-0.2-1.8c-0.3-0.5-0.9-0.9-1.5-0.9l-2.2-0.2C62.9,9.3,62.7,9.3,62.5,9.3L62.5,9.3z"/>
		</g>
		<g>
			<path class="st1" d="M21.9,33.8c-0.7,0-1.5-0.1-2.2-0.3c-0.3-0.1-0.6-0.1-0.9-0.1s-0.6,0-0.9,0.1c-0.7,0.2-1.5,0.3-2.2,0.3
				c-1.3,0-2.7-0.7-4.1-2.1C9,29.2,7.1,25,7.1,21.9c0-4.8,3-7.8,5.7-8.5c0.5-0.1,1-0.2,1.5-0.2c0.7,0,1.4,0.1,2.1,0.3
				c-0.2-0.6-0.4-0.9-0.4-0.9c-0.4-0.7-0.1-1.6,0.6-2c0.2-0.1,0.4-0.2,0.7-0.2c0.5,0,1,0.3,1.3,0.8c0,0,0,0,0,0l0.2-0.3
				c0.1-0.2,0.3-0.3,0.5-0.5c0.7-1.3,2.2-3.2,4.7-3.4c0.3,0,0.5,0,0.8,0c1.2,0,2.2,0.2,3,0.4c0.5,0.1,1,0.2,1.4,0.2
				c0.3,0,0.5-0.1,0.7-0.2c0.2-0.1,0.4-0.2,0.5-0.2c0.2,0,0.4,0.1,0.5,0.2c0.3,0.2,0.5,0.6,0.5,1c0,0.2-0.7,4.7-4.3,6.1
				c1.8,1.4,3.3,3.9,3.3,7.2c0,3.2-2,7.6-4.6,10.1C24.5,33.2,23.1,33.8,21.9,33.8z M20.6,13.5c0.1,0,0.2-0.1,0.3-0.1
				c-0.1,0-0.1-0.1-0.2-0.1L20.6,13.5z"/>
			<path class="st1" d="M24.8,8.1c1.9,0,3.3,0.6,4.4,0.6c0.4,0,0.8-0.1,1.2-0.3c0,0-0.6,4.2-3.7,5.4c-0.5,0.2-0.9,0.3-1.4,0.3
				c-2,0-3.8-1.6-4.9-1.9l-1.6,2.4c0,0.1,0,0.2,0.1,0.3c0.4,0,0.8,0,1.2-0.1c0.2,0,0.5-0.1,0.7-0.1c0.7-0.2,1.5-0.3,2.3-0.3
				c0.4,0,0.9,0,1.3,0.2c2.4,0.6,5,3.2,5,7.5c0,3-1.9,7.1-4.3,9.3c-1,1-2.2,1.6-3.2,1.6c-0.7,0-1.3-0.1-1.9-0.3
				c-0.4-0.1-0.8-0.2-1.2-0.2c-0.4,0-0.8,0.1-1.2,0.2c-0.6,0.2-1.2,0.3-1.9,0.3c-1.1,0-2.3-0.7-3.4-1.8c-2.3-2.3-4.1-6.3-4.1-9.2
				c0-4.3,2.6-6.9,5-7.5c0.4-0.1,0.8-0.2,1.3-0.2c0.8,0,1.6,0.1,2.3,0.3c0.4,0.1,0.8,0.2,1.3,0.2c-0.4-1.6-0.9-2.6-0.9-2.6
				c-0.1-0.2,0-0.5,0.2-0.6c0.1,0,0.1-0.1,0.2-0.1c0.2,0,0.3,0.1,0.4,0.2c0,0.1,0.4,0.7,0.7,1.7l1.2-1.8c0.1-0.1,0.2-0.2,0.4-0.2
				c0.5-1.1,1.8-3,4-3.2C24.3,8.1,24.6,8.1,24.8,8.1 M24.8,6.1C24.8,6.1,24.8,6.1,24.8,6.1c-0.3,0-0.6,0-0.9,0
				c-2.1,0.2-4,1.5-5.3,3.6c-0.4-0.2-0.8-0.3-1.2-0.3c-0.4,0-0.8,0.1-1.2,0.3c-0.6,0.3-1,0.8-1.2,1.4c-0.1,0.3-0.1,0.7-0.1,1
				c-0.2,0-0.4,0-0.6,0c-0.6,0-1.2,0.1-1.8,0.2c-4.5,1.2-6.5,5.7-6.5,9.5c0,3.4,2,7.9,4.7,10.6c1.5,1.5,3.2,2.4,4.8,2.4
				c0.8,0,1.7-0.1,2.5-0.4c0.2-0.1,0.4-0.1,0.6-0.1c0.2,0,0.4,0,0.6,0.1c0.8,0.2,1.7,0.4,2.5,0.4c1.5,0,3.1-0.8,4.6-2.2
				c2.8-2.7,4.9-7.3,4.9-10.8c0-2.4-0.8-5.1-2.5-7c2.9-2.1,3.5-6,3.6-6.2c0.1-0.8-0.2-1.5-0.9-2c-0.3-0.2-0.7-0.3-1.1-0.3
				c-0.4,0-0.8,0.1-1.1,0.3c0,0,0,0-0.1,0c-0.3,0-0.7-0.1-1.2-0.2C27.2,6.3,26.1,6.1,24.8,6.1L24.8,6.1z"/>
		</g>
		<g>
			<path class="st1" d="M87,36.3c-4.7,0-8.7-3.5-9.4-8.2c-0.3-2.3-0.3-4.6,0-6.9c0.2-1.2,0.5-2.3,1.1-3.3c-0.5-0.2-0.9-0.5-1.3-0.8
				c-2.4-1.8-3.4-4.6-3.8-6.1c-0.1-0.5,0-1,0.3-1.4c0.3-0.4,0.8-0.6,1.3-0.6c0.9,0,2.3,0.1,3.8,0.6c-0.3-1.9,0-3.7,0.2-4.8
				c0.2-0.7,0.8-1.3,1.6-1.3c0.3,0,0.6,0.1,0.8,0.2c0.6,0.3,1.6,1,2.6,1.9c0.5-1.1,1.1-1.9,1.5-2.4C86,2.6,86.5,2.3,87,2.3
				c0.5,0,1,0.2,1.3,0.7c0.4,0.5,1,1.3,1.5,2.4c1-0.9,2-1.6,2.6-1.9c0.2-0.1,0.5-0.2,0.8-0.2c0.8,0,1.4,0.5,1.6,1.3
				c0.2,1,0.5,2.8,0.2,4.8c1.5-0.5,2.9-0.6,3.8-0.6c0,0,0,0,0,0c0.5,0,1,0.2,1.3,0.6c0.3,0.4,0.4,0.9,0.3,1.4
				c-0.4,1.5-1.4,4.3-3.8,6.1c-0.4,0.3-0.8,0.6-1.3,0.8c0.6,1,1,2.2,1.1,3.3c0.3,2.3,0.3,4.6,0,6.9C95.7,32.8,91.7,36.3,87,36.3z"/>
			<path class="st1" d="M87,3.3c0.2,0,0.4,0.1,0.5,0.3c0.6,0.7,1.4,2,1.9,3.7c1.2-1.4,2.6-2.4,3.5-2.9c0.1-0.1,0.2-0.1,0.3-0.1
				c0.3,0,0.6,0.2,0.6,0.5c0.3,1.3,0.7,3.8-0.3,6.3c1.9-1.1,4.1-1.3,5.3-1.3c0,0,0,0,0,0c0.4,0,0.7,0.4,0.6,0.8
				c-0.4,1.3-1.3,3.9-3.5,5.6c-0.7,0.5-1.4,0.9-2.2,1.2c0.8,1.1,1.4,2.4,1.6,3.9c0.3,2.2,0.3,4.4,0,6.7c-0.6,4.2-4.1,7.3-8.4,7.3
				s-7.8-3.1-8.4-7.3c-0.3-2.2-0.3-4.4,0-6.7c0.2-1.5,0.8-2.8,1.6-3.9c-0.7-0.3-1.5-0.7-2.2-1.2c-2.2-1.7-3.1-4.3-3.5-5.6
				c-0.1-0.4,0.2-0.8,0.6-0.8c0,0,0,0,0,0c1.1,0,3.3,0.2,5.3,1.3c-0.9-2.4-0.6-5-0.3-6.3c0.1-0.3,0.3-0.5,0.6-0.5
				c0.1,0,0.2,0,0.3,0.1c0.9,0.5,2.3,1.4,3.5,2.9c0.5-1.6,1.4-2.9,1.9-3.7C86.6,3.4,86.8,3.3,87,3.3 M87,1.3c-0.8,0-1.6,0.4-2.1,1
				c-0.3,0.3-0.6,0.8-1,1.5c-0.7-0.6-1.4-0.9-1.8-1.2c-0.4-0.2-0.8-0.3-1.3-0.3c-1.2,0-2.3,0.8-2.6,2c-0.2,0.9-0.4,2.2-0.4,3.7
				c-1.1-0.2-2-0.3-2.6-0.3c0,0,0,0,0,0c-0.9,0-1.6,0.4-2.1,1c-0.5,0.7-0.7,1.5-0.5,2.3c0.4,1.6,1.6,4.7,4.2,6.7
				c0.2,0.2,0.4,0.3,0.6,0.4c-0.4,0.9-0.7,1.8-0.8,2.8c-0.3,2.4-0.3,4.8,0,7.2c0.7,5.2,5.1,9.1,10.4,9.1c5.2,0,9.7-3.9,10.4-9.1
				c0.3-2.4,0.3-4.8,0-7.2c-0.1-1-0.4-1.9-0.8-2.8c0.2-0.1,0.4-0.3,0.6-0.4c2.6-2,3.7-5,4.2-6.7c0.2-0.8,0.1-1.6-0.5-2.3
				c-0.5-0.7-1.3-1-2.1-1c-0.7,0-1.6,0.1-2.7,0.3c0-1.5-0.2-2.9-0.4-3.7c-0.3-1.2-1.3-2-2.6-2c-0.4,0-0.9,0.1-1.3,0.3
				c-0.5,0.3-1.1,0.6-1.8,1.2c-0.4-0.6-0.7-1.1-1-1.5C88.6,1.7,87.8,1.3,87,1.3L87,1.3z"/>
		</g>
		<g>
			<path class="st1" d="M116.3,35.1c-0.2,0-0.5,0-0.7,0c-5.3-0.3-9-4-8.9-8.8c0-2.6,1.1-5,2.9-6.8c0.5-0.5,0.8-1.2,1-1.9
				c0,0,0-0.1,0-0.1c0.5-2.4,2.2-4.3,4.4-4.8c0-1.5-0.3-2.6-0.9-3.1c-0.3-0.3-0.4-0.6-0.4-1c0-0.4,0.2-0.8,0.4-1
				c0.3-0.3,0.6-0.4,1-0.4s0.8,0.2,1,0.4c0.4,0.4,0.7,0.8,0.9,1.3c0,0,0.1,0.1,0.1,0.1c0.7-1.7,2.3-2.9,4.2-2.9
				c0.6,0,1.3,0.1,1.8,0.4l3,1.4c0.3,0.1,0.5,0.4,0.6,0.7s0,0.6-0.3,0.9l-2.3,2.4c-0.9,0.9-2,1.4-3.2,1.4c-1.2,0-2.4-0.5-3.2-1.4
				c0,0.3,0,0.6,0,0.9c2.2,0.6,3.9,2.4,4.3,4.8c0.1,0.8,0.5,1.5,1,2.1c1.8,1.8,2.8,4.3,2.8,6.8C126,31.5,122,35.1,116.3,35.1
				C116.4,35.1,116.3,35.1,116.3,35.1z"/>
			<path class="st1" d="M121.4,7.1c0.5,0,1,0.1,1.4,0.3l3,1.4l-2.3,2.4c-0.7,0.7-1.6,1.1-2.5,1.1c-0.9,0-1.9-0.4-2.6-1.1l-0.1-0.1
				c-0.1-0.1-0.1-0.2-0.2-0.2c-0.1,0-0.3,0-0.4,0c-0.5,0-0.9-0.1-1.2-0.3c0.3,1.1,0.3,2.2,0.2,3.1c2.2,0.2,3.9,1.9,4.3,4.2
				c0,0,0,0,0,0c0.2,1,0.6,1.9,1.3,2.6c1.6,1.6,2.5,3.7,2.5,6.1c0,4.8-3.9,7.7-8.7,7.7c0,0-0.1,0-0.1,0c-0.2,0-0.4,0-0.7,0h0
				c-4.5-0.3-8-3.2-7.9-7.8c0-2.4,1-4.5,2.6-6.1c0.7-0.7,1.1-1.5,1.2-2.5c0,0,0-0.1,0-0.1c0.4-2.3,2.2-4,4.4-4.2
				c0.1-1.4,0-3.6-1.1-4.7c-0.2-0.2-0.2-0.5,0-0.6c0.1-0.1,0.2-0.1,0.3-0.1s0.2,0,0.3,0.1c0.4,0.4,0.6,0.8,0.8,1.3
				c0.3,0.2,0.8,0.5,1.6,0.5c0.1,0,0.1,0,0.2,0c0-0.2,0-0.4,0.1-0.5l0.1-0.2C118.7,7.9,120,7.1,121.4,7.1 M121.4,5.1
				C121.4,5.1,121.4,5.1,121.4,5.1c-1.7,0-3.2,0.8-4.3,2c-0.1-0.1-0.2-0.2-0.3-0.3c-0.5-0.5-1.1-0.7-1.7-0.7c-0.7,0-1.3,0.3-1.7,0.7
				c-0.5,0.5-0.7,1.1-0.7,1.7c0,0.7,0.3,1.3,0.7,1.7c0.2,0.2,0.5,0.8,0.5,1.7c-2.2,0.9-3.9,2.9-4.4,5.4c0,0,0,0.1,0,0.1
				c-0.1,0.5-0.3,1-0.7,1.4c-2,2-3.1,4.6-3.2,7.4c-0.1,5.4,4,9.4,9.8,9.8c0.3,0,0.5,0,0.8,0l0.1,0c6.2,0,10.7-4.1,10.7-9.7
				c0-2.8-1.1-5.5-3.1-7.5c-0.4-0.4-0.6-0.9-0.7-1.5c0,0,0-0.1,0-0.1l0,0c-0.2-1.2-0.7-2.3-1.4-3.2c1.3-0.2,2.4-0.7,3.3-1.7l2.3-2.4
				c0.4-0.5,0.6-1.1,0.5-1.8c-0.1-0.6-0.5-1.2-1.1-1.4l-3-1.4C122.9,5.2,122.2,5.1,121.4,5.1L121.4,5.1L121.4,5.1z"/>
		</g>
		<g>
			<path class="st1" d="M143.8,29.3c-0.9,0-1.8-0.1-2.7-0.3c-1.6-0.4-3-1.3-4-2.4c-1.2-0.1-2.3-0.9-2.6-2.1
				c-0.3-1.1,0.1-2.4,1.1-3.2c0.5-3.2,3.3-6.1,7.1-7.2c1.1-0.3,2.2-0.5,3.3-0.5c2.7,0,5,0.9,6.5,2.6c1.3,0.1,2.3,0.9,2.7,2.1
				c0.3,1.1-0.1,2.4-1,3.2c-0.2,1.5-0.9,2.9-2,4.2c-1.3,1.5-3.1,2.6-5.1,3.2C146,29.2,144.9,29.3,143.8,29.3z"/>
			<path class="st1" d="M146,14.7c2.5,0,4.7,0.9,6.1,2.6c0,0,0.1,0,0.1,0c1,0,1.8,0.5,2.1,1.4l0,0c0.3,0.9-0.2,1.8-1,2.3
				c-0.1,1.4-0.7,2.8-1.8,4c-1.2,1.3-2.8,2.3-4.6,2.9c-1,0.3-2,0.5-3,0.5c-0.8,0-1.6-0.1-2.4-0.3c-1.6-0.4-2.9-1.3-3.7-2.4
				c0,0-0.1,0-0.1,0c-1,0-1.8-0.5-2.1-1.4l0,0c-0.3-0.9,0.2-1.8,1.1-2.3c0.3-3,2.8-5.7,6.4-6.8C144,14.8,145,14.7,146,14.7
				 M146,12.7l0,2L146,12.7c-1.2,0-2.4,0.2-3.6,0.5c-4,1.2-7,4.2-7.7,7.6c-1.1,1.1-1.5,2.6-1.1,4c0.4,1.4,1.6,2.4,3.1,2.7
				c1.1,1.1,2.5,2,4.2,2.4c0.9,0.3,1.9,0.4,2.9,0.4c1.2,0,2.4-0.2,3.6-0.5c2.2-0.7,4.1-1.9,5.5-3.5c1.1-1.3,1.9-2.8,2.2-4.3
				c1.1-1.1,1.5-2.5,1.1-4c-0.4-1.4-1.6-2.4-3.1-2.7C151.3,13.6,148.8,12.7,146,12.7L146,12.7z"/>
		</g>
		<g>
			<path class="st1" d="M161.6,36.1c-0.6,0-1.1,0-1.6-0.1c0,0-0.1,0-0.2,0c-0.2,0-0.4-0.1-0.6-0.1l-0.2,0c-0.3-0.1-0.5-0.1-0.7-0.2
				c-0.2-0.1-0.4-0.1-0.5-0.2c-0.6-0.4-0.9-1.1-0.8-1.9c0.1-0.6,0.4-1.1,0.8-1.4c12.8-8.6,13.8-22.1,13.8-22.2
				c0-0.4,0.3-0.8,0.8-0.9l2.3-0.6c0.1,0,0.2,0,0.2,0c0.3,0,0.6,0.2,0.8,0.4c0.9,1.3,1.6,2.7,2.1,4.2c0.4,1.4,0.7,2.8,0.7,4.3
				c0,0,0,0,0,0c0,0.7,0,1.4-0.1,2.1c-0.2,2.1-0.9,4.3-1.9,6.4c-0.1,0.3-0.3,0.6-0.4,0.9c-0.5,0.9-1,1.7-1.6,2.5
				c-0.2,0.3-0.4,0.6-0.7,0.9c-0.5,0.6-1,1.2-1.5,1.7c-0.5,0.5-0.9,0.9-1.4,1.2c-0.4,0.4-0.9,0.7-1.4,1c-0.9,0.6-1.9,1.1-2.8,1.3
				c-0.5,0.2-1,0.3-1.6,0.4l-0.1,0c0,0-0.1,0-0.1,0C163.8,36,162.7,36.1,161.6,36.1z"/>
			<path class="st1" d="M174.8,9.5c0.9,1.3,1.5,2.6,2,3.9c0.4,1.3,0.6,2.7,0.7,4c0,0,0,0,0,0c0,0.7,0,1.3-0.1,2
				c-0.2,2.1-0.9,4.2-1.8,6.1c-0.1,0.3-0.3,0.6-0.4,0.8c-0.5,0.8-1,1.6-1.5,2.4c-0.2,0.3-0.4,0.6-0.6,0.8c-0.5,0.6-0.9,1.1-1.4,1.6
				c0,0,0,0,0,0c-0.4,0.4-0.8,0.8-1.3,1.1c-0.4,0.3-0.9,0.7-1.3,0.9c-0.9,0.6-1.7,1-2.5,1.2c-0.5,0.2-1,0.3-1.5,0.4c0,0-0.1,0-0.1,0
				c0,0,0.1,0,0.1,0c-1.2,0.3-2.3,0.4-3.3,0.4c-0.6,0-1.1,0-1.6-0.1c0,0,0,0,0,0c0,0,0,0-0.1,0c-0.2,0-0.4-0.1-0.6-0.1
				c-0.1,0-0.1,0-0.2,0c-0.2-0.1-0.5-0.1-0.7-0.2c-0.1,0-0.2-0.1-0.3-0.1c-0.3-0.2-0.4-0.6-0.4-0.9c0-0.3,0.2-0.5,0.4-0.7
				c0,0,0,0,0,0c13.3-9,14.2-23,14.2-23l1.2-0.3L174.8,9.5 M174.8,7.5c-0.2,0-0.3,0-0.5,0.1l-1.1,0.3l-1.2,0.3
				c-0.8,0.2-1.5,0.9-1.5,1.8c0,0.1-1,13.1-13.3,21.4c0,0,0,0-0.1,0c-0.7,0.5-1.2,1.2-1.3,2.1c-0.1,1.1,0.4,2.2,1.3,2.8
				c0.2,0.2,0.5,0.3,0.8,0.4c0.2,0.1,0.5,0.1,0.8,0.2c0.1,0,0.1,0,0.2,0c0.2,0,0.4,0.1,0.7,0.1c0,0,0.1,0,0.1,0c0,0,0.1,0,0.1,0
				c0.6,0.1,1.1,0.1,1.7,0.1c1.1,0,2.3-0.1,3.5-0.4c0.1,0,0.1,0,0.2,0c0.1,0,0.1,0,0.2,0c0.6-0.1,1.1-0.3,1.7-0.4c1-0.3,2-0.8,3-1.5
				c0.5-0.3,1-0.7,1.5-1.1c0.5-0.4,0.9-0.8,1.4-1.3c0,0,0,0,0.1-0.1c0.5-0.5,1-1.1,1.6-1.7c0.2-0.3,0.5-0.6,0.7-0.9
				c0.6-0.8,1.2-1.7,1.7-2.6c0.2-0.3,0.3-0.6,0.5-0.9c1.1-2.2,1.8-4.5,2-6.7c0.1-0.7,0.1-1.5,0.1-2.2c0,0,0-0.1,0-0.1
				c0-1.5-0.3-3.1-0.8-4.5c-0.5-1.6-1.3-3.1-2.2-4.4C176.1,7.8,175.5,7.5,174.8,7.5L174.8,7.5z"/>
		</g>
		<g>
			<path class="st1" d="M172.5,11c-0.2,0-0.4,0-0.5-0.1c-0.2-0.1-0.4-0.4-0.5-0.6l-0.7-2.7c-0.3-1.1,0.4-2.1,1.4-2.4l0.4-0.1
				c0.2,0,0.3-0.1,0.5-0.1c0.9,0,1.7,0.6,1.9,1.5l0.7,2.7c0.1,0.5-0.2,1.1-0.7,1.2l-2.3,0.6C172.7,11,172.6,11,172.5,11z"/>
			<path class="st1" d="M173.2,6c0.4,0,0.8,0.3,1,0.7l0.7,2.7l-2.3,0.6l-0.7-2.7c-0.1-0.5,0.2-1.1,0.7-1.2L173,6
				C173.1,6,173.1,6,173.2,6 M173.2,4c-0.2,0-0.5,0-0.7,0.1l-0.4,0.1c-1.6,0.4-2.6,2-2.2,3.6l0.7,2.7c0.2,0.9,1,1.5,1.9,1.5
				c0.2,0,0.3,0,0.5-0.1l2.3-0.6c0.5-0.1,1-0.5,1.2-0.9s0.4-1,0.2-1.5l-0.7-2.7C175.8,4.9,174.6,4,173.2,4L173.2,4z"/>
		</g>
	</g>
	<g>
		<g>
			<path class="st2" d="M58.9,16.9l-2.2-0.2l0.8-2.1c0.1-0.3,0.3-0.6,0.5-0.9c-1.3-0.6-2.7-0.9-4.2-0.9c-5.7,0-10.4,4.6-10.4,10.4
				s4.6,10.4,10.4,10.4c5.7,0,10.4-4.6,10.4-10.4c0-2.6-1-5-2.6-6.8C60.8,16.8,59.9,16.9,58.9,16.9z"/>
			<circle class="st3" cx="59.8" cy="19.3" r="0.9"/>
			<circle class="st3" cx="62.1" cy="24.1" r="0.9"/>
			<circle class="st3" cx="62" cy="21.5" r="0.9"/>
			<circle class="st3" cx="59.4" cy="23.2" r="0.9"/>
			<circle class="st3" cx="59.8" cy="26.2" r="0.9"/>
			<circle class="st3" cx="52" cy="15.8" r="0.9"/>
			<circle class="st3" cx="49" cy="17.1" r="0.9"/>
			<g>
				<path class="st2" d="M55.2,16.3c0,0,1.8,0.3,2.3,1.6"/>
				<path class="st4" d="M57.5,18.3c-0.2,0-0.3-0.1-0.4-0.3c-0.4-1-2-1.3-2-1.3c-0.2,0-0.4-0.3-0.4-0.5c0-0.2,0.3-0.4,0.5-0.4
					c0.1,0,2.1,0.4,2.7,1.8c0.1,0.2,0,0.5-0.2,0.6C57.6,18.3,57.5,18.3,57.5,18.3z"/>
			</g>
			<g>
				<path class="st2" d="M55.4,17.6c0.4-0.5,1-0.9,1.6-1.1"/>
				<path class="st4" d="M55.4,18c-0.1,0-0.2,0-0.3-0.1c-0.2-0.2-0.2-0.4,0-0.6c0.5-0.5,1.1-1,1.8-1.2c0.2-0.1,0.5,0,0.6,0.3
					c0.1,0.2,0,0.5-0.3,0.6c-0.6,0.2-1.1,0.6-1.5,1C55.6,18,55.5,18,55.4,18z"/>
			</g>
			<path class="st5" d="M65.1,11.5l-2.2-0.2c-2.3-0.2-4.5,1.2-5.4,3.3l-0.8,2.1l2.2,0.2c2.3,0.2,4.5-1.2,5.4-3.3L65.1,11.5z"/>
			<path class="st6" d="M57,16.1l-0.2,0.6l0.3,0c2.7-2.6,5.6-3.5,6-3.5l0-0.2l0.2,0.2l0.1-0.3l-0.2-0.2C62.8,12.6,59.8,13.5,57,16.1
				z"/>
		</g>
		<g>
			<g>
				<g>
					<path class="st7" d="M29.4,21.9c0,3-1.9,7.1-4.3,9.3c-1,1-2.2,1.6-3.2,1.6c-0.7,0-1.3-0.1-1.9-0.3c-0.8-0.2-1.6-0.2-2.4,0
						c-0.6,0.2-1.2,0.3-1.9,0.3c-1.1,0-2.3-0.7-3.4-1.8c-2.3-2.3-4.1-6.3-4.1-9.2c0-4.3,2.6-6.9,5-7.5c1.2-0.3,2.5-0.1,3.6,0.2
						c1.1,0.3,2.3,0.3,3.4,0.1c0.2,0,0.5-0.1,0.7-0.1c1.1-0.3,2.4-0.5,3.6-0.2C26.8,15,29.4,17.6,29.4,21.9z"/>
					<path class="st8" d="M21,16.1c0,0.5-0.8,0.9-1.8,1c-0.1,0-0.3,0-0.4,0c-0.2,0-0.3,0-0.5,0c-1-0.1-1.8-0.5-1.8-1H21z"/>
					<path class="st9" d="M20.4,12l-1.6,2.5c0.1,0.5,0.2,1.1,0.3,1.6c0,0.3,0.1,0.6,0.1,1c-0.1,0-0.3,0-0.4,0c-0.2,0-0.3,0-0.5,0
						c0-0.3,0-0.7-0.1-1c-0.3-2.3-1.2-4-1.2-4c-0.1-0.2,0-0.5,0.2-0.6c0.2-0.1,0.5,0,0.6,0.2c0,0.1,0.4,0.7,0.7,1.7l1.2-1.8
						c0.1-0.2,0.4-0.3,0.6-0.1C20.5,11.5,20.6,11.8,20.4,12z"/>
				</g>
				<path class="st5" d="M30.4,8.4c0,0-0.6,4.2-3.7,5.4c-3,1.2-5.7-2-6.8-1.7c0,0-0.1,0-0.1,0.1c0,0,0,0,0,0l0,0
					c0-0.1,1.2-3.7,4.3-3.9C27.2,7.9,28.9,9.3,30.4,8.4z"/>
				<path class="st6" d="M20.2,11.5l-0.5,0.6l0.3,0.1c3.8-2,7.2-2,7.6-1.9l0.1-0.3l0.1,0.2L28,10l-0.1-0.3
					C27.6,9.6,24.1,9.6,20.2,11.5z"/>
			</g>
			<circle class="st10" cx="26.7" cy="21.3" r="0.9"/>
			<circle class="st10" cx="25.1" cy="18.4" r="0.9"/>
			<circle class="st10" cx="24.2" cy="21.9" r="0.9"/>
		</g>
		<g>
			<path class="st5" d="M81.5,11.8c2.2,1.7,3.1,4.3,3.5,5.6c0.1,0.4-0.2,0.8-0.6,0.8c-1.4,0-4.1-0.3-6.3-1.9
				c-2.2-1.7-3.1-4.3-3.5-5.6c-0.1-0.4,0.2-0.8,0.6-0.8C76.5,9.8,79.3,10.1,81.5,11.8z"/>
			<path class="st11" d="M82.9,16.2c-0.1,0-0.2,0-0.3-0.1l-4.4-3.4C78,12.5,78,12.2,78.1,12c0.2-0.2,0.5-0.2,0.7-0.1l4.4,3.4
				c0.2,0.2,0.2,0.5,0.1,0.7C83.2,16.1,83.1,16.2,82.9,16.2z"/>
			<path class="st12" d="M85.7,9.1c1.1,2.5,0.7,5.3,0.4,6.6c-0.1,0.4-0.6,0.6-0.9,0.4c-1.2-0.7-3.5-2.2-4.6-4.7s-0.7-5.3-0.4-6.6
				c0.1-0.4,0.6-0.6,0.9-0.4C82.3,5.1,84.6,6.6,85.7,9.1z"/>
			<path class="st11" d="M84.3,13.3c-0.2,0-0.4-0.1-0.4-0.3l-2.3-5.1c-0.1-0.2,0-0.5,0.2-0.6c0.2-0.1,0.5,0,0.6,0.2l2.3,5.1
				c0.1,0.2,0,0.5-0.2,0.6C84.4,13.3,84.3,13.3,84.3,13.3z"/>
			<path class="st5" d="M92.5,11.8c-2.2,1.7-3.1,4.3-3.5,5.6c-0.1,0.4,0.2,0.8,0.6,0.8c1.4,0,4.1-0.3,6.3-1.9
				c2.2-1.7,3.1-4.3,3.5-5.6c0.1-0.4-0.2-0.8-0.6-0.8C97.4,9.8,94.6,10.1,92.5,11.8z"/>
			<path class="st11" d="M92,16.2c-0.1,0-0.3-0.1-0.4-0.2c-0.2-0.2-0.1-0.5,0.1-0.7l4.4-3.4c0.2-0.2,0.5-0.1,0.7,0.1
				c0.2,0.2,0.1,0.5-0.1,0.7l-4.4,3.4C92.2,16.1,92.1,16.2,92,16.2z"/>
			<path class="st12" d="M88.2,9.1c-1.1,2.5-0.7,5.3-0.4,6.6c0.1,0.4,0.6,0.6,0.9,0.4c1.2-0.7,3.5-2.2,4.6-4.7s0.7-5.3,0.4-6.6
				c-0.1-0.4-0.6-0.6-0.9-0.4C91.7,5.1,89.3,6.6,88.2,9.1z"/>
			<path class="st11" d="M89.7,13.3c-0.1,0-0.1,0-0.2,0c-0.2-0.1-0.3-0.4-0.2-0.6l2.3-5.1c0.1-0.2,0.4-0.3,0.6-0.2
				c0.2,0.1,0.3,0.4,0.2,0.6L90.1,13C90,13.2,89.9,13.3,89.7,13.3z"/>
			<path class="st5" d="M89.8,9.8c0,2.7-1.5,5.1-2.3,6.2c-0.3,0.3-0.8,0.3-1,0c-0.8-1.1-2.3-3.4-2.3-6.2s1.5-5.1,2.3-6.2
				c0.3-0.3,0.8-0.3,1,0C88.3,4.7,89.8,7,89.8,9.8z"/>
			<path class="st11" d="M87,13c-0.3,0-0.5-0.2-0.5-0.5V7c0-0.3,0.2-0.5,0.5-0.5c0.3,0,0.5,0.2,0.5,0.5v5.6C87.4,12.8,87.2,13,87,13
				z"/>
			<path class="st13" d="M87,14L87,14c-4.2,0-7.8,3.1-8.4,7.3l0,0c-0.3,2.2-0.3,4.4,0,6.7l0,0c0.6,4.2,4.1,7.3,8.4,7.3l0,0
				c4.2,0,7.8-3.1,8.4-7.3l0,0c0.3-2.2,0.3-4.4,0-6.7l0,0C94.8,17.1,91.2,14,87,14z"/>
			<g>
				<path class="st14" d="M81.5,19.8c-0.1,0-0.2,0-0.3-0.1c-0.2-0.2-0.2-0.5,0-0.7l0.8-0.8c0.2-0.2,0.5-0.2,0.7,0l0.8,0.8
					c0.2,0.2,0.2,0.5,0,0.7c-0.2,0.2-0.5,0.2-0.7,0l-0.5-0.5l-0.5,0.5C81.7,19.8,81.6,19.8,81.5,19.8z"/>
				<path class="st14" d="M87.8,33.8c-0.1,0-0.2,0-0.3-0.1L87,33.2l-0.5,0.5c-0.2,0.2-0.5,0.2-0.7,0c-0.2-0.2-0.2-0.5,0-0.7l0.8-0.8
					c0.2-0.2,0.5-0.2,0.7,0l0.8,0.8c0.2,0.2,0.2,0.5,0,0.7C88,33.7,87.9,33.8,87.8,33.8z"/>
				<path class="st14" d="M81.5,29.3c-0.1,0-0.2,0-0.3-0.1c-0.2-0.2-0.2-0.5,0-0.7l0.8-0.8c0.1-0.1,0.2-0.1,0.3-0.1
					c0.1,0,0.2,0,0.3,0.1l0.8,0.8c0.2,0.2,0.2,0.5,0,0.7c-0.2,0.2-0.5,0.2-0.7,0l-0.5-0.5l-0.5,0.5C81.7,29.3,81.6,29.3,81.5,29.3z"
					/>
				<path class="st14" d="M83.8,31.6c-0.1,0-0.2,0-0.3-0.1c-0.2-0.2-0.2-0.5,0-0.7l0.8-0.8c0.1-0.1,0.2-0.1,0.3-0.1
					c0.1,0,0.2,0,0.3,0.1l0.8,0.8c0.2,0.2,0.2,0.5,0,0.7c-0.2,0.2-0.5,0.2-0.7,0L84.6,31l-0.5,0.5C84.1,31.5,83.9,31.6,83.8,31.6z"
					/>
				<path class="st14" d="M87.8,19.8c-0.1,0-0.2,0-0.3-0.1L87,19.2l-0.5,0.5c-0.2,0.2-0.5,0.2-0.7,0s-0.2-0.5,0-0.7l0.8-0.8
					c0.2-0.2,0.5-0.2,0.7,0l0.8,0.8c0.2,0.2,0.2,0.5,0,0.7C88,19.8,87.9,19.8,87.8,19.8z"/>
				<path class="st14" d="M83.8,17.6c-0.1,0-0.2,0-0.3-0.1c-0.2-0.2-0.2-0.5,0-0.7l0.8-0.8c0.1-0.1,0.2-0.1,0.3-0.1
					c0.1,0,0.2,0,0.3,0.1l0.8,0.8c0.2,0.2,0.2,0.5,0,0.7c-0.2,0.2-0.5,0.2-0.7,0L84.6,17l-0.5,0.5C84.1,17.6,83.9,17.6,83.8,17.6z"
					/>
				<path class="st14" d="M92.5,19.8c-0.1,0-0.2,0-0.3-0.1l-0.5-0.5l-0.5,0.5c-0.2,0.2-0.5,0.2-0.7,0c-0.2-0.2-0.2-0.5,0-0.7
					l0.8-0.8c0.2-0.2,0.5-0.2,0.7,0l0.8,0.8c0.2,0.2,0.2,0.5,0,0.7C92.7,19.8,92.6,19.8,92.5,19.8z"/>
				<path class="st14" d="M90.1,17.6c-0.1,0-0.2,0-0.3-0.1L89.3,17l-0.5,0.5c-0.2,0.2-0.5,0.2-0.7,0c-0.2-0.2-0.2-0.5,0-0.7L89,16
					c0.1-0.1,0.2-0.1,0.3-0.1l0,0c0.1,0,0.2,0,0.3,0.1l0.8,0.8c0.2,0.2,0.2,0.5,0,0.7C90.4,17.6,90.2,17.6,90.1,17.6z"/>
				<path class="st14" d="M87.8,29.3c-0.1,0-0.2,0-0.3-0.1L87,28.7l-0.5,0.5c-0.2,0.2-0.5,0.2-0.7,0c-0.2-0.2-0.2-0.5,0-0.7l0.8-0.8
					c0.2-0.2,0.5-0.2,0.7,0l0.8,0.8c0.2,0.2,0.2,0.5,0,0.7C88,29.3,87.9,29.3,87.8,29.3z"/>
				<path class="st14" d="M87.8,25.5c-0.1,0-0.2,0-0.3-0.1L87,24.9l-0.5,0.5c-0.2,0.2-0.5,0.2-0.7,0c-0.2-0.2-0.2-0.5,0-0.7l0.8-0.8
					c0.2-0.2,0.5-0.2,0.7,0l0.8,0.8c0.2,0.2,0.2,0.5,0,0.7C88,25.5,87.9,25.5,87.8,25.5z"/>
				<path class="st14" d="M83.8,27.1c-0.1,0-0.2,0-0.3-0.1c-0.2-0.2-0.2-0.5,0-0.7l0.8-0.8c0.2-0.2,0.5-0.2,0.7,0l0.8,0.8
					c0.2,0.2,0.2,0.5,0,0.7c-0.2,0.2-0.5,0.2-0.7,0l-0.5-0.5l-0.5,0.5C84.1,27,83.9,27.1,83.8,27.1z"/>
				<path class="st14" d="M81.1,26c-0.1,0-0.2,0-0.3-0.1c-0.2-0.2-0.2-0.5,0-0.7l0.8-0.8c0.2-0.2,0.5-0.2,0.7,0l0.8,0.8
					c0.2,0.2,0.2,0.5,0,0.7c-0.2,0.2-0.5,0.2-0.7,0l-0.5-0.5l-0.5,0.5C81.3,25.9,81.2,26,81.1,26z"/>
				<path class="st14" d="M91.6,26c-0.1,0-0.2,0-0.3-0.1c-0.2-0.2-0.2-0.5,0-0.7l0.8-0.8c0.2-0.2,0.5-0.2,0.7,0l0.8,0.8
					c0.2,0.2,0.2,0.5,0,0.7c-0.2,0.2-0.5,0.2-0.7,0l-0.5-0.5L92,25.8C91.9,25.9,91.8,26,91.6,26z"/>
				<path class="st14" d="M92.5,29.3c-0.1,0-0.2,0-0.3-0.1l-0.5-0.5l-0.5,0.5c-0.2,0.2-0.5,0.2-0.7,0c-0.2-0.2-0.2-0.5,0-0.7
					l0.8-0.8c0.1-0.1,0.2-0.1,0.3-0.1l0,0c0.1,0,0.2,0,0.3,0.1l0.8,0.8c0.2,0.2,0.2,0.5,0,0.7C92.7,29.3,92.6,29.3,92.5,29.3z"/>
				<path class="st14" d="M81.5,22.6c-0.1,0-0.2,0-0.3-0.1c-0.2-0.2-0.2-0.5,0-0.7l0.8-0.8c0.1-0.1,0.2-0.1,0.3-0.1
					c0.1,0,0.2,0,0.3,0.1l0.8,0.8c0.2,0.2,0.2,0.5,0,0.7c-0.2,0.2-0.5,0.2-0.7,0L82.3,22l-0.5,0.5C81.7,22.6,81.6,22.6,81.5,22.6z"
					/>
				<path class="st14" d="M87.8,22.6c-0.1,0-0.2,0-0.3-0.1L87,22l-0.5,0.5c-0.2,0.2-0.5,0.2-0.7,0c-0.2-0.2-0.2-0.5,0-0.7l0.8-0.8
					c0.2-0.2,0.5-0.2,0.7,0l0.8,0.8c0.2,0.2,0.2,0.5,0,0.7C88,22.6,87.9,22.6,87.8,22.6z"/>
				<path class="st14" d="M92.5,22.6c-0.1,0-0.2,0-0.3-0.1L91.7,22l-0.5,0.5c-0.2,0.2-0.5,0.2-0.7,0c-0.2-0.2-0.2-0.5,0-0.7l0.8-0.8
					c0.1-0.1,0.2-0.1,0.3-0.1l0,0c0.1,0,0.2,0,0.3,0.1l0.8,0.8c0.2,0.2,0.2,0.5,0,0.7C92.7,22.6,92.6,22.6,92.5,22.6z"/>
				<path class="st14" d="M90.1,27.1c-0.1,0-0.2,0-0.3-0.1l-0.5-0.5l-0.5,0.5c-0.2,0.2-0.5,0.2-0.7,0s-0.2-0.5,0-0.7l0.8-0.8
					c0.2-0.2,0.5-0.2,0.7,0l0.8,0.8c0.2,0.2,0.2,0.5,0,0.7C90.4,27,90.2,27.1,90.1,27.1z"/>
				<path class="st14" d="M90.1,31.6c-0.1,0-0.2,0-0.3-0.1L89.3,31l-0.5,0.5c-0.2,0.2-0.5,0.2-0.7,0c-0.2-0.2-0.2-0.5,0-0.7L89,30
					c0.1-0.1,0.2-0.1,0.3-0.1l0,0c0.1,0,0.2,0,0.3,0.1l0.8,0.8c0.2,0.2,0.2,0.5,0,0.7C90.4,31.5,90.2,31.6,90.1,31.6z"/>
			</g>
		</g>
		<g>
			<g>
				<path class="st15" d="M125,26.4c0,4.8-3.9,7.7-8.7,7.7c-0.2,0-0.4,0-0.7,0h0c-4.5-0.3-8-3.2-7.9-7.8c0-2.4,1-4.5,2.6-6.1
					c0.7-0.7,1.1-1.5,1.2-2.5c0,0,0-0.1,0-0.1c0.5-2.4,2.5-4.2,4.8-4.2h0c2.4,0,4.4,1.8,4.8,4.2c0,0,0,0,0,0c0.2,1,0.6,1.9,1.3,2.6
					C124.1,21.9,125,24.1,125,26.4z"/>
				<path class="st9" d="M116.3,15.2C116.2,15.2,116.2,15.2,116.3,15.2c-0.3-0.1-0.5-0.3-0.4-0.5l0,0c0,0,0.7-4.1-1-5.8
					c-0.2-0.2-0.2-0.5,0-0.6c0.2-0.2,0.5-0.2,0.6,0c2,2,1.3,6.5,1.3,6.6C116.7,15.1,116.5,15.2,116.3,15.2z"/>
				<path class="st12" d="M115.3,14.5c0.3,0,0.4,0,0.6,0c0.2,0,0.3,0,0.4,0c0.1,0,0.3,0,0.4,0c0.2,0,0.3,0,0.6,0
					c0,0.3-0.1,0.5-0.3,0.6c-0.2,0.2-0.4,0.2-0.7,0.2c-0.2,0-0.5-0.1-0.7-0.2C115.4,15,115.3,14.8,115.3,14.5z"/>
				<path class="st9" d="M117.8,10.7c-1.6,0-2.3-1.1-2.4-1.1c-0.1-0.2-0.1-0.4,0.1-0.5c0.2-0.1,0.4-0.1,0.5,0.1
					c0,0.1,0.9,1.2,2.7,0.7c0.2,0,0.4,0.1,0.4,0.2c0,0.2-0.1,0.4-0.2,0.4C118.5,10.7,118.2,10.7,117.8,10.7z"/>
				<path class="st12" d="M123.6,11.1l2.3-2.4l-3-1.4c-1.8-0.8-4,0.1-4.7,2l-0.1,0.2c-0.2,0.5-0.1,1,0.3,1.4l0.1,0.1
					C119.8,12.6,122.2,12.6,123.6,11.1z"/>
			</g>
			<g>
				<circle class="st12" cx="121.3" cy="25.3" r="0.7"/>
				<circle class="st12" cx="121.7" cy="29.7" r="0.7"/>
				<circle class="st12" cx="122.4" cy="27.6" r="0.7"/>
				<circle class="st12" cx="119.8" cy="28.2" r="0.7"/>
				<circle class="st12" cx="119.3" cy="30.7" r="0.7"/>
			</g>
		</g>
		<g>
			<g>
				<path class="st12" d="M146.8,27.9c-1.8,0.6-3.7,0.6-5.4,0.1c-1.6-0.4-2.9-1.3-3.7-2.4c-1,0-1.9-0.5-2.1-1.4l0,0
					c-0.3-0.9,0.2-1.8,1.1-2.3c0.3-3,2.8-5.7,6.4-6.8s7.3-0.2,9.1,2.1c1,0,1.9,0.5,2.2,1.4l0,0c0.3,0.9-0.2,1.8-1,2.3
					c-0.1,1.4-0.7,2.8-1.8,4C150.2,26.3,148.6,27.3,146.8,27.9z"/>
			</g>
			<g>
				<circle class="st16" cx="149.8" cy="19.7" r="0.7"/>
				<circle class="st16" cx="150.2" cy="24.1" r="0.7"/>
				<circle class="st16" cx="150.9" cy="22" r="0.7"/>
				<circle class="st16" cx="148.3" cy="22.6" r="0.7"/>
				<circle class="st16" cx="147.9" cy="25.1" r="0.7"/>
			</g>
		</g>
		<g>
			<path class="st17" d="M174.8,9.5c7.2,10.2-1.8,22.9-8.4,24.9c-3.8,1.2-6.4,0.8-7.9,0.4c-0.8-0.2-0.9-1.3-0.3-1.7
				c13.4-9,14.2-23,14.2-23L174.8,9.5z"/>
			<g>
				<path class="st18" d="M164.8,31.7c-0.1-0.2,0-0.5,0.2-0.6c4.3-2.5,7.1-6.4,8.3-11.7c1-4,0.6-7.3,0.6-7.3l0,0
					c0-0.2,0.1-0.4,0.4-0.5c0.2,0,0.4,0.1,0.5,0.4c0,0.1,0.3,3.5-0.6,7.6c-0.6,2.4-1.5,4.6-2.7,6.5c-1.5,2.4-3.6,4.3-6,5.7
					c0,0-0.1,0-0.1,0C165.1,31.9,164.9,31.8,164.8,31.7z"/>
				<path class="st18" d="M164.8,34.8c0.5-0.1,1.1-0.3,1.7-0.4c6.6-2,15.5-14.7,8.4-24.9l-1.1,0.3c7.2,10.2-1.8,22.9-8.4,24.9
					C165.2,34.7,165,34.7,164.8,34.8z"/>
			</g>
			<path class="st19" d="M158.6,34.7c0.4,0.1,0.9,0.2,1.5,0.3c0.2-1-0.1-2-0.7-2.8c-0.3,0.3-0.7,0.5-1.1,0.8
				C157.7,33.5,157.8,34.5,158.6,34.7z"/>
			<path class="st18" d="M171.9,7.3l0.7,2.7l2.3-0.6l-0.7-2.7C174,6.2,173.5,5.9,173,6l-0.4,0.1C172.1,6.2,171.7,6.8,171.9,7.3z"/>
		</g>
	</g>
</g>
</svg>
