<?xml version="1.0" encoding="utf-8"?>
<!-- Generator: Adobe Illustrator 22.1.0, SVG Export Plug-In . SVG Version: 6.00 Build 0)  -->
<svg version="1.1" id="Layer_1" xmlns="http://www.w3.org/2000/svg" xmlns:xlink="http://www.w3.org/1999/xlink" x="0px" y="0px"
	 viewBox="0 0 400 400" style="enable-background:new 0 0 400 400;" xml:space="preserve">
<style type="text/css">
	.st0{fill:#2F0026;stroke:#FFFFFF;stroke-width:9.930842e-02;stroke-miterlimit:10;}
	.st1{fill:none;stroke:#490A3D;stroke-width:0.555;stroke-miterlimit:10;}
	.st2{fill:#FADC3C;}
	.st3{fill:none;stroke:#FFFFFF;stroke-width:1.5383;stroke-miterlimit:10;}
	.st4{fill:#FFFFFF;stroke:#CECECE;stroke-width:0.555;stroke-miterlimit:10;}
	.st5{fill:#FFFFFF;stroke:#8ABB2A;stroke-width:0.555;stroke-miterlimit:10;}
</style>
<path class="st0" d="M370.3,361.7H28.9c-10.4,0-18.9-8.5-18.9-18.9V37.1c0-10.4,8.5-18.9,18.9-18.9h341.4c10.4,0,18.9,8.5,18.9,18.9
	v305.7C389.2,353.2,380.7,361.7,370.3,361.7z"/>
<g>
	<g>
		<polygon class="st1" points="210.9,191.9 205.8,203.5 215.1,211.9 202.6,210.6 197.4,222.2 194.8,209.8 182.2,208.5 193.2,202.2 
			190.6,189.8 200,198.3 		"/>
		<polygon class="st1" points="235.7,292.9 224.9,299.5 227.8,311.8 218.2,303.5 207.4,310.1 212.3,298.4 202.7,290.2 215.3,291.2 
			220.2,279.6 223.1,291.9 		"/>
		<polygon class="st1" points="88.9,220.3 84.6,230.1 92.5,237.2 81.9,236.1 77.5,245.9 75.3,235.4 64.7,234.3 74,228.9 71.7,218.5 
			79.7,225.6 		"/>
		<polygon class="st1" points="142.2,175.7 139.1,182.5 144.6,187.4 137.3,186.7 134.3,193.4 132.7,186.2 125.4,185.4 131.8,181.7 
			130.2,174.4 135.7,179.4 		"/>
		<polygon class="st1" points="135.5,83.3 132.4,90.1 137.9,95 130.6,94.2 127.6,101 126,93.8 118.7,93 125.1,89.3 123.5,82 129,87 
					"/>
		<polygon class="st1" points="147.5,134.6 151.7,146.5 164.3,146.1 154.3,153.8 158.6,165.8 148.1,158.6 138.1,166.3 141.7,154.2 
			131.3,147 143.9,146.7 		"/>
		<polygon class="st1" points="150.8,227.5 143.5,228.8 142.4,236.1 139,229.6 131.7,230.8 136.8,225.5 133.3,219 140,222.2 
			145.2,216.9 144.1,224.2 		"/>
		<polygon class="st1" points="256.9,197.6 249.6,198.8 248.5,206.2 245.1,199.6 237.8,200.9 242.9,195.6 239.4,189 246.1,192.3 
			251.2,187 250.2,194.3 		"/>
		<polygon class="st1" points="184.7,77.2 181.5,70.5 174.2,71.4 179.6,66.4 176.5,59.6 182.9,63.2 188.4,58.2 186.9,65.4 193.4,69 
			186.1,69.9 		"/>
		<polygon class="st1" points="249.3,123.2 246.2,120.5 242.7,122.7 244.2,118.9 241.1,116.3 245.2,116.6 246.7,112.8 247.7,116.7 
			251.8,117 248.3,119.2 		"/>
		<polygon class="st1" points="99.1,51.3 96,48.7 92.5,50.9 94,47.1 90.9,44.5 95,44.8 96.5,41 97.5,44.9 101.6,45.2 98.1,47.4 		
			"/>
		<polygon class="st1" points="275.8,309.9 272.7,307.3 269.2,309.5 270.7,305.7 267.6,303.1 271.7,303.4 273.2,299.6 274.2,303.5 
			278.3,303.8 274.8,306 		"/>
		<polygon class="st1" points="332.1,174.3 327.1,170.1 321.6,173.6 324,167.5 319,163.4 325.5,163.8 327.9,157.8 329.5,164.1 
			336,164.5 330.5,168 		"/>
		<polygon class="st1" points="271.5,140.2 271.5,133.7 265.3,131.7 271.5,129.7 271.5,123.2 275.3,128.4 281.5,126.4 277.6,131.7 
			281.5,136.9 275.3,134.9 		"/>
		<polygon class="st1" points="249.2,99.8 249.2,93.3 243,91.3 249.2,89.3 249.2,82.8 253,88.1 259.2,86.1 255.4,91.3 259.2,96.6 
			253,94.6 		"/>
		<polygon class="st1" points="298.8,211.2 293.6,207.3 288.3,211.1 290.3,204.9 285.1,201 291.6,201.1 293.7,194.9 295.6,201.1 
			302.1,201.2 296.8,205 		"/>
		<polygon class="st1" points="241.8,319.7 239.1,325.7 245.6,326.9 239.7,329.7 243.9,334.7 237.5,333.1 237.5,339.7 233.7,334.4 
			229.5,339.4 230,332.9 223.5,334 228.1,329.3 222.4,326 228.9,325.4 226.6,319.2 232.1,322.9 234.3,316.7 236.1,323 		"/>
		<circle class="st1" cx="206.5" cy="131.8" r="4.1"/>
		<circle class="st1" cx="289.3" cy="110" r="2.3"/>
		<circle class="st1" cx="188.5" cy="323.5" r="4.1"/>
		<polygon class="st1" points="77.3,88.3 74.7,94.7 81.3,96.6 74.9,99.3 78.2,105.3 71.9,102.7 69.9,109.3 67.3,102.9 61.2,106.2 
			63.8,99.8 57.3,97.9 63.6,95.2 60.3,89.2 66.7,91.8 68.6,85.2 71.3,91.6 		"/>
		<polygon class="st1" points="292.9,236.3 289.6,243.7 295.6,249.2 287.5,248.3 284.2,255.8 282.5,247.8 274.4,246.9 281.5,242.9 
			279.8,234.9 285.8,240.4 		"/>
	</g>
	<polygon class="st2" points="223.1,163.4 226.6,174.2 237.9,174.2 228.7,180.9 232.2,191.6 223.1,185 213.9,191.6 217.4,180.9 
		208.2,174.2 219.5,174.2 	"/>
	<polygon class="st3" points="195.8,235.5 286.2,271.8 251.8,314 192.3,281.1 	"/>
	<polygon class="st2" points="195.4,321.5 192.2,332.4 201.5,338.9 190.2,339.1 187,350 183.2,339.3 171.8,339.6 180.9,332.7 
		177.1,322 186.4,328.4 	"/>
	<polygon class="st2" points="157.7,262.8 160.7,271.9 170.3,271.9 162.5,277.6 165.5,286.7 157.7,281.1 150,286.7 152.9,277.6 
		145.2,271.9 154.8,271.9 	"/>
	<polyline class="st3" points="195.8,235.5 166.4,209.4 156.7,182.7 106.5,153.2 	"/>
	<polygon class="st2" points="166.4,201.1 168.5,207.4 175.1,207.4 169.8,211.3 171.8,217.7 166.4,213.7 161.1,217.7 163.1,211.3 
		157.7,207.4 164.4,207.4 	"/>
	<polygon class="st2" points="106.5,143.5 108.5,149.8 115.2,149.8 109.8,153.7 111.8,160.1 106.5,156.1 101.1,160.1 103.1,153.7 
		97.8,149.8 104.4,149.8 	"/>
	<polygon class="st2" points="145.3,170.5 155.3,175.9 163.5,168 161.4,179.2 171.4,184.6 160.2,186.1 158.1,197.3 153.2,187 
		142,188.5 150.2,180.7 	"/>
	<polygon class="st2" points="203.3,230.5 199.2,235.7 202.9,241.2 196.7,238.9 192.6,244.2 192.8,237.5 186.6,235.3 193,233.4 
		193.2,226.8 196.9,232.3 	"/>
	<polyline class="st3" points="303.4,161.9 284.6,129.4 259.5,108.3 227.7,92.1 225.2,68.9 188.7,78.6 201.3,100.9 229.2,91.5 	"/>
	<polygon class="st2" points="241,131.9 236.9,137.1 240.6,142.6 234.4,140.3 230.3,145.6 230.5,138.9 224.3,136.7 230.7,134.8 
		230.9,128.2 234.6,133.7 	"/>
	<polygon class="st2" points="151.6,58.4 145.5,55.8 141.1,60.8 141.7,54.2 135.6,51.6 142.1,50.1 142.6,43.5 146.1,49.2 
		152.5,47.7 148.2,52.7 	"/>
	<polygon class="st2" points="206.3,101.7 202.7,101.8 201.7,105.3 200.4,101.9 196.7,102 199.6,99.8 198.4,96.3 201.4,98.4 
		204.3,96.1 203.3,99.6 	"/>
	<polygon class="st2" points="63,144 59.3,144.2 58.3,147.7 57.1,144.2 53.4,144.4 56.3,142.1 55,138.7 58.1,140.7 61,138.4 60,142 
			"/>
	<polygon class="st2" points="336.2,210.3 332.6,210.5 331.6,214 330.3,210.6 326.6,210.7 329.5,208.4 328.3,205 331.3,207 
		334.2,204.8 333.2,208.3 	"/>
	<polygon class="st2" points="320.6,43.9 314.7,44.1 313.1,49.7 311.1,44.2 305.3,44.4 309.9,40.8 307.9,35.4 312.7,38.6 317.3,35 
		315.7,40.6 	"/>
	<polygon class="st2" points="231.3,99.7 227.4,95.4 222.1,97.7 225,92.7 221.1,88.4 226.8,89.6 229.8,84.5 230.4,90.3 236.1,91.6 
		230.7,93.9 	"/>
	<polygon class="st2" points="192.2,86.2 188.3,81.9 183,84.2 185.9,79.2 182,74.8 187.7,76.1 190.7,71 191.3,76.8 197,78 
		191.6,80.4 	"/>
	<polygon class="st2" points="293.7,132.2 287.9,132.8 286.7,138.4 284.4,133.1 278.6,133.7 282.9,129.8 280.6,124.5 285.6,127.4 
		290,123.6 288.7,129.2 	"/>
	<circle class="st4" cx="251.8" cy="314" r="2.6"/>
	<circle class="st4" cx="64.7" cy="119.4" r="2.6"/>
	<circle class="st4" cx="338.8" cy="151.8" r="2.6"/>
	<circle class="st4" cx="246" cy="220.2" r="2.6"/>
	<polygon class="st2" points="319.4,237.3 321.2,242.9 326.2,239.8 324,245.2 329.8,246 324.6,248.8 328.6,253.2 322.8,251.9 
		323,257.8 319.4,253.2 315.8,257.8 316,251.9 310.3,253.2 314.2,248.8 309,246 314.8,245.2 312.6,239.8 317.6,242.9 	"/>
	<circle class="st4" cx="183" cy="133.2" r="3.7"/>
	<circle class="st4" cx="225.2" cy="68.9" r="2.1"/>
	<circle class="st5" cx="256.1" cy="105.7" r="2.1"/>
	<circle class="st4" cx="286.2" cy="271.8" r="3.7"/>
	<line class="st3" x1="103.6" y1="252.4" x2="69.2" y2="294.6"/>
	<circle class="st4" cx="103.6" cy="251.5" r="4"/>
	<g>
		<line class="st3" x1="324.5" y1="109.1" x2="343.2" y2="86.1"/>
		<circle class="st4" cx="324.5" cy="109.6" r="2.2"/>
		<g>
			<line class="st3" x1="339.4" y1="87.2" x2="347.1" y2="82.5"/>
			<line class="st3" x1="340.9" y1="81" x2="345.6" y2="88.7"/>
			<line class="st3" x1="344.3" y1="80.4" x2="342.2" y2="89.3"/>
			<line class="st3" x1="347.7" y1="85.9" x2="338.8" y2="83.8"/>
		</g>
	</g>
	<g>
		<path class="st4" d="M220.2,275.1c-1.3,0-2.7,0-4,0c0.9-0.9,1.9-1.9,2.8-2.8c1.3-1.3-0.7-3.3-2-2c-0.9,0.9-1.9,1.9-2.8,2.8
			c0-1.3,0-2.7,0-4c0-1.8-2.8-1.8-2.8,0c0,1.3,0,2.7,0,4c-0.9-0.9-1.9-1.9-2.8-2.8c-1.3-1.3-3.3,0.7-2,2c0.9,0.9,1.9,1.9,2.8,2.8
			c-1.3,0-2.7,0-4,0c-1.8,0-1.8,2.8,0,2.8c1.3,0,2.7,0,4,0c-0.9,0.9-1.9,1.9-2.8,2.8c-1.3,1.3,0.7,3.3,2,2c0.9-0.9,1.9-1.9,2.8-2.8
			c0,1.3,0,2.7,0,4c0,1.8,2.8,1.8,2.8,0c0-1.3,0-2.7,0-4c0.9,0.9,1.9,1.9,2.8,2.8c1.3,1.3,3.3-0.7,2-2c-0.9-0.9-1.9-1.9-2.8-2.8
			c1.3,0,2.7,0,4,0C222,277.9,222,275.1,220.2,275.1z"/>
		<path class="st4" d="M81.4,295.9c-1.7-0.4-3.4-0.8-5.1-1.2c1.5-0.9,2.9-1.8,4.4-2.7c2-1.2,0.2-4.4-1.8-3.1c-1.5,0.9-3,1.8-4.4,2.7
			c0.4-1.7,0.8-3.3,1.2-5c0.5-2.3-3-3.3-3.5-1c-0.4,1.7-0.8,3.4-1.2,5.1c-0.9-1.5-1.8-2.9-2.7-4.4c-1.2-2-4.4-0.2-3.1,1.8
			c0.9,1.5,1.8,3,2.7,4.4c-1.7-0.4-3.3-0.8-5-1.2c-2.3-0.5-3.3,3-1,3.5c1.7,0.4,3.4,0.8,5.1,1.2c-1.5,0.9-2.9,1.8-4.4,2.7
			c-2,1.2-0.2,4.4,1.8,3.1c1.5-0.9,3-1.8,4.4-2.7c-0.4,1.7-0.8,3.3-1.2,5c-0.5,2.3,3,3.3,3.5,1c0.4-1.7,0.8-3.4,1.2-5.1
			c0.9,1.5,1.8,2.9,2.7,4.4c1.2,2,4.4,0.2,3.1-1.8c-0.9-1.5-1.8-3-2.7-4.4c1.7,0.4,3.3,0.8,5,1.2C82.7,299.9,83.7,296.4,81.4,295.9z
			"/>
		<path class="st4" d="M346.7,300.8c-0.9-0.2-1.8-0.4-2.7-0.7c0.8-0.5,1.6-1,2.4-1.5c0.7-0.4,0.1-1.5-0.6-1.1
			c-0.8,0.5-1.6,1-2.4,1.5c0.2-0.9,0.4-1.8,0.6-2.7c0.2-0.8-1-1.1-1.2-0.3c-0.2,0.9-0.4,1.8-0.6,2.7c-0.5-0.8-1-1.6-1.5-2.4
			c-0.4-0.7-1.5-0.1-1.1,0.6c0.5,0.8,1,1.6,1.5,2.4c-0.9-0.2-1.8-0.4-2.7-0.6c-0.8-0.2-1.1,1-0.3,1.2c0.9,0.2,1.8,0.4,2.7,0.6
			c-0.8,0.5-1.6,1-2.4,1.5c-0.7,0.4-0.1,1.5,0.6,1.1c0.8-0.5,1.6-1,2.4-1.5c-0.2,0.9-0.4,1.8-0.6,2.7c-0.2,0.8,1,1.1,1.2,0.3
			c0.2-0.9,0.4-1.8,0.7-2.7c0.5,0.8,1,1.6,1.5,2.4c0.4,0.7,1.5,0.1,1.1-0.6c-0.5-0.8-1-1.6-1.5-2.4c0.9,0.2,1.8,0.4,2.7,0.6
			C347.1,302.3,347.5,301,346.7,300.8z"/>
		<path class="st4" d="M58.2,48.9c0.9,0.2,1.8,0.4,2.7,0.6c0.8,0.2,1.1-1,0.3-1.2c-0.9-0.2-1.8-0.4-2.7-0.7c0.8-0.5,1.6-1,2.4-1.5
			c0.7-0.4,0.1-1.5-0.6-1.1c-0.8,0.5-1.6,1-2.4,1.5c0.2-0.9,0.4-1.8,0.6-2.7c0.2-0.8-1-1.1-1.2-0.3c-0.2,0.9-0.4,1.8-0.7,2.7
			c-0.5-0.8-1-1.6-1.5-2.4c-0.4-0.7-1.5-0.1-1.1,0.6c0.5,0.8,1,1.6,1.5,2.4c-0.9-0.2-1.8-0.4-2.7-0.6c-0.8-0.2-1.1,1-0.3,1.2
			c0.9,0.2,1.8,0.4,2.7,0.7c-0.8,0.5-1.6,1-2.4,1.5c-0.7,0.4-0.1,1.5,0.6,1.1c0.8-0.5,1.6-1,2.4-1.5c-0.2,0.9-0.4,1.8-0.6,2.7
			c-0.2,0.8,1,1.1,1.2,0.3c0.2-0.9,0.4-1.8,0.7-2.7c0.5,0.8,1,1.6,1.5,2.4c0.4,0.7,1.5,0.1,1.1-0.6C59.2,50.5,58.7,49.7,58.2,48.9z"
			/>
	</g>
	<polygon class="st2" points="77,203.2 79.1,209 84.7,206.4 82,211.9 87.8,214 82,216.1 84.7,221.6 79.1,219 77,224.8 75,219 
		69.4,221.6 72,216.1 66.2,214 72,211.9 69.4,206.4 75,209 	"/>
	<polygon class="st2" points="303.4,151 305.6,157.9 312.9,157.9 307,162.2 309.3,169.1 303.4,164.9 297.5,169.1 299.7,162.2 
		293.8,157.9 301.1,157.9 	"/>
</g>
</svg>
