<?xml version="1.0" encoding="utf-8"?>
<!-- Generator: Adobe Illustrator 22.1.0, SVG Export Plug-In . SVG Version: 6.00 Build 0)  -->
<svg version="1.1" id="Layer_1" xmlns="http://www.w3.org/2000/svg" xmlns:xlink="http://www.w3.org/1999/xlink" x="0px" y="0px"
	 viewBox="0 0 400 400" style="enable-background:new 0 0 400 400;" xml:space="preserve">
<style type="text/css">
	.st0{fill:#FFFFFF;}
	.st1{fill:#757575;}
	.st2{fill:#616161;}
	.st3{fill:#4F4F4F;}
	.st4{fill:#D1C5A5;}
	.st5{fill:#4C4C4C;}
	.st6{fill:#424242;}
	.st7{fill:#ECE2C8;}
	.st8{fill:#AFB42B;}
	.st9{fill:#C0CA33;}
	.st10{fill:#FDD835;}
	.st11{fill:#5D4037;}
	.st12{fill:#FFF59D;}
	.st13{fill:#FFB300;}
	.st14{fill:#00CDC8;}
	.st15{fill:#A5D73C;}
	.st16{fill:#F24044;}
	.st17{fill:#FFC69F;}
	.st18{fill:#EAAB7E;}
	.st19{fill:#212121;}
	.st20{fill:#CE8D61;}
</style>
<g>
	<g>
		<path class="st0" d="M206.2,233.9c-1.9,0-3.6-0.8-4.8-2c-1.6,1.3-3.6,2-5.7,2h-14.5c-2.8,0-5.2-1.7-6.3-4.2
			c-1-2.6-0.3-5.5,1.7-7.3l1-0.9v-44.9c-7.9-0.6-15.5-2.9-22.4-6.9h-15.7v55.2c0,5-4.1,9.1-9.1,9.1h-14.5c-1.9,0-3.6-0.8-4.8-2
			c-1.6,1.3-3.6,2-5.7,2H90.8c-2.8,0-5.2-1.7-6.3-4.2c-1-2.6-0.3-5.5,1.7-7.3l1-0.9V148c-3.6,2.5-7.3,4.5-10.9,5.9
			c-0.8,1.1-1.7,2.1-2.7,3.1c-2.7,33.1-3.2,38.4-10.9,47.6c-4.9,6-11.7,10.3-19.1,12.1c-2.4,0.7-5.1,1-8.2,1c-2.8,0-5.6-0.3-8.3-0.5
			c-0.9-0.1-1.7-0.2-2.6-0.2c-2.6-0.2-4.6-2.4-4.6-5c0-1,0.2-2,0.6-3c-0.4-0.9-0.6-1.9-0.6-3v-0.4c0-2.6,2-4.8,4.6-5
			c0.6,0,7.5-0.7,7.5-0.7c8.2-1.1,13.6-6.3,14.3-13.7c0.1-1.1,0.1-2.3,0-3.5l-0.8-9.2c-0.1-1.3-0.2-2.7-0.4-4.2l-0.2-2.2
			c-3.9-0.4-7.7-1.4-11.4-3.1c-1.9-0.9-3.3-2.5-4-4.4s-0.6-4.1,0.3-6c1.3-2.7,4-4.5,6.9-4.5c-2.4-1.9-4.6-4.1-6.5-6.6
			c-2.6-3.4-1.9-8.4,1.5-11c1.4-1,3-1.6,4.7-1.6c2,0,3.9,0.8,5.4,2.1l-0.3-3.3c0-0.1,0-0.2,0-0.3c-1.2-12.1,1.1-25.9,6-35.3
			c6.5-12.7,19.3-20.9,32.6-21l8.3-4.7c5-3.1,10.7-4.7,16.6-4.7c2.9,0,5.7,0.4,8.5,1.2l0.2,0.1c5.2,1.5,9.8,4.7,12.9,9.2
			c3.3,0.9,6.4,2.2,9.2,4.1h21c5.6-2.9,11.8-4.8,18.1-5.6c0.4-23.3,19.5-42.1,42.9-42.1c23.7,0,42.9,19.2,42.9,42.9
			c0,18.3-11.4,34.2-28.2,40.3c0.1,0.3,0.1,0.7,0.2,1c1.3,1.1,2.4,2.3,3.4,3.7c3.2,4.3,4.9,9.3,4.9,14.6v40.1
			c1.7,2.6,2.7,6.4,2.7,10.5c0,7.3-5.5,12.7-6.2,13.3c-1,0.9-2.2,1.4-3.4,1.4s-2.5-0.5-3.4-1.4c-0.2-0.1-0.6-0.6-1.2-1.3v29.9
			c0,5-4.1,9.1-9.1,9.1H206.2z"/>
		<path class="st0" d="M218.1,34.7c20.9,0,37.9,17,37.9,37.9c0,18-12.5,33-29.3,36.9c0.7,2.3,1.3,4.7,1.7,7.2c1.5,1.1,2.9,2.5,4,4
			c2.4,3.2,3.9,7.3,3.9,11.6v41.8c1.6,1.5,2.7,4.9,2.7,8.8c0,5.3-4.6,9.6-4.6,9.6s-4.6-4.3-4.6-9.6c0-3.9,1.1-7.3,2.7-8.8v-41.8
			c0-0.4,0-0.8,0-1.1c-0.2-3.3-1.5-6.4-3.6-8.8c0,0.6,0,1.1,0,1.7c0,6.9-1.5,13.5-4.2,19.5v81.3c0,2.2-1.8,4.1-4.1,4.1H218h-5.1
			h-1.5h-5.1h0c-1.5,0-2.3-1.9-1.1-2.9l2.6-2.4v-59.9c-2.5,1.7-5.2,3.1-7.9,4.2v56.9c0,2.2-1.8,4.1-4.1,4.1h-2.7h-5.1h-1.5h-5.1h0
			c-1.5,0-2.3-1.9-1.1-2.9l2.6-2.4v-52c-0.4,0-0.8,0-1.2,0c-9.1,0-17.6-2.6-24.8-7h-22.1v60.2c0,2.2-1.8,4.1-4.1,4.1h-2.7h-5.1H121
			h-5.1h0c-1.5,0-2.3-1.9-1.1-2.9l2.6-2.4V164c-2.8-0.5-5.4-1.3-7.9-2.5v63.3c0,2.2-1.8,4.1-4.1,4.1h-2.7h-5.1h-1.5h-5.1h0
			c-1.5,0-2.3-1.9-1.1-2.9l2.6-2.4v-79.1c-0.8-1.7-1.4-3.4-1.9-5.2c-5.3,4.7-11.3,8.5-17.2,10.6c-1.3,1.8-2.8,3.5-4.4,4.9
			c-2.8,34.4-3.1,38.5-9.9,46.7c-4.5,5.5-10.6,9-16.5,10.5c-2.2,0.6-4.6,0.9-6.9,0.9c-3.4,0-6.9-0.5-10.4-0.8c0-0.7,0.3-1.4,0.7-1.9
			c0.4-0.5,1-0.9,1.7-1l0.7-0.1l-0.7-0.1c-1.4-0.2-2.4-1.4-2.4-2.8v-0.4c0,0,8-0.7,8-0.7c-0.1,0-0.1,0-0.2,0
			c9.8-1.4,17.6-7.8,18.6-18.1c0.1-1.4,0.2-2.9,0-4.4c0-0.1,0-0.1,0-0.2c-0.1-1-0.2-2.5-0.4-4.4c-0.1-1.3-0.3-2.9-0.4-4.6
			c-0.1-1.4-0.3-2.8-0.4-4.4c-0.1-1.5-0.3-3-0.4-4.6c-0.1-0.6-0.1-1.2-0.2-1.8c-0.4,0-0.7,0-1.1,0c-4.3,0-8.6-0.9-12.7-2.8
			c-1.4-0.7-2-2.3-1.4-3.8c0.5-1,1.5-1.6,2.6-1.6c0.4,0,0.8,0.1,1.2,0.3c3.3,1.5,6.8,2.3,10.3,2.3c0.2,0,0.4,0,0.7,0
			c0-0.5-0.1-1-0.1-1.5c-0.1-1.5-0.3-2.9-0.4-4.4c0-0.3-0.1-0.6-0.1-1c-1.4-0.5-2.9-1.1-4.2-1.8c-3.8-2-7.2-4.8-9.9-8.4
			c-0.9-1.2-0.7-3,0.5-4c0.5-0.4,1.1-0.6,1.7-0.6c0.9,0,1.7,0.4,2.3,1.1c2.4,3.2,5.6,5.7,9.1,7.4c-0.1-0.6-0.1-1.2-0.2-1.7
			c-0.1-1.6-0.3-3.2-0.4-4.6c-0.1-1.6-0.3-3.1-0.4-4.4c-0.2-1.9-0.3-3.4-0.4-4.4h0c-1.2-11.3,1-24.3,5.4-32.9
			c5.9-11.5,17.2-18.3,28.4-18.3c0.3,0,0.7,0,1,0l9.6-5.4c4.4-2.7,9.2-4,14-4c2.4,0,4.9,0.3,7.2,1c0,0,0.1,0,0.1,0
			c4.8,1.4,8.8,4.6,11.2,8.8c4,0.8,7.6,2.4,10.8,4.7h7.2h16.6c6.6-3.6,14.1-5.8,22.1-5.9c-0.1-1.3-0.2-2.6-0.2-3.9
			C180.2,51.7,197.2,34.7,218.1,34.7 M218.1,24.7c-24.7,0-45.1,18.8-47.6,42.8c-5.1,1-10,2.6-14.6,4.9h-14.1h-4.2
			c-2.4-1.4-5-2.6-7.6-3.4c-3.8-4.7-8.8-8.1-14.6-9.7l-0.2-0.1c-3.2-0.9-6.5-1.3-9.9-1.3c-6.7,0-13.3,1.9-19.1,5.4l-7.2,4.1
			C64.3,68,50.4,77.1,43.3,91c-4.7,9.2-7.3,22.2-6.8,34.1c-2.7,0-5.4,1-7.5,2.6c-2.7,2.1-4.5,5.1-5,8.5c-0.5,3.4,0.4,6.8,2.5,9.5
			c0.6,0.7,1.1,1.4,1.7,2.1c-1.1,1.1-2.1,2.4-2.7,3.8c-3,6.4-0.2,14.1,6.2,17.1c2.9,1.3,5.8,2.3,8.8,2.9c0.1,0.9,0.1,1.7,0.2,2.5
			l0.2,2.2c0.1,0.8,0.1,1.6,0.2,2.4c0.2,1.9,0.3,3.4,0.4,4.4c0,0,0,0.1,0,0.1l0,0.1c0.1,0.9,0.1,1.7,0,2.5c-0.7,7.1-7.1,8.8-9.9,9.2
			c-1.7,0.1-6.6,0.6-7.3,0.6c-5.2,0.4-9.3,4.7-9.3,10v0.4c0,1,0.1,2,0.3,3c-0.2,1-0.3,1.9-0.3,2.9c0,5.2,4,9.5,9.1,10
			c0.8,0.1,1.7,0.2,2.5,0.2c2.8,0.3,5.7,0.6,8.8,0.6c3.5,0,6.6-0.4,9.5-1.2c8.4-2.1,16.1-7,21.7-13.8c8.5-10.2,9.2-16.5,11.9-48.6
			c0.3-0.3,0.6-0.7,0.9-1.1c1-0.4,1.9-0.8,2.8-1.3v62.5c-3.1,3.3-4,8-2.4,12.2c1.8,4.5,6,7.4,10.9,7.4h5.2h1.5h5.1h2.7
			c2,0,3.8-0.4,5.5-1.1c1.5,0.7,3.2,1.1,5,1.1h5.2h1.5h5.1h2.7c7.8,0,14.1-6.3,14.1-14.1v-50.2h9.4c5.8,3.2,12.1,5.3,18.7,6.3v38.3
			c-3.1,3.3-4,8-2.4,12.2c1.8,4.5,6,7.4,10.9,7.4h5.2h1.5h5.1h2.7c2,0,3.8-0.4,5.5-1.1c1.5,0.7,3.2,1.1,5,1.1h5.2h1.5h5.1h2.7
			c7.8,0,14.1-6.3,14.1-14.1v-22.3c2.3-0.1,4.6-1,6.5-2.7c1.3-1.2,7.8-7.7,7.8-16.9c0-4.5-1-8.6-2.7-11.9v-38.7
			c0-6.3-2-12.3-5.7-17.4c5.7-3,10.8-7.2,14.9-12.3c6.8-8.5,10.6-19.1,10.6-30C266,46.2,244.5,24.7,218.1,24.7L218.1,24.7z"/>
	</g>
	<g>
		<path class="st0" d="M308.7,368.2c-16.2,0-30.8-9-38.1-23.2h-16.4c-9.7,0-17.5-7.9-17.5-17.5v-1.2c0-9.7,7.9-17.5,17.5-17.5h7.9
			c0,0,0.1,0,0.2,0c0.3-0.1,0.6-0.4,0.6-0.8c0-0.4-0.5-0.8-1-0.8h-17.3c-0.1,0.8-0.3,1.6-0.7,2.4c-1.5,3.6-5.1,6-9,6h-9
			c-1.4,0-2.7-0.3-4-0.9l-1.3-0.1c-2-0.2-3.8-1.5-4.7-3.4c-0.4-0.8-0.5-1.7-0.5-2.6c-0.3-0.4-0.5-0.9-0.6-1.3h-17.5
			c-0.4,0-0.8,0-1.2,0l-1.9,0l-0.2,0c-0.1,0.8-0.3,1.7-0.7,2.4c-1.5,3.6-5.1,6-9,6h-9c-1.4,0-2.7-0.3-4-0.9l-1.3-0.1
			c-2-0.2-3.8-1.5-4.7-3.4c-0.4-0.8-0.5-1.7-0.5-2.6c-0.5-0.9-0.8-1.9-0.8-3c0-1.3,0.5-2.6,1.2-3.6c0-0.1,0-0.3,0-0.4
			c-2-0.7-4-1.5-6-2.4l-1.2-0.5c-4.2-1.9-8.5-3.4-13-4.3l-41.5-9.1c-3.6-0.8-6-4.2-5.4-7.8c0.5-3.1,3-5.5,6.2-5.9
			c1-0.8,2.3-1.2,3.6-1.2c1.3,0,2.5,0.4,3.5,1.2c0.5-0.2,1.1-0.3,1.7-0.3c0,0,0,0,0,0c-1.2-0.3-2.2-1-3-1.9c-0.1,0-0.3,0-0.4,0
			c-2.9,0-5.4-2.2-5.7-5.1l0-0.2c-1.6-1.7-2.3-4-2.1-6.5c0.3-3.5,2.8-6.4,6.2-7.3l0.1,0c1.2-0.3,2.4-0.5,3.6-0.5
			c3.9,0,7.8,1.7,11.3,4.8c1.3,1.2,8.6,3.9,27.4,7.2c1.8-1.2,3.9-1.8,6.1-1.8c0.8,0,1.6,0.1,2.4,0.3c3.1,0.7,5.7,2.6,7.2,5.3
			l6.3,2.5c4,1.6,8.1,2.7,12.4,3.3c5.3-3.4,7.8-3.8,9.4-3.8c1.9,0,3.3,0.8,4,1.4c0.4,0.4,0.9,0.8,1.3,1.3c3.4-1.8,5.2-2.1,6.5-2.1
			c1.9,0,3.3,0.8,4,1.4c0.4,0.3,0.8,0.7,1.2,1.2c4-2.4,6.1-2.7,7.6-2.7c1.9,0,3.3,0.8,4,1.4c0.4,0.3,0.7,0.7,1.1,1.1
			c2.9-1.6,5.1-2.4,6.9-2.4c1.9,0,3.3,0.8,4,1.4c0.4,0.4,0.8,0.8,1.2,1.2c3.7-2.1,5.6-2.4,6.9-2.4c1.9,0,3.3,0.8,4,1.4
			c0.6,0.5,1.3,1.2,1.9,2c2-0.9,3.5-1.3,5-1.3c1.9,0,3.3,0.8,4,1.4c0.6,0.5,1.2,1.2,1.8,1.9c2.1-0.7,3.7-1,5.1-1
			c2.6,0,4.2,1.2,5,2.1c0.4,0.5,0.8,1.1,1.2,1.7c1.1-0.2,2.1-0.3,2.9-0.3c3.6,0,5.3,1.6,6.2,3c0.4,0.7,0.8,1.5,1.1,2.4
			c0.1,0,0.2,0.1,0.2,0.1c2.4,0.3,6,1.1,7.2,4.6c0.1,0.2,0.2,0.5,0.2,0.7c6-3.1,12.7-4.7,19.5-4.7c23.7,0,42.9,19.2,42.9,42.9
			S332.3,368.2,308.7,368.2z M262,329c0,0-0.2,0-0.3,0.1c-0.1,0.1-0.1,0.2-0.1,0.3c0,0.1,0.2,0.3,0.4,0.4l4,1.2
			c-0.1-0.6-0.2-1.3-0.2-1.9H262z M114.6,271.5c0.3,0.1,0.5,0.1,0.7,0.2c-0.1-0.1-0.2-0.2-0.2-0.3
			C115,271.5,114.8,271.5,114.6,271.5C114.6,271.5,114.6,271.5,114.6,271.5z"/>
		<path class="st0" d="M111.8,254.9c2.9,0,5.6,1.4,7.9,3.5c4,3.7,21.8,7.1,32.3,8.8c0,0,0,0,0,0c1.1-1.3,2.8-2.2,4.6-2.2
			c0.4,0,0.9,0,1.3,0.1c2.3,0.5,3.9,2.2,4.5,4.3l8.2,3.3c5,2,10.2,3.3,15.5,3.8c2.2-1.5,6.2-4,8.2-4c0.3,0,0.6,0.1,0.8,0.2
			c1.2,1,2.1,2.7,2.7,3.9c0.3,0,0.6,0,0.8,0c2.3-1.5,5.7-3.5,7.4-3.5c0.3,0,0.6,0.1,0.8,0.2c0.8,0.7,1.6,1.9,2.2,2.9
			c1,0,2-0.1,3-0.1c2.3-1.5,5.2-3.2,6.9-3.2c0.3,0,0.6,0.1,0.8,0.2c0.8,0.7,1.6,1.8,2.1,2.8c0.2,0,0.4,0,0.5,0c0.7,0,1.5,0,2.2,0
			c2.2-1.4,4.9-2.9,6.4-2.9c0.3,0,0.6,0.1,0.8,0.2c0.8,0.7,1.6,1.9,2.2,2.9c0.9,0,1.8,0.1,2.7,0.1c2.2-1.4,5-3,6.5-3
			c0.3,0,0.6,0.1,0.8,0.2c1,0.9,1.9,2.3,2.5,3.5c1,0.1,1.9,0.2,2.8,0.3c1.8-1,3.6-1.9,4.8-1.9c0.3,0,0.6,0.1,0.8,0.2
			c0.8,0.7,1.6,1.8,2.2,2.9c1,0.2,1.9,0.4,2.8,0.6c1.9-0.7,3.8-1.4,5.1-1.4c0.6,0,1,0.1,1.2,0.4c0.7,0.8,1.3,2,1.7,3.1
			c0.8,0.2,1.5,0.5,2.2,0.7c1.5-0.3,2.9-0.6,4.1-0.6c1,0,1.7,0.2,2,0.6c0.5,0.8,0.9,2,1.1,3c0.9,0.5,1.9,1.1,2.8,1.7
			c2.1,0.1,3.9,0.5,4.2,1.4c0.3,0.7,0.4,1.7,0.4,2.5c0.1,0.1,0.2,0.2,0.3,0.3c0.9,1,1.7,2,2.4,3.1c6.1-4.2,13.4-6.6,21.4-6.6
			c20.9,0,37.9,17,37.9,37.9c0,20.9-17,37.9-37.9,37.9c-15.7,0-29.2-9.6-34.9-23.2h-19.5c-6.9,0-12.5-5.6-12.5-12.5v-1.2
			c0-6.9,5.6-12.5,12.5-12.5h7.9c0.4,0,0.7,0,1.1-0.1c2.7-0.5,4.8-2.9,4.7-5.8c-0.1-3.2-2.8-5.7-6-5.7h-20.2h-2v3.6
			c0,0.7-0.1,1.3-0.4,1.9c-0.7,1.7-2.4,2.9-4.4,2.9h-9c-1,0-1.9-0.3-2.7-0.8c-0.1,0-0.2,0-0.2,0c0,0,0,0-0.1,0l-1.9-0.2
			c-0.6-0.1-0.9-0.7-0.5-1.2l0.8-1.2c0-0.1,0-0.1-0.1-0.2l-1.4-0.8c-0.5-0.3-0.5-1,0-1.3l1.5-0.9c0-0.1,0.1-0.2,0.1-0.3l-0.7-1.2
			c-0.1-0.1-0.1-0.2-0.1-0.4h-4.9h-1.8H211h-1.8h-3h-1.8h-3h-1.8h-2.3c-0.4,0-0.7,0-1.1,0c-0.3,0-0.5,0-0.8,0c-0.3,0-0.6,0-0.8,0
			c-0.1,0-0.1,0-0.2,0c-0.1,0-0.2,0-0.2,0c-1,0-2-0.1-2.9-0.2c0,0-0.1,0-0.1,0c0,0-0.1,0-0.1,0c-0.6,0-1.2-0.1-1.8-0.1c0,0,0,0,0,0
			v3.9c0,0.7-0.1,1.3-0.4,1.9c-0.7,1.7-2.4,2.9-4.4,2.9h-9c-1,0-1.9-0.3-2.7-0.8c-0.1,0-0.2,0-0.2,0c0,0,0,0-0.1,0l-1.9-0.2
			c-0.6-0.1-0.9-0.7-0.5-1.2l0.8-1.2c0-0.1,0-0.1-0.1-0.2l-1.4-0.8c-0.5-0.3-0.5-1,0-1.3l1.5-0.9c0-0.1,0.1-0.2,0.1-0.3l-0.7-1.2
			c-0.3-0.5,0.1-1.2,0.7-1.2l1.9,0c0,0,0,0,0,0c0.1,0,0.3,0,0.4,0.1c0.6-0.3,1.3-0.5,2.1-0.5h4.2v-0.6c-0.4-0.1-0.8-0.2-1.2-0.3
			c-5.8-1.3-11.5-3.1-17-5.5c-0.4-0.2-0.7-0.3-1.1-0.5c-4.5-2-9.1-3.6-13.9-4.7l-41.5-9.1c-1-0.2-1.7-1.2-1.6-2.2
			c0.1-1,1-1.6,1.9-1.6c0.1,0,0.2,0,0.3,0l1,0.2l0,0l1-1.1c0.2-0.2,0.4-0.3,0.6-0.3c0.3,0,0.6,0.2,0.7,0.5l0.5,1.4l2.4,0.4l1-1.2
			c0.2-0.2,0.4-0.3,0.6-0.3c0.3,0,0.6,0.2,0.7,0.5l0.5,1.4l2.4,0.4l1-1.2c0.2-0.2,0.4-0.3,0.6-0.3c0.3,0,0.6,0.2,0.7,0.5l0.5,1.4
			l0,0l2.4,0.4l1-1.2c0.2-0.2,0.4-0.3,0.6-0.3c0.3,0,0.6,0.2,0.7,0.5l0.5,1.5h0l2.4,0.4l0,0l1-1.2c0.2-0.2,0.4-0.3,0.6-0.3
			c0.3,0,0.6,0.2,0.7,0.5l0.5,1.5l0,0l2.4,0.4l0,0l1-1.2c0.2-0.2,0.4-0.3,0.6-0.3c0.3,0,0.6,0.2,0.7,0.5l0.5,1.5l1,0.2l3.1-1.9
			c1.5-0.9,3.1-1.3,4.8-1.3c3.2,0,6.2,1.6,7.9,4.5l-1.8-3.3c-1.4-2.6-3.8-4.4-6.7-5l-2.2-0.4l0,0c0,0.3,0,0.6-0.3,0.7l-1.5,1.1
			c-0.1,0.1-0.3,0.2-0.5,0.2c-0.4,0-0.7-0.3-0.8-0.7l-0.2-1.8c0,0,0-0.1,0-0.1l0,0l-0.5-0.1l-1.4-0.6l0,0c0,0,0,0,0,0l-1.5,1.1
			c-0.1,0.1-0.3,0.2-0.5,0.2c-0.4,0-0.7-0.3-0.8-0.7l-0.2-1.8c0,0,0,0,0,0l0,0l-1.9-0.8l0,0c0,0,0,0,0,0.1l-1.5,1.1
			c-0.1,0.1-0.3,0.2-0.5,0.2c-0.4,0-0.7-0.3-0.8-0.7l-0.2-1.8c0,0,0-0.1,0-0.1l0,0l-1.9-0.8l0,0c0,0,0,0.1-0.1,0.1l-1.5,1.1
			c-0.1,0.1-0.3,0.2-0.5,0.2c-0.4,0-0.7-0.3-0.8-0.7l-0.2-1.8c0,0,0-0.1,0-0.1l0,0l-1.8-0.8l0,0c0,0,0,0.1-0.1,0.1l-1.5,1.1
			c-0.1,0.1-0.3,0.2-0.5,0.2c-0.4,0-0.7-0.3-0.8-0.7l-0.2-1.8c0-0.1,0-0.1,0-0.2l-1.8-0.8l0,0c0,0-0.1,0.1-0.1,0.1l-1.5,1.1
			c-0.1,0.1-0.3,0.2-0.5,0.2c-0.4,0-0.7-0.3-0.8-0.7l-0.2-1.8c0-0.1,0-0.2,0-0.2l0,0l-1.8-0.8l0,0c0,0.1-0.1,0.1-0.1,0.2l-1.5,1.1
			c-0.1,0.1-0.3,0.2-0.5,0.2c-0.4,0-0.7-0.3-0.8-0.7l-0.2-1.8c0-0.1,0-0.2,0-0.3c0,0,0,0,0,0c-2.8-1.4-2.5-5.6,0.6-6.4l0.1,0
			C110.3,255,111.1,254.9,111.8,254.9 M273,338.1c-1.4-4-2.2-8.3-2.2-12.8c0-0.5,0-0.9,0-1.4c-0.1,0-0.3,0-0.4,0H262
			c-3.1,0-5.5,2.6-5.4,5.6c0.1,2.3,1.8,4.3,4,4.9L273,338.1 M111.8,244.9C111.8,244.9,111.8,244.9,111.8,244.9
			c-1.6,0-3.3,0.2-4.8,0.6c0,0,0,0,0,0l-0.1,0c-5.5,1.5-9.3,6-9.9,11.7c-0.3,3.3,0.6,6.5,2.4,9.1c0.1,0.5,0.3,1,0.5,1.4
			c-3.4,1.7-6,5-6.6,9c-0.9,6.1,3.2,12,9.3,13.4l41.5,9.1c4.1,0.9,8.1,2.2,11.9,4l0.6,0.3l0.5,0.2c0,0,0.1,0,0.1,0
			c0.6,0.3,1.2,0.5,1.8,0.8c0,0.3,0,0.7-0.1,1c0,1.5,0.3,2.9,0.9,4.2c0.1,1.2,0.4,2.3,0.9,3.4c1.6,3.5,4.9,5.9,8.7,6.3l0.6,0.1
			c1.7,0.6,3.4,1,5.2,1h9c5.7,0,10.8-3.3,13.3-8.3h2h1.8h3h1.8h3h1.8c0.1,0.3,0.2,0.7,0.4,1c1.6,3.5,4.9,5.9,8.7,6.3l0.6,0.1
			c1.7,0.6,3.4,1,5.2,1h6.5c-0.5,1.8-0.8,3.8-0.8,5.8v1.2c0,12.4,10.1,22.5,22.5,22.5h13.4c8.6,14.3,24,23.2,41,23.2
			c26.4,0,47.9-21.5,47.9-47.9c0-26.4-21.5-47.9-47.9-47.9c-6,0-12,1.1-17.5,3.3c-1.5-1.6-3.6-2.7-6.2-3.3c-0.1-0.3-0.3-0.5-0.5-0.8
			c-1.2-2-4.3-5.3-10.4-5.3c-0.2,0-0.4,0-0.6,0c-2.1-2.3-5.2-3.6-8.6-3.6c-1.1,0-2.3,0.1-3.6,0.4c0,0-0.1-0.1-0.1-0.1
			c-2-1.7-4.5-2.6-7.3-2.6c-1.2,0-2.3,0.2-3.6,0.5c0,0,0,0,0,0c-2-1.7-4.5-2.6-7.3-2.6c-1.9,0-3.9,0.4-6.2,1.4
			c-1.8-1.1-3.8-1.7-6-1.7c-1.9,0-3.9,0.4-6.2,1.4c-1.7-1-3.7-1.6-5.8-1.6c-2.1,0-4.3,0.5-6.9,1.7c-1.7-1.1-3.7-1.6-5.9-1.6
			c-1.8,0-3.6,0.4-5.7,1.2c-1.8-1.2-3.9-1.8-6.1-1.8c-2.2,0-5.2,0.5-10.4,3.6c-3.3-0.6-6.4-1.5-9.5-2.7l-4.9-1.9
			c-2.3-3.1-5.6-5.2-9.4-6.1c-1.1-0.2-2.3-0.4-3.4-0.4c-2.5,0-4.8,0.6-7,1.6c-14.9-2.6-21.7-4.9-23.4-5.9
			C121.9,246.9,116.9,244.9,111.8,244.9L111.8,244.9z"/>
	</g>
	<g>
		<path class="st0" d="M280.7,245c-4.2,0-7.8-3-8.4-7.2l-5.5-33.5c-0.5-3.2,0.8-6.4,3.3-8.2l5.6-10.1v-1c0-7.5,3.8-14.4,9.9-18.5
			c-0.4-2.1-0.2-4.2,0.5-6.1c0.7-1.8,1.9-3.4,3.5-4.4c-6.4-7.7-9.9-17.2-9.9-27.4c0-23.7,19.2-42.9,42.9-42.9s42.9,19.2,42.9,42.9
			c0,18.3-11.5,34.2-28.2,40.3c4.3,4.1,6.9,9.9,6.9,16.1v0.9l7.4,12.4c1.7,2.8,2.2,6.2,1.3,9.4s-2.8,5.9-5.7,7.6
			c-0.4,0.2-0.8,0.5-1.3,0.7c0.9,4.2,0.7,8.7-0.7,12.8c-2.1,6-6.4,10.8-11.9,13.5c-1.4,1.5-3.3,2.4-5.4,2.4h-44.8l-1.1,0.2
			C281.6,244.9,281.2,245,280.7,245z"/>
		<path class="st0" d="M322.6,90.6c20.9,0,37.9,17,37.9,37.9c0,18.6-13.4,34.1-31.1,37.3c0,0.2-0.1,0.3-0.1,0.5
			c-0.3,0.9-0.8,1.7-1.4,2.4c6.6,2.4,11.4,8.8,11.4,16.2v2.3l8.1,13.6c2.1,3.5,0.9,8-2.6,10.1c-1.2,0.7-2.5,1-3.7,1
			c-0.6,0-1.2-0.1-1.8-0.2v0.3c5.6,9.9,0.8,22.2-9.1,26.2c-0.4,0.8-1.1,1.4-2.1,1.4H322h-5.6h-8.7h-9H298h-2.1h-13.1l-1.5,0.3
			c-0.2,0-0.4,0-0.6,0c-1.7,0-3.2-1.2-3.5-3l-5.5-33.5c-0.3-1.6,0.7-3.2,2.1-3.8l6.9-12.4V185c0-7.4,4.8-13.8,11.4-16.2
			c-0.6-0.6-1.1-1.4-1.4-2.4c-1-2.9,0.2-6,2.6-6.8c0.4-0.1,0.8-0.2,1.3-0.2c0.2,0,0.5,0,0.7,0.1c0.3-1.2,0.7-2.3,1.2-3.4
			c-7.3-6.9-11.8-16.7-11.8-27.5C284.7,107.6,301.7,90.6,322.6,90.6 M322.6,80.6c-26.4,0-47.9,21.5-47.9,47.9c0,9.8,2.9,19.1,8.3,27
			c-0.6,0.9-1.2,1.9-1.6,3c-0.7,1.8-1,3.7-1,5.6c-5.9,5-9.6,12.5-9.7,20.5l-4.5,8.1c-3.4,3-5.1,7.6-4.4,12.3l5.5,33.5
			c1.1,6.6,6.7,11.4,13.4,11.4c0.7,0,1.5-0.1,2.2-0.2l0.7-0.1h12.3h2.1h0.5h9h8.7h5.6h6.1c3.2,0,6.1-1.2,8.4-3.3
			c6.3-3.4,11.2-9.1,13.6-16c1.3-3.9,1.8-7.9,1.5-11.9c3.1-2.4,5.4-5.7,6.3-9.6c1.1-4.5,0.5-9.2-1.9-13.2l-6.7-11.3
			c-0.1-4.9-1.5-9.6-4-13.7c15.2-8.1,25.3-24.2,25.3-42.2C370.5,102.1,349,80.6,322.6,80.6L322.6,80.6z"/>
	</g>
</g>
<g>
	<g>
		<path class="st1" d="M236.3,132.3v48.1h-3.8v-48.1c0-0.4,0-0.8,0-1.1c-0.6-8.1-7.4-14.5-15.6-14.5h-7.1v-3.8h7.1
			c6.4,0,12,3.1,15.6,7.8C234.8,123.9,236.3,127.9,236.3,132.3z"/>
	</g>
	<path class="st2" d="M239,182.9c0,5.3-4.6,9.6-4.6,9.6s-4.6-4.3-4.6-9.6c0-5.3,2.1-9.6,4.6-9.6C236.9,173.3,239,177.6,239,182.9z"
		/>
	<path class="st3" d="M232.7,126.2c0,1.7-0.1,3.3-0.3,4.9c-0.6-8.1-7.4-14.5-15.6-14.5h-7.1v-3.8h7.1c6.4,0,12,3.1,15.6,7.8
		C232.6,122.5,232.7,124.3,232.7,126.2z"/>
	<path class="st2" d="M199.7,133.4v91.4c0,2.2-1.8,4.1-4.1,4.1h-14.6c-1.5,0-2.3-1.9-1.1-2.9l2.6-2.4v-90.1c0-2.2,1.8-4.1,4.1-4.1h9
		C197.9,129.4,199.7,131.2,199.7,133.4z"/>
	<path class="st4" d="M186.3,228.1c0,0.3,0,0.5-0.1,0.8h-5.1c-0.1-0.2-0.1-0.5-0.1-0.8c0-1.5,1.2-2.7,2.7-2.7
		C185.1,225.4,186.3,226.6,186.3,228.1z"/>
	<path class="st4" d="M193,228.1c0,0.3,0,0.5-0.1,0.8h-5.1c-0.1-0.2-0.1-0.5-0.1-0.8c0-1.5,1.2-2.7,2.7-2.7
		C191.8,225.4,193,226.6,193,228.1z"/>
	<path class="st2" d="M109.4,133.4v91.4c0,2.2-1.8,4.1-4.1,4.1H90.7c-1.5,0-2.3-1.9-1.1-2.9l2.6-2.4v-90.1c0-2.2,1.8-4.1,4.1-4.1h9
		C107.5,129.4,109.4,131.2,109.4,133.4z"/>
	<path class="st4" d="M96,228.1c0,0.3,0,0.5-0.1,0.8h-5.1c-0.1-0.2-0.1-0.5-0.1-0.8c0-1.5,1.2-2.7,2.7-2.7
		C94.8,225.4,96,226.6,96,228.1z"/>
	<path class="st4" d="M102.7,228.1c0,0.3,0,0.5-0.1,0.8h-5.1c-0.1-0.2-0.1-0.5-0.1-0.8c0-1.5,1.2-2.7,2.7-2.7
		S102.7,226.6,102.7,228.1z"/>
	<path class="st1" d="M134.5,133.4v91.4c0,2.2-1.8,4.1-4.1,4.1h-14.6c-1.5,0-2.3-1.9-1.1-2.9l2.6-2.4v-90.1c0-2.2,1.8-4.1,4.1-4.1h9
		C132.6,129.4,134.5,131.2,134.5,133.4z"/>
	<path class="st4" d="M121.1,228.1c0,0.3,0,0.5-0.1,0.8h-5.1c-0.1-0.2-0.1-0.5-0.1-0.8c0-1.5,1.2-2.7,2.7-2.7
		C119.9,225.4,121.1,226.6,121.1,228.1z"/>
	<path class="st4" d="M127.8,228.1c0,0.3,0,0.5-0.1,0.8h-5.1c-0.1-0.2-0.1-0.5-0.1-0.8c0-1.5,1.2-2.7,2.7-2.7
		S127.8,226.6,127.8,228.1z"/>
	<g>
		<path class="st4" d="M44.4,148.1c-3.8-2-7.2-4.8-9.9-8.4c-0.9-1.2-0.7-3,0.5-4c1.2-0.9,3-0.7,4,0.5c3.9,5.2,9.7,8.5,16.2,9.4
			c6.5,0.9,12.9-0.8,18.1-4.7c1.2-0.9,3-0.7,4,0.5c0.9,1.2,0.7,3-0.5,4C67,152.8,54.4,153.4,44.4,148.1z"/>
	</g>
	<path class="st5" d="M112.5,68.9c0,0-0.1,0-0.1,0c-6.9-1.9-14.6-1.1-21.2,3L59.8,89.7l18.9,8.4c0.4,3.6,1.5,7.1,3.4,10.4l13.5,23.8
		c2.5,4.5,8.6,5.7,12.5,2.4c15.1-12.5,21.8-32.4,17.8-51.3C124.5,76.5,119.3,70.8,112.5,68.9z"/>
	<path class="st1" d="M210.3,116.6v13.8c0,18.8-15.4,34.2-34.2,34.2h-52.7c-18.8,0-34.2-15.4-34.2-34.2v-13.8
		c0-9.5,4-18.2,10.3-24.4c0.1-0.1,0.1-0.1,0.2-0.2c6.1-5.9,14.5-9.5,23.6-9.5h52.7C194.9,82.4,210.3,97.8,210.3,116.6z"/>
	<circle class="st1" cx="181.4" cy="124" r="47.6"/>
	<path class="st1" d="M104,122.3c8.2-15.9,3.2-34.7-11.1-42.1c-14.3-7.4-32.6-0.5-40.7,15.4c-8.2,15.9-8.8,46.6,5.5,54
		C72.1,157,95.9,138.2,104,122.3z"/>
	<path class="st3" d="M149.5,104.5c-5.8,18.4-27.6,34.1-48,35.8c-5.9-3.6-9.9-8.8-12.3-14.5C83,111.3,86.9,93.9,94,93.9l5.6-1.7
		l31-9.7h11.2c1.1,0.8,2.2,1.8,3.2,2.8c0,0,0.1,0.1,0.1,0.1C150,90.3,151.7,97.7,149.5,104.5z"/>
	<path class="st1" d="M137.8,85.3C137.8,85.2,137.8,85.2,137.8,85.3c-5.2-5.2-12.3-8.2-20-8H81.7L94,93.9c-1.4,3.3-2.2,7-2.2,10.8
		V132c0,5.2,4.6,9.1,9.7,8.2c19.3-3.4,35-17.4,40.8-35.8C144.5,97.7,142.8,90.3,137.8,85.3z"/>
	<path class="st1" d="M71,128.5c-5.1,59.1-3.9,63-12.1,72.9c-4.5,5.5-10.6,9-16.5,10.5c-5.4,1.6-11.4,0.6-17.4,0.1
		c0-0.7,0.3-1.4,0.7-1.9c0.4-0.5,1-0.9,1.7-1l0.7-0.1l-0.7-0.1c-1.4-0.2-2.4-1.4-2.4-2.8v-0.4c0,0,8-0.7,8-0.7c-0.1,0-0.1,0-0.2,0
		c9.8-1.4,17.6-7.8,18.6-18.1c0.1-1.4,0.2-2.9,0-4.4c0-0.1,0-0.1,0-0.2c-0.1-1-0.2-2.5-0.4-4.4c-0.1-1.3-0.3-2.9-0.4-4.6
		c-0.1-1.4-0.3-2.8-0.4-4.4c-0.1-1.5-0.3-3-0.4-4.6c-0.1-1.4-0.3-2.9-0.4-4.4c-0.1-1.5-0.3-3.1-0.4-4.6c-0.1-1.5-0.3-2.9-0.4-4.4
		c-0.1-1.6-0.3-3.1-0.4-4.6c-0.1-1.5-0.3-3-0.4-4.4c-0.1-1.6-0.3-3.2-0.4-4.6c-0.1-1.6-0.3-3.1-0.4-4.4c-0.2-1.9-0.3-3.4-0.4-4.4H71
		z"/>
	<path class="st6" d="M70.4,114.4c0,1.2-1,2.2-2.2,2.2s-2.2-1-2.2-2.2c0-1.2,1-2.2,2.2-2.2S70.4,113.2,70.4,114.4z"/>
	<path class="st5" d="M56.5,184.5c0,0.6-0.3,1.2-0.7,1.6c-0.4,0.4-1,0.7-1.6,0.7h-2.8c0.1-1.4,0.2-2.9,0-4.4c0-0.1,0-0.1,0-0.2h2.8
		C55.4,182.3,56.5,183.3,56.5,184.5z"/>
	<path class="st5" d="M56.5,175.6c0,0.6-0.3,1.2-0.7,1.6c-0.4,0.4-1,0.7-1.6,0.7H51c-0.1-1.3-0.3-2.9-0.4-4.6h3.5
		C55.4,173.3,56.5,174.3,56.5,175.6z"/>
	<path class="st5" d="M56.5,166.6c0,0.6-0.3,1.2-0.7,1.6c-0.4,0.4-1,0.7-1.6,0.7h-3.9c-0.1-1.5-0.3-3-0.4-4.6h4.3
		C55.4,164.3,56.5,165.3,56.5,166.6z"/>
	<path class="st5" d="M56.5,157.6c0,0.6-0.3,1.2-0.7,1.6c-0.4,0.4-1,0.7-1.6,0.7h-4.7c-0.1-1.5-0.3-3.1-0.4-4.6h5.1
		C55.4,155.3,56.5,156.3,56.5,157.6z"/>
	<path class="st5" d="M56.5,148.6c0,0.6-0.3,1.2-0.7,1.6c-0.4,0.4-1,0.7-1.6,0.7h-5.5c-0.1-1.6-0.3-3.1-0.4-4.6h5.9
		C55.4,146.3,56.5,147.3,56.5,148.6z"/>
	<path class="st5" d="M56.5,139.6c0,0.6-0.3,1.2-0.7,1.6c-0.4,0.4-1,0.7-1.6,0.7h-6.3c-0.1-1.6-0.3-3.2-0.4-4.6h6.7
		C55.4,137.3,56.5,138.3,56.5,139.6z"/>
	<path class="st5" d="M56.5,130.6c0,0.6-0.3,1.2-0.7,1.6c-0.4,0.4-1,0.7-1.6,0.7h-7.1c-0.2-1.9-0.3-3.4-0.4-4.4h8.3
		C55.9,128.9,56.5,129.7,56.5,130.6z"/>
	<g>
		<path class="st7" d="M48.6,162.5c-4.3,0-8.6-0.9-12.7-2.8c-1.4-0.7-2-2.3-1.4-3.8c0.7-1.4,2.3-2,3.8-1.4c5.9,2.8,12.5,3,18.7,0.8
			c6.2-2.2,11.1-6.7,13.8-12.6c0.7-1.4,2.3-2,3.8-1.4c1.4,0.7,2,2.3,1.4,3.8C70.8,156,59.9,162.5,48.6,162.5z"/>
	</g>
	<path class="st1" d="M224.8,133.4v91.4c0,2.2-1.8,4.1-4.1,4.1h-14.6c-1.5,0-2.3-1.9-1.1-2.9l2.6-2.4v-90.1c0-2.2,1.8-4.1,4.1-4.1h9
		C223,129.4,224.8,131.2,224.8,133.4z"/>
	<path class="st4" d="M211.4,228.1c0,0.3,0,0.5-0.1,0.8h-5.1c-0.1-0.2-0.1-0.5-0.1-0.8c0-1.5,1.2-2.7,2.7-2.7
		C210.2,225.4,211.4,226.6,211.4,228.1z"/>
	<path class="st4" d="M218.1,228.1c0,0.3,0,0.5-0.1,0.8h-5.1c-0.1-0.2-0.1-0.5-0.1-0.8c0-1.5,1.2-2.7,2.7-2.7
		C216.9,225.4,218.1,226.6,218.1,228.1z"/>
</g>
<g>
	<path class="st8" d="M184.4,277.7c0,0,8.8-6.5,10.6-5c1.8,1.6,3.3,5.1,3.3,5.1L184.4,277.7z"/>
	<path class="st8" d="M196.2,278.3c0,0,8.8-6.5,10.6-5c1.8,1.6,3.3,5.1,3.3,5.1L196.2,278.3z"/>
	<path class="st8" d="M209,278.1c0,0,8.8-6.5,10.6-5c1.8,1.6,3.3,5.1,3.3,5.1L209,278.1z"/>
	<path class="st8" d="M221.1,278.3c0,0,8.8-6.5,10.6-5c1.8,1.6,3.3,5.1,3.3,5.1L221.1,278.3z"/>
	<path class="st8" d="M233.3,278.6c0,0,8.8-6.5,10.6-5c1.8,1.6,3.3,5.1,3.3,5.1L233.3,278.6z"/>
	<path class="st8" d="M244.2,280.7c0,0,8.8-6.5,10.6-5c1.8,1.6,3.3,5.1,3.3,5.1L244.2,280.7z"/>
	<path class="st8" d="M254.9,281.4c0,0,9.7-5,11.3-3.2c1.6,1.8,2.4,5.5,2.4,5.5L254.9,281.4z"/>
	<path class="st8" d="M264.5,283.5c0,0,10.3-3.6,11.6-1.5c1.3,2,1.6,5.8,1.6,5.8L264.5,283.5z"/>
	<path class="st8" d="M272.5,287c0,0,10.9-1.2,11.7,1.1c0.8,2.3,0.2,6,0.2,6L272.5,287z"/>
	<path class="st8" d="M172.4,309.8l-1.9-0.2c-0.6-0.1-0.9-0.7-0.5-1.2l1.1-1.5c0.3-0.5,1.1-0.4,1.3,0.1l0.8,1.7
		C173.4,309.3,173,309.9,172.4,309.8z"/>
	<path class="st8" d="M171,307.2l-1.6-0.9c-0.5-0.3-0.5-1,0-1.3l1.6-0.9c0.5-0.3,1.2,0.1,1.2,0.7l0,1.9
		C172.2,307.1,171.5,307.5,171,307.2z"/>
	<path class="st8" d="M171.3,304.2l-0.9-1.6c-0.3-0.5,0.1-1.2,0.7-1.2l1.9,0c0.6,0,1,0.6,0.7,1.1l-0.9,1.6
		C172.3,304.7,171.6,304.7,171.3,304.2z"/>
	<path class="st9" d="M256.7,329.6c0.1,2.3,1.8,4.3,4,4.9L276,339c0.6,0.2,0.5,1-0.2,1h-21.6c-6.9,0-12.5-5.6-12.5-12.5v-1.2
		c0-6.9,5.6-12.5,12.5-12.5h7.9c0.4,0,0.7,0,1.1-0.1c2.7-0.5,4.8-2.9,4.7-5.8c-0.1-3.2-2.8-5.7-6-5.7h-64.6c-6.4,0-12.8-0.7-19-2
		c-5.8-1.3-11.5-3.1-17-5.5c-0.4-0.2-0.7-0.3-1.1-0.5c-4.5-2-9.1-3.6-13.9-4.7l-41.5-9.1c-1-0.2-1.7-1.2-1.6-2.2
		c0.2-1.1,1.2-1.8,2.2-1.6l1,0.2l2.8,0.5l2.4,0.4l2.8,0.5l2.4,0.4l2.8,0.5l2.4,0.4l2.8,0.5l2.4,0.4l2.8,0.5l2.4,0.4l2.9,0.5l1,0.2
		l3.1-1.9c4.4-2.7,10.1-1.2,12.7,3.2l-1.8-3.3c-1.4-2.6-3.8-4.4-6.7-5l-2.2-0.4l-3.2-0.6l-0.5-0.1l-1.4-0.6l-3-1.3l-1.9-0.8l-3-1.3
		l-1.9-0.8l-3-1.3l-1.8-0.8l-3-1.3l-1.8-0.8l-3.1-1.3l-1.8-0.8l-2.9-1.3c-0.1,0-0.1-0.1-0.2-0.1c-2.8-1.4-2.5-5.6,0.6-6.4l0.1,0
		c3.7-1,7.3,0.6,10.2,3.2c4,3.7,21.8,7.1,32.3,8.8c1.6,0.3,3,0.5,4.2,0.7c0.7,0.1,1.3,0.2,1.8,0.3c1.1,0.2,1.7,0.2,1.7,0.2l2.6,1.1
		l8.2,3.3c7.9,3.2,16.4,4.5,24.9,4.1c44.3-2.5,63.7,0.9,77.5,6.2c4.2,1.6,8.5,4.3,11.8,7.9c3.3,3.6,5.5,8,5.5,13c0,11.1-9,20-20,20
		H262C259,324,256.5,326.5,256.7,329.6z"/>
	<path class="st9" d="M162.4,272.3c-0.7,3.2-3.9,5.3-7.1,4.6c-3.2-0.7-5.3-3.9-4.6-7.1c0.7-3.2,3.9-5.3,7.1-4.6
		C161.1,265.9,163.1,269.1,162.4,272.3z"/>
	<path class="st10" d="M159.2,270.8c-0.3,1.3-1.6,2.2-2.9,1.9c-1.3-0.3-2.2-1.6-1.9-2.9c0.3-1.3,1.6-2.2,2.9-1.9
		C158.6,268.2,159.5,269.5,159.2,270.8z"/>
	<path class="st11" d="M157.7,270.5c-0.2,1.1-0.8,1.9-1.4,1.8c-0.5-0.1-0.7-1.1-0.5-2.2c0.2-1.1,0.8-1.9,1.4-1.8
		C157.7,268.4,157.9,269.4,157.7,270.5z"/>
	<g>
		<path class="st12" d="M111.7,263.1l-1.5,1.1c-0.5,0.4-1.2,0.1-1.2-0.5l-0.2-1.8c-0.1-0.6,0.5-1,1.1-0.8l1.7,0.7
			C112.1,262.1,112.2,262.8,111.7,263.1z"/>
		<path class="st12" d="M116.6,265.2l-1.5,1.1c-0.5,0.4-1.2,0.1-1.2-0.5l-0.2-1.8c-0.1-0.6,0.5-1,1.1-0.8l1.7,0.7
			C117,264.1,117.1,264.8,116.6,265.2z"/>
		<path class="st12" d="M121.5,267.3l-1.5,1.1c-0.5,0.4-1.2,0.1-1.2-0.5l-0.2-1.8c-0.1-0.6,0.5-1,1.1-0.8l1.7,0.7
			C121.9,266.2,121.9,266.9,121.5,267.3z"/>
		<path class="st12" d="M126.4,269.3l-1.5,1.1c-0.5,0.4-1.2,0.1-1.2-0.5l-0.2-1.8c-0.1-0.6,0.5-1,1.1-0.8l1.7,0.7
			C126.7,268.2,126.8,269,126.4,269.3z"/>
		<path class="st12" d="M131.2,271.4l-1.5,1.1c-0.5,0.4-1.2,0.1-1.2-0.5l-0.2-1.8c-0.1-0.6,0.5-1,1.1-0.8l1.7,0.7
			C131.6,270.3,131.7,271,131.2,271.4z"/>
		<path class="st12" d="M136.1,273.4l-1.5,1.1c-0.5,0.4-1.2,0.1-1.2-0.5l-0.2-1.8c-0.1-0.6,0.5-1,1.1-0.8l1.7,0.7
			C136.5,272.3,136.6,273.1,136.1,273.4z"/>
		<path class="st12" d="M141,275.5l-1.5,1.1c-0.5,0.4-1.2,0.1-1.2-0.5l-0.2-1.8c-0.1-0.6,0.5-1,1.1-0.8l1.7,0.7
			C141.4,274.4,141.5,275.1,141,275.5z"/>
	</g>
	<g>
		<path class="st12" d="M132.2,281.7l1.2-1.4c0.4-0.5,1.1-0.3,1.3,0.2l0.6,1.8c0.2,0.6-0.3,1.1-0.9,1l-1.8-0.3
			C132.1,282.9,131.8,282.2,132.2,281.7z"/>
		<path class="st12" d="M127,280.8l1.2-1.4c0.4-0.5,1.1-0.3,1.3,0.2l0.6,1.8c0.2,0.6-0.3,1.1-0.9,1l-1.8-0.3
			C126.9,281.9,126.6,281.2,127,280.8z"/>
		<path class="st12" d="M121.8,279.9l1.2-1.4c0.4-0.5,1.1-0.3,1.3,0.2l0.6,1.8c0.2,0.6-0.3,1.1-0.9,1l-1.8-0.3
			C121.7,281,121.4,280.3,121.8,279.9z"/>
		<path class="st12" d="M116.6,278.9l1.2-1.4c0.4-0.5,1.1-0.3,1.3,0.2l0.6,1.8c0.2,0.6-0.3,1.1-0.9,1l-1.8-0.3
			C116.5,280.1,116.2,279.4,116.6,278.9z"/>
		<path class="st12" d="M111.4,278l1.2-1.4c0.4-0.5,1.1-0.3,1.3,0.2l0.6,1.8c0.2,0.6-0.3,1.1-0.9,1l-1.8-0.3
			C111.2,279.1,111,278.4,111.4,278z"/>
		<path class="st12" d="M106.2,277.1l1.2-1.4c0.4-0.5,1.1-0.3,1.3,0.2l0.6,1.8c0.2,0.6-0.3,1.1-0.9,1l-1.8-0.3
			C106,278.2,105.8,277.5,106.2,277.1z"/>
	</g>
	<path class="st10" d="M272.2,304.2c0,5.1-4,9.3-9,9.5c2.7-0.5,4.8-2.9,4.7-5.8c-0.1-3.2-2.8-5.7-6-5.7h-64.6c-0.4,0-0.7,0-1.1,0
		c-0.6,0-1.2,0-1.8,0c-1.1,0-2.2-0.1-3.3-0.2c-3.2-0.2-6.4-0.6-9.6-1.2c-1.1-0.2-2.1-0.4-3.2-0.6c-5.8-1.3-11.5-3.1-17-5.5h101.4
		c2.6,0,5,1.1,6.7,2.8C271.1,299.2,272.2,301.6,272.2,304.2z"/>
	<path class="st13" d="M191.1,294.7v7.4c-3.2-0.2-6.4-0.6-9.6-1.2v-6.2H191.1z"/>
	<rect x="232.1" y="294.7" class="st13" width="9.6" height="7.6"/>
	<path class="st11" d="M114.2,257.5c0,0.5-0.8,0.8-1.7,0.8c-0.9,0-1.7-0.4-1.7-0.8s0.8-0.8,1.7-0.8
		C113.4,256.6,114.2,257,114.2,257.5z"/>
	<path class="st9" d="M184.3,310.6c-2.6,0-4.8-2.1-4.8-4.8v-12.9c0-2.6,2.1-4.8,4.8-4.8s4.8,2.1,4.8,4.8v12.9
		C189.1,308.4,187,310.6,184.3,310.6z"/>
	<path class="st9" d="M189.1,305.8c0,2.6-2.1,4.8-4.8,4.8h-9c-2.6,0-4.8-2.1-4.8-4.8s2.1-4.8,4.8-4.8h9
		C187,301,189.1,303.2,189.1,305.8z"/>
	<path class="st8" d="M223,309.8l-1.9-0.2c-0.6-0.1-0.9-0.7-0.5-1.2l1.1-1.5c0.3-0.5,1.1-0.4,1.3,0.1l0.8,1.7
		C224,309.3,223.5,309.9,223,309.8z"/>
	<path class="st8" d="M221.6,307.2l-1.6-0.9c-0.5-0.3-0.5-1,0-1.3l1.6-0.9c0.5-0.3,1.2,0.1,1.2,0.7l0,1.9
		C222.7,307.1,222.1,307.5,221.6,307.2z"/>
	<path class="st8" d="M221.9,304.2l-0.9-1.6c-0.3-0.5,0.1-1.2,0.7-1.2l1.9,0c0.6,0,1,0.6,0.7,1.1l-0.9,1.6
		C222.9,304.7,222.2,304.7,221.9,304.2z"/>
	<path class="st9" d="M234.9,310.6c-2.6,0-4.8-2.1-4.8-4.8v-12.9c0-2.6,2.1-4.8,4.8-4.8c2.6,0,4.8,2.1,4.8,4.8v12.9
		C239.7,308.4,237.5,310.6,234.9,310.6z"/>
	<path class="st9" d="M239.7,305.8c0,2.6-2.1,4.8-4.8,4.8h-9c-2.6,0-4.8-2.1-4.8-4.8s2.1-4.8,4.8-4.8h9
		C237.5,301,239.7,303.2,239.7,305.8z"/>
	<path class="st8" d="M187.5,285.5h-2.1c-0.7,0-1.3-0.6-1.3-1.3s0.6-1.3,1.3-1.3h2.1c0.7,0,1.3,0.6,1.3,1.3S188.2,285.5,187.5,285.5
		z"/>
	<path class="st8" d="M194.6,288.9h-2.4c-0.9,0-1.6-0.7-1.6-1.6c0-0.9,0.7-1.6,1.6-1.6h2.4c0.9,0,1.6,0.7,1.6,1.6
		C196.2,288.2,195.5,288.9,194.6,288.9z"/>
	<path class="st8" d="M196.5,282.5h-0.7c-0.5,0-0.8-0.4-0.8-0.8c0-0.5,0.4-0.8,0.8-0.8h0.7c0.5,0,0.8,0.4,0.8,0.8
		C197.4,282.1,197,282.5,196.5,282.5z"/>
	<path class="st8" d="M207.8,285.8h-3.5c-0.5,0-0.9-0.4-0.9-0.9c0-0.5,0.4-0.9,0.9-0.9h3.5c0.5,0,0.9,0.4,0.9,0.9
		C208.7,285.4,208.3,285.8,207.8,285.8z"/>
	<path class="st8" d="M220.3,281.9h-3.1c-0.7,0-1.3-0.6-1.3-1.3c0-0.7,0.6-1.3,1.3-1.3h3.1c0.7,0,1.3,0.6,1.3,1.3
		C221.5,281.3,221,281.9,220.3,281.9z"/>
	<path class="st8" d="M227.2,286.7h-2.8c-0.4,0-0.7-0.3-0.7-0.7c0-0.4,0.3-0.7,0.7-0.7h2.8c0.4,0,0.7,0.3,0.7,0.7
		C228,286.4,227.7,286.7,227.2,286.7z"/>
	<path class="st8" d="M236,283.9h-2.2c-0.6,0-1.2-0.5-1.2-1.2c0-0.6,0.5-1.2,1.2-1.2h2.2c0.6,0,1.2,0.5,1.2,1.2
		C237.2,283.4,236.6,283.9,236,283.9z"/>
	<path class="st8" d="M245.6,289.6h-2.4c-0.6,0-1.1-0.5-1.1-1.1s0.5-1.1,1.1-1.1h2.4c0.6,0,1.1,0.5,1.1,1.1S246.2,289.6,245.6,289.6
		z"/>
	<path class="st8" d="M249.5,283.3h-1.7c-0.5,0-1-0.4-1-1c0-0.5,0.4-1,1-1h1.7c0.5,0,1,0.4,1,1C250.5,282.9,250,283.3,249.5,283.3z"
		/>
	<path class="st8" d="M256.9,288.5h-2c-0.6,0-1-0.5-1-1c0-0.6,0.5-1,1-1h2c0.6,0,1,0.5,1,1C258,288,257.5,288.5,256.9,288.5z"/>
	<path class="st8" d="M266.8,286.2h-3.4c-0.4,0-0.7-0.3-0.7-0.7c0-0.4,0.3-0.7,0.7-0.7h3.4c0.4,0,0.7,0.3,0.7,0.7
		C267.5,285.9,267.2,286.2,266.8,286.2z"/>
	<path class="st8" d="M270.4,292.8h-0.7c-0.5,0-0.9-0.4-0.9-0.9c0-0.5,0.4-0.9,0.9-0.9h0.7c0.5,0,0.9,0.4,0.9,0.9
		C271.4,292.4,270.9,292.8,270.4,292.8z"/>
	<path class="st8" d="M279.2,295.9h-1.4c-0.8,0-1.5-0.7-1.5-1.5c0-0.8,0.7-1.5,1.5-1.5h1.4c0.8,0,1.5,0.7,1.5,1.5
		C280.7,295.2,280,295.9,279.2,295.9z"/>
	<path class="st8" d="M286.3,302.5c-0.7,0-1.3-0.6-1.3-1.3v-0.4c0-0.7,0.6-1.3,1.3-1.3s1.3,0.6,1.3,1.3v0.4
		C287.7,301.9,287.1,302.5,286.3,302.5z"/>
	<path class="st8" d="M279.5,305.2h-2.2c-0.6,0-1.1-0.5-1.1-1.1c0-0.6,0.5-1.1,1.1-1.1h2.2c0.6,0,1.1,0.5,1.1,1.1
		C280.5,304.7,280,305.2,279.5,305.2z"/>
	<path class="st8" d="M283.5,312.4h-1.9c-0.6,0-1.1-0.5-1.1-1.1s0.5-1.1,1.1-1.1h1.9c0.6,0,1.1,0.5,1.1,1.1S284.1,312.4,283.5,312.4
		z"/>
	<path class="st8" d="M275.8,315.1h-1.7c-0.5,0-1-0.4-1-1c0-0.5,0.4-1,1-1h1.7c0.5,0,1,0.4,1,1C276.8,314.6,276.3,315.1,275.8,315.1
		z"/>
	<path class="st8" d="M276.7,320.7h-2.4c-0.4,0-0.7-0.3-0.7-0.7s0.3-0.7,0.7-0.7h2.4c0.4,0,0.7,0.3,0.7,0.7S277.1,320.7,276.7,320.7
		z"/>
	<path class="st8" d="M267.5,320.2h-2.2c-0.7,0-1.2-0.5-1.2-1.2c0-0.7,0.5-1.2,1.2-1.2h2.2c0.7,0,1.2,0.5,1.2,1.2
		C268.7,319.7,268.2,320.2,267.5,320.2z"/>
	<path class="st8" d="M254.4,319.6h-1.2c-0.5,0-0.9-0.4-0.9-0.9c0-0.5,0.4-0.9,0.9-0.9h1.2c0.5,0,0.9,0.4,0.9,0.9
		C255.3,319.2,254.9,319.6,254.4,319.6z"/>
	<path class="st8" d="M261.8,322.1h-2.5c-0.3,0-0.6-0.3-0.6-0.6c0-0.3,0.3-0.6,0.6-0.6h2.5c0.3,0,0.6,0.3,0.6,0.6
		C262.5,321.8,262.2,322.1,261.8,322.1z"/>
	<path class="st8" d="M246.4,324.8h-1c-0.6,0-1-0.5-1-1c0-0.6,0.5-1,1-1h1c0.6,0,1,0.5,1,1C247.5,324.3,247,324.8,246.4,324.8z"/>
	<path class="st8" d="M253.9,328.2h-1c-0.5,0-1-0.4-1-1c0-0.5,0.4-1,1-1h1c0.5,0,1,0.4,1,1C254.9,327.7,254.4,328.2,253.9,328.2z"/>
	<path class="st8" d="M251.8,333.6h-0.9c-0.5,0-0.9-0.4-0.9-0.9c0-0.5,0.4-0.9,0.9-0.9h0.9c0.5,0,0.9,0.4,0.9,0.9
		C252.7,333.2,252.3,333.6,251.8,333.6z"/>
	<path class="st8" d="M257.5,337h-1.8c-0.3,0-0.5-0.2-0.5-0.5c0-0.3,0.2-0.5,0.5-0.5h1.8c0.3,0,0.5,0.2,0.5,0.5
		C258.1,336.8,257.8,337,257.5,337z"/>
	<path class="st8" d="M247,329.1h-0.2c-0.4,0-0.8-0.4-0.8-0.8c0-0.4,0.4-0.8,0.8-0.8h0.2c0.4,0,0.8,0.4,0.8,0.8
		C247.8,328.8,247.5,329.1,247,329.1z"/>
	<path class="st8" d="M266,339.1h-1.4c-0.3,0-0.6-0.3-0.6-0.6c0-0.3,0.3-0.6,0.6-0.6h1.4c0.3,0,0.6,0.3,0.6,0.6
		C266.6,338.9,266.3,339.1,266,339.1z"/>
	<path class="st8" d="M253.6,323.1h-0.5c-0.6,0-1-0.5-1-1c0-0.6,0.5-1,1-1h0.5c0.6,0,1,0.5,1,1C254.6,322.7,254.1,323.1,253.6,323.1
		z"/>
	<path class="st8" d="M260.3,317h-1.4c-0.6,0-1.1-0.5-1.1-1.1s0.5-1.1,1.1-1.1h1.4c0.6,0,1.1,0.5,1.1,1.1S260.8,317,260.3,317z"/>
	<path class="st8" d="M234.7,288.3h-0.8c-0.5,0-0.8-0.4-0.8-0.8s0.4-0.8,0.8-0.8h0.8c0.5,0,0.8,0.4,0.8,0.8S235.2,288.3,234.7,288.3
		z"/>
	<path class="st8" d="M227.1,280h-0.7c-0.5,0-1-0.4-1-1s0.4-1,1-1h0.7c0.5,0,1,0.4,1,1S227.6,280,227.1,280z"/>
	<path class="st8" d="M217.1,289.1h-2.7c-0.8,0-1.4-0.6-1.4-1.4c0-0.8,0.6-1.4,1.4-1.4h2.7c0.8,0,1.4,0.6,1.4,1.4
		C218.5,288.5,217.9,289.1,217.1,289.1z"/>
	<path class="st8" d="M177,285.8h-2.7c-0.6,0-1-0.5-1-1c0-0.6,0.5-1,1-1h2.7c0.6,0,1,0.5,1,1C178.1,285.4,177.6,285.8,177,285.8z"/>
	<path class="st8" d="M176.6,279.1h-1.2c-0.5,0-0.9-0.4-0.9-0.9c0-0.5,0.4-0.9,0.9-0.9h1.2c0.5,0,0.9,0.4,0.9,0.9
		C177.5,278.7,177.1,279.1,176.6,279.1z"/>
	<path class="st8" d="M168.4,275.6h-0.5c-0.5,0-0.8-0.4-0.8-0.8c0-0.5,0.4-0.8,0.8-0.8h0.5c0.5,0,0.8,0.4,0.8,0.8
		C169.3,275.3,168.9,275.6,168.4,275.6z"/>
	<path class="st8" d="M170.2,281.2h-0.8c-0.4,0-0.7-0.3-0.7-0.7c0-0.4,0.3-0.7,0.7-0.7h0.8c0.4,0,0.7,0.3,0.7,0.7
		C170.9,280.8,170.6,281.2,170.2,281.2z"/>
	<path class="st8" d="M162.8,276.4h-0.9c-0.3,0-0.5-0.2-0.5-0.5c0-0.3,0.2-0.5,0.5-0.5h0.9c0.3,0,0.5,0.2,0.5,0.5
		C163.4,276.2,163.1,276.4,162.8,276.4z"/>
	<path class="st8" d="M184.2,290.3h-1.3c-0.3,0-0.6-0.3-0.6-0.6c0-0.3,0.3-0.6,0.6-0.6h1.3c0.3,0,0.6,0.3,0.6,0.6
		C184.8,290.1,184.6,290.3,184.2,290.3z"/>
	<path class="st8" d="M209.5,282.5h-1.1c-0.6,0-1.1-0.5-1.1-1.1c0-0.6,0.5-1.1,1.1-1.1h1.1c0.6,0,1.1,0.5,1.1,1.1
		C210.7,282,210.2,282.5,209.5,282.5z"/>
	<path class="st13" d="M196.2,299.3v3c-0.6,0-1.2,0-1.8,0v-2.9c0-0.5,0.4-0.9,0.9-0.9C195.8,298.3,196.2,298.8,196.2,299.3z"/>
	<path class="st13" d="M215.9,299.3v3h-1.8v-3c0-0.5,0.4-0.9,0.9-0.9C215.5,298.3,215.9,298.8,215.9,299.3z"/>
	<path class="st13" d="M201.4,296.7v5.5h-1.8v-5.5c0-0.5,0.4-0.9,0.9-0.9C201,295.8,201.4,296.2,201.4,296.7z"/>
	<path class="st13" d="M206.2,296.7v5.5h-1.8v-5.5c0-0.5,0.4-0.9,0.9-0.9C205.8,295.8,206.2,296.2,206.2,296.7z"/>
	<path class="st13" d="M211,296.7v5.5h-1.8v-5.5c0-0.5,0.4-0.9,0.9-0.9C210.6,295.8,211,296.2,211,296.7z"/>
</g>
<g>
	<g>
		<circle class="st14" cx="218.1" cy="72.6" r="37.9"/>
	</g>
	<g>
		<path class="st0" d="M216.4,85.8c0,1.4-0.8,2.1-2.3,2.1h-14.8c-0.7,0-1.2-0.2-1.6-0.6c-0.4-0.4-0.6-0.9-0.6-1.5
			c0-0.8,0.3-1.5,0.9-2.1l8.9-9.5c1.1-1.2,1.9-2.3,2.4-3.3c0.5-1,0.8-2,0.8-3c0-1.2-0.4-2.2-1.1-2.8c-0.7-0.6-1.7-1-3-1
			c-1.1,0-2.1,0.2-3.1,0.6c-1,0.4-2,1-3,1.7c-0.3,0.2-0.5,0.3-0.8,0.4c-0.3,0.1-0.5,0.2-0.8,0.2c-0.4,0-0.8-0.2-1.1-0.6
			c-0.3-0.4-0.5-0.9-0.5-1.5c0-0.4,0.1-0.7,0.2-1c0.1-0.3,0.4-0.6,0.7-0.8c1.1-0.9,2.5-1.6,4-2.2c1.5-0.5,3.1-0.8,4.6-0.8
			c2.7,0,4.8,0.7,6.4,2c1.6,1.3,2.4,3.2,2.4,5.4c0,1.6-0.3,3.1-1,4.5c-0.7,1.4-1.8,2.9-3.4,4.7l-6.7,7.2h10.3
			C215.7,83.8,216.4,84.4,216.4,85.8z"/>
		<path class="st0" d="M235.8,71.4c1.3,0.7,2.3,1.8,3.1,3.1c0.7,1.3,1.1,2.8,1.1,4.6c0,1.8-0.4,3.4-1.2,4.7c-0.8,1.4-2,2.4-3.5,3.2
			c-1.5,0.8-3.2,1.1-5.2,1.1c-1.6,0-3.2-0.3-4.7-0.8c-1.5-0.5-2.9-1.3-4-2.2c-0.6-0.5-0.9-1.1-0.9-1.8c0-0.6,0.2-1.1,0.5-1.5
			c0.3-0.4,0.7-0.6,1.1-0.6c0.3,0,0.5,0,0.7,0.1s0.5,0.2,0.8,0.4c1,0.7,2.1,1.3,3,1.7c1,0.4,2,0.6,3.2,0.6c1.7,0,3-0.4,3.9-1.3
			c0.9-0.9,1.4-2.1,1.4-3.7c0-1.5-0.5-2.7-1.4-3.6c-0.9-0.9-2.2-1.3-3.8-1.3c-1,0-1.9,0.1-2.7,0.4c-0.8,0.3-1.6,0.8-2.4,1.4
			c-0.5,0.3-1,0.5-1.5,0.5c-0.5,0-1-0.2-1.3-0.5c-0.4-0.3-0.5-0.7-0.5-1.2V62.7c0-0.7,0.2-1.3,0.6-1.7c0.4-0.4,1-0.6,1.8-0.6h13
			c1.6,0,2.3,0.6,2.3,1.9c0,1.3-0.8,1.9-2.3,1.9h-10.4v7.4c1.3-0.9,2.9-1.4,4.9-1.4C233,70.3,234.5,70.6,235.8,71.4z"/>
	</g>
</g>
<g>
	<g>
		<circle class="st15" cx="322.6" cy="128.5" r="37.9"/>
	</g>
	<g>
		<path class="st0" d="M319,136.6c0,1.4-0.8,2.1-2.3,2.1h-13.2c-1.6,0-2.4-0.7-2.4-2.1c0-1.3,0.8-2,2.4-2h4v-17.8l-3.7,2.3
			c-0.4,0.2-0.7,0.3-1,0.3c-0.5,0-1-0.2-1.4-0.7c-0.4-0.5-0.6-1-0.6-1.6c0-0.8,0.3-1.3,1-1.8l6-3.7c0.8-0.5,1.5-0.7,2.2-0.7
			c0.7,0,1.3,0.2,1.8,0.7c0.4,0.4,0.7,1.1,0.7,1.8v21.1h4.1C318.2,134.7,319,135.3,319,136.6z"/>
		<path class="st0" d="M341.2,127c0.9,1.2,1.3,2.6,1.3,4.3c0,2.4-0.9,4.3-2.7,5.7c-1.8,1.4-4.3,2-7.6,2c-3.2,0-5.7-0.7-7.6-2
			c-1.8-1.4-2.7-3.3-2.7-5.7c0-1.7,0.4-3.1,1.3-4.3c0.9-1.2,2.1-2,3.7-2.4c-1.4-0.5-2.5-1.3-3.2-2.4c-0.8-1.1-1.2-2.4-1.2-3.9
			c0-2.3,0.9-4.1,2.6-5.4c1.7-1.3,4.1-2,7-2c3,0,5.3,0.7,7,2c1.7,1.3,2.6,3.1,2.6,5.4c0,1.5-0.4,2.8-1.2,3.9
			c-0.8,1.1-1.8,1.9-3.2,2.4C339.1,125.1,340.3,125.9,341.2,127z M337.8,130.9c0-2.8-1.9-4.2-5.6-4.2c-3.7,0-5.6,1.4-5.6,4.2
			c0,2.8,1.9,4.2,5.6,4.2C335.9,135.1,337.8,133.7,337.8,130.9z M327.3,118.8c0,1.3,0.4,2.3,1.2,3c0.8,0.7,2,1,3.6,1
			c1.6,0,2.8-0.3,3.6-1c0.8-0.7,1.2-1.7,1.2-3c0-2.6-1.6-4-4.9-4C329,114.8,327.3,116.2,327.3,118.8z"/>
	</g>
</g>
<g>
	<g>
		<circle class="st16" cx="308.7" cy="325.3" r="37.9"/>
	</g>
	<g>
		<g>
			<path class="st0" d="M305.9,327c0.9,1.2,1.3,2.6,1.3,4.3c0,2.4-0.9,4.2-2.6,5.6c-1.7,1.4-4.1,2.1-7,2.1c-1.7,0-3.3-0.3-4.9-0.8
				c-1.6-0.5-2.9-1.2-4-2.2c-0.6-0.5-0.9-1.1-0.9-1.8c0-0.6,0.2-1.1,0.5-1.5c0.3-0.4,0.7-0.6,1.1-0.6c0.3,0,0.5,0,0.7,0.1
				c0.2,0.1,0.5,0.2,0.9,0.4c1.1,0.7,2.1,1.3,3.1,1.7c1,0.4,2.1,0.6,3.2,0.6c1.7,0,3-0.3,3.8-1c0.8-0.7,1.2-1.7,1.2-3.1
				c0-1.4-0.4-2.4-1.3-3.1c-0.9-0.7-2.2-1-4-1h-2.2c-0.6,0-1.1-0.2-1.4-0.6c-0.3-0.4-0.5-0.9-0.5-1.4c0-0.5,0.2-1,0.5-1.4
				c0.3-0.4,0.8-0.6,1.4-0.6h1.6c3.6,0,5.3-1.3,5.3-4c0-1.2-0.4-2.2-1.1-2.9c-0.8-0.7-1.8-1-3.1-1c-1.9,0-3.9,0.8-6.1,2.3
				c-0.4,0.2-0.6,0.4-0.9,0.4c-0.2,0.1-0.4,0.1-0.7,0.1c-0.4,0-0.8-0.2-1.1-0.6c-0.3-0.4-0.5-0.9-0.5-1.5c0-0.4,0.1-0.7,0.2-1
				c0.1-0.3,0.4-0.6,0.7-0.8c1.1-0.9,2.4-1.6,3.9-2.2c1.5-0.5,3.1-0.8,4.7-0.8c2.7,0,4.8,0.7,6.4,2c1.6,1.3,2.4,3.1,2.4,5.3
				c0,1.5-0.4,2.8-1.2,4c-0.8,1.1-1.8,2-3.2,2.5C303.8,325.1,305,325.9,305.9,327z"/>
			<path class="st0" d="M325.4,322.3c1.3,0.7,2.3,1.8,3,3.1c0.7,1.3,1.1,2.9,1.1,4.6c0,1.8-0.4,3.3-1.2,4.7
				c-0.8,1.4-1.9,2.5-3.3,3.3c-1.4,0.8-3,1.2-4.7,1.2c-3.5,0-6.2-1.2-8-3.5c-1.9-2.3-2.8-5.7-2.8-10.1c0-3,0.4-5.6,1.3-7.8
				c0.9-2.2,2.1-3.9,3.8-5c1.6-1.2,3.6-1.8,5.8-1.8c1.5,0,3,0.3,4.5,0.8c1.5,0.5,2.8,1.3,3.8,2.2c0.3,0.3,0.6,0.6,0.7,0.8
				c0.1,0.3,0.2,0.6,0.2,1c0,0.6-0.2,1.1-0.5,1.5c-0.3,0.4-0.7,0.6-1.1,0.6c-0.3,0-0.5,0-0.7-0.1c-0.2-0.1-0.5-0.2-0.9-0.4
				c-2.2-1.5-4.1-2.3-5.8-2.3c-1.9,0-3.4,0.9-4.5,2.6c-1.1,1.8-1.7,4.2-1.7,7.4c0.6-1.2,1.5-2.1,2.7-2.8c1.2-0.7,2.5-1,4-1
				C322.7,321.1,324.1,321.5,325.4,322.3z M323.4,333.7c0.9-0.9,1.3-2.1,1.3-3.6c0-1.5-0.4-2.7-1.3-3.6c-0.9-0.9-2-1.4-3.4-1.4
				c-1.5,0-2.6,0.5-3.5,1.4c-0.9,0.9-1.3,2.1-1.3,3.6c0,1.5,0.4,2.7,1.3,3.6c0.9,0.9,2.1,1.4,3.5,1.4
				C321.4,335.1,322.5,334.7,323.4,333.7z"/>
		</g>
	</g>
</g>
<g>
	<g>
		<path class="st17" d="M299.6,163.4c1,2.9-0.2,6-2.6,6.8c-2.4,0.8-5.2-0.9-6.2-3.8c-1-2.9,0.2-6,2.6-6.8
			C295.8,158.7,298.6,160.4,299.6,163.4z"/>
		<path class="st18" d="M295.7,168.4c-1.2,0-2.5-1.1-3-2.7c-0.6-1.8,0-3.8,1.4-4.3c0.2-0.1,0.4-0.1,0.6-0.1c1.2,0,2.5,1.1,3,2.7
			c0.6,1.8,0,3.8-1.4,4.3C296.1,168.3,295.9,168.4,295.7,168.4z"/>
		<path class="st17" d="M320.4,163.4c-1,2.9,0.2,6,2.6,6.8c2.4,0.8,5.2-0.9,6.2-3.8c1-2.9-0.2-6-2.6-6.8
			C324.2,158.7,321.4,160.4,320.4,163.4z"/>
		<path class="st18" d="M324.3,168.4c-0.2,0-0.4,0-0.6-0.1c-0.8-0.3-1.2-1-1.4-1.4c-0.3-0.8-0.3-1.9,0-2.8c0.5-1.5,1.8-2.7,3-2.7
			c0.2,0,0.4,0,0.6,0.1c1.4,0.5,2,2.4,1.4,4.3C326.8,167.3,325.5,168.4,324.3,168.4z"/>
	</g>
	<path class="st2" d="M322,239.7H298c-9.5,0-17.3-7.8-17.3-17.3V185c0-9.5,7.8-17.3,17.3-17.3H322c9.5,0,17.3,7.8,17.3,17.3v37.4
		C339.3,231.9,331.5,239.7,322,239.7z"/>
	<path class="st19" d="M300.9,239.7c-15.2,0-23.9-17.2-15.1-29.5l8.2-11.4L300.9,239.7z"/>
	<path class="st6" d="M300.9,239.7c-4.6,0-8.4-3.8-8.4-8.4v-27.6c0-1.8,0.6-3.5,1.5-4.8c1.5-2.2,4-3.6,6.9-3.6
		c4.6,0,8.4,3.8,8.4,8.4v27.6C309.3,235.9,305.5,239.7,300.9,239.7z"/>
	<path class="st20" d="M307.6,239.7c1.7,0,2.8-1.7,2.1-3.2c-1.4-3.1-4.4-5.2-8-5.2s-6.6,2.1-8,5.2c-0.7,1.5,0.5,3.2,2.1,3.2H307.6z"
		/>
	<path class="st19" d="M323,239.7c15.2,0,23.9-17.2,15.1-29.5l-8.2-11.4L323,239.7z"/>
	<path class="st6" d="M323,239.7c4.6,0,8.4-3.8,8.4-8.4v-27.6c0-1.8-0.6-3.5-1.5-4.8c-1.5-2.2-4-3.6-6.9-3.6c-4.6,0-8.4,3.8-8.4,8.4
		v27.6C314.6,235.9,318.4,239.7,323,239.7z"/>
	<path class="st20" d="M316.3,239.7c-1.7,0-2.8-1.7-2.1-3.2c1.4-3.1,4.4-5.2,8-5.2c3.5,0,6.6,2.1,8,5.2c0.7,1.5-0.5,3.2-2.1,3.2
		H316.3z"/>
	<path class="st6" d="M310,189c-8.3,0-15.1-7.8-15.1-17.5v-8.1c0-8.3,5.9-15.1,13.1-15.1h4.2c7.2,0,13.1,6.8,13.1,15.1v8.1
		C325.1,181.1,318.3,189,310,189z"/>
	<path class="st1" d="M310,187c-8.3,0-15.1-6.8-15.1-15.1v-8.5c0-6.9,5.7-12.6,12.6-12.6h5c6.9,0,12.6,5.7,12.6,12.6v8.5
		C325.1,180.1,318.3,187,310,187z"/>
	<path class="st18" d="M319.8,166.2v-0.4c0-3.8-3.1-6.9-6.9-6.9h-5.8c-3.8,0-6.9,3.1-6.9,6.9v0.4c0,3.1,2.5,5.6,5.6,5.6h8.5
		C317.3,171.8,319.8,169.3,319.8,166.2z"/>
	<path class="st18" d="M318.1,174.1v4c0,3.6-3,6.6-6.6,6.6h-2.9c-3.6,0-6.6-3-6.6-6.6v-4c0-4.4,3.6-8.1,8.1-8.1
		c2.2,0,4.2,0.9,5.7,2.4C317.2,169.9,318.1,171.9,318.1,174.1z"/>
	<path class="st17" d="M318.1,174.1v1.7c-1.7,1.6-4,2.5-6.4,2.5h-3.3c-2.5,0-4.7-1-6.4-2.5v-1.7c0-4.4,3.6-8.1,8.1-8.1
		c2.2,0,4.2,0.9,5.7,2.4C317.2,169.9,318.1,171.9,318.1,174.1z"/>
	<g>
		<path class="st6" d="M306.5,164.1c0,0.9-0.7,1.6-1.6,1.6c-0.9,0-1.6-0.7-1.6-1.6s0.7-1.6,1.6-1.6
			C305.8,162.5,306.5,163.2,306.5,164.1z"/>
		<path class="st6" d="M316.6,164.1c0,0.9-0.7,1.6-1.6,1.6c-0.9,0-1.6-0.7-1.6-1.6s0.7-1.6,1.6-1.6
			C315.9,162.5,316.6,163.2,316.6,164.1z"/>
	</g>
	<path class="st2" d="M275.8,211.3c-3.5-2-4.8-6.5-2.9-10l10.5-18.9c2-3.5,6.5-4.8,10-2.9c3.5,2,4.8,6.5,2.9,10l-10.5,18.9
		C283.9,211.9,279.4,213.2,275.8,211.3z"/>
	<path class="st18" d="M282.4,239.7h16.2c2.1,0,3.9-1.7,3.9-3.9V234c0-1.1-0.9-2-2-2c-1.1,0-2,0.9-2,2v1.5h-15L282.4,239.7z"/>
	<path class="st18" d="M292,237.9h-4.5c-1,0-1.9-0.9-1.9-1.9c0-1,0.9-1.9,1.9-1.9h4.5c1,0,1.9,0.9,1.9,1.9
		C293.8,237,293,237.9,292,237.9z"/>
	<path class="st17" d="M295.9,237.5h-3.5c-0.8,0-1.5-0.7-1.5-1.5c0-0.8,0.7-1.5,1.5-1.5h3.5c0.8,0,1.5,0.7,1.5,1.5
		C297.4,236.8,296.7,237.5,295.9,237.5z"/>
	<path class="st18" d="M311.9,196.3v16.2c0,2.1,1.7,3.9,3.9,3.9h1.8c1.1,0,2-0.9,2-2c0-1.1-0.9-2-2-2h-1.5v-15L311.9,196.3z"/>
	<path class="st18" d="M313.7,205.8v-4.5c0-1,0.9-1.9,1.9-1.9c1,0,1.9,0.9,1.9,1.9v4.5c0,1-0.9,1.9-1.9,1.9
		C314.5,207.7,313.7,206.9,313.7,205.8z"/>
	<path class="st1" d="M274.7,199.4l4-0.7c1.9-0.3,3.8,1,4.1,2.9l5.5,33.5c0.3,1.9-1,3.8-2.9,4.1l-4,0.7c-1.9,0.3-3.8-1-4.1-2.9
		l-5.5-33.5C271.4,201.6,272.7,199.7,274.7,199.4z"/>
	<path class="st2" d="M344.8,211c3.5-2.1,4.6-6.6,2.6-10.1l-11-18.5c-2.1-3.5-6.6-4.6-10.1-2.6c-3.5,2.1-4.6,6.6-2.6,10.1l11,18.5
		C336.7,211.9,341.3,213,344.8,211z"/>
	<path class="st1" d="M345.5,208.5c1.3-2.8,0-6.1-2.8-7.4l-23.6-10.5c-2.8-1.3-6.1,0-7.4,2.8c-1.3,2.8,0,6.1,2.8,7.4l23.6,10.5
		C340.9,212.6,344.2,211.3,345.5,208.5z"/>
	<g>
		<path class="st6" d="M308.8,168.5c0.7,0.7,0.7,2.2,0.7,2.2s-1.5,0-2.2-0.7c-0.7-0.7-0.7-1.4-0.3-1.8
			C307.4,167.8,308.1,167.8,308.8,168.5z"/>
		<path class="st6" d="M311.2,168.5c-0.7,0.7-0.7,2.2-0.7,2.2s1.5,0,2.2-0.7c0.7-0.7,0.7-1.4,0.3-1.8
			C312.6,167.8,311.9,167.8,311.2,168.5z"/>
	</g>
</g>
</svg>
