<?xml version="1.0" encoding="utf-8"?>
<!-- Generator: Adobe Illustrator 22.1.0, SVG Export Plug-In . SVG Version: 6.00 Build 0)  -->
<svg version="1.1" id="Layer_1" xmlns="http://www.w3.org/2000/svg" xmlns:xlink="http://www.w3.org/1999/xlink" x="0px" y="0px"
	 viewBox="0 0 400 400" style="enable-background:new 0 0 400 400;" xml:space="preserve">
<style type="text/css">
	.st0{fill:#FFFFFF;}
	.st1{fill:#490A3D;}
	.st2{fill:#00CDC8;}
	.st3{fill:#CECECE;}
	.st4{enable-background:new    ;}
</style>
<g>
	<g>
		<path class="st0" d="M172,333.1c-16.7,0-31.9-8.8-40.1-23c-6.7-3-11-9.8-11-17.4c0-3.6,1-7.2,3-10.3v-16.8
			c0-10.7,4.8-18,14.4-21.6c5.4-10.1,19.6-17.5,34.4-17.5c2.7,0,5.5,0.3,8.1,0.8c16.2,3.1,31.3,14.3,37,27.2
			c0.8,1.6,1.4,3.4,1.8,5.5c0,0,0,0.1,0,0.1c0.2,0.5,0.2,0.9,0.2,1.3c0.2,1.3,0.3,2.6,0.3,4v16.8c2,3.1,3,6.7,2.9,10.5
			c0,7.6-4.3,14.4-10.9,17.4C203.9,324.4,188.7,333.1,172,333.1z"/>
		<path class="st0" d="M172.6,231.5c2.4,0,4.8,0.2,7.1,0.7c15.3,3,28.7,13.5,33.4,24.5c0.6,1.2,1.1,2.7,1.4,4.3
			c0,0.2,0.1,0.3,0.1,0.5c0.1,0.2,0.1,0.3,0.1,0.5c0.2,1.1,0.3,2.2,0.3,3.5v18.4c1.9,2.4,3,5.4,2.9,8.9c0,6.3-3.9,11.7-9.4,13.5
			c-7,13.4-21,22-36.6,22c-15.6,0-29.6-8.6-36.6-22c-5.5-1.8-9.6-7.1-9.6-13.5c0-3.2,1.1-6.3,3-8.7v-18.4c0-10.3,5.2-15.2,13-17.5
			C145.3,239,158.6,231.5,172.6,231.5 M172.6,221.5c-16.1,0-31.1,7.6-37.9,18.5c-10.3,4.6-15.9,13.5-15.9,25.6V281
			c-1.9,3.6-3,7.6-3,11.6c0,9.1,4.9,17.2,12.5,21.3c9.2,15,25.6,24.2,43.6,24.2c18,0,34.4-9.2,43.6-24.2
			c7.5-4.1,12.3-12.1,12.3-21.1c0.1-4.3-0.9-8.3-2.9-12v-15.5c0-1.6-0.1-3.1-0.3-4.6c0-0.5-0.1-1.2-0.4-2c-0.5-2.4-1.2-4.6-2.1-6.5
			c-6.4-14.5-22.6-26.5-40.5-30C178.7,221.8,175.7,221.5,172.6,221.5L172.6,221.5z"/>
	</g>
	<g>
		<path class="st0" d="M66,238c-0.3,0-0.6,0-0.9,0c-5.5-0.2-9.6-1.8-12.4-4.9c-3.7-4-4.2-10-1.2-14.6c2.7-4,7.5-6.3,13.3-6.3
			c3.5,0,7,0.8,9.9,2.3c5.2,1.1,8.5,4.5,9,9.3c0.4,3.2-0.5,6.2-2.6,8.6C76.6,237.6,68.4,238,66,238C66,238,66,238,66,238z"/>
		<path class="st0" d="M64.8,217.2c3,0,6,0.8,8.2,2.1c3,0.5,5.4,1.9,5.8,5.1c0.9,6.7-7.6,8.6-12.8,8.6c-0.2,0-0.5,0-0.7,0
			c-3.2-0.1-6.6-0.7-8.8-3.2c-2.1-2.3-2.5-5.8-0.7-8.5C57.7,218.4,61.2,217.2,64.8,217.2 M64.8,207.2c-7.4,0-13.7,3.1-17.4,8.4
			c0,0-0.1,0.1-0.1,0.1c-4.2,6.5-3.5,15,1.7,20.7c3.7,4.1,9.1,6.3,15.9,6.5c0.3,0,0.7,0,1,0c2.9,0,13-0.5,18.9-7.3
			c3-3.5,4.4-7.9,3.8-12.6c-0.8-6.7-5.4-11.7-12.3-13.4C72.9,208.1,68.9,207.2,64.8,207.2L64.8,207.2z"/>
	</g>
	<g>
		<path class="st0" d="M78.6,258.2c-0.3,0-0.5,0-0.8,0c-4.1-0.2-7.9-2.3-10.1-5.4c-1.9-2.8-2.4-6.2-1.2-9.5c1.4-4.1,5-6.5,9.4-6.5
			c1.3,0,2.6,0.2,3.9,0.6c5.5,0.1,9.6,3.2,10.8,8.3c0,0,0,0.1,0,0.1c0.7,3,0,5.9-1.8,8.2C86.6,256.6,82.8,258.2,78.6,258.2
			C78.6,258.2,78.6,258.2,78.6,258.2z"/>
		<path class="st0" d="M75.9,241.7c1,0,2.1,0.2,3.1,0.6c0.2,0,0.4,0,0.6,0c2.7,0,5.3,1.2,6.1,4.5c1,4.5-3.4,6.4-7.1,6.4
			c-0.2,0-0.3,0-0.5,0c-4.3-0.2-8.4-3.7-6.9-8.4C72,242.5,73.9,241.7,75.9,241.7 M75.9,231.7C75.9,231.7,75.9,231.7,75.9,231.7
			c-6.6,0-12,3.8-14.1,9.8c0,0,0,0.1,0,0.1c-1.6,4.8-0.9,9.9,1.9,14c3.1,4.5,8.3,7.3,14,7.6c0.3,0,0.7,0,1,0
			c5.8,0,10.9-2.2,14.1-6.1c2.8-3.5,3.8-7.8,2.8-12.4c0-0.1,0-0.1,0-0.2c-1.7-7.1-7.5-11.8-14.9-12.1
			C79,231.9,77.4,231.7,75.9,231.7L75.9,231.7z"/>
	</g>
	<g>
		<path class="st0" d="M94.7,268c-3.3-0.2-6.5-2-8.2-4.6c-1.5-2.3-1.9-5.1-1-7.7c1.1-3.5,4.1-5.6,7.9-5.6c1,0,1.9,0.1,2.9,0.4
			c4.4,0.2,7.7,2.8,8.6,6.9c0.6,2.6,0.1,5-1.5,7c-1.8,2.2-4.9,3.6-8.2,3.6C95.2,268,94.7,268,94.7,268z"/>
		<path class="st0" d="M93.4,255.1c0.7,0,1.5,0.2,2.1,0.4c0.1,0,0.2,0,0.3,0c1.9,0,3.7,0.8,4.2,3.1c0.7,3.1-2.4,4.5-4.9,4.5
			c-0.1,0-0.2,0-0.3,0c-3-0.2-5.8-2.6-4.7-5.8C90.7,255.6,92,255.1,93.4,255.1 M93.4,245.1C93.4,245.1,93.4,245.1,93.4,245.1
			c-5.9,0-10.9,3.5-12.7,9c-1.4,4.1-0.8,8.5,1.5,12.1c2.6,3.9,7.1,6.5,12.1,6.8c0.1,0,0.2,0,0.3,0c0.2,0,0.4,0,0.6,0
			c4.9,0,9.4-2,12.1-5.5c2.5-3.1,3.4-7.2,2.5-11.2c-1.4-6.2-6.4-10.3-12.7-10.8C95.9,245.2,94.6,245.1,93.4,245.1L93.4,245.1z"/>
	</g>
	<g>
		<path class="st0" d="M57.8,218.3c-2.6,0-5.2-0.2-7.7-0.7c-0.2,0-0.4,0-0.6,0c-14.3,0-24.5-7.5-29.3-21.6
			c-7.5-21.6,2.8-45.1,16.7-54.6c6.7-4.5,14.7-6.9,22.6-6.9c9.7,0,18.4,3.8,24.5,10.6c2.7,3.1,5.1,7.1,6.9,11.8
			c3-1.1,6.1-1.7,9.3-1.7c0.3,0,0.6,0,0.9,0c1.3-17,10-33.7,22.2-42.1c7.7-5.3,17.1-8.2,26.4-8.2c11.3,0,21.4,4.4,28.4,12.5
			c8.7,9.9,13.7,27.8,12.7,44.4c0.1,0,0.1,0,0.2,0c0.5-17.9,9.3-36.1,22.3-45c7.7-5.3,17.1-8.2,26.4-8.2c11.3,0,21.4,4.4,28.4,12.5
			c7.4,8.4,12.2,22.8,12.8,37.3c0.1,0,0.3-0.1,0.4-0.1c1.8-17.1,12.1-33.5,26.6-41.7c9.1-5.1,20-8,30.9-8c13.2,0,25,4.3,33.2,12.1
			c14.3,13.5,19.8,41.9,11.7,60.8c-6.7,15.6-25.3,25.6-47.5,25.6c0,0,0,0,0,0c-3.6,0-7.2-0.3-10.8-0.8c-0.4,0-0.8,0-1.2,0
			c-7.6,0-14.4-1.3-20.2-3.9c-4.8,4.7-11.3,7.4-18.2,7.4c-8.6,0-16.5-4.3-21.3-11.1c-7.4,5.4-17,8.5-27.1,8.5c-3,0-6.1-0.3-9-0.8
			c-0.3,0-0.6,0-0.9,0c-6.6,0-12.5-1.4-17.5-4.1c-4.8,7-12.8,11.4-21.5,11.4c-9.7,0-18.5-5.4-22.9-13.7c-5.6,2.3-11.9,3.5-18.3,3.5
			c-3,0-6.1-0.3-9-0.8c-0.3,0-0.6,0-0.9,0c-6.8,0-12.8-1.5-17.9-4.4c-4.9,5.6-12,8.9-19.6,8.9c-4.2,0-8.4-1-12.1-3
			C81.5,213,70.4,218.3,57.8,218.3z"/>
		<path class="st0" d="M149.6,110c9.1,0,18.1,3.2,24.7,10.7c8.9,10.1,13.4,30,10.9,46.3c1.1-0.2,2.3-0.3,3.5-0.3
			c2.6,0,5.1,0.5,7.4,1.4c-1.7-19.3,7.6-38.7,20-47.1c6.7-4.6,15.2-7.3,23.6-7.3c9.1,0,18.1,3.2,24.7,10.7c8,9.1,12.4,26,11.5,41.1
			c3-1.7,6.5-2.6,10.2-2.6c0,0,0,0,0.1,0c0.2-17.5,10.8-34.3,24.4-41.9c8.1-4.6,18.3-7.3,28.4-7.3c11,0,21.8,3.2,29.8,10.7
			c12.7,12.1,17.9,37.9,10.6,55.2c-6.4,14.9-24.6,22.6-42.9,22.6c-3.5,0-7-0.3-10.4-0.8c-0.5,0-1.1,0-1.6,0c-7.6,0-15-1.4-21.3-5.2
			c-3.8,5.2-10,8.7-17,8.7c-9.2,0-16.9-5.9-19.8-14.1c-7.2,7.5-17.9,11.4-28.6,11.4c-2.9,0-5.8-0.3-8.6-0.8c-0.4,0-0.9,0-1.3,0
			c-7,0-13.7-1.7-19.3-6.4c-2.9,8-10.6,13.7-19.7,13.7c-9.7,0-17.9-6.6-20.3-15.6c-6.2,3.6-13.6,5.4-20.9,5.4
			c-2.9,0-5.8-0.3-8.6-0.8c-0.4,0-0.9,0-1.3,0c-6.9,0-13.6-1.7-19.1-6.3c-3.6,6.5-10.4,10.8-18.3,10.8c-5.2,0-10-1.9-13.6-5.1
			c-5.2,10.6-17,16.2-28.7,16.2c-2.4,0-4.9-0.2-7.3-0.7c-0.3,0-0.7,0-1,0c-10.1,0-19.7-4.1-24.6-18.2c-6.6-18.9,2.3-40.4,14.8-48.8
			c5.7-3.8,12.8-6.1,19.8-6.1c7.6,0,15.2,2.7,20.7,8.9c3.4,3.9,6,9.5,7.7,15.7c3.4-2.5,7.7-4,12.2-4c2,0,3.9,0.3,5.7,0.8
			c-0.5-18.2,8.6-35.8,20.1-43.8C132.8,112.7,141.2,110,149.6,110 M149.6,100c-10.3,0-20.7,3.2-29.2,9c-7.2,4.9-13.6,12.8-18,22
			c-2.9,6.2-4.9,12.7-5.9,19.4c-1,0.1-1.9,0.3-2.9,0.5c-1.7-3.5-3.7-6.5-5.9-9.1c-7-8-17.1-12.3-28.2-12.3c-8.9,0-17.9,2.8-25.4,7.7
			c0,0,0,0-0.1,0c-8,5.5-14.7,14.8-18.4,25.6c-3.9,11.6-4,24-0.2,34.8c5.5,16.1,17.6,24.9,34,24.9c0.1,0,0.1,0,0.2,0
			c2.7,0.5,5.4,0.7,8.1,0.7c12.7,0,24.1-4.8,31.7-13c3.4,1.2,7,1.9,10.7,1.9c7.7,0,15-2.9,20.6-7.8c5,2.2,10.7,3.3,16.9,3.3
			c0.2,0,0.3,0,0.5,0c3.1,0.6,6.3,0.8,9.4,0.8c5.6,0,11-0.8,16.2-2.5c5.7,7.8,14.9,12.7,25,12.7c8.9,0,17.2-3.9,23-10.2
			c4.8,1.9,10.1,2.9,16,2.9c0.2,0,0.3,0,0.5,0c3.1,0.6,6.3,0.8,9.4,0.8c9.4,0,18.5-2.4,26.1-6.8c5.7,5.9,13.7,9.5,22.3,9.5
			c7,0,13.7-2.4,19.1-6.6c5.7,2.1,12.1,3.1,19.2,3.1c0.3,0,0.6,0,0.9,0c3.6,0.6,7.4,0.8,11.1,0.8c24.2,0,44.6-11.2,52-28.6
			c8.9-20.9,3-51.3-12.9-66.4c-9.2-8.7-22.2-13.5-36.7-13.5c-11.7,0-23.5,3.1-33.3,8.6c-9.9,5.6-18,14.7-23.2,25.2
			c-2.4-7.8-6-14.6-10.4-19.6c-7.9-9.1-19.4-14.1-32.2-14.1c-10.3,0-20.7,3.2-29.2,9c-7.2,5-13.5,12.7-17.9,21.9
			c-2.4-8.1-6.1-15.3-10.7-20.5C173.9,105,162.4,100,149.6,100L149.6,100z"/>
	</g>
</g>
<g>
	<g>
		<ellipse class="st0" cx="172.3" cy="284" rx="39.1" ry="40.8"/>
		<g>
			<g>
				<ellipse class="st1" cx="172" cy="298.2" rx="5.4" ry="2.1"/>
				<path class="st1" d="M215,283.8v-18.4c0-1.3-0.1-2.4-0.3-3.5c0-0.2,0-0.3-0.1-0.5c0-0.2-0.1-0.3-0.1-0.5
					c-0.3-1.6-0.7-3.1-1.4-4.3c-4.7-11-18.1-21.5-33.4-24.5c-16.4-3.2-33.9,5.3-37.9,15.9c-7.8,2.3-13,7.2-13,17.5V284
					c-1.9,2.4-3,5.5-3,8.7c0,6.4,4.1,11.7,9.6,13.5c7,13.4,21,22,36.6,22c15.6,0,29.6-8.6,36.6-22c5.5-1.8,9.4-7.1,9.4-13.5
					C218,289.2,216.9,286.2,215,283.8z M204.6,298c-0.6,0-1.2-0.2-1.8-0.4c-4.4,12.6-16.5,21.8-30.8,21.8
					c-14.4,0-26.5-9.2-30.8-21.8c-0.6,0.3-1.2,0.5-1.9,0.5c-2.7,0-4.8-2.4-4.8-5.5s2.1-5.5,4.8-5.5c0.1,0,0.1,0,0.2,0
					c0-4.3,0.9-11,2.5-15.1c2,2.9,5.3,5.7,9.9,5.7l0,0c0.2,0,0.5,0,0.6,0c0.5,0,0.8-0.3,0.9-0.7c0-0.1,4-11,14.2-12.1
					c0.5,2.1,1.1,7.9-3.5,11.4c-0.4,0.3-0.5,0.6-0.4,1.1s0.5,0.7,0.8,0.8c0.1,0,2.2,0.4,5.4,0.4c5.4,0,15.2-1,21.6-7.4
					c1.1,1.1,3,3.7,2,8.5c-0.1,0.5,0.1,0.9,0.6,1.1c0.2,0.1,0.4,0.1,0.6,0.1c0.3,0,0.5-0.1,0.6-0.3c0.2-0.2,4.2-3.6,7-7.4
					c1.3,4.1,2,10.1,2.1,14l0,0c2.7,0,4.8,2.4,4.8,5.5C209.4,295.6,207.2,298,204.6,298z"/>
				<circle class="st1" cx="157.4" cy="285" r="4.8"/>
				<circle class="st1" cx="186.5" cy="285" r="4.8"/>
			</g>
		</g>
	</g>
	<g>
		<g>
			<path class="st2" d="M80.2,148.5c-10.7-12.1-28.8-10.8-40.5-2.9c-12.4,8.4-21.3,29.9-14.8,48.8c5,14.6,15.1,18.5,25.6,18.2
				c14.8,3,31.8-3.3,37.1-18.1C92.7,180.1,89,158.5,80.2,148.5z"/>
		</g>
		<g>
			<path class="st2" d="M73,219.3c-4.9-2.9-13.7-3.2-17.3,1.9c-1.8,2.7-1.4,6.2,0.7,8.5c2.2,2.5,5.7,3.2,8.8,3.2
				c5,0.2,14.4-1.7,13.5-8.6C78.4,221.1,75.9,219.7,73,219.3z"/>
		</g>
		<g>
			<path class="st2" d="M85.7,246.7c-0.8-3.5-3.7-4.6-6.7-4.5c-2.9-1.1-6.6-0.9-7.8,2.5c-1.6,4.6,2.6,8.2,6.9,8.4
				C81.9,253.3,86.7,251.5,85.7,246.7z"/>
		</g>
		<g>
			<path class="st2" d="M100.1,258.5c-0.6-2.4-2.5-3.2-4.5-3.1c-1.9-0.7-4.5-0.6-5.3,1.8c-1.1,3.2,1.8,5.6,4.7,5.8
				C97.5,263.1,100.8,261.8,100.1,258.5z"/>
		</g>
	</g>
	<g>
		<path class="st2" d="M174.3,120.7c-12.6-14.5-34.2-13-48.2-3.4c-14.8,10.1-25.3,35.9-17.5,58.5c6,17.4,18,22.2,30.4,21.8
			c17.5,3.5,37.8-4,44.1-21.7C189.2,158.7,184.9,132.8,174.3,120.7z"/>
	</g>
	<g>
		<path class="st2" d="M368.5,124.5c-15.3-14.5-41.3-13-58.2-3.4c-17.8,10.1-30.5,35.9-21.2,58.5c7.2,17.4,21.7,22.2,36.7,21.8
			c21.2,3.5,45.7-4,53.3-21.7C386.4,162.4,381.2,136.5,368.5,124.5z"/>
	</g>
	<g>
		<g>
			<path class="st0" d="M100.2,201.3c-11,0-20-9-20-20c0-11,9-20,20-20s20,9,20,20C120.2,192.3,111.2,201.3,100.2,201.3z"/>
			<path class="st3" d="M100.2,162.1c10.5,0,19.1,8.5,19.1,19.1c0,10.5-8.5,19.1-19.1,19.1S81,191.8,81,181.2
				C81,170.8,89.6,162.1,100.2,162.1 M100.2,160.3c-11.6,0-21,9.4-21,21s9.4,21,21,21s21-9.4,21-21
				C121.1,169.6,111.8,160.3,100.2,160.3L100.2,160.3z"/>
		</g>
		<g>
			<g>
				<path class="st1" d="M94.1,183.5c-0.4-0.4-0.6-0.8-0.6-1.4c0-0.6,0.2-1,0.6-1.4s0.9-0.6,1.7-0.6h7.9c0.7,0,1.3,0.2,1.7,0.6
					c0.4,0.4,0.6,0.8,0.6,1.4c0,0.6-0.2,1-0.6,1.4s-0.9,0.5-1.7,0.5h-7.9C95.1,183.9,94.5,183.7,94.1,183.5z"/>
			</g>
		</g>
	</g>
	<g class="st4">
		<path class="st0" d="M142.8,156.7c0.7,1,1.1,2.2,1.1,3.7c0,2-0.7,3.6-2.2,4.8c-1.5,1.2-3.5,1.8-6,1.8c-1.4,0-2.8-0.2-4.2-0.7
			c-1.3-0.4-2.5-1.1-3.4-1.9c-0.5-0.4-0.8-1-0.8-1.6c0-0.5,0.1-0.9,0.4-1.3c0.3-0.3,0.6-0.5,1-0.5c0.2,0,0.4,0,0.6,0.1
			c0.2,0.1,0.4,0.2,0.7,0.4c0.9,0.6,1.8,1.1,2.7,1.4c0.8,0.3,1.8,0.5,2.8,0.5c1.5,0,2.6-0.3,3.3-0.9c0.7-0.6,1.1-1.5,1.1-2.7
			c0-1.2-0.4-2.1-1.1-2.6c-0.7-0.6-1.9-0.9-3.5-0.9h-1.9c-0.5,0-0.9-0.2-1.2-0.5c-0.3-0.3-0.4-0.7-0.4-1.2c0-0.5,0.1-0.9,0.4-1.2
			c0.3-0.3,0.7-0.5,1.2-0.5h1.3c3.1,0,4.6-1.1,4.6-3.4c0-1.1-0.3-1.9-1-2.5c-0.6-0.6-1.5-0.9-2.7-0.9c-1.6,0-3.4,0.6-5.2,1.9
			c-0.3,0.2-0.6,0.3-0.7,0.4c-0.2,0.1-0.4,0.1-0.6,0.1c-0.4,0-0.7-0.2-1-0.5c-0.3-0.3-0.4-0.8-0.4-1.3c0-0.3,0.1-0.6,0.2-0.9
			c0.1-0.2,0.3-0.5,0.6-0.7c0.9-0.8,2.1-1.4,3.4-1.9c1.3-0.5,2.6-0.7,4-0.7c2.3,0,4.2,0.6,5.5,1.7c1.4,1.1,2.1,2.7,2.1,4.5
			c0,1.3-0.4,2.4-1,3.4c-0.7,1-1.6,1.7-2.8,2.1C141,155,142,155.7,142.8,156.7z"/>
		<path class="st0" d="M149.6,164c-1.5-2.1-2.2-5.1-2.2-9c0-3.9,0.7-6.9,2.2-9c1.5-2.1,3.6-3.1,6.4-3.1s4.9,1,6.4,3.1
			c1.5,2.1,2.2,5,2.2,9c0,3.9-0.7,6.9-2.2,9c-1.5,2.1-3.6,3.1-6.4,3.1S151.1,166,149.6,164z M159.3,161.6c0.7-1.4,1-3.6,1-6.6
			c0-3.1-0.3-5.3-1-6.6c-0.7-1.4-1.8-2.1-3.3-2.1c-1.5,0-2.6,0.7-3.3,2.1c-0.7,1.4-1,3.6-1,6.6c0,3,0.3,5.2,1,6.6
			c0.7,1.4,1.8,2.1,3.3,2.1C157.5,163.7,158.6,163,159.3,161.6z"/>
	</g>
	<g class="st4">
		<path class="st0" d="M53.7,178.2c-0.3-0.4-0.5-0.8-0.5-1.5c0-1.6,0.3-3,0.9-4.1c0.6-1.1,1.4-2.3,2.6-3.7c0.9-1.1,1.5-1.9,1.9-2.7
			c0.4-0.7,0.6-1.5,0.6-2.4c0-1-0.4-1.7-1.1-2.3c-0.7-0.6-1.7-0.9-2.9-0.9c-1.1,0-2.1,0.2-3.1,0.7c-1,0.5-2.1,1.1-3.4,2
			c-0.7,0.4-1.3,0.6-1.8,0.6c-0.5,0-0.9-0.2-1.3-0.7c-0.4-0.5-0.6-1-0.6-1.6c0-0.9,0.4-1.5,1.1-2.1c1.2-1.1,2.7-1.9,4.4-2.5
			c1.7-0.6,3.4-0.9,5.1-0.9c1.8,0,3.4,0.3,4.8,0.9c1.4,0.6,2.5,1.5,3.3,2.6c0.8,1.1,1.2,2.3,1.2,3.8c0,1.5-0.4,2.9-1.1,4
			c-0.7,1.1-1.8,2.4-3.2,3.8c-1.2,1.2-2.1,2.3-2.7,3.1c-0.6,0.8-1,1.8-1.1,2.9c-0.1,0.5-0.3,0.8-0.6,1.1c-0.3,0.3-0.7,0.4-1.2,0.4
			C54.5,178.7,54,178.5,53.7,178.2z M52.7,187c-0.6-0.6-0.9-1.4-0.9-2.4c0-0.9,0.3-1.7,0.9-2.4c0.6-0.6,1.4-1,2.3-1
			c0.9,0,1.7,0.3,2.3,1c0.6,0.6,0.9,1.4,0.9,2.4c0,0.9-0.3,1.7-1,2.4c-0.6,0.6-1.4,1-2.3,1C54.1,188,53.3,187.7,52.7,187z"/>
	</g>
	<g>
		<path class="st2" d="M264.3,124.5c-12.6-14.5-34.2-13-48.2-3.4c-14.8,10.1-25.3,35.9-17.5,58.5c6,17.4,18,22.2,30.4,21.8
			c17.5,3.5,37.8-4,44.1-21.7C279.2,162.4,274.9,136.5,264.3,124.5z"/>
	</g>
	<g class="st4">
		<path class="st0" d="M233.1,165.1c0,1.2-0.7,1.8-2,1.8h-12.7c-0.6,0-1-0.2-1.4-0.5c-0.3-0.3-0.5-0.8-0.5-1.3
			c0-0.7,0.3-1.3,0.8-1.8l7.6-8.2c0.9-1,1.6-2,2.1-2.8c0.4-0.9,0.7-1.7,0.7-2.6c0-1-0.3-1.8-0.9-2.4c-0.6-0.6-1.5-0.8-2.6-0.8
			c-0.9,0-1.8,0.2-2.7,0.5c-0.9,0.3-1.7,0.8-2.6,1.4c-0.2,0.2-0.4,0.3-0.7,0.4c-0.2,0.1-0.4,0.2-0.7,0.2c-0.4,0-0.7-0.2-1-0.5
			c-0.3-0.4-0.4-0.8-0.4-1.3c0-0.3,0.1-0.6,0.2-0.9c0.1-0.2,0.3-0.5,0.6-0.7c1-0.8,2.1-1.4,3.4-1.9s2.6-0.7,3.9-0.7
			c2.3,0,4.1,0.6,5.5,1.7c1.4,1.2,2.1,2.7,2.1,4.7c0,1.4-0.3,2.6-0.9,3.8c-0.6,1.2-1.6,2.5-2.9,4l-5.8,6.1h8.8
			C232.4,163.4,233.1,164,233.1,165.1z"/>
		<path class="st0" d="M238.2,164.1c-1.5-2.1-2.2-5.1-2.2-9c0-3.9,0.7-6.9,2.2-9c1.5-2.1,3.6-3.1,6.4-3.1s4.9,1,6.4,3.1
			c1.5,2.1,2.2,5,2.2,9c0,3.9-0.7,6.9-2.2,9c-1.5,2.1-3.6,3.1-6.4,3.1S239.7,166.2,238.2,164.1z M247.9,161.7c0.7-1.4,1-3.6,1-6.6
			c0-3.1-0.3-5.3-1-6.6c-0.7-1.4-1.8-2.1-3.3-2.1s-2.6,0.7-3.3,2.1c-0.7,1.4-1,3.6-1,6.6c0,3,0.3,5.2,1,6.6c0.7,1.4,1.8,2.1,3.3,2.1
			S247.2,163.1,247.9,161.7z"/>
	</g>
	<g class="st4">
		<path class="st0" d="M332.4,143.8c0.3,0.3,0.5,0.7,0.5,1.3c0,0.5-0.2,1-0.5,1.6L321.7,166c-0.4,0.8-1.1,1.1-1.8,1.1
			c-0.5,0-1-0.2-1.4-0.6c-0.4-0.4-0.6-0.8-0.6-1.4c0-0.4,0.1-0.8,0.3-1.1l9.6-17.3h-10.1c-1.3,0-2-0.6-2-1.7c0-1.2,0.7-1.8,2-1.8
			H331C331.6,143.4,332,143.5,332.4,143.8z"/>
		<path class="st0" d="M337.9,164.1c-1.5-2.1-2.2-5.1-2.2-9c0-3.9,0.7-6.9,2.2-9c1.5-2.1,3.6-3.1,6.4-3.1s4.9,1,6.4,3.1
			c1.5,2.1,2.2,5,2.2,9c0,3.9-0.7,6.9-2.2,9c-1.5,2.1-3.6,3.1-6.4,3.1S339.4,166.2,337.9,164.1z M347.6,161.7c0.7-1.4,1-3.6,1-6.6
			c0-3.1-0.3-5.3-1-6.6c-0.7-1.4-1.8-2.1-3.3-2.1s-2.6,0.7-3.3,2.1c-0.7,1.4-1,3.6-1,6.6c0,3,0.3,5.2,1,6.6c0.7,1.4,1.8,2.1,3.3,2.1
			S346.9,163.1,347.6,161.7z"/>
	</g>
	<g>
		<g>
			<path class="st0" d="M188.7,207.8c-11,0-20-9-20-20c0-11,9-20,20-20c11,0,20,9,20,20C208.7,198.8,199.7,207.8,188.7,207.8z"/>
			<path class="st3" d="M188.7,168.6c10.5,0,19.1,8.5,19.1,19.1c0,10.5-8.5,19.1-19.1,19.1s-19.1-8.5-19.1-19.1
				C169.6,177.3,178.1,168.6,188.7,168.6 M188.7,166.8c-11.6,0-21,9.4-21,21s9.4,21,21,21s21-9.4,21-21
				C209.6,176.1,200.3,166.8,188.7,166.8L188.7,166.8z"/>
		</g>
		<g>
			<g>
				<path class="st1" d="M197.1,186.6c0.3,0.3,0.5,0.7,0.5,1.2s-0.2,0.9-0.5,1.2c-0.3,0.3-0.7,0.5-1.2,0.5H190v5.9
					c0,0.5-0.2,0.9-0.5,1.2c-0.3,0.4-0.7,0.5-1.2,0.5s-0.9-0.2-1.2-0.5c-0.3-0.4-0.5-0.7-0.5-1.2v-5.9h-6c-0.5,0-0.9-0.2-1.2-0.5
					c-0.3-0.3-0.5-0.7-0.5-1.2s0.2-0.9,0.5-1.2c0.3-0.3,0.7-0.5,1.2-0.5h6v-6c0-0.5,0.2-0.9,0.5-1.2c0.3-0.3,0.7-0.5,1.2-0.5
					s0.9,0.2,1.2,0.5c0.3,0.3,0.5,0.7,0.5,1.2v6h6C196.5,186.2,196.8,186.3,197.1,186.6z"/>
			</g>
		</g>
	</g>
	<g>
		<g>
			<path class="st0" d="M285.9,204c-11,0-20-9-20-20c0-11,9-20,20-20c11,0,20,9,20,20C306,195,297,204,285.9,204z"/>
			<path class="st3" d="M285.9,164.8c10.5,0,19.1,8.5,19.1,19.1s-8.5,19.1-19.1,19.1c-10.5,0-19.1-8.5-19.1-19.1
				S275.4,164.8,285.9,164.8 M285.9,163c-11.6,0-21,9.4-21,21s9.4,21,21,21s21-9.4,21-21C306.9,172.3,297.5,163,285.9,163L285.9,163
				z"/>
		</g>
		<g>
			<g>
				<path class="st1" d="M276.9,181.3c-0.3-0.3-0.5-0.7-0.5-1.2s0.2-0.9,0.5-1.2c0.3-0.3,0.7-0.5,1.2-0.5h15.4
					c0.5,0,0.9,0.2,1.2,0.5c0.3,0.4,0.5,0.7,0.5,1.2s-0.2,0.8-0.5,1.2c-0.3,0.3-0.7,0.5-1.2,0.5h-15.4
					C277.6,181.9,277.2,181.7,276.9,181.3z M276.9,189c-0.3-0.3-0.5-0.7-0.5-1.2s0.2-0.9,0.5-1.2c0.3-0.3,0.7-0.5,1.2-0.5h15.4
					c0.5,0,0.9,0.2,1.2,0.5c0.3,0.4,0.5,0.7,0.5,1.2s-0.2,0.8-0.5,1.2c-0.3,0.3-0.7,0.5-1.2,0.5h-15.4
					C277.6,189.5,277.2,189.4,276.9,189z"/>
			</g>
		</g>
	</g>
</g>
</svg>
