<?xml version="1.0" encoding="utf-8"?>
<!-- Generator: Adobe Illustrator 22.1.0, SVG Export Plug-In . SVG Version: 6.00 Build 0)  -->
<svg version="1.1" id="Layer_1" xmlns="http://www.w3.org/2000/svg" xmlns:xlink="http://www.w3.org/1999/xlink" x="0px" y="0px"
	 viewBox="0 0 400 400" style="enable-background:new 0 0 400 400;" xml:space="preserve">
<style type="text/css">
	.st0{fill:#FFFFFF;}
	.st1{fill:#00CDC8;}
	.st2{fill:#F24044;}
	.st3{fill:#2C3E50;}
	.st4{fill:#C27037;}
	.st5{fill:#9B431C;}
	.st6{fill:#773A3A;}
	.st7{fill:#556080;}
	.st8{fill:#35495E;}
	.st9{fill:#8697CB;}
	.st10{fill:#E4C05C;}
	.st11{fill:#A5D73C;}
	.st12{fill:#F9C73D;}
	.st13{fill:#C78829;}
	.st14{fill:#DDB245;}
	.st15{fill:#AF8066;}
</style>
<g>
	<g>
		<path class="st0" d="M137.1,130.8c-16.4,0-30-11.5-33.1-27.1c-4.2,1.4-8.7,2.1-13.2,2.1c-23.7,0-42.9-19.2-42.9-42.9
			S67.2,20,90.8,20c15.8,0,30,8.6,37.5,22.1c4.9-3.9,9.9-6.1,14.1-6.1c2.5,0,4.8,0.8,6.5,2.4c2.7,2.5,3.5,6.4,2.4,11
			c1.7,0.6,3,2.2,3.2,4.1c0.6,4.8,6.4,8.5,13.2,8.5c0.2,0,0.5,0,0.7,0c6.1-0.2,11.4-3.3,12.9-7.6c0.7-2,2.6-3.3,4.7-3.3
			c0.1,0,0.2,0,0.3,0c0,0,13.1,0.7,13.2,0.7c13.9,1.2,25.5,10.8,29.4,23.9l38.5-1.5c0.1,0,0.1,0,0.2,0c2.7,0,4.9,2.1,5,4.8l0.4,10.7
			c0.1,1.3-0.4,2.6-1.3,3.6c-0.9,1-2.2,1.5-3.5,1.6l-38.8,1.5c-3.3,12.8-14,22.9-27.3,25.1l-13.3,2c-0.2,0-0.5,0.1-0.7,0.1
			c-1.8,0-3.6-1-4.4-2.7c-1.9-3.7-7-6.2-12.5-6.2c-0.2,0-0.5,0-0.7,0c-7.1,0.3-13,4.5-13.3,9.5c-0.1,2.4-1.9,4.3-4.3,4.7l-10.4,1.5
			C140.8,130.6,139,130.8,137.1,130.8z"/>
		<path class="st0" d="M90.8,25c16.6,0,30.7,10.7,35.8,25.5c0.1-0.1,0.1-0.2,0.2-0.2c5.4-5.8,11.5-9.3,15.5-9.3c1.2,0,2.3,0.3,3.1,1
			c2.2,2,1.5,6.6-1.4,11.7c0,0,0,0,0,0l5.4,0.3c0.8,7.4,8.7,13,18.2,13c0.3,0,0.6,0,0.9,0c8.4-0.3,15.3-4.9,17.5-10.9l13,0.7
			c13.3,1.1,23.8,11.2,25.9,24l42.6-1.6l0.4,10.7l-71.9,2.7l0,0l29.1-1.1c-1.5,12.5-11.1,22.9-23.9,25l-13.3,2
			c-2.7-5.2-9.3-8.8-16.9-8.8c-0.3,0-0.6,0-0.9,0c-9.9,0.4-17.7,6.6-18.1,14.2l-10.4,1.5c-1.6,0.3-3.2,0.4-4.7,0.4
			c-15.2,0-28.1-12-28.7-27.7l-0.1-1.6c-5.2,2.7-11.2,4.3-17.5,4.3c-20.9,0-37.9-17-37.9-37.9C52.9,41.9,69.9,25,90.8,25
			 M141.7,57.4c0,0.1-0.1,0.1-0.1,0.2C141.6,57.6,141.6,57.5,141.7,57.4c0.1-0.1,0.1-0.2,0.2-0.2C141.8,57.3,141.7,57.4,141.7,57.4
			 M140.3,59.2c-0.1,0.1-0.1,0.1-0.2,0.2C140.2,59.4,140.2,59.3,140.3,59.2c0.1-0.1,0.1-0.2,0.2-0.3
			C140.4,59.1,140.3,59.1,140.3,59.2 M138.6,61.1C138.6,61.1,138.6,61.1,138.6,61.1C138.6,61.1,138.6,61.1,138.6,61.1
			C138.6,61.1,138.6,61.1,138.6,61.1C138.6,61.1,138.6,61.1,138.6,61.1C138.6,61.1,138.6,61.1,138.6,61.1 M90.8,15
			c-26.4,0-47.9,21.5-47.9,47.9c0,26.4,21.5,47.9,47.9,47.9c3.3,0,6.5-0.3,9.7-1c2,5.7,5.4,11,9.9,15.3c7.3,6.9,16.8,10.7,26.7,10.7
			c2.1,0,4.2-0.2,6.3-0.5l10.3-1.5c4.7-0.7,8.3-4.6,8.5-9.4c0.1-1.5,3.1-4.5,8.5-4.7c0.2,0,0.4,0,0.5,0c4.1,0,7.2,1.8,8.1,3.5
			c1.7,3.3,5.2,5.4,8.9,5.4c0.5,0,1,0,1.5-0.1l13.3-2c0,0,0.1,0,0.1,0c14-2.3,25.5-12.2,30.2-25.1l35.2-1.3c2.7-0.1,5.2-1.3,7-3.2
			c1.8-1.9,2.8-4.5,2.7-7.2l-0.4-10.7c-0.2-5.4-4.6-9.6-10-9.6c-0.1,0-0.3,0-0.4,0l-34.9,1.3C227,57.4,214.7,48.1,200,46.8
			c-0.1,0-0.2,0-0.3,0l-13-0.7c-0.2,0-0.4,0-0.6,0c-4.2,0-8,2.6-9.4,6.6c-0.6,1.7-3.6,4.1-8.4,4.3c-0.2,0-0.4,0-0.5,0
			c-4.8,0-8.1-2.4-8.3-4.1c-0.3-2.3-1.3-4.3-2.8-5.8c0.4-5-1.1-9.3-4.4-12.4c-2.6-2.4-6-3.7-9.9-3.7c-3.9,0-8.3,1.4-12.6,4.1
			C120.9,22.6,106.5,15,90.8,15L90.8,15z"/>
	</g>
	<g>
		<path class="st0" d="M271.5,110.8c-2.7,0-4.9-2.1-5-4.8l-0.2-4.6c-1.8-1.3-3-3.4-3.1-5.8l-0.8-21.7c-0.1-2,0.6-3.9,2-5.4
			c0.2-0.2,0.4-0.4,0.6-0.6l-0.2-4.6c-0.1-1.3,0.4-2.6,1.3-3.6c0.9-1,2.2-1.5,3.5-1.6l5.3-0.2c0.1,0,0.1,0,0.2,0
			c0.9,0,1.8,0.2,2.5,0.7c0.8-0.5,1.7-0.8,2.6-0.9l5.3-0.2c0.1,0,0.1,0,0.2,0c1.3,0,2.5,0.5,3.4,1.3c1,0.9,1.5,2.2,1.6,3.5l0.3,6.9
			c3.5,2.8,5.6,7,5.8,11.5l0.2,5.5c0.2,4.5-1.7,8.9-4.9,11.9l0.3,6.9c0.1,2.8-2,5.1-4.8,5.2l-5.3,0.2c-0.1,0-0.1,0-0.2,0
			c-0.9,0-1.8-0.2-2.5-0.7c-0.8,0.5-1.7,0.8-2.6,0.9l-5.3,0.2C271.7,110.8,271.6,110.8,271.5,110.8z"/>
		<path class="st0" d="M285.9,62.5l0.4,9.4c3.3,1.7,5.5,5,5.7,9l0.2,5.5c0.1,3.9-1.9,7.4-5,9.4l0.4,9.4l-5.3,0.2l-0.3-8l-5.3,0.2
			l0.3,8l-5.3,0.2l-0.3-8l-0.3,0c0,0-0.1,0-0.1,0c-1.3,0-2.4-1.1-2.5-2.4l-0.8-21.7c-0.1-1.4,1-2.5,2.4-2.6l0.3,0l-0.3-8l5.3-0.2
			l0.3,8l5.3-0.2l-0.3-8L285.9,62.5 M285.9,52.5c-0.1,0-0.3,0-0.4,0l-5.3,0.2c-0.9,0-1.8,0.2-2.6,0.5c-0.8-0.2-1.5-0.3-2.3-0.3
			c-0.1,0-0.3,0-0.4,0l-5.3,0.2c-5.5,0.2-9.8,4.9-9.6,10.4L260,66c-1.7,2.3-2.6,5.1-2.5,8l0.8,21.7c0.1,3,1.3,5.7,3.1,7.8l0.1,2.6
			c0.2,5.4,4.6,9.6,10,9.6c0.1,0,0.3,0,0.4,0l5.3-0.2c0.9,0,1.8-0.2,2.7-0.5c0.7,0.2,1.5,0.3,2.3,0.3c0.1,0,0.3,0,0.4,0l5.3-0.2
			c5.5-0.2,9.8-4.9,9.6-10.4l-0.2-4.8c3.2-3.9,5-8.8,4.8-14l-0.2-5.5c-0.2-5.2-2.3-10-5.9-13.6l-0.2-4.8c-0.1-2.7-1.3-5.2-3.2-7
			C290.9,53.4,288.5,52.5,285.9,52.5L285.9,52.5z"/>
	</g>
	<g>
		<path class="st0" d="M292.5,360.7c-0.5,0-1-0.1-1.5-0.2l-13.2-4.1c-1.3-0.4-2.3-1.3-2.9-2.5c-0.6-1.2-0.7-2.5-0.3-3.8l5.2-16.8
			c0.7-2.1,2.6-3.5,4.8-3.5c0.5,0,1,0.1,1.5,0.2l13.2,4.1c1.3,0.4,2.3,1.3,2.9,2.5c0.6,1.2,0.7,2.5,0.3,3.8l-5.2,16.8
			C296.6,359.3,294.6,360.7,292.5,360.7z"/>
		<path class="st0" d="M284.5,334.8l13.2,4.1l-5.2,16.8l-13.2-4.1L284.5,334.8 M284.5,324.8c-4.3,0-8.2,2.7-9.5,7l-5.2,16.8
			c-0.8,2.5-0.5,5.3,0.7,7.6s3.3,4.1,5.9,4.9l13.2,4.1c1,0.3,2,0.5,3,0.5c4.3,0,8.2-2.7,9.5-7l5.2-16.8c0.8-2.5,0.5-5.3-0.7-7.6
			c-1.2-2.3-3.3-4.1-5.9-4.9l-13.2-4.1C286.5,325,285.5,324.8,284.5,324.8L284.5,324.8z"/>
	</g>
	<g>
		<path class="st0" d="M299.9,344.6c-0.5,0-1-0.1-1.5-0.2l-17.6-5.5c-2.6-0.8-4.1-3.6-3.3-6.3L283,315c0.5-1.7,1.9-2.9,3.5-3.3
			l0.3-0.9c-1.6-0.6-3-1.8-3.8-3.4c-0.9-1.7-1.1-3.7-0.5-5.6c0.6-1.8,1.7-3.2,3.2-4.1c-0.7-1.6-0.9-3.4-0.3-5.2c1-3.1,3.8-5.1,7-5.1
			c0.6,0,1.1,0.1,1.7,0.2l2.9-9.4l-2.6-0.8c-3.8-1.2-6-5.3-4.8-9.1l10.2-32.8c-0.7,0-1.4,0-2,0c-23.7,0-42.9-19.2-42.9-42.9
			s19.2-42.9,42.9-42.9c19.6,0,36.6,13.3,41.5,32l3.5,1.1c4.5,1.4,7.1,6.3,5.7,10.8l-0.2,0.5c5,2.6,7.6,8.5,5.9,14.1
			c-1,3-3,5.5-5.8,7c-1.7,0.9-3.6,1.4-5.5,1.4c0,0,0,0,0,0c-0.4,0-0.8,0-1.1-0.1l1.8,3.4c0.6,1.2,0.7,2.5,0.3,3.8l-1,3.1
			c-0.4,1.3-1.3,2.3-2.5,2.9l-3.7,2l2,3.7c0.6,1.2,0.7,2.5,0.3,3.8l-1,3.1c-0.4,1.3-1.3,2.3-2.5,2.9l-3.7,2l2,3.7
			c0.6,1.2,0.7,2.5,0.3,3.8l-1,3.1c-0.4,1.3-1.3,2.3-2.5,2.9l-3.7,2l2,3.7c0.6,1.2,0.7,2.5,0.3,3.8l-1,3.1c-0.4,1.3-1.3,2.3-2.4,2.9
			l-3.7,2l2,3.7c0.6,1.2,0.7,2.5,0.3,3.8l-1,3.1c-0.4,1.3-1.3,2.3-2.5,2.9l-3.8,2l-0.2,0.8c3.5,1.4,5.5,5.3,4.3,9
			c-0.5,1.7-1.7,3.2-3.2,4.1c0.8,1.6,0.9,3.5,0.3,5.2c-0.6,1.9-1.9,3.4-3.6,4.3c-1,0.5-2.2,0.8-3.4,0.8c-0.6,0-1.1-0.1-1.7-0.2
			l-0.3,0.9c1.1,1.3,1.5,3,0.9,4.7l-5.5,17.6C304,343.2,302,344.6,299.9,344.6z"/>
		<path class="st0" d="M297.7,154.6c18.5,0,33.9,13.3,37.2,30.9l6.2,1.9c1.9,0.6,3,2.6,2.4,4.5l-1.6,5.1l2.7,0.9
			c3.6,1.1,5.7,5,4.5,8.7c-0.6,1.8-1.8,3.2-3.4,4.1c-1,0.5-2.1,0.8-3.2,0.8c-0.7,0-1.4-0.1-2-0.3l-2.7-0.9l-2.3,7.4l-1.9-0.6l3.1,1
			l2.1,4.1l-1,3.1l-4.1,2.1l-1.2-0.4l-1.9,6.2l1.2,0.4l2.1,4.1l-1,3.1l-4.1,2.1l-1.2-0.4l-1.9,6.2l-1.9-0.6l3.1,1l2.1,4.1l-1,3.1
			l-4.1,2.1l-3.1-1l1.9,0.6l-1.9,6.2l-1.9-0.6l3.1,1l2.1,4.1l-1,3.1l-4.1,2.1l-1.2-0.4l-1.9,6.2l-1.9-0.6l3.1,1l2.1,4.1l-1,3.1
			l-4.1,2.1l-3.1-1l1.9,0.6l-2.7,8.7l4.3,1.3c1.2,0.4,1.9,1.7,1.5,2.9c-0.2,0.6-0.6,1.1-1.1,1.4c-0.3,0.2-0.7,0.3-1.1,0.3
			c-0.2,0-0.5,0-0.7-0.1l-4.3-1.3l-1.5,4.9l4.3,1.3c1.2,0.4,1.9,1.7,1.5,2.9c-0.2,0.6-0.6,1.1-1.1,1.4c-0.3,0.2-0.7,0.3-1.1,0.3
			c-0.2,0-0.5,0-0.7-0.1l-4.3-1.3l-3,9.7l2.2,0.7l-5.5,17.6l-17.6-5.5l5.5-17.6l2.2,0.7l3-9.7l-4.3-1.3c-1.2-0.4-1.9-1.7-1.5-2.9
			c0.3-1,1.2-1.6,2.2-1.6c0.2,0,0.5,0,0.7,0.1l4.3,1.3l1.5-4.9l-4.3-1.3c-1.2-0.4-1.9-1.7-1.5-2.9c0.3-1,1.2-1.6,2.2-1.6
			c0.2,0,0.5,0,0.7,0.1l4.3,1.3l5.9-18.9l-7.4-2.3c-1.2-0.4-1.9-1.7-1.5-2.9l12.6-40.4c-2.9,0.7-6,1.1-9.2,1.1
			c-20.9,0-37.9-17-37.9-37.9C259.8,171.6,276.8,154.6,297.7,154.6 M342.6,206.9c1,0,1.9-0.6,2.2-1.6c0.4-1.2-0.3-2.5-1.5-2.9
			l-2.7-0.9l-1.4,4.4l2.7,0.9C342.1,206.8,342.4,206.9,342.6,206.9 M319.1,223.8L319.1,223.8C319.1,223.8,319.1,223.8,319.1,223.8
			L319.1,223.8 M304.6,270.5l13.2-42.2l-4.1-1.3c-0.4,0.2-0.9,0.4-1.4,0.6l-12.9,41.3L304.6,270.5 M297.7,144.6
			c-26.4,0-47.9,21.5-47.9,47.9c0,24.8,19,45.3,43.2,47.7l-8.3,26.5c-1.8,5.7,0.9,11.8,6,14.5l-0.4,1.3c-4.6,0.7-8.4,4-9.8,8.5
			c-0.5,1.7-0.7,3.3-0.5,5c-1.1,1.2-1.9,2.7-2.4,4.4c-1,3.1-0.7,6.5,0.8,9.4c0.3,0.5,0.5,1,0.9,1.4c-0.5,0.7-0.9,1.6-1.1,2.4
			l-5.5,17.6c-0.8,2.5-0.5,5.3,0.7,7.6c1.2,2.3,3.3,4.1,5.9,4.9l17.6,5.5c1,0.3,2,0.5,3,0.5c4.3,0,8.2-2.7,9.5-7l5.5-17.6
			c0.3-0.9,0.4-1.8,0.4-2.7c0.5-0.2,1-0.4,1.5-0.7c2.9-1.5,5.1-4.1,6-7.2c0.5-1.6,0.7-3.3,0.5-5c1.1-1.3,1.9-2.7,2.4-4.4
			c1-3.1,0.7-6.5-0.8-9.4c-0.1-0.2-0.2-0.3-0.3-0.5c1.5-1.2,2.7-2.9,3.3-4.8l1-3.1c0.7-2.3,0.6-4.8-0.4-6.9c2-1.3,3.5-3.2,4.2-5.5
			l1-3.1c0.7-2.3,0.6-4.8-0.4-6.9c2-1.3,3.5-3.2,4.2-5.5l1-3.1c0.7-2.3,0.6-4.8-0.4-6.9c2-1.3,3.5-3.2,4.2-5.5l1-3.1
			c0.7-2.3,0.6-4.8-0.4-6.9c2-1.3,3.5-3.2,4.2-5.5l1-3.1c0.5-1.6,0.6-3.2,0.3-4.8c0.6-0.2,1.2-0.5,1.8-0.8c4-2.1,6.9-5.6,8.3-9.9
			c2.1-6.6-0.2-13.6-5.1-17.8c0.2-2.5-0.4-4.9-1.5-7.2c-1.7-3.2-4.5-5.6-8-6.7l-0.9-0.3C336.9,158.2,318.6,144.6,297.7,144.6
			L297.7,144.6z"/>
	</g>
	<g>
		<path class="st0" d="M222.5,308.2c-1.3,0-2.6-0.5-3.5-1.5c-2-2-2-5.1,0-7.1c0.3-0.3,0.5-0.6,0.7-1.1c0.8-2,2.7-3.2,4.7-3.2
			c0.6,0,1.2,0.1,1.8,0.3c2.6,1,3.9,3.9,2.9,6.4c-0.7,1.8-1.7,3.3-3,4.6C225.1,307.7,223.8,308.2,222.5,308.2z"/>
		<path class="st0" d="M224.3,300.3L224.3,300.3 M224.3,300.3c-0.4,1.1-1,2.1-1.8,2.9C223.3,302.4,223.9,301.4,224.3,300.3
			 M224.3,290.3c-0.6,0-1.1,0-1.7,0.1c-1.5,0.2-2.8,0.8-4,1.6c-1.2,0.8-2.2,1.9-2.9,3.2c-0.2,0.4-0.4,0.8-0.6,1.2
			c-3.6,3.9-3.4,10,0.3,13.8c2,2,4.5,2.9,7.1,2.9c2.6,0,5.1-1,7.1-2.9c1.7-1.7,3-3.7,3.9-6c0.5-1.1,0.7-2.2,0.8-3.5
			c0-0.3,0-0.5,0-0.8c-0.1-2.8-1.3-5.3-3.3-7.1c0,0,0,0,0,0c0,0,0,0,0,0c0,0,0,0,0,0c0,0,0,0,0,0c0,0,0,0,0,0c0,0,0,0,0,0
			c0,0,0,0,0,0l0,0c0,0,0,0,0,0c0,0,0,0,0,0c0,0,0,0,0,0c0,0,0,0,0,0c0,0,0,0,0,0c0,0,0,0,0,0c0,0,0,0,0,0c-1.4-1.3-3.2-2.1-5.1-2.4
			C225.3,290.3,224.8,290.3,224.3,290.3L224.3,290.3z M224.3,310.3L224.3,310.3L224.3,310.3L224.3,310.3z"/>
	</g>
	<g>
		<path class="st0" d="M171.1,366.3c-17.2-0.3-32.7-10.2-40.9-25.4c-8,9.5-19.9,15.1-32.7,15.1c-23.7,0-42.9-19.2-42.9-42.9
			s19.2-42.9,42.9-42.9c5.8,0,11.5,1.2,16.8,3.4c0.8-3.8,4.1-6.6,8.1-6.6h1.6v-16.5h-1.6c-4.6,0-8.3-3.7-8.3-8.3
			c0-2.7,1.3-5.1,3.3-6.6c-2-1.5-3.3-3.9-3.3-6.6c0-4.6,3.7-8.3,8.3-8.3h1.6v-18.2c0-0.5,0-0.9-0.1-1.4c-0.6-5.3-5.3-8-9.6-8
			c-2.1,0-4.1,0.6-5.8,1.9l-9.5,6.7c-5.3,3.8-11.6,5.8-18.1,5.8h-0.2c-0.7,1.9-2.5,3.3-4.7,3.3h-9.9c-2.2,0-4-1.4-4.7-3.3H36.4
			c-2.8,0-5-2.2-5-5v-9.9c0-1.8,0.9-3.4,2.4-4.3l16.5-9.9c0.8-0.5,1.7-0.7,2.6-0.7h8.5c0.7-1.9,2.5-3.3,4.7-3.3h9.9
			c2.2,0,4,1.4,4.7,3.3c4.6-0.2,9.1-1.9,12.6-4.9c6.4-5.4,14.6-8.3,23-8.3c9.9,0,19.3,4.2,25.9,11.4c6.4,7,10.3,15.9,11.3,25.2
			c0.8,0.2,1.5,0.7,2.1,1.3l3.3,3.3c0.9,0.9,1.5,2.2,1.5,3.5v6.6c0,1.3-0.5,2.6-1.5,3.5l-3.3,3.3c-0.5,0.5-1.2,0.9-1.8,1.2v0.5
			c0.7,0.2,1.3,0.6,1.8,1.2l3.3,3.3c0.9,0.9,1.5,2.2,1.5,3.5v6.6c0,1.3-0.5,2.6-1.5,3.5l-3.3,3.3c-0.5,0.5-1.2,0.9-1.8,1.2v0.5
			c0.7,0.2,1.3,0.6,1.8,1.2l3.3,3.3c0.9,0.9,1.5,2.2,1.5,3.5v6.6c0,1.3-0.5,2.6-1.5,3.5l-3.3,3.3c-0.5,0.5-1.2,0.9-1.8,1.2v0.5
			c0.7,0.2,1.3,0.6,1.8,1.2l3.3,3.3c0.9,0.9,1.5,2.2,1.5,3.5v6.6c0,1.3-0.5,2.6-1.5,3.5l-3.3,3.3c-0.5,0.5-1.2,0.9-1.8,1.2v0.5
			c0.7,0.2,1.3,0.6,1.8,1.2l3.3,3.3c0.9,0.9,1.5,2.2,1.5,3.5v0.5c2.4-2.9,5.9-4.9,9.9-5.4v-3.4c0-7.5-1.4-15.4-4.4-24.3
			c-3.2-8.7-2.5-16,2-20.5c2.6-2.6,6.3-4,10.6-4c9.7,0,22.5,6.9,33.6,17.9c16.6,16.6,22.5,35.5,13.9,44.1c-0.4,0.4-0.9,0.8-1.4,1.2
			c-0.1,0-0.1,0.1-0.2,0.1c-1.5,1-4.7,3.7-4.5,7.5c0.7,13.3-3.9,26-13.1,35.7c-9.2,9.7-21.5,15-34.9,15
			C172,366.3,171.4,366.3,171.1,366.3z M153.9,318.3c0,2.2,0.9,4.3,2.4,5.8c1.6,1.6,3.6,2.4,5.8,2.4c0.3,0,0.5,0,0.8,0
			c1.2-0.1,2.3-0.5,3.2-1.1c-4.7-2-8.2-6.4-8.9-11.7l-1.5,1.5c-0.5,0.5-1.2,0.9-1.8,1.2V318.3z"/>
		<path class="st0" d="M116.4,169.4c8.2,0,16.3,3.3,22.2,9.7c6.4,7,10.3,16.4,10.3,26.6h3.3l3.3,3.3v6.6l-3.3,3.3h-3.3v9.9h3.3
			l3.3,3.3v6.6l-3.3,3.3h-3.3v9.9h3.3l3.3,3.3v6.6l-3.3,3.3h-3.3v9.9h3.3l3.3,3.3v6.6l-3.3,3.3h-3.3v9.9h3.3l3.3,3.3v6.6l-3.3,3.3
			h-6.6l0,0h3.3v6.6c0,7.3,5.9,13.2,13.2,13.2c0.4,0,0.9,0,1.3-0.1c5.6-0.5,9.9-4.7,11.4-9.9H172c-5.5,0-9.9-4.5-9.9-9.9
			c0-5.5,4.5-9.9,9.9-9.9h3.3v-8.3c0-8.9-1.9-17.5-4.7-25.9c-2.4-6.6-2.3-12.2,0.8-15.3c1.7-1.7,4.1-2.5,7.1-2.5
			c8,0,19.7,6.1,30,16.4c14.1,14.1,20.3,30.7,13.9,37.1c-0.3,0.3-0.6,0.5-0.9,0.8c0,0,0,0-0.1,0c-4,2.8-6.8,7-6.5,11.8
			c1.4,24.8-18.4,45.4-42.9,45.4c-0.3,0-0.6,0-0.9,0c-18.9-0.4-34.6-13.5-40-30.8c-6.3,12.2-19,20.5-33.7,20.5
			c-20.9,0-37.9-17-37.9-37.9s17-37.9,37.9-37.9c9.9,0,18.9,3.8,25.7,10h5.9v-6.6h-6.6c-1.8,0-3.3-1.5-3.3-3.3
			c0-1.8,1.5-3.3,3.3-3.3h6.6v-26.5h-6.6c-1.8,0-3.3-1.5-3.3-3.3c0-1.8,1.5-3.3,3.3-3.3h6.6v-6.6h-6.6c-1.8,0-3.3-1.5-3.3-3.3
			c0-1.8,1.5-3.3,3.3-3.3h6.6v-23.2c0-0.7,0-1.3-0.1-1.9c-0.9-7.6-7.6-12.4-14.6-12.4c-3,0-6.1,0.9-8.7,2.8l-9.5,6.7
			c-4.4,3.2-9.7,4.9-15.2,4.9h-4.9v3.3h-9.9v-3.3H52.9H36.4v-9.9l16.5-9.9h13.2v-3.3h9.9v3.3h3.8c6.1,0,12-2.1,16.7-6.1
			C102.4,171.8,109.4,169.4,116.4,169.4 M129,292.1v-0.3h-0.2C128.9,291.9,129,292,129,292.1 M215.4,305.7c1,0,2-0.1,2.9-0.3
			C217.4,305.6,216.4,305.7,215.4,305.7c-2.9,0-6.2-0.8-9.7-2.2C209.2,304.9,212.6,305.7,215.4,305.7 M172,315h3.3v-6.6H172
			c-1.8,0-3.3,1.5-3.3,3.3C168.7,313.5,170.2,315,172,315 M116.4,159.4c-9.6,0-18.9,3.4-26.2,9.5c-2,1.7-4.4,2.8-7,3.4
			c-1.8-1.8-4.3-3-7.1-3h-9.9c-2.9,0-5.6,1.3-7.4,3.3h-5.8c-1.8,0-3.6,0.5-5.1,1.4L31.3,184c-3,1.8-4.9,5.1-4.9,8.6v9.9
			c0,5.5,4.5,10,10,10h16.5h5.8c1.8,2,4.5,3.3,7.4,3.3h9.9c3,0,5.7-1.3,7.5-3.4c6.6-0.5,12.9-2.7,18.3-6.6l9.5-6.7
			c0.9-0.6,1.9-0.9,2.9-0.9c1.7,0,4.3,1,4.6,3.6c0,0.3,0,0.5,0,0.8v13.6c-5.7,1.5-9.9,6.7-9.9,12.9c0,2.4,0.6,4.7,1.8,6.6
			c-1.1,2-1.8,4.2-1.8,6.6c0,6.2,4.2,11.4,9.9,12.9v7.3c-3,0.8-5.5,2.6-7.3,5c-4.6-1.4-9.4-2.2-14.3-2.2
			c-26.4,0-47.9,21.5-47.9,47.9c0,26.4,21.5,47.9,47.9,47.9c12,0,23.2-4.4,31.8-12.1c9.6,13.5,24.9,22,41.7,22.4c0.3,0,0.7,0,1,0
			c14.5,0,28.5-6,38.5-16.6c10.1-10.7,15.2-24.7,14.4-39.4c0-0.9,0.9-2.1,2.3-3.1c0.1-0.1,0.3-0.2,0.4-0.3c0.7-0.5,1.4-1.1,1.9-1.7
			c3.5-3.5,8.5-11.5,3-26.2c-3.1-8.3-9.1-17.2-16.9-25c-12.1-12.1-26-19.4-37.1-19.4c-7.2,0-11.6,3-14.1,5.4
			c-0.7,0.7-1.5,1.7-2.3,2.8l-0.8-0.8l1.2-1.2c1.9-1.9,2.9-4.4,2.9-7.1v-6.6c0-2.7-1.1-5.2-2.9-7.1l-1.2-1.2l1.2-1.2
			c1.9-1.9,2.9-4.4,2.9-7.1v-6.6c0-2.7-1.1-5.2-2.9-7.1l-3.3-3.3c-0.3-0.3-0.7-0.6-1-0.9c-1.5-9.4-5.7-18.2-12.2-25.4
			C138.5,164.1,127.7,159.4,116.4,159.4L116.4,159.4z M161.4,293.4l1.2-1.2c1.2-1.2,2-2.6,2.5-4.2c0.2,1.6,0.2,3.3,0.3,4.9
			c-1.1,0.4-2.1,0.9-3.1,1.4L161.4,293.4L161.4,293.4z"/>
	</g>
</g>
<g>
	<g>
		<g>
			<circle class="st1" cx="90.8" cy="62.9" r="37.9"/>
		</g>
	</g>
	<g>
		<g>
			<circle class="st2" cx="297.7" cy="192.5" r="37.9"/>
		</g>
	</g>
	<g>
		<g>
			
				<rect x="270.1" y="63" transform="matrix(0.9993 -3.788285e-02 3.788285e-02 0.9993 -2.352 10.3811)" class="st3" width="5.3" height="8.6"/>
			<path class="st3" d="M280.6,62.7l0.3,8.4l0.1,0l0.1,2.3c0.6,0,1.2,0,1.9,0.2l3.3,0.7l-0.4-11.8L280.6,62.7z"/>
			<path class="st3" d="M287.1,93.4l-3.3,1c-0.7,0.2-1.3,0.3-1.9,0.3L282,97l-0.1,0l0.3,8.4l5.3-0.2L287.1,93.4z"/>
			
				<rect x="271.4" y="97.1" transform="matrix(0.9993 -3.809481e-02 3.809481e-02 0.9993 -3.6638 10.5138)" class="st3" width="5.3" height="8.6"/>
		</g>
		<path class="st4" d="M225.4,91.5l-29.1,1.1l-0.4-10.7l29.3-1.1c-2.1-12.8-12.7-22.9-25.9-24l-13-0.7c-2.1,6-9.1,10.6-17.5,10.9
			c-9.9,0.4-18.3-5.4-19.1-12.9l-5.4-0.3c-1.4,2.4-3.2,5-5.5,7.4c-7,7.6-15.3,11.3-18.6,8.3c-2.2-2-1.5-6.6,1.4-11.8
			c-8.4,5.3-14,14.8-13.6,25.6l0.6,14.8c0.7,17.3,16.4,30.1,33.5,27.3l10.4-1.5c0.4-7.6,8.2-13.8,18.1-14.2c8-0.3,15,3.4,17.9,8.8
			l13.3-2C214.2,114.4,223.8,104,225.4,91.5z"/>
		<path class="st5" d="M124.8,110.2c-3.5-3.3-5.6-7.8-5.8-12.6l-0.6-14.8c0-0.8,0-1.6,0.1-2.3c7.8,2.2,18.1-1.9,27.2-11.4
			c0.2,0.2,0.4,0.4,0.7,0.6c5.8,5.3,14,8.2,22.6,7.9c5.8-0.2,11.2-1.9,15.7-4.6l1.1,29.3c-4.8-2.4-10.3-3.6-16-3.3
			c-11.7,0.4-21.6,6.6-26,15.3l-3.7,0.5C134.5,115.8,129,114.1,124.8,110.2z"/>
		
			<rect x="196" y="80.6" transform="matrix(0.9993 -3.809481e-02 3.809481e-02 0.9993 -3.1042 8.8988)" class="st5" width="72" height="10.7"/>
		<path class="st6" d="M268.3,95.4l-0.8-21.7c-0.1-1.4,1-2.5,2.4-2.6l11.1-0.4c5.8-0.2,10.8,4.3,11,10.2l0.2,5.5
			c0.2,5.8-4.3,10.8-10.2,11l-11.1,0.4C269.5,97.8,268.4,96.8,268.3,95.4z"/>
		<path class="st3" d="M139.1,77.6c-1.5-1.4-2.5-3.4-2.6-5.6c-0.1-1.5,1.1-2.7,2.6-2.8c1.5-0.1,2.7,1.1,2.8,2.6
			c0.1,1.5,1.3,2.6,2.8,2.6l16-0.6c4.3-0.2,8.1,3.4,8.3,7.7c0.1,1.5-1.1,2.7-2.6,2.8c-1.5,0.1-2.7-1.1-2.8-2.6
			c-0.1-1.4-1.3-2.6-2.8-2.6l-16,0.6C142.7,79.8,140.6,78.9,139.1,77.6z"/>
		<path class="st3" d="M138.7,108.5c-0.5-0.5-0.8-1.1-0.9-1.9c-0.1-2.1,0.7-4.2,2.1-5.8c1.5-1.6,3.4-2.5,5.6-2.6l16-0.6
			c1.5-0.1,2.6-1.3,2.6-2.8c-0.1-1.5,1.1-2.7,2.6-2.8c1.5-0.1,2.7,1.1,2.8,2.6c0.2,4.4-3.3,8.1-7.7,8.3l-16,0.6
			c-0.7,0-1.4,0.3-1.9,0.9c-0.5,0.5-0.7,1.2-0.7,1.9c0.1,1.5-1.1,2.7-2.6,2.8C139.9,109.3,139.2,109,138.7,108.5z"/>
		<ellipse transform="matrix(0.6797 -0.7335 0.7335 0.6797 1.6913 115.2138)" class="st5" cx="132.8" cy="55.7" rx="18.7" ry="8"/>
	</g>
	
		<rect x="284.6" y="318.9" transform="matrix(0.2977 -0.9547 0.9547 0.2977 -106.8322 510.9231)" class="st7" width="18.4" height="18.4"/>
	<g>
		
			<rect x="279.7" y="338.3" transform="matrix(0.2977 -0.9547 0.9547 0.2977 -127.0009 517.8757)" class="st8" width="17.6" height="13.8"/>
		<path class="st8" d="M311.3,288.6l-2.1-4.1l1-3.1l4.1-2.1l1.9,0.6l1.9-6.2l-1.9-0.6L314,269l1-3.1l4.1-2.1l1.9,0.6l1.9-6.2
			l-1.9-0.6l-2.1-4.1l1-3.1l4.1-2.1l1.9,0.6l1.9-6.2l-1.9-0.6l-2.1-4.1l1-3.1l4.1-2.1l1.9,0.6l1.9-6.2l-1.9-0.6l-2.1-4.1l1-3.1
			l4.1-2.1l1.9,0.6l8-25.7c0.6-1.9-0.5-3.9-2.4-4.5l-6.3-2c-1.9-0.6-3.9,0.5-4.5,2.4L290,317.2l13.2,4.1l10-32.1L311.3,288.6z"/>
	</g>
	<path class="st7" d="M312.3,312.8c-0.5,0.3-1.1,0.3-1.8,0.2l-21.8-6.8c-1.2-0.4-1.9-1.7-1.5-2.9c0.4-1.2,1.7-1.9,2.9-1.5l21.8,6.8
		c1.2,0.4,1.9,1.7,1.5,2.9C313.2,312.1,312.8,312.5,312.3,312.8z"/>
	<path class="st7" d="M315.2,303.5c-0.5,0.3-1.1,0.3-1.8,0.2l-21.8-6.8c-1.2-0.4-1.9-1.7-1.5-2.9s1.7-1.9,2.9-1.5l21.8,6.8
		c1.2,0.4,1.9,1.7,1.5,2.9C316.1,302.7,315.7,303.2,315.2,303.5z"/>
	<path class="st7" d="M345.8,210.7c-1.6,0.8-3.4,1-5.3,0.5l-8.8-2.7c-1.2-0.4-1.9-1.7-1.5-2.9c0.4-1.2,1.7-1.9,2.9-1.5l8.8,2.7
		c1.2,0.4,2.5-0.3,2.9-1.5c0.4-1.2-0.3-2.5-1.5-2.9l-8.8-2.7c-1.2-0.4-1.9-1.7-1.5-2.9c0.4-1.2,1.7-1.9,2.9-1.5l8.8,2.7
		c3.6,1.1,5.7,5,4.5,8.7C348.6,208.4,347.4,209.8,345.8,210.7z"/>
	<path class="st9" d="M324.2,225.4l-12.4-3.9c-1.2-0.4-2.5,0.3-2.9,1.5l-14.5,46.6c-0.4,1.2,0.3,2.5,1.5,2.9l12.4,3.9
		c0.6,0.2,1.2,0.1,1.8-0.2s0.9-0.7,1.1-1.4c0.4-1.2-0.3-2.5-1.5-2.9l-10.2-3.2l13.2-42.2l10.2,3.2c0.6,0.2,1.2,0.1,1.8-0.2
		s0.9-0.7,1.1-1.4C326.1,227.1,325.4,225.8,324.2,225.4z"/>
	<polygon class="st10" points="337.9,225.2 338.8,222.1 336.7,218.1 333.6,217.1 329.5,219.2 328.5,222.3 330.7,226.4 333.8,227.4 	
		"/>
	<polygon class="st10" points="333,240.8 334,237.7 331.8,233.6 328.7,232.6 324.6,234.8 323.7,237.9 325.8,242 328.9,242.9 	"/>
	<polygon class="st10" points="328.2,256.3 329.1,253.2 327,249.2 323.9,248.2 319.8,250.3 318.8,253.4 321,257.5 324.1,258.5 	"/>
	<polygon class="st10" points="323.3,271.9 324.3,268.8 322.1,264.7 319,263.7 314.9,265.9 314,269 316.1,273.1 319.2,274 	"/>
	<polygon class="st10" points="318.5,287.4 319.4,284.3 317.3,280.3 314.2,279.3 310.1,281.4 309.1,284.5 311.3,288.6 314.4,289.6 	
		"/>
	<g>
		<g>
			<g>
				<circle class="st11" cx="97.5" cy="313.1" r="37.9"/>
			</g>
		</g>
		<g>
			<path class="st12" d="M222.5,303.2c0.8-0.8,1.4-1.8,1.8-2.9C223.9,301.4,223.3,302.4,222.5,303.2L222.5,303.2z"/>
			<path class="st12" d="M185.4,289.2c-7.5-7.5-12.7-15.7-15-22.6c0,0.1,0,0.1,0.1,0.2c3,8.6,4.9,17.5,4.9,26.6v24.3
				c0,6.9-5.1,13.1-11.9,13.7c-7.9,0.8-14.5-5.4-14.5-13.2v-6.6h-3.3l-3.3-3.3v-6.6l3.3-3.3h3.3v-9.9h-3.3l-3.3-3.3v-6.6l3.3-3.3
				h3.3v-9.9h-3.3l-3.3-3.3v-6.6l3.3-3.3h3.3v-9.9h-3.3l-3.3-3.3v-6.6l3.3-3.3h3.3V219h-3.3l-3.3-3.3v-6.6l3.3-3.3h3.3
				c0-10.3-3.9-19.6-10.3-26.6c-10.9-12-29.5-13-42-2.6c-4.7,3.9-10.6,6.1-16.7,6.1h-3.8v19.8H81c5.4,0,10.7-1.7,15.2-4.9l9.5-6.7
				c8.9-6.4,22.1-1.3,23.3,9.6c0.1,0.6,0.1,1.3,0.1,1.9v114.4c0,23.7,18.5,44,42.2,44.4c24.9,0.5,45.2-20.3,43.8-45.4
				c-0.3-4.8,2.6-9.1,6.5-11.8c0.4-0.2,0.7-0.5,1-0.8C216.1,309.6,199.5,303.3,185.4,289.2z"/>
		</g>
		<path class="st13" d="M185.3,321.6H172c-5.5,0-9.9-4.5-9.9-9.9c0-5.5,4.5-9.9,9.9-9.9h13.2c1.8,0,3.3,1.5,3.3,3.3
			c0,1.8-1.5,3.3-3.3,3.3H172c-1.8,0-3.3,1.5-3.3,3.3c0,1.8,1.5,3.3,3.3,3.3h13.2c1.8,0,3.3,1.5,3.3,3.3S187.1,321.6,185.3,321.6z"
			/>
		<path class="st13" d="M135.6,278.6h-13.2c-1.8,0-3.3-1.5-3.3-3.3c0-1.8,1.5-3.3,3.3-3.3h13.2c1.8,0,3.3,1.5,3.3,3.3
			C139,277.1,137.5,278.6,135.6,278.6z"/>
		<path class="st13" d="M135.6,291.8h-13.2c-1.8,0-3.3-1.5-3.3-3.3c0-1.8,1.5-3.3,3.3-3.3h13.2c1.8,0,3.3,1.5,3.3,3.3
			C139,290.3,137.5,291.8,135.6,291.8z"/>
		<path class="st13" d="M135.6,232.2h-13.2c-1.8,0-3.3-1.5-3.3-3.3s1.5-3.3,3.3-3.3h13.2c1.8,0,3.3,1.5,3.3,3.3
			S137.5,232.2,135.6,232.2z"/>
		<path class="st13" d="M135.6,245.5h-13.2c-1.8,0-3.3-1.5-3.3-3.3s1.5-3.3,3.3-3.3h13.2c1.8,0,3.3,1.5,3.3,3.3
			S137.5,245.5,135.6,245.5z"/>
		
			<ellipse transform="matrix(0.7071 -0.7071 0.7071 0.7071 -138.6428 220.6195)" class="st14" cx="197" cy="277.7" rx="16.4" ry="36.1"/>
		<rect x="66.2" y="179.3" class="st13" width="9.9" height="26.5"/>
		<rect x="52.9" y="182.6" class="st15" width="13.2" height="19.8"/>
		<polygon class="st12" points="52.9,202.5 36.4,202.5 36.4,192.6 52.9,182.6 		"/>
		<polygon class="st14" points="152.2,219 155.5,215.7 155.5,209.1 152.2,205.8 145.6,205.8 142.3,209.1 142.3,215.7 145.6,219 		
			"/>
		<polygon class="st14" points="152.2,242.2 155.5,238.9 155.5,232.2 152.2,228.9 145.6,228.9 142.3,232.2 142.3,238.9 145.6,242.2 
					"/>
		<polygon class="st14" points="152.2,265.3 155.5,262 155.5,255.4 152.2,252.1 145.6,252.1 142.3,255.4 142.3,262 145.6,265.3 		
			"/>
		<polygon class="st14" points="152.2,288.5 155.5,285.2 155.5,278.6 152.2,275.3 145.6,275.3 142.3,278.6 142.3,285.2 145.6,288.5 
					"/>
		<polygon class="st14" points="152.2,311.6 155.5,308.3 155.5,301.7 152.2,298.4 145.6,298.4 142.3,301.7 142.3,308.3 145.6,311.6 
					"/>
	</g>
	<g>
		<path class="st0" d="M86,72.4c0,1.3-0.7,1.9-2.1,1.9H70.4c-0.6,0-1.1-0.2-1.5-0.6c-0.4-0.4-0.5-0.8-0.5-1.4c0-0.7,0.3-1.4,0.8-1.9
			l8.1-8.7c1-1.1,1.7-2.1,2.2-3c0.5-0.9,0.7-1.8,0.7-2.7c0-1.1-0.3-2-1-2.6s-1.6-0.9-2.7-0.9c-1,0-1.9,0.2-2.8,0.6
			c-0.9,0.4-1.8,0.9-2.8,1.5c-0.2,0.2-0.5,0.3-0.7,0.4c-0.2,0.1-0.5,0.2-0.7,0.2c-0.4,0-0.8-0.2-1.1-0.6S68,53.7,68,53.2
			c0-0.4,0.1-0.7,0.2-0.9c0.1-0.3,0.3-0.5,0.6-0.7c1-0.8,2.3-1.5,3.7-2c1.4-0.5,2.8-0.7,4.2-0.7c2.4,0,4.4,0.6,5.9,1.9
			c1.5,1.2,2.2,2.9,2.2,5c0,1.4-0.3,2.8-0.9,4.1c-0.6,1.3-1.7,2.7-3.1,4.3l-6.2,6.6h9.4C85.3,70.5,86,71.2,86,72.4z"/>
		<path class="st0" d="M106.9,49.7c0.3,0.3,0.5,0.8,0.5,1.3s-0.2,1.1-0.5,1.7L95.6,73.3c-0.5,0.8-1.1,1.2-2,1.2
			c-0.6,0-1.1-0.2-1.5-0.6c-0.4-0.4-0.7-0.9-0.7-1.4c0-0.4,0.1-0.8,0.4-1.2L102,52.8H91.2c-1.4,0-2.1-0.6-2.1-1.8
			c0-1.3,0.7-1.9,2.1-1.9h14.2C106.1,49.1,106.6,49.3,106.9,49.7z"/>
	</g>
	<g>
		<path class="st0" d="M92.1,316.3c0.8,1.1,1.2,2.4,1.2,3.9c0,2.2-0.8,3.9-2.4,5.2c-1.6,1.3-3.7,1.9-6.4,1.9c-1.5,0-3-0.2-4.5-0.7
			c-1.4-0.5-2.6-1.1-3.6-2c-0.5-0.5-0.8-1-0.8-1.7c0-0.5,0.1-1,0.4-1.3c0.3-0.4,0.6-0.6,1.1-0.6c0.2,0,0.5,0,0.6,0.1
			s0.5,0.2,0.8,0.4c1,0.7,1.9,1.2,2.8,1.5c0.9,0.4,1.9,0.5,3,0.5c1.6,0,2.7-0.3,3.5-0.9s1.1-1.6,1.1-2.9c0-1.3-0.4-2.2-1.2-2.8
			c-0.8-0.6-2-0.9-3.7-0.9h-2c-0.5,0-1-0.2-1.3-0.6c-0.3-0.4-0.4-0.8-0.4-1.3c0-0.5,0.1-0.9,0.4-1.3s0.7-0.5,1.3-0.5h1.4
			c3.3,0,4.9-1.2,4.9-3.7c0-1.1-0.3-2-1-2.6s-1.6-0.9-2.8-0.9c-1.7,0-3.6,0.7-5.6,2.1c-0.3,0.2-0.6,0.3-0.8,0.4
			c-0.2,0.1-0.4,0.1-0.6,0.1c-0.4,0-0.8-0.2-1.1-0.6s-0.4-0.8-0.4-1.3c0-0.4,0.1-0.7,0.2-0.9c0.1-0.2,0.3-0.5,0.6-0.8
			c1-0.8,2.2-1.5,3.6-2s2.8-0.7,4.3-0.7c2.5,0,4.4,0.6,5.9,1.8s2.2,2.8,2.2,4.8c0,1.4-0.4,2.6-1.1,3.6s-1.7,1.8-2.9,2.3
			C90.1,314.6,91.3,315.3,92.1,316.3z"/>
		<path class="st0" d="M113.4,316.3c0.8,1.1,1.2,2.4,1.2,3.9c0,2.2-0.8,3.9-2.4,5.2c-1.6,1.3-3.7,1.9-6.4,1.9c-1.5,0-3-0.2-4.5-0.7
			c-1.4-0.5-2.6-1.1-3.6-2c-0.5-0.5-0.8-1-0.8-1.7c0-0.5,0.1-1,0.4-1.3c0.3-0.4,0.6-0.6,1.1-0.6c0.2,0,0.5,0,0.6,0.1
			s0.5,0.2,0.8,0.4c1,0.7,1.9,1.2,2.8,1.5c0.9,0.4,1.9,0.5,3,0.5c1.6,0,2.7-0.3,3.5-0.9s1.1-1.6,1.1-2.9c0-1.3-0.4-2.2-1.2-2.8
			c-0.8-0.6-2-0.9-3.7-0.9h-2c-0.5,0-1-0.2-1.3-0.6c-0.3-0.4-0.4-0.8-0.4-1.3c0-0.5,0.1-0.9,0.4-1.3s0.7-0.5,1.3-0.5h1.4
			c3.3,0,4.9-1.2,4.9-3.7c0-1.1-0.3-2-1-2.6s-1.6-0.9-2.8-0.9c-1.7,0-3.6,0.7-5.6,2.1c-0.3,0.2-0.6,0.3-0.8,0.4
			c-0.2,0.1-0.4,0.1-0.6,0.1c-0.4,0-0.8-0.2-1.1-0.6s-0.4-0.8-0.4-1.3c0-0.4,0.1-0.7,0.2-0.9c0.1-0.2,0.3-0.5,0.6-0.8
			c1-0.8,2.2-1.5,3.6-2s2.8-0.7,4.3-0.7c2.5,0,4.4,0.6,5.9,1.8s2.2,2.8,2.2,4.8c0,1.4-0.4,2.6-1.1,3.6s-1.7,1.8-2.9,2.3
			C111.5,314.6,112.6,315.3,113.4,316.3z"/>
	</g>
	<g>
		<path class="st0" d="M293,201.2c0,1.3-0.7,1.9-2.1,1.9h-12c-1.4,0-2.2-0.6-2.2-1.9c0-1.2,0.7-1.8,2.2-1.8h3.7v-16.2l-3.4,2.1
			c-0.3,0.2-0.6,0.3-0.9,0.3c-0.5,0-0.9-0.2-1.3-0.6c-0.3-0.4-0.5-0.9-0.5-1.4c0-0.7,0.3-1.2,0.9-1.6l5.5-3.4c0.7-0.4,1.4-0.6,2-0.6
			c0.7,0,1.2,0.2,1.6,0.6c0.4,0.4,0.6,1,0.6,1.7v19.3h3.7C292.3,199.4,293,200,293,201.2z"/>
		<path class="st0" d="M310.6,188c1.2,0.7,2.1,1.6,2.7,2.8c0.7,1.2,1,2.6,1,4.2c0,1.6-0.4,3.1-1.1,4.3c-0.7,1.3-1.7,2.3-3,3
			c-1.3,0.7-2.7,1.1-4.3,1.1c-3.2,0-5.6-1.1-7.4-3.2c-1.7-2.1-2.6-5.2-2.6-9.2c0-2.7,0.4-5.1,1.2-7.1c0.8-2,2-3.5,3.5-4.6
			s3.3-1.6,5.3-1.6c1.4,0,2.7,0.2,4.1,0.7c1.4,0.5,2.5,1.1,3.5,2c0.3,0.3,0.5,0.5,0.7,0.8c0.1,0.2,0.2,0.6,0.2,0.9
			c0,0.5-0.1,1-0.4,1.3s-0.6,0.6-1.1,0.6c-0.2,0-0.5,0-0.7-0.1c-0.2-0.1-0.5-0.2-0.8-0.4c-2-1.4-3.7-2.1-5.3-2.1
			c-1.7,0-3.1,0.8-4.1,2.4s-1.5,3.9-1.6,6.7c0.5-1.1,1.4-1.9,2.5-2.5s2.3-0.9,3.7-0.9C308.1,187,309.5,187.3,310.6,188z
			 M308.8,198.5c0.8-0.8,1.2-2,1.2-3.3c0-1.4-0.4-2.5-1.2-3.3c-0.8-0.8-1.8-1.2-3.1-1.2c-1.3,0-2.4,0.4-3.2,1.3
			c-0.8,0.8-1.2,1.9-1.2,3.3c0,1.4,0.4,2.5,1.2,3.3c0.8,0.8,1.9,1.3,3.2,1.3C307,199.8,308,199.4,308.8,198.5z"/>
	</g>
</g>
</svg>
