<?xml version="1.0" encoding="utf-8"?>
<!-- Generator: Adobe Illustrator 22.1.0, SVG Export Plug-In . SVG Version: 6.00 Build 0)  -->
<svg version="1.1" id="Layer_1" xmlns="http://www.w3.org/2000/svg" xmlns:xlink="http://www.w3.org/1999/xlink" x="0px" y="0px"
	 viewBox="0 0 400 400" style="enable-background:new 0 0 400 400;" xml:space="preserve">
<style type="text/css">
	.st0{fill:#F24044;}
	.st1{fill:#FFFFFF;}
	.st2{fill:#490A3D;}
	.st3{fill:none;stroke:#CCCCCC;stroke-width:2;stroke-linecap:round;stroke-linejoin:round;}
	.st4{fill:none;stroke:#CCCCCC;stroke-width:2;stroke-linecap:round;stroke-linejoin:round;stroke-dasharray:0,5.9371;}
	.st5{fill:none;stroke:#CCCCCC;stroke-width:2;stroke-linecap:round;stroke-linejoin:round;stroke-dasharray:0,5.8603;}
	.st6{fill:none;stroke:#CCCCCC;stroke-width:2;stroke-linecap:round;stroke-linejoin:round;stroke-dasharray:0,5.9093;}
	.st7{fill:none;stroke:#CCCCCC;stroke-width:2;stroke-linecap:round;stroke-linejoin:round;stroke-dasharray:0,5.986;}
	.st8{fill:#696A6D;}
	.st9{fill:#FBD490;}
	.st10{fill:#EEAF4B;}
	.st11{fill:#4C312C;}
	.st12{fill:#FFF5BB;}
	.st13{fill:#A46F3E;}
	.st14{fill:#CAE8F9;}
	.st15{fill:#B7E0F6;}
	.st16{fill:#BF6015;}
	.st17{fill:#FEC478;}
	.st18{fill:#FEB756;}
	.st19{fill:#994C10;}
	.st20{fill:#A4D9F5;}
	.st21{fill:#D2D5D7;}
	.st22{fill:#E6E6E6;}
</style>
<g>
	<g>
		<path class="st0" d="M334.9,171H59.1c-4.8,0-8.6-3.9-8.6-8.6V15.6c0-4.8,3.9-8.6,8.6-8.6h275.7c4.8,0,8.6,3.9,8.6,8.6v146.7
			C343.5,167.1,339.6,171,334.9,171z"/>
	</g>
	<path class="st1" d="M324.8,165.3c0-7.2,5.9-13.1,13.1-13.1V63c-7.2,0-13-5.8-13.1-12.9c-0.1-0.1-0.1-0.1-0.2-0.2H69.4
		c-0.1,0.1-0.1,0.1-0.2,0.2C69.1,57.2,63.3,63,56.1,63v89.3c7.2,0,13.1,5.9,13.1,13.1l0,0c0.1,0.1,0.1,0.1,0.2,0.2h255.2
		C324.6,165.5,324.7,165.4,324.8,165.3L324.8,165.3z"/>
</g>
<g>
	<path class="st1" d="M247.3,41.9H141c-7.4,0-13.4-6-13.4-13.4l0,0c0-7.4,6-13.4,13.4-13.4h106.3c7.4,0,13.4,6,13.4,13.4l0,0
		C260.7,35.9,254.7,41.9,247.3,41.9z"/>
	<g>
		<g>
			<path class="st2" d="M183.2,19.4c0.3,0.3,0.4,0.7,0.4,1.2v14.7c0,0.5-0.1,0.8-0.4,1.1c-0.3,0.3-0.6,0.4-1,0.4s-0.8-0.1-1-0.4
				c-0.2-0.3-0.4-0.6-0.4-1.1V25l-4.2,8c-0.2,0.4-0.4,0.6-0.6,0.8s-0.5,0.3-0.8,0.3s-0.6-0.1-0.8-0.2c-0.2-0.2-0.4-0.4-0.6-0.8
				l-4.2-7.9v10.1c0,0.4-0.1,0.8-0.4,1.1c-0.3,0.3-0.6,0.4-1,0.4s-0.8-0.1-1-0.4c-0.2-0.3-0.4-0.6-0.4-1.1V20.5
				c0-0.5,0.1-0.9,0.4-1.2c0.3-0.3,0.6-0.4,1.1-0.4c0.6,0,1.2,0.4,1.5,1.1l5.5,10.5l5.5-10.5c0.4-0.7,0.9-1.1,1.5-1.1
				C182.5,18.9,182.9,19.1,183.2,19.4z"/>
			<path class="st2" d="M197.4,33.6c0.2,0.2,0.3,0.5,0.3,0.9c0,0.5-0.3,0.9-0.9,1.3c-0.6,0.3-1.2,0.6-1.9,0.8s-1.4,0.3-2,0.3
				c-2,0-3.5-0.6-4.6-1.7c-1.1-1.1-1.7-2.7-1.7-4.6c0-1.2,0.2-2.3,0.7-3.3s1.2-1.7,2.1-2.2c0.9-0.5,1.9-0.8,3.1-0.8
				c1.1,0,2,0.2,2.9,0.7c0.8,0.5,1.4,1.2,1.9,2c0.4,0.9,0.7,1.9,0.7,3.1c0,0.7-0.3,1.1-0.9,1.1h-7.3c0.1,1.1,0.4,2,1,2.5
				c0.5,0.5,1.3,0.8,2.4,0.8c0.5,0,1-0.1,1.4-0.2c0.4-0.1,0.9-0.3,1.4-0.5c0.5-0.3,0.9-0.4,1.1-0.4C197,33.2,197.3,33.4,197.4,33.6z
				 M190.4,27.1c-0.5,0.5-0.8,1.3-0.9,2.3h5.6c0-1-0.3-1.8-0.7-2.3c-0.5-0.5-1.1-0.8-1.9-0.8C191.6,26.3,190.9,26.6,190.4,27.1z"/>
			<path class="st2" d="M210.6,25.4c0.7,0.8,1.1,2.1,1.1,3.7v6.1c0,0.5-0.1,0.8-0.4,1.1c-0.3,0.3-0.7,0.4-1.1,0.4
				c-0.5,0-0.9-0.1-1.1-0.4s-0.4-0.6-0.4-1.1v-5.9c0-0.9-0.2-1.6-0.5-2.1c-0.4-0.4-0.9-0.6-1.7-0.6c-0.9,0-1.6,0.3-2.1,0.8
				s-0.8,1.3-0.8,2.3v5.5c0,0.5-0.1,0.8-0.4,1.1c-0.3,0.3-0.7,0.4-1.1,0.4c-0.5,0-0.9-0.1-1.1-0.4c-0.3-0.3-0.4-0.6-0.4-1.1v-9.6
				c0-0.4,0.1-0.8,0.4-1c0.3-0.3,0.7-0.4,1.1-0.4c0.4,0,0.8,0.1,1.1,0.4s0.4,0.6,0.4,1v0.7c0.4-0.7,1-1.2,1.7-1.6s1.5-0.5,2.4-0.5
				C208.8,24.1,209.9,24.5,210.6,25.4z"/>
			<path class="st2" d="M225.6,24.6c0.3,0.3,0.4,0.6,0.4,1.1v9.6c0,0.4-0.1,0.8-0.4,1c-0.3,0.3-0.7,0.4-1.1,0.4
				c-0.4,0-0.8-0.1-1.1-0.4s-0.4-0.6-0.4-1v-0.6c-0.4,0.7-0.9,1.2-1.5,1.5c-0.6,0.4-1.4,0.5-2.2,0.5c-3,0-4.5-1.7-4.5-5v-6.1
				c0-0.4,0.1-0.8,0.4-1.1c0.3-0.3,0.7-0.4,1.1-0.4c0.5,0,0.9,0.1,1.1,0.4c0.3,0.3,0.4,0.6,0.4,1.1v6.1c0,0.9,0.2,1.5,0.5,1.9
				s0.9,0.6,1.6,0.6c0.9,0,1.6-0.3,2.1-0.9s0.8-1.3,0.8-2.3v-5.5c0-0.4,0.1-0.8,0.4-1.1s0.7-0.4,1.1-0.4
				C224.9,24.2,225.3,24.3,225.6,24.6z M220.5,23c-0.2,0-0.4-0.1-0.6-0.2s-0.2-0.3-0.2-0.6c0-0.2,0.1-0.4,0.2-0.5l2.4-3.2
				c0.4-0.5,0.8-0.7,1.3-0.7c0.4,0,0.7,0.1,0.9,0.4c0.3,0.3,0.4,0.6,0.4,0.9c0,0.5-0.2,0.9-0.7,1.2l-3.2,2.6
				C220.9,22.9,220.7,23,220.5,23z"/>
		</g>
	</g>
</g>
<circle class="st1" cx="60.1" cy="16.5" r="4.5"/>
<circle class="st1" cx="333.3" cy="16.5" r="4.5"/>
<g>
	<g>
		<g>
			<line class="st3" x1="190.2" y1="74" x2="190.2" y2="74"/>
			<line class="st4" x1="196.1" y1="74" x2="271.6" y2="74"/>
			<line class="st3" x1="274.5" y1="74" x2="274.5" y2="74"/>
		</g>
	</g>
	<g>
		<g>
			<line class="st3" x1="173.2" y1="98.3" x2="173.2" y2="98.3"/>
			<line class="st5" x1="179" y1="98.3" x2="271.6" y2="98.3"/>
			<line class="st3" x1="274.5" y1="98.3" x2="274.5" y2="98.3"/>
		</g>
	</g>
	<g>
		<g>
			<line class="st3" x1="146.3" y1="120.8" x2="146.3" y2="120.8"/>
			<line class="st6" x1="152.2" y1="120.8" x2="271.6" y2="120.8"/>
			<line class="st3" x1="274.5" y1="120.8" x2="274.5" y2="120.8"/>
		</g>
	</g>
	<g>
		<g>
			<line class="st3" x1="112.8" y1="143" x2="112.8" y2="143"/>
			<line class="st7" x1="118.8" y1="143" x2="271.5" y2="143"/>
			<line class="st3" x1="274.5" y1="143" x2="274.5" y2="143"/>
		</g>
	</g>
</g>
<polygon class="st2" points="109.8,18.9 112.2,23.8 117.6,24.6 113.7,28.4 114.6,33.7 109.8,31.2 105,33.7 105.9,28.4 102.1,24.6 
	107.4,23.8 "/>
<polygon class="st2" points="83.9,18.9 86.3,23.8 91.6,24.6 87.8,28.4 88.7,33.7 83.9,31.2 79.1,33.7 80,28.4 76.1,24.6 81.5,23.8 
	"/>
<polygon class="st2" points="304,18.9 306.4,23.8 311.7,24.6 307.8,28.4 308.8,33.7 304,31.2 299.2,33.7 300.1,28.4 296.2,24.6 
	301.6,23.8 "/>
<polygon class="st2" points="278,18.9 280.4,23.8 285.8,24.6 281.9,28.4 282.8,33.7 278,31.2 273.2,33.7 274.1,28.4 270.2,24.6 
	275.6,23.8 "/>
<g>
	<g>
		<path class="st8" d="M79,69.3c0.2,0.2,0.3,0.4,0.3,0.7v9.4c0,0.3-0.1,0.6-0.3,0.8s-0.4,0.3-0.7,0.3c-0.3,0-0.6-0.1-0.7-0.3
			c-0.2-0.2-0.3-0.4-0.3-0.8v-4h-5.8v4c0,0.3-0.1,0.6-0.3,0.8s-0.4,0.3-0.7,0.3c-0.3,0-0.5-0.1-0.7-0.3c-0.2-0.2-0.3-0.4-0.3-0.8
			v-9.4c0-0.3,0.1-0.6,0.3-0.7c0.2-0.2,0.4-0.3,0.7-0.3c0.3,0,0.6,0.1,0.7,0.3c0.2,0.2,0.3,0.4,0.3,0.7v3.8h5.8v-3.8
			c0-0.3,0.1-0.6,0.3-0.7c0.2-0.2,0.4-0.3,0.7-0.3C78.5,69,78.8,69.1,79,69.3z"/>
		<path class="st8" d="M88.1,78.5c0.1,0.1,0.2,0.3,0.2,0.6c0,0.3-0.2,0.6-0.6,0.8c-0.4,0.2-0.8,0.4-1.2,0.5
			c-0.5,0.1-0.9,0.2-1.3,0.2c-1.3,0-2.3-0.4-3-1.1c-0.7-0.7-1.1-1.7-1.1-3c0-0.8,0.2-1.5,0.5-2.1c0.3-0.6,0.8-1.1,1.4-1.4
			s1.2-0.5,2-0.5c0.7,0,1.3,0.2,1.8,0.5c0.5,0.3,0.9,0.7,1.2,1.3c0.3,0.6,0.4,1.2,0.4,2c0,0.5-0.2,0.7-0.6,0.7H83
			c0.1,0.7,0.3,1.3,0.6,1.6c0.4,0.3,0.9,0.5,1.5,0.5c0.3,0,0.6,0,0.9-0.1c0.3-0.1,0.6-0.2,0.9-0.4c0.3-0.2,0.6-0.3,0.7-0.3
			C87.9,78.3,88,78.3,88.1,78.5z M83.6,74.3c-0.3,0.3-0.5,0.8-0.6,1.5h3.6c0-0.7-0.2-1.1-0.5-1.5s-0.7-0.5-1.2-0.5
			C84.4,73.8,83.9,74,83.6,74.3z"/>
		<path class="st8" d="M90.3,80.2c-0.2-0.2-0.3-0.4-0.3-0.7V70c0-0.3,0.1-0.5,0.3-0.7c0.2-0.2,0.4-0.2,0.7-0.2
			c0.3,0,0.5,0.1,0.7,0.2c0.2,0.2,0.3,0.4,0.3,0.7v9.6c0,0.3-0.1,0.5-0.3,0.7c-0.2,0.2-0.4,0.2-0.7,0.2
			C90.7,80.5,90.5,80.4,90.3,80.2z"/>
		<path class="st8" d="M99.9,73.2c0.5,0.5,0.8,1.4,0.8,2.5v3.9c0,0.3-0.1,0.5-0.3,0.7c-0.2,0.2-0.4,0.2-0.7,0.2
			c-0.3,0-0.5-0.1-0.7-0.3c-0.2-0.2-0.3-0.4-0.3-0.7v-0.4c-0.2,0.4-0.5,0.7-0.9,1c-0.4,0.2-0.8,0.4-1.4,0.4c-0.5,0-1-0.1-1.4-0.3
			s-0.8-0.5-1-0.9c-0.2-0.4-0.4-0.8-0.4-1.2c0-0.6,0.1-1,0.4-1.4c0.3-0.3,0.8-0.6,1.4-0.7c0.7-0.1,1.6-0.2,2.7-0.2h0.4v-0.4
			c0-0.5-0.1-0.9-0.3-1.1c-0.2-0.2-0.6-0.4-1.1-0.4c-0.3,0-0.6,0-0.9,0.1s-0.7,0.2-1.1,0.4c-0.3,0.1-0.5,0.2-0.6,0.2
			c-0.2,0-0.3-0.1-0.5-0.2c-0.1-0.1-0.2-0.3-0.2-0.5c0-0.2,0-0.3,0.1-0.5c0.1-0.1,0.2-0.3,0.5-0.4c0.4-0.2,0.8-0.4,1.3-0.5
			c0.5-0.1,1-0.2,1.5-0.2C98.5,72.4,99.3,72.7,99.9,73.2z M98.3,78.5c0.3-0.4,0.5-0.8,0.5-1.4v-0.3h-0.3c-0.7,0-1.3,0-1.7,0.1
			s-0.7,0.2-0.8,0.3c-0.2,0.2-0.3,0.4-0.3,0.7c0,0.3,0.1,0.6,0.4,0.8c0.2,0.2,0.5,0.3,0.9,0.3C97.5,79.1,97.9,78.9,98.3,78.5z"/>
		<path class="st8" d="M110,69.3c0.2,0.2,0.3,0.4,0.3,0.7v9.6c0,0.3-0.1,0.5-0.3,0.7c-0.2,0.2-0.4,0.3-0.7,0.3
			c-0.3,0-0.5-0.1-0.7-0.3c-0.2-0.2-0.3-0.4-0.3-0.7v-0.4c-0.2,0.4-0.6,0.8-1,1c-0.4,0.2-0.9,0.4-1.5,0.4c-0.7,0-1.3-0.2-1.8-0.5
			c-0.5-0.3-0.9-0.8-1.2-1.4s-0.4-1.3-0.4-2.2s0.1-1.5,0.4-2.1c0.3-0.6,0.7-1.1,1.2-1.4c0.5-0.3,1.1-0.5,1.8-0.5
			c0.6,0,1.1,0.1,1.5,0.4c0.4,0.2,0.8,0.6,1,1v-3.8c0-0.3,0.1-0.5,0.3-0.6c0.2-0.2,0.4-0.2,0.7-0.2S109.8,69.1,110,69.3z
			 M107.7,78.3c0.3-0.4,0.5-1.1,0.5-1.9c0-0.8-0.2-1.4-0.5-1.9s-0.8-0.6-1.5-0.6c-0.6,0-1.1,0.2-1.5,0.6c-0.4,0.4-0.5,1-0.5,1.8
			c0,0.8,0.2,1.4,0.5,1.9c0.4,0.4,0.8,0.7,1.5,0.7C106.9,79,107.4,78.8,107.7,78.3z"/>
		<path class="st8" d="M113.8,80c-0.6-0.3-1.1-0.8-1.4-1.4s-0.5-1.3-0.5-2.2c0-0.8,0.2-1.5,0.5-2.2s0.8-1.1,1.4-1.4s1.3-0.5,2.1-0.5
			c0.8,0,1.5,0.2,2.1,0.5s1.1,0.8,1.4,1.4c0.3,0.6,0.5,1.3,0.5,2.2c0,0.8-0.2,1.5-0.5,2.2c-0.3,0.6-0.8,1.1-1.4,1.4
			c-0.6,0.3-1.3,0.5-2.1,0.5C115.1,80.5,114.4,80.4,113.8,80z M117.4,78.3c0.3-0.4,0.5-1.1,0.5-1.9c0-0.8-0.2-1.4-0.5-1.9
			c-0.3-0.4-0.8-0.6-1.5-0.6s-1.1,0.2-1.5,0.6s-0.5,1.1-0.5,1.9c0,0.8,0.2,1.5,0.5,1.9c0.3,0.4,0.8,0.6,1.5,0.6
			C116.5,79,117,78.8,117.4,78.3z"/>
		<path class="st8" d="M125.9,79.8c-0.3-0.2-0.5-0.5-0.5-0.9c0-0.2,0.1-0.4,0.2-0.5c0.1-0.1,0.3-0.2,0.4-0.2c0.2,0,0.4,0.1,0.8,0.3
			c0.3,0.2,0.7,0.3,0.9,0.4s0.6,0.1,1.1,0.1c0.4,0,0.8-0.1,1-0.2c0.3-0.1,0.4-0.4,0.4-0.6c0-0.2-0.1-0.3-0.2-0.4s-0.3-0.2-0.5-0.3
			c-0.3-0.1-0.7-0.2-1.2-0.3c-0.9-0.2-1.6-0.5-2-0.8s-0.6-0.8-0.6-1.5c0-0.5,0.1-0.9,0.4-1.3c0.3-0.4,0.7-0.7,1.1-0.9s1-0.3,1.7-0.3
			c0.4,0,0.9,0.1,1.3,0.2c0.4,0.1,0.8,0.3,1.1,0.5c0.3,0.2,0.5,0.5,0.5,0.8c0,0.2-0.1,0.4-0.2,0.5c-0.1,0.1-0.3,0.2-0.4,0.2
			c-0.1,0-0.2,0-0.3-0.1c-0.1,0-0.3-0.1-0.4-0.2c-0.3-0.2-0.6-0.3-0.8-0.4c-0.2-0.1-0.5-0.1-0.8-0.1c-0.4,0-0.7,0.1-0.9,0.2
			s-0.3,0.4-0.3,0.7c0,0.3,0.1,0.5,0.4,0.6c0.2,0.1,0.7,0.3,1.4,0.4c0.7,0.1,1.3,0.3,1.7,0.5c0.4,0.2,0.7,0.4,0.9,0.7
			c0.2,0.3,0.3,0.7,0.3,1.1c0,0.7-0.3,1.3-0.9,1.7s-1.4,0.7-2.4,0.7C127.5,80.5,126.6,80.3,125.9,79.8z"/>
		<path class="st8" d="M140.2,78.5c0.1,0.1,0.2,0.3,0.2,0.6c0,0.3-0.2,0.6-0.6,0.8c-0.4,0.2-0.8,0.4-1.2,0.5
			c-0.5,0.1-0.9,0.2-1.3,0.2c-1.3,0-2.3-0.4-3-1.1c-0.7-0.7-1.1-1.7-1.1-3c0-0.8,0.2-1.5,0.5-2.1c0.3-0.6,0.8-1.1,1.4-1.4
			s1.2-0.5,2-0.5c0.7,0,1.3,0.2,1.8,0.5c0.5,0.3,0.9,0.7,1.2,1.3c0.3,0.6,0.4,1.2,0.4,2c0,0.5-0.2,0.7-0.6,0.7h-4.7
			c0.1,0.7,0.3,1.3,0.6,1.6c0.4,0.3,0.9,0.5,1.5,0.5c0.3,0,0.6,0,0.9-0.1c0.3-0.1,0.6-0.2,0.9-0.4c0.3-0.2,0.6-0.3,0.7-0.3
			C140,78.3,140.1,78.3,140.2,78.5z M135.7,74.3c-0.3,0.3-0.5,0.8-0.6,1.5h3.6c0-0.7-0.2-1.1-0.5-1.5s-0.7-0.5-1.2-0.5
			C136.5,73.8,136.1,74,135.7,74.3z"/>
		<path class="st8" d="M148.7,73.2c0.5,0.5,0.7,1.3,0.7,2.4v3.9c0,0.3-0.1,0.5-0.3,0.7c-0.2,0.2-0.4,0.3-0.7,0.3
			c-0.3,0-0.6-0.1-0.7-0.3c-0.2-0.2-0.3-0.4-0.3-0.7v-3.8c0-0.6-0.1-1.1-0.3-1.3c-0.2-0.3-0.6-0.4-1.1-0.4c-0.6,0-1,0.2-1.4,0.5
			c-0.3,0.4-0.5,0.8-0.5,1.5v3.6c0,0.3-0.1,0.5-0.3,0.7c-0.2,0.2-0.4,0.3-0.7,0.3c-0.3,0-0.6-0.1-0.7-0.3c-0.2-0.2-0.3-0.4-0.3-0.7
			v-6.2c0-0.3,0.1-0.5,0.3-0.7c0.2-0.2,0.4-0.3,0.7-0.3c0.3,0,0.5,0.1,0.7,0.2c0.2,0.2,0.3,0.4,0.3,0.6v0.4c0.3-0.4,0.6-0.8,1.1-1
			c0.4-0.2,1-0.4,1.5-0.4C147.6,72.4,148.3,72.6,148.7,73.2z"/>
		<path class="st8" d="M152.9,80c-0.6-0.3-1-0.8-1.4-1.4c-0.3-0.6-0.5-1.3-0.5-2.1s0.2-1.5,0.5-2.2c0.3-0.6,0.8-1.1,1.4-1.4
			c0.6-0.3,1.3-0.5,2.1-0.5c0.4,0,0.8,0.1,1.3,0.2s0.8,0.3,1.1,0.5c0.3,0.2,0.5,0.5,0.5,0.8c0,0.2-0.1,0.4-0.2,0.6
			c-0.1,0.1-0.3,0.2-0.4,0.2c-0.1,0-0.2,0-0.4-0.1c-0.1-0.1-0.3-0.1-0.4-0.2c-0.2-0.1-0.5-0.2-0.7-0.3c-0.2-0.1-0.5-0.1-0.7-0.1
			c-0.7,0-1.2,0.2-1.5,0.6c-0.4,0.4-0.5,1.1-0.5,1.9c0,0.8,0.2,1.4,0.5,1.8s0.9,0.6,1.5,0.6c0.3,0,0.5,0,0.7-0.1
			c0.2-0.1,0.4-0.2,0.7-0.3c0.2-0.1,0.3-0.2,0.4-0.2c0.1,0,0.2-0.1,0.4-0.1c0.2,0,0.3,0.1,0.4,0.2c0.1,0.1,0.2,0.3,0.2,0.6
			c0,0.2,0,0.3-0.1,0.5s-0.2,0.3-0.4,0.4c-0.3,0.2-0.7,0.4-1.2,0.5s-0.9,0.2-1.3,0.2C154.2,80.5,153.5,80.4,152.9,80z"/>
		<path class="st8" d="M159.4,70.7c-0.2-0.2-0.3-0.5-0.3-0.8s0.1-0.6,0.3-0.8s0.5-0.3,0.9-0.3c0.4,0,0.6,0.1,0.9,0.3
			c0.2,0.2,0.3,0.4,0.3,0.8s-0.1,0.6-0.3,0.8c-0.2,0.2-0.5,0.3-0.9,0.3C159.9,71,159.6,70.9,159.4,70.7z M159.6,80.2
			c-0.2-0.2-0.3-0.4-0.3-0.7v-6.2c0-0.3,0.1-0.5,0.3-0.7c0.2-0.2,0.4-0.2,0.7-0.2c0.3,0,0.5,0.1,0.7,0.2c0.2,0.2,0.3,0.4,0.3,0.7
			v6.2c0,0.3-0.1,0.5-0.3,0.7c-0.2,0.2-0.4,0.2-0.7,0.2C160,80.5,159.7,80.4,159.6,80.2z"/>
		<path class="st8" d="M163.6,80.2c-0.2-0.2-0.3-0.4-0.3-0.7V70c0-0.3,0.1-0.5,0.3-0.7c0.2-0.2,0.4-0.2,0.7-0.2
			c0.3,0,0.5,0.1,0.7,0.2c0.2,0.2,0.3,0.4,0.3,0.7v9.6c0,0.3-0.1,0.5-0.3,0.7c-0.2,0.2-0.4,0.2-0.7,0.2
			C164,80.5,163.8,80.4,163.6,80.2z"/>
		<path class="st8" d="M167.7,80.2c-0.2-0.2-0.3-0.4-0.3-0.7V70c0-0.3,0.1-0.5,0.3-0.7c0.2-0.2,0.4-0.2,0.7-0.2
			c0.3,0,0.5,0.1,0.7,0.2c0.2,0.2,0.3,0.4,0.3,0.7v9.6c0,0.3-0.1,0.5-0.3,0.7c-0.2,0.2-0.4,0.2-0.7,0.2
			C168.1,80.5,167.9,80.4,167.7,80.2z"/>
		<path class="st8" d="M172.9,80c-0.6-0.3-1.1-0.8-1.4-1.4s-0.5-1.3-0.5-2.2c0-0.8,0.2-1.5,0.5-2.2s0.8-1.1,1.4-1.4s1.3-0.5,2.1-0.5
			c0.8,0,1.5,0.2,2.1,0.5s1.1,0.8,1.4,1.4c0.3,0.6,0.5,1.3,0.5,2.2c0,0.8-0.2,1.5-0.5,2.2c-0.3,0.6-0.8,1.1-1.4,1.4
			c-0.6,0.3-1.3,0.5-2.1,0.5C174.2,80.5,173.5,80.4,172.9,80z M176.5,78.3c0.3-0.4,0.5-1.1,0.5-1.9c0-0.8-0.2-1.4-0.5-1.9
			c-0.3-0.4-0.8-0.6-1.5-0.6s-1.1,0.2-1.5,0.6s-0.5,1.1-0.5,1.9c0,0.8,0.2,1.5,0.5,1.9c0.3,0.4,0.8,0.6,1.5,0.6
			C175.7,79,176.2,78.8,176.5,78.3z"/>
		<path class="st8" d="M79,91.1c0.2,0.2,0.3,0.4,0.3,0.7v9.4c0,0.3-0.1,0.6-0.3,0.8s-0.4,0.3-0.7,0.3c-0.3,0-0.6-0.1-0.7-0.3
			c-0.2-0.2-0.3-0.4-0.3-0.8v-4h-5.8v4c0,0.3-0.1,0.6-0.3,0.8s-0.4,0.3-0.7,0.3c-0.3,0-0.5-0.1-0.7-0.3c-0.2-0.2-0.3-0.4-0.3-0.8
			v-9.4c0-0.3,0.1-0.6,0.3-0.7c0.2-0.2,0.4-0.3,0.7-0.3c0.3,0,0.6,0.1,0.7,0.3c0.2,0.2,0.3,0.4,0.3,0.7v3.8h5.8v-3.8
			c0-0.3,0.1-0.6,0.3-0.7c0.2-0.2,0.4-0.3,0.7-0.3C78.5,90.8,78.8,90.9,79,91.1z"/>
		<path class="st8" d="M88.1,100.3c0.1,0.1,0.2,0.3,0.2,0.6c0,0.3-0.2,0.6-0.6,0.8c-0.4,0.2-0.8,0.4-1.2,0.5
			c-0.5,0.1-0.9,0.2-1.3,0.2c-1.3,0-2.3-0.4-3-1.1c-0.7-0.7-1.1-1.7-1.1-3c0-0.8,0.2-1.5,0.5-2.1c0.3-0.6,0.8-1.1,1.4-1.4
			s1.2-0.5,2-0.5c0.7,0,1.3,0.2,1.8,0.5c0.5,0.3,0.9,0.7,1.2,1.3c0.3,0.6,0.4,1.2,0.4,2c0,0.5-0.2,0.7-0.6,0.7H83
			c0.1,0.7,0.3,1.3,0.6,1.6c0.4,0.3,0.9,0.5,1.5,0.5c0.3,0,0.6,0,0.9-0.1c0.3-0.1,0.6-0.2,0.9-0.4c0.3-0.2,0.6-0.3,0.7-0.3
			C87.9,100.1,88,100.1,88.1,100.3z M83.6,96.1c-0.3,0.3-0.5,0.8-0.6,1.5h3.6c0-0.7-0.2-1.1-0.5-1.5s-0.7-0.5-1.2-0.5
			C84.4,95.6,83.9,95.8,83.6,96.1z"/>
		<path class="st8" d="M90.3,102.1c-0.2-0.2-0.3-0.4-0.3-0.7v-9.6c0-0.3,0.1-0.5,0.3-0.7c0.2-0.2,0.4-0.2,0.7-0.2
			c0.3,0,0.5,0.1,0.7,0.2c0.2,0.2,0.3,0.4,0.3,0.7v9.6c0,0.3-0.1,0.5-0.3,0.7c-0.2,0.2-0.4,0.2-0.7,0.2
			C90.7,102.3,90.5,102.2,90.3,102.1z"/>
		<path class="st8" d="M99.9,95c0.5,0.5,0.8,1.4,0.8,2.5v3.9c0,0.3-0.1,0.5-0.3,0.7c-0.2,0.2-0.4,0.2-0.7,0.2
			c-0.3,0-0.5-0.1-0.7-0.3c-0.2-0.2-0.3-0.4-0.3-0.7V101c-0.2,0.4-0.5,0.7-0.9,1c-0.4,0.2-0.8,0.4-1.4,0.4c-0.5,0-1-0.1-1.4-0.3
			s-0.8-0.5-1-0.9c-0.2-0.4-0.4-0.8-0.4-1.2c0-0.6,0.1-1,0.4-1.4c0.3-0.3,0.8-0.6,1.4-0.7c0.7-0.1,1.6-0.2,2.7-0.2h0.4v-0.4
			c0-0.5-0.1-0.9-0.3-1.1c-0.2-0.2-0.6-0.4-1.1-0.4c-0.3,0-0.6,0-0.9,0.1s-0.7,0.2-1.1,0.4c-0.3,0.1-0.5,0.2-0.6,0.2
			c-0.2,0-0.3-0.1-0.5-0.2c-0.1-0.1-0.2-0.3-0.2-0.5c0-0.2,0-0.3,0.1-0.5c0.1-0.1,0.2-0.3,0.5-0.4c0.4-0.2,0.8-0.4,1.3-0.5
			c0.5-0.1,1-0.2,1.5-0.2C98.5,94.2,99.3,94.5,99.9,95z M98.3,100.4c0.3-0.4,0.5-0.8,0.5-1.4v-0.3h-0.3c-0.7,0-1.3,0-1.7,0.1
			s-0.7,0.2-0.8,0.3c-0.2,0.2-0.3,0.4-0.3,0.7c0,0.3,0.1,0.6,0.4,0.8c0.2,0.2,0.5,0.3,0.9,0.3C97.5,100.9,97.9,100.7,98.3,100.4z"/>
		<path class="st8" d="M110,91.1c0.2,0.2,0.3,0.4,0.3,0.7v9.6c0,0.3-0.1,0.5-0.3,0.7c-0.2,0.2-0.4,0.3-0.7,0.3
			c-0.3,0-0.5-0.1-0.7-0.3c-0.2-0.2-0.3-0.4-0.3-0.7v-0.4c-0.2,0.4-0.6,0.8-1,1c-0.4,0.2-0.9,0.4-1.5,0.4c-0.7,0-1.3-0.2-1.8-0.5
			c-0.5-0.3-0.9-0.8-1.2-1.4s-0.4-1.3-0.4-2.2s0.1-1.5,0.4-2.1c0.3-0.6,0.7-1.1,1.2-1.4c0.5-0.3,1.1-0.5,1.8-0.5
			c0.6,0,1.1,0.1,1.5,0.4c0.4,0.2,0.8,0.6,1,1v-3.8c0-0.3,0.1-0.5,0.3-0.6c0.2-0.2,0.4-0.2,0.7-0.2S109.8,90.9,110,91.1z
			 M107.7,100.1c0.3-0.4,0.5-1.1,0.5-1.9c0-0.8-0.2-1.4-0.5-1.9s-0.8-0.6-1.5-0.6c-0.6,0-1.1,0.2-1.5,0.6c-0.4,0.4-0.5,1-0.5,1.8
			c0,0.8,0.2,1.4,0.5,1.9c0.4,0.4,0.8,0.7,1.5,0.7C106.9,100.8,107.4,100.6,107.7,100.1z"/>
		<path class="st8" d="M113.8,101.8c-0.6-0.3-1.1-0.8-1.4-1.4s-0.5-1.3-0.5-2.2c0-0.8,0.2-1.5,0.5-2.2s0.8-1.1,1.4-1.4
			s1.3-0.5,2.1-0.5c0.8,0,1.5,0.2,2.1,0.5s1.1,0.8,1.4,1.4c0.3,0.6,0.5,1.3,0.5,2.2c0,0.8-0.2,1.5-0.5,2.2c-0.3,0.6-0.8,1.1-1.4,1.4
			c-0.6,0.3-1.3,0.5-2.1,0.5C115.1,102.3,114.4,102.2,113.8,101.8z M117.4,100.1c0.3-0.4,0.5-1.1,0.5-1.9c0-0.8-0.2-1.4-0.5-1.9
			c-0.3-0.4-0.8-0.6-1.5-0.6s-1.1,0.2-1.5,0.6s-0.5,1.1-0.5,1.9c0,0.8,0.2,1.5,0.5,1.9c0.3,0.4,0.8,0.6,1.5,0.6
			C116.5,100.8,117,100.6,117.4,100.1z"/>
		<path class="st8" d="M133.1,91.1c0.2,0.2,0.3,0.4,0.3,0.7v9.6c0,0.3-0.1,0.5-0.3,0.7c-0.2,0.2-0.4,0.3-0.7,0.3
			c-0.3,0-0.5-0.1-0.7-0.3c-0.2-0.2-0.3-0.4-0.3-0.7v-0.4c-0.2,0.4-0.6,0.8-1,1c-0.4,0.2-0.9,0.4-1.5,0.4c-0.7,0-1.3-0.2-1.8-0.5
			c-0.5-0.3-0.9-0.8-1.2-1.4s-0.4-1.3-0.4-2.2s0.1-1.5,0.4-2.1c0.3-0.6,0.7-1.1,1.2-1.4c0.5-0.3,1.1-0.5,1.8-0.5
			c0.6,0,1.1,0.1,1.5,0.4c0.4,0.2,0.8,0.6,1,1v-3.8c0-0.3,0.1-0.5,0.3-0.6c0.2-0.2,0.4-0.2,0.7-0.2S132.9,90.9,133.1,91.1z
			 M130.9,100.1c0.3-0.4,0.5-1.1,0.5-1.9c0-0.8-0.2-1.4-0.5-1.9s-0.8-0.6-1.5-0.6c-0.6,0-1.1,0.2-1.5,0.6c-0.4,0.4-0.5,1-0.5,1.8
			c0,0.8,0.2,1.4,0.5,1.9c0.4,0.4,0.8,0.7,1.5,0.7C130.1,100.8,130.5,100.6,130.9,100.1z"/>
		<path class="st8" d="M136.9,101.8c-0.6-0.3-1.1-0.8-1.4-1.4s-0.5-1.3-0.5-2.2c0-0.8,0.2-1.5,0.5-2.2s0.8-1.1,1.4-1.4
			s1.3-0.5,2.1-0.5c0.8,0,1.5,0.2,2.1,0.5s1.1,0.8,1.4,1.4c0.3,0.6,0.5,1.3,0.5,2.2c0,0.8-0.2,1.5-0.5,2.2c-0.3,0.6-0.8,1.1-1.4,1.4
			c-0.6,0.3-1.3,0.5-2.1,0.5C138.2,102.3,137.5,102.2,136.9,101.8z M140.5,100.1c0.3-0.4,0.5-1.1,0.5-1.9c0-0.8-0.2-1.4-0.5-1.9
			c-0.3-0.4-0.8-0.6-1.5-0.6s-1.1,0.2-1.5,0.6s-0.5,1.1-0.5,1.9c0,0.8,0.2,1.5,0.5,1.9c0.3,0.4,0.8,0.6,1.5,0.6
			C139.7,100.8,140.2,100.6,140.5,100.1z"/>
		<path class="st8" d="M151,94.7c0.5,0.3,0.9,0.8,1.2,1.4c0.3,0.6,0.4,1.3,0.4,2.1s-0.1,1.5-0.4,2.2s-0.7,1.1-1.2,1.4
			s-1.1,0.5-1.8,0.5c-0.6,0-1.1-0.1-1.5-0.4c-0.4-0.2-0.8-0.6-1-1v0.4c0,0.3-0.1,0.5-0.3,0.7c-0.2,0.2-0.4,0.3-0.7,0.3
			c-0.3,0-0.5-0.1-0.7-0.3c-0.2-0.2-0.3-0.4-0.3-0.7v-9.6c0-0.3,0.1-0.5,0.3-0.7c0.2-0.2,0.4-0.3,0.7-0.3s0.5,0.1,0.7,0.2
			c0.2,0.2,0.3,0.4,0.3,0.7v3.8c0.2-0.4,0.6-0.8,1-1s0.9-0.3,1.5-0.3C149.8,94.2,150.4,94.4,151,94.7z M150.1,100.1
			c0.4-0.4,0.5-1.1,0.5-1.9c0-0.8-0.2-1.4-0.5-1.8c-0.3-0.4-0.8-0.6-1.5-0.6c-0.6,0-1.1,0.2-1.5,0.6s-0.5,1.1-0.5,1.9
			c0,0.8,0.2,1.4,0.5,1.9c0.3,0.4,0.8,0.7,1.5,0.7C149.3,100.8,149.8,100.6,150.1,100.1z"/>
		<path class="st8" d="M154.6,102.1c-0.2-0.2-0.3-0.4-0.3-0.7v-9.6c0-0.3,0.1-0.5,0.3-0.7c0.2-0.2,0.4-0.2,0.7-0.2
			c0.3,0,0.5,0.1,0.7,0.2c0.2,0.2,0.3,0.4,0.3,0.7v9.6c0,0.3-0.1,0.5-0.3,0.7c-0.2,0.2-0.4,0.2-0.7,0.2
			C155,102.3,154.7,102.2,154.6,102.1z"/>
		<path class="st8" d="M165,100.3c0.1,0.1,0.2,0.3,0.2,0.6c0,0.3-0.2,0.6-0.6,0.8c-0.4,0.2-0.8,0.4-1.2,0.5
			c-0.5,0.1-0.9,0.2-1.3,0.2c-1.3,0-2.3-0.4-3-1.1c-0.7-0.7-1.1-1.7-1.1-3c0-0.8,0.2-1.5,0.5-2.1c0.3-0.6,0.8-1.1,1.4-1.4
			s1.2-0.5,2-0.5c0.7,0,1.3,0.2,1.8,0.5c0.5,0.3,0.9,0.7,1.2,1.3c0.3,0.6,0.4,1.2,0.4,2c0,0.5-0.2,0.7-0.6,0.7h-4.7
			c0.1,0.7,0.3,1.3,0.6,1.6c0.4,0.3,0.9,0.5,1.5,0.5c0.3,0,0.6,0,0.9-0.1c0.3-0.1,0.6-0.2,0.9-0.4c0.3-0.2,0.6-0.3,0.7-0.3
			C164.7,100.1,164.9,100.1,165,100.3z M160.5,96.1c-0.3,0.3-0.5,0.8-0.6,1.5h3.6c0-0.7-0.2-1.1-0.5-1.5s-0.7-0.5-1.2-0.5
			C161.2,95.6,160.8,95.8,160.5,96.1z"/>
		<path class="st8" d="M80.2,112.9c0.2,0.2,0.3,0.4,0.3,0.7v9.5c0,0.3-0.1,0.5-0.3,0.7c-0.2,0.2-0.4,0.3-0.7,0.3s-0.5-0.1-0.7-0.3
			c-0.2-0.2-0.2-0.4-0.2-0.7v-6.6l-2.7,5.2c-0.1,0.2-0.3,0.4-0.4,0.5c-0.1,0.1-0.3,0.2-0.5,0.2s-0.4-0.1-0.5-0.2s-0.3-0.3-0.4-0.5
			l-2.7-5.1v6.5c0,0.3-0.1,0.5-0.2,0.7c-0.2,0.2-0.4,0.3-0.7,0.3s-0.5-0.1-0.7-0.3c-0.2-0.2-0.2-0.4-0.2-0.7v-9.5
			c0-0.3,0.1-0.6,0.3-0.7c0.2-0.2,0.4-0.3,0.7-0.3c0.4,0,0.7,0.2,1,0.7l3.6,6.8l3.5-6.8c0.2-0.5,0.5-0.7,0.9-0.7
			C79.7,112.6,80,112.7,80.2,112.9z"/>
		<path class="st8" d="M88.5,116.8c0.5,0.5,0.8,1.4,0.8,2.5v3.9c0,0.3-0.1,0.5-0.3,0.7c-0.2,0.2-0.4,0.2-0.7,0.2
			c-0.3,0-0.5-0.1-0.7-0.3c-0.2-0.2-0.3-0.4-0.3-0.7v-0.4c-0.2,0.4-0.5,0.7-0.9,1c-0.4,0.2-0.8,0.4-1.4,0.4c-0.5,0-1-0.1-1.4-0.3
			s-0.8-0.5-1-0.9c-0.2-0.4-0.4-0.8-0.4-1.2c0-0.6,0.1-1,0.4-1.4c0.3-0.3,0.8-0.6,1.4-0.7c0.7-0.1,1.6-0.2,2.7-0.2h0.4V119
			c0-0.5-0.1-0.9-0.3-1.1c-0.2-0.2-0.6-0.4-1.1-0.4c-0.3,0-0.6,0-0.9,0.1s-0.7,0.2-1.1,0.4c-0.3,0.1-0.5,0.2-0.6,0.2
			c-0.2,0-0.3-0.1-0.5-0.2c-0.1-0.1-0.2-0.3-0.2-0.5c0-0.2,0-0.3,0.1-0.5c0.1-0.1,0.2-0.3,0.5-0.4c0.4-0.2,0.8-0.4,1.3-0.5
			c0.5-0.1,1-0.2,1.5-0.2C87.2,116,88,116.3,88.5,116.8z M86.9,122.2c0.3-0.4,0.5-0.8,0.5-1.4v-0.3h-0.3c-0.7,0-1.3,0-1.7,0.1
			s-0.7,0.2-0.8,0.3c-0.2,0.2-0.3,0.4-0.3,0.7c0,0.3,0.1,0.6,0.4,0.8c0.2,0.2,0.5,0.3,0.9,0.3C86.1,122.7,86.6,122.5,86.9,122.2z"/>
		<path class="st8" d="M91.6,123.9c-0.2-0.2-0.3-0.4-0.3-0.7v-9.6c0-0.3,0.1-0.5,0.3-0.7c0.2-0.2,0.4-0.2,0.7-0.2
			c0.3,0,0.5,0.1,0.7,0.2c0.2,0.2,0.3,0.4,0.3,0.7v9.6c0,0.3-0.1,0.5-0.3,0.7c-0.2,0.2-0.4,0.2-0.7,0.2
			C92,124.1,91.8,124,91.6,123.9z"/>
		<path class="st8" d="M100.3,123.3c0,0.3-0.1,0.5-0.3,0.6s-0.5,0.2-0.9,0.2l-0.4,0c-1.8-0.1-2.7-1.1-2.7-2.9v-3.5h-0.8
			c-0.3,0-0.5-0.1-0.7-0.2c-0.2-0.1-0.2-0.3-0.2-0.6c0-0.2,0.1-0.4,0.2-0.6c0.2-0.1,0.4-0.2,0.7-0.2h0.8v-1.5c0-0.3,0.1-0.5,0.3-0.7
			c0.2-0.2,0.4-0.3,0.7-0.3c0.3,0,0.5,0.1,0.7,0.3c0.2,0.2,0.3,0.4,0.3,0.7v1.5h1.4c0.3,0,0.5,0.1,0.7,0.2s0.2,0.3,0.2,0.6
			c0,0.2-0.1,0.4-0.2,0.6c-0.2,0.1-0.4,0.2-0.7,0.2h-1.4v3.6c0,0.8,0.4,1.2,1.1,1.3l0.4,0C100,122.6,100.3,122.9,100.3,123.3z"/>
		<path class="st8" d="M107.9,122.1c0.1,0.1,0.2,0.3,0.2,0.6c0,0.3-0.2,0.6-0.6,0.8c-0.4,0.2-0.8,0.4-1.2,0.5
			c-0.5,0.1-0.9,0.2-1.3,0.2c-1.3,0-2.3-0.4-3-1.1c-0.7-0.7-1.1-1.7-1.1-3c0-0.8,0.2-1.5,0.5-2.1c0.3-0.6,0.8-1.1,1.4-1.4
			s1.2-0.5,2-0.5c0.7,0,1.3,0.2,1.8,0.5c0.5,0.3,0.9,0.7,1.2,1.3c0.3,0.6,0.4,1.2,0.4,2c0,0.5-0.2,0.7-0.6,0.7h-4.7
			c0.1,0.7,0.3,1.3,0.6,1.6c0.4,0.3,0.9,0.5,1.5,0.5c0.3,0,0.6,0,0.9-0.1c0.3-0.1,0.6-0.2,0.9-0.4c0.3-0.2,0.6-0.3,0.7-0.3
			C107.7,121.9,107.8,121.9,107.9,122.1z M103.4,117.9c-0.3,0.3-0.5,0.8-0.6,1.5h3.6c0-0.7-0.2-1.1-0.5-1.5s-0.7-0.5-1.2-0.5
			C104.2,117.4,103.8,117.6,103.4,117.9z"/>
		<path class="st8" d="M115.6,116.8c0.5,0.5,0.8,1.4,0.8,2.5v3.9c0,0.3-0.1,0.5-0.3,0.7c-0.2,0.2-0.4,0.2-0.7,0.2
			c-0.3,0-0.5-0.1-0.7-0.3c-0.2-0.2-0.3-0.4-0.3-0.7v-0.4c-0.2,0.4-0.5,0.7-0.9,1c-0.4,0.2-0.8,0.4-1.4,0.4c-0.5,0-1-0.1-1.4-0.3
			s-0.8-0.5-1-0.9c-0.2-0.4-0.4-0.8-0.4-1.2c0-0.6,0.1-1,0.4-1.4c0.3-0.3,0.8-0.6,1.4-0.7c0.7-0.1,1.6-0.2,2.7-0.2h0.4V119
			c0-0.5-0.1-0.9-0.3-1.1c-0.2-0.2-0.6-0.4-1.1-0.4c-0.3,0-0.6,0-0.9,0.1s-0.7,0.2-1.1,0.4c-0.3,0.1-0.5,0.2-0.6,0.2
			c-0.2,0-0.3-0.1-0.5-0.2c-0.1-0.1-0.2-0.3-0.2-0.5c0-0.2,0-0.3,0.1-0.5c0.1-0.1,0.2-0.3,0.5-0.4c0.4-0.2,0.8-0.4,1.3-0.5
			c0.5-0.1,1-0.2,1.5-0.2C114.3,116,115.1,116.3,115.6,116.8z M114,122.2c0.3-0.4,0.5-0.8,0.5-1.4v-0.3h-0.3c-0.7,0-1.3,0-1.7,0.1
			s-0.7,0.2-0.8,0.3c-0.2,0.2-0.3,0.4-0.3,0.7c0,0.3,0.1,0.6,0.4,0.8c0.2,0.2,0.5,0.3,0.9,0.3C113.2,122.7,113.7,122.5,114,122.2z"
			/>
		<path class="st8" d="M125.7,112.9c0.2,0.2,0.3,0.4,0.3,0.7v9.6c0,0.3-0.1,0.5-0.3,0.7c-0.2,0.2-0.4,0.3-0.7,0.3
			c-0.3,0-0.5-0.1-0.7-0.3c-0.2-0.2-0.3-0.4-0.3-0.7v-0.4c-0.2,0.4-0.6,0.8-1,1c-0.4,0.2-0.9,0.4-1.5,0.4c-0.7,0-1.3-0.2-1.8-0.5
			c-0.5-0.3-0.9-0.8-1.2-1.4s-0.4-1.3-0.4-2.2s0.1-1.5,0.4-2.1c0.3-0.6,0.7-1.1,1.2-1.4c0.5-0.3,1.1-0.5,1.8-0.5
			c0.6,0,1.1,0.1,1.5,0.4c0.4,0.2,0.8,0.6,1,1v-3.8c0-0.3,0.1-0.5,0.3-0.6c0.2-0.2,0.4-0.2,0.7-0.2S125.5,112.7,125.7,112.9z
			 M123.5,121.9c0.3-0.4,0.5-1.1,0.5-1.9c0-0.8-0.2-1.4-0.5-1.9s-0.8-0.6-1.5-0.6c-0.6,0-1.1,0.2-1.5,0.6c-0.4,0.4-0.5,1-0.5,1.8
			c0,0.8,0.2,1.4,0.5,1.9c0.4,0.4,0.8,0.7,1.5,0.7C122.6,122.6,123.1,122.4,123.5,121.9z"/>
		<path class="st8" d="M133.9,116.8c0.5,0.5,0.8,1.4,0.8,2.5v3.9c0,0.3-0.1,0.5-0.3,0.7c-0.2,0.2-0.4,0.2-0.7,0.2
			c-0.3,0-0.5-0.1-0.7-0.3c-0.2-0.2-0.3-0.4-0.3-0.7v-0.4c-0.2,0.4-0.5,0.7-0.9,1c-0.4,0.2-0.8,0.4-1.4,0.4c-0.5,0-1-0.1-1.4-0.3
			s-0.8-0.5-1-0.9c-0.2-0.4-0.4-0.8-0.4-1.2c0-0.6,0.1-1,0.4-1.4c0.3-0.3,0.8-0.6,1.4-0.7c0.7-0.1,1.6-0.2,2.7-0.2h0.4V119
			c0-0.5-0.1-0.9-0.3-1.1c-0.2-0.2-0.6-0.4-1.1-0.4c-0.3,0-0.6,0-0.9,0.1s-0.7,0.2-1.1,0.4c-0.3,0.1-0.5,0.2-0.6,0.2
			c-0.2,0-0.3-0.1-0.5-0.2c-0.1-0.1-0.2-0.3-0.2-0.5c0-0.2,0-0.3,0.1-0.5c0.1-0.1,0.2-0.3,0.5-0.4c0.4-0.2,0.8-0.4,1.3-0.5
			c0.5-0.1,1-0.2,1.5-0.2C132.5,116,133.3,116.3,133.9,116.8z M132.3,122.2c0.3-0.4,0.5-0.8,0.5-1.4v-0.3h-0.3c-0.7,0-1.3,0-1.7,0.1
			s-0.7,0.2-0.8,0.3c-0.2,0.2-0.3,0.4-0.3,0.7c0,0.3,0.1,0.6,0.4,0.8c0.2,0.2,0.5,0.3,0.9,0.3C131.5,122.7,131.9,122.5,132.3,122.2z
			"/>
		<path class="st8" d="M71.6,145.3c-0.8-0.5-1.4-1.1-1.9-2c-0.4-0.9-0.7-1.9-0.7-3.1s0.2-2.2,0.7-3.1c0.4-0.9,1.1-1.5,1.9-2
			c0.8-0.5,1.8-0.7,2.9-0.7c0.7,0,1.4,0.1,2,0.3c0.6,0.2,1.2,0.5,1.6,0.9c0.1,0.1,0.2,0.2,0.3,0.3c0.1,0.1,0.1,0.3,0.1,0.4
			c0,0.2-0.1,0.4-0.2,0.6c-0.1,0.2-0.3,0.2-0.5,0.2c-0.2,0-0.4-0.1-0.7-0.2c-0.5-0.3-0.9-0.6-1.3-0.7c-0.4-0.1-0.8-0.2-1.3-0.2
			c-1.1,0-1.9,0.3-2.5,1c-0.6,0.7-0.9,1.7-0.9,3.1c0,1.4,0.3,2.4,0.9,3.1c0.6,0.7,1.4,1,2.5,1c0.5,0,0.9-0.1,1.3-0.2
			c0.4-0.1,0.8-0.4,1.3-0.7c0.1-0.1,0.2-0.1,0.3-0.2c0.1,0,0.2-0.1,0.3-0.1c0.2,0,0.3,0.1,0.5,0.2c0.1,0.2,0.2,0.4,0.2,0.6
			c0,0.2,0,0.3-0.1,0.4c-0.1,0.1-0.1,0.2-0.3,0.3c-0.5,0.4-1,0.7-1.6,0.9c-0.6,0.2-1.3,0.3-2,0.3C73.4,146,72.4,145.7,71.6,145.3z"
			/>
		<path class="st8" d="M85.7,138.6c0.5,0.5,0.8,1.4,0.8,2.5v3.9c0,0.3-0.1,0.5-0.3,0.7c-0.2,0.2-0.4,0.2-0.7,0.2
			c-0.3,0-0.5-0.1-0.7-0.3c-0.2-0.2-0.3-0.4-0.3-0.7v-0.4c-0.2,0.4-0.5,0.7-0.9,1c-0.4,0.2-0.8,0.4-1.4,0.4c-0.5,0-1-0.1-1.4-0.3
			s-0.8-0.5-1-0.9c-0.2-0.4-0.4-0.8-0.4-1.2c0-0.6,0.1-1,0.4-1.4c0.3-0.3,0.8-0.6,1.4-0.7c0.7-0.1,1.6-0.2,2.7-0.2h0.4v-0.4
			c0-0.5-0.1-0.9-0.3-1.1c-0.2-0.2-0.6-0.4-1.1-0.4c-0.3,0-0.6,0-0.9,0.1s-0.7,0.2-1.1,0.4c-0.3,0.1-0.5,0.2-0.6,0.2
			c-0.2,0-0.3-0.1-0.5-0.2c-0.1-0.1-0.2-0.3-0.2-0.5c0-0.2,0-0.3,0.1-0.5c0.1-0.1,0.2-0.3,0.5-0.4c0.4-0.2,0.8-0.4,1.3-0.5
			c0.5-0.1,1-0.2,1.5-0.2C84.4,137.8,85.2,138.1,85.7,138.6z M84.1,144c0.3-0.4,0.5-0.8,0.5-1.4v-0.3h-0.3c-0.7,0-1.3,0-1.7,0.1
			s-0.7,0.2-0.8,0.3c-0.2,0.2-0.3,0.4-0.3,0.7c0,0.3,0.1,0.6,0.4,0.8c0.2,0.2,0.5,0.3,0.9,0.3C83.4,144.5,83.8,144.3,84.1,144z"/>
		<path class="st8" d="M91.4,136.5c-0.2,0.3-0.3,0.7-0.3,1.2v0.4h1.4c0.6,0,0.9,0.3,0.9,0.8s-0.3,0.8-0.9,0.8h-1.4v5.5
			c0,0.3-0.1,0.5-0.3,0.7c-0.2,0.2-0.4,0.2-0.7,0.2c-0.3,0-0.5-0.1-0.7-0.2c-0.2-0.2-0.3-0.4-0.3-0.7v-5.5h-0.8
			c-0.6,0-0.9-0.3-0.9-0.8s0.3-0.8,0.9-0.8h0.8v-0.1c0-1,0.3-1.8,0.8-2.4s1.3-0.9,2.2-1l0.4,0c0.4,0,0.7,0,0.9,0.1
			c0.2,0.1,0.3,0.3,0.3,0.6c0,0.5-0.3,0.7-0.8,0.8l-0.4,0C92,136.1,91.7,136.2,91.4,136.5z"/>
		<path class="st8" d="M100.8,143.9c0.1,0.1,0.2,0.3,0.2,0.6c0,0.3-0.2,0.6-0.6,0.8c-0.4,0.2-0.8,0.4-1.2,0.5
			c-0.5,0.1-0.9,0.2-1.3,0.2c-1.3,0-2.3-0.4-3-1.1c-0.7-0.7-1.1-1.7-1.1-3c0-0.8,0.2-1.5,0.5-2.1c0.3-0.6,0.8-1.1,1.4-1.4
			s1.2-0.5,2-0.5c0.7,0,1.3,0.2,1.8,0.5c0.5,0.3,0.9,0.7,1.2,1.3c0.3,0.6,0.4,1.2,0.4,2c0,0.5-0.2,0.7-0.6,0.7h-4.7
			c0.1,0.7,0.3,1.3,0.6,1.6c0.4,0.3,0.9,0.5,1.5,0.5c0.3,0,0.6,0,0.9-0.1c0.3-0.1,0.6-0.2,0.9-0.4c0.3-0.2,0.6-0.3,0.7-0.3
			C100.6,143.7,100.7,143.7,100.8,143.9z M96.3,139.7c-0.3,0.3-0.5,0.8-0.6,1.5h3.6c0-0.7-0.2-1.1-0.5-1.5s-0.7-0.5-1.2-0.5
			C97.1,139.2,96.7,139.4,96.3,139.7z M97.6,137c-0.1,0-0.3-0.1-0.4-0.2s-0.2-0.2-0.2-0.4c0-0.1,0-0.2,0.1-0.4l1.6-2.1
			c0.2-0.3,0.5-0.5,0.8-0.5c0.2,0,0.4,0.1,0.6,0.2c0.2,0.2,0.2,0.4,0.2,0.6c0,0.3-0.1,0.6-0.4,0.8l-2.1,1.7
			C97.9,137,97.8,137,97.6,137z"/>
	</g>
	<g>
		<path class="st0" d="M302.2,79.9c-0.6,0.6-1.4,1-2.4,1.1v1c0,0.2-0.1,0.4-0.2,0.6c-0.1,0.2-0.3,0.2-0.6,0.2s-0.4-0.1-0.6-0.2
			c-0.1-0.2-0.2-0.4-0.2-0.6v-1c-0.6-0.1-1.2-0.2-1.8-0.4s-1.1-0.5-1.5-0.8c-0.1-0.1-0.2-0.2-0.3-0.3c-0.1-0.1-0.1-0.3-0.1-0.4
			c0-0.2,0.1-0.4,0.2-0.6c0.1-0.2,0.3-0.3,0.5-0.3c0.1,0,0.2,0,0.3,0.1c0.1,0,0.2,0.1,0.4,0.2c0.5,0.3,1,0.6,1.4,0.7
			c0.5,0.1,1,0.2,1.5,0.2c0.7,0,1.3-0.1,1.7-0.4s0.6-0.7,0.6-1.2c0-0.3-0.1-0.6-0.3-0.8c-0.2-0.2-0.5-0.3-0.8-0.5
			c-0.3-0.1-0.8-0.2-1.3-0.4c-0.8-0.2-1.5-0.4-2-0.6s-0.9-0.5-1.3-1c-0.4-0.4-0.5-1-0.5-1.7c0-0.9,0.3-1.6,0.9-2.2
			c0.6-0.6,1.4-1,2.4-1.1v-1c0-0.2,0.1-0.4,0.2-0.6c0.1-0.2,0.3-0.2,0.6-0.2s0.4,0.1,0.6,0.2c0.1,0.2,0.2,0.4,0.2,0.6v1
			c1.1,0.1,2,0.5,2.8,1.2c0.3,0.2,0.4,0.4,0.4,0.8c0,0.2-0.1,0.4-0.2,0.6c-0.1,0.2-0.3,0.3-0.5,0.3c-0.1,0-0.2,0-0.3,0
			c-0.1,0-0.2-0.1-0.4-0.2c-0.4-0.3-0.9-0.5-1.2-0.7c-0.4-0.2-0.9-0.2-1.4-0.2c-0.7,0-1.2,0.1-1.6,0.4s-0.6,0.7-0.6,1.2
			c0,0.4,0.1,0.6,0.3,0.9c0.2,0.2,0.5,0.4,0.8,0.5c0.3,0.1,0.8,0.3,1.4,0.4c0.8,0.2,1.4,0.4,1.9,0.6c0.5,0.2,0.9,0.5,1.3,0.9
			s0.5,1,0.5,1.7C303.1,78.6,302.8,79.3,302.2,79.9z"/>
		<path class="st0" d="M312.6,80c0,0.6-0.3,0.8-1,0.8h-5.4c-0.7,0-1-0.3-1-0.8c0-0.5,0.3-0.8,1-0.8h1.7v-7.3l-1.5,0.9
			c-0.1,0.1-0.3,0.1-0.4,0.1c-0.2,0-0.4-0.1-0.6-0.3c-0.2-0.2-0.2-0.4-0.2-0.6c0-0.3,0.1-0.5,0.4-0.7l2.5-1.5
			c0.3-0.2,0.6-0.3,0.9-0.3c0.3,0,0.5,0.1,0.7,0.3c0.2,0.2,0.3,0.4,0.3,0.8v8.7h1.7C312.3,79.2,312.6,79.5,312.6,80z"/>
		<path class="st0" d="M321.7,76.1c0.4,0.5,0.5,1.1,0.5,1.8c0,1-0.4,1.8-1.1,2.3c-0.7,0.6-1.8,0.8-3.1,0.8s-2.4-0.3-3.1-0.8
			c-0.7-0.6-1.1-1.3-1.1-2.3c0-0.7,0.2-1.3,0.5-1.8c0.4-0.5,0.9-0.8,1.5-1c-0.6-0.2-1-0.5-1.3-1c-0.3-0.5-0.5-1-0.5-1.6
			c0-0.9,0.4-1.7,1.1-2.2s1.7-0.8,2.9-0.8s2.2,0.3,2.9,0.8s1.1,1.3,1.1,2.2c0,0.6-0.2,1.2-0.5,1.6c-0.3,0.5-0.8,0.8-1.3,1
			C320.8,75.3,321.3,75.6,321.7,76.1z M320.3,77.7c0-1.1-0.8-1.7-2.3-1.7s-2.3,0.6-2.3,1.7c0,1.1,0.8,1.7,2.3,1.7
			S320.3,78.8,320.3,77.7z M316,72.7c0,0.5,0.2,1,0.5,1.2c0.3,0.3,0.8,0.4,1.5,0.4s1.2-0.1,1.5-0.4c0.3-0.3,0.5-0.7,0.5-1.2
			c0-1.1-0.7-1.6-2-1.6S316,71.6,316,72.7z"/>
		<path class="st0" d="M302.2,101.7c-0.6,0.6-1.4,1-2.4,1.1v1c0,0.2-0.1,0.4-0.2,0.6c-0.1,0.2-0.3,0.2-0.6,0.2s-0.4-0.1-0.6-0.2
			c-0.1-0.2-0.2-0.4-0.2-0.6v-1c-0.6-0.1-1.2-0.2-1.8-0.4s-1.1-0.5-1.5-0.8c-0.1-0.1-0.2-0.2-0.3-0.3c-0.1-0.1-0.1-0.3-0.1-0.4
			c0-0.2,0.1-0.4,0.2-0.6c0.1-0.2,0.3-0.3,0.5-0.3c0.1,0,0.2,0,0.3,0.1c0.1,0,0.2,0.1,0.4,0.2c0.5,0.3,1,0.6,1.4,0.7
			c0.5,0.1,1,0.2,1.5,0.2c0.7,0,1.3-0.1,1.7-0.4s0.6-0.7,0.6-1.2c0-0.3-0.1-0.6-0.3-0.8c-0.2-0.2-0.5-0.3-0.8-0.5
			c-0.3-0.1-0.8-0.2-1.3-0.4c-0.8-0.2-1.5-0.4-2-0.6s-0.9-0.5-1.3-1c-0.4-0.4-0.5-1-0.5-1.7c0-0.9,0.3-1.6,0.9-2.2
			c0.6-0.6,1.4-1,2.4-1.1v-1c0-0.2,0.1-0.4,0.2-0.6c0.1-0.2,0.3-0.2,0.6-0.2s0.4,0.1,0.6,0.2c0.1,0.2,0.2,0.4,0.2,0.6v1
			c1.1,0.1,2,0.5,2.8,1.2c0.3,0.2,0.4,0.4,0.4,0.8c0,0.2-0.1,0.4-0.2,0.6c-0.1,0.2-0.3,0.3-0.5,0.3c-0.1,0-0.2,0-0.3,0
			c-0.1,0-0.2-0.1-0.4-0.2c-0.4-0.3-0.9-0.5-1.2-0.7c-0.4-0.2-0.9-0.2-1.4-0.2c-0.7,0-1.2,0.1-1.6,0.4s-0.6,0.7-0.6,1.2
			c0,0.4,0.1,0.6,0.3,0.9c0.2,0.2,0.5,0.4,0.8,0.5c0.3,0.1,0.8,0.3,1.4,0.4c0.8,0.2,1.4,0.4,1.9,0.6c0.5,0.2,0.9,0.5,1.3,0.9
			s0.5,1,0.5,1.7C303.1,100.4,302.8,101.1,302.2,101.7z"/>
		<path class="st0" d="M311.7,97.9c0.4,0.5,0.5,1.1,0.5,1.8c0,1-0.4,1.7-1.1,2.3c-0.7,0.6-1.7,0.9-2.9,0.9c-0.7,0-1.4-0.1-2-0.3
			c-0.6-0.2-1.2-0.5-1.6-0.9c-0.2-0.2-0.4-0.5-0.4-0.8c0-0.2,0.1-0.4,0.2-0.6s0.3-0.2,0.5-0.2c0.1,0,0.2,0,0.3,0.1
			c0.1,0,0.2,0.1,0.4,0.2c0.4,0.3,0.9,0.5,1.3,0.7c0.4,0.2,0.8,0.2,1.3,0.2c0.7,0,1.2-0.1,1.6-0.4s0.5-0.7,0.5-1.3
			c0-0.6-0.2-1-0.5-1.3s-0.9-0.4-1.7-0.4h-0.9c-0.2,0-0.4-0.1-0.6-0.2c-0.1-0.2-0.2-0.4-0.2-0.6c0-0.2,0.1-0.4,0.2-0.6
			c0.1-0.2,0.3-0.2,0.6-0.2h0.6c1.5,0,2.2-0.5,2.2-1.6c0-0.5-0.2-0.9-0.5-1.2c-0.3-0.3-0.7-0.4-1.3-0.4c-0.8,0-1.6,0.3-2.5,0.9
			c-0.1,0.1-0.3,0.1-0.4,0.2c-0.1,0-0.2,0.1-0.3,0.1c-0.2,0-0.3-0.1-0.5-0.2c-0.1-0.2-0.2-0.4-0.2-0.6c0-0.2,0-0.3,0.1-0.4
			c0.1-0.1,0.2-0.2,0.3-0.3c0.4-0.4,1-0.7,1.6-0.9c0.6-0.2,1.3-0.3,1.9-0.3c1.1,0,2,0.3,2.6,0.8c0.7,0.5,1,1.3,1,2.2
			c0,0.6-0.2,1.2-0.5,1.6s-0.8,0.8-1.3,1C310.8,97.1,311.3,97.4,311.7,97.9z"/>
		<path class="st0" d="M320.5,95.9c0.5,0.3,0.9,0.7,1.2,1.3c0.3,0.5,0.4,1.2,0.4,1.9c0,0.7-0.2,1.4-0.5,1.9s-0.8,1-1.3,1.3
			c-0.6,0.3-1.2,0.5-1.9,0.5c-1.4,0-2.5-0.5-3.3-1.4c-0.8-1-1.2-2.3-1.2-4.1c0-1.2,0.2-2.3,0.5-3.2c0.4-0.9,0.9-1.6,1.6-2.1
			c0.7-0.5,1.5-0.7,2.4-0.7c0.6,0,1.2,0.1,1.8,0.3c0.6,0.2,1.1,0.5,1.6,0.9c0.1,0.1,0.2,0.2,0.3,0.3c0.1,0.1,0.1,0.2,0.1,0.4
			c0,0.2-0.1,0.4-0.2,0.6c-0.1,0.2-0.3,0.2-0.5,0.2c-0.1,0-0.2,0-0.3-0.1c-0.1,0-0.2-0.1-0.4-0.2c-0.9-0.6-1.7-0.9-2.4-0.9
			c-0.8,0-1.4,0.4-1.8,1.1c-0.4,0.7-0.7,1.7-0.7,3c0.2-0.5,0.6-0.9,1.1-1.1c0.5-0.3,1-0.4,1.6-0.4C319.4,95.5,320,95.6,320.5,95.9z
			 M319.7,100.6c0.4-0.4,0.5-0.9,0.5-1.5s-0.2-1.1-0.5-1.5c-0.4-0.4-0.8-0.6-1.4-0.6c-0.6,0-1.1,0.2-1.4,0.6
			c-0.4,0.4-0.6,0.9-0.6,1.5c0,0.6,0.2,1.1,0.6,1.5c0.4,0.4,0.9,0.6,1.4,0.6C318.8,101.2,319.3,101,319.7,100.6z"/>
		<path class="st0" d="M302.2,123.5c-0.6,0.6-1.4,1-2.4,1.1v1c0,0.2-0.1,0.4-0.2,0.6c-0.1,0.2-0.3,0.2-0.6,0.2s-0.4-0.1-0.6-0.2
			c-0.1-0.2-0.2-0.4-0.2-0.6v-1c-0.6-0.1-1.2-0.2-1.8-0.4s-1.1-0.5-1.5-0.8c-0.1-0.1-0.2-0.2-0.3-0.3c-0.1-0.1-0.1-0.3-0.1-0.4
			c0-0.2,0.1-0.4,0.2-0.6c0.1-0.2,0.3-0.3,0.5-0.3c0.1,0,0.2,0,0.3,0.1c0.1,0,0.2,0.1,0.4,0.2c0.5,0.3,1,0.6,1.4,0.7
			c0.5,0.1,1,0.2,1.5,0.2c0.7,0,1.3-0.1,1.7-0.4s0.6-0.7,0.6-1.2c0-0.3-0.1-0.6-0.3-0.8c-0.2-0.2-0.5-0.3-0.8-0.5
			c-0.3-0.1-0.8-0.2-1.3-0.4c-0.8-0.2-1.5-0.4-2-0.6s-0.9-0.5-1.3-1c-0.4-0.4-0.5-1-0.5-1.7c0-0.9,0.3-1.6,0.9-2.2
			c0.6-0.6,1.4-1,2.4-1.1v-1c0-0.2,0.1-0.4,0.2-0.6c0.1-0.2,0.3-0.2,0.6-0.2s0.4,0.1,0.6,0.2c0.1,0.2,0.2,0.4,0.2,0.6v1
			c1.1,0.1,2,0.5,2.8,1.2c0.3,0.2,0.4,0.4,0.4,0.8c0,0.2-0.1,0.4-0.2,0.6c-0.1,0.2-0.3,0.3-0.5,0.3c-0.1,0-0.2,0-0.3,0
			c-0.1,0-0.2-0.1-0.4-0.2c-0.4-0.3-0.9-0.5-1.2-0.7c-0.4-0.2-0.9-0.2-1.4-0.2c-0.7,0-1.2,0.1-1.6,0.4s-0.6,0.7-0.6,1.2
			c0,0.4,0.1,0.6,0.3,0.9c0.2,0.2,0.5,0.4,0.8,0.5c0.3,0.1,0.8,0.3,1.4,0.4c0.8,0.2,1.4,0.4,1.9,0.6c0.5,0.2,0.9,0.5,1.3,0.9
			s0.5,1,0.5,1.7C303.1,122.2,302.8,122.9,302.2,123.5z"/>
		<path class="st0" d="M312.5,123.7c0,0.6-0.3,0.8-1,0.8h-6.1c-0.3,0-0.5-0.1-0.7-0.2c-0.2-0.2-0.2-0.4-0.2-0.6
			c0-0.3,0.1-0.6,0.4-0.9l3.6-3.9c0.4-0.5,0.8-0.9,1-1.4s0.3-0.8,0.3-1.2c0-0.5-0.1-0.9-0.4-1.2s-0.7-0.4-1.2-0.4
			c-0.4,0-0.9,0.1-1.3,0.2c-0.4,0.2-0.8,0.4-1.2,0.7c-0.1,0.1-0.2,0.1-0.3,0.2s-0.2,0.1-0.3,0.1c-0.2,0-0.3-0.1-0.5-0.3
			c-0.1-0.2-0.2-0.4-0.2-0.6c0-0.2,0-0.3,0.1-0.4c0.1-0.1,0.2-0.2,0.3-0.3c0.5-0.4,1-0.7,1.6-0.9c0.6-0.2,1.3-0.3,1.9-0.3
			c1.1,0,2,0.3,2.6,0.8c0.7,0.6,1,1.3,1,2.2c0,0.7-0.1,1.3-0.4,1.8c-0.3,0.6-0.7,1.2-1.4,1.9l-2.8,2.9h4.2
			C312.2,122.8,312.5,123.1,312.5,123.7z"/>
		<path class="st0" d="M315,123.2c-0.7-1-1.1-2.4-1.1-4.3c0-1.9,0.4-3.3,1.1-4.3s1.7-1.5,3.1-1.5s2.4,0.5,3.1,1.5
			c0.7,1,1.1,2.4,1.1,4.3s-0.4,3.3-1.1,4.3c-0.7,1-1.7,1.5-3.1,1.5S315.7,124.2,315,123.2z M319.6,122c0.3-0.7,0.5-1.7,0.5-3.2
			c0-1.5-0.2-2.5-0.5-3.2c-0.3-0.7-0.9-1-1.6-1s-1.3,0.3-1.6,1c-0.3,0.7-0.5,1.7-0.5,3.2s0.2,2.5,0.5,3.2c0.3,0.7,0.9,1,1.6,1
			S319.3,122.7,319.6,122z"/>
		<path class="st0" d="M302.2,145.3c-0.6,0.6-1.4,1-2.4,1.1v1c0,0.2-0.1,0.4-0.2,0.6c-0.1,0.2-0.3,0.2-0.6,0.2s-0.4-0.1-0.6-0.2
			c-0.1-0.2-0.2-0.4-0.2-0.6v-1c-0.6-0.1-1.2-0.2-1.8-0.4s-1.1-0.5-1.5-0.8c-0.1-0.1-0.2-0.2-0.3-0.3c-0.1-0.1-0.1-0.3-0.1-0.4
			c0-0.2,0.1-0.4,0.2-0.6c0.1-0.2,0.3-0.3,0.5-0.3c0.1,0,0.2,0,0.3,0.1c0.1,0,0.2,0.1,0.4,0.2c0.5,0.3,1,0.6,1.4,0.7
			c0.5,0.1,1,0.2,1.5,0.2c0.7,0,1.3-0.1,1.7-0.4s0.6-0.7,0.6-1.2c0-0.3-0.1-0.6-0.3-0.8c-0.2-0.2-0.5-0.3-0.8-0.5
			c-0.3-0.1-0.8-0.2-1.3-0.4c-0.8-0.2-1.5-0.4-2-0.6s-0.9-0.5-1.3-1c-0.4-0.4-0.5-1-0.5-1.7c0-0.9,0.3-1.6,0.9-2.2
			c0.6-0.6,1.4-1,2.4-1.1v-1c0-0.2,0.1-0.4,0.2-0.6c0.1-0.2,0.3-0.2,0.6-0.2s0.4,0.1,0.6,0.2c0.1,0.2,0.2,0.4,0.2,0.6v1
			c1.1,0.1,2,0.5,2.8,1.2c0.3,0.2,0.4,0.4,0.4,0.8c0,0.2-0.1,0.4-0.2,0.6c-0.1,0.2-0.3,0.3-0.5,0.3c-0.1,0-0.2,0-0.3,0
			c-0.1,0-0.2-0.1-0.4-0.2c-0.4-0.3-0.9-0.5-1.2-0.7c-0.4-0.2-0.9-0.2-1.4-0.2c-0.7,0-1.2,0.1-1.6,0.4s-0.6,0.7-0.6,1.2
			c0,0.4,0.1,0.6,0.3,0.9c0.2,0.2,0.5,0.4,0.8,0.5c0.3,0.1,0.8,0.3,1.4,0.4c0.8,0.2,1.4,0.4,1.9,0.6c0.5,0.2,0.9,0.5,1.3,0.9
			s0.5,1,0.5,1.7C303.1,144,302.8,144.7,302.2,145.3z"/>
		<path class="st0" d="M312.6,145.5c0,0.6-0.3,0.8-1,0.8h-5.4c-0.7,0-1-0.3-1-0.8c0-0.5,0.3-0.8,1-0.8h1.7v-7.3l-1.5,0.9
			c-0.1,0.1-0.3,0.1-0.4,0.1c-0.2,0-0.4-0.1-0.6-0.3c-0.2-0.2-0.2-0.4-0.2-0.6c0-0.3,0.1-0.5,0.4-0.7l2.5-1.5
			c0.3-0.2,0.6-0.3,0.9-0.3c0.3,0,0.5,0.1,0.7,0.3c0.2,0.2,0.3,0.4,0.3,0.8v8.7h1.7C312.3,144.6,312.6,144.9,312.6,145.5z"/>
		<path class="st0" d="M320.5,139.6c0.5,0.3,1,0.7,1.3,1.3c0.3,0.5,0.4,1.2,0.4,1.9c0,0.7-0.2,1.4-0.5,2s-0.8,1-1.4,1.3
			c-0.6,0.3-1.3,0.5-2.1,0.5c-0.7,0-1.3-0.1-1.9-0.3c-0.6-0.2-1.2-0.5-1.6-0.9c-0.2-0.2-0.4-0.5-0.4-0.8c0-0.2,0.1-0.4,0.2-0.6
			c0.1-0.2,0.3-0.2,0.5-0.2c0.1,0,0.2,0,0.3,0.1c0.1,0,0.2,0.1,0.3,0.2c0.4,0.3,0.8,0.5,1.2,0.7c0.4,0.2,0.8,0.2,1.3,0.2
			c0.7,0,1.2-0.2,1.6-0.5c0.4-0.4,0.6-0.9,0.6-1.5c0-0.6-0.2-1.1-0.6-1.5c-0.4-0.4-0.9-0.6-1.6-0.6c-0.4,0-0.8,0.1-1.1,0.2
			s-0.7,0.3-1,0.6c-0.2,0.1-0.4,0.2-0.6,0.2c-0.2,0-0.4-0.1-0.5-0.2s-0.2-0.3-0.2-0.5v-5c0-0.3,0.1-0.5,0.3-0.7
			c0.2-0.2,0.4-0.3,0.7-0.3h5.3c0.6,0,1,0.3,1,0.8c0,0.5-0.3,0.8-1,0.8h-4.3v3c0.5-0.4,1.2-0.6,2-0.6
			C319.3,139.1,319.9,139.2,320.5,139.6z"/>
	</g>
</g>
<g>
	<g>
		<path class="st1" d="M77.2,366.3c-2,0-3.9-1.2-4.6-3.1L61,334.7c0-0.1-0.1-0.2-0.1-0.3l-9.5-28.5c-0.3-0.8-0.5-1.7-0.5-2.7
			c-0.1-1.6,0.6-3.1,1.9-4.1c0,0,0,0,0,0c0,0,0.1-0.2,0.2-0.6c-0.1-1-0.2-2-0.2-2.9c0-4.4,1.2-8.6,3.4-12.4c-2.2-3.7-3.4-8-3.4-12.4
			c0-13.3,10.8-24,24-24c5.5,0,10.7,1.9,14.9,5.2l6.6-6.6c0.9-0.9,2.2-1.5,3.5-1.5l0,0c1.3,0,2.6,0.5,3.5,1.5l5.4,5.4
			c2,2,2,5.1,0,7.1l-10.1,10.1c0.1,0.9,0.2,1.9,0.2,2.8c0,4.4-1.2,8.7-3.4,12.4c2.2,3.7,3.4,8,3.4,12.4c0,1.3-0.1,2.6-0.3,3.9
			c2,1,3.1,3.2,2.6,5.5c0,0.1-0.1,0.5-0.2,0.9l-9.6,28.5c0,0.1-0.1,0.2-0.1,0.3l-11.5,28.6C81,365.1,79.2,366.3,77.2,366.3z"/>
		<path class="st1" d="M101.9,249l5.4,5.4l-12,12c0.4,1.4,0.6,3,0.6,4.5c0,4.7-1.7,9-4.6,12.4c0,0,0,0,0,0c0,0,0,0,0,0c0,0,0,0,0,0
			c2.9,3.3,4.6,7.6,4.6,12.4c0,2-0.3,3.9-0.8,5.6c0.7,1.5,1.9,2.4,3.3,2.7c0,0.1,0,0.2-0.1,0.2l-9.6,28.6l-11.5,28.6L71,346.1l0,0
			l-0.7-1.8l0,0l-4.6-11.4l-9.6-28.6c-0.2-0.4-0.2-0.8-0.2-1.2c0.9-0.7,1.6-1.8,1.9-3.3c0.1-0.1,0.2-0.1,0.4-0.2c0,0,0,0,0,0
			c0.1,0,0.2-0.1,0.3-0.1c0,0,0,0,0,0c0,0,0,0,0,0c-0.1,0-0.2,0.1-0.3,0.1c-0.3-1.3-0.4-2.6-0.4-4c0-4.7,1.7-9,4.6-12.4c0,0,0,0,0,0
			c-2.9-3.3-4.6-7.6-4.6-12.4c0-10.5,8.5-19,19-19c6.1,0,11.5,2.9,15,7.3L101.9,249 M87.9,273.8L87.9,273.8l-5.4-5.4l0,0L87.9,273.8
			 M72.6,277.1c0.2,0,0.3-0.1,0.5-0.1C72.9,277,72.8,277.1,72.6,277.1 M71.3,277.4c-0.1,0-0.1,0-0.2,0.1c-0.1,0-0.2,0.1-0.2,0.1
			c0.1,0,0.2-0.1,0.2-0.1C71.2,277.5,71.3,277.4,71.3,277.4 M69.6,278c-0.1,0-0.1,0-0.2,0.1c-0.1,0-0.1,0.1-0.2,0.1
			c0.1,0,0.1-0.1,0.2-0.1C69.5,278.1,69.6,278.1,69.6,278 M68,278.8c0,0-0.1,0-0.1,0.1c0,0-0.1,0-0.1,0.1c0,0,0.1,0,0.1-0.1
			C67.9,278.8,67.9,278.8,68,278.8 M86.3,279.1c0.1,0,0.2,0.1,0.2,0.1C86.4,279.2,86.3,279.2,86.3,279.1c0,0-0.1,0-0.1-0.1
			C86.2,279.1,86.2,279.1,86.3,279.1 M66.4,279.7C66.4,279.7,66.4,279.7,66.4,279.7c-0.1,0.1-0.1,0.1-0.1,0.1
			C66.3,279.8,66.3,279.8,66.4,279.7C66.4,279.7,66.4,279.7,66.4,279.7 M88.2,280.4C88.2,280.4,88.1,280.4,88.2,280.4
			C88.1,280.4,88.2,280.4,88.2,280.4 M65,280.8C64.9,280.8,64.9,280.8,65,280.8C64.9,280.8,64.9,280.8,65,280.8
			C64.9,280.8,64.9,280.8,65,280.8C64.9,280.8,64.9,280.8,65,280.8 M89.8,281.8C89.8,281.7,89.8,281.7,89.8,281.8
			C89.8,281.7,89.8,281.7,89.8,281.8 M63.6,282C63.6,282,63.6,282,63.6,282C63.6,282,63.6,282,63.6,282 M94.4,299.5
			c0.1,0.3,0.2,0.6,0.3,0.9C94.5,300.1,94.5,299.8,94.4,299.5c0,0,0-0.1,0-0.1C94.4,299.4,94.4,299.4,94.4,299.5 M88.1,304.2
			c-2.7,0-5-1.3-5.7-4.9h0C83.1,303,85.4,304.2,88.1,304.2 M64.2,304.2c2.7,0,5-1.3,5.7-4.9C69.1,303,66.9,304.2,64.2,304.2
			 M95,301.3c-0.1-0.3-0.3-0.6-0.4-0.9C94.8,300.7,94.9,301,95,301.3 M101.9,239c-2.7,0-5.2,1.1-7.1,2.9l-3.7,3.7
			c-4.3-2.5-9.2-3.8-14.3-3.8c-16,0-29,13-29,29c0,4.3,1,8.5,2.8,12.4c-1.8,3.8-2.8,8.1-2.8,12.4c0,0.5,0,1,0,1.5
			c-1.3,1.8-2,4-1.9,6.3c0,1.4,0.3,2.8,0.8,4.1l9.5,28.4c0.1,0.2,0.1,0.4,0.2,0.5l4.5,11.3c0,0.1,0,0.1,0.1,0.2l0.7,1.8
			c0,0,0,0.1,0,0.1l6.1,15.2c1.5,3.8,5.2,6.3,9.3,6.3s7.8-2.5,9.3-6.3l11.5-28.6c0.1-0.2,0.1-0.4,0.2-0.5l9.6-28.5
			c0.2-0.6,0.3-1.1,0.4-1.5c0.7-3.2-0.3-6.3-2.3-8.6c0-0.6,0.1-1.2,0.1-1.8c0-4.3-1-8.5-2.8-12.4c1.8-3.8,2.8-8.1,2.8-12.4
			c0-0.3,0-0.6,0-0.9l8.5-8.5c3.9-3.9,3.9-10.2,0-14.1L109,242C107.1,240.1,104.5,239,101.9,239L101.9,239z"/>
	</g>
	<g>
		<path class="st1" d="M138.8,324.9c-2,0-3.9-1.2-4.6-3.1l-11.5-28.6c0-0.1-0.1-0.2-0.1-0.3l-9.5-28.5c-0.3-0.8-0.5-1.7-0.5-2.7
			c-0.1-1.6,0.6-3.1,1.9-4.1c0,0,0,0,0,0c0,0,0.1-0.2,0.2-0.6c-0.1-1-0.2-2-0.2-2.9c0-0.1,0-0.3,0-0.4c-0.1-1-0.1-1.8-0.1-2.7
			c0-14.2,11.1-25.7,24.7-25.7s24.7,11.5,24.7,25.7c0,2.5-0.3,4.9-1,7.3c1.6,1.1,2.5,3.1,2.1,5.2c0,0.1-0.1,0.5-0.2,0.8l-9.6,28.5
			c0,0.1-0.1,0.2-0.1,0.3l-11.5,28.6C142.7,323.7,140.9,324.9,138.8,324.9z"/>
		<path class="st1" d="M139.1,230.4c10.9,0,19.7,9.3,19.7,20.7c0,3.2-0.7,6.2-1.9,8.9c0.7,1.4,1.8,2.1,3.1,2.5c0,0.1,0,0.2-0.1,0.2
			l-9.6,28.6l-11.5,28.6l-6.1-15.3l0,0l-0.7-1.8l0,0l-4.6-11.4l-9.6-28.6c-0.2-0.4-0.2-0.8-0.2-1.2c0.9-0.7,1.6-1.8,1.9-3.3
			c0.1-0.1,0.2-0.1,0.4-0.2c0,0,0,0,0,0c0.1,0,0.2-0.1,0.3-0.1c-0.1,0-0.2,0.1-0.3,0.1c-0.3-1.3-0.4-2.6-0.4-4c0-0.2,0-0.4,0-0.5
			c-0.1-0.8-0.2-1.7-0.2-2.5C119.3,239.7,128.2,230.4,139.1,230.4 M139.1,220.4c-16.4,0-29.7,13.8-29.7,30.7c0,0.9,0,1.8,0.1,2.8
			c0,0.1,0,0.2,0,0.2c0,0.5,0,1,0,1.5c-1.3,1.8-2,4-1.9,6.3c0,1.4,0.3,2.8,0.8,4.1l9.5,28.4c0.1,0.2,0.1,0.4,0.2,0.5l4.5,11.3
			c0,0.1,0,0.1,0.1,0.2l0.7,1.8c0,0,0,0.1,0,0.1l6.1,15.2c1.5,3.8,5.2,6.3,9.3,6.3s7.8-2.5,9.3-6.3l11.5-28.6
			c0.1-0.2,0.1-0.4,0.2-0.5l9.6-28.5c0.2-0.6,0.3-1.1,0.4-1.5c0.6-2.8,0-5.5-1.5-7.6c0.4-1.9,0.5-3.8,0.5-5.8
			C168.8,234.2,155.4,220.4,139.1,220.4L139.1,220.4z"/>
	</g>
	<g>
		<path class="st1" d="M197.3,309.7c-7.3,0-13.5-5.5-14.4-12.8c0,0-2.8-29.6-2.8-29.6l-1.5-15.1c-4.4-1.5-7.6-5.7-7.6-10.7
			c0-4.7,2.9-8.8,7.1-10.5c2.8-12.1,12.3-21.8,24.3-24.9c0.2-3.8,1.9-7.3,4.8-9.8c2.6-2.4,6-3.7,9.6-3.7h18.8c4.5,0,8.1,3.6,8.1,8.1
			c0,4.5-3.7,8.1-8.1,8.1h-9.9c8.6,4.5,15,12.6,17.2,22.2c4.2,1.7,7.1,5.7,7.1,10.5c0,4.9-3.2,9.2-7.6,10.7l-1.5,15.1
			c0,0-2.8,29.6-2.8,29.6c-0.9,7.3-7,12.8-14.4,12.8H197.3z"/>
		<path class="st1" d="M235.5,197.6c1.8,0,3.1,1.4,3.1,3.1c0,1.8-1.4,3.1-3.1,3.1h-18.8c-1.8,0-3.1,1.4-3.1,3.1v3.3
			c13.1,1.5,23.5,11.9,24.9,24.9h0.2c3.5,0,6.3,2.8,6.3,6.3c0,3.5-2.8,6.3-6.3,6.3h-1l-1.9,19l-2.8,29.5c-0.6,4.8-4.6,8.3-9.4,8.3
			h-13.2h-13.2c-4.8,0-8.8-3.6-9.4-8.3l-2.8-29.5l-1.9-19h-1c-3.5,0-6.3-2.8-6.3-6.3c0-3.5,2.8-6.3,6.3-6.3h0.2
			c1.5-13.1,11.8-23.5,24.9-24.9V207c0-2.8,1.2-5.3,3.1-7c1.6-1.5,3.8-2.4,6.3-2.4H235.5 M235.5,187.6h-18.8c-4.8,0-9.4,1.8-13,5
			c-2.9,2.6-4.9,6-5.9,9.7c-5.4,1.9-10.4,5-14.5,9.1c-4.5,4.5-7.8,10.1-9.6,16.2c-4.7,2.9-7.8,8-7.8,13.9c0,5.9,3.2,11.1,7.9,14
			l1.2,12.3l2.8,29.5c0,0.1,0,0.1,0,0.2c1.2,9.8,9.5,17.2,19.3,17.2h13.2h13.2c9.9,0,18.2-7.4,19.3-17.2c0-0.1,0-0.1,0-0.2l2.8-29.5
			l1.2-12.3c4.8-2.8,7.9-8,7.9-14c0-5.9-3.1-11.1-7.8-13.9c-1.5-5.2-4.2-10.1-7.8-14.3c5.4-1.6,9.4-6.7,9.4-12.6
			C248.7,193.5,242.8,187.6,235.5,187.6L235.5,187.6z"/>
	</g>
	<g>
		<path class="st1" d="M275.4,354.9c-4.9,0-8.9-3.9-9.1-8.8l-4.4-44.5c-0.2-0.5-0.3-0.9-0.4-1.5l-2-22c-4.3-1-7.6-4.9-7.6-9.5v-9.1
			c0-4.8,3.5-8.9,8.2-9.6v-3.3c0-5,4.1-9.1,9.1-9.1c0.1,0,0.2,0,0.3,0l59,4.1c4.6,0.1,8.4,3.7,8.8,8.3c4.6,0.8,8.2,4.8,8.2,9.6v9.1
			c0,4.6-3.2,8.5-7.5,9.5l-2,22c0,0.5-0.2,1-0.4,1.5l-4.4,44.5c-0.2,4.9-4.2,8.8-9.1,8.8H275.4z"/>
		<path class="st1" d="M269.2,242.5l59.1,4.1c2.3,0,4.1,1.8,4.1,4.1v4.1h3.4c2.6,0,4.8,2.2,4.8,4.8v9.1c0,2.6-2.2,4.8-4.8,4.8h-2.3
			l-2.4,26.3h-0.2l-4.6,46.1c0,2.2-1.8,4.1-4.1,4.1h-46.9c-2.2,0-4.1-1.8-4.1-4.1l-4.6-46.1h-0.2l-2.4-26.3h-2.4
			c-2.6,0-4.8-2.2-4.8-4.8v-9.1c0-2.6,2.2-4.8,4.8-4.8h3.4v-8.2C265.1,244.3,267,242.5,269.2,242.5 M269.2,232.5
			c-7.7,0-13.9,6.2-14.1,13.8c-4.8,2.4-8.2,7.4-8.2,13.2v9.1c0,5.7,3.2,10.6,7.9,13.1l1.7,18.9c0.1,0.7,0.2,1.4,0.4,2.1l4.3,43.7
			c0.3,7.5,6.5,13.4,14.1,13.4h46.9c7.5,0,13.7-6,14.1-13.4l4.3-43.7c0.2-0.7,0.4-1.4,0.4-2.1l1.7-19c4.6-2.5,7.8-7.4,7.8-13v-9.1
			c0-6.1-3.7-11.3-9-13.6c-1.9-5.3-6.9-9.2-12.8-9.3l-58.9-4.1C269.7,232.5,269.4,232.5,269.2,232.5L269.2,232.5z"/>
	</g>
</g>
<g>
	<path class="st9" d="M94.4,299.3h-0.6c-0.7,3.6-3,4.9-5.7,4.9s-5-1.3-5.7-4.9h-0.6c-0.7,3.6-3,4.9-5.7,4.9c-2.7,0-5-1.3-5.7-4.9
		h-0.6c-0.7,3.6-3,4.9-5.7,4.9c-2.7,0-4.9-1.2-5.7-4.7c-0.2,0.1-0.5,0.2-0.7,0.3c-0.4,1.5-1.1,2.6-1.9,3.3c0,0.4,0.1,0.8,0.2,1.2
		l9.6,28.6l11.5,28.6l11.5-28.6l9.6-28.6c0-0.1,0-0.2,0.1-0.2C96.4,303.5,94.9,302.1,94.4,299.3z"/>
	<g>
		
			<rect x="89.4" y="307.9" transform="matrix(0.7071 -0.7071 0.7071 0.7071 -192.3141 155.2586)" class="st10" width="3.8" height="3.8"/>
		
			<rect x="75.9" y="305.2" transform="matrix(0.7071 -0.7071 0.7071 0.7071 -194.3553 144.955)" class="st10" width="3.8" height="3.8"/>
		
			<rect x="81.3" y="310.6" transform="matrix(0.7071 -0.7071 0.7071 0.7071 -196.5881 150.3407)" class="st10" width="3.8" height="3.8"/>
		
			<rect x="86.7" y="315.9" transform="matrix(0.7072 -0.707 0.707 0.7072 -198.7914 155.6853)" class="st10" width="3.8" height="3.8"/>
		
			<rect x="67.8" y="307.9" transform="matrix(0.7071 -0.7071 0.7071 0.7071 -198.6237 140.0327)" class="st10" width="3.8" height="3.8"/>
		
			<rect x="73.2" y="313.3" transform="matrix(0.7071 -0.7071 0.7071 0.7071 -200.8561 145.4177)" class="st10" width="3.8" height="3.8"/>
		
			<rect x="78.6" y="318.6" transform="matrix(0.7071 -0.7071 0.7071 0.7071 -203.0831 150.8033)" class="st10" width="3.8" height="3.8"/>
		
			<rect x="84" y="324" transform="matrix(0.7071 -0.7071 0.7071 0.7071 -205.315 156.1877)" class="st10" width="3.8" height="3.8"/>
		
			<rect x="59.7" y="310.6" transform="matrix(0.7071 -0.7071 0.7071 0.7071 -202.8959 135.1101)" class="st10" width="3.8" height="3.8"/>
		
			<rect x="65.1" y="315.9" transform="matrix(0.7071 -0.7071 0.7071 0.7071 -205.1233 140.4921)" class="st10" width="3.8" height="3.8"/>
		
			<rect x="70.5" y="321.3" transform="matrix(0.7071 -0.7071 0.7071 0.7071 -207.3506 145.877)" class="st10" width="3.8" height="3.8"/>
		
			<rect x="75.9" y="326.7" transform="matrix(0.7071 -0.7071 0.7071 0.7071 -209.5831 151.2623)" class="st10" width="3.8" height="3.8"/>
		
			<rect x="81.3" y="332.1" transform="matrix(0.7071 -0.7071 0.7071 0.7071 -211.8142 156.6466)" class="st10" width="3.8" height="3.8"/>
		
			<rect x="67.8" y="329.4" transform="matrix(0.7071 -0.7071 0.7071 0.7071 -213.8515 146.3401)" class="st10" width="3.8" height="3.8"/>
		
			<rect x="73.2" y="334.8" transform="matrix(0.7071 -0.7071 0.7071 0.7071 -216.0848 151.7259)" class="st10" width="3.8" height="3.8"/>
		
			<rect x="78.6" y="340.2" transform="matrix(0.7071 -0.7071 0.7071 0.7071 -218.312 157.1118)" class="st10" width="3.8" height="3.8"/>
		
			<rect x="75.9" y="348.3" transform="matrix(0.7071 -0.7071 0.7071 0.7071 -224.8115 157.573)" class="st10" width="3.8" height="3.8"/>
		<polygon class="st10" points="71,346.1 72.4,347.5 75.1,344.8 72.4,342.1 70.3,344.2 		"/>
	</g>
	<path class="st11" d="M84.4,278.2v8.9c0,2.6-2.1,4.8-4.8,4.8s-4.8-2.1-4.8-4.8v-10.4c-9.6,1-17.1,9.1-17.1,18.9
		c0,1.4,0.1,2.7,0.4,4c0.1,0,0.2-0.1,0.3-0.1c0.8,3.5,3,4.7,5.7,4.7c2.7,0,5-1.3,5.7-4.9h0.6c0.7,3.6,3,4.9,5.7,4.9
		c2.7,0,5-1.3,5.7-4.9h0.6c0.7,3.6,3,4.9,5.7,4.9c2.7,0,5-1.3,5.7-4.9h0.6c0.2,0.7,0.4,1.4,0.6,1.9c0.6-1.8,0.8-3.7,0.8-5.6
		C95.9,287.8,91.2,281.2,84.4,278.2z"/>
	
		<rect x="81.2" y="257.6" transform="matrix(0.7071 -0.7071 0.7071 0.7071 -157.0517 143.6718)" class="st11" width="27.4" height="7.6"/>
	<path class="st12" d="M87.9,273.8l-5.4-5.4l9.2-9.2c-3.5-4.4-8.9-7.3-15-7.3c-10.5,0-19,8.5-19,19c0,4.7,1.7,9,4.6,12.4
		c3.1-3.6,7.5-6.1,12.5-6.6v10.4c0,2.6,2.1,4.8,4.8,4.8s4.8-2.1,4.8-4.8v-8.9c2.6,1.2,5,2.9,6.8,5.1c2.9-3.3,4.6-7.6,4.6-12.4
		c0-1.6-0.2-3.1-0.6-4.5L87.9,273.8z"/>
	
		<rect x="87.6" y="263.1" transform="matrix(0.7095 -0.7047 0.7047 0.7095 -162.0466 140.6064)" class="st13" width="3.8" height="7.5"/>
	
		<rect x="92.8" y="257.9" transform="matrix(0.7092 -0.705 0.705 0.7092 -156.9195 142.8557)" class="st13" width="3.8" height="7.5"/>
	
		<rect x="98.5" y="252.2" transform="matrix(0.7093 -0.7049 0.7049 0.7093 -151.2111 145.1745)" class="st13" width="3.8" height="7.5"/>
</g>
<g>
	<ellipse class="st11" cx="139.1" cy="251.1" rx="19.7" ry="20.7"/>
	<g>
		<path class="st9" d="M156,257.9h-0.6c-0.7,3.6-3,4.9-5.7,4.9s-5-1.3-5.7-4.9h-0.6c-0.7,3.6-3,4.9-5.7,4.9c-2.7,0-5-1.3-5.7-4.9
			h-0.6c-0.7,3.6-3,4.9-5.7,4.9c-2.7,0-4.9-1.2-5.7-4.7c-0.2,0.1-0.5,0.2-0.7,0.3c-0.4,1.5-1.1,2.6-1.9,3.3c0,0.4,0.1,0.8,0.2,1.2
			l9.6,28.6l11.5,28.6l11.5-28.6l9.6-28.6c0-0.1,0-0.2,0.1-0.2C158.1,262.1,156.6,260.7,156,257.9z"/>
		<g>
			
				<rect x="151" y="266.4" transform="matrix(0.7071 -0.7071 0.7071 0.7071 -144.9378 186.74)" class="st10" width="3.8" height="3.8"/>
			
				<rect x="137.6" y="263.7" transform="matrix(0.7071 -0.7071 0.7071 0.7071 -146.979 176.4364)" class="st10" width="3.8" height="3.8"/>
			
				<rect x="143" y="269.1" transform="matrix(0.7071 -0.7071 0.7071 0.7071 -149.2118 181.822)" class="st10" width="3.8" height="3.8"/>
			
				<rect x="148.4" y="274.5" transform="matrix(0.7072 -0.707 0.707 0.7072 -151.4254 187.1647)" class="st10" width="3.8" height="3.8"/>
			
				<rect x="129.5" y="266.4" transform="matrix(0.7071 -0.7071 0.7071 0.7071 -151.2474 171.5141)" class="st10" width="3.8" height="3.8"/>
			
				<rect x="134.9" y="271.8" transform="matrix(0.7071 -0.7071 0.7071 0.7071 -153.4797 176.8991)" class="st10" width="3.8" height="3.8"/>
			
				<rect x="140.3" y="277.2" transform="matrix(0.7071 -0.7071 0.7071 0.7071 -155.7067 182.2847)" class="st10" width="3.8" height="3.8"/>
			
				<rect x="145.7" y="282.6" transform="matrix(0.7071 -0.7071 0.7071 0.7071 -157.9387 187.6691)" class="st10" width="3.8" height="3.8"/>
			
				<rect x="121.4" y="269.1" transform="matrix(0.7071 -0.7071 0.7071 0.7071 -155.5196 166.5915)" class="st10" width="3.8" height="3.8"/>
			
				<rect x="126.8" y="274.5" transform="matrix(0.7071 -0.7071 0.7071 0.7071 -157.7469 171.9735)" class="st10" width="3.8" height="3.8"/>
			
				<rect x="132.2" y="279.9" transform="matrix(0.7071 -0.7071 0.7071 0.7071 -159.9743 177.3583)" class="st10" width="3.8" height="3.8"/>
			
				<rect x="137.6" y="285.3" transform="matrix(0.7071 -0.7071 0.7071 0.7071 -162.2068 182.7437)" class="st10" width="3.8" height="3.8"/>
			
				<rect x="143" y="290.7" transform="matrix(0.7071 -0.7071 0.7071 0.7071 -164.4379 188.128)" class="st10" width="3.8" height="3.8"/>
			
				<rect x="129.5" y="288" transform="matrix(0.7071 -0.7071 0.7071 0.7071 -166.4752 177.8215)" class="st10" width="3.8" height="3.8"/>
			
				<rect x="134.9" y="293.3" transform="matrix(0.7071 -0.7071 0.7071 0.7071 -168.7085 183.2073)" class="st10" width="3.8" height="3.8"/>
			
				<rect x="140.3" y="298.7" transform="matrix(0.7071 -0.7071 0.7071 0.7071 -170.9357 188.5932)" class="st10" width="3.8" height="3.8"/>
			
				<rect x="137.6" y="306.8" transform="matrix(0.7071 -0.7071 0.7071 0.7071 -177.4352 189.0543)" class="st10" width="3.8" height="3.8"/>
			<polygon class="st10" points="132.7,304.6 134.1,306 136.8,303.3 134.1,300.6 132,302.8 			"/>
		</g>
		<path class="st11" d="M146.1,236.8l-9.5-1.5c-9.6,1-17.1,9.1-17.1,18.9c0,1.4,0.1,2.7,0.4,4c0.1,0,0.2-0.1,0.3-0.1
			c0.8,3.5,3,4.7,5.7,4.7c2.7,0,5-1.3,5.7-4.9h0.6c0.7,3.6,3,4.9,5.7,4.9s5-1.3,5.7-4.9h0.6c0.7,3.6,3,4.9,5.7,4.9
			c2.7,0,5-1.3,5.7-4.9h0.6c0.2,0.7,0.4,1.4,0.6,1.9c0.6-1.8,0.8-3.7,0.8-5.6C157.5,246.4,155.6,237.4,146.1,236.8z"/>
	</g>
</g>
<g>
	<path class="st14" d="M238.7,238.4c0,1.8-1.4,3.1-3.1,3.1h-50.2c-1.8,0-3.1-1.4-3.1-3.1c0-14.5,11-26.5,25.1-28
		c1-0.1,2.1-0.2,3.1-0.2c1.1,0,2.1,0.1,3.1,0.2C227.7,211.9,238.7,223.9,238.7,238.4z"/>
	<path class="st15" d="M238.7,238.4c0,1.8-1.4,3.1-3.1,3.1h-25.1v-31.4c1.1,0,2.1,0.1,3.1,0.2C227.7,211.9,238.7,223.9,238.7,238.4z
		"/>
	<path class="st14" d="M238,245l-2.1,21.8l-6.9,6.5h-37l-6.9-6.5l-2.1-21.8c-0.2-1.8,1.1-3.3,2.8-3.5h49.4
		C236.9,241.7,238.2,243.3,238,245z"/>
	<path class="st15" d="M238,245l-2.1,21.8l-6.9,6.5h-18.5v-31.8h24.7C236.9,241.7,238.2,243.3,238,245z"/>
	<path class="st16" d="M213.6,244.7V270c0,1.8-1.4,3.3-3.1,3.3c-1.8,0-3.1-1.6-3.1-3.3v-25.3c0-1.8,1.4-3.1,3.1-3.1
		C212.2,241.5,213.6,242.9,213.6,244.7z"/>
	<path class="st17" d="M235.8,266.8l-2.8,29.5c-0.6,4.8-4.6,8.3-9.4,8.3h-26.3c-4.8,0-8.8-3.6-9.4-8.3l-2.8-29.5H235.8z"/>
	<path class="st18" d="M210.4,266.8h25.4l-2.8,29.5c-0.6,4.8-4.6,8.3-9.4,8.3h-13.2V266.8z"/>
	<path class="st19" d="M238.7,200.8c0,1.8-1.4,3.1-3.1,3.1h-18.8c-1.8,0-3.1,1.4-3.1,3.1v3.3c-1-0.1-2.1-0.2-3.1-0.2
		c-1.1,0-2.1,0.1-3.1,0.2V207c0-2.8,1.2-5.3,3.1-7c1.6-1.5,3.8-2.4,6.3-2.4h18.8C237.3,197.6,238.7,199,238.7,200.8z"/>
	<g>
		<path class="st16" d="M213.6,210.4v28c0,1.8-1.4,3.1-3.1,3.1c-1.8,0-3.1-1.4-3.1-3.1v-28c1-0.1,2.1-0.2,3.1-0.2
			C211.5,210.2,212.6,210.2,213.6,210.4z"/>
		<circle class="st16" cx="204.2" cy="289" r="3.1"/>
	</g>
	<circle class="st19" cx="216.7" cy="282.7" r="3.1"/>
	<path class="st15" d="M244.9,241.5c0,3.5-2.8,6.3-6.3,6.3h-56.5c-3.5,0-6.3-2.8-6.3-6.3c0-3.5,2.8-6.3,6.3-6.3h56.5
		C242.1,235.3,244.9,238.1,244.9,241.5z"/>
	<path class="st20" d="M244.9,241.5c0,3.5-2.8,6.3-6.3,6.3h-28.2v-12.5h28.2C242.1,235.3,244.9,238.1,244.9,241.5z"/>
</g>
<g>
	<g>
		<path class="st21" d="M335.8,273.4h-74.1c-2.6,0-4.8-2.2-4.8-4.8v-9.1c0-2.6,2.2-4.8,4.8-4.8h74.1c2.6,0,4.8,2.2,4.8,4.8v9.1
			C340.6,271.3,338.4,273.4,335.8,273.4z"/>
		<path class="st22" d="M332.4,254.7h-67.3v-8.2c0-2.3,1.8-4.1,4.1-4.1l59.1,4.1c2.3,0,4.1,1.8,4.1,4.1V254.7z"/>
		<path class="st11" d="M264.1,273.4l7.2,72.4c0,2.2,1.8,4.1,4.1,4.1h46.9c2.2,0,4.1-1.8,4.1-4.1l7.2-72.4H264.1z"/>
		<g>
			<path class="st22" d="M282.6,299.7c3.7-4.9,9.6-8.2,16.3-8.2c6.7,0,12.6,3.2,16.3,8.2h16l2.4-26.3h-69.4l2.4,26.3H282.6z"/>
		</g>
	</g>
	<g>
		<path class="st1" d="M284.1,330c-0.8-0.5-1.4-1.1-1.9-2c-0.4-0.9-0.7-1.9-0.7-3.1c0-1.2,0.2-2.2,0.7-3.1s1.1-1.5,1.9-2
			c0.8-0.5,1.8-0.7,2.9-0.7c0.7,0,1.4,0.1,2,0.3c0.6,0.2,1.2,0.5,1.6,0.9c0.1,0.1,0.2,0.2,0.3,0.3s0.1,0.3,0.1,0.4
			c0,0.2-0.1,0.4-0.2,0.6c-0.1,0.2-0.3,0.2-0.5,0.2c-0.2,0-0.4-0.1-0.7-0.2c-0.5-0.3-0.9-0.6-1.3-0.7s-0.8-0.2-1.3-0.2
			c-1.1,0-1.9,0.3-2.5,1s-0.9,1.7-0.9,3.1c0,1.4,0.3,2.4,0.9,3.1s1.4,1,2.5,1c0.5,0,0.9-0.1,1.3-0.2s0.8-0.4,1.3-0.7
			c0.1-0.1,0.2-0.1,0.3-0.2c0.1,0,0.2-0.1,0.3-0.1c0.2,0,0.3,0.1,0.5,0.2c0.1,0.2,0.2,0.4,0.2,0.6c0,0.2,0,0.3-0.1,0.4
			c-0.1,0.1-0.1,0.2-0.3,0.3c-0.5,0.4-1,0.7-1.6,0.9c-0.6,0.2-1.3,0.3-2,0.3C285.9,330.7,284.9,330.5,284.1,330z"/>
		<path class="st1" d="M298.3,323.4c0.5,0.5,0.8,1.4,0.8,2.5v3.9c0,0.3-0.1,0.5-0.3,0.7c-0.2,0.2-0.4,0.2-0.7,0.2
			c-0.3,0-0.5-0.1-0.7-0.3s-0.3-0.4-0.3-0.7v-0.4c-0.2,0.4-0.5,0.7-0.9,1c-0.4,0.2-0.8,0.4-1.4,0.4c-0.5,0-1-0.1-1.4-0.3
			c-0.4-0.2-0.8-0.5-1-0.9c-0.2-0.4-0.4-0.8-0.4-1.2c0-0.6,0.1-1,0.4-1.4c0.3-0.3,0.8-0.6,1.4-0.7c0.7-0.1,1.6-0.2,2.7-0.2h0.4v-0.4
			c0-0.5-0.1-0.9-0.3-1.1c-0.2-0.2-0.6-0.4-1.1-0.4c-0.3,0-0.6,0-0.9,0.1c-0.3,0.1-0.7,0.2-1.1,0.4c-0.3,0.1-0.5,0.2-0.6,0.2
			c-0.2,0-0.3-0.1-0.5-0.2c-0.1-0.1-0.2-0.3-0.2-0.5c0-0.2,0-0.3,0.1-0.5c0.1-0.1,0.2-0.3,0.5-0.4c0.4-0.2,0.8-0.4,1.3-0.5
			c0.5-0.1,1-0.2,1.5-0.2C296.9,322.6,297.7,322.8,298.3,323.4z M296.6,328.7c0.3-0.4,0.5-0.8,0.5-1.4V327h-0.3
			c-0.7,0-1.3,0-1.7,0.1c-0.4,0.1-0.7,0.2-0.8,0.3c-0.2,0.2-0.3,0.4-0.3,0.7c0,0.3,0.1,0.6,0.4,0.8s0.5,0.3,0.9,0.3
			C295.9,329.3,296.3,329.1,296.6,328.7z"/>
		<path class="st1" d="M304,321.2c-0.2,0.3-0.3,0.7-0.3,1.2v0.4h1.4c0.6,0,0.9,0.3,0.9,0.8c0,0.5-0.3,0.8-0.9,0.8h-1.4v5.5
			c0,0.3-0.1,0.5-0.3,0.7s-0.4,0.2-0.7,0.2s-0.5-0.1-0.7-0.2s-0.3-0.4-0.3-0.7v-5.5h-0.8c-0.6,0-0.9-0.2-0.9-0.8
			c0-0.5,0.3-0.8,0.9-0.8h0.8v-0.1c0-1,0.3-1.8,0.8-2.4s1.3-0.9,2.2-1l0.4,0c0.4,0,0.7,0,0.9,0.1c0.2,0.1,0.3,0.3,0.3,0.6
			c0,0.5-0.3,0.7-0.8,0.8l-0.4,0C304.6,320.8,304.2,321,304,321.2z"/>
		<path class="st1" d="M313.4,328.6c0.1,0.1,0.2,0.3,0.2,0.6c0,0.3-0.2,0.6-0.6,0.8c-0.4,0.2-0.8,0.4-1.2,0.5
			c-0.5,0.1-0.9,0.2-1.3,0.2c-1.3,0-2.3-0.4-3-1.1s-1.1-1.7-1.1-3c0-0.8,0.2-1.5,0.5-2.1c0.3-0.6,0.8-1.1,1.4-1.4
			c0.6-0.3,1.2-0.5,2-0.5c0.7,0,1.3,0.2,1.8,0.5s0.9,0.7,1.2,1.3s0.4,1.2,0.4,2c0,0.5-0.2,0.7-0.6,0.7h-4.7c0.1,0.7,0.3,1.3,0.6,1.6
			c0.4,0.3,0.9,0.5,1.5,0.5c0.3,0,0.6,0,0.9-0.1c0.3-0.1,0.6-0.2,0.9-0.4c0.3-0.2,0.6-0.3,0.7-0.3
			C313.1,328.4,313.3,328.5,313.4,328.6z M308.9,324.5c-0.3,0.3-0.5,0.8-0.6,1.5h3.6c0-0.7-0.2-1.1-0.5-1.5
			c-0.3-0.3-0.7-0.5-1.2-0.5C309.6,324,309.2,324.1,308.9,324.5z M310.2,321.8c-0.1,0-0.3-0.1-0.4-0.2s-0.2-0.2-0.2-0.4
			c0-0.1,0-0.2,0.1-0.4l1.6-2.1c0.2-0.3,0.5-0.5,0.8-0.5c0.2,0,0.4,0.1,0.6,0.2c0.2,0.2,0.2,0.4,0.2,0.6c0,0.3-0.1,0.6-0.4,0.8
			l-2.1,1.7C310.4,321.8,310.3,321.8,310.2,321.8z"/>
	</g>
</g>
</svg>
