<?xml version="1.0" encoding="utf-8"?>
<!-- Generator: Adobe Illustrator 22.1.0, SVG Export Plug-In . SVG Version: 6.00 Build 0)  -->
<svg version="1.1" id="Layer_1" xmlns="http://www.w3.org/2000/svg" xmlns:xlink="http://www.w3.org/1999/xlink" x="0px" y="0px"
	 viewBox="0 0 184.7 40" style="enable-background:new 0 0 184.7 40;" xml:space="preserve">
<style type="text/css">
	.st0{fill:#637BA1;}
	.st1{fill:#FFFFFF;}
	.st2{fill:#FBD490;}
	.st3{fill:#EEAF4B;}
	.st4{fill:#4C312C;}
	.st5{fill:#FFF5BB;}
	.st6{fill:#A46F3E;}
	.st7{fill:#CAE8F9;}
	.st8{fill:#B7E0F6;}
	.st9{fill:#BF6015;}
	.st10{fill:#FEC478;}
	.st11{fill:#FEB756;}
	.st12{fill:#994C10;}
	.st13{fill:#A4D9F5;}
	.st14{fill:#D2D5D7;}
	.st15{fill:#E6E6E6;}
</style>
<g>
	<path class="st0" d="M184.7,0H0v40h184.7V0L184.7,0z"/>
</g>
<g>
	<g>
		<path class="st1" d="M73.6,37.1c-0.6,0-1.2-0.4-1.4-0.9L69,28.2l-2.7-8c-0.1-0.2-0.1-0.5-0.1-0.7c0-0.5,0.2-0.9,0.6-1.2l0,0
			c0,0,0,0,0-0.1c0-0.3,0-0.5,0-0.8c0-1.2,0.3-2.4,0.9-3.4c-0.6-1-0.9-2.2-0.9-3.4c0-3.7,3-6.8,6.8-6.8c1.5,0,3,0.5,4.1,1.4l1.8-1.8
			c0.3-0.3,0.7-0.4,1.1-0.4l0,0c0.4,0,0.8,0.2,1.1,0.4L83,4.8c0.6,0.6,0.6,1.5,0,2.1l-2.8,2.8c0,0.2,0,0.5,0,0.7
			c0,1.2-0.3,2.4-0.9,3.4c0.6,1,0.9,2.2,0.9,3.4c0,0.3,0,0.7-0.1,1c0.6,0.3,0.9,0.9,0.7,1.6c0,0.1-0.1,0.2-0.1,0.3l-2.6,7.9l-3.2,8
			C74.7,36.7,74.2,37.1,73.6,37.1z"/>
		<path class="st1" d="M80.5,4.4L82,5.9l-3.3,3.3c0.1,0.4,0.2,0.8,0.2,1.3c0,1.3-0.5,2.5-1.3,3.4c0,0,0,0,0,0
			c0.8,0.9,1.3,2.1,1.3,3.5c0,0.5-0.1,1.1-0.2,1.6c0.2,0.4,0.5,0.7,0.9,0.8c0,0,0,0,0,0.1l-2.7,7.9l-3.2,7.9l-1.7-4.2l0,0l-0.2-0.5
			l0,0l-1.3-3.2l-2.7-7.9c0-0.1-0.1-0.2-0.1-0.3c0.2-0.2,0.4-0.5,0.5-0.9c0,0,0.1,0,0.1,0c0,0,0,0,0,0c0,0,0.1,0,0.1,0c0,0,0,0,0,0
			c0,0,0,0,0,0c0,0-0.1,0-0.1,0c-0.1-0.4-0.1-0.7-0.1-1.1c0-1.3,0.5-2.5,1.3-3.5c0,0,0,0,0,0c-0.8-0.9-1.3-2.1-1.3-3.4
			c0-2.9,2.4-5.3,5.3-5.3c1.7,0,3.2,0.8,4.2,2L80.5,4.4 M76.6,11.3L76.6,11.3l-1.5-1.5l0,0L76.6,11.3 M72,12.3c0,0-0.1,0-0.1,0
			c0,0-0.1,0-0.1,0.1c0,0,0.1,0,0.1-0.1C71.9,12.3,71.9,12.3,72,12.3 M76.2,12.8c-0.2-0.1-0.4-0.2-0.6-0.3
			C75.8,12.6,76,12.7,76.2,12.8 M71,12.7c0,0-0.1,0-0.1,0.1c0,0-0.1,0-0.1,0.1c0,0,0.1,0,0.1-0.1C71,12.7,71,12.7,71,12.7
			 M76.6,13.1c0.1,0.1,0.1,0.1,0.2,0.2C76.7,13.2,76.6,13.1,76.6,13.1c-0.1,0-0.1-0.1-0.2-0.1C76.5,13,76.5,13,76.6,13.1 M70.2,13.2
			c0,0-0.1,0.1-0.1,0.1c0,0,0,0-0.1,0.1c0,0,0,0,0.1-0.1C70.1,13.3,70.2,13.2,70.2,13.2 M77.2,13.6c0,0,0.1,0.1,0.1,0.1
			C77.2,13.6,77.2,13.6,77.2,13.6c-0.1-0.1-0.1-0.1-0.2-0.2C77.1,13.4,77.1,13.5,77.2,13.6 M78.5,18.9c-0.1-0.2-0.1-0.3-0.2-0.5
			C78.4,18.6,78.5,18.8,78.5,18.9 M76.6,19.7c-0.8,0-1.4-0.4-1.6-1.4h0C75.2,19.4,75.9,19.7,76.6,19.7 M70.3,19.7
			c0.6-0.1,1.1-0.5,1.3-1.3C71.4,19.3,70.9,19.6,70.3,19.7 M80.5,1.4c-0.8,0-1.6,0.3-2.1,0.9l-0.9,0.9c-1.2-0.6-2.5-1-3.9-1
			c-4.6,0-8.3,3.7-8.3,8.3c0,1.2,0.3,2.4,0.8,3.4c-0.5,1.1-0.8,2.2-0.8,3.4c0,0.1,0,0.2,0,0.4c-0.4,0.5-0.6,1.2-0.5,1.8
			c0,0.4,0.1,0.8,0.2,1.2l2.6,7.9c0,0.1,0,0.1,0.1,0.2l1.3,3.2l0.2,0.5l1.7,4.2c0.5,1.1,1.6,1.9,2.8,1.9c0,0,0,0,0,0
			c1.2,0,2.3-0.7,2.8-1.9l3.2-7.9c0-0.1,0-0.1,0.1-0.2l2.7-7.9c0.1-0.2,0.1-0.3,0.1-0.4c0.2-0.9-0.1-1.8-0.6-2.5c0-0.1,0-0.3,0-0.4
			c0-1.2-0.3-2.4-0.8-3.4c0.5-1.1,0.8-2.2,0.8-3.4c0-0.1,0-0.1,0-0.2L84.1,8C84.6,7.4,85,6.7,85,5.9c0-0.8-0.3-1.6-0.9-2.1l-1.5-1.5
			C82,1.7,81.3,1.4,80.5,1.4L80.5,1.4z"/>
	</g>
	<g>
		<path class="st1" d="M44.1,37.1c-0.6,0-1.2-0.4-1.4-0.9l-3.2-7.9l-2.7-8c-0.1-0.2-0.1-0.5-0.1-0.8c0-0.5,0.2-0.9,0.6-1.2l0,0
			c0,0,0,0,0-0.1c0-0.3,0-0.5,0-0.8c0-1.2,0.3-2.4,0.9-3.4c-0.6-1-0.9-2.2-0.9-3.4c0-3.7,3-6.8,6.8-6.8c1.5,0,3,0.5,4.1,1.4l1.8-1.8
			c0.3-0.3,0.7-0.4,1.1-0.4l0,0c0.4,0,0.8,0.2,1.1,0.4l1.5,1.5c0.6,0.6,0.6,1.5,0,2.1l-2.8,2.8c0,0.2,0,0.5,0,0.7
			c0,1.2-0.3,2.4-0.9,3.4c0.6,1,0.9,2.2,0.9,3.4c0,0.3,0,0.7-0.1,1c0.6,0.3,0.8,0.9,0.7,1.6c0,0.1-0.1,0.2-0.1,0.3l-2.6,7.9l-3.2,8
			C45.3,36.7,44.7,37.1,44.1,37.1z"/>
		<path class="st1" d="M51,4.4l1.5,1.5l-3.3,3.3c0.1,0.4,0.2,0.8,0.2,1.3c0,1.3-0.5,2.5-1.3,3.4c0,0,0,0,0,0
			c0.8,0.9,1.3,2.1,1.3,3.5c0,0.5-0.1,1.1-0.2,1.6c0.2,0.4,0.5,0.7,0.9,0.8c0,0,0,0,0,0.1l-2.7,7.9l-3.2,7.9l-1.7-4.2l0,0l-0.2-0.5
			l0,0l-1.3-3.2l-2.7-7.9c0-0.1-0.1-0.2-0.1-0.3c0.2-0.2,0.4-0.5,0.5-0.9c0,0,0.1,0,0.1,0c0,0,0,0,0,0c0,0,0.1,0,0.1,0c0,0,0,0,0,0
			c0,0,0,0,0,0c0,0-0.1,0-0.1,0c-0.1-0.4-0.1-0.7-0.1-1.1c0-1.3,0.5-2.5,1.3-3.5c0,0,0,0,0,0c-0.8-0.9-1.3-2.1-1.3-3.4
			c0-2.9,2.4-5.3,5.3-5.3c1.7,0,3.2,0.8,4.2,2L51,4.4 M47.1,11.3L47.1,11.3l-1.5-1.5l0,0L47.1,11.3 M42.5,12.3
			C42.5,12.3,42.5,12.3,42.5,12.3c-0.1,0-0.2,0.1-0.2,0.1C42.3,12.4,42.4,12.3,42.5,12.3C42.5,12.3,42.5,12.3,42.5,12.3 M46.8,12.8
			c-0.2-0.1-0.4-0.2-0.6-0.3C46.4,12.6,46.6,12.7,46.8,12.8 M41.6,12.7c0,0-0.1,0-0.1,0.1c0,0-0.1,0-0.1,0.1c0,0,0.1,0,0.1-0.1
			C41.5,12.7,41.5,12.7,41.6,12.7 M47.1,13c0.1,0.1,0.2,0.1,0.2,0.2C47.2,13.2,47.2,13.1,47.1,13C47,13,47,13,47,13
			C47,13,47,13,47.1,13 M40.8,13.2C40.7,13.2,40.7,13.3,40.8,13.2c-0.1,0.1-0.2,0.1-0.2,0.2C40.6,13.3,40.6,13.3,40.8,13.2
			C40.7,13.3,40.7,13.2,40.8,13.2 M47.7,13.6c0,0,0.1,0.1,0.1,0.1C47.8,13.6,47.7,13.6,47.7,13.6c-0.1-0.1-0.1-0.1-0.2-0.2
			C47.6,13.4,47.7,13.5,47.7,13.6 M49,18.8C49,18.8,49,18.8,49,18.8C49,18.8,49,18.8,49,18.8C49.1,18.8,49.1,18.9,49,18.8
			C49.1,18.9,49.1,18.9,49,18.8C49.1,18.9,49.1,18.9,49,18.8C49.1,18.9,49.1,18.8,49,18.8C49,18.8,49,18.8,49,18.8
			C49,18.8,49,18.8,49,18.8c-0.1-0.1-0.1-0.3-0.1-0.4C48.9,18.5,49,18.7,49,18.8 M47.2,19.7c-0.8,0-1.4-0.4-1.6-1.4h0
			C45.8,19.4,46.4,19.7,47.2,19.7 M40.5,19.7c0.8,0,1.4-0.4,1.6-1.4C41.9,19.4,41.3,19.7,40.5,19.7 M51,1.4c-0.8,0-1.6,0.3-2.1,0.9
			L48,3.2c-1.2-0.6-2.5-1-3.9-1c-4.6,0-8.3,3.7-8.3,8.3c0,1.2,0.3,2.4,0.8,3.4c-0.5,1.1-0.8,2.2-0.8,3.4c0,0.1,0,0.2,0,0.4
			c-0.4,0.5-0.6,1.2-0.5,1.8c0,0.4,0.1,0.8,0.2,1.2l2.6,7.9c0,0.1,0,0.1,0.1,0.2l1.3,3.2l0.2,0.5l1.7,4.2c0.5,1.1,1.6,1.9,2.8,1.9
			c0,0,0,0,0,0c1.2,0,2.3-0.7,2.8-1.9l3.2-7.9c0-0.1,0-0.1,0.1-0.2l2.7-7.9c0.1-0.2,0.1-0.3,0.1-0.4c0.2-0.9-0.1-1.8-0.6-2.5
			c0-0.1,0-0.3,0-0.4c0-1.2-0.3-2.4-0.7-3.4c0.5-1.1,0.7-2.2,0.7-3.4c0-0.1,0-0.1,0-0.2L54.6,8c0.6-0.6,0.9-1.3,0.9-2.1
			c0-0.8-0.3-1.6-0.9-2.1l-1.5-1.5C52.6,1.7,51.8,1.4,51,1.4L51,1.4z"/>
	</g>
	<g>
		<path class="st1" d="M15.9,33.9c-0.6,0-1.2-0.4-1.4-0.9l-3.2-7.9l-2.7-8c-0.1-0.2-0.1-0.5-0.1-0.7c0-0.5,0.2-0.9,0.6-1.2
			c0,0,0,0,0-0.1c0-0.3,0-0.5,0-0.8c0,0,0-0.1,0-0.1c0-0.2,0-0.5,0-0.8c0-4,3.1-7.3,7-7.3s7,3.3,7,7.3c0,0.7-0.1,1.3-0.3,2
			c0.5,0.3,0.7,0.9,0.6,1.5c0,0.1-0.1,0.2-0.1,0.3L20.5,25l-3.2,8C17.1,33.6,16.5,33.9,15.9,33.9L15.9,33.9z"/>
		<path class="st1" d="M16,7.6c3,0,5.5,2.6,5.5,5.8c0,0.9-0.2,1.7-0.5,2.5c0.2,0.4,0.5,0.6,0.9,0.7c0,0,0,0,0,0.1l-2.7,7.9l-3.2,7.9
			l-1.7-4.2l0,0L14,27.7l0,0l-1.3-3.2l-2.7-7.9c0-0.1-0.1-0.2-0.1-0.3c0.2-0.2,0.4-0.5,0.5-0.9c0,0,0.1,0,0.1,0c0,0,0,0,0,0
			c0,0,0.1,0,0.1,0c0,0,0,0,0,0c0,0,0,0,0,0c0,0-0.1,0-0.1,0c-0.1-0.4-0.1-0.7-0.1-1.1c0,0,0-0.1,0-0.1c0-0.2,0-0.5,0-0.7
			C10.5,10.1,12.9,7.6,16,7.6 M16,4.6c-4.7,0-8.5,3.9-8.5,8.8c0,0.3,0,0.5,0,0.8c0,0,0,0,0,0.1c0,0.1,0,0.2,0,0.4
			C7.2,15.1,7,15.7,7,16.3c0,0.4,0.1,0.8,0.2,1.2l2.6,7.9c0,0.1,0,0.1,0.1,0.2l1.3,3.2l0.2,0.5l1.7,4.2c0.5,1.1,1.6,1.9,2.8,1.9
			c0,0,0,0,0,0c1.2,0,2.3-0.7,2.8-1.9l3.2-7.9c0-0.1,0-0.1,0.1-0.2l2.7-7.9c0.1-0.2,0.1-0.3,0.1-0.4c0.2-0.8,0-1.6-0.4-2.2
			c0.1-0.5,0.1-1,0.1-1.6C24.4,8.5,20.6,4.6,16,4.6L16,4.6z"/>
	</g>
	<g>
		<path class="st1" d="M100.6,36.4c-2.1,0-3.9-1.6-4.1-3.6l-0.8-8.2l-0.4-4.1c-1.2-0.5-2.1-1.6-2.1-3c0-1.3,0.8-2.5,2-3
			c0.8-3.4,3.4-6,6.7-6.9c0.1-1.1,0.6-2,1.4-2.7c0.7-0.7,1.7-1,2.7-1h5.2c1.3,0,2.4,1.1,2.4,2.4s-1.1,2.4-2.4,2.4h-2.3
			c2.2,1.3,3.9,3.4,4.4,6c1.2,0.5,2,1.6,2,3c0,1.4-0.9,2.6-2.1,3l-0.4,4.1l-0.8,8.2c-0.2,2.1-2,3.7-4.1,3.7H100.6z"/>
		<path class="st1" d="M111.3,5.1c0.5,0,0.9,0.4,0.9,0.9c0,0.5-0.4,0.9-0.9,0.9H106c-0.5,0-0.9,0.4-0.9,0.9v0.9
			c3.6,0.4,6.5,3.3,6.9,6.9h0.1c1,0,1.7,0.8,1.7,1.7c0,1-0.8,1.7-1.7,1.7h-0.3l-0.5,5.3l-0.8,8.2c-0.2,1.3-1.3,2.3-2.6,2.3h-3.7
			h-3.7c-1.3,0-2.5-1-2.6-2.3l-0.8-8.2l-0.5-5.3h-0.3c-1,0-1.7-0.8-1.7-1.7c0-1,0.8-1.7,1.7-1.7h0.1c0.4-3.6,3.3-6.5,6.9-6.9V7.7
			c0-0.8,0.3-1.5,0.9-1.9c0.5-0.4,1.1-0.7,1.7-0.7H111.3 M111.3,2.1H106c-1.4,0-2.7,0.5-3.7,1.4c-0.8,0.7-1.4,1.7-1.7,2.7
			c-3.2,1.2-5.7,3.8-6.7,7.1c-1.3,0.8-2.2,2.3-2.2,4c0,1.7,0.9,3.2,2.2,4l0.3,3.3l0.8,8.2c0,0,0,0,0,0.1c0.3,2.8,2.7,5,5.6,5h3.7
			h3.7c2.9,0,5.3-2.1,5.6-5c0,0,0,0,0-0.1l0.8-8.2l0.3-3.3c1.3-0.8,2.2-2.3,2.2-4c0-1.7-0.9-3.2-2.2-4c-0.4-1.4-1.1-2.6-2-3.7
			c1.4-0.6,2.5-2,2.5-3.6C115.1,3.9,113.4,2.1,111.3,2.1L111.3,2.1z"/>
	</g>
	<g>
		<path class="st1" d="M130.1,36.4c-2.1,0-3.9-1.6-4.1-3.6l-0.8-8.2l-0.4-4.1c-1.2-0.5-2.1-1.6-2.1-3c0-1.3,0.8-2.5,2-3
			c0.8-3.4,3.4-6,6.7-6.9c0.1-1.1,0.6-2,1.4-2.7c0.7-0.7,1.7-1,2.7-1h5.2c1.3,0,2.4,1.1,2.4,2.4s-1.1,2.4-2.4,2.4h-2.3
			c2.2,1.3,3.9,3.4,4.4,6c1.2,0.5,2,1.6,2,3c0,1.4-0.9,2.6-2.1,3l-0.4,4.1l-0.8,8.2c-0.2,2.1-2,3.7-4.1,3.7H130.1z"/>
		<path class="st1" d="M140.7,5.1c0.5,0,0.9,0.4,0.9,0.9c0,0.5-0.4,0.9-0.9,0.9h-5.2c-0.5,0-0.9,0.4-0.9,0.9v0.9
			c3.6,0.4,6.5,3.3,6.9,6.9h0.1c1,0,1.7,0.8,1.7,1.7c0,1-0.8,1.7-1.7,1.7h-0.3l-0.5,5.3l-0.8,8.2c-0.2,1.3-1.3,2.3-2.6,2.3h-3.7
			h-3.7c-1.3,0-2.5-1-2.6-2.3l-0.8-8.2l-0.5-5.3h-0.3c-1,0-1.7-0.8-1.7-1.7c0-1,0.8-1.7,1.7-1.7h0.1c0.4-3.6,3.3-6.5,6.9-6.9V7.7
			c0-0.8,0.3-1.5,0.9-1.9c0.5-0.4,1.1-0.7,1.7-0.7H140.7 M140.7,2.1h-5.2c-1.4,0-2.7,0.5-3.7,1.4c-0.8,0.7-1.4,1.7-1.7,2.7
			c-3.2,1.2-5.7,3.8-6.7,7.1c-1.3,0.8-2.2,2.3-2.2,4c0,1.7,0.9,3.2,2.2,4l0.3,3.3l0.8,8.2c0,0,0,0,0,0.1c0.3,2.8,2.7,5,5.6,5h3.7
			h3.7c2.9,0,5.3-2.1,5.6-5c0,0,0,0,0-0.1l0.8-8.2l0.3-3.3c1.3-0.8,2.2-2.3,2.2-4c0-1.7-0.9-3.2-2.2-4c-0.4-1.4-1.1-2.6-2-3.7
			c1.4-0.6,2.5-2,2.5-3.6C144.6,3.9,142.8,2.1,140.7,2.1L140.7,2.1z"/>
	</g>
	<g>
		<path class="st1" d="M156.7,36.4c-1.4,0-2.6-1.1-2.6-2.5l-1.2-12.4c-0.1-0.1-0.1-0.3-0.1-0.4l-0.5-6c-1.2-0.3-2.1-1.4-2.1-2.7V9.8
			c0-1.4,1-2.5,2.3-2.8V6.2c0-1.5,1.2-2.6,2.6-2.6c0,0,0.1,0,0.1,0l16.4,1.1c1.3,0,2.4,1,2.6,2.3c1.3,0.3,2.3,1.4,2.3,2.8v2.5
			c0,1.3-0.9,2.4-2.1,2.7l-0.5,6c0,0.1,0,0.3-0.1,0.4l-1.2,12.3c0,1.4-1.2,2.5-2.6,2.5H156.7z"/>
		<path class="st1" d="M155,5.1l16.4,1.1c0.6,0,1.1,0.5,1.1,1.1v1.1h0.9c0.7,0,1.3,0.6,1.3,1.3v2.5c0,0.7-0.6,1.3-1.3,1.3h-0.6
			l-0.7,7.3h-0.1l-1.3,12.8c0,0.6-0.5,1.1-1.1,1.1h-13c-0.6,0-1.1-0.5-1.1-1.1L154.3,21h-0.1l-0.7-7.3h-0.7c-0.7,0-1.3-0.6-1.3-1.3
			V9.8c0-0.7,0.6-1.3,1.3-1.3h0.9V6.2C153.9,5.6,154.4,5.1,155,5.1 M155,2.1c-2.2,0-4,1.7-4.1,3.9c-1.4,0.7-2.3,2.2-2.3,3.8v2.5
			c0,1.6,0.9,3,2.2,3.8l0.5,5.1c0,0.2,0.1,0.4,0.1,0.6l1.2,12.1c0.1,2.2,1.9,3.9,4.1,3.9h13c2.2,0,4-1.8,4.1-3.9l1.2-12.1
			c0.1-0.2,0.1-0.4,0.1-0.6l0.5-5.2c1.3-0.7,2.2-2.1,2.2-3.8V9.8c0-1.7-1-3.3-2.5-3.9c-0.6-1.5-2-2.6-3.7-2.7l-16.4-1.1
			C155.1,2.1,155.1,2.1,155,2.1L155,2.1z"/>
	</g>
</g>
<g>
	<g>
		<path class="st2" d="M78.4,18.4h-0.2c-0.2,1-0.8,1.4-1.6,1.4s-1.4-0.4-1.6-1.4h-0.2c-0.2,1-0.8,1.4-1.6,1.4
			c-0.8,0-1.4-0.4-1.6-1.4h-0.2c-0.2,1-0.8,1.4-1.6,1.4c-0.7,0-1.4-0.3-1.6-1.3c-0.1,0-0.1,0-0.2,0.1c-0.1,0.4-0.3,0.7-0.5,0.9
			c0,0.1,0,0.2,0.1,0.3l2.7,7.9l3.2,7.9l3.2-7.9l2.7-7.9c0,0,0,0,0-0.1C78.9,19.5,78.5,19.1,78.4,18.4z"/>
		<g>
			<rect x="77" y="20.7" transform="matrix(0.7071 -0.7071 0.7071 0.7071 7.6587 61.0346)" class="st3" width="1.1" height="1.1"/>
			<rect x="73.2" y="20" transform="matrix(0.7071 -0.7071 0.7071 0.7071 7.0914 58.1711)" class="st3" width="1.1" height="1.1"/>
			
				<rect x="74.7" y="21.5" transform="matrix(0.7071 -0.7071 0.7071 0.7071 6.4709 59.6679)" class="st3" width="1.1" height="1.1"/>
			<rect x="76.2" y="23" transform="matrix(0.7072 -0.707 0.707 0.7072 5.8468 61.1545)" class="st3" width="1.1" height="1.1"/>
			<rect x="71" y="20.7" transform="matrix(0.7071 -0.7071 0.7071 0.7071 5.9051 56.8031)" class="st3" width="1.1" height="1.1"/>
			
				<rect x="72.5" y="22.2" transform="matrix(0.7071 -0.7071 0.7071 0.7071 5.2847 58.2997)" class="st3" width="1.1" height="1.1"/>
			<rect x="74" y="23.7" transform="matrix(0.7071 -0.7071 0.7071 0.7071 4.6658 59.7964)" class="st3" width="1.1" height="1.1"/>
			
				<rect x="75.5" y="25.2" transform="matrix(0.7071 -0.7071 0.7071 0.7071 4.0455 61.2929)" class="st3" width="1.1" height="1.1"/>
			<rect x="68.7" y="21.5" transform="matrix(0.7071 -0.7071 0.7071 0.7071 4.7178 55.435)" class="st3" width="1.1" height="1.1"/>
			<rect x="70.2" y="23" transform="matrix(0.7071 -0.7071 0.7071 0.7071 4.0988 56.9308)" class="st3" width="1.1" height="1.1"/>
			
				<rect x="71.7" y="24.5" transform="matrix(0.7071 -0.7071 0.7071 0.7071 3.4798 58.4273)" class="st3" width="1.1" height="1.1"/>
			<rect x="73.2" y="26" transform="matrix(0.7071 -0.7071 0.7071 0.7071 2.8593 59.924)" class="st3" width="1.1" height="1.1"/>
			
				<rect x="74.7" y="27.5" transform="matrix(0.7071 -0.7071 0.7071 0.7071 2.2393 61.4204)" class="st3" width="1.1" height="1.1"/>
			<rect x="71" y="26.7" transform="matrix(0.7071 -0.7071 0.7071 0.7071 1.6731 58.556)" class="st3" width="1.1" height="1.1"/>
			
				<rect x="72.5" y="28.2" transform="matrix(0.7071 -0.7071 0.7071 0.7071 1.0524 60.0528)" class="st3" width="1.1" height="1.1"/>
			<rect x="74" y="29.7" transform="matrix(0.7071 -0.7071 0.7071 0.7071 0.4334 61.5497)" class="st3" width="1.1" height="1.1"/>
			<rect x="73.2" y="32" transform="matrix(0.7071 -0.7071 0.7071 0.7071 -1.3729 61.6778)" class="st3" width="1.1" height="1.1"/>
			<polygon class="st3" points="71.9,31.4 72.3,31.7 73,31 72.3,30.3 71.7,30.8 			"/>
		</g>
		<path class="st4" d="M75.6,12.5V15c0,0.7-0.6,1.3-1.3,1.3c-0.7,0-1.3-0.6-1.3-1.3v-2.9c-2.7,0.3-4.8,2.5-4.8,5.3
			c0,0.4,0,0.7,0.1,1.1c0,0,0.1,0,0.1,0c0.2,1,0.8,1.3,1.6,1.3c0.8,0,1.4-0.4,1.6-1.4h0.2c0.2,1,0.8,1.4,1.6,1.4
			c0.8,0,1.4-0.4,1.6-1.4H75c0.2,1,0.8,1.4,1.6,1.4c0.8,0,1.4-0.4,1.6-1.4h0.2c0,0.2,0.1,0.4,0.2,0.5c0.2-0.5,0.2-1,0.2-1.6
			C78.8,15.2,77.5,13.3,75.6,12.5z"/>
		<rect x="74.7" y="6.8" transform="matrix(0.7071 -0.7071 0.7071 0.7071 17.4587 57.8144)" class="st4" width="7.6" height="2.1"/>
		<path class="st5" d="M76.6,11.3l-1.5-1.5l2.6-2.6c-1-1.2-2.5-2-4.2-2c-2.9,0-5.3,2.4-5.3,5.3c0,1.3,0.5,2.5,1.3,3.4
			c0.9-1,2.1-1.7,3.5-1.8V15c0,0.7,0.6,1.3,1.3,1.3c0.7,0,1.3-0.6,1.3-1.3v-2.5c0.7,0.3,1.4,0.8,1.9,1.4c0.8-0.9,1.3-2.1,1.3-3.4
			c0-0.4-0.1-0.8-0.2-1.3L76.6,11.3z"/>
		<rect x="76.5" y="8.3" transform="matrix(0.7095 -0.7047 0.7047 0.7095 15.7898 56.9925)" class="st6" width="1.1" height="2.1"/>
		<rect x="77.9" y="6.9" transform="matrix(0.7092 -0.705 0.705 0.7092 17.2498 57.6139)" class="st6" width="1.1" height="2.1"/>
		<rect x="79.5" y="5.3" transform="matrix(0.7093 -0.7049 0.7049 0.7093 18.8245 58.2596)" class="st6" width="1.1" height="2.1"/>
	</g>
	<g>
		<path class="st2" d="M48.9,18.4h-0.2c-0.2,1-0.8,1.4-1.6,1.4c-0.8,0-1.4-0.4-1.6-1.4h-0.2c-0.2,1-0.8,1.4-1.6,1.4
			c-0.8,0-1.4-0.4-1.6-1.4h-0.2c-0.2,1-0.8,1.4-1.6,1.4c-0.7,0-1.4-0.3-1.6-1.3c-0.1,0-0.1,0-0.2,0.1c-0.1,0.4-0.3,0.7-0.5,0.9
			c0,0.1,0,0.2,0.1,0.3l2.7,7.9l3.2,7.9l3.2-7.9l2.7-7.9c0,0,0,0,0-0.1C49.5,19.5,49.1,19.1,48.9,18.4z"/>
		<g>
			
				<rect x="47.5" y="20.7" transform="matrix(0.7071 -0.7071 0.7071 0.7071 -0.9708 40.2013)" class="st3" width="1.1" height="1.1"/>
			<rect x="43.8" y="20" transform="matrix(0.7071 -0.7071 0.7071 0.7071 -1.5381 37.3378)" class="st3" width="1.1" height="1.1"/>
			
				<rect x="45.3" y="21.5" transform="matrix(0.7071 -0.7071 0.7071 0.7071 -2.1586 38.8346)" class="st3" width="1.1" height="1.1"/>
			<rect x="46.8" y="23" transform="matrix(0.7072 -0.707 0.707 0.7072 -2.7797 40.3241)" class="st3" width="1.1" height="1.1"/>
			
				<rect x="41.5" y="20.7" transform="matrix(0.7071 -0.7071 0.7071 0.7071 -2.7243 35.9698)" class="st3" width="1.1" height="1.1"/>
			<rect x="43" y="22.2" transform="matrix(0.7071 -0.7071 0.7071 0.7071 -3.3447 37.4664)" class="st3" width="1.1" height="1.1"/>
			
				<rect x="44.5" y="23.7" transform="matrix(0.7071 -0.7071 0.7071 0.7071 -3.9636 38.9631)" class="st3" width="1.1" height="1.1"/>
			<rect x="46" y="25.2" transform="matrix(0.7071 -0.7071 0.7071 0.7071 -4.5839 40.4596)" class="st3" width="1.1" height="1.1"/>
			
				<rect x="39.3" y="21.5" transform="matrix(0.7071 -0.7071 0.7071 0.7071 -3.9116 34.6017)" class="st3" width="1.1" height="1.1"/>
			<rect x="40.8" y="23" transform="matrix(0.7071 -0.7071 0.7071 0.7071 -4.5306 36.0975)" class="st3" width="1.1" height="1.1"/>
			
				<rect x="42.3" y="24.5" transform="matrix(0.7071 -0.7071 0.7071 0.7071 -5.1497 37.594)" class="st3" width="1.1" height="1.1"/>
			<rect x="43.8" y="26" transform="matrix(0.7071 -0.7071 0.7071 0.7071 -5.7701 39.0907)" class="st3" width="1.1" height="1.1"/>
			
				<rect x="45.3" y="27.5" transform="matrix(0.7071 -0.7071 0.7071 0.7071 -6.3902 40.5871)" class="st3" width="1.1" height="1.1"/>
			
				<rect x="41.5" y="26.7" transform="matrix(0.7071 -0.7071 0.7071 0.7071 -6.9564 37.7227)" class="st3" width="1.1" height="1.1"/>
			<rect x="43" y="28.2" transform="matrix(0.7071 -0.7071 0.7071 0.7071 -7.577 39.2195)" class="st3" width="1.1" height="1.1"/>
			
				<rect x="44.5" y="29.7" transform="matrix(0.7071 -0.7071 0.7071 0.7071 -8.196 40.7164)" class="st3" width="1.1" height="1.1"/>
			
				<rect x="43.8" y="32" transform="matrix(0.7071 -0.7071 0.7071 0.7071 -10.0023 40.8445)" class="st3" width="1.1" height="1.1"/>
			<polygon class="st3" points="42.4,31.4 42.8,31.7 43.6,31 42.8,30.3 42.2,30.8 			"/>
		</g>
		<path class="st4" d="M46.1,12.5V15c0,0.7-0.6,1.3-1.3,1.3s-1.3-0.6-1.3-1.3v-2.9c-2.7,0.3-4.8,2.5-4.8,5.3c0,0.4,0,0.7,0.1,1.1
			c0,0,0.1,0,0.1,0c0.2,1,0.8,1.3,1.6,1.3c0.8,0,1.4-0.4,1.6-1.4h0.2c0.2,1,0.8,1.4,1.6,1.4s1.4-0.4,1.6-1.4h0.2
			c0.2,1,0.8,1.4,1.6,1.4c0.8,0,1.4-0.4,1.6-1.4h0.2c0,0.2,0.1,0.4,0.2,0.5c0.2-0.5,0.2-1,0.2-1.6C49.3,15.2,48,13.3,46.1,12.5z"/>
		<rect x="45.3" y="6.8" transform="matrix(0.7071 -0.7071 0.7071 0.7071 8.8293 36.9811)" class="st4" width="7.6" height="2.1"/>
		<path class="st5" d="M47.1,11.3l-1.5-1.5l2.6-2.6c-1-1.2-2.5-2-4.2-2c-2.9,0-5.3,2.4-5.3,5.3c0,1.3,0.5,2.5,1.3,3.4
			c0.9-1,2.1-1.7,3.5-1.8V15c0,0.7,0.6,1.3,1.3,1.3s1.3-0.6,1.3-1.3v-2.5c0.7,0.3,1.4,0.8,1.9,1.4c0.8-0.9,1.3-2.1,1.3-3.4
			c0-0.4-0.1-0.8-0.2-1.3L47.1,11.3z"/>
		<rect x="47" y="8.3" transform="matrix(0.7095 -0.7047 0.7047 0.7095 7.2309 36.23)" class="st6" width="1.1" height="2.1"/>
		<rect x="48.5" y="6.9" transform="matrix(0.7092 -0.705 0.705 0.7092 8.6821 36.8426)" class="st6" width="1.1" height="2.1"/>
		<rect x="50.1" y="5.3" transform="matrix(0.7093 -0.7049 0.7049 0.7093 10.2598 37.4912)" class="st6" width="1.1" height="2.1"/>
	</g>
	<g>
		<ellipse class="st4" cx="16" cy="13.3" rx="5.5" ry="5.8"/>
		<g>
			<path class="st2" d="M20.7,15.2h-0.2c-0.2,1-0.8,1.4-1.6,1.4s-1.4-0.4-1.6-1.4h-0.2c-0.2,1-0.8,1.4-1.6,1.4
				c-0.8,0-1.4-0.4-1.6-1.4h-0.2c-0.2,1-0.8,1.4-1.6,1.4c-0.7,0-1.4-0.3-1.6-1.3c-0.1,0-0.1,0-0.2,0.1c-0.1,0.4-0.3,0.7-0.5,0.9
				c0,0.1,0,0.2,0.1,0.3l2.7,7.9l3.2,7.9l3.2-7.9l2.7-7.9c0,0,0,0,0-0.1C21.3,16.4,20.9,16,20.7,15.2z"/>
			<g>
				
					<rect x="19.3" y="17.6" transform="matrix(0.7071 -0.7071 0.7071 0.7071 -6.9914 19.325)" class="st3" width="1.1" height="1.1"/>
				
					<rect x="15.6" y="16.8" transform="matrix(0.7071 -0.7071 0.7071 0.7071 -7.5587 16.4614)" class="st3" width="1.1" height="1.1"/>
				
					<rect x="17.1" y="18.3" transform="matrix(0.7071 -0.7071 0.7071 0.7071 -8.1792 17.9582)" class="st3" width="1.1" height="1.1"/>
				
					<rect x="18.6" y="19.8" transform="matrix(0.7072 -0.707 0.707 0.7072 -8.7978 19.4509)" class="st3" width="1.1" height="1.1"/>
				
					<rect x="13.3" y="17.6" transform="matrix(0.7071 -0.7071 0.7071 0.7071 -8.745 15.0935)" class="st3" width="1.1" height="1.1"/>
				
					<rect x="14.8" y="19.1" transform="matrix(0.7071 -0.7071 0.7071 0.7071 -9.3654 16.59)" class="st3" width="1.1" height="1.1"/>
				
					<rect x="16.3" y="20.6" transform="matrix(0.7071 -0.7071 0.7071 0.7071 -9.9843 18.0868)" class="st3" width="1.1" height="1.1"/>
				
					<rect x="17.8" y="22.1" transform="matrix(0.7071 -0.7071 0.7071 0.7071 -10.6046 19.5832)" class="st3" width="1.1" height="1.1"/>
				
					<rect x="11.1" y="18.3" transform="matrix(0.7071 -0.7071 0.7071 0.7071 -9.9323 13.7254)" class="st3" width="1.1" height="1.1"/>
				
					<rect x="12.6" y="19.8" transform="matrix(0.7071 -0.7071 0.7071 0.7071 -10.5513 15.2211)" class="st3" width="1.1" height="1.1"/>
				
					<rect x="14.1" y="21.3" transform="matrix(0.7071 -0.7071 0.7071 0.7071 -11.1703 16.7177)" class="st3" width="1.1" height="1.1"/>
				
					<rect x="15.6" y="22.8" transform="matrix(0.7071 -0.7071 0.7071 0.7071 -11.7908 18.2143)" class="st3" width="1.1" height="1.1"/>
				
					<rect x="17.1" y="24.3" transform="matrix(0.7071 -0.7071 0.7071 0.7071 -12.4108 19.7107)" class="st3" width="1.1" height="1.1"/>
				
					<rect x="13.3" y="23.6" transform="matrix(0.7071 -0.7071 0.7071 0.7071 -12.977 16.8464)" class="st3" width="1.1" height="1.1"/>
				
					<rect x="14.8" y="25.1" transform="matrix(0.7071 -0.7071 0.7071 0.7071 -13.5977 18.3432)" class="st3" width="1.1" height="1.1"/>
				
					<rect x="16.3" y="26.6" transform="matrix(0.7071 -0.7071 0.7071 0.7071 -14.2167 19.84)" class="st3" width="1.1" height="1.1"/>
				
					<rect x="15.6" y="28.8" transform="matrix(0.7071 -0.7071 0.7071 0.7071 -16.023 19.9682)" class="st3" width="1.1" height="1.1"/>
				<polygon class="st3" points="14.2,28.2 14.6,28.6 15.3,27.8 14.6,27.1 14,27.7 				"/>
			</g>
			<path class="st4" d="M17.9,9.3l-2.6-0.4c-2.7,0.3-4.8,2.5-4.8,5.3c0,0.4,0,0.7,0.1,1.1c0,0,0.1,0,0.1,0c0.2,1,0.8,1.3,1.6,1.3
				c0.8,0,1.4-0.4,1.6-1.4H14c0.2,1,0.8,1.4,1.6,1.4c0.8,0,1.4-0.4,1.6-1.4h0.2c0.2,1,0.8,1.4,1.6,1.4c0.8,0,1.4-0.4,1.6-1.4h0.2
				c0,0.2,0.1,0.4,0.2,0.5c0.2-0.5,0.2-1,0.2-1.6C21.1,12,20.6,9.5,17.9,9.3z"/>
		</g>
	</g>
	<g>
		<path class="st7" d="M112.1,16.5c0,0.5-0.4,0.9-0.9,0.9H97.3c-0.5,0-0.9-0.4-0.9-0.9c0-4,3.1-7.4,7-7.8c0.3,0,0.6-0.1,0.9-0.1
			c0.3,0,0.6,0,0.9,0.1C109.1,9.1,112.1,12.4,112.1,16.5z"/>
		<path class="st8" d="M112.1,16.5c0,0.5-0.4,0.9-0.9,0.9h-7V8.6c0.3,0,0.6,0,0.9,0.1C109.1,9.1,112.1,12.4,112.1,16.5z"/>
		<path class="st7" d="M111.9,18.3l-0.6,6.1l-1.9,1.8H99.1l-1.9-1.8l-0.6-6.1c-0.1-0.5,0.3-0.9,0.8-1h13.7
			C111.6,17.4,112,17.8,111.9,18.3z"/>
		<path class="st8" d="M111.9,18.3l-0.6,6.1l-1.9,1.8h-5.1v-8.8h6.9C111.6,17.4,112,17.8,111.9,18.3z"/>
		<path class="st9" d="M105.1,18.2v7c0,0.5-0.4,0.9-0.9,0.9c-0.5,0-0.9-0.4-0.9-0.9v-7c0-0.5,0.4-0.9,0.9-0.9
			C104.8,17.3,105.1,17.7,105.1,18.2z"/>
		<path class="st10" d="M111.3,24.4l-0.8,8.2c-0.2,1.3-1.3,2.3-2.6,2.3h-7.3c-1.3,0-2.5-1-2.6-2.3l-0.8-8.2H111.3z"/>
		<path class="st11" d="M104.3,24.4h7.1l-0.8,8.2c-0.2,1.3-1.3,2.3-2.6,2.3h-3.7V24.4z"/>
		<path class="st12" d="M112.1,6c0,0.5-0.4,0.9-0.9,0.9H106c-0.5,0-0.9,0.4-0.9,0.9v0.9c-0.3,0-0.6-0.1-0.9-0.1
			c-0.3,0-0.6,0-0.9,0.1V7.7c0-0.8,0.3-1.5,0.9-1.9c0.5-0.4,1.1-0.7,1.7-0.7h5.2C111.7,5.1,112.1,5.5,112.1,6z"/>
		<g>
			<path class="st9" d="M105.1,8.7v7.8c0,0.5-0.4,0.9-0.9,0.9c-0.5,0-0.9-0.4-0.9-0.9V8.7c0.3,0,0.6-0.1,0.9-0.1
				C104.6,8.6,104.9,8.6,105.1,8.7z"/>
			<circle class="st9" cx="102.5" cy="30.5" r="0.9"/>
		</g>
		<circle class="st12" cx="106" cy="28.8" r="0.9"/>
		<path class="st8" d="M113.9,17.3c0,1-0.8,1.7-1.7,1.7H96.4c-1,0-1.7-0.8-1.7-1.7c0-1,0.8-1.7,1.7-1.7h15.7
			C113.1,15.6,113.9,16.4,113.9,17.3z"/>
		<path class="st13" d="M113.9,17.3c0,1-0.8,1.7-1.7,1.7h-7.8v-3.5h7.8C113.1,15.6,113.9,16.4,113.9,17.3z"/>
	</g>
	<g>
		<path class="st7" d="M141.6,16.5c0,0.5-0.4,0.9-0.9,0.9h-13.9c-0.5,0-0.9-0.4-0.9-0.9c0-4,3.1-7.4,7-7.8c0.3,0,0.6-0.1,0.9-0.1
			s0.6,0,0.9,0.1C138.5,9.1,141.6,12.4,141.6,16.5z"/>
		<path class="st8" d="M141.6,16.5c0,0.5-0.4,0.9-0.9,0.9h-7V8.6c0.3,0,0.6,0,0.9,0.1C138.5,9.1,141.6,12.4,141.6,16.5z"/>
		<path class="st7" d="M141.4,18.3l-0.6,6.1l-1.9,1.8h-10.3l-1.9-1.8l-0.6-6.1c-0.1-0.5,0.3-0.9,0.8-1h13.7
			C141.1,17.4,141.4,17.8,141.4,18.3z"/>
		<path class="st8" d="M141.4,18.3l-0.6,6.1l-1.9,1.8h-5.1v-8.8h6.9C141.1,17.4,141.4,17.8,141.4,18.3z"/>
		<path class="st9" d="M134.6,18.2v7c0,0.5-0.4,0.9-0.9,0.9c-0.5,0-0.9-0.4-0.9-0.9v-7c0-0.5,0.4-0.9,0.9-0.9
			C134.2,17.3,134.6,17.7,134.6,18.2z"/>
		<path class="st10" d="M140.8,24.4l-0.8,8.2c-0.2,1.3-1.3,2.3-2.6,2.3h-7.3c-1.3,0-2.5-1-2.6-2.3l-0.8-8.2H140.8z"/>
		<path class="st11" d="M133.7,24.4h7.1l-0.8,8.2c-0.2,1.3-1.3,2.3-2.6,2.3h-3.7V24.4z"/>
		<path class="st12" d="M141.6,6c0,0.5-0.4,0.9-0.9,0.9h-5.2c-0.5,0-0.9,0.4-0.9,0.9v0.9c-0.3,0-0.6-0.1-0.9-0.1s-0.6,0-0.9,0.1V7.7
			c0-0.8,0.3-1.5,0.9-1.9c0.5-0.4,1.1-0.7,1.7-0.7h5.2C141.2,5.1,141.6,5.5,141.6,6z"/>
		<g>
			<path class="st9" d="M134.6,8.7v7.8c0,0.5-0.4,0.9-0.9,0.9c-0.5,0-0.9-0.4-0.9-0.9V8.7c0.3,0,0.6-0.1,0.9-0.1
				S134.3,8.6,134.6,8.7z"/>
			<circle class="st9" cx="132" cy="30.5" r="0.9"/>
		</g>
		<circle class="st12" cx="135.5" cy="28.8" r="0.9"/>
		<path class="st8" d="M143.3,17.3c0,1-0.8,1.7-1.7,1.7h-15.7c-1,0-1.7-0.8-1.7-1.7c0-1,0.8-1.7,1.7-1.7h15.7
			C142.5,15.6,143.3,16.4,143.3,17.3z"/>
		<path class="st13" d="M143.3,17.3c0,1-0.8,1.7-1.7,1.7h-7.8v-3.5h7.8C142.5,15.6,143.3,16.4,143.3,17.3z"/>
	</g>
	<g>
		<g>
			<path class="st14" d="M173.5,13.7h-20.6c-0.7,0-1.3-0.6-1.3-1.3V9.8c0-0.7,0.6-1.3,1.3-1.3h20.6c0.7,0,1.3,0.6,1.3,1.3v2.5
				C174.8,13.1,174.2,13.7,173.5,13.7z"/>
			<path class="st15" d="M172.6,8.5h-18.7V6.2c0-0.6,0.5-1.1,1.1-1.1l16.4,1.1c0.6,0,1.1,0.5,1.1,1.1V8.5z"/>
			<path class="st4" d="M153.6,13.7l2,20.1c0,0.6,0.5,1.1,1.1,1.1h13c0.6,0,1.1-0.5,1.1-1.1l2-20.1H153.6z"/>
			<g>
				<path class="st15" d="M158.7,21c1-1.4,2.7-2.3,4.5-2.3c1.9,0,3.5,0.9,4.5,2.3h4.4l0.7-7.3h-19.3l0.7,7.3H158.7z"/>
			</g>
		</g>
		<g>
			<path class="st1" d="M159.1,29.4c-0.2-0.1-0.4-0.3-0.5-0.6c-0.1-0.2-0.2-0.5-0.2-0.9c0-0.3,0.1-0.6,0.2-0.9
				c0.1-0.2,0.3-0.4,0.5-0.6c0.2-0.1,0.5-0.2,0.8-0.2c0.2,0,0.4,0,0.6,0.1c0.2,0.1,0.3,0.1,0.5,0.3c0,0,0.1,0.1,0.1,0.1
				c0,0,0,0.1,0,0.1c0,0.1,0,0.1-0.1,0.2c0,0-0.1,0.1-0.1,0.1c-0.1,0-0.1,0-0.2-0.1c-0.1-0.1-0.2-0.2-0.4-0.2
				c-0.1,0-0.2-0.1-0.4-0.1c-0.3,0-0.5,0.1-0.7,0.3c-0.2,0.2-0.2,0.5-0.2,0.8c0,0.4,0.1,0.7,0.2,0.9c0.2,0.2,0.4,0.3,0.7,0.3
				c0.1,0,0.2,0,0.4-0.1c0.1,0,0.2-0.1,0.4-0.2c0,0,0.1,0,0.1,0c0,0,0.1,0,0.1,0c0.1,0,0.1,0,0.1,0.1c0,0,0.1,0.1,0.1,0.2
				c0,0,0,0.1,0,0.1c0,0,0,0.1-0.1,0.1c-0.1,0.1-0.3,0.2-0.5,0.3c-0.2,0.1-0.4,0.1-0.6,0.1C159.6,29.6,159.4,29.5,159.1,29.4z"/>
			<path class="st1" d="M163.1,27.5c0.1,0.1,0.2,0.4,0.2,0.7v1.1c0,0.1,0,0.1-0.1,0.2c0,0-0.1,0.1-0.2,0.1c-0.1,0-0.1,0-0.2-0.1
				c0,0-0.1-0.1-0.1-0.2v-0.1c-0.1,0.1-0.1,0.2-0.2,0.3c-0.1,0.1-0.2,0.1-0.4,0.1c-0.1,0-0.3,0-0.4-0.1c-0.1-0.1-0.2-0.1-0.3-0.2
				c-0.1-0.1-0.1-0.2-0.1-0.3c0-0.2,0-0.3,0.1-0.4c0.1-0.1,0.2-0.2,0.4-0.2c0.2,0,0.4-0.1,0.8-0.1h0.1v-0.1c0-0.1,0-0.3-0.1-0.3
				c-0.1-0.1-0.2-0.1-0.3-0.1c-0.1,0-0.2,0-0.3,0c-0.1,0-0.2,0.1-0.3,0.1c-0.1,0-0.1,0.1-0.2,0.1c-0.1,0-0.1,0-0.1-0.1
				c0,0-0.1-0.1-0.1-0.2c0-0.1,0-0.1,0-0.1c0,0,0.1-0.1,0.1-0.1c0.1-0.1,0.2-0.1,0.4-0.1c0.1,0,0.3,0,0.4,0
				C162.7,27.3,162.9,27.4,163.1,27.5z M162.6,29c0.1-0.1,0.1-0.2,0.1-0.4v-0.1h-0.1c-0.2,0-0.4,0-0.5,0c-0.1,0-0.2,0-0.2,0.1
				c0,0-0.1,0.1-0.1,0.2c0,0.1,0,0.2,0.1,0.2c0.1,0.1,0.1,0.1,0.2,0.1C162.4,29.2,162.5,29.1,162.6,29z"/>
			<path class="st1" d="M164.6,27c-0.1,0.1-0.1,0.2-0.1,0.3v0.1h0.4c0.2,0,0.2,0.1,0.2,0.2c0,0.1-0.1,0.2-0.2,0.2h-0.4v1.5
				c0,0.1,0,0.2-0.1,0.2c-0.1,0-0.1,0.1-0.2,0.1s-0.1,0-0.2-0.1c-0.1,0-0.1-0.1-0.1-0.2v-1.5h-0.2c-0.2,0-0.2-0.1-0.2-0.2
				c0-0.1,0.1-0.2,0.2-0.2h0.2v0c0-0.3,0.1-0.5,0.2-0.7c0.1-0.2,0.4-0.2,0.6-0.3l0.1,0c0.1,0,0.2,0,0.3,0c0,0,0.1,0.1,0.1,0.2
				c0,0.1-0.1,0.2-0.2,0.2l-0.1,0C164.8,26.8,164.7,26.9,164.6,27z"/>
			<path class="st1" d="M167.3,29c0,0,0,0.1,0,0.2c0,0.1-0.1,0.2-0.2,0.2c-0.1,0.1-0.2,0.1-0.3,0.1c-0.1,0-0.2,0.1-0.4,0.1
				c-0.3,0-0.6-0.1-0.8-0.3s-0.3-0.5-0.3-0.8c0-0.2,0-0.4,0.1-0.6c0.1-0.2,0.2-0.3,0.4-0.4c0.2-0.1,0.3-0.1,0.5-0.1
				c0.2,0,0.4,0,0.5,0.1s0.3,0.2,0.3,0.4s0.1,0.3,0.1,0.6c0,0.1-0.1,0.2-0.2,0.2h-1.3c0,0.2,0.1,0.4,0.2,0.5
				c0.1,0.1,0.2,0.1,0.4,0.1c0.1,0,0.2,0,0.3,0c0.1,0,0.2-0.1,0.2-0.1c0.1,0,0.2-0.1,0.2-0.1C167.2,29,167.2,29,167.3,29z M166,27.9
				c-0.1,0.1-0.1,0.2-0.2,0.4h1c0-0.2-0.1-0.3-0.1-0.4c-0.1-0.1-0.2-0.1-0.3-0.1C166.2,27.7,166.1,27.8,166,27.9z M166.4,27.1
				c0,0-0.1,0-0.1,0c0,0,0-0.1,0-0.1c0,0,0-0.1,0-0.1l0.4-0.6c0.1-0.1,0.1-0.1,0.2-0.1c0.1,0,0.1,0,0.2,0.1c0,0,0.1,0.1,0.1,0.2
				c0,0.1,0,0.2-0.1,0.2L166.4,27.1C166.4,27.1,166.4,27.1,166.4,27.1z"/>
		</g>
	</g>
</g>
</svg>
