<?xml version="1.0" encoding="utf-8"?>
<!-- Generator: Adobe Illustrator 22.1.0, SVG Export Plug-In . SVG Version: 6.00 Build 0)  -->
<svg version="1.1" id="Layer_1" xmlns="http://www.w3.org/2000/svg" xmlns:xlink="http://www.w3.org/1999/xlink" x="0px" y="0px"
	 viewBox="0 0 140 40" style="enable-background:new 0 0 140 40;" xml:space="preserve">
<style type="text/css">
	.st0{fill:#637BA1;}
	.st1{fill:#FFFFFF;}
	.st2{fill:#4F2E1D;}
	.st3{fill:#704835;}
	.st4{fill:#A77251;}
	.st5{fill:#7F553D;}
	.st6{fill:#5F3924;}
	.st7{fill:#9E6B51;}
	.st8{fill:#212121;}
	.st9{fill:#402318;}
	.st10{fill:#3D2315;}
	.st11{fill:#875133;}
	.st12{fill:#77472C;}
	.st13{fill:#FFA726;}
	.st14{fill:#FB8C00;}
	.st15{fill:#FFCA28;}
	.st16{fill:#424242;}
</style>
<g>
	<path class="st0" d="M140,0H-0.3v40H140V0L140,0z"/>
</g>
<g>
	<g>
		<path class="st1" d="M24.5,30.8c-0.2,0-0.4,0-0.5-0.1c0,0-0.1,0-0.1,0c-0.2,0.1-0.3,0.1-0.5,0.1h-1.3c-0.3,0-0.6-0.1-0.8-0.4
			c-0.2-0.2-0.3-0.5-0.2-0.8c0.1-0.5,0.3-0.9,0.7-1.2v-2.1c-0.4-0.4-0.7-0.9-0.7-1.5c-0.7,0.2-1.7,0.3-2.7,0.3c-0.2,0-0.3,0-0.5,0
			l0,4.2c0,0.3-0.1,0.6-0.3,0.9c-0.2,0.3-0.4,0.5-0.8,0.6c-0.2,0.1-0.3,0.1-0.5,0.1h-1.3c-0.2,0-0.4,0-0.5-0.1c0,0,0,0,0,0
			c-0.2,0.1-0.4,0.1-0.6,0.1h-1.3c-0.3,0-0.6-0.1-0.8-0.4c-0.2-0.2-0.3-0.5-0.2-0.8c0.1-0.5,0.3-0.9,0.7-1.2v-4.9
			c-0.7-0.5-1.2-1.2-1.6-1.9c-0.1-0.3-0.3-0.5-0.4-0.8c-0.1,0-0.1,0.1-0.2,0.1C10.1,20.9,10.1,21,10,21c-0.2,0.1-0.4,0.2-0.6,0.2
			c-0.2,0-0.4-0.1-0.6-0.2c0,0-0.1-0.1-0.2-0.1c-0.1,0-0.3-0.1-0.4-0.2c-0.1-0.1-0.4-0.4-0.6-0.8C7.5,19.9,7.2,20,6.9,20
			c-0.7,0-1.3-0.3-1.7-0.9l-0.3-0.4c-0.3-0.5-0.4-1-0.3-1.5c0.1-0.5,0.4-1,0.9-1.3l1.4-1c-0.7-0.5-1.1-1.3-1.1-2.2v-1.9
			c0-0.8,0.7-1.5,1.5-1.5c0.5,0,0.9,0.2,1.2,0.6c0.3-0.4,0.7-0.6,1.2-0.6h0.3c0.5,0,0.9,0.2,1.2,0.6c0.3-0.4,0.7-0.6,1.2-0.6h0.3
			c0.5,0,0.9,0.2,1.2,0.6c0.3-0.4,0.7-0.6,1.2-0.6h1.3c0.8,0,1.5,0.7,1.5,1.5v0.8c0,1.1-0.5,2.1-1.2,2.8c0,0,0,0,0.1,0
			c0.9,0,1.8,0.3,2.6,0.8l0.3,0.2c0.4,0.3,1,0.4,1.5,0.4c0.1,0,0.3,0,0.4,0c0.4-0.1,0.7-0.1,1.1-0.1c1.6,0,2.9,0.6,3.7,1.8
			c0.8,0.3,1.4,1,1.5,1.9c0.1,0.6-0.1,1.2-0.4,1.7c0,0-0.1,0.1-0.1,0.1c0,0.1,0,0.1,0,0.2v7.8c0,0.4-0.2,0.8-0.5,1.1
			c-0.2,0.2-0.4,0.3-0.6,0.4c-0.2,0.1-0.3,0.1-0.5,0.1H24.5z"/>
		<path class="st1" d="M16.3,10.2c0.3,0,0.5,0.2,0.5,0.5v0.8c0,1.5-1.3,2.8-2.8,2.8h-2.5l-0.2,0.2c0.1,0.1,0.2,0.2,0.3,0.3
			c0.2,0,0.3-0.1,0.5-0.1c0.3,0,0.5,0,0.8,0.1c0.4,0.1,0.7,0.4,0.9,0.6c0.2,0,0.5,0,0.7,0c0.4,0,0.9,0,1.4-0.1
			c0.2,0,0.5-0.1,0.7-0.1c0.7,0,1.4,0.2,2,0.6l0.3,0.2c0.6,0.4,1.3,0.6,2,0.6c0.2,0,0.4,0,0.6,0c0.3,0,0.6-0.1,0.9-0.1
			c1.5,0,2.5,0.6,3,1.6c0,0,0,0,0,0c0,0,0,0,0.1,0c0,0,0,0,0,0c0.5,0.1,1,0.5,1,1.2c0,0.4,0,0.7-0.2,1c-0.1,0.1-0.2,0.2-0.3,0.3
			c0,0.2,0,0.4,0,0.6v5c0,0,0,0,0,0v2.8c0,0.1-0.1,0.3-0.2,0.4c-0.1,0.1-0.1,0.1-0.2,0.1c-0.1,0-0.1,0-0.2,0c0,0,0,0,0,0h-1.3
			c0.1-0.3,0.3-0.7,0.7-0.9v-2.3c0,0,0,0,0,0v-0.8c-0.4-0.2-0.7-0.6-0.7-1.1v-1.6l-0.6,0.1v3.5c0,0,0,0,0,0v2.6c0,0.1,0,0.2-0.1,0.3
			c-0.1,0.1-0.2,0.2-0.3,0.2c-0.1,0-0.1,0-0.2,0c0,0,0,0,0,0h-1.3c0.1-0.3,0.3-0.7,0.7-0.9v-2.1c0,0,0,0,0,0v-1
			c-0.4-0.2-0.7-0.6-0.7-1.1v-1.3l0,0c0,0-1.8,0.6-3.7,0.6c-0.5,0-1,0-1.5-0.2v2.8c0,0,0,0,0,0v2.6c0,0.1,0,0.2-0.1,0.3
			c-0.1,0.1-0.2,0.2-0.3,0.2c-0.1,0-0.1,0-0.2,0c0,0,0,0,0,0h-1.3c0.1-0.3,0.3-0.7,0.7-0.9v-2.3c0,0,0,0,0,0v-2.8
			c-0.5,0-0.9-0.1-1.3-0.2v2.9c0,0,0,0,0,0v2.9c0,0.1-0.1,0.3-0.2,0.4c0,0-0.1,0.1-0.2,0.1c-0.1,0-0.1,0-0.2,0c0,0,0,0,0,0h-1.3
			c0.1-0.3,0.3-0.7,0.7-0.9v-2.7c0,0,0,0,0,0V23c-0.7-0.4-1.3-1.1-1.7-1.8c-0.5-0.9-0.8-1.9-0.9-3c-0.1,0.2-0.3,0.3-0.5,0.5
			c0,0.1,0.1,0.3,0.1,0.4c0,0.5-0.4,0.9-0.4,0.9s0,0-0.1-0.1c-0.2,0.2-0.4,0.3-0.4,0.3S9.3,20,9.1,19.8c0,0.1-0.1,0.1-0.1,0.1
			S8.6,19.5,8.6,19c0-0.1,0-0.2,0-0.3c-0.2-0.1-0.4-0.2-0.6-0.3l-0.6,0.4C7.3,18.9,7.1,19,6.9,19c-0.3,0-0.7-0.2-0.9-0.5l-0.3-0.4
			C5.4,17.6,5.5,17,6,16.6L9,14.6c0.1-0.1,0.3-0.2,0.5-0.2c0,0,0,0,0,0H8.5c-1,0-1.7-0.8-1.7-1.7v-1.9c0-0.3,0.2-0.5,0.5-0.5
			c0.3,0,0.5,0.2,0.5,0.5v1.7C7.8,12.7,8,13,8.3,13h0.3c0.3,0,0.5-0.2,0.5-0.5v-1.7c0-0.3,0.2-0.5,0.5-0.5h0.3
			c0.3,0,0.5,0.2,0.5,0.5v1.7c0,0.3,0.2,0.5,0.5,0.5h0.3c0.3,0,0.5-0.2,0.5-0.5v-1.7c0-0.3,0.2-0.5,0.5-0.5h0.3
			c0.3,0,0.5,0.2,0.5,0.5v1.7c0,0.3,0.2,0.5,0.5,0.5H14c0.3,0,0.5-0.2,0.5-0.5v-1.7c0-0.3,0.2-0.5,0.5-0.5H16.3 M16.3,8.2H15
			c-0.4,0-0.8,0.1-1.2,0.3c-0.4-0.2-0.8-0.3-1.2-0.3h-0.3c-0.4,0-0.8,0.1-1.2,0.3c-0.4-0.2-0.8-0.3-1.2-0.3H9.7
			c-0.4,0-0.8,0.1-1.2,0.3C8.1,8.3,7.7,8.2,7.2,8.2c-1.4,0-2.5,1.1-2.5,2.5v1.9c0,0.7,0.2,1.4,0.6,2L4.9,15
			c-1.4,0.9-1.8,2.8-0.8,4.2l0.3,0.4C4.9,20.5,5.9,21,6.9,21c0.1,0,0.3,0,0.4,0c0.1,0.2,0.3,0.3,0.3,0.4c0.2,0.2,0.4,0.3,0.6,0.4
			c0,0,0.1,0.1,0.1,0.1c0.3,0.2,0.7,0.4,1.1,0.4c0.2,0,0.3,0,0.5-0.1c0.4,0.7,0.9,1.3,1.5,1.8v2.2l0,1.8c-0.4,0.4-0.6,0.9-0.7,1.4
			c-0.1,0.6,0,1.2,0.4,1.7c0.4,0.5,0.9,0.7,1.5,0.7H14c0,0,0,0,0,0c0.2,0,0.4,0,0.6-0.1c0.2,0,0.4,0.1,0.5,0.1h1.3c0,0,0,0,0,0
			c0.3,0,0.6-0.1,0.9-0.2c0.5-0.2,0.9-0.5,1.2-1c0.3-0.4,0.4-0.9,0.4-1.4v-2.6l0-0.6c0.5,0,1-0.1,1.4-0.1c0.1,0.3,0.3,0.5,0.4,0.8
			v0.1l0,1.2c-0.4,0.4-0.6,0.9-0.7,1.4c-0.1,0.6,0,1.2,0.4,1.7c0.4,0.5,0.9,0.7,1.5,0.7h1.3c0,0,0,0,0,0c0.2,0,0.4,0,0.6-0.1
			c0.2,0,0.4,0.1,0.5,0.1h1.3c0,0,0,0,0,0c0.3,0,0.5,0,0.8-0.1c0.4-0.1,0.7-0.3,1-0.6c0.5-0.5,0.7-1.1,0.7-1.8v-2.8l0-4.9
			c0.4-0.7,0.6-1.4,0.5-2.2c-0.2-1.2-0.9-2.1-1.9-2.6c-1-1.3-2.5-1.9-4.3-1.9c-0.4,0-0.8,0-1.2,0.1c-0.1,0-0.2,0-0.3,0
			c-0.4,0-0.7-0.1-1-0.3l-0.3-0.2c-0.4-0.3-0.9-0.5-1.4-0.7c0.3-0.6,0.5-1.3,0.5-2.1v-0.8C18.8,9.4,17.7,8.2,16.3,8.2L16.3,8.2z"/>
	</g>
	<g>
		<path class="st2" d="M14,29.8h-1.3c0.1-0.4,0.5-0.9,1.1-1.1L14,29.8z"/>
		<path class="st3" d="M14,29.8c-0.3,0-0.5-0.2-0.5-0.5v-6.5c0-0.3,0.2-0.5,0.5-0.5c0.3,0,0.5,0.2,0.5,0.5v6.5
			C14.5,29.5,14.3,29.8,14,29.8z"/>
		<path class="st2" d="M23.3,29.8h-1.3c0.1-0.4,0.5-0.9,1.1-1.1L23.3,29.8z"/>
		<path class="st3" d="M23.3,29.8c-0.3,0-0.5-0.2-0.5-0.5v-7.8c0-0.3,0.2-0.5,0.5-0.5c0.3,0,0.5,0.2,0.5,0.5v7.8
			C23.9,29.5,23.6,29.8,23.3,29.8z"/>
		<path class="st3" d="M22.5,20.5h0.8c0.2,0,0.4,0.2,0.4,0.4v4.7c0,0.2-0.2,0.4-0.4,0.4c-0.7,0-1.2-0.5-1.2-1.2v-3.8
			C22.1,20.6,22.3,20.5,22.5,20.5z"/>
		<path class="st4" d="M13.4,26.2v3.1c0,0.3,0.2,0.5,0.5,0.5c0.3,0,0.5-0.2,0.5-0.5v-2.9C14.2,26.3,13.8,26.2,13.4,26.2z"/>
		<path class="st4" d="M22.8,26.7v2.5c0,0.3,0.2,0.5,0.5,0.5s0.5-0.2,0.5-0.5v-2.6C23.5,26.7,23.2,26.7,22.8,26.7z"/>
		<path class="st5" d="M26.5,20.5c-0.2,0.3-0.4,0.4-0.8,0.5c-0.6,0.1-1.2-0.4-1.3-1.2c-0.1-0.7,0.3-1.4,1-1.5c0.1,0,0.2,0,0.3,0
			c0.5,0.1,1,0.5,1,1.2C26.8,19.8,26.7,20.2,26.5,20.5z"/>
		<path class="st6" d="M26.5,20.5c-0.2,0.3-0.4,0.4-0.8,0.5c-0.6,0.1-1.2-0.4-1.3-1.2c-0.1-0.7,0.3-1.4,1-1.5c0.1,0,0.2,0,0.3,0
			C26.1,18.9,26.4,19.6,26.5,20.5z"/>
		<path class="st2" d="M16.4,29.8h-1.3c0.1-0.4,0.5-0.9,1.1-1.1L16.4,29.8z"/>
		<path class="st5" d="M16.4,29.8c-0.3,0-0.5-0.2-0.5-0.5v-6.5c0-0.3,0.2-0.5,0.5-0.5c0.3,0,0.5,0.2,0.5,0.5v6.5
			C17,29.5,16.7,29.8,16.4,29.8z"/>
		<path class="st6" d="M11,17.5c0,0.7-0.8,1.3-1.7,1.3s-1.7-0.6-1.7-1.3c0-0.7,0.8-1.3,1.7-1.3S11,16.8,11,17.5z"/>
		<path class="st5" d="M21.6,16.7c-0.9,0.1-1.8,0-2.6-0.5L18.7,16c-0.8-0.5-1.8-0.7-2.7-0.5c-1.5,0.3-3.2,0-4-0.2
			c-0.3-0.6-1-1-1.7-1c-0.3,0-0.5,0.1-0.8,0.2c-0.2,0-0.3,0.1-0.5,0.2L6,16.6c-0.5,0.3-0.6,1-0.3,1.5L6,18.5c0.3,0.5,1,0.6,1.5,0.3
			l1.7-1.1c0.3,0.2,0.7,0.4,1.1,0.4c0.2,0,0.4,0,0.5-0.1c0.1,1.2,0.4,2.2,0.9,3.2c0.9,1.6,2.6,2.6,4.4,2.6h0.4
			c2.3,0.8,5.6-0.4,5.6-0.4l2.9-0.4l1.2-1.6C26.3,18.2,24.9,16.3,21.6,16.7z"/>
		<path class="st4" d="M16.8,10.8v0.8c0,1.5-1.3,2.8-2.8,2.8H8.5c-1,0-1.7-0.8-1.7-1.7v-1.9c0-0.3,0.2-0.5,0.5-0.5s0.5,0.2,0.5,0.5
			v1.7C7.8,12.7,8,13,8.3,13h0.3c0.3,0,0.5-0.2,0.5-0.5v-1.7c0-0.3,0.2-0.5,0.5-0.5h0.3c0.3,0,0.5,0.2,0.5,0.5v1.7
			c0,0.3,0.2,0.5,0.5,0.5h0.3c0.3,0,0.5-0.2,0.5-0.5v-1.7c0-0.3,0.2-0.5,0.5-0.5h0.3c0.3,0,0.5,0.2,0.5,0.5v1.7
			c0,0.3,0.2,0.5,0.5,0.5H14c0.3,0,0.5-0.2,0.5-0.5v-1.7c0-0.3,0.2-0.5,0.5-0.5h1.3C16.6,10.2,16.8,10.5,16.8,10.8z"/>
		<path class="st4" d="M12.3,13.7l-1.8,1.6c-0.2,0.2-0.6,0.2-0.8-0.1c-0.2-0.2-0.2-0.6,0.1-0.8l1.8-1.6c0.2-0.2,0.6-0.2,0.8,0.1
			C12.5,13.2,12.5,13.5,12.3,13.7z"/>
		<path class="st6" d="M11.3,15.7c0.2,0.3,0.6,0.6,1.2,0.8c0.6,0.2,1.1,0,1.5-0.2c0.2-0.1,0.3-0.2,0.3-0.2s-0.4-1-1.3-1.3
			c-0.9-0.3-1.7-0.1-1.8,0.3C11.2,15.4,11.2,15.6,11.3,15.7z"/>
		<path class="st7" d="M11.3,15.7c0.2,0.3,0.6,0.6,1.2,0.8c0.6,0.2,1.1,0,1.5-0.2c-0.2-0.3-0.5-0.6-1-0.8
			C12.3,15.4,11.6,15.4,11.3,15.7z"/>
		<path class="st8" d="M9.1,15.8c0,0,0,0.3-0.1,0.3c-0.1,0.1-0.4-0.1-0.4-0.1s0-0.3,0.1-0.3C8.9,15.7,9.1,15.8,9.1,15.8z"/>
		<g>
			<path class="st6" d="M10.1,19.2c0,0.5-0.6,0.9-0.6,0.9s-0.6-0.4-0.6-0.9c0-0.5,0.3-0.9,0.6-0.9C9.8,18.3,10.1,18.7,10.1,19.2z"/>
			<g>
				<path class="st6" d="M9.5,19c0,0.5-0.4,0.9-0.4,0.9S8.6,19.5,8.6,19C8.6,18.5,8.8,18,9,18C9.3,18,9.5,18.5,9.5,19z"/>
				<path class="st6" d="M10.3,19c0,0.5-0.4,0.9-0.4,0.9S9.5,19.5,9.5,19c0-0.5,0.2-0.9,0.4-0.9C10.1,18,10.3,18.5,10.3,19z"/>
			</g>
		</g>
		<path class="st9" d="M6.8,18c-0.1,0.1-0.3,0.1-0.4,0.1c-0.1,0-0.1-0.1,0-0.2l0.4-0.4c0.1-0.1,0.2,0,0.2,0
			C6.9,17.7,6.9,17.9,6.8,18z"/>
		<path class="st2" d="M25.7,29.8h-1.3c0.1-0.4,0.5-0.9,1.1-1.1L25.7,29.8z"/>
		<path class="st5" d="M25.7,29.8c-0.3,0-0.5-0.2-0.5-0.5v-7.8c0-0.3,0.2-0.5,0.5-0.5s0.5,0.2,0.5,0.5v7.8
			C26.3,29.5,26,29.8,25.7,29.8z"/>
		<path class="st5" d="M24.9,20.5h0.8c0.2,0,0.4,0.2,0.4,0.4v4.7c0,0.2-0.2,0.4-0.4,0.4c-0.7,0-1.2-0.5-1.2-1.2v-3.8
			C24.5,20.6,24.7,20.5,24.9,20.5z"/>
		<path class="st4" d="M15.9,26.5v2.7c0,0.3,0.2,0.5,0.5,0.5c0.3,0,0.5-0.2,0.5-0.5v-2.6C16.6,26.6,16.2,26.6,15.9,26.5z"/>
		<path class="st4" d="M25.2,26.5v2.7c0,0.3,0.2,0.5,0.5,0.5s0.5-0.2,0.5-0.5v-2.8C25.9,26.4,25.6,26.5,25.2,26.5z"/>
	</g>
</g>
<g>
	<g>
		<path class="st1" d="M57.3,31.3c-0.3,0-0.6-0.1-0.8-0.4c-0.1-0.2-0.2-0.4-0.2-0.6c-0.2,0.6-0.8,1-1.5,1H53c-0.3,0-0.6-0.1-0.8-0.4
			c-0.2-0.2-0.3-0.5-0.2-0.8c0.1-0.7,0.6-1.3,1.3-1.8l0.5-1.2c-0.8-0.3-1.6-0.8-2.2-1.4c-0.4,0.1-0.8,0.1-1.2,0.1
			c-0.2,0-0.5,0-0.7,0c-0.6,1.2-1.5,2.1-2.4,2.6v1.2c0,0.9-0.8,1.7-1.7,1.7H44c-0.2,0-0.5-0.1-0.6-0.2c-0.3,0.2-0.6,0.2-0.9,0.2
			h-1.7c-0.3,0-0.6-0.1-0.8-0.4c-0.2-0.2-0.3-0.5-0.2-0.8c0.1-0.6,0.4-1.1,1-1.5v-0.3c-1.8-1.1-3.1-3.9-3.4-7.3c0,0-0.1,0-0.1,0
			c-0.6,0-1.1-0.2-1.5-0.3c-0.3-0.1-0.5-0.2-0.5-0.2c-0.4-0.3-0.6-0.8-0.4-1.2c0-0.1,0.4-0.9,1.1-1.5c-0.3-0.6-0.4-1.4-0.3-2.2
			c0.1-0.6,0.6-1,1.1-1c0.3,0,0.6,0.1,0.8,0.3c0.9-2.4,3.7-4.1,7-4.1c1.7,0,3.3,0.4,4.6,1.3c0,0,0.1,0,0.1,0.1
			c0.1,0.1,0.3,0.2,0.4,0.2l0.4,0.2c0.1,0.1,0.3,0.2,0.4,0.2c0.1,0.1,0.3,0.1,0.4,0.2l0.4,0.2c0.1,0.1,0.2,0.1,0.3,0.1
			c0.2,0.1,0.4,0.1,0.5,0.2l0.4,0.1c0.1,0,0.1,0.1,0.2,0.1c0.4,0.1,0.8,0.2,1.3,0.3c1,0.2,2.1,0.3,3.5,0.3c0,0,0,0,0,0
			c1.7,0,3.4,0.9,4.3,2.4c0.5,0.5,0.9,1.1,1.2,1.8c0.3,0.9,0.4,2,0.3,3.2c0,0,0,0.1,0,0.1c0.4,1.2,0.3,2.3-0.4,3.3
			c-0.1,0.2-0.3,0.4-0.6,0.4c-0.1,0.1-0.2,0.3-0.3,0.3c0.1,0.3,0.1,0.7-0.1,1.1l-1.4,3.5c-0.2,0.6-0.9,1-1.5,1H57.3z M56.8,29.1
			c0.2-0.3,0.5-0.6,0.9-0.8l0.5-1.2c-0.2-0.1-0.3-0.1-0.5-0.2L56.8,29.1z"/>
		<path class="st1" d="M44.7,11.6c1.6,0,3,0.4,4.1,1.2l0,0c0.2,0.1,0.4,0.2,0.6,0.4c0.2,0.1,0.4,0.2,0.6,0.3
			c0.2,0.1,0.4,0.2,0.6,0.3c0.2,0.1,0.4,0.2,0.6,0.3c0.2,0.1,0.5,0.2,0.8,0.3c0.2,0.1,0.3,0.1,0.5,0.2c0.4,0.1,0.9,0.2,1.4,0.3
			c1,0.2,2.2,0.3,3.7,0.4v0c1.5,0,2.9,0.8,3.6,2.1c0.4,0.3,0.8,0.8,1,1.5c0.3,0.9,0.4,1.9,0.2,3.1c0.1,0,0.1,0.1,0.1,0.2
			c0.3,0.9,0.2,1.7-0.3,2.4L62,23.8c-0.1,0.8-0.7,1.2-0.7,1.2c0.1-1.3-0.7-1.6,0.2-3.1c0-0.1,0.1-0.1,0.2-0.2c0.1-0.5,0.1-1,0.1-1.4
			c0-0.5-0.1-1-0.3-1.5c0,0.2,0.1,0.3,0.1,0.5c0,0.9-0.3,1.8-0.8,2.5c-1.2,1.8-0.6,3-0.2,3.5c0.1,0.1,0.2,0.2,0.3,0.3
			c0.3,0.2,0.4,0.5,0.3,0.9l-1.4,3.5c-0.1,0.2-0.3,0.4-0.6,0.4H59h-0.3h-1.4c0.1-0.5,0.5-1,1.2-1.3l1-2.6c-2.1-0.2-3.2-1.8-3.7-2.7
			c0,0.8,0.3,1.3,0.5,1.6c0.1,0.1,0.2,0.2,0.3,0.3c0.3,0.2,0.4,0.5,0.3,0.9l-1.4,3.5c-0.1,0.2-0.3,0.4-0.6,0.4h-0.4c0,0,0,0,0,0H53
			c0.1-0.5,0.5-1,1.2-1.3l1-2.6c-1.4-0.1-2.4-0.9-3-1.7c0-0.1-0.1-0.1-0.1-0.2c-0.5,0.1-1,0.2-1.6,0.2c-0.4,0-0.8,0-1.3-0.1
			c-0.7,1.6-1.7,2.7-2.8,3v1.9c0,0.4-0.3,0.7-0.7,0.7H44c0.1-0.4,0.4-0.9,1-1.2v-1.4c-0.3-0.1-0.6-0.2-0.9-0.4
			c-0.3,0.2-0.6,0.4-0.9,0.4v1.9c0,0.4-0.3,0.7-0.7,0.7h-1.7c0.1-0.4,0.4-0.9,1-1.2v-1.5c-2-0.7-3.4-4-3.4-7.9c0,0,0-0.1,0-0.1
			c-0.2,0.1-0.4,0.2-0.6,0.3c-0.2,0.1-0.3,0.1-0.5,0.1c-0.4,0-0.8-0.1-1.1-0.2c-0.2-0.1-0.3-0.2-0.3-0.2s0.5-1.1,1.4-1.4
			c0.2-0.1,0.4-0.1,0.5-0.1c-0.8-0.5-1.2-1.3-1-2.5c0-0.1,0.1-0.1,0.2-0.1c0.1,0,0.1,0,0.1,0.1c0.3,0.8,0.8,1.2,1.4,1.4
			c0-0.2-0.1-0.4-0.1-0.6C38.4,13.7,41.2,11.6,44.7,11.6 M44.7,9.6c-3.4,0-6.2,1.5-7.5,3.8c-0.1,0-0.2,0-0.3,0c-1.1,0-2,0.8-2.1,1.8
			c-0.1,0.8-0.1,1.5,0.1,2.1c-0.5,0.6-0.8,1.1-0.9,1.3c-0.4,0.9-0.1,2,0.8,2.5c0.1,0,0.3,0.2,0.6,0.3c0.3,0.1,0.6,0.2,1.1,0.3
			c0.4,2.9,1.4,5.3,3,6.7c-0.3,0.4-0.5,0.9-0.6,1.4c-0.1,0.6,0,1.2,0.4,1.7c0.4,0.5,0.9,0.7,1.5,0.7h1.7c0.3,0,0.6,0,0.8-0.1
			c0.2,0.1,0.5,0.1,0.7,0.1h1.7c1.5,0,2.7-1.2,2.7-2.7v-0.7c0.7-0.5,1.4-1.2,2-2.1c0,0,0.1,0,0.1,0c0.3,0,0.6,0,0.8,0
			c0.4,0.4,0.8,0.7,1.3,0.9c-0.8,0.6-1.3,1.4-1.5,2.2c-0.1,0.6,0,1.2,0.4,1.7c0.4,0.5,0.9,0.7,1.5,0.7h1.4l0.4,0
			c0.5,0,0.9-0.1,1.3-0.4c0.3,0.2,0.7,0.4,1.2,0.4h1.4H59h0.1c1,0,2-0.7,2.4-1.6l1.4-3.5c0.1-0.3,0.2-0.7,0.2-1
			c0.3-0.2,0.5-0.4,0.7-0.6c0.8-1.2,0.9-2.6,0.5-4c0.1-1.2,0-2.4-0.4-3.4c-0.3-0.8-0.8-1.6-1.4-2.1c-1.1-1.7-3-2.8-5.1-2.8
			c-1.3,0-2.4-0.2-3.3-0.3c-0.4-0.1-0.8-0.2-1.2-0.3c-0.1,0-0.1,0-0.2-0.1c-0.1,0-0.2-0.1-0.2-0.1l-0.2-0.1
			c-0.2-0.1-0.3-0.1-0.5-0.2c-0.1,0-0.2-0.1-0.3-0.1L51.5,12l-0.2-0.1c-0.1-0.1-0.2-0.1-0.3-0.2c-0.1-0.1-0.2-0.1-0.3-0.2l-0.2-0.1
			l-0.2-0.1c-0.1-0.1-0.2-0.1-0.3-0.2c0,0-0.1-0.1-0.1-0.1C48.3,10.1,46.5,9.6,44.7,9.6L44.7,9.6z"/>
	</g>
	<g>
		<path class="st10" d="M62,21.7c-0.2,0-0.4,0.1-0.5,0.2c-0.8,1.5-0.1,1.8-0.2,3.1c0,0,0.5-0.4,0.7-1.2l0.1,0.6
			c0.4-0.7,0.6-1.5,0.3-2.4C62.3,21.8,62.2,21.7,62,21.7z"/>
		<g>
			<path class="st4" d="M62.2,22c0,0.1-0.1,0.2-0.2,0.2c0,0,0,0,0,0c-0.1,0-0.2-0.2-0.2-0.3c0.1-0.6,0.2-1.2,0.1-1.7
				c-0.1-1.5-0.8-2.7-1.8-2.9c-0.1,0-0.2-0.2-0.2-0.3c0-0.1,0.2-0.2,0.3-0.2c0.9,0.2,1.5,0.9,1.9,1.9C62.3,19.6,62.4,20.8,62.2,22z"
				/>
		</g>
		<path class="st11" d="M62,19c0,0.5-0.1,0.9-0.2,1.3c-0.1-1.5-0.8-2.7-1.8-2.9c-0.1,0-0.2-0.2-0.2-0.3c0-0.1,0.2-0.2,0.3-0.2
			c0.9,0.2,1.5,0.9,1.9,1.9C62,18.8,62,18.9,62,19z"/>
		<path class="st2" d="M42.4,30.3h-1.7c0.1-0.6,0.6-1.1,1.5-1.4L42.4,30.3z"/>
		<path class="st11" d="M42.4,30.3c-0.4,0-0.7-0.3-0.7-0.7v-3.8c0-0.4,0.3-0.7,0.7-0.7c0.4,0,0.7,0.3,0.7,0.7v3.8
			C43.2,30,42.8,30.3,42.4,30.3z"/>
		<path class="st2" d="M54.7,30.3H53c0.1-0.6,0.6-1.1,1.5-1.4L54.7,30.3z"/>
		<path class="st11" d="M56.8,26.4l-1.4,3.5c-0.1,0.2-0.3,0.4-0.6,0.4h-0.4c-0.4,0-0.6-0.4-0.5-0.7l1.2-3.2c-1.4-0.1-2.4-0.9-3-1.7
			c-0.7-0.9-1-1.8-1-1.8c-0.9-3.6,4-4.5,5.3-1.2c-0.5,0.7-0.7,1.3-0.7,1.9c-0.1,0.8,0.3,1.3,0.5,1.6c0.1,0.1,0.2,0.2,0.3,0.3
			C56.8,25.7,56.9,26,56.8,26.4z"/>
		<path class="st2" d="M45.7,30.3H44c0.1-0.6,0.6-1.1,1.5-1.4L45.7,30.3z"/>
		<path class="st11" d="M45.7,30.3c-0.4,0-0.7-0.3-0.7-0.7v-3.8c0-0.4,0.3-0.7,0.7-0.7s0.7,0.3,0.7,0.7v3.8
			C46.4,30,46.1,30.3,45.7,30.3z"/>
		<path class="st2" d="M59,30.3h-1.7c0.1-0.6,0.6-1.1,1.5-1.4L59,30.3z"/>
		<circle class="st4" cx="57.4" cy="19.3" r="4.1"/>
		<path class="st12" d="M56.5,21.8c-0.5,0.7-0.7,1.3-0.7,1.9c-1.2,0.7-2.3,1.1-3.6,1.1c-0.7-0.9-1-1.8-1-1.8
			C50.3,19.3,55.2,18.5,56.5,21.8z"/>
		<path class="st4" d="M57.4,15.1L56.7,22c-3.4,2.5-5.2,3.3-8.9,2.3l1-11.2l0-0.3c1.6,1,3,1.6,5,2C54.8,15,56,15.1,57.4,15.1z"/>
		<path class="st10" d="M38.3,18.7c0,0.3,0,0.7,0,1c0,4.5,1.9,8.1,4.2,8.1s4.2-3.6,4.2-8.1c0-0.3,0-0.7,0-1H38.3z"/>
		<ellipse class="st2" cx="45.7" cy="19.9" rx="4.5" ry="7.9"/>
		<path class="st6" d="M53.8,14.8c-1.9-0.4-3.3-1-4.8-1.9c-1.1-0.8-2.6-1.2-4.2-1.2c-3.5,0-6.3,2.1-6.3,4.7s2.8,4.7,6.3,4.7
			c3.5,0,6.3-2.1,6.3-4.7C50.9,15.1,52.4,14.8,53.8,14.8z"/>
		<path class="st4" d="M60.5,25.2c-0.3-0.5-1-1.7,0.2-3.5c-1.3-3.3-6.1-2.5-5.3,1.2c0,0,0.9,3.2,4,3.5l-1.2,3.2
			c-0.1,0.3,0.1,0.7,0.5,0.7h0.4c0.2,0,0.5-0.2,0.6-0.4l1.4-3.5c0.1-0.3,0-0.7-0.3-0.9C60.7,25.4,60.6,25.3,60.5,25.2z"/>
		<g>
			<path class="st2" d="M39,19c-0.2,0.3-0.7,0.6-1.2,0.8c-0.6,0.2-1.2,0-1.6-0.2c-0.2-0.1-0.3-0.2-0.3-0.2s0.5-1.1,1.4-1.4
				c0.9-0.3,1.7-0.1,1.9,0.3C39.1,18.6,39.1,18.8,39,19z"/>
			<path class="st2" d="M47.2,19.5c0,0-0.1,0.1-0.3,0.2c-0.4,0.2-1,0.3-1.6,0.2c-0.6-0.2-1-0.5-1.2-0.8c-0.1-0.2-0.2-0.4-0.1-0.5
				c0.1-0.5,1-0.6,1.9-0.3C46.7,18.4,47.2,19.5,47.2,19.5z"/>
			<path class="st11" d="M39,19c-0.2,0.3-0.7,0.6-1.2,0.8c-0.6,0.2-1.2,0-1.6-0.2c0.2-0.3,0.6-0.7,1-0.8C37.9,18.6,38.7,18.7,39,19z
				"/>
			<path class="st11" d="M46.8,19.7c-0.4,0.2-1,0.3-1.6,0.2c-0.6-0.2-1-0.5-1.2-0.8c0.3-0.3,1-0.4,1.8-0.1
				C46.3,19,46.6,19.4,46.8,19.7z"/>
			<g>
				<path class="st6" d="M42.6,24.4c0,1-1.1,1.7-1.1,1.7s-1.1-0.8-1.1-1.7s0.5-1.7,1.1-1.7C42,22.7,42.6,23.4,42.6,24.4z"/>
				<g>
					<path class="st6" d="M41.4,24.1c0,1-0.8,1.7-0.8,1.7s-0.8-0.8-0.8-1.7c0-1,0.3-1.7,0.8-1.7C41,22.4,41.4,23.1,41.4,24.1z"/>
					<path class="st6" d="M43,24.1c0,1-0.8,1.7-0.8,1.7s-0.8-0.8-0.8-1.7c0-1,0.3-1.7,0.8-1.7C42.7,22.4,43,23.1,43,24.1z"/>
				</g>
			</g>
			<path class="st6" d="M44.7,19.2c0,2.6-1.4,4.7-3.2,4.7c-1.8,0-3.2-2.1-3.2-4.7s1.4-3.6,3.2-3.6C43.3,15.7,44.7,16.6,44.7,19.2z"
				/>
			<g>
				<path class="st4" d="M37,15.5c0.4,1,1.1,1.4,2.1,1.5c0.3,0,0.6,0.3,0.6,0.7c0,0.4-0.4,0.7-0.8,0.7c-1.6-0.2-2.4-1.3-2.2-2.9
					C36.7,15.4,37,15.4,37,15.5z"/>
				<path class="st4" d="M46,15.5c-0.4,1-1.1,1.4-2.1,1.5c-0.3,0-0.6,0.3-0.6,0.7c0,0.4,0.4,0.7,0.8,0.7c1.6-0.2,2.4-1.3,2.2-2.9
					C46.2,15.4,46,15.4,46,15.5z"/>
			</g>
			<polygon class="st5" points="42.3,22.3 40.6,22.3 40,18.4 43,18.4 			"/>
			<g>
				<path class="st9" d="M41.8,24.2h-0.6c-0.5,0-0.8-0.4-0.8-0.8c0-0.5,0.4-0.8,0.8-0.8h0.6c0.5,0,0.8,0.4,0.8,0.8
					C42.6,23.9,42.3,24.2,41.8,24.2z"/>
				<path class="st2" d="M41.9,24h-0.8c-0.6,0-1-0.5-1-1c0-0.6,0.5-1,1-1h0.8c0.6,0,1,0.5,1,1C42.9,23.6,42.4,24,41.9,24z"/>
				<g>
					<path class="st9" d="M40.6,23.2c0.1,0.1,0.3,0.2,0.5,0.1c0.1,0,0.1-0.1,0-0.2l-0.4-0.4c-0.1-0.1-0.2,0-0.2,0
						C40.5,22.9,40.5,23.1,40.6,23.2z"/>
					<path class="st9" d="M42.3,23.2c-0.1,0.1-0.3,0.2-0.5,0.1c-0.1,0-0.1-0.1,0-0.2l0.4-0.4c0.1-0.1,0.2,0,0.2,0
						C42.5,22.9,42.4,23.1,42.3,23.2z"/>
				</g>
			</g>
			<g>
				<path class="st8" d="M43.5,19.6c0,0,0,0.3-0.1,0.4C43.2,20,43,19.9,43,19.9s0-0.3,0.1-0.4C43.3,19.4,43.5,19.6,43.5,19.6z"/>
				<path class="st8" d="M39.4,19.6c0,0,0,0.3,0.1,0.4c0.1,0.1,0.4-0.1,0.4-0.1s0-0.3-0.1-0.4C39.7,19.4,39.4,19.6,39.4,19.6z"/>
			</g>
			<path class="st2" d="M42.7,18.9h-2.4c-1,0-1.8-0.8-1.8-1.8v0c0-1,0.8-1.8,1.8-1.8h2.4c1,0,1.8,0.8,1.8,1.8v0
				C44.5,18.1,43.7,18.9,42.7,18.9z"/>
		</g>
	</g>
</g>
<g>
	<g>
		<path class="st1" d="M86.3,35.7c-0.1,0-0.3,0-0.4-0.1c-0.2,0.1-0.4,0.1-0.6,0.1h-1.3c-0.3,0-0.6-0.1-0.8-0.4
			c-0.2-0.2-0.3-0.5-0.2-0.8c0.1-0.4,0.3-0.7,0.6-1.1v-5.7l-1.2-0.1v6.4c0,1-0.8,1.7-1.7,1.7h-1.3c-0.2,0-0.3,0-0.5-0.1
			c-0.2,0.1-0.4,0.1-0.6,0.1h-1.3c-0.3,0-0.6-0.1-0.8-0.4c-0.2-0.2-0.3-0.5-0.2-0.8c0.1-0.4,0.3-0.7,0.6-1.1v-7.5
			c-0.3-0.3-0.5-0.7-0.7-1.1c-1.5-3.5-1-6.8-0.3-9.6c0,0,0-0.1,0-0.1c0.1-0.2,0.1-0.4,0.2-0.7c0.1-0.4,0.2-0.8,0.3-1.1
			c0.4-1.2,0.7-2.3,0.8-3.3c-0.1,0-0.1,0-0.2,0l-0.4,0.2c-0.2,0.1-0.4,0.2-0.7,0.2c-0.1,0-0.3,0-0.4-0.1c0,0,0,0-0.1,0
			c-0.2,0-0.3,0-0.5-0.1C74.1,10,73.7,9.6,73.7,9c0-0.1,0-0.2,0-0.2c0-0.2,0-0.5,0.1-0.7c0.1-0.4,0.4-0.7,0.7-0.9c0,0,0-0.1,0.1-0.1
			c-0.3-0.3-0.5-0.6-0.5-0.7c-0.1-0.3-0.2-0.6-0.1-0.9c0.1-0.3,0.4-0.5,0.7-0.6c0,0,0.4-0.1,0.8-0.1c0-0.7,0.4-1.3,1.1-1.4
			c0.1,0,0.2,0,0.4,0c0.2,0,0.4,0,0.6,0.1c0.2-0.1,0.4-0.1,0.6-0.1c0.1,0,0.2,0,0.2,0c0.4,0.1,0.7,0.3,1,0.6
			c0.2,0.3,0.3,0.6,0.3,0.9c0.5,0,0.9,0.1,0.9,0.1c0.3,0.1,0.5,0.3,0.7,0.6c0.1,0.3,0.1,0.6-0.1,0.9c-0.1,0.1-0.3,0.5-0.6,0.8
			c0.1,0.2,0.1,0.4,0.2,0.6c0,0,0,0.1,0,0.1c0,0.2,0.1,0.4,0.1,0.6l0,0.2c0,0.2,0,0.4,0.1,0.6c0,0,0,0.1,0,0.1c0,0.6,0,1.2-0.1,1.9
			c-0.1,0.6-0.1,1.1-0.2,1.7c-0.1,0.4-0.3,1.7-0.3,1.7c-0.1,0.5-0.2,0.9-0.2,1.4c-0.2,1.2-0.2,2.1-0.2,3c0,0.6,0.5,1,1,1.1l4.7,0.5
			c0.2,0,0.4,0.1,0.6,0.1c0.1,0,0.1,0,0.2,0.1c0.1,0,0.2,0.1,0.3,0.1c0,0,0.1,0,0.1,0.1c0.2,0.1,0.4,0.2,0.6,0.3
			c0.2,0,0.4,0.1,0.6,0.1c0.6,0.2,1.2,0.6,1.6,1.2c0.4,0.6,0.7,1.3,0.7,2v2.2c0.2,0.4,0.3,0.8,0.3,1.4c0,1-0.7,1.7-0.9,1.9
			c-0.2,0.1-0.3,0.2-0.5,0.3l0,3.7c0,1-0.8,1.7-1.7,1.7H86.3z"/>
		<path class="st1" d="M78.1,4.3C78.2,4.3,78.2,4.4,78.1,4.3c0.3,0,0.5,0.3,0.5,0.5c0,0.2-0.1,0.3-0.3,0.4l-0.1,0.7c0,0,0,0,0,0
			C78.3,6,78.4,6,78.5,6.1c0.1-0.1,0.2-0.1,0.3-0.2c0.2-0.1,0.4-0.1,0.6-0.1c0.4,0,0.8,0.1,0.8,0.1s-0.4,0.8-1,1c0,0,0,0,0,0
			c0.2,0.3,0.3,0.5,0.3,0.5c0.1,0.2,0.2,0.4,0.2,0.6h0c0,0,0,0.1,0,0.1c0,0.2,0.1,0.4,0.1,0.6c0,0.1,0,0.1,0,0.2c0,0.2,0,0.3,0,0.5
			c0,0,0,0,0,0.1h0c0,0.5,0,1.1-0.1,1.7c0,0,0,0,0,0c0,0,0,0,0,0c-0.1,0.5-0.1,1-0.2,1.6c0,0,0,0,0,0h0c-0.1,0.5-0.2,1.1-0.3,1.7
			c-0.1,0.5-0.2,0.9-0.2,1.4C79,16.9,78.9,18,79,19c0,1.1,0.9,1.9,1.9,2c0.3,0,0.6,0.1,0.9,0.1c0.4,0,0.8,0.1,1.2,0.1
			c1,0.1,1.9,0.2,2.6,0.3c0.2,0,0.3,0,0.5,0.1c0.1,0,0.1,0,0.2,0.1c0.1,0,0.1,0,0.2,0.1l0,0c0.3,0.1,0.5,0.2,0.7,0.4
			c0.2,0,0.4,0,0.6,0.1c0.5,0.1,0.9,0.4,1.1,0.8c0.3,0.4,0.5,0.9,0.5,1.4V27c0.2,0.2,0.3,0.6,0.3,1c0,0.6-0.6,1.2-0.6,1.2
			s-0.6-0.5-0.6-1.2c0-0.5,0.1-0.9,0.3-1v-2.5c0,0,0-0.1,0-0.1c0-0.5-0.2-0.9-0.6-1.2c-0.2-0.2-0.4-0.3-0.6-0.4
			c0.2,0.3,0.3,0.5,0.4,0.9c0,0,0,0,0,0c0,0,0,0,0,0.1c0.1,0.2,0.1,0.4,0.1,0.7l0,0.7l0,4.2c0,0,0,0.1,0,0.1l0,4.7
			c0,0.4-0.3,0.7-0.7,0.7h-1.3c0.1-0.3,0.3-0.6,0.6-0.8V27c0,0-0.3,0-0.8-0.1v7c0,0.4-0.3,0.7-0.7,0.7h0h-1.3
			c0.1-0.3,0.3-0.6,0.6-0.8v-7.1c-1-0.1-2.1-0.2-3.2-0.3v7.5c0,0.4-0.3,0.7-0.7,0.7v0h-1.3c0.1-0.3,0.3-0.6,0.6-0.8v-7.6
			c-0.2,0-0.4,0-0.6-0.1c-0.1,0-0.2,0-0.3,0v7.7c0,0.4-0.3,0.7-0.7,0.7v0h-1.3c0.1-0.3,0.3-0.6,0.6-0.8v-8.4
			c-0.3-0.3-0.6-0.6-0.8-1.1c-1.4-3.3-0.9-6.3-0.2-9.1c0,0,0,0,0,0c0.1-0.2,0.1-0.4,0.2-0.6l0,0c0.6-2.3,1.4-4.3,1.2-6
			c-0.1,0.1-0.2,0.2-0.3,0.2C77.3,9,77.2,9.1,77,9.1c-0.2,0-0.3,0-0.5-0.1l-0.7,0.4c-0.1,0-0.2,0.1-0.2,0.1c-0.1,0-0.2,0-0.3-0.1
			c-0.1,0-0.1,0-0.2,0c0,0-0.1,0-0.1,0c-0.2-0.1-0.3-0.3-0.3-0.5l0,0c0,0,0,0,0,0c0-0.1,0-0.2,0-0.3C74.8,8.2,75,8.1,75.2,8
			C75.4,7.7,75.7,7.3,76,7c0,0,0,0-0.1,0c-0.6-0.2-1-1-1-1s0.4-0.1,0.8-0.1c0.2,0,0.4,0,0.6,0.1c0.2,0.1,0.3,0.2,0.4,0.3
			C76.8,6.1,76.9,6.1,77,6l-0.2-0.8c-0.2,0-0.3-0.2-0.3-0.3c-0.1-0.3,0.1-0.5,0.3-0.6c0,0,0.1,0,0.1,0c0.2,0,0.4,0.1,0.5,0.4
			c0,0.2,0,0.3-0.1,0.4l0.2,0.7c0.1,0,0.1,0,0.2,0c0,0,0.1,0,0.1,0c0,0,0,0,0,0l0.1-0.7c-0.1-0.1-0.2-0.3-0.2-0.4
			C77.7,4.5,77.9,4.3,78.1,4.3 M78.1,2.3C78.1,2.3,78.1,2.3,78.1,2.3C78.1,2.3,78.1,2.3,78.1,2.3c-0.2,0-0.4,0-0.6,0.1
			c-0.2,0-0.4-0.1-0.6-0.1c-0.2,0-0.4,0-0.6,0.1c-0.6,0.2-1.2,0.6-1.5,1.1c-0.1,0.1-0.1,0.3-0.2,0.4C74.5,4,74.4,4,74.4,4
			c-0.6,0.2-1.1,0.6-1.3,1.2c-0.2,0.6-0.2,1.2,0.1,1.7c0,0,0,0.1,0.1,0.1c-0.2,0.2-0.3,0.4-0.4,0.7c-0.1,0.3-0.2,0.7-0.2,1.1
			c0,0.1,0,0.2,0,0.3c0.1,0.9,0.7,1.7,1.5,2c0.3,0.1,0.5,0.2,0.8,0.2c0.2,0,0.3,0.1,0.5,0.1c-0.1,0.5-0.3,1.1-0.5,1.7
			c-0.1,0.4-0.2,0.7-0.3,1.1c0,0,0,0,0,0.1c-0.1,0.2-0.1,0.4-0.2,0.7c0,0,0,0.1,0,0.1c-0.7,2.9-1.3,6.4,0.4,10.2
			c0.2,0.4,0.4,0.8,0.6,1.1V33c-0.3,0.4-0.5,0.8-0.5,1.2c-0.1,0.6,0,1.2,0.4,1.7c0.4,0.5,0.9,0.7,1.5,0.7h1.3c0.2,0,0.4,0,0.6-0.1
			c0.2,0,0.3,0.1,0.5,0.1h1.3c0.7,0,1.3-0.3,1.8-0.7c0.4,0.4,0.9,0.7,1.5,0.7h1.3c0.2,0,0.4,0,0.5-0.1c0.1,0,0.3,0.1,0.4,0.1h1.3
			c1.5,0,2.7-1.2,2.7-2.7l0-3.1c0.1-0.1,0.2-0.1,0.2-0.2c0.2-0.2,1.2-1.2,1.2-2.6c0-0.6-0.1-1.1-0.3-1.6v-2c0-0.9-0.3-1.8-0.9-2.6
			c-0.5-0.7-1.3-1.2-2.1-1.5c-0.2-0.1-0.4-0.1-0.6-0.1c-0.1-0.1-0.3-0.2-0.5-0.2c-0.1,0-0.1-0.1-0.2-0.1c-0.1,0-0.2-0.1-0.3-0.1l0,0
			c-0.1,0-0.2-0.1-0.3-0.1c-0.3-0.1-0.5-0.1-0.8-0.1l-2.6-0.3L82,19.2l-0.4,0l-0.5,0C81,19.1,81,19,81,18.9c0-0.8,0-1.7,0.2-2.8
			c0.1-0.5,0.1-0.9,0.2-1.4l0.1-0.5c0.1-0.4,0.1-0.8,0.2-1.2c0,0,0,0,0-0.1c0.1-0.6,0.2-1.1,0.2-1.6c0,0,0-0.1,0-0.1
			c0,0,0-0.1,0-0.1c0.1-0.6,0.1-1.2,0.1-1.8c0,0,0-0.1,0-0.1c0,0,0-0.1,0-0.1c0-0.2,0-0.4-0.1-0.6c0-0.1,0-0.2,0-0.2
			c0-0.2-0.1-0.4-0.1-0.7c0-0.1,0-0.1,0-0.2c0,0,0-0.1,0-0.1c0,0,0,0,0,0C81.8,7.2,81.9,7,82,6.9c0.3-0.5,0.3-1.2,0.1-1.7
			c-0.2-0.6-0.7-1-1.3-1.2c0,0-0.2,0-0.4-0.1c-0.1-0.2-0.2-0.4-0.3-0.6c-0.4-0.5-1-0.9-1.6-1C78.4,2.4,78.3,2.3,78.1,2.3L78.1,2.3
			L78.1,2.3z"/>
	</g>
	<g>
		<g>
			<path class="st13" d="M89.4,24.4v3.3H89v-3.3c0,0,0-0.1,0-0.1c0-0.5-0.2-0.9-0.6-1.2c-0.3-0.3-0.8-0.5-1.3-0.5h-0.9v-0.5h0.9
				c0.2,0,0.5,0,0.7,0.1c0.5,0.1,0.9,0.4,1.1,0.8C89.2,23.4,89.4,23.9,89.4,24.4z"/>
		</g>
		<path class="st5" d="M89.7,28c0,0.6-0.6,1.2-0.6,1.2s-0.6-0.5-0.6-1.2c0-0.6,0.2-1.2,0.6-1.2C89.5,26.9,89.7,27.4,89.7,28z"/>
		<path class="st14" d="M88.4,23.1c-0.3-0.3-0.8-0.5-1.3-0.5h-0.9v-0.5h0.9c0.2,0,0.5,0,0.7,0.1C88,22.5,88.2,22.8,88.4,23.1z"/>
		<g>
			<path class="st14" d="M74.9,5.9c0,0,0.4,0.8,1,1c0.6,0.2,0.9,0.1,1-0.2c0.1-0.3-0.1-0.6-0.6-0.9C75.8,5.7,74.9,5.9,74.9,5.9z"/>
		</g>
		<g>
			<path class="st15" d="M76.4,6.8c0.1,0,0.2,0,0.3-0.1c0,0,0-0.1,0-0.2c-0.1-0.1-0.2-0.2-0.4-0.3c-0.1-0.1-0.3-0.1-0.5-0.1
				c-0.1,0-0.3,0-0.4,0c0.2,0.2,0.4,0.5,0.7,0.6C76.2,6.8,76.3,6.8,76.4,6.8z"/>
		</g>
		<g>
			<path class="st14" d="M77.4,6.5c-0.1,0-0.3,0-0.3-0.2l-0.3-1.2c0-0.1,0-0.3,0.2-0.3c0.1,0,0.3,0,0.3,0.2l0.3,1.2
				C77.6,6.4,77.5,6.5,77.4,6.5z"/>
			<path class="st5" d="M77.4,4.7c0.1,0.3-0.1,0.5-0.3,0.6c-0.3,0.1-0.5-0.1-0.6-0.3c-0.1-0.3,0.1-0.5,0.3-0.6
				C77.1,4.3,77.3,4.5,77.4,4.7z"/>
		</g>
		<path class="st5" d="M78.2,34.7h-1.3c0.1-0.5,0.5-0.9,1.2-1.1L78.2,34.7z"/>
		<path class="st5" d="M80.6,34.7h-1.3c0.1-0.5,0.5-0.9,1.2-1.1L80.6,34.7z"/>
		<path class="st5" d="M85.3,34.7h-1.3c0.1-0.5,0.5-0.9,1.2-1.1L85.3,34.7z"/>
		<path class="st5" d="M87.6,34.7h-1.3c0.1-0.5,0.5-0.9,1.2-1.1L87.6,34.7z"/>
		<g>
			<path class="st14" d="M85.3,34.7c0.4,0,0.7-0.3,0.7-0.7v-7.2c0-0.2-0.1-0.8-0.2-1c-0.2-0.2-0.4-0.3-0.7-0.2
				c-0.4,0.1-0.6,0.4-0.6,0.8v7.6C84.5,34.3,84.9,34.7,85.3,34.7z"/>
		</g>
		<g>
			<path class="st13" d="M87.6,34.7c0.4,0,0.7-0.3,0.7-0.7l0-4.7c0-0.2-0.1-3.4-0.2-3.5c-0.2-0.2-0.4-0.3-0.7-0.2
				c-0.4,0.1-0.6,0.4-0.6,0.8v7.6C86.8,34.3,87.2,34.7,87.6,34.7z"/>
		</g>
		<g>
			<path class="st14" d="M79,33.9v-8.4c0-0.4-0.3-0.7-0.7-0.8c-0.4,0-0.8,0.3-0.8,0.7v8.4c0,0.4,0.3,0.7,0.7,0.7
				C78.6,34.7,79,34.3,79,33.9z"/>
		</g>
		<g>
			<path class="st13" d="M81.4,33.9v-8.4c0-0.4-0.3-0.7-0.7-0.8c-0.4,0-0.8,0.3-0.8,0.7v8.4c0,0.4,0.3,0.7,0.7,0.7
				C81,34.7,81.4,34.3,81.4,33.9z"/>
		</g>
		<path class="st13" d="M88.3,24.3c0-1.5-1.2-2.6-2.7-2.7c-1.2-0.1-3.1-0.3-4.7-0.5c-1.1-0.1-1.9-1-1.9-2c-0.2-4.1,1.8-8.5,0.5-11.6
			h-2c1.9,3.8-3.8,9.8-0.8,17c0.4,1,1.4,1.7,2.5,1.8c2.2,0.2,7.6,0.8,7.6,0.8c0,0.5,0,1.6,0,2.1c0,1.5,0,2.2,1.5,2.2L88.3,24.3z"/>
		<g>
			<g>
				<path class="st5" d="M81.5,21.6c-0.1,0.1-0.1,0.2,0,0.3l0.3,0.5c0.1,0.1,0.2,0.2,0.3,0.2h0.6c0.1,0,0.2-0.1,0.3-0.2l0.3-0.5
					c0.1-0.1,0.1-0.2,0-0.3L83,21.3c-0.4,0-0.8-0.1-1.2-0.1L81.5,21.6z"/>
			</g>
			<g>
				<path class="st5" d="M80.4,23l-0.2,0.3c0,0.1,0,0.1,0,0.2l0.2,0.3c0,0.1,0.1,0.1,0.2,0.1h0.3c0.1,0,0.1,0,0.2-0.1l0.2-0.3
					c0-0.1,0-0.1,0-0.2L81.1,23c0-0.1-0.1-0.1-0.2-0.1h-0.3C80.5,22.9,80.4,22.9,80.4,23z"/>
			</g>
			<g>
				<path class="st5" d="M80.3,25.1l-0.2,0.4c0,0.1,0,0.2,0,0.2l0.2,0.4c0,0.1,0.1,0.1,0.2,0.1H81c0.1,0,0.2,0,0.2-0.1l0.2-0.4
					c0-0.1,0-0.2,0-0.2l-0.2-0.4c0-0.1-0.1-0.1-0.2-0.1h-0.4C80.5,25,80.4,25,80.3,25.1z"/>
			</g>
			<g>
				<path class="st5" d="M84.6,23.1l-0.2-0.4c0-0.1-0.1-0.1-0.2-0.1h-0.4c-0.1,0-0.2,0-0.2,0.1l-0.2,0.4c0,0.1,0,0.2,0,0.2l0.2,0.4
					c0,0.1,0.1,0.1,0.2,0.1h0.4c0.1,0,0.2,0,0.2-0.1l0.2-0.4C84.7,23.2,84.7,23.1,84.6,23.1z"/>
			</g>
			<g>
				<path class="st5" d="M82.7,23.6h-0.5c-0.1,0-0.2,0.1-0.3,0.2l-0.3,0.5c-0.1,0.1-0.1,0.2,0,0.3l0.3,0.5c0.1,0.1,0.2,0.2,0.3,0.2
					h0.5c0.1,0,0.2-0.1,0.3-0.2l0.3-0.5c0.1-0.1,0.1-0.2,0-0.3L83,23.7C82.9,23.6,82.8,23.6,82.7,23.6z"/>
			</g>
			<g>
				<path class="st5" d="M79.3,11.2c-0.1,0-0.2,0.1-0.3,0.2l-0.3,0.5c-0.1,0.1-0.1,0.2,0,0.3l0.3,0.5c0.1,0.1,0.2,0.2,0.3,0.2h0.4
					c0.1-0.5,0.2-1.1,0.2-1.6c0,0,0,0-0.1,0H79.3z"/>
			</g>
			<g>
				<path class="st5" d="M78.3,17.7h-0.4c-0.1,0-0.2,0-0.2,0.1l-0.2,0.3c0,0.1,0,0.2,0,0.2l0.2,0.3c0,0.1,0.1,0.1,0.2,0.1h0.4
					c0.1,0,0.2,0,0.2-0.1l0.2-0.3c0-0.1,0-0.2,0-0.2l-0.2-0.3C78.5,17.7,78.4,17.7,78.3,17.7z"/>
			</g>
			<g>
				<path class="st5" d="M78.3,14.5L78,14.9C78,15,78,15.2,78,15.3l0.3,0.5c0.1,0.1,0.2,0.2,0.3,0.2h0.6c0,0,0,0,0,0
					c0.1-0.5,0.1-1,0.2-1.5c-0.1-0.1-0.2-0.1-0.3-0.1h-0.6C78.5,14.3,78.4,14.4,78.3,14.5z"/>
			</g>
			<g>
				<path class="st5" d="M87.4,23.7l-0.3,0.4c-0.1,0.1-0.1,0.2,0,0.3l0.3,0.4c0.1,0.1,0.1,0.1,0.2,0.1h0.5c0.1,0,0.1,0,0.2-0.1
					l0-0.7c0-0.2,0-0.5-0.1-0.7c0,0,0,0-0.1,0h-0.5C87.5,23.6,87.5,23.6,87.4,23.7z"/>
			</g>
			<g>
				<path class="st5" d="M84.8,25.3c0.1,0.1,0.2,0.2,0.3,0.2h0.5c0.1,0,0.2-0.1,0.3-0.2l0.3-0.5c0.1-0.1,0.1-0.2,0-0.3L85.9,24
					c-0.1-0.1-0.2-0.2-0.3-0.2h-0.5c-0.1,0-0.2,0.1-0.3,0.2l-0.3,0.5c-0.1,0.1-0.1,0.2,0,0.3L84.8,25.3z"/>
			</g>
			<g>
				<path class="st5" d="M79.3,8.2L79,8.6c0,0.1,0,0.2,0,0.3l0.2,0.4c0,0.1,0.1,0.1,0.2,0.1h0.4c0-0.5-0.1-1-0.2-1.4h-0.2
					C79.4,8.1,79.3,8.1,79.3,8.2z"/>
			</g>
			<g>
				<path class="st5" d="M87.4,29.9l0.2-0.3c0-0.1,0-0.1,0-0.2l-0.2-0.3c0-0.1-0.1-0.1-0.2-0.1H87c0,0-0.1,0-0.1,0.1
					c0,0.3,0,0.6,0,0.8c0,0,0.1,0,0.1,0h0.3C87.4,30,87.4,29.9,87.4,29.9z"/>
			</g>
			<g>
				<path class="st5" d="M78.3,13.1c0-0.1-0.1-0.1-0.2-0.1h-0.4c-0.1,0-0.2,0-0.2,0.1l-0.2,0.4c0,0.1,0,0.2,0,0.3l0.2,0.4
					c0,0.1,0.1,0.1,0.2,0.1h0.4c0.1,0,0.2,0,0.2-0.1l0.2-0.4c0-0.1,0-0.2,0-0.3L78.3,13.1z"/>
			</g>
			<g>
				<path class="st5" d="M87.1,27.8c0,0,0.1,0.1,0.1,0.1h0.2c0,0,0.1,0,0.1-0.1l0.1-0.2c0,0,0-0.1,0-0.1l-0.1-0.2
					c0,0-0.1-0.1-0.1-0.1h-0.2c0,0-0.1,0-0.1,0.1L87,27.5c0,0,0,0.1,0,0.1L87.1,27.8z"/>
			</g>
			<g>
				<path class="st5" d="M85.3,21.5C85.3,21.5,85.3,21.5,85.3,21.5L85,22c-0.1,0.1-0.1,0.2,0,0.3l0.3,0.5c0.1,0.1,0.2,0.2,0.3,0.2
					h0.5c0.1,0,0.2-0.1,0.3-0.2l0.3-0.5c0.1-0.1,0.1-0.2,0-0.3l-0.1-0.3c-0.3-0.1-0.6-0.2-0.9-0.2C85.5,21.5,85.4,21.5,85.3,21.5z"
					/>
			</g>
			<g>
				<path class="st5" d="M87.2,26.5l0.2-0.3c0-0.1,0-0.2,0-0.2l-0.2-0.3c0-0.1-0.1-0.1-0.2-0.1h-0.4c-0.1,0-0.2,0-0.2,0.1l-0.2,0.3
					c0,0.1,0,0.2,0,0.2l0.2,0.3c0,0.1,0.1,0.1,0.2,0.1h0.4C87.1,26.6,87.2,26.6,87.2,26.5z"/>
			</g>
			<g>
				<path class="st5" d="M79.1,21.4l0.2-0.4c0-0.1,0-0.2,0-0.2l-0.2-0.4c0-0.1-0.1-0.1-0.2-0.1h-0.4c-0.1,0-0.2,0-0.2,0.1L78,20.8
					c0,0.1,0,0.2,0,0.2l0.2,0.4c0,0.1,0.1,0.1,0.2,0.1h0.4C78.9,21.6,79,21.5,79.1,21.4z"/>
			</g>
			<g>
				<path class="st5" d="M77.5,23.9c0,0,0.1,0,0.1-0.1l0.1-0.2c0,0,0-0.1,0-0.1l-0.1-0.2c0,0-0.1-0.1-0.1-0.1h-0.2
					c0,0-0.1,0-0.1,0.1l-0.1,0.2c0,0,0,0.1,0,0.1l0.1,0.2c0,0,0.1,0.1,0.1,0.1H77.5z"/>
			</g>
			<g>
				<path class="st5" d="M79.7,24.2l0.2-0.4c0-0.1,0-0.2,0-0.2l-0.2-0.4c0-0.1-0.1-0.1-0.2-0.1h-0.4c-0.1,0-0.2,0-0.2,0.1l-0.2,0.4
					c0,0.1,0,0.2,0,0.2l0.2,0.4c0,0.1,0.1,0.1,0.2,0.1h0.4C79.6,24.3,79.7,24.2,79.7,24.2z"/>
			</g>
			<g>
				<path class="st5" d="M76.9,21.1l0.1-0.2c0,0,0-0.1,0-0.1l-0.1-0.2c0,0-0.1-0.1-0.1-0.1h-0.2c0,0-0.1,0-0.1,0.1l-0.1,0.2
					c0,0,0,0.1,0,0.1l0.1,0.2c0,0,0.1,0.1,0.1,0.1h0.2C76.8,21.2,76.9,21.1,76.9,21.1z"/>
			</g>
			<g>
				<path class="st5" d="M88.3,27.7h-0.2c-0.1,0-0.2,0-0.2,0.1l-0.2,0.4c0,0.1,0,0.2,0,0.2l0.2,0.4c0,0.1,0.1,0.1,0.2,0.1h0.2
					L88.3,27.7z"/>
			</g>
			<g>
				<path class="st5" d="M76.1,18.4C76.1,18.4,76.1,18.4,76.1,18.4l0.3,0.1c0,0,0.1,0,0.1-0.1l0.1-0.2c0,0,0-0.1,0-0.1l-0.1-0.2
					c0,0-0.1-0.1-0.1-0.1h-0.2c0,0-0.1,0-0.1,0.1L76,18.1c0,0,0,0.1,0,0.1L76.1,18.4z"/>
			</g>
			<g>
				<path class="st5" d="M84.4,26.3c0-0.1,0-0.2,0-0.2l-0.2-0.4c0-0.1-0.1-0.1-0.2-0.1h-0.4c-0.1,0-0.2,0-0.2,0.1l-0.2,0.4
					c0,0.1,0,0.2,0,0.2l0.2,0.3c0.3,0,0.6,0.1,0.9,0.1L84.4,26.3z"/>
			</g>
			<g>
				<path class="st5" d="M76.6,15.3l0.1-0.2c0-0.1,0-0.1,0-0.2l-0.1-0.2c-0.1,0.2-0.1,0.4-0.2,0.6C76.5,15.4,76.6,15.3,76.6,15.3z"
					/>
			</g>
			<g>
				<path class="st5" d="M76.9,22.3l0.2,0.3c0,0.1,0.1,0.1,0.2,0.1h0.3c0.1,0,0.1,0,0.2-0.1l0.2-0.3c0-0.1,0-0.1,0-0.2l-0.2-0.3
					c0-0.1-0.1-0.1-0.2-0.1h-0.3c-0.1,0-0.1,0-0.2,0.1l-0.2,0.3C76.8,22.1,76.8,22.2,76.9,22.3z"/>
			</g>
			<g>
				<path class="st5" d="M77.6,25l0.2,0.3c0,0.1,0.1,0.1,0.2,0.1h0.3c0.1,0,0.1,0,0.2-0.1l0.2-0.3c0-0.1,0-0.1,0-0.2l-0.2-0.3
					c0-0.1-0.1-0.1-0.2-0.1H78c-0.1,0-0.1,0-0.2,0.1l-0.2,0.3C77.6,24.8,77.6,24.9,77.6,25z"/>
			</g>
			<g>
				<path class="st5" d="M76.5,19.5l0.2,0.3c0,0.1,0.1,0.1,0.2,0.1h0.3c0.1,0,0.1,0,0.2-0.1l0.2-0.3c0-0.1,0-0.1,0-0.2L77.2,19
					c0-0.1-0.1-0.1-0.2-0.1h-0.3c-0.1,0-0.1,0-0.2,0.1l-0.2,0.3C76.5,19.3,76.5,19.4,76.5,19.5z"/>
			</g>
			<g>
				<path class="st5" d="M78.2,10.7h0.4c0.1,0,0.1,0,0.2-0.1l0.2-0.3c0-0.1,0-0.1,0-0.2l-0.2-0.3c0-0.1-0.1-0.1-0.2-0.1h-0.4
					c-0.1,0-0.1,0-0.2,0.1L77.8,10c0,0.1,0,0.2,0,0.3l0.2,0.3C78,10.7,78.1,10.7,78.2,10.7z"/>
			</g>
			<g>
				<path class="st5" d="M79.5,22c0,0.1,0.1,0.1,0.1,0.1h0.3c0.1,0,0.1,0,0.1-0.1l0.1-0.2c0-0.1,0-0.1,0-0.2l-0.1-0.2
					c0-0.1-0.1-0.1-0.1-0.1h-0.3c-0.1,0-0.1,0-0.1,0.1l-0.1,0.2c0,0.1,0,0.1,0,0.2L79.5,22z"/>
			</g>
			<g>
				<path class="st5" d="M76.8,16.2l-0.2,0.4c0,0.1,0,0.2,0,0.2l0.2,0.4c0,0.1,0.1,0.1,0.2,0.1h0.4c0.1,0,0.2,0,0.2-0.1l0.2-0.4
					c0-0.1,0-0.2,0-0.2l-0.2-0.4c0-0.1-0.1-0.1-0.2-0.1H77C76.9,16.1,76.8,16.1,76.8,16.2z"/>
			</g>
		</g>
		<path class="st13" d="M77.6,5.8c-1.2,0-3,3-3,3l0.6,0.4c0.2,0.1,0.4,0.2,0.6,0.1l3.7-1.9C79.5,7.4,78.8,5.8,77.6,5.8z"/>
		<path class="st13" d="M78.2,7.7c0.2,0.4-0.1,1-0.6,1.2c-0.5,0.3-1.2,0.1-1.3-0.3c-0.2-0.4,0.1-1,0.6-1.2C77.4,7.1,78,7.3,78.2,7.7
			z"/>
		<g>
			<path class="st13" d="M77.9,6.1c-0.1,0-0.2-0.1-0.2-0.3L77.9,5c0-0.1,0.1-0.2,0.3-0.2c0.1,0,0.2,0.1,0.2,0.3l-0.1,0.8
				C78.2,6,78.1,6.1,77.9,6.1z"/>
			<path class="st5" d="M78.6,4.9c0,0.3-0.3,0.4-0.5,0.4c-0.3,0-0.4-0.3-0.4-0.5c0-0.3,0.3-0.4,0.5-0.4C78.5,4.4,78.6,4.6,78.6,4.9z
				"/>
		</g>
		<g>
			<path class="st16" d="M77.2,7.3c0,0-0.2,0.2-0.3,0.2c-0.1,0-0.2-0.1-0.2-0.2c0-0.1,0.1-0.2,0.2-0.2C77.1,7.1,77.2,7.3,77.2,7.3z"
				/>
		</g>
		<g>
			<path class="st13" d="M80.3,5.9c0,0-0.4,0.8-1,1c-0.6,0.2-0.9,0.1-1-0.2c-0.1-0.3,0.1-0.6,0.6-0.9S80.3,5.9,80.3,5.9z"/>
		</g>
		<g>
			<path class="st15" d="M78.7,6.8c-0.1,0-0.2,0-0.3-0.1c0,0,0-0.1,0-0.2c0.1-0.1,0.2-0.2,0.4-0.3c0.1-0.1,0.3-0.1,0.5-0.1
				c0.1,0,0.3,0,0.4,0c-0.2,0.2-0.4,0.5-0.7,0.6C79,6.8,78.8,6.8,78.7,6.8z"/>
		</g>
		<path class="st13" d="M75.7,8.9c0.1-0.4,0-0.7-0.2-0.8c-0.3-0.1-0.6,0.1-0.7,0.4c-0.1,0.4,0,0.7,0.2,0.8
			C75.2,9.4,75.6,9.2,75.7,8.9z"/>
	</g>
</g>
<g>
	<g>
		<path class="st1" d="M109.3,35.7c-0.1,0-0.3,0-0.4-0.1c-0.2,0.1-0.4,0.1-0.6,0.1H107c-0.3,0-0.6-0.1-0.8-0.4
			c-0.2-0.2-0.3-0.5-0.2-0.8c0.1-0.4,0.3-0.7,0.6-1.1v-5.7l-1.2-0.1v6.4c0,1-0.8,1.7-1.7,1.7h-1.3c-0.2,0-0.3,0-0.5-0.1
			c-0.2,0.1-0.4,0.1-0.6,0.1h-1.3c-0.3,0-0.6-0.1-0.8-0.4c-0.2-0.2-0.3-0.5-0.2-0.8c0.1-0.4,0.3-0.7,0.6-1.1v-7.5
			c-0.3-0.3-0.5-0.7-0.7-1.1c-1.5-3.5-1-6.8-0.3-9.6c0,0,0-0.1,0-0.1c0.1-0.2,0.1-0.4,0.2-0.7c0.1-0.4,0.2-0.8,0.3-1.1
			c0.4-1.2,0.7-2.3,0.8-3.3c-0.1,0-0.1,0-0.2,0l-0.4,0.2c-0.2,0.1-0.4,0.2-0.7,0.2c-0.1,0-0.3,0-0.4-0.1c0,0,0,0-0.1,0
			c-0.2,0-0.3,0-0.5-0.1C97.1,10,96.8,9.6,96.7,9c0-0.1,0-0.2,0-0.2c0-0.2,0-0.5,0.1-0.7c0.1-0.4,0.4-0.7,0.7-0.9c0,0,0-0.1,0.1-0.1
			c-0.3-0.3-0.5-0.6-0.5-0.7c-0.1-0.3-0.2-0.6-0.1-0.9c0.1-0.3,0.4-0.5,0.7-0.6c0,0,0.4-0.1,0.8-0.1c0-0.7,0.4-1.3,1.1-1.4
			c0.1,0,0.2,0,0.4,0c0.2,0,0.4,0,0.6,0.1c0.2-0.1,0.4-0.1,0.6-0.1c0.1,0,0.2,0,0.2,0c0.4,0.1,0.7,0.3,1,0.6
			c0.2,0.3,0.3,0.6,0.3,0.9c0.5,0,0.9,0.1,0.9,0.1c0.3,0.1,0.5,0.3,0.7,0.6c0.1,0.3,0.1,0.6-0.1,0.9c-0.1,0.1-0.3,0.5-0.6,0.8
			c0.1,0.2,0.1,0.4,0.2,0.6c0,0,0,0.1,0,0.1c0,0.2,0.1,0.4,0.1,0.6l0,0.2c0,0.2,0,0.4,0.1,0.6c0,0,0,0.1,0,0.1c0,0.6,0,1.2-0.1,1.9
			c-0.1,0.6-0.1,1.1-0.2,1.7c-0.1,0.4-0.3,1.7-0.3,1.7c-0.1,0.5-0.2,0.9-0.2,1.4c-0.2,1.2-0.2,2.1-0.2,3c0,0.6,0.5,1,1,1.1l4.7,0.5
			c0.2,0,0.4,0.1,0.6,0.1c0.1,0,0.1,0,0.2,0.1c0.1,0,0.2,0.1,0.3,0.1c0,0,0.1,0,0.1,0.1c0.2,0.1,0.4,0.2,0.6,0.3
			c0.2,0,0.4,0.1,0.6,0.1c0.6,0.2,1.2,0.6,1.6,1.2c0.4,0.6,0.7,1.3,0.7,2v2.2c0.2,0.4,0.3,0.8,0.3,1.4c0,1-0.7,1.7-0.9,1.9
			c-0.2,0.1-0.3,0.2-0.5,0.3l0,3.7c0,1-0.8,1.7-1.7,1.7H109.3z"/>
		<path class="st1" d="M101.2,4.3C101.2,4.3,101.2,4.4,101.2,4.3c0.3,0,0.5,0.3,0.5,0.5c0,0.2-0.1,0.3-0.3,0.4l-0.1,0.7c0,0,0,0,0,0
			c0.1,0.1,0.2,0.1,0.3,0.2c0.1-0.1,0.2-0.1,0.3-0.2c0.2-0.1,0.4-0.1,0.6-0.1c0.4,0,0.8,0.1,0.8,0.1s-0.4,0.8-1,1c0,0,0,0,0,0
			c0.2,0.3,0.3,0.5,0.3,0.5c0.1,0.2,0.2,0.4,0.2,0.6h0c0,0,0,0.1,0,0.1c0,0.2,0.1,0.4,0.1,0.6c0,0.1,0,0.1,0,0.2c0,0.2,0,0.3,0,0.5
			c0,0,0,0,0,0.1h0c0,0.5,0,1.1-0.1,1.7c0,0,0,0,0,0c0,0,0,0,0,0c-0.1,0.5-0.1,1-0.2,1.6c0,0,0,0,0,0h0c-0.1,0.5-0.2,1.1-0.3,1.7
			c-0.1,0.5-0.2,0.9-0.2,1.4c-0.1,1.1-0.2,2.1-0.2,3.2c0,1.1,0.9,1.9,1.9,2c0.3,0,0.6,0.1,0.9,0.1c0.4,0,0.8,0.1,1.2,0.1
			c1,0.1,1.9,0.2,2.6,0.3c0.2,0,0.3,0,0.5,0.1c0.1,0,0.1,0,0.2,0.1c0.1,0,0.1,0,0.2,0.1l0,0c0.3,0.1,0.5,0.2,0.7,0.4
			c0.2,0,0.4,0,0.6,0.1c0.5,0.1,0.9,0.4,1.1,0.8c0.3,0.4,0.5,0.9,0.5,1.4V27c0.2,0.2,0.3,0.6,0.3,1c0,0.6-0.6,1.2-0.6,1.2
			s-0.6-0.5-0.6-1.2c0-0.5,0.1-0.9,0.3-1v-2.5c0,0,0-0.1,0-0.1c0-0.5-0.2-0.9-0.6-1.2c-0.2-0.2-0.4-0.3-0.6-0.4
			c0.2,0.3,0.3,0.5,0.4,0.9c0,0,0,0,0,0c0,0,0,0,0,0.1c0.1,0.2,0.1,0.4,0.1,0.7l0,0.7l0,4.2c0,0,0,0.1,0,0.1l0,4.7
			c0,0.4-0.3,0.7-0.7,0.7h-1.3c0.1-0.3,0.3-0.6,0.6-0.8V27c0,0-0.3,0-0.8-0.1v7c0,0.4-0.3,0.7-0.7,0.7h0H107
			c0.1-0.3,0.3-0.6,0.6-0.8v-7.1c-1-0.1-2.1-0.2-3.2-0.3v7.5c0,0.4-0.3,0.7-0.7,0.7v0h-1.3c0.1-0.3,0.3-0.6,0.6-0.8v-7.6
			c-0.2,0-0.4,0-0.6-0.1c-0.1,0-0.2,0-0.3,0v7.7c0,0.4-0.3,0.7-0.7,0.7v0h-1.3c0.1-0.3,0.3-0.6,0.6-0.8v-8.4
			c-0.3-0.3-0.6-0.6-0.8-1.1c-1.4-3.3-0.9-6.3-0.2-9.1c0,0,0,0,0,0c0.1-0.2,0.1-0.4,0.2-0.6l0,0c0.6-2.3,1.4-4.3,1.2-6
			c-0.1,0.1-0.2,0.2-0.3,0.2c-0.2,0.1-0.4,0.1-0.5,0.1c-0.2,0-0.3,0-0.5-0.1l-0.7,0.4c-0.1,0-0.2,0.1-0.2,0.1c-0.1,0-0.2,0-0.3-0.1
			c-0.1,0-0.1,0-0.2,0c0,0-0.1,0-0.1,0c-0.2-0.1-0.3-0.3-0.3-0.5l0,0c0,0,0,0,0,0c0-0.1,0-0.2,0-0.3C97.8,8.2,98,8.1,98.2,8
			C98.4,7.7,98.7,7.3,99,7c0,0,0,0-0.1,0c-0.6-0.2-1-1-1-1s0.4-0.1,0.8-0.1c0.2,0,0.4,0,0.6,0.1c0.2,0.1,0.3,0.2,0.4,0.3
			c0.1-0.1,0.2-0.1,0.2-0.2l-0.2-0.8c-0.2,0-0.3-0.2-0.3-0.3c-0.1-0.3,0.1-0.5,0.3-0.6c0,0,0.1,0,0.1,0c0.2,0,0.4,0.1,0.5,0.4
			c0,0.2,0,0.3-0.1,0.4l0.2,0.7c0.1,0,0.1,0,0.2,0c0,0,0.1,0,0.1,0c0,0,0,0,0,0l0.1-0.7c-0.1-0.1-0.2-0.3-0.2-0.4
			C100.7,4.5,100.9,4.3,101.2,4.3 M101.2,2.3C101.2,2.3,101.2,2.3,101.2,2.3C101.2,2.3,101.2,2.3,101.2,2.3c-0.2,0-0.4,0-0.6,0.1
			c-0.2,0-0.4-0.1-0.6-0.1c-0.2,0-0.4,0-0.6,0.1c-0.6,0.2-1.2,0.6-1.5,1.1c-0.1,0.1-0.1,0.3-0.2,0.4C97.5,4,97.4,4,97.4,4
			c-0.6,0.2-1.1,0.6-1.3,1.2c-0.2,0.6-0.2,1.2,0.1,1.7c0,0,0,0.1,0.1,0.1c-0.2,0.2-0.3,0.4-0.4,0.7c-0.1,0.3-0.2,0.7-0.2,1.1
			c0,0.1,0,0.2,0,0.3c0.1,0.9,0.7,1.7,1.5,2c0.3,0.1,0.5,0.2,0.8,0.2c0.2,0,0.3,0.1,0.5,0.1c-0.1,0.5-0.3,1.1-0.5,1.7
			c-0.1,0.4-0.2,0.7-0.3,1.1c0,0,0,0,0,0.1c-0.1,0.2-0.1,0.4-0.2,0.7c0,0,0,0.1,0,0.1c-0.7,2.9-1.3,6.4,0.4,10.2
			c0.2,0.4,0.4,0.8,0.6,1.1V33c-0.3,0.4-0.5,0.8-0.5,1.2c-0.1,0.6,0,1.2,0.4,1.7c0.4,0.5,0.9,0.7,1.5,0.7h1.3c0.2,0,0.4,0,0.6-0.1
			c0.2,0,0.3,0.1,0.5,0.1h1.3c0.7,0,1.3-0.3,1.8-0.7c0.4,0.4,0.9,0.7,1.5,0.7h1.3c0.2,0,0.4,0,0.5-0.1c0.1,0,0.3,0.1,0.4,0.1h1.3
			c1.5,0,2.7-1.2,2.7-2.7l0-3.1c0.1-0.1,0.2-0.1,0.2-0.2c0.2-0.2,1.2-1.2,1.2-2.6c0-0.6-0.1-1.1-0.3-1.6v-2c0-0.9-0.3-1.8-0.9-2.6
			c-0.5-0.7-1.3-1.2-2.1-1.5c-0.2-0.1-0.4-0.1-0.6-0.1c-0.1-0.1-0.3-0.2-0.5-0.2c-0.1,0-0.1-0.1-0.2-0.1c-0.1,0-0.2-0.1-0.3-0.1l0,0
			c-0.1,0-0.2-0.1-0.3-0.1c-0.3-0.1-0.5-0.1-0.8-0.1l-2.6-0.3l-1.2-0.1l-0.4,0l-0.5,0c-0.1,0-0.1-0.1-0.1-0.1c0-0.8,0-1.7,0.2-2.8
			c0.1-0.5,0.1-0.9,0.2-1.4l0.1-0.5c0.1-0.4,0.1-0.8,0.2-1.2c0,0,0,0,0-0.1c0.1-0.6,0.2-1.1,0.2-1.6c0,0,0-0.1,0-0.1
			c0,0,0-0.1,0-0.1c0.1-0.6,0.1-1.2,0.1-1.8c0,0,0-0.1,0-0.1c0,0,0-0.1,0-0.1c0-0.2,0-0.4-0.1-0.6c0-0.1,0-0.2,0-0.2
			c0-0.2-0.1-0.4-0.1-0.7c0-0.1,0-0.1,0-0.2c0,0,0-0.1,0-0.1c0,0,0,0,0,0c0.2-0.2,0.3-0.4,0.4-0.6c0.3-0.5,0.3-1.2,0.1-1.7
			c-0.2-0.6-0.7-1-1.3-1.2c0,0-0.2,0-0.4-0.1c-0.1-0.2-0.2-0.4-0.3-0.6c-0.4-0.5-1-0.9-1.6-1C101.4,2.4,101.3,2.3,101.2,2.3
			L101.2,2.3L101.2,2.3z"/>
	</g>
	<g>
		<g>
			<path class="st13" d="M112.4,24.4v3.3H112v-3.3c0,0,0-0.1,0-0.1c0-0.5-0.2-0.9-0.6-1.2c-0.3-0.3-0.8-0.5-1.3-0.5h-0.9v-0.5h0.9
				c0.2,0,0.5,0,0.7,0.1c0.5,0.1,0.9,0.4,1.1,0.8C112.3,23.4,112.4,23.9,112.4,24.4z"/>
		</g>
		<path class="st5" d="M112.8,28c0,0.6-0.6,1.2-0.6,1.2s-0.6-0.5-0.6-1.2c0-0.6,0.2-1.2,0.6-1.2C112.5,26.9,112.8,27.4,112.8,28z"/>
		<path class="st14" d="M111.4,23.1c-0.3-0.3-0.8-0.5-1.3-0.5h-0.9v-0.5h0.9c0.2,0,0.5,0,0.7,0.1C111.1,22.5,111.3,22.8,111.4,23.1z
			"/>
		<g>
			<path class="st14" d="M97.9,5.9c0,0,0.4,0.8,1,1s0.9,0.1,1-0.2c0.1-0.3-0.1-0.6-0.6-0.9C98.8,5.7,97.9,5.9,97.9,5.9z"/>
		</g>
		<g>
			<path class="st15" d="M99.5,6.8c0.1,0,0.2,0,0.3-0.1c0,0,0-0.1,0-0.2c-0.1-0.1-0.2-0.2-0.4-0.3c-0.1-0.1-0.3-0.1-0.5-0.1
				c-0.1,0-0.3,0-0.4,0c0.2,0.2,0.4,0.5,0.7,0.6C99.2,6.8,99.3,6.8,99.5,6.8z"/>
		</g>
		<g>
			<path class="st14" d="M100.4,6.5c-0.1,0-0.3,0-0.3-0.2l-0.3-1.2c0-0.1,0-0.3,0.2-0.3c0.1,0,0.3,0,0.3,0.2l0.3,1.2
				C100.6,6.4,100.5,6.5,100.4,6.5z"/>
			<path class="st5" d="M100.4,4.7c0.1,0.3-0.1,0.5-0.3,0.6c-0.3,0.1-0.5-0.1-0.6-0.3c-0.1-0.3,0.1-0.5,0.3-0.6
				C100.1,4.3,100.4,4.5,100.4,4.7z"/>
		</g>
		<path class="st5" d="M101.2,34.7h-1.3c0.1-0.5,0.5-0.9,1.2-1.1L101.2,34.7z"/>
		<path class="st5" d="M103.6,34.7h-1.3c0.1-0.5,0.5-0.9,1.2-1.1L103.6,34.7z"/>
		<path class="st5" d="M108.3,34.7H107c0.1-0.5,0.5-0.9,1.2-1.1L108.3,34.7z"/>
		<path class="st5" d="M110.6,34.7h-1.3c0.1-0.5,0.5-0.9,1.2-1.1L110.6,34.7z"/>
		<g>
			<path class="st14" d="M108.3,34.7c0.4,0,0.7-0.3,0.7-0.7v-7.2c0-0.2-0.1-0.8-0.2-1c-0.2-0.2-0.4-0.3-0.7-0.2
				c-0.4,0.1-0.6,0.4-0.6,0.8v7.6C107.6,34.3,107.9,34.7,108.3,34.7z"/>
		</g>
		<g>
			<path class="st13" d="M110.6,34.7c0.4,0,0.7-0.3,0.7-0.7l0-4.7c0-0.2-0.1-3.4-0.2-3.5c-0.2-0.2-0.4-0.3-0.7-0.2
				c-0.4,0.1-0.6,0.4-0.6,0.8v7.6C109.9,34.3,110.2,34.7,110.6,34.7z"/>
		</g>
		<g>
			<path class="st14" d="M102,33.9v-8.4c0-0.4-0.3-0.7-0.7-0.8c-0.4,0-0.8,0.3-0.8,0.7v8.4c0,0.4,0.3,0.7,0.7,0.7
				C101.7,34.7,102,34.3,102,33.9z"/>
		</g>
		<g>
			<path class="st13" d="M104.4,33.9v-8.4c0-0.4-0.3-0.7-0.7-0.8c-0.4,0-0.8,0.3-0.8,0.7v8.4c0,0.4,0.3,0.7,0.7,0.7
				C104,34.7,104.4,34.3,104.4,33.9z"/>
		</g>
		<path class="st13" d="M111.3,24.3c0-1.5-1.2-2.6-2.7-2.7c-1.2-0.1-3.1-0.3-4.7-0.5c-1.1-0.1-1.9-1-1.9-2
			c-0.2-4.1,1.8-8.5,0.5-11.6h-2c1.9,3.8-3.8,9.8-0.8,17c0.4,1,1.4,1.7,2.5,1.8c2.2,0.2,7.6,0.8,7.6,0.8c0,0.5,0,1.6,0,2.1
			c0,1.5,0,2.2,1.5,2.2L111.3,24.3z"/>
		<g>
			<g>
				<path class="st5" d="M104.5,21.6c-0.1,0.1-0.1,0.2,0,0.3l0.3,0.5c0.1,0.1,0.2,0.2,0.3,0.2h0.6c0.1,0,0.2-0.1,0.3-0.2l0.3-0.5
					c0.1-0.1,0.1-0.2,0-0.3l-0.2-0.3c-0.4,0-0.8-0.1-1.2-0.1L104.5,21.6z"/>
			</g>
			<g>
				<path class="st5" d="M103.4,23l-0.2,0.3c0,0.1,0,0.1,0,0.2l0.2,0.3c0,0.1,0.1,0.1,0.2,0.1h0.3c0.1,0,0.1,0,0.2-0.1l0.2-0.3
					c0-0.1,0-0.1,0-0.2l-0.2-0.3c0-0.1-0.1-0.1-0.2-0.1h-0.3C103.5,22.9,103.4,22.9,103.4,23z"/>
			</g>
			<g>
				<path class="st5" d="M103.4,25.1l-0.2,0.4c0,0.1,0,0.2,0,0.2l0.2,0.4c0,0.1,0.1,0.1,0.2,0.1h0.4c0.1,0,0.2,0,0.2-0.1l0.2-0.4
					c0-0.1,0-0.2,0-0.2l-0.2-0.4c0-0.1-0.1-0.1-0.2-0.1h-0.4C103.5,25,103.4,25,103.4,25.1z"/>
			</g>
			<g>
				<path class="st5" d="M107.6,23.1l-0.2-0.4c0-0.1-0.1-0.1-0.2-0.1h-0.4c-0.1,0-0.2,0-0.2,0.1l-0.2,0.4c0,0.1,0,0.2,0,0.2l0.2,0.4
					c0,0.1,0.1,0.1,0.2,0.1h0.4c0.1,0,0.2,0,0.2-0.1l0.2-0.4C107.7,23.2,107.7,23.1,107.6,23.1z"/>
			</g>
			<g>
				<path class="st5" d="M105.7,23.6h-0.5c-0.1,0-0.2,0.1-0.3,0.2l-0.3,0.5c-0.1,0.1-0.1,0.2,0,0.3l0.3,0.5c0.1,0.1,0.2,0.2,0.3,0.2
					h0.5c0.1,0,0.2-0.1,0.3-0.2l0.3-0.5c0.1-0.1,0.1-0.2,0-0.3l-0.3-0.5C105.9,23.6,105.8,23.6,105.7,23.6z"/>
			</g>
			<g>
				<path class="st5" d="M102.3,11.2c-0.1,0-0.2,0.1-0.3,0.2l-0.3,0.5c-0.1,0.1-0.1,0.2,0,0.3l0.3,0.5c0.1,0.1,0.2,0.2,0.3,0.2h0.4
					c0.1-0.5,0.2-1.1,0.2-1.6c0,0,0,0-0.1,0H102.3z"/>
			</g>
			<g>
				<path class="st5" d="M101.3,17.7h-0.4c-0.1,0-0.2,0-0.2,0.1l-0.2,0.3c0,0.1,0,0.2,0,0.2l0.2,0.3c0,0.1,0.1,0.1,0.2,0.1h0.4
					c0.1,0,0.2,0,0.2-0.1l0.2-0.3c0-0.1,0-0.2,0-0.2l-0.2-0.3C101.5,17.7,101.4,17.7,101.3,17.7z"/>
			</g>
			<g>
				<path class="st5" d="M101.3,14.5l-0.3,0.5c-0.1,0.1-0.1,0.2,0,0.3l0.3,0.5c0.1,0.1,0.2,0.2,0.3,0.2h0.6c0,0,0,0,0,0
					c0.1-0.5,0.1-1,0.2-1.5c-0.1-0.1-0.2-0.1-0.3-0.1h-0.6C101.5,14.3,101.4,14.4,101.3,14.5z"/>
			</g>
			<g>
				<path class="st5" d="M110.4,23.7l-0.3,0.4c-0.1,0.1-0.1,0.2,0,0.3l0.3,0.4c0.1,0.1,0.1,0.1,0.2,0.1h0.5c0.1,0,0.1,0,0.2-0.1
					l0-0.7c0-0.2,0-0.5-0.1-0.7c0,0,0,0-0.1,0h-0.5C110.6,23.6,110.5,23.6,110.4,23.7z"/>
			</g>
			<g>
				<path class="st5" d="M107.8,25.3c0.1,0.1,0.2,0.2,0.3,0.2h0.5c0.1,0,0.2-0.1,0.3-0.2l0.3-0.5c0.1-0.1,0.1-0.2,0-0.3l-0.3-0.5
					c-0.1-0.1-0.2-0.2-0.3-0.2h-0.5c-0.1,0-0.2,0.1-0.3,0.2l-0.3,0.5c-0.1,0.1-0.1,0.2,0,0.3L107.8,25.3z"/>
			</g>
			<g>
				<path class="st5" d="M102.3,8.2l-0.2,0.4c0,0.1,0,0.2,0,0.3l0.2,0.4c0,0.1,0.1,0.1,0.2,0.1h0.4c0-0.5-0.1-1-0.2-1.4h-0.2
					C102.4,8.1,102.3,8.1,102.3,8.2z"/>
			</g>
			<g>
				<path class="st5" d="M110.5,29.9l0.2-0.3c0-0.1,0-0.1,0-0.2l-0.2-0.3c0-0.1-0.1-0.1-0.2-0.1H110c0,0-0.1,0-0.1,0.1
					c0,0.3,0,0.6,0,0.8c0,0,0.1,0,0.1,0h0.3C110.4,30,110.4,29.9,110.5,29.9z"/>
			</g>
			<g>
				<path class="st5" d="M101.4,13.1c0-0.1-0.1-0.1-0.2-0.1h-0.4c-0.1,0-0.2,0-0.2,0.1l-0.2,0.4c0,0.1,0,0.2,0,0.3l0.2,0.4
					c0,0.1,0.1,0.1,0.2,0.1h0.4c0.1,0,0.2,0,0.2-0.1l0.2-0.4c0-0.1,0-0.2,0-0.3L101.4,13.1z"/>
			</g>
			<g>
				<path class="st5" d="M110.1,27.8c0,0,0.1,0.1,0.1,0.1h0.2c0,0,0.1,0,0.1-0.1l0.1-0.2c0,0,0-0.1,0-0.1l-0.1-0.2
					c0,0-0.1-0.1-0.1-0.1h-0.2c0,0-0.1,0-0.1,0.1l-0.1,0.2c0,0,0,0.1,0,0.1L110.1,27.8z"/>
			</g>
			<g>
				<path class="st5" d="M108.3,21.5C108.3,21.5,108.3,21.5,108.3,21.5L108,22c-0.1,0.1-0.1,0.2,0,0.3l0.3,0.5
					c0.1,0.1,0.2,0.2,0.3,0.2h0.5c0.1,0,0.2-0.1,0.3-0.2l0.3-0.5c0.1-0.1,0.1-0.2,0-0.3l-0.1-0.3c-0.3-0.1-0.6-0.2-0.9-0.2
					C108.5,21.5,108.4,21.5,108.3,21.5z"/>
			</g>
			<g>
				<path class="st5" d="M110.3,26.5l0.2-0.3c0-0.1,0-0.2,0-0.2l-0.2-0.3c0-0.1-0.1-0.1-0.2-0.1h-0.4c-0.1,0-0.2,0-0.2,0.1l-0.2,0.3
					c0,0.1,0,0.2,0,0.2l0.2,0.3c0,0.1,0.1,0.1,0.2,0.1h0.4C110.2,26.6,110.2,26.6,110.3,26.5z"/>
			</g>
			<g>
				<path class="st5" d="M102.1,21.4l0.2-0.4c0-0.1,0-0.2,0-0.2l-0.2-0.4c0-0.1-0.1-0.1-0.2-0.1h-0.4c-0.1,0-0.2,0-0.2,0.1l-0.2,0.4
					c0,0.1,0,0.2,0,0.2l0.2,0.4c0,0.1,0.1,0.1,0.2,0.1h0.4C102,21.6,102,21.5,102.1,21.4z"/>
			</g>
			<g>
				<path class="st5" d="M100.5,23.9c0,0,0.1,0,0.1-0.1l0.1-0.2c0,0,0-0.1,0-0.1l-0.1-0.2c0,0-0.1-0.1-0.1-0.1h-0.2
					c0,0-0.1,0-0.1,0.1l-0.1,0.2c0,0,0,0.1,0,0.1l0.1,0.2c0,0,0.1,0.1,0.1,0.1H100.5z"/>
			</g>
			<g>
				<path class="st5" d="M102.8,24.2l0.2-0.4c0-0.1,0-0.2,0-0.2l-0.2-0.4c0-0.1-0.1-0.1-0.2-0.1h-0.4c-0.1,0-0.2,0-0.2,0.1l-0.2,0.4
					c0,0.1,0,0.2,0,0.2l0.2,0.4c0,0.1,0.1,0.1,0.2,0.1h0.4C102.6,24.3,102.7,24.2,102.8,24.2z"/>
			</g>
			<g>
				<path class="st5" d="M99.9,21.1l0.1-0.2c0,0,0-0.1,0-0.1l-0.1-0.2c0,0-0.1-0.1-0.1-0.1h-0.2c0,0-0.1,0-0.1,0.1l-0.1,0.2
					c0,0,0,0.1,0,0.1l0.1,0.2c0,0,0.1,0.1,0.1,0.1h0.2C99.8,21.2,99.9,21.1,99.9,21.1z"/>
			</g>
			<g>
				<path class="st5" d="M111.3,27.7h-0.2c-0.1,0-0.2,0-0.2,0.1l-0.2,0.4c0,0.1,0,0.2,0,0.2l0.2,0.4c0,0.1,0.1,0.1,0.2,0.1h0.2
					L111.3,27.7z"/>
			</g>
			<g>
				<path class="st5" d="M99.1,18.4C99.1,18.4,99.2,18.4,99.1,18.4l0.3,0.1c0,0,0.1,0,0.1-0.1l0.1-0.2c0,0,0-0.1,0-0.1l-0.1-0.2
					c0,0-0.1-0.1-0.1-0.1h-0.2c0,0-0.1,0-0.1,0.1L99,18.1c0,0,0,0.1,0,0.1L99.1,18.4z"/>
			</g>
			<g>
				<path class="st5" d="M107.4,26.3c0-0.1,0-0.2,0-0.2l-0.2-0.4c0-0.1-0.1-0.1-0.2-0.1h-0.4c-0.1,0-0.2,0-0.2,0.1l-0.2,0.4
					c0,0.1,0,0.2,0,0.2l0.2,0.3c0.3,0,0.6,0.1,0.9,0.1L107.4,26.3z"/>
			</g>
			<g>
				<path class="st5" d="M99.6,15.3l0.1-0.2c0-0.1,0-0.1,0-0.2l-0.1-0.2c-0.1,0.2-0.1,0.4-0.2,0.6C99.5,15.4,99.6,15.3,99.6,15.3z"
					/>
			</g>
			<g>
				<path class="st5" d="M99.9,22.3l0.2,0.3c0,0.1,0.1,0.1,0.2,0.1h0.3c0.1,0,0.1,0,0.2-0.1l0.2-0.3c0-0.1,0-0.1,0-0.2l-0.2-0.3
					c0-0.1-0.1-0.1-0.2-0.1h-0.3c-0.1,0-0.1,0-0.2,0.1l-0.2,0.3C99.9,22.1,99.9,22.2,99.9,22.3z"/>
			</g>
			<g>
				<path class="st5" d="M100.6,25l0.2,0.3c0,0.1,0.1,0.1,0.2,0.1h0.3c0.1,0,0.1,0,0.2-0.1l0.2-0.3c0-0.1,0-0.1,0-0.2l-0.2-0.3
					c0-0.1-0.1-0.1-0.2-0.1H101c-0.1,0-0.1,0-0.2,0.1l-0.2,0.3C100.6,24.8,100.6,24.9,100.6,25z"/>
			</g>
			<g>
				<path class="st5" d="M99.5,19.5l0.2,0.3c0,0.1,0.1,0.1,0.2,0.1h0.3c0.1,0,0.1,0,0.2-0.1l0.2-0.3c0-0.1,0-0.1,0-0.2l-0.2-0.3
					c0-0.1-0.1-0.1-0.2-0.1h-0.3c-0.1,0-0.1,0-0.2,0.1l-0.2,0.3C99.5,19.3,99.5,19.4,99.5,19.5z"/>
			</g>
			<g>
				<path class="st5" d="M101.2,10.7h0.4c0.1,0,0.1,0,0.2-0.1l0.2-0.3c0-0.1,0-0.1,0-0.2l-0.2-0.3c0-0.1-0.1-0.1-0.2-0.1h-0.4
					c-0.1,0-0.1,0-0.2,0.1l-0.1,0.2c0,0.1,0,0.2,0,0.3l0.2,0.3C101,10.7,101.1,10.7,101.2,10.7z"/>
			</g>
			<g>
				<path class="st5" d="M102.5,22c0,0.1,0.1,0.1,0.1,0.1h0.3c0.1,0,0.1,0,0.1-0.1l0.1-0.2c0-0.1,0-0.1,0-0.2l-0.1-0.2
					c0-0.1-0.1-0.1-0.1-0.1h-0.3c-0.1,0-0.1,0-0.1,0.1l-0.1,0.2c0,0.1,0,0.1,0,0.2L102.5,22z"/>
			</g>
			<g>
				<path class="st5" d="M99.8,16.2l-0.2,0.4c0,0.1,0,0.2,0,0.2l0.2,0.4c0,0.1,0.1,0.1,0.2,0.1h0.4c0.1,0,0.2,0,0.2-0.1l0.2-0.4
					c0-0.1,0-0.2,0-0.2l-0.2-0.4c0-0.1-0.1-0.1-0.2-0.1H100C99.9,16.1,99.9,16.1,99.8,16.2z"/>
			</g>
		</g>
		<path class="st13" d="M100.6,5.8c-1.2,0-3,3-3,3l0.6,0.4c0.2,0.1,0.4,0.2,0.6,0.1l3.7-1.9C102.5,7.4,101.9,5.8,100.6,5.8z"/>
		<path class="st13" d="M101.2,7.7c0.2,0.4-0.1,1-0.6,1.2c-0.5,0.3-1.2,0.1-1.3-0.3c-0.2-0.4,0.1-1,0.6-1.2
			C100.4,7.1,101,7.3,101.2,7.7z"/>
		<g>
			<path class="st13" d="M101,6.1c-0.1,0-0.2-0.1-0.2-0.3l0.1-0.8c0-0.1,0.1-0.2,0.3-0.2c0.1,0,0.2,0.1,0.2,0.3l-0.1,0.8
				C101.2,6,101.1,6.1,101,6.1z"/>
			<path class="st5" d="M101.6,4.9c0,0.3-0.3,0.4-0.5,0.4c-0.3,0-0.4-0.3-0.4-0.5c0-0.3,0.3-0.4,0.5-0.4
				C101.5,4.4,101.7,4.6,101.6,4.9z"/>
		</g>
		<g>
			<path class="st16" d="M100.3,7.3c0,0-0.2,0.2-0.3,0.2c-0.1,0-0.2-0.1-0.2-0.2c0-0.1,0.1-0.2,0.2-0.2
				C100.1,7.1,100.3,7.3,100.3,7.3z"/>
		</g>
		<g>
			<path class="st13" d="M103.3,5.9c0,0-0.4,0.8-1,1c-0.6,0.2-0.9,0.1-1-0.2c-0.1-0.3,0.1-0.6,0.6-0.9
				C102.4,5.7,103.3,5.9,103.3,5.9z"/>
		</g>
		<g>
			<path class="st15" d="M101.7,6.8c-0.1,0-0.2,0-0.3-0.1c0,0,0-0.1,0-0.2c0.1-0.1,0.2-0.2,0.4-0.3c0.1-0.1,0.3-0.1,0.5-0.1
				c0.1,0,0.3,0,0.4,0c-0.2,0.2-0.4,0.5-0.7,0.6C102,6.8,101.9,6.8,101.7,6.8z"/>
		</g>
		<path class="st13" d="M98.7,8.9c0.1-0.4,0-0.7-0.2-0.8c-0.3-0.1-0.6,0.1-0.7,0.4c-0.1,0.4,0,0.7,0.2,0.8
			C98.2,9.4,98.6,9.2,98.7,8.9z"/>
	</g>
</g>
</svg>
