<?xml version="1.0" encoding="utf-8"?>
<!-- Generator: Adobe Illustrator 22.1.0, SVG Export Plug-In . SVG Version: 6.00 Build 0)  -->
<svg version="1.1" id="Layer_1" xmlns="http://www.w3.org/2000/svg" xmlns:xlink="http://www.w3.org/1999/xlink" x="0px" y="0px"
	 viewBox="0 0 140 40" style="enable-background:new 0 0 140 40;" xml:space="preserve">
<style type="text/css">
	.st0{fill:#637BA1;}
	.st1{fill:#FFFFFF;}
	.st2{fill:#4F2E1D;}
	.st3{fill:#704835;}
	.st4{fill:#A77251;}
	.st5{fill:#7F553D;}
	.st6{fill:#5F3924;}
	.st7{fill:#9E6B51;}
	.st8{fill:#212121;}
	.st9{fill:#402318;}
	.st10{fill:#3D2315;}
	.st11{fill:#875133;}
	.st12{fill:#77472C;}
	.st13{fill:#757575;}
	.st14{fill:#616161;}
	.st15{fill:#4F4F4F;}
	.st16{fill:#D1C5A5;}
	.st17{fill:#4C4C4C;}
	.st18{fill:#424242;}
	.st19{fill:#ECE2C8;}
</style>
<g>
	<path class="st0" d="M140,0H-0.3v40H140V0L140,0z"/>
</g>
<g>
	<g>
		<path class="st1" d="M24.5,30.8c-0.2,0-0.4,0-0.5-0.1c0,0-0.1,0-0.1,0c-0.2,0.1-0.3,0.1-0.5,0.1h-1.3c-0.3,0-0.6-0.1-0.8-0.4
			c-0.2-0.2-0.3-0.5-0.2-0.8c0.1-0.5,0.3-0.9,0.7-1.2v-2.1c-0.4-0.4-0.7-0.9-0.7-1.5c-0.7,0.2-1.7,0.3-2.7,0.3c-0.2,0-0.3,0-0.5,0
			l0,4.2c0,0.3-0.1,0.6-0.3,0.9c-0.2,0.3-0.4,0.5-0.8,0.6c-0.2,0.1-0.3,0.1-0.5,0.1h-1.3c-0.2,0-0.4,0-0.5-0.1c0,0,0,0,0,0
			c-0.2,0.1-0.4,0.1-0.6,0.1h-1.3c-0.3,0-0.6-0.1-0.8-0.4c-0.2-0.2-0.3-0.5-0.2-0.8c0.1-0.5,0.3-0.9,0.7-1.2v-4.9
			c-0.7-0.5-1.2-1.2-1.6-1.9c-0.1-0.3-0.3-0.5-0.4-0.8c-0.1,0-0.1,0.1-0.2,0.1C10.1,20.9,10.1,21,10,21c-0.2,0.1-0.4,0.2-0.6,0.2
			c-0.2,0-0.4-0.1-0.6-0.2c0,0-0.1-0.1-0.2-0.1c-0.1,0-0.3-0.1-0.4-0.2c-0.1-0.1-0.4-0.4-0.6-0.8C7.5,19.9,7.2,20,6.9,20
			c-0.7,0-1.3-0.3-1.7-0.9l-0.3-0.4c-0.3-0.5-0.4-1-0.3-1.5c0.1-0.5,0.4-1,0.9-1.3l1.4-1c-0.7-0.5-1.1-1.3-1.1-2.2v-1.9
			c0-0.8,0.7-1.5,1.5-1.5c0.5,0,0.9,0.2,1.2,0.6c0.3-0.4,0.7-0.6,1.2-0.6h0.3c0.5,0,0.9,0.2,1.2,0.6c0.3-0.4,0.7-0.6,1.2-0.6h0.3
			c0.5,0,0.9,0.2,1.2,0.6c0.3-0.4,0.7-0.6,1.2-0.6h1.3c0.8,0,1.5,0.7,1.5,1.5v0.8c0,1.1-0.5,2.1-1.2,2.8c0,0,0,0,0.1,0
			c0.9,0,1.8,0.3,2.6,0.8l0.3,0.2c0.4,0.3,1,0.4,1.5,0.4c0.1,0,0.3,0,0.4,0c0.4-0.1,0.7-0.1,1.1-0.1c1.6,0,2.9,0.6,3.7,1.8
			c0.8,0.3,1.4,1,1.5,1.9c0.1,0.6-0.1,1.2-0.4,1.7c0,0-0.1,0.1-0.1,0.1c0,0.1,0,0.1,0,0.2v7.8c0,0.4-0.2,0.8-0.5,1.1
			c-0.2,0.2-0.4,0.3-0.6,0.4c-0.2,0.1-0.3,0.1-0.5,0.1H24.5z"/>
		<path class="st1" d="M16.3,10.2c0.3,0,0.5,0.2,0.5,0.5v0.8c0,1.5-1.3,2.8-2.8,2.8h-2.5l-0.2,0.2c0.1,0.1,0.2,0.2,0.3,0.3
			c0.2,0,0.3-0.1,0.5-0.1c0.3,0,0.5,0,0.8,0.1c0.4,0.1,0.7,0.4,0.9,0.6c0.2,0,0.5,0,0.7,0c0.4,0,0.9,0,1.4-0.1
			c0.2,0,0.5-0.1,0.7-0.1c0.7,0,1.4,0.2,2,0.6l0.3,0.2c0.6,0.4,1.3,0.6,2,0.6c0.2,0,0.4,0,0.6,0c0.3,0,0.6-0.1,0.9-0.1
			c1.5,0,2.5,0.6,3,1.6c0,0,0,0,0,0c0,0,0,0,0.1,0c0,0,0,0,0,0c0.5,0.1,1,0.5,1,1.2c0,0.4,0,0.7-0.2,1c-0.1,0.1-0.2,0.2-0.3,0.3
			c0,0.2,0,0.4,0,0.6v5c0,0,0,0,0,0v2.8c0,0.1-0.1,0.3-0.2,0.4c-0.1,0.1-0.1,0.1-0.2,0.1c-0.1,0-0.1,0-0.2,0c0,0,0,0,0,0h-1.3
			c0.1-0.3,0.3-0.7,0.7-0.9v-2.3c0,0,0,0,0,0v-0.8c-0.4-0.2-0.7-0.6-0.7-1.1v-1.6l-0.6,0.1v3.5c0,0,0,0,0,0v2.6c0,0.1,0,0.2-0.1,0.3
			c-0.1,0.1-0.2,0.2-0.3,0.2c-0.1,0-0.1,0-0.2,0c0,0,0,0,0,0h-1.3c0.1-0.3,0.3-0.7,0.7-0.9v-2.1c0,0,0,0,0,0v-1
			c-0.4-0.2-0.7-0.6-0.7-1.1v-1.3l0,0c0,0-1.8,0.6-3.7,0.6c-0.5,0-1,0-1.5-0.2v2.8c0,0,0,0,0,0v2.6c0,0.1,0,0.2-0.1,0.3
			c-0.1,0.1-0.2,0.2-0.3,0.2c-0.1,0-0.1,0-0.2,0c0,0,0,0,0,0h-1.3c0.1-0.3,0.3-0.7,0.7-0.9v-2.3c0,0,0,0,0,0v-2.8
			c-0.5,0-0.9-0.1-1.3-0.2v2.9c0,0,0,0,0,0v2.9c0,0.1-0.1,0.3-0.2,0.4c0,0-0.1,0.1-0.2,0.1c-0.1,0-0.1,0-0.2,0c0,0,0,0,0,0h-1.3
			c0.1-0.3,0.3-0.7,0.7-0.9v-2.7c0,0,0,0,0,0V23c-0.7-0.4-1.3-1.1-1.7-1.8c-0.5-0.9-0.8-1.9-0.9-3c-0.1,0.2-0.3,0.3-0.5,0.5
			c0,0.1,0.1,0.3,0.1,0.4c0,0.5-0.4,0.9-0.4,0.9s0,0-0.1-0.1c-0.2,0.2-0.4,0.3-0.4,0.3S9.3,20,9.1,19.8c0,0.1-0.1,0.1-0.1,0.1
			S8.6,19.5,8.6,19c0-0.1,0-0.2,0-0.3c-0.2-0.1-0.4-0.2-0.6-0.3l-0.6,0.4C7.3,18.9,7.1,19,6.9,19c-0.3,0-0.7-0.2-0.9-0.5l-0.3-0.4
			C5.4,17.6,5.5,17,6,16.6L9,14.6c0.1-0.1,0.3-0.2,0.5-0.2c0,0,0,0,0,0H8.5c-1,0-1.7-0.8-1.7-1.7v-1.9c0-0.3,0.2-0.5,0.5-0.5
			c0.3,0,0.5,0.2,0.5,0.5v1.7C7.8,12.7,8,13,8.3,13h0.3c0.3,0,0.5-0.2,0.5-0.5v-1.7c0-0.3,0.2-0.5,0.5-0.5h0.3
			c0.3,0,0.5,0.2,0.5,0.5v1.7c0,0.3,0.2,0.5,0.5,0.5h0.3c0.3,0,0.5-0.2,0.5-0.5v-1.7c0-0.3,0.2-0.5,0.5-0.5h0.3
			c0.3,0,0.5,0.2,0.5,0.5v1.7c0,0.3,0.2,0.5,0.5,0.5H14c0.3,0,0.5-0.2,0.5-0.5v-1.7c0-0.3,0.2-0.5,0.5-0.5H16.3 M16.3,8.2H15
			c-0.4,0-0.8,0.1-1.2,0.3c-0.4-0.2-0.8-0.3-1.2-0.3h-0.3c-0.4,0-0.8,0.1-1.2,0.3c-0.4-0.2-0.8-0.3-1.2-0.3H9.7
			c-0.4,0-0.8,0.1-1.2,0.3C8.1,8.3,7.7,8.2,7.2,8.2c-1.4,0-2.5,1.1-2.5,2.5v1.9c0,0.7,0.2,1.4,0.6,2L4.9,15
			c-1.4,0.9-1.8,2.8-0.8,4.2l0.3,0.4C4.9,20.5,5.9,21,6.9,21c0.1,0,0.3,0,0.4,0c0.1,0.2,0.3,0.3,0.3,0.4c0.2,0.2,0.4,0.3,0.6,0.4
			c0,0,0.1,0.1,0.1,0.1c0.3,0.2,0.7,0.4,1.1,0.4c0.2,0,0.3,0,0.5-0.1c0.4,0.7,0.9,1.3,1.5,1.8v2.2l0,1.8c-0.4,0.4-0.6,0.9-0.7,1.4
			c-0.1,0.6,0,1.2,0.4,1.7c0.4,0.5,0.9,0.7,1.5,0.7H14c0,0,0,0,0,0c0.2,0,0.4,0,0.6-0.1c0.2,0,0.4,0.1,0.5,0.1h1.3c0,0,0,0,0,0
			c0.3,0,0.6-0.1,0.9-0.2c0.5-0.2,0.9-0.5,1.2-1c0.3-0.4,0.4-0.9,0.4-1.4v-2.6l0-0.6c0.5,0,1-0.1,1.4-0.1c0.1,0.3,0.3,0.5,0.4,0.8
			v0.1l0,1.2c-0.4,0.4-0.6,0.9-0.7,1.4c-0.1,0.6,0,1.2,0.4,1.7c0.4,0.5,0.9,0.7,1.5,0.7h1.3c0,0,0,0,0,0c0.2,0,0.4,0,0.6-0.1
			c0.2,0,0.4,0.1,0.5,0.1h1.3c0,0,0,0,0,0c0.3,0,0.5,0,0.8-0.1c0.4-0.1,0.7-0.3,1-0.6c0.5-0.5,0.7-1.1,0.7-1.8v-2.8l0-4.9
			c0.4-0.7,0.6-1.4,0.5-2.2c-0.2-1.2-0.9-2.1-1.9-2.6c-1-1.3-2.5-1.9-4.3-1.9c-0.4,0-0.8,0-1.2,0.1c-0.1,0-0.2,0-0.3,0
			c-0.4,0-0.7-0.1-1-0.3l-0.3-0.2c-0.4-0.3-0.9-0.5-1.4-0.7c0.3-0.6,0.5-1.3,0.5-2.1v-0.8C18.8,9.4,17.7,8.2,16.3,8.2L16.3,8.2z"/>
	</g>
	<g>
		<path class="st2" d="M14,29.8h-1.3c0.1-0.4,0.5-0.9,1.1-1.1L14,29.8z"/>
		<path class="st3" d="M14,29.8c-0.3,0-0.5-0.2-0.5-0.5v-6.5c0-0.3,0.2-0.5,0.5-0.5c0.3,0,0.5,0.2,0.5,0.5v6.5
			C14.5,29.5,14.3,29.8,14,29.8z"/>
		<path class="st2" d="M23.3,29.8h-1.3c0.1-0.4,0.5-0.9,1.1-1.1L23.3,29.8z"/>
		<path class="st3" d="M23.3,29.8c-0.3,0-0.5-0.2-0.5-0.5v-7.8c0-0.3,0.2-0.5,0.5-0.5c0.3,0,0.5,0.2,0.5,0.5v7.8
			C23.9,29.5,23.6,29.8,23.3,29.8z"/>
		<path class="st3" d="M22.5,20.5h0.8c0.2,0,0.4,0.2,0.4,0.4v4.7c0,0.2-0.2,0.4-0.4,0.4c-0.7,0-1.2-0.5-1.2-1.2v-3.8
			C22.1,20.6,22.3,20.5,22.5,20.5z"/>
		<path class="st4" d="M13.4,26.2v3.1c0,0.3,0.2,0.5,0.5,0.5c0.3,0,0.5-0.2,0.5-0.5v-2.9C14.2,26.3,13.8,26.2,13.4,26.2z"/>
		<path class="st4" d="M22.8,26.7v2.5c0,0.3,0.2,0.5,0.5,0.5s0.5-0.2,0.5-0.5v-2.6C23.5,26.7,23.2,26.7,22.8,26.7z"/>
		<path class="st5" d="M26.5,20.5c-0.2,0.3-0.4,0.4-0.8,0.5c-0.6,0.1-1.2-0.4-1.3-1.2c-0.1-0.7,0.3-1.4,1-1.5c0.1,0,0.2,0,0.3,0
			c0.5,0.1,1,0.5,1,1.2C26.8,19.8,26.7,20.2,26.5,20.5z"/>
		<path class="st6" d="M26.5,20.5c-0.2,0.3-0.4,0.4-0.8,0.5c-0.6,0.1-1.2-0.4-1.3-1.2c-0.1-0.7,0.3-1.4,1-1.5c0.1,0,0.2,0,0.3,0
			C26.1,18.9,26.4,19.6,26.5,20.5z"/>
		<path class="st2" d="M16.4,29.8h-1.3c0.1-0.4,0.5-0.9,1.1-1.1L16.4,29.8z"/>
		<path class="st5" d="M16.4,29.8c-0.3,0-0.5-0.2-0.5-0.5v-6.5c0-0.3,0.2-0.5,0.5-0.5c0.3,0,0.5,0.2,0.5,0.5v6.5
			C17,29.5,16.7,29.8,16.4,29.8z"/>
		<path class="st6" d="M11,17.5c0,0.7-0.8,1.3-1.7,1.3s-1.7-0.6-1.7-1.3c0-0.7,0.8-1.3,1.7-1.3S11,16.8,11,17.5z"/>
		<path class="st5" d="M21.6,16.7c-0.9,0.1-1.8,0-2.6-0.5L18.7,16c-0.8-0.5-1.8-0.7-2.7-0.5c-1.5,0.3-3.2,0-4-0.2
			c-0.3-0.6-1-1-1.7-1c-0.3,0-0.5,0.1-0.8,0.2c-0.2,0-0.3,0.1-0.5,0.2L6,16.6c-0.5,0.3-0.6,1-0.3,1.5L6,18.5c0.3,0.5,1,0.6,1.5,0.3
			l1.7-1.1c0.3,0.2,0.7,0.4,1.1,0.4c0.2,0,0.4,0,0.5-0.1c0.1,1.2,0.4,2.2,0.9,3.2c0.9,1.6,2.6,2.6,4.4,2.6h0.4
			c2.3,0.8,5.6-0.4,5.6-0.4l2.9-0.4l1.2-1.6C26.3,18.2,24.9,16.3,21.6,16.7z"/>
		<path class="st4" d="M16.8,10.8v0.8c0,1.5-1.3,2.8-2.8,2.8H8.5c-1,0-1.7-0.8-1.7-1.7v-1.9c0-0.3,0.2-0.5,0.5-0.5s0.5,0.2,0.5,0.5
			v1.7C7.8,12.7,8,13,8.3,13h0.3c0.3,0,0.5-0.2,0.5-0.5v-1.7c0-0.3,0.2-0.5,0.5-0.5h0.3c0.3,0,0.5,0.2,0.5,0.5v1.7
			c0,0.3,0.2,0.5,0.5,0.5h0.3c0.3,0,0.5-0.2,0.5-0.5v-1.7c0-0.3,0.2-0.5,0.5-0.5h0.3c0.3,0,0.5,0.2,0.5,0.5v1.7
			c0,0.3,0.2,0.5,0.5,0.5H14c0.3,0,0.5-0.2,0.5-0.5v-1.7c0-0.3,0.2-0.5,0.5-0.5h1.3C16.6,10.2,16.8,10.5,16.8,10.8z"/>
		<path class="st4" d="M12.3,13.7l-1.8,1.6c-0.2,0.2-0.6,0.2-0.8-0.1c-0.2-0.2-0.2-0.6,0.1-0.8l1.8-1.6c0.2-0.2,0.6-0.2,0.8,0.1
			C12.5,13.2,12.5,13.5,12.3,13.7z"/>
		<path class="st6" d="M11.3,15.7c0.2,0.3,0.6,0.6,1.2,0.8c0.6,0.2,1.1,0,1.5-0.2c0.2-0.1,0.3-0.2,0.3-0.2s-0.4-1-1.3-1.3
			c-0.9-0.3-1.7-0.1-1.8,0.3C11.2,15.4,11.2,15.6,11.3,15.7z"/>
		<path class="st7" d="M11.3,15.7c0.2,0.3,0.6,0.6,1.2,0.8c0.6,0.2,1.1,0,1.5-0.2c-0.2-0.3-0.5-0.6-1-0.8
			C12.3,15.4,11.6,15.4,11.3,15.7z"/>
		<path class="st8" d="M9.1,15.8c0,0,0,0.3-0.1,0.3c-0.1,0.1-0.4-0.1-0.4-0.1s0-0.3,0.1-0.3C8.9,15.7,9.1,15.8,9.1,15.8z"/>
		<g>
			<path class="st6" d="M10.1,19.2c0,0.5-0.6,0.9-0.6,0.9s-0.6-0.4-0.6-0.9c0-0.5,0.3-0.9,0.6-0.9C9.8,18.3,10.1,18.7,10.1,19.2z"/>
			<g>
				<path class="st6" d="M9.5,19c0,0.5-0.4,0.9-0.4,0.9S8.6,19.5,8.6,19C8.6,18.5,8.8,18,9,18C9.3,18,9.5,18.5,9.5,19z"/>
				<path class="st6" d="M10.3,19c0,0.5-0.4,0.9-0.4,0.9S9.5,19.5,9.5,19c0-0.5,0.2-0.9,0.4-0.9C10.1,18,10.3,18.5,10.3,19z"/>
			</g>
		</g>
		<path class="st9" d="M6.8,18c-0.1,0.1-0.3,0.1-0.4,0.1c-0.1,0-0.1-0.1,0-0.2l0.4-0.4c0.1-0.1,0.2,0,0.2,0
			C6.9,17.7,6.9,17.9,6.8,18z"/>
		<path class="st2" d="M25.7,29.8h-1.3c0.1-0.4,0.5-0.9,1.1-1.1L25.7,29.8z"/>
		<path class="st5" d="M25.7,29.8c-0.3,0-0.5-0.2-0.5-0.5v-7.8c0-0.3,0.2-0.5,0.5-0.5s0.5,0.2,0.5,0.5v7.8
			C26.3,29.5,26,29.8,25.7,29.8z"/>
		<path class="st5" d="M24.9,20.5h0.8c0.2,0,0.4,0.2,0.4,0.4v4.7c0,0.2-0.2,0.4-0.4,0.4c-0.7,0-1.2-0.5-1.2-1.2v-3.8
			C24.5,20.6,24.7,20.5,24.9,20.5z"/>
		<path class="st4" d="M15.9,26.5v2.7c0,0.3,0.2,0.5,0.5,0.5c0.3,0,0.5-0.2,0.5-0.5v-2.6C16.6,26.6,16.2,26.6,15.9,26.5z"/>
		<path class="st4" d="M25.2,26.5v2.7c0,0.3,0.2,0.5,0.5,0.5s0.5-0.2,0.5-0.5v-2.8C25.9,26.4,25.6,26.5,25.2,26.5z"/>
	</g>
</g>
<g>
	<g>
		<path class="st1" d="M52.6,31.1c-0.2,0-0.4,0-0.5-0.1c0,0-0.1,0-0.1,0c-0.2,0.1-0.3,0.1-0.5,0.1h-1.3c-0.3,0-0.6-0.1-0.8-0.4
			c-0.2-0.2-0.3-0.5-0.2-0.8c0.1-0.5,0.3-0.9,0.7-1.2v-2.1c-0.4-0.4-0.7-0.9-0.7-1.5c-0.7,0.2-1.7,0.3-2.7,0.3c-0.2,0-0.3,0-0.5,0
			l0,4.2c0,0.3-0.1,0.6-0.3,0.9c-0.2,0.3-0.4,0.5-0.8,0.6c-0.2,0.1-0.3,0.1-0.5,0.1h-1.3c-0.2,0-0.4,0-0.5-0.1c0,0,0,0,0,0
			c-0.2,0.1-0.4,0.1-0.6,0.1h-1.3c-0.3,0-0.6-0.1-0.8-0.4c-0.2-0.2-0.3-0.5-0.2-0.8c0.1-0.5,0.3-0.9,0.7-1.2v-4.9
			c-0.7-0.5-1.2-1.2-1.6-1.9c-0.1-0.3-0.3-0.5-0.4-0.8c-0.1,0-0.1,0.1-0.2,0.1c-0.1,0.1-0.1,0.1-0.2,0.1c-0.2,0.1-0.4,0.2-0.6,0.2
			c-0.2,0-0.4-0.1-0.6-0.2c0,0-0.1-0.1-0.2-0.1c-0.1,0-0.3-0.1-0.4-0.2c-0.1-0.1-0.4-0.4-0.6-0.8c-0.3,0.1-0.6,0.2-0.9,0.2
			c-0.7,0-1.3-0.3-1.7-0.9L33,19c-0.3-0.5-0.4-1-0.3-1.5c0.1-0.5,0.4-1,0.9-1.3l1.4-1c-0.7-0.5-1.1-1.3-1.1-2.2v-1.9
			c0-0.8,0.7-1.5,1.5-1.5c0.5,0,0.9,0.2,1.2,0.6c0.3-0.4,0.7-0.6,1.2-0.6h0.3c0.5,0,0.9,0.2,1.2,0.6c0.3-0.4,0.7-0.6,1.2-0.6h0.3
			c0.5,0,0.9,0.2,1.2,0.6c0.3-0.4,0.7-0.6,1.2-0.6h1.3c0.8,0,1.5,0.7,1.5,1.5v0.8c0,1.1-0.5,2.1-1.2,2.8c0,0,0,0,0.1,0
			c0.9,0,1.8,0.3,2.6,0.8l0.3,0.2c0.4,0.3,1,0.4,1.5,0.4c0.1,0,0.3,0,0.4,0c0.4-0.1,0.7-0.1,1.1-0.1c1.6,0,2.9,0.6,3.7,1.8
			c0.8,0.3,1.4,1,1.5,1.9c0.1,0.6-0.1,1.2-0.4,1.7c0,0-0.1,0.1-0.1,0.1c0,0.1,0,0.1,0,0.2v7.8c0,0.4-0.2,0.8-0.5,1.1
			c-0.2,0.2-0.4,0.3-0.6,0.4c-0.2,0.1-0.3,0.1-0.5,0.1H52.6z"/>
		<path class="st1" d="M44.5,10.6c0.3,0,0.5,0.2,0.5,0.5v0.8c0,1.5-1.3,2.8-2.8,2.8h-2.5l-0.2,0.2c0.1,0.1,0.2,0.2,0.3,0.3
			c0.2,0,0.3-0.1,0.5-0.1c0.3,0,0.5,0,0.8,0.1c0.4,0.1,0.7,0.4,0.9,0.6c0.2,0,0.5,0,0.7,0c0.4,0,0.9,0,1.4-0.1
			c0.2,0,0.5-0.1,0.7-0.1c0.7,0,1.4,0.2,2,0.6l0.3,0.2c0.6,0.4,1.3,0.6,2,0.6c0.2,0,0.4,0,0.6,0c0.3,0,0.6-0.1,0.9-0.1
			c1.5,0,2.5,0.6,3,1.6c0,0,0,0,0,0c0,0,0,0,0.1,0c0,0,0,0,0,0c0.5,0.1,1,0.5,1,1.2c0,0.4,0,0.7-0.2,1c-0.1,0.1-0.2,0.2-0.3,0.3
			c0,0.2,0,0.4,0,0.6v5c0,0,0,0,0,0v2.8c0,0.1-0.1,0.3-0.2,0.4c-0.1,0.1-0.1,0.1-0.2,0.1c-0.1,0-0.1,0-0.2,0c0,0,0,0,0,0h-1.3
			c0.1-0.3,0.3-0.7,0.7-0.9v-2.3c0,0,0,0,0,0v-0.8c-0.4-0.2-0.7-0.6-0.7-1.1v-1.6L52,23.5V27c0,0,0,0,0,0v2.6c0,0.1,0,0.2-0.1,0.3
			c-0.1,0.1-0.2,0.2-0.3,0.2c-0.1,0-0.1,0-0.2,0c0,0,0,0,0,0h-1.3c0.1-0.3,0.3-0.7,0.7-0.9v-2.1c0,0,0,0,0,0v-1
			c-0.4-0.2-0.7-0.6-0.7-1.1v-1.3l0,0c0,0-1.8,0.6-3.7,0.6c-0.5,0-1,0-1.5-0.2V27c0,0,0,0,0,0v2.6c0,0.1,0,0.2-0.1,0.3
			C45,30,44.9,30,44.8,30.1c-0.1,0-0.1,0-0.2,0c0,0,0,0,0,0h-1.3c0.1-0.3,0.3-0.7,0.7-0.9v-2.3c0,0,0,0,0,0v-2.8
			c-0.5,0-0.9-0.1-1.3-0.2v2.9c0,0,0,0,0,0v2.9c0,0.1-0.1,0.3-0.2,0.4c0,0-0.1,0.1-0.2,0.1c-0.1,0-0.1,0-0.2,0c0,0,0,0,0,0h-1.3
			c0.1-0.3,0.3-0.7,0.7-0.9v-2.7c0,0,0,0,0,0v-3.2c-0.7-0.4-1.3-1.1-1.7-1.8c-0.5-0.9-0.8-1.9-0.9-3c-0.1,0.2-0.3,0.3-0.5,0.5
			c0,0.1,0.1,0.3,0.1,0.4c0,0.5-0.4,0.9-0.4,0.9s0,0-0.1-0.1c-0.2,0.2-0.4,0.3-0.4,0.3s-0.2-0.1-0.4-0.3c0,0.1-0.1,0.1-0.1,0.1
			s-0.4-0.4-0.4-0.9c0-0.1,0-0.2,0-0.3c-0.2-0.1-0.4-0.2-0.6-0.3l-0.6,0.4c-0.2,0.1-0.4,0.2-0.6,0.2c-0.3,0-0.7-0.2-0.9-0.5
			l-0.3-0.4c-0.3-0.5-0.2-1.1,0.3-1.5l3.1-2.1c0.1-0.1,0.3-0.2,0.5-0.2c0,0,0,0,0,0h-1.1c-1,0-1.7-0.8-1.7-1.7v-1.9
			c0-0.3,0.2-0.5,0.5-0.5c0.3,0,0.5,0.2,0.5,0.5v1.7c0,0.3,0.2,0.5,0.5,0.5h0.3c0.3,0,0.5-0.2,0.5-0.5v-1.7c0-0.3,0.2-0.5,0.5-0.5
			h0.3c0.3,0,0.5,0.2,0.5,0.5v1.7c0,0.3,0.2,0.5,0.5,0.5h0.3c0.3,0,0.5-0.2,0.5-0.5v-1.7c0-0.3,0.2-0.5,0.5-0.5h0.3
			c0.3,0,0.5,0.2,0.5,0.5v1.7c0,0.3,0.2,0.5,0.5,0.5h0.3c0.3,0,0.5-0.2,0.5-0.5v-1.7c0-0.3,0.2-0.5,0.5-0.5H44.5 M44.5,8.6h-1.3
			c-0.4,0-0.8,0.1-1.2,0.3c-0.4-0.2-0.8-0.3-1.2-0.3h-0.3c-0.4,0-0.8,0.1-1.2,0.3c-0.4-0.2-0.8-0.3-1.2-0.3h-0.3
			c-0.4,0-0.8,0.1-1.2,0.3c-0.4-0.2-0.8-0.3-1.2-0.3c-1.4,0-2.5,1.1-2.5,2.5V13c0,0.7,0.2,1.4,0.6,2L33,15.3
			c-1.4,0.9-1.8,2.8-0.8,4.2l0.3,0.4c0.6,0.8,1.5,1.3,2.5,1.3c0.1,0,0.3,0,0.4,0c0.1,0.2,0.3,0.3,0.3,0.4c0.2,0.2,0.4,0.3,0.6,0.4
			c0,0,0.1,0.1,0.1,0.1c0.3,0.2,0.7,0.4,1.1,0.4c0.2,0,0.3,0,0.5-0.1c0.4,0.7,0.9,1.3,1.5,1.8v2.2l0,1.8c-0.4,0.4-0.6,0.9-0.7,1.4
			c-0.1,0.6,0,1.2,0.4,1.7c0.4,0.5,0.9,0.7,1.5,0.7h1.3c0,0,0,0,0,0c0.2,0,0.4,0,0.6-0.1c0.2,0,0.4,0.1,0.5,0.1h1.3c0,0,0,0,0,0
			c0.3,0,0.6-0.1,0.9-0.2c0.5-0.2,0.9-0.5,1.2-1c0.3-0.4,0.4-0.9,0.4-1.4V27l0-0.6c0.5,0,1-0.1,1.4-0.1c0.1,0.3,0.3,0.5,0.4,0.8v0.1
			l0,1.2c-0.4,0.4-0.6,0.9-0.7,1.4c-0.1,0.6,0,1.2,0.4,1.7c0.4,0.5,0.9,0.7,1.5,0.7h1.3c0,0,0,0,0,0c0.2,0,0.4,0,0.6-0.1
			c0.2,0,0.4,0.1,0.5,0.1h1.3c0,0,0,0,0,0c0.3,0,0.5,0,0.8-0.1c0.4-0.1,0.7-0.3,1-0.6c0.5-0.5,0.7-1.1,0.7-1.8v-2.8l0-4.9
			c0.4-0.7,0.6-1.4,0.5-2.2C56.8,18.4,56,17.4,55,17c-1-1.3-2.5-1.9-4.3-1.9c-0.4,0-0.8,0-1.2,0.1c-0.1,0-0.2,0-0.3,0
			c-0.4,0-0.7-0.1-1-0.3l-0.3-0.2c-0.4-0.3-0.9-0.5-1.4-0.7c0.3-0.6,0.5-1.3,0.5-2.1v-0.8C47,9.7,45.8,8.6,44.5,8.6L44.5,8.6z"/>
	</g>
	<g>
		<path class="st2" d="M42.1,30.1h-1.3c0.1-0.4,0.5-0.9,1.1-1.1L42.1,30.1z"/>
		<path class="st3" d="M42.1,30.1c-0.3,0-0.5-0.2-0.5-0.5V23c0-0.3,0.2-0.5,0.5-0.5s0.5,0.2,0.5,0.5v6.5
			C42.7,29.9,42.4,30.1,42.1,30.1z"/>
		<path class="st2" d="M51.5,30.1h-1.3c0.1-0.4,0.5-0.9,1.1-1.1L51.5,30.1z"/>
		<path class="st3" d="M51.5,30.1c-0.3,0-0.5-0.2-0.5-0.5v-7.8c0-0.3,0.2-0.5,0.5-0.5s0.5,0.2,0.5,0.5v7.8
			C52,29.9,51.8,30.1,51.5,30.1z"/>
		<path class="st3" d="M50.6,20.8h0.8c0.2,0,0.4,0.2,0.4,0.4v4.7c0,0.2-0.2,0.4-0.4,0.4c-0.7,0-1.2-0.5-1.2-1.2v-3.8
			C50.3,21,50.4,20.8,50.6,20.8z"/>
		<path class="st4" d="M41.6,26.5v3.1c0,0.3,0.2,0.5,0.5,0.5c0.3,0,0.5-0.2,0.5-0.5v-2.9C42.3,26.6,42,26.6,41.6,26.5z"/>
		<path class="st4" d="M51,27.1v2.5c0,0.3,0.2,0.5,0.5,0.5s0.5-0.2,0.5-0.5V27C51.7,27,51.3,27.1,51,27.1z"/>
		<path class="st5" d="M54.7,20.8c-0.2,0.3-0.4,0.4-0.8,0.5c-0.6,0.1-1.2-0.4-1.3-1.2c-0.1-0.7,0.3-1.4,1-1.5c0.1,0,0.2,0,0.3,0
			c0.5,0.1,1,0.5,1,1.2C55,20.2,54.9,20.6,54.7,20.8z"/>
		<path class="st6" d="M54.7,20.8c-0.2,0.3-0.4,0.4-0.8,0.5c-0.6,0.1-1.2-0.4-1.3-1.2c-0.1-0.7,0.3-1.4,1-1.5c0.1,0,0.2,0,0.3,0
			C54.3,19.2,54.6,20,54.7,20.8z"/>
		<path class="st2" d="M44.6,30.1h-1.3c0.1-0.4,0.5-0.9,1.1-1.1L44.6,30.1z"/>
		<path class="st5" d="M44.6,30.1c-0.3,0-0.5-0.2-0.5-0.5V23c0-0.3,0.2-0.5,0.5-0.5c0.3,0,0.5,0.2,0.5,0.5v6.5
			C45.1,29.9,44.9,30.1,44.6,30.1z"/>
		<path class="st6" d="M39.2,17.9c0,0.7-0.8,1.3-1.7,1.3c-0.9,0-1.7-0.6-1.7-1.3c0-0.7,0.8-1.3,1.7-1.3
			C38.4,16.6,39.2,17.1,39.2,17.9z"/>
		<path class="st5" d="M49.8,17.1c-0.9,0.1-1.8,0-2.6-0.5l-0.3-0.2c-0.8-0.5-1.8-0.7-2.7-0.5c-1.5,0.3-3.2,0-4-0.2
			c-0.3-0.6-1-1-1.7-1c-0.3,0-0.5,0.1-0.8,0.2c-0.2,0-0.3,0.1-0.5,0.2L34.1,17c-0.5,0.3-0.6,1-0.3,1.5l0.3,0.4
			c0.3,0.5,1,0.6,1.5,0.3l1.7-1.1c0.3,0.2,0.7,0.4,1.1,0.4c0.2,0,0.4,0,0.5-0.1c0.1,1.2,0.4,2.2,0.9,3.2c0.9,1.6,2.6,2.6,4.4,2.6
			h0.4c2.3,0.8,5.6-0.4,5.6-0.4l2.9-0.4l1.2-1.6C54.4,18.5,53.1,16.6,49.8,17.1z"/>
		<path class="st4" d="M45,11.1v0.8c0,1.5-1.3,2.8-2.8,2.8h-5.6c-1,0-1.7-0.8-1.7-1.7v-1.9c0-0.3,0.2-0.5,0.5-0.5s0.5,0.2,0.5,0.5
			v1.7c0,0.3,0.2,0.5,0.5,0.5h0.3c0.3,0,0.5-0.2,0.5-0.5v-1.7c0-0.3,0.2-0.5,0.5-0.5h0.3c0.3,0,0.5,0.2,0.5,0.5v1.7
			c0,0.3,0.2,0.5,0.5,0.5h0.3c0.3,0,0.5-0.2,0.5-0.5v-1.7c0-0.3,0.2-0.5,0.5-0.5h0.3c0.3,0,0.5,0.2,0.5,0.5v1.7
			c0,0.3,0.2,0.5,0.5,0.5h0.3c0.3,0,0.5-0.2,0.5-0.5v-1.7c0-0.3,0.2-0.5,0.5-0.5h1.3C44.7,10.6,45,10.8,45,11.1z"/>
		<path class="st4" d="M40.4,14.1l-1.8,1.6c-0.2,0.2-0.6,0.2-0.8-0.1c-0.2-0.2-0.2-0.6,0.1-0.8l1.8-1.6c0.2-0.2,0.6-0.2,0.8,0.1
			C40.7,13.6,40.7,13.9,40.4,14.1z"/>
		<path class="st6" d="M39.5,16.1c0.2,0.3,0.6,0.6,1.2,0.8c0.6,0.2,1.1,0,1.5-0.2c0.2-0.1,0.3-0.2,0.3-0.2s-0.4-1-1.3-1.3
			c-0.9-0.3-1.7-0.1-1.8,0.3C39.3,15.7,39.4,15.9,39.5,16.1z"/>
		<path class="st7" d="M39.5,16.1c0.2,0.3,0.6,0.6,1.2,0.8c0.6,0.2,1.1,0,1.5-0.2c-0.2-0.3-0.5-0.6-1-0.8
			C40.5,15.7,39.8,15.8,39.5,16.1z"/>
		<path class="st8" d="M37.3,16.2c0,0,0,0.3-0.1,0.3c-0.1,0.1-0.4-0.1-0.4-0.1s0-0.3,0.1-0.3C37.1,16.1,37.3,16.2,37.3,16.2z"/>
		<g>
			<path class="st6" d="M38.3,19.6c0,0.5-0.6,0.9-0.6,0.9S37,20.1,37,19.6c0-0.5,0.3-0.9,0.6-0.9S38.3,19.1,38.3,19.6z"/>
			<g>
				<path class="st6" d="M37.6,19.3c0,0.5-0.4,0.9-0.4,0.9s-0.4-0.4-0.4-0.9c0-0.5,0.2-0.9,0.4-0.9S37.6,18.8,37.6,19.3z"/>
				<path class="st6" d="M38.5,19.3c0,0.5-0.4,0.9-0.4,0.9s-0.4-0.4-0.4-0.9c0-0.5,0.2-0.9,0.4-0.9C38.3,18.4,38.5,18.8,38.5,19.3z"
					/>
			</g>
		</g>
		<path class="st9" d="M35,18.4c-0.1,0.1-0.3,0.1-0.4,0.1c-0.1,0-0.1-0.1,0-0.2l0.4-0.4c0.1-0.1,0.2,0,0.2,0
			C35.1,18.1,35.1,18.3,35,18.4z"/>
		<path class="st2" d="M53.9,30.1h-1.3c0.1-0.4,0.5-0.9,1.1-1.1L53.9,30.1z"/>
		<path class="st5" d="M53.9,30.1c-0.3,0-0.5-0.2-0.5-0.5v-7.8c0-0.3,0.2-0.5,0.5-0.5c0.3,0,0.5,0.2,0.5,0.5v7.8
			C54.4,29.9,54.2,30.1,53.9,30.1z"/>
		<path class="st5" d="M53,20.8h0.8c0.2,0,0.4,0.2,0.4,0.4v4.7c0,0.2-0.2,0.4-0.4,0.4c-0.7,0-1.2-0.5-1.2-1.2v-3.8
			C52.7,21,52.8,20.8,53,20.8z"/>
		<path class="st4" d="M44,26.9v2.7c0,0.3,0.2,0.5,0.5,0.5c0.3,0,0.5-0.2,0.5-0.5V27C44.8,26.9,44.4,26.9,44,26.9z"/>
		<path class="st4" d="M53.4,26.9v2.7c0,0.3,0.2,0.5,0.5,0.5s0.5-0.2,0.5-0.5v-2.8C54.1,26.8,53.7,26.8,53.4,26.9z"/>
	</g>
</g>
<g>
	<g>
		<path class="st1" d="M124.5,31.3c-0.3,0-0.6-0.1-0.8-0.4c-0.1-0.2-0.2-0.4-0.2-0.6c-0.2,0.6-0.9,1-1.5,1h-1.8
			c-0.3,0-0.6-0.1-0.8-0.4c-0.2-0.2-0.3-0.5-0.2-0.8c0.1-0.7,0.6-1.3,1.3-1.8l0.5-1.2c-0.8-0.3-1.6-0.8-2.2-1.4
			c-0.4,0.1-0.8,0.1-1.2,0.1c-0.2,0-0.5,0-0.7,0c-0.6,1.2-1.5,2.1-2.4,2.6v1.2c0,0.9-0.8,1.7-1.7,1.7h-1.7c-0.2,0-0.5-0.1-0.7-0.2
			c-0.3,0.2-0.6,0.2-0.9,0.2h-1.7c-0.3,0-0.6-0.1-0.8-0.4c-0.2-0.2-0.3-0.5-0.2-0.8c0.1-0.6,0.4-1.1,1-1.5v-0.3
			c-1.8-1.1-3.1-3.9-3.4-7.3c0,0-0.1,0-0.1,0c-0.6,0-1.1-0.2-1.5-0.3c-0.3-0.1-0.5-0.2-0.5-0.2c-0.4-0.3-0.6-0.8-0.4-1.2
			c0-0.1,0.4-0.9,1.1-1.5c-0.3-0.6-0.4-1.4-0.3-2.2c0.1-0.6,0.6-1,1.1-1c0.3,0,0.6,0.1,0.8,0.3c0.9-2.4,3.7-4.1,7-4.1
			c1.7,0,3.3,0.4,4.6,1.3c0,0,0.1,0,0.1,0.1c0.1,0.1,0.3,0.2,0.4,0.2l0.4,0.2c0.1,0.1,0.3,0.2,0.4,0.2c0.1,0.1,0.3,0.1,0.4,0.2
			l0.4,0.2c0.1,0.1,0.2,0.1,0.3,0.1c0.2,0.1,0.4,0.1,0.5,0.2l0.4,0.1c0.1,0,0.1,0.1,0.2,0.1c0.4,0.1,0.8,0.2,1.3,0.3
			c1,0.2,2.1,0.3,3.5,0.3c0,0,0,0,0,0c1.7,0,3.4,0.9,4.3,2.4c0.5,0.5,0.9,1.1,1.2,1.8c0.3,0.9,0.4,2,0.3,3.2c0,0,0,0.1,0,0.1
			c0.4,1.2,0.3,2.3-0.4,3.3c-0.1,0.2-0.3,0.4-0.6,0.4c-0.1,0.1-0.2,0.3-0.3,0.3c0.1,0.3,0.1,0.7-0.1,1.1l-1.4,3.5
			c-0.2,0.6-0.9,1-1.5,1H124.5z M124,29.1c0.2-0.3,0.5-0.6,0.9-0.8l0.5-1.2c-0.2-0.1-0.3-0.1-0.5-0.2L124,29.1z"/>
		<path class="st1" d="M111.8,11.6c1.6,0,3,0.4,4.1,1.2l0,0c0.2,0.1,0.4,0.2,0.6,0.4c0.2,0.1,0.4,0.2,0.6,0.3
			c0.2,0.1,0.4,0.2,0.6,0.3c0.2,0.1,0.4,0.2,0.6,0.3c0.2,0.1,0.5,0.2,0.8,0.3c0.2,0.1,0.3,0.1,0.5,0.2c0.4,0.1,0.9,0.2,1.4,0.3
			c1,0.2,2.2,0.3,3.7,0.4v0c1.5,0,2.9,0.8,3.6,2.1c0.4,0.3,0.8,0.8,1,1.5c0.3,0.9,0.4,1.9,0.2,3.1c0.1,0,0.1,0.1,0.1,0.2
			c0.3,0.9,0.2,1.7-0.3,2.4l-0.1-0.6c-0.1,0.8-0.7,1.2-0.7,1.2c0.1-1.3-0.7-1.6,0.2-3.1c0-0.1,0.1-0.1,0.2-0.2
			c0.1-0.5,0.1-1,0.1-1.4c0-0.5-0.1-1-0.3-1.5c0,0.2,0.1,0.3,0.1,0.5c0,0.9-0.3,1.8-0.8,2.5c-1.2,1.8-0.6,3-0.2,3.5
			c0.1,0.1,0.2,0.2,0.3,0.3c0.3,0.2,0.4,0.5,0.3,0.9l-1.4,3.5c-0.1,0.2-0.3,0.4-0.6,0.4h-0.1h-0.3h-1.4c0.1-0.5,0.5-1,1.2-1.3l1-2.6
			c-2.1-0.2-3.2-1.8-3.7-2.7c0,0.8,0.3,1.3,0.5,1.6c0.1,0.1,0.2,0.2,0.3,0.3c0.3,0.2,0.4,0.5,0.3,0.9l-1.4,3.5
			c-0.1,0.2-0.3,0.4-0.6,0.4h-0.4c0,0,0,0,0,0h-1.4c0.1-0.5,0.5-1,1.2-1.3l1-2.6c-1.4-0.1-2.4-0.9-3-1.7c0-0.1-0.1-0.1-0.1-0.2
			c-0.5,0.1-1,0.2-1.6,0.2c-0.4,0-0.8,0-1.3-0.1c-0.7,1.6-1.7,2.7-2.8,3v1.9c0,0.4-0.3,0.7-0.7,0.7h-1.7c0.1-0.4,0.4-0.9,1-1.2v-1.4
			c-0.3-0.1-0.6-0.2-0.9-0.4c-0.3,0.2-0.6,0.4-0.9,0.4v1.9c0,0.4-0.3,0.7-0.7,0.7h-1.7c0.1-0.4,0.4-0.9,1-1.2v-1.5
			c-2-0.7-3.4-4-3.4-7.9c0,0,0-0.1,0-0.1c-0.2,0.1-0.4,0.2-0.6,0.3c-0.2,0.1-0.3,0.1-0.5,0.1c-0.4,0-0.8-0.1-1.1-0.2
			c-0.2-0.1-0.3-0.2-0.3-0.2s0.5-1.1,1.4-1.4c0.2-0.1,0.4-0.1,0.5-0.1c-0.8-0.5-1.2-1.3-1-2.5c0-0.1,0.1-0.1,0.2-0.1
			c0.1,0,0.1,0,0.1,0.1c0.3,0.8,0.8,1.2,1.4,1.4c0-0.2-0.1-0.4-0.1-0.6C105.6,13.7,108.4,11.6,111.8,11.6 M111.8,9.6
			c-3.4,0-6.2,1.5-7.5,3.8c-0.1,0-0.2,0-0.3,0c-1.1,0-2,0.8-2.1,1.8c-0.1,0.8-0.1,1.5,0.1,2.1c-0.5,0.6-0.8,1.1-0.9,1.3
			c-0.4,0.9-0.1,2,0.8,2.5c0.1,0,0.3,0.2,0.6,0.3c0.3,0.1,0.6,0.2,1.1,0.3c0.4,2.9,1.4,5.3,3,6.7c-0.3,0.4-0.5,0.9-0.6,1.4
			c-0.1,0.6,0,1.2,0.4,1.7c0.4,0.5,0.9,0.7,1.5,0.7h1.7c0.3,0,0.6,0,0.8-0.1c0.2,0.1,0.5,0.1,0.7,0.1h1.7c1.5,0,2.7-1.2,2.7-2.7
			v-0.7c0.7-0.5,1.4-1.2,2-2.1c0,0,0.1,0,0.1,0c0.3,0,0.6,0,0.8,0c0.4,0.4,0.8,0.7,1.3,0.9c-0.8,0.6-1.3,1.4-1.5,2.2
			c-0.1,0.6,0,1.2,0.4,1.7c0.4,0.5,0.9,0.7,1.5,0.7h1.4l0.4,0c0.5,0,0.9-0.1,1.3-0.4c0.3,0.2,0.7,0.4,1.2,0.4h1.4h0.3h0.1
			c1,0,2-0.7,2.4-1.6l1.4-3.5c0.1-0.3,0.2-0.7,0.2-1c0.3-0.2,0.5-0.4,0.7-0.6c0.8-1.2,0.9-2.6,0.5-4c0.1-1.2,0-2.4-0.4-3.4
			c-0.3-0.8-0.8-1.6-1.4-2.1c-1.1-1.7-3-2.8-5.1-2.8c-1.3,0-2.4-0.2-3.3-0.3c-0.4-0.1-0.8-0.2-1.2-0.3c-0.1,0-0.1,0-0.2-0.1
			c-0.1,0-0.2-0.1-0.2-0.1l-0.2-0.1c-0.2-0.1-0.3-0.1-0.5-0.2c-0.1,0-0.2-0.1-0.3-0.1l-0.2-0.1l-0.2-0.1c-0.1-0.1-0.2-0.1-0.3-0.2
			c-0.1-0.1-0.2-0.1-0.3-0.2l-0.2-0.1l-0.2-0.1c-0.1-0.1-0.2-0.1-0.3-0.2c0,0-0.1-0.1-0.1-0.1C115.4,10.1,113.7,9.6,111.8,9.6
			L111.8,9.6z"/>
	</g>
	<g>
		<path class="st10" d="M129.2,21.7c-0.2,0-0.4,0.1-0.5,0.2c-0.8,1.5-0.1,1.8-0.2,3.1c0,0,0.5-0.4,0.7-1.2l0.1,0.6
			c0.4-0.7,0.6-1.5,0.3-2.4C129.5,21.8,129.3,21.7,129.2,21.7z"/>
		<g>
			<path class="st4" d="M129.4,22c0,0.1-0.1,0.2-0.2,0.2c0,0,0,0,0,0c-0.1,0-0.2-0.2-0.2-0.3c0.1-0.6,0.2-1.2,0.1-1.7
				c-0.1-1.5-0.8-2.7-1.8-2.9c-0.1,0-0.2-0.2-0.2-0.3c0-0.1,0.2-0.2,0.3-0.2c0.9,0.2,1.5,0.9,1.9,1.9
				C129.5,19.6,129.6,20.8,129.4,22z"/>
		</g>
		<path class="st11" d="M129.2,19c0,0.5-0.1,0.9-0.2,1.3c-0.1-1.5-0.8-2.7-1.8-2.9c-0.1,0-0.2-0.2-0.2-0.3c0-0.1,0.2-0.2,0.3-0.2
			c0.9,0.2,1.5,0.9,1.9,1.9C129.2,18.8,129.2,18.9,129.2,19z"/>
		<path class="st2" d="M109.6,30.3h-1.7c0.1-0.6,0.6-1.1,1.5-1.4L109.6,30.3z"/>
		<path class="st11" d="M109.6,30.3c-0.4,0-0.7-0.3-0.7-0.7v-3.8c0-0.4,0.3-0.7,0.7-0.7c0.4,0,0.7,0.3,0.7,0.7v3.8
			C110.3,30,110,30.3,109.6,30.3z"/>
		<path class="st2" d="M121.9,30.3h-1.7c0.1-0.6,0.6-1.1,1.5-1.4L121.9,30.3z"/>
		<path class="st11" d="M124,26.4l-1.4,3.5c-0.1,0.2-0.3,0.4-0.6,0.4h-0.4c-0.4,0-0.6-0.4-0.5-0.7l1.2-3.2c-1.4-0.1-2.4-0.9-3-1.7
			c-0.7-0.9-1-1.8-1-1.8c-0.9-3.6,4-4.5,5.3-1.2c-0.5,0.7-0.7,1.3-0.7,1.9c-0.1,0.8,0.3,1.3,0.5,1.6c0.1,0.1,0.2,0.2,0.3,0.3
			C124,25.7,124.1,26,124,26.4z"/>
		<path class="st2" d="M112.8,30.3h-1.7c0.1-0.6,0.6-1.1,1.5-1.4L112.8,30.3z"/>
		<path class="st11" d="M112.8,30.3c-0.4,0-0.7-0.3-0.7-0.7v-3.8c0-0.4,0.3-0.7,0.7-0.7s0.7,0.3,0.7,0.7v3.8
			C113.5,30,113.2,30.3,112.8,30.3z"/>
		<path class="st2" d="M126.2,30.3h-1.7c0.1-0.6,0.6-1.1,1.5-1.4L126.2,30.3z"/>
		<circle class="st4" cx="124.6" cy="19.3" r="4.1"/>
		<path class="st12" d="M123.6,21.8c-0.5,0.7-0.7,1.3-0.7,1.9c-1.2,0.7-2.3,1.1-3.6,1.1c-0.7-0.9-1-1.8-1-1.8
			C117.5,19.3,122.3,18.5,123.6,21.8z"/>
		<path class="st4" d="M124.6,15.1l-0.8,6.9c-3.4,2.5-5.2,3.3-8.9,2.3l1-11.2l0-0.3c1.6,1,3,1.6,5,2C122,15,123.2,15.1,124.6,15.1z"
			/>
		<path class="st10" d="M105.5,18.7c0,0.3,0,0.7,0,1c0,4.5,1.9,8.1,4.2,8.1c2.3,0,4.2-3.6,4.2-8.1c0-0.3,0-0.7,0-1H105.5z"/>
		<ellipse class="st2" cx="112.8" cy="19.9" rx="4.5" ry="7.9"/>
		<path class="st6" d="M120.9,14.8c-1.9-0.4-3.3-1-4.8-1.9c-1.1-0.8-2.6-1.2-4.2-1.2c-3.5,0-6.3,2.1-6.3,4.7s2.8,4.7,6.3,4.7
			c3.5,0,6.3-2.1,6.3-4.7C118.1,15.1,119.5,14.8,120.9,14.8z"/>
		<path class="st4" d="M127.7,25.2c-0.3-0.5-1-1.7,0.2-3.5c-1.3-3.3-6.1-2.5-5.3,1.2c0,0,0.9,3.2,4,3.5l-1.2,3.2
			c-0.1,0.3,0.1,0.7,0.5,0.7h0.4c0.2,0,0.5-0.2,0.6-0.4l1.4-3.5c0.1-0.3,0-0.7-0.3-0.9C127.8,25.4,127.7,25.3,127.7,25.2z"/>
		<g>
			<path class="st2" d="M106.1,19c-0.2,0.3-0.7,0.6-1.2,0.8c-0.6,0.2-1.2,0-1.6-0.2c-0.2-0.1-0.3-0.2-0.3-0.2s0.5-1.1,1.4-1.4
				c0.9-0.3,1.7-0.1,1.9,0.3C106.3,18.6,106.2,18.8,106.1,19z"/>
			<path class="st2" d="M114.3,19.5c0,0-0.1,0.1-0.3,0.2c-0.4,0.2-1,0.3-1.6,0.2c-0.6-0.2-1-0.5-1.2-0.8c-0.1-0.2-0.2-0.4-0.1-0.5
				c0.1-0.5,1-0.6,1.9-0.3C113.9,18.4,114.3,19.5,114.3,19.5z"/>
			<path class="st11" d="M106.1,19c-0.2,0.3-0.7,0.6-1.2,0.8c-0.6,0.2-1.2,0-1.6-0.2c0.2-0.3,0.6-0.7,1-0.8
				C105.1,18.6,105.8,18.7,106.1,19z"/>
			<path class="st11" d="M114,19.7c-0.4,0.2-1,0.3-1.6,0.2c-0.6-0.2-1-0.5-1.2-0.8c0.3-0.3,1-0.4,1.8-0.1
				C113.4,19,113.8,19.4,114,19.7z"/>
			<g>
				<path class="st6" d="M109.7,24.4c0,1-1.1,1.7-1.1,1.7s-1.1-0.8-1.1-1.7s0.5-1.7,1.1-1.7C109.2,22.7,109.7,23.4,109.7,24.4z"/>
				<g>
					<path class="st6" d="M108.6,24.1c0,1-0.8,1.7-0.8,1.7s-0.8-0.8-0.8-1.7c0-1,0.3-1.7,0.8-1.7C108.2,22.4,108.6,23.1,108.6,24.1z
						"/>
					<path class="st6" d="M110.2,24.1c0,1-0.8,1.7-0.8,1.7s-0.8-0.8-0.8-1.7c0-1,0.3-1.7,0.8-1.7C109.8,22.4,110.2,23.1,110.2,24.1z
						"/>
				</g>
			</g>
			<path class="st6" d="M111.9,19.2c0,2.6-1.4,4.7-3.2,4.7c-1.8,0-3.2-2.1-3.2-4.7s1.4-3.6,3.2-3.6
				C110.4,15.7,111.9,16.6,111.9,19.2z"/>
			<g>
				<path class="st4" d="M104.2,15.5c0.4,1,1.1,1.4,2.1,1.5c0.3,0,0.6,0.3,0.6,0.7c0,0.4-0.4,0.7-0.8,0.7c-1.6-0.2-2.4-1.3-2.2-2.9
					C103.9,15.4,104.1,15.4,104.2,15.5z"/>
				<path class="st4" d="M113.1,15.5c-0.4,1-1.1,1.4-2.1,1.5c-0.3,0-0.6,0.3-0.6,0.7c0,0.4,0.4,0.7,0.8,0.7c1.6-0.2,2.4-1.3,2.2-2.9
					C113.4,15.4,113.2,15.4,113.1,15.5z"/>
			</g>
			<polygon class="st5" points="109.5,22.3 107.8,22.3 107.2,18.4 110.2,18.4 			"/>
			<g>
				<path class="st9" d="M109,24.2h-0.6c-0.5,0-0.8-0.4-0.8-0.8c0-0.5,0.4-0.8,0.8-0.8h0.6c0.5,0,0.8,0.4,0.8,0.8
					C109.8,23.9,109.4,24.2,109,24.2z"/>
				<path class="st2" d="M109,24h-0.8c-0.6,0-1-0.5-1-1c0-0.6,0.5-1,1-1h0.8c0.6,0,1,0.5,1,1C110.1,23.6,109.6,24,109,24z"/>
				<g>
					<path class="st9" d="M107.8,23.2c0.1,0.1,0.3,0.2,0.5,0.1c0.1,0,0.1-0.1,0-0.2l-0.4-0.4c-0.1-0.1-0.2,0-0.2,0
						C107.7,22.9,107.7,23.1,107.8,23.2z"/>
					<path class="st9" d="M109.5,23.2c-0.1,0.1-0.3,0.2-0.5,0.1c-0.1,0-0.1-0.1,0-0.2l0.4-0.4c0.1-0.1,0.2,0,0.2,0
						C109.7,22.9,109.6,23.1,109.5,23.2z"/>
				</g>
			</g>
			<g>
				<path class="st8" d="M110.7,19.6c0,0,0,0.3-0.1,0.4c-0.1,0.1-0.4-0.1-0.4-0.1s0-0.3,0.1-0.4C110.5,19.4,110.7,19.6,110.7,19.6z"
					/>
				<path class="st8" d="M106.6,19.6c0,0,0,0.3,0.1,0.4c0.1,0.1,0.4-0.1,0.4-0.1s0-0.3-0.1-0.4C106.9,19.4,106.6,19.6,106.6,19.6z"
					/>
			</g>
			<path class="st2" d="M109.9,18.9h-2.4c-1,0-1.8-0.8-1.8-1.8v0c0-1,0.8-1.8,1.8-1.8h2.4c1,0,1.8,0.8,1.8,1.8v0
				C111.7,18.1,110.9,18.9,109.9,18.9z"/>
		</g>
	</g>
</g>
<g>
	<g>
		<g>
			<path class="st1" d="M90,32.4c-0.3,0-0.5-0.1-0.7-0.2c-0.2,0.2-0.5,0.2-0.8,0.2h-2.2c-0.5,0-1-0.3-1.2-0.8
				c-0.2-0.5-0.1-1,0.3-1.4l0.1-0.1v-6.5c-1.1-0.1-2.2-0.5-3.2-1h-2.1v8.1c0,0.9-0.7,1.6-1.6,1.6h-2.2c-0.3,0-0.5-0.1-0.7-0.2
				c-0.2,0.2-0.5,0.2-0.8,0.2h-2.2c-0.5,0-1-0.3-1.2-0.8c-0.2-0.5-0.1-1,0.3-1.4l0.1-0.1V19.6c-0.4,0.2-0.8,0.5-1.3,0.7
				c-0.1,0.1-0.2,0.2-0.3,0.4c-0.4,5-0.5,5.8-1.7,7.2c-0.8,0.9-1.9,1.6-3,1.9c-0.4,0.1-0.8,0.2-1.3,0.2c-0.4,0-0.8,0-1.3-0.1l-0.4,0
				c-0.5,0-0.9-0.5-0.9-1c0-0.2,0-0.3,0.1-0.4c0-0.1-0.1-0.3-0.1-0.4c0-0.6,0.4-1.1,1-1.1c0,0,1-0.1,1-0.1c1.1-0.2,1.9-0.8,2-1.8
				c0-0.2,0-0.3,0-0.5l-0.2-2.1c-0.5-0.1-1.1-0.2-1.6-0.5c-0.3-0.2-0.6-0.4-0.7-0.8c-0.1-0.4-0.1-0.7,0-1.1c0.2-0.3,0.4-0.6,0.7-0.7
				c-0.2-0.2-0.4-0.5-0.6-0.7c-0.2-0.3-0.3-0.7-0.3-1.1s0.2-0.7,0.6-0.9c0.3-0.2,0.5-0.3,0.9-0.3c0.2,0,0.4,0,0.5,0.1
				c0,0,0-0.1,0-0.1c-0.2-1.9,0.2-4,0.9-5.4c1-2,3-3.3,5.1-3.3l1.2-0.7c0.8-0.5,1.7-0.7,2.6-0.7c0.5,0,0.9,0.1,1.4,0.2
				c0.8,0.2,1.5,0.7,2,1.4C78.6,7.8,79,8,79.5,8.3h3.1c1.2-0.6,2.4-0.9,3.7-0.9c3.9,0,7.2,2.7,8,6.5c0.2,0.2,0.4,0.3,0.5,0.5
				c0.5,0.7,0.8,1.5,0.8,2.4v6c0.3,0.4,0.4,1,0.4,1.7c0,1.2-0.9,2.1-1,2.2c-0.2,0.2-0.4,0.3-0.7,0.3c-0.2,0-0.3,0-0.5-0.1v4
				c0,0.9-0.7,1.6-1.6,1.6H90z"/>
			<path class="st1" d="M74.7,7.1c0.4,0,0.7,0.1,1.1,0.1c0,0,0,0,0,0c0.7,0.2,1.3,0.7,1.7,1.3c0.6,0.1,1.1,0.4,1.6,0.7h1.1h2.5
				c1-0.6,2.2-0.9,3.5-0.9c3.6,0,6.6,2.6,7.1,6.1c0.2,0.2,0.4,0.4,0.6,0.6c0.4,0.5,0.6,1.1,0.6,1.8v6.3c0.2,0.2,0.4,0.7,0.4,1.3
				c0,0.8-0.7,1.5-0.7,1.5s-0.7-0.7-0.7-1.5c0-0.6,0.2-1.1,0.4-1.3v-6.3c0-0.1,0-0.1,0-0.2c0-0.5-0.2-1-0.5-1.3c0,0.1,0,0.2,0,0.3
				c0,1-0.2,2-0.6,2.9v12.3c0,0.3-0.3,0.6-0.6,0.6h-0.4H91h-0.2H90h0c-0.2,0-0.3-0.3-0.2-0.4l0.4-0.4v-9c-0.4,0.2-0.8,0.5-1.2,0.6
				v8.6c0,0.3-0.3,0.6-0.6,0.6H88h-0.8H87h-0.8h0c-0.2,0-0.3-0.3-0.2-0.4l0.4-0.4v-7.9c-0.1,0-0.1,0-0.2,0c-1.4,0-2.6-0.4-3.7-1.1
				h-3.4v9.1c0,0.3-0.3,0.6-0.6,0.6h-0.4h-0.8h-0.2h-0.8h0c-0.2,0-0.3-0.3-0.2-0.4l0.4-0.4v-9c-0.4-0.1-0.8-0.2-1.2-0.4v9.6
				c0,0.3-0.3,0.6-0.6,0.6h-0.4h-0.8h-0.2h-0.8h0c-0.2,0-0.3-0.3-0.2-0.4l0.4-0.4v-12c-0.1-0.3-0.2-0.5-0.3-0.8
				c-0.8,0.7-1.7,1.3-2.6,1.6c-0.2,0.3-0.4,0.5-0.7,0.7c-0.4,5.2-0.5,5.8-1.5,7.1c-0.7,0.8-1.6,1.4-2.5,1.6c-0.3,0.1-0.7,0.1-1,0.1
				c-0.5,0-1-0.1-1.6-0.1c0-0.1,0-0.2,0.1-0.3c0.1-0.1,0.2-0.1,0.3-0.1l0.1,0l-0.1,0c-0.2,0-0.4-0.2-0.4-0.4v-0.1
				c0,0,1.2-0.1,1.2-0.1c0,0,0,0,0,0c1.5-0.2,2.7-1.2,2.8-2.7c0-0.2,0-0.4,0-0.7c0,0,0,0,0,0c0-0.1,0-0.4-0.1-0.7
				c0-0.2,0-0.4-0.1-0.7c0-0.2,0-0.4-0.1-0.7c0-0.2,0-0.5-0.1-0.7c0-0.1,0-0.2,0-0.3c-0.1,0-0.1,0-0.2,0c-0.6,0-1.3-0.1-1.9-0.4
				c-0.2-0.1-0.3-0.4-0.2-0.6c0.1-0.2,0.2-0.2,0.4-0.2c0.1,0,0.1,0,0.2,0c0.5,0.2,1,0.3,1.5,0.3c0,0,0.1,0,0.1,0c0-0.1,0-0.1,0-0.2
				c0-0.2,0-0.4-0.1-0.7c0,0,0-0.1,0-0.1c-0.2-0.1-0.4-0.2-0.6-0.3c-0.6-0.3-1.1-0.7-1.5-1.3c-0.1-0.2-0.1-0.5,0.1-0.6
				c0.1-0.1,0.2-0.1,0.3-0.1c0.1,0,0.3,0.1,0.3,0.2c0.4,0.5,0.8,0.8,1.4,1.1c0-0.1,0-0.2,0-0.2c0-0.2,0-0.5-0.1-0.7
				c0-0.2,0-0.5-0.1-0.7c0-0.3,0-0.5-0.1-0.7h0c-0.2-1.7,0.1-3.7,0.8-5c0.9-1.7,2.6-2.8,4.3-2.8c0,0,0.1,0,0.1,0l1.4-0.8
				C73.3,7.3,74,7.1,74.7,7.1 M74.7,5.1C74.7,5.1,74.7,5.1,74.7,5.1c-1.1,0-2.2,0.3-3.1,0.9l-1,0.6c-2.3,0.2-4.5,1.6-5.7,3.8
				c-0.7,1.4-1.1,3.2-1.1,4.9c-0.3,0.1-0.7,0.2-0.9,0.4c-1.1,0.8-1.3,2.3-0.5,3.4c0,0,0,0,0,0c-0.1,0.1-0.2,0.2-0.2,0.4
				c-0.3,0.6-0.3,1.2-0.1,1.9c0.2,0.6,0.7,1.1,1.3,1.4c0.4,0.2,0.7,0.3,1.1,0.4l0,0l0,0.3l0,0.4l0.1,0.7c0,0,0,0,0,0
				c0,0.1,0,0.2,0,0.3c-0.1,0.7-0.6,0.9-1.1,0.9l-1.1,0.1c-1,0.1-1.8,0.9-1.8,2V28c0,0.2,0,0.3,0,0.4c0,0.1,0,0.3,0,0.4
				c0,1,0.8,1.9,1.8,2l0.4,0c0.4,0,0.9,0.1,1.4,0.1c0.6,0,1.1-0.1,1.6-0.2c1.4-0.3,2.6-1.1,3.5-2.2c0.9-1,1.2-1.8,1.5-3.5v4.7
				c-0.5,0.6-0.6,1.5-0.3,2.2c0.3,0.9,1.2,1.4,2.1,1.4h0.8h0.2h0.8h0.4c0.3,0,0.6,0,0.8-0.1c0.2,0.1,0.5,0.1,0.8,0.1h0.8h0.2h0.8
				h0.4c1.4,0,2.6-1.2,2.6-2.6v-7.1H82c0.8,0.4,1.6,0.7,2.4,0.9v5.2c-0.5,0.6-0.6,1.5-0.3,2.2c0.3,0.9,1.2,1.4,2.1,1.4H87h0.2H88
				h0.4c0.3,0,0.6,0,0.8-0.1c0.2,0.1,0.5,0.1,0.8,0.1h0.8H91h0.8h0.4c1.4,0,2.6-1.2,2.6-2.6v-3c0.3-0.1,0.6-0.2,0.8-0.5
				c0.2-0.2,1.3-1.3,1.3-2.9c0-0.7-0.1-1.4-0.4-1.9v-5.7c0-1.1-0.3-2.1-1-3c-0.1-0.2-0.2-0.3-0.4-0.4c-1-4.1-4.6-7-8.9-7
				c-1.4,0-2.7,0.3-4,0.9h-2h-0.5c-0.3-0.2-0.7-0.3-1-0.5c-0.6-0.7-1.4-1.3-2.3-1.5C75.8,5.2,75.3,5.1,74.7,5.1L74.7,5.1L74.7,5.1z"
				/>
		</g>
	</g>
	<g>
		<g>
			<path class="st13" d="M94.5,16.8v7.3H94v-7.3c0-0.1,0-0.1,0-0.2c-0.1-1.2-1.1-2.2-2.4-2.2h-1.1v-0.6h1.1c1,0,1.8,0.5,2.4,1.2
				C94.3,15.5,94.5,16.2,94.5,16.8z"/>
		</g>
		<path class="st14" d="M94.9,24.5c0,0.8-0.7,1.5-0.7,1.5s-0.7-0.7-0.7-1.5c0-0.8,0.3-1.5,0.7-1.5C94.6,23,94.9,23.7,94.9,24.5z"/>
		<path class="st15" d="M94,15.9c0,0.3,0,0.5,0,0.7c-0.1-1.2-1.1-2.2-2.4-2.2h-1.1v-0.6h1.1c1,0,1.8,0.5,2.4,1.2
			C94,15.3,94,15.6,94,15.9z"/>
		<path class="st14" d="M89,17v13.8c0,0.3-0.3,0.6-0.6,0.6h-2.2c-0.2,0-0.3-0.3-0.2-0.4l0.4-0.4V17c0-0.3,0.3-0.6,0.6-0.6h1.4
			C88.7,16.4,89,16.6,89,17z"/>
		<path class="st16" d="M87,31.3c0,0,0,0.1,0,0.1h-0.8c0,0,0-0.1,0-0.1c0-0.2,0.2-0.4,0.4-0.4C86.8,30.9,87,31.1,87,31.3z"/>
		<path class="st16" d="M88,31.3c0,0,0,0.1,0,0.1h-0.8c0,0,0-0.1,0-0.1c0-0.2,0.2-0.4,0.4-0.4S88,31.1,88,31.3z"/>
		<path class="st14" d="M75.4,17v13.8c0,0.3-0.3,0.6-0.6,0.6h-2.2c-0.2,0-0.3-0.3-0.2-0.4l0.4-0.4V17c0-0.3,0.3-0.6,0.6-0.6h1.4
			C75.1,16.4,75.4,16.6,75.4,17z"/>
		<path class="st16" d="M73.4,31.3c0,0,0,0.1,0,0.1h-0.8c0,0,0-0.1,0-0.1c0-0.2,0.2-0.4,0.4-0.4C73.2,30.9,73.4,31.1,73.4,31.3z"/>
		<path class="st16" d="M74.4,31.3c0,0,0,0.1,0,0.1h-0.8c0,0,0-0.1,0-0.1c0-0.2,0.2-0.4,0.4-0.4S74.4,31.1,74.4,31.3z"/>
		<path class="st13" d="M79.2,17v13.8c0,0.3-0.3,0.6-0.6,0.6h-2.2c-0.2,0-0.3-0.3-0.2-0.4l0.4-0.4V17c0-0.3,0.3-0.6,0.6-0.6h1.4
			C78.9,16.4,79.2,16.6,79.2,17z"/>
		<path class="st16" d="M77.1,31.3c0,0,0,0.1,0,0.1h-0.8c0,0,0-0.1,0-0.1c0-0.2,0.2-0.4,0.4-0.4S77.1,31.1,77.1,31.3z"/>
		<path class="st16" d="M78.1,31.3c0,0,0,0.1,0,0.1h-0.8c0,0,0-0.1,0-0.1c0-0.2,0.2-0.4,0.4-0.4S78.1,31.1,78.1,31.3z"/>
		<g>
			<path class="st16" d="M65.6,19.2c-0.6-0.3-1.1-0.7-1.5-1.3c-0.1-0.2-0.1-0.5,0.1-0.6c0.2-0.1,0.5-0.1,0.6,0.1
				c0.6,0.8,1.5,1.3,2.4,1.4c1,0.1,2-0.1,2.7-0.7c0.2-0.1,0.5-0.1,0.6,0.1c0.1,0.2,0.1,0.5-0.1,0.6C69,19.9,67.1,20,65.6,19.2z"/>
		</g>
		<path class="st17" d="M75.8,7.2C75.8,7.2,75.8,7.2,75.8,7.2c-1.1-0.3-2.2-0.2-3.2,0.4l-4.7,2.7l2.9,1.3c0.1,0.5,0.2,1.1,0.5,1.6
			l2,3.6c0.4,0.7,1.3,0.9,1.9,0.4c2.3-1.9,3.3-4.9,2.7-7.7C77.7,8.4,76.9,7.5,75.8,7.2z"/>
		<path class="st13" d="M90.6,14.4v2.1c0,2.8-2.3,5.2-5.2,5.2h-8c-2.8,0-5.2-2.3-5.2-5.2v-2.1c0-1.4,0.6-2.8,1.6-3.7c0,0,0,0,0,0
			c0.9-0.9,2.2-1.4,3.6-1.4h8C88.3,9.3,90.6,11.6,90.6,14.4z"/>
		<circle class="st13" cx="86.2" cy="15.6" r="7.2"/>
		<path class="st13" d="M74.6,15.3c1.2-2.4,0.5-5.2-1.7-6.4c-2.2-1.1-4.9-0.1-6.1,2.3c-1.2,2.4-1.3,7,0.8,8.2
			C69.7,20.5,73.3,17.7,74.6,15.3z"/>
		<path class="st15" d="M81.4,12.6c-0.9,2.8-4.2,5.2-7.3,5.4c-0.9-0.5-1.5-1.3-1.9-2.2C71.4,13.6,72,11,73,11l0.8-0.3l4.7-1.5h1.7
			c0.2,0.1,0.3,0.3,0.5,0.4c0,0,0,0,0,0C81.5,10.5,81.8,11.6,81.4,12.6z"/>
		<path class="st13" d="M79.7,9.7C79.7,9.7,79.7,9.7,79.7,9.7c-0.8-0.8-1.9-1.2-3-1.2h-5.4L73,11c-0.2,0.5-0.3,1.1-0.3,1.6v4.1
			c0,0.8,0.7,1.4,1.5,1.2c2.9-0.5,5.3-2.6,6.2-5.4C80.7,11.6,80.4,10.5,79.7,9.7z"/>
		<path class="st13" d="M69.6,16.2c-0.8,8.9-0.6,9.5-1.8,11c-0.7,0.8-1.6,1.4-2.5,1.6c-0.8,0.2-1.7,0.1-2.6,0c0-0.1,0-0.2,0.1-0.3
			c0.1-0.1,0.2-0.1,0.3-0.1l0.1,0l-0.1,0c-0.2,0-0.4-0.2-0.4-0.4v-0.1c0,0,1.2-0.1,1.2-0.1c0,0,0,0,0,0c1.5-0.2,2.7-1.2,2.8-2.7
			c0-0.2,0-0.4,0-0.7c0,0,0,0,0,0c0-0.1,0-0.4-0.1-0.7c0-0.2,0-0.4-0.1-0.7c0-0.2,0-0.4-0.1-0.7c0-0.2,0-0.5-0.1-0.7
			c0-0.2,0-0.4-0.1-0.7c0-0.2,0-0.5-0.1-0.7c0-0.2,0-0.4-0.1-0.7c0-0.2,0-0.5-0.1-0.7c0-0.2,0-0.4-0.1-0.7c0-0.2,0-0.5-0.1-0.7
			c0-0.2,0-0.5-0.1-0.7c0-0.3,0-0.5-0.1-0.7H69.6z"/>
		<path class="st18" d="M69.5,14.1c0,0.2-0.1,0.3-0.3,0.3s-0.3-0.1-0.3-0.3c0-0.2,0.1-0.3,0.3-0.3S69.5,13.9,69.5,14.1z"/>
		<path class="st17" d="M67.4,24.7c0,0.1,0,0.2-0.1,0.2c-0.1,0.1-0.1,0.1-0.2,0.1h-0.4c0-0.2,0-0.4,0-0.7c0,0,0,0,0,0H67
			C67.2,24.4,67.4,24.5,67.4,24.7z"/>
		<path class="st17" d="M67.4,23.4c0,0.1,0,0.2-0.1,0.2c-0.1,0.1-0.1,0.1-0.2,0.1h-0.5c0-0.2,0-0.4-0.1-0.7H67
			C67.2,23,67.4,23.2,67.4,23.4z"/>
		<path class="st17" d="M67.4,22c0,0.1,0,0.2-0.1,0.2c-0.1,0.1-0.1,0.1-0.2,0.1h-0.6c0-0.2,0-0.5-0.1-0.7H67
			C67.2,21.6,67.4,21.8,67.4,22z"/>
		<path class="st17" d="M67.4,20.6c0,0.1,0,0.2-0.1,0.2C67.2,20.9,67.1,21,67,21h-0.7c0-0.2,0-0.5-0.1-0.7H67
			C67.2,20.3,67.4,20.4,67.4,20.6z"/>
		<path class="st17" d="M67.4,19.3c0,0.1,0,0.2-0.1,0.2c-0.1,0.1-0.1,0.1-0.2,0.1h-0.8c0-0.2,0-0.5-0.1-0.7H67
			C67.2,18.9,67.4,19.1,67.4,19.3z"/>
		<path class="st17" d="M67.4,17.9c0,0.1,0,0.2-0.1,0.2c-0.1,0.1-0.1,0.1-0.2,0.1h-0.9c0-0.2,0-0.5-0.1-0.7h1
			C67.2,17.6,67.4,17.7,67.4,17.9z"/>
		<path class="st17" d="M67.4,16.6c0,0.1,0,0.2-0.1,0.2c-0.1,0.1-0.1,0.1-0.2,0.1H66c0-0.3,0-0.5-0.1-0.7h1.3
			C67.3,16.3,67.4,16.4,67.4,16.6z"/>
		<g>
			<path class="st19" d="M66.2,21.4c-0.6,0-1.3-0.1-1.9-0.4c-0.2-0.1-0.3-0.4-0.2-0.6c0.1-0.2,0.4-0.3,0.6-0.2
				c0.9,0.4,1.9,0.5,2.8,0.1c0.9-0.3,1.7-1,2.1-1.9c0.1-0.2,0.4-0.3,0.6-0.2c0.2,0.1,0.3,0.4,0.2,0.6C69.5,20.4,67.9,21.4,66.2,21.4
				z"/>
		</g>
		<path class="st13" d="M92.8,17v13.8c0,0.3-0.3,0.6-0.6,0.6H90c-0.2,0-0.3-0.3-0.2-0.4l0.4-0.4V17c0-0.3,0.3-0.6,0.6-0.6h1.4
			C92.5,16.4,92.8,16.6,92.8,17z"/>
		<path class="st16" d="M90.8,31.3c0,0,0,0.1,0,0.1H90c0,0,0-0.1,0-0.1c0-0.2,0.2-0.4,0.4-0.4S90.8,31.1,90.8,31.3z"/>
		<path class="st16" d="M91.8,31.3c0,0,0,0.1,0,0.1H91c0,0,0-0.1,0-0.1c0-0.2,0.2-0.4,0.4-0.4C91.6,30.9,91.8,31.1,91.8,31.3z"/>
	</g>
</g>
</svg>
