<?xml version="1.0" encoding="utf-8"?>
<!-- Generator: Adobe Illustrator 22.0.1, SVG Export Plug-In . SVG Version: 6.00 Build 0)  -->
<svg version="1.1" id="Layer_1" xmlns="http://www.w3.org/2000/svg" xmlns:xlink="http://www.w3.org/1999/xlink" x="0px" y="0px"
	 viewBox="0 0 400 400" style="enable-background:new 0 0 400 400;" xml:space="preserve">
<style type="text/css">
	.st0{fill:#FFFFFF;stroke:#FFFFFF;stroke-width:10.7198;stroke-linecap:round;stroke-linejoin:round;stroke-miterlimit:10;}
	.st1{fill:#1CA49D;}
	.st2{fill:#69941B;stroke:#69941B;stroke-width:0.6053;stroke-miterlimit:10;}
	.st3{fill:#B0941D;stroke:#B0941D;stroke-width:0.6053;stroke-miterlimit:10;}
	.st4{fill:#99360C;stroke:#99360C;stroke-width:0.6053;stroke-miterlimit:10;}
	.st5{fill:#8C0109;stroke:#8C0109;stroke-width:0.6053;stroke-miterlimit:10;}
	.st6{fill:#00CDC8;}
	.st7{fill:#A5D73C;}
	.st8{fill:#69941B;}
	.st9{fill:#FADC3C;}
	.st10{fill:#E7C42A;}
	.st11{fill:#F86A00;}
	.st12{fill:#C44412;}
	.st13{fill:#F24044;}
	.st14{fill:#B3040F;}
</style>
<g>
	<path class="st0" d="M309.9,220.3c-0.1-0.3-0.4-0.5-0.6-0.6c-0.6-0.2-1.2,0.1-1.4,0.7l-7.8,21.9c-0.1,0.3-0.1,0.6,0,0.9
		c0.1,0.3,0.4,0.5,0.6,0.6c0.1,0,0.3,0.1,0.4,0.1c0.1,0,0.2,0,0.2,0c0.4-0.1,0.7-0.4,0.8-0.7l7.8-21.9
		C310,220.9,310,220.6,309.9,220.3z"/>
	<path class="st0" d="M293.8,244.3l-19.3-13c-0.2-0.2-0.5-0.2-0.8-0.2c-0.3,0.1-0.5,0.2-0.7,0.5c-0.3,0.5-0.2,1.2,0.3,1.6l19.3,13
		c0.2,0.1,0.4,0.2,0.6,0.2c0.1,0,0.2,0,0.2,0c0.3-0.1,0.5-0.2,0.7-0.5C294.5,245.4,294.3,244.7,293.8,244.3z"/>
	<path class="st0" d="M110.5,279.2l-19.3,13c-0.2,0.2-0.4,0.4-0.5,0.7c-0.1,0.3,0,0.6,0.2,0.8c0.1,0.2,0.3,0.3,0.5,0.4
		c0.1,0.1,0.3,0.1,0.4,0.1c0.2,0,0.4-0.1,0.6-0.2l19.3-13c0.2-0.2,0.4-0.4,0.5-0.7c0.1-0.3,0-0.6-0.2-0.8
		C111.7,279,111,278.9,110.5,279.2z M111.6,279.8L111.6,279.8L111.6,279.8L111.6,279.8z"/>
	<path class="st0" d="M77.2,268.4c-0.2-0.6-0.9-0.9-1.4-0.7c-0.6,0.2-0.9,0.9-0.7,1.4l7.9,21.9c0.1,0.3,0.3,0.5,0.6,0.6h0
		c0.1,0.1,0.3,0.1,0.4,0.1c0.1,0,0.3,0,0.4-0.1c0.6-0.2,0.9-0.9,0.7-1.4L77.2,268.4z M83.7,291.2L83.7,291.2L83.7,291.2L83.7,291.2z
		"/>
	<path class="st0" d="M152.5,89.5c-0.2-0.3-0.4-0.4-0.7-0.5c-0.3-0.1-0.6,0-0.8,0.1c-0.2,0.1-0.3,0.3-0.4,0.5
		c-0.2,0.3-0.2,0.7,0.1,1.1l12.1,19.8c0.2,0.3,0.4,0.4,0.7,0.5c0.1,0,0.2,0,0.3,0c0.2,0,0.4-0.1,0.6-0.2c0.5-0.3,0.7-1,0.4-1.5
		L152.5,89.5z"/>
	<path class="st0" d="M176.4,74.4l-22.2,6.8c-0.3,0.1-0.5,0.3-0.7,0.6l0,0c-0.1,0.3-0.1,0.6-0.1,0.8c0.1,0.5,0.6,0.8,1.1,0.8
		c0.1,0,0.2,0,0.3,0l22.2-6.8c0.3-0.1,0.5-0.3,0.7-0.5c0.1-0.3,0.2-0.6,0.1-0.9C177.6,74.6,177,74.2,176.4,74.4z M154,82.1L154,82.1
		L154,82.1L154,82.1z"/>
	<path class="st0" d="M308.4,286.5c0.9,0.2,1.8-0.4,2-1.3c0.1-0.4,0-0.8-0.2-1.2c0.1,0,0.1-0.1,0.2-0.1l17.2-16.3l22,12.4
		c0.4,0.2,0.9,0.3,1.4,0.1c0.4-0.1,0.7-0.4,0.9-0.8c0.2-0.4,0.3-0.9,0.2-1.3c-0.1-0.4-0.4-0.8-0.8-1L327,263.4l-19,18
		c-0.4,0.4-0.6,0.9-0.5,1.5l-24.1-4.9L270,302.3c-0.2,0.4-0.3,0.9-0.1,1.3c0.1,0.4,0.4,0.8,0.8,1c0.3,0.1,0.5,0.2,0.8,0.2
		c0.1,0,0.3,0,0.4,0l0,0c0.5-0.1,0.9-0.4,1.1-0.8l12.1-22.2L308.4,286.5z"/>
	<path class="st0" d="M304.5,273c0.7,0.1,1.4-0.2,1.7-0.7c0.2,0.1,0.4,0.1,0.7,0.1c0.4,0,0.8-0.2,1.2-0.5l17.2-16.3l22,12.4
		c0.4,0.2,0.9,0.3,1.4,0.1c0.4-0.1,0.7-0.4,0.9-0.8c0.5-0.8,0.2-1.9-0.7-2.3l-24.2-13.6l-19,18c-0.1,0.1-0.2,0.2-0.2,0.3
		c-0.1,0-0.2-0.1-0.3-0.1l-25.7-5.2l-13.3,24.4c-0.5,0.8-0.1,1.9,0.7,2.3c0.3,0.1,0.5,0.2,0.8,0.2c0.1,0,0.3,0,0.4,0l0,0
		c0.5-0.1,0.9-0.4,1.1-0.8l12.1-22.2L304.5,273z"/>
	<path class="st0" d="M354.9,289.8l-24.2-13.6l-19,18c-0.4,0.4-0.6,0.9-0.5,1.5l-24.1-4.9l-13.3,24.4c-0.5,0.8-0.1,1.9,0.7,2.3
		c0.3,0.1,0.5,0.2,0.8,0.2c0.1,0,0.3,0,0.4,0c0.5-0.1,0.9-0.4,1.1-0.8l12.1-22.2l23.2,4.7c0.9,0.2,1.8-0.4,2-1.3
		c0.1-0.4,0-0.8-0.2-1.2c0.1,0,0.1-0.1,0.2-0.1l17.2-16.3l22,12.4c0.4,0.2,0.9,0.3,1.4,0.1h0c0.4-0.1,0.7-0.4,0.9-0.8
		C356,291.3,355.8,290.3,354.9,289.8z"/>
	<path class="st0" d="M74.5,330.4l-0.3-0.3l-1.1-1.2l-2.3-2.5l-4.5-4.9l-9.1-9.8l-0.1-0.2l-0.2,0.1L43.4,318l-6.8,3.2l-3.4,1.6
		l-0.9,0.4c-0.3,0.1-0.6,0.3-0.7,0.6c-0.3,0.6,0,1.4,0.6,1.7c0.3,0.1,0.6,0.1,0.9,0.1c0.3-0.1,0.5-0.2,0.8-0.3l1.5-0.7l3-1.4
		l6.1-2.7l6.1-2.7l5.7-2.6c2.9,3.2,5.8,6.4,8.7,9.6l4.5,4.9l2.3,2.5l0.3,0.3c0.1,0.1,0.2,0.2,0.3,0.3c0.3,0.2,0.7,0.4,1.1,0.4
		c0.8,0,1.5-0.7,1.5-1.5c0-0.4-0.1-0.8-0.3-1.1C74.7,330.6,74.6,330.5,74.5,330.4z"/>
	<path class="st0" d="M72,346l-0.3-0.3l-1.1-1.2l-2.3-2.5l-4.5-4.9l-9.1-9.8l-0.1-0.2l-0.2,0.1l-13.6,6.5l-6.8,3.2l-3.4,1.6
		l-0.9,0.4c-0.3,0.1-0.6,0.3-0.7,0.6c-0.3,0.6,0,1.4,0.6,1.6c0.3,0.1,0.6,0.1,0.9,0.1c0.3-0.1,0.5-0.2,0.8-0.3l1.5-0.7l3-1.4
		l6.1-2.7l6.1-2.7l5.7-2.6c2.9,3.2,5.8,6.4,8.7,9.6l4.5,4.9l2.3,2.5l0.3,0.3c0.1,0.1,0.2,0.2,0.3,0.3c0.3,0.2,0.7,0.4,1.1,0.4
		c0.8,0,1.5-0.7,1.5-1.5c0-0.4-0.1-0.8-0.3-1.1C72.2,346.2,72.1,346.1,72,346z"/>
	<path class="st0" d="M78.9,317.3l-0.3-0.3l-1.1-1.2l-2.3-2.5l-4.5-4.9l-9.1-9.8l-0.1-0.2l-0.2,0.1l-13.6,6.5l-6.8,3.2l-3.4,1.6
		l-0.9,0.4c-0.3,0.1-0.6,0.3-0.7,0.6c-0.3,0.6,0,1.4,0.6,1.6c0.3,0.1,0.6,0.1,0.9,0.1c0.3-0.1,0.5-0.2,0.8-0.3l1.5-0.7l3-1.4
		l6.1-2.7l6.1-2.7l5.7-2.6c2.9,3.2,5.8,6.4,8.7,9.6l4.5,4.9l2.3,2.5l0.3,0.3c0.1,0.1,0.2,0.2,0.3,0.3c0.3,0.2,0.7,0.4,1.1,0.4
		c0.8,0,1.5-0.7,1.5-1.5c0-0.4-0.1-0.8-0.3-1.1C79.1,317.4,79,317.4,78.9,317.3z"/>
	<path class="st0" d="M120.2,352l-1.6-3.4l-3-6.9l-6.1-13.7l-0.1-0.2l-0.2,0L96,329.4l-6.6,0.8l-3.3,0.4l-1.7,0.2l-0.4,0
		c-0.1,0-0.3,0-0.5,0.1c-0.4,0.1-0.7,0.3-0.9,0.6c-0.5,0.6-0.4,1.6,0.2,2.1c0.3,0.3,0.7,0.4,1.1,0.4c0.2,0,0.3,0,0.5,0l0.4,0
		l3.3-0.4l6.6-0.8c4.3-0.5,8.6-1.1,12.9-1.6l2.7,5.7l2.9,6l2.9,6l1.4,3l0.7,1.5c0.1,0.3,0.2,0.5,0.4,0.8c0.2,0.2,0.4,0.4,0.7,0.5
		c0.6,0.2,1.4-0.2,1.5-0.9c0.1-0.3,0-0.7-0.1-0.9L120.2,352z"/>
	<path class="st0" d="M113.8,363.8l-1.6-3.4l-3-6.9l-6.1-13.7l-0.1-0.2l-0.2,0l-13.3,1.6l-6.6,0.8l-3.3,0.4l-1.7,0.2l-0.4,0
		c-0.1,0-0.3,0-0.5,0.1c-0.4,0.1-0.7,0.3-0.9,0.6c-0.5,0.6-0.4,1.6,0.2,2.1c0.3,0.3,0.7,0.4,1.1,0.4c0.2,0,0.3,0,0.5,0l0.4,0
		l3.3-0.4l6.6-0.8c4.3-0.5,8.6-1.1,12.9-1.6l2.7,5.7l2.9,6l2.9,6l1.4,3l0.7,1.5c0.1,0.3,0.2,0.5,0.4,0.8c0.2,0.2,0.4,0.4,0.7,0.5
		c0.6,0.2,1.4-0.2,1.5-0.9c0.1-0.3,0-0.7-0.1-0.9L113.8,363.8z"/>
	<path class="st0" d="M125.1,338.9l-1.6-3.4l-3-6.9l-6.1-13.7l-0.1-0.2l-0.2,0l-13.3,1.6l-6.6,0.8l-3.3,0.4l-1.7,0.2l-0.4,0
		c-0.1,0-0.3,0-0.5,0.1c-0.4,0.1-0.7,0.3-0.9,0.6c-0.5,0.6-0.4,1.6,0.2,2.1c0.3,0.3,0.7,0.4,1.1,0.4c0.2,0,0.3,0,0.5,0l0.4,0
		l3.3-0.4l6.6-0.8c4.3-0.5,8.6-1.1,12.9-1.6l2.7,5.7l2.9,6l2.9,6l1.4,3l0.7,1.5c0.1,0.3,0.2,0.5,0.4,0.8c0.2,0.2,0.4,0.4,0.7,0.5
		c0.6,0.2,1.4-0.2,1.5-0.9c0.1-0.3,0-0.7-0.1-0.9L125.1,338.9z"/>
	<path class="st0" d="M122.3,30.2l0.6,1.5l1.2,3.1l2.4,6.2l2.4,6.2l2.3,5.8c-3.4,2.7-6.7,5.5-10,8.3l-5.1,4.3l-2.6,2.2l-0.3,0.3
		c-0.1,0.1-0.2,0.2-0.4,0.3c-0.3,0.3-0.4,0.7-0.4,1.1c0,0.2,0,0.4,0.1,0.5c-0.2,0.1-0.3,0.2-0.5,0.3c-0.3,0.3-0.5,0.6-0.5,1
		c0,0.2,0,0.3,0,0.5l0,0.4l0.2,3.3l0.5,6.7c0.3,4.3,0.6,8.6,1,13l-5.8,2.4l-6.1,2.6l-6.1,2.6l-3.1,1.3l-1.5,0.6
		c-0.3,0.1-0.5,0.2-0.8,0.3c-0.3,0.1-0.5,0.4-0.5,0.7c-0.2,0.6,0.1,1.4,0.8,1.6c0.3,0.1,0.7,0,0.9-0.1l0.9-0.3l3.5-1.4l7-2.7l14-5.4
		l0.2-0.1l0-0.2l-0.9-13.3l-0.5-6.7l-0.2-3.3l-0.1-1.7l0-0.4c0-0.1,0-0.3,0-0.5c0-0.1,0-0.2-0.1-0.2c0.1,0,0.1-0.1,0.2-0.1
		c0.2-0.1,0.3-0.2,0.4-0.3l0.3-0.3l1.3-1.1l2.6-2.1l5.1-4.3l10.3-8.6L135,54l-0.1-0.2L129.1,40l-2.9-6.9l-1.4-3.5l-0.4-0.9
		c-0.1-0.3-0.3-0.6-0.6-0.7c-0.6-0.3-1.4-0.1-1.7,0.5c-0.1,0.3-0.2,0.6-0.1,0.9C122.1,29.7,122.2,29.9,122.3,30.2z"/>
	<path class="st0" d="M135.2,35.6l0.6,1.5l1.2,3.1l2.4,6.2l2.4,6.2l2.3,5.8c-3.4,2.7-6.7,5.5-10,8.3l-5.1,4.3l-2.6,2.2l-0.3,0.3
		c-0.1,0.1-0.2,0.2-0.4,0.3c-0.3,0.3-0.4,0.7-0.4,1.1c0,0.2,0,0.4,0.1,0.5c-0.2,0.1-0.3,0.2-0.5,0.3c-0.3,0.3-0.5,0.6-0.5,1
		c0,0.2,0,0.3,0,0.5l0,0.4l0.2,3.3l0.5,6.7c0.3,4.3,0.6,8.6,1,13l-5.8,2.4l-6.1,2.6l-6.1,2.6l-3.1,1.3l-1.5,0.6
		c-0.3,0.1-0.5,0.2-0.8,0.3c-0.3,0.1-0.5,0.4-0.5,0.7c-0.2,0.6,0.1,1.4,0.8,1.6c0.3,0.1,0.7,0,0.9-0.1l0.9-0.3l3.5-1.4l7-2.7l14-5.4
		l0.2-0.1l0-0.2l-0.9-13.3l-0.5-6.7l-0.2-3.3l-0.1-1.7l0-0.4c0-0.1,0-0.3,0-0.5c0-0.1,0-0.2-0.1-0.2c0.1,0,0.1-0.1,0.2-0.1
		c0.2-0.1,0.3-0.2,0.4-0.3l0.3-0.3l1.3-1.1l2.6-2.1l5.1-4.3l10.3-8.6l0.2-0.1l-0.1-0.2l-5.8-13.8l-2.9-6.9l-1.4-3.5l-0.4-0.9
		c-0.1-0.3-0.3-0.6-0.6-0.7c-0.6-0.3-1.4-0.1-1.7,0.5c-0.1,0.3-0.2,0.6-0.1,0.9C135,35.1,135.1,35.4,135.2,35.6z"/>
	<path class="st0" d="M90.1,97.5l14-5.4l0.2-0.1l0-0.2l-0.9-13.3l-0.5-6.7l-0.2-3.3l-0.1-1.7l0-0.4c0-0.1,0-0.3,0-0.5
		c0-0.1,0-0.2-0.1-0.2c0.1,0,0.1-0.1,0.2-0.1c0.2-0.1,0.3-0.2,0.4-0.3l0.3-0.3l1.3-1.1l2.6-2.1l5.1-4.3l10.3-8.6l0.2-0.1l-0.1-0.2
		l-5.8-13.8l-2.9-6.9l-1.4-3.5l-0.4-0.9c-0.1-0.3-0.3-0.6-0.6-0.7c-0.6-0.3-1.4-0.1-1.7,0.5c-0.1,0.3-0.2,0.6-0.1,0.9
		c0.1,0.3,0.2,0.5,0.3,0.8l0.6,1.5l1.2,3.1l2.4,6.2l2.4,6.2l2.3,5.8c-3.4,2.7-6.7,5.5-10,8.3l-5.1,4.3l-2.6,2.2l-0.3,0.3
		c-0.1,0.1-0.2,0.2-0.4,0.3c-0.3,0.3-0.4,0.7-0.4,1.1c0,0.2,0,0.4,0.1,0.5c-0.2,0.1-0.3,0.2-0.5,0.3c-0.3,0.3-0.5,0.6-0.5,1
		c0,0.2,0,0.3,0,0.5l0,0.4l0.2,3.3l0.5,6.7c0.3,4.3,0.6,8.6,1,13l-5.8,2.4L89.1,95l-6.1,2.6l-3.1,1.3l-1.5,0.6
		c-0.3,0.1-0.5,0.2-0.8,0.3c-0.3,0.1-0.5,0.4-0.5,0.7c-0.2,0.6,0.1,1.4,0.8,1.6c0.3,0.1,0.7,0,0.9-0.1l0.9-0.3l3.5-1.4L90.1,97.5z"
		/>
	<path class="st0" d="M212.7,243.5c-12.4-5.8-26.4-6.5-39.2-1.8c-0.2,0.1-0.4,0.1-0.5,0.2c-0.3,0.2-0.6,0.4-0.8,0.7c0,0,0,0,0,0
		c-0.1,0.1-0.1,0.2-0.2,0.3c0,0.1-0.1,0.1-0.1,0.2c0,0,0,0,0,0c0,0,0,0,0,0c0,0.1-0.1,0.2-0.1,0.2c0,0.1-0.1,0.2-0.1,0.3
		c0,0,0,0.1,0,0.1c0,0.1,0,0.2-0.1,0.3c0,0,0,0,0,0c0,0.1,0,0.1,0,0.2c0,0.1,0,0.2,0,0.3c0,0,0,0.1,0,0.1c1.7,12.1-1.3,24.2-8.7,34
		c-7.3,9.8-18.1,16.2-30.2,18c-1.5,0.2-2.5,1.6-2.3,3.1c0,0.2,0.1,0.5,0.2,0.7c0.4,1,1.4,1.6,2.5,1.6c0.1,0,0.3,0,0.4,0
		c13.6-2,25.5-9.1,33.8-20.1c6.3-8.5,9.8-18.5,10.2-28.9c4.7,7.8,7,16.8,6.6,26.1c-0.6,12.2-6,23.5-15.1,31.7
		c-0.9,0.8-1.1,2-0.7,3.1c0.1,0.3,0.3,0.5,0.5,0.7c0.5,0.5,1.2,0.9,1.9,0.9c0,0,0.1,0,0.1,0c0.7,0,1.3-0.2,1.8-0.7
		c10.2-9.2,16.2-21.8,16.8-35.5c0.5-10.6-2.1-20.8-7.6-29.6c8.3,3.8,15.2,10,20,18c6.3,10.5,8.2,22.8,5.2,34.7
		c-0.2,0.7-0.1,1.4,0.3,2.1c0.4,0.6,1,1.1,1.7,1.2c0.2,0.1,0.4,0.1,0.7,0.1c1.2,0,2.3-0.8,2.6-2.1c3.3-13.3,1.3-27.1-5.8-38.9
		c-5.5-9.1-13.4-16.1-22.9-20.3c9-1.4,18.2-0.2,26.6,3.8c11.1,5.2,19.5,14.4,23.7,26c0.4,1.1,1.5,1.8,2.6,1.8c0.3,0,0.6-0.1,0.9-0.2
		c0.7-0.2,1.2-0.7,1.5-1.4c0.3-0.7,0.3-1.4,0.1-2.1C234.5,259.6,225.1,249.3,212.7,243.5z"/>
	<path class="st0" d="M146.8,133.7c-0.4,0.6-0.6,1.3-0.5,2c0.1,0.7,0.5,1.4,1.1,1.8c9.9,7.2,16.4,17.9,18.2,30
		c1.4,9.2,0,18.4-3.9,26.6c-1.4-10.3-5.9-19.8-13.1-27.6c-9.3-10.1-22-16-35.6-16.5c-0.7,0-1.4,0.2-2,0.7c-0.5,0.5-0.8,1.2-0.9,1.9
		c0,0.4,0.1,0.8,0.2,1.2l0,0c0.4,1,1.4,1.6,2.4,1.6c22.3,0.9,40.3,17.7,43.5,39c-16.2-18.1-43.6-22.6-65.1-9.5
		c-1.1,0.7-1.6,2.2-1.1,3.4c0.1,0.1,0.1,0.2,0.2,0.3c0.8,1.3,2.5,1.7,3.7,0.9c21.6-13.2,49.9-6.5,63.1,15.1c0,0,0,0,0,0l0,0
		c0,0,0,0,0,0c0,0,0.1,0.1,0.1,0.1c0,0.1,0.1,0.1,0.1,0.2c0,0,0,0.1,0.1,0.1c0,0,0,0,0,0c0,0,0,0,0,0c0,0,0,0,0,0
		c0,0,0.1,0.1,0.1,0.1c0,0,0.1,0.1,0.1,0.1c0,0,0.1,0.1,0.1,0.1l0,0c0,0,0,0,0,0c0,0,0,0,0.1,0c0.1,0,0.1,0.1,0.2,0.1
		c0.1,0,0.1,0.1,0.2,0.1c0.1,0,0.1,0.1,0.2,0.1c0.1,0,0.1,0.1,0.2,0.1c0,0,0,0,0.1,0c0,0,0.1,0,0.1,0c0,0,0.1,0,0.1,0
		c0,0,0.1,0,0.1,0c0,0,0,0,0,0c0.1,0,0.2,0,0.2,0c0,0,0,0,0,0c0,0,0,0,0.1,0c0,0,0,0,0.1,0c0.1,0,0.2,0,0.3,0c0,0,0,0,0,0
		c0,0,0.1,0,0.1,0c0,0,0,0,0,0c0,0,0.1,0,0.1,0c0,0,0.1,0,0.1,0c0.1,0,0.1,0,0.2-0.1c0,0,0,0,0.1,0c0,0,0,0,0,0c0,0,0,0,0,0
		c0,0,0,0,0.1,0c0,0,0,0,0.1,0c0,0,0,0,0,0c12.8-4.7,23.1-14.1,28.9-26.4c5.8-12.4,6.5-26.4,1.8-39.3c-0.5-1.4-2.1-2.1-3.5-1.6
		c-0.7,0.2-1.2,0.7-1.5,1.4c-0.3,0.7-0.3,1.4-0.1,2.1c4.2,11.5,3.6,24-1.6,35.1c-3.9,8.4-10.2,15.3-18,19.9
		c4.6-9.3,6.2-19.8,4.5-30.3c-2.1-13.6-9.3-25.5-20.4-33.6c-0.6-0.4-1.3-0.6-2-0.5C147.9,132.7,147.3,133.1,146.8,133.7z"/>
	<path class="st0" d="M275.7,81.4c0.2-0.3,0.4-0.7,0.4-1.2c0,0,0-0.1,0-0.1c0,0,0-0.1,0-0.1c0,0,0,0,0,0c0,0,0,0,0,0
		c0-0.1,0-0.2,0-0.3c0-0.1,0-0.2,0-0.2c0,0,0-0.1,0-0.1c0-0.1,0-0.2-0.1-0.3c0,0,0,0,0,0c0-0.1,0-0.1-0.1-0.2c0-0.1-0.1-0.2-0.1-0.3
		c0,0,0-0.1,0-0.1c-6.3-10.1-8.2-22-5.6-33.6c2.7-11.6,9.7-21.4,19.8-27.7c1.2-0.8,1.6-2.4,0.8-3.6c-0.1-0.2-0.3-0.4-0.4-0.5
		c-0.9-0.8-2.2-0.9-3.2-0.3c-20.7,12.9-28.7,38.7-20,60.6c-7.2-5.1-12.8-12.2-16-20.6c-4.2-11.1-3.9-23.2,1-34.1
		c0.5-1,0.2-2.3-0.6-3l0,0c-0.2-0.2-0.5-0.4-0.7-0.5c-0.6-0.3-1.4-0.3-2-0.1c-0.7,0.3-1.2,0.7-1.5,1.4c-5.4,12.1-5.8,25.7-1.1,38.1
		c3.7,9.6,10,17.7,18.4,23.3c-8.8-0.2-17.4-3-24.8-8.2c-9.7-6.9-16.2-17.1-18.2-28.8c-0.1-0.7-0.5-1.3-1.1-1.7
		c-0.6-0.4-1.3-0.6-2-0.4c-0.7,0.1-1.3,0.5-1.7,1.1s-0.6,1.3-0.4,2c2.2,13.1,9.5,24.6,20.3,32.3c8.4,5.9,18.2,9.1,28.2,9.2
		c-7.4,4.8-16.1,7.2-25.1,7c-11.9-0.3-22.9-5.2-31.2-13.8c-1-1-2.7-1-3.7-0.1c-0.5,0.5-0.8,1.1-0.8,1.8c0,0.7,0.2,1.4,0.7,1.9
		c9.1,9.6,21.5,15.1,34.8,15.4c0.4,0,0.9,0,1.3,0c12.8,0,25-4.8,34.3-13.7C275.5,81.6,275.6,81.5,275.7,81.4z"/>
	<path class="st0" d="M370.5,100.1c0.7-1.1,0.6-2.6-0.4-3.4l0,0c-0.1-0.1-0.2-0.2-0.3-0.2c-1.2-0.8-2.8-0.5-3.7,0.7
		c-14,20.2-41.8,25.2-61.9,11.2c0,0,0,0,0,0c0,0,0,0,0,0c0,0,0,0-0.1,0c0,0,0,0,0,0c0,0-0.1,0-0.1-0.1c-0.1,0-0.1-0.1-0.2-0.1
		c0,0,0,0-0.1,0c0,0,0,0-0.1,0c0,0,0,0-0.1,0c-0.1,0-0.2-0.1-0.4-0.1c0,0,0,0,0,0c0,0,0,0,0,0c0,0,0,0-0.1,0c-0.1,0-0.1,0-0.2,0
		c-0.1,0-0.2,0-0.3,0c0,0-0.1,0-0.1,0c-0.1,0-0.2,0-0.4,0c-0.1,0-0.2,0.1-0.3,0.1c-0.4,0.1-0.7,0.3-1,0.6c0,0,0,0-0.1,0c0,0,0,0,0,0
		c-9.6,9.2-15.1,21.5-15.4,34.8c-0.3,13.3,4.5,25.9,13.7,35.6c0.5,0.5,1.2,0.8,1.9,0.8c0.7,0,1.3-0.2,1.8-0.7
		c0.5-0.5,0.8-1.1,0.8-1.8c0-0.7-0.2-1.4-0.7-1.9c-8.2-8.6-12.6-19.9-12.3-31.8c0.2-9,3.1-17.6,8.3-24.8c-0.4,10.1,2.2,20,7.7,28.7
		c7.1,11.2,18.2,19,31.2,21.9c0.2,0,0.4,0.1,0.6,0.1c0.5,0,1-0.1,1.4-0.4c0.6-0.4,1-1,1.2-1.7c0.2-0.7,0-1.4-0.4-2
		c-0.4-0.6-1-1-1.7-1.2c-11.6-2.6-21.5-9.5-27.9-19.6c-4.9-7.6-7.2-16.3-6.9-25.2c5.3,8.6,13,15.3,22.4,19.5
		c6.4,2.8,13.2,4.2,20,4.2c6.1,0,12.2-1.1,18.1-3.4c0.7-0.3,1.2-0.8,1.5-1.4c0.3-0.6,0.3-1.4,0-2c-0.1-0.4-0.4-0.7-0.7-1
		c-0.7-0.7-1.8-0.9-2.8-0.5c-20.2,7.9-42.7,0-53.8-17.7c6.6,3,13.6,4.4,20.5,4.4C345.3,121.5,360.9,114,370.5,100.1z"/>
	<path class="st0" d="M288.3,228.2c-1.3,1.9-1.8,3.7-1.1,6.3c0.5,2,1.7,4.5,4.1,4.8c0,0,0,0,0,0c0.8,0.1,1.6-0.5,1.1-1.5
		c-0.1-0.3-0.3-0.7-0.4-1c0.3-0.8,0.6-1.6,1-2.4c0.2-0.6-0.1-1.2-0.7-1.6c0,0,0-0.1,0-0.1c0.1-0.6-0.6-1.6-1.4-1.5
		c-0.1,0-0.3,0-0.4,0c-0.2-0.8-0.3-1.6-0.6-2.4C289.8,228,288.7,227.7,288.3,228.2z"/>
	<path class="st0" d="M294.5,227c0.1,0.8,0.3,1.6,0.6,2.4c-0.1,0-0.2,0.1-0.4,0.1c-0.7,0.3-0.9,1.4-0.6,2c0,0,0.1,0.1,0.1,0.1
		c-0.3,0.5-0.4,1.3,0.1,1.7c0.7,0.6,1.3,1.2,2,1.7c0,0.4,0,0.7,0.1,1.1c0.1,1.1,1,1.3,1.7,0.8c0,0,0,0,0,0c2-1.3,1.9-4.1,1.5-6.1
		c-0.5-2.6-1.8-4-3.8-5.1C295.2,225.5,294.4,226.3,294.5,227z"/>
	<path class="st0" d="M292.7,236.4c-8.1,2.7-12.4,11.4-9.8,19.4c2,6.1,7.4,10,13.4,10.5c-4.5,3.9-6.5,10.4-4.5,16.4
		c2,6,7.4,10,13.3,10.5c-6.8,5.6-9.5,16.4-6,27c4.3,13,16.4,20.8,27,17.3c10.6-3.5,15.7-16.9,11.4-29.9
		c-3.5-10.6-12.1-17.7-20.9-18.1c4.5-3.9,6.4-10.3,4.4-16.4c-2-6.1-7.4-10-13.4-10.5c4.5-3.9,6.5-10.4,4.5-16.4
		C309.5,238.1,300.8,233.7,292.7,236.4z"/>
	<path class="st0" d="M290.5,247.6c-0.8,0.9,0.6,2,1.3,1.2C292.6,247.9,291.2,246.8,290.5,247.6z"/>
	<path class="st0" d="M299.1,245.1c-1.2,1.4,1,3.3,2.2,1.9C302.5,245.6,300.3,243.7,299.1,245.1z"/>
	<path class="st0" d="M90.1,274c-2.1,0.7-3.6,2-4.6,4.4c-0.7,1.9-1.3,4.6,0.5,6.3c0,0,0,0,0,0c0.6,0.5,1.6,0.5,1.8-0.6
		c0.1-0.4,0.2-0.7,0.2-1.1c0.7-0.5,1.5-0.9,2.2-1.4c0.6-0.3,0.6-1.1,0.4-1.7c0,0,0.1-0.1,0.1-0.1c0.4-0.5,0.4-1.6-0.2-2
		c-0.1-0.1-0.2-0.1-0.3-0.2c0.3-0.7,0.7-1.5,1-2.3C91.5,274.7,90.7,273.8,90.1,274z"/>
	<path class="st0" d="M95.9,276.6c-0.4,0.8-0.7,1.5-1,2.3c-0.1,0-0.2-0.1-0.4-0.1c-0.7-0.2-1.6,0.6-1.6,1.3c0,0.1,0,0.1,0,0.1
		c-0.6,0.2-1.1,0.8-0.9,1.4c0.2,0.9,0.4,1.7,0.6,2.6c-0.2,0.3-0.4,0.6-0.6,0.9c-0.6,0.9,0.1,1.6,0.9,1.7c0,0,0,0,0,0
		c2.4,0.1,4-2.2,4.8-4c1.1-2.4,0.9-4.3-0.1-6.4C97.3,275.9,96.2,276,95.9,276.6z"/>
	<path class="st0" d="M88.9,283.2c-8.1-2.6-16.8,1.8-19.4,9.9c-2,6.1,0,12.5,4.6,16.4c-6,0.5-11.4,4.5-13.3,10.6
		c-2,6,0,12.4,4.5,16.3c-8.8,0.5-17.4,7.6-20.8,18.2c-4.3,13.1,0.9,26.5,11.5,29.9c10.6,3.5,22.6-4.3,26.9-17.4
		c3.5-10.6,0.7-21.4-6.1-27c5.9-0.5,11.3-4.5,13.3-10.6c2-6.1,0-12.5-4.6-16.4c6-0.5,11.4-4.5,13.3-10.6
		C101.4,294.5,96.9,285.8,88.9,283.2z"/>
	<path class="st0" d="M80.4,290.9c-1.1,0.3-0.7,2,0.4,1.7C81.9,292.4,81.5,290.7,80.4,290.9z"/>
	<path class="st0" d="M88.8,294c-1.8,0.4-1.2,3.2,0.6,2.8C91.3,296.4,90.6,293.6,88.8,294z"/>
	<path class="st0" d="M170.8,89.3c-0.6-2.2-1.8-3.7-4.2-4.8c-1.9-0.8-4.6-1.5-6.3,0.2c0,0,0,0,0,0c-0.6,0.6-0.6,1.5,0.5,1.8
		c0.3,0.1,0.7,0.2,1,0.3c0.4,0.8,0.9,1.5,1.3,2.3c0.3,0.6,1,0.7,1.6,0.5c0,0,0.1,0.1,0.1,0.1c0.5,0.5,1.6,0.5,2-0.1
		c0.1-0.1,0.1-0.2,0.2-0.3c0.7,0.4,1.5,0.7,2.3,1.1C170.1,90.5,171,89.9,170.8,89.3z"/>
	<path class="st0" d="M167.9,94.8c-0.7-0.4-1.5-0.8-2.3-1.1c0-0.1,0.1-0.2,0.1-0.4c0.2-0.7-0.5-1.6-1.2-1.7c-0.1,0-0.1,0-0.1,0
		c-0.2-0.6-0.8-1.1-1.4-1c-0.9,0.2-1.7,0.3-2.6,0.4c-0.3-0.2-0.6-0.4-0.9-0.6c-0.9-0.6-1.6,0-1.7,0.8c0,0,0,0,0,0
		c-0.2,2.4,2,4.1,3.8,5c2.4,1.2,4.3,1.1,6.4,0.2C168.6,96.4,168.5,95.2,167.9,94.8z"/>
	<path class="st0" d="M161.7,87.6c3-7.9-1-16.8-8.9-19.8c-6-2.3-12.5-0.6-16.6,3.8c-0.2-6-4-11.6-9.9-13.8
		c-5.9-2.3-12.4-0.6-16.5,3.7c-0.1-8.8-6.8-17.7-17.2-21.6c-12.8-4.9-26.5-0.4-30.4,10.1c-3.9,10.4,3.3,22.8,16.1,27.7
		c10.4,3.9,21.4,1.7,27.2-4.8c0.2,6,4,11.5,9.9,13.7c6,2.3,12.5,0.6,16.6-3.8c0.2,6,4,11.6,9.9,13.8
		C149.8,99.5,158.7,95.5,161.7,87.6z"/>
	<path class="st0" d="M154.4,78.7c-0.2-1.1-2-0.8-1.8,0.3C152.8,80.2,154.6,79.9,154.4,78.7z"/>
	<path class="st0" d="M150.9,87c-0.3-1.8-3.2-1.3-2.9,0.5C148.4,89.3,151.2,88.8,150.9,87z"/>
	<path class="st0" d="M219.4,213c3.9,3.6,12.1,4.9,15.3-0.4c0.3-0.6-0.3-1.3-0.9-1.1c-4.1,1.2-8.2,2-11.6-1.3
		C220.3,208.4,217.6,211.3,219.4,213z"/>
	<path class="st0" d="M221.8,202.5c0.9-0.3,1.3-0.8,2.1-1.4c0.8-0.5,1.6-0.8,2.5-1c1.9-0.5,3.6-0.2,5.4,0.2c0.4,0.1,0.8-0.4,0.5-0.7
		c-1.2-2.1-3.8-3-6.2-2.9c-2.2,0.1-5.8,1.5-6.3,4C219.6,201.7,220.6,202.9,221.8,202.5z"/>
	<path class="st0" d="M188.7,202.4c-9.9-12-26.6-17.1-42-11.5c-19.6,7.1-29.8,28.8-22.7,48.4c7.1,19.6,28.8,29.8,48.4,22.7
		c15.5-5.6,25-20.2,24.9-35.8c4.3,2.1,9.3,2.5,14.1,0.8c9.4-3.4,14.3-13.8,10.9-23.3c-3.4-9.4-13.8-14.3-23.3-10.9
		C194.3,194.5,190.7,198,188.7,202.4z"/>
	<path class="st0" d="M209.6,216.1l0.2,0.1c1.4,0.5,2.7-1.1,2.3-2.4c-0.4-1.3-2.3-2-3.2-0.8l-0.1,0.2
		C207.4,213.9,208,216.1,209.6,216.1z"/>
	<path class="st0" d="M205.8,201.4c1.7-0.5,1-3.1-0.8-2.7C203.4,199.2,204.1,201.9,205.8,201.4z"/>
	<path class="st0" d="M249.2,122c-4.9-1.7-12.7,0.4-13.4,6.3c-0.1,0.7,0.7,1.1,1.2,0.7c3.2-2.7,6.5-5,10.8-3.4
		C250.2,126.4,251.5,122.8,249.2,122z"/>
	<path class="st0" d="M251.2,132.2c-0.7,0.6-0.8,1.3-1.3,2s-1.1,1.3-1.8,1.9c-1.5,1.1-3.1,1.6-4.9,1.9c-0.4,0.1-0.5,0.6-0.2,0.9
		c1.9,1.4,4.5,1.2,6.6,0.2c2-0.9,4.6-3.6,4-6C253.4,132.1,252.1,131.4,251.2,132.2z"/>
	<path class="st0" d="M277.1,122.6c13.5,6.8,30.3,4.9,41.8-6.1c14.7-14,15.2-37.2,1.3-51.8c-14-14.7-37.2-15.2-51.8-1.3
		c-11.5,11-14.3,27.7-8.2,41.5c-4.6-0.2-9.3,1.4-12.8,4.8c-7.1,6.7-7.3,17.9-0.6,24.9c6.7,7.1,17.9,7.3,24.9,0.6
		C275.2,131.8,277.1,127.2,277.1,122.6z"/>
	<path class="st0" d="M267.1,83c-0.8-0.2-1,0.9-0.5,1.4c6.6,5.1,14.4,8.2,20.4,14.1c6.5,6.4,7.9,13.3,10.5,21.6
		c0.4,1.2,2.5,1.1,2.8-0.1C304.7,102.3,282,85.9,267.1,83z"/>
	<path class="st0" d="M275.9,72.6c-0.7-0.1-1,0.9-0.5,1.3c7.3,5.2,14.8,9.2,21,15.7c6.1,6.5,10.3,14.1,13.9,22.2
		c1.3,3,5.6,0.9,4.5-2C309.2,93.2,293.9,75.6,275.9,72.6z"/>
	<path class="st0" d="M287.3,62.7c-1-0.2-1.1,1.4-0.1,1.6c15.9,3.3,27.7,17.5,29.8,33.2c0.4,2.6,4.3,1.9,4-0.7
		C318.7,78.4,305.1,65.8,287.3,62.7z"/>
	<path class="st0" d="M256.7,115.4l-0.2,0c-1.5,0.1-2,2-1.1,3c0.8,1,2.8,0.9,3.2-0.5l0.1-0.2C259.5,116.5,258.1,114.8,256.7,115.4z"
		/>
	<path class="st0" d="M265.8,127c-1.3,1.1,0.4,3.2,1.7,2.1C268.8,128,267.1,125.9,265.8,127z"/>
	<circle class="st0" cx="161" cy="225.7" r="39"/>
	<g>
		<circle class="st0" cx="189.1" cy="216" r="4.2"/>
		<circle class="st0" cx="170.4" cy="222.5" r="4.2"/>
		<circle class="st0" cx="151.6" cy="229" r="4.2"/>
		<circle class="st0" cx="132.9" cy="235.4" r="4.2"/>
		<circle class="st0" cx="189.1" cy="216" r="4.2"/>
		<circle class="st0" cx="170.4" cy="222.5" r="4.2"/>
		<circle class="st0" cx="175.1" cy="205.9" r="4.2"/>
		<circle class="st0" cx="151.6" cy="229" r="4.2"/>
		<circle class="st0" cx="161.2" cy="195.8" r="4.2"/>
		<circle class="st0" cx="142.4" cy="202.3" r="4.2"/>
		<circle class="st0" cx="156.4" cy="212.4" r="4.2"/>
		<circle class="st0" cx="132.9" cy="235.4" r="4.2"/>
		<circle class="st0" cx="137.7" cy="218.9" r="4.2"/>
		<circle class="st0" cx="146.9" cy="245.5" r="4.2"/>
		<circle class="st0" cx="160.9" cy="255.6" r="4.2"/>
		<circle class="st0" cx="179.6" cy="249.1" r="4.2"/>
		<circle class="st0" cx="165.6" cy="239.1" r="4.2"/>
		<circle class="st0" cx="184.4" cy="232.6" r="4.2"/>
	</g>
</g>
<g>
	<g>
		<path class="st1" d="M301.1,242.9C301,242.9,301,242.9,301.1,242.9c-0.1,0-0.2-0.1-0.2-0.1c0-0.1,0-0.1,0-0.2l7.8-21.9
			c0-0.1,0.1-0.1,0.2-0.1c0.1,0,0.2,0.1,0.2,0.1c0,0.1,0,0.1,0,0.2l-7.8,21.9C301.2,242.8,301.2,242.9,301.1,242.9L301.1,242.9z"/>
		<path class="st1" d="M308.9,219.7c-0.5,0-0.9,0.3-1.1,0.7l-7.8,21.9c-0.1,0.3-0.1,0.6,0,0.9c0.1,0.3,0.4,0.5,0.6,0.6
			c0.1,0,0.3,0.1,0.4,0.1c0.1,0,0.2,0,0.2,0c0.4-0.1,0.7-0.4,0.8-0.7l7.8-21.9c0.1-0.3,0.1-0.6,0-0.9c-0.1-0.3-0.4-0.5-0.6-0.6
			C309.1,219.7,309,219.7,308.9,219.7L308.9,219.7z"/>
	</g>
	<g>
		<path class="st1" d="M293.2,245.5c0,0-0.1,0-0.1,0l-19.3-13c-0.1-0.1-0.1-0.2-0.1-0.3c0,0,0.1-0.1,0.1-0.1c0,0,0,0,0,0
			c0.1,0,0.1,0,0.1,0l19.3,13c0.1,0.1,0.1,0.2,0.1,0.3C293.4,245.4,293.3,245.5,293.2,245.5L293.2,245.5z"/>
		<path class="st1" d="M273.9,231.2c-0.1,0-0.1,0-0.2,0c-0.3,0.1-0.5,0.2-0.7,0.5c-0.3,0.5-0.2,1.2,0.3,1.6l19.3,13
			c0.2,0.1,0.4,0.2,0.6,0.2c0.1,0,0.2,0,0.2,0c0.3-0.1,0.5-0.2,0.7-0.5c0.3-0.5,0.2-1.2-0.3-1.6l-19.3-13
			C274.3,231.2,274.1,231.2,273.9,231.2L273.9,231.2z"/>
	</g>
	<path class="st2" d="M110.5,279.2l-19.3,13c-0.2,0.2-0.4,0.4-0.5,0.7c-0.1,0.3,0,0.6,0.2,0.8c0.1,0.2,0.3,0.3,0.5,0.4
		c0.1,0.1,0.3,0.1,0.4,0.1c0.2,0,0.4-0.1,0.6-0.2l19.3-13c0.2-0.2,0.4-0.4,0.5-0.7c0.1-0.3,0-0.6-0.2-0.8
		C111.7,279,111,278.9,110.5,279.2z M111.6,279.8L111.6,279.8L111.6,279.8L111.6,279.8z"/>
	<path class="st2" d="M77.2,268.4c-0.2-0.6-0.9-0.9-1.4-0.7c-0.6,0.2-0.9,0.9-0.7,1.4l7.9,21.9c0.1,0.3,0.3,0.5,0.6,0.6h0
		c0.1,0.1,0.3,0.1,0.4,0.1c0.1,0,0.3,0,0.4-0.1c0.6-0.2,0.9-0.9,0.7-1.4L77.2,268.4z M83.7,291.2L83.7,291.2L83.7,291.2L83.7,291.2z
		"/>
	<path class="st3" d="M152.5,89.5c-0.2-0.3-0.4-0.4-0.7-0.5c-0.3-0.1-0.6,0-0.8,0.1c-0.2,0.1-0.3,0.3-0.4,0.5
		c-0.2,0.3-0.2,0.7,0.1,1.1l12.1,19.8c0.2,0.3,0.4,0.4,0.7,0.5c0.1,0,0.2,0,0.3,0c0.2,0,0.4-0.1,0.6-0.2c0.5-0.3,0.7-1,0.4-1.5
		L152.5,89.5z"/>
	<path class="st3" d="M176.4,74.4l-22.2,6.8c-0.3,0.1-0.5,0.3-0.7,0.6l0,0c-0.1,0.3-0.1,0.6-0.1,0.8c0.1,0.5,0.6,0.8,1.1,0.8
		c0.1,0,0.2,0,0.3,0l22.2-6.8c0.3-0.1,0.5-0.3,0.7-0.5c0.1-0.3,0.2-0.6,0.1-0.9C177.6,74.6,177,74.2,176.4,74.4z M154,82.1L154,82.1
		L154,82.1L154,82.1z"/>
	<g>
		<path class="st1" d="M271.5,303.9c-0.1,0-0.3,0-0.4-0.1c-0.2-0.1-0.3-0.3-0.4-0.5c-0.1-0.2,0-0.4,0.1-0.6l13-23.8l24.7,5l-0.2-1.3
			c0-0.3,0.1-0.5,0.2-0.7l18.5-17.5l23.6,13.3c0.2,0.1,0.3,0.3,0.4,0.5c0.1,0.2,0,0.4-0.1,0.6c-0.1,0.2-0.2,0.3-0.4,0.4
			c-0.1,0-0.2,0-0.3,0c-0.1,0-0.3,0-0.4-0.1l-22.6-12.7l-17.7,16.7l-0.7,0.5l0.3,0.8c0.1,0.1,0.1,0.3,0.1,0.6
			c-0.1,0.4-0.4,0.6-0.8,0.6l0,0c-0.1,0-0.1,0-0.2,0l-23.9-4.8l-12.5,22.8c-0.1,0.2-0.3,0.3-0.5,0.4
			C271.6,303.9,271.6,303.9,271.5,303.9z"/>
		<path class="st1" d="M327,263.4l-19,18c-0.4,0.4-0.6,0.9-0.5,1.5l-24.1-4.9L270,302.3c-0.2,0.4-0.3,0.9-0.1,1.3
			c0.1,0.4,0.4,0.8,0.8,1c0.3,0.1,0.5,0.2,0.8,0.2c0.1,0,0.3,0,0.4,0l0,0c0.5-0.1,0.9-0.4,1.1-0.8l12.1-22.2l23.2,4.7
			c0.1,0,0.2,0,0.3,0c0.8,0,1.5-0.6,1.7-1.4c0.1-0.4,0-0.8-0.2-1.2c0.1,0,0.1-0.1,0.2-0.1l17.2-16.3l22,12.4
			c0.3,0.1,0.5,0.2,0.8,0.2c0.2,0,0.4,0,0.6-0.1c0.4-0.1,0.7-0.4,0.9-0.8c0.2-0.4,0.3-0.9,0.2-1.3c-0.1-0.4-0.4-0.8-0.8-1L327,263.4
			L327,263.4z"/>
	</g>
	<g>
		<path class="st1" d="M267.7,290.5c-0.1,0-0.3,0-0.4-0.1c-0.4-0.2-0.5-0.7-0.3-1.1l13-23.8l25,5c0.1,0,0.1,0,0.2,0l0.7,0.3l0.4-0.6
			c0,0,0.1-0.1,0.1-0.1l18.5-17.5l23.6,13.3c0.4,0.2,0.5,0.7,0.3,1.1c-0.1,0.2-0.2,0.3-0.4,0.4c-0.1,0-0.2,0-0.3,0
			c-0.1,0-0.3,0-0.4-0.1l-22.6-12.7l-17.7,16.7c-0.1,0.1-0.3,0.2-0.5,0.2c-0.1,0-0.2,0-0.3-0.1l-0.7-0.3l-0.4,0.6
			c-0.1,0.2-0.4,0.3-0.7,0.3l0,0c-0.1,0-0.1,0-0.2,0l-23.9-4.8l-12.5,22.8c-0.1,0.2-0.3,0.3-0.5,0.4
			C267.8,290.5,267.7,290.5,267.7,290.5z"/>
		<path class="st1" d="M324.8,251.5l-19,18c-0.1,0.1-0.2,0.2-0.2,0.3c-0.1,0-0.2-0.1-0.3-0.1l-25.7-5.2l-13.3,24.4
			c-0.5,0.8-0.1,1.9,0.7,2.3c0.3,0.1,0.5,0.2,0.8,0.2c0.1,0,0.3,0,0.4,0l0,0c0.5-0.1,0.9-0.4,1.1-0.8l12.1-22.2l23.2,4.7
			c0.1,0,0.2,0,0.3,0c0.6,0,1.1-0.3,1.4-0.7c0.2,0.1,0.4,0.1,0.7,0.1c0.4,0,0.8-0.2,1.2-0.5l17.2-16.3l22,12.4
			c0.3,0.1,0.5,0.2,0.8,0.2c0.2,0,0.4,0,0.6-0.1c0.4-0.1,0.7-0.4,0.9-0.8c0.5-0.8,0.2-1.9-0.7-2.3L324.8,251.5L324.8,251.5z"/>
	</g>
	<g>
		<path class="st1" d="M275.2,316.8c-0.1,0-0.3,0-0.4-0.1c-0.2-0.1-0.3-0.3-0.4-0.5c-0.1-0.2,0-0.4,0.1-0.6l13-23.8l24.7,5l-0.2-1.3
			c0-0.3,0.1-0.5,0.2-0.7l18.5-17.5l23.6,13.3c0.4,0.2,0.5,0.7,0.3,1.1c-0.1,0.2-0.2,0.3-0.4,0.4c-0.1,0-0.2,0-0.3,0
			c-0.1,0-0.3,0-0.4-0.1l-22.6-12.7L313.4,296l-0.6,0.5l0.3,0.8c0.1,0.1,0.1,0.3,0.1,0.6c-0.1,0.4-0.4,0.6-0.8,0.6
			c-0.1,0-0.1,0-0.2,0l-23.9-4.8l-12.5,22.8c-0.1,0.2-0.3,0.3-0.5,0.4C275.3,316.8,275.3,316.8,275.2,316.8z"/>
		<path class="st1" d="M330.7,276.2l-19,18c-0.4,0.4-0.6,0.9-0.5,1.5l-24.1-4.9l-13.3,24.4c-0.5,0.8-0.1,1.9,0.7,2.3
			c0.3,0.1,0.5,0.2,0.8,0.2c0.1,0,0.3,0,0.4,0c0.5-0.1,0.9-0.4,1.1-0.8l12.1-22.2l23.2,4.7c0.1,0,0.2,0,0.3,0c0.8,0,1.5-0.6,1.7-1.4
			c0.1-0.4,0-0.8-0.2-1.2c0.1,0,0.1-0.1,0.2-0.1l17.2-16.3l22,12.4c0.3,0.1,0.5,0.2,0.8,0.2c0.2,0,0.4,0,0.6-0.1h0
			c0.4-0.1,0.7-0.4,0.9-0.8c0.5-0.8,0.2-1.9-0.7-2.3L330.7,276.2L330.7,276.2z"/>
	</g>
	<path class="st2" d="M74.5,330.4l-0.3-0.3l-1.1-1.2l-2.3-2.5l-4.5-4.9l-9.1-9.8l-0.1-0.2l-0.2,0.1L43.4,318l-6.8,3.2l-3.4,1.6
		l-0.9,0.4c-0.3,0.1-0.6,0.3-0.7,0.6c-0.3,0.6,0,1.4,0.6,1.7c0.3,0.1,0.6,0.1,0.9,0.1c0.3-0.1,0.5-0.2,0.8-0.3l1.5-0.7l3-1.4
		l6.1-2.7l6.1-2.7l5.7-2.6c2.9,3.2,5.8,6.4,8.7,9.6l4.5,4.9l2.3,2.5l0.3,0.3c0.1,0.1,0.2,0.2,0.3,0.3c0.3,0.2,0.7,0.4,1.1,0.4
		c0.8,0,1.5-0.7,1.5-1.5c0-0.4-0.1-0.8-0.3-1.1C74.7,330.6,74.6,330.5,74.5,330.4z"/>
	<path class="st2" d="M72,346l-0.3-0.3l-1.1-1.2l-2.3-2.5l-4.5-4.9l-9.1-9.8l-0.1-0.2l-0.2,0.1l-13.6,6.5l-6.8,3.2l-3.4,1.6
		l-0.9,0.4c-0.3,0.1-0.6,0.3-0.7,0.6c-0.3,0.6,0,1.4,0.6,1.6c0.3,0.1,0.6,0.1,0.9,0.1c0.3-0.1,0.5-0.2,0.8-0.3l1.5-0.7l3-1.4
		l6.1-2.7l6.1-2.7l5.7-2.6c2.9,3.2,5.8,6.4,8.7,9.6l4.5,4.9l2.3,2.5l0.3,0.3c0.1,0.1,0.2,0.2,0.3,0.3c0.3,0.2,0.7,0.4,1.1,0.4
		c0.8,0,1.5-0.7,1.5-1.5c0-0.4-0.1-0.8-0.3-1.1C72.2,346.2,72.1,346.1,72,346z"/>
	<path class="st2" d="M78.9,317.3l-0.3-0.3l-1.1-1.2l-2.3-2.5l-4.5-4.9l-9.1-9.8l-0.1-0.2l-0.2,0.1l-13.6,6.5l-6.8,3.2l-3.4,1.6
		l-0.9,0.4c-0.3,0.1-0.6,0.3-0.7,0.6c-0.3,0.6,0,1.4,0.6,1.6c0.3,0.1,0.6,0.1,0.9,0.1c0.3-0.1,0.5-0.2,0.8-0.3l1.5-0.7l3-1.4
		l6.1-2.7l6.1-2.7l5.7-2.6c2.9,3.2,5.8,6.4,8.7,9.6l4.5,4.9l2.3,2.5l0.3,0.3c0.1,0.1,0.2,0.2,0.3,0.3c0.3,0.2,0.7,0.4,1.1,0.4
		c0.8,0,1.5-0.7,1.5-1.5c0-0.4-0.1-0.8-0.3-1.1C79.1,317.4,79,317.4,78.9,317.3z"/>
	<path class="st2" d="M120.2,352l-1.6-3.4l-3-6.9l-6.1-13.7l-0.1-0.2l-0.2,0L96,329.4l-6.6,0.8l-3.3,0.4l-1.7,0.2l-0.4,0
		c-0.1,0-0.3,0-0.5,0.1c-0.4,0.1-0.7,0.3-0.9,0.6c-0.5,0.6-0.4,1.6,0.2,2.1c0.3,0.3,0.7,0.4,1.1,0.4c0.2,0,0.3,0,0.5,0l0.4,0
		l3.3-0.4l6.6-0.8c4.3-0.5,8.6-1.1,12.9-1.6l2.7,5.7l2.9,6l2.9,6l1.4,3l0.7,1.5c0.1,0.3,0.2,0.5,0.4,0.8c0.2,0.2,0.4,0.4,0.7,0.5
		c0.6,0.2,1.4-0.2,1.5-0.9c0.1-0.3,0-0.7-0.1-0.9L120.2,352z"/>
	<path class="st2" d="M113.8,363.8l-1.6-3.4l-3-6.9l-6.1-13.7l-0.1-0.2l-0.2,0l-13.3,1.6l-6.6,0.8l-3.3,0.4l-1.7,0.2l-0.4,0
		c-0.1,0-0.3,0-0.5,0.1c-0.4,0.1-0.7,0.3-0.9,0.6c-0.5,0.6-0.4,1.6,0.2,2.1c0.3,0.3,0.7,0.4,1.1,0.4c0.2,0,0.3,0,0.5,0l0.4,0
		l3.3-0.4l6.6-0.8c4.3-0.5,8.6-1.1,12.9-1.6l2.7,5.7l2.9,6l2.9,6l1.4,3l0.7,1.5c0.1,0.3,0.2,0.5,0.4,0.8c0.2,0.2,0.4,0.4,0.7,0.5
		c0.6,0.2,1.4-0.2,1.5-0.9c0.1-0.3,0-0.7-0.1-0.9L113.8,363.8z"/>
	<path class="st2" d="M125.1,338.9l-1.6-3.4l-3-6.9l-6.1-13.7l-0.1-0.2l-0.2,0l-13.3,1.6l-6.6,0.8l-3.3,0.4l-1.7,0.2l-0.4,0
		c-0.1,0-0.3,0-0.5,0.1c-0.4,0.1-0.7,0.3-0.9,0.6c-0.5,0.6-0.4,1.6,0.2,2.1c0.3,0.3,0.7,0.4,1.1,0.4c0.2,0,0.3,0,0.5,0l0.4,0
		l3.3-0.4l6.6-0.8c4.3-0.5,8.6-1.1,12.9-1.6l2.7,5.7l2.9,6l2.9,6l1.4,3l0.7,1.5c0.1,0.3,0.2,0.5,0.4,0.8c0.2,0.2,0.4,0.4,0.7,0.5
		c0.6,0.2,1.4-0.2,1.5-0.9c0.1-0.3,0-0.7-0.1-0.9L125.1,338.9z"/>
	<path class="st3" d="M122.3,30.2l0.6,1.5l1.2,3.1l2.4,6.2l2.4,6.2l2.3,5.8c-3.4,2.7-6.7,5.5-10,8.3l-5.1,4.3l-2.6,2.2l-0.3,0.3
		c-0.1,0.1-0.2,0.2-0.4,0.3c-0.3,0.3-0.4,0.7-0.4,1.1c0,0.2,0,0.4,0.1,0.5c-0.2,0.1-0.3,0.2-0.5,0.3c-0.3,0.3-0.5,0.6-0.5,1
		c0,0.2,0,0.3,0,0.5l0,0.4l0.2,3.3l0.5,6.7c0.3,4.3,0.6,8.6,1,13l-5.8,2.4l-6.1,2.6l-6.1,2.6l-3.1,1.3l-1.5,0.6
		c-0.3,0.1-0.5,0.2-0.8,0.3c-0.3,0.1-0.5,0.4-0.5,0.7c-0.2,0.6,0.1,1.4,0.8,1.6c0.3,0.1,0.7,0,0.9-0.1l0.9-0.3l3.5-1.4l7-2.7l14-5.4
		l0.2-0.1l0-0.2l-0.9-13.3l-0.5-6.7l-0.2-3.3l-0.1-1.7l0-0.4c0-0.1,0-0.3,0-0.5c0-0.1,0-0.2-0.1-0.2c0.1,0,0.1-0.1,0.2-0.1
		c0.2-0.1,0.3-0.2,0.4-0.3l0.3-0.3l1.3-1.1l2.6-2.1l5.1-4.3l10.3-8.6L135,54l-0.1-0.2L129.1,40l-2.9-6.9l-1.4-3.5l-0.4-0.9
		c-0.1-0.3-0.3-0.6-0.6-0.7c-0.6-0.3-1.4-0.1-1.7,0.5c-0.1,0.3-0.2,0.6-0.1,0.9C122.1,29.7,122.2,29.9,122.3,30.2z"/>
	<path class="st3" d="M135.2,35.6l0.6,1.5l1.2,3.1l2.4,6.2l2.4,6.2l2.3,5.8c-3.4,2.7-6.7,5.5-10,8.3l-5.1,4.3l-2.6,2.2l-0.3,0.3
		c-0.1,0.1-0.2,0.2-0.4,0.3c-0.3,0.3-0.4,0.7-0.4,1.1c0,0.2,0,0.4,0.1,0.5c-0.2,0.1-0.3,0.2-0.5,0.3c-0.3,0.3-0.5,0.6-0.5,1
		c0,0.2,0,0.3,0,0.5l0,0.4l0.2,3.3l0.5,6.7c0.3,4.3,0.6,8.6,1,13l-5.8,2.4l-6.1,2.6l-6.1,2.6l-3.1,1.3l-1.5,0.6
		c-0.3,0.1-0.5,0.2-0.8,0.3c-0.3,0.1-0.5,0.4-0.5,0.7c-0.2,0.6,0.1,1.4,0.8,1.6c0.3,0.1,0.7,0,0.9-0.1l0.9-0.3l3.5-1.4l7-2.7l14-5.4
		l0.2-0.1l0-0.2l-0.9-13.3l-0.5-6.7l-0.2-3.3l-0.1-1.7l0-0.4c0-0.1,0-0.3,0-0.5c0-0.1,0-0.2-0.1-0.2c0.1,0,0.1-0.1,0.2-0.1
		c0.2-0.1,0.3-0.2,0.4-0.3l0.3-0.3l1.3-1.1l2.6-2.1l5.1-4.3l10.3-8.6l0.2-0.1l-0.1-0.2l-5.8-13.8l-2.9-6.9l-1.4-3.5l-0.4-0.9
		c-0.1-0.3-0.3-0.6-0.6-0.7c-0.6-0.3-1.4-0.1-1.7,0.5c-0.1,0.3-0.2,0.6-0.1,0.9C135,35.1,135.1,35.4,135.2,35.6z"/>
	<path class="st3" d="M90.1,97.5l14-5.4l0.2-0.1l0-0.2l-0.9-13.3l-0.5-6.7l-0.2-3.3l-0.1-1.7l0-0.4c0-0.1,0-0.3,0-0.5
		c0-0.1,0-0.2-0.1-0.2c0.1,0,0.1-0.1,0.2-0.1c0.2-0.1,0.3-0.2,0.4-0.3l0.3-0.3l1.3-1.1l2.6-2.1l5.1-4.3l10.3-8.6l0.2-0.1l-0.1-0.2
		l-5.8-13.8l-2.9-6.9l-1.4-3.5l-0.4-0.9c-0.1-0.3-0.3-0.6-0.6-0.7c-0.6-0.3-1.4-0.1-1.7,0.5c-0.1,0.3-0.2,0.6-0.1,0.9
		c0.1,0.3,0.2,0.5,0.3,0.8l0.6,1.5l1.2,3.1l2.4,6.2l2.4,6.2l2.3,5.8c-3.4,2.7-6.7,5.5-10,8.3l-5.1,4.3l-2.6,2.2l-0.3,0.3
		c-0.1,0.1-0.2,0.2-0.4,0.3c-0.3,0.3-0.4,0.7-0.4,1.1c0,0.2,0,0.4,0.1,0.5c-0.2,0.1-0.3,0.2-0.5,0.3c-0.3,0.3-0.5,0.6-0.5,1
		c0,0.2,0,0.3,0,0.5l0,0.4l0.2,3.3l0.5,6.7c0.3,4.3,0.6,8.6,1,13l-5.8,2.4L89.1,95l-6.1,2.6l-3.1,1.3l-1.5,0.6
		c-0.3,0.1-0.5,0.2-0.8,0.3c-0.3,0.1-0.5,0.4-0.5,0.7c-0.2,0.6,0.1,1.4,0.8,1.6c0.3,0.1,0.7,0,0.9-0.1l0.9-0.3l3.5-1.4L90.1,97.5z"
		/>
	<path class="st4" d="M212.7,243.5c-12.4-5.8-26.4-6.5-39.2-1.8c-0.2,0.1-0.4,0.1-0.5,0.2c-0.3,0.2-0.6,0.4-0.8,0.7c0,0,0,0,0,0
		c-0.1,0.1-0.1,0.2-0.2,0.3c0,0.1-0.1,0.1-0.1,0.2c0,0,0,0,0,0c0,0,0,0,0,0c0,0.1-0.1,0.2-0.1,0.2c0,0.1-0.1,0.2-0.1,0.3
		c0,0,0,0.1,0,0.1c0,0.1,0,0.2-0.1,0.3c0,0,0,0,0,0c0,0.1,0,0.1,0,0.2c0,0.1,0,0.2,0,0.3c0,0,0,0.1,0,0.1c1.7,12.1-1.3,24.2-8.7,34
		c-7.3,9.8-18.1,16.2-30.2,18c-1.5,0.2-2.5,1.6-2.3,3.1c0,0.2,0.1,0.5,0.2,0.7c0.4,1,1.4,1.6,2.5,1.6c0.1,0,0.3,0,0.4,0
		c13.6-2,25.5-9.1,33.8-20.1c6.3-8.5,9.8-18.5,10.2-28.9c4.7,7.8,7,16.8,6.6,26.1c-0.6,12.2-6,23.5-15.1,31.7
		c-0.9,0.8-1.1,2-0.7,3.1c0.1,0.3,0.3,0.5,0.5,0.7c0.5,0.5,1.2,0.9,1.9,0.9c0,0,0.1,0,0.1,0c0.7,0,1.3-0.2,1.8-0.7
		c10.2-9.2,16.2-21.8,16.8-35.5c0.5-10.6-2.1-20.8-7.6-29.6c8.3,3.8,15.2,10,20,18c6.3,10.5,8.2,22.8,5.2,34.7
		c-0.2,0.7-0.1,1.4,0.3,2.1c0.4,0.6,1,1.1,1.7,1.2c0.2,0.1,0.4,0.1,0.7,0.1c1.2,0,2.3-0.8,2.6-2.1c3.3-13.3,1.3-27.1-5.8-38.9
		c-5.5-9.1-13.4-16.1-22.9-20.3c9-1.4,18.2-0.2,26.6,3.8c11.1,5.2,19.5,14.4,23.7,26c0.4,1.1,1.5,1.8,2.6,1.8c0.3,0,0.6-0.1,0.9-0.2
		c0.7-0.2,1.2-0.7,1.5-1.4c0.3-0.7,0.3-1.4,0.1-2.1C234.5,259.6,225.1,249.3,212.7,243.5z"/>
	<path class="st4" d="M146.8,133.7c-0.4,0.6-0.6,1.3-0.5,2c0.1,0.7,0.5,1.4,1.1,1.8c9.9,7.2,16.4,17.9,18.2,30
		c1.4,9.2,0,18.4-3.9,26.6c-1.4-10.3-5.9-19.8-13.1-27.6c-9.3-10.1-22-16-35.6-16.5c-0.7,0-1.4,0.2-2,0.7c-0.5,0.5-0.8,1.2-0.9,1.9
		c0,0.4,0.1,0.8,0.2,1.2l0,0c0.4,1,1.4,1.6,2.4,1.6c22.3,0.9,40.3,17.7,43.5,39c-16.2-18.1-43.6-22.6-65.1-9.5
		c-1.1,0.7-1.6,2.2-1.1,3.4c0.1,0.1,0.1,0.2,0.2,0.3c0.8,1.3,2.5,1.7,3.7,0.9c21.6-13.2,49.9-6.5,63.1,15.1c0,0,0,0,0,0l0,0
		c0,0,0,0,0,0c0,0,0.1,0.1,0.1,0.1c0,0.1,0.1,0.1,0.1,0.2c0,0,0,0.1,0.1,0.1c0,0,0,0,0,0c0,0,0,0,0,0c0,0,0,0,0,0
		c0,0,0.1,0.1,0.1,0.1c0,0,0.1,0.1,0.1,0.1c0,0,0.1,0.1,0.1,0.1l0,0c0,0,0,0,0,0c0,0,0,0,0.1,0c0.1,0,0.1,0.1,0.2,0.1
		c0.1,0,0.1,0.1,0.2,0.1c0.1,0,0.1,0.1,0.2,0.1c0.1,0,0.1,0.1,0.2,0.1c0,0,0,0,0.1,0c0,0,0.1,0,0.1,0c0,0,0.1,0,0.1,0
		c0,0,0.1,0,0.1,0c0,0,0,0,0,0c0.1,0,0.2,0,0.2,0c0,0,0,0,0,0c0,0,0,0,0.1,0c0,0,0,0,0.1,0c0.1,0,0.2,0,0.3,0c0,0,0,0,0,0
		c0,0,0.1,0,0.1,0c0,0,0,0,0,0c0,0,0.1,0,0.1,0c0,0,0.1,0,0.1,0c0.1,0,0.1,0,0.2-0.1c0,0,0,0,0.1,0c0,0,0,0,0,0c0,0,0,0,0,0
		c0,0,0,0,0.1,0c0,0,0,0,0.1,0c0,0,0,0,0,0c12.8-4.7,23.1-14.1,28.9-26.4c5.8-12.4,6.5-26.4,1.8-39.3c-0.5-1.4-2.1-2.1-3.5-1.6
		c-0.7,0.2-1.2,0.7-1.5,1.4c-0.3,0.7-0.3,1.4-0.1,2.1c4.2,11.5,3.6,24-1.6,35.1c-3.9,8.4-10.2,15.3-18,19.9
		c4.6-9.3,6.2-19.8,4.5-30.3c-2.1-13.6-9.3-25.5-20.4-33.6c-0.6-0.4-1.3-0.6-2-0.5C147.9,132.7,147.3,133.1,146.8,133.7z"/>
	<path class="st5" d="M275.7,81.4c0.2-0.3,0.4-0.7,0.4-1.2c0,0,0-0.1,0-0.1c0,0,0-0.1,0-0.1c0,0,0,0,0,0c0,0,0,0,0,0
		c0-0.1,0-0.2,0-0.3c0-0.1,0-0.2,0-0.2c0,0,0-0.1,0-0.1c0-0.1,0-0.2-0.1-0.3c0,0,0,0,0,0c0-0.1,0-0.1-0.1-0.2c0-0.1-0.1-0.2-0.1-0.3
		c0,0,0-0.1,0-0.1c-6.3-10.1-8.2-22-5.6-33.6c2.7-11.6,9.7-21.4,19.8-27.7c1.2-0.8,1.6-2.4,0.8-3.6c-0.1-0.2-0.3-0.4-0.4-0.5
		c-0.9-0.8-2.2-0.9-3.2-0.3c-20.7,12.9-28.7,38.7-20,60.6c-7.2-5.1-12.8-12.2-16-20.6c-4.2-11.1-3.9-23.2,1-34.1
		c0.5-1,0.2-2.3-0.6-3l0,0c-0.2-0.2-0.5-0.4-0.7-0.5c-0.6-0.3-1.4-0.3-2-0.1c-0.7,0.3-1.2,0.7-1.5,1.4c-5.4,12.1-5.8,25.7-1.1,38.1
		c3.7,9.6,10,17.7,18.4,23.3c-8.8-0.2-17.4-3-24.8-8.2c-9.7-6.9-16.2-17.1-18.2-28.8c-0.1-0.7-0.5-1.3-1.1-1.7
		c-0.6-0.4-1.3-0.6-2-0.4c-0.7,0.1-1.3,0.5-1.7,1.1s-0.6,1.3-0.4,2c2.2,13.1,9.5,24.6,20.3,32.3c8.4,5.9,18.2,9.1,28.2,9.2
		c-7.4,4.8-16.1,7.2-25.1,7c-11.9-0.3-22.9-5.2-31.2-13.8c-1-1-2.7-1-3.7-0.1c-0.5,0.5-0.8,1.1-0.8,1.8c0,0.7,0.2,1.4,0.7,1.9
		c9.1,9.6,21.5,15.1,34.8,15.4c0.4,0,0.9,0,1.3,0c12.8,0,25-4.8,34.3-13.7C275.5,81.6,275.6,81.5,275.7,81.4z"/>
	<path class="st5" d="M370.5,100.1c0.7-1.1,0.6-2.6-0.4-3.4l0,0c-0.1-0.1-0.2-0.2-0.3-0.2c-1.2-0.8-2.8-0.5-3.7,0.7
		c-14,20.2-41.8,25.2-61.9,11.2c0,0,0,0,0,0c0,0,0,0,0,0c0,0,0,0-0.1,0c0,0,0,0,0,0c0,0-0.1,0-0.1-0.1c-0.1,0-0.1-0.1-0.2-0.1
		c0,0,0,0-0.1,0c0,0,0,0-0.1,0c0,0,0,0-0.1,0c-0.1,0-0.2-0.1-0.4-0.1c0,0,0,0,0,0c0,0,0,0,0,0c0,0,0,0-0.1,0c-0.1,0-0.1,0-0.2,0
		c-0.1,0-0.2,0-0.3,0c0,0-0.1,0-0.1,0c-0.1,0-0.2,0-0.4,0c-0.1,0-0.2,0.1-0.3,0.1c-0.4,0.1-0.7,0.3-1,0.6c0,0,0,0-0.1,0c0,0,0,0,0,0
		c-9.6,9.2-15.1,21.5-15.4,34.8c-0.3,13.3,4.5,25.9,13.7,35.6c0.5,0.5,1.2,0.8,1.9,0.8c0.7,0,1.3-0.2,1.8-0.7
		c0.5-0.5,0.8-1.1,0.8-1.8c0-0.7-0.2-1.4-0.7-1.9c-8.2-8.6-12.6-19.9-12.3-31.8c0.2-9,3.1-17.6,8.3-24.8c-0.4,10.1,2.2,20,7.7,28.7
		c7.1,11.2,18.2,19,31.2,21.9c0.2,0,0.4,0.1,0.6,0.1c0.5,0,1-0.1,1.4-0.4c0.6-0.4,1-1,1.2-1.7c0.2-0.7,0-1.4-0.4-2
		c-0.4-0.6-1-1-1.7-1.2c-11.6-2.6-21.5-9.5-27.9-19.6c-4.9-7.6-7.2-16.3-6.9-25.2c5.3,8.6,13,15.3,22.4,19.5
		c6.4,2.8,13.2,4.2,20,4.2c6.1,0,12.2-1.1,18.1-3.4c0.7-0.3,1.2-0.8,1.5-1.4c0.3-0.6,0.3-1.4,0-2c-0.1-0.4-0.4-0.7-0.7-1
		c-0.7-0.7-1.8-0.9-2.8-0.5c-20.2,7.9-42.7,0-53.8-17.7c6.6,3,13.6,4.4,20.5,4.4C345.3,121.5,360.9,114,370.5,100.1z"/>
	<g>
		<path class="st1" d="M291.2,238.3c-1.7-0.3-2.6-2.4-3.1-4.1c-0.6-2.1-0.3-3.6,0.8-5.4c0.1,0,0.2,0.1,0.2,0.1
			c0.3,0.8,0.4,1.6,0.6,2.3l0.2,0.8l1.2-0.1c0.1,0,0.4,0.3,0.4,0.5l0,0.1l-0.1,0.6l0.5,0.3c0.2,0.1,0.3,0.3,0.3,0.5
			c-0.3,0.8-0.6,1.6-1,2.5l-0.1,0.4l0.3,0.6c0.1,0.3,0.2,0.5,0.3,0.8c0.1,0.1,0.1,0.2,0,0.2c0,0-0.1,0.1-0.2,0.1L291.2,238.3z"/>
		<path class="st1" d="M288.8,231.4C288.8,231.5,288.8,231.5,288.8,231.4l0.3,1.6l1.3-0.1l-0.1,0.7l0.7,0.4c-0.3,0.7-0.5,1.3-0.8,2
			l-0.2,0.5c-0.6-0.7-1-1.8-1.2-2.6C288.7,233.1,288.7,232.2,288.8,231.4 M288.9,227.9c-0.2,0-0.5,0.1-0.6,0.3
			c-1.3,1.9-1.8,3.7-1.1,6.3c0.5,2,1.7,4.5,4.1,4.8c0,0,0,0,0,0c0,0,0,0,0,0c0,0,0,0,0,0c0,0,0.1,0,0.1,0c0.8,0,1.4-0.6,1-1.5
			c-0.1-0.3-0.3-0.7-0.4-1c0.3-0.8,0.6-1.6,1-2.4c0.2-0.6-0.1-1.2-0.7-1.6c0,0,0-0.1,0-0.1c0.1-0.6-0.6-1.5-1.3-1.5c0,0-0.1,0-0.1,0
			c-0.1,0-0.3,0-0.4,0c-0.2-0.8-0.3-1.6-0.6-2.4C289.9,228.2,289.3,227.9,288.9,227.9L288.9,227.9z"/>
	</g>
	<g>
		<path class="st1" d="M297.4,236.3C297.4,236.3,297.4,236.3,297.4,236.3c0,0-0.1-0.1-0.1-0.2c0-0.3,0-0.6,0-0.9l0-0.6l-0.3-0.3
			c-0.7-0.6-1.3-1.2-2-1.7c-0.1-0.1-0.1-0.4,0.1-0.5l0.3-0.5l-0.4-0.5l-0.1-0.1c-0.1-0.1,0-0.5,0.1-0.6l1.1-0.4l-0.2-0.8
			c-0.2-0.7-0.4-1.5-0.6-2.3c0,0,0.1-0.1,0.1-0.2c1.8,1,2.8,2.3,3.2,4.4c0.4,1.8,0.5,4.1-1,5.1C297.5,236.3,297.5,236.3,297.4,236.3
			z"/>
		<path class="st1" d="M296.8,228.9c0.5,0.6,0.8,1.4,1,2.4c0.2,0.8,0.3,1.9,0.1,2.8l-0.4-0.4c-0.5-0.5-1.1-0.9-1.6-1.4l0.5-0.7
			L296,231l1.3-0.5L296.8,228.9C296.8,228.9,296.8,228.9,296.8,228.9 M295.5,225.7c-0.5,0-1.1,0.7-1,1.3c0.1,0.8,0.3,1.6,0.6,2.4
			c-0.1,0-0.2,0.1-0.4,0.1c-0.7,0.3-0.9,1.4-0.6,2c0,0,0.1,0.1,0.1,0.1c-0.3,0.5-0.4,1.3,0.1,1.7c0.7,0.6,1.3,1.2,2,1.7
			c0,0.4,0,0.7,0.1,1.1c0.1,0.7,0.5,1.1,1,1.1c0.2,0,0.5-0.1,0.7-0.2c0,0,0,0,0,0c2-1.3,1.9-4.1,1.5-6.1c-0.5-2.6-1.8-4-3.8-5.1
			C295.7,225.7,295.6,225.7,295.5,225.7L295.5,225.7z"/>
	</g>
	<g>
		<path class="st6" d="M320.9,337.4c-8.9,0-17.5-7.2-20.9-17.5c-3.3-10-1-20.5,5.7-26l1.7-1.4l-2.2-0.2c-5.8-0.5-10.7-4.4-12.5-9.9
			c-1.8-5.5-0.2-11.6,4.2-15.4l1.6-1.4l-2.1-0.2c-5.8-0.5-10.8-4.4-12.6-9.9c-2.5-7.6,1.6-15.8,9.2-18.3c1.5-0.5,3-0.7,4.5-0.7
			c6.3,0,11.8,4,13.7,9.9c1.8,5.5,0.2,11.6-4.2,15.4l-1.6,1.4l2.1,0.2c5.8,0.5,10.8,4.4,12.6,9.9c1.8,5.5,0.2,11.6-4.2,15.4
			l-1.7,1.5l2.2,0.1c8.7,0.4,16.7,7.5,20.1,17.5c4.1,12.6-0.7,25.5-10.8,28.8C324.2,337.2,322.6,337.4,320.9,337.4L320.9,337.4z"/>
		<path class="st1" d="M297.6,237.4c5.9,0,11,3.7,12.9,9.3c1.7,5.2,0.2,10.9-4,14.5l-3.2,2.8l4.3,0.3c5.5,0.4,10.1,4.1,11.8,9.3
			c1.7,5.2,0.2,10.8-3.9,14.4l-3.4,3l4.5,0.2c8.2,0.4,16.1,7.3,19.2,16.9c4,12.1-0.6,24.5-10.2,27.6c-1.5,0.5-3.1,0.7-4.7,0.7
			c-8.5,0-16.7-6.9-20-16.9c-3.1-9.5-0.9-19.8,5.4-25l3.5-2.8l-4.5-0.4c-5.4-0.5-10-4.1-11.7-9.3c-1.7-5.2-0.2-10.9,4-14.5l3.3-2.8
			l-4.3-0.3c-5.5-0.4-10.1-4.1-11.8-9.3c-2.3-7.1,1.5-14.8,8.6-17.1C294.7,237.7,296.1,237.4,297.6,237.4 M297.6,235.6
			c-1.6,0-3.2,0.3-4.8,0.8c-8.1,2.7-12.4,11.4-9.8,19.4c2,6.1,7.4,10,13.4,10.5c-4.5,3.9-6.5,10.4-4.5,16.4c2,6,7.4,10,13.3,10.5
			c-6.8,5.6-9.5,16.4-6,27c3.6,10.9,12.7,18.1,21.7,18.1c1.8,0,3.5-0.3,5.2-0.8c10.6-3.5,15.7-16.9,11.4-29.9
			c-3.5-10.6-12.1-17.7-20.9-18.1c4.5-3.9,6.4-10.3,4.4-16.4c-2-6.1-7.4-10-13.4-10.5c4.5-3.9,6.5-10.4,4.5-16.4
			C310,239.7,304,235.6,297.6,235.6L297.6,235.6z"/>
	</g>
	<g>
		<path class="st1" d="M291.2,248.2C291.2,248.2,291.2,248.2,291.2,248.2L291.2,248.2L291.2,248.2z"/>
		<path class="st1" d="M291.1,247.3c-0.2,0-0.4,0.1-0.6,0.3c-0.6,0.7,0.1,1.5,0.7,1.5c0.2,0,0.4-0.1,0.6-0.3
			C292.4,248.2,291.8,247.3,291.1,247.3L291.1,247.3z"/>
	</g>
	<g>
		<path class="st1" d="M300.3,246.6c-0.2,0-0.5-0.2-0.6-0.4c-0.1-0.2,0-0.3,0.1-0.5c0.1-0.2,0.3-0.2,0.3-0.2c0.2,0,0.5,0.2,0.6,0.4
			c0.1,0.2,0,0.3-0.1,0.5C300.5,246.6,300.3,246.6,300.3,246.6C300.3,246.6,300.3,246.6,300.3,246.6z"/>
		<path class="st1" d="M300.1,244.6c-0.4,0-0.7,0.1-1,0.5c-0.9,1.1,0.1,2.4,1.2,2.4c0.4,0,0.7-0.1,1-0.5
			C302.2,246,301.2,244.6,300.1,244.6L300.1,244.6z"/>
	</g>
	<path class="st2" d="M90.1,274c-2.1,0.7-3.6,2-4.6,4.4c-0.7,1.9-1.3,4.6,0.5,6.3c0,0,0,0,0,0c0.6,0.5,1.6,0.5,1.8-0.6
		c0.1-0.4,0.2-0.7,0.2-1.1c0.7-0.5,1.5-0.9,2.2-1.4c0.6-0.3,0.6-1.1,0.4-1.7c0,0,0.1-0.1,0.1-0.1c0.4-0.5,0.4-1.6-0.2-2
		c-0.1-0.1-0.2-0.1-0.3-0.2c0.3-0.7,0.7-1.5,1-2.3C91.5,274.7,90.7,273.8,90.1,274z"/>
	<path class="st2" d="M95.9,276.6c-0.4,0.8-0.7,1.5-1,2.3c-0.1,0-0.2-0.1-0.4-0.1c-0.7-0.2-1.6,0.6-1.6,1.3c0,0.1,0,0.1,0,0.1
		c-0.6,0.2-1.1,0.8-0.9,1.4c0.2,0.9,0.4,1.7,0.6,2.6c-0.2,0.3-0.4,0.6-0.6,0.9c-0.6,0.9,0.1,1.6,0.9,1.7c0,0,0,0,0,0
		c2.4,0.1,4-2.2,4.8-4c1.1-2.4,0.9-4.3-0.1-6.4C97.3,275.9,96.2,276,95.9,276.6z"/>
	<g>
		<path class="st7" d="M61,384.3c-1.7,0-3.3-0.3-4.9-0.8c-4.9-1.6-8.7-5.4-10.7-10.8c-2.1-5.5-2.1-11.8-0.2-17.9
			c3.3-10,11.3-17.1,20-17.6l2.2-0.1l-1.7-1.5c-4.4-3.8-6-9.9-4.2-15.4c1.8-5.5,6.7-9.4,12.6-9.9l2.1-0.2l-1.6-1.4
			c-4.4-3.8-6.1-9.9-4.3-15.4c1.9-6,7.5-10,13.8-10c1.5,0,3,0.2,4.5,0.7c7.6,2.5,11.7,10.7,9.3,18.2c-1.8,5.5-6.7,9.4-12.6,9.9
			l-2.1,0.2l1.6,1.4c4.4,3.8,6.1,9.9,4.3,15.4c-1.8,5.5-6.7,9.4-12.5,9.9l-2.2,0.2l1.7,1.4c6.7,5.5,9.1,15.9,5.8,26
			C78.5,377.1,69.9,384.3,61,384.3C61,384.3,61,384.3,61,384.3z"/>
		<path class="st8" d="M84.1,284.2c1.4,0,2.8,0.2,4.2,0.7c7.1,2.3,11,10,8.7,17.1c-1.7,5.2-6.3,8.9-11.8,9.3l-4.3,0.4l3.3,2.8
			c4.1,3.6,5.7,9.3,4,14.5c-1.7,5.2-6.3,8.8-11.7,9.3l-4.5,0.4l3.5,2.8c6.4,5.2,8.6,15.4,5.5,25c-3.3,10-11.5,17-20,17
			c-1.6,0-3.1-0.2-4.6-0.7c-9.6-3.1-14.3-15.5-10.3-27.6c3.1-9.5,11-16.5,19.2-16.9l4.5-0.2l-3.4-2.9c-4.1-3.6-5.7-9.2-4-14.4
			c1.7-5.2,6.3-8.9,11.8-9.3l4.3-0.4l-3.3-2.8c-4.1-3.6-5.7-9.3-4-14.5C73,288,78.2,284.2,84.1,284.2 M84.1,282.4
			c-6.5,0-12.5,4.1-14.6,10.6c-2,6.1,0,12.5,4.6,16.4c-6,0.5-11.4,4.5-13.3,10.6c-2,6,0,12.4,4.5,16.3c-8.8,0.5-17.4,7.6-20.8,18.2
			c-4.3,13.1,0.9,26.5,11.5,29.9c1.7,0.6,3.4,0.8,5.2,0.8c9.1,0,18.1-7.2,21.7-18.2c3.5-10.6,0.7-21.4-6.1-27
			c5.9-0.5,11.3-4.5,13.3-10.6c2-6.1,0-12.5-4.6-16.4c6-0.5,11.4-4.5,13.3-10.6c2.6-8.1-1.8-16.8-9.9-19.4
			C87.3,282.7,85.7,282.4,84.1,282.4L84.1,282.4z"/>
	</g>
	<path class="st2" d="M80.4,290.9c-1.1,0.3-0.7,2,0.4,1.7C81.9,292.4,81.5,290.7,80.4,290.9z"/>
	<path class="st2" d="M88.8,294c-1.8,0.4-1.2,3.2,0.6,2.8C91.3,296.4,90.6,293.6,88.8,294z"/>
	<path class="st3" d="M170.8,89.3c-0.6-2.2-1.8-3.7-4.2-4.8c-1.9-0.8-4.6-1.5-6.3,0.2c0,0,0,0,0,0c-0.6,0.6-0.6,1.5,0.5,1.8
		c0.3,0.1,0.7,0.2,1,0.3c0.4,0.8,0.9,1.5,1.3,2.3c0.3,0.6,1,0.7,1.6,0.5c0,0,0.1,0.1,0.1,0.1c0.5,0.5,1.6,0.5,2-0.1
		c0.1-0.1,0.1-0.2,0.2-0.3c0.7,0.4,1.5,0.7,2.3,1.1C170.1,90.5,171,89.9,170.8,89.3z"/>
	<path class="st3" d="M167.9,94.8c-0.7-0.4-1.5-0.8-2.3-1.1c0-0.1,0.1-0.2,0.1-0.4c0.2-0.7-0.5-1.6-1.2-1.7c-0.1,0-0.1,0-0.1,0
		c-0.2-0.6-0.8-1.1-1.4-1c-0.9,0.2-1.7,0.3-2.6,0.4c-0.3-0.2-0.6-0.4-0.9-0.6c-0.9-0.6-1.6,0-1.7,0.8c0,0,0,0,0,0
		c-0.2,2.4,2,4.1,3.8,5c2.4,1.2,4.3,1.1,6.4,0.2C168.6,96.4,168.5,95.2,167.9,94.8z"/>
	<g>
		<path class="st9" d="M147.3,96.6c-1.7,0-3.5-0.3-5.1-0.9c-5.5-2.1-9.1-7.2-9.3-13l-0.1-2.2l-1.5,1.6c-2.7,2.9-6.5,4.5-10.5,4.5
			c-1.7,0-3.5-0.3-5.1-0.9c-5.4-2.1-9.1-7.1-9.3-12.9l-0.1-2.2l-1.5,1.7c-3.7,4.1-9.5,6.5-16,6.5c-3.4,0-6.8-0.6-10.2-1.9
			C66.2,72,59.2,60.1,63,50.2c2.6-6.9,10.1-11.4,19.1-11.4c3.4,0,6.8,0.6,10.2,1.9c9.9,3.7,16.6,12.1,16.6,20.8l0,2.2l1.5-1.6
			c2.7-2.8,6.5-4.4,10.4-4.4c1.7,0,3.5,0.3,5.1,0.9c5.5,2.1,9.1,7.2,9.3,13l0.1,2.2l1.5-1.6c2.7-2.9,6.5-4.5,10.5-4.5
			c1.7,0,3.5,0.3,5.1,0.9c7.5,2.8,11.2,11.2,8.4,18.7C158.7,92.8,153.3,96.6,147.3,96.6C147.3,96.6,147.3,96.6,147.3,96.6z"/>
		<path class="st10" d="M82,39.6c3.3,0,6.6,0.6,9.9,1.8c9.4,3.6,16,11.8,16,20l0,4.5l3.1-3.2c2.5-2.6,6.1-4.2,9.8-4.2
			c1.6,0,3.3,0.3,4.8,0.9c5.1,1.9,8.5,6.7,8.7,12.2l0.2,4.3l3-3.1c2.6-2.7,6.1-4.2,9.8-4.2c1.6,0,3.3,0.3,4.8,0.9
			c7,2.6,10.5,10.5,7.9,17.5c-2,5.2-7.1,8.8-12.7,8.8c-1.6,0-3.3-0.3-4.8-0.9c-5.1-1.9-8.5-6.7-8.7-12.2l-0.2-4.3l-3,3.1
			c-2.6,2.7-6.1,4.2-9.8,4.2c-1.6,0-3.3-0.3-4.8-0.9c-5.1-1.9-8.5-6.7-8.7-12.1l-0.2-4.5l-3,3.3c-3.5,3.9-9.1,6.2-15.4,6.2
			c-3.3,0-6.6-0.6-9.9-1.8C67,71.3,60.2,59.9,63.8,50.5C66.3,43.9,73.5,39.6,82,39.6 M82,37.8c-9.1,0-17,4.4-19.9,12
			c-3.9,10.4,3.3,22.8,16.1,27.7c3.5,1.3,7.1,2,10.5,2c6.7,0,12.8-2.4,16.7-6.8c0.2,6,4,11.5,9.9,13.7c1.8,0.7,3.6,1,5.4,1
			c4.2,0,8.3-1.7,11.1-4.8c0.2,6,4,11.6,9.9,13.8c1.8,0.7,3.6,1,5.4,1c6.2,0,12.1-3.8,14.4-9.9c3-7.9-1-16.8-8.9-19.8
			c-1.8-0.7-3.6-1-5.4-1c-4.2,0-8.3,1.7-11.1,4.8c-0.2-6-4-11.6-9.9-13.8c-1.8-0.7-3.6-1-5.4-1c-4.2,0-8.2,1.7-11.1,4.7
			c-0.1-8.8-6.8-17.7-17.2-21.6C89,38.4,85.4,37.8,82,37.8L82,37.8z"/>
	</g>
	<path class="st3" d="M154.4,78.7c-0.2-1.1-2-0.8-1.8,0.3C152.8,80.2,154.6,79.9,154.4,78.7z"/>
	<path class="st3" d="M150.9,87c-0.3-1.8-3.2-1.3-2.9,0.5C148.4,89.3,151.2,88.8,150.9,87z"/>
	<path class="st4" d="M219.4,213c3.9,3.6,12.1,4.9,15.3-0.4c0.3-0.6-0.3-1.3-0.9-1.1c-4.1,1.2-8.2,2-11.6-1.3
		C220.3,208.4,217.6,211.3,219.4,213z"/>
	<path class="st4" d="M221.8,202.5c0.9-0.3,1.3-0.8,2.1-1.4c0.8-0.5,1.6-0.8,2.5-1c1.9-0.5,3.6-0.2,5.4,0.2c0.4,0.1,0.8-0.4,0.5-0.7
		c-1.2-2.1-3.8-3-6.2-2.9c-2.2,0.1-5.8,1.5-6.3,4C219.6,201.7,220.6,202.9,221.8,202.5z"/>
	<g>
		<path class="st11" d="M159.6,263.3c-15.5,0-29.4-9.8-34.7-24.4c-6.9-19.1,3-40.3,22.1-47.2c4-1.5,8.3-2.2,12.5-2.2
			c11.1,0,21.4,4.9,28.5,13.5l0.9,1.1l0.6-1.3c1.9-4.3,5.4-7.5,9.9-9.1c1.9-0.7,3.9-1,5.9-1c7.2,0,13.8,4.6,16.2,11.4
			c3.2,9-1.4,18.9-10.4,22.1c-1.9,0.7-3.9,1-5.9,1c-2.6,0-5.2-0.6-7.6-1.8l-1.3-0.6l0,1.5c0.1,15.6-9.7,29.6-24.3,34.9
			C168.1,262.5,163.8,263.3,159.6,263.3z"/>
		<path class="st12" d="M159.5,188.6l0,1.8c10.8,0,20.9,4.8,27.8,13.1l1.9,2.3l1.2-2.7c1.8-4.1,5.2-7.2,9.3-8.7c1.8-0.7,3.7-1,5.6-1
			c6.9,0,13,4.3,15.4,10.8c3.1,8.5-1.3,17.9-9.8,20.9c-1.8,0.6-3.7,1-5.5,1c-2.5,0-4.9-0.6-7.2-1.7l-2.6-1.3l0,2.9
			c0.1,15.2-9.4,28.9-23.7,34c-4,1.4-8.1,2.2-12.2,2.2c-15.1,0-28.7-9.5-33.8-23.8c-6.8-18.7,2.9-39.3,21.6-46.1
			c3.9-1.4,8.1-2.2,12.2-2.2V188.6 M159.5,188.6c-4.3,0-8.6,0.7-12.8,2.3c-19.6,7.1-29.8,28.8-22.7,48.4c5.6,15.4,20.1,25,35.6,25
			c4.3,0,8.6-0.7,12.9-2.3c15.5-5.6,25-20.2,24.9-35.8c2.5,1.2,5.2,1.8,8,1.8c2,0,4.1-0.3,6.2-1.1c9.4-3.4,14.3-13.8,10.9-23.3
			c-2.7-7.4-9.7-12-17.1-12c-2.1,0-4.1,0.4-6.2,1.1c-4.8,1.7-8.4,5.3-10.4,9.6C181.6,193.7,170.8,188.6,159.5,188.6L159.5,188.6z"/>
	</g>
	<path class="st4" d="M209.6,216.1l0.2,0.1c1.4,0.5,2.7-1.1,2.3-2.4c-0.4-1.3-2.3-2-3.2-0.8l-0.1,0.2
		C207.4,213.9,208,216.1,209.6,216.1z"/>
	<path class="st4" d="M205.8,201.4c1.7-0.5,1-3.1-0.8-2.7C203.4,199.2,204.1,201.9,205.8,201.4z"/>
	<path class="st5" d="M249.2,122c-4.9-1.7-12.7,0.4-13.4,6.3c-0.1,0.7,0.7,1.1,1.2,0.7c3.2-2.7,6.5-5,10.8-3.4
		C250.2,126.4,251.5,122.8,249.2,122z"/>
	<path class="st5" d="M251.2,132.2c-0.7,0.6-0.8,1.3-1.3,2s-1.1,1.3-1.8,1.9c-1.5,1.1-3.1,1.6-4.9,1.9c-0.4,0.1-0.5,0.6-0.2,0.9
		c1.9,1.4,4.5,1.2,6.6,0.2c2-0.9,4.6-3.6,4-6C253.4,132.1,252.1,131.4,251.2,132.2z"/>
	<g>
		<path class="st13" d="M259.5,139.1c-4.6,0-8.9-1.8-12.1-5.2c-3.1-3.2-4.7-7.5-4.6-11.9c0.1-4.5,2-8.6,5.2-11.7
			c3.1-3,7.2-4.6,11.5-4.6c0.2,0,0.4,0,0.7,0l1.5,0.1l-0.6-1.3c-6.1-13.8-2.9-30.1,8-40.4c6.7-6.4,15.4-9.9,24.7-9.9
			c9.9,0,19.1,3.9,25.9,11.1c13.6,14.3,13,37-1.2,50.6c-6.7,6.3-15.4,9.8-24.6,9.8c-5.6,0-11.2-1.3-16.2-3.9l-1.3-0.7l0,1.5
			c0,4.6-1.9,8.8-5.2,11.9C267.9,137.5,263.8,139.1,259.5,139.1C259.5,139.1,259.5,139.1,259.5,139.1z"/>
		<path class="st14" d="M293.6,55.1c9.6,0,18.6,3.8,25.3,10.8c13.3,13.9,12.7,36-1.2,49.3c-6.5,6.2-15,9.6-24,9.6
			c-5.5,0-10.9-1.3-15.8-3.8l-2.6-1.3l0,2.9c0,4.3-1.8,8.3-4.9,11.3c-3,2.8-6.8,4.4-10.9,4.4c-4.4,0-8.4-1.7-11.5-4.9
			c-6-6.3-5.8-16.3,0.6-22.4c2.9-2.8,6.8-4.3,10.9-4.3c0.2,0,0.4,0,0.6,0l2.9,0.1l-1.2-2.7c-6-13.4-2.9-29.3,7.8-39.4
			C276.1,58.5,284.7,55.1,293.6,55.1 M293.6,53.2c-9.1,0-18.2,3.4-25.3,10.1c-11.5,11-14.3,27.7-8.2,41.5c-0.2,0-0.5,0-0.7,0
			c-4.4,0-8.7,1.6-12.1,4.8c-7.1,6.7-7.3,17.9-0.6,24.9c3.5,3.6,8.1,5.5,12.8,5.5c4.4,0,8.7-1.6,12.2-4.9c3.6-3.4,5.4-8,5.5-12.6
			c5.2,2.6,10.9,4,16.6,4c9.1,0,18.1-3.3,25.2-10.1c14.7-14,15.2-37.2,1.3-51.8C313,57.1,303.3,53.2,293.6,53.2L293.6,53.2z"/>
	</g>
	<path class="st5" d="M267.1,83c-0.8-0.2-1,0.9-0.5,1.4c6.6,5.1,14.4,8.2,20.4,14.1c6.5,6.4,7.9,13.3,10.5,21.6
		c0.4,1.2,2.5,1.1,2.8-0.1C304.7,102.3,282,85.9,267.1,83z"/>
	<path class="st5" d="M275.9,72.6c-0.7-0.1-1,0.9-0.5,1.3c7.3,5.2,14.8,9.2,21,15.7c6.1,6.5,10.3,14.1,13.9,22.2
		c1.3,3,5.6,0.9,4.5-2C309.2,93.2,293.9,75.6,275.9,72.6z"/>
	<path class="st5" d="M287.3,62.7c-1-0.2-1.1,1.4-0.1,1.6c15.9,3.3,27.7,17.5,29.8,33.2c0.4,2.6,4.3,1.9,4-0.7
		C318.7,78.4,305.1,65.8,287.3,62.7z"/>
	<path class="st5" d="M256.7,115.4l-0.2,0c-1.5,0.1-2,2-1.1,3c0.8,1,2.8,0.9,3.2-0.5l0.1-0.2C259.5,116.5,258.1,114.8,256.7,115.4z"
		/>
	<path class="st5" d="M265.8,127c-1.3,1.1,0.4,3.2,1.7,2.1C268.8,128,267.1,125.9,265.8,127z"/>
	<g>
		<path class="st11" d="M161,263.8c-16.2,0-30.7-10.3-36-25.7c-6.9-19.9,3.7-41.6,23.5-48.5c4-1.4,8.2-2.1,12.5-2.1
			c16.2,0,30.7,10.3,36,25.7c3.3,9.6,2.7,20-1.7,29.1c-4.4,9.2-12.2,16-21.8,19.4C169.5,263.1,165.3,263.8,161,263.8z"/>
		<path class="st12" d="M161,186.7v1.8h0c15.8,0,30,10.1,35.1,25c3.3,9.4,2.6,19.5-1.7,28.4c-4.3,8.9-11.9,15.7-21.3,18.9
			c-3.9,1.4-8,2.1-12.2,2.1c-15.8,0-30-10.1-35.2-25c-6.7-19.4,3.6-40.6,23-47.3c3.9-1.4,8-2.1,12.2-2.1L161,186.7 M161,186.7
			c-4.2,0-8.5,0.7-12.8,2.2c-20.4,7-31.2,29.3-24.1,49.6c5.6,16.1,20.7,26.3,36.9,26.3c4.2,0,8.5-0.7,12.8-2.2
			c20.4-7,31.2-29.3,24.1-49.6C192.3,196.8,177.2,186.7,161,186.7L161,186.7z"/>
	</g>
	<g>
		<circle class="st4" cx="189.1" cy="216" r="4.2"/>
		<circle class="st4" cx="170.4" cy="222.5" r="4.2"/>
		<circle class="st4" cx="151.6" cy="229" r="4.2"/>
		<circle class="st4" cx="132.9" cy="235.4" r="4.2"/>
		<circle class="st4" cx="189.1" cy="216" r="4.2"/>
		<circle class="st4" cx="170.4" cy="222.5" r="4.2"/>
		<circle class="st4" cx="175.1" cy="205.9" r="4.2"/>
		<circle class="st4" cx="151.6" cy="229" r="4.2"/>
		<circle class="st4" cx="161.2" cy="195.8" r="4.2"/>
		<circle class="st4" cx="142.4" cy="202.3" r="4.2"/>
		<circle class="st4" cx="156.4" cy="212.4" r="4.2"/>
		<circle class="st4" cx="132.9" cy="235.4" r="4.2"/>
		<circle class="st4" cx="137.7" cy="218.9" r="4.2"/>
		<circle class="st4" cx="146.9" cy="245.5" r="4.2"/>
		<circle class="st4" cx="160.9" cy="255.6" r="4.2"/>
		<circle class="st4" cx="179.6" cy="249.1" r="4.2"/>
		<circle class="st4" cx="165.6" cy="239.1" r="4.2"/>
		<circle class="st4" cx="184.4" cy="232.6" r="4.2"/>
	</g>
</g>
</svg>
