<?xml version="1.0" encoding="utf-8"?>
<!-- Generator: Adobe Illustrator 22.0.1, SVG Export Plug-In . SVG Version: 6.00 Build 0)  -->
<svg version="1.1" id="Layer_1" xmlns="http://www.w3.org/2000/svg" xmlns:xlink="http://www.w3.org/1999/xlink" x="0px" y="0px"
	 viewBox="0 0 400 400" style="enable-background:new 0 0 400 400;" xml:space="preserve">
<style type="text/css">
	.st0{fill:#C2ED69;stroke:#69941B;stroke-width:1.9347;stroke-linecap:round;stroke-linejoin:round;stroke-miterlimit:10;}
	.st1{fill:#8ABB2A;stroke:#69941B;stroke-width:1.9347;stroke-linecap:round;stroke-linejoin:round;stroke-miterlimit:10;}
	.st2{fill:#A5D73C;stroke:#69941B;stroke-width:1.9347;stroke-linecap:round;stroke-linejoin:round;stroke-miterlimit:10;}
	.st3{fill:#E7C42A;stroke:#B0941D;stroke-width:1.9347;stroke-linecap:round;stroke-linejoin:round;stroke-miterlimit:10;}
	.st4{fill:#FEE467;stroke:#B0941D;stroke-width:1.9347;stroke-linecap:round;stroke-linejoin:round;stroke-miterlimit:10;}
	.st5{fill:#FADC3C;stroke:#B0941D;stroke-width:1.9347;stroke-linecap:round;stroke-linejoin:round;stroke-miterlimit:10;}
</style>
<g>
	<g>
		<polygon class="st0" points="116.8,196.1 74.6,221.7 116.8,247.3 159,221.7 		"/>
		<polygon class="st1" points="116.8,247.3 159,221.7 159,264.3 116.8,289.9 		"/>
		<polygon class="st2" points="116.8,247.3 74.6,221.7 74.6,264.3 116.8,289.9 		"/>
	</g>
	<g>
		<polygon class="st0" points="116.8,153.4 74.6,179.1 116.8,204.7 159,179.1 		"/>
		<polygon class="st1" points="116.8,204.7 159,179.1 159,221.6 116.8,247.2 		"/>
		<polygon class="st2" points="116.8,204.7 74.6,179.1 74.6,221.6 116.8,247.2 		"/>
	</g>
	<polygon class="st3" points="74.6,136.4 116.8,110.8 116.8,153.3 74.6,179 	"/>
	<g>
		<polygon class="st0" points="116.8,110.8 74.6,136.4 116.8,162.1 159,136.4 		"/>
		<polygon class="st1" points="116.8,162.1 159,136.4 159,179 116.8,204.6 		"/>
		<polygon class="st2" points="116.8,162.1 74.6,136.4 74.6,179 116.8,204.6 		"/>
	</g>
</g>
<g>
	<polygon class="st4" points="158.5,221.8 116.3,247.4 158.5,273 200.8,247.4 	"/>
	<polygon class="st3" points="158.5,273 200.8,247.4 200.8,289.9 158.5,315.6 	"/>
	<polygon class="st5" points="158.5,273 116.3,247.4 116.3,289.9 158.5,315.6 	"/>
</g>
<g>
	<polygon class="st0" points="200.8,247.4 158.5,273 200.8,298.7 243,273 	"/>
	<polygon class="st1" points="200.8,298.7 243,273 243,315.6 200.8,341.2 	"/>
	<polygon class="st2" points="200.8,298.7 158.5,273 158.5,315.6 200.8,341.2 	"/>
</g>
<g>
	<polygon class="st4" points="158.5,179.1 116.3,204.7 158.5,230.4 200.8,204.7 	"/>
	<polygon class="st3" points="158.5,230.4 200.8,204.7 200.8,247.3 158.5,272.9 	"/>
	<polygon class="st5" points="158.5,230.4 116.3,204.7 116.3,247.3 158.5,272.9 	"/>
</g>
<g>
	<polygon class="st0" points="200.8,204.7 158.5,230.4 200.8,256 243,230.4 	"/>
	<polygon class="st1" points="200.8,256 243,230.4 243,272.9 200.8,298.5 	"/>
	<polygon class="st2" points="200.8,256 158.5,230.4 158.5,272.9 200.8,298.5 	"/>
</g>
<polygon class="st4" points="158.5,136.5 116.3,162.1 158.5,187.7 200.8,162.1 "/>
<polygon class="st3" points="158.5,187.7 200.8,162.1 200.8,204.6 158.5,230.3 "/>
<polygon class="st5" points="158.5,187.7 116.3,162.1 116.3,204.6 158.5,230.3 "/>
<polygon class="st4" points="158.5,93.8 116.3,119.4 158.5,145.1 200.8,119.4 "/>
<polygon class="st3" points="158.5,145.1 200.8,119.5 200.8,162 158.5,187.6 "/>
<polygon class="st5" points="158.5,145.1 116.3,119.5 116.3,162 158.5,187.6 "/>
<polygon class="st4" points="158.5,51.2 116.3,76.8 158.5,102.4 200.8,76.8 "/>
<polygon class="st3" points="158.5,102.4 200.8,76.8 200.8,119.3 158.5,145 "/>
<polygon class="st5" points="158.5,102.4 116.3,76.8 116.3,119.3 158.5,145 "/>
<polygon class="st4" points="158.5,8.5 116.3,34.2 158.5,59.8 200.8,34.2 "/>
<polygon class="st3" points="158.5,59.8 200.8,34.2 200.8,76.7 158.5,102.3 "/>
<polygon class="st5" points="158.5,59.8 116.3,34.2 116.3,76.7 158.5,102.3 "/>
<g>
	<polygon class="st0" points="200.8,162.1 158.5,187.7 200.8,213.4 243,187.7 	"/>
	<polygon class="st1" points="200.8,213.4 243,187.7 243,230.3 200.8,255.9 	"/>
	<polygon class="st2" points="200.8,213.4 158.5,187.7 158.5,230.3 200.8,255.9 	"/>
</g>
<g>
	<g>
		<polygon class="st4" points="242.5,273.1 200.3,298.7 242.5,324.3 284.8,298.7 		"/>
		<polygon class="st3" points="242.5,324.3 284.8,298.7 284.8,341.2 242.5,366.9 		"/>
		<polygon class="st5" points="242.5,324.3 200.3,298.7 200.3,341.2 242.5,366.9 		"/>
	</g>
	<g>
		<polygon class="st0" points="284.8,298.7 242.5,324.3 284.8,350 327,324.3 		"/>
		<polygon class="st1" points="284.8,350 327,324.3 327,366.9 284.8,392.5 		"/>
		<polygon class="st2" points="284.8,350 242.5,324.3 242.5,366.9 284.8,392.5 		"/>
	</g>
</g>
<g>
	<g>
		<polygon class="st4" points="242.5,230.4 200.3,256 242.5,281.7 284.8,256 		"/>
		<polygon class="st3" points="242.5,281.7 284.8,256.1 284.8,298.6 242.5,324.2 		"/>
		<polygon class="st5" points="242.5,281.7 200.3,256.1 200.3,298.6 242.5,324.2 		"/>
	</g>
	<g>
		<polygon class="st0" points="284.8,256.1 242.5,281.7 284.8,307.3 327,281.7 		"/>
		<polygon class="st1" points="284.8,307.3 327,281.7 327,324.2 284.8,349.8 		"/>
		<polygon class="st2" points="284.8,307.3 242.5,281.7 242.5,324.2 284.8,349.8 		"/>
	</g>
</g>
<g>
	<polygon class="st4" points="242.5,187.8 200.3,213.4 242.5,239 284.8,213.4 	"/>
	<polygon class="st3" points="242.5,239 284.8,213.4 284.8,255.9 242.5,281.6 	"/>
	<polygon class="st5" points="242.5,239 200.3,213.4 200.3,255.9 242.5,281.6 	"/>
</g>
<g>
	<polygon class="st4" points="242.5,145.1 200.3,170.8 242.5,196.4 284.8,170.8 	"/>
	<polygon class="st3" points="242.5,196.4 284.8,170.8 284.8,213.3 242.5,238.9 	"/>
	<polygon class="st5" points="242.5,196.4 200.3,170.8 200.3,213.3 242.5,238.9 	"/>
</g>
<g>
	<polygon class="st4" points="242.5,102.5 200.3,128.1 242.5,153.7 284.8,128.1 	"/>
	<polygon class="st3" points="242.5,153.7 284.8,128.1 284.8,170.6 242.5,196.3 	"/>
	<polygon class="st5" points="242.5,153.7 200.3,128.1 200.3,170.6 242.5,196.3 	"/>
</g>
<g>
	<polygon class="st4" points="242.5,59.8 200.3,85.5 242.5,111.1 284.8,85.5 	"/>
	<polygon class="st3" points="242.5,111.1 284.8,85.5 284.8,128 242.5,153.6 	"/>
	<polygon class="st5" points="242.5,111.1 200.3,85.5 200.3,128 242.5,153.6 	"/>
</g>
<g>
	<polygon class="st0" points="284.8,213.4 242.5,239 284.8,264.7 327,239 	"/>
	<polygon class="st1" points="284.8,264.7 327,239 327,281.6 284.8,307.2 	"/>
	<polygon class="st2" points="284.8,264.7 242.5,239 242.5,281.6 284.8,307.2 	"/>
</g>
</svg>
