<?xml version="1.0" encoding="utf-8"?>
<!-- Generator: Adobe Illustrator 22.0.1, SVG Export Plug-In . SVG Version: 6.00 Build 0)  -->
<svg version="1.1" id="Layer_1" xmlns="http://www.w3.org/2000/svg" xmlns:xlink="http://www.w3.org/1999/xlink" x="0px" y="0px"
	 viewBox="0 0 400 400" style="enable-background:new 0 0 400 400;" xml:space="preserve">
<style type="text/css">
	.st0{fill:#FFFFFF;stroke:#FFFFFF;stroke-width:10;stroke-linecap:round;stroke-linejoin:round;stroke-miterlimit:10;}
	.st1{fill:#F86A00;stroke:#C44412;stroke-width:2.9936;stroke-miterlimit:10;}
	.st2{fill:#00CDC8;stroke:#1CA49D;stroke-width:3;stroke-linecap:round;stroke-miterlimit:10;}
	.st3{fill:#A5D73C;stroke:#69941B;stroke-width:3;stroke-miterlimit:10;}
	.st4{fill:none;stroke:#40123E;stroke-width:3;stroke-miterlimit:10;}
	.st5{fill:#F24044;}
	.st6{fill:#B3040F;}
</style>
<g>
	<polygon class="st0" points="197.2,96.5 122.1,96.5 122.1,175.2 122.1,175.2 122.1,246.6 122.1,246.6 122.1,325.3 122.4,325.3 
		122.4,364.1 159.8,364.1 163.2,364.1 197.3,364.1 200.6,364.1 234.8,364.1 238.1,364.1 275.6,364.1 275.6,325.3 275.9,325.3 
		275.9,246.6 275.9,246.6 275.9,175.2 275.9,175.2 275.9,96.5 200.8,96.5 	"/>
	<rect x="103.9" y="55.6" class="st0" width="40.8" height="40.8"/>
	<polygon class="st0" points="179,55.6 179,96.4 219.8,96.4 219.8,55.6 201.5,55.6 201.5,4.4 198.5,4.4 198.5,55.6 	"/>
	<rect x="253.3" y="55.6" class="st0" width="40.8" height="40.8"/>
	<path class="st0" d="M141.9,41.1h49.2c3,0,5.4-2.4,5.4-5.4V12c0.1-3.1-2.5-5.4-5.4-5.4c-0.8,0-1.6,0.2-2.4,0.5l-49.2,23.7
		C134.3,33.3,136.1,41.1,141.9,41.1z"/>
</g>
<rect x="123.6" y="173.6" class="st1" width="37.7" height="74.3"/>
<rect x="161.3" y="173.6" class="st1" width="37.7" height="74.3"/>
<rect x="199" y="173.6" class="st1" width="37.7" height="74.3"/>
<rect x="236.7" y="173.6" class="st1" width="37.7" height="74.3"/>
<rect x="123.6" y="248.1" class="st2" width="75.7" height="75.7"/>
<rect x="198.7" y="248.1" class="st2" width="75.7" height="75.7"/>
<rect x="123.6" y="98" class="st2" width="75.7" height="75.7"/>
<rect x="198.7" y="98" class="st2" width="75.7" height="75.7"/>
<rect x="123.9" y="323.3" class="st3" width="37.8" height="39.3"/>
<rect x="161.3" y="323.3" class="st3" width="37.8" height="39.3"/>
<rect x="198.8" y="323.3" class="st3" width="37.8" height="39.3"/>
<rect x="236.3" y="323.3" class="st3" width="37.8" height="39.3"/>
<g>
	<line class="st4" x1="200" y1="4.4" x2="200" y2="82.2"/>
</g>
<rect x="105.4" y="57.1" class="st3" width="37.8" height="37.8"/>
<rect x="180.5" y="57.1" class="st3" width="37.8" height="37.8"/>
<rect x="254.8" y="57.1" class="st3" width="37.8" height="37.8"/>
<g>
	<path class="st5" d="M141.9,39.7c-2.3,0-3.5-1.6-3.8-3.1s0-3.4,2.1-4.4l49.2-23.7c0.5-0.3,1.1-0.4,1.7-0.4c1.9,0,3.9,1.5,3.9,3.9
		v23.7c0,2.2-1.8,3.9-3.9,3.9L141.9,39.7L141.9,39.7z"/>
	<path class="st6" d="M191.1,9.6c1.2,0,2.4,0.9,2.4,2.4v23.7c0,1.3-1.1,2.4-2.4,2.4h-49.2c-1.8,0-2.3-1.5-2.4-1.9
		c-0.1-0.4-0.3-2,1.3-2.7L190,9.8C190.4,9.7,190.7,9.6,191.1,9.6 M191.1,6.6c-0.8,0-1.6,0.2-2.4,0.5l-49.2,23.7
		c-5.2,2.5-3.4,10.3,2.4,10.3h49.2c3,0,5.4-2.4,5.4-5.4V12C196.6,8.9,194,6.6,191.1,6.6L191.1,6.6z"/>
</g>
</svg>
