<?xml version="1.0" encoding="utf-8"?>
<!-- Generator: Adobe Illustrator 22.0.1, SVG Export Plug-In . SVG Version: 6.00 Build 0)  -->
<svg version="1.1" id="Layer_1" xmlns="http://www.w3.org/2000/svg" xmlns:xlink="http://www.w3.org/1999/xlink" x="0px" y="0px"
	 viewBox="0 0 400 500" style="enable-background:new 0 0 400 500;" xml:space="preserve">
<style type="text/css">
	.st0{fill:#A5D73C;}
	.st1{fill:#FFFFFF;}
	.st2{font-family:'Nunito-Bold';}
	.st3{font-size:20.6166px;}
	.st4{opacity:0.1;}
	.st5{fill:#00CDC8;}
	.st6{fill:#FC6A6C;}
	.st7{font-size:42.4826px;}
</style>
<g>
	<g>
		<path class="st0" d="M291.5,493H101.8c-7.9,0-14.3-6.4-14.3-14.3l0,0c0-7.9,6.4-14.3,14.3-14.3h189.7c7.9,0,14.3,6.4,14.3,14.3
			l0,0C305.8,486.6,299.4,493,291.5,493z"/>
	</g>
	<g>
		<text transform="matrix(1 0 0 1 129.6235 484.4932)" class="st1 st2 st3">es menor que</text>
	</g>
	<g>
		<g class="st4">
			<path d="M296.8,116.4H107.1c-7.9,0-14.3,6.4-14.3,14.3l0,0c0,7.9,6.4,14.3,14.3,14.3h189.7c7.9,0,14.3-6.4,14.3-14.3l0,0
				C311.1,122.8,304.7,116.4,296.8,116.4z"/>
			<path d="M296.8,294.3H107.1c-7.9,0-14.3,6.4-14.3,14.3c0,7.9,6.4,14.3,14.3,14.3h189.7c7.9,0,14.3-6.4,14.3-14.3
				C311.1,300.7,304.7,294.3,296.8,294.3z"/>
			<rect x="157.9" y="240.6" width="80.6" height="12.4"/>
			<rect x="157.9" y="209.7" width="80.6" height="12.4"/>
			<polygon points="236.4,367 159.4,399.4 159.4,411.3 236.4,443.7 236.4,429.5 178.9,405.7 236.4,381 			"/>
			<polygon points="240.2,45.4 163.2,13 163.2,27.2 220.7,51 163.2,75.7 163.2,89.7 240.2,57.3 			"/>
			<circle cx="40.1" cy="49" r="28.6"/>
			<ellipse cx="362.8" cy="49" rx="28.6" ry="28.6"/>
			<circle cx="40.1" cy="230.2" r="28.6"/>
			<ellipse cx="362.8" cy="230.3" rx="28.6" ry="28.6"/>
			<ellipse cx="362.8" cy="405.4" rx="28.6" ry="28.6"/>
			<circle cx="39.5" cy="405.4" r="28.6"/>
		</g>
		<g>
			<circle class="st5" cx="37.8" cy="46.6" r="28.6"/>
		</g>
		<g>
			<circle class="st6" cx="360.4" cy="46.6" r="28.6"/>
		</g>
		<g>
			<g>
				<circle class="st5" cx="37.8" cy="227.9" r="28.6"/>
			</g>
		</g>
		<g>
			<circle class="st5" cx="360.4" cy="227.9" r="28.6"/>
		</g>
		<g>
			<circle class="st5" cx="360.4" cy="403" r="28.6"/>
		</g>
		<g>
			<circle class="st6" cx="37.2" cy="403" r="28.6"/>
		</g>
	</g>
	<g>
		<g class="st4">
			<circle cx="125.2" cy="22.9" r="14.8"/>
			<circle cx="125.2" cy="72.5" r="14.8"/>
		</g>
		<g>
			<circle class="st5" cx="122.8" cy="21.8" r="14.8"/>
			<circle class="st5" cx="122.8" cy="71.3" r="14.8"/>
		</g>
		<g class="st4">
			<circle cx="125.2" cy="206.7" r="14.8"/>
			<circle cx="125.2" cy="256.3" r="14.8"/>
		</g>
		<g>
			<circle class="st5" cx="122.8" cy="205.5" r="14.8"/>
			<circle class="st5" cx="122.8" cy="255" r="14.8"/>
		</g>
		<g class="st4">
			<ellipse transform="matrix(0.1602 -0.9871 0.9871 0.1602 27.7729 446.013)" cx="276" cy="206.7" rx="14.8" ry="14.8"/>
			<ellipse transform="matrix(0.1602 -0.9871 0.9871 0.1602 -21.1677 487.6518)" cx="276" cy="256.3" rx="14.8" ry="14.8"/>
		</g>
		<g>
			<circle class="st5" cx="273.5" cy="205.5" r="14.8"/>
			<circle class="st5" cx="273.5" cy="255" r="14.8"/>
		</g>
		<g class="st4">
			<ellipse transform="matrix(0.1602 -0.9871 0.9871 0.1602 -143.1155 591.4055)" cx="276" cy="379.8" rx="14.8" ry="14.8"/>
			<ellipse transform="matrix(0.1602 -0.9871 0.9871 0.1602 -192.0561 633.0443)" cx="276" cy="429.4" rx="14.8" ry="14.8"/>
		</g>
		<g>
			<circle class="st5" cx="273.5" cy="378.6" r="14.8"/>
			<circle class="st5" cx="273.5" cy="428.2" r="14.8"/>
		</g>
		<g class="st4">
			<circle cx="274.8" cy="50.7" r="14.8"/>
		</g>
		<g>
			<circle class="st6" cx="273" cy="49" r="14.8"/>
		</g>
		<g class="st4">
			<circle cx="124.5" cy="402.4" r="14.8"/>
		</g>
		<g>
			<circle class="st6" cx="122.8" cy="400.5" r="14.8"/>
		</g>
	</g>
	<g>
		<path class="st0" d="M291.5,142.7H101.8c-7.9,0-14.3-6.4-14.3-14.3l0,0c0-7.9,6.4-14.3,14.3-14.3h189.7c7.9,0,14.3,6.4,14.3,14.3
			l0,0C305.8,136.1,299.4,142.7,291.5,142.7z"/>
	</g>
	<g>
		<path class="st0" d="M291.5,320.6H101.8c-7.9,0-14.3-6.4-14.3-14.3l0,0c0-7.9,6.4-14.3,14.3-14.3h189.7c7.9,0,14.3,6.4,14.3,14.3
			l0,0C305.8,314.2,299.4,320.6,291.5,320.6z"/>
	</g>
	<rect x="155.2" y="207.2" class="st0" width="80.6" height="12.4"/>
	<rect x="155.2" y="238.1" class="st0" width="80.6" height="12.4"/>
	<polygon class="st0" points="234,378.7 234,364.6 157.1,397 157.1,409 234,441.4 234,427.1 176.6,403.2 	"/>
	<polygon class="st0" points="157.1,73.2 157.1,87.4 234,54.9 234,43 157.1,10.5 157.1,24.8 214.6,48.7 	"/>
	<text transform="matrix(1 0 0 1 130.1382 134.248)" class="st1 st2 st3">es mayor que</text>
	<g>
		<text transform="matrix(1 0 0 1 136.9937 312.7178)" class="st1 st2 st3">es igual que</text>
	</g>
	<g>
		<text transform="matrix(1 0 0 1 24.9517 60.7236)" class="st1 st2 st7">2</text>
	</g>
	<g>
		<text transform="matrix(1 0 0 1 24.9517 242.0312)" class="st1 st2 st7">2</text>
	</g>
	<g>
		<text transform="matrix(1 0 0 1 349.4414 242.0312)" class="st1 st2 st7">2</text>
	</g>
	<g>
		<text transform="matrix(1 0 0 1 347.6816 60.7236)" class="st1 st2 st7">1</text>
	</g>
	<g>
		<text transform="matrix(1 0 0 1 24.4087 418.9424)" class="st1 st2 st7">1</text>
	</g>
	<g>
		<text transform="matrix(1 0 0 1 347.4932 418.9424)" class="st1 st2 st7">2</text>
	</g>
</g>
</svg>
