<?xml version="1.0" encoding="utf-8"?>
<!-- Generator: Adobe Illustrator 22.0.1, SVG Export Plug-In . SVG Version: 6.00 Build 0)  -->
<svg version="1.1" id="Layer_1" xmlns="http://www.w3.org/2000/svg" xmlns:xlink="http://www.w3.org/1999/xlink" x="0px" y="0px"
	 viewBox="0 0 400 400" style="enable-background:new 0 0 400 400;" xml:space="preserve">
<style type="text/css">
	.st0{fill:#FFFFFF;stroke:#FFFFFF;stroke-width:10;stroke-linecap:round;stroke-linejoin:round;stroke-miterlimit:10;}
	.st1{fill:#FFC954;}
	.st2{fill:#490A3D;}
	.st3{fill:#A6CF3E;}
	.st4{fill:#EF4245;}
	.st5{fill:#3CBFBF;}
	.st6{opacity:0.1;}
	.st7{fill:#010101;}
</style>
<g>
	<path class="st0" d="M126.2,118.7c0-0.7-0.1-1.4-0.3-2c-0.2-1.1-0.7-2.1-1.4-2.9c0.2-1.3,0.3-2.5,0.3-3.8c0-1.4-0.1-2.7-0.3-4.1
		c0-0.1,0-0.1,0-0.2s0-0.2-0.1-0.3c-1.8-10.9-10.8-19.2-21.6-19.2c-12.1,0-21.9,10.4-21.9,23.2c0,1.2,0.1,2.5,0.3,3.7
		c-1.5,1.1-2.5,3-2.5,5.1c0,2.7,1.6,4.9,3.7,5.8c-1,2.7-1.6,5.7-1.6,8.8c0,1.2,0.1,2.5,0.3,3.7c-1.5,1.1-2.5,3-2.5,5.1
		c0,2.7,1.7,5.1,3.9,5.9c-1,2.7-1.6,5.7-1.6,8.8c0,1.2,0.1,2.5,0.3,3.7c-1.5,1.1-2.5,3-2.5,5.1c0,2.4,1.3,4.4,3.1,5.5
		c-0.6,2.1-0.9,4.2-0.9,6.5c0,0.4,0,0.8,0,1.2c0,0.5,0,1,0,1.4s0,0.9,0.1,1.3c-1.4,1.1-2.3,2.9-2.3,4.9c0,0.5,0,0.9,0.1,1.3
		c-0.1,0.4-0.1,0.8-0.1,1.3c0,2.4,1.3,4.4,3.1,5.5c-0.6,2.1-0.9,4.2-0.9,6.5c0,1.2,0.1,2.5,0.3,3.7c-1.5,1.1-2.5,3-2.5,5.1
		c0,2.7,1.6,4.9,3.8,5.9c-1.1,2.7-1.7,5.7-1.7,8.8c0,1.2,0.1,2.5,0.3,3.7c-1.5,1.1-2.5,3-2.5,5.1c0,2.7,1.6,5,3.9,5.9
		c-1,2.7-1.6,5.6-1.6,8.7c0,1.2,0.1,2.5,0.3,3.7c-1.5,1.1-2.5,3-2.5,5.1c0,2.7,1.6,5,3.8,5.9c-1.1,2.7-1.6,5.7-1.6,8.8
		c0,1.2,0.1,2.5,0.3,3.7c-1.5,1.1-2.5,3-2.5,5.1c0,2.7,1.6,5,3.8,5.9c-1,2.7-1.6,5.6-1.6,8.7c0,1.2,0.1,2.5,0.3,3.7
		c-1.5,1.1-2.5,3-2.5,5.1c0,3.5,2.7,6.3,5.9,6.3c0.4,0,0.8-0.1,1.2-0.2l15.8,75.1l15.9-75.6c0.6,0.3,1.2,0.5,1.9,0.6
		c0.2,0,0.5,0.1,0.7,0.1l0,0l0,0c1.2,0,2.4-0.4,3.3-1.1c0.5-0.3,0.9-0.7,1.2-1.2c0.2-0.3,0.5-0.6,0.6-1c0.4-0.9,0.7-1.9,0.7-3
		c0.1-1.8-0.6-3.4-1.7-4.6c0.2-1.4,0.4-2.8,0.4-4.2c0-3.2-0.6-6.3-1.7-9.1c1.6-0.9,2.7-2.6,3-4.6v-0.1c0-0.3,0.1-0.5,0.1-0.8
		c0.1-1.9-0.6-3.5-1.7-4.6c0.2-1.4,0.4-2.8,0.4-4.2c0-3.2-0.6-6.3-1.7-9.1c1.6-0.9,2.8-2.8,3-4.9c0-0.1,0-0.3,0-0.4s0-0.1,0-0.2l0,0
		c0,0,0,0,0-0.1c0.1-1.8-0.6-3.4-1.7-4.6c0.2-1.4,0.4-2.8,0.4-4.2c0-3.2-0.6-6.2-1.7-9c1.8-1,3-3.2,3-5.5c0-0.3,0-0.7-0.1-1
		c-0.1-1.5-0.7-2.8-1.6-3.7c0.2-1.4,0.4-2.8,0.4-4.2c0-3.2-0.6-6.2-1.7-9c1.8-1,3-3.2,3-5.5v-0.1v-0.1c0.1-1.8-0.6-3.4-1.7-4.6
		c0.2-1.4,0.4-2.8,0.4-4.2c0-2.3-0.3-4.6-0.9-6.7c1.4-1.1,2.3-2.9,2.3-5c0-0.5,0-0.9-0.1-1.3c0.1-0.4,0.1-0.9,0.1-1.3
		c0-0.4,0-0.8-0.1-1.2c-0.1-1.3-0.6-2.4-1.4-3.3c0-0.5,0.1-1,0.1-1.6c0-0.1,0-0.3,0-0.4l0,0l0,0c0-0.3,0-0.6,0-0.9
		c0-0.4,0-0.9,0-1.3c0-0.1,0-0.1,0-0.2c0-0.1,0-0.1,0-0.2c0-2.3-0.3-4.5-0.9-6.6c1.4-1.1,2.4-3,2.4-5c0-0.8-0.1-1.5-0.4-2.2
		c-0.2-1-0.7-2-1.4-2.7c0.2-1.3,0.4-2.6,0.4-3.9c0-1.4-0.1-2.7-0.4-4l0,0c0-0.3-0.1-0.6-0.1-0.8c-0.3-1.5-0.7-2.9-1.2-4.3
		c1.8-1,3.1-3.2,3.1-5.5c0-0.8-0.1-1.6-0.4-2.2c-0.2-1-0.7-1.9-1.3-2.7c0.2-1.3,0.3-2.5,0.3-3.8c0-1.2-0.1-2.4-0.3-3.5
		c-0.2-2-0.7-3.9-1.4-5.6C125,123.2,126.2,121,126.2,118.7z"/>
	<path class="st0" d="M308.8,256.3c0-0.4,0-0.7-0.1-1c-0.1-1.4-0.7-2.7-1.7-3.6c0.2-1.3,0.4-2.7,0.4-4v-0.1v-0.1
		c0-12.8-9.8-23.2-21.9-23.2s-21.9,10.4-21.9,23.2c0,1.2,0.1,2.5,0.3,3.7c-1.5,1.1-2.5,3-2.5,5.1c0,2.7,1.6,5,3.8,5.9
		c-1.1,2.7-1.6,5.7-1.6,8.8c0,1.2,0.1,2.5,0.3,3.7c-1.5,1.1-2.5,3-2.5,5.1c0,2.7,1.6,5,3.8,5.9c-1,2.7-1.6,5.6-1.6,8.7
		c0,1.2,0.1,2.5,0.3,3.7c-1.5,1.1-2.5,3-2.5,5.1c0,3.5,2.7,6.3,5.9,6.3c0.5,0,0.8-0.1,1.3-0.2l15.8,75.1l3.4-16.1v0.1l12.5-59.3
		c0.3,0,0.6,0,0.9,0.1s0.6,0.2,0.9,0.2c0.2,0,0.5,0.1,0.7,0.1c0,0,0,0,0.1,0l0,0c3.3,0,5.9-2.8,5.9-6.3c0-0.4,0-0.8-0.1-1.1
		c-0.1-1.3-0.8-2.5-1.7-3.5c0.2-1.4,0.4-2.7,0.4-4.1l0,0c0,0,0,0,0-0.1c0-3.2-0.6-6.3-1.7-9c1.9-1,3.1-3.2,3.1-5.6
		c0-0.4,0-0.7-0.1-1.1c-0.1-1.4-0.7-2.6-1.7-3.5c0.2-1.4,0.4-2.7,0.4-4.1l0,0c0,0,0,0,0-0.1c0-3.2-0.6-6.3-1.7-9
		C307.5,260.8,308.8,258.7,308.8,256.3z"/>
	<path class="st0" d="M370,71.6c0-0.7-0.1-1.4-0.3-2c-0.2-1.1-0.7-2.1-1.4-2.9c0.2-1.3,0.3-2.5,0.3-3.8c0-1.2-0.1-2.4-0.3-3.6
		c-0.2-2-0.7-3.9-1.4-5.6c1.8-1,3.1-3.2,3.1-5.5c0-0.7-0.1-1.4-0.3-2c-0.2-1.1-0.7-2.1-1.4-2.9c0.2-1.3,0.3-2.5,0.3-3.8
		c0-1.4-0.1-2.8-0.3-4.1c0-0.1,0-0.1,0-0.2c0-0.1,0-0.2-0.1-0.4c-1.8-10.9-10.8-19.2-21.6-19.2c-12.1,0-21.9,10.4-21.9,23.2
		c0,1.2,0.1,2.5,0.3,3.7c-1.5,1.1-2.5,3-2.5,5.1c0,2.7,1.6,5,3.8,5.9c-1,2.7-1.6,5.6-1.6,8.7c0,1.2,0.1,2.5,0.3,3.7
		c-1.5,1.1-2.5,3-2.5,5.1c0,2.7,1.6,4.9,3.8,5.9c-1.1,2.7-1.7,5.7-1.7,8.8c0,1.2,0.1,2.5,0.3,3.7c-1.5,1.1-2.5,3-2.5,5.1
		c0,2.4,1.3,4.5,3.2,5.6c-0.6,2.1-0.9,4.3-0.9,6.5c0,1.2,0.1,2.5,0.3,3.7c-1.5,1.1-2.5,3-2.5,5.1c0,2.7,1.6,5,3.8,5.9
		c-1.1,2.7-1.6,5.7-1.6,8.8c0,1.2,0.1,2.5,0.3,3.7c-1.5,1.1-2.5,3-2.5,5.1c0,2.7,1.6,5,3.8,5.9c-1,2.7-1.6,5.6-1.6,8.7
		c0,1.2,0.1,2.5,0.3,3.7c-1.5,1.1-2.5,3-2.5,5.1c0,2.7,1.6,5,3.8,5.9c-1.1,2.7-1.6,5.7-1.6,8.8c0,1.2,0.1,2.5,0.3,3.7
		c-1.5,1.1-2.5,3-2.5,5.1c0,2.7,1.6,5,3.8,5.9c-1,2.7-1.6,5.6-1.6,8.7c0,1.2,0.1,2.5,0.3,3.7c-1.5,1.1-2.5,3-2.5,5.1
		c0,2.7,1.6,5,3.8,5.9c-1.1,2.7-1.6,5.7-1.6,8.8c0,1.2,0.1,2.5,0.3,3.7c-1.5,1.1-2.5,3-2.5,5.1c0,2.7,1.6,5,3.8,5.9
		c-1,2.7-1.6,5.6-1.6,8.7c0,1.2,0.1,2.5,0.3,3.7c-1.5,1.1-2.5,3-2.5,5.1c0,2.7,1.6,5,3.8,5.9c-1.1,2.7-1.6,5.7-1.6,8.8
		c0,1.2,0.1,2.5,0.3,3.7c-1.5,1.1-2.5,3-2.5,5.1c0,2.7,1.6,5,3.8,5.9c-1,2.7-1.6,5.6-1.6,8.7c0,1.2,0.1,2.5,0.3,3.7
		c-1.5,1.1-2.5,3-2.5,5.1c0,3.5,2.7,6.3,5.9,6.3c0.4,0,0.8-0.1,1.2-0.2l15.8,75.1l3.4-16.1l0.2,1l12.5-59.3c0.3-0.8,0.9-0.7,1.5-0.7
		c0.1,0,0.2,0,0.2,0.1c0.2,0,0.5,0.1,0.7,0.1c0,0,0,0,0.1,0l0,0c3.3,0,5.9-2.8,5.9-6.3c0-1-0.2-2-0.6-2.8c-0.3-0.7-0.7-1.2-1.2-1.8
		c0.2-1.4,0.4-2.7,0.4-4.1l0,0c0,0,0,0,0-0.1c0-3.2-0.6-6.3-1.7-9c1.9-1,3.1-3.2,3.1-5.6c0-0.7-0.1-1.4-0.3-2
		c-0.3-1-0.8-1.9-1.5-2.6c0.2-1.4,0.4-2.7,0.4-4.1l0,0c0,0,0,0,0-0.1c0-3.2-0.6-6.3-1.7-9c1.9-1,3.1-3.2,3.1-5.6
		c0-0.7-0.1-1.3-0.3-1.9c-0.3-1-0.8-2-1.5-2.7c0.2-1.3,0.4-2.7,0.4-4v-0.1v-0.1c0-3.2-0.6-6.2-1.7-9c1.8-1,3.1-3.2,3.1-5.5
		c0-0.5-0.1-1.1-0.2-1.6c-0.2-1.2-0.8-2.3-1.6-3.1c0.2-1.3,0.4-2.7,0.4-4v-0.1V224c0-3.2-0.6-6.2-1.7-9c1.8-1,3.1-3.2,3.1-5.5
		c0-0.5-0.1-1-0.2-1.5c-0.2-1.3-0.8-2.4-1.6-3.3c0.2-1.3,0.4-2.6,0.4-3.9v-0.1c0-0.1,0-0.1,0-0.2c0-3.1-0.6-6.1-1.7-8.9
		c1.8-1,3.1-3.2,3.1-5.5c0-0.5-0.1-1-0.2-1.4c-0.2-1.3-0.8-2.5-1.6-3.3c0.2-1.3,0.4-2.6,0.4-3.9v-0.1c0-0.1,0-0.1,0-0.2
		c0-3.1-0.6-6.1-1.7-8.9c1.8-1,3.1-3.2,3.1-5.5c0-0.5-0.1-0.9-0.1-1.4c-0.2-1.3-0.8-2.5-1.6-3.5c0.2-1.3,0.4-2.6,0.4-3.9
		c0-0.1,0-0.1,0-0.2c0-0.1,0-0.2,0-0.2c0-3.1-0.6-6.1-1.6-8.8c1.8-1,3-3.2,3-5.5c0-0.5,0-0.9-0.1-1.3c-0.2-1.4-0.8-2.6-1.6-3.5
		c0.2-1.3,0.4-2.6,0.4-3.9c0-0.1,0-0.1,0-0.2c0-0.1,0-0.2,0-0.2c0-3.1-0.6-6.1-1.6-8.8c1.8-1,3-3.2,3-5.5c0-0.4,0-0.9-0.1-1.3
		c-0.1-1.4-0.7-2.7-1.6-3.6c0.2-1.3,0.3-2.5,0.3-3.8c0-0.1,0-0.2,0-0.2c0-0.1,0-0.2,0-0.3c0-2.3-0.3-4.6-0.9-6.7
		c1.5-1.1,2.4-3,2.4-5c0-0.8-0.2-1.6-0.4-2.3c-0.2-1-0.7-1.8-1.3-2.5c0.2-1.3,0.4-2.6,0.4-3.9c0-1.4-0.1-2.7-0.4-4l0,0
		c0-0.3-0.1-0.6-0.1-0.9c-0.3-1.5-0.7-2.9-1.2-4.3C368.7,76.1,370,74,370,71.6z"/>
	<path class="st0" d="M65.8,162.9c0-1-0.2-2-0.6-2.8c-0.3-0.7-0.6-1.4-1.1-2c0.2-1.3,0.4-2.6,0.4-3.9c0-2.8-0.5-5.6-1.4-8.1
		c-2.9-9.1-11.1-15.7-20.7-15.7c-12.1,0-21.9,10.4-21.9,23.2c0,1.2,0.1,2.5,0.3,3.7c-1.5,1.1-2.5,3-2.5,5.1c0,2.7,1.6,5,3.8,5.9
		c-1.1,2.7-1.6,5.7-1.6,8.8c0,0.4,0,0.8,0,1.2c0,0.5,0,1,0,1.4s0,0.9,0.1,1.3c-1.4,1.1-2.3,2.9-2.3,4.9c0,0.5,0,0.9,0.1,1.3
		c-0.1,0.4-0.1,0.8-0.1,1.3c0,2.4,1.3,4.4,3.1,5.5c-0.6,2.1-0.9,4.2-0.9,6.5c0,1.2,0.1,2.5,0.3,3.7c-1.5,1.1-2.5,3-2.5,5.1
		c0,3.1,2.1,5.7,4.9,6.2c-1.7,3.3-2.7,7.1-2.7,11.1c0,1.2,0.1,2.5,0.3,3.7c-1.5,1.1-2.5,3-2.5,5.1c0,2.7,1.6,5,3.8,5.9
		c-1.1,2.7-1.6,5.7-1.6,8.8c0,1.2,0.1,2.5,0.3,3.7c-1.5,1.1-2.5,3-2.5,5.1c0,2.4,1.3,4.4,3.1,5.5c-0.6,2.1-0.9,4.2-0.9,6.5
		c0,1.2,0.1,2.5,0.3,3.7c-1.5,1.1-2.5,3-2.5,5.1c0,2.7,1.6,5,3.8,5.9c-1,2.7-1.6,5.6-1.6,8.7c0,1.2,0.1,2.5,0.3,3.7
		c-1.5,1.1-2.5,3-2.5,5.1c0,3.5,2.7,6.3,5.9,6.3c0.4,0,0.8-0.1,1.2-0.2l15.8,75.1L57,308.7c0.6,0.3,1.2,0.5,1.9,0.6
		c0.2,0,0.5,0.1,0.7,0.1c3.3,0,5.9-2.8,5.9-6.3c0.1-1.8-0.6-3.4-1.7-4.6c0.2-1.4,0.4-2.8,0.4-4.2c0-3.2-0.6-6.3-1.7-9.1
		c1.6-0.9,2.7-2.6,3-4.6v-0.1c0-0.3,0.1-0.5,0.1-0.8c0.1-1.9-0.6-3.5-1.7-4.6c0.2-1.4,0.4-2.8,0.4-4.2c0-2.4-0.3-4.7-1-6.9
		c1.4-1.1,2.4-3,2.4-5c0-0.5-0.1-1.1-0.2-1.6c-0.2-1.3-0.8-2.3-1.6-3.1c0.2-1.3,0.4-2.7,0.4-4v-0.1v-0.1c0-3.2-0.6-6.2-1.7-9
		c1.8-1,3.1-3.2,3.1-5.5c0-0.5-0.1-1-0.2-1.5c-0.2-1.3-0.8-2.4-1.6-3.3c0.2-1.3,0.4-2.6,0.4-3.9c0-0.1,0-0.1,0-0.2v-0.1
		c0-4-1-7.8-2.6-11.1c2.4-0.8,4.1-3.2,4.1-5.9c0-0.9-0.2-1.8-0.5-2.6s-0.7-1.5-1.2-2.2c0.2-1.3,0.4-2.6,0.4-4c0-1.5-0.2-3.1-0.5-4.5
		c-0.1-0.8-0.3-1.6-0.5-2.4c1.5-1.1,2.5-3,2.5-5.1c0-0.5,0-0.9-0.1-1.3c0.1-0.4,0.1-0.9,0.1-1.3c0-1-0.2-1.9-0.6-2.7
		c-0.2-0.6-0.5-1.2-0.9-1.7c0-0.5,0.1-1.1,0.1-1.7c0-0.5,0-0.9,0-1.3s0-0.9,0-1.3c0-2.6-0.4-5.2-1.2-7.6c-0.2-0.5-0.3-1-0.5-1.6
		C64.5,167.5,65.8,165.3,65.8,162.9z"/>
</g>
<g>
	<g>
		<polygon class="st1" points="84.5,303.2 118.7,303.2 101.6,384.3 		"/>
		<path class="st2" d="M124.3,298.5c0.2-1.4,0.4-2.8,0.4-4.2c0-12.8-9.8-23.2-21.9-23.2s-21.9,10.4-21.9,23.2c0,1.2,0.1,2.5,0.3,3.7
			c-1.5,1.1-2.5,3-2.5,5.1c0,3.5,2.7,6.3,5.9,6.3c0.5,0,0.9-0.1,1.4-0.2c2.6-0.6,4.6-3.1,4.6-6.1c0,3.5,2.7,6.3,5.9,6.3
			c3.3,0,5.9-2.8,5.9-6.3c0,3.5,2.7,6.3,5.9,6.3c3.3,0,5.9-2.8,5.9-6.3c0,3.2,2.3,5.9,5.2,6.2c0.2,0,0.5,0.1,0.7,0.1
			c3.3,0,5.9-2.8,5.9-6.3C126.1,301.3,125.4,299.7,124.3,298.5z"/>
		<path class="st3" d="M124.3,275.1c0.2-1.4,0.4-2.8,0.4-4.2c0-12.8-9.8-23.2-21.9-23.2s-21.9,10.4-21.9,23.2c0,1.2,0.1,2.5,0.3,3.7
			c-1.5,1.1-2.5,3-2.5,5.1c0,3.5,2.7,6.3,5.9,6.3c0.5,0,0.9-0.1,1.4-0.2c2.6-0.6,4.6-3.1,4.6-6.1c0,3.5,2.7,6.3,5.9,6.3
			c3.3,0,5.9-2.8,5.9-6.3c0,3.5,2.7,6.3,5.9,6.3c3.3,0,5.9-2.8,5.9-6.3c0,3.2,2.3,5.9,5.2,6.2c0.2,0,0.5,0.1,0.7,0.1
			c3.3,0,5.9-2.8,5.9-6.3C126.1,277.8,125.4,276.2,124.3,275.1z"/>
		<path class="st4" d="M124.3,251.6c0.2-1.4,0.4-2.8,0.4-4.2c0-12.8-9.8-23.2-21.9-23.2s-21.9,10.4-21.9,23.2c0,1.2,0.1,2.5,0.3,3.7
			c-1.5,1.1-2.5,3-2.5,5.1c0,3.5,2.7,6.3,5.9,6.3c0.5,0,0.9-0.1,1.4-0.2c2.6-0.6,4.6-3.1,4.6-6.1c0,3.5,2.7,6.3,5.9,6.3
			c3.3,0,5.9-2.8,5.9-6.3c0,3.5,2.7,6.3,5.9,6.3c3.3,0,5.9-2.8,5.9-6.3c0,3.2,2.3,5.9,5.2,6.2c0.2,0,0.5,0.1,0.7,0.1
			c3.3,0,5.9-2.8,5.9-6.3C126.1,254.4,125.4,252.8,124.3,251.6z"/>
		<path class="st2" d="M124.3,228.2c0.2-1.4,0.4-2.8,0.4-4.2c0-12.8-9.8-23.2-21.9-23.2s-22,10.4-22,23.2c0,1.2,0.1,2.5,0.3,3.7
			c-1.5,1.1-2.5,3-2.5,5.1c0,3.5,2.7,6.3,5.9,6.3c0.5,0,0.9-0.1,1.4-0.2c2.6-0.6,4.6-3.1,4.6-6.1c0,3.5,2.7,6.3,5.9,6.3
			c3.3,0,5.9-2.8,5.9-6.3c0,3.5,2.7,6.3,5.9,6.3c3.3,0,5.9-2.8,5.9-6.3c0,3.2,2.3,5.9,5.2,6.2c0.2,0,0.5,0.1,0.7,0.1
			c3.3,0,5.9-2.8,5.9-6.3C126.1,230.9,125.4,229.3,124.3,228.2z"/>
		<path class="st5" d="M124.3,204.7c0.2-1.4,0.4-2.8,0.4-4.2c0-12.8-9.8-23.2-21.9-23.2s-21.9,10.4-21.9,23.2c0,1.2,0.1,2.5,0.3,3.7
			c-1.5,1.1-2.5,3-2.5,5.1c0,3.5,2.7,6.3,5.9,6.3c0.5,0,0.9-0.1,1.4-0.2c2.6-0.6,4.6-3.1,4.6-6.1c0,3.5,2.7,6.3,5.9,6.3
			c3.3,0,5.9-2.8,5.9-6.3c0,3.5,2.7,6.3,5.9,6.3c3.3,0,5.9-2.8,5.9-6.3c0,3.2,2.3,5.9,5.2,6.2c0.2,0,0.5,0.1,0.7,0.1
			c3.3,0,5.9-2.8,5.9-6.3C126.1,207.5,125.4,205.9,124.3,204.7z"/>
		<path class="st2" d="M124.3,181.3c0.2-1.4,0.4-2.8,0.4-4.2c0-12.8-9.8-23.2-21.9-23.2s-21.9,10.4-21.9,23.2c0,1.2,0.1,2.5,0.3,3.7
			c-1.5,1.1-2.5,3-2.5,5.1c0,3.5,2.7,6.3,5.9,6.3c0.5,0,0.9-0.1,1.4-0.2c2.6-0.6,4.6-3.1,4.6-6.1c0,3.5,2.7,6.3,5.9,6.3
			c3.3,0,5.9-2.8,5.9-6.3c0,3.5,2.7,6.3,5.9,6.3c3.3,0,5.9-2.8,5.9-6.3c0,3.2,2.3,5.9,5.2,6.2c0.2,0,0.5,0.1,0.7,0.1
			c3.3,0,5.9-2.8,5.9-6.3C126.1,184,125.4,182.4,124.3,181.3z"/>
		<path class="st2" d="M124.3,183.9c0.2-1.4,0.4-2.8,0.4-4.2c0-12.8-9.8-23.2-21.9-23.2s-21.9,10.4-21.9,23.2c0,1.2,0.1,2.5,0.3,3.7
			c-1.5,1.1-2.5,3-2.5,5.1c0,3.5,2.7,6.3,5.9,6.3c0.5,0,0.9-0.1,1.4-0.2c2.6-0.6,4.6-3.1,4.6-6.1c0,3.5,2.7,6.3,5.9,6.3
			c3.3,0,5.9-2.8,5.9-6.3c0,3.5,2.7,6.3,5.9,6.3c3.3,0,5.9-2.8,5.9-6.3c0,3.2,2.3,5.9,5.2,6.2c0.2,0,0.5,0.1,0.7,0.1
			c3.3,0,5.9-2.8,5.9-6.3C126.1,186.7,125.4,185.1,124.3,183.9z"/>
		<path class="st5" d="M124.3,160.5c0.2-1.4,0.4-2.8,0.4-4.2c0-12.8-9.8-23.2-21.9-23.2s-21.9,10.4-21.9,23.2c0,1.2,0.1,2.5,0.3,3.7
			c-1.5,1.1-2.5,3-2.5,5.1c0,3.5,2.7,6.3,5.9,6.3c0.5,0,0.9-0.1,1.4-0.2c2.6-0.6,4.6-3.1,4.6-6.1c0,3.5,2.7,6.3,5.9,6.3
			c3.3,0,5.9-2.8,5.9-6.3c0,3.5,2.7,6.3,5.9,6.3c3.3,0,5.9-2.8,5.9-6.3c0,3.2,2.3,5.9,5.2,6.2c0.2,0,0.5,0.1,0.7,0.1
			c3.3,0,5.9-2.8,5.9-6.3C126.1,163.3,125.4,161.6,124.3,160.5z"/>
		<path class="st2" d="M124.3,137c0.2-1.4,0.4-2.8,0.4-4.2c0-12.8-9.8-23.2-21.9-23.2s-22,10.4-22,23.2c0,1.2,0.1,2.5,0.3,3.7
			c-1.5,1.1-2.5,3-2.5,5.1c0,3.5,2.7,6.3,5.9,6.3c0.5,0,0.9-0.1,1.4-0.2c2.6-0.6,4.6-3.1,4.6-6.1c0,3.5,2.7,6.3,5.9,6.3
			c3.3,0,5.9-2.8,5.9-6.3c0,3.5,2.7,6.3,5.9,6.3c3.3,0,5.9-2.8,5.9-6.3c0,3.2,2.3,5.9,5.2,6.2c0.2,0,0.5,0.1,0.7,0.1
			c3.3,0,5.9-2.8,5.9-6.3C126.1,139.8,125.4,138.2,124.3,137z"/>
		<path class="st4" d="M124.3,113.6c0.2-1.4,0.4-2.8,0.4-4.2c0-12.8-9.8-23.2-21.9-23.2s-21.9,10.4-21.9,23.2c0,1.2,0.1,2.5,0.3,3.7
			c-1.5,1.1-2.5,3-2.5,5.1c0,3.5,2.7,6.3,5.9,6.3c0.5,0,0.9-0.1,1.4-0.2c2.6-0.6,4.6-3.1,4.6-6.1c0,3.5,2.7,6.3,5.9,6.3
			c3.3,0,5.9-2.8,5.9-6.3c0,3.5,2.7,6.3,5.9,6.3c3.3,0,5.9-2.8,5.9-6.3c0,3.2,2.3,5.9,5.2,6.2c0.2,0,0.5,0.1,0.7,0.1
			c3.3,0,5.9-2.8,5.9-6.3C126.1,116.4,125.4,114.7,124.3,113.6z"/>
		<polygon class="st1" points="24,303.2 58.2,303.2 41.1,384.3 		"/>
		<path class="st2" d="M63.8,298.5c0.2-1.4,0.4-2.8,0.4-4.2c0-12.8-9.8-23.2-21.9-23.2s-21.9,10.4-21.9,23.2c0,1.2,0.1,2.5,0.3,3.7
			c-1.5,1.1-2.5,3-2.5,5.1c0,3.5,2.7,6.3,5.9,6.3c0.5,0,0.9-0.1,1.4-0.2c2.6-0.6,4.6-3.1,4.6-6.1c0,3.5,2.7,6.3,5.9,6.3
			c3.3,0,5.9-2.8,5.9-6.3c0,3.5,2.7,6.3,5.9,6.3c3.3,0,5.9-2.8,5.9-6.3c0,3.2,2.3,5.9,5.2,6.2c0.2,0,0.5,0.1,0.7,0.1
			c3.3,0,5.9-2.8,5.9-6.3C65.6,301.3,64.9,299.7,63.8,298.5z"/>
		<path class="st3" d="M63.8,275.1c0.2-1.4,0.4-2.8,0.4-4.2c0-12.8-9.8-23.2-21.9-23.2s-21.9,10.4-21.9,23.2c0,1.2,0.1,2.5,0.3,3.7
			c-1.5,1.1-2.5,3-2.5,5.1c0,3.5,2.7,6.3,5.9,6.3c0.5,0,0.9-0.1,1.4-0.2c2.6-0.6,4.6-3.1,4.6-6.1c0,3.5,2.7,6.3,5.9,6.3
			c3.3,0,5.9-2.8,5.9-6.3c0,3.5,2.7,6.3,5.9,6.3c3.3,0,5.9-2.8,5.9-6.3c0,3.2,2.3,5.9,5.2,6.2c0.2,0,0.5,0.1,0.7,0.1
			c3.3,0,5.9-2.8,5.9-6.3C65.6,277.8,64.9,276.2,63.8,275.1z"/>
		<path class="st2" d="M63.8,254.3c0.2-1.4,0.4-2.8,0.4-4.2c0-12.8-9.8-23.2-21.9-23.2s-21.9,10.4-21.9,23.2c0,1.2,0.1,2.5,0.3,3.7
			c-1.5,1.1-2.5,3-2.5,5.1c0,3.5,2.7,6.3,5.9,6.3c0.5,0,0.9-0.1,1.4-0.2c2.6-0.6,4.6-3.1,4.6-6.1c0,3.5,2.7,6.3,5.9,6.3
			c3.3,0,5.9-2.8,5.9-6.3c0,3.5,2.7,6.3,5.9,6.3c3.3,0,5.9-2.8,5.9-6.3c0,3.2,2.3,5.9,5.2,6.2c0.2,0,0.5,0.1,0.7,0.1
			c3.3,0,5.9-2.8,5.9-6.3C65.6,257,64.9,255.4,63.8,254.3z"/>
		<path class="st3" d="M63.8,230.8c0.2-1.4,0.4-2.8,0.4-4.2c0-12.8-9.8-23.2-21.9-23.2s-21.9,10.4-21.9,23.2c0,1.2,0.1,2.5,0.3,3.7
			c-1.5,1.1-2.5,3-2.5,5.1c0,3.5,2.7,6.3,5.9,6.3c0.5,0,0.9-0.1,1.4-0.2c2.6-0.6,4.6-3.1,4.6-6.1c0,3.5,2.7,6.3,5.9,6.3
			c3.3,0,5.9-2.8,5.9-6.3c0,3.5,2.7,6.3,5.9,6.3c3.3,0,5.9-2.8,5.9-6.3c0,3.2,2.3,5.9,5.2,6.2c0.2,0,0.5,0.1,0.7,0.1
			c3.3,0,5.9-2.8,5.9-6.3C65.6,233.6,64.9,232,63.8,230.8z"/>
		<polygon class="st1" points="267.3,303.2 301.5,303.2 284.4,384.3 		"/>
		<path class="st2" d="M307,298.5c0.2-1.4,0.4-2.8,0.4-4.2c0-12.8-9.8-23.2-21.9-23.2s-21.9,10.4-21.9,23.2c0,1.2,0.1,2.5,0.3,3.7
			c-1.5,1.1-2.5,3-2.5,5.1c0,3.5,2.7,6.3,5.9,6.3c0.5,0,0.9-0.1,1.4-0.2c2.6-0.6,4.6-3.1,4.6-6.1c0,3.5,2.7,6.3,5.9,6.3
			c3.3,0,5.9-2.8,5.9-6.3c0,3.5,2.7,6.3,5.9,6.3c3.3,0,5.9-2.8,5.9-6.3c0,3.2,2.3,5.9,5.2,6.2c0.2,0,0.5,0.1,0.7,0.1
			c3.3,0,5.9-2.8,5.9-6.3C308.9,301.3,308.2,299.7,307,298.5z"/>
		<path class="st3" d="M307,275.1c0.2-1.4,0.4-2.8,0.4-4.2c0-12.8-9.8-23.2-21.9-23.2s-21.9,10.4-21.9,23.2c0,1.2,0.1,2.5,0.3,3.7
			c-1.5,1.1-2.5,3-2.5,5.1c0,3.5,2.7,6.3,5.9,6.3c0.5,0,0.9-0.1,1.4-0.2c2.6-0.6,4.6-3.1,4.6-6.1c0,3.5,2.7,6.3,5.9,6.3
			c3.3,0,5.9-2.8,5.9-6.3c0,3.5,2.7,6.3,5.9,6.3c3.3,0,5.9-2.8,5.9-6.3c0,3.2,2.3,5.9,5.2,6.2c0.2,0,0.5,0.1,0.7,0.1
			c3.3,0,5.9-2.8,5.9-6.3C308.9,277.8,308.2,276.2,307,275.1z"/>
		<path class="st4" d="M307,251.6c0.2-1.4,0.4-2.8,0.4-4.2c0-12.8-9.8-23.2-21.9-23.2s-21.9,10.4-21.9,23.2c0,1.2,0.1,2.5,0.3,3.7
			c-1.5,1.1-2.5,3-2.5,5.1c0,3.5,2.7,6.3,5.9,6.3c0.5,0,0.9-0.1,1.4-0.2c2.6-0.6,4.6-3.1,4.6-6.1c0,3.5,2.7,6.3,5.9,6.3
			c3.3,0,5.9-2.8,5.9-6.3c0,3.5,2.7,6.3,5.9,6.3c3.3,0,5.9-2.8,5.9-6.3c0,3.2,2.3,5.9,5.2,6.2c0.2,0,0.5,0.1,0.7,0.1
			c3.3,0,5.9-2.8,5.9-6.3C308.9,254.4,308.2,252.8,307,251.6z"/>
		<polygon class="st1" points="328.3,303.2 362.5,303.2 345.4,384.3 		"/>
		<path class="st2" d="M368.1,298.5c0.2-1.4,0.4-2.8,0.4-4.2c0-12.8-9.8-23.2-21.9-23.2s-21.9,10.4-21.9,23.2c0,1.2,0.1,2.5,0.3,3.7
			c-1.5,1.1-2.5,3-2.5,5.1c0,3.5,2.7,6.3,5.9,6.3c0.5,0,0.9-0.1,1.4-0.2c2.6-0.6,4.6-3.1,4.6-6.1c0,3.5,2.7,6.3,5.9,6.3
			c3.3,0,5.9-2.8,5.9-6.3c0,3.5,2.7,6.3,5.9,6.3c3.3,0,5.9-2.8,5.9-6.3c0,3.2,2.3,5.9,5.2,6.2c0.2,0,0.5,0.1,0.7,0.1
			c3.3,0,5.9-2.8,5.9-6.3C369.9,301.3,369.2,299.7,368.1,298.5z"/>
		<path class="st3" d="M368.1,275.1c0.2-1.4,0.4-2.8,0.4-4.2c0-12.8-9.8-23.2-21.9-23.2s-21.9,10.4-21.9,23.2c0,1.2,0.1,2.5,0.3,3.7
			c-1.5,1.1-2.5,3-2.5,5.1c0,3.5,2.7,6.3,5.9,6.3c0.5,0,0.9-0.1,1.4-0.2c2.6-0.6,4.6-3.1,4.6-6.1c0,3.5,2.7,6.3,5.9,6.3
			c3.3,0,5.9-2.8,5.9-6.3c0,3.5,2.7,6.3,5.9,6.3c3.3,0,5.9-2.8,5.9-6.3c0,3.2,2.3,5.9,5.2,6.2c0.2,0,0.5,0.1,0.7,0.1
			c3.3,0,5.9-2.8,5.9-6.3C369.9,277.8,369.2,276.2,368.1,275.1z"/>
		<path class="st4" d="M368.1,251.6c0.2-1.4,0.4-2.8,0.4-4.2c0-12.8-9.8-23.2-21.9-23.2s-21.9,10.4-21.9,23.2c0,1.2,0.1,2.5,0.3,3.7
			c-1.5,1.1-2.5,3-2.5,5.1c0,3.5,2.7,6.3,5.9,6.3c0.5,0,0.9-0.1,1.4-0.2c2.6-0.6,4.6-3.1,4.6-6.1c0,3.5,2.7,6.3,5.9,6.3
			c3.3,0,5.9-2.8,5.9-6.3c0,3.5,2.7,6.3,5.9,6.3c3.3,0,5.9-2.8,5.9-6.3c0,3.2,2.3,5.9,5.2,6.2c0.2,0,0.5,0.1,0.7,0.1
			c3.3,0,5.9-2.8,5.9-6.3C369.9,254.4,369.2,252.8,368.1,251.6z"/>
		<path class="st2" d="M368.1,228.2c0.2-1.4,0.4-2.8,0.4-4.2c0-12.8-9.8-23.2-21.9-23.2s-21.9,10.4-21.9,23.2c0,1.2,0.1,2.5,0.3,3.7
			c-1.5,1.1-2.5,3-2.5,5.1c0,3.5,2.7,6.3,5.9,6.3c0.5,0,0.9-0.1,1.4-0.2c2.6-0.6,4.6-3.1,4.6-6.1c0,3.5,2.7,6.3,5.9,6.3
			c3.3,0,5.9-2.8,5.9-6.3c0,3.5,2.7,6.3,5.9,6.3c3.3,0,5.9-2.8,5.9-6.3c0,3.2,2.3,5.9,5.2,6.2c0.2,0,0.5,0.1,0.7,0.1
			c3.3,0,5.9-2.8,5.9-6.3C369.9,230.9,369.2,229.3,368.1,228.2z"/>
		<path class="st5" d="M368.1,204.7c0.2-1.4,0.4-2.8,0.4-4.2c0-12.8-9.8-23.2-21.9-23.2s-21.9,10.4-21.9,23.2c0,1.2,0.1,2.5,0.3,3.7
			c-1.5,1.1-2.5,3-2.5,5.1c0,3.5,2.7,6.3,5.9,6.3c0.5,0,0.9-0.1,1.4-0.2c2.6-0.6,4.6-3.1,4.6-6.1c0,3.5,2.7,6.3,5.9,6.3
			c3.3,0,5.9-2.8,5.9-6.3c0,3.5,2.7,6.3,5.9,6.3c3.3,0,5.9-2.8,5.9-6.3c0,3.2,2.3,5.9,5.2,6.2c0.2,0,0.5,0.1,0.7,0.1
			c3.3,0,5.9-2.8,5.9-6.3C369.9,207.5,369.2,205.9,368.1,204.7z"/>
		<path class="st3" d="M368.1,181.3c0.2-1.4,0.4-2.8,0.4-4.2c0-12.8-9.8-23.2-21.9-23.2s-21.9,10.4-21.9,23.2c0,1.2,0.1,2.5,0.3,3.7
			c-1.5,1.1-2.5,3-2.5,5.1c0,3.5,2.7,6.3,5.9,6.3c0.5,0,0.9-0.1,1.4-0.2c2.6-0.6,4.6-3.1,4.6-6.1c0,3.5,2.7,6.3,5.9,6.3
			c3.3,0,5.9-2.8,5.9-6.3c0,3.5,2.7,6.3,5.9,6.3c3.3,0,5.9-2.8,5.9-6.3c0,3.2,2.3,5.9,5.2,6.2c0.2,0,0.5,0.1,0.7,0.1
			c3.3,0,5.9-2.8,5.9-6.3C369.9,184,369.2,182.4,368.1,181.3z"/>
		<path class="st4" d="M368.1,157.8c0.2-1.4,0.4-2.8,0.4-4.2c0-12.8-9.8-23.2-21.9-23.2s-21.9,10.4-21.9,23.2c0,1.2,0.1,2.5,0.3,3.7
			c-1.5,1.1-2.5,3-2.5,5.1c0,3.5,2.7,6.3,5.9,6.3c0.5,0,0.9-0.1,1.4-0.2c2.6-0.6,4.6-3.1,4.6-6.1c0,3.5,2.7,6.3,5.9,6.3
			c3.3,0,5.9-2.8,5.9-6.3c0,3.5,2.7,6.3,5.9,6.3c3.3,0,5.9-2.8,5.9-6.3c0,3.2,2.3,5.9,5.2,6.2c0.2,0,0.5,0.1,0.7,0.1
			c3.3,0,5.9-2.8,5.9-6.3C369.9,160.6,369.2,159,368.1,157.8z"/>
		<path class="st2" d="M368.1,134.4c0.2-1.4,0.4-2.8,0.4-4.2c0-12.8-9.8-23.2-21.9-23.2s-21.9,10.4-21.9,23.2c0,1.2,0.1,2.5,0.3,3.7
			c-1.5,1.1-2.5,3-2.5,5.1c0,3.5,2.7,6.3,5.9,6.3c0.5,0,0.9-0.1,1.4-0.2c2.6-0.6,4.6-3.1,4.6-6.1c0,3.5,2.7,6.3,5.9,6.3
			c3.3,0,5.9-2.8,5.9-6.3c0,3.5,2.7,6.3,5.9,6.3c3.3,0,5.9-2.8,5.9-6.3c0,3.2,2.3,5.9,5.2,6.2c0.2,0,0.5,0.1,0.7,0.1
			c3.3,0,5.9-2.8,5.9-6.3C369.9,137.1,369.2,135.5,368.1,134.4z"/>
		<path class="st5" d="M368.1,110.9c0.2-1.4,0.4-2.8,0.4-4.2c0-12.8-9.8-23.2-21.9-23.2s-21.9,10.4-21.9,23.2c0,1.2,0.1,2.5,0.3,3.7
			c-1.5,1.1-2.5,3-2.5,5.1c0,3.5,2.7,6.3,5.9,6.3c0.5,0,0.9-0.1,1.4-0.2c2.6-0.6,4.6-3.1,4.6-6.1c0,3.5,2.7,6.3,5.9,6.3
			c3.3,0,5.9-2.8,5.9-6.3c0,3.5,2.7,6.3,5.9,6.3c3.3,0,5.9-2.8,5.9-6.3c0,3.2,2.3,5.9,5.2,6.2c0.2,0,0.5,0.1,0.7,0.1
			c3.3,0,5.9-2.8,5.9-6.3C369.9,113.7,369.2,112.1,368.1,110.9z"/>
		<path class="st4" d="M368.1,90c0.2-1.4,0.4-2.8,0.4-4.2c0-12.8-9.8-23.2-21.9-23.2s-22,10.4-22,23.2c0,1.2,0.1,2.5,0.3,3.7
			c-1.5,1.1-2.5,3-2.5,5.1c0,3.5,2.7,6.3,5.9,6.3c0.5,0,0.9-0.1,1.4-0.2c2.6-0.6,4.6-3.1,4.6-6.1c0,3.5,2.7,6.3,5.9,6.3
			c3.3,0,5.9-2.8,5.9-6.3c0,3.5,2.7,6.3,5.9,6.3c3.3,0,5.9-2.8,5.9-6.3c0,3.2,2.3,5.9,5.2,6.2c0.2,0,0.5,0.1,0.7,0.1
			c3.3,0,5.9-2.8,5.9-6.3C369.9,92.8,369.2,91.1,368.1,90z"/>
		<path class="st2" d="M368.1,66.5c0.2-1.4,0.4-2.8,0.4-4.2c0-12.8-9.8-23.2-21.9-23.2s-21.9,10.4-21.9,23.2c0,1.2,0.1,2.5,0.3,3.7
			c-1.5,1.1-2.5,3-2.5,5.1c0,3.5,2.7,6.3,5.9,6.3c0.5,0,0.9-0.1,1.4-0.2c2.6-0.6,4.6-3.1,4.6-6.1c0,3.5,2.7,6.3,5.9,6.3
			c3.3,0,5.9-2.8,5.9-6.3c0,3.5,2.7,6.3,5.9,6.3c3.3,0,5.9-2.8,5.9-6.3c0,3.2,2.3,5.9,5.2,6.2c0.2,0,0.5,0.1,0.7,0.1
			c3.3,0,5.9-2.8,5.9-6.3C369.9,69.3,369.2,67.7,368.1,66.5z"/>
		<path class="st5" d="M368.1,43.1c0.2-1.4,0.4-2.8,0.4-4.2c0-12.8-9.8-23.2-21.9-23.2s-21.9,10.4-21.9,23.2c0,1.2,0.1,2.5,0.3,3.7
			c-1.5,1.1-2.5,3-2.5,5.1c0,3.5,2.7,6.3,5.9,6.3c0.5,0,0.9-0.1,1.4-0.2c2.6-0.6,4.6-3.1,4.6-6.1c0,3.5,2.7,6.3,5.9,6.3
			c3.3,0,5.9-2.8,5.9-6.3c0,3.5,2.7,6.3,5.9,6.3c3.3,0,5.9-2.8,5.9-6.3c0,3.2,2.3,5.9,5.2,6.2c0.2,0,0.5,0.1,0.7,0.1
			c3.3,0,5.9-2.8,5.9-6.3C369.9,45.9,369.2,44.2,368.1,43.1z"/>
		<path class="st5" d="M63.8,204.7c0.2-1.4,0.4-2.8,0.4-4.2c0-12.8-9.8-23.2-21.9-23.2s-21.9,10.4-21.9,23.2c0,1.2,0.1,2.5,0.3,3.7
			c-1.5,1.1-2.5,3-2.5,5.1c0,3.5,2.7,6.3,5.9,6.3c0.5,0,0.9-0.1,1.4-0.2c2.6-0.6,4.6-3.1,4.6-6.1c0,3.5,2.7,6.3,5.9,6.3
			c3.3,0,5.9-2.8,5.9-6.3c0,3.5,2.7,6.3,5.9,6.3c3.3,0,5.9-2.8,5.9-6.3c0,3.2,2.3,5.9,5.2,6.2c0.2,0,0.5,0.1,0.7,0.1
			c3.3,0,5.9-2.8,5.9-6.3C65.6,207.5,64.9,205.9,63.8,204.7z"/>
		<path class="st2" d="M63.8,181.3c0.2-1.4,0.4-2.8,0.4-4.2c0-12.8-9.8-23.2-21.9-23.2s-21.9,10.4-21.9,23.2c0,1.2,0.1,2.5,0.3,3.7
			c-1.5,1.1-2.5,3-2.5,5.1c0,3.5,2.7,6.3,5.9,6.3c0.5,0,0.9-0.1,1.4-0.2c2.6-0.6,4.6-3.1,4.6-6.1c0,3.5,2.7,6.3,5.9,6.3
			c3.3,0,5.9-2.8,5.9-6.3c0,3.5,2.7,6.3,5.9,6.3c3.3,0,5.9-2.8,5.9-6.3c0,3.2,2.3,5.9,5.2,6.2c0.2,0,0.5,0.1,0.7,0.1
			c3.3,0,5.9-2.8,5.9-6.3C65.6,184,64.9,182.4,63.8,181.3z"/>
		<path class="st2" d="M63.8,183.9c0.2-1.4,0.4-2.8,0.4-4.2c0-12.8-9.8-23.2-21.9-23.2s-21.9,10.4-21.9,23.2c0,1.2,0.1,2.5,0.3,3.7
			c-1.5,1.1-2.5,3-2.5,5.1c0,3.5,2.7,6.3,5.9,6.3c0.5,0,0.9-0.1,1.4-0.2c2.6-0.6,4.6-3.1,4.6-6.1c0,3.5,2.7,6.3,5.9,6.3
			c3.3,0,5.9-2.8,5.9-6.3c0,3.5,2.7,6.3,5.9,6.3c3.3,0,5.9-2.8,5.9-6.3c0,3.2,2.3,5.9,5.2,6.2c0.2,0,0.5,0.1,0.7,0.1
			c3.3,0,5.9-2.8,5.9-6.3C65.6,186.7,64.9,185.1,63.8,183.9z"/>
		<path class="st5" d="M63.8,157.8c0.2-1.4,0.4-2.8,0.4-4.2c0-12.8-9.8-23.2-21.9-23.2s-21.9,10.4-21.9,23.2c0,1.2,0.1,2.5,0.3,3.7
			c-1.5,1.1-2.5,3-2.5,5.1c0,3.5,2.7,6.3,5.9,6.3c0.5,0,0.9-0.1,1.4-0.2c2.6-0.6,4.6-3.1,4.6-6.1c0,3.5,2.7,6.3,5.9,6.3
			c3.3,0,5.9-2.8,5.9-6.3c0,3.5,2.7,6.3,5.9,6.3c3.3,0,5.9-2.8,5.9-6.3c0,3.2,2.3,5.9,5.2,6.2c0.2,0,0.5,0.1,0.7,0.1
			c3.3,0,5.9-2.8,5.9-6.3C65.6,160.6,64.9,159,63.8,157.8z"/>
	</g>
	<g class="st6">
		<path class="st7" d="M119.4,309.3c0.2,0,0.5,0.1,0.7,0.1c3.3,0,5.9-2.8,5.9-6.3c0-1.8-0.7-3.4-1.8-4.5c0.2-1.4,0.4-2.8,0.4-4.2
			c0-3.2-0.6-6.3-1.8-9.1c1.9-1,3.2-3.2,3.2-5.6c0-1.8-0.7-3.4-1.8-4.5c0.2-1.4,0.4-2.8,0.4-4.2c0-3.2-0.6-6.3-1.8-9.1
			c1.9-1,3.2-3.2,3.2-5.6c0-1.8-0.7-3.4-1.8-4.5c0.2-1.4,0.4-2.8,0.4-4.2c0-3.2-0.6-6.3-1.8-9.1c1.9-1,3.2-3.2,3.2-5.6
			c0-1.8-0.7-3.4-1.8-4.5c0.2-1.4,0.4-2.8,0.4-4.2c0-3.2-0.6-6.3-1.8-9.1c1.9-1,3.2-3.2,3.2-5.6c0-1.8-0.7-3.4-1.8-4.5
			c0.2-1.4,0.4-2.8,0.4-4.2c0-2.4-0.4-4.8-1-6.9c1.5-1.1,2.5-3,2.5-5.1c0-0.5,0-0.9-0.1-1.3c0.1-0.4,0.1-0.9,0.1-1.3
			c0-1.6-0.6-3.1-1.5-4.2c0-0.6,0.1-1.2,0.1-1.9c0-0.5,0-0.9,0-1.3c0-0.4,0-0.9,0-1.3c0-2.4-0.3-4.8-1-6.9c1.5-1.1,2.5-3,2.5-5.1
			c0-1.8-0.7-3.4-1.8-4.5c0.2-1.4,0.4-2.8,0.4-4.2c0-3.2-0.6-6.3-1.8-9.1c1.9-1,3.2-3.2,3.2-5.6c0-1.8-0.7-3.4-1.8-4.5
			c0.2-1.4,0.4-2.8,0.4-4.2c0-3.2-0.6-6.3-1.8-9.1c1.9-1,3.2-3.2,3.2-5.6c0-1.8-0.7-3.4-1.8-4.5c0.2-1.4,0.4-2.8,0.4-4.2
			c0-8.3-4.1-15.6-10.3-19.7c-1.3-0.3-2.7-0.4-4.1-0.4c-12.1,0-21.9,10.4-21.9,23.2c0,1.2,0.1,2.5,0.3,3.7c-1.5,1.1-2.5,3-2.5,5.1
			c0,2.7,1.6,5,3.8,5.9c-1.1,2.7-1.6,5.7-1.6,8.8c0,1.2,0.1,2.5,0.3,3.7c-1.5,1.1-2.5,3-2.5,5.1c0,2.7,1.6,5,3.8,5.9
			c-1.1,2.7-1.6,5.7-1.6,8.8c0,1.2,0.1,2.5,0.3,3.7c-1.5,1.1-2.5,3-2.5,5.1c0,2.4,1.2,4.4,3.1,5.5c-0.6,2.1-0.9,4.3-0.9,6.5
			c0,0.4,0,0.8,0,1.2c0,0.5,0,1,0,1.4s0,0.8,0,1.2c-1.4,1.2-2.2,2.9-2.2,4.9c0,0.5,0.1,0.9,0.1,1.3c-0.1,0.4-0.1,0.9-0.1,1.3
			c0,2.4,1.2,4.4,3.1,5.5c-0.6,2.1-0.9,4.3-0.9,6.5c0,1.2,0.1,2.5,0.3,3.7c-1.5,1.1-2.5,3-2.5,5.1c0,2.7,1.6,5,3.8,5.9
			c-1.1,2.7-1.6,5.7-1.6,8.8c0,1.2,0.1,2.5,0.3,3.7c-1.5,1.1-2.5,3-2.5,5.1c0,2.7,1.6,5,3.8,5.9c-1.1,2.7-1.6,5.7-1.6,8.8
			c0,1.2,0.1,2.5,0.3,3.7c-1.5,1.1-2.5,3-2.5,5.1c0,2.7,1.6,5,3.8,5.9c-1.1,2.7-1.6,5.7-1.6,8.8c0,1.2,0.1,2.5,0.3,3.7
			c-1.5,1.1-2.5,3-2.5,5.1c0,2.7,1.6,5,3.8,5.9c-1.1,2.7-1.6,5.7-1.6,8.8c0,1.2,0.1,2.5,0.3,3.7c-1.5,1.1-2.5,3-2.5,5.1
			c0,3.5,2.7,6.3,5.9,6.3c0.4,0,0.9-0.1,1.3-0.2L105,368l12.5-59.3C118.1,309,118.8,309.2,119.4,309.3z"/>
		<path class="st7" d="M302.2,309.3c0.2,0,0.5,0.1,0.7,0.1c3.3,0,5.9-2.8,5.9-6.3c0-1.8-0.7-3.4-1.8-4.5c0.2-1.4,0.4-2.8,0.4-4.2
			c0-3.2-0.6-6.3-1.8-9.1c1.9-1,3.2-3.2,3.2-5.6c0-1.8-0.7-3.4-1.8-4.5c0.2-1.4,0.4-2.8,0.4-4.2c0-3.2-0.6-6.3-1.8-9.1
			c1.9-1,3.2-3.2,3.2-5.6c0-1.8-0.7-3.4-1.8-4.5c0.2-1.4,0.4-2.8,0.4-4.2c0-8.3-4.1-15.6-10.3-19.7c-1.3-0.3-2.7-0.4-4.1-0.4
			c-12.1,0-21.9,10.4-21.9,23.2c0,1.2,0.1,2.5,0.3,3.7c-1.5,1.1-2.5,3-2.5,5.1c0,2.7,1.6,5,3.8,5.9c-1.1,2.7-1.6,5.7-1.6,8.8
			c0,1.2,0.1,2.5,0.3,3.7c-1.5,1.1-2.5,3-2.5,5.1c0,2.7,1.6,5,3.8,5.9c-1.1,2.7-1.6,5.7-1.6,8.8c0,1.2,0.1,2.5,0.3,3.7
			c-1.5,1.1-2.5,3-2.5,5.1c0,3.5,2.7,6.3,5.9,6.3c0.4,0,0.9-0.1,1.3-0.2l11.7,55.7l12.5-59.3C300.9,309,301.5,309.2,302.2,309.3z"/>
		<path class="st7" d="M363.3,309.3c0.2,0,0.5,0.1,0.7,0.1c3.3,0,5.9-2.8,5.9-6.3c0-1.8-0.7-3.4-1.8-4.5c0.2-1.4,0.4-2.8,0.4-4.2
			c0-3.2-0.6-6.3-1.8-9.1c1.9-1,3.2-3.2,3.2-5.6c0-1.8-0.7-3.4-1.8-4.5c0.2-1.4,0.4-2.8,0.4-4.2c0-3.2-0.6-6.3-1.8-9.1
			c1.9-1,3.2-3.2,3.2-5.6c0-1.8-0.7-3.4-1.8-4.5c0.2-1.4,0.4-2.8,0.4-4.2c0-3.2-0.6-6.3-1.8-9.1c1.9-1,3.2-3.2,3.2-5.6
			c0-1.8-0.7-3.4-1.8-4.5c0.2-1.4,0.4-2.8,0.4-4.2c0-3.2-0.6-6.3-1.8-9.1c1.9-1,3.2-3.2,3.2-5.6c0-1.8-0.7-3.4-1.8-4.5
			c0.2-1.4,0.4-2.8,0.4-4.2c0-3.2-0.6-6.3-1.8-9.1c1.9-1,3.2-3.2,3.2-5.6c0-1.8-0.7-3.4-1.8-4.5c0.2-1.4,0.4-2.8,0.4-4.2
			c0-3.2-0.6-6.3-1.8-9.1c1.9-1,3.2-3.2,3.2-5.6c0-1.8-0.7-3.4-1.8-4.5c0.2-1.4,0.4-2.8,0.4-4.2c0-3.2-0.6-6.3-1.8-9.1
			c1.9-1,3.2-3.2,3.2-5.6c0-1.8-0.7-3.4-1.8-4.5c0.2-1.4,0.4-2.8,0.4-4.2c0-3.2-0.6-6.3-1.8-9.1c1.9-1,3.2-3.2,3.2-5.6
			c0-1.8-0.7-3.4-1.8-4.5c0.2-1.4,0.4-2.8,0.4-4.2c0-2.5-0.4-4.8-1-7.1c1.5-1.1,2.5-3,2.5-5.1c0-1.8-0.7-3.4-1.8-4.5
			c0.2-1.4,0.4-2.8,0.4-4.2c0-3.2-0.6-6.3-1.8-9.1c1.9-1,3.2-3.2,3.2-5.6c0-1.8-0.7-3.4-1.8-4.5c0.2-1.4,0.4-2.8,0.4-4.2
			c0-3.2-0.6-6.3-1.8-9.1c1.9-1,3.2-3.2,3.2-5.6c0-1.8-0.7-3.4-1.8-4.5c0.2-1.4,0.4-2.8,0.4-4.2c0-8.3-4.1-15.6-10.3-19.7
			c-1.3-0.3-2.7-0.4-4.1-0.4c-12.1,0-21.9,10.4-21.9,23.2c0,1.2,0.1,2.5,0.3,3.7c-1.5,1.1-2.5,3-2.5,5.1c0,2.7,1.6,5,3.8,5.9
			c-1.1,2.7-1.6,5.7-1.6,8.8c0,1.2,0.1,2.5,0.3,3.7c-1.5,1.1-2.5,3-2.5,5.1c0,2.7,1.6,5,3.8,5.9c-1.1,2.7-1.6,5.7-1.6,8.8
			c0,1.2,0.1,2.5,0.3,3.7c-1.5,1.1-2.5,3-2.5,5.1c0,2.4,1.3,4.5,3.1,5.5c-0.6,2.1-0.9,4.3-0.9,6.7c0,1.2,0.1,2.5,0.3,3.7
			c-1.5,1.1-2.5,3-2.5,5.1c0,2.7,1.6,5,3.8,5.9c-1.1,2.7-1.6,5.7-1.6,8.8c0,1.2,0.1,2.5,0.3,3.7c-1.5,1.1-2.5,3-2.5,5.1
			c0,2.7,1.6,5,3.8,5.9c-1.1,2.7-1.6,5.7-1.6,8.8c0,1.2,0.1,2.5,0.3,3.7c-1.5,1.1-2.5,3-2.5,5.1c0,2.7,1.6,5,3.8,5.9
			c-1.1,2.7-1.6,5.7-1.6,8.8c0,1.2,0.1,2.5,0.3,3.7c-1.5,1.1-2.5,3-2.5,5.1c0,2.7,1.6,5,3.8,5.9c-1.1,2.7-1.6,5.7-1.6,8.8
			c0,1.2,0.1,2.5,0.3,3.7c-1.5,1.1-2.5,3-2.5,5.1c0,2.7,1.6,5,3.8,5.9c-1.1,2.7-1.6,5.7-1.6,8.8c0,1.2,0.1,2.5,0.3,3.7
			c-1.5,1.1-2.5,3-2.5,5.1c0,2.7,1.6,5,3.8,5.9c-1.1,2.7-1.6,5.7-1.6,8.8c0,1.2,0.1,2.5,0.3,3.7c-1.5,1.1-2.5,3-2.5,5.1
			c0,2.7,1.6,5,3.8,5.9c-1.1,2.7-1.6,5.7-1.6,8.8c0,1.2,0.1,2.5,0.3,3.7c-1.5,1.1-2.5,3-2.5,5.1c0,2.7,1.6,5,3.8,5.9
			c-1.1,2.7-1.6,5.7-1.6,8.8c0,1.2,0.1,2.5,0.3,3.7c-1.5,1.1-2.5,3-2.5,5.1c0,3.5,2.7,6.3,5.9,6.3c0.4,0,0.9-0.1,1.3-0.2l11.7,55.7
			l12.5-59.3C361.9,309,362.6,309.2,363.3,309.3z"/>
		<path class="st7" d="M58.9,309.3c0.2,0,0.5,0.1,0.7,0.1c3.3,0,5.9-2.8,5.9-6.3c0-1.8-0.7-3.4-1.8-4.5c0.2-1.4,0.4-2.8,0.4-4.2
			c0-3.2-0.6-6.3-1.8-9.1c1.9-1,3.2-3.2,3.2-5.6c0-1.8-0.7-3.4-1.8-4.5c0.2-1.4,0.4-2.8,0.4-4.2c0-2.4-0.4-4.8-1-6.9
			c1.5-1.1,2.5-3,2.5-5.1c0-1.8-0.7-3.4-1.8-4.5c0.2-1.4,0.4-2.8,0.4-4.2c0-3.2-0.6-6.3-1.8-9.1c1.9-1,3.2-3.2,3.2-5.6
			c0-1.8-0.7-3.4-1.8-4.5c0.2-1.4,0.4-2.8,0.4-4.2c0-4.1-1-8-2.8-11.3c2.5-0.8,4.3-3.2,4.3-6c0-1.8-0.7-3.4-1.8-4.5
			c0.2-1.4,0.4-2.8,0.4-4.2c0-2.4-0.4-4.8-1-6.9c1.5-1.1,2.5-3,2.5-5.1c0-0.5,0-0.9-0.1-1.3c0.1-0.4,0.1-0.9,0.1-1.3
			c0-1.6-0.6-3.1-1.5-4.2c0-0.6,0.1-1.2,0.1-1.9c0-0.5,0-0.9,0-1.3c0-0.4,0-0.9,0-1.3c0-3.2-0.6-6.3-1.8-9.1c1.9-1,3.2-3.2,3.2-5.6
			c0-1.8-0.7-3.4-1.8-4.5c0.2-1.4,0.4-2.8,0.4-4.2c0-8.3-4.1-15.6-10.3-19.7c-1.3-0.3-2.7-0.4-4.1-0.4c-12.1,0-21.9,10.4-21.9,23.2
			c0,1.2,0.1,2.5,0.3,3.7c-1.5,1.1-2.5,3-2.5,5.1c0,2.7,1.6,5,3.8,5.9c-1.1,2.7-1.6,5.7-1.6,8.8c0,0.4,0,0.8,0,1.2c0,0.5,0,1,0,1.4
			s0,0.8,0,1.2c-1.4,1.2-2.2,2.9-2.2,4.9c0,0.5,0.1,0.9,0.1,1.3c-0.1,0.4-0.1,0.9-0.1,1.3c0,2.4,1.2,4.4,3.1,5.5
			c-0.6,2.1-0.9,4.3-0.9,6.5c0,1.2,0.1,2.5,0.3,3.7c-1.5,1.1-2.5,3-2.5,5.1c0,3.1,2.1,5.7,4.9,6.2c-1.7,3.3-2.7,7.1-2.7,11.2
			c0,1.2,0.1,2.5,0.3,3.7c-1.5,1.1-2.5,3-2.5,5.1c0,2.7,1.6,5,3.8,5.9c-1.1,2.7-1.6,5.7-1.6,8.8c0,1.2,0.1,2.5,0.3,3.7
			c-1.5,1.1-2.5,3-2.5,5.1c0,2.4,1.2,4.4,3.1,5.5c-0.6,2.1-0.9,4.3-0.9,6.5c0,1.2,0.1,2.5,0.3,3.7c-1.5,1.1-2.5,3-2.5,5.1
			c0,2.7,1.6,5,3.8,5.9c-1.1,2.7-1.6,5.7-1.6,8.8c0,1.2,0.1,2.5,0.3,3.7c-1.5,1.1-2.5,3-2.5,5.1c0,3.5,2.7,6.3,5.9,6.3
			c0.4,0,0.9-0.1,1.3-0.2l11.4,55L57,308.7C57.6,309,58.3,309.2,58.9,309.3z"/>
	</g>
</g>
</svg>
