<?xml version="1.0" encoding="utf-8"?>
<!-- Generator: Adobe Illustrator 22.0.1, SVG Export Plug-In . SVG Version: 6.00 Build 0)  -->
<svg version="1.1" id="Layer_1" xmlns="http://www.w3.org/2000/svg" xmlns:xlink="http://www.w3.org/1999/xlink" x="0px" y="0px"
	 viewBox="0 0 400 400" style="enable-background:new 0 0 400 400;" xml:space="preserve">
<style type="text/css">
	.st0{fill:#FFFFFF;stroke:#FFFFFF;stroke-width:10;stroke-linecap:round;stroke-linejoin:round;stroke-miterlimit:10;}
	.st1{fill:#F24044;}
	.st2{fill:#B3040F;}
	.st3{fill:#00CDC8;}
	.st4{fill:#1CA49D;}
	.st5{fill:#A5D73C;}
	.st6{fill:#69941B;}
	.st7{fill:#F86A00;}
	.st8{fill:#C44412;}
	.st9{fill:#FADC3C;}
	.st10{fill:#E7C42A;}
</style>
<g>
	<polygon class="st0" points="275.6,20.2 275.6,16.7 268.5,16.7 268.5,20.2 254.3,20.2 254.3,55.8 289.9,55.8 289.9,20.2 	"/>
	<polygon class="st0" points="275.6,74.8 275.6,71.3 268.5,71.3 268.5,74.8 254.3,74.8 254.3,110.4 289.9,110.4 289.9,74.8 	"/>
	<polygon class="st0" points="275.6,129.4 275.6,125.8 268.5,125.8 268.5,129.4 254.3,129.4 254.3,165 289.9,165 289.9,129.4 	"/>
	<polygon class="st0" points="275.6,238.5 275.6,235 268.5,235 268.5,238.5 254.3,238.5 254.3,274.2 289.9,274.2 289.9,238.5 	"/>
	<polygon class="st0" points="275.6,293.1 275.6,289.6 268.5,289.6 268.5,293.1 254.3,293.1 254.3,328.7 289.9,328.7 289.9,293.1 	
		"/>
	<polygon class="st0" points="321.5,129.4 321.5,125.8 314.4,125.8 314.4,129.4 300.1,129.4 300.1,165 335.7,165 335.7,129.4 	"/>
	<polygon class="st0" points="321.5,184 321.5,180.4 314.4,180.4 314.4,184 300.1,184 300.1,219.6 335.7,219.6 335.7,184 	"/>
	<polygon class="st0" points="321.5,293.1 321.5,289.6 314.4,289.6 314.4,293.1 300.1,293.1 300.1,328.7 335.7,328.7 335.7,293.1 	
		"/>
	<polygon class="st0" points="321.5,347.7 321.5,344.2 314.4,344.2 314.4,347.7 300.1,347.7 300.1,383.3 335.7,383.3 335.7,347.7 	
		"/>
	<polygon class="st0" points="367.3,74.8 367.3,71.3 360.3,71.3 360.3,74.8 346,74.8 346,110.4 381.6,110.4 381.6,74.8 	"/>
	<polygon class="st0" points="367.3,129.4 367.3,125.8 360.3,125.8 360.3,129.4 346,129.4 346,165 381.6,165 381.6,129.4 	"/>
	<polygon class="st0" points="367.3,238.5 367.3,235 360.3,235 360.3,238.5 346,238.5 346,274.2 381.6,274.2 381.6,238.5 	"/>
	<polygon class="st0" points="367.3,293.1 367.3,289.6 360.3,289.6 360.3,293.1 346,293.1 346,328.7 381.6,328.7 381.6,293.1 	"/>
	<polygon class="st0" points="39.7,20.2 39.7,16.7 32.7,16.7 32.7,20.2 18.4,20.2 18.4,55.8 54,55.8 54,20.2 	"/>
	<polygon class="st0" points="39.7,129.4 39.7,125.8 32.7,125.8 32.7,129.4 18.4,129.4 18.4,165 54,165 54,129.4 	"/>
	<polygon class="st0" points="39.7,184 39.7,180.4 32.7,180.4 32.7,184 18.4,184 18.4,219.6 54,219.6 54,184 	"/>
	<polygon class="st0" points="39.7,238.5 39.7,235 32.7,235 32.7,238.5 18.4,238.5 18.4,274.2 54,274.2 54,238.5 	"/>
	<polygon class="st0" points="85.6,74.8 85.6,71.3 78.5,71.3 78.5,74.8 64.3,74.8 64.3,110.4 99.9,110.4 99.9,74.8 	"/>
	<polygon class="st0" points="85.6,129.4 85.6,125.8 78.5,125.8 78.5,129.4 64.3,129.4 64.3,165 99.9,165 99.9,129.4 	"/>
	<polygon class="st0" points="85.6,238.5 85.6,235 78.5,235 78.5,238.5 64.3,238.5 64.3,274.2 99.9,274.2 99.9,238.5 	"/>
	<polygon class="st0" points="85.6,293.1 85.6,289.6 78.5,289.6 78.5,293.1 64.3,293.1 64.3,328.7 99.9,328.7 99.9,293.1 	"/>
	<polygon class="st0" points="131.5,20.2 131.5,16.7 124.4,16.7 124.4,20.2 110.1,20.2 110.1,55.8 145.7,55.8 145.7,20.2 	"/>
	<polygon class="st0" points="131.5,184 131.5,180.4 124.4,180.4 124.4,184 110.1,184 110.1,219.6 145.7,219.6 145.7,184 	"/>
	<polygon class="st0" points="131.5,238.5 131.5,235 124.4,235 124.4,238.5 110.1,238.5 110.1,274.2 145.7,274.2 145.7,238.5 	"/>
	<polygon class="st0" points="131.5,347.7 131.5,344.2 124.4,344.2 124.4,347.7 110.1,347.7 110.1,383.3 145.7,383.3 145.7,347.7 	
		"/>
</g>
<g>
	<g>
		<polygon class="st1" points="255.1,54.9 255.1,21.1 269.4,21.1 269.4,17.6 274.7,17.6 274.7,21.1 289,21.1 289,54.9 		"/>
		<path class="st2" d="M273.8,18.5v1.7V22h1.8h12.5V54H256V22h12.5h1.8v-1.8v-1.7H273.8 M275.6,16.7h-7v3.5h-14.3v35.6h35.6V20.2
			h-14.3V16.7L275.6,16.7z"/>
	</g>
	<g>
		<polygon class="st3" points="255.1,109.5 255.1,75.7 269.4,75.7 269.4,72.2 274.7,72.2 274.7,75.7 289,75.7 289,109.5 		"/>
		<path class="st4" d="M273.8,73v1.7v1.8h1.8h12.5v32.1H256V76.6h12.5h1.8v-1.8V73H273.8 M275.6,71.3h-7v3.5h-14.3v35.6h35.6V74.8
			h-14.3V71.3L275.6,71.3z"/>
	</g>
	<g>
		<polygon class="st5" points="255.1,164.1 255.1,130.3 269.4,130.3 269.4,126.7 274.7,126.7 274.7,130.3 289,130.3 289,164.1 		"/>
		<path class="st6" d="M273.8,127.6v1.7v1.8h1.8h12.5v32.1H256v-32.1h12.5h1.8v-1.8v-1.7H273.8 M275.6,125.8h-7v3.5h-14.3V165h35.6
			v-35.6h-14.3V125.8L275.6,125.8z"/>
	</g>
	<g>
		<polygon class="st7" points="255.1,273.3 255.1,239.4 269.4,239.4 269.4,235.9 274.7,235.9 274.7,239.4 289,239.4 289,273.3 		"/>
		<path class="st8" d="M273.8,236.8v1.7v1.8h1.8h12.5v32.1H256v-32.1h12.5h1.8v-1.8v-1.7H273.8 M275.6,235h-7v3.5h-14.3v35.6h35.6
			v-35.6h-14.3V235L275.6,235z"/>
	</g>
	<g>
		<polygon class="st9" points="255.1,327.8 255.1,294 269.4,294 269.4,290.5 274.7,290.5 274.7,294 289,294 289,327.8 		"/>
		<path class="st10" d="M273.8,291.4v1.7v1.8h1.8h12.5V327H256v-32.1h12.5h1.8v-1.8v-1.7H273.8 M275.6,289.6h-7v3.5h-14.3v35.6h35.6
			v-35.6h-14.3V289.6L275.6,289.6z"/>
	</g>
	<g>
		<polygon class="st3" points="301,164.1 301,130.3 315.3,130.3 315.3,126.7 320.6,126.7 320.6,130.3 334.9,130.3 334.9,164.1 		"/>
		<path class="st4" d="M319.7,127.6v1.7v1.8h1.8H334v32.1h-32.1v-32.1h12.5h1.8v-1.8v-1.7H319.7 M321.5,125.8h-7v3.5h-14.3V165h35.6
			v-35.6h-14.3V125.8L321.5,125.8z"/>
	</g>
	<g>
		<polygon class="st5" points="301,218.7 301,184.8 315.3,184.8 315.3,181.3 320.6,181.3 320.6,184.8 334.9,184.8 334.9,218.7 		"/>
		<path class="st6" d="M319.7,182.2v1.7v1.8h1.8H334v32.1h-32.1v-32.1h12.5h1.8V184v-1.7H319.7 M321.5,180.4h-7v3.5h-14.3v35.6h35.6
			V184h-14.3V180.4L321.5,180.4z"/>
	</g>
	<g>
		<polygon class="st7" points="301,327.8 301,294 315.3,294 315.3,290.5 320.6,290.5 320.6,294 334.9,294 334.9,327.8 		"/>
		<path class="st8" d="M319.7,291.4v1.7v1.8h1.8H334V327h-32.1v-32.1h12.5h1.8v-1.8v-1.7H319.7 M321.5,289.6h-7v3.5h-14.3v35.6h35.6
			v-35.6h-14.3V289.6L321.5,289.6z"/>
	</g>
	<g>
		<polygon class="st9" points="301,382.4 301,348.6 315.3,348.6 315.3,345.1 320.6,345.1 320.6,348.6 334.9,348.6 334.9,382.4 		"/>
		<path class="st10" d="M319.7,346v1.7v1.8h1.8H334v32.1h-32.1v-32.1h12.5h1.8v-1.8V346H319.7 M321.5,344.2h-7v3.5h-14.3v35.6h35.6
			v-35.6h-14.3V344.2L321.5,344.2z"/>
	</g>
	<g>
		<polygon class="st9" points="346.9,109.5 346.9,75.7 361.2,75.7 361.2,72.2 366.4,72.2 366.4,75.7 380.7,75.7 380.7,109.5 		"/>
		<path class="st10" d="M365.6,73v1.7v1.8h1.8h12.5v32.1h-32.1V76.6h12.5h1.8v-1.8V73H365.6 M367.3,71.3h-7v3.5H346v35.6h35.6V74.8
			h-14.3V71.3L367.3,71.3z"/>
	</g>
	<g>
		<polygon class="st1" points="346.9,164.1 346.9,130.3 361.2,130.3 361.2,126.7 366.4,126.7 366.4,130.3 380.7,130.3 380.7,164.1 
					"/>
		<path class="st2" d="M365.6,127.6v1.7v1.8h1.8h12.5v32.1h-32.1v-32.1h12.5h1.8v-1.8v-1.7H365.6 M367.3,125.8h-7v3.5H346V165h35.6
			v-35.6h-14.3V125.8L367.3,125.8z"/>
	</g>
	<g>
		<polygon class="st5" points="346.9,273.3 346.9,239.4 361.2,239.4 361.2,235.9 366.4,235.9 366.4,239.4 380.7,239.4 380.7,273.3 
					"/>
		<path class="st6" d="M365.6,236.8v1.7v1.8h1.8h12.5v32.1h-32.1v-32.1h12.5h1.8v-1.8v-1.7H365.6 M367.3,235h-7v3.5H346v35.6h35.6
			v-35.6h-14.3V235L367.3,235z"/>
	</g>
	<g>
		<polygon class="st5" points="346.9,327.8 346.9,294 361.2,294 361.2,290.5 366.4,290.5 366.4,294 380.7,294 380.7,327.8 		"/>
		<path class="st6" d="M365.6,291.4v1.7v1.8h1.8h12.5V327h-32.1v-32.1h12.5h1.8v-1.8v-1.7H365.6 M367.3,289.6h-7v3.5H346v35.6h35.6
			v-35.6h-14.3V289.6L367.3,289.6z"/>
	</g>
	<g>
		<polygon class="st1" points="19.3,54.9 19.3,21.1 33.6,21.1 33.6,17.6 38.8,17.6 38.8,21.1 53.1,21.1 53.1,54.9 		"/>
		<path class="st2" d="M37.9,18.5v1.7V22h1.8h12.5V54H20.2V22h12.5h1.8v-1.8v-1.7H37.9 M39.7,16.7h-7v3.5H18.4v35.6H54V20.2H39.7
			V16.7L39.7,16.7z"/>
	</g>
	<g>
		<polygon class="st5" points="19.3,164.1 19.3,130.3 33.6,130.3 33.6,126.7 38.8,126.7 38.8,130.3 53.1,130.3 53.1,164.1 		"/>
		<path class="st6" d="M37.9,127.6v1.7v1.8h1.8h12.5v32.1H20.2v-32.1h12.5h1.8v-1.8v-1.7H37.9 M39.7,125.8h-7v3.5H18.4V165H54v-35.6
			H39.7V125.8L39.7,125.8z"/>
	</g>
	<g>
		<polygon class="st5" points="19.3,218.7 19.3,184.8 33.6,184.8 33.6,181.3 38.8,181.3 38.8,184.8 53.1,184.8 53.1,218.7 		"/>
		<path class="st6" d="M37.9,182.2v1.7v1.8h1.8h12.5v32.1H20.2v-32.1h12.5h1.8V184v-1.7H37.9 M39.7,180.4h-7v3.5H18.4v35.6H54V184
			H39.7V180.4L39.7,180.4z"/>
	</g>
	<g>
		<polygon class="st1" points="19.3,273.3 19.3,239.4 33.6,239.4 33.6,235.9 38.8,235.9 38.8,239.4 53.1,239.4 53.1,273.3 		"/>
		<path class="st2" d="M37.9,236.8v1.7v1.8h1.8h12.5v32.1H20.2v-32.1h12.5h1.8v-1.8v-1.7H37.9 M39.7,235h-7v3.5H18.4v35.6H54v-35.6
			H39.7V235L39.7,235z"/>
	</g>
	<g>
		<polygon class="st1" points="65.1,109.5 65.1,75.7 79.4,75.7 79.4,72.2 84.7,72.2 84.7,75.7 99,75.7 99,109.5 		"/>
		<path class="st2" d="M83.8,73v1.7v1.8h1.8h12.5v32.1H66V76.6h12.5h1.8v-1.8V73H83.8 M85.6,71.3h-7v3.5H64.3v35.6h35.6V74.8H85.6
			V71.3L85.6,71.3z"/>
	</g>
	<g>
		<polygon class="st3" points="65.1,164.1 65.1,130.3 79.4,130.3 79.4,126.7 84.7,126.7 84.7,130.3 99,130.3 99,164.1 		"/>
		<path class="st4" d="M83.8,127.6v1.7v1.8h1.8h12.5v32.1H66v-32.1h12.5h1.8v-1.8v-1.7H83.8 M85.6,125.8h-7v3.5H64.3V165h35.6v-35.6
			H85.6V125.8L85.6,125.8z"/>
	</g>
	<g>
		<polygon class="st5" points="65.1,273.3 65.1,239.4 79.4,239.4 79.4,235.9 84.7,235.9 84.7,239.4 99,239.4 99,273.3 		"/>
		<path class="st6" d="M83.8,236.8v1.7v1.8h1.8h12.5v32.1H66v-32.1h12.5h1.8v-1.8v-1.7H83.8 M85.6,235h-7v3.5H64.3v35.6h35.6v-35.6
			H85.6V235L85.6,235z"/>
	</g>
	<g>
		<polygon class="st7" points="65.1,327.8 65.1,294 79.4,294 79.4,290.5 84.7,290.5 84.7,294 99,294 99,327.8 		"/>
		<path class="st8" d="M83.8,291.4v1.7v1.8h1.8h12.5V327H66v-32.1h12.5h1.8v-1.8v-1.7H83.8 M85.6,289.6h-7v3.5H64.3v35.6h35.6v-35.6
			H85.6V289.6L85.6,289.6z"/>
	</g>
	<g>
		<polygon class="st7" points="111,54.9 111,21.1 125.3,21.1 125.3,17.6 130.6,17.6 130.6,21.1 144.9,21.1 144.9,54.9 		"/>
		<path class="st8" d="M129.7,18.5v1.7V22h1.8H144V54h-32.1V22h12.5h1.8v-1.8v-1.7H129.7 M131.5,16.7h-7v3.5h-14.3v35.6h35.6V20.2
			h-14.3V16.7L131.5,16.7z"/>
	</g>
	<g>
		<polygon class="st3" points="111,218.7 111,184.8 125.3,184.8 125.3,181.3 130.6,181.3 130.6,184.8 144.9,184.8 144.9,218.7 		"/>
		<path class="st4" d="M129.7,182.2v1.7v1.8h1.8H144v32.1h-32.1v-32.1h12.5h1.8V184v-1.7H129.7 M131.5,180.4h-7v3.5h-14.3v35.6h35.6
			V184h-14.3V180.4L131.5,180.4z"/>
	</g>
	<g>
		<polygon class="st5" points="111,273.3 111,239.4 125.3,239.4 125.3,235.9 130.6,235.9 130.6,239.4 144.9,239.4 144.9,273.3 		"/>
		<path class="st6" d="M129.7,236.8v1.7v1.8h1.8H144v32.1h-32.1v-32.1h12.5h1.8v-1.8v-1.7H129.7 M131.5,235h-7v3.5h-14.3v35.6h35.6
			v-35.6h-14.3V235L131.5,235z"/>
	</g>
	<g>
		<polygon class="st7" points="111,382.4 111,348.6 125.3,348.6 125.3,345.1 130.6,345.1 130.6,348.6 144.9,348.6 144.9,382.4 		"/>
		<path class="st8" d="M129.7,346v1.7v1.8h1.8H144v32.1h-32.1v-32.1h12.5h1.8v-1.8V346H129.7 M131.5,344.2h-7v3.5h-14.3v35.6h35.6
			v-35.6h-14.3V344.2L131.5,344.2z"/>
	</g>
</g>
</svg>
