<?xml version="1.0" encoding="utf-8"?>
<!-- Generator: Adobe Illustrator 22.1.0, SVG Export Plug-In . SVG Version: 6.00 Build 0)  -->
<svg version="1.1" id="Layer_1" xmlns="http://www.w3.org/2000/svg" xmlns:xlink="http://www.w3.org/1999/xlink" x="0px" y="0px"
	 viewBox="0 0 400 500" style="enable-background:new 0 0 400 500;" xml:space="preserve">
<style type="text/css">
	.st0{enable-background:new    ;}
	.st1{fill:#FFFFFF;}
	.st2{opacity:0.1;enable-background:new    ;}
	.st3{opacity:0.1;}
	.st4{fill:#00CDC8;}
	.st5{fill:#F24044;}
	.st6{fill:#A5D73C;}
	.st7{fill:#8ABB2A;}
	.st8{font-family:'Nunito-Bold';}
	.st9{font-size:68.2908px;}
	.st10{letter-spacing:-2;}
	.st11{fill:none;stroke:#FFFFFF;stroke-width:6;stroke-linecap:round;stroke-linejoin:round;}
</style>
<g>
	<g class="st0">
		<path class="st1" d="M25.9,141.4c0,0.2-0.1,0.4-0.3,0.6s-0.4,0.2-0.6,0.2c-0.4,0-0.7-0.2-0.8-0.6l-1.6-3.7h-8.7l-1.7,3.7
			c-0.2,0.4-0.4,0.6-0.8,0.6c-0.2,0-0.5-0.1-0.6-0.2s-0.3-0.4-0.3-0.6c0-0.1,0-0.2,0.1-0.4l6.6-14.7c0.1-0.2,0.2-0.4,0.4-0.5
			c0.2-0.1,0.4-0.2,0.6-0.2c0.2,0,0.4,0.1,0.6,0.2s0.3,0.3,0.4,0.5l6.6,14.7C25.9,141.2,25.9,141.3,25.9,141.4z M14.5,136.4h7.3
			l-3.7-8.3L14.5,136.4z"/>
		<path class="st1" d="M38,135.1v6.2c0,0.3-0.1,0.5-0.2,0.7c-0.2,0.2-0.4,0.2-0.7,0.2s-0.5-0.1-0.7-0.2s-0.3-0.4-0.3-0.7v-6.1
			c0-1-0.2-1.8-0.6-2.3c-0.4-0.5-1.1-0.7-1.9-0.7c-1,0-1.9,0.3-2.5,0.9c-0.6,0.6-0.9,1.5-0.9,2.6v5.6c0,0.3-0.1,0.5-0.2,0.7
			c-0.2,0.2-0.4,0.2-0.7,0.2s-0.5-0.1-0.7-0.2s-0.3-0.4-0.3-0.7v-9.7c0-0.3,0.1-0.5,0.3-0.7s0.4-0.3,0.7-0.3c0.3,0,0.5,0.1,0.7,0.3
			s0.2,0.4,0.2,0.6v1.2c0.4-0.7,0.9-1.2,1.5-1.6c0.7-0.4,1.4-0.5,2.3-0.5C36.6,130.6,38,132.1,38,135.1z"/>
		<path class="st1" d="M47.4,141.5c0,0.3-0.1,0.5-0.3,0.6c-0.2,0.1-0.5,0.2-0.9,0.1l-0.6,0c-1.2-0.1-2.1-0.5-2.7-1.1
			c-0.6-0.6-0.9-1.6-0.9-2.9v-5.8h-1.5c-0.3,0-0.5-0.1-0.6-0.2c-0.1-0.1-0.2-0.3-0.2-0.5c0-0.2,0.1-0.4,0.2-0.6
			c0.1-0.1,0.3-0.2,0.6-0.2H42v-2.6c0-0.3,0.1-0.5,0.3-0.7s0.4-0.2,0.7-0.2c0.3,0,0.5,0.1,0.7,0.2s0.3,0.4,0.3,0.7v2.6h2.6
			c0.2,0,0.4,0.1,0.6,0.2c0.1,0.1,0.2,0.3,0.2,0.6c0,0.2-0.1,0.4-0.2,0.5c-0.1,0.1-0.3,0.2-0.6,0.2h-2.6v5.9c0,0.8,0.2,1.5,0.5,1.8
			s0.9,0.6,1.6,0.6l0.6,0C47.1,140.8,47.4,141.1,47.4,141.5z"/>
		<path class="st1" d="M58.3,139.7c0.1,0.1,0.2,0.3,0.2,0.5c0,0.4-0.3,0.7-0.8,1.1c-0.6,0.3-1.1,0.6-1.8,0.7
			c-0.6,0.2-1.2,0.2-1.8,0.2c-1.7,0-3.1-0.5-4.1-1.5c-1-1-1.5-2.5-1.5-4.3c0-1.2,0.2-2.2,0.7-3.1c0.4-0.9,1.1-1.6,1.9-2.1
			c0.8-0.5,1.7-0.7,2.8-0.7c1.5,0,2.6,0.5,3.5,1.4c0.9,1,1.3,2.2,1.3,3.9c0,0.3-0.1,0.5-0.2,0.7c-0.1,0.1-0.3,0.2-0.6,0.2h-7.4
			c0.1,2.6,1.4,4,3.8,4c0.6,0,1.1-0.1,1.5-0.2c0.4-0.2,0.9-0.4,1.4-0.7c0.4-0.2,0.7-0.3,0.8-0.3C58.1,139.5,58.2,139.6,58.3,139.7z
			 M51.5,133c-0.6,0.6-0.9,1.5-1,2.6H57c0-1.1-0.3-2-0.9-2.6s-1.3-0.9-2.3-0.9C52.9,132.1,52.1,132.4,51.5,133z"/>
		<path class="st1" d="M63.2,141.6c-0.8-0.5-1.4-1.2-1.9-2c-0.4-0.9-0.7-1.9-0.7-3c0-1.2,0.2-2.2,0.7-3.1s1.1-1.6,1.9-2.1
			c0.8-0.5,1.8-0.7,2.8-0.7c0.6,0,1.2,0.1,1.7,0.2c0.6,0.2,1.1,0.4,1.5,0.7c0.3,0.2,0.5,0.4,0.6,0.5c0.1,0.2,0.2,0.4,0.2,0.6
			c0,0.2-0.1,0.4-0.2,0.5c-0.1,0.1-0.3,0.2-0.4,0.2c-0.1,0-0.2,0-0.3-0.1s-0.2-0.1-0.3-0.2c-0.1-0.1-0.1-0.1-0.2-0.1
			c-0.4-0.3-0.8-0.5-1.1-0.6c-0.4-0.2-0.8-0.2-1.3-0.2c-1.1,0-2,0.4-2.6,1.1c-0.6,0.8-0.9,1.8-0.9,3.2s0.3,2.4,0.9,3.1
			c0.6,0.7,1.5,1.1,2.6,1.1c0.5,0,1-0.1,1.3-0.2c0.4-0.2,0.8-0.4,1.1-0.6c0.2-0.1,0.3-0.2,0.5-0.3c0.2-0.1,0.3-0.1,0.4-0.1
			c0.2,0,0.3,0.1,0.4,0.2c0.1,0.1,0.2,0.3,0.2,0.5c0,0.2-0.1,0.4-0.2,0.5c-0.1,0.2-0.3,0.3-0.6,0.5c-0.4,0.3-0.9,0.5-1.6,0.7
			s-1.2,0.3-1.8,0.3C65,142.3,64,142.1,63.2,141.6z"/>
		<path class="st1" d="M81.5,139.7c0.1,0.1,0.2,0.3,0.2,0.5c0,0.4-0.3,0.7-0.8,1.1c-0.6,0.3-1.1,0.6-1.8,0.7
			c-0.6,0.2-1.2,0.2-1.8,0.2c-1.7,0-3.1-0.5-4.1-1.5c-1-1-1.5-2.5-1.5-4.3c0-1.2,0.2-2.2,0.7-3.1c0.4-0.9,1.1-1.6,1.9-2.1
			c0.8-0.5,1.7-0.7,2.8-0.7c1.5,0,2.6,0.5,3.5,1.4s1.3,2.2,1.3,3.9c0,0.3-0.1,0.5-0.2,0.7c-0.1,0.1-0.3,0.2-0.6,0.2h-7.4
			c0.1,2.6,1.4,4,3.8,4c0.6,0,1.1-0.1,1.5-0.2c0.4-0.2,0.9-0.4,1.4-0.7c0.4-0.2,0.7-0.3,0.8-0.3C81.3,139.5,81.4,139.6,81.5,139.7z
			 M74.7,133c-0.6,0.6-0.9,1.5-1,2.6h6.5c0-1.1-0.3-2-0.9-2.6c-0.5-0.6-1.3-0.9-2.3-0.9C76.1,132.1,75.3,132.4,74.7,133z"/>
		<path class="st1" d="M86.3,142c-0.6-0.2-1.2-0.4-1.7-0.7c-0.3-0.2-0.5-0.4-0.6-0.5c-0.1-0.2-0.2-0.4-0.2-0.6
			c0-0.2,0.1-0.4,0.2-0.5s0.3-0.2,0.4-0.2c0.2,0,0.5,0.1,0.8,0.3c0.5,0.3,0.9,0.5,1.4,0.7c0.5,0.2,1,0.2,1.7,0.2
			c0.8,0,1.5-0.1,1.9-0.4c0.5-0.3,0.7-0.7,0.7-1.3c0-0.3-0.1-0.6-0.3-0.8c-0.2-0.2-0.5-0.4-0.9-0.6c-0.4-0.2-1-0.3-1.8-0.5
			c-1.4-0.3-2.3-0.7-2.9-1.2c-0.6-0.5-0.9-1.2-0.9-2c0-0.7,0.2-1.2,0.6-1.8s0.9-0.9,1.5-1.2c0.7-0.3,1.4-0.4,2.2-0.4
			c0.6,0,1.2,0.1,1.7,0.2c0.6,0.2,1.1,0.4,1.5,0.7c0.5,0.4,0.8,0.8,0.8,1.2c0,0.2-0.1,0.4-0.2,0.5s-0.3,0.2-0.4,0.2
			c-0.2,0-0.5-0.1-0.8-0.4c-0.4-0.3-0.8-0.5-1.2-0.6c-0.4-0.2-0.9-0.2-1.4-0.2c-0.7,0-1.3,0.2-1.7,0.5c-0.4,0.3-0.7,0.8-0.7,1.3
			c0,0.3,0.1,0.6,0.2,0.8c0.2,0.2,0.4,0.4,0.8,0.6c0.4,0.2,0.9,0.3,1.6,0.5c1,0.2,1.9,0.5,2.4,0.8c0.6,0.3,1,0.6,1.2,1
			c0.2,0.4,0.4,0.9,0.4,1.5c0,1-0.4,1.7-1.2,2.3c-0.8,0.6-1.9,0.9-3.2,0.9C87.6,142.3,87,142.2,86.3,142z"/>
		<path class="st1" d="M97.5,141.6c-0.8-0.5-1.4-1.2-1.9-2s-0.7-1.9-0.7-3.1s0.2-2.2,0.7-3.1s1.1-1.6,1.9-2s1.7-0.7,2.8-0.7
			c1.1,0,2,0.2,2.8,0.7c0.8,0.5,1.4,1.2,1.9,2c0.4,0.9,0.7,1.9,0.7,3.1s-0.2,2.2-0.7,3.1c-0.4,0.9-1.1,1.6-1.9,2
			c-0.8,0.5-1.8,0.7-2.8,0.7C99.2,142.3,98.3,142.1,97.5,141.6z M102.8,139.6c0.6-0.7,0.9-1.8,0.9-3.2c0-1.4-0.3-2.4-0.9-3.2
			c-0.6-0.7-1.4-1.1-2.5-1.1c-1.1,0-1.9,0.4-2.5,1.1c-0.6,0.7-0.9,1.8-0.9,3.2c0,1.4,0.3,2.4,0.9,3.2c0.6,0.7,1.4,1.1,2.5,1.1
			C101.4,140.7,102.2,140.4,102.8,139.6z"/>
		<path class="st1" d="M114.9,131.5c0,0.2-0.1,0.4-0.2,0.6c-0.1,0.1-0.4,0.2-0.7,0.3l-0.7,0.1c-1,0.1-1.8,0.5-2.3,1.1
			c-0.5,0.6-0.7,1.4-0.7,2.2v5.6c0,0.3-0.1,0.5-0.3,0.7s-0.4,0.2-0.7,0.2c-0.3,0-0.5-0.1-0.7-0.2s-0.3-0.4-0.3-0.7v-9.7
			c0-0.3,0.1-0.5,0.3-0.7s0.4-0.2,0.7-0.2c0.2,0,0.5,0.1,0.6,0.2s0.3,0.4,0.3,0.7v1.3c0.3-0.7,0.8-1.2,1.4-1.5s1.3-0.6,2-0.6l0.3,0
			C114.6,130.6,114.9,130.9,114.9,131.5z"/>
	</g>
	<g class="st0">
		<path class="st1" d="M292.7,141.8c-1.1-0.3-1.9-0.8-2.5-1.4c-0.2-0.2-0.3-0.5-0.3-0.8c0-0.2,0.1-0.4,0.2-0.6s0.3-0.2,0.4-0.2
			c0.2,0,0.4,0.1,0.6,0.3c1.4,1.1,3.1,1.7,4.9,1.7c1.3,0,2.3-0.3,3-0.8c0.7-0.5,1.1-1.2,1.1-2.2c0-0.5-0.2-1-0.5-1.3
			c-0.3-0.3-0.8-0.6-1.3-0.8c-0.6-0.2-1.3-0.4-2.2-0.6c-1.3-0.3-2.3-0.6-3.1-0.9c-0.8-0.3-1.5-0.8-2-1.4c-0.5-0.6-0.7-1.4-0.7-2.4
			c0-0.9,0.2-1.7,0.7-2.5c0.5-0.7,1.2-1.3,2.1-1.7c0.9-0.4,1.9-0.6,3.1-0.6c1.1,0,2.1,0.2,3,0.5c0.9,0.3,1.7,0.8,2.3,1.4
			c0.2,0.2,0.4,0.5,0.4,0.8c0,0.2-0.1,0.4-0.2,0.6c-0.1,0.2-0.3,0.2-0.4,0.2s-0.4-0.1-0.7-0.3c-0.8-0.6-1.5-1-2.1-1.3
			c-0.6-0.2-1.4-0.4-2.3-0.4c-1.3,0-2.3,0.3-3,0.8s-1.1,1.3-1.1,2.2c0,0.8,0.3,1.4,0.9,1.8c0.6,0.4,1.6,0.8,2.9,1.1
			c1.4,0.3,2.5,0.6,3.3,0.9c0.8,0.3,1.5,0.7,2,1.3s0.8,1.3,0.8,2.3c0,0.9-0.2,1.7-0.7,2.4c-0.5,0.7-1.2,1.2-2.1,1.6
			c-0.9,0.4-1.9,0.6-3.1,0.6C294.8,142.3,293.7,142.1,292.7,141.8z"/>
		<path class="st1" d="M314,130.9c0.2,0.2,0.2,0.4,0.2,0.7v9.8c0,0.3-0.1,0.5-0.2,0.6c-0.2,0.2-0.4,0.3-0.7,0.3
			c-0.3,0-0.5-0.1-0.7-0.2c-0.2-0.2-0.2-0.4-0.2-0.6v-1.2c-0.4,0.7-0.8,1.2-1.5,1.5c-0.6,0.4-1.4,0.5-2.2,0.5c-1.3,0-2.3-0.4-3-1.1
			c-0.7-0.7-1-1.8-1-3.3v-6.3c0-0.3,0.1-0.5,0.3-0.7c0.2-0.2,0.4-0.3,0.7-0.3s0.5,0.1,0.7,0.3c0.2,0.2,0.2,0.4,0.2,0.7v6.2
			c0,1,0.2,1.7,0.6,2.2s1,0.7,1.9,0.7c1,0,1.8-0.3,2.4-1c0.6-0.6,0.9-1.5,0.9-2.5v-5.6c0-0.3,0.1-0.5,0.3-0.7
			c0.2-0.2,0.4-0.3,0.7-0.3S313.8,130.8,314,130.9z"/>
		<path class="st1" d="M319.5,141.6c-0.8-0.5-1.4-1.2-1.9-2s-0.7-1.9-0.7-3c0-1.2,0.2-2.2,0.7-3.1c0.5-0.9,1.1-1.6,1.9-2.1
			c0.8-0.5,1.8-0.7,2.8-0.7c0.6,0,1.2,0.1,1.7,0.2c0.6,0.2,1.1,0.4,1.5,0.7c0.3,0.2,0.5,0.4,0.6,0.5s0.2,0.4,0.2,0.6
			c0,0.2-0.1,0.4-0.2,0.5c-0.1,0.1-0.3,0.2-0.4,0.2c-0.1,0-0.2,0-0.3-0.1c-0.1-0.1-0.2-0.1-0.3-0.2c-0.1-0.1-0.1-0.1-0.2-0.1
			c-0.4-0.3-0.8-0.5-1.1-0.6c-0.4-0.2-0.8-0.2-1.3-0.2c-1.1,0-2,0.4-2.6,1.1c-0.6,0.8-0.9,1.8-0.9,3.2s0.3,2.4,0.9,3.1
			c0.6,0.7,1.5,1.1,2.6,1.1c0.5,0,1-0.1,1.3-0.2c0.4-0.2,0.8-0.4,1.1-0.6c0.2-0.1,0.3-0.2,0.5-0.3s0.3-0.1,0.4-0.1
			c0.2,0,0.3,0.1,0.4,0.2c0.1,0.1,0.2,0.3,0.2,0.5c0,0.2-0.1,0.4-0.2,0.5s-0.3,0.3-0.6,0.5c-0.4,0.3-0.9,0.5-1.6,0.7
			c-0.6,0.2-1.2,0.3-1.8,0.3C321.3,142.3,320.4,142.1,319.5,141.6z"/>
		<path class="st1" d="M337.9,139.7c0.1,0.1,0.2,0.3,0.2,0.5c0,0.4-0.3,0.7-0.8,1.1c-0.6,0.3-1.1,0.6-1.8,0.7
			c-0.6,0.2-1.2,0.2-1.8,0.2c-1.7,0-3.1-0.5-4.1-1.5c-1-1-1.5-2.5-1.5-4.3c0-1.2,0.2-2.2,0.7-3.1c0.4-0.9,1.1-1.6,1.9-2.1
			c0.8-0.5,1.7-0.7,2.8-0.7c1.5,0,2.6,0.5,3.5,1.4c0.9,1,1.3,2.2,1.3,3.9c0,0.3-0.1,0.5-0.2,0.7c-0.1,0.1-0.3,0.2-0.6,0.2h-7.4
			c0.1,2.6,1.4,4,3.8,4c0.6,0,1.1-0.1,1.5-0.2c0.4-0.2,0.9-0.4,1.4-0.7c0.4-0.2,0.7-0.3,0.8-0.3
			C337.6,139.5,337.7,139.6,337.9,139.7z M331,133c-0.6,0.6-0.9,1.5-1,2.6h6.5c0-1.1-0.3-2-0.9-2.6s-1.3-0.9-2.3-0.9
			C332.4,132.1,331.6,132.4,331,133z"/>
		<path class="st1" d="M342.6,142c-0.6-0.2-1.2-0.4-1.7-0.7c-0.3-0.2-0.5-0.4-0.6-0.5c-0.1-0.2-0.2-0.4-0.2-0.6
			c0-0.2,0.1-0.4,0.2-0.5s0.3-0.2,0.4-0.2s0.5,0.1,0.8,0.3c0.5,0.3,0.9,0.5,1.4,0.7c0.5,0.2,1,0.2,1.7,0.2c0.8,0,1.5-0.1,1.9-0.4
			s0.7-0.7,0.7-1.3c0-0.3-0.1-0.6-0.3-0.8c-0.2-0.2-0.5-0.4-0.9-0.6c-0.4-0.2-1-0.3-1.8-0.5c-1.4-0.3-2.3-0.7-2.9-1.2
			c-0.6-0.5-0.9-1.2-0.9-2c0-0.7,0.2-1.2,0.6-1.8c0.4-0.5,0.9-0.9,1.5-1.2c0.7-0.3,1.4-0.4,2.2-0.4c0.6,0,1.2,0.1,1.7,0.2
			c0.6,0.2,1.1,0.4,1.5,0.7c0.5,0.4,0.8,0.8,0.8,1.2c0,0.2-0.1,0.4-0.2,0.5s-0.3,0.2-0.4,0.2c-0.2,0-0.5-0.1-0.8-0.4
			c-0.4-0.3-0.8-0.5-1.2-0.6c-0.4-0.2-0.9-0.2-1.4-0.2c-0.7,0-1.3,0.2-1.7,0.5c-0.4,0.3-0.7,0.8-0.7,1.3c0,0.3,0.1,0.6,0.2,0.8
			c0.2,0.2,0.4,0.4,0.8,0.6c0.4,0.2,0.9,0.3,1.6,0.5c1,0.2,1.9,0.5,2.4,0.8c0.6,0.3,1,0.6,1.2,1c0.2,0.4,0.4,0.9,0.4,1.5
			c0,1-0.4,1.7-1.2,2.3c-0.8,0.6-1.9,0.9-3.2,0.9C344,142.3,343.3,142.2,342.6,142z"/>
		<path class="st1" d="M353.8,141.6c-0.8-0.5-1.4-1.2-1.9-2c-0.4-0.9-0.7-1.9-0.7-3.1s0.2-2.2,0.7-3.1c0.4-0.9,1.1-1.6,1.9-2
			c0.8-0.5,1.7-0.7,2.8-0.7s2,0.2,2.8,0.7s1.4,1.2,1.9,2c0.4,0.9,0.7,1.9,0.7,3.1s-0.2,2.2-0.7,3.1c-0.4,0.9-1.1,1.6-1.9,2
			c-0.8,0.5-1.8,0.7-2.8,0.7S354.6,142.1,353.8,141.6z M359.2,139.7c0.6-0.7,0.9-1.8,0.9-3.2c0-1.4-0.3-2.4-0.9-3.2
			c-0.6-0.7-1.4-1.1-2.5-1.1c-1.1,0-1.9,0.4-2.5,1.1c-0.6,0.7-0.9,1.8-0.9,3.2c0,1.4,0.3,2.4,0.9,3.2c0.6,0.7,1.4,1.1,2.5,1.1
			S358.6,140.4,359.2,139.7z"/>
		<path class="st1" d="M371.3,131.5c0,0.2-0.1,0.4-0.2,0.6c-0.1,0.1-0.4,0.2-0.7,0.3l-0.7,0.1c-1,0.1-1.8,0.5-2.3,1.1
			c-0.5,0.6-0.7,1.4-0.7,2.2v5.6c0,0.3-0.1,0.5-0.3,0.7c-0.2,0.2-0.4,0.2-0.7,0.2c-0.3,0-0.5-0.1-0.7-0.2s-0.3-0.4-0.3-0.7v-9.7
			c0-0.3,0.1-0.5,0.3-0.7c0.2-0.2,0.4-0.2,0.7-0.2c0.2,0,0.5,0.1,0.6,0.2c0.2,0.2,0.3,0.4,0.3,0.7v1.3c0.3-0.7,0.8-1.2,1.4-1.5
			s1.3-0.6,2-0.6l0.3,0C370.9,130.6,371.3,130.9,371.3,131.5z"/>
	</g>
	<g class="st0">
		<path class="st1" d="M168.7,126c0.2,0.2,0.2,0.4,0.2,0.7v14.5c0,0.3-0.1,0.5-0.2,0.7c-0.2,0.2-0.4,0.3-0.7,0.3s-0.5-0.1-0.8-0.4
			l-9.6-12.8v12.2c0,0.3-0.1,0.5-0.2,0.7c-0.2,0.2-0.4,0.3-0.7,0.3s-0.5-0.1-0.6-0.3c-0.2-0.2-0.2-0.4-0.2-0.7v-14.5
			c0-0.3,0.1-0.5,0.2-0.7s0.4-0.3,0.7-0.3c0.3,0,0.6,0.1,0.8,0.4l9.5,12.8v-12.2c0-0.3,0.1-0.5,0.2-0.7c0.2-0.2,0.4-0.3,0.7-0.3
			C168.4,125.8,168.6,125.8,168.7,126z"/>
		<path class="st1" d="M181.9,130.9c0.2,0.2,0.2,0.4,0.2,0.7v9.8c0,0.3-0.1,0.5-0.2,0.6s-0.4,0.3-0.7,0.3c-0.3,0-0.5-0.1-0.7-0.2
			s-0.2-0.4-0.2-0.6v-1.2c-0.4,0.7-0.8,1.2-1.5,1.5c-0.6,0.4-1.4,0.5-2.2,0.5c-1.3,0-2.3-0.4-3-1.1c-0.7-0.7-1-1.8-1-3.3v-6.3
			c0-0.3,0.1-0.5,0.3-0.7s0.4-0.3,0.7-0.3c0.3,0,0.5,0.1,0.7,0.3s0.2,0.4,0.2,0.7v6.2c0,1,0.2,1.7,0.6,2.2c0.4,0.5,1,0.7,1.9,0.7
			c1,0,1.8-0.3,2.4-1s0.9-1.5,0.9-2.5v-5.6c0-0.3,0.1-0.5,0.3-0.7s0.4-0.3,0.7-0.3C181.5,130.7,181.8,130.8,181.9,130.9z
			 M177.5,129.5c-0.2,0-0.3,0-0.4-0.1s-0.2-0.2-0.2-0.4c0-0.1,0-0.2,0.1-0.3l2.7-3.5c0.3-0.4,0.6-0.5,0.9-0.5c0.2,0,0.5,0.1,0.6,0.2
			c0.2,0.2,0.3,0.4,0.3,0.6c0,0.3-0.2,0.6-0.5,0.9l-3.3,3C177.7,129.5,177.6,129.5,177.5,129.5z"/>
		<path class="st1" d="M201.9,135.1v6.2c0,0.3-0.1,0.5-0.3,0.7s-0.4,0.2-0.7,0.2c-0.3,0-0.5-0.1-0.7-0.2s-0.3-0.4-0.3-0.7v-6.2
			c0-1-0.2-1.8-0.6-2.2c-0.4-0.5-0.9-0.7-1.7-0.7c-0.9,0-1.7,0.3-2.2,0.9c-0.5,0.6-0.8,1.5-0.8,2.6v5.6c0,0.3-0.1,0.5-0.3,0.7
			c-0.2,0.2-0.4,0.2-0.7,0.2s-0.5-0.1-0.7-0.2c-0.2-0.2-0.3-0.4-0.3-0.7v-6.2c0-1-0.2-1.8-0.6-2.2c-0.4-0.5-1-0.7-1.8-0.7
			c-0.9,0-1.7,0.3-2.2,0.9c-0.5,0.6-0.8,1.5-0.8,2.6v5.6c0,0.3-0.1,0.5-0.3,0.7c-0.2,0.2-0.4,0.2-0.7,0.2c-0.3,0-0.5-0.1-0.7-0.2
			s-0.3-0.4-0.3-0.7v-9.7c0-0.3,0.1-0.5,0.3-0.7s0.4-0.3,0.7-0.3c0.3,0,0.5,0.1,0.6,0.2s0.3,0.4,0.3,0.7v1.1
			c0.3-0.7,0.8-1.2,1.4-1.5s1.3-0.5,2.1-0.5c1.8,0,2.9,0.7,3.4,2.2c0.3-0.7,0.8-1.2,1.5-1.6s1.4-0.6,2.3-0.6
			C200.6,130.6,201.9,132.1,201.9,135.1z"/>
		<path class="st1" d="M214.4,139.7c0.1,0.1,0.2,0.3,0.2,0.5c0,0.4-0.3,0.7-0.8,1.1c-0.6,0.3-1.1,0.6-1.8,0.7
			c-0.6,0.2-1.2,0.2-1.8,0.2c-1.7,0-3.1-0.5-4.1-1.5c-1-1-1.5-2.5-1.5-4.3c0-1.2,0.2-2.2,0.7-3.1c0.4-0.9,1.1-1.6,1.9-2.1
			c0.8-0.5,1.7-0.7,2.8-0.7c1.5,0,2.6,0.5,3.5,1.4c0.9,1,1.3,2.2,1.3,3.9c0,0.3-0.1,0.5-0.2,0.7c-0.1,0.1-0.3,0.2-0.6,0.2h-7.4
			c0.1,2.6,1.4,4,3.8,4c0.6,0,1.1-0.1,1.5-0.2c0.4-0.2,0.9-0.4,1.4-0.7c0.4-0.2,0.7-0.3,0.8-0.3
			C214.1,139.5,214.3,139.6,214.4,139.7z M207.6,133c-0.6,0.6-0.9,1.5-1,2.6h6.5c0-1.1-0.3-2-0.9-2.6s-1.3-0.9-2.3-0.9
			C209,132.1,208.2,132.4,207.6,133z"/>
		<path class="st1" d="M224,131.5c0,0.2-0.1,0.4-0.2,0.6c-0.1,0.1-0.4,0.2-0.7,0.3l-0.7,0.1c-1,0.1-1.8,0.5-2.3,1.1
			c-0.5,0.6-0.7,1.4-0.7,2.2v5.6c0,0.3-0.1,0.5-0.3,0.7s-0.4,0.2-0.7,0.2c-0.3,0-0.5-0.1-0.7-0.2s-0.3-0.4-0.3-0.7v-9.7
			c0-0.3,0.1-0.5,0.3-0.7s0.4-0.2,0.7-0.2c0.2,0,0.5,0.1,0.6,0.2s0.3,0.4,0.3,0.7v1.3c0.3-0.7,0.8-1.2,1.4-1.5s1.3-0.6,2-0.6l0.3,0
			C223.6,130.6,224,130.9,224,131.5z"/>
		<path class="st1" d="M227.2,141.6c-0.8-0.5-1.4-1.2-1.9-2s-0.7-1.9-0.7-3.1s0.2-2.2,0.7-3.1s1.1-1.6,1.9-2s1.7-0.7,2.8-0.7
			c1.1,0,2,0.2,2.8,0.7c0.8,0.5,1.4,1.2,1.9,2c0.4,0.9,0.7,1.9,0.7,3.1s-0.2,2.2-0.7,3.1c-0.4,0.9-1.1,1.6-1.9,2
			c-0.8,0.5-1.8,0.7-2.8,0.7C228.9,142.3,228,142.1,227.2,141.6z M232.5,139.7c0.6-0.7,0.9-1.8,0.9-3.2c0-1.4-0.3-2.4-0.9-3.2
			c-0.6-0.7-1.4-1.1-2.5-1.1c-1.1,0-1.9,0.4-2.5,1.1c-0.6,0.7-0.9,1.8-0.9,3.2c0,1.4,0.3,2.4,0.9,3.2c0.6,0.7,1.4,1.1,2.5,1.1
			C231.1,140.7,232,140.4,232.5,139.7z"/>
	</g>
	<g>
		<g class="st0">
			<path class="st1" d="M33.8,380.6c-0.8-0.5-1.4-1.2-1.9-2c-0.4-0.9-0.7-1.9-0.7-3c0-1.2,0.2-2.2,0.7-3.1c0.5-0.9,1.1-1.6,1.9-2.1
				c0.8-0.5,1.8-0.7,2.8-0.7c0.6,0,1.2,0.1,1.7,0.2c0.6,0.2,1.1,0.4,1.5,0.7c0.3,0.2,0.5,0.4,0.6,0.5c0.1,0.2,0.2,0.4,0.2,0.6
				c0,0.2-0.1,0.4-0.2,0.5c-0.1,0.1-0.3,0.2-0.4,0.2c-0.1,0-0.2,0-0.3-0.1c-0.1-0.1-0.2-0.1-0.3-0.2s-0.1-0.1-0.2-0.1
				c-0.4-0.3-0.8-0.5-1.1-0.6c-0.4-0.2-0.8-0.2-1.3-0.2c-1.1,0-2,0.4-2.6,1.1s-0.9,1.8-0.9,3.2s0.3,2.4,0.9,3.1
				c0.6,0.7,1.5,1.1,2.6,1.1c0.5,0,1-0.1,1.3-0.2c0.4-0.2,0.8-0.4,1.1-0.6c0.2-0.1,0.3-0.2,0.5-0.3c0.2-0.1,0.3-0.1,0.4-0.1
				c0.2,0,0.3,0.1,0.4,0.2c0.1,0.1,0.2,0.3,0.2,0.5c0,0.2-0.1,0.4-0.2,0.5c-0.1,0.2-0.3,0.3-0.6,0.5c-0.4,0.3-0.9,0.5-1.6,0.7
				c-0.6,0.2-1.2,0.3-1.8,0.3C35.5,381.4,34.6,381.1,33.8,380.6z"/>
			<path class="st1" d="M52.2,370c0.2,0.2,0.2,0.4,0.2,0.7v9.8c0,0.3-0.1,0.5-0.2,0.6c-0.2,0.2-0.4,0.3-0.7,0.3
				c-0.3,0-0.5-0.1-0.7-0.2c-0.2-0.2-0.2-0.4-0.2-0.6v-1.2c-0.4,0.7-0.8,1.2-1.5,1.5c-0.6,0.4-1.4,0.5-2.2,0.5c-1.3,0-2.3-0.4-3-1.1
				c-0.7-0.7-1-1.8-1-3.3v-6.3c0-0.3,0.1-0.5,0.3-0.7c0.2-0.2,0.4-0.3,0.7-0.3c0.3,0,0.5,0.1,0.7,0.3c0.2,0.2,0.2,0.4,0.2,0.7v6.2
				c0,1,0.2,1.7,0.6,2.2c0.4,0.5,1,0.7,1.9,0.7c1,0,1.8-0.3,2.4-1c0.6-0.6,0.9-1.5,0.9-2.5v-5.6c0-0.3,0.1-0.5,0.3-0.7
				c0.2-0.2,0.4-0.3,0.7-0.3C51.8,369.7,52,369.8,52.2,370z"/>
			<path class="st1" d="M64.7,374.1v6.3c0,0.3-0.1,0.5-0.2,0.7c-0.2,0.2-0.4,0.3-0.7,0.3c-0.3,0-0.5-0.1-0.7-0.3
				c-0.2-0.2-0.3-0.4-0.3-0.7v-1.1c-0.3,0.7-0.7,1.2-1.3,1.5c-0.6,0.4-1.3,0.5-2.1,0.5c-0.7,0-1.4-0.1-2-0.4
				c-0.6-0.3-1.1-0.7-1.4-1.2s-0.5-1.1-0.5-1.7c0-0.8,0.2-1.5,0.6-2s1.1-0.8,2.1-1c1-0.2,2.4-0.3,4.1-0.3h0.5v-0.8
				c0-0.9-0.2-1.6-0.6-2c-0.4-0.4-1-0.6-1.8-0.6c-1,0-2.1,0.3-3.2,0.9c-0.4,0.3-0.7,0.4-0.9,0.4c-0.2,0-0.3-0.1-0.5-0.2
				c-0.1-0.1-0.2-0.3-0.2-0.5c0-0.2,0.1-0.4,0.2-0.6c0.1-0.2,0.3-0.3,0.6-0.5c0.5-0.3,1.1-0.5,1.8-0.7c0.7-0.2,1.4-0.3,2-0.3
				C63.3,369.7,64.7,371.2,64.7,374.1z M62,378.9c0.6-0.6,0.9-1.4,0.9-2.4v-0.7h-0.4c-1.4,0-2.4,0.1-3.1,0.2
				c-0.7,0.1-1.2,0.3-1.5,0.6s-0.4,0.7-0.4,1.2c0,0.6,0.2,1.1,0.7,1.5c0.4,0.4,1,0.6,1.6,0.6C60.7,379.9,61.4,379.6,62,378.9z"/>
			<path class="st1" d="M74.1,380.6c0,0.3-0.1,0.5-0.3,0.6c-0.2,0.1-0.5,0.2-0.9,0.1l-0.6,0c-1.2-0.1-2.1-0.5-2.7-1.1
				c-0.6-0.6-0.9-1.6-0.9-2.9v-5.8h-1.5c-0.3,0-0.5-0.1-0.6-0.2c-0.1-0.1-0.2-0.3-0.2-0.5c0-0.2,0.1-0.4,0.2-0.6
				c0.1-0.1,0.3-0.2,0.6-0.2h1.5v-2.6c0-0.3,0.1-0.5,0.3-0.7s0.4-0.2,0.7-0.2c0.3,0,0.5,0.1,0.7,0.2c0.2,0.2,0.3,0.4,0.3,0.7v2.6
				h2.6c0.2,0,0.4,0.1,0.6,0.2c0.1,0.1,0.2,0.3,0.2,0.6c0,0.2-0.1,0.4-0.2,0.5c-0.1,0.1-0.3,0.2-0.6,0.2h-2.6v5.9
				c0,0.8,0.2,1.5,0.5,1.8c0.3,0.4,0.9,0.6,1.6,0.6l0.6,0C73.9,379.9,74.1,380.1,74.1,380.6z"/>
			<path class="st1" d="M82.5,370.5c0,0.2-0.1,0.4-0.2,0.6c-0.1,0.1-0.4,0.2-0.7,0.3l-0.7,0.1c-1,0.1-1.8,0.5-2.3,1.1
				c-0.5,0.6-0.7,1.4-0.7,2.2v5.6c0,0.3-0.1,0.5-0.3,0.7c-0.2,0.2-0.4,0.2-0.7,0.2s-0.5-0.1-0.7-0.2s-0.3-0.4-0.3-0.7v-9.7
				c0-0.3,0.1-0.5,0.3-0.7c0.2-0.2,0.4-0.2,0.7-0.2c0.2,0,0.5,0.1,0.6,0.2c0.2,0.2,0.3,0.4,0.3,0.7v1.3c0.3-0.7,0.8-1.2,1.4-1.5
				s1.3-0.6,2-0.6l0.3,0C82.2,369.7,82.5,370,82.5,370.5z"/>
			<path class="st1" d="M85.7,380.6c-0.8-0.5-1.4-1.2-1.9-2c-0.4-0.9-0.7-1.9-0.7-3.1s0.2-2.2,0.7-3.1c0.4-0.9,1.1-1.6,1.9-2
				c0.8-0.5,1.7-0.7,2.8-0.7c1.1,0,2,0.2,2.8,0.7c0.8,0.5,1.4,1.2,1.9,2s0.7,1.9,0.7,3.1s-0.2,2.2-0.7,3.1s-1.1,1.6-1.9,2
				c-0.8,0.5-1.8,0.7-2.8,0.7C87.5,381.4,86.5,381.1,85.7,380.6z M91.1,378.7c0.6-0.7,0.9-1.8,0.9-3.2c0-1.4-0.3-2.4-0.9-3.2
				c-0.6-0.7-1.4-1.1-2.5-1.1c-1.1,0-1.9,0.4-2.5,1.1c-0.6,0.7-0.9,1.8-0.9,3.2c0,1.4,0.3,2.4,0.9,3.2c0.6,0.7,1.4,1.1,2.5,1.1
				C89.6,379.8,90.5,379.4,91.1,378.7z"/>
		</g>
	</g>
	<g>
		<g class="st0">
			<path class="st1" d="M314.3,381.1c-0.6-0.2-1.2-0.4-1.7-0.7c-0.3-0.2-0.5-0.4-0.6-0.5c-0.1-0.2-0.2-0.4-0.2-0.6
				c0-0.2,0.1-0.4,0.2-0.5s0.3-0.2,0.4-0.2s0.5,0.1,0.8,0.3c0.5,0.3,0.9,0.5,1.4,0.7c0.5,0.2,1,0.2,1.7,0.2c0.8,0,1.5-0.1,1.9-0.4
				s0.7-0.7,0.7-1.3c0-0.3-0.1-0.6-0.3-0.8c-0.2-0.2-0.5-0.4-0.9-0.6c-0.4-0.2-1-0.3-1.8-0.5c-1.4-0.3-2.3-0.7-2.9-1.2
				c-0.6-0.5-0.9-1.2-0.9-2c0-0.7,0.2-1.2,0.6-1.8c0.4-0.5,0.9-0.9,1.5-1.2c0.7-0.3,1.4-0.4,2.2-0.4c0.6,0,1.2,0.1,1.7,0.2
				c0.6,0.2,1.1,0.4,1.5,0.7c0.5,0.4,0.8,0.8,0.8,1.2c0,0.2-0.1,0.4-0.2,0.5s-0.3,0.2-0.4,0.2c-0.2,0-0.5-0.1-0.8-0.4
				c-0.4-0.3-0.8-0.5-1.2-0.6c-0.4-0.2-0.9-0.2-1.4-0.2c-0.7,0-1.3,0.2-1.7,0.5c-0.4,0.3-0.7,0.8-0.7,1.3c0,0.3,0.1,0.6,0.2,0.8
				c0.2,0.2,0.4,0.4,0.8,0.6c0.4,0.2,0.9,0.3,1.6,0.5c1,0.2,1.9,0.5,2.4,0.8c0.6,0.3,1,0.6,1.2,1c0.2,0.4,0.4,0.9,0.4,1.5
				c0,1-0.4,1.7-1.2,2.3c-0.8,0.6-1.9,0.9-3.2,0.9C315.6,381.4,315,381.3,314.3,381.1z"/>
			<path class="st1" d="M332.7,378.8c0.1,0.1,0.2,0.3,0.2,0.5c0,0.4-0.3,0.7-0.8,1.1c-0.6,0.3-1.1,0.6-1.8,0.7
				c-0.6,0.2-1.2,0.2-1.8,0.2c-1.7,0-3.1-0.5-4.1-1.5c-1-1-1.5-2.5-1.5-4.3c0-1.2,0.2-2.2,0.7-3.1c0.4-0.9,1.1-1.6,1.9-2.1
				c0.8-0.5,1.7-0.7,2.8-0.7c1.5,0,2.6,0.5,3.5,1.4s1.3,2.2,1.3,3.9c0,0.3-0.1,0.5-0.2,0.7c-0.1,0.1-0.3,0.2-0.6,0.2h-7.4
				c0.1,2.6,1.4,4,3.8,4c0.6,0,1.1-0.1,1.5-0.2c0.4-0.2,0.9-0.4,1.4-0.7c0.4-0.2,0.7-0.3,0.8-0.3
				C332.5,378.6,332.6,378.7,332.7,378.8z M325.9,372.1c-0.6,0.6-0.9,1.5-1,2.6h6.5c0-1.1-0.3-2-0.9-2.6c-0.5-0.6-1.3-0.9-2.3-0.9
				C327.3,371.1,326.5,371.5,325.9,372.1z"/>
			<path class="st1" d="M335.8,367c-0.2-0.2-0.3-0.5-0.3-0.9c0-0.3,0.1-0.6,0.3-0.8c0.2-0.2,0.5-0.3,0.9-0.3c0.4,0,0.7,0.1,0.9,0.3
				c0.2,0.2,0.3,0.5,0.3,0.8c0,0.4-0.1,0.6-0.3,0.9s-0.5,0.3-0.9,0.3C336.3,367.3,336,367.2,335.8,367z M336,381.1
				c-0.2-0.2-0.3-0.4-0.3-0.7v-9.7c0-0.3,0.1-0.5,0.3-0.7s0.4-0.2,0.7-0.2c0.3,0,0.5,0.1,0.7,0.2c0.2,0.2,0.3,0.4,0.3,0.7v9.7
				c0,0.3-0.1,0.5-0.3,0.7c-0.2,0.2-0.4,0.2-0.7,0.2C336.4,381.3,336.2,381.2,336,381.1z"/>
			<path class="st1" d="M342.9,381.1c-0.6-0.2-1.2-0.4-1.7-0.7c-0.3-0.2-0.5-0.4-0.6-0.5c-0.1-0.2-0.2-0.4-0.2-0.6
				c0-0.2,0.1-0.4,0.2-0.5s0.3-0.2,0.4-0.2c0.2,0,0.5,0.1,0.8,0.3c0.5,0.3,0.9,0.5,1.4,0.7c0.5,0.2,1,0.2,1.7,0.2
				c0.8,0,1.5-0.1,1.9-0.4c0.5-0.3,0.7-0.7,0.7-1.3c0-0.3-0.1-0.6-0.3-0.8c-0.2-0.2-0.5-0.4-0.9-0.6c-0.4-0.2-1-0.3-1.8-0.5
				c-1.4-0.3-2.3-0.7-2.9-1.2c-0.6-0.5-0.9-1.2-0.9-2c0-0.7,0.2-1.2,0.6-1.8s0.9-0.9,1.5-1.2c0.7-0.3,1.4-0.4,2.2-0.4
				c0.6,0,1.2,0.1,1.7,0.2c0.6,0.2,1.1,0.4,1.5,0.7c0.5,0.4,0.8,0.8,0.8,1.2c0,0.2-0.1,0.4-0.2,0.5s-0.3,0.2-0.4,0.2
				c-0.2,0-0.5-0.1-0.8-0.4c-0.4-0.3-0.8-0.5-1.2-0.6c-0.4-0.2-0.9-0.2-1.4-0.2c-0.7,0-1.3,0.2-1.7,0.5c-0.4,0.3-0.7,0.8-0.7,1.3
				c0,0.3,0.1,0.6,0.2,0.8c0.2,0.2,0.4,0.4,0.8,0.6c0.4,0.2,0.9,0.3,1.6,0.5c1,0.2,1.9,0.5,2.4,0.8c0.6,0.3,1,0.6,1.2,1
				c0.2,0.4,0.4,0.9,0.4,1.5c0,1-0.4,1.7-1.2,2.3c-0.8,0.6-1.9,0.9-3.2,0.9C344.2,381.4,343.5,381.3,342.9,381.1z"/>
		</g>
	</g>
	<g>
		<g class="st0">
			<path class="st1" d="M172.6,380.6c-0.8-0.5-1.4-1.2-1.9-2s-0.7-1.9-0.7-3c0-1.2,0.2-2.2,0.7-3.1c0.5-0.9,1.1-1.6,1.9-2.1
				c0.8-0.5,1.8-0.7,2.8-0.7c0.6,0,1.2,0.1,1.7,0.2c0.6,0.2,1.1,0.4,1.5,0.7c0.3,0.2,0.5,0.4,0.6,0.5s0.2,0.4,0.2,0.6
				c0,0.2-0.1,0.4-0.2,0.5c-0.1,0.1-0.3,0.2-0.4,0.2c-0.1,0-0.2,0-0.3-0.1c-0.1-0.1-0.2-0.1-0.3-0.2c-0.1-0.1-0.1-0.1-0.2-0.1
				c-0.4-0.3-0.8-0.5-1.1-0.6c-0.4-0.2-0.8-0.2-1.3-0.2c-1.1,0-2,0.4-2.6,1.1c-0.6,0.8-0.9,1.8-0.9,3.2s0.3,2.4,0.9,3.1
				c0.6,0.7,1.5,1.1,2.6,1.1c0.5,0,1-0.1,1.3-0.2c0.4-0.2,0.8-0.4,1.1-0.6c0.2-0.1,0.3-0.2,0.5-0.3s0.3-0.1,0.4-0.1
				c0.2,0,0.3,0.1,0.4,0.2c0.1,0.1,0.2,0.3,0.2,0.5c0,0.2-0.1,0.4-0.2,0.5s-0.3,0.3-0.6,0.5c-0.4,0.3-0.9,0.5-1.6,0.7
				c-0.6,0.2-1.2,0.3-1.8,0.3C174.4,381.4,173.4,381.1,172.6,380.6z"/>
			<path class="st1" d="M181.9,367c-0.2-0.2-0.3-0.5-0.3-0.9c0-0.3,0.1-0.6,0.3-0.8c0.2-0.2,0.5-0.3,0.9-0.3c0.4,0,0.7,0.1,0.9,0.3
				c0.2,0.2,0.3,0.5,0.3,0.8c0,0.4-0.1,0.6-0.3,0.9s-0.5,0.3-0.9,0.3C182.4,367.3,182.1,367.2,181.9,367z M182.1,381.1
				c-0.2-0.2-0.3-0.4-0.3-0.7v-9.7c0-0.3,0.1-0.5,0.3-0.7s0.4-0.2,0.7-0.2c0.3,0,0.5,0.1,0.7,0.2c0.2,0.2,0.3,0.4,0.3,0.7v9.7
				c0,0.3-0.1,0.5-0.3,0.7c-0.2,0.2-0.4,0.2-0.7,0.2C182.5,381.3,182.3,381.2,182.1,381.1z"/>
			<path class="st1" d="M196.9,374.1v6.2c0,0.3-0.1,0.5-0.2,0.7c-0.2,0.2-0.4,0.2-0.7,0.2s-0.5-0.1-0.7-0.2s-0.3-0.4-0.3-0.7v-6.1
				c0-1-0.2-1.8-0.6-2.3c-0.4-0.5-1.1-0.7-1.9-0.7c-1,0-1.9,0.3-2.5,0.9c-0.6,0.6-0.9,1.5-0.9,2.6v5.6c0,0.3-0.1,0.5-0.2,0.7
				c-0.2,0.2-0.4,0.2-0.7,0.2s-0.5-0.1-0.7-0.2s-0.3-0.4-0.3-0.7v-9.7c0-0.3,0.1-0.5,0.3-0.7s0.4-0.3,0.7-0.3c0.3,0,0.5,0.1,0.7,0.3
				s0.2,0.4,0.2,0.6v1.2c0.4-0.7,0.9-1.2,1.5-1.6c0.7-0.4,1.4-0.5,2.3-0.5C195.5,369.7,196.9,371.2,196.9,374.1z"/>
			<path class="st1" d="M202.1,380.6c-0.8-0.5-1.4-1.2-1.9-2c-0.4-0.9-0.7-1.9-0.7-3c0-1.2,0.2-2.2,0.7-3.1s1.1-1.6,1.9-2.1
				c0.8-0.5,1.8-0.7,2.8-0.7c0.6,0,1.2,0.1,1.7,0.2c0.6,0.2,1.1,0.4,1.5,0.7c0.3,0.2,0.5,0.4,0.6,0.5c0.1,0.2,0.2,0.4,0.2,0.6
				c0,0.2-0.1,0.4-0.2,0.5c-0.1,0.1-0.3,0.2-0.4,0.2c-0.1,0-0.2,0-0.3-0.1s-0.2-0.1-0.3-0.2c-0.1-0.1-0.1-0.1-0.2-0.1
				c-0.4-0.3-0.8-0.5-1.1-0.6c-0.4-0.2-0.8-0.2-1.3-0.2c-1.1,0-2,0.4-2.6,1.1c-0.6,0.8-0.9,1.8-0.9,3.2s0.3,2.4,0.9,3.1
				c0.6,0.7,1.5,1.1,2.6,1.1c0.5,0,1-0.1,1.3-0.2c0.4-0.2,0.8-0.4,1.1-0.6c0.2-0.1,0.3-0.2,0.5-0.3c0.2-0.1,0.3-0.1,0.4-0.1
				c0.2,0,0.3,0.1,0.4,0.2c0.1,0.1,0.2,0.3,0.2,0.5c0,0.2-0.1,0.4-0.2,0.5c-0.1,0.2-0.3,0.3-0.6,0.5c-0.4,0.3-0.9,0.5-1.6,0.7
				s-1.2,0.3-1.8,0.3C203.9,381.4,202.9,381.1,202.1,380.6z"/>
			<path class="st1" d="M213.2,380.6c-0.8-0.5-1.4-1.2-1.9-2s-0.7-1.9-0.7-3.1s0.2-2.2,0.7-3.1s1.1-1.6,1.9-2s1.7-0.7,2.8-0.7
				c1.1,0,2,0.2,2.8,0.7c0.8,0.5,1.4,1.2,1.9,2c0.4,0.9,0.7,1.9,0.7,3.1s-0.2,2.2-0.7,3.1c-0.4,0.9-1.1,1.6-1.9,2
				c-0.8,0.5-1.8,0.7-2.8,0.7C214.9,381.4,214,381.1,213.2,380.6z M218.5,378.7c0.6-0.7,0.9-1.8,0.9-3.2c0-1.4-0.3-2.4-0.9-3.2
				c-0.6-0.7-1.4-1.1-2.5-1.1c-1.1,0-1.9,0.4-2.5,1.1c-0.6,0.7-0.9,1.8-0.9,3.2c0,1.4,0.3,2.4,0.9,3.2c0.6,0.7,1.4,1.1,2.5,1.1
				C217.1,379.8,217.9,379.4,218.5,378.7z"/>
		</g>
	</g>
	<circle class="st2" cx="202.9" cy="236.6" r="59.2"/>
	<g class="st3">
		<circle cx="69.2" cy="236.6" r="59.2"/>
	</g>
	<g class="st3">
		<circle cx="336.7" cy="236.6" r="59.2"/>
	</g>
	<g>
		<circle class="st4" cx="197.1" cy="230.7" r="59.2"/>
	</g>
	<g>
		<circle class="st5" cx="63.3" cy="230.7" r="59.2"/>
	</g>
	<g>
		<circle class="st6" cx="330.8" cy="230.7" r="59.2"/>
	</g>
	<g>
		<g>
			<g class="st3">
				<circle cx="281.3" cy="339" r="8.8"/>
			</g>
			<g>
				<circle class="st6" cx="280.4" cy="338.2" r="8.8"/>
			</g>
		</g>
		<g>
			<g class="st3">
				<circle cx="301.4" cy="339" r="8.8"/>
			</g>
			<g>
				<circle class="st6" cx="300.5" cy="338.2" r="8.8"/>
			</g>
		</g>
		<g>
			<g class="st3">
				<circle cx="321.5" cy="339" r="8.8"/>
			</g>
			<g>
				<circle class="st6" cx="320.7" cy="338.2" r="8.8"/>
			</g>
		</g>
		<g>
			<g class="st3">
				<circle cx="341.7" cy="339" r="8.8"/>
			</g>
			<g>
				<circle class="st6" cx="340.8" cy="338.2" r="8.8"/>
			</g>
		</g>
		<g>
			<g class="st3">
				<circle cx="361.8" cy="339" r="8.8"/>
			</g>
			<g>
				<circle class="st7" cx="360.9" cy="338.2" r="8.8"/>
			</g>
			<g>
				<circle class="st6" cx="360.4" cy="337.6" r="8.3"/>
			</g>
		</g>
		<g>
			<g class="st3">
				<circle cx="381.9" cy="339" r="8.8"/>
			</g>
			<g>
				<circle class="st7" cx="381.1" cy="338.2" r="8.8"/>
			</g>
			<g>
				<circle class="st6" cx="380.5" cy="337.6" r="8.3"/>
			</g>
		</g>
	</g>
	<g>
		<g>
			<g class="st3">
				<circle cx="157.2" cy="339" r="8.8"/>
			</g>
			<g>
				<circle class="st4" cx="156.4" cy="338.2" r="8.8"/>
			</g>
		</g>
		<g>
			<g class="st3">
				<circle cx="177.4" cy="339" r="8.8"/>
			</g>
			<g>
				<circle class="st4" cx="176.5" cy="338.2" r="8.8"/>
			</g>
		</g>
		<g>
			<g class="st3">
				<circle cx="197.5" cy="339" r="8.8"/>
			</g>
			<g>
				<circle class="st4" cx="196.6" cy="338.2" r="8.8"/>
			</g>
		</g>
		<g>
			<g class="st3">
				<circle cx="217.6" cy="339" r="8.8"/>
			</g>
			<g>
				<circle class="st4" cx="216.7" cy="338.2" r="8.8"/>
			</g>
		</g>
		<g>
			<g class="st3">
				<circle cx="237.8" cy="339" r="8.8"/>
			</g>
			<g>
				<circle class="st4" cx="236.9" cy="338.2" r="8.8"/>
			</g>
		</g>
	</g>
	<g>
		<g>
			<g class="st3">
				<circle cx="33.5" cy="339" r="8.8"/>
			</g>
			<g>
				<circle class="st5" cx="32.7" cy="338.2" r="8.8"/>
			</g>
		</g>
		<g>
			<g class="st3">
				<circle cx="53.7" cy="339" r="8.8"/>
			</g>
			<g>
				<circle class="st5" cx="52.8" cy="338.2" r="8.8"/>
			</g>
		</g>
		<g>
			<g class="st3">
				<circle cx="73.8" cy="339" r="8.8"/>
			</g>
			<g>
				<circle class="st5" cx="72.9" cy="338.2" r="8.8"/>
			</g>
		</g>
		<g>
			<g class="st3">
				<circle cx="93.9" cy="339" r="8.8"/>
			</g>
			<g>
				<circle class="st5" cx="93.1" cy="338.2" r="8.8"/>
			</g>
		</g>
	</g>
	<text transform="matrix(1 0 0 1 37.8122 252.2108)" class="st1 st8 st9 st10">4</text>
	<text transform="matrix(1 0 0 1 310.3352 254.2137)" class="st1 st8 st9 st10">6</text>
	<text transform="matrix(1 0 0 1 175.6301 254.2137)" class="st1 st8 st9 st10">5</text>
	<g>
		<g>
			<g>
				<path class="st11" d="M201.3,100.4c6.6-34.2,39.6-56.6,73.8-50c22.2,4.2,39.4,19.6,47,39.2"/>
				<g>
					<polygon class="st1" points="311.3,85.6 320.9,86.8 328.5,80.8 325.6,103.5 					"/>
				</g>
			</g>
		</g>
	</g>
	<g>
		<g>
			<g>
				<path class="st11" d="M192,398.5c-5.9,34.3-38.6,57.3-72.9,51.3c-22.2-3.9-39.7-18.9-47.6-38.4"/>
				<g>
					<polygon class="st1" points="82.2,415.2 72.6,414.2 65.2,420.4 67.6,397.6 					"/>
				</g>
			</g>
		</g>
	</g>
</g>
</svg>
