<?xml version="1.0" encoding="utf-8"?>
<!-- Generator: Adobe Illustrator 22.1.0, SVG Export Plug-In . SVG Version: 6.00 Build 0)  -->
<svg version="1.1" id="Layer_1" xmlns="http://www.w3.org/2000/svg" xmlns:xlink="http://www.w3.org/1999/xlink" x="0px" y="0px"
	 viewBox="0 0 400 339" style="enable-background:new 0 0 400 339;" xml:space="preserve">
<style type="text/css">
	.st0{opacity:0.1;enable-background:new    ;}
	.st1{fill:#00CDC8;}
	.st2{fill:#FF5A00;}
	.st3{fill:#FADC3C;}
	.st4{fill:none;}
	.st5{enable-background:new    ;}
	.st6{fill:#FFFFFF;}
</style>
<g>
	<g>
		<path class="st0" d="M45.2,54c0.9,1.5,1.5,3.3,1.5,5.2c0,5.5-4.5,10-10,10c-1.9,0-3.7-0.5-5.2-1.5c1.8,2.9,4.9,4.8,8.5,4.8
			c5.5,0,10-4.5,10-10C50,58.9,48.1,55.7,45.2,54z"/>
		<circle class="st1" cx="38.3" cy="60.8" r="10"/>
		<path class="st0" d="M43.5,52.3c0.9,1.5,1.5,3.3,1.5,5.2c0,5.5-4.5,10-10,10c-1.9,0-3.7-0.5-5.2-1.5c1.8,2.9,4.9,4.8,8.5,4.8
			c5.5,0,10-4.5,10-10C48.3,57.2,46.4,54,43.5,52.3z"/>
	</g>
	<g>
		<path class="st0" d="M73.7,54c0.9,1.5,1.5,3.3,1.5,5.2c0,5.5-4.5,10-10,10c-1.9,0-3.7-0.5-5.2-1.5c1.8,2.9,4.9,4.8,8.5,4.8
			c5.5,0,10-4.5,10-10C78.5,58.9,76.6,55.7,73.7,54z"/>
		<circle class="st1" cx="66.8" cy="60.8" r="10"/>
		<path class="st0" d="M72,52.3c0.9,1.5,1.5,3.3,1.5,5.2c0,5.5-4.5,10-10,10c-1.9,0-3.7-0.5-5.2-1.5c1.8,2.9,4.9,4.8,8.5,4.8
			c5.5,0,10-4.5,10-10C76.8,57.2,74.9,54,72,52.3z"/>
	</g>
	<g>
		<path class="st0" d="M102.2,54c0.9,1.5,1.5,3.3,1.5,5.2c0,5.5-4.5,10-10,10c-1.9,0-3.7-0.5-5.2-1.5c1.8,2.9,4.9,4.8,8.5,4.8
			c5.5,0,10-4.5,10-10C107,58.9,105.1,55.7,102.2,54z"/>
		<circle class="st1" cx="95.3" cy="60.8" r="10"/>
		<path class="st0" d="M100.5,52.3c0.9,1.5,1.5,3.3,1.5,5.2c0,5.5-4.5,10-10,10c-1.9,0-3.7-0.5-5.2-1.5c1.8,2.9,4.9,4.8,8.5,4.8
			c5.5,0,10-4.5,10-10C105.3,57.2,103.4,54,100.5,52.3z"/>
	</g>
	<g>
		<path class="st0" d="M130.7,54c0.9,1.5,1.5,3.3,1.5,5.2c0,5.5-4.5,10-10,10c-1.9,0-3.7-0.5-5.2-1.5c1.8,2.9,4.9,4.8,8.5,4.8
			c5.5,0,10-4.5,10-10C135.5,58.9,133.6,55.7,130.7,54z"/>
		<circle class="st1" cx="123.8" cy="60.8" r="10"/>
		<path class="st0" d="M129,52.3c0.9,1.5,1.5,3.3,1.5,5.2c0,5.5-4.5,10-10,10c-1.9,0-3.7-0.5-5.2-1.5c1.8,2.9,4.9,4.8,8.5,4.8
			c5.5,0,10-4.5,10-10C133.8,57.2,131.9,54,129,52.3z"/>
	</g>
	<g>
		<path class="st0" d="M159.2,54c0.9,1.5,1.5,3.3,1.5,5.2c0,5.5-4.5,10-10,10c-1.9,0-3.7-0.5-5.2-1.5c1.8,2.9,4.9,4.8,8.5,4.8
			c5.5,0,10-4.5,10-10C164,58.9,162.1,55.7,159.2,54z"/>
		<circle class="st1" cx="152.3" cy="60.8" r="10"/>
		<path class="st0" d="M157.6,52.3c0.9,1.5,1.5,3.3,1.5,5.2c0,5.5-4.5,10-10,10c-1.9,0-3.7-0.5-5.2-1.5c1.8,2.9,4.9,4.8,8.5,4.8
			c5.5,0,10-4.5,10-10C162.3,57.2,160.4,54,157.6,52.3z"/>
	</g>
	<g>
		<g>
			<path class="st0" d="M36.5,203.6c0.5,0.7,0.7,1.6,0.7,2.5c0,2.7-2.2,4.9-4.9,4.9c-0.9,0-1.8-0.3-2.5-0.7c0.9,1.4,2.4,2.3,4.1,2.3
				c2.7,0,4.9-2.2,4.9-4.9C38.8,206,37.9,204.4,36.5,203.6z"/>
			<circle class="st1" cx="33.1" cy="206.9" r="4.9"/>
			<path class="st0" d="M35.7,202.7c0.5,0.7,0.7,1.6,0.7,2.5c0,2.7-2.2,4.9-4.9,4.9c-0.9,0-1.8-0.3-2.5-0.7c0.9,1.4,2.4,2.3,4.1,2.3
				c2.7,0,4.9-2.2,4.9-4.9C38,205.1,37.1,203.6,35.7,202.7z"/>
		</g>
		<g>
			<path class="st0" d="M50.4,203.6c0.5,0.7,0.7,1.6,0.7,2.5c0,2.7-2.2,4.9-4.9,4.9c-0.9,0-1.8-0.3-2.5-0.7c0.9,1.4,2.4,2.3,4.1,2.3
				c2.7,0,4.9-2.2,4.9-4.9C52.7,206,51.8,204.4,50.4,203.6z"/>
			<circle class="st1" cx="47" cy="206.9" r="4.9"/>
			<path class="st0" d="M49.5,202.7c0.5,0.7,0.7,1.6,0.7,2.5c0,2.7-2.2,4.9-4.9,4.9c-0.9,0-1.8-0.3-2.5-0.7c0.9,1.4,2.4,2.3,4.1,2.3
				c2.7,0,4.9-2.2,4.9-4.9C51.9,205.1,50.9,203.6,49.5,202.7z"/>
		</g>
		<g>
			<path class="st0" d="M64.2,203.6c0.5,0.7,0.7,1.6,0.7,2.5c0,2.7-2.2,4.9-4.9,4.9c-0.9,0-1.8-0.3-2.5-0.7c0.9,1.4,2.4,2.3,4.1,2.3
				c2.7,0,4.9-2.2,4.9-4.9C66.5,206,65.6,204.4,64.2,203.6z"/>
			<circle class="st1" cx="60.9" cy="206.9" r="4.9"/>
			<path class="st0" d="M63.4,202.7c0.5,0.7,0.7,1.6,0.7,2.5c0,2.7-2.2,4.9-4.9,4.9c-0.9,0-1.8-0.3-2.5-0.7c0.9,1.4,2.4,2.3,4.1,2.3
				c2.7,0,4.9-2.2,4.9-4.9C65.7,205.1,64.8,203.6,63.4,202.7z"/>
		</g>
		<g>
			<path class="st0" d="M78.1,203.6c0.5,0.7,0.7,1.6,0.7,2.5c0,2.7-2.2,4.9-4.9,4.9c-0.9,0-1.8-0.3-2.5-0.7c0.9,1.4,2.4,2.3,4.1,2.3
				c2.7,0,4.9-2.2,4.9-4.9C80.4,206,79.5,204.4,78.1,203.6z"/>
			<circle class="st1" cx="74.7" cy="206.9" r="4.9"/>
			<path class="st0" d="M77.3,202.7c0.5,0.7,0.7,1.6,0.7,2.5c0,2.7-2.2,4.9-4.9,4.9c-0.9,0-1.8-0.3-2.5-0.7c0.9,1.4,2.4,2.3,4.1,2.3
				c2.7,0,4.9-2.2,4.9-4.9C79.6,205.1,78.6,203.6,77.3,202.7z"/>
		</g>
		<g>
			<path class="st0" d="M91.9,203.6c0.5,0.7,0.7,1.6,0.7,2.5c0,2.7-2.2,4.9-4.9,4.9c-0.9,0-1.8-0.3-2.5-0.7c0.9,1.4,2.4,2.3,4.1,2.3
				c2.7,0,4.9-2.2,4.9-4.9C94.3,206,93.3,204.4,91.9,203.6z"/>
			<circle class="st1" cx="88.6" cy="206.9" r="4.9"/>
			<path class="st0" d="M91.1,202.7c0.5,0.7,0.7,1.6,0.7,2.5c0,2.7-2.2,4.9-4.9,4.9c-0.9,0-1.8-0.3-2.5-0.7c0.9,1.4,2.4,2.3,4.1,2.3
				c2.7,0,4.9-2.2,4.9-4.9C93.4,205.1,92.5,203.6,91.1,202.7z"/>
		</g>
		<g>
			<path class="st0" d="M105.7,203.6c0.5,0.7,0.7,1.6,0.7,2.5c0,2.7-2.2,4.9-4.9,4.9c-0.9,0-1.8-0.3-2.5-0.7
				c0.9,1.4,2.4,2.3,4.1,2.3c2.7,0,4.9-2.2,4.9-4.9C108.1,206,107.1,204.4,105.7,203.6z"/>
			<circle class="st1" cx="102.4" cy="206.9" r="4.9"/>
			<path class="st0" d="M104.9,202.7c0.5,0.7,0.7,1.6,0.7,2.5c0,2.7-2.2,4.9-4.9,4.9c-0.9,0-1.8-0.3-2.5-0.7
				c0.9,1.4,2.4,2.3,4.1,2.3c2.7,0,4.9-2.2,4.9-4.9C107.2,205.1,106.3,203.6,104.9,202.7z"/>
		</g>
		<g>
			<path class="st0" d="M119.5,203.6c0.5,0.7,0.7,1.6,0.7,2.5c0,2.7-2.2,4.9-4.9,4.9c-0.9,0-1.8-0.3-2.5-0.7
				c0.9,1.4,2.4,2.3,4.1,2.3c2.7,0,4.9-2.2,4.9-4.9C121.9,206,120.9,204.4,119.5,203.6z"/>
			<circle class="st1" cx="116.2" cy="206.9" r="4.9"/>
			<path class="st0" d="M118.7,202.7c0.5,0.7,0.7,1.6,0.7,2.5c0,2.7-2.2,4.9-4.9,4.9c-0.9,0-1.8-0.3-2.5-0.7
				c0.9,1.4,2.4,2.3,4.1,2.3c2.7,0,4.9-2.2,4.9-4.9C121,205.1,120.1,203.6,118.7,202.7z"/>
		</g>
		<g>
			<path class="st0" d="M133.4,203.6c0.5,0.7,0.7,1.6,0.7,2.5c0,2.7-2.2,4.9-4.9,4.9c-0.9,0-1.8-0.3-2.5-0.7
				c0.9,1.4,2.4,2.3,4.1,2.3c2.7,0,4.9-2.2,4.9-4.9C135.7,206,134.7,204.4,133.4,203.6z"/>
			<circle class="st1" cx="130" cy="206.9" r="4.9"/>
			<path class="st0" d="M132.5,202.7c0.5,0.7,0.7,1.6,0.7,2.5c0,2.7-2.2,4.9-4.9,4.9c-0.9,0-1.8-0.3-2.5-0.7
				c0.9,1.4,2.4,2.3,4.1,2.3c2.7,0,4.9-2.2,4.9-4.9C134.9,205.1,133.9,203.6,132.5,202.7z"/>
		</g>
		<g>
			<path class="st0" d="M147.2,203.6c0.5,0.7,0.7,1.6,0.7,2.5c0,2.7-2.2,4.9-4.9,4.9c-0.9,0-1.8-0.3-2.5-0.7
				c0.9,1.4,2.4,2.3,4.1,2.3c2.7,0,4.9-2.2,4.9-4.9C149.5,206,148.6,204.4,147.2,203.6z"/>
			<circle class="st1" cx="143.8" cy="206.9" r="4.9"/>
			<path class="st0" d="M146.3,202.7c0.5,0.7,0.7,1.6,0.7,2.5c0,2.7-2.2,4.9-4.9,4.9c-0.9,0-1.8-0.3-2.5-0.7
				c0.9,1.4,2.4,2.3,4.1,2.3c2.7,0,4.9-2.2,4.9-4.9C148.7,205.1,147.7,203.6,146.3,202.7z"/>
		</g>
		<g>
			<path class="st0" d="M161,203.6c0.5,0.7,0.7,1.6,0.7,2.5c0,2.7-2.2,4.9-4.9,4.9c-0.9,0-1.8-0.3-2.5-0.7c0.9,1.4,2.4,2.3,4.1,2.3
				c2.7,0,4.9-2.2,4.9-4.9C163.3,206,162.4,204.4,161,203.6z"/>
			<circle class="st1" cx="157.6" cy="206.9" r="4.9"/>
			<path class="st0" d="M160.1,202.7c0.5,0.7,0.7,1.6,0.7,2.5c0,2.7-2.2,4.9-4.9,4.9c-0.9,0-1.8-0.3-2.5-0.7
				c0.9,1.4,2.4,2.3,4.1,2.3c2.7,0,4.9-2.2,4.9-4.9C162.5,205.1,161.5,203.6,160.1,202.7z"/>
		</g>
		<g>
			<path class="st0" d="M36.5,216.6c0.5,0.7,0.7,1.6,0.7,2.5c0,2.7-2.2,4.9-4.9,4.9c-0.9,0-1.8-0.3-2.5-0.7c0.9,1.4,2.4,2.3,4.1,2.3
				c2.7,0,4.9-2.2,4.9-4.9C38.8,219,37.9,217.5,36.5,216.6z"/>
			<circle class="st1" cx="33.1" cy="220" r="4.9"/>
			<path class="st0" d="M35.7,215.8c0.5,0.7,0.7,1.6,0.7,2.5c0,2.7-2.2,4.9-4.9,4.9c-0.9,0-1.8-0.3-2.5-0.7c0.9,1.4,2.4,2.3,4.1,2.3
				c2.7,0,4.9-2.2,4.9-4.9C38,218.2,37.1,216.7,35.7,215.8z"/>
		</g>
		<g>
			<path class="st0" d="M50.4,216.6c0.5,0.7,0.7,1.6,0.7,2.5c0,2.7-2.2,4.9-4.9,4.9c-0.9,0-1.8-0.3-2.5-0.7c0.9,1.4,2.4,2.3,4.1,2.3
				c2.7,0,4.9-2.2,4.9-4.9C52.7,219,51.8,217.5,50.4,216.6z"/>
			<circle class="st1" cx="47" cy="220" r="4.9"/>
			<path class="st0" d="M49.5,215.8c0.5,0.7,0.7,1.6,0.7,2.5c0,2.7-2.2,4.9-4.9,4.9c-0.9,0-1.8-0.3-2.5-0.7c0.9,1.4,2.4,2.3,4.1,2.3
				c2.7,0,4.9-2.2,4.9-4.9C51.9,218.2,50.9,216.7,49.5,215.8z"/>
		</g>
		<g>
			<path class="st0" d="M64.2,216.6c0.5,0.7,0.7,1.6,0.7,2.5c0,2.7-2.2,4.9-4.9,4.9c-0.9,0-1.8-0.3-2.5-0.7c0.9,1.4,2.4,2.3,4.1,2.3
				c2.7,0,4.9-2.2,4.9-4.9C66.5,219,65.6,217.5,64.2,216.6z"/>
			<circle class="st1" cx="60.9" cy="220" r="4.9"/>
			<path class="st0" d="M63.4,215.8c0.5,0.7,0.7,1.6,0.7,2.5c0,2.7-2.2,4.9-4.9,4.9c-0.9,0-1.8-0.3-2.5-0.7c0.9,1.4,2.4,2.3,4.1,2.3
				c2.7,0,4.9-2.2,4.9-4.9C65.7,218.2,64.8,216.7,63.4,215.8z"/>
		</g>
		<g>
			<path class="st0" d="M78.1,216.6c0.5,0.7,0.7,1.6,0.7,2.5c0,2.7-2.2,4.9-4.9,4.9c-0.9,0-1.8-0.3-2.5-0.7c0.9,1.4,2.4,2.3,4.1,2.3
				c2.7,0,4.9-2.2,4.9-4.9C80.4,219,79.5,217.5,78.1,216.6z"/>
			<circle class="st1" cx="74.7" cy="220" r="4.9"/>
			<path class="st0" d="M77.3,215.8c0.5,0.7,0.7,1.6,0.7,2.5c0,2.7-2.2,4.9-4.9,4.9c-0.9,0-1.8-0.3-2.5-0.7c0.9,1.4,2.4,2.3,4.1,2.3
				c2.7,0,4.9-2.2,4.9-4.9C79.6,218.2,78.6,216.7,77.3,215.8z"/>
		</g>
		<g>
			<path class="st0" d="M91.9,216.6c0.5,0.7,0.7,1.6,0.7,2.5c0,2.7-2.2,4.9-4.9,4.9c-0.9,0-1.8-0.3-2.5-0.7c0.9,1.4,2.4,2.3,4.1,2.3
				c2.7,0,4.9-2.2,4.9-4.9C94.3,219,93.3,217.5,91.9,216.6z"/>
			<circle class="st1" cx="88.6" cy="220" r="4.9"/>
			<path class="st0" d="M91.1,215.8c0.5,0.7,0.7,1.6,0.7,2.5c0,2.7-2.2,4.9-4.9,4.9c-0.9,0-1.8-0.3-2.5-0.7c0.9,1.4,2.4,2.3,4.1,2.3
				c2.7,0,4.9-2.2,4.9-4.9C93.4,218.2,92.5,216.7,91.1,215.8z"/>
		</g>
		<g>
			<path class="st0" d="M105.7,216.6c0.5,0.7,0.7,1.6,0.7,2.5c0,2.7-2.2,4.9-4.9,4.9c-0.9,0-1.8-0.3-2.5-0.7
				c0.9,1.4,2.4,2.3,4.1,2.3c2.7,0,4.9-2.2,4.9-4.9C108.1,219,107.1,217.5,105.7,216.6z"/>
			<circle class="st1" cx="102.4" cy="220" r="4.9"/>
			<path class="st0" d="M104.9,215.8c0.5,0.7,0.7,1.6,0.7,2.5c0,2.7-2.2,4.9-4.9,4.9c-0.9,0-1.8-0.3-2.5-0.7
				c0.9,1.4,2.4,2.3,4.1,2.3c2.7,0,4.9-2.2,4.9-4.9C107.2,218.2,106.3,216.7,104.9,215.8z"/>
		</g>
		<g>
			<path class="st0" d="M119.5,216.6c0.5,0.7,0.7,1.6,0.7,2.5c0,2.7-2.2,4.9-4.9,4.9c-0.9,0-1.8-0.3-2.5-0.7
				c0.9,1.4,2.4,2.3,4.1,2.3c2.7,0,4.9-2.2,4.9-4.9C121.9,219,120.9,217.5,119.5,216.6z"/>
			<circle class="st1" cx="116.2" cy="220" r="4.9"/>
			<path class="st0" d="M118.7,215.8c0.5,0.7,0.7,1.6,0.7,2.5c0,2.7-2.2,4.9-4.9,4.9c-0.9,0-1.8-0.3-2.5-0.7
				c0.9,1.4,2.4,2.3,4.1,2.3c2.7,0,4.9-2.2,4.9-4.9C121,218.2,120.1,216.7,118.7,215.8z"/>
		</g>
		<g>
			<path class="st0" d="M133.4,216.6c0.5,0.7,0.7,1.6,0.7,2.5c0,2.7-2.2,4.9-4.9,4.9c-0.9,0-1.8-0.3-2.5-0.7
				c0.9,1.4,2.4,2.3,4.1,2.3c2.7,0,4.9-2.2,4.9-4.9C135.7,219,134.7,217.5,133.4,216.6z"/>
			<circle class="st1" cx="130" cy="220" r="4.9"/>
			<path class="st0" d="M132.5,215.8c0.5,0.7,0.7,1.6,0.7,2.5c0,2.7-2.2,4.9-4.9,4.9c-0.9,0-1.8-0.3-2.5-0.7
				c0.9,1.4,2.4,2.3,4.1,2.3c2.7,0,4.9-2.2,4.9-4.9C134.9,218.2,133.9,216.7,132.5,215.8z"/>
		</g>
		<g>
			<path class="st0" d="M147.2,216.6c0.5,0.7,0.7,1.6,0.7,2.5c0,2.7-2.2,4.9-4.9,4.9c-0.9,0-1.8-0.3-2.5-0.7
				c0.9,1.4,2.4,2.3,4.1,2.3c2.7,0,4.9-2.2,4.9-4.9C149.5,219,148.6,217.5,147.2,216.6z"/>
			<circle class="st1" cx="143.8" cy="220" r="4.9"/>
			<path class="st0" d="M146.3,215.8c0.5,0.7,0.7,1.6,0.7,2.5c0,2.7-2.2,4.9-4.9,4.9c-0.9,0-1.8-0.3-2.5-0.7
				c0.9,1.4,2.4,2.3,4.1,2.3c2.7,0,4.9-2.2,4.9-4.9C148.7,218.2,147.7,216.7,146.3,215.8z"/>
		</g>
		<g>
			<path class="st0" d="M161,216.6c0.5,0.7,0.7,1.6,0.7,2.5c0,2.7-2.2,4.9-4.9,4.9c-0.9,0-1.8-0.3-2.5-0.7c0.9,1.4,2.4,2.3,4.1,2.3
				c2.7,0,4.9-2.2,4.9-4.9C163.3,219,162.4,217.5,161,216.6z"/>
			<circle class="st1" cx="157.6" cy="220" r="4.9"/>
			<path class="st0" d="M160.1,215.8c0.5,0.7,0.7,1.6,0.7,2.5c0,2.7-2.2,4.9-4.9,4.9c-0.9,0-1.8-0.3-2.5-0.7
				c0.9,1.4,2.4,2.3,4.1,2.3c2.7,0,4.9-2.2,4.9-4.9C162.5,218.2,161.5,216.7,160.1,215.8z"/>
		</g>
		<g>
			<path class="st0" d="M36.5,229.7c0.5,0.7,0.7,1.6,0.7,2.5c0,2.7-2.2,4.9-4.9,4.9c-0.9,0-1.8-0.3-2.5-0.7c0.9,1.4,2.4,2.3,4.1,2.3
				c2.7,0,4.9-2.2,4.9-4.9C38.8,232.1,37.9,230.6,36.5,229.7z"/>
			<circle class="st1" cx="33.1" cy="233" r="4.9"/>
			<path class="st0" d="M35.7,228.9c0.5,0.7,0.7,1.6,0.7,2.5c0,2.7-2.2,4.9-4.9,4.9c-0.9,0-1.8-0.3-2.5-0.7c0.9,1.4,2.4,2.3,4.1,2.3
				c2.7,0,4.9-2.2,4.9-4.9C38,231.3,37.1,229.7,35.7,228.9z"/>
		</g>
		<g>
			<path class="st0" d="M50.4,229.7c0.5,0.7,0.7,1.6,0.7,2.5c0,2.7-2.2,4.9-4.9,4.9c-0.9,0-1.8-0.3-2.5-0.7c0.9,1.4,2.4,2.3,4.1,2.3
				c2.7,0,4.9-2.2,4.9-4.9C52.7,232.1,51.8,230.6,50.4,229.7z"/>
			<circle class="st1" cx="47" cy="233" r="4.9"/>
			<path class="st0" d="M49.5,228.9c0.5,0.7,0.7,1.6,0.7,2.5c0,2.7-2.2,4.9-4.9,4.9c-0.9,0-1.8-0.3-2.5-0.7c0.9,1.4,2.4,2.3,4.1,2.3
				c2.7,0,4.9-2.2,4.9-4.9C51.9,231.3,50.9,229.7,49.5,228.9z"/>
		</g>
		<g>
			<path class="st0" d="M64.2,229.7c0.5,0.7,0.7,1.6,0.7,2.5c0,2.7-2.2,4.9-4.9,4.9c-0.9,0-1.8-0.3-2.5-0.7c0.9,1.4,2.4,2.3,4.1,2.3
				c2.7,0,4.9-2.2,4.9-4.9C66.5,232.1,65.6,230.6,64.2,229.7z"/>
			<circle class="st1" cx="60.9" cy="233" r="4.9"/>
			<path class="st0" d="M63.4,228.9c0.5,0.7,0.7,1.6,0.7,2.5c0,2.7-2.2,4.9-4.9,4.9c-0.9,0-1.8-0.3-2.5-0.7c0.9,1.4,2.4,2.3,4.1,2.3
				c2.7,0,4.9-2.2,4.9-4.9C65.7,231.3,64.8,229.7,63.4,228.9z"/>
		</g>
		<g>
			<path class="st0" d="M78.1,229.7c0.5,0.7,0.7,1.6,0.7,2.5c0,2.7-2.2,4.9-4.9,4.9c-0.9,0-1.8-0.3-2.5-0.7c0.9,1.4,2.4,2.3,4.1,2.3
				c2.7,0,4.9-2.2,4.9-4.9C80.4,232.1,79.5,230.6,78.1,229.7z"/>
			<circle class="st1" cx="74.7" cy="233" r="4.9"/>
			<path class="st0" d="M77.3,228.9c0.5,0.7,0.7,1.6,0.7,2.5c0,2.7-2.2,4.9-4.9,4.9c-0.9,0-1.8-0.3-2.5-0.7c0.9,1.4,2.4,2.3,4.1,2.3
				c2.7,0,4.9-2.2,4.9-4.9C79.6,231.3,78.6,229.7,77.3,228.9z"/>
		</g>
		<g>
			<path class="st0" d="M91.9,229.7c0.5,0.7,0.7,1.6,0.7,2.5c0,2.7-2.2,4.9-4.9,4.9c-0.9,0-1.8-0.3-2.5-0.7c0.9,1.4,2.4,2.3,4.1,2.3
				c2.7,0,4.9-2.2,4.9-4.9C94.3,232.1,93.3,230.6,91.9,229.7z"/>
			<circle class="st1" cx="88.6" cy="233" r="4.9"/>
			<path class="st0" d="M91.1,228.9c0.5,0.7,0.7,1.6,0.7,2.5c0,2.7-2.2,4.9-4.9,4.9c-0.9,0-1.8-0.3-2.5-0.7c0.9,1.4,2.4,2.3,4.1,2.3
				c2.7,0,4.9-2.2,4.9-4.9C93.4,231.3,92.5,229.7,91.1,228.9z"/>
		</g>
		<g>
			<path class="st0" d="M105.7,229.7c0.5,0.7,0.7,1.6,0.7,2.5c0,2.7-2.2,4.9-4.9,4.9c-0.9,0-1.8-0.3-2.5-0.7
				c0.9,1.4,2.4,2.3,4.1,2.3c2.7,0,4.9-2.2,4.9-4.9C108.1,232.1,107.1,230.6,105.7,229.7z"/>
			<circle class="st1" cx="102.4" cy="233" r="4.9"/>
			<path class="st0" d="M104.9,228.9c0.5,0.7,0.7,1.6,0.7,2.5c0,2.7-2.2,4.9-4.9,4.9c-0.9,0-1.8-0.3-2.5-0.7
				c0.9,1.4,2.4,2.3,4.1,2.3c2.7,0,4.9-2.2,4.9-4.9C107.2,231.3,106.3,229.7,104.9,228.9z"/>
		</g>
		<g>
			<path class="st0" d="M119.5,229.7c0.5,0.7,0.7,1.6,0.7,2.5c0,2.7-2.2,4.9-4.9,4.9c-0.9,0-1.8-0.3-2.5-0.7
				c0.9,1.4,2.4,2.3,4.1,2.3c2.7,0,4.9-2.2,4.9-4.9C121.9,232.1,120.9,230.6,119.5,229.7z"/>
			<circle class="st1" cx="116.2" cy="233" r="4.9"/>
			<path class="st0" d="M118.7,228.9c0.5,0.7,0.7,1.6,0.7,2.5c0,2.7-2.2,4.9-4.9,4.9c-0.9,0-1.8-0.3-2.5-0.7
				c0.9,1.4,2.4,2.3,4.1,2.3c2.7,0,4.9-2.2,4.9-4.9C121,231.3,120.1,229.7,118.7,228.9z"/>
		</g>
		<g>
			<path class="st0" d="M133.4,229.7c0.5,0.7,0.7,1.6,0.7,2.5c0,2.7-2.2,4.9-4.9,4.9c-0.9,0-1.8-0.3-2.5-0.7
				c0.9,1.4,2.4,2.3,4.1,2.3c2.7,0,4.9-2.2,4.9-4.9C135.7,232.1,134.7,230.6,133.4,229.7z"/>
			<circle class="st1" cx="130" cy="233" r="4.9"/>
			<path class="st0" d="M132.5,228.9c0.5,0.7,0.7,1.6,0.7,2.5c0,2.7-2.2,4.9-4.9,4.9c-0.9,0-1.8-0.3-2.5-0.7
				c0.9,1.4,2.4,2.3,4.1,2.3c2.7,0,4.9-2.2,4.9-4.9C134.9,231.3,133.9,229.7,132.5,228.9z"/>
		</g>
		<g>
			<path class="st0" d="M147.2,229.7c0.5,0.7,0.7,1.6,0.7,2.5c0,2.7-2.2,4.9-4.9,4.9c-0.9,0-1.8-0.3-2.5-0.7
				c0.9,1.4,2.4,2.3,4.1,2.3c2.7,0,4.9-2.2,4.9-4.9C149.5,232.1,148.6,230.6,147.2,229.7z"/>
			<circle class="st1" cx="143.8" cy="233" r="4.9"/>
			<path class="st0" d="M146.3,228.9c0.5,0.7,0.7,1.6,0.7,2.5c0,2.7-2.2,4.9-4.9,4.9c-0.9,0-1.8-0.3-2.5-0.7
				c0.9,1.4,2.4,2.3,4.1,2.3c2.7,0,4.9-2.2,4.9-4.9C148.7,231.3,147.7,229.7,146.3,228.9z"/>
		</g>
		<g>
			<path class="st0" d="M161,229.7c0.5,0.7,0.7,1.6,0.7,2.5c0,2.7-2.2,4.9-4.9,4.9c-0.9,0-1.8-0.3-2.5-0.7c0.9,1.4,2.4,2.3,4.1,2.3
				c2.7,0,4.9-2.2,4.9-4.9C163.3,232.1,162.4,230.6,161,229.7z"/>
			<circle class="st1" cx="157.6" cy="233" r="4.9"/>
			<path class="st0" d="M160.1,228.9c0.5,0.7,0.7,1.6,0.7,2.5c0,2.7-2.2,4.9-4.9,4.9c-0.9,0-1.8-0.3-2.5-0.7
				c0.9,1.4,2.4,2.3,4.1,2.3c2.7,0,4.9-2.2,4.9-4.9C162.5,231.3,161.5,229.7,160.1,228.9z"/>
		</g>
		<g>
			<path class="st0" d="M36.5,242.8c0.5,0.7,0.7,1.6,0.7,2.5c0,2.7-2.2,4.9-4.9,4.9c-0.9,0-1.8-0.3-2.5-0.7c0.9,1.4,2.4,2.3,4.1,2.3
				c2.7,0,4.9-2.2,4.9-4.9C38.8,245.2,37.9,243.6,36.5,242.8z"/>
			<circle class="st1" cx="33.1" cy="246.1" r="4.9"/>
			<path class="st0" d="M35.7,241.9c0.5,0.7,0.7,1.6,0.7,2.5c0,2.7-2.2,4.9-4.9,4.9c-0.9,0-1.8-0.3-2.5-0.7c0.9,1.4,2.4,2.3,4.1,2.3
				c2.7,0,4.9-2.2,4.9-4.9C38,244.3,37.1,242.8,35.7,241.9z"/>
		</g>
		<g>
			<path class="st0" d="M50.4,242.8c0.5,0.7,0.7,1.6,0.7,2.5c0,2.7-2.2,4.9-4.9,4.9c-0.9,0-1.8-0.3-2.5-0.7c0.9,1.4,2.4,2.3,4.1,2.3
				c2.7,0,4.9-2.2,4.9-4.9C52.7,245.2,51.8,243.6,50.4,242.8z"/>
			<circle class="st1" cx="47" cy="246.1" r="4.9"/>
			<path class="st0" d="M49.5,241.9c0.5,0.7,0.7,1.6,0.7,2.5c0,2.7-2.2,4.9-4.9,4.9c-0.9,0-1.8-0.3-2.5-0.7c0.9,1.4,2.4,2.3,4.1,2.3
				c2.7,0,4.9-2.2,4.9-4.9C51.9,244.3,50.9,242.8,49.5,241.9z"/>
		</g>
		<g>
			<path class="st0" d="M64.2,242.8c0.5,0.7,0.7,1.6,0.7,2.5c0,2.7-2.2,4.9-4.9,4.9c-0.9,0-1.8-0.3-2.5-0.7c0.9,1.4,2.4,2.3,4.1,2.3
				c2.7,0,4.9-2.2,4.9-4.9C66.5,245.2,65.6,243.6,64.2,242.8z"/>
			<circle class="st1" cx="60.9" cy="246.1" r="4.9"/>
			<path class="st0" d="M63.4,241.9c0.5,0.7,0.7,1.6,0.7,2.5c0,2.7-2.2,4.9-4.9,4.9c-0.9,0-1.8-0.3-2.5-0.7c0.9,1.4,2.4,2.3,4.1,2.3
				c2.7,0,4.9-2.2,4.9-4.9C65.7,244.3,64.8,242.8,63.4,241.9z"/>
		</g>
		<g>
			<path class="st0" d="M78.1,242.8c0.5,0.7,0.7,1.6,0.7,2.5c0,2.7-2.2,4.9-4.9,4.9c-0.9,0-1.8-0.3-2.5-0.7c0.9,1.4,2.4,2.3,4.1,2.3
				c2.7,0,4.9-2.2,4.9-4.9C80.4,245.2,79.5,243.6,78.1,242.8z"/>
			<circle class="st1" cx="74.7" cy="246.1" r="4.9"/>
			<path class="st0" d="M77.3,241.9c0.5,0.7,0.7,1.6,0.7,2.5c0,2.7-2.2,4.9-4.9,4.9c-0.9,0-1.8-0.3-2.5-0.7c0.9,1.4,2.4,2.3,4.1,2.3
				c2.7,0,4.9-2.2,4.9-4.9C79.6,244.3,78.6,242.8,77.3,241.9z"/>
		</g>
		<g>
			<path class="st0" d="M91.9,242.8c0.5,0.7,0.7,1.6,0.7,2.5c0,2.7-2.2,4.9-4.9,4.9c-0.9,0-1.8-0.3-2.5-0.7c0.9,1.4,2.4,2.3,4.1,2.3
				c2.7,0,4.9-2.2,4.9-4.9C94.3,245.2,93.3,243.6,91.9,242.8z"/>
			<circle class="st1" cx="88.6" cy="246.1" r="4.9"/>
			<path class="st0" d="M91.1,241.9c0.5,0.7,0.7,1.6,0.7,2.5c0,2.7-2.2,4.9-4.9,4.9c-0.9,0-1.8-0.3-2.5-0.7c0.9,1.4,2.4,2.3,4.1,2.3
				c2.7,0,4.9-2.2,4.9-4.9C93.4,244.3,92.5,242.8,91.1,241.9z"/>
		</g>
		<g>
			<path class="st0" d="M105.7,242.8c0.5,0.7,0.7,1.6,0.7,2.5c0,2.7-2.2,4.9-4.9,4.9c-0.9,0-1.8-0.3-2.5-0.7
				c0.9,1.4,2.4,2.3,4.1,2.3c2.7,0,4.9-2.2,4.9-4.9C108.1,245.2,107.1,243.6,105.7,242.8z"/>
			<circle class="st1" cx="102.4" cy="246.1" r="4.9"/>
			<path class="st0" d="M104.9,241.9c0.5,0.7,0.7,1.6,0.7,2.5c0,2.7-2.2,4.9-4.9,4.9c-0.9,0-1.8-0.3-2.5-0.7
				c0.9,1.4,2.4,2.3,4.1,2.3c2.7,0,4.9-2.2,4.9-4.9C107.2,244.3,106.3,242.8,104.9,241.9z"/>
		</g>
		<g>
			<path class="st0" d="M119.5,242.8c0.5,0.7,0.7,1.6,0.7,2.5c0,2.7-2.2,4.9-4.9,4.9c-0.9,0-1.8-0.3-2.5-0.7
				c0.9,1.4,2.4,2.3,4.1,2.3c2.7,0,4.9-2.2,4.9-4.9C121.9,245.2,120.9,243.6,119.5,242.8z"/>
			<circle class="st1" cx="116.2" cy="246.1" r="4.9"/>
			<path class="st0" d="M118.7,241.9c0.5,0.7,0.7,1.6,0.7,2.5c0,2.7-2.2,4.9-4.9,4.9c-0.9,0-1.8-0.3-2.5-0.7
				c0.9,1.4,2.4,2.3,4.1,2.3c2.7,0,4.9-2.2,4.9-4.9C121,244.3,120.1,242.8,118.7,241.9z"/>
		</g>
		<g>
			<path class="st0" d="M133.4,242.8c0.5,0.7,0.7,1.6,0.7,2.5c0,2.7-2.2,4.9-4.9,4.9c-0.9,0-1.8-0.3-2.5-0.7
				c0.9,1.4,2.4,2.3,4.1,2.3c2.7,0,4.9-2.2,4.9-4.9C135.7,245.2,134.7,243.6,133.4,242.8z"/>
			<circle class="st1" cx="130" cy="246.1" r="4.9"/>
			<path class="st0" d="M132.5,241.9c0.5,0.7,0.7,1.6,0.7,2.5c0,2.7-2.2,4.9-4.9,4.9c-0.9,0-1.8-0.3-2.5-0.7
				c0.9,1.4,2.4,2.3,4.1,2.3c2.7,0,4.9-2.2,4.9-4.9C134.9,244.3,133.9,242.8,132.5,241.9z"/>
		</g>
		<g>
			<path class="st0" d="M147.2,242.8c0.5,0.7,0.7,1.6,0.7,2.5c0,2.7-2.2,4.9-4.9,4.9c-0.9,0-1.8-0.3-2.5-0.7
				c0.9,1.4,2.4,2.3,4.1,2.3c2.7,0,4.9-2.2,4.9-4.9C149.5,245.2,148.6,243.6,147.2,242.8z"/>
			<circle class="st1" cx="143.8" cy="246.1" r="4.9"/>
			<path class="st0" d="M146.3,241.9c0.5,0.7,0.7,1.6,0.7,2.5c0,2.7-2.2,4.9-4.9,4.9c-0.9,0-1.8-0.3-2.5-0.7
				c0.9,1.4,2.4,2.3,4.1,2.3c2.7,0,4.9-2.2,4.9-4.9C148.7,244.3,147.7,242.8,146.3,241.9z"/>
		</g>
		<g>
			<path class="st0" d="M161,242.8c0.5,0.7,0.7,1.6,0.7,2.5c0,2.7-2.2,4.9-4.9,4.9c-0.9,0-1.8-0.3-2.5-0.7c0.9,1.4,2.4,2.3,4.1,2.3
				c2.7,0,4.9-2.2,4.9-4.9C163.3,245.2,162.4,243.6,161,242.8z"/>
			<circle class="st1" cx="157.6" cy="246.1" r="4.9"/>
			<path class="st0" d="M160.1,241.9c0.5,0.7,0.7,1.6,0.7,2.5c0,2.7-2.2,4.9-4.9,4.9c-0.9,0-1.8-0.3-2.5-0.7
				c0.9,1.4,2.4,2.3,4.1,2.3c2.7,0,4.9-2.2,4.9-4.9C162.5,244.3,161.5,242.8,160.1,241.9z"/>
		</g>
		<g>
			<path class="st0" d="M36.5,255.8c0.5,0.7,0.7,1.6,0.7,2.5c0,2.7-2.2,4.9-4.9,4.9c-0.9,0-1.8-0.3-2.5-0.7c0.9,1.4,2.4,2.3,4.1,2.3
				c2.7,0,4.9-2.2,4.9-4.9C38.8,258.2,37.9,256.7,36.5,255.8z"/>
			<circle class="st1" cx="33.1" cy="259.1" r="4.9"/>
			<path class="st0" d="M35.7,255c0.5,0.7,0.7,1.6,0.7,2.5c0,2.7-2.2,4.9-4.9,4.9c-0.9,0-1.8-0.3-2.5-0.7c0.9,1.4,2.4,2.3,4.1,2.3
				c2.7,0,4.9-2.2,4.9-4.9C38,257.4,37.1,255.9,35.7,255z"/>
		</g>
		<g>
			<path class="st0" d="M50.4,255.8c0.5,0.7,0.7,1.6,0.7,2.5c0,2.7-2.2,4.9-4.9,4.9c-0.9,0-1.8-0.3-2.5-0.7c0.9,1.4,2.4,2.3,4.1,2.3
				c2.7,0,4.9-2.2,4.9-4.9C52.7,258.2,51.8,256.7,50.4,255.8z"/>
			<circle class="st1" cx="47" cy="259.1" r="4.9"/>
			<path class="st0" d="M49.5,255c0.5,0.7,0.7,1.6,0.7,2.5c0,2.7-2.2,4.9-4.9,4.9c-0.9,0-1.8-0.3-2.5-0.7c0.9,1.4,2.4,2.3,4.1,2.3
				c2.7,0,4.9-2.2,4.9-4.9C51.9,257.4,50.9,255.9,49.5,255z"/>
		</g>
		<g>
			<path class="st0" d="M64.2,255.8c0.5,0.7,0.7,1.6,0.7,2.5c0,2.7-2.2,4.9-4.9,4.9c-0.9,0-1.8-0.3-2.5-0.7c0.9,1.4,2.4,2.3,4.1,2.3
				c2.7,0,4.9-2.2,4.9-4.9C66.5,258.2,65.6,256.7,64.2,255.8z"/>
			<circle class="st1" cx="60.9" cy="259.1" r="4.9"/>
			<path class="st0" d="M63.4,255c0.5,0.7,0.7,1.6,0.7,2.5c0,2.7-2.2,4.9-4.9,4.9c-0.9,0-1.8-0.3-2.5-0.7c0.9,1.4,2.4,2.3,4.1,2.3
				c2.7,0,4.9-2.2,4.9-4.9C65.7,257.4,64.8,255.9,63.4,255z"/>
		</g>
		<g>
			<path class="st0" d="M78.1,255.8c0.5,0.7,0.7,1.6,0.7,2.5c0,2.7-2.2,4.9-4.9,4.9c-0.9,0-1.8-0.3-2.5-0.7c0.9,1.4,2.4,2.3,4.1,2.3
				c2.7,0,4.9-2.2,4.9-4.9C80.4,258.2,79.5,256.7,78.1,255.8z"/>
			<circle class="st1" cx="74.7" cy="259.1" r="4.9"/>
			<path class="st0" d="M77.3,255c0.5,0.7,0.7,1.6,0.7,2.5c0,2.7-2.2,4.9-4.9,4.9c-0.9,0-1.8-0.3-2.5-0.7c0.9,1.4,2.4,2.3,4.1,2.3
				c2.7,0,4.9-2.2,4.9-4.9C79.6,257.4,78.6,255.9,77.3,255z"/>
		</g>
		<g>
			<path class="st0" d="M91.9,255.8c0.5,0.7,0.7,1.6,0.7,2.5c0,2.7-2.2,4.9-4.9,4.9c-0.9,0-1.8-0.3-2.5-0.7c0.9,1.4,2.4,2.3,4.1,2.3
				c2.7,0,4.9-2.2,4.9-4.9C94.3,258.2,93.3,256.7,91.9,255.8z"/>
			<circle class="st1" cx="88.6" cy="259.1" r="4.9"/>
			<path class="st0" d="M91.1,255c0.5,0.7,0.7,1.6,0.7,2.5c0,2.7-2.2,4.9-4.9,4.9c-0.9,0-1.8-0.3-2.5-0.7c0.9,1.4,2.4,2.3,4.1,2.3
				c2.7,0,4.9-2.2,4.9-4.9C93.4,257.4,92.5,255.9,91.1,255z"/>
		</g>
		<g>
			<path class="st0" d="M105.7,255.8c0.5,0.7,0.7,1.6,0.7,2.5c0,2.7-2.2,4.9-4.9,4.9c-0.9,0-1.8-0.3-2.5-0.7
				c0.9,1.4,2.4,2.3,4.1,2.3c2.7,0,4.9-2.2,4.9-4.9C108.1,258.2,107.1,256.7,105.7,255.8z"/>
			<circle class="st1" cx="102.4" cy="259.1" r="4.9"/>
			<path class="st0" d="M104.9,255c0.5,0.7,0.7,1.6,0.7,2.5c0,2.7-2.2,4.9-4.9,4.9c-0.9,0-1.8-0.3-2.5-0.7c0.9,1.4,2.4,2.3,4.1,2.3
				c2.7,0,4.9-2.2,4.9-4.9C107.2,257.4,106.3,255.9,104.9,255z"/>
		</g>
		<g>
			<path class="st0" d="M119.5,255.8c0.5,0.7,0.7,1.6,0.7,2.5c0,2.7-2.2,4.9-4.9,4.9c-0.9,0-1.8-0.3-2.5-0.7
				c0.9,1.4,2.4,2.3,4.1,2.3c2.7,0,4.9-2.2,4.9-4.9C121.9,258.2,120.9,256.7,119.5,255.8z"/>
			<circle class="st1" cx="116.2" cy="259.1" r="4.9"/>
			<path class="st0" d="M118.7,255c0.5,0.7,0.7,1.6,0.7,2.5c0,2.7-2.2,4.9-4.9,4.9c-0.9,0-1.8-0.3-2.5-0.7c0.9,1.4,2.4,2.3,4.1,2.3
				c2.7,0,4.9-2.2,4.9-4.9C121,257.4,120.1,255.9,118.7,255z"/>
		</g>
		<g>
			<path class="st0" d="M133.4,255.8c0.5,0.7,0.7,1.6,0.7,2.5c0,2.7-2.2,4.9-4.9,4.9c-0.9,0-1.8-0.3-2.5-0.7
				c0.9,1.4,2.4,2.3,4.1,2.3c2.7,0,4.9-2.2,4.9-4.9C135.7,258.2,134.7,256.7,133.4,255.8z"/>
			<circle class="st1" cx="130" cy="259.1" r="4.9"/>
			<path class="st0" d="M132.5,255c0.5,0.7,0.7,1.6,0.7,2.5c0,2.7-2.2,4.9-4.9,4.9c-0.9,0-1.8-0.3-2.5-0.7c0.9,1.4,2.4,2.3,4.1,2.3
				c2.7,0,4.9-2.2,4.9-4.9C134.9,257.4,133.9,255.9,132.5,255z"/>
		</g>
		<g>
			<path class="st0" d="M147.2,255.8c0.5,0.7,0.7,1.6,0.7,2.5c0,2.7-2.2,4.9-4.9,4.9c-0.9,0-1.8-0.3-2.5-0.7
				c0.9,1.4,2.4,2.3,4.1,2.3c2.7,0,4.9-2.2,4.9-4.9C149.5,258.2,148.6,256.7,147.2,255.8z"/>
			<circle class="st1" cx="143.8" cy="259.1" r="4.9"/>
			<path class="st0" d="M146.3,255c0.5,0.7,0.7,1.6,0.7,2.5c0,2.7-2.2,4.9-4.9,4.9c-0.9,0-1.8-0.3-2.5-0.7c0.9,1.4,2.4,2.3,4.1,2.3
				c2.7,0,4.9-2.2,4.9-4.9C148.7,257.4,147.7,255.9,146.3,255z"/>
		</g>
		<g>
			<path class="st0" d="M161,255.8c0.5,0.7,0.7,1.6,0.7,2.5c0,2.7-2.2,4.9-4.9,4.9c-0.9,0-1.8-0.3-2.5-0.7c0.9,1.4,2.4,2.3,4.1,2.3
				c2.7,0,4.9-2.2,4.9-4.9C163.3,258.2,162.4,256.7,161,255.8z"/>
			<circle class="st1" cx="157.6" cy="259.1" r="4.9"/>
			<path class="st0" d="M160.1,255c0.5,0.7,0.7,1.6,0.7,2.5c0,2.7-2.2,4.9-4.9,4.9c-0.9,0-1.8-0.3-2.5-0.7c0.9,1.4,2.4,2.3,4.1,2.3
				c2.7,0,4.9-2.2,4.9-4.9C162.5,257.4,161.5,255.9,160.1,255z"/>
		</g>
		<g>
			<path class="st0" d="M36.5,268.9c0.5,0.7,0.7,1.6,0.7,2.5c0,2.7-2.2,4.9-4.9,4.9c-0.9,0-1.8-0.3-2.5-0.7c0.9,1.4,2.4,2.3,4.1,2.3
				c2.7,0,4.9-2.2,4.9-4.9C38.8,271.3,37.9,269.7,36.5,268.9z"/>
			<circle class="st1" cx="33.1" cy="272.2" r="4.9"/>
			<path class="st0" d="M35.7,268.1c0.5,0.7,0.7,1.6,0.7,2.5c0,2.7-2.2,4.9-4.9,4.9c-0.9,0-1.8-0.3-2.5-0.7c0.9,1.4,2.4,2.3,4.1,2.3
				c2.7,0,4.9-2.2,4.9-4.9C38,270.5,37.1,268.9,35.7,268.1z"/>
		</g>
		<g>
			<path class="st0" d="M50.4,268.9c0.5,0.7,0.7,1.6,0.7,2.5c0,2.7-2.2,4.9-4.9,4.9c-0.9,0-1.8-0.3-2.5-0.7c0.9,1.4,2.4,2.3,4.1,2.3
				c2.7,0,4.9-2.2,4.9-4.9C52.7,271.3,51.8,269.7,50.4,268.9z"/>
			<circle class="st1" cx="47" cy="272.2" r="4.9"/>
			<path class="st0" d="M49.5,268.1c0.5,0.7,0.7,1.6,0.7,2.5c0,2.7-2.2,4.9-4.9,4.9c-0.9,0-1.8-0.3-2.5-0.7c0.9,1.4,2.4,2.3,4.1,2.3
				c2.7,0,4.9-2.2,4.9-4.9C51.9,270.5,50.9,268.9,49.5,268.1z"/>
		</g>
		<g>
			<path class="st0" d="M64.2,268.9c0.5,0.7,0.7,1.6,0.7,2.5c0,2.7-2.2,4.9-4.9,4.9c-0.9,0-1.8-0.3-2.5-0.7c0.9,1.4,2.4,2.3,4.1,2.3
				c2.7,0,4.9-2.2,4.9-4.9C66.5,271.3,65.6,269.7,64.2,268.9z"/>
			<circle class="st1" cx="60.9" cy="272.2" r="4.9"/>
			<path class="st0" d="M63.4,268.1c0.5,0.7,0.7,1.6,0.7,2.5c0,2.7-2.2,4.9-4.9,4.9c-0.9,0-1.8-0.3-2.5-0.7c0.9,1.4,2.4,2.3,4.1,2.3
				c2.7,0,4.9-2.2,4.9-4.9C65.7,270.5,64.8,268.9,63.4,268.1z"/>
		</g>
		<g>
			<path class="st0" d="M78.1,268.9c0.5,0.7,0.7,1.6,0.7,2.5c0,2.7-2.2,4.9-4.9,4.9c-0.9,0-1.8-0.3-2.5-0.7c0.9,1.4,2.4,2.3,4.1,2.3
				c2.7,0,4.9-2.2,4.9-4.9C80.4,271.3,79.5,269.7,78.1,268.9z"/>
			<circle class="st1" cx="74.7" cy="272.2" r="4.9"/>
			<path class="st0" d="M77.3,268.1c0.5,0.7,0.7,1.6,0.7,2.5c0,2.7-2.2,4.9-4.9,4.9c-0.9,0-1.8-0.3-2.5-0.7c0.9,1.4,2.4,2.3,4.1,2.3
				c2.7,0,4.9-2.2,4.9-4.9C79.6,270.5,78.6,268.9,77.3,268.1z"/>
		</g>
		<g>
			<path class="st0" d="M91.9,268.9c0.5,0.7,0.7,1.6,0.7,2.5c0,2.7-2.2,4.9-4.9,4.9c-0.9,0-1.8-0.3-2.5-0.7c0.9,1.4,2.4,2.3,4.1,2.3
				c2.7,0,4.9-2.2,4.9-4.9C94.3,271.3,93.3,269.7,91.9,268.9z"/>
			<circle class="st1" cx="88.6" cy="272.2" r="4.9"/>
			<path class="st0" d="M91.1,268.1c0.5,0.7,0.7,1.6,0.7,2.5c0,2.7-2.2,4.9-4.9,4.9c-0.9,0-1.8-0.3-2.5-0.7c0.9,1.4,2.4,2.3,4.1,2.3
				c2.7,0,4.9-2.2,4.9-4.9C93.4,270.5,92.5,268.9,91.1,268.1z"/>
		</g>
		<g>
			<path class="st0" d="M105.7,268.9c0.5,0.7,0.7,1.6,0.7,2.5c0,2.7-2.2,4.9-4.9,4.9c-0.9,0-1.8-0.3-2.5-0.7
				c0.9,1.4,2.4,2.3,4.1,2.3c2.7,0,4.9-2.2,4.9-4.9C108.1,271.3,107.1,269.7,105.7,268.9z"/>
			<circle class="st1" cx="102.4" cy="272.2" r="4.9"/>
			<path class="st0" d="M104.9,268.1c0.5,0.7,0.7,1.6,0.7,2.5c0,2.7-2.2,4.9-4.9,4.9c-0.9,0-1.8-0.3-2.5-0.7
				c0.9,1.4,2.4,2.3,4.1,2.3c2.7,0,4.9-2.2,4.9-4.9C107.2,270.5,106.3,268.9,104.9,268.1z"/>
		</g>
		<g>
			<path class="st0" d="M119.5,268.9c0.5,0.7,0.7,1.6,0.7,2.5c0,2.7-2.2,4.9-4.9,4.9c-0.9,0-1.8-0.3-2.5-0.7
				c0.9,1.4,2.4,2.3,4.1,2.3c2.7,0,4.9-2.2,4.9-4.9C121.9,271.3,120.9,269.7,119.5,268.9z"/>
			<circle class="st1" cx="116.2" cy="272.2" r="4.9"/>
			<path class="st0" d="M118.7,268.1c0.5,0.7,0.7,1.6,0.7,2.5c0,2.7-2.2,4.9-4.9,4.9c-0.9,0-1.8-0.3-2.5-0.7
				c0.9,1.4,2.4,2.3,4.1,2.3c2.7,0,4.9-2.2,4.9-4.9C121,270.5,120.1,268.9,118.7,268.1z"/>
		</g>
		<g>
			<path class="st0" d="M133.4,268.9c0.5,0.7,0.7,1.6,0.7,2.5c0,2.7-2.2,4.9-4.9,4.9c-0.9,0-1.8-0.3-2.5-0.7
				c0.9,1.4,2.4,2.3,4.1,2.3c2.7,0,4.9-2.2,4.9-4.9C135.7,271.3,134.7,269.7,133.4,268.9z"/>
			<circle class="st1" cx="130" cy="272.2" r="4.9"/>
			<path class="st0" d="M132.5,268.1c0.5,0.7,0.7,1.6,0.7,2.5c0,2.7-2.2,4.9-4.9,4.9c-0.9,0-1.8-0.3-2.5-0.7
				c0.9,1.4,2.4,2.3,4.1,2.3c2.7,0,4.9-2.2,4.9-4.9C134.9,270.5,133.9,268.9,132.5,268.1z"/>
		</g>
		<g>
			<path class="st0" d="M147.2,268.9c0.5,0.7,0.7,1.6,0.7,2.5c0,2.7-2.2,4.9-4.9,4.9c-0.9,0-1.8-0.3-2.5-0.7
				c0.9,1.4,2.4,2.3,4.1,2.3c2.7,0,4.9-2.2,4.9-4.9C149.5,271.3,148.6,269.7,147.2,268.9z"/>
			<circle class="st1" cx="143.8" cy="272.2" r="4.9"/>
			<path class="st0" d="M146.3,268.1c0.5,0.7,0.7,1.6,0.7,2.5c0,2.7-2.2,4.9-4.9,4.9c-0.9,0-1.8-0.3-2.5-0.7
				c0.9,1.4,2.4,2.3,4.1,2.3c2.7,0,4.9-2.2,4.9-4.9C148.7,270.5,147.7,268.9,146.3,268.1z"/>
		</g>
		<g>
			<path class="st0" d="M161,268.9c0.5,0.7,0.7,1.6,0.7,2.5c0,2.7-2.2,4.9-4.9,4.9c-0.9,0-1.8-0.3-2.5-0.7c0.9,1.4,2.4,2.3,4.1,2.3
				c2.7,0,4.9-2.2,4.9-4.9C163.3,271.3,162.4,269.7,161,268.9z"/>
			<circle class="st1" cx="157.6" cy="272.2" r="4.9"/>
			<path class="st0" d="M160.1,268.1c0.5,0.7,0.7,1.6,0.7,2.5c0,2.7-2.2,4.9-4.9,4.9c-0.9,0-1.8-0.3-2.5-0.7
				c0.9,1.4,2.4,2.3,4.1,2.3c2.7,0,4.9-2.2,4.9-4.9C162.5,270.5,161.5,268.9,160.1,268.1z"/>
		</g>
		<g>
			<path class="st0" d="M36.5,282c0.5,0.7,0.7,1.6,0.7,2.5c0,2.7-2.2,4.9-4.9,4.9c-0.9,0-1.8-0.3-2.5-0.7c0.9,1.4,2.4,2.3,4.1,2.3
				c2.7,0,4.9-2.2,4.9-4.9C38.8,284.3,37.9,282.8,36.5,282z"/>
			<circle class="st1" cx="33.1" cy="285.3" r="4.9"/>
			<path class="st0" d="M35.7,281.1c0.5,0.7,0.7,1.6,0.7,2.5c0,2.7-2.2,4.9-4.9,4.9c-0.9,0-1.8-0.3-2.5-0.7c0.9,1.4,2.4,2.3,4.1,2.3
				c2.7,0,4.9-2.2,4.9-4.9C38,283.5,37.1,282,35.7,281.1z"/>
		</g>
		<g>
			<path class="st0" d="M50.4,282c0.5,0.7,0.7,1.6,0.7,2.5c0,2.7-2.2,4.9-4.9,4.9c-0.9,0-1.8-0.3-2.5-0.7c0.9,1.4,2.4,2.3,4.1,2.3
				c2.7,0,4.9-2.2,4.9-4.9C52.7,284.3,51.8,282.8,50.4,282z"/>
			<circle class="st1" cx="47" cy="285.3" r="4.9"/>
			<path class="st0" d="M49.5,281.1c0.5,0.7,0.7,1.6,0.7,2.5c0,2.7-2.2,4.9-4.9,4.9c-0.9,0-1.8-0.3-2.5-0.7c0.9,1.4,2.4,2.3,4.1,2.3
				c2.7,0,4.9-2.2,4.9-4.9C51.9,283.5,50.9,282,49.5,281.1z"/>
		</g>
		<g>
			<path class="st0" d="M64.2,282c0.5,0.7,0.7,1.6,0.7,2.5c0,2.7-2.2,4.9-4.9,4.9c-0.9,0-1.8-0.3-2.5-0.7c0.9,1.4,2.4,2.3,4.1,2.3
				c2.7,0,4.9-2.2,4.9-4.9C66.5,284.3,65.6,282.8,64.2,282z"/>
			<circle class="st1" cx="60.9" cy="285.3" r="4.9"/>
			<path class="st0" d="M63.4,281.1c0.5,0.7,0.7,1.6,0.7,2.5c0,2.7-2.2,4.9-4.9,4.9c-0.9,0-1.8-0.3-2.5-0.7c0.9,1.4,2.4,2.3,4.1,2.3
				c2.7,0,4.9-2.2,4.9-4.9C65.7,283.5,64.8,282,63.4,281.1z"/>
		</g>
		<g>
			<path class="st0" d="M78.1,282c0.5,0.7,0.7,1.6,0.7,2.5c0,2.7-2.2,4.9-4.9,4.9c-0.9,0-1.8-0.3-2.5-0.7c0.9,1.4,2.4,2.3,4.1,2.3
				c2.7,0,4.9-2.2,4.9-4.9C80.4,284.3,79.5,282.8,78.1,282z"/>
			<circle class="st1" cx="74.7" cy="285.3" r="4.9"/>
			<path class="st0" d="M77.3,281.1c0.5,0.7,0.7,1.6,0.7,2.5c0,2.7-2.2,4.9-4.9,4.9c-0.9,0-1.8-0.3-2.5-0.7c0.9,1.4,2.4,2.3,4.1,2.3
				c2.7,0,4.9-2.2,4.9-4.9C79.6,283.5,78.6,282,77.3,281.1z"/>
		</g>
		<g>
			<path class="st0" d="M91.9,282c0.5,0.7,0.7,1.6,0.7,2.5c0,2.7-2.2,4.9-4.9,4.9c-0.9,0-1.8-0.3-2.5-0.7c0.9,1.4,2.4,2.3,4.1,2.3
				c2.7,0,4.9-2.2,4.9-4.9C94.3,284.3,93.3,282.8,91.9,282z"/>
			<circle class="st1" cx="88.6" cy="285.3" r="4.9"/>
			<path class="st0" d="M91.1,281.1c0.5,0.7,0.7,1.6,0.7,2.5c0,2.7-2.2,4.9-4.9,4.9c-0.9,0-1.8-0.3-2.5-0.7c0.9,1.4,2.4,2.3,4.1,2.3
				c2.7,0,4.9-2.2,4.9-4.9C93.4,283.5,92.5,282,91.1,281.1z"/>
		</g>
		<g>
			<path class="st0" d="M105.7,282c0.5,0.7,0.7,1.6,0.7,2.5c0,2.7-2.2,4.9-4.9,4.9c-0.9,0-1.8-0.3-2.5-0.7c0.9,1.4,2.4,2.3,4.1,2.3
				c2.7,0,4.9-2.2,4.9-4.9C108.1,284.3,107.1,282.8,105.7,282z"/>
			<circle class="st1" cx="102.4" cy="285.3" r="4.9"/>
			<path class="st0" d="M104.9,281.1c0.5,0.7,0.7,1.6,0.7,2.5c0,2.7-2.2,4.9-4.9,4.9c-0.9,0-1.8-0.3-2.5-0.7
				c0.9,1.4,2.4,2.3,4.1,2.3c2.7,0,4.9-2.2,4.9-4.9C107.2,283.5,106.3,282,104.9,281.1z"/>
		</g>
		<g>
			<path class="st0" d="M119.5,282c0.5,0.7,0.7,1.6,0.7,2.5c0,2.7-2.2,4.9-4.9,4.9c-0.9,0-1.8-0.3-2.5-0.7c0.9,1.4,2.4,2.3,4.1,2.3
				c2.7,0,4.9-2.2,4.9-4.9C121.9,284.3,120.9,282.8,119.5,282z"/>
			<circle class="st1" cx="116.2" cy="285.3" r="4.9"/>
			<path class="st0" d="M118.7,281.1c0.5,0.7,0.7,1.6,0.7,2.5c0,2.7-2.2,4.9-4.9,4.9c-0.9,0-1.8-0.3-2.5-0.7
				c0.9,1.4,2.4,2.3,4.1,2.3c2.7,0,4.9-2.2,4.9-4.9C121,283.5,120.1,282,118.7,281.1z"/>
		</g>
		<g>
			<path class="st0" d="M133.4,282c0.5,0.7,0.7,1.6,0.7,2.5c0,2.7-2.2,4.9-4.9,4.9c-0.9,0-1.8-0.3-2.5-0.7c0.9,1.4,2.4,2.3,4.1,2.3
				c2.7,0,4.9-2.2,4.9-4.9C135.7,284.3,134.7,282.8,133.4,282z"/>
			<circle class="st1" cx="130" cy="285.3" r="4.9"/>
			<path class="st0" d="M132.5,281.1c0.5,0.7,0.7,1.6,0.7,2.5c0,2.7-2.2,4.9-4.9,4.9c-0.9,0-1.8-0.3-2.5-0.7
				c0.9,1.4,2.4,2.3,4.1,2.3c2.7,0,4.9-2.2,4.9-4.9C134.9,283.5,133.9,282,132.5,281.1z"/>
		</g>
		<g>
			<path class="st0" d="M147.2,282c0.5,0.7,0.7,1.6,0.7,2.5c0,2.7-2.2,4.9-4.9,4.9c-0.9,0-1.8-0.3-2.5-0.7c0.9,1.4,2.4,2.3,4.1,2.3
				c2.7,0,4.9-2.2,4.9-4.9C149.5,284.3,148.6,282.8,147.2,282z"/>
			<circle class="st1" cx="143.8" cy="285.3" r="4.9"/>
			<path class="st0" d="M146.3,281.1c0.5,0.7,0.7,1.6,0.7,2.5c0,2.7-2.2,4.9-4.9,4.9c-0.9,0-1.8-0.3-2.5-0.7
				c0.9,1.4,2.4,2.3,4.1,2.3c2.7,0,4.9-2.2,4.9-4.9C148.7,283.5,147.7,282,146.3,281.1z"/>
		</g>
		<g>
			<path class="st0" d="M161,282c0.5,0.7,0.7,1.6,0.7,2.5c0,2.7-2.2,4.9-4.9,4.9c-0.9,0-1.8-0.3-2.5-0.7c0.9,1.4,2.4,2.3,4.1,2.3
				c2.7,0,4.9-2.2,4.9-4.9C163.3,284.3,162.4,282.8,161,282z"/>
			<circle class="st1" cx="157.6" cy="285.3" r="4.9"/>
			<path class="st0" d="M160.1,281.1c0.5,0.7,0.7,1.6,0.7,2.5c0,2.7-2.2,4.9-4.9,4.9c-0.9,0-1.8-0.3-2.5-0.7
				c0.9,1.4,2.4,2.3,4.1,2.3c2.7,0,4.9-2.2,4.9-4.9C162.5,283.5,161.5,282,160.1,281.1z"/>
		</g>
		<g>
			<path class="st0" d="M36.5,295c0.5,0.7,0.7,1.6,0.7,2.5c0,2.7-2.2,4.9-4.9,4.9c-0.9,0-1.8-0.3-2.5-0.7c0.9,1.4,2.4,2.3,4.1,2.3
				c2.7,0,4.9-2.2,4.9-4.9C38.8,297.4,37.9,295.9,36.5,295z"/>
			<circle class="st1" cx="33.1" cy="298.3" r="4.9"/>
			<path class="st0" d="M35.7,294.2c0.5,0.7,0.7,1.6,0.7,2.5c0,2.7-2.2,4.9-4.9,4.9c-0.9,0-1.8-0.3-2.5-0.7c0.9,1.4,2.4,2.3,4.1,2.3
				c2.7,0,4.9-2.2,4.9-4.9C38,296.6,37.1,295,35.7,294.2z"/>
		</g>
		<g>
			<path class="st0" d="M50.4,295c0.5,0.7,0.7,1.6,0.7,2.5c0,2.7-2.2,4.9-4.9,4.9c-0.9,0-1.8-0.3-2.5-0.7c0.9,1.4,2.4,2.3,4.1,2.3
				c2.7,0,4.9-2.2,4.9-4.9C52.7,297.4,51.8,295.9,50.4,295z"/>
			<circle class="st1" cx="47" cy="298.3" r="4.9"/>
			<path class="st0" d="M49.5,294.2c0.5,0.7,0.7,1.6,0.7,2.5c0,2.7-2.2,4.9-4.9,4.9c-0.9,0-1.8-0.3-2.5-0.7c0.9,1.4,2.4,2.3,4.1,2.3
				c2.7,0,4.9-2.2,4.9-4.9C51.9,296.6,50.9,295,49.5,294.2z"/>
		</g>
		<g>
			<path class="st0" d="M64.2,295c0.5,0.7,0.7,1.6,0.7,2.5c0,2.7-2.2,4.9-4.9,4.9c-0.9,0-1.8-0.3-2.5-0.7c0.9,1.4,2.4,2.3,4.1,2.3
				c2.7,0,4.9-2.2,4.9-4.9C66.5,297.4,65.6,295.9,64.2,295z"/>
			<circle class="st1" cx="60.9" cy="298.3" r="4.9"/>
			<path class="st0" d="M63.4,294.2c0.5,0.7,0.7,1.6,0.7,2.5c0,2.7-2.2,4.9-4.9,4.9c-0.9,0-1.8-0.3-2.5-0.7c0.9,1.4,2.4,2.3,4.1,2.3
				c2.7,0,4.9-2.2,4.9-4.9C65.7,296.6,64.8,295,63.4,294.2z"/>
		</g>
		<g>
			<path class="st0" d="M78.1,295c0.5,0.7,0.7,1.6,0.7,2.5c0,2.7-2.2,4.9-4.9,4.9c-0.9,0-1.8-0.3-2.5-0.7c0.9,1.4,2.4,2.3,4.1,2.3
				c2.7,0,4.9-2.2,4.9-4.9C80.4,297.4,79.5,295.9,78.1,295z"/>
			<circle class="st1" cx="74.7" cy="298.3" r="4.9"/>
			<path class="st0" d="M77.3,294.2c0.5,0.7,0.7,1.6,0.7,2.5c0,2.7-2.2,4.9-4.9,4.9c-0.9,0-1.8-0.3-2.5-0.7c0.9,1.4,2.4,2.3,4.1,2.3
				c2.7,0,4.9-2.2,4.9-4.9C79.6,296.6,78.6,295,77.3,294.2z"/>
		</g>
		<g>
			<path class="st0" d="M91.9,295c0.5,0.7,0.7,1.6,0.7,2.5c0,2.7-2.2,4.9-4.9,4.9c-0.9,0-1.8-0.3-2.5-0.7c0.9,1.4,2.4,2.3,4.1,2.3
				c2.7,0,4.9-2.2,4.9-4.9C94.3,297.4,93.3,295.9,91.9,295z"/>
			<circle class="st1" cx="88.6" cy="298.3" r="4.9"/>
			<path class="st0" d="M91.1,294.2c0.5,0.7,0.7,1.6,0.7,2.5c0,2.7-2.2,4.9-4.9,4.9c-0.9,0-1.8-0.3-2.5-0.7c0.9,1.4,2.4,2.3,4.1,2.3
				c2.7,0,4.9-2.2,4.9-4.9C93.4,296.6,92.5,295,91.1,294.2z"/>
		</g>
		<g>
			<path class="st0" d="M105.7,295c0.5,0.7,0.7,1.6,0.7,2.5c0,2.7-2.2,4.9-4.9,4.9c-0.9,0-1.8-0.3-2.5-0.7c0.9,1.4,2.4,2.3,4.1,2.3
				c2.7,0,4.9-2.2,4.9-4.9C108.1,297.4,107.1,295.9,105.7,295z"/>
			<circle class="st1" cx="102.4" cy="298.3" r="4.9"/>
			<path class="st0" d="M104.9,294.2c0.5,0.7,0.7,1.6,0.7,2.5c0,2.7-2.2,4.9-4.9,4.9c-0.9,0-1.8-0.3-2.5-0.7
				c0.9,1.4,2.4,2.3,4.1,2.3c2.7,0,4.9-2.2,4.9-4.9C107.2,296.6,106.3,295,104.9,294.2z"/>
		</g>
		<g>
			<path class="st0" d="M119.5,295c0.5,0.7,0.7,1.6,0.7,2.5c0,2.7-2.2,4.9-4.9,4.9c-0.9,0-1.8-0.3-2.5-0.7c0.9,1.4,2.4,2.3,4.1,2.3
				c2.7,0,4.9-2.2,4.9-4.9C121.9,297.4,120.9,295.9,119.5,295z"/>
			<circle class="st1" cx="116.2" cy="298.3" r="4.9"/>
			<path class="st0" d="M118.7,294.2c0.5,0.7,0.7,1.6,0.7,2.5c0,2.7-2.2,4.9-4.9,4.9c-0.9,0-1.8-0.3-2.5-0.7
				c0.9,1.4,2.4,2.3,4.1,2.3c2.7,0,4.9-2.2,4.9-4.9C121,296.6,120.1,295,118.7,294.2z"/>
		</g>
		<g>
			<path class="st0" d="M133.4,295c0.5,0.7,0.7,1.6,0.7,2.5c0,2.7-2.2,4.9-4.9,4.9c-0.9,0-1.8-0.3-2.5-0.7c0.9,1.4,2.4,2.3,4.1,2.3
				c2.7,0,4.9-2.2,4.9-4.9C135.7,297.4,134.7,295.9,133.4,295z"/>
			<circle class="st1" cx="130" cy="298.3" r="4.9"/>
			<path class="st0" d="M132.5,294.2c0.5,0.7,0.7,1.6,0.7,2.5c0,2.7-2.2,4.9-4.9,4.9c-0.9,0-1.8-0.3-2.5-0.7
				c0.9,1.4,2.4,2.3,4.1,2.3c2.7,0,4.9-2.2,4.9-4.9C134.9,296.6,133.9,295,132.5,294.2z"/>
		</g>
		<g>
			<path class="st0" d="M147.2,295c0.5,0.7,0.7,1.6,0.7,2.5c0,2.7-2.2,4.9-4.9,4.9c-0.9,0-1.8-0.3-2.5-0.7c0.9,1.4,2.4,2.3,4.1,2.3
				c2.7,0,4.9-2.2,4.9-4.9C149.5,297.4,148.6,295.9,147.2,295z"/>
			<circle class="st1" cx="143.8" cy="298.3" r="4.9"/>
			<path class="st0" d="M146.3,294.2c0.5,0.7,0.7,1.6,0.7,2.5c0,2.7-2.2,4.9-4.9,4.9c-0.9,0-1.8-0.3-2.5-0.7
				c0.9,1.4,2.4,2.3,4.1,2.3c2.7,0,4.9-2.2,4.9-4.9C148.7,296.6,147.7,295,146.3,294.2z"/>
		</g>
		<g>
			<path class="st0" d="M161,295c0.5,0.7,0.7,1.6,0.7,2.5c0,2.7-2.2,4.9-4.9,4.9c-0.9,0-1.8-0.3-2.5-0.7c0.9,1.4,2.4,2.3,4.1,2.3
				c2.7,0,4.9-2.2,4.9-4.9C163.3,297.4,162.4,295.9,161,295z"/>
			<circle class="st1" cx="157.6" cy="298.3" r="4.9"/>
			<path class="st0" d="M160.1,294.2c0.5,0.7,0.7,1.6,0.7,2.5c0,2.7-2.2,4.9-4.9,4.9c-0.9,0-1.8-0.3-2.5-0.7
				c0.9,1.4,2.4,2.3,4.1,2.3c2.7,0,4.9-2.2,4.9-4.9C162.5,296.6,161.5,295,160.1,294.2z"/>
		</g>
		<g>
			<path class="st0" d="M36.5,308.1c0.5,0.7,0.7,1.6,0.7,2.5c0,2.7-2.2,4.9-4.9,4.9c-0.9,0-1.8-0.3-2.5-0.7c0.9,1.4,2.4,2.3,4.1,2.3
				c2.7,0,4.9-2.2,4.9-4.9C38.8,310.5,37.9,308.9,36.5,308.1z"/>
			<circle class="st1" cx="33.1" cy="311.4" r="4.9"/>
			<path class="st0" d="M35.7,307.3c0.5,0.7,0.7,1.6,0.7,2.5c0,2.7-2.2,4.9-4.9,4.9c-0.9,0-1.8-0.3-2.5-0.7c0.9,1.4,2.4,2.3,4.1,2.3
				c2.7,0,4.9-2.2,4.9-4.9C38,309.6,37.1,308.1,35.7,307.3z"/>
		</g>
		<g>
			<path class="st0" d="M50.4,308.1c0.5,0.7,0.7,1.6,0.7,2.5c0,2.7-2.2,4.9-4.9,4.9c-0.9,0-1.8-0.3-2.5-0.7c0.9,1.4,2.4,2.3,4.1,2.3
				c2.7,0,4.9-2.2,4.9-4.9C52.7,310.5,51.8,308.9,50.4,308.1z"/>
			<circle class="st1" cx="47" cy="311.4" r="4.9"/>
			<path class="st0" d="M49.5,307.3c0.5,0.7,0.7,1.6,0.7,2.5c0,2.7-2.2,4.9-4.9,4.9c-0.9,0-1.8-0.3-2.5-0.7c0.9,1.4,2.4,2.3,4.1,2.3
				c2.7,0,4.9-2.2,4.9-4.9C51.9,309.6,50.9,308.1,49.5,307.3z"/>
		</g>
		<g>
			<path class="st0" d="M64.2,308.1c0.5,0.7,0.7,1.6,0.7,2.5c0,2.7-2.2,4.9-4.9,4.9c-0.9,0-1.8-0.3-2.5-0.7c0.9,1.4,2.4,2.3,4.1,2.3
				c2.7,0,4.9-2.2,4.9-4.9C66.5,310.5,65.6,308.9,64.2,308.1z"/>
			<circle class="st1" cx="60.9" cy="311.4" r="4.9"/>
			<path class="st0" d="M63.4,307.3c0.5,0.7,0.7,1.6,0.7,2.5c0,2.7-2.2,4.9-4.9,4.9c-0.9,0-1.8-0.3-2.5-0.7c0.9,1.4,2.4,2.3,4.1,2.3
				c2.7,0,4.9-2.2,4.9-4.9C65.7,309.6,64.8,308.1,63.4,307.3z"/>
		</g>
		<g>
			<path class="st0" d="M78.1,308.1c0.5,0.7,0.7,1.6,0.7,2.5c0,2.7-2.2,4.9-4.9,4.9c-0.9,0-1.8-0.3-2.5-0.7c0.9,1.4,2.4,2.3,4.1,2.3
				c2.7,0,4.9-2.2,4.9-4.9C80.4,310.5,79.5,308.9,78.1,308.1z"/>
			<circle class="st1" cx="74.7" cy="311.4" r="4.9"/>
			<path class="st0" d="M77.3,307.3c0.5,0.7,0.7,1.6,0.7,2.5c0,2.7-2.2,4.9-4.9,4.9c-0.9,0-1.8-0.3-2.5-0.7c0.9,1.4,2.4,2.3,4.1,2.3
				c2.7,0,4.9-2.2,4.9-4.9C79.6,309.6,78.6,308.1,77.3,307.3z"/>
		</g>
		<g>
			<path class="st0" d="M91.9,308.1c0.5,0.7,0.7,1.6,0.7,2.5c0,2.7-2.2,4.9-4.9,4.9c-0.9,0-1.8-0.3-2.5-0.7c0.9,1.4,2.4,2.3,4.1,2.3
				c2.7,0,4.9-2.2,4.9-4.9C94.3,310.5,93.3,308.9,91.9,308.1z"/>
			<circle class="st1" cx="88.6" cy="311.4" r="4.9"/>
			<path class="st0" d="M91.1,307.3c0.5,0.7,0.7,1.6,0.7,2.5c0,2.7-2.2,4.9-4.9,4.9c-0.9,0-1.8-0.3-2.5-0.7c0.9,1.4,2.4,2.3,4.1,2.3
				c2.7,0,4.9-2.2,4.9-4.9C93.4,309.6,92.5,308.1,91.1,307.3z"/>
		</g>
		<g>
			<path class="st0" d="M105.7,308.1c0.5,0.7,0.7,1.6,0.7,2.5c0,2.7-2.2,4.9-4.9,4.9c-0.9,0-1.8-0.3-2.5-0.7
				c0.9,1.4,2.4,2.3,4.1,2.3c2.7,0,4.9-2.2,4.9-4.9C108.1,310.5,107.1,308.9,105.7,308.1z"/>
			<circle class="st1" cx="102.4" cy="311.4" r="4.9"/>
			<path class="st0" d="M104.9,307.3c0.5,0.7,0.7,1.6,0.7,2.5c0,2.7-2.2,4.9-4.9,4.9c-0.9,0-1.8-0.3-2.5-0.7
				c0.9,1.4,2.4,2.3,4.1,2.3c2.7,0,4.9-2.2,4.9-4.9C107.2,309.6,106.3,308.1,104.9,307.3z"/>
		</g>
		<g>
			<path class="st0" d="M119.5,308.1c0.5,0.7,0.7,1.6,0.7,2.5c0,2.7-2.2,4.9-4.9,4.9c-0.9,0-1.8-0.3-2.5-0.7
				c0.9,1.4,2.4,2.3,4.1,2.3c2.7,0,4.9-2.2,4.9-4.9C121.9,310.5,120.9,308.9,119.5,308.1z"/>
			<circle class="st1" cx="116.2" cy="311.4" r="4.9"/>
			<path class="st0" d="M118.7,307.3c0.5,0.7,0.7,1.6,0.7,2.5c0,2.7-2.2,4.9-4.9,4.9c-0.9,0-1.8-0.3-2.5-0.7
				c0.9,1.4,2.4,2.3,4.1,2.3c2.7,0,4.9-2.2,4.9-4.9C121,309.6,120.1,308.1,118.7,307.3z"/>
		</g>
		<g>
			<path class="st0" d="M133.4,308.1c0.5,0.7,0.7,1.6,0.7,2.5c0,2.7-2.2,4.9-4.9,4.9c-0.9,0-1.8-0.3-2.5-0.7
				c0.9,1.4,2.4,2.3,4.1,2.3c2.7,0,4.9-2.2,4.9-4.9C135.7,310.5,134.7,308.9,133.4,308.1z"/>
			<circle class="st1" cx="130" cy="311.4" r="4.9"/>
			<path class="st0" d="M132.5,307.3c0.5,0.7,0.7,1.6,0.7,2.5c0,2.7-2.2,4.9-4.9,4.9c-0.9,0-1.8-0.3-2.5-0.7
				c0.9,1.4,2.4,2.3,4.1,2.3c2.7,0,4.9-2.2,4.9-4.9C134.9,309.6,133.9,308.1,132.5,307.3z"/>
		</g>
		<g>
			<path class="st0" d="M147.2,308.1c0.5,0.7,0.7,1.6,0.7,2.5c0,2.7-2.2,4.9-4.9,4.9c-0.9,0-1.8-0.3-2.5-0.7
				c0.9,1.4,2.4,2.3,4.1,2.3c2.7,0,4.9-2.2,4.9-4.9C149.5,310.5,148.6,308.9,147.2,308.1z"/>
			<circle class="st1" cx="143.8" cy="311.4" r="4.9"/>
			<path class="st0" d="M146.3,307.3c0.5,0.7,0.7,1.6,0.7,2.5c0,2.7-2.2,4.9-4.9,4.9c-0.9,0-1.8-0.3-2.5-0.7
				c0.9,1.4,2.4,2.3,4.1,2.3c2.7,0,4.9-2.2,4.9-4.9C148.7,309.6,147.7,308.1,146.3,307.3z"/>
		</g>
		<g>
			<path class="st0" d="M161,308.1c0.5,0.7,0.7,1.6,0.7,2.5c0,2.7-2.2,4.9-4.9,4.9c-0.9,0-1.8-0.3-2.5-0.7c0.9,1.4,2.4,2.3,4.1,2.3
				c2.7,0,4.9-2.2,4.9-4.9C163.3,310.5,162.4,308.9,161,308.1z"/>
			<circle class="st1" cx="157.6" cy="311.4" r="4.9"/>
			<path class="st0" d="M160.1,307.3c0.5,0.7,0.7,1.6,0.7,2.5c0,2.7-2.2,4.9-4.9,4.9c-0.9,0-1.8-0.3-2.5-0.7
				c0.9,1.4,2.4,2.3,4.1,2.3c2.7,0,4.9-2.2,4.9-4.9C162.5,309.6,161.5,308.1,160.1,307.3z"/>
		</g>
		<g>
			<path class="st0" d="M36.5,321.1c0.5,0.7,0.7,1.6,0.7,2.5c0,2.7-2.2,4.9-4.9,4.9c-0.9,0-1.8-0.3-2.5-0.7c0.9,1.4,2.4,2.3,4.1,2.3
				c2.7,0,4.9-2.2,4.9-4.9C38.8,323.5,37.9,322,36.5,321.1z"/>
			<circle class="st1" cx="33.1" cy="324.5" r="4.9"/>
			<path class="st0" d="M35.7,320.3c0.5,0.7,0.7,1.6,0.7,2.5c0,2.7-2.2,4.9-4.9,4.9c-0.9,0-1.8-0.3-2.5-0.7c0.9,1.4,2.4,2.3,4.1,2.3
				c2.7,0,4.9-2.2,4.9-4.9C38,322.7,37.1,321.2,35.7,320.3z"/>
		</g>
		<g>
			<path class="st0" d="M50.4,321.1c0.5,0.7,0.7,1.6,0.7,2.5c0,2.7-2.2,4.9-4.9,4.9c-0.9,0-1.8-0.3-2.5-0.7c0.9,1.4,2.4,2.3,4.1,2.3
				c2.7,0,4.9-2.2,4.9-4.9C52.7,323.5,51.8,322,50.4,321.1z"/>
			<circle class="st1" cx="47" cy="324.5" r="4.9"/>
			<path class="st0" d="M49.5,320.3c0.5,0.7,0.7,1.6,0.7,2.5c0,2.7-2.2,4.9-4.9,4.9c-0.9,0-1.8-0.3-2.5-0.7c0.9,1.4,2.4,2.3,4.1,2.3
				c2.7,0,4.9-2.2,4.9-4.9C51.9,322.7,50.9,321.2,49.5,320.3z"/>
		</g>
		<g>
			<path class="st0" d="M64.2,321.1c0.5,0.7,0.7,1.6,0.7,2.5c0,2.7-2.2,4.9-4.9,4.9c-0.9,0-1.8-0.3-2.5-0.7c0.9,1.4,2.4,2.3,4.1,2.3
				c2.7,0,4.9-2.2,4.9-4.9C66.5,323.5,65.6,322,64.2,321.1z"/>
			<circle class="st1" cx="60.9" cy="324.5" r="4.9"/>
			<path class="st0" d="M63.4,320.3c0.5,0.7,0.7,1.6,0.7,2.5c0,2.7-2.2,4.9-4.9,4.9c-0.9,0-1.8-0.3-2.5-0.7c0.9,1.4,2.4,2.3,4.1,2.3
				c2.7,0,4.9-2.2,4.9-4.9C65.7,322.7,64.8,321.2,63.4,320.3z"/>
		</g>
		<g>
			<path class="st0" d="M78.1,321.1c0.5,0.7,0.7,1.6,0.7,2.5c0,2.7-2.2,4.9-4.9,4.9c-0.9,0-1.8-0.3-2.5-0.7c0.9,1.4,2.4,2.3,4.1,2.3
				c2.7,0,4.9-2.2,4.9-4.9C80.4,323.5,79.5,322,78.1,321.1z"/>
			<circle class="st1" cx="74.7" cy="324.5" r="4.9"/>
			<path class="st0" d="M77.3,320.3c0.5,0.7,0.7,1.6,0.7,2.5c0,2.7-2.2,4.9-4.9,4.9c-0.9,0-1.8-0.3-2.5-0.7c0.9,1.4,2.4,2.3,4.1,2.3
				c2.7,0,4.9-2.2,4.9-4.9C79.6,322.7,78.6,321.2,77.3,320.3z"/>
		</g>
		<g>
			<path class="st0" d="M91.9,321.1c0.5,0.7,0.7,1.6,0.7,2.5c0,2.7-2.2,4.9-4.9,4.9c-0.9,0-1.8-0.3-2.5-0.7c0.9,1.4,2.4,2.3,4.1,2.3
				c2.7,0,4.9-2.2,4.9-4.9C94.3,323.5,93.3,322,91.9,321.1z"/>
			<circle class="st1" cx="88.6" cy="324.5" r="4.9"/>
			<path class="st0" d="M91.1,320.3c0.5,0.7,0.7,1.6,0.7,2.5c0,2.7-2.2,4.9-4.9,4.9c-0.9,0-1.8-0.3-2.5-0.7c0.9,1.4,2.4,2.3,4.1,2.3
				c2.7,0,4.9-2.2,4.9-4.9C93.4,322.7,92.5,321.2,91.1,320.3z"/>
		</g>
		<g>
			<path class="st0" d="M105.7,321.1c0.5,0.7,0.7,1.6,0.7,2.5c0,2.7-2.2,4.9-4.9,4.9c-0.9,0-1.8-0.3-2.5-0.7
				c0.9,1.4,2.4,2.3,4.1,2.3c2.7,0,4.9-2.2,4.9-4.9C108.1,323.5,107.1,322,105.7,321.1z"/>
			<circle class="st1" cx="102.4" cy="324.5" r="4.9"/>
			<path class="st0" d="M104.9,320.3c0.5,0.7,0.7,1.6,0.7,2.5c0,2.7-2.2,4.9-4.9,4.9c-0.9,0-1.8-0.3-2.5-0.7
				c0.9,1.4,2.4,2.3,4.1,2.3c2.7,0,4.9-2.2,4.9-4.9C107.2,322.7,106.3,321.2,104.9,320.3z"/>
		</g>
		<g>
			<path class="st0" d="M119.5,321.1c0.5,0.7,0.7,1.6,0.7,2.5c0,2.7-2.2,4.9-4.9,4.9c-0.9,0-1.8-0.3-2.5-0.7
				c0.9,1.4,2.4,2.3,4.1,2.3c2.7,0,4.9-2.2,4.9-4.9C121.9,323.5,120.9,322,119.5,321.1z"/>
			<circle class="st1" cx="116.2" cy="324.5" r="4.9"/>
			<path class="st0" d="M118.7,320.3c0.5,0.7,0.7,1.6,0.7,2.5c0,2.7-2.2,4.9-4.9,4.9c-0.9,0-1.8-0.3-2.5-0.7
				c0.9,1.4,2.4,2.3,4.1,2.3c2.7,0,4.9-2.2,4.9-4.9C121,322.7,120.1,321.2,118.7,320.3z"/>
		</g>
		<g>
			<path class="st0" d="M133.4,321.1c0.5,0.7,0.7,1.6,0.7,2.5c0,2.7-2.2,4.9-4.9,4.9c-0.9,0-1.8-0.3-2.5-0.7
				c0.9,1.4,2.4,2.3,4.1,2.3c2.7,0,4.9-2.2,4.9-4.9C135.7,323.5,134.7,322,133.4,321.1z"/>
			<circle class="st1" cx="130" cy="324.5" r="4.9"/>
			<path class="st0" d="M132.5,320.3c0.5,0.7,0.7,1.6,0.7,2.5c0,2.7-2.2,4.9-4.9,4.9c-0.9,0-1.8-0.3-2.5-0.7
				c0.9,1.4,2.4,2.3,4.1,2.3c2.7,0,4.9-2.2,4.9-4.9C134.9,322.7,133.9,321.2,132.5,320.3z"/>
		</g>
		<g>
			<path class="st0" d="M147.2,321.1c0.5,0.7,0.7,1.6,0.7,2.5c0,2.7-2.2,4.9-4.9,4.9c-0.9,0-1.8-0.3-2.5-0.7
				c0.9,1.4,2.4,2.3,4.1,2.3c2.7,0,4.9-2.2,4.9-4.9C149.5,323.5,148.6,322,147.2,321.1z"/>
			<circle class="st1" cx="143.8" cy="324.5" r="4.9"/>
			<path class="st0" d="M146.3,320.3c0.5,0.7,0.7,1.6,0.7,2.5c0,2.7-2.2,4.9-4.9,4.9c-0.9,0-1.8-0.3-2.5-0.7
				c0.9,1.4,2.4,2.3,4.1,2.3c2.7,0,4.9-2.2,4.9-4.9C148.7,322.7,147.7,321.2,146.3,320.3z"/>
		</g>
		<g>
			<path class="st0" d="M161,321.1c0.5,0.7,0.7,1.6,0.7,2.5c0,2.7-2.2,4.9-4.9,4.9c-0.9,0-1.8-0.3-2.5-0.7c0.9,1.4,2.4,2.3,4.1,2.3
				c2.7,0,4.9-2.2,4.9-4.9C163.3,323.5,162.4,322,161,321.1z"/>
			<circle class="st1" cx="157.6" cy="324.5" r="4.9"/>
			<path class="st0" d="M160.1,320.3c0.5,0.7,0.7,1.6,0.7,2.5c0,2.7-2.2,4.9-4.9,4.9c-0.9,0-1.8-0.3-2.5-0.7
				c0.9,1.4,2.4,2.3,4.1,2.3c2.7,0,4.9-2.2,4.9-4.9C162.5,322.7,161.5,321.2,160.1,320.3z"/>
		</g>
	</g>
	<g>
		<path class="st0" d="M45.2,81.7c0.9,1.5,1.5,3.3,1.5,5.2c0,5.5-4.5,10-10,10c-1.9,0-3.7-0.5-5.2-1.5c1.8,2.9,4.9,4.8,8.5,4.8
			c5.5,0,10-4.5,10-10C50,86.6,48.1,83.4,45.2,81.7z"/>
		<circle class="st1" cx="38.3" cy="88.5" r="10"/>
		<path class="st0" d="M43.5,80c0.9,1.5,1.5,3.3,1.5,5.2c0,5.5-4.5,10-10,10c-1.9,0-3.7-0.5-5.2-1.5c1.8,2.9,4.9,4.8,8.5,4.8
			c5.5,0,10-4.5,10-10C48.3,84.9,46.4,81.7,43.5,80z"/>
	</g>
	<g>
		<path class="st0" d="M73.7,81.7c0.9,1.5,1.5,3.3,1.5,5.2c0,5.5-4.5,10-10,10c-1.9,0-3.7-0.5-5.2-1.5c1.8,2.9,4.9,4.8,8.5,4.8
			c5.5,0,10-4.5,10-10C78.5,86.6,76.6,83.4,73.7,81.7z"/>
		<circle class="st1" cx="66.8" cy="88.5" r="10"/>
		<path class="st0" d="M72,80c0.9,1.5,1.5,3.3,1.5,5.2c0,5.5-4.5,10-10,10c-1.9,0-3.7-0.5-5.2-1.5c1.8,2.9,4.9,4.8,8.5,4.8
			c5.5,0,10-4.5,10-10C76.8,84.9,74.9,81.7,72,80z"/>
	</g>
	<g>
		<path class="st0" d="M102.2,81.7c0.9,1.5,1.5,3.3,1.5,5.2c0,5.5-4.5,10-10,10c-1.9,0-3.7-0.5-5.2-1.5c1.8,2.9,4.9,4.8,8.5,4.8
			c5.5,0,10-4.5,10-10C107,86.6,105.1,83.4,102.2,81.7z"/>
		<circle class="st1" cx="95.3" cy="88.5" r="10"/>
		<path class="st0" d="M100.5,80c0.9,1.5,1.5,3.3,1.5,5.2c0,5.5-4.5,10-10,10c-1.9,0-3.7-0.5-5.2-1.5c1.8,2.9,4.9,4.8,8.5,4.8
			c5.5,0,10-4.5,10-10C105.3,84.9,103.4,81.7,100.5,80z"/>
	</g>
	<g>
		<path class="st0" d="M130.7,81.7c0.9,1.5,1.5,3.3,1.5,5.2c0,5.5-4.5,10-10,10c-1.9,0-3.7-0.5-5.2-1.5c1.8,2.9,4.9,4.8,8.5,4.8
			c5.5,0,10-4.5,10-10C135.5,86.6,133.6,83.4,130.7,81.7z"/>
		<circle class="st1" cx="123.8" cy="88.5" r="10"/>
		<path class="st0" d="M129,80c0.9,1.5,1.5,3.3,1.5,5.2c0,5.5-4.5,10-10,10c-1.9,0-3.7-0.5-5.2-1.5c1.8,2.9,4.9,4.8,8.5,4.8
			c5.5,0,10-4.5,10-10C133.8,84.9,131.9,81.7,129,80z"/>
	</g>
	<g>
		<path class="st0" d="M159.2,81.7c0.9,1.5,1.5,3.3,1.5,5.2c0,5.5-4.5,10-10,10c-1.9,0-3.7-0.5-5.2-1.5c1.8,2.9,4.9,4.8,8.5,4.8
			c5.5,0,10-4.5,10-10C164,86.6,162.1,83.4,159.2,81.7z"/>
		<circle class="st1" cx="152.3" cy="88.5" r="10"/>
		<path class="st0" d="M157.6,80c0.9,1.5,1.5,3.3,1.5,5.2c0,5.5-4.5,10-10,10c-1.9,0-3.7-0.5-5.2-1.5c1.8,2.9,4.9,4.8,8.5,4.8
			c5.5,0,10-4.5,10-10C162.3,84.9,160.4,81.7,157.6,80z"/>
	</g>
	<rect x="257" y="205.8" class="st0" width="123.6" height="123.6"/>
	<rect x="257" y="70.4" class="st0" width="123.6" height="13.7"/>
	<rect x="253.9" y="202.7" class="st2" width="123.5" height="123.5"/>
	<rect x="253.9" y="67.9" class="st3" width="123.5" height="12.5"/>
	<rect x="20.8" y="14.9" class="st4" width="148.3" height="21.2"/>
	<g class="st5">
		<path class="st1" d="M32.5,29.5c0.2,0.1,0.2,0.3,0.2,0.6c0,0.3-0.1,0.5-0.2,0.6c-0.1,0.1-0.4,0.2-0.6,0.2h-7.5
			c-0.3,0-0.5-0.1-0.6-0.2c-0.1-0.1-0.2-0.3-0.2-0.6c0-0.2,0.1-0.4,0.2-0.6c0.2-0.1,0.4-0.2,0.6-0.2h2.8V17.2l-2.5,1.6
			c-0.1,0.1-0.2,0.1-0.4,0.1c-0.2,0-0.4-0.1-0.6-0.3c-0.2-0.2-0.2-0.4-0.2-0.6c0-0.3,0.1-0.5,0.4-0.7l3.4-2.2
			c0.3-0.2,0.5-0.2,0.8-0.2c0.3,0,0.5,0.1,0.6,0.2c0.2,0.2,0.2,0.4,0.2,0.7v13.5h2.8C32.2,29.3,32.4,29.4,32.5,29.5z"/>
		<path class="st1" d="M37,29c-0.9-1.4-1.4-3.4-1.4-6.1c0-2.7,0.5-4.7,1.4-6.1s2.3-2.1,4.2-2.1c1.8,0,3.2,0.7,4.2,2.1
			s1.4,3.4,1.4,6.1c0,2.7-0.5,4.7-1.4,6.1s-2.3,2.1-4.2,2.1C39.3,31.1,37.9,30.4,37,29z M43.9,27.9c0.6-1.1,0.9-2.7,0.9-5
			c0-2.3-0.3-3.9-0.9-5c-0.6-1.1-1.5-1.6-2.8-1.6c-1.3,0-2.2,0.5-2.8,1.6c-0.6,1.1-0.9,2.7-0.9,5c0,2.3,0.3,3.9,0.9,5
			c0.6,1.1,1.5,1.6,2.8,1.6S43.3,29,43.9,27.9z"/>
	</g>
	<g class="st5">
		<path class="st6" d="M70.6,28.4c0.1,0.2,0.2,0.4,0.2,0.6c0,0.4-0.3,0.8-0.8,1.1c-0.5,0.3-1.1,0.5-1.7,0.7S67.1,31,66.5,31
			c-1.7,0-3.1-0.5-4.1-1.5s-1.5-2.4-1.5-4.2c0-1.1,0.2-2.1,0.7-3c0.4-0.9,1.1-1.6,1.9-2c0.8-0.5,1.7-0.7,2.7-0.7
			c1.5,0,2.6,0.5,3.5,1.4s1.3,2.2,1.3,3.8c0,0.6-0.3,0.9-0.8,0.9h-7c0.2,2.3,1.3,3.5,3.4,3.5c0.6,0,1-0.1,1.4-0.2s0.8-0.3,1.3-0.6
			c0,0,0.2-0.1,0.4-0.2c0.2-0.1,0.4-0.1,0.5-0.1C70.2,28.1,70.4,28.2,70.6,28.4z M64,22.1c-0.5,0.6-0.8,1.3-0.9,2.3h5.8
			c0-1-0.3-1.8-0.8-2.4c-0.5-0.5-1.1-0.8-2-0.8C65.2,21.3,64.5,21.6,64,22.1z"/>
		<path class="st6" d="M73.7,30.7c-0.2-0.2-0.3-0.5-0.3-0.8V16c0-0.4,0.1-0.6,0.3-0.8c0.2-0.2,0.5-0.3,0.8-0.3s0.6,0.1,0.8,0.3
			s0.3,0.5,0.3,0.8v14c0,0.4-0.1,0.6-0.3,0.8S74.8,31,74.5,31S73.9,30.9,73.7,30.7z"/>
		<path class="st6" d="M88,28.4c0.1,0.2,0.2,0.4,0.2,0.6c0,0.4-0.3,0.8-0.8,1.1c-0.5,0.3-1.1,0.5-1.7,0.7S84.5,31,83.9,31
			c-1.7,0-3.1-0.5-4.1-1.5s-1.5-2.4-1.5-4.2c0-1.1,0.2-2.1,0.7-3c0.4-0.9,1.1-1.6,1.9-2c0.8-0.5,1.7-0.7,2.7-0.7
			c1.5,0,2.6,0.5,3.5,1.4s1.3,2.2,1.3,3.8c0,0.6-0.3,0.9-0.8,0.9h-7c0.2,2.3,1.3,3.5,3.4,3.5c0.6,0,1-0.1,1.4-0.2s0.8-0.3,1.3-0.6
			c0,0,0.2-0.1,0.4-0.2c0.2-0.1,0.4-0.1,0.5-0.1C87.7,28.1,87.8,28.2,88,28.4z M81.4,22.1c-0.5,0.6-0.8,1.3-0.9,2.3h5.8
			c0-1-0.3-1.8-0.8-2.4c-0.5-0.5-1.1-0.8-2-0.8C82.6,21.3,81.9,21.6,81.4,22.1z"/>
		<path class="st6" d="M107.1,24.1V30c0,0.3-0.1,0.6-0.3,0.8c-0.2,0.2-0.5,0.3-0.8,0.3s-0.6-0.1-0.8-0.3c-0.2-0.2-0.3-0.5-0.3-0.8
			v-5.9c0-0.9-0.2-1.6-0.5-2s-0.9-0.6-1.6-0.6c-0.8,0-1.5,0.3-2,0.8c-0.5,0.6-0.7,1.3-0.7,2.3v5.3c0,0.3-0.1,0.6-0.3,0.8
			C99.6,30.9,99.3,31,99,31s-0.6-0.1-0.8-0.3c-0.2-0.2-0.3-0.5-0.3-0.8V24c0-0.9-0.2-1.6-0.5-2s-0.9-0.6-1.6-0.6
			c-0.8,0-1.5,0.3-2,0.8c-0.5,0.6-0.7,1.3-0.7,2.3v5.3c0,0.3-0.1,0.6-0.3,0.8c-0.2,0.2-0.5,0.3-0.8,0.3s-0.6-0.1-0.8-0.3
			c-0.2-0.2-0.3-0.5-0.3-0.8v-9.2c0-0.3,0.1-0.6,0.3-0.8s0.5-0.3,0.8-0.3s0.6,0.1,0.8,0.3c0.2,0.2,0.3,0.4,0.3,0.8v0.8
			c0.3-0.6,0.8-1.1,1.4-1.4s1.3-0.5,2-0.5c0.8,0,1.5,0.2,2.1,0.5s1,0.9,1.2,1.6c0.3-0.6,0.8-1.2,1.5-1.5c0.6-0.4,1.4-0.6,2.2-0.6
			C105.9,19.6,107.1,21.1,107.1,24.1z"/>
		<path class="st6" d="M119.4,28.4c0.1,0.2,0.2,0.4,0.2,0.6c0,0.4-0.3,0.8-0.8,1.1c-0.5,0.3-1.1,0.5-1.7,0.7s-1.2,0.2-1.8,0.2
			c-1.7,0-3.1-0.5-4.1-1.5s-1.5-2.4-1.5-4.2c0-1.1,0.2-2.1,0.7-3c0.4-0.9,1.1-1.6,1.9-2c0.8-0.5,1.7-0.7,2.7-0.7
			c1.5,0,2.6,0.5,3.5,1.4s1.3,2.2,1.3,3.8c0,0.6-0.3,0.9-0.8,0.9h-7c0.2,2.3,1.3,3.5,3.4,3.5c0.6,0,1-0.1,1.4-0.2s0.8-0.3,1.3-0.6
			c0,0,0.2-0.1,0.4-0.2c0.2-0.1,0.4-0.1,0.5-0.1C119.1,28.1,119.3,28.2,119.4,28.4z M112.8,22.1c-0.5,0.6-0.8,1.3-0.9,2.3h5.8
			c0-1-0.3-1.8-0.8-2.4c-0.5-0.5-1.1-0.8-2-0.8C114.1,21.3,113.4,21.6,112.8,22.1z"/>
		<path class="st6" d="M132.1,24.1V30c0,0.3-0.1,0.6-0.3,0.8c-0.2,0.2-0.5,0.3-0.8,0.3s-0.6-0.1-0.8-0.3s-0.3-0.5-0.3-0.8v-5.8
			c0-0.9-0.2-1.6-0.6-2.1c-0.4-0.4-0.9-0.7-1.7-0.7c-0.9,0-1.7,0.3-2.2,0.9c-0.6,0.6-0.8,1.3-0.8,2.3v5.3c0,0.3-0.1,0.6-0.3,0.8
			c-0.2,0.2-0.5,0.3-0.8,0.3s-0.6-0.1-0.8-0.3c-0.2-0.2-0.3-0.5-0.3-0.8v-9.2c0-0.3,0.1-0.6,0.3-0.8c0.2-0.2,0.5-0.3,0.8-0.3
			s0.6,0.1,0.8,0.3c0.2,0.2,0.3,0.5,0.3,0.8v0.9c0.4-0.7,0.9-1.2,1.5-1.5s1.4-0.5,2.2-0.5C130.8,19.6,132.1,21.1,132.1,24.1z"/>
		<path class="st6" d="M141.3,29.5c0.1,0.1,0.2,0.3,0.2,0.6c0,0.3-0.1,0.5-0.4,0.7c-0.2,0.2-0.6,0.2-1,0.2h-0.6
			c-1.2-0.1-2.1-0.5-2.7-1.1c-0.6-0.7-0.9-1.6-0.9-2.9v-5.3h-1.4c-0.7,0-1-0.3-1-0.9c0-0.3,0.1-0.5,0.3-0.6s0.4-0.2,0.7-0.2h1.4
			v-2.3c0-0.3,0.1-0.6,0.3-0.8c0.2-0.2,0.5-0.3,0.8-0.3s0.6,0.1,0.8,0.3c0.2,0.2,0.3,0.5,0.3,0.8V20h2.2c0.3,0,0.6,0.1,0.7,0.2
			c0.2,0.2,0.3,0.4,0.3,0.6c0,0.3-0.1,0.5-0.3,0.7s-0.4,0.2-0.7,0.2h-2.2v5.5c0,0.7,0.1,1.2,0.4,1.6c0.3,0.3,0.7,0.5,1.3,0.6h0.6
			C140.9,29.3,141.2,29.4,141.3,29.5z"/>
		<path class="st6" d="M145.1,30.4c-0.8-0.5-1.5-1.1-1.9-2s-0.7-1.9-0.7-3c0-1.2,0.2-2.2,0.7-3c0.4-0.9,1.1-1.5,1.9-2
			c0.8-0.5,1.8-0.7,2.9-0.7s2,0.2,2.9,0.7c0.8,0.5,1.5,1.1,1.9,2s0.7,1.9,0.7,3s-0.2,2.2-0.7,3c-0.4,0.9-1.1,1.5-1.9,2
			c-0.8,0.5-1.8,0.7-2.9,0.7S145.9,30.8,145.1,30.4z M150.3,28.3c0.5-0.7,0.8-1.6,0.8-2.9s-0.3-2.2-0.8-2.9c-0.5-0.7-1.3-1-2.3-1
			s-1.8,0.3-2.3,1s-0.8,1.6-0.8,2.9s0.3,2.3,0.8,2.9c0.5,0.7,1.3,1,2.3,1S149.8,28.9,150.3,28.3z"/>
		<path class="st6" d="M156,30.1c-0.3-0.2-0.5-0.3-0.6-0.5s-0.2-0.4-0.2-0.6s0.1-0.4,0.2-0.6c0.1-0.2,0.3-0.2,0.5-0.2
			s0.5,0.1,0.9,0.4c0.5,0.2,0.9,0.4,1.3,0.6s1,0.2,1.6,0.2c0.7,0,1.3-0.1,1.7-0.4s0.6-0.6,0.6-1.1c0-0.3-0.1-0.5-0.2-0.7
			s-0.4-0.3-0.8-0.5c-0.4-0.1-1-0.3-1.7-0.5c-1.3-0.3-2.3-0.7-2.9-1.2c-0.6-0.5-0.9-1.2-0.9-2c0-0.6,0.2-1.2,0.6-1.8
			c0.4-0.5,0.9-0.9,1.6-1.2c0.7-0.3,1.4-0.4,2.3-0.4c0.6,0,1.2,0.1,1.8,0.2s1.1,0.4,1.5,0.7c0.5,0.3,0.7,0.7,0.7,1.2
			c0,0.2-0.1,0.4-0.2,0.6c-0.1,0.2-0.3,0.2-0.5,0.2c-0.1,0-0.3,0-0.4-0.1c-0.1-0.1-0.3-0.2-0.5-0.3c-0.4-0.2-0.8-0.4-1.1-0.6
			c-0.4-0.1-0.8-0.2-1.3-0.2c-0.6,0-1.1,0.1-1.5,0.4s-0.6,0.6-0.6,1.1c0,0.4,0.2,0.8,0.5,1s1,0.5,2,0.7s1.8,0.5,2.4,0.7
			c0.6,0.3,1,0.6,1.2,1s0.4,0.9,0.4,1.5c0,1-0.4,1.8-1.2,2.4s-1.9,0.9-3.3,0.9C158.2,31.1,157,30.7,156,30.1z"/>
	</g>
	<rect x="254.2" y="14.9" class="st4" width="122" height="21.2"/>
	<g class="st5">
		<path class="st3" d="M265.9,29.5c0.2,0.1,0.2,0.3,0.2,0.6c0,0.3-0.1,0.5-0.2,0.6c-0.1,0.1-0.4,0.2-0.6,0.2h-7.5
			c-0.3,0-0.5-0.1-0.6-0.2c-0.1-0.1-0.2-0.3-0.2-0.6c0-0.2,0.1-0.4,0.2-0.6c0.2-0.1,0.4-0.2,0.6-0.2h2.8V17.2l-2.5,1.6
			c-0.1,0.1-0.2,0.1-0.4,0.1c-0.2,0-0.4-0.1-0.6-0.3c-0.2-0.2-0.2-0.4-0.2-0.6c0-0.3,0.1-0.5,0.4-0.7l3.4-2.2
			c0.3-0.2,0.5-0.2,0.8-0.2c0.3,0,0.5,0.1,0.6,0.2c0.2,0.2,0.2,0.4,0.2,0.7v13.5h2.8C265.5,29.3,265.8,29.4,265.9,29.5z"/>
	</g>
	<g class="st5">
		<path class="st6" d="M285.2,15.2c0.2,0.2,0.3,0.5,0.3,0.8v14c0,0.3-0.1,0.6-0.3,0.8c-0.2,0.2-0.5,0.3-0.8,0.3s-0.6-0.1-0.8-0.3
			c-0.2-0.2-0.3-0.5-0.3-0.8v-1c-0.3,0.7-0.8,1.2-1.4,1.5c-0.6,0.4-1.4,0.5-2.2,0.5c-0.9,0-1.8-0.2-2.5-0.7s-1.3-1.2-1.7-2
			c-0.4-0.9-0.6-1.9-0.6-3s0.2-2.1,0.6-3s1-1.5,1.7-2s1.6-0.7,2.6-0.7c0.8,0,1.6,0.2,2.2,0.5c0.6,0.4,1.1,0.9,1.4,1.5v-5.7
			c0-0.3,0.1-0.6,0.3-0.8c0.2-0.2,0.5-0.3,0.8-0.3C284.7,14.9,284.9,15,285.2,15.2z M282.4,28.2c0.5-0.7,0.8-1.6,0.8-2.9
			s-0.3-2.2-0.8-2.9c-0.5-0.7-1.3-1-2.3-1s-1.8,0.3-2.3,1c-0.6,0.7-0.8,1.6-0.8,2.9c0,1.2,0.3,2.2,0.8,2.9c0.6,0.7,1.3,1.1,2.3,1.1
			C281.1,29.3,281.9,28.9,282.4,28.2z"/>
		<path class="st6" d="M297.8,28.4c0.1,0.2,0.2,0.4,0.2,0.6c0,0.4-0.3,0.8-0.8,1.1c-0.5,0.3-1.1,0.5-1.7,0.7s-1.2,0.2-1.8,0.2
			c-1.7,0-3.1-0.5-4.1-1.5s-1.5-2.4-1.5-4.2c0-1.1,0.2-2.1,0.7-3c0.4-0.9,1.1-1.6,1.9-2c0.8-0.5,1.7-0.7,2.7-0.7
			c1.5,0,2.6,0.5,3.5,1.4s1.3,2.2,1.3,3.8c0,0.6-0.3,0.9-0.8,0.9h-7c0.2,2.3,1.3,3.5,3.4,3.5c0.6,0,1-0.1,1.4-0.2
			c0.4-0.2,0.8-0.3,1.3-0.6c0,0,0.2-0.1,0.4-0.2s0.4-0.1,0.5-0.1C297.5,28.1,297.7,28.2,297.8,28.4z M291.2,22.1
			c-0.5,0.6-0.8,1.3-0.9,2.3h5.8c0-1-0.3-1.8-0.8-2.4c-0.5-0.5-1.1-0.8-2-0.8C292.5,21.3,291.8,21.6,291.2,22.1z"/>
		<path class="st6" d="M302.5,30.4c-0.8-0.5-1.4-1.1-1.9-2s-0.7-1.9-0.7-3s0.2-2.2,0.7-3c0.5-0.9,1.1-1.6,1.9-2
			c0.8-0.5,1.8-0.7,2.8-0.7c0.6,0,1.1,0.1,1.7,0.2c0.6,0.2,1.1,0.4,1.5,0.7c0.5,0.3,0.7,0.7,0.7,1.2c0,0.3-0.1,0.5-0.2,0.6
			c-0.1,0.2-0.3,0.3-0.5,0.3c-0.1,0-0.3,0-0.4-0.1s-0.3-0.2-0.5-0.3c-0.4-0.2-0.7-0.4-1.1-0.6c-0.3-0.1-0.7-0.2-1.2-0.2
			c-1,0-1.8,0.3-2.4,1s-0.8,1.7-0.8,2.9c0,1.2,0.3,2.2,0.8,2.9c0.6,0.7,1.3,1,2.4,1c0.5,0,0.9-0.1,1.2-0.2c0.3-0.1,0.7-0.3,1.1-0.5
			c0.2-0.1,0.3-0.2,0.5-0.3s0.3-0.1,0.5-0.1s0.4,0.1,0.5,0.3c0.1,0.2,0.2,0.4,0.2,0.6s-0.1,0.4-0.2,0.6s-0.3,0.3-0.6,0.5
			c-0.5,0.3-1,0.5-1.6,0.7s-1.2,0.2-1.8,0.2C304.3,31.1,303.3,30.8,302.5,30.4z"/>
		<path class="st6" d="M320.7,28.4c0.1,0.2,0.2,0.4,0.2,0.6c0,0.4-0.3,0.8-0.8,1.1c-0.5,0.3-1.1,0.5-1.7,0.7s-1.2,0.2-1.8,0.2
			c-1.7,0-3.1-0.5-4.1-1.5s-1.5-2.4-1.5-4.2c0-1.1,0.2-2.1,0.7-3c0.4-0.9,1.1-1.6,1.9-2c0.8-0.5,1.7-0.7,2.7-0.7
			c1.5,0,2.6,0.5,3.5,1.4s1.3,2.2,1.3,3.8c0,0.6-0.3,0.9-0.8,0.9h-7c0.2,2.3,1.3,3.5,3.4,3.5c0.6,0,1-0.1,1.4-0.2
			c0.4-0.2,0.8-0.3,1.3-0.6c0,0,0.2-0.1,0.4-0.2c0.2-0.1,0.4-0.1,0.5-0.1C320.4,28.1,320.5,28.2,320.7,28.4z M314.1,22.1
			c-0.5,0.6-0.8,1.3-0.9,2.3h5.8c0-1-0.3-1.8-0.8-2.4s-1.1-0.8-2-0.8C315.3,21.3,314.6,21.6,314.1,22.1z"/>
		<path class="st6" d="M333.4,24.1V30c0,0.3-0.1,0.6-0.3,0.8c-0.2,0.2-0.5,0.3-0.8,0.3s-0.6-0.1-0.8-0.3s-0.3-0.5-0.3-0.8v-5.8
			c0-0.9-0.2-1.6-0.6-2.1s-0.9-0.7-1.7-0.7c-0.9,0-1.7,0.3-2.2,0.9s-0.8,1.3-0.8,2.3v5.3c0,0.3-0.1,0.6-0.3,0.8s-0.6,0.3-1,0.3
			c-0.3,0-0.6-0.1-0.8-0.3c-0.2-0.2-0.3-0.5-0.3-0.8v-9.2c0-0.3,0.1-0.6,0.3-0.8c0.2-0.2,0.5-0.3,0.8-0.3s0.6,0.1,0.8,0.3
			s0.3,0.5,0.3,0.8v0.9c0.4-0.7,0.9-1.2,1.5-1.5s1.4-0.5,2.2-0.5C332,19.6,333.4,21.1,333.4,24.1z"/>
		<path class="st6" d="M344.4,20.7c0.7,0.7,1.1,1.9,1.1,3.4V30c0,0.3-0.1,0.6-0.3,0.8c-0.2,0.2-0.5,0.3-0.8,0.3s-0.6-0.1-0.8-0.3
			c-0.2-0.2-0.3-0.5-0.3-0.8v-0.8c-0.3,0.6-0.7,1.1-1.3,1.5s-1.2,0.5-2,0.5c-0.7,0-1.4-0.1-2-0.4s-1.1-0.7-1.4-1.2s-0.5-1.1-0.5-1.8
			c0-0.8,0.2-1.4,0.6-1.9s1.1-0.8,2.1-1s2.3-0.3,3.9-0.3h0.5v-0.7c0-0.8-0.2-1.5-0.5-1.8c-0.3-0.4-0.9-0.6-1.7-0.6
			c-0.5,0-1,0.1-1.5,0.2s-1,0.3-1.5,0.6c-0.4,0.2-0.7,0.3-0.9,0.3c-0.2,0-0.4-0.1-0.6-0.2c-0.1-0.2-0.2-0.4-0.2-0.6s0.1-0.4,0.2-0.6
			s0.3-0.3,0.6-0.5c0.5-0.3,1.1-0.5,1.9-0.7s1.4-0.3,2.1-0.3C342.6,19.6,343.7,20,344.4,20.7z M342.4,28.5c0.5-0.6,0.8-1.3,0.8-2.2
			v-0.6h-0.4c-1.2,0-2.1,0.1-2.7,0.2s-1.1,0.3-1.4,0.5s-0.4,0.6-0.4,1.1s0.2,1,0.6,1.3s0.9,0.5,1.5,0.5
			C341.2,29.4,341.9,29.1,342.4,28.5z"/>
	</g>
	<g>
		<path class="st6" d="M215.3,21.5v2.3h-19.1v-2.3H215.3z M215.3,27.2v2.3h-19.1v-2.3H215.3z"/>
	</g>
	<rect x="20.9" y="160" class="st4" width="159.4" height="21.2"/>
	<g class="st5">
		<path class="st1" d="M32.7,174.6c0.2,0.1,0.2,0.3,0.2,0.6c0,0.3-0.1,0.5-0.2,0.6c-0.1,0.1-0.4,0.2-0.6,0.2h-7.5
			c-0.3,0-0.5-0.1-0.6-0.2c-0.1-0.1-0.2-0.3-0.2-0.6c0-0.2,0.1-0.4,0.2-0.6c0.2-0.1,0.4-0.2,0.6-0.2h2.8v-12.1l-2.5,1.6
			c-0.1,0.1-0.2,0.1-0.4,0.1c-0.2,0-0.4-0.1-0.6-0.3c-0.2-0.2-0.2-0.4-0.2-0.6c0-0.3,0.1-0.5,0.4-0.7l3.4-2.2
			c0.3-0.2,0.5-0.2,0.8-0.2c0.3,0,0.5,0.1,0.6,0.2c0.2,0.2,0.2,0.4,0.2,0.7v13.5H32C32.3,174.4,32.5,174.5,32.7,174.6z"/>
		<path class="st1" d="M37.1,174.1c-0.9-1.4-1.4-3.4-1.4-6.1c0-2.7,0.5-4.7,1.4-6.1s2.3-2.1,4.2-2.1c1.8,0,3.2,0.7,4.2,2.1
			s1.4,3.4,1.4,6.1c0,2.7-0.5,4.7-1.4,6.1s-2.3,2.1-4.2,2.1C39.4,176.2,38,175.5,37.1,174.1z M44,173c0.6-1.1,0.9-2.7,0.9-5
			c0-2.3-0.3-3.9-0.9-5c-0.6-1.1-1.5-1.6-2.8-1.6c-1.3,0-2.2,0.5-2.8,1.6c-0.6,1.1-0.9,2.7-0.9,5c0,2.3,0.3,3.9,0.9,5
			c0.6,1.1,1.5,1.6,2.8,1.6S43.4,174.1,44,173z"/>
		<path class="st1" d="M50.6,174.1c-0.9-1.4-1.4-3.4-1.4-6.1c0-2.7,0.5-4.7,1.4-6.1s2.3-2.1,4.2-2.1c1.8,0,3.2,0.7,4.2,2.1
			s1.4,3.4,1.4,6.1c0,2.7-0.5,4.7-1.4,6.1s-2.3,2.1-4.2,2.1C53,176.2,51.6,175.5,50.6,174.1z M57.6,173c0.6-1.1,0.9-2.7,0.9-5
			c0-2.3-0.3-3.9-0.9-5c-0.6-1.1-1.5-1.6-2.8-1.6c-1.3,0-2.2,0.5-2.8,1.6c-0.6,1.1-0.9,2.7-0.9,5c0,2.3,0.3,3.9,0.9,5
			c0.6,1.1,1.5,1.6,2.8,1.6S57,174.1,57.6,173z"/>
	</g>
	<g class="st5">
		<path class="st6" d="M78.3,173.5c0.1,0.2,0.2,0.4,0.2,0.6c0,0.4-0.3,0.8-0.8,1.1s-1.1,0.5-1.7,0.7s-1.2,0.2-1.8,0.2
			c-1.7,0-3.1-0.5-4.1-1.5s-1.5-2.4-1.5-4.2c0-1.1,0.2-2.1,0.7-3c0.4-0.9,1.1-1.6,1.9-2c0.8-0.5,1.7-0.7,2.7-0.7
			c1.5,0,2.6,0.5,3.5,1.4s1.3,2.2,1.3,3.8c0,0.6-0.3,0.9-0.8,0.9h-7c0.2,2.3,1.3,3.5,3.4,3.5c0.6,0,1-0.1,1.4-0.2
			c0.4-0.2,0.8-0.3,1.3-0.6c0,0,0.2-0.1,0.4-0.2s0.4-0.1,0.5-0.1S78.2,173.3,78.3,173.5z M71.8,167.2c-0.5,0.6-0.8,1.3-0.9,2.3h5.8
			c0-1-0.3-1.8-0.8-2.4c-0.5-0.5-1.1-0.8-2-0.8C73,166.4,72.3,166.7,71.8,167.2z"/>
		<path class="st6" d="M81.4,175.8c-0.2-0.2-0.3-0.5-0.3-0.8v-14c0-0.4,0.1-0.6,0.3-0.8c0.2-0.2,0.5-0.3,0.8-0.3s0.6,0.1,0.8,0.3
			s0.3,0.5,0.3,0.8v14c0,0.4-0.1,0.6-0.3,0.8s-0.5,0.3-0.8,0.3S81.7,176,81.4,175.8z"/>
		<path class="st6" d="M95.7,173.5c0.1,0.2,0.2,0.4,0.2,0.6c0,0.4-0.3,0.8-0.8,1.1s-1.1,0.5-1.7,0.7s-1.2,0.2-1.8,0.2
			c-1.7,0-3.1-0.5-4.1-1.5s-1.5-2.4-1.5-4.2c0-1.1,0.2-2.1,0.7-3c0.4-0.9,1.1-1.6,1.9-2c0.8-0.5,1.7-0.7,2.7-0.7
			c1.5,0,2.6,0.5,3.5,1.4s1.3,2.2,1.3,3.8c0,0.6-0.3,0.9-0.8,0.9h-7c0.2,2.3,1.3,3.5,3.4,3.5c0.6,0,1-0.1,1.4-0.2
			c0.4-0.2,0.8-0.3,1.3-0.6c0,0,0.2-0.1,0.4-0.2s0.4-0.1,0.5-0.1C95.4,173.2,95.6,173.3,95.7,173.5z M89.2,167.2
			c-0.5,0.6-0.8,1.3-0.9,2.3h5.8c0-1-0.3-1.8-0.8-2.4c-0.5-0.5-1.1-0.8-2-0.8C90.4,166.4,89.7,166.7,89.2,167.2z"/>
		<path class="st6" d="M114.9,169.2v5.9c0,0.3-0.1,0.6-0.3,0.8c-0.2,0.2-0.5,0.3-0.8,0.3s-0.6-0.1-0.8-0.3c-0.2-0.2-0.3-0.5-0.3-0.8
			v-5.9c0-0.9-0.2-1.6-0.5-2s-0.9-0.6-1.6-0.6c-0.8,0-1.5,0.3-2,0.8c-0.5,0.6-0.7,1.3-0.7,2.3v5.3c0,0.3-0.1,0.6-0.3,0.8
			c-0.2,0.2-0.5,0.3-0.8,0.3s-0.6-0.1-0.8-0.3c-0.2-0.2-0.3-0.5-0.3-0.8v-5.9c0-0.9-0.2-1.6-0.5-2s-0.9-0.6-1.6-0.6
			c-0.8,0-1.5,0.3-2,0.8c-0.5,0.6-0.7,1.3-0.7,2.3v5.3c0,0.3-0.1,0.6-0.3,0.8c-0.2,0.2-0.5,0.3-0.8,0.3s-0.6-0.1-0.8-0.3
			c-0.2-0.2-0.3-0.5-0.3-0.8v-9.2c0-0.3,0.1-0.6,0.3-0.8c0.2-0.2,0.5-0.3,0.8-0.3s0.6,0.1,0.8,0.3c0.2,0.2,0.3,0.4,0.3,0.8v0.8
			c0.3-0.6,0.8-1.1,1.4-1.4c0.6-0.3,1.3-0.5,2-0.5c0.8,0,1.5,0.2,2.1,0.5s1,0.9,1.2,1.6c0.3-0.6,0.8-1.2,1.5-1.5
			c0.6-0.4,1.4-0.6,2.2-0.6C113.6,164.7,114.9,166.2,114.9,169.2z"/>
		<path class="st6" d="M127.1,173.5c0.1,0.2,0.2,0.4,0.2,0.6c0,0.4-0.3,0.8-0.8,1.1s-1.1,0.5-1.7,0.7s-1.2,0.2-1.8,0.2
			c-1.7,0-3.1-0.5-4.1-1.5s-1.5-2.4-1.5-4.2c0-1.1,0.2-2.1,0.7-3c0.4-0.9,1.1-1.6,1.9-2c0.8-0.5,1.7-0.7,2.7-0.7
			c1.5,0,2.6,0.5,3.5,1.4s1.3,2.2,1.3,3.8c0,0.6-0.3,0.9-0.8,0.9h-7c0.2,2.3,1.3,3.5,3.4,3.5c0.6,0,1-0.1,1.4-0.2
			c0.4-0.2,0.8-0.3,1.3-0.6c0,0,0.2-0.1,0.4-0.2c0.2-0.1,0.4-0.1,0.5-0.1C126.8,173.2,127,173.3,127.1,173.5z M120.6,167.2
			c-0.5,0.6-0.8,1.3-0.9,2.3h5.8c0-1-0.3-1.8-0.8-2.4s-1.1-0.8-2-0.8C121.8,166.4,121.1,166.7,120.6,167.2z"/>
		<path class="st6" d="M139.8,169.2v5.9c0,0.3-0.1,0.6-0.3,0.8s-0.5,0.3-0.8,0.3s-0.6-0.1-0.8-0.3s-0.3-0.5-0.3-0.8v-5.8
			c0-0.9-0.2-1.6-0.6-2.1s-0.9-0.7-1.7-0.7c-0.9,0-1.7,0.3-2.2,0.9s-0.8,1.3-0.8,2.3v5.3c0,0.3-0.1,0.6-0.3,0.8s-0.5,0.3-0.8,0.3
			s-0.6-0.1-0.8-0.3s-0.3-0.5-0.3-0.8v-9.2c0-0.3,0.1-0.6,0.3-0.8s0.5-0.3,0.8-0.3s0.6,0.1,0.8,0.3s0.3,0.5,0.3,0.8v0.9
			c0.4-0.7,0.9-1.2,1.5-1.5s1.4-0.5,2.2-0.5C138.5,164.7,139.8,166.2,139.8,169.2z"/>
		<path class="st6" d="M149.1,174.6c0.1,0.1,0.2,0.3,0.2,0.6s-0.1,0.5-0.4,0.7s-0.6,0.2-1,0.2h-0.6c-1.2-0.1-2.1-0.5-2.7-1.1
			c-0.6-0.7-0.9-1.6-0.9-2.9v-5.3h-1.4c-0.7,0-1-0.3-1-0.9c0-0.3,0.1-0.5,0.3-0.6c0.2-0.2,0.4-0.2,0.7-0.2h1.4v-2.3
			c0-0.3,0.1-0.6,0.3-0.8s0.5-0.3,0.8-0.3s0.6,0.1,0.8,0.3s0.3,0.5,0.3,0.8v2.3h2.2c0.3,0,0.6,0.1,0.7,0.2s0.3,0.4,0.3,0.6
			c0,0.3-0.1,0.5-0.3,0.7s-0.4,0.2-0.7,0.2h-2.2v5.5c0,0.7,0.1,1.2,0.4,1.6s0.7,0.5,1.3,0.6h0.6
			C148.7,174.4,148.9,174.5,149.1,174.6z"/>
		<path class="st6" d="M152.9,175.5c-0.8-0.5-1.5-1.1-1.9-2s-0.7-1.9-0.7-3c0-1.2,0.2-2.2,0.7-3c0.4-0.9,1.1-1.5,1.9-2
			s1.8-0.7,2.9-0.7c1.1,0,2,0.2,2.9,0.7s1.5,1.1,1.9,2s0.7,1.9,0.7,3s-0.2,2.2-0.7,3c-0.4,0.9-1.1,1.5-1.9,2s-1.8,0.7-2.9,0.7
			C154.6,176.2,153.7,175.9,152.9,175.5z M158,173.4c0.5-0.7,0.8-1.6,0.8-2.9c0-1.3-0.3-2.2-0.8-2.9s-1.3-1-2.3-1s-1.8,0.3-2.3,1
			s-0.8,1.6-0.8,2.9c0,1.3,0.3,2.3,0.8,2.9c0.5,0.7,1.3,1,2.3,1S157.5,174,158,173.4z"/>
		<path class="st6" d="M163.7,175.2c-0.3-0.2-0.5-0.3-0.6-0.5s-0.2-0.4-0.2-0.6c0-0.2,0.1-0.4,0.2-0.6c0.1-0.2,0.3-0.2,0.5-0.2
			s0.5,0.1,0.9,0.4c0.5,0.2,0.9,0.4,1.3,0.6c0.4,0.2,1,0.2,1.6,0.2c0.7,0,1.3-0.1,1.7-0.4c0.4-0.3,0.6-0.6,0.6-1.1
			c0-0.3-0.1-0.5-0.2-0.7s-0.4-0.3-0.8-0.5c-0.4-0.1-1-0.3-1.7-0.5c-1.3-0.3-2.3-0.7-2.9-1.2c-0.6-0.5-0.9-1.2-0.9-2
			c0-0.6,0.2-1.2,0.6-1.8c0.4-0.5,0.9-0.9,1.6-1.2c0.7-0.3,1.4-0.4,2.3-0.4c0.6,0,1.2,0.1,1.8,0.2s1.1,0.4,1.5,0.7
			c0.5,0.3,0.7,0.7,0.7,1.2c0,0.2-0.1,0.4-0.2,0.6c-0.1,0.2-0.3,0.2-0.5,0.2c-0.1,0-0.3,0-0.4-0.1c-0.1-0.1-0.3-0.2-0.5-0.3
			c-0.4-0.2-0.8-0.4-1.1-0.6c-0.4-0.1-0.8-0.2-1.3-0.2c-0.6,0-1.1,0.1-1.5,0.4c-0.4,0.3-0.6,0.6-0.6,1.1c0,0.4,0.2,0.8,0.5,1
			c0.4,0.2,1,0.5,2,0.7s1.8,0.5,2.4,0.7c0.6,0.3,1,0.6,1.2,1s0.4,0.9,0.4,1.5c0,1-0.4,1.8-1.2,2.4c-0.8,0.6-1.9,0.9-3.3,0.9
			C166,176.2,164.7,175.8,163.7,175.2z"/>
	</g>
	<rect x="257" y="160.6" class="st4" width="120.9" height="21.3"/>
	<g class="st5">
		<path class="st2" d="M268.7,175.3c0.2,0.1,0.2,0.3,0.2,0.6c0,0.3-0.1,0.5-0.2,0.6c-0.1,0.1-0.4,0.2-0.6,0.2h-7.5
			c-0.3,0-0.5-0.1-0.6-0.2c-0.1-0.1-0.2-0.3-0.2-0.6c0-0.2,0.1-0.4,0.2-0.6s0.4-0.2,0.6-0.2h2.8V163l-2.5,1.6
			c-0.1,0.1-0.2,0.1-0.4,0.1c-0.2,0-0.4-0.1-0.6-0.3c-0.2-0.2-0.2-0.4-0.2-0.6c0-0.3,0.1-0.5,0.4-0.7l3.4-2.2
			c0.3-0.2,0.5-0.2,0.8-0.2c0.3,0,0.5,0.1,0.6,0.2c0.2,0.2,0.2,0.4,0.2,0.7v13.5h2.8C268.3,175.1,268.6,175.1,268.7,175.3z"/>
	</g>
	<g class="st5">
		<path class="st6" d="M280,176.1c-0.8-0.5-1.4-1.1-1.9-2s-0.7-1.9-0.7-3s0.2-2.2,0.7-3c0.5-0.9,1.1-1.6,1.9-2
			c0.8-0.5,1.8-0.7,2.8-0.7c0.6,0,1.1,0.1,1.7,0.2c0.6,0.2,1.1,0.4,1.5,0.7c0.5,0.3,0.7,0.7,0.7,1.2c0,0.3-0.1,0.5-0.2,0.6
			c-0.1,0.2-0.3,0.3-0.5,0.3c-0.1,0-0.3,0-0.4-0.1s-0.3-0.2-0.5-0.3c-0.4-0.2-0.7-0.4-1.1-0.6c-0.3-0.1-0.7-0.2-1.2-0.2
			c-1,0-1.8,0.3-2.4,1s-0.8,1.7-0.8,2.9s0.3,2.2,0.8,2.9c0.6,0.7,1.3,1,2.4,1c0.5,0,0.9-0.1,1.2-0.2c0.3-0.1,0.7-0.3,1.1-0.5
			c0.2-0.1,0.3-0.2,0.5-0.3s0.3-0.1,0.5-0.1s0.4,0.1,0.5,0.3s0.2,0.4,0.2,0.6c0,0.2-0.1,0.4-0.2,0.6c-0.1,0.2-0.3,0.3-0.6,0.5
			c-0.5,0.3-1,0.5-1.6,0.7s-1.2,0.2-1.8,0.2C281.8,176.8,280.8,176.5,280,176.1z"/>
		<path class="st6" d="M298.2,174.1c0.1,0.2,0.2,0.4,0.2,0.6c0,0.4-0.3,0.8-0.8,1.1s-1.1,0.5-1.7,0.7s-1.2,0.2-1.8,0.2
			c-1.7,0-3.1-0.5-4.1-1.5s-1.5-2.4-1.5-4.2c0-1.1,0.2-2.1,0.7-3c0.4-0.9,1.1-1.6,1.9-2c0.8-0.5,1.7-0.7,2.7-0.7
			c1.5,0,2.6,0.5,3.5,1.4s1.3,2.2,1.3,3.8c0,0.6-0.3,0.9-0.8,0.9h-7c0.2,2.3,1.3,3.5,3.4,3.5c0.6,0,1-0.1,1.4-0.2
			c0.4-0.2,0.8-0.3,1.3-0.6c0,0,0.2-0.1,0.4-0.2c0.2-0.1,0.4-0.1,0.5-0.1C297.9,173.8,298,173.9,298.2,174.1z M291.6,167.8
			c-0.5,0.6-0.8,1.3-0.9,2.3h5.8c0-1-0.3-1.8-0.8-2.4s-1.1-0.8-2-0.8C292.8,167,292.1,167.3,291.6,167.8z"/>
		<path class="st6" d="M310.9,169.8v5.9c0,0.3-0.1,0.6-0.3,0.8c-0.2,0.2-0.5,0.3-0.8,0.3s-0.6-0.1-0.8-0.3s-0.3-0.5-0.3-0.8v-5.8
			c0-0.9-0.2-1.6-0.6-2.1s-0.9-0.7-1.7-0.7c-0.9,0-1.7,0.3-2.2,0.9s-0.8,1.3-0.8,2.3v5.3c0,0.3-0.1,0.6-0.3,0.8s-0.5,0.3-0.8,0.3
			s-0.6-0.1-0.8-0.3c-0.2-0.2-0.3-0.5-0.3-0.8v-9.2c0-0.3,0.1-0.6,0.3-0.8c0.2-0.2,0.5-0.3,0.8-0.3s0.6,0.1,0.8,0.3s0.3,0.5,0.3,0.8
			v0.9c0.4-0.7,0.9-1.2,1.5-1.5s1.4-0.5,2.2-0.5C309.5,165.3,310.9,166.8,310.9,169.8z"/>
		<path class="st6" d="M320.1,175.3c0.1,0.1,0.2,0.3,0.2,0.6s-0.1,0.5-0.3,0.7c-0.2,0.2-0.6,0.2-1,0.2h-0.6
			c-1.2-0.1-2.1-0.5-2.7-1.1s-0.9-1.6-0.9-2.9v-5.3h-1.4c-0.7,0-1-0.3-1-0.9c0-0.3,0.1-0.5,0.3-0.6c0.2-0.2,0.4-0.2,0.7-0.2h1.4
			v-2.3c0-0.3,0.1-0.6,0.3-0.8c0.2-0.2,0.5-0.3,0.8-0.3s0.6,0.1,0.8,0.3c0.2,0.2,0.3,0.5,0.3,0.8v2.3h2.2c0.3,0,0.6,0.1,0.7,0.2
			c0.2,0.2,0.3,0.4,0.3,0.6c0,0.3-0.1,0.5-0.3,0.7c-0.2,0.2-0.4,0.2-0.7,0.2H317v5.5c0,0.7,0.1,1.2,0.4,1.6c0.3,0.3,0.7,0.5,1.3,0.6
			h0.6C319.7,175,319.9,175.1,320.1,175.3z"/>
		<path class="st6" d="M331.1,174.1c0.1,0.2,0.2,0.4,0.2,0.6c0,0.4-0.3,0.8-0.8,1.1s-1.1,0.5-1.7,0.7s-1.2,0.2-1.8,0.2
			c-1.7,0-3.1-0.5-4.1-1.5s-1.5-2.4-1.5-4.2c0-1.1,0.2-2.1,0.7-3c0.4-0.9,1.1-1.6,1.9-2c0.8-0.5,1.7-0.7,2.7-0.7
			c1.5,0,2.6,0.5,3.5,1.4s1.3,2.2,1.3,3.8c0,0.6-0.3,0.9-0.8,0.9h-7c0.2,2.3,1.3,3.5,3.4,3.5c0.6,0,1-0.1,1.4-0.2
			c0.4-0.2,0.8-0.3,1.3-0.6c0,0,0.2-0.1,0.4-0.2s0.4-0.1,0.5-0.1C330.8,173.8,331,173.9,331.1,174.1z M324.6,167.8
			c-0.5,0.6-0.8,1.3-0.9,2.3h5.8c0-1-0.3-1.8-0.8-2.4c-0.5-0.5-1.1-0.8-2-0.8C325.8,167,325.1,167.3,324.6,167.8z"/>
		<path class="st6" d="M343.8,169.8v5.9c0,0.3-0.1,0.6-0.3,0.8c-0.2,0.2-0.5,0.3-0.8,0.3s-0.6-0.1-0.8-0.3s-0.3-0.5-0.3-0.8v-5.8
			c0-0.9-0.2-1.6-0.6-2.1s-0.9-0.7-1.7-0.7c-0.9,0-1.7,0.3-2.2,0.9s-0.8,1.3-0.8,2.3v5.3c0,0.3-0.1,0.6-0.3,0.8s-0.5,0.3-0.8,0.3
			s-0.6-0.1-0.8-0.3c-0.2-0.2-0.3-0.5-0.3-0.8v-9.2c0-0.3,0.1-0.6,0.3-0.8c0.2-0.2,0.5-0.3,0.8-0.3s0.6,0.1,0.8,0.3s0.3,0.5,0.3,0.8
			v0.9c0.4-0.7,0.9-1.2,1.5-1.5s1.4-0.5,2.2-0.5C342.5,165.3,343.8,166.8,343.8,169.8z"/>
		<path class="st6" d="M354.8,166.4c0.7,0.7,1.1,1.9,1.1,3.4v5.9c0,0.3-0.1,0.6-0.3,0.8c-0.2,0.2-0.5,0.3-0.8,0.3s-0.6-0.1-0.8-0.3
			s-0.3-0.5-0.3-0.8v-0.8c-0.3,0.6-0.7,1.1-1.3,1.5c-0.6,0.3-1.2,0.5-2,0.5c-0.7,0-1.4-0.1-2-0.4s-1.1-0.7-1.4-1.2s-0.5-1.1-0.5-1.8
			c0-0.8,0.2-1.4,0.6-1.9s1.1-0.8,2.1-1s2.3-0.3,3.9-0.3h0.5v-0.7c0-0.8-0.2-1.5-0.5-1.8c-0.3-0.4-0.9-0.6-1.7-0.6
			c-0.5,0-1,0.1-1.5,0.2s-1,0.3-1.5,0.6c-0.4,0.2-0.7,0.3-0.9,0.3c-0.2,0-0.4-0.1-0.6-0.2c-0.1-0.2-0.2-0.4-0.2-0.6
			c0-0.2,0.1-0.4,0.2-0.6s0.3-0.3,0.6-0.5c0.5-0.3,1.1-0.5,1.9-0.7s1.4-0.3,2.1-0.3C353,165.3,354.1,165.7,354.8,166.4z
			 M352.9,174.2c0.5-0.6,0.8-1.3,0.8-2.2v-0.6h-0.4c-1.2,0-2.1,0.1-2.7,0.2c-0.6,0.1-1.1,0.3-1.4,0.5s-0.4,0.6-0.4,1.1
			s0.2,1,0.6,1.3s0.9,0.5,1.5,0.5C351.7,175.1,352.4,174.8,352.9,174.2z"/>
	</g>
	<g>
		<path class="st6" d="M215.3,167.3v2.3h-19.1v-2.3H215.3z M215.3,172.9v2.3h-19.1v-2.3H215.3z"/>
	</g>
</g>
</svg>
