<?xml version="1.0" encoding="utf-8"?>
<!-- Generator: Adobe Illustrator 22.1.0, SVG Export Plug-In . SVG Version: 6.00 Build 0)  -->
<svg version="1.1" id="Layer_1" xmlns="http://www.w3.org/2000/svg" xmlns:xlink="http://www.w3.org/1999/xlink" x="0px" y="0px"
	 viewBox="0 0 400 400" style="enable-background:new 0 0 400 400;" xml:space="preserve">
<style type="text/css">
	.st0{opacity:0.1;enable-background:new    ;}
	.st1{fill:#FC6A6C;}
	.st2{fill:none;stroke:#F9AC1B;stroke-width:0.7233;stroke-linecap:round;stroke-linejoin:round;stroke-miterlimit:10;}
	.st3{fill:none;stroke:#5AC3BD;stroke-width:0.7233;stroke-linecap:round;stroke-linejoin:round;stroke-miterlimit:10;}
	.st4{fill:none;stroke:#74556A;stroke-width:0.7233;stroke-linecap:round;stroke-linejoin:round;stroke-miterlimit:10;}
	.st5{fill:none;stroke:#D6E058;stroke-width:0.7233;stroke-linecap:round;stroke-linejoin:round;stroke-miterlimit:10;}
	.st6{fill:none;stroke:#E6DACA;stroke-width:0.7233;stroke-linecap:round;stroke-linejoin:round;stroke-miterlimit:10;}
	.st7{fill:#603820;}
</style>
<g>
	<g>
		<path class="st0" d="M67.5,36.8c7.3,2.7,15.3-1.1,18-8.4c2.6-7.3-1.1-15.3-8.4-18c-7.3-2.7-15.3,1.1-18,8.4
			C56.6,26.2,60.3,34.2,67.5,36.8z M74.1,18.9c2.7,0.9,4,3.9,3,6.5c-0.9,2.7-3.9,4-6.5,3c-2.7-0.9-4-3.9-3-6.5
			C68.5,19.3,71.4,18,74.1,18.9z"/>
		<g>
			<path class="st1" d="M83.1,26.1c2.7-7.3-1.1-15.3-8.4-18s-15.3,1.2-18,8.4c-2.7,7.3,1.1,15.3,8.4,18
				C72.4,37.1,80.4,33.3,83.1,26.1z M65.1,19.5c0.9-2.7,3.9-4,6.5-3c2.7,0.9,4,3.9,3,6.5s-3.9,4-6.5,3
				C65.6,25.2,64.2,22.2,65.1,19.5z"/>
			<line class="st2" x1="70.9" y1="11.1" x2="68.3" y2="11.9"/>
			<line class="st3" x1="74.7" y1="14.5" x2="72.5" y2="12.7"/>
			<line class="st4" x1="78.1" y1="12.4" x2="75.4" y2="11.8"/>
			<line class="st2" x1="80.1" y1="17.3" x2="77.3" y2="16.8"/>
			<line class="st5" x1="78.9" y1="21.4" x2="77.5" y2="19"/>
			<line class="st3" x1="76.3" y1="25.8" x2="77.6" y2="23.3"/>
			<line class="st4" x1="78.9" y1="28.7" x2="79" y2="26"/>
			<line class="st2" x1="74.5" y1="31.6" x2="74.6" y2="28.8"/>
			<line class="st6" x1="65.3" y1="14.8" x2="63.7" y2="12.6"/>
			<line class="st6" x1="81.7" y1="24.3" x2="81.8" y2="21.6"/>
			<line class="st3" x1="67.6" y1="29" x2="70.1" y2="30.2"/>
			<line class="st4" x1="64.8" y1="31.8" x2="67.5" y2="31.8"/>
			<line class="st2" x1="61.8" y1="27.5" x2="64.5" y2="27.5"/>
			<line class="st5" x1="62" y1="23.3" x2="63.8" y2="25.3"/>
			<line class="st3" x1="63.5" y1="18.4" x2="62.7" y2="21.1"/>
			<line class="st4" x1="60.1" y1="16.2" x2="60.7" y2="18.9"/>
			<line class="st6" x1="58.4" y1="21.1" x2="59.1" y2="23.8"/>
		</g>
		<path class="st0" d="M67.5,68.9c7.3,2.7,15.3-1.1,18-8.4c2.6-7.2-1.1-15.3-8.4-17.9c-7.3-2.7-15.3,1.1-18,8.4
			C56.6,58.3,60.3,66.3,67.5,68.9z M74.1,51c2.7,0.9,4,3.9,3,6.5c-0.9,2.7-3.9,4-6.5,3c-2.7-0.9-4-3.9-3-6.5
			C68.5,51.4,71.4,50,74.1,51z"/>
		<g>
			<path class="st7" d="M83.1,58.2c2.7-7.3-1.1-15.3-8.4-18s-15.3,1.1-18,8.4s1.1,15.3,8.4,18C72.4,69.2,80.4,65.4,83.1,58.2z
				 M65.1,51.7c0.9-2.7,3.9-4,6.5-3c2.7,0.9,4,3.9,3,6.5s-3.9,4-6.5,3C65.6,57.2,64.2,54.2,65.1,51.7z"/>
			<line class="st2" x1="70.9" y1="43.2" x2="68.3" y2="43.9"/>
			<line class="st3" x1="74.7" y1="46.6" x2="72.5" y2="44.9"/>
			<line class="st4" x1="78.1" y1="44.5" x2="75.4" y2="43.9"/>
			<line class="st2" x1="80.1" y1="49.5" x2="77.3" y2="48.8"/>
			<line class="st5" x1="78.9" y1="53.5" x2="77.5" y2="51"/>
			<line class="st3" x1="76.3" y1="57.8" x2="77.6" y2="55.4"/>
			<line class="st4" x1="78.9" y1="60.9" x2="79" y2="58.1"/>
			<line class="st2" x1="74.5" y1="63.6" x2="74.6" y2="60.9"/>
			<line class="st6" x1="65.3" y1="46.9" x2="63.7" y2="44.8"/>
			<line class="st6" x1="81.7" y1="56.5" x2="81.8" y2="53.7"/>
			<line class="st3" x1="67.6" y1="61.1" x2="70.1" y2="62.3"/>
			<line class="st4" x1="64.8" y1="63.9" x2="67.5" y2="63.8"/>
			<line class="st2" x1="61.8" y1="59.6" x2="64.5" y2="59.5"/>
			<line class="st5" x1="62" y1="55.4" x2="63.8" y2="57.4"/>
			<line class="st3" x1="63.5" y1="50.6" x2="62.7" y2="53.2"/>
			<line class="st4" x1="60.1" y1="48.3" x2="60.7" y2="50.9"/>
			<line class="st6" x1="58.4" y1="53.1" x2="59.1" y2="55.9"/>
		</g>
		<path class="st0" d="M67.5,101c7.3,2.7,15.3-1.1,18-8.4c2.7-7.3-1.1-15.3-8.4-18c-7.3-2.6-15.3,1.1-18,8.4
			C56.6,90.3,60.3,98.4,67.5,101z M74.1,83.1c2.7,0.9,4,3.9,3,6.5c-0.9,2.7-3.9,4-6.5,3c-2.7-0.9-4-3.9-3-6.5
			C68.5,83.5,71.4,82.1,74.1,83.1z"/>
		<g>
			<path class="st1" d="M83.1,90.2c2.7-7.3-1.1-15.3-8.4-18c-7.3-2.7-15.3,1.1-18,8.4s1.1,15.3,8.4,18
				C72.4,101.2,80.4,97.5,83.1,90.2z M65.1,83.7c0.9-2.7,3.9-4,6.5-3c2.7,0.9,4,3.9,3,6.5c-0.9,2.7-3.9,4-6.5,3
				C65.6,89.3,64.2,86.4,65.1,83.7z"/>
			<line class="st2" x1="70.9" y1="75.2" x2="68.3" y2="76.1"/>
			<line class="st3" x1="74.7" y1="78.6" x2="72.5" y2="76.9"/>
			<line class="st4" x1="78.1" y1="76.6" x2="75.4" y2="76"/>
			<line class="st2" x1="80.1" y1="81.5" x2="77.3" y2="80.9"/>
			<line class="st5" x1="78.9" y1="85.6" x2="77.5" y2="83.2"/>
			<line class="st3" x1="76.3" y1="90" x2="77.6" y2="87.5"/>
			<line class="st4" x1="78.9" y1="92.9" x2="79" y2="90.2"/>
			<line class="st2" x1="74.5" y1="95.8" x2="74.6" y2="93"/>
			<line class="st6" x1="65.3" y1="79" x2="63.7" y2="76.8"/>
			<line class="st6" x1="81.7" y1="88.5" x2="81.8" y2="85.7"/>
			<line class="st3" x1="67.6" y1="93.2" x2="70.1" y2="94.4"/>
			<line class="st4" x1="64.8" y1="96" x2="67.5" y2="96"/>
			<line class="st2" x1="61.8" y1="91.6" x2="64.5" y2="91.6"/>
			<line class="st5" x1="62" y1="87.5" x2="63.8" y2="89.5"/>
			<line class="st3" x1="63.5" y1="82.6" x2="62.7" y2="85.3"/>
			<line class="st4" x1="60.1" y1="80.3" x2="60.7" y2="83.1"/>
			<line class="st6" x1="58.4" y1="85.3" x2="59.1" y2="87.9"/>
		</g>
		<path class="st0" d="M67.5,133.1c7.3,2.7,15.3-1.1,18-8.4c2.7-7.3-1.1-15.3-8.4-18c-7.3-2.7-15.3,1.1-18,8.4
			C56.6,122.4,60.3,130.5,67.5,133.1z M74.1,115.2c2.7,0.9,4,3.9,3,6.5c-0.9,2.7-3.9,4-6.5,3c-2.7-0.9-4-3.9-3-6.5
			C68.5,115.6,71.4,114.2,74.1,115.2z"/>
		<g>
			<path class="st7" d="M83.1,122.3c2.7-7.3-1.1-15.3-8.4-18c-7.3-2.7-15.3,1.1-18,8.4c-2.7,7.3,1.1,15.3,8.4,18
				C72.4,133.3,80.4,129.6,83.1,122.3z M65.1,115.8c0.9-2.7,3.9-4,6.5-3c2.7,0.9,4,3.9,3,6.5c-0.9,2.7-3.9,4-6.5,3
				C65.6,121.4,64.2,118.4,65.1,115.8z"/>
			<line class="st2" x1="70.9" y1="107.4" x2="68.3" y2="108.1"/>
			<line class="st3" x1="74.7" y1="110.8" x2="72.5" y2="109"/>
			<line class="st4" x1="78.1" y1="108.7" x2="75.4" y2="108.1"/>
			<line class="st2" x1="80.1" y1="113.6" x2="77.3" y2="113"/>
			<line class="st5" x1="78.9" y1="117.7" x2="77.5" y2="115.2"/>
			<line class="st3" x1="76.3" y1="122" x2="77.6" y2="119.5"/>
			<line class="st4" x1="78.9" y1="125" x2="79" y2="122.2"/>
			<line class="st2" x1="74.5" y1="127.8" x2="74.6" y2="125.1"/>
			<line class="st6" x1="65.3" y1="111.1" x2="63.7" y2="108.8"/>
			<line class="st6" x1="81.7" y1="120.6" x2="81.8" y2="117.9"/>
			<line class="st3" x1="67.6" y1="125.2" x2="70.1" y2="126.4"/>
			<line class="st4" x1="64.8" y1="128.1" x2="67.5" y2="128"/>
			<line class="st2" x1="61.8" y1="123.8" x2="64.5" y2="123.7"/>
			<line class="st5" x1="62" y1="119.5" x2="63.8" y2="121.6"/>
			<line class="st3" x1="63.5" y1="114.6" x2="62.7" y2="117.3"/>
			<line class="st4" x1="60.1" y1="112.4" x2="60.7" y2="115.1"/>
			<line class="st6" x1="58.4" y1="117.3" x2="59.1" y2="120"/>
		</g>
		<path class="st0" d="M67.5,165.2c7.3,2.7,15.3-1.1,18-8.4c2.7-7.3-1.1-15.3-8.4-18c-7.3-2.7-15.3,1.1-18,8.4
			C56.6,154.5,60.3,162.5,67.5,165.2z M74.1,147.2c2.7,0.9,4,3.9,3,6.5c-0.9,2.7-3.9,4-6.5,3c-2.7-0.9-4-3.9-3-6.5
			C68.5,147.6,71.4,146.3,74.1,147.2z"/>
		<g>
			<path class="st1" d="M83.1,154.4c2.7-7.3-1.1-15.3-8.4-18s-15.3,1.1-18,8.4c-2.7,7.3,1.1,15.3,8.4,18
				C72.4,165.4,80.4,161.7,83.1,154.4z M65.1,147.9c0.9-2.7,3.9-4,6.5-3c2.7,0.9,4,3.9,3,6.5c-0.9,2.7-3.9,4-6.5,3
				C65.6,153.4,64.2,150.6,65.1,147.9z"/>
			<line class="st2" x1="70.9" y1="139.4" x2="68.3" y2="140.2"/>
			<line class="st3" x1="74.7" y1="142.8" x2="72.5" y2="141.1"/>
			<line class="st4" x1="78.1" y1="140.8" x2="75.4" y2="140.2"/>
			<line class="st2" x1="80.1" y1="145.7" x2="77.3" y2="145.1"/>
			<line class="st5" x1="78.9" y1="149.7" x2="77.5" y2="147.3"/>
			<line class="st3" x1="76.3" y1="154.1" x2="77.6" y2="151.7"/>
			<line class="st4" x1="78.9" y1="157.1" x2="79" y2="154.3"/>
			<line class="st2" x1="74.5" y1="159.9" x2="74.6" y2="157.2"/>
			<line class="st6" x1="65.3" y1="143.1" x2="63.7" y2="141"/>
			<line class="st6" x1="81.7" y1="152.7" x2="81.8" y2="149.9"/>
			<line class="st3" x1="67.6" y1="157.4" x2="70.1" y2="158.6"/>
			<line class="st4" x1="64.8" y1="160.1" x2="67.5" y2="160.1"/>
			<line class="st2" x1="61.8" y1="155.8" x2="64.5" y2="155.8"/>
			<line class="st5" x1="62" y1="151.6" x2="63.8" y2="153.7"/>
			<line class="st3" x1="63.5" y1="146.8" x2="62.7" y2="149.5"/>
			<line class="st4" x1="60.1" y1="144.5" x2="60.7" y2="147.2"/>
			<line class="st6" x1="58.4" y1="149.5" x2="59.1" y2="152.1"/>
		</g>
		<path class="st0" d="M101.3,36.8c7.3,2.7,15.3-1.1,18-8.4c2.7-7.3-1.1-15.3-8.4-18s-15.3,1.1-18,8.4C90.4,26.2,94,34.2,101.3,36.8
			z M107.9,18.9c2.7,0.9,4,3.9,3,6.5c-0.9,2.7-3.9,4-6.5,3c-2.7-0.9-4-3.9-3-6.5C102.3,19.3,105.2,18,107.9,18.9z"/>
		<g>
			<path class="st7" d="M116.9,26.1c2.7-7.3-1.1-15.3-8.4-18c-7.3-2.7-15.3,1.1-18,8.4c-2.7,7.3,1.1,15.3,8.4,18
				S114.2,33.3,116.9,26.1z M98.9,19.5c0.9-2.7,3.9-4,6.5-3c2.7,0.9,4,3.9,3,6.5c-0.9,2.7-3.9,4-6.5,3C99.4,25.2,98,22.2,98.9,19.5z
				"/>
			<line class="st2" x1="104.7" y1="11.1" x2="102.1" y2="11.9"/>
			<line class="st3" x1="108.5" y1="14.5" x2="106.4" y2="12.7"/>
			<line class="st4" x1="112" y1="12.4" x2="109.2" y2="11.8"/>
			<line class="st2" x1="113.8" y1="17.3" x2="111.2" y2="16.8"/>
			<line class="st5" x1="112.6" y1="21.4" x2="111.4" y2="19"/>
			<line class="st3" x1="110.1" y1="25.8" x2="111.4" y2="23.3"/>
			<line class="st4" x1="112.8" y1="28.7" x2="112.8" y2="26"/>
			<line class="st2" x1="108.4" y1="31.6" x2="108.4" y2="28.8"/>
			<line class="st6" x1="99.1" y1="14.8" x2="97.5" y2="12.6"/>
			<line class="st6" x1="115.6" y1="24.3" x2="115.6" y2="21.6"/>
			<line class="st3" x1="101.5" y1="29" x2="104" y2="30.2"/>
			<line class="st4" x1="98.6" y1="31.8" x2="101.3" y2="31.8"/>
			<line class="st2" x1="95.6" y1="27.5" x2="98.4" y2="27.5"/>
			<line class="st5" x1="95.8" y1="23.3" x2="97.6" y2="25.3"/>
			<line class="st3" x1="97.3" y1="18.4" x2="96.6" y2="21.1"/>
			<line class="st4" x1="93.9" y1="16.2" x2="94.5" y2="18.9"/>
			<line class="st6" x1="92.3" y1="21.1" x2="92.9" y2="23.8"/>
		</g>
		<path class="st0" d="M101.3,68.9c7.3,2.7,15.3-1.1,18-8.4c2.7-7.3-1.1-15.3-8.4-18s-15.3,1.1-18,8.4C90.4,58.3,94,66.3,101.3,68.9
			z M107.9,51c2.7,0.9,4,3.9,3,6.5c-0.9,2.7-3.9,4-6.5,3c-2.7-0.9-4-3.9-3-6.5C102.3,51.4,105.2,50,107.9,51z"/>
		<g>
			<path class="st1" d="M116.9,58.2c2.7-7.3-1.1-15.3-8.4-18c-7.3-2.7-15.3,1.1-18,8.4c-2.7,7.3,1.1,15.3,8.4,18
				C106.2,69.2,114.2,65.4,116.9,58.2z M98.9,51.7c0.9-2.7,3.9-4,6.5-3c2.7,0.9,4,3.9,3,6.5c-0.9,2.7-3.9,4-6.5,3
				C99.3,57.3,98,54.2,98.9,51.7z"/>
			<line class="st2" x1="104.7" y1="43.2" x2="102.1" y2="43.9"/>
			<line class="st3" x1="108.5" y1="46.6" x2="106.4" y2="44.9"/>
			<line class="st4" x1="112" y1="44.5" x2="109.2" y2="43.9"/>
			<line class="st2" x1="113.8" y1="49.5" x2="111.2" y2="48.8"/>
			<line class="st5" x1="112.6" y1="53.5" x2="111.4" y2="51"/>
			<line class="st3" x1="110.1" y1="57.8" x2="111.4" y2="55.4"/>
			<line class="st4" x1="112.8" y1="60.9" x2="112.8" y2="58.1"/>
			<line class="st2" x1="108.4" y1="63.6" x2="108.4" y2="60.9"/>
			<line class="st6" x1="99.1" y1="46.9" x2="97.5" y2="44.8"/>
			<line class="st6" x1="115.6" y1="56.5" x2="115.6" y2="53.7"/>
			<line class="st3" x1="101.5" y1="61.1" x2="104" y2="62.3"/>
			<line class="st4" x1="98.6" y1="63.9" x2="101.3" y2="63.8"/>
			<line class="st2" x1="95.6" y1="59.6" x2="98.4" y2="59.5"/>
			<line class="st5" x1="95.8" y1="55.4" x2="97.6" y2="57.4"/>
			<line class="st3" x1="97.3" y1="50.6" x2="96.6" y2="53.2"/>
			<line class="st4" x1="93.9" y1="48.3" x2="94.5" y2="50.9"/>
			<line class="st6" x1="92.3" y1="53.1" x2="92.9" y2="55.9"/>
		</g>
		<path class="st0" d="M101.3,101c7.3,2.7,15.3-1.1,18-8.4c2.7-7.3-1.1-15.3-8.4-18c-7.3-2.6-15.3,1.1-18,8.4
			C90.4,90.3,94,98.4,101.3,101z M107.9,83.1c2.7,0.9,4,3.9,3,6.5c-0.9,2.7-3.9,4-6.5,3c-2.7-0.9-4-3.9-3-6.5
			C102.3,83.5,105.2,82.1,107.9,83.1z"/>
		<g>
			<path class="st7" d="M116.9,90.2c2.7-7.3-1.1-15.3-8.4-18c-7.3-2.7-15.3,1.1-18,8.4c-2.7,7.3,1.1,15.3,8.4,18
				C106.2,101.2,114.2,97.5,116.9,90.2z M98.9,83.7c0.9-2.7,3.9-4,6.5-3c2.7,0.9,4,3.9,3,6.5c-0.9,2.7-3.9,4-6.5,3
				C99.3,89.3,98,86.4,98.9,83.7z"/>
			<line class="st2" x1="104.7" y1="75.2" x2="102.1" y2="76.1"/>
			<line class="st3" x1="108.5" y1="78.6" x2="106.4" y2="76.9"/>
			<line class="st4" x1="112" y1="76.6" x2="109.2" y2="76"/>
			<line class="st2" x1="113.8" y1="81.5" x2="111.2" y2="80.9"/>
			<line class="st5" x1="112.6" y1="85.6" x2="111.4" y2="83.2"/>
			<line class="st3" x1="110.1" y1="90" x2="111.4" y2="87.5"/>
			<line class="st4" x1="112.8" y1="92.9" x2="112.8" y2="90.2"/>
			<line class="st2" x1="108.4" y1="95.8" x2="108.4" y2="93"/>
			<line class="st6" x1="99.1" y1="79" x2="97.5" y2="76.8"/>
			<line class="st6" x1="115.6" y1="88.5" x2="115.6" y2="85.7"/>
			<line class="st3" x1="101.5" y1="93.2" x2="104" y2="94.4"/>
			<line class="st4" x1="98.6" y1="96" x2="101.3" y2="96"/>
			<line class="st2" x1="95.6" y1="91.6" x2="98.4" y2="91.6"/>
			<line class="st5" x1="95.8" y1="87.5" x2="97.6" y2="89.5"/>
			<line class="st3" x1="97.3" y1="82.6" x2="96.6" y2="85.3"/>
			<line class="st4" x1="93.9" y1="80.3" x2="94.5" y2="83.1"/>
			<line class="st6" x1="92.3" y1="85.3" x2="92.9" y2="87.9"/>
		</g>
		<path class="st0" d="M101.3,133.1c7.3,2.7,15.3-1.1,18-8.4c2.7-7.3-1.1-15.3-8.4-18c-7.3-2.7-15.3,1.1-18,8.4
			C90.4,122.4,94,130.5,101.3,133.1z M107.9,115.2c2.7,0.9,4,3.9,3,6.5c-0.9,2.7-3.9,4-6.5,3c-2.7-0.9-4-3.9-3-6.5
			C102.3,115.6,105.2,114.2,107.9,115.2z"/>
		<g>
			<path class="st1" d="M116.9,122.3c2.7-7.3-1.1-15.3-8.4-18c-7.3-2.7-15.3,1.1-18,8.4c-2.7,7.3,1.1,15.3,8.4,18
				S114.2,129.6,116.9,122.3z M98.9,115.8c0.9-2.7,3.9-4,6.5-3c2.7,0.9,4,3.9,3,6.5c-0.9,2.7-3.9,4-6.5,3
				C99.4,121.4,98,118.4,98.9,115.8z"/>
			<line class="st2" x1="104.7" y1="107.4" x2="102.1" y2="108.1"/>
			<line class="st3" x1="108.5" y1="110.8" x2="106.4" y2="109"/>
			<line class="st4" x1="112" y1="108.7" x2="109.2" y2="108.1"/>
			<line class="st2" x1="113.8" y1="113.6" x2="111.2" y2="113"/>
			<line class="st5" x1="112.6" y1="117.7" x2="111.4" y2="115.2"/>
			<line class="st3" x1="110.1" y1="122" x2="111.4" y2="119.5"/>
			<line class="st4" x1="112.8" y1="125" x2="112.8" y2="122.2"/>
			<line class="st2" x1="108.4" y1="127.8" x2="108.4" y2="125.1"/>
			<line class="st6" x1="99.1" y1="111.1" x2="97.5" y2="108.8"/>
			<line class="st6" x1="115.6" y1="120.6" x2="115.6" y2="117.9"/>
			<line class="st3" x1="101.5" y1="125.2" x2="104" y2="126.4"/>
			<line class="st4" x1="98.6" y1="128.1" x2="101.3" y2="128"/>
			<line class="st2" x1="95.6" y1="123.8" x2="98.4" y2="123.7"/>
			<line class="st5" x1="95.8" y1="119.5" x2="97.6" y2="121.6"/>
			<line class="st3" x1="97.3" y1="114.6" x2="96.6" y2="117.3"/>
			<line class="st4" x1="93.9" y1="112.4" x2="94.5" y2="115.1"/>
			<line class="st6" x1="92.3" y1="117.3" x2="92.9" y2="120"/>
		</g>
		<path class="st0" d="M101.3,165.2c7.3,2.7,15.3-1.1,18-8.4c2.7-7.3-1.1-15.3-8.4-18c-7.3-2.7-15.3,1.1-18,8.4
			C90.4,154.5,94,162.5,101.3,165.2z M107.9,147.2c2.7,0.9,4,3.9,3,6.5c-0.9,2.7-3.9,4-6.5,3c-2.7-0.9-4-3.9-3-6.5
			C102.3,147.6,105.2,146.3,107.9,147.2z"/>
		<g>
			<path class="st7" d="M116.9,154.4c2.7-7.3-1.1-15.3-8.4-18c-7.3-2.7-15.3,1.1-18,8.4c-2.7,7.3,1.1,15.3,8.4,18
				C106.2,165.4,114.2,161.7,116.9,154.4z M98.9,147.9c0.9-2.7,3.9-4,6.5-3c2.7,0.9,4,3.9,3,6.5c-0.9,2.7-3.9,4-6.5,3
				C99.4,153.4,98,150.6,98.9,147.9z"/>
			<line class="st2" x1="104.7" y1="139.4" x2="102.1" y2="140.2"/>
			<line class="st3" x1="108.5" y1="142.8" x2="106.4" y2="141.1"/>
			<line class="st4" x1="112" y1="140.8" x2="109.2" y2="140.2"/>
			<line class="st2" x1="113.8" y1="145.7" x2="111.2" y2="145.1"/>
			<line class="st5" x1="112.6" y1="149.7" x2="111.4" y2="147.3"/>
			<line class="st3" x1="110.1" y1="154.1" x2="111.4" y2="151.7"/>
			<line class="st4" x1="112.8" y1="157.1" x2="112.8" y2="154.3"/>
			<line class="st2" x1="108.4" y1="159.9" x2="108.4" y2="157.2"/>
			<line class="st6" x1="99.1" y1="143.1" x2="97.5" y2="141"/>
			<line class="st6" x1="115.6" y1="152.7" x2="115.6" y2="149.9"/>
			<line class="st3" x1="101.5" y1="157.4" x2="104" y2="158.6"/>
			<line class="st4" x1="98.6" y1="160.1" x2="101.3" y2="160.1"/>
			<line class="st2" x1="95.6" y1="155.8" x2="98.4" y2="155.8"/>
			<line class="st5" x1="95.8" y1="151.6" x2="97.6" y2="153.7"/>
			<line class="st3" x1="97.3" y1="146.8" x2="96.6" y2="149.5"/>
			<line class="st4" x1="93.9" y1="144.5" x2="94.5" y2="147.2"/>
			<line class="st6" x1="92.3" y1="149.5" x2="92.9" y2="152.1"/>
		</g>
		<path class="st0" d="M67.5,219.5c7.3,2.7,15.3-1.1,18-8.4c2.7-7.3-1.1-15.3-8.4-18c-7.3-2.7-15.3,1.1-18,8.4
			C56.6,208.8,60.3,216.9,67.5,219.5z M74.1,201.6c2.7,0.9,4,3.9,3,6.5c-0.9,2.7-3.9,4-6.5,3c-2.7-0.9-4-3.9-3-6.5
			C68.5,201.9,71.4,200.6,74.1,201.6z"/>
		<g>
			<path class="st1" d="M83.1,208.7c2.7-7.3-1.1-15.3-8.4-18s-15.3,1.1-18,8.4s1.1,15.3,8.4,18C72.4,219.8,80.4,216,83.1,208.7z
				 M65.1,202.2c0.9-2.7,3.9-4,6.5-3c2.7,0.9,4,3.9,3,6.5c-0.9,2.7-3.9,4-6.5,3C65.6,207.7,64.2,204.9,65.1,202.2z"/>
			<line class="st2" x1="70.9" y1="193.7" x2="68.3" y2="194.6"/>
			<line class="st3" x1="74.7" y1="197.1" x2="72.5" y2="195.4"/>
			<line class="st4" x1="78.1" y1="195.1" x2="75.4" y2="194.5"/>
			<line class="st2" x1="80.1" y1="200" x2="77.3" y2="199.4"/>
			<line class="st5" x1="78.9" y1="204.1" x2="77.5" y2="201.7"/>
			<line class="st3" x1="76.3" y1="208.4" x2="77.6" y2="206"/>
			<line class="st4" x1="78.9" y1="211.4" x2="79" y2="208.7"/>
			<line class="st2" x1="74.5" y1="214.3" x2="74.6" y2="211.5"/>
			<line class="st6" x1="65.3" y1="197.4" x2="63.7" y2="195.3"/>
			<line class="st6" x1="81.7" y1="207" x2="81.8" y2="204.2"/>
			<line class="st3" x1="67.6" y1="211.7" x2="70.1" y2="212.9"/>
			<line class="st4" x1="64.8" y1="214.5" x2="67.5" y2="214.5"/>
			<line class="st2" x1="61.8" y1="210.1" x2="64.5" y2="210.1"/>
			<line class="st5" x1="62" y1="205.9" x2="63.8" y2="207.9"/>
			<line class="st3" x1="63.5" y1="201.1" x2="62.7" y2="203.8"/>
			<line class="st4" x1="60.1" y1="198.8" x2="60.7" y2="201.5"/>
			<line class="st6" x1="58.4" y1="203.8" x2="59.1" y2="206.4"/>
		</g>
		<path class="st0" d="M67.5,251.6c7.3,2.7,15.3-1.1,18-8.4s-1.1-15.3-8.4-18c-7.3-2.7-15.3,1.1-18,8.4
			C56.6,240.9,60.3,248.9,67.5,251.6z M74.1,233.6c2.7,0.9,4,3.9,3,6.5c-0.9,2.7-3.9,4-6.5,3c-2.7-0.9-4-3.9-3-6.5
			C68.5,234.1,71.4,232.7,74.1,233.6z"/>
		<g>
			<path class="st7" d="M83.1,240.8c2.7-7.3-1.1-15.3-8.4-18c-7.3-2.7-15.3,1.1-18,8.4s1.1,15.3,8.4,18
				C72.4,251.8,80.4,248.1,83.1,240.8z M65.1,234.3c0.9-2.7,3.9-4,6.5-3c2.7,0.9,4,3.9,3,6.5c-0.9,2.7-3.9,4-6.5,3
				C65.6,239.9,64.2,236.9,65.1,234.3z"/>
			<line class="st2" x1="70.9" y1="225.8" x2="68.3" y2="226.6"/>
			<line class="st3" x1="74.7" y1="229.2" x2="72.5" y2="227.4"/>
			<line class="st4" x1="78.1" y1="227.2" x2="75.4" y2="226.6"/>
			<line class="st2" x1="80.1" y1="232.1" x2="77.3" y2="231.5"/>
			<line class="st5" x1="78.9" y1="236.1" x2="77.5" y2="233.7"/>
			<line class="st3" x1="76.3" y1="240.5" x2="77.6" y2="238"/>
			<line class="st4" x1="78.9" y1="243.5" x2="79" y2="240.7"/>
			<line class="st2" x1="74.5" y1="246.3" x2="74.6" y2="243.6"/>
			<line class="st6" x1="65.3" y1="229.6" x2="63.7" y2="227.3"/>
			<line class="st6" x1="81.7" y1="239" x2="81.8" y2="236.4"/>
			<line class="st3" x1="67.6" y1="243.7" x2="70.1" y2="244.9"/>
			<line class="st4" x1="64.8" y1="246.6" x2="67.5" y2="246.5"/>
			<line class="st2" x1="61.8" y1="242.2" x2="64.5" y2="242.2"/>
			<line class="st5" x1="62" y1="238" x2="63.8" y2="240.1"/>
			<line class="st3" x1="63.5" y1="233.1" x2="62.7" y2="235.8"/>
			<line class="st4" x1="60.1" y1="230.9" x2="60.7" y2="233.6"/>
			<line class="st6" x1="58.4" y1="235.8" x2="59.1" y2="238.5"/>
		</g>
		<path class="st0" d="M67.5,283.6c7.3,2.7,15.3-1.1,18-8.4s-1.1-15.3-8.4-18c-7.3-2.7-15.3,1.1-18,8.4
			C56.6,273,60.3,281,67.5,283.6z M74.1,265.7c2.7,0.9,4,3.9,3,6.5c-0.9,2.7-3.9,4-6.5,3c-2.7-0.9-4-3.9-3-6.5
			C68.5,266.1,71.4,264.7,74.1,265.7z"/>
		<g>
			<path class="st1" d="M83.1,272.9c2.7-7.3-1.1-15.3-8.4-18c-7.3-2.7-15.3,1.1-18,8.4s1.1,15.3,8.4,18
				C72.4,283.9,80.4,280.2,83.1,272.9z M65.1,266.4c0.9-2.7,3.9-4,6.5-3c2.7,0.9,4,3.9,3,6.5s-3.9,4-6.5,3
				C65.6,271.9,64.2,269.1,65.1,266.4z"/>
			<line class="st2" x1="70.9" y1="257.9" x2="68.3" y2="258.7"/>
			<line class="st3" x1="74.7" y1="261.3" x2="72.5" y2="259.6"/>
			<line class="st4" x1="78.1" y1="259.3" x2="75.4" y2="258.7"/>
			<line class="st2" x1="80.1" y1="264.2" x2="77.3" y2="263.5"/>
			<line class="st5" x1="78.9" y1="268.2" x2="77.5" y2="265.8"/>
			<line class="st3" x1="76.3" y1="272.6" x2="77.6" y2="270.2"/>
			<line class="st4" x1="78.9" y1="275.6" x2="79" y2="272.8"/>
			<line class="st2" x1="74.5" y1="278.4" x2="74.6" y2="275.7"/>
			<line class="st6" x1="65.3" y1="261.6" x2="63.7" y2="259.5"/>
			<line class="st6" x1="81.7" y1="271.2" x2="81.8" y2="268.4"/>
			<line class="st3" x1="67.6" y1="275.8" x2="70.1" y2="277"/>
			<line class="st4" x1="64.8" y1="278.6" x2="67.5" y2="278.6"/>
			<line class="st2" x1="61.8" y1="274.3" x2="64.5" y2="274.2"/>
			<line class="st5" x1="62" y1="270.1" x2="63.8" y2="272.1"/>
			<line class="st3" x1="63.5" y1="265.3" x2="62.7" y2="268"/>
			<line class="st4" x1="60.1" y1="263" x2="60.7" y2="265.7"/>
			<line class="st6" x1="58.4" y1="268" x2="59.1" y2="270.6"/>
		</g>
		<path class="st0" d="M67.5,315.7c7.3,2.7,15.3-1.1,18-8.4s-1.1-15.3-8.4-18c-7.3-2.7-15.3,1.1-18,8.4
			C56.6,305.1,60.3,313.1,67.5,315.7z M74.1,297.8c2.7,0.9,4,3.9,3,6.5c-0.9,2.7-3.9,4-6.5,3c-2.7-0.9-4-3.9-3-6.5
			C68.5,298.2,71.4,296.9,74.1,297.8z"/>
		<g>
			<path class="st7" d="M83.1,305c2.7-7.3-1.1-15.3-8.4-18s-15.3,1.1-18,8.4s1.1,15.3,8.4,18C72.4,316,80.4,312.2,83.1,305z
				 M65.1,298.4c0.9-2.7,3.9-4,6.5-3c2.7,0.9,4,3.9,3,6.5s-3.9,4-6.5,3C65.6,304,64.2,301.1,65.1,298.4z"/>
			<line class="st2" x1="70.9" y1="290" x2="68.3" y2="290.8"/>
			<line class="st3" x1="74.7" y1="293.4" x2="72.5" y2="291.6"/>
			<line class="st4" x1="78.1" y1="291.3" x2="75.4" y2="290.7"/>
			<line class="st2" x1="80.1" y1="296.2" x2="77.3" y2="295.7"/>
			<line class="st5" x1="78.9" y1="300.3" x2="77.5" y2="297.9"/>
			<line class="st3" x1="76.3" y1="304.7" x2="77.6" y2="302.2"/>
			<line class="st4" x1="78.9" y1="307.6" x2="79" y2="304.9"/>
			<line class="st2" x1="74.5" y1="310.5" x2="74.6" y2="307.7"/>
			<line class="st6" x1="65.3" y1="293.7" x2="63.7" y2="291.5"/>
			<line class="st6" x1="81.7" y1="303.2" x2="81.8" y2="300.5"/>
			<line class="st3" x1="67.6" y1="307.9" x2="70.1" y2="309.1"/>
			<line class="st4" x1="64.8" y1="310.7" x2="67.5" y2="310.7"/>
			<line class="st2" x1="61.8" y1="306.3" x2="64.5" y2="306.3"/>
			<line class="st5" x1="62" y1="302.2" x2="63.8" y2="304.2"/>
			<line class="st3" x1="63.5" y1="297.3" x2="62.7" y2="300"/>
			<line class="st4" x1="60.1" y1="295.1" x2="60.7" y2="297.8"/>
			<line class="st6" x1="58.4" y1="300" x2="59.1" y2="302.7"/>
		</g>
		<path class="st0" d="M67.5,347.8c7.3,2.7,15.3-1.1,18-8.4s-1.1-15.3-8.4-18c-7.3-2.7-15.3,1.1-18,8.4
			C56.6,337.2,60.3,345.2,67.5,347.8z M74.1,329.9c2.7,0.9,4,3.9,3,6.5c-0.9,2.7-3.9,4-6.5,3c-2.7-0.9-4-3.9-3-6.5
			C68.5,330.3,71.4,328.9,74.1,329.9z"/>
		<g>
			<path class="st1" d="M83.1,337.1c2.7-7.3-1.1-15.3-8.4-18s-15.3,1.1-18,8.4s1.1,15.3,8.4,18C72.4,348.1,80.4,344.3,83.1,337.1z
				 M65.1,330.6c0.9-2.7,3.9-4,6.5-3c2.7,0.9,4,3.9,3,6.5s-3.9,4-6.5,3C65.6,336.1,64.2,333.1,65.1,330.6z"/>
			<line class="st2" x1="70.9" y1="322.1" x2="68.3" y2="322.8"/>
			<line class="st3" x1="74.7" y1="325.5" x2="72.5" y2="323.8"/>
			<line class="st4" x1="78.1" y1="323.4" x2="75.4" y2="322.8"/>
			<line class="st2" x1="80.1" y1="328.4" x2="77.3" y2="327.7"/>
			<line class="st5" x1="78.9" y1="332.4" x2="77.5" y2="330"/>
			<line class="st3" x1="76.3" y1="336.7" x2="77.6" y2="334.3"/>
			<line class="st4" x1="78.9" y1="339.8" x2="79" y2="337"/>
			<line class="st2" x1="74.5" y1="342.5" x2="74.6" y2="339.8"/>
			<line class="st6" x1="65.3" y1="325.8" x2="63.7" y2="323.7"/>
			<line class="st6" x1="81.7" y1="335.4" x2="81.8" y2="332.6"/>
			<line class="st3" x1="67.6" y1="340" x2="70.1" y2="341.2"/>
			<line class="st4" x1="64.8" y1="342.8" x2="67.5" y2="342.7"/>
			<line class="st2" x1="61.8" y1="338.5" x2="64.5" y2="338.4"/>
			<line class="st5" x1="62" y1="334.2" x2="63.8" y2="336.3"/>
			<line class="st3" x1="63.5" y1="329.5" x2="62.7" y2="332.1"/>
			<line class="st4" x1="60.1" y1="327.2" x2="60.7" y2="329.8"/>
			<line class="st6" x1="58.4" y1="332" x2="59.1" y2="334.8"/>
		</g>
		<path class="st0" d="M101.3,219.5c7.3,2.7,15.3-1.1,18-8.4c2.7-7.3-1.1-15.3-8.4-18s-15.3,1.1-18,8.4
			C90.4,208.8,94,216.9,101.3,219.5z M107.9,201.6c2.7,0.9,4,3.9,3,6.5s-3.9,4-6.5,3c-2.7-0.9-4-3.9-3-6.5
			C102.3,201.9,105.2,200.6,107.9,201.6z"/>
		<g>
			<path class="st7" d="M116.9,208.7c2.7-7.3-1.1-15.3-8.4-18c-7.3-2.7-15.3,1.1-18,8.4c-2.7,7.3,1.1,15.3,8.4,18
				S114.2,216,116.9,208.7z M98.9,202.2c0.9-2.7,3.9-4,6.5-3c2.7,0.9,4,3.9,3,6.5c-0.9,2.7-3.9,4-6.5,3
				C99.4,207.7,98,204.9,98.9,202.2z"/>
			<line class="st2" x1="104.7" y1="193.7" x2="102.1" y2="194.6"/>
			<line class="st3" x1="108.5" y1="197.1" x2="106.4" y2="195.4"/>
			<line class="st4" x1="112" y1="195.1" x2="109.2" y2="194.5"/>
			<line class="st2" x1="113.8" y1="200" x2="111.2" y2="199.4"/>
			<line class="st5" x1="112.6" y1="204.1" x2="111.4" y2="201.7"/>
			<line class="st3" x1="110.1" y1="208.4" x2="111.4" y2="206"/>
			<line class="st4" x1="112.8" y1="211.4" x2="112.8" y2="208.7"/>
			<line class="st2" x1="108.4" y1="214.3" x2="108.4" y2="211.5"/>
			<line class="st6" x1="99.1" y1="197.4" x2="97.5" y2="195.3"/>
			<line class="st6" x1="115.6" y1="207" x2="115.6" y2="204.2"/>
			<line class="st3" x1="101.5" y1="211.7" x2="104" y2="212.9"/>
			<line class="st4" x1="98.6" y1="214.5" x2="101.3" y2="214.5"/>
			<line class="st2" x1="95.6" y1="210.1" x2="98.4" y2="210.1"/>
			<line class="st5" x1="95.8" y1="205.9" x2="97.6" y2="207.9"/>
			<line class="st3" x1="97.3" y1="201.1" x2="96.6" y2="203.8"/>
			<line class="st4" x1="93.9" y1="198.8" x2="94.5" y2="201.5"/>
			<line class="st6" x1="92.3" y1="203.8" x2="92.9" y2="206.4"/>
		</g>
		<path class="st0" d="M101.3,251.6c7.3,2.7,15.3-1.1,18-8.4c2.7-7.3-1.1-15.3-8.4-18s-15.3,1.1-18,8.4
			C90.4,240.9,94,248.9,101.3,251.6z M107.9,233.6c2.7,0.9,4,3.9,3,6.5c-0.9,2.7-3.9,4-6.5,3c-2.7-0.9-4-3.9-3-6.5
			C102.3,234.1,105.2,232.7,107.9,233.6z"/>
		<g>
			<path class="st1" d="M116.9,240.8c2.7-7.3-1.1-15.3-8.4-18c-7.3-2.7-15.3,1.1-18,8.4c-2.7,7.3,1.1,15.3,8.4,18
				C106.2,251.8,114.2,248.1,116.9,240.8z M98.9,234.3c0.9-2.7,3.9-4,6.5-3c2.7,0.9,4,3.9,3,6.5c-0.9,2.7-3.9,4-6.5,3
				C99.4,239.9,98,236.9,98.9,234.3z"/>
			<line class="st2" x1="104.7" y1="225.8" x2="102.1" y2="226.6"/>
			<line class="st3" x1="108.5" y1="229.2" x2="106.4" y2="227.4"/>
			<line class="st4" x1="112" y1="227.2" x2="109.2" y2="226.6"/>
			<line class="st2" x1="113.8" y1="232.1" x2="111.2" y2="231.5"/>
			<line class="st5" x1="112.6" y1="236.1" x2="111.4" y2="233.7"/>
			<line class="st3" x1="110.1" y1="240.5" x2="111.4" y2="238"/>
			<line class="st4" x1="112.8" y1="243.5" x2="112.8" y2="240.7"/>
			<line class="st2" x1="108.4" y1="246.3" x2="108.4" y2="243.6"/>
			<line class="st6" x1="99.1" y1="229.6" x2="97.5" y2="227.3"/>
			<line class="st6" x1="115.6" y1="239" x2="115.6" y2="236.4"/>
			<line class="st3" x1="101.5" y1="243.7" x2="104" y2="244.9"/>
			<line class="st4" x1="98.6" y1="246.6" x2="101.3" y2="246.5"/>
			<line class="st2" x1="95.6" y1="242.2" x2="98.4" y2="242.2"/>
			<line class="st5" x1="95.8" y1="238" x2="97.6" y2="240.1"/>
			<line class="st3" x1="97.3" y1="233.1" x2="96.6" y2="235.8"/>
			<line class="st4" x1="93.9" y1="230.9" x2="94.5" y2="233.6"/>
			<line class="st6" x1="92.3" y1="235.8" x2="92.9" y2="238.5"/>
		</g>
		<path class="st0" d="M101.3,283.6c7.3,2.7,15.3-1.1,18-8.4c2.7-7.3-1.1-15.3-8.4-18s-15.3,1.1-18,8.4C90.4,273,94,281,101.3,283.6
			z M107.9,265.7c2.7,0.9,4,3.9,3,6.5s-3.9,4-6.5,3c-2.7-0.9-4-3.9-3-6.5C102.3,266.1,105.2,264.7,107.9,265.7z"/>
		<g>
			<path class="st7" d="M116.9,272.9c2.7-7.3-1.1-15.3-8.4-18c-7.3-2.7-15.3,1.1-18,8.4c-2.7,7.3,1.1,15.3,8.4,18
				C106.2,283.9,114.2,280.2,116.9,272.9z M98.9,266.4c0.9-2.7,3.9-4,6.5-3c2.7,0.9,4,3.9,3,6.5c-0.9,2.7-3.9,4-6.5,3
				C99.3,272,98,269.1,98.9,266.4z"/>
			<line class="st2" x1="104.7" y1="257.9" x2="102.1" y2="258.7"/>
			<line class="st3" x1="108.5" y1="261.3" x2="106.4" y2="259.6"/>
			<line class="st4" x1="112" y1="259.3" x2="109.2" y2="258.7"/>
			<line class="st2" x1="113.8" y1="264.2" x2="111.2" y2="263.5"/>
			<line class="st5" x1="112.6" y1="268.2" x2="111.4" y2="265.8"/>
			<line class="st3" x1="110.1" y1="272.6" x2="111.4" y2="270.2"/>
			<line class="st4" x1="112.8" y1="275.6" x2="112.8" y2="272.8"/>
			<line class="st2" x1="108.4" y1="278.4" x2="108.4" y2="275.7"/>
			<line class="st6" x1="99.1" y1="261.6" x2="97.5" y2="259.5"/>
			<line class="st6" x1="115.6" y1="271.2" x2="115.6" y2="268.4"/>
			<line class="st3" x1="101.5" y1="275.8" x2="104" y2="277"/>
			<line class="st4" x1="98.6" y1="278.6" x2="101.3" y2="278.6"/>
			<line class="st2" x1="95.6" y1="274.3" x2="98.4" y2="274.2"/>
			<line class="st5" x1="95.8" y1="270.1" x2="97.6" y2="272.1"/>
			<line class="st3" x1="97.3" y1="265.3" x2="96.6" y2="268"/>
			<line class="st4" x1="93.9" y1="263" x2="94.5" y2="265.7"/>
			<line class="st6" x1="92.3" y1="268" x2="92.9" y2="270.6"/>
		</g>
		<path class="st0" d="M101.3,315.7c7.3,2.7,15.3-1.1,18-8.4c2.7-7.3-1.1-15.3-8.4-18s-15.3,1.1-18,8.4
			C90.4,305.1,94,313.1,101.3,315.7z M107.9,297.8c2.7,0.9,4,3.9,3,6.5s-3.9,4-6.5,3c-2.7-0.9-4-3.9-3-6.5
			C102.3,298.2,105.2,296.9,107.9,297.8z"/>
		<g>
			<path class="st1" d="M116.9,305c2.7-7.3-1.1-15.3-8.4-18c-7.3-2.7-15.3,1.1-18,8.4c-2.7,7.3,1.1,15.3,8.4,18
				S114.2,312.2,116.9,305z M98.9,298.4c0.9-2.7,3.9-4,6.5-3c2.7,0.9,4,3.9,3,6.5c-0.9,2.7-3.9,4-6.5,3
				C99.4,304,98,301.1,98.9,298.4z"/>
			<line class="st2" x1="104.7" y1="290" x2="102.1" y2="290.8"/>
			<line class="st3" x1="108.5" y1="293.4" x2="106.4" y2="291.6"/>
			<line class="st4" x1="112" y1="291.3" x2="109.2" y2="290.7"/>
			<line class="st2" x1="113.8" y1="296.2" x2="111.2" y2="295.7"/>
			<line class="st5" x1="112.6" y1="300.3" x2="111.4" y2="297.9"/>
			<line class="st3" x1="110.1" y1="304.7" x2="111.4" y2="302.2"/>
			<line class="st4" x1="112.8" y1="307.6" x2="112.8" y2="304.9"/>
			<line class="st2" x1="108.4" y1="310.5" x2="108.4" y2="307.7"/>
			<line class="st6" x1="99.1" y1="293.7" x2="97.5" y2="291.5"/>
			<line class="st6" x1="115.6" y1="303.2" x2="115.6" y2="300.5"/>
			<line class="st3" x1="101.5" y1="307.9" x2="104" y2="309.1"/>
			<line class="st4" x1="98.6" y1="310.7" x2="101.3" y2="310.7"/>
			<line class="st2" x1="95.6" y1="306.3" x2="98.4" y2="306.3"/>
			<line class="st5" x1="95.8" y1="302.2" x2="97.6" y2="304.2"/>
			<line class="st3" x1="97.3" y1="297.3" x2="96.6" y2="300"/>
			<line class="st4" x1="93.9" y1="295.1" x2="94.5" y2="297.8"/>
			<line class="st6" x1="92.3" y1="300" x2="92.9" y2="302.7"/>
		</g>
		<path class="st0" d="M101.3,347.8c7.3,2.7,15.3-1.1,18-8.4c2.7-7.3-1.1-15.3-8.4-18c-7.3-2.7-15.3,1.1-18,8.4
			C90.4,337.2,94,345.2,101.3,347.8z M107.9,329.9c2.7,0.9,4,3.9,3,6.5s-3.9,4-6.5,3c-2.7-0.9-4-3.9-3-6.5
			C102.3,330.3,105.2,328.9,107.9,329.9z"/>
		<g>
			<path class="st7" d="M116.9,337.1c2.7-7.3-1.1-15.3-8.4-18c-7.3-2.7-15.3,1.1-18,8.4c-2.7,7.3,1.1,15.3,8.4,18
				C106.2,348.1,114.2,344.3,116.9,337.1z M98.9,330.6c0.9-2.7,3.9-4,6.5-3c2.7,0.9,4,3.9,3,6.5c-0.9,2.7-3.9,4-6.5,3
				C99.4,336.1,98,333.1,98.9,330.6z"/>
			<line class="st2" x1="104.7" y1="322.1" x2="102.1" y2="322.8"/>
			<line class="st3" x1="108.5" y1="325.5" x2="106.4" y2="323.8"/>
			<line class="st4" x1="112" y1="323.4" x2="109.2" y2="322.8"/>
			<line class="st2" x1="113.8" y1="328.4" x2="111.2" y2="327.7"/>
			<line class="st5" x1="112.6" y1="332.4" x2="111.4" y2="330"/>
			<line class="st3" x1="110.1" y1="336.7" x2="111.4" y2="334.3"/>
			<line class="st4" x1="112.8" y1="339.8" x2="112.8" y2="337"/>
			<line class="st2" x1="108.4" y1="342.5" x2="108.4" y2="339.8"/>
			<line class="st6" x1="99.1" y1="325.8" x2="97.5" y2="323.7"/>
			<line class="st6" x1="115.6" y1="335.4" x2="115.6" y2="332.6"/>
			<line class="st3" x1="101.5" y1="340" x2="104" y2="341.2"/>
			<line class="st4" x1="98.6" y1="342.8" x2="101.3" y2="342.7"/>
			<line class="st2" x1="95.6" y1="338.5" x2="98.4" y2="338.4"/>
			<line class="st5" x1="95.8" y1="334.2" x2="97.6" y2="336.3"/>
			<line class="st3" x1="97.3" y1="329.5" x2="96.6" y2="332.1"/>
			<line class="st4" x1="93.9" y1="327.2" x2="94.5" y2="329.8"/>
			<line class="st6" x1="92.3" y1="332" x2="92.9" y2="334.8"/>
		</g>
	</g>
	<g>
		<path class="st0" d="M179.9,36.8c7.3,2.7,15.3-1.1,18-8.4s-1.1-15.3-8.4-18s-15.3,1.1-18,8.4C168.9,26.2,172.7,34.2,179.9,36.8z
			 M186.4,18.9c2.7,0.9,4,3.9,3,6.5c-0.9,2.7-3.9,4-6.5,3c-2.7-0.9-4-3.9-3-6.5C180.9,19.3,183.8,18,186.4,18.9z"/>
		<g>
			<path class="st1" d="M195.4,26.1c2.7-7.3-1.1-15.3-8.4-18c-7.3-2.7-15.3,1.1-18,8.4s1.1,15.3,8.4,18
				C184.7,37.1,192.8,33.3,195.4,26.1z M177.6,19.5c0.9-2.7,3.9-4,6.5-3c2.7,0.9,4,3.9,3,6.5c-0.9,2.7-3.9,4-6.5,3
				C177.9,25.2,176.5,22.2,177.6,19.5z"/>
			<line class="st2" x1="183.3" y1="11.1" x2="180.7" y2="11.9"/>
			<line class="st3" x1="187" y1="14.5" x2="184.9" y2="12.7"/>
			<line class="st4" x1="190.5" y1="12.4" x2="187.9" y2="11.8"/>
			<line class="st2" x1="192.4" y1="17.3" x2="189.7" y2="16.8"/>
			<line class="st5" x1="191.2" y1="21.4" x2="189.9" y2="19"/>
			<line class="st3" x1="188.6" y1="25.8" x2="189.9" y2="23.3"/>
			<line class="st4" x1="191.4" y1="28.7" x2="191.4" y2="26"/>
			<line class="st2" x1="187" y1="31.6" x2="187" y2="28.8"/>
			<line class="st6" x1="177.7" y1="14.8" x2="176" y2="12.6"/>
			<line class="st6" x1="194.1" y1="24.3" x2="194.1" y2="21.6"/>
			<line class="st3" x1="180" y1="29" x2="182.5" y2="30.2"/>
			<line class="st4" x1="177.1" y1="31.8" x2="179.9" y2="31.8"/>
			<line class="st2" x1="174.2" y1="27.5" x2="176.9" y2="27.5"/>
			<line class="st5" x1="174.3" y1="23.3" x2="176.2" y2="25.3"/>
			<line class="st3" x1="175.8" y1="18.4" x2="175.2" y2="21.1"/>
			<line class="st4" x1="172.5" y1="16.2" x2="173" y2="18.9"/>
			<line class="st6" x1="170.8" y1="21.1" x2="171.5" y2="23.8"/>
		</g>
		<path class="st0" d="M179.9,68.9c7.3,2.7,15.3-1.1,18-8.4s-1.1-15.3-8.4-17.9c-7.3-2.7-15.3,1.1-18,8.4
			C168.9,58.3,172.7,66.3,179.9,68.9z M186.4,51c2.7,0.9,4,3.9,3,6.5c-0.9,2.7-3.9,4-6.5,3c-2.7-0.9-4-3.9-3-6.5
			C180.9,51.4,183.8,50,186.4,51z"/>
		<g>
			<path class="st7" d="M195.4,58.2c2.7-7.3-1.1-15.3-8.4-18c-7.3-2.7-15.3,1.1-18,8.4s1.1,15.3,8.4,18
				C184.7,69.2,192.8,65.4,195.4,58.2z M177.6,51.7c0.9-2.7,3.9-4,6.5-3c2.7,0.9,4,3.9,3,6.5c-0.9,2.7-3.9,4-6.5,3
				C177.9,57.2,176.5,54.2,177.6,51.7z"/>
			<line class="st2" x1="183.3" y1="43.2" x2="180.7" y2="43.9"/>
			<line class="st3" x1="187" y1="46.6" x2="184.9" y2="44.9"/>
			<line class="st4" x1="190.5" y1="44.5" x2="187.9" y2="43.9"/>
			<line class="st2" x1="192.4" y1="49.5" x2="189.7" y2="48.8"/>
			<line class="st5" x1="191.2" y1="53.5" x2="189.9" y2="51"/>
			<line class="st3" x1="188.6" y1="57.8" x2="189.9" y2="55.4"/>
			<line class="st4" x1="191.4" y1="60.9" x2="191.4" y2="58.1"/>
			<line class="st2" x1="187" y1="63.6" x2="187" y2="60.9"/>
			<line class="st6" x1="177.7" y1="46.9" x2="176" y2="44.8"/>
			<line class="st6" x1="194.1" y1="56.5" x2="194.1" y2="53.7"/>
			<line class="st3" x1="180" y1="61.1" x2="182.5" y2="62.3"/>
			<line class="st4" x1="177.1" y1="63.9" x2="179.9" y2="63.8"/>
			<line class="st2" x1="174.2" y1="59.6" x2="176.9" y2="59.5"/>
			<line class="st5" x1="174.3" y1="55.4" x2="176.2" y2="57.4"/>
			<line class="st3" x1="175.8" y1="50.6" x2="175.2" y2="53.2"/>
			<line class="st4" x1="172.5" y1="48.3" x2="173" y2="50.9"/>
			<line class="st6" x1="170.8" y1="53.1" x2="171.5" y2="55.9"/>
		</g>
		<path class="st0" d="M179.9,101c7.3,2.7,15.3-1.1,18-8.4c2.7-7.3-1.1-15.3-8.4-18c-7.3-2.7-15.3,1.1-18,8.4
			C168.9,90.3,172.7,98.4,179.9,101z M186.4,83.1c2.7,0.9,4,3.9,3,6.5c-0.9,2.7-3.9,4-6.5,3c-2.7-0.9-4-3.9-3-6.5
			C180.9,83.5,183.8,82.1,186.4,83.1z"/>
		<g>
			<path class="st1" d="M195.4,90.2c2.7-7.3-1.1-15.3-8.4-18c-7.3-2.7-15.3,1.1-18,8.4s1.1,15.3,8.4,18
				C184.7,101.2,192.8,97.5,195.4,90.2z M177.6,83.7c0.9-2.7,3.9-4,6.5-3c2.7,0.9,4,3.9,3,6.5c-0.9,2.7-3.9,4-6.5,3
				C177.9,89.3,176.5,86.4,177.6,83.7z"/>
			<line class="st2" x1="183.3" y1="75.2" x2="180.7" y2="76.1"/>
			<line class="st3" x1="187" y1="78.6" x2="184.9" y2="76.9"/>
			<line class="st4" x1="190.5" y1="76.6" x2="187.9" y2="76"/>
			<line class="st2" x1="192.4" y1="81.5" x2="189.7" y2="80.9"/>
			<line class="st5" x1="191.2" y1="85.6" x2="189.9" y2="83.2"/>
			<line class="st3" x1="188.6" y1="90" x2="189.9" y2="87.5"/>
			<line class="st4" x1="191.4" y1="92.9" x2="191.4" y2="90.2"/>
			<line class="st2" x1="187" y1="95.8" x2="187" y2="93"/>
			<line class="st6" x1="177.7" y1="79" x2="176" y2="76.8"/>
			<line class="st6" x1="194.1" y1="88.5" x2="194.1" y2="85.7"/>
			<line class="st3" x1="180" y1="93.2" x2="182.5" y2="94.4"/>
			<line class="st4" x1="177.1" y1="96" x2="179.9" y2="96"/>
			<line class="st2" x1="174.2" y1="91.6" x2="176.9" y2="91.6"/>
			<line class="st5" x1="174.3" y1="87.5" x2="176.2" y2="89.5"/>
			<line class="st3" x1="175.8" y1="82.6" x2="175.2" y2="85.3"/>
			<line class="st4" x1="172.5" y1="80.3" x2="173" y2="83.1"/>
			<line class="st6" x1="170.8" y1="85.3" x2="171.5" y2="87.9"/>
		</g>
		<path class="st0" d="M179.9,133.1c7.3,2.7,15.3-1.1,18-8.4c2.7-7.3-1.1-15.3-8.4-18c-7.3-2.7-15.3,1.1-18,8.4
			C168.9,122.4,172.7,130.5,179.9,133.1z M186.4,115.2c2.7,0.9,4,3.9,3,6.5c-0.9,2.7-3.9,4-6.5,3c-2.7-0.9-4-3.9-3-6.5
			C180.9,115.6,183.8,114.2,186.4,115.2z"/>
		<g>
			<path class="st7" d="M195.4,122.3c2.7-7.3-1.1-15.3-8.4-18c-7.3-2.7-15.3,1.1-18,8.4c-2.7,7.3,1.1,15.3,8.4,18
				C184.7,133.3,192.8,129.6,195.4,122.3z M177.6,115.8c0.9-2.7,3.9-4,6.5-3c2.7,0.9,4,3.9,3,6.5c-0.9,2.7-3.9,4-6.5,3
				C177.9,121.4,176.5,118.4,177.6,115.8z"/>
			<line class="st2" x1="183.3" y1="107.4" x2="180.7" y2="108.1"/>
			<line class="st3" x1="187" y1="110.8" x2="184.9" y2="109"/>
			<line class="st4" x1="190.5" y1="108.7" x2="187.9" y2="108.1"/>
			<line class="st2" x1="192.4" y1="113.6" x2="189.7" y2="113"/>
			<line class="st5" x1="191.2" y1="117.7" x2="189.9" y2="115.2"/>
			<line class="st3" x1="188.6" y1="122" x2="189.9" y2="119.5"/>
			<line class="st4" x1="191.4" y1="125" x2="191.4" y2="122.2"/>
			<line class="st2" x1="187" y1="127.8" x2="187" y2="125.1"/>
			<line class="st6" x1="177.7" y1="111.1" x2="176" y2="108.8"/>
			<line class="st6" x1="194.1" y1="120.6" x2="194.1" y2="117.9"/>
			<line class="st3" x1="180" y1="125.2" x2="182.5" y2="126.4"/>
			<line class="st4" x1="177.1" y1="128.1" x2="179.9" y2="128"/>
			<line class="st2" x1="174.2" y1="123.8" x2="176.9" y2="123.7"/>
			<line class="st5" x1="174.3" y1="119.5" x2="176.2" y2="121.6"/>
			<line class="st3" x1="175.8" y1="114.6" x2="175.2" y2="117.3"/>
			<line class="st4" x1="172.5" y1="112.4" x2="173" y2="115.1"/>
			<line class="st6" x1="170.8" y1="117.3" x2="171.5" y2="120"/>
		</g>
		<path class="st0" d="M179.9,165.2c7.3,2.7,15.3-1.1,18-8.4c2.7-7.3-1.1-15.3-8.4-18c-7.3-2.7-15.3,1.1-18,8.4
			C168.9,154.5,172.7,162.5,179.9,165.2z M186.4,147.2c2.7,0.9,4,3.9,3,6.5c-0.9,2.7-3.9,4-6.5,3c-2.7-0.9-4-3.9-3-6.5
			C180.9,147.6,183.8,146.3,186.4,147.2z"/>
		<g>
			<path class="st1" d="M195.4,154.4c2.7-7.3-1.1-15.3-8.4-18c-7.3-2.7-15.3,1.1-18,8.4c-2.7,7.3,1.1,15.3,8.4,18
				C184.7,165.4,192.8,161.7,195.4,154.4z M177.6,147.9c0.9-2.7,3.9-4,6.5-3c2.7,0.9,4,3.9,3,6.5c-0.9,2.7-3.9,4-6.5,3
				C177.9,153.4,176.5,150.6,177.6,147.9z"/>
			<line class="st2" x1="183.3" y1="139.4" x2="180.7" y2="140.2"/>
			<line class="st3" x1="187" y1="142.8" x2="184.9" y2="141.1"/>
			<line class="st4" x1="190.5" y1="140.8" x2="187.9" y2="140.2"/>
			<line class="st2" x1="192.4" y1="145.7" x2="189.7" y2="145.1"/>
			<line class="st5" x1="191.2" y1="149.7" x2="189.9" y2="147.3"/>
			<line class="st3" x1="188.6" y1="154.1" x2="189.9" y2="151.7"/>
			<line class="st4" x1="191.4" y1="157.1" x2="191.4" y2="154.3"/>
			<line class="st2" x1="187" y1="159.9" x2="187" y2="157.2"/>
			<line class="st6" x1="177.7" y1="143.1" x2="176" y2="141"/>
			<line class="st6" x1="194.1" y1="152.7" x2="194.1" y2="149.9"/>
			<line class="st3" x1="180" y1="157.4" x2="182.5" y2="158.6"/>
			<line class="st4" x1="177.1" y1="160.1" x2="179.9" y2="160.1"/>
			<line class="st2" x1="174.2" y1="155.8" x2="176.9" y2="155.8"/>
			<line class="st5" x1="174.3" y1="151.6" x2="176.2" y2="153.7"/>
			<line class="st3" x1="175.8" y1="146.8" x2="175.2" y2="149.5"/>
			<line class="st4" x1="172.5" y1="144.5" x2="173" y2="147.2"/>
			<line class="st6" x1="170.8" y1="149.5" x2="171.5" y2="152.1"/>
		</g>
		<path class="st0" d="M213.7,36.8c7.3,2.7,15.3-1.1,18-8.4s-1.1-15.3-8.4-18c-7.3-2.7-15.3,1.1-18,8.4S206.5,34.2,213.7,36.8z
			 M220.2,18.9c2.7,0.9,4,3.9,3,6.5c-0.9,2.7-3.9,4-6.5,3s-4-3.9-3-6.5C214.7,19.3,217.6,18,220.2,18.9z"/>
		<g>
			<path class="st7" d="M229.2,26.1c2.7-7.3-1.1-15.3-8.4-18s-15.3,1.1-18,8.4c-2.7,7.3,1.1,15.3,8.4,18
				C218.6,37.1,226.6,33.3,229.2,26.1z M211.4,19.5c0.9-2.7,3.9-4,6.5-3c2.7,0.9,4,3.9,3,6.5s-3.9,4-6.5,3
				C211.7,25.2,210.3,22.2,211.4,19.5z"/>
			<line class="st2" x1="217.2" y1="11.1" x2="214.5" y2="11.9"/>
			<line class="st3" x1="220.8" y1="14.5" x2="218.7" y2="12.7"/>
			<line class="st4" x1="224.3" y1="12.4" x2="221.7" y2="11.8"/>
			<line class="st2" x1="226.2" y1="17.3" x2="223.5" y2="16.8"/>
			<line class="st5" x1="225" y1="21.4" x2="223.7" y2="19"/>
			<line class="st3" x1="222.4" y1="25.8" x2="223.7" y2="23.3"/>
			<line class="st4" x1="225.2" y1="28.7" x2="225.2" y2="26"/>
			<line class="st2" x1="220.7" y1="31.6" x2="220.7" y2="28.8"/>
			<line class="st6" x1="211.5" y1="14.8" x2="209.8" y2="12.6"/>
			<line class="st6" x1="227.9" y1="24.3" x2="227.9" y2="21.6"/>
			<line class="st3" x1="213.8" y1="29" x2="216.3" y2="30.2"/>
			<line class="st4" x1="210.9" y1="31.8" x2="213.7" y2="31.8"/>
			<line class="st2" x1="207.9" y1="27.5" x2="210.7" y2="27.5"/>
			<line class="st5" x1="208.1" y1="23.3" x2="210" y2="25.3"/>
			<line class="st3" x1="209.6" y1="18.4" x2="209" y2="21.1"/>
			<line class="st4" x1="206.3" y1="16.2" x2="206.8" y2="18.9"/>
			<line class="st6" x1="204.6" y1="21.1" x2="205.3" y2="23.8"/>
		</g>
		<path class="st0" d="M213.7,68.9c7.3,2.7,15.3-1.1,18-8.4s-1.1-15.3-8.4-18c-7.3-2.7-15.3,1.1-18,8.4
			C202.7,58.3,206.5,66.3,213.7,68.9z M220.2,51c2.7,0.9,4,3.9,3,6.5c-0.9,2.7-3.9,4-6.5,3c-2.7-0.9-4-3.9-3-6.5
			C214.7,51.4,217.6,50,220.2,51z"/>
		<g>
			<path class="st1" d="M229.2,58.2c2.7-7.3-1.1-15.3-8.4-18s-15.3,1.1-18,8.4c-2.7,7.3,1.1,15.3,8.4,18
				C218.6,69.2,226.6,65.4,229.2,58.2z M211.4,51.7c0.9-2.7,3.9-4,6.5-3s4,3.9,3,6.5s-3.9,4-6.5,3C211.7,57.3,210.3,54.2,211.4,51.7
				z"/>
			<line class="st2" x1="217.2" y1="43.2" x2="214.5" y2="43.9"/>
			<line class="st3" x1="220.8" y1="46.6" x2="218.7" y2="44.9"/>
			<line class="st4" x1="224.3" y1="44.5" x2="221.7" y2="43.9"/>
			<line class="st2" x1="226.2" y1="49.5" x2="223.5" y2="48.8"/>
			<line class="st5" x1="225" y1="53.5" x2="223.7" y2="51"/>
			<line class="st3" x1="222.4" y1="57.8" x2="223.7" y2="55.4"/>
			<line class="st4" x1="225.2" y1="60.9" x2="225.2" y2="58.1"/>
			<line class="st2" x1="220.7" y1="63.6" x2="220.7" y2="60.9"/>
			<line class="st6" x1="211.5" y1="46.9" x2="209.8" y2="44.8"/>
			<line class="st6" x1="227.9" y1="56.5" x2="227.9" y2="53.7"/>
			<line class="st3" x1="213.8" y1="61.1" x2="216.3" y2="62.3"/>
			<line class="st4" x1="210.9" y1="63.9" x2="213.7" y2="63.8"/>
			<line class="st2" x1="207.9" y1="59.6" x2="210.7" y2="59.5"/>
			<line class="st5" x1="208.1" y1="55.4" x2="210" y2="57.4"/>
			<line class="st3" x1="209.6" y1="50.6" x2="209" y2="53.2"/>
			<line class="st4" x1="206.3" y1="48.3" x2="206.8" y2="50.9"/>
			<line class="st6" x1="204.6" y1="53.1" x2="205.3" y2="55.9"/>
		</g>
		<path class="st0" d="M213.7,101c7.3,2.7,15.3-1.1,18-8.4c2.7-7.3-1.1-15.3-8.4-18c-7.3-2.7-15.3,1.1-18,8.4
			C202.7,90.3,206.5,98.4,213.7,101z M220.2,83.1c2.7,0.9,4,3.9,3,6.5c-0.9,2.7-3.9,4-6.5,3c-2.7-0.9-4-3.9-3-6.5
			C214.7,83.5,217.6,82.1,220.2,83.1z"/>
		<g>
			<path class="st7" d="M229.2,90.2c2.7-7.3-1.1-15.3-8.4-18c-7.3-2.7-15.3,1.1-18,8.4c-2.7,7.3,1.1,15.3,8.4,18
				C218.6,101.2,226.6,97.5,229.2,90.2z M211.4,83.7c0.9-2.7,3.9-4,6.5-3s4,3.9,3,6.5c-0.9,2.7-3.9,4-6.5,3
				C211.7,89.3,210.3,86.4,211.4,83.7z"/>
			<line class="st2" x1="217.2" y1="75.2" x2="214.5" y2="76.1"/>
			<line class="st3" x1="220.8" y1="78.6" x2="218.7" y2="76.9"/>
			<line class="st4" x1="224.3" y1="76.6" x2="221.7" y2="76"/>
			<line class="st2" x1="226.2" y1="81.5" x2="223.5" y2="80.9"/>
			<line class="st5" x1="225" y1="85.6" x2="223.7" y2="83.2"/>
			<line class="st3" x1="222.4" y1="90" x2="223.7" y2="87.5"/>
			<line class="st4" x1="225.2" y1="92.9" x2="225.2" y2="90.2"/>
			<line class="st2" x1="220.7" y1="95.8" x2="220.7" y2="93"/>
			<line class="st6" x1="211.5" y1="79" x2="209.8" y2="76.8"/>
			<line class="st6" x1="227.9" y1="88.5" x2="227.9" y2="85.7"/>
			<line class="st3" x1="213.8" y1="93.2" x2="216.3" y2="94.4"/>
			<line class="st4" x1="210.9" y1="96" x2="213.7" y2="96"/>
			<line class="st2" x1="207.9" y1="91.6" x2="210.7" y2="91.6"/>
			<line class="st5" x1="208.1" y1="87.5" x2="210" y2="89.5"/>
			<line class="st3" x1="209.6" y1="82.6" x2="209" y2="85.3"/>
			<line class="st4" x1="206.3" y1="80.3" x2="206.8" y2="83.1"/>
			<line class="st6" x1="204.6" y1="85.3" x2="205.3" y2="87.9"/>
		</g>
		<path class="st0" d="M213.7,133.1c7.3,2.7,15.3-1.1,18-8.4c2.7-7.3-1.1-15.3-8.4-18c-7.3-2.7-15.3,1.1-18,8.4
			C202.7,122.4,206.5,130.5,213.7,133.1z M220.2,115.2c2.7,0.9,4,3.9,3,6.5c-0.9,2.7-3.9,4-6.5,3c-2.7-0.9-4-3.9-3-6.5
			C214.7,115.6,217.6,114.2,220.2,115.2z"/>
		<g>
			<path class="st1" d="M229.2,122.3c2.7-7.3-1.1-15.3-8.4-18c-7.3-2.7-15.3,1.1-18,8.4c-2.7,7.3,1.1,15.3,8.4,18
				C218.6,133.3,226.6,129.6,229.2,122.3z M211.4,115.8c0.9-2.7,3.9-4,6.5-3s4,3.9,3,6.5c-0.9,2.7-3.9,4-6.5,3
				C211.7,121.4,210.3,118.4,211.4,115.8z"/>
			<line class="st2" x1="217.2" y1="107.4" x2="214.5" y2="108.1"/>
			<line class="st3" x1="220.8" y1="110.8" x2="218.7" y2="109"/>
			<line class="st4" x1="224.3" y1="108.7" x2="221.7" y2="108.1"/>
			<line class="st2" x1="226.2" y1="113.6" x2="223.5" y2="113"/>
			<line class="st5" x1="225" y1="117.7" x2="223.7" y2="115.2"/>
			<line class="st3" x1="222.4" y1="122" x2="223.7" y2="119.5"/>
			<line class="st4" x1="225.2" y1="125" x2="225.2" y2="122.2"/>
			<line class="st2" x1="220.7" y1="127.8" x2="220.7" y2="125.1"/>
			<line class="st6" x1="211.5" y1="111.1" x2="209.8" y2="108.8"/>
			<line class="st6" x1="227.9" y1="120.6" x2="227.9" y2="117.9"/>
			<line class="st3" x1="213.8" y1="125.2" x2="216.3" y2="126.4"/>
			<line class="st4" x1="210.9" y1="128.1" x2="213.7" y2="128"/>
			<line class="st2" x1="207.9" y1="123.8" x2="210.7" y2="123.7"/>
			<line class="st5" x1="208.1" y1="119.5" x2="210" y2="121.6"/>
			<line class="st3" x1="209.6" y1="114.6" x2="209" y2="117.3"/>
			<line class="st4" x1="206.3" y1="112.4" x2="206.8" y2="115.1"/>
			<line class="st6" x1="204.6" y1="117.3" x2="205.3" y2="120"/>
		</g>
		<path class="st0" d="M213.7,165.2c7.3,2.7,15.3-1.1,18-8.4c2.7-7.3-1.1-15.3-8.4-18c-7.3-2.7-15.3,1.1-18,8.4
			C202.7,154.5,206.5,162.5,213.7,165.2z M220.2,147.2c2.7,0.9,4,3.9,3,6.5c-0.9,2.7-3.9,4-6.5,3c-2.7-0.9-4-3.9-3-6.5
			C214.7,147.6,217.6,146.3,220.2,147.2z"/>
		<g>
			<path class="st7" d="M229.2,154.4c2.7-7.3-1.1-15.3-8.4-18c-7.3-2.7-15.3,1.1-18,8.4c-2.7,7.3,1.1,15.3,8.4,18
				C218.6,165.4,226.6,161.7,229.2,154.4z M211.4,147.9c0.9-2.7,3.9-4,6.5-3s4,3.9,3,6.5c-0.9,2.7-3.9,4-6.5,3
				C211.7,153.4,210.3,150.6,211.4,147.9z"/>
			<line class="st2" x1="217.2" y1="139.4" x2="214.5" y2="140.2"/>
			<line class="st3" x1="220.8" y1="142.8" x2="218.7" y2="141.1"/>
			<line class="st4" x1="224.3" y1="140.8" x2="221.7" y2="140.2"/>
			<line class="st2" x1="226.2" y1="145.7" x2="223.5" y2="145.1"/>
			<line class="st5" x1="225" y1="149.7" x2="223.7" y2="147.3"/>
			<line class="st3" x1="222.4" y1="154.1" x2="223.7" y2="151.7"/>
			<line class="st4" x1="225.2" y1="157.1" x2="225.2" y2="154.3"/>
			<line class="st2" x1="220.7" y1="159.9" x2="220.7" y2="157.2"/>
			<line class="st6" x1="211.5" y1="143.1" x2="209.8" y2="141"/>
			<line class="st6" x1="227.9" y1="152.7" x2="227.9" y2="149.9"/>
			<line class="st3" x1="213.8" y1="157.4" x2="216.3" y2="158.6"/>
			<line class="st4" x1="210.9" y1="160.1" x2="213.7" y2="160.1"/>
			<line class="st2" x1="207.9" y1="155.8" x2="210.7" y2="155.8"/>
			<line class="st5" x1="208.1" y1="151.6" x2="210" y2="153.7"/>
			<line class="st3" x1="209.6" y1="146.8" x2="209" y2="149.5"/>
			<line class="st4" x1="206.3" y1="144.5" x2="206.8" y2="147.2"/>
			<line class="st6" x1="204.6" y1="149.5" x2="205.3" y2="152.1"/>
		</g>
		<path class="st0" d="M179.9,219.5c7.3,2.7,15.3-1.1,18-8.4s-1.1-15.3-8.4-18c-7.3-2.7-15.3,1.1-18,8.4
			C168.9,208.8,172.7,216.9,179.9,219.5z M186.4,201.6c2.7,0.9,4,3.9,3,6.5s-3.9,4-6.5,3c-2.7-0.9-4-3.9-3-6.5
			C180.9,201.9,183.8,200.6,186.4,201.6z"/>
		<g>
			<path class="st1" d="M195.4,208.7c2.7-7.3-1.1-15.3-8.4-18c-7.3-2.7-15.3,1.1-18,8.4c-2.7,7.3,1.1,15.3,8.4,18
				C184.7,219.7,192.8,216,195.4,208.7z M177.6,202.2c0.9-2.7,3.9-4,6.5-3c2.7,0.9,4,3.9,3,6.5c-0.9,2.7-3.9,4-6.5,3
				C177.9,207.7,176.5,204.9,177.6,202.2z"/>
			<line class="st2" x1="183.3" y1="193.7" x2="180.7" y2="194.6"/>
			<line class="st3" x1="187" y1="197.1" x2="184.9" y2="195.4"/>
			<line class="st4" x1="190.5" y1="195.1" x2="187.9" y2="194.5"/>
			<line class="st2" x1="192.4" y1="200" x2="189.7" y2="199.4"/>
			<line class="st5" x1="191.2" y1="204.1" x2="189.9" y2="201.7"/>
			<line class="st3" x1="188.6" y1="208.4" x2="189.9" y2="206"/>
			<line class="st4" x1="191.4" y1="211.4" x2="191.4" y2="208.7"/>
			<line class="st2" x1="187" y1="214.3" x2="187" y2="211.5"/>
			<line class="st6" x1="177.7" y1="197.4" x2="176" y2="195.3"/>
			<line class="st6" x1="194.1" y1="207" x2="194.1" y2="204.2"/>
			<line class="st3" x1="180" y1="211.7" x2="182.5" y2="212.9"/>
			<line class="st4" x1="177.1" y1="214.5" x2="179.9" y2="214.5"/>
			<line class="st2" x1="174.2" y1="210.1" x2="176.9" y2="210.1"/>
			<line class="st5" x1="174.3" y1="205.9" x2="176.2" y2="207.9"/>
			<line class="st3" x1="175.8" y1="201.1" x2="175.2" y2="203.8"/>
			<line class="st4" x1="172.5" y1="198.8" x2="173" y2="201.5"/>
			<line class="st6" x1="170.8" y1="203.8" x2="171.5" y2="206.4"/>
		</g>
		<path class="st0" d="M179.9,251.6c7.3,2.7,15.3-1.1,18-8.4s-1.1-15.3-8.4-18c-7.3-2.7-15.3,1.1-18,8.4
			C168.9,240.9,172.7,248.9,179.9,251.6z M186.4,233.6c2.7,0.9,4,3.9,3,6.5c-0.9,2.7-3.9,4-6.5,3c-2.7-0.9-4-3.9-3-6.5
			C180.9,234.1,183.8,232.7,186.4,233.6z"/>
		<g>
			<path class="st7" d="M195.4,240.8c2.7-7.3-1.1-15.3-8.4-18c-7.3-2.7-15.3,1.1-18,8.4s1.1,15.3,8.4,18
				C184.7,251.8,192.8,248.1,195.4,240.8z M177.6,234.3c0.9-2.7,3.9-4,6.5-3c2.7,0.9,4,3.9,3,6.5c-0.9,2.7-3.9,4-6.5,3
				C177.9,239.9,176.5,236.9,177.6,234.3z"/>
			<line class="st2" x1="183.3" y1="225.8" x2="180.7" y2="226.6"/>
			<line class="st3" x1="187" y1="229.2" x2="184.9" y2="227.4"/>
			<line class="st4" x1="190.5" y1="227.2" x2="187.9" y2="226.6"/>
			<line class="st2" x1="192.4" y1="232.1" x2="189.7" y2="231.5"/>
			<line class="st5" x1="191.2" y1="236.1" x2="189.9" y2="233.7"/>
			<line class="st3" x1="188.6" y1="240.5" x2="189.9" y2="238"/>
			<line class="st4" x1="191.4" y1="243.5" x2="191.4" y2="240.7"/>
			<line class="st2" x1="187" y1="246.3" x2="187" y2="243.6"/>
			<line class="st6" x1="177.7" y1="229.6" x2="176" y2="227.3"/>
			<line class="st6" x1="194.1" y1="239" x2="194.1" y2="236.4"/>
			<line class="st3" x1="180" y1="243.7" x2="182.5" y2="244.9"/>
			<line class="st4" x1="177.1" y1="246.6" x2="179.9" y2="246.5"/>
			<line class="st2" x1="174.2" y1="242.2" x2="176.9" y2="242.2"/>
			<line class="st5" x1="174.3" y1="238" x2="176.2" y2="240.1"/>
			<line class="st3" x1="175.8" y1="233.1" x2="175.2" y2="235.8"/>
			<line class="st4" x1="172.5" y1="230.9" x2="173" y2="233.6"/>
			<line class="st6" x1="170.8" y1="235.8" x2="171.5" y2="238.5"/>
		</g>
		<path class="st0" d="M179.9,283.6c7.3,2.7,15.3-1.1,18-8.4s-1.1-15.3-8.4-18c-7.3-2.7-15.3,1.1-18,8.4
			C168.9,273,172.7,281,179.9,283.6z M186.4,265.7c2.7,0.9,4,3.9,3,6.5s-3.9,4-6.5,3c-2.7-0.9-4-3.9-3-6.5
			C180.9,266.1,183.8,264.7,186.4,265.7z"/>
		<g>
			<path class="st1" d="M195.4,272.9c2.7-7.3-1.1-15.3-8.4-18c-7.3-2.7-15.3,1.1-18,8.4s1.1,15.3,8.4,18
				C184.7,283.9,192.8,280.2,195.4,272.9z M177.6,266.4c0.9-2.7,3.9-4,6.5-3c2.7,0.9,4,3.9,3,6.5c-0.9,2.7-3.9,4-6.5,3
				C177.9,271.9,176.5,269.1,177.6,266.4z"/>
			<line class="st2" x1="183.3" y1="257.9" x2="180.7" y2="258.7"/>
			<line class="st3" x1="187" y1="261.3" x2="184.9" y2="259.6"/>
			<line class="st4" x1="190.5" y1="259.3" x2="187.9" y2="258.7"/>
			<line class="st2" x1="192.4" y1="264.2" x2="189.7" y2="263.5"/>
			<line class="st5" x1="191.2" y1="268.2" x2="189.9" y2="265.8"/>
			<line class="st3" x1="188.6" y1="272.6" x2="189.9" y2="270.2"/>
			<line class="st4" x1="191.4" y1="275.6" x2="191.4" y2="272.8"/>
			<line class="st2" x1="187" y1="278.4" x2="187" y2="275.7"/>
			<line class="st6" x1="177.7" y1="261.6" x2="176" y2="259.5"/>
			<line class="st6" x1="194.1" y1="271.2" x2="194.1" y2="268.4"/>
			<line class="st3" x1="180" y1="275.8" x2="182.5" y2="277"/>
			<line class="st4" x1="177.1" y1="278.6" x2="179.9" y2="278.6"/>
			<line class="st2" x1="174.2" y1="274.3" x2="176.9" y2="274.2"/>
			<line class="st5" x1="174.3" y1="270.1" x2="176.2" y2="272.1"/>
			<line class="st3" x1="175.8" y1="265.3" x2="175.2" y2="268"/>
			<line class="st4" x1="172.5" y1="263" x2="173" y2="265.7"/>
			<line class="st6" x1="170.8" y1="268" x2="171.5" y2="270.6"/>
		</g>
		<path class="st0" d="M179.9,315.7c7.3,2.7,15.3-1.1,18-8.4s-1.1-15.3-8.4-18c-7.3-2.7-15.3,1.1-18,8.4
			C168.9,305.1,172.7,313.1,179.9,315.7z M186.4,297.8c2.7,0.9,4,3.9,3,6.5s-3.9,4-6.5,3c-2.7-0.9-4-3.9-3-6.5
			C180.9,298.2,183.8,296.9,186.4,297.8z"/>
		<g>
			<path class="st7" d="M195.4,305c2.7-7.3-1.1-15.3-8.4-18c-7.3-2.7-15.3,1.1-18,8.4s1.1,15.3,8.4,18
				C184.7,316,192.8,312.2,195.4,305z M177.6,298.4c0.9-2.7,3.9-4,6.5-3c2.7,0.9,4,3.9,3,6.5c-0.9,2.7-3.9,4-6.5,3
				C177.9,304,176.5,301.1,177.6,298.4z"/>
			<line class="st2" x1="183.3" y1="290" x2="180.7" y2="290.8"/>
			<line class="st3" x1="187" y1="293.4" x2="184.9" y2="291.6"/>
			<line class="st4" x1="190.5" y1="291.3" x2="187.9" y2="290.7"/>
			<line class="st2" x1="192.4" y1="296.2" x2="189.7" y2="295.7"/>
			<line class="st5" x1="191.2" y1="300.3" x2="189.9" y2="297.9"/>
			<line class="st3" x1="188.6" y1="304.7" x2="189.9" y2="302.2"/>
			<line class="st4" x1="191.4" y1="307.6" x2="191.4" y2="304.9"/>
			<line class="st2" x1="187" y1="310.5" x2="187" y2="307.7"/>
			<line class="st6" x1="177.7" y1="293.7" x2="176" y2="291.5"/>
			<line class="st6" x1="194.1" y1="303.2" x2="194.1" y2="300.5"/>
			<line class="st3" x1="180" y1="307.9" x2="182.5" y2="309.1"/>
			<line class="st4" x1="177.1" y1="310.7" x2="179.9" y2="310.7"/>
			<line class="st2" x1="174.2" y1="306.3" x2="176.9" y2="306.3"/>
			<line class="st5" x1="174.3" y1="302.2" x2="176.2" y2="304.2"/>
			<line class="st3" x1="175.8" y1="297.3" x2="175.2" y2="300"/>
			<line class="st4" x1="172.5" y1="295.1" x2="173" y2="297.8"/>
			<line class="st6" x1="170.8" y1="300" x2="171.5" y2="302.7"/>
		</g>
		<path class="st0" d="M179.9,347.8c7.3,2.7,15.3-1.1,18-8.4s-1.1-15.3-8.4-18c-7.3-2.7-15.3,1.1-18,8.4
			C168.9,337.2,172.7,345.2,179.9,347.8z M186.4,329.9c2.7,0.9,4,3.9,3,6.5s-3.9,4-6.5,3c-2.7-0.9-4-3.9-3-6.5
			C180.9,330.3,183.8,328.9,186.4,329.9z"/>
		<g>
			<path class="st1" d="M195.4,337.1c2.7-7.3-1.1-15.3-8.4-18c-7.3-2.7-15.3,1.1-18,8.4s1.1,15.3,8.4,18
				C184.7,348.1,192.8,344.3,195.4,337.1z M177.6,330.6c0.9-2.7,3.9-4,6.5-3c2.7,0.9,4,3.9,3,6.5c-0.9,2.7-3.9,4-6.5,3
				C177.9,336.1,176.5,333.1,177.6,330.6z"/>
			<line class="st2" x1="183.3" y1="322.1" x2="180.7" y2="322.8"/>
			<line class="st3" x1="187" y1="325.5" x2="184.9" y2="323.8"/>
			<line class="st4" x1="190.5" y1="323.4" x2="187.9" y2="322.8"/>
			<line class="st2" x1="192.4" y1="328.4" x2="189.7" y2="327.7"/>
			<line class="st5" x1="191.2" y1="332.4" x2="189.9" y2="330"/>
			<line class="st3" x1="188.6" y1="336.7" x2="189.9" y2="334.3"/>
			<line class="st4" x1="191.4" y1="339.8" x2="191.4" y2="337"/>
			<line class="st2" x1="187" y1="342.5" x2="187" y2="339.8"/>
			<line class="st6" x1="177.7" y1="325.8" x2="176" y2="323.7"/>
			<line class="st6" x1="194.1" y1="335.4" x2="194.1" y2="332.6"/>
			<line class="st3" x1="180" y1="340" x2="182.5" y2="341.2"/>
			<line class="st4" x1="177.1" y1="342.8" x2="179.9" y2="342.7"/>
			<line class="st2" x1="174.2" y1="338.5" x2="176.9" y2="338.4"/>
			<line class="st5" x1="174.3" y1="334.2" x2="176.2" y2="336.3"/>
			<line class="st3" x1="175.8" y1="329.5" x2="175.2" y2="332.1"/>
			<line class="st4" x1="172.5" y1="327.2" x2="173" y2="329.8"/>
			<line class="st6" x1="170.8" y1="332" x2="171.5" y2="334.8"/>
		</g>
		<path class="st0" d="M213.7,219.5c7.3,2.7,15.3-1.1,18-8.4s-1.1-15.3-8.4-18c-7.3-2.7-15.3,1.1-18,8.4
			C202.7,208.8,206.5,216.9,213.7,219.5z M220.2,201.6c2.7,0.9,4,3.9,3,6.5s-3.9,4-6.5,3s-4-3.9-3-6.5
			C214.7,201.9,217.6,200.6,220.2,201.6z"/>
		<g>
			<path class="st7" d="M229.2,208.7c2.7-7.3-1.1-15.3-8.4-18s-15.3,1.1-18,8.4c-2.7,7.3,1.1,15.3,8.4,18
				C218.6,219.7,226.6,216,229.2,208.7z M211.4,202.2c0.9-2.7,3.9-4,6.5-3s4,3.9,3,6.5c-0.9,2.7-3.9,4-6.5,3
				C211.7,207.7,210.3,204.9,211.4,202.2z"/>
			<line class="st2" x1="217.2" y1="193.7" x2="214.5" y2="194.6"/>
			<line class="st3" x1="220.8" y1="197.1" x2="218.7" y2="195.4"/>
			<line class="st4" x1="224.3" y1="195.1" x2="221.7" y2="194.5"/>
			<line class="st2" x1="226.2" y1="200" x2="223.5" y2="199.4"/>
			<line class="st5" x1="225" y1="204.1" x2="223.7" y2="201.7"/>
			<line class="st3" x1="222.4" y1="208.4" x2="223.7" y2="206"/>
			<line class="st4" x1="225.2" y1="211.4" x2="225.2" y2="208.7"/>
			<line class="st2" x1="220.7" y1="214.3" x2="220.7" y2="211.5"/>
			<line class="st6" x1="211.5" y1="197.4" x2="209.8" y2="195.3"/>
			<line class="st6" x1="227.9" y1="207" x2="227.9" y2="204.2"/>
			<line class="st3" x1="213.8" y1="211.7" x2="216.3" y2="212.9"/>
			<line class="st4" x1="210.9" y1="214.5" x2="213.7" y2="214.5"/>
			<line class="st2" x1="207.9" y1="210.1" x2="210.7" y2="210.1"/>
			<line class="st5" x1="208.1" y1="205.9" x2="210" y2="207.9"/>
			<line class="st3" x1="209.6" y1="201.1" x2="209" y2="203.8"/>
			<line class="st4" x1="206.3" y1="198.8" x2="206.8" y2="201.5"/>
			<line class="st6" x1="204.6" y1="203.8" x2="205.3" y2="206.4"/>
		</g>
		<path class="st0" d="M213.7,251.6c7.3,2.7,15.3-1.1,18-8.4s-1.1-15.3-8.4-18c-7.3-2.7-15.3,1.1-18,8.4
			C202.7,240.9,206.5,248.9,213.7,251.6z M220.2,233.6c2.7,0.9,4,3.9,3,6.5c-0.9,2.7-3.9,4-6.5,3s-4-3.9-3-6.5
			C214.7,234.1,217.6,232.7,220.2,233.6z"/>
		<g>
			<path class="st1" d="M229.2,240.8c2.7-7.3-1.1-15.3-8.4-18c-7.3-2.7-15.3,1.1-18,8.4c-2.7,7.3,1.1,15.3,8.4,18
				C218.6,251.8,226.6,248.1,229.2,240.8z M211.4,234.3c0.9-2.7,3.9-4,6.5-3s4,3.9,3,6.5c-0.9,2.7-3.9,4-6.5,3
				C211.7,239.9,210.3,236.9,211.4,234.3z"/>
			<line class="st2" x1="217.2" y1="225.8" x2="214.5" y2="226.6"/>
			<line class="st3" x1="220.8" y1="229.2" x2="218.7" y2="227.4"/>
			<line class="st4" x1="224.3" y1="227.2" x2="221.7" y2="226.6"/>
			<line class="st2" x1="226.2" y1="232.1" x2="223.5" y2="231.5"/>
			<line class="st5" x1="225" y1="236.1" x2="223.7" y2="233.7"/>
			<line class="st3" x1="222.4" y1="240.5" x2="223.7" y2="238"/>
			<line class="st4" x1="225.2" y1="243.5" x2="225.2" y2="240.7"/>
			<line class="st2" x1="220.7" y1="246.3" x2="220.7" y2="243.6"/>
			<line class="st6" x1="211.5" y1="229.6" x2="209.8" y2="227.3"/>
			<line class="st6" x1="227.9" y1="239" x2="227.9" y2="236.4"/>
			<line class="st3" x1="213.8" y1="243.7" x2="216.3" y2="244.9"/>
			<line class="st4" x1="210.9" y1="246.6" x2="213.7" y2="246.5"/>
			<line class="st2" x1="207.9" y1="242.2" x2="210.7" y2="242.2"/>
			<line class="st5" x1="208.1" y1="238" x2="210" y2="240.1"/>
			<line class="st3" x1="209.6" y1="233.1" x2="209" y2="235.8"/>
			<line class="st4" x1="206.3" y1="230.9" x2="206.8" y2="233.6"/>
			<line class="st6" x1="204.6" y1="235.8" x2="205.3" y2="238.5"/>
		</g>
		<path class="st0" d="M213.7,283.6c7.3,2.7,15.3-1.1,18-8.4s-1.1-15.3-8.4-18c-7.3-2.7-15.3,1.1-18,8.4
			C202.7,273,206.5,281,213.7,283.6z M220.2,265.7c2.7,0.9,4,3.9,3,6.5s-3.9,4-6.5,3c-2.7-0.9-4-3.9-3-6.5
			C214.7,266.1,217.6,264.7,220.2,265.7z"/>
		<g>
			<path class="st7" d="M229.2,272.9c2.7-7.3-1.1-15.3-8.4-18c-7.3-2.7-15.3,1.1-18,8.4c-2.7,7.3,1.1,15.3,8.4,18
				C218.6,283.9,226.6,280.2,229.2,272.9z M211.4,266.4c0.9-2.7,3.9-4,6.5-3c2.7,0.9,4,3.9,3,6.5s-3.9,4-6.5,3
				C211.7,272,210.3,269.1,211.4,266.4z"/>
			<line class="st2" x1="217.2" y1="257.9" x2="214.5" y2="258.7"/>
			<line class="st3" x1="220.8" y1="261.3" x2="218.7" y2="259.6"/>
			<line class="st4" x1="224.3" y1="259.3" x2="221.7" y2="258.7"/>
			<line class="st2" x1="226.2" y1="264.2" x2="223.5" y2="263.5"/>
			<line class="st5" x1="225" y1="268.2" x2="223.7" y2="265.8"/>
			<line class="st3" x1="222.4" y1="272.6" x2="223.7" y2="270.2"/>
			<line class="st4" x1="225.2" y1="275.6" x2="225.2" y2="272.8"/>
			<line class="st2" x1="220.7" y1="278.4" x2="220.7" y2="275.7"/>
			<line class="st6" x1="211.5" y1="261.6" x2="209.8" y2="259.5"/>
			<line class="st6" x1="227.9" y1="271.2" x2="227.9" y2="268.4"/>
			<line class="st3" x1="213.8" y1="275.8" x2="216.3" y2="277"/>
			<line class="st4" x1="210.9" y1="278.6" x2="213.7" y2="278.6"/>
			<line class="st2" x1="207.9" y1="274.3" x2="210.7" y2="274.2"/>
			<line class="st5" x1="208.1" y1="270.1" x2="210" y2="272.1"/>
			<line class="st3" x1="209.6" y1="265.3" x2="209" y2="268"/>
			<line class="st4" x1="206.3" y1="263" x2="206.8" y2="265.7"/>
			<line class="st6" x1="204.6" y1="268" x2="205.3" y2="270.6"/>
		</g>
		<path class="st0" d="M213.7,315.7c7.3,2.7,15.3-1.1,18-8.4s-1.1-15.3-8.4-18c-7.3-2.7-15.3,1.1-18,8.4S206.5,313.1,213.7,315.7z
			 M220.2,297.8c2.7,0.9,4,3.9,3,6.5s-3.9,4-6.5,3c-2.7-0.9-4-3.9-3-6.5C214.7,298.2,217.6,296.9,220.2,297.8z"/>
		<g>
			<path class="st1" d="M229.2,305c2.7-7.3-1.1-15.3-8.4-18s-15.3,1.1-18,8.4c-2.7,7.3,1.1,15.3,8.4,18
				C218.6,316,226.6,312.2,229.2,305z M211.4,298.4c0.9-2.7,3.9-4,6.5-3c2.7,0.9,4,3.9,3,6.5s-3.9,4-6.5,3
				C211.7,304,210.3,301.1,211.4,298.4z"/>
			<line class="st2" x1="217.2" y1="290" x2="214.5" y2="290.8"/>
			<line class="st3" x1="220.8" y1="293.4" x2="218.7" y2="291.6"/>
			<line class="st4" x1="224.3" y1="291.3" x2="221.7" y2="290.7"/>
			<line class="st2" x1="226.2" y1="296.2" x2="223.5" y2="295.7"/>
			<line class="st5" x1="225" y1="300.3" x2="223.7" y2="297.9"/>
			<line class="st3" x1="222.4" y1="304.7" x2="223.7" y2="302.2"/>
			<line class="st4" x1="225.2" y1="307.6" x2="225.2" y2="304.9"/>
			<line class="st2" x1="220.7" y1="310.5" x2="220.7" y2="307.7"/>
			<line class="st6" x1="211.5" y1="293.7" x2="209.8" y2="291.5"/>
			<line class="st6" x1="227.9" y1="303.2" x2="227.9" y2="300.5"/>
			<line class="st3" x1="213.8" y1="307.9" x2="216.3" y2="309.1"/>
			<line class="st4" x1="210.9" y1="310.7" x2="213.7" y2="310.7"/>
			<line class="st2" x1="207.9" y1="306.3" x2="210.7" y2="306.3"/>
			<line class="st5" x1="208.1" y1="302.2" x2="210" y2="304.2"/>
			<line class="st3" x1="209.6" y1="297.3" x2="209" y2="300"/>
			<line class="st4" x1="206.3" y1="295.1" x2="206.8" y2="297.8"/>
			<line class="st6" x1="204.6" y1="300" x2="205.3" y2="302.7"/>
		</g>
		<path class="st0" d="M213.7,347.8c7.3,2.7,15.3-1.1,18-8.4s-1.1-15.3-8.4-18c-7.3-2.7-15.3,1.1-18,8.4
			C202.7,337.2,206.5,345.2,213.7,347.8z M220.2,329.9c2.7,0.9,4,3.9,3,6.5s-3.9,4-6.5,3c-2.7-0.9-4-3.9-3-6.5
			C214.7,330.3,217.6,328.9,220.2,329.9z"/>
		<g>
			<path class="st7" d="M229.2,337.1c2.7-7.3-1.1-15.3-8.4-18c-7.3-2.7-15.3,1.1-18,8.4c-2.7,7.3,1.1,15.3,8.4,18
				C218.6,348.1,226.6,344.3,229.2,337.1z M211.4,330.6c0.9-2.7,3.9-4,6.5-3c2.7,0.9,4,3.9,3,6.5s-3.9,4-6.5,3
				C211.7,336.1,210.3,333.1,211.4,330.6z"/>
			<line class="st2" x1="217.2" y1="322.1" x2="214.5" y2="322.8"/>
			<line class="st3" x1="220.8" y1="325.5" x2="218.7" y2="323.8"/>
			<line class="st4" x1="224.3" y1="323.4" x2="221.7" y2="322.8"/>
			<line class="st2" x1="226.2" y1="328.4" x2="223.5" y2="327.7"/>
			<line class="st5" x1="225" y1="332.4" x2="223.7" y2="330"/>
			<line class="st3" x1="222.4" y1="336.7" x2="223.7" y2="334.3"/>
			<line class="st4" x1="225.2" y1="339.8" x2="225.2" y2="337"/>
			<line class="st2" x1="220.7" y1="342.5" x2="220.7" y2="339.8"/>
			<line class="st6" x1="211.5" y1="325.8" x2="209.8" y2="323.7"/>
			<line class="st6" x1="227.9" y1="335.4" x2="227.9" y2="332.6"/>
			<line class="st3" x1="213.8" y1="340" x2="216.3" y2="341.2"/>
			<line class="st4" x1="210.9" y1="342.8" x2="213.7" y2="342.7"/>
			<line class="st2" x1="207.9" y1="338.5" x2="210.7" y2="338.4"/>
			<line class="st5" x1="208.1" y1="334.2" x2="210" y2="336.3"/>
			<line class="st3" x1="209.6" y1="329.5" x2="209" y2="332.1"/>
			<line class="st4" x1="206.3" y1="327.2" x2="206.8" y2="329.8"/>
			<line class="st6" x1="204.6" y1="332" x2="205.3" y2="334.8"/>
		</g>
	</g>
	<g>
		<path class="st0" d="M301.5,36.8c7.3,2.7,15.3-1.1,18-8.4s-1.2-15.3-8.4-18c-7.3-2.7-15.3,1.1-18,8.4
			C290.4,26.2,294.2,34.2,301.5,36.8z M308,18.9c2.7,0.9,4,3.9,3,6.5c-0.9,2.7-3.9,4-6.5,3s-4-3.9-3-6.5
			C302.4,19.3,305.4,18,308,18.9z"/>
		<g>
			<path class="st1" d="M317.1,26.1c2.7-7.3-1.1-15.3-8.4-18s-15.3,1.1-18,8.4c-2.7,7.3,1.1,15.3,8.4,18S314.4,33.3,317.1,26.1z
				 M299.1,19.5c0.9-2.7,3.9-4,6.5-3c2.7,0.9,4,3.9,3,6.5c-0.9,2.7-3.9,4-6.5,3C299.5,25.2,298.2,22.2,299.1,19.5z"/>
			<line class="st2" x1="304.9" y1="11.1" x2="302.2" y2="11.9"/>
			<line class="st3" x1="308.6" y1="14.5" x2="306.5" y2="12.7"/>
			<line class="st4" x1="312.1" y1="12.4" x2="309.4" y2="11.8"/>
			<line class="st2" x1="313.9" y1="17.3" x2="311.3" y2="16.8"/>
			<line class="st5" x1="312.8" y1="21.4" x2="311.4" y2="19"/>
			<line class="st3" x1="310.2" y1="25.8" x2="311.4" y2="23.3"/>
			<line class="st4" x1="312.9" y1="28.7" x2="313" y2="26"/>
			<line class="st2" x1="308.5" y1="31.6" x2="308.6" y2="28.8"/>
			<line class="st6" x1="299.3" y1="14.8" x2="297.5" y2="12.6"/>
			<line class="st6" x1="315.7" y1="24.3" x2="315.7" y2="21.6"/>
			<line class="st3" x1="301.6" y1="29" x2="304.1" y2="30.2"/>
			<line class="st4" x1="298.7" y1="31.8" x2="301.5" y2="31.8"/>
			<line class="st2" x1="295.7" y1="27.5" x2="298.5" y2="27.5"/>
			<line class="st5" x1="295.9" y1="23.3" x2="297.8" y2="25.3"/>
			<line class="st3" x1="297.4" y1="18.4" x2="296.7" y2="21.1"/>
			<line class="st4" x1="294" y1="16.2" x2="294.7" y2="18.9"/>
			<line class="st6" x1="292.4" y1="21.1" x2="293" y2="23.8"/>
		</g>
		<path class="st0" d="M301.5,68.9c7.3,2.7,15.3-1.1,18-8.4s-1.2-15.3-8.4-17.9c-7.3-2.7-15.3,1.1-18,8.4
			C290.4,58.3,294.2,66.3,301.5,68.9z M308,51c2.7,0.9,4,3.9,3,6.5c-0.9,2.7-3.9,4-6.5,3c-2.7-0.9-4-3.9-3-6.5
			C302.4,51.4,305.4,50,308,51z"/>
		<g>
			<path class="st7" d="M317.1,58.2c2.7-7.3-1.1-15.3-8.4-18s-15.3,1.1-18,8.4c-2.7,7.3,1.1,15.3,8.4,18
				C306.4,69.2,314.4,65.4,317.1,58.2z M299.1,51.7c0.9-2.7,3.9-4,6.5-3s4,3.9,3,6.5c-0.9,2.7-3.9,4-6.5,3
				C299.5,57.2,298.2,54.2,299.1,51.7z"/>
			<line class="st2" x1="304.9" y1="43.2" x2="302.2" y2="43.9"/>
			<line class="st3" x1="308.6" y1="46.6" x2="306.5" y2="44.9"/>
			<line class="st4" x1="312.1" y1="44.5" x2="309.4" y2="43.9"/>
			<line class="st2" x1="313.9" y1="49.5" x2="311.3" y2="48.8"/>
			<line class="st5" x1="312.8" y1="53.5" x2="311.4" y2="51"/>
			<line class="st3" x1="310.2" y1="57.8" x2="311.4" y2="55.4"/>
			<line class="st4" x1="312.9" y1="60.9" x2="313" y2="58.1"/>
			<line class="st2" x1="308.5" y1="63.6" x2="308.6" y2="60.9"/>
			<line class="st6" x1="299.3" y1="46.9" x2="297.5" y2="44.8"/>
			<line class="st6" x1="315.7" y1="56.5" x2="315.7" y2="53.7"/>
			<line class="st3" x1="301.6" y1="61.1" x2="304.1" y2="62.3"/>
			<line class="st4" x1="298.7" y1="63.9" x2="301.5" y2="63.8"/>
			<line class="st2" x1="295.7" y1="59.6" x2="298.5" y2="59.5"/>
			<line class="st5" x1="295.9" y1="55.4" x2="297.8" y2="57.4"/>
			<line class="st3" x1="297.4" y1="50.6" x2="296.7" y2="53.2"/>
			<line class="st4" x1="294" y1="48.3" x2="294.7" y2="50.9"/>
			<line class="st6" x1="292.4" y1="53.1" x2="293" y2="55.9"/>
		</g>
		<path class="st0" d="M301.5,101c7.3,2.7,15.3-1.1,18-8.4c2.7-7.3-1.1-15.3-8.4-18c-7.3-2.7-15.3,1.1-18,8.4
			C290.4,90.3,294.2,98.4,301.5,101z M308,83.1c2.7,0.9,4,3.9,3,6.5c-0.9,2.7-3.9,4-6.5,3c-2.7-0.9-4-3.9-3-6.5
			C302.4,83.5,305.4,82.1,308,83.1z"/>
		<g>
			<path class="st1" d="M317.1,90.2c2.7-7.3-1.1-15.3-8.4-18c-7.3-2.7-15.3,1.1-18,8.4c-2.7,7.3,1.1,15.3,8.4,18
				C306.4,101.2,314.4,97.5,317.1,90.2z M299.1,83.7c0.9-2.7,3.9-4,6.5-3s4,3.9,3,6.5c-0.9,2.7-3.9,4-6.5,3S298.2,86.4,299.1,83.7z"
				/>
			<line class="st2" x1="304.9" y1="75.2" x2="302.2" y2="76.1"/>
			<line class="st3" x1="308.6" y1="78.6" x2="306.5" y2="76.9"/>
			<line class="st4" x1="312.1" y1="76.6" x2="309.4" y2="76"/>
			<line class="st2" x1="313.9" y1="81.5" x2="311.3" y2="80.9"/>
			<line class="st5" x1="312.8" y1="85.6" x2="311.4" y2="83.2"/>
			<line class="st3" x1="310.2" y1="90" x2="311.4" y2="87.5"/>
			<line class="st4" x1="312.9" y1="92.9" x2="313" y2="90.2"/>
			<line class="st2" x1="308.5" y1="95.8" x2="308.6" y2="93"/>
			<line class="st6" x1="299.3" y1="79" x2="297.5" y2="76.8"/>
			<line class="st6" x1="315.7" y1="88.5" x2="315.7" y2="85.7"/>
			<line class="st3" x1="301.6" y1="93.2" x2="304.1" y2="94.4"/>
			<line class="st4" x1="298.7" y1="96" x2="301.5" y2="96"/>
			<line class="st2" x1="295.7" y1="91.6" x2="298.5" y2="91.6"/>
			<line class="st5" x1="295.9" y1="87.5" x2="297.8" y2="89.5"/>
			<line class="st3" x1="297.4" y1="82.6" x2="296.7" y2="85.3"/>
			<line class="st4" x1="294" y1="80.3" x2="294.7" y2="83.1"/>
			<line class="st6" x1="292.4" y1="85.3" x2="293" y2="87.9"/>
		</g>
		<path class="st0" d="M301.5,133.1c7.3,2.7,15.3-1.1,18-8.4c2.7-7.3-1.1-15.3-8.4-18c-7.3-2.7-15.3,1.1-18,8.4
			C290.4,122.4,294.2,130.5,301.5,133.1z M308,115.2c2.7,0.9,4,3.9,3,6.5c-0.9,2.7-3.9,4-6.5,3c-2.7-0.9-4-3.9-3-6.5
			C302.4,115.6,305.4,114.2,308,115.2z"/>
		<g>
			<path class="st7" d="M317.1,122.3c2.7-7.3-1.1-15.3-8.4-18c-7.3-2.7-15.3,1.1-18,8.4c-2.7,7.3,1.1,15.3,8.4,18
				S314.4,129.6,317.1,122.3z M299.1,115.8c0.9-2.7,3.9-4,6.5-3s4,3.9,3,6.5c-0.9,2.7-3.9,4-6.5,3
				C299.5,121.4,298.2,118.4,299.1,115.8z"/>
			<line class="st2" x1="304.9" y1="107.4" x2="302.2" y2="108.1"/>
			<line class="st3" x1="308.6" y1="110.8" x2="306.5" y2="109"/>
			<line class="st4" x1="312.1" y1="108.7" x2="309.4" y2="108.1"/>
			<line class="st2" x1="313.9" y1="113.6" x2="311.3" y2="113"/>
			<line class="st5" x1="312.8" y1="117.7" x2="311.4" y2="115.2"/>
			<line class="st3" x1="310.2" y1="122" x2="311.4" y2="119.5"/>
			<line class="st4" x1="312.9" y1="125" x2="313" y2="122.2"/>
			<line class="st2" x1="308.5" y1="127.8" x2="308.6" y2="125.1"/>
			<line class="st6" x1="299.3" y1="111.1" x2="297.5" y2="108.8"/>
			<line class="st6" x1="315.7" y1="120.6" x2="315.7" y2="117.9"/>
			<line class="st3" x1="301.6" y1="125.2" x2="304.1" y2="126.4"/>
			<line class="st4" x1="298.7" y1="128.1" x2="301.5" y2="128"/>
			<line class="st2" x1="295.7" y1="123.8" x2="298.5" y2="123.7"/>
			<line class="st5" x1="295.9" y1="119.5" x2="297.8" y2="121.6"/>
			<line class="st3" x1="297.4" y1="114.6" x2="296.7" y2="117.3"/>
			<line class="st4" x1="294" y1="112.4" x2="294.7" y2="115.1"/>
			<line class="st6" x1="292.4" y1="117.3" x2="293" y2="120"/>
		</g>
		<path class="st0" d="M301.5,165.2c7.3,2.7,15.3-1.1,18-8.4c2.7-7.3-1.1-15.3-8.4-18c-7.3-2.7-15.3,1.1-18,8.4
			C290.4,154.5,294.2,162.5,301.5,165.2z M308,147.2c2.7,0.9,4,3.9,3,6.5c-0.9,2.7-3.9,4-6.5,3c-2.7-0.9-4-3.9-3-6.5
			C302.4,147.6,305.4,146.3,308,147.2z"/>
		<g>
			<path class="st1" d="M317.1,154.4c2.7-7.3-1.1-15.3-8.4-18s-15.3,1.1-18,8.4c-2.7,7.3,1.1,15.3,8.4,18
				C306.4,165.4,314.4,161.7,317.1,154.4z M299.1,147.9c0.9-2.7,3.9-4,6.5-3s4,3.9,3,6.5c-0.9,2.7-3.9,4-6.5,3
				C299.5,153.4,298.2,150.6,299.1,147.9z"/>
			<line class="st2" x1="304.9" y1="139.4" x2="302.2" y2="140.2"/>
			<line class="st3" x1="308.6" y1="142.8" x2="306.5" y2="141.1"/>
			<line class="st4" x1="312.1" y1="140.8" x2="309.4" y2="140.2"/>
			<line class="st2" x1="313.9" y1="145.7" x2="311.3" y2="145.1"/>
			<line class="st5" x1="312.8" y1="149.7" x2="311.4" y2="147.3"/>
			<line class="st3" x1="310.2" y1="154.1" x2="311.4" y2="151.7"/>
			<line class="st4" x1="312.9" y1="157.1" x2="313" y2="154.3"/>
			<line class="st2" x1="308.5" y1="159.9" x2="308.6" y2="157.2"/>
			<line class="st6" x1="299.3" y1="143.1" x2="297.5" y2="141"/>
			<line class="st6" x1="315.7" y1="152.7" x2="315.7" y2="149.9"/>
			<line class="st3" x1="301.6" y1="157.4" x2="304.1" y2="158.6"/>
			<line class="st4" x1="298.7" y1="160.1" x2="301.5" y2="160.1"/>
			<line class="st2" x1="295.7" y1="155.8" x2="298.5" y2="155.8"/>
			<line class="st5" x1="295.9" y1="151.6" x2="297.8" y2="153.7"/>
			<line class="st3" x1="297.4" y1="146.8" x2="296.7" y2="149.5"/>
			<line class="st4" x1="294" y1="144.5" x2="294.7" y2="147.2"/>
			<line class="st6" x1="292.4" y1="149.5" x2="293" y2="152.1"/>
		</g>
		<path class="st0" d="M335.3,36.8c7.3,2.7,15.3-1.1,18-8.4s-1.1-15.3-8.4-18s-15.3,1.1-18,8.4C324.3,26.2,328,34.2,335.3,36.8z
			 M341.8,18.9c2.7,0.9,4,3.9,3,6.5c-0.9,2.7-3.9,4-6.5,3s-4-3.9-3-6.5C336.2,19.3,339.2,18,341.8,18.9z"/>
		<g>
			<path class="st7" d="M350.8,26.1c2.7-7.3-1.1-15.3-8.4-18s-15.3,1.1-18,8.4c-2.7,7.3,1.1,15.3,8.4,18S348.2,33.3,350.8,26.1z
				 M332.9,19.5c0.9-2.7,3.9-4,6.5-3c2.7,0.9,4,3.9,3,6.5s-3.9,4-6.5,3C333.3,25.2,332,22.2,332.9,19.5z"/>
			<line class="st2" x1="338.7" y1="11.1" x2="336" y2="11.9"/>
			<line class="st3" x1="342.4" y1="14.5" x2="340.3" y2="12.7"/>
			<line class="st4" x1="345.9" y1="12.4" x2="343.2" y2="11.8"/>
			<line class="st2" x1="347.8" y1="17.3" x2="345" y2="16.8"/>
			<line class="st5" x1="346.6" y1="21.4" x2="345.2" y2="19"/>
			<line class="st3" x1="344" y1="25.8" x2="345.3" y2="23.3"/>
			<line class="st4" x1="346.7" y1="28.7" x2="346.8" y2="26"/>
			<line class="st2" x1="342.3" y1="31.6" x2="342.4" y2="28.8"/>
			<line class="st6" x1="333.1" y1="14.8" x2="331.4" y2="12.6"/>
			<line class="st6" x1="349.5" y1="24.3" x2="349.6" y2="21.6"/>
			<line class="st3" x1="335.4" y1="29" x2="337.9" y2="30.2"/>
			<line class="st4" x1="332.5" y1="31.8" x2="335.3" y2="31.8"/>
			<line class="st2" x1="329.5" y1="27.5" x2="332.2" y2="27.5"/>
			<line class="st5" x1="329.8" y1="23.3" x2="331.6" y2="25.3"/>
			<line class="st3" x1="331.2" y1="18.4" x2="330.5" y2="21.1"/>
			<line class="st4" x1="327.8" y1="16.2" x2="328.5" y2="18.9"/>
			<line class="st6" x1="326.2" y1="21.1" x2="326.8" y2="23.8"/>
		</g>
		<path class="st0" d="M335.3,68.9c7.3,2.7,15.3-1.1,18-8.4s-1.1-15.3-8.4-18s-15.3,1.1-18,8.4C324.3,58.3,328,66.3,335.3,68.9z
			 M341.8,51c2.7,0.9,4,3.9,3,6.5c-0.9,2.7-3.9,4-6.5,3c-2.7-0.9-4-3.9-3-6.5C336.2,51.4,339.2,50,341.8,51z"/>
		<g>
			<path class="st1" d="M350.8,58.2c2.7-7.3-1.1-15.3-8.4-18s-15.3,1.1-18,8.4c-2.7,7.3,1.1,15.3,8.4,18
				C340.2,69.2,348.2,65.4,350.8,58.2z M332.9,51.7c0.9-2.7,3.9-4,6.5-3s4,3.9,3,6.5s-3.9,4-6.5,3C333.3,57.2,332,54.2,332.9,51.7z"
				/>
			<line class="st2" x1="338.7" y1="43.2" x2="336" y2="43.9"/>
			<line class="st3" x1="342.4" y1="46.6" x2="340.3" y2="44.9"/>
			<line class="st4" x1="345.9" y1="44.5" x2="343.2" y2="43.9"/>
			<line class="st2" x1="347.8" y1="49.5" x2="345" y2="48.8"/>
			<line class="st5" x1="346.6" y1="53.5" x2="345.2" y2="51"/>
			<line class="st3" x1="344" y1="57.8" x2="345.3" y2="55.4"/>
			<line class="st4" x1="346.7" y1="60.9" x2="346.8" y2="58.1"/>
			<line class="st2" x1="342.3" y1="63.6" x2="342.4" y2="60.9"/>
			<line class="st6" x1="333.1" y1="46.9" x2="331.4" y2="44.8"/>
			<line class="st6" x1="349.5" y1="56.5" x2="349.6" y2="53.7"/>
			<line class="st3" x1="335.4" y1="61.1" x2="337.9" y2="62.3"/>
			<line class="st4" x1="332.5" y1="63.9" x2="335.3" y2="63.8"/>
			<line class="st2" x1="329.5" y1="59.6" x2="332.2" y2="59.5"/>
			<line class="st5" x1="329.8" y1="55.4" x2="331.6" y2="57.4"/>
			<line class="st3" x1="331.2" y1="50.6" x2="330.5" y2="53.2"/>
			<line class="st4" x1="327.8" y1="48.3" x2="328.5" y2="50.9"/>
			<line class="st6" x1="326.2" y1="53.1" x2="326.8" y2="55.9"/>
		</g>
		<path class="st0" d="M335.3,101c7.3,2.7,15.3-1.1,18-8.4c2.7-7.3-1.1-15.3-8.4-18c-7.3-2.7-15.3,1.1-18,8.4
			C324.3,90.3,328,98.4,335.3,101z M341.8,83.1c2.7,0.9,4,3.9,3,6.5c-0.9,2.7-3.9,4-6.5,3c-2.7-0.9-4-3.9-3-6.5
			C336.2,83.5,339.2,82.1,341.8,83.1z"/>
		<g>
			<path class="st7" d="M350.8,90.2c2.7-7.3-1.1-15.3-8.4-18c-7.3-2.7-15.3,1.1-18,8.4c-2.7,7.3,1.1,15.3,8.4,18
				C340.2,101.2,348.2,97.5,350.8,90.2z M332.9,83.7c0.9-2.7,3.9-4,6.5-3s4,3.9,3,6.5c-0.9,2.7-3.9,4-6.5,3S332,86.4,332.9,83.7z"/>
			<line class="st2" x1="338.7" y1="75.2" x2="336" y2="76.1"/>
			<line class="st3" x1="342.4" y1="78.6" x2="340.3" y2="76.9"/>
			<line class="st4" x1="345.9" y1="76.6" x2="343.2" y2="76"/>
			<line class="st2" x1="347.8" y1="81.5" x2="345" y2="80.9"/>
			<line class="st5" x1="346.6" y1="85.6" x2="345.2" y2="83.2"/>
			<line class="st3" x1="344" y1="90" x2="345.3" y2="87.5"/>
			<line class="st4" x1="346.7" y1="92.9" x2="346.8" y2="90.2"/>
			<line class="st2" x1="342.3" y1="95.8" x2="342.4" y2="93"/>
			<line class="st6" x1="333.1" y1="79" x2="331.4" y2="76.8"/>
			<line class="st6" x1="349.5" y1="88.5" x2="349.6" y2="85.7"/>
			<line class="st3" x1="335.4" y1="93.2" x2="337.9" y2="94.4"/>
			<line class="st4" x1="332.5" y1="96" x2="335.3" y2="96"/>
			<line class="st2" x1="329.5" y1="91.6" x2="332.2" y2="91.6"/>
			<line class="st5" x1="329.8" y1="87.5" x2="331.6" y2="89.5"/>
			<line class="st3" x1="331.2" y1="82.6" x2="330.5" y2="85.3"/>
			<line class="st4" x1="327.8" y1="80.3" x2="328.5" y2="83.1"/>
			<line class="st6" x1="326.2" y1="85.3" x2="326.8" y2="87.9"/>
		</g>
		<path class="st0" d="M335.3,133.1c7.3,2.7,15.3-1.1,18-8.4c2.7-7.3-1.1-15.3-8.4-18c-7.3-2.7-15.3,1.1-18,8.4
			C324.3,122.4,328,130.5,335.3,133.1z M341.8,115.2c2.7,0.9,4,3.9,3,6.5c-0.9,2.7-3.9,4-6.5,3c-2.7-0.9-4-3.9-3-6.5
			C336.2,115.6,339.2,114.2,341.8,115.2z"/>
		<g>
			<path class="st1" d="M350.8,122.3c2.7-7.3-1.1-15.3-8.4-18c-7.3-2.7-15.3,1.1-18,8.4c-2.7,7.3,1.1,15.3,8.4,18
				S348.2,129.6,350.8,122.3z M332.9,115.8c0.9-2.7,3.9-4,6.5-3s4,3.9,3,6.5c-0.9,2.7-3.9,4-6.5,3
				C333.3,121.4,332,118.4,332.9,115.8z"/>
			<line class="st2" x1="338.7" y1="107.4" x2="336" y2="108.1"/>
			<line class="st3" x1="342.4" y1="110.8" x2="340.3" y2="109"/>
			<line class="st4" x1="345.9" y1="108.7" x2="343.2" y2="108.1"/>
			<line class="st2" x1="347.8" y1="113.6" x2="345" y2="113"/>
			<line class="st5" x1="346.6" y1="117.7" x2="345.2" y2="115.2"/>
			<line class="st3" x1="344" y1="122" x2="345.3" y2="119.5"/>
			<line class="st4" x1="346.7" y1="125" x2="346.8" y2="122.2"/>
			<line class="st2" x1="342.3" y1="127.8" x2="342.4" y2="125.1"/>
			<line class="st6" x1="333.1" y1="111.1" x2="331.4" y2="108.8"/>
			<line class="st6" x1="349.5" y1="120.6" x2="349.6" y2="117.9"/>
			<line class="st3" x1="335.4" y1="125.2" x2="337.9" y2="126.4"/>
			<line class="st4" x1="332.5" y1="128.1" x2="335.3" y2="128"/>
			<line class="st2" x1="329.5" y1="123.8" x2="332.2" y2="123.7"/>
			<line class="st5" x1="329.8" y1="119.5" x2="331.6" y2="121.6"/>
			<line class="st3" x1="331.2" y1="114.6" x2="330.5" y2="117.3"/>
			<line class="st4" x1="327.8" y1="112.4" x2="328.5" y2="115.1"/>
			<line class="st6" x1="326.2" y1="117.3" x2="326.8" y2="120"/>
		</g>
		<path class="st0" d="M335.3,165.2c7.3,2.7,15.3-1.1,18-8.4c2.7-7.3-1.1-15.3-8.4-18c-7.3-2.7-15.3,1.1-18,8.4
			C324.3,154.5,328,162.5,335.3,165.2z M341.8,147.2c2.7,0.9,4,3.9,3,6.5c-0.9,2.7-3.9,4-6.5,3c-2.7-0.9-4-3.9-3-6.5
			C336.2,147.6,339.2,146.3,341.8,147.2z"/>
		<g>
			<path class="st7" d="M350.8,154.4c2.7-7.3-1.1-15.3-8.4-18s-15.3,1.1-18,8.4c-2.7,7.3,1.1,15.3,8.4,18
				C340.2,165.4,348.2,161.7,350.8,154.4z M332.9,147.9c0.9-2.7,3.9-4,6.5-3s4,3.9,3,6.5c-0.9,2.7-3.9,4-6.5,3
				C333.3,153.4,332,150.6,332.9,147.9z"/>
			<line class="st2" x1="338.7" y1="139.4" x2="336" y2="140.2"/>
			<line class="st3" x1="342.4" y1="142.8" x2="340.3" y2="141.1"/>
			<line class="st4" x1="345.9" y1="140.8" x2="343.2" y2="140.2"/>
			<line class="st2" x1="347.8" y1="145.7" x2="345" y2="145.1"/>
			<line class="st5" x1="346.6" y1="149.7" x2="345.2" y2="147.3"/>
			<line class="st3" x1="344" y1="154.1" x2="345.3" y2="151.7"/>
			<line class="st4" x1="346.7" y1="157.1" x2="346.8" y2="154.3"/>
			<line class="st2" x1="342.3" y1="159.9" x2="342.4" y2="157.2"/>
			<line class="st6" x1="333.1" y1="143.1" x2="331.4" y2="141"/>
			<line class="st6" x1="349.5" y1="152.7" x2="349.6" y2="149.9"/>
			<line class="st3" x1="335.4" y1="157.4" x2="337.9" y2="158.6"/>
			<line class="st4" x1="332.5" y1="160.1" x2="335.3" y2="160.1"/>
			<line class="st2" x1="329.5" y1="155.8" x2="332.2" y2="155.8"/>
			<line class="st5" x1="329.8" y1="151.6" x2="331.6" y2="153.7"/>
			<line class="st3" x1="331.2" y1="146.8" x2="330.5" y2="149.5"/>
			<line class="st4" x1="327.8" y1="144.5" x2="328.5" y2="147.2"/>
			<line class="st6" x1="326.2" y1="149.5" x2="326.8" y2="152.1"/>
		</g>
		<path class="st0" d="M301.5,219.5c7.3,2.7,15.3-1.1,18-8.4s-1.1-15.3-8.4-18s-15.3,1.1-18,8.4
			C290.4,208.8,294.2,216.9,301.5,219.5z M308,201.6c2.7,0.9,4,3.9,3,6.5c-0.9,2.7-3.9,4-6.5,3s-4-3.9-3-6.5
			C302.4,201.9,305.4,200.6,308,201.6z"/>
		<g>
			<path class="st1" d="M317.1,208.7c2.7-7.3-1.1-15.3-8.4-18s-15.3,1.1-18,8.4c-2.7,7.3,1.1,15.3,8.4,18S314.4,216,317.1,208.7z
				 M299.1,202.2c0.9-2.7,3.9-4,6.5-3s4,3.9,3,6.5c-0.9,2.7-3.9,4-6.5,3C299.5,207.7,298.2,204.9,299.1,202.2z"/>
			<line class="st2" x1="304.9" y1="193.7" x2="302.2" y2="194.6"/>
			<line class="st3" x1="308.6" y1="197.1" x2="306.5" y2="195.4"/>
			<line class="st4" x1="312.1" y1="195.1" x2="309.4" y2="194.5"/>
			<line class="st2" x1="313.9" y1="200" x2="311.3" y2="199.4"/>
			<line class="st5" x1="312.8" y1="204.1" x2="311.4" y2="201.7"/>
			<line class="st3" x1="310.2" y1="208.4" x2="311.4" y2="206"/>
			<line class="st4" x1="312.9" y1="211.4" x2="313" y2="208.7"/>
			<line class="st2" x1="308.5" y1="214.3" x2="308.6" y2="211.5"/>
			<line class="st6" x1="299.3" y1="197.4" x2="297.5" y2="195.3"/>
			<line class="st6" x1="315.7" y1="207" x2="315.7" y2="204.2"/>
			<line class="st3" x1="301.6" y1="211.7" x2="304.1" y2="212.9"/>
			<line class="st4" x1="298.7" y1="214.5" x2="301.5" y2="214.5"/>
			<line class="st2" x1="295.7" y1="210.1" x2="298.5" y2="210.1"/>
			<line class="st5" x1="295.9" y1="205.9" x2="297.8" y2="207.9"/>
			<line class="st3" x1="297.4" y1="201.1" x2="296.7" y2="203.8"/>
			<line class="st4" x1="294" y1="198.8" x2="294.7" y2="201.5"/>
			<line class="st6" x1="292.4" y1="203.8" x2="293" y2="206.4"/>
		</g>
		<path class="st0" d="M301.5,283.6c7.3,2.7,15.3-1.1,18-8.4s-1.1-15.3-8.4-18s-15.3,1.1-18,8.4C290.4,273,294.2,281,301.5,283.6z
			 M308,265.7c2.7,0.9,4,3.9,3,6.5c-0.9,2.7-3.9,4-6.5,3c-2.7-0.9-4-3.9-3-6.5C302.4,266.1,305.4,264.7,308,265.7z"/>
		<g>
			<path class="st1" d="M317.1,272.9c2.7-7.3-1.1-15.3-8.4-18c-7.3-2.7-15.3,1.1-18,8.4c-2.7,7.3,1.1,15.3,8.4,18
				C306.4,283.9,314.4,280.2,317.1,272.9z M299.1,266.4c0.9-2.7,3.9-4,6.5-3c2.7,0.9,4,3.9,3,6.5c-0.9,2.7-3.9,4-6.5,3
				C299.5,271.9,298.2,269.1,299.1,266.4z"/>
			<line class="st2" x1="304.9" y1="257.9" x2="302.2" y2="258.7"/>
			<line class="st3" x1="308.6" y1="261.3" x2="306.5" y2="259.6"/>
			<line class="st4" x1="312.1" y1="259.3" x2="309.4" y2="258.7"/>
			<line class="st2" x1="313.9" y1="264.2" x2="311.3" y2="263.5"/>
			<line class="st5" x1="312.8" y1="268.2" x2="311.4" y2="265.8"/>
			<line class="st3" x1="310.2" y1="272.6" x2="311.4" y2="270.2"/>
			<line class="st4" x1="312.9" y1="275.6" x2="313" y2="272.8"/>
			<line class="st2" x1="308.5" y1="278.4" x2="308.6" y2="275.7"/>
			<line class="st6" x1="299.3" y1="261.6" x2="297.5" y2="259.5"/>
			<line class="st6" x1="315.7" y1="271.2" x2="315.7" y2="268.4"/>
			<line class="st3" x1="301.6" y1="275.8" x2="304.1" y2="277"/>
			<line class="st4" x1="298.7" y1="278.6" x2="301.5" y2="278.6"/>
			<line class="st2" x1="295.7" y1="274.3" x2="298.5" y2="274.2"/>
			<line class="st5" x1="295.9" y1="270.1" x2="297.8" y2="272.1"/>
			<line class="st3" x1="297.4" y1="265.3" x2="296.7" y2="268"/>
			<line class="st4" x1="294" y1="263" x2="294.7" y2="265.7"/>
			<line class="st6" x1="292.4" y1="268" x2="293" y2="270.6"/>
		</g>
		<path class="st0" d="M301.5,315.7c7.3,2.7,15.3-1.1,18-8.4s-1.1-15.3-8.4-18s-15.3,1.1-18,8.4S294.2,313.1,301.5,315.7z
			 M308,297.8c2.7,0.9,4,3.9,3,6.5c-0.9,2.7-3.9,4-6.5,3c-2.7-0.9-4-3.9-3-6.5C302.4,298.2,305.4,296.9,308,297.8z"/>
		<g>
			<path class="st7" d="M317.1,305c2.7-7.3-1.1-15.3-8.4-18s-15.3,1.1-18,8.4c-2.7,7.3,1.1,15.3,8.4,18S314.4,312.2,317.1,305z
				 M299.1,298.4c0.9-2.7,3.9-4,6.5-3c2.7,0.9,4,3.9,3,6.5c-0.9,2.7-3.9,4-6.5,3C299.5,304,298.2,301.1,299.1,298.4z"/>
			<line class="st2" x1="304.9" y1="290" x2="302.2" y2="290.8"/>
			<line class="st3" x1="308.6" y1="293.4" x2="306.5" y2="291.6"/>
			<line class="st4" x1="312.1" y1="291.3" x2="309.4" y2="290.7"/>
			<line class="st2" x1="313.9" y1="296.2" x2="311.3" y2="295.7"/>
			<line class="st5" x1="312.8" y1="300.3" x2="311.4" y2="297.9"/>
			<line class="st3" x1="310.2" y1="304.7" x2="311.4" y2="302.2"/>
			<line class="st4" x1="312.9" y1="307.6" x2="313" y2="304.9"/>
			<line class="st2" x1="308.5" y1="310.5" x2="308.6" y2="307.7"/>
			<line class="st6" x1="299.3" y1="293.7" x2="297.5" y2="291.5"/>
			<line class="st6" x1="315.7" y1="303.2" x2="315.7" y2="300.5"/>
			<line class="st3" x1="301.6" y1="307.9" x2="304.1" y2="309.1"/>
			<line class="st4" x1="298.7" y1="310.7" x2="301.5" y2="310.7"/>
			<line class="st2" x1="295.7" y1="306.3" x2="298.5" y2="306.3"/>
			<line class="st5" x1="295.9" y1="302.2" x2="297.8" y2="304.2"/>
			<line class="st3" x1="297.4" y1="297.3" x2="296.7" y2="300"/>
			<line class="st4" x1="294" y1="295.1" x2="294.7" y2="297.8"/>
			<line class="st6" x1="292.4" y1="300" x2="293" y2="302.7"/>
		</g>
		<path class="st0" d="M335.3,219.5c7.3,2.7,15.3-1.1,18-8.4s-1.1-15.3-8.4-18s-15.3,1.1-18,8.4C324.3,208.8,328,216.9,335.3,219.5z
			 M341.8,201.6c2.7,0.9,4,3.9,3,6.5s-3.9,4-6.5,3s-4-3.9-3-6.5C336.2,201.9,339.2,200.6,341.8,201.6z"/>
		<g>
			<path class="st7" d="M350.8,208.7c2.7-7.3-1.1-15.3-8.4-18s-15.3,1.1-18,8.4c-2.7,7.3,1.1,15.3,8.4,18S348.2,216,350.8,208.7z
				 M332.9,202.2c0.9-2.7,3.9-4,6.5-3s4,3.9,3,6.5c-0.9,2.7-3.9,4-6.5,3C333.3,207.7,332,204.9,332.9,202.2z"/>
			<line class="st2" x1="338.7" y1="193.7" x2="336" y2="194.6"/>
			<line class="st3" x1="342.4" y1="197.1" x2="340.3" y2="195.4"/>
			<line class="st4" x1="345.9" y1="195.1" x2="343.2" y2="194.5"/>
			<line class="st2" x1="347.8" y1="200" x2="345" y2="199.4"/>
			<line class="st5" x1="346.6" y1="204.1" x2="345.2" y2="201.7"/>
			<line class="st3" x1="344" y1="208.4" x2="345.3" y2="206"/>
			<line class="st4" x1="346.7" y1="211.4" x2="346.8" y2="208.7"/>
			<line class="st2" x1="342.3" y1="214.3" x2="342.4" y2="211.5"/>
			<line class="st6" x1="333.1" y1="197.4" x2="331.4" y2="195.3"/>
			<line class="st6" x1="349.5" y1="207" x2="349.6" y2="204.2"/>
			<line class="st3" x1="335.4" y1="211.7" x2="337.9" y2="212.9"/>
			<line class="st4" x1="332.5" y1="214.5" x2="335.3" y2="214.5"/>
			<line class="st2" x1="329.5" y1="210.1" x2="332.2" y2="210.1"/>
			<line class="st5" x1="329.8" y1="205.9" x2="331.6" y2="207.9"/>
			<line class="st3" x1="331.2" y1="201.1" x2="330.5" y2="203.8"/>
			<line class="st4" x1="327.8" y1="198.8" x2="328.5" y2="201.5"/>
			<line class="st6" x1="326.2" y1="203.8" x2="326.8" y2="206.4"/>
		</g>
		<path class="st0" d="M335.3,251.6c7.3,2.7,15.3-1.1,18-8.4s-1.1-15.3-8.4-18s-15.3,1.1-18,8.4C324.3,240.9,328,248.9,335.3,251.6z
			 M341.8,233.6c2.7,0.9,4,3.9,3,6.5c-0.9,2.7-3.9,4-6.5,3s-4-3.9-3-6.5C336.2,234.1,339.2,232.7,341.8,233.6z"/>
		<g>
			<path class="st1" d="M350.8,240.8c2.7-7.3-1.1-15.3-8.4-18c-7.3-2.7-15.3,1.1-18,8.4c-2.7,7.3,1.1,15.3,8.4,18
				C340.2,251.8,348.2,248.1,350.8,240.8z M332.9,234.3c0.9-2.7,3.9-4,6.5-3s4,3.9,3,6.5c-0.9,2.7-3.9,4-6.5,3
				C333.3,239.9,332,236.9,332.9,234.3z"/>
			<line class="st2" x1="338.7" y1="225.8" x2="336" y2="226.6"/>
			<line class="st3" x1="342.4" y1="229.2" x2="340.3" y2="227.4"/>
			<line class="st4" x1="345.9" y1="227.2" x2="343.2" y2="226.6"/>
			<line class="st2" x1="347.8" y1="232.1" x2="345" y2="231.5"/>
			<line class="st5" x1="346.6" y1="236.1" x2="345.2" y2="233.7"/>
			<line class="st3" x1="344" y1="240.5" x2="345.3" y2="238"/>
			<line class="st4" x1="346.7" y1="243.5" x2="346.8" y2="240.7"/>
			<line class="st2" x1="342.3" y1="246.3" x2="342.4" y2="243.6"/>
			<line class="st6" x1="333.1" y1="229.6" x2="331.4" y2="227.3"/>
			<line class="st6" x1="349.5" y1="239" x2="349.6" y2="236.4"/>
			<line class="st3" x1="335.4" y1="243.7" x2="337.9" y2="244.9"/>
			<line class="st4" x1="332.5" y1="246.6" x2="335.3" y2="246.5"/>
			<line class="st2" x1="329.5" y1="242.2" x2="332.2" y2="242.2"/>
			<line class="st5" x1="329.8" y1="238" x2="331.6" y2="240.1"/>
			<line class="st3" x1="331.2" y1="233.1" x2="330.5" y2="235.8"/>
			<line class="st4" x1="327.8" y1="230.9" x2="328.5" y2="233.6"/>
			<line class="st6" x1="326.2" y1="235.8" x2="326.8" y2="238.5"/>
		</g>
		<path class="st0" d="M335.3,315.7c7.3,2.7,15.3-1.1,18-8.4s-1.1-15.3-8.4-18s-15.3,1.1-18,8.4C324.3,305.1,328,313.1,335.3,315.7z
			 M341.8,297.8c2.7,0.9,4,3.9,3,6.5s-3.9,4-6.5,3c-2.7-0.9-4-3.9-3-6.5C336.2,298.2,339.2,296.9,341.8,297.8z"/>
		<g>
			<path class="st1" d="M350.8,305c2.7-7.3-1.1-15.3-8.4-18s-15.3,1.1-18,8.4c-2.7,7.3,1.1,15.3,8.4,18S348.2,312.2,350.8,305z
				 M332.9,298.4c0.9-2.7,3.9-4,6.5-3c2.7,0.9,4,3.9,3,6.5s-3.9,4-6.5,3C333.3,304,332,301.1,332.9,298.4z"/>
			<line class="st2" x1="338.7" y1="290" x2="336" y2="290.8"/>
			<line class="st3" x1="342.4" y1="293.4" x2="340.3" y2="291.6"/>
			<line class="st4" x1="345.9" y1="291.3" x2="343.2" y2="290.7"/>
			<line class="st2" x1="347.8" y1="296.2" x2="345" y2="295.7"/>
			<line class="st5" x1="346.6" y1="300.3" x2="345.2" y2="297.9"/>
			<line class="st3" x1="344" y1="304.7" x2="345.3" y2="302.2"/>
			<line class="st4" x1="346.7" y1="307.6" x2="346.8" y2="304.9"/>
			<line class="st2" x1="342.3" y1="310.5" x2="342.4" y2="307.7"/>
			<line class="st6" x1="333.1" y1="293.7" x2="331.4" y2="291.5"/>
			<line class="st6" x1="349.5" y1="303.2" x2="349.6" y2="300.5"/>
			<line class="st3" x1="335.4" y1="307.9" x2="337.9" y2="309.1"/>
			<line class="st4" x1="332.5" y1="310.7" x2="335.3" y2="310.7"/>
			<line class="st2" x1="329.5" y1="306.3" x2="332.2" y2="306.3"/>
			<line class="st5" x1="329.8" y1="302.2" x2="331.6" y2="304.2"/>
			<line class="st3" x1="331.2" y1="297.3" x2="330.5" y2="300"/>
			<line class="st4" x1="327.8" y1="295.1" x2="328.5" y2="297.8"/>
			<line class="st6" x1="326.2" y1="300" x2="326.8" y2="302.7"/>
		</g>
		<path class="st0" d="M335.3,347.8c7.3,2.7,15.3-1.1,18-8.4s-1.1-15.3-8.4-18c-7.3-2.7-15.3,1.1-18,8.4
			C324.3,337.2,328,345.2,335.3,347.8z M341.8,329.9c2.7,0.9,4,3.9,3,6.5s-3.9,4-6.5,3c-2.7-0.9-4-3.9-3-6.5
			C336.2,330.3,339.2,328.9,341.8,329.9z"/>
		<g>
			<path class="st7" d="M350.8,337.1c2.7-7.3-1.1-15.3-8.4-18s-15.3,1.1-18,8.4c-2.7,7.3,1.1,15.3,8.4,18
				C340.2,348.1,348.2,344.3,350.8,337.1z M332.9,330.6c0.9-2.7,3.9-4,6.5-3c2.7,0.9,4,3.9,3,6.5s-3.9,4-6.5,3
				C333.3,336.1,332,333.1,332.9,330.6z"/>
			<line class="st2" x1="338.7" y1="322.1" x2="336" y2="322.8"/>
			<line class="st3" x1="342.4" y1="325.5" x2="340.3" y2="323.8"/>
			<line class="st4" x1="345.9" y1="323.4" x2="343.2" y2="322.8"/>
			<line class="st2" x1="347.8" y1="328.4" x2="345" y2="327.7"/>
			<line class="st5" x1="346.6" y1="332.4" x2="345.2" y2="330"/>
			<line class="st3" x1="344" y1="336.7" x2="345.3" y2="334.3"/>
			<line class="st4" x1="346.7" y1="339.8" x2="346.8" y2="337"/>
			<line class="st2" x1="342.3" y1="342.5" x2="342.4" y2="339.8"/>
			<line class="st6" x1="333.1" y1="325.8" x2="331.4" y2="323.7"/>
			<line class="st6" x1="349.5" y1="335.4" x2="349.6" y2="332.6"/>
			<line class="st3" x1="335.4" y1="340" x2="337.9" y2="341.2"/>
			<line class="st4" x1="332.5" y1="342.8" x2="335.3" y2="342.7"/>
			<line class="st2" x1="329.5" y1="338.5" x2="332.2" y2="338.4"/>
			<line class="st5" x1="329.8" y1="334.2" x2="331.6" y2="336.3"/>
			<line class="st3" x1="331.2" y1="329.5" x2="330.5" y2="332.1"/>
			<line class="st4" x1="327.8" y1="327.2" x2="328.5" y2="329.8"/>
			<line class="st6" x1="326.2" y1="332" x2="326.8" y2="334.8"/>
		</g>
	</g>
</g>
</svg>
