<?xml version="1.0" encoding="utf-8"?>
<!-- Generator: Adobe Illustrator 22.0.1, SVG Export Plug-In . SVG Version: 6.00 Build 0)  -->
<svg version="1.0" id="Layer_1" xmlns="http://www.w3.org/2000/svg" xmlns:xlink="http://www.w3.org/1999/xlink" x="0px" y="0px"
	 viewBox="0 0 400 400" style="enable-background:new 0 0 400 400;" xml:space="preserve">
<style type="text/css">
	.st0{fill:#00CDC8;}
	.st1{fill:#FFFFFF;}
</style>
<g>
	<g>
		<g>
			<path class="st0" d="M26.4,146.7c-9.2,0-16.6-7.5-16.6-16.6s7.5-16.6,16.6-16.6S43,120.9,43,130.1S35.6,146.7,26.4,146.7z"/>
			<path class="st1" d="M26.4,115.5c8.1,0,14.6,6.6,14.6,14.6c0,8.1-6.6,14.6-14.6,14.6s-14.6-6.6-14.6-14.6
				C11.7,122,18.3,115.5,26.4,115.5 M26.4,111.5c-10.3,0-18.6,8.4-18.6,18.6s8.4,18.6,18.6,18.6S45,140.4,45,130.1
				S36.7,111.5,26.4,111.5L26.4,111.5z"/>
		</g>
		<g>
			<path class="st0" d="M64.8,146.7c-9.2,0-16.6-7.5-16.6-16.6s7.5-16.6,16.6-16.6s16.6,7.5,16.6,16.6S73.9,146.7,64.8,146.7z"/>
			<path class="st1" d="M64.8,115.5c8.1,0,14.6,6.6,14.6,14.6c0,8.1-6.6,14.6-14.6,14.6c-8.1,0-14.6-6.6-14.6-14.6
				C50.1,122,56.7,115.5,64.8,115.5 M64.8,111.5c-10.3,0-18.6,8.4-18.6,18.6s8.4,18.6,18.6,18.6s18.6-8.4,18.6-18.6
				S75,111.5,64.8,111.5L64.8,111.5z"/>
		</g>
		<g>
			<path class="st0" d="M103.2,146.7c-9.2,0-16.6-7.5-16.6-16.6s7.5-16.6,16.6-16.6s16.6,7.5,16.6,16.6S112.3,146.7,103.2,146.7z"/>
			<path class="st1" d="M103.2,115.5c8.1,0,14.6,6.6,14.6,14.6c0,8.1-6.6,14.6-14.6,14.6c-8.1,0-14.6-6.6-14.6-14.6
				C88.5,122,95.1,115.5,103.2,115.5 M103.2,111.5c-10.3,0-18.6,8.4-18.6,18.6s8.4,18.6,18.6,18.6s18.6-8.4,18.6-18.6
				S113.4,111.5,103.2,111.5L103.2,111.5z"/>
		</g>
		<g>
			<path class="st0" d="M141.5,146.7c-9.2,0-16.6-7.5-16.6-16.6s7.5-16.6,16.6-16.6s16.6,7.5,16.6,16.6S150.7,146.7,141.5,146.7z"/>
			<path class="st1" d="M141.5,115.5c8.1,0,14.6,6.6,14.6,14.6c0,8.1-6.6,14.6-14.6,14.6s-14.6-6.6-14.6-14.6
				C126.9,122,133.5,115.5,141.5,115.5 M141.5,111.5c-10.3,0-18.6,8.4-18.6,18.6s8.4,18.6,18.6,18.6s18.6-8.4,18.6-18.6
				S151.8,111.5,141.5,111.5L141.5,111.5z"/>
		</g>
		<g>
			<path class="st0" d="M179.9,146.7c-9.2,0-16.6-7.5-16.6-16.6s7.5-16.6,16.6-16.6s16.6,7.5,16.6,16.6S189.1,146.7,179.9,146.7z"/>
			<path class="st1" d="M179.9,115.5c8.1,0,14.6,6.6,14.6,14.6c0,8.1-6.6,14.6-14.6,14.6s-14.6-6.6-14.6-14.6
				C165.3,122,171.8,115.5,179.9,115.5 M179.9,111.5c-10.3,0-18.6,8.4-18.6,18.6s8.4,18.6,18.6,18.6s18.6-8.4,18.6-18.6
				S190.2,111.5,179.9,111.5L179.9,111.5z"/>
		</g>
		<g>
			<path class="st0" d="M218.3,146.7c-9.2,0-16.6-7.5-16.6-16.6s7.5-16.6,16.6-16.6c9.2,0,16.6,7.5,16.6,16.6
				S227.5,146.7,218.3,146.7z"/>
			<path class="st1" d="M218.3,115.5c8.1,0,14.6,6.6,14.6,14.6c0,8.1-6.6,14.6-14.6,14.6c-8.1,0-14.6-6.6-14.6-14.6
				C203.7,122,210.2,115.5,218.3,115.5 M218.3,111.5c-10.3,0-18.6,8.4-18.6,18.6s8.4,18.6,18.6,18.6c10.3,0,18.6-8.4,18.6-18.6
				S228.6,111.5,218.3,111.5L218.3,111.5z"/>
		</g>
		<g>
			<path class="st0" d="M256.7,146.7c-9.2,0-16.6-7.5-16.6-16.6s7.5-16.6,16.6-16.6c9.2,0,16.6,7.5,16.6,16.6
				S265.9,146.7,256.7,146.7z"/>
			<path class="st1" d="M256.7,115.5c8.1,0,14.6,6.6,14.6,14.6c0,8.1-6.6,14.6-14.6,14.6c-8.1,0-14.6-6.6-14.6-14.6
				C242.1,122,248.6,115.5,256.7,115.5 M256.7,111.5c-10.3,0-18.6,8.4-18.6,18.6s8.4,18.6,18.6,18.6s18.6-8.4,18.6-18.6
				S267,111.5,256.7,111.5L256.7,111.5z"/>
		</g>
		<g>
			<path class="st0" d="M295.1,146.7c-9.2,0-16.6-7.5-16.6-16.6s7.5-16.6,16.6-16.6s16.6,7.5,16.6,16.6S304.3,146.7,295.1,146.7z"/>
			<path class="st1" d="M295.1,115.5c8.1,0,14.6,6.6,14.6,14.6c0,8.1-6.6,14.6-14.6,14.6s-14.6-6.6-14.6-14.6
				C280.5,122,287,115.5,295.1,115.5 M295.1,111.5c-10.3,0-18.6,8.4-18.6,18.6s8.4,18.6,18.6,18.6s18.6-8.4,18.6-18.6
				S305.4,111.5,295.1,111.5L295.1,111.5z"/>
		</g>
		<g>
			<path class="st0" d="M333.5,146.7c-9.2,0-16.6-7.5-16.6-16.6s7.5-16.6,16.6-16.6s16.6,7.5,16.6,16.6S342.7,146.7,333.5,146.7z"/>
			<path class="st1" d="M333.5,115.5c8.1,0,14.6,6.6,14.6,14.6c0,8.1-6.6,14.6-14.6,14.6s-14.6-6.6-14.6-14.6
				C318.8,122,325.4,115.5,333.5,115.5 M333.5,111.5c-10.3,0-18.6,8.4-18.6,18.6s8.4,18.6,18.6,18.6s18.6-8.4,18.6-18.6
				S343.8,111.5,333.5,111.5L333.5,111.5z"/>
		</g>
		<g>
			<path class="st0" d="M371.9,146.7c-9.2,0-16.6-7.5-16.6-16.6s7.5-16.6,16.6-16.6c9.2,0,16.6,7.5,16.6,16.6
				S381.1,146.7,371.9,146.7z"/>
			<path class="st1" d="M371.9,115.5c8.1,0,14.6,6.6,14.6,14.6c0,8.1-6.6,14.6-14.6,14.6s-14.6-6.6-14.6-14.6
				C357.2,122,363.8,115.5,371.9,115.5 M371.9,111.5c-10.3,0-18.6,8.4-18.6,18.6s8.4,18.6,18.6,18.6s18.6-8.4,18.6-18.6
				S382.2,111.5,371.9,111.5L371.9,111.5z"/>
		</g>
	</g>
	<g>
		<g>
			<circle class="st0" cx="26.4" cy="176.4" r="16.6"/>
			<path class="st1" d="M26.4,161.8c8.1,0,14.6,6.6,14.6,14.6S34.5,191,26.4,191s-14.6-6.6-14.6-14.6S18.3,161.8,26.4,161.8
				 M26.4,157.8c-10.3,0-18.6,8.4-18.6,18.6S16.1,195,26.4,195S45,186.7,45,176.4S36.7,157.8,26.4,157.8L26.4,157.8z"/>
		</g>
		<g>
			<path class="st0" d="M64.8,193c-9.2,0-16.6-7.5-16.6-16.6s7.5-16.6,16.6-16.6s16.6,7.5,16.6,16.6S73.9,193,64.8,193z"/>
			<path class="st1" d="M64.8,161.8c8.1,0,14.6,6.6,14.6,14.6S72.9,191,64.8,191c-8.1,0-14.6-6.6-14.6-14.6S56.7,161.8,64.8,161.8
				 M64.8,157.8c-10.3,0-18.6,8.4-18.6,18.6S54.5,195,64.8,195s18.6-8.4,18.6-18.6S75,157.8,64.8,157.8L64.8,157.8z"/>
		</g>
		<g>
			<circle class="st0" cx="103.2" cy="176.4" r="16.6"/>
			<path class="st1" d="M103.2,161.8c8.1,0,14.6,6.6,14.6,14.6s-6.6,14.6-14.6,14.6c-8.1,0-14.6-6.6-14.6-14.6
				S95.1,161.8,103.2,161.8 M103.2,157.8c-10.3,0-18.6,8.4-18.6,18.6s8.4,18.6,18.6,18.6s18.6-8.4,18.6-18.6
				S113.4,157.8,103.2,157.8L103.2,157.8z"/>
		</g>
		<g>
			<path class="st0" d="M141.5,193c-9.2,0-16.6-7.5-16.6-16.6s7.5-16.6,16.6-16.6s16.6,7.5,16.6,16.6S150.7,193,141.5,193z"/>
			<path class="st1" d="M141.5,161.8c8.1,0,14.6,6.6,14.6,14.6s-6.6,14.6-14.6,14.6s-14.6-6.6-14.6-14.6S133.5,161.8,141.5,161.8
				 M141.5,157.8c-10.3,0-18.6,8.4-18.6,18.6s8.4,18.6,18.6,18.6s18.6-8.4,18.6-18.6S151.8,157.8,141.5,157.8L141.5,157.8z"/>
		</g>
		<g>
			<circle class="st0" cx="179.9" cy="176.4" r="16.6"/>
			<path class="st1" d="M179.9,161.8c8.1,0,14.6,6.6,14.6,14.6S188,191,179.9,191s-14.6-6.6-14.6-14.6S171.8,161.8,179.9,161.8
				 M179.9,157.8c-10.3,0-18.6,8.4-18.6,18.6s8.4,18.6,18.6,18.6s18.6-8.4,18.6-18.6S190.2,157.8,179.9,157.8L179.9,157.8z"/>
		</g>
		<g>
			<path class="st0" d="M218.3,193c-9.2,0-16.6-7.5-16.6-16.6s7.5-16.6,16.6-16.6c9.2,0,16.6,7.5,16.6,16.6S227.5,193,218.3,193z"/>
			<path class="st1" d="M218.3,161.8c8.1,0,14.6,6.6,14.6,14.6s-6.6,14.6-14.6,14.6c-8.1,0-14.6-6.6-14.6-14.6
				S210.2,161.8,218.3,161.8 M218.3,157.8c-10.3,0-18.6,8.4-18.6,18.6S208,195,218.3,195c10.3,0,18.6-8.4,18.6-18.6
				S228.6,157.8,218.3,157.8L218.3,157.8z"/>
		</g>
		<g>
			<path class="st0" d="M256.7,193c-9.2,0-16.6-7.5-16.6-16.6s7.5-16.6,16.6-16.6c9.2,0,16.6,7.5,16.6,16.6S265.9,193,256.7,193z"/>
			<path class="st1" d="M256.7,161.8c8.1,0,14.6,6.6,14.6,14.6s-6.6,14.6-14.6,14.6c-8.1,0-14.6-6.6-14.6-14.6
				S248.6,161.8,256.7,161.8 M256.7,157.8c-10.3,0-18.6,8.4-18.6,18.6s8.4,18.6,18.6,18.6s18.6-8.4,18.6-18.6S267,157.8,256.7,157.8
				L256.7,157.8z"/>
		</g>
		<g>
			<circle class="st0" cx="295.1" cy="176.4" r="16.6"/>
			<path class="st1" d="M295.1,161.8c8.1,0,14.6,6.6,14.6,14.6s-6.6,14.6-14.6,14.6s-14.6-6.6-14.6-14.6S287,161.8,295.1,161.8
				 M295.1,157.8c-10.3,0-18.6,8.4-18.6,18.6s8.4,18.6,18.6,18.6s18.6-8.4,18.6-18.6S305.4,157.8,295.1,157.8L295.1,157.8z"/>
		</g>
		<g>
			<circle class="st0" cx="333.5" cy="176.4" r="16.6"/>
			<path class="st1" d="M333.5,161.8c8.1,0,14.6,6.6,14.6,14.6s-6.6,14.6-14.6,14.6s-14.6-6.6-14.6-14.6S325.4,161.8,333.5,161.8
				 M333.5,157.8c-10.3,0-18.6,8.4-18.6,18.6s8.4,18.6,18.6,18.6s18.6-8.4,18.6-18.6S343.8,157.8,333.5,157.8L333.5,157.8z"/>
		</g>
		<g>
			<path class="st0" d="M371.9,193c-9.2,0-16.6-7.5-16.6-16.6s7.5-16.6,16.6-16.6c9.2,0,16.6,7.5,16.6,16.6S381.1,193,371.9,193z"/>
			<path class="st1" d="M371.9,161.8c8.1,0,14.6,6.6,14.6,14.6S380,191,371.9,191s-14.6-6.6-14.6-14.6S363.8,161.8,371.9,161.8
				 M371.9,157.8c-10.3,0-18.6,8.4-18.6,18.6s8.4,18.6,18.6,18.6s18.6-8.4,18.6-18.6S382.2,157.8,371.9,157.8L371.9,157.8z"/>
		</g>
	</g>
	<g>
		<g>
			<circle class="st0" cx="26.4" cy="222.7" r="16.6"/>
			<path class="st1" d="M26.4,208.1c8.1,0,14.6,6.6,14.6,14.6c0,8.1-6.6,14.6-14.6,14.6s-14.6-6.6-14.6-14.6
				C11.7,214.6,18.3,208.1,26.4,208.1 M26.4,204.1c-10.3,0-18.6,8.4-18.6,18.6c0,10.3,8.4,18.6,18.6,18.6S45,233,45,222.7
				C45,212.4,36.7,204.1,26.4,204.1L26.4,204.1z"/>
		</g>
		<g>
			<path class="st0" d="M64.8,239.4c-9.2,0-16.6-7.5-16.6-16.6s7.5-16.6,16.6-16.6s16.6,7.5,16.6,16.6S73.9,239.4,64.8,239.4z"/>
			<path class="st1" d="M64.8,208.1c8.1,0,14.6,6.6,14.6,14.6c0,8.1-6.6,14.6-14.6,14.6c-8.1,0-14.6-6.6-14.6-14.6
				C50.1,214.6,56.7,208.1,64.8,208.1 M64.8,204.1c-10.3,0-18.6,8.4-18.6,18.6c0,10.3,8.4,18.6,18.6,18.6s18.6-8.4,18.6-18.6
				C83.4,212.4,75,204.1,64.8,204.1L64.8,204.1z"/>
		</g>
		<g>
			<circle class="st0" cx="103.2" cy="222.7" r="16.6"/>
			<path class="st1" d="M103.2,208.1c8.1,0,14.6,6.6,14.6,14.6c0,8.1-6.6,14.6-14.6,14.6c-8.1,0-14.6-6.6-14.6-14.6
				C88.5,214.6,95.1,208.1,103.2,208.1 M103.2,204.1c-10.3,0-18.6,8.4-18.6,18.6c0,10.3,8.4,18.6,18.6,18.6s18.6-8.4,18.6-18.6
				C121.8,212.4,113.4,204.1,103.2,204.1L103.2,204.1z"/>
		</g>
		<g>
			<path class="st0" d="M141.5,239.4c-9.2,0-16.6-7.5-16.6-16.6s7.5-16.6,16.6-16.6s16.6,7.5,16.6,16.6S150.7,239.4,141.5,239.4z"/>
			<path class="st1" d="M141.5,208.1c8.1,0,14.6,6.6,14.6,14.6c0,8.1-6.6,14.6-14.6,14.6s-14.6-6.6-14.6-14.6
				C126.9,214.6,133.5,208.1,141.5,208.1 M141.5,204.1c-10.3,0-18.6,8.4-18.6,18.6c0,10.3,8.4,18.6,18.6,18.6s18.6-8.4,18.6-18.6
				C160.2,212.4,151.8,204.1,141.5,204.1L141.5,204.1z"/>
		</g>
		<g>
			<circle class="st0" cx="179.9" cy="222.7" r="16.6"/>
			<path class="st1" d="M179.9,208.1c8.1,0,14.6,6.6,14.6,14.6c0,8.1-6.6,14.6-14.6,14.6s-14.6-6.6-14.6-14.6
				C165.3,214.6,171.8,208.1,179.9,208.1 M179.9,204.1c-10.3,0-18.6,8.4-18.6,18.6c0,10.3,8.4,18.6,18.6,18.6s18.6-8.4,18.6-18.6
				C198.6,212.4,190.2,204.1,179.9,204.1L179.9,204.1z"/>
		</g>
		<g>
			<path class="st0" d="M218.3,239.4c-9.2,0-16.6-7.5-16.6-16.6s7.5-16.6,16.6-16.6c9.2,0,16.6,7.5,16.6,16.6
				S227.5,239.4,218.3,239.4z"/>
			<path class="st1" d="M218.3,208.1c8.1,0,14.6,6.6,14.6,14.6c0,8.1-6.6,14.6-14.6,14.6c-8.1,0-14.6-6.6-14.6-14.6
				C203.7,214.6,210.2,208.1,218.3,208.1 M218.3,204.1c-10.3,0-18.6,8.4-18.6,18.6c0,10.3,8.4,18.6,18.6,18.6
				c10.3,0,18.6-8.4,18.6-18.6C237,212.4,228.6,204.1,218.3,204.1L218.3,204.1z"/>
		</g>
		<g>
			<path class="st0" d="M256.7,239.4c-9.2,0-16.6-7.5-16.6-16.6s7.5-16.6,16.6-16.6c9.2,0,16.6,7.5,16.6,16.6
				S265.9,239.4,256.7,239.4z"/>
			<path class="st1" d="M256.7,208.1c8.1,0,14.6,6.6,14.6,14.6c0,8.1-6.6,14.6-14.6,14.6c-8.1,0-14.6-6.6-14.6-14.6
				C242.1,214.6,248.6,208.1,256.7,208.1 M256.7,204.1c-10.3,0-18.6,8.4-18.6,18.6c0,10.3,8.4,18.6,18.6,18.6s18.6-8.4,18.6-18.6
				C275.4,212.4,267,204.1,256.7,204.1L256.7,204.1z"/>
		</g>
		<g>
			<circle class="st0" cx="295.1" cy="222.7" r="16.6"/>
			<path class="st1" d="M295.1,208.1c8.1,0,14.6,6.6,14.6,14.6c0,8.1-6.6,14.6-14.6,14.6s-14.6-6.6-14.6-14.6
				C280.5,214.6,287,208.1,295.1,208.1 M295.1,204.1c-10.3,0-18.6,8.4-18.6,18.6c0,10.3,8.4,18.6,18.6,18.6s18.6-8.4,18.6-18.6
				C313.7,212.4,305.4,204.1,295.1,204.1L295.1,204.1z"/>
		</g>
		<g>
			<circle class="st0" cx="333.5" cy="222.7" r="16.6"/>
			<path class="st1" d="M333.5,208.1c8.1,0,14.6,6.6,14.6,14.6c0,8.1-6.6,14.6-14.6,14.6s-14.6-6.6-14.6-14.6
				C318.8,214.6,325.4,208.1,333.5,208.1 M333.5,204.1c-10.3,0-18.6,8.4-18.6,18.6c0,10.3,8.4,18.6,18.6,18.6s18.6-8.4,18.6-18.6
				C352.1,212.4,343.8,204.1,333.5,204.1L333.5,204.1z"/>
		</g>
		<g>
			<path class="st0" d="M371.9,239.4c-9.2,0-16.6-7.5-16.6-16.6s7.5-16.6,16.6-16.6c9.2,0,16.6,7.5,16.6,16.6
				S381.1,239.4,371.9,239.4z"/>
			<path class="st1" d="M371.9,208.1c8.1,0,14.6,6.6,14.6,14.6c0,8.1-6.6,14.6-14.6,14.6s-14.6-6.6-14.6-14.6
				C357.2,214.6,363.8,208.1,371.9,208.1 M371.9,204.1c-10.3,0-18.6,8.4-18.6,18.6c0,10.3,8.4,18.6,18.6,18.6s18.6-8.4,18.6-18.6
				C390.5,212.4,382.2,204.1,371.9,204.1L371.9,204.1z"/>
		</g>
	</g>
	<g>
		<g>
			<path class="st0" d="M26.4,285.7c-9.2,0-16.6-7.5-16.6-16.6c0-9.2,7.5-16.6,16.6-16.6S43,259.8,43,269
				C43,278.2,35.6,285.7,26.4,285.7z"/>
			<path class="st1" d="M26.4,254.4c8.1,0,14.6,6.6,14.6,14.6s-6.6,14.6-14.6,14.6s-14.6-6.6-14.6-14.6S18.3,254.4,26.4,254.4
				 M26.4,250.4c-10.3,0-18.6,8.4-18.6,18.6s8.4,18.6,18.6,18.6S45,279.3,45,269S36.7,250.4,26.4,250.4L26.4,250.4z"/>
		</g>
		<g>
			<path class="st0" d="M64.8,285.7c-9.2,0-16.6-7.5-16.6-16.6c0-9.2,7.5-16.6,16.6-16.6s16.6,7.5,16.6,16.6
				C81.4,278.2,73.9,285.7,64.8,285.7z"/>
			<path class="st1" d="M64.8,254.4c8.1,0,14.6,6.6,14.6,14.6s-6.6,14.6-14.6,14.6c-8.1,0-14.6-6.6-14.6-14.6S56.7,254.4,64.8,254.4
				 M64.8,250.4c-10.3,0-18.6,8.4-18.6,18.6s8.4,18.6,18.6,18.6s18.6-8.4,18.6-18.6S75,250.4,64.8,250.4L64.8,250.4z"/>
		</g>
		<g>
			<path class="st0" d="M103.2,285.7c-9.2,0-16.6-7.5-16.6-16.6c0-9.2,7.5-16.6,16.6-16.6s16.6,7.5,16.6,16.6
				C119.8,278.2,112.3,285.7,103.2,285.7z"/>
			<path class="st1" d="M103.2,254.4c8.1,0,14.6,6.6,14.6,14.6s-6.6,14.6-14.6,14.6c-8.1,0-14.6-6.6-14.6-14.6
				S95.1,254.4,103.2,254.4 M103.2,250.4c-10.3,0-18.6,8.4-18.6,18.6s8.4,18.6,18.6,18.6s18.6-8.4,18.6-18.6
				S113.4,250.4,103.2,250.4L103.2,250.4z"/>
		</g>
		<g>
			<path class="st0" d="M141.5,285.7c-9.2,0-16.6-7.5-16.6-16.6c0-9.2,7.5-16.6,16.6-16.6s16.6,7.5,16.6,16.6
				C158.2,278.2,150.7,285.7,141.5,285.7z"/>
			<path class="st1" d="M141.5,254.4c8.1,0,14.6,6.6,14.6,14.6s-6.6,14.6-14.6,14.6s-14.6-6.6-14.6-14.6S133.5,254.4,141.5,254.4
				 M141.5,250.4c-10.3,0-18.6,8.4-18.6,18.6s8.4,18.6,18.6,18.6s18.6-8.4,18.6-18.6S151.8,250.4,141.5,250.4L141.5,250.4z"/>
		</g>
	</g>
</g>
</svg>
