<?xml version="1.0" encoding="utf-8"?>
<!-- Generator: Adobe Illustrator 22.0.1, SVG Export Plug-In . SVG Version: 6.00 Build 0)  -->
<svg version="1.0" id="Layer_1" xmlns="http://www.w3.org/2000/svg" xmlns:xlink="http://www.w3.org/1999/xlink" x="0px" y="0px"
	 viewBox="0 0 400 400" style="enable-background:new 0 0 400 400;" xml:space="preserve">
<style type="text/css">
	.st0{fill:#00CDC8;}
	.st1{fill:#FFFFFF;}
</style>
<g>
	<g>
		<g>
			<path class="st0" d="M26.4,327.8c-9.2,0-16.6-7.5-16.6-16.6c0-9.2,7.5-16.6,16.6-16.6S43,301.8,43,311S35.6,327.8,26.4,327.8z"/>
			<path class="st1" d="M26.4,296.4c8.1,0,14.6,6.6,14.6,14.6s-6.6,14.6-14.6,14.6S11.8,319,11.8,311S18.3,296.4,26.4,296.4
				 M26.4,292.4c-10.3,0-18.6,8.4-18.6,18.6s8.4,18.6,18.6,18.6S45,321.3,45,311S36.7,292.4,26.4,292.4L26.4,292.4z"/>
		</g>
		<g>
			<path class="st0" d="M64.8,327.8c-9.2,0-16.6-7.5-16.6-16.6c0-9.2,7.5-16.6,16.6-16.6s16.6,7.5,16.6,16.6S73.9,327.8,64.8,327.8z
				"/>
			<path class="st1" d="M64.8,296.4c8.1,0,14.6,6.6,14.6,14.6s-6.6,14.6-14.6,14.6c-8.1,0-14.6-6.6-14.6-14.6S56.7,296.4,64.8,296.4
				 M64.8,292.4c-10.3,0-18.6,8.4-18.6,18.6s8.4,18.6,18.6,18.6s18.6-8.4,18.6-18.6S75,292.4,64.8,292.4L64.8,292.4z"/>
		</g>
	</g>
</g>
<g>
	<g>
		<path class="st0" d="M26.4,137c-9.2,0-16.6-7.5-16.6-16.6s7.5-16.6,16.6-16.6S43,111.2,43,120.4C43,129.7,35.6,137,26.4,137z"/>
		<path class="st1" d="M26.4,105.8c8.1,0,14.6,6.6,14.6,14.6c0,8.1-6.6,14.6-14.6,14.6s-14.6-6.6-14.6-14.6
			C11.7,112.3,18.3,105.8,26.4,105.8 M26.4,101.8c-10.3,0-18.6,8.4-18.6,18.6c0,10.2,8.4,18.6,18.6,18.6S45,130.7,45,120.4
			S36.7,101.8,26.4,101.8L26.4,101.8z"/>
	</g>
	<g>
		<path class="st0" d="M64.8,137c-9.2,0-16.6-7.5-16.6-16.6s7.5-16.6,16.6-16.6s16.6,7.5,16.6,16.6S73.9,137,64.8,137z"/>
		<path class="st1" d="M64.8,105.8c8.1,0,14.6,6.6,14.6,14.6c0,8.1-6.6,14.6-14.6,14.6c-8.1,0-14.6-6.6-14.6-14.6
			C50.1,112.3,56.7,105.8,64.8,105.8 M64.8,101.8c-10.3,0-18.6,8.4-18.6,18.6c0,10.2,8.4,18.6,18.6,18.6s18.6-8.4,18.6-18.6
			S75,101.8,64.8,101.8L64.8,101.8z"/>
	</g>
	<g>
		<path class="st0" d="M103.2,137c-9.2,0-16.6-7.5-16.6-16.6s7.5-16.6,16.6-16.6s16.6,7.5,16.6,16.6S112.3,137,103.2,137z"/>
		<path class="st1" d="M103.2,105.8c8.1,0,14.6,6.6,14.6,14.6c0,8.1-6.6,14.6-14.6,14.6c-8.1,0-14.6-6.6-14.6-14.6
			C88.5,112.3,95.1,105.8,103.2,105.8 M103.2,101.8c-10.3,0-18.6,8.4-18.6,18.6c0,10.2,8.4,18.6,18.6,18.6s18.6-8.4,18.6-18.6
			S113.4,101.8,103.2,101.8L103.2,101.8z"/>
	</g>
	<g>
		<path class="st0" d="M141.5,137c-9.2,0-16.6-7.5-16.6-16.6s7.5-16.6,16.6-16.6s16.6,7.5,16.6,16.6S150.7,137,141.5,137z"/>
		<path class="st1" d="M141.5,105.8c8.1,0,14.6,6.6,14.6,14.6c0,8.1-6.6,14.6-14.6,14.6s-14.6-6.6-14.6-14.6
			C126.9,112.3,133.5,105.8,141.5,105.8 M141.5,101.8c-10.3,0-18.6,8.4-18.6,18.6c0,10.2,8.4,18.6,18.6,18.6s18.6-8.4,18.6-18.6
			S151.8,101.8,141.5,101.8L141.5,101.8z"/>
	</g>
	<g>
		<path class="st0" d="M179.9,137c-9.2,0-16.6-7.5-16.6-16.6s7.5-16.6,16.6-16.6s16.6,7.5,16.6,16.6S189.1,137,179.9,137z"/>
		<path class="st1" d="M179.9,105.8c8.1,0,14.6,6.6,14.6,14.6c0,8.1-6.6,14.6-14.6,14.6s-14.6-6.6-14.6-14.6
			C165.3,112.3,171.8,105.8,179.9,105.8 M179.9,101.8c-10.3,0-18.6,8.4-18.6,18.6c0,10.2,8.4,18.6,18.6,18.6s18.6-8.4,18.6-18.6
			S190.2,101.8,179.9,101.8L179.9,101.8z"/>
	</g>
	<g>
		<path class="st0" d="M218.3,137c-9.2,0-16.6-7.5-16.6-16.6s7.5-16.6,16.6-16.6c9.2,0,16.6,7.5,16.6,16.6S227.5,137,218.3,137z"/>
		<path class="st1" d="M218.3,105.8c8.1,0,14.6,6.6,14.6,14.6c0,8.1-6.6,14.6-14.6,14.6c-8.1,0-14.6-6.6-14.6-14.6
			C203.7,112.3,210.2,105.8,218.3,105.8 M218.3,101.8c-10.3,0-18.6,8.4-18.6,18.6c0,10.2,8.4,18.6,18.6,18.6
			c10.3,0,18.6-8.4,18.6-18.6S228.6,101.8,218.3,101.8L218.3,101.8z"/>
	</g>
	<g>
		<path class="st0" d="M256.7,137c-9.2,0-16.6-7.5-16.6-16.6s7.5-16.6,16.6-16.6c9.2,0,16.6,7.5,16.6,16.6S265.9,137,256.7,137z"/>
		<path class="st1" d="M256.7,105.8c8.1,0,14.6,6.6,14.6,14.6c0,8.1-6.6,14.6-14.6,14.6c-8.1,0-14.6-6.6-14.6-14.6
			C242.1,112.3,248.6,105.8,256.7,105.8 M256.7,101.8c-10.3,0-18.6,8.4-18.6,18.6c0,10.2,8.4,18.6,18.6,18.6s18.6-8.4,18.6-18.6
			S267,101.8,256.7,101.8L256.7,101.8z"/>
	</g>
	<g>
		<path class="st0" d="M295.1,137c-9.2,0-16.6-7.5-16.6-16.6s7.5-16.6,16.6-16.6s16.6,7.5,16.6,16.6S304.3,137,295.1,137z"/>
		<path class="st1" d="M295.1,105.8c8.1,0,14.6,6.6,14.6,14.6c0,8.1-6.6,14.6-14.6,14.6s-14.6-6.6-14.6-14.6
			C280.5,112.3,287,105.8,295.1,105.8 M295.1,101.8c-10.3,0-18.6,8.4-18.6,18.6c0,10.2,8.4,18.6,18.6,18.6s18.6-8.4,18.6-18.6
			S305.4,101.8,295.1,101.8L295.1,101.8z"/>
	</g>
	<g>
		<path class="st0" d="M333.5,137c-9.2,0-16.6-7.5-16.6-16.6s7.5-16.6,16.6-16.6s16.6,7.5,16.6,16.6S342.7,137,333.5,137z"/>
		<path class="st1" d="M333.5,105.8c8.1,0,14.6,6.6,14.6,14.6c0,8.1-6.6,14.6-14.6,14.6s-14.6-6.6-14.6-14.6
			C318.8,112.3,325.4,105.8,333.5,105.8 M333.5,101.8c-10.3,0-18.6,8.4-18.6,18.6c0,10.2,8.4,18.6,18.6,18.6s18.6-8.4,18.6-18.6
			S343.8,101.8,333.5,101.8L333.5,101.8z"/>
	</g>
	<g>
		<path class="st0" d="M371.9,137c-9.2,0-16.6-7.5-16.6-16.6s7.5-16.6,16.6-16.6c9.2,0,16.6,7.5,16.6,16.6S381.1,137,371.9,137z"/>
		<path class="st1" d="M371.9,105.8c8.1,0,14.6,6.6,14.6,14.6c0,8.1-6.6,14.6-14.6,14.6s-14.6-6.6-14.6-14.6
			C357.2,112.3,363.8,105.8,371.9,105.8 M371.9,101.8c-10.3,0-18.6,8.4-18.6,18.6c0,10.2,8.4,18.6,18.6,18.6s18.6-8.4,18.6-18.6
			S382.2,101.8,371.9,101.8L371.9,101.8z"/>
	</g>
</g>
<g>
	<g>
		<path class="st0" d="M26.4,184.7c-9.2,0-16.6-7.5-16.6-16.6s7.5-16.6,16.6-16.6S43,158.9,43,168.1C43,177.3,35.6,184.7,26.4,184.7
			z"/>
		<path class="st1" d="M26.4,153.5c8.1,0,14.6,6.6,14.6,14.6c0,8.1-6.6,14.6-14.6,14.6s-14.6-6.6-14.6-14.6
			C11.7,160,18.3,153.5,26.4,153.5 M26.4,149.5c-10.3,0-18.6,8.4-18.6,18.6c0,10.2,8.4,18.6,18.6,18.6S45,178.4,45,168.1
			S36.7,149.5,26.4,149.5L26.4,149.5z"/>
	</g>
	<g>
		<path class="st0" d="M64.8,184.7c-9.2,0-16.6-7.5-16.6-16.6s7.5-16.6,16.6-16.6s16.6,7.5,16.6,16.6S73.9,184.7,64.8,184.7z"/>
		<path class="st1" d="M64.8,153.5c8.1,0,14.6,6.6,14.6,14.6c0,8.1-6.6,14.6-14.6,14.6c-8.1,0-14.6-6.6-14.6-14.6
			C50.1,160,56.7,153.5,64.8,153.5 M64.8,149.5c-10.3,0-18.6,8.4-18.6,18.6c0,10.2,8.4,18.6,18.6,18.6s18.6-8.4,18.6-18.6
			S75,149.5,64.8,149.5L64.8,149.5z"/>
	</g>
	<g>
		<path class="st0" d="M103.2,184.7c-9.2,0-16.6-7.5-16.6-16.6s7.5-16.6,16.6-16.6s16.6,7.5,16.6,16.6S112.3,184.7,103.2,184.7z"/>
		<path class="st1" d="M103.2,153.5c8.1,0,14.6,6.6,14.6,14.6c0,8.1-6.6,14.6-14.6,14.6c-8.1,0-14.6-6.6-14.6-14.6
			C88.5,160,95.1,153.5,103.2,153.5 M103.2,149.5c-10.3,0-18.6,8.4-18.6,18.6c0,10.2,8.4,18.6,18.6,18.6s18.6-8.4,18.6-18.6
			S113.4,149.5,103.2,149.5L103.2,149.5z"/>
	</g>
	<g>
		<path class="st0" d="M141.5,184.7c-9.2,0-16.6-7.5-16.6-16.6s7.5-16.6,16.6-16.6s16.6,7.5,16.6,16.6S150.7,184.7,141.5,184.7z"/>
		<path class="st1" d="M141.5,153.5c8.1,0,14.6,6.6,14.6,14.6c0,8.1-6.6,14.6-14.6,14.6s-14.6-6.6-14.6-14.6
			C126.9,160,133.5,153.5,141.5,153.5 M141.5,149.5c-10.3,0-18.6,8.4-18.6,18.6c0,10.2,8.4,18.6,18.6,18.6s18.6-8.4,18.6-18.6
			S151.8,149.5,141.5,149.5L141.5,149.5z"/>
	</g>
	<g>
		<path class="st0" d="M179.9,184.7c-9.2,0-16.6-7.5-16.6-16.6s7.5-16.6,16.6-16.6s16.6,7.5,16.6,16.6S189.1,184.7,179.9,184.7z"/>
		<path class="st1" d="M179.9,153.5c8.1,0,14.6,6.6,14.6,14.6c0,8.1-6.6,14.6-14.6,14.6s-14.6-6.6-14.6-14.6
			C165.3,160,171.8,153.5,179.9,153.5 M179.9,149.5c-10.3,0-18.6,8.4-18.6,18.6c0,10.2,8.4,18.6,18.6,18.6s18.6-8.4,18.6-18.6
			S190.2,149.5,179.9,149.5L179.9,149.5z"/>
	</g>
	<g>
		<path class="st0" d="M218.3,184.7c-9.2,0-16.6-7.5-16.6-16.6s7.5-16.6,16.6-16.6c9.2,0,16.6,7.5,16.6,16.6
			S227.5,184.7,218.3,184.7z"/>
		<path class="st1" d="M218.3,153.5c8.1,0,14.6,6.6,14.6,14.6c0,8.1-6.6,14.6-14.6,14.6c-8.1,0-14.6-6.6-14.6-14.6
			C203.7,160,210.2,153.5,218.3,153.5 M218.3,149.5c-10.3,0-18.6,8.4-18.6,18.6c0,10.2,8.4,18.6,18.6,18.6
			c10.3,0,18.6-8.4,18.6-18.6S228.6,149.5,218.3,149.5L218.3,149.5z"/>
	</g>
	<g>
		<path class="st0" d="M256.7,184.7c-9.2,0-16.6-7.5-16.6-16.6s7.5-16.6,16.6-16.6c9.2,0,16.6,7.5,16.6,16.6
			S265.9,184.7,256.7,184.7z"/>
		<path class="st1" d="M256.7,153.5c8.1,0,14.6,6.6,14.6,14.6c0,8.1-6.6,14.6-14.6,14.6c-8.1,0-14.6-6.6-14.6-14.6
			C242.1,160,248.6,153.5,256.7,153.5 M256.7,149.5c-10.3,0-18.6,8.4-18.6,18.6c0,10.2,8.4,18.6,18.6,18.6s18.6-8.4,18.6-18.6
			S267,149.5,256.7,149.5L256.7,149.5z"/>
	</g>
	<g>
		<path class="st0" d="M295.1,184.7c-9.2,0-16.6-7.5-16.6-16.6s7.5-16.6,16.6-16.6s16.6,7.5,16.6,16.6S304.3,184.7,295.1,184.7z"/>
		<path class="st1" d="M295.1,153.5c8.1,0,14.6,6.6,14.6,14.6c0,8.1-6.6,14.6-14.6,14.6s-14.6-6.6-14.6-14.6
			C280.5,160,287,153.5,295.1,153.5 M295.1,149.5c-10.3,0-18.6,8.4-18.6,18.6c0,10.2,8.4,18.6,18.6,18.6s18.6-8.4,18.6-18.6
			S305.4,149.5,295.1,149.5L295.1,149.5z"/>
	</g>
	<g>
		<path class="st0" d="M333.5,184.7c-9.2,0-16.6-7.5-16.6-16.6s7.5-16.6,16.6-16.6s16.6,7.5,16.6,16.6S342.7,184.7,333.5,184.7z"/>
		<path class="st1" d="M333.5,153.5c8.1,0,14.6,6.6,14.6,14.6c0,8.1-6.6,14.6-14.6,14.6s-14.6-6.6-14.6-14.6
			C318.8,160,325.4,153.5,333.5,153.5 M333.5,149.5c-10.3,0-18.6,8.4-18.6,18.6c0,10.2,8.4,18.6,18.6,18.6s18.6-8.4,18.6-18.6
			S343.8,149.5,333.5,149.5L333.5,149.5z"/>
	</g>
	<g>
		<path class="st0" d="M371.9,184.7c-9.2,0-16.6-7.5-16.6-16.6s7.5-16.6,16.6-16.6c9.2,0,16.6,7.5,16.6,16.6
			S381.1,184.7,371.9,184.7z"/>
		<path class="st1" d="M371.9,153.5c8.1,0,14.6,6.6,14.6,14.6c0,8.1-6.6,14.6-14.6,14.6s-14.6-6.6-14.6-14.6
			C357.2,160,363.8,153.5,371.9,153.5 M371.9,149.5c-10.3,0-18.6,8.4-18.6,18.6c0,10.2,8.4,18.6,18.6,18.6s18.6-8.4,18.6-18.6
			S382.2,149.5,371.9,149.5L371.9,149.5z"/>
	</g>
</g>
<g>
	<g>
		<path class="st0" d="M26.4,232.3c-9.2,0-16.6-7.5-16.6-16.6s7.5-16.6,16.6-16.6S43,206.5,43,215.8S35.6,232.3,26.4,232.3z"/>
		<path class="st1" d="M26.4,201.1c8.1,0,14.6,6.6,14.6,14.6c0,8.1-6.6,14.6-14.6,14.6s-14.6-6.6-14.6-14.6
			C11.7,207.6,18.3,201.1,26.4,201.1 M26.4,197.1c-10.3,0-18.6,8.4-18.6,18.6s8.4,18.6,18.6,18.6S45,226,45,215.8
			S36.7,197.1,26.4,197.1L26.4,197.1z"/>
	</g>
	<g>
		<path class="st0" d="M64.8,232.3c-9.2,0-16.6-7.5-16.6-16.6s7.5-16.6,16.6-16.6s16.6,7.5,16.6,16.6
			C81.4,224.8,73.9,232.3,64.8,232.3z"/>
		<path class="st1" d="M64.8,201.1c8.1,0,14.6,6.6,14.6,14.6c0,8.1-6.6,14.6-14.6,14.6c-8.1,0-14.6-6.6-14.6-14.6
			C50.1,207.6,56.7,201.1,64.8,201.1 M64.8,197.1c-10.3,0-18.6,8.4-18.6,18.6s8.4,18.6,18.6,18.6s18.6-8.4,18.6-18.6
			S75,197.1,64.8,197.1L64.8,197.1z"/>
	</g>
	<g>
		<path class="st0" d="M103.2,232.3c-9.2,0-16.6-7.5-16.6-16.6s7.5-16.6,16.6-16.6s16.6,7.5,16.6,16.6
			C119.8,224.8,112.3,232.3,103.2,232.3z"/>
		<path class="st1" d="M103.2,201.1c8.1,0,14.6,6.6,14.6,14.6c0,8.1-6.6,14.6-14.6,14.6c-8.1,0-14.6-6.6-14.6-14.6
			C88.5,207.6,95.1,201.1,103.2,201.1 M103.2,197.1c-10.3,0-18.6,8.4-18.6,18.6s8.4,18.6,18.6,18.6s18.6-8.4,18.6-18.6
			S113.4,197.1,103.2,197.1L103.2,197.1z"/>
	</g>
	<g>
		<path class="st0" d="M141.5,232.3c-9.2,0-16.6-7.5-16.6-16.6s7.5-16.6,16.6-16.6s16.6,7.5,16.6,16.6
			C158.1,224.8,150.7,232.3,141.5,232.3z"/>
		<path class="st1" d="M141.5,201.1c8.1,0,14.6,6.6,14.6,14.6c0,8.1-6.6,14.6-14.6,14.6s-14.6-6.6-14.6-14.6
			C126.9,207.6,133.5,201.1,141.5,201.1 M141.5,197.1c-10.3,0-18.6,8.4-18.6,18.6s8.4,18.6,18.6,18.6s18.6-8.4,18.6-18.6
			S151.8,197.1,141.5,197.1L141.5,197.1z"/>
	</g>
	<g>
		<path class="st0" d="M179.9,232.3c-9.2,0-16.6-7.5-16.6-16.6s7.5-16.6,16.6-16.6s16.6,7.5,16.6,16.6
			C196.5,224.8,189.1,232.3,179.9,232.3z"/>
		<path class="st1" d="M179.9,201.1c8.1,0,14.6,6.6,14.6,14.6c0,8.1-6.6,14.6-14.6,14.6s-14.6-6.6-14.6-14.6
			C165.3,207.6,171.8,201.1,179.9,201.1 M179.9,197.1c-10.3,0-18.6,8.4-18.6,18.6s8.4,18.6,18.6,18.6s18.6-8.4,18.6-18.6
			S190.2,197.1,179.9,197.1L179.9,197.1z"/>
	</g>
	<g>
		<path class="st0" d="M218.3,232.3c-9.2,0-16.6-7.5-16.6-16.6s7.5-16.6,16.6-16.6c9.2,0,16.6,7.5,16.6,16.6
			C234.9,224.8,227.5,232.3,218.3,232.3z"/>
		<path class="st1" d="M218.3,201.1c8.1,0,14.6,6.6,14.6,14.6c0,8.1-6.6,14.6-14.6,14.6c-8.1,0-14.6-6.6-14.6-14.6
			C203.7,207.6,210.2,201.1,218.3,201.1 M218.3,197.1c-10.3,0-18.6,8.4-18.6,18.6s8.4,18.6,18.6,18.6c10.3,0,18.6-8.4,18.6-18.6
			S228.6,197.1,218.3,197.1L218.3,197.1z"/>
	</g>
	<g>
		<path class="st0" d="M256.7,232.3c-9.2,0-16.6-7.5-16.6-16.6s7.5-16.6,16.6-16.6c9.2,0,16.6,7.5,16.6,16.6
			C273.3,224.8,265.9,232.3,256.7,232.3z"/>
		<path class="st1" d="M256.7,201.1c8.1,0,14.6,6.6,14.6,14.6c0,8.1-6.6,14.6-14.6,14.6c-8.1,0-14.6-6.6-14.6-14.6
			C242.1,207.6,248.6,201.1,256.7,201.1 M256.7,197.1c-10.3,0-18.6,8.4-18.6,18.6s8.4,18.6,18.6,18.6s18.6-8.4,18.6-18.6
			S267,197.1,256.7,197.1L256.7,197.1z"/>
	</g>
	<g>
		<path class="st0" d="M295.1,232.3c-9.2,0-16.6-7.5-16.6-16.6s7.5-16.6,16.6-16.6s16.6,7.5,16.6,16.6
			C311.7,224.8,304.3,232.3,295.1,232.3z"/>
		<path class="st1" d="M295.1,201.1c8.1,0,14.6,6.6,14.6,14.6c0,8.1-6.6,14.6-14.6,14.6s-14.6-6.6-14.6-14.6
			C280.5,207.6,287,201.1,295.1,201.1 M295.1,197.1c-10.3,0-18.6,8.4-18.6,18.6s8.4,18.6,18.6,18.6s18.6-8.4,18.6-18.6
			S305.4,197.1,295.1,197.1L295.1,197.1z"/>
	</g>
	<g>
		<path class="st0" d="M333.5,232.3c-9.2,0-16.6-7.5-16.6-16.6s7.5-16.6,16.6-16.6s16.6,7.5,16.6,16.6
			C350.1,224.8,342.7,232.3,333.5,232.3z"/>
		<path class="st1" d="M333.5,201.1c8.1,0,14.6,6.6,14.6,14.6c0,8.1-6.6,14.6-14.6,14.6s-14.6-6.6-14.6-14.6
			C318.8,207.6,325.4,201.1,333.5,201.1 M333.5,197.1c-10.3,0-18.6,8.4-18.6,18.6s8.4,18.6,18.6,18.6s18.6-8.4,18.6-18.6
			S343.8,197.1,333.5,197.1L333.5,197.1z"/>
	</g>
	<g>
		<path class="st0" d="M371.9,232.3c-9.2,0-16.6-7.5-16.6-16.6s7.5-16.6,16.6-16.6c9.2,0,16.6,7.5,16.6,16.6
			C388.5,224.8,381.1,232.3,371.9,232.3z"/>
		<path class="st1" d="M371.9,201.1c8.1,0,14.6,6.6,14.6,14.6c0,8.1-6.6,14.6-14.6,14.6s-14.6-6.6-14.6-14.6
			C357.2,207.6,363.8,201.1,371.9,201.1 M371.9,197.1c-10.3,0-18.6,8.4-18.6,18.6s8.4,18.6,18.6,18.6s18.6-8.4,18.6-18.6
			S382.2,197.1,371.9,197.1L371.9,197.1z"/>
	</g>
</g>
<g>
	<g>
		<path class="st0" d="M26.4,280c-9.2,0-16.6-7.5-16.6-16.6c0-9.1,7.5-16.6,16.6-16.6S43,254.2,43,263.4C43,272.6,35.6,280,26.4,280
			z"/>
		<path class="st1" d="M26.4,248.8c8.1,0,14.6,6.6,14.6,14.6c0,8.1-6.6,14.6-14.6,14.6s-14.6-6.6-14.6-14.6
			C11.7,255.3,18.3,248.8,26.4,248.8 M26.4,244.8c-10.3,0-18.6,8.4-18.6,18.6c0,10.2,8.4,18.6,18.6,18.6S45,273.7,45,263.4
			S36.7,244.8,26.4,244.8L26.4,244.8z"/>
	</g>
	<g>
		<path class="st0" d="M64.8,280c-9.2,0-16.6-7.5-16.6-16.6c0-9.1,7.5-16.6,16.6-16.6s16.6,7.5,16.6,16.6
			C81.4,272.5,73.9,280,64.8,280z"/>
		<path class="st1" d="M64.8,248.8c8.1,0,14.6,6.6,14.6,14.6c0,8.1-6.6,14.6-14.6,14.6c-8.1,0-14.6-6.6-14.6-14.6
			C50.1,255.3,56.7,248.8,64.8,248.8 M64.8,244.8c-10.3,0-18.6,8.4-18.6,18.6c0,10.2,8.4,18.6,18.6,18.6s18.6-8.4,18.6-18.6
			S75,244.8,64.8,244.8L64.8,244.8z"/>
	</g>
	<g>
		<path class="st0" d="M103.2,280c-9.2,0-16.6-7.5-16.6-16.6c0-9.1,7.5-16.6,16.6-16.6s16.6,7.5,16.6,16.6
			C119.8,272.5,112.3,280,103.2,280z"/>
		<path class="st1" d="M103.2,248.8c8.1,0,14.6,6.6,14.6,14.6c0,8.1-6.6,14.6-14.6,14.6c-8.1,0-14.6-6.6-14.6-14.6
			C88.5,255.3,95.1,248.8,103.2,248.8 M103.2,244.8c-10.3,0-18.6,8.4-18.6,18.6c0,10.2,8.4,18.6,18.6,18.6s18.6-8.4,18.6-18.6
			S113.4,244.8,103.2,244.8L103.2,244.8z"/>
	</g>
	<g>
		<path class="st0" d="M141.5,280c-9.2,0-16.6-7.5-16.6-16.6c0-9.1,7.5-16.6,16.6-16.6s16.6,7.5,16.6,16.6
			C158.1,272.5,150.7,280,141.5,280z"/>
		<path class="st1" d="M141.5,248.8c8.1,0,14.6,6.6,14.6,14.6c0,8.1-6.6,14.6-14.6,14.6s-14.6-6.6-14.6-14.6
			C126.9,255.3,133.5,248.8,141.5,248.8 M141.5,244.8c-10.3,0-18.6,8.4-18.6,18.6c0,10.2,8.4,18.6,18.6,18.6s18.6-8.4,18.6-18.6
			S151.8,244.8,141.5,244.8L141.5,244.8z"/>
	</g>
	<g>
		<path class="st0" d="M179.9,280c-9.2,0-16.6-7.5-16.6-16.6c0-9.1,7.5-16.6,16.6-16.6s16.6,7.5,16.6,16.6
			C196.5,272.5,189.1,280,179.9,280z"/>
		<path class="st1" d="M179.9,248.8c8.1,0,14.6,6.6,14.6,14.6c0,8.1-6.6,14.6-14.6,14.6s-14.6-6.6-14.6-14.6
			C165.3,255.3,171.8,248.8,179.9,248.8 M179.9,244.8c-10.3,0-18.6,8.4-18.6,18.6c0,10.2,8.4,18.6,18.6,18.6s18.6-8.4,18.6-18.6
			S190.2,244.8,179.9,244.8L179.9,244.8z"/>
	</g>
	<g>
		<path class="st0" d="M218.3,280c-9.2,0-16.6-7.5-16.6-16.6c0-9.1,7.5-16.6,16.6-16.6c9.2,0,16.6,7.5,16.6,16.6
			C234.9,272.5,227.5,280,218.3,280z"/>
		<path class="st1" d="M218.3,248.8c8.1,0,14.6,6.6,14.6,14.6c0,8.1-6.6,14.6-14.6,14.6c-8.1,0-14.6-6.6-14.6-14.6
			C203.7,255.3,210.2,248.8,218.3,248.8 M218.3,244.8c-10.3,0-18.6,8.4-18.6,18.6c0,10.2,8.4,18.6,18.6,18.6
			c10.3,0,18.6-8.4,18.6-18.6S228.6,244.8,218.3,244.8L218.3,244.8z"/>
	</g>
	<g>
		<path class="st0" d="M256.7,280c-9.2,0-16.6-7.5-16.6-16.6c0-9.1,7.5-16.6,16.6-16.6c9.2,0,16.6,7.5,16.6,16.6
			C273.3,272.5,265.9,280,256.7,280z"/>
		<path class="st1" d="M256.7,248.8c8.1,0,14.6,6.6,14.6,14.6c0,8.1-6.6,14.6-14.6,14.6c-8.1,0-14.6-6.6-14.6-14.6
			C242.1,255.3,248.6,248.8,256.7,248.8 M256.7,244.8c-10.3,0-18.6,8.4-18.6,18.6c0,10.2,8.4,18.6,18.6,18.6s18.6-8.4,18.6-18.6
			S267,244.8,256.7,244.8L256.7,244.8z"/>
	</g>
	<g>
		<path class="st0" d="M295.1,280c-9.2,0-16.6-7.5-16.6-16.6c0-9.1,7.5-16.6,16.6-16.6s16.6,7.5,16.6,16.6
			C311.7,272.5,304.3,280,295.1,280z"/>
		<path class="st1" d="M295.1,248.8c8.1,0,14.6,6.6,14.6,14.6c0,8.1-6.6,14.6-14.6,14.6s-14.6-6.6-14.6-14.6
			C280.5,255.3,287,248.8,295.1,248.8 M295.1,244.8c-10.3,0-18.6,8.4-18.6,18.6c0,10.2,8.4,18.6,18.6,18.6s18.6-8.4,18.6-18.6
			S305.4,244.8,295.1,244.8L295.1,244.8z"/>
	</g>
	<g>
		<path class="st0" d="M333.5,280c-9.2,0-16.6-7.5-16.6-16.6c0-9.1,7.5-16.6,16.6-16.6s16.6,7.5,16.6,16.6
			C350.1,272.5,342.7,280,333.5,280z"/>
		<path class="st1" d="M333.5,248.8c8.1,0,14.6,6.6,14.6,14.6c0,8.1-6.6,14.6-14.6,14.6s-14.6-6.6-14.6-14.6
			C318.8,255.3,325.4,248.8,333.5,248.8 M333.5,244.8c-10.3,0-18.6,8.4-18.6,18.6c0,10.2,8.4,18.6,18.6,18.6s18.6-8.4,18.6-18.6
			S343.8,244.8,333.5,244.8L333.5,244.8z"/>
	</g>
	<g>
		<path class="st0" d="M371.9,280c-9.2,0-16.6-7.5-16.6-16.6c0-9.1,7.5-16.6,16.6-16.6c9.2,0,16.6,7.5,16.6,16.6
			C388.5,272.5,381.1,280,371.9,280z"/>
		<path class="st1" d="M371.9,248.8c8.1,0,14.6,6.6,14.6,14.6c0,8.1-6.6,14.6-14.6,14.6s-14.6-6.6-14.6-14.6
			C357.2,255.3,363.8,248.8,371.9,248.8 M371.9,244.8c-10.3,0-18.6,8.4-18.6,18.6c0,10.2,8.4,18.6,18.6,18.6s18.6-8.4,18.6-18.6
			S382.2,244.8,371.9,244.8L371.9,244.8z"/>
	</g>
</g>
<g>
	<g>
		<path class="st0" d="M26.4,89.4c-9.2,0-16.6-7.5-16.6-16.6s7.5-16.6,16.6-16.6S43,63.6,43,72.8S35.6,89.4,26.4,89.4z"/>
		<path class="st1" d="M26.4,58.2c8.1,0,14.6,6.6,14.6,14.6c0,8.1-6.6,14.6-14.6,14.6s-14.6-6.6-14.6-14.6
			C11.7,64.7,18.3,58.2,26.4,58.2 M26.4,54.2c-10.3,0-18.6,8.4-18.6,18.6s8.4,18.6,18.6,18.6S45,83.1,45,72.8S36.7,54.2,26.4,54.2
			L26.4,54.2z"/>
	</g>
	<g>
		<path class="st0" d="M64.8,89.4c-9.2,0-16.6-7.5-16.6-16.6s7.5-16.6,16.6-16.6s16.6,7.5,16.6,16.6S73.9,89.4,64.8,89.4z"/>
		<path class="st1" d="M64.8,58.2c8.1,0,14.6,6.6,14.6,14.6c0,8.1-6.6,14.6-14.6,14.6c-8.1,0-14.6-6.6-14.6-14.6
			C50.1,64.7,56.7,58.2,64.8,58.2 M64.8,54.2c-10.3,0-18.6,8.4-18.6,18.6s8.4,18.6,18.6,18.6S83.4,83,83.4,72.8S75,54.2,64.8,54.2
			L64.8,54.2z"/>
	</g>
	<g>
		<path class="st0" d="M103.2,89.4c-9.2,0-16.6-7.5-16.6-16.6s7.5-16.6,16.6-16.6s16.6,7.5,16.6,16.6S112.3,89.4,103.2,89.4z"/>
		<path class="st1" d="M103.2,58.2c8.1,0,14.6,6.6,14.6,14.6c0,8.1-6.6,14.6-14.6,14.6c-8.1,0-14.6-6.6-14.6-14.6
			C88.5,64.7,95.1,58.2,103.2,58.2 M103.2,54.2c-10.3,0-18.6,8.4-18.6,18.6s8.4,18.6,18.6,18.6s18.6-8.4,18.6-18.6
			S113.4,54.2,103.2,54.2L103.2,54.2z"/>
	</g>
	<g>
		<path class="st0" d="M141.5,89.4c-9.2,0-16.6-7.5-16.6-16.6s7.5-16.6,16.6-16.6s16.6,7.5,16.6,16.6S150.7,89.4,141.5,89.4z"/>
		<path class="st1" d="M141.5,58.2c8.1,0,14.6,6.6,14.6,14.6c0,8.1-6.6,14.6-14.6,14.6s-14.6-6.6-14.6-14.6
			C126.9,64.7,133.5,58.2,141.5,58.2 M141.5,54.2c-10.3,0-18.6,8.4-18.6,18.6s8.4,18.6,18.6,18.6s18.6-8.4,18.6-18.6
			S151.8,54.2,141.5,54.2L141.5,54.2z"/>
	</g>
	<g>
		<path class="st0" d="M179.9,89.4c-9.2,0-16.6-7.5-16.6-16.6s7.5-16.6,16.6-16.6s16.6,7.5,16.6,16.6S189.1,89.4,179.9,89.4z"/>
		<path class="st1" d="M179.9,58.2c8.1,0,14.6,6.6,14.6,14.6c0,8.1-6.6,14.6-14.6,14.6s-14.6-6.6-14.6-14.6
			C165.3,64.7,171.8,58.2,179.9,58.2 M179.9,54.2c-10.3,0-18.6,8.4-18.6,18.6s8.4,18.6,18.6,18.6s18.6-8.4,18.6-18.6
			S190.2,54.2,179.9,54.2L179.9,54.2z"/>
	</g>
	<g>
		<path class="st0" d="M218.3,89.4c-9.2,0-16.6-7.5-16.6-16.6s7.5-16.6,16.6-16.6c9.2,0,16.6,7.5,16.6,16.6S227.5,89.4,218.3,89.4z"
			/>
		<path class="st1" d="M218.3,58.2c8.1,0,14.6,6.6,14.6,14.6c0,8.1-6.6,14.6-14.6,14.6c-8.1,0-14.6-6.6-14.6-14.6
			C203.7,64.7,210.2,58.2,218.3,58.2 M218.3,54.2c-10.3,0-18.6,8.4-18.6,18.6s8.4,18.6,18.6,18.6c10.3,0,18.6-8.4,18.6-18.6
			S228.6,54.2,218.3,54.2L218.3,54.2z"/>
	</g>
	<g>
		<path class="st0" d="M256.7,89.4c-9.2,0-16.6-7.5-16.6-16.6s7.5-16.6,16.6-16.6c9.2,0,16.6,7.5,16.6,16.6S265.9,89.4,256.7,89.4z"
			/>
		<path class="st1" d="M256.7,58.2c8.1,0,14.6,6.6,14.6,14.6c0,8.1-6.6,14.6-14.6,14.6c-8.1,0-14.6-6.6-14.6-14.6
			C242.1,64.7,248.6,58.2,256.7,58.2 M256.7,54.2c-10.3,0-18.6,8.4-18.6,18.6s8.4,18.6,18.6,18.6s18.6-8.4,18.6-18.6
			S267,54.2,256.7,54.2L256.7,54.2z"/>
	</g>
	<g>
		<path class="st0" d="M295.1,89.4c-9.2,0-16.6-7.5-16.6-16.6s7.5-16.6,16.6-16.6s16.6,7.5,16.6,16.6S304.3,89.4,295.1,89.4z"/>
		<path class="st1" d="M295.1,58.2c8.1,0,14.6,6.6,14.6,14.6c0,8.1-6.6,14.6-14.6,14.6s-14.6-6.6-14.6-14.6
			C280.5,64.7,287,58.2,295.1,58.2 M295.1,54.2c-10.3,0-18.6,8.4-18.6,18.6s8.4,18.6,18.6,18.6s18.6-8.4,18.6-18.6
			S305.4,54.2,295.1,54.2L295.1,54.2z"/>
	</g>
	<g>
		<path class="st0" d="M333.5,89.4c-9.2,0-16.6-7.5-16.6-16.6s7.5-16.6,16.6-16.6s16.6,7.5,16.6,16.6S342.7,89.4,333.5,89.4z"/>
		<path class="st1" d="M333.5,58.2c8.1,0,14.6,6.6,14.6,14.6c0,8.1-6.6,14.6-14.6,14.6s-14.6-6.6-14.6-14.6
			C318.8,64.7,325.4,58.2,333.5,58.2 M333.5,54.2c-10.3,0-18.6,8.4-18.6,18.6s8.4,18.6,18.6,18.6s18.6-8.4,18.6-18.6
			S343.8,54.2,333.5,54.2L333.5,54.2z"/>
	</g>
	<g>
		<path class="st0" d="M371.9,89.4c-9.2,0-16.6-7.5-16.6-16.6s7.5-16.6,16.6-16.6c9.2,0,16.6,7.5,16.6,16.6S381.1,89.4,371.9,89.4z"
			/>
		<path class="st1" d="M371.9,58.2c8.1,0,14.6,6.6,14.6,14.6c0,8.1-6.6,14.6-14.6,14.6s-14.6-6.6-14.6-14.6
			C357.2,64.7,363.8,58.2,371.9,58.2 M371.9,54.2c-10.3,0-18.6,8.4-18.6,18.6s8.4,18.6,18.6,18.6s18.6-8.4,18.6-18.6
			S382.2,54.2,371.9,54.2L371.9,54.2z"/>
	</g>
</g>
</svg>
