<?xml version="1.0" encoding="utf-8"?>
<!-- Generator: Adobe Illustrator 22.0.1, SVG Export Plug-In . SVG Version: 6.00 Build 0)  -->
<svg version="1.0" id="Layer_1" xmlns="http://www.w3.org/2000/svg" xmlns:xlink="http://www.w3.org/1999/xlink" x="0px" y="0px"
	 viewBox="0 0 400 400" style="enable-background:new 0 0 400 400;" xml:space="preserve">
<style type="text/css">
	.st0{fill:#00CDC8;}
	.st1{fill:#FFFFFF;}
	.st2{fill:#FADC3C;}
</style>
<g>
	<path class="st0" d="M37.7,318.6c-9.2,0-16.6-7.5-16.6-16.6c0-9.1,7.5-16.6,16.6-16.6s16.6,7.4,16.6,16.6S46.9,318.6,37.7,318.6z"
		/>
	<path class="st1" d="M37.7,287.4c8.1,0,14.6,6.6,14.6,14.6c0,8.1-6.6,14.6-14.6,14.6S23.1,310,23.1,302
		C23,293.9,29.6,287.4,37.7,287.4 M37.7,283.4c-10.3,0-18.6,8.4-18.6,18.6s8.4,18.6,18.6,18.6s18.6-8.3,18.6-18.6
		S48,283.4,37.7,283.4L37.7,283.4z"/>
</g>
<g>
	<path class="st0" d="M82.1,318.6c-9.2,0-16.6-7.5-16.6-16.6c0-9.1,7.5-16.6,16.6-16.6s16.6,7.5,16.6,16.6
		C98.7,311.1,91.2,318.6,82.1,318.6z"/>
	<path class="st1" d="M82.1,287.4c8.1,0,14.6,6.6,14.6,14.6c0,8.1-6.6,14.6-14.6,14.6c-8.1,0-14.6-6.6-14.6-14.6
		C67.4,293.9,74,287.4,82.1,287.4 M82.1,283.4c-10.3,0-18.6,8.4-18.6,18.6s8.4,18.6,18.6,18.6s18.6-8.4,18.6-18.6
		S92.3,283.4,82.1,283.4L82.1,283.4z"/>
</g>
<g>
	<path class="st0" d="M126.5,318.6c-9.2,0-16.6-7.5-16.6-16.6c0-9.1,7.5-16.6,16.6-16.6s16.6,7.5,16.6,16.6
		C143.1,311.1,135.6,318.6,126.5,318.6z"/>
	<path class="st1" d="M126.5,287.4c8.1,0,14.6,6.6,14.6,14.6c0,8.1-6.6,14.6-14.6,14.6c-8.1,0-14.6-6.6-14.6-14.6
		C111.8,293.9,118.4,287.4,126.5,287.4 M126.5,283.4c-10.3,0-18.6,8.4-18.6,18.6s8.4,18.6,18.6,18.6s18.6-8.4,18.6-18.6
		S136.7,283.4,126.5,283.4L126.5,283.4z"/>
</g>
<g>
	<path class="st0" d="M170.8,318.6c-9.2,0-16.6-7.5-16.6-16.6c0-9.1,7.5-16.6,16.6-16.6s16.6,7.5,16.6,16.6
		C187.4,311.1,180,318.6,170.8,318.6z"/>
	<path class="st1" d="M170.8,287.4c8.1,0,14.6,6.6,14.6,14.6c0,8.1-6.6,14.6-14.6,14.6s-14.6-6.6-14.6-14.6
		C156.2,293.9,162.8,287.4,170.8,287.4 M170.8,283.4c-10.3,0-18.6,8.4-18.6,18.6s8.4,18.6,18.6,18.6s18.6-8.4,18.6-18.6
		S181.1,283.4,170.8,283.4L170.8,283.4z"/>
</g>
<g>
	<path class="st0" d="M215.2,318.6c-9.2,0-16.6-7.5-16.6-16.6c0-9.1,7.5-16.6,16.6-16.6s16.6,7.5,16.6,16.6
		C231.8,311.1,224.4,318.6,215.2,318.6z"/>
	<path class="st1" d="M215.2,287.4c8.1,0,14.6,6.6,14.6,14.6c0,8.1-6.6,14.6-14.6,14.6s-14.6-6.6-14.6-14.6
		C200.6,293.9,207.1,287.4,215.2,287.4 M215.2,283.4c-10.3,0-18.6,8.4-18.6,18.6s8.4,18.6,18.6,18.6s18.6-8.4,18.6-18.6
		S225.5,283.4,215.2,283.4L215.2,283.4z"/>
</g>
<g>
	<path class="st0" d="M259.6,318.6c-9.2,0-16.6-7.5-16.6-16.6c0-9.1,7.5-16.6,16.6-16.6c9.2,0,16.6,7.5,16.6,16.6
		C276.2,311.1,268.8,318.6,259.6,318.6z"/>
	<path class="st1" d="M259.6,287.4c8.1,0,14.6,6.6,14.6,14.6c0,8.1-6.6,14.6-14.6,14.6c-8.1,0-14.6-6.6-14.6-14.6
		C245,293.9,251.5,287.4,259.6,287.4 M259.6,283.4c-10.3,0-18.6,8.4-18.6,18.6s8.4,18.6,18.6,18.6c10.3,0,18.6-8.4,18.6-18.6
		S269.9,283.4,259.6,283.4L259.6,283.4z"/>
</g>
<g>
	<g>
		<rect x="17.5" y="19.4" class="st2" width="365" height="27"/>
		<path class="st1" d="M380,21.9v22H20v-22H380 M385,16.9h-5H20h-5v5v22v5h5h360h5v-5v-22V16.9L385,16.9z"/>
	</g>
	<g>
		<rect x="17.5" y="75.5" class="st2" width="365" height="27"/>
		<path class="st1" d="M380,78v22H20V78H380 M385,73h-5H20h-5v5v22v5h5h360h5v-5V78V73L385,73z"/>
	</g>
	<g>
		<rect x="17.5" y="131.6" class="st2" width="365" height="27"/>
		<path class="st1" d="M380,134.1v22H20v-22H380 M385,129.1h-5H20h-5v5v22v5h5h360h5v-5v-22V129.1L385,129.1z"/>
	</g>
	<g>
		<rect x="17.5" y="187.6" class="st2" width="365" height="27"/>
		<path class="st1" d="M380,190.1v22H20v-22H380 M385,185.1h-5H20h-5v5v22v5h5h360h5v-5v-22V185.1L385,185.1z"/>
	</g>
	<g>
		<rect x="17.5" y="243.7" class="st2" width="365" height="27"/>
		<path class="st1" d="M380,246.2v22H20v-22H380 M385,241.2h-5H20h-5v5v22v5h5h360h5v-5v-22V241.2L385,241.2z"/>
	</g>
</g>
</svg>
