<?xml version="1.0" encoding="utf-8"?>
<!-- Generator: Adobe Illustrator 22.0.1, SVG Export Plug-In . SVG Version: 6.00 Build 0)  -->
<svg version="1.1" id="Layer_1" xmlns="http://www.w3.org/2000/svg" xmlns:xlink="http://www.w3.org/1999/xlink" x="0px" y="0px"
	 viewBox="0 0 400 400" style="enable-background:new 0 0 400 400;" xml:space="preserve">
<style type="text/css">
	.st0{opacity:0.3;fill:#FFFFFF;enable-background:new    ;}
	.st1{fill:none;stroke:#FFFFFF;stroke-width:5;stroke-linecap:round;stroke-linejoin:round;}
	.st2{fill:#FFFFFF;}
	.st3{fill:#482344;}
	.st4{enable-background:new    ;}
	.st5{fill:#4ECEC3;}
	.st6{fill:#EE3253;}
	.st7{fill:#F38448;}
	.st8{fill:#FFC952;}
	.st9{fill:#ACD05E;}
	.st10{fill:#00B5BB;}
	.st11{fill:#009CAD;}
	.st12{fill:#00788C;}
	.st13{fill:#004756;}
	.st14{fill:none;stroke:#FFFFFF;stroke-width:7;stroke-linecap:round;stroke-linejoin:round;stroke-miterlimit:10;}
	.st15{opacity:0.5;}
</style>
<polygon class="st0" points="34,324.3 36.7,309 36.7,324.5 42,309.9 39.3,325.2 47,311.8 41.7,326.3 51.7,314.4 43.9,327.9 
	55.8,317.9 45.8,329.8 59.2,322 47.3,332 61.9,326.7 48.5,334.4 63.7,331.7 49.2,337 64.7,337 49.4,339.7 64.7,342.3 49.2,342.3 
	63.7,347.6 48.5,344.9 61.9,352.7 47.3,347.4 59.2,357.3 45.8,349.5 55.8,361.4 43.9,351.4 51.7,364.9 41.7,353 47,367.5 
	39.3,354.1 42,369.4 36.7,354.8 36.7,370.3 34,355 31.3,370.3 31.3,354.8 26,369.4 28.7,354.1 21,367.5 26.3,353 16.4,364.9 
	24.1,351.4 12.2,361.4 22.2,349.5 8.8,357.3 20.7,347.4 6.1,352.7 19.5,344.9 4.3,347.6 18.9,342.3 3.4,342.3 18.6,339.7 3.4,337 
	18.9,337 4.3,331.7 19.5,334.4 6.1,326.7 20.7,332 8.8,322 22.2,329.8 12.2,317.9 24.1,327.9 16.4,314.4 26.3,326.3 21,311.8 
	28.7,325.2 26,309.9 31.3,324.5 31.3,309 "/>
<g>
	<g>
		<g>
			<path class="st1" d="M111.7,342.4c0-13.8,11.2-25.1,25.1-25.1c8.5,0,15.9,4.2,20.5,10.6"/>
			<g>
				<path class="st2" d="M156.7,327.3c0.9-2.8,4-5.7,6.5-7.1c-2,4.3-3.3,9.2-2.8,14.1c-3.7-3.1-8.5-4.6-13.2-5.5
					C150.1,327.5,153.7,326.4,156.7,327.3z"/>
			</g>
		</g>
	</g>
</g>
<g>
	<g>
		<g>
			<path class="st1" d="M173.8,342.4c0-13.8,11.2-25.1,25.1-25.1c8.5,0,15.9,4.2,20.5,10.6"/>
			<g>
				<path class="st2" d="M218.9,327.3c0.9-2.8,4-5.7,6.5-7.1c-2,4.3-3.3,9.2-2.8,14.1c-3.7-3.1-8.5-4.6-13.2-5.5
					C212.2,327.5,215.8,326.4,218.9,327.3z"/>
			</g>
		</g>
	</g>
</g>
<g>
	<g>
		<g>
			<path class="st1" d="M237.4,342.4c0-13.8,11.2-25.1,25.1-25.1c8.5,0,15.9,4.2,20.5,10.6"/>
			<g>
				<path class="st2" d="M282.5,327.3c0.9-2.8,4-5.7,6.5-7.1c-2,4.3-3.3,9.2-2.8,14.1c-3.7-3.1-8.5-4.6-13.2-5.5
					C275.8,327.5,279.4,326.4,282.5,327.3z"/>
			</g>
		</g>
	</g>
</g>
<g>
	<g>
		<g>
			<path class="st1" d="M300.6,342.4c0-13.8,11.2-25.1,25.1-25.1c8.5,0,15.9,4.2,20.5,10.6"/>
			<g>
				<path class="st2" d="M345.6,327.3c0.9-2.8,4-5.7,6.5-7.1c-2,4.3-3.3,9.2-2.8,14.1c-3.7-3.1-8.5-4.6-13.2-5.5
					C338.9,327.5,342.6,326.4,345.6,327.3z"/>
			</g>
		</g>
	</g>
</g>
<g>
	<g>
		<g>
			<path class="st1" d="M111.7,206.7c0-13.8,11.2-25.1,25.1-25.1c8.5,0,15.9,4.2,20.5,10.6"/>
			<g>
				<path class="st2" d="M156.7,191.6c0.9-2.8,4-5.7,6.5-7.1c-2,4.3-3.3,9.2-2.8,14.1c-3.7-3.1-8.5-4.6-13.2-5.5
					C150.1,191.9,153.7,190.8,156.7,191.6z"/>
			</g>
		</g>
	</g>
</g>
<g>
	<g>
		<g>
			<path class="st1" d="M173.8,206.7c0-13.8,11.2-25.1,25.1-25.1c8.5,0,15.9,4.2,20.5,10.6"/>
			<g>
				<path class="st2" d="M218.9,191.6c0.9-2.8,4-5.7,6.5-7.1c-2,4.3-3.3,9.2-2.8,14.1c-3.7-3.1-8.5-4.6-13.2-5.5
					C212.2,191.9,215.8,190.8,218.9,191.6z"/>
			</g>
		</g>
	</g>
</g>
<g>
	<g>
		<g>
			<path class="st1" d="M237.4,206.7c0-13.8,11.2-25.1,25.1-25.1c8.5,0,15.9,4.2,20.5,10.6"/>
			<g>
				<path class="st2" d="M282.5,191.6c0.9-2.8,4-5.7,6.5-7.1c-2,4.3-3.3,9.2-2.8,14.1c-3.7-3.1-8.5-4.6-13.2-5.5
					C275.8,191.9,279.4,190.8,282.5,191.6z"/>
			</g>
		</g>
	</g>
</g>
<g>
	<g>
		<g>
			<path class="st1" d="M300.6,206.7c0-13.8,11.2-25.1,25.1-25.1c8.5,0,15.9,4.2,20.5,10.6"/>
			<g>
				<path class="st2" d="M345.6,191.6c0.9-2.8,4-5.7,6.5-7.1c-2,4.3-3.3,9.2-2.8,14.1c-3.7-3.1-8.5-4.6-13.2-5.5
					C338.9,191.9,342.6,190.8,345.6,191.6z"/>
			</g>
		</g>
	</g>
</g>
<g>
	<g>
		<path class="st3" d="M33.6,360.2c-11.7,0-21.1-9.5-21.1-21.1c0-11.4,9.1-19.9,21.1-19.9s21.1,8.6,21.1,19.9
			C54.7,350.7,45.3,360.2,33.6,360.2z"/>
		<path class="st2" d="M33.6,321.3c10.5,0,18.9,7.3,18.9,17.7c0,10.5-8.5,18.9-18.9,18.9s-18.9-8.5-18.9-18.9
			C14.7,328.6,23.1,321.3,33.6,321.3 M33.6,316.9c-13.3,0-23.3,9.5-23.3,22.1c0,12.9,10.5,23.3,23.3,23.3s23.3-10.5,23.3-23.3
			C56.9,326.4,46.9,316.9,33.6,316.9L33.6,316.9z"/>
	</g>
</g>
<g>
	<g class="st4">
		<path class="st2" d="M19.8,340.8c-0.2-0.2-0.3-0.4-0.3-0.7c0-0.3,0.1-0.5,0.3-0.7s0.5-0.3,0.8-0.3h3.9c0.4,0,0.6,0.1,0.8,0.3
			c0.2,0.2,0.3,0.4,0.3,0.7c0,0.3-0.1,0.5-0.3,0.7c-0.2,0.2-0.5,0.2-0.8,0.2h-3.9C20.2,341,20,340.9,19.8,340.8z"/>
		<path class="st2" d="M36.1,344.1c0,0.7-0.4,1-1.1,1h-6.4c-0.8,0-1.2-0.3-1.2-1c0-0.6,0.4-1,1.2-1h2v-8.7l-1.8,1.1
			c-0.2,0.1-0.3,0.2-0.5,0.2c-0.3,0-0.5-0.1-0.7-0.3c-0.2-0.2-0.3-0.5-0.3-0.8c0-0.4,0.2-0.7,0.5-0.9l2.9-1.8
			c0.4-0.2,0.7-0.3,1.1-0.3s0.6,0.1,0.9,0.3c0.2,0.2,0.3,0.5,0.3,0.9v10.3h2C35.7,343.2,36.1,343.5,36.1,344.1z"/>
		<path class="st2" d="M37.7,343.6c-0.8-1.2-1.3-2.9-1.3-5.1s0.4-3.9,1.3-5.1c0.8-1.2,2-1.8,3.6-1.8s2.8,0.6,3.6,1.8
			c0.8,1.2,1.3,2.9,1.3,5.1s-0.4,3.9-1.3,5.1c-0.8,1.2-2,1.8-3.6,1.8C39.8,345.3,38.6,344.7,37.7,343.6z M43.2,342.2
			c0.4-0.8,0.6-2,0.6-3.8c0-1.7-0.2-3-0.6-3.8s-1-1.2-1.9-1.2s-1.5,0.4-1.9,1.2s-0.6,2-0.6,3.8s0.2,3,0.6,3.8c0.4,0.8,1,1.2,1.9,1.2
			C42.2,343.4,42.8,343,43.2,342.2z"/>
	</g>
</g>
<polygon class="st0" points="34,182.7 36.7,167.5 36.7,183 42,168.4 39.3,183.7 47,170.2 41.7,184.8 51.7,172.9 43.9,186.3 
	55.8,176.4 45.8,188.2 59.2,180.5 47.3,190.4 61.9,185.1 48.5,192.9 63.7,190.2 49.2,195.4 64.7,195.4 49.4,198.1 64.7,200.8 
	49.2,200.8 63.7,206.1 48.5,203.4 61.9,211.1 47.3,205.8 59.2,215.8 45.8,208 55.8,219.9 43.9,209.9 51.7,223.3 41.7,211.4 47,226 
	39.3,212.6 42,227.8 36.7,213.3 36.7,228.8 34,213.5 31.3,228.8 31.3,213.3 26,227.8 28.7,212.6 21,226 26.3,211.4 16.4,223.3 
	24.1,209.9 12.2,219.9 22.2,208 8.8,215.8 20.7,205.8 6.1,211.1 19.5,203.4 4.3,206.1 18.9,200.8 3.4,200.8 18.6,198.1 3.4,195.4 
	18.9,195.4 4.3,190.2 19.5,192.9 6.1,185.1 20.7,190.4 8.8,180.5 22.2,188.2 12.2,176.4 24.1,186.3 16.4,172.9 26.3,184.8 21,170.2 
	28.7,183.7 26,168.4 31.3,183 31.3,167.5 "/>
<g>
	<g>
		<path class="st5" d="M33.6,219c-11.8,0-21.4-9.6-21.4-21.4c0-11.5,9.2-20.2,21.4-20.2S55,186,55,197.5C55,209.3,45.4,219,33.6,219
			z"/>
		<path class="st2" d="M33.6,179.8c10.5,0,18.9,7.3,18.9,17.7s-8.5,18.9-18.9,18.9s-18.9-8.5-18.9-18.9S23.1,179.8,33.6,179.8
			 M33.6,174.8c-13.7,0-23.9,9.8-23.9,22.7c0,13.2,10.7,23.9,23.9,23.9s23.9-10.7,23.9-23.9C57.5,184.6,47.3,174.8,33.6,174.8
			L33.6,174.8z"/>
	</g>
</g>
<g>
	<g class="st4">
		<path class="st2" d="M31.2,197.6c0.2,0.2,0.2,0.4,0.2,0.6c0,0.2-0.1,0.4-0.2,0.6c-0.2,0.2-0.4,0.2-0.6,0.2h-3v2.9
			c0,0.2-0.1,0.4-0.2,0.6c-0.2,0.2-0.4,0.2-0.6,0.2s-0.4-0.1-0.6-0.2c-0.2-0.2-0.2-0.4-0.2-0.6V199h-3c-0.2,0-0.4-0.1-0.6-0.2
			c-0.2-0.2-0.2-0.4-0.2-0.6c0-0.2,0.1-0.4,0.2-0.6c0.2-0.2,0.4-0.2,0.6-0.2h3v-3c0-0.2,0.1-0.4,0.2-0.6c0.2-0.2,0.4-0.2,0.6-0.2
			s0.4,0.1,0.6,0.2c0.2,0.2,0.2,0.4,0.2,0.6v3h3C30.8,197.3,31,197.4,31.2,197.6z"/>
		<path class="st2" d="M43.1,202.6c0,0.7-0.4,1-1.1,1h-7.2c-0.3,0-0.6-0.1-0.8-0.3s-0.3-0.4-0.3-0.7c0-0.4,0.1-0.7,0.4-1l4.3-4.7
			c0.5-0.6,0.9-1.1,1.2-1.6c0.2-0.5,0.4-1,0.4-1.5c0-0.6-0.2-1.1-0.5-1.4c-0.3-0.3-0.8-0.5-1.5-0.5c-0.5,0-1,0.1-1.5,0.3
			s-1,0.5-1.5,0.8c-0.1,0.1-0.3,0.2-0.4,0.2c-0.1,0.1-0.3,0.1-0.4,0.1c-0.2,0-0.4-0.1-0.6-0.3c-0.2-0.2-0.2-0.4-0.2-0.7
			c0-0.2,0-0.4,0.1-0.5s0.2-0.3,0.3-0.4c0.6-0.4,1.2-0.8,2-1.1c0.7-0.3,1.5-0.4,2.2-0.4c1.3,0,2.3,0.3,3.1,1s1.2,1.5,1.2,2.7
			c0,0.8-0.2,1.5-0.5,2.2s-0.9,1.4-1.7,2.3l-3.3,3.5h5C42.7,201.6,43.1,202,43.1,202.6z"/>
	</g>
</g>
<polygon class="st0" points="34,50.9 36.7,35.6 36.7,51.1 42,36.5 39.3,51.8 47,38.4 41.7,52.9 51.7,41.1 43.9,54.5 55.8,44.5 
	45.8,56.4 59.2,48.6 47.3,58.6 61.9,53.3 48.5,61 63.7,58.3 49.2,63.6 64.7,63.6 49.4,66.3 64.7,68.9 49.2,68.9 63.7,74.2 
	48.5,71.5 61.9,79.3 47.3,74 59.2,83.9 45.8,76.2 55.8,88 43.9,78.1 51.7,91.5 41.7,79.6 47,94.2 39.3,80.7 42,96 36.7,81.4 
	36.7,96.9 34,81.7 31.3,96.9 31.3,81.4 26,96 28.7,80.7 21,94.2 26.3,79.6 16.4,91.5 24.1,78.1 12.2,88 22.2,76.2 8.8,83.9 20.7,74 
	6.1,79.3 19.5,71.5 4.3,74.2 18.9,68.9 3.4,68.9 18.6,66.3 3.4,63.6 18.9,63.6 4.3,58.3 19.5,61 6.1,53.3 20.7,58.6 8.8,48.6 
	22.2,56.4 12.2,44.5 24.1,54.5 16.4,41.1 26.3,52.9 21,38.4 28.7,51.8 26,36.5 31.3,51.1 31.3,35.6 "/>
<g>
	<g>
		<path class="st6" d="M33.6,87.1c-11.8,0-21.4-9.6-21.4-21.4c0-11.5,9.2-20.2,21.4-20.2S55,54.1,55,65.7
			C55,77.5,45.4,87.1,33.6,87.1z"/>
		<path class="st2" d="M33.6,47.9c10.5,0,18.9,7.3,18.9,17.7S44,84.5,33.6,84.5S14.7,76,14.7,65.6S23.1,47.9,33.6,47.9 M33.6,42.9
			c-13.7,0-23.9,9.8-23.9,22.7c0,13.2,10.7,23.9,23.9,23.9s23.9-10.7,23.9-23.9C57.5,52.7,47.3,42.9,33.6,42.9L33.6,42.9z"/>
	</g>
</g>
<g>
	<g class="st4">
		<path class="st2" d="M31.2,65.7c0.2,0.2,0.2,0.4,0.2,0.6s-0.1,0.4-0.2,0.6c-0.2,0.2-0.4,0.2-0.6,0.2h-3V70c0,0.2-0.1,0.4-0.2,0.6
			C27.2,70.9,27,71,26.8,71s-0.4-0.1-0.6-0.2C26,70.6,26,70.4,26,70.2v-2.9h-3c-0.2,0-0.4-0.1-0.6-0.2c-0.2-0.2-0.2-0.4-0.2-0.6
			s0.1-0.4,0.2-0.6c0.2-0.2,0.4-0.2,0.6-0.2h3v-3c0-0.2,0.1-0.4,0.2-0.6c0.2-0.2,0.4-0.2,0.6-0.2s0.4,0.1,0.6,0.2
			c0.2,0.2,0.2,0.4,0.2,0.6v3h3C30.8,65.5,31,65.6,31.2,65.7z"/>
		<path class="st2" d="M43.1,70.7c0,0.7-0.4,1-1.1,1h-6.4c-0.8,0-1.2-0.3-1.2-1c0-0.6,0.4-1,1.2-1h2V61l-1.8,1.1
			c-0.2,0.1-0.3,0.2-0.5,0.2c-0.3,0-0.5-0.1-0.7-0.3s-0.3-0.5-0.3-0.8c0-0.4,0.2-0.7,0.5-0.9l2.9-1.8c0.4-0.2,0.7-0.3,1.1-0.3
			c0.4,0,0.6,0.1,0.9,0.3c0.2,0.2,0.3,0.5,0.3,0.9v10.3h2C42.8,69.8,43.1,70.1,43.1,70.7z"/>
	</g>
</g>
<g>
	<g>
		<circle class="st3" cx="111.3" cy="370.5" r="26.1"/>
		<path class="st2" d="M111.3,346.9c13,0,23.6,10.5,23.6,23.6c0,13-10.5,23.6-23.6,23.6s-23.6-10.5-23.6-23.6
			C87.8,357.5,98.3,346.9,111.3,346.9 M111.3,341.9c-15.7,0-28.6,12.8-28.6,28.6S95.6,399,111.3,399s28.6-12.8,28.6-28.6
			S127.1,341.9,111.3,341.9L111.3,341.9z"/>
	</g>
	<g class="st4">
		<path class="st2" d="M108.5,368c0.9,0.5,1.6,1.2,2.1,2.1s0.8,2,0.8,3.2s-0.3,2.3-0.8,3.2c-0.6,0.9-1.3,1.7-2.3,2.2
			s-2.2,0.8-3.5,0.8c-1.1,0-2.2-0.2-3.3-0.6c-1.1-0.4-2-0.9-2.7-1.6c-0.4-0.3-0.5-0.7-0.5-1.1c0-0.3,0.1-0.6,0.3-0.8
			c0.2-0.2,0.4-0.3,0.7-0.3c0.2,0,0.3,0,0.4,0.1s0.3,0.1,0.5,0.3c0.7,0.6,1.5,1,2.2,1.3c0.8,0.3,1.5,0.4,2.4,0.4c1.3,0,2.3-0.3,3-1
			s1.1-1.6,1.1-2.9c0-1.2-0.4-2.1-1.1-2.8c-0.7-0.7-1.7-1.1-2.9-1.1c-0.8,0-1.5,0.1-2.1,0.4s-1.2,0.7-1.7,1.2
			c-0.3,0.3-0.6,0.4-1,0.4c-0.3,0-0.6-0.1-0.8-0.3c-0.2-0.2-0.3-0.4-0.3-0.7v-8.9c0-0.4,0.1-0.7,0.3-1c0.2-0.2,0.6-0.4,1-0.4h9.3
			c0.4,0,0.7,0.1,1,0.3c0.2,0.2,0.4,0.5,0.4,0.8c0,0.4-0.1,0.6-0.4,0.8c-0.2,0.2-0.6,0.3-1,0.3h-7.9v6c1-0.8,2.2-1.2,3.7-1.2
			C106.6,367.2,107.6,367.5,108.5,368z"/>
		<path class="st2" d="M114.7,377c-1.2-1.7-1.8-4.1-1.8-7.3c0-3.2,0.6-5.6,1.8-7.3s2.9-2.5,5.1-2.5s3.9,0.8,5.1,2.5s1.8,4.1,1.8,7.3
			c0,3.2-0.6,5.6-1.8,7.3s-2.9,2.5-5.1,2.5S115.9,378.7,114.7,377z M122.9,375.5c0.7-1.2,1-3.1,1-5.7s-0.3-4.5-1-5.7
			s-1.7-1.8-3.1-1.8s-2.4,0.6-3.1,1.8c-0.7,1.2-1,3.1-1,5.7s0.3,4.5,1,5.7s1.7,1.8,3.1,1.8S122.2,376.7,122.9,375.5z"/>
	</g>
</g>
<g>
	<g>
		<circle class="st6" cx="175.6" cy="370.5" r="26.1"/>
		<g>
			<path class="st2" d="M175.6,346.9c13,0,23.6,10.5,23.6,23.6c0,13-10.5,23.6-23.6,23.6c-13,0-23.6-10.5-23.6-23.6
				C152.1,357.5,162.6,346.9,175.6,346.9 M175.6,341.9c-15.7,0-28.6,12.8-28.6,28.6s12.8,28.6,28.6,28.6s28.6-12.8,28.6-28.6
				S191.4,341.9,175.6,341.9L175.6,341.9z"/>
		</g>
	</g>
	<g class="st4">
		<path class="st2" d="M176.3,374.3c0,0.7-0.4,1.1-1.3,1.1h-1.7v2.7c0,0.5-0.1,0.8-0.4,1c-0.3,0.2-0.6,0.4-1,0.4s-0.7-0.1-1-0.4
			c-0.3-0.2-0.4-0.6-0.4-1v-2.7h-7.6c-0.4,0-0.7-0.1-0.9-0.3c-0.2-0.2-0.3-0.5-0.3-0.8c0-0.4,0.1-0.7,0.4-1.1l8.7-12.5
			c0.3-0.4,0.7-0.6,1.2-0.6c0.4,0,0.7,0.1,1,0.4c0.3,0.2,0.4,0.6,0.4,1v11.7h1.7C175.9,373.1,176.3,373.5,176.3,374.3z M164.7,373.1
			h5.9v-8.5L164.7,373.1z"/>
		<path class="st2" d="M179,377c-1.2-1.7-1.8-4.1-1.8-7.3c0-3.2,0.6-5.6,1.8-7.3c1.2-1.7,2.9-2.5,5.1-2.5s3.9,0.8,5.1,2.5
			c1.2,1.7,1.8,4.1,1.8,7.3c0,3.2-0.6,5.6-1.8,7.3c-1.2,1.7-2.9,2.5-5.1,2.5S180.2,378.7,179,377z M187.2,375.5c0.7-1.2,1-3.1,1-5.7
			s-0.3-4.5-1-5.7s-1.7-1.8-3.1-1.8c-1.4,0-2.4,0.6-3.1,1.8c-0.7,1.2-1,3.1-1,5.7s0.3,4.5,1,5.7s1.7,1.8,3.1,1.8
			S186.5,376.7,187.2,375.5z"/>
	</g>
</g>
<g>
	<g>
		<path class="st7" d="M239.9,396.5c-14.4,0-26.1-11.7-26.1-26.1s11.7-26.1,26.1-26.1c14.4,0,26.1,11.7,26.1,26.1
			S254.3,396.5,239.9,396.5z"/>
		<path class="st2" d="M239.9,346.9c13,0,23.6,10.5,23.6,23.6c0,13-10.5,23.6-23.6,23.6s-23.6-10.5-23.6-23.6
			C216.4,357.5,226.9,346.9,239.9,346.9 M239.9,341.9c-15.7,0-28.6,12.8-28.6,28.6s12.8,28.6,28.6,28.6s28.6-12.8,28.6-28.6
			S255.6,341.9,239.9,341.9L239.9,341.9z"/>
	</g>
	<g class="st4">
		<path class="st2" d="M238.5,371.2c0.6,0.8,0.9,1.8,0.9,3c0,1.7-0.6,3-1.8,3.9c-1.2,1-2.7,1.4-4.7,1.4c-1.2,0-2.3-0.2-3.4-0.6
			c-1.1-0.4-2-0.9-2.7-1.6c-0.4-0.3-0.5-0.7-0.5-1.1c0-0.3,0.1-0.6,0.3-0.8c0.2-0.2,0.4-0.3,0.7-0.3s0.6,0.1,0.9,0.4
			c0.8,0.6,1.5,1,2.3,1.3s1.6,0.4,2.4,0.4c2.6,0,3.9-1.1,3.9-3.3c0-1.1-0.3-1.9-1-2.4s-1.7-0.8-3.1-0.8h-1.5c-0.3,0-0.6-0.1-0.8-0.3
			s-0.3-0.5-0.3-0.8s0.1-0.5,0.3-0.8c0.2-0.2,0.5-0.3,0.8-0.3h1.1c1.3,0,2.3-0.3,3-0.8c0.7-0.6,1-1.4,1-2.4c0-0.9-0.3-1.7-0.9-2.2
			c-0.6-0.5-1.4-0.8-2.4-0.8c-1.5,0-3,0.6-4.6,1.8c-0.3,0.2-0.7,0.4-0.9,0.4c-0.3,0-0.5-0.1-0.7-0.3c-0.2-0.2-0.3-0.5-0.3-0.8
			c0-0.4,0.2-0.8,0.5-1.1c0.7-0.7,1.6-1.2,2.7-1.6c1.1-0.4,2.1-0.6,3.3-0.6c1.8,0,3.2,0.4,4.3,1.3s1.6,2.1,1.6,3.6
			c0,1.1-0.3,2-0.8,2.8s-1.3,1.4-2.3,1.8C237,369.8,237.9,370.4,238.5,371.2z"/>
		<path class="st2" d="M243.3,377c-1.2-1.7-1.8-4.1-1.8-7.3c0-3.2,0.6-5.6,1.8-7.3c1.2-1.7,2.9-2.5,5.1-2.5s3.9,0.8,5.1,2.5
			c1.2,1.7,1.8,4.1,1.8,7.3c0,3.2-0.6,5.6-1.8,7.3c-1.2,1.7-2.9,2.5-5.1,2.5S244.5,378.7,243.3,377z M251.5,375.5
			c0.7-1.2,1-3.1,1-5.7s-0.3-4.5-1-5.7s-1.7-1.8-3.1-1.8c-1.4,0-2.4,0.6-3.1,1.8c-0.7,1.2-1,3.1-1,5.7s0.3,4.5,1,5.7
			s1.7,1.8,3.1,1.8S250.8,376.7,251.5,375.5z"/>
	</g>
</g>
<g>
	<g>
		<path class="st8" d="M304.2,396.5c-14.4,0-26.1-11.7-26.1-26.1s11.7-26.1,26.1-26.1s26.1,11.7,26.1,26.1S318.6,396.5,304.2,396.5z
			"/>
		<path class="st2" d="M304.2,346.9c13,0,23.6,10.5,23.6,23.6c0,13-10.5,23.6-23.6,23.6c-13,0-23.6-10.5-23.6-23.6
			C280.6,357.5,291.2,346.9,304.2,346.9 M304.2,341.9c-15.7,0-28.6,12.8-28.6,28.6s12.8,28.6,28.6,28.6c15.7,0,28.6-12.8,28.6-28.6
			S319.9,341.9,304.2,341.9L304.2,341.9z"/>
	</g>
	<g class="st4">
		<path class="st2" d="M303.9,377.3c0.2,0.2,0.3,0.5,0.3,0.8c0,0.8-0.4,1.2-1.3,1.2h-10.5c-0.4,0-0.7-0.1-0.9-0.3
			c-0.2-0.2-0.3-0.5-0.3-0.9s0.2-0.8,0.5-1.1l6.4-7c0.9-0.9,1.5-1.8,1.8-2.5c0.4-0.8,0.6-1.5,0.6-2.3c0-1-0.3-1.7-0.8-2.2
			c-0.6-0.5-1.3-0.8-2.3-0.8c-1.5,0-3.1,0.6-4.6,1.8c-0.2,0.1-0.4,0.2-0.5,0.3c-0.1,0.1-0.3,0.1-0.4,0.1c-0.3,0-0.5-0.1-0.7-0.4
			c-0.2-0.2-0.3-0.5-0.3-0.8c0-0.5,0.2-0.8,0.5-1.1c0.8-0.7,1.7-1.2,2.7-1.6c1.1-0.4,2.1-0.6,3.2-0.6c1.8,0,3.2,0.5,4.3,1.4
			c1.1,0.9,1.6,2.1,1.6,3.7c0,1.1-0.2,2.2-0.7,3.1c-0.5,1-1.3,2.1-2.4,3.3l-5.1,5.5h8C303.3,377,303.7,377.1,303.9,377.3z"/>
		<path class="st2" d="M307.6,377c-1.2-1.7-1.8-4.1-1.8-7.3c0-3.2,0.6-5.6,1.8-7.3c1.2-1.7,2.9-2.5,5.1-2.5s3.9,0.8,5.1,2.5
			s1.8,4.1,1.8,7.3c0,3.2-0.6,5.6-1.8,7.3c-1.2,1.7-2.9,2.5-5.1,2.5S308.8,378.7,307.6,377z M315.8,375.5c0.7-1.2,1-3.1,1-5.7
			s-0.3-4.5-1-5.7s-1.7-1.8-3.1-1.8s-2.4,0.6-3.1,1.8c-0.7,1.2-1,3.1-1,5.7s0.3,4.5,1,5.7s1.7,1.8,3.1,1.8
			C314.1,377.3,315.1,376.7,315.8,375.5z"/>
	</g>
</g>
<g>
	<g>
		<path class="st9" d="M368.5,396.5c-14.4,0-26.1-11.7-26.1-26.1s11.7-26.1,26.1-26.1s26.1,11.7,26.1,26.1S382.9,396.5,368.5,396.5z
			"/>
		<g>
			<path class="st2" d="M368.5,346.9c13,0,23.6,10.5,23.6,23.6c0,13-10.5,23.6-23.6,23.6c-13,0-23.6-10.5-23.6-23.6
				C344.9,357.5,355.5,346.9,368.5,346.9 M368.5,341.9c-15.7,0-28.6,12.8-28.6,28.6s12.8,28.6,28.6,28.6c15.7,0,28.6-12.8,28.6-28.6
				S384.2,341.9,368.5,341.9L368.5,341.9z"/>
		</g>
	</g>
	<g class="st4">
		<path class="st2" d="M368,377.3c0.2,0.2,0.3,0.5,0.3,0.8c0,0.8-0.4,1.2-1.3,1.2h-9.1c-0.9,0-1.3-0.4-1.3-1.2
			c0-0.4,0.1-0.6,0.3-0.8c0.2-0.2,0.6-0.3,1-0.3h3.1v-13.5l-2.8,1.8c-0.2,0.1-0.4,0.2-0.5,0.2c-0.3,0-0.6-0.1-0.8-0.4
			s-0.3-0.6-0.3-0.9c0-0.4,0.2-0.7,0.5-1l4.2-2.7c0.4-0.3,0.8-0.4,1.2-0.4c0.4,0,0.7,0.1,1,0.4s0.4,0.6,0.4,1V377h3.1
			C367.4,377,367.8,377.1,368,377.3z"/>
		<path class="st2" d="M371.9,377c-1.2-1.7-1.8-4.1-1.8-7.3c0-3.2,0.6-5.6,1.8-7.3c1.2-1.7,2.9-2.5,5.1-2.5s3.9,0.8,5.1,2.5
			s1.8,4.1,1.8,7.3c0,3.2-0.6,5.6-1.8,7.3c-1.2,1.7-2.9,2.5-5.1,2.5S373.1,378.7,371.9,377z M380.1,375.5c0.7-1.2,1-3.1,1-5.7
			s-0.3-4.5-1-5.7s-1.7-1.8-3.1-1.8s-2.4,0.6-3.1,1.8c-0.7,1.2-1,3.1-1,5.7s0.3,4.5,1,5.7s1.7,1.8,3.1,1.8S379.4,376.7,380.1,375.5z
			"/>
	</g>
</g>
<g>
	<g>
		<path class="st5" d="M108.8,256.4c-14.4,0-26.1-11.7-26.1-26.1c0-14.4,11.7-26.1,26.1-26.1s26.1,11.7,26.1,26.1
			C134.9,244.7,123.2,256.4,108.8,256.4z"/>
		<path class="st2" d="M108.8,206.7c13,0,23.6,10.5,23.6,23.6c0,13-10.5,23.6-23.6,23.6s-23.6-10.5-23.6-23.6
			C85.3,217.3,95.8,206.7,108.8,206.7 M108.8,201.7c-15.7,0-28.6,12.8-28.6,28.6s12.8,28.6,28.6,28.6s28.6-12.8,28.6-28.6
			S124.5,201.7,108.8,201.7L108.8,201.7z"/>
	</g>
	<g class="st4">
		<path class="st2" d="M108.3,237.1c0.2,0.2,0.3,0.5,0.3,0.8c0,0.8-0.4,1.2-1.3,1.2h-9.1c-0.9,0-1.3-0.4-1.3-1.2
			c0-0.4,0.1-0.6,0.3-0.8c0.2-0.2,0.6-0.3,1-0.3h3.1v-13.5l-2.8,1.8c-0.2,0.1-0.4,0.2-0.5,0.2c-0.3,0-0.6-0.1-0.8-0.4
			c-0.2-0.3-0.3-0.6-0.3-0.9c0-0.4,0.2-0.7,0.5-1l4.2-2.7c0.4-0.3,0.8-0.4,1.2-0.4c0.4,0,0.7,0.1,1,0.4c0.3,0.3,0.4,0.6,0.4,1v15.6
			h3.1C107.7,236.8,108.1,236.9,108.3,237.1z"/>
		<path class="st2" d="M124.9,234.1c0,0.7-0.4,1.1-1.3,1.1h-1.7v2.7c0,0.5-0.1,0.8-0.4,1s-0.6,0.4-1,0.4s-0.7-0.1-1-0.4
			c-0.3-0.2-0.4-0.6-0.4-1v-2.7h-7.6c-0.4,0-0.7-0.1-0.9-0.3c-0.2-0.2-0.3-0.5-0.3-0.8c0-0.4,0.1-0.7,0.4-1.1l8.7-12.5
			c0.3-0.4,0.7-0.6,1.2-0.6c0.4,0,0.7,0.1,1,0.4c0.3,0.2,0.4,0.6,0.4,1V233h1.7C124.4,232.9,124.9,233.3,124.9,234.1z M113.2,232.9
			h5.9v-8.5L113.2,232.9z"/>
	</g>
</g>
<g>
	<g>
		<path class="st10" d="M173.1,256.4c-14.4,0-26.1-11.7-26.1-26.1c0-14.4,11.7-26.1,26.1-26.1c14.4,0,26.1,11.7,26.1,26.1
			C199.2,244.7,187.5,256.4,173.1,256.4z"/>
		<g>
			<path class="st2" d="M173.1,206.7c13,0,23.6,10.5,23.6,23.6c0,13-10.5,23.6-23.6,23.6s-23.6-10.5-23.6-23.6
				C149.5,217.3,160.1,206.7,173.1,206.7 M173.1,201.7c-15.7,0-28.6,12.8-28.6,28.6s12.8,28.6,28.6,28.6s28.6-12.8,28.6-28.6
				S188.8,201.7,173.1,201.7L173.1,201.7z"/>
		</g>
	</g>
	<g class="st4">
		<path class="st2" d="M172.6,237.1c0.2,0.2,0.3,0.5,0.3,0.8c0,0.8-0.4,1.2-1.3,1.2h-9.1c-0.9,0-1.3-0.4-1.3-1.2
			c0-0.4,0.1-0.6,0.3-0.8s0.6-0.3,1-0.3h3.1v-13.5l-2.8,1.8c-0.2,0.1-0.4,0.2-0.5,0.2c-0.3,0-0.6-0.1-0.8-0.4
			c-0.2-0.3-0.3-0.6-0.3-0.9c0-0.4,0.2-0.7,0.5-1l4.2-2.7c0.4-0.3,0.8-0.4,1.2-0.4s0.7,0.1,1,0.4c0.3,0.3,0.4,0.6,0.4,1v15.6h3.1
			C172.1,236.8,172.4,236.9,172.6,237.1z"/>
		<path class="st2" d="M185.7,227.8c0.9,0.5,1.6,1.2,2.1,2.2c0.5,0.9,0.7,2,0.7,3.2s-0.3,2.3-0.8,3.2c-0.5,1-1.3,1.7-2.2,2.2
			c-1,0.5-2,0.8-3.2,0.8c-2.4,0-4.2-0.8-5.5-2.4c-1.3-1.6-1.9-3.9-1.9-6.9c0-2.1,0.3-3.9,0.9-5.5c0.6-1.5,1.5-2.7,2.6-3.5
			s2.5-1.2,4-1.2c1,0,2.1,0.2,3.1,0.6c1,0.4,1.9,0.9,2.6,1.6c0.4,0.3,0.5,0.7,0.5,1.1c0,0.3-0.1,0.6-0.3,0.8s-0.4,0.3-0.7,0.3
			c-0.2,0-0.3,0-0.4-0.1c-0.1-0.1-0.3-0.1-0.5-0.3c-1.5-1.2-3-1.8-4.3-1.8c-1.5,0-2.7,0.7-3.5,2.1s-1.2,3.3-1.2,5.8v0.1
			c0.4-0.9,1-1.7,1.9-2.2s1.9-0.8,3-0.8C183.7,227,184.8,227.3,185.7,227.8z M184.8,236c0.7-0.7,1-1.7,1-2.8c0-1.2-0.3-2.1-1-2.8
			s-1.6-1.1-2.7-1.1c-1.1,0-2.1,0.4-2.8,1.1c-0.7,0.7-1.1,1.7-1.1,2.8c0,1.2,0.4,2.1,1.1,2.8c0.7,0.7,1.6,1.1,2.8,1.1
			C183.2,237.1,184.1,236.7,184.8,236z"/>
	</g>
</g>
<g>
	<g>
		<path class="st11" d="M237.4,256.4c-14.4,0-26.1-11.7-26.1-26.1c0-14.4,11.7-26.1,26.1-26.1s26.1,11.7,26.1,26.1
			S251.8,256.4,237.4,256.4z"/>
		<g>
			<path class="st2" d="M237.4,206.7c13,0,23.6,10.5,23.6,23.6c0,13-10.5,23.6-23.6,23.6c-13,0-23.6-10.5-23.6-23.6
				C213.8,217.3,224.4,206.7,237.4,206.7 M237.4,201.7c-15.7,0-28.6,12.8-28.6,28.6s12.8,28.6,28.6,28.6S266,246,266,230.3
				S253.1,201.7,237.4,201.7L237.4,201.7z"/>
		</g>
	</g>
	<g class="st4">
		<path class="st2" d="M236.9,237.1c0.2,0.2,0.3,0.5,0.3,0.8c0,0.8-0.4,1.2-1.3,1.2h-9.1c-0.9,0-1.3-0.4-1.3-1.2
			c0-0.4,0.1-0.6,0.3-0.8s0.6-0.3,1-0.3h3.1v-13.5l-2.8,1.8c-0.2,0.1-0.4,0.2-0.5,0.2c-0.3,0-0.6-0.1-0.8-0.4s-0.3-0.6-0.3-0.9
			c0-0.4,0.2-0.7,0.5-1l4.2-2.7c0.4-0.3,0.8-0.4,1.2-0.4s0.7,0.1,1,0.4c0.3,0.3,0.4,0.6,0.4,1v15.6h3.1
			C236.3,236.8,236.7,236.9,236.9,237.1z"/>
		<path class="st2" d="M252,231c0.6,0.8,0.9,1.8,0.9,3c0,1.7-0.6,3-1.8,3.9s-2.9,1.4-5.2,1.4s-4-0.5-5.2-1.4s-1.8-2.2-1.8-3.9
			c0-1.2,0.3-2.2,0.9-3c0.6-0.8,1.5-1.4,2.6-1.7c-1-0.4-1.7-0.9-2.3-1.7s-0.8-1.7-0.8-2.7c0-1.6,0.6-2.8,1.7-3.7s2.8-1.4,4.8-1.4
			s3.6,0.5,4.8,1.4s1.7,2.2,1.7,3.7c0,1-0.3,1.9-0.8,2.7c-0.6,0.8-1.3,1.4-2.2,1.7C250.5,229.6,251.4,230.2,252,231z M250.2,233.8
			c0-2.2-1.4-3.3-4.3-3.3s-4.3,1.1-4.3,3.3s1.4,3.2,4.3,3.2S250.2,236,250.2,233.8z M243,222.8c-0.7,0.5-1,1.3-1,2.3s0.3,1.8,1,2.4
			s1.6,0.8,2.9,0.8c1.3,0,2.2-0.3,2.9-0.8s1-1.3,1-2.4c0-1-0.3-1.8-1-2.3s-1.6-0.8-2.9-0.8S243.7,222.3,243,222.8z"/>
	</g>
</g>
<g>
	<g>
		<path class="st12" d="M301.7,256.4c-14.4,0-26.1-11.7-26.1-26.1c0-14.4,11.7-26.1,26.1-26.1s26.1,11.7,26.1,26.1
			C327.7,244.7,316.1,256.4,301.7,256.4z"/>
		<g>
			<path class="st2" d="M301.7,206.7c13,0,23.6,10.5,23.6,23.6c0,13-10.5,23.6-23.6,23.6c-13,0-23.6-10.5-23.6-23.6
				C278.1,217.3,288.7,206.7,301.7,206.7 M301.7,201.7c-15.7,0-28.6,12.8-28.6,28.6s12.8,28.6,28.6,28.6s28.6-12.8,28.6-28.6
				S317.4,201.7,301.7,201.7L301.7,201.7z"/>
		</g>
	</g>
	<g class="st4">
		<path class="st2" d="M301.4,237.1c0.2,0.2,0.3,0.5,0.3,0.8c0,0.8-0.4,1.2-1.3,1.2h-10.5c-0.4,0-0.7-0.1-0.9-0.3
			c-0.2-0.2-0.3-0.5-0.3-0.9s0.2-0.8,0.5-1.1l6.4-7c0.9-0.9,1.5-1.8,1.8-2.5c0.4-0.8,0.6-1.5,0.6-2.3c0-1-0.3-1.7-0.8-2.2
			c-0.6-0.5-1.3-0.8-2.3-0.8c-1.5,0-3.1,0.6-4.6,1.8c-0.2,0.1-0.4,0.2-0.5,0.3s-0.3,0.1-0.4,0.1c-0.3,0-0.5-0.1-0.7-0.4
			c-0.2-0.2-0.3-0.5-0.3-0.8c0-0.5,0.2-0.8,0.5-1.1c0.8-0.7,1.7-1.2,2.7-1.6c1.1-0.4,2.1-0.6,3.2-0.6c1.8,0,3.2,0.5,4.3,1.4
			c1.1,0.9,1.6,2.1,1.6,3.7c0,1.1-0.2,2.2-0.7,3.1c-0.5,1-1.3,2.1-2.4,3.3l-5.1,5.5h8C300.8,236.8,301.2,236.9,301.4,237.1z"/>
		<path class="st2" d="M305.1,236.9c-1.2-1.7-1.8-4.1-1.8-7.3s0.6-5.6,1.8-7.3c1.2-1.7,2.9-2.5,5.1-2.5s3.9,0.8,5.1,2.5
			s1.8,4.1,1.8,7.3s-0.6,5.6-1.8,7.3c-1.2,1.7-2.9,2.5-5.1,2.5S306.3,238.5,305.1,236.9z M313.3,235.3c0.7-1.2,1-3.1,1-5.7
			s-0.3-4.5-1-5.7s-1.7-1.8-3.1-1.8s-2.4,0.6-3.1,1.8s-1,3.1-1,5.7c0,2.6,0.3,4.5,1,5.7s1.7,1.8,3.1,1.8
			C311.6,237.1,312.6,236.5,313.3,235.3z"/>
	</g>
</g>
<g>
	<g>
		<path class="st13" d="M366,256.4c-14.4,0-26.1-11.7-26.1-26.1c0-14.4,11.7-26.1,26.1-26.1s26.1,11.7,26.1,26.1
			C392,244.7,380.4,256.4,366,256.4z"/>
		<g>
			<path class="st2" d="M366,206.7c13,0,23.6,10.5,23.6,23.6c0,13-10.5,23.6-23.6,23.6s-23.6-10.5-23.6-23.6
				C342.4,217.3,353,206.7,366,206.7 M366,201.7c-15.7,0-28.6,12.8-28.6,28.6s12.8,28.6,28.6,28.6s28.6-12.8,28.6-28.6
				S381.7,201.7,366,201.7L366,201.7z"/>
		</g>
	</g>
	<g class="st4">
		<path class="st2" d="M365.7,237.1c0.2,0.2,0.3,0.5,0.3,0.8c0,0.8-0.4,1.2-1.3,1.2h-10.5c-0.4,0-0.7-0.1-0.9-0.3
			c-0.2-0.2-0.3-0.5-0.3-0.9s0.2-0.8,0.5-1.1l6.4-7c0.9-0.9,1.5-1.8,1.8-2.5c0.4-0.8,0.6-1.5,0.6-2.3c0-1-0.3-1.7-0.8-2.2
			c-0.6-0.5-1.3-0.8-2.3-0.8c-1.5,0-3.1,0.6-4.6,1.8c-0.2,0.1-0.4,0.2-0.5,0.3s-0.3,0.1-0.4,0.1c-0.3,0-0.5-0.1-0.7-0.4
			c-0.2-0.2-0.3-0.5-0.3-0.8c0-0.5,0.2-0.8,0.5-1.1c0.8-0.7,1.7-1.2,2.7-1.6c1.1-0.4,2.1-0.6,3.2-0.6c1.8,0,3.2,0.5,4.3,1.4
			c1.1,0.9,1.6,2.1,1.6,3.7c0,1.1-0.2,2.2-0.7,3.1c-0.5,1-1.3,2.1-2.4,3.3l-5.1,5.5h8C365.1,236.8,365.5,236.9,365.7,237.1z"/>
		<path class="st2" d="M381,237.1c0.2,0.2,0.3,0.5,0.3,0.8c0,0.8-0.4,1.2-1.3,1.2h-10.5c-0.4,0-0.7-0.1-0.9-0.3
			c-0.2-0.2-0.3-0.5-0.3-0.9s0.2-0.8,0.5-1.1l6.4-7c0.9-0.9,1.5-1.8,1.8-2.5c0.4-0.8,0.6-1.5,0.6-2.3c0-1-0.3-1.7-0.8-2.2
			c-0.6-0.5-1.3-0.8-2.3-0.8c-1.5,0-3.1,0.6-4.6,1.8c-0.2,0.1-0.4,0.2-0.5,0.3s-0.3,0.1-0.4,0.1c-0.3,0-0.5-0.1-0.7-0.4
			c-0.2-0.2-0.3-0.5-0.3-0.8c0-0.5,0.2-0.8,0.5-1.1c0.8-0.7,1.7-1.2,2.7-1.6c1.1-0.4,2.1-0.6,3.2-0.6c1.8,0,3.2,0.5,4.3,1.4
			c1.1,0.9,1.6,2.1,1.6,3.7c0,1.1-0.2,2.2-0.7,3.1c-0.5,1-1.3,2.1-2.4,3.3l-5.1,5.5h8C380.4,236.8,380.8,236.9,381,237.1z"/>
	</g>
</g>
<g>
	<line class="st14" x1="81.8" y1="56.7" x2="393" y2="56.7"/>
	<line class="st14" x1="108.8" y1="46.8" x2="108.8" y2="66.5"/>
	<line class="st14" x1="173.1" y1="46.8" x2="173.1" y2="66.5"/>
	<line class="st14" x1="237.4" y1="46.8" x2="237.4" y2="66.5"/>
	<line class="st14" x1="301.7" y1="46.8" x2="301.7" y2="66.5"/>
	<line class="st14" x1="366" y1="46.8" x2="366" y2="66.5"/>
	<g>
		<g>
			<g>
				<path class="st1" d="M112.3,29.8c2.6-11.3,13.4-19.7,26.2-19.7c9.1,0,17.1,4.2,22,10.7"/>
				<g>
					<path class="st2" d="M118,30.3c-0.4,3.1-3.2,5.3-6.3,4.9c-3.1-0.4-5.3-3.2-4.9-6.3s3.2-5.3,6.3-4.9S118.4,27.2,118,30.3z"/>
				</g>
				<g>
					<path class="st2" d="M160,20.2c0.8-2.8,3.9-5.8,6.3-7.2c-1.9,4.4-3,9.3-2.4,14.1c-3.8-3-8.6-4.4-13.4-5.2
						C153.3,20.6,156.9,19.4,160,20.2z"/>
				</g>
			</g>
		</g>
	</g>
	<g>
		<g>
			<g>
				<path class="st1" d="M178.8,29.8c2.6-11.3,13.4-19.7,26.2-19.7c9.1,0,17.1,4.2,22,10.7"/>
				<g>
					<path class="st2" d="M184.5,30.3c-0.4,3.1-3.2,5.3-6.3,4.9c-3.1-0.4-5.3-3.2-4.9-6.3c0.4-3.1,3.2-5.3,6.3-4.9
						C182.7,24.4,184.9,27.2,184.5,30.3z"/>
				</g>
				<g>
					<path class="st2" d="M226.5,20.2c0.8-2.8,3.9-5.8,6.3-7.2c-1.9,4.4-3,9.3-2.4,14.1c-3.8-3-8.6-4.4-13.4-5.2
						C219.8,20.6,223.4,19.4,226.5,20.2z"/>
				</g>
			</g>
		</g>
	</g>
	<g>
		<g>
			<g>
				<path class="st1" d="M246.9,29.8c2.6-11.3,13.4-19.7,26.2-19.7c9.1,0,17.1,4.2,22,10.7"/>
				<g>
					<path class="st2" d="M252.5,30.3c-0.4,3.1-3.2,5.3-6.3,4.9c-3.1-0.4-5.3-3.2-4.9-6.3c0.4-3.1,3.2-5.3,6.3-4.9
						C250.7,24.4,252.9,27.2,252.5,30.3z"/>
				</g>
				<g>
					<path class="st2" d="M294.5,20.2c0.8-2.8,3.9-5.8,6.3-7.2c-1.9,4.4-3,9.3-2.4,14.1c-3.8-3-8.6-4.4-13.4-5.2
						C287.9,20.6,291.5,19.4,294.5,20.2z"/>
				</g>
			</g>
		</g>
	</g>
	<g>
		<g>
			<g>
				<path class="st1" d="M314.4,29.8c2.6-11.3,13.4-19.7,26.2-19.7c9.1,0,17.1,4.2,22,10.7"/>
				<g>
					<path class="st2" d="M320.1,30.3c-0.4,3.1-3.2,5.3-6.3,4.9c-3.1-0.4-5.3-3.2-4.9-6.3s3.2-5.3,6.3-4.9
						C318.3,24.4,320.5,27.2,320.1,30.3z"/>
				</g>
				<g>
					<path class="st2" d="M362.1,20.2c0.8-2.8,3.9-5.8,6.3-7.2c-1.9,4.4-3,9.3-2.4,14.1c-3.8-3-8.6-4.4-13.4-5.2
						C355.4,20.6,359,19.4,362.1,20.2z"/>
				</g>
			</g>
		</g>
	</g>
	<g>
		<g>
			<path class="st6" d="M108.8,133.6c-14.4,0-26.1-11.7-26.1-26.1s11.7-26.1,26.1-26.1s26.1,11.7,26.1,26.1
				C134.9,121.9,123.2,133.6,108.8,133.6z"/>
			<g>
				<path class="st2" d="M108.8,84c13,0,23.6,10.5,23.6,23.6c0,13-10.5,23.6-23.6,23.6s-23.6-10.5-23.6-23.6
					C85.3,94.5,95.8,84,108.8,84 M108.8,79c-15.7,0-28.6,12.8-28.6,28.6s12.8,28.6,28.6,28.6s28.6-12.8,28.6-28.6S124.5,79,108.8,79
					L108.8,79z"/>
			</g>
		</g>
		<g class="st4">
			<path class="st2" d="M108.3,114.4c0.2,0.2,0.3,0.5,0.3,0.8c0,0.8-0.4,1.2-1.3,1.2h-9.1c-0.9,0-1.3-0.4-1.3-1.2
				c0-0.4,0.1-0.6,0.3-0.8c0.2-0.2,0.6-0.3,1-0.3h3.1v-13.5l-2.8,1.8c-0.2,0.1-0.4,0.2-0.5,0.2c-0.3,0-0.6-0.1-0.8-0.4
				c-0.2-0.3-0.3-0.6-0.3-0.9c0-0.4,0.2-0.7,0.5-1l4.2-2.7c0.4-0.3,0.8-0.4,1.2-0.4c0.4,0,0.7,0.1,1,0.4s0.4,0.6,0.4,1v15.6h3.1
				C107.7,114.1,108.1,114.2,108.3,114.4z"/>
			<path class="st2" d="M121.3,105c0.9,0.5,1.6,1.2,2.1,2.1s0.8,2,0.8,3.2s-0.3,2.3-0.8,3.2c-0.6,0.9-1.3,1.7-2.3,2.2
				s-2.2,0.8-3.5,0.8c-1.1,0-2.2-0.2-3.3-0.6c-1.1-0.4-2-0.9-2.7-1.6c-0.4-0.3-0.5-0.7-0.5-1.1c0-0.3,0.1-0.6,0.3-0.8
				c0.2-0.2,0.4-0.3,0.7-0.3c0.2,0,0.3,0,0.4,0.1s0.3,0.1,0.5,0.3c0.7,0.6,1.5,1,2.2,1.3c0.8,0.3,1.5,0.4,2.4,0.4c1.3,0,2.3-0.3,3-1
				s1.1-1.6,1.1-2.9c0-1.2-0.4-2.1-1.1-2.8c-0.7-0.7-1.7-1.1-2.9-1.1c-0.8,0-1.5,0.1-2.1,0.4s-1.2,0.7-1.7,1.2
				c-0.3,0.3-0.6,0.4-1,0.4c-0.3,0-0.6-0.1-0.8-0.3c-0.2-0.2-0.3-0.4-0.3-0.7v-8.9c0-0.4,0.1-0.7,0.3-1c0.2-0.2,0.6-0.4,1-0.4h9.3
				c0.4,0,0.7,0.1,1,0.3c0.2,0.2,0.4,0.5,0.4,0.8c0,0.4-0.1,0.6-0.4,0.8c-0.2,0.2-0.6,0.3-1,0.3h-7.9v6c1-0.8,2.2-1.2,3.7-1.2
				C119.4,104.3,120.4,104.5,121.3,105z"/>
		</g>
	</g>
	<g>
		<g>
			<path class="st6" d="M173.1,133.6c-14.4,0-26.1-11.7-26.1-26.1s11.7-26.1,26.1-26.1c14.4,0,26.1,11.7,26.1,26.1
				C199.2,121.9,187.5,133.6,173.1,133.6z"/>
			<g>
				<path class="st2" d="M173.1,84c13,0,23.6,10.5,23.6,23.6c0,13-10.5,23.6-23.6,23.6s-23.6-10.5-23.6-23.6S160.1,84,173.1,84
					 M173.1,79c-15.7,0-28.6,12.8-28.6,28.6s12.8,28.6,28.6,28.6s28.6-12.8,28.6-28.6S188.8,79,173.1,79L173.1,79z"/>
			</g>
		</g>
		<g class="st4">
			<path class="st2" d="M172.6,114.4c0.2,0.2,0.3,0.5,0.3,0.8c0,0.8-0.4,1.2-1.3,1.2h-9.1c-0.9,0-1.3-0.4-1.3-1.2
				c0-0.4,0.1-0.6,0.3-0.8c0.2-0.2,0.6-0.3,1-0.3h3.1v-13.5l-2.8,1.8c-0.2,0.1-0.4,0.2-0.5,0.2c-0.3,0-0.6-0.1-0.8-0.4
				s-0.3-0.6-0.3-0.9c0-0.4,0.2-0.7,0.5-1l4.2-2.7c0.4-0.3,0.8-0.4,1.2-0.4s0.7,0.1,1,0.4s0.4,0.6,0.4,1v15.6h3.1
				C172.1,114.1,172.4,114.2,172.6,114.4z"/>
			<path class="st2" d="M185.7,105c0.9,0.5,1.6,1.2,2.1,2.2c0.5,0.9,0.7,2,0.7,3.2s-0.3,2.3-0.8,3.2c-0.5,1-1.3,1.7-2.2,2.2
				c-1,0.5-2,0.8-3.2,0.8c-2.4,0-4.2-0.8-5.5-2.4s-1.9-3.9-1.9-6.9c0-2.1,0.3-3.9,0.9-5.5c0.6-1.5,1.5-2.7,2.6-3.5s2.5-1.2,4-1.2
				c1,0,2.1,0.2,3.1,0.6s1.9,0.9,2.6,1.6c0.4,0.3,0.5,0.7,0.5,1.1c0,0.3-0.1,0.6-0.3,0.8c-0.2,0.2-0.4,0.3-0.7,0.3
				c-0.2,0-0.3,0-0.4-0.1c-0.1-0.1-0.3-0.1-0.5-0.3c-1.5-1.2-3-1.8-4.3-1.8c-1.5,0-2.7,0.7-3.5,2.1s-1.2,3.3-1.2,5.8v0.1
				c0.4-0.9,1-1.7,1.9-2.2s1.9-0.8,3-0.8C183.7,104.2,184.8,104.5,185.7,105z M184.8,113.2c0.7-0.7,1-1.7,1-2.8c0-1.2-0.3-2.1-1-2.8
				c-0.7-0.7-1.6-1.1-2.7-1.1c-1.1,0-2.1,0.4-2.8,1.1s-1.1,1.7-1.1,2.8c0,1.2,0.4,2.1,1.1,2.8c0.7,0.7,1.6,1.1,2.8,1.1
				C183.2,114.3,184.1,114,184.8,113.2z"/>
		</g>
	</g>
	<g>
		<g>
			<path class="st6" d="M237.4,133.6c-14.4,0-26.1-11.7-26.1-26.1s11.7-26.1,26.1-26.1s26.1,11.7,26.1,26.1S251.8,133.6,237.4,133.6
				z"/>
			<g>
				<path class="st2" d="M237.4,84c13,0,23.6,10.5,23.6,23.6c0,13-10.5,23.6-23.6,23.6c-13,0-23.6-10.5-23.6-23.6
					C213.8,94.5,224.4,84,237.4,84 M237.4,79c-15.7,0-28.6,12.8-28.6,28.6s12.8,28.6,28.6,28.6s28.6-12.8,28.6-28.6
					S253.1,79,237.4,79L237.4,79z"/>
			</g>
		</g>
		<g class="st4">
			<path class="st2" d="M236.9,114.4c0.2,0.2,0.3,0.5,0.3,0.8c0,0.8-0.4,1.2-1.3,1.2h-9.1c-0.9,0-1.3-0.4-1.3-1.2
				c0-0.4,0.1-0.6,0.3-0.8c0.2-0.2,0.6-0.3,1-0.3h3.1v-13.5l-2.8,1.8c-0.2,0.1-0.4,0.2-0.5,0.2c-0.3,0-0.6-0.1-0.8-0.4
				s-0.3-0.6-0.3-0.9c0-0.4,0.2-0.7,0.5-1l4.2-2.7c0.4-0.3,0.8-0.4,1.2-0.4s0.7,0.1,1,0.4s0.4,0.6,0.4,1v15.6h3.1
				C236.3,114.1,236.7,114.2,236.9,114.4z"/>
			<path class="st2" d="M252.3,97.6c0.2,0.2,0.3,0.5,0.3,0.8s-0.1,0.7-0.3,1l-8.9,16.4c-0.3,0.5-0.7,0.8-1.2,0.8
				c-0.3,0-0.7-0.1-0.9-0.4s-0.4-0.5-0.4-0.9c0-0.2,0.1-0.5,0.2-0.8l8.2-15h-8.8c-0.4,0-0.8-0.1-1-0.3c-0.2-0.2-0.3-0.5-0.3-0.8
				c0-0.8,0.4-1.2,1.3-1.2h10.9C251.8,97.2,252.1,97.4,252.3,97.6z"/>
		</g>
	</g>
	<g>
		<g>
			<path class="st6" d="M301.7,133.6c-14.4,0-26.1-11.7-26.1-26.1s11.7-26.1,26.1-26.1s26.1,11.7,26.1,26.1
				C327.7,121.9,316.1,133.6,301.7,133.6z"/>
			<g>
				<path class="st2" d="M301.7,84c13,0,23.6,10.5,23.6,23.6c0,13-10.5,23.6-23.6,23.6c-13,0-23.6-10.5-23.6-23.6S288.7,84,301.7,84
					 M301.7,79c-15.7,0-28.6,12.8-28.6,28.6s12.8,28.6,28.6,28.6s28.6-12.8,28.6-28.6S317.4,79,301.7,79L301.7,79z"/>
			</g>
		</g>
		<g class="st4">
			<path class="st2" d="M301.2,114.4c0.2,0.2,0.3,0.5,0.3,0.8c0,0.8-0.4,1.2-1.3,1.2h-9.1c-0.9,0-1.3-0.4-1.3-1.2
				c0-0.4,0.1-0.6,0.3-0.8c0.2-0.2,0.6-0.3,1-0.3h3.1v-13.5l-2.8,1.8c-0.2,0.1-0.4,0.2-0.5,0.2c-0.3,0-0.6-0.1-0.8-0.4
				s-0.3-0.6-0.3-0.9c0-0.4,0.2-0.7,0.5-1l4.2-2.7c0.4-0.3,0.8-0.4,1.2-0.4c0.4,0,0.7,0.1,1,0.4s0.4,0.6,0.4,1v15.6h3.1
				C300.6,114.1,301,114.2,301.2,114.4z"/>
			<path class="st2" d="M316.3,108.3c0.6,0.8,0.9,1.8,0.9,3c0,1.7-0.6,3-1.8,3.9s-2.9,1.4-5.2,1.4s-4-0.5-5.2-1.4s-1.8-2.2-1.8-3.9
				c0-1.2,0.3-2.2,0.9-3s1.5-1.4,2.6-1.7c-1-0.4-1.7-0.9-2.3-1.7c-0.6-0.8-0.8-1.7-0.8-2.7c0-1.6,0.6-2.8,1.7-3.7s2.8-1.4,4.8-1.4
				s3.6,0.5,4.8,1.4s1.7,2.2,1.7,3.7c0,1-0.3,1.9-0.8,2.7c-0.6,0.8-1.3,1.4-2.2,1.7C314.8,106.9,315.7,107.5,316.3,108.3z
				 M314.5,111.1c0-2.2-1.4-3.3-4.3-3.3s-4.3,1.1-4.3,3.3c0,2.2,1.4,3.2,4.3,3.2S314.5,113.2,314.5,111.1z M307.3,100.1
				c-0.7,0.5-1,1.3-1,2.3s0.3,1.8,1,2.4s1.6,0.8,2.9,0.8s2.2-0.3,2.9-0.8s1-1.3,1-2.4c0-1-0.3-1.8-1-2.3s-1.6-0.8-2.9-0.8
				C308.9,99.3,308,99.5,307.3,100.1z"/>
		</g>
	</g>
	<g>
		<g>
			<path class="st6" d="M366,133.6c-14.4,0-26.1-11.7-26.1-26.1s11.7-26.1,26.1-26.1s26.1,11.7,26.1,26.1
				C392,121.9,380.4,133.6,366,133.6z"/>
			<g>
				<path class="st2" d="M366,84c13,0,23.6,10.5,23.6,23.6c0,13-10.5,23.6-23.6,23.6s-23.6-10.5-23.6-23.6S353,84,366,84 M366,79
					c-15.7,0-28.6,12.8-28.6,28.6s12.8,28.6,28.6,28.6s28.6-12.8,28.6-28.6S381.7,79,366,79L366,79z"/>
			</g>
		</g>
		<g class="st4">
			<path class="st2" d="M365.5,114.4c0.2,0.2,0.3,0.5,0.3,0.8c0,0.8-0.4,1.2-1.3,1.2h-9.1c-0.9,0-1.3-0.4-1.3-1.2
				c0-0.4,0.1-0.6,0.3-0.8c0.2-0.2,0.6-0.3,1-0.3h3.1v-13.5l-2.8,1.8c-0.2,0.1-0.4,0.2-0.5,0.2c-0.3,0-0.6-0.1-0.8-0.4
				s-0.3-0.6-0.3-0.9c0-0.4,0.2-0.7,0.5-1l4.2-2.7c0.4-0.3,0.8-0.4,1.2-0.4c0.4,0,0.7,0.1,1,0.4s0.4,0.6,0.4,1v15.6h3.1
				C364.9,114.1,365.3,114.2,365.5,114.4z"/>
			<path class="st2" d="M379.4,99.5c1.3,1.6,1.9,3.9,1.9,6.9c0,2.1-0.3,3.9-0.9,5.5s-1.5,2.7-2.6,3.5s-2.5,1.2-4,1.2
				c-1,0-2.1-0.2-3.1-0.6s-1.9-0.9-2.6-1.6c-0.4-0.3-0.5-0.7-0.5-1.1c0-0.3,0.1-0.6,0.3-0.8c0.2-0.2,0.4-0.3,0.7-0.3
				c0.2,0,0.3,0,0.4,0.1s0.3,0.1,0.5,0.3c1.5,1.2,3,1.8,4.3,1.8c1.5,0,2.7-0.7,3.5-2.1s1.2-3.3,1.2-5.8v-0.1c-0.4,0.9-1,1.7-1.9,2.2
				s-1.9,0.8-3,0.8s-2.2-0.3-3.1-0.8s-1.6-1.2-2.1-2.2c-0.5-0.9-0.7-2-0.7-3.2s0.3-2.3,0.8-3.2s1.3-1.7,2.2-2.2c1-0.5,2-0.8,3.2-0.8
				C376.3,97,378.1,97.8,379.4,99.5z M376.8,106c0.7-0.7,1.1-1.7,1.1-2.8c0-1.2-0.4-2.1-1.1-2.8c-0.7-0.7-1.6-1.1-2.8-1.1
				c-1.1,0-2,0.4-2.7,1.1s-1,1.7-1,2.8c0,1.2,0.3,2.1,1,2.8c0.7,0.7,1.6,1.1,2.7,1.1C375.2,107.1,376.1,106.7,376.8,106z"/>
		</g>
	</g>
</g>
<g class="st15">
	<circle class="st2" cx="376.4" cy="153.3" r="2.8"/>
	<circle class="st2" cx="355.6" cy="153.3" r="2.8"/>
	<circle class="st2" cx="334.9" cy="153.3" r="2.8"/>
	<circle class="st2" cx="314.1" cy="153.3" r="2.8"/>
	<circle class="st2" cx="293.4" cy="153.3" r="2.8"/>
	<circle class="st2" cx="272.6" cy="153.3" r="2.8"/>
	<circle class="st2" cx="251.9" cy="153.3" r="2.8"/>
	<circle class="st2" cx="231.1" cy="153.3" r="2.8"/>
	<circle class="st2" cx="210.4" cy="153.3" r="2.8"/>
	<circle class="st2" cx="189.6" cy="153.3" r="2.8"/>
	<circle class="st2" cx="168.9" cy="153.3" r="2.8"/>
	<circle class="st2" cx="148.1" cy="153.3" r="2.8"/>
	<circle class="st2" cx="127.4" cy="153.3" r="2.8"/>
	<circle class="st2" cx="106.6" cy="153.3" r="2.8"/>
	<circle class="st2" cx="85.9" cy="153.3" r="2.8"/>
	<circle class="st2" cx="65.1" cy="153.3" r="2.8"/>
	<circle class="st2" cx="44.4" cy="153.3" r="2.8"/>
	<circle class="st2" cx="23.6" cy="153.3" r="2.8"/>
	<circle class="st2" cx="2.8" cy="153.3" r="2.8"/>
	<circle class="st2" cx="397.1" cy="153.3" r="2.8"/>
</g>
<g class="st15">
	<circle class="st2" cx="376.4" cy="286.3" r="2.8"/>
	<circle class="st2" cx="355.6" cy="286.3" r="2.8"/>
	<circle class="st2" cx="334.9" cy="286.3" r="2.8"/>
	<circle class="st2" cx="314.1" cy="286.3" r="2.8"/>
	<circle class="st2" cx="293.4" cy="286.3" r="2.8"/>
	<circle class="st2" cx="272.6" cy="286.3" r="2.8"/>
	<circle class="st2" cx="251.9" cy="286.3" r="2.8"/>
	<circle class="st2" cx="231.1" cy="286.3" r="2.8"/>
	<circle class="st2" cx="210.4" cy="286.3" r="2.8"/>
	<circle class="st2" cx="189.6" cy="286.3" r="2.8"/>
	<circle class="st2" cx="168.9" cy="286.3" r="2.8"/>
	<circle class="st2" cx="148.1" cy="286.3" r="2.8"/>
	<circle class="st2" cx="127.4" cy="286.3" r="2.8"/>
	<circle class="st2" cx="106.6" cy="286.3" r="2.8"/>
	<circle class="st2" cx="85.9" cy="286.3" r="2.8"/>
	<circle class="st2" cx="65.1" cy="286.3" r="2.8"/>
	<circle class="st2" cx="44.4" cy="286.3" r="2.8"/>
	<circle class="st2" cx="23.6" cy="286.3" r="2.8"/>
	<circle class="st2" cx="2.8" cy="286.3" r="2.8"/>
	<circle class="st2" cx="397.1" cy="286.3" r="2.8"/>
</g>
</svg>
