<?xml version="1.0" encoding="utf-8"?>
<!-- Generator: Adobe Illustrator 22.0.1, SVG Export Plug-In . SVG Version: 6.00 Build 0)  -->
<svg version="1.0" id="Layer_1" xmlns="http://www.w3.org/2000/svg" xmlns:xlink="http://www.w3.org/1999/xlink" x="0px" y="0px"
	 viewBox="0 0 150 90" style="enable-background:new 0 0 150 90;" xml:space="preserve">
<style type="text/css">
	.st0{fill:#FFFFFF;}
	.st1{fill:#3DA077;}
	.st2{fill:#56BD94;}
	.st3{fill:#8CC98F;}
	.st4{fill:#BCD98D;}
	.st5{fill:#EB2E4C;}
	.st6{fill:#FDF4D3;}
	.st7{fill:none;stroke:#FFFFFF;stroke-width:5.3269;stroke-linecap:round;stroke-linejoin:round;}
</style>
<g>
	<g>
		<g>
			<path class="st0" d="M36.5,51.2c-1.8,0-3.6-1-4.5-2.6c-0.6-1-0.8-2.2-0.6-3.3l-7.8,4.3c-0.8,0.4-1.6,0.6-2.5,0.6
				c-1.8,0-3.6-1-4.5-2.6l0-0.1c-1.3-2.6-0.4-5.7,2-7l10.9-6l-1.1-12.8c-0.1-0.4-0.1-0.9-0.1-1.4L28.1,20l0.1-0.7
				c0.1-0.5,0.3-1.4,0.8-2.2c0.1-0.1,0.2-0.3,0.3-0.4c1.1-1.9,3-3.3,5.3-3.6c0.3-0.1,0.7-0.1,1.1-0.1c0.2,0,0.4,0,0.5,0l40-10.4
				l0,0.2l4.4-1c0.4-0.2,0.8-0.3,1.2-0.4c0.4-0.1,0.9-0.2,1.4-0.2c1.1,0,2.2,0.3,3.3,0.8l0.1,0l0.1,0c1.9,1.1,3.2,3.1,3.5,5.3
				c0.5,1,0.6,2.2,0.4,3.3l4.3,2.4l-0.6,1l6.5-0.8c0.2,0,0.4,0,0.5,0c2.6,0,4.8,2,5.1,4.5c0.2,1.3-0.1,2.7-0.9,3.8
				c-0.8,1.1-2.1,1.9-3.5,2l-14,1.6l-1.2,2.2l8.6,5.8c2.3,1.6,3,4.7,1.6,7.1l0,0.1l-0.1,0.1c-1,1.4-2.7,2.2-4.4,2.2l0,0
				c-1,0-2-0.3-2.8-0.9L81,36.2c-3.2,2.8-7.9,5.1-8.2,5.2c-2,1-5.2,2.4-9,2.6l-3.3,0.5l-0.2,0c-1.9-0.3-3.9-0.9-5.7-1.7
				c-0.4,0.2-0.9,0.3-1.4,0.3l-1.1,0.1l0,0L39,50.5C38.2,50.9,37.3,51.2,36.5,51.2z"/>
			<path class="st0" d="M83.3,2.9c0.9,0,1.8,0.2,2.7,0.6c1.7,1,2.6,2.6,2.8,4.4c0.5,1,0.6,2.3,0.1,3.4c0,0.1-0.1,0.1-0.1,0.2
				l4.1,2.3l-1.3,2.3l9.4-1.1c0.1,0,0.2,0,0.4,0c1.9,0,3.5,1.4,3.6,3.2c0.4,2-1.1,3.9-3.1,4.1L87,24L84.7,28l9.7,6.6
				c1.7,1.2,2.1,3.4,1.1,5.1c-0.8,1-2,1.6-3.2,1.6c-0.7,0-1.4-0.2-1.9-0.6l-9.6-6.4c-2.9,3-8.6,5.7-8.6,5.7
				c-2.5,1.3-5.5,2.3-8.5,2.5L60.6,43c-2-0.3-4-0.9-5.9-1.9c-0.5,0.2-1,0.4-1.6,0.5l0-0.1c-0.3,0-0.5,0.1-0.8,0.1
				c-0.1,0-0.1,0-0.2,0l-13.8,7.6c-0.6,0.3-1.2,0.5-1.8,0.5c-1.3,0-2.5-0.7-3.2-1.9c-1-1.7-0.4-3.9,1.4-5l11.7-6.4l-0.1-1.1
				c-1.2-1-2.4-2-3.4-2.9l0.1,1.4c0.3,1.7-0.2,3.4-1.3,4.7c-0.9,1-2.2,1.9-3.7,2.1l-0.1-0.3l0,0.3c-0.3,0.1-0.6,0.1-0.8,0.1
				c-0.1,0-0.2,0-0.3,0l-13.8,7.6c-0.6,0.3-1.2,0.5-1.8,0.5c-1.3,0-2.5-0.7-3.2-1.9c-0.9-1.8-0.3-4.1,1.4-5L31,35.3l-1.2-13.8
				c-0.1-0.6-0.1-1.2,0-1.8c0,0-0.1-0.1-0.1-0.1c0.1-0.5,0.3-1.2,0.6-1.7c0.1-0.1,0.2-0.2,0.2-0.4c0.9-1.5,2.4-2.6,4.3-2.9
				c0.3-0.1,0.6-0.1,0.9-0.1c0.2,0,0.4,0,0.7,0l38.3-10l0,0.3l0.1-0.2l6.2-1.4c0.3-0.1,0.7-0.2,1.1-0.3C82.5,2.9,82.9,2.9,83.3,2.9
				 M83.3-0.1C83.3-0.1,83.3-0.1,83.3-0.1c-0.6,0-1.2,0.1-1.8,0.2c-0.4,0.1-0.9,0.2-1.3,0.4L77.8,1l0-0.3l-3.8,1l-37.8,9.8
				c-0.1,0-0.3,0-0.4,0c-0.5,0-1,0-1.4,0.1c-2.7,0.4-4.9,2-6.3,4.3c-0.1,0.2-0.2,0.3-0.3,0.4c-0.6,0.9-0.8,2.1-1,2.6l-0.3,1.4
				l0.3,0.3c0,0.4,0,0.7,0.1,1.1l1,11.8l-10.1,5.5c-3.1,1.7-4.3,5.7-2.7,9l0,0.1l0.1,0.1c1.2,2.1,3.4,3.3,5.8,3.3
				c1.1,0,2.2-0.3,3.2-0.8l5.7-3.1c0.1,0.6,0.4,1.1,0.7,1.6c1.2,2.1,3.4,3.3,5.8,3.3c1.1,0,2.2-0.3,3.2-0.8l12.9-7.1l0.9-0.1
				c0.4,0,0.7-0.1,1.1-0.2c1.8,0.8,3.7,1.3,5.6,1.6l0.5,0.1l0.5-0.1l3-0.5c3.9-0.3,7.3-1.7,9.5-2.8c0.7-0.3,4.5-2.2,7.6-4.6l7.6,5.1
				c1,0.7,2.3,1.1,3.6,1.1c2.2,0,4.2-1,5.6-2.8l0.1-0.1l0.1-0.1c1.8-3.1,1-7-2-9.1l0,0l0,0l-7.4-5l0.2-0.3l13.3-1.5
				c1.8-0.2,3.5-1.1,4.6-2.6c1-1.4,1.5-3.2,1.2-4.9c-0.4-3.2-3.3-5.8-6.6-5.8c-0.2,0-0.4,0-0.7,0l0,0l0,0l-4,0.5l-2.3-1.3L92.1,10
				c0-1-0.1-1.9-0.5-2.8c-0.4-2.6-1.9-4.9-4.2-6.2l-0.1-0.1l-0.1-0.1C85.9,0.2,84.6-0.1,83.3-0.1L83.3-0.1L83.3-0.1z"/>
		</g>
		<g>
			<circle class="st0" cx="105.1" cy="25.4" r="3.5"/>
			<path class="st0" d="M105.1,23.4c1.1,0,2,0.9,2,2c0,1.1-0.9,2-2,2c-1.1,0-2-0.9-2-2C103.1,24.3,104,23.4,105.1,23.4 M105.1,20.4
				c-2.8,0-5,2.2-5,5s2.2,5,5,5s5-2.2,5-5S107.9,20.4,105.1,20.4L105.1,20.4z"/>
		</g>
		<g>
			<circle class="st0" cx="108.5" cy="19.2" r="3.5"/>
			<path class="st0" d="M108.5,17.2c1.1,0,2,0.9,2,2s-0.9,2-2,2c-1.1,0-2-0.9-2-2S107.4,17.2,108.5,17.2 M108.5,14.2
				c-2.8,0-5,2.2-5,5s2.2,5,5,5s5-2.2,5-5S111.3,14.2,108.5,14.2L108.5,14.2z"/>
		</g>
		<g>
			<circle class="st0" cx="104.5" cy="12.3" r="3.5"/>
			<path class="st0" d="M104.5,10.3c1.1,0,2,0.9,2,2s-0.9,2-2,2c-1.1,0-2-0.9-2-2S103.4,10.3,104.5,10.3 M104.5,7.3
				c-2.8,0-5,2.2-5,5s2.2,5,5,5s5-2.2,5-5S107.3,7.3,104.5,7.3L104.5,7.3z"/>
		</g>
		<g>
			<circle class="st0" cx="29.5" cy="48.4" r="3.5"/>
			<path class="st0" d="M29.5,46.4c1.1,0,2,0.9,2,2c0,1.1-0.9,2-2,2s-2-0.9-2-2C27.5,47.3,28.4,46.4,29.5,46.4 M29.5,43.4
				c-2.8,0-5,2.2-5,5s2.2,5,5,5s5-2.2,5-5S32.3,43.4,29.5,43.4L29.5,43.4z"/>
		</g>
		<g>
			<circle class="st0" cx="35.8" cy="53.2" r="3.5"/>
			<path class="st0" d="M35.8,51.2c1.1,0,2,0.9,2,2s-0.9,2-2,2c-1.1,0-2-0.9-2-2S34.7,51.2,35.8,51.2 M35.8,48.2c-2.8,0-5,2.2-5,5
				s2.2,5,5,5c2.8,0,5-2.2,5-5S38.6,48.2,35.8,48.2L35.8,48.2z"/>
		</g>
		<g>
			<circle class="st0" cx="90.8" cy="45.2" r="3.5"/>
			<path class="st0" d="M90.8,43.2c1.1,0,2,0.9,2,2s-0.9,2-2,2c-1.1,0-2-0.9-2-2S89.7,43.2,90.8,43.2 M90.8,40.2c-2.8,0-5,2.2-5,5
				s2.2,5,5,5s5-2.2,5-5S93.6,40.2,90.8,40.2L90.8,40.2z"/>
		</g>
		<g>
			<path class="st0" d="M97.5,46.1c-1.9,0-3.5-1.6-3.5-3.5s1.6-3.5,3.5-3.5s3.5,1.6,3.5,3.5S99.5,46.1,97.5,46.1z"/>
			<path class="st0" d="M97.5,40.6c1.1,0,2,0.9,2,2c0,1.1-0.9,2-2,2c-1.1,0-2-0.9-2-2C95.5,41.5,96.4,40.6,97.5,40.6 M97.5,37.6
				c-2.8,0-5,2.2-5,5s2.2,5,5,5s5-2.2,5-5S100.3,37.6,97.5,37.6L97.5,37.6z"/>
		</g>
		<g>
			<path class="st0" d="M98.9,38.3c-1.9,0-3.5-1.6-3.5-3.5s1.6-3.5,3.5-3.5c1.9,0,3.5,1.6,3.5,3.5S100.9,38.3,98.9,38.3z"/>
			<path class="st0" d="M98.9,32.8c1.1,0,2,0.9,2,2s-0.9,2-2,2c-1.1,0-2-0.9-2-2S97.8,32.8,98.9,32.8 M98.9,29.8c-2.8,0-5,2.2-5,5
				s2.2,5,5,5s5-2.2,5-5S101.7,29.8,98.9,29.8L98.9,29.8z"/>
		</g>
		<g>
			<circle class="st0" cx="15.1" cy="40.2" r="3.5"/>
			<path class="st0" d="M15.1,38.2c1.1,0,2,0.9,2,2s-0.9,2-2,2c-1.1,0-2-0.9-2-2S14,38.2,15.1,38.2 M15.1,35.2c-2.8,0-5,2.2-5,5
				s2.2,5,5,5s5-2.2,5-5S17.9,35.2,15.1,35.2L15.1,35.2z"/>
		</g>
		<g>
			<circle class="st0" cx="14.3" cy="47.2" r="3.5"/>
			<path class="st0" d="M14.3,45.2c1.1,0,2,0.9,2,2s-0.9,2-2,2c-1.1,0-2-0.9-2-2S13.2,45.2,14.3,45.2 M14.3,42.2c-2.8,0-5,2.2-5,5
				s2.2,5,5,5s5-2.2,5-5S17.1,42.2,14.3,42.2L14.3,42.2z"/>
		</g>
		<g>
			<circle class="st0" cx="20.6" cy="52" r="3.5"/>
			<path class="st0" d="M20.6,50c1.1,0,2,0.9,2,2s-0.9,2-2,2c-1.1,0-2-0.9-2-2S19.5,50,20.6,50 M20.6,47c-2.8,0-5,2.2-5,5s2.2,5,5,5
				s5-2.2,5-5S23.4,47,20.6,47L20.6,47z"/>
		</g>
	</g>
	<g>
		<path class="st1" d="M101.8,22.3l-19.7,2.2c-2,0.2-3.8-1.3-4-3.2l0,0c-0.2-2,1.3-3.8,3.2-4l19.6-2.3c2-0.2,3.8,1.3,4,3.2l0,0
			C105.3,20.2,103.8,22.1,101.8,22.3z"/>
		<circle class="st1" cx="105.1" cy="25.4" r="2"/>
		<circle class="st1" cx="108.5" cy="19.2" r="2"/>
		<circle class="st1" cx="104.5" cy="12.3" r="2"/>
		<g>
			<g>
				<path class="st2" d="M34.6,42.8L52,33.2c1.8-1,4-0.3,5,1.4l0,0c1,1.8,0.3,4-1.4,5l-17.4,9.6c-1.8,1-4,0.3-5-1.4l0,0
					C32.2,46.1,32.8,43.9,34.6,42.8z"/>
				<circle class="st2" cx="30.4" cy="41.2" r="2"/>
				<circle class="st2" cx="29.5" cy="48.4" r="2"/>
				<circle class="st2" cx="35.8" cy="53.2" r="2"/>
			</g>
			<path class="st2" d="M53.1,41.6c1.5-0.2,2.8-1.1,3.7-2.1c1.1-1.3,1.6-3,1.3-4.7l-1.2-14.1c-0.2-1.4-1-2.7-1.9-3.5
				c-0.1-0.1-0.3-0.3-0.5-0.4c-1.3-0.9-2.9-1.4-4.5-1.1l-2.5,13.7L53.1,41.6z"/>
			<path class="st2" d="M50,41.2c1,0.3,2,0.5,3.1,0.3l-3-25.9c-3.3,0.5-5.5,3.6-5,6.9l1.2,14.2C46.6,38.8,48.1,40.5,50,41.2z"/>
		</g>
		<path class="st3" d="M74.7,4.6L33.9,15.2c-1.5,0.3-2.8,1.3-3.6,2.7c-0.3,0.5-0.5,1.2-0.6,1.7c1.1,1.3,26.2,20,26.3,20l18.4-18.1
			L74.7,4.6z"/>
		<path class="st2" d="M73,12.9l-3.4,0.7L56,37.9c2,1.1,3.9,1.5,6.4,2c14.5,3.2,23.4-18.3,23.4-18.3l3-0.7l4-7.1L88,11.1
			c-2.3-2.7-4.2-5.2-6-8l-7.2,1.6l-3.1,5.4L73,12.9z"/>
		<g>
			<rect x="48.5" y="14" transform="matrix(0.4904 -0.8715 0.8715 0.4904 11.7823 52.2625)" class="st4" width="4.2" height="4.2"/>
			<rect x="50.6" y="21.4" transform="matrix(0.4904 -0.8715 0.8715 0.4904 6.379 57.8513)" class="st4" width="4.2" height="4.2"/>
		</g>
		<path class="st5" d="M85.9,3.5c-1.3-0.6-2.6-0.8-3.8-0.5l0,0l0,0c-1.6,0.3-2.9,1.2-3.6,2.6c-1.5,2.7-0.5,6,2.1,7.5s6,0.5,7.5-2.1
			C89.4,8.3,88.5,5,85.9,3.5z"/>
		<path class="st0" d="M87.3,6.5c-0.7-0.4-1.7-0.5-2.5-0.3l0,0l0,0c-1,0.2-1.8,0.9-2.2,1.7c-1,1.7-0.3,3.8,1.4,4.8
			c1.7,1,3.8,0.3,4.8-1.4C89.5,9.6,89,7.5,87.3,6.5z"/>
		<path d="M88,9.7c-0.2-0.1-0.5-0.2-0.9-0.1l0,0l0,0c-0.2,0.1-0.5,0.2-0.6,0.5c-0.3,0.5-0.1,1.3,0.4,1.6s1.3,0.1,1.6-0.4
			C88.8,10.8,88.6,10,88,9.7z"/>
		<path class="st6" d="M83.9,18.1l-6.8,12.1l-1.9,1.5c-7.5,5.6-11.8,6.1-13.6,6C60,37.5,58.5,37,57,36.2c-0.1-0.1-0.2-0.1-0.3-0.2
			L34.6,18.6c-1.2,2,2.8,12,19.7,22.3l0,0c2,1.1,4.2,1.8,6.3,2.1l3.1-0.5l0,0c3-0.2,6-1.2,8.5-2.5c0,0,7.8-3.7,9.8-7.2l6.8-12.1
			L83.9,18.1z"/>
		
			<rect x="70.5" y="10.7" transform="matrix(0.4904 -0.8715 0.8715 0.4904 25.7899 69.7739)" class="st4" width="4.2" height="4.2"/>
		<rect x="58" y="10.7" transform="matrix(0.4904 -0.8715 0.8715 0.4904 19.4937 58.9025)" class="st2" width="4.2" height="4.2"/>
		<rect x="58" y="18.6" transform="matrix(0.4904 -0.8715 0.8715 0.4904 12.623 62.9275)" class="st2" width="4.2" height="4.2"/>
		<path class="st2" d="M90.4,40.7L73.9,29.6c-1.7-1.2-2.1-3.4-1.1-5.1l0,0c1.2-1.7,3.4-2.1,5.1-1.1l16.5,11.2
			c1.7,1.2,2.1,3.4,1.1,5.1l0,0C94.3,41.3,92,41.8,90.4,40.7z"/>
		<circle class="st2" cx="90.8" cy="45.2" r="2"/>
		<circle class="st2" cx="97.5" cy="42.6" r="2"/>
		<circle class="st2" cx="98.9" cy="34.8" r="2"/>
		<g>
			<path class="st3" d="M19.2,41.8l17.4-9.6c1.8-1,4-0.3,5,1.4l0,0c1,1.8,0.3,4-1.4,5l-17.4,9.6c-1.8,1-4,0.3-5-1.4l0,0
				C16.9,45,17.5,42.7,19.2,41.8z"/>
			<circle class="st3" cx="15.1" cy="40.2" r="2"/>
			<circle class="st3" cx="14.3" cy="47.2" r="2"/>
			<circle class="st3" cx="20.6" cy="52" r="2"/>
		</g>
		<path class="st4" d="M37.9,40.5c1.5-0.2,2.8-1.1,3.7-2.1c1.1-1.3,1.6-3,1.3-4.7l-1.2-14.1c-0.2-1.4-1-2.7-1.9-3.5
			c-0.1-0.1-0.3-0.3-0.5-0.4c-1.3-0.9-2.9-1.4-4.5-1.1l-2.5,13.7L37.9,40.5z"/>
		<path class="st3" d="M34.7,40.2c1,0.3,2,0.5,3.1,0.3l-3-25.9c-3.3,0.5-5.5,3.6-5,6.9L31,35.6C31.2,37.7,32.7,39.4,34.7,40.2z"/>
	</g>
	<g>
		<g>
			<g>
				<path class="st7" d="M25.1,82.8c2.8-12,14.3-21,27.9-21c9.7,0,18.2,4.5,23.4,11.4"/>
				<g>
					<path class="st0" d="M31.2,83.4c-0.4,3.3-3.4,5.6-6.7,5.2s-5.6-3.4-5.2-6.7c0.4-3.3,3.4-5.6,6.7-5.2S31.6,80.1,31.2,83.4z"/>
				</g>
				<g>
					<path class="st0" d="M75.9,72.6c0.9-3,4.2-6.2,6.7-7.7c-2,4.7-3.2,9.9-2.6,15c-4-3.2-9.2-4.7-14.3-5.5
						C68.8,73,72.6,71.7,75.9,72.6z"/>
				</g>
			</g>
		</g>
	</g>
	<g>
		<g>
			<g>
				<path class="st7" d="M90.1,82.8c2.8-12,14.3-21,27.9-21c9.7,0,18.2,4.5,23.4,11.4"/>
				<g>
					<path class="st0" d="M96.2,83.4c-0.4,3.3-3.4,5.6-6.7,5.2c-3.3-0.4-5.6-3.4-5.2-6.7c0.4-3.3,3.4-5.6,6.7-5.2
						C94.3,77.1,96.6,80.1,96.2,83.4z"/>
				</g>
				<g>
					<path class="st0" d="M140.9,72.6c0.9-3,4.2-6.2,6.7-7.7c-2,4.7-3.2,9.9-2.6,15c-4-3.2-9.2-4.7-14.3-5.5
						C133.8,73,137.6,71.7,140.9,72.6z"/>
				</g>
			</g>
		</g>
	</g>
</g>
</svg>
