<?xml version="1.0" encoding="utf-8"?>
<!-- Generator: Adobe Illustrator 22.0.1, SVG Export Plug-In . SVG Version: 6.00 Build 0)  -->
<svg version="1.0" id="Layer_1" xmlns="http://www.w3.org/2000/svg" xmlns:xlink="http://www.w3.org/1999/xlink" x="0px" y="0px"
	 viewBox="0 0 187.1 612" style="enable-background:new 0 0 187.1 612;" xml:space="preserve">
<style type="text/css">
	.st0{fill:#C3482E;}
	.st1{fill:#F06D30;}
	.st2{fill:none;}
	.st3{fill:#490E3D;}
</style>
<path class="st0" d="M43.5,217.4c-16,0-28.9,12.9-28.9,28.9s12.9,28.9,28.9,28.9s28.9-12.9,28.9-28.9S59.5,217.4,43.5,217.4z
	 M43.5,269.4c-12.7,0-23.1-10.3-23.1-23.1s10.3-23.1,23.1-23.1s23.1,10.3,23.1,23.1S56.2,269.4,43.5,269.4z"/>
<path class="st0" d="M43.5,217.4c-16,0-28.9,12.9-28.9,28.9s12.9,28.9,28.9,28.9s28.9-12.9,28.9-28.9S59.5,217.4,43.5,217.4z
	 M43.5,269.4c-12.7,0-23.1-10.3-23.1-23.1s10.3-23.1,23.1-23.1s23.1,10.3,23.1,23.1S56.2,269.4,43.5,269.4z"/>
<g>
	<rect x="0.8" y="408.7" class="st1" width="188.7" height="203.3"/>
	<rect x="0.9" y="408.7" class="st2" width="188.7" height="203.3"/>
	<path class="st0" d="M146.8,216.7c-16,0-28.9,12.9-28.9,28.9s12.9,28.9,28.9,28.9s28.9-12.9,28.9-28.9S162.8,216.7,146.8,216.7z
		 M146.8,268.7c-12.7,0-23.1-10.3-23.1-23.1s10.3-23.1,23.1-23.1s23.1,10.3,23.1,23.1S159.6,268.7,146.8,268.7z"/>
	<path class="st3" d="M124.4,408.7H65.9c-6.1,0-11-4.9-11-11V385c0-6.1,4.9-11,11-11h58.4c6.1,0,11,4.9,11,11v12.7
		C135.4,403.8,130.5,408.7,124.4,408.7z"/>
	<g>
		<rect x="72.5" y="382.5" class="st1" width="45.2" height="17.8"/>
		<path class="st0" d="M116.3,384v14.8H74V384H116.3 M119.3,381H71v20.8h48.2V381H119.3z"/>
	</g>
	<path class="st0" d="M109.2,310.7c0-7.7-6.3-14-14-14s-14,6.3-14,14c0,5.6,3.3,10.4,8,12.6V374h11.9v-50.7
		C105.9,321.1,109.2,316.3,109.2,310.7z"/>
	<g>
		<path class="st1" d="M156.8,194.1c-15.1,101.2-37.2,116.2-61.7,116.2s-46.5-15-61.7-116.2L156.8,194.1L156.8,194.1z"/>
	</g>
	<g>
		<path class="st0" d="M113.3,374.1H77.1c-2.6,0-4.7-2.1-4.7-4.7l0,0c0-2.6,2.1-4.7,4.7-4.7h36.2c2.6,0,4.7,2.1,4.7,4.7l0,0
			C117.9,372,115.8,374.1,113.3,374.1z"/>
	</g>
	<g>
		<path class="st0" d="M157.3,194.1H33.1c-2.9,0-5.3-2.4-5.3-5.3l0,0c0-2.9,2.4-5.3,5.3-5.3h124.2c2.9,0,5.3,2.4,5.3,5.3l0,0
			C162.5,191.7,160.2,194.1,157.3,194.1z"/>
	</g>
</g>
</svg>
