<?xml version="1.0" encoding="utf-8"?>
<!-- Generator: Adobe Illustrator 22.0.1, SVG Export Plug-In . SVG Version: 6.00 Build 0)  -->
<svg version="1.0" id="Layer_1" xmlns="http://www.w3.org/2000/svg" xmlns:xlink="http://www.w3.org/1999/xlink" x="0px" y="0px"
	 viewBox="0 0 187.1 612" style="enable-background:new 0 0 187.1 612;" xml:space="preserve">
<style type="text/css">
	.st0{fill:#FADC3C;}
	.st1{fill:none;}
	.st2{fill:#E7C42A;}
	.st3{fill:#490A3D;}
</style>
<polygon class="st0" points="0.7,257.2 0.7,401.5 0.7,495.9 0.7,612 189.3,612 189.3,495.9 189.3,401.5 189.3,257.2 "/>
<polygon class="st1" points="189.3,612 189.3,517.7 189.3,423.3 189.3,257.2 0.7,257.2 0.7,423.3 0.7,517.7 0.7,612 "/>
<g>
	<path class="st2" d="M60.2,77.1c-13.1,0-23.7,10.6-23.7,23.7s10.6,23.7,23.7,23.7s23.7-10.6,23.7-23.7S73.3,77.1,60.2,77.1z
		 M60.2,119.9c-10.4,0-19-8.5-19-19s8.5-19,19-19s19,8.5,19,19S70.6,119.9,60.2,119.9z"/>
	<path class="st2" d="M41.9,48.2c-16,0-28.9,12.9-28.9,28.9S25.9,106,41.9,106s28.9-12.9,28.9-28.9S57.9,48.2,41.9,48.2z
		 M41.9,100.2c-12.7,0-23.1-10.3-23.1-23.1S29.1,54,41.9,54S65,64.3,65,77.1S54.6,100.2,41.9,100.2z"/>
	<path class="st2" d="M137,76.6c-13.1,0-23.7,10.6-23.7,23.7s10.6,23.7,23.7,23.7s23.7-10.6,23.7-23.7S150.1,76.6,137,76.6z
		 M137,119.3c-10.4,0-19-8.5-19-19s8.5-19,19-19c10.5,0,19,8.5,19,19S147.5,119.3,137,119.3z"/>
	<path class="st2" d="M145.2,43.1c-16,0-28.9,12.9-28.9,28.9s12.9,28.9,28.9,28.9S174.1,88,174.1,72S161.2,43.1,145.2,43.1z
		 M145.2,95.1c-12.7,0-23.1-10.3-23.1-23.1s10.3-23.1,23.1-23.1s23.1,10.3,23.1,23.1S158,95.1,145.2,95.1z"/>
	<g>
		<path class="st2" d="M159.7,42.5H35.5c-2.9,0-5.3-2.4-5.3-5.3l0,0c0-2.9,2.4-5.3,5.3-5.3h124.2c2.9,0,5.3,2.4,5.3,5.3l0,0
			C165,40.2,162.7,42.5,159.7,42.5z"/>
	</g>
	<g>
		<path class="st0" d="M168.1,33.2h-141c-3.3,0-6-2.7-6-6l0,0c0-3.3,2.7-6,6-6h141c3.3,0,6,2.7,6,6l0,0
			C174.1,30.6,171.5,33.2,168.1,33.2z"/>
	</g>
	<path class="st3" d="M127.1,257.2H68.2c-6,0-10.8-4.8-10.8-10.8v-13.1c0-6,4.8-10.8,10.8-10.8H127c6,0,10.8,4.8,10.8,10.8v13.1
		C137.9,252.4,133,257.2,127.1,257.2z"/>
	<rect x="73.5" y="229.5" class="st2" width="48.2" height="20.8"/>
	<path class="st2" d="M111.6,159.2c0-7.7-6.3-14-14-14s-14,6.3-14,14c0,5.6,3.3,10.4,8,12.6v50.7h11.9v-50.7
		C108.3,169.6,111.6,164.8,111.6,159.2z"/>
	<g>
		<path class="st0" d="M159.3,42.5c-15.1,101.2-37.2,116.2-61.7,116.2s-46.5-15-61.7-116.2H159.3z"/>
	</g>
	<g>
		<path class="st2" d="M115.7,222.5H79.5c-2.6,0-4.7-2.1-4.7-4.7l0,0c0-2.6,2.1-4.7,4.7-4.7h36.2c2.6,0,4.7,2.1,4.7,4.7l0,0
			C120.4,220.4,118.3,222.5,115.7,222.5z"/>
	</g>
	<g>
		<path class="st0" d="M115.7,207.2H79.5c-2.6,0-4.7-2.1-4.7-4.7l0,0c0-2.6,2.1-4.7,4.7-4.7h36.2c2.6,0,4.7,2.1,4.7,4.7l0,0
			C120.4,205.1,118.3,207.2,115.7,207.2z"/>
	</g>
	<g>
		<path class="st0" d="M115.7,207.2H79.5c-2.6,0-4.7-2.1-4.7-4.7l0,0c0-2.6,2.1-4.7,4.7-4.7h36.2c2.6,0,4.7,2.1,4.7,4.7l0,0
			C120.4,205.1,118.3,207.2,115.7,207.2z"/>
	</g>
	<g>
		<path class="st0" d="M115.7,192.9H79.5c-2.6,0-4.7-2.1-4.7-4.7l0,0c0-2.6,2.1-4.7,4.7-4.7h36.2c2.6,0,4.7,2.1,4.7,4.7l0,0
			C120.4,190.8,118.3,192.9,115.7,192.9z"/>
	</g>
	<g>
		<path class="st0" d="M115.7,178.2H79.5c-2.6,0-4.7-2.1-4.7-4.7l0,0c0-2.6,2.1-4.7,4.7-4.7h36.2c2.6,0,4.7,2.1,4.7,4.7l0,0
			C120.4,176.1,118.3,178.2,115.7,178.2z"/>
	</g>
</g>
<polygon class="st2" points="97.6,76.9 104.5,90.8 119.8,93 108.7,103.9 111.3,119.2 97.6,111.9 83.9,119.2 86.5,103.9 75.4,93 
	90.7,90.8 "/>
<g>
	<path class="st2" d="M159.7,21.2H35.5c-2.9,0-5.3-2.4-5.3-5.3l0,0c0-2.9,2.4-5.3,5.3-5.3h124.2c2.9,0,5.3,2.4,5.3,5.3l0,0
		C165,18.9,162.7,21.2,159.7,21.2z"/>
</g>
</svg>
