<?xml version="1.0" encoding="utf-8"?>
<!-- Generator: Adobe Illustrator 22.0.1, SVG Export Plug-In . SVG Version: 6.00 Build 0)  -->
<svg version="1.0" id="Layer_1" xmlns="http://www.w3.org/2000/svg" xmlns:xlink="http://www.w3.org/1999/xlink" x="0px" y="0px"
	 viewBox="0 0 187.1 612" style="enable-background:new 0 0 187.1 612;" xml:space="preserve">
<style type="text/css">
	.st0{fill:#E0E0E0;}
	.st1{fill:none;}
	.st2{fill:#490E3D;}
	.st3{fill:#FFFFFF;}
	.st4{fill:#F7F7F7;}
</style>
<g>
	<rect y="351.5" class="st0" width="188.7" height="260.5"/>
	<rect x="0" y="351.5" class="st1" width="188.7" height="260.5"/>
	<g>
		<path class="st0" d="M45.1,159.6c-16,0-28.9,12.9-28.9,28.9s12.9,28.9,28.9,28.9s28.9-13,28.9-28.9S61.1,159.6,45.1,159.6z
			 M45.1,211.5c-12.7,0-23.1-10.3-23.1-23.1s10.3-23.1,23.1-23.1s23.1,10.3,23.1,23.1S57.8,211.5,45.1,211.5z"/>
	</g>
	<g>
		<path class="st0" d="M45.1,159.6c-16,0-28.9,12.9-28.9,28.9s12.9,28.9,28.9,28.9s28.9-13,28.9-28.9S61.1,159.6,45.1,159.6z
			 M45.1,211.5c-12.7,0-23.1-10.3-23.1-23.1s10.3-23.1,23.1-23.1s23.1,10.3,23.1,23.1S57.8,211.5,45.1,211.5z"/>
	</g>
	<g>
		<path class="st0" d="M148.4,159.6c-16,0-28.9,12.9-28.9,28.9s12.9,28.9,28.9,28.9s28.9-12.9,28.9-28.9S164.4,159.6,148.4,159.6z
			 M148.4,211.5c-12.7,0-23.1-10.3-23.1-23.1s10.3-23.1,23.1-23.1s23.1,10.3,23.1,23.1S161.2,211.5,148.4,211.5z"/>
	</g>
	<g>
		<path class="st0" d="M45.1,141.6c-16,0-28.9,12.9-28.9,28.9s12.9,28.9,28.9,28.9s28.9-13,28.9-28.9S61.1,141.6,45.1,141.6z
			 M45.1,193.5c-12.7,0-23.1-10.3-23.1-23.1s10.3-23.1,23.1-23.1s23.1,10.3,23.1,23.1S57.8,193.5,45.1,193.5z"/>
	</g>
	<g>
		<path class="st0" d="M148.4,141.6c-16,0-28.9,12.9-28.9,28.9s12.9,28.9,28.9,28.9s28.9-12.9,28.9-28.9S164.4,141.6,148.4,141.6z
			 M148.4,193.5c-12.7,0-23.1-10.3-23.1-23.1s10.3-23.1,23.1-23.1s23.1,10.3,23.1,23.1S161.2,193.5,148.4,193.5z"/>
	</g>
	<path class="st2" d="M131.2,351.5H62.3c-3.2,0-5.8-2.6-5.8-5.8v-23.1c0-3.2,2.6-5.8,5.8-5.8h68.9c3.2,0,5.8,2.6,5.8,5.8v23.1
		C137,349,134.4,351.5,131.2,351.5z"/>
	<g>
		<rect x="72.6" y="323.8" class="st3" width="48.2" height="20.8"/>
	</g>
	<path class="st0" d="M110.7,253.6c0-7.7-6.3-14-14-14s-14,6.3-14,14c0,5.6,3.3,10.4,8,12.6v50.7h11.9v-50.7
		C107.5,263.9,110.7,259.1,110.7,253.6z"/>
	<g>
		<path class="st4" d="M158.4,136.9c-15.1,101.2-37.2,116.2-61.7,116.2s-46.5-15-61.7-116.2L158.4,136.9L158.4,136.9z"/>
	</g>
	<g>
		<path class="st4" d="M114.8,316.9H78.7c-2.6,0-4.7-2.1-4.7-4.7l0,0c0-2.6,2.1-4.7,4.7-4.7h36.2c2.6,0,4.7,2.1,4.7,4.7l0,0
			C119.5,314.8,117.4,316.9,114.8,316.9z"/>
	</g>
	<g>
		<path class="st4" d="M114.8,289.9H78.7c-2.6,0-4.7-2.1-4.7-4.7l0,0c0-2.6,2.1-4.7,4.7-4.7h36.2c2.6,0,4.7,2.1,4.7,4.7l0,0
			C119.5,287.8,117.4,289.9,114.8,289.9z"/>
	</g>
	<g>
		<path class="st0" d="M158.8,136.9H34.6c-2.9,0-5.3-2.4-5.3-5.3l0,0c0-2.9,2.4-5.3,5.3-5.3h124.2c2.9,0,5.3,2.4,5.3,5.3l0,0
			C164.1,134.5,161.8,136.9,158.8,136.9z"/>
	</g>
	<g>
		<path class="st0" d="M158.8,136.9H34.6c-2.9,0-5.3-2.4-5.3-5.3l0,0c0-2.9,2.4-5.3,5.3-5.3h124.2c2.9,0,5.3,2.4,5.3,5.3l0,0
			C164.1,134.5,161.8,136.9,158.8,136.9z"/>
	</g>
	<g>
		<path class="st4" d="M158.8,126.3H34.6c-2.9,0-5.3-2.4-5.3-5.3l0,0c0-2.9,2.4-5.3,5.3-5.3h124.2c2.9,0,5.3,2.4,5.3,5.3l0,0
			C164.1,123.9,161.8,126.3,158.8,126.3z"/>
	</g>
</g>
</svg>
