<?xml version="1.0" encoding="utf-8"?>
<!-- Generator: Adobe Illustrator 22.0.1, SVG Export Plug-In . SVG Version: 6.00 Build 0)  -->
<svg version="1.0" id="Layer_1" xmlns="http://www.w3.org/2000/svg" xmlns:xlink="http://www.w3.org/1999/xlink" x="0px" y="0px"
	 viewBox="0 0 110 110" style="enable-background:new 0 0 110 110;" xml:space="preserve">
<style type="text/css">
	.st0{fill:#FEC953;}
	.st1{fill:#5E215E;}
	.st2{fill:#1A1A1A;}
	.st3{fill:#FFFFFF;}
</style>
<rect x="7.8" y="8.1" class="st0" width="14" height="24"/>
<path class="st1" d="M23.7,8.1h-17c-2.2,0-4-1.8-4-4V4c0-2.2,1.8-4,4-4h17c2.2,0,4,1.8,4,4v0.1C27.7,6.3,25.9,8.1,23.7,8.1z"/>
<path class="st1" d="M46.5,8.1v24H9.4c-5.2,0-9.4,4.3-9.4,9.6v54.9h106.6V36.1v-4v-24H46.5z"/>
<g>
	<ellipse class="st2" cx="15.5" cy="96.6" rx="13" ry="13.4"/>
	<g>
		<ellipse class="st3" cx="15.5" cy="96.6" rx="7.6" ry="7.9"/>
	</g>
	<ellipse class="st2" cx="91.1" cy="96.6" rx="13" ry="13.4"/>
	<g>
		<ellipse class="st3" cx="91.1" cy="96.6" rx="7.6" ry="7.9"/>
	</g>
</g>
<path class="st0" d="M105.9,12.2H45.8c-2.2,0-4.1-1.8-4.1-4.1v0c0-2.2,1.8-4.1,4.1-4.1h60.1c2.2,0,4.1,1.8,4.1,4.1v0
	C110,10.4,108.2,12.2,105.9,12.2z"/>
<rect x="52.3" y="15.2" class="st3" width="20.4" height="16.9"/>
<rect x="78.1" y="15.2" class="st3" width="20.4" height="16.9"/>
<g>
	<path class="st3" d="M68.1,80.6c0,1.8-1,2.6-3,2.6H48.2c-2,0-3-0.9-3-2.6c0-1.7,1-2.6,3-2.6h5.2V55.3l-4.8,3
		c-0.5,0.3-0.9,0.4-1.2,0.4c-0.7,0-1.3-0.3-1.8-0.9c-0.5-0.6-0.7-1.3-0.7-2c0-1,0.4-1.7,1.3-2.2l7.8-4.8c1-0.6,1.9-0.9,2.9-0.9
		c0.9,0,1.7,0.3,2.2,0.9c0.6,0.6,0.8,1.4,0.8,2.4v27.1h5.2C67.1,78.1,68.1,78.9,68.1,80.6z"/>
	<path class="st3" d="M66.3,54.2c-1-1-1.5-2.2-1.5-3.7s0.5-2.7,1.5-3.7c1-1,2.3-1.5,3.8-1.5c1.5,0,2.7,0.5,3.8,1.5
		c1,1,1.5,2.2,1.5,3.7s-0.5,2.7-1.5,3.7c-1,1-2.3,1.5-3.8,1.5C68.5,55.7,67.3,55.2,66.3,54.2z M71.6,52.2c0.4-0.5,0.6-1,0.6-1.7
		c0-0.7-0.2-1.2-0.6-1.7c-0.4-0.4-1-0.7-1.6-0.7c-0.6,0-1.2,0.2-1.6,0.7c-0.4,0.5-0.6,1-0.6,1.7c0,0.7,0.2,1.2,0.6,1.7
		c0.4,0.5,1,0.7,1.6,0.7C70.6,52.8,71.2,52.6,71.6,52.2z"/>
</g>
</svg>
