<?xml version="1.0" encoding="utf-8"?>
<!-- Generator: Adobe Illustrator 22.0.1, SVG Export Plug-In . SVG Version: 6.00 Build 0)  -->
<svg version="1.0" id="Layer_1" xmlns="http://www.w3.org/2000/svg" xmlns:xlink="http://www.w3.org/1999/xlink" x="0px" y="0px"
	 viewBox="0 0 108 115" style="enable-background:new 0 0 108 115;" xml:space="preserve">
<style type="text/css">
	.st0{fill:none;stroke:#402314;stroke-width:2;stroke-miterlimit:10;}
	.st1{fill:#A99184;}
	.st2{fill:#EFE5E1;}
</style>
<g>
	<line class="st0" x1="92.6" y1="53.2" x2="85.7" y2="18.9"/>
	<g>
		<circle class="st1" cx="84.4" cy="12.5" r="6.5"/>
	</g>
	<line class="st0" x1="96.8" y1="53.6" x2="100.9" y2="18.8"/>
	<g>
		<circle class="st1" cx="101.7" cy="12.3" r="6.5"/>
	</g>
</g>
<g>
	<g>
		<path class="st2" d="M16,115c8.6-0.2,17.3,0,25.9,0c11.5,0,36.2,0.4,35.8,0c21.6-6.9,28.4-33,27.8-53.6c-0.2-5.9-0.8-11.9-2-17.7
			c-1.5-7.1-9.9-11.3-16.6-9.4c-7.4,2-10.9,9.4-9.4,16.6c0.2,0.9,0.3,1.9,0.5,2.8c0.6,3.4-0.4-3.8,0,0.1c0.1,1.4,0.3,2.8,0.4,4.2
			c0.2,3.4-0.7,7.7-0.9,11.1c0,0.9-0.1,1.8-0.2,2.7c0,0.4-0.1,0.8-0.1,1.2c-0.1,1.7,0.5,0.1,0.2-1.2c0.4,1.4-0.8,4.1-1.1,5.5
			c-0.2,0.9-0.6,1.8-0.8,2.7c-0.8,2.8,1.1-1.8,0,0c-0.9,1.6-1.8,3.1-2.7,4.7c1.2-1.9,1.1-1.4-0.1-0.1c-1,1-2.9,1.7,0.1,0.2
			c-0.7,0.4-1.4,0.9-2,1.3c-2.8,1.8,1.2,0-0.6,0.3c-1,0.2-2,0.6-3.1,0.8c-3,0.7-19.2-0.4-24.7-0.3c-9.1,0-17.1-0.9-26.2-0.6
			C8.7,86.4,2.5,92.2,2.5,99.7C2.5,106.8,8.7,115.2,16,115L16,115z"/>
	</g>
</g>
<path class="st2" d="M42.4,86.9c0,0,34.1-0.2,36-28.9h6.9v36.3H58L42.4,86.9z"/>
</svg>
