<?xml version="1.0" encoding="utf-8"?>
<!-- Generator: Adobe Illustrator 22.0.1, SVG Export Plug-In . SVG Version: 6.00 Build 0)  -->
<svg version="1.0" id="Layer_1" xmlns="http://www.w3.org/2000/svg" xmlns:xlink="http://www.w3.org/1999/xlink" x="0px" y="0px"
	 viewBox="0 0 187.3 243.3" style="enable-background:new 0 0 187.3 243.3;" xml:space="preserve">
<style type="text/css">
	.st0{fill:#A6CC46;}
	.st1{fill:#3EBEBE;}
	.st2{fill:none;stroke:#FFFFFF;stroke-width:4.3349;stroke-miterlimit:10;}
	.st3{fill:#699544;}
	.st4{fill:#231F20;}
	.st5{fill:#231F20;stroke:#FFFFFF;stroke-width:1.9475;stroke-miterlimit:10;}
	.st6{fill:#FFFFFF;}
</style>
<g>
	<rect x="1.9" y="2.1" class="st0" width="183.5" height="239.1"/>
	<rect x="1.9" y="2.1" class="st1" width="183.5" height="100.6"/>
	<rect x="1.9" y="2.1" class="st2" width="183.5" height="239.1"/>
</g>
<g>
	<g>
		<ellipse class="st3" cx="94.4" cy="196.1" rx="75.3" ry="4.6"/>
		<g>
			<g>
				<g>
					<g>
						<polygon class="st4" points="145.9,170.7 145.9,196.1 94.7,196.1 94.7,156.6 						"/>
						<ellipse transform="matrix(0.5 -0.866 0.866 0.5 -83.7974 218.1314)" class="st5" cx="147" cy="181.6" rx="14.9" ry="12.9"/>
					</g>
				</g>
				<g>
					<g>
						<polygon class="st4" points="44.2,170.7 44.2,196.1 95.5,196.1 95.5,156.6 						"/>
						<ellipse transform="matrix(0.866 -0.5 0.5 0.866 -85.03 45.8821)" class="st5" cx="43.1" cy="181.6" rx="12.9" ry="14.9"/>
					</g>
				</g>
			</g>
			<ellipse class="st6" cx="94.8" cy="149.9" rx="44.5" ry="44.5"/>
		</g>
		<g>
			<path class="st4" d="M143.4,139.6c0-20.6-23.1-37.2-51.5-37.2s-51.5,16.7-51.5,37.2"/>
			<g>
				<path class="st4" d="M127.1,118.8l-26.2,25.4c-4.5,4.4-4.6,11.6-0.3,16.1c4.4,4.5,11.6,4.6,16.1,0.3l26.4-20.9L127.1,118.8z"/>
			</g>
		</g>
		<ellipse class="st6" cx="95.1" cy="100.7" rx="32" ry="25.1"/>
	</g>
</g>
</svg>
