<?xml version="1.0" encoding="utf-8"?>
<!-- Generator: Adobe Illustrator 22.0.1, SVG Export Plug-In . SVG Version: 6.00 Build 0)  -->
<svg version="1.0" id="Layer_1" xmlns="http://www.w3.org/2000/svg" xmlns:xlink="http://www.w3.org/1999/xlink" x="0px" y="0px"
	 viewBox="0 0 187.3 243.3" style="enable-background:new 0 0 187.3 243.3;" xml:space="preserve">
<style type="text/css">
	.st0{fill:#A6CC46;}
	.st1{fill:#3EBEBE;}
	.st2{fill:none;stroke:#FFFFFF;stroke-width:4.3349;stroke-miterlimit:10;}
	.st3{fill:#699544;}
	.st4{fill:#231F20;}
	.st5{fill:#231F20;stroke:#FFFFFF;stroke-width:1.9729;stroke-miterlimit:10;}
	.st6{fill:#FFFFFF;}
</style>
<g>
	<rect x="1.9" y="2.1" class="st0" width="183.5" height="239.1"/>
	<rect x="1.9" y="2.1" class="st1" width="183.5" height="100.6"/>
	<rect x="1.9" y="2.1" class="st2" width="183.5" height="239.1"/>
	<g>
		<g>
			<ellipse class="st3" cx="96.7" cy="198.1" rx="76.3" ry="4.7"/>
		</g>
		<g>
			<g>
				<g>
					<g>
						<g>
							<polygon class="st4" points="148.8,172.4 148.8,198.1 96.9,198.1 96.9,158.1 							"/>
						</g>
						<ellipse transform="matrix(0.5 -0.866 0.866 0.5 -83.8584 221.5463)" class="st5" cx="149.9" cy="183.4" rx="15.1" ry="13"/>
					</g>
				</g>
				<g>
					<g>
						<g>
							<polygon class="st4" points="45.8,172.4 45.8,198.1 97.7,198.1 97.7,158.1 							"/>
						</g>
						<ellipse transform="matrix(0.866 -0.5 0.5 0.866 -85.7151 46.9095)" class="st5" cx="44.7" cy="183.4" rx="13" ry="15.1"/>
					</g>
				</g>
			</g>
			<g>
				<ellipse class="st6" cx="97" cy="151.4" rx="45.1" ry="45.1"/>
			</g>
		</g>
		<g>
			<g>
				<path class="st4" d="M146.3,140.9c0-20.8-23.4-37.7-52.2-37.7s-52.2,16.9-52.2,37.7"/>
			</g>
			<g>
				<g>
					<path class="st4" d="M58.1,119.8l-16.2,21.1L68.6,162c4.6,4.4,11.9,4.3,16.3-0.3c4.4-4.6,4.3-11.9-0.3-16.3L58.1,119.8z"/>
				</g>
				<g>
					<path class="st4" d="M129.7,119.8l-26.6,25.7c-4.6,4.4-4.7,11.7-0.3,16.3c4.4,4.6,11.7,4.7,16.3,0.3l26.8-21.1L129.7,119.8z"/>
				</g>
			</g>
		</g>
		<g>
			<ellipse class="st6" cx="97.3" cy="101.5" rx="32.5" ry="25.4"/>
		</g>
		<g>
			<g>
				
					<ellipse transform="matrix(0.643 -0.7659 0.7659 0.643 -47.8237 99.9807)" class="st4" cx="83.3" cy="101.3" rx="9.5" ry="5.6"/>
			</g>
		</g>
		<g>
			<g>
				
					<ellipse transform="matrix(0.7659 -0.643 0.643 0.7659 -39.4945 94.0604)" class="st4" cx="109.4" cy="101.3" rx="5.6" ry="9.5"/>
			</g>
		</g>
		<g>
			<circle class="st4" cx="95.4" cy="110.1" r="3.8"/>
		</g>
	</g>
</g>
</svg>
