<?xml version="1.0" encoding="utf-8"?>
<!-- Generator: Adobe Illustrator 22.0.1, SVG Export Plug-In . SVG Version: 6.00 Build 0)  -->
<svg version="1.0" id="Layer_1" xmlns="http://www.w3.org/2000/svg" xmlns:xlink="http://www.w3.org/1999/xlink" x="0px" y="0px"
	 viewBox="0 0 187.3 243.3" style="enable-background:new 0 0 187.3 243.3;" xml:space="preserve">
<style type="text/css">
	.st0{fill:#A6CC46;}
	.st1{fill:#3EBEBE;}
	.st2{fill:none;stroke:#FFFFFF;stroke-width:4.3349;stroke-miterlimit:10;}
	.st3{fill:#699544;}
	.st4{fill:#231F20;}
	.st5{fill:#231F20;stroke:#FFFFFF;stroke-width:1.9475;stroke-miterlimit:10;}
	.st6{fill:#FFFFFF;}
</style>
<g>
	<rect x="1.9" y="2.1" class="st0" width="183.5" height="239.1"/>
	<rect x="1.9" y="2.1" class="st1" width="183.5" height="100.6"/>
	<rect x="1.9" y="2.1" class="st2" width="183.5" height="239.1"/>
</g>
<g>
	<g>
		<g>
			<ellipse class="st3" cx="93.5" cy="197.2" rx="75.3" ry="4.6"/>
		</g>
		<g>
			<g>
				<g>
					<g>
						<g>
							<polygon class="st4" points="144.9,171.7 144.9,197.2 93.7,197.2 93.7,157.7 							"/>
						</g>
						
							<ellipse transform="matrix(0.5 -0.866 0.866 0.5 -85.1487 217.8189)" class="st5" cx="146.1" cy="182.7" rx="14.9" ry="12.9"/>
					</g>
				</g>
				<g>
					<g>
						<g>
							<polygon class="st4" points="43.3,171.7 43.3,197.2 94.5,197.2 94.5,157.7 							"/>
						</g>
						<ellipse transform="matrix(0.866 -0.5 0.5 0.866 -85.679 45.5423)" class="st5" cx="42.1" cy="182.7" rx="12.9" ry="14.9"/>
					</g>
				</g>
			</g>
			<g>
				
					<ellipse transform="matrix(0.9239 -0.3827 0.3827 0.9239 -50.6421 47.3933)" class="st6" cx="93.8" cy="151" rx="44.5" ry="44.5"/>
			</g>
		</g>
		<g>
			<g>
				<path class="st4" d="M142.4,140.7c0-20.6-23.1-37.2-51.5-37.2s-51.5,16.7-51.5,37.2"/>
			</g>
			<g>
				<g>
					<path class="st4" d="M55.3,119.8l-16,20.9l26.4,20.9c4.5,4.4,11.7,4.2,16.1-0.3c4.4-4.5,4.2-11.7-0.3-16.1L55.3,119.8z"/>
				</g>
				<g>
					<path class="st4" d="M126.1,119.8l-26.2,25.4c-4.5,4.4-4.6,11.6-0.3,16.1c4.4,4.5,11.6,4.6,16.1,0.3l26.4-20.9L126.1,119.8z"/>
				</g>
			</g>
		</g>
		<g>
			<ellipse class="st6" cx="94.1" cy="101.7" rx="32" ry="25.1"/>
		</g>
		<g>
			<g>
				
					<ellipse transform="matrix(0.643 -0.7659 0.7659 0.643 -49.1075 97.7117)" class="st4" cx="80.3" cy="101.5" rx="9.4" ry="5.5"/>
			</g>
		</g>
		<g>
			<g>
				<ellipse transform="matrix(0.7659 -0.643 0.643 0.7659 -40.47 91.91)" class="st4" cx="106" cy="101.5" rx="5.5" ry="9.4"/>
			</g>
		</g>
		<g>
			<circle class="st4" cx="92.2" cy="110.3" r="3.8"/>
		</g>
		<g>
			<circle class="st4" cx="114.6" cy="83.4" r="8.6"/>
		</g>
	</g>
</g>
</svg>
