<?xml version="1.0" encoding="utf-8"?>
<!-- Generator: Adobe Illustrator 22.0.1, SVG Export Plug-In . SVG Version: 6.00 Build 0)  -->
<svg version="1.0" id="Layer_1" xmlns="http://www.w3.org/2000/svg" xmlns:xlink="http://www.w3.org/1999/xlink" x="0px" y="0px"
	 viewBox="0 0 187.3 243.3" style="enable-background:new 0 0 187.3 243.3;" xml:space="preserve">
<style type="text/css">
	.st0{fill:#A6CC46;}
	.st1{fill:#3EBEBE;}
	.st2{fill:none;stroke:#FFFFFF;stroke-width:4.3349;stroke-miterlimit:10;}
	.st3{fill:#699544;}
	.st4{fill:#231F20;stroke:#231F20;stroke-width:0.1147;stroke-miterlimit:10;}
	.st5{fill:#231F20;stroke:#FFFFFF;stroke-width:1.9475;stroke-miterlimit:10;}
	.st6{fill:#FFFFFF;}
	.st7{fill:#E4472F;}
</style>
<g>
	<rect x="1.9" y="2.1" class="st0" width="183.5" height="239.1"/>
	<rect x="1.9" y="2.1" class="st1" width="183.5" height="100.6"/>
	<rect x="1.9" y="2.1" class="st2" width="183.5" height="239.1"/>
</g>
<g>
	<g>
		<ellipse class="st3" cx="95.3" cy="196.1" rx="75.3" ry="4.6"/>
		<g>
			<g>
				<g>
					<g>
						<polygon class="st4" points="146.8,170.7 146.8,196.1 95.6,196.1 95.6,156.6 						"/>
						<ellipse transform="matrix(0.5 -0.866 0.866 0.5 -83.2558 218.9254)" class="st5" cx="148" cy="181.6" rx="14.9" ry="12.9"/>
					</g>
				</g>
				<g>
					<g>
						<polygon class="st4" points="45.2,170.7 45.2,196.1 96.4,196.1 96.4,156.6 						"/>
						<ellipse transform="matrix(0.866 -0.5 0.5 0.866 -84.9133 46.3343)" class="st5" cx="44" cy="181.6" rx="12.9" ry="14.9"/>
					</g>
				</g>
			</g>
			<ellipse class="st6" cx="95.7" cy="149.9" rx="44.5" ry="44.5"/>
		</g>
		<path class="st4" d="M144.3,139.6c0-20.6-23.1-37.2-51.5-37.2c-27.7,0-50.4,15.9-51.5,35.7c0,0.9,0.3,1.7,1,2.3l25.3,20.2
			c4.5,4.4,11.7,4.2,16.1-0.3c4.4-4.5,4.2-11.7-0.3-16.1h0c-1.7-1.7-0.5-4.6,1.9-4.6h14.7c2.4,0,3.6,2.9,1.9,4.6h0
			c-4.5,4.4-4.6,11.6-0.3,16.1c4.4,4.5,11.6,4.6,16.1,0.3l26.3-21H144.3z"/>
		<ellipse class="st6" cx="96" cy="100.7" rx="32" ry="25.1"/>
		<g>
			<ellipse transform="matrix(0.643 -0.7659 0.7659 0.643 -47.6692 98.7944)" class="st4" cx="82.1" cy="100.5" rx="9.4" ry="5.5"/>
			<circle class="st6" cx="84" cy="98.3" r="3.5"/>
			<circle class="st4" cx="84" cy="97.3" r="1.2"/>
		</g>
		<g>
			
				<ellipse transform="matrix(0.7659 -0.643 0.643 0.7659 -39.3398 92.9064)" class="st4" cx="107.9" cy="100.5" rx="5.5" ry="9.4"/>
		</g>
		<circle class="st4" cx="94.1" cy="109.2" r="3.8"/>
		<circle class="st4" cx="70.5" cy="82.4" r="8.6"/>
		<circle class="st4" cx="116.5" cy="82.4" r="8.6"/>
	</g>
</g>
<circle class="st6" cx="106.4" cy="98.3" r="3.5"/>
<circle class="st4" cx="106.4" cy="97.3" r="1.2"/>
<path class="st7" d="M35.2,104.9"/>
<path class="st7" d="M102.7,117c0-2.7-3.5,0.1-7.8,0.1c-4.3,0-7.8-2.8-7.8-0.1s3.5,4.9,7.8,4.9C99.2,121.9,102.7,119.7,102.7,117z"
	/>
</svg>
