<?xml version="1.0" encoding="utf-8"?>
<!-- Generator: Adobe Illustrator 22.0.1, SVG Export Plug-In . SVG Version: 6.00 Build 0)  -->
<svg version="1.1" id="Layer_1" xmlns="http://www.w3.org/2000/svg" xmlns:xlink="http://www.w3.org/1999/xlink" x="0px" y="0px"
	 viewBox="0 0 400 400" style="enable-background:new 0 0 400 400;" xml:space="preserve">
<style type="text/css">
	.st0{fill:#F4F4F4;stroke:#CECECE;stroke-width:2.8717;stroke-miterlimit:10;}
	.st1{opacity:0.1;}
	.st2{clip-path:url(#SVGID_2_);fill:#FADC3C;stroke:#E7C42A;stroke-width:4.7318;stroke-miterlimit:10;}
	.st3{clip-path:url(#SVGID_2_);fill:none;stroke:#FEE467;stroke-width:4.7318;stroke-miterlimit:10;}
	.st4{clip-path:url(#SVGID_2_);}
	.st5{fill:#E60F0F;}
	.st6{fill:#F24044;}
	.st7{clip-path:url(#SVGID_2_);fill:#8ABB2A;}
	.st8{clip-path:url(#SVGID_2_);fill:#86A83E;stroke:#231F20;stroke-width:2.248196e-02;stroke-miterlimit:10;}
	.st9{opacity:0.33;}
	.st10{fill:none;stroke:#875C29;stroke-width:2;stroke-linecap:round;stroke-linejoin:round;stroke-miterlimit:10;}
</style>
<g>
	<circle class="st0" cx="201.5" cy="200.5" r="177.5"/>
	<polygon class="st1" points="173.6,39.7 183.6,39.7 213.2,207.5 193.4,209.5 	"/>
	<g>
		<defs>
			<path id="SVGID_1_" d="M201.8,201.1h166.9c0,91.5-75.3,166.9-166.9,166.9S35,292.6,35,201.1c0-80.7,58.6-150.5,138.1-164.4
				L201.8,201.1z"/>
		</defs>
		<clipPath id="SVGID_2_">
			<use xlink:href="#SVGID_1_"  style="overflow:visible;"/>
		</clipPath>
		<circle class="st2" cx="201.8" cy="201.1" r="162"/>
		<circle class="st3" cx="201.8" cy="201.1" r="144.7"/>
		<g class="st4">
			<g>
				<circle class="st5" cx="195.4" cy="95.1" r="20.9"/>
			</g>
			<g>
				<circle class="st6" cx="191.1" cy="86.4" r="3.1"/>
			</g>
			<g>
				<circle class="st6" cx="206.3" cy="103.6" r="3.8"/>
			</g>
			<g>
				<circle class="st6" cx="204" cy="95.7" r="2.5"/>
			</g>
			<g>
				<circle class="st6" cx="199.3" cy="81.6" r="0.9"/>
			</g>
			<g>
				<circle class="st6" cx="181" cy="94.9" r="1.7"/>
			</g>
			<g>
				<circle class="st6" cx="189" cy="100.7" r="0.9"/>
			</g>
			<g>
				<circle class="st6" cx="195.4" cy="106.5" r="0.9"/>
			</g>
		</g>
		<g class="st4">
			<g>
				<circle class="st5" cx="120.2" cy="127.6" r="20.9"/>
			</g>
			<g>
				<circle class="st6" cx="115.8" cy="118.9" r="3.1"/>
			</g>
			<g>
				<circle class="st6" cx="131.1" cy="136.1" r="3.8"/>
			</g>
			<g>
				<circle class="st6" cx="128.7" cy="128.2" r="2.5"/>
			</g>
			<g>
				<circle class="st6" cx="124" cy="114.1" r="0.9"/>
			</g>
			<g>
				<circle class="st6" cx="105.7" cy="127.4" r="1.7"/>
			</g>
			<g>
				<circle class="st6" cx="113.7" cy="133.2" r="0.9"/>
			</g>
			<g>
				<circle class="st6" cx="120.2" cy="139" r="0.9"/>
			</g>
		</g>
		<g class="st4">
			<g>
				<circle class="st5" cx="264.9" cy="109.7" r="20.9"/>
			</g>
			<g>
				<circle class="st6" cx="260.6" cy="101.1" r="3.1"/>
			</g>
			<g>
				<circle class="st6" cx="275.8" cy="118.2" r="3.8"/>
			</g>
			<g>
				<circle class="st6" cx="273.5" cy="110.3" r="2.5"/>
			</g>
			<g>
				<circle class="st6" cx="268.8" cy="96.2" r="0.9"/>
			</g>
			<g>
				<circle class="st6" cx="250.5" cy="109.6" r="1.7"/>
			</g>
			<g>
				<circle class="st6" cx="258.5" cy="115.4" r="0.9"/>
			</g>
			<g>
				<circle class="st6" cx="264.9" cy="121.2" r="0.9"/>
			</g>
		</g>
		<g class="st4">
			<g>
				<circle class="st5" cx="247.9" cy="306.2" r="20.9"/>
			</g>
			<g>
				<circle class="st6" cx="243.5" cy="297.5" r="3.1"/>
			</g>
			<g>
				<circle class="st6" cx="258.8" cy="314.7" r="3.8"/>
			</g>
			<g>
				<circle class="st6" cx="256.4" cy="306.8" r="2.5"/>
			</g>
			<g>
				<circle class="st6" cx="251.7" cy="292.7" r="0.9"/>
			</g>
			<g>
				<circle class="st6" cx="233.4" cy="306" r="1.7"/>
			</g>
			<g>
				<circle class="st6" cx="241.4" cy="311.8" r="0.9"/>
			</g>
			<g>
				<circle class="st6" cx="247.9" cy="317.6" r="0.9"/>
			</g>
		</g>
		<g class="st4">
			<g>
				<circle class="st5" cx="188" cy="267.9" r="20.9"/>
			</g>
			<g>
				<circle class="st6" cx="183.7" cy="259.2" r="3.1"/>
			</g>
			<g>
				<circle class="st6" cx="198.9" cy="276.4" r="3.8"/>
			</g>
			<g>
				<circle class="st6" cx="196.6" cy="268.5" r="2.5"/>
			</g>
			<g>
				<circle class="st6" cx="191.8" cy="254.4" r="0.9"/>
			</g>
			<g>
				<circle class="st6" cx="173.6" cy="267.7" r="1.7"/>
			</g>
			<g>
				<circle class="st6" cx="181.6" cy="273.5" r="0.9"/>
			</g>
			<g>
				<circle class="st6" cx="188" cy="279.3" r="0.9"/>
			</g>
		</g>
		<g class="st4">
			<g>
				<circle class="st5" cx="202.5" cy="154.1" r="20.9"/>
			</g>
			<g>
				<circle class="st6" cx="198.2" cy="145.4" r="3.1"/>
			</g>
			<g>
				<circle class="st6" cx="213.5" cy="162.6" r="3.8"/>
			</g>
			<g>
				<circle class="st6" cx="211.1" cy="154.7" r="2.5"/>
			</g>
			<g>
				<circle class="st6" cx="206.4" cy="140.6" r="0.9"/>
			</g>
			<g>
				<circle class="st6" cx="188.1" cy="153.9" r="1.7"/>
			</g>
			<g>
				<circle class="st6" cx="196.1" cy="159.7" r="0.9"/>
			</g>
			<g>
				<circle class="st6" cx="202.5" cy="165.5" r="0.9"/>
			</g>
		</g>
		<g class="st4">
			<g>
				<circle class="st5" cx="260.6" cy="170.3" r="20.9"/>
			</g>
			<g>
				<circle class="st6" cx="256.3" cy="161.7" r="3.1"/>
			</g>
			<g>
				<circle class="st6" cx="271.5" cy="178.8" r="3.8"/>
			</g>
			<g>
				<circle class="st6" cx="269.1" cy="170.9" r="2.5"/>
			</g>
			<g>
				<circle class="st6" cx="264.4" cy="156.8" r="0.9"/>
			</g>
			<g>
				<circle class="st6" cx="246.1" cy="170.1" r="1.7"/>
			</g>
			<g>
				<circle class="st6" cx="254.1" cy="176" r="0.9"/>
			</g>
			<g>
				<circle class="st6" cx="260.6" cy="181.8" r="0.9"/>
			</g>
		</g>
		<g class="st4">
			<g>
				<circle class="st5" cx="306.7" cy="201.7" r="20.9"/>
			</g>
			<g>
				<circle class="st6" cx="302.4" cy="193.1" r="3.1"/>
			</g>
			<g>
				<circle class="st6" cx="317.6" cy="210.2" r="3.8"/>
			</g>
			<g>
				<circle class="st6" cx="315.3" cy="202.3" r="2.5"/>
			</g>
			<g>
				<circle class="st6" cx="310.5" cy="188.2" r="0.9"/>
			</g>
			<g>
				<circle class="st6" cx="292.3" cy="201.5" r="1.7"/>
			</g>
			<g>
				<circle class="st6" cx="300.2" cy="207.4" r="0.9"/>
			</g>
			<g>
				<circle class="st6" cx="306.7" cy="213.2" r="0.9"/>
			</g>
		</g>
		<g class="st4">
			<g>
				<circle class="st5" cx="154.5" cy="201.7" r="20.9"/>
			</g>
			<g>
				<circle class="st6" cx="150.2" cy="193.1" r="3.1"/>
			</g>
			<g>
				<circle class="st6" cx="165.4" cy="210.2" r="3.8"/>
			</g>
			<g>
				<circle class="st6" cx="163.1" cy="202.3" r="2.5"/>
			</g>
			<g>
				<circle class="st6" cx="158.3" cy="188.2" r="0.9"/>
			</g>
			<g>
				<circle class="st6" cx="140.1" cy="201.5" r="1.7"/>
			</g>
			<g>
				<circle class="st6" cx="148.1" cy="207.4" r="0.9"/>
			</g>
			<g>
				<circle class="st6" cx="154.5" cy="213.2" r="0.9"/>
			</g>
		</g>
		<g class="st4">
			<g>
				<circle class="st5" cx="227" cy="214.1" r="20.9"/>
			</g>
			<g>
				<circle class="st6" cx="222.6" cy="205.4" r="3.1"/>
			</g>
			<g>
				<circle class="st6" cx="237.9" cy="222.6" r="3.8"/>
			</g>
			<g>
				<circle class="st6" cx="235.5" cy="214.7" r="2.5"/>
			</g>
			<g>
				<circle class="st6" cx="230.8" cy="200.6" r="0.9"/>
			</g>
			<g>
				<circle class="st6" cx="212.5" cy="213.9" r="1.7"/>
			</g>
			<g>
				<circle class="st6" cx="220.5" cy="219.7" r="0.9"/>
			</g>
			<g>
				<circle class="st6" cx="227" cy="225.5" r="0.9"/>
			</g>
		</g>
		<g class="st4">
			<g>
				<circle class="st5" cx="287.6" cy="266.3" r="20.9"/>
			</g>
			<g>
				<circle class="st6" cx="283.3" cy="257.7" r="3.1"/>
			</g>
			<g>
				<circle class="st6" cx="298.5" cy="274.8" r="3.8"/>
			</g>
			<g>
				<circle class="st6" cx="296.2" cy="266.9" r="2.5"/>
			</g>
			<g>
				<circle class="st6" cx="291.5" cy="252.8" r="0.9"/>
			</g>
			<g>
				<circle class="st6" cx="273.2" cy="266.1" r="1.7"/>
			</g>
			<g>
				<circle class="st6" cx="281.2" cy="272" r="0.9"/>
			</g>
			<g>
				<circle class="st6" cx="287.6" cy="277.8" r="0.9"/>
			</g>
		</g>
		<g class="st4">
			<g>
				<circle class="st5" cx="113.7" cy="249.2" r="20.9"/>
			</g>
			<g>
				<circle class="st6" cx="109.4" cy="240.5" r="3.1"/>
			</g>
			<g>
				<circle class="st6" cx="124.6" cy="257.6" r="3.8"/>
			</g>
			<g>
				<circle class="st6" cx="122.3" cy="249.7" r="2.5"/>
			</g>
			<g>
				<circle class="st6" cx="117.5" cy="235.6" r="0.9"/>
			</g>
			<g>
				<circle class="st6" cx="99.3" cy="249" r="1.7"/>
			</g>
			<g>
				<circle class="st6" cx="107.2" cy="254.8" r="0.9"/>
			</g>
			<g>
				<circle class="st6" cx="113.7" cy="260.6" r="0.9"/>
			</g>
		</g>
		<g class="st4">
			<g>
				<circle class="st5" cx="150.2" cy="300.5" r="20.9"/>
			</g>
			<g>
				<circle class="st6" cx="145.8" cy="291.9" r="3.1"/>
			</g>
			<g>
				<circle class="st6" cx="161.1" cy="309" r="3.8"/>
			</g>
			<g>
				<circle class="st6" cx="158.7" cy="301.1" r="2.5"/>
			</g>
			<g>
				<circle class="st6" cx="154" cy="287" r="0.9"/>
			</g>
			<g>
				<circle class="st6" cx="135.7" cy="300.4" r="1.7"/>
			</g>
			<g>
				<circle class="st6" cx="143.7" cy="306.2" r="0.9"/>
			</g>
			<g>
				<circle class="st6" cx="150.2" cy="312" r="0.9"/>
			</g>
		</g>
		<g class="st4">
			<g>
				<circle class="st5" cx="91.9" cy="192.3" r="20.9"/>
			</g>
			<g>
				<circle class="st6" cx="87.5" cy="183.6" r="3.1"/>
			</g>
			<g>
				<circle class="st6" cx="102.8" cy="200.8" r="3.8"/>
			</g>
			<g>
				<circle class="st6" cx="100.4" cy="192.9" r="2.5"/>
			</g>
			<g>
				<circle class="st6" cx="95.7" cy="178.8" r="0.9"/>
			</g>
			<g>
				<circle class="st6" cx="77.4" cy="192.1" r="1.7"/>
			</g>
			<g>
				<circle class="st6" cx="85.4" cy="197.9" r="0.9"/>
			</g>
			<g>
				<circle class="st6" cx="91.9" cy="203.7" r="0.9"/>
			</g>
		</g>
		<path class="st7" d="M166.5,158.1c-8.6-11.5-7.5-27.5,3.7-36.8c1.9-1.6,0.5-3.3-1.4-1.7c-12.4,10.4-15.4,27.9-5.5,41.1
			C164.2,161.8,167.4,159.4,166.5,158.1L166.5,158.1z"/>
		<path class="st8" d="M293.2,132.6c14.2-1.3,27.4,7.9,29.5,22.4c0.4,2.4,2.6,2.2,2.2-0.3c-2.3-16-15.7-27.7-32.2-26.2
			C291.2,128.7,291.7,132.7,293.2,132.6L293.2,132.6z"/>
		<path class="st7" d="M265.9,246c4.9-13.4,18.9-21.3,32.9-17c2.3,0.7,3.1-1.4,0.7-2.1c-15.5-4.8-31.7,2.3-37.4,17.8
			C261.5,246.1,265.4,247.5,265.9,246L265.9,246z"/>
		<path class="st7" d="M157.3,259.5c-1.5-14.2,7.5-27.5,21.9-29.8c2.4-0.4,2.1-2.6-0.3-2.2c-16,2.6-27.4,16.2-25.6,32.6
			C153.5,261.5,157.5,261,157.3,259.5L157.3,259.5z"/>
		<path class="st7" d="M220.2,328.3c-14.3,0.7-27-9.1-28.5-23.6c-0.3-2.4-2.5-2.3-2.2,0.2c1.7,16.1,14.5,28.3,31,27.5
			C222,332.3,221.8,328.2,220.2,328.3L220.2,328.3z"/>
		<path class="st7" d="M113.7,160.1c-14.3,0.7-27-9.1-28.5-23.6c-0.3-2.4-2.5-2.3-2.2,0.2c1.7,16.1,14.5,28.3,31,27.5
			C115.5,164.1,115.2,160.1,113.7,160.1L113.7,160.1z"/>
	</g>
	<g class="st9">
		<line class="st10" x1="35" y1="201.1" x2="368.7" y2="201.1"/>
		<line class="st10" x1="45" y1="258.1" x2="201.8" y2="201.1"/>
		<line class="st10" x1="74" y1="308.3" x2="200.3" y2="202.3"/>
		<line class="st10" x1="118.4" y1="345.6" x2="201.8" y2="201.1"/>
		<line class="st10" x1="172.9" y1="365.4" x2="201.8" y2="201.1"/>
		<line class="st10" x1="230.8" y1="365.4" x2="172.9" y2="36.7"/>
		<line class="st10" x1="285.3" y1="345.6" x2="118.4" y2="56.6"/>
		<line class="st10" x1="329.7" y1="308.3" x2="74" y2="93.8"/>
		<line class="st10" x1="358.6" y1="258.1" x2="45" y2="144"/>
	</g>
</g>
</svg>
