<?xml version="1.0" encoding="utf-8"?>
<!-- Generator: Adobe Illustrator 22.0.1, SVG Export Plug-In . SVG Version: 6.00 Build 0)  -->
<svg version="1.1" id="Layer_1" xmlns="http://www.w3.org/2000/svg" xmlns:xlink="http://www.w3.org/1999/xlink" x="0px" y="0px"
	 viewBox="0 0 400 400" style="enable-background:new 0 0 400 400;" xml:space="preserve">
<style type="text/css">
	.st0{opacity:0.1;}
	.st1{fill:#E2D1C3;}
	.st2{fill:#A99184;}
	.st3{fill:#F0E6E1;}
	.st4{fill:#603820;}
	.st5{fill:#FC6A6C;}
	.st6{fill:#FF6B6B;}
	.st7{fill:#F16B6C;}
	.st8{clip-path:url(#SVGID_2_);}
	.st9{fill:#EEEAC7;}
	.st10{fill:none;stroke:#F7EFE3;stroke-width:1.1368;stroke-miterlimit:10;}
	.st11{fill:#DAD7B8;}
	.st12{fill:#41210D;}
	.st13{fill:#603820;stroke:#000000;stroke-width:2;stroke-linecap:round;stroke-linejoin:round;stroke-miterlimit:10;}
</style>
<g>
	<g>
		<ellipse class="st0" cx="202.6" cy="248.7" rx="172.2" ry="91.2"/>
		<g>
			<ellipse class="st1" cx="197.4" cy="242.9" rx="172.2" ry="91.2"/>
		</g>
		<g>
			<ellipse class="st2" cx="197.4" cy="238.2" rx="146.1" ry="77.4"/>
			<g>
				<path class="st3" d="M342.5,238.2c-0.2,19-13.1,34.4-27.9,45c-19.7,14.2-43.6,22.2-67.2,26.7c-29.4,5.7-60.1,6.2-89.7,1.8
					c-24.7-3.7-49.6-10.9-70.9-24.1c-15.5-9.6-30.9-23.9-34-42.8c-3.1-18.4,7.3-34.9,20.7-46.5c18.1-15.6,41.6-24.6,64.6-30
					c28.3-6.7,57.9-8.2,86.8-5.3c26.1,2.6,52.6,9,75.8,21.5c16.7,8.9,33.9,22.2,39.8,41C341.8,229.7,342.5,233.9,342.5,238.2
					c0,1.2,1.9,1.2,1.9,0c-0.2-18.5-11.9-33.7-26-44.5c-20-15.5-45.1-24.1-69.7-28.9c-30-5.9-61.2-6.5-91.5-1.9
					c-25.8,3.9-52,11.5-74,26c-15.3,10-29.8,24.7-32.4,43.6c-2.5,17.9,7.1,34.2,20.1,45.8c17.9,16.1,41.4,25.4,64.5,31.1
					c29.9,7.4,61.5,9,92.1,5.6c26.7-3,53.7-9.7,77.1-23c16.3-9.2,32.6-22.8,38.1-41.5c1.2-4,1.7-8.1,1.8-12.2
					C344.4,237,342.5,237,342.5,238.2z"/>
			</g>
		</g>
		<g class="st0">
			<g>
				<path d="M205.3,168.7c53,0,99.3,14.9,125,37.3c-23.1-26.7-73.9-45.2-132.9-45.2c-80.7,0-146.1,34.7-146.1,77.4
					c0,14.7,7.7,28.4,21.1,40.1c-8.5-9.8-13.2-20.7-13.2-32.2C59.2,203.4,124.6,168.7,205.3,168.7z"/>
			</g>
			<g>
				<path class="st0" d="M205.3,168.7c53,0,99.3,14.9,125,37.3c-23.1-26.7-73.9-45.2-132.9-45.2c-80.7,0-146.1,34.7-146.1,77.4
					c0,14.7,7.7,28.4,21.1,40.1c-8.5-9.8-13.2-20.7-13.2-32.2C59.2,203.4,124.6,168.7,205.3,168.7z"/>
			</g>
		</g>
		<g>
			<path class="st4" d="M66.9,129.9v104.1c0,18.4,14.1,35.1,36.9,47.3c43.4-31.6,66.2-74.1,103.2-74.1c56.8,0,104.3,31,112.2,52.8
				c5-7.2,10-17.9,10-26V129.9H66.9z"/>
			<g>
				<path d="M66,129.9c0,18,0,36,0,54c0,11.9,0,23.9,0,35.8c0,6.3-0.5,12.9,0.3,19.1c2.7,20.1,20.4,34.2,37.1,43.3
					c0.3,0.1,0.7,0.2,1,0c15.4-11.3,29.1-24.7,42.7-38c11.4-11.2,23.1-23.1,37.5-30.3c16.3-8.1,35.1-6.1,52.4-2.8
					c17.7,3.4,35,9.6,50.5,18.9c11.9,7,25.7,16.9,30.8,30.4c0.3,0.8,1.2,0.9,1.7,0.2c5.9-8.7,10.1-18.4,10.1-29c0-7.2,0-14.4,0-21.6
					c0-21.3,0-42.6,0-63.9c0-5.4,0-10.7,0-16.1c0-0.5-0.4-0.9-0.9-0.9c-29.6,0-59.3,0-88.9,0c-47,0-94,0-141,0
					c-10.8,0-21.6,0-32.4,0c-1.2,0-1.2,1.9,0,1.9c16.8,0,33.5,0,50.3,0c34.9,0,69.8,0,104.7,0c29.9,0,59.7,0,89.6,0
					c4,0,7.9,0,11.9,0c1.5,0,4.1,0.5,5.6,0c0.2-0.1-0.1-1.2-0.7-0.3c-0.5,0.8,0,3.4,0,4.4c0,6.3,0,12.7,0,19c0,17.5,0,34.9,0,52.4
					c0,6.7,0,13.5,0,20.2c0,3.7,0.3,7.6-0.4,11.3c-1.3,7.8-5.1,15.1-9.5,21.6c0.6,0.1,1.1,0.2,1.7,0.2
					c-4.2-11.1-14.2-19.7-23.7-26.3c-14.4-10.1-31-17.3-48.1-21.8c-9.6-2.5-19.5-4.2-29.4-5c-8.6-0.7-17.2-0.9-25.5,1.5
					c-15,4.3-27.3,15-38.4,25.5c-14.5,13.7-28.1,28.2-43.7,40.7c-2.1,1.6-5.8,5.8-8.6,5.3c-2-0.3-4.8-2.8-6.5-3.9
					c-4.7-3-9.2-6.4-13.2-10.3c-6.6-6.4-12.2-14.3-14.4-23.3c-1.5-6.2-1-13-1-19.4c0-11,0-21.9,0-32.9c0-20,0-40,0-60
					C67.9,128.7,66,128.7,66,129.9z"/>
			</g>
		</g>
		<g>
			<path class="st5" d="M330.4,134.1c-1.2-2.1-2.9-3.8-5.3-4.7c-7.7-2.8-18.7,2.6-26.2,4.1c-18.2,3.8-36.5,6.6-54.9,8.7
				c-34.6,3.8-69.8,5.1-104.5,3c-19-1.2-35.5-6.8-53.8-10.8c-2.9-0.6-5.9-1.1-8.7-1.1c-1.8-4-8.1-6-10.3-1c-0.2,0.5-0.4,0.9-0.6,1.4
				l0,0c0,0,0,0.1,0,0.1c-0.2,0.4-0.3,0.8-0.5,1.2c-1.5,10.3,0.6,22.1,4.7,32.1c0.7,0.5,1.5,1,2.3,1.4c0,0,0,0,0.1,0
				c3.4,5.2,4.1,9.5,6.5,16c1.9,5.2,5,9.1,10.6,10.8c4.8,1.4,9.7-0.7,14.3-0.1c14.5,1.9,11.9,9.5,19.9,16.5c5.4,4.6,13,4,19.7,3.4
				c9.1-0.8,16.6-3.6,25.3,0.9c5,2.7,8.9,6.9,14.3,9.1c7.6,3.2,15.2,3.2,21.9-1.9c6.3-4.7,5.7-8.6,14.6-8.9
				c8.2-0.3,12.4,4.7,20.2,6.1c6.3,1.1,11.9-0.5,16.3-5.1c4.9-5.1,5.3-9.3,14.3-8.8c0.2,0,0.3,0,0.5,0.1c6.7,3.3,14.1,4.6,21.6,2.1
				c9.8-3.3,16.8-14.2,23.2-22.2c2.9-2.1,6.2-4.5,7.4-7.7c0.2-0.6,0.3-1.3,0.3-2.1c0.6-0.8,1.2-1.9,1.8-3.2c0.1-1.2,0.4-2.4,0.8-3.7
				C330.3,158.1,331.9,146.4,330.4,134.1z"/>
			<g>
				<path class="st5" d="M331.2,133.6c-3.5-5.5-9-6.5-15.1-5.6c-8.4,1.3-16.5,4.5-24.9,6.1c-21,4.1-42.2,6.9-63.5,8.7
					c-20.9,1.8-42,2.7-63,2.3c-10.5-0.2-21.2-0.3-31.7-1.5c-10.5-1.2-20.7-3.8-30.9-6.3c-5.4-1.3-10.7-2.7-16.1-3.8
					c-2.1-0.4-4.3-0.7-6.4-1c-2.3-0.4-2.2-0.9-3.8-2.2c-1.6-1.4-3.9-2.2-6-1.7c-0.9,0.2-5.7,3.3-3.4,4.3c-0.5-0.2-1.1,0.2-1.2,0.7
					c-1.4,6.2-1.2,12.5-0.1,18.9c0.6,3.7,1.6,7.4,2.8,11c0.4,1.2,0.8,3.3,1.6,4.3c0.7,0.8,1.9,1,2.6,1.7c2,2.1,3,6.3,3.9,8.9
					c1,2.9,1.8,5.9,3.1,8.7c2.2,4.7,6,8.4,11.2,9.5c7.1,1.6,14.2-1.9,21.2,1.9c4.3,2.4,5.9,7,8.7,10.7c8.6,11.1,22.8,6.7,34.8,5.7
					c8.9-0.8,14.8,2.9,21.8,7.9c5.4,3.8,11.8,6.4,18.6,5.7c5.9-0.6,10.6-3.7,14.6-7.9c5.4-5.7,11.9-5.9,19.1-2.9
					c5.6,2.4,10.8,5,17.1,4.3c5.6-0.7,9.8-4,13.2-8.3c1.6-2,3-4,5.4-5c3.7-1.6,6.6-0.3,10,0.9c6.3,2.2,13.3,2.5,19.5-0.1
					c6.3-2.6,11.1-7.8,15.2-13c2.6-3.2,4.9-7,8-9.7c2.3-2,4.8-3.6,6.1-6.5c6.4-14,9.3-30.5,7.6-45.9c-0.1-1.2-2-1.2-1.9,0
					c1.6,14.7-1.1,29-6.8,42.5c-0.9,2.1-0.9,3.6-2.5,5.4c-1.4,1.5-3.3,2.4-4.7,3.8c-1.7,1.7-3.1,3.9-4.5,5.8
					c-4,5.2-8.2,10.6-13.8,14.1c-7.5,4.7-16.1,4.1-24,0.9c-3.5-1.4-7.7-1.1-10.8,1.1c-4.1,2.9-6,7.8-10.5,10.3
					c-7.4,4.2-14.7,1-21.7-2.1c-4.4-1.9-9.1-3-13.9-1.9c-3.9,0.9-5.9,3.5-8.6,6.2c-6.9,6.9-16.5,7.9-25.1,3.6
					c-5.5-2.7-9.7-7.5-15.5-9.7c-12.5-4.8-26.4,4.4-38.7-1c-8.5-3.8-9.5-14.6-18.7-17.7c-7.3-2.4-15.7,1.5-22.4-2.2
					c-7-3.9-7.9-12.5-10.6-19.3c-0.8-2.1-1.8-4.4-3.2-6.1c-0.8-1-1.9-1.2-2.6-2.5c-0.9-1.7-1.4-3.9-1.9-5.8
					c-1.3-4.4-2.1-8.9-2.5-13.5c-0.1-2-0.2-4-0.1-6c0-0.8,0.1-1.7,0.2-2.5c0-0.7,0.2-1.4,0.4-2.1c0.7-1.5,0.5-1.7-0.8-0.8
					c0.5,0.2,1-0.2,1.2-0.7c1.4-3.4,4.5-4.7,7.4-2.3c0.8,0.6,1.2,2,2,2.4c1,0.5,2.7,0.2,3.8,0.3c2.7,0.3,5.3,0.9,7.9,1.4
					c8.3,1.9,16.5,4.1,24.8,6c17.1,3.9,34.2,4.9,51.7,5.1c36.5,0.5,73.1-2.2,109.1-7.9c9.5-1.5,19.3-2.9,28.6-5.5
					c8.3-2.3,21.3-8.5,27.2,0.9C330.2,135.6,331.9,134.7,331.2,133.6z"/>
			</g>
		</g>
		<g>
			<ellipse class="st6" cx="198.1" cy="129.9" rx="131.1" ry="68"/>
			<g>
				<path class="st3" d="M328.3,129.9c-0.2,17.1-12.3,30.6-25.6,39.9c-18,12.5-39.7,19.4-61.2,23.3c-25.9,4.7-52.8,5.1-78.8,1.3
					c-22.2-3.2-44.7-9.6-64-21.3c-13.8-8.4-27.5-20.9-30.3-37.6c-2.7-16.3,6.9-30.7,18.9-40.8c16.4-13.7,37.6-21.5,58.2-26.2
					c25.1-5.7,51.2-7.1,76.8-4.6c25.6,2.5,52,8.8,74.3,22.1C312.3,95.4,328,110.1,328.3,129.9c0,1.2,1.9,1.2,1.9,0
					c-0.2-16.3-10.7-29.6-23.2-39.1c-18.1-13.7-40.6-21.2-62.6-25.5c-27-5.2-55-5.7-82.2-1.8c-23.3,3.4-47.2,10.2-67.1,23.2
					c-13.4,8.7-26.3,21.4-28.7,38c-2.3,15.8,6.3,30.1,17.8,40.2c16.2,14.4,37.6,22.6,58.4,27.6c26.7,6.4,54.8,7.9,82.1,4.9
					c23.9-2.6,48.2-8.5,69.4-20.2c14.7-8.1,29.6-20.1,34.5-36.8c1-3.4,1.5-7,1.5-10.6C330.2,128.6,328.3,128.6,328.3,129.9z"/>
			</g>
		</g>
		<g>
			<ellipse class="st6" cx="198.1" cy="129.9" rx="131.1" ry="68"/>
			<g>
				<path class="st3" d="M328.3,129.9c-0.2,17.1-12.3,30.6-25.6,39.9c-18,12.5-39.7,19.4-61.2,23.3c-25.9,4.7-52.8,5.1-78.8,1.3
					c-22.2-3.2-44.7-9.6-64-21.3c-13.8-8.4-27.5-20.9-30.3-37.6c-2.7-16.3,6.9-30.7,18.9-40.8c16.4-13.7,37.6-21.5,58.2-26.2
					c25.1-5.7,51.2-7.1,76.8-4.6c25.6,2.5,52,8.8,74.3,22.1C312.3,95.4,328,110.1,328.3,129.9c0,1.2,1.9,1.2,1.9,0
					c-0.2-16.3-10.7-29.6-23.2-39.1c-18.1-13.7-40.6-21.2-62.6-25.5c-27-5.2-55-5.7-82.2-1.8c-23.3,3.4-47.2,10.2-67.1,23.2
					c-13.4,8.7-26.3,21.4-28.7,38c-2.3,15.8,6.3,30.1,17.8,40.2c16.2,14.4,37.6,22.6,58.4,27.6c26.7,6.4,54.8,7.9,82.1,4.9
					c23.9-2.6,48.2-8.5,69.4-20.2c14.7-8.1,29.6-20.1,34.5-36.8c1-3.4,1.5-7,1.5-10.6C330.2,128.6,328.3,128.6,328.3,129.9z"/>
			</g>
		</g>
		<g>
			<g>
				<path class="st7" d="M328.3,129.9c-0.2,17.1-12.3,30.6-25.6,39.9c-18,12.5-39.7,19.4-61.2,23.3c-25.9,4.7-52.8,5.1-78.8,1.3
					c-22.2-3.2-44.7-9.6-64-21.3c-13.8-8.4-27.5-20.9-30.3-37.6c-2.7-16.3,6.9-30.7,18.9-40.8c16.4-13.7,37.6-21.5,58.2-26.2
					c25.1-5.7,51.2-7.1,76.8-4.6c25.6,2.5,52,8.8,74.3,22.1C312.3,95.4,328,110.1,328.3,129.9c0,1.2,1.9,1.2,1.9,0
					c-0.2-16.3-10.7-29.6-23.2-39.1c-18.1-13.7-40.6-21.2-62.6-25.5c-27-5.2-55-5.7-82.2-1.8c-23.3,3.4-47.2,10.2-67.1,23.2
					c-13.4,8.7-26.3,21.4-28.7,38c-2.3,15.8,6.3,30.1,17.8,40.2c16.2,14.4,37.6,22.6,58.4,27.6c26.7,6.4,54.8,7.9,82.1,4.9
					c23.9-2.6,48.2-8.5,69.4-20.2c14.7-8.1,29.6-20.1,34.5-36.8c1-3.4,1.5-7,1.5-10.6C330.2,128.6,328.3,128.6,328.3,129.9z"/>
			</g>
		</g>
		<g>
			<ellipse class="st5" cx="198.1" cy="130" rx="131.1" ry="69.9"/>
			<g>
				<path d="M328.3,130c-0.2,17.2-11.9,31.1-25.2,40.7c-17.7,12.7-39.1,19.9-60.3,24c-26.2,5.1-53.4,5.6-79.8,1.6
					c-22.2-3.3-44.6-9.7-63.7-21.6c-14-8.7-27.9-21.5-30.8-38.6c-2.8-16.6,6.4-31.5,18.5-42.1c16.1-13.9,36.9-22,57.4-26.9
					c25.3-6.1,51.9-7.5,77.8-5c25.9,2.5,52.6,9.2,74.9,23C312.8,95,328,110.1,328.3,130c0,1.2,1.9,1.2,1.9,0
					c-0.2-16.6-10.6-30.3-23.2-40.2c-18.1-14.1-40.7-21.9-62.9-26.3c-26.8-5.3-54.6-5.8-81.6-1.8C139,65.3,115,72.3,95.1,85.5
					c-13.6,9.1-26.4,22.2-28.8,39.1c-2.2,16.2,6.3,30.8,17.9,41.4c16,14.5,37.2,23,58,28.2c27,6.7,55.5,8.2,83.1,5.1
					c23.8-2.7,47.8-8.8,68.8-20.6c14.9-8.4,29.7-20.8,34.5-37.9c1-3.5,1.5-7.1,1.5-10.8C330.2,128.8,328.3,128.8,328.3,130z"/>
			</g>
		</g>
		<g>
			<defs>
				<ellipse id="SVGID_1_" cx="198.1" cy="130" rx="131.1" ry="69.9"/>
			</defs>
			<clipPath id="SVGID_2_">
				<use xlink:href="#SVGID_1_"  style="overflow:visible;"/>
			</clipPath>
			<g class="st8">
				<g>
					<line class="st9" x1="53.9" y1="130" x2="342.3" y2="130"/>
					<line class="st9" x1="64.9" y1="159.4" x2="331.3" y2="100.6"/>
					<line class="st9" x1="96.1" y1="184.3" x2="300" y2="75.6"/>
					<line class="st9" x1="142.9" y1="200.9" x2="253.2" y2="59"/>
					<line class="st9" x1="198.1" y1="206.8" x2="198.1" y2="53.1"/>
					<line class="st9" x1="253.2" y1="200.9" x2="142.9" y2="59"/>
					<line class="st9" x1="300" y1="184.3" x2="96.1" y2="75.6"/>
					<line class="st9" x1="331.3" y1="159.4" x2="64.9" y2="100.6"/>
				</g>
				<g>
					<line class="st10" x1="53.9" y1="130" x2="342.3" y2="130"/>
					<line class="st10" x1="64.9" y1="159.4" x2="331.3" y2="100.6"/>
					<line class="st10" x1="96.1" y1="184.3" x2="300" y2="75.6"/>
					<line class="st10" x1="142.9" y1="200.9" x2="253.2" y2="59"/>
					<line class="st10" x1="198.1" y1="206.8" x2="198.1" y2="53.1"/>
					<line class="st10" x1="253.2" y1="200.9" x2="142.9" y2="59"/>
					<line class="st10" x1="300" y1="184.3" x2="96.1" y2="75.6"/>
					<line class="st10" x1="331.3" y1="159.4" x2="64.9" y2="100.6"/>
				</g>
				<g>
					<g>
						<path d="M53.9,131.1c32.5,0,65,0,97.5,0c51.8,0,103.5,0,155.3,0c11.9,0,23.7,0,35.6,0c1.4,0,1.5-2.2,0-2.2
							c-32.5,0-65,0-97.5,0c-51.8,0-103.5,0-155.3,0c-11.9,0-23.7,0-35.6,0C52.4,128.8,52.4,131.1,53.9,131.1L53.9,131.1z"/>
					</g>
					<g>
						<path d="M65.2,160.5c30-6.6,60-13.3,90.1-19.9c47.8-10.6,95.7-21.1,143.5-31.7c11-2.4,21.9-4.8,32.9-7.3
							c1.4-0.3,0.8-2.5-0.6-2.2c-30,6.6-60,13.3-90.1,19.9c-47.8,10.6-95.7,21.1-143.5,31.7c-11,2.4-21.9,4.8-32.9,7.3
							C63.1,158.6,63.7,160.8,65.2,160.5L65.2,160.5z"/>
					</g>
					<g>
						<path d="M96.7,185.3c23-12.3,46-24.5,69-36.8c36.6-19.5,73.2-39,109.9-58.5c8.4-4.5,16.7-8.9,25.1-13.4
							c1.3-0.7,0.1-2.6-1.1-1.9c-23,12.3-46,24.5-69,36.8c-36.6,19.5-73.2,39-109.9,58.5c-8.4,4.5-16.7,8.9-25.1,13.4
							C94.3,184,95.4,185.9,96.7,185.3L96.7,185.3z"/>
					</g>
					<g>
						<path d="M143.7,201.7c12.5-16,24.9-32.1,37.4-48.1c19.8-25.4,39.5-50.8,59.3-76.2c4.6-5.9,9.1-11.8,13.7-17.6
							c0.9-1.1-0.7-2.7-1.6-1.6c-12.5,16-24.9,32.1-37.4,48.1c-19.8,25.4-39.5,50.8-59.3,76.2c-4.6,5.9-9.1,11.8-13.7,17.6
							C141.2,201.3,142.8,202.9,143.7,201.7L143.7,201.7z"/>
					</g>
					<g>
						<path d="M199.2,206.8c0-44.8,0-89.7,0-134.5c0-6.4,0-12.8,0-19.2c0-1.4-2.2-1.5-2.2,0c0,44.8,0,89.7,0,134.5
							c0,6.4,0,12.8,0,19.2C196.9,208.2,199.2,208.2,199.2,206.8L199.2,206.8z"/>
					</g>
					<g>
						<path d="M254,200.2c-12.5-16-24.9-32.1-37.4-48.1c-19.8-25.4-39.5-50.8-59.3-76.2c-4.6-5.9-9.1-11.8-13.7-17.6
							c-0.9-1.1-2.5,0.5-1.6,1.6c12.5,16,24.9,32.1,37.4,48.1c19.8,25.4,39.5,50.8,59.3,76.2c4.6,5.9,9.1,11.8,13.7,17.6
							C253.3,202.9,254.9,201.3,254,200.2L254,200.2z"/>
					</g>
					<g>
						<path d="M300.6,183.3c-23-12.3-46-24.5-69-36.8C195,127,158.4,107.5,121.7,88c-8.4-4.5-16.7-8.9-25.1-13.4
							c-1.3-0.7-2.4,1.3-1.1,1.9c23,12.3,46,24.5,69,36.8c36.6,19.5,73.2,39,109.9,58.5c8.4,4.5,16.7,8.9,25.1,13.4
							C300.7,185.9,301.9,184,300.6,183.3L300.6,183.3z"/>
					</g>
					<g>
						<path d="M331.6,158.3c-30-6.6-60-13.3-90.1-19.9c-47.8-10.6-95.7-21.1-143.5-31.7c-11-2.4-21.9-4.8-32.9-7.3
							c-1.4-0.3-2,1.9-0.6,2.2c30,6.6,60,13.3,90.1,19.9c47.8,10.6,95.7,21.1,143.5,31.7c11,2.4,21.9,4.8,32.9,7.3
							C332.4,160.8,333,158.6,331.6,158.3L331.6,158.3z"/>
					</g>
				</g>
			</g>
		</g>
		<g>
			<g>
				<path d="M331.2,133.6c-1.6-3.8-1.1-8.2-2-12.2c-0.8-3.8-2.2-7.4-4-10.8c-4.1-7.9-10.4-14.5-17.3-20
					c-17.8-14.2-40.3-22.2-62.4-26.7c-27.5-5.7-56.2-6.2-83.9-2c-23.8,3.6-48.1,10.9-68,24.7c-8.2,5.7-15.7,12.6-21,21.1
					c-2.3,3.7-4.1,7.8-5.3,12c-0.5,1.8-3,12.4-1,13.2c-0.5-0.2-1.1,0.2-1.2,0.7c-1.4,6.2-1.2,12.5-0.1,18.9c0.6,3.7,1.6,7.4,2.8,11
					c0.4,1.2,0.8,3.3,1.6,4.3c0.7,0.8,1.9,1,2.6,1.7c2,2.1,3,6.3,3.9,8.9c1,2.9,1.8,5.9,3.1,8.7c2.2,4.7,6,8.4,11.2,9.5
					c7.1,1.6,14.2-1.9,21.2,1.9c4.3,2.4,5.9,7,8.7,10.7c8.6,11.1,22.8,6.7,34.8,5.7c8.9-0.8,14.8,2.9,21.8,7.9
					c5.4,3.8,11.8,6.4,18.6,5.7c5.9-0.6,10.6-3.7,14.6-7.9c5.4-5.7,11.9-5.9,19.1-2.9c5.6,2.4,10.8,5,17.1,4.3
					c5.6-0.7,9.8-4,13.2-8.3c1.6-2,3-4,5.4-5c3.7-1.6,6.6-0.3,10,0.9c6.3,2.2,13.3,2.5,19.5-0.1c6.3-2.6,11.1-7.8,15.2-13
					c2.6-3.2,4.9-7,8-9.7c2.3-2,4.8-3.6,6.1-6.5c6.4-14,9.3-30.5,7.6-45.9c-0.1-1.2-2-1.2-1.9,0c1.6,14.7-1.1,29-6.8,42.5
					c-0.9,2.1-0.9,3.6-2.5,5.4c-1.4,1.5-3.3,2.4-4.7,3.8c-1.7,1.7-3.1,3.9-4.5,5.8c-4,5.2-8.2,10.6-13.8,14.1
					c-7.5,4.7-16.1,4.1-24,0.9c-3.5-1.4-7.7-1.1-10.8,1.1c-4.1,2.9-6,7.8-10.5,10.3c-7.4,4.2-14.7,1-21.7-2.1
					c-4.4-1.9-9.1-3-13.9-1.9c-3.9,0.9-5.9,3.5-8.6,6.2c-6.9,6.9-16.5,7.9-25.1,3.6c-5.5-2.7-9.7-7.5-15.5-9.7
					c-12.5-4.8-26.4,4.4-38.7-1c-8.5-3.8-9.5-14.6-18.7-17.7c-7.3-2.4-15.7,1.5-22.4-2.2c-7-3.9-7.9-12.5-10.6-19.3
					c-0.8-2.1-1.8-4.4-3.2-6.1c-0.8-1-1.9-1.2-2.6-2.5c-0.9-1.7-1.4-3.9-1.9-5.8c-1.3-4.4-2.1-8.9-2.5-13.5c-0.1-2-0.2-4-0.1-6
					c0-0.8,0.1-1.7,0.2-2.5c0-0.7,0.2-1.4,0.4-2.1c0.7-1.5,0.5-1.7-0.8-0.8c0.5,0.2,1-0.2,1.2-0.7c1.5-3.7,0.8-8,1.7-12
					c0.9-4.1,2.5-8,4.5-11.6c4.5-8,11.1-14.6,18.4-20c18.3-13.7,41-21.2,63.3-25.4c27.2-5.1,55.7-5.2,83-0.6
					c22.5,3.8,45.3,11,64.1,24.2c8.4,5.9,16.1,13.2,21,22.2c2.1,3.8,3.6,7.9,4.5,12.1c0.8,4,0.4,7.9,2,11.7
					C330.1,135.7,331.7,134.7,331.2,133.6z"/>
			</g>
		</g>
		<g>
			<polygon class="st4" points="319.3,260 319.3,156.7 198.1,130 103.9,177.2 103.9,281.3 198.1,233.6 			"/>
			<g>
				<path d="M320.2,260c0-30.2,0-60.4,0-90.5c0-4.2,0-8.5,0-12.7c0-0.4-0.3-0.8-0.7-0.9c-33-7.3-66-14.6-99.1-21.9
					c-6.4-1.4-12.9-2.8-19.3-4.3c-2.6-0.6-3.3-0.7-5.6,0.5c-15.8,7.9-31.5,15.8-47.3,23.7c-15,7.5-29.9,15-44.9,22.5
					c-0.3,0.1-0.5,0.5-0.5,0.8c0,30.3,0,60.6,0,90.9c0,4.4,0,8.8,0,13.2c0,0.7,0.8,1.1,1.4,0.8c29.5-14.9,58.9-29.8,88.4-44.7
					c1.7-0.9,3.4-1.9,5.2-2.6c1.1-0.5-0.8-0.4,0.9,0c5.3,1.3,10.6,2.3,16,3.5c20.1,4.4,40.3,8.8,60.4,13.1
					c14.6,3.2,29.2,6.3,43.8,9.5c1.2,0.3,1.7-1.6,0.5-1.8c-33-7.2-66-14.4-99.1-21.5c-6.4-1.4-12.9-2.8-19.3-4.2
					c-2.6-0.6-3.3-0.7-5.6,0.5c-15.8,8-31.5,15.9-47.3,23.9c-15,7.6-29.9,15.1-44.9,22.7c0.5,0.3,0.9,0.5,1.4,0.8
					c0-31.6,0-63.2,0-94.7c0-2.4,0-4.9,0-7.3c0-0.5-0.1-1.1,0-1.6c0.1-1-0.8,0.7-0.3,0.3c3.4-2.6,8.3-4.2,12.1-6.1
					c17.5-8.8,35.1-17.6,52.6-26.4c7.4-3.7,14.7-7.4,22.1-11.1c1.9-1,4-1.8,5.8-2.9c0.4-0.2,0.9-0.5,1.3-0.6
					c0.4-0.1-1.1,0.1-0.3,0.1c4,0.1,8.5,1.9,12.4,2.7c8.4,1.8,16.7,3.7,25.1,5.5c19.8,4.4,39.5,8.7,59.3,13.1
					c6.5,1.4,13.1,2.9,19.6,4.3c1.4,0.3,2.7,0.7,4.1,0.9c0.8,0.1-0.4-0.7-0.4-0.7c0.1,0.5,0,1,0,1.5c-0.6,5.8,0,12,0,17.8
					c0,9.9,0,19.8,0,29.7c0,17,0,34,0,51.1c0,1,0,2,0,3.1C318.3,261.2,320.2,261.2,320.2,260z"/>
			</g>
		</g>
		<g>
			<line class="st11" x1="198.1" y1="131.5" x2="198.1" y2="233.6"/>
			<g>
				<path d="M197.1,131.5c0,29.8,0,59.6,0,89.4c0,4.2,0,8.5,0,12.7c0,1.2,1.9,1.2,1.9,0c0-29.8,0-59.6,0-89.4c0-4.2,0-8.5,0-12.7
					C199,130.3,197.1,130.3,197.1,131.5L197.1,131.5z"/>
			</g>
		</g>
		<polygon class="st12" points="197.4,169.6 104.7,215.4 104.7,246.6 197.4,200.7 		"/>
		<polygon class="st12" points="68.1,183 102.9,215.4 102.9,246.6 68.1,214.1 		"/>
		<polygon class="st12" points="199,169.6 318.1,192.9 318.1,224.1 199,200.7 		"/>
		<polygon class="st12" points="328.1,182.6 320.2,193.1 320.2,224.3 328.1,213.7 		"/>
	</g>
	<line class="st13" x1="77" y1="156.8" x2="77" y2="260.9"/>
</g>
</svg>
