<?xml version="1.0" encoding="utf-8"?>
<!-- Generator: Adobe Illustrator 22.0.1, SVG Export Plug-In . SVG Version: 6.00 Build 0)  -->
<svg version="1.1" id="Layer_1" xmlns="http://www.w3.org/2000/svg" xmlns:xlink="http://www.w3.org/1999/xlink" x="0px" y="0px"
	 viewBox="0 0 400 400" style="enable-background:new 0 0 400 400;" xml:space="preserve">
<style type="text/css">
	.st0{fill:#FFFFFF;}
	.st1{fill:#F24044;}
	.st2{fill:#FADC3C;}
	.st3{fill:#00CDC8;}
	.st4{fill:#A5D73C;}
</style>
<g>
	<g>
		<g>
			<path class="st0" d="M77.3,118c-2.2,0-4-1.8-4-4V33c0-2.2,1.8-4,4-4h37.4c2.2,0,4,1.8,4,4v81c0,2.2-1.8,4-4,4H77.3z"/>
			<path class="st0" d="M114.6,33v81H77.3V33H114.6 M114.6,25H77.3c-4.4,0-8,3.6-8,8v81c0,4.4,3.6,8,8,8h37.4c4.4,0,8-3.6,8-8V33
				C122.6,28.6,119.1,25,114.6,25L114.6,25z"/>
		</g>
		<g>
			<path class="st0" d="M329.1,118c-2.2,0-4-1.8-4-4V33c0-2.2,1.8-4,4-4h37.4c2.2,0,4,1.8,4,4v81c0,2.2-1.8,4-4,4H329.1z"/>
			<path class="st0" d="M366.4,33v81h-37.4V33H366.4 M366.4,25h-37.4c-4.4,0-8,3.6-8,8v81c0,4.4,3.6,8,8,8h37.4c4.4,0,8-3.6,8-8V33
				C374.4,28.6,370.9,25,366.4,25L366.4,25z"/>
		</g>
		<g>
			<path class="st0" d="M35.3,118c-2.2,0-4-1.8-4-4V33c0-2.2,1.8-4,4-4h37.4c2.2,0,4,1.8,4,4v81c0,2.2-1.8,4-4,4H35.3z"/>
			<path class="st0" d="M72.7,33v81H35.3V33H72.7 M72.7,25H35.3c-4.4,0-8,3.6-8,8v81c0,4.4,3.6,8,8,8h37.4c4.4,0,8-3.6,8-8V33
				C80.7,28.6,77.1,25,72.7,25L72.7,25z"/>
		</g>
		<g>
			<path class="st0" d="M161.2,74.4c-2.2,0-4-1.8-4-4V33c0-2.2,1.8-4,4-4h37.4c2.2,0,4,1.8,4,4v37.4c0,2.2-1.8,4-4,4H161.2z"/>
			<path class="st0" d="M198.6,33v37.4h-37.4V33H198.6 M198.6,25h-37.4c-4.4,0-8,3.6-8,8v37.4c0,4.4,3.6,8,8,8h37.4c4.4,0,8-3.6,8-8
				V33C206.6,28.6,203,25,198.6,25L198.6,25z"/>
		</g>
		<g>
			<path class="st0" d="M119.2,74.4c-2.2,0-4-1.8-4-4V33c0-2.2,1.8-4,4-4h37.4c2.2,0,4,1.8,4,4v37.4c0,2.2-1.8,4-4,4H119.2z"/>
			<path class="st0" d="M156.6,33v37.4h-37.4V33H156.6 M156.6,25h-37.4c-4.4,0-8,3.6-8,8v37.4c0,4.4,3.6,8,8,8h37.4c4.4,0,8-3.6,8-8
				V33C164.6,28.6,161,25,156.6,25L156.6,25z"/>
		</g>
		<g>
			<path class="st0" d="M245.1,74.4c-2.2,0-4-1.8-4-4V33c0-2.2,1.8-4,4-4h37.4c2.2,0,4,1.8,4,4v37.4c0,2.2-1.8,4-4,4H245.1z"/>
			<path class="st0" d="M282.5,33v37.4h-37.4V33H282.5 M282.5,25h-37.4c-4.4,0-8,3.6-8,8v37.4c0,4.4,3.6,8,8,8h37.4c4.4,0,8-3.6,8-8
				V33C290.5,28.6,286.9,25,282.5,25L282.5,25z"/>
		</g>
		<g>
			<path class="st0" d="M221.9,74.3c-12.5,0-22.6-10.1-22.6-22.6c0-12.5,10.1-22.6,22.6-22.6c12.5,0,22.6,10.1,22.6,22.6
				C244.5,64.1,234.3,74.3,221.9,74.3z"/>
			<path class="st0" d="M221.9,33.1c10.3,0,18.6,8.3,18.6,18.6c0,10.3-8.3,18.6-18.6,18.6c-10.3,0-18.6-8.3-18.6-18.6
				C203.3,41.4,211.6,33.1,221.9,33.1 M221.9,25.1c-14.7,0-26.6,11.9-26.6,26.6c0,14.7,11.9,26.6,26.6,26.6
				c14.7,0,26.6-11.9,26.6-26.6C248.5,37,236.5,25.1,221.9,25.1L221.9,25.1z"/>
		</g>
		<g>
			<path class="st0" d="M305.8,74.3c-12.5,0-22.6-10.1-22.6-22.6c0-12.5,10.1-22.6,22.6-22.6c12.5,0,22.6,10.1,22.6,22.6
				C328.4,64.1,318.3,74.3,305.8,74.3z"/>
			<path class="st0" d="M305.8,33.1c10.3,0,18.6,8.3,18.6,18.6c0,10.3-8.3,18.6-18.6,18.6s-18.6-8.3-18.6-18.6
				C287.2,41.4,295.5,33.1,305.8,33.1 M305.8,25.1c-14.7,0-26.6,11.9-26.6,26.6c0,14.7,11.9,26.6,26.6,26.6s26.6-11.9,26.6-26.6
				C332.4,37,320.5,25.1,305.8,25.1L305.8,25.1z"/>
		</g>
		<g>
			<path class="st0" d="M245.1,118c-2.2,0-4-1.8-4-4V76.6c0-2.2,1.8-4,4-4h37.4c2.2,0,4,1.8,4,4V114c0,2.2-1.8,4-4,4H245.1z"/>
			<path class="st0" d="M282.5,76.6V114h-37.4V76.6H282.5 M282.5,68.6h-37.4c-4.4,0-8,3.6-8,8V114c0,4.4,3.6,8,8,8h37.4
				c4.4,0,8-3.6,8-8V76.6C290.5,72.2,286.9,68.6,282.5,68.6L282.5,68.6z"/>
		</g>
		<g>
			<path class="st0" d="M287.1,118c-2.2,0-4-1.8-4-4V76.6c0-2.2,1.8-4,4-4h37.4c2.2,0,4,1.8,4,4V114c0,2.2-1.8,4-4,4H287.1z"/>
			<path class="st0" d="M324.5,76.6V114h-37.4V76.6H324.5 M324.5,68.6h-37.4c-4.4,0-8,3.6-8,8V114c0,4.4,3.6,8,8,8h37.4
				c4.4,0,8-3.6,8-8V76.6C332.5,72.2,328.9,68.6,324.5,68.6L324.5,68.6z"/>
		</g>
		<g>
			<path class="st0" d="M161.2,118c-2.2,0-4-1.8-4-4V76.6c0-2.2,1.8-4,4-4h37.4c2.2,0,4,1.8,4,4V114c0,2.2-1.8,4-4,4H161.2z"/>
			<path class="st0" d="M198.6,76.6V114h-37.4V76.6H198.6 M198.6,68.6h-37.4c-4.4,0-8,3.6-8,8V114c0,4.4,3.6,8,8,8h37.4
				c4.4,0,8-3.6,8-8V76.6C206.6,72.2,203,68.6,198.6,68.6L198.6,68.6z"/>
		</g>
		<g>
			<path class="st0" d="M221.9,117.9c-12.5,0-22.6-10.1-22.6-22.6c0-12.5,10.1-22.6,22.6-22.6c12.5,0,22.6,10.1,22.6,22.6
				C244.5,107.7,234.3,117.9,221.9,117.9z"/>
			<path class="st0" d="M221.9,76.7c10.3,0,18.6,8.3,18.6,18.6c0,10.3-8.3,18.6-18.6,18.6c-10.3,0-18.6-8.3-18.6-18.6
				C203.3,85,211.6,76.7,221.9,76.7 M221.9,68.7c-14.7,0-26.6,11.9-26.6,26.6c0,14.7,11.9,26.6,26.6,26.6
				c14.7,0,26.6-11.9,26.6-26.6C248.5,80.6,236.5,68.7,221.9,68.7L221.9,68.7z"/>
		</g>
		<g>
			<path class="st0" d="M137.9,117.9c-12.5,0-22.6-10.1-22.6-22.6c0-12.5,10.1-22.6,22.6-22.6c12.5,0,22.6,10.1,22.6,22.6
				C160.5,107.7,150.4,117.9,137.9,117.9z"/>
			<path class="st0" d="M137.9,76.7c10.3,0,18.6,8.3,18.6,18.6c0,10.3-8.3,18.6-18.6,18.6s-18.6-8.3-18.6-18.6
				C119.3,85,127.6,76.7,137.9,76.7 M137.9,68.7c-14.7,0-26.6,11.9-26.6,26.6c0,14.7,11.9,26.6,26.6,26.6s26.6-11.9,26.6-26.6
				C164.5,80.6,152.6,68.7,137.9,68.7L137.9,68.7z"/>
		</g>
		<g>
			<path class="st0" d="M77.3,371c-2.2,0-4-1.8-4-4v-81c0-2.2,1.8-4,4-4h37.4c2.2,0,4,1.8,4,4v81c0,2.2-1.8,4-4,4H77.3z"/>
			<path class="st0" d="M114.6,286v81H77.3v-81H114.6 M114.6,278H77.3c-4.4,0-8,3.6-8,8v81c0,4.4,3.6,8,8,8h37.4c4.4,0,8-3.6,8-8
				v-81C122.6,281.6,119.1,278,114.6,278L114.6,278z"/>
		</g>
		<g>
			<path class="st0" d="M329.1,371c-2.2,0-4-1.8-4-4v-81c0-2.2,1.8-4,4-4h37.4c2.2,0,4,1.8,4,4v81c0,2.2-1.8,4-4,4H329.1z"/>
			<path class="st0" d="M366.4,286v81h-37.4v-81H366.4 M366.4,278h-37.4c-4.4,0-8,3.6-8,8v81c0,4.4,3.6,8,8,8h37.4c4.4,0,8-3.6,8-8
				v-81C374.4,281.6,370.9,278,366.4,278L366.4,278z"/>
		</g>
		<g>
			<path class="st0" d="M35.3,371c-2.2,0-4-1.8-4-4v-81c0-2.2,1.8-4,4-4h37.4c2.2,0,4,1.8,4,4v81c0,2.2-1.8,4-4,4H35.3z"/>
			<path class="st0" d="M72.7,286v81H35.3v-81H72.7 M72.7,278H35.3c-4.4,0-8,3.6-8,8v81c0,4.4,3.6,8,8,8h37.4c4.4,0,8-3.6,8-8v-81
				C80.7,281.6,77.1,278,72.7,278L72.7,278z"/>
		</g>
		<g>
			<path class="st0" d="M161.2,327.4c-2.2,0-4-1.8-4-4V286c0-2.2,1.8-4,4-4h37.4c2.2,0,4,1.8,4,4v37.4c0,2.2-1.8,4-4,4H161.2z"/>
			<path class="st0" d="M198.6,286v37.4h-37.4V286H198.6 M198.6,278h-37.4c-4.4,0-8,3.6-8,8v37.4c0,4.4,3.6,8,8,8h37.4
				c4.4,0,8-3.6,8-8V286C206.6,281.6,203,278,198.6,278L198.6,278z"/>
		</g>
		<g>
			<path class="st0" d="M119.2,327.4c-2.2,0-4-1.8-4-4V286c0-2.2,1.8-4,4-4h37.4c2.2,0,4,1.8,4,4v37.4c0,2.2-1.8,4-4,4H119.2z"/>
			<path class="st0" d="M156.6,286v37.4h-37.4V286H156.6 M156.6,278h-37.4c-4.4,0-8,3.6-8,8v37.4c0,4.4,3.6,8,8,8h37.4
				c4.4,0,8-3.6,8-8V286C164.6,281.6,161,278,156.6,278L156.6,278z"/>
		</g>
		<g>
			<path class="st0" d="M245.1,327.4c-2.2,0-4-1.8-4-4V286c0-2.2,1.8-4,4-4h37.4c2.2,0,4,1.8,4,4v37.4c0,2.2-1.8,4-4,4H245.1z"/>
			<path class="st0" d="M282.5,286v37.4h-37.4V286H282.5 M282.5,278h-37.4c-4.4,0-8,3.6-8,8v37.4c0,4.4,3.6,8,8,8h37.4
				c4.4,0,8-3.6,8-8V286C290.5,281.6,286.9,278,282.5,278L282.5,278z"/>
		</g>
		<g>
			<path class="st0" d="M221.9,327.3c-12.5,0-22.6-10.1-22.6-22.6c0-12.5,10.1-22.6,22.6-22.6c12.5,0,22.6,10.1,22.6,22.6
				C244.5,317.2,234.3,327.3,221.9,327.3z"/>
			<path class="st0" d="M221.9,286.1c10.3,0,18.6,8.3,18.6,18.6s-8.3,18.6-18.6,18.6c-10.3,0-18.6-8.3-18.6-18.6
				S211.6,286.1,221.9,286.1 M221.9,278.1c-14.7,0-26.6,11.9-26.6,26.6s11.9,26.6,26.6,26.6c14.7,0,26.6-11.9,26.6-26.6
				S236.5,278.1,221.9,278.1L221.9,278.1z"/>
		</g>
		<g>
			<path class="st0" d="M305.8,327.3c-12.5,0-22.6-10.1-22.6-22.6c0-12.5,10.1-22.6,22.6-22.6c12.5,0,22.6,10.1,22.6,22.6
				C328.4,317.2,318.3,327.3,305.8,327.3z"/>
			<path class="st0" d="M305.8,286.1c10.3,0,18.6,8.3,18.6,18.6s-8.3,18.6-18.6,18.6s-18.6-8.3-18.6-18.6S295.5,286.1,305.8,286.1
				 M305.8,278.1c-14.7,0-26.6,11.9-26.6,26.6s11.9,26.6,26.6,26.6s26.6-11.9,26.6-26.6S320.5,278.1,305.8,278.1L305.8,278.1z"/>
		</g>
		<g>
			<path class="st0" d="M245.1,371c-2.2,0-4-1.8-4-4v-37.4c0-2.2,1.8-4,4-4h37.4c2.2,0,4,1.8,4,4V367c0,2.2-1.8,4-4,4H245.1z"/>
			<path class="st0" d="M282.5,329.6V367h-37.4v-37.4H282.5 M282.5,321.6h-37.4c-4.4,0-8,3.6-8,8V367c0,4.4,3.6,8,8,8h37.4
				c4.4,0,8-3.6,8-8v-37.4C290.5,325.2,286.9,321.6,282.5,321.6L282.5,321.6z"/>
		</g>
		<g>
			<path class="st0" d="M287.1,371c-2.2,0-4-1.8-4-4v-37.4c0-2.2,1.8-4,4-4h37.4c2.2,0,4,1.8,4,4V367c0,2.2-1.8,4-4,4H287.1z"/>
			<path class="st0" d="M324.5,329.6V367h-37.4v-37.4H324.5 M324.5,321.6h-37.4c-4.4,0-8,3.6-8,8V367c0,4.4,3.6,8,8,8h37.4
				c4.4,0,8-3.6,8-8v-37.4C332.5,325.2,328.9,321.6,324.5,321.6L324.5,321.6z"/>
		</g>
		<g>
			<path class="st0" d="M161.2,371c-2.2,0-4-1.8-4-4v-37.4c0-2.2,1.8-4,4-4h37.4c2.2,0,4,1.8,4,4V367c0,2.2-1.8,4-4,4H161.2z"/>
			<path class="st0" d="M198.6,329.6V367h-37.4v-37.4H198.6 M198.6,321.6h-37.4c-4.4,0-8,3.6-8,8V367c0,4.4,3.6,8,8,8h37.4
				c4.4,0,8-3.6,8-8v-37.4C206.6,325.2,203,321.6,198.6,321.6L198.6,321.6z"/>
		</g>
		<g>
			<path class="st0" d="M221.9,370.9c-12.5,0-22.6-10.1-22.6-22.6c0-12.5,10.1-22.6,22.6-22.6c12.5,0,22.6,10.1,22.6,22.6
				C244.5,360.8,234.3,370.9,221.9,370.9z"/>
			<path class="st0" d="M221.9,329.7c10.3,0,18.6,8.3,18.6,18.6s-8.3,18.6-18.6,18.6c-10.3,0-18.6-8.3-18.6-18.6
				S211.6,329.7,221.9,329.7 M221.9,321.7c-14.7,0-26.6,11.9-26.6,26.6s11.9,26.6,26.6,26.6c14.7,0,26.6-11.9,26.6-26.6
				S236.5,321.7,221.9,321.7L221.9,321.7z"/>
		</g>
		<g>
			<path class="st0" d="M137.9,370.9c-12.5,0-22.6-10.1-22.6-22.6c0-12.5,10.1-22.6,22.6-22.6c12.5,0,22.6,10.1,22.6,22.6
				C160.5,360.8,150.4,370.9,137.9,370.9z"/>
			<path class="st0" d="M137.9,329.7c10.3,0,18.6,8.3,18.6,18.6s-8.3,18.6-18.6,18.6s-18.6-8.3-18.6-18.6S127.6,329.7,137.9,329.7
				 M137.9,321.7c-14.7,0-26.6,11.9-26.6,26.6s11.9,26.6,26.6,26.6s26.6-11.9,26.6-26.6S152.6,321.7,137.9,321.7L137.9,321.7z"/>
		</g>
		<g>
			<path class="st0" d="M329.1,202c-2.2,0-4-1.8-4-4v-81c0-2.2,1.8-4,4-4h37.4c2.2,0,4,1.8,4,4v81c0,2.2-1.8,4-4,4H329.1z"/>
			<path class="st0" d="M366.4,117.1v81h-37.4v-81H366.4 M366.4,109.1h-37.4c-4.4,0-8,3.6-8,8v81c0,4.4,3.6,8,8,8h37.4
				c4.4,0,8-3.6,8-8v-81C374.4,112.6,370.9,109.1,366.4,109.1L366.4,109.1z"/>
		</g>
		<g>
			<path class="st0" d="M245.1,202c-2.2,0-4-1.8-4-4v-81c0-2.2,1.8-4,4-4h37.4c2.2,0,4,1.8,4,4v81c0,2.2-1.8,4-4,4H245.1z"/>
			<path class="st0" d="M282.5,117.1v81h-37.4v-81H282.5 M282.5,109.1h-37.4c-4.4,0-8,3.6-8,8v81c0,4.4,3.6,8,8,8h37.4
				c4.4,0,8-3.6,8-8v-81C290.5,112.6,286.9,109.1,282.5,109.1L282.5,109.1z"/>
		</g>
		<g>
			<path class="st0" d="M287.1,202c-2.2,0-4-1.8-4-4v-81c0-2.2,1.8-4,4-4h37.4c2.2,0,4,1.8,4,4v81c0,2.2-1.8,4-4,4H287.1z"/>
			<path class="st0" d="M324.5,117.1v81h-37.4v-81H324.5 M324.5,109.1h-37.4c-4.4,0-8,3.6-8,8v81c0,4.4,3.6,8,8,8h37.4
				c4.4,0,8-3.6,8-8v-81C332.5,112.6,328.9,109.1,324.5,109.1L324.5,109.1z"/>
		</g>
		<g>
			<path class="st0" d="M77.3,158.4c-2.2,0-4-1.8-4-4v-37.4c0-2.2,1.8-4,4-4h37.4c2.2,0,4,1.8,4,4v37.4c0,2.2-1.8,4-4,4H77.3z"/>
			<path class="st0" d="M114.6,117.1v37.4H77.3v-37.4H114.6 M114.6,109.1H77.3c-4.4,0-8,3.6-8,8v37.4c0,4.4,3.6,8,8,8h37.4
				c4.4,0,8-3.6,8-8v-37.4C122.6,112.6,119.1,109.1,114.6,109.1L114.6,109.1z"/>
		</g>
		<g>
			<path class="st0" d="M35.3,158.4c-2.2,0-4-1.8-4-4v-37.4c0-2.2,1.8-4,4-4h37.4c2.2,0,4,1.8,4,4v37.4c0,2.2-1.8,4-4,4H35.3z"/>
			<path class="st0" d="M72.7,117.1v37.4H35.3v-37.4H72.7 M72.7,109.1H35.3c-4.4,0-8,3.6-8,8v37.4c0,4.4,3.6,8,8,8h37.4
				c4.4,0,8-3.6,8-8v-37.4C80.7,112.6,77.1,109.1,72.7,109.1L72.7,109.1z"/>
		</g>
		<g>
			<path class="st0" d="M161.2,158.4c-2.2,0-4-1.8-4-4v-37.4c0-2.2,1.8-4,4-4h37.4c2.2,0,4,1.8,4,4v37.4c0,2.2-1.8,4-4,4H161.2z"/>
			<path class="st0" d="M198.6,117.1v37.4h-37.4v-37.4H198.6 M198.6,109.1h-37.4c-4.4,0-8,3.6-8,8v37.4c0,4.4,3.6,8,8,8h37.4
				c4.4,0,8-3.6,8-8v-37.4C206.6,112.6,203,109.1,198.6,109.1L198.6,109.1z"/>
		</g>
		<g>
			<path class="st0" d="M137.9,158.3c-12.5,0-22.6-10.1-22.6-22.6c0-12.5,10.1-22.6,22.6-22.6c12.5,0,22.6,10.1,22.6,22.6
				C160.5,148.2,150.4,158.3,137.9,158.3z"/>
			<path class="st0" d="M137.9,117.1c10.3,0,18.6,8.3,18.6,18.6c0,10.3-8.3,18.6-18.6,18.6s-18.6-8.3-18.6-18.6
				C119.3,125.5,127.6,117.1,137.9,117.1 M137.9,109.1c-14.7,0-26.6,11.9-26.6,26.6c0,14.7,11.9,26.6,26.6,26.6s26.6-11.9,26.6-26.6
				C164.5,121.1,152.6,109.1,137.9,109.1L137.9,109.1z"/>
		</g>
		<g>
			<path class="st0" d="M221.9,158.3c-12.5,0-22.6-10.1-22.6-22.6c0-12.5,10.1-22.6,22.6-22.6c12.5,0,22.6,10.1,22.6,22.6
				C244.5,148.2,234.3,158.3,221.9,158.3z"/>
			<path class="st0" d="M221.9,117.1c10.3,0,18.6,8.3,18.6,18.6c0,10.3-8.3,18.6-18.6,18.6c-10.3,0-18.6-8.3-18.6-18.6
				C203.3,125.5,211.6,117.1,221.9,117.1 M221.9,109.1c-14.7,0-26.6,11.9-26.6,26.6c0,14.7,11.9,26.6,26.6,26.6
				c14.7,0,26.6-11.9,26.6-26.6C248.5,121.1,236.5,109.1,221.9,109.1L221.9,109.1z"/>
		</g>
		<g>
			<path class="st0" d="M160.9,200c-2.2,0-4-1.8-4-4v-37.4c0-2.2,1.8-4,4-4h37.4c2.2,0,4,1.8,4,4V196c0,2.2-1.8,4-4,4H160.9z"/>
			<path class="st0" d="M198.3,158.6V196h-37.4v-37.4H198.3 M198.3,150.6h-37.4c-4.4,0-8,3.6-8,8V196c0,4.4,3.6,8,8,8h37.4
				c4.4,0,8-3.6,8-8v-37.4C206.3,154.2,202.7,150.6,198.3,150.6L198.3,150.6z"/>
		</g>
		<g>
			<path class="st0" d="M202.9,200c-2.2,0-4-1.8-4-4v-37.4c0-2.2,1.8-4,4-4h37.4c2.2,0,4,1.8,4,4V196c0,2.2-1.8,4-4,4H202.9z"/>
			<path class="st0" d="M240.3,158.6V196h-37.4v-37.4H240.3 M240.3,150.6h-37.4c-4.4,0-8,3.6-8,8V196c0,4.4,3.6,8,8,8h37.4
				c4.4,0,8-3.6,8-8v-37.4C248.3,154.2,244.7,150.6,240.3,150.6L240.3,150.6z"/>
		</g>
		<g>
			<path class="st0" d="M76.9,200c-2.2,0-4-1.8-4-4v-37.4c0-2.2,1.8-4,4-4h37.4c2.2,0,4,1.8,4,4V196c0,2.2-1.8,4-4,4H76.9z"/>
			<path class="st0" d="M114.3,158.6V196H76.9v-37.4H114.3 M114.3,150.6H76.9c-4.4,0-8,3.6-8,8V196c0,4.4,3.6,8,8,8h37.4
				c4.4,0,8-3.6,8-8v-37.4C122.3,154.2,118.7,150.6,114.3,150.6L114.3,150.6z"/>
		</g>
		<g>
			<path class="st0" d="M137.6,199.9c-12.5,0-22.6-10.1-22.6-22.6c0-12.5,10.1-22.6,22.6-22.6c12.5,0,22.6,10.1,22.6,22.6
				C160.2,189.8,150.1,199.9,137.6,199.9z"/>
			<path class="st0" d="M137.6,158.7c10.3,0,18.6,8.3,18.6,18.6c0,10.3-8.3,18.6-18.6,18.6s-18.6-8.3-18.6-18.6
				C119,167.1,127.3,158.7,137.6,158.7 M137.6,150.7c-14.7,0-26.6,11.9-26.6,26.6s11.9,26.6,26.6,26.6s26.6-11.9,26.6-26.6
				S152.3,150.7,137.6,150.7L137.6,150.7z"/>
		</g>
		<g>
			<path class="st0" d="M53.7,199.9c-12.5,0-22.6-10.1-22.6-22.6c0-12.5,10.1-22.6,22.6-22.6c12.5,0,22.6,10.1,22.6,22.6
				C76.3,189.8,66.1,199.9,53.7,199.9z"/>
			<path class="st0" d="M53.7,158.7c10.3,0,18.6,8.3,18.6,18.6c0,10.3-8.3,18.6-18.6,18.6s-18.6-8.3-18.6-18.6
				C35.1,167.1,43.4,158.7,53.7,158.7 M53.7,150.7c-14.7,0-26.6,11.9-26.6,26.6s11.9,26.6,26.6,26.6s26.6-11.9,26.6-26.6
				S68.3,150.7,53.7,150.7L53.7,150.7z"/>
		</g>
		<g>
			<path class="st0" d="M77.3,285.8c-2.2,0-4-1.8-4-4v-81c0-2.2,1.8-4,4-4h37.4c2.2,0,4,1.8,4,4v81c0,2.2-1.8,4-4,4H77.3z"/>
			<path class="st0" d="M114.6,200.8v81H77.3v-81H114.6 M114.6,192.8H77.3c-4.4,0-8,3.6-8,8v81c0,4.4,3.6,8,8,8h37.4
				c4.4,0,8-3.6,8-8v-81C122.6,196.4,119.1,192.8,114.6,192.8L114.6,192.8z"/>
		</g>
		<g>
			<path class="st0" d="M329.1,285.8c-2.2,0-4-1.8-4-4v-81c0-2.2,1.8-4,4-4h37.4c2.2,0,4,1.8,4,4v81c0,2.2-1.8,4-4,4H329.1z"/>
			<path class="st0" d="M366.4,200.8v81h-37.4v-81H366.4 M366.4,192.8h-37.4c-4.4,0-8,3.6-8,8v81c0,4.4,3.6,8,8,8h37.4
				c4.4,0,8-3.6,8-8v-81C374.4,196.4,370.9,192.8,366.4,192.8L366.4,192.8z"/>
		</g>
		<g>
			<path class="st0" d="M35.3,285.8c-2.2,0-4-1.8-4-4v-81c0-2.2,1.8-4,4-4h37.4c2.2,0,4,1.8,4,4v81c0,2.2-1.8,4-4,4H35.3z"/>
			<path class="st0" d="M72.7,200.8v81H35.3v-81H72.7 M72.7,192.8H35.3c-4.4,0-8,3.6-8,8v81c0,4.4,3.6,8,8,8h37.4c4.4,0,8-3.6,8-8
				v-81C80.7,196.4,77.1,192.8,72.7,192.8L72.7,192.8z"/>
		</g>
		<g>
			<path class="st0" d="M161.2,242.2c-2.2,0-4-1.8-4-4v-37.4c0-2.2,1.8-4,4-4h37.4c2.2,0,4,1.8,4,4v37.4c0,2.2-1.8,4-4,4H161.2z"/>
			<path class="st0" d="M198.6,200.8v37.4h-37.4v-37.4H198.6 M198.6,192.8h-37.4c-4.4,0-8,3.6-8,8v37.4c0,4.4,3.6,8,8,8h37.4
				c4.4,0,8-3.6,8-8v-37.4C206.6,196.4,203,192.8,198.6,192.8L198.6,192.8z"/>
		</g>
		<g>
			<path class="st0" d="M119.2,242.2c-2.2,0-4-1.8-4-4v-37.4c0-2.2,1.8-4,4-4h37.4c2.2,0,4,1.8,4,4v37.4c0,2.2-1.8,4-4,4H119.2z"/>
			<path class="st0" d="M156.6,200.8v37.4h-37.4v-37.4H156.6 M156.6,192.8h-37.4c-4.4,0-8,3.6-8,8v37.4c0,4.4,3.6,8,8,8h37.4
				c4.4,0,8-3.6,8-8v-37.4C164.6,196.4,161,192.8,156.6,192.8L156.6,192.8z"/>
		</g>
		<g>
			<path class="st0" d="M245.1,242.2c-2.2,0-4-1.8-4-4v-37.4c0-2.2,1.8-4,4-4h37.4c2.2,0,4,1.8,4,4v37.4c0,2.2-1.8,4-4,4H245.1z"/>
			<path class="st0" d="M282.5,200.8v37.4h-37.4v-37.4H282.5 M282.5,192.8h-37.4c-4.4,0-8,3.6-8,8v37.4c0,4.4,3.6,8,8,8h37.4
				c4.4,0,8-3.6,8-8v-37.4C290.5,196.4,286.9,192.8,282.5,192.8L282.5,192.8z"/>
		</g>
		<g>
			<path class="st0" d="M221.9,242.1c-12.5,0-22.6-10.1-22.6-22.6c0-12.5,10.1-22.6,22.6-22.6c12.5,0,22.6,10.1,22.6,22.6
				C244.5,232,234.3,242.1,221.9,242.1z"/>
			<path class="st0" d="M221.9,200.9c10.3,0,18.6,8.3,18.6,18.6s-8.3,18.6-18.6,18.6c-10.3,0-18.6-8.3-18.6-18.6
				S211.6,200.9,221.9,200.9 M221.9,192.9c-14.7,0-26.6,11.9-26.6,26.6s11.9,26.6,26.6,26.6c14.7,0,26.6-11.9,26.6-26.6
				S236.5,192.9,221.9,192.9L221.9,192.9z"/>
		</g>
		<g>
			<path class="st0" d="M305.8,242.1c-12.5,0-22.6-10.1-22.6-22.6c0-12.5,10.1-22.6,22.6-22.6c12.5,0,22.6,10.1,22.6,22.6
				C328.4,232,318.3,242.1,305.8,242.1z"/>
			<path class="st0" d="M305.8,200.9c10.3,0,18.6,8.3,18.6,18.6s-8.3,18.6-18.6,18.6s-18.6-8.3-18.6-18.6S295.5,200.9,305.8,200.9
				 M305.8,192.9c-14.7,0-26.6,11.9-26.6,26.6s11.9,26.6,26.6,26.6s26.6-11.9,26.6-26.6S320.5,192.9,305.8,192.9L305.8,192.9z"/>
		</g>
		<g>
			<path class="st0" d="M245.1,285.8c-2.2,0-4-1.8-4-4v-37.4c0-2.2,1.8-4,4-4h37.4c2.2,0,4,1.8,4,4v37.4c0,2.2-1.8,4-4,4H245.1z"/>
			<path class="st0" d="M282.5,244.4v37.4h-37.4v-37.4H282.5 M282.5,236.4h-37.4c-4.4,0-8,3.6-8,8v37.4c0,4.4,3.6,8,8,8h37.4
				c4.4,0,8-3.6,8-8v-37.4C290.5,240,286.9,236.4,282.5,236.4L282.5,236.4z"/>
		</g>
		<g>
			<path class="st0" d="M287.1,285.8c-2.2,0-4-1.8-4-4v-37.4c0-2.2,1.8-4,4-4h37.4c2.2,0,4,1.8,4,4v37.4c0,2.2-1.8,4-4,4H287.1z"/>
			<path class="st0" d="M324.5,244.4v37.4h-37.4v-37.4H324.5 M324.5,236.4h-37.4c-4.4,0-8,3.6-8,8v37.4c0,4.4,3.6,8,8,8h37.4
				c4.4,0,8-3.6,8-8v-37.4C332.5,240,328.9,236.4,324.5,236.4L324.5,236.4z"/>
		</g>
		<g>
			<path class="st0" d="M161.2,285.8c-2.2,0-4-1.8-4-4v-37.4c0-2.2,1.8-4,4-4h37.4c2.2,0,4,1.8,4,4v37.4c0,2.2-1.8,4-4,4H161.2z"/>
			<path class="st0" d="M198.6,244.4v37.4h-37.4v-37.4H198.6 M198.6,236.4h-37.4c-4.4,0-8,3.6-8,8v37.4c0,4.4,3.6,8,8,8h37.4
				c4.4,0,8-3.6,8-8v-37.4C206.6,240,203,236.4,198.6,236.4L198.6,236.4z"/>
		</g>
		<g>
			<path class="st0" d="M221.9,285.7c-12.5,0-22.6-10.1-22.6-22.6c0-12.5,10.1-22.6,22.6-22.6c12.5,0,22.6,10.1,22.6,22.6
				C244.5,275.5,234.3,285.7,221.9,285.7z"/>
			<path class="st0" d="M221.9,244.5c10.3,0,18.6,8.3,18.6,18.6c0,10.3-8.3,18.6-18.6,18.6c-10.3,0-18.6-8.3-18.6-18.6
				C203.3,252.8,211.6,244.5,221.9,244.5 M221.9,236.5c-14.7,0-26.6,11.9-26.6,26.6c0,14.7,11.9,26.6,26.6,26.6
				c14.7,0,26.6-11.9,26.6-26.6C248.5,248.4,236.5,236.5,221.9,236.5L221.9,236.5z"/>
		</g>
		<g>
			<path class="st0" d="M137.9,285.7c-12.5,0-22.6-10.1-22.6-22.6c0-12.5,10.1-22.6,22.6-22.6c12.5,0,22.6,10.1,22.6,22.6
				C160.5,275.5,150.4,285.7,137.9,285.7z"/>
			<path class="st0" d="M137.9,244.5c10.3,0,18.6,8.3,18.6,18.6c0,10.3-8.3,18.6-18.6,18.6s-18.6-8.3-18.6-18.6
				C119.3,252.8,127.6,244.5,137.9,244.5 M137.9,236.5c-14.7,0-26.6,11.9-26.6,26.6c0,14.7,11.9,26.6,26.6,26.6s26.6-11.9,26.6-26.6
				C164.5,248.4,152.6,236.5,137.9,236.5L137.9,236.5z"/>
		</g>
	</g>
</g>
<g>
	<g>
		<g>
			<rect x="77.3" y="33" class="st1" width="37.4" height="81"/>
		</g>
		<g>
			<rect x="329.1" y="33" class="st2" width="37.4" height="81"/>
		</g>
		<g>
			<rect x="35.3" y="33" class="st2" width="37.4" height="81"/>
		</g>
		<g>
			<rect x="161.2" y="33" class="st3" width="37.4" height="37.4"/>
		</g>
		<g>
			<rect x="119.2" y="33" class="st3" width="37.4" height="37.4"/>
		</g>
		<g>
			<rect x="245.1" y="33" class="st2" width="37.4" height="37.4"/>
		</g>
		<g>
			<circle class="st4" cx="221.9" cy="51.7" r="18.6"/>
		</g>
		<g>
			<circle class="st4" cx="305.8" cy="51.7" r="18.6"/>
		</g>
		<g>
			<rect x="245.1" y="76.6" class="st2" width="37.4" height="37.4"/>
		</g>
		<g>
			<rect x="287.1" y="76.6" class="st3" width="37.4" height="37.4"/>
		</g>
		<g>
			<rect x="161.2" y="76.6" class="st1" width="37.4" height="37.4"/>
		</g>
		<g>
			<circle class="st4" cx="221.9" cy="95.3" r="18.6"/>
		</g>
		<g>
			<circle class="st4" cx="137.9" cy="95.3" r="18.6"/>
		</g>
		<g>
			<rect x="77.3" y="286" class="st1" width="37.4" height="81"/>
		</g>
		<g>
			<rect x="329.1" y="286" class="st2" width="37.4" height="81"/>
		</g>
		<g>
			<rect x="35.3" y="286" class="st2" width="37.4" height="81"/>
		</g>
		<g>
			<rect x="161.2" y="286" class="st3" width="37.4" height="37.4"/>
		</g>
		<g>
			<rect x="119.2" y="286" class="st3" width="37.4" height="37.4"/>
		</g>
		<g>
			<rect x="245.1" y="286" class="st2" width="37.4" height="37.4"/>
		</g>
		<g>
			<circle class="st4" cx="221.9" cy="304.7" r="18.6"/>
		</g>
		<g>
			<circle class="st4" cx="305.8" cy="304.7" r="18.6"/>
		</g>
		<g>
			<rect x="245.1" y="329.6" class="st2" width="37.4" height="37.4"/>
		</g>
		<g>
			<rect x="287.1" y="329.6" class="st3" width="37.4" height="37.4"/>
		</g>
		<g>
			<rect x="161.2" y="329.6" class="st1" width="37.4" height="37.4"/>
		</g>
		<g>
			<circle class="st4" cx="221.9" cy="348.3" r="18.6"/>
		</g>
		<g>
			<circle class="st4" cx="137.9" cy="348.3" r="18.6"/>
		</g>
		<g>
			<rect x="329.1" y="117.1" class="st1" width="37.4" height="81"/>
		</g>
		<g>
			<rect x="245.1" y="117.1" class="st1" width="37.4" height="81"/>
		</g>
		<g>
			<rect x="287.1" y="117.1" class="st2" width="37.4" height="81"/>
		</g>
		<g>
			<rect x="77.3" y="117.1" class="st3" width="37.4" height="37.4"/>
		</g>
		<g>
			<rect x="35.3" y="117.1" class="st1" width="37.4" height="37.4"/>
		</g>
		<g>
			<rect x="161.2" y="117.1" class="st2" width="37.4" height="37.4"/>
		</g>
		<g>
			<circle class="st4" cx="137.9" cy="135.7" r="18.6"/>
		</g>
		<g>
			<circle class="st4" cx="221.9" cy="135.7" r="18.6"/>
		</g>
		<g>
			<rect x="160.9" y="158.6" class="st3" width="37.4" height="37.4"/>
		</g>
		<g>
			<rect x="202.9" y="158.6" class="st3" width="37.4" height="37.4"/>
		</g>
		<g>
			<rect x="76.9" y="158.6" class="st1" width="37.4" height="37.4"/>
		</g>
		<g>
			<circle class="st4" cx="137.6" cy="177.3" r="18.6"/>
		</g>
		<g>
			<circle class="st4" cx="53.7" cy="177.3" r="18.6"/>
		</g>
		<g>
			<rect x="77.3" y="200.8" class="st1" width="37.4" height="81"/>
		</g>
		<g>
			<rect x="329.1" y="200.8" class="st2" width="37.4" height="81"/>
		</g>
		<g>
			<rect x="35.3" y="200.8" class="st2" width="37.4" height="81"/>
		</g>
		<g>
			<rect x="161.2" y="200.8" class="st3" width="37.4" height="37.4"/>
		</g>
		<g>
			<rect x="119.2" y="200.8" class="st3" width="37.4" height="37.4"/>
		</g>
		<g>
			<rect x="245.1" y="200.8" class="st1" width="37.4" height="37.4"/>
		</g>
		<g>
			<circle class="st4" cx="221.9" cy="219.5" r="18.6"/>
		</g>
		<g>
			<circle class="st4" cx="305.8" cy="219.5" r="18.6"/>
		</g>
		<g>
			<rect x="245.1" y="244.4" class="st3" width="37.4" height="37.4"/>
		</g>
		<g>
			<rect x="287.1" y="244.4" class="st3" width="37.4" height="37.4"/>
		</g>
		<g>
			<rect x="161.2" y="244.4" class="st2" width="37.4" height="37.4"/>
		</g>
		<g>
			<circle class="st4" cx="221.9" cy="263.1" r="18.6"/>
		</g>
		<g>
			<circle class="st4" cx="137.9" cy="263.1" r="18.6"/>
		</g>
	</g>
</g>
</svg>
