<?xml version="1.0" encoding="utf-8"?>
<!-- Generator: Adobe Illustrator 22.0.1, SVG Export Plug-In . SVG Version: 6.00 Build 0)  -->
<svg version="1.1" id="Layer_1" xmlns="http://www.w3.org/2000/svg" xmlns:xlink="http://www.w3.org/1999/xlink" x="0px" y="0px"
	 viewBox="0 0 400 400" style="enable-background:new 0 0 400 400;" xml:space="preserve">
<style type="text/css">
	.st0{fill:none;stroke:#490A3D;stroke-width:0.6;stroke-miterlimit:10;}
	.st1{fill:#F24044;}
	.st2{fill:#B3040F;}
	.st3{fill:#490A3D;}
	.st4{fill:#2F0026;}
	.st5{fill:#00CDC8;}
	.st6{fill:#1CA49D;}
	.st7{fill:#FADC3C;}
	.st8{fill:#E7C42A;}
</style>
<g>
	<g>
		<g>
			<line class="st0" x1="331.5" y1="192.5" x2="196.7" y2="335.8"/>
			<line class="st0" x1="75.8" y1="146.7" x2="196.7" y2="335.8"/>
			<line class="st0" x1="106.2" y1="107.3" x2="196.7" y2="335.8"/>
			<line class="st0" x1="146" y1="146.7" x2="196.7" y2="335.8"/>
			<line class="st0" x1="180.5" y1="131.8" x2="196.7" y2="335.8"/>
			<line class="st0" x1="223.1" y1="148.3" x2="196.7" y2="335.8"/>
			<line class="st0" x1="256.6" y1="131.8" x2="196.7" y2="335.8"/>
			<line class="st0" x1="297" y1="136.2" x2="196.7" y2="335.8"/>
			<line class="st0" x1="327.5" y1="130.1" x2="196.7" y2="335.8"/>
			<line class="st0" x1="75.2" y1="225.6" x2="196.7" y2="335.8"/>
			<line class="st0" x1="144.8" y1="223.4" x2="196.7" y2="335.8"/>
			<line class="st0" x1="70.1" y1="136" x2="196.7" y2="335.8"/>
			<line class="st0" x1="180.5" y1="197.4" x2="196.7" y2="335.8"/>
			<line class="st0" x1="220.8" y1="219.2" x2="196.7" y2="335.8"/>
			<line class="st0" x1="257.3" y1="192.5" x2="196.7" y2="335.8"/>
			<line class="st0" x1="291.7" y1="220.8" x2="196.7" y2="335.8"/>
			<line class="st0" x1="196.7" y1="335.8" x2="196.7" y2="382.4"/>
		</g>
	</g>
	<g>
		<g>
			<path class="st1" d="M258.6,109l-1.3,0.1c-0.2,0-0.5,0-0.7,0c-10.7,0-19-13-23-20.7c-5.8-11.3-9.8-25.2-9.8-34.7
				c0-18.1,14.7-32.8,32.8-32.8s32.8,14.7,32.8,32.8c0,8.8-3.4,21.6-8.7,32.5c-6.1,12.7-13.5,20.7-20.9,22.5l-1.1,0.3l2.9,5.3
				l-5,0.5L258.6,109z"/>
			<path class="st2" d="M256.5,21.8c17.6,0,31.9,14.3,31.9,31.9c0,17.7-13.5,50.3-28.9,54.1l-1.2,0.3l-1.2,0.1c-0.2,0-0.5,0-0.7,0
				c-17.2,0-31.9-36.6-31.9-54.5C224.6,36.1,238.9,21.8,256.5,21.8 M258.8,111l1.4,2.5l-2.3,0.2L258.8,111 M256.5,20
				c-18.6,0-33.7,15.1-33.7,33.7c0,18.6,15.1,56.3,33.7,56.3c0.3,0,0.5,0,0.8,0l-1.9,5.8l7.7-0.7l-3-5.5c17-4.2,30.2-38.4,30.2-55.9
				C290.2,35.1,275.1,20,256.5,20L256.5,20z"/>
		</g>
	</g>
	<g>
		<g>
			<path class="st3" d="M110.1,109l-1.3,0.1c-0.2,0-0.5,0-0.7,0c-10.7,0-19-13-23-20.7c-5.8-11.3-9.8-25.2-9.8-34.7
				c0-18.1,14.7-32.8,32.8-32.8s32.8,14.7,32.8,32.8c0,8.8-3.4,21.6-8.7,32.5c-6.1,12.7-13.5,20.7-20.9,22.5l-1.1,0.3l2.9,5.3
				l-5,0.5L110.1,109z"/>
			<g>
				<path class="st4" d="M108.1,21.8c17.6,0,31.9,14.3,31.9,31.9c0,17.7-13.5,50.3-28.9,54.1l-1.2,0.3l-1.2,0.1c-0.2,0-0.5,0-0.7,0
					c-17.2,0-31.9-36.6-31.9-54.5C76.2,36.1,90.5,21.8,108.1,21.8 M110.4,111l1.4,2.5l-2.3,0.2L110.4,111 M108.1,20
					c-18.6,0-33.7,15.1-33.7,33.7c0,18.6,15.1,56.3,33.7,56.3c0.3,0,0.5,0,0.8,0l-1.9,5.8l7.7-0.7l-3-5.5
					c17-4.2,30.2-38.4,30.2-55.9C141.8,35.1,126.7,20,108.1,20L108.1,20z"/>
			</g>
		</g>
	</g>
	<g>
		<g>
			<path class="st3" d="M328.9,109.5l-1.3,0.1c-0.2,0-0.5,0-0.7,0c-10.7,0-19-13-23-20.7C298,77.6,294,63.7,294,54.2
				c0-18.1,14.7-32.8,32.8-32.8s32.8,14.7,32.8,32.8c0,8.8-3.4,21.6-8.7,32.5c-6.1,12.7-13.5,20.7-20.9,22.5l-1.1,0.3l2.9,5.3
				l-5,0.5L328.9,109.5z"/>
			<g>
				<path class="st4" d="M326.8,22.2c17.6,0,31.9,14.3,31.9,31.9c0,17.7-13.5,50.3-28.9,54.1l-1.2,0.3l-1.2,0.1c-0.2,0-0.5,0-0.7,0
					c-17.2,0-31.9-36.6-31.9-54.5C294.9,36.6,309.2,22.2,326.8,22.2 M329.1,111.5l1.4,2.5l-2.3,0.2L329.1,111.5 M326.8,20.5
					c-18.6,0-33.7,15.1-33.7,33.7c0,18.6,15.1,56.3,33.7,56.3c0.3,0,0.5,0,0.8,0l-1.9,5.8l7.7-0.7l-3-5.5
					c17-4.2,30.2-38.4,30.2-55.9C360.5,35.6,345.4,20.5,326.8,20.5L326.8,20.5z"/>
			</g>
		</g>
	</g>
	<g>
		<g>
			<path class="st5" d="M297.6,139l-1.3,0.1c-0.2,0-0.5,0-0.7,0c-10.7,0-19-13-23-20.7c-5.8-11.3-9.8-25.2-9.8-34.7
				c0-18.1,14.7-32.8,32.8-32.8s32.8,14.7,32.8,32.8c0,8.8-3.4,21.6-8.7,32.5c-6.1,12.7-13.5,20.7-20.9,22.5l-1.1,0.3l2.9,5.3
				l-5,0.5L297.6,139z"/>
			<path class="st6" d="M295.6,51.8c17.6,0,31.9,14.3,31.9,31.9c0,17.7-13.5,50.3-28.9,54.1l-1.2,0.3l-1.2,0.1c-0.2,0-0.5,0-0.7,0
				c-17.2,0-31.9-36.6-31.9-54.5C263.6,66.1,277.9,51.8,295.6,51.8 M297.8,141l1.4,2.5l-2.3,0.2L297.8,141 M295.6,50
				c-18.6,0-33.7,15.1-33.7,33.7c0,18.6,15.1,56.3,33.7,56.3c0.3,0,0.5,0,0.8,0l-1.9,5.8l7.7-0.7l-3-5.5c17-4.2,30.2-38.4,30.2-55.9
				C329.2,65.1,314.2,50,295.6,50L295.6,50z"/>
		</g>
	</g>
	<g>
		<g>
			<path class="st5" d="M179.7,109.5l-1.3,0.1c-0.2,0-0.5,0-0.7,0c-10.7,0-19-13-23-20.7c-5.8-11.3-9.8-25.2-9.8-34.7
				c0-18.1,14.7-32.8,32.8-32.8s32.8,14.7,32.8,32.8c0,8.8-3.4,21.6-8.7,32.5c-6.1,12.7-13.5,20.7-20.9,22.5l-1.1,0.3l2.9,5.3
				l-5,0.5L179.7,109.5z"/>
			<path class="st6" d="M177.7,22.2c17.6,0,31.9,14.3,31.9,31.9c0,17.7-13.5,50.3-28.9,54.1l-1.2,0.3l-1.2,0.1c-0.2,0-0.5,0-0.7,0
				c-17.2,0-31.9-36.6-31.9-54.5C145.7,36.6,160.1,22.2,177.7,22.2 M179.9,111.5l1.4,2.5l-2.3,0.2L179.9,111.5 M177.7,20.5
				c-18.6,0-33.7,15.1-33.7,33.7c0,18.6,15.1,56.3,33.7,56.3c0.3,0,0.5,0,0.8,0l-1.9,5.8l7.7-0.7l-3-5.5c17-4.2,30.2-38.4,30.2-55.9
				C211.4,35.6,196.3,20.5,177.7,20.5L177.7,20.5z"/>
		</g>
	</g>
	<g>
		<g>
			<path class="st1" d="M146,135.1l-1.3,0.1c-0.2,0-0.5,0-0.7,0c-10.7,0-19-13-23-20.7c-5.8-11.3-9.8-25.2-9.8-34.7
				c0-18.1,14.7-32.8,32.8-32.8s32.8,14.7,32.8,32.8c0,8.8-3.4,21.6-8.7,32.5c-6.1,12.7-13.5,20.7-20.9,22.5l-1.1,0.3l2.9,5.3
				l-5,0.5L146,135.1z"/>
			<path class="st2" d="M144,47.8c17.6,0,31.9,14.3,31.9,31.9c0,17.7-13.5,50.3-28.9,54.1l-1.2,0.3l-1.2,0.1c-0.2,0-0.5,0-0.7,0
				c-17.2,0-31.9-36.6-31.9-54.5C112.1,62.1,126.4,47.8,144,47.8 M146.3,137.1l1.4,2.5l-2.3,0.2L146.3,137.1 M144,46.1
				c-18.6,0-33.7,15.1-33.7,33.7S125.4,136,144,136c0.3,0,0.5,0,0.8,0l-1.9,5.8l7.7-0.7l-3-5.5c17-4.2,30.2-38.4,30.2-55.9
				C177.7,61.2,162.6,46.1,144,46.1L144,46.1z"/>
		</g>
	</g>
	<g>
		<g>
			<path class="st3" d="M217.9,135.1l-1.3,0.1c-0.2,0-0.5,0-0.7,0c-10.7,0-19-13-23-20.7c-5.8-11.3-9.8-25.2-9.8-34.7
				c0-18.1,14.7-32.8,32.8-32.8s32.8,14.7,32.8,32.8c0,8.8-3.4,21.6-8.7,32.5c-6.1,12.7-13.5,20.7-20.9,22.5l-1.1,0.3l2.9,5.3
				l-5,0.5L217.9,135.1z"/>
			<g>
				<path class="st4" d="M215.9,47.8c17.6,0,31.9,14.3,31.9,31.9c0,17.7-13.5,50.3-28.9,54.1l-1.2,0.3l-1.2,0.1c-0.2,0-0.5,0-0.7,0
					c-17.2,0-31.9-36.6-31.9-54.5C184,62.1,198.3,47.8,215.9,47.8 M218.2,137.1l1.4,2.5l-2.3,0.2L218.2,137.1 M215.9,46.1
					c-18.6,0-33.7,15.1-33.7,33.7s15.1,56.3,33.7,56.3c0.3,0,0.5,0,0.8,0l-1.9,5.8l7.7-0.7l-3-5.5c17-4.2,30.2-38.4,30.2-55.9
					C249.6,61.2,234.5,46.1,215.9,46.1L215.9,46.1z"/>
			</g>
		</g>
	</g>
	<g>
		<g>
			<path class="st7" d="M71.3,135.1l-1.3,0.1c-0.2,0-0.5,0-0.7,0c-10.7,0-19-13-23-20.7c-5.8-11.3-9.8-25.2-9.8-34.7
				c0-18.1,14.7-32.8,32.8-32.8s32.8,14.7,32.8,32.8c0,8.8-3.4,21.6-8.7,32.5c-6.1,12.7-13.5,20.7-20.9,22.5l-1.1,0.3l2.9,5.3
				l-5,0.5L71.3,135.1z"/>
			<path class="st8" d="M69.3,47.8c17.6,0,31.9,14.3,31.9,31.9c0,17.7-13.5,50.3-28.9,54.1l-1.2,0.3l-1.2,0.1c-0.2,0-0.5,0-0.7,0
				c-17.2,0-31.9-36.6-31.9-54.5C37.4,62.1,51.7,47.8,69.3,47.8 M71.6,137.1l1.4,2.5l-2.3,0.2L71.6,137.1 M69.3,46.1
				c-18.6,0-33.7,15.1-33.7,33.7S50.7,136,69.3,136c0.3,0,0.5,0,0.8,0l-1.9,5.8l7.7-0.7l-3-5.5c17-4.2,30.2-38.4,30.2-55.9
				C103,61.2,87.9,46.1,69.3,46.1L69.3,46.1z"/>
		</g>
	</g>
	<g>
		<g>
			<path class="st1" d="M332.7,191.5l-1.3,0.1c-0.2,0-0.5,0-0.7,0c-10.7,0-19-13-23-20.7c-5.8-11.3-9.8-25.2-9.8-34.7
				c0-18.1,14.7-32.8,32.8-32.8s32.8,14.7,32.8,32.8c0,8.8-3.4,21.6-8.7,32.5c-6.1,12.7-13.5,20.7-20.9,22.5l-1.1,0.3l2.9,5.3
				l-5,0.5L332.7,191.5z"/>
			<path class="st2" d="M330.7,104.3c17.6,0,31.9,14.3,31.9,31.9c0,17.7-13.5,50.3-28.9,54.1l-1.2,0.3l-1.2,0.1c-0.2,0-0.5,0-0.7,0
				c-17.2,0-31.9-36.6-31.9-54.5C298.8,118.6,313.1,104.3,330.7,104.3 M333,193.5l1.4,2.5l-2.3,0.2L333,193.5 M330.7,102.5
				c-18.6,0-33.7,15.1-33.7,33.7s15.1,56.3,33.7,56.3c0.3,0,0.5,0,0.8,0l-1.9,5.8l7.7-0.7l-3-5.5c17-4.2,30.2-38.4,30.2-55.9
				C364.4,117.6,349.3,102.5,330.7,102.5L330.7,102.5z"/>
		</g>
	</g>
	<g>
		<g>
			<path class="st7" d="M258.6,191.5l-1.3,0.1c-0.2,0-0.5,0-0.7,0c-10.7,0-19-13-23-20.7c-5.8-11.3-9.8-25.2-9.8-34.7
				c0-18.1,14.7-32.8,32.8-32.8s32.8,14.7,32.8,32.8c0,8.8-3.4,21.6-8.7,32.5c-6.1,12.7-13.5,20.7-20.9,22.5l-1.1,0.3l2.9,5.3
				l-5,0.5L258.6,191.5z"/>
			<path class="st8" d="M256.5,104.3c17.6,0,31.9,14.3,31.9,31.9c0,17.7-13.5,50.3-28.9,54.1l-1.2,0.3l-1.2,0.1c-0.2,0-0.5,0-0.7,0
				c-17.2,0-31.9-36.6-31.9-54.5C224.6,118.6,238.9,104.3,256.5,104.3 M258.8,193.5l1.4,2.5l-2.3,0.2L258.8,193.5 M256.5,102.5
				c-18.6,0-33.7,15.1-33.7,33.7s15.1,56.3,33.7,56.3c0.3,0,0.5,0,0.8,0l-1.9,5.8l7.7-0.7l-3-5.5c17-4.2,30.2-38.4,30.2-55.9
				C290.2,117.6,275.1,102.5,256.5,102.5L256.5,102.5z"/>
		</g>
	</g>
	<g>
		<g>
			<path class="st7" d="M181,196.3l-1.3,0.1c-0.2,0-0.5,0-0.7,0c-10.7,0-19-13-23-20.7c-5.8-11.3-9.8-25.2-9.8-34.7
				c0-18.1,14.7-32.8,32.8-32.8s32.8,14.7,32.8,32.8c0,8.8-3.4,21.6-8.7,32.5c-6.1,12.7-13.5,20.7-20.9,22.5l-1.1,0.3l2.9,5.3
				l-5,0.5L181,196.3z"/>
			<path class="st8" d="M179,109.1c17.6,0,31.9,14.3,31.9,31.9c0,17.7-13.5,50.3-28.9,54.1l-1.2,0.3l-1.2,0.1c-0.2,0-0.5,0-0.7,0
				c-17.2,0-31.9-36.6-31.9-54.5C147.1,123.4,161.4,109.1,179,109.1 M181.3,198.3l1.4,2.5l-2.3,0.2L181.3,198.3 M179,107.3
				c-18.6,0-33.7,15.1-33.7,33.7s15.1,56.3,33.7,56.3c0.3,0,0.5,0,0.8,0l-1.9,5.8l7.7-0.7l-3-5.5c17-4.2,30.2-38.4,30.2-55.9
				C212.7,122.4,197.6,107.3,179,107.3L179,107.3z"/>
		</g>
	</g>
	<g>
		<g>
			<path class="st5" d="M110.1,197.2l-1.3,0.1c-0.2,0-0.5,0-0.7,0c-10.7,0-19-13-23-20.7c-5.8-11.3-9.8-25.2-9.8-34.7
				c0-18.1,14.7-32.8,32.8-32.8s32.8,14.7,32.8,32.8c0,8.8-3.4,21.6-8.7,32.5c-6.1,12.7-13.5,20.7-20.9,22.5l-1.1,0.3l2.9,5.3
				l-5,0.5L110.1,197.2z"/>
			<path class="st6" d="M108.1,109.9c17.6,0,31.9,14.3,31.9,31.9c0,17.7-13.5,50.3-28.9,54.1l-1.2,0.3l-1.2,0.1c-0.2,0-0.5,0-0.7,0
				c-17.2,0-31.9-36.6-31.9-54.5C76.2,124.3,90.5,109.9,108.1,109.9 M110.4,199.2l1.4,2.5l-2.3,0.2L110.4,199.2 M108.1,108.2
				c-18.6,0-33.7,15.1-33.7,33.7c0,18.6,15.1,56.3,33.7,56.3c0.3,0,0.5,0,0.8,0l-1.9,5.8l7.7-0.7l-3-5.5c17-4.2,30.2-38.4,30.2-55.9
				C141.8,123.3,126.7,108.2,108.1,108.2L108.1,108.2z"/>
		</g>
	</g>
	<g>
		<g>
			<path class="st3" d="M76.4,224.7l-1.3,0.1c-0.2,0-0.5,0-0.7,0c-10.7,0-19-13-23-20.7c-5.8-11.3-9.8-25.2-9.8-34.7
				c0-18.1,14.7-32.8,32.8-32.8s32.8,14.7,32.8,32.8c0,8.8-3.4,21.6-8.7,32.5c-6.1,12.7-13.5,20.7-20.9,22.5l-1.1,0.3l2.9,5.3
				l-5,0.5L76.4,224.7z"/>
			<path class="st4" d="M74.4,137.4c17.6,0,31.9,14.3,31.9,31.9c0,17.7-13.5,50.3-28.9,54.1l-1.2,0.3l-1.2,0.1c-0.2,0-0.5,0-0.7,0
				c-17.2,0-31.9-36.6-31.9-54.5C42.5,151.8,56.8,137.4,74.4,137.4 M76.7,226.7l1.4,2.5l-2.3,0.2L76.7,226.7 M74.4,135.7
				c-18.6,0-33.7,15.1-33.7,33.7s15.1,56.3,33.7,56.3c0.3,0,0.5,0,0.8,0l-1.9,5.8l7.7-0.7l-3-5.5c17-4.2,30.2-38.4,30.2-55.9
				C108.1,150.8,93,135.7,74.4,135.7L74.4,135.7z"/>
		</g>
	</g>
	<g>
		<g>
			<path class="st1" d="M146,222.5l-1.3,0.1c-0.2,0-0.5,0-0.7,0c-10.7,0-19-13-23-20.7c-5.8-11.3-9.8-25.2-9.8-34.7
				c0-18.1,14.7-32.8,32.8-32.8s32.8,14.7,32.8,32.8c0,8.8-3.4,21.6-8.7,32.5c-6.1,12.7-13.5,20.7-20.9,22.5l-1.1,0.3l2.9,5.3
				l-5,0.5L146,222.5z"/>
			<path class="st2" d="M144,135.2c17.6,0,31.9,14.3,31.9,31.9c0,17.7-13.5,50.3-28.9,54.1l-1.2,0.3l-1.2,0.1c-0.2,0-0.5,0-0.7,0
				c-17.2,0-31.9-36.6-31.9-54.5C112.1,149.6,126.4,135.2,144,135.2 M146.3,224.5l1.4,2.5l-2.3,0.2L146.3,224.5 M144,133.5
				c-18.6,0-33.7,15.1-33.7,33.7s15.1,56.3,33.7,56.3c0.3,0,0.5,0,0.8,0l-1.9,5.8l7.7-0.7l-3-5.5c17-4.2,30.2-38.4,30.2-55.9
				C177.7,148.6,162.6,133.5,144,133.5L144,133.5z"/>
		</g>
	</g>
	<g>
		<g>
			<path class="st5" d="M290.2,220.3l-1.3,0.1c-0.2,0-0.5,0-0.7,0c-10.7,0-19-13-23-20.7c-5.8-11.3-9.8-25.2-9.8-34.7
				c0-18.1,14.7-32.8,32.8-32.8S321,146.9,321,165c0,8.8-3.4,21.6-8.7,32.5c-6.1,12.7-13.5,20.7-20.9,22.5l-1.1,0.3l2.9,5.3l-5,0.5
				L290.2,220.3z"/>
			<path class="st6" d="M288.2,133c17.6,0,31.9,14.3,31.9,31.9c0,17.7-13.5,50.3-28.9,54.1l-1.2,0.3l-1.2,0.1c-0.2,0-0.5,0-0.7,0
				c-17.2,0-31.9-36.6-31.9-54.5C256.3,147.4,270.6,133,288.2,133 M290.5,222.3l1.4,2.5l-2.3,0.2L290.5,222.3 M288.2,131.3
				c-18.6,0-33.7,15.1-33.7,33.7s15.1,56.3,33.7,56.3c0.3,0,0.5,0,0.8,0L287,227l7.7-0.7l-3-5.5c17-4.2,30.2-38.4,30.2-55.9
				C321.9,146.4,306.8,131.3,288.2,131.3L288.2,131.3z"/>
		</g>
	</g>
	<g>
		<g>
			<path class="st5" d="M222.4,220.3l-1.3,0.1c-0.2,0-0.5,0-0.7,0c-10.7,0-19-13-23-20.7c-5.8-11.3-9.8-25.2-9.8-34.7
				c0-18.1,14.7-32.8,32.8-32.8s32.8,14.7,32.8,32.8c0,8.8-3.4,21.6-8.7,32.5c-6.1,12.7-13.5,20.7-20.9,22.5l-1.1,0.3l2.9,5.3
				l-5,0.5L222.4,220.3z"/>
			<path class="st6" d="M220.4,133c17.6,0,31.9,14.3,31.9,31.9c0,17.7-13.5,50.3-28.9,54.1l-1.2,0.3l-1.2,0.1c-0.2,0-0.5,0-0.7,0
				c-17.2,0-31.9-36.6-31.9-54.5C188.4,147.4,202.8,133,220.4,133 M222.6,222.3l1.4,2.5l-2.3,0.2L222.6,222.3 M220.4,131.3
				c-18.6,0-33.7,15.1-33.7,33.7s15.1,56.3,33.7,56.3c0.3,0,0.5,0,0.8,0l-1.9,5.8l7.7-0.7l-3-5.5c17-4.2,30.2-38.4,30.2-55.9
				C254,146.4,239,131.3,220.4,131.3L220.4,131.3z"/>
		</g>
	</g>
</g>
</svg>
