<?xml version="1.0" encoding="utf-8"?>
<!-- Generator: Adobe Illustrator 22.0.1, SVG Export Plug-In . SVG Version: 6.00 Build 0)  -->
<svg version="1.1" id="Layer_1" xmlns="http://www.w3.org/2000/svg" xmlns:xlink="http://www.w3.org/1999/xlink" x="0px" y="0px"
	 viewBox="0 0 400 400" style="enable-background:new 0 0 400 400;" xml:space="preserve">
<style type="text/css">
	.st0{fill:#FEE467;}
	.st1{fill:none;stroke:#B0941D;stroke-width:1.9377;stroke-linejoin:round;}
	.st2{fill:#E7C42A;}
	.st3{fill:#FADC3C;}
	.st4{fill:#FC6A6C;}
	.st5{fill:none;stroke:#8C0109;stroke-width:1.9377;stroke-linejoin:round;}
	.st6{fill:#B3040F;}
	.st7{fill:#F24044;}
	.st8{fill:#5AD9D4;}
	.st9{fill:none;stroke:#137A75;stroke-width:1.9377;stroke-linejoin:round;}
	.st10{fill:#1CA49D;}
	.st11{fill:#00CDC8;}
</style>
<g>
	<g>
		<g>
			<polygon class="st0" points="111.8,164.9 67.7,191.6 111.8,218.4 155.9,191.6 			"/>
			<polygon class="st1" points="111.8,164.9 67.7,191.6 111.8,218.4 155.9,191.6 			"/>
		</g>
		<g>
			<polygon class="st2" points="111.8,218.4 155.9,191.6 155.9,236 111.8,262.8 			"/>
			<polygon class="st1" points="111.8,218.4 155.9,191.6 155.9,236 111.8,262.8 			"/>
		</g>
		<g>
			<polygon class="st3" points="111.8,218.4 67.7,191.6 67.7,236 111.8,262.8 			"/>
			<polygon class="st1" points="111.8,218.4 67.7,191.6 67.7,236 111.8,262.8 			"/>
		</g>
	</g>
	<g>
		<g>
			<polygon class="st0" points="155.9,191.6 111.8,218.4 155.9,245.1 200,218.4 			"/>
			<polygon class="st1" points="155.9,191.6 111.8,218.4 155.9,245.1 200,218.4 			"/>
		</g>
		<g>
			<polygon class="st2" points="155.9,245.1 200,218.4 200,262.8 155.9,289.5 			"/>
			<polygon class="st1" points="155.9,245.1 200,218.4 200,262.8 155.9,289.5 			"/>
		</g>
		<g>
			<polygon class="st3" points="155.9,245.1 111.8,218.4 111.8,262.8 155.9,289.5 			"/>
			<polygon class="st1" points="155.9,245.1 111.8,218.4 111.8,262.8 155.9,289.5 			"/>
		</g>
	</g>
	<g>
		<g>
			<polygon class="st0" points="200,218.4 155.9,245.1 200,271.9 244.1,245.1 			"/>
			<polygon class="st1" points="200,218.4 155.9,245.1 200,271.9 244.1,245.1 			"/>
		</g>
		<g>
			<polygon class="st2" points="200,271.9 244.1,245.1 244.1,289.5 200,316.3 			"/>
			<polygon class="st1" points="200,271.9 244.1,245.1 244.1,289.5 200,316.3 			"/>
		</g>
		<g>
			<polygon class="st3" points="200,271.9 155.9,245.1 155.9,289.5 200,316.3 			"/>
			<polygon class="st1" points="200,271.9 155.9,245.1 155.9,289.5 200,316.3 			"/>
		</g>
	</g>
	<g>
		<g>
			<polygon class="st0" points="244.1,245.1 200,271.9 244.1,298.6 288.2,271.9 			"/>
			<polygon class="st1" points="244.1,245.1 200,271.9 244.1,298.6 288.2,271.9 			"/>
		</g>
		<g>
			<polygon class="st2" points="244.1,298.6 288.2,271.9 288.2,316.3 244.1,343 			"/>
			<polygon class="st1" points="244.1,298.6 288.2,271.9 288.2,316.3 244.1,343 			"/>
		</g>
		<g>
			<polygon class="st3" points="244.1,298.6 200,271.9 200,316.3 244.1,343 			"/>
			<polygon class="st1" points="244.1,298.6 200,271.9 200,316.3 244.1,343 			"/>
		</g>
	</g>
	<g>
		<g>
			<polygon class="st4" points="155.9,147.2 111.8,174 155.9,200.7 200,174 			"/>
			<polygon class="st5" points="155.9,147.2 111.8,174 155.9,200.7 200,174 			"/>
		</g>
		<g>
			<polygon class="st6" points="155.9,200.7 200,174 200,218.4 155.9,245.1 			"/>
			<polygon class="st5" points="155.9,200.7 200,174 200,218.4 155.9,245.1 			"/>
		</g>
		<g>
			<polygon class="st7" points="155.9,200.7 111.8,174 111.8,218.4 155.9,245.1 			"/>
			<polygon class="st5" points="155.9,200.7 111.8,174 111.8,218.4 155.9,245.1 			"/>
		</g>
	</g>
	<g>
		<g>
			<polygon class="st8" points="200,174 155.9,200.7 200,227.5 244.1,200.7 			"/>
			<polygon class="st9" points="200,174 155.9,200.7 200,227.5 244.1,200.7 			"/>
		</g>
		<g>
			<polygon class="st10" points="200,227.5 244.1,200.7 244.1,245.1 200,271.9 			"/>
			<polygon class="st9" points="200,227.5 244.1,200.7 244.1,245.1 200,271.9 			"/>
		</g>
		<g>
			<polygon class="st11" points="200,227.5 155.9,200.7 155.9,245.1 200,271.9 			"/>
			<polygon class="st9" points="200,227.5 155.9,200.7 155.9,245.1 200,271.9 			"/>
		</g>
	</g>
	<g>
		<g>
			<polygon class="st8" points="155.9,102.8 111.8,129.6 155.9,156.3 200,129.6 			"/>
			<polygon class="st9" points="155.9,102.8 111.8,129.6 155.9,156.3 200,129.6 			"/>
		</g>
		<g>
			<polygon class="st10" points="155.9,156.3 200,129.6 200,174 155.9,200.7 			"/>
			<polygon class="st9" points="155.9,156.3 200,129.6 200,174 155.9,200.7 			"/>
		</g>
		<g>
			<polygon class="st11" points="155.9,156.3 111.8,129.6 111.8,174 155.9,200.7 			"/>
			<polygon class="st9" points="155.9,156.3 111.8,129.6 111.8,174 155.9,200.7 			"/>
		</g>
	</g>
	<g>
		<g>
			<polygon class="st0" points="244.1,200.7 200,227.5 244.1,254.2 288.2,227.5 			"/>
			<polygon class="st1" points="244.1,200.7 200,227.5 244.1,254.2 288.2,227.5 			"/>
		</g>
		<g>
			<polygon class="st2" points="244.1,254.2 288.2,227.5 288.2,271.9 244.1,298.6 			"/>
			<polygon class="st1" points="244.1,254.2 288.2,227.5 288.2,271.9 244.1,298.6 			"/>
		</g>
		<g>
			<polygon class="st3" points="244.1,254.2 200,227.5 200,271.9 244.1,298.6 			"/>
			<polygon class="st1" points="244.1,254.2 200,227.5 200,271.9 244.1,298.6 			"/>
		</g>
	</g>
	<g>
		<g>
			<polygon class="st4" points="288.2,271.9 244.1,298.6 288.2,325.4 332.3,298.6 			"/>
			<polygon class="st5" points="288.2,271.9 244.1,298.6 288.2,325.4 332.3,298.6 			"/>
		</g>
		<g>
			<polygon class="st6" points="288.2,325.4 332.3,298.6 332.3,343 288.2,369.8 			"/>
			<polygon class="st5" points="288.2,325.4 332.3,298.6 332.3,343 288.2,369.8 			"/>
		</g>
		<g>
			<polygon class="st7" points="288.2,325.4 244.1,298.6 244.1,343 288.2,369.8 			"/>
			<polygon class="st5" points="288.2,325.4 244.1,298.6 244.1,343 288.2,369.8 			"/>
		</g>
	</g>
	<g>
		<g>
			<polygon class="st0" points="288.2,227.2 244.1,253.9 288.2,280.7 332.3,253.9 			"/>
			<polygon class="st1" points="288.2,227.2 244.1,253.9 288.2,280.7 332.3,253.9 			"/>
		</g>
		<g>
			<polygon class="st2" points="288.2,280.7 332.3,253.9 332.3,298.3 288.2,325.1 			"/>
			<polygon class="st1" points="288.2,280.7 332.3,253.9 332.3,298.3 288.2,325.1 			"/>
		</g>
		<g>
			<polygon class="st3" points="288.2,280.7 244.1,253.9 244.1,298.3 288.2,325.1 			"/>
			<polygon class="st1" points="288.2,280.7 244.1,253.9 244.1,298.3 288.2,325.1 			"/>
		</g>
	</g>
	<g>
		<g>
			<polygon class="st4" points="200,129.3 155.9,156 200,182.8 244.1,156 			"/>
			<polygon class="st5" points="200,129.3 155.9,156 200,182.8 244.1,156 			"/>
		</g>
		<g>
			<polygon class="st6" points="200,182.8 244.1,156 244.1,200.4 200,227.2 			"/>
			<polygon class="st5" points="200,182.8 244.1,156 244.1,200.4 200,227.2 			"/>
		</g>
		<g>
			<polygon class="st7" points="200,182.8 155.9,156 155.9,200.4 200,227.2 			"/>
			<polygon class="st5" points="200,182.8 155.9,156 155.9,200.4 200,227.2 			"/>
		</g>
	</g>
	<g>
		<g>
			<polygon class="st4" points="244.1,156 200,182.8 244.1,209.5 288.2,182.8 			"/>
			<polygon class="st5" points="244.1,156 200,182.8 244.1,209.5 288.2,182.8 			"/>
		</g>
		<g>
			<polygon class="st6" points="244.1,209.5 288.2,182.8 288.2,227.2 244.1,253.9 			"/>
			<polygon class="st5" points="244.1,209.5 288.2,182.8 288.2,227.2 244.1,253.9 			"/>
		</g>
		<g>
			<polygon class="st7" points="244.1,209.5 200,182.8 200,227.2 244.1,253.9 			"/>
			<polygon class="st5" points="244.1,209.5 200,182.8 200,227.2 244.1,253.9 			"/>
		</g>
	</g>
	<g>
		<g>
			<polygon class="st0" points="288.2,182.8 244.1,209.5 288.2,236.3 332.3,209.5 			"/>
			<polygon class="st1" points="288.2,182.8 244.1,209.5 288.2,236.3 332.3,209.5 			"/>
		</g>
		<g>
			<polygon class="st2" points="288.2,236.3 332.3,209.5 332.3,253.9 288.2,280.7 			"/>
			<polygon class="st1" points="288.2,236.3 332.3,209.5 332.3,253.9 288.2,280.7 			"/>
		</g>
		<g>
			<polygon class="st3" points="288.2,236.3 244.1,209.5 244.1,253.9 288.2,280.7 			"/>
			<polygon class="st1" points="288.2,236.3 244.1,209.5 244.1,253.9 288.2,280.7 			"/>
		</g>
	</g>
	<g>
		<g>
			<polygon class="st0" points="244.1,111.6 200,138.4 244.1,165.1 288.2,138.4 			"/>
			<polygon class="st1" points="244.1,111.6 200,138.4 244.1,165.1 288.2,138.4 			"/>
		</g>
		<g>
			<polygon class="st2" points="244.1,165.1 288.2,138.4 288.2,182.8 244.1,209.5 			"/>
			<polygon class="st1" points="244.1,165.1 288.2,138.4 288.2,182.8 244.1,209.5 			"/>
		</g>
		<g>
			<polygon class="st3" points="244.1,165.1 200,138.4 200,182.8 244.1,209.5 			"/>
			<polygon class="st1" points="244.1,165.1 200,138.4 200,182.8 244.1,209.5 			"/>
		</g>
	</g>
	<g>
		<g>
			<polygon class="st8" points="244.1,66.7 200,93.4 244.1,120.2 288.2,93.4 			"/>
			<polygon class="st9" points="244.1,66.7 200,93.4 244.1,120.2 288.2,93.4 			"/>
		</g>
		<g>
			<polygon class="st10" points="244.1,120.2 288.2,93.4 288.2,137.8 244.1,164.6 			"/>
			<polygon class="st9" points="244.1,120.2 288.2,93.4 288.2,137.8 244.1,164.6 			"/>
		</g>
		<g>
			<polygon class="st11" points="244.1,120.2 200,93.4 200,137.8 244.1,164.6 			"/>
			<polygon class="st9" points="244.1,120.2 200,93.4 200,137.8 244.1,164.6 			"/>
		</g>
	</g>
	<g>
		<g>
			<polygon class="st0" points="244.1,22.5 200,49.3 244.1,76.1 288.2,49.3 			"/>
			<polygon class="st1" points="244.1,22.5 200,49.3 244.1,76.1 288.2,49.3 			"/>
		</g>
		<g>
			<polygon class="st2" points="244.1,76.1 288.2,49.3 288.2,93.7 244.1,120.5 			"/>
			<polygon class="st1" points="244.1,76.1 288.2,49.3 288.2,93.7 244.1,120.5 			"/>
		</g>
		<g>
			<polygon class="st3" points="244.1,76.1 200,49.3 200,93.7 244.1,120.5 			"/>
			<polygon class="st1" points="244.1,76.1 200,49.3 200,93.7 244.1,120.5 			"/>
		</g>
	</g>
	<g>
		<g>
			<polygon class="st4" points="288.2,138.4 244.1,165.1 288.2,191.9 332.3,165.1 			"/>
			<polygon class="st5" points="288.2,138.4 244.1,165.1 288.2,191.9 332.3,165.1 			"/>
		</g>
		<g>
			<polygon class="st6" points="288.2,191.9 332.3,165.1 332.3,209.5 288.2,236.3 			"/>
			<polygon class="st5" points="288.2,191.9 332.3,165.1 332.3,209.5 288.2,236.3 			"/>
		</g>
		<g>
			<polygon class="st7" points="288.2,191.9 244.1,165.1 244.1,209.5 288.2,236.3 			"/>
			<polygon class="st5" points="288.2,191.9 244.1,165.1 244.1,209.5 288.2,236.3 			"/>
		</g>
	</g>
	<g>
		<g>
			<polygon class="st0" points="155.9,58.4 111.8,85.2 155.9,111.9 200,85.2 			"/>
			<polygon class="st1" points="155.9,58.4 111.8,85.2 155.9,111.9 200,85.2 			"/>
		</g>
		<g>
			<polygon class="st2" points="155.9,111.9 200,85.2 200,129.6 155.9,156.3 			"/>
			<polygon class="st1" points="155.9,111.9 200,85.2 200,129.6 155.9,156.3 			"/>
		</g>
		<g>
			<polygon class="st3" points="155.9,111.9 111.8,85.2 111.8,129.6 155.9,156.3 			"/>
			<polygon class="st1" points="155.9,111.9 111.8,85.2 111.8,129.6 155.9,156.3 			"/>
		</g>
	</g>
	<g>
		<g>
			<polygon class="st8" points="155.9,14 111.8,40.8 155.9,67.5 200,40.8 			"/>
			<polygon class="st9" points="155.9,14 111.8,40.8 155.9,67.5 200,40.8 			"/>
		</g>
		<g>
			<polygon class="st10" points="155.9,67.5 200,40.8 200,85.2 155.9,111.9 			"/>
			<polygon class="st9" points="155.9,67.5 200,40.8 200,85.2 155.9,111.9 			"/>
		</g>
		<g>
			<polygon class="st11" points="155.9,67.5 111.8,40.8 111.8,85.2 155.9,111.9 			"/>
			<polygon class="st9" points="155.9,67.5 111.8,40.8 111.8,85.2 155.9,111.9 			"/>
		</g>
	</g>
</g>
</svg>
