<?xml version="1.0" encoding="utf-8"?>
<!-- Generator: Adobe Illustrator 22.0.1, SVG Export Plug-In . SVG Version: 6.00 Build 0)  -->
<svg version="1.1" id="Layer_1" xmlns="http://www.w3.org/2000/svg" xmlns:xlink="http://www.w3.org/1999/xlink" x="0px" y="0px"
	 viewBox="0 0 40 40" style="enable-background:new 0 0 40 40;" xml:space="preserve">
<style type="text/css">
	.st0{fill:#637BA1;}
	.st1{fill:#FEE467;}
	.st2{fill:none;stroke:#B0941D;stroke-width:0.5575;stroke-linejoin:round;}
	.st3{fill:#E7C42A;}
	.st4{fill:#FADC3C;}
</style>
<path class="st0" d="M35.7,13.6c0-0.3,0-0.5-0.1-0.8c0-0.1-0.1-0.1-0.1-0.2c-0.1-0.2-0.1-0.3-0.2-0.5c0-0.1-0.1-0.1-0.2-0.2
	c-0.1-0.1-0.2-0.3-0.3-0.4c-0.1-0.1-0.2-0.1-0.2-0.2c-0.1-0.1-0.2-0.2-0.3-0.3L21.6,3.4c-0.5-0.3-1-0.4-1.6-0.4s-1.1,0.1-1.6,0.4
	L5.8,11c-0.1,0.1-0.2,0.2-0.3,0.3c-0.1,0.1-0.2,0.1-0.2,0.2c-0.1,0.1-0.2,0.3-0.3,0.4C4.8,12,4.8,12,4.7,12.1
	c-0.1,0.2-0.1,0.3-0.2,0.5c0,0.1-0.1,0.1-0.1,0.2c-0.1,0.3-0.1,0.5-0.1,0.8c0,0,0,0,0,0s0,0,0,0v12.8c0,1,0.5,2,1.4,2.6l12.7,7.7
	c0.5,0.3,1,0.4,1.6,0.4s1.1-0.1,1.6-0.4L34.2,29c0.9-0.5,1.4-1.5,1.4-2.6V13.6C35.7,13.6,35.7,13.6,35.7,13.6
	C35.7,13.6,35.7,13.6,35.7,13.6z"/>
<g>
	<g>
		<polygon class="st1" points="20,5.9 7.3,13.6 20,21.3 32.7,13.6 		"/>
		<polygon class="st2" points="20,5.9 7.3,13.6 20,21.3 32.7,13.6 		"/>
	</g>
	<g>
		<polygon class="st3" points="20,21.3 32.7,13.6 32.7,26.4 20,34.1 		"/>
		<polygon class="st2" points="20,21.3 32.7,13.6 32.7,26.4 20,34.1 		"/>
	</g>
	<g>
		<polygon class="st4" points="20,21.3 7.3,13.6 7.3,26.4 20,34.1 		"/>
		<polygon class="st2" points="20,21.3 7.3,13.6 7.3,26.4 20,34.1 		"/>
	</g>
</g>
</svg>
