<?xml version="1.0" encoding="utf-8"?>
<!-- Generator: Adobe Illustrator 22.0.1, SVG Export Plug-In . SVG Version: 6.00 Build 0)  -->
<svg version="1.1" id="Layer_1" xmlns="http://www.w3.org/2000/svg" xmlns:xlink="http://www.w3.org/1999/xlink" x="0px" y="0px"
	 viewBox="0 0 400 400" style="enable-background:new 0 0 400 400;" xml:space="preserve">
<style type="text/css">
	.st0{fill:#FFFFFF;stroke:#FFFFFF;stroke-width:6;stroke-linecap:round;stroke-miterlimit:10;}
	.st1{fill:#F24044;}
	.st2{fill:#B3040F;}
	.st3{fill:#00CDC8;}
	.st4{fill:#1CA49D;}
	.st5{fill:#A5D73C;}
	.st6{fill:#69941B;}
	.st7{fill:#F86A00;}
	.st8{fill:#C44412;}
	.st9{fill:#490A3D;}
	.st10{fill:#2F0026;}
	.st11{fill:#FADC3C;}
	.st12{fill:#E7C42A;}
</style>
<g>
	<g>
		<polygon class="st0" points="34.7,25.8 34.7,22.3 27.8,22.3 27.8,25.8 14,25.8 14,60.3 48.5,60.3 48.5,25.8 		"/>
		<polygon class="st0" points="34.7,78.7 34.7,75.2 27.8,75.2 27.8,78.7 14,78.7 14,113.2 48.5,113.2 48.5,78.7 		"/>
		<polygon class="st0" points="34.7,131.6 34.7,128.1 27.8,128.1 27.8,131.6 14,131.6 14,166.1 48.5,166.1 48.5,131.6 		"/>
		<polygon class="st0" points="34.7,237.3 34.7,233.9 27.8,233.9 27.8,237.3 14,237.3 14,271.9 48.5,271.9 48.5,237.3 		"/>
		<polygon class="st0" points="34.7,290.2 34.7,286.8 27.8,286.8 27.8,290.2 14,290.2 14,324.8 48.5,324.8 48.5,290.2 		"/>
		<polygon class="st0" points="79.1,131.6 79.1,128.1 72.3,128.1 72.3,131.6 58.5,131.6 58.5,166.1 93,166.1 93,131.6 		"/>
		<polygon class="st0" points="79.1,184.5 79.1,181 72.3,181 72.3,184.5 58.5,184.5 58.5,219 93,219 93,184.5 		"/>
		<polygon class="st0" points="79.1,290.2 79.1,286.8 72.3,286.8 72.3,290.2 58.5,290.2 58.5,324.8 93,324.8 93,290.2 		"/>
		<polygon class="st0" points="79.1,343.1 79.1,339.7 72.3,339.7 72.3,343.1 58.5,343.1 58.5,377.7 93,377.7 93,343.1 		"/>
		<polygon class="st0" points="123.6,78.7 123.6,75.2 116.7,75.2 116.7,78.7 102.9,78.7 102.9,113.2 137.4,113.2 137.4,78.7 		"/>
		<polygon class="st0" points="123.6,131.6 123.6,128.1 116.7,128.1 116.7,131.6 102.9,131.6 102.9,166.1 137.4,166.1 137.4,131.6 
					"/>
		<polygon class="st0" points="123.6,237.3 123.6,233.9 116.7,233.9 116.7,237.3 102.9,237.3 102.9,271.9 137.4,271.9 137.4,237.3 
					"/>
		<polygon class="st0" points="123.6,290.2 123.6,286.8 116.7,286.8 116.7,290.2 102.9,290.2 102.9,324.8 137.4,324.8 137.4,290.2 
					"/>
		<polygon class="st0" points="79.1,25.8 79.1,22.3 72.3,22.3 72.3,25.8 58.5,25.8 58.5,60.3 93,60.3 93,25.8 		"/>
		<polygon class="st0" points="79.1,78.7 79.1,75.2 72.3,75.2 72.3,78.7 58.5,78.7 58.5,113.2 93,113.2 93,78.7 		"/>
		<polygon class="st0" points="34.7,184.5 34.7,181 27.8,181 27.8,184.5 14,184.5 14,219 48.5,219 48.5,184.5 		"/>
		<polygon class="st0" points="284.3,25.8 284.3,22.3 277.4,22.3 277.4,25.8 263.6,25.8 263.6,60.3 298.1,60.3 298.1,25.8 		"/>
		<polygon class="st0" points="284.3,78.7 284.3,75.2 277.4,75.2 277.4,78.7 263.6,78.7 263.6,113.2 298.1,113.2 298.1,78.7 		"/>
		<polygon class="st0" points="284.3,131.6 284.3,128.1 277.4,128.1 277.4,131.6 263.6,131.6 263.6,166.1 298.1,166.1 298.1,131.6 
					"/>
		<polygon class="st0" points="284.3,237.3 284.3,233.9 277.4,233.9 277.4,237.3 263.6,237.3 263.6,271.9 298.1,271.9 298.1,237.3 
					"/>
		<polygon class="st0" points="328.7,131.6 328.7,128.1 321.9,128.1 321.9,131.6 308,131.6 308,166.1 342.5,166.1 342.5,131.6 		"/>
		<polygon class="st0" points="328.7,290.2 328.7,286.8 321.9,286.8 321.9,290.2 308,290.2 308,324.8 342.5,324.8 342.5,290.2 		"/>
		<polygon class="st0" points="373.2,78.7 373.2,75.2 366.3,75.2 366.3,78.7 352.5,78.7 352.5,113.2 387,113.2 387,78.7 		"/>
		<polygon class="st0" points="373.2,237.3 373.2,233.9 366.3,233.9 366.3,237.3 352.5,237.3 352.5,271.9 387,271.9 387,237.3 		"/>
		<polygon class="st0" points="373.2,25.8 373.2,22.3 366.3,22.3 366.3,25.8 352.5,25.8 352.5,60.3 387,60.3 387,25.8 		"/>
		<polygon class="st0" points="328.7,78.7 328.7,75.2 321.9,75.2 321.9,78.7 308,78.7 308,113.2 342.5,113.2 342.5,78.7 		"/>
		<polygon class="st0" points="328.7,237.3 328.7,233.9 321.9,233.9 321.9,237.3 308,237.3 308,271.9 342.5,271.9 342.5,237.3 		"/>
		<polygon class="st0" points="284.3,184.5 284.3,181 277.4,181 277.4,184.5 263.6,184.5 263.6,219 298.1,219 298.1,184.5 		"/>
		<polygon class="st0" points="373.2,184.5 373.2,181 366.3,181 366.3,184.5 352.5,184.5 352.5,219 387,219 387,184.5 		"/>
		<polygon class="st0" points="373.2,343.1 373.2,339.7 366.3,339.7 366.3,343.1 352.5,343.1 352.5,377.7 387,377.7 387,343.1 		"/>
		<polygon class="st0" points="284.3,343.1 284.3,339.7 277.4,339.7 277.4,343.1 263.6,343.1 263.6,377.7 298.1,377.7 298.1,343.1 
					"/>
	</g>
	<g>
		<g>
			<polygon class="st1" points="14.9,59.4 14.9,26.6 28.7,26.6 28.7,23.2 33.8,23.2 33.8,26.6 47.7,26.6 47.7,59.4 			"/>
			<path class="st2" d="M32.9,24.1v1.7v1.7h1.7h12.1v31.1H15.7V27.5h12.1h1.7v-1.7v-1.7H32.9 M34.7,22.3h-6.8v3.4H14v34.5h34.5V25.8
				H34.7V22.3L34.7,22.3z"/>
		</g>
		<g>
			<polygon class="st3" points="14.9,112.3 14.9,79.5 28.7,79.5 28.7,76.1 33.8,76.1 33.8,79.5 47.7,79.5 47.7,112.3 			"/>
			<path class="st4" d="M32.9,77v1.7v1.7h1.7h12.1v31.1H15.7V80.4h12.1h1.7v-1.7V77H32.9 M34.7,75.2h-6.8v3.4H14v34.5h34.5V78.7
				H34.7V75.2L34.7,75.2z"/>
		</g>
		<g>
			<polygon class="st5" points="14.9,165.2 14.9,132.4 28.7,132.4 28.7,129 33.8,129 33.8,132.4 47.7,132.4 47.7,165.2 			"/>
			<path class="st6" d="M32.9,129.9v1.7v1.7h1.7h12.1v31.1H15.7v-31.1h12.1h1.7v-1.7v-1.7H32.9 M34.7,128.1h-6.8v3.4H14v34.5h34.5
				v-34.5H34.7V128.1L34.7,128.1z"/>
		</g>
		<g>
			<polygon class="st7" points="14.9,271 14.9,238.2 28.7,238.2 28.7,234.8 33.8,234.8 33.8,238.2 47.7,238.2 47.7,271 			"/>
			<path class="st8" d="M32.9,235.7v1.7v1.7h1.7h12.1v31.1H15.7v-31.1h12.1h1.7v-1.7v-1.7H32.9 M34.7,233.9h-6.8v3.4H14v34.5h34.5
				v-34.5H34.7V233.9L34.7,233.9z"/>
		</g>
		<g>
			<polygon class="st9" points="14.9,323.9 14.9,291.1 28.7,291.1 28.7,287.7 33.8,287.7 33.8,291.1 47.7,291.1 47.7,323.9 			"/>
			<path class="st10" d="M32.9,288.6v1.7v1.7h1.7h12.1V323H15.7V292h12.1h1.7v-1.7v-1.7H32.9 M34.7,286.8h-6.8v3.4H14v34.5h34.5
				v-34.5H34.7V286.8L34.7,286.8z"/>
		</g>
		<g>
			<polygon class="st3" points="59.3,165.2 59.3,132.4 73.2,132.4 73.2,129 78.3,129 78.3,132.4 92.1,132.4 92.1,165.2 			"/>
			<path class="st4" d="M77.4,129.9v1.7v1.7h1.7h12.1v31.1H60.2v-31.1h12.1H74v-1.7v-1.7H77.4 M79.1,128.1h-6.8v3.4H58.5v34.5H93
				v-34.5H79.1V128.1L79.1,128.1z"/>
		</g>
		<g>
			<polygon class="st5" points="59.3,218.1 59.3,185.3 73.2,185.3 73.2,181.9 78.3,181.9 78.3,185.3 92.1,185.3 92.1,218.1 			"/>
			<path class="st6" d="M77.4,182.8v1.7v1.7h1.7h12.1v31.1H60.2v-31.1h12.1H74v-1.7v-1.7H77.4 M79.1,181h-6.8v3.4H58.5V219H93v-34.5
				H79.1V181L79.1,181z"/>
		</g>
		<g>
			<polygon class="st7" points="59.3,323.9 59.3,291.1 73.2,291.1 73.2,287.7 78.3,287.7 78.3,291.1 92.1,291.1 92.1,323.9 			"/>
			<path class="st8" d="M77.4,288.6v1.7v1.7h1.7h12.1V323H60.2V292h12.1H74v-1.7v-1.7H77.4 M79.1,286.8h-6.8v3.4H58.5v34.5H93v-34.5
				H79.1V286.8L79.1,286.8z"/>
		</g>
		<g>
			<polygon class="st9" points="59.3,376.8 59.3,344 73.2,344 73.2,340.6 78.3,340.6 78.3,344 92.1,344 92.1,376.8 			"/>
			<path class="st10" d="M77.4,341.4v1.7v1.7h1.7h12.1v31.1H60.2v-31.1h12.1H74v-1.7v-1.7H77.4 M79.1,339.7h-6.8v3.4H58.5v34.5H93
				v-34.5H79.1V339.7L79.1,339.7z"/>
		</g>
		<g>
			<polygon class="st1" points="103.8,112.3 103.8,79.5 117.6,79.5 117.6,76.1 122.7,76.1 122.7,79.5 136.6,79.5 136.6,112.3 			"/>
			<g>
				<path class="st2" d="M121.9,77v1.7v1.7h1.7h12.1v31.1h-31.1V80.4h12.1h1.7v-1.7V77H121.9 M123.6,75.2h-6.8v3.4h-13.8v34.5h34.5
					V78.7h-13.8V75.2L123.6,75.2z"/>
			</g>
		</g>
		<g>
			<polygon class="st1" points="103.8,165.2 103.8,132.4 117.6,132.4 117.6,129 122.7,129 122.7,132.4 136.6,132.4 136.6,165.2 			
				"/>
			<path class="st2" d="M121.9,129.9v1.7v1.7h1.7h12.1v31.1h-31.1v-31.1h12.1h1.7v-1.7v-1.7H121.9 M123.6,128.1h-6.8v3.4h-13.8v34.5
				h34.5v-34.5h-13.8V128.1L123.6,128.1z"/>
		</g>
		<g>
			<polygon class="st5" points="103.8,271 103.8,238.2 117.6,238.2 117.6,234.8 122.7,234.8 122.7,238.2 136.6,238.2 136.6,271 			
				"/>
			<path class="st6" d="M121.9,235.7v1.7v1.7h1.7h12.1v31.1h-31.1v-31.1h12.1h1.7v-1.7v-1.7H121.9 M123.6,233.9h-6.8v3.4h-13.8v34.5
				h34.5v-34.5h-13.8V233.9L123.6,233.9z"/>
		</g>
		<g>
			<polygon class="st11" points="103.8,323.9 103.8,291.1 117.6,291.1 117.6,287.7 122.7,287.7 122.7,291.1 136.6,291.1 
				136.6,323.9 			"/>
			<path class="st12" d="M121.9,288.6v1.7v1.7h1.7h12.1V323h-31.1V292h12.1h1.7v-1.7v-1.7H121.9 M123.6,286.8h-6.8v3.4h-13.8v34.5
				h34.5v-34.5h-13.8V286.8L123.6,286.8z"/>
		</g>
		<g>
			<polygon class="st1" points="59.3,59.4 59.3,26.6 73.2,26.6 73.2,23.2 78.3,23.2 78.3,26.6 92.1,26.6 92.1,59.4 			"/>
			<g>
				<path class="st2" d="M77.4,24.1v1.7v1.7h1.7h12.1v31.1H60.2V27.5h12.1H74v-1.7v-1.7H77.4 M79.1,22.3h-6.8v3.4H58.5v34.5H93V25.8
					H79.1V22.3L79.1,22.3z"/>
			</g>
		</g>
		<g>
			<polygon class="st1" points="59.3,112.3 59.3,79.5 73.2,79.5 73.2,76.1 78.3,76.1 78.3,79.5 92.1,79.5 92.1,112.3 			"/>
			<path class="st2" d="M77.4,77v1.7v1.7h1.7h12.1v31.1H60.2V80.4h12.1H74v-1.7V77H77.4 M79.1,75.2h-6.8v3.4H58.5v34.5H93V78.7H79.1
				V75.2L79.1,75.2z"/>
		</g>
		<g>
			<polygon class="st11" points="14.9,218.1 14.9,185.3 28.7,185.3 28.7,181.9 33.8,181.9 33.8,185.3 47.7,185.3 47.7,218.1 			"/>
			<path class="st12" d="M32.9,182.8v1.7v1.7h1.7h12.1v31.1H15.7v-31.1h12.1h1.7v-1.7v-1.7H32.9 M34.7,181h-6.8v3.4H14V219h34.5
				v-34.5H34.7V181L34.7,181z"/>
		</g>
		<g>
			<polygon class="st1" points="264.4,59.4 264.4,26.6 278.3,26.6 278.3,23.2 283.4,23.2 283.4,26.6 297.2,26.6 297.2,59.4 			"/>
			<path class="st2" d="M282.5,24.1v1.7v1.7h1.7h12.1v31.1h-31.1V27.5h12.1h1.7v-1.7v-1.7H282.5 M284.3,22.3h-6.8v3.4h-13.8v34.5
				h34.5V25.8h-13.8V22.3L284.3,22.3z"/>
		</g>
		<g>
			<polygon class="st3" points="264.4,112.3 264.4,79.5 278.3,79.5 278.3,76.1 283.4,76.1 283.4,79.5 297.2,79.5 297.2,112.3 			"/>
			<path class="st4" d="M282.5,77v1.7v1.7h1.7h12.1v31.1h-31.1V80.4h12.1h1.7v-1.7V77H282.5 M284.3,75.2h-6.8v3.4h-13.8v34.5h34.5
				V78.7h-13.8V75.2L284.3,75.2z"/>
		</g>
		<g>
			<polygon class="st5" points="264.4,165.2 264.4,132.4 278.3,132.4 278.3,129 283.4,129 283.4,132.4 297.2,132.4 297.2,165.2 			
				"/>
			<path class="st6" d="M282.5,129.9v1.7v1.7h1.7h12.1v31.1h-31.1v-31.1h12.1h1.7v-1.7v-1.7H282.5 M284.3,128.1h-6.8v3.4h-13.8v34.5
				h34.5v-34.5h-13.8V128.1L284.3,128.1z"/>
		</g>
		<g>
			<polygon class="st7" points="264.4,271 264.4,238.2 278.3,238.2 278.3,234.8 283.4,234.8 283.4,238.2 297.2,238.2 297.2,271 			
				"/>
			<path class="st8" d="M282.5,235.7v1.7v1.7h1.7h12.1v31.1h-31.1v-31.1h12.1h1.7v-1.7v-1.7H282.5 M284.3,233.9h-6.8v3.4h-13.8v34.5
				h34.5v-34.5h-13.8V233.9L284.3,233.9z"/>
		</g>
		<g>
			<polygon class="st3" points="308.9,165.2 308.9,132.4 322.7,132.4 322.7,129 327.8,129 327.8,132.4 341.7,132.4 341.7,165.2 			
				"/>
			<path class="st4" d="M327,129.9v1.7v1.7h1.7h12.1v31.1h-31.1v-31.1h12.1h1.7v-1.7v-1.7H327 M328.7,128.1h-6.8v3.4H308v34.5h34.5
				v-34.5h-13.8V128.1L328.7,128.1z"/>
		</g>
		<g>
			<polygon class="st7" points="308.9,323.9 308.9,291.1 322.7,291.1 322.7,287.7 327.8,287.7 327.8,291.1 341.7,291.1 341.7,323.9 
							"/>
			<path class="st8" d="M327,288.6v1.7v1.7h1.7h12.1V323h-31.1V292h12.1h1.7v-1.7v-1.7H327 M328.7,286.8h-6.8v3.4H308v34.5h34.5
				v-34.5h-13.8V286.8L328.7,286.8z"/>
		</g>
		<g>
			<polygon class="st1" points="353.3,112.3 353.3,79.5 367.2,79.5 367.2,76.1 372.3,76.1 372.3,79.5 386.1,79.5 386.1,112.3 			"/>
			<g>
				<path class="st2" d="M371.4,77v1.7v1.7h1.7h12.1v31.1h-31.1V80.4h12.1h1.7v-1.7V77H371.4 M373.2,75.2h-6.8v3.4h-13.8v34.5H387
					V78.7h-13.8V75.2L373.2,75.2z"/>
			</g>
		</g>
		<g>
			<polygon class="st5" points="353.3,271 353.3,238.2 367.2,238.2 367.2,234.8 372.3,234.8 372.3,238.2 386.1,238.2 386.1,271 			
				"/>
			<path class="st6" d="M371.4,235.7v1.7v1.7h1.7h12.1v31.1h-31.1v-31.1h12.1h1.7v-1.7v-1.7H371.4 M373.2,233.9h-6.8v3.4h-13.8v34.5
				H387v-34.5h-13.8V233.9L373.2,233.9z"/>
		</g>
		<g>
			<polygon class="st9" points="353.3,59.4 353.3,26.6 367.2,26.6 367.2,23.2 372.3,23.2 372.3,26.6 386.1,26.6 386.1,59.4 			"/>
			<path class="st10" d="M371.4,24.1v1.7v1.7h1.7h12.1v31.1h-31.1V27.5h12.1h1.7v-1.7v-1.7H371.4 M373.2,22.3h-6.8v3.4h-13.8v34.5
				H387V25.8h-13.8V22.3L373.2,22.3z"/>
		</g>
		<g>
			<polygon class="st1" points="308.9,112.3 308.9,79.5 322.7,79.5 322.7,76.1 327.8,76.1 327.8,79.5 341.7,79.5 341.7,112.3 			"/>
			<path class="st2" d="M327,77v1.7v1.7h1.7h12.1v31.1h-31.1V80.4h12.1h1.7v-1.7V77H327 M328.7,75.2h-6.8v3.4H308v34.5h34.5V78.7
				h-13.8V75.2L328.7,75.2z"/>
		</g>
		<g>
			<polygon class="st11" points="308.9,271 308.9,238.2 322.7,238.2 322.7,234.8 327.8,234.8 327.8,238.2 341.7,238.2 341.7,271 			
				"/>
			<path class="st12" d="M327,235.7v1.7v1.7h1.7h12.1v31.1h-31.1v-31.1h12.1h1.7v-1.7v-1.7H327 M328.7,233.9h-6.8v3.4H308v34.5h34.5
				v-34.5h-13.8V233.9L328.7,233.9z"/>
		</g>
		<g>
			<polygon class="st11" points="264.4,218.1 264.4,185.3 278.3,185.3 278.3,181.9 283.4,181.9 283.4,185.3 297.2,185.3 
				297.2,218.1 			"/>
			<path class="st12" d="M282.5,182.8v1.7v1.7h1.7h12.1v31.1h-31.1v-31.1h12.1h1.7v-1.7v-1.7H282.5 M284.3,181h-6.8v3.4h-13.8V219
				h34.5v-34.5h-13.8V181L284.3,181z"/>
		</g>
		<g>
			<polygon class="st3" points="353.3,218.1 353.3,185.3 367.2,185.3 367.2,181.9 372.3,181.9 372.3,185.3 386.1,185.3 386.1,218.1 
							"/>
			<path class="st4" d="M371.4,182.8v1.7v1.7h1.7h12.1v31.1h-31.1v-31.1h12.1h1.7v-1.7v-1.7H371.4 M373.2,181h-6.8v3.4h-13.8V219
				H387v-34.5h-13.8V181L373.2,181z"/>
		</g>
		<g>
			<polygon class="st7" points="353.3,376.8 353.3,344 367.2,344 367.2,340.6 372.3,340.6 372.3,344 386.1,344 386.1,376.8 			"/>
			<path class="st8" d="M371.4,341.4v1.7v1.7h1.7h12.1v31.1h-31.1v-31.1h12.1h1.7v-1.7v-1.7H371.4 M373.2,339.7h-6.8v3.4h-13.8v34.5
				H387v-34.5h-13.8V339.7L373.2,339.7z"/>
		</g>
		<g>
			<polygon class="st1" points="264.4,376.8 264.4,344 278.3,344 278.3,340.6 283.4,340.6 283.4,344 297.2,344 297.2,376.8 			"/>
			<g>
				<path class="st2" d="M282.5,341.4v1.7v1.7h1.7h12.1v31.1h-31.1v-31.1h12.1h1.7v-1.7v-1.7H282.5 M284.3,339.7h-6.8v3.4h-13.8
					v34.5h34.5v-34.5h-13.8V339.7L284.3,339.7z"/>
			</g>
		</g>
	</g>
</g>
</svg>
