<?xml version="1.0" encoding="utf-8"?>
<!-- Generator: Adobe Illustrator 22.0.1, SVG Export Plug-In . SVG Version: 6.00 Build 0)  -->
<svg version="1.0" id="Layer_1" xmlns="http://www.w3.org/2000/svg" xmlns:xlink="http://www.w3.org/1999/xlink" x="0px" y="0px"
	 viewBox="0 0 165 164" style="enable-background:new 0 0 165 164;" xml:space="preserve">
<style type="text/css">
	.st0{fill:#ED4346;}
	.st1{fill:#B22229;}
	.st2{fill:#490E3D;}
</style>
<g>
	<g>
		<path class="st0" d="M15.3,158.4c-4.7,0-8.6-3.9-8.6-8.6V96.5c0-4.7,3.9-8.6,8.6-8.6h53.3c4.7,0,8.6,3.9,8.6,8.6v53.3
			c0,4.7-3.9,8.6-8.6,8.6H15.3z"/>
		<path class="st1" d="M68.6,89.4c3.9,0,7.1,3.2,7.1,7.1v53.3c0,3.9-3.2,7.1-7.1,7.1H15.3c-3.9,0-7.1-3.2-7.1-7.1V96.5
			c0-3.9,3.2-7.1,7.1-7.1H68.6 M68.6,86.4H15.3c-5.6,0-10.1,4.5-10.1,10.1v53.3c0,5.6,4.5,10.1,10.1,10.1h53.3
			c5.6,0,10.1-4.5,10.1-10.1V96.5C78.7,90.9,74.2,86.4,68.6,86.4L68.6,86.4z"/>
	</g>
	<g>
		<circle class="st2" cx="27.5" cy="108.7" r="5.5"/>
	</g>
	<g>
		<circle class="st2" cx="41.9" cy="123.2" r="5.5"/>
	</g>
	<g>
		<circle class="st2" cx="56.4" cy="137.6" r="5.5"/>
	</g>
	<g>
		<path class="st0" d="M15.3,76.1c-4.7,0-8.6-3.9-8.6-8.6V14.2c0-4.7,3.9-8.6,8.6-8.6h53.3c4.7,0,8.6,3.9,8.6,8.6v53.3
			c0,4.7-3.9,8.6-8.6,8.6H15.3z"/>
		<path class="st1" d="M68.6,7.1c3.9,0,7.1,3.2,7.1,7.1v53.3c0,3.9-3.2,7.1-7.1,7.1H15.3c-3.9,0-7.1-3.2-7.1-7.1V14.2
			c0-3.9,3.2-7.1,7.1-7.1H68.6 M68.6,4.1H15.3C9.7,4.1,5.2,8.6,5.2,14.2v53.3c0,5.6,4.5,10.1,10.1,10.1h53.3
			c5.6,0,10.1-4.5,10.1-10.1V14.2C78.7,8.6,74.2,4.1,68.6,4.1L68.6,4.1z"/>
	</g>
	<g>
		<circle class="st2" cx="27.5" cy="26.4" r="5.5"/>
	</g>
	<g>
		<circle class="st2" cx="41.9" cy="40.8" r="5.5"/>
	</g>
	<g>
		<circle class="st2" cx="56.4" cy="55.3" r="5.5"/>
	</g>
	<g>
		<path class="st0" d="M96.4,158.4c-4.7,0-8.6-3.9-8.6-8.6V96.5c0-4.7,3.9-8.6,8.6-8.6h53.3c4.7,0,8.6,3.9,8.6,8.6v53.3
			c0,4.7-3.9,8.6-8.6,8.6H96.4z"/>
		<path class="st1" d="M149.7,89.4c3.9,0,7.1,3.2,7.1,7.1v53.3c0,3.9-3.2,7.1-7.1,7.1H96.4c-3.9,0-7.1-3.2-7.1-7.1V96.5
			c0-3.9,3.2-7.1,7.1-7.1H149.7 M149.7,86.4H96.4c-5.6,0-10.1,4.5-10.1,10.1v53.3c0,5.6,4.5,10.1,10.1,10.1h53.3
			c5.6,0,10.1-4.5,10.1-10.1V96.5C159.8,90.9,155.3,86.4,149.7,86.4L149.7,86.4z"/>
	</g>
	<g>
		<circle class="st2" cx="108.6" cy="108.7" r="5.5"/>
	</g>
	<g>
		<circle class="st2" cx="123.1" cy="123.2" r="5.5"/>
	</g>
	<g>
		<circle class="st2" cx="137.5" cy="137.6" r="5.5"/>
	</g>
	<g>
		<path class="st0" d="M96.4,76.1c-4.7,0-8.6-3.9-8.6-8.6V14.2c0-4.7,3.9-8.6,8.6-8.6h53.3c4.7,0,8.6,3.9,8.6,8.6v53.3
			c0,4.7-3.9,8.6-8.6,8.6H96.4z"/>
		<path class="st1" d="M149.7,7.1c3.9,0,7.1,3.2,7.1,7.1v53.3c0,3.9-3.2,7.1-7.1,7.1H96.4c-3.9,0-7.1-3.2-7.1-7.1V14.2
			c0-3.9,3.2-7.1,7.1-7.1H149.7 M149.7,4.1H96.4c-5.6,0-10.1,4.5-10.1,10.1v53.3c0,5.6,4.5,10.1,10.1,10.1h53.3
			c5.6,0,10.1-4.5,10.1-10.1V14.2C159.8,8.6,155.3,4.1,149.7,4.1L149.7,4.1z"/>
	</g>
	<g>
		<circle class="st2" cx="108.6" cy="26.4" r="5.5"/>
	</g>
	<g>
		<circle class="st2" cx="123.1" cy="40.8" r="5.5"/>
	</g>
	<g>
		<circle class="st2" cx="137.5" cy="55.3" r="5.5"/>
	</g>
</g>
</svg>
