<?xml version="1.0" encoding="utf-8"?>
<!-- Generator: Adobe Illustrator 22.0.1, SVG Export Plug-In . SVG Version: 6.00 Build 0)  -->
<svg version="1.1" id="Layer_1" xmlns="http://www.w3.org/2000/svg" xmlns:xlink="http://www.w3.org/1999/xlink" x="0px" y="0px"
	 viewBox="0 0 400 400" style="enable-background:new 0 0 400 400;" xml:space="preserve">
<style type="text/css">
	.st0{fill:#E7C42A;stroke:#41210D;stroke-width:1.1705;stroke-miterlimit:10;}
	.st1{fill:#F24044;}
	.st2{fill:#490A3D;}
	.st3{fill:#FADC3C;}
</style>
<g>
	<g>
		<g>
			<circle class="st0" cx="61.6" cy="97.4" r="11.6"/>
			<g>
				<path class="st1" d="M66.4,95.3c-1.9,1.9-4.8,2.1-4.8,2.1s0.2-2.9,2.1-4.8s4.8-2.1,4.8-2.1S68.3,93.4,66.4,95.3z"/>
				<path class="st1" d="M59.5,92.6c1.9,1.9,2.1,4.8,2.1,4.8s-2.9-0.2-4.8-2.1c-1.9-1.9-2.1-4.8-2.1-4.8S57.6,90.7,59.5,92.6z"/>
				<path class="st1" d="M56.8,99.5c1.9-1.9,4.8-2.1,4.8-2.1s-0.2,2.9-2.1,4.8c-1.9,1.9-4.8,2.1-4.8,2.1S54.9,101.4,56.8,99.5z"/>
				<path class="st1" d="M63.7,102.2c-1.9-1.9-2.1-4.8-2.1-4.8s2.9,0.2,4.8,2.1s2.1,4.8,2.1,4.8S65.6,104.1,63.7,102.2z"/>
				<path class="st2" d="M64.5,89.9c0,4.1-2.9,7.5-2.9,7.5s-2.9-3.3-2.9-7.5c0-4.1,2.9-7.5,2.9-7.5S64.5,85.8,64.5,89.9z"/>
				<path class="st2" d="M54.1,94.5c4.1,0,7.5,2.9,7.5,2.9s-3.3,2.9-7.5,2.9s-7.5-2.9-7.5-2.9S50,94.5,54.1,94.5z"/>
				<path class="st2" d="M58.7,104.9c0-4.1,2.9-7.5,2.9-7.5s2.9,3.3,2.9,7.5c0,4.1-2.9,7.5-2.9,7.5S58.7,109,58.7,104.9z"/>
				<path class="st2" d="M69.1,100.3c-4.1,0-7.5-2.9-7.5-2.9s3.3-2.9,7.5-2.9s7.5,2.9,7.5,2.9S73.2,100.3,69.1,100.3z"/>
				<circle class="st3" cx="61.6" cy="97.4" r="1.9"/>
			</g>
		</g>
		<g>
			<circle class="st0" cx="61.6" cy="129.3" r="11.6"/>
			<g>
				<path class="st1" d="M66.4,127.2c-1.9,1.9-4.8,2.1-4.8,2.1s0.2-2.9,2.1-4.8s4.8-2.1,4.8-2.1S68.3,125.3,66.4,127.2z"/>
				<path class="st1" d="M59.5,124.5c1.9,1.9,2.1,4.8,2.1,4.8s-2.9-0.2-4.8-2.1c-1.9-1.9-2.1-4.8-2.1-4.8S57.6,122.6,59.5,124.5z"/>
				<path class="st1" d="M56.8,131.5c1.9-1.9,4.8-2.1,4.8-2.1s-0.2,2.9-2.1,4.8c-1.9,1.9-4.8,2.1-4.8,2.1S54.9,133.4,56.8,131.5z"/>
				<path class="st1" d="M63.7,134.1c-1.9-1.9-2.1-4.8-2.1-4.8s2.9,0.2,4.8,2.1c1.9,1.9,2.1,4.8,2.1,4.8S65.6,136,63.7,134.1z"/>
				<path class="st2" d="M64.5,121.9c0,4.1-2.9,7.5-2.9,7.5s-2.9-3.3-2.9-7.5c0-4.1,2.9-7.5,2.9-7.5S64.5,117.7,64.5,121.9z"/>
				<path class="st2" d="M54.1,126.5c4.1,0,7.5,2.9,7.5,2.9s-3.3,2.9-7.5,2.9s-7.5-2.9-7.5-2.9S50,126.5,54.1,126.5z"/>
				<path class="st2" d="M58.7,136.8c0-4.1,2.9-7.5,2.9-7.5s2.9,3.3,2.9,7.5s-2.9,7.5-2.9,7.5S58.7,140.9,58.7,136.8z"/>
				<path class="st2" d="M69.1,132.2c-4.1,0-7.5-2.9-7.5-2.9s3.3-2.9,7.5-2.9s7.5,2.9,7.5,2.9S73.2,132.2,69.1,132.2z"/>
				<circle class="st3" cx="61.6" cy="129.3" r="1.9"/>
			</g>
		</g>
		<g>
			<circle class="st0" cx="38.9" cy="113.3" r="11.6"/>
			<g>
				<path class="st1" d="M43.7,111.1c-1.9,1.9-4.8,2.1-4.8,2.1s0.2-2.9,2.1-4.8c1.9-1.9,4.8-2.1,4.8-2.1S45.6,109.2,43.7,111.1z"/>
				<path class="st1" d="M36.8,108.5c1.9,1.9,2.1,4.8,2.1,4.8s-2.9-0.2-4.8-2.1s-2.1-4.8-2.1-4.8S34.9,106.6,36.8,108.5z"/>
				<path class="st1" d="M34.2,115.4c1.9-1.9,4.8-2.1,4.8-2.1s-0.2,2.9-2.1,4.8s-4.8,2.1-4.8,2.1S32.3,117.3,34.2,115.4z"/>
				<path class="st1" d="M41.1,118.1c-1.9-1.9-2.1-4.8-2.1-4.8s2.9,0.2,4.8,2.1c1.9,1.9,2.1,4.8,2.1,4.8S43,120,41.1,118.1z"/>
				<path class="st2" d="M41.8,105.8c0,4.1-2.9,7.5-2.9,7.5s-2.9-3.3-2.9-7.5s2.9-7.5,2.9-7.5S41.8,101.7,41.8,105.8z"/>
				<path class="st2" d="M31.5,110.4c4.1,0,7.5,2.9,7.5,2.9s-3.3,2.9-7.5,2.9s-7.5-2.9-7.5-2.9S27.3,110.4,31.5,110.4z"/>
				<path class="st2" d="M36.1,120.7c0-4.1,2.9-7.5,2.9-7.5s2.9,3.3,2.9,7.5s-2.9,7.5-2.9,7.5S36.1,124.9,36.1,120.7z"/>
				<path class="st2" d="M46.4,116.1c-4.1,0-7.5-2.9-7.5-2.9s3.3-2.9,7.5-2.9s7.5,2.9,7.5,2.9S50.5,116.1,46.4,116.1z"/>
				<circle class="st3" cx="38.9" cy="113.3" r="1.9"/>
			</g>
		</g>
		<g>
			<circle class="st0" cx="61.6" cy="65.4" r="11.6"/>
			<g>
				<path class="st1" d="M66.4,63.3c-1.9,1.9-4.8,2.1-4.8,2.1s0.2-2.9,2.1-4.8c1.9-1.9,4.8-2.1,4.8-2.1S68.3,61.4,66.4,63.3z"/>
				<path class="st1" d="M59.5,60.7c1.9,1.9,2.1,4.8,2.1,4.8s-2.9-0.2-4.8-2.1c-1.9-1.9-2.1-4.8-2.1-4.8S57.6,58.7,59.5,60.7z"/>
				<path class="st1" d="M56.8,67.6c1.9-1.9,4.8-2.1,4.8-2.1s-0.2,2.9-2.1,4.8c-1.9,1.9-4.8,2.1-4.8,2.1S54.9,69.5,56.8,67.6z"/>
				<path class="st1" d="M63.7,70.2c-1.9-1.9-2.1-4.8-2.1-4.8s2.9,0.2,4.8,2.1s2.1,4.8,2.1,4.8S65.6,72.1,63.7,70.2z"/>
				<path class="st2" d="M64.5,58c0,4.1-2.9,7.5-2.9,7.5s-2.9-3.3-2.9-7.5s2.9-7.5,2.9-7.5S64.5,53.8,64.5,58z"/>
				<path class="st2" d="M54.1,62.6c4.1,0,7.5,2.9,7.5,2.9s-3.3,2.9-7.5,2.9s-7.5-2.9-7.5-2.9S50,62.6,54.1,62.6z"/>
				<path class="st2" d="M58.7,72.9c0-4.1,2.9-7.5,2.9-7.5s2.9,3.3,2.9,7.5s-2.9,7.5-2.9,7.5S58.7,77,58.7,72.9z"/>
				<path class="st2" d="M69.1,68.3c-4.1,0-7.5-2.9-7.5-2.9s3.3-2.9,7.5-2.9s7.5,2.9,7.5,2.9S73.2,68.3,69.1,68.3z"/>
				<circle class="st3" cx="61.6" cy="65.4" r="1.9"/>
			</g>
		</g>
		<g>
			<circle class="st0" cx="61.6" cy="161.3" r="11.6"/>
			<g>
				<path class="st1" d="M66.4,159.2c-1.9,1.9-4.8,2.1-4.8,2.1s0.2-2.9,2.1-4.8c1.9-1.9,4.8-2.1,4.8-2.1S68.3,157.3,66.4,159.2z"/>
				<path class="st1" d="M59.5,156.5c1.9,1.9,2.1,4.8,2.1,4.8s-2.9-0.2-4.8-2.1c-1.9-1.9-2.1-4.8-2.1-4.8S57.6,154.6,59.5,156.5z"/>
				<path class="st1" d="M56.8,163.4c1.9-1.9,4.8-2.1,4.8-2.1s-0.2,2.9-2.1,4.8c-1.9,1.9-4.8,2.1-4.8,2.1S54.9,165.3,56.8,163.4z"/>
				<path class="st1" d="M63.7,166.1c-1.9-1.9-2.1-4.8-2.1-4.8s2.9,0.2,4.8,2.1c1.9,1.9,2.1,4.8,2.1,4.8S65.6,168,63.7,166.1z"/>
				<path class="st2" d="M64.5,153.8c0,4.1-2.9,7.5-2.9,7.5s-2.9-3.3-2.9-7.5c0-4.1,2.9-7.5,2.9-7.5S64.5,149.7,64.5,153.8z"/>
				<path class="st2" d="M54.1,158.4c4.1,0,7.5,2.9,7.5,2.9s-3.3,2.9-7.5,2.9s-7.5-2.9-7.5-2.9S50,158.4,54.1,158.4z"/>
				<path class="st2" d="M58.7,168.8c0-4.1,2.9-7.5,2.9-7.5s2.9,3.3,2.9,7.5c0,4.1-2.9,7.5-2.9,7.5S58.7,172.9,58.7,168.8z"/>
				<path class="st2" d="M69.1,164.2c-4.1,0-7.5-2.9-7.5-2.9s3.3-2.9,7.5-2.9s7.5,2.9,7.5,2.9S73.2,164.2,69.1,164.2z"/>
				<circle class="st3" cx="61.6" cy="161.3" r="1.9"/>
			</g>
		</g>
		<g>
			<circle class="st0" cx="38.9" cy="145.1" r="11.6"/>
			<g>
				<path class="st1" d="M43.7,143c-1.9,1.9-4.8,2.1-4.8,2.1s0.2-2.9,2.1-4.8c1.9-1.9,4.8-2.1,4.8-2.1S45.6,141.1,43.7,143z"/>
				<path class="st1" d="M36.8,140.3c1.9,1.9,2.1,4.8,2.1,4.8s-2.9-0.2-4.8-2.1c-1.9-1.9-2.1-4.8-2.1-4.8S34.9,138.4,36.8,140.3z"/>
				<path class="st1" d="M34.2,147.2c1.9-1.9,4.8-2.1,4.8-2.1s-0.2,2.9-2.1,4.8c-1.9,1.9-4.8,2.1-4.8,2.1S32.3,149.1,34.2,147.2z"/>
				<path class="st1" d="M41.1,149.9c-1.9-1.9-2.1-4.8-2.1-4.8s2.9,0.2,4.8,2.1c1.9,1.9,2.1,4.8,2.1,4.8S43,151.8,41.1,149.9z"/>
				<path class="st2" d="M41.8,137.6c0,4.1-2.9,7.5-2.9,7.5s-2.9-3.3-2.9-7.5s2.9-7.5,2.9-7.5S41.8,133.5,41.8,137.6z"/>
				<path class="st2" d="M31.5,142.2c4.1,0,7.5,2.9,7.5,2.9s-3.3,2.9-7.5,2.9s-7.5-2.9-7.5-2.9S27.3,142.2,31.5,142.2z"/>
				<path class="st2" d="M36.1,152.6c0-4.1,2.9-7.5,2.9-7.5s2.9,3.3,2.9,7.5s-2.9,7.5-2.9,7.5S36.1,156.7,36.1,152.6z"/>
				<path class="st2" d="M46.4,148c-4.1,0-7.5-2.9-7.5-2.9s3.3-2.9,7.5-2.9s7.5,2.9,7.5,2.9S50.5,148,46.4,148z"/>
				<circle class="st3" cx="38.9" cy="145.1" r="1.9"/>
			</g>
		</g>
		<g>
			<circle class="st0" cx="38.9" cy="81.4" r="11.6"/>
			<g>
				<path class="st1" d="M43.7,79.3c-1.9,1.9-4.8,2.1-4.8,2.1s0.2-2.9,2.1-4.8s4.8-2.1,4.8-2.1S45.6,77.4,43.7,79.3z"/>
				<path class="st1" d="M36.8,76.7c1.9,1.9,2.1,4.8,2.1,4.8s-2.9-0.2-4.8-2.1S32,74.5,32,74.5S34.9,74.8,36.8,76.7z"/>
				<path class="st1" d="M34.2,83.6c1.9-1.9,4.8-2.1,4.8-2.1s-0.2,2.9-2.1,4.8c-1.9,1.9-4.8,2.1-4.8,2.1S32.3,85.5,34.2,83.6z"/>
				<path class="st1" d="M41.1,86.2c-1.9-1.9-2.1-4.8-2.1-4.8s2.9,0.2,4.8,2.1c1.9,1.9,2.1,4.8,2.1,4.8S43,88.1,41.1,86.2z"/>
				<path class="st2" d="M41.8,74c0,4.1-2.9,7.5-2.9,7.5s-2.9-3.3-2.9-7.5s2.9-7.5,2.9-7.5S41.8,69.8,41.8,74z"/>
				<path class="st2" d="M31.5,78.6c4.1,0,7.5,2.9,7.5,2.9s-3.3,2.9-7.5,2.9S24,81.4,24,81.4S27.3,78.6,31.5,78.6z"/>
				<path class="st2" d="M36.1,88.9c0-4.1,2.9-7.5,2.9-7.5s2.9,3.3,2.9,7.5s-2.9,7.5-2.9,7.5S36.1,93,36.1,88.9z"/>
				<path class="st2" d="M46.4,84.3c-4.1,0-7.5-2.9-7.5-2.9s3.3-2.9,7.5-2.9s7.5,2.9,7.5,2.9S50.5,84.3,46.4,84.3z"/>
				<circle class="st3" cx="38.9" cy="81.4" r="1.9"/>
			</g>
		</g>
		<g>
			<circle class="st0" cx="84" cy="113.3" r="11.6"/>
			<g>
				<path class="st1" d="M88.8,111.1c-1.9,1.9-4.8,2.1-4.8,2.1s0.2-2.9,2.1-4.8c1.9-1.9,4.8-2.1,4.8-2.1S90.7,109.2,88.8,111.1z"/>
				<path class="st1" d="M81.9,108.5c1.9,1.9,2.1,4.8,2.1,4.8s-2.9-0.2-4.8-2.1s-2.1-4.8-2.1-4.8S80,106.6,81.9,108.5z"/>
				<path class="st1" d="M79.2,115.4c1.9-1.9,4.8-2.1,4.8-2.1s-0.2,2.9-2.1,4.8s-4.8,2.1-4.8,2.1S77.3,117.3,79.2,115.4z"/>
				<path class="st1" d="M86.1,118.1c-1.9-1.9-2.1-4.8-2.1-4.8s2.9,0.2,4.8,2.1s2.1,4.8,2.1,4.8S88,120,86.1,118.1z"/>
				<path class="st2" d="M86.9,105.8c0,4.1-2.9,7.5-2.9,7.5s-2.9-3.3-2.9-7.5s2.9-7.5,2.9-7.5S86.9,101.7,86.9,105.8z"/>
				<path class="st2" d="M76.5,110.4c4.1,0,7.5,2.9,7.5,2.9s-3.3,2.9-7.5,2.9s-7.5-2.9-7.5-2.9S72.4,110.4,76.5,110.4z"/>
				<path class="st2" d="M81.1,120.7c0-4.1,2.9-7.5,2.9-7.5s2.9,3.3,2.9,7.5s-2.9,7.5-2.9,7.5S81.1,124.9,81.1,120.7z"/>
				<path class="st2" d="M91.5,116.1c-4.1,0-7.5-2.9-7.5-2.9s3.3-2.9,7.5-2.9s7.5,2.9,7.5,2.9S95.6,116.1,91.5,116.1z"/>
				<circle class="st3" cx="84" cy="113.3" r="1.9"/>
			</g>
		</g>
		<g>
			<circle class="st0" cx="84" cy="145.1" r="11.6"/>
			<g>
				<path class="st1" d="M88.8,143c-1.9,1.9-4.8,2.1-4.8,2.1s0.2-2.9,2.1-4.8c1.9-1.9,4.8-2.1,4.8-2.1S90.7,141.1,88.8,143z"/>
				<path class="st1" d="M81.9,140.3c1.9,1.9,2.1,4.8,2.1,4.8s-2.9-0.2-4.8-2.1c-1.9-1.9-2.1-4.8-2.1-4.8S80,138.4,81.9,140.3z"/>
				<path class="st1" d="M79.2,147.2c1.9-1.9,4.8-2.1,4.8-2.1s-0.2,2.9-2.1,4.8c-1.9,1.9-4.8,2.1-4.8,2.1S77.3,149.1,79.2,147.2z"/>
				<path class="st1" d="M86.1,149.9c-1.9-1.9-2.1-4.8-2.1-4.8s2.9,0.2,4.8,2.1c1.9,1.9,2.1,4.8,2.1,4.8S88,151.8,86.1,149.9z"/>
				<path class="st2" d="M86.9,137.6c0,4.1-2.9,7.5-2.9,7.5s-2.9-3.3-2.9-7.5s2.9-7.5,2.9-7.5S86.9,133.5,86.9,137.6z"/>
				<path class="st2" d="M76.5,142.2c4.1,0,7.5,2.9,7.5,2.9s-3.3,2.9-7.5,2.9s-7.5-2.9-7.5-2.9S72.4,142.2,76.5,142.2z"/>
				<path class="st2" d="M81.1,152.6c0-4.1,2.9-7.5,2.9-7.5s2.9,3.3,2.9,7.5S84,160,84,160S81.1,156.7,81.1,152.6z"/>
				<path class="st2" d="M91.5,148c-4.1,0-7.5-2.9-7.5-2.9s3.3-2.9,7.5-2.9s7.5,2.9,7.5,2.9S95.6,148,91.5,148z"/>
				<circle class="st3" cx="84" cy="145.1" r="1.9"/>
			</g>
		</g>
		<g>
			<circle class="st0" cx="84" cy="81.4" r="11.6"/>
			<g>
				<path class="st1" d="M88.8,79.3c-1.9,1.9-4.8,2.1-4.8,2.1s0.2-2.9,2.1-4.8s4.8-2.1,4.8-2.1S90.7,77.4,88.8,79.3z"/>
				<path class="st1" d="M81.9,76.7c1.9,1.9,2.1,4.8,2.1,4.8s-2.9-0.2-4.8-2.1s-2.1-4.8-2.1-4.8S80,74.8,81.9,76.7z"/>
				<path class="st1" d="M79.2,83.6c1.9-1.9,4.8-2.1,4.8-2.1s-0.2,2.9-2.1,4.8c-1.9,1.9-4.8,2.1-4.8,2.1S77.3,85.5,79.2,83.6z"/>
				<path class="st1" d="M86.1,86.2c-1.9-1.9-2.1-4.8-2.1-4.8s2.9,0.2,4.8,2.1s2.1,4.8,2.1,4.8S88,88.1,86.1,86.2z"/>
				<path class="st2" d="M86.9,74c0,4.1-2.9,7.5-2.9,7.5s-2.9-3.3-2.9-7.5s2.9-7.5,2.9-7.5S86.9,69.8,86.9,74z"/>
				<path class="st2" d="M76.5,78.6c4.1,0,7.5,2.9,7.5,2.9s-3.3,2.9-7.5,2.9s-7.5-2.9-7.5-2.9S72.4,78.6,76.5,78.6z"/>
				<path class="st2" d="M81.1,88.9c0-4.1,2.9-7.5,2.9-7.5s2.9,3.3,2.9,7.5S84,96.4,84,96.4S81.1,93,81.1,88.9z"/>
				<path class="st2" d="M91.5,84.3c-4.1,0-7.5-2.9-7.5-2.9s3.3-2.9,7.5-2.9s7.5,2.9,7.5,2.9S95.6,84.3,91.5,84.3z"/>
				<circle class="st3" cx="84" cy="81.4" r="1.9"/>
			</g>
		</g>
		<g>
			<circle class="st0" cx="61.6" cy="242.2" r="11.6"/>
			<g>
				<path class="st1" d="M66.4,240c-1.9,1.9-4.8,2.1-4.8,2.1s0.2-2.9,2.1-4.8c1.9-1.9,4.8-2.1,4.8-2.1S68.3,238.1,66.4,240z"/>
				<path class="st1" d="M59.5,237.4c1.9,1.9,2.1,4.8,2.1,4.8s-2.9-0.2-4.8-2.1c-1.9-1.9-2.1-4.8-2.1-4.8S57.6,235.5,59.5,237.4z"/>
				<path class="st1" d="M56.8,244.3c1.9-1.9,4.8-2.1,4.8-2.1s-0.2,2.9-2.1,4.8c-1.9,1.9-4.8,2.1-4.8,2.1S54.9,246.2,56.8,244.3z"/>
				<path class="st1" d="M63.7,247c-1.9-1.9-2.1-4.8-2.1-4.8s2.9,0.2,4.8,2.1s2.1,4.8,2.1,4.8S65.6,248.9,63.7,247z"/>
				<path class="st2" d="M64.5,234.7c0,4.1-2.9,7.5-2.9,7.5s-2.9-3.3-2.9-7.5c0-4.1,2.9-7.5,2.9-7.5S64.5,230.6,64.5,234.7z"/>
				<path class="st2" d="M54.1,239.3c4.1,0,7.5,2.9,7.5,2.9s-3.3,2.9-7.5,2.9s-7.5-2.9-7.5-2.9S50,239.3,54.1,239.3z"/>
				<path class="st2" d="M58.7,249.6c0-4.1,2.9-7.5,2.9-7.5s2.9,3.3,2.9,7.5c0,4.1-2.9,7.5-2.9,7.5S58.7,253.8,58.7,249.6z"/>
				<path class="st2" d="M69.1,245c-4.1,0-7.5-2.9-7.5-2.9s3.3-2.9,7.5-2.9s7.5,2.9,7.5,2.9S73.2,245,69.1,245z"/>
				<circle class="st3" cx="61.6" cy="242.2" r="1.9"/>
			</g>
		</g>
		<g>
			<circle class="st0" cx="61.6" cy="274.1" r="11.6"/>
			<g>
				<path class="st1" d="M66.4,272c-1.9,1.9-4.8,2.1-4.8,2.1s0.2-2.9,2.1-4.8s4.8-2.1,4.8-2.1S68.3,270.1,66.4,272z"/>
				<path class="st1" d="M59.5,269.3c1.9,1.9,2.1,4.8,2.1,4.8s-2.9-0.2-4.8-2.1c-1.9-1.9-2.1-4.8-2.1-4.8S57.6,267.4,59.5,269.3z"/>
				<path class="st1" d="M56.8,276.2c1.9-1.9,4.8-2.1,4.8-2.1s-0.2,2.9-2.1,4.8c-1.9,1.9-4.8,2.1-4.8,2.1S54.9,278.1,56.8,276.2z"/>
				<path class="st1" d="M63.7,278.9c-1.9-1.9-2.1-4.8-2.1-4.8s2.9,0.2,4.8,2.1s2.1,4.8,2.1,4.8S65.6,280.8,63.7,278.9z"/>
				<path class="st2" d="M64.5,266.6c0,4.1-2.9,7.5-2.9,7.5s-2.9-3.3-2.9-7.5s2.9-7.5,2.9-7.5S64.5,262.5,64.5,266.6z"/>
				<path class="st2" d="M54.1,271.2c4.1,0,7.5,2.9,7.5,2.9s-3.3,2.9-7.5,2.9s-7.5-2.9-7.5-2.9S50,271.2,54.1,271.2z"/>
				<path class="st2" d="M58.7,281.6c0-4.1,2.9-7.5,2.9-7.5s2.9,3.3,2.9,7.5s-2.9,7.5-2.9,7.5S58.7,285.7,58.7,281.6z"/>
				<path class="st2" d="M69.1,277c-4.1,0-7.5-2.9-7.5-2.9s3.3-2.9,7.5-2.9s7.5,2.9,7.5,2.9S73.2,277,69.1,277z"/>
				<circle class="st3" cx="61.6" cy="274.1" r="1.9"/>
			</g>
		</g>
		<g>
			<circle class="st0" cx="38.9" cy="258" r="11.6"/>
			<g>
				<path class="st1" d="M43.7,255.9c-1.9,1.9-4.8,2.1-4.8,2.1s0.2-2.9,2.1-4.8c1.9-1.9,4.8-2.1,4.8-2.1S45.6,254,43.7,255.9z"/>
				<path class="st1" d="M36.8,253.3c1.9,1.9,2.1,4.8,2.1,4.8s-2.9-0.2-4.8-2.1s-2.1-4.8-2.1-4.8S34.9,251.4,36.8,253.3z"/>
				<path class="st1" d="M34.2,260.2c1.9-1.9,4.8-2.1,4.8-2.1s-0.2,2.9-2.1,4.8c-1.9,1.9-4.8,2.1-4.8,2.1S32.3,262.1,34.2,260.2z"/>
				<path class="st1" d="M41.1,262.8c-1.9-1.9-2.1-4.8-2.1-4.8s2.9,0.2,4.8,2.1c1.9,1.9,2.1,4.8,2.1,4.8S43,264.7,41.1,262.8z"/>
				<path class="st2" d="M41.8,250.6c0,4.1-2.9,7.5-2.9,7.5s-2.9-3.3-2.9-7.5s2.9-7.5,2.9-7.5S41.8,246.4,41.8,250.6z"/>
				<path class="st2" d="M31.5,255.2c4.1,0,7.5,2.9,7.5,2.9s-3.3,2.9-7.5,2.9S24,258,24,258S27.3,255.2,31.5,255.2z"/>
				<path class="st2" d="M36.1,265.5c0-4.1,2.9-7.5,2.9-7.5s2.9,3.3,2.9,7.5s-2.9,7.5-2.9,7.5S36.1,269.6,36.1,265.5z"/>
				<path class="st2" d="M46.4,260.9c-4.1,0-7.5-2.9-7.5-2.9s3.3-2.9,7.5-2.9s7.5,2.9,7.5,2.9S50.5,260.9,46.4,260.9z"/>
				<circle class="st3" cx="38.9" cy="258" r="1.9"/>
			</g>
		</g>
		<g>
			<circle class="st0" cx="61.6" cy="210.2" r="11.6"/>
			<g>
				<path class="st1" d="M66.4,208.1c-1.9,1.9-4.8,2.1-4.8,2.1s0.2-2.9,2.1-4.8c1.9-1.9,4.8-2.1,4.8-2.1S68.3,206.2,66.4,208.1z"/>
				<path class="st1" d="M59.5,205.4c1.9,1.9,2.1,4.8,2.1,4.8s-2.9-0.2-4.8-2.1c-1.9-1.9-2.1-4.8-2.1-4.8S57.6,203.5,59.5,205.4z"/>
				<path class="st1" d="M56.8,212.3c1.9-1.9,4.8-2.1,4.8-2.1s-0.2,2.9-2.1,4.8c-1.9,1.9-4.8,2.1-4.8,2.1S54.9,214.2,56.8,212.3z"/>
				<path class="st1" d="M63.7,215c-1.9-1.9-2.1-4.8-2.1-4.8s2.9,0.2,4.8,2.1c1.9,1.9,2.1,4.8,2.1,4.8S65.6,216.9,63.7,215z"/>
				<path class="st2" d="M64.5,202.7c0,4.1-2.9,7.5-2.9,7.5s-2.9-3.3-2.9-7.5c0-4.1,2.9-7.5,2.9-7.5S64.5,198.6,64.5,202.7z"/>
				<path class="st2" d="M54.1,207.3c4.1,0,7.5,2.9,7.5,2.9s-3.3,2.9-7.5,2.9s-7.5-2.9-7.5-2.9S50,207.3,54.1,207.3z"/>
				<path class="st2" d="M58.7,217.7c0-4.1,2.9-7.5,2.9-7.5s2.9,3.3,2.9,7.5c0,4.1-2.9,7.5-2.9,7.5S58.7,221.8,58.7,217.7z"/>
				<path class="st2" d="M69.1,213.1c-4.1,0-7.5-2.9-7.5-2.9s3.3-2.9,7.5-2.9s7.5,2.9,7.5,2.9S73.2,213.1,69.1,213.1z"/>
				<circle class="st3" cx="61.6" cy="210.2" r="1.9"/>
			</g>
		</g>
		<g>
			<circle class="st0" cx="61.6" cy="306.1" r="11.6"/>
			<g>
				<path class="st1" d="M66.4,303.9c-1.9,1.9-4.8,2.1-4.8,2.1s0.2-2.9,2.1-4.8s4.8-2.1,4.8-2.1S68.3,302,66.4,303.9z"/>
				<path class="st1" d="M59.5,301.3c1.9,1.9,2.1,4.8,2.1,4.8s-2.9-0.2-4.8-2.1c-1.9-1.9-2.1-4.8-2.1-4.8S57.6,299.4,59.5,301.3z"/>
				<path class="st1" d="M56.8,308.2c1.9-1.9,4.8-2.1,4.8-2.1s-0.2,2.9-2.1,4.8c-1.9,1.9-4.8,2.1-4.8,2.1S54.9,310.1,56.8,308.2z"/>
				<path class="st1" d="M63.7,310.8c-1.9-1.9-2.1-4.8-2.1-4.8s2.9,0.2,4.8,2.1s2.1,4.8,2.1,4.8S65.6,312.8,63.7,310.8z"/>
				<path class="st2" d="M64.5,298.6c0,4.1-2.9,7.5-2.9,7.5s-2.9-3.3-2.9-7.5s2.9-7.5,2.9-7.5S64.5,294.5,64.5,298.6z"/>
				<path class="st2" d="M54.1,303.2c4.1,0,7.5,2.9,7.5,2.9s-3.3,2.9-7.5,2.9s-7.5-2.9-7.5-2.9S50,303.2,54.1,303.2z"/>
				<path class="st2" d="M58.7,313.5c0-4.1,2.9-7.5,2.9-7.5s2.9,3.3,2.9,7.5s-2.9,7.5-2.9,7.5S58.7,317.7,58.7,313.5z"/>
				<path class="st2" d="M69.1,308.9c-4.1,0-7.5-2.9-7.5-2.9s3.3-2.9,7.5-2.9s7.5,2.9,7.5,2.9S73.2,308.9,69.1,308.9z"/>
				<circle class="st3" cx="61.6" cy="306.1" r="1.9"/>
			</g>
		</g>
		<g>
			<circle class="st0" cx="61.6" cy="346.4" r="11.6"/>
			<g>
				<path class="st1" d="M66.4,344.3c-1.9,1.9-4.8,2.1-4.8,2.1s0.2-2.9,2.1-4.8c1.9-1.9,4.8-2.1,4.8-2.1S68.3,342.4,66.4,344.3z"/>
				<path class="st1" d="M59.5,341.6c1.9,1.9,2.1,4.8,2.1,4.8s-2.9-0.2-4.8-2.1c-1.9-1.9-2.1-4.8-2.1-4.8S57.6,339.7,59.5,341.6z"/>
				<path class="st1" d="M56.8,348.5c1.9-1.9,4.8-2.1,4.8-2.1s-0.2,2.9-2.1,4.8c-1.9,1.9-4.8,2.1-4.8,2.1S54.9,350.4,56.8,348.5z"/>
				<path class="st1" d="M63.7,351.2c-1.9-1.9-2.1-4.8-2.1-4.8s2.9,0.2,4.8,2.1c1.9,1.9,2.1,4.8,2.1,4.8S65.6,353.1,63.7,351.2z"/>
				<path class="st2" d="M64.5,338.9c0,4.1-2.9,7.5-2.9,7.5s-2.9-3.3-2.9-7.5c0-4.1,2.9-7.5,2.9-7.5S64.5,334.8,64.5,338.9z"/>
				<path class="st2" d="M54.1,343.5c4.1,0,7.5,2.9,7.5,2.9s-3.3,2.9-7.5,2.9s-7.5-2.9-7.5-2.9S50,343.5,54.1,343.5z"/>
				<path class="st2" d="M58.7,353.9c0-4.1,2.9-7.5,2.9-7.5s2.9,3.3,2.9,7.5c0,4.1-2.9,7.5-2.9,7.5S58.7,358,58.7,353.9z"/>
				<path class="st2" d="M69.1,349.3c-4.1,0-7.5-2.9-7.5-2.9s3.3-2.9,7.5-2.9s7.5,2.9,7.5,2.9S73.2,349.3,69.1,349.3z"/>
				<circle class="st3" cx="61.6" cy="346.4" r="1.9"/>
			</g>
		</g>
		<g>
			<circle class="st0" cx="38.9" cy="289.9" r="11.6"/>
			<g>
				<path class="st1" d="M43.7,287.8c-1.9,1.9-4.8,2.1-4.8,2.1s0.2-2.9,2.1-4.8s4.8-2.1,4.8-2.1S45.6,285.8,43.7,287.8z"/>
				<path class="st1" d="M36.8,285.1c1.9,1.9,2.1,4.8,2.1,4.8s-2.9-0.2-4.8-2.1S32,283,32,283S34.9,283.2,36.8,285.1z"/>
				<path class="st1" d="M34.2,292c1.9-1.9,4.8-2.1,4.8-2.1s-0.2,2.9-2.1,4.8s-4.8,2.1-4.8,2.1S32.3,293.9,34.2,292z"/>
				<path class="st1" d="M41.1,294.7c-1.9-1.9-2.1-4.8-2.1-4.8s2.9,0.2,4.8,2.1c1.9,1.9,2.1,4.8,2.1,4.8S43,296.6,41.1,294.7z"/>
				<path class="st2" d="M41.8,282.4c0,4.1-2.9,7.5-2.9,7.5s-2.9-3.3-2.9-7.5s2.9-7.5,2.9-7.5S41.8,278.3,41.8,282.4z"/>
				<path class="st2" d="M31.5,287c4.1,0,7.5,2.9,7.5,2.9s-3.3,2.9-7.5,2.9s-7.5-2.9-7.5-2.9S27.3,287,31.5,287z"/>
				<path class="st2" d="M36.1,297.3c0-4.1,2.9-7.5,2.9-7.5s2.9,3.3,2.9,7.5s-2.9,7.5-2.9,7.5S36.1,301.5,36.1,297.3z"/>
				<path class="st2" d="M46.4,292.8c-4.1,0-7.5-2.9-7.5-2.9s3.3-2.9,7.5-2.9s7.5,2.9,7.5,2.9S50.5,292.8,46.4,292.8z"/>
				<circle class="st3" cx="38.9" cy="289.9" r="1.9"/>
			</g>
		</g>
		<g>
			<circle class="st0" cx="38.9" cy="226.2" r="11.6"/>
			<g>
				<path class="st1" d="M43.7,224.1c-1.9,1.9-4.8,2.1-4.8,2.1s0.2-2.9,2.1-4.8c1.9-1.9,4.8-2.1,4.8-2.1S45.6,222.2,43.7,224.1z"/>
				<path class="st1" d="M36.8,221.4c1.9,1.9,2.1,4.8,2.1,4.8s-2.9-0.2-4.8-2.1s-2.1-4.8-2.1-4.8S34.9,219.5,36.8,221.4z"/>
				<path class="st1" d="M34.2,228.3c1.9-1.9,4.8-2.1,4.8-2.1s-0.2,2.9-2.1,4.8c-1.9,1.9-4.8,2.1-4.8,2.1S32.3,230.3,34.2,228.3z"/>
				<path class="st1" d="M41.1,231c-1.9-1.9-2.1-4.8-2.1-4.8s2.9,0.2,4.8,2.1c1.9,1.9,2.1,4.8,2.1,4.8S43,232.9,41.1,231z"/>
				<path class="st2" d="M41.8,218.8c0,4.1-2.9,7.5-2.9,7.5s-2.9-3.3-2.9-7.5c0-4.1,2.9-7.5,2.9-7.5S41.8,214.6,41.8,218.8z"/>
				<path class="st2" d="M31.5,223.3c4.1,0,7.5,2.9,7.5,2.9s-3.3,2.9-7.5,2.9s-7.5-2.9-7.5-2.9S27.3,223.3,31.5,223.3z"/>
				<path class="st2" d="M36.1,233.7c0-4.1,2.9-7.5,2.9-7.5s2.9,3.3,2.9,7.5c0,4.1-2.9,7.5-2.9,7.5S36.1,237.8,36.1,233.7z"/>
				<path class="st2" d="M46.4,229.1c-4.1,0-7.5-2.9-7.5-2.9s3.3-2.9,7.5-2.9s7.5,2.9,7.5,2.9S50.5,229.1,46.4,229.1z"/>
				<circle class="st3" cx="38.9" cy="226.2" r="1.9"/>
			</g>
		</g>
		<g>
			<circle class="st0" cx="84" cy="258" r="11.6"/>
			<g>
				<path class="st1" d="M88.8,255.9c-1.9,1.9-4.8,2.1-4.8,2.1s0.2-2.9,2.1-4.8c1.9-1.9,4.8-2.1,4.8-2.1S90.7,254,88.8,255.9z"/>
				<path class="st1" d="M81.9,253.3c1.9,1.9,2.1,4.8,2.1,4.8s-2.9-0.2-4.8-2.1s-2.1-4.8-2.1-4.8S80,251.4,81.9,253.3z"/>
				<path class="st1" d="M79.2,260.2c1.9-1.9,4.8-2.1,4.8-2.1s-0.2,2.9-2.1,4.8c-1.9,1.9-4.8,2.1-4.8,2.1S77.3,262.1,79.2,260.2z"/>
				<path class="st1" d="M86.1,262.8c-1.9-1.9-2.1-4.8-2.1-4.8s2.9,0.2,4.8,2.1s2.1,4.8,2.1,4.8S88,264.7,86.1,262.8z"/>
				<path class="st2" d="M86.9,250.6c0,4.1-2.9,7.5-2.9,7.5s-2.9-3.3-2.9-7.5s2.9-7.5,2.9-7.5S86.9,246.4,86.9,250.6z"/>
				<path class="st2" d="M76.5,255.2c4.1,0,7.5,2.9,7.5,2.9s-3.3,2.9-7.5,2.9s-7.5-2.9-7.5-2.9S72.4,255.2,76.5,255.2z"/>
				<path class="st2" d="M81.1,265.5c0-4.1,2.9-7.5,2.9-7.5s2.9,3.3,2.9,7.5S84,273,84,273S81.1,269.6,81.1,265.5z"/>
				<path class="st2" d="M91.5,260.9c-4.1,0-7.5-2.9-7.5-2.9s3.3-2.9,7.5-2.9S99,258,99,258S95.6,260.9,91.5,260.9z"/>
				<circle class="st3" cx="84" cy="258" r="1.9"/>
			</g>
		</g>
		<g>
			<circle class="st0" cx="84" cy="289.9" r="11.6"/>
			<g>
				<path class="st1" d="M88.8,287.8c-1.9,1.9-4.8,2.1-4.8,2.1s0.2-2.9,2.1-4.8s4.8-2.1,4.8-2.1S90.7,285.8,88.8,287.8z"/>
				<path class="st1" d="M81.9,285.1c1.9,1.9,2.1,4.8,2.1,4.8s-2.9-0.2-4.8-2.1s-2.1-4.8-2.1-4.8S80,283.2,81.9,285.1z"/>
				<path class="st1" d="M79.2,292c1.9-1.9,4.8-2.1,4.8-2.1s-0.2,2.9-2.1,4.8s-4.8,2.1-4.8,2.1S77.3,293.9,79.2,292z"/>
				<path class="st1" d="M86.1,294.7c-1.9-1.9-2.1-4.8-2.1-4.8s2.9,0.2,4.8,2.1c1.9,1.9,2.1,4.8,2.1,4.8S88,296.6,86.1,294.7z"/>
				<path class="st2" d="M86.9,282.4c0,4.1-2.9,7.5-2.9,7.5s-2.9-3.3-2.9-7.5s2.9-7.5,2.9-7.5S86.9,278.3,86.9,282.4z"/>
				<path class="st2" d="M76.5,287c4.1,0,7.5,2.9,7.5,2.9s-3.3,2.9-7.5,2.9s-7.5-2.9-7.5-2.9S72.4,287,76.5,287z"/>
				<path class="st2" d="M81.1,297.3c0-4.1,2.9-7.5,2.9-7.5s2.9,3.3,2.9,7.5s-2.9,7.5-2.9,7.5S81.1,301.5,81.1,297.3z"/>
				<path class="st2" d="M91.5,292.8c-4.1,0-7.5-2.9-7.5-2.9s3.3-2.9,7.5-2.9s7.5,2.9,7.5,2.9S95.6,292.8,91.5,292.8z"/>
				<circle class="st3" cx="84" cy="289.9" r="1.9"/>
			</g>
		</g>
		<g>
			<circle class="st0" cx="84" cy="226.2" r="11.6"/>
			<g>
				<path class="st1" d="M88.8,224.1c-1.9,1.9-4.8,2.1-4.8,2.1s0.2-2.9,2.1-4.8c1.9-1.9,4.8-2.1,4.8-2.1S90.7,222.2,88.8,224.1z"/>
				<path class="st1" d="M81.9,221.4c1.9,1.9,2.1,4.8,2.1,4.8s-2.9-0.2-4.8-2.1s-2.1-4.8-2.1-4.8S80,219.5,81.9,221.4z"/>
				<path class="st1" d="M79.2,228.3c1.9-1.9,4.8-2.1,4.8-2.1s-0.2,2.9-2.1,4.8c-1.9,1.9-4.8,2.1-4.8,2.1S77.3,230.3,79.2,228.3z"/>
				<path class="st1" d="M86.1,231c-1.9-1.9-2.1-4.8-2.1-4.8s2.9,0.2,4.8,2.1c1.9,1.9,2.1,4.8,2.1,4.8S88,232.9,86.1,231z"/>
				<path class="st2" d="M86.9,218.8c0,4.1-2.9,7.5-2.9,7.5s-2.9-3.3-2.9-7.5c0-4.1,2.9-7.5,2.9-7.5S86.9,214.6,86.9,218.8z"/>
				<path class="st2" d="M76.5,223.3c4.1,0,7.5,2.9,7.5,2.9s-3.3,2.9-7.5,2.9s-7.5-2.9-7.5-2.9S72.4,223.3,76.5,223.3z"/>
				<path class="st2" d="M81.1,233.7c0-4.1,2.9-7.5,2.9-7.5s2.9,3.3,2.9,7.5c0,4.1-2.9,7.5-2.9,7.5S81.1,237.8,81.1,233.7z"/>
				<path class="st2" d="M91.5,229.1c-4.1,0-7.5-2.9-7.5-2.9s3.3-2.9,7.5-2.9s7.5,2.9,7.5,2.9S95.6,229.1,91.5,229.1z"/>
				<circle class="st3" cx="84" cy="226.2" r="1.9"/>
			</g>
		</g>
	</g>
	<g>
		<g>
			<circle class="st0" cx="153.9" cy="129.1" r="11.6"/>
			<g>
				<path class="st1" d="M158.7,127c-1.9,1.9-4.8,2.1-4.8,2.1s0.2-2.9,2.1-4.8c1.9-1.9,4.8-2.1,4.8-2.1S160.6,125.1,158.7,127z"/>
				<path class="st1" d="M151.8,124.3c1.9,1.9,2.1,4.8,2.1,4.8s-2.9-0.2-4.8-2.1c-1.9-1.9-2.1-4.8-2.1-4.8S149.9,122.4,151.8,124.3z
					"/>
				<path class="st1" d="M149.2,131.2c1.9-1.9,4.8-2.1,4.8-2.1s-0.2,2.9-2.1,4.8c-1.9,1.9-4.8,2.1-4.8,2.1S147.3,133.1,149.2,131.2z
					"/>
				<path class="st1" d="M156.1,133.9c-1.9-1.9-2.1-4.8-2.1-4.8s2.9,0.2,4.8,2.1c1.9,1.9,2.1,4.8,2.1,4.8S158,135.8,156.1,133.9z"/>
				<path class="st2" d="M156.8,121.6c0,4.1-2.9,7.5-2.9,7.5s-2.9-3.3-2.9-7.5c0-4.1,2.9-7.5,2.9-7.5S156.8,117.5,156.8,121.6z"/>
				<path class="st2" d="M146.5,126.2c4.1,0,7.5,2.9,7.5,2.9s-3.3,2.9-7.5,2.9c-4.1,0-7.5-2.9-7.5-2.9S142.3,126.2,146.5,126.2z"/>
				<path class="st2" d="M151.1,136.6c0-4.1,2.9-7.5,2.9-7.5s2.9,3.3,2.9,7.5s-2.9,7.5-2.9,7.5S151.1,140.7,151.1,136.6z"/>
				<path class="st2" d="M161.4,132c-4.1,0-7.5-2.9-7.5-2.9s3.3-2.9,7.5-2.9c4.1,0,7.5,2.9,7.5,2.9S165.5,132,161.4,132z"/>
				<circle class="st3" cx="153.9" cy="129.1" r="1.9"/>
			</g>
		</g>
		<g>
			<circle class="st0" cx="153.9" cy="161.1" r="11.6"/>
			<g>
				<path class="st1" d="M158.7,158.9c-1.9,1.9-4.8,2.1-4.8,2.1s0.2-2.9,2.1-4.8c1.9-1.9,4.8-2.1,4.8-2.1S160.6,157,158.7,158.9z"/>
				<path class="st1" d="M151.8,156.3c1.9,1.9,2.1,4.8,2.1,4.8s-2.9-0.2-4.8-2.1c-1.9-1.9-2.1-4.8-2.1-4.8S149.9,154.4,151.8,156.3z
					"/>
				<path class="st1" d="M149.2,163.2c1.9-1.9,4.8-2.1,4.8-2.1s-0.2,2.9-2.1,4.8c-1.9,1.9-4.8,2.1-4.8,2.1S147.3,165.1,149.2,163.2z
					"/>
				<path class="st1" d="M156.1,165.9c-1.9-1.9-2.1-4.8-2.1-4.8s2.9,0.2,4.8,2.1c1.9,1.9,2.1,4.8,2.1,4.8S158,167.8,156.1,165.9z"/>
				<path class="st2" d="M156.8,153.6c0,4.1-2.9,7.5-2.9,7.5s-2.9-3.3-2.9-7.5s2.9-7.5,2.9-7.5S156.8,149.5,156.8,153.6z"/>
				<path class="st2" d="M146.5,158.2c4.1,0,7.5,2.9,7.5,2.9s-3.3,2.9-7.5,2.9c-4.1,0-7.5-2.9-7.5-2.9S142.3,158.2,146.5,158.2z"/>
				<path class="st2" d="M151.1,168.5c0-4.1,2.9-7.5,2.9-7.5s2.9,3.3,2.9,7.5s-2.9,7.5-2.9,7.5S151.1,172.7,151.1,168.5z"/>
				<path class="st2" d="M161.4,163.9c-4.1,0-7.5-2.9-7.5-2.9s3.3-2.9,7.5-2.9c4.1,0,7.5,2.9,7.5,2.9S165.5,163.9,161.4,163.9z"/>
				<circle class="st3" cx="153.9" cy="161.1" r="1.9"/>
			</g>
		</g>
		<g>
			<circle class="st0" cx="131.3" cy="145" r="11.6"/>
			<g>
				<path class="st1" d="M136.1,142.9c-1.9,1.9-4.8,2.1-4.8,2.1s0.2-2.9,2.1-4.8c1.9-1.9,4.8-2.1,4.8-2.1S138,141,136.1,142.9z"/>
				<path class="st1" d="M129.2,140.2c1.9,1.9,2.1,4.8,2.1,4.8s-2.9-0.2-4.8-2.1c-1.9-1.9-2.1-4.8-2.1-4.8S127.3,138.3,129.2,140.2z
					"/>
				<path class="st1" d="M126.5,147.1c1.9-1.9,4.8-2.1,4.8-2.1s-0.2,2.9-2.1,4.8c-1.9,1.9-4.8,2.1-4.8,2.1S124.6,149,126.5,147.1z"
					/>
				<path class="st1" d="M133.4,149.8c-1.9-1.9-2.1-4.8-2.1-4.8s2.9,0.2,4.8,2.1c1.9,1.9,2.1,4.8,2.1,4.8S135.3,151.7,133.4,149.8z"
					/>
				<path class="st2" d="M134.2,137.5c0,4.1-2.9,7.5-2.9,7.5s-2.9-3.3-2.9-7.5c0-4.1,2.9-7.5,2.9-7.5S134.2,133.4,134.2,137.5z"/>
				<path class="st2" d="M123.8,142.1c4.1,0,7.5,2.9,7.5,2.9s-3.3,2.9-7.5,2.9c-4.1,0-7.5-2.9-7.5-2.9S119.7,142.1,123.8,142.1z"/>
				<path class="st2" d="M128.4,152.5c0-4.1,2.9-7.5,2.9-7.5s2.9,3.3,2.9,7.5c0,4.1-2.9,7.5-2.9,7.5S128.4,156.6,128.4,152.5z"/>
				<path class="st2" d="M138.8,147.9c-4.1,0-7.5-2.9-7.5-2.9s3.3-2.9,7.5-2.9s7.5,2.9,7.5,2.9S142.9,147.9,138.8,147.9z"/>
				<circle class="st3" cx="131.3" cy="145" r="1.9"/>
			</g>
		</g>
		<g>
			<circle class="st0" cx="153.9" cy="97.2" r="11.6"/>
			<g>
				<path class="st1" d="M158.7,95c-1.9,1.9-4.8,2.1-4.8,2.1s0.2-2.9,2.1-4.8c1.9-1.9,4.8-2.1,4.8-2.1S160.6,93.1,158.7,95z"/>
				<path class="st1" d="M151.8,92.4c1.9,1.9,2.1,4.8,2.1,4.8s-2.9-0.2-4.8-2.1c-1.9-1.9-2.1-4.8-2.1-4.8S149.9,90.5,151.8,92.4z"/>
				<path class="st1" d="M149.2,99.3c1.9-1.9,4.8-2.1,4.8-2.1s-0.2,2.9-2.1,4.8c-1.9,1.9-4.8,2.1-4.8,2.1S147.3,101.2,149.2,99.3z"
					/>
				<path class="st1" d="M156.1,102c-1.9-1.9-2.1-4.8-2.1-4.8s2.9,0.2,4.8,2.1c1.9,1.9,2.1,4.8,2.1,4.8S158,103.9,156.1,102z"/>
				<path class="st2" d="M156.8,89.7c0,4.1-2.9,7.5-2.9,7.5s-2.9-3.3-2.9-7.5s2.9-7.5,2.9-7.5S156.8,85.6,156.8,89.7z"/>
				<path class="st2" d="M146.5,94.3c4.1,0,7.5,2.9,7.5,2.9s-3.3,2.9-7.5,2.9c-4.1,0-7.5-2.9-7.5-2.9S142.3,94.3,146.5,94.3z"/>
				<path class="st2" d="M151.1,104.6c0-4.1,2.9-7.5,2.9-7.5s2.9,3.3,2.9,7.5s-2.9,7.5-2.9,7.5S151.1,108.8,151.1,104.6z"/>
				<path class="st2" d="M161.4,100.1c-4.1,0-7.5-2.9-7.5-2.9s3.3-2.9,7.5-2.9c4.1,0,7.5,2.9,7.5,2.9S165.5,100.1,161.4,100.1z"/>
				<circle class="st3" cx="153.9" cy="97.2" r="1.9"/>
			</g>
		</g>
		<g>
			<circle class="st0" cx="153.9" cy="53.6" r="11.6"/>
			<g>
				<path class="st1" d="M158.7,51.5c-1.9,1.9-4.8,2.1-4.8,2.1s0.2-2.9,2.1-4.8c1.9-1.9,4.8-2.1,4.8-2.1S160.6,49.6,158.7,51.5z"/>
				<path class="st1" d="M151.8,48.8c1.9,1.9,2.1,4.8,2.1,4.8s-2.9-0.2-4.8-2.1c-1.9-1.9-2.1-4.8-2.1-4.8S149.9,46.9,151.8,48.8z"/>
				<path class="st1" d="M149.2,55.7c1.9-1.9,4.8-2.1,4.8-2.1s-0.2,2.9-2.1,4.8c-1.9,1.9-4.8,2.1-4.8,2.1S147.3,57.6,149.2,55.7z"/>
				<path class="st1" d="M156.1,58.4c-1.9-1.9-2.1-4.8-2.1-4.8s2.9,0.2,4.8,2.1c1.9,1.9,2.1,4.8,2.1,4.8S158,60.3,156.1,58.4z"/>
				<path class="st2" d="M156.8,46.1c0,4.1-2.9,7.5-2.9,7.5s-2.9-3.3-2.9-7.5s2.9-7.5,2.9-7.5S156.8,42,156.8,46.1z"/>
				<path class="st2" d="M146.5,50.7c4.1,0,7.5,2.9,7.5,2.9s-3.3,2.9-7.5,2.9c-4.1,0-7.5-2.9-7.5-2.9S142.3,50.7,146.5,50.7z"/>
				<path class="st2" d="M151.1,61.1c0-4.1,2.9-7.5,2.9-7.5s2.9,3.3,2.9,7.5s-2.9,7.5-2.9,7.5S151.1,65.2,151.1,61.1z"/>
				<path class="st2" d="M161.4,56.5c-4.1,0-7.5-2.9-7.5-2.9s3.3-2.9,7.5-2.9c4.1,0,7.5,2.9,7.5,2.9S165.5,56.5,161.4,56.5z"/>
				<circle class="st3" cx="153.9" cy="53.6" r="1.9"/>
			</g>
		</g>
		<g>
			<circle class="st0" cx="153.9" cy="193" r="11.6"/>
			<g>
				<path class="st1" d="M158.7,190.9c-1.9,1.9-4.8,2.1-4.8,2.1s0.2-2.9,2.1-4.8c1.9-1.9,4.8-2.1,4.8-2.1S160.6,189,158.7,190.9z"/>
				<path class="st1" d="M151.8,188.2c1.9,1.9,2.1,4.8,2.1,4.8s-2.9-0.2-4.8-2.1c-1.9-1.9-2.1-4.8-2.1-4.8S149.9,186.3,151.8,188.2z
					"/>
				<path class="st1" d="M149.2,195.1c1.9-1.9,4.8-2.1,4.8-2.1s-0.2,2.9-2.1,4.8c-1.9,1.9-4.8,2.1-4.8,2.1S147.3,197,149.2,195.1z"
					/>
				<path class="st1" d="M156.1,197.8c-1.9-1.9-2.1-4.8-2.1-4.8s2.9,0.2,4.8,2.1c1.9,1.9,2.1,4.8,2.1,4.8S158,199.7,156.1,197.8z"/>
				<path class="st2" d="M156.8,185.5c0,4.1-2.9,7.5-2.9,7.5s-2.9-3.3-2.9-7.5s2.9-7.5,2.9-7.5S156.8,181.4,156.8,185.5z"/>
				<path class="st2" d="M146.5,190.1c4.1,0,7.5,2.9,7.5,2.9s-3.3,2.9-7.5,2.9c-4.1,0-7.5-2.9-7.5-2.9S142.3,190.1,146.5,190.1z"/>
				<path class="st2" d="M151.1,200.5c0-4.1,2.9-7.5,2.9-7.5s2.9,3.3,2.9,7.5s-2.9,7.5-2.9,7.5S151.1,204.6,151.1,200.5z"/>
				<path class="st2" d="M161.4,195.9c-4.1,0-7.5-2.9-7.5-2.9s3.3-2.9,7.5-2.9c4.1,0,7.5,2.9,7.5,2.9S165.5,195.9,161.4,195.9z"/>
				<circle class="st3" cx="153.9" cy="193" r="1.9"/>
			</g>
		</g>
		<g>
			<circle class="st0" cx="131.3" cy="176.8" r="11.6"/>
			<g>
				<path class="st1" d="M136.1,174.7c-1.9,1.9-4.8,2.1-4.8,2.1s0.2-2.9,2.1-4.8c1.9-1.9,4.8-2.1,4.8-2.1S138,172.8,136.1,174.7z"/>
				<path class="st1" d="M129.2,172c1.9,1.9,2.1,4.8,2.1,4.8s-2.9-0.2-4.8-2.1c-1.9-1.9-2.1-4.8-2.1-4.8S127.3,170.1,129.2,172z"/>
				<path class="st1" d="M126.5,178.9c1.9-1.9,4.8-2.1,4.8-2.1s-0.2,2.9-2.1,4.8c-1.9,1.9-4.8,2.1-4.8,2.1S124.6,180.9,126.5,178.9z
					"/>
				<path class="st1" d="M133.4,181.6c-1.9-1.9-2.1-4.8-2.1-4.8s2.9,0.2,4.8,2.1c1.9,1.9,2.1,4.8,2.1,4.8S135.3,183.5,133.4,181.6z"
					/>
				<path class="st2" d="M134.2,169.4c0,4.1-2.9,7.5-2.9,7.5s-2.9-3.3-2.9-7.5s2.9-7.5,2.9-7.5S134.2,165.2,134.2,169.4z"/>
				<path class="st2" d="M123.8,173.9c4.1,0,7.5,2.9,7.5,2.9s-3.3,2.9-7.5,2.9c-4.1,0-7.5-2.9-7.5-2.9S119.7,173.9,123.8,173.9z"/>
				<path class="st2" d="M128.4,184.3c0-4.1,2.9-7.5,2.9-7.5s2.9,3.3,2.9,7.5s-2.9,7.5-2.9,7.5S128.4,188.4,128.4,184.3z"/>
				<path class="st2" d="M138.8,179.7c-4.1,0-7.5-2.9-7.5-2.9s3.3-2.9,7.5-2.9s7.5,2.9,7.5,2.9S142.9,179.7,138.8,179.7z"/>
				<circle class="st3" cx="131.3" cy="176.8" r="1.9"/>
			</g>
		</g>
		<g>
			<circle class="st0" cx="131.3" cy="113.2" r="11.6"/>
			<g>
				<path class="st1" d="M136.1,111.1c-1.9,1.9-4.8,2.1-4.8,2.1s0.2-2.9,2.1-4.8c1.9-1.9,4.8-2.1,4.8-2.1S138,109.1,136.1,111.1z"/>
				<path class="st1" d="M129.2,108.4c1.9,1.9,2.1,4.8,2.1,4.8s-2.9-0.2-4.8-2.1c-1.9-1.9-2.1-4.8-2.1-4.8S127.3,106.5,129.2,108.4z
					"/>
				<path class="st1" d="M126.5,115.3c1.9-1.9,4.8-2.1,4.8-2.1s-0.2,2.9-2.1,4.8c-1.9,1.9-4.8,2.1-4.8,2.1S124.6,117.2,126.5,115.3z
					"/>
				<path class="st1" d="M133.4,118c-1.9-1.9-2.1-4.8-2.1-4.8s2.9,0.2,4.8,2.1c1.9,1.9,2.1,4.8,2.1,4.8S135.3,119.9,133.4,118z"/>
				<path class="st2" d="M134.2,105.7c0,4.1-2.9,7.5-2.9,7.5s-2.9-3.3-2.9-7.5c0-4.1,2.9-7.5,2.9-7.5S134.2,101.6,134.2,105.7z"/>
				<path class="st2" d="M123.8,110.3c4.1,0,7.5,2.9,7.5,2.9s-3.3,2.9-7.5,2.9c-4.1,0-7.5-2.9-7.5-2.9S119.7,110.3,123.8,110.3z"/>
				<path class="st2" d="M128.4,120.6c0-4.1,2.9-7.5,2.9-7.5s2.9,3.3,2.9,7.5s-2.9,7.5-2.9,7.5S128.4,124.8,128.4,120.6z"/>
				<path class="st2" d="M138.8,116.1c-4.1,0-7.5-2.9-7.5-2.9s3.3-2.9,7.5-2.9s7.5,2.9,7.5,2.9S142.9,116.1,138.8,116.1z"/>
				<circle class="st3" cx="131.3" cy="113.2" r="1.9"/>
			</g>
		</g>
		<g>
			<circle class="st0" cx="176.4" cy="145" r="11.6"/>
			<g>
				<path class="st1" d="M181.1,142.9c-1.9,1.9-4.8,2.1-4.8,2.1s0.2-2.9,2.1-4.8c1.9-1.9,4.8-2.1,4.8-2.1S183.1,141,181.1,142.9z"/>
				<path class="st1" d="M174.2,140.2c1.9,1.9,2.1,4.8,2.1,4.8s-2.9-0.2-4.8-2.1c-1.9-1.9-2.1-4.8-2.1-4.8S172.3,138.3,174.2,140.2z
					"/>
				<path class="st1" d="M171.6,147.1c1.9-1.9,4.8-2.1,4.8-2.1s-0.2,2.9-2.1,4.8c-1.9,1.9-4.8,2.1-4.8,2.1S169.7,149,171.6,147.1z"
					/>
				<path class="st1" d="M178.5,149.8c-1.9-1.9-2.1-4.8-2.1-4.8s2.9,0.2,4.8,2.1c1.9,1.9,2.1,4.8,2.1,4.8S180.4,151.7,178.5,149.8z"
					/>
				<path class="st2" d="M179.2,137.5c0,4.1-2.9,7.5-2.9,7.5s-2.9-3.3-2.9-7.5c0-4.1,2.9-7.5,2.9-7.5S179.2,133.4,179.2,137.5z"/>
				<path class="st2" d="M168.9,142.1c4.1,0,7.5,2.9,7.5,2.9s-3.3,2.9-7.5,2.9c-4.1,0-7.5-2.9-7.5-2.9S164.8,142.1,168.9,142.1z"/>
				<path class="st2" d="M173.5,152.5c0-4.1,2.9-7.5,2.9-7.5s2.9,3.3,2.9,7.5c0,4.1-2.9,7.5-2.9,7.5S173.5,156.6,173.5,152.5z"/>
				<path class="st2" d="M183.8,147.9c-4.1,0-7.5-2.9-7.5-2.9s3.3-2.9,7.5-2.9s7.5,2.9,7.5,2.9S188,147.9,183.8,147.9z"/>
				<circle class="st3" cx="176.4" cy="145" r="1.9"/>
			</g>
		</g>
		<g>
			<circle class="st0" cx="176.4" cy="176.8" r="11.6"/>
			<g>
				<path class="st1" d="M181.1,174.7c-1.9,1.9-4.8,2.1-4.8,2.1s0.2-2.9,2.1-4.8c1.9-1.9,4.8-2.1,4.8-2.1S183.1,172.8,181.1,174.7z"
					/>
				<path class="st1" d="M174.2,172c1.9,1.9,2.1,4.8,2.1,4.8s-2.9-0.2-4.8-2.1c-1.9-1.9-2.1-4.8-2.1-4.8S172.3,170.1,174.2,172z"/>
				<path class="st1" d="M171.6,178.9c1.9-1.9,4.8-2.1,4.8-2.1s-0.2,2.9-2.1,4.8c-1.9,1.9-4.8,2.1-4.8,2.1S169.7,180.9,171.6,178.9z
					"/>
				<path class="st1" d="M178.5,181.6c-1.9-1.9-2.1-4.8-2.1-4.8s2.9,0.2,4.8,2.1c1.9,1.9,2.1,4.8,2.1,4.8S180.4,183.5,178.5,181.6z"
					/>
				<path class="st2" d="M179.2,169.4c0,4.1-2.9,7.5-2.9,7.5s-2.9-3.3-2.9-7.5s2.9-7.5,2.9-7.5S179.2,165.2,179.2,169.4z"/>
				<path class="st2" d="M168.9,173.9c4.1,0,7.5,2.9,7.5,2.9s-3.3,2.9-7.5,2.9c-4.1,0-7.5-2.9-7.5-2.9S164.8,173.9,168.9,173.9z"/>
				<path class="st2" d="M173.5,184.3c0-4.1,2.9-7.5,2.9-7.5s2.9,3.3,2.9,7.5s-2.9,7.5-2.9,7.5S173.5,188.4,173.5,184.3z"/>
				<path class="st2" d="M183.8,179.7c-4.1,0-7.5-2.9-7.5-2.9s3.3-2.9,7.5-2.9s7.5,2.9,7.5,2.9S188,179.7,183.8,179.7z"/>
				<circle class="st3" cx="176.4" cy="176.8" r="1.9"/>
			</g>
		</g>
		<g>
			<circle class="st0" cx="176.4" cy="113.2" r="11.6"/>
			<g>
				<path class="st1" d="M181.1,111.1c-1.9,1.9-4.8,2.1-4.8,2.1s0.2-2.9,2.1-4.8c1.9-1.9,4.8-2.1,4.8-2.1S183.1,109.1,181.1,111.1z"
					/>
				<path class="st1" d="M174.2,108.4c1.9,1.9,2.1,4.8,2.1,4.8s-2.9-0.2-4.8-2.1c-1.9-1.9-2.1-4.8-2.1-4.8S172.3,106.5,174.2,108.4z
					"/>
				<path class="st1" d="M171.6,115.3c1.9-1.9,4.8-2.1,4.8-2.1s-0.2,2.9-2.1,4.8c-1.9,1.9-4.8,2.1-4.8,2.1S169.7,117.2,171.6,115.3z
					"/>
				<path class="st1" d="M178.5,118c-1.9-1.9-2.1-4.8-2.1-4.8s2.9,0.2,4.8,2.1c1.9,1.9,2.1,4.8,2.1,4.8S180.4,119.9,178.5,118z"/>
				<path class="st2" d="M179.2,105.7c0,4.1-2.9,7.5-2.9,7.5s-2.9-3.3-2.9-7.5c0-4.1,2.9-7.5,2.9-7.5S179.2,101.6,179.2,105.7z"/>
				<path class="st2" d="M168.9,110.3c4.1,0,7.5,2.9,7.5,2.9s-3.3,2.9-7.5,2.9c-4.1,0-7.5-2.9-7.5-2.9S164.8,110.3,168.9,110.3z"/>
				<path class="st2" d="M173.5,120.6c0-4.1,2.9-7.5,2.9-7.5s2.9,3.3,2.9,7.5s-2.9,7.5-2.9,7.5S173.5,124.8,173.5,120.6z"/>
				<path class="st2" d="M183.8,116.1c-4.1,0-7.5-2.9-7.5-2.9s3.3-2.9,7.5-2.9s7.5,2.9,7.5,2.9S188,116.1,183.8,116.1z"/>
				<circle class="st3" cx="176.4" cy="113.2" r="1.9"/>
			</g>
		</g>
		<g>
			<circle class="st0" cx="153.9" cy="273.9" r="11.6"/>
			<g>
				<path class="st1" d="M158.7,271.8c-1.9,1.9-4.8,2.1-4.8,2.1s0.2-2.9,2.1-4.8c1.9-1.9,4.8-2.1,4.8-2.1S160.6,269.9,158.7,271.8z"
					/>
				<path class="st1" d="M151.8,269.1c1.9,1.9,2.1,4.8,2.1,4.8s-2.9-0.2-4.8-2.1c-1.9-1.9-2.1-4.8-2.1-4.8S149.9,267.2,151.8,269.1z
					"/>
				<path class="st1" d="M149.2,276c1.9-1.9,4.8-2.1,4.8-2.1s-0.2,2.9-2.1,4.8c-1.9,1.9-4.8,2.1-4.8,2.1S147.3,277.9,149.2,276z"/>
				<path class="st1" d="M156.1,278.7c-1.9-1.9-2.1-4.8-2.1-4.8s2.9,0.2,4.8,2.1c1.9,1.9,2.1,4.8,2.1,4.8S158,280.6,156.1,278.7z"/>
				<path class="st2" d="M156.8,266.4c0,4.1-2.9,7.5-2.9,7.5s-2.9-3.3-2.9-7.5s2.9-7.5,2.9-7.5S156.8,262.3,156.8,266.4z"/>
				<path class="st2" d="M146.5,271c4.1,0,7.5,2.9,7.5,2.9s-3.3,2.9-7.5,2.9c-4.1,0-7.5-2.9-7.5-2.9S142.3,271,146.5,271z"/>
				<path class="st2" d="M151.1,281.4c0-4.1,2.9-7.5,2.9-7.5s2.9,3.3,2.9,7.5s-2.9,7.5-2.9,7.5S151.1,285.5,151.1,281.4z"/>
				<path class="st2" d="M161.4,276.8c-4.1,0-7.5-2.9-7.5-2.9s3.3-2.9,7.5-2.9c4.1,0,7.5,2.9,7.5,2.9S165.5,276.8,161.4,276.8z"/>
				<circle class="st3" cx="153.9" cy="273.9" r="1.9"/>
			</g>
		</g>
		<g>
			<circle class="st0" cx="153.9" cy="305.8" r="11.6"/>
			<g>
				<path class="st1" d="M158.7,303.7c-1.9,1.9-4.8,2.1-4.8,2.1s0.2-2.9,2.1-4.8c1.9-1.9,4.8-2.1,4.8-2.1S160.6,301.8,158.7,303.7z"
					/>
				<path class="st1" d="M151.8,301.1c1.9,1.9,2.1,4.8,2.1,4.8s-2.9-0.2-4.8-2.1c-1.9-1.9-2.1-4.8-2.1-4.8S149.9,299.2,151.8,301.1z
					"/>
				<path class="st1" d="M149.2,308c1.9-1.9,4.8-2.1,4.8-2.1s-0.2,2.9-2.1,4.8c-1.9,1.9-4.8,2.1-4.8,2.1S147.3,309.9,149.2,308z"/>
				<path class="st1" d="M156.1,310.6c-1.9-1.9-2.1-4.8-2.1-4.8s2.9,0.2,4.8,2.1c1.9,1.9,2.1,4.8,2.1,4.8S158,312.5,156.1,310.6z"/>
				<path class="st2" d="M156.8,298.4c0,4.1-2.9,7.5-2.9,7.5s-2.9-3.3-2.9-7.5s2.9-7.5,2.9-7.5S156.8,294.2,156.8,298.4z"/>
				<path class="st2" d="M146.5,303c4.1,0,7.5,2.9,7.5,2.9s-3.3,2.9-7.5,2.9c-4.1,0-7.5-2.9-7.5-2.9S142.3,303,146.5,303z"/>
				<path class="st2" d="M151.1,313.3c0-4.1,2.9-7.5,2.9-7.5s2.9,3.3,2.9,7.5s-2.9,7.5-2.9,7.5S151.1,317.4,151.1,313.3z"/>
				<path class="st2" d="M161.4,308.7c-4.1,0-7.5-2.9-7.5-2.9s3.3-2.9,7.5-2.9c4.1,0,7.5,2.9,7.5,2.9S165.5,308.7,161.4,308.7z"/>
				<circle class="st3" cx="153.9" cy="305.8" r="1.9"/>
			</g>
		</g>
		<g>
			<circle class="st0" cx="131.3" cy="289.8" r="11.6"/>
			<g>
				<path class="st1" d="M136.1,287.7c-1.9,1.9-4.8,2.1-4.8,2.1s0.2-2.9,2.1-4.8c1.9-1.9,4.8-2.1,4.8-2.1S138,285.8,136.1,287.7z"/>
				<path class="st1" d="M129.2,285c1.9,1.9,2.1,4.8,2.1,4.8s-2.9-0.2-4.8-2.1c-1.9-1.9-2.1-4.8-2.1-4.8S127.3,283.1,129.2,285z"/>
				<path class="st1" d="M126.5,291.9c1.9-1.9,4.8-2.1,4.8-2.1s-0.2,2.9-2.1,4.8c-1.9,1.9-4.8,2.1-4.8,2.1S124.6,293.8,126.5,291.9z
					"/>
				<path class="st1" d="M133.4,294.6c-1.9-1.9-2.1-4.8-2.1-4.8s2.9,0.2,4.8,2.1c1.9,1.9,2.1,4.8,2.1,4.8S135.3,296.5,133.4,294.6z"
					/>
				<path class="st2" d="M134.2,282.3c0,4.1-2.9,7.5-2.9,7.5s-2.9-3.3-2.9-7.5s2.9-7.5,2.9-7.5S134.2,278.2,134.2,282.3z"/>
				<path class="st2" d="M123.8,286.9c4.1,0,7.5,2.9,7.5,2.9s-3.3,2.9-7.5,2.9c-4.1,0-7.5-2.9-7.5-2.9S119.7,286.9,123.8,286.9z"/>
				<path class="st2" d="M128.4,297.3c0-4.1,2.9-7.5,2.9-7.5s2.9,3.3,2.9,7.5s-2.9,7.5-2.9,7.5S128.4,301.4,128.4,297.3z"/>
				<path class="st2" d="M138.8,292.7c-4.1,0-7.5-2.9-7.5-2.9s3.3-2.9,7.5-2.9s7.5,2.9,7.5,2.9S142.9,292.7,138.8,292.7z"/>
				<circle class="st3" cx="131.3" cy="289.8" r="1.9"/>
			</g>
		</g>
		<g>
			<circle class="st0" cx="153.9" cy="242" r="11.6"/>
			<g>
				<path class="st1" d="M158.7,239.8c-1.9,1.9-4.8,2.1-4.8,2.1s0.2-2.9,2.1-4.8c1.9-1.9,4.8-2.1,4.8-2.1S160.6,237.9,158.7,239.8z"
					/>
				<path class="st1" d="M151.8,237.2c1.9,1.9,2.1,4.8,2.1,4.8s-2.9-0.2-4.8-2.1c-1.9-1.9-2.1-4.8-2.1-4.8S149.9,235.3,151.8,237.2z
					"/>
				<path class="st1" d="M149.2,244.1c1.9-1.9,4.8-2.1,4.8-2.1s-0.2,2.9-2.1,4.8c-1.9,1.9-4.8,2.1-4.8,2.1S147.3,246,149.2,244.1z"
					/>
				<path class="st1" d="M156.1,246.7c-1.9-1.9-2.1-4.8-2.1-4.8s2.9,0.2,4.8,2.1c1.9,1.9,2.1,4.8,2.1,4.8S158,248.6,156.1,246.7z"/>
				<path class="st2" d="M156.8,234.5c0,4.1-2.9,7.5-2.9,7.5s-2.9-3.3-2.9-7.5s2.9-7.5,2.9-7.5S156.8,230.4,156.8,234.5z"/>
				<path class="st2" d="M146.5,239.1c4.1,0,7.5,2.9,7.5,2.9s-3.3,2.9-7.5,2.9c-4.1,0-7.5-2.9-7.5-2.9S142.3,239.1,146.5,239.1z"/>
				<path class="st2" d="M151.1,249.4c0-4.1,2.9-7.5,2.9-7.5s2.9,3.3,2.9,7.5s-2.9,7.5-2.9,7.5S151.1,253.6,151.1,249.4z"/>
				<path class="st2" d="M161.4,244.8c-4.1,0-7.5-2.9-7.5-2.9s3.3-2.9,7.5-2.9c4.1,0,7.5,2.9,7.5,2.9S165.5,244.8,161.4,244.8z"/>
				<circle class="st3" cx="153.9" cy="242" r="1.9"/>
			</g>
		</g>
		<g>
			<circle class="st0" cx="153.9" cy="337.8" r="11.6"/>
			<g>
				<path class="st1" d="M158.7,335.7c-1.9,1.9-4.8,2.1-4.8,2.1s0.2-2.9,2.1-4.8c1.9-1.9,4.8-2.1,4.8-2.1S160.6,333.8,158.7,335.7z"
					/>
				<path class="st1" d="M151.8,333c1.9,1.9,2.1,4.8,2.1,4.8s-2.9-0.2-4.8-2.1c-1.9-1.9-2.1-4.8-2.1-4.8S149.9,331.1,151.8,333z"/>
				<path class="st1" d="M149.2,339.9c1.9-1.9,4.8-2.1,4.8-2.1s-0.2,2.9-2.1,4.8c-1.9,1.9-4.8,2.1-4.8,2.1S147.3,341.8,149.2,339.9z
					"/>
				<path class="st1" d="M156.1,342.6c-1.9-1.9-2.1-4.8-2.1-4.8s2.9,0.2,4.8,2.1c1.9,1.9,2.1,4.8,2.1,4.8S158,344.5,156.1,342.6z"/>
				<path class="st2" d="M156.8,330.3c0,4.1-2.9,7.5-2.9,7.5s-2.9-3.3-2.9-7.5s2.9-7.5,2.9-7.5S156.8,326.2,156.8,330.3z"/>
				<path class="st2" d="M146.5,334.9c4.1,0,7.5,2.9,7.5,2.9s-3.3,2.9-7.5,2.9c-4.1,0-7.5-2.9-7.5-2.9S142.3,334.9,146.5,334.9z"/>
				<path class="st2" d="M151.1,345.3c0-4.1,2.9-7.5,2.9-7.5s2.9,3.3,2.9,7.5s-2.9,7.5-2.9,7.5S151.1,349.4,151.1,345.3z"/>
				<path class="st2" d="M161.4,340.7c-4.1,0-7.5-2.9-7.5-2.9s3.3-2.9,7.5-2.9c4.1,0,7.5,2.9,7.5,2.9S165.5,340.7,161.4,340.7z"/>
				<circle class="st3" cx="153.9" cy="337.8" r="1.9"/>
			</g>
		</g>
		<g>
			<circle class="st0" cx="131.3" cy="321.6" r="11.6"/>
			<g>
				<path class="st1" d="M136.1,319.5c-1.9,1.9-4.8,2.1-4.8,2.1s0.2-2.9,2.1-4.8c1.9-1.9,4.8-2.1,4.8-2.1S138,317.6,136.1,319.5z"/>
				<path class="st1" d="M129.2,316.8c1.9,1.9,2.1,4.8,2.1,4.8s-2.9-0.2-4.8-2.1c-1.9-1.9-2.1-4.8-2.1-4.8S127.3,314.9,129.2,316.8z
					"/>
				<path class="st1" d="M126.5,323.7c1.9-1.9,4.8-2.1,4.8-2.1s-0.2,2.9-2.1,4.8c-1.9,1.9-4.8,2.1-4.8,2.1S124.6,325.6,126.5,323.7z
					"/>
				<path class="st1" d="M133.4,326.4c-1.9-1.9-2.1-4.8-2.1-4.8s2.9,0.2,4.8,2.1c1.9,1.9,2.1,4.8,2.1,4.8S135.3,328.3,133.4,326.4z"
					/>
				<path class="st2" d="M134.2,314.1c0,4.1-2.9,7.5-2.9,7.5s-2.9-3.3-2.9-7.5s2.9-7.5,2.9-7.5S134.2,310,134.2,314.1z"/>
				<path class="st2" d="M123.8,318.7c4.1,0,7.5,2.9,7.5,2.9s-3.3,2.9-7.5,2.9c-4.1,0-7.5-2.9-7.5-2.9S119.7,318.7,123.8,318.7z"/>
				<path class="st2" d="M128.4,329.1c0-4.1,2.9-7.5,2.9-7.5s2.9,3.3,2.9,7.5s-2.9,7.5-2.9,7.5S128.4,333.2,128.4,329.1z"/>
				<path class="st2" d="M138.8,324.5c-4.1,0-7.5-2.9-7.5-2.9s3.3-2.9,7.5-2.9s7.5,2.9,7.5,2.9S142.9,324.5,138.8,324.5z"/>
				<circle class="st3" cx="131.3" cy="321.6" r="1.9"/>
			</g>
		</g>
		<g>
			<circle class="st0" cx="131.3" cy="258" r="11.6"/>
			<g>
				<path class="st1" d="M136.1,255.8c-1.9,1.9-4.8,2.1-4.8,2.1s0.2-2.9,2.1-4.8c1.9-1.9,4.8-2.1,4.8-2.1S138,253.9,136.1,255.8z"/>
				<path class="st1" d="M129.2,253.2c1.9,1.9,2.1,4.8,2.1,4.8s-2.9-0.2-4.8-2.1c-1.9-1.9-2.1-4.8-2.1-4.8S127.3,251.3,129.2,253.2z
					"/>
				<path class="st1" d="M126.5,260.1c1.9-1.9,4.8-2.1,4.8-2.1s-0.2,2.9-2.1,4.8c-1.9,1.9-4.8,2.1-4.8,2.1S124.6,262,126.5,260.1z"
					/>
				<path class="st1" d="M133.4,262.7c-1.9-1.9-2.1-4.8-2.1-4.8s2.9,0.2,4.8,2.1c1.9,1.9,2.1,4.8,2.1,4.8S135.3,264.6,133.4,262.7z"
					/>
				<path class="st2" d="M134.2,250.5c0,4.1-2.9,7.5-2.9,7.5s-2.9-3.3-2.9-7.5s2.9-7.5,2.9-7.5S134.2,246.4,134.2,250.5z"/>
				<path class="st2" d="M123.8,255.1c4.1,0,7.5,2.9,7.5,2.9s-3.3,2.9-7.5,2.9c-4.1,0-7.5-2.9-7.5-2.9S119.7,255.1,123.8,255.1z"/>
				<path class="st2" d="M128.4,265.4c0-4.1,2.9-7.5,2.9-7.5s2.9,3.3,2.9,7.5c0,4.1-2.9,7.5-2.9,7.5S128.4,269.6,128.4,265.4z"/>
				<path class="st2" d="M138.8,260.8c-4.1,0-7.5-2.9-7.5-2.9s3.3-2.9,7.5-2.9s7.5,2.9,7.5,2.9S142.9,260.8,138.8,260.8z"/>
				<circle class="st3" cx="131.3" cy="258" r="1.9"/>
			</g>
		</g>
		<g>
			<circle class="st0" cx="176.4" cy="289.8" r="11.6"/>
			<g>
				<path class="st1" d="M181.1,287.7c-1.9,1.9-4.8,2.1-4.8,2.1s0.2-2.9,2.1-4.8c1.9-1.9,4.8-2.1,4.8-2.1S183.1,285.8,181.1,287.7z"
					/>
				<path class="st1" d="M174.2,285c1.9,1.9,2.1,4.8,2.1,4.8s-2.9-0.2-4.8-2.1c-1.9-1.9-2.1-4.8-2.1-4.8S172.3,283.1,174.2,285z"/>
				<path class="st1" d="M171.6,291.9c1.9-1.9,4.8-2.1,4.8-2.1s-0.2,2.9-2.1,4.8c-1.9,1.9-4.8,2.1-4.8,2.1S169.7,293.8,171.6,291.9z
					"/>
				<path class="st1" d="M178.5,294.6c-1.9-1.9-2.1-4.8-2.1-4.8s2.9,0.2,4.8,2.1c1.9,1.9,2.1,4.8,2.1,4.8S180.4,296.5,178.5,294.6z"
					/>
				<path class="st2" d="M179.2,282.3c0,4.1-2.9,7.5-2.9,7.5s-2.9-3.3-2.9-7.5s2.9-7.5,2.9-7.5S179.2,278.2,179.2,282.3z"/>
				<path class="st2" d="M168.9,286.9c4.1,0,7.5,2.9,7.5,2.9s-3.3,2.9-7.5,2.9c-4.1,0-7.5-2.9-7.5-2.9S164.8,286.9,168.9,286.9z"/>
				<path class="st2" d="M173.5,297.3c0-4.1,2.9-7.5,2.9-7.5s2.9,3.3,2.9,7.5s-2.9,7.5-2.9,7.5S173.5,301.4,173.5,297.3z"/>
				<path class="st2" d="M183.8,292.7c-4.1,0-7.5-2.9-7.5-2.9s3.3-2.9,7.5-2.9s7.5,2.9,7.5,2.9S188,292.7,183.8,292.7z"/>
				<circle class="st3" cx="176.4" cy="289.8" r="1.9"/>
			</g>
		</g>
		<g>
			<circle class="st0" cx="176.4" cy="321.6" r="11.6"/>
			<g>
				<path class="st1" d="M181.1,319.5c-1.9,1.9-4.8,2.1-4.8,2.1s0.2-2.9,2.1-4.8c1.9-1.9,4.8-2.1,4.8-2.1S183.1,317.6,181.1,319.5z"
					/>
				<path class="st1" d="M174.2,316.8c1.9,1.9,2.1,4.8,2.1,4.8s-2.9-0.2-4.8-2.1c-1.9-1.9-2.1-4.8-2.1-4.8S172.3,314.9,174.2,316.8z
					"/>
				<path class="st1" d="M171.6,323.7c1.9-1.9,4.8-2.1,4.8-2.1s-0.2,2.9-2.1,4.8c-1.9,1.9-4.8,2.1-4.8,2.1S169.7,325.6,171.6,323.7z
					"/>
				<path class="st1" d="M178.5,326.4c-1.9-1.9-2.1-4.8-2.1-4.8s2.9,0.2,4.8,2.1c1.9,1.9,2.1,4.8,2.1,4.8S180.4,328.3,178.5,326.4z"
					/>
				<path class="st2" d="M179.2,314.1c0,4.1-2.9,7.5-2.9,7.5s-2.9-3.3-2.9-7.5s2.9-7.5,2.9-7.5S179.2,310,179.2,314.1z"/>
				<path class="st2" d="M168.9,318.7c4.1,0,7.5,2.9,7.5,2.9s-3.3,2.9-7.5,2.9c-4.1,0-7.5-2.9-7.5-2.9S164.8,318.7,168.9,318.7z"/>
				<path class="st2" d="M173.5,329.1c0-4.1,2.9-7.5,2.9-7.5s2.9,3.3,2.9,7.5s-2.9,7.5-2.9,7.5S173.5,333.2,173.5,329.1z"/>
				<path class="st2" d="M183.8,324.5c-4.1,0-7.5-2.9-7.5-2.9s3.3-2.9,7.5-2.9s7.5,2.9,7.5,2.9S188,324.5,183.8,324.5z"/>
				<circle class="st3" cx="176.4" cy="321.6" r="1.9"/>
			</g>
		</g>
		<g>
			<circle class="st0" cx="176.4" cy="258" r="11.6"/>
			<g>
				<path class="st1" d="M181.1,255.8c-1.9,1.9-4.8,2.1-4.8,2.1s0.2-2.9,2.1-4.8c1.9-1.9,4.8-2.1,4.8-2.1S183.1,253.9,181.1,255.8z"
					/>
				<path class="st1" d="M174.2,253.2c1.9,1.9,2.1,4.8,2.1,4.8s-2.9-0.2-4.8-2.1c-1.9-1.9-2.1-4.8-2.1-4.8S172.3,251.3,174.2,253.2z
					"/>
				<path class="st1" d="M171.6,260.1c1.9-1.9,4.8-2.1,4.8-2.1s-0.2,2.9-2.1,4.8c-1.9,1.9-4.8,2.1-4.8,2.1S169.7,262,171.6,260.1z"
					/>
				<path class="st1" d="M178.5,262.7c-1.9-1.9-2.1-4.8-2.1-4.8s2.9,0.2,4.8,2.1c1.9,1.9,2.1,4.8,2.1,4.8S180.4,264.6,178.5,262.7z"
					/>
				<path class="st2" d="M179.2,250.5c0,4.1-2.9,7.5-2.9,7.5s-2.9-3.3-2.9-7.5s2.9-7.5,2.9-7.5S179.2,246.4,179.2,250.5z"/>
				<path class="st2" d="M168.9,255.1c4.1,0,7.5,2.9,7.5,2.9s-3.3,2.9-7.5,2.9c-4.1,0-7.5-2.9-7.5-2.9S164.8,255.1,168.9,255.1z"/>
				<path class="st2" d="M173.5,265.4c0-4.1,2.9-7.5,2.9-7.5s2.9,3.3,2.9,7.5c0,4.1-2.9,7.5-2.9,7.5S173.5,269.6,173.5,265.4z"/>
				<path class="st2" d="M183.8,260.8c-4.1,0-7.5-2.9-7.5-2.9s3.3-2.9,7.5-2.9s7.5,2.9,7.5,2.9S188,260.8,183.8,260.8z"/>
				<circle class="st3" cx="176.4" cy="258" r="1.9"/>
			</g>
		</g>
	</g>
	<g>
		<g>
			<circle class="st0" cx="246.3" cy="97.4" r="11.6"/>
			<g>
				<path class="st1" d="M251.1,95.3c-1.9,1.9-4.8,2.1-4.8,2.1s0.2-2.9,2.1-4.8c1.9-1.9,4.8-2.1,4.8-2.1S253,93.4,251.1,95.3z"/>
				<path class="st1" d="M244.2,92.6c1.9,1.9,2.1,4.8,2.1,4.8s-2.9-0.2-4.8-2.1c-1.9-1.9-2.1-4.8-2.1-4.8S242.3,90.7,244.2,92.6z"/>
				<path class="st1" d="M241.5,99.5c1.9-1.9,4.8-2.1,4.8-2.1s-0.2,2.9-2.1,4.8c-1.9,1.9-4.8,2.1-4.8,2.1S239.6,101.4,241.5,99.5z"
					/>
				<path class="st1" d="M248.4,102.2c-1.9-1.9-2.1-4.8-2.1-4.8s2.9,0.2,4.8,2.1c1.9,1.9,2.1,4.8,2.1,4.8S250.3,104.1,248.4,102.2z"
					/>
				<path class="st2" d="M249.2,89.9c0,4.1-2.9,7.5-2.9,7.5s-2.9-3.3-2.9-7.5c0-4.1,2.9-7.5,2.9-7.5S249.2,85.8,249.2,89.9z"/>
				<path class="st2" d="M238.8,94.5c4.1,0,7.5,2.9,7.5,2.9s-3.3,2.9-7.5,2.9s-7.5-2.9-7.5-2.9S234.7,94.5,238.8,94.5z"/>
				<path class="st2" d="M243.4,104.9c0-4.1,2.9-7.5,2.9-7.5s2.9,3.3,2.9,7.5c0,4.1-2.9,7.5-2.9,7.5S243.4,109,243.4,104.9z"/>
				<path class="st2" d="M253.8,100.3c-4.1,0-7.5-2.9-7.5-2.9s3.3-2.9,7.5-2.9c4.1,0,7.5,2.9,7.5,2.9S257.9,100.3,253.8,100.3z"/>
				<circle class="st3" cx="246.3" cy="97.4" r="1.9"/>
			</g>
		</g>
		<g>
			<circle class="st0" cx="246.3" cy="129.3" r="11.6"/>
			<g>
				<path class="st1" d="M251.1,127.2c-1.9,1.9-4.8,2.1-4.8,2.1s0.2-2.9,2.1-4.8c1.9-1.9,4.8-2.1,4.8-2.1S253,125.3,251.1,127.2z"/>
				<path class="st1" d="M244.2,124.5c1.9,1.9,2.1,4.8,2.1,4.8s-2.9-0.2-4.8-2.1c-1.9-1.9-2.1-4.8-2.1-4.8S242.3,122.6,244.2,124.5z
					"/>
				<path class="st1" d="M241.5,131.5c1.9-1.9,4.8-2.1,4.8-2.1s-0.2,2.9-2.1,4.8c-1.9,1.9-4.8,2.1-4.8,2.1S239.6,133.4,241.5,131.5z
					"/>
				<path class="st1" d="M248.4,134.1c-1.9-1.9-2.1-4.8-2.1-4.8s2.9,0.2,4.8,2.1c1.9,1.9,2.1,4.8,2.1,4.8S250.3,136,248.4,134.1z"/>
				<path class="st2" d="M249.2,121.9c0,4.1-2.9,7.5-2.9,7.5s-2.9-3.3-2.9-7.5c0-4.1,2.9-7.5,2.9-7.5S249.2,117.7,249.2,121.9z"/>
				<path class="st2" d="M238.8,126.5c4.1,0,7.5,2.9,7.5,2.9s-3.3,2.9-7.5,2.9s-7.5-2.9-7.5-2.9S234.7,126.5,238.8,126.5z"/>
				<path class="st2" d="M243.4,136.8c0-4.1,2.9-7.5,2.9-7.5s2.9,3.3,2.9,7.5s-2.9,7.5-2.9,7.5S243.4,140.9,243.4,136.8z"/>
				<path class="st2" d="M253.8,132.2c-4.1,0-7.5-2.9-7.5-2.9s3.3-2.9,7.5-2.9c4.1,0,7.5,2.9,7.5,2.9S257.9,132.2,253.8,132.2z"/>
				<circle class="st3" cx="246.3" cy="129.3" r="1.9"/>
			</g>
		</g>
		<g>
			<circle class="st0" cx="223.6" cy="113.3" r="11.6"/>
			<g>
				<path class="st1" d="M228.4,111.1c-1.9,1.9-4.8,2.1-4.8,2.1s0.2-2.9,2.1-4.8c1.9-1.9,4.8-2.1,4.8-2.1S230.3,109.2,228.4,111.1z"
					/>
				<path class="st1" d="M221.5,108.5c1.9,1.9,2.1,4.8,2.1,4.8s-2.9-0.2-4.8-2.1c-1.9-1.9-2.1-4.8-2.1-4.8S219.6,106.6,221.5,108.5z
					"/>
				<path class="st1" d="M218.9,115.4c1.9-1.9,4.8-2.1,4.8-2.1s-0.2,2.9-2.1,4.8c-1.9,1.9-4.8,2.1-4.8,2.1S216.9,117.3,218.9,115.4z
					"/>
				<path class="st1" d="M225.8,118.1c-1.9-1.9-2.1-4.8-2.1-4.8s2.9,0.2,4.8,2.1c1.9,1.9,2.1,4.8,2.1,4.8S227.7,120,225.8,118.1z"/>
				<path class="st2" d="M226.5,105.8c0,4.1-2.9,7.5-2.9,7.5s-2.9-3.3-2.9-7.5s2.9-7.5,2.9-7.5S226.5,101.7,226.5,105.8z"/>
				<path class="st2" d="M216.2,110.4c4.1,0,7.5,2.9,7.5,2.9s-3.3,2.9-7.5,2.9s-7.5-2.9-7.5-2.9S212,110.4,216.2,110.4z"/>
				<path class="st2" d="M220.8,120.7c0-4.1,2.9-7.5,2.9-7.5s2.9,3.3,2.9,7.5s-2.9,7.5-2.9,7.5S220.8,124.9,220.8,120.7z"/>
				<path class="st2" d="M231.1,116.1c-4.1,0-7.5-2.9-7.5-2.9s3.3-2.9,7.5-2.9c4.1,0,7.5,2.9,7.5,2.9S235.2,116.1,231.1,116.1z"/>
				<circle class="st3" cx="223.6" cy="113.3" r="1.9"/>
			</g>
		</g>
		<g>
			<circle class="st0" cx="246.3" cy="65.4" r="11.6"/>
			<g>
				<path class="st1" d="M251.1,63.3c-1.9,1.9-4.8,2.1-4.8,2.1s0.2-2.9,2.1-4.8c1.9-1.9,4.8-2.1,4.8-2.1S253,61.4,251.1,63.3z"/>
				<path class="st1" d="M244.2,60.7c1.9,1.9,2.1,4.8,2.1,4.8s-2.9-0.2-4.8-2.1c-1.9-1.9-2.1-4.8-2.1-4.8S242.3,58.7,244.2,60.7z"/>
				<path class="st1" d="M241.5,67.6c1.9-1.9,4.8-2.1,4.8-2.1s-0.2,2.9-2.1,4.8c-1.9,1.9-4.8,2.1-4.8,2.1S239.6,69.5,241.5,67.6z"/>
				<path class="st1" d="M248.4,70.2c-1.9-1.9-2.1-4.8-2.1-4.8s2.9,0.2,4.8,2.1c1.9,1.9,2.1,4.8,2.1,4.8S250.3,72.1,248.4,70.2z"/>
				<path class="st2" d="M249.2,58c0,4.1-2.9,7.5-2.9,7.5s-2.9-3.3-2.9-7.5s2.9-7.5,2.9-7.5S249.2,53.8,249.2,58z"/>
				<path class="st2" d="M238.8,62.6c4.1,0,7.5,2.9,7.5,2.9s-3.3,2.9-7.5,2.9s-7.5-2.9-7.5-2.9S234.7,62.6,238.8,62.6z"/>
				<path class="st2" d="M243.4,72.9c0-4.1,2.9-7.5,2.9-7.5s2.9,3.3,2.9,7.5s-2.9,7.5-2.9,7.5S243.4,77,243.4,72.9z"/>
				<path class="st2" d="M253.8,68.3c-4.1,0-7.5-2.9-7.5-2.9s3.3-2.9,7.5-2.9c4.1,0,7.5,2.9,7.5,2.9S257.9,68.3,253.8,68.3z"/>
				<circle class="st3" cx="246.3" cy="65.4" r="1.9"/>
			</g>
		</g>
		<g>
			<circle class="st0" cx="246.3" cy="161.3" r="11.6"/>
			<g>
				<path class="st1" d="M251.1,159.2c-1.9,1.9-4.8,2.1-4.8,2.1s0.2-2.9,2.1-4.8c1.9-1.9,4.8-2.1,4.8-2.1S253,157.3,251.1,159.2z"/>
				<path class="st1" d="M244.2,156.5c1.9,1.9,2.1,4.8,2.1,4.8s-2.9-0.2-4.8-2.1c-1.9-1.9-2.1-4.8-2.1-4.8S242.3,154.6,244.2,156.5z
					"/>
				<path class="st1" d="M241.5,163.4c1.9-1.9,4.8-2.1,4.8-2.1s-0.2,2.9-2.1,4.8c-1.9,1.9-4.8,2.1-4.8,2.1S239.6,165.3,241.5,163.4z
					"/>
				<path class="st1" d="M248.4,166.1c-1.9-1.9-2.1-4.8-2.1-4.8s2.9,0.2,4.8,2.1c1.9,1.9,2.1,4.8,2.1,4.8S250.3,168,248.4,166.1z"/>
				<path class="st2" d="M249.2,153.8c0,4.1-2.9,7.5-2.9,7.5s-2.9-3.3-2.9-7.5c0-4.1,2.9-7.5,2.9-7.5S249.2,149.7,249.2,153.8z"/>
				<path class="st2" d="M238.8,158.4c4.1,0,7.5,2.9,7.5,2.9s-3.3,2.9-7.5,2.9s-7.5-2.9-7.5-2.9S234.7,158.4,238.8,158.4z"/>
				<path class="st2" d="M243.4,168.8c0-4.1,2.9-7.5,2.9-7.5s2.9,3.3,2.9,7.5c0,4.1-2.9,7.5-2.9,7.5S243.4,172.9,243.4,168.8z"/>
				<path class="st2" d="M253.8,164.2c-4.1,0-7.5-2.9-7.5-2.9s3.3-2.9,7.5-2.9c4.1,0,7.5,2.9,7.5,2.9S257.9,164.2,253.8,164.2z"/>
				<circle class="st3" cx="246.3" cy="161.3" r="1.9"/>
			</g>
		</g>
		<g>
			<circle class="st0" cx="223.6" cy="145.1" r="11.6"/>
			<g>
				<path class="st1" d="M228.4,143c-1.9,1.9-4.8,2.1-4.8,2.1s0.2-2.9,2.1-4.8c1.9-1.9,4.8-2.1,4.8-2.1S230.3,141.1,228.4,143z"/>
				<path class="st1" d="M221.5,140.3c1.9,1.9,2.1,4.8,2.1,4.8s-2.9-0.2-4.8-2.1c-1.9-1.9-2.1-4.8-2.1-4.8S219.6,138.4,221.5,140.3z
					"/>
				<path class="st1" d="M218.9,147.2c1.9-1.9,4.8-2.1,4.8-2.1s-0.2,2.9-2.1,4.8c-1.9,1.9-4.8,2.1-4.8,2.1S216.9,149.1,218.9,147.2z
					"/>
				<path class="st1" d="M225.8,149.9c-1.9-1.9-2.1-4.8-2.1-4.8s2.9,0.2,4.8,2.1c1.9,1.9,2.1,4.8,2.1,4.8S227.7,151.8,225.8,149.9z"
					/>
				<path class="st2" d="M226.5,137.6c0,4.1-2.9,7.5-2.9,7.5s-2.9-3.3-2.9-7.5s2.9-7.5,2.9-7.5S226.5,133.5,226.5,137.6z"/>
				<path class="st2" d="M216.2,142.2c4.1,0,7.5,2.9,7.5,2.9s-3.3,2.9-7.5,2.9s-7.5-2.9-7.5-2.9S212,142.2,216.2,142.2z"/>
				<path class="st2" d="M220.8,152.6c0-4.1,2.9-7.5,2.9-7.5s2.9,3.3,2.9,7.5s-2.9,7.5-2.9,7.5S220.8,156.7,220.8,152.6z"/>
				<path class="st2" d="M231.1,148c-4.1,0-7.5-2.9-7.5-2.9s3.3-2.9,7.5-2.9c4.1,0,7.5,2.9,7.5,2.9S235.2,148,231.1,148z"/>
				<circle class="st3" cx="223.6" cy="145.1" r="1.9"/>
			</g>
		</g>
		<g>
			<circle class="st0" cx="223.6" cy="81.4" r="11.6"/>
			<g>
				<path class="st1" d="M228.4,79.3c-1.9,1.9-4.8,2.1-4.8,2.1s0.2-2.9,2.1-4.8c1.9-1.9,4.8-2.1,4.8-2.1S230.3,77.4,228.4,79.3z"/>
				<path class="st1" d="M221.5,76.7c1.9,1.9,2.1,4.8,2.1,4.8s-2.9-0.2-4.8-2.1c-1.9-1.9-2.1-4.8-2.1-4.8S219.6,74.8,221.5,76.7z"/>
				<path class="st1" d="M218.9,83.6c1.9-1.9,4.8-2.1,4.8-2.1s-0.2,2.9-2.1,4.8c-1.9,1.9-4.8,2.1-4.8,2.1S216.9,85.5,218.9,83.6z"/>
				<path class="st1" d="M225.8,86.2c-1.9-1.9-2.1-4.8-2.1-4.8s2.9,0.2,4.8,2.1c1.9,1.9,2.1,4.8,2.1,4.8S227.7,88.1,225.8,86.2z"/>
				<path class="st2" d="M226.5,74c0,4.1-2.9,7.5-2.9,7.5s-2.9-3.3-2.9-7.5s2.9-7.5,2.9-7.5S226.5,69.8,226.5,74z"/>
				<path class="st2" d="M216.2,78.6c4.1,0,7.5,2.9,7.5,2.9s-3.3,2.9-7.5,2.9s-7.5-2.9-7.5-2.9S212,78.6,216.2,78.6z"/>
				<path class="st2" d="M220.8,88.9c0-4.1,2.9-7.5,2.9-7.5s2.9,3.3,2.9,7.5s-2.9,7.5-2.9,7.5S220.8,93,220.8,88.9z"/>
				<path class="st2" d="M231.1,84.3c-4.1,0-7.5-2.9-7.5-2.9s3.3-2.9,7.5-2.9c4.1,0,7.5,2.9,7.5,2.9S235.2,84.3,231.1,84.3z"/>
				<circle class="st3" cx="223.6" cy="81.4" r="1.9"/>
			</g>
		</g>
		<g>
			<circle class="st0" cx="268.7" cy="113.3" r="11.6"/>
			<g>
				<path class="st1" d="M273.5,111.1c-1.9,1.9-4.8,2.1-4.8,2.1s0.2-2.9,2.1-4.8c1.9-1.9,4.8-2.1,4.8-2.1S275.4,109.2,273.5,111.1z"
					/>
				<path class="st1" d="M266.6,108.5c1.9,1.9,2.1,4.8,2.1,4.8s-2.9-0.2-4.8-2.1s-2.1-4.8-2.1-4.8S264.7,106.6,266.6,108.5z"/>
				<path class="st1" d="M263.9,115.4c1.9-1.9,4.8-2.1,4.8-2.1s-0.2,2.9-2.1,4.8s-4.8,2.1-4.8,2.1S262,117.3,263.9,115.4z"/>
				<path class="st1" d="M270.8,118.1c-1.9-1.9-2.1-4.8-2.1-4.8s2.9,0.2,4.8,2.1c1.9,1.9,2.1,4.8,2.1,4.8S272.7,120,270.8,118.1z"/>
				<path class="st2" d="M271.6,105.8c0,4.1-2.9,7.5-2.9,7.5s-2.9-3.3-2.9-7.5s2.9-7.5,2.9-7.5S271.6,101.7,271.6,105.8z"/>
				<path class="st2" d="M261.2,110.4c4.1,0,7.5,2.9,7.5,2.9s-3.3,2.9-7.5,2.9s-7.5-2.9-7.5-2.9S257.1,110.4,261.2,110.4z"/>
				<path class="st2" d="M265.8,120.7c0-4.1,2.9-7.5,2.9-7.5s2.9,3.3,2.9,7.5s-2.9,7.5-2.9,7.5S265.8,124.9,265.8,120.7z"/>
				<path class="st2" d="M276.2,116.1c-4.1,0-7.5-2.9-7.5-2.9s3.3-2.9,7.5-2.9s7.5,2.9,7.5,2.9S280.3,116.1,276.2,116.1z"/>
				<circle class="st3" cx="268.7" cy="113.3" r="1.9"/>
			</g>
		</g>
		<g>
			<circle class="st0" cx="268.7" cy="145.1" r="11.6"/>
			<g>
				<path class="st1" d="M273.5,143c-1.9,1.9-4.8,2.1-4.8,2.1s0.2-2.9,2.1-4.8c1.9-1.9,4.8-2.1,4.8-2.1S275.4,141.1,273.5,143z"/>
				<path class="st1" d="M266.6,140.3c1.9,1.9,2.1,4.8,2.1,4.8s-2.9-0.2-4.8-2.1c-1.9-1.9-2.1-4.8-2.1-4.8S264.7,138.4,266.6,140.3z
					"/>
				<path class="st1" d="M263.9,147.2c1.9-1.9,4.8-2.1,4.8-2.1s-0.2,2.9-2.1,4.8c-1.9,1.9-4.8,2.1-4.8,2.1S262,149.1,263.9,147.2z"
					/>
				<path class="st1" d="M270.8,149.9c-1.9-1.9-2.1-4.8-2.1-4.8s2.9,0.2,4.8,2.1c1.9,1.9,2.1,4.8,2.1,4.8S272.7,151.8,270.8,149.9z"
					/>
				<path class="st2" d="M271.6,137.6c0,4.1-2.9,7.5-2.9,7.5s-2.9-3.3-2.9-7.5s2.9-7.5,2.9-7.5S271.6,133.5,271.6,137.6z"/>
				<path class="st2" d="M261.2,142.2c4.1,0,7.5,2.9,7.5,2.9s-3.3,2.9-7.5,2.9s-7.5-2.9-7.5-2.9S257.1,142.2,261.2,142.2z"/>
				<path class="st2" d="M265.8,152.6c0-4.1,2.9-7.5,2.9-7.5s2.9,3.3,2.9,7.5s-2.9,7.5-2.9,7.5S265.8,156.7,265.8,152.6z"/>
				<path class="st2" d="M276.2,148c-4.1,0-7.5-2.9-7.5-2.9s3.3-2.9,7.5-2.9s7.5,2.9,7.5,2.9S280.3,148,276.2,148z"/>
				<circle class="st3" cx="268.7" cy="145.1" r="1.9"/>
			</g>
		</g>
		<g>
			<circle class="st0" cx="268.7" cy="81.4" r="11.6"/>
			<g>
				<path class="st1" d="M273.5,79.3c-1.9,1.9-4.8,2.1-4.8,2.1s0.2-2.9,2.1-4.8c1.9-1.9,4.8-2.1,4.8-2.1S275.4,77.4,273.5,79.3z"/>
				<path class="st1" d="M266.6,76.7c1.9,1.9,2.1,4.8,2.1,4.8s-2.9-0.2-4.8-2.1s-2.1-4.8-2.1-4.8S264.7,74.8,266.6,76.7z"/>
				<path class="st1" d="M263.9,83.6c1.9-1.9,4.8-2.1,4.8-2.1s-0.2,2.9-2.1,4.8c-1.9,1.9-4.8,2.1-4.8,2.1S262,85.5,263.9,83.6z"/>
				<path class="st1" d="M270.8,86.2c-1.9-1.9-2.1-4.8-2.1-4.8s2.9,0.2,4.8,2.1c1.9,1.9,2.1,4.8,2.1,4.8S272.7,88.1,270.8,86.2z"/>
				<path class="st2" d="M271.6,74c0,4.1-2.9,7.5-2.9,7.5s-2.9-3.3-2.9-7.5s2.9-7.5,2.9-7.5S271.6,69.8,271.6,74z"/>
				<path class="st2" d="M261.2,78.6c4.1,0,7.5,2.9,7.5,2.9s-3.3,2.9-7.5,2.9s-7.5-2.9-7.5-2.9S257.1,78.6,261.2,78.6z"/>
				<path class="st2" d="M265.8,88.9c0-4.1,2.9-7.5,2.9-7.5s2.9,3.3,2.9,7.5s-2.9,7.5-2.9,7.5S265.8,93,265.8,88.9z"/>
				<path class="st2" d="M276.2,84.3c-4.1,0-7.5-2.9-7.5-2.9s3.3-2.9,7.5-2.9s7.5,2.9,7.5,2.9S280.3,84.3,276.2,84.3z"/>
				<circle class="st3" cx="268.7" cy="81.4" r="1.9"/>
			</g>
		</g>
		<g>
			<circle class="st0" cx="246.3" cy="242.2" r="11.6"/>
			<g>
				<path class="st1" d="M251.1,240c-1.9,1.9-4.8,2.1-4.8,2.1s0.2-2.9,2.1-4.8c1.9-1.9,4.8-2.1,4.8-2.1S253,238.1,251.1,240z"/>
				<path class="st1" d="M244.2,237.4c1.9,1.9,2.1,4.8,2.1,4.8s-2.9-0.2-4.8-2.1c-1.9-1.9-2.1-4.8-2.1-4.8S242.3,235.5,244.2,237.4z
					"/>
				<path class="st1" d="M241.5,244.3c1.9-1.9,4.8-2.1,4.8-2.1s-0.2,2.9-2.1,4.8c-1.9,1.9-4.8,2.1-4.8,2.1S239.6,246.2,241.5,244.3z
					"/>
				<path class="st1" d="M248.4,247c-1.9-1.9-2.1-4.8-2.1-4.8s2.9,0.2,4.8,2.1c1.9,1.9,2.1,4.8,2.1,4.8S250.3,248.9,248.4,247z"/>
				<path class="st2" d="M249.2,234.7c0,4.1-2.9,7.5-2.9,7.5s-2.9-3.3-2.9-7.5c0-4.1,2.9-7.5,2.9-7.5S249.2,230.6,249.2,234.7z"/>
				<path class="st2" d="M238.8,239.3c4.1,0,7.5,2.9,7.5,2.9s-3.3,2.9-7.5,2.9s-7.5-2.9-7.5-2.9S234.7,239.3,238.8,239.3z"/>
				<path class="st2" d="M243.4,249.6c0-4.1,2.9-7.5,2.9-7.5s2.9,3.3,2.9,7.5c0,4.1-2.9,7.5-2.9,7.5S243.4,253.8,243.4,249.6z"/>
				<path class="st2" d="M253.8,245c-4.1,0-7.5-2.9-7.5-2.9s3.3-2.9,7.5-2.9c4.1,0,7.5,2.9,7.5,2.9S257.9,245,253.8,245z"/>
				<circle class="st3" cx="246.3" cy="242.2" r="1.9"/>
			</g>
		</g>
		<g>
			<circle class="st0" cx="246.3" cy="274.1" r="11.6"/>
			<g>
				<path class="st1" d="M251.1,272c-1.9,1.9-4.8,2.1-4.8,2.1s0.2-2.9,2.1-4.8c1.9-1.9,4.8-2.1,4.8-2.1S253,270.1,251.1,272z"/>
				<path class="st1" d="M244.2,269.3c1.9,1.9,2.1,4.8,2.1,4.8s-2.9-0.2-4.8-2.1c-1.9-1.9-2.1-4.8-2.1-4.8S242.3,267.4,244.2,269.3z
					"/>
				<path class="st1" d="M241.5,276.2c1.9-1.9,4.8-2.1,4.8-2.1s-0.2,2.9-2.1,4.8c-1.9,1.9-4.8,2.1-4.8,2.1S239.6,278.1,241.5,276.2z
					"/>
				<path class="st1" d="M248.4,278.9c-1.9-1.9-2.1-4.8-2.1-4.8s2.9,0.2,4.8,2.1c1.9,1.9,2.1,4.8,2.1,4.8S250.3,280.8,248.4,278.9z"
					/>
				<path class="st2" d="M249.2,266.6c0,4.1-2.9,7.5-2.9,7.5s-2.9-3.3-2.9-7.5s2.9-7.5,2.9-7.5S249.2,262.5,249.2,266.6z"/>
				<path class="st2" d="M238.8,271.2c4.1,0,7.5,2.9,7.5,2.9s-3.3,2.9-7.5,2.9s-7.5-2.9-7.5-2.9S234.7,271.2,238.8,271.2z"/>
				<path class="st2" d="M243.4,281.6c0-4.1,2.9-7.5,2.9-7.5s2.9,3.3,2.9,7.5s-2.9,7.5-2.9,7.5S243.4,285.7,243.4,281.6z"/>
				<path class="st2" d="M253.8,277c-4.1,0-7.5-2.9-7.5-2.9s3.3-2.9,7.5-2.9c4.1,0,7.5,2.9,7.5,2.9S257.9,277,253.8,277z"/>
				<circle class="st3" cx="246.3" cy="274.1" r="1.9"/>
			</g>
		</g>
		<g>
			<circle class="st0" cx="223.6" cy="258" r="11.6"/>
			<g>
				<path class="st1" d="M228.4,255.9c-1.9,1.9-4.8,2.1-4.8,2.1s0.2-2.9,2.1-4.8c1.9-1.9,4.8-2.1,4.8-2.1S230.3,254,228.4,255.9z"/>
				<path class="st1" d="M221.5,253.3c1.9,1.9,2.1,4.8,2.1,4.8s-2.9-0.2-4.8-2.1c-1.9-1.9-2.1-4.8-2.1-4.8S219.6,251.4,221.5,253.3z
					"/>
				<path class="st1" d="M218.9,260.2c1.9-1.9,4.8-2.1,4.8-2.1s-0.2,2.9-2.1,4.8c-1.9,1.9-4.8,2.1-4.8,2.1S216.9,262.1,218.9,260.2z
					"/>
				<path class="st1" d="M225.8,262.8c-1.9-1.9-2.1-4.8-2.1-4.8s2.9,0.2,4.8,2.1c1.9,1.9,2.1,4.8,2.1,4.8S227.7,264.7,225.8,262.8z"
					/>
				<path class="st2" d="M226.5,250.6c0,4.1-2.9,7.5-2.9,7.5s-2.9-3.3-2.9-7.5s2.9-7.5,2.9-7.5S226.5,246.4,226.5,250.6z"/>
				<path class="st2" d="M216.2,255.2c4.1,0,7.5,2.9,7.5,2.9s-3.3,2.9-7.5,2.9s-7.5-2.9-7.5-2.9S212,255.2,216.2,255.2z"/>
				<path class="st2" d="M220.8,265.5c0-4.1,2.9-7.5,2.9-7.5s2.9,3.3,2.9,7.5s-2.9,7.5-2.9,7.5S220.8,269.6,220.8,265.5z"/>
				<path class="st2" d="M231.1,260.9c-4.1,0-7.5-2.9-7.5-2.9s3.3-2.9,7.5-2.9c4.1,0,7.5,2.9,7.5,2.9S235.2,260.9,231.1,260.9z"/>
				<circle class="st3" cx="223.6" cy="258" r="1.9"/>
			</g>
		</g>
		<g>
			<circle class="st0" cx="246.3" cy="210.2" r="11.6"/>
			<g>
				<path class="st1" d="M251.1,208.1c-1.9,1.9-4.8,2.1-4.8,2.1s0.2-2.9,2.1-4.8c1.9-1.9,4.8-2.1,4.8-2.1S253,206.2,251.1,208.1z"/>
				<path class="st1" d="M244.2,205.4c1.9,1.9,2.1,4.8,2.1,4.8s-2.9-0.2-4.8-2.1c-1.9-1.9-2.1-4.8-2.1-4.8S242.3,203.5,244.2,205.4z
					"/>
				<path class="st1" d="M241.5,212.3c1.9-1.9,4.8-2.1,4.8-2.1s-0.2,2.9-2.1,4.8c-1.9,1.9-4.8,2.1-4.8,2.1S239.6,214.2,241.5,212.3z
					"/>
				<path class="st1" d="M248.4,215c-1.9-1.9-2.1-4.8-2.1-4.8s2.9,0.2,4.8,2.1c1.9,1.9,2.1,4.8,2.1,4.8S250.3,216.9,248.4,215z"/>
				<path class="st2" d="M249.2,202.7c0,4.1-2.9,7.5-2.9,7.5s-2.9-3.3-2.9-7.5c0-4.1,2.9-7.5,2.9-7.5S249.2,198.6,249.2,202.7z"/>
				<path class="st2" d="M238.8,207.3c4.1,0,7.5,2.9,7.5,2.9s-3.3,2.9-7.5,2.9s-7.5-2.9-7.5-2.9S234.7,207.3,238.8,207.3z"/>
				<path class="st2" d="M243.4,217.7c0-4.1,2.9-7.5,2.9-7.5s2.9,3.3,2.9,7.5c0,4.1-2.9,7.5-2.9,7.5S243.4,221.8,243.4,217.7z"/>
				<path class="st2" d="M253.8,213.1c-4.1,0-7.5-2.9-7.5-2.9s3.3-2.9,7.5-2.9c4.1,0,7.5,2.9,7.5,2.9S257.9,213.1,253.8,213.1z"/>
				<circle class="st3" cx="246.3" cy="210.2" r="1.9"/>
			</g>
		</g>
		<g>
			<circle class="st0" cx="246.3" cy="306.1" r="11.6"/>
			<g>
				<path class="st1" d="M251.1,303.9c-1.9,1.9-4.8,2.1-4.8,2.1s0.2-2.9,2.1-4.8c1.9-1.9,4.8-2.1,4.8-2.1S253,302,251.1,303.9z"/>
				<path class="st1" d="M244.2,301.3c1.9,1.9,2.1,4.8,2.1,4.8s-2.9-0.2-4.8-2.1c-1.9-1.9-2.1-4.8-2.1-4.8S242.3,299.4,244.2,301.3z
					"/>
				<path class="st1" d="M241.5,308.2c1.9-1.9,4.8-2.1,4.8-2.1s-0.2,2.9-2.1,4.8c-1.9,1.9-4.8,2.1-4.8,2.1S239.6,310.1,241.5,308.2z
					"/>
				<path class="st1" d="M248.4,310.8c-1.9-1.9-2.1-4.8-2.1-4.8s2.9,0.2,4.8,2.1c1.9,1.9,2.1,4.8,2.1,4.8S250.3,312.8,248.4,310.8z"
					/>
				<path class="st2" d="M249.2,298.6c0,4.1-2.9,7.5-2.9,7.5s-2.9-3.3-2.9-7.5s2.9-7.5,2.9-7.5S249.2,294.5,249.2,298.6z"/>
				<path class="st2" d="M238.8,303.2c4.1,0,7.5,2.9,7.5,2.9s-3.3,2.9-7.5,2.9s-7.5-2.9-7.5-2.9S234.7,303.2,238.8,303.2z"/>
				<path class="st2" d="M243.4,313.5c0-4.1,2.9-7.5,2.9-7.5s2.9,3.3,2.9,7.5s-2.9,7.5-2.9,7.5S243.4,317.7,243.4,313.5z"/>
				<path class="st2" d="M253.8,308.9c-4.1,0-7.5-2.9-7.5-2.9s3.3-2.9,7.5-2.9c4.1,0,7.5,2.9,7.5,2.9S257.9,308.9,253.8,308.9z"/>
				<circle class="st3" cx="246.3" cy="306.1" r="1.9"/>
			</g>
		</g>
		<g>
			<circle class="st0" cx="246.3" cy="346.4" r="11.6"/>
			<g>
				<path class="st1" d="M251.1,344.3c-1.9,1.9-4.8,2.1-4.8,2.1s0.2-2.9,2.1-4.8c1.9-1.9,4.8-2.1,4.8-2.1S253,342.4,251.1,344.3z"/>
				<path class="st1" d="M244.2,341.6c1.9,1.9,2.1,4.8,2.1,4.8s-2.9-0.2-4.8-2.1c-1.9-1.9-2.1-4.8-2.1-4.8S242.3,339.7,244.2,341.6z
					"/>
				<path class="st1" d="M241.5,348.5c1.9-1.9,4.8-2.1,4.8-2.1s-0.2,2.9-2.1,4.8c-1.9,1.9-4.8,2.1-4.8,2.1S239.6,350.4,241.5,348.5z
					"/>
				<path class="st1" d="M248.4,351.2c-1.9-1.9-2.1-4.8-2.1-4.8s2.9,0.2,4.8,2.1c1.9,1.9,2.1,4.8,2.1,4.8S250.3,353.1,248.4,351.2z"
					/>
				<path class="st2" d="M249.2,338.9c0,4.1-2.9,7.5-2.9,7.5s-2.9-3.3-2.9-7.5c0-4.1,2.9-7.5,2.9-7.5S249.2,334.8,249.2,338.9z"/>
				<path class="st2" d="M238.8,343.5c4.1,0,7.5,2.9,7.5,2.9s-3.3,2.9-7.5,2.9s-7.5-2.9-7.5-2.9S234.7,343.5,238.8,343.5z"/>
				<path class="st2" d="M243.4,353.9c0-4.1,2.9-7.5,2.9-7.5s2.9,3.3,2.9,7.5c0,4.1-2.9,7.5-2.9,7.5S243.4,358,243.4,353.9z"/>
				<path class="st2" d="M253.8,349.3c-4.1,0-7.5-2.9-7.5-2.9s3.3-2.9,7.5-2.9c4.1,0,7.5,2.9,7.5,2.9S257.9,349.3,253.8,349.3z"/>
				<circle class="st3" cx="246.3" cy="346.4" r="1.9"/>
			</g>
		</g>
		<g>
			<circle class="st0" cx="223.6" cy="289.9" r="11.6"/>
			<g>
				<path class="st1" d="M228.4,287.8c-1.9,1.9-4.8,2.1-4.8,2.1s0.2-2.9,2.1-4.8c1.9-1.9,4.8-2.1,4.8-2.1S230.3,285.8,228.4,287.8z"
					/>
				<path class="st1" d="M221.5,285.1c1.9,1.9,2.1,4.8,2.1,4.8s-2.9-0.2-4.8-2.1c-1.9-1.9-2.1-4.8-2.1-4.8S219.6,283.2,221.5,285.1z
					"/>
				<path class="st1" d="M218.9,292c1.9-1.9,4.8-2.1,4.8-2.1s-0.2,2.9-2.1,4.8c-1.9,1.9-4.8,2.1-4.8,2.1S216.9,293.9,218.9,292z"/>
				<path class="st1" d="M225.8,294.7c-1.9-1.9-2.1-4.8-2.1-4.8s2.9,0.2,4.8,2.1c1.9,1.9,2.1,4.8,2.1,4.8S227.7,296.6,225.8,294.7z"
					/>
				<path class="st2" d="M226.5,282.4c0,4.1-2.9,7.5-2.9,7.5s-2.9-3.3-2.9-7.5s2.9-7.5,2.9-7.5S226.5,278.3,226.5,282.4z"/>
				<path class="st2" d="M216.2,287c4.1,0,7.5,2.9,7.5,2.9s-3.3,2.9-7.5,2.9s-7.5-2.9-7.5-2.9S212,287,216.2,287z"/>
				<path class="st2" d="M220.8,297.3c0-4.1,2.9-7.5,2.9-7.5s2.9,3.3,2.9,7.5s-2.9,7.5-2.9,7.5S220.8,301.5,220.8,297.3z"/>
				<path class="st2" d="M231.1,292.8c-4.1,0-7.5-2.9-7.5-2.9s3.3-2.9,7.5-2.9c4.1,0,7.5,2.9,7.5,2.9S235.2,292.8,231.1,292.8z"/>
				<circle class="st3" cx="223.6" cy="289.9" r="1.9"/>
			</g>
		</g>
		<g>
			<circle class="st0" cx="223.6" cy="226.2" r="11.6"/>
			<g>
				<path class="st1" d="M228.4,224.1c-1.9,1.9-4.8,2.1-4.8,2.1s0.2-2.9,2.1-4.8c1.9-1.9,4.8-2.1,4.8-2.1S230.3,222.2,228.4,224.1z"
					/>
				<path class="st1" d="M221.5,221.4c1.9,1.9,2.1,4.8,2.1,4.8s-2.9-0.2-4.8-2.1c-1.9-1.9-2.1-4.8-2.1-4.8S219.6,219.5,221.5,221.4z
					"/>
				<path class="st1" d="M218.9,228.3c1.9-1.9,4.8-2.1,4.8-2.1s-0.2,2.9-2.1,4.8c-1.9,1.9-4.8,2.1-4.8,2.1S216.9,230.3,218.9,228.3z
					"/>
				<path class="st1" d="M225.8,231c-1.9-1.9-2.1-4.8-2.1-4.8s2.9,0.2,4.8,2.1c1.9,1.9,2.1,4.8,2.1,4.8S227.7,232.9,225.8,231z"/>
				<path class="st2" d="M226.5,218.8c0,4.1-2.9,7.5-2.9,7.5s-2.9-3.3-2.9-7.5c0-4.1,2.9-7.5,2.9-7.5S226.5,214.6,226.5,218.8z"/>
				<path class="st2" d="M216.2,223.3c4.1,0,7.5,2.9,7.5,2.9s-3.3,2.9-7.5,2.9s-7.5-2.9-7.5-2.9S212,223.3,216.2,223.3z"/>
				<path class="st2" d="M220.8,233.7c0-4.1,2.9-7.5,2.9-7.5s2.9,3.3,2.9,7.5c0,4.1-2.9,7.5-2.9,7.5S220.8,237.8,220.8,233.7z"/>
				<path class="st2" d="M231.1,229.1c-4.1,0-7.5-2.9-7.5-2.9s3.3-2.9,7.5-2.9c4.1,0,7.5,2.9,7.5,2.9S235.2,229.1,231.1,229.1z"/>
				<circle class="st3" cx="223.6" cy="226.2" r="1.9"/>
			</g>
		</g>
		<g>
			<circle class="st0" cx="268.7" cy="258" r="11.6"/>
			<g>
				<path class="st1" d="M273.5,255.9c-1.9,1.9-4.8,2.1-4.8,2.1s0.2-2.9,2.1-4.8c1.9-1.9,4.8-2.1,4.8-2.1S275.4,254,273.5,255.9z"/>
				<path class="st1" d="M266.6,253.3c1.9,1.9,2.1,4.8,2.1,4.8s-2.9-0.2-4.8-2.1s-2.1-4.8-2.1-4.8S264.7,251.4,266.6,253.3z"/>
				<path class="st1" d="M263.9,260.2c1.9-1.9,4.8-2.1,4.8-2.1s-0.2,2.9-2.1,4.8c-1.9,1.9-4.8,2.1-4.8,2.1S262,262.1,263.9,260.2z"
					/>
				<path class="st1" d="M270.8,262.8c-1.9-1.9-2.1-4.8-2.1-4.8s2.9,0.2,4.8,2.1c1.9,1.9,2.1,4.8,2.1,4.8S272.7,264.7,270.8,262.8z"
					/>
				<path class="st2" d="M271.6,250.6c0,4.1-2.9,7.5-2.9,7.5s-2.9-3.3-2.9-7.5s2.9-7.5,2.9-7.5S271.6,246.4,271.6,250.6z"/>
				<path class="st2" d="M261.2,255.2c4.1,0,7.5,2.9,7.5,2.9s-3.3,2.9-7.5,2.9s-7.5-2.9-7.5-2.9S257.1,255.2,261.2,255.2z"/>
				<path class="st2" d="M265.8,265.5c0-4.1,2.9-7.5,2.9-7.5s2.9,3.3,2.9,7.5s-2.9,7.5-2.9,7.5S265.8,269.6,265.8,265.5z"/>
				<path class="st2" d="M276.2,260.9c-4.1,0-7.5-2.9-7.5-2.9s3.3-2.9,7.5-2.9s7.5,2.9,7.5,2.9S280.3,260.9,276.2,260.9z"/>
				<circle class="st3" cx="268.7" cy="258" r="1.9"/>
			</g>
		</g>
		<g>
			<circle class="st0" cx="268.7" cy="289.9" r="11.6"/>
			<g>
				<path class="st1" d="M273.5,287.8c-1.9,1.9-4.8,2.1-4.8,2.1s0.2-2.9,2.1-4.8c1.9-1.9,4.8-2.1,4.8-2.1S275.4,285.8,273.5,287.8z"
					/>
				<path class="st1" d="M266.6,285.1c1.9,1.9,2.1,4.8,2.1,4.8s-2.9-0.2-4.8-2.1s-2.1-4.8-2.1-4.8S264.7,283.2,266.6,285.1z"/>
				<path class="st1" d="M263.9,292c1.9-1.9,4.8-2.1,4.8-2.1s-0.2,2.9-2.1,4.8s-4.8,2.1-4.8,2.1S262,293.9,263.9,292z"/>
				<path class="st1" d="M270.8,294.7c-1.9-1.9-2.1-4.8-2.1-4.8s2.9,0.2,4.8,2.1c1.9,1.9,2.1,4.8,2.1,4.8S272.7,296.6,270.8,294.7z"
					/>
				<path class="st2" d="M271.6,282.4c0,4.1-2.9,7.5-2.9,7.5s-2.9-3.3-2.9-7.5s2.9-7.5,2.9-7.5S271.6,278.3,271.6,282.4z"/>
				<path class="st2" d="M261.2,287c4.1,0,7.5,2.9,7.5,2.9s-3.3,2.9-7.5,2.9s-7.5-2.9-7.5-2.9S257.1,287,261.2,287z"/>
				<path class="st2" d="M265.8,297.3c0-4.1,2.9-7.5,2.9-7.5s2.9,3.3,2.9,7.5s-2.9,7.5-2.9,7.5S265.8,301.5,265.8,297.3z"/>
				<path class="st2" d="M276.2,292.8c-4.1,0-7.5-2.9-7.5-2.9s3.3-2.9,7.5-2.9s7.5,2.9,7.5,2.9S280.3,292.8,276.2,292.8z"/>
				<circle class="st3" cx="268.7" cy="289.9" r="1.9"/>
			</g>
		</g>
		<g>
			<circle class="st0" cx="268.7" cy="226.2" r="11.6"/>
			<g>
				<path class="st1" d="M273.5,224.1c-1.9,1.9-4.8,2.1-4.8,2.1s0.2-2.9,2.1-4.8c1.9-1.9,4.8-2.1,4.8-2.1S275.4,222.2,273.5,224.1z"
					/>
				<path class="st1" d="M266.6,221.4c1.9,1.9,2.1,4.8,2.1,4.8s-2.9-0.2-4.8-2.1s-2.1-4.8-2.1-4.8S264.7,219.5,266.6,221.4z"/>
				<path class="st1" d="M263.9,228.3c1.9-1.9,4.8-2.1,4.8-2.1s-0.2,2.9-2.1,4.8c-1.9,1.9-4.8,2.1-4.8,2.1S262,230.3,263.9,228.3z"
					/>
				<path class="st1" d="M270.8,231c-1.9-1.9-2.1-4.8-2.1-4.8s2.9,0.2,4.8,2.1c1.9,1.9,2.1,4.8,2.1,4.8S272.7,232.9,270.8,231z"/>
				<path class="st2" d="M271.6,218.8c0,4.1-2.9,7.5-2.9,7.5s-2.9-3.3-2.9-7.5c0-4.1,2.9-7.5,2.9-7.5S271.6,214.6,271.6,218.8z"/>
				<path class="st2" d="M261.2,223.3c4.1,0,7.5,2.9,7.5,2.9s-3.3,2.9-7.5,2.9s-7.5-2.9-7.5-2.9S257.1,223.3,261.2,223.3z"/>
				<path class="st2" d="M265.8,233.7c0-4.1,2.9-7.5,2.9-7.5s2.9,3.3,2.9,7.5c0,4.1-2.9,7.5-2.9,7.5S265.8,237.8,265.8,233.7z"/>
				<path class="st2" d="M276.2,229.1c-4.1,0-7.5-2.9-7.5-2.9s3.3-2.9,7.5-2.9s7.5,2.9,7.5,2.9S280.3,229.1,276.2,229.1z"/>
				<circle class="st3" cx="268.7" cy="226.2" r="1.9"/>
			</g>
		</g>
	</g>
	<g>
		<g>
			<circle class="st0" cx="338.6" cy="129.1" r="11.6"/>
			<g>
				<path class="st1" d="M343.4,127c-1.9,1.9-4.8,2.1-4.8,2.1s0.2-2.9,2.1-4.8s4.8-2.1,4.8-2.1S345.3,125.1,343.4,127z"/>
				<path class="st1" d="M336.5,124.3c1.9,1.9,2.1,4.8,2.1,4.8s-2.9-0.2-4.8-2.1s-2.1-4.8-2.1-4.8S334.6,122.4,336.5,124.3z"/>
				<path class="st1" d="M333.9,131.2c1.9-1.9,4.8-2.1,4.8-2.1s-0.2,2.9-2.1,4.8c-1.9,1.9-4.8,2.1-4.8,2.1S331.9,133.1,333.9,131.2z
					"/>
				<path class="st1" d="M340.8,133.9c-1.9-1.9-2.1-4.8-2.1-4.8s2.9,0.2,4.8,2.1c1.9,1.9,2.1,4.8,2.1,4.8S342.7,135.8,340.8,133.9z"
					/>
				<path class="st2" d="M341.5,121.6c0,4.1-2.9,7.5-2.9,7.5s-2.9-3.3-2.9-7.5c0-4.1,2.9-7.5,2.9-7.5S341.5,117.5,341.5,121.6z"/>
				<path class="st2" d="M331.2,126.2c4.1,0,7.5,2.9,7.5,2.9s-3.3,2.9-7.5,2.9s-7.5-2.9-7.5-2.9S327,126.2,331.2,126.2z"/>
				<path class="st2" d="M335.8,136.6c0-4.1,2.9-7.5,2.9-7.5s2.9,3.3,2.9,7.5s-2.9,7.5-2.9,7.5S335.8,140.7,335.8,136.6z"/>
				<path class="st2" d="M346.1,132c-4.1,0-7.5-2.9-7.5-2.9s3.3-2.9,7.5-2.9s7.5,2.9,7.5,2.9S350.2,132,346.1,132z"/>
				<circle class="st3" cx="338.6" cy="129.1" r="1.9"/>
			</g>
		</g>
		<g>
			<circle class="st0" cx="338.6" cy="161.1" r="11.6"/>
			<g>
				<path class="st1" d="M343.4,158.9c-1.9,1.9-4.8,2.1-4.8,2.1s0.2-2.9,2.1-4.8c1.9-1.9,4.8-2.1,4.8-2.1S345.3,157,343.4,158.9z"/>
				<path class="st1" d="M336.5,156.3c1.9,1.9,2.1,4.8,2.1,4.8s-2.9-0.2-4.8-2.1c-1.9-1.9-2.1-4.8-2.1-4.8S334.6,154.4,336.5,156.3z
					"/>
				<path class="st1" d="M333.9,163.2c1.9-1.9,4.8-2.1,4.8-2.1s-0.2,2.9-2.1,4.8s-4.8,2.1-4.8,2.1S331.9,165.1,333.9,163.2z"/>
				<path class="st1" d="M340.8,165.9c-1.9-1.9-2.1-4.8-2.1-4.8s2.9,0.2,4.8,2.1c1.9,1.9,2.1,4.8,2.1,4.8S342.7,167.8,340.8,165.9z"
					/>
				<path class="st2" d="M341.5,153.6c0,4.1-2.9,7.5-2.9,7.5s-2.9-3.3-2.9-7.5s2.9-7.5,2.9-7.5S341.5,149.5,341.5,153.6z"/>
				<path class="st2" d="M331.2,158.2c4.1,0,7.5,2.9,7.5,2.9s-3.3,2.9-7.5,2.9s-7.5-2.9-7.5-2.9S327,158.2,331.2,158.2z"/>
				<path class="st2" d="M335.8,168.5c0-4.1,2.9-7.5,2.9-7.5s2.9,3.3,2.9,7.5s-2.9,7.5-2.9,7.5S335.8,172.7,335.8,168.5z"/>
				<path class="st2" d="M346.1,163.9c-4.1,0-7.5-2.9-7.5-2.9s3.3-2.9,7.5-2.9s7.5,2.9,7.5,2.9S350.2,163.9,346.1,163.9z"/>
				<circle class="st3" cx="338.6" cy="161.1" r="1.9"/>
			</g>
		</g>
		<g>
			<circle class="st0" cx="316" cy="145" r="11.6"/>
			<g>
				<path class="st1" d="M320.8,142.9c-1.9,1.9-4.8,2.1-4.8,2.1s0.2-2.9,2.1-4.8c1.9-1.9,4.8-2.1,4.8-2.1S322.7,141,320.8,142.9z"/>
				<path class="st1" d="M313.9,140.2c1.9,1.9,2.1,4.8,2.1,4.8s-2.9-0.2-4.8-2.1s-2.1-4.8-2.1-4.8S312,138.3,313.9,140.2z"/>
				<path class="st1" d="M311.2,147.1c1.9-1.9,4.8-2.1,4.8-2.1s-0.2,2.9-2.1,4.8c-1.9,1.9-4.8,2.1-4.8,2.1S309.3,149,311.2,147.1z"
					/>
				<path class="st1" d="M318.1,149.8c-1.9-1.9-2.1-4.8-2.1-4.8s2.9,0.2,4.8,2.1c1.9,1.9,2.1,4.8,2.1,4.8S320,151.7,318.1,149.8z"/>
				<path class="st2" d="M318.9,137.5c0,4.1-2.9,7.5-2.9,7.5s-2.9-3.3-2.9-7.5c0-4.1,2.9-7.5,2.9-7.5S318.9,133.4,318.9,137.5z"/>
				<path class="st2" d="M308.5,142.1c4.1,0,7.5,2.9,7.5,2.9s-3.3,2.9-7.5,2.9S301,145,301,145S304.4,142.1,308.5,142.1z"/>
				<path class="st2" d="M313.1,152.5c0-4.1,2.9-7.5,2.9-7.5s2.9,3.3,2.9,7.5c0,4.1-2.9,7.5-2.9,7.5S313.1,156.6,313.1,152.5z"/>
				<path class="st2" d="M323.5,147.9c-4.1,0-7.5-2.9-7.5-2.9s3.3-2.9,7.5-2.9s7.5,2.9,7.5,2.9S327.6,147.9,323.5,147.9z"/>
				<circle class="st3" cx="316" cy="145" r="1.9"/>
			</g>
		</g>
		<g>
			<circle class="st0" cx="338.6" cy="97.2" r="11.6"/>
			<g>
				<path class="st1" d="M343.4,95c-1.9,1.9-4.8,2.1-4.8,2.1s0.2-2.9,2.1-4.8s4.8-2.1,4.8-2.1S345.3,93.1,343.4,95z"/>
				<path class="st1" d="M336.5,92.4c1.9,1.9,2.1,4.8,2.1,4.8s-2.9-0.2-4.8-2.1s-2.1-4.8-2.1-4.8S334.6,90.5,336.5,92.4z"/>
				<path class="st1" d="M333.9,99.3c1.9-1.9,4.8-2.1,4.8-2.1s-0.2,2.9-2.1,4.8s-4.8,2.1-4.8,2.1S331.9,101.2,333.9,99.3z"/>
				<path class="st1" d="M340.8,102c-1.9-1.9-2.1-4.8-2.1-4.8s2.9,0.2,4.8,2.1s2.1,4.8,2.1,4.8S342.7,103.9,340.8,102z"/>
				<path class="st2" d="M341.5,89.7c0,4.1-2.9,7.5-2.9,7.5s-2.9-3.3-2.9-7.5s2.9-7.5,2.9-7.5S341.5,85.6,341.5,89.7z"/>
				<path class="st2" d="M331.2,94.3c4.1,0,7.5,2.9,7.5,2.9s-3.3,2.9-7.5,2.9s-7.5-2.9-7.5-2.9S327,94.3,331.2,94.3z"/>
				<path class="st2" d="M335.8,104.6c0-4.1,2.9-7.5,2.9-7.5s2.9,3.3,2.9,7.5s-2.9,7.5-2.9,7.5S335.8,108.8,335.8,104.6z"/>
				<path class="st2" d="M346.1,100.1c-4.1,0-7.5-2.9-7.5-2.9s3.3-2.9,7.5-2.9s7.5,2.9,7.5,2.9S350.2,100.1,346.1,100.1z"/>
				<circle class="st3" cx="338.6" cy="97.2" r="1.9"/>
			</g>
		</g>
		<g>
			<circle class="st0" cx="338.6" cy="53.6" r="11.6"/>
			<g>
				<path class="st1" d="M343.4,51.5c-1.9,1.9-4.8,2.1-4.8,2.1s0.2-2.9,2.1-4.8s4.8-2.1,4.8-2.1S345.3,49.6,343.4,51.5z"/>
				<path class="st1" d="M336.5,48.8c1.9,1.9,2.1,4.8,2.1,4.8s-2.9-0.2-4.8-2.1s-2.1-4.8-2.1-4.8S334.6,46.9,336.5,48.8z"/>
				<path class="st1" d="M333.9,55.7c1.9-1.9,4.8-2.1,4.8-2.1s-0.2,2.9-2.1,4.8c-1.9,1.9-4.8,2.1-4.8,2.1S331.9,57.6,333.9,55.7z"/>
				<path class="st1" d="M340.8,58.4c-1.9-1.9-2.1-4.8-2.1-4.8s2.9,0.2,4.8,2.1s2.1,4.8,2.1,4.8S342.7,60.3,340.8,58.4z"/>
				<path class="st2" d="M341.5,46.1c0,4.1-2.9,7.5-2.9,7.5s-2.9-3.3-2.9-7.5s2.9-7.5,2.9-7.5S341.5,42,341.5,46.1z"/>
				<path class="st2" d="M331.2,50.7c4.1,0,7.5,2.9,7.5,2.9s-3.3,2.9-7.5,2.9s-7.5-2.9-7.5-2.9S327,50.7,331.2,50.7z"/>
				<path class="st2" d="M335.8,61.1c0-4.1,2.9-7.5,2.9-7.5s2.9,3.3,2.9,7.5s-2.9,7.5-2.9,7.5S335.8,65.2,335.8,61.1z"/>
				<path class="st2" d="M346.1,56.5c-4.1,0-7.5-2.9-7.5-2.9s3.3-2.9,7.5-2.9s7.5,2.9,7.5,2.9S350.2,56.5,346.1,56.5z"/>
				<circle class="st3" cx="338.6" cy="53.6" r="1.9"/>
			</g>
		</g>
		<g>
			<circle class="st0" cx="338.6" cy="193" r="11.6"/>
			<g>
				<path class="st1" d="M343.4,190.9c-1.9,1.9-4.8,2.1-4.8,2.1s0.2-2.9,2.1-4.8c1.9-1.9,4.8-2.1,4.8-2.1S345.3,189,343.4,190.9z"/>
				<path class="st1" d="M336.5,188.2c1.9,1.9,2.1,4.8,2.1,4.8s-2.9-0.2-4.8-2.1c-1.9-1.9-2.1-4.8-2.1-4.8S334.6,186.3,336.5,188.2z
					"/>
				<path class="st1" d="M333.9,195.1c1.9-1.9,4.8-2.1,4.8-2.1s-0.2,2.9-2.1,4.8c-1.9,1.9-4.8,2.1-4.8,2.1S331.9,197,333.9,195.1z"
					/>
				<path class="st1" d="M340.8,197.8c-1.9-1.9-2.1-4.8-2.1-4.8s2.9,0.2,4.8,2.1c1.9,1.9,2.1,4.8,2.1,4.8S342.7,199.7,340.8,197.8z"
					/>
				<path class="st2" d="M341.5,185.5c0,4.1-2.9,7.5-2.9,7.5s-2.9-3.3-2.9-7.5s2.9-7.5,2.9-7.5S341.5,181.4,341.5,185.5z"/>
				<path class="st2" d="M331.2,190.1c4.1,0,7.5,2.9,7.5,2.9s-3.3,2.9-7.5,2.9s-7.5-2.9-7.5-2.9S327,190.1,331.2,190.1z"/>
				<path class="st2" d="M335.8,200.5c0-4.1,2.9-7.5,2.9-7.5s2.9,3.3,2.9,7.5s-2.9,7.5-2.9,7.5S335.8,204.6,335.8,200.5z"/>
				<path class="st2" d="M346.1,195.9c-4.1,0-7.5-2.9-7.5-2.9s3.3-2.9,7.5-2.9s7.5,2.9,7.5,2.9S350.2,195.9,346.1,195.9z"/>
				<circle class="st3" cx="338.6" cy="193" r="1.9"/>
			</g>
		</g>
		<g>
			<circle class="st0" cx="316" cy="176.8" r="11.6"/>
			<g>
				<path class="st1" d="M320.8,174.7c-1.9,1.9-4.8,2.1-4.8,2.1s0.2-2.9,2.1-4.8c1.9-1.9,4.8-2.1,4.8-2.1S322.7,172.8,320.8,174.7z"
					/>
				<path class="st1" d="M313.9,172c1.9,1.9,2.1,4.8,2.1,4.8s-2.9-0.2-4.8-2.1c-1.9-1.9-2.1-4.8-2.1-4.8S312,170.1,313.9,172z"/>
				<path class="st1" d="M311.2,178.9c1.9-1.9,4.8-2.1,4.8-2.1s-0.2,2.9-2.1,4.8c-1.9,1.9-4.8,2.1-4.8,2.1S309.3,180.9,311.2,178.9z
					"/>
				<path class="st1" d="M318.1,181.6c-1.9-1.9-2.1-4.8-2.1-4.8s2.9,0.2,4.8,2.1c1.9,1.9,2.1,4.8,2.1,4.8S320,183.5,318.1,181.6z"/>
				<path class="st2" d="M318.9,169.4c0,4.1-2.9,7.5-2.9,7.5s-2.9-3.3-2.9-7.5s2.9-7.5,2.9-7.5S318.9,165.2,318.9,169.4z"/>
				<path class="st2" d="M308.5,173.9c4.1,0,7.5,2.9,7.5,2.9s-3.3,2.9-7.5,2.9s-7.5-2.9-7.5-2.9S304.4,173.9,308.5,173.9z"/>
				<path class="st2" d="M313.1,184.3c0-4.1,2.9-7.5,2.9-7.5s2.9,3.3,2.9,7.5s-2.9,7.5-2.9,7.5S313.1,188.4,313.1,184.3z"/>
				<path class="st2" d="M323.5,179.7c-4.1,0-7.5-2.9-7.5-2.9s3.3-2.9,7.5-2.9s7.5,2.9,7.5,2.9S327.6,179.7,323.5,179.7z"/>
				<circle class="st3" cx="316" cy="176.8" r="1.9"/>
			</g>
		</g>
		<g>
			<circle class="st0" cx="316" cy="113.2" r="11.6"/>
			<g>
				<path class="st1" d="M320.8,111.1c-1.9,1.9-4.8,2.1-4.8,2.1s0.2-2.9,2.1-4.8s4.8-2.1,4.8-2.1S322.7,109.1,320.8,111.1z"/>
				<path class="st1" d="M313.9,108.4c1.9,1.9,2.1,4.8,2.1,4.8s-2.9-0.2-4.8-2.1s-2.1-4.8-2.1-4.8S312,106.5,313.9,108.4z"/>
				<path class="st1" d="M311.2,115.3c1.9-1.9,4.8-2.1,4.8-2.1s-0.2,2.9-2.1,4.8c-1.9,1.9-4.8,2.1-4.8,2.1S309.3,117.2,311.2,115.3z
					"/>
				<path class="st1" d="M318.1,118c-1.9-1.9-2.1-4.8-2.1-4.8s2.9,0.2,4.8,2.1s2.1,4.8,2.1,4.8S320,119.9,318.1,118z"/>
				<path class="st2" d="M318.9,105.7c0,4.1-2.9,7.5-2.9,7.5s-2.9-3.3-2.9-7.5c0-4.1,2.9-7.5,2.9-7.5S318.9,101.6,318.9,105.7z"/>
				<path class="st2" d="M308.5,110.3c4.1,0,7.5,2.9,7.5,2.9s-3.3,2.9-7.5,2.9s-7.5-2.9-7.5-2.9S304.4,110.3,308.5,110.3z"/>
				<path class="st2" d="M313.1,120.6c0-4.1,2.9-7.5,2.9-7.5s2.9,3.3,2.9,7.5s-2.9,7.5-2.9,7.5S313.1,124.8,313.1,120.6z"/>
				<path class="st2" d="M323.5,116.1c-4.1,0-7.5-2.9-7.5-2.9s3.3-2.9,7.5-2.9s7.5,2.9,7.5,2.9S327.6,116.1,323.5,116.1z"/>
				<circle class="st3" cx="316" cy="113.2" r="1.9"/>
			</g>
		</g>
		<g>
			<circle class="st0" cx="361.1" cy="145" r="11.6"/>
			<g>
				<path class="st1" d="M365.8,142.9c-1.9,1.9-4.8,2.1-4.8,2.1s0.2-2.9,2.1-4.8c1.9-1.9,4.8-2.1,4.8-2.1S367.7,141,365.8,142.9z"/>
				<path class="st1" d="M358.9,140.2c1.9,1.9,2.1,4.8,2.1,4.8s-2.9-0.2-4.8-2.1s-2.1-4.8-2.1-4.8S357,138.3,358.9,140.2z"/>
				<path class="st1" d="M356.3,147.1c1.9-1.9,4.8-2.1,4.8-2.1s-0.2,2.9-2.1,4.8c-1.9,1.9-4.8,2.1-4.8,2.1S354.4,149,356.3,147.1z"
					/>
				<path class="st1" d="M363.2,149.8c-1.9-1.9-2.1-4.8-2.1-4.8s2.9,0.2,4.8,2.1c1.9,1.9,2.1,4.8,2.1,4.8S365.1,151.7,363.2,149.8z"
					/>
				<path class="st2" d="M363.9,137.5c0,4.1-2.9,7.5-2.9,7.5s-2.9-3.3-2.9-7.5c0-4.1,2.9-7.5,2.9-7.5S363.9,133.4,363.9,137.5z"/>
				<path class="st2" d="M353.6,142.1c4.1,0,7.5,2.9,7.5,2.9s-3.3,2.9-7.5,2.9s-7.5-2.9-7.5-2.9S349.5,142.1,353.6,142.1z"/>
				<path class="st2" d="M358.2,152.5c0-4.1,2.9-7.5,2.9-7.5s2.9,3.3,2.9,7.5c0,4.1-2.9,7.5-2.9,7.5S358.2,156.6,358.2,152.5z"/>
				<path class="st2" d="M368.5,147.9c-4.1,0-7.5-2.9-7.5-2.9s3.3-2.9,7.5-2.9s7.5,2.9,7.5,2.9S372.7,147.9,368.5,147.9z"/>
				<circle class="st3" cx="361.1" cy="145" r="1.9"/>
			</g>
		</g>
		<g>
			<circle class="st0" cx="361.1" cy="176.8" r="11.6"/>
			<g>
				<path class="st1" d="M365.8,174.7c-1.9,1.9-4.8,2.1-4.8,2.1s0.2-2.9,2.1-4.8c1.9-1.9,4.8-2.1,4.8-2.1S367.7,172.8,365.8,174.7z"
					/>
				<path class="st1" d="M358.9,172c1.9,1.9,2.1,4.8,2.1,4.8s-2.9-0.2-4.8-2.1c-1.9-1.9-2.1-4.8-2.1-4.8S357,170.1,358.9,172z"/>
				<path class="st1" d="M356.3,178.9c1.9-1.9,4.8-2.1,4.8-2.1s-0.2,2.9-2.1,4.8c-1.9,1.9-4.8,2.1-4.8,2.1S354.4,180.9,356.3,178.9z
					"/>
				<path class="st1" d="M363.2,181.6c-1.9-1.9-2.1-4.8-2.1-4.8s2.9,0.2,4.8,2.1c1.9,1.9,2.1,4.8,2.1,4.8S365.1,183.5,363.2,181.6z"
					/>
				<path class="st2" d="M363.9,169.4c0,4.1-2.9,7.5-2.9,7.5s-2.9-3.3-2.9-7.5s2.9-7.5,2.9-7.5S363.9,165.2,363.9,169.4z"/>
				<path class="st2" d="M353.6,173.9c4.1,0,7.5,2.9,7.5,2.9s-3.3,2.9-7.5,2.9s-7.5-2.9-7.5-2.9S349.5,173.9,353.6,173.9z"/>
				<path class="st2" d="M358.2,184.3c0-4.1,2.9-7.5,2.9-7.5s2.9,3.3,2.9,7.5s-2.9,7.5-2.9,7.5S358.2,188.4,358.2,184.3z"/>
				<path class="st2" d="M368.5,179.7c-4.1,0-7.5-2.9-7.5-2.9s3.3-2.9,7.5-2.9s7.5,2.9,7.5,2.9S372.7,179.7,368.5,179.7z"/>
				<circle class="st3" cx="361.1" cy="176.8" r="1.9"/>
			</g>
		</g>
		<g>
			<circle class="st0" cx="361.1" cy="113.2" r="11.6"/>
			<g>
				<path class="st1" d="M365.8,111.1c-1.9,1.9-4.8,2.1-4.8,2.1s0.2-2.9,2.1-4.8s4.8-2.1,4.8-2.1S367.7,109.1,365.8,111.1z"/>
				<path class="st1" d="M358.9,108.4c1.9,1.9,2.1,4.8,2.1,4.8s-2.9-0.2-4.8-2.1s-2.1-4.8-2.1-4.8S357,106.5,358.9,108.4z"/>
				<path class="st1" d="M356.3,115.3c1.9-1.9,4.8-2.1,4.8-2.1s-0.2,2.9-2.1,4.8c-1.9,1.9-4.8,2.1-4.8,2.1S354.4,117.2,356.3,115.3z
					"/>
				<path class="st1" d="M363.2,118c-1.9-1.9-2.1-4.8-2.1-4.8s2.9,0.2,4.8,2.1s2.1,4.8,2.1,4.8S365.1,119.9,363.2,118z"/>
				<path class="st2" d="M363.9,105.7c0,4.1-2.9,7.5-2.9,7.5s-2.9-3.3-2.9-7.5c0-4.1,2.9-7.5,2.9-7.5S363.9,101.6,363.9,105.7z"/>
				<path class="st2" d="M353.6,110.3c4.1,0,7.5,2.9,7.5,2.9s-3.3,2.9-7.5,2.9s-7.5-2.9-7.5-2.9S349.5,110.3,353.6,110.3z"/>
				<path class="st2" d="M358.2,120.6c0-4.1,2.9-7.5,2.9-7.5s2.9,3.3,2.9,7.5s-2.9,7.5-2.9,7.5S358.2,124.8,358.2,120.6z"/>
				<path class="st2" d="M368.5,116.1c-4.1,0-7.5-2.9-7.5-2.9s3.3-2.9,7.5-2.9s7.5,2.9,7.5,2.9S372.7,116.1,368.5,116.1z"/>
				<circle class="st3" cx="361.1" cy="113.2" r="1.9"/>
			</g>
		</g>
		<g>
			<circle class="st0" cx="338.6" cy="273.9" r="11.6"/>
			<g>
				<path class="st1" d="M343.4,271.8c-1.9,1.9-4.8,2.1-4.8,2.1s0.2-2.9,2.1-4.8s4.8-2.1,4.8-2.1S345.3,269.9,343.4,271.8z"/>
				<path class="st1" d="M336.5,269.1c1.9,1.9,2.1,4.8,2.1,4.8s-2.9-0.2-4.8-2.1s-2.1-4.8-2.1-4.8S334.6,267.2,336.5,269.1z"/>
				<path class="st1" d="M333.9,276c1.9-1.9,4.8-2.1,4.8-2.1s-0.2,2.9-2.1,4.8s-4.8,2.1-4.8,2.1S331.9,277.9,333.9,276z"/>
				<path class="st1" d="M340.8,278.7c-1.9-1.9-2.1-4.8-2.1-4.8s2.9,0.2,4.8,2.1s2.1,4.8,2.1,4.8S342.7,280.6,340.8,278.7z"/>
				<path class="st2" d="M341.5,266.4c0,4.1-2.9,7.5-2.9,7.5s-2.9-3.3-2.9-7.5s2.9-7.5,2.9-7.5S341.5,262.3,341.5,266.4z"/>
				<path class="st2" d="M331.2,271c4.1,0,7.5,2.9,7.5,2.9s-3.3,2.9-7.5,2.9s-7.5-2.9-7.5-2.9S327,271,331.2,271z"/>
				<path class="st2" d="M335.8,281.4c0-4.1,2.9-7.5,2.9-7.5s2.9,3.3,2.9,7.5s-2.9,7.5-2.9,7.5S335.8,285.5,335.8,281.4z"/>
				<path class="st2" d="M346.1,276.8c-4.1,0-7.5-2.9-7.5-2.9s3.3-2.9,7.5-2.9s7.5,2.9,7.5,2.9S350.2,276.8,346.1,276.8z"/>
				<circle class="st3" cx="338.6" cy="273.9" r="1.9"/>
			</g>
		</g>
		<g>
			<circle class="st0" cx="338.6" cy="305.8" r="11.6"/>
			<g>
				<path class="st1" d="M343.4,303.7c-1.9,1.9-4.8,2.1-4.8,2.1s0.2-2.9,2.1-4.8s4.8-2.1,4.8-2.1S345.3,301.8,343.4,303.7z"/>
				<path class="st1" d="M336.5,301.1c1.9,1.9,2.1,4.8,2.1,4.8s-2.9-0.2-4.8-2.1s-2.1-4.8-2.1-4.8S334.6,299.2,336.5,301.1z"/>
				<path class="st1" d="M333.9,308c1.9-1.9,4.8-2.1,4.8-2.1s-0.2,2.9-2.1,4.8s-4.8,2.1-4.8,2.1S331.9,309.9,333.9,308z"/>
				<path class="st1" d="M340.8,310.6c-1.9-1.9-2.1-4.8-2.1-4.8s2.9,0.2,4.8,2.1c1.9,1.9,2.1,4.8,2.1,4.8S342.7,312.5,340.8,310.6z"
					/>
				<path class="st2" d="M341.5,298.4c0,4.1-2.9,7.5-2.9,7.5s-2.9-3.3-2.9-7.5s2.9-7.5,2.9-7.5S341.5,294.2,341.5,298.4z"/>
				<path class="st2" d="M331.2,303c4.1,0,7.5,2.9,7.5,2.9s-3.3,2.9-7.5,2.9s-7.5-2.9-7.5-2.9S327,303,331.2,303z"/>
				<path class="st2" d="M335.8,313.3c0-4.1,2.9-7.5,2.9-7.5s2.9,3.3,2.9,7.5s-2.9,7.5-2.9,7.5S335.8,317.4,335.8,313.3z"/>
				<path class="st2" d="M346.1,308.7c-4.1,0-7.5-2.9-7.5-2.9s3.3-2.9,7.5-2.9s7.5,2.9,7.5,2.9S350.2,308.7,346.1,308.7z"/>
				<circle class="st3" cx="338.6" cy="305.8" r="1.9"/>
			</g>
		</g>
		<g>
			<circle class="st0" cx="316" cy="289.8" r="11.6"/>
			<g>
				<path class="st1" d="M320.8,287.7c-1.9,1.9-4.8,2.1-4.8,2.1s0.2-2.9,2.1-4.8s4.8-2.1,4.8-2.1S322.7,285.8,320.8,287.7z"/>
				<path class="st1" d="M313.9,285c1.9,1.9,2.1,4.8,2.1,4.8s-2.9-0.2-4.8-2.1c-1.9-1.9-2.1-4.8-2.1-4.8S312,283.1,313.9,285z"/>
				<path class="st1" d="M311.2,291.9c1.9-1.9,4.8-2.1,4.8-2.1s-0.2,2.9-2.1,4.8s-4.8,2.1-4.8,2.1S309.3,293.8,311.2,291.9z"/>
				<path class="st1" d="M318.1,294.6c-1.9-1.9-2.1-4.8-2.1-4.8s2.9,0.2,4.8,2.1s2.1,4.8,2.1,4.8S320,296.5,318.1,294.6z"/>
				<path class="st2" d="M318.9,282.3c0,4.1-2.9,7.5-2.9,7.5s-2.9-3.3-2.9-7.5s2.9-7.5,2.9-7.5S318.9,278.2,318.9,282.3z"/>
				<path class="st2" d="M308.5,286.9c4.1,0,7.5,2.9,7.5,2.9s-3.3,2.9-7.5,2.9s-7.5-2.9-7.5-2.9S304.4,286.9,308.5,286.9z"/>
				<path class="st2" d="M313.1,297.3c0-4.1,2.9-7.5,2.9-7.5s2.9,3.3,2.9,7.5s-2.9,7.5-2.9,7.5S313.1,301.4,313.1,297.3z"/>
				<path class="st2" d="M323.5,292.7c-4.1,0-7.5-2.9-7.5-2.9s3.3-2.9,7.5-2.9s7.5,2.9,7.5,2.9S327.6,292.7,323.5,292.7z"/>
				<circle class="st3" cx="316" cy="289.8" r="1.9"/>
			</g>
		</g>
		<g>
			<circle class="st0" cx="338.6" cy="242" r="11.6"/>
			<g>
				<path class="st1" d="M343.4,239.8c-1.9,1.9-4.8,2.1-4.8,2.1s0.2-2.9,2.1-4.8c1.9-1.9,4.8-2.1,4.8-2.1S345.3,237.9,343.4,239.8z"
					/>
				<path class="st1" d="M336.5,237.2c1.9,1.9,2.1,4.8,2.1,4.8s-2.9-0.2-4.8-2.1c-1.9-1.9-2.1-4.8-2.1-4.8S334.6,235.3,336.5,237.2z
					"/>
				<path class="st1" d="M333.9,244.1c1.9-1.9,4.8-2.1,4.8-2.1s-0.2,2.9-2.1,4.8c-1.9,1.9-4.8,2.1-4.8,2.1S331.9,246,333.9,244.1z"
					/>
				<path class="st1" d="M340.8,246.7c-1.9-1.9-2.1-4.8-2.1-4.8s2.9,0.2,4.8,2.1c1.9,1.9,2.1,4.8,2.1,4.8S342.7,248.6,340.8,246.7z"
					/>
				<path class="st2" d="M341.5,234.5c0,4.1-2.9,7.5-2.9,7.5s-2.9-3.3-2.9-7.5s2.9-7.5,2.9-7.5S341.5,230.4,341.5,234.5z"/>
				<path class="st2" d="M331.2,239.1c4.1,0,7.5,2.9,7.5,2.9s-3.3,2.9-7.5,2.9s-7.5-2.9-7.5-2.9S327,239.1,331.2,239.1z"/>
				<path class="st2" d="M335.8,249.4c0-4.1,2.9-7.5,2.9-7.5s2.9,3.3,2.9,7.5s-2.9,7.5-2.9,7.5S335.8,253.6,335.8,249.4z"/>
				<path class="st2" d="M346.1,244.8c-4.1,0-7.5-2.9-7.5-2.9s3.3-2.9,7.5-2.9s7.5,2.9,7.5,2.9S350.2,244.8,346.1,244.8z"/>
				<circle class="st3" cx="338.6" cy="242" r="1.9"/>
			</g>
		</g>
		<g>
			<circle class="st0" cx="338.6" cy="337.8" r="11.6"/>
			<g>
				<path class="st1" d="M343.4,335.7c-1.9,1.9-4.8,2.1-4.8,2.1s0.2-2.9,2.1-4.8s4.8-2.1,4.8-2.1S345.3,333.8,343.4,335.7z"/>
				<path class="st1" d="M336.5,333c1.9,1.9,2.1,4.8,2.1,4.8s-2.9-0.2-4.8-2.1s-2.1-4.8-2.1-4.8S334.6,331.1,336.5,333z"/>
				<path class="st1" d="M333.9,339.9c1.9-1.9,4.8-2.1,4.8-2.1s-0.2,2.9-2.1,4.8c-1.9,1.9-4.8,2.1-4.8,2.1S331.9,341.8,333.9,339.9z
					"/>
				<path class="st1" d="M340.8,342.6c-1.9-1.9-2.1-4.8-2.1-4.8s2.9,0.2,4.8,2.1c1.9,1.9,2.1,4.8,2.1,4.8S342.7,344.5,340.8,342.6z"
					/>
				<path class="st2" d="M341.5,330.3c0,4.1-2.9,7.5-2.9,7.5s-2.9-3.3-2.9-7.5s2.9-7.5,2.9-7.5S341.5,326.2,341.5,330.3z"/>
				<path class="st2" d="M331.2,334.9c4.1,0,7.5,2.9,7.5,2.9s-3.3,2.9-7.5,2.9s-7.5-2.9-7.5-2.9S327,334.9,331.2,334.9z"/>
				<path class="st2" d="M335.8,345.3c0-4.1,2.9-7.5,2.9-7.5s2.9,3.3,2.9,7.5s-2.9,7.5-2.9,7.5S335.8,349.4,335.8,345.3z"/>
				<path class="st2" d="M346.1,340.7c-4.1,0-7.5-2.9-7.5-2.9s3.3-2.9,7.5-2.9s7.5,2.9,7.5,2.9S350.2,340.7,346.1,340.7z"/>
				<circle class="st3" cx="338.6" cy="337.8" r="1.9"/>
			</g>
		</g>
		<g>
			<circle class="st0" cx="316" cy="321.6" r="11.6"/>
			<g>
				<path class="st1" d="M320.8,319.5c-1.9,1.9-4.8,2.1-4.8,2.1s0.2-2.9,2.1-4.8s4.8-2.1,4.8-2.1S322.7,317.6,320.8,319.5z"/>
				<path class="st1" d="M313.9,316.8c1.9,1.9,2.1,4.8,2.1,4.8s-2.9-0.2-4.8-2.1s-2.1-4.8-2.1-4.8S312,314.9,313.9,316.8z"/>
				<path class="st1" d="M311.2,323.7c1.9-1.9,4.8-2.1,4.8-2.1s-0.2,2.9-2.1,4.8c-1.9,1.9-4.8,2.1-4.8,2.1S309.3,325.6,311.2,323.7z
					"/>
				<path class="st1" d="M318.1,326.4c-1.9-1.9-2.1-4.8-2.1-4.8s2.9,0.2,4.8,2.1c1.9,1.9,2.1,4.8,2.1,4.8S320,328.3,318.1,326.4z"/>
				<path class="st2" d="M318.9,314.1c0,4.1-2.9,7.5-2.9,7.5s-2.9-3.3-2.9-7.5s2.9-7.5,2.9-7.5S318.9,310,318.9,314.1z"/>
				<path class="st2" d="M308.5,318.7c4.1,0,7.5,2.9,7.5,2.9s-3.3,2.9-7.5,2.9s-7.5-2.9-7.5-2.9S304.4,318.7,308.5,318.7z"/>
				<path class="st2" d="M313.1,329.1c0-4.1,2.9-7.5,2.9-7.5s2.9,3.3,2.9,7.5s-2.9,7.5-2.9,7.5S313.1,333.2,313.1,329.1z"/>
				<path class="st2" d="M323.5,324.5c-4.1,0-7.5-2.9-7.5-2.9s3.3-2.9,7.5-2.9s7.5,2.9,7.5,2.9S327.6,324.5,323.5,324.5z"/>
				<circle class="st3" cx="316" cy="321.6" r="1.9"/>
			</g>
		</g>
		<g>
			<circle class="st0" cx="316" cy="258" r="11.6"/>
			<g>
				<path class="st1" d="M320.8,255.8c-1.9,1.9-4.8,2.1-4.8,2.1s0.2-2.9,2.1-4.8c1.9-1.9,4.8-2.1,4.8-2.1S322.7,253.9,320.8,255.8z"
					/>
				<path class="st1" d="M313.9,253.2c1.9,1.9,2.1,4.8,2.1,4.8s-2.9-0.2-4.8-2.1c-1.9-1.9-2.1-4.8-2.1-4.8S312,251.3,313.9,253.2z"
					/>
				<path class="st1" d="M311.2,260.1c1.9-1.9,4.8-2.1,4.8-2.1s-0.2,2.9-2.1,4.8c-1.9,1.9-4.8,2.1-4.8,2.1S309.3,262,311.2,260.1z"
					/>
				<path class="st1" d="M318.1,262.7c-1.9-1.9-2.1-4.8-2.1-4.8s2.9,0.2,4.8,2.1c1.9,1.9,2.1,4.8,2.1,4.8S320,264.6,318.1,262.7z"/>
				<path class="st2" d="M318.9,250.5c0,4.1-2.9,7.5-2.9,7.5s-2.9-3.3-2.9-7.5s2.9-7.5,2.9-7.5S318.9,246.4,318.9,250.5z"/>
				<path class="st2" d="M308.5,255.1c4.1,0,7.5,2.9,7.5,2.9s-3.3,2.9-7.5,2.9S301,258,301,258S304.4,255.1,308.5,255.1z"/>
				<path class="st2" d="M313.1,265.4c0-4.1,2.9-7.5,2.9-7.5s2.9,3.3,2.9,7.5c0,4.1-2.9,7.5-2.9,7.5S313.1,269.6,313.1,265.4z"/>
				<path class="st2" d="M323.5,260.8c-4.1,0-7.5-2.9-7.5-2.9s3.3-2.9,7.5-2.9s7.5,2.9,7.5,2.9S327.6,260.8,323.5,260.8z"/>
				<circle class="st3" cx="316" cy="258" r="1.9"/>
			</g>
		</g>
		<g>
			<circle class="st0" cx="361.1" cy="289.8" r="11.6"/>
			<g>
				<path class="st1" d="M365.8,287.7c-1.9,1.9-4.8,2.1-4.8,2.1s0.2-2.9,2.1-4.8s4.8-2.1,4.8-2.1S367.7,285.8,365.8,287.7z"/>
				<path class="st1" d="M358.9,285c1.9,1.9,2.1,4.8,2.1,4.8s-2.9-0.2-4.8-2.1c-1.9-1.9-2.1-4.8-2.1-4.8S357,283.1,358.9,285z"/>
				<path class="st1" d="M356.3,291.9c1.9-1.9,4.8-2.1,4.8-2.1s-0.2,2.9-2.1,4.8s-4.8,2.1-4.8,2.1S354.4,293.8,356.3,291.9z"/>
				<path class="st1" d="M363.2,294.6c-1.9-1.9-2.1-4.8-2.1-4.8s2.9,0.2,4.8,2.1s2.1,4.8,2.1,4.8S365.1,296.5,363.2,294.6z"/>
				<path class="st2" d="M363.9,282.3c0,4.1-2.9,7.5-2.9,7.5s-2.9-3.3-2.9-7.5s2.9-7.5,2.9-7.5S363.9,278.2,363.9,282.3z"/>
				<path class="st2" d="M353.6,286.9c4.1,0,7.5,2.9,7.5,2.9s-3.3,2.9-7.5,2.9s-7.5-2.9-7.5-2.9S349.5,286.9,353.6,286.9z"/>
				<path class="st2" d="M358.2,297.3c0-4.1,2.9-7.5,2.9-7.5s2.9,3.3,2.9,7.5s-2.9,7.5-2.9,7.5S358.2,301.4,358.2,297.3z"/>
				<path class="st2" d="M368.5,292.7c-4.1,0-7.5-2.9-7.5-2.9s3.3-2.9,7.5-2.9s7.5,2.9,7.5,2.9S372.7,292.7,368.5,292.7z"/>
				<circle class="st3" cx="361.1" cy="289.8" r="1.9"/>
			</g>
		</g>
		<g>
			<circle class="st0" cx="361.1" cy="321.6" r="11.6"/>
			<g>
				<path class="st1" d="M365.8,319.5c-1.9,1.9-4.8,2.1-4.8,2.1s0.2-2.9,2.1-4.8s4.8-2.1,4.8-2.1S367.7,317.6,365.8,319.5z"/>
				<path class="st1" d="M358.9,316.8c1.9,1.9,2.1,4.8,2.1,4.8s-2.9-0.2-4.8-2.1s-2.1-4.8-2.1-4.8S357,314.9,358.9,316.8z"/>
				<path class="st1" d="M356.3,323.7c1.9-1.9,4.8-2.1,4.8-2.1s-0.2,2.9-2.1,4.8c-1.9,1.9-4.8,2.1-4.8,2.1S354.4,325.6,356.3,323.7z
					"/>
				<path class="st1" d="M363.2,326.4c-1.9-1.9-2.1-4.8-2.1-4.8s2.9,0.2,4.8,2.1c1.9,1.9,2.1,4.8,2.1,4.8S365.1,328.3,363.2,326.4z"
					/>
				<path class="st2" d="M363.9,314.1c0,4.1-2.9,7.5-2.9,7.5s-2.9-3.3-2.9-7.5s2.9-7.5,2.9-7.5S363.9,310,363.9,314.1z"/>
				<path class="st2" d="M353.6,318.7c4.1,0,7.5,2.9,7.5,2.9s-3.3,2.9-7.5,2.9s-7.5-2.9-7.5-2.9S349.5,318.7,353.6,318.7z"/>
				<path class="st2" d="M358.2,329.1c0-4.1,2.9-7.5,2.9-7.5s2.9,3.3,2.9,7.5s-2.9,7.5-2.9,7.5S358.2,333.2,358.2,329.1z"/>
				<path class="st2" d="M368.5,324.5c-4.1,0-7.5-2.9-7.5-2.9s3.3-2.9,7.5-2.9s7.5,2.9,7.5,2.9S372.7,324.5,368.5,324.5z"/>
				<circle class="st3" cx="361.1" cy="321.6" r="1.9"/>
			</g>
		</g>
		<g>
			<circle class="st0" cx="361.1" cy="258" r="11.6"/>
			<g>
				<path class="st1" d="M365.8,255.8c-1.9,1.9-4.8,2.1-4.8,2.1s0.2-2.9,2.1-4.8c1.9-1.9,4.8-2.1,4.8-2.1S367.7,253.9,365.8,255.8z"
					/>
				<path class="st1" d="M358.9,253.2c1.9,1.9,2.1,4.8,2.1,4.8s-2.9-0.2-4.8-2.1c-1.9-1.9-2.1-4.8-2.1-4.8S357,251.3,358.9,253.2z"
					/>
				<path class="st1" d="M356.3,260.1c1.9-1.9,4.8-2.1,4.8-2.1s-0.2,2.9-2.1,4.8c-1.9,1.9-4.8,2.1-4.8,2.1S354.4,262,356.3,260.1z"
					/>
				<path class="st1" d="M363.2,262.7c-1.9-1.9-2.1-4.8-2.1-4.8s2.9,0.2,4.8,2.1c1.9,1.9,2.1,4.8,2.1,4.8S365.1,264.6,363.2,262.7z"
					/>
				<path class="st2" d="M363.9,250.5c0,4.1-2.9,7.5-2.9,7.5s-2.9-3.3-2.9-7.5s2.9-7.5,2.9-7.5S363.9,246.4,363.9,250.5z"/>
				<path class="st2" d="M353.6,255.1c4.1,0,7.5,2.9,7.5,2.9s-3.3,2.9-7.5,2.9s-7.5-2.9-7.5-2.9S349.5,255.1,353.6,255.1z"/>
				<path class="st2" d="M358.2,265.4c0-4.1,2.9-7.5,2.9-7.5s2.9,3.3,2.9,7.5c0,4.1-2.9,7.5-2.9,7.5S358.2,269.6,358.2,265.4z"/>
				<path class="st2" d="M368.5,260.8c-4.1,0-7.5-2.9-7.5-2.9s3.3-2.9,7.5-2.9s7.5,2.9,7.5,2.9S372.7,260.8,368.5,260.8z"/>
				<circle class="st3" cx="361.1" cy="258" r="1.9"/>
			</g>
		</g>
	</g>
</g>
</svg>
