<?xml version="1.0" encoding="utf-8"?>
<!-- Generator: Adobe Illustrator 22.0.1, SVG Export Plug-In . SVG Version: 6.00 Build 0)  -->
<svg version="1.1" id="Layer_1" xmlns="http://www.w3.org/2000/svg" xmlns:xlink="http://www.w3.org/1999/xlink" x="0px" y="0px"
	 viewBox="0 0 400 400" style="enable-background:new 0 0 400 400;" xml:space="preserve">
<style type="text/css">
	.st0{fill:#FFFFFF;}
	.st1{fill:#FADC3C;}
	.st2{fill:#00CDC8;}
</style>
<g>
	<g>
		<rect x="27.2" y="95" class="st0" width="346.3" height="24.7"/>
		<path class="st0" d="M370.5,98v18.7H30.2V98H370.5 M376.5,92h-6H30.2h-6v6v18.7v6h6h340.3h6v-6V98V92L376.5,92z"/>
	</g>
	<rect x="30.2" y="98" class="st1" width="340.3" height="18.7"/>
</g>
<g>
	<g>
		<rect x="27.2" y="145.4" class="st0" width="346.3" height="24.7"/>
		<path class="st0" d="M370.5,148.4v18.7H30.2v-18.7H370.5 M376.5,142.4h-6H30.2h-6v6v18.7v6h6h340.3h6v-6v-18.7V142.4L376.5,142.4z
			"/>
	</g>
	<rect x="30.2" y="148.4" class="st1" width="340.3" height="18.7"/>
</g>
<g>
	<g>
		<rect x="27.2" y="195.8" class="st0" width="346.3" height="24.7"/>
		<path class="st0" d="M370.5,198.8v18.7H30.2v-18.7H370.5 M376.5,192.8h-6H30.2h-6v6v18.7v6h6h340.3h6v-6v-18.7V192.8L376.5,192.8z
			"/>
	</g>
	<rect x="30.2" y="198.8" class="st1" width="340.3" height="18.7"/>
</g>
<g>
	<g>
		<rect x="27.2" y="246.2" class="st0" width="346.3" height="24.7"/>
		<path class="st0" d="M370.5,249.2V268H30.2v-18.7h340.3 M376.5,243.2h-6H30.2h-6v6V268v6h6h340.3h6v-6v-18.7V243.2L376.5,243.2z"
			/>
	</g>
	<rect x="30.2" y="249.2" class="st1" width="340.3" height="18.7"/>
</g>
<g>
	<g>
		<rect x="27.2" y="44.6" class="st0" width="346.3" height="24.7"/>
		<path class="st0" d="M370.5,47.6v18.7H30.2V47.6H370.5 M376.5,41.6h-6H30.2h-6v6v18.7v6h6h340.3h6v-6V47.6V41.6L376.5,41.6z"/>
	</g>
	<rect x="30.2" y="47.6" class="st1" width="340.3" height="18.7"/>
</g>
<g>
	<g>
		<rect x="27.2" y="296.6" class="st0" width="346.3" height="24.7"/>
		<path class="st0" d="M370.5,299.6v18.7H30.2v-18.7H370.5 M376.5,293.6h-6H30.2h-6v6v18.7v6h6h340.3h6v-6v-18.7V293.6L376.5,293.6z
			"/>
	</g>
</g>
<rect x="30.2" y="299.6" class="st1" width="340.3" height="18.7"/>
<g>
	<g>
		<g>
			<g>
				<circle class="st0" cx="42.7" cy="369.1" r="16.2"/>
				<path class="st0" d="M42.7,355.9c7.3,0,13.2,5.9,13.2,13.2s-5.9,13.2-13.2,13.2s-13.2-5.9-13.2-13.2S35.4,355.9,42.7,355.9
					 M42.7,349.9c-10.6,0-19.2,8.6-19.2,19.2s8.6,19.2,19.2,19.2s19.2-8.6,19.2-19.2S53.3,349.9,42.7,349.9L42.7,349.9z"/>
			</g>
			<g>
				<circle class="st0" cx="87.3" cy="369.1" r="16.2"/>
				<path class="st0" d="M87.3,355.9c7.3,0,13.2,5.9,13.2,13.2s-5.9,13.2-13.2,13.2s-13.2-5.9-13.2-13.2S80,355.9,87.3,355.9
					 M87.3,349.9c-10.6,0-19.2,8.6-19.2,19.2s8.6,19.2,19.2,19.2s19.2-8.6,19.2-19.2S97.9,349.9,87.3,349.9L87.3,349.9z"/>
			</g>
			<g>
				<circle class="st0" cx="131.9" cy="369.1" r="16.2"/>
				<path class="st0" d="M131.9,355.9c7.3,0,13.2,5.9,13.2,13.2s-5.9,13.2-13.2,13.2s-13.2-5.9-13.2-13.2S124.6,355.9,131.9,355.9
					 M131.9,349.9c-10.6,0-19.2,8.6-19.2,19.2s8.6,19.2,19.2,19.2s19.2-8.6,19.2-19.2S142.5,349.9,131.9,349.9L131.9,349.9z"/>
			</g>
			<g>
				<circle class="st0" cx="177.6" cy="369.1" r="16.2"/>
				<path class="st0" d="M177.6,355.9c7.3,0,13.2,5.9,13.2,13.2s-5.9,13.2-13.2,13.2s-13.2-5.9-13.2-13.2S170.3,355.9,177.6,355.9
					 M177.6,349.9c-10.6,0-19.2,8.6-19.2,19.2s8.6,19.2,19.2,19.2c10.6,0,19.2-8.6,19.2-19.2S188.2,349.9,177.6,349.9L177.6,349.9z"
					/>
			</g>
		</g>
	</g>
</g>
<g>
	<g>
		<g>
			<circle class="st2" cx="42.7" cy="369.1" r="13.2"/>
			<circle class="st2" cx="87.3" cy="369.1" r="13.2"/>
			<circle class="st2" cx="131.9" cy="369.1" r="13.2"/>
			<g>
				<circle class="st0" cx="177.6" cy="369.1" r="16.2"/>
				<path class="st0" d="M177.6,355.9c7.3,0,13.2,5.9,13.2,13.2s-5.9,13.2-13.2,13.2s-13.2-5.9-13.2-13.2S170.3,355.9,177.6,355.9
					 M177.6,349.9c-10.6,0-19.2,8.6-19.2,19.2s8.6,19.2,19.2,19.2c10.6,0,19.2-8.6,19.2-19.2S188.2,349.9,177.6,349.9L177.6,349.9z"
					/>
			</g>
			<g>
				<circle class="st0" cx="177.6" cy="369.1" r="16.2"/>
				<path class="st0" d="M177.6,355.9c7.3,0,13.2,5.9,13.2,13.2s-5.9,13.2-13.2,13.2s-13.2-5.9-13.2-13.2S170.3,355.9,177.6,355.9
					 M177.6,349.9c-10.6,0-19.2,8.6-19.2,19.2s8.6,19.2,19.2,19.2c10.6,0,19.2-8.6,19.2-19.2S188.2,349.9,177.6,349.9L177.6,349.9z"
					/>
			</g>
			<circle class="st2" cx="177.6" cy="369.1" r="13.2"/>
		</g>
	</g>
</g>
</svg>
