<?xml version="1.0" encoding="utf-8"?>
<!-- Generator: Adobe Illustrator 22.0.1, SVG Export Plug-In . SVG Version: 6.00 Build 0)  -->
<svg version="1.1" id="Layer_1" xmlns="http://www.w3.org/2000/svg" xmlns:xlink="http://www.w3.org/1999/xlink" x="0px" y="0px"
	 viewBox="0 0 400 400" style="enable-background:new 0 0 400 400;" xml:space="preserve">
<style type="text/css">
	.st0{fill:#FFFFFF;}
	.st1{fill:#00CDC8;}
	.st2{fill:#FADC3C;}
</style>
<g>
	<g>
		<g>
			<g>
				<circle class="st0" cx="42.7" cy="369.1" r="16.2"/>
				<path class="st0" d="M42.7,355.9c7.3,0,13.2,5.9,13.2,13.2s-5.9,13.2-13.2,13.2s-13.2-5.9-13.2-13.2S35.4,355.9,42.7,355.9
					 M42.7,349.9c-10.6,0-19.2,8.6-19.2,19.2s8.6,19.2,19.2,19.2s19.2-8.6,19.2-19.2S53.3,349.9,42.7,349.9L42.7,349.9z"/>
			</g>
			<g>
				<circle class="st0" cx="87.3" cy="369.1" r="16.2"/>
				<path class="st0" d="M87.3,355.9c7.3,0,13.2,5.9,13.2,13.2s-5.9,13.2-13.2,13.2s-13.2-5.9-13.2-13.2S80,355.9,87.3,355.9
					 M87.3,349.9c-10.6,0-19.2,8.6-19.2,19.2s8.6,19.2,19.2,19.2s19.2-8.6,19.2-19.2S97.9,349.9,87.3,349.9L87.3,349.9z"/>
			</g>
			<g>
				<circle class="st0" cx="131.9" cy="369.1" r="16.2"/>
				<path class="st0" d="M131.9,355.9c7.3,0,13.2,5.9,13.2,13.2s-5.9,13.2-13.2,13.2s-13.2-5.9-13.2-13.2S124.6,355.9,131.9,355.9
					 M131.9,349.9c-10.6,0-19.2,8.6-19.2,19.2s8.6,19.2,19.2,19.2s19.2-8.6,19.2-19.2S142.5,349.9,131.9,349.9L131.9,349.9z"/>
			</g>
			<g>
				<circle class="st0" cx="177.6" cy="369.1" r="16.2"/>
				<path class="st0" d="M177.6,355.9c7.3,0,13.2,5.9,13.2,13.2s-5.9,13.2-13.2,13.2s-13.2-5.9-13.2-13.2S170.3,355.9,177.6,355.9
					 M177.6,349.9c-10.6,0-19.2,8.6-19.2,19.2s8.6,19.2,19.2,19.2c10.6,0,19.2-8.6,19.2-19.2S188.2,349.9,177.6,349.9L177.6,349.9z"
					/>
			</g>
		</g>
	</g>
</g>
<g>
	<g>
		<g>
			<circle class="st1" cx="42.7" cy="369.1" r="13.2"/>
			<circle class="st1" cx="87.3" cy="369.1" r="13.2"/>
			<circle class="st1" cx="131.9" cy="369.1" r="13.2"/>
			<g>
				<circle class="st0" cx="223.6" cy="369.1" r="16.2"/>
				<path class="st0" d="M223.6,355.9c7.3,0,13.2,5.9,13.2,13.2s-5.9,13.2-13.2,13.2s-13.2-5.9-13.2-13.2S216.3,355.9,223.6,355.9
					 M223.6,349.9c-10.6,0-19.2,8.6-19.2,19.2s8.6,19.2,19.2,19.2c10.6,0,19.2-8.6,19.2-19.2S234.2,349.9,223.6,349.9L223.6,349.9z"
					/>
			</g>
			<circle class="st1" cx="223.6" cy="369.1" r="13.2"/>
			<g>
				<circle class="st0" cx="177.6" cy="369.1" r="16.2"/>
				<path class="st0" d="M177.6,355.9c7.3,0,13.2,5.9,13.2,13.2s-5.9,13.2-13.2,13.2s-13.2-5.9-13.2-13.2S170.3,355.9,177.6,355.9
					 M177.6,349.9c-10.6,0-19.2,8.6-19.2,19.2s8.6,19.2,19.2,19.2c10.6,0,19.2-8.6,19.2-19.2S188.2,349.9,177.6,349.9L177.6,349.9z"
					/>
			</g>
			<g>
				<circle class="st0" cx="177.6" cy="369.1" r="16.2"/>
				<path class="st0" d="M177.6,355.9c7.3,0,13.2,5.9,13.2,13.2s-5.9,13.2-13.2,13.2s-13.2-5.9-13.2-13.2S170.3,355.9,177.6,355.9
					 M177.6,349.9c-10.6,0-19.2,8.6-19.2,19.2s8.6,19.2,19.2,19.2c10.6,0,19.2-8.6,19.2-19.2S188.2,349.9,177.6,349.9L177.6,349.9z"
					/>
			</g>
			<circle class="st1" cx="177.6" cy="369.1" r="13.2"/>
		</g>
	</g>
</g>
<g>
	<g>
		<rect x="27.2" y="98" class="st0" width="346.3" height="24.7"/>
		<path class="st0" d="M370.5,101v18.7H30.2V101H370.5 M376.5,95h-6H30.2h-6v6v18.7v6h6h340.3h6v-6V101V95L376.5,95z"/>
	</g>
	<rect x="30.2" y="101" class="st2" width="340.3" height="18.7"/>
</g>
<g>
	<g>
		<rect x="27.2" y="139.7" class="st0" width="346.3" height="24.7"/>
		<path class="st0" d="M370.5,142.7v18.7H30.2v-18.7H370.5 M376.5,136.7h-6H30.2h-6v6v18.7v6h6h340.3h6v-6v-18.7V136.7L376.5,136.7z
			"/>
	</g>
	<rect x="30.2" y="142.7" class="st2" width="340.3" height="18.7"/>
</g>
<g>
	<g>
		<rect x="27.2" y="181.5" class="st0" width="346.3" height="24.7"/>
		<path class="st0" d="M370.5,184.5v18.7H30.2v-18.7H370.5 M376.5,178.5h-6H30.2h-6v6v18.7v6h6h340.3h6v-6v-18.7V178.5L376.5,178.5z
			"/>
	</g>
	<rect x="30.2" y="184.5" class="st2" width="340.3" height="18.7"/>
</g>
<g>
	<g>
		<rect x="27.2" y="223.1" class="st0" width="346.3" height="24.7"/>
		<path class="st0" d="M370.5,226.1v18.8H30.2v-18.7h340.3 M376.5,220.1h-6H30.2h-6v6v18.8v6h6h340.3h6v-6v-18.7V220.1L376.5,220.1z
			"/>
	</g>
	<rect x="30.2" y="226.1" class="st2" width="340.3" height="18.7"/>
</g>
<g>
	<g>
		<rect x="27.2" y="264.8" class="st0" width="346.3" height="24.7"/>
		<path class="st0" d="M370.5,267.8v18.8H30.2v-18.7L370.5,267.8 M376.5,261.8h-6H30.2h-6v6v18.8v6h6h340.3h6v-6v-18.7V261.8
			L376.5,261.8z"/>
	</g>
	<rect x="30.2" y="267.8" class="st2" width="340.3" height="18.7"/>
</g>
<g>
	<g>
		<rect x="27.2" y="56.3" class="st0" width="346.3" height="24.7"/>
		<path class="st0" d="M370.5,59.3V78H30.2V59.3H370.5 M376.5,53.3h-6H30.2h-6v6V78v6h6h340.3h6v-6V59.3V53.3L376.5,53.3z"/>
	</g>
	<rect x="30.2" y="59.3" class="st2" width="340.3" height="18.7"/>
</g>
<g>
	<g>
		<rect x="27.2" y="14.6" class="st0" width="346.3" height="24.7"/>
		<path class="st0" d="M370.5,17.6v18.7H30.2V17.6H370.5 M376.5,11.6h-6H30.2h-6v6v18.7v6h6h340.3h6v-6V17.6V11.6L376.5,11.6z"/>
	</g>
	<rect x="30.2" y="17.6" class="st2" width="340.3" height="18.7"/>
</g>
<g>
	<g>
		<g>
			<rect x="27.2" y="306.6" class="st0" width="346.3" height="24.7"/>
			<path class="st0" d="M370.5,309.6v18.7H30.2v-18.7H370.5 M376.5,303.6h-6H30.2h-6v6v18.7v6h6h340.3h6v-6v-18.7V303.6L376.5,303.6
				z"/>
		</g>
	</g>
	<rect x="30.2" y="309.6" class="st2" width="340.3" height="18.7"/>
</g>
</svg>
