<?xml version="1.0" encoding="utf-8"?>
<!-- Generator: Adobe Illustrator 22.0.1, SVG Export Plug-In . SVG Version: 6.00 Build 0)  -->
<svg version="1.1" id="Layer_1" xmlns="http://www.w3.org/2000/svg" xmlns:xlink="http://www.w3.org/1999/xlink" x="0px" y="0px"
	 viewBox="0 0 400 400" style="enable-background:new 0 0 400 400;" xml:space="preserve">
<style type="text/css">
	.st0{fill:#FFFFFF;stroke:#FFFFFF;stroke-width:6;stroke-linecap:round;stroke-miterlimit:10;}
	.st1{fill:#00CDC8;}
</style>
<g>
	<circle class="st0" cx="38.1" cy="34.2" r="16.5"/>
	<circle class="st0" cx="73.8" cy="34.2" r="16.5"/>
	<path class="st0" d="M109.6,50.7c9,0,16.4-7.4,16.4-16.5c0-9.1-7.4-16.5-16.4-16.5c-9.1,0-16.5,7.4-16.5,16.5
		C93.1,43.3,100.5,50.7,109.6,50.7z"/>
	<circle class="st0" cx="145.3" cy="34.2" r="16.5"/>
	<circle class="st0" cx="181" cy="34.2" r="16.5"/>
	<circle class="st0" cx="216.7" cy="34.2" r="16.5"/>
	<circle class="st0" cx="252.4" cy="34.2" r="16.5"/>
	<circle class="st0" cx="288.2" cy="34.2" r="16.5"/>
	<circle class="st0" cx="323.9" cy="34.2" r="16.5"/>
	<circle class="st0" cx="359.6" cy="34.2" r="16.5"/>
	<circle class="st0" cx="38.1" cy="70.8" r="16.5"/>
	<circle class="st0" cx="73.8" cy="70.8" r="16.5"/>
	<path class="st0" d="M109.6,87.3c9,0,16.4-7.4,16.4-16.5c0-9.1-7.4-16.5-16.4-16.5c-9.1,0-16.5,7.4-16.5,16.5
		C93.1,79.9,100.5,87.3,109.6,87.3z"/>
	<circle class="st0" cx="145.3" cy="70.8" r="16.5"/>
	<circle class="st0" cx="181" cy="70.8" r="16.5"/>
	<circle class="st0" cx="216.7" cy="70.8" r="16.5"/>
	<circle class="st0" cx="252.4" cy="70.8" r="16.5"/>
	<circle class="st0" cx="288.2" cy="70.8" r="16.5"/>
	<circle class="st0" cx="323.9" cy="70.8" r="16.5"/>
	<circle class="st0" cx="359.6" cy="70.8" r="16.5"/>
	<circle class="st0" cx="38.1" cy="107.4" r="16.5"/>
	<circle class="st0" cx="73.8" cy="107.4" r="16.5"/>
	<circle class="st0" cx="109.6" cy="107.4" r="16.5"/>
	<circle class="st0" cx="38.1" cy="144" r="16.5"/>
	<circle class="st0" cx="73.8" cy="144" r="16.5"/>
	<path class="st0" d="M109.6,160.5c9,0,16.4-7.4,16.4-16.5s-7.4-16.5-16.4-16.5c-9.1,0-16.5,7.4-16.5,16.5S100.5,160.5,109.6,160.5z
		"/>
	<circle class="st0" cx="145.3" cy="144" r="16.5"/>
	<circle class="st0" cx="181" cy="144" r="16.5"/>
	<circle class="st0" cx="216.7" cy="144" r="16.5"/>
	<circle class="st0" cx="252.4" cy="144" r="16.5"/>
	<circle class="st0" cx="288.2" cy="144" r="16.5"/>
	<circle class="st0" cx="323.9" cy="144" r="16.5"/>
	<circle class="st0" cx="359.6" cy="144" r="16.5"/>
	<circle class="st0" cx="38.1" cy="180.5" r="16.5"/>
	<circle class="st0" cx="38.1" cy="217.1" r="16.5"/>
	<circle class="st0" cx="73.8" cy="217.1" r="16.5"/>
	<circle class="st0" cx="109.6" cy="217.1" r="16.5"/>
	<circle class="st0" cx="145.3" cy="217.1" r="16.5"/>
	<circle class="st0" cx="181" cy="217.1" r="16.5"/>
	<circle class="st0" cx="216.7" cy="217.2" r="16.5"/>
	<circle class="st0" cx="252.4" cy="217.2" r="16.5"/>
	<circle class="st0" cx="288.2" cy="217.2" r="16.5"/>
	<circle class="st0" cx="323.9" cy="217.2" r="16.5"/>
	<circle class="st0" cx="359.6" cy="217.2" r="16.5"/>
	<circle class="st0" cx="38.1" cy="253.7" r="16.5"/>
	<circle class="st0" cx="38.1" cy="290.3" r="16.5"/>
	<circle class="st0" cx="73.8" cy="290.3" r="16.5"/>
	<circle class="st0" cx="109.6" cy="290.3" r="16.5"/>
	<circle class="st0" cx="145.3" cy="290.3" r="16.5"/>
	<circle class="st0" cx="181" cy="290.3" r="16.5"/>
	<circle class="st0" cx="216.7" cy="290.3" r="16.5"/>
	<circle class="st0" cx="252.4" cy="290.3" r="16.5"/>
	<circle class="st0" cx="288.2" cy="290.3" r="16.5"/>
	<circle class="st0" cx="323.9" cy="290.3" r="16.5"/>
	<circle class="st0" cx="359.6" cy="290.3" r="16.5"/>
	<circle class="st0" cx="38.1" cy="363.5" r="16.5"/>
	<circle class="st0" cx="73.8" cy="363.5" r="16.5"/>
	<circle class="st0" cx="109.6" cy="363.5" r="16.5"/>
	<circle class="st0" cx="145.3" cy="363.5" r="16.5"/>
	<circle class="st0" cx="181" cy="363.5" r="16.5"/>
	<circle class="st0" cx="216.7" cy="363.5" r="16.5"/>
	<circle class="st0" cx="252.4" cy="363.5" r="16.5"/>
	<circle class="st0" cx="288.2" cy="363.5" r="16.5"/>
	<circle class="st0" cx="323.9" cy="363.5" r="16.5"/>
	<circle class="st0" cx="359.6" cy="363.5" r="16.5"/>
	<circle class="st0" cx="38.1" cy="326.9" r="16.5"/>
	<circle class="st0" cx="73.8" cy="326.9" r="16.5"/>
</g>
<g>
	<g>
		<g>
			<circle class="st1" cx="38.1" cy="34.2" r="13.5"/>
		</g>
		<g>
			<circle class="st1" cx="73.8" cy="34.2" r="13.5"/>
		</g>
		<g>
			<circle class="st1" cx="109.6" cy="34.2" r="13.5"/>
		</g>
		<g>
			<circle class="st1" cx="145.3" cy="34.2" r="13.5"/>
		</g>
		<g>
			<circle class="st1" cx="181" cy="34.2" r="13.5"/>
		</g>
		<g>
			<circle class="st1" cx="216.7" cy="34.2" r="13.5"/>
		</g>
		<g>
			<circle class="st1" cx="252.4" cy="34.2" r="13.5"/>
		</g>
		<g>
			<circle class="st1" cx="288.2" cy="34.2" r="13.5"/>
		</g>
		<g>
			<circle class="st1" cx="323.9" cy="34.2" r="13.5"/>
		</g>
		<g>
			<circle class="st1" cx="359.6" cy="34.2" r="13.5"/>
		</g>
	</g>
	<g>
		<g>
			<circle class="st1" cx="38.1" cy="70.8" r="13.5"/>
		</g>
		<g>
			<circle class="st1" cx="73.8" cy="70.8" r="13.5"/>
		</g>
		<g>
			<circle class="st1" cx="109.6" cy="70.8" r="13.5"/>
		</g>
		<g>
			<circle class="st1" cx="145.3" cy="70.8" r="13.5"/>
		</g>
		<g>
			<circle class="st1" cx="181" cy="70.8" r="13.5"/>
		</g>
		<g>
			<circle class="st1" cx="216.7" cy="70.8" r="13.5"/>
		</g>
		<g>
			<circle class="st1" cx="252.4" cy="70.8" r="13.5"/>
		</g>
		<g>
			<circle class="st1" cx="288.2" cy="70.8" r="13.5"/>
		</g>
		<g>
			<circle class="st1" cx="323.9" cy="70.8" r="13.5"/>
		</g>
		<g>
			<circle class="st1" cx="359.6" cy="70.8" r="13.5"/>
		</g>
	</g>
	<g>
		<g>
			<circle class="st1" cx="38.1" cy="107.4" r="13.5"/>
		</g>
		<g>
			<circle class="st1" cx="73.8" cy="107.4" r="13.5"/>
		</g>
		<g>
			<circle class="st1" cx="109.6" cy="107.4" r="13.5"/>
		</g>
	</g>
	<g>
		<g>
			<circle class="st1" cx="38.1" cy="144" r="13.5"/>
		</g>
		<g>
			<circle class="st1" cx="73.8" cy="144" r="13.5"/>
		</g>
		<g>
			<circle class="st1" cx="109.6" cy="144" r="13.5"/>
		</g>
		<g>
			<circle class="st1" cx="145.3" cy="144" r="13.5"/>
		</g>
		<g>
			<circle class="st1" cx="181" cy="144" r="13.5"/>
		</g>
		<g>
			<circle class="st1" cx="216.7" cy="144" r="13.5"/>
		</g>
		<g>
			<circle class="st1" cx="252.4" cy="144" r="13.5"/>
		</g>
		<g>
			<circle class="st1" cx="288.2" cy="144" r="13.5"/>
		</g>
		<g>
			<circle class="st1" cx="323.9" cy="144" r="13.5"/>
		</g>
		<g>
			<circle class="st1" cx="359.6" cy="144" r="13.5"/>
		</g>
	</g>
	<g>
		<g>
			<circle class="st1" cx="38.1" cy="180.6" r="13.5"/>
		</g>
	</g>
	<g>
		<g>
			<circle class="st1" cx="38.1" cy="217.2" r="13.5"/>
		</g>
		<g>
			<circle class="st1" cx="73.8" cy="217.2" r="13.5"/>
		</g>
		<g>
			<circle class="st1" cx="109.6" cy="217.2" r="13.5"/>
		</g>
		<g>
			<circle class="st1" cx="145.3" cy="217.2" r="13.5"/>
		</g>
		<g>
			<circle class="st1" cx="181" cy="217.2" r="13.5"/>
		</g>
		<g>
			<circle class="st1" cx="216.7" cy="217.2" r="13.5"/>
		</g>
		<g>
			<circle class="st1" cx="252.4" cy="217.2" r="13.5"/>
		</g>
		<g>
			<circle class="st1" cx="288.2" cy="217.2" r="13.5"/>
		</g>
		<g>
			<circle class="st1" cx="323.9" cy="217.2" r="13.5"/>
		</g>
		<g>
			<circle class="st1" cx="359.6" cy="217.2" r="13.5"/>
		</g>
	</g>
	<g>
		<g>
			<circle class="st1" cx="38.1" cy="253.7" r="13.5"/>
		</g>
	</g>
	<g>
		<g>
			<circle class="st1" cx="38.1" cy="290.3" r="13.5"/>
		</g>
		<g>
			<circle class="st1" cx="73.8" cy="290.3" r="13.5"/>
		</g>
		<g>
			<circle class="st1" cx="109.6" cy="290.3" r="13.5"/>
		</g>
		<g>
			<circle class="st1" cx="145.3" cy="290.3" r="13.5"/>
		</g>
		<g>
			<circle class="st1" cx="181" cy="290.3" r="13.5"/>
		</g>
		<g>
			<circle class="st1" cx="216.7" cy="290.3" r="13.5"/>
		</g>
		<g>
			<circle class="st1" cx="252.4" cy="290.3" r="13.5"/>
		</g>
		<g>
			<circle class="st1" cx="288.2" cy="290.3" r="13.5"/>
		</g>
		<g>
			<circle class="st1" cx="323.9" cy="290.3" r="13.5"/>
		</g>
		<g>
			<circle class="st1" cx="359.6" cy="290.3" r="13.5"/>
		</g>
	</g>
	<g>
		<g>
			<circle class="st1" cx="38.1" cy="363.5" r="13.5"/>
		</g>
		<g>
			<circle class="st1" cx="73.8" cy="363.5" r="13.5"/>
		</g>
		<g>
			<circle class="st1" cx="109.6" cy="363.5" r="13.5"/>
		</g>
		<g>
			<circle class="st1" cx="145.3" cy="363.5" r="13.5"/>
		</g>
		<g>
			<circle class="st1" cx="181" cy="363.5" r="13.5"/>
		</g>
		<g>
			<circle class="st1" cx="216.7" cy="363.5" r="13.5"/>
		</g>
		<g>
			<circle class="st1" cx="252.4" cy="363.5" r="13.5"/>
		</g>
		<g>
			<circle class="st1" cx="288.2" cy="363.5" r="13.5"/>
		</g>
		<g>
			<circle class="st1" cx="323.9" cy="363.5" r="13.5"/>
		</g>
		<g>
			<circle class="st1" cx="359.6" cy="363.5" r="13.5"/>
		</g>
	</g>
	<g>
		<g>
			<circle class="st1" cx="38.1" cy="326.9" r="13.5"/>
		</g>
		<g>
			<circle class="st1" cx="73.8" cy="326.9" r="13.5"/>
		</g>
	</g>
</g>
</svg>
