<?xml version="1.0" encoding="utf-8"?>
<!-- Generator: Adobe Illustrator 22.0.1, SVG Export Plug-In . SVG Version: 6.00 Build 0)  -->
<svg version="1.0" id="Layer_1" xmlns="http://www.w3.org/2000/svg" xmlns:xlink="http://www.w3.org/1999/xlink" x="0px" y="0px"
	 viewBox="0 0 165 164" style="enable-background:new 0 0 165 164;" xml:space="preserve">
<style type="text/css">
	.st0{fill:#691869;}
	.st1{fill:#FADC3C;}
	.st2{fill:#FFFFFF;}
	.st3{font-family:'Nunito-Bold';}
	.st4{font-size:64.1966px;}
	.st5{letter-spacing:-1;}
	.st6{font-size:29.8637px;}
</style>
<g>
	<g>
		<g>
			<path class="st0" d="M149.9,79.4v14.9h-9.3V79.4h-15.2v-9h15.1V55.5h9.3v14.9H165v9H149.9z"/>
		</g>
	</g>
</g>
<g>
	<g>
		<circle class="st1" cx="60.6" cy="74.6" r="50.6"/>
		<path class="st2" d="M60.6,27.1c26.3,0,47.6,21.3,47.6,47.6s-21.3,47.6-47.6,47.6S13,100.9,13,74.6S34.3,27.1,60.6,27.1
			 M60.6,21.1C31.1,21.1,7,45.1,7,74.6s24,53.6,53.6,53.6s53.6-24,53.6-53.6S90.1,21.1,60.6,21.1L60.6,21.1z"/>
	</g>
	<text transform="matrix(1 0 0 1 41.3477 95.8486)" class="st0 st3 st4 st5">8</text>
</g>
<text transform="matrix(1 0 0 1 4.1646 161.4395)" class="st0 st3 st6">Decenas</text>
</svg>
