<?xml version="1.0" encoding="utf-8"?>
<!-- Generator: Adobe Illustrator 22.0.1, SVG Export Plug-In . SVG Version: 6.00 Build 0)  -->
<svg version="1.0" id="Layer_1" xmlns="http://www.w3.org/2000/svg" xmlns:xlink="http://www.w3.org/1999/xlink" x="0px" y="0px"
	 viewBox="0 0 165 164" style="enable-background:new 0 0 165 164;" xml:space="preserve">
<style type="text/css">
	.st0{fill:#691869;}
	.st1{fill:#44B9BC;}
	.st2{fill:#FFFFFF;}
	.st3{fill:#F0E5E0;}
	.st4{font-family:'Nunito-Bold';}
	.st5{font-size:64.1966px;}
	.st6{font-size:29.8637px;}
</style>
<g>
	<g>
		<g>
			<g>
				<path class="st0" d="M125.4,79.4v-9H165v9H125.4z"/>
			</g>
		</g>
	</g>
</g>
<g>
	<g>
		<g>
			<g>
				<path class="st0" d="M125.4,95.6v-9H165v9H125.4z"/>
			</g>
		</g>
	</g>
</g>
<g>
	<g>
		<circle class="st1" cx="60.6" cy="74.6" r="50.6"/>
		<path class="st2" d="M60.6,27c26.3,0,47.6,21.3,47.6,47.6s-21.3,47.6-47.6,47.6c-26.3,0-47.6-21.3-47.6-47.6S34.3,27,60.6,27
			 M60.6,21C31,21,7,45,7,74.6s24,53.6,53.6,53.6s53.6-24,53.6-53.6S90.2,21,60.6,21L60.6,21z"/>
	</g>
	<text transform="matrix(1 0 0 1 41.3477 95.8486)" class="st3 st4 st5">5</text>
</g>
<text transform="matrix(1 0 0 1 4.4492 161.4395)" class="st0 st4 st6">Unidades</text>
</svg>
