<?xml version="1.0" encoding="utf-8"?>
<!-- Generator: Adobe Illustrator 22.0.1, SVG Export Plug-In . SVG Version: 6.00 Build 0)  -->
<svg version="1.0" id="Layer_1" xmlns="http://www.w3.org/2000/svg" xmlns:xlink="http://www.w3.org/1999/xlink" x="0px" y="0px"
	 viewBox="0 0 165 164" style="enable-background:new 0 0 165 164;" xml:space="preserve">
<style type="text/css">
	.st0{fill:#691869;}
	.st1{fill:#44B9BC;}
	.st2{fill:#FFFFFF;}
	.st3{enable-background:new    ;}
	.st4{fill:#F0E5E0;}
</style>
<g>
	<g>
		<g>
			<g>
				<path class="st0" d="M125.4,79.4v-9H165v9H125.4z"/>
			</g>
		</g>
	</g>
</g>
<g>
	<g>
		<g>
			<g>
				<path class="st0" d="M125.4,95.6v-9H165v9H125.4z"/>
			</g>
		</g>
	</g>
</g>
<g>
	<g>
		<circle class="st1" cx="60.6" cy="74.6" r="50.6"/>
		<path class="st2" d="M60.6,27c26.3,0,47.6,21.3,47.6,47.6s-21.3,47.6-47.6,47.6S13,100.9,13,74.6S34.3,27,60.6,27 M60.6,21
			C31,21,7,45,7,74.6s24,53.6,53.6,53.6s53.6-24,53.6-53.6S90.2,21,60.6,21L60.6,21z"/>
	</g>
	<g class="st3">
		<path class="st4" d="M77.2,92.4c0,2.3-1.3,3.4-3.9,3.4H48.9c-1.1,0-2-0.3-2.6-1c-0.6-0.7-1-1.5-1-2.5c0-1.3,0.5-2.4,1.5-3.5
			l14.6-15.7c1.8-2,3.1-3.8,3.9-5.4c0.8-1.6,1.3-3.3,1.3-4.9c0-2-0.6-3.6-1.7-4.6c-1.2-1.1-2.8-1.6-4.9-1.6c-1.8,0-3.5,0.3-5.1,1
			c-1.6,0.7-3.3,1.6-5,2.7c-0.4,0.3-0.9,0.5-1.3,0.7c-0.4,0.2-0.9,0.3-1.3,0.3c-0.7,0-1.4-0.3-1.9-1c-0.5-0.7-0.8-1.5-0.8-2.4
			c0-0.6,0.1-1.2,0.4-1.7c0.2-0.5,0.6-0.9,1.1-1.3c1.9-1.5,4.1-2.7,6.6-3.6c2.5-0.9,5-1.3,7.6-1.3c4.4,0,7.9,1.1,10.6,3.3
			c2.6,2.2,3.9,5.2,3.9,9c0,2.6-0.6,5.1-1.7,7.4c-1.1,2.3-3,4.8-5.6,7.7L56.4,89.2h16.9C75.9,89.2,77.2,90.3,77.2,92.4z"/>
	</g>
</g>
<g class="st3">
	<path class="st0" d="M8.8,159.5c-1.5-1.5-2.2-3.7-2.2-6.5v-10.8c0-0.6,0.2-1,0.5-1.4c0.3-0.3,0.8-0.5,1.4-0.5c0.6,0,1,0.2,1.4,0.5
		c0.3,0.3,0.5,0.8,0.5,1.4v11c0,1.8,0.4,3.2,1.3,4.1c0.9,0.9,2.1,1.4,3.8,1.4c1.6,0,2.9-0.5,3.7-1.4c0.9-0.9,1.3-2.3,1.3-4.1v-11
		c0-0.6,0.2-1,0.5-1.4c0.3-0.3,0.8-0.5,1.4-0.5c0.6,0,1,0.2,1.4,0.5c0.3,0.3,0.5,0.8,0.5,1.4v10.8c0,2.8-0.7,5-2.2,6.5
		c-1.5,1.5-3.7,2.3-6.5,2.3C12.5,161.7,10.3,161,8.8,159.5z"/>
	<path class="st0" d="M40.7,148c0.9,1,1.3,2.5,1.3,4.5v7.3c0,0.6-0.2,1-0.5,1.3s-0.8,0.5-1.4,0.5c-0.6,0-1-0.2-1.4-0.5
		c-0.3-0.3-0.5-0.8-0.5-1.3v-7.1c0-1.1-0.2-2-0.6-2.5c-0.4-0.5-1.1-0.8-2-0.8c-1.1,0-1.9,0.3-2.6,1c-0.6,0.7-1,1.6-1,2.7v6.7
		c0,0.6-0.2,1-0.5,1.3c-0.3,0.3-0.8,0.5-1.4,0.5s-1-0.2-1.4-0.5c-0.3-0.3-0.5-0.8-0.5-1.3v-11.6c0-0.5,0.2-0.9,0.5-1.3
		c0.3-0.3,0.8-0.5,1.4-0.5c0.5,0,0.9,0.2,1.3,0.5c0.3,0.3,0.5,0.7,0.5,1.2v0.8c0.5-0.8,1.2-1.4,2-1.9c0.8-0.4,1.8-0.7,2.8-0.7
		C38.5,146.5,39.8,147,40.7,148z"/>
	<path class="st0" d="M46,143.3c-0.4-0.4-0.6-0.9-0.6-1.4c0-0.6,0.2-1.1,0.6-1.4c0.4-0.4,0.9-0.5,1.6-0.5c0.7,0,1.2,0.2,1.6,0.5
		c0.4,0.4,0.6,0.8,0.6,1.4c0,0.6-0.2,1.1-0.6,1.4c-0.4,0.4-0.9,0.6-1.6,0.6S46.4,143.7,46,143.3z M46.3,161.2
		c-0.3-0.3-0.5-0.8-0.5-1.3v-11.5c0-0.6,0.2-1,0.5-1.3c0.3-0.3,0.8-0.4,1.3-0.4c0.5,0,1,0.1,1.3,0.4s0.5,0.7,0.5,1.3v11.5
		c0,0.6-0.2,1-0.5,1.3c-0.4,0.3-0.8,0.5-1.3,0.5C47.1,161.6,46.6,161.5,46.3,161.2z"/>
	<path class="st0" d="M66.9,140.7c0.4,0.3,0.5,0.7,0.5,1.3v17.9c0,0.5-0.2,1-0.5,1.3c-0.3,0.3-0.8,0.5-1.3,0.5c-0.6,0-1-0.2-1.3-0.5
		c-0.3-0.3-0.5-0.7-0.5-1.3v-0.7c-0.4,0.8-1.1,1.5-1.9,1.9c-0.8,0.5-1.8,0.7-2.8,0.7c-1.3,0-2.4-0.3-3.4-1c-1-0.6-1.8-1.5-2.3-2.7
		c-0.5-1.2-0.8-2.5-0.8-4c0-1.5,0.3-2.8,0.8-4c0.5-1.1,1.3-2,2.3-2.6c1-0.6,2.1-0.9,3.4-0.9c1.1,0,2,0.2,2.8,0.7
		c0.8,0.4,1.4,1.1,1.9,1.9v-7.1c0-0.5,0.2-0.9,0.5-1.2c0.3-0.3,0.8-0.5,1.3-0.5C66.1,140.2,66.5,140.4,66.9,140.7z M62.8,157.6
		c0.6-0.8,1-2,1-3.5s-0.3-2.7-1-3.5c-0.6-0.8-1.6-1.2-2.7-1.2c-1.2,0-2.1,0.4-2.8,1.2c-0.7,0.8-1,1.9-1,3.4c0,1.5,0.3,2.7,1,3.5
		c0.7,0.8,1.6,1.3,2.7,1.3C61.2,158.8,62.1,158.4,62.8,157.6z"/>
	<path class="st0" d="M82.1,148c1,1,1.5,2.5,1.5,4.6v7.3c0,0.5-0.2,1-0.5,1.3c-0.3,0.3-0.8,0.5-1.3,0.5c-0.5,0-0.9-0.2-1.3-0.5
		s-0.5-0.7-0.5-1.3v-0.7c-0.3,0.8-0.9,1.4-1.6,1.8c-0.7,0.4-1.6,0.7-2.5,0.7c-1,0-1.9-0.2-2.7-0.6s-1.4-0.9-1.9-1.6
		c-0.5-0.7-0.7-1.5-0.7-2.3c0-1.1,0.3-1.9,0.8-2.5c0.5-0.6,1.4-1.1,2.7-1.3c1.2-0.3,2.9-0.4,5.1-0.4h0.7v-0.7c0-1-0.2-1.7-0.6-2.1
		c-0.4-0.4-1.1-0.7-2-0.7c-0.6,0-1.2,0.1-1.8,0.3c-0.6,0.2-1.3,0.4-2.1,0.7c-0.5,0.3-0.9,0.4-1.1,0.4c-0.4,0-0.7-0.1-0.9-0.4
		c-0.2-0.3-0.3-0.6-0.3-1c0-0.3,0.1-0.6,0.3-0.9c0.2-0.2,0.5-0.5,0.9-0.7c0.7-0.4,1.5-0.7,2.5-0.9c1-0.2,1.9-0.3,2.9-0.3
		C79.6,146.5,81.2,147,82.1,148z M79.1,158c0.6-0.7,0.9-1.5,0.9-2.6v-0.6h-0.5c-1.3,0-2.4,0.1-3.1,0.2c-0.7,0.1-1.3,0.3-1.6,0.6
		c-0.3,0.3-0.5,0.7-0.5,1.2c0,0.6,0.2,1.2,0.7,1.6c0.4,0.4,1,0.6,1.7,0.6C77.7,159,78.5,158.7,79.1,158z"/>
	<path class="st0" d="M101,140.7c0.4,0.3,0.5,0.7,0.5,1.3v17.9c0,0.5-0.2,1-0.5,1.3c-0.3,0.3-0.8,0.5-1.3,0.5c-0.6,0-1-0.2-1.3-0.5
		c-0.3-0.3-0.5-0.7-0.5-1.3v-0.7c-0.4,0.8-1.1,1.5-1.9,1.9c-0.8,0.5-1.8,0.7-2.8,0.7c-1.3,0-2.4-0.3-3.4-1c-1-0.6-1.8-1.5-2.3-2.7
		c-0.5-1.2-0.8-2.5-0.8-4c0-1.5,0.3-2.8,0.8-4s1.3-2,2.3-2.6c1-0.6,2.1-0.9,3.4-0.9c1.1,0,2,0.2,2.8,0.7c0.8,0.4,1.4,1.1,1.9,1.9
		v-7.1c0-0.5,0.2-0.9,0.5-1.2s0.8-0.5,1.3-0.5C100.2,140.2,100.6,140.4,101,140.7z M96.8,157.6c0.6-0.8,1-2,1-3.5s-0.3-2.7-1-3.5
		c-0.6-0.8-1.6-1.2-2.7-1.2c-1.2,0-2.1,0.4-2.8,1.2s-1,1.9-1,3.4c0,1.5,0.3,2.7,1,3.5s1.6,1.3,2.7,1.3
		C95.3,158.8,96.2,158.4,96.8,157.6z"/>
	<path class="st0" d="M117.7,157.8c0.2,0.3,0.3,0.6,0.3,1c0,0.6-0.4,1.1-1.1,1.6c-0.7,0.4-1.4,0.7-2.3,0.9c-0.9,0.2-1.7,0.3-2.4,0.3
		c-2.3,0-4.2-0.7-5.6-2c-1.4-1.4-2.1-3.2-2.1-5.6c0-1.5,0.3-2.8,0.9-4c0.6-1.2,1.4-2.1,2.5-2.7c1.1-0.6,2.3-1,3.7-1
		c1.3,0,2.5,0.3,3.4,0.9c1,0.6,1.7,1.4,2.3,2.4c0.5,1.1,0.8,2.3,0.8,3.7c0,0.9-0.4,1.3-1.1,1.3h-8.8c0.1,1.4,0.5,2.4,1.2,3
		c0.7,0.6,1.6,1,2.9,1c0.6,0,1.2-0.1,1.7-0.2c0.5-0.2,1-0.4,1.7-0.7c0.6-0.3,1-0.5,1.3-0.5C117.3,157.4,117.5,157.6,117.7,157.8z
		 M109.3,150.1c-0.6,0.6-1,1.6-1.1,2.7h6.7c0-1.2-0.3-2.1-0.9-2.8c-0.6-0.6-1.3-0.9-2.3-0.9C110.7,149.1,109.9,149.4,109.3,150.1z"
		/>
	<path class="st0" d="M121.2,160.4c-0.6-0.4-1-0.9-1-1.6c0-0.4,0.1-0.7,0.3-1c0.2-0.2,0.5-0.4,0.8-0.4c0.3,0,0.8,0.2,1.4,0.5
		c0.6,0.3,1.2,0.5,1.7,0.7s1.2,0.2,2,0.2c0.8,0,1.5-0.1,2-0.4c0.5-0.3,0.7-0.7,0.7-1.2c0-0.3-0.1-0.6-0.3-0.8
		c-0.2-0.2-0.5-0.4-1-0.6c-0.5-0.2-1.2-0.4-2.2-0.6c-1.8-0.4-3-0.9-3.8-1.5c-0.8-0.7-1.2-1.6-1.2-2.7c0-0.9,0.3-1.7,0.8-2.4
		c0.5-0.7,1.2-1.3,2.1-1.6c0.9-0.4,1.9-0.6,3.1-0.6c0.8,0,1.6,0.1,2.4,0.3s1.5,0.5,2.1,0.9c0.6,0.4,1,0.9,1,1.6c0,0.4-0.1,0.7-0.3,1
		c-0.2,0.3-0.5,0.4-0.8,0.4c-0.2,0-0.4,0-0.6-0.1c-0.2-0.1-0.5-0.2-0.8-0.4c-0.6-0.3-1.1-0.5-1.5-0.7c-0.4-0.1-0.9-0.2-1.6-0.2
		c-0.7,0-1.3,0.1-1.7,0.4c-0.4,0.3-0.6,0.7-0.6,1.2c0,0.5,0.2,0.9,0.7,1.1c0.4,0.3,1.3,0.5,2.5,0.8c1.3,0.3,2.4,0.6,3.1,1
		c0.8,0.4,1.3,0.8,1.6,1.3c0.3,0.5,0.5,1.2,0.5,2.1c0,1.4-0.6,2.4-1.7,3.3s-2.6,1.2-4.5,1.2C124.3,161.7,122.6,161.2,121.2,160.4z"
		/>
</g>
</svg>
