<?xml version="1.0" encoding="utf-8"?>
<!-- Generator: Adobe Illustrator 22.0.1, SVG Export Plug-In . SVG Version: 6.00 Build 0)  -->
<svg version="1.0" id="Layer_1" xmlns="http://www.w3.org/2000/svg" xmlns:xlink="http://www.w3.org/1999/xlink" x="0px" y="0px"
	 viewBox="0 0 165 164" style="enable-background:new 0 0 165 164;" xml:space="preserve">
<style type="text/css">
	.st0{fill:#691869;}
	.st1{fill:#FADC3C;}
	.st2{fill:#FFFFFF;}
	.st3{enable-background:new    ;}
</style>
<g>
	<g>
		<g>
			<path class="st0" d="M149.9,79.4v14.9h-9.3V79.4h-15.2v-9h15.1V55.5h9.3v14.9H165v9H149.9z"/>
		</g>
	</g>
</g>
<g>
	<g>
		<circle class="st1" cx="60.6" cy="74.6" r="50.6"/>
		<path class="st2" d="M60.6,27.1c26.3,0,47.6,21.3,47.6,47.6s-21.3,47.6-47.6,47.6S13,100.9,13,74.6S34.3,27.1,60.6,27.1
			 M60.6,21.1C31.1,21.1,7,45.1,7,74.6s24,53.6,53.6,53.6s53.6-24,53.6-53.6S90.1,21.1,60.6,21.1L60.6,21.1z"/>
	</g>
	<g class="st3">
		<path class="st0" d="M70.6,68.7c2.1,1.2,3.7,2.9,4.9,5.1c1.2,2.2,1.8,4.7,1.8,7.5c0,2.9-0.7,5.5-2,7.8c-1.3,2.3-3.1,4.1-5.4,5.4
			c-2.3,1.3-4.9,1.9-7.8,1.9c-5.7,0-10.2-1.9-13.3-5.8c-3.1-3.9-4.7-9.4-4.7-16.6c0-4.9,0.7-9.2,2.2-12.8c1.5-3.6,3.5-6.4,6.3-8.3
			c2.7-1.9,5.9-2.9,9.6-2.9c2.4,0,4.9,0.4,7.4,1.3c2.5,0.9,4.5,2.1,6.3,3.6c0.6,0.5,1,0.9,1.2,1.4c0.2,0.4,0.4,1,0.4,1.6
			c0,0.9-0.3,1.7-0.8,2.4c-0.5,0.7-1.2,1-1.9,1c-0.4,0-0.8-0.1-1.2-0.2c-0.4-0.1-0.9-0.4-1.4-0.7c-3.6-2.5-6.7-3.7-9.5-3.7
			c-3.1,0-5.6,1.4-7.4,4.3s-2.7,6.9-2.8,12.2c1-1.9,2.5-3.5,4.4-4.6c2-1.1,4.2-1.7,6.6-1.7C66.1,66.8,68.5,67.4,70.6,68.7z
			 M67.3,87.6c1.4-1.5,2.1-3.5,2.1-6c0-2.5-0.7-4.5-2.1-6c-1.4-1.5-3.3-2.2-5.6-2.2c-2.4,0-4.3,0.8-5.8,2.3
			c-1.5,1.5-2.2,3.5-2.2,5.9c0,2.5,0.7,4.5,2.2,6c1.5,1.5,3.4,2.3,5.8,2.3C64,89.9,65.9,89.1,67.3,87.6z"/>
	</g>
</g>
<g class="st3">
	<path class="st0" d="M6.9,161c-0.3-0.3-0.5-0.8-0.5-1.3v-17.4c0-0.6,0.2-1,0.5-1.3c0.3-0.3,0.8-0.5,1.4-0.5h5.9
		c3.4,0,6.1,0.9,8,2.8c1.9,1.8,2.9,4.4,2.9,7.8c0,3.3-1,5.9-2.9,7.8c-1.9,1.8-4.6,2.8-8,2.8H8.3C7.7,161.4,7.3,161.3,6.9,161z
		 M14,158.3c4.8,0,7.3-2.5,7.3-7.4c0-4.9-2.4-7.4-7.3-7.4h-3.7v14.8H14z"/>
	<path class="st0" d="M41,157.8c0.2,0.3,0.3,0.6,0.3,1c0,0.6-0.4,1.1-1.1,1.6c-0.7,0.4-1.4,0.7-2.3,0.9s-1.7,0.3-2.4,0.3
		c-2.3,0-4.2-0.7-5.6-2c-1.4-1.4-2.1-3.2-2.1-5.6c0-1.5,0.3-2.8,0.9-4c0.6-1.2,1.4-2.1,2.5-2.7c1.1-0.6,2.3-1,3.7-1
		c1.3,0,2.5,0.3,3.4,0.9c1,0.6,1.7,1.4,2.3,2.4c0.5,1.1,0.8,2.3,0.8,3.7c0,0.9-0.4,1.3-1.1,1.3h-8.8c0.1,1.4,0.5,2.4,1.2,3
		c0.7,0.6,1.6,1,2.9,1c0.6,0,1.2-0.1,1.7-0.2c0.5-0.2,1-0.4,1.7-0.7c0.6-0.3,1-0.5,1.3-0.5C40.5,157.4,40.8,157.6,41,157.8z
		 M32.6,150.1c-0.6,0.6-1,1.6-1.1,2.7h6.7c0-1.2-0.3-2.1-0.9-2.8c-0.6-0.6-1.3-0.9-2.3-0.9C34,149.1,33.2,149.4,32.6,150.1z"/>
	<path class="st0" d="M47.1,160.8c-1.1-0.6-2-1.5-2.6-2.6s-0.9-2.5-0.9-4c0-1.5,0.3-2.9,0.9-4c0.6-1.2,1.5-2.1,2.6-2.7
		c1.1-0.6,2.4-1,3.9-1c0.8,0,1.6,0.1,2.3,0.3c0.8,0.2,1.5,0.5,2.1,0.9c0.6,0.4,1,0.9,1,1.6c0,0.4-0.1,0.8-0.3,1.1
		c-0.2,0.3-0.5,0.4-0.8,0.4c-0.2,0-0.4,0-0.7-0.1c-0.2-0.1-0.5-0.2-0.7-0.4c-0.4-0.3-0.9-0.5-1.3-0.6c-0.4-0.1-0.9-0.2-1.4-0.2
		c-1.2,0-2.2,0.4-2.9,1.2c-0.7,0.8-1,2-1,3.5c0,1.5,0.3,2.6,1,3.4c0.7,0.8,1.6,1.2,2.9,1.2c0.5,0,0.9-0.1,1.3-0.2
		c0.4-0.1,0.8-0.4,1.3-0.6c0.3-0.2,0.6-0.3,0.8-0.4c0.2-0.1,0.4-0.1,0.7-0.1c0.3,0,0.6,0.1,0.8,0.4c0.2,0.3,0.3,0.6,0.3,1
		c0,0.3-0.1,0.6-0.2,0.9s-0.4,0.5-0.7,0.7c-0.6,0.4-1.3,0.7-2.1,0.9c-0.8,0.2-1.7,0.3-2.5,0.3C49.5,161.7,48.2,161.4,47.1,160.8z"/>
	<path class="st0" d="M71.4,157.8c0.2,0.3,0.3,0.6,0.3,1c0,0.6-0.4,1.1-1.1,1.6c-0.7,0.4-1.4,0.7-2.3,0.9s-1.7,0.3-2.4,0.3
		c-2.3,0-4.2-0.7-5.6-2c-1.4-1.4-2.1-3.2-2.1-5.6c0-1.5,0.3-2.8,0.9-4c0.6-1.2,1.4-2.1,2.5-2.7c1.1-0.6,2.3-1,3.7-1
		c1.3,0,2.5,0.3,3.4,0.9c1,0.6,1.7,1.4,2.3,2.4c0.5,1.1,0.8,2.3,0.8,3.7c0,0.9-0.4,1.3-1.1,1.3h-8.8c0.1,1.4,0.5,2.4,1.2,3
		c0.7,0.6,1.6,1,2.9,1c0.6,0,1.2-0.1,1.7-0.2c0.5-0.2,1-0.4,1.7-0.7c0.6-0.3,1-0.5,1.3-0.5C70.9,157.4,71.2,157.6,71.4,157.8z
		 M63,150.1c-0.6,0.6-1,1.6-1.1,2.7h6.7c0-1.2-0.3-2.1-0.9-2.8c-0.6-0.6-1.3-0.9-2.3-0.9C64.4,149.1,63.6,149.4,63,150.1z"/>
	<path class="st0" d="M87.3,148c0.9,1,1.3,2.5,1.3,4.5v7.3c0,0.6-0.2,1-0.5,1.3c-0.3,0.3-0.8,0.5-1.4,0.5c-0.6,0-1-0.2-1.4-0.5
		s-0.5-0.8-0.5-1.3v-7.1c0-1.1-0.2-2-0.6-2.5c-0.4-0.5-1.1-0.8-2-0.8c-1.1,0-1.9,0.3-2.6,1c-0.6,0.7-1,1.6-1,2.7v6.7
		c0,0.6-0.2,1-0.5,1.3c-0.3,0.3-0.8,0.5-1.4,0.5s-1-0.2-1.4-0.5c-0.3-0.3-0.5-0.8-0.5-1.3v-11.6c0-0.5,0.2-0.9,0.5-1.3
		c0.3-0.3,0.8-0.5,1.4-0.5c0.5,0,0.9,0.2,1.3,0.5c0.3,0.3,0.5,0.7,0.5,1.2v0.8c0.5-0.8,1.2-1.4,2-1.9c0.8-0.4,1.8-0.7,2.8-0.7
		C85.1,146.5,86.4,147,87.3,148z"/>
	<path class="st0" d="M103.2,148c1,1,1.5,2.5,1.5,4.6v7.3c0,0.5-0.2,1-0.5,1.3s-0.8,0.5-1.3,0.5c-0.5,0-0.9-0.2-1.3-0.5
		c-0.3-0.3-0.5-0.7-0.5-1.3v-0.7c-0.3,0.8-0.9,1.4-1.6,1.8c-0.7,0.4-1.6,0.7-2.5,0.7c-1,0-1.9-0.2-2.7-0.6c-0.8-0.4-1.4-0.9-1.9-1.6
		c-0.5-0.7-0.7-1.5-0.7-2.3c0-1.1,0.3-1.9,0.8-2.5c0.5-0.6,1.4-1.1,2.7-1.3c1.2-0.3,2.9-0.4,5.1-0.4h0.7v-0.7c0-1-0.2-1.7-0.6-2.1
		c-0.4-0.4-1.1-0.7-2-0.7c-0.6,0-1.2,0.1-1.8,0.3c-0.6,0.2-1.3,0.4-2.1,0.7c-0.5,0.3-0.9,0.4-1.1,0.4c-0.4,0-0.7-0.1-0.9-0.4
		s-0.3-0.6-0.3-1c0-0.3,0.1-0.6,0.3-0.9c0.2-0.2,0.5-0.5,0.9-0.7c0.7-0.4,1.5-0.7,2.5-0.9c1-0.2,1.9-0.3,2.9-0.3
		C100.7,146.5,102.3,147,103.2,148z M100.2,158c0.6-0.7,0.9-1.5,0.9-2.6v-0.6h-0.5c-1.3,0-2.4,0.1-3.1,0.2c-0.7,0.1-1.3,0.3-1.6,0.6
		s-0.5,0.7-0.5,1.2c0,0.6,0.2,1.2,0.7,1.6s1,0.6,1.7,0.6C98.8,159,99.6,158.7,100.2,158z"/>
	<path class="st0" d="M108.5,160.4c-0.6-0.4-1-0.9-1-1.6c0-0.4,0.1-0.7,0.3-1c0.2-0.2,0.5-0.4,0.8-0.4c0.3,0,0.8,0.2,1.4,0.5
		c0.6,0.3,1.2,0.5,1.7,0.7c0.5,0.2,1.2,0.2,2,0.2c0.8,0,1.5-0.1,2-0.4c0.5-0.3,0.7-0.7,0.7-1.2c0-0.3-0.1-0.6-0.3-0.8
		c-0.2-0.2-0.5-0.4-1-0.6c-0.5-0.2-1.2-0.4-2.2-0.6c-1.8-0.4-3-0.9-3.8-1.5c-0.8-0.7-1.1-1.6-1.1-2.7c0-0.9,0.3-1.7,0.8-2.4
		c0.5-0.7,1.2-1.3,2.1-1.6c0.9-0.4,1.9-0.6,3.1-0.6c0.8,0,1.6,0.1,2.4,0.3c0.8,0.2,1.5,0.5,2.1,0.9c0.6,0.4,1,0.9,1,1.6
		c0,0.4-0.1,0.7-0.3,1s-0.5,0.4-0.8,0.4c-0.2,0-0.4,0-0.6-0.1c-0.2-0.1-0.5-0.2-0.8-0.4c-0.6-0.3-1.1-0.5-1.5-0.7
		c-0.4-0.1-0.9-0.2-1.6-0.2c-0.7,0-1.3,0.1-1.7,0.4c-0.4,0.3-0.6,0.7-0.6,1.2c0,0.5,0.2,0.9,0.7,1.1c0.4,0.3,1.3,0.5,2.5,0.8
		c1.3,0.3,2.4,0.6,3.1,1s1.3,0.8,1.6,1.3c0.3,0.5,0.5,1.2,0.5,2.1c0,1.4-0.6,2.4-1.7,3.3c-1.1,0.8-2.6,1.2-4.5,1.2
		C111.6,161.7,109.9,161.2,108.5,160.4z"/>
</g>
</svg>
