<?xml version="1.0" encoding="utf-8"?>
<!-- Generator: Adobe Illustrator 22.0.1, SVG Export Plug-In . SVG Version: 6.00 Build 0)  -->
<svg version="1.0" id="Layer_1" xmlns="http://www.w3.org/2000/svg" xmlns:xlink="http://www.w3.org/1999/xlink" x="0px" y="0px"
	 viewBox="0 0 275 90" style="enable-background:new 0 0 275 90;" xml:space="preserve">
<style type="text/css">
	.st0{fill:none;stroke:#FFFFFF;stroke-width:5.3269;stroke-linecap:round;stroke-linejoin:round;}
	.st1{fill:#FFFFFF;}
	.st2{fill:#C1876B;}
	.st3{fill:#FC5E71;}
	.st4{fill:#FD747F;}
	.st5{fill:#A46640;}
	.st6{fill:#FFC855;}
	.st7{fill:#FFAF41;}
</style>
<g>
	<g>
		<g>
			<g>
				<path class="st0" d="M25.1,82.8c2.8-12,14.3-21,27.9-21c9.7,0,18.2,4.5,23.4,11.4"/>
				<g>
					<path class="st1" d="M31.2,83.4c-0.4,3.3-3.4,5.6-6.7,5.2s-5.6-3.4-5.2-6.7c0.4-3.3,3.4-5.6,6.7-5.2S31.6,80.1,31.2,83.4z"/>
				</g>
				<g>
					<path class="st1" d="M75.9,72.6c0.9-3,4.2-6.2,6.7-7.7c-2,4.7-3.2,9.9-2.6,15c-4-3.2-9.2-4.7-14.3-5.5
						C68.8,73,72.6,71.7,75.9,72.6z"/>
				</g>
			</g>
		</g>
	</g>
	<g>
		<g>
			<g>
				<path class="st0" d="M90.1,82.8c2.8-12,14.3-21,27.9-21c9.7,0,18.2,4.5,23.4,11.4"/>
				<g>
					<path class="st1" d="M96.2,83.4c-0.4,3.3-3.4,5.6-6.7,5.2c-3.3-0.4-5.6-3.4-5.2-6.7c0.4-3.3,3.4-5.6,6.7-5.2
						C94.3,77.1,96.6,80.1,96.2,83.4z"/>
				</g>
				<g>
					<path class="st1" d="M140.9,72.6c0.9-3,4.2-6.2,6.7-7.7c-2,4.7-3.2,9.9-2.6,15c-4-3.2-9.2-4.7-14.3-5.5
						C133.8,73,137.6,71.7,140.9,72.6z"/>
				</g>
			</g>
		</g>
	</g>
	<g>
		<g>
			<path class="st1" d="M42.8,57.5c-0.3,0-0.6-0.1-0.8-0.2c-4-0.6-7.8-3.8-7.7-9.8c0,0,0-0.1,0-0.1c0-1.3,0.2-2.5,0.5-3.6
				c-0.1,0-0.2,0-0.2,0c-0.5,0-0.9-0.1-1.3-0.4c-0.3-0.2-0.5-0.4-0.6-0.7c-0.2-0.5-0.3-1-0.2-1.5c-0.7,0.1-1.3,0.1-2,0.1
				c-0.6,0-1.2,0-1.8-0.1c-6.4-0.7-9-5.3-8.7-9.7c0.2-3.7,2.3-7.2,5.6-9.6c1.5-1,3.2-1.7,4.8-1.8c-0.4-1.7-0.2-3.2,0.4-4.4
				c2.1-4.1,7.9-9.9,12.8-9.9c1.5,0,4.3,0.6,5.7,4.5c0.7,2,0.9,4.4,0.7,6.8c0.6-0.6,1.3-0.9,2.2-0.9c1.7,0,3.1,1.4,3.1,3.1
				c0,1.5-1.1,2.8-2.5,3l-2.3,5.1l5.8-1.7c0.5-1.1,1.6-1.8,2.8-1.8c1.7,0,3.1,1.4,3.1,3.1c0,1-0.5,2-1.3,2.5c2.7,0.1,5,0.7,6.8,1.6
				c3.6,1.8,3.9,4.5,3.8,5.9c-0.3,5-6.9,10.1-11.4,11.7c-0.2,0.1-0.4,0.1-0.6,0.2c-0.1,0-0.2,0.1-0.2,0.1c-0.3,0.1-0.7,0.1-1.1,0.1
				c-0.3,0-0.6,0-0.9-0.1c-0.6-0.1-1.1-0.2-1.8-0.4c-0.1,0.5-0.3,1-0.5,1.6c-0.4,1-1.1,2-1.9,2.9c-0.3,0.4-0.6,0.6-0.8,0.8
				c-2.1,2-4.7,3.2-7.4,3.5c-0.2,0.1-0.4,0.1-0.7,0.1H42.8z"/>
			<path class="st1" d="M43.5,7.8c1.6,0,3,0.9,3.8,3.2c2.5,7.2-2.7,19-3.5,20.7c0.6-0.5,1.2-0.9,1.7-1.3c0,0,0,0,0,0
				c0-0.8,0.5-1.4,1.1-1.7l3.7-8.1c0.2-0.4,0.4-0.8,0.7-1.2c0,0,0-0.1,0-0.1c0-0.6,0.5-1.1,1.1-1.1c0.6,0,1.1,0.5,1.1,1.1
				c0,0.6-0.5,1.1-1.1,1.1c-0.2,0-0.4-0.1-0.5-0.2c-0.2,0.2-0.4,0.5-0.5,0.8l-3.5,7.6c0.7,0.1,1.3,0.6,1.5,1.3l8-2.4
				c0.3-0.1,0.6-0.2,0.8-0.4c0-0.1,0-0.1,0-0.1c0-0.6,0.5-1.1,1.1-1.1c0.6,0,1.1,0.5,1.1,1.1c0,0.6-0.5,1.1-1.1,1.1
				c-0.2,0-0.4-0.1-0.6-0.2c-0.3,0.2-0.7,0.4-1.1,0.5L49,30.8c-0.2,0.8-0.9,1.4-1.7,1.4c-0.1,0-0.2,0-0.3,0c-0.4,0.5-0.9,1-1.5,1.6
				c0.9-0.3,7.4-2.3,13.7-2.3c2.7,0,5.3,0.4,7.4,1.4c7.3,3.7-1.7,11.9-7.4,13.9c-0.2,0.1-0.4,0.1-0.6,0.2l0,0
				c-0.2,0-0.4,0.1-0.6,0.1c-0.2,0-0.4,0-0.6,0c-1.2-0.1-2.6-0.8-4-1.7c0.1,0.4,0.4,2-0.4,4c-0.3,0.8-0.8,1.6-1.6,2.5
				c-0.2,0.2-0.4,0.4-0.6,0.6c-2,1.9-4.4,2.9-6.7,3c0,0,0,0.1,0,0.1c-0.4,0-0.9,0-1.3,0v-0.1c-3.6-0.3-6.6-2.9-6.5-7.8c0,0,0,0,0,0
				c0,0,0-0.1,0-0.1c0.1-3.9,1.6-6.8,3.2-8.7c-2.2,1.7-4.4,3.1-5,3.1c-0.1,0-0.1,0-0.1,0c-0.2-0.5,1.6-2.6,3.8-4.8
				c-1.9,1.2-4.5,2.3-7.7,2.3c-0.5,0-1.1,0-1.6-0.1c-5-0.5-7.2-3.9-6.9-7.5c0.1-2.9,1.8-6,4.7-8.1c1.7-1.2,3.3-1.5,4.5-1.5
				c1.1,0,1.9,0.3,2.1,0.4c-1.1-2.2-1.5-4.3-0.7-5.9C34.5,12.8,39.6,7.8,43.5,7.8 M43.5,3.8c-6,0-12.2,6.5-14.5,11c0,0,0,0,0,0.1
				c-0.5,0.9-0.8,2.1-0.8,3.7c-1.3,0.4-2.6,1-3.8,1.8c0,0,0,0-0.1,0c-3.8,2.7-6.2,6.8-6.4,11.1c-0.4,6.2,3.9,11,10.5,11.7
				c0.7,0.1,1.4,0.1,2,0.1c0.1,0,0.2,0,0.3,0c0,0.1,0.1,0.2,0.1,0.3c0.3,0.6,0.7,1.1,1.3,1.5c0.1,0.1,0.3,0.2,0.4,0.2
				c-0.1,0.7-0.1,1.4-0.2,2.1c0,0,0,0.1,0,0.1c-0.1,6.2,3.5,10.8,9.2,11.7c0.4,0.1,0.9,0.2,1.3,0.2h1.3c0.4,0,0.8-0.1,1.1-0.2
				c3-0.4,5.9-1.8,8.2-3.9c0.3-0.2,0.7-0.6,1-1c0.9-1.1,1.7-2.2,2.2-3.4c0.1,0,0.2,0,0.2,0c0.4,0.1,0.7,0.1,1.1,0.1
				c0.6,0,1.1-0.1,1.6-0.2c0.1,0,0.3-0.1,0.4-0.1c0.2-0.1,0.4-0.1,0.7-0.2c5.1-1.8,12.3-7.5,12.7-13.4c0.2-3.3-1.6-6.1-4.9-7.8
				c-1.3-0.7-2.8-1.1-4.5-1.4C64,27.6,64,27.3,64,27c0-2.8-2.3-5.1-5.1-5.1c-1.7,0-3.2,0.8-4.1,2.1L54,24.2l0.1-0.2
				c1.8-0.8,3.1-2.6,3.1-4.7c0-2.8-2.3-5.1-5.1-5.1c-0.1,0-0.1,0-0.2,0c-0.1-1.6-0.4-3.1-0.9-4.5C49.8,5.9,47,3.8,43.5,3.8L43.5,3.8
				z"/>
		</g>
		<g>
			<path class="st1" d="M197.6,44.1c-0.2,0-0.5,0-0.7-0.1c-3-0.5-4.9-2.9-4.8-6.2c0,0,0,0,0,0c0-0.4,0-0.9,0.1-1.3
				c-0.1-0.1-0.2-0.1-0.3-0.2c-0.3-0.2-0.5-0.4-0.6-0.7c0-0.1-0.1-0.2-0.1-0.3c-0.1,0-0.2,0-0.3,0c-0.3,0-0.7,0-1.1-0.1
				c-3.5-0.4-5.8-2.9-5.6-6.2c0.1-2.3,1.4-4.5,3.4-5.9c0.7-0.5,1.4-0.8,2.2-1c0-0.9,0.2-1.6,0.4-2.1c1.2-2.4,4.5-5.9,7.8-5.9
				c1.8,0,3.3,1.1,4,3.1c0.3,0.8,0.4,1.7,0.5,2.6c0.1,0,0.2,0,0.3,0c1.4,0,2.6,1.2,2.6,2.6c0,1.1-0.7,2-1.6,2.4l-0.3,0.5l0.8-0.3
				c0.5-0.7,1.2-1.1,2.1-1.1c1.4,0,2.6,1.2,2.6,2.6c0,0.2,0,0.4-0.1,0.6c1,0.2,1.8,0.4,2.5,0.8c1.8,0.9,2.7,2.4,2.6,4.1
				c-0.2,3.2-4.1,6.2-6.8,7.1c-0.1,0-0.2,0.1-0.4,0.1c-0.1,0-0.1,0-0.2,0.1c-0.3,0.1-0.5,0.1-0.8,0.1c-0.2,0-0.4,0-0.6,0
				c-0.1,0-0.1,0-0.2,0c0,0,0,0.1-0.1,0.1c-0.3,0.6-0.7,1.2-1.2,1.8c-0.2,0.3-0.4,0.5-0.7,0.6c-1.2,1.1-2.7,1.8-4.3,2
				c-0.2,0.1-0.4,0.1-0.6,0.1H197.6z"/>
			<path class="st1" d="M197.9,16.2c0.9,0,1.6,0.5,2.1,1.7c1.4,3.9-1.5,10.4-1.9,11.3c0.3-0.3,0.6-0.5,0.9-0.7c0,0,0,0,0,0
				c0-0.4,0.3-0.8,0.6-0.9l2-4.4c0.1-0.2,0.2-0.4,0.4-0.6c0,0,0-0.1,0-0.1c0-0.3,0.3-0.6,0.6-0.6s0.6,0.3,0.6,0.6
				c0,0.3-0.3,0.6-0.6,0.6c-0.1,0-0.2,0-0.3-0.1c-0.1,0.1-0.2,0.3-0.3,0.4l-1.9,4.2c0.4,0.1,0.7,0.3,0.8,0.7l4.4-1.3
				c0.2,0,0.3-0.1,0.5-0.2c0,0,0,0,0-0.1c0-0.3,0.3-0.6,0.6-0.6s0.6,0.3,0.6,0.6c0,0.3-0.3,0.6-0.6,0.6c-0.1,0-0.2,0-0.3-0.1
				c-0.2,0.1-0.4,0.2-0.6,0.3l-4.5,1.3c-0.1,0.4-0.5,0.7-0.9,0.7c-0.1,0-0.1,0-0.2,0c-0.2,0.3-0.5,0.6-0.8,0.9
				c0.4-0.1,4-1.2,7.4-1.2c1.5,0,2.9,0.2,4,0.8c4,2-0.9,6.5-4,7.6c-0.1,0-0.2,0.1-0.3,0.1l0,0c-0.1,0-0.2,0-0.3,0
				c-0.1,0-0.2,0-0.3,0c-0.7-0.1-1.4-0.4-2.2-0.9c0.1,0.2,0.2,1.1-0.2,2.2c-0.2,0.4-0.5,0.9-0.9,1.3c-0.1,0.2-0.3,0.3-0.4,0.4
				c-1.1,1-2.3,1.5-3.5,1.6c0,0,0,0,0,0c-0.2,0-0.5,0-0.7,0v0c-2-0.2-3.6-1.6-3.5-4.2c0,0,0,0,0,0c0,0,0,0,0,0
				c0-2.1,0.9-3.7,1.8-4.7c-1.2,0.9-2.4,1.7-2.7,1.7c0,0-0.1,0-0.1,0c-0.1-0.2,0.9-1.4,2-2.6c-1,0.7-2.4,1.2-4.2,1.2
				c-0.3,0-0.6,0-0.9,0c-2.7-0.3-3.9-2.1-3.8-4.1c0.1-1.6,1-3.2,2.6-4.4c1-0.6,1.8-0.8,2.5-0.8c0.6,0,1.1,0.2,1.1,0.2
				c-0.6-1.2-0.8-2.3-0.4-3.2C193,18.9,195.9,16.2,197.9,16.2 M197.9,12.2C197.9,12.2,197.9,12.2,197.9,12.2c-4.1,0-8,4.1-9.5,6.9
				c0,0,0,0,0,0.1c-0.2,0.4-0.4,0.9-0.5,1.5c-0.5,0.2-0.9,0.5-1.4,0.8c0,0,0,0-0.1,0c-2.5,1.8-4.1,4.6-4.3,7.5
				c-0.3,4.4,2.8,7.8,7.4,8.3c0.1,0,0.3,0,0.4,0c0,0,0.1,0.1,0.1,0.1c0,0.1,0,0.2,0,0.3c0,0,0,0.1,0,0.1c-0.1,4.2,2.5,7.5,6.4,8.2
				c0.4,0.1,0.7,0.2,1.1,0.2h0.7c0.3,0,0.7,0,1-0.1c1.9-0.3,3.7-1.1,5.2-2.4c0.3-0.2,0.6-0.5,0.9-0.9c0.3-0.4,0.6-0.8,0.9-1.2
				c0.3,0,0.6-0.1,1-0.1c0.1,0,0.2-0.1,0.3-0.1c0.1,0,0.3-0.1,0.4-0.1c3.2-1.2,7.8-4.6,8.1-8.9c0.2-2.5-1.2-4.7-3.7-6
				c-0.5-0.2-1-0.4-1.5-0.6c-0.4-1.8-1.8-3.2-3.6-3.6c-0.1-1.9-1.4-3.4-3-4c-0.1-0.6-0.3-1.1-0.4-1.5
				C202.8,13.8,200.6,12.2,197.9,12.2L197.9,12.2z"/>
		</g>
		<g>
			<path class="st1" d="M261.7,39.8c-1.6,0-3.1-0.9-4.1-2.5c0,0,0-0.1-0.1-0.1c-0.1-0.1-0.2-0.3-0.2-0.4c-0.2,0-0.4-0.1-0.6-0.2
				c-0.2,0.1-0.3,0.2-0.5,0.3c-0.8,0.4-1.6,0.6-2.3,0.6c-1.7,0-3.2-0.9-4-2.4c-0.9-1.5-0.9-3.5-0.2-5.2c0.2-0.5,0.4-0.8,0.7-1.2
				c-0.2-0.5-0.3-0.9-0.4-1.2c-0.1-1.9,0.4-4.7,1.8-6.2c0.9-1,1.9-1.2,2.6-1.2c0.8,0,1.6,0.3,2.4,0.9c0.4,0.3,0.7,0.6,1,1
				c0.3-0.1,0.6-0.2,0.9-0.2c0.8,0,1.6,0.4,2,1.1c0.1,0.1,0.2,0.3,0.2,0.4c0,0,0.1-0.1,0.2-0.1c0.4-0.2,0.8-0.4,1.3-0.4
				c0.8,0,1.6,0.4,2,1.1c0.5-0.2,0.9-0.3,1.4-0.3c0.2,0,0.3,0,0.5,0c1.5,0,2.6,0.7,3.2,1.9c1.1,2.3-0.3,5.6-1.5,7.2
				c0,0.1-0.1,0.1-0.1,0.2c0,0.1-0.1,0.1-0.1,0.2c-0.2,0.2-0.5,0.4-0.7,0.6c0,0.4,0,0.9-0.1,1.3c0,0.3-0.1,0.5-0.2,0.7
				c-0.3,1.2-1,2.2-1.9,3c-0.1,0.1-0.3,0.2-0.4,0.3l-0.4,0.3c-0.2,0.1-0.4,0.2-0.6,0.3C262.8,39.7,262.2,39.8,261.7,39.8z"/>
			<path class="st1" d="M254.4,22c0.3,0,0.7,0.1,1.1,0.5c2.2,1.8,2.9,6.6,3,7.3c0.1-0.3,0.2-0.5,0.3-0.7c0,0,0,0,0,0
				c-0.2-0.2-0.1-0.5,0-0.8l-0.4-3.3c0-0.2,0-0.3,0-0.5c0,0,0,0,0,0c-0.1-0.2-0.1-0.4,0.1-0.6c0.1,0,0.1-0.1,0.2-0.1
				c0.1,0,0.3,0.1,0.4,0.2c0.1,0.2,0.1,0.4-0.1,0.6c-0.1,0-0.1,0.1-0.2,0.1c0,0.1,0,0.2,0,0.3l0.4,3.1c0.1,0,0.2-0.1,0.3-0.1
				c0.2,0,0.3,0.1,0.4,0.2l2.1-2.3c0.1-0.1,0.1-0.2,0.2-0.3c0,0,0,0,0,0c-0.1-0.2-0.1-0.4,0.1-0.6c0.1,0,0.1-0.1,0.2-0.1
				c0.1,0,0.3,0.1,0.4,0.2c0.1,0.2,0.1,0.4-0.1,0.6c-0.1,0-0.1,0.1-0.2,0.1c0,0,0,0,0,0c-0.1,0.1-0.1,0.3-0.2,0.4l-2.1,2.4
				c0.1,0.3,0,0.6-0.3,0.8c0,0-0.1,0-0.1,0c0,0.2-0.1,0.5-0.2,0.8c0.3-0.3,3.6-4.2,6.5-4.5c0.1,0,0.2,0,0.3,0c2.7,0,1.5,4.2,0.1,5.9
				c0,0.1-0.1,0.1-0.2,0.2l0,0c-0.1,0.1-0.3,0.2-0.4,0.3l0,0c-0.4,0.2-0.8,0.2-1.3,0.2c-0.1,0-0.1,0-0.2,0c0.1,0.1,0.5,0.6,0.7,1.4
				c0.1,0.3,0.1,0.7,0,1.1c0,0.1-0.1,0.3-0.1,0.4c-0.3,1-0.8,1.7-1.5,2.2c0,0,0,0,0,0c-0.1,0.1-0.3,0.2-0.4,0.3l0,0
				c-0.4,0.2-0.8,0.3-1.3,0.3c-0.9,0-1.7-0.5-2.4-1.5c0,0,0,0,0,0c0,0,0,0,0,0c-0.7-1.3-0.8-2.5-0.7-3.4c-0.4,1-0.8,2-1,2
				c0,0,0,0,0,0c-0.2-0.1,0-1.2,0.2-2.3c-0.4,0.9-1.2,1.9-2.5,2.6c-0.5,0.3-1,0.4-1.5,0.4c-1,0-1.8-0.6-2.2-1.4
				c-0.5-0.9-0.6-2.3-0.1-3.5c0.6-1.5,1.8-1.7,1.9-1.7c-0.8-0.5-1.3-1.1-1.4-1.7C251.8,25.3,252.7,22,254.4,22 M254.4,18
				c-1.5,0-3,0.7-4.1,1.9c-1.9,2-2.6,5.4-2.4,7.7c0,0,0,0,0,0.1c0,0.2,0.1,0.5,0.1,0.8c-0.1,0.2-0.2,0.4-0.3,0.6c0,0,0,0,0,0.1
				c-1,2.3-0.9,4.9,0.3,7c1.2,2.1,3.3,3.4,5.7,3.4c0.8,0,1.7-0.2,2.5-0.5c1.3,1.8,3.2,2.8,5.4,2.8c0.8,0,1.6-0.2,2.4-0.5
				c0.3-0.1,0.7-0.2,1-0.4l0.2-0.1l0.2-0.1c0.3-0.2,0.5-0.4,0.7-0.6c1.1-1,2-2.3,2.5-3.8c0.1-0.3,0.2-0.6,0.2-1
				c0-0.2,0.1-0.4,0.1-0.6c0.1-0.1,0.1-0.1,0.2-0.2c0.1-0.1,0.2-0.2,0.3-0.3c0.1-0.1,0.1-0.1,0.2-0.2c1.5-1.9,3.3-6.1,1.7-9.3
				c-0.9-1.9-2.8-3.1-5-3.1c-0.2,0-0.4,0-0.6,0c-0.2,0-0.4,0.1-0.6,0.1c-0.7-0.6-1.7-0.9-2.6-0.9c-0.2,0-0.5,0-0.7,0.1
				c-0.8-0.7-1.9-1.2-3-1.2c-0.1,0-0.1,0-0.2,0c-0.1-0.1-0.3-0.3-0.5-0.4C256.6,18.2,255.3,18,254.4,18L254.4,18
				C254.4,18,254.4,18,254.4,18L254.4,18z"/>
		</g>
		<g>
			<path class="st1" d="M125.6,48.7c-2.1,0-4.1-0.9-5.5-2.6c-0.1-0.1-0.2-0.2-0.3-0.4c-0.4-0.5-0.7-1-1-1.6c-0.4-0.8-0.7-1.6-1-2.5
				c-0.2,0.1-0.5,0.1-0.7,0.1c-0.1,0-0.2,0-0.3,0c-0.3-0.1-0.7-0.2-0.9-0.4c-0.2-0.2-0.4-0.3-0.5-0.6c-0.7,0.4-1.4,0.8-2.2,1.1
				c-1,0.4-2.1,0.7-3.1,0.7c-0.2,0-0.4,0-0.7,0c-0.1,0-0.2,0-0.3,0c-1-0.1-2-0.3-2.8-0.8c-1.2-0.6-2.3-1.6-3.1-2.9
				c-0.2-0.2-0.4-0.5-0.5-0.7c0-0.1-0.1-0.1-0.1-0.2c-0.1-0.2-0.2-0.5-0.3-0.7c-0.1-0.2-0.1-0.5-0.1-0.7c-0.6-2.4-0.3-5,0.9-7.3
				c0.7-1.4,1.6-2.4,2.5-3.1c-0.8-1.1-1.1-2.1-1.1-2.9c0-0.2,0-0.4,0-0.7c0,0,0-0.1,0-0.1c-0.1-0.2-0.1-0.4-0.1-0.6
				c0-0.6,0.1-1.1,0.2-1.6l0-0.2c0-0.2,0.1-0.3,0.2-0.5c0.5-2.7,1.8-6,3.9-7.8c0.1-0.1,0.2-0.2,0.3-0.3c0.4-0.2,0.8-0.5,1.4-0.7
				c0.1,0,0.3-0.1,0.4-0.1c0.4-0.1,0.8-0.2,1.2-0.2c1.1,0,2.2,0.4,3.2,1.2c0.2,0.1,0.4,0.3,0.6,0.5c1.1,1,2,2.4,2.8,3.8
				c0.5-0.7,1.3-1.2,2.3-1.2c1.5,0,2.8,1.3,2.8,2.8c0,0.7-0.3,1.3-0.7,1.8l0.2,3.2l2.4-2.3c0.1-1.5,1.3-2.7,2.8-2.7
				c1.5,0,2.8,1.3,2.8,2.8c0,0.1,0,0.2,0,0.4c1.6-0.7,3.2-1.1,4.8-1.2c0.1,0,0.2,0,0.4,0c2.4,0,3.7,1.1,4.3,2
				c0.5,0.5,0.7,1.1,0.8,1.5l0,0.1c0.1,0.3,0.1,0.6,0.1,0.9c0.4,3.2-1.3,6.8-2.1,8.2c-0.1,0.2-0.2,0.4-0.3,0.6
				c-0.1,0.1-0.1,0.2-0.2,0.3c-0.5,0.8-1,1.5-1.5,2.1c-0.8,0.8-1.7,1.4-2.9,1.7c0.2,1,0.2,2.2-0.1,3.6c-0.2,1-0.6,1.9-1,2.7
				C131.8,46.6,128.7,48.7,125.6,48.7z"/>
			<path class="st1" d="M111.9,12.6c0.6,0,1.3,0.2,2,0.8c0.1,0.1,0.3,0.2,0.4,0.4c4.4,4,5.3,14.1,5.4,15.5c0.2-0.5,0.4-0.9,0.7-1.3
				c-0.2-0.2-0.2-0.5-0.2-0.8c0-0.4,0.1-0.7,0.4-1l-0.5-6.8c-0.1-0.4,0-0.8,0.1-1.1c-0.1-0.1-0.2-0.3-0.2-0.5c0-0.4,0.4-0.8,0.8-0.8
				c0.4,0,0.8,0.4,0.8,0.8c0,0.4-0.3,0.7-0.7,0.8c0,0.2,0,0.5,0,0.7l0.5,6.5c0.1,0,0.2,0,0.2,0c0.4,0,0.7,0.1,0.9,0.4l4.8-4.7
				c0.1-0.1,0.2-0.3,0.3-0.5c-0.1-0.1-0.1-0.3-0.1-0.4c0-0.4,0.4-0.8,0.8-0.8s0.8,0.4,0.8,0.8c0,0.4-0.3,0.7-0.7,0.8
				c-0.2,0.3-0.4,0.5-0.6,0.6l-4.9,4.8c0,0.1,0.1,0.3,0.1,0.4c0,0.6-0.4,1.1-0.9,1.3c-0.1,0.5-0.3,1.1-0.5,1.7
				c0.8-0.8,8.2-8.2,14.2-8.4c0.1,0,0.2,0,0.3,0c1.5,0,2.4,0.5,2.9,1.4c0,0,0,0,0,0c0.2,0.2,0.3,0.6,0.4,0.9c0,0,0,0-0.1,0
				c0.5,2.1-0.5,5.3-1.9,7.8c0,0,0,0,0,0c-0.1,0.2-0.2,0.3-0.3,0.5c-0.4,0.7-0.8,1.3-1.3,1.8c-0.8,0.9-2,1.2-3.4,1.2
				c-0.3,0-0.6,0-0.9,0c0.5,0.6,1.5,2.3,0.9,5c-0.2,0.8-0.5,1.5-0.8,2.2c-1.3,2.6-3.7,4.2-6.1,4.2c-1.5,0-2.9-0.6-4-2
				c0,0-0.1-0.1-0.1-0.1c0,0,0,0,0,0c-0.3-0.4-0.6-0.9-0.9-1.4c-0.9-1.7-1.2-3.4-1.2-4.8c-0.1-1.1,0-2.1,0.2-3
				c-1,2.2-2.1,4.3-2.5,4.3c0,0,0,0,0,0c-0.3-0.2,0.1-2.2,0.7-4.4c-1,1.7-2.7,3.5-5.4,4.7c-0.9,0.4-1.7,0.5-2.5,0.6
				c-0.2,0-0.3,0-0.5,0c0,0,0,0,0,0c-0.8,0-1.6-0.2-2.2-0.6c-1.1-0.5-1.9-1.4-2.5-2.5c0,0,0,0-0.1,0c-0.1-0.3-0.3-0.6-0.4-0.9
				c0,0,0.1,0,0.1-0.1c-0.6-1.9-0.5-4.3,0.6-6.4c1.6-3.2,4.2-3.3,4.2-3.3c0,0,0.1,0.1,0.2,0.1c0,0,0,0,0,0c-1.6-1.1-2.7-2.4-2.8-3.8
				c0-0.2,0-0.3,0-0.5c0-0.3,0-0.5,0-0.8c0,0-0.1,0.1-0.1,0.1c0-0.5,0.1-0.9,0.2-1.4c0,0,0.1,0,0.1,0c0.5-2.8,1.7-5.9,3.5-7.2
				c0,0,0,0,0,0c0.3-0.2,0.6-0.4,0.9-0.5c0,0,0,0,0,0C111.3,12.6,111.6,12.6,111.9,12.6 M111.9,8.6c-0.5,0-1.1,0.1-1.6,0.2
				c-0.2,0-0.4,0.1-0.6,0.2c-0.8,0.3-1.4,0.7-1.9,1c-0.2,0.1-0.4,0.3-0.6,0.5c-2.9,2.4-4.1,6.6-4.5,8.7c-0.1,0.2-0.2,0.5-0.2,0.7
				l0,0.2c-0.1,0.5-0.2,1.2-0.2,2c0,0.3,0,0.6,0.1,0.9c0,0.2,0,0.3,0,0.5c0,0,0,0.1,0,0.1c0,0.7,0.2,1.5,0.6,2.3
				c-0.7,0.7-1.3,1.6-1.8,2.6c-1.3,2.6-1.7,5.7-1.1,8.4c0,0.4,0.1,0.8,0.2,1.1c0.1,0.4,0.3,0.8,0.4,1l0,0.1c0.2,0.5,0.4,0.9,0.8,1.3
				c0.9,1.5,2.2,2.7,3.8,3.4c1.1,0.5,2.2,0.9,3.4,1c0.2,0,0.4,0,0.6,0c0.3,0,0.5,0,0.8,0c1.3-0.1,2.5-0.4,3.8-0.9
				c0.4-0.2,0.8-0.3,1.1-0.5c0.4,0.2,0.9,0.4,1.3,0.5c0.2,0.5,0.4,0.9,0.6,1.3c0.3,0.6,0.7,1.3,1.2,1.9c0.2,0.2,0.3,0.4,0.5,0.6
				c1.8,2.1,4.3,3.3,7,3.3c3.9,0,7.7-2.5,9.6-6.3c0.5-1,0.9-2,1.2-3.1c0.2-1,0.3-1.9,0.3-2.7c0.8-0.4,1.5-0.9,2.2-1.6
				c0,0,0.1-0.1,0.1-0.1c0.6-0.7,1.1-1.4,1.6-2.3l0,0c0-0.1,0.1-0.1,0.1-0.2c0.2-0.3,0.4-0.6,0.5-1c1-1.9,2.6-5.5,2.3-9.1
				c0-0.5,0-1-0.2-1.5l0-0.1c-0.2-0.5-0.4-1.4-1.2-2.2c-0.9-1.2-2.7-2.7-5.9-2.7c-0.1,0-0.3,0-0.5,0c-1.1,0-2.1,0.2-3.2,0.5
				c-0.8-1.5-2.4-2.5-4.2-2.5c-1.1,0-2,0.3-2.8,0.9c-0.5-2.1-2.4-3.7-4.7-3.7c-0.6,0-1.1,0.1-1.6,0.3c-0.6-0.9-1.3-1.7-2.1-2.4
				c-0.2-0.2-0.5-0.4-0.7-0.6C115,9.1,113.5,8.6,111.9,8.6L111.9,8.6z"/>
		</g>
	</g>
	<g>
		<g>
			<g>
				<path class="st2" d="M46.7,29.3c-0.1-0.1-0.2-0.3-0.1-0.5l3.7-8.2c0.3-0.7,0.7-1.3,1.3-1.7c0.2-0.1,0.5-0.1,0.6,0.1l0,0
					c0.1,0.1,0.1,0.2,0.1,0.4c0,0.1-0.1,0.2-0.2,0.3c-0.4,0.3-0.8,0.8-1,1.3l0,0l-3.8,8.2C47.2,29.4,46.9,29.5,46.7,29.3
					C46.8,29.4,46.7,29.4,46.7,29.3z"/>
				<path class="st2" d="M48.1,30.9c0-0.1-0.1-0.1-0.1-0.2s0-0.2,0-0.4c0.1-0.1,0.2-0.2,0.3-0.2l8.7-2.6c0.5-0.1,1-0.4,1.4-0.8
					c0.1-0.1,0.2-0.1,0.3-0.1s0.2,0,0.3,0.1l0,0c0.2,0.2,0.2,0.5,0,0.6c-0.5,0.5-1.1,0.9-1.8,1.1L48.5,31
					C48.4,31.1,48.2,31,48.1,30.9z"/>
			</g>
			<path class="st3" d="M66.6,32.9c-7.3-3.6-21.2,0.9-21.2,0.9l-1.7,1.5l0,0l0,0c0,0-7.2,3.5-7.4,12.3s9.6,10.2,15.1,4.2
				c3-3.3,2-6.5,2-6.5l0,0c2.1,1.4,4.1,2.2,5.8,1.5C64.9,44.8,73.9,36.6,66.6,32.9z"/>
			<path class="st4" d="M43.7,35.3c0,0,1.7,2.4,4.1,4.9c1.7,1.8,3.7,3.8,5.6,5l0,0c0,0,1.1,3.2-2,6.5c-5.5,6-15.3,4.7-15.1-4.2
				C36.5,38.8,43.7,35.3,43.7,35.3z"/>
			<path class="st3" d="M51.4,51.8L51.4,51.8c-0.4-1.4-2.2-6.5-5.6-9.5c0.1-1.9,0-3.2-0.3-3.9L45,37c-0.8-1-1.3-1.7-1.3-1.7
				s-0.2,0.1-0.6,0.3l1.1,3.2c0.8,2.3-0.7,12.7-1.4,16.6v0.1c0.4,0,0.9,0,1.3,0c0.1-0.7,0.7-3.8,1.1-7.2c0.2-1.6,0.3-3,0.4-4.2
				c3.1,3.3,4.6,8.4,4.6,8.5s0.1,0.2,0.1,0.2l0,0C50.7,52.5,51.1,52.2,51.4,51.8z"/>
			<path class="st3" d="M42.2,36.6l-0.1-0.3c-0.3,0.2-0.7,0.5-1,0.9c2.6,5.2-3.2,11.5-4.5,12.8c0.1,0.5,0.2,0.9,0.4,1.3
				c0.1,0,0.2-0.1,0.2-0.1c0.1-0.1,2.1-2,3.8-4.7C43.2,42.8,43.6,39.4,42.2,36.6z"/>
			<path class="st4" d="M60.6,46.2c0.5-0.3,1.1-0.5,1.6-0.9c0.3-1.8-0.1-4-1.3-6.2C60.3,38,59.6,37,59,36.3
				c5.3,0.7,9.8,1.4,10.1,1.5c0.1-0.4,0.2-0.9,0.1-1.3C67.9,36.2,52,33.6,45.1,34l-1.3,1.1l0,0c0.1,0.2,0.3,0.2,0.6,0.2
				c2.8-0.3,7.9,0.1,12.8,0.7C57.4,36.3,62.4,41.9,60.6,46.2z"/>
			<path class="st4" d="M55.6,40.7L55.6,40.7C54.7,39,52.9,38,51,38h-5.1c0.3,0.4,0.7,0.8,1.1,1.3h4l0,0c1.4,0,2.8,0.7,3.4,2
				l2.8,5.7c0.5,0.1,1,0.1,1.4,0L55.6,40.7z"/>
			<g>
				<path class="st3" d="M47.3,11c2.7,7.7-3.6,20.9-3.6,20.9L42,33.4l0,0l0,0c0,0-4.4,6.7-13.2,5.8s-8.9-10.8-2.2-15.5
					c3.7-2.6,6.7-1.1,6.7-1.1l0,0c-1.1-2.2-1.6-4.4-0.8-6C35.3,11.2,44.6,3.3,47.3,11z"/>
			</g>
			<path class="st4" d="M42,33.4c0,0-2.1-2-4.4-4.7c-1.6-1.9-3.3-4.1-4.3-6.2l0,0c0,0-3-1.4-6.7,1.1c-6.7,4.7-6.6,14.6,2.2,15.5
				C37.6,40.1,42,33.4,42,33.4z"/>
			<g>
				<path class="st3" d="M47.3,11c2.7,7.7-3.6,20.9-3.6,20.9L42,33.4l0,0c-0.3-0.2-2.2-2.1-4.4-4.6c-1.6-1.9-3.3-4.1-4.3-6.2l0,0
					l0,0c-1.1-2.2-1.6-4.4-0.8-6C35.3,11.2,44.6,3.3,47.3,11z"/>
			</g>
			<path class="st3" d="M26.6,23.7L26.6,23.7c1.3,0.6,6.1,3.1,8.7,6.8c1.9,0.2,3.2,0.4,3.9,0.8l1.4,0.7c0.9,0.9,1.5,1.5,1.5,1.5
				S42,33.7,41.7,34l-3-1.5c-2.2-1.1-12.7-0.9-16.6-0.7H22c0-0.4,0.1-0.9,0.2-1.3c0.7,0,3.9-0.2,7.3-0.2c1.6,0,3,0,4.3,0.1
				c-2.9-3.5-7.8-5.6-7.8-5.6c-0.1,0-0.2-0.1-0.2-0.2l0,0C25.9,24.2,26.2,24,26.6,23.7z"/>
			<path class="st3" d="M40.5,34.7l0.3,0.1c-0.3,0.3-0.6,0.6-1,0.9c-4.8-3.2-11.8,1.8-13.2,3c-0.5-0.2-0.9-0.3-1.3-0.6
				c0-0.1,0.1-0.1,0.2-0.2c0.1-0.1,2.2-1.8,5.1-3.2C34.5,33,38,33,40.5,34.7z"/>
			<path class="st4" d="M33.3,15.3c0.3-0.5,0.7-1,1.1-1.5c1.9-0.1,3.9,0.6,6,2.1c1.1,0.7,2,1.6,2.6,2.2c0-5.3-0.2-9.9-0.2-10.2
				c0.4-0.1,0.9-0.1,1.3,0c0.1,1.5,0.6,17.5-0.7,24.3l-1.3,1.1l0,0c-0.1-0.2-0.2-0.4-0.1-0.6c0.7-2.7,0.9-7.9,1-12.8
				C42.8,19.7,37.8,14,33.3,15.3z"/>
			<path class="st4" d="M38.1,20.9L38.1,20.9c1.6,1.1,2.4,3,2.1,4.9l-0.6,5.1c-0.4-0.4-0.7-0.8-1.1-1.3l0.5-4l0,0
				c0.2-1.4-0.4-2.8-1.5-3.7l-5.3-3.5c0-0.5,0.1-1,0.2-1.4L38.1,20.9z"/>
			<g>
				<circle class="st5" cx="52.1" cy="19.3" r="1.1"/>
				<circle class="st5" cx="58.9" cy="27" r="1.1"/>
			</g>
			<path class="st6" d="M44.4,34.8c2.7-2.4,4.4-4.7,4-5.4l0,0l0,0l0,0l0,0c-0.6-0.5-3.1,0.9-5.8,3.3S34,41,34.4,41.8l0,0l0,0l0,0
				l0,0C35.1,42.3,41.8,37.2,44.4,34.8z"/>
			<circle class="st7" cx="47.3" cy="30.4" r="1.8"/>
		</g>
		<g>
			<g>
				<path class="st2" d="M199.7,27.9c-0.1-0.1-0.1-0.2-0.1-0.3l2-4.5c0.2-0.4,0.4-0.7,0.7-0.9c0.1-0.1,0.3-0.1,0.3,0.1l0,0
					c0.1,0.1,0.1,0.1,0.1,0.2c0,0.1-0.1,0.1-0.1,0.2c-0.2,0.2-0.4,0.4-0.5,0.7l0,0l-2.1,4.5C200,27.9,199.8,28,199.7,27.9
					C199.8,27.9,199.7,27.9,199.7,27.9z"/>
				<path class="st2" d="M200.5,28.7c0-0.1-0.1-0.1-0.1-0.1c0-0.1,0-0.1,0-0.2c0.1-0.1,0.1-0.1,0.2-0.1l4.7-1.4
					c0.3-0.1,0.5-0.2,0.8-0.4c0.1-0.1,0.1-0.1,0.2-0.1c0.1,0,0.1,0,0.2,0.1l0,0c0.1,0.1,0.1,0.3,0,0.3c-0.3,0.3-0.6,0.5-1,0.6
					l-4.7,1.4C200.6,28.8,200.5,28.8,200.5,28.7z"/>
			</g>
			<path class="st3" d="M210.5,29.8c-4-2-11.5,0.5-11.5,0.5l-0.9,0.8l0,0l0,0c0,0-3.9,1.9-4,6.7s5.2,5.5,8.2,2.3
				c1.6-1.8,1.1-3.5,1.1-3.5l0,0c1.1,0.8,2.2,1.2,3.2,0.8C209.6,36.3,214.5,31.8,210.5,29.8z"/>
			<path class="st4" d="M198.1,31.1c0,0,0.9,1.3,2.2,2.7c0.9,1,2,2.1,3,2.7l0,0c0,0,0.6,1.7-1.1,3.5c-3,3.3-8.3,2.6-8.2-2.3
				C194.2,33,198.1,31.1,198.1,31.1z"/>
			<path class="st3" d="M202.3,40.1L202.3,40.1c-0.2-0.8-1.2-3.5-3-5.2c0.1-1,0-1.7-0.2-2.1l-0.3-0.8c-0.4-0.5-0.7-0.9-0.7-0.9
				s-0.1,0.1-0.3,0.2l0.6,1.7c0.4,1.3-0.4,6.9-0.8,9v0.1c0.2,0,0.5,0,0.7,0c0.1-0.4,0.4-2.1,0.6-3.9c0.1-0.9,0.2-1.6,0.2-2.3
				c1.7,1.8,2.5,4.6,2.5,4.6s0.1,0.1,0.1,0.1l0,0C201.9,40.5,202.1,40.3,202.3,40.1z"/>
			<path class="st3" d="M197.2,31.8l-0.1-0.2c-0.2,0.1-0.4,0.3-0.5,0.5c1.4,2.8-1.7,6.3-2.4,7c0.1,0.3,0.1,0.5,0.2,0.7
				c0.1,0,0.1-0.1,0.1-0.1c0.1-0.1,1.1-1.1,2.1-2.6C197.8,35.2,198,33.4,197.2,31.8z"/>
			<path class="st4" d="M207.3,37.1c0.3-0.2,0.6-0.3,0.9-0.5c0.2-1-0.1-2.2-0.7-3.4c-0.3-0.6-0.7-1.1-1-1.5c2.9,0.4,5.3,0.8,5.5,0.8
				c0.1-0.2,0.1-0.5,0.1-0.7c-0.7-0.2-9.4-1.6-13.1-1.4l-0.7,0.6l0,0c0.1,0.1,0.2,0.1,0.3,0.1c1.5-0.2,4.3,0.1,7,0.4
				C205.5,31.7,208.2,34.7,207.3,37.1z"/>
			<path class="st4" d="M204.5,34.1L204.5,34.1c-0.5-0.9-1.5-1.5-2.5-1.5h-2.8c0.2,0.2,0.4,0.4,0.6,0.7h2.2l0,0
				c0.8,0,1.5,0.4,1.8,1.1l1.5,3.1c0.3,0.1,0.5,0.1,0.8,0L204.5,34.1z"/>
			<g>
				<path class="st3" d="M200,17.9c1.5,4.2-2,11.4-2,11.4l-0.9,0.8l0,0l0,0c0,0-2.4,3.6-7.2,3.2c-4.8-0.5-4.8-5.9-1.2-8.4
					c2-1.4,3.6-0.6,3.6-0.6l0,0c-0.6-1.2-0.9-2.4-0.4-3.3C193.5,18,198.6,13.7,200,17.9z"/>
			</g>
			<path class="st4" d="M197.1,30.1c0,0-1.1-1.1-2.4-2.6c-0.9-1-1.8-2.2-2.3-3.4l0,0c0,0-1.6-0.8-3.6,0.6c-3.6,2.6-3.6,7.9,1.2,8.4
				C194.7,33.7,197.1,30.1,197.1,30.1z"/>
			<g>
				<path class="st3" d="M200,17.9c1.5,4.2-2,11.4-2,11.4l-0.9,0.8l0,0c-0.2-0.1-1.2-1.1-2.4-2.5c-0.9-1-1.8-2.2-2.3-3.4l0,0l0,0
					c-0.6-1.2-0.9-2.4-0.4-3.3C193.5,18,198.6,13.7,200,17.9z"/>
			</g>
			<path class="st3" d="M188.8,24.8L188.8,24.8c0.7,0.3,3.3,1.7,4.7,3.7c1,0.1,1.7,0.2,2.1,0.4l0.8,0.4c0.5,0.5,0.8,0.8,0.8,0.8
				s-0.1,0.1-0.2,0.3l-1.6-0.8c-1.2-0.6-6.9-0.5-9-0.4h-0.1c0-0.2,0.1-0.5,0.1-0.7c0.4,0,2.1-0.1,4-0.1c0.9,0,1.6,0,2.3,0.1
				c-1.6-1.9-4.2-3-4.2-3c-0.1,0-0.1-0.1-0.1-0.1l0,0C188.4,25.1,188.6,25,188.8,24.8z"/>
			<path class="st3" d="M196.3,30.8l0.2,0.1c-0.2,0.2-0.3,0.3-0.5,0.5c-2.6-1.7-6.4,1-7.2,1.6c-0.3-0.1-0.5-0.2-0.7-0.3
				c0-0.1,0.1-0.1,0.1-0.1c0.1-0.1,1.2-1,2.8-1.7C193.1,29.9,195,29.9,196.3,30.8z"/>
			<path class="st4" d="M192.4,20.3c0.2-0.3,0.4-0.5,0.6-0.8c1-0.1,2.1,0.3,3.3,1.1c0.6,0.4,1.1,0.9,1.4,1.2c0-2.9-0.1-5.4-0.1-5.5
				c0.2-0.1,0.5-0.1,0.7,0c0.1,0.8,0.3,9.5-0.4,13.2l-0.7,0.6l0,0c-0.1-0.1-0.1-0.2-0.1-0.3c0.4-1.5,0.5-4.3,0.5-7
				C197.6,22.7,194.9,19.6,192.4,20.3z"/>
			<path class="st4" d="M195,23.3L195,23.3c0.9,0.6,1.3,1.6,1.1,2.7l-0.3,2.8c-0.2-0.2-0.4-0.4-0.6-0.7l0.3-2.2l0,0
				c0.1-0.8-0.2-1.5-0.8-2l-2.9-1.9c0-0.3,0.1-0.5,0.1-0.8L195,23.3z"/>
			<g>
				<circle class="st5" cx="202.6" cy="22.4" r="0.6"/>
				<circle class="st5" cx="206.3" cy="26.6" r="0.6"/>
			</g>
			<path class="st6" d="M198.4,30.9c1.5-1.3,2.4-2.6,2.2-2.9l0,0l0,0l0,0l0,0c-0.3-0.3-1.7,0.5-3.2,1.8c-1.5,1.3-4.7,4.5-4.5,4.9
				l0,0l0,0l0,0l0,0C193.4,34.9,197,32.2,198.4,30.9z"/>
			<circle class="st7" cx="200" cy="28.5" r="1"/>
		</g>
		<g>
			<g>
				<path class="st2" d="M259,28.4c-0.1,0-0.1-0.1-0.1-0.1l-0.5-3.3c0-0.3,0-0.6,0.1-0.8c0-0.1,0.1-0.1,0.2-0.1l0,0
					c0.1,0,0.1,0,0.1,0.1c0,0,0,0.1,0,0.1c-0.1,0.2-0.1,0.4-0.1,0.6l0,0l0.4,3.4C259.2,28.4,259.1,28.5,259,28.4
					C259,28.4,259,28.5,259,28.4z"/>
				<path class="st2" d="M259.7,28.7C259.7,28.6,259.7,28.6,259.7,28.7c-0.1-0.1-0.1-0.1-0.2-0.2c0-0.1,0-0.1,0.1-0.1l2.3-2.6
					c0.1-0.1,0.2-0.3,0.3-0.5c0-0.1,0-0.1,0.1-0.1c0,0,0.1,0,0.1,0l0,0c0.1,0,0.2,0.1,0.1,0.2c-0.1,0.3-0.2,0.5-0.4,0.7l-2.3,2.6
					C259.9,28.7,259.8,28.7,259.7,28.7z"/>
			</g>
			<path class="st3" d="M266,25.6c-3,0.3-6.6,4.5-6.6,4.5l-0.2,0.8l0,0l0,0c0,0-1.6,2.5,0.1,5.4c1.7,2.8,5.1,1.3,5.6-1.7
				c0.3-1.6-0.7-2.5-0.7-2.5l0,0c0.9,0,1.7-0.1,2.1-0.7C267.9,29.8,269.1,25.4,266,25.6z"/>
			<path class="st4" d="M259.2,30.9c0,0,1,0.4,2.3,0.7c0.9,0.2,1.9,0.5,2.8,0.5l0,0c0,0,1,0.8,0.7,2.5c-0.6,3-3.9,4.5-5.6,1.7
				C257.6,33.5,259.2,30.9,259.2,30.9z"/>
			<path class="st3" d="M264.9,34.7L264.9,34.7c-0.4-0.4-2-1.6-3.7-1.9c-0.3-0.6-0.6-1-0.9-1.2l-0.4-0.3c-0.5-0.2-0.8-0.3-0.8-0.3
				s0,0.1-0.1,0.2l1,0.8c0.7,0.6,2.3,4.2,2.8,5.6l0,0c0.1-0.1,0.3-0.2,0.4-0.3c-0.1-0.2-0.5-1.3-1.1-2.5c-0.3-0.5-0.5-1-0.7-1.4
				c1.6,0.4,3.1,1.8,3.2,1.8c0,0,0.1,0,0.1,0l0,0C264.9,35,264.9,34.8,264.9,34.7z"/>
			<path class="st3" d="M259,31.6L259,31.6c-0.1,0-0.2,0.2-0.2,0.4c1.9,1.1,1.3,4.3,1.1,5c0.1,0.1,0.2,0.2,0.4,0.3c0,0,0-0.1,0-0.1
				c0-0.1,0.3-1.1,0.3-2.3C260.5,33.4,260,32.3,259,31.6z"/>
			<path class="st4" d="M266.8,31.1c0.1-0.2,0.3-0.4,0.3-0.6c-0.3-0.6-0.8-1.3-1.6-1.7c-0.4-0.2-0.8-0.4-1.2-0.5
				c1.8-0.8,3.4-1.5,3.5-1.5c0-0.1-0.1-0.3-0.2-0.4c-0.5,0.2-6.1,2.5-8.2,4l-0.2,0.6l0,0c0.1,0,0.1,0,0.2-0.1
				c0.8-0.7,2.5-1.5,4.2-2.3C263.8,28.5,266.5,29.3,266.8,31.1z"/>
			<path class="st4" d="M264.1,30.3L264.1,30.3c-0.6-0.4-1.4-0.3-2,0.1l-1.6,1c0.2,0.1,0.4,0.1,0.6,0.2l1.3-0.8l0,0
				c0.4-0.3,1-0.3,1.5,0l2,1.3c0.2-0.1,0.3-0.2,0.4-0.3L264.1,30.3z"/>
			<g>
				<path class="st3" d="M255.5,22.5c2.4,1.9,3,7.4,3,7.4l-0.2,0.8l0,0l0,0c0,0-0.1,3-3.1,4.5c-3,1.5-5-1.7-3.8-4.5
					c0.7-1.6,1.9-1.7,1.9-1.7l0,0c-0.8-0.5-1.4-1.1-1.4-1.8C251.8,24.9,253.2,20.6,255.5,22.5z"/>
			</g>
			<path class="st4" d="M258.3,30.7c0,0-1.1-0.2-2.3-0.6c-0.9-0.3-1.9-0.6-2.6-1.1l0,0c0,0-1.2,0.1-1.9,1.7c-1.2,2.8,0.8,6,3.8,4.5
				C258.2,33.7,258.3,30.7,258.3,30.7z"/>
			<g>
				<path class="st3" d="M255.5,22.5c2.4,1.9,3,7.4,3,7.4l-0.2,0.8l0,0c-0.1,0-1.1-0.2-2.3-0.6c-0.9-0.3-1.9-0.6-2.6-1.1l0,0l0,0
					c-0.8-0.5-1.4-1.1-1.4-1.8C251.8,24.9,253.2,20.6,255.5,22.5z"/>
			</g>
			<path class="st3" d="M251.5,30.6L251.5,30.6c0.5-0.1,2.6-0.2,4.1,0.4c0.6-0.3,1.1-0.5,1.4-0.5l0.6-0.1c0.5,0.1,0.8,0.2,0.8,0.2
				s0,0.1,0,0.2l-1.3,0.1c-0.9,0.1-4.2,2.2-5.4,3.1l0,0c-0.1-0.1-0.1-0.3-0.2-0.5c0.2-0.1,1.2-0.8,2.3-1.5c0.5-0.3,1-0.6,1.4-0.8
				c-1.6-0.5-3.6-0.2-3.6-0.2c0,0-0.1,0-0.1,0l0,0C251.3,30.9,251.4,30.8,251.5,30.6z"/>
			<path class="st3" d="M258.1,31.4l0.1,0c0,0.2-0.1,0.3-0.1,0.5c-2.2-0.1-3.4,2.9-3.6,3.6c-0.2,0-0.3,0.1-0.5,0.1c0,0,0-0.1,0-0.1
				s0.3-1,1-2C255.8,32,256.9,31.3,258.1,31.4z"/>
			<path class="st4" d="M251.9,26.6c0-0.2,0-0.5,0.1-0.7c0.6-0.4,1.4-0.6,2.3-0.5c0.5,0,1,0.1,1.3,0.2c-1.1-1.7-2-3.1-2.1-3.2
				c0.1-0.1,0.3-0.2,0.4-0.3c0.3,0.5,3.7,5.5,4.6,7.9l-0.2,0.6l0,0c-0.1,0-0.1-0.1-0.2-0.2c-0.3-1-1.3-2.7-2.2-4.3
				C255.8,26.1,253.1,25.3,251.9,26.6z"/>
			<path class="st4" d="M254.6,27.5L254.6,27.5c0.7,0,1.4,0.5,1.6,1.1l0.8,1.7c-0.2,0-0.4-0.1-0.6-0.2l-0.6-1.4l0,0
				c-0.2-0.5-0.7-0.8-1.2-0.9l-2.4-0.1c-0.1-0.2-0.2-0.3-0.2-0.5L254.6,27.5z"/>
			<g>
				<circle class="st5" cx="258.7" cy="24.2" r="0.4"/>
				<circle class="st5" cx="262.4" cy="25.3" r="0.4"/>
			</g>
			<path class="st6" d="M259.3,30.6c0.4-1.3,0.5-2.4,0.2-2.5l0,0l0,0l0,0l0,0c-0.3,0-0.8,0.9-1.2,2.2c-0.4,1.3-1.1,4.3-0.8,4.5l0,0
				l0,0l0,0l0,0C257.9,34.9,259,31.9,259.3,30.6z"/>
			<circle class="st7" cx="259.4" cy="28.7" r="0.7"/>
		</g>
		<g>
			<g>
				<path class="st2" d="M120.8,26.6c-0.1-0.1-0.2-0.2-0.2-0.3l-0.5-7c-0.1-0.6,0-1.1,0.3-1.7c0.1-0.2,0.3-0.3,0.5-0.2l0,0
					c0.1,0,0.2,0.1,0.2,0.2s0,0.2,0,0.3c-0.2,0.4-0.3,0.8-0.2,1.3l0,0l0.5,7c0,0.2-0.1,0.4-0.3,0.4
					C120.9,26.6,120.8,26.6,120.8,26.6z"/>
				<path class="st2" d="M122.3,27.1c-0.1,0-0.1,0-0.1-0.1c-0.1-0.1-0.1-0.2-0.1-0.3c0-0.1,0-0.2,0.1-0.3l5.1-5
					c0.3-0.3,0.5-0.7,0.7-1.1c0-0.1,0.1-0.2,0.2-0.2c0.1,0,0.2-0.1,0.3,0l0,0c0.2,0.1,0.3,0.3,0.2,0.4c-0.1,0.6-0.4,1.1-0.9,1.4
					l-5.1,5C122.6,27.2,122.5,27.2,122.3,27.1z"/>
			</g>
			<path class="st3" d="M135.9,21.7c-6.4,0.2-14.3,8.5-14.3,8.5l-0.6,1.7l0,0l0,0c0,0-3.6,5.1-0.5,11.3s10.4,3.5,11.9-2.7
				c0.8-3.4-1.1-5.2-1.1-5.2l0,0c1.9,0.2,3.6,0,4.6-1.1C139.1,30.4,142.2,21.4,135.9,21.7z"/>
			<path class="st4" d="M121,31.8c0,0,2,1,4.7,1.9c1.8,0.6,3.9,1.2,5.7,1.4l0,0c0,0,1.9,1.8,1.1,5.2c-1.5,6.2-8.8,8.9-11.9,2.7
				C117.3,36.9,121,31.8,121,31.8z"/>
			<path class="st3" d="M132.4,40.3L132.4,40.3c-0.8-0.8-4-3.6-7.4-4.4c-0.6-1.3-1.2-2.2-1.7-2.6l-0.9-0.8c-0.9-0.4-1.5-0.7-1.5-0.7
				s-0.1,0.2-0.3,0.4l2,1.8c1.4,1.3,4.2,9.1,5.2,11.9c0,0,0,0,0,0.1c0.3-0.1,0.6-0.3,0.9-0.5c-0.2-0.5-1-2.9-1.9-5.4
				c-0.5-1.2-0.9-2.2-1.3-3.1c3.3,1.1,6.3,4.1,6.3,4.1c0.1,0.1,0.1,0.1,0.2,0.1l0,0C132.2,41,132.3,40.7,132.4,40.3z"/>
			<path class="st3" d="M120.4,33.3l-0.2-0.2c-0.1,0.3-0.3,0.6-0.4,1c3.7,2.6,2,9.1,1.6,10.5c0.2,0.3,0.5,0.5,0.8,0.8
				c0,0,0.1-0.1,0.1-0.2c0-0.1,0.7-2.1,0.9-4.6C123.4,37.2,122.4,34.7,120.4,33.3z"/>
			<path class="st4" d="M136.7,33.1c0.3-0.4,0.5-0.8,0.8-1.2c-0.5-1.4-1.6-2.7-3.2-3.8c-0.9-0.6-1.7-1-2.3-1.3
				c3.9-1.5,7.3-2.7,7.5-2.8c-0.1-0.3-0.2-0.7-0.4-0.9c-1.1,0.4-13,4.5-17.6,7.3l-0.5,1.3l0,0c0.2,0.1,0.3,0,0.5-0.1
				c1.8-1.3,5.5-2.9,9.1-4.3C130.8,27.4,136.3,29.4,136.7,33.1z"/>
			<path class="st4" d="M131.2,31.1L131.2,31.1c-1.3-0.8-2.9-0.9-4.2-0.1l-3.5,1.9c0.4,0.2,0.8,0.3,1.2,0.5l2.8-1.5l0,0
				c1-0.6,2.2-0.5,3.1,0.1l4.1,2.9c0.4-0.1,0.7-0.3,1-0.6L131.2,31.1z"/>
			<g>
				<path class="st3" d="M114.4,13.7c4.7,4.3,5.4,15.7,5.4,15.7l-0.6,1.7l0,0l0,0c0,0-0.5,6.2-6.9,8.9s-10.2-4.1-7.3-9.8
					c1.6-3.2,4.2-3.3,4.2-3.3l0,0c-1.6-1.1-2.7-2.4-2.8-3.8C106.2,18.3,109.7,9.4,114.4,13.7z"/>
			</g>
			<path class="st4" d="M119.1,31.1c0,0-2.2-0.6-4.8-1.6c-1.8-0.7-3.8-1.6-5.3-2.7l0,0c0,0-2.6,0.1-4.2,3.3
				c-2.9,5.7,0.9,12.5,7.3,9.8C118.6,37.4,119.1,31.1,119.1,31.1z"/>
			<g>
				<path class="st3" d="M114.4,13.7c4.7,4.3,5.4,15.7,5.4,15.7l-0.6,1.7l0,0c-0.3-0.1-2.3-0.6-4.7-1.6c-1.8-0.7-3.8-1.6-5.3-2.7
					l0,0l0,0c-1.6-1.1-2.7-2.4-2.8-3.8C106.2,18.3,109.7,9.4,114.4,13.7z"/>
			</g>
			<path class="st3" d="M104.9,30.2L104.9,30.2c1.1-0.1,5.4-0.2,8.5,1.4c1.4-0.6,2.3-0.9,2.9-0.9h1.2c1,0.3,1.6,0.5,1.6,0.5
				s0,0.2-0.1,0.5l-2.7,0.1c-1.9,0.1-9.1,4.1-11.7,5.7c0,0,0,0-0.1,0c-0.1-0.3-0.3-0.6-0.4-0.9c0.5-0.3,2.6-1.6,5-2.8
				c1.1-0.6,2.1-1.1,3-1.5c-3.3-1.3-7.4-1-7.5-1s-0.2,0-0.2,0l0,0C104.6,30.9,104.7,30.5,104.9,30.2z"/>
			<path class="st3" d="M118.6,32.6h0.2c-0.1,0.3-0.2,0.6-0.3,1c-4.5-0.5-7.5,5.6-8.1,6.9c-0.4,0.1-0.7,0.1-1.1,0.1
				c0-0.1,0-0.1,0-0.2c0-0.1,0.8-2.1,2.4-4.1C113.8,33.6,116.1,32.4,118.6,32.6z"/>
			<path class="st4" d="M106.3,21.9c0-0.5,0.1-0.9,0.2-1.4c1.2-0.8,2.9-1,4.9-0.8c1,0.1,1.9,0.3,2.6,0.5c-2-3.7-3.8-6.8-3.9-7
				c0.3-0.2,0.6-0.4,0.9-0.5c0.6,1,7,11.8,8.6,17l-0.5,1.3l0,0c-0.2-0.1-0.3-0.2-0.3-0.3c-0.5-2.1-2.3-5.7-4.1-9.2
				C114.5,21.4,109,19.3,106.3,21.9z"/>
			<path class="st4" d="M111.8,24L111.8,24c1.5,0.2,2.8,1.2,3.3,2.6l1.5,3.8c-0.4-0.1-0.8-0.3-1.3-0.4l-1.1-3l0,0
				c-0.4-1.1-1.3-1.8-2.4-2l-4.9-0.5c-0.2-0.3-0.3-0.7-0.4-1L111.8,24z"/>
			<g>
				<circle class="st5" cx="120.8" cy="17.7" r="0.8"/>
				<circle class="st5" cx="128.3" cy="20.5" r="0.8"/>
			</g>
			<path class="st6" d="M121.3,31.2c1-2.6,1.3-4.9,0.8-5.2l0,0l0,0l0,0l0,0c-0.6-0.1-1.8,1.8-2.8,4.4s-2.8,8.9-2.3,9.3l0,0l0,0l0,0
				l0,0C117.6,39.8,120.3,33.8,121.3,31.2z"/>
			<circle class="st7" cx="121.6" cy="27.1" r="1.4"/>
		</g>
	</g>
</g>
</svg>
