<?xml version="1.0" encoding="utf-8"?>
<!-- Generator: Adobe Illustrator 22.0.1, SVG Export Plug-In . SVG Version: 6.00 Build 0)  -->
<svg version="1.1" id="Layer_1" xmlns="http://www.w3.org/2000/svg" xmlns:xlink="http://www.w3.org/1999/xlink" x="0px" y="0px"
	 viewBox="0 0 400 400" style="enable-background:new 0 0 400 400;" xml:space="preserve">
<style type="text/css">
	.st0{fill:#FFFFFF;}
	.st1{fill:#2F0026;}
	.st2{fill:#808080;}
	.st3{fill:#00CDC8;}
	.st4{fill:#C7CFE2;}
	.st5{fill:#E21717;}
	.st6{fill:#AF0505;}
	.st7{fill:#D7DEED;}
	.st8{fill:#464655;}
	.st9{fill:#B8BFD4;}
	.st10{fill:#F73434;}
	.st11{fill:#3399FF;}
	.st12{fill:#0066CC;}
	.st13{fill:#66CCFF;}
	.st14{fill:#EFEFEF;}
	.st15{fill:#C8CCCE;}
	.st16{fill:#74787C;}
	.st17{fill:#6816A3;}
	.st18{fill:#46097C;}
	.st19{fill:#8033C4;}
	.st20{fill:#FC2DD5;}
	.st21{fill:#C40AAA;}
	.st22{fill:#FF5AE8;}
	.st23{fill:#FF6600;}
	.st24{fill:#D35500;}
	.st25{fill:#F98435;}
	.st26{fill:#FFCC33;}
	.st27{fill:#FFB333;}
	.st28{fill:#FFE133;}
	.st29{fill:#333333;}
	.st30{fill:#666666;}
	.st31{fill:#009900;}
	.st32{fill:#305B00;}
	.st33{fill:#6CA030;}
</style>
<g>
	<rect x="24.1" y="246.4" class="st0" width="8.4" height="8.4"/>
	<rect x="32.5" y="246.4" class="st1" width="8.4" height="8.4"/>
	<rect x="24.1" y="254.8" class="st1" width="8.4" height="8.4"/>
	<rect x="32.5" y="254.8" class="st0" width="8.4" height="8.4"/>
	<rect x="24.1" y="263.2" class="st0" width="8.4" height="8.4"/>
	<rect x="32.5" y="263.2" class="st1" width="8.4" height="8.4"/>
	<rect x="24.1" y="271.6" class="st1" width="8.4" height="8.4"/>
	<rect x="32.5" y="271.6" class="st0" width="8.4" height="8.4"/>
	<rect x="24.1" y="280.1" class="st0" width="8.4" height="8.4"/>
	<rect x="32.5" y="280.1" class="st1" width="8.4" height="8.4"/>
	<rect x="24.1" y="288.5" class="st1" width="8.4" height="8.4"/>
	<rect x="32.5" y="288.5" class="st0" width="8.4" height="8.4"/>
	<rect x="24.1" y="296.9" class="st0" width="8.4" height="8.4"/>
	<rect x="32.5" y="296.9" class="st1" width="8.4" height="8.4"/>
	<rect x="24.1" y="305.3" class="st1" width="8.4" height="8.4"/>
	<rect x="32.5" y="305.3" class="st0" width="8.4" height="8.4"/>
	<rect x="24.1" y="313.7" class="st0" width="8.4" height="8.4"/>
	<rect x="32.5" y="313.7" class="st1" width="8.4" height="8.4"/>
	<rect x="24.1" y="322.1" class="st1" width="8.4" height="8.4"/>
	<rect x="32.5" y="322.1" class="st0" width="8.4" height="8.4"/>
	<rect x="24.1" y="330.6" class="st0" width="8.4" height="8.4"/>
	<rect x="32.5" y="330.6" class="st1" width="8.4" height="8.4"/>
</g>
<path class="st2" d="M299.2,338.7H40.7v-41.9h258.4c19.8,0,35.8-16.1,35.8-35.8c0-19.8-16.1-35.8-35.8-35.8l-197.3-0.3
	c-42.8,0-77.7-34.9-77.7-77.7S59,69.3,101.8,69.3h267.1v41.9H101.8C82.1,111.2,66,127.3,66,147c0,19.8,16.1,35.8,35.8,35.8
	l197.3,0.3c42.8,0,77.7,34.9,77.7,77.7C376.9,303.8,342,338.7,299.2,338.7z"/>
<path class="st0" d="M293.1,318.6h-12v-1.8h12V318.6z M269.1,318.6h-12v-1.8h12V318.6z M245.1,318.6h-12v-1.8h12V318.6z
	 M221.2,318.6h-12v-1.8h12V318.6z M197.2,318.6h-12v-1.8h12V318.6z M173.3,318.6h-12v-1.8h12V318.6z M149.3,318.6h-12v-1.8h12V318.6
	z M125.4,318.6h-12v-1.8h12V318.6z M101.4,318.6h-12v-1.8h12V318.6z M77.5,318.6h-12v-1.8h12V318.6z M53.5,318.6H40.7v-1.8h12.8
	V318.6z M305.1,318.3l-0.2-1.8c3.9-0.4,7.8-1.2,11.5-2.4l0.6,1.7C313.2,317.1,309.2,317.9,305.1,318.3z M328.1,310.9l-0.9-1.6
	c3.4-2,6.6-4.3,9.5-6.9l1.2,1.3C334.9,306.4,331.6,308.8,328.1,310.9z M346,294.6l-1.5-1.1c2.3-3.2,4.3-6.6,5.8-10.2l1.6,0.7
	C350.4,287.8,348.4,291.4,346,294.6z M355.7,272.5l-1.8-0.4c0.7-3.7,1.1-7.5,1.1-11.2l0-0.5l1.8,0l0,0.5
	C356.8,264.8,356.5,268.7,355.7,272.5z M353.7,248.8c-0.8-3.8-2.1-7.6-3.8-11.1l1.6-0.7c1.7,3.7,3,7.6,3.9,11.5L353.7,248.8z
	 M344,227.5c-2.3-3.1-5-6-8-8.6l1.2-1.4c3,2.7,5.8,5.7,8.2,8.9L344,227.5z M326.4,212.1c-3.4-1.9-7.1-3.5-10.8-4.6l0.5-1.7
	c3.9,1.2,7.6,2.8,11.2,4.8L326.4,212.1z M304,205.2c-1.6-0.1-3.2-0.2-4.8-0.2l-7.1,0l0-1.8l7.1,0c1.7,0,3.3,0.1,5,0.2L304,205.2z
	 M280.1,205l-12,0l0-1.8l12,0L280.1,205z M256.2,205l-12,0l0-1.8l12,0L256.2,205z M232.2,204.9l-12,0l0-1.8l12,0L232.2,204.9z
	 M208.3,204.9l-12,0l0-1.8l12,0L208.3,204.9z M184.3,204.9l-12,0l0-1.8l12,0L184.3,204.9z M160.3,204.8l-12,0l0-1.8l12,0
	L160.3,204.8z M136.4,204.8l-12,0l0-1.8l12,0L136.4,204.8z M112.4,204.7l-10.6,0c-0.5,0-0.9,0-1.4,0l0-1.8c0.5,0,0.9,0,1.4,0l10.6,0
	L112.4,204.7z M88.4,203.1c-3.9-0.9-7.8-2.3-11.4-4.1l0.8-1.6c3.5,1.7,7.3,3,11.1,3.9L88.4,203.1z M66.6,192.7
	c-3.2-2.5-6.2-5.3-8.8-8.4l1.4-1.2c2.5,3,5.4,5.7,8.5,8.1L66.6,192.7z M51,174.3c-1.9-3.6-3.5-7.4-4.6-11.2l1.7-0.5
	c1.1,3.8,2.6,7.4,4.4,10.9L51,174.3z M44.3,151.1c-0.1-1.3-0.1-2.7-0.1-4.1c0-2.7,0.2-5.4,0.6-8.1l1.8,0.2c-0.4,2.6-0.5,5.2-0.5,7.8
	c0,1.3,0,2.6,0.1,3.9L44.3,151.1z M49.4,127.8l-1.7-0.6c1.4-3.8,3.2-7.5,5.4-10.9l1.5,1C52.4,120.6,50.7,124.1,49.4,127.8z
	 M61.8,108l-1.3-1.3c2.8-2.9,6-5.5,9.3-7.8l1,1.5C67.6,102.7,64.6,105.2,61.8,108z M81.3,95l-0.7-1.7c3.8-1.5,7.7-2.6,11.7-3.2
	l0.3,1.8C88.8,92.5,84.9,93.6,81.3,95z M332,91.1h-12v-1.8h12V91.1z M356.1,91.1h-12v-1.8h12V91.1z M368.9,91.1h-8.7v-1.8h8.7V91.1z
	 M308,91.1h-12v-1.8h12V91.1z M284.1,91.1h-12v-1.8h12V91.1z M260.1,91.1h-12v-1.8h12V91.1z M236.2,91.1h-12v-1.8h12V91.1z
	 M212.2,91.1h-12v-1.8h12V91.1z M188.3,91.1h-12v-1.8h12V91.1z M164.3,91.1h-12v-1.8h12V91.1z M140.4,91.1h-12v-1.8h12V91.1z
	 M116.4,91.1h-12v-1.8h12V91.1z"/>
<g>
	<rect x="24.1" y="240.3" class="st3" width="89" height="31.4"/>
	<g>
		<g>
			<path class="st0" d="M35.2,245.9c0.4,0.7,0.9,1.6,1.4,2.7c0.5,1.1,1,2.2,1.6,3.3c0.5,1.2,1.1,2.3,1.6,3.5c0.5,1.2,1,2.3,1.5,3.3
				c0.4-1,0.9-2.1,1.4-3.3c0.5-1.2,1-2.4,1.6-3.5c0.5-1.2,1.1-2.3,1.6-3.3c0.5-1.1,1-1.9,1.4-2.7h3.3c0.2,1.5,0.3,3,0.5,4.6
				s0.3,3.3,0.4,5c0.1,1.7,0.2,3.4,0.4,5.2c0.1,1.7,0.2,3.4,0.3,5.1h-3.6c-0.1-2.3-0.2-4.7-0.3-7.2c-0.1-2.5-0.3-4.8-0.5-7.1
				c-0.2,0.4-0.5,1-0.7,1.6c-0.3,0.6-0.6,1.3-0.9,2c-0.3,0.7-0.7,1.5-1,2.2c-0.3,0.8-0.7,1.5-1,2.2c-0.3,0.7-0.6,1.4-0.9,2
				c-0.3,0.6-0.5,1.2-0.7,1.6h-2.7c-0.2-0.4-0.4-1-0.7-1.6c-0.3-0.6-0.6-1.3-0.9-2c-0.3-0.7-0.6-1.5-1-2.2c-0.3-0.8-0.7-1.5-1-2.2
				c-0.3-0.7-0.6-1.4-0.9-2c-0.3-0.6-0.5-1.1-0.7-1.6c-0.2,2.3-0.4,4.7-0.5,7.1c-0.1,2.5-0.2,4.8-0.3,7.2h-3.6
				c0.1-1.6,0.2-3.4,0.3-5.1c0.1-1.8,0.2-3.5,0.4-5.2c0.1-1.7,0.3-3.4,0.4-5c0.2-1.6,0.3-3.1,0.5-4.5H35.2z"/>
			<path class="st0" d="M56.3,265.8v-19.9H69v3.1h-9.2v4.9H68v3h-8.2v5.8h9.9v3.1H56.3z"/>
			<path class="st0" d="M87,245.9v3.1h-6.1v16.8h-3.6V249h-6.1v-3.1H87z"/>
			<path class="st0" d="M101.3,265.8c-0.3-0.8-0.5-1.6-0.8-2.3c-0.3-0.8-0.6-1.6-0.8-2.4h-8.4c-0.3,0.8-0.5,1.6-0.8,2.4
				c-0.3,0.8-0.6,1.5-0.8,2.3h-3.8c0.7-2.1,1.5-4.1,2.1-5.9c0.7-1.8,1.3-3.5,2-5.1c0.6-1.6,1.3-3.1,1.9-4.6c0.6-1.5,1.3-2.9,2-4.3
				h3.5c0.7,1.4,1.3,2.9,2,4.3c0.6,1.5,1.3,3,1.9,4.6c0.6,1.6,1.3,3.3,2,5.1c0.7,1.8,1.4,3.8,2.1,5.9H101.3z M95.4,249.7
				c-0.4,1-0.9,2.2-1.5,3.7s-1.2,3-1.8,4.7h6.5c-0.6-1.7-1.2-3.3-1.8-4.8S95.9,250.7,95.4,249.7z"/>
		</g>
	</g>
</g>
<g>
	<g>
		
			<rect x="118.4" y="290.6" transform="matrix(0.6247 -0.7809 0.7809 0.6247 -181.7489 206.3325)" class="st4" width="10.8" height="3.4"/>
		<path class="st4" d="M68.4,299.6l5.9-7.9c1-1.3,2.4-2,4-2h8.3c0,0,0,0,0,0c1.8,0,3.4,1,4.3,2.5l1.3,2.2c0.6,1,0,2.2-1.1,2.3
			L68.4,299.6z"/>
		<path class="st4" d="M58.2,298.1l6.7,3.4l11.8-13.2h-7.4c-0.2,0.1-0.3,0.2-0.5,0.4C66.1,290.8,58.2,298.1,58.2,298.1z"/>
	</g>
	<path class="st5" d="M34.7,313.2v5H117l11.8-3.4v-15.1c0-2.8-2.3-5-5-5H109l-11.8-5.9c-3.3-1.6-6.9-2.5-10.5-2.5h-8.3
		c-5.7,0-8.3,1.2-9.6,2.2c-0.4,0.3-0.8,0.7-1.3,1.1H70c0.7,0,1,0.8,0.6,1.3l-6.2,8.3c-0.3-0.1-0.6-0.3-0.9-0.5l-2.4-1.6
		c-0.8-0.6-1.8-0.8-2.8-0.8h-6.9C42.2,296.4,34.7,304,34.7,313.2z M68.4,299.6l5.9-7.9c1-1.3,2.4-2,4-2h8.3c0,0,0,0,0,0
		c1.8,0,3.4,1,4.3,2.5l1.3,2.2c0.6,1,0,2.2-1.1,2.3L68.4,299.6z"/>
	<path class="st6" d="M33,318.3c0-0.9,0.8-1.7,1.7-1.7h75.6c0.9,0,1.7,0.8,1.7,1.7c0,0.9-0.8,1.7-1.7,1.7H34.7
		C33.8,320,33,319.2,33,318.3z"/>
	<circle class="st7" cx="51.5" cy="313.2" r="8.4"/>
	<path class="st8" d="M41.4,313.2c0-5.6,4.5-10.1,10.1-10.1s10.1,4.5,10.1,10.1s-4.5,10.1-10.1,10.1S41.4,318.8,41.4,313.2z
		 M44.8,313.2c0,3.7,3,6.7,6.7,6.7c3.7,0,6.7-3,6.7-6.7s-3-6.7-6.7-6.7C47.8,306.5,44.8,309.5,44.8,313.2z"/>
	<circle class="st9" cx="51.5" cy="313.2" r="3.4"/>
	<g>
		<path class="st6" d="M113.7,318.7c-0.2-0.9,0.3-1.8,1.2-2l13.4-3.4c0.9-0.2,1.8,0.3,2,1.2c0.2,0.9-0.3,1.8-1.2,2l-13.4,3.4
			c-0.1,0-0.3,0.1-0.4,0.1C114.6,320,113.9,319.5,113.7,318.7z"/>
		<path class="st6" d="M68.5,310.8l-2.5-2.5c-0.7-0.7-0.7-1.7,0-2.4c0.7-0.7,1.7-0.7,2.4,0l2.5,2.5c1,1,2.2,1.5,3.6,1.5h29.2
			c0.9,0,1.7,0.8,1.7,1.7c0,0.9-0.8,1.7-1.7,1.7H74.4C72.2,313.2,70.1,312.4,68.5,310.8z"/>
	</g>
	<circle class="st7" cx="112" cy="313.2" r="8.4"/>
	<path class="st8" d="M101.9,313.2c0-5.6,4.5-10.1,10.1-10.1c5.6,0,10.1,4.5,10.1,10.1s-4.5,10.1-10.1,10.1
		C106.4,323.3,101.9,318.8,101.9,313.2z M105.3,313.2c0,3.7,3,6.7,6.7,6.7c3.7,0,6.7-3,6.7-6.7s-3-6.7-6.7-6.7
		S105.3,309.5,105.3,313.2z"/>
	<circle class="st9" cx="112" cy="313.2" r="3.4"/>
	<path class="st10" d="M123.8,294.8H109c-1.6,0-15.9,1.7-27.1,3.2l-13.5,1.7c-3.4,0.4-4-0.3-4-0.3c-0.3-0.1-0.6-0.3-0.9-0.5
		l-2.4-1.6c-0.8-0.6-1.8-0.8-2.8-0.8h-6.9c-8.7,0-15.8,6.5-16.7,14.9c8.5-15.4,21.7-10.7,25.7-8.8c0.8,0.4,1.7,0.5,2.6,0.4l64.5-6.5
		C126.7,295.5,125.3,294.8,123.8,294.8z"/>
	<path class="st6" d="M120.4,289.7V288c0-0.9,0.8-1.7,1.7-1.7h7.1c0.6,0,1.1,0.6,0.9,1.2l-0.5,1.5c-0.5,1.4-1.7,2.3-3.2,2.3h-4.3
		C121.2,291.4,120.4,290.6,120.4,289.7z"/>
</g>
<g>
	<g>
		
			<rect x="372.4" y="71.6" transform="matrix(0.6247 -0.7809 0.7809 0.6247 84.594 322.4812)" class="st4" width="10.8" height="3.4"/>
		<path class="st4" d="M322.4,80.6l5.9-7.9c1-1.3,2.4-2,4-2h8.3c0,0,0,0,0,0c1.8,0,3.4,1,4.3,2.5l1.3,2.2c0.6,1,0,2.2-1.1,2.3
			L322.4,80.6z"/>
		<path class="st4" d="M312.2,79.1l6.7,3.4l11.8-13.2h-7.4c-0.2,0.1-0.3,0.2-0.5,0.4C320.1,71.8,312.2,79.1,312.2,79.1z"/>
	</g>
	<path class="st11" d="M288.7,94.2v5H371l11.8-3.4V80.8c0-2.8-2.3-5-5-5H363l-11.8-5.9c-3.3-1.6-6.9-2.5-10.5-2.5h-8.3
		c-5.7,0-8.3,1.2-9.6,2.2c-0.4,0.3-0.8,0.7-1.3,1.1h2.6c0.7,0,1,0.8,0.6,1.3l-6.2,8.3c-0.3-0.1-0.6-0.3-0.9-0.5l-2.4-1.6
		c-0.8-0.6-1.8-0.8-2.8-0.8h-6.9C296.2,77.4,288.7,85,288.7,94.2z M322.4,80.6l5.9-7.9c1-1.3,2.4-2,4-2h8.3c0,0,0,0,0,0
		c1.8,0,3.4,1,4.3,2.5l1.3,2.2c0.6,1,0,2.2-1.1,2.3L322.4,80.6z"/>
	<path class="st12" d="M287,99.3c0-0.9,0.8-1.7,1.7-1.7h75.6c0.9,0,1.7,0.8,1.7,1.7c0,0.9-0.8,1.7-1.7,1.7h-75.6
		C287.8,101,287,100.2,287,99.3z"/>
	<circle class="st7" cx="305.5" cy="94.2" r="8.4"/>
	<path class="st8" d="M295.4,94.2c0-5.6,4.5-10.1,10.1-10.1s10.1,4.5,10.1,10.1c0,5.6-4.5,10.1-10.1,10.1S295.4,99.8,295.4,94.2z
		 M298.8,94.2c0,3.7,3,6.7,6.7,6.7c3.7,0,6.7-3,6.7-6.7s-3-6.7-6.7-6.7C301.8,87.5,298.8,90.5,298.8,94.2z"/>
	<circle class="st9" cx="305.5" cy="94.2" r="3.4"/>
	<g>
		<path class="st12" d="M367.7,99.7c-0.2-0.9,0.3-1.8,1.2-2l13.4-3.4c0.9-0.2,1.8,0.3,2,1.2c0.2,0.9-0.3,1.8-1.2,2l-13.4,3.4
			c-0.1,0-0.3,0.1-0.4,0.1C368.6,101,367.9,100.5,367.7,99.7z"/>
		<path class="st12" d="M322.5,91.8l-2.5-2.5c-0.7-0.7-0.7-1.7,0-2.4s1.7-0.7,2.4,0l2.5,2.5c1,1,2.2,1.5,3.6,1.5h29.2
			c0.9,0,1.7,0.8,1.7,1.7s-0.8,1.7-1.7,1.7h-29.2C326.2,94.2,324.1,93.4,322.5,91.8z"/>
	</g>
	<circle class="st7" cx="366" cy="94.2" r="8.4"/>
	<path class="st8" d="M355.9,94.2c0-5.6,4.5-10.1,10.1-10.1s10.1,4.5,10.1,10.1c0,5.6-4.5,10.1-10.1,10.1S355.9,99.8,355.9,94.2z
		 M359.3,94.2c0,3.7,3,6.7,6.7,6.7s6.7-3,6.7-6.7s-3-6.7-6.7-6.7C362.3,87.5,359.3,90.5,359.3,94.2z"/>
	<circle class="st9" cx="366" cy="94.2" r="3.4"/>
	<path class="st13" d="M377.8,75.8H363c-1.6,0-15.9,1.7-27.1,3.2l-13.5,1.7c-3.4,0.4-4-0.3-4-0.3c-0.3-0.1-0.6-0.3-0.9-0.5l-2.4-1.6
		c-0.8-0.6-1.8-0.8-2.8-0.8h-6.9c-8.7,0-15.8,6.5-16.7,14.9c8.5-15.4,21.7-10.7,25.7-8.8c0.8,0.4,1.7,0.5,2.6,0.4l64.5-6.5
		C380.7,76.5,379.3,75.8,377.8,75.8z"/>
	<path class="st11" d="M374.4,70.7V69c0-0.9,0.8-1.7,1.7-1.7h7.1c0.6,0,1.1,0.6,0.9,1.2l-0.5,1.5c-0.5,1.4-1.7,2.3-3.2,2.3h-4.3
		C375.2,72.4,374.4,71.6,374.4,70.7z"/>
</g>
<g>
	<g>
		
			<rect x="253.9" y="178.1" transform="matrix(0.7809 -0.6247 0.6247 0.7809 -58.6291 199.864)" class="st4" width="3.4" height="10.8"/>
		<path class="st4" d="M288.2,188c-1.1-0.1-1.7-1.4-1.1-2.3l1.3-2.2c0.9-1.5,2.5-2.5,4.3-2.5c0,0,0,0,0,0h8.3c1.6,0,3.1,0.7,4,2
			l5.9,7.9L288.2,188z"/>
		<path class="st4" d="M310.6,179.9c-0.1-0.1-0.3-0.2-0.5-0.4h-7.4l11.8,13.2l6.7-3.4C321.1,189.4,313.3,182.1,310.6,179.9z"/>
	</g>
	<path class="st14" d="M327.9,187.7H321c-1,0-2,0.3-2.8,0.8l-2.4,1.6c-0.3,0.2-0.6,0.3-0.9,0.5l-6.2-8.3c-0.4-0.5,0-1.3,0.6-1.3h2.6
		c-0.5-0.4-1-0.8-1.3-1.1c-1.3-1.1-3.9-2.2-9.6-2.2h-8.3c-3.7,0-7.3,0.9-10.5,2.5l-11.8,5.9h-14.7c-2.8,0-5,2.3-5,5v15.1l11.8,3.4
		h82.4v-5C344.7,195.2,337.1,187.7,327.9,187.7z M288.2,188c-1.1-0.1-1.7-1.4-1.1-2.3l1.3-2.2c0.9-1.5,2.5-2.5,4.3-2.5c0,0,0,0,0,0
		h8.3c1.6,0,3.1,0.7,4,2l5.9,7.9L288.2,188z"/>
	<path class="st15" d="M344.7,211.2H269c-0.9,0-1.7-0.8-1.7-1.7s0.8-1.7,1.7-1.7h75.6c0.9,0,1.7,0.8,1.7,1.7
		S345.6,211.2,344.7,211.2z"/>
	<circle class="st7" cx="327.9" cy="204.5" r="8.4"/>
	<path class="st8" d="M327.9,214.6c-5.6,0-10.1-4.5-10.1-10.1c0-5.6,4.5-10.1,10.1-10.1c5.6,0,10.1,4.5,10.1,10.1
		C337.9,210.1,333.4,214.6,327.9,214.6z M327.9,197.8c-3.7,0-6.7,3-6.7,6.7s3,6.7,6.7,6.7c3.7,0,6.7-3,6.7-6.7
		S331.6,197.8,327.9,197.8z"/>
	<circle class="st9" cx="327.9" cy="204.5" r="3.4"/>
	<g>
		<path class="st15" d="M264,211.2c-0.1,0-0.3,0-0.4-0.1l-13.4-3.4c-0.9-0.2-1.4-1.1-1.2-2c0.2-0.9,1.1-1.5,2-1.2l13.4,3.4
			c0.9,0.2,1.4,1.1,1.2,2C265.4,210.7,264.7,211.2,264,211.2z"/>
		<path class="st15" d="M304.9,204.5h-29.2c-0.9,0-1.7-0.8-1.7-1.7c0-0.9,0.8-1.7,1.7-1.7h29.2c1.3,0,2.6-0.5,3.6-1.5l2.5-2.5
			c0.7-0.7,1.7-0.7,2.4,0c0.7,0.7,0.7,1.7,0,2.4l-2.5,2.5C309.3,203.6,307.1,204.5,304.9,204.5z"/>
	</g>
	<circle class="st7" cx="267.3" cy="204.5" r="8.4"/>
	<path class="st8" d="M267.3,214.6c-5.6,0-10.1-4.5-10.1-10.1c0-5.6,4.5-10.1,10.1-10.1s10.1,4.5,10.1,10.1
		C277.4,210.1,272.9,214.6,267.3,214.6z M267.3,197.8c-3.7,0-6.7,3-6.7,6.7s3,6.7,6.7,6.7s6.7-3,6.7-6.7
		C274.1,200.8,271.1,197.8,267.3,197.8z"/>
	<circle class="st9" cx="267.3" cy="204.5" r="3.4"/>
	<path class="st0" d="M251.7,187.8l64.5,6.5c0.9,0.1,1.8-0.1,2.6-0.4c3.9-1.9,17.1-6.6,25.7,8.8c-0.9-8.4-8-14.9-16.7-14.9H321
		c-1,0-2,0.3-2.8,0.8l-2.4,1.6c-0.3,0.2-0.6,0.3-0.9,0.5c0,0-0.6,0.7-4,0.3l-13.5-1.7c-11.3-1.4-25.6-3.2-27.1-3.2h-14.7
		C254,186,252.7,186.7,251.7,187.8z"/>
	<path class="st16" d="M257.3,182.7H253c-1.4,0-2.7-0.9-3.2-2.3l-0.5-1.5c-0.2-0.6,0.3-1.2,0.9-1.2h7.1c0.9,0,1.7,0.8,1.7,1.7v1.7
		C258.9,181.9,258.2,182.7,257.3,182.7z"/>
</g>
<g>
	<g>
		
			<rect x="151.4" y="182.4" transform="matrix(0.7809 -0.6247 0.6247 0.7809 -83.7659 136.7647)" class="st4" width="3.4" height="10.8"/>
		<path class="st4" d="M185.7,192.3c-1.1-0.1-1.7-1.4-1.1-2.3l1.3-2.2c0.9-1.5,2.5-2.5,4.3-2.5c0,0,0,0,0,0h8.3c1.6,0,3.1,0.7,4,2
			l5.9,7.9L185.7,192.3z"/>
		<path class="st4" d="M208,184.1c-0.1-0.1-0.3-0.2-0.5-0.4h-7.4l11.8,13.2l6.7-3.4C218.6,193.7,210.8,186.4,208,184.1z"/>
	</g>
	<path class="st17" d="M225.3,192h-6.9c-1,0-2,0.3-2.8,0.8l-2.4,1.6c-0.3,0.2-0.6,0.3-0.9,0.5l-6.2-8.3c-0.4-0.5,0-1.3,0.6-1.3h2.6
		c-0.5-0.4-1-0.8-1.3-1.1c-1.3-1.1-3.9-2.2-9.6-2.2h-8.3c-3.7,0-7.3,0.9-10.5,2.5l-11.8,5.9h-14.7c-2.8,0-5,2.3-5,5v15.1l11.8,3.4
		h82.4v-5C242.2,199.5,234.6,192,225.3,192z M185.7,192.3c-1.1-0.1-1.7-1.4-1.1-2.3l1.3-2.2c0.9-1.5,2.5-2.5,4.3-2.5c0,0,0,0,0,0
		h8.3c1.6,0,3.1,0.7,4,2l5.9,7.9L185.7,192.3z"/>
	<path class="st18" d="M242.2,215.5h-75.6c-0.9,0-1.7-0.8-1.7-1.7c0-0.9,0.8-1.7,1.7-1.7h75.6c0.9,0,1.7,0.8,1.7,1.7
		C243.8,214.8,243.1,215.5,242.2,215.5z"/>
	<circle class="st7" cx="225.3" cy="208.8" r="8.4"/>
	<path class="st8" d="M225.3,218.9c-5.6,0-10.1-4.5-10.1-10.1s4.5-10.1,10.1-10.1s10.1,4.5,10.1,10.1
		C235.4,214.4,230.9,218.9,225.3,218.9z M225.3,202.1c-3.7,0-6.7,3-6.7,6.7c0,3.7,3,6.7,6.7,6.7c3.7,0,6.7-3,6.7-6.7
		C232.1,205.1,229.1,202.1,225.3,202.1z"/>
	<circle class="st9" cx="225.3" cy="208.8" r="3.4"/>
	<g>
		<path class="st18" d="M161.5,215.5c-0.1,0-0.3,0-0.4-0.1l-13.4-3.4c-0.9-0.2-1.4-1.1-1.2-2c0.2-0.9,1.1-1.5,2-1.2l13.4,3.4
			c0.9,0.2,1.4,1.1,1.2,2C162.9,215,162.2,215.5,161.5,215.5z"/>
		<path class="st18" d="M202.4,208.8h-29.2c-0.9,0-1.7-0.8-1.7-1.7s0.8-1.7,1.7-1.7h29.2c1.3,0,2.6-0.5,3.6-1.5l2.5-2.5
			c0.7-0.7,1.7-0.7,2.4,0c0.7,0.7,0.7,1.7,0,2.4l-2.5,2.5C206.7,207.9,204.6,208.8,202.4,208.8z"/>
	</g>
	<circle class="st7" cx="164.8" cy="208.8" r="8.4"/>
	<path class="st8" d="M164.8,218.9c-5.6,0-10.1-4.5-10.1-10.1s4.5-10.1,10.1-10.1c5.6,0,10.1,4.5,10.1,10.1
		C174.9,214.4,170.4,218.9,164.8,218.9z M164.8,202.1c-3.7,0-6.7,3-6.7,6.7c0,3.7,3,6.7,6.7,6.7s6.7-3,6.7-6.7
		C171.6,205.1,168.5,202.1,164.8,202.1z"/>
	<circle class="st9" cx="164.8" cy="208.8" r="3.4"/>
	<path class="st19" d="M149.2,192.1l64.5,6.5c0.9,0.1,1.8-0.1,2.6-0.4c3.9-1.9,17.1-6.6,25.7,8.8c-0.9-8.4-8-14.9-16.7-14.9h-6.9
		c-1,0-2,0.3-2.8,0.8l-2.4,1.6c-0.3,0.2-0.6,0.3-0.9,0.5c0,0-0.6,0.7-4,0.3l-13.5-1.7c-11.3-1.4-25.6-3.2-27.1-3.2h-14.7
		C151.5,190.3,150.2,191,149.2,192.1z"/>
	<path class="st18" d="M154.7,186.9h-4.3c-1.4,0-2.7-0.9-3.2-2.3l-0.5-1.5c-0.2-0.6,0.3-1.2,0.9-1.2h7.1c0.9,0,1.7,0.8,1.7,1.7v1.7
		C156.4,186.2,155.7,186.9,154.7,186.9z"/>
</g>
<g>
	<g>
		
			<rect x="151.2" y="65.6" transform="matrix(0.6247 -0.7809 0.7809 0.6247 6.2389 147.5494)" class="st4" width="10.8" height="3.4"/>
		<path class="st4" d="M101.3,74.7l5.9-7.9c1-1.3,2.4-2,4-2h8.3c0,0,0,0,0,0c1.8,0,3.4,1,4.3,2.5l1.3,2.2c0.6,1,0,2.2-1.1,2.3
			L101.3,74.7z"/>
		<path class="st4" d="M91.1,73.2l6.7,3.4l11.8-13.2h-7.4c-0.2,0.1-0.3,0.2-0.5,0.4C98.9,65.9,91.1,73.2,91.1,73.2z"/>
	</g>
	<path class="st20" d="M67.5,88.3v5h82.4l11.8-3.4V74.8c0-2.8-2.3-5-5-5h-14.7L130,63.9c-3.3-1.6-6.9-2.5-10.5-2.5h-8.3
		c-5.7,0-8.3,1.2-9.6,2.2c-0.4,0.3-0.8,0.7-1.3,1.1h2.6c0.7,0,1,0.8,0.6,1.3l-6.2,8.3c-0.3-0.1-0.6-0.3-0.9-0.5L94,72.3
		c-0.8-0.6-1.8-0.8-2.8-0.8h-6.9C75,71.5,67.5,79,67.5,88.3z M101.3,74.7l5.9-7.9c1-1.3,2.4-2,4-2h8.3c0,0,0,0,0,0
		c1.8,0,3.4,1,4.3,2.5l1.3,2.2c0.6,1,0,2.2-1.1,2.3L101.3,74.7z"/>
	<path class="st21" d="M65.8,93.3c0-0.9,0.8-1.7,1.7-1.7h75.6c0.9,0,1.7,0.8,1.7,1.7c0,0.9-0.8,1.7-1.7,1.7H67.5
		C66.6,95,65.8,94.3,65.8,93.3z"/>
	<circle class="st7" cx="84.3" cy="88.3" r="8.4"/>
	<path class="st8" d="M74.2,88.3c0-5.6,4.5-10.1,10.1-10.1c5.6,0,10.1,4.5,10.1,10.1c0,5.6-4.5,10.1-10.1,10.1
		C78.8,98.4,74.2,93.9,74.2,88.3z M77.6,88.3c0,3.7,3,6.7,6.7,6.7c3.7,0,6.7-3,6.7-6.7s-3-6.7-6.7-6.7
		C80.6,81.6,77.6,84.6,77.6,88.3z"/>
	<circle class="st9" cx="84.3" cy="88.3" r="3.4"/>
	<g>
		<path class="st21" d="M146.6,93.7c-0.2-0.9,0.3-1.8,1.2-2l13.4-3.4c0.9-0.2,1.8,0.3,2,1.2c0.2,0.9-0.3,1.8-1.2,2L148.6,95
			c-0.1,0-0.3,0.1-0.4,0.1C147.5,95,146.8,94.5,146.6,93.7z"/>
		<path class="st21" d="M101.3,85.8l-2.5-2.5c-0.7-0.7-0.7-1.7,0-2.4c0.7-0.7,1.7-0.7,2.4,0l2.5,2.5c1,1,2.2,1.5,3.6,1.5h29.2
			c0.9,0,1.7,0.8,1.7,1.7s-0.8,1.7-1.7,1.7h-29.2C105,88.3,102.9,87.4,101.3,85.8z"/>
	</g>
	<circle class="st7" cx="144.8" cy="88.3" r="8.4"/>
	<path class="st8" d="M134.8,88.3c0-5.6,4.5-10.1,10.1-10.1c5.6,0,10.1,4.5,10.1,10.1c0,5.6-4.5,10.1-10.1,10.1
		C139.3,98.4,134.8,93.9,134.8,88.3z M138.1,88.3c0,3.7,3,6.7,6.7,6.7s6.7-3,6.7-6.7s-3-6.7-6.7-6.7
		C141.1,81.6,138.1,84.6,138.1,88.3z"/>
	<circle class="st9" cx="144.8" cy="88.3" r="3.4"/>
	<path class="st22" d="M156.6,69.8h-14.7c-1.6,0-15.9,1.7-27.1,3.2l-13.5,1.7c-3.4,0.4-4-0.3-4-0.3c-0.3-0.1-0.6-0.3-0.9-0.5
		L94,72.3c-0.8-0.6-1.8-0.8-2.8-0.8h-6.9c-8.7,0-15.8,6.5-16.7,14.9c8.5-15.4,21.7-10.7,25.7-8.8c0.8,0.4,1.7,0.5,2.6,0.4l64.5-6.5
		C159.5,70.5,158.2,69.8,156.6,69.8z"/>
	<path class="st21" d="M153.3,64.8v-1.7c0-0.9,0.8-1.7,1.7-1.7h7.1c0.6,0,1.1,0.6,0.9,1.2l-0.5,1.5c-0.5,1.4-1.7,2.3-3.2,2.3h-4.3
		C154,66.4,153.3,65.7,153.3,64.8z"/>
</g>
<g>
	<g>
		
			<rect x="49.4" y="165.1" transform="matrix(0.7809 -0.6247 0.6247 0.7809 -95.2885 69.2489)" class="st4" width="3.4" height="10.8"/>
		<path class="st4" d="M83.7,175c-1.1-0.1-1.7-1.4-1.1-2.3l1.3-2.2c0.9-1.5,2.5-2.5,4.3-2.5c0,0,0,0,0,0h8.3c1.6,0,3.1,0.7,4,2
			l5.9,7.9L83.7,175z"/>
		<path class="st4" d="M106,166.8c-0.1-0.1-0.3-0.2-0.5-0.4h-7.4l11.8,13.2l6.7-3.4C116.6,176.3,108.8,169,106,166.8z"/>
	</g>
	<path class="st23" d="M123.3,174.7h-6.9c-1,0-2,0.3-2.8,0.8l-2.4,1.6c-0.3,0.2-0.6,0.3-0.9,0.5l-6.2-8.3c-0.4-0.5,0-1.3,0.6-1.3
		h2.6c-0.5-0.4-1-0.8-1.3-1.1c-1.3-1.1-3.9-2.2-9.6-2.2h-8.3c-3.7,0-7.3,0.9-10.5,2.5L65.8,173H51.1c-2.8,0-5,2.3-5,5v15.1l11.8,3.4
		h82.4v-5C140.2,182.2,132.6,174.7,123.3,174.7z M83.7,175c-1.1-0.1-1.7-1.4-1.1-2.3l1.3-2.2c0.9-1.5,2.5-2.5,4.3-2.5c0,0,0,0,0,0
		h8.3c1.6,0,3.1,0.7,4,2l5.9,7.9L83.7,175z"/>
	<path class="st24" d="M140.2,198.2H64.5c-0.9,0-1.7-0.8-1.7-1.7s0.8-1.7,1.7-1.7h75.6c0.9,0,1.7,0.8,1.7,1.7
		S141.1,198.2,140.2,198.2z"/>
	<circle class="st7" cx="123.3" cy="191.5" r="8.4"/>
	<path class="st8" d="M123.3,201.5c-5.6,0-10.1-4.5-10.1-10.1s4.5-10.1,10.1-10.1s10.1,4.5,10.1,10.1
		C133.4,197,128.9,201.5,123.3,201.5z M123.3,184.7c-3.7,0-6.7,3-6.7,6.7s3,6.7,6.7,6.7c3.7,0,6.7-3,6.7-6.7
		S127.1,184.7,123.3,184.7z"/>
	<circle class="st9" cx="123.3" cy="191.5" r="3.4"/>
	<g>
		<path class="st24" d="M59.5,198.2c-0.1,0-0.3,0-0.4-0.1l-13.4-3.4c-0.9-0.2-1.4-1.1-1.2-2c0.2-0.9,1.1-1.5,2-1.2l13.4,3.4
			c0.9,0.2,1.4,1.1,1.2,2C60.9,197.7,60.2,198.2,59.5,198.2z"/>
		<path class="st24" d="M100.4,191.5H71.2c-0.9,0-1.7-0.8-1.7-1.7c0-0.9,0.8-1.7,1.7-1.7h29.2c1.3,0,2.6-0.5,3.6-1.5l2.5-2.5
			c0.7-0.7,1.7-0.7,2.4,0c0.7,0.7,0.7,1.7,0,2.4l-2.5,2.5C104.7,190.6,102.6,191.5,100.4,191.5z"/>
	</g>
	<circle class="st7" cx="62.8" cy="191.5" r="8.4"/>
	<path class="st8" d="M62.8,201.5c-5.6,0-10.1-4.5-10.1-10.1s4.5-10.1,10.1-10.1s10.1,4.5,10.1,10.1C72.9,197,68.4,201.5,62.8,201.5
		z M62.8,184.7c-3.7,0-6.7,3-6.7,6.7s3,6.7,6.7,6.7c3.7,0,6.7-3,6.7-6.7C69.6,187.8,66.5,184.7,62.8,184.7z"/>
	<circle class="st9" cx="62.8" cy="191.5" r="3.4"/>
	<path class="st25" d="M47.2,174.8l64.5,6.5c0.9,0.1,1.8-0.1,2.6-0.4c3.9-1.9,17.1-6.6,25.7,8.8c-0.9-8.4-8-14.9-16.7-14.9h-6.9
		c-1,0-2,0.3-2.8,0.8l-2.4,1.6c-0.3,0.2-0.6,0.3-0.9,0.5c0,0-0.6,0.7-4,0.3l-13.5-1.7c-11.3-1.4-25.6-3.2-27.1-3.2H51.1
		C49.5,173,48.2,173.7,47.2,174.8z"/>
	<path class="st24" d="M52.7,169.6h-4.3c-1.4,0-2.7-0.9-3.2-2.3l-0.5-1.5c-0.2-0.6,0.3-1.2,0.9-1.2h7.1c0.9,0,1.7,0.8,1.7,1.7v1.7
		C54.4,168.9,53.7,169.6,52.7,169.6z"/>
</g>
<g>
	<g>
		
			<rect x="342" y="285" transform="matrix(0.6247 -0.7809 0.7809 0.6247 -93.4719 378.8346)" class="st4" width="10.8" height="3.4"/>
		<path class="st4" d="M292,294l5.9-7.9c1-1.3,2.4-2,4-2h8.3c0,0,0,0,0,0c1.8,0,3.4,1,4.3,2.5l1.3,2.2c0.6,1,0,2.2-1.1,2.3L292,294z
			"/>
		<path class="st4" d="M281.8,292.5l6.7,3.4l11.8-13.2h-7.4c-0.2,0.1-0.3,0.2-0.5,0.4C289.7,285.2,281.8,292.5,281.8,292.5z"/>
	</g>
	<path class="st26" d="M258.3,307.7v5h82.4l11.8-3.4v-15.1c0-2.8-2.3-5-5-5h-14.7l-11.8-5.9c-3.3-1.6-6.9-2.5-10.5-2.5H302
		c-5.7,0-8.3,1.2-9.6,2.2c-0.4,0.3-0.8,0.7-1.3,1.1h2.6c0.7,0,1,0.8,0.6,1.3l-6.2,8.3c-0.3-0.1-0.6-0.3-0.9-0.5l-2.4-1.6
		c-0.8-0.6-1.8-0.8-2.8-0.8h-6.9C265.8,290.9,258.3,298.4,258.3,307.7z M292,294l5.9-7.9c1-1.3,2.4-2,4-2h8.3c0,0,0,0,0,0
		c1.8,0,3.4,1,4.3,2.5l1.3,2.2c0.6,1,0,2.2-1.1,2.3L292,294z"/>
	<path class="st27" d="M256.6,312.7c0-0.9,0.8-1.7,1.7-1.7h75.6c0.9,0,1.7,0.8,1.7,1.7s-0.8,1.7-1.7,1.7h-75.6
		C257.3,314.4,256.6,313.6,256.6,312.7z"/>
	<circle class="st7" cx="275.1" cy="307.7" r="8.4"/>
	<path class="st8" d="M265,307.7c0-5.6,4.5-10.1,10.1-10.1c5.6,0,10.1,4.5,10.1,10.1s-4.5,10.1-10.1,10.1
		C269.5,317.8,265,313.2,265,307.7z M268.4,307.7c0,3.7,3,6.7,6.7,6.7c3.7,0,6.7-3,6.7-6.7s-3-6.7-6.7-6.7
		C271.4,300.9,268.4,304,268.4,307.7z"/>
	<circle class="st9" cx="275.1" cy="307.7" r="3.4"/>
	<g>
		<path class="st27" d="M337.3,313.1c-0.2-0.9,0.3-1.8,1.2-2l13.4-3.4c0.9-0.2,1.8,0.3,2,1.2c0.2,0.9-0.3,1.8-1.2,2l-13.4,3.4
			c-0.1,0-0.3,0.1-0.4,0.1C338.2,314.4,337.5,313.9,337.3,313.1z"/>
		<path class="st27" d="M292.1,305.2l-2.5-2.5c-0.7-0.7-0.7-1.7,0-2.4c0.7-0.7,1.7-0.7,2.4,0l2.5,2.5c1,1,2.2,1.5,3.6,1.5h29.2
			c0.9,0,1.7,0.8,1.7,1.7c0,0.9-0.8,1.7-1.7,1.7H298C295.8,307.7,293.7,306.8,292.1,305.2z"/>
	</g>
	<circle class="st7" cx="335.6" cy="307.7" r="8.4"/>
	<path class="st8" d="M325.5,307.7c0-5.6,4.5-10.1,10.1-10.1s10.1,4.5,10.1,10.1s-4.5,10.1-10.1,10.1S325.5,313.2,325.5,307.7z
		 M328.9,307.7c0,3.7,3,6.7,6.7,6.7s6.7-3,6.7-6.7s-3-6.7-6.7-6.7S328.9,304,328.9,307.7z"/>
	<circle class="st9" cx="335.6" cy="307.7" r="3.4"/>
	<path class="st28" d="M347.4,289.2h-14.7c-1.6,0-15.9,1.7-27.1,3.2L292,294c-3.4,0.4-4-0.3-4-0.3c-0.3-0.1-0.6-0.3-0.9-0.5
		l-2.4-1.6c-0.8-0.6-1.8-0.8-2.8-0.8h-6.9c-8.7,0-15.8,6.5-16.7,14.9c8.5-15.4,21.7-10.7,25.7-8.8c0.8,0.4,1.7,0.5,2.6,0.4l64.5-6.5
		C350.3,289.9,348.9,289.2,347.4,289.2z"/>
	<path class="st27" d="M344,284.1v-1.7c0-0.9,0.8-1.7,1.7-1.7h7.1c0.6,0,1.1,0.6,0.9,1.2l-0.5,1.5c-0.5,1.4-1.7,2.3-3.2,2.3h-4.3
		C344.8,285.8,344,285.1,344,284.1z"/>
</g>
<g>
	<g>
		
			<rect x="260.3" y="58.6" transform="matrix(0.5962 -0.8028 0.8028 0.5962 58.8881 237.5367)" class="st4" width="10.6" height="3.3"/>
		<path class="st4" d="M211.5,69.4l5.5-8c0.9-1.3,2.3-2.1,3.9-2.1l8.1-0.3c0,0,0,0,0,0c1.7-0.1,3.4,0.9,4.3,2.3l1.4,2.1
			c0.6,0.9,0.1,2.1-1,2.3L211.5,69.4z"/>
		<path class="st4" d="M201.4,68.3l6.7,3.1L219.2,58l-7.3,0.3c-0.2,0.1-0.3,0.2-0.5,0.4C208.8,60.9,201.4,68.3,201.4,68.3z"/>
	</g>
	<path class="st29" d="M178.8,84l0.2,5l81-2.9l11.4-3.7l-0.5-14.9c-0.1-2.7-2.4-4.9-5.1-4.8l-14.5,0.5l-13.5-5.6
		c-3.3-1.5-5.2-2-8.8-1.9l-8.2,0.3c-5.6,0.2-8.1,1.4-9.3,2.5c-0.3,0.3-0.8,0.7-1.3,1.1l2.5-0.1c0.7,0,1.1,0.7,0.7,1.2l-5.8,8.4
		c-0.3-0.1-0.6-0.2-0.9-0.4l-2.4-1.5c-0.8-0.5-1.8-0.8-2.8-0.7l-6.8,0.2C185.6,67.2,178.4,74.9,178.8,84z M211.5,69.4l5.5-8
		c0.9-1.3,2.3-2.1,3.9-2.1l8.1-0.3c0,0,0,0,0,0c1.7-0.1,3.4,0.9,4.3,2.3l1.4,2.1c0.6,0.9,0.1,2.1-1,2.3L211.5,69.4z"/>
	<path class="st30" d="M177.3,89c0-0.9,0.7-1.7,1.6-1.7l74.4-2.7c0.9,0,1.7,0.7,1.7,1.6s-0.7,1.7-1.6,1.7L179,90.6
		C178.1,90.7,177.3,90,177.3,89z"/>
	<circle class="st7" cx="195.3" cy="83.4" r="8.3"/>
	<path class="st8" d="M185.4,83.8c-0.2-5.5,4.1-10.1,9.6-10.3c5.5-0.2,10.1,4.1,10.3,9.6s-4.1,10.1-9.6,10.3
		C190.2,93.5,185.6,89.3,185.4,83.8z M188.7,83.7c0.1,3.6,3.2,6.5,6.8,6.4c3.6-0.1,6.5-3.2,6.4-6.8s-3.2-6.5-6.8-6.4
		C191.4,77,188.5,80,188.7,83.7z"/>
	<circle class="st9" cx="195.3" cy="83.4" r="3.3"/>
	<g>
		<path d="M256.7,86.6c-0.3-0.9,0.3-1.8,1.1-2l13.1-3.8c0.9-0.3,1.8,0.3,2,1.1c0.3,0.9-0.3,1.8-1.1,2l-13.1,3.8
			c-0.1,0-0.3,0.1-0.4,0.1C257.6,87.8,256.9,87.3,256.7,86.6z"/>
		<path d="M211.9,80.4l-2.6-2.4c-0.7-0.6-0.7-1.7-0.1-2.3c0.6-0.7,1.7-0.7,2.3-0.1l2.6,2.4c1,0.9,2.2,1.4,3.6,1.3l28.7-1
			c0.9,0,1.7,0.7,1.7,1.6s-0.7,1.7-1.6,1.7l-28.7,1C215.6,82.7,213.5,81.9,211.9,80.4z"/>
	</g>
	<circle class="st7" cx="254.8" cy="81.3" r="8.3"/>
	<path class="st8" d="M244.8,81.7c-0.2-5.5,4.1-10.1,9.6-10.3c5.5-0.2,10.1,4.1,10.3,9.6c0.2,5.5-4.1,10.1-9.6,10.3
		S245,87.1,244.8,81.7z M248.2,81.5c0.1,3.6,3.2,6.5,6.8,6.4s6.5-3.2,6.4-6.8s-3.2-6.5-6.8-6.4S248,77.9,248.2,81.5z"/>
	<circle class="st9" cx="254.8" cy="81.3" r="3.3"/>
	<path class="st30" d="M265.7,62.7l-14.5,0.5c-1.5,0.1-15.5,2.3-26.6,4.1l-13.2,2.2c-3.3,0.6-3.9-0.1-3.9-0.1
		c-0.3-0.1-0.6-0.2-0.9-0.4l-2.4-1.5c-0.8-0.5-1.8-0.8-2.8-0.7l-6.8,0.2c-8.5,0.3-15.3,7-15.9,15.3c7.8-15.4,21-11.2,24.9-9.6
		c0.8,0.4,1.7,0.5,2.6,0.3l63.2-8.6C268.6,63.3,267.2,62.6,265.7,62.7z"/>
	<path class="st30" d="M262.2,57.9l-0.1-1.7c0-0.9,0.7-1.7,1.6-1.7l7-0.3c0.6,0,1.1,0.6,0.9,1.2l-0.4,1.5c-0.4,1.4-1.6,2.3-3.1,2.4
		l-4.2,0.2C263,59.5,262.2,58.8,262.2,57.9z"/>
</g>
<g>
	<g>
		
			<rect x="225.7" y="283" transform="matrix(0.6247 -0.7809 0.7809 0.6247 -135.5648 287.267)" class="st4" width="10.8" height="3.4"/>
		<path class="st4" d="M175.7,292l5.9-7.9c1-1.3,2.4-2,4-2h8.3c0,0,0,0,0,0c1.8,0,3.4,1,4.3,2.5l1.3,2.2c0.6,1,0,2.2-1.1,2.3
			L175.7,292z"/>
		<path class="st4" d="M165.5,290.5l6.7,3.4l11.8-13.2h-7.4c-0.2,0.1-0.3,0.2-0.5,0.4C173.4,283.2,165.5,290.5,165.5,290.5z"/>
	</g>
	<path class="st31" d="M142,305.7v5h82.4l11.8-3.4v-15.1c0-2.8-2.3-5-5-5h-14.7l-13.5-6.2c-3.3-1.6-5.2-2.3-8.9-2.3h-8.3
		c-5.7,0-8.3,1.2-9.6,2.2c-0.4,0.3-0.8,0.7-1.3,1.1h2.6c0.7,0,1,0.8,0.6,1.3l-6.2,8.3c-0.3-0.1-0.6-0.3-0.9-0.5l-2.4-1.6
		c-0.8-0.6-1.8-0.8-2.8-0.8h-6.9C149.5,288.9,142,296.4,142,305.7z M175.7,292l5.9-7.9c1-1.3,2.4-2,4-2h8.3c0,0,0,0,0,0
		c1.8,0,3.4,1,4.3,2.5l1.3,2.2c0.6,1,0,2.2-1.1,2.3L175.7,292z"/>
	<path class="st32" d="M140.3,310.7c0-0.9,0.8-1.7,1.7-1.7h75.6c0.9,0,1.7,0.8,1.7,1.7c0,0.9-0.8,1.7-1.7,1.7H142
		C141,312.4,140.3,311.6,140.3,310.7z"/>
	<circle class="st7" cx="158.8" cy="305.7" r="8.4"/>
	<path class="st8" d="M148.7,305.7c0-5.6,4.5-10.1,10.1-10.1s10.1,4.5,10.1,10.1s-4.5,10.1-10.1,10.1S148.7,311.2,148.7,305.7z
		 M152.1,305.7c0,3.7,3,6.7,6.7,6.7c3.7,0,6.7-3,6.7-6.7s-3-6.7-6.7-6.7C155.1,298.9,152.1,302,152.1,305.7z"/>
	<circle class="st9" cx="158.8" cy="305.7" r="3.4"/>
	<g>
		<path class="st32" d="M221,311.1c-0.2-0.9,0.3-1.8,1.2-2l13.4-3.4c0.9-0.2,1.8,0.3,2,1.2c0.2,0.9-0.3,1.8-1.2,2l-13.4,3.4
			c-0.1,0-0.3,0.1-0.4,0.1C221.9,312.4,221.2,311.9,221,311.1z"/>
		<path class="st32" d="M175.8,303.2l-2.5-2.5c-0.7-0.7-0.7-1.7,0-2.4c0.7-0.7,1.7-0.7,2.4,0l2.5,2.5c1,1,2.2,1.5,3.6,1.5h29.2
			c0.9,0,1.7,0.8,1.7,1.7s-0.8,1.7-1.7,1.7h-29.2C179.5,305.7,177.4,304.8,175.8,303.2z"/>
	</g>
	<circle class="st7" cx="219.3" cy="305.7" r="8.4"/>
	<path class="st8" d="M209.2,305.7c0-5.6,4.5-10.1,10.1-10.1c5.6,0,10.1,4.5,10.1,10.1s-4.5,10.1-10.1,10.1
		C213.7,315.8,209.2,311.2,209.2,305.7z M212.6,305.7c0,3.7,3,6.7,6.7,6.7s6.7-3,6.7-6.7s-3-6.7-6.7-6.7
		C215.6,298.9,212.6,302,212.6,305.7z"/>
	<circle class="st9" cx="219.3" cy="305.7" r="3.4"/>
	<path class="st33" d="M231.1,287.2h-14.7c-1.6,0-15.9,1.7-27.1,3.2l-13.5,1.7c-3.4,0.4-4-0.3-4-0.3c-0.3-0.1-0.6-0.3-0.9-0.5
		l-2.4-1.6c-0.8-0.6-1.8-0.8-2.8-0.8h-6.9c-8.7,0-15.8,6.5-16.7,14.9c8.5-15.4,21.7-10.7,25.7-8.8c0.8,0.4,1.7,0.5,2.6,0.4l64.5-6.5
		C234,287.9,232.6,287.2,231.1,287.2z"/>
	<path class="st33" d="M227.7,282.1v-1.7c0-0.9,0.8-1.7,1.7-1.7h7.1c0.6,0,1.1,0.6,0.9,1.2l-0.5,1.5c-0.5,1.4-1.7,2.3-3.2,2.3h-4.3
		C228.4,283.8,227.7,283.1,227.7,282.1z"/>
</g>
</svg>
