<?xml version="1.0" encoding="utf-8"?>
<!-- Generator: Adobe Illustrator 22.0.1, SVG Export Plug-In . SVG Version: 6.00 Build 0)  -->
<svg version="1.1" id="Layer_1" xmlns="http://www.w3.org/2000/svg" xmlns:xlink="http://www.w3.org/1999/xlink" x="0px" y="0px"
	 viewBox="0 0 40 40" style="enable-background:new 0 0 40 40;" xml:space="preserve">
<style type="text/css">
	.st0{fill:#637BA1;stroke:#637BA1;stroke-width:3;stroke-linecap:round;stroke-linejoin:round;stroke-miterlimit:10;}
	.st1{fill:#C7CFE2;}
	.st2{fill:#FFCC33;}
	.st3{fill:#FFB333;}
	.st4{fill:#D7DEED;}
	.st5{fill:#464655;}
	.st6{fill:#B8BFD4;}
	.st7{fill:#FFE133;}
	.st8{fill:#3399FF;}
	.st9{fill:#0066CC;}
	.st10{fill:#66CCFF;}
</style>
<g>
	<g>
		<rect x="34" y="14.6" transform="matrix(0.6247 -0.7809 0.7809 0.6247 1.6254 33.8492)" class="st0" width="4.1" height="1.3"/>
		<path class="st0" d="M15,18l2.2-3c0.4-0.5,0.9-0.8,1.5-0.8h3.2l0,0c0.7,0,1.3,0.4,1.6,0.9L24,16c0.2,0.4,0,0.8-0.4,0.9L15,18z"/>
		<path class="st0" d="M11.1,17.5l2.5,1.3l4.5-5h-2.8c-0.1,0-0.1,0.1-0.2,0.2C14.1,14.7,11.1,17.5,11.1,17.5z"/>
	</g>
	<path class="st0" d="M2.2,23.2v1.9h31.3l4.5-1.3v-5.7c0-1.1-0.9-1.9-1.9-1.9h-5.6l-4.5-2.2c-1.3-0.6-2.6-0.9-4-0.9h-3.2
		c-2.2,0-3.2,0.5-3.6,0.8c-0.2,0.1-0.3,0.3-0.5,0.4h0.9c0.3,0,0.4,0.3,0.2,0.5l-2.4,3.2c-0.1,0-0.2-0.1-0.3-0.2l-0.9-0.6
		c-0.3-0.2-0.7-0.3-1.1-0.3H8.5C5,16.8,2.2,19.7,2.2,23.2z M15,18l2.2-3c0.4-0.5,0.9-0.8,1.5-0.8h3.2l0,0c0.7,0,1.3,0.4,1.6,0.9
		L24,16c0.2,0.4,0,0.8-0.4,0.9L15,18z"/>
	<path class="st0" d="M1.5,25.1c0-0.3,0.3-0.6,0.6-0.6h28.7c0.3,0,0.6,0.3,0.6,0.6c0,0.3-0.3,0.6-0.6,0.6H2.2
		C1.8,25.8,1.5,25.5,1.5,25.1z"/>
	<circle class="st0" cx="8.5" cy="23.2" r="3.2"/>
	<path class="st0" d="M4.7,23.2c0-2.1,1.7-3.8,3.8-3.8s3.8,1.7,3.8,3.8S10.7,27,8.5,27S4.7,25.3,4.7,23.2z M6,23.2
		c0,1.4,1.1,2.5,2.5,2.5s2.5-1.1,2.5-2.5c0-1.4-1.1-2.5-2.5-2.5S6,21.8,6,23.2z"/>
	<circle class="st0" cx="8.5" cy="23.2" r="1.3"/>
	<g>
		<path class="st0" d="M32.2,25.3c-0.1-0.3,0.1-0.7,0.5-0.8l5.1-1.3c0.3-0.1,0.7,0.1,0.8,0.5c0.1,0.3-0.1,0.7-0.5,0.8l-5.1,1.3
			c0,0-0.1,0-0.2,0C32.5,25.8,32.2,25.6,32.2,25.3z"/>
		<path class="st0" d="M15,22.3L14,21.3c-0.3-0.3-0.3-0.6,0-0.9c0.3-0.3,0.6-0.3,0.9,0l0.9,0.9c0.4,0.4,0.8,0.6,1.4,0.6h11.1
			c0.3,0,0.6,0.3,0.6,0.6c0,0.3-0.3,0.6-0.6,0.6H17.2C16.4,23.2,15.6,22.9,15,22.3z"/>
	</g>
	<circle class="st0" cx="31.5" cy="23.2" r="3.2"/>
	<path class="st0" d="M27.7,23.2c0-2.1,1.7-3.8,3.8-3.8s3.8,1.7,3.8,3.8S33.7,27,31.5,27C29.4,27,27.7,25.3,27.7,23.2z M29,23.2
		c0,1.4,1.1,2.5,2.5,2.5c1.4,0,2.5-1.1,2.5-2.5c0-1.4-1.1-2.5-2.5-2.5C30.1,20.6,29,21.8,29,23.2z"/>
	<circle class="st0" cx="31.5" cy="23.2" r="1.3"/>
	<path class="st0" d="M36,16.2h-5.6c-0.6,0-6,0.6-10.3,1.2L15,18.1c-1.3,0.2-1.5-0.1-1.5-0.1c-0.1,0-0.2-0.1-0.3-0.2l-0.9-0.6
		c-0.3-0.2-0.7-0.3-1.1-0.3H8.5c-3.3,0-6,2.5-6.3,5.7c3.2-5.9,8.2-4.1,9.8-3.3c0.3,0.2,0.6,0.2,1,0.2l24.5-2.5
		C37.1,16.5,36.6,16.2,36,16.2z"/>
	<path class="st0" d="M34.7,14.3v-0.6c0-0.3,0.3-0.6,0.6-0.6h2.7c0.2,0,0.4,0.2,0.3,0.5L38.2,14c-0.2,0.5-0.6,0.9-1.2,0.9h-1.6
		C35,14.9,34.7,14.6,34.7,14.3z"/>
</g>
<g>
	<g>
		<rect x="34" y="14.6" transform="matrix(0.6247 -0.7809 0.7809 0.6247 1.6254 33.8492)" class="st1" width="4.1" height="1.3"/>
		<path class="st1" d="M15,18l2.2-3c0.4-0.5,0.9-0.8,1.5-0.8h3.2l0,0c0.7,0,1.3,0.4,1.6,0.9L24,16c0.2,0.4,0,0.8-0.4,0.9L15,18z"/>
		<path class="st1" d="M11.1,17.5l2.5,1.3l4.5-5h-2.8c-0.1,0-0.1,0.1-0.2,0.2C14.1,14.7,11.1,17.5,11.1,17.5z"/>
	</g>
	<path class="st2" d="M2.2,23.2v1.9h31.3l4.5-1.3v-5.7c0-1.1-0.9-1.9-1.9-1.9h-5.6l-4.5-2.2c-1.3-0.6-2.6-0.9-4-0.9h-3.2
		c-2.2,0-3.2,0.5-3.6,0.8c-0.2,0.1-0.3,0.3-0.5,0.4h0.9c0.3,0,0.4,0.3,0.2,0.5l-2.4,3.2c-0.1,0-0.2-0.1-0.3-0.2l-0.9-0.6
		c-0.3-0.2-0.7-0.3-1.1-0.3H8.5C5,16.8,2.2,19.7,2.2,23.2z M15,18l2.2-3c0.4-0.5,0.9-0.8,1.5-0.8h3.2l0,0c0.7,0,1.3,0.4,1.6,0.9
		L24,16c0.2,0.4,0,0.8-0.4,0.9L15,18z"/>
	<path class="st3" d="M1.5,25.1c0-0.3,0.3-0.6,0.6-0.6h28.7c0.3,0,0.6,0.3,0.6,0.6c0,0.3-0.3,0.6-0.6,0.6H2.2
		C1.8,25.8,1.5,25.5,1.5,25.1z"/>
	<circle class="st4" cx="8.5" cy="23.2" r="3.2"/>
	<path class="st5" d="M4.7,23.2c0-2.1,1.7-3.8,3.8-3.8s3.8,1.7,3.8,3.8S10.7,27,8.5,27S4.7,25.3,4.7,23.2z M6,23.2
		c0,1.4,1.1,2.5,2.5,2.5s2.5-1.1,2.5-2.5c0-1.4-1.1-2.5-2.5-2.5S6,21.8,6,23.2z"/>
	<circle class="st6" cx="8.5" cy="23.2" r="1.3"/>
	<g>
		<path class="st3" d="M32.2,25.3c-0.1-0.3,0.1-0.7,0.5-0.8l5.1-1.3c0.3-0.1,0.7,0.1,0.8,0.5c0.1,0.3-0.1,0.7-0.5,0.8l-5.1,1.3
			c0,0-0.1,0-0.2,0C32.5,25.8,32.2,25.6,32.2,25.3z"/>
		<path class="st3" d="M15,22.3L14,21.3c-0.3-0.3-0.3-0.6,0-0.9c0.3-0.3,0.6-0.3,0.9,0l0.9,0.9c0.4,0.4,0.8,0.6,1.4,0.6h11.1
			c0.3,0,0.6,0.3,0.6,0.6c0,0.3-0.3,0.6-0.6,0.6H17.2C16.4,23.2,15.6,22.9,15,22.3z"/>
	</g>
	<circle class="st4" cx="31.5" cy="23.2" r="3.2"/>
	<path class="st5" d="M27.7,23.2c0-2.1,1.7-3.8,3.8-3.8s3.8,1.7,3.8,3.8S33.7,27,31.5,27C29.4,27,27.7,25.3,27.7,23.2z M29,23.2
		c0,1.4,1.1,2.5,2.5,2.5c1.4,0,2.5-1.1,2.5-2.5c0-1.4-1.1-2.5-2.5-2.5C30.1,20.6,29,21.8,29,23.2z"/>
	<circle class="st6" cx="31.5" cy="23.2" r="1.3"/>
	<path class="st7" d="M36,16.2h-5.6c-0.6,0-6,0.6-10.3,1.2L15,18.1c-1.3,0.2-1.5-0.1-1.5-0.1c-0.1,0-0.2-0.1-0.3-0.2l-0.9-0.6
		c-0.3-0.2-0.7-0.3-1.1-0.3H8.5c-3.3,0-6,2.5-6.3,5.7c3.2-5.9,8.2-4.1,9.8-3.3c0.3,0.2,0.6,0.2,1,0.2l24.5-2.5
		C37.1,16.5,36.6,16.2,36,16.2z"/>
	<path class="st3" d="M34.7,14.3v-0.6c0-0.3,0.3-0.6,0.6-0.6h2.7c0.2,0,0.4,0.2,0.3,0.5L38.2,14c-0.2,0.5-0.6,0.9-1.2,0.9h-1.6
		C35,14.9,34.7,14.6,34.7,14.3z"/>
</g>
<g>
	<g>
		
			<rect x="37.4" y="-193.5" transform="matrix(0.6247 -0.7809 0.7809 0.6247 165.816 -38.5107)" class="st1" width="10.8" height="3.4"/>
		<path class="st1" d="M-12.6-184.4l5.9-7.9c1-1.3,2.4-2,4-2h8.3l0,0c1.8,0,3.4,1,4.3,2.5l1.3,2.2c0.6,1,0,2.2-1.1,2.3L-12.6-184.4z
			"/>
		<path class="st1" d="M-22.8-185.9l6.7,3.4l11.8-13.2h-7.4c-0.2,0.1-0.3,0.2-0.5,0.4C-14.9-193.2-22.8-185.9-22.8-185.9z"/>
	</g>
	<path class="st8" d="M-46.3-170.8v5H36l11.8-3.4v-15c0-2.8-2.3-5-5-5H28l-11.8-5.9c-3.3-1.6-6.9-2.5-10.5-2.5h-8.3
		c-5.7,0-8.3,1.2-9.6,2.2c-0.4,0.3-0.8,0.7-1.3,1.1h2.6c0.7,0,1,0.8,0.6,1.3l-6.2,8.3c-0.3-0.1-0.6-0.3-0.9-0.5l-2.4-1.6
		c-0.8-0.6-1.8-0.8-2.8-0.8h-6.9C-38.8-187.6-46.3-180-46.3-170.8z M-12.6-184.4l5.9-7.9c1-1.3,2.4-2,4-2h8.3l0,0
		c1.8,0,3.4,1,4.3,2.5l1.3,2.2c0.6,1,0,2.2-1.1,2.3L-12.6-184.4z"/>
	<path class="st9" d="M-48-165.7c0-0.9,0.8-1.7,1.7-1.7h75.6c0.9,0,1.7,0.8,1.7,1.7c0,0.9-0.8,1.7-1.7,1.7h-75.6
		C-47.2-164-48-164.8-48-165.7z"/>
	<circle class="st4" cx="-29.5" cy="-170.8" r="8.4"/>
	<path class="st5" d="M-39.6-170.8c0-5.6,4.5-10.1,10.1-10.1s10.1,4.5,10.1,10.1s-4.5,10.1-10.1,10.1S-39.6-165.2-39.6-170.8z
		 M-36.2-170.8c0,3.7,3,6.7,6.7,6.7s6.7-3,6.7-6.7s-3-6.7-6.7-6.7S-36.2-174.5-36.2-170.8z"/>
	<circle class="st6" cx="-29.5" cy="-170.8" r="3.4"/>
	<g>
		<path class="st9" d="M32.7-165.3c-0.2-0.9,0.3-1.8,1.2-2l13.4-3.4c0.9-0.2,1.8,0.3,2,1.2s-0.3,1.8-1.2,2l-13.4,3.4
			c-0.1,0-0.3,0.1-0.4,0.1C33.6-164,32.9-164.5,32.7-165.3z"/>
		<path class="st9" d="M-12.5-173.2l-2.5-2.5c-0.7-0.7-0.7-1.7,0-2.4c0.7-0.7,1.7-0.7,2.4,0l2.5,2.5c1,1,2.2,1.5,3.6,1.5h29.2
			c0.9,0,1.7,0.8,1.7,1.7s-0.8,1.7-1.7,1.7H-6.5C-8.8-170.8-10.9-171.6-12.5-173.2z"/>
	</g>
	<circle class="st4" cx="31" cy="-170.8" r="8.4"/>
	<path class="st5" d="M20.9-170.8c0-5.6,4.5-10.1,10.1-10.1s10.1,4.5,10.1,10.1s-4.5,10.1-10.1,10.1S20.9-165.2,20.9-170.8z
		 M24.3-170.8c0,3.7,3,6.7,6.7,6.7s6.7-3,6.7-6.7s-3-6.7-6.7-6.7S24.3-174.5,24.3-170.8z"/>
	<circle class="st6" cx="31" cy="-170.8" r="3.4"/>
	<path class="st10" d="M42.8-189.2H28c-1.6,0-15.9,1.7-27.1,3.2l-13.5,1.7c-3.4,0.4-4-0.3-4-0.3c-0.3-0.1-0.6-0.3-0.9-0.5l-2.4-1.6
		c-0.8-0.6-1.8-0.8-2.8-0.8h-6.9c-8.7,0-15.8,6.5-16.7,14.9c8.5-15.4,21.7-10.7,25.7-8.8c0.8,0.4,1.7,0.5,2.6,0.4l64.5-6.5
		C45.7-188.5,44.3-189.2,42.8-189.2z"/>
	<path class="st8" d="M39.4-194.3v-1.7c0-0.9,0.8-1.7,1.7-1.7h7.1c0.6,0,1.1,0.6,0.9,1.2l-0.5,1.5c-0.5,1.4-1.7,2.3-3.2,2.3h-4.3
		C40.2-192.6,39.4-193.4,39.4-194.3z"/>
</g>
</svg>
