<?xml version="1.0" encoding="utf-8"?>
<!-- Generator: Adobe Illustrator 22.0.1, SVG Export Plug-In . SVG Version: 6.00 Build 0)  -->
<svg version="1.1" id="Layer_1" xmlns="http://www.w3.org/2000/svg" xmlns:xlink="http://www.w3.org/1999/xlink" x="0px" y="0px"
	 viewBox="0 0 40 40" style="enable-background:new 0 0 40 40;" xml:space="preserve">
<style type="text/css">
	.st0{fill:#637BA1;stroke:#637BA1;stroke-width:3;stroke-linecap:round;stroke-linejoin:round;stroke-miterlimit:10;}
	.st1{fill:#C7CFE2;}
	.st2{fill:#E21717;}
	.st3{fill:#AF0505;}
	.st4{fill:#D7DEED;}
	.st5{fill:#464655;}
	.st6{fill:#B8BFD4;}
	.st7{fill:#F73434;}
</style>
<g>
	<g>
		<rect x="34" y="14.6" transform="matrix(0.6247 -0.7809 0.7809 0.6247 1.6254 33.8492)" class="st0" width="4.1" height="1.3"/>
		<path class="st0" d="M15,18l2.2-3c0.4-0.5,0.9-0.8,1.5-0.8h3.2l0,0c0.7,0,1.3,0.4,1.6,0.9L24,16c0.2,0.4,0,0.8-0.4,0.9L15,18z"/>
		<path class="st0" d="M11.1,17.5l2.5,1.3l4.5-5h-2.8c-0.1,0-0.1,0.1-0.2,0.2C14.1,14.7,11.1,17.5,11.1,17.5z"/>
	</g>
	<path class="st0" d="M2.2,23.2v1.9h31.3l4.5-1.3v-5.7c0-1.1-0.9-1.9-1.9-1.9h-5.6l-4.5-2.2c-1.3-0.6-2.6-0.9-4-0.9h-3.2
		c-2.2,0-3.2,0.5-3.6,0.8c-0.2,0.1-0.3,0.3-0.5,0.4h0.9c0.3,0,0.4,0.3,0.2,0.5l-2.4,3.2c-0.1,0-0.2-0.1-0.3-0.2l-0.9-0.6
		c-0.3-0.2-0.7-0.3-1.1-0.3H8.5C5,16.8,2.2,19.7,2.2,23.2z M15,18l2.2-3c0.4-0.5,0.9-0.8,1.5-0.8h3.2l0,0c0.7,0,1.3,0.4,1.6,0.9
		L24,16c0.2,0.4,0,0.8-0.4,0.9L15,18z"/>
	<path class="st0" d="M1.5,25.1c0-0.3,0.3-0.6,0.6-0.6h28.7c0.3,0,0.6,0.3,0.6,0.6c0,0.3-0.3,0.6-0.6,0.6H2.2
		C1.8,25.8,1.5,25.5,1.5,25.1z"/>
	<circle class="st0" cx="8.5" cy="23.2" r="3.2"/>
	<path class="st0" d="M4.7,23.2c0-2.1,1.7-3.8,3.8-3.8s3.8,1.7,3.8,3.8S10.7,27,8.5,27S4.7,25.3,4.7,23.2z M6,23.2
		c0,1.4,1.1,2.5,2.5,2.5s2.5-1.1,2.5-2.5c0-1.4-1.1-2.5-2.5-2.5S6,21.8,6,23.2z"/>
	<circle class="st0" cx="8.5" cy="23.2" r="1.3"/>
	<g>
		<path class="st0" d="M32.2,25.3c-0.1-0.3,0.1-0.7,0.5-0.8l5.1-1.3c0.3-0.1,0.7,0.1,0.8,0.5c0.1,0.3-0.1,0.7-0.5,0.8l-5.1,1.3
			c0,0-0.1,0-0.2,0C32.5,25.8,32.2,25.6,32.2,25.3z"/>
		<path class="st0" d="M15,22.3L14,21.3c-0.3-0.3-0.3-0.6,0-0.9c0.3-0.3,0.6-0.3,0.9,0l0.9,0.9c0.4,0.4,0.8,0.6,1.4,0.6h11.1
			c0.3,0,0.6,0.3,0.6,0.6c0,0.3-0.3,0.6-0.6,0.6H17.2C16.4,23.2,15.6,22.9,15,22.3z"/>
	</g>
	<circle class="st0" cx="31.5" cy="23.2" r="3.2"/>
	<path class="st0" d="M27.7,23.2c0-2.1,1.7-3.8,3.8-3.8s3.8,1.7,3.8,3.8S33.7,27,31.5,27C29.4,27,27.7,25.3,27.7,23.2z M29,23.2
		c0,1.4,1.1,2.5,2.5,2.5c1.4,0,2.5-1.1,2.5-2.5c0-1.4-1.1-2.5-2.5-2.5C30.1,20.6,29,21.8,29,23.2z"/>
	<circle class="st0" cx="31.5" cy="23.2" r="1.3"/>
	<path class="st0" d="M36,16.2h-5.6c-0.6,0-6,0.6-10.3,1.2L15,18.1c-1.3,0.2-1.5-0.1-1.5-0.1c-0.1,0-0.2-0.1-0.3-0.2l-0.9-0.6
		c-0.3-0.2-0.7-0.3-1.1-0.3H8.5c-3.3,0-6,2.5-6.3,5.7c3.2-5.9,8.2-4.1,9.8-3.3c0.3,0.2,0.6,0.2,1,0.2l24.5-2.5
		C37.1,16.5,36.6,16.2,36,16.2z"/>
	<path class="st0" d="M34.7,14.3v-0.6c0-0.3,0.3-0.6,0.6-0.6h2.7c0.2,0,0.4,0.2,0.3,0.5L38.2,14c-0.2,0.5-0.6,0.9-1.2,0.9h-1.6
		C35,14.9,34.7,14.6,34.7,14.3z"/>
</g>
<g>
	<g>
		<rect x="34" y="14.6" transform="matrix(0.6247 -0.7809 0.7809 0.6247 1.6254 33.8492)" class="st1" width="4.1" height="1.3"/>
		<path class="st1" d="M15,18l2.2-3c0.4-0.5,0.9-0.8,1.5-0.8h3.2l0,0c0.7,0,1.3,0.4,1.6,0.9L24,16c0.2,0.4,0,0.8-0.4,0.9L15,18z"/>
		<path class="st1" d="M11.1,17.5l2.5,1.3l4.5-5h-2.8c-0.1,0-0.1,0.1-0.2,0.2C14.1,14.7,11.1,17.5,11.1,17.5z"/>
	</g>
	<path class="st2" d="M2.2,23.2v1.9h31.3l4.5-1.3v-5.7c0-1.1-0.9-1.9-1.9-1.9h-5.6l-4.5-2.2c-1.3-0.6-2.6-0.9-4-0.9h-3.2
		c-2.2,0-3.2,0.5-3.6,0.8c-0.2,0.1-0.3,0.3-0.5,0.4h0.9c0.3,0,0.4,0.3,0.2,0.5l-2.4,3.2c-0.1,0-0.2-0.1-0.3-0.2l-0.9-0.6
		c-0.3-0.2-0.7-0.3-1.1-0.3H8.5C5,16.8,2.2,19.7,2.2,23.2z M15,18l2.2-3c0.4-0.5,0.9-0.8,1.5-0.8h3.2l0,0c0.7,0,1.3,0.4,1.6,0.9
		L24,16c0.2,0.4,0,0.8-0.4,0.9L15,18z"/>
	<path class="st3" d="M1.5,25.1c0-0.3,0.3-0.6,0.6-0.6h28.7c0.3,0,0.6,0.3,0.6,0.6c0,0.3-0.3,0.6-0.6,0.6H2.2
		C1.8,25.8,1.5,25.5,1.5,25.1z"/>
	<circle class="st4" cx="8.5" cy="23.2" r="3.2"/>
	<path class="st5" d="M4.7,23.2c0-2.1,1.7-3.8,3.8-3.8s3.8,1.7,3.8,3.8S10.7,27,8.5,27S4.7,25.3,4.7,23.2z M6,23.2
		c0,1.4,1.1,2.5,2.5,2.5s2.5-1.1,2.5-2.5c0-1.4-1.1-2.5-2.5-2.5S6,21.8,6,23.2z"/>
	<circle class="st6" cx="8.5" cy="23.2" r="1.3"/>
	<g>
		<path class="st3" d="M32.2,25.3c-0.1-0.3,0.1-0.7,0.5-0.8l5.1-1.3c0.3-0.1,0.7,0.1,0.8,0.5c0.1,0.3-0.1,0.7-0.5,0.8l-5.1,1.3
			c0,0-0.1,0-0.2,0C32.5,25.8,32.2,25.6,32.2,25.3z"/>
		<path class="st3" d="M15,22.3L14,21.3c-0.3-0.3-0.3-0.6,0-0.9c0.3-0.3,0.6-0.3,0.9,0l0.9,0.9c0.4,0.4,0.8,0.6,1.4,0.6h11.1
			c0.3,0,0.6,0.3,0.6,0.6c0,0.3-0.3,0.6-0.6,0.6H17.2C16.4,23.2,15.6,22.9,15,22.3z"/>
	</g>
	<circle class="st4" cx="31.5" cy="23.2" r="3.2"/>
	<path class="st5" d="M27.7,23.2c0-2.1,1.7-3.8,3.8-3.8s3.8,1.7,3.8,3.8S33.7,27,31.5,27C29.4,27,27.7,25.3,27.7,23.2z M29,23.2
		c0,1.4,1.1,2.5,2.5,2.5c1.4,0,2.5-1.1,2.5-2.5c0-1.4-1.1-2.5-2.5-2.5C30.1,20.6,29,21.8,29,23.2z"/>
	<circle class="st6" cx="31.5" cy="23.2" r="1.3"/>
	<path class="st7" d="M36,16.2h-5.6c-0.6,0-6,0.6-10.3,1.2L15,18.1c-1.3,0.2-1.5-0.1-1.5-0.1c-0.1,0-0.2-0.1-0.3-0.2l-0.9-0.6
		c-0.3-0.2-0.7-0.3-1.1-0.3H8.5c-3.3,0-6,2.5-6.3,5.7c3.2-5.9,8.2-4.1,9.8-3.3c0.3,0.2,0.6,0.2,1,0.2l24.5-2.5
		C37.1,16.5,36.6,16.2,36,16.2z"/>
	<path class="st3" d="M34.7,14.3v-0.6c0-0.3,0.3-0.6,0.6-0.6h2.7c0.2,0,0.4,0.2,0.3,0.5L38.2,14c-0.2,0.5-0.6,0.9-1.2,0.9h-1.6
		C35,14.9,34.7,14.6,34.7,14.3z"/>
</g>
</svg>
