<?xml version="1.0" encoding="utf-8"?>
<!-- Generator: Adobe Illustrator 22.0.1, SVG Export Plug-In . SVG Version: 6.00 Build 0)  -->
<svg version="1.0" id="Layer_1" xmlns="http://www.w3.org/2000/svg" xmlns:xlink="http://www.w3.org/1999/xlink" x="0px" y="0px"
	 viewBox="0 0 637 69" style="enable-background:new 0 0 637 69;" xml:space="preserve">
<style type="text/css">
	.st0{fill:#EF6B6D;}
	.st1{display:none;}
	.st2{display:inline;}
	.st3{fill:#3EBEBE;}
	.st4{fill:none;stroke:#147B76;stroke-width:1.9578;stroke-linecap:round;stroke-linejoin:round;stroke-miterlimit:10;}
	.st5{fill:#FEC953;}
	.st6{fill:#F9DB39;stroke:#FFFFFF;stroke-width:1.9578;stroke-linecap:square;stroke-linejoin:bevel;stroke-miterlimit:10;}
	.st7{fill:#2F0026;}
</style>
<g>
	<polyline class="st0" points="457.4,69 587,69 587,45.3 587,22.6 587,0 457.4,0 455.9,0 455.5,0 324.5,0 324,0 324,22.6 324,45.3 
		324,69 455,69 	"/>
</g>
<g id="Layer_1_1_">
</g>
<g id="Layer_5">
</g>
<g id="Layer_6">
</g>
<g id="Layer_4" class="st1">
	<g class="st2">
		<polyline class="st3" points="48.2,-34 221.2,-137.5 392.9,-34 48.2,-34 		"/>
		<g>
			<g>
				<g>
					<path class="st4" d="M186.4-66.8c0,10.4,3.8,18.8,8.4,18.8"/>
					<path class="st4" d="M211.7-48"/>
					<path class="st4" d="M169.5-66.8c0,10.4,3.8,18.8,8.4,18.8s8.4-8.4,8.4-18.8"/>
					<path class="st4" d="M152.6-66.8c0,10.4,3.8,18.8,8.4,18.8c4.7,0,8.4-8.4,8.4-18.8"/>
					<path class="st4" d="M144.2-48c4.7,0,8.4-8.4,8.4-18.8"/>
				</g>
			</g>
			<g>
				<g>
					<path class="st4" d="M237-66.8c0,10.4,3.8,18.8,8.4,18.8"/>
					<path class="st4" d="M262.3-48"/>
					<path class="st4" d="M220.1-66.8c0,10.4,3.8,18.8,8.4,18.8s8.4-8.4,8.4-18.8"/>
					<path class="st4" d="M203.2-66.8c0,10.4,3.8,18.8,8.4,18.8s8.4-8.4,8.4-18.8"/>
					<path class="st4" d="M194.8-48c4.7,0,8.4-8.4,8.4-18.8"/>
				</g>
			</g>
			<g>
				<g>
					<path class="st4" d="M287.6-66.8c0,10.4,3.8,18.8,8.4,18.8"/>
					<path class="st4" d="M270.7-66.8c0,10.4,3.8,18.8,8.4,18.8s8.4-8.4,8.4-18.8"/>
					<path class="st4" d="M253.8-66.8c0,10.4,3.8,18.8,8.4,18.8s8.4-8.4,8.4-18.8"/>
					<path class="st4" d="M245.4-48c4.7,0,8.4-8.4,8.4-18.8"/>
				</g>
			</g>
		</g>
		<g>
			<g>
				<g>
					<path class="st4" d="M194.8-81.6"/>
					<path class="st4" d="M211.7-81.6"/>
				</g>
			</g>
			<g>
				<g>
					<path class="st4" d="M237-100.5c0,10.4,3.8,18.8,8.4,18.8"/>
					<path class="st4" d="M220.1-100.5c0,10.4,3.8,18.8,8.4,18.8s8.5-8.3,8.5-18.8"/>
					<path class="st4" d="M203.2-100.5c0,10.4,3.8,18.8,8.4,18.8s8.4-8.4,8.4-18.8"/>
					<path class="st4" d="M194.8-81.6c4.7,0,8.4-8.4,8.4-18.8"/>
				</g>
			</g>
			<g>
				<g>
					<path class="st4" d="M245.4-81.6"/>
				</g>
			</g>
		</g>
		<polygon class="st5" points="341.6,-120.7 345.9,-111.9 355.7,-110.5 348.6,-103.6 350.3,-93.9 341.6,-98.5 332.9,-93.9 
			334.5,-103.6 327.5,-110.5 337.2,-111.9 		"/>
		<polygon class="st5" points="91.1,-102.7 92.8,-99.2 96.7,-98.6 93.9,-95.9 94.5,-92 91.1,-93.8 87.6,-92 88.2,-95.9 85.4,-98.6 
			89.3,-99.2 		"/>
		<polygon class="st5" points="542.2,-98.8 543.9,-95.3 547.8,-94.8 545,-92 545.7,-88.1 542.2,-90 538.7,-88.1 539.4,-92 
			536.6,-94.8 540.4,-95.3 		"/>
		<polygon class="st5" points="50.3,-140.7 54.7,-131.9 64.4,-130.5 57.4,-123.6 59,-113.9 50.3,-118.5 41.6,-113.9 43.3,-123.6 
			36.2,-130.5 46,-131.9 		"/>
		<path class="st6" d="M411.4-140.8c-9.7-0.7-18.9,1.6-26.7,6.1c19.3,6.5,32.6,25.4,31.1,46.7c-1.2,16.7-11.2,30.8-25.1,37.8
			c4.4,1.8,9.2,2.9,14.2,3.2c25.9,1.8,48.4-17.8,50.2-43.7C456.9-116.5,437.4-139,411.4-140.8z"/>
		<polyline class="st0" points="222.5,-34 352.1,-34 352.1,-22.3 352.1,-11.2 352.1,0 222.5,0 221,0 220.6,0 89.6,0 89.1,0 
			89.1,-11.2 89.1,-22.3 89.1,-34 220.1,-34 		"/>
	</g>
</g>
<g id="Layer_3">
</g>
<path class="st7" d="M456.3,9.3c-6.7,0-12.1,6.2-12.1,13.8v38.2h24.2V23.1C468.4,15.5,463,9.3,456.3,9.3z"/>
<g>
	<rect y="56" width="637" height="13"/>
</g>
</svg>
