<?xml version="1.0" encoding="utf-8"?>
<!-- Generator: Adobe Illustrator 22.0.1, SVG Export Plug-In . SVG Version: 6.00 Build 0)  -->
<svg version="1.0" id="Layer_1" xmlns="http://www.w3.org/2000/svg" xmlns:xlink="http://www.w3.org/1999/xlink" x="0px" y="0px"
	 viewBox="0 0 187.3 243.3" style="enable-background:new 0 0 187.3 243.3;" xml:space="preserve">
<style type="text/css">
	.st0{fill:#00CDC8;}
	.st1{fill:#FADC3C;}
	.st2{fill:#F24044;}
	.st3{fill:#490A3D;}
	.st4{fill:#FC6A6C;stroke:#490A3C;stroke-miterlimit:10;}
	.st5{fill:none;stroke:#FFFFFF;stroke-width:4.3349;stroke-miterlimit:10;}
</style>
<g>
	<rect x="1.9" y="2.1" class="st0" width="183.5" height="239.1"/>
	<rect x="1.9" y="197.6" class="st1" width="183.5" height="43.6"/>
	<g>
		<g>
			<path class="st2" d="M114.7,115.7H71.2c-1.8,0-3.2-1.4-3.2-3.2V88.4c0-1.8,1.4-3.2,3.2-3.2h43.6c1.8,0,3.2,1.4,3.2,3.2v24.2
				C117.9,114.3,116.5,115.7,114.7,115.7z"/>
		</g>
		<g>
			<rect x="86.9" y="115.7" class="st3" width="12.1" height="3.3"/>
		</g>
		<path class="st4" d="M105.7,104.7H80.2c-1.8,0-3.4-1.5-3.4-3.4v-7.7c0-1.8,1.5-3.4,3.4-3.4h25.5c1.8,0,3.4,1.5,3.4,3.4v7.7
			C109.1,103.2,107.6,104.7,105.7,104.7z"/>
		<g>
			<g>
				<circle class="st3" cx="87" cy="95.5" r="2"/>
			</g>
			<g>
				<circle class="st3" cx="98.9" cy="95.5" r="2"/>
			</g>
		</g>
	</g>
</g>
<g>
	<rect x="1.9" y="1.1" class="st5" width="183.5" height="239.1"/>
</g>
</svg>
