<?xml version="1.0" encoding="utf-8"?>
<!-- Generator: Adobe Illustrator 22.0.1, SVG Export Plug-In . SVG Version: 6.00 Build 0)  -->
<svg version="1.0" id="Layer_1" xmlns="http://www.w3.org/2000/svg" xmlns:xlink="http://www.w3.org/1999/xlink" x="0px" y="0px"
	 viewBox="0 0 187.3 243.3" style="enable-background:new 0 0 187.3 243.3;" xml:space="preserve">
<style type="text/css">
	.st0{fill:#00CDC8;}
	.st1{fill:#FADC3C;}
	.st2{fill:#F24044;}
	.st3{fill:#490A3D;}
	.st4{fill:none;stroke:#490A3C;stroke-width:2;stroke-miterlimit:10;}
	.st5{fill:#EE2560;stroke:#490A3D;stroke-width:2;stroke-miterlimit:10;}
	.st6{fill:#FC6A6C;stroke:#490A3C;stroke-miterlimit:10;}
	.st7{fill:none;stroke:#FFFFFF;stroke-width:4.3349;stroke-miterlimit:10;}
</style>
<g>
	<rect x="0.1" y="2.1" class="st0" width="183.4" height="239.1"/>
	<rect y="197.6" class="st1" width="183.5" height="43.6"/>
	<g>
		<g>
			<path class="st2" d="M113.5,115.7H70c-1.8,0-3.2-1.4-3.2-3.2V88.4c0-1.8,1.4-3.2,3.2-3.2h43.6c1.8,0,3.2,1.4,3.2,3.2v24.2
				C116.7,114.3,115.3,115.7,113.5,115.7z"/>
		</g>
		<g>
			<rect x="85.7" y="115.7" class="st3" width="12.1" height="3.3"/>
		</g>
		<g>
			<path class="st2" d="M114.2,179.3H69.3c-1.5,0-2.7-1.2-2.7-2.7v-54.9c0-1.5,1.2-2.7,2.7-2.7h44.8c1.5,0,2.7,1.2,2.7,2.7v54.9
				C116.9,178,115.6,179.3,114.2,179.3z"/>
		</g>
		<line class="st4" x1="76.4" y1="159.8" x2="107.1" y2="159.8"/>
		<line class="st4" x1="76.4" y1="148.8" x2="107.1" y2="148.8"/>
		<line class="st4" x1="76.4" y1="154.5" x2="107.1" y2="154.5"/>
		<line class="st4" x1="76.4" y1="165.6" x2="107.1" y2="165.6"/>
		<line class="st4" x1="76.4" y1="171.3" x2="107.1" y2="171.3"/>
		<g>
			<g>
				<rect x="72" y="179.5" class="st3" width="15.4" height="4.6"/>
			</g>
			<g>
				<rect x="96.1" y="179.5" class="st3" width="15.4" height="4.6"/>
			</g>
			<line class="st5" x1="79.7" y1="184.1" x2="79.7" y2="211"/>
			<g>
				<path class="st3" d="M88.7,220c0-5-4-9-9-9c-5,0-9,4-9,9H88.7z"/>
			</g>
			<line class="st5" x1="103.8" y1="184.1" x2="103.8" y2="211"/>
			<g>
				<path class="st3" d="M112.8,220c0-5-4-9-9-9c-5,0-9,4-9,9H112.8z"/>
			</g>
		</g>
		<path class="st6" d="M104.5,104.7H79c-1.8,0-3.4-1.5-3.4-3.4v-7.7c0-1.8,1.5-3.4,3.4-3.4h25.5c1.8,0,3.4,1.5,3.4,3.4v7.7
			C107.8,103.2,106.3,104.7,104.5,104.7z"/>
		<g>
			<g>
				<circle class="st3" cx="85.8" cy="95.5" r="2"/>
			</g>
			<g>
				<circle class="st3" cx="97.7" cy="95.5" r="2"/>
			</g>
		</g>
		<g>
			<path class="st6" d="M107.1,141.4c0-8.5-6.9-15.4-15.4-15.4s-15.4,6.9-15.4,15.4H107.1z"/>
			<polyline class="st4" points="86.7,132.2 91.7,140.5 96.8,137.6 			"/>
			<line class="st4" x1="91.7" y1="126" x2="91.7" y2="128.6"/>
		</g>
	</g>
</g>
<g>
	<rect x="1.9" y="1.1" class="st7" width="183.5" height="239.1"/>
</g>
</svg>
