<?xml version="1.0" encoding="utf-8"?>
<!-- Generator: Adobe Illustrator 22.0.1, SVG Export Plug-In . SVG Version: 6.00 Build 0)  -->
<svg version="1.0" id="Layer_1" xmlns="http://www.w3.org/2000/svg" xmlns:xlink="http://www.w3.org/1999/xlink" x="0px" y="0px"
	 viewBox="0 0 187.3 243.3" style="enable-background:new 0 0 187.3 243.3;" xml:space="preserve">
<style type="text/css">
	.st0{fill:#00CDC8;}
	.st1{fill:#FADC3C;}
	.st2{fill:#490A3D;}
	.st3{fill:none;stroke:#490A3C;stroke-width:2;stroke-miterlimit:10;}
	.st4{fill:#F24044;}
	.st5{fill:#EE2560;stroke:#490A3D;stroke-width:2;stroke-miterlimit:10;}
	.st6{fill:#FC6A6C;stroke:#490A3C;stroke-miterlimit:10;}
	.st7{fill:none;stroke:#FFFFFF;stroke-width:4.3349;stroke-miterlimit:10;}
</style>
<g>
	<rect x="1.9" y="2.1" class="st0" width="183.5" height="239.1"/>
	<rect x="1.9" y="197.6" class="st1" width="183.5" height="43.6"/>
	<g>
		<g>
			<g>
				<circle class="st2" cx="55.8" cy="150" r="4.5"/>
			</g>
			<polyline class="st3" points="55.8,171.3 55.8,130.5 63.5,130.5 			"/>
			<polyline class="st3" points="59.3,177.1 59.3,171.3 52.3,171.3 52.3,177.1 			"/>
			<g>
				<circle class="st2" cx="130.1" cy="150" r="4.5"/>
			</g>
			<polyline class="st3" points="130.1,171.3 130.1,130.5 122.5,130.5 			"/>
			<polyline class="st3" points="126.6,177.1 126.6,171.3 133.7,171.3 133.7,177.1 			"/>
		</g>
		<g>
			<path class="st2" d="M118.1,138.8c4.6,0,8.3-3.7,8.3-8.3c0-4.6-3.7-8.3-8.3-8.3"/>
		</g>
		<g>
			<path class="st2" d="M69.1,122.2c-4.6,0-8.3,3.7-8.3,8.3c0,4.6,3.7,8.3,8.3,8.3"/>
		</g>
		<g>
			<path class="st4" d="M114.7,115.7H71.2c-1.8,0-3.2-1.4-3.2-3.2V88.4c0-1.8,1.4-3.2,3.2-3.2h43.6c1.8,0,3.2,1.4,3.2,3.2v24.2
				C117.9,114.3,116.5,115.7,114.7,115.7z"/>
		</g>
		<g>
			<rect x="86.9" y="115.7" class="st2" width="12.1" height="3.3"/>
		</g>
		<g>
			<path class="st4" d="M115.4,179.3H70.6c-1.5,0-2.7-1.2-2.7-2.7v-54.9c0-1.5,1.2-2.7,2.7-2.7h44.8c1.5,0,2.7,1.2,2.7,2.7v54.9
				C118.1,178,116.9,179.3,115.4,179.3z"/>
		</g>
		<line class="st3" x1="77.6" y1="159.8" x2="108.3" y2="159.8"/>
		<line class="st3" x1="77.6" y1="148.8" x2="108.3" y2="148.8"/>
		<line class="st3" x1="77.6" y1="154.5" x2="108.3" y2="154.5"/>
		<line class="st3" x1="77.6" y1="165.6" x2="108.3" y2="165.6"/>
		<line class="st3" x1="77.6" y1="171.3" x2="108.3" y2="171.3"/>
		<g>
			<g>
				<rect x="73.2" y="179.5" class="st2" width="15.4" height="4.6"/>
			</g>
			<g>
				<rect x="97.3" y="179.5" class="st2" width="15.4" height="4.6"/>
			</g>
			<line class="st5" x1="80.9" y1="184.1" x2="80.9" y2="211"/>
			<g>
				<path class="st2" d="M89.9,220c0-5-4-9-9-9c-5,0-9,4-9,9H89.9z"/>
			</g>
			<line class="st5" x1="105" y1="184.1" x2="105" y2="211"/>
			<g>
				<path class="st2" d="M114,220c0-5-4-9-9-9c-5,0-9,4-9,9H114z"/>
			</g>
		</g>
		<path class="st6" d="M105.7,104.7H80.2c-1.8,0-3.4-1.5-3.4-3.4v-7.7c0-1.8,1.5-3.4,3.4-3.4h25.5c1.8,0,3.4,1.5,3.4,3.4v7.7
			C109.1,103.2,107.6,104.7,105.7,104.7z"/>
		<g>
			<g>
				<circle class="st2" cx="87" cy="95.5" r="2"/>
			</g>
			<g>
				<circle class="st2" cx="98.9" cy="95.5" r="2"/>
			</g>
		</g>
		<g>
			<path class="st6" d="M108.3,141.4c0-8.5-6.9-15.4-15.4-15.4s-15.4,6.9-15.4,15.4H108.3z"/>
			<polyline class="st3" points="87.9,132.2 92.9,140.5 98.1,137.6 			"/>
			<line class="st3" x1="93" y1="126" x2="93" y2="128.6"/>
		</g>
	</g>
</g>
<g>
	<rect x="1.9" y="1.1" class="st7" width="183.5" height="239.1"/>
</g>
</svg>
