<?xml version="1.0" encoding="utf-8"?>
<!-- Generator: Adobe Illustrator 22.0.1, SVG Export Plug-In . SVG Version: 6.00 Build 0)  -->
<svg version="1.0" id="Layer_1" xmlns="http://www.w3.org/2000/svg" xmlns:xlink="http://www.w3.org/1999/xlink" x="0px" y="0px"
	 viewBox="0 0 187.3 243.3" style="enable-background:new 0 0 187.3 243.3;" xml:space="preserve">
<style type="text/css">
	.st0{fill:#00CDC8;}
	.st1{fill:#FADC3C;}
	.st2{fill:#490A3D;}
	.st3{fill:none;stroke:#490A3C;stroke-width:2;stroke-miterlimit:10;}
	.st4{fill:#F24044;}
	.st5{fill:#EE2560;stroke:#490A3D;stroke-width:2;stroke-miterlimit:10;}
	.st6{fill:#FC6A6C;stroke:#490A3C;stroke-miterlimit:10;}
	.st7{fill:none;stroke:#FFFFFF;stroke-width:4.3349;stroke-miterlimit:10;}
</style>
<g>
	<rect x="2" y="2.1" class="st0" width="183.4" height="239.1"/>
	<rect x="1.9" y="197.6" class="st1" width="183.5" height="43.6"/>
	<g>
		<g>
			<g>
				<circle class="st2" cx="56.5" cy="150" r="4.5"/>
			</g>
			<polyline class="st3" points="56.5,171.3 56.5,130.5 64.2,130.5 			"/>
			<polyline class="st3" points="60,177.1 60,171.3 52.9,171.3 52.9,177.1 			"/>
			<g>
				<circle class="st2" cx="130.8" cy="150" r="4.5"/>
			</g>
			<polyline class="st3" points="130.8,171.3 130.8,130.5 123.1,130.5 			"/>
			<polyline class="st3" points="127.3,177.1 127.3,171.3 134.4,171.3 134.4,177.1 			"/>
		</g>
		<g>
			<path class="st2" d="M118.8,138.8c4.6,0,8.3-3.7,8.3-8.3c0-4.6-3.7-8.3-8.3-8.3"/>
		</g>
		<g>
			<path class="st2" d="M69.8,122.2c-4.6,0-8.3,3.7-8.3,8.3c0,4.6,3.7,8.3,8.3,8.3"/>
		</g>
		<g>
			<path class="st4" d="M115.4,115.7H71.9c-1.8,0-3.2-1.4-3.2-3.2V88.4c0-1.8,1.4-3.2,3.2-3.2h43.6c1.8,0,3.2,1.4,3.2,3.2v24.2
				C118.6,114.3,117.2,115.7,115.4,115.7z"/>
		</g>
		<g>
			<rect x="87.6" y="115.7" class="st2" width="12.1" height="3.3"/>
		</g>
		<g>
			<path class="st2" d="M86.5,85.2c0-3.9,3.2-7.1,7.1-7.1s7.1,3.2,7.1,7.1"/>
		</g>
		<g>
			<path class="st4" d="M116.1,179.3H71.2c-1.5,0-2.7-1.2-2.7-2.7v-54.9c0-1.5,1.2-2.7,2.7-2.7h44.8c1.5,0,2.7,1.2,2.7,2.7v54.9
				C118.8,178,117.5,179.3,116.1,179.3z"/>
		</g>
		<line class="st3" x1="78.3" y1="159.8" x2="109" y2="159.8"/>
		<line class="st3" x1="78.3" y1="148.8" x2="109" y2="148.8"/>
		<line class="st3" x1="78.3" y1="154.5" x2="109" y2="154.5"/>
		<line class="st3" x1="78.3" y1="165.6" x2="109" y2="165.6"/>
		<line class="st3" x1="78.3" y1="171.3" x2="109" y2="171.3"/>
		<g>
			<g>
				<rect x="73.9" y="179.5" class="st2" width="15.4" height="4.6"/>
			</g>
			<g>
				<rect x="98" y="179.5" class="st2" width="15.4" height="4.6"/>
			</g>
			<line class="st5" x1="81.6" y1="184.1" x2="81.6" y2="211"/>
			<g>
				<path class="st2" d="M90.6,220c0-5-4-9-9-9c-5,0-9,4-9,9H90.6z"/>
			</g>
			<line class="st5" x1="105.7" y1="184.1" x2="105.7" y2="211"/>
			<g>
				<path class="st2" d="M114.7,220c0-5-4-9-9-9c-5,0-9,4-9,9H114.7z"/>
			</g>
		</g>
		<path class="st6" d="M106.4,104.7H80.9c-1.8,0-3.4-1.5-3.4-3.4v-7.7c0-1.8,1.5-3.4,3.4-3.4h25.5c1.8,0,3.4,1.5,3.4,3.4v7.7
			C109.8,103.2,108.2,104.7,106.4,104.7z"/>
		<g>
			<g>
				<circle class="st2" cx="87.7" cy="95.5" r="2"/>
			</g>
			<g>
				<circle class="st2" cx="99.6" cy="95.5" r="2"/>
			</g>
		</g>
		<g>
			<path class="st6" d="M109,141.4c0-8.5-6.9-15.4-15.4-15.4s-15.4,6.9-15.4,15.4H109z"/>
			<polyline class="st3" points="88.6,132.2 93.6,140.5 98.7,137.6 			"/>
			<line class="st3" x1="93.7" y1="126" x2="93.7" y2="128.6"/>
		</g>
		<line class="st3" x1="93.7" y1="80.8" x2="93.7" y2="69.8"/>
		<circle class="st4" cx="93.7" cy="69.8" r="3.7"/>
	</g>
</g>
<g>
	<rect x="1.9" y="1.1" class="st7" width="183.5" height="239.1"/>
</g>
</svg>
