<?xml version="1.0" encoding="utf-8"?>
<!-- Generator: Adobe Illustrator 22.1.0, SVG Export Plug-In . SVG Version: 6.00 Build 0)  -->
<svg version="1.1" id="Layer_1" xmlns="http://www.w3.org/2000/svg" xmlns:xlink="http://www.w3.org/1999/xlink" x="0px" y="0px"
	 viewBox="0 0 400 400" style="enable-background:new 0 0 400 400;" xml:space="preserve">
<style type="text/css">
	.st0{fill:#FFFFFF;}
	.st1{fill:#3B5367;}
	.st2{fill:#647DA1;}
	.st3{fill:#859CB8;}
	.st4{fill:none;stroke:#3B5367;stroke-width:9.82;stroke-linecap:round;stroke-linejoin:round;stroke-miterlimit:10;}
	.st5{fill:#3B5367;stroke:#3B5367;stroke-width:23.147;stroke-linecap:round;stroke-linejoin:round;stroke-miterlimit:10;}
	.st6{fill:#00001A;}
	.st7{fill:none;stroke:#00001A;stroke-width:2.1043;stroke-linecap:round;stroke-linejoin:round;stroke-miterlimit:10;}
	.st8{opacity:0.37;fill:#00001A;enable-background:new    ;}
	.st9{fill:#223A4B;}
	.st10{opacity:0.45;}
	.st11{fill:none;stroke:#3B5367;stroke-width:0.5261;stroke-miterlimit:10;}
	.st12{fill:#F5F199;}
	.st13{fill:none;stroke:#647DA1;stroke-width:1.4029;stroke-linecap:round;stroke-linejoin:round;stroke-miterlimit:10;}
	.st14{fill:none;stroke:#F5F199;stroke-width:2.1043;stroke-linecap:round;stroke-linejoin:round;stroke-miterlimit:10;}
	.st15{fill:none;stroke:#00001A;stroke-width:1.4029;stroke-linecap:round;stroke-linejoin:round;stroke-miterlimit:10;}
	.st16{fill:none;stroke:#00001A;stroke-width:0.7199;stroke-miterlimit:10;}
	.st17{fill:#FFEE89;}
	.st18{fill:#F26722;}
	.st19{fill:#FFC70A;}
	.st20{fill:none;stroke:#00001A;stroke-width:2.0951;stroke-miterlimit:10;}
	.st21{fill:none;stroke:#00001A;stroke-width:0.8805;stroke-miterlimit:10;}
	.st22{fill:#660E13;}
</style>
<g>
	<g>
		<path class="st0" d="M212,368.5c-0.1,0-0.2,0-0.3,0c-7.9-0.5-14.8-5.7-17.6-13.2c-0.4-1-0.7-2.1-0.9-3.2c-0.7-3.3-0.5-6.8,0.4-10
			h-13.8v1.1c0,13.9-11.3,25.2-25.2,25.2H60.6c-0.3,0-0.7,0-1,0c-8-0.5-14.9-5.6-17.8-13.1c-2.9-7.6-1.1-16.1,4.6-21.8l64.9-64.9
			v-24.8c-0.1-0.2-0.2-0.3-0.3-0.5c-0.6-1.4-0.7-2.9-0.2-4.4c0.1-0.3,0.3-0.7,0.5-1v-5.9c-1.5,1.6-3.4,2.9-5.6,3.6
			c-1.8,5.4-6.1,9.7-11.5,11.4l-1.3,1.9c0.5,1.6,0.8,3.3,0.8,5c0,9.2-7.5,16.7-16.7,16.7s-16.7-7.5-16.7-16.7
			c0-7.8,5.3-14.3,12.5-16.2c-0.3-0.6-0.6-1.2-0.8-1.9c-6-1.3-10.5-6.7-10.5-13.1V169c0-7.4,6-13.4,13.4-13.4h26.6
			c7.4,0,13.4,6,13.4,13.4v14.4c2.2-2.2,5.2-3.5,8.4-3.5h56.2c1.9-3.6,5.7-6,10-6h0.4l2.4-6.8c-4-1.8-6.8-5.8-6.8-10.5
			c0-4.2,2.2-7.8,5.5-9.8l-0.4-1H136c-0.9,0-1.7-0.1-2.7-0.2h-8.7c-8.3,0-15-6.7-15-15v-26.4c-2.1-2.2-3.3-5.2-3.3-8.4V79.7
			c0-3.1,1.2-6.1,3.3-8.4v-24c-0.1-3.9,1.4-7.6,4.2-10.5c2.8-2.9,6.7-4.5,10.8-4.5h120.1c6.2,0,11.9,2.8,15.6,7.6
			c3.2,0.8,6.1,2.4,8.5,4.8c6.8,2.1,11.7,8.5,11.7,15.8V116c0,7.2-4.7,13.6-11.5,15.7c-2,2.1-4.6,3.6-7.3,4.5
			c-3.6,5.9-10,9.5-17,9.5h-13.9c4.4,1.6,7.5,5.8,7.5,10.8c0,6.1-4.8,11.1-10.8,11.5l-0.1,0.2c-0.1,0.2-0.1,0.4-0.2,0.6l-1.8,5.1
			h0.6c4.3,0,8.1,2.4,10,6h31.3c4.3,0,8.3,1.9,11.2,5H293l-0.9-18.4c-0.3-7.4,5.4-13.7,12.8-14l26.5-1.3c0.2,0,0.4,0,0.6,0
			c7.2,0,13.1,5.6,13.4,12.8l2.6,53.8c0,0.1,0,0.2,0,0.2c0.1,3.5-1.1,6.9-3.5,9.5c-1.7,1.9-3.9,3.3-6.4,3.9c-0.5,1.5-1.1,3-2,4.3
			c2.8,3,4.4,7.1,4.4,11.3c0,8.6-6.5,15.6-14.8,16.6c3.8,3,6.2,7.7,6.2,12.9l0,17.6v49c0,5.9-2.1,11.6-5.9,16.1
			c-0.1,0.1-0.2,0.2-0.3,0.3c-0.4,0.4-0.8,0.9-1.3,1.4c-4.8,4.8-11.1,7.5-17.9,7.5H212z M230.1,301.4c0,0.2,0,0.5-0.1,0.7l1-1h-0.9
			C230.1,301.2,230.1,301.3,230.1,301.4z M313.3,260c-3.7-3.1-6.1-7.7-6.1-12.9c0-2.7,0.7-5.3,1.9-7.7c-2-1.9-3.6-4.2-4.6-6.8
			c-5.5-1.5-9.5-6.4-9.8-12.3l-0.6-12h-11.6V260H313.3z"/>
		<path class="st0" d="M244.7,37.3c5.4,0,10.1,2.9,12.7,7.2c3.5,0.4,6.6,2.1,8.8,4.7c5.3,1,9.3,5.7,9.3,11.3V116
			c0,5.6-4,10.2-9.2,11.3c-2,2.4-4.8,4.1-8,4.7c-2.3,5.2-7.5,8.8-13.6,8.8h-25.1l3.9,9.3h3.3c3.6,0,6.5,2.9,6.5,6.5
			c0,3.6-2.9,6.5-6.5,6.5H224l-1.2,3.4l-0.1,0.3h0l-4.3,12.1h7.7c3.4,0,6.2,2.7,6.4,6h34.9c3.7,0,6.9,2,8.7,5h19.6
			c0.9,0,1.8,0.2,2.6,0.5l-1.2-24.1c-0.2-4.6,3.4-8.6,8-8.8l26.5-1.3c0.1,0,0.2,0,0.4,0c4.4,0,8.2,3.5,8.4,8L343,218
			c0,0,0,0.1,0,0.1l0,0c0.2,4.6-3.4,8.6-8,8.8l-1.1,0.1c-0.2,3.9-2.1,7.3-5,9.5c4,1.9,6.8,5.9,6.8,10.6c0,6.5-5.2,11.7-11.7,11.7
			s-11.7-5.2-11.7-11.7c0-3.6,1.6-6.8,4.1-8.9c-4.2-1.7-7.3-5.5-7.9-10.1c-0.2,0-0.3,0-0.5,0c-4.5,0-8.1-3.6-8.3-8l-0.9-17.6
			c-0.9,0.5-2,0.8-3.1,0.8h-18.2v61.8c0.5-0.1,1-0.1,1.5-0.1h36.4c6.4,0,11.6,5.2,11.6,11.6l0,17.6v49c0,4.9-1.8,9.4-4.7,12.9
			c-0.1,0.1-0.1,0.1-0.2,0.2c-0.3,0.4-0.7,0.8-1,1.2c-3.7,3.7-8.8,6-14.4,6h-93.6c-0.3,0-0.7,0-1.1,0c-6-0.4-11.2-4.4-13.3-10
			c-0.3-0.8-0.5-1.6-0.7-2.4c-1-5,0.4-10.3,4-14h-19.6h-7.7v6.1c0,11.1-9,20.2-20.2,20.2H60.6c-0.2,0-0.5,0-0.7,0
			c-6-0.4-11.2-4.3-13.4-9.9c-2.2-5.7-0.8-12.2,3.5-16.5l66.4-66.4v-29l-0.3-0.1c-0.4-0.1-0.6-0.5-0.4-0.9c0.1-0.3,0.4-0.4,0.7-0.4
			c0,0,0.1,0,0.1,0v-36.6h-3.8c-0.9,0-1.8-0.2-2.6-0.5v19.9c0,4.6-3.8,8.4-8.4,8.4c-0.5,5.7-4.9,10.4-10.5,11.4l-3.8,5.8
			c0.9,1.6,1.4,3.5,1.4,5.5c0,6.5-5.2,11.7-11.7,11.7c-6.5,0-11.7-5.2-11.7-11.7s5.2-11.7,11.7-11.7c0.8,0,1.6,0.1,2.4,0.3l1.5-2.3
			c-2.7-2.1-4.6-5.3-4.9-8.9H75c-4.6,0-8.4-3.8-8.4-8.4V169c0-4.6,3.8-8.4,8.4-8.4h4.1h22.5c4.6,0,8.4,3.8,8.4,8.4v21.5
			c0.8-0.3,1.7-0.5,2.6-0.5h4.1c0.8-2.9,3.5-5.1,6.7-5.1h3.1c0,0,0,0,0,0h56.7c0.2-3.3,3-6,6.4-6h4l4.3-12.1h-0.1l1.3-3.6h0l0-0.1
			h-2c-3.6,0-6.5-2.9-6.5-6.5c0-3.6,2.9-6.5,6.5-6.5h0.9l-3.9-9.3H136c-0.8,0-1.6-0.1-2.3-0.2h-9.1c-5.5,0-10-4.5-10-10v-28.7
			c-2-1.3-3.3-3.6-3.3-6.1V79.7c0-2.5,1.3-4.8,3.3-6.1V47.3c-0.1-5.5,4.4-10,10-10H136h7H244.7 M202.7,150.1L202.7,150.1l-3.9-9.3h0
			L202.7,150.1 M243.1,296.1h-21.8v3.4h2.2c0.9,0,1.7,0.7,1.6,1.6c0,0.9-0.7,1.6-1.6,1.6h-2.2v2.4h2.2c0.9,0,1.7,0.7,1.6,1.6
			c0,0.9-0.7,1.6-1.6,1.6h-2.2v2.4h2.2c0.9,0,1.7,0.8,1.6,1.6c0,0.9-0.7,1.6-1.6,1.6h-2.2v4L243.1,296.1 M174.7,318.2h7.7v-4.3h-2.3
			c-0.9,0-1.6-0.7-1.6-1.6c0-0.9,0.7-1.6,1.6-1.6h2.3v-2.4h-2.3c-0.9,0-1.6-0.7-1.6-1.6c0-0.9,0.7-1.6,1.6-1.6h2.3v-2.4h-2.3
			c-0.9,0-1.6-0.7-1.6-1.6c0-0.9,0.7-1.6,1.6-1.6h2.3v-3.4h-7.7V318.2 M244.7,27.3H143h-7h-11.4c-5.4,0-10.5,2.1-14.3,6
			c-3.7,3.8-5.7,8.8-5.7,14.1v22.2c-2.1,2.9-3.3,6.4-3.3,10.1v16.1c0,3.7,1.2,7.3,3.3,10.2v24.6c0,11,9,20,20,20h8.4
			c1.1,0.1,2,0.2,3,0.2h45.8c-0.7,1.8-1.1,3.8-1.1,5.8c0,5,2.2,9.5,5.7,12.5l0,0.1c-3.8,0.8-7.1,2.8-9.5,5.7h-50.4h-3.1
			c-1.2,0-2.3,0.1-3.4,0.3V169c0-10.1-8.3-18.4-18.4-18.4H79.1H75c-10.1,0-18.4,8.3-18.4,18.4v53.8c0,5.8,2.7,10.9,6.8,14.3
			c-4.9,4-8,10-8,16.8c0,12,9.7,21.7,21.7,21.7c12,0,21.7-9.7,21.7-21.7c0-1.1-0.1-2.2-0.2-3.3c3-1.4,5.7-3.5,7.8-6c0,0,0,0.1,0,0.1
			v21.6l-63.5,63.5c-7.1,7.1-9.3,17.7-5.8,27.1c3.5,9.3,12.2,15.7,22.1,16.3c0.4,0,0.9,0,1.3,0h93.9c15.3,0,28-11.5,29.9-26.3h3.3
			c-0.1,2,0.1,4,0.5,6c0.3,1.3,0.6,2.7,1.1,3.9c0,0,0,0,0,0.1c3.5,9.3,12.1,15.8,22,16.5c0.2,0,0.4,0,0.7,0h1.1h93.6
			c8.1,0,15.7-3.2,21.4-9c0.5-0.5,1-1.1,1.4-1.6c0.1-0.1,0.3-0.3,0.4-0.4c4.5-5.4,7-12.3,7-19.3v-49l0-17.6c0-3.8-1-7.4-2.7-10.5
			c6.7-3.7,11.3-10.8,11.3-19c0-4.3-1.3-8.3-3.5-11.8c2.3-1,4.4-2.5,6.1-4.5c3.2-3.6,4.9-8.2,4.8-13c0-0.1,0-0.2,0-0.3l-2.6-53.8
			c-0.4-9.8-8.5-17.5-18.4-17.5c-0.3,0-0.5,0-0.8,0c0,0,0,0-0.1,0l-26.5,1.3c-4.9,0.2-9.4,2.4-12.7,6c-3.3,3.6-5,8.3-4.8,13.2
			l0.6,13.2h-7.1c-3.6-3.2-8.3-5-13.2-5h-28.6c-1.2-1.5-2.7-2.7-4.3-3.7c5.2-2.8,8.8-8.3,8.8-14.6c0-2-0.4-4-1.1-5.8h2.5
			c8.1,0,15.6-4,20.2-10.4c2.5-1,4.8-2.5,6.7-4.3c8.2-3.1,13.8-11.1,13.8-20.1V60.5c0-9.1-5.7-17.1-14-20.2
			c-2.4-2.2-5.2-3.8-8.3-4.8C258.5,30.4,251.7,27.3,244.7,27.3L244.7,27.3z M287.5,213.3h1.9l0.4,7.3c0.3,7.3,4.8,13.4,11.1,16.1
			c0.7,1.3,1.5,2.6,2.4,3.8c-0.7,2.1-1,4.4-1,6.7c0,2.8,0.5,5.5,1.5,7.9h-16.2V213.3L287.5,213.3z"/>
	</g>
	<g>
		<circle class="st1" cx="321.1" cy="226.3" r="12.8"/>
		<path class="st2" d="M308.5,228.1l26.5-1.3c4.6-0.2,8.2-4.2,8-8.8l-2.6-53.8c-0.2-4.6-4.2-8.2-8.8-8l-26.5,1.3
			c-4.6,0.2-8.2,4.2-8,8.8l2.6,53.8C299.9,224.7,303.8,228.4,308.5,228.1z"/>
		<path class="st3" d="M330.9,227.1l4.1-0.2c4.6-0.2,8.2-4.2,8-8.8l-2.6-53.8c-0.2-4.6-4.2-8.2-8.8-8l-4.1,0.2
			c-4.6,0.2-8.2,4.2-8,8.8l2.6,53.8C322.3,223.7,326.3,227.3,330.9,227.1z"/>
		<line class="st4" x1="321" y1="232.8" x2="323.9" y2="247.1"/>
		<circle class="st1" cx="323.9" cy="247.1" r="11.7"/>
	</g>
	<g>
		<path class="st1" d="M265,203.3h30.7c3.7,0,6.7-3,6.7-6.7l0,0c0-3.7-3-6.7-6.7-6.7H265c-3.7,0-6.7,3-6.7,6.7l0,0
			C258.2,200.3,261.3,203.3,265,203.3z"/>
	</g>
	<g>
		<g>
			<path class="st5" d="M279,276.6"/>
			<path class="st5" d="M279,276.6h36.4v66.6c0,4.8-3.9,8.6-8.6,8.6h-29.7h-34.3h-29.7c-0.1,0-0.2,0-0.3,0c-3.3-0.2-4.7-4.4-2.4-6.7
				L279,276.6"/>
			<path class="st6" d="M277.1,351.8h-63.9c-0.1,0-0.2,0-0.3,0c-3.3-0.2-4.7-4.4-2.4-6.7l68.6-68.6c2.3-2.3,6.5-0.9,6.7,2.4
				c0,0.1,0,0.2,0,0.3v63.9C285.7,348,281.9,351.8,277.1,351.8z"/>
			<line class="st7" x1="290.7" y1="279.3" x2="322.4" y2="279.3"/>
			<line class="st7" x1="290.7" y1="296.8" x2="322.4" y2="296.8"/>
			<line class="st7" x1="290.7" y1="314.4" x2="322.4" y2="314.4"/>
			<line class="st7" x1="290.7" y1="331.9" x2="322.4" y2="331.9"/>
			<line class="st7" x1="290.7" y1="349.4" x2="322.4" y2="349.4"/>
			<path class="st8" d="M327,276.6c0-6.4-5.2-11.6-11.6-11.6H279c-3.1,0-6,1.2-8.2,3.4L202.3,337c-4.3,4.3-5.7,10.8-3.6,16.5
				c2.1,5.6,7.3,9.6,13.3,10c0.4,0,0.8,0,1.1,0h93.6c11.1,0,20.2-9.1,20.2-20.2L327,276.6z"/>
		</g>
	</g>
	<path class="st1" d="M212.9,277.6h-22.1c-4.6,0-8.4,3.8-8.4,8.4v32.7c0,4.6,3.8,8.4,8.4,8.4h22.1c4.6,0,8.4-3.8,8.4-8.4V286
		C221.3,281.4,217.5,277.6,212.9,277.6z"/>
	<g>
		
			<rect x="195.1" y="103.5" transform="matrix(0.921 -0.3895 0.3895 0.921 -34.488 89.987)" class="st1" width="19.1" height="53.1"/>
		
			<rect x="191.7" y="108" transform="matrix(0.921 -0.3895 0.3895 0.921 -37.0985 86.1265)" class="st6" width="4.3" height="53.1"/>
	</g>
	<g>
		<polygon class="st1" points="197.4,181 215.7,186.6 226,157.4 207.7,151.8 		"/>
		<polygon class="st6" points="197.4,181 193.3,179.7 203.6,150.6 207.7,151.8 		"/>
	</g>
	<path class="st3" d="M136,37.3h108.7c8.2,0,14.9,6.7,14.9,14.9v73.7c0,8.2-6.7,14.9-14.9,14.9H136c-8.2,0-14.9-6.7-14.9-14.9V52.1
		C121.1,44,127.8,37.3,136,37.3z"/>
	<path class="st2" d="M171.8,44.4h84.1c7.4,0,13.4,6,13.4,13.4v61c0,7.4-6,13.4-13.4,13.4h-84.1c-7.4,0-13.4-6-13.4-13.4v-61
		C158.4,50.4,164.4,44.4,171.8,44.4z"/>
	<g>
		<circle class="st1" cx="169.3" cy="60.2" r="4.5"/>
		<circle class="st3" cx="168.1" cy="60.1" r="4.1"/>
	</g>
	<g>
		<circle class="st1" cx="169.3" cy="116.3" r="4.5"/>
		<circle class="st3" cx="168.1" cy="116.2" r="4.1"/>
	</g>
	<path class="st1" d="M190.3,49H264c6.4,0,11.5,5.2,11.5,11.5V116c0,6.4-5.2,11.5-11.5,11.5h-73.7c-6.4,0-11.5-5.2-11.5-11.5V60.6
		C178.8,54.2,184,49,190.3,49z"/>
	<path class="st6" d="M195.6,54.3h63.2c6.4,0,11.5,5.2,11.5,11.5v44.9c0,6.4-5.2,11.5-11.5,11.5h-63.2c-6.4,0-11.5-5.2-11.5-11.5
		V65.8C184,59.5,189.2,54.3,195.6,54.3z"/>
	<path class="st2" d="M124.6,37.3H143c5.5,0,10,4.5,10,10v83.3c0,5.5-4.5,10-10,10h-18.4c-5.5,0-10-4.5-10-10V47.3
		C114.5,41.8,119,37.3,124.6,37.3z"/>
	<g>
		<g>
			<path class="st3" d="M118.6,103.1h7.7c4,0,7.3-3.3,7.3-7.3V79.7c0-4-3.3-7.3-7.3-7.3h-7.7c-4,0-7.3,3.3-7.3,7.3v16.1
				C111.3,99.8,114.5,103.1,118.6,103.1z"/>
			<path class="st1" d="M115.7,97.7h8.1c1.7,0,3.2-1.4,3.2-3.2V81c0-1.7-1.4-3.2-3.2-3.2h-8.1c-1.7,0-3.2,1.4-3.2,3.2v13.5
				C112.6,96.3,114,97.7,115.7,97.7z"/>
		</g>
		<path class="st9" d="M113.9,80.8h11.6c0.2,0,0.4,0.2,0.4,0.4v0.2c0,0.2-0.2,0.4-0.4,0.4h-11.6c-0.2,0-0.4-0.2-0.4-0.4v-0.2
			C113.6,81,113.7,80.8,113.9,80.8z"/>
		<path class="st9" d="M113.9,84.4h11.6c0.2,0,0.4,0.2,0.4,0.4V85c0,0.2-0.2,0.4-0.4,0.4h-11.6c-0.2,0-0.4-0.2-0.4-0.4v-0.2
			C113.6,84.5,113.7,84.4,113.9,84.4z"/>
		<path class="st9" d="M113.9,87.9h11.6c0.2,0,0.4,0.2,0.4,0.4v0.2c0,0.2-0.2,0.4-0.4,0.4h-11.6c-0.2,0-0.4-0.2-0.4-0.4v-0.2
			C113.6,88.1,113.7,87.9,113.9,87.9z"/>
		<path class="st9" d="M113.9,91.4h11.6c0.2,0,0.4,0.2,0.4,0.4V92c0,0.2-0.2,0.4-0.4,0.4h-11.6c-0.2,0-0.4-0.2-0.4-0.4v-0.2
			C113.6,91.6,113.7,91.4,113.9,91.4z"/>
		<path class="st9" d="M113.9,95h11.6c0.2,0,0.4,0.2,0.4,0.4v0.2c0,0.2-0.2,0.4-0.4,0.4h-11.6c-0.2,0-0.4-0.2-0.4-0.4v-0.2
			C113.6,95.1,113.7,95,113.9,95z"/>
	</g>
	<path class="st1" d="M197.2,150.1h29.6c3.6,0,6.5,2.9,6.5,6.5l0,0c0,3.6-2.9,6.5-6.5,6.5h-29.6c-3.6,0-6.5-2.9-6.5-6.5l0,0
		C190.7,153,193.6,150.1,197.2,150.1z"/>
	<circle class="st6" cx="197.4" cy="156.6" r="3.8"/>
	<g>
		<path class="st1" d="M189.6,178.9h36.5c3.5,0,6.4,2.9,6.4,6.4l0,0c0,3.5-2.9,6.4-6.4,6.4h-36.5c-3.5,0-6.4-2.9-6.4-6.4l0,0
			C183.2,181.8,186.1,178.9,189.6,178.9z"/>
	</g>
	<circle class="st6" cx="189.8" cy="185.3" r="5.3"/>
	<circle class="st1" cx="189.8" cy="185.3" r="3"/>
	<polygon class="st6" points="223.8,163.2 199.1,163.2 197.8,166.8 222.7,166.8 	"/>
	<g>
		<g>
			<path class="st3" d="M126.5,296.1h140.9c5.6,0,10.1-4.6,10.1-10.1v-91c0-5.6-4.6-10.1-10.1-10.1H126.5c-5.6,0-10.1,4.6-10.1,10.1
				v91C116.3,291.6,120.9,296.1,126.5,296.1z"/>
			<path class="st2" d="M123.4,296.1h29.2c3.9,0,7-3.2,7-7v-97.2c0-3.9-3.2-7-7-7h-29.2c-3.9,0-7,3.2-7,7v97.2
				C116.3,292.9,119.5,296.1,123.4,296.1z"/>
		</g>
	</g>
	<g>
		<g class="st10">
			<g>
				<g>
					<g>
						<g>
							<path class="st11" d="M273.1,92.2c0-1.2-1-1.5-2.2-1.5s-2.2,0.3-2.2,1.5"/>
							<path class="st11" d="M264.4,91.9c0,1.2,1,1.5,2.2,1.5s2.2-0.3,2.2-1.5"/>
						</g>
						<g>
							<path class="st11" d="M264.4,92.2c0-1.2-1-1.5-2.2-1.5S260,91,260,92.2"/>
							<path class="st11" d="M255.6,91.9c0,1.2,1,1.5,2.2,1.5s2.2-0.3,2.2-1.5"/>
						</g>
					</g>
					<g>
						<g>
							<path class="st11" d="M255.6,92.2c0-1.2-1-1.5-2.2-1.5s-2.2,0.3-2.2,1.5"/>
							<path class="st11" d="M246.8,91.9c0,1.2,1,1.5,2.2,1.5s2.2-0.3,2.2-1.5"/>
						</g>
						<g>
							<path class="st11" d="M246.8,92.2c0-1.2-1-1.5-2.2-1.5s-2.2,0.3-2.2,1.5"/>
							<path class="st11" d="M238.1,91.9c0,1.2,1,1.5,2.2,1.5s2.2-0.3,2.2-1.5"/>
						</g>
					</g>
				</g>
				<g>
					<g>
						<g>
							<path class="st11" d="M238.1,92.2c0-1.2-1-1.5-2.2-1.5s-2.2,0.3-2.2,1.5"/>
							<path class="st11" d="M229.3,91.9c0,1.2,1,1.5,2.2,1.5s2.2-0.3,2.2-1.5"/>
						</g>
						<g>
							<path class="st11" d="M229.3,92.2c0-1.2-1-1.5-2.2-1.5s-2.2,0.3-2.2,1.5"/>
							<path class="st11" d="M220.5,91.9c0,1.2,1,1.5,2.2,1.5s2.2-0.3,2.2-1.5"/>
						</g>
					</g>
					<g>
						<g>
							<path class="st11" d="M220.5,92.2c0-1.2-1-1.5-2.2-1.5s-2.2,0.3-2.2,1.5"/>
							<path class="st11" d="M211.8,91.9c0,1.2,1,1.5,2.2,1.5s2.2-0.3,2.2-1.5"/>
						</g>
						<g>
							<path class="st11" d="M211.8,92.2c0-1.2-1-1.5-2.2-1.5s-2.2,0.3-2.2,1.5"/>
							<path class="st11" d="M203,91.9c0,1.2,1,1.5,2.2,1.5s2.2-0.3,2.2-1.5"/>
						</g>
					</g>
				</g>
			</g>
			<g>
				<g>
					<g>
						<g>
							<path class="st11" d="M203,92.2c0-1.2-1-1.5-2.2-1.5s-2.2,0.3-2.2,1.5"/>
							<path class="st11" d="M194.2,91.9c0,1.2,1,1.5,2.2,1.5s2.2-0.3,2.2-1.5"/>
						</g>
						<g>
							<path class="st11" d="M194.2,92.2c0-1.2-1-1.5-2.2-1.5s-2.2,0.3-2.2,1.5"/>
							<path class="st11" d="M185.5,91.9c0,1.2,1,1.5,2.2,1.5s2.2-0.3,2.2-1.5"/>
						</g>
					</g>
					<g>
						<g>
							<path class="st11" d="M185.5,92.2c0-1.2-1-1.5-2.2-1.5s-2.2,0.3-2.2,1.5"/>
						</g>
					</g>
				</g>
			</g>
		</g>
		<g class="st10">
			<g>
				<g>
					<g>
						<g>
							<path class="st11" d="M273.1,62.6c0-1.2-1-1.5-2.2-1.5s-2.2,0.3-2.2,1.5"/>
							<path class="st11" d="M264.4,62.4c0,1.2,1,1.5,2.2,1.5s2.2-0.3,2.2-1.5"/>
						</g>
						<g>
							<path class="st11" d="M264.4,62.6c0-1.2-1-1.5-2.2-1.5s-2.2,0.3-2.2,1.5"/>
							<path class="st11" d="M255.6,62.4c0,1.2,1,1.5,2.2,1.5s2.2-0.3,2.2-1.5"/>
						</g>
					</g>
					<g>
						<g>
							<path class="st11" d="M255.6,62.6c0-1.2-1-1.5-2.2-1.5s-2.2,0.3-2.2,1.5"/>
							<path class="st11" d="M246.8,62.4c0,1.2,1,1.5,2.2,1.5s2.2-0.3,2.2-1.5"/>
						</g>
						<g>
							<path class="st11" d="M246.8,62.6c0-1.2-1-1.5-2.2-1.5s-2.2,0.3-2.2,1.5"/>
							<path class="st11" d="M238.1,62.4c0,1.2,1,1.5,2.2,1.5s2.2-0.3,2.2-1.5"/>
						</g>
					</g>
				</g>
				<g>
					<g>
						<g>
							<path class="st11" d="M238.1,62.6c0-1.2-1-1.5-2.2-1.5s-2.2,0.3-2.2,1.5"/>
							<path class="st11" d="M229.3,62.4c0,1.2,1,1.5,2.2,1.5s2.2-0.3,2.2-1.5"/>
						</g>
						<g>
							<path class="st11" d="M229.3,62.6c0-1.2-1-1.5-2.2-1.5s-2.2,0.3-2.2,1.5"/>
							<path class="st11" d="M220.5,62.4c0,1.2,1,1.5,2.2,1.5s2.2-0.3,2.2-1.5"/>
						</g>
					</g>
					<g>
						<g>
							<path class="st11" d="M220.5,62.6c0-1.2-1-1.5-2.2-1.5s-2.2,0.3-2.2,1.5"/>
							<path class="st11" d="M211.8,62.4c0,1.2,1,1.5,2.2,1.5s2.2-0.3,2.2-1.5"/>
						</g>
						<g>
							<path class="st11" d="M211.8,62.6c0-1.2-1-1.5-2.2-1.5s-2.2,0.3-2.2,1.5"/>
							<path class="st11" d="M203,62.4c0,1.2,1,1.5,2.2,1.5s2.2-0.3,2.2-1.5"/>
						</g>
					</g>
				</g>
			</g>
			<g>
				<g>
					<g>
						<g>
							<path class="st11" d="M203,62.6c0-1.2-1-1.5-2.2-1.5s-2.2,0.3-2.2,1.5"/>
							<path class="st11" d="M194.2,62.4c0,1.2,1,1.5,2.2,1.5s2.2-0.3,2.2-1.5"/>
						</g>
						<g>
							<path class="st11" d="M194.2,62.6c0-1.2-1-1.5-2.2-1.5s-2.2,0.3-2.2,1.5"/>
							<path class="st11" d="M185.5,62.4c0,1.2,1,1.5,2.2,1.5s2.2-0.3,2.2-1.5"/>
						</g>
					</g>
					<g>
						<g>
							<path class="st11" d="M185.5,62.6c0-1.2-1-1.5-2.2-1.5s-2.2,0.3-2.2,1.5"/>
						</g>
					</g>
				</g>
			</g>
		</g>
		<g class="st10">
			<g>
				<g>
					<g>
						<g>
							<path class="st11" d="M273.1,99.6c0-1.2-1-1.5-2.2-1.5s-2.2,0.3-2.2,1.5"/>
							<path class="st11" d="M264.4,99.3c0,1.2,1,1.5,2.2,1.5s2.2-0.3,2.2-1.5"/>
						</g>
						<g>
							<path class="st11" d="M264.4,99.6c0-1.2-1-1.5-2.2-1.5s-2.2,0.3-2.2,1.5"/>
							<path class="st11" d="M255.6,99.3c0,1.2,1,1.5,2.2,1.5s2.2-0.3,2.2-1.5"/>
						</g>
					</g>
					<g>
						<g>
							<path class="st11" d="M255.6,99.6c0-1.2-1-1.5-2.2-1.5s-2.2,0.3-2.2,1.5"/>
							<path class="st11" d="M246.8,99.3c0,1.2,1,1.5,2.2,1.5s2.2-0.3,2.2-1.5"/>
						</g>
						<g>
							<path class="st11" d="M246.8,99.6c0-1.2-1-1.5-2.2-1.5s-2.2,0.3-2.2,1.5"/>
							<path class="st11" d="M238.1,99.3c0,1.2,1,1.5,2.2,1.5s2.2-0.3,2.2-1.5"/>
						</g>
					</g>
				</g>
				<g>
					<g>
						<g>
							<path class="st11" d="M238.1,99.6c0-1.2-1-1.5-2.2-1.5s-2.2,0.3-2.2,1.5"/>
							<path class="st11" d="M229.3,99.3c0,1.2,1,1.5,2.2,1.5s2.2-0.3,2.2-1.5"/>
						</g>
						<g>
							<path class="st11" d="M229.3,99.6c0-1.2-1-1.5-2.2-1.5s-2.2,0.3-2.2,1.5"/>
							<path class="st11" d="M220.5,99.3c0,1.2,1,1.5,2.2,1.5s2.2-0.3,2.2-1.5"/>
						</g>
					</g>
					<g>
						<g>
							<path class="st11" d="M220.5,99.6c0-1.2-1-1.5-2.2-1.5s-2.2,0.3-2.2,1.5"/>
							<path class="st11" d="M211.8,99.3c0,1.2,1,1.5,2.2,1.5s2.2-0.3,2.2-1.5"/>
						</g>
						<g>
							<path class="st11" d="M211.8,99.6c0-1.2-1-1.5-2.2-1.5s-2.2,0.3-2.2,1.5"/>
							<path class="st11" d="M203,99.3c0,1.2,1,1.5,2.2,1.5s2.2-0.3,2.2-1.5"/>
						</g>
					</g>
				</g>
			</g>
			<g>
				<g>
					<g>
						<g>
							<path class="st11" d="M203,99.6c0-1.2-1-1.5-2.2-1.5s-2.2,0.3-2.2,1.5"/>
							<path class="st11" d="M194.2,99.3c0,1.2,1,1.5,2.2,1.5s2.2-0.3,2.2-1.5"/>
						</g>
						<g>
							<path class="st11" d="M194.2,99.6c0-1.2-1-1.5-2.2-1.5s-2.2,0.3-2.2,1.5"/>
							<path class="st11" d="M185.5,99.3c0,1.2,1,1.5,2.2,1.5s2.2-0.3,2.2-1.5"/>
						</g>
					</g>
					<g>
						<g>
							<path class="st11" d="M185.5,99.6c0-1.2-1-1.5-2.2-1.5s-2.2,0.3-2.2,1.5"/>
						</g>
					</g>
				</g>
			</g>
		</g>
		<g class="st10">
			<g>
				<g>
					<g>
						<g>
							<path class="st11" d="M273.1,70c0-1.2-1-1.5-2.2-1.5s-2.2,0.3-2.2,1.5"/>
							<path class="st11" d="M264.4,69.8c0,1.2,1,1.5,2.2,1.5s2.2-0.3,2.2-1.5"/>
						</g>
						<g>
							<path class="st11" d="M264.4,70c0-1.2-1-1.5-2.2-1.5S260,68.8,260,70"/>
							<path class="st11" d="M255.6,69.8c0,1.2,1,1.5,2.2,1.5s2.2-0.3,2.2-1.5"/>
						</g>
					</g>
					<g>
						<g>
							<path class="st11" d="M255.6,70c0-1.2-1-1.5-2.2-1.5s-2.2,0.3-2.2,1.5"/>
							<path class="st11" d="M246.8,69.8c0,1.2,1,1.5,2.2,1.5s2.2-0.3,2.2-1.5"/>
						</g>
						<g>
							<path class="st11" d="M246.8,70c0-1.2-1-1.5-2.2-1.5s-2.2,0.3-2.2,1.5"/>
							<path class="st11" d="M238.1,69.8c0,1.2,1,1.5,2.2,1.5s2.2-0.3,2.2-1.5"/>
						</g>
					</g>
				</g>
				<g>
					<g>
						<g>
							<path class="st11" d="M238.1,70c0-1.2-1-1.5-2.2-1.5s-2.2,0.3-2.2,1.5"/>
							<path class="st11" d="M229.3,69.8c0,1.2,1,1.5,2.2,1.5s2.2-0.3,2.2-1.5"/>
						</g>
						<g>
							<path class="st11" d="M229.3,70c0-1.2-1-1.5-2.2-1.5s-2.2,0.3-2.2,1.5"/>
							<path class="st11" d="M220.5,69.8c0,1.2,1,1.5,2.2,1.5s2.2-0.3,2.2-1.5"/>
						</g>
					</g>
					<g>
						<g>
							<path class="st11" d="M220.5,70c0-1.2-1-1.5-2.2-1.5s-2.2,0.3-2.2,1.5"/>
							<path class="st11" d="M211.8,69.8c0,1.2,1,1.5,2.2,1.5s2.2-0.3,2.2-1.5"/>
						</g>
						<g>
							<path class="st11" d="M211.8,70c0-1.2-1-1.5-2.2-1.5s-2.2,0.3-2.2,1.5"/>
							<path class="st11" d="M203,69.8c0,1.2,1,1.5,2.2,1.5s2.2-0.3,2.2-1.5"/>
						</g>
					</g>
				</g>
			</g>
			<g>
				<g>
					<g>
						<g>
							<path class="st11" d="M203,70c0-1.2-1-1.5-2.2-1.5s-2.2,0.3-2.2,1.5"/>
							<path class="st11" d="M194.2,69.8c0,1.2,1,1.5,2.2,1.5s2.2-0.3,2.2-1.5"/>
						</g>
						<g>
							<path class="st11" d="M194.2,70c0-1.2-1-1.5-2.2-1.5s-2.2,0.3-2.2,1.5"/>
							<path class="st11" d="M185.5,69.8c0,1.2,1,1.5,2.2,1.5s2.2-0.3,2.2-1.5"/>
						</g>
					</g>
					<g>
						<g>
							<path class="st11" d="M185.5,70c0-1.2-1-1.5-2.2-1.5s-2.2,0.3-2.2,1.5"/>
						</g>
					</g>
				</g>
			</g>
		</g>
		<g class="st10">
			<g>
				<g>
					<g>
						<g>
							<path class="st11" d="M273.1,107c0-1.2-1-1.5-2.2-1.5s-2.2,0.3-2.2,1.5"/>
							<path class="st11" d="M264.4,106.7c0,1.2,1,1.5,2.2,1.5s2.2-0.3,2.2-1.5"/>
						</g>
						<g>
							<path class="st11" d="M264.4,107c0-1.2-1-1.5-2.2-1.5s-2.2,0.3-2.2,1.5"/>
							<path class="st11" d="M255.6,106.7c0,1.2,1,1.5,2.2,1.5s2.2-0.3,2.2-1.5"/>
						</g>
					</g>
					<g>
						<g>
							<path class="st11" d="M255.6,107c0-1.2-1-1.5-2.2-1.5s-2.2,0.3-2.2,1.5"/>
							<path class="st11" d="M246.8,106.7c0,1.2,1,1.5,2.2,1.5s2.2-0.3,2.2-1.5"/>
						</g>
						<g>
							<path class="st11" d="M246.8,107c0-1.2-1-1.5-2.2-1.5s-2.2,0.3-2.2,1.5"/>
							<path class="st11" d="M238.1,106.7c0,1.2,1,1.5,2.2,1.5s2.2-0.3,2.2-1.5"/>
						</g>
					</g>
				</g>
				<g>
					<g>
						<g>
							<path class="st11" d="M238.1,107c0-1.2-1-1.5-2.2-1.5s-2.2,0.3-2.2,1.5"/>
							<path class="st11" d="M229.3,106.7c0,1.2,1,1.5,2.2,1.5s2.2-0.3,2.2-1.5"/>
						</g>
						<g>
							<path class="st11" d="M229.3,107c0-1.2-1-1.5-2.2-1.5s-2.2,0.3-2.2,1.5"/>
							<path class="st11" d="M220.5,106.7c0,1.2,1,1.5,2.2,1.5s2.2-0.3,2.2-1.5"/>
						</g>
					</g>
					<g>
						<g>
							<path class="st11" d="M220.5,107c0-1.2-1-1.5-2.2-1.5s-2.2,0.3-2.2,1.5"/>
							<path class="st11" d="M211.8,106.7c0,1.2,1,1.5,2.2,1.5s2.2-0.3,2.2-1.5"/>
						</g>
						<g>
							<path class="st11" d="M211.8,107c0-1.2-1-1.5-2.2-1.5s-2.2,0.3-2.2,1.5"/>
							<path class="st11" d="M203,106.7c0,1.2,1,1.5,2.2,1.5s2.2-0.3,2.2-1.5"/>
						</g>
					</g>
				</g>
			</g>
			<g>
				<g>
					<g>
						<g>
							<path class="st11" d="M203,107c0-1.2-1-1.5-2.2-1.5s-2.2,0.3-2.2,1.5"/>
							<path class="st11" d="M194.2,106.7c0,1.2,1,1.5,2.2,1.5s2.2-0.3,2.2-1.5"/>
						</g>
						<g>
							<path class="st11" d="M194.2,107c0-1.2-1-1.5-2.2-1.5s-2.2,0.3-2.2,1.5"/>
							<path class="st11" d="M185.5,106.7c0,1.2,1,1.5,2.2,1.5s2.2-0.3,2.2-1.5"/>
						</g>
					</g>
					<g>
						<g>
							<path class="st11" d="M185.5,107c0-1.2-1-1.5-2.2-1.5s-2.2,0.3-2.2,1.5"/>
						</g>
					</g>
				</g>
			</g>
		</g>
		<g class="st10">
			<g>
				<g>
					<g>
						<g>
							<path class="st11" d="M273.1,77.4c0-1.2-1-1.5-2.2-1.5s-2.2,0.3-2.2,1.5"/>
							<path class="st11" d="M264.4,77.2c0,1.2,1,1.5,2.2,1.5s2.2-0.3,2.2-1.5"/>
						</g>
						<g>
							<path class="st11" d="M264.4,77.4c0-1.2-1-1.5-2.2-1.5s-2.2,0.3-2.2,1.5"/>
							<path class="st11" d="M255.6,77.2c0,1.2,1,1.5,2.2,1.5s2.2-0.3,2.2-1.5"/>
						</g>
					</g>
					<g>
						<g>
							<path class="st11" d="M255.6,77.4c0-1.2-1-1.5-2.2-1.5s-2.2,0.3-2.2,1.5"/>
							<path class="st11" d="M246.8,77.2c0,1.2,1,1.5,2.2,1.5s2.2-0.3,2.2-1.5"/>
						</g>
						<g>
							<path class="st11" d="M246.8,77.4c0-1.2-1-1.5-2.2-1.5s-2.2,0.3-2.2,1.5"/>
							<path class="st11" d="M238.1,77.2c0,1.2,1,1.5,2.2,1.5s2.2-0.3,2.2-1.5"/>
						</g>
					</g>
				</g>
				<g>
					<g>
						<g>
							<path class="st11" d="M238.1,77.4c0-1.2-1-1.5-2.2-1.5s-2.2,0.3-2.2,1.5"/>
							<path class="st11" d="M229.3,77.2c0,1.2,1,1.5,2.2,1.5s2.2-0.3,2.2-1.5"/>
						</g>
						<g>
							<path class="st11" d="M229.3,77.4c0-1.2-1-1.5-2.2-1.5s-2.2,0.3-2.2,1.5"/>
							<path class="st11" d="M220.5,77.2c0,1.2,1,1.5,2.2,1.5s2.2-0.3,2.2-1.5"/>
						</g>
					</g>
					<g>
						<g>
							<path class="st11" d="M220.5,77.4c0-1.2-1-1.5-2.2-1.5s-2.2,0.3-2.2,1.5"/>
							<path class="st11" d="M211.8,77.2c0,1.2,1,1.5,2.2,1.5s2.2-0.3,2.2-1.5"/>
						</g>
						<g>
							<path class="st11" d="M211.8,77.4c0-1.2-1-1.5-2.2-1.5s-2.2,0.3-2.2,1.5"/>
							<path class="st11" d="M203,77.2c0,1.2,1,1.5,2.2,1.5s2.2-0.3,2.2-1.5"/>
						</g>
					</g>
				</g>
			</g>
			<g>
				<g>
					<g>
						<g>
							<path class="st11" d="M203,77.4c0-1.2-1-1.5-2.2-1.5s-2.2,0.3-2.2,1.5"/>
							<path class="st11" d="M194.2,77.2c0,1.2,1,1.5,2.2,1.5s2.2-0.3,2.2-1.5"/>
						</g>
						<g>
							<path class="st11" d="M194.2,77.4c0-1.2-1-1.5-2.2-1.5s-2.2,0.3-2.2,1.5"/>
							<path class="st11" d="M185.5,77.2c0,1.2,1,1.5,2.2,1.5s2.2-0.3,2.2-1.5"/>
						</g>
					</g>
					<g>
						<g>
							<path class="st11" d="M185.5,77.4c0-1.2-1-1.5-2.2-1.5s-2.2,0.3-2.2,1.5"/>
						</g>
					</g>
				</g>
			</g>
		</g>
		<g class="st10">
			<g>
				<g>
					<g>
						<g>
							<path class="st11" d="M273.1,114.3c0-1.2-1-1.5-2.2-1.5s-2.2,0.3-2.2,1.5"/>
							<path class="st11" d="M264.4,114.1c0,1.2,1,1.5,2.2,1.5s2.2-0.3,2.2-1.5"/>
						</g>
						<g>
							<path class="st11" d="M264.4,114.3c0-1.2-1-1.5-2.2-1.5s-2.2,0.3-2.2,1.5"/>
							<path class="st11" d="M255.6,114.1c0,1.2,1,1.5,2.2,1.5s2.2-0.3,2.2-1.5"/>
						</g>
					</g>
					<g>
						<g>
							<path class="st11" d="M255.6,114.3c0-1.2-1-1.5-2.2-1.5s-2.2,0.3-2.2,1.5"/>
							<path class="st11" d="M246.8,114.1c0,1.2,1,1.5,2.2,1.5s2.2-0.3,2.2-1.5"/>
						</g>
						<g>
							<path class="st11" d="M246.8,114.3c0-1.2-1-1.5-2.2-1.5s-2.2,0.3-2.2,1.5"/>
							<path class="st11" d="M238.1,114.1c0,1.2,1,1.5,2.2,1.5s2.2-0.3,2.2-1.5"/>
						</g>
					</g>
				</g>
				<g>
					<g>
						<g>
							<path class="st11" d="M238.1,114.3c0-1.2-1-1.5-2.2-1.5s-2.2,0.3-2.2,1.5"/>
							<path class="st11" d="M229.3,114.1c0,1.2,1,1.5,2.2,1.5s2.2-0.3,2.2-1.5"/>
						</g>
						<g>
							<path class="st11" d="M229.3,114.3c0-1.2-1-1.5-2.2-1.5s-2.2,0.3-2.2,1.5"/>
							<path class="st11" d="M220.5,114.1c0,1.2,1,1.5,2.2,1.5s2.2-0.3,2.2-1.5"/>
						</g>
					</g>
					<g>
						<g>
							<path class="st11" d="M220.5,114.3c0-1.2-1-1.5-2.2-1.5s-2.2,0.3-2.2,1.5"/>
							<path class="st11" d="M211.8,114.1c0,1.2,1,1.5,2.2,1.5s2.2-0.3,2.2-1.5"/>
						</g>
						<g>
							<path class="st11" d="M211.8,114.3c0-1.2-1-1.5-2.2-1.5s-2.2,0.3-2.2,1.5"/>
							<path class="st11" d="M203,114.1c0,1.2,1,1.5,2.2,1.5s2.2-0.3,2.2-1.5"/>
						</g>
					</g>
				</g>
			</g>
			<g>
				<g>
					<g>
						<g>
							<path class="st11" d="M203,114.3c0-1.2-1-1.5-2.2-1.5s-2.2,0.3-2.2,1.5"/>
							<path class="st11" d="M194.2,114.1c0,1.2,1,1.5,2.2,1.5s2.2-0.3,2.2-1.5"/>
						</g>
						<g>
							<path class="st11" d="M194.2,114.3c0-1.2-1-1.5-2.2-1.5s-2.2,0.3-2.2,1.5"/>
							<path class="st11" d="M185.5,114.1c0,1.2,1,1.5,2.2,1.5s2.2-0.3,2.2-1.5"/>
						</g>
					</g>
					<g>
						<g>
							<path class="st11" d="M185.5,114.3c0-1.2-1-1.5-2.2-1.5s-2.2,0.3-2.2,1.5"/>
						</g>
					</g>
				</g>
			</g>
		</g>
		<g class="st10">
			<g>
				<g>
					<g>
						<g>
							<path class="st11" d="M273.1,84.8c0-1.2-1-1.5-2.2-1.5s-2.2,0.3-2.2,1.5"/>
							<path class="st11" d="M264.4,84.6c0,1.2,1,1.5,2.2,1.5s2.2-0.3,2.2-1.5"/>
						</g>
						<g>
							<path class="st11" d="M264.4,84.8c0-1.2-1-1.5-2.2-1.5s-2.2,0.3-2.2,1.5"/>
							<path class="st11" d="M255.6,84.6c0,1.2,1,1.5,2.2,1.5s2.2-0.3,2.2-1.5"/>
						</g>
					</g>
					<g>
						<g>
							<path class="st11" d="M255.6,84.8c0-1.2-1-1.5-2.2-1.5s-2.2,0.3-2.2,1.5"/>
							<path class="st11" d="M246.8,84.6c0,1.2,1,1.5,2.2,1.5s2.2-0.3,2.2-1.5"/>
						</g>
						<g>
							<path class="st11" d="M246.8,84.8c0-1.2-1-1.5-2.2-1.5s-2.2,0.3-2.2,1.5"/>
							<path class="st11" d="M238.1,84.6c0,1.2,1,1.5,2.2,1.5s2.2-0.3,2.2-1.5"/>
						</g>
					</g>
				</g>
				<g>
					<g>
						<g>
							<path class="st11" d="M238.1,84.8c0-1.2-1-1.5-2.2-1.5s-2.2,0.3-2.2,1.5"/>
							<path class="st11" d="M229.3,84.6c0,1.2,1,1.5,2.2,1.5s2.2-0.3,2.2-1.5"/>
						</g>
						<g>
							<path class="st11" d="M229.3,84.8c0-1.2-1-1.5-2.2-1.5s-2.2,0.3-2.2,1.5"/>
							<path class="st11" d="M220.5,84.6c0,1.2,1,1.5,2.2,1.5s2.2-0.3,2.2-1.5"/>
						</g>
					</g>
					<g>
						<g>
							<path class="st11" d="M220.5,84.8c0-1.2-1-1.5-2.2-1.5s-2.2,0.3-2.2,1.5"/>
							<path class="st11" d="M211.8,84.6c0,1.2,1,1.5,2.2,1.5s2.2-0.3,2.2-1.5"/>
						</g>
						<g>
							<path class="st11" d="M211.8,84.8c0-1.2-1-1.5-2.2-1.5s-2.2,0.3-2.2,1.5"/>
							<path class="st11" d="M203,84.6c0,1.2,1,1.5,2.2,1.5s2.2-0.3,2.2-1.5"/>
						</g>
					</g>
				</g>
			</g>
			<g>
				<g>
					<g>
						<g>
							<path class="st11" d="M203,84.8c0-1.2-1-1.5-2.2-1.5s-2.2,0.3-2.2,1.5"/>
							<path class="st11" d="M194.2,84.6c0,1.2,1,1.5,2.2,1.5s2.2-0.3,2.2-1.5"/>
						</g>
						<g>
							<path class="st11" d="M194.2,84.8c0-1.2-1-1.5-2.2-1.5s-2.2,0.3-2.2,1.5"/>
							<path class="st11" d="M185.5,84.6c0,1.2,1,1.5,2.2,1.5s2.2-0.3,2.2-1.5"/>
						</g>
					</g>
					<g>
						<g>
							<path class="st11" d="M185.5,84.8c0-1.2-1-1.5-2.2-1.5s-2.2,0.3-2.2,1.5"/>
						</g>
					</g>
				</g>
			</g>
		</g>
		<g class="st10">
			<g>
				<g>
					<g>
						<g>
							<path class="st11" d="M273.1,121.7c0-1.2-1-1.5-2.2-1.5s-2.2,0.3-2.2,1.5"/>
							<path class="st11" d="M264.4,121.5c0,1.2,1,1.5,2.2,1.5s2.2-0.3,2.2-1.5"/>
						</g>
						<g>
							<path class="st11" d="M264.4,121.7c0-1.2-1-1.5-2.2-1.5s-2.2,0.3-2.2,1.5"/>
							<path class="st11" d="M255.6,121.5c0,1.2,1,1.5,2.2,1.5s2.2-0.3,2.2-1.5"/>
						</g>
					</g>
					<g>
						<g>
							<path class="st11" d="M255.6,121.7c0-1.2-1-1.5-2.2-1.5s-2.2,0.3-2.2,1.5"/>
							<path class="st11" d="M246.8,121.5c0,1.2,1,1.5,2.2,1.5s2.2-0.3,2.2-1.5"/>
						</g>
						<g>
							<path class="st11" d="M246.8,121.7c0-1.2-1-1.5-2.2-1.5s-2.2,0.3-2.2,1.5"/>
							<path class="st11" d="M238.1,121.5c0,1.2,1,1.5,2.2,1.5s2.2-0.3,2.2-1.5"/>
						</g>
					</g>
				</g>
				<g>
					<g>
						<g>
							<path class="st11" d="M238.1,121.7c0-1.2-1-1.5-2.2-1.5s-2.2,0.3-2.2,1.5"/>
							<path class="st11" d="M229.3,121.5c0,1.2,1,1.5,2.2,1.5s2.2-0.3,2.2-1.5"/>
						</g>
						<g>
							<path class="st11" d="M229.3,121.7c0-1.2-1-1.5-2.2-1.5s-2.2,0.3-2.2,1.5"/>
							<path class="st11" d="M220.5,121.5c0,1.2,1,1.5,2.2,1.5s2.2-0.3,2.2-1.5"/>
						</g>
					</g>
					<g>
						<g>
							<path class="st11" d="M220.5,121.7c0-1.2-1-1.5-2.2-1.5s-2.2,0.3-2.2,1.5"/>
							<path class="st11" d="M211.8,121.5c0,1.2,1,1.5,2.2,1.5s2.2-0.3,2.2-1.5"/>
						</g>
						<g>
							<path class="st11" d="M211.8,121.7c0-1.2-1-1.5-2.2-1.5s-2.2,0.3-2.2,1.5"/>
							<path class="st11" d="M203,121.5c0,1.2,1,1.5,2.2,1.5s2.2-0.3,2.2-1.5"/>
						</g>
					</g>
				</g>
			</g>
			<g>
				<g>
					<g>
						<g>
							<path class="st11" d="M203,121.7c0-1.2-1-1.5-2.2-1.5s-2.2,0.3-2.2,1.5"/>
							<path class="st11" d="M194.2,121.5c0,1.2,1,1.5,2.2,1.5s2.2-0.3,2.2-1.5"/>
						</g>
						<g>
							<path class="st11" d="M194.2,121.7c0-1.2-1-1.5-2.2-1.5s-2.2,0.3-2.2,1.5"/>
							<path class="st11" d="M185.5,121.5c0,1.2,1,1.5,2.2,1.5s2.2-0.3,2.2-1.5"/>
						</g>
					</g>
					<g>
						<g>
							<path class="st11" d="M185.5,121.7c0-1.2-1-1.5-2.2-1.5s-2.2,0.3-2.2,1.5"/>
						</g>
					</g>
				</g>
			</g>
		</g>
		<g class="st10">
			<g>
				<g>
					<g>
						<g>
							<path class="st11" d="M273.1,55.3c0-1.2-1-1.5-2.2-1.5s-2.2,0.3-2.2,1.5"/>
							<path class="st11" d="M264.4,55c0,1.2,1,1.5,2.2,1.5s2.2-0.3,2.2-1.5"/>
						</g>
						<g>
							<path class="st11" d="M264.4,55.3c0-1.2-1-1.5-2.2-1.5s-2.2,0.3-2.2,1.5"/>
							<path class="st11" d="M255.6,55c0,1.2,1,1.5,2.2,1.5s2.2-0.3,2.2-1.5"/>
						</g>
					</g>
					<g>
						<g>
							<path class="st11" d="M255.6,55.3c0-1.2-1-1.5-2.2-1.5s-2.2,0.3-2.2,1.5"/>
							<path class="st11" d="M246.8,55c0,1.2,1,1.5,2.2,1.5s2.2-0.3,2.2-1.5"/>
						</g>
						<g>
							<path class="st11" d="M246.8,55.3c0-1.2-1-1.5-2.2-1.5s-2.2,0.3-2.2,1.5"/>
							<path class="st11" d="M238.1,55c0,1.2,1,1.5,2.2,1.5s2.2-0.3,2.2-1.5"/>
						</g>
					</g>
				</g>
				<g>
					<g>
						<g>
							<path class="st11" d="M238.1,55.3c0-1.2-1-1.5-2.2-1.5s-2.2,0.3-2.2,1.5"/>
							<path class="st11" d="M229.3,55c0,1.2,1,1.5,2.2,1.5s2.2-0.3,2.2-1.5"/>
						</g>
						<g>
							<path class="st11" d="M224.9,55.3c0-1.2,1-1.5,2.2-1.5s2.2,0.3,2.2,1.5"/>
							<path class="st11" d="M220.5,55c0,1.2,1,1.5,2.2,1.5s2.2-0.3,2.2-1.5"/>
						</g>
					</g>
					<g>
						<g>
							<path class="st11" d="M220.5,55.3c0-1.2-1-1.5-2.2-1.5s-2.2,0.3-2.2,1.5"/>
							<path class="st11" d="M211.8,55c0,1.2,1,1.5,2.2,1.5s2.2-0.3,2.2-1.5"/>
						</g>
						<g>
							<path class="st11" d="M211.8,55.3c0-1.2-1-1.5-2.2-1.5s-2.2,0.3-2.2,1.5"/>
							<path class="st11" d="M203,55c0,1.2,1,1.5,2.2,1.5s2.2-0.3,2.2-1.5"/>
						</g>
					</g>
				</g>
			</g>
			<g>
				<g>
					<g>
						<g>
							<path class="st11" d="M203,55.3c0-1.2-1-1.5-2.2-1.5s-2.2,0.3-2.2,1.5"/>
							<path class="st11" d="M194.2,55c0,1.2,1,1.5,2.2,1.5s2.2-0.3,2.2-1.5"/>
						</g>
						<g>
							<path class="st11" d="M194.2,55.3c0-1.2-1-1.5-2.2-1.5s-2.2,0.3-2.2,1.5"/>
							<path class="st11" d="M185.5,55c0,1.2,1,1.5,2.2,1.5s2.2-0.3,2.2-1.5"/>
						</g>
					</g>
					<g>
						<g>
							<path class="st11" d="M185.5,55.3c0-1.2-1-1.5-2.2-1.5s-2.2,0.3-2.2,1.5"/>
						</g>
					</g>
				</g>
			</g>
		</g>
	</g>
	<g>
		<g class="st10">
			<g>
				<g>
					<g>
						<g>
							<path class="st11" d="M273.1,88.7c0-1.2-1-1.5-2.2-1.5s-2.2,0.3-2.2,1.5"/>
							<path class="st11" d="M264.4,88.4c0,1.2,1,1.5,2.2,1.5s2.2-0.3,2.2-1.5"/>
						</g>
						<g>
							<path class="st11" d="M264.4,88.7c0-1.2-1-1.5-2.2-1.5s-2.2,0.3-2.2,1.5"/>
							<path class="st11" d="M255.6,88.4c0,1.2,1,1.5,2.2,1.5s2.2-0.3,2.2-1.5"/>
						</g>
					</g>
					<g>
						<g>
							<path class="st11" d="M255.6,88.7c0-1.2-1-1.5-2.2-1.5s-2.2,0.3-2.2,1.5"/>
							<path class="st11" d="M246.8,88.4c0,1.2,1,1.5,2.2,1.5s2.2-0.3,2.2-1.5"/>
						</g>
						<g>
							<path class="st11" d="M246.8,88.7c0-1.2-1-1.5-2.2-1.5s-2.2,0.3-2.2,1.5"/>
							<path class="st11" d="M238.1,88.4c0,1.2,1,1.5,2.2,1.5s2.2-0.3,2.2-1.5"/>
						</g>
					</g>
				</g>
				<g>
					<g>
						<g>
							<path class="st11" d="M238.1,88.7c0-1.2-1-1.5-2.2-1.5s-2.2,0.3-2.2,1.5"/>
							<path class="st11" d="M229.3,88.4c0,1.2,1,1.5,2.2,1.5s2.2-0.3,2.2-1.5"/>
						</g>
						<g>
							<path class="st11" d="M229.3,88.7c0-1.2-1-1.5-2.2-1.5s-2.2,0.3-2.2,1.5"/>
							<path class="st11" d="M220.5,88.4c0,1.2,1,1.5,2.2,1.5s2.2-0.3,2.2-1.5"/>
						</g>
					</g>
					<g>
						<g>
							<path class="st11" d="M220.5,88.7c0-1.2-1-1.5-2.2-1.5s-2.2,0.3-2.2,1.5"/>
							<path class="st11" d="M211.8,88.4c0,1.2,1,1.5,2.2,1.5s2.2-0.3,2.2-1.5"/>
						</g>
						<g>
							<path class="st11" d="M211.8,88.7c0-1.2-1-1.5-2.2-1.5s-2.2,0.3-2.2,1.5"/>
							<path class="st11" d="M203,88.4c0,1.2,1,1.5,2.2,1.5s2.2-0.3,2.2-1.5"/>
						</g>
					</g>
				</g>
			</g>
			<g>
				<g>
					<g>
						<g>
							<path class="st11" d="M203,88.7c0-1.2-1-1.5-2.2-1.5s-2.2,0.3-2.2,1.5"/>
							<path class="st11" d="M194.2,88.4c0,1.2,1,1.5,2.2,1.5s2.2-0.3,2.2-1.5"/>
						</g>
						<g>
							<path class="st11" d="M194.2,88.7c0-1.2-1-1.5-2.2-1.5s-2.2,0.3-2.2,1.5"/>
							<path class="st11" d="M185.5,88.4c0,1.2,1,1.5,2.2,1.5s2.2-0.3,2.2-1.5"/>
						</g>
					</g>
					<g>
						<g>
							<path class="st11" d="M185.5,88.7c0-1.2-1-1.5-2.2-1.5s-2.2,0.3-2.2,1.5"/>
						</g>
					</g>
				</g>
			</g>
		</g>
		<g class="st10">
			<g>
				<g>
					<g>
						<g>
							<path class="st11" d="M273.1,59.1c0-1.2-1-1.5-2.2-1.5s-2.2,0.3-2.2,1.5"/>
							<path class="st11" d="M264.4,58.9c0,1.2,1,1.5,2.2,1.5s2.2-0.3,2.2-1.5"/>
						</g>
						<g>
							<path class="st11" d="M264.4,59.1c0-1.2-1-1.5-2.2-1.5s-2.2,0.3-2.2,1.5"/>
							<path class="st11" d="M255.6,58.9c0,1.2,1,1.5,2.2,1.5s2.2-0.3,2.2-1.5"/>
						</g>
					</g>
					<g>
						<g>
							<path class="st11" d="M255.6,59.1c0-1.2-1-1.5-2.2-1.5s-2.2,0.3-2.2,1.5"/>
							<path class="st11" d="M246.8,58.9c0,1.2,1,1.5,2.2,1.5s2.2-0.3,2.2-1.5"/>
						</g>
						<g>
							<path class="st11" d="M246.8,59.1c0-1.2-1-1.5-2.2-1.5s-2.2,0.3-2.2,1.5"/>
							<path class="st11" d="M238.1,58.9c0,1.2,1,1.5,2.2,1.5s2.2-0.3,2.2-1.5"/>
						</g>
					</g>
				</g>
				<g>
					<g>
						<g>
							<path class="st11" d="M238.1,59.1c0-1.2-1-1.5-2.2-1.5s-2.2,0.3-2.2,1.5"/>
							<path class="st11" d="M229.3,58.9c0,1.2,1,1.5,2.2,1.5s2.2-0.3,2.2-1.5"/>
						</g>
						<g>
							<path class="st11" d="M229.3,59.1c0-1.2-1-1.5-2.2-1.5s-2.2,0.3-2.2,1.5"/>
							<path class="st11" d="M220.5,58.9c0,1.2,1,1.5,2.2,1.5s2.2-0.3,2.2-1.5"/>
						</g>
					</g>
					<g>
						<g>
							<path class="st11" d="M220.5,59.1c0-1.2-1-1.5-2.2-1.5s-2.2,0.3-2.2,1.5"/>
							<path class="st11" d="M211.8,58.9c0,1.2,1,1.5,2.2,1.5s2.2-0.3,2.2-1.5"/>
						</g>
						<g>
							<path class="st11" d="M211.8,59.1c0-1.2-1-1.5-2.2-1.5s-2.2,0.3-2.2,1.5"/>
							<path class="st11" d="M203,58.9c0,1.2,1,1.5,2.2,1.5s2.2-0.3,2.2-1.5"/>
						</g>
					</g>
				</g>
			</g>
			<g>
				<g>
					<g>
						<g>
							<path class="st11" d="M203,59.1c0-1.2-1-1.5-2.2-1.5s-2.2,0.3-2.2,1.5"/>
							<path class="st11" d="M194.2,58.9c0,1.2,1,1.5,2.2,1.5s2.2-0.3,2.2-1.5"/>
						</g>
						<g>
							<path class="st11" d="M194.2,59.1c0-1.2-1-1.5-2.2-1.5s-2.2,0.3-2.2,1.5"/>
							<path class="st11" d="M185.5,58.9c0,1.2,1,1.5,2.2,1.5s2.2-0.3,2.2-1.5"/>
						</g>
					</g>
					<g>
						<g>
							<path class="st11" d="M185.5,59.1c0-1.2-1-1.5-2.2-1.5s-2.2,0.3-2.2,1.5"/>
						</g>
					</g>
				</g>
			</g>
		</g>
		<g class="st10">
			<g>
				<g>
					<g>
						<g>
							<path class="st11" d="M273.1,96.1c0-1.2-1-1.5-2.2-1.5s-2.2,0.3-2.2,1.5"/>
							<path class="st11" d="M264.4,95.8c0,1.2,1,1.5,2.2,1.5s2.2-0.3,2.2-1.5"/>
						</g>
						<g>
							<path class="st11" d="M264.4,96.1c0-1.2-1-1.5-2.2-1.5s-2.2,0.3-2.2,1.5"/>
							<path class="st11" d="M255.6,95.8c0,1.2,1,1.5,2.2,1.5s2.2-0.3,2.2-1.5"/>
						</g>
					</g>
					<g>
						<g>
							<path class="st11" d="M255.6,96.1c0-1.2-1-1.5-2.2-1.5s-2.2,0.3-2.2,1.5"/>
							<path class="st11" d="M246.8,95.8c0,1.2,1,1.5,2.2,1.5s2.2-0.3,2.2-1.5"/>
						</g>
						<g>
							<path class="st11" d="M246.8,96.1c0-1.2-1-1.5-2.2-1.5s-2.2,0.3-2.2,1.5"/>
							<path class="st11" d="M238.1,95.8c0,1.2,1,1.5,2.2,1.5s2.2-0.3,2.2-1.5"/>
						</g>
					</g>
				</g>
				<g>
					<g>
						<g>
							<path class="st11" d="M238.1,96.1c0-1.2-1-1.5-2.2-1.5s-2.2,0.3-2.2,1.5"/>
							<path class="st11" d="M229.3,95.8c0,1.2,1,1.5,2.2,1.5s2.2-0.3,2.2-1.5"/>
						</g>
						<g>
							<path class="st11" d="M229.3,96.1c0-1.2-1-1.5-2.2-1.5s-2.2,0.3-2.2,1.5"/>
							<path class="st11" d="M220.5,95.8c0,1.2,1,1.5,2.2,1.5s2.2-0.3,2.2-1.5"/>
						</g>
					</g>
					<g>
						<g>
							<path class="st11" d="M220.5,96.1c0-1.2-1-1.5-2.2-1.5s-2.2,0.3-2.2,1.5"/>
							<path class="st11" d="M211.8,95.8c0,1.2,1,1.5,2.2,1.5s2.2-0.3,2.2-1.5"/>
						</g>
						<g>
							<path class="st11" d="M211.8,96.1c0-1.2-1-1.5-2.2-1.5s-2.2,0.3-2.2,1.5"/>
							<path class="st11" d="M203,95.8c0,1.2,1,1.5,2.2,1.5s2.2-0.3,2.2-1.5"/>
						</g>
					</g>
				</g>
			</g>
			<g>
				<g>
					<g>
						<g>
							<path class="st11" d="M203,96.1c0-1.2-1-1.5-2.2-1.5s-2.2,0.3-2.2,1.5"/>
							<path class="st11" d="M194.2,95.8c0,1.2,1,1.5,2.2,1.5s2.2-0.3,2.2-1.5"/>
						</g>
						<g>
							<path class="st11" d="M194.2,96.1c0-1.2-1-1.5-2.2-1.5s-2.2,0.3-2.2,1.5"/>
							<path class="st11" d="M185.5,95.8c0,1.2,1,1.5,2.2,1.5s2.2-0.3,2.2-1.5"/>
						</g>
					</g>
					<g>
						<g>
							<path class="st11" d="M185.5,96.1c0-1.2-1-1.5-2.2-1.5s-2.2,0.3-2.2,1.5"/>
						</g>
					</g>
				</g>
			</g>
		</g>
		<g class="st10">
			<g>
				<g>
					<g>
						<g>
							<path class="st11" d="M273.1,66.5c0-1.2-1-1.5-2.2-1.5s-2.2,0.3-2.2,1.5"/>
							<path class="st11" d="M264.4,66.3c0,1.2,1,1.5,2.2,1.5s2.2-0.3,2.2-1.5"/>
						</g>
						<g>
							<path class="st11" d="M264.4,66.5c0-1.2-1-1.5-2.2-1.5s-2.2,0.3-2.2,1.5"/>
							<path class="st11" d="M255.6,66.3c0,1.2,1,1.5,2.2,1.5s2.2-0.3,2.2-1.5"/>
						</g>
					</g>
					<g>
						<g>
							<path class="st11" d="M255.6,66.5c0-1.2-1-1.5-2.2-1.5s-2.2,0.3-2.2,1.5"/>
							<path class="st11" d="M246.8,66.3c0,1.2,1,1.5,2.2,1.5s2.2-0.3,2.2-1.5"/>
						</g>
						<g>
							<path class="st11" d="M246.8,66.5c0-1.2-1-1.5-2.2-1.5s-2.2,0.3-2.2,1.5"/>
							<path class="st11" d="M238.1,66.3c0,1.2,1,1.5,2.2,1.5s2.2-0.3,2.2-1.5"/>
						</g>
					</g>
				</g>
				<g>
					<g>
						<g>
							<path class="st11" d="M238.1,66.5c0-1.2-1-1.5-2.2-1.5s-2.2,0.3-2.2,1.5"/>
							<path class="st11" d="M229.3,66.3c0,1.2,1,1.5,2.2,1.5s2.2-0.3,2.2-1.5"/>
						</g>
						<g>
							<path class="st11" d="M229.3,66.5c0-1.2-1-1.5-2.2-1.5s-2.2,0.3-2.2,1.5"/>
							<path class="st11" d="M220.5,66.3c0,1.2,1,1.5,2.2,1.5s2.2-0.3,2.2-1.5"/>
						</g>
					</g>
					<g>
						<g>
							<path class="st11" d="M220.5,66.5c0-1.2-1-1.5-2.2-1.5s-2.2,0.3-2.2,1.5"/>
							<path class="st11" d="M211.8,66.3c0,1.2,1,1.5,2.2,1.5s2.2-0.3,2.2-1.5"/>
						</g>
						<g>
							<path class="st11" d="M211.8,66.5c0-1.2-1-1.5-2.2-1.5s-2.2,0.3-2.2,1.5"/>
							<path class="st11" d="M203,66.3c0,1.2,1,1.5,2.2,1.5s2.2-0.3,2.2-1.5"/>
						</g>
					</g>
				</g>
			</g>
			<g>
				<g>
					<g>
						<g>
							<path class="st11" d="M203,66.5c0-1.2-1-1.5-2.2-1.5s-2.2,0.3-2.2,1.5"/>
							<path class="st11" d="M194.2,66.3c0,1.2,1,1.5,2.2,1.5s2.2-0.3,2.2-1.5"/>
						</g>
						<g>
							<path class="st11" d="M194.2,66.5c0-1.2-1-1.5-2.2-1.5s-2.2,0.3-2.2,1.5"/>
							<path class="st11" d="M185.5,66.3c0,1.2,1,1.5,2.2,1.5s2.2-0.3,2.2-1.5"/>
						</g>
					</g>
					<g>
						<g>
							<path class="st11" d="M185.5,66.5c0-1.2-1-1.5-2.2-1.5s-2.2,0.3-2.2,1.5"/>
						</g>
					</g>
				</g>
			</g>
		</g>
		<g class="st10">
			<g>
				<g>
					<g>
						<g>
							<path class="st11" d="M273.1,103.4c0-1.2-1-1.5-2.2-1.5s-2.2,0.3-2.2,1.5"/>
							<path class="st11" d="M264.4,103.2c0,1.2,1,1.5,2.2,1.5s2.2-0.3,2.2-1.5"/>
						</g>
						<g>
							<path class="st11" d="M264.4,103.4c0-1.2-1-1.5-2.2-1.5s-2.2,0.3-2.2,1.5"/>
							<path class="st11" d="M255.6,103.2c0,1.2,1,1.5,2.2,1.5s2.2-0.3,2.2-1.5"/>
						</g>
					</g>
					<g>
						<g>
							<path class="st11" d="M255.6,103.4c0-1.2-1-1.5-2.2-1.5s-2.2,0.3-2.2,1.5"/>
							<path class="st11" d="M246.8,103.2c0,1.2,1,1.5,2.2,1.5s2.2-0.3,2.2-1.5"/>
						</g>
						<g>
							<path class="st11" d="M246.8,103.4c0-1.2-1-1.5-2.2-1.5s-2.2,0.3-2.2,1.5"/>
							<path class="st11" d="M238.1,103.2c0,1.2,1,1.5,2.2,1.5s2.2-0.3,2.2-1.5"/>
						</g>
					</g>
				</g>
				<g>
					<g>
						<g>
							<path class="st11" d="M238.1,103.4c0-1.2-1-1.5-2.2-1.5s-2.2,0.3-2.2,1.5"/>
							<path class="st11" d="M229.3,103.2c0,1.2,1,1.5,2.2,1.5s2.2-0.3,2.2-1.5"/>
						</g>
						<g>
							<path class="st11" d="M229.3,103.4c0-1.2-1-1.5-2.2-1.5s-2.2,0.3-2.2,1.5"/>
							<path class="st11" d="M220.5,103.2c0,1.2,1,1.5,2.2,1.5s2.2-0.3,2.2-1.5"/>
						</g>
					</g>
					<g>
						<g>
							<path class="st11" d="M220.5,103.4c0-1.2-1-1.5-2.2-1.5s-2.2,0.3-2.2,1.5"/>
							<path class="st11" d="M211.8,103.2c0,1.2,1,1.5,2.2,1.5s2.2-0.3,2.2-1.5"/>
						</g>
						<g>
							<path class="st11" d="M211.8,103.4c0-1.2-1-1.5-2.2-1.5s-2.2,0.3-2.2,1.5"/>
							<path class="st11" d="M203,103.2c0,1.2,1,1.5,2.2,1.5s2.2-0.3,2.2-1.5"/>
						</g>
					</g>
				</g>
			</g>
			<g>
				<g>
					<g>
						<g>
							<path class="st11" d="M203,103.4c0-1.2-1-1.5-2.2-1.5s-2.2,0.3-2.2,1.5"/>
							<path class="st11" d="M194.2,103.2c0,1.2,1,1.5,2.2,1.5s2.2-0.3,2.2-1.5"/>
						</g>
						<g>
							<path class="st11" d="M194.2,103.4c0-1.2-1-1.5-2.2-1.5s-2.2,0.3-2.2,1.5"/>
							<path class="st11" d="M185.5,103.2c0,1.2,1,1.5,2.2,1.5s2.2-0.3,2.2-1.5"/>
						</g>
					</g>
					<g>
						<g>
							<path class="st11" d="M185.5,103.4c0-1.2-1-1.5-2.2-1.5s-2.2,0.3-2.2,1.5"/>
						</g>
					</g>
				</g>
			</g>
		</g>
		<g class="st10">
			<g>
				<g>
					<g>
						<g>
							<path class="st11" d="M273.1,73.9c0-1.2-1-1.5-2.2-1.5s-2.2,0.3-2.2,1.5"/>
							<path class="st11" d="M264.4,73.7c0,1.2,1,1.5,2.2,1.5s2.2-0.3,2.2-1.5"/>
						</g>
						<g>
							<path class="st11" d="M264.4,73.9c0-1.2-1-1.5-2.2-1.5s-2.2,0.3-2.2,1.5"/>
							<path class="st11" d="M255.6,73.7c0,1.2,1,1.5,2.2,1.5s2.2-0.3,2.2-1.5"/>
						</g>
					</g>
					<g>
						<g>
							<path class="st11" d="M255.6,73.9c0-1.2-1-1.5-2.2-1.5s-2.2,0.3-2.2,1.5"/>
							<path class="st11" d="M246.8,73.7c0,1.2,1,1.5,2.2,1.5s2.2-0.3,2.2-1.5"/>
						</g>
						<g>
							<path class="st11" d="M246.8,73.9c0-1.2-1-1.5-2.2-1.5s-2.2,0.3-2.2,1.5"/>
							<path class="st11" d="M238.1,73.7c0,1.2,1,1.5,2.2,1.5s2.2-0.3,2.2-1.5"/>
						</g>
					</g>
				</g>
				<g>
					<g>
						<g>
							<path class="st11" d="M238.1,73.9c0-1.2-1-1.5-2.2-1.5s-2.2,0.3-2.2,1.5"/>
							<path class="st11" d="M229.3,73.7c0,1.2,1,1.5,2.2,1.5s2.2-0.3,2.2-1.5"/>
						</g>
						<g>
							<path class="st11" d="M229.3,73.9c0-1.2-1-1.5-2.2-1.5s-2.2,0.3-2.2,1.5"/>
							<path class="st11" d="M220.5,73.7c0,1.2,1,1.5,2.2,1.5s2.2-0.3,2.2-1.5"/>
						</g>
					</g>
					<g>
						<g>
							<path class="st11" d="M220.5,73.9c0-1.2-1-1.5-2.2-1.5s-2.2,0.3-2.2,1.5"/>
							<path class="st11" d="M211.8,73.7c0,1.2,1,1.5,2.2,1.5s2.2-0.3,2.2-1.5"/>
						</g>
						<g>
							<path class="st11" d="M211.8,73.9c0-1.2-1-1.5-2.2-1.5s-2.2,0.3-2.2,1.5"/>
							<path class="st11" d="M203,73.7c0,1.2,1,1.5,2.2,1.5s2.2-0.3,2.2-1.5"/>
						</g>
					</g>
				</g>
			</g>
			<g>
				<g>
					<g>
						<g>
							<path class="st11" d="M203,73.9c0-1.2-1-1.5-2.2-1.5s-2.2,0.3-2.2,1.5"/>
							<path class="st11" d="M194.2,73.7c0,1.2,1,1.5,2.2,1.5s2.2-0.3,2.2-1.5"/>
						</g>
						<g>
							<path class="st11" d="M194.2,73.9c0-1.2-1-1.5-2.2-1.5s-2.2,0.3-2.2,1.5"/>
							<path class="st11" d="M185.5,73.7c0,1.2,1,1.5,2.2,1.5s2.2-0.3,2.2-1.5"/>
						</g>
					</g>
					<g>
						<g>
							<path class="st11" d="M185.5,73.9c0-1.2-1-1.5-2.2-1.5s-2.2,0.3-2.2,1.5"/>
						</g>
					</g>
				</g>
			</g>
		</g>
		<g class="st10">
			<g>
				<g>
					<g>
						<g>
							<path class="st11" d="M273.1,110.8c0-1.2-1-1.5-2.2-1.5s-2.2,0.3-2.2,1.5"/>
							<path class="st11" d="M264.4,110.6c0,1.2,1,1.5,2.2,1.5s2.2-0.3,2.2-1.5"/>
						</g>
						<g>
							<path class="st11" d="M264.4,110.8c0-1.2-1-1.5-2.2-1.5s-2.2,0.3-2.2,1.5"/>
							<path class="st11" d="M255.6,110.6c0,1.2,1,1.5,2.2,1.5s2.2-0.3,2.2-1.5"/>
						</g>
					</g>
					<g>
						<g>
							<path class="st11" d="M255.6,110.8c0-1.2-1-1.5-2.2-1.5s-2.2,0.3-2.2,1.5"/>
							<path class="st11" d="M246.8,110.6c0,1.2,1,1.5,2.2,1.5s2.2-0.3,2.2-1.5"/>
						</g>
						<g>
							<path class="st11" d="M246.8,110.8c0-1.2-1-1.5-2.2-1.5s-2.2,0.3-2.2,1.5"/>
							<path class="st11" d="M238.1,110.6c0,1.2,1,1.5,2.2,1.5s2.2-0.3,2.2-1.5"/>
						</g>
					</g>
				</g>
				<g>
					<g>
						<g>
							<path class="st11" d="M238.1,110.8c0-1.2-1-1.5-2.2-1.5s-2.2,0.3-2.2,1.5"/>
							<path class="st11" d="M229.3,110.6c0,1.2,1,1.5,2.2,1.5s2.2-0.3,2.2-1.5"/>
						</g>
						<g>
							<path class="st11" d="M229.3,110.8c0-1.2-1-1.5-2.2-1.5s-2.2,0.3-2.2,1.5"/>
							<path class="st11" d="M220.5,110.6c0,1.2,1,1.5,2.2,1.5s2.2-0.3,2.2-1.5"/>
						</g>
					</g>
					<g>
						<g>
							<path class="st11" d="M220.5,110.8c0-1.2-1-1.5-2.2-1.5s-2.2,0.3-2.2,1.5"/>
							<path class="st11" d="M211.8,110.6c0,1.2,1,1.5,2.2,1.5s2.2-0.3,2.2-1.5"/>
						</g>
						<g>
							<path class="st11" d="M211.8,110.8c0-1.2-1-1.5-2.2-1.5s-2.2,0.3-2.2,1.5"/>
							<path class="st11" d="M203,110.6c0,1.2,1,1.5,2.2,1.5s2.2-0.3,2.2-1.5"/>
						</g>
					</g>
				</g>
			</g>
			<g>
				<g>
					<g>
						<g>
							<path class="st11" d="M203,110.8c0-1.2-1-1.5-2.2-1.5s-2.2,0.3-2.2,1.5"/>
							<path class="st11" d="M194.2,110.6c0,1.2,1,1.5,2.2,1.5s2.2-0.3,2.2-1.5"/>
						</g>
						<g>
							<path class="st11" d="M194.2,110.8c0-1.2-1-1.5-2.2-1.5s-2.2,0.3-2.2,1.5"/>
							<path class="st11" d="M185.5,110.6c0,1.2,1,1.5,2.2,1.5s2.2-0.3,2.2-1.5"/>
						</g>
					</g>
					<g>
						<g>
							<path class="st11" d="M185.5,110.8c0-1.2-1-1.5-2.2-1.5s-2.2,0.3-2.2,1.5"/>
						</g>
					</g>
				</g>
			</g>
		</g>
		<g class="st10">
			<g>
				<g>
					<g>
						<g>
							<path class="st11" d="M273.1,81.3c0-1.2-1-1.5-2.2-1.5s-2.2,0.3-2.2,1.5"/>
							<path class="st11" d="M264.4,81.1c0,1.2,1,1.5,2.2,1.5s2.2-0.3,2.2-1.5"/>
						</g>
						<g>
							<path class="st11" d="M264.4,81.3c0-1.2-1-1.5-2.2-1.5s-2.2,0.3-2.2,1.5"/>
							<path class="st11" d="M255.6,81.1c0,1.2,1,1.5,2.2,1.5s2.2-0.3,2.2-1.5"/>
						</g>
					</g>
					<g>
						<g>
							<path class="st11" d="M255.6,81.3c0-1.2-1-1.5-2.2-1.5s-2.2,0.3-2.2,1.5"/>
							<path class="st11" d="M246.8,81.1c0,1.2,1,1.5,2.2,1.5s2.2-0.3,2.2-1.5"/>
						</g>
						<g>
							<path class="st11" d="M246.8,81.3c0-1.2-1-1.5-2.2-1.5s-2.2,0.3-2.2,1.5"/>
							<path class="st11" d="M238.1,81.1c0,1.2,1,1.5,2.2,1.5s2.2-0.3,2.2-1.5"/>
						</g>
					</g>
				</g>
				<g>
					<g>
						<g>
							<path class="st11" d="M238.1,81.3c0-1.2-1-1.5-2.2-1.5s-2.2,0.3-2.2,1.5"/>
							<path class="st11" d="M229.3,81.1c0,1.2,1,1.5,2.2,1.5s2.2-0.3,2.2-1.5"/>
						</g>
						<g>
							<path class="st11" d="M229.3,81.3c0-1.2-1-1.5-2.2-1.5s-2.2,0.3-2.2,1.5"/>
							<path class="st11" d="M220.5,81.1c0,1.2,1,1.5,2.2,1.5s2.2-0.3,2.2-1.5"/>
						</g>
					</g>
					<g>
						<g>
							<path class="st11" d="M220.5,81.3c0-1.2-1-1.5-2.2-1.5s-2.2,0.3-2.2,1.5"/>
							<path class="st11" d="M211.8,81.1c0,1.2,1,1.5,2.2,1.5s2.2-0.3,2.2-1.5"/>
						</g>
						<g>
							<path class="st11" d="M211.8,81.3c0-1.2-1-1.5-2.2-1.5s-2.2,0.3-2.2,1.5"/>
							<path class="st11" d="M203,81.1c0,1.2,1,1.5,2.2,1.5s2.2-0.3,2.2-1.5"/>
						</g>
					</g>
				</g>
			</g>
			<g>
				<g>
					<g>
						<g>
							<path class="st11" d="M203,81.3c0-1.2-1-1.5-2.2-1.5s-2.2,0.3-2.2,1.5"/>
							<path class="st11" d="M194.2,81.1c0,1.2,1,1.5,2.2,1.5s2.2-0.3,2.2-1.5"/>
						</g>
						<g>
							<path class="st11" d="M194.2,81.3c0-1.2-1-1.5-2.2-1.5s-2.2,0.3-2.2,1.5"/>
							<path class="st11" d="M185.5,81.1c0,1.2,1,1.5,2.2,1.5s2.2-0.3,2.2-1.5"/>
						</g>
					</g>
					<g>
						<g>
							<path class="st11" d="M185.5,81.3c0-1.2-1-1.5-2.2-1.5s-2.2,0.3-2.2,1.5"/>
						</g>
					</g>
				</g>
			</g>
		</g>
		<g class="st10">
			<g>
				<g>
					<g>
						<g>
							<path class="st11" d="M273.1,118.2c0-1.2-1-1.5-2.2-1.5s-2.2,0.3-2.2,1.5"/>
							<path class="st11" d="M264.4,118c0,1.2,1,1.5,2.2,1.5s2.2-0.3,2.2-1.5"/>
						</g>
						<g>
							<path class="st11" d="M264.4,118.2c0-1.2-1-1.5-2.2-1.5s-2.2,0.3-2.2,1.5"/>
							<path class="st11" d="M255.6,118c0,1.2,1,1.5,2.2,1.5s2.2-0.3,2.2-1.5"/>
						</g>
					</g>
					<g>
						<g>
							<path class="st11" d="M255.6,118.2c0-1.2-1-1.5-2.2-1.5s-2.2,0.3-2.2,1.5"/>
							<path class="st11" d="M246.8,118c0,1.2,1,1.5,2.2,1.5s2.2-0.3,2.2-1.5"/>
						</g>
						<g>
							<path class="st11" d="M246.8,118.2c0-1.2-1-1.5-2.2-1.5s-2.2,0.3-2.2,1.5"/>
							<path class="st11" d="M238.1,118c0,1.2,1,1.5,2.2,1.5s2.2-0.3,2.2-1.5"/>
						</g>
					</g>
				</g>
				<g>
					<g>
						<g>
							<path class="st11" d="M238.1,118.2c0-1.2-1-1.5-2.2-1.5s-2.2,0.3-2.2,1.5"/>
							<path class="st11" d="M229.3,118c0,1.2,1,1.5,2.2,1.5s2.2-0.3,2.2-1.5"/>
						</g>
						<g>
							<path class="st11" d="M229.3,118.2c0-1.2-1-1.5-2.2-1.5s-2.2,0.3-2.2,1.5"/>
							<path class="st11" d="M220.5,118c0,1.2,1,1.5,2.2,1.5s2.2-0.3,2.2-1.5"/>
						</g>
					</g>
					<g>
						<g>
							<path class="st11" d="M220.5,118.2c0-1.2-1-1.5-2.2-1.5s-2.2,0.3-2.2,1.5"/>
							<path class="st11" d="M211.8,118c0,1.2,1,1.5,2.2,1.5s2.2-0.3,2.2-1.5"/>
						</g>
						<g>
							<path class="st11" d="M211.8,118.2c0-1.2-1-1.5-2.2-1.5s-2.2,0.3-2.2,1.5"/>
							<path class="st11" d="M203,118c0,1.2,1,1.5,2.2,1.5s2.2-0.3,2.2-1.5"/>
						</g>
					</g>
				</g>
			</g>
			<g>
				<g>
					<g>
						<g>
							<path class="st11" d="M203,118.2c0-1.2-1-1.5-2.2-1.5s-2.2,0.3-2.2,1.5"/>
							<path class="st11" d="M194.2,118c0,1.2,1,1.5,2.2,1.5s2.2-0.3,2.2-1.5"/>
						</g>
						<g>
							<path class="st11" d="M194.2,118.2c0-1.2-1-1.5-2.2-1.5s-2.2,0.3-2.2,1.5"/>
							<path class="st11" d="M185.5,118c0,1.2,1,1.5,2.2,1.5s2.2-0.3,2.2-1.5"/>
						</g>
					</g>
					<g>
						<g>
							<path class="st11" d="M185.5,118.2c0-1.2-1-1.5-2.2-1.5s-2.2,0.3-2.2,1.5"/>
						</g>
					</g>
				</g>
			</g>
		</g>
	</g>
	<circle class="st12" cx="193.8" cy="82.5" r="3.4"/>
	<circle class="st12" cx="260.9" cy="82.5" r="3.4"/>
	<g>
		<g>
			<path class="st6" d="M196.6,210.6c-1.7,0-3.1-1.4-3.1-3.1s1.4-3.1,3.1-3.1h70c1.7,0,3.1,1.4,3.1,3.1s-1.4,3.1-3.1,3.1H196.6z"/>
			<path class="st6" d="M266.7,205.1c1.3,0,2.4,1.1,2.4,2.4s-1.1,2.4-2.4,2.4h-70c-1.3,0-2.4-1.1-2.4-2.4s1.1-2.4,2.4-2.4H266.7
				 M266.7,203.7h-70c-2.1,0-3.8,1.7-3.8,3.8s1.7,3.8,3.8,3.8h70c2.1,0,3.8-1.7,3.8-3.8S268.8,203.7,266.7,203.7L266.7,203.7z"/>
		</g>
		<g>
			<path class="st6" d="M196.5,211.7c-2.3,0-4.2-1.9-4.2-4.2s1.9-4.2,4.2-4.2s4.2,1.9,4.2,4.2S198.8,211.7,196.5,211.7z"/>
			<path class="st6" d="M196.5,204c1.9,0,3.5,1.6,3.5,3.5s-1.6,3.5-3.5,3.5s-3.5-1.6-3.5-3.5S194.6,204,196.5,204 M196.5,202.6
				c-2.7,0-4.9,2.2-4.9,4.9s2.2,4.9,4.9,4.9s4.9-2.2,4.9-4.9S199.2,202.6,196.5,202.6L196.5,202.6z"/>
		</g>
		<g>
			<path class="st6" d="M268.2,211.7c-2.3,0-4.2-1.9-4.2-4.2s1.9-4.2,4.2-4.2c2.3,0,4.2,1.9,4.2,4.2
				C272.4,209.8,270.5,211.7,268.2,211.7z"/>
			<path class="st6" d="M268.2,204c1.9,0,3.5,1.6,3.5,3.5s-1.6,3.5-3.5,3.5s-3.5-1.6-3.5-3.5S266.2,204,268.2,204 M268.2,202.6
				c-2.7,0-4.9,2.2-4.9,4.9s2.2,4.9,4.9,4.9c2.7,0,4.9-2.2,4.9-4.9S270.9,202.6,268.2,202.6L268.2,202.6z"/>
		</g>
	</g>
	<polyline class="st13" points="159.6,256.5 189.8,256.5 189.8,283.3 277.5,283.3 	"/>
	<g>
		<circle class="st3" cx="189.8" cy="283.3" r="5.6"/>
		<circle class="st13" cx="189.8" cy="283.3" r="5.6"/>
	</g>
	<path class="st14" d="M204,93.2c0,10.6,11.4,19.3,25.4,19.3s25.4-8.6,25.4-19.3"/>
	<line class="st14" x1="229.2" y1="74.8" x2="229.2" y2="95.5"/>
	<line class="st15" x1="159.6" y1="256.5" x2="116.3" y2="240.7"/>
	<path class="st2" d="M180.3,198.8h-11.9c-1.2,0-2.2,1-2.2,2.2l0,0c0,1.2,1,2.2,2.2,2.2h11.9c1.2,0,2.2-1,2.2-2.2l0,0
		C182.5,199.8,181.5,198.8,180.3,198.8z"/>
	<path class="st2" d="M180.3,205.8h-11.9c-1.2,0-2.2,1-2.2,2.2l0,0c0,1.2,1,2.2,2.2,2.2h11.9c1.2,0,2.2-1,2.2-2.2l0,0
		C182.5,206.8,181.5,205.8,180.3,205.8z"/>
	<path class="st2" d="M180.3,212.8h-11.9c-1.2,0-2.2,1-2.2,2.2l0,0c0,1.2,1,2.2,2.2,2.2h11.9c1.2,0,2.2-1,2.2-2.2l0,0
		C182.5,213.8,181.5,212.8,180.3,212.8z"/>
	<path class="st1" d="M265.1,272.7h-58.9c-3.2,0-5.8-2.6-5.8-5.8v-34c0-3.2,2.6-5.8,5.8-5.8h58.9c3.2,0,5.8,2.6,5.8,5.8v34
		C271,270.1,268.3,272.7,265.1,272.7z"/>
	<path class="st16" d="M262.8,271.3h-60.7c-3.2,0-5.8-2.6-5.8-5.8v-35.2c0-3.2,2.6-5.8,5.8-5.8h60.7c3.2,0,5.8,2.6,5.8,5.8v35.2
		C268.6,268.7,266,271.3,262.8,271.3z"/>
	<path class="st6" d="M223.5,310.7h-43.4c-0.9,0-1.6,0.7-1.6,1.6l0,0c0,0.9,0.7,1.6,1.6,1.6h43.4c0.9,0,1.6-0.7,1.6-1.6l0,0
		C225.2,311.5,224.4,310.7,223.5,310.7z"/>
	<path class="st6" d="M223.5,305.1h-43.4c-0.9,0-1.6,0.7-1.6,1.6l0,0c0,0.9,0.7,1.6,1.6,1.6h43.4c0.9,0,1.6-0.7,1.6-1.6l0,0
		C225.2,305.8,224.4,305.1,223.5,305.1z"/>
	<path class="st6" d="M223.5,299.5h-43.4c-0.9,0-1.6,0.7-1.6,1.6l0,0c0,0.9,0.7,1.6,1.6,1.6h43.4c0.9,0,1.6-0.7,1.6-1.6l0,0
		C225.2,300.2,224.4,299.5,223.5,299.5z"/>
	<g>
		<circle class="st17" cx="209.6" cy="236.5" r="5"/>
	</g>
	<circle class="st18" cx="237.6" cy="236.5" r="5"/>
	<circle class="st19" cx="223.6" cy="236.5" r="5"/>
	<path class="st3" d="M253.9,318.2h-84.6c-4.6,0-8.4,3.8-8.4,8.4v2.1c0,4.6,3.8,8.4,8.4,8.4h84.6c4.6,0,8.4-3.8,8.4-8.4v-2.1
		C262.4,322,258.6,318.2,253.9,318.2z"/>
	<path class="st2" d="M182.4,318.2h-13c-4.6,0-8.4,3.8-8.4,8.4v2.1c0,4.6,3.8,8.4,8.4,8.4h13c4.6,0,8.4-3.8,8.4-8.4v-2.1
		C190.8,322,187,318.2,182.4,318.2z"/>
	<g>
		<path class="st5" d="M126.7,276.6"/>
		<path class="st5" d="M126.7,276.6h36.4v66.6c0,4.8-3.9,8.6-8.6,8.6h-29.7H90.5H60.9c-0.1,0-0.2,0-0.3,0c-3.3-0.2-4.7-4.4-2.4-6.7
			L126.7,276.6"/>
		<path class="st6" d="M124.8,351.8H60.9c-0.1,0-0.2,0-0.3,0c-3.3-0.2-4.7-4.4-2.4-6.7l68.6-68.6c2.3-2.3,6.5-0.9,6.7,2.4
			c0,0.1,0,0.2,0,0.3v63.9C133.4,348,129.5,351.8,124.8,351.8z"/>
		<g>
			<g>
				<g>
					<g>
						<circle class="st6" cx="110" cy="327.7" r="18.7"/>
						<circle class="st1" cx="110" cy="327.7" r="15.7"/>
						<circle class="st3" cx="110" cy="327.7" r="8.3"/>
						<line class="st20" x1="110" y1="312" x2="110" y2="343.3"/>
						<line class="st20" x1="94.3" y1="327.7" x2="125.7" y2="327.7"/>
					</g>
				</g>
			</g>
		</g>
		<g>
			<g>
				<g>
					<g>
						<circle class="st6" cx="123.6" cy="296.7" r="7.9"/>
						<circle class="st1" cx="123.6" cy="296.7" r="6.6"/>
						<circle class="st3" cx="123.6" cy="296.7" r="3.5"/>
						<line class="st21" x1="123.6" y1="290.1" x2="123.6" y2="303.2"/>
						<line class="st21" x1="117" y1="296.7" x2="130.2" y2="296.7"/>
					</g>
				</g>
			</g>
		</g>
		<g>
			<g>
				<g>
					<g>
						<circle class="st6" cx="82.7" cy="340.6" r="7.9"/>
						<circle class="st1" cx="82.7" cy="340.6" r="6.6"/>
						<circle class="st3" cx="82.7" cy="340.6" r="3.5"/>
						<line class="st21" x1="82.7" y1="334.1" x2="82.7" y2="347.2"/>
						<line class="st21" x1="76.1" y1="340.6" x2="89.3" y2="340.6"/>
					</g>
				</g>
			</g>
		</g>
		<line class="st7" x1="138.3" y1="279.3" x2="170.1" y2="279.3"/>
		<line class="st7" x1="138.3" y1="296.8" x2="170.1" y2="296.8"/>
		<line class="st7" x1="138.3" y1="314.4" x2="170.1" y2="314.4"/>
		<line class="st7" x1="138.3" y1="331.9" x2="170.1" y2="331.9"/>
		<line class="st7" x1="138.3" y1="349.4" x2="170.1" y2="349.4"/>
	</g>
	<g>
		<g>
			<path class="st1" d="M134.9,190h-22.3c-3.7,0-6.7,3-6.7,6.7l0,0c0,3.7,3,6.7,6.7,6.7h22.3c3.7,0,6.7-3,6.7-6.7l0,0
				C141.7,193,138.6,190,134.9,190z"/>
			<circle class="st1" cx="88.9" cy="230" r="12.8"/>
			<path class="st3" d="M101.6,231.2H75c-4.6,0-8.4-3.8-8.4-8.4V169c0-4.6,3.8-8.4,8.4-8.4h26.6c4.6,0,8.4,3.8,8.4,8.4v53.8
				C110,227.4,106.2,231.2,101.6,231.2z"/>
			<path class="st2" d="M79.1,231.2H75c-4.6,0-8.4-3.8-8.4-8.4V169c0-4.6,3.8-8.4,8.4-8.4h4.1c4.6,0,8.4,3.8,8.4,8.4v53.8
				C87.5,227.4,83.8,231.2,79.1,231.2z"/>
			<line class="st4" x1="89.3" y1="236.5" x2="80.6" y2="249.8"/>
			<circle class="st1" cx="77.1" cy="253.9" r="11.7"/>
		</g>
	</g>
	<circle class="st19" cx="308.4" cy="220.9" r="2.4"/>
	<circle class="st22" cx="79.2" cy="169.2" r="2.4"/>
</g>
</svg>
