<?xml version="1.0" encoding="utf-8"?>
<!-- Generator: Adobe Illustrator 22.1.0, SVG Export Plug-In . SVG Version: 6.00 Build 0)  -->
<svg version="1.1" id="Layer_1" xmlns="http://www.w3.org/2000/svg" xmlns:xlink="http://www.w3.org/1999/xlink" x="0px" y="0px"
	 viewBox="0 0 400 400" style="enable-background:new 0 0 400 400;" xml:space="preserve">
<style type="text/css">
	.st0{fill:#60025E;}
	.st1{fill:#FFFFFF;}
	.st2{fill:#F24044;}
	.st3{fill:none;stroke:#C6282F;stroke-width:5;stroke-miterlimit:10;}
	.st4{fill:#824F0B;}
	.st5{fill:#4E2D01;}
	.st6{fill:#FFFBC8;}
	.st7{fill:#A5D73C;}
	.st8{fill:#00CDC8;}
</style>
<circle class="st0" cx="200" cy="340.1" r="37.7"/>
<g>
	<path class="st1" d="M197.2,350.6c-0.5-0.6-0.7-1.3-0.7-2.3c0-2.6,0.5-4.8,1.4-6.6c0.9-1.8,2.3-3.8,4.1-5.9
		c1.4-1.7,2.5-3.1,3.1-4.2c0.7-1.1,1-2.4,1-3.8c0-1.6-0.6-2.8-1.7-3.7c-1.2-0.9-2.7-1.4-4.7-1.4c-1.7,0-3.3,0.4-4.9,1.1
		c-1.6,0.7-3.4,1.8-5.5,3.2c-1.2,0.7-2.1,1-2.9,1c-0.8,0-1.5-0.4-2.1-1.1s-0.9-1.6-0.9-2.6c0-1.4,0.6-2.5,1.7-3.3c2-1.7,4.3-3,7-4
		s5.4-1.5,8.1-1.5c2.9,0,5.4,0.5,7.7,1.5c2.2,1,4,2.4,5.2,4.1c1.3,1.7,1.9,3.8,1.9,6c0,2.5-0.6,4.6-1.8,6.4s-2.9,3.9-5.2,6.1
		c-1.9,2-3.4,3.6-4.4,5s-1.6,2.9-1.8,4.6c-0.1,0.8-0.5,1.3-1,1.7c-0.5,0.4-1.1,0.6-1.9,0.6C198.3,351.4,197.7,351.2,197.2,350.6z
		 M195.5,364.8c-1-1-1.5-2.3-1.5-3.8s0.5-2.8,1.5-3.8s2.2-1.5,3.8-1.5c1.5,0,2.8,0.5,3.8,1.5s1.5,2.3,1.5,3.8s-0.5,2.8-1.5,3.8
		s-2.3,1.5-3.7,1.5C197.8,366.3,196.5,365.8,195.5,364.8z"/>
</g>
<g>
	<g>
		<polygon class="st2" points="174.1,247.5 20.6,247.5 20.6,94 97.4,94 174.1,94 		"/>
	</g>
	<line class="st3" x1="97.4" y1="246.6" x2="97.4" y2="96"/>
	<g>
		<rect x="121.8" y="154.6" class="st4" width="32.3" height="32.3"/>
	</g>
	<g>
		<rect x="128.9" y="161.7" class="st5" width="18.2" height="18.2"/>
	</g>
	<g>
		<polygon class="st2" points="379.4,248 225.9,248 225.9,94.5 302.6,94.5 379.4,94.5 		"/>
	</g>
	<g>
		<polygon class="st6" points="368.5,237.1 236.8,237.1 236.8,105.4 302.6,105.4 368.5,105.4 		"/>
	</g>
	<g>
		<rect x="271.3" y="237.1" class="st7" width="62.7" height="41.1"/>
	</g>
	<g>
		<rect x="66" y="263.1" class="st7" width="62.7" height="15.5"/>
	</g>
	<g>
		<rect x="66" y="247.5" class="st8" width="62.7" height="15.5"/>
	</g>
</g>
<path class="st0" d="M159.1,70.2H55.8c-6.6,0-12-5.4-12-12v-16c0-6.6,5.4-12,12-12h103.4c6.6,0,12,5.4,12,12v16
	C171.1,64.8,165.7,70.2,159.1,70.2z"/>
<path class="st0" d="M346,70.2H242.6c-6.6,0-12-5.4-12-12v-16c0-6.6,5.4-12,12-12H346c6.6,0,12,5.4,12,12v16
	C358,64.8,352.6,70.2,346,70.2z"/>
<g>
	<path class="st1" d="M88.8,56.3c0,0.4-0.2,0.7-0.5,1s-0.7,0.4-1.1,0.4c-0.3,0-0.5-0.1-0.8-0.2c-0.2-0.1-0.4-0.4-0.6-0.7l-1.6-3.5
		H75l-1.6,3.5c-0.1,0.3-0.3,0.5-0.6,0.7c-0.2,0.1-0.5,0.2-0.8,0.2c-0.4,0-0.8-0.1-1.1-0.4c-0.3-0.3-0.5-0.6-0.5-1
		c0-0.2,0.1-0.5,0.2-0.7L78,40.2c0.2-0.3,0.4-0.6,0.7-0.8c0.3-0.2,0.7-0.3,1-0.3s0.7,0.1,1,0.3s0.6,0.4,0.7,0.8l7.2,15.4
		C88.8,55.9,88.8,56.1,88.8,56.3z M76.3,50.8h6.9l-3.4-7.7L76.3,50.8z"/>
	<path class="st1" d="M99.2,45c0.3,0.2,0.4,0.6,0.4,1c0,0.5-0.1,0.8-0.3,1s-0.6,0.4-1.2,0.4l-0.8,0.1c-1,0.1-1.8,0.5-2.2,1
		c-0.5,0.6-0.7,1.3-0.7,2.2v5.5c0,0.5-0.2,0.9-0.5,1.2s-0.7,0.4-1.2,0.4s-0.9-0.1-1.2-0.4c-0.3-0.3-0.5-0.7-0.5-1.2v-10
		c0-0.5,0.2-0.9,0.5-1.1c0.3-0.3,0.7-0.4,1.1-0.4s0.8,0.1,1.1,0.4c0.3,0.3,0.4,0.6,0.4,1.1v1c0.3-0.8,0.8-1.4,1.5-1.8
		s1.4-0.6,2.2-0.7h0.4C98.6,44.7,99,44.8,99.2,45z"/>
	<path class="st1" d="M109.2,45c0.3,0.2,0.4,0.6,0.4,1c0,0.5-0.1,0.8-0.3,1c-0.2,0.2-0.6,0.4-1.2,0.4l-0.8,0.1c-1,0.1-1.8,0.5-2.2,1
		c-0.5,0.6-0.7,1.3-0.7,2.2v5.5c0,0.5-0.2,0.9-0.5,1.2s-0.7,0.4-1.2,0.4s-0.9-0.1-1.2-0.4c-0.3-0.3-0.5-0.7-0.5-1.2v-10
		c0-0.5,0.2-0.9,0.5-1.1c0.3-0.3,0.7-0.4,1.1-0.4s0.8,0.1,1.1,0.4c0.3,0.3,0.4,0.6,0.4,1.1v1c0.3-0.8,0.8-1.4,1.5-1.8
		c0.7-0.4,1.4-0.6,2.2-0.7h0.4C108.6,44.7,108.9,44.8,109.2,45z"/>
	<path class="st1" d="M111.2,41.9c-0.3-0.3-0.5-0.7-0.5-1.3s0.2-0.9,0.5-1.2s0.8-0.5,1.4-0.5s1,0.2,1.4,0.5s0.5,0.7,0.5,1.2
		s-0.2,0.9-0.5,1.3c-0.3,0.3-0.8,0.5-1.4,0.5S111.5,42.2,111.2,41.9z M111.4,57.4c-0.3-0.3-0.5-0.7-0.5-1.2v-10
		c0-0.5,0.2-0.9,0.5-1.1c0.3-0.3,0.7-0.4,1.2-0.4s0.9,0.1,1.2,0.4c0.3,0.3,0.5,0.6,0.5,1.1v10c0,0.5-0.2,0.9-0.5,1.2
		s-0.7,0.4-1.2,0.4S111.7,57.7,111.4,57.4z"/>
	<path class="st1" d="M127.8,45.4c0.8,0.5,1.5,1.3,2,2.3s0.7,2.1,0.7,3.5c0,1.3-0.2,2.5-0.7,3.5s-1.1,1.8-2,2.4
		c-0.9,0.6-1.8,0.8-2.9,0.8c-0.9,0-1.7-0.2-2.5-0.6c-0.7-0.4-1.3-1-1.7-1.7v0.7c0,0.5-0.1,0.8-0.4,1.1s-0.7,0.4-1.2,0.4
		s-0.9-0.1-1.2-0.4c-0.3-0.3-0.4-0.6-0.4-1.1V40.7c0-0.5,0.2-0.8,0.5-1.1s0.7-0.4,1.2-0.4s0.9,0.1,1.2,0.4c0.3,0.3,0.4,0.6,0.4,1.1
		v6.1c0.4-0.7,0.9-1.2,1.6-1.6c0.7-0.4,1.5-0.6,2.4-0.6C126,44.6,127,44.9,127.8,45.4z M126.4,54.3c0.6-0.7,0.9-1.8,0.9-3.1
		s-0.3-2.3-0.8-3s-1.4-1-2.4-1s-1.8,0.4-2.4,1.1c-0.6,0.7-0.8,1.7-0.8,3s0.3,2.3,0.8,3c0.6,0.7,1.4,1.1,2.4,1.1
		C125,55.4,125.8,55,126.4,54.3z"/>
	<path class="st1" d="M142.6,46c0.9,0.9,1.3,2.2,1.3,4v6.3c0,0.5-0.1,0.8-0.4,1.1c-0.3,0.3-0.7,0.4-1.1,0.4c-0.5,0-0.8-0.1-1.1-0.4
		c-0.3-0.3-0.4-0.6-0.4-1.1v-0.6c-0.3,0.7-0.8,1.2-1.4,1.6c-0.6,0.4-1.4,0.6-2.2,0.6s-1.6-0.2-2.3-0.5s-1.2-0.8-1.6-1.4
		c-0.4-0.6-0.6-1.3-0.6-2c0-0.9,0.2-1.7,0.7-2.2s1.3-0.9,2.3-1.2c1.1-0.2,2.6-0.4,4.4-0.4h0.7v-0.6c0-0.8-0.2-1.5-0.5-1.9
		c-0.4-0.4-1-0.6-1.8-0.6c-0.5,0-1,0.1-1.5,0.2c-0.5,0.1-1.1,0.4-1.8,0.6c-0.5,0.2-0.8,0.3-1,0.3c-0.3,0-0.6-0.1-0.8-0.3
		s-0.3-0.5-0.3-0.9c0-0.3,0.1-0.5,0.2-0.8c0.1-0.2,0.4-0.4,0.7-0.6c0.6-0.3,1.3-0.6,2.2-0.8c0.8-0.2,1.7-0.3,2.5-0.3
		C140.5,44.6,141.8,45.1,142.6,46z M140,54.7c0.5-0.6,0.8-1.3,0.8-2.2V52h-0.5c-1.2,0-2.1,0.1-2.7,0.2c-0.6,0.1-1.1,0.3-1.4,0.5
		c-0.3,0.3-0.4,0.6-0.4,1.1c0,0.6,0.2,1,0.6,1.4c0.4,0.4,0.9,0.5,1.4,0.5C138.8,55.5,139.5,55.2,140,54.7z"/>
</g>
<g>
	<path class="st1" d="M277.8,56.3c0,0.4-0.2,0.7-0.5,1s-0.7,0.4-1.1,0.4c-0.3,0-0.5-0.1-0.8-0.2c-0.2-0.1-0.4-0.4-0.6-0.7l-1.6-3.5
		H264l-1.6,3.5c-0.1,0.3-0.3,0.5-0.6,0.7c-0.2,0.1-0.5,0.2-0.8,0.2c-0.4,0-0.8-0.1-1.1-0.4c-0.3-0.3-0.5-0.6-0.5-1
		c0-0.2,0.1-0.5,0.2-0.7l7.2-15.4c0.2-0.3,0.4-0.6,0.7-0.8c0.3-0.2,0.7-0.3,1-0.3c0.4,0,0.7,0.1,1,0.3s0.6,0.4,0.7,0.8l7.2,15.4
		C277.8,55.9,277.8,56.1,277.8,56.3z M265.3,50.8h6.9l-3.4-7.7L265.3,50.8z"/>
	<path class="st1" d="M290.3,45.4c0.8,0.5,1.5,1.3,2,2.3s0.7,2.1,0.7,3.5c0,1.3-0.2,2.5-0.7,3.5s-1.1,1.8-2,2.4
		c-0.9,0.6-1.8,0.8-2.9,0.8c-0.9,0-1.7-0.2-2.5-0.6c-0.7-0.4-1.3-1-1.7-1.7v0.7c0,0.5-0.1,0.8-0.4,1.1s-0.7,0.4-1.2,0.4
		s-0.9-0.1-1.2-0.4c-0.3-0.3-0.4-0.6-0.4-1.1V40.7c0-0.5,0.2-0.8,0.5-1.1s0.7-0.4,1.2-0.4s0.9,0.1,1.2,0.4c0.3,0.3,0.4,0.6,0.4,1.1
		v6.1c0.4-0.7,0.9-1.2,1.6-1.6c0.7-0.4,1.5-0.6,2.4-0.6C288.5,44.6,289.5,44.9,290.3,45.4z M288.9,54.3c0.6-0.7,0.9-1.8,0.9-3.1
		s-0.3-2.3-0.8-3c-0.6-0.7-1.4-1-2.4-1s-1.8,0.4-2.4,1.1c-0.6,0.7-0.8,1.7-0.8,3s0.3,2.3,0.8,3c0.6,0.7,1.4,1.1,2.4,1.1
		C287.5,55.4,288.3,55,288.9,54.3z"/>
	<path class="st1" d="M305.1,46c0.9,0.9,1.3,2.2,1.3,4v6.3c0,0.5-0.1,0.8-0.4,1.1s-0.7,0.4-1.1,0.4c-0.5,0-0.8-0.1-1.1-0.4
		c-0.3-0.3-0.4-0.6-0.4-1.1v-0.6c-0.3,0.7-0.8,1.2-1.4,1.6c-0.6,0.4-1.4,0.6-2.2,0.6c-0.8,0-1.6-0.2-2.3-0.5s-1.2-0.8-1.6-1.4
		c-0.4-0.6-0.6-1.3-0.6-2c0-0.9,0.2-1.7,0.7-2.2s1.3-0.9,2.3-1.2c1.1-0.2,2.6-0.4,4.4-0.4h0.7v-0.6c0-0.8-0.2-1.5-0.5-1.9
		c-0.4-0.4-1-0.6-1.8-0.6c-0.5,0-1,0.1-1.5,0.2c-0.5,0.1-1.1,0.4-1.8,0.6c-0.5,0.2-0.8,0.3-1,0.3c-0.3,0-0.6-0.1-0.8-0.3
		c-0.2-0.2-0.3-0.5-0.3-0.9c0-0.3,0.1-0.5,0.2-0.8c0.1-0.2,0.4-0.4,0.7-0.6c0.6-0.3,1.3-0.6,2.2-0.8c0.8-0.2,1.7-0.3,2.5-0.3
		C303,44.6,304.3,45.1,305.1,46z M302.5,54.7c0.5-0.6,0.8-1.3,0.8-2.2V52h-0.5c-1.2,0-2.1,0.1-2.7,0.2c-0.6,0.1-1.1,0.3-1.4,0.5
		c-0.3,0.3-0.4,0.6-0.4,1.1c0,0.6,0.2,1,0.6,1.4s0.9,0.5,1.4,0.5C301.3,55.5,302,55.2,302.5,54.7z"/>
	<path class="st1" d="M306.5,62.1c-0.3-0.2-0.5-0.5-0.5-1c0-0.7,0.4-1.1,1.3-1.2L308,60c0.6,0,1-0.2,1.3-0.5s0.4-0.8,0.4-1.5V46.2
		c0-0.5,0.2-0.9,0.5-1.1c0.3-0.3,0.7-0.4,1.2-0.4s0.9,0.1,1.2,0.4c0.3,0.3,0.5,0.6,0.5,1.1v11.4c0,2.9-1.5,4.5-4.4,4.7l-0.7,0.1
		C307.3,62.4,306.8,62.3,306.5,62.1z M309.9,41.9c-0.3-0.3-0.5-0.7-0.5-1.3s0.2-0.9,0.5-1.2s0.8-0.5,1.4-0.5s1,0.2,1.4,0.5
		s0.5,0.7,0.5,1.2s-0.2,0.9-0.5,1.3c-0.3,0.3-0.8,0.5-1.4,0.5C310.7,42.4,310.3,42.2,309.9,41.9z"/>
	<path class="st1" d="M318.7,57.1c-1-0.5-1.7-1.3-2.3-2.3c-0.5-1-0.8-2.2-0.8-3.5s0.3-2.5,0.8-3.5s1.3-1.8,2.3-2.3s2.1-0.8,3.4-0.8
		s2.4,0.3,3.4,0.8s1.7,1.3,2.3,2.3c0.5,1,0.8,2.2,0.8,3.5s-0.3,2.5-0.8,3.5s-1.3,1.8-2.3,2.3s-2.1,0.8-3.4,0.8
		S319.7,57.6,318.7,57.1z M324.5,54.3c0.6-0.7,0.8-1.7,0.8-3.1c0-1.3-0.3-2.4-0.8-3.1s-1.4-1.1-2.4-1.1s-1.8,0.4-2.4,1.1
		s-0.8,1.7-0.8,3.1c0,1.4,0.3,2.4,0.8,3.1c0.6,0.7,1.4,1,2.4,1C323.2,55.4,324,55,324.5,54.3z"/>
</g>
</svg>
