<?xml version="1.0" encoding="utf-8"?>
<!-- Generator: Adobe Illustrator 22.1.0, SVG Export Plug-In . SVG Version: 6.00 Build 0)  -->
<svg version="1.1" id="Layer_1" xmlns="http://www.w3.org/2000/svg" xmlns:xlink="http://www.w3.org/1999/xlink" x="0px" y="0px"
	 viewBox="0 0 80.6 80.6" style="enable-background:new 0 0 80.6 80.6;" xml:space="preserve">
<style type="text/css">
	.st0{fill:#FFFFFF;}
	.st1{fill:#FFFBC8;}
	.st2{fill:#00CDC8;}
	.st3{fill:#A5D73C;}
	.st4{fill:#F24044;}
	.st5{fill:#CF373B;}
	.st6{fill:#0E75AF;}
	.st7{fill:#1EA4C4;}
	.st8{fill:#FCA12A;}
	.st9{fill:#E58613;}
	.st10{fill:#DB5435;}
	.st11{fill:#C43D27;}
</style>
<g>
	<path class="st0" d="M15,67.7c-0.6,0-1-0.4-1-1V37.5H7.1c-0.4,0-0.8-0.3-1-0.7c-0.1-0.4,0-0.9,0.4-1.1L39.9,13
		c0.2-0.1,0.4-0.2,0.6-0.2c0.2,0,0.4,0.1,0.6,0.2l9.4,6.4v-4.2c0-0.6,0.4-1,1-1h10.2c0.6,0,1,0.4,1,1v12.6l11.4,7.8
		c0.4,0.2,0.5,0.7,0.4,1.1c-0.1,0.4-0.5,0.7-1,0.7h-6.3v29.2c0,0.6-0.4,1-1,1H15z"/>
	<path class="st0" d="M40.4,13.9l11,7.5v-6.1h10.2v13.1l11.9,8.1h-7.3v8.1v3.2v19H50.5H29.6H15v-19v-3.2v-8.1H7.1L40.4,13.9
		 M40.4,11.9c-0.4,0-0.8,0.1-1.1,0.3L6,34.9c-0.7,0.5-1,1.4-0.8,2.2c0.3,0.8,1,1.4,1.9,1.4H13v6.1v3.2v19c0,1.1,0.9,2,2,2h14.6h20.9
		h15.8c1.1,0,2-0.9,2-2v-19v-3.2v-6.1h5.3c0.9,0,1.7-0.6,1.9-1.4c0.3-0.8-0.1-1.7-0.8-2.2l-11-7.5V15.3c0-1.1-0.9-2-2-2H51.4
		c-1.1,0-2,0.9-2,2v2.3l-7.8-5.4C41.2,12,40.8,11.9,40.4,11.9L40.4,11.9z"/>
</g>
<g>
	<g>
		<polygon class="st1" points="41,35.7 40.7,35.7 40.6,35.7 15.1,35.7 15,35.7 15,44.6 15,47.8 15,66.7 66.2,66.7 66.2,47.8 
			66.2,44.6 66.2,35.7 		"/>
	</g>
	<g>
		<rect x="29.6" y="59.8" class="st2" width="20.9" height="3.4"/>
	</g>
	<g>
		<rect x="29.6" y="63.3" class="st3" width="20.9" height="3.4"/>
	</g>
	<g>
		<rect x="51.4" y="15.3" class="st3" width="10.2" height="14.5"/>
	</g>
	<g>
		<polygon class="st4" points="7.1,36.5 40.4,13.9 73.5,36.5 		"/>
	</g>
	<g>
		<polygon class="st5" points="28.4,36.5 40.4,13.9 73.5,36.5 		"/>
	</g>
	<g>
		<path class="st6" d="M55.8,46h5.6v-3.4c0-0.8-0.9-1.2-1.8-1.2h-3.8V46z"/>
		<path class="st7" d="M54.9,46v-4.6h-4.2c-0.8,0-1.4,0.5-1.4,1.2V46H54.9z"/>
		<path class="st6" d="M54.9,46.9h-5.6v3.6c0,0.8,0.6,1,1.4,1h4.2V46.9z"/>
		<path class="st7" d="M55.8,46.9v4.6h3.8c0.8,0,1.8-0.2,1.8-1v-3.6H55.8z"/>
	</g>
	<g>
		<path class="st6" d="M24.6,46h5.6v-3.4c0-0.8-0.9-1.2-1.8-1.2h-3.8V46z"/>
		<path class="st7" d="M23.7,46v-4.6h-4.2c-0.8,0-1.4,0.5-1.4,1.2V46H23.7z"/>
		<path class="st6" d="M23.7,46.9h-5.6v3.6c0,0.8,0.6,1,1.4,1h4.2V46.9z"/>
		<path class="st7" d="M24.6,46.9v4.6h3.8c0.8,0,1.8-0.2,1.8-1v-3.6H24.6z"/>
	</g>
	<g>
		<path class="st8" d="M44.9,60V45.8c0-0.7-0.2-1-0.9-1h-7.1c-0.7,0-1.1,0.4-1.1,1V60H44.9z"/>
		<path class="st9" d="M44.9,53.2v-7.4c0-0.7-0.2-1-0.9-1h-7.1c-0.7,0-1.1,0.4-1.1,1"/>
		<path class="st10" d="M44,52.5c0,0.7-0.5,1.3-1.3,1.3c-0.7,0-1.3-0.5-1.3-1.3c0-0.7,0.5-1.3,1.3-1.3C43.3,51.2,44,51.7,44,52.5z"
			/>
		<path class="st11" d="M43.6,51.6c0.5,0.5,0.5,1.3,0,1.8c-0.5,0.5-1.3,0.5-1.8,0"/>
	</g>
</g>
</svg>
