<?xml version="1.0" encoding="utf-8"?>
<!-- Generator: Adobe Illustrator 22.1.0, SVG Export Plug-In . SVG Version: 6.00 Build 0)  -->
<svg version="1.1" id="Layer_1" xmlns="http://www.w3.org/2000/svg" xmlns:xlink="http://www.w3.org/1999/xlink" x="0px" y="0px"
	 viewBox="0 0 400 400" style="enable-background:new 0 0 400 400;" xml:space="preserve">
<style type="text/css">
	.st0{fill:#60025E;}
	.st1{fill:#FFFFFF;}
	.st2{fill:#525E69;}
	.st3{fill:#7D8D9C;}
	.st4{fill:#C1E8FB;}
	.st5{fill:#53B848;}
	.st6{fill:#EBF1C0;}
	.st7{fill:#B5E4FA;}
	.st8{fill:#F9D7E7;}
	.st9{fill:#B19DCB;}
	.st10{fill:#F4F4E6;}
</style>
<circle class="st0" cx="200" cy="340.1" r="37.7"/>
<g>
	<path class="st1" d="M197.2,350.6c-0.5-0.6-0.7-1.3-0.7-2.3c0-2.6,0.5-4.8,1.4-6.6c0.9-1.8,2.3-3.8,4.1-5.9
		c1.4-1.7,2.5-3.1,3.1-4.2c0.7-1.1,1-2.4,1-3.8c0-1.6-0.6-2.8-1.7-3.7c-1.2-0.9-2.7-1.4-4.7-1.4c-1.7,0-3.3,0.4-4.9,1.1
		c-1.6,0.7-3.4,1.8-5.5,3.2c-1.2,0.7-2.1,1-2.9,1c-0.8,0-1.5-0.4-2.1-1.1s-0.9-1.6-0.9-2.6c0-1.4,0.6-2.5,1.7-3.3c2-1.7,4.3-3,7-4
		s5.4-1.5,8.1-1.5c2.9,0,5.4,0.5,7.7,1.5c2.2,1,4,2.4,5.2,4.1c1.3,1.7,1.9,3.8,1.9,6c0,2.5-0.6,4.6-1.8,6.4s-2.9,3.9-5.2,6.1
		c-1.9,2-3.4,3.6-4.4,5s-1.6,2.9-1.8,4.6c-0.1,0.8-0.5,1.3-1,1.7c-0.5,0.4-1.1,0.6-1.9,0.6C198.3,351.4,197.7,351.2,197.2,350.6z
		 M195.5,364.8c-1-1-1.5-2.3-1.5-3.8s0.5-2.8,1.5-3.8s2.2-1.5,3.8-1.5c1.5,0,2.8,0.5,3.8,1.5s1.5,2.3,1.5,3.8s-0.5,2.8-1.5,3.8
		s-2.3,1.5-3.7,1.5C197.8,366.3,196.5,365.8,195.5,364.8z"/>
</g>
<g>
	<path class="st1" d="M200,277.3c-7.3,0-13.3-6-13.3-13.3c0-4.1,1.9-8,5.1-10.5v-8.3h-28.5c-1.5,0-3.1-0.1-4.6-0.3l-12.9,12.9
		c0.5,4-0.9,8-3.8,11c-2.5,2.5-5.9,3.9-9.4,3.9s-6.9-1.4-9.4-3.9c-2.5-2.5-3.9-5.9-3.9-9.4s1.4-6.9,3.9-9.4c2.5-2.5,5.9-3.9,9.4-3.9
		c0.5,0,1,0,1.6,0.1l8.7-8.7c-1.9-1.7-3.7-3.7-5.1-5.9l-8.1-12.2H93.4c-12.3,0-22.3-10-22.3-22.3s10-22.3,22.3-22.3h12.3V154
		c0-49.4,37.4-90.3,86.1-95.1V43.6c-3.2-2.5-5.1-6.3-5.1-10.5c0-7.3,6-13.3,13.3-13.3s13.3,6,13.3,13.3c0,4.1-1.9,8-5.1,10.5v15.1
		c23.2,1.7,44.8,11.7,61.3,28.4c17.6,18,27.3,41.7,27.3,66.9v20.8h12.3c12.3,0,22.3,10,22.3,22.3s-10,22.3-22.3,22.3H273l-8,12
		c-1.3,2-2.9,3.8-4.6,5.4l9.3,9.3c0.5-0.1,1-0.1,1.6-0.1c3.6,0,6.9,1.4,9.4,3.9c2.5,2.5,3.9,5.9,3.9,9.4s-1.4,6.9-3.9,9.4
		c-2.5,2.5-5.9,3.9-9.4,3.9c-3.6,0-6.9-1.4-9.4-3.9c-2.9-2.9-4.3-7-3.8-11l-13.1-13.1c-2,0.4-3.9,0.6-5.9,0.6h-30.8v8.3
		c3.2,2.5,5.1,6.3,5.1,10.5C213.3,271.3,207.3,277.3,200,277.3z"/>
	<path class="st1" d="M200,24.9c4.6,0,8.3,3.7,8.3,8.3c0,3.4-2.1,6.4-5.1,7.7v22.6c49.1,1.1,88.6,41.2,88.6,90.6v4.3v21.5h17.3
		c9.5,0,17.3,7.7,17.3,17.3c0,9.5-7.7,17.3-17.3,17.3h-38.8l-9.5,14.2c-2.1,3.2-4.8,5.8-8,7.7l15.3,15.3c1-0.4,2.1-0.6,3.1-0.6
		c2.1,0,4.3,0.8,5.9,2.4c3.2,3.2,3.2,8.5,0,11.8c-1.6,1.6-3.8,2.4-5.9,2.4c-2.1,0-4.3-0.8-5.9-2.4c-2.4-2.4-3-6-1.8-9l-17-17
		c-2.4,0.7-4.9,1.1-7.5,1.1h-35.8v16.1c3,1.3,5.1,4.2,5.1,7.7c0,4.6-3.7,8.3-8.3,8.3c-4.6,0-8.3-3.7-8.3-8.3c0-3.4,2.1-6.4,5.1-7.7
		v-16.1h-33.5c-2.1,0-4.2-0.3-6.2-0.8l-16.7,16.7c1.2,3,0.6,6.6-1.8,9c-1.6,1.6-3.8,2.4-5.9,2.4s-4.3-0.8-5.9-2.4
		c-3.2-3.2-3.2-8.5,0-11.8c1.6-1.6,3.7-2.4,5.9-2.4c1.1,0,2.1,0.2,3.1,0.6l14.8-14.8c-3.4-2-6.4-4.7-8.6-8l-9.6-14.4H93.4
		c-9.5,0-17.3-7.7-17.3-17.3c0-9.5,7.7-17.3,17.3-17.3h17.3v-21.5V154c0-48.5,38.1-88.1,86.1-90.5V40.8c-3-1.3-5.1-4.2-5.1-7.7
		C191.7,28.6,195.4,24.9,200,24.9 M200,14.9c-10.1,0-18.3,8.2-18.3,18.3c0,4.8,1.9,9.3,5.1,12.6v8.6c-22.2,3.2-42.6,13.7-58.2,30.1
		c-17.9,18.8-27.8,43.5-27.8,69.4v4.3v11.5h-7.3c-15,0-27.3,12.2-27.3,27.3s12.2,27.3,27.3,27.3h33.5l6.7,10c0.7,1,1.5,2.1,2.3,3
		l-3.6,3.6c-4.7,0.1-9.2,2-12.5,5.4c-7.1,7.1-7.1,18.8,0,25.9c3.5,3.5,8.1,5.4,12.9,5.4c4.9,0,9.5-1.9,12.9-5.4
		c3.4-3.4,5.3-7.9,5.4-12.5l9.6-9.6c0.9,0.1,1.8,0.1,2.7,0.1h23.5v1.1c-3.2,3.3-5.1,7.8-5.1,12.6c0,10.1,8.2,18.3,18.3,18.3
		c10.1,0,18.3-8.2,18.3-18.3c0-4.8-1.9-9.3-5.1-12.6v-1.1H239c1.4,0,2.8-0.1,4.2-0.2l9.7,9.7c0.1,4.6,2,9.1,5.4,12.5
		c3.5,3.5,8.1,5.4,12.9,5.4c4.9,0,9.5-1.9,12.9-5.4c7.1-7.1,7.1-18.8,0-25.9c-3.4-3.4-7.8-5.2-12.5-5.4l-4.4-4.4
		c0.6-0.8,1.2-1.6,1.8-2.5l6.5-9.8h33.5c15,0,27.3-12.2,27.3-27.3s-12.2-27.3-27.3-27.3h-7.3v-11.5V154c0-26.5-10.2-51.5-28.7-70.4
		c-16.2-16.5-37.2-26.8-59.9-29.5v-8.3c3.2-3.3,5.1-7.8,5.1-12.6C218.3,23.1,210.1,14.9,200,14.9L200,14.9z"/>
</g>
<path class="st2" d="M93.4,179.8h215.7c9.5,0,17.3,7.7,17.3,17.3l0,0c0,9.5-7.7,17.3-17.3,17.3H93.4c-9.5,0-17.3-7.7-17.3-17.3l0,0
	C76.2,187.6,83.9,179.8,93.4,179.8z"/>
<path class="st3" d="M110.7,158.3h181.2v21.5H110.7V158.3z"/>
<path class="st4" d="M201.3,63.4c50,0,90.6,40.6,90.6,90.6v4.3l0,0H110.7l0,0V154C110.7,104,151.2,63.4,201.3,63.4z"/>
<path class="st3" d="M239,240.2h-75.8c-8.6,0-16.6-4.3-21.4-11.5l-9.6-14.4h138l-9.5,14.2C255.9,235.9,247.8,240.2,239,240.2z"/>
<path class="st5" d="M214.2,123.8v-12.9c0-2.4-1.9-4.3-4.3-4.3c-2.4,0-4.3,1.9-4.3,4.3v12.9H197v-12.9c0-2.4-1.9-4.3-4.3-4.3
	s-4.3,1.9-4.3,4.3v12.9c-9.5,0-17.3,7.7-17.3,17.3v17.3h60.4v-17.3C231.5,131.5,223.7,123.8,214.2,123.8z"/>
<g>
	<path class="st1" d="M188.3,136.8L188.3,136.8c2.4,0,4.3,1.9,4.3,4.3l0,0c0,2.4-1.9,4.3-4.3,4.3h0c-2.4,0-4.3-1.9-4.3-4.3l0,0
		C184,138.7,185.9,136.8,188.3,136.8z"/>
	<path class="st1" d="M214.2,136.8L214.2,136.8c2.4,0,4.3,1.9,4.3,4.3l0,0c0,2.4-1.9,4.3-4.3,4.3l0,0c-2.4,0-4.3-1.9-4.3-4.3l0,0
		C209.9,138.7,211.8,136.8,214.2,136.8z"/>
</g>
<path class="st6" d="M106.4,201.4H93.4c-2.4,0-4.3-1.9-4.3-4.3s1.9-4.3,4.3-4.3h12.9c2.4,0,4.3,1.9,4.3,4.3S108.8,201.4,106.4,201.4
	z"/>
<path class="st7" d="M135.3,201.4h-12.9c-2.4,0-4.3-1.9-4.3-4.3s1.9-4.3,4.3-4.3h12.9c2.4,0,4.3,1.9,4.3,4.3
	S137.7,201.4,135.3,201.4z"/>
<path class="st8" d="M164.3,201.4h-12.9c-2.4,0-4.3-1.9-4.3-4.3s1.9-4.3,4.3-4.3h12.9c2.4,0,4.3,1.9,4.3,4.3
	S166.7,201.4,164.3,201.4z"/>
<path class="st9" d="M193.3,201.4h-12.9c-2.4,0-4.3-1.9-4.3-4.3s1.9-4.3,4.3-4.3h12.9c2.4,0,4.3,1.9,4.3,4.3
	S195.6,201.4,193.3,201.4z"/>
<path class="st6" d="M222.2,201.4h-12.9c-2.4,0-4.3-1.9-4.3-4.3s1.9-4.3,4.3-4.3h12.9c2.4,0,4.3,1.9,4.3,4.3
	S224.6,201.4,222.2,201.4z"/>
<path class="st7" d="M251.2,201.4h-12.9c-2.4,0-4.3-1.9-4.3-4.3s1.9-4.3,4.3-4.3h12.9c2.4,0,4.3,1.9,4.3,4.3
	S253.6,201.4,251.2,201.4z"/>
<path class="st9" d="M280.1,201.4h-12.9c-2.4,0-4.3-1.9-4.3-4.3s1.9-4.3,4.3-4.3h12.9c2.4,0,4.3,1.9,4.3,4.3
	S282.5,201.4,280.1,201.4z"/>
<path class="st10" d="M309.1,201.4h-12.9c-2.4,0-4.3-1.9-4.3-4.3s1.9-4.3,4.3-4.3h12.9c2.4,0,4.3,1.9,4.3,4.3
	S311.5,201.4,309.1,201.4z"/>
<g>
	<circle class="st3" cx="200" cy="264" r="8.3"/>
	<rect x="196.8" y="223.5" class="st3" width="6.5" height="40.5"/>
</g>
<g>
	<circle class="st4" cx="200" cy="33.2" r="8.3"/>
	
		<rect x="196.8" y="33.2" transform="matrix(-1 -1.224647e-16 1.224647e-16 -1 400 106.8667)" class="st4" width="6.5" height="40.5"/>
</g>
<g>
	<circle class="st3" cx="132.6" cy="259.3" r="8.3"/>
	
		<rect x="143.7" y="224.7" transform="matrix(0.7071 0.7071 -0.7071 0.7071 216.2553 -32.1521)" class="st3" width="6.5" height="40.5"/>
</g>
<g>
	<circle class="st3" cx="271.2" cy="259.3" r="8.3"/>
	
		<rect x="253.7" y="224.7" transform="matrix(0.7071 -0.7071 0.7071 0.7071 -97.9664 253.4227)" class="st3" width="6.5" height="40.5"/>
</g>
<path class="st1" d="M139.1,119.5c-2.4,0-4.3-1.9-4.3-4.3c0-0.8,0.2-1.6,0.7-2.3c14.1-22.8,39-36.6,65.8-36.5c2.4,0,4.3,1.9,4.3,4.3
	s-1.9,4.3-4.3,4.3c-23.8,0-46,12.2-58.5,32.5C141.9,118.7,140.6,119.5,139.1,119.5z"/>
</svg>
