<?xml version="1.0" encoding="utf-8"?>
<!-- Generator: Adobe Illustrator 22.1.0, SVG Export Plug-In . SVG Version: 6.00 Build 0)  -->
<svg version="1.1" id="Layer_1" xmlns="http://www.w3.org/2000/svg" xmlns:xlink="http://www.w3.org/1999/xlink" x="0px" y="0px"
	 viewBox="0 0 80.6 80.6" style="enable-background:new 0 0 80.6 80.6;" xml:space="preserve">
<style type="text/css">
	.st0{fill:#525E69;}
	.st1{fill:#FFFFFF;}
</style>
<g>
	<path class="st0" d="M39.9,77.6c-1.9,0-3.4-1.5-3.4-3.4c0-1.2,0.6-2.2,1.5-2.8v-3.2h-8.8c-0.5,0-1-0.1-1.6-0.2l-4.1,4.1
		c0,0.2,0.1,0.4,0.1,0.7c0,1.9-1.5,3.4-3.4,3.4c-1.9,0-3.4-1.5-3.4-3.4c0-1.9,1.5-3.4,3.4-3.4c0.2,0,0.3,0,0.5,0l3.1-3.1
		c-0.7-0.6-1.3-1.2-1.8-1.9l-2.4-3.7H8.7c-3.4,0-6.1-2.7-6.1-6.1c0-3.4,2.7-6.1,6.1-6.1h4v-6.6c0-15.2,12.4-27.6,27.6-27.6
		c15.2,0,27.6,12.4,27.6,27.6v6.6H72c3.4,0,6.1,2.7,6.1,6.1c0,3.4-2.7,6.1-6.1,6.1H61.1l-2.4,3.7c-0.5,0.7-1,1.3-1.7,1.8l3.3,3.3
		c0.2,0,0.3,0,0.5,0c1.9,0,3.4,1.5,3.4,3.4c0,1.9-1.5,3.4-3.4,3.4c-1.9,0-3.4-1.5-3.4-3.4c0-0.2,0-0.4,0.1-0.7L53.3,68
		c-0.6,0.2-1.3,0.2-1.9,0.2h-9.5v3.3c0.9,0.6,1.4,1.7,1.4,2.7C43.3,76.1,41.8,77.6,39.9,77.6z"/>
	<path class="st1" d="M40.3,15.3c14.7,0,26.6,11.9,26.6,26.6v1.3v6.3H72c2.8,0,5.1,2.3,5.1,5.1c0,2.8-2.3,5.1-5.1,5.1H60.5l-2.7,4.1
		c-0.6,0.9-1.5,1.6-2.4,2.2l4.5,4.5c0.3-0.1,0.5-0.2,0.8-0.2c1.3,0,2.4,1.1,2.4,2.4s-1.1,2.4-2.4,2.4c-1.3,0-2.4-1.1-2.4-2.4
		c0-0.3,0.1-0.7,0.2-0.9l-5-5c-0.7,0.2-1.4,0.3-2.2,0.3H40.9V72c0.8,0.4,1.4,1.2,1.4,2.2c0,1.3-1.1,2.4-2.4,2.4
		c-1.3,0-2.4-1.1-2.4-2.4c0-1,0.6-1.9,1.5-2.2v-4.8h-9.8c-0.6,0-1.3-0.1-1.9-0.2l-4.9,4.9c0.1,0.3,0.2,0.6,0.2,0.9
		c0,1.3-1.1,2.4-2.4,2.4c-1.3,0-2.4-1.1-2.4-2.4s1.1-2.4,2.4-2.4c0.3,0,0.6,0.1,0.8,0.2l4.4-4.4c-1-0.6-1.9-1.4-2.5-2.4l-2.7-4.1
		H8.7c-2.8,0-5.1-2.3-5.1-5.1c0-2.9,2.3-5.1,5.1-5.1h5v-6.3v-1.3C13.7,27.2,25.6,15.3,40.3,15.3 M40.3,13.3
		c-15.8,0-28.6,12.8-28.6,28.6v1.3v4.3h-3c-4,0-7.1,3.1-7.1,7.1c0,3.9,3.2,7.1,7.1,7.1h10.4l2.1,3.2c0.3,0.5,0.7,1,1.2,1.4l-2.1,2.1
		c0,0-0.1,0-0.1,0c-2.4,0-4.4,2-4.4,4.4c0,2.4,2,4.4,4.4,4.4c2.4,0,4.4-2,4.4-4.4c0-0.1,0-0.2,0-0.3l3.4-3.4
		c0.4,0.1,0.8,0.1,1.2,0.1H37v1.7c-0.9,0.8-1.5,2-1.5,3.3c0,2.4,2,4.4,4.4,4.4c2.4,0,4.4-2,4.4-4.4c0-1.2-0.5-2.4-1.4-3.2v-1.8h8.5
		c0.5,0,1,0,1.6-0.1l3.4,3.4c0,0.1,0,0.2,0,0.3c0,2.4,2,4.4,4.4,4.4c2.4,0,4.4-2,4.4-4.4c0-2.4-2-4.4-4.4-4.4c0,0-0.1,0-0.1,0
		l-2.2-2.2c0.4-0.4,0.7-0.8,1-1.2c0,0,0,0,0-0.1l2.1-3.2H72c3.9,0,7.1-3.2,7.1-7.1s-3.2-7.1-7.1-7.1h-3.1v-4.3v-1.3
		C68.9,26.1,56.1,13.3,40.3,13.3L40.3,13.3z"/>
</g>
</svg>
