<?xml version="1.0" encoding="utf-8"?>
<!-- Generator: Adobe Illustrator 22.1.0, SVG Export Plug-In . SVG Version: 6.00 Build 0)  -->
<svg version="1.1" id="Layer_1" xmlns="http://www.w3.org/2000/svg" xmlns:xlink="http://www.w3.org/1999/xlink" x="0px" y="0px"
	 viewBox="0 0 400 400" style="enable-background:new 0 0 400 400;" xml:space="preserve">
<style type="text/css">
	.st0{fill:#3BBEBE;}
	.st1{fill:#490A3C;}
	.st2{fill:#E5DBBF;}
	.st3{fill:#566D76;}
	.st4{fill:#8396A3;}
	.st5{fill:#FFFFFF;}
</style>
<g>
	<g>
		<rect x="17" y="17" class="st0" width="36.6" height="36.6"/>
	</g>
	<g>
		<rect x="53.6" y="17" class="st1" width="36.6" height="36.6"/>
	</g>
	<g>
		<rect x="17" y="53.6" class="st1" width="36.6" height="36.6"/>
	</g>
	<g>
		<rect x="53.6" y="53.6" class="st0" width="36.6" height="36.6"/>
	</g>
	<g>
		<rect x="90.2" y="53.6" class="st1" width="36.6" height="36.6"/>
	</g>
	<g>
		<rect x="126.8" y="53.6" class="st0" width="36.6" height="36.6"/>
	</g>
	<g>
		<rect x="163.4" y="53.6" class="st1" width="36.6" height="36.6"/>
	</g>
	<g>
		<rect x="200" y="53.6" class="st0" width="36.6" height="36.6"/>
	</g>
	<g>
		<rect x="236.6" y="53.6" class="st1" width="36.6" height="36.6"/>
	</g>
	<g>
		<rect x="273.2" y="53.6" class="st0" width="36.6" height="36.6"/>
	</g>
	<g>
		<rect x="309.8" y="53.6" class="st1" width="36.6" height="36.6"/>
	</g>
	<g>
		<rect x="346.4" y="53.6" class="st0" width="36.6" height="36.6"/>
	</g>
	<g>
		<rect x="90.2" y="17" class="st0" width="36.6" height="36.6"/>
	</g>
	<g>
		<rect x="126.8" y="17" class="st1" width="36.6" height="36.6"/>
	</g>
	<g>
		<rect x="163.4" y="17" class="st0" width="36.6" height="36.6"/>
	</g>
	<g>
		<rect x="200" y="17" class="st1" width="36.6" height="36.6"/>
	</g>
	<g>
		<rect x="236.6" y="17" class="st0" width="36.6" height="36.6"/>
	</g>
	<g>
		<rect x="273.2" y="17" class="st1" width="36.6" height="36.6"/>
	</g>
	<g>
		<rect x="309.8" y="17" class="st0" width="36.6" height="36.6"/>
	</g>
	<g>
		<rect x="346.4" y="17" class="st1" width="36.6" height="36.6"/>
	</g>
	<g>
		<rect x="17" y="90.2" class="st0" width="36.6" height="36.6"/>
	</g>
	<g>
		<rect x="53.6" y="90.2" class="st1" width="36.6" height="36.6"/>
	</g>
	<g>
		<rect x="17" y="126.8" class="st1" width="36.6" height="36.6"/>
	</g>
	<g>
		<rect x="53.6" y="126.8" class="st0" width="36.6" height="36.6"/>
	</g>
	<g>
		<rect x="90.2" y="126.8" class="st1" width="36.6" height="36.6"/>
	</g>
	<g>
		<rect x="126.8" y="126.8" class="st0" width="36.6" height="36.6"/>
	</g>
	<g>
		<rect x="163.4" y="126.8" class="st1" width="36.6" height="36.6"/>
	</g>
	<g>
		<rect x="200" y="126.8" class="st0" width="36.6" height="36.6"/>
	</g>
	<g>
		<rect x="236.6" y="126.8" class="st1" width="36.6" height="36.6"/>
	</g>
	<g>
		<rect x="273.2" y="126.8" class="st0" width="36.6" height="36.6"/>
	</g>
	<g>
		<rect x="309.8" y="126.8" class="st1" width="36.6" height="36.6"/>
	</g>
	<g>
		<rect x="346.4" y="126.8" class="st0" width="36.6" height="36.6"/>
	</g>
	<g>
		<rect x="90.2" y="90.2" class="st0" width="36.6" height="36.6"/>
	</g>
	<g>
		<rect x="126.8" y="90.2" class="st1" width="36.6" height="36.6"/>
	</g>
	<g>
		<rect x="163.4" y="90.2" class="st0" width="36.6" height="36.6"/>
	</g>
	<g>
		<rect x="200" y="90.2" class="st1" width="36.6" height="36.6"/>
	</g>
	<g>
		<rect x="236.6" y="90.2" class="st0" width="36.6" height="36.6"/>
	</g>
	<g>
		<rect x="273.2" y="90.2" class="st1" width="36.6" height="36.6"/>
	</g>
	<g>
		<rect x="309.8" y="90.2" class="st0" width="36.6" height="36.6"/>
	</g>
	<g>
		<rect x="346.4" y="90.2" class="st1" width="36.6" height="36.6"/>
	</g>
	<g>
		<rect x="17" y="163.4" class="st0" width="36.6" height="36.6"/>
	</g>
	<g>
		<rect x="53.6" y="163.4" class="st1" width="36.6" height="36.6"/>
	</g>
	<g>
		<rect x="17" y="200" class="st1" width="36.6" height="36.6"/>
	</g>
	<g>
		<rect x="53.6" y="200" class="st0" width="36.6" height="36.6"/>
	</g>
	<g>
		<rect x="90.2" y="200" class="st1" width="36.6" height="36.6"/>
	</g>
	<g>
		<rect x="126.8" y="200" class="st0" width="36.6" height="36.6"/>
	</g>
	<g>
		<rect x="163.4" y="200" class="st1" width="36.6" height="36.6"/>
	</g>
	<g>
		<rect x="200" y="200" class="st0" width="36.6" height="36.6"/>
	</g>
	<g>
		<rect x="236.6" y="200" class="st1" width="36.6" height="36.6"/>
	</g>
	<g>
		<rect x="273.2" y="200" class="st0" width="36.6" height="36.6"/>
	</g>
	<g>
		<rect x="309.8" y="200" class="st1" width="36.6" height="36.6"/>
	</g>
	<g>
		<rect x="346.4" y="200" class="st0" width="36.6" height="36.6"/>
	</g>
	<g>
		<rect x="90.2" y="163.4" class="st0" width="36.6" height="36.6"/>
	</g>
	<g>
		<rect x="126.8" y="163.4" class="st1" width="36.6" height="36.6"/>
	</g>
	<g>
		<rect x="163.4" y="163.4" class="st0" width="36.6" height="36.6"/>
	</g>
	<g>
		<rect x="200" y="163.4" class="st1" width="36.6" height="36.6"/>
	</g>
	<g>
		<rect x="236.6" y="163.4" class="st0" width="36.6" height="36.6"/>
	</g>
	<g>
		<rect x="273.2" y="163.4" class="st1" width="36.6" height="36.6"/>
	</g>
	<g>
		<rect x="309.8" y="163.4" class="st0" width="36.6" height="36.6"/>
	</g>
	<g>
		<rect x="346.4" y="163.4" class="st1" width="36.6" height="36.6"/>
	</g>
	<g>
		<rect x="17" y="236.6" class="st0" width="36.6" height="36.6"/>
	</g>
	<g>
		<rect x="53.6" y="236.6" class="st1" width="36.6" height="36.6"/>
	</g>
	<g>
		<rect x="17" y="273.2" class="st1" width="36.6" height="36.6"/>
	</g>
	<g>
		<rect x="53.6" y="273.2" class="st0" width="36.6" height="36.6"/>
	</g>
	<g>
		<rect x="90.2" y="273.2" class="st1" width="36.6" height="36.6"/>
	</g>
	<g>
		<rect x="126.8" y="273.2" class="st0" width="36.6" height="36.6"/>
	</g>
	<g>
		<rect x="163.4" y="273.2" class="st1" width="36.6" height="36.6"/>
	</g>
	<g>
		<rect x="200" y="273.2" class="st0" width="36.6" height="36.6"/>
	</g>
	<g>
		<rect x="236.6" y="273.2" class="st1" width="36.6" height="36.6"/>
	</g>
	<g>
		<rect x="273.2" y="273.2" class="st0" width="36.6" height="36.6"/>
	</g>
	<g>
		<rect x="309.8" y="273.2" class="st1" width="36.6" height="36.6"/>
	</g>
	<g>
		<rect x="346.4" y="273.2" class="st0" width="36.6" height="36.6"/>
	</g>
	<g>
		<rect x="90.2" y="236.6" class="st0" width="36.6" height="36.6"/>
	</g>
	<g>
		<rect x="126.8" y="236.6" class="st1" width="36.6" height="36.6"/>
	</g>
	<g>
		<rect x="163.4" y="236.6" class="st0" width="36.6" height="36.6"/>
	</g>
	<g>
		<rect x="200" y="236.6" class="st1" width="36.6" height="36.6"/>
	</g>
	<g>
		<rect x="236.6" y="236.6" class="st0" width="36.6" height="36.6"/>
	</g>
	<g>
		<rect x="273.2" y="236.6" class="st1" width="36.6" height="36.6"/>
	</g>
	<g>
		<rect x="309.8" y="236.6" class="st0" width="36.6" height="36.6"/>
	</g>
	<g>
		<rect x="346.4" y="236.6" class="st1" width="36.6" height="36.6"/>
	</g>
	<g>
		<rect x="17" y="309.8" class="st0" width="36.6" height="36.6"/>
	</g>
	<g>
		<rect x="53.6" y="309.8" class="st1" width="36.6" height="36.6"/>
	</g>
	<g>
		<rect x="17" y="346.4" class="st1" width="36.6" height="36.6"/>
	</g>
	<g>
		<rect x="53.6" y="346.4" class="st0" width="36.6" height="36.6"/>
	</g>
	<g>
		<rect x="90.2" y="346.4" class="st1" width="36.6" height="36.6"/>
	</g>
	<g>
		<rect x="126.8" y="346.4" class="st0" width="36.6" height="36.6"/>
	</g>
	<g>
		<rect x="163.4" y="346.4" class="st1" width="36.6" height="36.6"/>
	</g>
	<g>
		<rect x="200" y="346.4" class="st0" width="36.6" height="36.6"/>
	</g>
	<g>
		<rect x="236.6" y="346.4" class="st1" width="36.6" height="36.6"/>
	</g>
	<g>
		<rect x="273.2" y="346.4" class="st0" width="36.6" height="36.6"/>
	</g>
	<g>
		<rect x="309.8" y="346.4" class="st1" width="36.6" height="36.6"/>
	</g>
	<g>
		<rect x="346.4" y="346.4" class="st0" width="36.6" height="36.6"/>
	</g>
	<g>
		<rect x="90.2" y="309.8" class="st0" width="36.6" height="36.6"/>
	</g>
	<g>
		<rect x="126.8" y="309.8" class="st1" width="36.6" height="36.6"/>
	</g>
	<g>
		<rect x="163.4" y="309.8" class="st0" width="36.6" height="36.6"/>
	</g>
	<g>
		<rect x="200" y="309.8" class="st1" width="36.6" height="36.6"/>
	</g>
	<g>
		<rect x="236.6" y="309.8" class="st0" width="36.6" height="36.6"/>
	</g>
	<g>
		<rect x="273.2" y="309.8" class="st1" width="36.6" height="36.6"/>
	</g>
	<g>
		<rect x="309.8" y="309.8" class="st0" width="36.6" height="36.6"/>
	</g>
	<g>
		<rect x="346.4" y="309.8" class="st1" width="36.6" height="36.6"/>
	</g>
</g>
<g>
	<path class="st2" d="M333.1,216.7c-14.4,9.2-44.1,5.9-55.7-14.1c-3-5.2-1.5-12.1,3.5-15.3c5-3.2,11.5-1.5,14.5,3.7
		c5.6,9.6,38.5,20.3,47.3-1.1C351.5,204.9,333.1,216.7,333.1,216.7z"/>
	<path class="st3" d="M116.6,217.5H82.4c-6.3,0-11.4,5.4-11.4,12V306c0,6.6,5.1,12,11.4,12H128v-88.6
		C128,222.8,122.9,217.5,116.6,217.5z"/>
	<path class="st3" d="M247.3,217.5h-34.2c-6.3,0-11.4,5.4-11.4,12V306c0,6.6,5.1,12,11.4,12h45.6v-88.6
		C258.7,222.8,253.6,217.5,247.3,217.5z"/>
	<g>
		<path class="st4" d="M197.3,86.4H133c-49.6,0-89.9,42.3-89.9,94.4c0,52.1,40.2,94.4,89.9,94.4h64.3c49.6,0,89.9-42.3,89.9-94.4
			C287.2,128.7,246.9,86.4,197.3,86.4z"/>
		<path class="st4" d="M95.4,199.8H61.3c-6.3,0-11.4,6.3-11.4,14.1v90.1c0,7.7,5.1,14.1,11.4,14.1h45.6V213.8
			C106.8,206.1,101.7,199.8,95.4,199.8z"/>
	</g>
	<path class="st4" d="M226.1,217.5H192c-6.3,0-11.4,5.4-11.4,12V306c0,6.6,5.1,12,11.4,12h45.6v-88.6
		C237.5,222.8,232.4,217.5,226.1,217.5z"/>
	<path class="st4" d="M358,209.5c-7.4,0-13.4,6.3-13.4,14.1c0,9.6-7.4,17.4-16.5,17.4s-16.5-7.8-16.5-17.4v-51.1
		c0.1-1.2,0.2-2.4,0.2-3.7v-23.4c0-18.8-11-34.9-26.5-41.6c-7.8-10.7-20.1-17.6-33.9-17.6h-22.3c-23.7,0-42.8,20.1-42.8,45v82.6
		h82.7c5.6,0,10.9-1.1,15.8-3.2v13c0,25.1,19.5,45.6,43.4,45.6s43.4-20.4,43.4-45.6C371.4,215.8,365.4,209.5,358,209.5z"/>
	<path class="st5" d="M309.7,249.4c-16.9,0-40.5-19.1-40.5-42.6c0-6.1,4.7-11.1,10.6-11.1c5.8,0,10.6,5,10.6,11.1
		c0,11.2,22.7,38.4,40.9,25C331.3,249.4,309.7,249.4,309.7,249.4z"/>
	<ellipse class="st4" cx="245.4" cy="154.2" rx="67.5" ry="73.2"/>
	<path class="st3" d="M157.8,183c0,16.9,13,30.5,29,30.5c16,0,29-13.7,29-30.5l0-77.8c-32.1,0-58.1,27.3-58.1,61V183z"/>
	<g>
		<path class="st5" d="M94.7,318v-9.9c0-2.3,1.8-4.2,4-4.2h0c2.2,0,4,1.9,4,4.2v9.9H94.7z"/>
		<path class="st5" d="M83.7,318v-9.9c0-2.3,1.8-4.2,4-4.2h0c2.2,0,4,1.9,4,4.2v9.9H83.7z"/>
	</g>
	<g>
		<path class="st4" d="M115.7,318v-9.9c0-2.3,1.8-4.2,4-4.2h0c2.2,0,4,1.9,4,4.2v9.9H115.7z"/>
	</g>
	<g>
		<path class="st5" d="M223.2,318v-9.9c0-2.3,1.8-4.2,4-4.2h0c2.2,0,4,1.9,4,4.2v9.9H223.2z"/>
		<path class="st5" d="M212.2,318v-9.9c0-2.3,1.8-4.2,4-4.2h0c2.2,0,4,1.9,4,4.2v9.9H212.2z"/>
	</g>
	<g>
		<path class="st4" d="M244.2,318v-9.9c0-2.3,1.8-4.2,4-4.2l0,0c2.2,0,4,1.9,4,4.2v9.9H244.2z"/>
	</g>
	<path class="st3" d="M260,166h-0.7c-2.7,0-4.9-2.2-4.9-4.9v-1.2c0-2.7,2.2-4.9,4.9-4.9h0.7c2.7,0,4.9,2.2,4.9,4.9v1.2
		C265,163.8,262.8,166,260,166z"/>
</g>
</svg>
