<?xml version="1.0" encoding="utf-8"?>
<!-- Generator: Adobe Illustrator 22.1.0, SVG Export Plug-In . SVG Version: 6.00 Build 0)  -->
<svg version="1.1" id="Layer_1" xmlns="http://www.w3.org/2000/svg" xmlns:xlink="http://www.w3.org/1999/xlink" x="0px" y="0px"
	 viewBox="0 0 80.6 80.6" style="enable-background:new 0 0 80.6 80.6;" xml:space="preserve">
<style type="text/css">
	.st0{fill:#3BBEBE;}
	.st1{fill:#FFFFFF;}
</style>
<g>
	<g>
		<path class="st0" d="M10.7,71.4c-0.8,0-1.5-0.7-1.5-1.5V10.7c0-0.8,0.7-1.5,1.5-1.5h59.2c0.8,0,1.5,0.7,1.5,1.5v59.2
			c0,0.8-0.7,1.5-1.5,1.5H10.7z"/>
		<path class="st1" d="M69.9,10.7v59.2H10.7V10.7H69.9 M69.9,7.7H10.7c-1.7,0-3,1.3-3,3v59.2c0,1.7,1.3,3,3,3h59.2c1.7,0,3-1.3,3-3
			V10.7C72.9,9,71.6,7.7,69.9,7.7L69.9,7.7z"/>
	</g>
</g>
</svg>
