<?xml version="1.0" encoding="utf-8"?>
<!-- Generator: Adobe Illustrator 22.1.0, SVG Export Plug-In . SVG Version: 6.00 Build 0)  -->
<svg version="1.1" id="Layer_1" xmlns="http://www.w3.org/2000/svg" xmlns:xlink="http://www.w3.org/1999/xlink" x="0px" y="0px"
	 viewBox="0 0 400 400" style="enable-background:new 0 0 400 400;" xml:space="preserve">
<style type="text/css">
	.st0{fill:#60025E;}
	.st1{fill:#FFFFFF;}
	.st2{fill:#490A3D;stroke:#490A3D;stroke-width:6;stroke-miterlimit:10;}
	.st3{fill:#A46F3E;}
	.st4{fill:#EF771D;}
	.st5{fill:#F79959;}
	.st6{fill:#490A3D;}
	.st7{fill:#FFC850;}
	.st8{fill:#FFDC64;}
	.st9{fill:#EBAF4B;}
	.st10{fill:#EB874B;}
	.st11{fill:#FFAA50;}
	.st12{fill:#D77841;}
	.st13{fill:#FFF082;}
</style>
<circle class="st0" cx="200" cy="340.1" r="37.7"/>
<g>
	<path class="st1" d="M197.2,350.6c-0.5-0.6-0.7-1.3-0.7-2.3c0-2.6,0.5-4.8,1.4-6.6c0.9-1.8,2.3-3.8,4.1-5.9
		c1.4-1.7,2.5-3.1,3.1-4.2c0.7-1.1,1-2.4,1-3.8c0-1.6-0.6-2.8-1.7-3.7c-1.2-0.9-2.7-1.4-4.7-1.4c-1.7,0-3.3,0.4-4.9,1.1
		c-1.6,0.7-3.4,1.8-5.5,3.2c-1.2,0.7-2.1,1-2.9,1c-0.8,0-1.5-0.4-2.1-1.1s-0.9-1.6-0.9-2.6c0-1.4,0.6-2.5,1.7-3.3c2-1.7,4.3-3,7-4
		s5.4-1.5,8.1-1.5c2.9,0,5.4,0.5,7.7,1.5c2.2,1,4,2.4,5.2,4.1c1.3,1.7,1.9,3.8,1.9,6c0,2.5-0.6,4.6-1.8,6.4s-2.9,3.9-5.2,6.1
		c-1.9,2-3.4,3.6-4.4,5s-1.6,2.9-1.8,4.6c-0.1,0.8-0.5,1.3-1,1.7c-0.5,0.4-1.1,0.6-1.9,0.6C198.3,351.4,197.7,351.2,197.2,350.6z
		 M195.5,364.8c-1-1-1.5-2.3-1.5-3.8s0.5-2.8,1.5-3.8s2.2-1.5,3.8-1.5c1.5,0,2.8,0.5,3.8,1.5s1.5,2.3,1.5,3.8s-0.5,2.8-1.5,3.8
		s-2.3,1.5-3.7,1.5C197.8,366.3,196.5,365.8,195.5,364.8z"/>
</g>
<g>
	<g>
		<path class="st1" d="M78.7,282.9c-9.6,0-18.8-2.6-23.5-4.1c0,0-0.1,0-0.1,0c-2.1-0.7-3.7-2.3-4.5-4.4c-0.8-2-0.6-4.2,0.4-6.1
			c3.4-6.4,12.7-21.7,26-27.1c0.6-0.2,1.2-0.4,1.8-0.6C61.3,210.6,53.1,167.7,57.9,131c-6.5,0.8-12,1.2-15.9,1.4c-0.1,0-0.3,0-0.4,0
			c-2.3,0-4.5-1-6-2.7c-1.5-1.7-2.3-4-2.1-6.3c0.9-8,3-22.7,8-37.9c-2.3-0.3-4.2-2.2-4.4-4.5c-0.4-3.6,2.9-5.6,5-6.1
			c0.1,0,0.2,0,0.3,0c1.1-0.2,2.2-0.2,3.3-0.3C50.4,63.5,56.3,54.5,63.3,48c7.8-7.4,19.1-11.4,31.9-11.4c8.3,0,16.5,1.7,22.6,4.6
			l8-7.5c1.6-1.5,3.6-2.2,5.7-2.2c2.2,0,4.3,0.9,5.9,2.5c1.5,1.5,2.3,3.6,2.2,5.7c0,2.2-1,4.4-2.6,5.9L129,53
			c0.3,0.7,0.5,1.4,0.8,2.2c4.5,0.7,8.9,2.1,13.1,3.9c0.3-0.7,0.6-1.4,0.9-2.2c0.7-1.7,1.1-3.7,1.5-5.8c1-5.4,2.5-12.8,11.2-16.2
			c2.2-0.9,4.5-1.3,6.6-1.3c8,0,13.8,5.5,19,10.4c2.2,2,4.3,4,6.4,5.5c-0.2-4.6-0.5-8-0.9-9.5c-0.9-3.9,0.1-8,2.5-11.1
			c2.5-3.1,6.1-4.8,10-4.8c0.5,0,1.1,0,1.7,0.1c2,0.3,4,0.4,5.9,0.4c3.1,0,6-0.4,8.6-1.1c0.6-0.2,1.2-0.2,1.8-0.2
			c2.4,0,4.6,1.3,5.7,3.5c1.1,2.1,0.9,4.7-0.6,6.6c-1,1.5-3.5,9.2-5.9,21.8c3-0.5,6.1-0.8,9.1-0.8c9.2,0,18.2,2.4,26.2,7
			c0.6-0.3,1.1-0.6,1.7-0.8c0.1-0.3,0.3-0.7,0.4-1c3.5-7.9,6.8-15.4,3.7-20.7c0-0.1-0.1-0.1-0.1-0.2c-1.3-2.5-0.3-4.5,0.1-5.3
			c0.9-1.5,2.6-2.4,4.4-2.4c2.1,0,4.4,1.4,5.4,3.3c4.6,8.3,2.4,14.6,0.2,20.6c-0.1,0.3-0.2,0.6-0.3,0.9c3.5-0.7,7-1.1,10.6-1.2
			c2-0.3,4.1-0.4,6.1-0.4c28.8,0,49.7,26.5,56.3,71.3c1.3-0.2,2.6-0.4,3.9-0.4c4.4,0,8.3,1.6,11.4,4.7c9.3,9.3,3.9,21.4-0.4,31.2
			c-3.5,7.9-6.8,15.3-3.8,20.7c1.5,2.5,0.6,4.6,0.1,5.4c-0.9,1.6-2.6,2.6-4.5,2.6h0c-2.3,0-4.5-1.6-5.4-3.2c0-0.1-0.1-0.1-0.1-0.2
			c-0.5-0.8-0.9-1.7-1.2-2.5c-0.8,6.2-1.9,12.2-3.3,18.1c-5.5,24-14.8,43.9-27,57.5C299,273,284.3,280,267.8,280
			c-6.4,0-12.5-1.1-18.2-3.3c-0.3-0.1-0.6-0.1-0.9-0.3c-1.2-0.5-2.3-1-3.4-1.5c-7.2,3.4-14.8,5-22.5,5c0,0-0.2,0-0.2,0
			c-7.8,0-15.5-1.7-22.4-5c-6.2,2.9-12.9,4.6-19.7,5c-0.2,0-0.5,0-0.8,0l-0.7,0c-0.4,0-0.8,0-1.2,0c0,0-0.1,0-0.1,0
			c-7.9,0-15.7-1.7-22.6-5.1c-6.9,3.3-14.6,5.1-22.3,5.1c-0.1,0-0.2,0-0.4,0c-9.9-0.7-19.4-4.2-28.2-10.4c-2.7,5.1-6.7,9-11.5,10.9
			C88.8,282.1,84,282.9,78.7,282.9z M342.9,139.3c0.6,7.9,0.7,15.9,0.4,24c0.6-1.8,1.2-3.8,1.6-5.9l0.1-0.4
			c1.2-6.9,2.4-13.5,0.3-16.2C344.7,140.2,343.9,139.7,342.9,139.3z M163.2,48.6c-1.1,0-4.1,0-8.1,7.5c-0.3,0.6-0.5,1.3-0.6,2.2
			c6.2-2.4,12.7-3.7,19.2-3.7c0,0,0.3,0,0.4,0c1,0,2,0,3,0.1c-0.6-0.4-1.3-0.8-2-1.2l-0.1-0.1C170.5,50.9,166.3,48.6,163.2,48.6z"/>
		<path class="st1" d="M218.2,28.3c1.1,0,1.8,1.2,1.1,2.2c-2.5,3.4-5.9,18.1-8.1,31.5c4.9-1.7,10.1-2.6,15.4-2.6
			c9.5,0,18.4,2.8,26.1,7.8c1.5-0.9,2.9-1.6,4.4-2.4c0.1-0.1,0.3-0.1,0.4-0.2c0,0,0,0,0,0c0,0,0,0,0,0c0.2-0.1,0.5-0.2,0.7-0.3
			c4.1-9.5,9.4-19.5,4.7-27.9c-0.2-0.4-0.1-0.5,0-0.5c0.3,0,0.9,0.4,1.1,0.7c5.2,9.4-0.8,14.8-2.7,25.5c-0.1,0.3-0.1,0.6-0.2,0.9
			c5.7-2.3,11.8-3.5,18.1-3.5c2-0.3,3.9-0.4,5.7-0.4c30.1,0,47.4,32.6,52.1,72.5c2.8-0.8,5.5-1.5,8.1-1.5c2.8,0,5.5,0.8,7.9,3.2
			c13.1,13.1-13.9,35-5,50.8c0.2,0.3,0.2,0.5,0,0.5c-0.3,0-0.9-0.5-1.1-0.8c-5.2-9.4,0.8-14.8,2.7-25.5c2.4-13.3,4.5-24.1-12.5-25
			c6.8,62.5-16.8,141.7-69.5,141.7c-6.2,0-11.9-1.1-17.2-3.3c0,0-0.1,0-0.1,0.1c-1.8-0.7-3.4-1.6-5.1-2.4
			c-6.9,3.6-14.5,5.6-22.6,5.6c0,0-0.1,0-0.1,0c0,0-0.1,0-0.1,0c-8.1,0-15.7-2-22.4-5.6c-6,3.2-12.8,5.2-20,5.6c-0.3,0-0.7,0-1,0
			c-0.5,0-1,0-1.4,0c0,0,0,0,0,0c0,0,0,0-0.1,0c-8.1,0-15.9-2-22.6-5.7c-6.6,3.6-14.2,5.7-22.3,5.7c-11.4-0.8-21.7-5.7-30.8-13.5
			c-1.4,5.5-5,11.9-11.1,14.3c-3.8,1.5-8,2.1-12.2,2.1c-8.8,0-17.6-2.5-21.9-3.9c-1.4-0.5-2.1-2.1-1.4-3.4
			c3.1-5.8,11.8-20.1,23.5-24.8c1.8-0.7,3.7-1,5.6-1.1c0.1,0,0.1,0,0.2,0c0.9,0,1.9,0.1,2.8,0.2C66.3,214,56.7,165,63.8,125
			c-9.6,1.6-17.7,2.2-22.1,2.4c-0.1,0-0.1,0-0.2,0c-1.8,0-3.3-1.6-3.1-3.5v0v0c0.8-7.5,3.2-25.5,10-43c-1.3-0.4-2.6-0.6-4-0.6
			c-0.7,0-1.3,0-2,0.1c-0.1,0-0.2,0-0.3,0c-0.5,0,0.4-0.6,0.9-0.7c1-0.1,1.9-0.2,2.7-0.2c1.1,0,2.1,0.1,3.1,0.3
			c4.2-10.5,10-20.8,17.9-28.3c7.8-7.3,18.5-10,28.5-10c9.5,0,18.4,2.5,23.4,5.7l10.6-10c0.6-0.6,1.4-0.9,2.2-0.9
			c0.8,0,1.6,0.3,2.3,1c1.2,1.2,1.1,3.3-0.2,4.5l-10.6,10c1.2,2.1,2.2,4.8,3,7.9c6.8,0.7,13.2,2.8,19.1,6c0.1,0,0.2,0.1,0.3,0.1
			c1.1-2.1,2.1-4.5,3.2-7c3-7.1,1-15.9,9.9-19.3c1.7-0.7,3.3-1,4.9-1c11.6,0,18.5,16.8,30.6,18.5c-0.1-7.7-0.5-15.2-1.3-18.3
			c-1.1-5.1,2.8-9.8,7.7-9.8c0.3,0,0.7,0,1,0.1c2.1,0.3,4.3,0.5,6.6,0.5c3.3,0,6.7-0.4,9.9-1.3C217.9,28.4,218,28.3,218.2,28.3
			 M148.5,66.7c7.5-4.5,16-7.2,25.2-7.2c0,0,0,0,0.1,0c0,0,0,0,0,0c0.1,0,0.1,0,0.2,0c6.9,0,13.7,1.6,19.8,4.4c0-1.9,0-3.8-0.1-5.7
			c-6.9-0.4-9.4-5.4-16.3-9.1c-5.2-2.8-9.9-5.4-14.3-5.4c-4.4,0-8.5,2.6-12.5,10.1C148.7,57.5,149.5,62.4,148.5,66.7 M218.2,18.3
			C218.2,18.3,218.2,18.3,218.2,18.3c-1.1,0-2.1,0.1-3.1,0.4c-2.2,0.6-4.6,0.9-7.3,0.9c-1.7,0-3.4-0.1-5.2-0.4
			c-0.8-0.1-1.6-0.2-2.3-0.2c-5.4,0-10.5,2.4-13.9,6.7c-2.7,3.3-4,7.4-4,11.5c-5-4.4-11-8.7-19.1-8.7c-2.8,0-5.7,0.5-8.5,1.6
			c-5,1.9-8.2,4.9-10.2,8.1c-0.3-3-1.5-5.8-3.6-7.9c-2.5-2.6-5.9-4.1-9.5-4.1c-3.3,0-6.5,1.3-9,3.5c0,0,0,0-0.1,0.1l-5.6,5.3
			c-6.3-2.4-13.8-3.7-21.6-3.7c-14.1,0-26.6,4.5-35.4,12.8c-6.8,6.4-12.7,15-17.6,25.5c-0.2,0-0.4,0.1-0.6,0.1
			c-0.2,0-0.4,0.1-0.5,0.1c-4.8,1-9.6,5.3-9,11.5c0.3,2.6,1.5,4.9,3.4,6.6c-4.3,14.1-6.1,27.4-6.9,34.8c0,0,0,0,0,0.1
			c-0.4,3.7,0.8,7.4,3.3,10.2c2.5,2.7,6,4.3,9.7,4.3c0.2,0,0.5,0,0.7,0c2.6-0.1,6-0.4,10-0.7c-1.6,17.2-0.6,35.5,3,53.7
			c3.5,17.6,9.1,33.9,16.5,47.8c-12.9,6.9-21.8,21.4-25.1,27.7c-1.7,3.1-1.9,6.9-0.6,10.2c1.3,3.4,4,6.1,7.5,7.3
			c0.1,0,0.1,0,0.2,0.1c4.9,1.6,14.7,4.4,25,4.4c6,0,11.3-0.9,16-2.8c4.3-1.7,8.1-4.7,11.1-8.6c8.3,5,17.1,7.8,26.3,8.5
			c0.2,0,0.5,0,0.7,0c7.6,0,15.2-1.6,22.3-4.6c7.1,3,14.8,4.6,22.6,4.6c0,0,0,0,0,0c0,0,0,0,0,0c0.5,0,0.9,0,1.4,0l0.4,0
			c0,0,0,0,0.1,0l0.2,0c0.3,0,0.6,0,0.9,0c6.6-0.3,13.2-1.9,19.4-4.5c7,3,14.7,4.6,22.4,4.6c0,0,0.1,0,0.1,0c0,0,0.1,0,0.1,0
			c7.7,0,15.2-1.5,22.5-4.6c0.5,0.2,1.1,0.5,1.6,0.7c0.4,0.2,0.8,0.3,1.3,0.4c6.2,2.3,12.8,3.5,19.6,3.5c17.8,0,34.1-7.7,47.2-22.3
			c12.8-14.2,22.5-34.9,28.2-59.7c0.7-2.9,1.3-5.9,1.8-8.9c1,0.3,2.1,0.5,3.3,0.5c3.6,0,7-2,8.8-5.1c1.8-3.2,1.7-7-0.1-10.3
			c-1.8-3.2,1.3-10.1,4-16.2c2.3-5.2,4.7-10.6,5.6-16.3c1.6-10.1-2.5-16.7-6.2-20.4c0,0,0,0,0,0c-4.1-4-9-6.1-14.7-6.1
			c-3.2-18-8.8-33.4-16.6-45.2C317.8,58,302.7,49.1,285,49.1c-2.1,0-4.2,0.1-6.4,0.4c-1,0-2.1,0.1-3.1,0.1c1.1-5,1.1-11-2.7-17.9
			c-1.9-3.5-5.9-5.8-9.8-5.8c0,0,0,0,0,0c-3.5,0-6.8,1.8-8.6,4.8c-1.9,3-2,6.8-0.4,10.2c0.1,0.1,0.2,0.3,0.2,0.4
			c1.6,2.8-0.5,8.3-2.9,13.7c-7.8-3.7-16.2-5.6-24.8-5.6c-0.9,0-1.9,0-2.8,0.1c1.6-7.2,3-11.9,3.8-13.3c2.4-3.4,2.7-7.9,0.8-11.6
			C226.4,20.7,222.5,18.3,218.2,18.3L218.2,18.3z M140.3,49.2c0.1-0.1,0.2-0.2,0.3-0.3c-0.1,0.4-0.2,0.9-0.2,1.3
			c-0.2,0.9-0.3,1.7-0.5,2.5c-0.8-0.3-1.6-0.5-2.4-0.8L140.3,49.2L140.3,49.2z"/>
	</g>
	<g>
		<path class="st1" d="M362.8,84c-17.8,0-31.8-3.4-41.6-10.1c-12.4-8.3-15.9-25.1-14.2-36.3l-6-4c-1.8-1.2-2.9-3-3.3-5.1
			c-0.4-2.1,0-4.3,1.2-6c1.5-2.2,4-3.4,6.6-3.4c1.6,0,3.1,0.5,4.4,1.4l5.9,3.9c5.8-3.5,13.9-5.7,21.4-5.7c6.7,0,12.9,1.7,17.8,5.1
			c17.8,12,26.9,38.5,30,49.4c0.6,2.2,0.3,4.6-1,6.5c-1.3,2-3.4,3.2-5.7,3.5C373,83.7,367.8,84,362.8,84C362.8,84,362.8,84,362.8,84
			z"/>
		<path class="st1" d="M337.2,23.7c5.2,0,10.5,1.2,15,4.2c16.8,11.3,25.4,37.5,28,46.6c0.5,1.7-0.7,3.5-2.5,3.7
			c-3.2,0.3-8.6,0.8-14.9,0.8c-12.1,0-27.8-1.7-38.8-9.2c-11.9-7.9-14-25.8-11.4-34.4l-8.8-5.9c-1.3-0.9-1.7-2.8-0.8-4.1
			c0.6-0.8,1.5-1.3,2.5-1.3c0.6,0,1.1,0.2,1.6,0.5l8.8,5.9C320.1,26.9,328.5,23.7,337.2,23.7 M337.2,13.7c-7.3,0-14.9,1.8-21.1,4.9
			l-3.4-2.3c-2.1-1.4-4.6-2.2-7.2-2.2c-4.3,0-8.3,2.1-10.7,5.6c-4.1,5.9-2.6,13.9,3.3,18c0,0,0.1,0.1,0.1,0.1l3.5,2.3
			c-0.8,12.5,3.7,29.3,16.7,37.9C329.1,85.3,344,89,362.8,89c5.2,0,10.5-0.3,15.9-0.9c0,0,0,0,0.1,0c3.8-0.4,7.2-2.5,9.3-5.7
			c2.1-3.2,2.7-7.1,1.7-10.7c-1.7-5.9-4.7-14.9-9.3-24.2c-6.4-12.7-14-22.1-22.7-27.9C352,15.7,344.9,13.7,337.2,13.7L337.2,13.7z"
			/>
	</g>
</g>
<path class="st2" d="M197.8,57.2c-16.5,2.3-23.4-23.8-39.5-17.6c-8.9,3.4-6.9,12.2-9.9,19.3c-4.6,10.9-8.3,19.8-23.9,12.9
	c-5-2.2-7.6-8.6-12.9-10.8c-8.6-3.6-14.1-1.7-18.6,6.5c-2.8,5-0.9,11.7-3.4,16.5c-8,15-16.4,10.4-26.8,4.7c-8-4.3-10-10.3-19.8-8.9
	c-0.5,0.1-1.6,0.9-0.6,0.7c16.5-2.3,23.4,23.8,39.5,17.6c8.9-3.4,7-12.2,10-19.3c4.6-10.9,8.3-19.8,23.9-12.9
	c5,2.2,7.6,8.6,12.9,10.8c8.6,3.6,14.1,1.7,18.6-6.5c2.8-5,0.9-11.7,3.4-16.5c8-15,16.3-10.4,26.8-4.7c7.9,4.3,10,10.3,19.8,9
	C197.6,57.9,198.8,57.1,197.8,57.2L197.8,57.2z"/>
<g>
	<path class="st3" d="M197,85.5c0.1,0,0.1,0.1,0.2,0.1c1.9,1,4.1,1,6,0c0.7-0.4,1.4-0.7,2.1-1c2.1-1,3.6-3.1,3.7-5.4
		c0.9-13.9,6.6-43.6,10.3-48.7c0.8-1.1-0.2-2.5-1.6-2.1c-5.5,1.5-11.3,1.5-16.5,0.8c-5.4-0.7-9.9,4.3-8.7,9.7
		c1.6,6.8,1.5,34.5,1,40.4C193.3,81.8,194.7,84.3,197,85.5z"/>
	<path class="st4" d="M279.3,59.5c-9.5,0-18.6,2.9-26.7,7.8c-7.7-5-16.6-7.8-26.1-7.8s-18.5,2.9-26.4,7.8c-7.8-5-16.9-7.8-26.4-7.8
		s-18.4,2.9-26.1,7.8c-8-5-17.1-7.8-26.7-7.8C27.1,72,54.5,269.4,132.8,275c8.1,0,15.7-2.1,22.3-5.7c6.8,3.7,14.6,5.7,22.7,5.7
		c8.1,0,15.8-2.1,22.5-5.7c6.7,3.7,14.4,5.7,22.5,5.7s15.8-2.1,22.7-5.7c6.6,3.7,14.1,5.7,22.3,5.7C356.9,275,362.9,48.6,279.3,59.5
		z"/>
	<g>
		<path class="st5" d="M278.2,126.9c0.1,0,0.2,0,0.3,0c2.6,0,4.8-2,5-4.7c1.1-19-5.4-37.3-17.7-50.4c-2.6-2.7-5.3-5.1-8.2-7.2
			c-1.7,0.8-3.3,1.6-4.9,2.6c-7.7-5-16.6-7.8-26.1-7.8s-18.5,2.9-26.4,7.8c-1.3-0.8-2.7-1.5-4-2.2c-2.7,2-5.3,4.3-7.7,6.8
			c-12.3,13-18.7,31.4-17.7,50.4l1.1,19.4c0.1,2.7,2.3,4.7,5,4.7c0.1,0,0.2,0,0.3,0c2.7-0.1,4.8-2.5,4.7-5.3l-1.1-19.4
			c-0.9-16.3,4.5-31.9,15-42.9c8.5-9,19.7-14,31.4-14.2c11.8,0.2,22.9,5.2,31.4,14.2c10.4,11,15.9,26.7,15,42.9
			C273.3,124.4,275.4,126.8,278.2,126.9z"/>
		<path class="st5" d="M173.8,59.5c-9.5,0-18.4,2.9-26.1,7.8c-1.6-1-3.2-1.8-4.9-2.6c-6.2,4.5-11.7,10.2-16.1,17.2
			c-1.5,2.3-0.7,5.4,1.6,6.9c0.8,0.5,1.7,0.7,2.6,0.7c1.7,0,3.3-0.8,4.2-2.4c8.9-14.4,23-22.6,38.6-22.6c2.6,0,4.7-2,4.9-4.6
			C177.1,59.7,175.5,59.5,173.8,59.5z"/>
		<path class="st5" d="M280.5,174.7c0.2-2.8-1.9-5.1-4.7-5.3c-2.7-0.1-5.1,1.9-5.3,4.7l-2.9,51.4c-1.4,24-20.8,43.6-43.6,44.5
			c-18-0.8-33.3-13-39.4-31.4c-0.9-2.6-3.7-4.1-6.3-3.2c-2.6,0.9-4,3.7-3.2,6.3c4.1,12.5,11.8,22.5,21.5,29.2c1.2-0.5,2.4-1,3.5-1.6
			c6.7,3.7,14.4,5.7,22.5,5.7s15.8-2.1,22.7-5.7c1.7,0.9,3.4,1.8,5.2,2.5c15.2-9.5,26-26.5,27-45.7L280.5,174.7z"/>
		<path class="st5" d="M182.6,274.7c-0.2-2.6-2.3-4.7-4.9-4.7c-23.5,0-43.8-20-45.2-44.5l-2.5-44.8c-0.1-2.7-2.5-4.9-5.3-4.7
			c-2.7,0.1-4.8,2.5-4.7,5.3l2.5,44.8c1.1,19.3,11.9,36.2,27.2,45.7c1.8-0.7,3.6-1.6,5.3-2.5c6.8,3.7,14.6,5.7,22.7,5.7
			C179.4,275,181,274.9,182.6,274.7z"/>
	</g>
</g>
<g>
	<path class="st6" d="M253.4,187.6v-1.3c0-0.9-0.8-1.7-1.7-1.7h-19.9c-0.9,0-1.7,0.8-1.7,1.7v6.2c0,0.9-0.6,1.6-1.5,1.7
		c-9,1-18.6,1.6-28.6,1.6c-10.2,0-20-0.6-29.2-1.7c-0.9-0.1-1.5-0.8-1.5-1.7v-6.1c0-0.9-0.8-1.7-1.7-1.7h-19.9
		c-0.9,0-1.7,0.8-1.7,1.7v1.2c0,1.1-1.1,1.9-2.1,1.7c-23.2-6.2-1.4,48.5,45.8,52.9c0.1,0,0.1,0,0.2,0l0,0c0.9,0,1.7-0.8,1.7-1.7v-5
		c0-0.9,0.8-1.7,1.7-1.7h13.4c0.9,0,1.7,0.8,1.7,1.7v5c0,0.9,0.8,1.7,1.7,1.7l0,0c0.1,0,0.1,0,0.2,0c47.3-4.4,68.7-58.9,45.3-52.8
		C254.5,189.5,253.4,188.7,253.4,187.6z"/>
</g>
<path class="st6" d="M123.1,129l12.9-12.9c4-4,10.4-4,14.4,0l12.9,12.9c6.4,6.4,1.9,17.4-7.2,17.4h-25.9
	C121.2,146.4,116.7,135.4,123.1,129z"/>
<path class="st6" d="M234.3,129l12.9-12.9c4-4,10.4-4,14.4,0l12.9,12.9c6.4,6.4,1.9,17.4-7.2,17.4h-25.9
	C232.4,146.4,227.8,135.4,234.3,129z"/>
<path class="st2" d="M348.2,184.1c-8.9-15.8,18.1-37.7,5-50.8c-7.3-7.2-16.5-0.3-25.6,0.6c-14.1,1.4-25.5,2.6-23.7-17.4
	c0.6-6.4,6.8-12.7,7.4-19.4c0.8-10.9-3.4-15.5-14.4-15.6c-6.7,0-13.6,5.7-20,5.7c-20.1,0.2-18-11.1-15.5-25.1
	c1.9-10.7,7.9-16.1,2.7-25.5c-0.2-0.4-1.6-1.2-1.1-0.2c8.9,15.8-18.1,37.7-4.9,50.8c7.3,7.3,16.5,0.3,25.6-0.6
	c14.2-1.4,25.6-2.6,23.7,17.4c-0.6,6.4-6.8,12.7-7.4,19.4c-0.8,10.9,3.4,15.5,14.4,15.6c6.7,0,13.6-5.7,20-5.8
	c20.1-0.2,17.9,11.1,15.4,25.1c-1.9,10.7-7.9,16.1-2.7,25.5C347.4,184.3,348.8,185.1,348.2,184.1L348.2,184.1z"/>
<g>
	<path class="st7" d="M66.7,51.6C83.3,36,113.5,41.5,121,49.3s11.1,38.4-5.5,54.1c-21.4,20.2-61.7,23.4-73.8,24
		c-1.9,0.1-3.5-1.5-3.3-3.5C39.7,111.7,45.3,71.8,66.7,51.6z"/>
	<path class="st8" d="M121,49.3c-7.4-7.9-37.7-13.4-54.3,2.3c-21.4,20.2-27,60.2-28.3,72.3c-0.1,1,0.3,1.9,1,2.6l81.9-76.8
		C121.2,49.6,121.1,49.4,121,49.3z"/>
	<g>
		<path class="st9" d="M133.7,37.4c-1.2-1.3-3.2-1.3-4.5-0.1L88.7,75.4l-16.3-0.5h-0.1c-1.7,0-3.1,1.4-3.2,3.1
			c0,1.8,1.3,3.2,3.1,3.3l9.9,0.3l-7.4,6.9c-1.3,1.2-1.3,3.2-0.1,4.5c0.6,0.7,1.5,1,2.3,1s1.6-0.3,2.2-0.9l13-12.2l0,0l9.9-9.4
			L101.5,89c0,1.8,1.3,3.2,3.1,3.3h0.1c1.7,0,3.1-1.4,3.2-3.1l0.7-23.8l24.9-23.5C134.8,40.7,134.9,38.6,133.7,37.4z"/>
		<path class="st9" d="M64.4,98.3l-2.6,2.4c-1.3,1.2-1.3,3.2-0.1,4.5c0.6,0.7,1.5,1,2.3,1s1.6-0.3,2.2-0.9l2.6-2.4
			c1.3-1.2,1.3-3.2,0.1-4.5S65.7,97.1,64.4,98.3z"/>
	</g>
</g>
<g>
	<path class="st10" d="M324,69.8c-13.4-9-14.4-30.9-10.1-37.2c4.3-6.4,24.9-13.7,38.3-4.7c16.8,11.3,25.4,37.5,28,46.6
		c0.5,1.7-0.7,3.5-2.5,3.7C368.2,79.2,340.8,81.2,324,69.8z"/>
	<path class="st11" d="M324,69.8c16.8,11.3,44.3,9.4,53.7,8.3c0.9-0.1,1.6-0.6,2.1-1.3l-65.9-44.3C309.6,39,310.5,60.8,324,69.8z"/>
	<g>
		<path class="st12" d="M340.7,47.1L340.7,47.1l-6.7-4.5l10.6-2.1c1.6-0.3,2.6-1.9,2.3-3.4c-0.3-1.6-1.8-2.6-3.4-2.3L327.1,38
			l-20-13.4c-1.3-0.9-3.2-0.5-4.1,0.8s-0.5,3.2,0.8,4.1l32.6,21.9l2.2,11.1c0.3,1.4,1.5,2.4,2.9,2.4c0.2,0,0.4,0,0.6-0.1
			c1.6-0.3,2.6-1.9,2.3-3.4l-1-5.3l4.6,3.1c0.5,0.3,1.1,0.5,1.6,0.5c0.9,0,1.9-0.5,2.4-1.3c0.9-1.3,0.5-3.2-0.8-4.1L340.7,47.1z"/>
		<path class="st12" d="M361.7,61.2l-2.1-1.4c-1.3-0.9-3.2-0.5-4.1,0.8s-0.5,3.2,0.8,4.1l2.1,1.4c0.5,0.3,1.1,0.5,1.6,0.5
			c0.9,0,1.9-0.5,2.4-1.3C363.4,63.9,363,62.1,361.7,61.2z"/>
	</g>
</g>
<g>
	<path class="st8" d="M78.9,245.8c9.6-3.8,21.5,3.5,23.3,8.1c1.8,4.6-1.7,18.1-11.3,21.9c-11.6,4.7-27.8,0.3-34.1-1.8
		c-1.4-0.5-2.1-2.1-1.4-3.4C58.5,264.8,67.2,250.5,78.9,245.8z"/>
	<path class="st13" d="M78.9,245.8c-11.6,4.7-20.3,19-23.4,24.8c-0.3,0.6-0.4,1.4-0.1,2l46.9-18.7C100.3,249.3,88.5,242,78.9,245.8z
		"/>
	<path class="st7" d="M110.4,250.5c-0.5-1.2-1.9-1.9-3.2-1.4L84,258.4l-6.3-2.8c-1.2-0.5-2.7,0-3.2,1.3c-0.5,1.2,0,2.7,1.3,3.2
		l1.9,0.8l-6.4,2.5c-1.2,0.5-1.9,1.9-1.4,3.2c0.4,1,1.3,1.5,2.3,1.5c0.3,0,0.6-0.1,0.9-0.2l15.5-6.2l-2.2,5.2
		c-0.5,1.2,0,2.7,1.3,3.2c0.3,0.1,0.6,0.2,1,0.2c0.9,0,1.8-0.5,2.2-1.5l4.1-9.6l14-5.6C110.3,253.2,110.9,251.8,110.4,250.5z"/>
</g>
</svg>
