<?xml version="1.0" encoding="utf-8"?>
<!-- Generator: Adobe Illustrator 22.1.0, SVG Export Plug-In . SVG Version: 6.00 Build 0)  -->
<svg version="1.1" id="Layer_1" xmlns="http://www.w3.org/2000/svg" xmlns:xlink="http://www.w3.org/1999/xlink" x="0px" y="0px"
	 viewBox="0 0 80.6 80.6" style="enable-background:new 0 0 80.6 80.6;" xml:space="preserve">
<style type="text/css">
	.st0{fill:#490A3D;}
	.st1{fill:#A46F3E;}
	.st2{fill:#EF771D;}
	.st3{fill:#F79959;}
	.st4{fill:#FFC850;}
	.st5{fill:#FFDC64;}
	.st6{fill:#EBAF4B;}
	.st7{fill:#EB874B;}
	.st8{fill:#FFAA50;}
	.st9{fill:#D77841;}
	.st10{fill:#FFF082;}
</style>
<g>
	<g>
		<path class="st0" d="M38.3,19.2c-3.6,0.5-5.2-5.2-8.7-3.9c-2,0.8-1.5,2.7-2.2,4.3c-1,2.4-1.8,4.4-5.3,2.9
			c-1.1-0.5-1.7-1.9-2.8-2.4c-1.9-0.8-3.1-0.4-4.1,1.4c-0.6,1.1-0.2,2.6-0.8,3.6c-1.8,3.3-3.6,2.3-5.9,1c-1.8-1-2.2-2.3-4.4-2
			c-0.1,0-0.4,0.2-0.1,0.2c3.6-0.5,5.2,5.2,8.7,3.9c2-0.8,1.5-2.7,2.2-4.3c1-2.4,1.8-4.4,5.3-2.9c1.1,0.5,1.7,1.9,2.8,2.4
			c1.9,0.8,3.1,0.4,4.1-1.4c0.6-1.1,0.2-2.6,0.8-3.6c1.8-3.3,3.6-2.3,5.9-1c1.8,1,2.2,2.3,4.4,2C38.3,19.4,38.6,19.2,38.3,19.2
			L38.3,19.2z"/>
		<path class="st0" d="M11.7,29.1c-1.6,0-2.8-1.1-3.9-2.2c-1.2-1.1-2.3-2.1-3.7-1.9c-0.5,0.1-0.8-0.2-0.8-0.6
			c-0.1-0.5,0.5-0.9,0.8-0.9c1.8-0.2,2.6,0.5,3.5,1.1c0.4,0.3,0.8,0.6,1.3,0.9l0,0c1.3,0.7,2.4,1.3,3.3,1c0.6-0.2,1.2-0.8,1.7-1.8
			c0.2-0.4,0.2-0.9,0.3-1.5c0-0.7,0.1-1.5,0.5-2.2c1.2-2.1,2.7-2.6,4.9-1.7c0.7,0.3,1.3,0.9,1.7,1.4c0.4,0.4,0.7,0.8,1.1,1
			c1.1,0.5,1.9,0.6,2.5,0.4c0.9-0.3,1.3-1.5,1.9-2.8l0,0c0.2-0.4,0.3-0.9,0.4-1.4c0.2-1.2,0.5-2.6,2.2-3.2c2.2-0.9,3.8,0.6,5.2,1.9
			c1.2,1.1,2.3,2.1,3.7,1.9c0.4-0.1,0.6,0.1,0.7,0.3l0.2,0.3L39,19.5c-0.1,0.3-0.5,0.5-0.7,0.5c-1.8,0.2-2.6-0.5-3.5-1.1
			c-0.4-0.3-0.8-0.6-1.3-0.9l0,0c-1.3-0.7-2.4-1.3-3.3-1c-0.6,0.2-1.2,0.8-1.7,1.8c-0.2,0.4-0.2,0.9-0.3,1.5c0,0.7-0.1,1.5-0.5,2.2
			c-1.2,2.1-2.7,2.6-4.9,1.7c-0.7-0.3-1.3-0.9-1.7-1.4c-0.4-0.4-0.7-0.8-1.1-1c-1.1-0.5-1.9-0.6-2.5-0.4c-0.9,0.3-1.3,1.5-1.9,2.8
			l0,0c-0.2,0.4-0.3,0.9-0.4,1.4c-0.2,1.2-0.5,2.6-2.2,3.2C12.5,29,12.1,29.1,11.7,29.1z M38.1,18.7C38.1,18.7,38.1,18.7,38.1,18.7
			C38.1,18.7,38.1,18.7,38.1,18.7z"/>
	</g>
	<g>
		<path class="st1" d="M38.2,25.5C38.2,25.5,38.2,25.5,38.2,25.5c0.4,0.2,0.9,0.2,1.4,0c0.2-0.1,0.3-0.2,0.5-0.2
			c0.5-0.2,0.8-0.7,0.8-1.2c0.2-3.1,1.5-9.6,2.3-10.7c0.2-0.2-0.1-0.6-0.3-0.5c-1.2,0.3-2.5,0.3-3.7,0.2c-1.2-0.2-2.2,0.9-1.9,2.1
			c0.4,1.5,0.3,7.6,0.2,8.9C37.3,24.6,37.6,25.2,38.2,25.5z"/>
		<path class="st2" d="M56.3,19.7c-2.1,0-4.1,0.6-5.9,1.7c-1.7-1.1-3.7-1.7-5.8-1.7c-2.1,0-4.1,0.6-5.8,1.7
			c-1.7-1.1-3.7-1.7-5.8-1.7c-2.1,0-4.1,0.6-5.8,1.7c-1.8-1.1-3.8-1.7-5.9-1.7C0.7,22.5,6.7,66.1,24,67.3c1.8,0,3.5-0.5,4.9-1.3
			c1.5,0.8,3.2,1.3,5,1.3c1.8,0,3.5-0.5,5-1.3c1.5,0.8,3.2,1.3,5,1.3c1.8,0,3.5-0.5,5-1.3c1.5,0.8,3.1,1.3,4.9,1.3
			C73.5,67.3,74.8,17.3,56.3,19.7z"/>
		<g>
			<path class="st3" d="M56.1,34.6C56.1,34.6,56.1,34.6,56.1,34.6c0.6,0,1.1-0.4,1.2-1c0.2-4.2-1.2-8.2-3.9-11.1
				c-0.6-0.6-1.2-1.1-1.8-1.6c-0.4,0.2-0.7,0.4-1.1,0.6c-1.7-1.1-3.7-1.7-5.8-1.7c-2.1,0-4.1,0.6-5.8,1.7c-0.3-0.2-0.6-0.3-0.9-0.5
				c-0.6,0.4-1.2,0.9-1.7,1.5c-2.7,2.9-4.1,6.9-3.9,11.1l0.2,4.3c0,0.6,0.5,1,1.1,1c0,0,0,0,0.1,0c0.6,0,1.1-0.6,1-1.2l-0.2-4.3
				c-0.2-3.6,1-7,3.3-9.5c1.9-2,4.3-3.1,6.9-3.1c2.6,0,5.1,1.2,6.9,3.1c2.3,2.4,3.5,5.9,3.3,9.5C55,34.1,55.5,34.6,56.1,34.6z"/>
			<path class="st3" d="M33,19.7c-2.1,0-4.1,0.6-5.8,1.7c-0.3-0.2-0.7-0.4-1.1-0.6c-1.4,1-2.6,2.3-3.5,3.8c-0.3,0.5-0.2,1.2,0.4,1.5
				c0.2,0.1,0.4,0.2,0.6,0.2c0.4,0,0.7-0.2,0.9-0.5c2-3.2,5.1-5,8.5-5c0.6,0,1-0.5,1.1-1C33.8,19.8,33.4,19.7,33,19.7z"/>
			<path class="st3" d="M56.6,45.2c0-0.6-0.4-1.1-1-1.2c-0.6,0-1.1,0.4-1.2,1l-0.6,11.3c-0.3,5.3-4.6,9.6-9.6,9.8
				c-4-0.2-7.3-2.9-8.7-6.9c-0.2-0.6-0.8-0.9-1.4-0.7c-0.6,0.2-0.9,0.8-0.7,1.4c0.9,2.8,2.6,5,4.8,6.5c0.3-0.1,0.5-0.2,0.8-0.4
				c1.5,0.8,3.2,1.3,5,1.3c1.8,0,3.5-0.5,5-1.3c0.4,0.2,0.8,0.4,1.1,0.5c3.4-2.1,5.7-5.8,6-10.1L56.6,45.2z"/>
			<path class="st3" d="M35,67.2c0-0.6-0.5-1-1.1-1c-5.2,0-9.7-4.4-10-9.8l-0.6-9.9c0-0.6-0.5-1.1-1.2-1c-0.6,0-1.1,0.6-1,1.2
				l0.6,9.9c0.2,4.3,2.6,8,6,10.1c0.4-0.2,0.8-0.3,1.2-0.6c1.5,0.8,3.2,1.3,5,1.3C34.3,67.3,34.6,67.3,35,67.2z"/>
		</g>
	</g>
	<g>
		<path class="st0" d="M50.6,48v-0.3c0-0.2-0.2-0.4-0.4-0.4h-4.4c-0.2,0-0.4,0.2-0.4,0.4v1.4c0,0.2-0.1,0.4-0.3,0.4
			c-2,0.2-4.1,0.4-6.3,0.4c-2.3,0-4.4-0.1-6.4-0.4c-0.2,0-0.3-0.2-0.3-0.4v-1.4c0-0.2-0.2-0.4-0.4-0.4h-4.4c-0.2,0-0.4,0.2-0.4,0.4
			V48c0,0.2-0.2,0.4-0.5,0.4C21.3,47,26.1,59,36.5,60c0,0,0,0,0,0h0c0.2,0,0.4-0.2,0.4-0.4v-1.1c0-0.2,0.2-0.4,0.4-0.4h3
			c0.2,0,0.4,0.2,0.4,0.4v1.1c0,0.2,0.2,0.4,0.4,0.4l0,0c0,0,0,0,0,0c10.4-1,15.2-13,10-11.6C50.8,48.4,50.6,48.3,50.6,48z"/>
	</g>
	<path class="st0" d="M21.8,35.1l2.9-2.9c0.9-0.9,2.3-0.9,3.2,0l2.9,2.9c1.4,1.4,0.4,3.8-1.6,3.8h-5.7
		C21.4,38.9,20.4,36.5,21.8,35.1z"/>
	<path class="st0" d="M46.4,35.1l2.9-2.9c0.9-0.9,2.3-0.9,3.2,0l2.9,2.9c1.4,1.4,0.4,3.8-1.6,3.8H48C46,38.9,45,36.5,46.4,35.1z"/>
	<g>
		<path class="st0" d="M71.5,47.2c-2-3.5,4-8.3,1.1-11.2C71,34.4,69,36,67,36.2c-3.1,0.3-5.6,0.6-5.2-3.8c0.1-1.4,1.5-2.8,1.6-4.3
			c0.2-2.4-0.8-3.4-3.2-3.4c-1.5,0-3,1.3-4.4,1.3c-4.4,0-4-2.4-3.4-5.5c0.4-2.4,1.8-3.6,0.6-5.6c-0.1-0.1-0.4-0.3-0.2,0
			c2,3.5-4,8.3-1.1,11.2c1.6,1.6,3.6,0.1,5.7-0.1c3.1-0.3,5.6-0.6,5.2,3.8c-0.1,1.4-1.5,2.8-1.6,4.3c-0.2,2.4,0.8,3.4,3.2,3.4
			c1.5,0,3-1.3,4.4-1.3c4.4,0,4,2.4,3.4,5.5c-0.4,2.4-1.8,3.6-0.6,5.6C71.4,47.3,71.7,47.4,71.5,47.2L71.5,47.2z"/>
		<path class="st0" d="M71.5,48C71.5,48,71.5,48,71.5,48c-0.3,0-0.7-0.3-0.8-0.5c-0.9-1.7-0.5-2.9,0-4.2c0.2-0.6,0.4-1.2,0.5-1.9
			l0,0c0.3-1.7,0.6-3.2-0.1-4c-0.4-0.5-1.3-0.7-2.7-0.7c-0.6,0-1.2,0.3-1.9,0.6C65.8,37.6,65,38,64.1,38c-1.4,0-2.4-0.3-3-1
			c-0.6-0.7-0.9-1.7-0.8-3.1c0.1-0.9,0.5-1.7,0.9-2.5c0.3-0.7,0.7-1.3,0.7-1.8c0.1-1.4,0-2.3-0.5-2.8c-0.7-0.7-2.2-0.5-4-0.4l0,0
			c-0.6,0.1-1.2,0.2-1.7,0.4c-1.4,0.4-3.1,0.9-4.5-0.5c-1.8-1.8-0.8-4.3,0.2-6.4c0.8-1.8,1.6-3.6,0.8-5c-0.2-0.3-0.1-0.6,0-0.8
			c0.1-0.2,0.4-0.3,0.6-0.3c0,0,0,0,0,0c0.3,0,0.7,0.3,0.8,0.5c0.9,1.7,0.5,2.9,0,4.2c-0.2,0.6-0.4,1.2-0.5,1.9l0,0
			c-0.3,1.7-0.6,3.2,0.1,4c0.4,0.5,1.3,0.8,2.7,0.7c0.6,0,1.2-0.3,1.9-0.6c0.8-0.3,1.6-0.7,2.5-0.7c0,0,0,0,0,0c1.4,0,2.4,0.3,3,1
			c0.6,0.7,0.9,1.7,0.8,3.1c-0.1,0.9-0.5,1.7-0.9,2.5c-0.3,0.7-0.7,1.3-0.7,1.8c-0.1,1.4,0,2.3,0.5,2.8c0.7,0.7,2.2,0.5,4,0.4l0,0
			c0.6-0.1,1.2-0.2,1.7-0.4c1.4-0.4,3.1-0.9,4.5,0.5c1.8,1.8,0.8,4.3-0.2,6.4c-0.8,1.8-1.6,3.6-0.8,5l0,0c0.2,0.4,0.1,0.6,0,0.8
			C72,47.9,71.8,48,71.5,48z M72,36.3c0.1,0.1,0.1,0.1,0.2,0.2c0.3,0.3,0.4,0.7,0.5,1c-0.1-0.4-0.3-0.8-0.6-1.1
			C72.1,36.4,72.1,36.4,72,36.3z M51.5,24.3c0.1,0.4,0.3,0.8,0.6,1.1c0.1,0.1,0.1,0.1,0.2,0.1c-0.1-0.1-0.1-0.1-0.2-0.2
			C51.8,25,51.6,24.7,51.5,24.3z M52.4,15C52.4,15,52.4,15,52.4,15C52.4,15,52.4,15,52.4,15z"/>
	</g>
	<g>
		<path class="st4" d="M9.4,18c3.7-3.5,10.3-2.2,12-0.5c1.6,1.7,2.5,8.5-1.2,11.9c-4.7,4.5-13.6,5.2-16.3,5.3
			c-0.4,0-0.8-0.3-0.7-0.8C3.4,31.3,4.7,22.4,9.4,18z"/>
		<path class="st5" d="M21.4,17.5c-1.6-1.7-8.3-3-12,0.5c-4.7,4.5-6,13.3-6.2,16c0,0.2,0.1,0.4,0.2,0.6L21.4,17.5
			C21.4,17.5,21.4,17.5,21.4,17.5z"/>
		<g>
			<path class="st6" d="M24.2,14.9c-0.3-0.3-0.7-0.3-1,0l-8.9,8.4l-3.6-0.1c0,0,0,0,0,0c-0.4,0-0.7,0.3-0.7,0.7
				c0,0.4,0.3,0.7,0.7,0.7l2.2,0.1l-1.6,1.5c-0.3,0.3-0.3,0.7,0,1c0.1,0.1,0.3,0.2,0.5,0.2c0.2,0,0.3-0.1,0.5-0.2l2.9-2.7
				c0,0,0,0,0,0l2.2-2.1l-0.1,3.9c0,0.4,0.3,0.7,0.7,0.7c0,0,0,0,0,0c0.4,0,0.7-0.3,0.7-0.7l0.2-5.3l5.5-5.2
				C24.4,15.6,24.4,15.1,24.2,14.9z"/>
			<path class="st6" d="M8.9,28.3l-0.6,0.5c-0.3,0.3-0.3,0.7,0,1C8.4,30,8.6,30,8.8,30C9,30,9.2,30,9.3,29.9l0.6-0.5
				c0.3-0.3,0.3-0.7,0-1C9.6,28,9.2,28,8.9,28.3z"/>
		</g>
	</g>
	<g>
		<path class="st7" d="M66.2,22c-3-2-3.2-6.8-2.2-8.2c0.9-1.4,5.5-3,8.5-1C76.1,15.3,78,21,78.6,23c0.1,0.4-0.2,0.8-0.5,0.8
			C75.9,24.1,69.9,24.5,66.2,22z"/>
		<path class="st8" d="M66.2,22c3.7,2.5,9.8,2.1,11.9,1.8c0.2,0,0.4-0.1,0.5-0.3l-14.5-9.8C63,15.2,63.2,20,66.2,22z"/>
		<g>
			<path class="st9" d="M69.9,17C69.9,17,69.9,17,69.9,17l-1.5-1l2.3-0.5c0.4-0.1,0.6-0.4,0.5-0.8c-0.1-0.3-0.4-0.6-0.8-0.5L66.9,15
				l-4.4-3c-0.3-0.2-0.7-0.1-0.9,0.2c-0.2,0.3-0.1,0.7,0.2,0.9l7.2,4.8l0.5,2.4c0.1,0.3,0.3,0.5,0.6,0.5c0,0,0.1,0,0.1,0
				c0.4-0.1,0.6-0.4,0.5-0.8l-0.2-1.2l1,0.7c0.1,0.1,0.2,0.1,0.4,0.1c0.2,0,0.4-0.1,0.5-0.3c0.2-0.3,0.1-0.7-0.2-0.9L69.9,17z"/>
			<path class="st9" d="M74.5,20.1L74,19.8c-0.3-0.2-0.7-0.1-0.9,0.2c-0.2,0.3-0.1,0.7,0.2,0.9l0.5,0.3c0.1,0.1,0.2,0.1,0.4,0.1
				c0.2,0,0.4-0.1,0.5-0.3C74.9,20.7,74.8,20.3,74.5,20.1z"/>
		</g>
	</g>
	<g>
		<path class="st5" d="M12.1,60.8c2.1-0.8,4.7,0.8,5.1,1.8c0.4,1-0.4,4-2.5,4.8c-2.6,1-6.1,0.1-7.5-0.4c-0.3-0.1-0.5-0.5-0.3-0.8
			C7.6,65,9.5,61.9,12.1,60.8z"/>
		<path class="st10" d="M12.1,60.8c-2.6,1-4.5,4.2-5.2,5.5c-0.1,0.1-0.1,0.3,0,0.4l10.3-4.1C16.8,61.6,14.2,60,12.1,60.8z"/>
		<path class="st4" d="M19.1,61.9c-0.1-0.3-0.4-0.4-0.7-0.3l-5.1,2L11.8,63c-0.3-0.1-0.6,0-0.7,0.3c-0.1,0.3,0,0.6,0.3,0.7l0.4,0.2
			l-1.4,0.6c-0.3,0.1-0.4,0.4-0.3,0.7c0.1,0.2,0.3,0.3,0.5,0.3c0.1,0,0.1,0,0.2,0l3.4-1.4l-0.5,1.1c-0.1,0.3,0,0.6,0.3,0.7
			c0.1,0,0.1,0,0.2,0c0.2,0,0.4-0.1,0.5-0.3l0.9-2.1l3.1-1.2C19,62.5,19.2,62.2,19.1,61.9z"/>
	</g>
</g>
</svg>
