<?xml version="1.0" encoding="utf-8"?>
<!-- Generator: Adobe Illustrator 22.1.0, SVG Export Plug-In . SVG Version: 6.00 Build 0)  -->
<svg version="1.1" id="Layer_1" xmlns="http://www.w3.org/2000/svg" xmlns:xlink="http://www.w3.org/1999/xlink" x="0px" y="0px"
	 viewBox="0 0 400 400" style="enable-background:new 0 0 400 400;" xml:space="preserve">
<style type="text/css">
	.st0{fill:#60025E;}
	.st1{fill:#FFFFFF;}
	.st2{opacity:0.1;}
	.st3{fill:#845033;stroke:#260F02;stroke-linecap:round;stroke-linejoin:round;stroke-miterlimit:10;}
	.st4{fill:#E6DACA;stroke:#1A1A1A;stroke-width:3.6869;stroke-miterlimit:10;}
	.st5{fill:#F24044;}
	.st6{fill:#00CDC8;}
	.st7{fill:#F86A00;}
	.st8{fill:#A5D73C;}
	.st9{fill:#FC6A6C;}
	.st10{fill:#FADC3C;}
</style>
<circle class="st0" cx="200" cy="340.1" r="37.7"/>
<g>
	<path class="st1" d="M197.2,350.6c-0.5-0.6-0.7-1.3-0.7-2.3c0-2.6,0.5-4.8,1.4-6.6c0.9-1.8,2.3-3.8,4.1-5.9
		c1.4-1.7,2.5-3.1,3.1-4.2c0.7-1.1,1-2.4,1-3.8c0-1.6-0.6-2.8-1.7-3.7c-1.2-0.9-2.7-1.4-4.7-1.4c-1.7,0-3.3,0.4-4.9,1.1
		c-1.6,0.7-3.4,1.8-5.5,3.2c-1.2,0.7-2.1,1-2.9,1c-0.8,0-1.5-0.4-2.1-1.1s-0.9-1.6-0.9-2.6c0-1.4,0.6-2.5,1.7-3.3c2-1.7,4.3-3,7-4
		s5.4-1.5,8.1-1.5c2.9,0,5.4,0.5,7.7,1.5c2.2,1,4,2.4,5.2,4.1c1.3,1.7,1.9,3.8,1.9,6c0,2.5-0.6,4.6-1.8,6.4s-2.9,3.9-5.2,6.1
		c-1.9,2-3.4,3.6-4.4,5s-1.6,2.9-1.8,4.6c-0.1,0.8-0.5,1.3-1,1.7c-0.5,0.4-1.1,0.6-1.9,0.6C198.3,351.4,197.7,351.2,197.2,350.6z
		 M195.5,364.8c-1-1-1.5-2.3-1.5-3.8s0.5-2.8,1.5-3.8s2.2-1.5,3.8-1.5c1.5,0,2.8,0.5,3.8,1.5s1.5,2.3,1.5,3.8s-0.5,2.8-1.5,3.8
		s-2.3,1.5-3.7,1.5C197.8,366.3,196.5,365.8,195.5,364.8z"/>
</g>
<g class="st2">
	<g>
		<polygon points="184.7,27.7 128.7,27.8 114.4,36.5 199,36.5 		"/>
	</g>
</g>
<g>
	<polygon class="st3" points="195.6,199.4 195.6,279.7 115.3,279.7 115.3,199.4 	"/>
	<polygon class="st3" points="115.2,119 115.3,199.4 35,199.4 34.8,119.1 	"/>
	<polygon class="st3" points="195.5,119 195.6,199.4 115.3,199.4 115.2,119 	"/>
	<polygon class="st3" points="275.8,119 275.9,199.4 195.6,199.4 195.5,119 	"/>
	
		<rect x="115.2" y="38.7" transform="matrix(1.029652e-03 -1 1 1.029652e-03 76.3781 234.2036)" class="st3" width="80.3" height="80.3"/>
	<polygon class="st3" points="275.9,199.4 356.3,199.4 356.2,119 275.8,119 	"/>
	<polygon class="st3" points="356.3,199.4 364.6,185.8 364.6,132.6 356.2,119 	"/>
	<polygon class="st3" points="275.8,119 262,110.7 208.9,110.7 195.5,119 	"/>
	<polygon class="st3" points="195.6,38.7 182,30.4 128.9,30.4 115.3,38.7 	"/>
	<polygon class="st3" points="356.2,119 342.4,110.7 289.2,110.7 275.8,119 	"/>
	<polygon class="st3" points="115.2,119 101.4,110.7 48.2,110.8 34.8,119.1 	"/>
	<polygon class="st3" points="35,199.4 48.5,207.7 101.7,207.7 115.3,199.4 	"/>
	<polygon class="st3" points="195.6,199.4 209.2,207.7 262.4,207.7 275.9,199.4 	"/>
	<polygon class="st3" points="115.3,199.4 106.9,213.2 106.9,266.4 115.3,279.7 	"/>
	<polygon class="st3" points="195.6,279.7 203.9,266.1 203.9,212.9 195.6,199.4 	"/>
	<polygon class="st3" points="275.9,199.4 289.5,207.7 342.7,207.7 356.3,199.4 	"/>
</g>
<path class="st4" d="M229.3,146.9"/>
<g>
	<circle class="st5" cx="155.5" cy="161" r="21.3"/>
</g>
<g>
	<rect x="129.7" y="216.3" class="st6" width="51.6" height="51.6"/>
</g>
<g>
	<rect x="63.3" y="134" class="st7" width="27.5" height="54.1"/>
</g>
<g>
	<polygon class="st8" points="237.4,134.6 210.8,153.9 221,185.1 253.9,185.1 264,153.9 	"/>
</g>
<g>
	<polygon class="st9" points="325.8,136.8 299.3,136.8 286,159.9 299.3,182.9 325.8,182.9 339.1,159.9 	"/>
</g>
<g>
	<polygon class="st10" points="155.5,55 129.7,99.7 181.2,99.7 	"/>
</g>
</svg>
