<?xml version="1.0" encoding="utf-8"?>
<!-- Generator: Adobe Illustrator 22.1.0, SVG Export Plug-In . SVG Version: 6.00 Build 0)  -->
<svg version="1.1" id="Layer_1" xmlns="http://www.w3.org/2000/svg" xmlns:xlink="http://www.w3.org/1999/xlink" x="0px" y="0px"
	 viewBox="0 0 80.6 80.6" style="enable-background:new 0 0 80.6 80.6;" xml:space="preserve">
<style type="text/css">
	.st0{fill:#995939;}
	.st1{fill:#4F2413;}
	.st2{fill:#845033;}
	.st3{fill:#F24044;}
	.st4{fill:#00CDC8;}
	.st5{fill:#F86A00;}
</style>
<g>
	<g>
		<polygon class="st0" points="40.3,4.4 10.4,22.5 40.3,40.7 70.2,22.5 		"/>
		<polygon class="st1" points="40.3,40.7 70.2,22.5 70.2,57.7 40.3,75.8 		"/>
		<polygon class="st2" points="40.3,40.7 10.4,22.5 10.4,57.7 40.3,75.8 		"/>
	</g>
	<g>
		<g>
			<path class="st3" d="M50.6,21c0.4,4.6-4.2,9-10.6,9.3c-6.7,0.2-11.3-4.2-10.1-9.1c1-4.3,6-7.3,11.2-7.2
				C46.1,14.1,50.3,17,50.6,21z"/>
		</g>
		<g>
			<polygon class="st4" points="46.5,46.2 64,35.5 64,53.2 46.5,63.8 			"/>
		</g>
		<g>
			<polygon class="st5" points="33.5,58.7 33.5,49.7 15.5,39.2 15.5,48.1 			"/>
		</g>
	</g>
</g>
</svg>
