<?xml version="1.0" encoding="utf-8"?>
<!-- Generator: Adobe Illustrator 22.1.0, SVG Export Plug-In . SVG Version: 6.00 Build 0)  -->
<svg version="1.1" id="Layer_1" xmlns="http://www.w3.org/2000/svg" xmlns:xlink="http://www.w3.org/1999/xlink" x="0px" y="0px"
	 viewBox="0 0 80.6 80.6" style="enable-background:new 0 0 80.6 80.6;" xml:space="preserve">
<style type="text/css">
	.st0{fill:#FFFFFF;}
	.st1{fill:#CC4B4C;}
	.st2{fill:#0F6835;}
	.st3{fill:#CCD0D2;}
</style>
<g>
	<path class="st0" d="M21.4,65.9c-1.8,0-3.3-1.5-3.3-3.3v-0.1h-7.5c-1.8,0-3.3-1.5-3.3-3.3S8.8,56,10.6,56h7.9
		c-5-4-11-14.1-11.2-39.2c0-0.6,0.2-1.1,0.6-1.5s0.9-0.6,1.5-0.6h52.2c0.6,0,1.1,0.2,1.5,0.6c0.4,0.4,0.6,0.9,0.6,1.5
		c0,0.9,0,2-0.1,3.1c5.7,2.4,9.5,8.1,9.5,14.4c0,8.6-7,15.6-15.6,15.6h-0.1c-1.4,2.6-3.1,4.7-4.9,6.2h5.6c1.8,0,3.3,1.5,3.3,3.3
		s-1.5,3.3-3.3,3.3h-7.5v0.1c0,1.8-1.5,3.3-3.3,3.3H21.4V65.9z"/>
	<path class="st0" d="M61.6,15.7c0.6,0,1.1,0.5,1.1,1.1c0,1.1,0,2.4-0.1,3.8c5.6,2.1,9.6,7.4,9.6,13.7c0,8.1-6.5,14.6-14.6,14.6
		c-0.2,0-0.4,0-0.7,0c-2,3.8-4.5,6.8-8,8.2h9.3c1.3,0,2.3,1,2.3,2.3s-1,2.3-2.3,2.3h-8.8c0.2,0.3,0.3,0.7,0.3,1.1
		c0,1.3-1,2.3-2.3,2.3h-26c-1.3,0-2.3-1-2.3-2.3c0-0.4,0.1-0.8,0.3-1.1h-8.8c-1.3,0-2.3-1-2.3-2.3s1-2.3,2.3-2.3h11.5
		c-12-4.9-13.7-28.9-13.8-40.2c0-0.6,0.5-1.1,1.1-1.1h26.1h26.1 M59.3,43.1c4.2-0.8,7.4-4.4,7.4-8.9c0-3.3-1.8-6.1-4.4-7.7
		C61.9,31.9,61,37.9,59.3,43.1 M61.6,13.7h-26H9.5c-0.8,0-1.6,0.3-2.2,0.9c-0.6,0.6-0.9,1.4-0.9,2.2c0.1,6,0.5,14.8,2.5,23
		c1.6,6.8,4,11.8,7.1,15.2h-5.3c-2.4,0-4.3,1.9-4.3,4.3c0,2.4,1.9,4.3,4.3,4.3h6.6c0.4,1.9,2.1,3.3,4.2,3.3h26c2,0,3.7-1.4,4.2-3.3
		h6.6c2.4,0,4.3-1.9,4.3-4.3c0-2.4-1.9-4.3-4.3-4.3h-3.1c1.1-1.2,2.1-2.6,3-4.2c8.9-0.3,16.1-7.6,16.1-16.6c0-6.4-3.8-12.3-9.5-15
		c0-0.8,0-1.6,0-2.4s-0.3-1.6-0.9-2.2C63.3,14,62.5,13.7,61.6,13.7L61.6,13.7z"/>
</g>
<g>
	<g>
		<path class="st1" d="M57.7,19.7c-8.1,0-14.6,6.5-14.6,14.6s6.5,14.6,14.6,14.6s14.6-6.5,14.6-14.6C72.3,26.2,65.7,19.7,57.7,19.7z
			 M57.7,43.3c-5,0-9-4-9-9s4-9,9-9s9,4,9,9S62.7,43.3,57.7,43.3z"/>
	</g>
	<g>
		<g>
			<path class="st2" d="M21.4,64.9c-1.3,0-2.3-1-2.3-2.3l0,0c0-1.3,1-2.3,2.3-2.3h26c1.3,0,2.3,1,2.3,2.3l0,0c0,1.3-1,2.3-2.3,2.3
				H21.4z"/>
		</g>
		<g>
			<path class="st3" d="M22.1,57H49c12-4.9,13.7-28.9,13.8-40.2c0-0.6-0.5-1.1-1.1-1.1H35.6H9.5c-0.6,0-1.1,0.5-1.1,1.1
				C8.4,28.2,10.2,52.1,22.1,57L22.1,57z"/>
		</g>
		<path class="st0" d="M28.8,54.8c-0.1,0-0.1,0-0.2,0c-9-1.5-13.8-6.7-15.7-16.8c-0.1-0.6,0.3-1.2,0.9-1.3c0.6-0.1,1.2,0.3,1.3,0.9
			c1.7,9.1,5.8,13.6,13.8,15c0.6,0.1,1,0.7,0.9,1.3C29.8,54.4,29.3,54.8,28.8,54.8"/>
		<g>
			<path class="st1" d="M10.6,61.6c-1.3,0-2.3-1-2.3-2.3l0,0c0-1.3,1-2.3,2.3-2.3h47.6c1.3,0,2.3,1,2.3,2.3l0,0c0,1.3-1,2.3-2.3,2.3
				H10.6z"/>
		</g>
	</g>
	<circle class="st0" cx="13.9" cy="32" r="1.4"/>
</g>
</svg>
