<?xml version="1.0" encoding="utf-8"?>
<!-- Generator: Adobe Illustrator 22.1.0, SVG Export Plug-In . SVG Version: 6.00 Build 0)  -->
<svg version="1.1" id="Layer_1" xmlns="http://www.w3.org/2000/svg" xmlns:xlink="http://www.w3.org/1999/xlink" x="0px" y="0px"
	 viewBox="0 0 80.6 80.6" style="enable-background:new 0 0 80.6 80.6;" xml:space="preserve">
<style type="text/css">
	.st0{fill:#FFFFFF;}
	.st1{fill:#FFFFFF;stroke:#FFFFFF;stroke-width:2;stroke-linecap:round;stroke-linejoin:round;stroke-miterlimit:10;}
	.st2{fill:#CC4B4C;}
	.st3{fill:#CCD0D2;}
	.st4{fill:#0DA84B;}
</style>
<g>
	<path class="st0" d="M10.6,62.6c-1.8,0-3.3-1.5-3.3-3.3S8.8,56,10.6,56h7.9c-5-4-11-14.1-11.2-39.2c0-0.6,0.2-1.1,0.6-1.5
		s0.9-0.6,1.5-0.6h52.2c0.6,0,1.1,0.2,1.5,0.6c0.4,0.4,0.6,0.9,0.6,1.5c0,0.9,0,2-0.1,3.1c5.7,2.4,9.5,8.1,9.5,14.4
		c0,8.6-7,15.6-15.6,15.6h-0.1c-1.4,2.6-3.1,4.7-4.9,6.2h5.6c1.8,0,3.3,1.5,3.3,3.3s-1.5,3.3-3.3,3.3H10.6V62.6z"/>
	<path class="st0" d="M61.6,15.7c0.6,0,1.1,0.5,1.1,1.1c0,1.1,0,2.4-0.1,3.8c5.6,2.1,9.6,7.4,9.6,13.7c0,8.1-6.5,14.6-14.6,14.6
		c-0.2,0-0.4,0-0.7,0c-2,3.8-4.5,6.8-8,8.2h9.3c1.3,0,2.3,1,2.3,2.3s-1,2.3-2.3,2.3H10.6c-1.3,0-2.3-1-2.3-2.3s1-2.3,2.3-2.3h11.5
		c-12-4.9-13.7-28.9-13.8-40.2c0-0.6,0.5-1.1,1.1-1.1h26.1h26.1 M62.3,26.5L62.3,26.5L62.3,26.5 M64.8,28.8
		c-0.7-0.9-1.5-1.7-2.5-2.2C63.3,27.1,64.1,27.9,64.8,28.8 M65.2,29.3c0.1,0.1,0.2,0.3,0.3,0.4C65.4,29.6,65.3,29.4,65.2,29.3
		c-0.1-0.1-0.2-0.3-0.3-0.4C65,29,65.1,29.1,65.2,29.3 M66,30.9c0.1,0.3,0.2,0.6,0.3,0.9C66.3,31.5,66.1,31.2,66,30.9
		c-0.2-0.4-0.3-0.7-0.5-1.1C65.7,30.2,65.9,30.5,66,30.9 M66.5,32.6c0,0.1,0,0.2,0,0.3C66.6,32.8,66.5,32.7,66.5,32.6
		c0-0.2-0.1-0.4-0.1-0.5C66.5,32.2,66.5,32.4,66.5,32.6 M66.7,34.3c0-0.4,0-0.7-0.1-1.1C66.7,33.5,66.7,33.9,66.7,34.3 M66.6,35.3
		L66.6,35.3C66.6,35.4,66.6,35.3,66.6,35.3L66.6,35.3C66.6,35.2,66.6,35.2,66.6,35.3 M66.5,36.2c0,0.1,0,0.1,0,0.2
		C66.5,36.3,66.5,36.2,66.5,36.2c0-0.1,0-0.1,0-0.2C66.5,36.1,66.5,36.1,66.5,36.2 M66.3,36.9c0,0.1-0.1,0.2-0.1,0.3
		C66.2,37.1,66.3,37,66.3,36.9C66.3,36.9,66.3,36.8,66.3,36.9C66.3,36.8,66.3,36.9,66.3,36.9 M65.9,37.9L65.9,37.9
		C65.9,37.9,65.9,37.9,65.9,37.9c0-0.1,0.1-0.2,0.1-0.3C66,37.7,66,37.8,65.9,37.9 M65.6,38.5c0,0.1-0.1,0.1-0.1,0.2
		C65.6,38.6,65.6,38.6,65.6,38.5L65.6,38.5C65.7,38.4,65.7,38.4,65.6,38.5 M65.2,39.2c0,0.1-0.1,0.1-0.1,0.2
		C65.1,39.3,65.2,39.3,65.2,39.2L65.2,39.2C65.3,39.1,65.3,39.1,65.2,39.2 M64.7,39.9c0,0.1-0.1,0.1-0.1,0.2
		C64.6,40,64.7,40,64.7,39.9c0.1-0.1,0.1-0.1,0.2-0.2C64.8,39.8,64.8,39.8,64.7,39.9 M63.7,41c-0.2,0.2-0.5,0.4-0.8,0.6
		C63.2,41.4,63.5,41.2,63.7,41c0.3-0.3,0.5-0.5,0.8-0.8C64.3,40.4,64,40.7,63.7,41 M62.6,41.8c-0.1,0.1-0.2,0.1-0.3,0.2
		C62.4,41.9,62.5,41.9,62.6,41.8c0.1-0.1,0.2-0.1,0.3-0.2C62.8,41.7,62.7,41.8,62.6,41.8 M61.8,42.3c-0.1,0-0.1,0.1-0.2,0.1
		C61.7,42.3,61.7,42.3,61.8,42.3c0.1-0.1,0.3-0.1,0.4-0.2C62.1,42.2,61.9,42.2,61.8,42.3 M61.1,42.6c-0.1,0-0.1,0.1-0.2,0.1
		C60.9,42.7,61,42.6,61.1,42.6c0.1-0.1,0.3-0.1,0.4-0.2C61.3,42.5,61.2,42.6,61.1,42.6 M60.3,42.9c-0.1,0-0.1,0-0.2,0
		C60.1,42.9,60.2,42.9,60.3,42.9c0.2,0,0.3-0.1,0.5-0.2C60.6,42.8,60.4,42.9,60.3,42.9 M59.3,43.1c0.2,0,0.5-0.1,0.7-0.2
		C59.8,43,59.5,43.1,59.3,43.1 M61.6,13.7h-26H9.5c-0.8,0-1.6,0.3-2.2,0.9c-0.6,0.6-0.9,1.4-0.9,2.2c0.1,6,0.5,14.8,2.5,23
		c1.6,6.8,4,11.8,7.1,15.2h-5.3c-2.4,0-4.3,1.9-4.3,4.3c0,2.4,1.9,4.3,4.3,4.3h47.6c2.4,0,4.3-1.9,4.3-4.3c0-2.4-1.9-4.3-4.3-4.3
		h-3.1c1.1-1.2,2.1-2.6,3-4.2c8.9-0.3,16.1-7.6,16.1-16.6c0-6.4-3.8-12.3-9.5-15c0-0.8,0-1.6,0-2.4c0-0.8-0.3-1.6-0.9-2.2
		C63.3,14,62.5,13.7,61.6,13.7L61.6,13.7z"/>
</g>
<path class="st1" d="M66.7,34.3c0,4.4-3.2,8.1-7.4,8.9c1.7-5.3,2.6-11.2,3-16.6C64.9,28.1,66.7,31,66.7,34.3z"/>
<g>
	<g>
		<path class="st2" d="M57.7,19.7c-8.1,0-14.6,6.5-14.6,14.6s6.5,14.6,14.6,14.6s14.6-6.5,14.6-14.6C72.3,26.2,65.7,19.7,57.7,19.7z
			 M57.7,43.3c-5,0-9-4-9-9s4-9,9-9s9,4,9,9S62.7,43.3,57.7,43.3z"/>
	</g>
	<g>
		<g>
			<path class="st3" d="M22.1,57H49c12-4.9,13.7-28.9,13.8-40.2c0-0.6-0.5-1.1-1.1-1.1H35.6H9.5c-0.6,0-1.1,0.5-1.1,1.1
				C8.4,28.2,10.2,52.1,22.1,57L22.1,57z"/>
		</g>
		<path class="st0" d="M28.8,54.8c-0.1,0-0.1,0-0.2,0c-9-1.5-13.8-6.7-15.7-16.8c-0.1-0.6,0.3-1.2,0.9-1.3c0.6-0.1,1.2,0.3,1.3,0.9
			c1.7,9.1,5.8,13.6,13.8,15c0.6,0.1,1,0.7,0.9,1.3C29.8,54.4,29.3,54.8,28.8,54.8"/>
		<g>
			<path class="st4" d="M10.6,61.6c-1.3,0-2.3-1-2.3-2.3l0,0c0-1.3,1-2.3,2.3-2.3h47.6c1.3,0,2.3,1,2.3,2.3l0,0c0,1.3-1,2.3-2.3,2.3
				H10.6z"/>
		</g>
	</g>
	<circle class="st0" cx="13.9" cy="32" r="1.4"/>
</g>
</svg>
