<?xml version="1.0" encoding="utf-8"?>
<!-- Generator: Adobe Illustrator 22.1.0, SVG Export Plug-In . SVG Version: 6.00 Build 0)  -->
<svg version="1.1" id="Layer_1" xmlns="http://www.w3.org/2000/svg" xmlns:xlink="http://www.w3.org/1999/xlink" x="0px" y="0px"
	 viewBox="0 0 400 400" style="enable-background:new 0 0 400 400;" xml:space="preserve">
<style type="text/css">
	.st0{fill:#60025E;}
	.st1{fill:#FFFFFF;}
	.st2{fill:#895A21;}
	.st3{fill:#AD8151;}
	.st4{fill:#2E424A;}
	.st5{fill:#364A54;}
	.st6{fill:#17272E;}
	.st7{fill:#C7C8CA;}
	.st8{fill:#683F12;}
</style>
<circle class="st0" cx="200" cy="320.1" r="37.7"/>
<g>
	<path class="st1" d="M197.2,330.6c-0.5-0.6-0.7-1.3-0.7-2.3c0-2.6,0.5-4.8,1.4-6.6c0.9-1.8,2.3-3.8,4.1-5.9
		c1.4-1.7,2.5-3.1,3.1-4.2c0.7-1.1,1-2.4,1-3.8c0-1.6-0.6-2.8-1.7-3.7c-1.2-0.9-2.7-1.4-4.7-1.4c-1.7,0-3.3,0.4-4.9,1.1
		c-1.6,0.7-3.4,1.8-5.5,3.2c-1.2,0.7-2.1,1-2.9,1c-0.8,0-1.5-0.4-2.1-1.1s-0.9-1.6-0.9-2.6c0-1.4,0.6-2.5,1.7-3.3c2-1.7,4.3-3,7-4
		s5.4-1.5,8.1-1.5c2.9,0,5.4,0.5,7.7,1.5c2.2,1,4,2.4,5.2,4.1c1.3,1.7,1.9,3.8,1.9,6c0,2.5-0.6,4.6-1.8,6.4s-2.9,3.9-5.2,6.1
		c-1.9,2-3.4,3.6-4.4,5s-1.6,2.9-1.8,4.6c-0.1,0.8-0.5,1.3-1,1.7c-0.5,0.4-1.1,0.6-1.9,0.6C198.3,331.4,197.7,331.2,197.2,330.6z
		 M195.5,344.8c-1-1-1.5-2.3-1.5-3.8s0.5-2.8,1.5-3.8s2.2-1.5,3.8-1.5c1.5,0,2.8,0.5,3.8,1.5s1.5,2.3,1.5,3.8s-0.5,2.8-1.5,3.8
		s-2.3,1.5-3.7,1.5C197.8,346.3,196.5,345.8,195.5,344.8z"/>
</g>
<g>
	<g>
		<polygon class="st2" points="131,75.5 62.2,75.4 72.3,37.4 136,37.5 		"/>
	</g>
	<g>
		<polygon class="st3" points="199.8,75.5 131,75.5 136,37.5 199.8,37.6 		"/>
	</g>
	<g>
		<polygon class="st2" points="268.6,75.6 199.8,75.5 199.8,37.6 263.5,37.6 		"/>
	</g>
	<g>
		<polygon class="st3" points="337.4,75.7 268.6,75.6 263.5,37.6 327.2,37.7 		"/>
	</g>
	<g>
		<polygon class="st3" points="125.1,120 50.3,120 62.2,75.4 131,75.5 		"/>
	</g>
	<g>
		<polygon class="st2" points="199.9,120.1 125.1,120 131,75.5 199.8,75.5 		"/>
	</g>
	<g>
		<polygon class="st3" points="274.6,120.2 199.9,120.1 199.8,75.5 268.6,75.6 		"/>
	</g>
	<g>
		<polygon class="st2" points="349.4,120.3 274.6,120.2 268.6,75.6 337.4,75.7 		"/>
	</g>
	<g>
		<polygon class="st2" points="118.1,173.1 36.2,173 50.3,120 125.1,120 		"/>
	</g>
	<g>
		<polygon class="st3" points="199.9,173.1 118.1,173.1 125.1,120 199.9,120.1 		"/>
	</g>
	<g>
		<polygon class="st2" points="281.8,173.2 199.9,173.1 199.9,120.1 274.6,120.2 		"/>
	</g>
	<g>
		<polygon class="st3" points="363.6,173.3 281.8,173.2 274.6,120.2 349.4,120.3 		"/>
	</g>
	<g>
		<polygon class="st3" points="109.6,237.2 19.2,237.1 36.2,173 118.1,173.1 		"/>
	</g>
	<g>
		<polygon class="st2" points="200,237.3 109.6,237.2 118.1,173.1 199.9,173.1 		"/>
	</g>
	<g>
		<polygon class="st3" points="290.4,237.3 200,237.3 199.9,173.1 281.8,173.2 		"/>
	</g>
	<g>
		<polygon class="st2" points="380.8,237.4 290.4,237.3 281.8,173.2 363.6,173.3 		"/>
	</g>
</g>
<g>
	<path class="st4" d="M257.9,195.8c-1-0.2-2,0.4-2.2,1.3c0,0.1,0,0.3,0,0.4H226c0-0.1,0-0.3,0-0.4c-0.2-1-1.3-1.6-2.2-1.3
		c-3.2,0.8-10.7,3.1-10.7,7.4v7.4c0,0.4,0.1,0.8,0.3,1.1c0.2,0.3,6,8.2,27.5,8.2s27.2-7.9,27.5-8.2c0.2-0.3,0.3-0.7,0.3-1.1v-7.4
		C268.6,198.9,261.1,196.6,257.9,195.8z"/>
	<path class="st5" d="M260.9,202.1c-0.1-0.2-10.8-16.6-10.8-32.3c0-1-0.8-1.9-1.9-1.9h-14.8c-1,0-1.9,0.8-1.9,1.9
		c0,15.8-10.7,32.2-10.8,32.3c-0.5,0.8-0.4,1.8,0.4,2.4c0.5,0.4,5.4,4.1,19.7,4.1c14.3,0,19.2-3.7,19.7-4.1
		C261.2,203.9,261.4,202.9,260.9,202.1z"/>
	<path class="st6" d="M257.3,161.6c-0.3-0.6-1.7-2.8-7.3-4c-0.1,0-0.2,0-0.4,0H232c-0.1,0-0.2,0-0.4,0c-5.6,1.2-7,3.3-7.3,4
		c-0.1,0.2-0.2,0.5-0.2,0.8v3.7c0,0.5,0.2,0.9,0.5,1.3c0.4,0.4,4.4,4.3,16.2,4.3s15.7-3.8,16.2-4.3c0.3-0.3,0.5-0.8,0.5-1.3v-3.7
		C257.5,162.1,257.4,161.8,257.3,161.6z"/>
	<circle class="st5" cx="240.8" cy="147.5" r="16.7"/>
</g>
<g>
	<path class="st7" d="M97,138.5c-0.7-0.2-1.5,0.3-1.6,1c0,0.1,0,0.2,0,0.3H73.6c0-0.1,0-0.2,0-0.3c-0.2-0.7-0.9-1.2-1.6-1
		c-2.3,0.6-7.8,2.3-7.8,5.4v5.4c0,0.3,0.1,0.5,0.2,0.8c0.2,0.2,4.4,6,20,6s19.9-5.7,20-6c0.2-0.2,0.2-0.5,0.2-0.8v-5.4
		C104.8,140.8,99.3,139.1,97,138.5z"/>
	<path class="st1" d="M99.1,143.1c-0.1-0.1-7.9-12.1-7.9-23.6c0-0.7-0.6-1.4-1.4-1.4H79.1c-0.7,0-1.4,0.6-1.4,1.4
		c0,11.5-7.8,23.5-7.9,23.6c-0.4,0.6-0.3,1.3,0.3,1.8c0.4,0.3,3.9,3,14.4,3s14-2.7,14.4-3C99.4,144.5,99.5,143.7,99.1,143.1z"/>
	<path class="st7" d="M96.5,113.5c-0.2-0.5-1.2-2-5.4-2.9c-0.1,0-0.2,0-0.3,0H78.1c-0.1,0-0.2,0-0.3,0c-4.1,0.9-5.1,2.4-5.4,2.9
		c-0.1,0.2-0.1,0.4-0.1,0.6v2.7c0,0.3,0.1,0.7,0.4,0.9c0.3,0.3,3.2,3.1,11.8,3.1s11.5-2.8,11.8-3.1c0.2-0.3,0.4-0.6,0.4-0.9v-2.7
		C96.7,113.9,96.6,113.7,96.5,113.5z"/>
	<circle class="st1" cx="84.5" cy="103.3" r="12.2"/>
</g>
<g>
	<path class="st7" d="M321.5,90.6c-0.7-0.2-1.5,0.3-1.6,1c0,0.1,0,0.2,0,0.3h-21.7c0-0.1,0-0.2,0-0.3c-0.2-0.7-0.9-1.2-1.6-1
		c-2.3,0.6-7.8,2.3-7.8,5.4v5.4c0,0.3,0.1,0.5,0.2,0.8c0.2,0.2,4.4,6,20,6c15.7,0,19.9-5.7,20-6c0.2-0.2,0.2-0.5,0.2-0.8V96
		C329.3,92.9,323.8,91.2,321.5,90.6z"/>
	<path class="st1" d="M323.6,95.2c-0.1-0.1-7.9-12.1-7.9-23.6c0-0.7-0.6-1.4-1.4-1.4h-10.8c-0.7,0-1.4,0.6-1.4,1.4
		c0,11.5-7.8,23.5-7.9,23.6c-0.4,0.6-0.3,1.3,0.3,1.8c0.4,0.3,3.9,3,14.4,3c10.4,0,14-2.7,14.4-3C323.9,96.6,324,95.8,323.6,95.2z"
		/>
	<path class="st7" d="M321,65.6c-0.2-0.5-1.2-2-5.4-2.9c-0.1,0-0.2,0-0.3,0h-12.8c-0.1,0-0.2,0-0.3,0c-4.1,0.9-5.1,2.4-5.4,2.9
		c-0.1,0.2-0.1,0.4-0.1,0.6v2.7c0,0.3,0.1,0.7,0.4,0.9c0.3,0.3,3.2,3.1,11.8,3.1c8.6,0,11.5-2.8,11.8-3.1c0.2-0.3,0.4-0.6,0.4-0.9
		v-2.7C321.2,66,321.1,65.8,321,65.6z"/>
	<circle class="st1" cx="309" cy="55.4" r="12.2"/>
</g>
<g>
	<path class="st4" d="M110.7,48.7c-0.5-0.1-1.1,0.2-1.2,0.7c0,0.1,0,0.2,0,0.2H93.1c0-0.1,0-0.2,0-0.2c-0.1-0.5-0.7-0.9-1.2-0.7
		c-1.8,0.4-5.9,1.7-5.9,4v4.1c0,0.2,0.1,0.4,0.2,0.6c0.1,0.2,3.3,4.5,15.1,4.5s15-4.3,15.1-4.5c0.1-0.2,0.2-0.4,0.2-0.6v-4.1
		C116.6,50.4,112.5,49.1,110.7,48.7z"/>
	<path class="st5" d="M112.3,52.1c-0.1-0.1-5.9-9.1-5.9-17.8c0-0.6-0.5-1-1-1h-8.1c-0.6,0-1,0.5-1,1c0,8.7-5.9,17.7-5.9,17.8
		c-0.3,0.4-0.2,1,0.2,1.3c0.3,0.2,3,2.3,10.8,2.3s10.5-2,10.8-2.3C112.5,53.2,112.6,52.6,112.3,52.1z"/>
	<path class="st6" d="M110.4,29.9c-0.2-0.3-0.9-1.5-4-2.2c-0.1,0-0.1,0-0.2,0h-9.7c-0.1,0-0.1,0-0.2,0c-3.1,0.6-3.9,1.8-4,2.2
		c-0.1,0.1-0.1,0.3-0.1,0.4v2c0,0.3,0.1,0.5,0.3,0.7c0.2,0.2,2.4,2.3,8.9,2.3c6.4,0,8.6-2.1,8.9-2.3c0.2-0.2,0.3-0.4,0.3-0.7v-2
		C110.4,30.2,110.4,30,110.4,29.9z"/>
	<circle class="st5" cx="101.3" cy="22.2" r="9.2"/>
</g>
<g>
	<polygon class="st8" points="19.2,237.1 19.2,247.5 380.8,247.5 380.8,237.4 	"/>
</g>
</svg>
