<?xml version="1.0" encoding="utf-8"?>
<!-- Generator: Adobe Illustrator 22.1.0, SVG Export Plug-In . SVG Version: 6.00 Build 0)  -->
<svg version="1.1" id="Layer_1" xmlns="http://www.w3.org/2000/svg" xmlns:xlink="http://www.w3.org/1999/xlink" x="0px" y="0px"
	 viewBox="0 0 80.6 80.6" style="enable-background:new 0 0 80.6 80.6;" xml:space="preserve">
<style type="text/css">
	.st0{fill:#895A21;}
	.st1{fill:#AD8151;}
	.st2{fill:#FFFFFF;}
	.st3{fill:#364A54;}
</style>
<g>
	<g>
		<g>
			<rect x="4.7" y="4.7" class="st0" width="17.8" height="17.8"/>
		</g>
		<g>
			<rect x="22.5" y="4.7" class="st1" width="17.8" height="17.8"/>
		</g>
		<g>
			<rect x="40.3" y="4.7" class="st0" width="17.8" height="17.8"/>
		</g>
		<g>
			<rect x="58.1" y="4.7" class="st1" width="17.8" height="17.8"/>
		</g>
		<g>
			<rect x="4.7" y="22.5" class="st1" width="17.8" height="17.8"/>
		</g>
		<g>
			<rect x="22.5" y="22.5" class="st0" width="17.8" height="17.8"/>
		</g>
		<g>
			<rect x="40.3" y="22.5" class="st1" width="17.8" height="17.8"/>
		</g>
		<g>
			<rect x="58.1" y="22.5" class="st0" width="17.8" height="17.8"/>
		</g>
		<g>
			<rect x="4.7" y="40.3" class="st0" width="17.8" height="17.8"/>
		</g>
		<g>
			<rect x="22.5" y="40.3" class="st1" width="17.8" height="17.8"/>
		</g>
		<g>
			<rect x="40.3" y="40.3" class="st0" width="17.8" height="17.8"/>
		</g>
		<g>
			<rect x="58.1" y="40.3" class="st1" width="17.8" height="17.8"/>
		</g>
		<g>
			<rect x="4.7" y="58.1" class="st1" width="17.8" height="17.8"/>
		</g>
		<g>
			<rect x="22.5" y="58.1" class="st0" width="17.8" height="17.8"/>
		</g>
		<g>
			<rect x="40.3" y="58.1" class="st1" width="17.8" height="17.8"/>
		</g>
		<g>
			<rect x="58.1" y="58.1" class="st0" width="17.8" height="17.8"/>
		</g>
	</g>
	<circle class="st2" cx="49.2" cy="67" r="4.7"/>
	<circle class="st2" cx="13.6" cy="14.1" r="4.7"/>
	<circle class="st3" cx="13.6" cy="48.8" r="4.7"/>
	<circle class="st3" cx="67" cy="31.4" r="4.7"/>
</g>
</svg>
