<?xml version="1.0" encoding="utf-8"?>
<!-- Generator: Adobe Illustrator 22.1.0, SVG Export Plug-In . SVG Version: 6.00 Build 0)  -->
<svg version="1.1" id="Layer_1" xmlns="http://www.w3.org/2000/svg" xmlns:xlink="http://www.w3.org/1999/xlink" x="0px" y="0px"
	 viewBox="0 0 400 400" style="enable-background:new 0 0 400 400;" xml:space="preserve">
<style type="text/css">
	.st0{clip-path:url(#SVGID_2_);fill:#F8C0D9;}
	.st1{clip-path:url(#SVGID_4_);}
	.st2{fill:#C97D0E;}
	.st3{fill:#F29C11;}
	.st4{fill:#3A382D;}
	.st5{fill:#895B19;}
	.st6{fill:#6D450F;}
	.st7{fill:#442909;}
	.st8{fill:none;stroke:#FFF488;stroke-width:0.75;stroke-linecap:round;stroke-linejoin:round;stroke-miterlimit:10;}
	.st9{clip-path:url(#SVGID_6_);}
	.st10{fill:#7FCAC9;}
	.st11{clip-path:url(#SVGID_6_);fill:#E9686A;}
	.st12{fill:#FDBD40;}
	.st13{fill:none;stroke:#FFFFFF;stroke-width:3;stroke-miterlimit:10;}
</style>
<g>
	<g>
		<defs>
			<path id="SVGID_1_" d="M16.5,22v356h367V22H16.5z M105.7,297.6V147.7l151.9,149.9L105.7,297.6L105.7,297.6z"/>
		</defs>
		<clipPath id="SVGID_2_">
			<use xlink:href="#SVGID_1_"  style="overflow:visible;"/>
		</clipPath>
		<rect x="16.5" y="22" class="st0" width="367" height="356"/>
	</g>
	<g>
		<defs>
			<path id="SVGID_3_" d="M16.5,22v356h367V22H16.5z M105.7,297.6V147.7l151.9,149.9L105.7,297.6L105.7,297.6z"/>
		</defs>
		<clipPath id="SVGID_4_">
			<use xlink:href="#SVGID_3_"  style="overflow:visible;"/>
		</clipPath>
		<g class="st1">
			<path class="st2" d="M128,291.5c2.8-26.2,34.5-43.8,71-39.1c36.5,4.6,63.8,29.8,61,56s-37.3,49.9-73.7,45.2
				S125.3,317.9,128,291.5z"/>
			<path id="SVGCleanerId_0_1_" class="st3" d="M207.2,185c-26.8-3.1-50.7,10.2-53,29.7c-0.4,3.9,0,7.6,1.5,11.5
				c0.3,4.8,0.7,10.6-0.2,16.4c-0.7,6.1-4.4,11.1-8,14.9c-2.5,2-4.7,4.3-6.7,6.3c-0.4,0.3-0.6,0.5-0.7,1.1
				c-4.3,5.4-7.3,11.3-8.1,18.6c-3.2,24.8,22.6,48.5,57.5,52.3c34.6,4,65.2-13.1,68.1-38.2c0.8-6.7-0.7-13.7-3.6-19.9
				c-0.3-0.4-0.5-0.6-0.5-0.6c-1.7-2.8-3.1-5.2-5.3-8c-2.6-4.5-5.3-10-4.4-16.4c0.4-5.9,2.8-11.3,4.1-15.9c2-3.1,3.6-6.9,4.1-10.8
				C254.5,206.3,234.3,187.8,207.2,185z"/>
			<path d="M218.9,215.8c-0.6,5.6-9.8,3.6-15.1,3.3l-1.2-0.1c-5.6-0.6-14.6-1.2-14-6.8l18.5-117.5c0.6-5.6,5.3-9.2,10.9-8.6l1.2,0.1
				c5.6,0.6,9.2,5.3,8.6,10.9L218.9,215.8z"/>
			<path d="M233.7,91.6c-0.6,5.6-5.3,9.2-10.9,8.6l-11.1-1.3c-5.6-0.6-9.2-5.3-8.6-10.9l2.8-24.5c0.6-5.6,5.3-9.2,10.9-8.6l11.2,1.3
				c5.6,0.6,9.2,5.3,8.6,10.9L233.7,91.6z"/>
			<g>
				<path class="st4" d="M219.4,210.8c-0.6,5.6-9.8,3.6-15.1,3.3l-1.3-0.4c-5.6-0.6-14.6-1.2-14-6.8l18.5-117.5
					c0.6-5.6,5.3-9.2,10.9-8.6l1.2,0.1c5.6,0.6,9.2,5.3,8.6,10.9L219.4,210.8z"/>
				<path class="st4" d="M234.2,86.6c-0.6,5.6-5.3,9.2-10.9,8.6l-11.1-1.3c-5.6-0.6-9.2-5.3-8.6-10.9l2.8-24.5
					c0.6-5.6,5.3-9.2,10.9-8.6l11.2,1.3c5.6,0.6,9.2,5.3,8.6,10.9L234.2,86.6z"/>
			</g>
			<circle class="st5" cx="200" cy="246.4" r="20.6"/>
			<path class="st6" d="M201.6,233c10,1.2,17.6,9.4,17.8,19.3c0.1-1.2,0.8-2.1,1-3.3c1.3-11.2-6.8-21.4-18-22.8
				c-11.1-1.3-21.4,6.8-22.8,18c-0.1,1.2-0.3,2.2,0.2,3.4C182.3,238.1,191.5,231.9,201.6,233z"/>
			<path class="st7" d="M217.4,296c-0.4,3.4,1.5,6.4-1.9,6l-43.6-5.1c-3.4-0.4-0.8-2.9-0.4-6.3l0,0c0.4-3.4,3.5-5.8,6.8-5.4
				l33.5,3.9C215.3,289.5,217.8,292.6,217.4,296L217.4,296z"/>
			<path class="st6" d="M217.5,293.4c-0.4,3.4,1.5,6.4-1.9,6l-43.6-5.1c-3.4-0.4-0.8-2.9-0.4-6.3l0,0c0.4-3.4,3.5-5.8,6.8-5.4
				l32.9,3.8C215.3,286.9,217.8,290,217.5,293.4L217.5,293.4z"/>
			<path class="st3" d="M224.8,94.5c-0.1,0.5-0.4,0.8-1,0.7l-12.3-1.4c-0.5-0.1-0.8-0.4-0.7-1l0,0c0.1-0.5,0.4-0.8,1-0.7l12.3,1.4
				C224.3,93.9,224.6,94.3,224.8,94.5L224.8,94.5z"/>
			<g>
				
					<rect x="204.6" y="52.8" transform="matrix(0.1546 -0.988 0.988 0.1546 118.5172 251.4598)" class="st4" width="3.1" height="7.3"/>
				<path class="st4" d="M200.4,59.7l-0.9-0.2c-1.2-0.2-2-1.2-1.7-2.4l0.8-5c0.2-1.2,1.2-2,2.4-1.7l0.9,0.2c1.2,0.2,2,1.2,1.7,2.4
					l-0.8,5C202.6,59.1,201.6,59.9,200.4,59.7z"/>
			</g>
			<g>
				
					<rect x="202.4" y="65.1" transform="matrix(0.1546 -0.988 0.988 0.1546 104.559 259.6422)" class="st4" width="3.1" height="7.3"/>
				<path class="st4" d="M198.2,71.9l-0.9-0.2c-1.2-0.2-2-1.2-1.7-2.4l0.8-5c0.2-1.2,1.2-2,2.4-1.7l0.9,0.2c1.2,0.2,2,1.2,1.7,2.4
					l-0.8,5C200.4,71.3,199.3,72.1,198.2,71.9z"/>
			</g>
			<g>
				
					<rect x="200.9" y="76" transform="matrix(0.1546 -0.988 0.988 0.1546 92.4728 267.3669)" class="st4" width="3.1" height="7.3"/>
				<path class="st4" d="M196.7,82.9l-0.9-0.2c-1.2-0.2-2-1.2-1.7-2.4l0.8-5c0.2-1.2,1.2-2,2.4-1.7l0.9,0.2c1.2,0.2,2,1.2,1.7,2.4
					l-0.8,5C198.9,82.4,197.8,83.1,196.7,82.9z"/>
			</g>
			<g>
				
					<rect x="235.6" y="59" transform="matrix(0.1115 -0.9938 0.9938 0.1115 148.4173 291.3385)" class="st4" width="3.1" height="7.3"/>
				<path class="st4" d="M241.9,67.3l0.9,0.1c1.2,0.1,2.2-0.7,2.3-1.9l0.5-5c0.1-1.2-0.7-2.2-1.9-2.3l-0.9-0.1
					c-1.2-0.1-2.2,0.7-2.3,1.9l-0.5,5C239.9,66.2,240.8,67.2,241.9,67.3z"/>
			</g>
			<g>
				
					<rect x="234.5" y="71.4" transform="matrix(0.1115 -0.9938 0.9938 0.1115 135.1181 301.2673)" class="st4" width="3.1" height="7.3"/>
				<path class="st4" d="M240.9,79.8l0.9,0.1c1.2,0.1,2.2-0.7,2.3-1.9l0.5-5c0.1-1.2-0.7-2.2-1.9-2.3l-0.9-0.1
					c-1.2-0.1-2.2,0.7-2.3,1.9l-0.5,5C238.8,78.6,239.6,79.6,240.9,79.8z"/>
			</g>
			<g>
				
					<rect x="233" y="82.5" transform="matrix(0.1115 -0.9938 0.9938 0.1115 122.8382 309.6248)" class="st4" width="3.1" height="7.3"/>
				<path class="st4" d="M239.4,90.7l0.9,0.1c1.2,0.1,2.2-0.7,2.3-1.9l0.5-5c0.1-1.2-0.7-2.2-1.9-2.3l-0.9-0.1
					c-1.2-0.1-2.2,0.7-2.3,1.9l-0.5,5C237.3,89.6,238.2,90.6,239.4,90.7z"/>
			</g>
			<path class="st8" d="M178.8,289.8c0.9-0.9,32.8-195.9,32.8-195.9l-9.7-14.6"/>
			<polyline class="st8" points="186.2,290.4 214.5,93.4 203.9,68.7 			"/>
			<path class="st8" d="M190.6,291.3c0.3-0.9,26.1-197.6,26.1-197.6l-10.5-37.3"/>
			<path class="st8" d="M196.6,291.9c0-0.9,22.5-198.6,22.5-198.6l18.1-30.6"/>
			<polyline class="st8" points="236.2,75.1 221,94.1 202.8,291 			"/>
			<path class="st8" d="M211.1,292.8c0-1.5,12.7-198.2,12.7-198.2l10.8-8.4"/>
		</g>
	</g>
	<g>
		<defs>
			<path id="SVGID_5_" d="M16.5,22v356h367V22H16.5z M105.7,297.6V147.7l151.9,149.9L105.7,297.6L105.7,297.6z"/>
		</defs>
		<clipPath id="SVGID_6_">
			<use xlink:href="#SVGID_5_"  style="overflow:visible;"/>
		</clipPath>
		<g class="st9">
			<path class="st10" d="M349.2,59.7c-8.5-4-17.1-7.4-26-10.4c-2.7-0.9-5.5,0.6-6.4,3.2c-0.2,0.5-0.3,1.1-0.3,1.6v36.4
				c-1.6-0.6-3.3-0.9-5.1-0.9c-8.4,0-15.2,6.8-15.2,15.2s6.8,15.2,15.2,15.2c8.4,0,15.2-6.8,15.2-15.2V61.2c6.1,2.2,12.1,4.7,18,7.5
				c2.5,1.3,5.5,0.2,6.8-2.3C352.7,64,351.7,60.9,349.2,59.7L349.2,59.7z"/>
			<path class="st10" d="M294.4,325v25.4c-1-0.4-2-0.6-3.1-0.6c-5.2,0-9.3,4.2-9.3,9.3c0,5.2,4.2,9.3,9.3,9.3c5.2,0,9.3-4.2,9.3-9.3
				V325H294.4z"/>
			<path class="st10" d="M50.3,265.6v41.5c-1.6-0.6-3.3-0.9-5.1-0.9c-8.4,0-15.2,6.8-15.2,15.2c0,8.4,6.8,15.2,15.2,15.2
				s15.2-6.8,15.2-15.2v-55.7H50.3z"/>
			<path class="st10" d="M300.3,170.9v41.5c-1.6-0.6-3.3-0.9-5.1-0.9c-8.4,0-15.2,6.8-15.2,15.2s6.8,15.2,15.2,15.2
				c8.4,0,15.2-6.8,15.2-15.2v-55.7H300.3z"/>
		</g>
		<path class="st11" d="M362.9,234.9h-43.4v38.8c-6.5-1.3-12.9,2.9-14.2,9.4c-1.3,6.5,2.9,12.9,9.4,14.2c6.5,1.3,12.9-2.9,14.2-9.4
			c0.2-0.8,0.2-1.6,0.2-2.4V247h33.7v26.8c-6.5-1.3-12.9,2.9-14.2,9.4s2.9,12.9,9.4,14.2c6.5,1.3,12.9-2.9,14.2-9.4
			c0.2-0.8,0.2-1.6,0.2-2.4v-50.6L362.9,234.9L362.9,234.9z"/>
		<path class="st11" d="M98.7,92.2H67.3v28.1c-4.7-1-9.3,2.1-10.3,6.8c-1,4.7,2.1,9.3,6.8,10.3s9.3-2.1,10.3-6.8
			c0.1-0.6,0.2-1.2,0.2-1.7v-27.9h24.4v19.4c-4.7-1-9.3,2.1-10.3,6.8c-1,4.7,2.1,9.3,6.8,10.3c4.7,1,9.3-2.1,10.3-6.8
			c0.1-0.6,0.2-1.2,0.2-1.7V92.2L98.7,92.2L98.7,92.2z"/>
		<g class="st9">
			<path class="st12" d="M139.2,292.2c-28,0-50.6-22.7-50.7-50.7h10.1c0,22.4,18.2,40.5,40.5,40.5V292.2z"/>
			<path class="st12" d="M286.1,145.3H276v-5.1c0-14-11.3-25.3-25.3-25.3h-5.1v-10.1h5.1c19.6,0,35.4,15.9,35.5,35.5V145.3z"/>
			<path class="st12" d="M134.8,378h-10.1v-5.1c0-14-11.3-25.3-25.3-25.3h-5.1v-10.1h5.1c19.6,0,35.4,15.9,35.5,35.5V378z"/>
		</g>
		<g class="st9">
			<line class="st13" x1="16.5" y1="60.7" x2="342" y2="378"/>
			<polyline class="st13" points="105.7,297.6 105.7,147.7 257.7,297.6 105.7,297.6 			"/>
			<line class="st13" x1="232.3" y1="271" x2="384.9" y2="118.4"/>
			<polyline class="st13" points="355.6,147.7 105.7,147.7 105.7,378 			"/>
			<line class="st13" x1="193.9" y1="147.7" x2="193.9" y2="22"/>
			<line class="st13" x1="300.3" y1="22" x2="300.3" y2="147.7"/>
			<line class="st13" x1="105.7" y1="219.7" x2="16.5" y2="219.7"/>
		</g>
	</g>
</g>
</svg>
