<?xml version="1.0" encoding="utf-8"?>
<!-- Generator: Adobe Illustrator 22.1.0, SVG Export Plug-In . SVG Version: 6.00 Build 0)  -->
<svg version="1.1" id="Layer_1" xmlns="http://www.w3.org/2000/svg" xmlns:xlink="http://www.w3.org/1999/xlink" x="0px" y="0px"
	 viewBox="0 0 80.6 80.6" style="enable-background:new 0 0 80.6 80.6;" xml:space="preserve">
<style type="text/css">
	.st0{clip-path:url(#SVGID_2_);fill:#F8C0D9;}
	.st1{clip-path:url(#SVGID_2_);}
	.st2{fill:#C97D0E;}
	.st3{fill:#F29C11;}
	.st4{fill:#3A382D;}
	.st5{fill:#895B19;}
	.st6{fill:#6D450F;}
	.st7{fill:#442909;}
	.st8{fill:none;stroke:#FFF488;stroke-width:0.75;stroke-linecap:round;stroke-linejoin:round;stroke-miterlimit:10;}
	.st9{fill:none;stroke:#FFFFFF;stroke-width:3;stroke-linecap:round;stroke-linejoin:round;stroke-miterlimit:10;}
</style>
<g>
	<defs>
		<polygon id="SVGID_1_" points="6.3,5.3 6.3,73.4 75.3,73.4 		"/>
	</defs>
	<clipPath id="SVGID_2_">
		<use xlink:href="#SVGID_1_"  style="overflow:visible;"/>
	</clipPath>
	<rect x="3" y="2.3" class="st0" width="77" height="74.2"/>
	<g class="st1">
		<path class="st2" d="M16.4,87.7c1.3-11.9,15.7-19.9,32.3-17.8s29,13.5,27.7,25.5c-1.3,11.9-16.9,22.7-33.5,20.5
			C26.3,113.8,15.1,99.7,16.4,87.7z"/>
		<path id="SVGCleanerId_0_2_" class="st3" d="M52.4,39.3c-12.2-1.4-23,4.6-24.1,13.5c-0.2,1.8,0,3.5,0.7,5.2
			c0.1,2.2,0.3,4.8-0.1,7.4c-0.3,2.8-2,5.1-3.6,6.8c-1.1,0.9-2.1,1.9-3,2.9c-0.2,0.1-0.3,0.2-0.3,0.5C20,78,18.6,80.7,18.2,84
			c-1.5,11.3,10.3,22,26.1,23.8c15.7,1.8,29.6-5.9,31-17.3c0.4-3-0.3-6.2-1.7-9.1c-0.1-0.2-0.2-0.3-0.2-0.3
			c-0.8-1.3-1.4-2.3-2.4-3.6c-1.2-2.1-2.4-4.5-2-7.4c0.2-2.7,1.3-5.1,1.9-7.2c0.9-1.4,1.7-3.2,1.9-4.9C73.9,49,64.7,40.6,52.4,39.3z
			"/>
		<path d="M57.7,53.3c-0.3,2.5-4.4,1.7-6.9,1.5l-0.5,0c-2.5-0.3-6.6-0.5-6.3-3.1l8.4-53.4c0.3-2.5,2.4-4.2,5-3.9l0.5,0
			c2.5,0.3,4.2,2.4,3.9,5L57.7,53.3z"/>
		<path d="M64.4-3.2c-0.3,2.5-2.4,4.2-5,3.9l-5.1-0.6c-2.5-0.3-4.2-2.4-3.9-5L51.8-16c0.3-2.5,2.4-4.2,5-3.9l5.1,0.6
			c2.5,0.3,4.2,2.4,3.9,5L64.4-3.2z"/>
		<g>
			<path class="st4" d="M57.9,51c-0.3,2.5-4.4,1.7-6.9,1.5l-0.6-0.2c-2.5-0.3-6.6-0.5-6.3-3.1l8.4-53.4c0.3-2.5,2.4-4.2,5-3.9L58-8
				c2.5,0.3,4.2,2.4,3.9,5L57.9,51z"/>
			<path class="st4" d="M64.7-5.4c-0.3,2.5-2.4,4.2-5,3.9l-5.1-0.6c-2.5-0.3-4.2-2.4-3.9-5L52-18.2c0.3-2.5,2.4-4.2,5-3.9l5.1,0.6
				c2.5,0.3,4.2,2.4,3.9,5L64.7-5.4z"/>
		</g>
		<circle class="st5" cx="49.1" cy="67.2" r="9.4"/>
		<path class="st6" d="M49.8,61.1c4.6,0.5,8,4.3,8.1,8.8c0-0.5,0.4-1,0.4-1.5c0.6-5.1-3.1-9.7-8.2-10.3c-5.1-0.6-9.7,3.1-10.3,8.2
			c0,0.5-0.1,1,0.1,1.5C41.1,63.4,45.3,60.6,49.8,61.1z"/>
		<path class="st7" d="M57,89.7c-0.2,1.5,0.7,2.9-0.8,2.7l-19.8-2.3c-1.5-0.2-0.4-1.3-0.2-2.9l0,0c0.2-1.5,1.6-2.6,3.1-2.5l15.2,1.8
			C56.1,86.8,57.2,88.2,57,89.7L57,89.7z"/>
		<path class="st6" d="M57.1,88.5c-0.2,1.5,0.7,2.9-0.8,2.7L36.4,89c-1.5-0.2-0.4-1.3-0.2-2.9l0,0c0.2-1.5,1.6-2.6,3.1-2.5l15,1.7
			C56.1,85.6,57.2,87,57.1,88.5L57.1,88.5z"/>
		<path class="st3" d="M60.4-1.8c0,0.2-0.2,0.4-0.4,0.3l-5.6-0.6c-0.2,0-0.4-0.2-0.3-0.4l0,0c0-0.2,0.2-0.4,0.4-0.3L60-2.3
			C60.2-2.1,60.3-1.9,60.4-1.8L60.4-1.8z"/>
		<g>
			
				<rect x="51.2" y="-20.8" transform="matrix(0.1546 -0.988 0.988 0.1546 62.8045 35.1287)" class="st4" width="1.4" height="3.3"/>
			<path class="st4" d="M49.3-17.7l-0.4-0.1c-0.5-0.1-0.9-0.6-0.8-1.1l0.4-2.3c0.1-0.5,0.6-0.9,1.1-0.8l0.4,0.1
				c0.5,0.1,0.9,0.6,0.8,1.1l-0.4,2.3C50.3-17.9,49.8-17.6,49.3-17.7z"/>
		</g>
		<g>
			
				<rect x="50.2" y="-15.2" transform="matrix(0.1546 -0.988 0.988 0.1546 56.4378 38.8423)" class="st4" width="1.4" height="3.3"/>
			<path class="st4" d="M48.3-12.1l-0.4-0.1c-0.5-0.1-0.9-0.6-0.8-1.1l0.4-2.3c0.1-0.5,0.6-0.9,1.1-0.8l0.4,0.1
				c0.5,0.1,0.9,0.6,0.8,1.1l-0.4,2.3C49.3-12.4,48.8-12,48.3-12.1z"/>
		</g>
		<g>
			
				<rect x="49.5" y="-10.2" transform="matrix(0.1546 -0.988 0.988 0.1546 50.9543 42.3675)" class="st4" width="1.4" height="3.3"/>
			<path class="st4" d="M47.6-7.1l-0.4-0.1c-0.5-0.1-0.9-0.6-0.8-1.1l0.4-2.3c0.1-0.5,0.6-0.9,1.1-0.8l0.4,0.1
				c0.5,0.1,0.9,0.6,0.8,1.1l-0.4,2.3C48.6-7.4,48.1-7,47.6-7.1z"/>
		</g>
		<g>
			
				<rect x="65.3" y="-18" transform="matrix(0.1115 -0.9938 0.9938 0.1115 74.8429 51.1053)" class="st4" width="1.4" height="3.3"/>
			<path class="st4" d="M68.2-14.2l0.4,0c0.5,0,1-0.3,1.1-0.8l0.2-2.3c0-0.5-0.3-1-0.8-1.1l-0.4,0c-0.5,0-1,0.3-1.1,0.8l-0.2,2.3
				C67.2-14.7,67.6-14.2,68.2-14.2z"/>
		</g>
		<g>
			
				<rect x="64.8" y="-12.3" transform="matrix(0.1115 -0.9938 0.9938 0.1115 68.8001 55.616)" class="st4" width="1.4" height="3.3"/>
			<path class="st4" d="M67.7-8.5l0.4,0c0.5,0,1-0.3,1.1-0.8l0.2-2.3c0-0.5-0.3-1-0.8-1.1l-0.4,0c-0.5,0-1,0.3-1.1,0.8l-0.2,2.3
				C66.8-9.1,67.1-8.6,67.7-8.5z"/>
		</g>
		<g>
			
				<rect x="64.1" y="-7.3" transform="matrix(0.1115 -0.9938 0.9938 0.1115 63.1969 59.3959)" class="st4" width="1.4" height="3.3"/>
			<path class="st4" d="M67-3.6l0.4,0c0.5,0,1-0.3,1.1-0.8l0.2-2.3c0-0.5-0.3-1-0.8-1.1l-0.4,0c-0.5,0-1,0.3-1.1,0.8l-0.2,2.3
				C66.1-4.1,66.5-3.6,67-3.6z"/>
		</g>
		<path class="st8" d="M39.5,86.9c0.4-0.4,14.9-89,14.9-89L50-8.7"/>
		<polyline class="st8" points="42.8,87.2 55.7,-2.3 50.9,-13.6 		"/>
		<path class="st8" d="M44.9,87.6C45,87.2,56.7-2.2,56.7-2.2L52-19.2"/>
		<path class="st8" d="M47.6,87.9c0-0.4,10.2-90.2,10.2-90.2L66-16.3"/>
		<polyline class="st8" points="65.5,-10.7 58.7,-2 50.4,87.5 		"/>
		<path class="st8" d="M54.1,88.3c0-0.7,5.8-90.1,5.8-90.1l4.9-3.8"/>
	</g>
</g>
<polygon class="st9" points="6.3,73.4 6.3,5.3 74.9,73.9 "/>
</svg>
