<?xml version="1.0" encoding="utf-8"?>
<!-- Generator: Adobe Illustrator 22.1.0, SVG Export Plug-In . SVG Version: 6.00 Build 0)  -->
<svg version="1.1" id="Layer_1" xmlns="http://www.w3.org/2000/svg" xmlns:xlink="http://www.w3.org/1999/xlink" x="0px" y="0px"
	 viewBox="0 0 400 400" style="enable-background:new 0 0 400 400;" xml:space="preserve">
<style type="text/css">
	.st0{fill:#60025E;}
	.st1{fill:#FFFFFF;}
	.st2{fill:#E64A45;}
	.st3{fill:#AF152F;}
	.st4{fill:#FCBB31;}
	.st5{fill:#BBBEC3;}
	.st6{fill:#D3D6DB;}
	.st7{fill:#8D939E;}
	.st8{fill:#9CBAE5;}
	.st9{fill:#7B808A;}
</style>
<circle class="st0" cx="200" cy="340.1" r="37.7"/>
<g>
	<path class="st1" d="M197.2,350.6c-0.5-0.6-0.7-1.3-0.7-2.3c0-2.6,0.5-4.8,1.4-6.6c0.9-1.8,2.3-3.8,4.1-5.9
		c1.4-1.7,2.5-3.1,3.1-4.2c0.7-1.1,1-2.4,1-3.8c0-1.6-0.6-2.8-1.7-3.7c-1.2-0.9-2.7-1.4-4.7-1.4c-1.7,0-3.3,0.4-4.9,1.1
		c-1.6,0.7-3.4,1.8-5.5,3.2c-1.2,0.7-2.1,1-2.9,1c-0.8,0-1.5-0.4-2.1-1.1s-0.9-1.6-0.9-2.6c0-1.4,0.6-2.5,1.7-3.3c2-1.7,4.3-3,7-4
		s5.4-1.5,8.1-1.5c2.9,0,5.4,0.5,7.7,1.5c2.2,1,4,2.4,5.2,4.1c1.3,1.7,1.9,3.8,1.9,6c0,2.5-0.6,4.6-1.8,6.4s-2.9,3.9-5.2,6.1
		c-1.9,2-3.4,3.6-4.4,5s-1.6,2.9-1.8,4.6c-0.1,0.8-0.5,1.3-1,1.7c-0.5,0.4-1.1,0.6-1.9,0.6C198.3,351.4,197.7,351.2,197.2,350.6z
		 M195.5,364.8c-1-1-1.5-2.3-1.5-3.8s0.5-2.8,1.5-3.8s2.2-1.5,3.8-1.5c1.5,0,2.8,0.5,3.8,1.5s1.5,2.3,1.5,3.8s-0.5,2.8-1.5,3.8
		s-2.3,1.5-3.7,1.5C197.8,366.3,196.5,365.8,195.5,364.8z"/>
</g>
<g>
	<path class="st1" d="M219.2,278.2c-2.3,0-4.5-0.7-6.4-1.8c-1.9,1.2-4.1,1.8-6.4,1.8h-14.6c-2.2,0-4.3-0.6-6.1-1.6
		c-1.9,1.1-4,1.6-6.2,1.6h-13.5c-7,0-12.6-5.7-12.6-12.6v-0.7c-3.1-1.2-5.7-3.5-7.1-6.6h-59c-3.6,0-6.8-1.9-8.5-4.8
		c-2-1.7-3.4-4.2-3.7-6.8c-0.4-3.2,0.6-6.3,2.8-8.7c2.1-2.2,4.6-4.8,7.3-7.7c21.1-22,60.3-62.9,67.2-90.7v-15.1
		c0-2.9,0.1-5.8,0.3-8.8c-1-1.5-1.6-3.3-1.6-5.2c0-2.6,1.1-4.9,2.9-6.6c4.3-28.5,17.9-55.2,38.3-75.6c0,0,0.1-0.1,0.1-0.1
		c1.8-1.7,4.2-2.7,6.7-2.7s4.9,1,6.7,2.7c0,0,0.1,0.1,0.1,0.1c20.1,20.1,33.4,46.2,37.9,74c3.1,1.4,5.3,4.5,5.3,8.2
		c0,3-1.4,5.6-3.7,7.3c0.1,2.2,0.1,4.5,0.1,6.7v13.7c6,27.9,46.3,69.8,68,92.4c2.6,2.7,4.9,5.1,7,7.3c2.5,2.6,3.5,6.3,2.7,9.7
		c-0.7,2.9-2.5,5.4-5,6.8c-1.9,2.4-4.7,3.8-7.8,3.8h-56.3c-1.6,3.4-4.7,6-8.4,6.9v0.9c0,6.6-5.4,12-12,12H219.2z"/>
	<path class="st1" d="M199.2,30.7c1.2,0,2.4,0.4,3.3,1.3c20.3,20.3,33.3,46.6,37,74.7h0.7c2.2,0,4,1.8,4,4c0,2.2-1.7,3.9-3.9,4
		c0.2,3.3,0.3,6.6,0.3,9.9v14.2c6.6,32.7,56.9,82,76.4,102.6c2.9,3.1,1.5,7.9-2.1,9.2c-0.8,1.6-2.4,2.7-4.4,2.7h-60.2
		c-0.1,4.1-3.5,7.3-7.5,7.3h-2v5.5c0,3.9-3.1,7-7,7h-14.6c-2.8,0-5.3-1.7-6.4-4.1c-1.1,2.4-3.5,4.1-6.4,4.1h-14.6
		c-2.5,0-4.7-1.3-6-3.3c-1.4,2-3.7,3.3-6.3,3.3h-13.5c-4.2,0-7.6-3.5-7.6-7.6v-4.9h-0.7c-4.1,0-7.4-3.3-7.5-7.3H87.3
		c-2.1,0-3.9-1.3-4.6-3.1c-2.9-1.8-3.8-6-1.2-8.8c19.1-20.3,68.2-68.5,75.9-101.2v-15.7c0-3.6,0.1-7.1,0.4-10.6
		c-1.1-0.7-1.8-1.9-1.8-3.3c0-1.7,1-3.1,2.5-3.7c3.8-28.2,16.8-54.7,37.2-75C196.8,31.1,198,30.7,199.2,30.7 M199.2,20.7
		c-3.8,0-7.4,1.4-10.2,4.1c-0.1,0.1-0.1,0.1-0.2,0.2c-20.8,20.7-34.8,47.9-39.5,76.8c-2,2.4-3.2,5.6-3.2,8.9c0,2.3,0.5,4.5,1.5,6.4
		c-0.1,2.5-0.2,5.1-0.2,7.5l0,14.4c-7,26.5-45.2,66.3-65.9,87.8c-2.7,2.8-5.2,5.5-7.4,7.7c-3.3,3.5-4.8,8.1-4.1,12.8
		c0.5,3.7,2.2,7,4.8,9.4c2.7,4.1,7.3,6.6,12.4,6.6h56.2c1.4,1.9,3.1,3.5,5.1,4.7c1.2,8.5,8.6,15.1,17.5,15.1h13.5
		c2.1,0,4.2-0.4,6.2-1.1c1.9,0.7,4,1.1,6.1,1.1h14.6c2.2,0,4.4-0.4,6.4-1.2c2,0.8,4.2,1.2,6.4,1.2h14.6c8.5,0,15.6-6.3,16.8-14.4
		c2.5-1.3,4.7-3.2,6.4-5.4h53.5c4.3,0,8.3-1.9,11.1-5c3.3-2.2,5.6-5.6,6.5-9.5c1.2-5.1-0.3-10.4-3.9-14.3c-2.1-2.2-4.5-4.7-7-7.3
		c-19.7-20.5-60.5-63-66.6-89.5v-13.1c0-1.5,0-3,0-4.5c2.2-2.5,3.6-5.8,3.6-9.4c0-4.6-2.3-8.7-5.7-11.3c-5-28-18.7-54.2-38.9-74.5
		c-0.1-0.1-0.1-0.1-0.2-0.2C206.6,22.1,203,20.7,199.2,20.7L199.2,20.7z"/>
</g>
<g>
	<path class="st2" d="M240.3,136.4c-0.4-2.8-2.8-5-5.6-5l0,0h-5.3h-60.2h-5.2l0,0c-2.9,0-5.2,2.2-5.6,5
		c-4.5,32.6-56.8,83.9-76.7,105c-3.5,3.7-0.8,9.6,4.2,9.6h227.1c5,0,7.6-6,4.2-9.6C297.1,220.3,244.8,169,240.3,136.4z"/>
	<path class="st3" d="M310.6,243.5H87.3c-2.7,0-4.9,2.2-4.9,4.9l0,0c0,2.7,2.2,4.9,4.9,4.9h223.2c2.7,0,4.9-2.2,4.9-4.9l0,0
		C315.5,245.7,313.3,243.5,310.6,243.5z"/>
	<g>
		<circle class="st4" cx="261.1" cy="216" r="10.6"/>
		<polygon class="st1" points="261.2,209.4 263.1,213.4 267.5,214 264.3,217.1 265,221.5 261.2,219.4 257.3,221.5 258,217.1 
			254.9,214 259.2,213.4 		"/>
	</g>
	<g>
		<path class="st5" d="M179.6,273.2h-13.5c-4.2,0-7.6-3.5-7.6-7.6v-21.8c0-4.2,3.5-7.6,7.6-7.6h13.5c4.2,0,7.6,3.5,7.6,7.6v21.8
			C187.2,269.8,183.8,273.2,179.6,273.2z"/>
	</g>
	<g>
		<path class="st5" d="M233.9,273.2h-14.6c-3.9,0-7-3.1-7-7v-22.9c0-3.9,3.1-7,7-7h14.6c3.9,0,7,3.1,7,7v22.9
			C240.9,270.1,237.7,273.2,233.9,273.2z"/>
	</g>
	<g>
		<path class="st6" d="M206.5,273.2h-14.6c-3.9,0-7-3.1-7-7v-22.9c0-3.9,3.1-7,7-7h14.6c3.9,0,7,3.1,7,7v22.9
			C213.5,270.1,210.3,273.2,206.5,273.2z"/>
	</g>
	<path class="st6" d="M202.5,32c-1.9-1.8-4.7-1.8-6.6,0c-24.6,24.5-38.5,57.8-38.4,92.6V248c0,2.5,2.1,4.6,4.6,4.6h74
		c2.5,0,4.6-2.1,4.6-4.6V124.6C240.9,89.9,227.1,56.6,202.5,32z"/>
	<g>
		<path class="st7" d="M199.2,124.6L199.2,124.6c2.5,0,4.6,2.1,4.6,4.6v100c0,2.5-2.1,4.6-4.6,4.6l0,0c-2.5,0-4.6-2.1-4.6-4.6v-100
			C194.5,126.6,196.6,124.6,199.2,124.6z"/>
		<path class="st7" d="M199.2,101.4c-8.9,0-16.2-7.2-16.2-16.2s7.2-16.2,16.2-16.2c8.9,0,16.2,7.2,16.2,16.2
			S208.1,101.4,199.2,101.4z"/>
		<path class="st8" d="M199.2,97.3c-6.7,0-12.1-5.4-12.1-12.1c0-6.7,5.4-12.1,12.1-12.1s12.1,5.4,12.1,12.1
			C211.4,91.8,205.9,97.3,199.2,97.3z"/>
	</g>
	<path class="st7" d="M188.8,245.6h-31.1c-4.1,0-7.5,3.3-7.5,7.5l0,0c0,4.1,3.3,7.5,7.5,7.5h31.1c4.1,0,7.5-3.3,7.5-7.5l0,0
		C196.3,249,192.9,245.6,188.8,245.6z"/>
	<path class="st7" d="M242.9,245.6h-31.1c-4.1,0-7.5,3.3-7.5,7.5l0,0c0,4.1,3.3,7.5,7.5,7.5h31.1c4.1,0,7.5-3.3,7.5-7.5l0,0
		C250.4,249,247.1,245.6,242.9,245.6z"/>
	<path class="st9" d="M215.4,245.6h-31.1c-4.1,0-7.5,3.3-7.5,7.5l0,0c0,4.1,3.3,7.5,7.5,7.5h31.1c4.1,0,7.5-3.3,7.5-7.5l0,0
		C222.8,249,219.4,245.6,215.4,245.6z"/>
	<path class="st5" d="M166,160.5h-8.4v32.6h8.5c2.8,0,5.1-2.3,5.1-5.1v-22.5C171.1,162.8,168.8,160.5,166,160.5z"/>
	<path class="st5" d="M240.3,106.7h-80.1c-2.2,0-4,1.8-4,4l0,0c0,2.2,1.8,4,4,4h80.1c2.2,0,4-1.8,4-4l0,0
		C244.2,108.5,242.5,106.7,240.3,106.7z"/>
</g>
</svg>
