<?xml version="1.0" encoding="utf-8"?>
<!-- Generator: Adobe Illustrator 22.1.0, SVG Export Plug-In . SVG Version: 6.00 Build 0)  -->
<svg version="1.1" id="Layer_1" xmlns="http://www.w3.org/2000/svg" xmlns:xlink="http://www.w3.org/1999/xlink" x="0px" y="0px"
	 viewBox="0 0 80.6 80.6" style="enable-background:new 0 0 80.6 80.6;" xml:space="preserve">
<style type="text/css">
	.st0{fill:#525E69;}
	.st1{fill:#FFFFFF;}
</style>
<g>
	<path class="st0" d="M46.1,76.8c-0.7,0-1.3-0.2-1.9-0.6c-0.5,0.4-1.2,0.6-1.9,0.6h-4.3c-0.6,0-1.3-0.2-1.8-0.6
		c-0.5,0.4-1.2,0.6-1.8,0.6h-4c-1.8,0-3.2-1.5-3.2-3.2V73c-1-0.3-1.9-1-2.2-2H7.5c-0.9,0-1.7-0.5-2.1-1.3c-0.5-0.4-0.9-1.1-1-1.8
		c-0.1-0.8,0.2-1.6,0.7-2.2c0.6-0.7,1.3-1.4,2.1-2.2C13.5,57.1,25,45,27.1,36.7v-4.5c0-0.9,0-1.7,0.1-2.7c-0.3-0.4-0.5-0.9-0.5-1.4
		c0-0.7,0.3-1.3,0.8-1.7c1.2-8.3,5.2-16.1,11.1-22c0.5-0.4,1.1-0.7,1.7-0.7c0.6,0,1.2,0.2,1.7,0.7c5.9,5.9,9.8,13.6,11,21.7
		c0.9,0.3,1.5,1.1,1.5,2.1c0,0.8-0.4,1.5-1.1,1.9c0,0.8,0.1,1.5,0.1,2.2v4c1.7,8.3,13.6,20.7,20,27.4c0.8,0.8,1.4,1.5,2,2.1
		c0.6,0.7,0.9,1.5,0.7,2.4C76,69,75.5,69.6,74.8,70c-0.5,0.6-1.2,1-2,1H56.1c-0.4,1.1-1.4,2-2.6,2.1v0.7c0,1.7-1.4,3.1-3.1,3.1H46.1
		z"/>
	<path class="st1" d="M40.3,4.8c0.3,0,0.7,0.1,1,0.4c5.9,5.9,9.7,13.6,10.8,21.9h0.2c0.6,0,1.2,0.5,1.2,1.2c0,0.6-0.5,1.2-1.1,1.2
		c0.1,1,0.1,1.9,0.1,2.9v4.1c1.9,9.6,16.6,24,22.4,30.1c0.9,0.9,0.4,2.3-0.6,2.7c-0.2,0.5-0.7,0.8-1.3,0.8H55.3c0,1.2-1,2.1-2.2,2.1
		h-0.6v1.6c0,1.1-0.9,2.1-2.1,2.1h-4.3c-0.8,0-1.5-0.5-1.9-1.2c-0.3,0.7-1,1.2-1.9,1.2h-4.3c-0.7,0-1.4-0.4-1.7-1
		c-0.4,0.6-1.1,1-1.8,1h-3.9c-1.2,0-2.2-1-2.2-2.2v-1.4h-0.2c-1.2,0-2.2-1-2.2-2.1H7.5c-0.6,0-1.1-0.4-1.3-0.9
		c-0.8-0.5-1.1-1.7-0.3-2.6c5.6-6,20-20.1,22.2-29.6v-4.6c0-1,0-2.1,0.1-3.1c-0.3-0.2-0.5-0.5-0.5-0.9c0-0.5,0.3-0.9,0.7-1.1
		c1.1-8.3,4.9-16,10.9-21.9C39.6,4.9,39.9,4.8,40.3,4.8 M40.3,2.8c-0.9,0-1.7,0.3-2.3,0.9c0,0,0,0,0,0c-6,6-10,13.9-11.3,22.2
		c-0.6,0.6-0.9,1.4-0.9,2.2c0,0.6,0.2,1.2,0.5,1.6c-0.1,0.9-0.1,1.7-0.1,2.4l0,4.3c-2,8-13.4,19.8-19.5,26.2
		c-0.8,0.8-1.5,1.6-2.1,2.3c-0.8,0.8-1.1,1.9-1,3C3.5,69,4,69.8,4.6,70.4c0.6,1,1.7,1.6,2.9,1.6h17c0.4,0.8,1.1,1.4,1.9,1.7
		c0.1,2.3,1.9,4.1,4.2,4.1h3.9c0.6,0,1.2-0.1,1.8-0.4c0.5,0.3,1.1,0.4,1.8,0.4h4.3c0.7,0,1.3-0.2,1.9-0.5c0.6,0.3,1.2,0.5,1.9,0.5
		h4.3c2.2,0,4-1.7,4-3.9c0.9-0.3,1.7-1,2.2-1.9h16.2c1,0,2-0.5,2.7-1.3c0.8-0.5,1.4-1.3,1.6-2.3c0.3-1.2-0.1-2.4-0.9-3.3
		c-0.6-0.6-1.3-1.3-2-2.1c-6.3-6.6-18-18.7-19.8-26.8v-3.9c0-0.5,0-1.1,0-1.7c0.7-0.6,1.1-1.4,1.1-2.4c0-1.2-0.6-2.2-1.6-2.7
		c-1.4-8.2-5.3-15.8-11.2-21.7c0,0,0,0,0,0C42,3.1,41.1,2.8,40.3,2.8L40.3,2.8z"/>
</g>
</svg>
