<?xml version="1.0" encoding="utf-8"?>
<!-- Generator: Adobe Illustrator 22.1.0, SVG Export Plug-In . SVG Version: 6.00 Build 0)  -->
<svg version="1.1" id="Layer_1" xmlns="http://www.w3.org/2000/svg" xmlns:xlink="http://www.w3.org/1999/xlink" x="0px" y="0px"
	 viewBox="0 0 80.6 80.6" style="enable-background:new 0 0 80.6 80.6;" xml:space="preserve">
<style type="text/css">
	.st0{fill:#525E69;}
	.st1{fill:#FFFFFF;}
</style>
<g>
	<path class="st0" d="M46.1,76.8c-0.7,0-1.3-0.2-1.9-0.6c-0.5,0.4-1.2,0.6-1.9,0.6h-4.3c-0.6,0-1.3-0.2-1.8-0.6
		c-0.5,0.4-1.2,0.6-1.8,0.6h-4c-1.8,0-3.2-1.5-3.2-3.2V73c-1.4-0.4-2.4-1.6-2.4-3.1c0-1.4,0.9-2.6,2.1-3V63H7.5
		c-0.9,0-1.7-0.5-2.1-1.3c-0.5-0.4-0.9-1.1-1-1.8c-0.1-0.8,0.2-1.6,0.7-2.2c0.6-0.7,1.3-1.4,2.1-2.2c6.1-6.4,17.3-18.1,19.7-26.3
		c-0.2-0.3-0.3-0.7-0.3-1c0-0.7,0.3-1.3,0.8-1.7c1.2-8.3,5.2-16.1,11.1-22c0.5-0.4,1.1-0.7,1.7-0.7c0.6,0,1.2,0.2,1.7,0.7
		c5.9,5.9,9.8,13.6,11,21.7c0.9,0.3,1.5,1.1,1.5,2.1c0,0.6-0.2,1.1-0.7,1.5c2.7,8.3,13.7,19.7,19.7,25.9c0.8,0.8,1.4,1.5,2,2.1
		c0.6,0.7,0.9,1.5,0.7,2.4C76,61,75.5,61.6,74.8,62c-0.5,0.6-1.2,1-2,1H53.4v3.5c0,0.1,0,0.2,0,0.3c1.6,0.2,2.8,1.5,2.8,3.2
		c0,1.6-1.2,3-2.8,3.2v0.6c0,1.7-1.4,3.1-3.1,3.1H46.1z"/>
	<path class="st1" d="M40.3,4.8c0.3,0,0.7,0.1,1,0.4c5.9,5.9,9.7,13.6,10.8,21.9h0.2c0.6,0,1.2,0.5,1.2,1.2c0,0.5-0.4,1-0.8,1.1
		c2.6,9.6,16.6,23.3,22.1,29.2c0.9,0.9,0.4,2.3-0.6,2.7c-0.2,0.5-0.7,0.8-1.3,0.8H52.4v4.6c0,0.2,0.1,0.3,0.1,0.5v0.7h0.6
		c1.2,0,2.2,1,2.2,2.2c0,1.2-1,2.2-2.2,2.2h-0.6v1.6c0,1.1-0.9,2.1-2.1,2.1h-4.3c-0.8,0-1.5-0.5-1.9-1.2c-0.3,0.7-1,1.2-1.9,1.2
		h-4.3c-0.7,0-1.4-0.4-1.7-1c-0.4,0.6-1.1,1-1.8,1h-3.9c-1.2,0-2.2-1-2.2-2.2v-1.4h-0.2c-1.2,0-2.2-1-2.2-2.2c0-1.2,1-2.2,2.1-2.2
		V62H7.5c-0.6,0-1.1-0.4-1.3-0.9c-0.8-0.5-1.1-1.7-0.3-2.6C11.4,52.6,25.6,38.6,28,29c-0.2-0.2-0.3-0.5-0.3-0.8
		c0-0.5,0.3-0.9,0.7-1.1c1.1-8.3,4.9-16,10.9-21.9C39.6,4.9,39.9,4.8,40.3,4.8 M40.3,2.8c-0.9,0-1.7,0.3-2.3,0.9c0,0,0,0,0,0
		c-6,6-10,13.9-11.3,22.2c-0.6,0.6-0.9,1.4-0.9,2.2c0,0.4,0.1,0.8,0.2,1.1c-2.5,8-13.4,19.4-19.3,25.6c-0.8,0.8-1.5,1.6-2.1,2.3
		c-0.8,0.8-1.1,1.9-1,3C3.5,61,4,61.8,4.6,62.4c0.6,1,1.7,1.6,2.9,1.6h18.5v2.3c-1.3,0.7-2.1,2.1-2.1,3.7c0,1.7,1,3.1,2.4,3.8
		c0.1,2.3,2,4.1,4.2,4.1h3.9c0.6,0,1.2-0.1,1.8-0.4c0.5,0.3,1.1,0.4,1.8,0.4h4.3c0.7,0,1.3-0.2,1.9-0.5c0.6,0.3,1.2,0.5,1.9,0.5h4.3
		c2.2,0,4-1.7,4-3.9c1.6-0.6,2.8-2.1,2.8-4c0-1.8-1.2-3.4-2.8-4v-2h18.5c1,0,2-0.5,2.7-1.3c0.8-0.5,1.4-1.3,1.6-2.3
		c0.3-1.2-0.1-2.4-0.9-3.3c-0.6-0.6-1.3-1.3-2-2.1c-5.8-6-16.4-17-19.3-25c0.3-0.5,0.5-1.1,0.5-1.7c0-1.2-0.6-2.2-1.6-2.7
		c-1.4-8.2-5.3-15.8-11.2-21.7c0,0,0,0,0,0C42,3.1,41.1,2.8,40.3,2.8L40.3,2.8z"/>
</g>
</svg>
