<?xml version="1.0" encoding="utf-8"?>
<!-- Generator: Adobe Illustrator 22.1.0, SVG Export Plug-In . SVG Version: 6.00 Build 0)  -->
<svg version="1.1" id="Layer_1" xmlns="http://www.w3.org/2000/svg" xmlns:xlink="http://www.w3.org/1999/xlink" x="0px" y="0px"
	 viewBox="0 0 80.6 80.6" style="enable-background:new 0 0 80.6 80.6;" xml:space="preserve">
<style type="text/css">
	.st0{fill:#525E69;}
	.st1{fill:#FFFFFF;}
</style>
<g>
	<path class="st0" d="M247.9,12.3c-1.9,0-3.4-1.5-3.4-3.4c0-1.2,0.6-2.2,1.5-2.8V2.9h-8.8c-0.5,0-1-0.1-1.6-0.2l-4.1,4.1
		c0,0.2,0.1,0.4,0.1,0.7c0,1.9-1.5,3.4-3.4,3.4c-1.9,0-3.4-1.5-3.4-3.4s1.5-3.4,3.4-3.4c0.2,0,0.3,0,0.5,0l3.1-3.1
		c-0.7-0.6-1.3-1.2-1.8-1.9l-2.4-3.7h-10.9c-3.4,0-6.1-2.7-6.1-6.1c0-3.4,2.7-6.1,6.1-6.1h4v-6.6c0-15.2,12.4-27.6,27.6-27.6
		s27.6,12.4,27.6,27.6v6.6h4.1c3.4,0,6.1,2.7,6.1,6.1c0,3.4-2.7,6.1-6.1,6.1h-10.9l-2.4,3.7c-0.5,0.7-1,1.3-1.7,1.8l3.3,3.3
		c0.2,0,0.3,0,0.5,0c1.9,0,3.4,1.5,3.4,3.4s-1.5,3.4-3.4,3.4c-1.9,0-3.4-1.5-3.4-3.4c0-0.2,0-0.4,0.1-0.7l-4.2-4.2
		c-0.6,0.2-1.3,0.2-1.9,0.2h-9.5v3.3c0.9,0.6,1.4,1.7,1.4,2.7C251.3,10.8,249.8,12.3,247.9,12.3z"/>
	<path class="st1" d="M248.3-50c14.7,0,26.6,11.9,26.6,26.6v1.3v6.3h5.1c2.8,0,5.1,2.3,5.1,5.1s-2.3,5.1-5.1,5.1h-11.5l-2.7,4.1
		c-0.6,0.9-1.5,1.6-2.4,2.2l4.5,4.5c0.3-0.1,0.5-0.2,0.8-0.2c1.3,0,2.4,1.1,2.4,2.4s-1.1,2.4-2.4,2.4c-1.3,0-2.4-1.1-2.4-2.4
		c0-0.3,0.1-0.7,0.2-0.9l-5-5c-0.7,0.2-1.4,0.3-2.2,0.3h-10.4v4.9c0.8,0.4,1.4,1.2,1.4,2.2c0,1.3-1.1,2.4-2.4,2.4
		c-1.3,0-2.4-1.1-2.4-2.4c0-1,0.6-1.9,1.5-2.2V1.9h-9.8c-0.6,0-1.3-0.1-1.9-0.2l-4.9,4.9c0.1,0.3,0.2,0.6,0.2,0.9
		c0,1.3-1.1,2.4-2.4,2.4c-1.3,0-2.4-1.1-2.4-2.4s1.1-2.4,2.4-2.4c0.3,0,0.6,0.1,0.8,0.2l4.4-4.4c-1-0.6-1.9-1.4-2.5-2.4l-2.7-4.1
		h-11.5c-2.8,0-5.1-2.3-5.1-5.1c0-2.9,2.3-5.1,5.1-5.1h5v-6.3v-1.3C221.7-38.1,233.6-50,248.3-50 M248.3-52
		c-15.8,0-28.6,12.8-28.6,28.6v1.3v4.3h-3c-4,0-7.1,3.1-7.1,7.1c0,3.9,3.2,7.1,7.1,7.1h10.4l2.1,3.2c0.3,0.5,0.7,1,1.2,1.4l-2.1,2.1
		h-0.1c-2.4,0-4.4,2-4.4,4.4s2,4.4,4.4,4.4c2.4,0,4.4-2,4.4-4.4c0-0.1,0-0.2,0-0.3l3.4-3.4c0.4,0.1,0.8,0.1,1.2,0.1h7.8v1.7
		c-0.9,0.8-1.5,2-1.5,3.3c0,2.4,2,4.4,4.4,4.4c2.4,0,4.4-2,4.4-4.4c0-1.2-0.5-2.4-1.4-3.2V3.9h8.5c0.5,0,1,0,1.6-0.1l3.4,3.4
		c0,0.1,0,0.2,0,0.3c0,2.4,2,4.4,4.4,4.4c2.4,0,4.4-2,4.4-4.4s-2-4.4-4.4-4.4h-0.1l-2.2-2.2c0.4-0.4,0.7-0.8,1-1.2c0,0,0,0,0-0.1
		l2.1-3.2H280c3.9,0,7.1-3.2,7.1-7.1s-3.2-7.1-7.1-7.1h-3.1v-4.3v-1.3C276.9-39.2,264.1-52,248.3-52L248.3-52z"/>
</g>
<g>
	<path class="st0" d="M46.1,76.8c-0.7,0-1.3-0.2-1.9-0.6c-0.5,0.4-1.2,0.6-1.9,0.6h-4.3c-0.6,0-1.3-0.2-1.8-0.6
		c-0.5,0.4-1.2,0.6-1.8,0.6h-4c-1.8,0-3.2-1.5-3.2-3.2V73c-1-0.3-1.9-1-2.2-2H7.5c-1.3,0-2.4-1.1-2.4-2.4c0-0.1,0-0.1,0-0.2
		c-0.7-2-1.2-6.3,0-7.6c1.6-1.7,4-3.8,6.5-5.9c6.2-5.3,13.9-11.9,15.5-18.2v-4.4c0-0.9,0-1.9,0-2.8c-0.3-0.4-0.4-0.8-0.4-1.2
		c0-0.5,0.2-0.9,0.4-1.3c0.2-9.2,1.6-16.6,7.5-22.5c0.3-0.3,0.7-0.7,5.7-0.7c4.9,0,5.4,0.4,5.7,0.7c6.1,6.1,7.3,14.1,7.5,21.9
		c0.6,0.4,1.1,1.1,1.1,1.9c0,0.8-0.4,1.4-1,1.8c0,0.7,0,1.5,0,2.3v4c1.4,6.4,9.3,13.2,15.6,18.6c2.5,2.1,4.8,4.1,6.4,5.9
		c1.3,1.4,0.7,6.3-0.2,8.2c-0.2,1.2-1.2,2-2.4,2H56.1c-0.4,1.1-1.4,2-2.6,2.1v0.7c0,1.7-1.4,3.1-3.1,3.1H46.1z"/>
	<path class="st1" d="M40.3,4.8c2.3,0,4.7,0.1,5,0.4c6,6,7,13.6,7.2,21.9c0.6,0.1,1.1,0.5,1.1,1.1c0,0.6-0.5,1.1-1,1.1
		c0,1,0,2,0,2.9v4.1c1.9,9.3,16.6,19,22.4,25.1c0.8,0.9,0.5,5.5-0.5,7.2c-0.1,0.7-0.7,1.3-1.4,1.3H55.3c0,1.2-1,2.1-2.2,2.1h-0.6
		v1.6c0,1.1-0.9,2.1-2.1,2.1h-4.3c-0.8,0-1.5-0.5-1.9-1.2c-0.3,0.7-1,1.2-1.9,1.2h-4.3c-0.7,0-1.4-0.4-1.7-1c-0.4,0.6-1.1,1-1.8,1
		h-3.9c-1.2,0-2.2-1-2.2-2.2v-1.4h-0.2c-1.2,0-2.2-1-2.2-2.1H7.5c-0.8,0-1.4-0.6-1.4-1.4c0-0.1,0-0.2,0-0.3c-0.8-1.9-1-6-0.3-6.8
		c5.6-6,20-15.4,22.2-24.7v-4.5c0-1.1,0-2.1,0-3.2c-0.2-0.2-0.4-0.5-0.4-0.9c0-0.4,0.2-0.7,0.4-0.9c0.2-8.3,1.2-16.2,7.2-22.1
		C35.6,4.9,37.9,4.8,40.3,4.8 M40.3,2.8c-5.3,0-5.9,0.5-6.3,0.9c0,0,0,0,0,0c-6.4,6.4-7.6,14.7-7.8,22.9c-0.3,0.5-0.4,1-0.4,1.6
		c0,0.5,0.1,1.1,0.4,1.5c0,0.8,0,1.7,0,2.6l0,4.3C24.5,42.5,17,49,10.9,54.2c-2.5,2.2-4.9,4.2-6.5,6c-1.6,1.7-1,6.2-0.3,8.4
		c0,0,0,0,0,0c0,1.9,1.5,3.4,3.4,3.4h17c0.4,0.8,1.1,1.4,1.9,1.7c0.1,2.3,1.9,4.1,4.2,4.1h3.9c0.6,0,1.2-0.1,1.8-0.4
		c0.5,0.3,1.1,0.4,1.8,0.4h4.3c0.7,0,1.3-0.2,1.9-0.5c0.6,0.3,1.2,0.5,1.9,0.5h4.3c2.2,0,4-1.7,4-3.9c0.9-0.3,1.7-1,2.2-1.9h16.2
		c1.6,0,3-1.1,3.4-2.7c0.7-1.6,0.9-3.7,1-4.4c0.2-3.5-0.7-4.5-1-4.8c-1.7-1.8-4-3.8-6.5-5.9c-6.2-5.3-13.9-11.9-15.3-18v-3.9
		c0-0.6,0-1.2,0-1.7c0.6-0.6,1-1.4,1-2.3c0-0.9-0.4-1.8-1.1-2.4C54.1,18,52.9,10,46.6,3.8c0,0,0,0,0,0C46.1,3.3,45.6,2.8,40.3,2.8
		L40.3,2.8z"/>
</g>
</svg>
