<?xml version="1.0" encoding="utf-8"?>
<!-- Generator: Adobe Illustrator 22.1.0, SVG Export Plug-In . SVG Version: 6.00 Build 0)  -->
<svg version="1.1" id="Layer_1" xmlns="http://www.w3.org/2000/svg" xmlns:xlink="http://www.w3.org/1999/xlink" x="0px" y="0px"
	 viewBox="0 0 187.3 243.3" style="enable-background:new 0 0 187.3 243.3;" xml:space="preserve">
<style type="text/css">
	.st0{fill:#9FF1F7;}
	.st1{fill:#A5D73C;}
	.st2{fill:none;stroke:#FFFFFF;stroke-width:4.3349;stroke-miterlimit:10;}
	.st3{fill:#C44412;}
	.st4{fill:#F05D2C;}
</style>
<g>
	<rect x="1.9" y="2.1" class="st0" width="183.5" height="239.1"/>
	<rect x="1.9" y="171" class="st1" width="183.5" height="70.2"/>
</g>
<g>
	<rect x="1.9" y="1.1" class="st2" width="183.5" height="239.1"/>
</g>
<g>
	<path class="st3" d="M67.8,190.8h51.8c2,0,3.6-1.6,3.6-3.6l0,0c0-2-1.6-3.6-3.6-3.6H67.8c-2,0-3.6,1.6-3.6,3.6l0,0
		C64.1,189.1,65.8,190.8,67.8,190.8z"/>
	<path class="st4" d="M93.6,190.8h25.7l-10,35.5c-0.6,2.1-2.5,3.5-4.7,3.5h-11H81.9c-1.8,0-3.4-1.2-3.9-2.9l-10.1-36.1L93.6,190.8
		L93.6,190.8z"/>
</g>
</svg>
