<?xml version="1.0" encoding="utf-8"?>
<!-- Generator: Adobe Illustrator 22.1.0, SVG Export Plug-In . SVG Version: 6.00 Build 0)  -->
<svg version="1.1" id="Layer_1" xmlns="http://www.w3.org/2000/svg" xmlns:xlink="http://www.w3.org/1999/xlink" x="0px" y="0px"
	 viewBox="0 0 187.3 243.3" style="enable-background:new 0 0 187.3 243.3;" xml:space="preserve">
<style type="text/css">
	.st0{fill:#9FF1F7;}
	.st1{fill:#A5D73C;}
	.st2{fill:none;stroke:#FFFFFF;stroke-width:4.3349;stroke-miterlimit:10;}
	.st3{fill:#E6E6E6;stroke:#CECECE;stroke-width:1.007;stroke-miterlimit:10;}
	.st4{fill:#FF5A00;}
	.st5{fill:#C44412;}
	.st6{fill:#603820;}
	.st7{fill:#F05D2C;}
</style>
<g>
	<rect x="1.9" y="2.1" class="st0" width="183.5" height="239.1"/>
	<rect x="1.9" y="171" class="st1" width="183.5" height="70.2"/>
</g>
<g>
	<rect x="1.9" y="1.1" class="st2" width="183.5" height="239.1"/>
</g>
<g>
	
		<rect x="89.8" y="131.9" transform="matrix(0.4333 -0.9012 0.9012 0.4333 -54.3123 186.0592)" class="st3" width="61.9" height="8.6"/>
</g>
<g>
	<path class="st4" d="M109.7,168.6c-0.8,0-1.5-0.2-2.2-0.5l-4.4-2.1c-2.7-1.2-3.8-4.4-2.6-7.1c0.9-1.9,2.8-3.1,4.8-3.1
		c0.8,0,1.5,0.2,2.2,0.5l4.4,2.1c1.3,0.6,2.3,1.7,2.7,3c0.5,1.3,0.4,2.8-0.2,4.1C113.7,167.4,111.8,168.6,109.7,168.6L109.7,168.6z"
		/>
	<path class="st5" d="M105.3,156.4c0.7,0,1.4,0.2,2,0.5l4.4,2.1c2.4,1.1,3.5,4,2.3,6.4c-0.8,1.7-2.5,2.8-4.4,2.8
		c-0.7,0-1.4-0.2-2-0.5l-4.4-2.1c-2.4-1.1-3.5-4-2.3-6.4C101.7,157.5,103.4,156.4,105.3,156.4 M105.3,155.4c-2.2,0-4.3,1.2-5.3,3.4
		l0,0c-1.4,2.9-0.1,6.4,2.8,7.8l4.4,2.1c0.8,0.4,1.6,0.5,2.5,0.5c2.2,0,4.3-1.2,5.3-3.4l0,0c1.4-2.9,0.1-6.4-2.8-7.8l-4.4-2.1
		C107,155.6,106.1,155.4,105.3,155.4L105.3,155.4z"/>
</g>
<path class="st3" d="M87.8,160c1.4-2.9,4.9-4.2,7.8-2.8l23.6,11.1c2.9,1.4,4.2,4.9,2.8,7.8l-7.1,15.2c0,0.1-0.1,0.2-0.2,0.3
	c-0.1,0.2-0.1,0.3-0.2,0.5c-3.9,8.4-14.8,11.6-24.2,7.1c-9.5-4.4-13.9-14.8-10-23.2c0.1-0.2,0.2-0.3,0.3-0.5c0-0.1,0.1-0.2,0.1-0.3
	L87.8,160z"/>
<g>
	<circle class="st6" cx="91.4" cy="183.6" r="15.4"/>
</g>
<g>
	<circle class="st6" cx="106.5" cy="184.5" r="12.1"/>
</g>
<g>
	<circle class="st6" cx="75.5" cy="184.8" r="9.5"/>
</g>
<g>
	<path class="st4" d="M140.7,111.3c-2.2,0-4.4-0.5-6.4-1.3c-7.9-3.5-11.6-12.6-8.4-20.5l2.7,1.2c-2.5,6.5,0.5,13.9,6.9,16.7
		c1.7,0.7,3.4,1.1,5.2,1.1l0,0c5,0,9.5-2.9,11.7-7.3l2.7,1.2C152.5,107.8,146.9,111.3,140.7,111.3L140.7,111.3z"/>
	<path class="st5" d="M126.2,90.1l1.8,0.8c-2.3,6.6,0.8,14,7.3,16.9c1.7,0.8,3.6,1.1,5.4,1.1c5,0,9.6-2.8,11.9-7.2l1.8,0.8
		c-2.6,5.1-7.9,8.3-13.7,8.3c-2.1,0-4.2-0.4-6.2-1.3C127.1,106.3,123.5,97.7,126.2,90.1 M125.6,88.8c-3.6,8.3,0.2,18,8.5,21.7
		c2.2,0.9,4.4,1.4,6.6,1.4c6.3,0,12.4-3.7,15.1-9.8l-3.6-1.6c-2.1,4.7-6.7,7.5-11.5,7.5c-1.7,0-3.4-0.3-5-1.1
		c-6.3-2.8-9.2-10.1-6.5-16.5L125.6,88.8L125.6,88.8z"/>
</g>
<g>
	<path class="st4" d="M156.7,103.8c-0.7,0-1.4-0.2-2-0.5L126,89.5c-1.1-0.5-2-1.5-2.4-2.7c-0.4-1.2-0.3-2.5,0.2-3.6
		c0.8-1.6,2.5-2.7,4.3-2.7c0.7,0,1.4,0.2,2,0.5l28.7,13.8c2.3,1.1,3.3,3.9,2.2,6.3C160.2,102.7,158.5,103.8,156.7,103.8L156.7,103.8
		z"/>
	<path class="st5" d="M128.1,81c0.6,0,1.2,0.1,1.8,0.4l28.7,13.8c2.1,1,3,3.5,2,5.6c-0.7,1.4-2.2,2.4-3.8,2.4
		c-0.6,0-1.2-0.1-1.8-0.4L126.3,89c-2.1-1-3-3.5-2-5.6C125,82,126.5,81,128.1,81 M128.1,80c-1.9,0-3.8,1.1-4.7,3l0,0
		c-1.2,2.6-0.1,5.7,2.4,7l28.7,13.8c0.7,0.3,1.5,0.5,2.2,0.5c1.9,0,3.8-1.1,4.7-3l0,0c1.2-2.6,0.1-5.7-2.4-7l-28.7-13.8
		C129.6,80.2,128.8,80,128.1,80L128.1,80z"/>
</g>
<g>
	<path class="st5" d="M67.8,190.8h51.8c2,0,3.6-1.6,3.6-3.6l0,0c0-2-1.6-3.6-3.6-3.6H67.8c-2,0-3.6,1.6-3.6,3.6l0,0
		C64.1,189.1,65.8,190.8,67.8,190.8z"/>
	<path class="st7" d="M93.6,190.8h25.7l-10,35.5c-0.6,2.1-2.5,3.5-4.7,3.5h-11H81.9c-1.8,0-3.4-1.2-3.9-2.9l-10.1-36.1L93.6,190.8
		L93.6,190.8z"/>
</g>
</svg>
