<?xml version="1.0" encoding="utf-8"?>
<!-- Generator: Adobe Illustrator 22.1.0, SVG Export Plug-In . SVG Version: 6.00 Build 0)  -->
<svg version="1.1" id="Layer_1" xmlns="http://www.w3.org/2000/svg" xmlns:xlink="http://www.w3.org/1999/xlink" x="0px" y="0px"
	 viewBox="0 0 187.3 243.3" style="enable-background:new 0 0 187.3 243.3;" xml:space="preserve">
<style type="text/css">
	.st0{fill:#9FF1F7;}
	.st1{fill:#A5D73C;}
	.st2{fill:none;stroke:#FFFFFF;stroke-width:4.3349;stroke-miterlimit:10;}
	.st3{fill:#603820;}
	.st4{fill:#41210D;}
	.st5{fill:none;stroke:#41210D;stroke-width:1.007;stroke-miterlimit:10;}
	.st6{fill:#C44412;}
	.st7{fill:#F05D2C;}
</style>
<g>
	<rect x="1.9" y="2.1" class="st0" width="183.5" height="239.1"/>
	<rect x="1.9" y="171" class="st1" width="183.5" height="70.2"/>
</g>
<g>
	<rect x="1.9" y="1.1" class="st2" width="183.5" height="239.1"/>
</g>
<g>
	<g>
		<circle class="st3" cx="91.4" cy="190.6" r="15.4"/>
	</g>
	<g>
		<circle class="st3" cx="106.5" cy="191.5" r="12.1"/>
	</g>
	<g>
		<g>
			<path class="st4" d="M80.1,132.2c-0.7,0-1.6-0.3-2.3-0.9c-1.3-1-1.8-2.6-1.1-3.5c0.3-0.4,0.8-0.6,1.4-0.6c0.7,0,1.6,0.3,2.3,0.9
				c0.7,0.5,1.1,1.2,1.3,1.9c0.2,0.6,0.1,1.2-0.2,1.6C81.2,132,80.7,132.2,80.1,132.2z"/>
			<path class="st4" d="M78.1,127.7L78.1,127.7c0.6,0,1.3,0.3,1.9,0.7c1.2,0.9,1.5,2.2,1,2.8c-0.3,0.4-0.8,0.4-1,0.4
				c-0.6,0-1.3-0.3-1.9-0.7s-1-1-1.2-1.6c-0.1-0.3-0.2-0.8,0.1-1.2C77.3,127.8,77.8,127.7,78.1,127.7 M78.1,126.7
				c-0.7,0-1.4,0.3-1.8,0.8c-0.9,1.1-0.3,3,1.2,4.2c0.8,0.6,1.7,1,2.6,1c0.7,0,1.4-0.3,1.8-0.8c0.9-1.1,0.3-3-1.2-4.2
				C79.8,127.1,78.9,126.7,78.1,126.7L78.1,126.7z"/>
		</g>
		<line class="st5" x1="81.9" y1="131.9" x2="76.3" y2="127.5"/>
	</g>
	<g>
		<g>
			<path class="st4" d="M108.4,112.6c-0.2,0-0.4,0-0.6-0.1c-1-0.5-1.3-2.1-0.7-3.6c0.5-1.2,1.6-2.1,2.5-2.1c0.2,0,0.4,0,0.6,0.1
				c1,0.5,1.3,2.1,0.7,3.6C110.5,111.8,109.4,112.6,108.4,112.6z"/>
			<path class="st4" d="M109.8,107.3c0.1,0,0.3,0,0.4,0.1c0.4,0.2,0.6,0.7,0.7,1c0.1,0.6,0,1.3-0.3,2c-0.5,1.2-1.4,1.8-2.1,1.8
				c-0.1,0-0.3,0-0.4-0.1c-0.4-0.2-0.6-0.7-0.7-1c-0.1-0.6,0-1.3,0.3-2C108.2,107.9,109.1,107.3,109.8,107.3 M109.8,106.3
				c-1.1,0-2.4,0.9-3,2.4c-0.8,1.8-0.4,3.7,0.9,4.3c0.3,0.1,0.5,0.2,0.8,0.2c1.1,0,2.4-0.9,3-2.4c0.8-1.8,0.4-3.7-0.9-4.3
				C110.3,106.3,110,106.3,109.8,106.3L109.8,106.3z"/>
		</g>
		<line class="st5" x1="107.7" y1="113" x2="110.5" y2="106.5"/>
	</g>
	<g>
		<g>
			<path class="st4" d="M98.3,90.7c-0.2,0-0.4,0-0.6-0.1c-1-0.5-1.3-2.1-0.7-3.6c0.5-1.2,1.6-2.1,2.5-2.1c0.2,0,0.4,0,0.6,0.1
				c1,0.5,1.3,2.1,0.7,3.6C100.3,89.8,99.3,90.7,98.3,90.7z"/>
			<path class="st4" d="M99.6,85.4c0.1,0,0.3,0,0.4,0.1c0.4,0.2,0.6,0.7,0.7,1c0.1,0.6,0,1.3-0.3,2c-0.5,1.2-1.4,1.8-2.1,1.8
				c-0.1,0-0.3,0-0.4-0.1c-0.4-0.2-0.6-0.7-0.7-1c-0.1-0.6,0-1.3,0.3-2C98,86,99,85.4,99.6,85.4 M99.6,84.4c-1.1,0-2.4,0.9-3,2.4
				c-0.8,1.8-0.4,3.7,0.9,4.3c0.3,0.1,0.5,0.2,0.8,0.2c1.1,0,2.4-0.9,3-2.4c0.8-1.8,0.4-3.7-0.9-4.3C100.2,84.4,99.9,84.4,99.6,84.4
				L99.6,84.4z"/>
		</g>
		<line class="st5" x1="97.5" y1="91" x2="100.4" y2="84.5"/>
	</g>
	<g>
		<g>
			<path class="st4" d="M93.8,67.9c-0.2,0-0.4,0-0.6-0.1c-1-0.5-1.3-2.1-0.7-3.6c0.5-1.2,1.6-2.1,2.5-2.1c0.2,0,0.4,0,0.6,0.1
				c0.5,0.2,0.8,0.7,1,1.3c0.1,0.7,0,1.5-0.3,2.3C95.8,67,94.7,67.9,93.8,67.9z"/>
			<path class="st4" d="M95.1,62.5c0.1,0,0.3,0,0.4,0.1c0.4,0.2,0.6,0.7,0.7,1c0.1,0.6,0,1.3-0.3,2c-0.5,1.2-1.4,1.8-2.1,1.8
				c-0.1,0-0.3,0-0.4-0.1c-0.4-0.2-0.6-0.7-0.7-1c-0.1-0.6,0-1.3,0.3-2C93.5,63.2,94.4,62.5,95.1,62.5 M95.1,61.5
				c-1.1,0-2.4,0.9-3,2.4c-0.8,1.8-0.4,3.7,0.9,4.3c0.3,0.1,0.5,0.2,0.8,0.2c1.1,0,2.4-0.9,3-2.4c0.8-1.8,0.4-3.7-0.9-4.3
				C95.6,61.6,95.3,61.5,95.1,61.5L95.1,61.5z"/>
		</g>
		<line class="st5" x1="93" y1="68.2" x2="95.9" y2="61.7"/>
	</g>
	<g>
		<g>
			<path class="st4" d="M95.9,163.1c-0.1,0-0.2,0-0.3,0c-0.5-0.1-0.9-0.5-1.2-1.1c-0.3-0.7-0.4-1.5-0.2-2.3c0.3-1.5,1.3-2.6,2.3-2.6
				c0.1,0,0.2,0,0.3,0c0.5,0.1,0.9,0.5,1.2,1.1c0.3,0.7,0.4,1.5,0.2,2.3C97.9,161.9,96.9,163.1,95.9,163.1z"/>
			<path class="st4" d="M96.5,157.5L96.5,157.5c0.1,0,0.1,0,0.2,0c0.5,0.1,0.7,0.5,0.9,0.8c0.3,0.6,0.3,1.3,0.2,2
				c-0.3,1.4-1.2,2.2-1.9,2.2c-0.1,0-0.1,0-0.2,0c-0.5-0.1-0.7-0.5-0.9-0.8c-0.3-0.6-0.3-1.3-0.2-2
				C94.9,158.4,95.8,157.5,96.5,157.5 M96.5,156.5c-1.3,0-2.5,1.3-2.8,3c-0.4,1.9,0.5,3.7,1.9,4c0.1,0,0.2,0,0.4,0
				c1.3,0,2.5-1.3,2.8-3c0.4-1.9-0.5-3.7-1.9-4C96.8,156.5,96.6,156.5,96.5,156.5L96.5,156.5z"/>
		</g>
		<line class="st5" x1="95.5" y1="163.5" x2="96.9" y2="156.5"/>
	</g>
	<g>
		<g>
			<path class="st4" d="M83.6,154.7c-0.1,0-0.2,0-0.3,0c-1.1-0.2-1.8-1.8-1.5-3.4c0.3-1.5,1.3-2.6,2.3-2.6c0.1,0,0.2,0,0.3,0
				c1.1,0.2,1.8,1.8,1.5,3.4C85.6,153.5,84.6,154.7,83.6,154.7z"/>
			<path class="st4" d="M84.2,149.1L84.2,149.1c0.1,0,0.1,0,0.2,0c0.5,0.1,0.7,0.5,0.9,0.8c0.3,0.6,0.3,1.3,0.2,2
				c-0.3,1.4-1.2,2.2-1.9,2.2c-0.1,0-0.1,0-0.2,0c-0.5-0.1-0.7-0.5-0.9-0.8c-0.3-0.6-0.3-1.3-0.2-2C82.6,150,83.5,149.1,84.2,149.1
				 M84.2,148.1c-1.3,0-2.5,1.3-2.8,3c-0.4,1.9,0.5,3.7,1.9,4c0.1,0,0.2,0,0.4,0c1.3,0,2.5-1.3,2.8-3c0.4-1.9-0.5-3.7-1.9-4
				C84.4,148.1,84.3,148.1,84.2,148.1L84.2,148.1z"/>
		</g>
		<line class="st5" x1="83.2" y1="155.1" x2="84.5" y2="148.2"/>
	</g>
	<g>
		<path class="st6" d="M67.8,190.8h51.8c2,0,3.6-1.6,3.6-3.6l0,0c0-2-1.6-3.6-3.6-3.6H67.8c-2,0-3.6,1.6-3.6,3.6l0,0
			C64.1,189.1,65.8,190.8,67.8,190.8z"/>
		<path class="st7" d="M93.6,190.8h25.7l-10,35.5c-0.6,2.1-2.5,3.5-4.7,3.5h-11H81.9c-1.8,0-3.4-1.2-3.9-2.9l-10.1-36.1L93.6,190.8
			L93.6,190.8z"/>
	</g>
</g>
</svg>
