<?xml version="1.0" encoding="utf-8"?>
<!-- Generator: Adobe Illustrator 22.1.0, SVG Export Plug-In . SVG Version: 6.00 Build 0)  -->
<svg version="1.1" id="Layer_1" xmlns="http://www.w3.org/2000/svg" xmlns:xlink="http://www.w3.org/1999/xlink" x="0px" y="0px"
	 viewBox="0 0 187.3 243.3" style="enable-background:new 0 0 187.3 243.3;" xml:space="preserve">
<style type="text/css">
	.st0{fill:#9FF1F7;}
	.st1{fill:#A5D73C;}
	.st2{fill:none;stroke:#FFFFFF;stroke-width:4.3349;stroke-miterlimit:10;}
	.st3{fill:#D3AC09;}
	.st4{fill:#FFCD03;}
	.st5{fill:#7D5622;}
	.st6{fill:none;stroke:#DB9B93;stroke-width:1.2857;stroke-miterlimit:10;}
	.st7{fill:#AA8B03;}
	
		.st8{opacity:0.7;fill:none;stroke:#5DA8DC;stroke-linecap:round;stroke-linejoin:round;stroke-miterlimit:10;enable-background:new    ;}
	.st9{fill:#603820;}
	.st10{fill:#C44412;}
	.st11{fill:#F05D2C;}
</style>
<g>
	<rect x="1.9" y="2.1" class="st0" width="183.5" height="239.1"/>
	<rect x="1.9" y="171" class="st1" width="183.5" height="70.2"/>
</g>
<g>
	<rect x="1.9" y="1.1" class="st2" width="183.5" height="239.1"/>
</g>
<g>
	<g>
		<g>
			<g>
				<polygon class="st3" points="61.3,127.4 83,128 84.3,123.3 67.5,118.8 				"/>
				<path class="st4" d="M25.9,102c4.1-8.3,34.9-23.2,34.9-23.2c0.6-0.6,6.4,3.9,12,9.9s9,12.8,8.3,13.4c0,0-18.2,29.9-27.2,31.9
					C40.8,136.9,20.5,112.9,25.9,102z"/>
				<path class="st5" d="M78.8,101c-0.5,0.5-5.3-3-10.3-8.3c-4.9-5.3-8.2-11.7-7.6-12.2c0.5-0.5,5.6,3.5,10.6,8.7
					C76.4,94.5,79.4,100.5,78.8,101z"/>
			</g>
			<g>
				<path class="st3" d="M24.6,105.5c-1.2,0-2.3-0.8-2.6-2c-0.4-1.5,0.4-3,1.9-3.4c0.9-0.2,1-0.5,1.1-1.2c0.1-1.3-0.3-3.3-0.7-5.5
					c-0.8-3.6-1.7-8.2-0.8-12.6c1.1-5.3,4.8-9.6,10.8-12.6c5.3-2.6,10.1-3,14.4-1c8.1,3.8,10.8,14.6,10.9,15c0.4,1.5-0.5,2.9-2,3.3
					c-1.5,0.4-2.9-0.5-3.3-2c0-0.1-2.2-8.7-8-11.4c-2.7-1.3-5.9-1-9.6,0.9c-10.1,5.1-8.6,12.3-7.2,19.2c0.5,2.6,1.1,5,0.8,7.2
					c-0.3,3-2.1,5.1-5,5.9C25.1,105.5,24.8,105.5,24.6,105.5z"/>
			</g>
			<g>
				<path class="st6" d="M30.3,90.8"/>
			</g>
			<polygon class="st4" points="83,128 83.7,123.3 93.1,118.6 91,135.8 			"/>
			<ellipse transform="matrix(0.121 -0.9927 0.9927 0.121 -45.303 203.1956)" class="st3" cx="92.1" cy="127.2" rx="8.6" ry="2.5"/>
			
				<ellipse transform="matrix(0.121 -0.9927 0.9927 0.121 -44.8829 203.6137)" class="st4" cx="92.5" cy="127.1" rx="6.3" ry="1.8"/>
			<ellipse transform="matrix(0.121 -0.9927 0.9927 0.121 -40.279 200.5789)" class="st7" cx="93.1" cy="123" rx="0.8" ry="0.2"/>
			
				<ellipse transform="matrix(0.121 -0.9927 0.9927 0.121 -41.7871 202.9999)" class="st7" cx="93.7" cy="125.1" rx="0.8" ry="0.2"/>
			
				<ellipse transform="matrix(0.121 -0.9927 0.9927 0.121 -43.8467 201.2028)" class="st7" cx="91.7" cy="125.4" rx="0.8" ry="0.2"/>
			<ellipse transform="matrix(0.121 -0.9927 0.9927 0.121 -47.1516 203.751)" class="st7" cx="91.5" cy="128.5" rx="0.8" ry="0.2"/>
			
				<ellipse transform="matrix(0.121 -0.9927 0.9927 0.121 -45.1969 205.7084)" class="st7" cx="93.6" cy="128.4" rx="0.8" ry="0.2"/>
			<ellipse transform="matrix(0.121 -0.9927 0.9927 0.121 -49.134 206.7454)" class="st7" cx="92.2" cy="131.1" rx="0.8" ry="0.2"/>
			<ellipse transform="matrix(0.121 -0.9927 0.9927 0.121 -44.9071 203.839)" class="st7" cx="92.6" cy="127.3" rx="0.8" ry="0.2"/>
		</g>
		<g>
			<path class="st8" d="M92.4,131.1c0,0,12,17.2,12.2,43.3"/>
			<path class="st8" d="M93.1,123c0,0,13.8,25.1,13.9,51.2"/>
			<path class="st8" d="M93.9,125.1c0,0,14,25.8,14.2,51.9"/>
			<path class="st8" d="M91.7,125.4c0,0,13.8,25.8,14,51.9"/>
			<path class="st8" d="M92.6,127.3c0,0,13.8,25.8,14,51.9"/>
			<path class="st8" d="M91.4,128.5c0,0,11.8,19.9,12,45.9"/>
		</g>
	</g>
	<g>
		<circle class="st9" cx="106.5" cy="191.5" r="12.1"/>
	</g>
	<g>
		<circle class="st9" cx="91.4" cy="190.6" r="15.4"/>
	</g>
	<g>
		<path class="st10" d="M67.8,190.8h51.8c2,0,3.6-1.6,3.6-3.6l0,0c0-2-1.6-3.6-3.6-3.6H67.8c-2,0-3.6,1.6-3.6,3.6l0,0
			C64.1,189.1,65.8,190.8,67.8,190.8z"/>
		<path class="st11" d="M93.6,190.8h25.7l-10,35.5c-0.6,2.1-2.5,3.5-4.7,3.5h-11H81.9c-1.8,0-3.4-1.2-3.9-2.9l-10.1-36.1L93.6,190.8
			L93.6,190.8z"/>
	</g>
</g>
</svg>
