<?xml version="1.0" encoding="utf-8"?>
<!-- Generator: Adobe Illustrator 22.1.0, SVG Export Plug-In . SVG Version: 6.00 Build 0)  -->
<svg version="1.1" id="Layer_1" xmlns="http://www.w3.org/2000/svg" xmlns:xlink="http://www.w3.org/1999/xlink" x="0px" y="0px"
	 viewBox="0 0 187.3 243.3" style="enable-background:new 0 0 187.3 243.3;" xml:space="preserve">
<style type="text/css">
	.st0{fill:#9FF1F7;}
	.st1{fill:#A5D73C;}
	.st2{fill:none;stroke:#FFFFFF;stroke-width:4.3349;stroke-miterlimit:10;}
	.st3{fill:#86B70F;}
	.st4{fill:#603820;}
	.st5{fill:#C44412;}
	.st6{fill:#F05D2C;}
	.st7{fill:#FAB41E;}
	.st8{fill:#FCD110;}
	.st9{fill:#A6664C;}
	.st10{fill:#954D30;}
</style>
<g>
	<rect x="1.9" y="2.1" class="st0" width="183.5" height="239.1"/>
	<rect x="1.9" y="171" class="st1" width="183.5" height="70.2"/>
</g>
<g>
	<rect x="1.9" y="1.1" class="st2" width="183.5" height="239.1"/>
</g>
<path class="st3" d="M92.6,79.2L92.6,79.2c-2.1,0-3.8,1.7-3.8,3.8v105.2c0,2.1,1.7,3.8,3.8,3.8l0,0c2.1,0,3.8-1.7,3.8-3.8V83
	C96.4,80.9,94.7,79.2,92.6,79.2z"/>
<g>
	<circle class="st4" cx="91.4" cy="190.6" r="15.4"/>
</g>
<g>
	<path class="st5" d="M67.8,190.8h51.8c2,0,3.6-1.6,3.6-3.6l0,0c0-2-1.6-3.6-3.6-3.6H67.8c-2,0-3.6,1.6-3.6,3.6l0,0
		C64.1,189.1,65.8,190.8,67.8,190.8z"/>
	<path class="st6" d="M93.6,190.8h25.7l-10,35.5c-0.6,2.1-2.5,3.5-4.7,3.5h-11H81.9c-1.8,0-3.4-1.2-3.9-2.9l-10.1-36.1L93.6,190.8
		L93.6,190.8z"/>
</g>
<g>
	
		<ellipse transform="matrix(0.3875 -0.9219 0.9219 0.3875 -93.8695 170.3261)" class="st3" cx="81.2" cy="155.8" rx="7.4" ry="11.4"/>
</g>
<g>
	
		<ellipse transform="matrix(0.3875 -0.9219 0.9219 0.3875 -67.624 152.9565)" class="st3" cx="81.3" cy="127.4" rx="7.4" ry="11.4"/>
</g>
<g>
	
		<ellipse transform="matrix(0.9258 -0.3779 0.3779 0.9258 -46.8465 50.631)" class="st3" cx="105.6" cy="144.7" rx="11.4" ry="7.4"/>
</g>
<g>
	<g>
		<path class="st7" d="M94.2,49.7c-0.4-0.3-1-0.3-1.4,0c-2.9,2.4-4.5,5.9-4.5,9.7s1.7,7.3,4.5,9.7c0.2,0.2,0.4,0.2,0.7,0.2
			s0.5-0.1,0.7-0.2c2.9-2.4,4.5-5.9,4.5-9.7S97.1,52.1,94.2,49.7z"/>
		<path class="st7" d="M70.6,58.8c-0.5,0-0.9,0.5-1,1c-0.4,3.7,1,7.4,3.6,10c2.4,2.4,5.5,3.7,8.9,3.7c0.4,0,0.8,0,1.2-0.1
			c0.5,0,0.9-0.5,1-1c0.4-3.7-1-7.4-3.6-10C78,59.7,74.4,58.4,70.6,58.8z"/>
		<path class="st7" d="M79.7,83.2c0.3-0.4,0.3-1,0-1.4c-2.4-2.9-5.9-4.5-9.7-4.5c-3.7,0-7.3,1.7-9.7,4.5c-0.3,0.4-0.3,1,0,1.4
			c2.4,2.9,5.9,4.5,9.7,4.5C73.8,87.8,77.3,86.1,79.7,83.2z"/>
		<path class="st7" d="M83,91.7c-3.7-0.4-7.4,1-10,3.6c-2.6,2.6-4,6.3-3.6,10c0,0.5,0.5,0.9,1,1c0.4,0,0.8,0.1,1.2,0.1
			c3.3,0,6.5-1.3,8.9-3.7c2.6-2.6,4-6.3,3.6-10C84,92.2,83.6,91.8,83,91.7z"/>
		<path class="st7" d="M93.8,96.4c-0.4-0.3-1-0.3-1.4,0c-2.9,2.4-4.5,5.9-4.5,9.7s1.7,7.3,4.5,9.7c0.2,0.2,0.4,0.2,0.7,0.2
			s0.5-0.1,0.7-0.2c2.9-2.4,4.5-5.9,4.5-9.7C98.4,102.3,96.7,98.8,93.8,96.4z"/>
		<path class="st7" d="M103.3,92c-0.5,0-0.9,0.5-1,1c-0.4,3.7,1,7.4,3.6,10c2.4,2.4,5.5,3.7,8.9,3.7c0.4,0,0.8,0,1.2-0.1
			c0.5,0,0.9-0.5,1-1c0.4-3.7-1-7.4-3.6-10C110.7,93,107.1,91.7,103.3,92z"/>
		<path class="st7" d="M126.3,82.2c-2.4-2.9-5.9-4.5-9.7-4.5c-3.7,0-7.3,1.7-9.7,4.5c-0.3,0.4-0.3,1,0,1.4c2.4,2.9,5.9,4.5,9.7,4.5
			c3.7,0,7.3-1.7,9.7-4.5C126.6,83.2,126.6,82.6,126.3,82.2z"/>
		<path class="st7" d="M103.6,73.7c0.4,0,0.8,0.1,1.2,0.1c3.3,0,6.5-1.3,8.9-3.7c2.6-2.6,4-6.3,3.6-10c0-0.5-0.5-0.9-1-1
			c-3.7-0.4-7.4,1-10,3.6s-4,6.3-3.6,10C102.7,73.2,103.1,73.7,103.6,73.7z"/>
	</g>
	<g>
		<path class="st8" d="M81.5,51.9c-0.5-0.2-1,0.1-1.3,0.5c-1.8,3.3-1.9,7.2-0.5,10.7s4.3,6.1,7.9,7.2c0.1,0,0.2,0,0.3,0
			c0.4,0,0.8-0.2,1-0.6c1.8-3.3,1.9-7.2,0.5-10.7C88,55.6,85.1,53,81.5,51.9z"/>
		<path class="st8" d="M69.9,78.5c1.5,0.6,3.2,1,4.8,1c2,0,4-0.5,5.9-1.5c0.5-0.2,0.7-0.8,0.5-1.3c-1.1-3.6-3.7-6.5-7.2-7.9
			c-3.5-1.4-7.3-1.2-10.7,0.5c-0.5,0.2-0.7,0.8-0.5,1.3C63.8,74.1,66.4,77,69.9,78.5z"/>
		<path class="st8" d="M80.4,87.1c-3.3-1.8-7.2-1.9-10.7-0.5s-6.1,4.3-7.2,7.9c-0.2,0.5,0.1,1,0.5,1.3c1.8,1,3.8,1.5,5.9,1.5
			c1.6,0,3.3-0.3,4.8-1c3.5-1.4,6.1-4.3,7.2-7.9C81,87.9,80.8,87.4,80.4,87.1z"/>
		<path class="st8" d="M87.3,95c-3.6,1.1-6.5,3.7-7.9,7.2s-1.2,7.3,0.5,10.7c0.2,0.4,0.6,0.6,1,0.6c0.1,0,0.2,0,0.3,0
			c3.6-1.1,6.5-3.7,7.9-7.2s1.2-7.3-0.5-10.7C88.3,95.1,87.8,94.8,87.3,95z"/>
		<path class="st8" d="M99,95.2c-0.5-0.2-1,0.1-1.3,0.5c-1.8,3.3-1.9,7.2-0.5,10.7s4.3,6.1,7.9,7.2c0.1,0,0.2,0,0.3,0
			c0.4,0,0.8-0.2,1-0.6c1.8-3.3,1.9-7.2,0.5-10.7S102.6,96.3,99,95.2z"/>
		<path class="st8" d="M116.8,87c-3.5-1.4-7.3-1.2-10.7,0.5c-0.5,0.2-0.7,0.8-0.5,1.3c1.1,3.6,3.7,6.5,7.2,7.9c1.5,0.6,3.2,1,4.8,1
			c2,0,4-0.5,5.9-1.5c0.5-0.2,0.7-0.8,0.5-1.3C122.9,91.3,120.3,88.4,116.8,87z"/>
		<path class="st8" d="M123.6,69.7c-3.3-1.8-7.2-1.9-10.7-0.5c-3.5,1.4-6.1,4.3-7.2,7.9c-0.2,0.5,0.1,1,0.5,1.3
			c1.8,1,3.8,1.5,5.9,1.5c1.6,0,3.3-0.3,4.8-1c3.5-1.4,6.1-4.3,7.2-7.9C124.3,70.4,124.1,69.9,123.6,69.7z"/>
		<path class="st8" d="M99.1,70.5c0.1,0,0.2,0,0.3,0c3.6-1.1,6.5-3.7,7.9-7.2c1.4-3.5,1.2-7.3-0.5-10.7c-0.2-0.5-0.8-0.7-1.3-0.5
			c-3.6,1.1-6.5,3.7-7.9,7.2s-1.2,7.3,0.5,10.7C98.3,70.3,98.7,70.5,99.1,70.5z"/>
	</g>
	<circle class="st9" cx="93.3" cy="82.7" r="19.1"/>
	<g>
		<circle class="st10" cx="93.3" cy="82.7" r="2.2"/>
		<circle class="st10" cx="93.3" cy="71.8" r="2.2"/>
		<circle class="st10" cx="85.6" cy="75" r="2.2"/>
		<circle class="st10" cx="82.4" cy="82.7" r="2.2"/>
		<circle class="st10" cx="85.6" cy="90.4" r="2.2"/>
		<circle class="st10" cx="93.3" cy="93.6" r="2.2"/>
		<circle class="st10" cx="101" cy="90.4" r="2.2"/>
		<circle class="st10" cx="104.2" cy="82.7" r="2.2"/>
		<circle class="st10" cx="101" cy="75" r="2.2"/>
	</g>
</g>
</svg>
