<?xml version="1.0" encoding="utf-8"?>
<!-- Generator: Adobe Illustrator 22.1.0, SVG Export Plug-In . SVG Version: 6.00 Build 0)  -->
<svg version="1.1" id="Layer_1" xmlns="http://www.w3.org/2000/svg" xmlns:xlink="http://www.w3.org/1999/xlink" x="0px" y="0px"
	 viewBox="0 0 512 512" style="enable-background:new 0 0 512 512;" xml:space="preserve">
<style type="text/css">
	.st0{fill:#556080;}
	.st1{fill:#F24044;}
	.st2{fill:#D1A074;}
	.st3{fill:#C7CAC7;}
	.st4{fill:#725431;}
	.st5{fill:#5E4425;}
	.st6{fill:#490A3D;}
	.st7{fill:#2F0026;}
	.st8{fill:#B3040F;}
	.st9{fill:#FFFFFF;}
	.st10{fill:#CECECE;}
	.st11{fill:#FFFFFF;stroke:#333333;stroke-miterlimit:10;}
	.st12{fill:#FFFFFF;stroke:#490A3D;stroke-miterlimit:10;}
	.st13{fill:#A5D73C;}
	.st14{fill:#69941B;}
	.st15{fill:#2F0026;stroke:#490A3D;stroke-miterlimit:10;}
	.st16{fill:#FC6A6C;}
	.st17{fill:none;stroke:#B3040F;stroke-width:0.5;stroke-miterlimit:10;}
	.st18{fill:none;stroke:#CECECE;stroke-width:2.7925;stroke-miterlimit:10;}
	.st19{fill:#00CDC8;}
	.st20{fill:#137A75;}
	.st21{fill:#1CA49D;stroke:#137A75;stroke-miterlimit:10;}
	.st22{fill:#137A75;stroke:#000000;stroke-width:3.336776e-02;stroke-miterlimit:10;}
	.st23{fill:#1CA49D;}
	.st24{fill:#CECECE;stroke:#170014;stroke-width:0.3611;stroke-miterlimit:10;}
	.st25{fill:#CECECE;stroke:#170014;stroke-width:0.1204;stroke-miterlimit:10;}
	.st26{fill:#CECECE;stroke:#490A3D;stroke-width:0.5591;stroke-miterlimit:10;}
	.st27{fill:#224B6E;stroke:#490A3D;stroke-width:0.3611;stroke-miterlimit:10;}
	.st28{fill:#FF5A00;stroke:#C44412;stroke-width:0.3009;stroke-miterlimit:10;}
	.st29{fill:#490A3D;stroke:#170014;stroke-width:0.2605;stroke-miterlimit:10;}
	.st30{fill:none;stroke:#231F20;stroke-width:3.106049e-03;stroke-miterlimit:10;}
	.st31{fill:none;stroke:#231F20;stroke-width:3.148501e-03;stroke-miterlimit:10;}
	.st32{fill:none;stroke:#231F20;stroke-width:2.941540e-03;stroke-miterlimit:10;}
	.st33{fill:none;stroke:#CECECE;stroke-width:0.3611;stroke-linecap:round;stroke-miterlimit:10;}
	.st34{fill:#FFFFFF;stroke:#CECECE;stroke-width:0.2605;stroke-miterlimit:10;}
	.st35{fill:#FF5A00;}
	.st36{fill:#A5D73C;stroke:#8ABB2A;stroke-width:0.2436;stroke-miterlimit:10;}
	.st37{fill:#FADC3C;}
	.st38{fill:#E7C42A;}
	.st39{fill:#275D68;}
	.st40{fill:#CC2323;}
	.st41{fill:#FF633E;}
	.st42{fill:#E83A3A;}
	.st43{fill:#4F1237;}
	.st44{fill:#330924;}
	.st45{fill:none;stroke:#CC251D;stroke-width:3;stroke-linecap:round;stroke-linejoin:round;stroke-miterlimit:10;}
	.st46{fill:#AA1713;}
	.st47{fill:#6DAFDF;}
	.st48{fill:#5CA3D9;}
	.st49{fill:#D5DCEC;}
	.st50{fill:#231F20;}
	.st51{fill:#E4EAF6;}
	.st52{fill:#C7CFE2;}
	.st53{fill:#5B5D6E;}
	.st54{fill:#959CB3;}
	.st55{fill:#FF9BA9;}
	.st56{fill:#FFDC64;}
	.st57{fill:#FFC850;}
	.st58{fill:#FF8B9B;}
	.st59{fill:#F5B44B;}
	.st60{fill:#E2574C;}
	.st61{fill:#BF392B;}
	.st62{fill:#D9D9D9;}
	.st63{fill:#EFEFEF;}
	.st64{fill:#EC9089;}
	.st65{fill:#EEE0DF;}
	.st66{fill:#CB4E44;}
	.st67{fill:#7FCAC9;}
</style>
<g>
	<g>
		<path class="st0" d="M334.3,138.9c-6.4,0-11.5-5.1-11.5-11.5V73.7c0-3.2-2.6-5.8-5.8-5.8H195c-3.2,0-5.8,2.6-5.8,5.8v53.7
			c0,6.4-5.1,11.5-11.5,11.5s-11.5-5.1-11.5-11.5V73.7c0-15.9,12.9-28.8,28.8-28.8h122c15.9,0,28.8,12.9,28.8,28.8v53.7
			C345.8,133.8,340.6,138.9,334.3,138.9z"/>
	</g>
	<g>
		<path class="st1" d="M467.3,467H44.7C36,467,29,460,29,451.3V119.7c0-8.7,7-15.7,15.7-15.7h422.5c8.7,0,15.7,7,15.7,15.7v331.6
			C483,460,476,467,467.3,467z"/>
	</g>
	<g>
		<path class="st1" d="M91.6,103.9H44.7c-8.7,0-15.7,7-15.7,15.7v331.6c0,8.7,7,15.7,15.7,15.7h46.9V103.9z"/>
	</g>
	<g>
		<path class="st1" d="M467.3,103.9h-46.9V467h46.9c8.7,0,15.7-7,15.7-15.7V119.7C483,111,476,103.9,467.3,103.9z"/>
	</g>
	<rect x="83.8" y="103.9" class="st2" width="15.7" height="363.1"/>
	<rect x="412.6" y="103.9" class="st2" width="15.7" height="363.1"/>
	<rect x="399.3" y="88.6" class="st3" width="40.5" height="15.2"/>
	<rect x="71.4" y="88.6" class="st3" width="40.5" height="15.2"/>
	<path class="st4" d="M450,453.8H62c-6.6,0-12-5.4-12-12v-305c0-6.6,5.4-12,12-12h388c6.6,0,12,5.4,12,12v305
		C462,448.4,456.6,453.8,450,453.8z"/>
	<path class="st5" d="M90,453.8H62c-6.6,0-12-5.4-12-12v-305c0-6.6,5.4-12,12-12h28c6.6,0,12,5.4,12,12v305
		C102,448.4,96.6,453.8,90,453.8z"/>
</g>
<g>
	<g>
		<g>
			<path class="st6" d="M1112.9-174.3c-5.7,0-11.1-0.6-13-1.1c1.6-12.4,14.2-18.7,37.4-18.7c23.2,0,35.8,6.3,37.4,18.7
				c-1.8,0.5-6.9,1-12.8,1c0,0,0,0,0,0c-5.4,0-7.9-0.5-8.7-0.8c-0.8-7.4-7.3-17.7-16-17.7c-8.7,0-15.1,10.3-16,17.7
				C1120.6-174.8,1118.2-174.3,1112.9-174.3z"/>
			<path class="st7" d="M1144.1-192.3c17.2,1.1,26.9,6.4,28.9,15.8c-2.3,0.4-6.5,0.7-11.1,0.7c-3.9,0-6.2-0.3-7.3-0.5
				c-0.6-3.7-2.4-7.7-5-11C1148-189.5,1146.1-191.2,1144.1-192.3 M1130.5-192.3c-2,1.2-3.9,2.9-5.6,5c-2.5,3.3-4.3,7.3-5,11
				c-1.1,0.2-3.3,0.5-7.1,0.5c-4.6,0-8.9-0.4-11.3-0.7C1103.7-186,1113.4-191.3,1130.5-192.3 M1137.3-195.5c-14.6,0-37.4,2.4-39,21
				c-0.1,0.9,7.8,1.8,14.6,1.8c5.2,0,9.8-0.5,9.9-1.8c0.6-6.8,6.7-16.7,14.5-16.7c7.8,0,13.9,9.9,14.5,16.7
				c0.1,1.3,4.8,1.8,10.1,1.8c6.8,0,14.5-0.8,14.4-1.8C1174.8-193.1,1151.9-195.5,1137.3-195.5L1137.3-195.5z"/>
		</g>
		<g>
			<rect x="1036.8" y="21" class="st6" width="21.3" height="2.9"/>
			<polygon class="st7" points="1059.6,19.5 1035.3,19.5 1035.3,25.4 1059.6,25.4 1059.6,19.5 			"/>
		</g>
		<g>
			<rect x="1216.9" y="21" class="st6" width="21.3" height="2.9"/>
			<polygon class="st7" points="1239.8,19.5 1215.5,19.5 1215.5,25.4 1239.8,25.4 1239.8,19.5 			"/>
		</g>
		<g>
			<rect x="1036.8" y="-183.1" class="st6" width="21.3" height="2.9"/>
			<polygon class="st7" points="1059.6,-184.6 1035.3,-184.6 1035.3,-178.7 1059.6,-178.7 1059.6,-184.6 			"/>
		</g>
		<g>
			<rect x="1216.9" y="-183.1" class="st6" width="21.3" height="2.9"/>
			<polygon class="st7" points="1239.8,-184.6 1215.5,-184.6 1215.5,-178.7 1239.8,-178.7 1239.8,-184.6 			"/>
		</g>
	</g>
	<g>
		<rect x="997.6" y="-177.2" class="st1" width="279.9" height="195.2"/>
		<g>
			<path class="st8" d="M1276-175.7V16.5H999.1v-192.2H1276 M1279-178.7H996.1V19.5H1279V-178.7L1279-178.7z"/>
		</g>
	</g>
	<g>
		<rect x="1006.1" y="-171.3" class="st9" width="263" height="183.3"/>
		<path class="st10" d="M1267.5-169.8V10.6h-260v-180.3H1267.5 M1270.5-172.8h-266V13.6h266V-172.8L1270.5-172.8z"/>
	</g>
	<g>
		<path class="st11" d="M1099.4-59.5c7.8-7.8,20.5-7.8,28.3,0l27.9,27.9c7.8,7.8,3.4,24.9-4.4,32.7c-7.8,7.8-16.1,3.4-23.9-4.4
			l-27.9-27.9C1091.6-39,1091.6-51.7,1099.4-59.5z"/>
		<path class="st12" d="M1099.4-31.2c-3.9-3.9-5.9-9-5.9-14.2s2-10.2,5.9-14.2c3.9-3.9,9-5.9,14.2-5.9s10.2,2,14.2,5.9l14,14l14,14
			c3.9,3.9,4.8,10.1,3.7,16.3s-4.1,12.4-8.1,16.4c-3.9,3.9-7.9,4.8-12,3.7s-8.1-4.1-12-8.1L1099.4-31.2z"/>
		<g>
			<path class="st13" d="M1141.2,1.6c-0.9,0-1.8-0.1-2.7-0.4c-3.2-0.9-6.7-3.2-10.7-7.2l-25.5-25.5c-3.4-3.4-5.2-7.8-5.2-12.6
				c0-4.8,1.8-9.2,5.2-12.6c3.4-3.4,7.8-5.2,12.6-5.2s9.2,1.9,12.6,5.2l25.5,25.5c3.2,3.2,4.3,8.3,3.2,14.5
				c-1,5.6-3.7,11.2-7.2,14.7C1146.4,0.4,1143.9,1.6,1141.2,1.6z"/>
			<path class="st14" d="M1114.8-61.4c4.6,0,9,1.8,12.2,5.1l12.8,12.8l12.8,12.8c4.1,4.1,3.7,10.6,3.1,14c-1,5.5-3.7,11-7.1,14.4
				c-2.3,2.3-4.7,3.5-7.3,3.5c-0.8,0-1.7-0.1-2.6-0.4c-3.1-0.9-6.6-3.2-10.5-7.1l-25.5-25.5c-3.3-3.3-5.1-7.6-5.1-12.2
				s1.8-9,5.1-12.2S1110.2-61.4,1114.8-61.4 M1114.8-62.4c-4.7,0-9.4,1.8-12.9,5.4c-3.6,3.6-5.4,8.3-5.4,12.9
				c0,4.7,1.8,9.4,5.4,12.9l25.5,25.5c3.6,3.6,7.3,6.4,10.9,7.4c1,0.3,1.9,0.4,2.9,0.4c2.7,0,5.4-1.1,8.1-3.8
				c3.6-3.6,6.4-9.3,7.4-14.9s0.2-11.4-3.4-14.9l-12.8-12.8L1127.7-57C1124.1-60.6,1119.5-62.4,1114.8-62.4L1114.8-62.4z"/>
		</g>
		<circle class="st15" cx="1114.1" cy="-44.8" r="13.5"/>
		<g>
			<circle class="st15" cx="1132.8" cy="-38.2" r="1.1"/>
			<circle class="st15" cx="1137.4" cy="-33.5" r="1.1"/>
		</g>
		<g>
			<circle class="st15" cx="1121" cy="-26.4" r="1.1"/>
			<circle class="st15" cx="1125.6" cy="-21.7" r="1.1"/>
		</g>
		<g>
			<path class="st13" d="M1116.5-28.3c-1.3,0-2.6-0.5-3.5-1.5s-1.5-2.2-1.5-3.5c0-1.3,0.5-2.6,1.5-3.5l10.2-10.2
				c0.9-0.9,2.2-1.5,3.5-1.5s2.6,0.5,3.5,1.5c1.9,1.9,1.9,5.1,0,7.1L1120-29.8C1119-28.8,1117.8-28.3,1116.5-28.3z"/>
			<path class="st14" d="M1126.7-48c1.2,0,2.3,0.5,3.2,1.3c0.8,0.8,1.3,2,1.3,3.2c0,1.2-0.5,2.3-1.3,3.2l-10.2,10.2
				c-0.8,0.8-2,1.3-3.2,1.3c-1.2,0-2.3-0.5-3.2-1.3c-1.8-1.8-1.8-4.6,0-6.3l10.2-10.2C1124.4-47.6,1125.5-48,1126.7-48 M1126.7-49
				c-1.4,0-2.8,0.5-3.9,1.6l-10.2,10.2c-2.1,2.1-2.1,5.6,0,7.8l0,0c1.1,1.1,2.5,1.6,3.9,1.6c1.4,0,2.8-0.5,3.9-1.6l10.2-10.2
				c2.1-2.1,2.1-5.6,0-7.8C1129.5-48.5,1128.1-49,1126.7-49L1126.7-49z"/>
		</g>
		<line class="st12" x1="1121" y1="-26.4" x2="1133.1" y2="-38.5"/>
		<line class="st12" x1="1125.6" y1="-21.7" x2="1137.8" y2="-33.9"/>
		<path class="st12" d="M1152.2-30.5c0.7-0.7-24.5,24.5-24.5,24.5c3.5,3.5,7.1,6.2,10.6,7.2s7.2,0.2,10.6-3.3
			c3.5-3.5,6.2-9,7.2-14.5c1-5.5,0.2-11-3.3-14.5L1152.2-30.5z"/>
		<polygon class="st12" points="1108.2,-61.2 1098.6,-51.5 1095.9,-56.2 1103.5,-63.9 		"/>
	</g>
	<g>
		<g>
			<path class="st1" d="M1198.5-127.3l-20.7,10c-1.1,0.6-2.2,0.9-3.4,1.1c0.4-0.6,0.7-1.2,0.9-1.9c1.2-3.1,1.2-6.6-0.2-9.7
				c-1.3-3-3.6-5.3-6.5-6.5c0,0,21.9-10.9,21.9-10.9c0.6,3.3,2.9,6.1,6.2,7.4c1.2,0.5,2.4,0.7,3.7,0.7c3.9,0,7.4-2.3,8.7-5.8
				c0.4-0.9,0.6-1.9,0.6-2.9l43.7,16l-8.1,20.7L1198.5-127.3z"/>
			<path class="st8" d="M1210.1-145.1l42.6,15.6l-7.7,19.8l-46.1-17.9l-0.4-0.2l-0.4,0.2l-20.6,9.9c-0.7,0.4-1.4,0.7-2.2,0.8
				c0.2-0.3,0.3-0.7,0.4-1c2.5-6.3-0.2-13.3-6-16.4l20.4-10.2c0.8,3.2,3.1,5.9,6.3,7.1c1.3,0.5,2.6,0.7,3.9,0.7
				c4.1,0,7.7-2.4,9.2-6.1C1209.8-143.5,1210-144.3,1210.1-145.1 M1209.2-146.5c0,1.1-0.1,2.3-0.6,3.4c-1.3,3.4-4.7,5.4-8.3,5.4
				c-1.2,0-2.4-0.2-3.5-0.7c-3.5-1.4-5.8-4.6-6-8c-0.1,0.1-0.2,0.3-0.3,0.4l-22.2,11.1c-0.3,0.2-0.7,0.4-1,0.6
				c0.2,0.1,0.3,0.1,0.5,0.2c6.2,2.5,9.3,9.5,6.9,15.7c-0.4,0.9-0.9,1.8-1.4,2.6c1.6,0,3.1-0.4,4.6-1.2l20.5-9.9l47,18.3l8.4-21.7
				L1209.2-146.5L1209.2-146.5z"/>
		</g>
		<g>
			<g>
				
					<rect x="1240.9" y="-120.4" transform="matrix(0.363 -0.9318 0.9318 0.363 907.9111 1091.2598)" class="st16" width="22.3" height="4"/>
				<path class="st8" d="M1254.5-128.9l2.8,1.1l-7.7,19.9l-2.8-1.1L1254.5-128.9 M1253.9-130.2l-8.5,21.7l4.7,1.8l8.5-21.7
					L1253.9-130.2L1253.9-130.2z"/>
			</g>
			<line class="st17" x1="1250.7" y1="-108.3" x2="1246.2" y2="-110"/>
			<line class="st17" x1="1251.1" y1="-109.4" x2="1246.7" y2="-111.1"/>
			<line class="st17" x1="1251.5" y1="-110.5" x2="1247.1" y2="-112.2"/>
			<line class="st17" x1="1252" y1="-111.6" x2="1247.5" y2="-113.3"/>
			<line class="st17" x1="1252.4" y1="-112.7" x2="1248" y2="-114.4"/>
			<line class="st17" x1="1252.8" y1="-113.8" x2="1248.4" y2="-115.5"/>
			<line class="st17" x1="1253.3" y1="-114.9" x2="1248.8" y2="-116.6"/>
			<line class="st17" x1="1253.7" y1="-116" x2="1249.3" y2="-117.7"/>
			<line class="st17" x1="1254.1" y1="-117.1" x2="1249.7" y2="-118.8"/>
			<line class="st17" x1="1254.6" y1="-118.2" x2="1250.1" y2="-119.9"/>
			<line class="st17" x1="1255" y1="-119.3" x2="1250.6" y2="-121"/>
			<line class="st17" x1="1255.4" y1="-120.4" x2="1251" y2="-122.1"/>
			<line class="st17" x1="1255.9" y1="-121.5" x2="1251.4" y2="-123.2"/>
			<line class="st17" x1="1256.3" y1="-122.6" x2="1251.9" y2="-124.3"/>
			<line class="st17" x1="1256.7" y1="-123.7" x2="1252.3" y2="-125.4"/>
			<line class="st17" x1="1257.1" y1="-124.8" x2="1252.7" y2="-126.5"/>
			<line class="st17" x1="1257.6" y1="-125.9" x2="1253.2" y2="-127.6"/>
			<line class="st17" x1="1258" y1="-127" x2="1253.6" y2="-128.7"/>
		</g>
		<g>
			<path class="st16" d="M1173.7-116.3c-3.1,0-6.4-2.1-8-5.2c-1.5-2.7-1.9-5.7-1.1-8.2c0.7-2.1,2.2-3.8,4.4-4.9
				c6.5,2.6,9.7,9.8,7.3,16.1c-0.2,0.4-0.2,0.7-0.3,1c-0.1,0.3-0.1,0.5-0.3,0.9C1175-116.4,1174.4-116.3,1173.7-116.3L1173.7-116.3z
				"/>
			<path class="st8" d="M1169-133.9c2.9,1.2,5.2,3.4,6.5,6.3c1.3,2.9,1.4,6.1,0.2,9.1c-0.2,0.5-0.3,0.8-0.3,1.1
				c-0.1,0.2-0.1,0.4-0.2,0.5c-0.5,0.1-1,0.2-1.5,0.2c-2.9,0-6-2-7.6-4.9c-1.4-2.6-1.8-5.4-1-7.8
				C1165.7-131.4,1167.1-132.9,1169-133.9 M1168.9-135.1c-5.9,2.8-6.4,8.9-3.7,13.9c1.7,3.1,5.1,5.5,8.5,5.5c0.7,0,1.5-0.1,2.2-0.4
				c0.6-0.8,0.4-1.1,0.8-2.1c2.6-6.6-0.8-14.2-7.6-16.8C1169-135.1,1169.1-135,1168.9-135.1L1168.9-135.1z"/>
		</g>
		<g>
			<path class="st16" d="M1200.8-136c-1.3,0-2.7-0.3-3.9-0.8c-3.7-1.5-6.3-4.9-6.6-8.7c2.2-3.2,5.8-5.2,9.7-5.4c0.1,0,0.2,0,0.4,0
				c4,0,8,2,10.3,5.2c0,1.2-0.2,2.5-0.6,3.6C1208.5-138.3,1204.9-136,1200.8-136C1200.8-136,1200.8-136,1200.8-136z"/>
			<g>
				<path class="st8" d="M1200.3-150.3c3.7,0,7.6,1.9,9.8,4.8c0,1.1-0.2,2.2-0.6,3.3c-1.4,3.5-4.8,5.7-8.7,5.7
					c-1.3,0-2.5-0.2-3.8-0.7c-3.5-1.4-5.9-4.5-6.3-8.1c2.1-3,5.5-4.9,9.2-5C1200-150.3,1200.1-150.3,1200.3-150.3 M1200.3-151.3
					c-0.1,0-0.2,0-0.4,0c-4.3,0.1-8,2.4-10.2,5.7c0.2,4,2.8,7.7,6.9,9.3c1.4,0.5,2.8,0.8,4.1,0.8c4.2,0,8.1-2.4,9.6-6.3
					c0.5-1.3,0.7-2.7,0.7-4C1208.8-149,1204.5-151.3,1200.3-151.3L1200.3-151.3z"/>
			</g>
		</g>
	</g>
	<g>
		<path class="st6" d="M1036.2-8.6c-0.4,0-0.8-0.3-0.8-0.6V-30c0-0.3,0.4-0.6,0.8-0.6h1.7c0.4,0,0.8,0.3,0.8,0.6v13.2h3.5V-30
			c0-0.3,0.4-0.6,0.8-0.6h1.7c0.4,0,0.8,0.3,0.8,0.6v13.2h3.5V-30c0-0.3,0.4-0.6,0.8-0.6h1.7c0.4,0,0.8,0.3,0.8,0.6v13.2h3.5V-30
			c0-0.3,0.4-0.6,0.8-0.6h1.7c0.4,0,0.8,0.3,0.8,0.6v13.2h3.5V-30c0-0.3,0.4-0.6,0.8-0.6h1.7c0.4,0,0.8,0.3,0.8,0.6v13.2h3.5V-30
			c0-0.3,0.4-0.6,0.8-0.6h1.7c0.4,0,0.8,0.3,0.8,0.6v13.2h3.5V-30c0-0.3,0.4-0.6,0.8-0.6h1.7c0.4,0,0.8,0.3,0.8,0.6v13.2h3.5V-30
			c0-0.3,0.4-0.6,0.8-0.6h1.7c0.4,0,0.8,0.3,0.8,0.6v13.2h3.5V-30c0-0.3,0.4-0.6,0.8-0.6h1.7c0.4,0,0.8,0.3,0.8,0.6v20.8
			c0,0.3-0.4,0.6-0.8,0.6H1036.2z"/>
		<path class="st7" d="M1092.5-30.1c0.2,0,0.3,0.1,0.3,0.1v13.8v0.5l0,6.5c0,0-0.1,0.1-0.3,0.1h-56.4c-0.2,0-0.3-0.1-0.3-0.1
			c0,0,0,0,0,0v-6.6v-0.5l0-13.7c0,0,0.1-0.1,0.3-0.1h1.7c0.2,0,0.3,0.1,0.3,0.1v12.7v1h1h2.5h1v-1l0-12.7c0,0,0.1-0.1,0.3-0.1h1.7
			c0.2,0,0.3,0.1,0.3,0.1v12.7v1h1h2.5h1v-1l0-12.7c0,0,0.1-0.1,0.3-0.1h1.7c0.2,0,0.3,0.1,0.3,0.1v12.7v1h1h2.5h1v-1l0-12.7
			c0,0,0.1-0.1,0.3-0.1h1.7c0.2,0,0.3,0.1,0.3,0.1v12.7v1h1h2.5h1v-1l0-12.7c0,0,0.1-0.1,0.3-0.1h1.7c0.2,0,0.3,0.1,0.3,0.1v12.7v1
			h1h2.5h1v-1l0-12.7c0,0,0.1-0.1,0.3-0.1h1.7c0.2,0,0.3,0.1,0.3,0.1v12.7v1h1h2.5h1v-1l0-12.7c0,0,0.1-0.1,0.3-0.1h1.7
			c0.2,0,0.3,0.1,0.3,0.1v12.7v1h1h2.5h1v-1l0-12.7c0,0,0.1-0.1,0.3-0.1h1.7c0.2,0,0.3,0.1,0.3,0.1v12.7v1h1h2.5h1v-1l0-12.7
			c0,0,0.1-0.1,0.3-0.1H1092.5 M1092.5-31.1h-1.7c-0.7,0-1.3,0.5-1.3,1.1v12.7h-2.5V-30c0-0.6-0.6-1.1-1.3-1.1h-1.7
			c-0.7,0-1.3,0.5-1.3,1.1v12.7h-2.5V-30c0-0.6-0.6-1.1-1.3-1.1h-1.7c-0.7,0-1.3,0.5-1.3,1.1v12.7h-2.5V-30c0-0.6-0.6-1.1-1.3-1.1
			h-1.7c-0.7,0-1.3,0.5-1.3,1.1v12.7h-2.5V-30c0-0.6-0.6-1.1-1.3-1.1h-1.7c-0.7,0-1.3,0.5-1.3,1.1v12.7h-2.5V-30
			c0-0.6-0.6-1.1-1.3-1.1h-1.7c-0.7,0-1.3,0.5-1.3,1.1v12.7h-2.5V-30c0-0.6-0.6-1.1-1.3-1.1h-1.7c-0.7,0-1.3,0.5-1.3,1.1v12.7h-2.5
			V-30c0-0.6-0.6-1.1-1.3-1.1h-1.7c-0.7,0-1.3,0.5-1.3,1.1v12.7h-2.5V-30c0-0.6-0.6-1.1-1.3-1.1h-1.7c-0.7,0-1.3,0.5-1.3,1.1v13.8
			v0.5v6.6c0,0.6,0.6,1.1,1.3,1.1h56.4c0.7,0,1.3-0.5,1.3-1.1v-6.6v-0.5V-30C1093.8-30.6,1093.2-31.1,1092.5-31.1L1092.5-31.1z"/>
	</g>
	<polyline class="st18" points="1255.2,-163.7 1016,-163.7 1016,3.5 	"/>
	<g>
		<g>
			<path class="st19" d="M1180.7-3.5c-1.2,0-2.3-1-2.3-2.3v-93.4c0-1.2,1-2.3,2.3-2.3h64.6c1.2,0,2.3,1,2.3,2.3v93.4
				c0,1.2-1,2.3-2.3,2.3H1180.7z"/>
			<path class="st20" d="M1245.3-100.9c1,0,1.8,0.8,1.8,1.8v93.4c0,1-0.8,1.8-1.8,1.8h-64.6c-1,0-1.8-0.8-1.8-1.8v-93.4
				c0-1,0.8-1.8,1.8-1.8H1245.3 M1245.3-101.9h-64.6c-1.5,0-2.8,1.2-2.8,2.8v93.4c0,1.5,1.2,2.8,2.8,2.8h64.6c1.5,0,2.8-1.2,2.8-2.8
				v-93.4C1248.1-100.6,1246.8-101.9,1245.3-101.9L1245.3-101.9z"/>
		</g>
		<circle class="st15" cx="1208.1" cy="-35.1" r="1.6"/>
		<circle class="st15" cx="1208.1" cy="-44.4" r="1.6"/>
		<circle class="st15" cx="1208.1" cy="-53.7" r="1.6"/>
		<circle class="st15" cx="1208.1" cy="-63" r="1.6"/>
		<circle class="st15" cx="1208.1" cy="-72.3" r="1.6"/>
		<polyline class="st21" points="1192,-1.2 1192,-3.3 1234.6,-3.3 1234.6,-1.2 		"/>
		<polygon class="st22" points="1213.4,-21.5 1223.7,-18.5 1234.6,-3.3 1212.8,-3.3 1192,-3.3 1201.9,-18.5 		"/>
		<g>
			<path class="st23" d="M1192.1-2.1c-4.5-14.1,7.1-28.1,9.2-30.6l11.3,11.2L1192.1-2.1z M1214.1-21.5l11.3-11.2
				c2.2,2.5,13.7,16.6,9.2,30.6L1214.1-21.5z"/>
			<path class="st20" d="M1225.3-32c2.7,3.2,12.6,16,9,28.9l-19.5-18.5L1225.3-32 M1201.4-32l10.5,10.4L1192.4-3
				C1188.8-15.9,1198.7-28.7,1201.4-32 M1225.4-33.4l-12,11.9l21.5,20.3C1240.6-17.3,1225.4-33.4,1225.4-33.4L1225.4-33.4z
				 M1201.4-33.4c0,0-15.2,16.1-9.4,32.2l21.5-20.3L1201.4-33.4L1201.4-33.4z"/>
		</g>
		
			<rect x="1207.2" y="-11" transform="matrix(-1 -1.224647e-16 1.224647e-16 -1 2425.6455 -16.7376)" class="st12" width="11.2" height="5.2"/>
		<line class="st21" x1="1213.4" y1="-21.5" x2="1213.4" y2="-77.6"/>
	</g>
	<g>
		<g>
			<path class="st24" d="M1066-75.5L1066-75.5c-0.4-0.2-0.5-0.5-0.3-0.9l1.1-2.2c0.1-0.3,0.5-0.4,0.8-0.3l0,0
				c0.3,0.1,0.4,0.5,0.3,0.8l-1.1,2.2C1066.7-75.5,1066.3-75.4,1066-75.5z"/>
			<line class="st25" x1="1066.9" y1="-78.7" x2="1067.9" y2="-78.2"/>
			<line class="st25" x1="1066.5" y1="-78.2" x2="1067.7" y2="-77.7"/>
			<line class="st25" x1="1066.3" y1="-77.7" x2="1067.4" y2="-77.1"/>
			<line class="st25" x1="1066" y1="-77.2" x2="1067.2" y2="-76.6"/>
			<line class="st25" x1="1065.8" y1="-76.6" x2="1066.9" y2="-76.1"/>
			<line class="st25" x1="1065.6" y1="-76" x2="1066.6" y2="-75.6"/>
		</g>
		<g>
			
				<rect x="1049.2" y="-127.4" transform="matrix(0.9021 0.4316 -0.4316 0.9021 67.5855 -463.2761)" class="st26" width="11.1" height="89.5"/>
			<line class="st27" x1="1042.3" y1="-69.8" x2="1052.4" y2="-65"/>
			<line class="st27" x1="1043.1" y1="-71.3" x2="1053.2" y2="-66.5"/>
			<line class="st27" x1="1043.8" y1="-72.9" x2="1053.9" y2="-68"/>
			<line class="st27" x1="1044.5" y1="-74.4" x2="1054.6" y2="-69.5"/>
			<line class="st27" x1="1045.2" y1="-75.9" x2="1055.4" y2="-71.1"/>
			<line class="st27" x1="1046" y1="-77.4" x2="1056.1" y2="-72.6"/>
			<line class="st27" x1="1046.7" y1="-78.9" x2="1056.8" y2="-74.1"/>
			<line class="st27" x1="1047.4" y1="-80.5" x2="1057.5" y2="-75.6"/>
			<line class="st27" x1="1048.2" y1="-82" x2="1058.3" y2="-77.1"/>
			<line class="st27" x1="1048.9" y1="-83.5" x2="1059" y2="-78.7"/>
			<line class="st27" x1="1049.6" y1="-85" x2="1059.7" y2="-80.2"/>
			<line class="st27" x1="1050.3" y1="-86.6" x2="1060.4" y2="-81.7"/>
			<line class="st27" x1="1051.1" y1="-88.1" x2="1061.2" y2="-83.2"/>
			<line class="st27" x1="1051.8" y1="-89.6" x2="1061.9" y2="-84.8"/>
			<line class="st27" x1="1052.5" y1="-91.1" x2="1062.6" y2="-86.3"/>
			<line class="st27" x1="1053.2" y1="-92.6" x2="1063.4" y2="-87.8"/>
			<line class="st27" x1="1054" y1="-94.2" x2="1064.1" y2="-89.3"/>
			<line class="st27" x1="1054.7" y1="-95.7" x2="1064.8" y2="-90.8"/>
			<line class="st27" x1="1055.4" y1="-97.2" x2="1065.5" y2="-92.4"/>
			<line class="st27" x1="1056.2" y1="-98.7" x2="1066.3" y2="-93.9"/>
			<line class="st27" x1="1056.9" y1="-100.2" x2="1067" y2="-95.4"/>
			<line class="st27" x1="1066.9" y1="-121.2" x2="1077" y2="-116.4"/>
			<line class="st27" x1="1032.3" y1="-48.9" x2="1042.4" y2="-44.1"/>
		</g>
		
			<rect x="1048.5" y="-95.7" transform="matrix(0.9021 0.4316 -0.4316 0.9021 67.5761 -463.2642)" class="st28" width="12.5" height="26.1"/>
		<circle class="st29" cx="1054.6" cy="-82.7" r="12.6"/>
		<g>
			<g>
				<line class="st9" x1="1060" y1="-93.7" x2="1049.4" y2="-71.6"/>
				<line class="st9" x1="1065.6" y1="-77.3" x2="1043.6" y2="-87.9"/>
				<g>
					<line class="st9" x1="1044.5" y1="-75.6" x2="1064.8" y2="-89.5"/>
					<line class="st9" x1="1042.4" y1="-81.7" x2="1066.8" y2="-83.5"/>
				</g>
				<line class="st9" x1="1047.7" y1="-92.7" x2="1061.6" y2="-72.4"/>
				<line class="st9" x1="1053.7" y1="-95.2" x2="1055.6" y2="-70.4"/>
			</g>
			<g>
				<line class="st30" x1="1060" y1="-93.7" x2="1049.4" y2="-71.6"/>
				<line class="st31" x1="1065.6" y1="-77.3" x2="1043.6" y2="-87.9"/>
				<g>
					<line class="st32" x1="1044.5" y1="-75.6" x2="1064.8" y2="-89.5"/>
					<line class="st32" x1="1042.4" y1="-81.7" x2="1066.8" y2="-83.5"/>
				</g>
				<line class="st32" x1="1047.7" y1="-92.7" x2="1061.6" y2="-72.4"/>
				<line class="st32" x1="1053.7" y1="-95.2" x2="1055.6" y2="-70.4"/>
			</g>
			<g>
				<line class="st33" x1="1060" y1="-93.7" x2="1049.4" y2="-71.6"/>
				<line class="st33" x1="1065.6" y1="-77.3" x2="1043.6" y2="-87.9"/>
				<g>
					<line class="st33" x1="1044.5" y1="-75.6" x2="1064.8" y2="-89.5"/>
					<line class="st33" x1="1042.4" y1="-81.7" x2="1066.8" y2="-83.5"/>
				</g>
				<line class="st33" x1="1047.7" y1="-92.7" x2="1061.6" y2="-72.4"/>
				<line class="st33" x1="1053.7" y1="-95.2" x2="1055.6" y2="-70.4"/>
			</g>
		</g>
		<circle class="st34" cx="1054.6" cy="-82.7" r="11.2"/>
		<g>
			<g>
				
					<text transform="matrix(0.9021 0.4315 -0.4315 0.9021 1049.5006 -73.8133)" style="fill:#333333; font-family:'Ubuntu-Bold'; font-size:2.5084px;">6</text>
			</g>
			<g>
				
					<text transform="matrix(0.9021 0.4315 -0.4315 0.9021 1061.0439 -87.3051)" style="fill:#333333; font-family:'Ubuntu-Bold'; font-size:2.5084px;">1</text>
				
					<text transform="matrix(0.9021 0.4315 -0.4315 0.9021 1063.1088 -82.8683)" style="fill:#333333; font-family:'Ubuntu-Bold'; font-size:2.5084px;">2</text>
				
					<text transform="matrix(0.9021 0.4315 -0.4315 0.9021 1062.2562 -78.2596)" style="fill:#333333; font-family:'Ubuntu-Bold'; font-size:2.5084px;">3</text>
				<g>
					
						<text transform="matrix(0.9021 0.4315 -0.4315 0.9021 1058.7273 -74.7277)" style="fill:#333333; font-family:'Ubuntu-Bold'; font-size:2.5084px;">4</text>
				</g>
				<g>
					
						<text transform="matrix(0.9021 0.4315 -0.4315 0.9021 1054.5052 -72.7972)" style="fill:#333333; font-family:'Ubuntu-Bold'; font-size:2.5084px;">5</text>
				</g>
				<g>
					
						<text transform="matrix(0.9021 0.4315 -0.4315 0.9021 1046.3727 -76.992)" style="fill:#333333; font-family:'Ubuntu-Bold'; font-size:2.5084px;">7</text>
				</g>
				<g>
					
						<text transform="matrix(0.9021 0.4315 -0.4315 0.9021 1044.5704 -81.5002)" style="fill:#333333; font-family:'Ubuntu-Bold'; font-size:2.5084px;">8</text>
				</g>
				<g>
					
						<text transform="matrix(0.9021 0.4315 -0.4315 0.9021 1045.4957 -86.2766)" style="fill:#333333; font-family:'Ubuntu-Bold'; font-size:2.5084px;">9</text>
				</g>
				<g>
					
						<text transform="matrix(0.9021 0.4315 -0.4315 0.9021 1047.9281 -89.6932)" style="fill:#333333; font-family:'Ubuntu-Bold'; font-size:2.5084px;">10</text>
				</g>
				<g>
					
						<text transform="matrix(0.9021 0.4315 -0.4315 0.9021 1052.2073 -91.5325)" style="fill:#333333; font-family:'Ubuntu-Bold'; font-size:2.5084px;">11</text>
				</g>
				<g>
					
						<text transform="matrix(0.9021 0.4315 -0.4315 0.9021 1056.7936 -91.181)" style="fill:#333333; font-family:'Ubuntu-Bold'; font-size:2.5084px;">12</text>
				</g>
			</g>
		</g>
		<polygon class="st19" points="1058.2,-87.8 1058.1,-89.8 1056.4,-88.7 1057.2,-88.3 1054.5,-82.7 1054.8,-82.5 1057.5,-88.2 		"/>
		<polygon class="st35" points="1052.5,-78.2 1053.9,-79.1 1053.2,-79.5 1054.9,-82.8 1054.6,-82.9 1053,-79.6 1052.4,-79.9 		"/>
		<circle class="st36" cx="1054.6" cy="-82.6" r="0.8"/>
	</g>
</g>
<g>
	<g>
		<g>
			<path class="st6" d="M1113.7,168.6c-5.9,0-11.2-0.6-13-1.1c1.6-12.4,14.2-18.7,37.4-18.7c23.2,0,35.8,6.3,37.4,18.7
				c-1.8,0.5-6.9,1-12.8,1c0,0,0,0,0,0c-5.4,0-7.9-0.5-8.7-0.8c-0.8-7.4-7.3-17.7-16-17.7c-8.7,0-15.1,10.3-16,17.7
				C1121.3,168.1,1118.9,168.6,1113.7,168.6z"/>
			<path class="st7" d="M1144.9,150.5c17.2,1.1,26.9,6.4,28.9,15.8c-2.3,0.4-6.5,0.7-11.1,0.7c-3.9,0-6.2-0.3-7.3-0.5
				c-0.6-3.7-2.4-7.7-5-11C1148.7,153.4,1146.9,151.7,1144.9,150.5 M1131.3,150.5c-2,1.2-3.9,2.9-5.6,5c-2.5,3.3-4.3,7.3-5,11
				c-1.1,0.2-3.3,0.5-7.1,0.5c-4.6,0-8.9-0.4-11.3-0.7C1104.4,156.9,1114.1,151.6,1131.3,150.5 M1138.1,147.3
				c-14.6,0-37.4,2.4-39,21c-0.1,0.9,7.8,1.8,14.6,1.8c5.2,0,9.8-0.5,9.9-1.8c0.6-6.8,6.7-16.7,14.5-16.7c7.8,0,13.9,9.9,14.5,16.7
				c0.1,1.3,4.8,1.8,10.1,1.8c6.8,0,14.5-0.8,14.4-1.8C1175.5,149.8,1152.7,147.3,1138.1,147.3L1138.1,147.3z"/>
		</g>
		<g>
			<rect x="1037.5" y="363.9" class="st6" width="21.3" height="2.9"/>
			<polygon class="st7" points="1060.3,362.4 1036,362.4 1036,368.3 1060.3,368.3 1060.3,362.4 			"/>
		</g>
		<g>
			<rect x="1217.7" y="363.9" class="st6" width="21.3" height="2.9"/>
			<polygon class="st7" points="1240.5,362.4 1216.2,362.4 1216.2,368.3 1240.5,368.3 1240.5,362.4 			"/>
		</g>
		<g>
			<rect x="1037.5" y="159.8" class="st6" width="21.3" height="2.9"/>
			<polygon class="st7" points="1060.3,158.3 1036,158.3 1036,164.2 1060.3,164.2 1060.3,158.3 			"/>
		</g>
		<g>
			<rect x="1217.7" y="159.8" class="st6" width="21.3" height="2.9"/>
			<polygon class="st7" points="1240.5,158.3 1216.2,158.3 1216.2,164.2 1240.5,164.2 1240.5,158.3 			"/>
		</g>
	</g>
	<g>
		<rect x="998.3" y="165.7" class="st37" width="279.8" height="195.2"/>
		<g>
			<path class="st38" d="M1276.7,167.2v192.1H999.9V167.2H1276.7 M1279.7,164.2H996.8v198.2h282.9V164.2L1279.7,164.2z"/>
		</g>
	</g>
	<g>
		<rect x="1006.8" y="171.6" class="st9" width="263" height="183.3"/>
		<path class="st10" d="M1268.2,173.1v180.3h-260V173.1H1268.2 M1271.2,170.1h-266v186.3h266V170.1L1271.2,170.1z"/>
	</g>
	<g>
		<path class="st11" d="M1231.3,342.5c-11.1,0-20-9-20-20V283c0-11.1,15.2-20,26.2-20s13.8,9,13.8,20v39.5
			C1251.3,333.6,1242.4,342.5,1231.3,342.5z"/>
		<path class="st12" d="M1251.3,322.5c0,5.5-2.2,10.5-5.9,14.2c-3.6,3.6-8.6,5.9-14.2,5.9c-5.5,0-10.5-2.2-14.2-5.9
			c-3.6-3.6-5.9-8.6-5.9-14.2v-19.7V283c0-5.5,3.8-10.5,9-14.2c5.2-3.6,11.7-5.9,17.3-5.9s9,2.2,11.1,5.9c2.1,3.6,2.8,8.6,2.8,14.2
			V322.5z"/>
		<g>
			<path class="st13" d="M1231.3,338.6c-4.8,0-9.2-1.9-12.6-5.2c-3.4-3.4-5.2-7.8-5.2-12.6v-36.1c0-4.5,2.8-8.9,8-12.5
				c4.6-3.2,10.6-5.3,15.5-5.3c4.5,0,7.7,1.7,9.7,5.1c1.7,2.9,2.5,7,2.5,12.7v36.1c0,4.8-1.8,9.2-5.2,12.6S1236,338.6,1231.3,338.6z
				"/>
			<path class="st14" d="M1237,267.5c4.3,0,7.4,1.6,9.2,4.9c1.6,2.8,2.4,6.9,2.4,12.4v36.1c0,4.6-1.8,9-5.1,12.2s-7.6,5.1-12.2,5.1
				c-4.6,0-9-1.8-12.2-5.1c-3.3-3.3-5.1-7.6-5.1-12.2v-18v-18c0-5.8,4.9-10.1,7.8-12.1C1226.3,269.4,1232.1,267.5,1237,267.5
				 M1237,266.5c-5,0-11,2-15.8,5.4c-4.7,3.3-8.2,7.9-8.2,12.9v18v18c0,5,2,9.6,5.4,12.9c3.3,3.3,7.9,5.4,12.9,5.4
				c5,0,9.6-2,12.9-5.4c3.3-3.3,5.4-7.9,5.4-12.9v-36.1c0-5-0.6-9.6-2.5-12.9C1245.2,268.5,1242,266.5,1237,266.5L1237,266.5z"/>
		</g>
		<circle class="st15" cx="1231.3" cy="321.7" r="13.5"/>
		<g>
			<circle class="st15" cx="1222.8" cy="303.9" r="1.1"/>
			<circle class="st15" cx="1222.8" cy="297.3" r="1.1"/>
		</g>
		<g>
			<circle class="st15" cx="1239.5" cy="303.9" r="1.1"/>
			<circle class="st15" cx="1239.5" cy="297.3" r="1.1"/>
		</g>
		<g>
			<path class="st13" d="M1223.3,317c-2.8,0-5-2.2-5-5s2.2-5,5-5h14.5c2.8,0,5,2.2,5,5s-2.2,5-5,5H1223.3z"/>
			<path class="st14" d="M1237.7,307.5c2.5,0,4.5,2,4.5,4.5s-2,4.5-4.5,4.5h-14.5c-2.5,0-4.5-2-4.5-4.5c0-2.5,2-4.5,4.5-4.5H1237.7
				 M1237.7,306.5h-14.5c-3,0-5.5,2.5-5.5,5.5v0c0,3,2.5,5.5,5.5,5.5h14.5c3,0,5.5-2.5,5.5-5.5v0
				C1243.2,309,1240.8,306.5,1237.7,306.5L1237.7,306.5z"/>
		</g>
		<line class="st12" x1="1239.5" y1="303.9" x2="1222.3" y2="303.9"/>
		<line class="st12" x1="1239.5" y1="297.3" x2="1222.3" y2="297.3"/>
		<path class="st12" d="M1214.5,284.7c-0.9,0,34.6,0,34.6,0c0-4.9-0.6-9.4-2.5-12.6c-1.8-3.2-4.9-5.2-9.8-5.2
			c-4.9,0-10.7,2-15.3,5.2c-4.6,3.2-8,7.7-8,12.6H1214.5z"/>
		<polygon class="st12" points="1223.9,337.5 1237.5,337.5 1236.1,342.8 1225.3,342.8 		"/>
	</g>
	<g>
		<g>
			<path class="st1" d="M1100.9,307.1l5.9-21.5l48.4,13.4l19.6-12c1-0.7,2.1-1.1,3.3-1.4c-0.3,0.6-0.5,1.3-0.7,1.9
				c-1.8,6.6,1.9,13.4,8.3,15.5c0,0-0.1,0-0.1,0.1l-20.6,13c-0.9-3.2-3.5-5.8-6.9-6.7c-0.9-0.3-1.8-0.4-2.8-0.4
				c-4.3,0-8,2.7-9.1,6.7c-0.3,1-0.4,1.9-0.3,2.9L1100.9,307.1z"/>
			<path class="st8" d="M1107.2,286.3l47.7,13.2l0.4,0.1l0.4-0.2l19.5-11.9c0.7-0.4,1.4-0.8,2.1-1c-0.1,0.3-0.2,0.7-0.3,1
				c-1.8,6.5,1.6,13.2,7.7,15.7l-19.2,12.2c-1.1-3.1-3.7-5.5-7-6.5c-0.9-0.3-1.9-0.4-2.9-0.4c-4.5,0-8.4,2.9-9.6,7
				c-0.2,0.8-0.3,1.6-0.3,2.4l-43.9-11.2L1107.2,286.3 M1179,285c-1.5,0.2-3.1,0.7-4.4,1.6l-19.4,11.9l-48.6-13.4l-6.2,22.4
				l46.2,11.8c-0.2-1.1-0.1-2.3,0.2-3.5c1.1-3.8,4.7-6.3,8.6-6.3c0.9,0,1.7,0.1,2.6,0.4c3.6,1,6.2,4,6.7,7.3
				c0.1-0.1,0.1-0.3,0.2-0.4l20.9-13.3c0.3-0.2,0.6-0.5,0.9-0.7c-0.2,0-0.4-0.1-0.5-0.1c-6.5-1.8-10.2-8.5-8.4-15
				C1178.1,286.7,1178.5,285.8,1179,285L1179,285z"/>
		</g>
		<g>
			<g>
				
					<rect x="1089.8" y="293.6" transform="matrix(0.2665 -0.9638 0.9638 0.2665 522.6687 1277.9852)" class="st16" width="22.3" height="4"/>
				<path class="st8" d="M1102.4,284.9l2.9,0.8l-5.7,20.6l-2.9-0.8L1102.4,284.9 M1101.7,283.7l-6.2,22.5l4.9,1.3l6.2-22.5
					L1101.7,283.7L1101.7,283.7z"/>
			</g>
			<line class="st17" x1="1101.4" y1="285.4" x2="1105.9" y2="286.7"/>
			<line class="st17" x1="1101.1" y1="286.5" x2="1105.6" y2="287.8"/>
			<line class="st17" x1="1100.7" y1="287.7" x2="1105.3" y2="289"/>
			<line class="st17" x1="1100.4" y1="288.8" x2="1105" y2="290.1"/>
			<line class="st17" x1="1100.1" y1="290" x2="1104.7" y2="291.2"/>
			<line class="st17" x1="1099.8" y1="291.1" x2="1104.4" y2="292.4"/>
			<line class="st17" x1="1099.5" y1="292.2" x2="1104" y2="293.5"/>
			<line class="st17" x1="1099.1" y1="293.4" x2="1103.7" y2="294.7"/>
			<line class="st17" x1="1098.8" y1="294.5" x2="1103.4" y2="295.8"/>
			<line class="st17" x1="1098.5" y1="295.6" x2="1103.1" y2="296.9"/>
			<line class="st17" x1="1098.2" y1="296.8" x2="1102.8" y2="298.1"/>
			<line class="st17" x1="1097.9" y1="297.9" x2="1102.4" y2="299.2"/>
			<line class="st17" x1="1097.6" y1="299.1" x2="1102.1" y2="300.3"/>
			<line class="st17" x1="1097.2" y1="300.2" x2="1101.8" y2="301.5"/>
			<line class="st17" x1="1096.9" y1="301.3" x2="1101.5" y2="302.6"/>
			<line class="st17" x1="1096.6" y1="302.5" x2="1101.2" y2="303.7"/>
			<line class="st17" x1="1096.3" y1="303.6" x2="1100.9" y2="304.9"/>
			<line class="st17" x1="1096" y1="304.7" x2="1100.5" y2="306"/>
		</g>
		<g>
			<path class="st16" d="M1185.3,303.2c-3.3-0.9-6-3-7.6-5.9c-1.7-2.9-2.1-6.2-1.2-9.4c0.1-0.4,0.2-0.8,0.2-1c0-0.3,0.1-0.5,0.3-0.9
				c0.8-0.3,1.6-0.5,2.5-0.5c2.9,0,6,1.8,7.8,4.4c1.8,2.6,2.5,5.5,1.9,8C1188.7,300.1,1187.4,301.9,1185.3,303.2z"/>
			<path class="st8" d="M1179.4,286c2.7,0,5.7,1.7,7.4,4.2c1.7,2.4,2.3,5.2,1.8,7.6c-0.4,1.9-1.6,3.6-3.4,4.8
				c-3-0.9-5.5-2.9-7.1-5.6c-1.6-2.8-2-6-1.2-9c0.1-0.5,0.2-0.8,0.2-1.1c0-0.2,0-0.4,0.1-0.5C1177.9,286.2,1178.6,286,1179.4,286
				 M1179.4,285c-1,0-2,0.2-2.9,0.6c-0.5,0.9-0.3,1.1-0.6,2.2c-1.9,6.9,2.2,14,9.2,16c0.2,0.1,0,0,0.2,0.1c5.5-3.4,5.5-9.5,2.3-14.2
				C1185.8,286.9,1182.6,285,1179.4,285L1179.4,285z"/>
		</g>
		<g>
			<path class="st16" d="M1154.6,322.6c-3.6,0-7.3-1.6-9.6-4.1c-0.2-1.2-0.1-2.5,0.3-3.7c1.2-4.1,5.1-7,9.6-7c1,0,2,0.1,2.9,0.4
				c3.9,1.1,6.8,4.2,7.5,8c-1.8,3.4-5.2,5.8-9.1,6.3C1155.7,322.6,1155.2,322.6,1154.6,322.6z"/>
			<g>
				<path class="st8" d="M1154.9,308.3c0.9,0,1.9,0.1,2.8,0.4c3.6,1,6.4,3.9,7.1,7.4c-1.8,3.2-5,5.4-8.6,5.9c-0.5,0.1-1,0.1-1.5,0.1
					c-3.4,0-6.9-1.5-9.1-3.9c-0.1-1.1,0-2.2,0.3-3.3C1146.9,311,1150.6,308.3,1154.9,308.3 M1154.9,307.3c-4.6,0-8.8,2.9-10.1,7.3
					c-0.4,1.3-0.4,2.7-0.3,4c2.4,2.7,6.2,4.4,10,4.4c0.5,0,1.1,0,1.6-0.1c4.2-0.6,7.7-3.2,9.5-6.7c-0.6-3.9-3.6-7.3-7.8-8.5
					C1156.9,307.4,1155.9,307.3,1154.9,307.3L1154.9,307.3z"/>
			</g>
		</g>
	</g>
	<polyline class="st18" points="1255.9,179.1 1016.8,179.1 1016.8,346.3 	"/>
	<g>
		<g>
			<path class="st19" d="M1036.7,259c-1.2,0-2.3-1-2.3-2.3v-64.6c0-1.2,1-2.3,2.3-2.3h93.4c1.2,0,2.3,1,2.3,2.3v64.6
				c0,1.2-1,2.3-2.3,2.3H1036.7z"/>
			<path class="st20" d="M1130.1,190.3c1,0,1.8,0.8,1.8,1.8v64.6c0,1-0.8,1.8-1.8,1.8h-93.4c-1,0-1.8-0.8-1.8-1.8v-64.6
				c0-1,0.8-1.8,1.8-1.8H1130.1 M1130.1,189.3h-93.4c-1.5,0-2.8,1.2-2.8,2.8v64.6c0,1.5,1.2,2.8,2.8,2.8h93.4c1.5,0,2.8-1.2,2.8-2.8
				v-64.6C1132.8,190.5,1131.6,189.3,1130.1,189.3L1130.1,189.3z"/>
		</g>
		<circle class="st15" cx="1066.1" cy="219.5" r="1.6"/>
		<circle class="st15" cx="1075.3" cy="219.5" r="1.6"/>
		<circle class="st15" cx="1084.6" cy="219.5" r="1.6"/>
		<circle class="st15" cx="1093.9" cy="219.5" r="1.6"/>
		<circle class="st15" cx="1103.2" cy="219.5" r="1.6"/>
		<polyline class="st21" points="1032.1,203.3 1034.3,203.3 1034.3,246 1032.1,246 		"/>
		<polygon class="st22" points="1052.4,224.7 1049.4,235.1 1034.3,246 1034.3,224.2 1034.3,203.3 1049.4,213.3 		"/>
		<g>
			<path class="st23" d="M1039.8,247c-2.3,0-4.6-0.3-6.7-1l19.4-20.5l11.2,11.3C1061.6,238.5,1051.3,247,1039.8,247z M1033,203.5
				c2.1-0.7,4.4-1,6.7-1c11.5,0,21.8,8.5,23.9,10.3l-11.2,11.3L1033,203.5z"/>
			<path class="st20" d="M1039.8,203c10.7,0,20.4,7.5,23.1,9.8l-10.4,10.5l-18.5-19.5C1035.8,203.2,1037.8,203,1039.8,203
				 M1052.5,226.2l10.4,10.5c-2.7,2.3-12.4,9.8-23.1,9.8c-2,0-3.9-0.3-5.8-0.8L1052.5,226.2 M1039.8,202c-2.5,0-5.1,0.4-7.6,1.3
				l20.3,21.5l11.9-12C1064.4,212.7,1053,202,1039.8,202L1039.8,202z M1052.4,224.7l-20.3,21.5c2.6,0.9,5.1,1.3,7.6,1.3
				c13.2,0,24.6-10.8,24.6-10.8L1052.4,224.7L1052.4,224.7z"/>
		</g>
		
			<rect x="1033.7" y="221.6" transform="matrix(6.123234e-17 -1 1 6.123234e-17 815.1291 1263.4974)" class="st12" width="11.2" height="5.2"/>
		<line class="st21" x1="1052.4" y1="224.7" x2="1108.5" y2="224.7"/>
	</g>
	<g>
		<g>
			<path class="st24" d="M1209.5,220.5L1209.5,220.5c0-0.4,0.3-0.7,0.6-0.7h2.5c0.3,0,0.6,0.3,0.6,0.6v0.1c0,0.3-0.3,0.6-0.6,0.6
				h-2.5C1209.8,221.1,1209.5,220.9,1209.5,220.5z"/>
			<line class="st25" x1="1212.8" y1="219.9" x2="1212.8" y2="221.1"/>
			<line class="st25" x1="1212.2" y1="219.8" x2="1212.2" y2="221.1"/>
			<line class="st25" x1="1211.6" y1="219.8" x2="1211.6" y2="221.1"/>
			<line class="st25" x1="1211" y1="219.8" x2="1211" y2="221.1"/>
			<line class="st25" x1="1210.4" y1="219.8" x2="1210.4" y2="221.1"/>
			<line class="st25" x1="1209.8" y1="219.9" x2="1209.8" y2="221"/>
		</g>
		<g>
			
				<rect x="1205.5" y="162.6" transform="matrix(-1.836970e-16 1 -1 -1.836970e-16 1418.3929 -1003.8261)" class="st26" width="11.1" height="89.5"/>
			<line class="st27" x1="1194.1" y1="201.6" x2="1194.1" y2="212.9"/>
			<line class="st27" x1="1195.8" y1="201.6" x2="1195.8" y2="212.9"/>
			<line class="st27" x1="1197.5" y1="201.6" x2="1197.5" y2="212.9"/>
			<line class="st27" x1="1199.2" y1="201.6" x2="1199.2" y2="212.9"/>
			<line class="st27" x1="1200.9" y1="201.6" x2="1200.9" y2="212.9"/>
			<line class="st27" x1="1202.6" y1="201.6" x2="1202.6" y2="212.9"/>
			<line class="st27" x1="1204.3" y1="201.6" x2="1204.3" y2="212.9"/>
			<line class="st27" x1="1205.9" y1="201.6" x2="1205.9" y2="212.9"/>
			<line class="st27" x1="1207.6" y1="201.6" x2="1207.6" y2="212.9"/>
			<line class="st27" x1="1209.3" y1="201.6" x2="1209.3" y2="212.9"/>
			<line class="st27" x1="1211" y1="201.6" x2="1211" y2="212.9"/>
			<line class="st27" x1="1212.7" y1="201.6" x2="1212.7" y2="212.9"/>
			<line class="st27" x1="1214.4" y1="201.6" x2="1214.4" y2="212.9"/>
			<line class="st27" x1="1216.1" y1="201.6" x2="1216.1" y2="212.9"/>
			<line class="st27" x1="1217.7" y1="201.6" x2="1217.7" y2="212.9"/>
			<line class="st27" x1="1219.4" y1="201.6" x2="1219.4" y2="212.9"/>
			<line class="st27" x1="1221.1" y1="201.6" x2="1221.1" y2="212.9"/>
			<line class="st27" x1="1222.8" y1="201.6" x2="1222.8" y2="212.9"/>
			<line class="st27" x1="1224.5" y1="201.6" x2="1224.5" y2="212.9"/>
			<line class="st27" x1="1226.2" y1="201.6" x2="1226.2" y2="212.9"/>
			<line class="st27" x1="1227.9" y1="201.6" x2="1227.9" y2="212.9"/>
			<line class="st27" x1="1251.1" y1="201.6" x2="1251.1" y2="212.9"/>
			<line class="st27" x1="1171" y1="201.6" x2="1171" y2="212.9"/>
		</g>
		
			<rect x="1204.9" y="194.2" transform="matrix(-1.836970e-16 1 -1 -1.836970e-16 1418.3588 -1003.8604)" class="st28" width="12.5" height="26.1"/>
		<circle class="st29" cx="1211" cy="207.2" r="12.6"/>
		<g>
			<g>
				<line class="st9" x1="1223.3" y1="207.3" x2="1198.8" y2="207.3"/>
				<line class="st9" x1="1210.9" y1="219.4" x2="1210.9" y2="195"/>
				<g>
					<line class="st9" x1="1200.3" y1="201.1" x2="1221.6" y2="213.4"/>
					<line class="st9" x1="1204.9" y1="196.6" x2="1217.1" y2="217.8"/>
				</g>
				<line class="st9" x1="1217.1" y1="196.6" x2="1204.8" y2="217.9"/>
				<line class="st9" x1="1221.9" y1="200.9" x2="1200.4" y2="213.3"/>
			</g>
			<g>
				<line class="st30" x1="1223.3" y1="207.3" x2="1198.8" y2="207.3"/>
				<line class="st31" x1="1210.9" y1="219.4" x2="1210.9" y2="195"/>
				<g>
					<line class="st32" x1="1200.3" y1="201.1" x2="1221.6" y2="213.4"/>
					<line class="st32" x1="1204.9" y1="196.6" x2="1217.1" y2="217.8"/>
				</g>
				<line class="st32" x1="1217.1" y1="196.6" x2="1204.8" y2="217.9"/>
				<line class="st32" x1="1221.9" y1="200.9" x2="1200.4" y2="213.3"/>
			</g>
			<g>
				<line class="st33" x1="1223.3" y1="207.3" x2="1198.8" y2="207.3"/>
				<line class="st33" x1="1210.9" y1="219.4" x2="1210.9" y2="195"/>
				<g>
					<line class="st33" x1="1200.3" y1="201.1" x2="1221.6" y2="213.4"/>
					<line class="st33" x1="1204.9" y1="196.6" x2="1217.1" y2="217.8"/>
				</g>
				<line class="st33" x1="1217.1" y1="196.6" x2="1204.8" y2="217.9"/>
				<line class="st33" x1="1221.9" y1="200.9" x2="1200.4" y2="213.3"/>
			</g>
		</g>
		<circle class="st34" cx="1211" cy="207.2" r="11.2"/>
		<g>
			<g>
				<text transform="matrix(0 1 -1 0 1200.7959 206.3335)" style="fill:#333333; font-family:'Ubuntu-Bold'; font-size:2.5084px;">6</text>
			</g>
			<g>
				<text transform="matrix(0 1 -1 0 1217.9482 210.9243)" style="fill:#333333; font-family:'Ubuntu-Bold'; font-size:2.5084px;">1</text>
				<text transform="matrix(0 1 -1 0 1214.8369 214.7016)" style="fill:#333333; font-family:'Ubuntu-Bold'; font-size:2.5084px;">2</text>
				<text transform="matrix(0 1 -1 0 1210.3115 215.9214)" style="fill:#333333; font-family:'Ubuntu-Bold'; font-size:2.5084px;">3</text>
				<g>
					<text transform="matrix(0 1 -1 0 1205.6025 214.2622)" style="fill:#333333; font-family:'Ubuntu-Bold'; font-size:2.5084px;">4</text>
				</g>
				<g>
					<text transform="matrix(0 1 -1 0 1202.0391 211.2866)" style="fill:#333333; font-family:'Ubuntu-Bold'; font-size:2.5084px;">5</text>
				</g>
				<g>
					<text transform="matrix(0 1 -1 0 1202.3135 202.1401)" style="fill:#333333; font-family:'Ubuntu-Bold'; font-size:2.5084px;">7</text>
				</g>
				<g>
					<text transform="matrix(0 1 -1 0 1205.6025 198.5688)" style="fill:#333333; font-family:'Ubuntu-Bold'; font-size:2.5084px;">8</text>
				</g>
				<g>
					<text transform="matrix(0 1 -1 0 1210.3105 197.3423)" style="fill:#333333; font-family:'Ubuntu-Bold'; font-size:2.5084px;">9</text>
				</g>
				<g>
					<text transform="matrix(0 1 -1 0 1214.4424 198.062)" style="fill:#333333; font-family:'Ubuntu-Bold'; font-size:2.5084px;">10</text>
				</g>
				<g>
					<text transform="matrix(0 1 -1 0 1217.9482 201.1284)" style="fill:#333333; font-family:'Ubuntu-Bold'; font-size:2.5084px;">11</text>
				</g>
				<g>
					<text transform="matrix(0 1 -1 0 1219.6104 205.4174)" style="fill:#333333; font-family:'Ubuntu-Bold'; font-size:2.5084px;">12</text>
				</g>
			</g>
		</g>
		<polygon class="st19" points="1217.2,208.2 1219,207.2 1217.2,206.2 1217.2,207.1 1211,207.1 1211,207.4 1217.2,207.4 		"/>
		<polygon class="st35" points="1206,207.2 1207.5,208.1 1207.5,207.3 1211.3,207.3 1211.3,207.1 1207.5,207.1 1207.5,206.3 		"/>
		<circle class="st36" cx="1211" cy="207.2" r="0.8"/>
	</g>
</g>
<g>
	<g>
		<path class="st39" d="M269.1,202.3c-1.4,9.3-9.3,31.1-52.7,32.4c-0.7,0-1.3-0.2-1.8-0.7c-8.9,0.6-18.6,0.1-28.8-1.4
			c-14.9-2.2-29.7-6.1-44-11.3l-0.1,0c-39.9-3.8-60.6-22.3-63.3-38.8c-0.5-2.9-0.6-5.7-0.2-8.4c0.8-5.4,3.8-12.9,13.9-17.6
			c9.5-4.4,23.6-5.5,41.9-3.1c6.8,0.9,13.3,2.1,19.5,3.8c13.7,0,28.1,1.1,42.9,3.3c10.3,1.5,19.7,3.5,28.2,6c0.6-0.4,1.3-0.4,2-0.2
			C258.5,173.9,271.7,185,269.1,202.3L269.1,202.3L269.1,202.3z"/>
		<path class="st9" d="M80.9,174.4c1.8-11.9,13.7-23.6,52.9-18.4c7.2,1,13.6,2.2,19.5,3.8c13.2-0.1,27.8,1,42.9,3.3
			c11.6,1.7,21.5,4,29.9,6.5c0-0.3,0-0.6,0-0.9c32.5,8,42.6,18.6,40.4,33.3l0,0l0,0l0,0c-2.2,14.7-16.1,29.2-50.2,30.2
			c0-0.3,0.2-0.6,0.2-0.8c-8.7,0.7-18.8,0.5-30.3-1.2c-15.9-2.3-30.6-6.4-43.5-11.3l0,0c-0.1,0-0.2,0-0.2-0.1
			c-39.1-3.8-58.9-21.7-61.4-36.7C80.6,179.6,80.5,177,80.9,174.4 M75.7,173.7c-0.4,2.9-0.4,6,0.1,9.3c2.9,17.5,24.2,36.9,65.4,41
			c14.4,5.4,29.2,9.2,44.2,11.4c10,1.5,19.5,2,28.4,1.5c0.8,0.5,1.7,0.6,2.6,0.7c16.8-0.5,30.2-4.2,39.8-10.8
			c8.6-5.9,13.9-14.2,15.3-23.7l0-0.1c1.4-9.4-1.7-17.4-9-23.9c-7.1-6.2-18.7-11.1-35.4-15.3c-0.9-0.2-1.8-0.2-2.7,0
			c-8.3-2.4-17.6-4.3-27.7-5.8c-14.8-2.2-29.3-3.3-43-3.3c-6.1-1.6-12.7-2.8-19.5-3.8c-18.8-2.4-33.4-1.3-43.3,3.3
			C80,159.2,76.6,167.5,75.7,173.7L75.7,173.7z"/>
	</g>
	<g>
		<g>
			<path id="SVGCleanerId_1" class="st40" d="M196.2,163c-56.4-8.3-95.9,2.9-98.7,21.4c-1.5,10.2,32.4,37.3,88.8,45.6
				s78.8-18,80.3-28.1C268,191.8,252.5,171.3,196.2,163z"/>
		</g>
		<g>
			<path id="SVGCleanerId_1_1_" class="st40" d="M196.2,163c-56.4-8.3-95.9,2.9-98.7,21.4c-1.5,10.2,32.4,37.3,88.8,45.6
				s78.8-18,80.3-28.1C268,191.8,252.5,171.3,196.2,163z"/>
		</g>
	</g>
	<g>
		<path id="SVGCleanerId_1_2_" class="st41" d="M196.2,163c-56.4-8.3-95.9,2.9-98.7,21.4c-1.5,10.2,32.4,37.3,88.8,45.6
			s78.8-18,80.3-28.1C268,191.8,252.5,171.3,196.2,163z"/>
	</g>
	<path class="st41" d="M266.5,201.9c-0.3,2.2-1.7,5.3-4.2,8.5l-119.6,8.4c-33.1-12.5-46.3-27.1-45.2-34.4
		c2.7-18.5,42.3-29.8,98.7-21.4S268,191.8,266.5,201.9z"/>
	<path class="st41" d="M147.2,219.1c48,2.8,65.6-3.4,67.9-19c-5.1,34.5,6.9-32.6-81.5-44.2c-47.7-6.2-55,12.5-52.8,26.1
		C83.6,197.6,105.7,216.8,147.2,219.1z"/>
	<path class="st42" d="M129.6,159.6c-20.3-3-39.7,5.6-42.5,19c-2.1,10.2,14.2,26.1,34.6,29.1c20.3,3,27-6.8,28.5-17.2
		C151.6,180.2,150,162.6,129.6,159.6z"/>
	<path class="st43" d="M125.3,160c-20.3-3-35.4,5.1-38.2,18.6c-2.1,10.2,14.2,26.1,34.6,29.1c20.3,3,23.1-11.8,24.6-22.1
		C147.7,175.2,145.7,163,125.3,160z"/>
	<path class="st44" d="M122.2,182c1.2-8.3,0.2-17.8-10.8-22.7c4.6-0.2,9.4,0.1,14,0.7c20.3,3,22.3,15.2,20.8,25.5
		c-1.5,10.3-4.2,25.1-24.6,22.1c-4.3-0.6-8.9-2-13.3-3.9C119,201,121,190.1,122.2,182z"/>
	<g>
		<path class="st19" d="M135.6,170.3c-1.7-0.3-3.4,0.9-3.6,2.6l-4.2,24.6c-0.3,1.7,0.8,3.4,2.6,3.6l22.5,3.9
			c1.7,0.3,3.4-0.8,3.6-2.6l4.2-24.6c0.3-1.7-0.8-3.4-2.6-3.6L135.6,170.3z"/>
	</g>
	<path class="st45" d="M223.9,179.3c0,0-44.2-9.4-71.2-6.1"/>
	<path class="st45" d="M217.8,220.2c0,0-45.1-3.8-70-14.7"/>
	<path class="st46" d="M208.8,208.5l3.1-20.8c0.3-1.8-1-3.5-2.8-3.8l0,0c-1.8-0.3-3.5,1-3.8,2.8l-3.1,20.8c-0.3,1.8,1,3.5,2.8,3.8
		l0,0C206.8,211.6,208.5,210.3,208.8,208.5z"/>
	<path class="st46" d="M195.6,206.5l3.1-20.8c0.3-1.8-1-3.5-2.8-3.8l0,0c-1.8-0.3-3.5,1-3.8,2.8l-3.1,20.8c-0.3,1.8,1,3.5,2.8,3.8
		l0,0C193.7,209.7,195.4,208.3,195.6,206.5z"/>
	<path class="st46" d="M183.1,204.7l3.1-20.8c0.3-1.8-1-3.5-2.8-3.8l0,0c-1.8-0.3-3.5,1-3.8,2.8l-3.1,20.8c-0.3,1.8,1,3.5,2.8,3.8
		l0,0C181.1,207.8,182.9,206.5,183.1,204.7z"/>
	<path class="st46" d="M170.8,202.9l3.1-20.8c0.3-1.8-1-3.5-2.8-3.8l0,0c-1.8-0.3-3.5,1-3.8,2.8l-3.1,20.8c-0.3,1.8,1,3.5,2.8,3.8
		l0,0C168.7,206,170.5,204.7,170.8,202.9z"/>
	<path class="st46" d="M152.4,203.7l4.2-28.3c0.3-2-0.9-3.8-2.7-4.1l0,0c-1.8-0.3-3.5,1.1-3.8,3.1l-4.2,28.3c-0.3,2,0.9,3.8,2.7,4.1
		l0,0C150.3,207.1,152.1,205.7,152.4,203.7z"/>
</g>
<g>
	<path class="st9" d="M443.8,148.9v6.2c0,1.3-1,2.3-2.3,2.3c0,0-0.7,4.1-1.8,9.1c-1,5-2.4,10.9-3.7,14.6c0,0-4.5,20.6-34.7,15.7
		c-14.5-0.5-30.4-19.1-29.9-35.2c0-1.6-0.9-5.1-5.2-5c-4.4-0.1-5.3,3.4-5.2,5.1c0.6,15.8-15.3,34.6-29.9,35.1
		c-30.3,4.9-34.7-15.7-34.7-15.7c-2.5-7.4-5.4-23.8-5.4-23.8c-1.3,0-2.3-1-2.3-2.3v-6.2c0-1.1,0.8-2.1,1.8-2.3
		c15.8-3.4,31.3-3.9,31.3-3.9c10.2-0.7,21.8,1.7,28.9,3.5c10.3,2.6,20.8,2.6,31.1,0c7.2-1.8,18.7-4.2,28.9-3.5
		c0,0,15.5,0.5,31.3,3.9C443,146.8,443.8,147.8,443.8,148.9z"/>
	<path class="st47" d="M378.1,160.1c0,0-0.5-5.9,11.1-9.3c0,0,15.3-5,29.1-1.1c0,0,14.4,3.2,14.4,11.7c0,0-0.7,24.4-11.5,29.1
		c-9.1,4-24.8,4.4-35.2-7.8C386,182.7,377.6,173.4,378.1,160.1z"/>
	<g>
		<path class="st48" d="M403.7,148.2L380,172c-0.3-0.9-0.6-1.8-0.8-2.7l20.7-20.7C401,148.4,402.3,148.3,403.7,148.2z"/>
		<path class="st48" d="M412.3,148.5L382.7,178c-0.7-1.2-1.4-2.6-2.1-4.2l25.7-25.7C408.3,148.1,410.3,148.2,412.3,148.5z"/>
	</g>
	<path class="st47" d="M353.9,160.1c0,0,0.5-5.9-11.1-9.3c0,0-15.3-5-29.1-1.1c0,0-14.4,3.2-14.4,11.7c0,0,0.7,24.4,11.5,29.1
		c9.1,4,24.8,4.4,35.2-7.8C346,182.7,354.5,173.4,353.9,160.1z"/>
	<g>
		<path class="st48" d="M328.3,148.2l23.8,23.7c0.3-0.9,0.6-1.8,0.8-2.7l-20.7-20.7C331,148.4,329.7,148.3,328.3,148.2z"/>
		<path class="st48" d="M319.7,148.5l29.6,29.6c0.7-1.2,1.4-2.6,2.1-4.2l-25.7-25.7C323.7,148.1,321.7,148.2,319.7,148.5z"/>
	</g>
</g>
<g>
	<g>
		<path class="st49" d="M447.8,356.5h-2.4v-7.1h2.4c0.7,0,1.2,0.5,1.2,1.2v4.8C449,356,448.5,356.5,447.8,356.5z"/>
		<path class="st49" d="M413.8,325.6l-0.9,8.7l-6.7,5.5l4.3-13c0.2-0.7,0.9-1.2,1.7-1.2H413.8L413.8,325.6z"/>
		<path class="st49" d="M434.2,325.6l0.9,8.7l6.7,5.5l-4.3-13c-0.2-0.7-0.9-1.2-1.7-1.2H434.2L434.2,325.6z"/>
		<path class="st49" d="M434.2,380.3l0.9-8.7l6.7-5.5l-4.3,13c-0.2,0.7-0.9,1.2-1.7,1.2H434.2L434.2,380.3z"/>
		<path class="st49" d="M413.8,380.3l-0.9-8.7l-6.7-5.5l4.3,13c0.2,0.7,0.9,1.2,1.7,1.2H413.8L413.8,380.3z"/>
	</g>
	<path class="st50" d="M433.4,330.4h-18.8c-0.7,0-1.3-0.6-1.2-1.3l0.8-59.9c0.1-1.2,1.1-2.1,2.4-2.1h14.7c1.2,0,2.2,0.9,2.4,2.1
		l0.8,59.9C434.7,329.8,434.1,330.4,433.4,330.4z"/>
	<path class="st50" d="M414.7,375.5h18.8c0.7,0,1.3,0.6,1.2,1.3l-0.8,57.6c-0.1,1.2-1.1,2.1-2.4,2.1h-14.7c-1.2,0-2.2-0.9-2.4-2.1
		l-0.8-57.6C413.4,376.1,414,375.5,414.7,375.5z"/>
	<circle class="st51" cx="424" cy="352.9" r="22.6"/>
	<circle class="st52" cx="424" cy="352.9" r="20.2"/>
	<circle class="st9" cx="424" cy="352.9" r="17.8"/>
	<path class="st53" d="M433.5,352h-8.6v-7.4c0-0.5-0.4-0.9-0.9-0.9s-0.9,0.4-0.9,0.9v7.4h-1.5c-0.5,0-0.9,0.4-0.9,0.9
		s0.4,0.9,0.9,0.9h1.5v1.5c0,0.5,0.4,0.9,0.9,0.9s0.9-0.4,0.9-0.9v-1.5h8.6c0.5,0,0.9-0.4,0.9-0.9S434,352,433.5,352z"/>
	<circle class="st52" cx="424" cy="352.9" r="1.8"/>
	<g>
		<path class="st53" d="M409.8,353.8h-1.2c-0.5,0-0.9-0.4-0.9-0.9s0.4-0.9,0.9-0.9h1.2c0.5,0,0.9,0.4,0.9,0.9
			S410.3,353.8,409.8,353.8z"/>
		<path class="st53" d="M439.5,353.8h-1.2c-0.5,0-0.9-0.4-0.9-0.9s0.4-0.9,0.9-0.9h1.2c0.5,0,0.9,0.4,0.9,0.9S440,353.8,439.5,353.8
			z"/>
		<path class="st53" d="M424,369.3c-0.5,0-0.9-0.4-0.9-0.9v-1.2c0-0.5,0.4-0.9,0.9-0.9s0.9,0.4,0.9,0.9v1.2
			C424.9,368.9,424.5,369.3,424,369.3z"/>
		<path class="st53" d="M424,339.6c-0.5,0-0.9-0.4-0.9-0.9v-1.2c0-0.5,0.4-0.9,0.9-0.9s0.9,0.4,0.9,0.9v1.2
			C424.9,339.2,424.5,339.6,424,339.6z"/>
	</g>
	<g>
		<path class="st54" d="M417.1,366.8c-0.2,0.4-0.8,0.6-1.2,0.3c-0.4-0.2-0.6-0.8-0.3-1.2l0,0c0.2-0.4,0.8-0.6,1.2-0.3
			C417.2,365.8,417.4,366.3,417.1,366.8z"/>
		<path class="st54" d="M432.5,340c-0.2,0.4-0.8,0.6-1.2,0.3c-0.4-0.2-0.6-0.8-0.3-1.2l0,0c0.2-0.4,0.8-0.6,1.2-0.3
			C432.6,339,432.8,339.6,432.5,340z"/>
		<path class="st54" d="M431,366.8c0.2,0.4,0.8,0.6,1.2,0.3c0.4-0.2,0.6-0.8,0.3-1.2l0,0c-0.2-0.4-0.8-0.6-1.2-0.3
			C430.9,365.8,430.8,366.3,431,366.8z"/>
		<path class="st54" d="M415.6,340c0.2,0.4,0.8,0.6,1.2,0.3c0.4-0.2,0.6-0.8,0.3-1.2l0,0c-0.2-0.4-0.8-0.6-1.2-0.3
			C415.5,339,415.3,339.6,415.6,340z"/>
		<path class="st54" d="M410.2,346c-0.4-0.2-0.6-0.8-0.3-1.2s0.8-0.6,1.2-0.3l0,0c0.4,0.2,0.6,0.8,0.3,1.2
			C411.2,346.1,410.7,346.2,410.2,346z"/>
		<path class="st54" d="M437,361.4c-0.4-0.2-0.6-0.8-0.3-1.2c0.2-0.4,0.8-0.6,1.2-0.3l0,0c0.4,0.2,0.6,0.8,0.3,1.2
			C438,361.5,437.4,361.7,437,361.4z"/>
		<path class="st54" d="M410.2,359.9c-0.4,0.2-0.6,0.8-0.3,1.2s0.8,0.6,1.2,0.3l0,0c0.4-0.2,0.6-0.8,0.3-1.2
			C411.2,359.8,410.7,359.6,410.2,359.9z"/>
		<path class="st54" d="M437,344.4c-0.4,0.2-0.6,0.8-0.3,1.2c0.2,0.4,0.8,0.6,1.2,0.3l0,0c0.4-0.2,0.6-0.8,0.3-1.2
			C438,344.3,437.4,344.2,437,344.4z"/>
	</g>
</g>
<path class="st55" d="M352.3,317.4l-27.8-30.5c-1.4-1.6-2.2-3.6-2.2-5.7l0-45.7c0-1.2-1-2.1-2.1-2.1l-29.8,0c-1.2,0-2.1,1-2.1,2.1
	v52.1c0,6.2,2.3,12.3,6.4,16.9l31.9,35.9c6.4,7.2,17.5,7.8,24.6,1.3l0,0C358.1,335.3,358.6,324.5,352.3,317.4z"/>
<path class="st56" d="M320.2,233.3h-29.8c-1.2,0-2.1,1-2.1,2.1v14.9h34.1v-14.9C322.3,234.3,321.4,233.3,320.2,233.3z"/>
<g>
	<path class="st57" d="M292.5,250.4h-4.3v-14.9c0-1.2,1-2.1,2.1-2.1h2.1C292.5,233.3,292.5,250.4,292.5,250.4z"/>
	<rect x="296.7" y="233.3" class="st57" width="4.3" height="17"/>
</g>
<path class="st58" d="M352.3,317.4l-27.8-30.5c-1.4-1.6-2.2-3.6-2.2-5.7l0-26.5l0-4.3l0-14.9c0-1.2-1-2.1-2.1-2.1l-14.9,0v17h-17
	v4.3h17v18c0,7.3,2.7,14.3,7.5,19.8l31.9,35.9c2.9,3.3,6.8,5.6,11,6.6C357.8,329.1,356.7,322.4,352.3,317.4z"/>
<g>
	<path class="st56" d="M307.4,298.3c0-10-8.1-18.1-18.1-18.1c-0.4,0-0.7,0-1.1,0.1v7.3c0,6.2,2.3,12.3,6.4,16.9l6.6,7.4
		C305,308.6,307.4,303.7,307.4,298.3z"/>
	<path class="st56" d="M351.1,341.7L351.1,341.7c7-6.4,7.5-17.2,1.1-24.3l-1.5-1.7l-26.5,22.1l2.3,2.6
		C333,347.7,344,348.2,351.1,341.7z"/>
</g>
<g>
	<path class="st57" d="M289.3,284.5c-0.4,0-0.7,0-1.1,0.1v3c0,6.2,2.3,12.3,6.4,16.9l3.8,4.2c2.9-2.5,4.7-6.3,4.7-10.4
		C303.1,290.7,296.9,284.5,289.3,284.5z"/>
	<path class="st57" d="M351.1,341.7L351.1,341.7c5.9-5.4,7.2-14,3.6-20.7l-25.9,21.6C335.4,347.7,344.8,347.5,351.1,341.7z"/>
	<rect x="305.3" y="233.3" class="st57" width="4.3" height="17"/>
	<path class="st57" d="M350.8,315.8l-9.9,8.3l3.8,4.3c2.9,3.3,6.8,5.6,11,6.6c2.1-5.8,1.1-12.6-3.4-17.5L350.8,315.8z"/>
</g>
<path class="st59" d="M345.2,328.9c2.8,3,6.4,5.1,10.4,6c1.6-4.5,1.4-9.6-0.9-13.9L345.2,328.9z"/>
<path class="st55" d="M373.6,302.5L345.8,272c-1.4-1.6-2.2-3.6-2.2-5.7l0-45.7c0-1.2-1-2.1-2.1-2.1l-29.8,0c-1.2,0-2.1,1-2.1,2.1
	v52.1c0,6.2,2.3,12.3,6.4,16.9l31.9,35.9c6.4,7.2,17.5,7.8,24.6,1.3l0,0C379.4,320.4,379.9,309.6,373.6,302.5z"/>
<path class="st56" d="M341.5,218.4h-29.8c-1.2,0-2.1,1-2.1,2.1v14.9h34.1v-14.9C343.6,219.4,342.7,218.4,341.5,218.4z"/>
<g>
	<path class="st57" d="M313.8,235.5h-4.3v-14.9c0-1.2,1-2.1,2.1-2.1h2.1L313.8,235.5L313.8,235.5z"/>
	<rect x="318.1" y="218.4" class="st57" width="4.3" height="17"/>
	<rect x="326.6" y="218.4" class="st57" width="4.3" height="17"/>
	<rect x="335.1" y="218.4" class="st57" width="4.3" height="17"/>
</g>
<rect x="309.5" y="235.5" class="st58" width="34.1" height="4.3"/>
<g>
	<path class="st56" d="M328.7,283.4c0-10-8.1-18.1-18.1-18.1c-0.4,0-0.7,0-1.1,0.1v7.3c0,6.2,2.3,12.3,6.4,16.9l6.6,7.4
		C326.3,293.7,328.7,288.8,328.7,283.4z"/>
	<path class="st56" d="M372.4,326.8L372.4,326.8c7-6.4,7.5-17.2,1.1-24.3l-1.5-1.7l-26.5,22.1l2.3,2.6
		C354.3,332.7,365.3,333.3,372.4,326.8z"/>
</g>
<g>
	<path class="st57" d="M310.6,269.6c-0.4,0-0.7,0-1.1,0.1v3c0,6.2,2.3,12.3,6.4,16.9l3.8,4.2c2.9-2.5,4.7-6.3,4.7-10.4
		C324.4,275.8,318.2,269.6,310.6,269.6z"/>
	<path class="st57" d="M372.4,326.8L372.4,326.8c5.9-5.4,7.2-14,3.6-20.7l-25.9,21.6C356.7,332.8,366.1,332.6,372.4,326.8z"/>
</g>
<g>
	<path class="st60" d="M241.7,433.3c0,4.3-3.4,7.7-7.7,7.7H86.5c-4.1,0-7.7-3.4-7.7-7.7V325.9c0-1.3,1-2.5,2.4-2.8
		c12.9-3,23.1-30.1,23.1-63.1v-3.1c0-1.5,1-2.8,2.5-3l21.2-2.7c0.9-0.1,1.8,0.1,2.4,0.9c6.4,6.2,17.3,11.9,29.8,11.9
		c12.4,0,23.4-5.6,29.8-11.9c0.6-0.6,1.5-0.9,2.4-0.9l21.3,2.7c1.5,0.1,2.5,1.5,2.5,3v3.1c0,33,10.2,60.2,23.1,63.1
		c1.3,0.3,2.4,1.5,2.4,2.8C241.6,325.9,241.7,433.3,241.7,433.3z"/>
	<path class="st61" d="M160.3,310.5c21.3,0,38.5-22.5,38.5-50.4c0-2.8-0.1-5.5-0.4-8.1l-5.8-0.7c-0.9-0.1-1.8,0.1-2.4,0.9
		c-6.4,6.2-17.3,11.9-29.8,11.9s-23.4-5.6-29.8-11.9c-0.6-0.6-1.5-0.9-2.4-0.9l-5.8,0.7c-0.6,2.7-0.7,5.3-0.7,8.1
		C121.7,288,138.9,310.5,160.3,310.5z"/>
	<path class="st62" d="M121.9,252c2.5,13,18.7,23,38.2,23s35.7-9.9,38.4-23l-5.9-0.7h-0.7c-0.6,0.1-1.2,0.3-1.6,0.9
		c-6.4,6.2-17.3,11.9-29.8,11.9s-23.4-5.6-29.8-11.9c-0.4-0.4-1-0.7-1.6-0.9h-0.7C128.2,251.2,121.9,252,121.9,252z"/>
	<path class="st63" d="M194.8,251.2c0.3,3,0.6,5.9,0.6,8.9c0,26.1-15.7,47.4-35.1,47.4s-35.1-21.2-35.1-47.4c0-3.1,0.3-6.1,0.6-8.9
		h-6.4c-0.3,3-0.6,5.9-0.6,8.9c0,29.3,18.7,53.3,41.5,53.3s41.5-24,41.5-53.3c0-3-0.3-5.9-0.6-8.9
		C201.1,251.2,194.8,251.2,194.8,251.2z"/>
	<path class="st64" d="M188.4,328.3h20.7c0.9,0,1.5,0.6,1.5,1.5v8.9c0,0.9-0.6,1.5-1.5,1.5h-20.7c-0.9,0-1.5-0.6-1.5-1.5v-8.9
		C186.9,329,187.5,328.3,188.4,328.3z"/>
	<path class="st65" d="M154.8,397.6h-16.4c-0.4,0-0.4-0.4-0.3-0.6c3-3,6.8-5.5,10.4-8.1c4.7-3.7,8.7-7.7,8.7-13.9
		c0-8.4-6.8-12.3-15.1-12.3c-7,0-13.3,4-13.8,11.4c0,2.1,1,3,3.1,3.1c1.9,0.3,4-0.4,4.4-2.5c0.7-3.4,3.3-5,6.4-5
		c4.3,0,6.8,2.2,6.8,6.2c0,3.6-3.7,6.8-7.1,9.5c-4.3,3.3-8.3,6.2-12,10.2c-0.9,1-2.1,3-2.1,5.5c0,3.6,0.9,4.6,4.1,4.6h23
		c2.1,0,2.7-1.8,2.7-3.6C157.3,400,156.7,397.6,154.8,397.6L154.8,397.6z M180.7,378.4c-0.4,0-0.6-0.4-0.3-0.7l8-7.9
		c0.9-0.9,1.6-1.8,1.6-3.3c0.1-2.1-0.3-4.1-2.4-4.1h-21c-2.1,0-2.5,2.4-2.5,4.1c0,1.8,0.4,3.6,2.5,3.6h12.3
		c-0.9,0.7-1.6,1.3-2.4,2.2l-5.2,5.3c-1,1.2-1.5,2.5-0.7,4.1c0.6,1.5,1.8,2.2,3.1,2.2c5.2,0,11.1,0.9,11.1,7.6c0,3.9-2.8,7-7,7
		c-3.6,0-5.6-1.2-7.3-4.3c-1-1.8-3-2.1-4.9-1.3c-2.1,0.9-3,2.7-1.9,4.7c2.5,5.3,7.9,7.6,13.9,7.6c8.7,0,15.3-5.6,15.4-14.4
		C192.8,384,188,379.1,180.7,378.4z"/>
	<path class="st66" d="M81.1,323.1c-1.3,0.3-2.4,1.5-2.4,2.8v107.4c0,4.3,3.4,7.7,7.7,7.7h2.7V317.9
		C86.6,320.6,83.9,322.3,81.1,323.1z M239.4,323.1c-2.8-0.6-5.5-2.5-8-5.2v123h2.7c4.1,0,7.7-3.4,7.7-7.7V325.9
		C241.7,324.4,240.7,323.4,239.4,323.1z"/>
</g>
<path class="st67" d="M366.2,404.6h-79.3v-34.2c-8,0-12.6,6.5-12.6,14.4v28.8c0,8,6.5,14.4,14.4,14.4h75.7c8,0,14.4-6.5,14.4-14.4
	v-28.8c0-8-4.7-14.4-12.6-14.4V404.6z"/>
<g>
	<path class="st9" d="M323,404.6v-28.8c0-2,1.6-3.6,3.6-3.6s3.6,1.6,3.6,3.6v28.8l0,0H323L323,404.6z"/>
	<path class="st9" d="M308.6,404.6v-28.8c0-2,1.6-3.6,3.6-3.6s3.6,1.6,3.6,3.6v28.8l0,0H308.6L308.6,404.6z"/>
	<path class="st9" d="M294.1,404.6v-28.8c0-2,1.6-3.6,3.6-3.6s3.6,1.6,3.6,3.6v28.8l0,0H294.1L294.1,404.6z"/>
	<path class="st9" d="M351.8,404.6v-28.8c0-2,1.6-3.6,3.6-3.6s3.6,1.6,3.6,3.6v28.8l0,0H351.8L351.8,404.6z"/>
	<path class="st9" d="M337.4,404.6v-28.8c0-2,1.6-3.6,3.6-3.6s3.6,1.6,3.6,3.6v28.8l0,0H337.4L337.4,404.6z"/>
</g>
</svg>
