<?xml version="1.0" encoding="utf-8"?>
<!-- Generator: Adobe Illustrator 22.1.0, SVG Export Plug-In . SVG Version: 6.00 Build 0)  -->
<svg version="1.1" id="Layer_1" xmlns="http://www.w3.org/2000/svg" xmlns:xlink="http://www.w3.org/1999/xlink" x="0px" y="0px"
	 viewBox="0 0 512 512" style="enable-background:new 0 0 512 512;" xml:space="preserve">
<style type="text/css">
	.st0{fill:#556080;}
	.st1{fill:#FADC3C;}
	.st2{fill:#E7C42A;}
	.st3{fill:#D1A074;}
	.st4{fill:#C7CAC7;}
	.st5{fill:#725431;}
	.st6{fill:#5E4425;}
	.st7{fill:#275D68;}
	.st8{fill:#FFFFFF;}
	.st9{fill:#CC2323;}
	.st10{fill:#FF633E;}
	.st11{fill:#E83A3A;}
	.st12{fill:#4F1237;}
	.st13{fill:#330924;}
	.st14{fill:#00CDC8;}
	.st15{fill:none;stroke:#CC251D;stroke-width:3;stroke-linecap:round;stroke-linejoin:round;stroke-miterlimit:10;}
	.st16{fill:#AA1713;}
	.st17{fill:#FF9BA9;}
	.st18{fill:#FFDC64;}
	.st19{fill:#FFC850;}
	.st20{fill:#FF8B9B;}
	.st21{fill:#F5B44B;}
	.st22{fill:#E2574C;}
	.st23{fill:#BF392B;}
	.st24{fill:#D9D9D9;}
	.st25{fill:#EFEFEF;}
	.st26{fill:#EC9089;}
	.st27{fill:#EEE0DF;}
	.st28{fill:#CB4E44;}
	.st29{fill:#7FCAC9;}
</style>
<g>
	<g>
		<path class="st0" d="M334.3,138.9c-6.4,0-11.5-5.1-11.5-11.5V73.7c0-3.2-2.6-5.8-5.8-5.8H195c-3.2,0-5.8,2.6-5.8,5.8v53.7
			c0,6.4-5.1,11.5-11.5,11.5s-11.5-5.1-11.5-11.5V73.7c0-15.9,12.9-28.8,28.8-28.8h122c15.9,0,28.8,12.9,28.8,28.8v53.7
			C345.8,133.8,340.6,138.9,334.3,138.9z"/>
	</g>
	<g>
		<path class="st1" d="M44.7,465.5c-7.8,0-14.2-6.4-14.2-14.2V119.7c0-7.8,6.4-14.2,14.2-14.2h422.5c7.8,0,14.2,6.4,14.2,14.2v331.6
			c0,7.8-6.4,14.2-14.2,14.2H44.7z"/>
		<g>
			<path class="st2" d="M467.3,107c7,0,12.7,5.7,12.7,12.7v331.6c0,7-5.7,12.7-12.7,12.7H44.7c-7,0-12.7-5.7-12.7-12.7V119.7
				c0-7,5.7-12.7,12.7-12.7H467.3 M467.3,103.9H44.7c-8.7,0-15.7,7-15.7,15.7v331.6c0,8.7,7,15.7,15.7,15.7h422.5
				c8.7,0,15.7-7,15.7-15.7V119.7C483,111,476,103.9,467.3,103.9L467.3,103.9z"/>
		</g>
	</g>
	<g>
		<path class="st1" d="M44.7,465.5c-7.8,0-14.2-6.4-14.2-14.2V119.7c0-7.8,6.4-14.2,14.2-14.2h45.4v360.1H44.7z"/>
		<g>
			<path class="st2" d="M88.6,107v357H44.7c-7,0-12.7-5.7-12.7-12.7V119.7c0-7,5.7-12.7,12.7-12.7H88.6 M91.6,103.9H44.7
				c-8.7,0-15.7,7-15.7,15.7v331.6c0,8.7,7,15.7,15.7,15.7h46.9V103.9L91.6,103.9z"/>
		</g>
	</g>
	<g>
		<path class="st1" d="M421.9,465.5V105.4h45.4c7.8,0,14.2,6.4,14.2,14.2v331.6c0,7.8-6.4,14.2-14.2,14.2H421.9z"/>
		<g>
			<path class="st2" d="M467.3,107c7,0,12.7,5.7,12.7,12.7v331.6c0,7-5.7,12.7-12.7,12.7h-43.8V107H467.3 M467.3,103.9h-46.9V467
				h46.9c8.7,0,15.7-7,15.7-15.7V119.7C483,111,476,103.9,467.3,103.9L467.3,103.9z"/>
		</g>
	</g>
	<rect x="83.8" y="103.9" class="st3" width="15.7" height="363.1"/>
	<rect x="412.6" y="103.9" class="st3" width="15.7" height="363.1"/>
	<rect x="399.3" y="88.6" class="st4" width="40.5" height="15.2"/>
	<rect x="71.4" y="88.6" class="st4" width="40.5" height="15.2"/>
	<path class="st5" d="M450,453.8H62c-6.6,0-12-5.4-12-12v-305c0-6.6,5.4-12,12-12h388c6.6,0,12,5.4,12,12v305
		C462,448.4,456.6,453.8,450,453.8z"/>
	<path class="st6" d="M90,453.8H62c-6.6,0-12-5.4-12-12v-305c0-6.6,5.4-12,12-12h28c6.6,0,12,5.4,12,12v305
		C102,448.4,96.6,453.8,90,453.8z"/>
</g>
<g>
	<g>
		<path class="st7" d="M334.2,201.7c-1.4,9.3-9.3,31.1-52.7,32.4c-0.7,0-1.3-0.2-1.8-0.7c-8.9,0.6-18.6,0.1-28.8-1.4
			c-14.9-2.2-29.7-6.1-44-11.3l-0.1,0c-39.9-3.8-60.6-22.3-63.3-38.8c-0.5-2.9-0.6-5.7-0.2-8.4c0.8-5.4,3.8-12.9,13.9-17.6
			c9.5-4.4,23.6-5.5,41.9-3.1c6.8,0.9,13.3,2.1,19.5,3.8c13.7,0,28.1,1.1,42.9,3.3c10.3,1.5,19.7,3.5,28.2,6c0.6-0.4,1.3-0.4,2-0.2
			C323.6,173.2,336.8,184.4,334.2,201.7L334.2,201.7L334.2,201.7z"/>
		<path class="st8" d="M146,173.8c1.8-11.9,13.7-23.6,52.9-18.4c7.2,1,13.6,2.2,19.5,3.8c13.2-0.1,27.8,1,42.9,3.3
			c11.6,1.7,21.5,4,29.9,6.5c0-0.3,0-0.6,0-0.9c32.5,8,42.6,18.6,40.4,33.3l0,0l0,0l0,0c-2.2,14.7-16.1,29.2-50.2,30.2
			c0-0.3,0.2-0.6,0.2-0.8c-8.7,0.7-18.8,0.5-30.3-1.2c-15.9-2.3-30.6-6.4-43.5-11.3l0,0c-0.1,0-0.2,0-0.2-0.1
			c-39.1-3.8-58.9-21.7-61.4-36.7C145.7,178.9,145.6,176.4,146,173.8 M140.9,173c-0.4,2.9-0.4,6,0.1,9.3c2.9,17.5,24.2,36.9,65.4,41
			c14.4,5.4,29.2,9.2,44.2,11.4c10,1.5,19.5,2,28.4,1.5c0.8,0.5,1.7,0.6,2.6,0.7c16.8-0.5,30.2-4.2,39.8-10.8
			c8.6-5.9,13.9-14.2,15.3-23.7l0-0.1c1.4-9.4-1.7-17.4-9-23.9c-7.1-6.2-18.7-11.1-35.4-15.3c-0.9-0.2-1.8-0.2-2.7,0
			c-8.3-2.4-17.6-4.3-27.7-5.8c-14.8-2.2-29.3-3.3-43-3.3c-6.1-1.6-12.7-2.8-19.5-3.8c-18.8-2.4-33.4-1.3-43.3,3.3
			C145.1,158.6,141.8,166.9,140.9,173L140.9,173z"/>
	</g>
	<g>
		<g>
			<path id="SVGCleanerId_1" class="st9" d="M261.3,162.4c-56.4-8.3-95.9,2.9-98.7,21.4c-1.5,10.2,32.4,37.3,88.8,45.6
				s78.8-18,80.3-28.1C333.1,191.1,317.7,170.7,261.3,162.4z"/>
		</g>
		<g>
			<path id="SVGCleanerId_1_1_" class="st9" d="M261.3,162.4c-56.4-8.3-95.9,2.9-98.7,21.4c-1.5,10.2,32.4,37.3,88.8,45.6
				s78.8-18,80.3-28.1C333.1,191.1,317.7,170.7,261.3,162.4z"/>
		</g>
	</g>
	<g>
		<path id="SVGCleanerId_1_2_" class="st10" d="M261.3,162.4c-56.4-8.3-95.9,2.9-98.7,21.4c-1.5,10.2,32.4,37.3,88.8,45.6
			s78.8-18,80.3-28.1C333.1,191.1,317.7,170.7,261.3,162.4z"/>
	</g>
	<path class="st10" d="M331.6,201.3c-0.3,2.2-1.7,5.3-4.2,8.5l-119.6,8.4c-33.1-12.5-46.3-27.1-45.2-34.4
		c2.7-18.5,42.3-29.8,98.7-21.4S333.1,191.1,331.6,201.3z"/>
	<path class="st10" d="M212.4,218.5c48,2.8,65.6-3.4,67.9-19c-5.1,34.5,6.9-32.6-81.5-44.2c-47.7-6.2-55,12.5-52.8,26.1
		C148.7,197,170.8,216.1,212.4,218.5z"/>
	<path class="st11" d="M194.7,159c-20.3-3-39.7,5.6-42.5,19c-2.1,10.2,14.2,26.1,34.6,29.1s27-6.8,28.5-17.2
		C216.7,179.6,215.1,162,194.7,159z"/>
	<path class="st12" d="M190.4,159.4c-20.3-3-35.4,5.1-38.2,18.6c-2.1,10.2,14.2,26.1,34.6,29.1s23.1-11.8,24.6-22.1
		C212.9,174.6,210.8,162.4,190.4,159.4z"/>
	<path class="st13" d="M187.3,181.4c1.2-8.3,0.2-17.8-10.8-22.7c4.6-0.2,9.4,0.1,14,0.7c20.3,3,22.3,15.2,20.8,25.5
		c-1.5,10.3-4.2,25.1-24.6,22.1c-4.3-0.6-8.9-2-13.3-3.9C184.1,200.4,186.1,189.5,187.3,181.4z"/>
	<g>
		<path class="st14" d="M200.7,169.7c-1.7-0.3-3.4,0.9-3.6,2.6l-4.2,24.6c-0.3,1.7,0.8,3.4,2.6,3.6l22.5,3.9
			c1.7,0.3,3.4-0.8,3.6-2.6l4.2-24.6c0.3-1.7-0.8-3.4-2.6-3.6L200.7,169.7z"/>
	</g>
	<path class="st15" d="M289,178.7c0,0-44.2-9.4-71.2-6.1"/>
	<path class="st15" d="M282.9,219.6c0,0-45.1-3.8-70-14.7"/>
	<path class="st16" d="M273.9,207.8l3.1-20.8c0.3-1.8-1-3.5-2.8-3.8l0,0c-1.8-0.3-3.5,1-3.8,2.8l-3.1,20.8c-0.3,1.8,1,3.5,2.8,3.8
		l0,0C271.9,211,273.7,209.6,273.9,207.8z"/>
	<path class="st16" d="M260.7,205.9l3.1-20.8c0.3-1.8-1-3.5-2.8-3.8l0,0c-1.8-0.3-3.5,1-3.8,2.8l-3.1,20.8c-0.3,1.8,1,3.5,2.8,3.8
		l0,0C258.8,209,260.5,207.7,260.7,205.9z"/>
	<path class="st16" d="M248.2,204l3.1-20.8c0.3-1.8-1-3.5-2.8-3.8l0,0c-1.8-0.3-3.5,1-3.8,2.8l-3.1,20.8c-0.3,1.8,1,3.5,2.8,3.8l0,0
		C246.2,207.2,248,205.8,248.2,204z"/>
	<path class="st16" d="M235.9,202.2l3.1-20.8c0.3-1.8-1-3.5-2.8-3.8l0,0c-1.8-0.3-3.5,1-3.8,2.8l-3.1,20.8c-0.3,1.8,1,3.5,2.8,3.8
		l0,0C233.9,205.3,235.6,204,235.9,202.2z"/>
	<path class="st16" d="M217.5,203.1l4.2-28.3c0.3-2-0.9-3.8-2.7-4.1l0,0c-1.8-0.3-3.5,1.1-3.8,3.1l-4.2,28.3c-0.3,2,0.9,3.8,2.7,4.1
		l0,0C215.5,206.4,217.2,205.1,217.5,203.1z"/>
</g>
<path class="st17" d="M382.3,327.4l-27.8-30.5c-1.4-1.6-2.2-3.6-2.2-5.7l0-45.7c0-1.2-1-2.1-2.1-2.1l-29.8,0c-1.2,0-2.1,1-2.1,2.1
	v52.1c0,6.2,2.3,12.3,6.4,16.9l31.9,35.9c6.4,7.2,17.5,7.8,24.6,1.3l0,0C388.1,345.3,388.6,334.5,382.3,327.4z"/>
<path class="st18" d="M350.2,243.3h-29.8c-1.2,0-2.1,1-2.1,2.1v14.9h34.1v-14.9C352.3,244.3,351.4,243.3,350.2,243.3z"/>
<g>
	<path class="st19" d="M322.5,260.4h-4.3v-14.9c0-1.2,1-2.1,2.1-2.1h2.1C322.5,243.3,322.5,260.4,322.5,260.4z"/>
	<rect x="326.7" y="243.3" class="st19" width="4.3" height="17"/>
</g>
<path class="st20" d="M382.3,327.4l-27.8-30.5c-1.4-1.6-2.2-3.6-2.2-5.7l0-26.5l0-4.3l0-14.9c0-1.2-1-2.1-2.1-2.1l-14.9,0v17h-17
	v4.3h17v18c0,7.3,2.7,14.3,7.5,19.8l31.9,35.9c2.9,3.3,6.8,5.6,11,6.6C387.8,339.1,386.7,332.4,382.3,327.4z"/>
<g>
	<path class="st18" d="M337.4,308.3c0-10-8.1-18.1-18.1-18.1c-0.4,0-0.7,0-1.1,0.1v7.3c0,6.2,2.3,12.3,6.4,16.9l6.6,7.4
		C335,318.6,337.4,313.7,337.4,308.3z"/>
	<path class="st18" d="M381.1,351.7L381.1,351.7c7-6.4,7.5-17.2,1.1-24.3l-1.5-1.7l-26.5,22.1l2.3,2.6
		C363,357.7,374,358.2,381.1,351.7z"/>
</g>
<g>
	<path class="st19" d="M319.3,294.5c-0.4,0-0.7,0-1.1,0.1v3c0,6.2,2.3,12.3,6.4,16.9l3.8,4.2c2.9-2.5,4.7-6.3,4.7-10.4
		C333.1,300.7,326.9,294.5,319.3,294.5z"/>
	<path class="st19" d="M381.1,351.7L381.1,351.7c5.9-5.4,7.2-14,3.6-20.7l-25.9,21.6C365.4,357.7,374.8,357.5,381.1,351.7z"/>
	<rect x="335.3" y="243.3" class="st19" width="4.3" height="17"/>
	<path class="st19" d="M380.8,325.8l-9.9,8.3l3.8,4.3c2.9,3.3,6.8,5.6,11,6.6c2.1-5.8,1.1-12.6-3.4-17.5L380.8,325.8z"/>
</g>
<path class="st21" d="M375.2,338.9c2.8,3,6.4,5.1,10.4,6c1.6-4.5,1.4-9.6-0.9-13.9L375.2,338.9z"/>
<path class="st17" d="M403.6,312.5L375.8,282c-1.4-1.6-2.2-3.6-2.2-5.7l0-45.7c0-1.2-1-2.1-2.1-2.1l-29.8,0c-1.2,0-2.1,1-2.1,2.1
	v52.1c0,6.2,2.3,12.3,6.4,16.9l31.9,35.9c6.4,7.2,17.5,7.8,24.6,1.3l0,0C409.4,330.4,409.9,319.6,403.6,312.5z"/>
<path class="st18" d="M371.5,228.4h-29.8c-1.2,0-2.1,1-2.1,2.1v14.9h34.1v-14.9C373.6,229.4,372.7,228.4,371.5,228.4z"/>
<g>
	<path class="st19" d="M343.8,245.5h-4.3v-14.9c0-1.2,1-2.1,2.1-2.1h2.1L343.8,245.5L343.8,245.5z"/>
	<rect x="348.1" y="228.4" class="st19" width="4.3" height="17"/>
	<rect x="356.6" y="228.4" class="st19" width="4.3" height="17"/>
	<rect x="365.1" y="228.4" class="st19" width="4.3" height="17"/>
</g>
<rect x="339.5" y="245.5" class="st20" width="34.1" height="4.3"/>
<g>
	<path class="st18" d="M358.7,293.4c0-10-8.1-18.1-18.1-18.1c-0.4,0-0.7,0-1.1,0.1v7.3c0,6.2,2.3,12.3,6.4,16.9l6.6,7.4
		C356.3,303.7,358.7,298.8,358.7,293.4z"/>
	<path class="st18" d="M402.4,336.8L402.4,336.8c7-6.4,7.5-17.2,1.1-24.3l-1.5-1.7l-26.5,22.1l2.3,2.6
		C384.3,342.7,395.3,343.3,402.4,336.8z"/>
</g>
<g>
	<path class="st19" d="M340.6,279.6c-0.4,0-0.7,0-1.1,0.1v3c0,6.2,2.3,12.3,6.4,16.9l3.8,4.2c2.9-2.5,4.7-6.3,4.7-10.4
		C354.4,285.8,348.2,279.6,340.6,279.6z"/>
	<path class="st19" d="M402.4,336.8L402.4,336.8c5.9-5.4,7.2-14,3.6-20.7l-25.9,21.6C386.7,342.8,396.1,342.6,402.4,336.8z"/>
</g>
<g>
	<path class="st22" d="M241.7,433.3c0,4.3-3.4,7.7-7.7,7.7H86.5c-4.1,0-7.7-3.4-7.7-7.7V325.9c0-1.3,1-2.5,2.4-2.8
		c12.9-3,23.1-30.1,23.1-63.1v-3.1c0-1.5,1-2.8,2.5-3l21.2-2.7c0.9-0.1,1.8,0.1,2.4,0.9c6.4,6.2,17.3,11.9,29.8,11.9
		c12.4,0,23.4-5.6,29.8-11.9c0.6-0.6,1.5-0.9,2.4-0.9l21.3,2.7c1.5,0.1,2.5,1.5,2.5,3v3.1c0,33,10.2,60.2,23.1,63.1
		c1.3,0.3,2.4,1.5,2.4,2.8C241.6,325.9,241.7,433.3,241.7,433.3z"/>
	<path class="st23" d="M160.3,310.5c21.3,0,38.5-22.5,38.5-50.4c0-2.8-0.1-5.5-0.4-8.1l-5.8-0.7c-0.9-0.1-1.8,0.1-2.4,0.9
		c-6.4,6.2-17.3,11.9-29.8,11.9s-23.4-5.6-29.8-11.9c-0.6-0.6-1.5-0.9-2.4-0.9l-5.8,0.7c-0.6,2.7-0.7,5.3-0.7,8.1
		C121.7,288,138.9,310.5,160.3,310.5z"/>
	<path class="st24" d="M121.9,252c2.5,13,18.7,23,38.2,23s35.7-9.9,38.4-23l-5.9-0.7h-0.7c-0.6,0.1-1.2,0.3-1.6,0.9
		c-6.4,6.2-17.3,11.9-29.8,11.9s-23.4-5.6-29.8-11.9c-0.4-0.4-1-0.7-1.6-0.9h-0.7C128.2,251.2,121.9,252,121.9,252z"/>
	<path class="st25" d="M194.8,251.2c0.3,3,0.6,5.9,0.6,8.9c0,26.1-15.7,47.4-35.1,47.4s-35.1-21.2-35.1-47.4c0-3.1,0.3-6.1,0.6-8.9
		h-6.4c-0.3,3-0.6,5.9-0.6,8.9c0,29.3,18.7,53.3,41.5,53.3s41.5-24,41.5-53.3c0-3-0.3-5.9-0.6-8.9
		C201.1,251.2,194.8,251.2,194.8,251.2z"/>
	<path class="st26" d="M188.4,328.3h20.7c0.9,0,1.5,0.6,1.5,1.5v8.9c0,0.9-0.6,1.5-1.5,1.5h-20.7c-0.9,0-1.5-0.6-1.5-1.5v-8.9
		C186.9,329,187.5,328.3,188.4,328.3z"/>
	<path class="st27" d="M154.8,397.6h-16.4c-0.4,0-0.4-0.4-0.3-0.6c3-3,6.8-5.5,10.4-8.1c4.7-3.7,8.7-7.7,8.7-13.9
		c0-8.4-6.8-12.3-15.1-12.3c-7,0-13.3,4-13.8,11.4c0,2.1,1,3,3.1,3.1c1.9,0.3,4-0.4,4.4-2.5c0.7-3.4,3.3-5,6.4-5
		c4.3,0,6.8,2.2,6.8,6.2c0,3.6-3.7,6.8-7.1,9.5c-4.3,3.3-8.3,6.2-12,10.2c-0.9,1-2.1,3-2.1,5.5c0,3.6,0.9,4.6,4.1,4.6h23
		c2.1,0,2.7-1.8,2.7-3.6C157.3,400,156.7,397.6,154.8,397.6L154.8,397.6z M180.7,378.4c-0.4,0-0.6-0.4-0.3-0.7l8-7.9
		c0.9-0.9,1.6-1.8,1.6-3.3c0.1-2.1-0.3-4.1-2.4-4.1h-21c-2.1,0-2.5,2.4-2.5,4.1c0,1.8,0.4,3.6,2.5,3.6h12.3
		c-0.9,0.7-1.6,1.3-2.4,2.2l-5.2,5.3c-1,1.2-1.5,2.5-0.7,4.1c0.6,1.5,1.8,2.2,3.1,2.2c5.2,0,11.1,0.9,11.1,7.6c0,3.9-2.8,7-7,7
		c-3.6,0-5.6-1.2-7.3-4.3c-1-1.8-3-2.1-4.9-1.3c-2.1,0.9-3,2.7-1.9,4.7c2.5,5.3,7.9,7.6,13.9,7.6c8.7,0,15.3-5.6,15.4-14.4
		C192.8,384,188,379.1,180.7,378.4z"/>
	<path class="st28" d="M81.1,323.1c-1.3,0.3-2.4,1.5-2.4,2.8v107.4c0,4.3,3.4,7.7,7.7,7.7h2.7V317.9
		C86.6,320.6,83.9,322.3,81.1,323.1z M239.4,323.1c-2.8-0.6-5.5-2.5-8-5.2v123h2.7c4.1,0,7.7-3.4,7.7-7.7V325.9
		C241.7,324.4,240.7,323.4,239.4,323.1z"/>
</g>
<path class="st29" d="M366.2,404.6h-79.3v-34.2c-8,0-12.6,6.5-12.6,14.4v28.8c0,8,6.5,14.4,14.4,14.4h75.7c8,0,14.4-6.5,14.4-14.4
	v-28.8c0-8-4.7-14.4-12.6-14.4V404.6z"/>
<g>
	<path class="st8" d="M323,404.6v-28.8c0-2,1.6-3.6,3.6-3.6s3.6,1.6,3.6,3.6v28.8l0,0H323L323,404.6z"/>
	<path class="st8" d="M308.6,404.6v-28.8c0-2,1.6-3.6,3.6-3.6s3.6,1.6,3.6,3.6v28.8l0,0H308.6L308.6,404.6z"/>
	<path class="st8" d="M294.1,404.6v-28.8c0-2,1.6-3.6,3.6-3.6s3.6,1.6,3.6,3.6v28.8l0,0H294.1L294.1,404.6z"/>
	<path class="st8" d="M351.8,404.6v-28.8c0-2,1.6-3.6,3.6-3.6s3.6,1.6,3.6,3.6v28.8l0,0H351.8L351.8,404.6z"/>
	<path class="st8" d="M337.4,404.6v-28.8c0-2,1.6-3.6,3.6-3.6s3.6,1.6,3.6,3.6v28.8l0,0H337.4L337.4,404.6z"/>
</g>
</svg>
