<?xml version="1.0" encoding="utf-8"?>
<!-- Generator: Adobe Illustrator 22.1.0, SVG Export Plug-In . SVG Version: 6.00 Build 0)  -->
<svg version="1.1" id="Layer_1" xmlns="http://www.w3.org/2000/svg" xmlns:xlink="http://www.w3.org/1999/xlink" x="0px" y="0px"
	 viewBox="0 0 336.7 400" style="enable-background:new 0 0 336.7 400;" xml:space="preserve">
<style type="text/css">
	.st0{fill:#ED1C26;}
	.st1{fill:#B62B32;}
	.st2{fill:#EF4E28;}
	.st3{fill:#FFCABA;}
	.st4{fill:#FFDCD2;}
	.st5{fill:#E5B5A7;}
	.st6{fill:#2394BC;}
	.st7{fill:#44A4C6;}
	.st8{fill:#1F85A9;}
	.st9{fill:#39B54A;}
	.st10{fill:#009245;}
	.st11{fill:#8CC63F;}
	.st12{fill:#CB94BC;}
	.st13{fill:#AF80A3;}
	.st14{fill:#E19AC3;}
	.st15{fill:#490A3D;}
	.st16{fill:#FFFFFF;}
	.st17{fill:#93278F;}
	.st18{fill:#662D91;}
	.st19{fill:#C41B8B;}
	.st20{fill:#FAA81E;}
	.st21{fill:#F8991D;}
	.st22{fill:#FEC215;}
</style>
<g>
	<g>
		<path class="st0" d="M58,271.7l195.9-121.2c0,0,25.1-3.7,26-2.5c0.9,1.3-9.1,25-9.1,25l-196,121.1c-2.6,2-6.2,1.5-8.1-1.2
			l-9.9-13.1C54.9,277.3,55.5,273.6,58,271.7z"/>
		<path class="st1" d="M267.5,166.6L66.2,292.3l0.5,0.6c2,2.6,5.5,3.1,8.1,1.1l195.8-121.3c0,0,0.2-0.5,0.5-1.2L267.5,166.6
			L267.5,166.6z"/>
		<path class="st2" d="M56.4,273.5c-1.1,2-1.1,4.5,0.4,6.4l1,1.3l201.3-125.8l-3.8-5c-0.7,0-1,0.2-1.2,0.2
			C253.9,150.4,56.4,273.5,56.4,273.5z"/>
		<path class="st3" d="M279.9,148.2l-0.3-0.4c-2.6-0.8-24.4,2.5-25.7,2.6l-0.1,0c0,0,0.5,6.4,1.4,7.7c1,1.3,6,2.2,7,3.4
			c1,1.3,0.4,6.4,1.4,7.7c1,1.3,6.7,3.4,7,3.4C270.7,172.8,279.9,151.1,279.9,148.2L279.9,148.2z"/>
		<path class="st4" d="M280,148.4c-0.5,0.6-3,3.9-16.1,20.9c1,1.3,6.7,3.4,7,3.4C270.7,172.8,279.4,152.3,280,148.4z"/>
		<path class="st5" d="M280,148.4l0-0.2l-0.3-0.4c-2.6-0.8-24.4,2.5-25.7,2.6l-0.1,0c0,0,0.4,6.4,1.4,7.7
			C275.9,150,279.4,148.7,280,148.4z"/>
		<path class="st0" d="M275.4,151.9c0.6,0.8,1.8,1.6,3,1.9c1.1-3.1,1.8-5.5,1.6-5.8c-0.2-0.4-2.5-0.3-5.5-0.1
			C274.2,149.2,274.6,150.9,275.4,151.9z"/>
	</g>
	<g>
		<path class="st6" d="M159.9,333.8l-41.6-226.5c0,0,5.6-24.7,7.1-25.1c1.5-0.4,19.9,17.6,19.9,17.6l41.6,226.5c1,3.2-0.9,6.3-4,7.2
			l-15.9,4.4C163.9,338.6,160.8,336.8,159.9,333.8z"/>
		<path class="st7" d="M138.1,100.4l44,233.2l0.8-0.2c3.1-0.9,4.9-4,4-7.2L145.2,99.7c0,0-0.4-0.3-1-1L138.1,100.4L138.1,100.4z"/>
		<path class="st8" d="M160.9,335.9c1.4,1.7,3.8,2.6,6.1,2l1.6-0.5l-44-233.2l-6.1,1.7c-0.2,0.7-0.3,1.1-0.3,1.2
			C118.2,107.1,160.9,335.9,160.9,335.9z"/>
		<path class="st3" d="M125.6,82.1l-0.5,0.1c-1.7,2.2-6.6,23.6-6.9,24.9v0.1c0,0,6.1,1.9,7.7,1.4c1.6-0.5,4.2-4.8,5.7-5.3
			c1.6-0.5,6,1.9,7.7,1.4c1.6-0.5,5.5-5.1,5.7-5.3C145.2,99.7,128.2,83.1,125.6,82.1L125.6,82.1z"/>
		<path class="st4" d="M125.8,82.2c0.4,0.7,2.6,4.2,13.6,22.7c1.6-0.5,5.5-5.1,5.7-5.3C145.2,99.7,129.2,84.1,125.8,82.2z"/>
		<path class="st5" d="M125.8,82.2l-0.2-0.1l-0.5,0.1c-1.7,2.2-6.6,23.6-6.9,24.9v0.1c0,0,6,1.9,7.7,1.5
			C125.8,86.5,125.8,82.7,125.8,82.2z"/>
		<path class="st6" d="M127.3,87.6c1.1-0.3,2.1-1.1,2.9-2.1c-2.5-2.2-4.4-3.7-4.9-3.5c-0.4,0.1-1.1,2.2-2,5.1
			C124.4,87.8,126,88,127.3,87.6z"/>
	</g>
	<g>
		<path class="st9" d="M237.2,116.8L96.1,298.9c0,0-22.1,12.2-23.4,11.5c-1.3-0.9-0.2-26.6-0.2-26.6l141.1-182.1
			c1.7-2.8,5.3-3.5,8-1.7l13.9,8.9C238.1,110.5,238.9,114.1,237.2,116.8z"/>
		<path class="st10" d="M77.7,288.5l144.5-188.3l-0.7-0.4c-2.7-1.7-6.3-1-8,1.8l-141,182.2c0,0-0.1,0.5-0.1,1.3L77.7,288.5
			L77.7,288.5z"/>
		<path class="st11" d="M238.1,114.6c0.3-2.2-0.6-4.6-2.6-5.9l-1.4-0.9L89.5,296.1l5.4,3.4c0.6-0.3,0.9-0.5,1.1-0.6
			C96.1,298.9,238.1,114.6,238.1,114.6z"/>
		<path class="st3" d="M72.5,310l0.4,0.3c2.8-0.2,22-10.8,23.2-11.4l0.1-0.1c0,0-2.6-5.9-4-6.7c-1.4-0.9-6.4,0.1-7.7-0.8
			c-1.4-0.9-2.6-5.9-4-6.7c-1.4-0.9-7.4-0.8-7.7-0.8C72.4,283.8,71.4,307.3,72.5,310L72.5,310z"/>
		<path class="st4" d="M72.4,309.9c0.2-0.8,1.5-4.7,7.9-25.2c-1.4-0.9-7.4-0.8-7.7-0.8C72.4,283.8,71.4,306.1,72.4,309.9z"/>
		<path class="st5" d="M72.4,309.9l0,0.2l0.4,0.3c2.8-0.2,22-10.8,23.2-11.4l0.1-0.1c0,0-2.6-5.9-4-6.7
			C75.5,307,72.8,309.4,72.4,309.9z"/>
		<path class="st9" d="M75.4,305c-0.9-0.6-2.3-0.9-3.4-0.7c0,3.4,0.2,5.7,0.6,6c0.3,0.3,2.5-0.6,5.1-1.8
			C77.5,307.1,76.5,305.7,75.4,305z"/>
	</g>
</g>
<g>
	<path class="st12" d="M206.5,340.8l-143.8-180c0,0-6.7-24.4-5.6-25.5c1.1-1.1,25.8,6.1,25.8,6.1l143.8,180c2.3,2.3,2.2,6-0.2,8.2
		l-11.9,11.3C212.3,343.1,208.7,343.1,206.5,340.8z"/>
	<path class="st13" d="M77,145.4l149,184.7l0.6-0.5c2.4-2.2,2.4-5.9,0.1-8.2L82.9,141.4c0,0-0.5-0.1-1.3-0.4L77,145.4L77,145.4z"/>
	<path class="st14" d="M208.3,342.1c2.1,0.9,4.6,0.6,6.3-1.1l1.1-1.1l-149-184.8l-4.5,4.5c0.2,0.6,0.3,1,0.3,1.2L208.3,342.1z"/>
	<path class="st3" d="M57.2,135.2l-0.4,0.3c-0.4,2.7,5.4,23.9,5.7,25.2l0.1,0c0,0,6.4-1.2,7.5-2.3c1.1-1.1,1.5-6.2,2.6-7.3
		s6.2-1.1,7.5-2.3c1.1-1.1,2.6-7.1,2.6-7.3C82.9,141.4,60.1,134.8,57.2,135.2L57.2,135.2z"/>
	<path class="st4" d="M57.5,135.2c0.7,0.4,4.2,2.5,22.6,13.6c1.1-1.1,2.6-7.1,2.6-7.3C82.9,141.4,61.4,135.2,57.5,135.2z"/>
	<path class="st5" d="M57.5,135.2l-0.2,0l-0.4,0.3c-0.4,2.7,5.4,23.9,5.7,25.2l0.1,0c0,0,6.2-1.1,7.5-2.3
		C59.5,139,57.8,135.7,57.5,135.2z"/>
	<path class="st12" d="M61.4,139.3c0.8-0.7,1.4-1.9,1.5-3.2c-3.3-0.7-5.6-1.2-6-0.9c-0.3,0.3,0,2.6,0.6,5.4
		C59,140.7,60.5,140.1,61.4,139.3z"/>
</g>
<g>
	<circle class="st15" cx="238.4" cy="43.8" r="22"/>
</g>
<g>
	<g>
		<circle class="st8" cx="38.3" cy="105.5" r="22"/>
	</g>
	<g>
		<path class="st16" d="M44,109.1c0.3,0.3,0.5,0.7,0.5,1.2c0,1.1-0.7,1.7-2,1.7h-1.7v2.7c0,0.7-0.2,1.2-0.6,1.6
			c-0.4,0.4-0.9,0.6-1.5,0.6s-1.1-0.2-1.5-0.6c-0.4-0.4-0.6-0.9-0.6-1.6V112h-8.9c-0.6,0-1.1-0.2-1.4-0.5s-0.5-0.8-0.5-1.3
			s0.2-1.1,0.5-1.6l10.4-15c0.2-0.3,0.5-0.6,0.8-0.7s0.7-0.3,1-0.3c0.6,0,1.1,0.2,1.5,0.6s0.6,0.9,0.6,1.6v13.8h1.7
			C43.2,108.7,43.7,108.8,44,109.1z M30.3,108.7h6.3v-9.1L30.3,108.7z"/>
		<path class="st16" d="M47,99.2c-0.6-0.6-0.9-1.3-0.9-2.2c0-0.9,0.3-1.6,0.9-2.2s1.4-0.9,2.3-0.9s1.6,0.3,2.3,0.9
			c0.6,0.6,0.9,1.3,0.9,2.2c0,0.9-0.3,1.6-0.9,2.2s-1.4,0.9-2.3,0.9S47.6,99.8,47,99.2z M50.2,98c0.3-0.3,0.4-0.6,0.4-1
			s-0.1-0.7-0.4-1s-0.6-0.4-1-0.4s-0.7,0.1-1,0.4s-0.4,0.6-0.4,1s0.1,0.7,0.4,1s0.6,0.4,1,0.4S49.9,98.2,50.2,98z"/>
	</g>
</g>
<g>
	<circle class="st8" cx="296.9" cy="124.9" r="22"/>
</g>
<g>
	<path class="st16" d="M304.1,134.3c0,1.2-0.7,1.8-2,1.8h-11.4c-1.4,0-2.1-0.6-2.1-1.8c0-1.1,0.7-1.7,2.1-1.7h3.5v-15.4l-3.2,2
		c-0.3,0.2-0.6,0.3-0.8,0.3c-0.5,0-0.9-0.2-1.2-0.6c-0.3-0.4-0.5-0.9-0.5-1.4c0-0.7,0.3-1.2,0.9-1.5l5.2-3.2
		c0.7-0.4,1.3-0.6,1.9-0.6s1.1,0.2,1.5,0.6s0.6,0.9,0.6,1.6v18.3h3.5C303.4,132.6,304.1,133.2,304.1,134.3z"/>
	<path class="st16" d="M303.9,118.6c-0.6-0.6-0.9-1.3-0.9-2.2s0.3-1.6,0.9-2.2c0.6-0.6,1.4-0.9,2.3-0.9s1.6,0.3,2.3,0.9
		c0.6,0.6,0.9,1.3,0.9,2.2s-0.3,1.6-0.9,2.2c-0.6,0.6-1.4,0.9-2.3,0.9S304.5,119.2,303.9,118.6z M307.1,117.3c0.3-0.3,0.4-0.6,0.4-1
		s-0.1-0.7-0.4-1c-0.3-0.3-0.6-0.4-1-0.4s-0.7,0.1-1,0.4s-0.4,0.6-0.4,1s0.1,0.7,0.4,1c0.3,0.3,0.6,0.4,1,0.4
		C306.6,117.8,306.9,117.6,307.1,117.3z"/>
</g>
<g>
	<circle class="st15" cx="57.8" cy="343.6" r="19.5"/>
</g>
<g>
	<circle class="st15" cx="283.8" cy="336.8" r="19.9"/>
</g>
<g>
	<path class="st16" d="M238.1,48c-0.2-0.3-0.3-0.6-0.3-1.1c0-1.2,0.2-2.2,0.7-3.1c0.4-0.8,1.1-1.7,1.9-2.7c0.7-0.8,1.1-1.5,1.5-2
		c0.3-0.5,0.5-1.1,0.5-1.8s-0.3-1.3-0.8-1.7s-1.3-0.6-2.2-0.6c-0.8,0-1.6,0.2-2.3,0.5s-1.6,0.8-2.5,1.5c-0.6,0.3-1,0.5-1.4,0.5
		s-0.7-0.2-1-0.5s-0.4-0.7-0.4-1.2c0-0.6,0.3-1.2,0.8-1.6c0.9-0.8,2-1.4,3.3-1.9s2.5-0.7,3.8-0.7s2.5,0.2,3.6,0.7s1.9,1.1,2.4,1.9
		s0.9,1.7,0.9,2.8s-0.3,2.1-0.8,3c-0.6,0.8-1.4,1.8-2.4,2.9c-0.9,0.9-1.6,1.7-2,2.3c-0.5,0.6-0.7,1.3-0.8,2.1
		c-0.1,0.4-0.2,0.6-0.4,0.8s-0.5,0.3-0.9,0.3C238.6,48.3,238.3,48.2,238.1,48z M237.3,54.6c-0.5-0.5-0.7-1.1-0.7-1.8
		s0.2-1.3,0.7-1.8s1-0.7,1.7-0.7s1.3,0.2,1.7,0.7c0.5,0.5,0.7,1.1,0.7,1.8s-0.2,1.3-0.7,1.8s-1.1,0.7-1.7,0.7
		C238.3,55.3,237.7,55,237.3,54.6z"/>
</g>
<g>
	<path class="st16" d="M57.5,348.1c-0.2-0.3-0.3-0.6-0.3-1.1c0-1.2,0.2-2.2,0.7-3.1c0.4-0.8,1.1-1.7,1.9-2.7c0.7-0.8,1.1-1.5,1.5-2
		c0.3-0.5,0.5-1.1,0.5-1.8c0-0.7-0.3-1.3-0.8-1.7s-1.3-0.6-2.2-0.6c-0.8,0-1.6,0.2-2.3,0.5s-1.6,0.8-2.5,1.5c-0.6,0.3-1,0.5-1.4,0.5
		s-0.7-0.2-1-0.5s-0.4-0.7-0.4-1.2c0-0.6,0.3-1.2,0.8-1.6c0.9-0.8,2-1.4,3.3-1.9s2.5-0.7,3.8-0.7s2.5,0.2,3.6,0.7s1.9,1.1,2.4,1.9
		s0.9,1.7,0.9,2.8c0,1.1-0.3,2.1-0.8,3c-0.6,0.8-1.4,1.8-2.4,2.9c-0.9,0.9-1.6,1.7-2,2.3c-0.5,0.6-0.7,1.3-0.8,2.1
		c-0.1,0.4-0.2,0.6-0.4,0.8c-0.2,0.2-0.5,0.3-0.9,0.3C58,348.5,57.7,348.4,57.5,348.1z M56.7,354.7c-0.5-0.5-0.7-1.1-0.7-1.8
		s0.2-1.3,0.7-1.8s1-0.7,1.7-0.7s1.3,0.2,1.7,0.7c0.5,0.5,0.7,1.1,0.7,1.8s-0.2,1.3-0.7,1.8s-1.1,0.7-1.7,0.7
		C57.7,355.4,57.2,355.2,56.7,354.7z"/>
</g>
<g>
	<path class="st16" d="M282.9,341.4c-0.2-0.3-0.3-0.6-0.3-1.1c0-1.2,0.2-2.2,0.7-3.1c0.4-0.8,1.1-1.7,1.9-2.7c0.7-0.8,1.1-1.5,1.5-2
		c0.3-0.5,0.5-1.1,0.5-1.8c0-0.7-0.3-1.3-0.8-1.7s-1.3-0.6-2.2-0.6c-0.8,0-1.6,0.2-2.3,0.5c-0.7,0.3-1.6,0.8-2.5,1.5
		c-0.6,0.3-1,0.5-1.4,0.5s-0.7-0.2-1-0.5c-0.3-0.3-0.4-0.7-0.4-1.2c0-0.6,0.3-1.2,0.8-1.6c0.9-0.8,2-1.4,3.3-1.9s2.5-0.7,3.8-0.7
		s2.5,0.2,3.6,0.7s1.9,1.1,2.4,1.9s0.9,1.7,0.9,2.8c0,1.1-0.3,2.1-0.8,3c-0.6,0.8-1.4,1.8-2.4,2.9c-0.9,0.9-1.6,1.7-2,2.3
		c-0.5,0.6-0.7,1.3-0.8,2.1c-0.1,0.4-0.2,0.6-0.4,0.8c-0.2,0.2-0.5,0.3-0.9,0.3C283.4,341.8,283.1,341.6,282.9,341.4z M282.1,348
		c-0.5-0.5-0.7-1.1-0.7-1.8s0.2-1.3,0.7-1.8s1-0.7,1.7-0.7s1.3,0.2,1.7,0.7c0.5,0.5,0.7,1.1,0.7,1.8s-0.2,1.3-0.7,1.8
		s-1.1,0.7-1.7,0.7C283.2,348.7,282.6,348.5,282.1,348z"/>
</g>
<g>
	<path class="st17" d="M104.8,146.9L250.4,278c0,0,10.7,22.9,9.8,24.2c-0.9,1.3-26.5-1.6-26.5-1.6L88.2,169.5
		c-2.7-1.9-3.2-5.5-1.2-8.1l9.8-13.2C98.6,145.6,102.3,145,104.8,146.9z"/>
	<path class="st18" d="M238.8,295.7l-151.5-135l-0.5,0.7c-1.9,2.6-1.3,6.2,1.2,8.1l145.5,131.1c0,0,0.5,0,1.4,0.2L238.8,295.7
		L238.8,295.7z"/>
	<path class="st19" d="M102.8,146c-2.2-0.5-4.6,0.3-6,2.2l-1,1.3l151.4,134.9l3.7-5.1c-0.3-0.6-0.4-1-0.5-1.1
		C250.4,278.1,102.8,146,102.8,146z"/>
	<path class="st3" d="M260,302.4l0.3-0.4c0-2.8-9.3-22.7-9.9-23.9l-0.1-0.1c0,0-6,2.2-6.9,3.6c-1,1.3-0.4,6.4-1.3,7.7
		c-1,1.3-5.9,2.2-6.9,3.6c-1,1.3-1.3,7.4-1.3,7.7C233.7,300.5,257.2,303.2,260,302.4L260,302.4z"/>
	<path class="st4" d="M259.8,302.5c-0.8-0.3-4.6-1.8-24.7-9.6c-1,1.3-1.3,7.4-1.3,7.7C233.7,300.5,256,303.1,259.8,302.5z"/>
	<path class="st5" d="M259.8,302.5l0.2-0.1l0.3-0.4c0-2.8-9.3-22.7-9.9-23.9l-0.1-0.1c0,0-5.9,2.2-6.9,3.5
		C257.1,299.1,259.4,302,259.8,302.5z"/>
	<path class="st17" d="M255.2,299c-0.6,0.9-1,2.2-1,3.4c3.4,0.2,5.7,0.2,6-0.2c0.2-0.4-0.4-2.5-1.5-5.2
		C257.4,297.2,255.9,298,255.2,299z"/>
</g>
<g>
	<g>
		<circle class="st15" cx="116.9" cy="37.6" r="19.6"/>
	</g>
	<g>
		<path class="st16" d="M114.9,41.9c-0.2-0.3-0.3-0.6-0.3-1.1c0-1.2,0.2-2.2,0.7-3.1c0.4-0.8,1.1-1.7,1.9-2.7c0.7-0.8,1.1-1.5,1.5-2
			c0.3-0.5,0.5-1.1,0.5-1.8c0-0.7-0.3-1.3-0.8-1.7c-0.5-0.4-1.3-0.6-2.2-0.6c-0.8,0-1.6,0.2-2.3,0.5c-0.7,0.3-1.6,0.8-2.5,1.5
			c-0.6,0.3-1,0.5-1.4,0.5s-0.7-0.2-1-0.5c-0.3-0.3-0.4-0.7-0.4-1.2c0-0.6,0.3-1.2,0.8-1.6c0.9-0.8,2-1.4,3.3-1.9
			c1.3-0.5,2.5-0.7,3.8-0.7c1.3,0,2.5,0.2,3.6,0.7s1.9,1.1,2.4,1.9s0.9,1.7,0.9,2.8c0,1.1-0.3,2.1-0.8,3c-0.6,0.8-1.4,1.8-2.4,2.9
			c-0.9,0.9-1.6,1.7-2,2.3c-0.5,0.6-0.7,1.3-0.8,2.1c-0.1,0.4-0.2,0.6-0.4,0.8c-0.2,0.2-0.5,0.3-0.9,0.3
			C115.5,42.3,115.2,42.2,114.9,41.9z M114.2,48.5c-0.5-0.5-0.7-1.1-0.7-1.8s0.2-1.3,0.7-1.8s1-0.7,1.7-0.7c0.7,0,1.3,0.2,1.7,0.7
			c0.5,0.5,0.7,1.1,0.7,1.8s-0.2,1.3-0.7,1.8s-1.1,0.7-1.7,0.7C115.2,49.2,114.6,49,114.2,48.5z"/>
	</g>
</g>
<g>
	<path class="st20" d="M123.4,307L216,96c0,0,18.5-17.3,20-16.8c1.5,0.5,6.6,25.7,6.6,25.7L150,315.9c-1,3.1-4.3,4.8-7.4,3.6
		l-15.6-5.3C124,313.3,122.4,310,123.4,307z"/>
	<path class="st21" d="M236.2,101.6l-94.3,217.7l0.8,0.3c3.1,1.1,6.3-0.6,7.4-3.7l92.5-211c0,0-0.1-0.5-0.3-1.3L236.2,101.6
		L236.2,101.6z"/>
	<path class="st22" d="M123.1,309.3c0.2,2.2,1.7,4.3,3.9,5.1l1.5,0.5l94.4-217.7l-6.1-2c-0.5,0.5-0.8,0.8-1,0.9
		C216,96,123.1,309.3,123.1,309.3z"/>
	<path class="st3" d="M236.1,79.4l-0.5-0.2C233,80,216.9,95,216,95.9V96c0,0,4,5.1,5.5,5.5c1.5,0.5,6.2-1.6,7.7-1.1
		c1.5,0.5,3.9,5,5.5,5.5c1.5,0.5,7.5-1.1,7.7-1.1C242.5,104.9,237.8,81.8,236.1,79.4L236.1,79.4z"/>
	<path class="st4" d="M236.2,79.6c-0.1,0.8-0.3,5-1.4,26.3c1.5,0.5,7.5-1.1,7.7-1.1C242.5,104.9,238.1,83,236.2,79.6z"/>
	<path class="st5" d="M236.2,79.6l-0.1-0.2l-0.5-0.2C233,80,216.9,95,216,95.9V96c0,0,3.9,5,5.5,5.5C233.8,83.1,235.9,80,236.2,79.6
		z"/>
	<path class="st20" d="M234.4,84.9c1.1,0.4,2.4,0.3,3.5-0.1c-0.9-3.3-1.6-5.5-2-5.6c-0.4-0.1-2.2,1.1-4.5,3.1
		C232,83.5,233.3,84.5,234.4,84.9z"/>
</g>
</svg>
