<?xml version="1.0" encoding="utf-8"?>
<!-- Generator: Adobe Illustrator 22.1.0, SVG Export Plug-In . SVG Version: 6.00 Build 0)  -->
<svg version="1.1" id="Layer_1" xmlns="http://www.w3.org/2000/svg" xmlns:xlink="http://www.w3.org/1999/xlink" x="0px" y="0px"
	 viewBox="0 0 336.7 400" style="enable-background:new 0 0 336.7 400;" xml:space="preserve">
<style type="text/css">
	.st0{fill:#1F85A9;}
	.st1{enable-background:new    ;}
	.st2{fill:#FFFFFF;}
</style>
<g>
	<g>
		<circle class="st0" cx="117" cy="37" r="22"/>
	</g>
	<g class="st1">
		<path class="st2" d="M122.3,46.4c0,1.2-0.7,1.8-2,1.8h-12.9c-0.6,0-1-0.2-1.4-0.5c-0.3-0.3-0.5-0.8-0.5-1.3c0-0.7,0.3-1.3,0.8-1.8
			l7.7-8.3c0.9-1,1.6-2,2.1-2.9s0.7-1.7,0.7-2.6c0-1.1-0.3-1.9-0.9-2.4c-0.6-0.6-1.5-0.8-2.6-0.8c-0.9,0-1.8,0.2-2.7,0.5
			s-1.7,0.8-2.6,1.4c-0.2,0.2-0.5,0.3-0.7,0.4c-0.2,0.1-0.5,0.2-0.7,0.2c-0.4,0-0.7-0.2-1-0.5c-0.3-0.3-0.4-0.8-0.4-1.3
			c0-0.3,0.1-0.6,0.2-0.9c0.1-0.2,0.3-0.5,0.6-0.7c1-0.8,2.2-1.4,3.5-1.9c1.3-0.5,2.7-0.7,4-0.7c2.3,0,4.2,0.6,5.6,1.8
			c1.4,1.2,2.1,2.7,2.1,4.7c0,1.4-0.3,2.7-0.9,3.9c-0.6,1.2-1.6,2.6-3,4l-5.8,6.2h8.8C121.6,44.7,122.3,45.2,122.3,46.4z"/>
	</g>
	<g class="st1">
		<path class="st2" d="M125.7,30.6c-0.6-0.6-0.9-1.3-0.9-2.2s0.3-1.6,0.9-2.2c0.6-0.6,1.4-0.9,2.3-0.9c0.9,0,1.6,0.3,2.3,0.9
			c0.6,0.6,0.9,1.3,0.9,2.2s-0.3,1.6-0.9,2.2s-1.4,0.9-2.3,0.9C127.1,31.5,126.3,31.2,125.7,30.6z M128.9,29.4
			c0.3-0.3,0.4-0.6,0.4-1s-0.1-0.7-0.4-1c-0.3-0.3-0.6-0.4-1-0.4s-0.7,0.1-1,0.4c-0.3,0.3-0.4,0.6-0.4,1s0.1,0.7,0.4,1
			c0.3,0.3,0.6,0.4,1,0.4S128.7,29.7,128.9,29.4z"/>
	</g>
</g>
</svg>
