<?xml version="1.0" encoding="utf-8"?>
<!-- Generator: Adobe Illustrator 22.1.0, SVG Export Plug-In . SVG Version: 6.00 Build 0)  -->
<svg version="1.1" id="Layer_1" xmlns="http://www.w3.org/2000/svg" xmlns:xlink="http://www.w3.org/1999/xlink" x="0px" y="0px"
	 viewBox="0 0 336.7 400" style="enable-background:new 0 0 336.7 400;" xml:space="preserve">
<style type="text/css">
	.st0{fill:#1F85A9;}
	.st1{enable-background:new    ;}
	.st2{fill:#FFFFFF;}
</style>
<g>
	<g>
		<circle class="st0" cx="238.8" cy="43.6" r="22.4"/>
	</g>
	<g class="st1">
		<path class="st2" d="M240.6,40.4c1.1,0.6,2,1.5,2.6,2.7c0.6,1.2,0.9,2.5,0.9,4.1s-0.3,2.9-1,4.2c-0.7,1.2-1.6,2.1-2.8,2.8
			c-1.2,0.7-2.6,1-4.2,1c-3,0-5.4-1-7.1-3.2c-1.6-2-2.4-5.1-2.4-8.8c0-2.6,0.4-4.9,1.1-6.8c0.7-1.9,1.9-3.5,3.4-4.5
			c1.4-1,3.2-1.5,5.2-1.5c1.3,0,2.6,0.2,4,0.7c1.3,0.5,2.4,1.1,3.4,1.9c0.3,0.2,0.5,0.5,0.6,0.7s0.2,0.5,0.2,0.9
			c0,0.5-0.1,0.9-0.4,1.3c-0.3,0.3-0.6,0.5-1,0.5c-0.2,0-0.4,0-0.6-0.1s-0.5-0.2-0.7-0.4c-1.9-1.3-3.6-2-5.1-2c-1.6,0-2.9,0.8-4,2.3
			c-0.9,1.5-1.4,3.8-1.5,6.5c0.5-1,1.3-1.8,2.3-2.4c1-0.6,2.2-0.9,3.6-0.9C238.3,39.5,239.5,39.8,240.6,40.4z M238.9,50.6
			c0.7-0.8,1.1-1.9,1.1-3.3s-0.4-2.4-1.1-3.2c-0.7-0.8-1.7-1.2-3-1.2s-2.3,0.4-3.2,1.2c-0.8,0.8-1.2,1.8-1.2,3.2
			c0,1.3,0.4,2.4,1.2,3.3c0.8,0.8,1.8,1.2,3.2,1.2C237.1,51.8,238.2,51.4,238.9,50.6z"/>
	</g>
	<g class="st1">
		<path class="st2" d="M247.5,37.2c-0.6-0.6-0.9-1.3-0.9-2.2c0-0.9,0.3-1.6,0.9-2.2c0.6-0.6,1.4-0.9,2.3-0.9c0.9,0,1.6,0.3,2.3,0.9
			c0.6,0.6,0.9,1.3,0.9,2.2c0,0.9-0.3,1.6-0.9,2.2c-0.6,0.6-1.4,0.9-2.3,0.9C248.9,38.1,248.1,37.8,247.5,37.2z M250.8,35.9
			c0.3-0.3,0.4-0.6,0.4-1c0-0.4-0.1-0.7-0.4-1s-0.6-0.4-1-0.4c-0.4,0-0.7,0.1-1,0.4s-0.4,0.6-0.4,1c0,0.4,0.1,0.7,0.4,1
			s0.6,0.4,1,0.4C250.1,36.3,250.6,36.2,250.8,35.9z"/>
	</g>
</g>
</svg>
