<?xml version="1.0" encoding="utf-8"?>
<!-- Generator: Adobe Illustrator 22.1.0, SVG Export Plug-In . SVG Version: 6.00 Build 0)  -->
<svg version="1.1" id="Layer_1" xmlns="http://www.w3.org/2000/svg" xmlns:xlink="http://www.w3.org/1999/xlink" x="0px" y="0px"
	 viewBox="0 0 400 400" style="enable-background:new 0 0 400 400;" xml:space="preserve">
<style type="text/css">
	.st0{fill:#60025E;}
	.st1{fill:#FFFFFF;}
	.st2{fill:#275D68;}
	.st3{fill:#CC2323;}
	.st4{fill:#FF633E;}
	.st5{fill:#FCF1D4;}
	.st6{fill:#E83A3A;}
	.st7{fill:#4F1237;}
	.st8{fill:#330924;}
	.st9{fill:#00CDC8;}
	.st10{fill:none;stroke:#CC251D;stroke-width:3;stroke-linecap:round;stroke-linejoin:round;stroke-miterlimit:10;}
	.st11{fill:#AA1713;}
	.st12{clip-path:url(#SVGID_2_);}
	.st13{fill:#204C5B;}
	.st14{fill:#13363F;}
</style>
<circle class="st0" cx="200" cy="340.1" r="37.7"/>
<g>
	<path class="st1" d="M197.2,350.6c-0.5-0.6-0.7-1.3-0.7-2.3c0-2.6,0.5-4.8,1.4-6.6c0.9-1.8,2.3-3.8,4.1-5.9
		c1.4-1.7,2.5-3.1,3.1-4.2c0.7-1.1,1-2.4,1-3.8c0-1.6-0.6-2.8-1.7-3.7c-1.2-0.9-2.7-1.4-4.7-1.4c-1.7,0-3.3,0.4-4.9,1.1
		c-1.6,0.7-3.4,1.8-5.5,3.2c-1.2,0.7-2.1,1-2.9,1c-0.8,0-1.5-0.4-2.1-1.1s-0.9-1.6-0.9-2.6c0-1.4,0.6-2.5,1.7-3.3c2-1.7,4.3-3,7-4
		s5.4-1.5,8.1-1.5c2.9,0,5.4,0.5,7.7,1.5c2.2,1,4,2.4,5.2,4.1c1.3,1.7,1.9,3.8,1.9,6c0,2.5-0.6,4.6-1.8,6.4s-2.9,3.9-5.2,6.1
		c-1.9,2-3.4,3.6-4.4,5s-1.6,2.9-1.8,4.6c-0.1,0.8-0.5,1.3-1,1.7c-0.5,0.4-1.1,0.6-1.9,0.6C198.3,351.4,197.7,351.2,197.2,350.6z
		 M195.5,364.8c-1-1-1.5-2.3-1.5-3.8s0.5-2.8,1.5-3.8s2.2-1.5,3.8-1.5c1.5,0,2.8,0.5,3.8,1.5s1.5,2.3,1.5,3.8s-0.5,2.8-1.5,3.8
		s-2.3,1.5-3.7,1.5C197.8,366.3,196.5,365.8,195.5,364.8z"/>
</g>
<g>
	<g>
		<path class="st2" d="M102.6,304.8c-10.8,0-36.9-5.3-45.6-54.4c-0.1-0.8,0-1.5,0.5-2.2c-2.2-10-3.2-21.1-3.2-32.9
			c0-17.3,1.9-34.7,5.5-51.8c0,0,0-0.1,0-0.1C57.4,117.5,74.9,90.9,93.2,85c3.2-1,6.4-1.6,9.5-1.6c6.3,0,15.3,2.2,22.3,12.8
			c6.6,10.1,10.2,25.9,10.5,47c0.1,7.9-0.2,15.5-1,22.8c2.3,15.5,3.5,32.1,3.5,49.3c0,11.9-0.7,23-2.1,33c0.5,0.6,0.7,1.4,0.6,2.2
			C133.1,288,122.7,304.8,102.6,304.8C102.6,304.8,102.6,304.8,102.6,304.8L102.6,304.8z"/>
		<path class="st2" d="M102.7,86.5c13.8,0,29.1,11.6,29.8,56.9c0.1,8.3-0.2,15.8-1,22.8c2.3,15,3.5,31.7,3.5,49.3
			c0,13.5-0.9,25.1-2.4,35c0.3,0,0.7-0.1,1-0.1c-3.6,38.2-14,51.5-31,51.5c0,0,0,0,0,0c0,0,0,0,0,0c0,0,0,0,0,0
			c-17.1,0-35.8-13.4-42.7-51.9c0.3,0,0.7,0.1,1,0.1c-2.3-9.8-3.7-21.3-3.7-34.6c0-18.4,2.1-35.8,5.5-51.3l0,0c0-0.1,0-0.2,0.1-0.3
			c-2.3-45,14.8-70.5,31.4-75.9C96.8,87,99.7,86.5,102.7,86.5 M102.7,80.5c-3.4,0-6.9,0.6-10.5,1.7c-19.4,6.2-37.8,33.7-35.6,81.1
			c-3.7,17.2-5.5,34.7-5.5,52.1c0,11.6,1,22.5,3.1,32.5c-0.4,1-0.4,2-0.3,3.1c3.4,19,9.8,33.6,19,43.4c8.2,8.8,18.4,13.4,29.5,13.4
			c0,0,0.1,0,0.1,0c10.9,0,19.5-4.8,25.6-14.2c5.8-9.1,9.5-23.1,11.4-42.8c0.1-1.1-0.1-2.1-0.5-3.1c1.3-9.8,1.9-20.7,1.9-32.4
			c0-17.2-1.2-33.8-3.5-49.4c0.8-7.2,1.1-14.9,1-22.8c-0.4-21.7-4.1-38.1-11-48.6C119.8,82.9,109.8,80.5,102.7,80.5L102.7,80.5z"/>
	</g>
	<g>
		<g>
			<path id="SVGCleanerId_1" class="st3" d="M135,215.4C135,150,115.6,107,94.1,107c-11.8,0-36.9,43-36.9,108.4
				c0,65.4,33.6,86.4,45.4,86.4C114.4,301.8,135,280.8,135,215.4z"/>
		</g>
		<g>
			<path id="SVGCleanerId_1_1_" class="st3" d="M135,215.4C135,150,115.6,107,94.1,107c-11.8,0-36.9,43-36.9,108.4
				c0,65.4,33.6,86.4,45.4,86.4C114.4,301.8,135,280.8,135,215.4z"/>
		</g>
	</g>
	<g>
		<path id="SVGCleanerId_1_2_" class="st4" d="M135,215.4C135,150,115.6,107,94.1,107c-11.8,0-36.9,43-36.9,108.4
			c0,65.4,33.6,86.4,45.4,86.4C114.4,301.8,135,280.8,135,215.4z"/>
	</g>
	<path class="st4" d="M102.6,301.8c-2.6,0-6.3-1-10.4-3.3L62.6,164.1c8.6-39.7,23-57.1,31.5-57.1c21.5,0,40.9,43,40.9,108.4
		C135,280.8,114.4,301.8,102.6,301.8z"/>
	<path class="st4" d="M63.1,169.3c4.9,54.9,14.9,73.9,33,73.9c-40,0,38.2,2.3,36.5-99.9c-1-55.2-23.4-60.3-38.5-55.5
		C76.8,93.4,58.8,121.7,63.1,169.3z"/>
	<path class="st5" d="M59.9,249.9c11.2,1.3,24.4,2.9,38.4,2.9c12.8,0,24.8-1.4,35.3-2.6c-3.6,38.3-14,51.5-31.1,51.5
		C85.4,301.8,66.8,288.4,59.9,249.9z"/>
	<path class="st6" d="M127.7,139.3c0-23.6-13-44.1-28.7-45.1c-11.9-0.7-27.2,20.5-27.2,44.1c0,23.6,12.3,29.5,24.3,29.5
		C108,167.7,127.7,162.9,127.7,139.3z"/>
	<path class="st7" d="M126.5,134.5c0-23.6-11.7-39.3-27.5-40.3c-11.9-0.7-27.2,20.5-27.2,44.1c0,23.6,17.3,24.2,29.2,24.2
		C113,162.5,126.5,158.1,126.5,134.5z"/>
	<path class="st8" d="M101,134.6c9.6,0,20.2-2.8,24-16.1c1,5.2,1.5,10.7,1.5,16c0,23.6-13.5,27.9-25.5,27.9
		c-12,0-29.2-0.6-29.2-24.2c0-5,0.8-10.4,2.2-15.7C78.9,134.2,91.6,134.6,101,134.6z"/>
	<g>
		<path class="st9" d="M116.5,147.9c0-2-1.6-3.7-3.6-3.7l-28.6-0.6c-2,0-3.7,1.5-3.7,3.6L80,173.4c0,2,1.5,3.7,3.6,3.7l28.6,0.6
			c2,0,3.7-1.5,3.7-3.6L116.5,147.9z"/>
	</g>
	<path class="st10" d="M121.1,249.6c0,0,3.2-51.8-5-81.9"/>
	<path class="st10" d="M73.7,249.6c0,0-3.2-51.8,5-81.9"/>
	<path class="st11" d="M85.5,237.4h24.1c2.1,0,3.8-1.7,3.8-3.8v0c0-2.1-1.7-3.8-3.8-3.8H85.5c-2.1,0-3.8,1.7-3.8,3.8v0
		C81.6,235.6,83.4,237.4,85.5,237.4z"/>
	<path class="st11" d="M85.5,222.1h24.1c2.1,0,3.8-1.7,3.8-3.8v0c0-2.1-1.7-3.8-3.8-3.8H85.5c-2.1,0-3.8,1.7-3.8,3.8v0
		C81.6,220.4,83.4,222.1,85.5,222.1z"/>
	<path class="st11" d="M85.5,207.6h24.1c2.1,0,3.8-1.7,3.8-3.8v0c0-2.1-1.7-3.8-3.8-3.8H85.5c-2.1,0-3.8,1.7-3.8,3.8v0
		C81.6,205.8,83.4,207.6,85.5,207.6z"/>
	<path class="st11" d="M85.5,193.3h24.1c2.1,0,3.8-1.7,3.8-3.8v0c0-2.1-1.7-3.8-3.8-3.8H85.5c-2.1,0-3.8,1.7-3.8,3.8v0
		C81.6,191.5,83.4,193.3,85.5,193.3z"/>
	<path class="st11" d="M82.5,177.9h30.1c2.1,0,3.8-1.7,3.8-3.8v0c0-2.1-1.7-3.8-3.8-3.8H82.5c-2.1,0-3.8,1.7-3.8,3.8v0
		C78.7,176.1,80.4,177.9,82.5,177.9z"/>
</g>
<g>
	<defs>
		<path id="SVGID_1_" d="M333.3,249.9c-0.3,0-0.6,0.1-1,0.1c0.3-1.1,0.5-2.3,0.8-3.4c0-0.2,0.1-0.4,0.1-0.6c0.2-1.1,0.4-2.3,0.7-3.5
			c0-0.2,0.1-0.3,0.1-0.5c0.2-1.1,0.4-2.3,0.5-3.5c0-0.1,0-0.3,0.1-0.4c0.2-1.2,0.3-2.5,0.5-3.8c0-0.3,0.1-0.5,0.1-0.8
			c0.1-1.3,0.3-2.6,0.4-3.9c0-0.1,0-0.3,0-0.4c0.1-1.3,0.2-2.5,0.3-3.8c0-0.2,0-0.5,0-0.7c0.1-1.4,0.1-2.7,0.2-4.1
			c0-0.3,0-0.6,0-0.9c0-1.4,0.1-2.9,0.1-4.4c0-18.2-1.9-34.6-5-48.9c-0.2-0.8-0.3-1.6-0.5-2.4l0,0c0-0.1,0-0.2-0.1-0.3c0,0,0,0,0,0
			c0.7-13.4-0.3-25.1-2.6-35.1c-5-22.3-16-35.7-27.1-40.2c0,0,0,0,0,0c-0.5-0.2-1.1-0.4-1.6-0.6c-0.7-0.2-1.4-0.4-2.2-0.6
			c-0.5-0.1-1-0.2-1.5-0.3c-2.3-0.4-4.6-0.6-7-0.4c-0.5,0-1.1,0.1-1.6,0.2c-0.8,0.1-1.6,0.3-2.4,0.5c-0.8,0.2-1.6,0.5-2.4,0.8
			c-1.6,0.6-3.1,1.5-4.6,2.6c-0.5,0.4-1,0.7-1.5,1.2c-0.2,0.2-0.5,0.4-0.7,0.6c-1.7,1.6-3.3,3.5-4.8,5.8c-0.4,0.7-0.8,1.4-1.2,2.1
			c-4.9,8.7-8.3,22.4-8.6,43.1c0,1.4,0,2.8,0,4.2c0,0.4,0,0.7,0,1.1c0,1.3,0,2.6,0.1,3.8c0,0.3,0,0.7,0,1c0,0.9,0.1,1.8,0.1,2.8
			c0,0.5,0.1,1,0.1,1.5c0.1,1,0.1,2,0.2,3c0.1,0.7,0.1,1.3,0.2,1.9c0,0.5,0.1,1,0.2,1.6c0.1,0.7,0.1,1.3,0.2,1.9c0,0,0,0,0,0
			c-2,13.4-3.2,28.1-3.5,43.6c0,1.9-0.1,3.7-0.1,5.6c0,1.5,0,3,0,4.5c0,0.3,0,0.5,0,0.8c0,1.4,0.1,2.8,0.1,4.2c0,0.2,0,0.5,0,0.7
			c0,1.4,0.1,2.8,0.2,4.2c0,0,0,0,0,0c0.1,1.4,0.2,2.8,0.2,4.1c0,0.2,0,0.4,0,0.6c0.1,1.3,0.2,2.6,0.3,3.9c0,0.1,0,0.2,0,0.3
			c0.2,2.7,0.5,5.2,0.8,7.7c0,0.1,0,0.2,0,0.3c0.2,1.2,0.3,2.5,0.5,3.7c-0.3,0-0.7-0.1-1-0.1c0.1,1.2,0.2,2.4,0.4,3.5
			c0.1,0.8,0.2,1.6,0.3,2.4c0,0.3,0.1,0.6,0.1,0.9c0.1,0.7,0.2,1.4,0.3,2.1c0.1,0.4,0.1,0.8,0.2,1.1c0.3,1.8,0.5,3.5,0.8,5.1
			c0.1,0.3,0.1,0.6,0.2,0.9c0.1,0.7,0.3,1.3,0.4,2c0.1,0.3,0.1,0.5,0.2,0.8c0.2,0.7,0.3,1.5,0.5,2.2c0,0.2,0.1,0.3,0.1,0.5
			c0.2,0.6,0.3,1.3,0.5,1.9c0.1,0.2,0.1,0.5,0.2,0.7c0.2,0.6,0.3,1.2,0.5,1.8c0.1,0.2,0.1,0.4,0.2,0.6c0.2,0.6,0.4,1.2,0.6,1.8
			c0.1,0.2,0.1,0.3,0.2,0.5c0.2,0.6,0.4,1.2,0.6,1.7c0.1,0.1,0.1,0.3,0.1,0.4c0.2,0.6,0.4,1.1,0.6,1.7c0,0.1,0.1,0.3,0.1,0.4
			c0.2,0.5,0.5,1.1,0.7,1.6c0,0.1,0.1,0.2,0.1,0.3c0.2,0.5,0.5,1,0.7,1.5c0,0.1,0.1,0.2,0.1,0.3c0.3,0.5,0.5,1,0.8,1.5
			c0,0.1,0.1,0.1,0.1,0.2c0.3,0.5,0.6,0.9,0.8,1.4c0,0.1,0.1,0.1,0.1,0.2c0.3,0.4,0.6,0.9,0.9,1.3c0,0.1,0.1,0.1,0.1,0.2
			c0.3,0.4,0.6,0.8,0.9,1.2c0,0,0.1,0.1,0.1,0.2c0.3,0.4,0.7,0.8,1,1.2c0,0,0,0,0,0.1c0.3,0.4,0.7,0.7,1.1,1.1c0,0,0,0,0.1,0.1
			c0.4,0.3,0.7,0.7,1.1,1c0,0,0,0,0.1,0.1c0.4,0.3,0.8,0.6,1.2,0.9c0,0,0,0,0,0c0.4,0.3,0.8,0.6,1.2,0.8c0,0,0,0,0,0
			c0.4,0.3,0.8,0.5,1.2,0.7c0,0,0,0,0,0c0.4,0.2,0.8,0.4,1.3,0.6c0,0,0,0,0,0c0.4,0.2,0.9,0.4,1.3,0.5c0,0,0,0,0,0
			c0.5,0.2,0.9,0.3,1.4,0.5c0,0,0,0,0,0c0.5,0.1,0.9,0.3,1.4,0.4c0,0,0,0,0,0c0.5,0.1,0.9,0.2,1.4,0.3c0,0,0,0,0,0
			c0.5,0.1,1,0.1,1.5,0.2c0,0,0,0,0,0c0.5,0.1,1,0.1,1.5,0.1c0,0,0,0,0,0c0.5,0,1,0,1.6,0c0,0,0,0,0,0c0,0,0,0,0,0l0,0h0
			c0,0,0,0,0,0s0,0,0,0c0,0,0,0,0,0h0l0,0c2.1,0,4.3-0.2,6.5-0.6c1.1-0.2,2.2-0.5,3.2-0.8c1.1-0.3,2.2-0.7,3.2-1.2
			c1.6-0.7,3.2-1.5,4.7-2.5c1-0.7,2.1-1.4,3.1-2.2c0.5-0.4,1-0.8,1.5-1.3C321.9,285.3,329.4,271.6,333.3,249.9L333.3,249.9
			L333.3,249.9z"/>
	</defs>
	<clipPath id="SVGID_2_">
		<use xlink:href="#SVGID_1_"  style="overflow:visible;"/>
	</clipPath>
	<g class="st12">
		<path class="st13" d="M333.3,249.9c-0.3,0-0.6,0.1-1,0.1c0.3-1.1,0.5-2.3,0.8-3.4c0-0.2,0.1-0.4,0.1-0.6c0.2-1.1,0.4-2.3,0.7-3.5
			c0-0.2,0.1-0.3,0.1-0.5c0.2-1.1,0.4-2.3,0.5-3.5c0-0.1,0-0.3,0.1-0.4c0.2-1.2,0.3-2.5,0.5-3.8c0-0.3,0.1-0.5,0.1-0.8
			c0.1-1.3,0.3-2.6,0.4-3.9c0-0.1,0-0.3,0-0.4c0.1-1.3,0.2-2.5,0.3-3.8c0-0.2,0-0.5,0-0.7c0.1-1.4,0.1-2.7,0.2-4.1
			c0-0.3,0-0.6,0-0.9c0-1.4,0.1-2.9,0.1-4.4c0-18.2-1.9-34.6-5-48.9c-0.2-0.8-0.3-1.6-0.5-2.4l0,0c0-0.1,0-0.2-0.1-0.3c0,0,0,0,0,0
			c0.7-13.4-0.3-25.1-2.6-35.1c-5-22.3-16-35.7-27.1-40.2c0,0,0,0,0,0c-0.5-0.2-1.1-0.4-1.6-0.6c-0.7-0.2-1.4-0.4-2.2-0.6
			c-0.5-0.1-1-0.2-1.5-0.3c-2.3-0.4-4.6-0.6-7-0.4c-0.5,0-1.1,0.1-1.6,0.2c-0.8,0.1-1.6,0.3-2.4,0.5c-0.8,0.2-1.6,0.5-2.4,0.8
			c-1.6,0.6-3.1,1.5-4.6,2.6c-0.5,0.4-1,0.7-1.5,1.2c-0.2,0.2-0.5,0.4-0.7,0.6c-1.7,1.6-3.3,3.5-4.8,5.8c-0.4,0.7-0.8,1.4-1.2,2.1
			c-4.9,8.7-8.3,22.4-8.6,43.1c0,1.4,0,2.8,0,4.2c0,0.4,0,0.7,0,1.1c0,1.3,0,2.6,0.1,3.8c0,0.3,0,0.7,0,1c0,0.9,0.1,1.8,0.1,2.8
			c0,0.5,0.1,1,0.1,1.5c0.1,1,0.1,2,0.2,3c0.1,0.7,0.1,1.3,0.2,1.9c0,0.5,0.1,1,0.2,1.6c0.1,0.7,0.1,1.3,0.2,1.9c0,0,0,0,0,0
			c-2,13.4-3.2,28.1-3.5,43.6c0,1.9-0.1,3.7-0.1,5.6c0,1.5,0,3,0,4.5c0,0.3,0,0.5,0,0.8c0,1.4,0.1,2.8,0.1,4.2c0,0.2,0,0.5,0,0.7
			c0,1.4,0.1,2.8,0.2,4.2c0,0,0,0,0,0c0.1,1.4,0.2,2.8,0.2,4.1c0,0.2,0,0.4,0,0.6c0.1,1.3,0.2,2.6,0.3,3.9c0,0.1,0,0.2,0,0.3
			c0.2,2.7,0.5,5.2,0.8,7.7c0,0.1,0,0.2,0,0.3c0.2,1.2,0.3,2.5,0.5,3.7c-0.3,0-0.7-0.1-1-0.1c0.1,1.2,0.2,2.4,0.4,3.5
			c0.1,0.8,0.2,1.6,0.3,2.4c0,0.3,0.1,0.6,0.1,0.9c0.1,0.7,0.2,1.4,0.3,2.1c0.1,0.4,0.1,0.8,0.2,1.1c0.3,1.8,0.5,3.5,0.8,5.1
			c0.1,0.3,0.1,0.6,0.2,0.9c0.1,0.7,0.3,1.3,0.4,2c0.1,0.3,0.1,0.5,0.2,0.8c0.2,0.7,0.3,1.5,0.5,2.2c0,0.2,0.1,0.3,0.1,0.5
			c0.2,0.6,0.3,1.3,0.5,1.9c0.1,0.2,0.1,0.5,0.2,0.7c0.2,0.6,0.3,1.2,0.5,1.8c0.1,0.2,0.1,0.4,0.2,0.6c0.2,0.6,0.4,1.2,0.6,1.8
			c0.1,0.2,0.1,0.3,0.2,0.5c0.2,0.6,0.4,1.2,0.6,1.7c0.1,0.1,0.1,0.3,0.1,0.4c0.2,0.6,0.4,1.1,0.6,1.7c0,0.1,0.1,0.3,0.1,0.4
			c0.2,0.5,0.5,1.1,0.7,1.6c0,0.1,0.1,0.2,0.1,0.3c0.2,0.5,0.5,1,0.7,1.5c0,0.1,0.1,0.2,0.1,0.3c0.3,0.5,0.5,1,0.8,1.5
			c0,0.1,0.1,0.1,0.1,0.2c0.3,0.5,0.6,0.9,0.8,1.4c0,0.1,0.1,0.1,0.1,0.2c0.3,0.4,0.6,0.9,0.9,1.3c0,0.1,0.1,0.1,0.1,0.2
			c0.3,0.4,0.6,0.8,0.9,1.2c0,0,0.1,0.1,0.1,0.2c0.3,0.4,0.7,0.8,1,1.2c0,0,0,0,0,0.1c0.3,0.4,0.7,0.7,1.1,1.1c0,0,0,0,0.1,0.1
			c0.4,0.3,0.7,0.7,1.1,1c0,0,0,0,0.1,0.1c0.4,0.3,0.8,0.6,1.2,0.9c0,0,0,0,0,0c0.4,0.3,0.8,0.6,1.2,0.8c0,0,0,0,0,0
			c0.4,0.3,0.8,0.5,1.2,0.7c0,0,0,0,0,0c0.4,0.2,0.8,0.4,1.3,0.6c0,0,0,0,0,0c0.4,0.2,0.9,0.4,1.3,0.5c0,0,0,0,0,0
			c0.5,0.2,0.9,0.3,1.4,0.5c0,0,0,0,0,0c0.5,0.1,0.9,0.3,1.4,0.4c0,0,0,0,0,0c0.5,0.1,0.9,0.2,1.4,0.3c0,0,0,0,0,0
			c0.5,0.1,1,0.1,1.5,0.2c0,0,0,0,0,0c0.5,0.1,1,0.1,1.5,0.1c0,0,0,0,0,0c0.5,0,1,0,1.6,0c0,0,0,0,0,0c0,0,0,0,0,0l0,0h0
			c0,0,0,0,0,0s0,0,0,0c0,0,0,0,0,0h0l0,0c2.1,0,4.3-0.2,6.5-0.6c1.1-0.2,2.2-0.5,3.2-0.8c1.1-0.3,2.2-0.7,3.2-1.2
			c1.6-0.7,3.2-1.5,4.7-2.5c1-0.7,2.1-1.4,3.1-2.2c0.5-0.4,1-0.8,1.5-1.3C321.9,285.3,329.4,271.6,333.3,249.9L333.3,249.9
			L333.3,249.9z"/>
		<g>
			<path class="st14" d="M331.7,255.2h-70.1c-1.9,0-3.5-1.6-3.5-3.5l0,0c0-1.9,1.6-3.5,3.5-3.5h70.1c1.9,0,3.5,1.6,3.5,3.5l0,0
				C335.2,253.6,333.6,255.2,331.7,255.2z"/>
			<path class="st14" d="M333.7,234.9h-73.1c-1.9,0-3.5-1.6-3.5-3.5v0c0-1.9,1.6-3.5,3.5-3.5h73.1c1.9,0,3.5,1.6,3.5,3.5v0
				C337.2,233.3,335.6,234.9,333.7,234.9z"/>
			<path class="st14" d="M334.7,214.6h-74.1c-1.9,0-3.5-1.6-3.5-3.5l0,0c0-1.9,1.6-3.5,3.5-3.5h74.1c1.9,0,3.5,1.6,3.5,3.5l0,0
				C338.2,213,336.6,214.6,334.7,214.6z"/>
			<path class="st14" d="M330.7,192.9h-70.1c-1.9,0-3.5-1.6-3.5-3.5l0,0c0-1.9,1.6-3.5,3.5-3.5h70.1c1.9,0,3.5,1.6,3.5,3.5l0,0
				C334.2,191.4,332.6,192.9,330.7,192.9z"/>
			<path class="st14" d="M326.7,171.3h-62.1c-1.9,0-3.5-1.6-3.5-3.5l0,0c0-1.9,1.6-3.5,3.5-3.5h62.1c1.9,0,3.5,1.6,3.5,3.5l0,0
				C330.2,169.7,328.6,171.3,326.7,171.3z"/>
			<path class="st14" d="M326.7,140.4h-62.1c-1.9,0-3.5-1.6-3.5-3.5v0c0-1.9,1.6-3.5,3.5-3.5h62.1c1.9,0,3.5,1.6,3.5,3.5v0
				C330.2,138.8,328.6,140.4,326.7,140.4z"/>
		</g>
	</g>
	<g class="st12">
		<path class="st14" d="M331.7,255.2h-70.1c-1.9,0-3.5-1.6-3.5-3.5l0,0c0-1.9,1.6-3.5,3.5-3.5h70.1c1.9,0,3.5,1.6,3.5,3.5l0,0
			C335.2,253.6,333.6,255.2,331.7,255.2z"/>
		<path class="st14" d="M333.7,234.9h-73.1c-1.9,0-3.5-1.6-3.5-3.5v0c0-1.9,1.6-3.5,3.5-3.5h73.1c1.9,0,3.5,1.6,3.5,3.5v0
			C337.2,233.3,335.6,234.9,333.7,234.9z"/>
		<path class="st14" d="M334.7,214.6h-74.1c-1.9,0-3.5-1.6-3.5-3.5l0,0c0-1.9,1.6-3.5,3.5-3.5h74.1c1.9,0,3.5,1.6,3.5,3.5l0,0
			C338.2,213,336.6,214.6,334.7,214.6z"/>
		<path class="st14" d="M330.7,192.9h-70.1c-1.9,0-3.5-1.6-3.5-3.5l0,0c0-1.9,1.6-3.5,3.5-3.5h70.1c1.9,0,3.5,1.6,3.5,3.5l0,0
			C334.2,191.4,332.6,192.9,330.7,192.9z"/>
		<path class="st14" d="M326.7,171.3h-62.1c-1.9,0-3.5-1.6-3.5-3.5l0,0c0-1.9,1.6-3.5,3.5-3.5h62.1c1.9,0,3.5,1.6,3.5,3.5l0,0
			C330.2,169.7,328.6,171.3,326.7,171.3z"/>
		<path class="st14" d="M326.7,140.4h-62.1c-1.9,0-3.5-1.6-3.5-3.5v0c0-1.9,1.6-3.5,3.5-3.5h62.1c1.9,0,3.5,1.6,3.5,3.5v0
			C330.2,138.8,328.6,140.4,326.7,140.4z"/>
	</g>
</g>
<path class="st0" d="M159.1,70.2H55.8c-6.6,0-12-5.4-12-12v-16c0-6.6,5.4-12,12-12h103.4c6.6,0,12,5.4,12,12v16
	C171.1,64.8,165.7,70.2,159.1,70.2z"/>
<path class="st0" d="M346,70.2H242.6c-6.6,0-12-5.4-12-12v-16c0-6.6,5.4-12,12-12H346c6.6,0,12,5.4,12,12v16
	C358,64.8,352.6,70.2,346,70.2z"/>
<g>
	<path class="st1" d="M88.8,56.3c0,0.4-0.2,0.7-0.5,1s-0.7,0.4-1.1,0.4c-0.3,0-0.5-0.1-0.8-0.2c-0.2-0.1-0.4-0.4-0.6-0.7l-1.6-3.5
		H75l-1.6,3.5c-0.1,0.3-0.3,0.5-0.6,0.7c-0.2,0.1-0.5,0.2-0.8,0.2c-0.4,0-0.8-0.1-1.1-0.4c-0.3-0.3-0.5-0.6-0.5-1
		c0-0.2,0.1-0.5,0.2-0.7L78,40.2c0.2-0.3,0.4-0.6,0.7-0.8c0.3-0.2,0.7-0.3,1-0.3s0.7,0.1,1,0.3s0.6,0.4,0.7,0.8l7.2,15.4
		C88.8,55.9,88.8,56.1,88.8,56.3z M76.3,50.8h6.9l-3.4-7.7L76.3,50.8z"/>
	<path class="st1" d="M99.2,45c0.3,0.2,0.4,0.6,0.4,1c0,0.5-0.1,0.8-0.3,1s-0.6,0.4-1.2,0.4l-0.8,0.1c-1,0.1-1.8,0.5-2.2,1
		c-0.5,0.6-0.7,1.3-0.7,2.2v5.5c0,0.5-0.2,0.9-0.5,1.2s-0.7,0.4-1.2,0.4s-0.9-0.1-1.2-0.4c-0.3-0.3-0.5-0.7-0.5-1.2v-10
		c0-0.5,0.2-0.9,0.5-1.1c0.3-0.3,0.7-0.4,1.1-0.4s0.8,0.1,1.1,0.4c0.3,0.3,0.4,0.6,0.4,1.1v1c0.3-0.8,0.8-1.4,1.5-1.8
		s1.4-0.6,2.2-0.7h0.4C98.6,44.7,99,44.8,99.2,45z"/>
	<path class="st1" d="M109.2,45c0.3,0.2,0.4,0.6,0.4,1c0,0.5-0.1,0.8-0.3,1c-0.2,0.2-0.6,0.4-1.2,0.4l-0.8,0.1c-1,0.1-1.8,0.5-2.2,1
		c-0.5,0.6-0.7,1.3-0.7,2.2v5.5c0,0.5-0.2,0.9-0.5,1.2s-0.7,0.4-1.2,0.4s-0.9-0.1-1.2-0.4c-0.3-0.3-0.5-0.7-0.5-1.2v-10
		c0-0.5,0.2-0.9,0.5-1.1c0.3-0.3,0.7-0.4,1.1-0.4s0.8,0.1,1.1,0.4c0.3,0.3,0.4,0.6,0.4,1.1v1c0.3-0.8,0.8-1.4,1.5-1.8
		c0.7-0.4,1.4-0.6,2.2-0.7h0.4C108.6,44.7,108.9,44.8,109.2,45z"/>
	<path class="st1" d="M111.2,41.9c-0.3-0.3-0.5-0.7-0.5-1.3s0.2-0.9,0.5-1.2s0.8-0.5,1.4-0.5s1,0.2,1.4,0.5s0.5,0.7,0.5,1.2
		s-0.2,0.9-0.5,1.3c-0.3,0.3-0.8,0.5-1.4,0.5S111.5,42.2,111.2,41.9z M111.4,57.4c-0.3-0.3-0.5-0.7-0.5-1.2v-10
		c0-0.5,0.2-0.9,0.5-1.1c0.3-0.3,0.7-0.4,1.2-0.4s0.9,0.1,1.2,0.4c0.3,0.3,0.5,0.6,0.5,1.1v10c0,0.5-0.2,0.9-0.5,1.2
		s-0.7,0.4-1.2,0.4S111.7,57.7,111.4,57.4z"/>
	<path class="st1" d="M127.8,45.4c0.8,0.5,1.5,1.3,2,2.3s0.7,2.1,0.7,3.5c0,1.3-0.2,2.5-0.7,3.5s-1.1,1.8-2,2.4
		c-0.9,0.6-1.8,0.8-2.9,0.8c-0.9,0-1.7-0.2-2.5-0.6c-0.7-0.4-1.3-1-1.7-1.7v0.7c0,0.5-0.1,0.8-0.4,1.1s-0.7,0.4-1.2,0.4
		s-0.9-0.1-1.2-0.4c-0.3-0.3-0.4-0.6-0.4-1.1V40.7c0-0.5,0.2-0.8,0.5-1.1s0.7-0.4,1.2-0.4s0.9,0.1,1.2,0.4c0.3,0.3,0.4,0.6,0.4,1.1
		v6.1c0.4-0.7,0.9-1.2,1.6-1.6c0.7-0.4,1.5-0.6,2.4-0.6C126,44.6,127,44.9,127.8,45.4z M126.4,54.3c0.6-0.7,0.9-1.8,0.9-3.1
		s-0.3-2.3-0.8-3s-1.4-1-2.4-1s-1.8,0.4-2.4,1.1c-0.6,0.7-0.8,1.7-0.8,3s0.3,2.3,0.8,3c0.6,0.7,1.4,1.1,2.4,1.1
		C125,55.4,125.8,55,126.4,54.3z"/>
	<path class="st1" d="M142.6,46c0.9,0.9,1.3,2.2,1.3,4v6.3c0,0.5-0.1,0.8-0.4,1.1c-0.3,0.3-0.7,0.4-1.1,0.4c-0.5,0-0.8-0.1-1.1-0.4
		c-0.3-0.3-0.4-0.6-0.4-1.1v-0.6c-0.3,0.7-0.8,1.2-1.4,1.6c-0.6,0.4-1.4,0.6-2.2,0.6s-1.6-0.2-2.3-0.5s-1.2-0.8-1.6-1.4
		c-0.4-0.6-0.6-1.3-0.6-2c0-0.9,0.2-1.7,0.7-2.2s1.3-0.9,2.3-1.2c1.1-0.2,2.6-0.4,4.4-0.4h0.7v-0.6c0-0.8-0.2-1.5-0.5-1.9
		c-0.4-0.4-1-0.6-1.8-0.6c-0.5,0-1,0.1-1.5,0.2c-0.5,0.1-1.1,0.4-1.8,0.6c-0.5,0.2-0.8,0.3-1,0.3c-0.3,0-0.6-0.1-0.8-0.3
		s-0.3-0.5-0.3-0.9c0-0.3,0.1-0.5,0.2-0.8c0.1-0.2,0.4-0.4,0.7-0.6c0.6-0.3,1.3-0.6,2.2-0.8c0.8-0.2,1.7-0.3,2.5-0.3
		C140.5,44.6,141.8,45.1,142.6,46z M140,54.7c0.5-0.6,0.8-1.3,0.8-2.2V52h-0.5c-1.2,0-2.1,0.1-2.7,0.2c-0.6,0.1-1.1,0.3-1.4,0.5
		c-0.3,0.3-0.4,0.6-0.4,1.1c0,0.6,0.2,1,0.6,1.4c0.4,0.4,0.9,0.5,1.4,0.5C138.8,55.5,139.5,55.2,140,54.7z"/>
</g>
<g>
	<path class="st1" d="M277.8,56.3c0,0.4-0.2,0.7-0.5,1s-0.7,0.4-1.1,0.4c-0.3,0-0.5-0.1-0.8-0.2c-0.2-0.1-0.4-0.4-0.6-0.7l-1.6-3.5
		H264l-1.6,3.5c-0.1,0.3-0.3,0.5-0.6,0.7c-0.2,0.1-0.5,0.2-0.8,0.2c-0.4,0-0.8-0.1-1.1-0.4c-0.3-0.3-0.5-0.6-0.5-1
		c0-0.2,0.1-0.5,0.2-0.7l7.2-15.4c0.2-0.3,0.4-0.6,0.7-0.8c0.3-0.2,0.7-0.3,1-0.3c0.4,0,0.7,0.1,1,0.3s0.6,0.4,0.7,0.8l7.2,15.4
		C277.8,55.9,277.8,56.1,277.8,56.3z M265.3,50.8h6.9l-3.4-7.7L265.3,50.8z"/>
	<path class="st1" d="M290.3,45.4c0.8,0.5,1.5,1.3,2,2.3s0.7,2.1,0.7,3.5c0,1.3-0.2,2.5-0.7,3.5s-1.1,1.8-2,2.4
		c-0.9,0.6-1.8,0.8-2.9,0.8c-0.9,0-1.7-0.2-2.5-0.6c-0.7-0.4-1.3-1-1.7-1.7v0.7c0,0.5-0.1,0.8-0.4,1.1s-0.7,0.4-1.2,0.4
		s-0.9-0.1-1.2-0.4c-0.3-0.3-0.4-0.6-0.4-1.1V40.7c0-0.5,0.2-0.8,0.5-1.1s0.7-0.4,1.2-0.4s0.9,0.1,1.2,0.4c0.3,0.3,0.4,0.6,0.4,1.1
		v6.1c0.4-0.7,0.9-1.2,1.6-1.6c0.7-0.4,1.5-0.6,2.4-0.6C288.5,44.6,289.5,44.9,290.3,45.4z M288.9,54.3c0.6-0.7,0.9-1.8,0.9-3.1
		s-0.3-2.3-0.8-3c-0.6-0.7-1.4-1-2.4-1s-1.8,0.4-2.4,1.1c-0.6,0.7-0.8,1.7-0.8,3s0.3,2.3,0.8,3c0.6,0.7,1.4,1.1,2.4,1.1
		C287.5,55.4,288.3,55,288.9,54.3z"/>
	<path class="st1" d="M305.1,46c0.9,0.9,1.3,2.2,1.3,4v6.3c0,0.5-0.1,0.8-0.4,1.1s-0.7,0.4-1.1,0.4c-0.5,0-0.8-0.1-1.1-0.4
		c-0.3-0.3-0.4-0.6-0.4-1.1v-0.6c-0.3,0.7-0.8,1.2-1.4,1.6c-0.6,0.4-1.4,0.6-2.2,0.6c-0.8,0-1.6-0.2-2.3-0.5s-1.2-0.8-1.6-1.4
		c-0.4-0.6-0.6-1.3-0.6-2c0-0.9,0.2-1.7,0.7-2.2s1.3-0.9,2.3-1.2c1.1-0.2,2.6-0.4,4.4-0.4h0.7v-0.6c0-0.8-0.2-1.5-0.5-1.9
		c-0.4-0.4-1-0.6-1.8-0.6c-0.5,0-1,0.1-1.5,0.2c-0.5,0.1-1.1,0.4-1.8,0.6c-0.5,0.2-0.8,0.3-1,0.3c-0.3,0-0.6-0.1-0.8-0.3
		c-0.2-0.2-0.3-0.5-0.3-0.9c0-0.3,0.1-0.5,0.2-0.8c0.1-0.2,0.4-0.4,0.7-0.6c0.6-0.3,1.3-0.6,2.2-0.8c0.8-0.2,1.7-0.3,2.5-0.3
		C303,44.6,304.3,45.1,305.1,46z M302.5,54.7c0.5-0.6,0.8-1.3,0.8-2.2V52h-0.5c-1.2,0-2.1,0.1-2.7,0.2c-0.6,0.1-1.1,0.3-1.4,0.5
		c-0.3,0.3-0.4,0.6-0.4,1.1c0,0.6,0.2,1,0.6,1.4s0.9,0.5,1.4,0.5C301.3,55.5,302,55.2,302.5,54.7z"/>
	<path class="st1" d="M306.5,62.1c-0.3-0.2-0.5-0.5-0.5-1c0-0.7,0.4-1.1,1.3-1.2L308,60c0.6,0,1-0.2,1.3-0.5s0.4-0.8,0.4-1.5V46.2
		c0-0.5,0.2-0.9,0.5-1.1c0.3-0.3,0.7-0.4,1.2-0.4s0.9,0.1,1.2,0.4c0.3,0.3,0.5,0.6,0.5,1.1v11.4c0,2.9-1.5,4.5-4.4,4.7l-0.7,0.1
		C307.3,62.4,306.8,62.3,306.5,62.1z M309.9,41.9c-0.3-0.3-0.5-0.7-0.5-1.3s0.2-0.9,0.5-1.2s0.8-0.5,1.4-0.5s1,0.2,1.4,0.5
		s0.5,0.7,0.5,1.2s-0.2,0.9-0.5,1.3c-0.3,0.3-0.8,0.5-1.4,0.5C310.7,42.4,310.3,42.2,309.9,41.9z"/>
	<path class="st1" d="M318.7,57.1c-1-0.5-1.7-1.3-2.3-2.3c-0.5-1-0.8-2.2-0.8-3.5s0.3-2.5,0.8-3.5s1.3-1.8,2.3-2.3s2.1-0.8,3.4-0.8
		s2.4,0.3,3.4,0.8s1.7,1.3,2.3,2.3c0.5,1,0.8,2.2,0.8,3.5s-0.3,2.5-0.8,3.5s-1.3,1.8-2.3,2.3s-2.1,0.8-3.4,0.8
		S319.7,57.6,318.7,57.1z M324.5,54.3c0.6-0.7,0.8-1.7,0.8-3.1c0-1.3-0.3-2.4-0.8-3.1s-1.4-1.1-2.4-1.1s-1.8,0.4-2.4,1.1
		s-0.8,1.7-0.8,3.1c0,1.4,0.3,2.4,0.8,3.1c0.6,0.7,1.4,1,2.4,1C323.2,55.4,324,55,324.5,54.3z"/>
</g>
</svg>
