<?xml version="1.0" encoding="utf-8"?>
<!-- Generator: Adobe Illustrator 22.1.0, SVG Export Plug-In . SVG Version: 6.00 Build 0)  -->
<svg version="1.1" id="Layer_1" xmlns="http://www.w3.org/2000/svg" xmlns:xlink="http://www.w3.org/1999/xlink" x="0px" y="0px"
	 viewBox="0 0 80.6 80.6" style="enable-background:new 0 0 80.6 80.6;" xml:space="preserve">
<style type="text/css">
	.st0{fill:#FFFFFF;stroke:#FFFFFF;stroke-width:2;stroke-linecap:round;stroke-linejoin:round;stroke-miterlimit:10;}
	.st1{fill:#FF633E;}
	.st2{fill:#F7502F;}
	.st3{fill:#204C5B;}
	.st4{fill:#13363F;}
	.st5{fill:#00CDC8;}
	.st6{fill:#CC251D;}
	.st7{fill:#AA1713;}
</style>
<path class="st0" d="M78.6,48.2c0-0.1,0-0.1,0-0.2c0-0.1,0-0.1,0-0.2c0-0.1,0-0.1,0-0.2c0-0.1,0-0.1,0-0.2c0-0.1,0-0.1,0-0.2
	c0,0,0,0,0-0.1c0-0.1,0-0.1-0.1-0.2c0-0.1,0-0.1-0.1-0.2c0-0.1-0.1-0.1-0.1-0.2c0,0,0-0.1-0.1-0.1c0-0.1-0.1-0.1-0.1-0.2
	c0,0-0.1-0.1-0.1-0.1c0-0.1-0.1-0.1-0.1-0.2c0,0-0.1-0.1-0.1-0.1c0-0.1-0.1-0.1-0.2-0.2c0,0-0.1-0.1-0.1-0.1c0,0,0,0-0.1-0.1
	c0,0-0.1-0.1-0.1-0.1c0,0,0-0.1-0.1-0.1c0,0,0,0,0,0c0,0-0.1-0.1-0.1-0.1c0,0,0,0,0,0c0,0,0,0,0,0c-1.3-1-3-1.1-4.3-0.4l-15.1-4.3
	c0,0,0,0-0.1,0c-0.6-0.3-2.4-1.3-4.8-2.6l0.9-1.5c0.3-0.6,0.2-1.3-0.4-1.7c-0.6-0.3-1.3-0.2-1.7,0.4l-1,1.6c-0.5-0.3-1-0.6-1.6-0.9
	l0.9-1.5c0.3-0.6,0.2-1.3-0.4-1.7c-0.6-0.3-1.3-0.2-1.7,0.4l-0.9,1.6c-0.5-0.3-1-0.6-1.6-0.9l0.9-1.5c0.3-0.6,0.2-1.3-0.4-1.7
	c-0.6-0.3-1.3-0.2-1.7,0.4l-0.9,1.6c-0.5-0.3-1.1-0.6-1.6-0.8l0.9-1.5c0.3-0.6,0.2-1.3-0.4-1.7c-0.6-0.3-1.3-0.2-1.7,0.4l-0.9,1.6
	c-0.5-0.3-1.1-0.6-1.6-0.8l0.9-1.5c0.3-0.6,0.2-1.3-0.4-1.7c-0.6-0.3-1.3-0.2-1.7,0.4l-0.9,1.6c-0.1-0.1-0.2-0.1-0.4-0.2
	c-0.2-0.2-0.4-0.4-0.6-0.5L31.4,26c-1.1-0.6-2.5-0.3-3.3,0.7L27.9,27c-0.8,1.1-0.5,2.7,0.6,3.5c0,0,0,0.1,0,0.1c0,0,0,0,0,0
	c0,0.2,0,0.4-0.1,0.5c0,0,0,0,0,0c0,0.2,0,0.3,0,0.5c0,0,0,0,0,0c0,0.1,0,0.3,0,0.4c0,0,0,0,0,0c0,0.1,0,0.2,0,0.3c0,0,0,0,0,0
	c0,0,0,0.1,0,0.1c-0.8,0.1-1.6,0.3-2.4,0.9c-2.8,2-10.1,8.3-16.8,1c0,0-0.6-0.6-1.4-1.1c0,0,0,0,0,0c0,0,0,0,0,0
	c-0.1,0-0.1-0.1-0.2-0.1c0,0-0.1,0-0.1,0c-0.1-0.1-0.2-0.1-0.3-0.2c0,0,0,0,0,0c-0.1,0-0.2-0.1-0.3-0.1c0,0-0.1,0-0.1,0
	c-0.1,0-0.2-0.1-0.3-0.1c0,0-0.1,0-0.1,0c-0.1,0-0.2,0-0.3,0c0,0,0,0-0.1,0c-0.1,0-0.2,0-0.3,0c0,0-0.1,0-0.1,0
	c-0.1,0-0.2,0-0.3,0.1c0,0,0,0-0.1,0c-0.1,0-0.2,0.1-0.3,0.1c0,0,0,0-0.1,0c-0.1,0-0.2,0.1-0.2,0.2c0,0-0.1,0-0.1,0.1
	c-0.1,0.1-0.1,0.2-0.2,0.2c0,0,0,0,0,0.1c-0.1,0.1-0.2,0.2-0.2,0.4c0,0,0,0.1-0.1,0.1C4.1,34,4,34.1,4,34.3c0,0.1,0,0.1-0.1,0.2
	c-0.1,0.2-0.1,0.4-0.2,0.6c0,0,0,0,0,0.1c0,0.2-0.1,0.5-0.1,0.7c0,0.1,0,0.1,0,0.2c0,0.2,0,0.4-0.1,0.7c0,0.1,0,0.2,0,0.3
	c0,0.3,0,0.6,0,1c0,7.3,0,13.1,0,13.1h0v3.3v0.6v0c0,2.3,1.8,2.3,4.1,2.3h7h3.8H22h2.3h7.9h2.3h4.8h2.3h4.8h1c0.2,0,0.6,0,1.3,0
	c0.2,0,0.4,0,0.7,0c0,0,0,0,0,0c0,0,0,0,0,0s0,0,0,0c0,0,0.1,0,0.1,0c0,0,0,0,0,0c0.1,0,0.1,0,0.2,0c0.1,0,0.2,0,0.3,0
	c0.9,0,1.9,0,3.1-0.1c0,0,0.1,0,0.1,0c0.2,0,0.3,0,0.5,0c0.4,0,0.7,0,1.1-0.1c0.2,0,0.4,0,0.6,0c1.2-0.1,2.4-0.2,3.6-0.3
	c0.3,0,0.5-0.1,0.7-0.1c0.8-0.1,1.6-0.2,2.3-0.3c7.3-0.9,12.4-2,15.3-5.5c0,0,0,0,0.1-0.1c0.1-0.1,0.1-0.2,0.2-0.3
	c0,0,0.1-0.1,0.1-0.1c0-0.1,0.1-0.1,0.1-0.2c0-0.1,0-0.1,0.1-0.2c0-0.1,0.1-0.1,0.1-0.2c0-0.1,0-0.1,0.1-0.2c0-0.1,0-0.1,0.1-0.2
	c0-0.1,0-0.1,0-0.2c0-0.1,0-0.1,0-0.2c0-0.1,0-0.1,0-0.2c0-0.1,0-0.1,0-0.2c0-0.1,0-0.1,0-0.2c0-0.1,0-0.1,0-0.2
	C78.6,48.3,78.6,48.3,78.6,48.2z M55.4,43.7c0,0.1-0.1,0.3-0.1,0.5C55.3,44,55.3,43.9,55.4,43.7L55.4,43.7z M54.5,49.5
	c0,0.4,0,0.9,0,1.4c0,0,0,0,0,0C54.5,50.3,54.5,49.9,54.5,49.5z M55.2,44.5c-0.1,0.2-0.1,0.4-0.2,0.7C55.1,44.9,55.1,44.7,55.2,44.5
	z M54.9,45.5c0,0.2-0.1,0.5-0.1,0.8C54.8,46,54.9,45.8,54.9,45.5z M54.8,46.6c-0.1,0.4-0.1,0.7-0.1,1.2
	C54.7,47.3,54.7,46.9,54.8,46.6z M54.6,48c0,0.3-0.1,0.7-0.1,1.1C54.5,48.7,54.6,48.4,54.6,48z"/>
<g>
	<path class="st1" d="M42.3,37.7l-9.4-4.3c0,0-4-2-6.8,0c-2.8,2-10.1,8.3-16.8,1c0,0-5.8-5.9-5.8,3.5c0,7.3,0,13.1,0,13.1h4.1h4.2
		h36c0.1,0-0.1,0,0,0c2.1,0.1,4.2,0.1,6.7-0.1c-0.2,0,0,0,0,0l0,0c0-3.4,0.4-5.7,0.9-7.3l0,0L46,39.4"/>
	<path class="st2" d="M6.8,54.9V51c0,0,0-0.1,0-0.2c0-1,0-6.1,0-12.4c0-0.2,0-0.3,0-0.5c0-2.5,0.4-3.9,1-4.7
		c-1.7-1.1-4.4-1.7-4.4,4.7c0,0.2,0,0.3,0,0.5c0,6.4,0,11.5,0,12.4c0,0.1,0,0.2,0,0.2v3.9c0,2.3,1.8,2.3,4.1,2.3h3.3
		C8.7,57.3,6.8,57.2,6.8,54.9z"/>
	<path class="st1" d="M33.2,27.3c-5.2-2.6-4.7,5.4-4.7,5.4c2.3-0.3,4.6,0.8,4.6,0.8l17.6,8l4.9,2.2l0,0c0,0,0,0,0,0
		c0.9-2.8,2.2-3.3,2.2-3.3S38.4,29.9,33.2,27.3z"/>
	<g>
		<path class="st3" d="M71.4,45.8C71.4,45.8,71.4,45.8,71.4,45.8c-0.1,0.1-0.1,0.2-0.2,0.3c0,0,0,0-0.1,0.1
			c-0.1,0.1-0.2,0.2-0.2,0.2c0,0,0,0,0,0c-0.1,0.1-0.2,0.2-0.3,0.2c0,0,0,0-0.1,0.1c-0.1,0.1-0.2,0.1-0.3,0.2c0,0,0,0,0,0
			c-0.1,0.1-0.2,0.1-0.3,0.2c0,0-0.1,0-0.1,0.1c-0.1,0.1-0.2,0.1-0.3,0.2c0,0,0,0,0,0c-0.1,0.1-0.2,0.1-0.4,0.2c0,0-0.1,0-0.1,0.1
			c-0.1,0.1-0.2,0.1-0.4,0.2c0,0,0,0,0,0c-0.1,0.1-0.3,0.1-0.4,0.2c0,0-0.1,0-0.1,0c-0.1,0.1-0.3,0.1-0.4,0.2c0,0,0,0,0,0
			c-0.1,0.1-0.3,0.1-0.4,0.2c0,0-0.1,0-0.1,0c-0.1,0.1-0.3,0.1-0.4,0.2c0,0,0,0,0,0c-0.2,0.1-0.3,0.1-0.5,0.2c0,0-0.1,0-0.1,0
			c-0.1,0-0.3,0.1-0.4,0.1c0,0,0,0,0,0c-0.2,0-0.3,0.1-0.5,0.1c0,0-0.1,0-0.1,0c-0.2,0-0.3,0.1-0.5,0.1c0,0,0,0,0,0
			c-0.2,0-0.3,0.1-0.5,0.1c0,0-0.1,0-0.1,0c-0.2,0-0.3,0.1-0.5,0.1c0,0,0,0,0,0c-0.2,0-0.4,0.1-0.5,0.1c0,0-0.1,0-0.1,0
			c-0.2,0-0.3,0.1-0.5,0.1c0,0,0,0,0,0c-0.2,0-0.4,0.1-0.6,0.1c0,0-0.1,0-0.1,0c-0.2,0-0.4,0.1-0.5,0.1c0,0,0,0,0,0
			c-0.2,0-0.4,0.1-0.6,0.1c0,0-0.1,0-0.1,0c-0.2,0-0.4,0.1-0.6,0.1c0,0,0,0,0,0c-0.2,0-0.4,0.1-0.6,0.1c0,0-0.1,0-0.1,0
			c-0.2,0-0.4,0-0.6,0.1c0,0,0,0,0,0c-0.2,0-0.4,0-0.6,0.1c0,0-0.1,0-0.1,0c-0.2,0-0.4,0-0.6,0.1c0,0,0,0,0,0c-0.2,0-0.4,0-0.6,0.1
			c0,0-0.1,0-0.1,0c-0.4,0-0.8,0.1-1.2,0.1c0,0,0,0-0.1,0c-0.2,0-0.4,0-0.6,0l0,0c-2.3,0.1-4.6,0.2-6.5,0.1c-0.1,0-0.1,0-0.2,0h-36
			H7.6H3.5v3.4v0.6v0c0,2.3,1.8,2.3,4.1,2.3h7h3.8H22v-1.8c0-0.6,0.5-1.2,1.2-1.2c0.6,0,1.2,0.5,1.2,1.2v1.8h7.9v-1.8
			c0-0.6,0.5-1.2,1.2-1.2c0.6,0,1.2,0.5,1.2,1.2v1.8h4.8v-1.8c0-0.6,0.5-1.2,1.2-1.2h0c0.6,0,1.2,0.5,1.2,1.2v1.8h4.8v-1.8
			c0-0.6,0.5-1.2,1.2-1.2c0.6,0,1.2,0.5,1.2,1.2v1.8c0.2,0,0.4,0,0.7,0c0,0,0,0,0,0c0,0,0,0,0,0c0,0,0,0,0,0c0,0,0.1,0,0.1,0
			c0,0,0,0,0,0c0.1,0,0.1,0,0.2,0c0.1,0,0.2,0,0.3,0c0.9,0,1.9,0,3.1-0.1v-1.8c0-0.6,0.5-1.2,1.2-1.2c0.6,0,1.2,0.5,1.2,1.2v1.6
			c1.2-0.1,2.4-0.2,3.6-0.3c0.3,0,0.5-0.1,0.7-0.1v-1.2c0-0.6,0.5-1.2,1.2-1.2c0.6,0,1.2,0.5,1.2,1.2v0.9c7.3-0.9,12.4-2,15.3-5.5
			c0,0,0,0,0.1-0.1c0.1-0.1,0.1-0.2,0.2-0.3c0,0,0.1-0.1,0.1-0.1c0-0.1,0.1-0.1,0.1-0.2c0-0.1,0-0.1,0.1-0.2c0-0.1,0.1-0.1,0.1-0.2
			c0-0.1,0-0.1,0.1-0.2c0-0.1,0-0.1,0.1-0.2c0-0.1,0-0.1,0-0.2c0-0.1,0-0.1,0-0.2c0-0.1,0-0.1,0-0.2c0-0.1,0-0.1,0-0.2
			c0-0.1,0-0.1,0-0.2c0-0.1,0-0.1,0-0.2c0-0.1,0-0.1,0-0.2c0-0.1,0-0.1,0-0.2c0-0.1,0-0.1,0-0.2c0-0.1,0-0.1,0-0.2
			c0-0.1,0-0.1,0-0.2c0-0.1,0-0.1,0-0.2c0,0,0,0,0-0.1c0-0.1,0-0.1-0.1-0.2c0-0.1,0-0.1-0.1-0.2c0-0.1-0.1-0.1-0.1-0.2
			c0,0,0-0.1-0.1-0.1c0-0.1-0.1-0.1-0.1-0.2c0,0-0.1-0.1-0.1-0.1c0-0.1-0.1-0.1-0.1-0.2c0,0-0.1-0.1-0.1-0.1c0-0.1-0.1-0.1-0.2-0.2
			c0,0-0.1-0.1-0.1-0.1c0,0,0,0-0.1-0.1c0,0-0.1-0.1-0.1-0.1c0,0,0-0.1-0.1-0.1c0,0,0,0,0,0c0,0-0.1-0.1-0.1-0.1c0,0,0,0,0,0
			c0,0,0,0,0,0C75.3,43.8,72.8,44.1,71.4,45.8z"/>
		<path class="st4" d="M61.3,54.3c-0.6,0-1.2,0.5-1.2,1.2v1.2c0.8-0.1,1.6-0.2,2.3-0.3v-0.9C62.4,54.8,61.9,54.3,61.3,54.3z"/>
		<path class="st4" d="M54.5,54.3c-0.6,0-1.2,0.5-1.2,1.2v1.8c0,0,0.1,0,0.1,0c0.2,0,0.3,0,0.5,0c0.4,0,0.7,0,1.1-0.1
			c0.2,0,0.4,0,0.6,0v-1.6C55.7,54.8,55.2,54.3,54.5,54.3z"/>
		<path class="st4" d="M47.8,54.3c-0.6,0-1.2,0.5-1.2,1.2v1.8h1c0.2,0,0.6,0,1.3,0v-1.8C49,54.8,48.5,54.3,47.8,54.3z"/>
		<path class="st4" d="M40.6,54.3L40.6,54.3c-0.6,0-1.2,0.5-1.2,1.2v1.8h2.3v-1.8C41.8,54.8,41.3,54.3,40.6,54.3z"/>
		<path class="st4" d="M33.5,54.3c-0.6,0-1.2,0.5-1.2,1.2v1.8h2.3v-1.8C34.6,54.8,34.1,54.3,33.5,54.3z"/>
		<path class="st4" d="M23.2,54.3c-0.6,0-1.2,0.5-1.2,1.2v1.8h2.3v-1.8C24.4,54.8,23.9,54.3,23.2,54.3z"/>
	</g>
</g>
<path class="st5" d="M30.4,31.7l-1.8-1.1c-1.2-0.8-1.6-2.4-0.7-3.6l0.2-0.3c0.8-1,2.2-1.3,3.3-0.7l3.4,1.9c1.2,0.7,1.6,2.1,1,3.3
	l0,0c-0.6,1.1-1.8,1.6-3,1.2L31,31.9C30.8,31.8,30.6,31.8,30.4,31.7z"/>
<path class="st6" d="M50.7,41.6l4.9,2.2l0,0c0,0,0,0,0,0c0.5-1.6,3.4-0.1,3.9-0.5l-2-0.6L34,30.5c0,0-2.6-1.3-5.3-1c0,0,0,0,0,0
	c-0.4,1.6-0.3,3.3-0.3,3.3"/>
<g>
	<path class="st1" d="M57.6,40.4c0,0-3.1,1.1-3.1,10.6l0,0c6.9-0.4,14.4-1.9,16.9-5c0.4-0.5,1-0.9,1.6-1.2l0,0"/>
</g>
<g>
	<path class="st7" d="M36,31.8c-0.2,0-0.4-0.1-0.6-0.2c-0.6-0.3-0.8-1.1-0.4-1.7l1.7-2.9c0.3-0.6,1.1-0.8,1.7-0.4
		c0.6,0.3,0.8,1.1,0.4,1.7L37,31.2C36.8,31.6,36.4,31.8,36,31.8z"/>
	<path class="st7" d="M39.7,33.8c-0.2,0-0.4-0.1-0.6-0.2c-0.6-0.3-0.8-1.1-0.4-1.7l1.7-2.9c0.3-0.6,1.1-0.8,1.7-0.4
		c0.6,0.3,0.8,1.1,0.4,1.7l-1.7,2.9C40.5,33.6,40.1,33.8,39.7,33.8z"/>
	<path class="st7" d="M43.4,35.8c-0.2,0-0.4-0.1-0.6-0.2c-0.6-0.3-0.8-1.1-0.4-1.7l1.7-2.9c0.3-0.6,1.1-0.8,1.7-0.4
		c0.6,0.3,0.8,1.1,0.4,1.7l-1.7,2.9C44.2,35.6,43.8,35.8,43.4,35.8z"/>
	<path class="st7" d="M47.1,37.8c-0.2,0-0.4-0.1-0.6-0.2c-0.6-0.3-0.8-1.1-0.4-1.7l1.7-2.9c0.3-0.6,1.1-0.8,1.7-0.4
		c0.6,0.3,0.8,1.1,0.4,1.7l-1.7,2.9C47.9,37.6,47.5,37.8,47.1,37.8z"/>
	<path class="st7" d="M50.8,39.8c-0.2,0-0.4-0.1-0.6-0.2c-0.6-0.3-0.8-1.1-0.4-1.7l1.7-2.9c0.3-0.6,1.1-0.8,1.7-0.4
		c0.6,0.3,0.8,1.1,0.4,1.7l-1.7,2.9C51.7,39.6,51.3,39.8,50.8,39.8z"/>
</g>
</svg>
