<?xml version="1.0" encoding="utf-8"?>
<!-- Generator: Adobe Illustrator 22.1.0, SVG Export Plug-In . SVG Version: 6.00 Build 0)  -->
<svg version="1.1" id="Layer_1" xmlns="http://www.w3.org/2000/svg" xmlns:xlink="http://www.w3.org/1999/xlink" x="0px" y="0px"
	 viewBox="0 0 400 400" style="enable-background:new 0 0 400 400;" xml:space="preserve">
<style type="text/css">
	.st0{fill:#459C60;}
	.st1{fill:#3A8351;}
	.st2{fill:#60025E;}
	.st3{fill:#FFFFFF;}
	.st4{fill:#FACE59;}
	.st5{fill:#CECECE;}
	.st6{fill:#00CDC8;}
	.st7{fill:#1CA49D;}
	.st8{fill:#A5D73C;}
	.st9{fill:#69941B;}
	.st10{fill:#490A3D;}
	.st11{fill:#2F0026;}
	.st12{fill:#FADC3C;}
	.st13{fill:#E7C42A;}
	.st14{fill:#9D1C27;}
</style>
<path id="SVGCleanerId_0_5_" class="st0" d="M297.5,240.4l-87.9-105.7c-4.6-5.6-13.2-5.6-17.9,0l-87.9,105.7
	c-5.6,6.7-2.1,16.2,5.2,18.5c24.5,7.8,56.6,12.5,91.6,12.5s67.1-4.7,91.6-12.5C299.6,256.5,303.1,247.1,297.5,240.4z"/>
<g>
	<path id="SVGCleanerId_0_4_" class="st0" d="M297.5,240.4l-87.9-105.7c-4.6-5.6-13.2-5.6-17.9,0l-87.9,105.7
		c-5.6,6.7-2.1,16.2,5.2,18.5c24.5,7.8,56.6,12.5,91.6,12.5s67.1-4.7,91.6-12.5C299.6,256.5,303.1,247.1,297.5,240.4z"/>
</g>
<path class="st1" d="M297.1,239.8l-87.5-105.2c-4.6-5.6-13.2-5.6-17.9,0l-52.3,62.9L297.1,239.8z"/>
<path id="SVGCleanerId_0_3_" class="st0" d="M276.4,174.7L207.6,92c-3.6-4.4-10.3-4.4-14,0L125,174.7c-4.4,5.3-1.7,12.7,4.1,14.5
	c19.1,6.1,44.2,9.8,71.6,9.8s52.5-3.7,71.6-9.8C278,187.3,280.7,179.9,276.4,174.7z"/>
<g>
	<path id="SVGCleanerId_0_2_" class="st0" d="M276.4,174.7L207.6,92c-3.6-4.4-10.3-4.4-14,0L125,174.7c-4.4,5.3-1.7,12.7,4.1,14.5
		c19.1,6.1,44.2,9.8,71.6,9.8s52.5-3.7,71.6-9.8C278,187.3,280.7,179.9,276.4,174.7z"/>
</g>
<path class="st1" d="M276,174.2L207.6,92c-3.6-4.4-10.3-4.4-14,0l-40.9,49.2L276,174.2z"/>
<circle class="st2" cx="200" cy="340.1" r="37.7"/>
<g>
	<path class="st3" d="M197.2,350.6c-0.5-0.6-0.7-1.3-0.7-2.3c0-2.6,0.5-4.8,1.4-6.6c0.9-1.8,2.3-3.8,4.1-5.9
		c1.4-1.7,2.5-3.1,3.1-4.2c0.7-1.1,1-2.4,1-3.8c0-1.6-0.6-2.8-1.7-3.7c-1.2-0.9-2.7-1.4-4.7-1.4c-1.7,0-3.3,0.4-4.9,1.1
		c-1.6,0.7-3.4,1.8-5.5,3.2c-1.2,0.7-2.1,1-2.9,1c-0.8,0-1.5-0.4-2.1-1.1s-0.9-1.6-0.9-2.6c0-1.4,0.6-2.5,1.7-3.3c2-1.7,4.3-3,7-4
		s5.4-1.5,8.1-1.5c2.9,0,5.4,0.5,7.7,1.5c2.2,1,4,2.4,5.2,4.1c1.3,1.7,1.9,3.8,1.9,6c0,2.5-0.6,4.6-1.8,6.4s-2.9,3.9-5.2,6.1
		c-1.9,2-3.4,3.6-4.4,5s-1.6,2.9-1.8,4.6c-0.1,0.8-0.5,1.3-1,1.7c-0.5,0.4-1.1,0.6-1.9,0.6C198.3,351.4,197.7,351.2,197.2,350.6z
		 M195.5,364.8c-1-1-1.5-2.3-1.5-3.8s0.5-2.8,1.5-3.8s2.2-1.5,3.8-1.5c1.5,0,2.8,0.5,3.8,1.5s1.5,2.3,1.5,3.8s-0.5,2.8-1.5,3.8
		s-2.3,1.5-3.7,1.5C197.8,366.3,196.5,365.8,195.5,364.8z"/>
</g>
<path id="SVGCleanerId_0" class="st0" d="M253.4,123.7l-47.8-57.5c-2.5-3-7.2-3-9.7,0L148,123.7c-3,3.7-1.2,8.8,2.8,10.1
	c13.3,4.2,30.8,6.8,49.8,6.8s36.5-2.6,49.8-6.8C254.5,132.5,256.4,127.4,253.4,123.7z"/>
<g>
	<path id="SVGCleanerId_0_1_" class="st0" d="M253.4,123.7l-47.8-57.5c-2.5-3-7.2-3-9.7,0L148,123.7c-3,3.7-1.2,8.8,2.8,10.1
		c13.3,4.2,30.8,6.8,49.8,6.8s36.5-2.6,49.8-6.8C254.5,132.5,256.4,127.4,253.4,123.7z"/>
</g>
<path class="st1" d="M253.1,123.4l-47.6-57.2c-2.5-3-7.2-3-9.7,0l-28.5,34.2L253.1,123.4z"/>
<path class="st0" d="M242.5,83.2l-36.6-42.9c-2.7-3.2-7.7-3.2-10.4,0l-36.6,42.9c-3.3,3.9-0.8,9.4,3.7,10.3
	c11.2,2.4,24.2,3.7,38.1,3.7s26.9-1.4,38.1-3.7C243.3,92.6,245.8,87.2,242.5,83.2z"/>
<path class="st4" d="M196.8,19l-1.2,3.8c-0.5,1.7-2.1,2.8-3.8,2.8l-4,0c-3.9,0-5.5,5-2.4,7.3l3.2,2.3c1.4,1,2,2.8,1.5,4.5l-1.2,3.8
	c-1.2,3.7,3,6.8,6.2,4.5l3.2-2.3c1.4-1,3.3-1,4.7,0l3.2,2.3c3.2,2.3,7.4-0.8,6.2-4.5l-1.2-3.8c-0.5-1.7,0.1-3.5,1.5-4.5l3.2-2.3
	c3.1-2.3,1.5-7.3-2.4-7.3l-4,0c-1.7,0-3.3-1.1-3.8-2.8l-1.2-3.8C203.3,15.3,198.1,15.3,196.8,19z"/>
<g>
	<g>
		<rect x="92" y="-190.2" class="st3" width="94.8" height="94.7"/>
		<g>
			<path class="st5" d="M185.2-188.7v91.7H93.5v-91.7H185.2 M188.2-191.7H90.5v97.7h97.7V-191.7L188.2-191.7z"/>
		</g>
	</g>
	<g>
		<rect x="-5.8" y="-190.2" class="st3" width="94.7" height="94.7"/>
		<g>
			<path class="st5" d="M87.5-188.7v91.7H-4.3v-91.7H87.5 M90.5-191.7H-7.3v97.7h97.7V-191.7L90.5-191.7z"/>
		</g>
	</g>
	<g>
		<rect x="-103.5" y="-190.2" class="st3" width="94.7" height="94.7"/>
		<g>
			<path class="st5" d="M-10.3-188.7v91.7H-102v-91.7H-10.3 M-7.3-191.7H-105v97.7h97.7V-191.7L-7.3-191.7z"/>
		</g>
	</g>
	<g>
		<rect x="189.7" y="-190.2" class="st3" width="94.7" height="94.7"/>
		<g>
			<path class="st5" d="M283-188.7v91.7h-91.7v-91.7H283 M286-191.7h-97.7v97.7H286V-191.7L286-191.7z"/>
		</g>
	</g>
	<g>
		<rect x="287.5" y="-190.2" class="st3" width="94.7" height="94.7"/>
		<g>
			<path class="st5" d="M380.7-188.7v91.7H289v-91.7H380.7 M383.7-191.7H286v97.7h97.7V-191.7L383.7-191.7z"/>
		</g>
	</g>
	<g>
		<rect x="-103.5" y="-287.9" class="st6" width="94.7" height="94.7"/>
		<g>
			<path class="st7" d="M-10.3-286.4v91.7H-102v-91.7H-10.3 M-7.3-289.4H-105v97.7h97.7V-289.4L-7.3-289.4z"/>
		</g>
	</g>
	<g>
		<rect x="92" y="-287.9" class="st3" width="94.8" height="94.7"/>
		<g>
			<path class="st5" d="M185.2-286.4v91.7H93.5v-91.7H185.2 M188.2-289.4H90.5v97.7h97.7V-289.4L188.2-289.4z"/>
		</g>
	</g>
	<g>
		<rect x="189.7" y="-287.9" class="st3" width="94.7" height="94.7"/>
		<g>
			<path class="st5" d="M283-286.4v91.7h-91.7v-91.7H283 M286-289.4h-97.7v97.7H286V-289.4L286-289.4z"/>
		</g>
	</g>
	<g>
		<rect x="287.5" y="-287.9" class="st3" width="94.7" height="94.7"/>
		<g>
			<path class="st5" d="M380.7-286.4v91.7H289v-91.7H380.7 M383.7-289.4H286v97.7h97.7V-289.4L383.7-289.4z"/>
		</g>
	</g>
	<g>
		<rect x="-103.5" y="-385.7" class="st6" width="94.7" height="94.7"/>
		<g>
			<path class="st7" d="M-10.3-384.2v91.7H-102v-91.7H-10.3 M-7.3-387.2H-105v97.7h97.7V-387.2L-7.3-387.2z"/>
		</g>
	</g>
	<g>
		<rect x="-5.8" y="-385.7" class="st3" width="94.7" height="94.7"/>
		<g>
			<path class="st5" d="M87.5-384.2v91.7H-4.3v-91.7H87.5 M90.5-387.2H-7.3v97.7h97.7V-387.2L90.5-387.2z"/>
		</g>
	</g>
	<g>
		<rect x="-5.8" y="-287.9" class="st8" width="94.7" height="94.7"/>
		<g>
			<path class="st9" d="M87.5-286.4v91.7H-4.3v-91.7H87.5 M90.5-289.4H-7.3v97.7h97.7V-289.4L90.5-289.4z"/>
		</g>
	</g>
	<g>
		<rect x="92" y="-385.7" class="st3" width="94.8" height="94.7"/>
		<g>
			<path class="st5" d="M185.2-384.2v91.7H93.5v-91.7H185.2 M188.2-387.2H90.5v97.7h97.7V-387.2L188.2-387.2z"/>
		</g>
	</g>
	<g>
		<rect x="189.7" y="-385.7" class="st3" width="94.7" height="94.7"/>
		<g>
			<path class="st5" d="M283-384.2v91.7h-91.7v-91.7H283 M286-387.2h-97.7v97.7H286V-387.2L286-387.2z"/>
		</g>
	</g>
	<g>
		<rect x="287.5" y="-385.7" class="st10" width="94.7" height="94.7"/>
		<path class="st11" d="M380.7-384.2v91.7H289v-91.7H380.7 M383.7-387.2H286v97.7h97.7V-387.2L383.7-387.2z"/>
	</g>
	<g>
		<rect x="-103.5" y="-483.4" class="st6" width="94.7" height="94.7"/>
		<g>
			<path class="st7" d="M-10.3-481.9v91.7H-102v-91.7H-10.3 M-7.3-484.9H-105v97.7h97.7V-484.9L-7.3-484.9z"/>
		</g>
	</g>
	<g>
		<rect x="-5.8" y="-483.4" class="st8" width="94.7" height="94.7"/>
		<g>
			<path class="st9" d="M87.5-481.9v91.7H-4.3v-91.7H87.5 M90.5-484.9H-7.3v97.7h97.7V-484.9L90.5-484.9z"/>
		</g>
	</g>
	<g>
		<rect x="92" y="-483.4" class="st3" width="94.8" height="94.7"/>
		<g>
			<path class="st5" d="M185.2-481.9v91.7H93.5v-91.7H185.2 M188.2-484.9H90.5v97.7h97.7V-484.9L188.2-484.9z"/>
		</g>
	</g>
	<g>
		<rect x="189.7" y="-483.4" class="st12" width="94.7" height="94.7"/>
		<g>
			<path class="st13" d="M283-481.9v91.7h-91.7v-91.7H283 M286-484.9h-97.7v97.7H286V-484.9L286-484.9z"/>
		</g>
	</g>
	<g>
		<rect x="287.5" y="-483.4" class="st12" width="94.7" height="94.7"/>
		<g>
			<path class="st13" d="M380.7-481.9v91.7H289v-91.7H380.7 M383.7-484.9H286v97.7h97.7V-484.9L383.7-484.9z"/>
		</g>
	</g>
	<g>
		<rect x="287.5" y="-385.7" class="st12" width="94.7" height="94.7"/>
		<g>
			<path class="st13" d="M380.7-384.2v91.7H289v-91.7H380.7 M383.7-387.2H286v97.7h97.7V-387.2L383.7-387.2z"/>
		</g>
	</g>
	<g>
		<rect x="-103.5" y="-581.2" class="st6" width="94.7" height="94.7"/>
		<g>
			<path class="st7" d="M-10.3-579.7v91.7H-102v-91.7H-10.3 M-7.3-582.7H-105v97.7h97.7V-582.7L-7.3-582.7z"/>
		</g>
	</g>
	<g>
		<rect x="-5.8" y="-581.2" class="st8" width="94.7" height="94.7"/>
		<g>
			<path class="st9" d="M87.5-579.7v91.7H-4.3v-91.7H87.5 M90.5-582.7H-7.3v97.7h97.7V-582.7L90.5-582.7z"/>
		</g>
	</g>
	<g>
		<rect x="92" y="-581.2" class="st8" width="94.8" height="94.7"/>
		<g>
			<path class="st9" d="M185.2-579.7v91.7H93.5v-91.7H185.2 M188.2-582.7H90.5v97.7h97.7V-582.7L188.2-582.7z"/>
		</g>
	</g>
	<g>
		<rect x="189.7" y="-581.2" class="st12" width="94.7" height="94.7"/>
		<g>
			<path class="st13" d="M283-579.7v91.7h-91.7v-91.7H283 M286-582.7h-97.7v97.7H286V-582.7L286-582.7z"/>
		</g>
	</g>
	<g>
		<rect x="287.5" y="-581.2" class="st12" width="94.7" height="94.7"/>
		<g>
			<path class="st13" d="M380.7-579.7v91.7H289v-91.7H380.7 M383.7-582.7H286v97.7h97.7V-582.7L383.7-582.7z"/>
		</g>
	</g>
</g>
<g>
	<g>
		<circle class="st12" cx="170.6" cy="121.4" r="5.8"/>
	</g>
	<circle class="st14" cx="201.1" cy="109.9" r="5.8"/>
</g>
<g>
	<g>
		<circle class="st12" cx="176.3" cy="167.3" r="5.8"/>
	</g>
</g>
<g>
	<g>
		<circle class="st12" cx="149.9" cy="223.2" r="5.8"/>
	</g>
</g>
<g>
	<g>
		<circle class="st12" cx="250.7" cy="224.6" r="5.8"/>
	</g>
</g>
<g>
	<circle class="st3" cx="189.6" cy="69.5" r="5.8"/>
</g>
<g>
	<circle class="st3" cx="217.7" cy="158" r="5.8"/>
</g>
<g>
	<circle class="st3" cx="205.8" cy="217.4" r="5.8"/>
</g>
<g>
	<circle class="st12" cx="215.2" cy="75.2" r="5.8"/>
</g>
<g>
	<circle class="st6" cx="231" cy="115.6" r="5.8"/>
</g>
<g>
	<circle class="st6" cx="147.4" cy="173" r="5.8"/>
</g>
<g>
	<circle class="st6" cx="174.5" cy="245.8" r="5.8"/>
</g>
<circle class="st14" cx="256.4" cy="173" r="5.8"/>
<circle class="st14" cx="223.5" cy="248" r="5.8"/>
</svg>
