<?xml version="1.0" encoding="utf-8"?>
<!-- Generator: Adobe Illustrator 22.1.0, SVG Export Plug-In . SVG Version: 6.00 Build 0)  -->
<svg version="1.1" id="Layer_1" xmlns="http://www.w3.org/2000/svg" xmlns:xlink="http://www.w3.org/1999/xlink" x="0px" y="0px"
	 viewBox="0 0 80.6 80.6" style="enable-background:new 0 0 80.6 80.6;" xml:space="preserve">
<style type="text/css">
	.st0{fill:#FFFFFF;}
	.st1{fill:#459C60;}
	.st2{fill:#3A8351;}
	.st3{fill:#FACE59;}
	.st4{fill:#FADC3C;}
	.st5{fill:#00CDC8;}
</style>
<g>
	<g>
		<path class="st0" d="M40.3,77.7c-9.6,0-18.9-1.3-26.2-3.6c-1.5-0.5-2.6-1.7-3.1-3.2c-0.5-1.5-0.1-3.1,0.9-4.4L21.5,55
			c-0.6-0.2-1.2-0.3-1.8-0.5c-1.3-0.4-2.3-1.4-2.6-2.7c-0.4-1.3-0.1-2.7,0.8-3.7l7.7-9.2c-0.9-0.4-1.6-1.1-1.8-2.1
			c-0.3-1.1-0.1-2.2,0.6-3l5-6c0,0-0.1,0-0.1,0c-1.1-0.2-2.1-1.1-2.5-2.2c-0.4-1.1-0.2-2.3,0.6-3.2l8.1-9.5c-0.1-0.4,0-0.8,0.1-1.2
			l0.3-0.8l-0.7-0.5c-0.9-0.7-1.3-1.9-1-2.9c0.4-1.1,1.4-1.8,2.5-1.8l0.8,0l0.3-0.8c0.4-1.1,1.4-1.8,2.5-1.8c1.1,0,2.1,0.7,2.5,1.8
			l0.3,0.8l0.8,0c1.1,0,2.1,0.7,2.5,1.8s0,2.3-1,2.9l-0.7,0.5l0.3,0.8c0.1,0.4,0.2,0.8,0.1,1.2l8.1,9.5c0.8,0.9,1,2.1,0.6,3.2
			c-0.4,1.1-1.3,1.9-2.5,2.2c0,0-0.1,0-0.1,0l5,6c0.7,0.9,0.9,2,0.6,3c-0.3,0.9-1,1.7-1.8,2.1l7.7,9.2c0.9,1.1,1.2,2.4,0.8,3.7
			c-0.4,1.3-1.4,2.3-2.6,2.7c-0.6,0.2-1.1,0.3-1.8,0.5l9.6,11.5c1,1.3,1.4,2.9,0.9,4.4c-0.5,1.5-1.6,2.7-3.1,3.2
			C59.2,76.4,49.9,77.7,40.3,77.7z"/>
		<path class="st0" d="M40.3,4.4c0.5,0,0.9,0.3,1.1,0.8l0.3,1.1C41.9,6.7,42.3,7,42.8,7l1.1,0c1.1,0,1.6,1.4,0.7,2l-0.9,0.7
			c-0.4,0.3-0.6,0.8-0.4,1.3l0.3,1.1c0.1,0.4,0,0.8-0.2,1.1l8.7,10.1c0.9,1.1,0.2,2.6-1,2.9c-0.8,0.2-1.7,0.3-2.6,0.5l6.7,8
			c0.9,1,0.3,2.5-0.8,2.8c-0.6,0.2-1.2,0.4-1.9,0.5l9.1,11c1.2,1.5,0.5,3.6-1.1,4.1c-1.2,0.4-2.6,0.7-4,1.1l11.1,13.3
			c1.6,1.9,0.6,4.6-1.5,5.2c-6.9,2.2-15.9,3.5-25.8,3.5c-9.9,0-18.9-1.3-25.8-3.5c-2.1-0.6-3-3.3-1.5-5.2l11.1-13.3
			c-1.4-0.3-2.8-0.7-4-1.1c-1.6-0.5-2.4-2.6-1.1-4.1l9.1-11c-0.6-0.2-1.3-0.3-1.9-0.5c-1.1-0.4-1.7-1.8-0.8-2.8l6.7-8
			c-0.9-0.1-1.8-0.3-2.6-0.5c-1.3-0.3-2-1.8-1-2.9l8.7-10.1c-0.2-0.3-0.3-0.7-0.2-1.1l0.3-1.1c0.2-0.5,0-1-0.4-1.3L36,9.1
			c-0.9-0.6-0.4-2,0.7-2l1.1,0c0.5,0,0.9-0.3,1.1-0.8l0.3-1.1C39.4,4.7,39.8,4.4,40.3,4.4 M40.3,1.4c-1.7,0-3.2,1-3.8,2.6
			c-1.7,0.1-3.2,1.2-3.7,2.8c-0.5,1.6,0,3.4,1.3,4.5c-0.1,0.3-0.1,0.6-0.1,0.9l-7.7,9c-1.1,1.3-1.4,3.1-0.9,4.7
			c0.3,0.9,0.9,1.6,1.6,2.2l-3.8,4.6c-1,1.2-1.4,2.9-0.9,4.4c0.2,0.7,0.6,1.4,1.1,1.9l-6.6,8c-1.2,1.4-1.6,3.4-1.1,5.1
			c0.5,1.6,1.7,3,3.2,3.6l-8.1,9.8c-1.4,1.6-1.8,3.8-1.2,5.8c0.6,2,2.1,3.6,4.1,4.2c7.4,2.4,16.9,3.6,26.7,3.6s19.3-1.3,26.7-3.7
			c2-0.6,3.5-2.2,4.1-4.2c0.6-2,0.1-4.2-1.2-5.8l-8.1-9.8c1.6-0.6,2.8-1.9,3.2-3.6c0.5-1.8,0.1-3.7-1.1-5.1l-6.6-8
			c0.5-0.5,0.9-1.2,1.1-1.9c0.5-1.5,0.1-3.2-0.9-4.4l-3.8-4.6c0.7-0.6,1.3-1.3,1.6-2.2c0.6-1.6,0.2-3.3-0.9-4.6l-7.7-9
			c0-0.3-0.1-0.6-0.1-0.9c1.3-1.1,1.8-2.8,1.3-4.5c-0.5-1.6-2-2.7-3.7-2.8C43.5,2.5,42,1.4,40.3,1.4L40.3,1.4z"/>
	</g>
	<g>
		<path id="SVGCleanerId_0_5_" class="st1" d="M67.5,67.5L42.8,37.7c-1.3-1.6-3.7-1.6-5,0L13.1,67.5c-1.6,1.9-0.6,4.6,1.5,5.2
			c6.9,2.2,15.9,3.5,25.8,3.5s18.9-1.3,25.8-3.5C68.1,72,69.1,69.4,67.5,67.5z"/>
		<g>
			<path id="SVGCleanerId_0_4_" class="st1" d="M67.5,67.5L42.8,37.7c-1.3-1.6-3.7-1.6-5,0L13.1,67.5c-1.6,1.9-0.6,4.6,1.5,5.2
				c6.9,2.2,15.9,3.5,25.8,3.5s18.9-1.3,25.8-3.5C68.1,72,69.1,69.4,67.5,67.5z"/>
		</g>
		<path class="st2" d="M67.4,67.3L42.8,37.7c-1.3-1.6-3.7-1.6-5,0L23.1,55.4L67.4,67.3z"/>
		<path id="SVGCleanerId_0_3_" class="st1" d="M61.6,49L42.3,25.7c-1-1.2-2.9-1.2-3.9,0L19,49c-1.2,1.5-0.5,3.6,1.1,4.1
			c5.4,1.7,12.4,2.7,20.1,2.7s14.8-1,20.1-2.7C62.1,52.5,62.8,50.5,61.6,49z"/>
		<g>
			<path id="SVGCleanerId_0_2_" class="st1" d="M61.6,49L42.3,25.7c-1-1.2-2.9-1.2-3.9,0L19,49c-1.2,1.5-0.5,3.6,1.1,4.1
				c5.4,1.7,12.4,2.7,20.1,2.7s14.8-1,20.1-2.7C62.1,52.5,62.8,50.5,61.6,49z"/>
		</g>
		<path class="st2" d="M61.5,48.9L42.3,25.7c-1-1.2-2.9-1.2-3.9,0L26.8,39.6L61.5,48.9z"/>
		<path id="SVGCleanerId_0" class="st1" d="M55.1,34.7L41.7,18.5c-0.7-0.9-2-0.9-2.7,0L25.5,34.7c-0.9,1-0.3,2.5,0.8,2.8
			c3.7,1.2,8.7,1.9,14,1.9s10.3-0.7,14-1.9C55.4,37.1,56,35.7,55.1,34.7z"/>
		<g>
			<path id="SVGCleanerId_0_1_" class="st1" d="M55.1,34.7L41.7,18.5c-0.7-0.9-2-0.9-2.7,0L25.5,34.7c-0.9,1-0.3,2.5,0.8,2.8
				c3.7,1.2,8.7,1.9,14,1.9s10.3-0.7,14-1.9C55.4,37.1,56,35.7,55.1,34.7z"/>
		</g>
		<path class="st2" d="M55,34.6L41.7,18.5c-0.7-0.9-2-0.9-2.7,0l-8,9.6L55,34.6z"/>
		<path class="st1" d="M52.1,23.3L41.8,11.2c-0.8-0.9-2.2-0.9-2.9,0L28.5,23.3c-0.9,1.1-0.2,2.6,1,2.9c3.2,0.7,6.8,1.1,10.7,1.1
			s7.6-0.4,10.7-1.1C52.3,25.9,53,24.4,52.1,23.3z"/>
		<path class="st3" d="M39.2,5.2l-0.3,1.1C38.7,6.7,38.3,7,37.8,7l-1.1,0c-1.1,0-1.6,1.4-0.7,2l0.9,0.7c0.4,0.3,0.6,0.8,0.4,1.3
			L37,12.1c-0.3,1,0.9,1.9,1.7,1.3l0.9-0.7c0.4-0.3,0.9-0.3,1.3,0l0.9,0.7c0.9,0.6,2.1-0.2,1.7-1.3L43.3,11c-0.2-0.5,0-1,0.4-1.3
			l0.9-0.7c0.9-0.6,0.4-2-0.7-2l-1.1,0c-0.5,0-0.9-0.3-1.1-0.8l-0.3-1.1C41,4.2,39.6,4.2,39.2,5.2z"/>
		<g>
			<g>
				<circle class="st4" cx="31.8" cy="34" r="1.6"/>
			</g>
		</g>
		<g>
			<g>
				<circle class="st4" cx="33.5" cy="46.9" r="1.6"/>
			</g>
		</g>
		<g>
			<g>
				<circle class="st4" cx="26" cy="62.6" r="1.6"/>
			</g>
		</g>
		<g>
			<g>
				<circle class="st4" cx="54.4" cy="63" r="1.6"/>
			</g>
		</g>
		<g>
			<circle class="st0" cx="37.2" cy="19.4" r="1.6"/>
		</g>
		<g>
			<circle class="st0" cx="45.1" cy="44.3" r="1.6"/>
		</g>
		<g>
			<circle class="st0" cx="41.7" cy="61" r="1.6"/>
		</g>
		<g>
			<circle class="st4" cx="44.4" cy="21" r="1.6"/>
		</g>
		<g>
			<circle class="st5" cx="48.8" cy="32.4" r="1.6"/>
		</g>
		<g>
			<circle class="st5" cx="25.3" cy="48.5" r="1.6"/>
		</g>
		<g>
			<circle class="st5" cx="32.9" cy="69" r="1.6"/>
		</g>
	</g>
</g>
</svg>
