<?xml version="1.0" encoding="utf-8"?>
<!-- Generator: Adobe Illustrator 22.1.0, SVG Export Plug-In . SVG Version: 6.00 Build 0)  -->
<svg version="1.1" id="Layer_1" xmlns="http://www.w3.org/2000/svg" xmlns:xlink="http://www.w3.org/1999/xlink" x="0px" y="0px"
	 viewBox="0 0 80.6 80.6" style="enable-background:new 0 0 80.6 80.6;" xml:space="preserve">
<style type="text/css">
	.st0{fill:#FFFFFF;}
	.st1{fill:#459C60;}
	.st2{fill:#3A8351;}
	.st3{fill:#FADC3C;}
	.st4{fill:#9D1C27;}
	.st5{fill:#00CDC8;}
</style>
<g>
	<path class="st0" d="M41.7,75.1c-9.6,0-18.8-1.3-26.1-3.6c-1.3-0.4-2.4-1.5-2.8-2.9c-0.4-1.4-0.1-2.8,0.8-3.9l10.1-12.1
		c-0.9-0.2-1.7-0.5-2.5-0.7c-1.1-0.3-2-1.2-2.3-2.4c-0.3-1.1-0.1-2.3,0.7-3.3l8.1-9.8c-0.1,0-0.3-0.1-0.4-0.1
		c-0.9-0.3-1.5-1-1.8-1.9c-0.3-0.9-0.1-1.8,0.5-2.6l5.6-6.7c-0.3-0.1-0.6-0.1-0.9-0.2c-1-0.2-1.8-0.9-2.1-1.8
		c-0.3-0.9-0.1-1.9,0.5-2.7L39.5,8.5c0.5-0.6,1.4-1,2.2-1c0.9,0,1.7,0.4,2.2,1l10.3,12.1c0.6,0.8,0.8,1.8,0.5,2.7
		c-0.3,0.9-1.1,1.6-2.1,1.8c-0.3,0.1-0.6,0.1-0.9,0.2l5.6,6.7c0.6,0.7,0.8,1.7,0.5,2.6c-0.3,0.9-0.9,1.6-1.8,1.9
		c-0.1,0-0.3,0.1-0.4,0.1l8.1,9.8c0.8,0.9,1,2.1,0.7,3.3c-0.3,1.1-1.2,2-2.3,2.4c-0.8,0.2-1.6,0.5-2.5,0.7l10.1,12.1
		c0.9,1.1,1.2,2.6,0.8,3.9c-0.4,1.4-1.4,2.4-2.8,2.9C60.6,73.8,51.3,75.1,41.7,75.1z"/>
	<path class="st0" d="M41.7,8.4c0.5,0,1.1,0.2,1.5,0.7l10.3,12.1c0.9,1.1,0.2,2.6-1,2.9c-0.8,0.2-1.7,0.3-2.6,0.5l6.7,8
		c0.9,1,0.3,2.5-0.8,2.8c-0.6,0.2-1.2,0.4-1.9,0.5l9.1,11c1.2,1.5,0.5,3.6-1.1,4.1c-1.2,0.4-2.6,0.7-4,1.1L69,65.4
		c1.6,1.9,0.6,4.6-1.5,5.2c-6.9,2.2-15.9,3.5-25.8,3.5c-9.9,0-18.9-1.3-25.8-3.5c-2.1-0.6-3-3.3-1.5-5.2L25.6,52
		c-1.4-0.3-2.8-0.7-4-1.1c-1.6-0.5-2.4-2.6-1.1-4.1l9.1-11c-0.6-0.2-1.3-0.3-1.9-0.5c-1.1-0.4-1.7-1.8-0.8-2.8l6.7-8
		c-0.9-0.1-1.8-0.3-2.6-0.5c-1.3-0.3-2-1.8-1-2.9L40.3,9.1C40.7,8.7,41.2,8.4,41.7,8.4 M41.7,6.4c-1.2,0-2.3,0.5-3,1.4l-10.3,12
		c-0.9,1.1-1.1,2.4-0.7,3.7c0.4,1,1.2,1.9,2.2,2.3l-4.5,5.5c-0.8,1-1.1,2.3-0.7,3.5c0.3,0.9,0.8,1.6,1.5,2.1l-7.3,8.8
		c-1,1.2-1.3,2.7-0.9,4.2c0.4,1.5,1.5,2.6,3,3c0.3,0.1,0.7,0.2,1,0.3L13,64.1c-1.2,1.4-1.5,3.2-1,4.9c0.5,1.7,1.8,3,3.4,3.5
		c7.3,2.3,16.7,3.6,26.4,3.6c9.7,0,19.1-1.3,26.4-3.6c1.6-0.5,2.9-1.8,3.4-3.5c0.5-1.7,0.1-3.5-1-4.9l-9.1-10.9
		c0.4-0.1,0.7-0.2,1-0.3c1.4-0.4,2.5-1.6,3-3c0.4-1.5,0.1-3-0.9-4.2l-7.3-8.8c0.7-0.5,1.3-1.2,1.5-2.1c0.4-1.2,0.1-2.5-0.7-3.5
		l-4.5-5.5c1-0.4,1.8-1.2,2.2-2.3c0.4-1.3,0.2-2.6-0.7-3.7L44.7,7.8C44,6.9,42.9,6.4,41.7,6.4L41.7,6.4z"/>
</g>
<g>
	<path id="SVGCleanerId_0_5_" class="st1" d="M69,65.4L44.3,35.6c-1.3-1.6-3.7-1.6-5,0L14.5,65.4c-1.6,1.9-0.6,4.6,1.5,5.2
		c6.9,2.2,15.9,3.5,25.8,3.5s18.9-1.3,25.8-3.5C69.6,69.9,70.6,67.3,69,65.4z"/>
	<g>
		<path id="SVGCleanerId_0_4_" class="st1" d="M69,65.4L44.3,35.6c-1.3-1.6-3.7-1.6-5,0L14.5,65.4c-1.6,1.9-0.6,4.6,1.5,5.2
			c6.9,2.2,15.9,3.5,25.8,3.5s18.9-1.3,25.8-3.5C69.6,69.9,70.6,67.3,69,65.4z"/>
	</g>
	<path class="st2" d="M68.9,65.2L44.3,35.6c-1.3-1.6-3.7-1.6-5,0L24.5,53.3L68.9,65.2z"/>
	<path id="SVGCleanerId_0_3_" class="st1" d="M63,46.9L43.7,23.6c-1-1.2-2.9-1.2-3.9,0L20.5,46.9c-1.2,1.5-0.5,3.6,1.1,4.1
		c5.4,1.7,12.4,2.7,20.1,2.7s14.8-1,20.1-2.7C63.5,50.4,64.3,48.4,63,46.9z"/>
	<g>
		<path id="SVGCleanerId_0_2_" class="st1" d="M63,46.9L43.7,23.6c-1-1.2-2.9-1.2-3.9,0L20.5,46.9c-1.2,1.5-0.5,3.6,1.1,4.1
			c5.4,1.7,12.4,2.7,20.1,2.7s14.8-1,20.1-2.7C63.5,50.4,64.3,48.4,63,46.9z"/>
	</g>
	<path class="st2" d="M62.9,46.8L43.7,23.6c-1-1.2-2.9-1.2-3.9,0L28.3,37.5L62.9,46.8z"/>
	<path id="SVGCleanerId_0" class="st1" d="M56.6,32.6L43.1,16.4c-0.7-0.9-2-0.9-2.7,0L26.9,32.6c-0.9,1-0.3,2.5,0.8,2.8
		c3.7,1.2,8.7,1.9,14,1.9s10.3-0.7,14-1.9C56.9,35,57.4,33.6,56.6,32.6z"/>
	<g>
		<path id="SVGCleanerId_0_1_" class="st1" d="M56.6,32.6L43.1,16.4c-0.7-0.9-2-0.9-2.7,0L26.9,32.6c-0.9,1-0.3,2.5,0.8,2.8
			c3.7,1.2,8.7,1.9,14,1.9s10.3-0.7,14-1.9C56.9,35,57.4,33.6,56.6,32.6z"/>
	</g>
	<path class="st2" d="M56.5,32.5L43.1,16.4c-0.7-0.9-2-0.9-2.7,0l-8,9.6L56.5,32.5z"/>
	<path class="st1" d="M53.5,21.2L43.2,9.1c-0.8-0.9-2.2-0.9-2.9,0L30,21.2c-0.9,1.1-0.2,2.6,1,2.9c3.2,0.7,6.8,1.1,10.7,1.1
		s7.6-0.4,10.7-1.1C53.7,23.8,54.4,22.3,53.5,21.2z"/>
	<g>
		<g>
			<circle class="st3" cx="33.3" cy="31.9" r="1.6"/>
		</g>
		<circle class="st4" cx="41.9" cy="28.7" r="1.6"/>
	</g>
	<g>
		<g>
			<circle class="st3" cx="34.9" cy="44.8" r="1.6"/>
		</g>
	</g>
	<g>
		<g>
			<circle class="st3" cx="27.5" cy="60.5" r="1.6"/>
		</g>
	</g>
	<g>
		<g>
			<circle class="st3" cx="55.8" cy="60.9" r="1.6"/>
		</g>
	</g>
	<g>
		<circle class="st0" cx="38.6" cy="17.3" r="1.6"/>
	</g>
	<g>
		<circle class="st0" cx="46.5" cy="42.2" r="1.6"/>
	</g>
	<g>
		<circle class="st0" cx="43.2" cy="58.9" r="1.6"/>
	</g>
	<g>
		<circle class="st3" cx="45.8" cy="18.9" r="1.6"/>
	</g>
	<g>
		<circle class="st5" cx="50.3" cy="30.3" r="1.6"/>
	</g>
	<g>
		<circle class="st5" cx="26.7" cy="46.4" r="1.6"/>
	</g>
	<g>
		<circle class="st5" cx="34.4" cy="66.9" r="1.6"/>
	</g>
	<circle class="st4" cx="57.4" cy="46.4" r="1.6"/>
	<circle class="st4" cx="48.2" cy="67.5" r="1.6"/>
</g>
</svg>
