<?xml version="1.0" encoding="utf-8"?>
<!-- Generator: Adobe Illustrator 22.1.0, SVG Export Plug-In . SVG Version: 6.00 Build 0)  -->
<svg version="1.1" id="Layer_1" xmlns="http://www.w3.org/2000/svg" xmlns:xlink="http://www.w3.org/1999/xlink" x="0px" y="0px"
	 viewBox="0 0 336.7 400" style="enable-background:new 0 0 336.7 400;" xml:space="preserve">
<style type="text/css">
	.st0{fill:#2394BC;}
	.st1{fill:#44A4C6;}
	.st2{fill:#1F85A9;}
	.st3{fill:#FFCABA;}
	.st4{fill:#FFDCD2;}
	.st5{fill:#E5B5A7;}
	.st6{fill:#CB94BC;}
	.st7{fill:#AF80A3;}
	.st8{fill:#E19AC3;}
	.st9{fill:#FAA81E;}
	.st10{fill:#F8991D;}
	.st11{fill:#FEC215;}
	.st12{fill:#ED1C26;}
	.st13{fill:#B62B32;}
	.st14{fill:#EF4E28;}
	.st15{fill:#FFFFFF;}
	.st16{fill:#490A3D;}
	.st17{fill:#39B54A;}
	.st18{fill:#009245;}
	.st19{fill:#8CC63F;}
	.st20{fill:#93278F;}
	.st21{fill:#662D91;}
	.st22{fill:#C41B8B;}
</style>
<g>
	<path class="st0" d="M169.4,339.2l-43.5-236.8c0,0,5.9-25.8,7.4-26.2c1.6-0.4,20.8,18.4,20.8,18.4l43.5,236.8
		c1,3.3-0.9,6.6-4.2,7.5l-16.6,4.6C173.6,344.3,170.3,342.4,169.4,339.2z"/>
	<path class="st1" d="M146.6,95.3l46,243.8l0.8-0.2c3.2-0.9,5.1-4.2,4.2-7.5L154,94.5c0,0-0.4-0.3-1-1L146.6,95.3L146.6,95.3z"/>
	<path class="st2" d="M170.4,341.4c1.5,1.8,4,2.7,6.4,2.1l1.7-0.5l-46-243.8l-6.4,1.8c-0.2,0.7-0.3,1.1-0.3,1.3
		C125.8,102.3,170.4,341.4,170.4,341.4z"/>
	<path class="st3" d="M133.5,76.1l-0.5,0.1c-1.8,2.3-6.9,24.7-7.2,26l0,0.1c0,0,6.4,2,8,1.5c1.7-0.5,4.4-5,6-5.5
		c1.7-0.5,6.3,2,8,1.5c1.7-0.5,5.8-5.3,6-5.5C154,94.5,136.3,77.2,133.5,76.1L133.5,76.1z"/>
	<path class="st4" d="M133.7,76.2c0.4,0.7,2.7,4.4,14.2,23.7c1.7-0.5,5.8-5.3,6-5.5C154,94.5,137.3,78.2,133.7,76.2z"/>
	<path class="st5" d="M133.7,76.2l-0.2-0.1l-0.5,0.1c-1.8,2.3-6.9,24.7-7.2,26l0,0.1c0,0,6.3,2,8,1.6
		C133.7,80.7,133.7,76.8,133.7,76.2z"/>
	<path class="st0" d="M135.3,81.9c1.1-0.3,2.2-1.1,3-2.2c-2.6-2.3-4.6-3.9-5.1-3.7c-0.4,0.1-1.2,2.3-2.1,5.3
		C132.3,82.1,134,82.3,135.3,81.9z"/>
</g>
<g>
	<path class="st6" d="M257.8,290.5L69.6,140.3c0,0-12.5-23.3-11.6-24.7c0.9-1.4,27.7,0.2,27.7,0.2L273.9,266
		c2.9,1.8,3.6,5.6,1.7,8.4l-9.5,14.3C264.3,291.5,260.6,292.3,257.8,290.5z"/>
	<path class="st7" d="M80.6,121.3l194.6,153.8l0.5-0.7c1.9-2.8,1.1-6.6-1.8-8.4L85.7,115.9c0,0-0.5,0-1.4-0.1L80.6,121.3L80.6,121.3
		z"/>
	<path class="st8" d="M260,291.4c2.3,0.4,4.8-0.5,6.2-2.6l0.9-1.4L72.5,133.5l-3.6,5.6c0.3,0.6,0.5,1,0.6,1.2
		C69.5,140.3,260,291.4,260,291.4z"/>
	<path class="st3" d="M58.1,115.5l-0.3,0.4c0.2,2.9,11,23.1,11.7,24.4l0.1,0c0,0,6.2-2.7,7.1-4.1c0.9-1.4,0.1-6.7,1-8.1
		c0.9-1.4,6.1-2.6,7.1-4.1c0.9-1.4,1-7.8,1-8.1C85.7,115.9,61,114.4,58.1,115.5L58.1,115.5z"/>
	<path class="st4" d="M58.4,115.4c0.8,0.3,4.9,1.6,26.2,8.6c0.9-1.4,1-7.8,1-8.1C85.7,115.9,62.4,114.5,58.4,115.4z"/>
	<path class="st5" d="M58.4,115.4l-0.2,0l-0.3,0.4c0.2,2.9,11,23.1,11.7,24.4l0.1,0c0,0,6.1-2.6,7.1-4.1
		C61.3,118.8,58.8,115.9,58.4,115.4z"/>
	<path class="st6" d="M63.3,118.7c0.6-0.9,1-2.3,0.8-3.6c-3.5,0-6,0.1-6.3,0.5c-0.2,0.4,0.6,2.6,1.9,5.4
		C61.2,120.7,62.6,119.7,63.3,118.7z"/>
</g>
<g>
	<path class="st9" d="M98,315.3l96.8-220.5c0,0,19.3-18.1,20.9-17.6c1.6,0.5,6.9,26.9,6.9,26.9l-96.8,220.5c-1,3.2-4.5,5-7.7,3.8
		l-16.3-5.5C98.6,321.9,96.9,318.5,98,315.3z"/>
	<path class="st10" d="M215.9,100.6l-98.6,227.6l0.8,0.3c3.2,1.1,6.6-0.6,7.7-3.9l96.7-220.5c0,0-0.1-0.5-0.3-1.4L215.9,100.6
		L215.9,100.6z"/>
	<path class="st11" d="M97.6,317.7c0.2,2.3,1.8,4.5,4.1,5.3l1.6,0.5L202,95.9l-6.4-2.1c-0.5,0.5-0.8,0.8-1,0.9
		C194.7,94.8,97.6,317.7,97.6,317.7z"/>
	<path class="st3" d="M215.8,77.4l-0.5-0.2c-2.8,0.9-19.6,16.5-20.6,17.5l0,0.1c0,0,4.2,5.3,5.8,5.8c1.6,0.5,6.5-1.7,8.1-1.2
		c1.6,0.5,4.1,5.2,5.8,5.8c1.6,0.5,7.8-1.1,8.1-1.2C222.4,104.1,217.5,79.9,215.8,77.4L215.8,77.4z"/>
	<path class="st4" d="M215.9,77.6c-0.1,0.8-0.3,5.2-1.5,27.5c1.6,0.5,7.8-1.1,8.1-1.2C222.4,104.1,217.8,81.2,215.9,77.6z"/>
	<path class="st5" d="M215.9,77.6l-0.1-0.2l-0.5-0.2c-2.8,0.9-19.6,16.5-20.6,17.5l0,0.1c0,0,4.1,5.2,5.7,5.8
		C213.4,81.3,215.6,78.1,215.9,77.6z"/>
	<path class="st9" d="M214,83.2c1.1,0.4,2.5,0.3,3.7-0.1c-0.9-3.4-1.7-5.8-2.1-5.9c-0.4-0.1-2.3,1.2-4.7,3.2
		C211.5,81.7,212.8,82.8,214,83.2z"/>
</g>
<g>
	<path class="st12" d="M34,256.2l211.7-114.7c0,0,26.4-2.4,27.3-1c0.9,1.4-11,25.5-11,25.5L50.2,280.6c-2.8,1.9-6.6,1.2-8.4-1.7
		l-9.5-14.3C30.4,261.8,31.2,258,34,256.2z"/>
	<path class="st13" d="M258.9,159.1L41.3,278.2l0.5,0.7c1.9,2.8,5.6,3.6,8.4,1.6l211.6-114.8c0,0,0.2-0.5,0.6-1.2L258.9,159.1
		L258.9,159.1z"/>
	<path class="st14" d="M32.2,257.9c-1.3,2-1.4,4.6,0,6.7l1,1.4l217.6-119.2l-3.7-5.5c-0.7,0-1.1,0.1-1.3,0.1
		C245.7,141.4,32.2,257.9,32.2,257.9z"/>
	<path class="st3" d="M273,140.6l-0.3-0.4c-2.7-1-25.6,1.1-27,1.2l-0.1,0c0,0,0.1,6.7,1,8.1c1,1.4,6.1,2.7,7.1,4c1,1.4,0,6.7,1,8.1
		c1,1.4,6.8,3.9,7.1,4C261.9,165.8,272.8,143.7,273,140.6L273,140.6z"/>
	<path class="st4" d="M273,140.9c-0.6,0.6-3.4,3.9-18.1,20.8c1,1.4,6.8,3.9,7.1,4C261.9,165.8,272.2,144.9,273,140.9z"/>
	<path class="st5" d="M273,140.9l0-0.2l-0.3-0.4c-2.7-1-25.6,1.1-27,1.2l-0.1,0c0,0,0,6.7,1,8.1C268.7,142.3,272.4,141.1,273,140.9z
		"/>
	<path class="st12" d="M268,144.2c0.6,0.9,1.8,1.8,3,2.2c1.3-3.2,2.2-5.6,2-6c-0.2-0.4-2.6-0.5-5.7-0.4
		C267,141.4,267.3,143.1,268,144.2z"/>
</g>
<g>
	<circle class="st2" cx="125.8" cy="43.2" r="22"/>
</g>
<g>
	<path class="st15" d="M133,52.6c0,1.2-0.7,1.8-2,1.8h-11.4c-1.4,0-2.1-0.6-2.1-1.8c0-1.1,0.7-1.7,2.1-1.7h3.5V35.5l-3.2,2
		c-0.3,0.2-0.6,0.3-0.8,0.3c-0.5,0-0.9-0.2-1.2-0.6c-0.3-0.4-0.5-0.9-0.5-1.4c0-0.7,0.3-1.2,0.9-1.5l5.2-3.2
		c0.7-0.4,1.3-0.6,1.9-0.6c0.6,0,1.1,0.2,1.5,0.6c0.4,0.4,0.6,0.9,0.6,1.6v18.3h3.5C132.3,50.9,133,51.5,133,52.6z"/>
	<path class="st15" d="M132.8,36.9c-0.6-0.6-0.9-1.3-0.9-2.2c0-0.9,0.3-1.6,0.9-2.2c0.6-0.6,1.4-0.9,2.3-0.9c0.9,0,1.6,0.3,2.3,0.9
		c0.6,0.6,0.9,1.3,0.9,2.2c0,0.9-0.3,1.6-0.9,2.2c-0.6,0.6-1.4,0.9-2.3,0.9C134.2,37.8,133.4,37.5,132.8,36.9z M136,35.6
		c0.3-0.3,0.4-0.6,0.4-1s-0.1-0.7-0.4-1c-0.3-0.3-0.6-0.4-1-0.4c-0.4,0-0.7,0.1-1,0.4c-0.3,0.3-0.4,0.6-0.4,1s0.1,0.7,0.4,1
		c0.3,0.3,0.6,0.4,1,0.4C135.5,36.1,135.8,35.9,136,35.6z"/>
</g>
<g>
	<circle class="st16" cx="227.4" cy="49.8" r="22"/>
</g>
<g>
	<circle class="st2" cx="296.3" cy="124" r="22"/>
</g>
<g>
	<path class="st15" d="M302,127.6c0.3,0.3,0.5,0.7,0.5,1.2c0,1.1-0.7,1.7-2,1.7h-1.7v2.7c0,0.7-0.2,1.2-0.6,1.6
		c-0.4,0.4-0.9,0.6-1.5,0.6s-1.1-0.2-1.5-0.6c-0.4-0.4-0.6-0.9-0.6-1.6v-2.7h-8.9c-0.6,0-1.1-0.2-1.4-0.5s-0.5-0.8-0.5-1.3
		c0-0.5,0.2-1.1,0.5-1.6l10.4-15c0.2-0.3,0.5-0.6,0.8-0.7s0.7-0.3,1-0.3c0.6,0,1.1,0.2,1.5,0.6c0.4,0.4,0.6,0.9,0.6,1.6v13.8h1.7
		C301.2,127.2,301.7,127.3,302,127.6z M288.3,127.2h6.3v-9.1L288.3,127.2z"/>
	<path class="st15" d="M305,117.7c-0.6-0.6-0.9-1.3-0.9-2.2c0-0.9,0.3-1.6,0.9-2.2c0.6-0.6,1.4-0.9,2.3-0.9s1.6,0.3,2.3,0.9
		c0.6,0.6,0.9,1.3,0.9,2.2c0,0.9-0.3,1.6-0.9,2.2c-0.6,0.6-1.4,0.9-2.3,0.9S305.6,118.3,305,117.7z M308.2,116.5
		c0.3-0.3,0.4-0.6,0.4-1s-0.1-0.7-0.4-1c-0.3-0.3-0.6-0.4-1-0.4s-0.7,0.1-1,0.4c-0.3,0.3-0.4,0.6-0.4,1s0.1,0.7,0.4,1
		c0.3,0.3,0.6,0.4,1,0.4S307.9,116.7,308.2,116.5z"/>
</g>
<g>
	<circle class="st16" cx="57.8" cy="343.6" r="19.5"/>
</g>
<g>
	<circle class="st16" cx="259.3" cy="357.5" r="19.9"/>
</g>
<g>
	<circle class="st16" cx="30.7" cy="91.5" r="19.6"/>
</g>
<g>
	<path class="st17" d="M254.4,118.9L93.7,298.2c0,0-24,11.1-25.3,10.2c-1.3-1,1.8-27.7,1.8-27.7l160.7-179.3c2-2.8,5.8-3.3,8.5-1.2
		l13.8,10.3C255.8,112.4,256.4,116.2,254.4,118.9z"/>
	<path class="st18" d="M75.3,286l164.7-185.5l-0.7-0.5c-2.7-2-6.5-1.5-8.5,1.3L70.2,280.7c0,0-0.1,0.5-0.2,1.4L75.3,286L75.3,286z"
		/>
	<path class="st19" d="M255.5,116.7c0.5-2.3-0.3-4.8-2.3-6.3l-1.4-1L87.1,294.8l5.4,4c0.6-0.3,1-0.5,1.2-0.5
		C93.7,298.2,255.5,116.7,255.5,116.7z"/>
	<path class="st3" d="M68.3,308.1l0.4,0.3c2.9,0,23.7-9.6,25-10.2l0.1-0.1c0,0-2.3-6.3-3.7-7.3c-1.4-1-6.7-0.4-8-1.4
		c-1.4-1-2.3-6.3-3.7-7.3c-1.4-1-7.7-1.4-8-1.4C70.2,280.7,67.4,305.2,68.3,308.1L68.3,308.1z"/>
	<path class="st4" d="M68.2,307.9c0.3-0.8,1.9-4.8,10.1-25.7c-1.4-1-7.7-1.4-8-1.4C70.2,280.7,67.5,303.9,68.2,307.9z"/>
	<path class="st5" d="M68.2,307.9l0,0.2l0.4,0.3c2.9,0,23.7-9.6,25-10.2l0.1-0.1c0,0-2.3-6.3-3.7-7.3
		C71.7,305.2,68.7,307.5,68.2,307.9z"/>
	<path class="st17" d="M71.7,303.1c-0.9-0.7-2.3-1.1-3.5-1c-0.2,3.5-0.2,6,0.2,6.3c0.3,0.3,2.6-0.4,5.5-1.5
		C73.7,305.4,72.8,303.9,71.7,303.1z"/>
</g>
<g>
	<path class="st20" d="M136.9,127.5l106.1,175.1c0,0,3.8,26.2,2.5,27.2c-1.3,1-26-9.6-26-9.6L113.4,145.1c-2.1-2.7-1.5-6.5,1.2-8.5
		l13.8-10.3C131.1,124.3,134.9,124.8,136.9,127.5z"/>
	<path class="st21" d="M226.1,316.8L115.2,136l-0.7,0.5c-2.7,2-3.2,5.8-1.2,8.5l106.1,175.1c0,0,0.5,0.2,1.3,0.6L226.1,316.8
		L226.1,316.8z"/>
	<path class="st22" d="M135.1,125.9c-2-1.2-4.7-1.1-6.7,0.4l-1.4,1L237.8,308l5.3-4c-0.1-0.7-0.1-1.1-0.2-1.3
		C243,302.7,135.1,125.9,135.1,125.9z"/>
	<path class="st3" d="M245.3,329.9l0.4-0.3c0.8-2.8-2.5-25.5-2.7-26.9l-0.1-0.1c0,0-6.7,0.4-8,1.5c-1.4,1-2.3,6.3-3.6,7.3
		c-1.4,1-6.6,0.4-8,1.5c-1.4,1-3.5,7-3.6,7.3C219.5,320.1,242.2,329.9,245.3,329.9L245.3,329.9z"/>
	<path class="st4" d="M245,329.9c-0.7-0.5-4.1-3.2-21.8-17c-1.4,1-3.5,7-3.6,7.3C219.5,320.1,241,329.4,245,329.9z"/>
	<path class="st5" d="M245,329.9l0.2,0l0.4-0.3c0.8-2.8-2.5-25.5-2.7-26.9l-0.1-0.1c0,0-6.6,0.4-8,1.4
		C243.4,325.7,244.8,329.3,245,329.9z"/>
	<path class="st20" d="M241.5,325.1c-0.9,0.7-1.7,1.9-2,3.1c3.3,1.2,5.7,1.9,6.1,1.6c0.3-0.3,0.3-2.6,0.1-5.7
		C244.2,323.9,242.5,324.3,241.5,325.1z"/>
</g>
<g>
	<path class="st15" d="M28.7,95.8c-0.2-0.3-0.3-0.6-0.3-1.1c0-1.2,0.2-2.2,0.7-3.1c0.4-0.8,1.1-1.7,1.9-2.7c0.7-0.8,1.1-1.5,1.5-2
		c0.3-0.5,0.5-1.1,0.5-1.8c0-0.7-0.3-1.3-0.8-1.7c-0.5-0.4-1.3-0.6-2.2-0.6c-0.8,0-1.6,0.2-2.3,0.5c-0.7,0.3-1.6,0.8-2.5,1.5
		c-0.6,0.3-1,0.5-1.4,0.5c-0.4,0-0.7-0.2-1-0.5c-0.3-0.3-0.4-0.7-0.4-1.2c0-0.6,0.3-1.2,0.8-1.6c0.9-0.8,2-1.4,3.3-1.9
		c1.3-0.5,2.5-0.7,3.8-0.7c1.3,0,2.5,0.2,3.6,0.7s1.9,1.1,2.4,1.9s0.9,1.7,0.9,2.8c0,1.1-0.3,2.1-0.8,3c-0.6,0.8-1.4,1.8-2.4,2.9
		c-0.9,0.9-1.6,1.7-2,2.3c-0.5,0.6-0.7,1.3-0.8,2.1c-0.1,0.4-0.2,0.6-0.4,0.8c-0.2,0.2-0.5,0.3-0.9,0.3C29.3,96.2,29,96.1,28.7,95.8
		z M28,102.4c-0.5-0.5-0.7-1.1-0.7-1.8s0.2-1.3,0.7-1.8c0.5-0.5,1-0.7,1.7-0.7s1.3,0.2,1.7,0.7c0.5,0.5,0.7,1.1,0.7,1.8
		s-0.2,1.3-0.7,1.8c-0.5,0.5-1.1,0.7-1.7,0.7C29,103.1,28.4,102.9,28,102.4z"/>
</g>
<g>
	<path class="st15" d="M227.1,54c-0.2-0.3-0.3-0.6-0.3-1.1c0-1.2,0.2-2.2,0.7-3.1c0.4-0.8,1.1-1.7,1.9-2.7c0.7-0.8,1.1-1.5,1.5-2
		c0.3-0.5,0.5-1.1,0.5-1.8c0-0.7-0.3-1.3-0.8-1.7s-1.3-0.6-2.2-0.6c-0.8,0-1.6,0.2-2.3,0.5c-0.7,0.3-1.6,0.8-2.5,1.5
		c-0.6,0.3-1,0.5-1.4,0.5c-0.4,0-0.7-0.2-1-0.5c-0.3-0.3-0.4-0.7-0.4-1.2c0-0.6,0.3-1.2,0.8-1.6c0.9-0.8,2-1.4,3.3-1.9
		c1.3-0.5,2.5-0.7,3.8-0.7c1.3,0,2.5,0.2,3.6,0.7s1.9,1.1,2.4,1.9s0.9,1.7,0.9,2.8c0,1.1-0.3,2.1-0.8,3c-0.6,0.8-1.4,1.8-2.4,2.9
		c-0.9,0.9-1.6,1.7-2,2.3c-0.5,0.6-0.7,1.3-0.8,2.1c-0.1,0.4-0.2,0.6-0.4,0.8c-0.2,0.2-0.5,0.3-0.9,0.3
		C227.6,54.3,227.3,54.2,227.1,54z M226.3,60.6c-0.5-0.5-0.7-1.1-0.7-1.8s0.2-1.3,0.7-1.8c0.5-0.5,1-0.7,1.7-0.7s1.3,0.2,1.7,0.7
		c0.5,0.5,0.7,1.1,0.7,1.8s-0.2,1.3-0.7,1.8c-0.5,0.5-1.1,0.7-1.7,0.7C227.3,61.3,226.7,61,226.3,60.6z"/>
</g>
<g>
	<path class="st15" d="M57.5,348.1c-0.2-0.3-0.3-0.6-0.3-1.1c0-1.2,0.2-2.2,0.7-3.1c0.4-0.8,1.1-1.7,1.9-2.7c0.7-0.8,1.1-1.5,1.5-2
		c0.3-0.5,0.5-1.1,0.5-1.8c0-0.7-0.3-1.3-0.8-1.7s-1.3-0.6-2.2-0.6c-0.8,0-1.6,0.2-2.3,0.5c-0.7,0.3-1.6,0.8-2.5,1.5
		c-0.6,0.3-1,0.5-1.4,0.5c-0.4,0-0.7-0.2-1-0.5c-0.3-0.3-0.4-0.7-0.4-1.2c0-0.6,0.3-1.2,0.8-1.6c0.9-0.8,2-1.4,3.3-1.9
		c1.3-0.5,2.5-0.7,3.8-0.7c1.3,0,2.5,0.2,3.6,0.7s1.9,1.1,2.4,1.9s0.9,1.7,0.9,2.8c0,1.1-0.3,2.1-0.8,3c-0.6,0.8-1.4,1.8-2.4,2.9
		c-0.9,0.9-1.6,1.7-2,2.3c-0.5,0.6-0.7,1.3-0.8,2.1c-0.1,0.4-0.2,0.6-0.4,0.8c-0.2,0.2-0.5,0.3-0.9,0.3
		C58,348.5,57.7,348.4,57.5,348.1z M56.7,354.7c-0.5-0.5-0.7-1.1-0.7-1.8s0.2-1.3,0.7-1.8c0.5-0.5,1-0.7,1.7-0.7s1.3,0.2,1.7,0.7
		c0.5,0.5,0.7,1.1,0.7,1.8s-0.2,1.3-0.7,1.8c-0.5,0.5-1.1,0.7-1.7,0.7C57.7,355.4,57.2,355.2,56.7,354.7z"/>
</g>
<g>
	<path class="st15" d="M258.4,362.1c-0.2-0.3-0.3-0.6-0.3-1.1c0-1.2,0.2-2.2,0.7-3.1c0.4-0.8,1.1-1.7,1.9-2.7c0.7-0.8,1.1-1.5,1.5-2
		c0.3-0.5,0.5-1.1,0.5-1.8c0-0.7-0.3-1.3-0.8-1.7s-1.3-0.6-2.2-0.6c-0.8,0-1.6,0.2-2.3,0.5c-0.7,0.3-1.6,0.8-2.5,1.5
		c-0.6,0.3-1,0.5-1.4,0.5c-0.4,0-0.7-0.2-1-0.5c-0.3-0.3-0.4-0.7-0.4-1.2c0-0.6,0.3-1.2,0.8-1.6c0.9-0.8,2-1.4,3.3-1.9
		c1.3-0.5,2.5-0.7,3.8-0.7c1.3,0,2.5,0.2,3.6,0.7s1.9,1.1,2.4,1.9s0.9,1.7,0.9,2.8c0,1.1-0.3,2.1-0.8,3c-0.6,0.8-1.4,1.8-2.4,2.9
		c-0.9,0.9-1.6,1.7-2,2.3c-0.5,0.6-0.7,1.3-0.8,2.1c-0.1,0.4-0.2,0.6-0.4,0.8c-0.2,0.2-0.5,0.3-0.9,0.3
		C258.9,362.5,258.6,362.3,258.4,362.1z M257.6,368.7c-0.5-0.5-0.7-1.1-0.7-1.8s0.2-1.3,0.7-1.8c0.5-0.5,1-0.7,1.7-0.7
		s1.3,0.2,1.7,0.7c0.5,0.5,0.7,1.1,0.7,1.8s-0.2,1.3-0.7,1.8c-0.5,0.5-1.1,0.7-1.7,0.7C258.7,369.4,258.1,369.2,257.6,368.7z"/>
</g>
</svg>
