<?xml version="1.0" encoding="utf-8"?>
<!-- Generator: Adobe Illustrator 22.1.0, SVG Export Plug-In . SVG Version: 6.00 Build 0)  -->
<svg version="1.1" id="Layer_1" xmlns="http://www.w3.org/2000/svg" xmlns:xlink="http://www.w3.org/1999/xlink" x="0px" y="0px"
	 viewBox="0 0 336.7 400" style="enable-background:new 0 0 336.7 400;" xml:space="preserve">
<style type="text/css">
	.st0{fill:#FFFFFF;}
	.st1{fill:#CECECE;}
	.st2{fill:#00CDC8;}
	.st3{fill:#1CA49D;}
	.st4{fill:#A5D73C;}
	.st5{fill:#69941B;}
	.st6{fill:#FADC3C;}
	.st7{fill:#E7C42A;}
</style>
<g>
	<g>
		<rect x="10.6" y="148" class="st0" width="51.2" height="51.2"/>
		<g>
			<path class="st1" d="M61,148.8v49.6H11.4v-49.6H61 M62.7,147.2H9.8V200h52.8V147.2L62.7,147.2z"/>
		</g>
	</g>
	<g>
		<rect x="63.5" y="148" class="st0" width="51.2" height="51.2"/>
		<g>
			<path class="st1" d="M113.9,148.8v49.6H64.3v-49.6H113.9 M115.5,147.2H62.7V200h52.8V147.2L115.5,147.2z"/>
		</g>
	</g>
	<g>
		<rect x="116.3" y="148" class="st0" width="51.2" height="51.2"/>
		<g>
			<path class="st1" d="M166.7,148.8v49.6h-49.6v-49.6H166.7 M168.4,147.2h-52.8V200h52.8V147.2L168.4,147.2z"/>
		</g>
	</g>
	<g>
		<rect x="10.6" y="95.1" class="st2" width="51.2" height="51.2"/>
		<g>
			<path class="st3" d="M61,95.9v49.6H11.4V95.9H61 M62.7,94.3H9.8v52.8h52.8V94.3L62.7,94.3z"/>
		</g>
	</g>
	<g>
		<rect x="63.5" y="95.1" class="st0" width="51.2" height="51.2"/>
		<g>
			<path class="st1" d="M113.9,95.9v49.6H64.3V95.9H113.9 M115.5,94.3H62.7v52.8h52.8V94.3L115.5,94.3z"/>
		</g>
	</g>
	<g>
		<rect x="116.3" y="95.1" class="st2" width="51.2" height="51.2"/>
		<g>
			<path class="st3" d="M166.7,95.9v49.6h-49.6V95.9H166.7 M168.4,94.3h-52.8v52.8h52.8V94.3L168.4,94.3z"/>
		</g>
	</g>
	<g>
		<rect x="10.6" y="42.3" class="st2" width="51.2" height="51.2"/>
		<g>
			<path class="st3" d="M61,43.1v49.6H11.4V43.1H61 M62.7,41.5H9.8v52.8h52.8V41.5L62.7,41.5z"/>
		</g>
	</g>
	<g>
		<rect x="63.5" y="42.3" class="st2" width="51.2" height="51.2"/>
		<g>
			<path class="st3" d="M113.9,43.1v49.6H64.3V43.1H113.9 M115.5,41.5H62.7v52.8h52.8V41.5L115.5,41.5z"/>
		</g>
	</g>
	<g>
		<rect x="116.3" y="42.3" class="st2" width="51.2" height="51.2"/>
		<g>
			<path class="st3" d="M166.7,43.1v49.6h-49.6V43.1H166.7 M168.4,41.5h-52.8v52.8h52.8V41.5L168.4,41.5z"/>
		</g>
	</g>
</g>
<g>
	<g>
		<rect x="169.2" y="148" class="st4" width="51.2" height="51.2"/>
		<g>
			<path class="st5" d="M219.6,148.8v49.6H170v-49.6H219.6 M221.2,147.2h-52.8V200h52.8V147.2L221.2,147.2z"/>
		</g>
	</g>
	<g>
		<rect x="222" y="148" class="st0" width="51.2" height="51.2"/>
		<g>
			<path class="st1" d="M272.4,148.8v49.6h-49.6v-49.6H272.4 M274,147.2h-52.8V200H274V147.2L274,147.2z"/>
		</g>
	</g>
	<g>
		<rect x="274.9" y="148" class="st0" width="51.2" height="51.2"/>
		<g>
			<path class="st1" d="M325.3,148.8v49.6h-49.6v-49.6H325.3 M326.9,147.2H274V200h52.8V147.2L326.9,147.2z"/>
		</g>
	</g>
	<g>
		<rect x="169.2" y="95.1" class="st4" width="51.2" height="51.2"/>
		<g>
			<path class="st5" d="M219.6,95.9v49.6H170V95.9H219.6 M221.2,94.3h-52.8v52.8h52.8V94.3L221.2,94.3z"/>
		</g>
	</g>
	<g>
		<rect x="222" y="95.1" class="st0" width="51.2" height="51.2"/>
		<g>
			<path class="st1" d="M272.4,95.9v49.6h-49.6V95.9H272.4 M274,94.3h-52.8v52.8H274V94.3L274,94.3z"/>
		</g>
	</g>
	<g>
		<rect x="274.9" y="95.1" class="st0" width="51.2" height="51.2"/>
		<g>
			<path class="st1" d="M325.3,95.9v49.6h-49.6V95.9H325.3 M326.9,94.3H274v52.8h52.8V94.3L326.9,94.3z"/>
		</g>
	</g>
	<g>
		<rect x="169.2" y="42.3" class="st2" width="51.2" height="51.2"/>
		<g>
			<path class="st3" d="M219.6,43.1v49.6H170V43.1H219.6 M221.2,41.5h-52.8v52.8h52.8V41.5L221.2,41.5z"/>
		</g>
	</g>
	<g>
		<rect x="222" y="42.3" class="st6" width="51.2" height="51.2"/>
		<g>
			<path class="st7" d="M272.4,43.1v49.6h-49.6V43.1H272.4 M274,41.5h-52.8v52.8H274V41.5L274,41.5z"/>
		</g>
	</g>
	<g>
		<rect x="274.9" y="42.3" class="st6" width="51.2" height="51.2"/>
		<g>
			<path class="st7" d="M325.3,43.1v49.6h-49.6V43.1H325.3 M326.9,41.5H274v52.8h52.8V41.5L326.9,41.5z"/>
		</g>
	</g>
</g>
<g>
	<g>
		<rect x="10.6" y="306.5" class="st2" width="51.2" height="51.2"/>
		<g>
			<path class="st3" d="M61,307.3v49.6H11.4v-49.6H61 M62.7,305.7H9.8v52.8h52.8V305.7L62.7,305.7z"/>
		</g>
	</g>
	<g>
		<rect x="63.5" y="306.5" class="st2" width="51.2" height="51.2"/>
		<g>
			<path class="st3" d="M113.9,307.3v49.6H64.3v-49.6H113.9 M115.5,305.7H62.7v52.8h52.8V305.7L115.5,305.7z"/>
		</g>
	</g>
	<g>
		<rect x="116.3" y="306.5" class="st2" width="51.2" height="51.2"/>
		<g>
			<path class="st3" d="M166.7,307.3v49.6h-49.6v-49.6H166.7 M168.4,305.7h-52.8v52.8h52.8V305.7L168.4,305.7z"/>
		</g>
	</g>
	<g>
		<rect x="10.6" y="253.7" class="st0" width="51.2" height="51.2"/>
		<g>
			<path class="st1" d="M61,254.5v49.6H11.4v-49.6H61 M62.7,252.8H9.8v52.8h52.8V252.8L62.7,252.8z"/>
		</g>
	</g>
	<g>
		<rect x="63.5" y="253.7" class="st0" width="51.2" height="51.2"/>
		<g>
			<path class="st1" d="M113.9,254.5v49.6H64.3v-49.6H113.9 M115.5,252.8H62.7v52.8h52.8V252.8L115.5,252.8z"/>
		</g>
	</g>
	<g>
		<rect x="116.3" y="253.7" class="st0" width="51.2" height="51.2"/>
		<g>
			<path class="st1" d="M166.7,254.5v49.6h-49.6v-49.6H166.7 M168.4,252.8h-52.8v52.8h52.8V252.8L168.4,252.8z"/>
		</g>
	</g>
	<g>
		<rect x="10.6" y="200.8" class="st2" width="51.2" height="51.2"/>
		<g>
			<path class="st3" d="M61,201.6v49.6H11.4v-49.6H61 M62.7,200H9.8v52.8h52.8V200L62.7,200z"/>
		</g>
	</g>
	<g>
		<rect x="63.5" y="200.8" class="st2" width="51.2" height="51.2"/>
		<g>
			<path class="st3" d="M113.9,201.6v49.6H64.3v-49.6H113.9 M115.5,200H62.7v52.8h52.8V200L115.5,200z"/>
		</g>
	</g>
	<g>
		<rect x="116.3" y="200.8" class="st0" width="51.2" height="51.2"/>
		<g>
			<path class="st1" d="M166.7,201.6v49.6h-49.6v-49.6H166.7 M168.4,200h-52.8v52.8h52.8V200L168.4,200z"/>
		</g>
	</g>
</g>
<g>
	<g>
		<rect x="169.2" y="306.5" class="st4" width="51.2" height="51.2"/>
		<g>
			<path class="st5" d="M219.6,307.3v49.6H170v-49.6H219.6 M221.2,305.7h-52.8v52.8h52.8V305.7L221.2,305.7z"/>
		</g>
	</g>
	<g>
		<rect x="222" y="306.5" class="st4" width="51.2" height="51.2"/>
		<g>
			<path class="st5" d="M272.4,307.3v49.6h-49.6v-49.6H272.4 M274,305.7h-52.8v52.8H274V305.7L274,305.7z"/>
		</g>
	</g>
	<g>
		<rect x="274.9" y="306.5" class="st4" width="51.2" height="51.2"/>
		<g>
			<path class="st5" d="M325.3,307.3v49.6h-49.6v-49.6H325.3 M326.9,305.7H274v52.8h52.8V305.7L326.9,305.7z"/>
		</g>
	</g>
	<g>
		<rect x="169.2" y="253.7" class="st0" width="51.2" height="51.2"/>
		<g>
			<path class="st1" d="M219.6,254.5v49.6H170v-49.6H219.6 M221.2,252.8h-52.8v52.8h52.8V252.8L221.2,252.8z"/>
		</g>
	</g>
	<g>
		<rect x="222" y="253.7" class="st0" width="51.2" height="51.2"/>
		<g>
			<path class="st1" d="M272.4,254.5v49.6h-49.6v-49.6H272.4 M274,252.8h-52.8v52.8H274V252.8L274,252.8z"/>
		</g>
	</g>
	<g>
		<rect x="274.9" y="253.7" class="st4" width="51.2" height="51.2"/>
		<g>
			<path class="st5" d="M325.3,254.5v49.6h-49.6v-49.6H325.3 M326.9,252.8H274v52.8h52.8V252.8L326.9,252.8z"/>
		</g>
	</g>
	<g>
		<rect x="169.2" y="200.8" class="st4" width="51.2" height="51.2"/>
		<g>
			<path class="st5" d="M219.6,201.6v49.6H170v-49.6H219.6 M221.2,200h-52.8v52.8h52.8V200L221.2,200z"/>
		</g>
	</g>
	<g>
		<rect x="222" y="200.8" class="st0" width="51.2" height="51.2"/>
		<g>
			<path class="st1" d="M272.4,201.6v49.6h-49.6v-49.6H272.4 M274,200h-52.8v52.8H274V200L274,200z"/>
		</g>
	</g>
	<g>
		<rect x="274.9" y="200.8" class="st0" width="51.2" height="51.2"/>
		<g>
			<path class="st1" d="M325.3,201.6v49.6h-49.6v-49.6H325.3 M326.9,200H274v52.8h52.8V200L326.9,200z"/>
		</g>
	</g>
</g>
</svg>
