<?xml version="1.0" encoding="utf-8"?>
<!-- Generator: Adobe Illustrator 22.1.0, SVG Export Plug-In . SVG Version: 6.00 Build 0)  -->
<svg version="1.1" id="Layer_1" xmlns="http://www.w3.org/2000/svg" xmlns:xlink="http://www.w3.org/1999/xlink" x="0px" y="0px"
	 viewBox="0 0 50 50" style="enable-background:new 0 0 50 50;" xml:space="preserve">
<style type="text/css">
	.st0{fill:#FFFFFF;}
	.st1{fill:#FFFFFF;stroke:#FFFFFF;stroke-width:3;stroke-linecap:round;stroke-linejoin:round;stroke-miterlimit:10;}
	.st2{fill:#CC0000;}
	.st3{fill:#8C0000;}
</style>
<g>
	<g>
		<g>
			<g>
				<path class="st0" d="M6.1,39c-0.8,0-1.5-0.7-1.5-1.5V25.2c0-0.8,0.7-1.5,1.5-1.5h12.3c0.8,0,1.5,0.7,1.5,1.5v12.3
					c0,0.8-0.7,1.5-1.5,1.5H6.1z"/>
				<path class="st0" d="M18.4,25.2v12.3H6.1V25.2H18.4 M18.4,22.2H6.1c-1.7,0-3,1.3-3,3v12.3c0,1.7,1.3,3,3,3h12.3c1.7,0,3-1.3,3-3
					V25.2C21.4,23.5,20.1,22.2,18.4,22.2L18.4,22.2z"/>
			</g>
			<g>
				<path class="st1" d="M18.3,25.4v11.9h-12V25.4H18.3 M18.7,25H6v12.7h12.7V25L18.7,25z"/>
			</g>
		</g>
		<g>
			<g>
				<path class="st0" d="M18.8,39c-0.8,0-1.5-0.7-1.5-1.5V25.2c0-0.8,0.7-1.5,1.5-1.5h12.3c0.8,0,1.5,0.7,1.5,1.5v12.3
					c0,0.8-0.7,1.5-1.5,1.5H18.8z"/>
				<path class="st0" d="M31.1,25.2v12.3H18.8V25.2H31.1 M31.1,22.2H18.8c-1.7,0-3,1.3-3,3v12.3c0,1.7,1.3,3,3,3h12.3
					c1.7,0,3-1.3,3-3V25.2C34.1,23.5,32.8,22.2,31.1,22.2L31.1,22.2z"/>
			</g>
			<g>
				<path class="st1" d="M31,25.4v11.9H19V25.4H31 M31.3,25H18.7v12.7h12.7V25H31.3z"/>
			</g>
		</g>
		<g>
			<g>
				<path class="st0" d="M31.5,39c-0.8,0-1.5-0.7-1.5-1.5V25.2c0-0.8,0.7-1.5,1.5-1.5h12.3c0.8,0,1.5,0.7,1.5,1.5v12.3
					c0,0.8-0.7,1.5-1.5,1.5H31.5z"/>
				<path class="st0" d="M43.8,25.2v12.3H31.5V25.2H43.8 M43.8,22.2H31.5c-1.7,0-3,1.3-3,3v12.3c0,1.7,1.3,3,3,3h12.3
					c1.7,0,3-1.3,3-3V25.2C46.8,23.5,45.5,22.2,43.8,22.2L43.8,22.2z"/>
			</g>
			<g>
				<path class="st1" d="M43.7,25.4v11.9h-12V25.4H43.7 M44,25H31.3v12.7H44V25L44,25z"/>
			</g>
		</g>
	</g>
	<g>
		<g>
			<path class="st0" d="M18.8,26.3c-0.8,0-1.5-0.7-1.5-1.5V12.5c0-0.8,0.7-1.5,1.5-1.5h12.3c0.8,0,1.5,0.7,1.5,1.5v12.3
				c0,0.8-0.7,1.5-1.5,1.5H18.8z"/>
			<path class="st0" d="M31.1,12.5v12.3H18.8V12.5H31.1 M31.1,9.5H18.8c-1.7,0-3,1.3-3,3v12.3c0,1.7,1.3,3,3,3h12.3c1.7,0,3-1.3,3-3
				V12.5C34.1,10.8,32.8,9.5,31.1,9.5L31.1,9.5z"/>
		</g>
		<g>
			<path class="st1" d="M31,12.7v11.9H19V12.7H31 M31.3,12.3H18.7V25h12.7V12.3H31.3z"/>
		</g>
	</g>
</g>
<g>
	<g>
		<g>
			<rect x="6.1" y="25.2" class="st2" width="12.3" height="12.3"/>
			<g>
				<path class="st3" d="M18.3,25.4v11.9h-12V25.4H18.3 M18.7,25H6v12.7h12.7V25L18.7,25z"/>
			</g>
		</g>
		<g>
			<rect x="18.8" y="25.2" class="st2" width="12.3" height="12.3"/>
			<g>
				<path class="st3" d="M31,25.4v11.9H19V25.4H31 M31.3,25H18.7v12.7h12.7V25H31.3z"/>
			</g>
		</g>
		<g>
			<rect x="31.5" y="25.2" class="st2" width="12.3" height="12.3"/>
			<g>
				<path class="st3" d="M43.7,25.4v11.9h-12V25.4H43.7 M44,25H31.3v12.7H44V25L44,25z"/>
			</g>
		</g>
	</g>
	<g>
		<rect x="18.8" y="12.5" class="st2" width="12.3" height="12.3"/>
		<g>
			<path class="st3" d="M31,12.7v11.9H19V12.7H31 M31.3,12.3H18.7V25h12.7V12.3H31.3z"/>
		</g>
	</g>
</g>
</svg>
