<?xml version="1.0" encoding="utf-8"?>
<!-- Generator: Adobe Illustrator 22.1.0, SVG Export Plug-In . SVG Version: 6.00 Build 0)  -->
<svg version="1.1" id="Layer_1" xmlns="http://www.w3.org/2000/svg" xmlns:xlink="http://www.w3.org/1999/xlink" x="0px" y="0px"
	 viewBox="0 0 50 50" style="enable-background:new 0 0 50 50;" xml:space="preserve">
<style type="text/css">
	.st0{fill:#FFFFFF;}
	.st1{fill:#FFFFFF;stroke:#FFFFFF;stroke-width:3;stroke-linecap:round;stroke-linejoin:round;stroke-miterlimit:10;}
	.st2{fill:#FF9900;}
	.st3{fill:#CC6600;}
</style>
<g>
	<g>
		<g>
			<path class="st0" d="M12.5,39c-0.8,0-1.5-0.7-1.5-1.5V25.2c0-0.8,0.7-1.5,1.5-1.5h12.3c0.8,0,1.5,0.7,1.5,1.5v12.3
				c0,0.8-0.7,1.5-1.5,1.5H12.5z"/>
			<path class="st0" d="M24.8,25.2v12.3H12.5V25.2H24.8 M24.8,22.2H12.5c-1.7,0-3,1.3-3,3v12.3c0,1.7,1.3,3,3,3h12.3
				c1.7,0,3-1.3,3-3V25.2C27.8,23.5,26.5,22.2,24.8,22.2L24.8,22.2z"/>
		</g>
		<g>
			<path class="st1" d="M24.6,25.4v11.9H12.7V25.4H24.6 M25,25H12.3v12.7H25V25L25,25z"/>
		</g>
	</g>
	<g>
		<g>
			<path class="st0" d="M25.2,39c-0.8,0-1.5-0.7-1.5-1.5V25.2c0-0.8,0.7-1.5,1.5-1.5h12.3c0.8,0,1.5,0.7,1.5,1.5v12.3
				c0,0.8-0.7,1.5-1.5,1.5H25.2z"/>
			<path class="st0" d="M37.5,25.2v12.3H25.2V25.2H37.5 M37.5,22.2H25.2c-1.7,0-3,1.3-3,3v12.3c0,1.7,1.3,3,3,3h12.3
				c1.7,0,3-1.3,3-3V25.2C40.5,23.5,39.2,22.2,37.5,22.2L37.5,22.2z"/>
		</g>
		<g>
			<path class="st1" d="M37.3,25.4v11.9H25.4V25.4H37.3 M37.7,25H25v12.7h12.7V25L37.7,25z"/>
		</g>
	</g>
	<g>
		<g>
			<path class="st0" d="M12.5,26.3c-0.8,0-1.5-0.7-1.5-1.5V12.5c0-0.8,0.7-1.5,1.5-1.5h12.3c0.8,0,1.5,0.7,1.5,1.5v12.3
				c0,0.8-0.7,1.5-1.5,1.5H12.5z"/>
			<path class="st0" d="M24.8,12.5v12.3H12.5V12.5H24.8 M24.8,9.5H12.5c-1.7,0-3,1.3-3,3v12.3c0,1.7,1.3,3,3,3h12.3c1.7,0,3-1.3,3-3
				V12.5C27.8,10.8,26.5,9.5,24.8,9.5L24.8,9.5z"/>
		</g>
		<g>
			<path class="st1" d="M24.6,12.7v11.9H12.7V12.7H24.6 M25,12.3H12.3V25H25V12.3L25,12.3z"/>
		</g>
	</g>
	<g>
		<g>
			<path class="st0" d="M25.2,26.3c-0.8,0-1.5-0.7-1.5-1.5V12.5c0-0.8,0.7-1.5,1.5-1.5h12.3c0.8,0,1.5,0.7,1.5,1.5v12.3
				c0,0.8-0.7,1.5-1.5,1.5H25.2z"/>
			<path class="st0" d="M37.5,12.5v12.3H25.2V12.5H37.5 M37.5,9.5H25.2c-1.7,0-3,1.3-3,3v12.3c0,1.7,1.3,3,3,3h12.3c1.7,0,3-1.3,3-3
				V12.5C40.5,10.8,39.2,9.5,37.5,9.5L37.5,9.5z"/>
		</g>
		<g>
			<path class="st1" d="M37.3,12.7v11.9H25.4V12.7H37.3 M37.7,12.3H25V25h12.7V12.3L37.7,12.3z"/>
		</g>
	</g>
</g>
<g>
	<g>
		<rect x="12.5" y="25.2" class="st2" width="12.3" height="12.3"/>
		<g>
			<path class="st3" d="M24.6,25.4v11.9H12.7V25.4H24.6 M25,25H12.3v12.7H25V25L25,25z"/>
		</g>
	</g>
	<g>
		<rect x="25.2" y="25.2" class="st2" width="12.3" height="12.3"/>
		<g>
			<path class="st3" d="M37.3,25.4v11.9H25.4V25.4H37.3 M37.7,25H25v12.7h12.7V25L37.7,25z"/>
		</g>
	</g>
	<g>
		<rect x="12.5" y="12.5" class="st2" width="12.3" height="12.3"/>
		<g>
			<path class="st3" d="M24.6,12.7v11.9H12.7V12.7H24.6 M25,12.3H12.3V25H25V12.3L25,12.3z"/>
		</g>
	</g>
	<g>
		<rect x="25.2" y="12.5" class="st2" width="12.3" height="12.3"/>
		<g>
			<path class="st3" d="M37.3,12.7v11.9H25.4V12.7H37.3 M37.7,12.3H25V25h12.7V12.3L37.7,12.3z"/>
		</g>
	</g>
</g>
</svg>
