<?xml version="1.0" encoding="utf-8"?>
<!-- Generator: Adobe Illustrator 22.1.0, SVG Export Plug-In . SVG Version: 6.00 Build 0)  -->
<svg version="1.1" id="Layer_1" xmlns="http://www.w3.org/2000/svg" xmlns:xlink="http://www.w3.org/1999/xlink" x="0px" y="0px"
	 viewBox="0 0 50 50" style="enable-background:new 0 0 50 50;" xml:space="preserve">
<style type="text/css">
	.st0{fill:#FFFFFF;}
	.st1{fill:#FFFFFF;stroke:#FFFFFF;stroke-width:4;stroke-linecap:round;stroke-linejoin:round;stroke-miterlimit:10;}
	.st2{fill:#490A3D;}
	.st3{fill:#2F0026;}
</style>
<g>
	<g>
		<g>
			<path class="st0" d="M6.1,39.5c-1.1,0-2-0.9-2-2V25.2c0-1.1,0.9-2,2-2h12.3c1.1,0,2,0.9,2,2v12.3c0,1.1-0.9,2-2,2H6.1z"/>
			<path class="st0" d="M18.4,25.2v12.3H6.1V25.2H18.4 M18.4,21.2H6.1c-2.2,0-4,1.8-4,4v12.3c0,2.2,1.8,4,4,4h12.3c2.2,0,4-1.8,4-4
				V25.2C22.4,23,20.6,21.2,18.4,21.2L18.4,21.2z"/>
		</g>
		<g>
			<path class="st1" d="M18.3,25.4v11.9h-12V25.4H18.3 M18.7,25H6v12.7h12.7V25L18.7,25z"/>
		</g>
	</g>
	<g>
		<g>
			<path class="st0" d="M18.8,39.5c-1.1,0-2-0.9-2-2V25.2c0-1.1,0.9-2,2-2h12.3c1.1,0,2,0.9,2,2v12.3c0,1.1-0.9,2-2,2H18.8z"/>
			<path class="st0" d="M31.1,25.2v12.3H18.8V25.2H31.1 M31.1,21.2H18.8c-2.2,0-4,1.8-4,4v12.3c0,2.2,1.8,4,4,4h12.3
				c2.2,0,4-1.8,4-4V25.2C35.1,23,33.3,21.2,31.1,21.2L31.1,21.2z"/>
		</g>
		<g>
			<path class="st1" d="M31,25.4v11.9H19V25.4H31 M31.3,25H18.7v12.7h12.7V25H31.3z"/>
		</g>
	</g>
	<g>
		<g>
			<path class="st0" d="M18.8,26.8c-1.1,0-2-0.9-2-2V12.5c0-1.1,0.9-2,2-2h12.3c1.1,0,2,0.9,2,2v12.3c0,1.1-0.9,2-2,2H18.8z"/>
			<path class="st0" d="M31.1,12.5v12.3H18.8V12.5H31.1 M31.1,8.5H18.8c-2.2,0-4,1.8-4,4v12.3c0,2.2,1.8,4,4,4h12.3c2.2,0,4-1.8,4-4
				V12.5C35.1,10.3,33.3,8.5,31.1,8.5L31.1,8.5z"/>
		</g>
		<g>
			<path class="st1" d="M31,12.7v11.9H19V12.7H31 M31.3,12.3H18.7V25h12.7V12.3H31.3z"/>
		</g>
	</g>
	<g>
		<g>
			<path class="st0" d="M31.5,26.8c-1.1,0-2-0.9-2-2V12.5c0-1.1,0.9-2,2-2h12.3c1.1,0,2,0.9,2,2v12.3c0,1.1-0.9,2-2,2H31.5z"/>
			<path class="st0" d="M43.8,12.5v12.3H31.5V12.5H43.8 M43.8,8.5H31.5c-2.2,0-4,1.8-4,4v12.3c0,2.2,1.8,4,4,4h12.3c2.2,0,4-1.8,4-4
				V12.5C47.8,10.3,46,8.5,43.8,8.5L43.8,8.5z"/>
		</g>
		<g>
			<path class="st1" d="M43.7,12.7v11.9h-12V12.7H43.7 M44,12.3H31.3V25H44V12.3L44,12.3z"/>
		</g>
	</g>
</g>
<g>
	<g>
		<rect x="6.1" y="25.2" class="st2" width="12.3" height="12.3"/>
		<g>
			<path class="st3" d="M18.3,25.4v11.9h-12V25.4H18.3 M18.7,25H6v12.7h12.7V25L18.7,25z"/>
		</g>
	</g>
	<g>
		<rect x="18.8" y="25.2" class="st2" width="12.3" height="12.3"/>
		<g>
			<path class="st3" d="M31,25.4v11.9H19V25.4H31 M31.3,25H18.7v12.7h12.7V25H31.3z"/>
		</g>
	</g>
	<g>
		<rect x="18.8" y="12.5" class="st2" width="12.3" height="12.3"/>
		<g>
			<path class="st3" d="M31,12.7v11.9H19V12.7H31 M31.3,12.3H18.7V25h12.7V12.3H31.3z"/>
		</g>
	</g>
	<g>
		<rect x="31.5" y="12.5" class="st2" width="12.3" height="12.3"/>
		<g>
			<path class="st3" d="M43.7,12.7v11.9h-12V12.7H43.7 M44,12.3H31.3V25H44V12.3L44,12.3z"/>
		</g>
	</g>
</g>
</svg>
