<?xml version="1.0" encoding="utf-8"?>
<!-- Generator: Adobe Illustrator 22.1.0, SVG Export Plug-In . SVG Version: 6.00 Build 0)  -->
<svg version="1.1" id="Layer_1" xmlns="http://www.w3.org/2000/svg" xmlns:xlink="http://www.w3.org/1999/xlink" x="0px" y="0px"
	 viewBox="0 0 336.7 400" style="enable-background:new 0 0 336.7 400;" xml:space="preserve">
<style type="text/css">
	.st0{fill:#00CDC8;}
	.st1{fill:#1CA49D;}
	.st2{fill:#CC0000;}
	.st3{fill:#8C0000;}
</style>
<g>
	<g>
		<rect x="10.6" y="95.1" class="st0" width="51.2" height="51.2"/>
		<g>
			<path class="st1" d="M61,95.9v49.6H11.4V95.9H61 M62.7,94.3H9.8v52.8h52.8V94.3H62.7z"/>
		</g>
	</g>
	<g>
		<rect x="116.3" y="95.1" class="st0" width="51.2" height="51.2"/>
		<g>
			<path class="st1" d="M166.7,95.9v49.6h-49.6V95.9H166.7 M168.4,94.3h-52.8v52.8h52.8V94.3L168.4,94.3z"/>
		</g>
	</g>
	<g>
		<rect x="10.6" y="42.3" class="st0" width="51.2" height="51.2"/>
		<g>
			<path class="st1" d="M61,43.1v49.6H11.4V43.1H61 M62.7,41.5H9.8v52.8h52.8V41.5H62.7z"/>
		</g>
	</g>
	<g>
		<rect x="63.5" y="42.3" class="st0" width="51.2" height="51.2"/>
		<g>
			<path class="st1" d="M113.9,43.1v49.6H64.3V43.1H113.9 M115.5,41.5H62.7v52.8h52.8V41.5L115.5,41.5z"/>
		</g>
	</g>
	<g>
		<rect x="116.3" y="42.3" class="st0" width="51.2" height="51.2"/>
		<g>
			<path class="st1" d="M166.7,43.1v49.6h-49.6V43.1H166.7 M168.4,41.5h-52.8v52.8h52.8V41.5L168.4,41.5z"/>
		</g>
	</g>
</g>
<g>
	<rect x="9" y="147.2" class="st2" width="52.8" height="52.8"/>
	<path class="st3" d="M61,148v51.2H9.8V148H61 M62.6,146.4H61H9.8H8.2v1.6v51.2v1.6h1.6H61h1.6v-1.6V148V146.4L62.6,146.4z"/>
</g>
<g>
	<rect x="61.9" y="147.2" class="st2" width="52.8" height="52.8"/>
	<path class="st3" d="M113.9,148v51.2H62.7V148H113.9 M115.5,146.4h-1.6H62.7h-1.6v1.6v51.2v1.6h1.6h51.2h1.6v-1.6V148V146.4
		L115.5,146.4z"/>
</g>
<g>
	<rect x="61.9" y="94.3" class="st2" width="52.8" height="52.8"/>
	<path class="st3" d="M113.9,95.1v51.2H62.7V95.1H113.9 M115.5,93.5h-1.6H62.7h-1.6v1.6v51.2v1.6h1.6h51.2h1.6v-1.6V95.1V93.5
		L115.5,93.5z"/>
</g>
<g>
	<rect x="114.7" y="147.2" class="st2" width="52.8" height="52.8"/>
	<path class="st3" d="M166.7,148v51.2h-51.2V148H166.7 M168.3,146.4h-1.6h-51.2h-1.6v1.6v51.2v1.6h1.6h51.2h1.6v-1.6V148V146.4
		L168.3,146.4z"/>
</g>
</svg>
