<?xml version="1.0" encoding="utf-8"?>
<!-- Generator: Adobe Illustrator 22.1.0, SVG Export Plug-In . SVG Version: 6.00 Build 0)  -->
<svg version="1.1" id="Layer_1" xmlns="http://www.w3.org/2000/svg" xmlns:xlink="http://www.w3.org/1999/xlink" x="0px" y="0px"
	 viewBox="0 0 336.7 400" style="enable-background:new 0 0 336.7 400;" xml:space="preserve">
<style type="text/css">
	.st0{fill:#A5D73C;}
	.st1{fill:#69941B;}
	.st2{fill:#FF9900;}
	.st3{fill:#CC6600;}
	.st4{fill:#00CDC8;}
	.st5{fill:#1CA49D;}
	.st6{fill:#FADC3C;}
	.st7{fill:#E7C42A;}
</style>
<g>
	<g>
		<rect x="169.2" y="148" class="st0" width="51.2" height="51.2"/>
		<g>
			<path class="st1" d="M219.6,148.8v49.6H170v-49.6H219.6 M221.2,147.2h-52.8V200h52.8V147.2L221.2,147.2z"/>
		</g>
	</g>
	<g>
		<rect x="222" y="148" class="st2" width="51.2" height="51.2"/>
		<g>
			<path class="st3" d="M272.4,148.8v49.6h-49.6v-49.6H272.4 M274,147.2h-52.8V200H274V147.2L274,147.2z"/>
		</g>
	</g>
	<g>
		<rect x="274.9" y="148" class="st2" width="51.2" height="51.2"/>
		<g>
			<path class="st3" d="M325.3,148.8v49.6h-49.6v-49.6H325.3 M326.9,147.2H274V200h52.8V147.2L326.9,147.2z"/>
		</g>
	</g>
	<g>
		<rect x="169.2" y="95.1" class="st0" width="51.2" height="51.2"/>
		<g>
			<path class="st1" d="M219.6,95.9v49.6H170V95.9H219.6 M221.2,94.3h-52.8v52.8h52.8V94.3L221.2,94.3z"/>
		</g>
	</g>
	<g>
		<rect x="222" y="95.1" class="st2" width="51.2" height="51.2"/>
		<g>
			<path class="st3" d="M272.4,95.9v49.6h-49.6V95.9H272.4 M274,94.3h-52.8v52.8H274V94.3L274,94.3z"/>
		</g>
	</g>
	<g>
		<rect x="274.9" y="95.1" class="st2" width="51.2" height="51.2"/>
		<g>
			<path class="st3" d="M325.3,95.9v49.6h-49.6V95.9H325.3 M326.9,94.3H274v52.8h52.8V94.3L326.9,94.3z"/>
		</g>
	</g>
	<g>
		<rect x="169.2" y="42.3" class="st4" width="51.2" height="51.2"/>
		<g>
			<path class="st5" d="M219.6,43.1v49.6H170V43.1H219.6 M221.2,41.5h-52.8v52.8h52.8V41.5L221.2,41.5z"/>
		</g>
	</g>
	<g>
		<rect x="222" y="42.3" class="st6" width="51.2" height="51.2"/>
		<g>
			<path class="st7" d="M272.4,43.1v49.6h-49.6V43.1H272.4 M274,41.5h-52.8v52.8H274V41.5L274,41.5z"/>
		</g>
	</g>
	<g>
		<rect x="274.9" y="42.3" class="st6" width="51.2" height="51.2"/>
		<g>
			<path class="st7" d="M325.3,43.1v49.6h-49.6V43.1H325.3 M326.9,41.5H274v52.8h52.8V41.5L326.9,41.5z"/>
		</g>
	</g>
</g>
</svg>
