<?xml version="1.0" encoding="utf-8"?>
<!-- Generator: Adobe Illustrator 22.1.0, SVG Export Plug-In . SVG Version: 6.00 Build 0)  -->
<svg version="1.1" id="Layer_1" xmlns="http://www.w3.org/2000/svg" xmlns:xlink="http://www.w3.org/1999/xlink" x="0px" y="0px"
	 viewBox="0 0 336.7 400" style="enable-background:new 0 0 336.7 400;" xml:space="preserve">
<style type="text/css">
	.st0{fill:#00CDC8;}
	.st1{fill:#1CA49D;}
	.st2{fill:#FADC3C;}
	.st3{fill:#E7C42A;}
</style>
<g>
	<g>
		<rect x="10.6" y="306.5" class="st0" width="51.2" height="51.2"/>
		<g>
			<path class="st1" d="M61,307.3v49.6H11.4v-49.6H61 M62.7,305.7H9.8v52.8h52.8V305.7L62.7,305.7z"/>
		</g>
	</g>
	<g>
		<rect x="63.5" y="306.5" class="st0" width="51.2" height="51.2"/>
		<g>
			<path class="st1" d="M113.9,307.3v49.6H64.3v-49.6H113.9 M115.5,305.7H62.7v52.8h52.8V305.7L115.5,305.7z"/>
		</g>
	</g>
	<g>
		<rect x="116.3" y="306.5" class="st0" width="51.2" height="51.2"/>
		<g>
			<path class="st1" d="M166.7,307.3v49.6h-49.6v-49.6H166.7 M168.4,305.7h-52.8v52.8h52.8V305.7L168.4,305.7z"/>
		</g>
	</g>
	<g>
		<rect x="10.6" y="253.7" class="st2" width="51.2" height="51.2"/>
		<g>
			<path class="st3" d="M61,254.5v49.6H11.4v-49.6H61 M62.7,252.8H9.8v52.8h52.8V252.8L62.7,252.8z"/>
		</g>
	</g>
	<g>
		<rect x="63.5" y="253.7" class="st2" width="51.2" height="51.2"/>
		<g>
			<path class="st3" d="M113.9,254.5v49.6H64.3v-49.6H113.9 M115.5,252.8H62.7v52.8h52.8V252.8L115.5,252.8z"/>
		</g>
	</g>
	<g>
		<rect x="116.3" y="253.7" class="st2" width="51.2" height="51.2"/>
		<g>
			<path class="st3" d="M166.7,254.5v49.6h-49.6v-49.6H166.7 M168.4,252.8h-52.8v52.8h52.8V252.8L168.4,252.8z"/>
		</g>
	</g>
	<g>
		<rect x="10.6" y="200.8" class="st0" width="51.2" height="51.2"/>
		<g>
			<path class="st1" d="M61,201.6v49.6H11.4v-49.6H61 M62.7,200H9.8v52.8h52.8V200L62.7,200z"/>
		</g>
	</g>
	<g>
		<rect x="63.5" y="200.8" class="st0" width="51.2" height="51.2"/>
		<g>
			<path class="st1" d="M113.9,201.6v49.6H64.3v-49.6H113.9 M115.5,200H62.7v52.8h52.8V200L115.5,200z"/>
		</g>
	</g>
	<g>
		<rect x="116.3" y="200.8" class="st2" width="51.2" height="51.2"/>
		<g>
			<path class="st3" d="M166.7,201.6v49.6h-49.6v-49.6H166.7 M168.4,200h-52.8v52.8h52.8V200L168.4,200z"/>
		</g>
	</g>
</g>
</svg>
