<?xml version="1.0" encoding="utf-8"?>
<!-- Generator: Adobe Illustrator 22.1.0, SVG Export Plug-In . SVG Version: 6.00 Build 0)  -->
<svg version="1.1" id="Layer_1" xmlns="http://www.w3.org/2000/svg" xmlns:xlink="http://www.w3.org/1999/xlink" x="0px" y="0px"
	 viewBox="0 0 336.7 400" style="enable-background:new 0 0 336.7 400;" xml:space="preserve">
<style type="text/css">
	.st0{fill:#A5D73C;}
	.st1{fill:#69941B;}
	.st2{fill:#490A3D;}
	.st3{fill:#2F0026;}
</style>
<g>
	<g>
		<rect x="169.2" y="306.5" class="st0" width="51.2" height="51.2"/>
		<g>
			<path class="st1" d="M219.6,307.3v49.6H170v-49.6H219.6 M221.2,305.7h-52.8v52.8h52.8V305.7L221.2,305.7z"/>
		</g>
	</g>
	<g>
		<rect x="222" y="306.5" class="st0" width="51.2" height="51.2"/>
		<g>
			<path class="st1" d="M272.4,307.3v49.6h-49.6v-49.6H272.4 M274,305.7h-52.8v52.8H274V305.7L274,305.7z"/>
		</g>
	</g>
	<g>
		<rect x="274.9" y="306.5" class="st0" width="51.2" height="51.2"/>
		<g>
			<path class="st1" d="M325.3,307.3v49.6h-49.6v-49.6H325.3 M326.9,305.7H274v52.8h52.8V305.7L326.9,305.7z"/>
		</g>
	</g>
	<g>
		<rect x="169.2" y="253.7" class="st2" width="51.2" height="51.2"/>
		<g>
			<path class="st3" d="M219.6,254.5v49.6H170v-49.6H219.6 M221.2,252.8h-52.8v52.8h52.8V252.8L221.2,252.8z"/>
		</g>
	</g>
	<g>
		<rect x="222" y="253.7" class="st2" width="51.2" height="51.2"/>
		<g>
			<path class="st3" d="M272.4,254.5v49.6h-49.6v-49.6H272.4 M274,252.8h-52.8v52.8H274V252.8L274,252.8z"/>
		</g>
	</g>
	<g>
		<rect x="274.9" y="253.7" class="st0" width="51.2" height="51.2"/>
		<g>
			<path class="st1" d="M325.3,254.5v49.6h-49.6v-49.6H325.3 M326.9,252.8H274v52.8h52.8V252.8L326.9,252.8z"/>
		</g>
	</g>
	<g>
		<rect x="169.2" y="200.8" class="st0" width="51.2" height="51.2"/>
		<g>
			<path class="st1" d="M219.6,201.6v49.6H170v-49.6H219.6 M221.2,200h-52.8v52.8h52.8V200L221.2,200z"/>
		</g>
	</g>
	<g>
		<rect x="222" y="200.8" class="st2" width="51.2" height="51.2"/>
		<g>
			<path class="st3" d="M272.4,201.6v49.6h-49.6v-49.6H272.4 M274,200h-52.8v52.8H274V200L274,200z"/>
		</g>
	</g>
	<g>
		<rect x="274.9" y="200.8" class="st2" width="51.2" height="51.2"/>
		<g>
			<path class="st3" d="M325.3,201.6v49.6h-49.6v-49.6H325.3 M326.9,200H274v52.8h52.8V200L326.9,200z"/>
		</g>
	</g>
</g>
</svg>
