<?xml version="1.0" encoding="utf-8"?>
<!-- Generator: Adobe Illustrator 22.1.0, SVG Export Plug-In . SVG Version: 6.00 Build 0)  -->
<svg version="1.1" id="Layer_1" xmlns="http://www.w3.org/2000/svg" xmlns:xlink="http://www.w3.org/1999/xlink" x="0px" y="0px"
	 viewBox="0 0 400 400" style="enable-background:new 0 0 400 400;" xml:space="preserve">
<style type="text/css">
	.st0{fill:#F24044;}
	.st1{fill:#B3040F;}
	.st2{fill:none;stroke:#B3040F;stroke-width:6;stroke-linecap:round;stroke-miterlimit:10;}
	.st3{fill:#FC6A6C;}
	.st4{fill:#FADC3C;}
	.st5{fill:#E7C42A;}
	.st6{fill:none;stroke:#E7C42A;stroke-width:3;stroke-miterlimit:10;}
	.st7{fill:none;stroke:#490A3D;stroke-width:4;stroke-linecap:round;stroke-miterlimit:10;}
	.st8{fill:#490A3D;}
</style>
<g>
	<g>
		<g>
			<path class="st0" d="M204.1,300c-17,0-31.2-10-32.9-23.4c-1.9-15.1,12.2-29.4,31.6-31.9c1.9-0.2,3.8-0.4,5.7-0.4
				c17,0,31.2,10,32.9,23.4c0.9,7.2-1.8,14.5-7.6,20.5c-6,6.2-14.5,10.2-24,11.4C207.9,299.9,206,300,204.1,300z"/>
			<path class="st1" d="M208.5,241.4v6l0,0c15.5,0,28.4,8.9,29.9,20.8c0.8,6.3-1.6,12.7-6.8,18c-5.5,5.7-13.4,9.4-22.2,10.5
				c-1.8,0.2-3.5,0.3-5.3,0.3c-15.5,0-28.4-8.9-29.9-20.8c-0.8-6.3,1.6-12.7,6.8-18c5.5-5.7,13.4-9.4,22.2-10.5
				c1.8-0.2,3.5-0.3,5.3-0.3V241.4 M208.5,241.4c-2,0-4,0.1-6,0.4c-21,2.7-36.3,18.4-34.2,35.2c1.9,15.2,17.4,26,35.8,26
				c2,0,4-0.1,6-0.4c21-2.7,36.3-18.4,34.2-35.2C242.4,252.2,226.9,241.3,208.5,241.4L208.5,241.4z"/>
		</g>
		<g>
			<g>
				<path class="st0" d="M270.8,360.6c-13.6,0-29.2-16.9-36.5-39.3c-4.1-12.8-5.2-25.7-2.9-36.4c2.2-10.1,7-16.8,13.7-19
					c1.5-0.5,3.1-0.7,4.7-0.7c13.6,0,29.2,16.9,36.5,39.3c4.1,12.8,5.2,25.7,2.9,36.4c-2.2,10.1-7,16.8-13.7,19
					C274,360.4,272.4,360.6,270.8,360.6L270.8,360.6z"/>
				<g>
					<path class="st1" d="M249.8,268.2c10.5,0,25.8,13,33.6,37.2c4,12.3,5,24.7,2.8,34.8c-2.6,12.1-8.4,15.7-11.7,16.7
						c-1.2,0.4-2.5,0.6-3.8,0.6c-10.5,0-25.8-13-33.6-37.2c-4-12.3-5-24.7-2.8-34.8c2.6-12.1,8.4-15.7,11.7-16.7
						C247.2,268.4,248.5,268.2,249.8,268.2 M249.8,262.2c-1.9,0-3.8,0.3-5.6,0.9c-15.9,5.1-21.6,31.6-12.7,59.1
						c7.9,24.4,24.6,41.4,39.3,41.4c1.9,0,3.8-0.3,5.6-0.9c15.9-5.1,21.6-31.6,12.7-59.1C281.3,279.3,264.6,262.2,249.8,262.2
						L249.8,262.2z"/>
				</g>
			</g>
			<path class="st2" d="M261.3,227.3c0,0,15.6-54.3,70.4-25.5"/>
			<g>
				<path class="st0" d="M254.4,263.4c-2.6,0-5.1-0.5-7.6-1.5c-4.8-2-8.6-5.8-10.5-10.6s-1.9-10.2,0.1-15c3.1-7.3,10.1-12,18-12
					c2.6,0,5.1,0.5,7.6,1.5c4.8,2,8.6,5.8,10.5,10.6c2,4.8,1.9,10.2-0.1,15C269.4,258.7,262.3,263.4,254.4,263.4z"/>
				<g>
					<path class="st1" d="M254.4,227.2L254.4,227.2c2.2,0,4.4,0.4,6.4,1.3c8.4,3.5,12.4,13.3,8.9,21.7c-2.6,6.2-8.6,10.2-15.3,10.2
						c-2.2,0-4.4-0.4-6.4-1.3c-4.1-1.7-7.2-4.9-8.9-9s-1.7-8.6,0.1-12.7C241.7,231.2,247.7,227.2,254.4,227.2 M254.4,221.2
						c-8.8,0-17.2,5.2-20.8,13.8c-4.8,11.5,0.6,24.7,12.1,29.5c2.9,1.2,5.8,1.8,8.7,1.8c8.8,0,17.2-5.2,20.8-13.8
						c4.8-11.5-0.6-24.7-12.1-29.5C260.3,221.8,257.3,221.2,254.4,221.2L254.4,221.2z"/>
				</g>
			</g>
		</g>
		<g>
			<path class="st0" d="M132.9,353.2c-3.7,0-7.2-0.7-10.5-2.1c-8.8-3.7-15.2-12-17.9-23.4c-2.8-11.7-1.4-25.2,4-37.9
				c8.7-20.6,26.4-35,43-35c3.7,0,7.2,0.7,10.5,2.1c18.6,7.8,24.9,35.3,13.9,61.3C167.3,338.7,149.6,353.2,132.9,353.2z"/>
			<g>
				<path class="st1" d="M151.5,257.7L151.5,257.7c3.3,0,6.4,0.6,9.3,1.8c7.9,3.3,13.7,10.9,16.2,21.3c2.6,11.1,1.3,23.9-3.8,36.1
					c-8.2,19.5-24.8,33.2-40.3,33.2c-3.3,0-6.4-0.6-9.3-1.8c-7.9-3.3-13.7-10.9-16.2-21.3c-2.6-11.1-1.3-23.9,3.8-36.1
					C119.5,271.4,136,257.7,151.5,257.7 M151.5,251.7c-17.6,0-36.4,14.4-45.8,36.9c-11.6,27.6-4.6,56.8,15.5,65.2
					c3.7,1.6,7.7,2.3,11.7,2.3c17.6,0,36.4-14.4,45.8-36.9c11.6-27.6,4.6-56.8-15.5-65.2C159.4,252.5,155.5,251.7,151.5,251.7
					L151.5,251.7z"/>
			</g>
		</g>
		<g>
			<path class="st0" d="M178.1,263c-3.9,0-7.7-0.8-11.3-2.3c-7.2-3-12.7-8.6-15.7-15.8s-2.9-15.1,0.1-22.3
				c4.6-10.9,15.1-17.9,26.9-17.9c3.9,0,7.7,0.8,11.3,2.3c14.8,6.2,21.8,23.3,15.6,38.1C200.4,256,189.8,263,178.1,263z"/>
			<g>
				<path class="st1" d="M178.1,201.7v6c3.5,0,6.9,0.7,10.1,2c13.3,5.6,19.6,20.9,14,34.2c-4.1,9.7-13.6,16-24.1,16
					c-3.5,0-6.9-0.7-10.1-2c-13.3-5.6-19.6-20.9-14-34.2c4.1-9.7,13.6-16,24.1-16V201.7 M178.1,201.7c-12.6,0-24.5,7.4-29.6,19.7
					c-6.9,16.4,0.8,35.2,17.2,42.1c4.1,1.7,8.3,2.5,12.4,2.5c12.6,0,24.5-7.4,29.6-19.7c6.9-16.4-0.8-35.2-17.2-42.1
					C186.5,202.5,182.3,201.7,178.1,201.7L178.1,201.7z"/>
			</g>
		</g>
		<g>
			<g>
				<path class="st0" d="M112,235.5c-16.1,0-28.2-5.7-30.6-14.6c-1.7-6.1,1.2-13.2,8-20c7.3-7.2,18.1-13.1,30.4-16.5
					c7.1-2,14.2-3,21-3c16.1,0,28.2,5.7,30.6,14.6c1.7,6.1-1.2,13.2-8,20c-7.3,7.2-18.1,13.1-30.4,16.5
					C125.9,234.5,118.8,235.5,112,235.5L112,235.5z"/>
				<g>
					<path class="st1" d="M140.8,184.5c14.5,0,25.7,5,27.7,12.4c1.4,4.9-1.3,11.2-7.2,17.1c-6.9,6.9-17.2,12.4-29,15.7
						c-6.9,1.9-13.7,2.9-20.2,2.9c-14.5,0-25.7-5-27.7-12.4c-1.4-4.9,1.3-11.2,7.2-17.1c6.9-6.9,17.2-12.4,29-15.7
						C127.4,185.5,134.2,184.5,140.8,184.5 M140.8,178.5c-6.8,0-14.3,1-21.8,3.1c-26.4,7.3-44.6,25.3-40.4,40.1
						c2.9,10.6,16.4,16.8,33.5,16.8c6.8,0,14.3-1,21.8-3.1c26.4-7.3,44.6-25.3,40.4-40.1C171.4,184.7,157.9,178.5,140.8,178.5
						L140.8,178.5z"/>
				</g>
			</g>
			<line class="st2" x1="68.2" y1="227" x2="79.8" y2="222.4"/>
		</g>
		<g>
			<path class="st0" d="M192.2,206.8c-6.1,0-12-1.2-17.7-3.6c-11.3-4.7-20-13.6-24.6-24.9c-4.6-11.3-4.6-23.8,0.2-35
				c7.2-17,23.7-28,42.2-28c6.1,0,12,1.2,17.7,3.6c23.3,9.8,34.2,36.6,24.5,59.9C227.2,195.8,210.7,206.8,192.2,206.8z"/>
			<g>
				<path class="st1" d="M192.2,118.3L192.2,118.3c5.7,0,11.2,1.1,16.5,3.3c21.7,9.1,32,34.2,22.9,56c-6.7,15.9-22.2,26.2-39.4,26.2
					c-5.7,0-11.2-1.1-16.5-3.3c-21.7-9.1-32-34.2-22.9-56C159.5,128.6,175,118.3,192.2,118.3 M192.2,112.3c-19,0-37.1,11.2-45,29.9
					c-10.4,24.8,1.2,53.4,26.1,63.8c6.2,2.6,12.6,3.8,18.9,3.8c19,0,37.1-11.2,45-29.9c10.4-24.8-1.2-53.4-26.1-63.8
					C204.9,113.5,198.5,112.3,192.2,112.3L192.2,112.3z"/>
			</g>
		</g>
		
			<ellipse transform="matrix(0.9258 -0.3781 0.3781 0.9258 -68.1039 56.5621)" class="st3" cx="110" cy="201.7" rx="16.9" ry="5.8"/>
		
			<ellipse transform="matrix(0.4071 -0.9134 0.9134 0.4071 -197.4225 287.5337)" class="st3" cx="122.8" cy="295.8" rx="16.9" ry="5.8"/>
		
			<ellipse transform="matrix(0.9467 -0.3221 0.3221 0.9467 -84.6944 95.9758)" class="st3" cx="247.7" cy="303.9" rx="5.8" ry="16.9"/>
	</g>
	<circle class="st3" cx="181.7" cy="138.8" r="13.8"/>
	<ellipse class="st3" cx="249.2" cy="231.1" rx="5.2" ry="5.2"/>
	<ellipse class="st3" cx="181.7" cy="219.5" rx="5.2" ry="5.2"/>
	<ellipse class="st3" cx="220.4" cy="257.9" rx="5.2" ry="5.2"/>
</g>
<g>
	<rect x="77.4" y="31.5" class="st4" width="63.4" height="63.4"/>
	<g>
		<path class="st5" d="M139.7,32.5v61.3H78.5V32.5H139.7 M141.8,30.4H76.4v65.5h65.5V30.4L141.8,30.4z"/>
	</g>
</g>
<line class="st6" x1="108.6" y1="96" x2="108.6" y2="30.4"/>
<line class="st6" x1="76.9" y1="63.2" x2="141.3" y2="63.2"/>
<path class="st7" d="M108.6,90.3c-13.8,0-25-11.2-25-25s11.2-25,25-25"/>
<g>
	<rect x="168.2" y="31.8" class="st4" width="63.4" height="63.4"/>
	<path class="st5" d="M230.6,32.9v61.3h-61.3V32.9H230.6 M232.7,30.8h-65.5v65.5h65.5V30.8L232.7,30.8z"/>
</g>
<line class="st6" x1="167.1" y1="63" x2="232.7" y2="63"/>
<line class="st6" x1="199.9" y1="30.8" x2="199.9" y2="96.2"/>
<path class="st7" d="M200.1,37.9c-13.8,0-23.1,11.2-23.1,25"/>
<g>
	<rect x="259.2" y="31.8" class="st4" width="63.4" height="63.4"/>
	<path class="st5" d="M321.6,32.9v61.3h-61.3V32.9H321.6 M323.7,30.8h-65.5v65.5h65.5L323.7,30.8L323.7,30.8z"/>
</g>
<line class="st6" x1="323.7" y1="63" x2="258.1" y2="63"/>
<line class="st6" x1="290.9" y1="30.9" x2="290.9" y2="96.5"/>
<path class="st7" d="M263.7,63c0-13.8,11.2-25,25-25s25,11.2,25,25"/>
<polygon class="st8" points="315.3,66.4 317.8,54.3 306.1,58.2 "/>
<polygon class="st8" points="177.2,66.6 184,56.4 171.7,55.6 "/>
<polygon class="st8" points="103.6,47.2 113.7,40.1 102.4,35 "/>
</svg>
