<?xml version="1.0" encoding="utf-8"?>
<!-- Generator: Adobe Illustrator 22.1.0, SVG Export Plug-In . SVG Version: 6.00 Build 0)  -->
<svg version="1.1" id="Layer_1" xmlns="http://www.w3.org/2000/svg" xmlns:xlink="http://www.w3.org/1999/xlink" x="0px" y="0px"
	 viewBox="0 0 80.6 80.6" style="enable-background:new 0 0 80.6 80.6;" xml:space="preserve">
<style type="text/css">
	.st0{fill:#FFFFFF;stroke:#FFFFFF;stroke-width:2;stroke-miterlimit:10;}
	.st1{fill:#F24044;}
	.st2{fill:#B3040F;}
	.st3{fill:#FC6A6C;}
</style>
<g>
	<g>
		<polygon class="st0" points="41.1,5.3 41.1,4.4 41.1,5.3 		"/>
		<line class="st0" x1="41.1" y1="4.4" x2="41.1" y2="4.4"/>
		<path class="st0" d="M74,51.1c-1.4-3.3-3.9-5.8-7-7.2c1.8-1.5,3.5-3.5,4.9-5.9c3.6-6.3,3.7-12.9,0.5-15.3l1.3-3
			c0.2-0.4,0-0.9-0.4-1.1c-0.4-0.2-0.9,0-1.1,0.4l-1.3,2.9c-0.4-0.1-0.8-0.2-1.3-0.2c-3.6,0-8,3.4-11,8.7c-0.6,1.1-1.1,2.2-1.5,3.2
			c-1.3-1.6-3.1-2.6-5.1-3c3.4-3.4,4.2-9.8,1.7-16C51.1,8.4,45.9,4.4,41.1,4.4v0.8c0,0,0,0,0,0l0-0.8c0,0,0,0,0,0
			C40,4.4,39,4.6,38,5c-5.6,2.3-7.5,10.3-4.4,17.8c0.8,1.9,1.8,3.7,3.1,5.1c-2.2,0.7-4.3,2.1-5.9,4.2c-1.1,1.4-1.8,2.9-2.2,4.4
			c-1.5-1.5-3.5-3-5.7-4.1c-3.2-1.7-6.6-2.5-9.4-2.5c-3.3,0-6,1.1-7.2,3.3c-2.1,4.1,1.9,10.3,9,13.9c3.2,1.7,6.6,2.5,9.4,2.5
			c1.3,0,2.4-0.2,3.4-0.5c-0.8,1.6-1,3.4-0.2,5.2c1,2.4,3.3,3.8,5.7,3.8c0.5,0,1.1-0.1,1.6-0.2c0.7,1.8,1.9,5.6,0.5,9.3
			c-1.3,3.2-4.4,5.6-9.2,7.1c-0.4,0.1-0.7,0.6-0.5,1c0.1,0.4,0.4,0.6,0.8,0.6c0.1,0,0.2,0,0.2,0c5.3-1.6,8.7-4.4,10.2-8.1
			c1.7-4.2,0.4-8.5-0.5-10.6c2.6-1.5,3.8-4.8,2.6-7.7c-0.5-1.2-1.3-2.2-2.4-2.9c2-0.4,4.1-1.4,5.8-3.1c1.6,2.7,4.5,4.2,7.5,4.2
			c0.2,0,0.5,0,0.7,0c-2.8,3.6-3.6,8.6-1.7,13.1c2.1,5.2,7.1,8.3,12.4,8.3c1.7,0,3.4-0.3,5.1-1C73.5,65.8,76.8,58,74,51.1z"/>
	</g>
	<g>
		<g>
			<g>
				<path class="st1" d="M35.4,46.3c-1.5,0-2.9-0.4-4-1.3c-3.3-2.6-3.3-8.1-0.1-12.3c2.1-2.7,5.1-4.3,8-4.3c1.5,0,2.9,0.4,4,1.3
					c3.3,2.6,3.3,8.1,0.1,12.3C41.2,44.7,38.3,46.3,35.4,46.3z"/>
				<path class="st2" d="M39.3,27.6v1.6h0c1.3,0,2.5,0.4,3.5,1.1c2.9,2.3,2.9,7.3-0.1,11.2c-1.9,2.5-4.7,4-7.3,4
					c-1.3,0-2.5-0.4-3.5-1.1c-1.4-1.1-2.1-2.8-2.2-4.8c0-2.2,0.8-4.4,2.3-6.3c1.9-2.5,4.7-4,7.3-4L39.3,27.6 M39.3,27.6
					c-3,0-6.3,1.6-8.6,4.6c-3.6,4.6-3.5,10.6,0.2,13.5c1.3,1,2.8,1.5,4.5,1.5c3,0,6.3-1.6,8.6-4.6c3.6-4.6,3.5-10.6-0.2-13.5
					C42.5,28.1,40.9,27.6,39.3,27.6L39.3,27.6z"/>
			</g>
			<g>
				<g>
					<path class="st1" d="M24.6,49c-2.8,0-6-0.8-9-2.4c-3.3-1.7-6-4-7.6-6.5c-1.5-2.4-1.9-4.6-1-6.3c0.9-1.8,3.3-2.9,6.4-2.9
						c2.8,0,6,0.8,9,2.4c6.5,3.3,10.5,9.2,8.6,12.8C30.1,47.9,27.7,49,24.6,49C24.6,49,24.6,49,24.6,49z"/>
					<g>
						<path class="st2" d="M13.3,31.7c2.7,0,5.8,0.8,8.7,2.3c3.2,1.6,5.8,3.8,7.3,6.2c1.8,2.9,1.4,4.7,1,5.5
							c-0.8,1.6-2.9,2.4-5.7,2.4c-2.7,0-5.8-0.8-8.7-2.3c-3.2-1.6-5.8-3.8-7.3-6.2c-1.8-2.9-1.4-4.7-1-5.5
							C8.4,32.6,10.5,31.7,13.3,31.7 M13.3,30c-3.3,0-6,1.1-7.2,3.3c-2.1,4.1,1.9,10.3,9,13.9c3.2,1.7,6.6,2.5,9.4,2.5
							c3.3,0,6-1.1,7.2-3.3c2.1-4.1-1.9-10.3-9-13.9C19.5,30.9,16.2,30,13.3,30L13.3,30z"/>
					</g>
				</g>
				<g>
					<path class="st2" d="M26.7,76.2c-0.4,0-0.7-0.2-0.8-0.6c-0.1-0.4,0.1-0.9,0.5-1c4.8-1.5,7.9-3.9,9.2-7.1
						c2-4.9-0.9-10.3-0.9-10.3c-0.2-0.4-0.1-0.9,0.3-1.1c0.4-0.2,0.9-0.1,1.1,0.3c0.1,0.2,3.3,6.1,1,11.7c-1.5,3.7-4.9,6.4-10.2,8.1
						C26.8,76.2,26.7,76.2,26.7,76.2z"/>
				</g>
				<g>
					<path class="st1" d="M33.5,57.5c-2.2,0-4.1-1.3-5-3.3c-0.5-1.3-0.5-2.8,0-4.1c0.6-1.3,1.6-2.3,2.9-2.9c0.6-0.3,1.3-0.4,2-0.4
						c2.2,0,4.1,1.3,5,3.3c1.1,2.7-0.2,5.9-2.9,7C34.9,57.4,34.2,57.5,33.5,57.5z"/>
					<g>
						<path class="st2" d="M33.5,46v1.6c1.9,0,3.5,1.1,4.2,2.8c0.9,2.3-0.2,5-2.5,5.9c-0.6,0.2-1.1,0.3-1.7,0.3
							c-1.9,0-3.5-1.1-4.2-2.8c-0.5-1.1-0.5-2.4,0-3.5c0.5-1.1,1.3-2,2.5-2.4c0.6-0.2,1.1-0.3,1.7-0.3L33.5,46 M33.5,46
							c-0.8,0-1.6,0.1-2.3,0.5c-3.2,1.3-4.7,4.9-3.4,8.1c1,2.4,3.3,3.8,5.7,3.8c0.8,0,1.6-0.1,2.3-0.5c3.2-1.3,4.7-4.9,3.4-8.1
							C38.3,47.4,35.9,46,33.5,46L33.5,46z"/>
					</g>
				</g>
			</g>
			<g>
				<path class="st1" d="M46.1,32.3c-4.6,0-9.4-4-11.8-9.7c-1.4-3.5-1.8-7.2-1-10.4c0.8-3.1,2.5-5.4,5-6.4c0.9-0.4,1.8-0.5,2.8-0.5
					c4.6,0,9.4,4,11.8,9.7c1.4,3.5,1.8,7.2,1,10.4c-0.8,3.1-2.5,5.4-5,6.4C48,32.1,47.1,32.3,46.1,32.3z"/>
				<g>
					<path class="st2" d="M41.1,4.4v1.6c4.3,0,8.8,3.8,11,9.2c1.4,3.3,1.7,6.9,1,9.9c-0.7,2.8-2.3,4.9-4.5,5.8
						c-0.8,0.3-1.6,0.5-2.5,0.5c-4.3,0-8.8-3.8-11-9.2c-1.4-3.3-1.7-6.9-1-9.9c0.7-2.8,2.3-4.9,4.5-5.8c0.8-0.3,1.6-0.5,2.5-0.5
						L41.1,4.4 M41.1,4.4C40,4.4,39,4.6,38,5c-5.6,2.3-7.5,10.3-4.4,17.8c2.5,6.2,7.7,10.2,12.5,10.2c1.1,0,2.1-0.2,3.1-0.6
						c5.6-2.3,7.5-10.3,4.4-17.8C51.1,8.4,45.9,4.4,41.1,4.4L41.1,4.4z"/>
				</g>
			</g>
			<g>
				<path class="st1" d="M50.2,47.3c-3.3,0-6.2-2-7.4-5c-1.7-4.1,0.3-8.8,4.4-10.4c1-0.4,2-0.6,3-0.6c3.3,0,6.2,2,7.4,5
					c1.7,4.1-0.3,8.8-4.4,10.4C52.3,47.1,51.3,47.3,50.2,47.3z"/>
				<g>
					<path class="st2" d="M50.2,30.5l0,1.6h0c2.9,0,5.5,1.8,6.6,4.5c0.7,1.8,0.7,3.7,0,5.5c-0.7,1.8-2.1,3.1-3.9,3.9
						c-0.9,0.4-1.8,0.5-2.7,0.5c-2.9,0-5.5-1.8-6.6-4.5c-1.5-3.7,0.3-7.9,3.9-9.3c0.9-0.4,1.8-0.5,2.7-0.5L50.2,30.5 M50.2,30.5
						c-1.1,0-2.2,0.2-3.3,0.7c-4.5,1.8-6.7,7-4.8,11.5c1.4,3.4,4.7,5.5,8.2,5.5c1.1,0,2.2-0.2,3.3-0.7c4.5-1.8,6.7-7,4.8-11.5
						C57,32.6,53.7,30.5,50.2,30.5L50.2,30.5z"/>
				</g>
			</g>
			<g>
				<g>
					<path class="st1" d="M60.8,45.8c-0.7,0-1.4-0.2-1.9-0.5c-1.5-0.9-2.3-2.8-2.3-5.4c0-2.8,1-6,2.7-9.1c2.8-4.9,7-8.2,10.3-8.2
						c0.7,0,1.4,0.2,1.9,0.5c3.2,1.8,3.1,8.5-0.4,14.5C68.4,42.4,64.1,45.8,60.8,45.8C60.8,45.8,60.8,45.8,60.8,45.8z"/>
					<g>
						<path class="st2" d="M69.5,23.4c0.6,0,1.1,0.1,1.5,0.4c1.2,0.7,1.9,2.4,1.9,4.7c0,2.7-0.9,5.8-2.6,8.7c-1.3,2.4-3,4.4-4.9,5.8
							c-1.7,1.3-3.3,2-4.7,2c-0.6,0-1.1-0.1-1.5-0.4c-1.2-0.7-1.9-2.4-1.9-4.7c0-2.7,0.9-5.8,2.6-8.7c1.3-2.4,3-4.4,4.9-5.8
							C66.5,24.1,68.2,23.4,69.5,23.4 M69.5,21.8c-3.6,0-8,3.4-11,8.7C54.8,37,54.8,44,58.4,46.1c0.7,0.4,1.5,0.6,2.3,0.6
							c3.6,0,8-3.4,11-8.7c3.7-6.5,3.7-13.5,0.1-15.6C71.2,22,70.4,21.8,69.5,21.8L69.5,21.8z"/>
					</g>
				</g>
				<g>
					<path class="st2" d="M71.5,23.3c-0.1,0-0.2,0-0.3-0.1c-0.4-0.2-0.6-0.7-0.4-1.1l1.4-3.1c0.2-0.4,0.7-0.6,1.1-0.4
						c0.4,0.2,0.6,0.7,0.4,1.1l-1.4,3.1C72.1,23.1,71.8,23.3,71.5,23.3z"/>
				</g>
			</g>
			<g>
				<path class="st1" d="M61.6,68.7c-5.1,0-9.7-3.1-11.6-7.8c-2.6-6.4,0.5-13.7,6.9-16.4c1.5-0.6,3.1-0.9,4.7-0.9
					c5.1,0,9.7,3.1,11.6,7.8c2.6,6.4-0.5,13.7-6.9,16.4C64.8,68.4,63.2,68.7,61.6,68.7z"/>
				<g>
					<path class="st2" d="M61.6,44.4c4.8,0,9,2.9,10.9,7.3c2.4,6-0.4,12.8-6.4,15.3c-1.4,0.6-2.9,0.9-4.4,0.9c-4.8,0-9-2.9-10.9-7.3
						c-2.4-6,0.4-12.8,6.4-15.3C58.6,44.7,60.1,44.4,61.6,44.4L61.6,44.4 M61.6,42.8c-1.7,0-3.4,0.3-5.1,1
						c-6.8,2.8-10.1,10.6-7.3,17.4c2.1,5.2,7.1,8.3,12.4,8.3c1.7,0,3.4-0.3,5.1-1C73.5,65.8,76.8,58,74,51.1
						C71.9,45.9,66.9,42.8,61.6,42.8L61.6,42.8z"/>
				</g>
			</g>
			<ellipse transform="matrix(0.3873 -0.922 0.922 0.3873 12.8579 84.048)" class="st3" cx="69.7" cy="32.4" rx="4.6" ry="1.6"/>
			<ellipse transform="matrix(0.9337 -0.358 0.358 0.9337 -2.6906 18.6286)" class="st3" cx="49" cy="16.6" rx="1.6" ry="4.6"/>
			
				<ellipse transform="matrix(0.4416 -0.8972 0.8972 0.4416 -22.2838 42.6606)" class="st3" cx="23.1" cy="39.2" rx="1.6" ry="4.6"/>
		</g>
		<circle class="st3" cx="68" cy="58.5" r="3.8"/>
		<ellipse transform="matrix(0.7071 -0.7071 0.7071 0.7071 -27.1019 41.8572)" class="st3" cx="37" cy="53.6" rx="1.4" ry="1.4"/>
		<ellipse transform="matrix(0.7071 -0.7071 0.7071 0.7071 -14.9466 49.5327)" class="st3" cx="52.3" cy="42.8" rx="1.4" ry="1.4"/>
		<ellipse transform="matrix(0.7071 -0.7071 0.7071 0.7071 -19.3649 38.98)" class="st3" cx="37.4" cy="42.9" rx="1.4" ry="1.4"/>
	</g>
</g>
</svg>
