<?xml version="1.0" encoding="utf-8"?>
<!-- Generator: Adobe Illustrator 22.1.0, SVG Export Plug-In . SVG Version: 6.00 Build 0)  -->
<svg version="1.1" id="Layer_1" xmlns="http://www.w3.org/2000/svg" xmlns:xlink="http://www.w3.org/1999/xlink" x="0px" y="0px"
	 viewBox="0 0 80.6 80.6" style="enable-background:new 0 0 80.6 80.6;" xml:space="preserve">
<style type="text/css">
	.st0{fill:#FFFFFF;stroke:#FFFFFF;stroke-width:2;stroke-miterlimit:10;}
	.st1{fill:#F24044;}
	.st2{fill:#B3040F;}
	.st3{fill:#FC6A6C;}
</style>
<g>
	<g>
		<polygon class="st0" points="16.7,69.7 16.1,70.3 16.7,69.7 		"/>
		<line class="st0" x1="16.1" y1="70.3" x2="16.1" y2="70.3"/>
		<path class="st0" d="M25.8,14c-1.4,3.3-1.3,6.9-0.1,10c-2.3-0.2-4.9,0-7.6,0.8c-6.9,1.9-11.8,6.5-11.2,10.5l-3,1.2
			c-0.4,0.2-0.6,0.6-0.5,1.1C3.6,38,4,38.2,4.5,38.1l3-1.2c0.2,0.4,0.5,0.7,0.8,1c2.5,2.5,8.1,3.3,13.9,1.7c1.2-0.3,2.3-0.7,3.4-1.2
			c-0.2,2,0.4,4,1.5,5.7c-4.8,0-10,4-12.5,10.1c-2.6,6.2-1.8,12.7,1.6,16.1l0.6-0.6c0,0,0,0,0,0l-0.6,0.6c0,0,0,0,0,0
			c0.8,0.8,1.6,1.4,2.6,1.8c5.5,2.3,12.6-1.9,15.8-9.5c0.8-1.9,1.3-3.9,1.5-5.8c2,1.1,4.5,1.6,7.2,1.2c1.7-0.2,3.3-0.8,4.7-1.6
			c0,2.2,0.4,4.5,1.1,7c1.1,3.5,2.9,6.4,4.9,8.4c2.4,2.4,5.1,3.5,7.4,2.7c4.4-1.4,5.9-8.7,3.5-16.2c-1.1-3.5-2.9-6.4-4.9-8.4
			C59,49,58,48.3,57.1,47.8c1.7-0.5,3.1-1.8,3.9-3.5c1-2.4,0.4-5-1.3-6.8c-0.4-0.4-0.8-0.7-1.3-1c0.7-1.8,2.6-5.4,6.3-6.9
			c3.2-1.4,7.1-0.9,11.5,1.5c0.4,0.2,0.9,0.1,1.1-0.3c0.2-0.3,0.1-0.7-0.1-1c-0.1-0.1-0.1-0.1-0.2-0.1c-4.9-2.6-9.2-3.1-12.9-1.5
			c-4.2,1.8-6.3,5.8-7.1,7.8c-2.9-0.8-6.1,0.7-7.3,3.6c-0.5,1.2-0.6,2.5-0.3,3.7c-1.7-1.2-3.9-1.9-6.3-2c0.7-3-0.2-6.2-2.3-8.3
			c-0.2-0.2-0.4-0.3-0.5-0.5c4.5-0.6,8.6-3.5,10.5-8.1c2.2-5.2,0.9-10.9-2.9-14.6c-1.2-1.2-2.6-2.2-4.3-2.9C36.5,4,28.7,7.2,25.8,14
			z"/>
	</g>
	<g>
		<g>
			<g>
				<path class="st1" d="M49.8,44.7c1.1,1.1,1.7,2.3,1.9,3.7c0.5,4.2-3.4,8.1-8.7,8.7c-3.4,0.4-6.6-0.5-8.7-2.6
					c-1.1-1.1-1.7-2.3-1.9-3.7c-0.5-4.2,3.4-8.1,8.7-8.7C44.5,41.7,47.7,42.7,49.8,44.7z"/>
				<path class="st2" d="M33.7,55.2l1.2-1.2l0,0c-0.9-0.9-1.5-2-1.6-3.2c-0.5-3.7,3.1-7.2,7.9-7.8c3.1-0.4,6.1,0.5,8,2.4
					c0.9,0.9,1.5,2,1.6,3.2c0.2,1.7-0.4,3.5-1.9,4.9c-1.5,1.6-3.7,2.6-6.1,2.9c-3.1,0.4-6.1-0.5-8-2.4L33.7,55.2 M33.7,55.2
					c2.1,2.1,5.6,3.3,9.4,2.8c5.8-0.7,10-5.1,9.4-9.7c-0.2-1.6-1-3-2.1-4.2c-2.1-2.1-5.6-3.3-9.4-2.8c-5.8,0.7-10,5.1-9.4,9.7
					C31.8,52.6,32.6,54,33.7,55.2L33.7,55.2z"/>
			</g>
			<g>
				<g>
					<path class="st1" d="M59.3,50.5c2,2,3.7,4.9,4.7,8.1c1.1,3.5,1.4,7.1,0.8,10c-0.6,2.8-1.9,4.6-3.7,5.2c-2,0.6-4.4-0.3-6.6-2.5
						c-2-2-3.7-4.9-4.7-8.1c-2.3-7-0.9-13.9,3-15.2C54.6,47.3,57,48.3,59.3,50.5C59.3,50.5,59.3,50.5,59.3,50.5z"/>
					<g>
						<path class="st2" d="M55,70.7c-1.9-1.9-3.5-4.7-4.5-7.7c-1.1-3.4-1.4-6.8-0.8-9.6c0.7-3.3,2.3-4.3,3.2-4.6
							c1.7-0.5,3.8,0.3,5.8,2.3c1.9,1.9,3.5,4.7,4.5,7.7c1.1,3.4,1.4,6.8,0.8,9.6c-0.7,3.3-2.3,4.3-3.2,4.6
							C59.1,73.5,57,72.7,55,70.7 M53.8,71.8c2.4,2.4,5.1,3.5,7.4,2.7c4.4-1.4,5.9-8.7,3.5-16.2c-1.1-3.5-2.9-6.4-4.9-8.4
							c-2.4-2.4-5.1-3.5-7.4-2.7c-4.4,1.4-5.9,8.7-3.5,16.2C50,66.9,51.8,69.8,53.8,71.8L53.8,71.8z"/>
					</g>
				</g>
				<g>
					<path class="st2" d="M77,29.8c0.2,0.2,0.3,0.6,0.1,1c-0.2,0.4-0.7,0.6-1.1,0.3c-4.4-2.3-8.3-2.8-11.5-1.5
						c-4.9,2.1-6.6,7.9-6.6,8c-0.1,0.4-0.6,0.7-1,0.6c-0.4-0.1-0.7-0.6-0.6-1c0.1-0.3,2-6.6,7.6-9c3.7-1.6,8-1.1,12.9,1.5
						C76.9,29.7,77,29.7,77,29.8z"/>
				</g>
				<g>
					<path class="st1" d="M59,38.1c1.5,1.5,2,3.9,1.2,5.9c-0.6,1.3-1.6,2.3-2.9,2.9c-1.3,0.5-2.8,0.5-4.1,0
						c-0.6-0.3-1.2-0.7-1.7-1.1c-1.5-1.5-2-3.9-1.2-5.9c1.1-2.7,4.3-4,7-2.9C57.9,37.2,58.5,37.6,59,38.1z"/>
					<g>
						<path class="st2" d="M50.8,46.3l1.2-1.2c-1.3-1.3-1.7-3.3-1-5c1-2.3,3.6-3.4,5.9-2.4c0.5,0.2,1,0.6,1.5,1c1.3,1.3,1.7,3.3,1,5
							c-0.5,1.1-1.3,2-2.5,2.4c-1.1,0.5-2.4,0.5-3.5,0c-0.5-0.2-1-0.6-1.5-1L50.8,46.3 M50.8,46.3c0.6,0.6,1.2,1,2,1.3
							c3.2,1.3,6.8-0.2,8.1-3.3c1-2.4,0.4-5-1.3-6.8c-0.6-0.6-1.2-1-2-1.3c-3.2-1.3-6.8,0.2-8.1,3.3C48.5,41.9,49.1,44.6,50.8,46.3
							L50.8,46.3z"/>
					</g>
				</g>
			</g>
			<g>
				<path class="st1" d="M32.3,47.1c3.3,3.3,3.9,9.5,1.5,15.2c-1.5,3.5-3.8,6.4-6.7,8.1c-2.7,1.7-5.6,2-8,1
					c-0.9-0.4-1.7-0.9-2.4-1.6c-3.3-3.3-3.9-9.5-1.5-15.2c1.5-3.5,3.8-6.4,6.7-8.1c2.7-1.7,5.6-2,8-1C30.8,45.8,31.6,46.4,32.3,47.1
					z"/>
				<g>
					<path class="st2" d="M16.1,70.3l1.2-1.2c-3-3-3.5-8.9-1.3-14.3c1.4-3.3,3.6-6.1,6.3-7.7c2.5-1.5,5.1-1.8,7.3-0.9
						c0.8,0.3,1.5,0.8,2.1,1.4c3,3,3.5,8.9,1.3,14.3c-1.4,3.3-3.6,6.1-6.3,7.7c-2.5,1.5-5.1,1.8-7.3,0.9c-0.8-0.3-1.5-0.8-2.1-1.4
						L16.1,70.3 M16.1,70.3c0.8,0.8,1.6,1.4,2.6,1.8c5.5,2.3,12.6-1.9,15.8-9.5c2.6-6.2,1.8-12.7-1.6-16.1c-0.8-0.8-1.6-1.4-2.6-1.8
						c-5.5-2.3-12.6,1.9-15.8,9.5C11.8,60.4,12.7,66.9,16.1,70.3L16.1,70.3z"/>
				</g>
			</g>
			<g>
				<path class="st1" d="M39.9,33.5c2.3,2.3,3,5.7,1.7,8.7c-1.7,4.1-6.4,6-10.5,4.3c-1-0.4-1.8-1-2.6-1.7c-2.3-2.3-3-5.7-1.7-8.7
					c1.7-4.1,6.4-6,10.5-4.3C38.3,32.2,39.2,32.8,39.9,33.5z"/>
				<g>
					<path class="st2" d="M28.1,45.4l1.2-1.2l0,0c-2.1-2.1-2.7-5.1-1.5-7.8c0.7-1.8,2.1-3.1,3.9-3.9c1.8-0.7,3.7-0.7,5.5,0
						c0.9,0.4,1.6,0.9,2.3,1.5c2.1,2.1,2.7,5.1,1.5,7.8c-1.5,3.6-5.7,5.4-9.4,3.8c-0.9-0.4-1.6-0.9-2.3-1.5L28.1,45.4 M28.1,45.4
						c0.8,0.8,1.7,1.4,2.8,1.9c4.5,1.9,9.7-0.2,11.5-4.7c1.4-3.4,0.6-7.2-1.9-9.6c-0.8-0.8-1.7-1.4-2.8-1.9
						c-4.5-1.9-9.7,0.2-11.5,4.7C24.7,39.2,25.6,43,28.1,45.4L28.1,45.4z"/>
				</g>
			</g>
			<g>
				<g>
					<path class="st1" d="M31.4,27.1c0.5,0.5,0.9,1.1,1,1.7c0.5,1.7-0.3,3.6-2.2,5.5c-2,2-5,3.6-8.3,4.5c-5.4,1.5-10.8,0.9-13.1-1.5
						c-0.5-0.5-0.9-1.1-1-1.7c-1-3.6,3.8-8.2,10.5-10C23.7,24.1,29.1,24.7,31.4,27.1C31.4,27.1,31.4,27.1,31.4,27.1z"/>
					<g>
						<path class="st2" d="M9.4,36.8c-0.4-0.4-0.7-0.9-0.8-1.4c-0.4-1.4,0.3-3.1,2-4.7c1.9-1.9,4.7-3.4,8-4.3c2.6-0.7,5.3-1,7.6-0.7
							c2.1,0.3,3.8,0.9,4.8,1.9c0.4,0.4,0.7,0.9,0.8,1.4c0.4,1.4-0.3,3.1-2,4.7c-1.9,1.9-4.7,3.4-8,4.3c-2.6,0.7-5.3,1-7.6,0.7
							C12.1,38.4,10.4,37.7,9.4,36.8 M8.2,37.9c2.5,2.5,8.1,3.3,13.9,1.7c7.3-2,12.2-6.9,11.1-11c-0.2-0.8-0.6-1.5-1.2-2.1
							c-2.5-2.5-8.1-3.3-13.9-1.7c-7.3,2-12.2,6.9-11.1,11C7.2,36.6,7.6,37.3,8.2,37.9L8.2,37.9z"/>
					</g>
				</g>
				<g>
					<path class="st2" d="M7.9,35.5c0.1,0.1,0.1,0.2,0.2,0.3c0.2,0.4,0,0.9-0.5,1.1l-3.2,1.3c-0.4,0.2-0.9,0-1.1-0.5
						c-0.2-0.4,0-0.9,0.5-1.1L7,35.3C7.3,35.1,7.7,35.2,7.9,35.5z"/>
				</g>
			</g>
			<g>
				<path class="st1" d="M47,10.3c3.6,3.6,4.7,9,2.7,13.7c-2.7,6.4-10,9.4-16.4,6.7c-1.5-0.6-2.9-1.5-4-2.7c-3.6-3.6-4.7-9-2.7-13.7
					C29.3,8,36.6,5,43,7.6C44.5,8.3,45.9,9.2,47,10.3z"/>
				<g>
					<path class="st2" d="M29.9,27.5c-3.4-3.4-4.4-8.4-2.5-12.8c2.5-6,9.4-8.8,15.4-6.3c1.4,0.6,2.7,1.4,3.7,2.5
						c3.4,3.4,4.4,8.4,2.5,12.8c-2.5,6-9.4,8.8-15.4,6.3C32.2,29.4,31,28.6,29.9,27.5L29.9,27.5 M28.7,28.7c1.2,1.2,2.6,2.2,4.3,2.9
						c6.8,2.9,14.6-0.3,17.5-7.1c2.2-5.2,0.9-10.9-2.9-14.6c-1.2-1.2-2.6-2.2-4.3-2.9C36.5,4,28.7,7.2,25.8,14
						C23.7,19.2,25,24.9,28.7,28.7L28.7,28.7z"/>
				</g>
			</g>
			<ellipse transform="matrix(0.9258 -0.3781 0.3781 0.9258 -10.3189 8.1622)" class="st3" cx="15.6" cy="30.4" rx="4.6" ry="1.6"/>
			
				<ellipse transform="matrix(0.4071 -0.9134 0.9134 0.4071 -39.9536 50.7511)" class="st3" cx="19.1" cy="56.1" rx="4.6" ry="1.6"/>
			
				<ellipse transform="matrix(0.9467 -0.3221 0.3221 0.9467 -15.9638 20.3121)" class="st3" cx="53.4" cy="58.4" rx="1.6" ry="4.6"/>
		</g>
		<circle class="st3" cx="35.3" cy="13.1" r="3.8"/>
		<ellipse class="st3" cx="53.8" cy="38.4" rx="1.4" ry="1.4"/>
		<ellipse class="st3" cx="35.3" cy="35.2" rx="1.4" ry="1.4"/>
		<ellipse class="st3" cx="45.9" cy="45.8" rx="1.4" ry="1.4"/>
	</g>
</g>
</svg>
