<?xml version="1.0" encoding="utf-8"?>
<!-- Generator: Adobe Illustrator 22.1.0, SVG Export Plug-In . SVG Version: 6.00 Build 0)  -->
<svg version="1.1" id="Layer_1" xmlns="http://www.w3.org/2000/svg" xmlns:xlink="http://www.w3.org/1999/xlink" x="0px" y="0px"
	 viewBox="0 0 80.6 80.6" style="enable-background:new 0 0 80.6 80.6;" xml:space="preserve">
<style type="text/css">
	.st0{fill:#FFFFFF;stroke:#FFFFFF;stroke-width:2;stroke-miterlimit:10;}
	.st1{fill:#F24044;}
	.st2{fill:#B3040F;}
	.st3{fill:#FC6A6C;}
</style>
<g>
	<polygon class="st0" points="74.1,41.1 74.9,41.1 74.1,41.1 	"/>
	<line class="st0" x1="74.9" y1="41.1" x2="74.9" y2="41.1"/>
	<path class="st0" d="M28.3,74c3.3-1.4,5.8-3.9,7.2-7c1.5,1.8,3.5,3.5,5.9,4.9c6.3,3.6,12.9,3.7,15.3,0.5l3,1.3
		c0.4,0.2,0.9,0,1.1-0.4c0.2-0.4,0-0.9-0.4-1.1l-2.9-1.3c0.1-0.4,0.2-0.8,0.2-1.3c0-3.6-3.4-8-8.7-11c-1.1-0.6-2.2-1.1-3.2-1.5
		c1.6-1.3,2.6-3.1,3-5.1c3.4,3.4,9.8,4.2,16,1.7c6.2-2.5,10.2-7.7,10.2-12.5h-0.8c0,0,0,0,0,0l0.8,0c0,0,0,0,0,0
		c0-1.1-0.2-2.1-0.6-3.1c-2.3-5.6-10.3-7.5-17.8-4.4c-1.9,0.8-3.7,1.8-5.1,3.1c-0.7-2.2-2.1-4.3-4.2-5.9c-1.4-1.1-2.9-1.8-4.4-2.2
		c1.5-1.5,3-3.5,4.1-5.7c1.7-3.2,2.5-6.6,2.5-9.4c0-3.3-1.1-6-3.3-7.2c-4.1-2.1-10.3,1.9-13.9,9c-1.7,3.2-2.5,6.6-2.5,9.4
		c0,1.3,0.2,2.4,0.5,3.4c-1.6-0.8-3.4-1-5.2-0.2c-2.4,1-3.8,3.3-3.8,5.7c0,0.5,0.1,1.1,0.2,1.6c-1.8,0.7-5.6,1.9-9.3,0.5
		c-3.2-1.3-5.6-4.4-7.1-9.2c-0.1-0.4-0.6-0.7-1-0.5c-0.4,0.1-0.6,0.4-0.6,0.8c0,0.1,0,0.2,0,0.2c1.6,5.3,4.4,8.7,8.1,10.2
		c4.2,1.7,8.5,0.4,10.6-0.5c1.5,2.6,4.8,3.8,7.7,2.6c1.2-0.5,2.2-1.3,2.9-2.4c0.4,2,1.4,4.1,3.1,5.8c-2.7,1.6-4.2,4.5-4.2,7.5
		c0,0.2,0,0.5,0,0.7c-3.6-2.8-8.6-3.6-13.1-1.7c-5.2,2.1-8.3,7.1-8.3,12.4c0,1.7,0.3,3.4,1,5.1C13.6,73.5,21.4,76.8,28.3,74z"/>
</g>
<g>
	<g>
		<g>
			<path class="st1" d="M33.1,35.4c0-1.5,0.4-2.9,1.3-4c2.6-3.3,8.1-3.3,12.3-0.1c2.7,2.1,4.3,5.1,4.3,8c0,1.5-0.4,2.9-1.3,4
				c-2.6,3.3-8.1,3.3-12.3,0.1C34.7,41.2,33.1,38.3,33.1,35.4z"/>
			<path class="st2" d="M51.8,39.3h-1.6v0c0,1.3-0.4,2.5-1.1,3.5c-2.3,2.9-7.3,2.9-11.2-0.1c-2.5-1.9-4-4.7-4-7.3
				c0-1.3,0.4-2.5,1.1-3.5c1.1-1.4,2.8-2.1,4.8-2.2c2.2,0,4.4,0.8,6.3,2.3c2.5,1.9,4,4.7,4,7.3L51.8,39.3 M51.8,39.3
				c0-3-1.6-6.3-4.6-8.6c-4.6-3.6-10.6-3.5-13.5,0.2c-1,1.3-1.5,2.8-1.5,4.5c0,3,1.6,6.3,4.6,8.6c4.6,3.6,10.6,3.5,13.5-0.2
				C51.3,42.5,51.8,40.9,51.8,39.3L51.8,39.3z"/>
		</g>
		<g>
			<g>
				<path class="st1" d="M30.4,24.6c0-2.8,0.8-6,2.4-9c1.7-3.3,4-6,6.5-7.6c2.4-1.5,4.6-1.9,6.3-1c1.8,0.9,2.9,3.3,2.9,6.4
					c0,2.8-0.8,6-2.4,9c-3.3,6.5-9.2,10.5-12.8,8.6C31.4,30.1,30.4,27.7,30.4,24.6C30.4,24.6,30.4,24.6,30.4,24.6z"/>
				<g>
					<path class="st2" d="M47.7,13.3c0,2.7-0.8,5.8-2.3,8.7c-1.6,3.2-3.8,5.8-6.2,7.3c-2.9,1.8-4.7,1.4-5.5,1
						c-1.6-0.8-2.4-2.9-2.4-5.7c0-2.7,0.8-5.8,2.3-8.7c1.6-3.2,3.8-5.8,6.2-7.3c2.9-1.8,4.7-1.4,5.5-1C46.8,8.4,47.7,10.5,47.7,13.3
						 M49.3,13.3c0-3.3-1.1-6-3.3-7.2c-4.1-2.1-10.3,1.9-13.9,9c-1.7,3.2-2.5,6.6-2.5,9.4c0,3.3,1.1,6,3.3,7.2
						c4.1,2.1,10.3-1.9,13.9-9C48.5,19.5,49.3,16.2,49.3,13.3L49.3,13.3z"/>
				</g>
			</g>
			<g>
				<path class="st2" d="M3.2,26.7c0-0.4,0.2-0.7,0.6-0.8c0.4-0.1,0.9,0.1,1,0.5c1.5,4.8,3.9,7.9,7.1,9.2c4.9,2,10.3-0.9,10.3-0.9
					c0.4-0.2,0.9-0.1,1.1,0.3c0.2,0.4,0.1,0.9-0.3,1.1c-0.2,0.1-6.1,3.3-11.7,1c-3.7-1.5-6.4-4.9-8.1-10.2
					C3.2,26.8,3.2,26.7,3.2,26.7z"/>
			</g>
			<g>
				<path class="st1" d="M21.8,33.5c0-2.2,1.3-4.1,3.3-5c1.3-0.5,2.8-0.5,4.1,0c1.3,0.6,2.3,1.6,2.9,2.9c0.3,0.6,0.4,1.3,0.4,2
					c0,2.2-1.3,4.1-3.3,5c-2.7,1.1-5.9-0.2-7-2.9C22,34.9,21.8,34.2,21.8,33.5z"/>
				<g>
					<path class="st2" d="M33.4,33.5h-1.6c0,1.9-1.1,3.5-2.8,4.2c-2.3,0.9-5-0.2-5.9-2.5c-0.2-0.6-0.3-1.1-0.3-1.7
						c0-1.9,1.1-3.5,2.8-4.2c1.1-0.5,2.4-0.5,3.5,0c1.1,0.5,2,1.3,2.4,2.5c0.2,0.6,0.3,1.1,0.3,1.7L33.4,33.5 M33.4,33.5
						c0-0.8-0.1-1.6-0.5-2.3c-1.3-3.2-4.9-4.7-8.1-3.4c-2.4,1-3.8,3.3-3.8,5.7c0,0.8,0.1,1.6,0.5,2.3c1.3,3.2,4.9,4.7,8.1,3.4
						C31.9,38.3,33.4,35.9,33.4,33.5L33.4,33.5z"/>
				</g>
			</g>
		</g>
		<g>
			<path class="st1" d="M47.1,46.1c0-4.6,4-9.4,9.7-11.8c3.5-1.4,7.2-1.8,10.4-1c3.1,0.8,5.4,2.5,6.4,5c0.4,0.9,0.5,1.8,0.5,2.8
				c0,4.6-4,9.4-9.7,11.8c-3.5,1.4-7.2,1.8-10.4,1c-3.1-0.8-5.4-2.5-6.4-5C47.3,48,47.1,47.1,47.1,46.1z"/>
			<g>
				<path class="st2" d="M74.9,41.1h-1.6c0,4.3-3.8,8.8-9.2,11c-3.3,1.4-6.9,1.7-9.9,1c-2.8-0.7-4.9-2.3-5.8-4.5
					c-0.3-0.8-0.5-1.6-0.5-2.5c0-4.3,3.8-8.8,9.2-11c3.3-1.4,6.9-1.7,9.9-1c2.8,0.7,4.9,2.3,5.8,4.5c0.3,0.8,0.5,1.6,0.5,2.5
					L74.9,41.1 M74.9,41.1c0-1.1-0.2-2.1-0.6-3.1c-2.3-5.6-10.3-7.5-17.8-4.4c-6.2,2.5-10.2,7.7-10.2,12.5c0,1.1,0.2,2.1,0.6,3.1
					c2.3,5.6,10.3,7.5,17.8,4.4C70.9,51.1,74.9,45.9,74.9,41.1L74.9,41.1z"/>
			</g>
		</g>
		<g>
			<path class="st1" d="M32.1,50.2c0-3.3,2-6.2,5-7.4c4.1-1.7,8.8,0.3,10.4,4.4c0.4,1,0.6,2,0.6,3c0,3.3-2,6.2-5,7.4
				c-4.1,1.7-8.8-0.3-10.4-4.4C32.3,52.3,32.1,51.3,32.1,50.2z"/>
			<g>
				<path class="st2" d="M48.9,50.2l-1.6,0v0c0,2.9-1.8,5.5-4.5,6.6c-1.8,0.7-3.7,0.7-5.5,0c-1.8-0.7-3.1-2.1-3.9-3.9
					c-0.4-0.9-0.5-1.8-0.5-2.7c0-2.9,1.8-5.5,4.5-6.6c3.7-1.5,7.9,0.3,9.3,3.9c0.4,0.9,0.5,1.8,0.5,2.7L48.9,50.2 M48.9,50.2
					c0-1.1-0.2-2.2-0.7-3.3c-1.8-4.5-7-6.7-11.5-4.8c-3.4,1.4-5.5,4.7-5.5,8.2c0,1.1,0.2,2.2,0.7,3.3c1.8,4.5,7,6.7,11.5,4.8
					C46.8,57,48.9,53.7,48.9,50.2L48.9,50.2z"/>
			</g>
		</g>
		<g>
			<g>
				<path class="st1" d="M33.5,60.8c0-0.7,0.2-1.4,0.5-1.9c0.9-1.5,2.8-2.3,5.4-2.3c2.8,0,6,1,9.1,2.7c4.9,2.8,8.2,7,8.2,10.3
					c0,0.7-0.2,1.4-0.5,1.9c-1.8,3.2-8.5,3.1-14.5-0.4C36.9,68.4,33.5,64.1,33.5,60.8C33.5,60.8,33.5,60.8,33.5,60.8z"/>
				<g>
					<path class="st2" d="M56,69.5c0,0.6-0.1,1.1-0.4,1.5c-0.7,1.2-2.4,1.9-4.7,1.9c-2.7,0-5.8-0.9-8.7-2.6c-2.4-1.3-4.4-3-5.8-4.9
						c-1.3-1.7-2-3.3-2-4.7c0-0.6,0.1-1.1,0.4-1.5c0.7-1.2,2.4-1.9,4.7-1.9c2.7,0,5.8,0.9,8.7,2.6c2.4,1.3,4.4,3,5.8,4.9
						C55.2,66.5,56,68.2,56,69.5 M57.6,69.5c0-3.6-3.4-8-8.7-11c-6.5-3.7-13.5-3.7-15.6-0.1c-0.4,0.7-0.6,1.5-0.6,2.3
						c0,3.6,3.4,8,8.7,11c6.5,3.7,13.5,3.7,15.6,0.1C57.4,71.2,57.6,70.4,57.6,69.5L57.6,69.5z"/>
				</g>
			</g>
			<g>
				<path class="st2" d="M56.1,71.5c0-0.1,0-0.2,0.1-0.3c0.2-0.4,0.7-0.6,1.1-0.4l3.1,1.4c0.4,0.2,0.6,0.7,0.4,1.1
					c-0.2,0.4-0.7,0.6-1.1,0.4l-3.1-1.4C56.3,72.1,56.1,71.8,56.1,71.5z"/>
			</g>
		</g>
		<g>
			<path class="st1" d="M10.6,61.6c0-5.1,3.1-9.7,7.8-11.6c6.4-2.6,13.7,0.5,16.4,6.9c0.6,1.5,0.9,3.1,0.9,4.7
				c0,5.1-3.1,9.7-7.8,11.6c-6.4,2.6-13.7-0.5-16.4-6.9C11,64.8,10.6,63.2,10.6,61.6z"/>
			<g>
				<path class="st2" d="M34.9,61.6c0,4.8-2.9,9-7.3,10.9c-6,2.4-12.8-0.4-15.3-6.4c-0.6-1.4-0.9-2.9-0.9-4.4c0-4.8,2.9-9,7.3-10.9
					c6-2.4,12.8,0.4,15.3,6.4C34.6,58.6,34.9,60.1,34.9,61.6L34.9,61.6 M36.6,61.6c0-1.7-0.3-3.4-1-5.1c-2.8-6.8-10.6-10.1-17.4-7.3
					c-5.2,2.1-8.3,7.1-8.3,12.4c0,1.7,0.3,3.4,1,5.1c2.8,6.8,10.6,10.1,17.4,7.3C33.4,71.9,36.6,66.9,36.6,61.6L36.6,61.6z"/>
			</g>
		</g>
		<ellipse transform="matrix(0.3873 -0.922 0.922 0.3873 -35.4136 86.0363)" class="st3" cx="47" cy="69.7" rx="1.6" ry="4.6"/>
		<ellipse transform="matrix(0.9337 -0.358 0.358 0.9337 -13.3668 25.7275)" class="st3" cx="62.8" cy="49" rx="4.6" ry="1.6"/>
		<ellipse transform="matrix(0.4416 -0.8972 0.8972 0.4416 1.6573 48.9278)" class="st3" cx="40.1" cy="23.1" rx="4.6" ry="1.6"/>
	</g>
	<circle class="st3" cx="20.9" cy="68" r="3.8"/>
	<ellipse transform="matrix(0.7071 -0.7071 0.7071 0.7071 -18.6098 29.0223)" class="st3" cx="25.7" cy="37" rx="1.4" ry="1.4"/>
	<ellipse transform="matrix(0.7071 -0.7071 0.7071 0.7071 -26.2853 41.1776)" class="st3" cx="36.6" cy="52.3" rx="1.4" ry="1.4"/>
	<ellipse transform="matrix(0.7071 -0.7071 0.7071 0.7071 -15.7326 36.7594)" class="st3" cx="36.5" cy="37.4" rx="1.4" ry="1.4"/>
</g>
</svg>
