<?xml version="1.0" encoding="utf-8"?>
<!-- Generator: Adobe Illustrator 22.1.0, SVG Export Plug-In . SVG Version: 6.00 Build 0)  -->
<svg version="1.1" id="Layer_1" xmlns="http://www.w3.org/2000/svg" xmlns:xlink="http://www.w3.org/1999/xlink" x="0px" y="0px"
	 viewBox="0 0 400 400" style="enable-background:new 0 0 400 400;" xml:space="preserve">
<style type="text/css">
	.st0{clip-path:url(#SVGID_2_);fill:#89CAEF;}
	.st1{clip-path:url(#SVGID_4_);}
	.st2{fill:#C97D0E;}
	.st3{fill:#DD890E;}
	.st4{fill:#895B19;}
	.st5{fill:#F29C11;}
	.st6{clip-path:url(#SVGID_6_);}
	.st7{fill:#F8F298;}
	.st8{clip-path:url(#SVGID_8_);fill:#E9686A;}
	.st9{clip-path:url(#SVGID_10_);fill:#E9686A;}
	.st10{clip-path:url(#SVGID_12_);fill:#FDBD40;}
	.st11{clip-path:url(#SVGID_14_);}
	.st12{fill:none;stroke:#FFFFFF;stroke-width:3;stroke-miterlimit:10;}
</style>
<g>
	<g>
		<g>
			<defs>
				<path id="SVGID_1_" d="M16.5,22v356h367V22H16.5z M105.7,297.6V147.7l151.9,149.9L105.7,297.6L105.7,297.6z"/>
			</defs>
			<clipPath id="SVGID_2_">
				<use xlink:href="#SVGID_1_"  style="overflow:visible;"/>
			</clipPath>
			<rect x="16.5" y="22" class="st0" width="367" height="356"/>
		</g>
	</g>
	<g>
		<g>
			<defs>
				<path id="SVGID_3_" d="M16.5,22v356h367V22H16.5z M105.7,297.6V147.7l151.9,149.9L105.7,297.6L105.7,297.6z"/>
			</defs>
			<clipPath id="SVGID_4_">
				<use xlink:href="#SVGID_3_"  style="overflow:visible;"/>
			</clipPath>
			<g class="st1">
				<polygon class="st2" points="338.8,152 356.7,157.6 347.9,185.2 330.2,179.6 320.1,161.1 				"/>
				<path class="st3" d="M59,58.7L336,146.6c2.2,0.7,3.4,3.1,2.7,5.2l0,0l-8.8,27.6l0,0c-0.7,2.2-3.1,3.4-5.2,2.7L292.9,172
					c0.2-0.2,0.2-0.4,0.2-0.6c2.2-6.7-0.3-13.6-5.5-17.6c-2.2-1.7-5.5-0.6-6.5,2.2l-2.3,7.3c-0.7,2.2-3.1,3.4-5.2,2.7L47.5,94.2
					c-2.2-0.7-3.4-3.1-2.7-5.2l8.8-27.6C54.4,59.3,56.8,58,59,58.7z"/>
				<g>
					<path class="st4" d="M110.3,104.1c1.8,1.1,4.1,0.9,5.6-0.5c1.6-1.4,2-3.7,1-5.7c-1-1.8-3.2-2.9-5-2.5
						C107.8,96.3,106.8,101.8,110.3,104.1z"/>
					<path class="st4" d="M153.4,117.8c2,0.9,4.2,0.3,5.3-1.3c1.1-1.4,1.4-3.5,0.6-5.1c-1-2-3.6-3.1-5.8-2.2
						C149.9,110.6,149.7,116.3,153.4,117.8z"/>
					<path class="st4" d="M132.1,111c1.8,0.9,4,0.5,5.4-0.9c1.4-1.4,1.8-3.7,0.8-5.5c-1-2-3.4-3.1-5.6-2.3
						C128.7,103.6,128.4,109.3,132.1,111z"/>
					<path class="st4" d="M65.7,86.2c0,2.1,1.2,3.9,3.1,4.6c3.9,1.6,7.7-2.7,5.7-6.6c-1-2-3.2-2.9-5.4-2.3
						C67.3,82.5,65.7,84.3,65.7,86.2z"/>
					<path class="st4" d="M174.5,124.5c1.8,0.9,4,0.5,5.4-0.9c1.4-1.4,1.8-3.7,0.8-5.5c-1-1.8-3.2-2.9-5.2-2.5
						C171.3,116.8,170.8,122.5,174.5,124.5z"/>
					<path class="st4" d="M89.9,97.8c3.9,1.4,7.7-3,5.7-6.6c-1-2-3.4-3.1-5.6-2.3C85.9,90.2,85.8,96.3,89.9,97.8z"/>
					<path class="st4" d="M217.3,138.1c3.9,1.6,7.7-2.7,5.9-6.6c-1-2-3.4-3.1-5.6-2.3C213.6,130.8,213.4,136.5,217.3,138.1z"/>
					<path class="st4" d="M195.8,131.3c2,0.9,4.2,0.5,5.6-1.1c1.1-1.4,1.4-3.5,0.6-5.1c-1-2-3.2-2.9-5.4-2.3
						C192.7,123.6,192.1,129.5,195.8,131.3z"/>
				</g>
			</g>
			<g class="st1">
				<polygon class="st2" points="163.8,337.4 157.2,354.9 130.2,344.6 136.8,327.3 155.8,318.2 				"/>
				<path class="st5" d="M272.6,63.2L169.4,334.9c-0.8,2.1-3.3,3.2-5.4,2.4l0,0l-27-10.3l0,0c-2.1-0.8-3.2-3.3-2.4-5.4l11.9-31.2
					c0.2,0.2,0.4,0.2,0.6,0.2c6.5,2.5,13.6,0.5,17.8-4.5c1.8-2.1,0.9-5.5-1.9-6.6l-7.2-2.7c-2.1-0.8-3.2-3.3-2.4-5.4l84.3-221.7
					c0.8-2.1,3.3-3.2,5.4-2.4l27,10.3C272.3,58.6,273.4,61.1,272.6,63.2z"/>
				<g>
					<path class="st4" d="M224.4,112c-1.2,1.7-1.1,4,0.2,5.6c1.3,1.6,3.6,2.2,5.7,1.3c1.9-0.9,3.1-3,2.8-4.9
						C232.3,109.9,226.8,108.5,224.4,112z"/>
					<path class="st4" d="M208.3,154.2c-1,1.9-0.5,4.2,1,5.4c1.3,1.2,3.4,1.6,5,0.9c2.1-0.9,3.2-3.4,2.6-5.7
						C215.7,151.1,210,150.6,208.3,154.2z"/>
					<path class="st4" d="M216.2,133.3c-1,1.7-0.7,4,0.6,5.4c1.3,1.4,3.6,2,5.5,1.1c2.1-0.9,3.3-3.2,2.6-5.5
						C223.9,130.4,218.2,129.7,216.2,133.3z"/>
					<path class="st4" d="M244.7,68.4c-2.1-0.2-3.9,0.9-4.7,2.8c-1.8,3.8,2.3,7.9,6.2,6.1c2.1-0.9,3.1-3,2.6-5.3
						C248.3,70.1,246.6,68.5,244.7,68.4z"/>
					<path class="st4" d="M200.5,174.9c-1,1.7-0.7,4,0.6,5.4c1.3,1.4,3.6,2,5.5,1.1c1.9-0.9,3.1-3,2.8-5.1
						C208.3,172.2,202.7,171.3,200.5,174.9z"/>
					<path class="st4" d="M231.8,91.9c-1.6,3.8,2.5,7.9,6.2,6.1c2.1-0.9,3.3-3.2,2.6-5.5C239.7,88.3,233.6,87.9,231.8,91.9z"/>
					<path class="st4" d="M184.5,216.9c-1.8,3.8,2.3,7.9,6.2,6.3c2.1-0.9,3.3-3.2,2.6-5.5C191.9,213.6,186.3,213.1,184.5,216.9z"/>
					<path class="st4" d="M192.5,195.8c-1,1.9-0.7,4.2,0.8,5.6c1.3,1.2,3.4,1.6,5,0.9c2.1-0.9,3.1-3,2.6-5.3
						C200.4,193.1,194.5,192.2,192.5,195.8z"/>
				</g>
			</g>
		</g>
	</g>
	<g>
		<g>
			<defs>
				<path id="SVGID_5_" d="M16.5,22v356h367V22H16.5z M105.7,297.6V147.7l151.9,149.9L105.7,297.6L105.7,297.6z"/>
			</defs>
			<clipPath id="SVGID_6_">
				<use xlink:href="#SVGID_5_"  style="overflow:visible;"/>
			</clipPath>
			<g class="st6">
				<path class="st7" d="M365.2,53.7c-8.5-4-17.1-7.4-26-10.4c-2.7-0.9-5.5,0.6-6.4,3.2c-0.2,0.5-0.3,1.1-0.3,1.6v36.4
					c-1.6-0.6-3.3-0.9-5.1-0.9c-8.4,0-15.2,6.8-15.2,15.2S319,114,327.4,114c8.4,0,15.2-6.8,15.2-15.2V55.2c6.1,2.2,12.1,4.7,18,7.5
					c2.5,1.3,5.5,0.2,6.8-2.3C368.7,58,367.7,54.9,365.2,53.7L365.2,53.7z"/>
				<path class="st7" d="M294.4,325v25.4c-1-0.4-2-0.6-3.1-0.6c-5.2,0-9.3,4.2-9.3,9.3c0,5.2,4.2,9.3,9.3,9.3c5.2,0,9.3-4.2,9.3-9.3
					V325H294.4z"/>
				<path class="st7" d="M53.6,248.4v41.5c-1.6-0.6-3.3-0.9-5.1-0.9c-8.4,0-15.2,6.8-15.2,15.2c0,8.4,6.8,15.2,15.2,15.2
					s15.2-6.8,15.2-15.2v-55.7H53.6V248.4z"/>
				<path class="st7" d="M277.9,204.9v41.5c-1.6-0.6-3.3-0.9-5.1-0.9c-8.4,0-15.2,6.8-15.2,15.2c0,8.4,6.8,15.2,15.2,15.2
					c8.4,0,15.2-6.8,15.2-15.2V205h-10.1V204.9z"/>
			</g>
		</g>
		<g>
			<defs>
				<path id="SVGID_7_" d="M16.5,22v356h367V22H16.5z M105.7,297.6V147.7l151.9,149.9L105.7,297.6L105.7,297.6z"/>
			</defs>
			<clipPath id="SVGID_8_">
				<use xlink:href="#SVGID_7_"  style="overflow:visible;"/>
			</clipPath>
			<path class="st8" d="M356.9,236.9h-43.4v38.8c-6.5-1.3-12.9,2.9-14.2,9.4c-1.3,6.5,2.9,12.9,9.4,14.2c6.5,1.3,12.9-2.9,14.2-9.4
				c0.2-0.8,0.2-1.6,0.2-2.4V249h33.7v26.8c-6.5-1.3-12.9,2.9-14.2,9.4s2.9,12.9,9.4,14.2c6.5,1.3,12.9-2.9,14.2-9.4
				c0.2-0.8,0.2-1.6,0.2-2.4V237L356.9,236.9L356.9,236.9z"/>
		</g>
		<g>
			<defs>
				<path id="SVGID_9_" d="M16.5,22v356h367V22H16.5z M105.7,297.6V147.7l151.9,149.9L105.7,297.6L105.7,297.6z"/>
			</defs>
			<clipPath id="SVGID_10_">
				<use xlink:href="#SVGID_9_"  style="overflow:visible;"/>
			</clipPath>
			<path class="st9" d="M58.9,159H38.6v18.2c-3-0.6-6,1.4-6.7,4.4c-0.6,3,1.4,6,4.4,6.7s6-1.4,6.7-4.4c0.1-0.4,0.1-0.8,0.1-1.1
				v-18.1h15.8v12.6c-3-0.6-6,1.4-6.7,4.4c-0.6,3,1.4,6,4.4,6.7c3,0.6,6-1.4,6.7-4.4c0.1-0.4,0.1-0.8,0.1-1.1V159H58.9L58.9,159z"/>
		</g>
		<g>
			<defs>
				<path id="SVGID_11_" d="M16.5,22v356h367V22H16.5z M105.7,297.6V147.7l151.9,149.9L105.7,297.6L105.7,297.6z"/>
			</defs>
			<clipPath id="SVGID_12_">
				<use xlink:href="#SVGID_11_"  style="overflow:visible;"/>
			</clipPath>
			<path class="st10" d="M172.8,76h-10.1v-5.1c0-14-11.3-25.3-25.3-25.3h-5.1V35.5h5.1c19.6,0,35.4,15.9,35.5,35.5v5H172.8z"/>
			<path class="st10" d="M57,378H46.9v-5.1c0-14-11.3-25.3-25.3-25.3h-5.1v-10.1h5.1c19.6,0,35.4,15.9,35.5,35.5v5H57z"/>
		</g>
		<g>
			<defs>
				<path id="SVGID_13_" d="M16.5,22v356h367V22H16.5z M105.7,297.6V147.7l151.9,149.9L105.7,297.6L105.7,297.6z"/>
			</defs>
			<clipPath id="SVGID_14_">
				<use xlink:href="#SVGID_13_"  style="overflow:visible;"/>
			</clipPath>
			<g class="st11">
				<line class="st12" x1="16.5" y1="60.7" x2="342" y2="378"/>
				<polyline class="st12" points="105.7,297.6 105.7,147.7 257.7,297.6 105.7,297.6 				"/>
				<line class="st12" x1="232.3" y1="271" x2="384.9" y2="118.4"/>
				<polyline class="st12" points="355.6,147.7 105.7,147.7 105.7,378 				"/>
				<line class="st12" x1="193.9" y1="147.7" x2="193.9" y2="22"/>
				<line class="st12" x1="300.3" y1="22" x2="300.3" y2="147.7"/>
				<line class="st12" x1="105.7" y1="219.7" x2="16.5" y2="219.7"/>
			</g>
		</g>
	</g>
</g>
</svg>
