<?xml version="1.0" encoding="utf-8"?>
<!-- Generator: Adobe Illustrator 22.1.0, SVG Export Plug-In . SVG Version: 6.00 Build 0)  -->
<svg version="1.1" id="Layer_1" xmlns="http://www.w3.org/2000/svg" xmlns:xlink="http://www.w3.org/1999/xlink" x="0px" y="0px"
	 viewBox="0 0 80.6 80.6" style="enable-background:new 0 0 80.6 80.6;" xml:space="preserve">
<style type="text/css">
	.st0{clip-path:url(#SVGID_2_);fill:#89CAEF;}
	.st1{clip-path:url(#SVGID_4_);}
	.st2{fill:#C97D0E;}
	.st3{fill:#F29C11;}
	.st4{fill:#895B19;}
</style>
<g>
	<g>
		<g>
			<g>
				<defs>
					<polygon id="SVGID_1_" points="6.3,5.3 6.3,73.4 75.3,73.4 					"/>
				</defs>
				<clipPath id="SVGID_2_">
					<use xlink:href="#SVGID_1_"  style="overflow:visible;"/>
				</clipPath>
				<rect x="3" y="2.3" class="st0" width="77" height="74.2"/>
			</g>
		</g>
	</g>
	<g>
		<g>
			<g>
				<defs>
					<polygon id="SVGID_3_" points="6.3,5.3 6.3,73.4 75.3,73.4 					"/>
				</defs>
				<clipPath id="SVGID_4_">
					<use xlink:href="#SVGID_3_"  style="overflow:visible;"/>
				</clipPath>
				<g class="st1">
					<polygon class="st2" points="35.2,82.2 32.8,88.5 23.2,84.8 25.5,78.6 32.3,75.4 					"/>
					<path class="st3" d="M74-15.6l-36.8,97c-0.3,0.8-1.2,1.2-1.9,0.9l0,0l-9.6-3.7l0,0c-0.8-0.3-1.2-1.2-0.9-1.9L29,65.5
						c0.1,0.1,0.2,0.1,0.2,0.1c2.3,0.9,4.9,0.2,6.4-1.6c0.6-0.8,0.3-1.9-0.7-2.4l-2.6-1c-0.8-0.3-1.2-1.2-0.9-1.9l30.1-79.1
						c0.3-0.8,1.2-1.2,1.9-0.9l9.6,3.7C73.9-17.3,74.3-16.4,74-15.6z"/>
					<g>
						<path class="st4" d="M56.8,1.8c-0.4,0.6-0.4,1.4,0.1,2s1.3,0.8,2,0.5c0.7-0.3,1.1-1.1,1-1.7C59.6,1,57.7,0.6,56.8,1.8z"/>
						<path class="st4" d="M51,16.8c-0.4,0.7-0.2,1.5,0.4,1.9c0.5,0.4,1.2,0.6,1.8,0.3c0.7-0.3,1.2-1.2,0.9-2
							C53.7,15.7,51.7,15.6,51,16.8z"/>
						<path class="st4" d="M53.9,9.4c-0.4,0.6-0.3,1.4,0.2,1.9s1.3,0.7,1.9,0.4c0.7-0.3,1.2-1.2,0.9-2C56.6,8.3,54.6,8.1,53.9,9.4z"
							/>
						<path class="st4" d="M64-13.8c-0.7-0.1-1.4,0.3-1.7,1c-0.6,1.4,0.8,2.8,2.2,2.2c0.7-0.3,1.1-1.1,0.9-1.9
							C65.3-13.2,64.7-13.7,64-13.8z"/>
						<path class="st4" d="M48.3,24.2c-0.4,0.6-0.3,1.4,0.2,1.9s1.3,0.7,1.9,0.4c0.7-0.3,1.1-1.1,1-1.8C51.1,23.3,49,22.9,48.3,24.2
							z"/>
						<path class="st4" d="M59.4-5.4c-0.6,1.4,0.9,2.8,2.2,2.2c0.7-0.3,1.2-1.2,0.9-2C62.2-6.7,60.1-6.8,59.4-5.4z"/>
						<path class="st4" d="M42.6,39.2c-0.6,1.4,0.8,2.8,2.2,2.2c0.7-0.3,1.2-1.2,0.9-2C45.2,38,43.2,37.9,42.6,39.2z"/>
						<path class="st4" d="M45.4,31.7c-0.4,0.7-0.3,1.5,0.3,2c0.5,0.4,1.2,0.6,1.8,0.3c0.7-0.3,1.1-1.1,0.9-1.9
							C48.2,30.7,46.1,30.4,45.4,31.7z"/>
					</g>
				</g>
			</g>
		</g>
	</g>
</g>
</svg>
