<?xml version="1.0" encoding="utf-8"?>
<!-- Generator: Adobe Illustrator 22.1.0, SVG Export Plug-In . SVG Version: 6.00 Build 0)  -->
<svg version="1.1" id="Layer_1" xmlns="http://www.w3.org/2000/svg" xmlns:xlink="http://www.w3.org/1999/xlink" x="0px" y="0px"
	 viewBox="0 0 80.6 80.6" style="enable-background:new 0 0 80.6 80.6;" xml:space="preserve">
<style type="text/css">
	.st0{clip-path:url(#SVGID_2_);fill:#89CAEF;}
	.st1{clip-path:url(#SVGID_4_);}
	.st2{fill:#C97D0E;}
	.st3{fill:#F29C11;}
	.st4{fill:#895B19;}
</style>
<g>
	<g>
		<g>
			<g>
				<defs>
					<polygon id="SVGID_1_" points="6.3,5.3 6.3,73.4 75.3,73.4 					"/>
				</defs>
				<clipPath id="SVGID_2_">
					<use xlink:href="#SVGID_1_"  style="overflow:visible;"/>
				</clipPath>
				<rect x="3" y="2.3" class="st0" width="77" height="74.2"/>
			</g>
		</g>
	</g>
	<g>
		<g>
			<g>
				<defs>
					<polygon id="SVGID_3_" points="6.3,5.3 6.3,73.4 75.3,73.4 					"/>
				</defs>
				<clipPath id="SVGID_4_">
					<use xlink:href="#SVGID_3_"  style="overflow:visible;"/>
				</clipPath>
				<g class="st1">
					<polygon class="st2" points="28.2,103.2 25.8,109.5 16.2,105.8 18.5,99.6 25.3,96.4 					"/>
					<path class="st3" d="M67,5.4l-36.8,97c-0.3,0.8-1.2,1.2-1.9,0.9l0,0l-9.6-3.7l0,0c-0.8-0.3-1.2-1.2-0.9-1.9L22,86.5
						c0.1,0.1,0.2,0.1,0.2,0.1c2.3,0.9,4.9,0.2,6.4-1.6c0.6-0.8,0.3-1.9-0.7-2.4l-2.6-1c-0.8-0.3-1.2-1.2-0.9-1.9L54.6,0.6
						c0.3-0.8,1.2-1.2,1.9-0.9l9.6,3.7C66.9,3.7,67.3,4.6,67,5.4z"/>
					<g>
						<path class="st4" d="M49.8,22.8c-0.4,0.6-0.4,1.4,0.1,2s1.3,0.8,2,0.5s1.1-1.1,1-1.7C52.6,22,50.7,21.6,49.8,22.8z"/>
						<path class="st4" d="M44,37.8c-0.4,0.7-0.2,1.5,0.4,1.9c0.5,0.4,1.2,0.6,1.8,0.3c0.7-0.3,1.2-1.2,0.9-2
							C46.7,36.7,44.7,36.6,44,37.8z"/>
						<path class="st4" d="M46.9,30.4c-0.4,0.6-0.3,1.4,0.2,1.9s1.3,0.7,1.9,0.4c0.7-0.3,1.2-1.2,0.9-2
							C49.6,29.3,47.6,29.1,46.9,30.4z"/>
						<path class="st4" d="M57,7.2c-0.7-0.1-1.4,0.3-1.7,1c-0.6,1.4,0.8,2.8,2.2,2.2c0.7-0.3,1.1-1.1,0.9-1.9
							C58.3,7.8,57.7,7.3,57,7.2z"/>
						<path class="st4" d="M41.3,45.2c-0.4,0.6-0.3,1.4,0.2,1.9s1.3,0.7,1.9,0.4c0.7-0.3,1.1-1.1,1-1.8C44.1,44.3,42,43.9,41.3,45.2
							z"/>
						<path class="st4" d="M52.4,15.6c-0.6,1.4,0.9,2.8,2.2,2.2c0.7-0.3,1.2-1.2,0.9-2C55.2,14.3,53.1,14.2,52.4,15.6z"/>
						<path class="st4" d="M35.6,60.2c-0.6,1.4,0.8,2.8,2.2,2.2c0.7-0.3,1.2-1.2,0.9-2C38.2,59,36.2,58.9,35.6,60.2z"/>
						<path class="st4" d="M38.4,52.7c-0.4,0.7-0.3,1.5,0.3,2c0.5,0.4,1.2,0.6,1.8,0.3c0.7-0.3,1.1-1.1,0.9-1.9
							C41.2,51.7,39.1,51.4,38.4,52.7z"/>
					</g>
				</g>
			</g>
		</g>
	</g>
</g>
</svg>
