<?xml version="1.0" encoding="utf-8"?>
<!-- Generator: Adobe Illustrator 22.1.0, SVG Export Plug-In . SVG Version: 6.00 Build 0)  -->
<svg version="1.1" id="Layer_1" xmlns="http://www.w3.org/2000/svg" xmlns:xlink="http://www.w3.org/1999/xlink" x="0px" y="0px"
	 viewBox="0 0 80.6 80.6" style="enable-background:new 0 0 80.6 80.6;" xml:space="preserve">
<style type="text/css">
	.st0{clip-path:url(#SVGID_2_);fill:#89CAEF;}
	.st1{clip-path:url(#SVGID_4_);}
	.st2{fill:#C97D0E;}
	.st3{fill:#F29C11;}
	.st4{fill:#895B19;}
</style>
<g>
	<g>
		<g>
			<defs>
				<polygon id="SVGID_1_" points="6.3,5.3 6.3,73.4 75.3,73.4 				"/>
			</defs>
			<clipPath id="SVGID_2_">
				<use xlink:href="#SVGID_1_"  style="overflow:visible;"/>
			</clipPath>
			<rect x="3" y="2.3" class="st0" width="77" height="74.2"/>
		</g>
	</g>
	<g>
		<g>
			<defs>
				<polygon id="SVGID_3_" points="6.3,5.3 6.3,73.4 75.3,73.4 				"/>
			</defs>
			<clipPath id="SVGID_4_">
				<use xlink:href="#SVGID_3_"  style="overflow:visible;"/>
			</clipPath>
			<g class="st1">
				<polygon class="st2" points="40.2,65.2 37.8,71.5 28.2,67.8 30.5,61.6 37.3,58.4 				"/>
				<path class="st3" d="M79-32.6l-36.8,97c-0.3,0.8-1.2,1.2-1.9,0.9l0,0l-9.6-3.7l0,0c-0.8-0.3-1.2-1.2-0.9-1.9L34,48.5
					c0.1,0.1,0.2,0.1,0.2,0.1c2.3,0.9,4.9,0.2,6.4-1.6c0.6-0.8,0.3-1.9-0.7-2.4l-2.6-1c-0.8-0.3-1.2-1.2-0.9-1.9l30.1-79.1
					c0.3-0.8,1.2-1.2,1.9-0.9l9.6,3.7C78.9-34.3,79.3-33.4,79-32.6z"/>
				<g>
					<path class="st4" d="M61.8-15.2c-0.4,0.6-0.4,1.4,0.1,2s1.3,0.8,2,0.5s1.1-1.1,1-1.7C64.6-16,62.7-16.4,61.8-15.2z"/>
					<path class="st4" d="M56-0.2c-0.4,0.7-0.2,1.5,0.4,1.9c0.5,0.4,1.2,0.6,1.8,0.3c0.7-0.3,1.2-1.2,0.9-2
						C58.7-1.3,56.7-1.4,56-0.2z"/>
					<path class="st4" d="M58.9-7.6c-0.4,0.6-0.3,1.4,0.2,1.9C59.5-5.2,60.4-5,61-5.3c0.7-0.3,1.2-1.2,0.9-2
						C61.6-8.7,59.6-8.9,58.9-7.6z"/>
					<path class="st4" d="M69-30.8c-0.7-0.1-1.4,0.3-1.7,1c-0.6,1.4,0.8,2.8,2.2,2.2c0.7-0.3,1.1-1.1,0.9-1.9
						C70.3-30.2,69.7-30.7,69-30.8z"/>
					<path class="st4" d="M53.3,7.2c-0.4,0.6-0.3,1.4,0.2,1.9s1.3,0.7,1.9,0.4c0.7-0.3,1.1-1.1,1-1.8C56.1,6.3,54,5.9,53.3,7.2z"/>
					<path class="st4" d="M64.4-22.4c-0.6,1.4,0.9,2.8,2.2,2.2c0.7-0.3,1.2-1.2,0.9-2C67.2-23.7,65.1-23.8,64.4-22.4z"/>
					<path class="st4" d="M47.6,22.2c-0.6,1.4,0.8,2.8,2.2,2.2c0.7-0.3,1.2-1.2,0.9-2C50.2,21,48.2,20.9,47.6,22.2z"/>
					<path class="st4" d="M50.4,14.7c-0.4,0.7-0.3,1.5,0.3,2c0.5,0.4,1.2,0.6,1.8,0.3c0.7-0.3,1.1-1.1,0.9-1.9
						C53.2,13.7,51.1,13.4,50.4,14.7z"/>
				</g>
			</g>
		</g>
	</g>
</g>
</svg>
