<?xml version="1.0" encoding="utf-8"?>
<!-- Generator: Adobe Illustrator 22.1.0, SVG Export Plug-In . SVG Version: 6.00 Build 0)  -->
<svg version="1.1" id="Layer_1" xmlns="http://www.w3.org/2000/svg" xmlns:xlink="http://www.w3.org/1999/xlink" x="0px" y="0px"
	 viewBox="0 0 400 400" style="enable-background:new 0 0 400 400;" xml:space="preserve">
<style type="text/css">
	.st0{fill:#FFFFFF;}
	.st1{fill:#666666;}
	.st2{fill:#BB202D;}
	.st3{fill:#885E25;}
	.st4{fill:#999999;}
	.st5{fill:#C7C8CA;}
	.st6{fill:#60025E;}
</style>
<g>
	<g>
		<path class="st0" d="M91.9,290.1c-35.6,0-66.9-24-76.1-58.4c-11.2-42,13.8-85.2,55.7-96.4c6.6-1.8,13.5-2.7,20.3-2.7
			c4.5,0,9,0.4,13.4,1.2l9.4-29.2l-14.4-15.9c0,0-7,2.1-7.1,2.2c-1.3,0.4-2.7,0.5-4,0.5c-7,0-13.1-4.7-14.9-11.5
			c-2.2-8.2,2.7-16.7,10.8-18.9c0,0,28.9-8.8,29-8.8c1.3-0.4,2.7-0.5,4-0.5c7,0,13.1,4.7,14.9,11.5c2.1,7.8-2.2,15.8-9.6,18.5l7.2,8
			L214.8,67l-12.5-13.7c-3.4-3.8-3.8-9.5-0.9-13.6c1.4-2.1,3.6-3.6,6.3-4.4l35.5-9.5c0.4-0.2,0.8-0.4,1.3-0.5l5.6-1.5
			c2.1-0.5,4.2-0.8,6.3-0.8c10.9,0,20.2,7.1,23.3,17.6c1.3,4.7,1.1,9.7-0.5,14.4c-1.8,5.3-5.5,9.8-10.2,12.8c-2.1,1.4-4.4,2.4-6.8,3
			l-6.3,1.7c-1,0.3-2,0.4-2.9,0.4c-1.3,0-2.6-0.2-3.7-0.7l14.6,16.1c7.3-5,15.4-8.7,24.1-11.1c6.7-1.8,13.5-2.7,20.3-2.7
			c35.6,0,66.9,24,76.1,58.4c11.1,42-13.9,85.2-55.7,96.4c-6.7,1.8-13.5,2.7-20.3,2.7c0,0,0,0,0,0c-35.6,0-66.9-24-76.1-58.4
			c-6.6-24.9-0.8-50.9,15.5-70.6l-8.2-9l-19.9,62.6c5.6,4.3,9.7,10.3,11.5,17.3c4.5,16.8-5.1,34.1-21.6,39.3l-0.2,4.8
			c-0.2,4.8-3.4,8.9-7.9,10.2c-1.3,0.4-2.5,0.4-3.3,0.4c-0.1,0-0.1,0-0.2,0c-2.9-0.1-5.7-1.3-7.7-3.5c-1.9-2-2.9-4.6-3-7.3
			l-17.4,3.5c-4.1,31.4-26.9,57.6-57.7,65.9C105.6,289.2,98.7,290.1,91.9,290.1z M91.8,159.4c-4.5,0-9,0.6-13.4,1.8
			c-27.7,7.4-44.1,36-36.8,63.7c6,22.7,26.7,38.5,50.2,38.5c4.5,0,9-0.6,13.5-1.8c17.1-4.6,30.6-17.6,36-34.2l-43.5,8.8
			c-0.2,0.1-0.5,0.1-0.8,0.1c-1.7,0.3-3.4,0.5-5.1,0.5c-11.5,0-21.6-7.7-24.6-18.8c-3.5-13,3.8-26.4,16.5-30.7
			c0.3-0.1,0.6-0.3,0.9-0.4l3.8-1.3l8.4-26.1C95.2,159.5,93.5,159.4,91.8,159.4z M91.9,207.9c-0.3,0-0.6,0-0.9,0.1
			c-1.8,0.5-2.9,2.4-2.5,4.3c0.4,1.5,1.8,2.6,3.4,2.6c0.2,0,0.5,0,0.7-0.1c0.1,0,0.2,0,0.3-0.1c1.7-0.5,2.8-2.4,2.4-4.2
			C94.8,209,93.4,207.9,91.9,207.9z M114.6,200.2c0.7,1.5,1.3,3,1.8,4.6c0.5,1.6,0.7,3.3,0.8,5l26.2-5.3c-0.3-2.3-0.7-4.5-1.3-6.7
			c-0.6-2.1-1.3-4.2-2.1-6.3L114.6,200.2z M265.9,123.3c-9,12.6-12,28.6-8,43.7c6.1,22.7,26.7,38.5,50.3,38.5c4.5,0,9-0.6,13.4-1.8
			c13.4-3.6,24.6-12.2,31.5-24.2c6.9-12,8.8-26.1,5.2-39.5c-6.1-22.7-26.8-38.6-50.2-38.6c-4.5,0-9.1,0.6-13.5,1.8
			c-4.5,1.2-8.7,3-12.7,5.3L316,146c1.4,1.3,2.4,2.9,2.8,4.7c1.1,4-0.2,8.2-3.3,11c-1.9,1.8-4.6,2.8-7.3,2.8c-3.1,0-6-1.3-8.1-3.6
			L265.9,123.3z M165.4,183.1c1,2.6,1.9,5.3,2.6,7.9c0.7,2.7,1.3,5.4,1.7,8.2l2-0.4c-1.4-2.5-2.6-5.1-3.3-7.9
			c-0.7-2.8-1.1-5.6-1.1-8.4L165.4,183.1z M114.4,177l12.4-4.2c-2.7-2.5-5.8-4.7-9-6.5L114.4,177z M126.1,140.5
			c11.2,5.4,20.8,13.3,28.3,23.1l10.3-3.4l-33.1-36.7L126.1,140.5z M187.4,152.5l0.3-0.1c1.2-0.5,2.4-0.9,3.6-1.2
			c0,0,0.4-0.1,0.5-0.1c2.2-0.6,4.5-0.9,6.8-1l19.5-61.2l-70.9,18.9L187.4,152.5z M242.2,64.8C242.2,64.7,242.2,64.7,242.2,64.8
			c-0.8-2.9-0.4-5.9,1.2-8.5c1.5-2.5,3.9-4.4,6.7-5.1l6.9-1.8c0.5-0.1,0.9-0.4,1.2-0.9c0.3-0.5,0.3-1.1,0.1-1.8
			c-0.3-0.9-1.2-1.6-2.2-1.6c-0.2,0-0.4,0-0.5,0.1l-3.1,0.8l-2,0.7c-0.1,0-0.2,0.1-0.3,0.1l-19.5,5.2L242.2,64.8z"/>
		<path class="st0" d="M256.3,28c8.6,0,16.1,5.6,18.5,14c1.1,3.8,0.8,7.8-0.5,11.4c-1.4,4.2-4.3,7.9-8.2,10.3
			c-1.7,1.1-3.5,1.9-5.5,2.5l-6.3,1.7c-0.5,0.1-1.1,0.2-1.6,0.2c-1,0-2-0.3-2.9-0.8c-1.3-0.8-2.5-2.2-2.9-3.8
			c-0.9-3.2,1.2-6.6,4.4-7.5l6.8-1.8c4-1.1,6-5,4.7-9c-1-3-3.9-5-7-5c-0.6,0-1.2,0.1-1.7,0.2l-3.3,0.9l-2.2,0.7l-27.4,7.3L263,95.1
			c7.5-5.8,16.3-10.3,26.1-12.9c6.4-1.7,12.7-2.5,19-2.5c32.6,0,62.5,21.8,71.3,54.7c10.4,39.3-13,79.8-52.2,90.3
			c-6.4,1.7-12.7,2.5-19,2.5c-32.6,0-62.5-21.8-71.3-54.7c-6.8-25.5,0.6-51.4,17.4-69.4l-17-18.7l-23.7,74.5
			c6,3.5,10.7,9.3,12.6,16.5c3.9,14.6-4.8,29.7-19.4,33.6c-0.1,0-0.2,0.1-0.4,0.1l-0.1,0c-0.6,0.1-1.1,0.3-1.7,0.4l-0.3,8.5
			c-0.1,2.7-1.9,4.9-4.4,5.6c-0.6,0.2-1.2,0.2-1.8,0.2c-3.3-0.1-5.9-2.9-5.8-6.2l0.2-5.7l-27.2,5.5c-2.5,30.2-23.6,57-54.4,65.2
			c-6.4,1.7-12.7,2.5-19,2.5c-32.6,0-62.5-21.8-71.3-54.7c-10.5-39.3,12.9-79.8,52.2-90.3c6.4-1.7,12.7-2.5,19-2.5
			c5.7,0,11.3,0.7,16.8,2l11.7-36.2l-18.4-20.4l-10,3c-0.9,0.2-1.8,0.4-2.7,0.4c-4.6,0-8.8-3.1-10.1-7.8c-1.5-5.6,1.8-11.3,7.4-12.8
			l28.9-8.8c0.9-0.2,1.8-0.4,2.7-0.4c4.6,0,8.8,3.1,10.1,7.8c1.5,5.6-1.8,11.3-7.4,12.8l-6.3,1.9L129,95.1l95-25.4l-18-19.8
			c-1.8-2-2.1-5.1-0.5-7.4c0.8-1.2,2.1-2,3.5-2.4l36.7-9.8l0.1,0l-0.1-0.2l5.6-1.5C253,28.2,254.7,28,256.3,28 M185.9,158.3l3.6-1.2
			c1-0.4,2.1-0.8,3.1-1.1c0.1,0,0.1,0,0.2,0c0.1,0,0.1,0,0.2,0c2.2-0.6,4.5-0.8,6.7-0.8c0.9,0,1.7,0,2.5,0.1l23.4-73.5L138,105.1
			L185.9,158.3 M308.1,159.4c-1.6,0-3.3-0.7-4.4-1.9l-38-41.9c-12.3,13.9-17.7,33.4-12.6,52.7c6.8,25.4,29.9,42.2,55.1,42.2
			c4.9,0,9.8-0.6,14.7-1.9c30.4-8.1,48.4-39.4,40.3-69.8c-6.9-25.4-29.9-42.3-55-42.3c-4.9,0-9.9,0.6-14.8,2c-7.1,1.9-13.5,5-19,9.2
			l38,41.8c0.8,0.7,1.3,1.5,1.5,2.4c0.6,2.1,0,4.4-1.8,6C311,158.9,309.6,159.4,308.1,159.4 M152.6,169.5l21-7l-44-48.8l-9.5,29.6
			C133,148.6,144.4,157.7,152.6,169.5 M91.9,268.3c4.9,0,9.8-0.6,14.7-1.9c22.2-5.9,37.8-24.2,41.4-45.5l-51.2,10.3
			c-0.2,0-0.4,0.1-0.6,0.1c-1.4,0.3-2.9,0.5-4.3,0.5c-9,0-17.3-6-19.7-15.1c-2.8-10.6,3.3-21.4,13.5-24.7c0.2-0.1,0.4-0.2,0.7-0.3
			l6.2-2.1l11-34.1c-3.8-0.8-7.7-1.2-11.6-1.2c-4.9,0-9.8,0.6-14.7,1.9c-30.3,8.1-48.4,39.4-40.3,69.8
			C43.6,251.6,66.7,268.3,91.9,268.3 M106.6,184.9l29.2-9.8c-5.7-6.9-12.9-12.3-21-15.9L106.6,184.9 M193.1,196.4l0.5-14.1
			c0.1-3.2,2.8-5.8,6-5.8c0.1,0,0.1,0,0.2,0c3.3,0.1,5.9,2.9,5.8,6.2l-0.5,14.3c7.4-2.7,11.6-10.7,9.5-18.5
			c-1.8-6.9-8.1-11.4-14.9-11.4c-1.2,0-2.5,0.1-3.7,0.5l-2.3,0.8c-7,2.9-10.9,10.7-8.9,18.2C186,191,189.2,194.5,193.1,196.4
			 M165.4,205.2l15.2-3.1c-3.4-3.3-6-7.6-7.4-12.5c-1.3-4.9-1.2-9.9,0.1-14.4l-14.7,4.9c1.8,3.9,3.3,7.9,4.5,12.2
			C164.3,196.6,165,200.9,165.4,205.2 M111.7,216l37.1-7.5c-0.2-4-0.8-8-1.9-12c-1-3.9-2.5-7.7-4.3-11.1l-35.9,12.1
			c2.2,2.4,3.9,5.3,4.8,8.6C112.4,209.5,112.5,212.9,111.7,216 M91.9,219.9c0.6,0,1.3-0.1,2-0.2c0.1,0,0.2,0,0.3-0.1
			c4.5-1.2,7.1-5.9,5.9-10.4c-1.1-3.8-4.5-6.3-8.2-6.3c-0.7,0-1.4,0.1-2.2,0.3c-4.5,1.2-7.2,5.9-6,10.4
			C84.7,217.4,88.2,219.9,91.9,219.9 M256.3,18l0,10L256.3,18c-2.5,0-5,0.3-7.5,1c0,0-0.1,0-0.1,0l-5.6,1.5
			c-0.6,0.2-1.3,0.4-1.8,0.7l-34.9,9.3c-0.1,0-0.1,0-0.2,0c-3.8,1.1-7,3.3-9,6.4c-4.1,6-3.6,14.3,1.3,19.7l7,7.7l-73.2,19.6
			l-1.1-1.2c5.9-5,8.7-13,6.6-21c-2.4-8.9-10.5-15.2-19.7-15.2c-1.8,0-3.6,0.2-5.3,0.7c-0.1,0-0.2,0.1-0.3,0.1l-28.8,8.8
			c-5.2,1.4-9.5,4.8-12.2,9.5c-2.7,4.7-3.5,10.2-2,15.5C71.9,90,80,96.3,89.2,96.3c1.8,0,3.6-0.2,5.3-0.7c0.1,0,0.2-0.1,0.3-0.1
			l3.9-1.2l10.3,11.4l-7.2,22.5c-3.3-0.4-6.6-0.6-10-0.6c-7.3,0-14.5,1-21.6,2.8C25.6,142.4-1,188.4,11,233
			c9.8,36.6,43,62.1,80.9,62.1c7.3,0,14.5-1,21.6-2.8c31.6-8.4,55.3-34.7,60.9-66.5l9.2-1.9c2.3,5.6,7.8,9.7,14.3,9.9
			c0.1,0,0.2,0,0.3,0c0.9,0,2.7,0,4.7-0.6c6.6-1.9,11.2-7.9,11.5-14.8l0.1-1.4c10-4.2,17.4-12.6,20.8-22.5
			c14.6,25.9,42.3,42.7,73,42.7c7.3,0,14.5-1,21.6-2.8c44.5-11.9,71.1-57.9,59.3-102.5c-9.8-36.6-43.1-62.2-80.9-62.2
			c-7.3,0-14.5,1-21.6,2.8c-7.8,2.1-15.2,5.2-22,9.4l-4.7-5.2l3.5-0.9c2.9-0.8,5.7-2,8.2-3.7c5.7-3.6,10-9.1,12.2-15.4
			c2-5.7,2.2-11.7,0.6-17.4c0,0,0-0.1,0-0.1C280.7,26.5,269.4,18,256.3,18L256.3,18z M156.4,110.5l54.2-14.5l-15.7,49.3
			c-1.4,0.2-2.8,0.4-4.2,0.8c-0.1,0-0.2,0-0.3,0.1c-0.1,0-0.3,0.1-0.4,0.1c-0.4,0.1-0.7,0.2-1.1,0.3L156.4,110.5L156.4,110.5z
			 M290.2,110.1c1.9-0.8,3.8-1.4,5.8-2c4-1.1,8.1-1.6,12.2-1.6c21.2,0,39.8,14.3,45.4,34.9c3.2,12.1,1.6,24.8-4.7,35.7
			c-6.3,10.9-16.4,18.6-28.5,21.9c-4,1.1-8.1,1.6-12.1,1.6c-21.3,0-40-14.3-45.4-34.8c-3.1-11.6-1.6-23.7,3.9-34.1l29.6,32.6
			c3,3.3,7.3,5.2,11.8,5.2c4,0,7.8-1.5,10.7-4.1c4.5-4.1,6.3-10.1,4.8-15.9c-0.6-2.6-2-5-4.1-7L290.2,110.1L290.2,110.1z M132.2,138
			l1.5-4.8l15.2,16.9C143.9,145.4,138.3,141.3,132.2,138L132.2,138z M91.9,258.3c-21.3,0-39.9-14.3-45.4-34.8
			c-6.7-25.1,8.2-50.9,33.2-57.6c3.4-0.9,6.9-1.4,10.4-1.6l-5.6,17.4l-1.4,0.5c0,0,0,0-0.1,0c-0.4,0.1-0.7,0.3-1.1,0.4
			c-15.1,5.1-23.7,21.1-19.5,36.6c3.6,13.3,15.6,22.5,29.4,22.5c2,0,4-0.2,6-0.6c0.4,0,0.7-0.1,1-0.2l34.1-6.9
			c-6.1,11-16.4,19.3-28.9,22.6C100.1,257.8,96,258.3,91.9,258.3L91.9,258.3z M121.1,203.2l15.8-5.3c0.1,0.4,0.2,0.8,0.3,1.2
			c0.1,0.5,0.2,1,0.4,1.4l-16.3,3.3c0-0.1-0.1-0.3-0.1-0.4C121.1,203.4,121.1,203.3,121.1,203.2L121.1,203.2z"/>
	</g>
	<g>
		<path class="st1" d="M110.9,282.6c-39.3,10.5-79.8-12.9-90.3-52.2s12.9-79.8,52.2-90.3s79.8,12.9,90.3,52.2
			S150.2,272.1,110.9,282.6z M77.1,156.3c-30.3,8.1-48.4,39.4-40.3,69.8s39.4,48.4,69.8,40.3s48.4-39.4,40.3-69.8
			S107.5,148.2,77.1,156.3z"/>
		<path class="st1" d="M327.2,224.7c-39.3,10.5-79.8-12.9-90.3-52.2s12.9-79.8,52.2-90.3s79.8,12.9,90.3,52.2
			C389.8,173.7,366.4,214.2,327.2,224.7z M293.4,98.5c-30.3,8.1-48.4,39.4-40.3,69.8c8.1,30.3,39.4,48.4,69.8,40.3
			s48.4-39.4,40.3-69.8C355,108.4,323.7,90.3,293.4,98.5z"/>
		<path class="st2" d="M313.9,151.9c0.6,2.1,0,4.4-1.8,6c-2.4,2.2-6.2,2-8.4-0.4l-66.4-73.1L212,163.9l-11.4-3.6l25-78.6L138,105.1
			l51.7,57.4l-8.9,8l-51.3-56.9l-27.6,85.8l-11.4-3.7l29.8-92.4L98.1,78.7l8.9-8l22,24.4l95-25.4l-18-19.8c-1.8-2-2.1-5.1-0.5-7.4
			c0.8-1.2,2.1-2,3.5-2.4l36.7-9.8l5.6-1c10.1-2.7,20.6,2.8,23.4,12.8c2.9,10.3-3.5,21.1-13.9,23.9l-6.4,1.7
			c-1.6,0.4-3.2,0.2-4.5-0.6c-1.3-0.8-2.4-2-2.8-3.6c-0.9-3.2,1-6.5,4.2-7.3l6.8-1.8c4-1.1,6.3-5.3,4.9-9.3c-1.2-3.6-5.3-6-9-5
			l-5.3,1.8l-27.4,7.3l91.1,100.3C313.2,150.2,313.7,151,313.9,151.9z"/>
		<path class="st3" d="M120.8,77.1l-28.9,8.8c-5.6,1.5-11.3-1.8-12.8-7.4s1.8-11.3,7.4-12.8l28.9-8.8c5.6-1.5,11.3,1.8,12.8,7.4
			C129.7,69.9,126.4,75.6,120.8,77.1z"/>
		<path class="st4" d="M89.7,203.2c-3,0.8-6.2-0.9-7.2-3.9c-1.1-3.1,0.6-6.5,3.8-7.6l106-35.6c3.1-1.1,6.5,0.6,7.6,3.8
			c1.1,3.1-0.6,6.5-3.8,7.6l-106,35.6C89.9,203.1,89.8,203.2,89.7,203.2z"/>
		<path class="st4" d="M206.8,209c-0.1,0-0.2,0.1-0.4,0.1L96.8,231.2c-3.2,0.7-6.4-1.4-7-4.7c-0.7-3.2,1.4-6.4,4.7-7l109.6-22.1
			c3.2-0.7,6.4,1.4,7,4.7C211.7,205.2,209.8,208.2,206.8,209z"/>
		<path class="st5" d="M274.8,42c2.9,10.3-3.8,21.3-14.1,24.1l-6.3,1.7c-1.6,0.4-3.2,0.2-4.5-0.6c-1.3-0.8-2.5-2.2-2.9-3.8
			c-0.9-3.2,1.2-6.6,4.4-7.5l6.8-1.8c4-1.1,6-5,4.7-9c-1.2-3.6-5-5.7-8.7-4.8l-5.4,1.4l-3.1-11.6l5.6-1.5
			C261.8,25.9,271.9,32,274.8,42z"/>
		<path class="st5" d="M206.8,209c-14.6,3.9-29.7-4.8-33.6-19.4c-3.9-14.6,4.8-29.7,19.4-33.6c14.6-3.9,29.7,4.8,33.6,19.4
			C230.1,190,221.4,205.1,206.8,209z M195.7,167.6c-8.2,2.2-13.1,10.7-10.9,18.9c2.2,8.2,10.7,13.1,18.9,10.9
			c8.2-2.2,13.1-10.7,10.9-18.9C212.4,170.3,203.9,165.4,195.7,167.6z"/>
		<path class="st5" d="M97.1,231.1c-10.9,2.9-22.1-3.6-25-14.4c-2.9-10.9,3.6-22.1,14.4-25s22.1,3.6,25,14.4
			C114.5,217,108,228.2,97.1,231.1z M89.7,203.2c-4.5,1.2-7.2,5.9-6,10.4s5.9,7.2,10.4,6s7.2-5.9,6-10.4
			C98.8,204.7,94.2,202,89.7,203.2z"/>
		<path class="st1" d="M199.9,223.6c-0.6,0.2-1.2,0.2-1.8,0.2c-3.3-0.1-5.9-2.9-5.8-6.2l1.3-35.3c0.1-3.3,2.9-5.9,6.2-5.8
			c3.3,0.1,5.9,2.9,5.8,6.2l-1.3,35.3C204.2,220.7,202.4,222.9,199.9,223.6z"/>
	</g>
</g>
<circle class="st6" cx="200" cy="340.1" r="37.7"/>
<g>
	<path class="st0" d="M197.2,350.6c-0.5-0.6-0.7-1.3-0.7-2.3c0-2.6,0.5-4.8,1.4-6.6c0.9-1.8,2.3-3.8,4.1-5.9
		c1.4-1.7,2.5-3.1,3.1-4.2c0.7-1.1,1-2.4,1-3.8c0-1.6-0.6-2.8-1.7-3.7c-1.2-0.9-2.7-1.4-4.7-1.4c-1.7,0-3.3,0.4-4.9,1.1
		c-1.6,0.7-3.4,1.8-5.5,3.2c-1.2,0.7-2.1,1-2.9,1c-0.8,0-1.5-0.4-2.1-1.1s-0.9-1.6-0.9-2.6c0-1.4,0.6-2.5,1.7-3.3c2-1.7,4.3-3,7-4
		s5.4-1.5,8.1-1.5c2.9,0,5.4,0.5,7.7,1.5c2.2,1,4,2.4,5.2,4.1c1.3,1.7,1.9,3.8,1.9,6c0,2.5-0.6,4.6-1.8,6.4s-2.9,3.9-5.2,6.1
		c-1.9,2-3.4,3.6-4.4,5s-1.6,2.9-1.8,4.6c-0.1,0.8-0.5,1.3-1,1.7c-0.5,0.4-1.1,0.6-1.9,0.6C198.3,351.4,197.7,351.2,197.2,350.6z
		 M195.5,364.8c-1-1-1.5-2.3-1.5-3.8s0.5-2.8,1.5-3.8s2.2-1.5,3.8-1.5c1.5,0,2.8,0.5,3.8,1.5s1.5,2.3,1.5,3.8s-0.5,2.8-1.5,3.8
		s-2.3,1.5-3.7,1.5C197.8,366.3,196.5,365.8,195.5,364.8z"/>
</g>
</svg>
