<?xml version="1.0" encoding="utf-8"?>
<!-- Generator: Adobe Illustrator 22.1.0, SVG Export Plug-In . SVG Version: 6.00 Build 0)  -->
<svg version="1.1" id="Layer_1" xmlns="http://www.w3.org/2000/svg" xmlns:xlink="http://www.w3.org/1999/xlink" x="0px" y="0px"
	 viewBox="0 0 80.6 80.6" style="enable-background:new 0 0 80.6 80.6;" xml:space="preserve">
<style type="text/css">
	.st0{fill:#FFFFFF;}
	.st1{fill:#666666;}
</style>
<g>
	<path class="st0" d="M21.2,67.6c-7,0-13.1-4.7-14.9-11.4C4.1,48,9,39.6,17.2,37.4c1.3-0.3,2.6-0.5,4-0.5c0.7,0,1.4,0.1,2.2,0.2
		l1.5-4.7l-2.3-2.5l-1,0.3c-0.3,0.1-0.6,0.1-0.9,0.1h-0.1c-0.1,0-0.1,0-0.2,0c-1.5,0-2.8-1-3.3-2.4l-4.7-8.5v-0.2
		c-0.5-1.8,0.6-3.7,2.5-4.2c0.3-0.1,0.6-0.1,0.9-0.1c1.5,0,2.8,1,3.3,2.4l3,5.5l3.1-0.9c0.3-0.1,0.6-0.1,0.9-0.1
		c1.6,0,2.9,1.1,3.3,2.6c0.2,0.9,0.1,1.8-0.3,2.6c-0.3,0.5-0.6,0.9-1.1,1.2l0.6,0.7L43.2,25l-1.7-1.9c-0.8-0.9-0.9-2.2-0.2-3.3
		c0.3-0.5,0.9-0.9,1.5-1.1l7-1.9l1.1-0.2c0.4-0.1,0.9-0.2,1.3-0.2c2.3,0,4.3,1.5,4.9,3.6c0.4,1.3,0.2,2.7-0.5,3.9
		c-0.7,1.2-1.9,2.1-3.2,2.5l-1.3,0.3l1.6,1.7c1.3-0.8,2.8-1.5,4.3-1.9c1.3-0.3,2.6-0.5,4-0.5c7,0,13.1,4.7,14.9,11.4
		c2.1,8.1-2.8,16.6-11,18.8c-1.3,0.3-2.6,0.5-4,0.5l0,0c-6,0-11.4-3.5-13.9-8.7c-0.4,2.2-2,4.2-4.2,5v0.5c0,1.2-0.8,2.1-1.9,2.4
		C41.7,56,41.5,56,41.2,56c-1.3,0-2.2-0.9-2.5-1.9l-2.4,0.5c-0.9,6-5.3,10.9-11.2,12.5C23.8,67.5,22.5,67.6,21.2,67.6z M21.1,43
		c-0.8,0-1.6,0.1-2.4,0.3c-4.9,1.3-7.9,6.4-6.5,11.3c1.1,4,4.8,6.9,8.9,6.9c0.8,0,1.6-0.1,2.4-0.3c2.7-0.7,4.9-2.7,6-5.2l-7.2,1.4
		h-0.1h-0.1c-0.3,0.1-0.7,0.1-1.1,0.1c-2.4,0-4.5-1.6-5.2-4c-0.7-2.7,0.8-5.6,3.5-6.5l0.6-0.2l1.3-4C21.3,43,21.2,43,21.1,43z
		 M21.1,52.1L21,52.2c0,0.1,0.1,0.1,0.1,0.1c0.1,0,0.1-0.1,0.1-0.1C21.2,52.2,21.2,52.1,21.1,52.1C21.2,52.1,21.2,52.1,21.1,52.1z
		 M26.2,50.5c0,0.1,0.1,0.3,0.1,0.4c0,0.1,0.1,0.3,0.1,0.4l3.8-0.8c0-0.2-0.1-0.4-0.1-0.7s-0.1-0.4-0.2-0.6L26.2,50.5z M54.1,36.5
		c-1.3,2.1-1.7,4.7-1,7.2c1.1,4,4.8,6.9,8.9,6.9c0.8,0,1.6-0.1,2.4-0.3c4.9-1.3,7.9-6.4,6.5-11.3c-1.1-4-4.8-6.9-8.9-6.9
		c-0.8,0-1.6,0.1-2.4,0.3C59,32.5,58.5,32.8,58,33l6,6.6c0.3,0.3,0.5,0.7,0.6,1.1c0.3,1,0,2-0.8,2.6C63.2,43.7,62.6,44,62,44
		c-0.7,0-1.4-0.3-1.9-0.9L54.1,36.5z M26.3,44.9l0.3-0.1c-0.1-0.1-0.1-0.1-0.2-0.2L26.3,44.9z M28.3,38.6c1.9,1,3.5,2.3,4.8,4
		l0.8-0.3l-5-5.6L28.3,38.6z M45.9,41.8c0.3,0.2,0.5,0.5,0.7,0.7c-0.1-1.1-0.1-2.2,0.1-3.3L45.9,41.8z M39.4,40.5l0.5-0.2l0,0
		c0.3-0.1,0.6-0.1,1-0.2l3.3-10.2L32.6,33L39.4,40.5z M48.3,34.3c0.4-0.8,1-1.7,1.6-2.4l-0.6-0.6L48.3,34.3z M49,23.2
		c0.1-0.4,0.4-0.8,0.7-1.1l-1.4,0.4L49,23.2z"/>
	<path class="st0" d="M15.7,16.3c0.9,0,1.7,0.6,1.9,1.5l3.7,6.7l4.3-1.3c0.2,0,0.3-0.1,0.5-0.1c0.9,0,1.7,0.6,1.9,1.5
		c0.3,1-0.3,2.1-1.4,2.4l-1.2,0.4l2.7,3L46,25.6l-3.4-3.7c-0.3-0.4-0.4-1-0.1-1.4c0.2-0.2,0.4-0.4,0.7-0.5l6.9-1.9l1-0.2
		c0.3-0.1,0.7-0.1,1-0.1c1.6,0,3,1,3.4,2.5c0.6,1.9-0.7,4-2.6,4.5l-1.2,0.3c-0.1,0-0.2,0-0.3,0c-0.2,0-0.4-0.1-0.6-0.2
		c-0.3-0.1-0.4-0.4-0.5-0.7c-0.2-0.6,0.2-1.2,0.8-1.4l1.3-0.3c0.8-0.2,1.2-1,0.9-1.8c-0.2-0.6-0.8-1-1.4-1c-0.1,0-0.2,0-0.3,0
		l-1,0.3l-5.2,1.4l7.9,8.7c1.4-1.1,3.1-1.9,4.9-2.4c1.2-0.3,2.4-0.5,3.6-0.5c6.1,0,11.8,4.1,13.4,10.3c2,7.4-2.4,15-9.8,17
		C64.2,54.8,63,55,61.8,55c-6.1,0-11.8-4.1-13.4-10.3c-1.3-4.8,0.1-9.7,3.3-13.1l-3.2-3.5L44,42.2c1.1,0.7,2,1.8,2.4,3.1
		c0.7,2.8-0.9,5.6-3.7,6.3l0,0l0,0c0,0,0,0-0.1,0l-0.3,0.1l-0.1,1.6c0,0.5-0.4,0.9-0.8,1c-0.1,0-0.2,0-0.3,0l0,0
		c-0.6,0-1.1-0.5-1.1-1.2V52l-5.2,1c-0.5,5.7-4.4,10.7-10.2,12.3c-1.2,0.3-2.4,0.5-3.6,0.5c-6,0.3-11.6-3.8-13.3-10
		c-2-7.4,2.4-15,9.8-17c1.2-0.3,2.4-0.5,3.6-0.5c1.1,0,2.2,0.1,3.2,0.4l2.2-6.8L23.1,28l-1.9,0.6c-0.2,0-0.3,0.1-0.5,0.1h-0.1
		c-0.1,0-0.1,0-0.2,0c-0.9,0-1.7-0.6-1.9-1.5l-4.7-8.5c-0.3-1,0.3-2.1,1.4-2.4C15.4,16.3,15.6,16.3,15.7,16.3 M38.9,42.2l1.2-0.4
		l0,0l0,0c0.4-0.1,0.8-0.2,1.3-0.2c0.2,0,0.4,0,0.5,0l4.4-13.9l-16.5,4.4L38.9,42.2 M62,42.5c-0.3,0-0.6-0.1-0.8-0.4L54,34.2
		c-2.3,2.6-3.3,6.3-2.4,9.9c1.3,4.8,5.6,8,10.4,8c0.9,0,1.8-0.1,2.8-0.4c5.7-1.5,9.1-7.4,7.6-13.2c-1.3-4.8-5.6-8-10.4-8
		c-0.9,0-1.8,0.1-2.8,0.4c-1.3,0.4-2.5,1-3.6,1.7l7.2,7.9c0.1,0.1,0.2,0.3,0.3,0.5c0.1,0.4,0,0.8-0.3,1.1
		C62.5,42.4,62.2,42.5,62,42.5 M32.6,44.3l4-1.3l-8.3-9.2l-1.8,5.6C28.9,40.4,31.1,42.1,32.6,44.3 M21.2,63c0.9,0,1.8-0.1,2.8-0.4
		c4.2-1.1,7.1-4.6,7.8-8.6l-9.7,2l0,0l0,0l0,0c-0.3,0.1-0.6,0.1-0.9,0.1c-1.7,0-3.3-1.1-3.7-2.8c-0.5-2,0.6-4.1,2.6-4.7l0,0l1.2-0.4
		l2.1-6.4c-0.7-0.2-1.5-0.2-2.2-0.2c-0.9,0-1.8,0.1-2.7,0.4c-5.7,1.5-9.1,7.4-7.6,13.2C12.1,59.8,16.4,63,21.2,63 M24,47.2l5.5-1.8
		c-1.1-1.3-2.4-2.3-3.9-3L24,47.2 M40.3,49.4l0.1-2.7c0-0.6,0.5-1.1,1.1-1.1l0,0c0.6,0,1.1,0.5,1.1,1.2l-0.1,2.7
		c1.4-0.5,2.2-2,1.8-3.5c-0.3-1.3-1.5-2.2-2.8-2.2c-0.2,0-0.5,0-0.7,0.1h-0.1c-1.5,0.4-2.4,2-2,3.5C38.9,48.4,39.5,49.1,40.3,49.4
		 M35,51.1l2.9-0.6c-0.6-0.6-1.2-1.4-1.4-2.4s-0.2-1.9,0-2.7l-2.8,0.9c0.3,0.7,0.6,1.5,0.9,2.3C34.8,49.5,34.9,50.3,35,51.1
		 M24.9,53.1l7-1.4c0-0.7-0.1-1.5-0.3-2.2c-0.2-0.7-0.5-1.5-0.8-2.1L24,49.6c0.4,0.4,0.8,1,0.9,1.6C25.1,51.9,25,52.5,24.9,53.1
		 M21.2,53.8c0.1,0,0.3,0,0.4-0.1c0.8-0.2,1.4-1.1,1.1-2c-0.2-0.7-0.8-1.2-1.5-1.2c-0.1,0-0.3,0-0.4,0.1c-0.8,0.2-1.4,1.1-1.1,2
		C19.8,53.4,20.5,53.8,21.2,53.8 M15.7,13.3L15.7,13.3c-0.4,0-0.9,0.1-1.3,0.2c-1.3,0.3-2.4,1.2-3,2.3c-0.7,1.1-0.8,2.5-0.5,3.8
		L11,20l0.2,0.3l4.5,8.2c0.7,1.9,2.6,3.3,4.7,3.3c0.1,0,0.1,0,0.2,0h0.1c0.4,0,0.9-0.1,1.3-0.2l0,0l0,0h0.1l1.1,1.2l-0.9,2.8
		c-0.4,0-0.7,0-1.1,0c-1.5,0-2.9,0.2-4.4,0.6c-4.4,1.2-8,4-10.3,7.9s-2.9,8.5-1.7,12.8c2,7.4,8.7,12.5,16.3,12.5
		c1.5,0,2.9-0.2,4.4-0.6c6.1-1.6,10.8-6.6,12.1-12.7h0.2c0.1,0.1,0.2,0.3,0.3,0.4c0.8,0.8,1.8,1.3,2.9,1.3h0.1h0.1
		c0.4,0,0.7,0,1.1-0.1c1.6-0.4,2.8-1.8,3-3.4c1.2-0.7,2.2-1.6,3-2.7c3.1,4.3,8.1,6.9,13.6,6.9c1.5,0,2.9-0.2,4.4-0.6
		c9-2.4,14.4-11.7,12-20.7c-2-7.4-8.7-12.5-16.3-12.5c-1.5,0-2.9,0.2-4.3,0.6c0.1-0.2,0.2-0.3,0.3-0.5c0.9-1.6,1.1-3.3,0.6-5
		c-0.8-2.8-3.3-4.7-6.3-4.7c-0.5,0-1.1,0.1-1.6,0.2l-1,0.2h-0.1h-0.1l-7,1.5c-1,0.3-1.8,0.8-2.4,1.7c-1.1,1.6-0.9,3.7,0.3,5.1
		l0.1,0.1l-9.7,2.6c0.3-0.9,0.3-1.8,0.1-2.8c-0.6-2.2-2.6-3.7-4.8-3.7c-0.4,0-0.9,0.1-1.3,0.2l0,0l0,0l-2,0.6l-2.4-4.3
		C19.7,14.6,17.8,13.3,15.7,13.3L15.7,13.3L15.7,13.3z"/>
</g>
<g>
	<path class="st1" d="M24.8,65.7c-7.4,2-15-2.4-17-9.8s2.4-15,9.8-17s15,2.4,17,9.8S32.2,63.7,24.8,65.7z M18.4,41.9
		c-5.7,1.5-9.1,7.4-7.6,13.2s7.4,9.1,13.2,7.6c5.7-1.5,9.1-7.4,7.6-13.2S24.1,40.3,18.4,41.9z"/>
	<path class="st1" d="M65.5,54.8c-7.4,2-15-2.4-17-9.8s2.4-15,9.8-17s15,2.4,17,9.8S73,52.8,65.5,54.8z M59.2,30.9
		c-5.7,1.5-9.1,7.4-7.6,13.2s7.4,9.1,13.2,7.6c5.7-1.5,9.1-7.4,7.6-13.2S64.9,29.4,59.2,30.9z"/>
	<path class="st1" d="M63,41c0.1,0.4,0,0.8-0.3,1.1c-0.5,0.4-1.2,0.4-1.6-0.1L48.6,28.3l-4.8,15l-2.1-0.7l4.7-14.8l-16.5,4.4
		L39.6,43L38,44.6l-9.7-10.7L23.1,50L21,49.3l5.6-17.4l-4.2-4.6l1.7-1.5l4.1,4.6l17.9-4.8l-3.4-3.7c-0.3-0.4-0.4-1-0.1-1.4
		c0.2-0.2,0.4-0.4,0.7-0.5l6.9-1.9l1-0.2c1.9-0.5,3.9,0.5,4.4,2.4c0.6,1.9-0.7,4-2.6,4.5l-1.2,0.3c-0.3,0.1-0.6,0-0.9-0.1
		c-0.3-0.1-0.4-0.4-0.5-0.7c-0.2-0.6,0.2-1.2,0.8-1.4l1.3-0.3c0.8-0.2,1.2-1,0.9-1.8c-0.2-0.7-1-1.1-1.7-0.9l-1,0.3l-5.2,1.4
		l17.2,18.9C62.9,40.7,63,40.9,63,41z"/>
	<path class="st1" d="M26.6,26.9l-5.5,1.7c-1,0.3-2.1-0.3-2.4-1.4c-0.3-1,0.3-2.1,1.4-2.4l5.5-1.7c1-0.3,2.1,0.3,2.4,1.4
		S27.7,26.6,26.6,26.9z"/>
	<path class="st1" d="M18.5,27.2l-4.7-8.5c-0.3-1,0.3-2.1,1.4-2.4c1-0.3,2.1,0.3,2.4,1.4l4.7,8.5c0.3,1-0.3,2.1-1.4,2.4
		C19.9,28.9,18.8,28.2,18.5,27.2z"/>
	<path class="st1" d="M20.8,50.7c-0.6,0.2-1.2-0.2-1.4-0.7c-0.2-0.6,0.1-1.2,0.7-1.4l20-6.7c0.6-0.2,1.2,0.1,1.4,0.7
		c0.2,0.6-0.1,1.2-0.7,1.4L20.8,50.7L20.8,50.7z"/>
	<path class="st1" d="M42.8,51.8L42.8,51.8L22.1,56c-0.6,0.1-1.2-0.3-1.3-0.9c-0.1-0.6,0.3-1.2,0.9-1.3l20.7-4.2
		c0.6-0.1,1.2,0.3,1.3,0.9C43.8,51.1,43.4,51.6,42.8,51.8z"/>
	<path class="st1" d="M42.8,51.8c-2.8,0.7-5.6-0.9-6.3-3.7s0.9-5.6,3.7-6.3s5.6,0.9,6.3,3.7S45.6,51.1,42.8,51.8z M40.7,44
		c-1.6,0.4-2.5,2-2.1,3.6s2,2.5,3.6,2.1s2.5-2,2.1-3.6C43.9,44.5,42.3,43.6,40.7,44z"/>
	<path class="st1" d="M22.2,56c-2.1,0.5-4.2-0.7-4.7-2.7c-0.5-2.1,0.7-4.2,2.7-4.7s4.2,0.7,4.7,2.7C25.4,53.3,24.2,55.4,22.2,56z
		 M20.8,50.7c-0.8,0.2-1.4,1.1-1.1,2s1.1,1.4,2,1.1c0.8-0.2,1.4-1.1,1.1-2S21.6,50.5,20.8,50.7z"/>
	<path class="st1" d="M41.5,54.5c-0.1,0-0.2,0-0.3,0c-0.6,0-1.1-0.5-1.1-1.2l0.2-6.7c0-0.6,0.5-1.1,1.2-1.1c0.6,0,1.1,0.5,1.1,1.2
		l-0.2,6.7C42.4,54,42,54.4,41.5,54.5z"/>
</g>
</svg>
