<?xml version="1.0" encoding="utf-8"?>
<!-- Generator: Adobe Illustrator 22.1.0, SVG Export Plug-In . SVG Version: 6.00 Build 0)  -->
<svg version="1.1" id="Layer_1" xmlns="http://www.w3.org/2000/svg" xmlns:xlink="http://www.w3.org/1999/xlink" x="0px" y="0px"
	 viewBox="0 0 80.6 80.6" style="enable-background:new 0 0 80.6 80.6;" xml:space="preserve">
<style type="text/css">
	.st0{fill:#FFFFFF;}
	.st1{fill:#666666;}
</style>
<g>
	<path class="st0" d="M21.2,67.6c-7,0-13.1-4.7-14.9-11.4c-1.1-4-0.5-8.1,1.5-11.7c2.1-3.6,5.4-6.1,9.3-7.2c1.3-0.3,2.6-0.5,4-0.5
		c0.7,0,1.4,0.1,2.2,0.2l1.5-4.7l-2.3-2.5l-1,0.3c-0.3,0.1-0.6,0.1-0.9,0.1c-1.6,0-2.9-1.1-3.3-2.6c-0.2-0.9-0.1-1.8,0.3-2.6
		c0.5-0.8,1.2-1.4,2.1-1.6l5.4-1.6c0.3-0.1,0.6-0.1,0.9-0.1c1.6,0,2.9,1.1,3.3,2.6c0.2,0.9,0.1,1.8-0.3,2.6
		c-0.3,0.5-0.6,0.9-1.1,1.2l0.6,0.7l14.6-3.9L41.4,23c-0.8-0.9-0.9-2.2-0.2-3.3c0.3-0.5,0.9-0.9,1.5-1.1l8-2.1
		c0.5-0.1,0.9-0.2,1.4-0.2c2.3,0,4.3,1.5,4.9,3.7c0.4,1.3,0.2,2.7-0.5,3.9c-0.7,1.2-1.9,2.2-3.2,2.5l-1.2,0.3l1.5,1.7
		c1.3-0.8,2.8-1.5,4.3-1.9c1.3-0.3,2.6-0.5,4-0.5c7,0,13.1,4.7,14.9,11.4C79,45.5,74.1,54,65.9,56.2c-1.3,0.3-2.6,0.5-4,0.5l0,0
		c-6,0-11.4-3.5-13.9-8.7c-0.4,2.2-2,4.2-4.2,5v0.5c0,1.2-0.8,2.1-1.9,2.4C41.7,56,41.5,56,41.2,56c-1.3,0-2.2-0.9-2.5-1.9l-2.4,0.5
		c-0.9,6-5.3,10.9-11.2,12.5C23.8,67.5,22.5,67.6,21.2,67.6z M21.1,43c-0.8,0-1.6,0.1-2.4,0.3c-4.9,1.3-7.9,6.4-6.5,11.3
		c1.1,4,4.8,6.9,8.9,6.9c0.8,0,1.6-0.1,2.4-0.3c2.7-0.7,4.9-2.7,6-5.2l-7.2,1.4h-0.1h-0.1c-0.3,0.1-0.7,0.1-1.1,0.1
		c-2.4,0-4.5-1.6-5.2-4c-0.7-2.7,0.8-5.6,3.5-6.5l0.6-0.2l1.3-4C21.3,43,21.2,43,21.1,43z M54.1,36.5c-1.3,2.1-1.7,4.7-1,7.2
		c1.1,4,4.8,6.9,8.9,6.9c0.8,0,1.6-0.1,2.4-0.3c4.9-1.3,7.9-6.4,6.5-11.3c-1.1-4-4.8-6.9-8.9-6.9c-0.8,0-1.6,0.1-2.4,0.3
		C59,32.5,58.5,32.8,58,33l1.6,1.8c0.2-0.1,0.4-0.1,0.6-0.2c0.6-0.2,1.2-0.2,1.8-0.2c3.1,0,5.9,2.1,6.7,5.1c1,3.7-1.2,7.5-4.9,8.5
		c-0.6,0.2-1.2,0.2-1.8,0.2c-3.1,0-5.9-2.1-6.7-5.1c-0.4-1.6-0.3-3.3,0.4-4.8L54.1,36.5z M26.3,44.9l0.3-0.1
		c-0.1-0.1-0.1-0.1-0.2-0.2L26.3,44.9z"/>
	<path class="st0" d="M52.2,17.7c1.6,0,3,1.1,3.4,2.6c0.6,1.9-0.7,4-2.7,4.5l-1.2,0.3c-0.1,0-0.2,0-0.3,0c-0.2,0-0.4-0.1-0.6-0.2
		c-0.3-0.1-0.5-0.4-0.5-0.7c-0.2-0.6,0.2-1.2,0.8-1.4l1.3-0.3c0.8-0.2,1.1-0.9,0.9-1.7c-0.2-0.6-0.7-0.9-1.3-0.9c-0.1,0-0.2,0-0.3,0
		l-1,0.3l0,0l-5.2,1.4l7.9,8.7c1.4-1.1,3.1-1.9,4.9-2.4c1.2-0.3,2.4-0.5,3.6-0.5c6.1,0,11.8,4.1,13.4,10.3c2,7.4-2.4,15-9.8,17
		c-1.2,0.3-2.4,0.5-3.6,0.5c-6.1,0-11.8-4.1-13.4-10.3c-1.3-4.8,0.1-9.7,3.3-13.1l-3.2-3.5l-4.5,14.1c1.1,0.7,2,1.8,2.4,3.1
		c0.7,2.8-0.9,5.6-3.7,6.3l0,0l0,0c0,0,0,0-0.1,0l-0.3,0.1l-0.1,1.6c0,0.5-0.4,0.9-0.8,1c-0.1,0-0.2,0-0.3,0l0,0
		c-0.6,0-1.1-0.5-1.1-1.2v-1.1l-5.2,1c-0.5,5.7-4.4,10.7-10.2,12.3c-1.2,0.3-2.4,0.5-3.6,0.5C15,66.1,9.4,62,7.7,55.8
		c-2-7.4,2.4-15,9.8-17c1.2-0.3,2.4-0.5,3.6-0.5c1.1,0,2.2,0.1,3.2,0.4l2.2-6.8L23.1,28l-1.9,0.6c-0.2,0-0.3,0.1-0.5,0.1
		c-0.9,0-1.7-0.6-1.9-1.5c-0.3-1,0.3-2.1,1.4-2.4l5.5-1.7c0.2,0,0.3-0.1,0.5-0.1c0.9,0,1.7,0.6,1.9,1.5c0.3,1-0.3,2.1-1.4,2.4
		l-1.2,0.4l2.7,3l17.9-4.8l-3.4-3.7c-0.3-0.4-0.4-1-0.1-1.4c0.2-0.2,0.4-0.4,0.7-0.5l6.9-1.9l0,0l1.1-0.3
		C51.6,17.7,51.9,17.7,52.2,17.7 M38.9,42.2l1.2-0.4l0,0l0,0c0.4-0.1,0.8-0.2,1.3-0.2c0.2,0,0.4,0,0.5,0l4.4-13.9l-16.5,4.4
		L38.9,42.2 M59.2,36.6c0.4-0.2,0.9-0.4,1.3-0.6c0.5-0.1,0.9-0.2,1.4-0.2c2.4,0,4.6,1.6,5.3,4c0.8,2.9-1,5.9-3.9,6.7
		c-0.5,0.1-0.9,0.2-1.4,0.2c-2.4,0-4.6-1.6-5.3-4c-0.4-1.6-0.1-3.3,0.8-4.6l-3.6-4c-2.3,2.6-3.3,6.3-2.4,9.9c1.3,4.8,5.6,8,10.4,8
		c0.9,0,1.8-0.1,2.8-0.4c5.7-1.5,9.1-7.4,7.6-13.2c-1.3-4.8-5.6-8-10.4-8c-0.9,0-1.8,0.1-2.8,0.4c-1.3,0.4-2.5,1-3.6,1.7L59.2,36.6
		 M32.6,44.3l4-1.3l-8.3-9.2l-1.8,5.6C28.9,40.4,31.1,42.1,32.6,44.3 M21.2,63c0.9,0,1.8-0.1,2.8-0.4c4.2-1.1,7.1-4.6,7.8-8.6
		l-9.7,2l0,0l0,0l0,0c-0.3,0.1-0.6,0.1-0.9,0.1c-1.7,0-3.3-1.1-3.7-2.8c-0.5-2,0.6-4.1,2.6-4.7l0,0l1.2-0.4l2.1-6.4
		c-0.7-0.2-1.5-0.2-2.2-0.2c-0.9,0-1.8,0.1-2.7,0.4c-5.7,1.5-9.1,7.4-7.6,13.2C12.1,59.8,16.4,63,21.2,63 M24,47.2l5.5-1.8
		c-1.1-1.3-2.4-2.3-3.9-3L24,47.2 M40.3,49.4l0.1-2.7c0-0.6,0.5-1.1,1.1-1.1l0,0c0.6,0,1.1,0.5,1.1,1.2l-0.1,2.7
		c1.4-0.5,2.2-2,1.8-3.5c-0.3-1.3-1.5-2.2-2.8-2.2c-0.2,0-0.5,0-0.7,0.1h-0.1c-1.5,0.4-2.4,2-2,3.5C38.9,48.4,39.5,49.1,40.3,49.4
		 M35,51.1l2.9-0.6c-0.6-0.6-1.2-1.4-1.4-2.4c-0.2-0.9-0.2-1.9,0-2.7l-2.8,0.9c0.3,0.7,0.6,1.5,0.9,2.3C34.8,49.5,34.9,50.3,35,51.1
		 M24.9,53.1l7-1.4c0-0.7-0.1-1.5-0.3-2.2c-0.2-0.7-0.5-1.5-0.8-2.1L24,49.6c0.4,0.4,0.8,1,0.9,1.6C25.1,51.9,25,52.5,24.9,53.1
		 M52.2,14.7L52.2,14.7c-0.6,0-1.2,0.1-1.8,0.2l-1.1,0.3L42.5,17c-1,0.3-1.8,0.8-2.4,1.7c-1.1,1.6-0.9,3.7,0.3,5.1l0.1,0.1l-9.7,2.6
		c0.3-0.9,0.3-1.8,0.1-2.8c-0.6-2.2-2.6-3.7-4.8-3.7c-0.4,0-0.9,0.1-1.3,0.2l0,0l0,0l-5.4,1.6c-1.3,0.4-2.3,1.2-3,2.3
		c-0.7,1.1-0.8,2.5-0.5,3.8c0.6,2.2,2.6,3.7,4.8,3.7c0.4,0,0.9-0.1,1.3-0.2l0,0l0,0h0.1l1.1,1.2l-0.9,2.8c-0.4,0-0.7,0-1.1,0
		c-1.5,0-2.9,0.2-4.4,0.6c-4.4,1.2-8,4-10.3,7.9s-2.9,8.5-1.7,12.8c2,7.4,8.7,12.5,16.3,12.5c1.5,0,2.9-0.2,4.4-0.6
		C31.6,67,36.3,62,37.6,55.9h0.2c0.1,0.1,0.2,0.3,0.3,0.4c0.8,0.8,1.8,1.3,2.9,1.3h0.1h0.1c0.4,0,0.7,0,1.1-0.1
		c1.6-0.4,2.8-1.8,3-3.4c1.2-0.7,2.2-1.6,3-2.7c3.1,4.3,8.1,6.9,13.6,6.9c1.5,0,2.9-0.2,4.4-0.6c9-2.4,14.4-11.7,12-20.7
		c-2-7.4-8.7-12.5-16.3-12.5c-1.5,0-2.9,0.2-4.3,0.6c0.1-0.2,0.2-0.3,0.3-0.5c0.9-1.6,1.1-3.4,0.6-5C57.7,16.6,55.2,14.7,52.2,14.7
		L52.2,14.7z"/>
</g>
<g>
	<path class="st1" d="M24.8,65.7c-7.4,2-15-2.4-17-9.8s2.4-15,9.8-17s15,2.4,17,9.8S32.2,63.7,24.8,65.7z M18.4,41.9
		c-5.7,1.5-9.1,7.4-7.6,13.2s7.4,9.1,13.2,7.6c5.7-1.5,9.1-7.4,7.6-13.2S24.1,40.3,18.4,41.9z"/>
	<path class="st1" d="M65.5,54.8c-7.4,2-15-2.4-17-9.8s2.4-15,9.8-17s15,2.4,17,9.8S73,52.8,65.5,54.8z M59.2,30.9
		c-5.7,1.5-9.1,7.4-7.6,13.2s7.4,9.1,13.2,7.6c5.7-1.5,9.1-7.4,7.6-13.2S64.9,29.4,59.2,30.9z"/>
	<path class="st1" d="M63.4,46.6c-2.9,0.8-5.9-1-6.7-3.8c-0.8-2.9,1-5.9,3.8-6.7c2.9-0.8,5.9,1,6.7,3.8C68,42.8,66.3,45.8,63.4,46.6
		z"/>
	<path class="st1" d="M63,41c0.1,0.4,0,0.8-0.3,1.1c-0.5,0.4-1.2,0.4-1.6-0.1L48.6,28.3l-4.8,15l-2.1-0.7l4.7-14.8l-16.5,4.4
		L39.6,43L38,44.6l-9.7-10.7L23.1,50L21,49.3l5.6-17.4l-4.2-4.6l1.7-1.5l4.1,4.6l17.9-4.8l-3.4-3.7c-0.3-0.4-0.4-1-0.1-1.4
		c0.2-0.2,0.4-0.4,0.7-0.5l6.9-1.9l1-0.2c1.9-0.5,3.9,0.5,4.4,2.4c0.6,1.9-0.7,4-2.6,4.5l-1.2,0.3c-0.3,0.1-0.6,0-0.9-0.1
		c-0.3-0.1-0.4-0.4-0.5-0.7c-0.2-0.6,0.2-1.2,0.8-1.4l1.3-0.3c0.8-0.2,1.2-1,0.9-1.8c-0.2-0.7-1-1.1-1.7-0.9l-1,0.3l-5.2,1.4
		l17.2,18.9C62.9,40.7,63,40.9,63,41z"/>
	<path class="st1" d="M26.6,26.9l-5.5,1.7c-1,0.3-2.1-0.3-2.4-1.4c-0.3-1,0.3-2.1,1.4-2.4l5.5-1.7c1-0.3,2.1,0.3,2.4,1.4
		S27.7,26.6,26.6,26.9z"/>
	<path class="st1" d="M20.8,50.7c-0.6,0.2-1.2-0.2-1.4-0.7c-0.2-0.6,0.1-1.2,0.7-1.4l20-6.7c0.6-0.2,1.2,0.1,1.4,0.7
		c0.2,0.6-0.1,1.2-0.7,1.4L20.8,50.7L20.8,50.7z"/>
	<path class="st1" d="M42.8,51.8L42.8,51.8L22.1,56c-0.6,0.1-1.2-0.3-1.3-0.9c-0.1-0.6,0.3-1.2,0.9-1.3l20.7-4.2
		c0.6-0.1,1.2,0.3,1.3,0.9C43.8,51.1,43.4,51.6,42.8,51.8z"/>
	<path class="st1" d="M55.7,20.3c0.6,1.9-0.7,4-2.7,4.5l-1.2,0.3c-0.3,0.1-0.6,0-0.9-0.1c-0.3-0.1-0.5-0.4-0.5-0.7
		c-0.2-0.6,0.2-1.2,0.8-1.4l1.3-0.3c0.8-0.2,1.1-0.9,0.9-1.7c-0.2-0.7-0.9-1.1-1.6-0.9l-1,0.3l-0.6-2.2l1.1-0.3
		C53.2,17.3,55.1,18.4,55.7,20.3z"/>
	<path class="st1" d="M42.8,51.8c-2.8,0.7-5.6-0.9-6.3-3.7s0.9-5.6,3.7-6.3s5.6,0.9,6.3,3.7S45.6,51.1,42.8,51.8z M40.7,44
		c-1.6,0.4-2.5,2-2.1,3.6s2,2.5,3.6,2.1s2.5-2,2.1-3.6C43.9,44.5,42.3,43.6,40.7,44z"/>
	<path class="st1" d="M22.2,56c-2.1,0.5-4.2-0.7-4.7-2.7c-0.5-2.1,0.7-4.2,2.7-4.7s4.2,0.7,4.7,2.7C25.4,53.3,24.2,55.4,22.2,56z"/>
	<path class="st1" d="M41.5,54.5c-0.1,0-0.2,0-0.3,0c-0.6,0-1.1-0.5-1.1-1.2l0.2-6.7c0-0.6,0.5-1.1,1.2-1.1c0.6,0,1.1,0.5,1.1,1.2
		l-0.2,6.7C42.4,54,42,54.4,41.5,54.5z"/>
</g>
</svg>
