<?xml version="1.0" encoding="utf-8"?>
<!-- Generator: Adobe Illustrator 22.1.0, SVG Export Plug-In . SVG Version: 6.00 Build 0)  -->
<svg version="1.1" id="Layer_1" xmlns="http://www.w3.org/2000/svg" xmlns:xlink="http://www.w3.org/1999/xlink" x="0px" y="0px"
	 viewBox="0 0 400 400" style="enable-background:new 0 0 400 400;" xml:space="preserve">
<style type="text/css">
	.st0{fill:#60025E;}
	.st1{fill:#FFFFFF;}
	.st2{fill:#490A3D;}
	.st3{fill:#1CA49D;stroke:#137A75;stroke-width:3;stroke-miterlimit:10;}
	.st4{fill:#00CDC8;stroke:#137A75;stroke-width:3;stroke-miterlimit:10;}
	.st5{fill:#00CDC8;stroke:#137A75;stroke-width:1.7006;stroke-miterlimit:10;}
	.st6{fill:none;stroke:#137A75;stroke-width:3;stroke-miterlimit:10;}
	.st7{fill:none;stroke:#137A75;stroke-width:3;stroke-linecap:round;stroke-miterlimit:10;}
	.st8{fill:#F24044;stroke:#B3040F;stroke-width:3;stroke-miterlimit:10;}
	.st9{fill:#FC6A6C;stroke:#B3040F;stroke-width:3;stroke-miterlimit:10;}
	.st10{fill:#FC6A6C;stroke:#B3040F;stroke-width:1.7006;stroke-miterlimit:10;}
	.st11{fill:none;stroke:#B3040F;stroke-width:3;stroke-miterlimit:10;}
	.st12{fill:none;stroke:#B3040F;stroke-width:3;stroke-linecap:round;stroke-miterlimit:10;}
	.st13{fill:#8ABB2A;stroke:#69941B;stroke-width:3;stroke-miterlimit:10;}
	.st14{fill:#A5D73C;stroke:#69941B;stroke-width:3;stroke-miterlimit:10;}
	.st15{fill:#A5D73C;stroke:#69941B;stroke-width:1.7006;stroke-miterlimit:10;}
	.st16{fill:none;stroke:#69941B;stroke-width:3;stroke-miterlimit:10;}
	.st17{fill:none;stroke:#69941B;stroke-width:3;stroke-linecap:round;stroke-miterlimit:10;}
</style>
<circle class="st0" cx="200" cy="340.1" r="37.7"/>
<g>
	<path class="st1" d="M197.2,350.6c-0.5-0.6-0.7-1.3-0.7-2.3c0-2.6,0.5-4.8,1.4-6.6c0.9-1.8,2.3-3.8,4.1-5.9
		c1.4-1.7,2.5-3.1,3.1-4.2c0.7-1.1,1-2.4,1-3.8c0-1.6-0.6-2.8-1.7-3.7c-1.2-0.9-2.7-1.4-4.7-1.4c-1.7,0-3.3,0.4-4.9,1.1
		c-1.6,0.7-3.4,1.8-5.5,3.2c-1.2,0.7-2.1,1-2.9,1c-0.8,0-1.5-0.4-2.1-1.1s-0.9-1.6-0.9-2.6c0-1.4,0.6-2.5,1.7-3.3c2-1.7,4.3-3,7-4
		s5.4-1.5,8.1-1.5c2.9,0,5.4,0.5,7.7,1.5c2.2,1,4,2.4,5.2,4.1c1.3,1.7,1.9,3.8,1.9,6c0,2.5-0.6,4.6-1.8,6.4s-2.9,3.9-5.2,6.1
		c-1.9,2-3.4,3.6-4.4,5s-1.6,2.9-1.8,4.6c-0.1,0.8-0.5,1.3-1,1.7c-0.5,0.4-1.1,0.6-1.9,0.6C198.3,351.4,197.7,351.2,197.2,350.6z
		 M195.5,364.8c-1-1-1.5-2.3-1.5-3.8s0.5-2.8,1.5-3.8s2.2-1.5,3.8-1.5c1.5,0,2.8,0.5,3.8,1.5s1.5,2.3,1.5,3.8s-0.5,2.8-1.5,3.8
		s-2.3,1.5-3.7,1.5C197.8,366.3,196.5,365.8,195.5,364.8z"/>
</g>
<g>
	<g>
		<polygon class="st2" points="133.1,102 66.1,102 76,60 138,60 		"/>
	</g>
	<g>
		<polygon class="st1" points="200,102 133.1,102 138,60 200,60 		"/>
	</g>
	<g>
		<polygon class="st2" points="267,102 200,102 200,60 262,60 		"/>
	</g>
	<g>
		<polygon class="st1" points="333.9,102 267,102 262,60 324,60 		"/>
	</g>
	<g>
		<polygon class="st1" points="127.3,151.3 54.5,151.3 66.1,102 133.1,102 		"/>
	</g>
	<g>
		<polygon class="st2" points="200,151.3 127.3,151.3 133.1,102 200,102 		"/>
	</g>
	<g>
		<polygon class="st1" points="272.8,151.3 200,151.3 200,102 267,102 		"/>
	</g>
	<g>
		<polygon class="st2" points="345.5,151.3 272.8,151.3 267,102 333.9,102 		"/>
	</g>
	<g>
		<polygon class="st2" points="120.4,209.9 40.7,209.9 54.5,151.3 127.3,151.3 		"/>
	</g>
	<g>
		<polygon class="st1" points="200,209.9 120.4,209.9 127.3,151.3 200,151.3 		"/>
	</g>
	<g>
		<polygon class="st2" points="279.7,209.9 200,209.9 200,151.3 272.8,151.3 		"/>
	</g>
	<g>
		<polygon class="st1" points="359.3,209.9 279.7,209.9 272.8,151.3 345.5,151.3 		"/>
	</g>
	<g>
		<polygon class="st1" points="112,280.8 24.1,280.8 40.7,209.9 120.4,209.9 		"/>
	</g>
	<g>
		<polygon class="st2" points="200,280.8 112,280.8 120.4,209.9 200,209.9 		"/>
	</g>
	<g>
		<polygon class="st1" points="288,280.8 200,280.8 200,209.9 279.7,209.9 		"/>
	</g>
	<g>
		<polygon class="st2" points="376,280.8 288,280.8 279.7,209.9 359.3,209.9 		"/>
	</g>
</g>
<g>
	<path class="st3" d="M79.2,70.2v10.7c0,5.5,10.8,10,24.2,10c13.3,0,24.2-4.5,24.2-10V70.2H79.2z"/>
	<ellipse class="st4" cx="103.3" cy="70.2" rx="24.2" ry="10"/>
	<ellipse class="st5" cx="103.3" cy="70.2" rx="15.2" ry="5.1"/>
	<line class="st6" x1="124.3" y1="85.4" x2="124.3" y2="85.4"/>
	<g>
		<line class="st7" x1="88" y1="78.1" x2="88" y2="88.3"/>
		<line class="st7" x1="89.9" y1="84.5" x2="89.9" y2="89.1"/>
		<line class="st7" x1="106.7" y1="80" x2="106.7" y2="90.8"/>
		<line class="st7" x1="108.8" y1="79.9" x2="108.8" y2="88.3"/>
		<line class="st7" x1="120.3" y1="87.9" x2="120.3" y2="85.4"/>
		<line class="st7" x1="124.4" y1="85.7" x2="124.4" y2="75.2"/>
	</g>
</g>
<g>
	<path class="st3" d="M274,70.2v10.7c0,5.5,10.8,10,24.2,10c13.3,0,24.2-4.5,24.2-10V70.2H274z"/>
	<ellipse class="st4" cx="298.2" cy="70.2" rx="24.2" ry="10"/>
	<ellipse class="st5" cx="298.2" cy="70.2" rx="15.2" ry="5.1"/>
	<line class="st6" x1="319.2" y1="85.4" x2="319.2" y2="85.4"/>
	<g>
		<line class="st7" x1="282.8" y1="78.1" x2="282.8" y2="88.3"/>
		<line class="st7" x1="284.7" y1="84.5" x2="284.7" y2="89.1"/>
		<line class="st7" x1="301.5" y1="80" x2="301.5" y2="90.8"/>
		<line class="st7" x1="303.6" y1="79.9" x2="303.6" y2="88.3"/>
		<line class="st7" x1="315.1" y1="87.9" x2="315.1" y2="85.4"/>
		<line class="st7" x1="319.2" y1="85.7" x2="319.2" y2="75.2"/>
	</g>
</g>
<g>
	<path class="st3" d="M77.1,56.6v10.7c0,5.5,10.8,10,24.2,10c13.3,0,24.2-4.5,24.2-10V56.6H77.1z"/>
	<ellipse class="st4" cx="101.3" cy="56.6" rx="24.2" ry="10"/>
	<ellipse class="st5" cx="101.3" cy="56.6" rx="15.2" ry="5.1"/>
	<line class="st6" x1="122.3" y1="71.9" x2="122.3" y2="71.9"/>
	<g>
		<line class="st7" x1="86" y1="64.6" x2="86" y2="74.8"/>
		<line class="st7" x1="87.9" y1="71" x2="87.9" y2="75.6"/>
		<line class="st7" x1="104.6" y1="66.5" x2="104.6" y2="77.2"/>
		<line class="st7" x1="106.8" y1="66.3" x2="106.8" y2="74.8"/>
		<line class="st7" x1="118.2" y1="74.4" x2="118.2" y2="71.9"/>
		<line class="st7" x1="122.4" y1="72.2" x2="122.4" y2="61.7"/>
	</g>
</g>
<g>
	<path class="st3" d="M79.2,43.1v10.7c0,5.5,10.8,10,24.2,10c13.3,0,24.2-4.5,24.2-10V43.1H79.2z"/>
	<ellipse class="st4" cx="103.3" cy="43.1" rx="24.2" ry="10"/>
	<ellipse class="st5" cx="103.3" cy="43.1" rx="15.2" ry="5.1"/>
	<line class="st6" x1="124.3" y1="58.3" x2="124.3" y2="58.3"/>
	<g>
		<line class="st7" x1="88" y1="51.1" x2="88" y2="61.3"/>
		<line class="st7" x1="89.9" y1="57.4" x2="89.9" y2="62.1"/>
		<line class="st7" x1="106.7" y1="52.9" x2="106.7" y2="63.7"/>
		<line class="st7" x1="108.8" y1="52.8" x2="108.8" y2="61.3"/>
		<line class="st7" x1="120.3" y1="60.8" x2="120.3" y2="58.3"/>
		<line class="st7" x1="124.4" y1="58.6" x2="124.4" y2="48.1"/>
	</g>
</g>
<g>
	<path class="st3" d="M291.9,174.1v10.7c0,5.5,10.8,10,24.2,10c13.3,0,24.2-4.5,24.2-10v-10.7H291.9z"/>
	<ellipse class="st4" cx="316.1" cy="174.1" rx="24.2" ry="10"/>
	<ellipse class="st5" cx="316.1" cy="174.1" rx="15.2" ry="5.1"/>
	<line class="st6" x1="337.1" y1="189.3" x2="337.1" y2="189.3"/>
	<g>
		<line class="st7" x1="300.8" y1="182.1" x2="300.8" y2="192.2"/>
		<line class="st7" x1="302.7" y1="188.4" x2="302.7" y2="193"/>
		<line class="st7" x1="319.4" y1="183.9" x2="319.4" y2="194.7"/>
		<line class="st7" x1="321.6" y1="183.8" x2="321.6" y2="192.2"/>
		<line class="st7" x1="333" y1="191.8" x2="333" y2="189.3"/>
		<line class="st7" x1="337.1" y1="189.6" x2="337.1" y2="179.1"/>
	</g>
</g>
<g>
	<path class="st3" d="M289.9,160.5v10.7c0,5.5,10.8,10,24.2,10c13.3,0,24.2-4.5,24.2-10v-10.7H289.9z"/>
	<ellipse class="st4" cx="314.1" cy="160.5" rx="24.2" ry="10"/>
	<ellipse class="st5" cx="314.1" cy="160.5" rx="15.2" ry="5.1"/>
	<line class="st6" x1="335.1" y1="175.8" x2="335.1" y2="175.8"/>
	<g>
		<line class="st7" x1="298.8" y1="168.5" x2="298.8" y2="178.7"/>
		<line class="st7" x1="300.6" y1="174.9" x2="300.6" y2="179.5"/>
		<line class="st7" x1="317.4" y1="170.4" x2="317.4" y2="181.1"/>
		<line class="st7" x1="319.5" y1="170.2" x2="319.5" y2="178.7"/>
		<line class="st7" x1="331" y1="178.3" x2="331" y2="175.8"/>
		<line class="st7" x1="335.1" y1="176.1" x2="335.1" y2="165.6"/>
	</g>
</g>
<g>
	<path class="st3" d="M291.9,147v10.7c0,5.5,10.8,10,24.2,10c13.3,0,24.2-4.5,24.2-10V147H291.9z"/>
	<ellipse class="st4" cx="316.1" cy="147" rx="24.2" ry="10"/>
	<ellipse class="st5" cx="316.1" cy="147" rx="15.2" ry="5.1"/>
	<line class="st6" x1="337.1" y1="162.2" x2="337.1" y2="162.2"/>
	<g>
		<line class="st7" x1="300.8" y1="155" x2="300.8" y2="165.2"/>
		<line class="st7" x1="302.7" y1="161.3" x2="302.7" y2="166"/>
		<line class="st7" x1="319.4" y1="156.8" x2="319.4" y2="167.6"/>
		<line class="st7" x1="321.6" y1="156.7" x2="321.6" y2="165.2"/>
		<line class="st7" x1="333" y1="164.7" x2="333" y2="162.2"/>
		<line class="st7" x1="337.1" y1="162.5" x2="337.1" y2="152.1"/>
	</g>
</g>
<g>
	<g>
		<path class="st8" d="M142.4,118.3v10.7c0,5.5,10.8,10,24.2,10c13.3,0,24.2-4.5,24.2-10v-10.7H142.4z"/>
		<ellipse class="st9" cx="166.5" cy="118.3" rx="24.2" ry="10"/>
		<ellipse class="st10" cx="166.5" cy="118.3" rx="15.2" ry="5.1"/>
		<line class="st11" x1="187.6" y1="133.5" x2="187.6" y2="133.5"/>
		<g>
			<line class="st12" x1="151.2" y1="126.3" x2="151.2" y2="136.5"/>
			<line class="st12" x1="153.1" y1="132.6" x2="153.1" y2="137.3"/>
			<line class="st12" x1="169.9" y1="128.1" x2="169.9" y2="138.9"/>
			<line class="st12" x1="172" y1="128" x2="172" y2="136.5"/>
			<line class="st12" x1="183.5" y1="136" x2="183.5" y2="133.5"/>
			<line class="st12" x1="187.6" y1="133.8" x2="187.6" y2="123.4"/>
		</g>
	</g>
	<g>
		<path class="st8" d="M144.6,104.7v10.7c0,5.5,10.8,10,24.2,10c13.3,0,24.2-4.5,24.2-10v-10.7H144.6z"/>
		<ellipse class="st9" cx="168.7" cy="104.7" rx="24.2" ry="10"/>
		<ellipse class="st10" cx="168.7" cy="104.7" rx="15.2" ry="5.1"/>
		<line class="st11" x1="189.7" y1="120" x2="189.7" y2="120"/>
		<g>
			<line class="st12" x1="153.4" y1="112.7" x2="153.4" y2="122.9"/>
			<line class="st12" x1="155.3" y1="119.1" x2="155.3" y2="123.7"/>
			<line class="st12" x1="172" y1="114.6" x2="172" y2="125.4"/>
			<line class="st12" x1="174.2" y1="114.4" x2="174.2" y2="122.9"/>
			<line class="st12" x1="185.6" y1="122.5" x2="185.6" y2="120"/>
			<line class="st12" x1="189.8" y1="120.3" x2="189.8" y2="109.8"/>
		</g>
	</g>
	<g>
		<path class="st8" d="M142.4,91.2v10.7c0,5.5,10.8,10,24.2,10c13.3,0,24.2-4.5,24.2-10V91.2H142.4z"/>
		<ellipse class="st9" cx="166.5" cy="91.2" rx="24.2" ry="10"/>
		<ellipse class="st10" cx="166.5" cy="91.2" rx="15.2" ry="5.1"/>
		<line class="st11" x1="187.6" y1="106.4" x2="187.6" y2="106.4"/>
		<g>
			<line class="st12" x1="151.2" y1="99.2" x2="151.2" y2="109.4"/>
			<line class="st12" x1="153.1" y1="105.6" x2="153.1" y2="110.2"/>
			<line class="st12" x1="169.9" y1="101.1" x2="169.9" y2="111.8"/>
			<line class="st12" x1="172" y1="100.9" x2="172" y2="109.4"/>
			<line class="st12" x1="183.5" y1="109" x2="183.5" y2="106.4"/>
			<line class="st12" x1="187.6" y1="106.7" x2="187.6" y2="96.3"/>
		</g>
	</g>
	<g>
		<path class="st8" d="M141.2,75.9v10.7c0,5.5,10.8,10,24.2,10c13.3,0,24.2-4.5,24.2-10V75.9H141.2z"/>
		<ellipse class="st9" cx="165.4" cy="75.9" rx="24.2" ry="10"/>
		<ellipse class="st10" cx="165.4" cy="75.9" rx="15.2" ry="5.1"/>
		<line class="st11" x1="186.4" y1="91.2" x2="186.4" y2="91.2"/>
		<g>
			<line class="st12" x1="150.1" y1="83.9" x2="150.1" y2="94.1"/>
			<line class="st12" x1="151.9" y1="90.3" x2="151.9" y2="94.9"/>
			<line class="st12" x1="168.7" y1="85.8" x2="168.7" y2="96.5"/>
			<line class="st12" x1="170.8" y1="85.6" x2="170.8" y2="94.1"/>
			<line class="st12" x1="182.3" y1="93.7" x2="182.3" y2="91.2"/>
			<line class="st12" x1="186.4" y1="91.5" x2="186.4" y2="81"/>
		</g>
	</g>
</g>
<g>
	<g>
		<path class="st8" d="M219.4,241.3V252c0,5.5,10.8,10,24.2,10c13.3,0,24.2-4.5,24.2-10v-10.7H219.4z"/>
		<ellipse class="st9" cx="243.5" cy="241.3" rx="24.2" ry="10"/>
		<ellipse class="st10" cx="243.5" cy="241.3" rx="15.2" ry="5.1"/>
		<line class="st11" x1="264.5" y1="256.5" x2="264.5" y2="256.5"/>
		<g>
			<line class="st12" x1="228.2" y1="249.3" x2="228.2" y2="259.5"/>
			<line class="st12" x1="230.1" y1="255.7" x2="230.1" y2="260.3"/>
			<line class="st12" x1="246.8" y1="251.2" x2="246.8" y2="261.9"/>
			<line class="st12" x1="249" y1="251" x2="249" y2="259.5"/>
			<line class="st12" x1="260.4" y1="259.1" x2="260.4" y2="256.5"/>
			<line class="st12" x1="264.6" y1="256.8" x2="264.6" y2="246.4"/>
		</g>
	</g>
	<g>
		<path class="st8" d="M221.5,227.8v10.7c0,5.5,10.8,10,24.2,10c13.3,0,24.2-4.5,24.2-10v-10.7H221.5z"/>
		<ellipse class="st9" cx="245.7" cy="227.8" rx="24.2" ry="10"/>
		<ellipse class="st10" cx="245.7" cy="227.8" rx="15.2" ry="5.1"/>
		<line class="st11" x1="266.7" y1="243" x2="266.7" y2="243"/>
		<g>
			<line class="st12" x1="230.4" y1="235.8" x2="230.4" y2="245.9"/>
			<line class="st12" x1="232.3" y1="242.1" x2="232.3" y2="246.7"/>
			<line class="st12" x1="249" y1="237.6" x2="249" y2="248.4"/>
			<line class="st12" x1="251.2" y1="237.5" x2="251.2" y2="245.9"/>
			<line class="st12" x1="262.6" y1="245.5" x2="262.6" y2="243"/>
			<line class="st12" x1="266.7" y1="243.3" x2="266.7" y2="232.8"/>
		</g>
	</g>
	<g>
		<path class="st8" d="M219.4,214.2v10.7c0,5.5,10.8,10,24.2,10c13.3,0,24.2-4.5,24.2-10v-10.7H219.4z"/>
		<ellipse class="st9" cx="243.5" cy="214.2" rx="24.2" ry="10"/>
		<ellipse class="st10" cx="243.5" cy="214.2" rx="15.2" ry="5.1"/>
		<line class="st11" x1="264.5" y1="229.5" x2="264.5" y2="229.5"/>
		<g>
			<line class="st12" x1="228.2" y1="222.2" x2="228.2" y2="232.4"/>
			<line class="st12" x1="230.1" y1="228.6" x2="230.1" y2="233.2"/>
			<line class="st12" x1="246.8" y1="224.1" x2="246.8" y2="234.8"/>
			<line class="st12" x1="249" y1="223.9" x2="249" y2="232.4"/>
			<line class="st12" x1="260.4" y1="232" x2="260.4" y2="229.5"/>
			<line class="st12" x1="264.6" y1="229.8" x2="264.6" y2="219.3"/>
		</g>
	</g>
	<g>
		<path class="st8" d="M218.2,198.9v10.7c0,5.5,10.8,10,24.2,10c13.3,0,24.2-4.5,24.2-10v-10.7H218.2z"/>
		<ellipse class="st9" cx="242.3" cy="198.9" rx="24.2" ry="10"/>
		<ellipse class="st10" cx="242.3" cy="198.9" rx="15.2" ry="5.1"/>
		<line class="st11" x1="263.3" y1="214.2" x2="263.3" y2="214.2"/>
		<g>
			<line class="st12" x1="227" y1="206.9" x2="227" y2="217.1"/>
			<line class="st12" x1="228.9" y1="213.3" x2="228.9" y2="217.9"/>
			<line class="st12" x1="245.7" y1="208.8" x2="245.7" y2="219.6"/>
			<line class="st12" x1="247.8" y1="208.6" x2="247.8" y2="217.1"/>
			<line class="st12" x1="259.3" y1="216.7" x2="259.3" y2="214.2"/>
			<line class="st12" x1="263.4" y1="214.5" x2="263.4" y2="204"/>
		</g>
	</g>
	<g>
		<path class="st8" d="M215.1,184.9v10.7c0,5.5,10.8,10,24.2,10c13.3,0,24.2-4.5,24.2-10v-10.7H215.1z"/>
		<ellipse class="st9" cx="239.2" cy="184.9" rx="24.2" ry="10"/>
		<ellipse class="st10" cx="239.2" cy="184.9" rx="15.2" ry="5.1"/>
		<line class="st11" x1="260.3" y1="200.2" x2="260.3" y2="200.2"/>
		<g>
			<line class="st12" x1="223.9" y1="192.9" x2="223.9" y2="203.1"/>
			<line class="st12" x1="225.8" y1="199.3" x2="225.8" y2="203.9"/>
			<line class="st12" x1="242.6" y1="194.8" x2="242.6" y2="205.6"/>
			<line class="st12" x1="244.7" y1="194.6" x2="244.7" y2="203.1"/>
			<line class="st12" x1="256.2" y1="202.7" x2="256.2" y2="200.2"/>
			<line class="st12" x1="260.3" y1="200.5" x2="260.3" y2="190"/>
		</g>
	</g>
	<g>
		<path class="st8" d="M218.4,169.6v10.7c0,5.5,10.8,10,24.2,10c13.3,0,24.2-4.5,24.2-10v-10.7H218.4z"/>
		<ellipse class="st9" cx="242.6" cy="169.6" rx="24.2" ry="10"/>
		<ellipse class="st10" cx="242.6" cy="169.6" rx="15.2" ry="5.1"/>
		<line class="st11" x1="263.6" y1="184.9" x2="263.6" y2="184.9"/>
		<g>
			<line class="st12" x1="227.3" y1="177.6" x2="227.3" y2="187.8"/>
			<line class="st12" x1="229.1" y1="184" x2="229.1" y2="188.6"/>
			<line class="st12" x1="245.9" y1="179.5" x2="245.9" y2="190.3"/>
			<line class="st12" x1="248" y1="179.3" x2="248" y2="187.8"/>
			<line class="st12" x1="259.5" y1="187.4" x2="259.5" y2="184.9"/>
			<line class="st12" x1="263.6" y1="185.2" x2="263.6" y2="174.7"/>
		</g>
	</g>
</g>
<g>
	<g>
		<path class="st13" d="M260.8,118.3v10.7c0,5.5-10.8,10-24.2,10c-13.3,0-24.2-4.5-24.2-10v-10.7H260.8z"/>
		<ellipse class="st14" cx="236.7" cy="118.3" rx="24.2" ry="10"/>
		<ellipse class="st15" cx="236.7" cy="118.3" rx="15.2" ry="5.1"/>
		<line class="st16" x1="215.7" y1="133.5" x2="215.7" y2="133.5"/>
		<g>
			<line class="st17" x1="252" y1="126.3" x2="252" y2="136.5"/>
			<line class="st17" x1="250.1" y1="132.6" x2="250.1" y2="137.3"/>
			<line class="st17" x1="233.4" y1="128.1" x2="233.4" y2="138.9"/>
			<line class="st17" x1="231.2" y1="128" x2="231.2" y2="136.5"/>
			<line class="st17" x1="219.8" y1="136" x2="219.8" y2="133.5"/>
			<line class="st17" x1="215.6" y1="133.8" x2="215.6" y2="123.4"/>
		</g>
	</g>
	<g>
		<path class="st13" d="M258.7,104.7v10.7c0,5.5-10.8,10-24.2,10c-13.3,0-24.2-4.5-24.2-10v-10.7H258.7z"/>
		<ellipse class="st14" cx="234.5" cy="104.7" rx="24.2" ry="10"/>
		<ellipse class="st15" cx="234.5" cy="104.7" rx="15.2" ry="5.1"/>
		<line class="st16" x1="213.5" y1="120" x2="213.5" y2="120"/>
		<g>
			<line class="st17" x1="249.8" y1="112.7" x2="249.8" y2="122.9"/>
			<line class="st17" x1="247.9" y1="119.1" x2="247.9" y2="123.7"/>
			<line class="st17" x1="231.2" y1="114.6" x2="231.2" y2="125.4"/>
			<line class="st17" x1="229" y1="114.4" x2="229" y2="122.9"/>
			<line class="st17" x1="217.6" y1="122.5" x2="217.6" y2="120"/>
			<line class="st17" x1="213.5" y1="120.3" x2="213.5" y2="109.8"/>
		</g>
	</g>
	<g>
		<path class="st13" d="M260.8,91.2v10.7c0,5.5-10.8,10-24.2,10c-13.3,0-24.2-4.5-24.2-10V91.2H260.8z"/>
		<ellipse class="st14" cx="236.7" cy="91.2" rx="24.2" ry="10"/>
		<ellipse class="st15" cx="236.7" cy="91.2" rx="15.2" ry="5.1"/>
		<line class="st16" x1="215.7" y1="106.4" x2="215.7" y2="106.4"/>
		<g>
			<line class="st17" x1="252" y1="99.2" x2="252" y2="109.4"/>
			<line class="st17" x1="250.1" y1="105.6" x2="250.1" y2="110.2"/>
			<line class="st17" x1="233.4" y1="101.1" x2="233.4" y2="111.8"/>
			<line class="st17" x1="231.2" y1="100.9" x2="231.2" y2="109.4"/>
			<line class="st17" x1="219.8" y1="109" x2="219.8" y2="106.4"/>
			<line class="st17" x1="215.6" y1="106.7" x2="215.6" y2="96.3"/>
		</g>
	</g>
	<g>
		<path class="st13" d="M262,75.9v10.7c0,5.5-10.8,10-24.2,10c-13.3,0-24.2-4.5-24.2-10V75.9H262z"/>
		<ellipse class="st14" cx="237.9" cy="75.9" rx="24.2" ry="10"/>
		<ellipse class="st15" cx="237.9" cy="75.9" rx="15.2" ry="5.1"/>
		<line class="st16" x1="216.8" y1="91.2" x2="216.8" y2="91.2"/>
		<g>
			<line class="st17" x1="253.2" y1="83.9" x2="253.2" y2="94.1"/>
			<line class="st17" x1="251.3" y1="90.3" x2="251.3" y2="94.9"/>
			<line class="st17" x1="234.5" y1="85.8" x2="234.5" y2="96.5"/>
			<line class="st17" x1="232.4" y1="85.6" x2="232.4" y2="94.1"/>
			<line class="st17" x1="220.9" y1="93.7" x2="220.9" y2="91.2"/>
			<line class="st17" x1="216.8" y1="91.5" x2="216.8" y2="81"/>
		</g>
	</g>
</g>
<g>
	<g>
		<path class="st13" d="M100.7,241.3V252c0,5.5-10.8,10-24.2,10c-13.3,0-24.2-4.5-24.2-10v-10.7H100.7z"/>
		<ellipse class="st14" cx="76.6" cy="241.3" rx="24.2" ry="10"/>
		<ellipse class="st15" cx="76.6" cy="241.3" rx="15.2" ry="5.1"/>
		<line class="st16" x1="55.5" y1="256.5" x2="55.5" y2="256.5"/>
		<g>
			<line class="st17" x1="91.9" y1="249.3" x2="91.9" y2="259.5"/>
			<line class="st17" x1="90" y1="255.7" x2="90" y2="260.3"/>
			<line class="st17" x1="73.2" y1="251.2" x2="73.2" y2="261.9"/>
			<line class="st17" x1="71.1" y1="251" x2="71.1" y2="259.5"/>
			<line class="st17" x1="59.6" y1="259.1" x2="59.6" y2="256.5"/>
			<line class="st17" x1="55.5" y1="256.8" x2="55.5" y2="246.4"/>
		</g>
	</g>
	<g>
		<path class="st13" d="M98.5,227.8v10.7c0,5.5-10.8,10-24.2,10c-13.3,0-24.2-4.5-24.2-10v-10.7H98.5z"/>
		<ellipse class="st14" cx="74.4" cy="227.8" rx="24.2" ry="10"/>
		<ellipse class="st15" cx="74.4" cy="227.8" rx="15.2" ry="5.1"/>
		<line class="st16" x1="53.4" y1="243" x2="53.4" y2="243"/>
		<g>
			<line class="st17" x1="89.7" y1="235.8" x2="89.7" y2="245.9"/>
			<line class="st17" x1="87.8" y1="242.1" x2="87.8" y2="246.7"/>
			<line class="st17" x1="71.1" y1="237.6" x2="71.1" y2="248.4"/>
			<line class="st17" x1="68.9" y1="237.5" x2="68.9" y2="245.9"/>
			<line class="st17" x1="57.5" y1="245.5" x2="57.5" y2="243"/>
			<line class="st17" x1="53.3" y1="243.3" x2="53.3" y2="232.8"/>
		</g>
	</g>
	<g>
		<path class="st13" d="M100.7,214.2v10.7c0,5.5-10.8,10-24.2,10c-13.3,0-24.2-4.5-24.2-10v-10.7H100.7z"/>
		<ellipse class="st14" cx="76.6" cy="214.2" rx="24.2" ry="10"/>
		<ellipse class="st15" cx="76.6" cy="214.2" rx="15.2" ry="5.1"/>
		<line class="st16" x1="55.5" y1="229.5" x2="55.5" y2="229.5"/>
		<g>
			<line class="st17" x1="91.9" y1="222.2" x2="91.9" y2="232.4"/>
			<line class="st17" x1="90" y1="228.6" x2="90" y2="233.2"/>
			<line class="st17" x1="73.2" y1="224.1" x2="73.2" y2="234.8"/>
			<line class="st17" x1="71.1" y1="223.9" x2="71.1" y2="232.4"/>
			<line class="st17" x1="59.6" y1="232" x2="59.6" y2="229.5"/>
			<line class="st17" x1="55.5" y1="229.8" x2="55.5" y2="219.3"/>
		</g>
	</g>
	<g>
		<path class="st13" d="M101.9,198.9v10.7c0,5.5-10.8,10-24.2,10c-13.3,0-24.2-4.5-24.2-10v-10.7H101.9z"/>
		<ellipse class="st14" cx="77.7" cy="198.9" rx="24.2" ry="10"/>
		<ellipse class="st15" cx="77.7" cy="198.9" rx="15.2" ry="5.1"/>
		<line class="st16" x1="56.7" y1="214.2" x2="56.7" y2="214.2"/>
		<g>
			<line class="st17" x1="93" y1="206.9" x2="93" y2="217.1"/>
			<line class="st17" x1="91.2" y1="213.3" x2="91.2" y2="217.9"/>
			<line class="st17" x1="74.4" y1="208.8" x2="74.4" y2="219.6"/>
			<line class="st17" x1="72.3" y1="208.6" x2="72.3" y2="217.1"/>
			<line class="st17" x1="60.8" y1="216.7" x2="60.8" y2="214.2"/>
			<line class="st17" x1="56.7" y1="214.5" x2="56.7" y2="204"/>
		</g>
	</g>
</g>
<g>
	<g>
		<path class="st13" d="M137.1,172.3V183c0,5.5,10.8,10,24.2,10c13.3,0,24.2-4.5,24.2-10v-10.7H137.1z"/>
		<ellipse class="st14" cx="161.2" cy="172.3" rx="24.2" ry="10"/>
		<ellipse class="st15" cx="161.2" cy="172.3" rx="15.2" ry="5.1"/>
		<line class="st16" x1="182.2" y1="187.6" x2="182.2" y2="187.6"/>
		<g>
			<line class="st17" x1="145.9" y1="180.3" x2="145.9" y2="190.5"/>
			<line class="st17" x1="147.8" y1="186.7" x2="147.8" y2="191.3"/>
			<line class="st17" x1="164.5" y1="182.2" x2="164.5" y2="192.9"/>
			<line class="st17" x1="166.7" y1="182" x2="166.7" y2="190.5"/>
			<line class="st17" x1="178.1" y1="190.1" x2="178.1" y2="187.6"/>
			<line class="st17" x1="182.3" y1="187.9" x2="182.3" y2="177.4"/>
		</g>
	</g>
	<g>
		<path class="st13" d="M135,158.8v10.7c0,5.5,10.8,10,24.2,10c13.3,0,24.2-4.5,24.2-10v-10.7H135z"/>
		<ellipse class="st14" cx="159.2" cy="158.8" rx="24.2" ry="10"/>
		<ellipse class="st15" cx="159.2" cy="158.8" rx="15.2" ry="5.1"/>
		<line class="st16" x1="180.2" y1="174" x2="180.2" y2="174"/>
		<g>
			<line class="st17" x1="143.9" y1="166.8" x2="143.9" y2="177"/>
			<line class="st17" x1="145.8" y1="173.1" x2="145.8" y2="177.8"/>
			<line class="st17" x1="162.5" y1="168.6" x2="162.5" y2="179.4"/>
			<line class="st17" x1="164.7" y1="168.5" x2="164.7" y2="177"/>
			<line class="st17" x1="176.1" y1="176.5" x2="176.1" y2="174"/>
			<line class="st17" x1="180.2" y1="174.3" x2="180.2" y2="163.8"/>
		</g>
	</g>
	<g>
		<path class="st13" d="M137.1,145.2v10.7c0,5.5,10.8,10,24.2,10c13.3,0,24.2-4.5,24.2-10v-10.7H137.1z"/>
		<ellipse class="st14" cx="161.2" cy="145.2" rx="24.2" ry="10"/>
		<ellipse class="st15" cx="161.2" cy="145.2" rx="15.2" ry="5.1"/>
		<line class="st16" x1="182.2" y1="160.5" x2="182.2" y2="160.5"/>
		<g>
			<line class="st17" x1="145.9" y1="153.2" x2="145.9" y2="163.4"/>
			<line class="st17" x1="147.8" y1="159.6" x2="147.8" y2="164.2"/>
			<line class="st17" x1="164.5" y1="155.1" x2="164.5" y2="165.9"/>
			<line class="st17" x1="166.7" y1="154.9" x2="166.7" y2="163.4"/>
			<line class="st17" x1="178.1" y1="163" x2="178.1" y2="160.5"/>
			<line class="st17" x1="182.3" y1="160.8" x2="182.3" y2="150.3"/>
		</g>
	</g>
</g>
</svg>
