<?xml version="1.0" encoding="utf-8"?>
<!-- Generator: Adobe Illustrator 22.1.0, SVG Export Plug-In . SVG Version: 6.00 Build 0)  -->
<svg version="1.1" id="Layer_1" xmlns="http://www.w3.org/2000/svg" xmlns:xlink="http://www.w3.org/1999/xlink" x="0px" y="0px"
	 viewBox="0 0 80.6 80.6" style="enable-background:new 0 0 80.6 80.6;" xml:space="preserve">
<style type="text/css">
	.st0{fill:#490A3D;}
	.st1{fill:#2F0026;}
	.st2{fill:#FFFFFF;}
	.st3{fill:#CECECE;}
	.st4{fill:#A5D73C;stroke:#69941B;stroke-width:1.1;stroke-miterlimit:10;}
	.st5{fill:#00CDC8;stroke:#1CA49D;stroke-width:1.1;stroke-miterlimit:10;}
	.st6{fill:#FC6A6C;stroke:#B3040F;stroke-width:1.1;stroke-miterlimit:10;}
</style>
<g>
	<g>
		<g>
			<g>
				<rect x="2.7" y="2.7" class="st0" width="18" height="18"/>
				<path class="st1" d="M20.3,3.2v17h-17v-17H20.3 M21.3,2.2h-19v19h19V2.2L21.3,2.2z"/>
			</g>
			<g>
				<rect x="21.8" y="2.7" class="st2" width="18" height="18"/>
				<g>
					<path class="st3" d="M39.3,3.2v17h-17v-17H39.3 M40.3,2.2h-19v19h19V2.2L40.3,2.2z"/>
				</g>
			</g>
			<g>
				<rect x="40.8" y="2.7" class="st0" width="18" height="18"/>
				<path class="st1" d="M58.3,3.2v17h-17v-17H58.3 M59.3,2.2h-19v19h19V2.2L59.3,2.2z"/>
			</g>
			<g>
				<rect x="59.8" y="2.7" class="st2" width="18" height="18"/>
				<g>
					<path class="st3" d="M77.4,3.2v17h-17v-17H77.4 M78.4,2.2h-19v19h19V2.2L78.4,2.2z"/>
				</g>
			</g>
			<g>
				<rect x="2.7" y="21.8" class="st2" width="18" height="18"/>
				<g>
					<path class="st3" d="M20.3,22.3v17h-17v-17H20.3 M21.3,21.3h-19v19h19V21.3L21.3,21.3z"/>
				</g>
			</g>
			<g>
				<rect x="21.8" y="21.8" class="st0" width="18" height="18"/>
				<path class="st1" d="M39.3,22.3v17h-17v-17H39.3 M40.3,21.3h-19v19h19V21.3L40.3,21.3z"/>
			</g>
			<g>
				<rect x="40.8" y="21.8" class="st2" width="18" height="18"/>
				<g>
					<path class="st3" d="M58.3,22.3v17h-17v-17H58.3 M59.3,21.3h-19v19h19V21.3L59.3,21.3z"/>
				</g>
			</g>
			<g>
				<rect x="59.8" y="21.8" class="st0" width="18" height="18"/>
				<path class="st1" d="M77.4,22.3v17h-17v-17H77.4 M78.4,21.3h-19v19h19V21.3L78.4,21.3z"/>
			</g>
			<g>
				<rect x="2.7" y="40.8" class="st0" width="18" height="18"/>
				<path class="st1" d="M20.3,41.3v17h-17v-17H20.3 M21.3,40.3h-19v19h19V40.3L21.3,40.3z"/>
			</g>
			<g>
				<rect x="21.8" y="40.8" class="st2" width="18" height="18"/>
				<g>
					<path class="st3" d="M39.3,41.3v17h-17v-17H39.3 M40.3,40.3h-19v19h19V40.3L40.3,40.3z"/>
				</g>
			</g>
			<g>
				<rect x="40.8" y="40.8" class="st0" width="18" height="18"/>
				<path class="st1" d="M58.3,41.3v17h-17v-17H58.3 M59.3,40.3h-19v19h19V40.3L59.3,40.3z"/>
			</g>
			<g>
				<rect x="59.8" y="40.8" class="st2" width="18" height="18"/>
				<g>
					<path class="st3" d="M77.4,41.3v17h-17v-17H77.4 M78.4,40.3h-19v19h19V40.3L78.4,40.3z"/>
				</g>
			</g>
			<g>
				<rect x="2.7" y="59.8" class="st2" width="18" height="18"/>
				<g>
					<path class="st3" d="M20.3,60.3v17h-17v-17H20.3 M21.3,59.3h-19v19h19V59.3L21.3,59.3z"/>
				</g>
			</g>
			<g>
				<rect x="21.8" y="59.8" class="st0" width="18" height="18"/>
				<path class="st1" d="M39.3,60.3v17h-17v-17H39.3 M40.3,59.3h-19v19h19V59.3L40.3,59.3z"/>
			</g>
			<g>
				<rect x="40.8" y="59.8" class="st2" width="18" height="18"/>
				<g>
					<path class="st3" d="M58.3,60.3v17h-17v-17H58.3 M59.3,59.3h-19v19h19V59.3L59.3,59.3z"/>
				</g>
			</g>
			<g>
				<rect x="59.8" y="59.8" class="st0" width="18" height="18"/>
				<path class="st1" d="M77.4,60.3v17h-17v-17H77.4 M78.4,59.3h-19v19h19V59.3L78.4,59.3z"/>
			</g>
		</g>
	</g>
	<g>
		<circle class="st4" cx="30.8" cy="49.8" r="8.2"/>
		<circle class="st5" cx="68.9" cy="49.7" r="8.2"/>
		<g>
			<path class="st0" d="M34.9,51.9c0,0.6-0.1,1.1-0.4,1.6c-0.2,0.4-0.6,0.8-1,1.1c-0.4,0.3-0.8,0.5-1.3,0.6c-0.5,0.1-1,0.2-1.5,0.2
				c-0.5,0-1-0.1-1.5-0.2c-0.5-0.1-0.9-0.3-1.3-0.5s-0.7-0.5-1-0.9c-0.3-0.4-0.5-0.8-0.7-1.3l2.4-0.6c0.1,0.4,0.3,0.7,0.6,1
				c0.3,0.3,0.7,0.4,1.2,0.4c0.2,0,0.4,0,0.6-0.1c0.2-0.1,0.4-0.1,0.5-0.2c0.2-0.1,0.3-0.3,0.4-0.4c0.1-0.2,0.1-0.4,0.1-0.7
				c0-0.3-0.1-0.5-0.2-0.7c-0.1-0.2-0.3-0.3-0.5-0.4s-0.5-0.2-0.7-0.2s-0.5-0.1-0.8-0.1h-0.7v-1.9H30c0.2,0,0.5,0,0.7-0.1
				c0.2,0,0.4-0.1,0.6-0.2s0.3-0.2,0.4-0.4s0.2-0.4,0.2-0.7c0-0.4-0.1-0.7-0.4-0.9c-0.3-0.2-0.6-0.3-1-0.3c-0.4,0-0.7,0.1-1,0.3
				c-0.3,0.2-0.5,0.5-0.5,0.9l-2.4-0.6c0.1-0.5,0.3-0.9,0.6-1.2c0.3-0.3,0.6-0.6,1-0.9c0.4-0.2,0.8-0.4,1.2-0.5
				c0.4-0.1,0.9-0.2,1.3-0.2c0.5,0,1,0.1,1.4,0.2c0.5,0.1,0.9,0.3,1.2,0.6c0.4,0.3,0.7,0.6,0.9,1c0.2,0.4,0.3,0.9,0.3,1.4
				c0,0.6-0.2,1.1-0.5,1.6c-0.3,0.4-0.8,0.7-1.3,0.9v0c0.3,0.1,0.6,0.2,0.9,0.4c0.3,0.2,0.5,0.4,0.7,0.6c0.2,0.2,0.3,0.5,0.4,0.7
				C34.8,51.3,34.9,51.6,34.9,51.9z"/>
		</g>
		<circle class="st6" cx="49.7" cy="68.8" r="8.2"/>
		<g>
			<path class="st0" d="M54.5,70.4c0,0.6-0.1,1.2-0.3,1.7c-0.2,0.5-0.5,0.9-0.9,1.3s-0.9,0.6-1.4,0.8s-1.1,0.3-1.7,0.3
				c-0.6,0-1.2-0.1-1.7-0.3c-0.5-0.2-1-0.4-1.4-0.8s-0.7-0.8-0.9-1.2c-0.2-0.5-0.3-1-0.3-1.6c0-0.7,0.1-1.3,0.3-1.8
				c0.2-0.5,0.5-1.1,0.9-1.6l2.7-4h3.2l-2.7,3.8l0,0.1c0.1,0,0.2-0.1,0.4-0.1s0.3,0,0.4,0c0.5,0,0.9,0.1,1.4,0.3s0.8,0.4,1.2,0.7
				c0.3,0.3,0.6,0.7,0.8,1.1C54.4,69.3,54.5,69.8,54.5,70.4z M51.9,70.4c0-0.5-0.2-0.9-0.5-1.2s-0.7-0.5-1.3-0.5
				c-0.5,0-0.9,0.2-1.3,0.5c-0.3,0.3-0.5,0.7-0.5,1.3c0,0.5,0.2,0.9,0.5,1.2s0.7,0.5,1.3,0.5c0.5,0,0.9-0.2,1.3-0.5
				C51.8,71.4,51.9,71,51.9,70.4z"/>
		</g>
		<circle class="st4" cx="49.8" cy="30.7" r="8.2"/>
		<circle class="st6" cx="30.8" cy="30.8" r="8.2"/>
		<g>
			<path class="st0" d="M53.2,33.8V36h-2.5v-2.2h-5.2v-2.2l4.5-6.7h3.1v6.8h1.5v2.1H53.2z M50.8,27.6L50.8,27.6l-2.7,4.1h2.7V27.6z"
				/>
		</g>
		<g>
			<path class="st0" d="M72.9,51.9c0,0.6-0.1,1.1-0.4,1.6c-0.2,0.4-0.6,0.8-1,1.1s-0.8,0.5-1.3,0.6c-0.5,0.1-1,0.2-1.5,0.2
				c-0.5,0-1-0.1-1.5-0.2c-0.5-0.1-0.9-0.3-1.3-0.5c-0.4-0.2-0.7-0.5-1-0.9c-0.3-0.4-0.5-0.8-0.7-1.3l2.4-0.6c0.1,0.4,0.3,0.7,0.6,1
				c0.3,0.3,0.7,0.4,1.2,0.4c0.2,0,0.4,0,0.6-0.1c0.2-0.1,0.4-0.1,0.5-0.2c0.2-0.1,0.3-0.3,0.4-0.4c0.1-0.2,0.1-0.4,0.1-0.7
				c0-0.3-0.1-0.5-0.2-0.7c-0.1-0.2-0.3-0.3-0.5-0.4c-0.2-0.1-0.5-0.2-0.7-0.2c-0.3,0-0.5-0.1-0.8-0.1h-0.7v-1.9H68
				c0.2,0,0.5,0,0.7-0.1c0.2,0,0.4-0.1,0.6-0.2c0.2-0.1,0.3-0.2,0.4-0.4s0.2-0.4,0.2-0.7c0-0.4-0.1-0.7-0.4-0.9
				c-0.3-0.2-0.6-0.3-1-0.3c-0.4,0-0.7,0.1-1,0.3c-0.3,0.2-0.5,0.5-0.5,0.9l-2.4-0.6c0.1-0.5,0.3-0.9,0.6-1.2c0.3-0.3,0.6-0.6,1-0.9
				c0.4-0.2,0.8-0.4,1.2-0.5c0.4-0.1,0.9-0.2,1.3-0.2c0.5,0,1,0.1,1.4,0.2c0.5,0.1,0.9,0.3,1.2,0.6s0.7,0.6,0.9,1
				c0.2,0.4,0.3,0.9,0.3,1.4c0,0.6-0.2,1.1-0.5,1.6c-0.3,0.4-0.8,0.7-1.3,0.9v0c0.3,0.1,0.6,0.2,0.9,0.4c0.3,0.2,0.5,0.4,0.7,0.6
				c0.2,0.2,0.3,0.5,0.4,0.7C72.9,51.3,72.9,51.6,72.9,51.9z"/>
		</g>
		<g>
			<path class="st0" d="M33.8,33.8V36h-2.5v-2.2h-5.2v-2.2l4.5-6.7h3.1v6.8h1.5v2.1H33.8z M31.3,27.6L31.3,27.6l-2.7,4.1h2.7V27.6z"
				/>
		</g>
		<circle class="st5" cx="11.7" cy="11.7" r="8.2"/>
		<g>
			<path class="st0" d="M15.7,13.9c0,0.6-0.1,1.1-0.4,1.6c-0.2,0.4-0.6,0.8-1,1.1C14,16.8,13.5,17,13,17.2c-0.5,0.1-1,0.2-1.5,0.2
				c-0.5,0-1-0.1-1.5-0.2c-0.5-0.1-0.9-0.3-1.3-0.5s-0.7-0.5-1-0.9c-0.3-0.4-0.5-0.8-0.7-1.3l2.4-0.6c0.1,0.4,0.3,0.7,0.6,1
				c0.3,0.3,0.7,0.4,1.2,0.4c0.2,0,0.4,0,0.6-0.1c0.2-0.1,0.4-0.1,0.5-0.2c0.2-0.1,0.3-0.3,0.4-0.4c0.1-0.2,0.1-0.4,0.1-0.7
				c0-0.3-0.1-0.5-0.2-0.7c-0.1-0.2-0.3-0.3-0.5-0.4s-0.5-0.2-0.7-0.2c-0.3,0-0.5-0.1-0.8-0.1h-0.7v-1.9h0.8c0.2,0,0.5,0,0.7-0.1
				s0.4-0.1,0.6-0.2s0.3-0.2,0.4-0.4c0.1-0.2,0.2-0.4,0.2-0.7c0-0.4-0.1-0.7-0.4-0.9c-0.3-0.2-0.6-0.3-1-0.3c-0.4,0-0.7,0.1-1,0.3
				C10.1,8.4,10,8.7,9.9,9.1L7.4,8.6C7.6,8.1,7.8,7.7,8,7.3C8.3,7,8.6,6.7,9,6.5C9.4,6.2,9.8,6,10.2,5.9s0.9-0.2,1.3-0.2
				c0.5,0,1,0.1,1.4,0.2c0.5,0.1,0.9,0.3,1.2,0.6c0.4,0.3,0.7,0.6,0.9,1c0.2,0.4,0.3,0.9,0.3,1.4c0,0.6-0.2,1.1-0.5,1.6
				c-0.3,0.4-0.8,0.7-1.3,0.9v0c0.3,0.1,0.6,0.2,0.9,0.4c0.3,0.2,0.5,0.4,0.7,0.6c0.2,0.2,0.3,0.5,0.4,0.7
				C15.7,13.3,15.7,13.6,15.7,13.9z"/>
		</g>
		<circle class="st4" cx="11.7" cy="68.8" r="8.2"/>
		<g>
			<path class="st0" d="M14.5,71.9v2.2h-2.5v-2.2H6.9v-2.2l4.5-6.7h3.1v6.8h1.5v2.1H14.5z M12.1,65.7L12.1,65.7l-2.7,4.1h2.7V65.7z"
				/>
		</g>
		<circle class="st5" cx="68.9" cy="11.9" r="8.2"/>
		<g>
			<path class="st0" d="M68.1,17.3V9.1L66,10.7l-1.4-1.9l3.6-2.7h2.4v11.1H68.1z"/>
		</g>
	</g>
</g>
</svg>
