<?xml version="1.0" encoding="utf-8"?>
<!-- Generator: Adobe Illustrator 22.1.0, SVG Export Plug-In . SVG Version: 6.00 Build 0)  -->
<svg version="1.1" id="Layer_1" xmlns="http://www.w3.org/2000/svg" xmlns:xlink="http://www.w3.org/1999/xlink" x="0px" y="0px"
	 viewBox="0 0 50 50" style="enable-background:new 0 0 50 50;" xml:space="preserve">
<style type="text/css">
	.st0{fill:#231F20;}
	.st1{fill:#FFFFFF;}
</style>
<g>
	<path class="st0" d="M18,46.9c-0.1,0-0.2,0-0.2,0c-0.3-0.1-0.6-0.3-0.7-0.7L3.1,4.4C2.9,4,3,3.6,3.3,3.3C3.5,3.2,3.7,3.1,4,3.1
		c0.1,0,0.2,0,0.3,0.1l42,14c0.3,0.1,0.6,0.4,0.7,0.7c0.1,0.3,0,0.7-0.3,0.9l-28,27.9C18.5,46.8,18.3,46.9,18,46.9z"/>
	<path class="st1" d="M4,4.1l42,14L18,45.9L4,4.1 M4,2.1c-0.5,0-1,0.2-1.4,0.6C2,3.2,1.9,4,2.1,4.7l14,41.9c0.2,0.7,0.8,1.2,1.4,1.3
		c0.2,0,0.3,0.1,0.5,0.1c0.5,0,1-0.2,1.4-0.6l28-27.9c0.5-0.5,0.7-1.2,0.5-1.9c-0.2-0.7-0.7-1.2-1.3-1.4l-42-14
		C4.4,2.1,4.2,2.1,4,2.1L4,2.1z"/>
</g>
</svg>
