<?xml version="1.0" encoding="utf-8"?>
<!-- Generator: Adobe Illustrator 22.1.0, SVG Export Plug-In . SVG Version: 6.00 Build 0)  -->
<svg version="1.1" id="Layer_1" xmlns="http://www.w3.org/2000/svg" xmlns:xlink="http://www.w3.org/1999/xlink" x="0px" y="0px"
	 viewBox="0 0 50 50" style="enable-background:new 0 0 50 50;" xml:space="preserve">
<style type="text/css">
	.st0{fill:#231F20;}
	.st1{fill:#FFFFFF;}
</style>
<g>
	<path class="st0" d="M6.4,45.5c-0.3,0-0.5-0.1-0.7-0.3c-0.3-0.3-0.4-0.8-0.2-1.2L24.4,6.3c0.2-0.3,0.5-0.6,0.9-0.6
		c0.1,0,0.2,0,0.2,0c0.5,0.1,0.8,0.5,0.8,1v17.9h17.9c0.5,0,0.9,0.3,1,0.8s-0.1,0.9-0.5,1.1L6.9,45.4C6.7,45.5,6.6,45.5,6.4,45.5z"
		/>
	<path class="st1" d="M25.3,6.7v18.9h18.9L6.4,44.5L25.3,6.7 M25.3,4.7c-0.7,0-1.4,0.4-1.8,1.1L4.6,43.6c-0.4,0.8-0.2,1.7,0.4,2.3
		c0.4,0.4,0.9,0.6,1.4,0.6c0.3,0,0.6-0.1,0.9-0.2l37.8-18.9c0.8-0.4,1.3-1.3,1.1-2.2c-0.2-0.9-1-1.5-1.9-1.5H27.3V6.7
		c0-0.9-0.6-1.7-1.5-1.9C25.6,4.8,25.4,4.7,25.3,4.7L25.3,4.7z"/>
</g>
</svg>
