<?xml version="1.0" encoding="utf-8"?>
<!-- Generator: Adobe Illustrator 22.1.0, SVG Export Plug-In . SVG Version: 6.00 Build 0)  -->
<svg version="1.1" id="Layer_1" xmlns="http://www.w3.org/2000/svg" xmlns:xlink="http://www.w3.org/1999/xlink" x="0px" y="0px"
	 viewBox="0 0 50 50" style="enable-background:new 0 0 50 50;" xml:space="preserve">
<style type="text/css">
	.st0{fill:#231F20;}
	.st1{fill:#FFFFFF;}
</style>
<g>
	<path class="st0" d="M44.3,45.2c-0.2,0-0.3,0-0.4-0.1L6,26.2c-0.3-0.2-0.6-0.5-0.6-0.9V6.4c0-0.6,0.4-1,1-1h18.9
		c0.4,0,0.7,0.2,0.9,0.6l18.9,37.8c0.2,0.4,0.1,0.8-0.2,1.2C44.8,45.1,44.6,45.2,44.3,45.2z"/>
	<path class="st1" d="M25.4,6.4l18.9,37.8L6.5,25.3V6.4H25.4 M25.4,4.4H6.5c-1.1,0-2,0.9-2,2v18.9c0,0.8,0.4,1.5,1.1,1.8L43.4,46
		c0.3,0.1,0.6,0.2,0.9,0.2c0.5,0,1-0.2,1.4-0.6c0.6-0.6,0.8-1.5,0.4-2.3L27.2,5.6C26.9,4.9,26.2,4.4,25.4,4.4L25.4,4.4z"/>
</g>
</svg>
