<?xml version="1.0" encoding="utf-8"?>
<!-- Generator: Adobe Illustrator 22.1.0, SVG Export Plug-In . SVG Version: 6.00 Build 0)  -->
<svg version="1.1" id="Layer_1" xmlns="http://www.w3.org/2000/svg" xmlns:xlink="http://www.w3.org/1999/xlink" x="0px" y="0px"
	 viewBox="0 0 50 50" style="enable-background:new 0 0 50 50;" xml:space="preserve">
<style type="text/css">
	.st0{fill:#231F20;}
	.st1{fill:#FFFFFF;}
</style>
<g>
	<path class="st0" d="M46.8,32c0,0.1,0,0.2,0,0.2c-0.1,0.3-0.3,0.6-0.7,0.7l-41.8,14c-0.4,0.2-0.8,0.1-1.1-0.2C3.1,46.5,3,46.3,3,46
		c0-0.1,0-0.2,0.1-0.3l14-42c0.1-0.3,0.4-0.6,0.7-0.7c0.3-0.1,0.7,0,0.9,0.3l27.9,28C46.7,31.5,46.8,31.7,46.8,32z"/>
	<path class="st1" d="M4,46L18,4l27.8,28L4,46 M2,46c0,0.5,0.2,1,0.6,1.4c0.5,0.6,1.3,0.7,2,0.5l41.9-14c0.7-0.2,1.2-0.8,1.3-1.4
		c0-0.2,0.1-0.3,0.1-0.5c0-0.5-0.2-1-0.6-1.4l-27.9-28c-0.5-0.5-1.2-0.7-1.9-0.5c-0.7,0.2-1.2,0.7-1.4,1.3l-14,42
		C2,45.6,2,45.8,2,46L2,46z"/>
</g>
</svg>
