<?xml version="1.0" encoding="utf-8"?>
<!-- Generator: Adobe Illustrator 22.1.0, SVG Export Plug-In . SVG Version: 6.00 Build 0)  -->
<svg version="1.1" id="Layer_1" xmlns="http://www.w3.org/2000/svg" xmlns:xlink="http://www.w3.org/1999/xlink" x="0px" y="0px"
	 viewBox="0 0 50 50" style="enable-background:new 0 0 50 50;" xml:space="preserve">
<style type="text/css">
	.st0{fill:#231F20;}
	.st1{fill:#FFFFFF;}
</style>
<g>
	<path class="st0" d="M17.2,6c0-0.5,0.3-0.9,0.8-1s0.9,0.1,1.1,0.5L38,43.3c0.1,0.1,0.1,0.3,0.1,0.4c0,0.2,0,0.4-0.1,0.5
		c-0.2,0.3-0.5,0.5-0.9,0.5H18.2c-0.6,0-1-0.4-1-1V6z"/>
	<path class="st1" d="M37.2,43.8H18.3V6L37.2,43.8 M39.2,43.8c0-0.3-0.1-0.6-0.2-0.9L20,5.1c-0.4-0.8-1.3-1.3-2.2-1
		c-0.9,0.2-1.5,1-1.5,1.9v37.8c0,1.1,0.9,2,2,2h18.9c0.7,0,1.3-0.4,1.7-0.9C39.1,44.5,39.2,44.2,39.2,43.8L39.2,43.8z"/>
</g>
</svg>
