<?xml version="1.0" encoding="utf-8"?>
<!-- Generator: Adobe Illustrator 22.1.0, SVG Export Plug-In . SVG Version: 6.00 Build 0)  -->
<svg version="1.1" id="Layer_1" xmlns="http://www.w3.org/2000/svg" xmlns:xlink="http://www.w3.org/1999/xlink" x="0px" y="0px"
	 viewBox="0 0 336.7 400" style="enable-background:new 0 0 336.7 400;" xml:space="preserve">
<style type="text/css">
	.st0{fill:#FADC3C;}
	.st1{fill:#E7C42A;}
	.st2{fill:#B0941D;stroke:#B0941D;stroke-width:0.999;stroke-miterlimit:10;}
	.st3{fill:#00CDC8;}
	.st4{fill:#1CA49D;}
	.st5{fill:#F0E6E1;}
</style>
<g>
	<g>
		<g>
			<g>
				<rect x="93.4" y="125.9" class="st0" width="17.9" height="17.9"/>
				<g>
					<path class="st1" d="M110.8,126.4v16.9H93.9v-16.9H110.8 M111.8,125.4H92.9v18.9h18.9V125.4L111.8,125.4z"/>
				</g>
			</g>
			<g>
				<rect x="112.4" y="125.9" class="st0" width="17.9" height="17.9"/>
				<g>
					<path class="st1" d="M129.8,126.4v16.9h-16.9v-16.9H129.8 M130.8,125.4h-18.9v18.9h18.9V125.4L130.8,125.4z"/>
				</g>
			</g>
			<g>
				<rect x="131.3" y="125.9" class="st0" width="17.9" height="17.9"/>
				<g>
					<path class="st1" d="M148.7,126.4v16.9h-16.9v-16.9H148.7 M149.7,125.4h-18.9v18.9h18.9V125.4L149.7,125.4z"/>
				</g>
			</g>
			<g>
				<rect x="93.4" y="144.8" class="st0" width="17.9" height="17.9"/>
				<g>
					<path class="st1" d="M110.8,145.3v16.9H93.9v-16.9H110.8 M111.8,144.3H92.9v18.9h18.9V144.3L111.8,144.3z"/>
				</g>
			</g>
			<g>
				<rect x="112.4" y="144.8" class="st0" width="17.9" height="17.9"/>
				<g>
					<path class="st1" d="M129.8,145.3v16.9h-16.9v-16.9H129.8 M130.8,144.3h-18.9v18.9h18.9V144.3L130.8,144.3z"/>
				</g>
			</g>
			<g>
				<rect x="131.3" y="144.8" class="st0" width="17.9" height="17.9"/>
				<g>
					<path class="st1" d="M148.7,145.3v16.9h-16.9v-16.9H148.7 M149.7,144.3h-18.9v18.9h18.9V144.3L149.7,144.3z"/>
				</g>
			</g>
			<g>
				<rect x="93.4" y="163.6" class="st0" width="17.9" height="17.9"/>
				<g>
					<path class="st1" d="M110.8,164.1V181H93.9v-16.9H110.8 M111.8,163.1H92.9V182h18.9V163.1L111.8,163.1z"/>
				</g>
			</g>
			<g>
				<rect x="112.4" y="163.6" class="st0" width="17.9" height="17.9"/>
				<g>
					<path class="st1" d="M129.8,164.1V181h-16.9v-16.9H129.8 M130.8,163.1h-18.9V182h18.9V163.1L130.8,163.1z"/>
				</g>
			</g>
			<g>
				<rect x="131.3" y="163.6" class="st0" width="17.9" height="17.9"/>
				<g>
					<path class="st1" d="M148.7,164.1V181h-16.9v-16.9H148.7 M149.7,163.1h-18.9V182h18.9V163.1L149.7,163.1z"/>
				</g>
			</g>
			<g>
				<rect x="93.4" y="182.5" class="st0" width="17.9" height="17.9"/>
				<g>
					<path class="st1" d="M110.8,183v16.9H93.9V183H110.8 M111.8,182H92.9v18.9h18.9V182L111.8,182z"/>
				</g>
			</g>
			<g>
				<rect x="112.4" y="182.5" class="st0" width="17.9" height="17.9"/>
				<g>
					<path class="st1" d="M129.8,183v16.9h-16.9V183H129.8 M130.8,182h-18.9v18.9h18.9V182L130.8,182z"/>
				</g>
			</g>
			<g>
				<rect x="131.3" y="182.5" class="st0" width="17.9" height="17.9"/>
				<g>
					<path class="st1" d="M148.7,183v16.9h-16.9V183H148.7 M149.7,182h-18.9v18.9h18.9V182L149.7,182z"/>
				</g>
			</g>
			<g>
				<rect x="150.2" y="125.9" class="st0" width="17.9" height="17.9"/>
				<g>
					<path class="st1" d="M167.6,126.4v16.9h-16.9v-16.9H167.6 M168.6,125.4h-18.9v18.9h18.9V125.4L168.6,125.4z"/>
				</g>
			</g>
			<g>
				<rect x="150.2" y="144.8" class="st0" width="17.9" height="17.9"/>
				<g>
					<path class="st1" d="M167.6,145.3v16.9h-16.9v-16.9H167.6 M168.6,144.3h-18.9v18.9h18.9V144.3L168.6,144.3z"/>
				</g>
			</g>
			<g>
				<rect x="150.2" y="163.6" class="st0" width="17.9" height="17.9"/>
				<g>
					<path class="st1" d="M167.6,164.1V181h-16.9v-16.9H167.6 M168.6,163.1h-18.9V182h18.9V163.1L168.6,163.1z"/>
				</g>
			</g>
			<g>
				<rect x="150.2" y="182.5" class="st0" width="17.9" height="17.9"/>
				<g>
					<path class="st1" d="M167.6,183v16.9h-16.9V183H167.6 M168.6,182h-18.9v18.9h18.9V182L168.6,182z"/>
				</g>
			</g>
		</g>
		<g>
			<circle class="st2" cx="92.9" cy="125.4" r="1.5"/>
			<circle class="st2" cx="111.8" cy="125.4" r="1.5"/>
			<circle class="st2" cx="111.8" cy="125.4" r="1.5"/>
			<circle class="st2" cx="130.8" cy="125.4" r="1.5"/>
			<circle class="st2" cx="130.8" cy="125.4" r="1.5"/>
			<circle class="st2" cx="149.7" cy="125.4" r="1.5"/>
			<circle class="st2" cx="149.7" cy="125.4" r="1.5"/>
			<circle class="st2" cx="92.9" cy="144.3" r="1.5"/>
			<circle class="st2" cx="111.8" cy="144.3" r="1.5"/>
			<circle class="st2" cx="111.8" cy="144.3" r="1.5"/>
			<circle class="st2" cx="130.8" cy="144.3" r="1.5"/>
			<circle class="st2" cx="130.8" cy="144.3" r="1.5"/>
			<circle class="st2" cx="149.7" cy="144.3" r="1.5"/>
			<circle class="st2" cx="149.7" cy="144.3" r="1.5"/>
			<circle class="st2" cx="92.9" cy="144.3" r="1.5"/>
			<circle class="st2" cx="111.8" cy="144.3" r="1.5"/>
			<circle class="st2" cx="92.9" cy="163.1" r="1.5"/>
			<circle class="st2" cx="111.8" cy="163.1" r="1.5"/>
			<circle class="st2" cx="111.8" cy="144.3" r="1.5"/>
			<circle class="st2" cx="130.8" cy="144.3" r="1.5"/>
			<circle class="st2" cx="111.8" cy="163.1" r="1.5"/>
			<circle class="st2" cx="130.8" cy="163.1" r="1.5"/>
			<circle class="st2" cx="130.8" cy="144.3" r="1.5"/>
			<circle class="st2" cx="149.7" cy="144.3" r="1.5"/>
			<circle class="st2" cx="130.8" cy="163.1" r="1.5"/>
			<circle class="st2" cx="149.7" cy="163.1" r="1.5"/>
			<circle class="st2" cx="149.7" cy="144.3" r="1.5"/>
			<circle class="st2" cx="149.7" cy="163.1" r="1.5"/>
			<circle class="st2" cx="92.9" cy="163.1" r="1.5"/>
			<circle class="st2" cx="111.8" cy="163.1" r="1.5"/>
			<circle class="st2" cx="92.9" cy="182" r="1.5"/>
			<circle class="st2" cx="111.8" cy="182" r="1.5"/>
			<circle class="st2" cx="111.8" cy="163.1" r="1.5"/>
			<circle class="st2" cx="130.8" cy="163.1" r="1.5"/>
			<circle class="st2" cx="111.8" cy="182" r="1.5"/>
			<circle class="st2" cx="130.8" cy="182" r="1.5"/>
			<circle class="st2" cx="130.8" cy="163.1" r="1.5"/>
			<circle class="st2" cx="149.7" cy="163.1" r="1.5"/>
			<circle class="st2" cx="130.8" cy="182" r="1.5"/>
			<circle class="st2" cx="149.7" cy="182" r="1.5"/>
			<circle class="st2" cx="149.7" cy="163.1" r="1.5"/>
			<circle class="st2" cx="149.7" cy="182" r="1.5"/>
			<circle class="st2" cx="92.9" cy="182" r="1.5"/>
			<circle class="st2" cx="111.8" cy="182" r="1.5"/>
			<circle class="st2" cx="92.9" cy="200.9" r="1.5"/>
			<circle class="st2" cx="111.8" cy="200.9" r="1.5"/>
			<circle class="st2" cx="111.8" cy="182" r="1.5"/>
			<circle class="st2" cx="130.8" cy="182" r="1.5"/>
			<circle class="st2" cx="111.8" cy="200.9" r="1.5"/>
			<circle class="st2" cx="130.8" cy="200.9" r="1.5"/>
			<circle class="st2" cx="130.8" cy="182" r="1.5"/>
			<circle class="st2" cx="149.7" cy="182" r="1.5"/>
			<circle class="st2" cx="130.8" cy="200.9" r="1.5"/>
			<circle class="st2" cx="149.7" cy="200.9" r="1.5"/>
			<circle class="st2" cx="149.7" cy="182" r="1.5"/>
			<circle class="st2" cx="149.7" cy="200.9" r="1.5"/>
			<circle class="st2" cx="92.9" cy="200.9" r="1.5"/>
			<circle class="st2" cx="111.8" cy="200.9" r="1.5"/>
			<circle class="st2" cx="111.8" cy="200.9" r="1.5"/>
			<circle class="st2" cx="130.8" cy="200.9" r="1.5"/>
			<circle class="st2" cx="130.8" cy="200.9" r="1.5"/>
			<circle class="st2" cx="149.7" cy="200.9" r="1.5"/>
			<circle class="st2" cx="149.7" cy="200.9" r="1.5"/>
			<circle class="st2" cx="92.9" cy="200.9" r="1.5"/>
			<circle class="st2" cx="111.8" cy="200.9" r="1.5"/>
			<circle class="st2" cx="111.8" cy="200.9" r="1.5"/>
			<circle class="st2" cx="130.8" cy="200.9" r="1.5"/>
			<circle class="st2" cx="130.8" cy="200.9" r="1.5"/>
			<circle class="st2" cx="149.7" cy="200.9" r="1.5"/>
			<circle class="st2" cx="149.7" cy="200.9" r="1.5"/>
			<circle class="st2" cx="168.6" cy="125.4" r="1.5"/>
			<circle class="st2" cx="168.6" cy="125.4" r="1.5"/>
			<circle class="st2" cx="168.6" cy="144.3" r="1.5"/>
			<circle class="st2" cx="168.6" cy="144.3" r="1.5"/>
			<circle class="st2" cx="168.6" cy="144.3" r="1.5"/>
			<circle class="st2" cx="168.6" cy="163.1" r="1.5"/>
			<circle class="st2" cx="168.6" cy="144.3" r="1.5"/>
			<circle class="st2" cx="168.6" cy="163.1" r="1.5"/>
			<circle class="st2" cx="168.6" cy="163.1" r="1.5"/>
			<circle class="st2" cx="168.6" cy="182" r="1.5"/>
			<circle class="st2" cx="168.6" cy="163.1" r="1.5"/>
			<circle class="st2" cx="168.6" cy="182" r="1.5"/>
			<circle class="st2" cx="168.6" cy="182" r="1.5"/>
			<circle class="st2" cx="168.6" cy="200.9" r="1.5"/>
			<circle class="st2" cx="168.6" cy="182" r="1.5"/>
			<circle class="st2" cx="168.6" cy="200.9" r="1.5"/>
			<circle class="st2" cx="168.6" cy="200.9" r="1.5"/>
			<circle class="st2" cx="168.6" cy="200.9" r="1.5"/>
			<circle class="st2" cx="168.6" cy="200.9" r="1.5"/>
			<circle class="st2" cx="168.6" cy="200.9" r="1.5"/>
		</g>
	</g>
	<g>
		<g>
			<g>
				<rect x="17.7" y="125.9" class="st0" width="17.9" height="17.9"/>
				<g>
					<path class="st1" d="M35.1,126.4v16.9H18.2v-16.9H35.1 M36.1,125.4H17.2v18.9h18.9V125.4L36.1,125.4z"/>
				</g>
			</g>
			<g>
				<rect x="36.7" y="125.9" class="st0" width="17.9" height="17.9"/>
				<g>
					<path class="st1" d="M54,126.4v16.9H37.2v-16.9H54 M55,125.4H36.2v18.9H55V125.4L55,125.4z"/>
				</g>
			</g>
			<g>
				<rect x="55.6" y="125.9" class="st0" width="17.9" height="17.9"/>
				<g>
					<path class="st1" d="M73,126.4v16.9H56.1v-16.9H73 M74,125.4H55.1v18.9H74V125.4L74,125.4z"/>
				</g>
			</g>
			<g>
				<rect x="17.7" y="144.8" class="st0" width="17.9" height="17.9"/>
				<g>
					<path class="st1" d="M35.1,145.3v16.9H18.2v-16.9H35.1 M36.1,144.3H17.2v18.9h18.9V144.3L36.1,144.3z"/>
				</g>
			</g>
			<g>
				<rect x="36.7" y="144.8" class="st0" width="17.9" height="17.9"/>
				<g>
					<path class="st1" d="M54,145.3v16.9H37.2v-16.9H54 M55,144.3H36.2v18.9H55V144.3L55,144.3z"/>
				</g>
			</g>
			<g>
				<rect x="55.6" y="144.8" class="st0" width="17.9" height="17.9"/>
				<g>
					<path class="st1" d="M73,145.3v16.9H56.1v-16.9H73 M74,144.3H55.1v18.9H74V144.3L74,144.3z"/>
				</g>
			</g>
			<g>
				<rect x="17.7" y="163.6" class="st0" width="17.9" height="17.9"/>
				<g>
					<path class="st1" d="M35.1,164.1V181H18.2v-16.9H35.1 M36.1,163.1H17.2V182h18.9V163.1L36.1,163.1z"/>
				</g>
			</g>
			<g>
				<rect x="36.7" y="163.6" class="st0" width="17.9" height="17.9"/>
				<g>
					<path class="st1" d="M54,164.1V181H37.2v-16.9H54 M55,163.1H36.2V182H55V163.1L55,163.1z"/>
				</g>
			</g>
			<g>
				<rect x="55.6" y="163.6" class="st0" width="17.9" height="17.9"/>
				<g>
					<path class="st1" d="M73,164.1V181H56.1v-16.9H73 M74,163.1H55.1V182H74V163.1L74,163.1z"/>
				</g>
			</g>
			<g>
				<rect x="17.7" y="182.5" class="st0" width="17.9" height="17.9"/>
				<g>
					<path class="st1" d="M35.1,183v16.9H18.2V183H35.1 M36.1,182H17.2v18.9h18.9V182L36.1,182z"/>
				</g>
			</g>
			<g>
				<rect x="36.7" y="182.5" class="st0" width="17.9" height="17.9"/>
				<g>
					<path class="st1" d="M54,183v16.9H37.2V183H54 M55,182H36.2v18.9H55V182L55,182z"/>
				</g>
			</g>
			<g>
				<rect x="55.6" y="182.5" class="st0" width="17.9" height="17.9"/>
				<g>
					<path class="st1" d="M73,183v16.9H56.1V183H73 M74,182H55.1v18.9H74V182L74,182z"/>
				</g>
			</g>
			<g>
				<rect x="74.5" y="125.9" class="st0" width="17.9" height="17.9"/>
				<g>
					<path class="st1" d="M91.9,126.4v16.9H75v-16.9H91.9 M92.9,125.4H74v18.9h18.9V125.4L92.9,125.4z"/>
				</g>
			</g>
			<g>
				<rect x="74.5" y="144.8" class="st0" width="17.9" height="17.9"/>
				<g>
					<path class="st1" d="M91.9,145.3v16.9H75v-16.9H91.9 M92.9,144.3H74v18.9h18.9V144.3L92.9,144.3z"/>
				</g>
			</g>
			<g>
				<rect x="74.5" y="163.6" class="st0" width="17.9" height="17.9"/>
				<g>
					<path class="st1" d="M91.9,164.1V181H75v-16.9H91.9 M92.9,163.1H74V182h18.9V163.1L92.9,163.1z"/>
				</g>
			</g>
			<g>
				<rect x="74.5" y="182.5" class="st0" width="17.9" height="17.9"/>
				<g>
					<path class="st1" d="M91.9,183v16.9H75V183H91.9 M92.9,182H74v18.9h18.9V182L92.9,182z"/>
				</g>
			</g>
		</g>
		<g>
			<circle class="st2" cx="17.1" cy="125.4" r="1.5"/>
			<circle class="st2" cx="36.1" cy="125.4" r="1.5"/>
			<circle class="st2" cx="36.1" cy="125.4" r="1.5"/>
			<circle class="st2" cx="55" cy="125.4" r="1.5"/>
			<circle class="st2" cx="55" cy="125.4" r="1.5"/>
			<circle class="st2" cx="74" cy="125.4" r="1.5"/>
			<circle class="st2" cx="74" cy="125.4" r="1.5"/>
			<circle class="st2" cx="17.1" cy="144.3" r="1.5"/>
			<circle class="st2" cx="36.1" cy="144.3" r="1.5"/>
			<circle class="st2" cx="36.1" cy="144.3" r="1.5"/>
			<circle class="st2" cx="55" cy="144.3" r="1.5"/>
			<circle class="st2" cx="55" cy="144.3" r="1.5"/>
			<circle class="st2" cx="74" cy="144.3" r="1.5"/>
			<circle class="st2" cx="74" cy="144.3" r="1.5"/>
			<circle class="st2" cx="17.1" cy="144.3" r="1.5"/>
			<circle class="st2" cx="36.1" cy="144.3" r="1.5"/>
			<circle class="st2" cx="17.1" cy="163.1" r="1.5"/>
			<circle class="st2" cx="36.1" cy="163.1" r="1.5"/>
			<circle class="st2" cx="36.1" cy="144.3" r="1.5"/>
			<circle class="st2" cx="55" cy="144.3" r="1.5"/>
			<circle class="st2" cx="36.1" cy="163.1" r="1.5"/>
			<circle class="st2" cx="55" cy="163.1" r="1.5"/>
			<circle class="st2" cx="55" cy="144.3" r="1.5"/>
			<circle class="st2" cx="74" cy="144.3" r="1.5"/>
			<circle class="st2" cx="55" cy="163.1" r="1.5"/>
			<circle class="st2" cx="74" cy="163.1" r="1.5"/>
			<circle class="st2" cx="74" cy="144.3" r="1.5"/>
			<circle class="st2" cx="74" cy="163.1" r="1.5"/>
			<circle class="st2" cx="17.1" cy="163.1" r="1.5"/>
			<circle class="st2" cx="36.1" cy="163.1" r="1.5"/>
			<circle class="st2" cx="17.1" cy="182" r="1.5"/>
			<circle class="st2" cx="36.1" cy="182" r="1.5"/>
			<circle class="st2" cx="36.1" cy="163.1" r="1.5"/>
			<circle class="st2" cx="55" cy="163.1" r="1.5"/>
			<circle class="st2" cx="36.1" cy="182" r="1.5"/>
			<circle class="st2" cx="55" cy="182" r="1.5"/>
			<circle class="st2" cx="55" cy="163.1" r="1.5"/>
			<circle class="st2" cx="74" cy="163.1" r="1.5"/>
			<circle class="st2" cx="55" cy="182" r="1.5"/>
			<circle class="st2" cx="74" cy="182" r="1.5"/>
			<circle class="st2" cx="74" cy="163.1" r="1.5"/>
			<circle class="st2" cx="74" cy="182" r="1.5"/>
			<circle class="st2" cx="17.1" cy="182" r="1.5"/>
			<circle class="st2" cx="36.1" cy="182" r="1.5"/>
			<circle class="st2" cx="17.1" cy="200.9" r="1.5"/>
			<circle class="st2" cx="36.1" cy="200.9" r="1.5"/>
			<circle class="st2" cx="36.1" cy="182" r="1.5"/>
			<circle class="st2" cx="55" cy="182" r="1.5"/>
			<circle class="st2" cx="36.1" cy="200.9" r="1.5"/>
			<circle class="st2" cx="55" cy="200.9" r="1.5"/>
			<circle class="st2" cx="55" cy="182" r="1.5"/>
			<circle class="st2" cx="74" cy="182" r="1.5"/>
			<circle class="st2" cx="55" cy="200.9" r="1.5"/>
			<circle class="st2" cx="74" cy="200.9" r="1.5"/>
			<circle class="st2" cx="74" cy="182" r="1.5"/>
			<circle class="st2" cx="74" cy="200.9" r="1.5"/>
			<circle class="st2" cx="17.1" cy="200.9" r="1.5"/>
			<circle class="st2" cx="36.1" cy="200.9" r="1.5"/>
			<circle class="st2" cx="36.1" cy="200.9" r="1.5"/>
			<circle class="st2" cx="55" cy="200.9" r="1.5"/>
			<circle class="st2" cx="55" cy="200.9" r="1.5"/>
			<circle class="st2" cx="74" cy="200.9" r="1.5"/>
			<circle class="st2" cx="74" cy="200.9" r="1.5"/>
			<circle class="st2" cx="17.1" cy="200.9" r="1.5"/>
			<circle class="st2" cx="36.1" cy="200.9" r="1.5"/>
			<circle class="st2" cx="36.1" cy="200.9" r="1.5"/>
			<circle class="st2" cx="55" cy="200.9" r="1.5"/>
			<circle class="st2" cx="55" cy="200.9" r="1.5"/>
			<circle class="st2" cx="74" cy="200.9" r="1.5"/>
			<circle class="st2" cx="74" cy="200.9" r="1.5"/>
			<circle class="st2" cx="92.9" cy="125.4" r="1.5"/>
			<circle class="st2" cx="92.9" cy="125.4" r="1.5"/>
			<circle class="st2" cx="92.9" cy="144.3" r="1.5"/>
			<circle class="st2" cx="92.9" cy="144.3" r="1.5"/>
			<circle class="st2" cx="92.9" cy="144.3" r="1.5"/>
			<circle class="st2" cx="92.9" cy="163.1" r="1.5"/>
			<circle class="st2" cx="92.9" cy="144.3" r="1.5"/>
			<circle class="st2" cx="92.9" cy="163.1" r="1.5"/>
			<circle class="st2" cx="92.9" cy="163.1" r="1.5"/>
			<circle class="st2" cx="92.9" cy="182" r="1.5"/>
			<circle class="st2" cx="92.9" cy="163.1" r="1.5"/>
			<circle class="st2" cx="92.9" cy="182" r="1.5"/>
			<circle class="st2" cx="92.9" cy="182" r="1.5"/>
			<circle class="st2" cx="92.9" cy="200.9" r="1.5"/>
			<circle class="st2" cx="92.9" cy="182" r="1.5"/>
			<circle class="st2" cx="92.9" cy="200.9" r="1.5"/>
			<circle class="st2" cx="92.9" cy="200.9" r="1.5"/>
			<circle class="st2" cx="92.9" cy="200.9" r="1.5"/>
			<circle class="st2" cx="92.9" cy="200.9" r="1.5"/>
			<circle class="st2" cx="92.9" cy="200.9" r="1.5"/>
		</g>
	</g>
	<g>
		<g>
			<rect x="93.4" y="50.3" class="st0" width="17.9" height="17.9"/>
			<g>
				<path class="st1" d="M110.8,50.8v16.9H93.9V50.8H110.8 M111.8,49.8H92.9v18.9h18.9V49.8L111.8,49.8z"/>
			</g>
		</g>
		<g>
			<rect x="112.4" y="50.3" class="st0" width="17.9" height="17.9"/>
			<g>
				<path class="st1" d="M129.8,50.8v16.9h-16.9V50.8H129.8 M130.8,49.8h-18.9v18.9h18.9V49.8L130.8,49.8z"/>
			</g>
		</g>
		<g>
			<rect x="131.3" y="50.3" class="st0" width="17.9" height="17.9"/>
			<g>
				<path class="st1" d="M148.7,50.8v16.9h-16.9V50.8H148.7 M149.7,49.8h-18.9v18.9h18.9V49.8L149.7,49.8z"/>
			</g>
		</g>
		<g>
			<rect x="93.4" y="69.2" class="st0" width="17.9" height="17.9"/>
			<g>
				<path class="st1" d="M110.8,69.7v16.9H93.9V69.7H110.8 M111.8,68.7H92.9v18.9h18.9V68.7L111.8,68.7z"/>
			</g>
		</g>
		<g>
			<rect x="112.4" y="69.2" class="st0" width="17.9" height="17.9"/>
			<g>
				<path class="st1" d="M129.8,69.7v16.9h-16.9V69.7H129.8 M130.8,68.7h-18.9v18.9h18.9V68.7L130.8,68.7z"/>
			</g>
		</g>
		<g>
			<rect x="131.3" y="69.2" class="st0" width="17.9" height="17.9"/>
			<g>
				<path class="st1" d="M148.7,69.7v16.9h-16.9V69.7H148.7 M149.7,68.7h-18.9v18.9h18.9V68.7L149.7,68.7z"/>
			</g>
		</g>
		<g>
			<rect x="93.4" y="88.1" class="st0" width="17.9" height="17.9"/>
			<g>
				<path class="st1" d="M110.8,88.6v16.9H93.9V88.6H110.8 M111.8,87.6H92.9v18.9h18.9V87.6L111.8,87.6z"/>
			</g>
		</g>
		<g>
			<rect x="112.4" y="88.1" class="st0" width="17.9" height="17.9"/>
			<g>
				<path class="st1" d="M129.8,88.6v16.9h-16.9V88.6H129.8 M130.8,87.6h-18.9v18.9h18.9V87.6L130.8,87.6z"/>
			</g>
		</g>
		<g>
			<rect x="131.3" y="88.1" class="st0" width="17.9" height="17.9"/>
			<g>
				<path class="st1" d="M148.7,88.6v16.9h-16.9V88.6H148.7 M149.7,87.6h-18.9v18.9h18.9V87.6L149.7,87.6z"/>
			</g>
		</g>
		<g>
			<rect x="93.4" y="107" class="st0" width="17.9" height="17.9"/>
			<g>
				<path class="st1" d="M110.8,107.5v16.9H93.9v-16.9H110.8 M111.8,106.5H92.9v18.9h18.9V106.5L111.8,106.5z"/>
			</g>
		</g>
		<g>
			<rect x="112.4" y="107" class="st0" width="17.9" height="17.9"/>
			<g>
				<path class="st1" d="M129.8,107.5v16.9h-16.9v-16.9H129.8 M130.8,106.5h-18.9v18.9h18.9V106.5L130.8,106.5z"/>
			</g>
		</g>
		<g>
			<rect x="131.3" y="107" class="st0" width="17.9" height="17.9"/>
			<g>
				<path class="st1" d="M148.7,107.5v16.9h-16.9v-16.9H148.7 M149.7,106.5h-18.9v18.9h18.9V106.5L149.7,106.5z"/>
			</g>
		</g>
		<g>
			<rect x="150.2" y="50.3" class="st0" width="17.9" height="17.9"/>
			<g>
				<path class="st1" d="M167.6,50.8v16.9h-16.9V50.8H167.6 M168.6,49.8h-18.9v18.9h18.9V49.8L168.6,49.8z"/>
			</g>
		</g>
		<g>
			<rect x="150.2" y="69.2" class="st0" width="17.9" height="17.9"/>
			<g>
				<path class="st1" d="M167.6,69.7v16.9h-16.9V69.7H167.6 M168.6,68.7h-18.9v18.9h18.9V68.7L168.6,68.7z"/>
			</g>
		</g>
		<g>
			<rect x="150.2" y="88.1" class="st0" width="17.9" height="17.9"/>
			<g>
				<path class="st1" d="M167.6,88.6v16.9h-16.9V88.6H167.6 M168.6,87.6h-18.9v18.9h18.9V87.6L168.6,87.6z"/>
			</g>
		</g>
		<g>
			<rect x="150.2" y="107" class="st0" width="17.9" height="17.9"/>
			<g>
				<path class="st1" d="M167.6,107.5v16.9h-16.9v-16.9H167.6 M168.6,106.5h-18.9v18.9h18.9V106.5L168.6,106.5z"/>
			</g>
		</g>
	</g>
	<g>
		<circle class="st2" cx="92.9" cy="49.8" r="1.5"/>
		<circle class="st2" cx="111.8" cy="49.8" r="1.5"/>
		<circle class="st2" cx="111.8" cy="49.8" r="1.5"/>
		<circle class="st2" cx="130.8" cy="49.8" r="1.5"/>
		<circle class="st2" cx="130.8" cy="49.8" r="1.5"/>
		<circle class="st2" cx="149.7" cy="49.8" r="1.5"/>
		<circle class="st2" cx="149.7" cy="49.8" r="1.5"/>
		<circle class="st2" cx="92.9" cy="68.7" r="1.5"/>
		<circle class="st2" cx="111.8" cy="68.7" r="1.5"/>
		<circle class="st2" cx="111.8" cy="68.7" r="1.5"/>
		<circle class="st2" cx="130.8" cy="68.7" r="1.5"/>
		<circle class="st2" cx="130.8" cy="68.7" r="1.5"/>
		<circle class="st2" cx="149.7" cy="68.7" r="1.5"/>
		<circle class="st2" cx="149.7" cy="68.7" r="1.5"/>
		<circle class="st2" cx="92.9" cy="68.7" r="1.5"/>
		<circle class="st2" cx="111.8" cy="68.7" r="1.5"/>
		<circle class="st2" cx="92.9" cy="87.6" r="1.5"/>
		<circle class="st2" cx="111.8" cy="87.6" r="1.5"/>
		<circle class="st2" cx="111.8" cy="68.7" r="1.5"/>
		<circle class="st2" cx="130.8" cy="68.7" r="1.5"/>
		<circle class="st2" cx="111.8" cy="87.6" r="1.5"/>
		<circle class="st2" cx="130.8" cy="87.6" r="1.5"/>
		<circle class="st2" cx="130.8" cy="68.7" r="1.5"/>
		<circle class="st2" cx="149.7" cy="68.7" r="1.5"/>
		<circle class="st2" cx="130.8" cy="87.6" r="1.5"/>
		<circle class="st2" cx="149.7" cy="87.6" r="1.5"/>
		<circle class="st2" cx="149.7" cy="68.7" r="1.5"/>
		<circle class="st2" cx="149.7" cy="87.6" r="1.5"/>
		<circle class="st2" cx="92.9" cy="87.6" r="1.5"/>
		<circle class="st2" cx="111.8" cy="87.6" r="1.5"/>
		<circle class="st2" cx="92.9" cy="106.5" r="1.5"/>
		<circle class="st2" cx="111.8" cy="106.5" r="1.5"/>
		<circle class="st2" cx="111.8" cy="87.6" r="1.5"/>
		<circle class="st2" cx="130.8" cy="87.6" r="1.5"/>
		<circle class="st2" cx="111.8" cy="106.5" r="1.5"/>
		<circle class="st2" cx="130.8" cy="106.5" r="1.5"/>
		<circle class="st2" cx="130.8" cy="87.6" r="1.5"/>
		<circle class="st2" cx="149.7" cy="87.6" r="1.5"/>
		<circle class="st2" cx="130.8" cy="106.5" r="1.5"/>
		<circle class="st2" cx="149.7" cy="106.5" r="1.5"/>
		<circle class="st2" cx="149.7" cy="87.6" r="1.5"/>
		<circle class="st2" cx="149.7" cy="106.5" r="1.5"/>
		<circle class="st2" cx="92.9" cy="106.5" r="1.5"/>
		<circle class="st2" cx="111.8" cy="106.5" r="1.5"/>
		<circle class="st2" cx="92.9" cy="125.4" r="1.5"/>
		<circle class="st2" cx="111.8" cy="125.4" r="1.5"/>
		<circle class="st2" cx="111.8" cy="106.5" r="1.5"/>
		<circle class="st2" cx="130.8" cy="106.5" r="1.5"/>
		<circle class="st2" cx="111.8" cy="125.4" r="1.5"/>
		<circle class="st2" cx="130.8" cy="125.4" r="1.5"/>
		<circle class="st2" cx="130.8" cy="106.5" r="1.5"/>
		<circle class="st2" cx="149.7" cy="106.5" r="1.5"/>
		<circle class="st2" cx="130.8" cy="125.4" r="1.5"/>
		<circle class="st2" cx="149.7" cy="125.4" r="1.5"/>
		<circle class="st2" cx="149.7" cy="106.5" r="1.5"/>
		<circle class="st2" cx="149.7" cy="125.4" r="1.5"/>
		<circle class="st2" cx="92.9" cy="125.4" r="1.5"/>
		<circle class="st2" cx="111.8" cy="125.4" r="1.5"/>
		<circle class="st2" cx="111.8" cy="125.4" r="1.5"/>
		<circle class="st2" cx="130.8" cy="125.4" r="1.5"/>
		<circle class="st2" cx="130.8" cy="125.4" r="1.5"/>
		<circle class="st2" cx="149.7" cy="125.4" r="1.5"/>
		<circle class="st2" cx="149.7" cy="125.4" r="1.5"/>
		<circle class="st2" cx="92.9" cy="125.4" r="1.5"/>
		<circle class="st2" cx="111.8" cy="125.4" r="1.5"/>
		<circle class="st2" cx="111.8" cy="125.4" r="1.5"/>
		<circle class="st2" cx="130.8" cy="125.4" r="1.5"/>
		<circle class="st2" cx="130.8" cy="125.4" r="1.5"/>
		<circle class="st2" cx="149.7" cy="125.4" r="1.5"/>
		<circle class="st2" cx="149.7" cy="125.4" r="1.5"/>
		<circle class="st2" cx="168.6" cy="49.8" r="1.5"/>
		<circle class="st2" cx="168.6" cy="49.8" r="1.5"/>
		<circle class="st2" cx="168.6" cy="68.7" r="1.5"/>
		<circle class="st2" cx="168.6" cy="68.7" r="1.5"/>
		<circle class="st2" cx="168.6" cy="68.7" r="1.5"/>
		<circle class="st2" cx="168.6" cy="87.6" r="1.5"/>
		<circle class="st2" cx="168.6" cy="68.7" r="1.5"/>
		<circle class="st2" cx="168.6" cy="87.6" r="1.5"/>
		<circle class="st2" cx="168.6" cy="87.6" r="1.5"/>
		<circle class="st2" cx="168.6" cy="106.5" r="1.5"/>
		<circle class="st2" cx="168.6" cy="87.6" r="1.5"/>
		<circle class="st2" cx="168.6" cy="106.5" r="1.5"/>
		<circle class="st2" cx="168.6" cy="106.5" r="1.5"/>
		<circle class="st2" cx="168.6" cy="125.4" r="1.5"/>
		<circle class="st2" cx="168.6" cy="106.5" r="1.5"/>
		<circle class="st2" cx="168.6" cy="125.4" r="1.5"/>
		<circle class="st2" cx="168.6" cy="125.4" r="1.5"/>
		<circle class="st2" cx="168.6" cy="125.4" r="1.5"/>
		<circle class="st2" cx="168.6" cy="125.4" r="1.5"/>
		<circle class="st2" cx="168.6" cy="125.4" r="1.5"/>
	</g>
	<g>
		<g>
			<g>
				<rect x="17.7" y="50.3" class="st0" width="17.9" height="17.9"/>
				<g>
					<path class="st1" d="M35.1,50.8v16.9H18.2V50.8H35.1 M36.1,49.8H17.2v18.9h18.9V49.8L36.1,49.8z"/>
				</g>
			</g>
			<g>
				<rect x="36.7" y="50.3" class="st0" width="17.9" height="17.9"/>
				<g>
					<path class="st1" d="M54,50.8v16.9H37.2V50.8H54 M55,49.8H36.2v18.9H55V49.8L55,49.8z"/>
				</g>
			</g>
			<g>
				<rect x="55.6" y="50.3" class="st0" width="17.9" height="17.9"/>
				<g>
					<path class="st1" d="M73,50.8v16.9H56.1V50.8H73 M74,49.8H55.1v18.9H74V49.8L74,49.8z"/>
				</g>
			</g>
			<g>
				<rect x="17.7" y="69.2" class="st0" width="17.9" height="17.9"/>
				<g>
					<path class="st1" d="M35.1,69.7v16.9H18.2V69.7H35.1 M36.1,68.7H17.2v18.9h18.9V68.7L36.1,68.7z"/>
				</g>
			</g>
			<g>
				<rect x="36.7" y="69.2" class="st0" width="17.9" height="17.9"/>
				<g>
					<path class="st1" d="M54,69.7v16.9H37.2V69.7H54 M55,68.7H36.2v18.9H55V68.7L55,68.7z"/>
				</g>
			</g>
			<g>
				<rect x="55.6" y="69.2" class="st0" width="17.9" height="17.9"/>
				<g>
					<path class="st1" d="M73,69.7v16.9H56.1V69.7H73 M74,68.7H55.1v18.9H74V68.7L74,68.7z"/>
				</g>
			</g>
			<g>
				<rect x="17.7" y="88.1" class="st0" width="17.9" height="17.9"/>
				<g>
					<path class="st1" d="M35.1,88.6v16.9H18.2V88.6H35.1 M36.1,87.6H17.2v18.9h18.9V87.6L36.1,87.6z"/>
				</g>
			</g>
			<g>
				<rect x="36.7" y="88.1" class="st0" width="17.9" height="17.9"/>
				<g>
					<path class="st1" d="M54,88.6v16.9H37.2V88.6H54 M55,87.6H36.2v18.9H55V87.6L55,87.6z"/>
				</g>
			</g>
			<g>
				<rect x="55.6" y="88.1" class="st0" width="17.9" height="17.9"/>
				<g>
					<path class="st1" d="M73,88.6v16.9H56.1V88.6H73 M74,87.6H55.1v18.9H74V87.6L74,87.6z"/>
				</g>
			</g>
			<g>
				<rect x="17.7" y="107" class="st0" width="17.9" height="17.9"/>
				<g>
					<path class="st1" d="M35.1,107.5v16.9H18.2v-16.9H35.1 M36.1,106.5H17.2v18.9h18.9V106.5L36.1,106.5z"/>
				</g>
			</g>
			<g>
				<rect x="36.7" y="107" class="st0" width="17.9" height="17.9"/>
				<g>
					<path class="st1" d="M54,107.5v16.9H37.2v-16.9H54 M55,106.5H36.2v18.9H55V106.5L55,106.5z"/>
				</g>
			</g>
			<g>
				<rect x="55.6" y="107" class="st0" width="17.9" height="17.9"/>
				<g>
					<path class="st1" d="M73,107.5v16.9H56.1v-16.9H73 M74,106.5H55.1v18.9H74V106.5L74,106.5z"/>
				</g>
			</g>
			<g>
				<rect x="74.5" y="50.3" class="st0" width="17.9" height="17.9"/>
				<g>
					<path class="st1" d="M91.9,50.8v16.9H75V50.8H91.9 M92.9,49.8H74v18.9h18.9V49.8L92.9,49.8z"/>
				</g>
			</g>
			<g>
				<rect x="74.5" y="69.2" class="st0" width="17.9" height="17.9"/>
				<g>
					<path class="st1" d="M91.9,69.7v16.9H75V69.7H91.9 M92.9,68.7H74v18.9h18.9V68.7L92.9,68.7z"/>
				</g>
			</g>
			<g>
				<rect x="74.5" y="88.1" class="st0" width="17.9" height="17.9"/>
				<g>
					<path class="st1" d="M91.9,88.6v16.9H75V88.6H91.9 M92.9,87.6H74v18.9h18.9V87.6L92.9,87.6z"/>
				</g>
			</g>
			<g>
				<rect x="74.5" y="107" class="st0" width="17.9" height="17.9"/>
				<g>
					<path class="st1" d="M91.9,107.5v16.9H75v-16.9H91.9 M92.9,106.5H74v18.9h18.9V106.5L92.9,106.5z"/>
				</g>
			</g>
		</g>
		<g>
			<circle class="st2" cx="17.1" cy="49.8" r="1.5"/>
			<circle class="st2" cx="36.1" cy="49.8" r="1.5"/>
			<circle class="st2" cx="36.1" cy="49.8" r="1.5"/>
			<circle class="st2" cx="55" cy="49.8" r="1.5"/>
			<circle class="st2" cx="55" cy="49.8" r="1.5"/>
			<circle class="st2" cx="74" cy="49.8" r="1.5"/>
			<circle class="st2" cx="74" cy="49.8" r="1.5"/>
			<circle class="st2" cx="17.1" cy="68.7" r="1.5"/>
			<circle class="st2" cx="36.1" cy="68.7" r="1.5"/>
			<circle class="st2" cx="36.1" cy="68.7" r="1.5"/>
			<circle class="st2" cx="55" cy="68.7" r="1.5"/>
			<circle class="st2" cx="55" cy="68.7" r="1.5"/>
			<circle class="st2" cx="74" cy="68.7" r="1.5"/>
			<circle class="st2" cx="74" cy="68.7" r="1.5"/>
			<circle class="st2" cx="17.1" cy="68.7" r="1.5"/>
			<circle class="st2" cx="36.1" cy="68.7" r="1.5"/>
			<circle class="st2" cx="17.1" cy="87.6" r="1.5"/>
			<circle class="st2" cx="36.1" cy="87.6" r="1.5"/>
			<circle class="st2" cx="36.1" cy="68.7" r="1.5"/>
			<circle class="st2" cx="55" cy="68.7" r="1.5"/>
			<circle class="st2" cx="36.1" cy="87.6" r="1.5"/>
			<circle class="st2" cx="55" cy="87.6" r="1.5"/>
			<circle class="st2" cx="55" cy="68.7" r="1.5"/>
			<circle class="st2" cx="74" cy="68.7" r="1.5"/>
			<circle class="st2" cx="55" cy="87.6" r="1.5"/>
			<circle class="st2" cx="74" cy="87.6" r="1.5"/>
			<circle class="st2" cx="74" cy="68.7" r="1.5"/>
			<circle class="st2" cx="74" cy="87.6" r="1.5"/>
			<circle class="st2" cx="17.1" cy="87.6" r="1.5"/>
			<circle class="st2" cx="36.1" cy="87.6" r="1.5"/>
			<circle class="st2" cx="17.1" cy="106.5" r="1.5"/>
			<circle class="st2" cx="36.1" cy="106.5" r="1.5"/>
			<circle class="st2" cx="36.1" cy="87.6" r="1.5"/>
			<circle class="st2" cx="55" cy="87.6" r="1.5"/>
			<circle class="st2" cx="36.1" cy="106.5" r="1.5"/>
			<circle class="st2" cx="55" cy="106.5" r="1.5"/>
			<circle class="st2" cx="55" cy="87.6" r="1.5"/>
			<circle class="st2" cx="74" cy="87.6" r="1.5"/>
			<circle class="st2" cx="55" cy="106.5" r="1.5"/>
			<circle class="st2" cx="74" cy="106.5" r="1.5"/>
			<circle class="st2" cx="74" cy="87.6" r="1.5"/>
			<circle class="st2" cx="74" cy="106.5" r="1.5"/>
			<circle class="st2" cx="17.1" cy="106.5" r="1.5"/>
			<circle class="st2" cx="36.1" cy="106.5" r="1.5"/>
			<circle class="st2" cx="17.1" cy="125.4" r="1.5"/>
			<circle class="st2" cx="36.1" cy="125.4" r="1.5"/>
			<circle class="st2" cx="36.1" cy="106.5" r="1.5"/>
			<circle class="st2" cx="55" cy="106.5" r="1.5"/>
			<circle class="st2" cx="36.1" cy="125.4" r="1.5"/>
			<circle class="st2" cx="55" cy="125.4" r="1.5"/>
			<circle class="st2" cx="55" cy="106.5" r="1.5"/>
			<circle class="st2" cx="74" cy="106.5" r="1.5"/>
			<circle class="st2" cx="55" cy="125.4" r="1.5"/>
			<circle class="st2" cx="74" cy="125.4" r="1.5"/>
			<circle class="st2" cx="74" cy="106.5" r="1.5"/>
			<circle class="st2" cx="74" cy="125.4" r="1.5"/>
			<circle class="st2" cx="17.1" cy="125.4" r="1.5"/>
			<circle class="st2" cx="36.1" cy="125.4" r="1.5"/>
			<circle class="st2" cx="36.1" cy="125.4" r="1.5"/>
			<circle class="st2" cx="55" cy="125.4" r="1.5"/>
			<circle class="st2" cx="55" cy="125.4" r="1.5"/>
			<circle class="st2" cx="74" cy="125.4" r="1.5"/>
			<circle class="st2" cx="74" cy="125.4" r="1.5"/>
			<circle class="st2" cx="17.1" cy="125.4" r="1.5"/>
			<circle class="st2" cx="36.1" cy="125.4" r="1.5"/>
			<circle class="st2" cx="36.1" cy="125.4" r="1.5"/>
			<circle class="st2" cx="55" cy="125.4" r="1.5"/>
			<circle class="st2" cx="55" cy="125.4" r="1.5"/>
			<circle class="st2" cx="74" cy="125.4" r="1.5"/>
			<circle class="st2" cx="74" cy="125.4" r="1.5"/>
			<circle class="st2" cx="92.9" cy="49.8" r="1.5"/>
			<circle class="st2" cx="92.9" cy="49.8" r="1.5"/>
			<circle class="st2" cx="92.9" cy="68.7" r="1.5"/>
			<circle class="st2" cx="92.9" cy="68.7" r="1.5"/>
			<circle class="st2" cx="92.9" cy="68.7" r="1.5"/>
			<circle class="st2" cx="92.9" cy="87.6" r="1.5"/>
			<circle class="st2" cx="92.9" cy="68.7" r="1.5"/>
			<circle class="st2" cx="92.9" cy="87.6" r="1.5"/>
			<circle class="st2" cx="92.9" cy="87.6" r="1.5"/>
			<circle class="st2" cx="92.9" cy="106.5" r="1.5"/>
			<circle class="st2" cx="92.9" cy="87.6" r="1.5"/>
			<circle class="st2" cx="92.9" cy="106.5" r="1.5"/>
			<circle class="st2" cx="92.9" cy="106.5" r="1.5"/>
			<circle class="st2" cx="92.9" cy="125.4" r="1.5"/>
			<circle class="st2" cx="92.9" cy="106.5" r="1.5"/>
			<circle class="st2" cx="92.9" cy="125.4" r="1.5"/>
			<circle class="st2" cx="92.9" cy="125.4" r="1.5"/>
			<circle class="st2" cx="92.9" cy="125.4" r="1.5"/>
			<circle class="st2" cx="92.9" cy="125.4" r="1.5"/>
			<circle class="st2" cx="92.9" cy="125.4" r="1.5"/>
		</g>
	</g>
</g>
<g>
	<g>
		<polygon class="st3" points="37.4,105.4 73.6,69.4 91.7,123.5 		"/>
		<path class="st4" d="M73.3,70.8l17.2,51.5l-51.7-17.2L73.3,70.8 M73.9,68L36,105.8l56.8,18.9L73.9,68L73.9,68z"/>
	</g>
	<g>
		<polygon class="st3" points="37.4,105.4 73.6,69.4 91.7,123.5 		"/>
		<path class="st4" d="M73.3,70.8l17.2,51.5l-51.7-17.2L73.3,70.8 M73.9,68L36,105.8l56.8,18.9L73.9,68L73.9,68z"/>
	</g>
	<g>
		<polygon class="st3" points="112.1,69.4 148.3,105.4 94.1,123.5 		"/>
		<path class="st4" d="M112.5,70.8l34.4,34.4l-51.6,17.2L112.5,70.8 M111.8,68l-18.9,56.7l56.8-18.9L111.8,68L111.8,68z"/>
	</g>
</g>
<g>
	<g>
		<polygon class="st3" points="37.4,143.4 91.6,125.3 73.5,179.4 		"/>
		<path class="st4" d="M90.4,126.5L73.2,178l-34.4-34.4L90.4,126.5 M92.8,124.2L36,143.1l37.8,37.8L92.8,124.2L92.8,124.2z"/>
	</g>
</g>
<g>
	<g>
		<path class="st5" d="M120.9,155.6c-0.2-0.2-0.3-0.5-0.3-0.8c0-0.9,0.2-1.7,0.5-2.3s0.8-1.3,1.4-2.1c0.5-0.6,0.9-1.1,1.1-1.5
			s0.3-0.8,0.3-1.3s-0.2-1-0.6-1.3s-1-0.5-1.7-0.5c-0.6,0-1.2,0.1-1.7,0.4c-0.5,0.3-1.2,0.6-1.9,1.1c-0.4,0.2-0.8,0.3-1,0.3
			c-0.3,0-0.5-0.1-0.7-0.4c-0.2-0.3-0.3-0.6-0.3-0.9c0-0.5,0.2-0.9,0.6-1.2c0.7-0.6,1.5-1.1,2.5-1.4c0.9-0.3,1.9-0.5,2.9-0.5
			s1.9,0.2,2.7,0.5c0.8,0.3,1.4,0.8,1.8,1.4c0.4,0.6,0.7,1.3,0.7,2.1c0,0.9-0.2,1.6-0.6,2.3c-0.4,0.6-1,1.4-1.8,2.2
			c-0.7,0.7-1.2,1.3-1.5,1.8s-0.6,1-0.6,1.6c0,0.3-0.2,0.5-0.3,0.6c-0.2,0.1-0.4,0.2-0.7,0.2C121.3,155.9,121.1,155.8,120.9,155.6z
			 M120.3,160.6c-0.3-0.4-0.5-0.8-0.5-1.3s0.2-1,0.5-1.3c0.3-0.4,0.8-0.5,1.3-0.5s1,0.2,1.3,0.5c0.3,0.4,0.5,0.8,0.5,1.3
			s-0.2,1-0.5,1.3c-0.4,0.4-0.8,0.5-1.3,0.5C121.1,161.1,120.7,160.9,120.3,160.6z"/>
	</g>
</g>
<g>
	<g>
		<polygon class="st3" points="112,179.6 93.9,125.4 148,143.5 		"/>
		<path class="st4" d="M95.1,126.6l51.5,17.2l-34.4,34.4L95.1,126.6 M92.8,124.2l18.9,56.8l37.8-37.8L92.8,124.2L92.8,124.2z"/>
	</g>
</g>
</svg>
