<?xml version="1.0" encoding="utf-8"?>
<!-- Generator: Adobe Illustrator 22.1.0, SVG Export Plug-In . SVG Version: 6.00 Build 0)  -->
<svg version="1.1" id="Layer_1" xmlns="http://www.w3.org/2000/svg" xmlns:xlink="http://www.w3.org/1999/xlink" x="0px" y="0px"
	 viewBox="0 0 336.7 400" style="enable-background:new 0 0 336.7 400;" xml:space="preserve">
<style type="text/css">
	.st0{fill:#FADC3C;}
	.st1{fill:#E7C42A;}
	.st2{fill:#B0941D;stroke:#B0941D;stroke-width:0.999;stroke-miterlimit:10;}
	.st3{fill:#A5D73C;}
	.st4{fill:#69941B;}
</style>
<g>
	<g>
		<g>
			<g>
				<rect x="244.8" y="125.9" class="st0" width="17.9" height="17.9"/>
				<g>
					<path class="st1" d="M262.2,126.4v16.9h-16.9v-16.9H262.2 M263.2,125.4h-18.9v18.9h18.9V125.4L263.2,125.4z"/>
				</g>
			</g>
			<g>
				<rect x="263.8" y="125.9" class="st0" width="17.9" height="17.9"/>
				<g>
					<path class="st1" d="M281.2,126.4v16.9h-16.9v-16.9H281.2 M282.2,125.4h-18.9v18.9h18.9V125.4L282.2,125.4z"/>
				</g>
			</g>
			<g>
				<rect x="282.7" y="125.9" class="st0" width="17.9" height="17.9"/>
				<g>
					<path class="st1" d="M300.1,126.4v16.9h-16.9v-16.9H300.1 M301.1,125.4h-18.9v18.9h18.9V125.4L301.1,125.4z"/>
				</g>
			</g>
			<g>
				<rect x="244.8" y="144.8" class="st0" width="17.9" height="17.9"/>
				<g>
					<path class="st1" d="M262.2,145.3v16.9h-16.9v-16.9H262.2 M263.2,144.3h-18.9v18.9h18.9V144.3L263.2,144.3z"/>
				</g>
			</g>
			<g>
				<rect x="263.8" y="144.8" class="st0" width="17.9" height="17.9"/>
				<g>
					<path class="st1" d="M281.2,145.3v16.9h-16.9v-16.9H281.2 M282.2,144.3h-18.9v18.9h18.9V144.3L282.2,144.3z"/>
				</g>
			</g>
			<g>
				<rect x="282.7" y="144.8" class="st0" width="17.9" height="17.9"/>
				<g>
					<path class="st1" d="M300.1,145.3v16.9h-16.9v-16.9H300.1 M301.1,144.3h-18.9v18.9h18.9V144.3L301.1,144.3z"/>
				</g>
			</g>
			<g>
				<rect x="244.8" y="163.6" class="st0" width="17.9" height="17.9"/>
				<g>
					<path class="st1" d="M262.2,164.1V181h-16.9v-16.9H262.2 M263.2,163.1h-18.9V182h18.9V163.1L263.2,163.1z"/>
				</g>
			</g>
			<g>
				<rect x="263.8" y="163.6" class="st0" width="17.9" height="17.9"/>
				<g>
					<path class="st1" d="M281.2,164.1V181h-16.9v-16.9H281.2 M282.2,163.1h-18.9V182h18.9V163.1L282.2,163.1z"/>
				</g>
			</g>
			<g>
				<rect x="282.7" y="163.6" class="st0" width="17.9" height="17.9"/>
				<g>
					<path class="st1" d="M300.1,164.1V181h-16.9v-16.9H300.1 M301.1,163.1h-18.9V182h18.9V163.1L301.1,163.1z"/>
				</g>
			</g>
			<g>
				<rect x="244.8" y="182.5" class="st0" width="17.9" height="17.9"/>
				<g>
					<path class="st1" d="M262.2,183v16.9h-16.9V183H262.2 M263.2,182h-18.9v18.9h18.9V182L263.2,182z"/>
				</g>
			</g>
			<g>
				<rect x="263.8" y="182.5" class="st0" width="17.9" height="17.9"/>
				<g>
					<path class="st1" d="M281.2,183v16.9h-16.9V183H281.2 M282.2,182h-18.9v18.9h18.9V182L282.2,182z"/>
				</g>
			</g>
			<g>
				<rect x="282.7" y="182.5" class="st0" width="17.9" height="17.9"/>
				<g>
					<path class="st1" d="M300.1,183v16.9h-16.9V183H300.1 M301.1,182h-18.9v18.9h18.9V182L301.1,182z"/>
				</g>
			</g>
			<g>
				<rect x="301.6" y="125.9" class="st0" width="17.9" height="17.9"/>
				<g>
					<path class="st1" d="M319,126.4v16.9h-16.9v-16.9H319 M320,125.4h-18.9v18.9H320V125.4L320,125.4z"/>
				</g>
			</g>
			<g>
				<rect x="301.6" y="144.8" class="st0" width="17.9" height="17.9"/>
				<g>
					<path class="st1" d="M319,145.3v16.9h-16.9v-16.9H319 M320,144.3h-18.9v18.9H320V144.3L320,144.3z"/>
				</g>
			</g>
			<g>
				<rect x="301.6" y="163.6" class="st0" width="17.9" height="17.9"/>
				<g>
					<path class="st1" d="M319,164.1V181h-16.9v-16.9H319 M320,163.1h-18.9V182H320V163.1L320,163.1z"/>
				</g>
			</g>
			<g>
				<rect x="301.6" y="182.5" class="st0" width="17.9" height="17.9"/>
				<g>
					<path class="st1" d="M319,183v16.9h-16.9V183H319 M320,182h-18.9v18.9H320V182L320,182z"/>
				</g>
			</g>
		</g>
		<g>
			<circle class="st2" cx="244.3" cy="125.4" r="1.5"/>
			<circle class="st2" cx="263.2" cy="125.4" r="1.5"/>
			<circle class="st2" cx="263.2" cy="125.4" r="1.5"/>
			<circle class="st2" cx="282.2" cy="125.4" r="1.5"/>
			<circle class="st2" cx="282.2" cy="125.4" r="1.5"/>
			<circle class="st2" cx="301.1" cy="125.4" r="1.5"/>
			<circle class="st2" cx="301.1" cy="125.4" r="1.5"/>
			<circle class="st2" cx="244.3" cy="144.3" r="1.5"/>
			<circle class="st2" cx="263.2" cy="144.3" r="1.5"/>
			<circle class="st2" cx="263.2" cy="144.3" r="1.5"/>
			<circle class="st2" cx="282.2" cy="144.3" r="1.5"/>
			<circle class="st2" cx="282.2" cy="144.3" r="1.5"/>
			<circle class="st2" cx="301.1" cy="144.3" r="1.5"/>
			<circle class="st2" cx="301.1" cy="144.3" r="1.5"/>
			<circle class="st2" cx="244.3" cy="144.3" r="1.5"/>
			<circle class="st2" cx="263.2" cy="144.3" r="1.5"/>
			<circle class="st2" cx="244.3" cy="163.1" r="1.5"/>
			<circle class="st2" cx="263.2" cy="163.1" r="1.5"/>
			<circle class="st2" cx="263.2" cy="144.3" r="1.5"/>
			<circle class="st2" cx="282.2" cy="144.3" r="1.5"/>
			<circle class="st2" cx="263.2" cy="163.1" r="1.5"/>
			<circle class="st2" cx="282.2" cy="163.1" r="1.5"/>
			<circle class="st2" cx="282.2" cy="144.3" r="1.5"/>
			<circle class="st2" cx="301.1" cy="144.3" r="1.5"/>
			<circle class="st2" cx="282.2" cy="163.1" r="1.5"/>
			<circle class="st2" cx="301.1" cy="163.1" r="1.5"/>
			<circle class="st2" cx="301.1" cy="144.3" r="1.5"/>
			<circle class="st2" cx="301.1" cy="163.1" r="1.5"/>
			<circle class="st2" cx="244.3" cy="163.1" r="1.5"/>
			<circle class="st2" cx="263.2" cy="163.1" r="1.5"/>
			<circle class="st2" cx="244.3" cy="182" r="1.5"/>
			<circle class="st2" cx="263.2" cy="182" r="1.5"/>
			<circle class="st2" cx="263.2" cy="163.1" r="1.5"/>
			<circle class="st2" cx="282.2" cy="163.1" r="1.5"/>
			<circle class="st2" cx="263.2" cy="182" r="1.5"/>
			<circle class="st2" cx="282.2" cy="182" r="1.5"/>
			<circle class="st2" cx="282.2" cy="163.1" r="1.5"/>
			<circle class="st2" cx="301.1" cy="163.1" r="1.5"/>
			<circle class="st2" cx="282.2" cy="182" r="1.5"/>
			<circle class="st2" cx="301.1" cy="182" r="1.5"/>
			<circle class="st2" cx="301.1" cy="163.1" r="1.5"/>
			<circle class="st2" cx="301.1" cy="182" r="1.5"/>
			<circle class="st2" cx="244.3" cy="182" r="1.5"/>
			<circle class="st2" cx="263.2" cy="182" r="1.5"/>
			<circle class="st2" cx="244.3" cy="200.9" r="1.5"/>
			<circle class="st2" cx="263.2" cy="200.9" r="1.5"/>
			<circle class="st2" cx="263.2" cy="182" r="1.5"/>
			<circle class="st2" cx="282.2" cy="182" r="1.5"/>
			<circle class="st2" cx="263.2" cy="200.9" r="1.5"/>
			<circle class="st2" cx="282.2" cy="200.9" r="1.5"/>
			<circle class="st2" cx="282.2" cy="182" r="1.5"/>
			<circle class="st2" cx="301.1" cy="182" r="1.5"/>
			<circle class="st2" cx="282.2" cy="200.9" r="1.5"/>
			<circle class="st2" cx="301.1" cy="200.9" r="1.5"/>
			<circle class="st2" cx="301.1" cy="182" r="1.5"/>
			<circle class="st2" cx="301.1" cy="200.9" r="1.5"/>
			<circle class="st2" cx="244.3" cy="200.9" r="1.5"/>
			<circle class="st2" cx="263.2" cy="200.9" r="1.5"/>
			<circle class="st2" cx="263.2" cy="200.9" r="1.5"/>
			<circle class="st2" cx="282.2" cy="200.9" r="1.5"/>
			<circle class="st2" cx="282.2" cy="200.9" r="1.5"/>
			<circle class="st2" cx="301.1" cy="200.9" r="1.5"/>
			<circle class="st2" cx="301.1" cy="200.9" r="1.5"/>
			<circle class="st2" cx="244.3" cy="200.9" r="1.5"/>
			<circle class="st2" cx="263.2" cy="200.9" r="1.5"/>
			<circle class="st2" cx="263.2" cy="200.9" r="1.5"/>
			<circle class="st2" cx="282.2" cy="200.9" r="1.5"/>
			<circle class="st2" cx="282.2" cy="200.9" r="1.5"/>
			<circle class="st2" cx="301.1" cy="200.9" r="1.5"/>
			<circle class="st2" cx="301.1" cy="200.9" r="1.5"/>
			<circle class="st2" cx="320" cy="125.4" r="1.5"/>
			<circle class="st2" cx="320" cy="125.4" r="1.5"/>
			<circle class="st2" cx="320" cy="144.3" r="1.5"/>
			<circle class="st2" cx="320" cy="144.3" r="1.5"/>
			<circle class="st2" cx="320" cy="144.3" r="1.5"/>
			<circle class="st2" cx="320" cy="163.1" r="1.5"/>
			<circle class="st2" cx="320" cy="144.3" r="1.5"/>
			<circle class="st2" cx="320" cy="163.1" r="1.5"/>
			<circle class="st2" cx="320" cy="163.1" r="1.5"/>
			<circle class="st2" cx="320" cy="182" r="1.5"/>
			<circle class="st2" cx="320" cy="163.1" r="1.5"/>
			<circle class="st2" cx="320" cy="182" r="1.5"/>
			<circle class="st2" cx="320" cy="182" r="1.5"/>
			<circle class="st2" cx="320" cy="200.9" r="1.5"/>
			<circle class="st2" cx="320" cy="182" r="1.5"/>
			<circle class="st2" cx="320" cy="200.9" r="1.5"/>
			<circle class="st2" cx="320" cy="200.9" r="1.5"/>
			<circle class="st2" cx="320" cy="200.9" r="1.5"/>
			<circle class="st2" cx="320" cy="200.9" r="1.5"/>
			<circle class="st2" cx="320" cy="200.9" r="1.5"/>
		</g>
	</g>
	<g>
		<g>
			<g>
				<rect x="169.1" y="125.9" class="st0" width="17.9" height="17.9"/>
				<g>
					<path class="st1" d="M186.5,126.4v16.9h-16.9v-16.9H186.5 M187.5,125.4h-18.9v18.9h18.9V125.4L187.5,125.4z"/>
				</g>
			</g>
			<g>
				<rect x="188.1" y="125.9" class="st0" width="17.9" height="17.9"/>
				<g>
					<path class="st1" d="M205.4,126.4v16.9h-16.9v-16.9H205.4 M206.4,125.4h-18.9v18.9h18.9V125.4L206.4,125.4z"/>
				</g>
			</g>
			<g>
				<rect x="207" y="125.9" class="st0" width="17.9" height="17.9"/>
				<g>
					<path class="st1" d="M224.4,126.4v16.9h-16.9v-16.9H224.4 M225.4,125.4h-18.9v18.9h18.9V125.4L225.4,125.4z"/>
				</g>
			</g>
			<g>
				<rect x="169.1" y="144.8" class="st0" width="17.9" height="17.9"/>
				<g>
					<path class="st1" d="M186.5,145.3v16.9h-16.9v-16.9H186.5 M187.5,144.3h-18.9v18.9h18.9V144.3L187.5,144.3z"/>
				</g>
			</g>
			<g>
				<rect x="188.1" y="144.8" class="st0" width="17.9" height="17.9"/>
				<g>
					<path class="st1" d="M205.4,145.3v16.9h-16.9v-16.9H205.4 M206.4,144.3h-18.9v18.9h18.9V144.3L206.4,144.3z"/>
				</g>
			</g>
			<g>
				<rect x="207" y="144.8" class="st0" width="17.9" height="17.9"/>
				<g>
					<path class="st1" d="M224.4,145.3v16.9h-16.9v-16.9H224.4 M225.4,144.3h-18.9v18.9h18.9V144.3L225.4,144.3z"/>
				</g>
			</g>
			<g>
				<rect x="169.1" y="163.6" class="st0" width="17.9" height="17.9"/>
				<g>
					<path class="st1" d="M186.5,164.1V181h-16.9v-16.9H186.5 M187.5,163.1h-18.9V182h18.9V163.1L187.5,163.1z"/>
				</g>
			</g>
			<g>
				<rect x="188.1" y="163.6" class="st0" width="17.9" height="17.9"/>
				<g>
					<path class="st1" d="M205.4,164.1V181h-16.9v-16.9H205.4 M206.4,163.1h-18.9V182h18.9V163.1L206.4,163.1z"/>
				</g>
			</g>
			<g>
				<rect x="207" y="163.6" class="st0" width="17.9" height="17.9"/>
				<g>
					<path class="st1" d="M224.4,164.1V181h-16.9v-16.9H224.4 M225.4,163.1h-18.9V182h18.9V163.1L225.4,163.1z"/>
				</g>
			</g>
			<g>
				<rect x="169.1" y="182.5" class="st0" width="17.9" height="17.9"/>
				<g>
					<path class="st1" d="M186.5,183v16.9h-16.9V183H186.5 M187.5,182h-18.9v18.9h18.9V182L187.5,182z"/>
				</g>
			</g>
			<g>
				<rect x="188.1" y="182.5" class="st0" width="17.9" height="17.9"/>
				<g>
					<path class="st1" d="M205.4,183v16.9h-16.9V183H205.4 M206.4,182h-18.9v18.9h18.9V182L206.4,182z"/>
				</g>
			</g>
			<g>
				<rect x="207" y="182.5" class="st0" width="17.9" height="17.9"/>
				<g>
					<path class="st1" d="M224.4,183v16.9h-16.9V183H224.4 M225.4,182h-18.9v18.9h18.9V182L225.4,182z"/>
				</g>
			</g>
			<g>
				<rect x="225.9" y="125.9" class="st0" width="17.9" height="17.9"/>
				<g>
					<path class="st1" d="M243.3,126.4v16.9h-16.9v-16.9H243.3 M244.3,125.4h-18.9v18.9h18.9V125.4L244.3,125.4z"/>
				</g>
			</g>
			<g>
				<rect x="225.9" y="144.8" class="st0" width="17.9" height="17.9"/>
				<g>
					<path class="st1" d="M243.3,145.3v16.9h-16.9v-16.9H243.3 M244.3,144.3h-18.9v18.9h18.9V144.3L244.3,144.3z"/>
				</g>
			</g>
			<g>
				<rect x="225.9" y="163.6" class="st0" width="17.9" height="17.9"/>
				<g>
					<path class="st1" d="M243.3,164.1V181h-16.9v-16.9H243.3 M244.3,163.1h-18.9V182h18.9V163.1L244.3,163.1z"/>
				</g>
			</g>
			<g>
				<rect x="225.9" y="182.5" class="st0" width="17.9" height="17.9"/>
				<g>
					<path class="st1" d="M243.3,183v16.9h-16.9V183H243.3 M244.3,182h-18.9v18.9h18.9V182L244.3,182z"/>
				</g>
			</g>
		</g>
		<g>
			<circle class="st2" cx="168.5" cy="125.4" r="1.5"/>
			<circle class="st2" cx="187.5" cy="125.4" r="1.5"/>
			<circle class="st2" cx="187.5" cy="125.4" r="1.5"/>
			<circle class="st2" cx="206.4" cy="125.4" r="1.5"/>
			<circle class="st2" cx="206.4" cy="125.4" r="1.5"/>
			<circle class="st2" cx="225.4" cy="125.4" r="1.5"/>
			<circle class="st2" cx="225.4" cy="125.4" r="1.5"/>
			<circle class="st2" cx="168.5" cy="144.3" r="1.5"/>
			<circle class="st2" cx="187.5" cy="144.3" r="1.5"/>
			<circle class="st2" cx="187.5" cy="144.3" r="1.5"/>
			<circle class="st2" cx="206.4" cy="144.3" r="1.5"/>
			<circle class="st2" cx="206.4" cy="144.3" r="1.5"/>
			<circle class="st2" cx="225.4" cy="144.3" r="1.5"/>
			<circle class="st2" cx="225.4" cy="144.3" r="1.5"/>
			<circle class="st2" cx="168.5" cy="144.3" r="1.5"/>
			<circle class="st2" cx="187.5" cy="144.3" r="1.5"/>
			<circle class="st2" cx="168.5" cy="163.1" r="1.5"/>
			<circle class="st2" cx="187.5" cy="163.1" r="1.5"/>
			<circle class="st2" cx="187.5" cy="144.3" r="1.5"/>
			<circle class="st2" cx="206.4" cy="144.3" r="1.5"/>
			<circle class="st2" cx="187.5" cy="163.1" r="1.5"/>
			<circle class="st2" cx="206.4" cy="163.1" r="1.5"/>
			<circle class="st2" cx="206.4" cy="144.3" r="1.5"/>
			<circle class="st2" cx="225.4" cy="144.3" r="1.5"/>
			<circle class="st2" cx="206.4" cy="163.1" r="1.5"/>
			<circle class="st2" cx="225.4" cy="163.1" r="1.5"/>
			<circle class="st2" cx="225.4" cy="144.3" r="1.5"/>
			<circle class="st2" cx="225.4" cy="163.1" r="1.5"/>
			<circle class="st2" cx="168.5" cy="163.1" r="1.5"/>
			<circle class="st2" cx="187.5" cy="163.1" r="1.5"/>
			<circle class="st2" cx="168.5" cy="182" r="1.5"/>
			<circle class="st2" cx="187.5" cy="182" r="1.5"/>
			<circle class="st2" cx="187.5" cy="163.1" r="1.5"/>
			<circle class="st2" cx="206.4" cy="163.1" r="1.5"/>
			<circle class="st2" cx="187.5" cy="182" r="1.5"/>
			<circle class="st2" cx="206.4" cy="182" r="1.5"/>
			<circle class="st2" cx="206.4" cy="163.1" r="1.5"/>
			<circle class="st2" cx="225.4" cy="163.1" r="1.5"/>
			<circle class="st2" cx="206.4" cy="182" r="1.5"/>
			<circle class="st2" cx="225.4" cy="182" r="1.5"/>
			<circle class="st2" cx="225.4" cy="163.1" r="1.5"/>
			<circle class="st2" cx="225.4" cy="182" r="1.5"/>
			<circle class="st2" cx="168.5" cy="182" r="1.5"/>
			<circle class="st2" cx="187.5" cy="182" r="1.5"/>
			<circle class="st2" cx="168.5" cy="200.9" r="1.5"/>
			<circle class="st2" cx="187.5" cy="200.9" r="1.5"/>
			<circle class="st2" cx="187.5" cy="182" r="1.5"/>
			<circle class="st2" cx="206.4" cy="182" r="1.5"/>
			<circle class="st2" cx="187.5" cy="200.9" r="1.5"/>
			<circle class="st2" cx="206.4" cy="200.9" r="1.5"/>
			<circle class="st2" cx="206.4" cy="182" r="1.5"/>
			<circle class="st2" cx="225.4" cy="182" r="1.5"/>
			<circle class="st2" cx="206.4" cy="200.9" r="1.5"/>
			<circle class="st2" cx="225.4" cy="200.9" r="1.5"/>
			<circle class="st2" cx="225.4" cy="182" r="1.5"/>
			<circle class="st2" cx="225.4" cy="200.9" r="1.5"/>
			<circle class="st2" cx="168.5" cy="200.9" r="1.5"/>
			<circle class="st2" cx="187.5" cy="200.9" r="1.5"/>
			<circle class="st2" cx="187.5" cy="200.9" r="1.5"/>
			<circle class="st2" cx="206.4" cy="200.9" r="1.5"/>
			<circle class="st2" cx="206.4" cy="200.9" r="1.5"/>
			<circle class="st2" cx="225.4" cy="200.9" r="1.5"/>
			<circle class="st2" cx="225.4" cy="200.9" r="1.5"/>
			<circle class="st2" cx="168.5" cy="200.9" r="1.5"/>
			<circle class="st2" cx="187.5" cy="200.9" r="1.5"/>
			<circle class="st2" cx="187.5" cy="200.9" r="1.5"/>
			<circle class="st2" cx="206.4" cy="200.9" r="1.5"/>
			<circle class="st2" cx="206.4" cy="200.9" r="1.5"/>
			<circle class="st2" cx="225.4" cy="200.9" r="1.5"/>
			<circle class="st2" cx="225.4" cy="200.9" r="1.5"/>
			<circle class="st2" cx="244.3" cy="125.4" r="1.5"/>
			<circle class="st2" cx="244.3" cy="125.4" r="1.5"/>
			<circle class="st2" cx="244.3" cy="144.3" r="1.5"/>
			<circle class="st2" cx="244.3" cy="144.3" r="1.5"/>
			<circle class="st2" cx="244.3" cy="144.3" r="1.5"/>
			<circle class="st2" cx="244.3" cy="163.1" r="1.5"/>
			<circle class="st2" cx="244.3" cy="144.3" r="1.5"/>
			<circle class="st2" cx="244.3" cy="163.1" r="1.5"/>
			<circle class="st2" cx="244.3" cy="163.1" r="1.5"/>
			<circle class="st2" cx="244.3" cy="182" r="1.5"/>
			<circle class="st2" cx="244.3" cy="163.1" r="1.5"/>
			<circle class="st2" cx="244.3" cy="182" r="1.5"/>
			<circle class="st2" cx="244.3" cy="182" r="1.5"/>
			<circle class="st2" cx="244.3" cy="200.9" r="1.5"/>
			<circle class="st2" cx="244.3" cy="182" r="1.5"/>
			<circle class="st2" cx="244.3" cy="200.9" r="1.5"/>
			<circle class="st2" cx="244.3" cy="200.9" r="1.5"/>
			<circle class="st2" cx="244.3" cy="200.9" r="1.5"/>
			<circle class="st2" cx="244.3" cy="200.9" r="1.5"/>
			<circle class="st2" cx="244.3" cy="200.9" r="1.5"/>
		</g>
	</g>
	<g>
		<g>
			<rect x="244.8" y="50.3" class="st0" width="17.9" height="17.9"/>
			<g>
				<path class="st1" d="M262.2,50.8v16.9h-16.9V50.8H262.2 M263.2,49.8h-18.9v18.9h18.9V49.8L263.2,49.8z"/>
			</g>
		</g>
		<g>
			<rect x="263.8" y="50.3" class="st0" width="17.9" height="17.9"/>
			<g>
				<path class="st1" d="M281.2,50.8v16.9h-16.9V50.8H281.2 M282.2,49.8h-18.9v18.9h18.9V49.8L282.2,49.8z"/>
			</g>
		</g>
		<g>
			<rect x="282.7" y="50.3" class="st0" width="17.9" height="17.9"/>
			<g>
				<path class="st1" d="M300.1,50.8v16.9h-16.9V50.8H300.1 M301.1,49.8h-18.9v18.9h18.9V49.8L301.1,49.8z"/>
			</g>
		</g>
		<g>
			<rect x="244.8" y="69.2" class="st0" width="17.9" height="17.9"/>
			<g>
				<path class="st1" d="M262.2,69.7v16.9h-16.9V69.7H262.2 M263.2,68.7h-18.9v18.9h18.9V68.7L263.2,68.7z"/>
			</g>
		</g>
		<g>
			<rect x="263.8" y="69.2" class="st0" width="17.9" height="17.9"/>
			<g>
				<path class="st1" d="M281.2,69.7v16.9h-16.9V69.7H281.2 M282.2,68.7h-18.9v18.9h18.9V68.7L282.2,68.7z"/>
			</g>
		</g>
		<g>
			<rect x="282.7" y="69.2" class="st0" width="17.9" height="17.9"/>
			<g>
				<path class="st1" d="M300.1,69.7v16.9h-16.9V69.7H300.1 M301.1,68.7h-18.9v18.9h18.9V68.7L301.1,68.7z"/>
			</g>
		</g>
		<g>
			<rect x="244.8" y="88.1" class="st0" width="17.9" height="17.9"/>
			<g>
				<path class="st1" d="M262.2,88.6v16.9h-16.9V88.6H262.2 M263.2,87.6h-18.9v18.9h18.9V87.6L263.2,87.6z"/>
			</g>
		</g>
		<g>
			<rect x="263.8" y="88.1" class="st0" width="17.9" height="17.9"/>
			<g>
				<path class="st1" d="M281.2,88.6v16.9h-16.9V88.6H281.2 M282.2,87.6h-18.9v18.9h18.9V87.6L282.2,87.6z"/>
			</g>
		</g>
		<g>
			<rect x="282.7" y="88.1" class="st0" width="17.9" height="17.9"/>
			<g>
				<path class="st1" d="M300.1,88.6v16.9h-16.9V88.6H300.1 M301.1,87.6h-18.9v18.9h18.9V87.6L301.1,87.6z"/>
			</g>
		</g>
		<g>
			<rect x="244.8" y="107" class="st0" width="17.9" height="17.9"/>
			<g>
				<path class="st1" d="M262.2,107.5v16.9h-16.9v-16.9H262.2 M263.2,106.5h-18.9v18.9h18.9V106.5L263.2,106.5z"/>
			</g>
		</g>
		<g>
			<rect x="263.8" y="107" class="st0" width="17.9" height="17.9"/>
			<g>
				<path class="st1" d="M281.2,107.5v16.9h-16.9v-16.9H281.2 M282.2,106.5h-18.9v18.9h18.9V106.5L282.2,106.5z"/>
			</g>
		</g>
		<g>
			<rect x="282.7" y="107" class="st0" width="17.9" height="17.9"/>
			<g>
				<path class="st1" d="M300.1,107.5v16.9h-16.9v-16.9H300.1 M301.1,106.5h-18.9v18.9h18.9V106.5L301.1,106.5z"/>
			</g>
		</g>
		<g>
			<rect x="301.6" y="50.3" class="st0" width="17.9" height="17.9"/>
			<g>
				<path class="st1" d="M319,50.8v16.9h-16.9V50.8H319 M320,49.8h-18.9v18.9H320V49.8L320,49.8z"/>
			</g>
		</g>
		<g>
			<rect x="301.6" y="69.2" class="st0" width="17.9" height="17.9"/>
			<g>
				<path class="st1" d="M319,69.7v16.9h-16.9V69.7H319 M320,68.7h-18.9v18.9H320V68.7L320,68.7z"/>
			</g>
		</g>
		<g>
			<rect x="301.6" y="88.1" class="st0" width="17.9" height="17.9"/>
			<g>
				<path class="st1" d="M319,88.6v16.9h-16.9V88.6H319 M320,87.6h-18.9v18.9H320V87.6L320,87.6z"/>
			</g>
		</g>
		<g>
			<rect x="301.6" y="107" class="st0" width="17.9" height="17.9"/>
			<g>
				<path class="st1" d="M319,107.5v16.9h-16.9v-16.9H319 M320,106.5h-18.9v18.9H320V106.5L320,106.5z"/>
			</g>
		</g>
	</g>
	<g>
		<circle class="st2" cx="244.3" cy="49.8" r="1.5"/>
		<circle class="st2" cx="263.2" cy="49.8" r="1.5"/>
		<circle class="st2" cx="263.2" cy="49.8" r="1.5"/>
		<circle class="st2" cx="282.2" cy="49.8" r="1.5"/>
		<circle class="st2" cx="282.2" cy="49.8" r="1.5"/>
		<circle class="st2" cx="301.1" cy="49.8" r="1.5"/>
		<circle class="st2" cx="301.1" cy="49.8" r="1.5"/>
		<circle class="st2" cx="244.3" cy="68.7" r="1.5"/>
		<circle class="st2" cx="263.2" cy="68.7" r="1.5"/>
		<circle class="st2" cx="263.2" cy="68.7" r="1.5"/>
		<circle class="st2" cx="282.2" cy="68.7" r="1.5"/>
		<circle class="st2" cx="282.2" cy="68.7" r="1.5"/>
		<circle class="st2" cx="301.1" cy="68.7" r="1.5"/>
		<circle class="st2" cx="301.1" cy="68.7" r="1.5"/>
		<circle class="st2" cx="244.3" cy="68.7" r="1.5"/>
		<circle class="st2" cx="263.2" cy="68.7" r="1.5"/>
		<circle class="st2" cx="244.3" cy="87.6" r="1.5"/>
		<circle class="st2" cx="263.2" cy="87.6" r="1.5"/>
		<circle class="st2" cx="263.2" cy="68.7" r="1.5"/>
		<circle class="st2" cx="282.2" cy="68.7" r="1.5"/>
		<circle class="st2" cx="263.2" cy="87.6" r="1.5"/>
		<circle class="st2" cx="282.2" cy="87.6" r="1.5"/>
		<circle class="st2" cx="282.2" cy="68.7" r="1.5"/>
		<circle class="st2" cx="301.1" cy="68.7" r="1.5"/>
		<circle class="st2" cx="282.2" cy="87.6" r="1.5"/>
		<circle class="st2" cx="301.1" cy="87.6" r="1.5"/>
		<circle class="st2" cx="301.1" cy="68.7" r="1.5"/>
		<circle class="st2" cx="301.1" cy="87.6" r="1.5"/>
		<circle class="st2" cx="244.3" cy="87.6" r="1.5"/>
		<circle class="st2" cx="263.2" cy="87.6" r="1.5"/>
		<circle class="st2" cx="244.3" cy="106.5" r="1.5"/>
		<circle class="st2" cx="263.2" cy="106.5" r="1.5"/>
		<circle class="st2" cx="263.2" cy="87.6" r="1.5"/>
		<circle class="st2" cx="282.2" cy="87.6" r="1.5"/>
		<circle class="st2" cx="263.2" cy="106.5" r="1.5"/>
		<circle class="st2" cx="282.2" cy="106.5" r="1.5"/>
		<circle class="st2" cx="282.2" cy="87.6" r="1.5"/>
		<circle class="st2" cx="301.1" cy="87.6" r="1.5"/>
		<circle class="st2" cx="282.2" cy="106.5" r="1.5"/>
		<circle class="st2" cx="301.1" cy="106.5" r="1.5"/>
		<circle class="st2" cx="301.1" cy="87.6" r="1.5"/>
		<circle class="st2" cx="301.1" cy="106.5" r="1.5"/>
		<circle class="st2" cx="244.3" cy="106.5" r="1.5"/>
		<circle class="st2" cx="263.2" cy="106.5" r="1.5"/>
		<circle class="st2" cx="244.3" cy="125.4" r="1.5"/>
		<circle class="st2" cx="263.2" cy="125.4" r="1.5"/>
		<circle class="st2" cx="263.2" cy="106.5" r="1.5"/>
		<circle class="st2" cx="282.2" cy="106.5" r="1.5"/>
		<circle class="st2" cx="263.2" cy="125.4" r="1.5"/>
		<circle class="st2" cx="282.2" cy="125.4" r="1.5"/>
		<circle class="st2" cx="282.2" cy="106.5" r="1.5"/>
		<circle class="st2" cx="301.1" cy="106.5" r="1.5"/>
		<circle class="st2" cx="282.2" cy="125.4" r="1.5"/>
		<circle class="st2" cx="301.1" cy="125.4" r="1.5"/>
		<circle class="st2" cx="301.1" cy="106.5" r="1.5"/>
		<circle class="st2" cx="301.1" cy="125.4" r="1.5"/>
		<circle class="st2" cx="244.3" cy="125.4" r="1.5"/>
		<circle class="st2" cx="263.2" cy="125.4" r="1.5"/>
		<circle class="st2" cx="263.2" cy="125.4" r="1.5"/>
		<circle class="st2" cx="282.2" cy="125.4" r="1.5"/>
		<circle class="st2" cx="282.2" cy="125.4" r="1.5"/>
		<circle class="st2" cx="301.1" cy="125.4" r="1.5"/>
		<circle class="st2" cx="301.1" cy="125.4" r="1.5"/>
		<circle class="st2" cx="244.3" cy="125.4" r="1.5"/>
		<circle class="st2" cx="263.2" cy="125.4" r="1.5"/>
		<circle class="st2" cx="263.2" cy="125.4" r="1.5"/>
		<circle class="st2" cx="282.2" cy="125.4" r="1.5"/>
		<circle class="st2" cx="282.2" cy="125.4" r="1.5"/>
		<circle class="st2" cx="301.1" cy="125.4" r="1.5"/>
		<circle class="st2" cx="301.1" cy="125.4" r="1.5"/>
		<circle class="st2" cx="320" cy="49.8" r="1.5"/>
		<circle class="st2" cx="320" cy="49.8" r="1.5"/>
		<circle class="st2" cx="320" cy="68.7" r="1.5"/>
		<circle class="st2" cx="320" cy="68.7" r="1.5"/>
		<circle class="st2" cx="320" cy="68.7" r="1.5"/>
		<circle class="st2" cx="320" cy="87.6" r="1.5"/>
		<circle class="st2" cx="320" cy="68.7" r="1.5"/>
		<circle class="st2" cx="320" cy="87.6" r="1.5"/>
		<circle class="st2" cx="320" cy="87.6" r="1.5"/>
		<circle class="st2" cx="320" cy="106.5" r="1.5"/>
		<circle class="st2" cx="320" cy="87.6" r="1.5"/>
		<circle class="st2" cx="320" cy="106.5" r="1.5"/>
		<circle class="st2" cx="320" cy="106.5" r="1.5"/>
		<circle class="st2" cx="320" cy="125.4" r="1.5"/>
		<circle class="st2" cx="320" cy="106.5" r="1.5"/>
		<circle class="st2" cx="320" cy="125.4" r="1.5"/>
		<circle class="st2" cx="320" cy="125.4" r="1.5"/>
		<circle class="st2" cx="320" cy="125.4" r="1.5"/>
		<circle class="st2" cx="320" cy="125.4" r="1.5"/>
		<circle class="st2" cx="320" cy="125.4" r="1.5"/>
	</g>
	<g>
		<g>
			<g>
				<rect x="169.1" y="50.3" class="st0" width="17.9" height="17.9"/>
				<g>
					<path class="st1" d="M186.5,50.8v16.9h-16.9V50.8H186.5 M187.5,49.8h-18.9v18.9h18.9V49.8L187.5,49.8z"/>
				</g>
			</g>
			<g>
				<rect x="188.1" y="50.3" class="st0" width="17.9" height="17.9"/>
				<g>
					<path class="st1" d="M205.4,50.8v16.9h-16.9V50.8H205.4 M206.4,49.8h-18.9v18.9h18.9V49.8L206.4,49.8z"/>
				</g>
			</g>
			<g>
				<rect x="207" y="50.3" class="st0" width="17.9" height="17.9"/>
				<g>
					<path class="st1" d="M224.4,50.8v16.9h-16.9V50.8H224.4 M225.4,49.8h-18.9v18.9h18.9V49.8L225.4,49.8z"/>
				</g>
			</g>
			<g>
				<rect x="169.1" y="69.2" class="st0" width="17.9" height="17.9"/>
				<g>
					<path class="st1" d="M186.5,69.7v16.9h-16.9V69.7H186.5 M187.5,68.7h-18.9v18.9h18.9V68.7L187.5,68.7z"/>
				</g>
			</g>
			<g>
				<rect x="188.1" y="69.2" class="st0" width="17.9" height="17.9"/>
				<g>
					<path class="st1" d="M205.4,69.7v16.9h-16.9V69.7H205.4 M206.4,68.7h-18.9v18.9h18.9V68.7L206.4,68.7z"/>
				</g>
			</g>
			<g>
				<rect x="207" y="69.2" class="st0" width="17.9" height="17.9"/>
				<g>
					<path class="st1" d="M224.4,69.7v16.9h-16.9V69.7H224.4 M225.4,68.7h-18.9v18.9h18.9V68.7L225.4,68.7z"/>
				</g>
			</g>
			<g>
				<rect x="169.1" y="88.1" class="st0" width="17.9" height="17.9"/>
				<g>
					<path class="st1" d="M186.5,88.6v16.9h-16.9V88.6H186.5 M187.5,87.6h-18.9v18.9h18.9V87.6L187.5,87.6z"/>
				</g>
			</g>
			<g>
				<rect x="188.1" y="88.1" class="st0" width="17.9" height="17.9"/>
				<g>
					<path class="st1" d="M205.4,88.6v16.9h-16.9V88.6H205.4 M206.4,87.6h-18.9v18.9h18.9V87.6L206.4,87.6z"/>
				</g>
			</g>
			<g>
				<rect x="207" y="88.1" class="st0" width="17.9" height="17.9"/>
				<g>
					<path class="st1" d="M224.4,88.6v16.9h-16.9V88.6H224.4 M225.4,87.6h-18.9v18.9h18.9V87.6L225.4,87.6z"/>
				</g>
			</g>
			<g>
				<rect x="169.1" y="107" class="st0" width="17.9" height="17.9"/>
				<g>
					<path class="st1" d="M186.5,107.5v16.9h-16.9v-16.9H186.5 M187.5,106.5h-18.9v18.9h18.9V106.5L187.5,106.5z"/>
				</g>
			</g>
			<g>
				<rect x="188.1" y="107" class="st0" width="17.9" height="17.9"/>
				<g>
					<path class="st1" d="M205.4,107.5v16.9h-16.9v-16.9H205.4 M206.4,106.5h-18.9v18.9h18.9V106.5L206.4,106.5z"/>
				</g>
			</g>
			<g>
				<rect x="207" y="107" class="st0" width="17.9" height="17.9"/>
				<g>
					<path class="st1" d="M224.4,107.5v16.9h-16.9v-16.9H224.4 M225.4,106.5h-18.9v18.9h18.9V106.5L225.4,106.5z"/>
				</g>
			</g>
			<g>
				<rect x="225.9" y="50.3" class="st0" width="17.9" height="17.9"/>
				<g>
					<path class="st1" d="M243.3,50.8v16.9h-16.9V50.8H243.3 M244.3,49.8h-18.9v18.9h18.9V49.8L244.3,49.8z"/>
				</g>
			</g>
			<g>
				<rect x="225.9" y="69.2" class="st0" width="17.9" height="17.9"/>
				<g>
					<path class="st1" d="M243.3,69.7v16.9h-16.9V69.7H243.3 M244.3,68.7h-18.9v18.9h18.9V68.7L244.3,68.7z"/>
				</g>
			</g>
			<g>
				<rect x="225.9" y="88.1" class="st0" width="17.9" height="17.9"/>
				<g>
					<path class="st1" d="M243.3,88.6v16.9h-16.9V88.6H243.3 M244.3,87.6h-18.9v18.9h18.9V87.6L244.3,87.6z"/>
				</g>
			</g>
			<g>
				<rect x="225.9" y="107" class="st0" width="17.9" height="17.9"/>
				<g>
					<path class="st1" d="M243.3,107.5v16.9h-16.9v-16.9H243.3 M244.3,106.5h-18.9v18.9h18.9V106.5L244.3,106.5z"/>
				</g>
			</g>
		</g>
		<g>
			<circle class="st2" cx="168.5" cy="49.8" r="1.5"/>
			<circle class="st2" cx="187.5" cy="49.8" r="1.5"/>
			<circle class="st2" cx="187.5" cy="49.8" r="1.5"/>
			<circle class="st2" cx="206.4" cy="49.8" r="1.5"/>
			<circle class="st2" cx="206.4" cy="49.8" r="1.5"/>
			<circle class="st2" cx="225.4" cy="49.8" r="1.5"/>
			<circle class="st2" cx="225.4" cy="49.8" r="1.5"/>
			<circle class="st2" cx="168.5" cy="68.7" r="1.5"/>
			<circle class="st2" cx="187.5" cy="68.7" r="1.5"/>
			<circle class="st2" cx="187.5" cy="68.7" r="1.5"/>
			<circle class="st2" cx="206.4" cy="68.7" r="1.5"/>
			<circle class="st2" cx="206.4" cy="68.7" r="1.5"/>
			<circle class="st2" cx="225.4" cy="68.7" r="1.5"/>
			<circle class="st2" cx="225.4" cy="68.7" r="1.5"/>
			<circle class="st2" cx="168.5" cy="68.7" r="1.5"/>
			<circle class="st2" cx="187.5" cy="68.7" r="1.5"/>
			<circle class="st2" cx="168.5" cy="87.6" r="1.5"/>
			<circle class="st2" cx="187.5" cy="87.6" r="1.5"/>
			<circle class="st2" cx="187.5" cy="68.7" r="1.5"/>
			<circle class="st2" cx="206.4" cy="68.7" r="1.5"/>
			<circle class="st2" cx="187.5" cy="87.6" r="1.5"/>
			<circle class="st2" cx="206.4" cy="87.6" r="1.5"/>
			<circle class="st2" cx="206.4" cy="68.7" r="1.5"/>
			<circle class="st2" cx="225.4" cy="68.7" r="1.5"/>
			<circle class="st2" cx="206.4" cy="87.6" r="1.5"/>
			<circle class="st2" cx="225.4" cy="87.6" r="1.5"/>
			<circle class="st2" cx="225.4" cy="68.7" r="1.5"/>
			<circle class="st2" cx="225.4" cy="87.6" r="1.5"/>
			<circle class="st2" cx="168.5" cy="87.6" r="1.5"/>
			<circle class="st2" cx="187.5" cy="87.6" r="1.5"/>
			<circle class="st2" cx="168.5" cy="106.5" r="1.5"/>
			<circle class="st2" cx="187.5" cy="106.5" r="1.5"/>
			<circle class="st2" cx="187.5" cy="87.6" r="1.5"/>
			<circle class="st2" cx="206.4" cy="87.6" r="1.5"/>
			<circle class="st2" cx="187.5" cy="106.5" r="1.5"/>
			<circle class="st2" cx="206.4" cy="106.5" r="1.5"/>
			<circle class="st2" cx="206.4" cy="87.6" r="1.5"/>
			<circle class="st2" cx="225.4" cy="87.6" r="1.5"/>
			<circle class="st2" cx="206.4" cy="106.5" r="1.5"/>
			<circle class="st2" cx="225.4" cy="106.5" r="1.5"/>
			<circle class="st2" cx="225.4" cy="87.6" r="1.5"/>
			<circle class="st2" cx="225.4" cy="106.5" r="1.5"/>
			<circle class="st2" cx="168.5" cy="106.5" r="1.5"/>
			<circle class="st2" cx="187.5" cy="106.5" r="1.5"/>
			<circle class="st2" cx="168.5" cy="125.4" r="1.5"/>
			<circle class="st2" cx="187.5" cy="125.4" r="1.5"/>
			<circle class="st2" cx="187.5" cy="106.5" r="1.5"/>
			<circle class="st2" cx="206.4" cy="106.5" r="1.5"/>
			<circle class="st2" cx="187.5" cy="125.4" r="1.5"/>
			<circle class="st2" cx="206.4" cy="125.4" r="1.5"/>
			<circle class="st2" cx="206.4" cy="106.5" r="1.5"/>
			<circle class="st2" cx="225.4" cy="106.5" r="1.5"/>
			<circle class="st2" cx="206.4" cy="125.4" r="1.5"/>
			<circle class="st2" cx="225.4" cy="125.4" r="1.5"/>
			<circle class="st2" cx="225.4" cy="106.5" r="1.5"/>
			<circle class="st2" cx="225.4" cy="125.4" r="1.5"/>
			<circle class="st2" cx="168.5" cy="125.4" r="1.5"/>
			<circle class="st2" cx="187.5" cy="125.4" r="1.5"/>
			<circle class="st2" cx="187.5" cy="125.4" r="1.5"/>
			<circle class="st2" cx="206.4" cy="125.4" r="1.5"/>
			<circle class="st2" cx="206.4" cy="125.4" r="1.5"/>
			<circle class="st2" cx="225.4" cy="125.4" r="1.5"/>
			<circle class="st2" cx="225.4" cy="125.4" r="1.5"/>
			<circle class="st2" cx="168.5" cy="125.4" r="1.5"/>
			<circle class="st2" cx="187.5" cy="125.4" r="1.5"/>
			<circle class="st2" cx="187.5" cy="125.4" r="1.5"/>
			<circle class="st2" cx="206.4" cy="125.4" r="1.5"/>
			<circle class="st2" cx="206.4" cy="125.4" r="1.5"/>
			<circle class="st2" cx="225.4" cy="125.4" r="1.5"/>
			<circle class="st2" cx="225.4" cy="125.4" r="1.5"/>
			<circle class="st2" cx="244.3" cy="49.8" r="1.5"/>
			<circle class="st2" cx="244.3" cy="49.8" r="1.5"/>
			<circle class="st2" cx="244.3" cy="68.7" r="1.5"/>
			<circle class="st2" cx="244.3" cy="68.7" r="1.5"/>
			<circle class="st2" cx="244.3" cy="68.7" r="1.5"/>
			<circle class="st2" cx="244.3" cy="87.6" r="1.5"/>
			<circle class="st2" cx="244.3" cy="68.7" r="1.5"/>
			<circle class="st2" cx="244.3" cy="87.6" r="1.5"/>
			<circle class="st2" cx="244.3" cy="87.6" r="1.5"/>
			<circle class="st2" cx="244.3" cy="106.5" r="1.5"/>
			<circle class="st2" cx="244.3" cy="87.6" r="1.5"/>
			<circle class="st2" cx="244.3" cy="106.5" r="1.5"/>
			<circle class="st2" cx="244.3" cy="106.5" r="1.5"/>
			<circle class="st2" cx="244.3" cy="125.4" r="1.5"/>
			<circle class="st2" cx="244.3" cy="106.5" r="1.5"/>
			<circle class="st2" cx="244.3" cy="125.4" r="1.5"/>
			<circle class="st2" cx="244.3" cy="125.4" r="1.5"/>
			<circle class="st2" cx="244.3" cy="125.4" r="1.5"/>
			<circle class="st2" cx="244.3" cy="125.4" r="1.5"/>
			<circle class="st2" cx="244.3" cy="125.4" r="1.5"/>
		</g>
	</g>
</g>
<g>
	<polygon class="st3" points="245,106.5 279,106.5 245,123.4 	"/>
	<path class="st4" d="M275.8,107.3l-30,15v-15H275.8 M282.2,105.8h-37.9v18.9L282.2,105.8L282.2,105.8z"/>
</g>
<g>
	<polygon class="st3" points="245.5,125.4 262.5,125.4 262.5,159.3 	"/>
	<path class="st4" d="M261.7,126.2v29.9l-15-29.9L261.7,126.2 M263.2,124.7h-18.9l18.9,37.8V124.7L263.2,124.7z"/>
</g>
<g>
	<polygon class="st3" points="226.1,123.9 226.1,90.1 243,123.9 	"/>
	<path class="st4" d="M226.9,93.2l15,29.9h-15V93.2 M225.4,86.9v37.8h18.9L225.4,86.9L225.4,86.9z"/>
</g>
<g>
	<polygon class="st3" points="243.6,142.9 209.6,142.9 243.6,126 	"/>
	<path class="st4" d="M212.8,142.1l30-15v15H212.8 M206.4,143.6h37.9v-18.9L206.4,143.6L206.4,143.6z"/>
</g>
</svg>
