<?xml version="1.0" encoding="utf-8"?>
<!-- Generator: Adobe Illustrator 22.1.0, SVG Export Plug-In . SVG Version: 6.00 Build 0)  -->
<svg version="1.1" id="Layer_1" xmlns="http://www.w3.org/2000/svg" xmlns:xlink="http://www.w3.org/1999/xlink" x="0px" y="0px"
	 viewBox="0 0 336.7 400" style="enable-background:new 0 0 336.7 400;" xml:space="preserve">
<style type="text/css">
	.st0{fill:#FADC3C;}
	.st1{fill:#E7C42A;}
	.st2{fill:#B0941D;stroke:#B0941D;stroke-width:0.999;stroke-miterlimit:10;}
	.st3{fill:#F24044;}
	.st4{fill:#B3040F;}
</style>
<g>
	<g>
		<g>
			<g>
				<rect x="93.4" y="276.3" class="st0" width="17.9" height="17.9"/>
				<g>
					<path class="st1" d="M110.8,276.8v16.9H93.9v-16.9H110.8 M111.8,275.8H92.9v18.9h18.9V275.8L111.8,275.8z"/>
				</g>
			</g>
			<g>
				<rect x="112.4" y="276.3" class="st0" width="17.9" height="17.9"/>
				<g>
					<path class="st1" d="M129.8,276.8v16.9h-16.9v-16.9H129.8 M130.8,275.8h-18.9v18.9h18.9V275.8L130.8,275.8z"/>
				</g>
			</g>
			<g>
				<rect x="131.3" y="276.3" class="st0" width="17.9" height="17.9"/>
				<g>
					<path class="st1" d="M148.7,276.8v16.9h-16.9v-16.9H148.7 M149.7,275.8h-18.9v18.9h18.9V275.8L149.7,275.8z"/>
				</g>
			</g>
			<g>
				<rect x="93.4" y="295.1" class="st0" width="17.9" height="17.9"/>
				<g>
					<path class="st1" d="M110.8,295.6v16.9H93.9v-16.9H110.8 M111.8,294.6H92.9v18.9h18.9V294.6L111.8,294.6z"/>
				</g>
			</g>
			<g>
				<rect x="112.4" y="295.1" class="st0" width="17.9" height="17.9"/>
				<g>
					<path class="st1" d="M129.8,295.6v16.9h-16.9v-16.9H129.8 M130.8,294.6h-18.9v18.9h18.9V294.6L130.8,294.6z"/>
				</g>
			</g>
			<g>
				<rect x="131.3" y="295.1" class="st0" width="17.9" height="17.9"/>
				<g>
					<path class="st1" d="M148.7,295.6v16.9h-16.9v-16.9H148.7 M149.7,294.6h-18.9v18.9h18.9V294.6L149.7,294.6z"/>
				</g>
			</g>
			<g>
				<rect x="93.4" y="314" class="st0" width="17.9" height="17.9"/>
				<g>
					<path class="st1" d="M110.8,314.5v16.9H93.9v-16.9H110.8 M111.8,313.5H92.9v18.9h18.9V313.5L111.8,313.5z"/>
				</g>
			</g>
			<g>
				<rect x="112.4" y="314" class="st0" width="17.9" height="17.9"/>
				<g>
					<path class="st1" d="M129.8,314.5v16.9h-16.9v-16.9H129.8 M130.8,313.5h-18.9v18.9h18.9V313.5L130.8,313.5z"/>
				</g>
			</g>
			<g>
				<rect x="131.3" y="314" class="st0" width="17.9" height="17.9"/>
				<g>
					<path class="st1" d="M148.7,314.5v16.9h-16.9v-16.9H148.7 M149.7,313.5h-18.9v18.9h18.9V313.5L149.7,313.5z"/>
				</g>
			</g>
			<g>
				<rect x="93.4" y="332.9" class="st0" width="17.9" height="17.9"/>
				<g>
					<path class="st1" d="M110.8,333.4v16.9H93.9v-16.9H110.8 M111.8,332.4H92.9v18.9h18.9V332.4L111.8,332.4z"/>
				</g>
			</g>
			<g>
				<rect x="112.4" y="332.9" class="st0" width="17.9" height="17.9"/>
				<g>
					<path class="st1" d="M129.8,333.4v16.9h-16.9v-16.9H129.8 M130.8,332.4h-18.9v18.9h18.9V332.4L130.8,332.4z"/>
				</g>
			</g>
			<g>
				<rect x="131.3" y="332.9" class="st0" width="17.9" height="17.9"/>
				<g>
					<path class="st1" d="M148.7,333.4v16.9h-16.9v-16.9H148.7 M149.7,332.4h-18.9v18.9h18.9V332.4L149.7,332.4z"/>
				</g>
			</g>
			<g>
				<rect x="150.2" y="276.3" class="st0" width="17.9" height="17.9"/>
				<g>
					<path class="st1" d="M167.6,276.8v16.9h-16.9v-16.9H167.6 M168.6,275.8h-18.9v18.9h18.9V275.8L168.6,275.8z"/>
				</g>
			</g>
			<g>
				<rect x="150.2" y="295.1" class="st0" width="17.9" height="17.9"/>
				<g>
					<path class="st1" d="M167.6,295.6v16.9h-16.9v-16.9H167.6 M168.6,294.6h-18.9v18.9h18.9V294.6L168.6,294.6z"/>
				</g>
			</g>
			<g>
				<rect x="150.2" y="314" class="st0" width="17.9" height="17.9"/>
				<g>
					<path class="st1" d="M167.6,314.5v16.9h-16.9v-16.9H167.6 M168.6,313.5h-18.9v18.9h18.9V313.5L168.6,313.5z"/>
				</g>
			</g>
			<g>
				<rect x="150.2" y="332.9" class="st0" width="17.9" height="17.9"/>
				<g>
					<path class="st1" d="M167.6,333.4v16.9h-16.9v-16.9H167.6 M168.6,332.4h-18.9v18.9h18.9V332.4L168.6,332.4z"/>
				</g>
			</g>
		</g>
		<g>
			<circle class="st2" cx="92.9" cy="275.8" r="1.5"/>
			<circle class="st2" cx="111.8" cy="275.8" r="1.5"/>
			<circle class="st2" cx="111.8" cy="275.8" r="1.5"/>
			<circle class="st2" cx="130.8" cy="275.8" r="1.5"/>
			<circle class="st2" cx="130.8" cy="275.8" r="1.5"/>
			<circle class="st2" cx="149.7" cy="275.8" r="1.5"/>
			<circle class="st2" cx="149.7" cy="275.8" r="1.5"/>
			<circle class="st2" cx="92.9" cy="294.6" r="1.5"/>
			<circle class="st2" cx="111.8" cy="294.6" r="1.5"/>
			<circle class="st2" cx="111.8" cy="294.6" r="1.5"/>
			<circle class="st2" cx="130.8" cy="294.6" r="1.5"/>
			<circle class="st2" cx="130.8" cy="294.6" r="1.5"/>
			<circle class="st2" cx="149.7" cy="294.6" r="1.5"/>
			<circle class="st2" cx="149.7" cy="294.6" r="1.5"/>
			<circle class="st2" cx="92.9" cy="294.6" r="1.5"/>
			<circle class="st2" cx="111.8" cy="294.6" r="1.5"/>
			<circle class="st2" cx="92.9" cy="313.5" r="1.5"/>
			<circle class="st2" cx="111.8" cy="313.5" r="1.5"/>
			<circle class="st2" cx="111.8" cy="294.6" r="1.5"/>
			<circle class="st2" cx="130.8" cy="294.6" r="1.5"/>
			<circle class="st2" cx="111.8" cy="313.5" r="1.5"/>
			<circle class="st2" cx="130.8" cy="313.5" r="1.5"/>
			<circle class="st2" cx="130.8" cy="294.6" r="1.5"/>
			<circle class="st2" cx="149.7" cy="294.6" r="1.5"/>
			<circle class="st2" cx="130.8" cy="313.5" r="1.5"/>
			<circle class="st2" cx="149.7" cy="313.5" r="1.5"/>
			<circle class="st2" cx="149.7" cy="294.6" r="1.5"/>
			<circle class="st2" cx="149.7" cy="313.5" r="1.5"/>
			<circle class="st2" cx="92.9" cy="313.5" r="1.5"/>
			<circle class="st2" cx="111.8" cy="313.5" r="1.5"/>
			<circle class="st2" cx="92.9" cy="332.4" r="1.5"/>
			<circle class="st2" cx="111.8" cy="332.4" r="1.5"/>
			<circle class="st2" cx="111.8" cy="313.5" r="1.5"/>
			<circle class="st2" cx="130.8" cy="313.5" r="1.5"/>
			<circle class="st2" cx="111.8" cy="332.4" r="1.5"/>
			<circle class="st2" cx="130.8" cy="332.4" r="1.5"/>
			<circle class="st2" cx="130.8" cy="313.5" r="1.5"/>
			<circle class="st2" cx="149.7" cy="313.5" r="1.5"/>
			<circle class="st2" cx="130.8" cy="332.4" r="1.5"/>
			<circle class="st2" cx="149.7" cy="332.4" r="1.5"/>
			<circle class="st2" cx="149.7" cy="313.5" r="1.5"/>
			<circle class="st2" cx="149.7" cy="332.4" r="1.5"/>
			<circle class="st2" cx="92.9" cy="332.4" r="1.5"/>
			<circle class="st2" cx="111.8" cy="332.4" r="1.5"/>
			<circle class="st2" cx="92.9" cy="351.3" r="1.5"/>
			<circle class="st2" cx="111.8" cy="351.3" r="1.5"/>
			<circle class="st2" cx="111.8" cy="332.4" r="1.5"/>
			<circle class="st2" cx="130.8" cy="332.4" r="1.5"/>
			<circle class="st2" cx="111.8" cy="351.3" r="1.5"/>
			<circle class="st2" cx="130.8" cy="351.3" r="1.5"/>
			<circle class="st2" cx="130.8" cy="332.4" r="1.5"/>
			<circle class="st2" cx="149.7" cy="332.4" r="1.5"/>
			<circle class="st2" cx="130.8" cy="351.3" r="1.5"/>
			<circle class="st2" cx="149.7" cy="351.3" r="1.5"/>
			<circle class="st2" cx="149.7" cy="332.4" r="1.5"/>
			<circle class="st2" cx="149.7" cy="351.3" r="1.5"/>
			<circle class="st2" cx="92.9" cy="351.3" r="1.5"/>
			<circle class="st2" cx="111.8" cy="351.3" r="1.5"/>
			<circle class="st2" cx="111.8" cy="351.3" r="1.5"/>
			<circle class="st2" cx="130.8" cy="351.3" r="1.5"/>
			<circle class="st2" cx="130.8" cy="351.3" r="1.5"/>
			<circle class="st2" cx="149.7" cy="351.3" r="1.5"/>
			<circle class="st2" cx="149.7" cy="351.3" r="1.5"/>
			<circle class="st2" cx="92.9" cy="351.3" r="1.5"/>
			<circle class="st2" cx="111.8" cy="351.3" r="1.5"/>
			<circle class="st2" cx="111.8" cy="351.3" r="1.5"/>
			<circle class="st2" cx="130.8" cy="351.3" r="1.5"/>
			<circle class="st2" cx="130.8" cy="351.3" r="1.5"/>
			<circle class="st2" cx="149.7" cy="351.3" r="1.5"/>
			<circle class="st2" cx="149.7" cy="351.3" r="1.5"/>
			<circle class="st2" cx="168.6" cy="275.8" r="1.5"/>
			<circle class="st2" cx="168.6" cy="275.8" r="1.5"/>
			<circle class="st2" cx="168.6" cy="294.6" r="1.5"/>
			<circle class="st2" cx="168.6" cy="294.6" r="1.5"/>
			<circle class="st2" cx="168.6" cy="294.6" r="1.5"/>
			<circle class="st2" cx="168.6" cy="313.5" r="1.5"/>
			<circle class="st2" cx="168.6" cy="294.6" r="1.5"/>
			<circle class="st2" cx="168.6" cy="313.5" r="1.5"/>
			<circle class="st2" cx="168.6" cy="313.5" r="1.5"/>
			<circle class="st2" cx="168.6" cy="332.4" r="1.5"/>
			<circle class="st2" cx="168.6" cy="313.5" r="1.5"/>
			<circle class="st2" cx="168.6" cy="332.4" r="1.5"/>
			<circle class="st2" cx="168.6" cy="332.4" r="1.5"/>
			<circle class="st2" cx="168.6" cy="351.3" r="1.5"/>
			<circle class="st2" cx="168.6" cy="332.4" r="1.5"/>
			<circle class="st2" cx="168.6" cy="351.3" r="1.5"/>
			<circle class="st2" cx="168.6" cy="351.3" r="1.5"/>
			<circle class="st2" cx="168.6" cy="351.3" r="1.5"/>
			<circle class="st2" cx="168.6" cy="351.3" r="1.5"/>
			<circle class="st2" cx="168.6" cy="351.3" r="1.5"/>
		</g>
	</g>
	<g>
		<g>
			<g>
				<rect x="17.7" y="276.3" class="st0" width="17.9" height="17.9"/>
				<g>
					<path class="st1" d="M35.1,276.8v16.9H18.2v-16.9H35.1 M36.1,275.8H17.2v18.9h18.9V275.8L36.1,275.8z"/>
				</g>
			</g>
			<g>
				<rect x="36.7" y="276.3" class="st0" width="17.9" height="17.9"/>
				<g>
					<path class="st1" d="M54,276.8v16.9H37.2v-16.9H54 M55,275.8H36.2v18.9H55V275.8L55,275.8z"/>
				</g>
			</g>
			<g>
				<rect x="55.6" y="276.3" class="st0" width="17.9" height="17.9"/>
				<g>
					<path class="st1" d="M73,276.8v16.9H56.1v-16.9H73 M74,275.8H55.1v18.9H74V275.8L74,275.8z"/>
				</g>
			</g>
			<g>
				<rect x="17.7" y="295.1" class="st0" width="17.9" height="17.9"/>
				<g>
					<path class="st1" d="M35.1,295.6v16.9H18.2v-16.9H35.1 M36.1,294.6H17.2v18.9h18.9V294.6L36.1,294.6z"/>
				</g>
			</g>
			<g>
				<rect x="36.7" y="295.1" class="st0" width="17.9" height="17.9"/>
				<g>
					<path class="st1" d="M54,295.6v16.9H37.2v-16.9H54 M55,294.6H36.2v18.9H55V294.6L55,294.6z"/>
				</g>
			</g>
			<g>
				<rect x="55.6" y="295.1" class="st0" width="17.9" height="17.9"/>
				<g>
					<path class="st1" d="M73,295.6v16.9H56.1v-16.9H73 M74,294.6H55.1v18.9H74V294.6L74,294.6z"/>
				</g>
			</g>
			<g>
				<rect x="17.7" y="314" class="st0" width="17.9" height="17.9"/>
				<g>
					<path class="st1" d="M35.1,314.5v16.9H18.2v-16.9H35.1 M36.1,313.5H17.2v18.9h18.9V313.5L36.1,313.5z"/>
				</g>
			</g>
			<g>
				<rect x="36.7" y="314" class="st0" width="17.9" height="17.9"/>
				<g>
					<path class="st1" d="M54,314.5v16.9H37.2v-16.9H54 M55,313.5H36.2v18.9H55V313.5L55,313.5z"/>
				</g>
			</g>
			<g>
				<rect x="55.6" y="314" class="st0" width="17.9" height="17.9"/>
				<g>
					<path class="st1" d="M73,314.5v16.9H56.1v-16.9H73 M74,313.5H55.1v18.9H74V313.5L74,313.5z"/>
				</g>
			</g>
			<g>
				<rect x="17.7" y="332.9" class="st0" width="17.9" height="17.9"/>
				<g>
					<path class="st1" d="M35.1,333.4v16.9H18.2v-16.9H35.1 M36.1,332.4H17.2v18.9h18.9V332.4L36.1,332.4z"/>
				</g>
			</g>
			<g>
				<rect x="36.7" y="332.9" class="st0" width="17.9" height="17.9"/>
				<g>
					<path class="st1" d="M54,333.4v16.9H37.2v-16.9H54 M55,332.4H36.2v18.9H55V332.4L55,332.4z"/>
				</g>
			</g>
			<g>
				<rect x="55.6" y="332.9" class="st0" width="17.9" height="17.9"/>
				<g>
					<path class="st1" d="M73,333.4v16.9H56.1v-16.9H73 M74,332.4H55.1v18.9H74V332.4L74,332.4z"/>
				</g>
			</g>
			<g>
				<rect x="74.5" y="276.3" class="st0" width="17.9" height="17.9"/>
				<g>
					<path class="st1" d="M91.9,276.8v16.9H75v-16.9H91.9 M92.9,275.8H74v18.9h18.9V275.8L92.9,275.8z"/>
				</g>
			</g>
			<g>
				<rect x="74.5" y="295.1" class="st0" width="17.9" height="17.9"/>
				<g>
					<path class="st1" d="M91.9,295.6v16.9H75v-16.9H91.9 M92.9,294.6H74v18.9h18.9V294.6L92.9,294.6z"/>
				</g>
			</g>
			<g>
				<rect x="74.5" y="314" class="st0" width="17.9" height="17.9"/>
				<g>
					<path class="st1" d="M91.9,314.5v16.9H75v-16.9H91.9 M92.9,313.5H74v18.9h18.9V313.5L92.9,313.5z"/>
				</g>
			</g>
			<g>
				<rect x="74.5" y="332.9" class="st0" width="17.9" height="17.9"/>
				<g>
					<path class="st1" d="M91.9,333.4v16.9H75v-16.9H91.9 M92.9,332.4H74v18.9h18.9V332.4L92.9,332.4z"/>
				</g>
			</g>
		</g>
		<g>
			<circle class="st2" cx="17.1" cy="275.8" r="1.5"/>
			<circle class="st2" cx="36.1" cy="275.8" r="1.5"/>
			<circle class="st2" cx="36.1" cy="275.8" r="1.5"/>
			<circle class="st2" cx="55" cy="275.8" r="1.5"/>
			<circle class="st2" cx="55" cy="275.8" r="1.5"/>
			<circle class="st2" cx="74" cy="275.8" r="1.5"/>
			<circle class="st2" cx="74" cy="275.8" r="1.5"/>
			<circle class="st2" cx="17.1" cy="294.6" r="1.5"/>
			<circle class="st2" cx="36.1" cy="294.6" r="1.5"/>
			<circle class="st2" cx="36.1" cy="294.6" r="1.5"/>
			<circle class="st2" cx="55" cy="294.6" r="1.5"/>
			<circle class="st2" cx="55" cy="294.6" r="1.5"/>
			<circle class="st2" cx="74" cy="294.6" r="1.5"/>
			<circle class="st2" cx="74" cy="294.6" r="1.5"/>
			<circle class="st2" cx="17.1" cy="294.6" r="1.5"/>
			<circle class="st2" cx="36.1" cy="294.6" r="1.5"/>
			<circle class="st2" cx="17.1" cy="313.5" r="1.5"/>
			<circle class="st2" cx="36.1" cy="313.5" r="1.5"/>
			<circle class="st2" cx="36.1" cy="294.6" r="1.5"/>
			<circle class="st2" cx="55" cy="294.6" r="1.5"/>
			<circle class="st2" cx="36.1" cy="313.5" r="1.5"/>
			<circle class="st2" cx="55" cy="313.5" r="1.5"/>
			<circle class="st2" cx="55" cy="294.6" r="1.5"/>
			<circle class="st2" cx="74" cy="294.6" r="1.5"/>
			<circle class="st2" cx="55" cy="313.5" r="1.5"/>
			<circle class="st2" cx="74" cy="313.5" r="1.5"/>
			<circle class="st2" cx="74" cy="294.6" r="1.5"/>
			<circle class="st2" cx="74" cy="313.5" r="1.5"/>
			<circle class="st2" cx="17.1" cy="313.5" r="1.5"/>
			<circle class="st2" cx="36.1" cy="313.5" r="1.5"/>
			<circle class="st2" cx="17.1" cy="332.4" r="1.5"/>
			<circle class="st2" cx="36.1" cy="332.4" r="1.5"/>
			<circle class="st2" cx="36.1" cy="313.5" r="1.5"/>
			<circle class="st2" cx="55" cy="313.5" r="1.5"/>
			<circle class="st2" cx="36.1" cy="332.4" r="1.5"/>
			<circle class="st2" cx="55" cy="332.4" r="1.5"/>
			<circle class="st2" cx="55" cy="313.5" r="1.5"/>
			<circle class="st2" cx="74" cy="313.5" r="1.5"/>
			<circle class="st2" cx="55" cy="332.4" r="1.5"/>
			<circle class="st2" cx="74" cy="332.4" r="1.5"/>
			<circle class="st2" cx="74" cy="313.5" r="1.5"/>
			<circle class="st2" cx="74" cy="332.4" r="1.5"/>
			<circle class="st2" cx="17.1" cy="332.4" r="1.5"/>
			<circle class="st2" cx="36.1" cy="332.4" r="1.5"/>
			<circle class="st2" cx="17.1" cy="351.3" r="1.5"/>
			<circle class="st2" cx="36.1" cy="351.3" r="1.5"/>
			<circle class="st2" cx="36.1" cy="332.4" r="1.5"/>
			<circle class="st2" cx="55" cy="332.4" r="1.5"/>
			<circle class="st2" cx="36.1" cy="351.3" r="1.5"/>
			<circle class="st2" cx="55" cy="351.3" r="1.5"/>
			<circle class="st2" cx="55" cy="332.4" r="1.5"/>
			<circle class="st2" cx="74" cy="332.4" r="1.5"/>
			<circle class="st2" cx="55" cy="351.3" r="1.5"/>
			<circle class="st2" cx="74" cy="351.3" r="1.5"/>
			<circle class="st2" cx="74" cy="332.4" r="1.5"/>
			<circle class="st2" cx="74" cy="351.3" r="1.5"/>
			<circle class="st2" cx="17.1" cy="351.3" r="1.5"/>
			<circle class="st2" cx="36.1" cy="351.3" r="1.5"/>
			<circle class="st2" cx="36.1" cy="351.3" r="1.5"/>
			<circle class="st2" cx="55" cy="351.3" r="1.5"/>
			<circle class="st2" cx="55" cy="351.3" r="1.5"/>
			<circle class="st2" cx="74" cy="351.3" r="1.5"/>
			<circle class="st2" cx="74" cy="351.3" r="1.5"/>
			<circle class="st2" cx="17.1" cy="351.3" r="1.5"/>
			<circle class="st2" cx="36.1" cy="351.3" r="1.5"/>
			<circle class="st2" cx="36.1" cy="351.3" r="1.5"/>
			<circle class="st2" cx="55" cy="351.3" r="1.5"/>
			<circle class="st2" cx="55" cy="351.3" r="1.5"/>
			<circle class="st2" cx="74" cy="351.3" r="1.5"/>
			<circle class="st2" cx="74" cy="351.3" r="1.5"/>
			<circle class="st2" cx="92.9" cy="275.8" r="1.5"/>
			<circle class="st2" cx="92.9" cy="275.8" r="1.5"/>
			<circle class="st2" cx="92.9" cy="294.6" r="1.5"/>
			<circle class="st2" cx="92.9" cy="294.6" r="1.5"/>
			<circle class="st2" cx="92.9" cy="294.6" r="1.5"/>
			<circle class="st2" cx="92.9" cy="313.5" r="1.5"/>
			<circle class="st2" cx="92.9" cy="294.6" r="1.5"/>
			<circle class="st2" cx="92.9" cy="313.5" r="1.5"/>
			<circle class="st2" cx="92.9" cy="313.5" r="1.5"/>
			<circle class="st2" cx="92.9" cy="332.4" r="1.5"/>
			<circle class="st2" cx="92.9" cy="313.5" r="1.5"/>
			<circle class="st2" cx="92.9" cy="332.4" r="1.5"/>
			<circle class="st2" cx="92.9" cy="332.4" r="1.5"/>
			<circle class="st2" cx="92.9" cy="351.3" r="1.5"/>
			<circle class="st2" cx="92.9" cy="332.4" r="1.5"/>
			<circle class="st2" cx="92.9" cy="351.3" r="1.5"/>
			<circle class="st2" cx="92.9" cy="351.3" r="1.5"/>
			<circle class="st2" cx="92.9" cy="351.3" r="1.5"/>
			<circle class="st2" cx="92.9" cy="351.3" r="1.5"/>
			<circle class="st2" cx="92.9" cy="351.3" r="1.5"/>
		</g>
	</g>
	<g>
		<g>
			<rect x="93.4" y="200.7" class="st0" width="17.9" height="17.9"/>
			<g>
				<path class="st1" d="M110.8,201.2v16.9H93.9v-16.9H110.8 M111.8,200.2H92.9v18.9h18.9V200.2L111.8,200.2z"/>
			</g>
		</g>
		<g>
			<rect x="112.4" y="200.7" class="st0" width="17.9" height="17.9"/>
			<g>
				<path class="st1" d="M129.8,201.2v16.9h-16.9v-16.9H129.8 M130.8,200.2h-18.9v18.9h18.9V200.2L130.8,200.2z"/>
			</g>
		</g>
		<g>
			<rect x="131.3" y="200.7" class="st0" width="17.9" height="17.9"/>
			<g>
				<path class="st1" d="M148.7,201.2v16.9h-16.9v-16.9H148.7 M149.7,200.2h-18.9v18.9h18.9V200.2L149.7,200.2z"/>
			</g>
		</g>
		<g>
			<rect x="93.4" y="219.6" class="st0" width="17.9" height="17.9"/>
			<g>
				<path class="st1" d="M110.8,220.1V237H93.9v-16.9H110.8 M111.8,219.1H92.9V238h18.9V219.1L111.8,219.1z"/>
			</g>
		</g>
		<g>
			<rect x="112.4" y="219.6" class="st0" width="17.9" height="17.9"/>
			<g>
				<path class="st1" d="M129.8,220.1V237h-16.9v-16.9H129.8 M130.8,219.1h-18.9V238h18.9V219.1L130.8,219.1z"/>
			</g>
		</g>
		<g>
			<rect x="131.3" y="219.6" class="st0" width="17.9" height="17.9"/>
			<g>
				<path class="st1" d="M148.7,220.1V237h-16.9v-16.9H148.7 M149.7,219.1h-18.9V238h18.9V219.1L149.7,219.1z"/>
			</g>
		</g>
		<g>
			<rect x="93.4" y="238.5" class="st0" width="17.9" height="17.9"/>
			<g>
				<path class="st1" d="M110.8,239v16.9H93.9V239H110.8 M111.8,238H92.9v18.9h18.9V238L111.8,238z"/>
			</g>
		</g>
		<g>
			<rect x="112.4" y="238.5" class="st0" width="17.9" height="17.9"/>
			<g>
				<path class="st1" d="M129.8,239v16.9h-16.9V239H129.8 M130.8,238h-18.9v18.9h18.9V238L130.8,238z"/>
			</g>
		</g>
		<g>
			<rect x="131.3" y="238.5" class="st0" width="17.9" height="17.9"/>
			<g>
				<path class="st1" d="M148.7,239v16.9h-16.9V239H148.7 M149.7,238h-18.9v18.9h18.9V238L149.7,238z"/>
			</g>
		</g>
		<g>
			<rect x="93.4" y="257.4" class="st0" width="17.9" height="17.9"/>
			<g>
				<path class="st1" d="M110.8,257.9v16.9H93.9v-16.9H110.8 M111.8,256.9H92.9v18.9h18.9V256.9L111.8,256.9z"/>
			</g>
		</g>
		<g>
			<rect x="112.4" y="257.4" class="st0" width="17.9" height="17.9"/>
			<g>
				<path class="st1" d="M129.8,257.9v16.9h-16.9v-16.9H129.8 M130.8,256.9h-18.9v18.9h18.9V256.9L130.8,256.9z"/>
			</g>
		</g>
		<g>
			<rect x="131.3" y="257.4" class="st0" width="17.9" height="17.9"/>
			<g>
				<path class="st1" d="M148.7,257.9v16.9h-16.9v-16.9H148.7 M149.7,256.9h-18.9v18.9h18.9V256.9L149.7,256.9z"/>
			</g>
		</g>
		<g>
			<rect x="150.2" y="200.7" class="st0" width="17.9" height="17.9"/>
			<g>
				<path class="st1" d="M167.6,201.2v16.9h-16.9v-16.9H167.6 M168.6,200.2h-18.9v18.9h18.9V200.2L168.6,200.2z"/>
			</g>
		</g>
		<g>
			<rect x="150.2" y="219.6" class="st0" width="17.9" height="17.9"/>
			<g>
				<path class="st1" d="M167.6,220.1V237h-16.9v-16.9H167.6 M168.6,219.1h-18.9V238h18.9V219.1L168.6,219.1z"/>
			</g>
		</g>
		<g>
			<rect x="150.2" y="238.5" class="st0" width="17.9" height="17.9"/>
			<g>
				<path class="st1" d="M167.6,239v16.9h-16.9V239H167.6 M168.6,238h-18.9v18.9h18.9V238L168.6,238z"/>
			</g>
		</g>
		<g>
			<rect x="150.2" y="257.4" class="st0" width="17.9" height="17.9"/>
			<g>
				<path class="st1" d="M167.6,257.9v16.9h-16.9v-16.9H167.6 M168.6,256.9h-18.9v18.9h18.9V256.9L168.6,256.9z"/>
			</g>
		</g>
	</g>
	<g>
		<circle class="st2" cx="92.9" cy="200.2" r="1.5"/>
		<circle class="st2" cx="111.8" cy="200.2" r="1.5"/>
		<circle class="st2" cx="111.8" cy="200.2" r="1.5"/>
		<circle class="st2" cx="130.8" cy="200.2" r="1.5"/>
		<circle class="st2" cx="130.8" cy="200.2" r="1.5"/>
		<circle class="st2" cx="149.7" cy="200.2" r="1.5"/>
		<circle class="st2" cx="149.7" cy="200.2" r="1.5"/>
		<circle class="st2" cx="92.9" cy="219.1" r="1.5"/>
		<circle class="st2" cx="111.8" cy="219.1" r="1.5"/>
		<circle class="st2" cx="111.8" cy="219.1" r="1.5"/>
		<circle class="st2" cx="130.8" cy="219.1" r="1.5"/>
		<circle class="st2" cx="130.8" cy="219.1" r="1.5"/>
		<circle class="st2" cx="149.7" cy="219.1" r="1.5"/>
		<circle class="st2" cx="149.7" cy="219.1" r="1.5"/>
		<circle class="st2" cx="92.9" cy="219.1" r="1.5"/>
		<circle class="st2" cx="111.8" cy="219.1" r="1.5"/>
		<circle class="st2" cx="92.9" cy="238" r="1.5"/>
		<circle class="st2" cx="111.8" cy="238" r="1.5"/>
		<circle class="st2" cx="111.8" cy="219.1" r="1.5"/>
		<circle class="st2" cx="130.8" cy="219.1" r="1.5"/>
		<circle class="st2" cx="111.8" cy="238" r="1.5"/>
		<circle class="st2" cx="130.8" cy="238" r="1.5"/>
		<circle class="st2" cx="130.8" cy="219.1" r="1.5"/>
		<circle class="st2" cx="149.7" cy="219.1" r="1.5"/>
		<circle class="st2" cx="130.8" cy="238" r="1.5"/>
		<circle class="st2" cx="149.7" cy="238" r="1.5"/>
		<circle class="st2" cx="149.7" cy="219.1" r="1.5"/>
		<circle class="st2" cx="149.7" cy="238" r="1.5"/>
		<circle class="st2" cx="92.9" cy="238" r="1.5"/>
		<circle class="st2" cx="111.8" cy="238" r="1.5"/>
		<circle class="st2" cx="92.9" cy="256.9" r="1.5"/>
		<circle class="st2" cx="111.8" cy="256.9" r="1.5"/>
		<circle class="st2" cx="111.8" cy="238" r="1.5"/>
		<circle class="st2" cx="130.8" cy="238" r="1.5"/>
		<circle class="st2" cx="111.8" cy="256.9" r="1.5"/>
		<circle class="st2" cx="130.8" cy="256.9" r="1.5"/>
		<circle class="st2" cx="130.8" cy="238" r="1.5"/>
		<circle class="st2" cx="149.7" cy="238" r="1.5"/>
		<circle class="st2" cx="130.8" cy="256.9" r="1.5"/>
		<circle class="st2" cx="149.7" cy="256.9" r="1.5"/>
		<circle class="st2" cx="149.7" cy="238" r="1.5"/>
		<circle class="st2" cx="149.7" cy="256.9" r="1.5"/>
		<circle class="st2" cx="92.9" cy="256.9" r="1.5"/>
		<circle class="st2" cx="111.8" cy="256.9" r="1.5"/>
		<circle class="st2" cx="92.9" cy="275.8" r="1.5"/>
		<circle class="st2" cx="111.8" cy="275.8" r="1.5"/>
		<circle class="st2" cx="111.8" cy="256.9" r="1.5"/>
		<circle class="st2" cx="130.8" cy="256.9" r="1.5"/>
		<circle class="st2" cx="111.8" cy="275.8" r="1.5"/>
		<circle class="st2" cx="130.8" cy="275.8" r="1.5"/>
		<circle class="st2" cx="130.8" cy="256.9" r="1.5"/>
		<circle class="st2" cx="149.7" cy="256.9" r="1.5"/>
		<circle class="st2" cx="130.8" cy="275.8" r="1.5"/>
		<circle class="st2" cx="149.7" cy="275.8" r="1.5"/>
		<circle class="st2" cx="149.7" cy="256.9" r="1.5"/>
		<circle class="st2" cx="149.7" cy="275.8" r="1.5"/>
		<circle class="st2" cx="92.9" cy="275.8" r="1.5"/>
		<circle class="st2" cx="111.8" cy="275.8" r="1.5"/>
		<circle class="st2" cx="111.8" cy="275.8" r="1.5"/>
		<circle class="st2" cx="130.8" cy="275.8" r="1.5"/>
		<circle class="st2" cx="130.8" cy="275.8" r="1.5"/>
		<circle class="st2" cx="149.7" cy="275.8" r="1.5"/>
		<circle class="st2" cx="149.7" cy="275.8" r="1.5"/>
		<circle class="st2" cx="92.9" cy="275.8" r="1.5"/>
		<circle class="st2" cx="111.8" cy="275.8" r="1.5"/>
		<circle class="st2" cx="111.8" cy="275.8" r="1.5"/>
		<circle class="st2" cx="130.8" cy="275.8" r="1.5"/>
		<circle class="st2" cx="130.8" cy="275.8" r="1.5"/>
		<circle class="st2" cx="149.7" cy="275.8" r="1.5"/>
		<circle class="st2" cx="149.7" cy="275.8" r="1.5"/>
		<circle class="st2" cx="168.6" cy="200.2" r="1.5"/>
		<circle class="st2" cx="168.6" cy="200.2" r="1.5"/>
		<circle class="st2" cx="168.6" cy="219.1" r="1.5"/>
		<circle class="st2" cx="168.6" cy="219.1" r="1.5"/>
		<circle class="st2" cx="168.6" cy="219.1" r="1.5"/>
		<circle class="st2" cx="168.6" cy="238" r="1.5"/>
		<circle class="st2" cx="168.6" cy="219.1" r="1.5"/>
		<circle class="st2" cx="168.6" cy="238" r="1.5"/>
		<circle class="st2" cx="168.6" cy="238" r="1.5"/>
		<circle class="st2" cx="168.6" cy="256.9" r="1.5"/>
		<circle class="st2" cx="168.6" cy="238" r="1.5"/>
		<circle class="st2" cx="168.6" cy="256.9" r="1.5"/>
		<circle class="st2" cx="168.6" cy="256.9" r="1.5"/>
		<circle class="st2" cx="168.6" cy="275.8" r="1.5"/>
		<circle class="st2" cx="168.6" cy="256.9" r="1.5"/>
		<circle class="st2" cx="168.6" cy="275.8" r="1.5"/>
		<circle class="st2" cx="168.6" cy="275.8" r="1.5"/>
		<circle class="st2" cx="168.6" cy="275.8" r="1.5"/>
		<circle class="st2" cx="168.6" cy="275.8" r="1.5"/>
		<circle class="st2" cx="168.6" cy="275.8" r="1.5"/>
	</g>
	<g>
		<g>
			<g>
				<rect x="17.7" y="200.7" class="st0" width="17.9" height="17.9"/>
				<g>
					<path class="st1" d="M35.1,201.2v16.9H18.2v-16.9H35.1 M36.1,200.2H17.2v18.9h18.9V200.2L36.1,200.2z"/>
				</g>
			</g>
			<g>
				<rect x="36.7" y="200.7" class="st0" width="17.9" height="17.9"/>
				<g>
					<path class="st1" d="M54,201.2v16.9H37.2v-16.9H54 M55,200.2H36.2v18.9H55V200.2L55,200.2z"/>
				</g>
			</g>
			<g>
				<rect x="55.6" y="200.7" class="st0" width="17.9" height="17.9"/>
				<g>
					<path class="st1" d="M73,201.2v16.9H56.1v-16.9H73 M74,200.2H55.1v18.9H74V200.2L74,200.2z"/>
				</g>
			</g>
			<g>
				<rect x="17.7" y="219.6" class="st0" width="17.9" height="17.9"/>
				<g>
					<path class="st1" d="M35.1,220.1V237H18.2v-16.9H35.1 M36.1,219.1H17.2V238h18.9V219.1L36.1,219.1z"/>
				</g>
			</g>
			<g>
				<rect x="36.7" y="219.6" class="st0" width="17.9" height="17.9"/>
				<g>
					<path class="st1" d="M54,220.1V237H37.2v-16.9H54 M55,219.1H36.2V238H55V219.1L55,219.1z"/>
				</g>
			</g>
			<g>
				<rect x="55.6" y="219.6" class="st0" width="17.9" height="17.9"/>
				<g>
					<path class="st1" d="M73,220.1V237H56.1v-16.9H73 M74,219.1H55.1V238H74V219.1L74,219.1z"/>
				</g>
			</g>
			<g>
				<rect x="17.7" y="238.5" class="st0" width="17.9" height="17.9"/>
				<g>
					<path class="st1" d="M35.1,239v16.9H18.2V239H35.1 M36.1,238H17.2v18.9h18.9V238L36.1,238z"/>
				</g>
			</g>
			<g>
				<rect x="36.7" y="238.5" class="st0" width="17.9" height="17.9"/>
				<g>
					<path class="st1" d="M54,239v16.9H37.2V239H54 M55,238H36.2v18.9H55V238L55,238z"/>
				</g>
			</g>
			<g>
				<rect x="55.6" y="238.5" class="st0" width="17.9" height="17.9"/>
				<g>
					<path class="st1" d="M73,239v16.9H56.1V239H73 M74,238H55.1v18.9H74V238L74,238z"/>
				</g>
			</g>
			<g>
				<rect x="17.7" y="257.4" class="st0" width="17.9" height="17.9"/>
				<g>
					<path class="st1" d="M35.1,257.9v16.9H18.2v-16.9H35.1 M36.1,256.9H17.2v18.9h18.9V256.9L36.1,256.9z"/>
				</g>
			</g>
			<g>
				<rect x="36.7" y="257.4" class="st0" width="17.9" height="17.9"/>
				<g>
					<path class="st1" d="M54,257.9v16.9H37.2v-16.9H54 M55,256.9H36.2v18.9H55V256.9L55,256.9z"/>
				</g>
			</g>
			<g>
				<rect x="55.6" y="257.4" class="st0" width="17.9" height="17.9"/>
				<g>
					<path class="st1" d="M73,257.9v16.9H56.1v-16.9H73 M74,256.9H55.1v18.9H74V256.9L74,256.9z"/>
				</g>
			</g>
			<g>
				<rect x="74.5" y="200.7" class="st0" width="17.9" height="17.9"/>
				<g>
					<path class="st1" d="M91.9,201.2v16.9H75v-16.9H91.9 M92.9,200.2H74v18.9h18.9V200.2L92.9,200.2z"/>
				</g>
			</g>
			<g>
				<rect x="74.5" y="219.6" class="st0" width="17.9" height="17.9"/>
				<g>
					<path class="st1" d="M91.9,220.1V237H75v-16.9H91.9 M92.9,219.1H74V238h18.9V219.1L92.9,219.1z"/>
				</g>
			</g>
			<g>
				<rect x="74.5" y="238.5" class="st0" width="17.9" height="17.9"/>
				<g>
					<path class="st1" d="M91.9,239v16.9H75V239H91.9 M92.9,238H74v18.9h18.9V238L92.9,238z"/>
				</g>
			</g>
			<g>
				<rect x="74.5" y="257.4" class="st0" width="17.9" height="17.9"/>
				<g>
					<path class="st1" d="M91.9,257.9v16.9H75v-16.9H91.9 M92.9,256.9H74v18.9h18.9V256.9L92.9,256.9z"/>
				</g>
			</g>
		</g>
		<g>
			<circle class="st2" cx="17.1" cy="200.2" r="1.5"/>
			<circle class="st2" cx="36.1" cy="200.2" r="1.5"/>
			<circle class="st2" cx="36.1" cy="200.2" r="1.5"/>
			<circle class="st2" cx="55" cy="200.2" r="1.5"/>
			<circle class="st2" cx="55" cy="200.2" r="1.5"/>
			<circle class="st2" cx="74" cy="200.2" r="1.5"/>
			<circle class="st2" cx="74" cy="200.2" r="1.5"/>
			<circle class="st2" cx="17.1" cy="219.1" r="1.5"/>
			<circle class="st2" cx="36.1" cy="219.1" r="1.5"/>
			<circle class="st2" cx="36.1" cy="219.1" r="1.5"/>
			<circle class="st2" cx="55" cy="219.1" r="1.5"/>
			<circle class="st2" cx="55" cy="219.1" r="1.5"/>
			<circle class="st2" cx="74" cy="219.1" r="1.5"/>
			<circle class="st2" cx="74" cy="219.1" r="1.5"/>
			<circle class="st2" cx="17.1" cy="219.1" r="1.5"/>
			<circle class="st2" cx="36.1" cy="219.1" r="1.5"/>
			<circle class="st2" cx="17.1" cy="238" r="1.5"/>
			<circle class="st2" cx="36.1" cy="238" r="1.5"/>
			<circle class="st2" cx="36.1" cy="219.1" r="1.5"/>
			<circle class="st2" cx="55" cy="219.1" r="1.5"/>
			<circle class="st2" cx="36.1" cy="238" r="1.5"/>
			<circle class="st2" cx="55" cy="238" r="1.5"/>
			<circle class="st2" cx="55" cy="219.1" r="1.5"/>
			<circle class="st2" cx="74" cy="219.1" r="1.5"/>
			<circle class="st2" cx="55" cy="238" r="1.5"/>
			<circle class="st2" cx="74" cy="238" r="1.5"/>
			<circle class="st2" cx="74" cy="219.1" r="1.5"/>
			<circle class="st2" cx="74" cy="238" r="1.5"/>
			<circle class="st2" cx="17.1" cy="238" r="1.5"/>
			<circle class="st2" cx="36.1" cy="238" r="1.5"/>
			<circle class="st2" cx="17.1" cy="256.9" r="1.5"/>
			<circle class="st2" cx="36.1" cy="256.9" r="1.5"/>
			<circle class="st2" cx="36.1" cy="238" r="1.5"/>
			<circle class="st2" cx="55" cy="238" r="1.5"/>
			<circle class="st2" cx="36.1" cy="256.9" r="1.5"/>
			<circle class="st2" cx="55" cy="256.9" r="1.5"/>
			<circle class="st2" cx="55" cy="238" r="1.5"/>
			<circle class="st2" cx="74" cy="238" r="1.5"/>
			<circle class="st2" cx="55" cy="256.9" r="1.5"/>
			<circle class="st2" cx="74" cy="256.9" r="1.5"/>
			<circle class="st2" cx="74" cy="238" r="1.5"/>
			<circle class="st2" cx="74" cy="256.9" r="1.5"/>
			<circle class="st2" cx="17.1" cy="256.9" r="1.5"/>
			<circle class="st2" cx="36.1" cy="256.9" r="1.5"/>
			<circle class="st2" cx="17.1" cy="275.8" r="1.5"/>
			<circle class="st2" cx="36.1" cy="275.8" r="1.5"/>
			<circle class="st2" cx="36.1" cy="256.9" r="1.5"/>
			<circle class="st2" cx="55" cy="256.9" r="1.5"/>
			<circle class="st2" cx="36.1" cy="275.8" r="1.5"/>
			<circle class="st2" cx="55" cy="275.8" r="1.5"/>
			<circle class="st2" cx="55" cy="256.9" r="1.5"/>
			<circle class="st2" cx="74" cy="256.9" r="1.5"/>
			<circle class="st2" cx="55" cy="275.8" r="1.5"/>
			<circle class="st2" cx="74" cy="275.8" r="1.5"/>
			<circle class="st2" cx="74" cy="256.9" r="1.5"/>
			<circle class="st2" cx="74" cy="275.8" r="1.5"/>
			<circle class="st2" cx="17.1" cy="275.8" r="1.5"/>
			<circle class="st2" cx="36.1" cy="275.8" r="1.5"/>
			<circle class="st2" cx="36.1" cy="275.8" r="1.5"/>
			<circle class="st2" cx="55" cy="275.8" r="1.5"/>
			<circle class="st2" cx="55" cy="275.8" r="1.5"/>
			<circle class="st2" cx="74" cy="275.8" r="1.5"/>
			<circle class="st2" cx="74" cy="275.8" r="1.5"/>
			<circle class="st2" cx="17.1" cy="275.8" r="1.5"/>
			<circle class="st2" cx="36.1" cy="275.8" r="1.5"/>
			<circle class="st2" cx="36.1" cy="275.8" r="1.5"/>
			<circle class="st2" cx="55" cy="275.8" r="1.5"/>
			<circle class="st2" cx="55" cy="275.8" r="1.5"/>
			<circle class="st2" cx="74" cy="275.8" r="1.5"/>
			<circle class="st2" cx="74" cy="275.8" r="1.5"/>
			<circle class="st2" cx="92.9" cy="200.2" r="1.5"/>
			<circle class="st2" cx="92.9" cy="200.2" r="1.5"/>
			<circle class="st2" cx="92.9" cy="219.1" r="1.5"/>
			<circle class="st2" cx="92.9" cy="219.1" r="1.5"/>
			<circle class="st2" cx="92.9" cy="219.1" r="1.5"/>
			<circle class="st2" cx="92.9" cy="238" r="1.5"/>
			<circle class="st2" cx="92.9" cy="219.1" r="1.5"/>
			<circle class="st2" cx="92.9" cy="238" r="1.5"/>
			<circle class="st2" cx="92.9" cy="238" r="1.5"/>
			<circle class="st2" cx="92.9" cy="256.9" r="1.5"/>
			<circle class="st2" cx="92.9" cy="238" r="1.5"/>
			<circle class="st2" cx="92.9" cy="256.9" r="1.5"/>
			<circle class="st2" cx="92.9" cy="256.9" r="1.5"/>
			<circle class="st2" cx="92.9" cy="275.8" r="1.5"/>
			<circle class="st2" cx="92.9" cy="256.9" r="1.5"/>
			<circle class="st2" cx="92.9" cy="275.8" r="1.5"/>
			<circle class="st2" cx="92.9" cy="275.8" r="1.5"/>
			<circle class="st2" cx="92.9" cy="275.8" r="1.5"/>
			<circle class="st2" cx="92.9" cy="275.8" r="1.5"/>
			<circle class="st2" cx="92.9" cy="275.8" r="1.5"/>
		</g>
	</g>
</g>
<g>
	<polygon class="st3" points="75.3,293.7 58.8,293.7 91.7,277.2 75.3,310.1 	"/>
	<path class="st4" d="M90.1,278.9l-14,28.1v-12.5V293h-1.5H61.9L90.1,278.9 M93.4,275.5l-37.8,18.9h18.9v18.9L93.4,275.5L93.4,275.5
		z"/>
</g>
<g>
	<polygon class="st3" points="111.5,257.3 128,257.3 95.1,273.8 111.5,240.9 	"/>
	<path class="st4" d="M96.7,272.1l14-28.1v12.5v1.5h1.5h12.7L96.7,272.1 M93.4,275.5l37.8-18.9h-18.9v-18.9L93.4,275.5L93.4,275.5z"
		/>
</g>
<g>
	<polygon class="st3" points="95.1,276.6 128,293.1 111.6,293.1 111.6,309.6 	"/>
	<path class="st4" d="M96.8,278.3l28.1,14h-12.5h-1.5v1.5v12.6L96.8,278.3 M93.4,275l18.9,37.8v-18.9h18.9L93.4,275L93.4,275z"/>
</g>
<g>
	<polygon class="st3" points="58.2,257.8 74.7,257.8 74.7,241.3 91.2,274.2 	"/>
	<path class="st4" d="M75.5,244.5l14,28.1l-28.1-14H74h1.5V257V244.5 M74,238.1V257H55l37.8,18.9L74,238.1L74,238.1z"/>
</g>
</svg>
