<?xml version="1.0" encoding="utf-8"?>
<!-- Generator: Adobe Illustrator 22.1.0, SVG Export Plug-In . SVG Version: 6.00 Build 0)  -->
<svg version="1.1" id="Layer_1" xmlns="http://www.w3.org/2000/svg" xmlns:xlink="http://www.w3.org/1999/xlink" x="0px" y="0px"
	 viewBox="0 0 336.7 400" style="enable-background:new 0 0 336.7 400;" xml:space="preserve">
<style type="text/css">
	.st0{fill:#FADC3C;}
	.st1{fill:#E7C42A;}
	.st2{fill:#B0941D;stroke:#B0941D;stroke-width:0.999;stroke-miterlimit:10;}
	.st3{fill:#F86A00;}
	.st4{fill:#C44412;}
	.st5{fill:#CCCCCC;stroke:#000000;stroke-width:2.019870e-02;stroke-miterlimit:10;}
</style>
<g>
	<g>
		<g>
			<g>
				<rect x="244.8" y="276.3" class="st0" width="17.9" height="17.9"/>
				<g>
					<path class="st1" d="M262.2,276.8v16.9h-16.9v-16.9H262.2 M263.2,275.8h-18.9v18.9h18.9V275.8L263.2,275.8z"/>
				</g>
			</g>
			<g>
				<rect x="263.8" y="276.3" class="st0" width="17.9" height="17.9"/>
				<g>
					<path class="st1" d="M281.2,276.8v16.9h-16.9v-16.9H281.2 M282.2,275.8h-18.9v18.9h18.9V275.8L282.2,275.8z"/>
				</g>
			</g>
			<g>
				<rect x="282.7" y="276.3" class="st0" width="17.9" height="17.9"/>
				<g>
					<path class="st1" d="M300.1,276.8v16.9h-16.9v-16.9H300.1 M301.1,275.8h-18.9v18.9h18.9V275.8L301.1,275.8z"/>
				</g>
			</g>
			<g>
				<rect x="244.8" y="295.1" class="st0" width="17.9" height="17.9"/>
				<g>
					<path class="st1" d="M262.2,295.6v16.9h-16.9v-16.9H262.2 M263.2,294.6h-18.9v18.9h18.9V294.6L263.2,294.6z"/>
				</g>
			</g>
			<g>
				<rect x="263.8" y="295.1" class="st0" width="17.9" height="17.9"/>
				<g>
					<path class="st1" d="M281.2,295.6v16.9h-16.9v-16.9H281.2 M282.2,294.6h-18.9v18.9h18.9V294.6L282.2,294.6z"/>
				</g>
			</g>
			<g>
				<rect x="282.7" y="295.1" class="st0" width="17.9" height="17.9"/>
				<g>
					<path class="st1" d="M300.1,295.6v16.9h-16.9v-16.9H300.1 M301.1,294.6h-18.9v18.9h18.9V294.6L301.1,294.6z"/>
				</g>
			</g>
			<g>
				<rect x="244.8" y="314" class="st0" width="17.9" height="17.9"/>
				<g>
					<path class="st1" d="M262.2,314.5v16.9h-16.9v-16.9H262.2 M263.2,313.5h-18.9v18.9h18.9V313.5L263.2,313.5z"/>
				</g>
			</g>
			<g>
				<rect x="263.8" y="314" class="st0" width="17.9" height="17.9"/>
				<g>
					<path class="st1" d="M281.2,314.5v16.9h-16.9v-16.9H281.2 M282.2,313.5h-18.9v18.9h18.9V313.5L282.2,313.5z"/>
				</g>
			</g>
			<g>
				<rect x="282.7" y="314" class="st0" width="17.9" height="17.9"/>
				<g>
					<path class="st1" d="M300.1,314.5v16.9h-16.9v-16.9H300.1 M301.1,313.5h-18.9v18.9h18.9V313.5L301.1,313.5z"/>
				</g>
			</g>
			<g>
				<rect x="244.8" y="332.9" class="st0" width="17.9" height="17.9"/>
				<g>
					<path class="st1" d="M262.2,333.4v16.9h-16.9v-16.9H262.2 M263.2,332.4h-18.9v18.9h18.9V332.4L263.2,332.4z"/>
				</g>
			</g>
			<g>
				<rect x="263.8" y="332.9" class="st0" width="17.9" height="17.9"/>
				<g>
					<path class="st1" d="M281.2,333.4v16.9h-16.9v-16.9H281.2 M282.2,332.4h-18.9v18.9h18.9V332.4L282.2,332.4z"/>
				</g>
			</g>
			<g>
				<rect x="282.7" y="332.9" class="st0" width="17.9" height="17.9"/>
				<g>
					<path class="st1" d="M300.1,333.4v16.9h-16.9v-16.9H300.1 M301.1,332.4h-18.9v18.9h18.9V332.4L301.1,332.4z"/>
				</g>
			</g>
			<g>
				<rect x="301.6" y="276.3" class="st0" width="17.9" height="17.9"/>
				<g>
					<path class="st1" d="M319,276.8v16.9h-16.9v-16.9H319 M320,275.8h-18.9v18.9H320V275.8L320,275.8z"/>
				</g>
			</g>
			<g>
				<rect x="301.6" y="295.1" class="st0" width="17.9" height="17.9"/>
				<g>
					<path class="st1" d="M319,295.6v16.9h-16.9v-16.9H319 M320,294.6h-18.9v18.9H320V294.6L320,294.6z"/>
				</g>
			</g>
			<g>
				<rect x="301.6" y="314" class="st0" width="17.9" height="17.9"/>
				<g>
					<path class="st1" d="M319,314.5v16.9h-16.9v-16.9H319 M320,313.5h-18.9v18.9H320V313.5L320,313.5z"/>
				</g>
			</g>
			<g>
				<rect x="301.6" y="332.9" class="st0" width="17.9" height="17.9"/>
				<g>
					<path class="st1" d="M319,333.4v16.9h-16.9v-16.9H319 M320,332.4h-18.9v18.9H320V332.4L320,332.4z"/>
				</g>
			</g>
		</g>
		<g>
			<circle class="st2" cx="244.3" cy="275.8" r="1.5"/>
			<circle class="st2" cx="263.2" cy="275.8" r="1.5"/>
			<circle class="st2" cx="263.2" cy="275.8" r="1.5"/>
			<circle class="st2" cx="282.2" cy="275.8" r="1.5"/>
			<circle class="st2" cx="282.2" cy="275.8" r="1.5"/>
			<circle class="st2" cx="301.1" cy="275.8" r="1.5"/>
			<circle class="st2" cx="301.1" cy="275.8" r="1.5"/>
			<circle class="st2" cx="244.3" cy="294.6" r="1.5"/>
			<circle class="st2" cx="263.2" cy="294.6" r="1.5"/>
			<circle class="st2" cx="263.2" cy="294.6" r="1.5"/>
			<circle class="st2" cx="282.2" cy="294.6" r="1.5"/>
			<circle class="st2" cx="282.2" cy="294.6" r="1.5"/>
			<circle class="st2" cx="301.1" cy="294.6" r="1.5"/>
			<circle class="st2" cx="301.1" cy="294.6" r="1.5"/>
			<circle class="st2" cx="244.3" cy="294.6" r="1.5"/>
			<circle class="st2" cx="263.2" cy="294.6" r="1.5"/>
			<circle class="st2" cx="244.3" cy="313.5" r="1.5"/>
			<circle class="st2" cx="263.2" cy="313.5" r="1.5"/>
			<circle class="st2" cx="263.2" cy="294.6" r="1.5"/>
			<circle class="st2" cx="282.2" cy="294.6" r="1.5"/>
			<circle class="st2" cx="263.2" cy="313.5" r="1.5"/>
			<circle class="st2" cx="282.2" cy="313.5" r="1.5"/>
			<circle class="st2" cx="282.2" cy="294.6" r="1.5"/>
			<circle class="st2" cx="301.1" cy="294.6" r="1.5"/>
			<circle class="st2" cx="282.2" cy="313.5" r="1.5"/>
			<circle class="st2" cx="301.1" cy="313.5" r="1.5"/>
			<circle class="st2" cx="301.1" cy="294.6" r="1.5"/>
			<circle class="st2" cx="301.1" cy="313.5" r="1.5"/>
			<circle class="st2" cx="244.3" cy="313.5" r="1.5"/>
			<circle class="st2" cx="263.2" cy="313.5" r="1.5"/>
			<circle class="st2" cx="244.3" cy="332.4" r="1.5"/>
			<circle class="st2" cx="263.2" cy="332.4" r="1.5"/>
			<circle class="st2" cx="263.2" cy="313.5" r="1.5"/>
			<circle class="st2" cx="282.2" cy="313.5" r="1.5"/>
			<circle class="st2" cx="263.2" cy="332.4" r="1.5"/>
			<circle class="st2" cx="282.2" cy="332.4" r="1.5"/>
			<circle class="st2" cx="282.2" cy="313.5" r="1.5"/>
			<circle class="st2" cx="301.1" cy="313.5" r="1.5"/>
			<circle class="st2" cx="282.2" cy="332.4" r="1.5"/>
			<circle class="st2" cx="301.1" cy="332.4" r="1.5"/>
			<circle class="st2" cx="301.1" cy="313.5" r="1.5"/>
			<circle class="st2" cx="301.1" cy="332.4" r="1.5"/>
			<circle class="st2" cx="244.3" cy="332.4" r="1.5"/>
			<circle class="st2" cx="263.2" cy="332.4" r="1.5"/>
			<circle class="st2" cx="244.3" cy="351.3" r="1.5"/>
			<circle class="st2" cx="263.2" cy="351.3" r="1.5"/>
			<circle class="st2" cx="263.2" cy="332.4" r="1.5"/>
			<circle class="st2" cx="282.2" cy="332.4" r="1.5"/>
			<circle class="st2" cx="263.2" cy="351.3" r="1.5"/>
			<circle class="st2" cx="282.2" cy="351.3" r="1.5"/>
			<circle class="st2" cx="282.2" cy="332.4" r="1.5"/>
			<circle class="st2" cx="301.1" cy="332.4" r="1.5"/>
			<circle class="st2" cx="282.2" cy="351.3" r="1.5"/>
			<circle class="st2" cx="301.1" cy="351.3" r="1.5"/>
			<circle class="st2" cx="301.1" cy="332.4" r="1.5"/>
			<circle class="st2" cx="301.1" cy="351.3" r="1.5"/>
			<circle class="st2" cx="244.3" cy="351.3" r="1.5"/>
			<circle class="st2" cx="263.2" cy="351.3" r="1.5"/>
			<circle class="st2" cx="263.2" cy="351.3" r="1.5"/>
			<circle class="st2" cx="282.2" cy="351.3" r="1.5"/>
			<circle class="st2" cx="282.2" cy="351.3" r="1.5"/>
			<circle class="st2" cx="301.1" cy="351.3" r="1.5"/>
			<circle class="st2" cx="301.1" cy="351.3" r="1.5"/>
			<circle class="st2" cx="244.3" cy="351.3" r="1.5"/>
			<circle class="st2" cx="263.2" cy="351.3" r="1.5"/>
			<circle class="st2" cx="263.2" cy="351.3" r="1.5"/>
			<circle class="st2" cx="282.2" cy="351.3" r="1.5"/>
			<circle class="st2" cx="282.2" cy="351.3" r="1.5"/>
			<circle class="st2" cx="301.1" cy="351.3" r="1.5"/>
			<circle class="st2" cx="301.1" cy="351.3" r="1.5"/>
			<circle class="st2" cx="320" cy="275.8" r="1.5"/>
			<circle class="st2" cx="320" cy="275.8" r="1.5"/>
			<circle class="st2" cx="320" cy="294.6" r="1.5"/>
			<circle class="st2" cx="320" cy="294.6" r="1.5"/>
			<circle class="st2" cx="320" cy="294.6" r="1.5"/>
			<circle class="st2" cx="320" cy="313.5" r="1.5"/>
			<circle class="st2" cx="320" cy="294.6" r="1.5"/>
			<circle class="st2" cx="320" cy="313.5" r="1.5"/>
			<circle class="st2" cx="320" cy="313.5" r="1.5"/>
			<circle class="st2" cx="320" cy="332.4" r="1.5"/>
			<circle class="st2" cx="320" cy="313.5" r="1.5"/>
			<circle class="st2" cx="320" cy="332.4" r="1.5"/>
			<circle class="st2" cx="320" cy="332.4" r="1.5"/>
			<circle class="st2" cx="320" cy="351.3" r="1.5"/>
			<circle class="st2" cx="320" cy="332.4" r="1.5"/>
			<circle class="st2" cx="320" cy="351.3" r="1.5"/>
			<circle class="st2" cx="320" cy="351.3" r="1.5"/>
			<circle class="st2" cx="320" cy="351.3" r="1.5"/>
			<circle class="st2" cx="320" cy="351.3" r="1.5"/>
			<circle class="st2" cx="320" cy="351.3" r="1.5"/>
		</g>
	</g>
	<g>
		<g>
			<g>
				<rect x="169.1" y="276.3" class="st0" width="17.9" height="17.9"/>
				<g>
					<path class="st1" d="M186.5,276.8v16.9h-16.9v-16.9H186.5 M187.5,275.8h-18.9v18.9h18.9V275.8L187.5,275.8z"/>
				</g>
			</g>
			<g>
				<rect x="188.1" y="276.3" class="st0" width="17.9" height="17.9"/>
				<g>
					<path class="st1" d="M205.4,276.8v16.9h-16.9v-16.9H205.4 M206.4,275.8h-18.9v18.9h18.9V275.8L206.4,275.8z"/>
				</g>
			</g>
			<g>
				<rect x="207" y="276.3" class="st0" width="17.9" height="17.9"/>
				<g>
					<path class="st1" d="M224.4,276.8v16.9h-16.9v-16.9H224.4 M225.4,275.8h-18.9v18.9h18.9V275.8L225.4,275.8z"/>
				</g>
			</g>
			<g>
				<rect x="169.1" y="295.1" class="st0" width="17.9" height="17.9"/>
				<g>
					<path class="st1" d="M186.5,295.6v16.9h-16.9v-16.9H186.5 M187.5,294.6h-18.9v18.9h18.9V294.6L187.5,294.6z"/>
				</g>
			</g>
			<g>
				<rect x="188.1" y="295.1" class="st0" width="17.9" height="17.9"/>
				<g>
					<path class="st1" d="M205.4,295.6v16.9h-16.9v-16.9H205.4 M206.4,294.6h-18.9v18.9h18.9V294.6L206.4,294.6z"/>
				</g>
			</g>
			<g>
				<rect x="207" y="295.1" class="st0" width="17.9" height="17.9"/>
				<g>
					<path class="st1" d="M224.4,295.6v16.9h-16.9v-16.9H224.4 M225.4,294.6h-18.9v18.9h18.9V294.6L225.4,294.6z"/>
				</g>
			</g>
			<g>
				<rect x="169.1" y="314" class="st0" width="17.9" height="17.9"/>
				<g>
					<path class="st1" d="M186.5,314.5v16.9h-16.9v-16.9H186.5 M187.5,313.5h-18.9v18.9h18.9V313.5L187.5,313.5z"/>
				</g>
			</g>
			<g>
				<rect x="188.1" y="314" class="st0" width="17.9" height="17.9"/>
				<g>
					<path class="st1" d="M205.4,314.5v16.9h-16.9v-16.9H205.4 M206.4,313.5h-18.9v18.9h18.9V313.5L206.4,313.5z"/>
				</g>
			</g>
			<g>
				<rect x="207" y="314" class="st0" width="17.9" height="17.9"/>
				<g>
					<path class="st1" d="M224.4,314.5v16.9h-16.9v-16.9H224.4 M225.4,313.5h-18.9v18.9h18.9V313.5L225.4,313.5z"/>
				</g>
			</g>
			<g>
				<rect x="169.1" y="332.9" class="st0" width="17.9" height="17.9"/>
				<g>
					<path class="st1" d="M186.5,333.4v16.9h-16.9v-16.9H186.5 M187.5,332.4h-18.9v18.9h18.9V332.4L187.5,332.4z"/>
				</g>
			</g>
			<g>
				<rect x="188.1" y="332.9" class="st0" width="17.9" height="17.9"/>
				<g>
					<path class="st1" d="M205.4,333.4v16.9h-16.9v-16.9H205.4 M206.4,332.4h-18.9v18.9h18.9V332.4L206.4,332.4z"/>
				</g>
			</g>
			<g>
				<rect x="207" y="332.9" class="st0" width="17.9" height="17.9"/>
				<g>
					<path class="st1" d="M224.4,333.4v16.9h-16.9v-16.9H224.4 M225.4,332.4h-18.9v18.9h18.9V332.4L225.4,332.4z"/>
				</g>
			</g>
			<g>
				<rect x="225.9" y="276.3" class="st0" width="17.9" height="17.9"/>
				<g>
					<path class="st1" d="M243.3,276.8v16.9h-16.9v-16.9H243.3 M244.3,275.8h-18.9v18.9h18.9V275.8L244.3,275.8z"/>
				</g>
			</g>
			<g>
				<rect x="225.9" y="295.1" class="st0" width="17.9" height="17.9"/>
				<g>
					<path class="st1" d="M243.3,295.6v16.9h-16.9v-16.9H243.3 M244.3,294.6h-18.9v18.9h18.9V294.6L244.3,294.6z"/>
				</g>
			</g>
			<g>
				<rect x="225.9" y="314" class="st0" width="17.9" height="17.9"/>
				<g>
					<path class="st1" d="M243.3,314.5v16.9h-16.9v-16.9H243.3 M244.3,313.5h-18.9v18.9h18.9V313.5L244.3,313.5z"/>
				</g>
			</g>
			<g>
				<rect x="225.9" y="332.9" class="st0" width="17.9" height="17.9"/>
				<g>
					<path class="st1" d="M243.3,333.4v16.9h-16.9v-16.9H243.3 M244.3,332.4h-18.9v18.9h18.9V332.4L244.3,332.4z"/>
				</g>
			</g>
		</g>
		<g>
			<circle class="st2" cx="168.5" cy="275.8" r="1.5"/>
			<circle class="st2" cx="187.5" cy="275.8" r="1.5"/>
			<circle class="st2" cx="187.5" cy="275.8" r="1.5"/>
			<circle class="st2" cx="206.4" cy="275.8" r="1.5"/>
			<circle class="st2" cx="206.4" cy="275.8" r="1.5"/>
			<circle class="st2" cx="225.4" cy="275.8" r="1.5"/>
			<circle class="st2" cx="225.4" cy="275.8" r="1.5"/>
			<circle class="st2" cx="168.5" cy="294.6" r="1.5"/>
			<circle class="st2" cx="187.5" cy="294.6" r="1.5"/>
			<circle class="st2" cx="187.5" cy="294.6" r="1.5"/>
			<circle class="st2" cx="206.4" cy="294.6" r="1.5"/>
			<circle class="st2" cx="206.4" cy="294.6" r="1.5"/>
			<circle class="st2" cx="225.4" cy="294.6" r="1.5"/>
			<circle class="st2" cx="225.4" cy="294.6" r="1.5"/>
			<circle class="st2" cx="168.5" cy="294.6" r="1.5"/>
			<circle class="st2" cx="187.5" cy="294.6" r="1.5"/>
			<circle class="st2" cx="168.5" cy="313.5" r="1.5"/>
			<circle class="st2" cx="187.5" cy="313.5" r="1.5"/>
			<circle class="st2" cx="187.5" cy="294.6" r="1.5"/>
			<circle class="st2" cx="206.4" cy="294.6" r="1.5"/>
			<circle class="st2" cx="187.5" cy="313.5" r="1.5"/>
			<circle class="st2" cx="206.4" cy="313.5" r="1.5"/>
			<circle class="st2" cx="206.4" cy="294.6" r="1.5"/>
			<circle class="st2" cx="225.4" cy="294.6" r="1.5"/>
			<circle class="st2" cx="206.4" cy="313.5" r="1.5"/>
			<circle class="st2" cx="225.4" cy="313.5" r="1.5"/>
			<circle class="st2" cx="225.4" cy="294.6" r="1.5"/>
			<circle class="st2" cx="225.4" cy="313.5" r="1.5"/>
			<circle class="st2" cx="168.5" cy="313.5" r="1.5"/>
			<circle class="st2" cx="187.5" cy="313.5" r="1.5"/>
			<circle class="st2" cx="168.5" cy="332.4" r="1.5"/>
			<circle class="st2" cx="187.5" cy="332.4" r="1.5"/>
			<circle class="st2" cx="187.5" cy="313.5" r="1.5"/>
			<circle class="st2" cx="206.4" cy="313.5" r="1.5"/>
			<circle class="st2" cx="187.5" cy="332.4" r="1.5"/>
			<circle class="st2" cx="206.4" cy="332.4" r="1.5"/>
			<circle class="st2" cx="206.4" cy="313.5" r="1.5"/>
			<circle class="st2" cx="225.4" cy="313.5" r="1.5"/>
			<circle class="st2" cx="206.4" cy="332.4" r="1.5"/>
			<circle class="st2" cx="225.4" cy="332.4" r="1.5"/>
			<circle class="st2" cx="225.4" cy="313.5" r="1.5"/>
			<circle class="st2" cx="225.4" cy="332.4" r="1.5"/>
			<circle class="st2" cx="168.5" cy="332.4" r="1.5"/>
			<circle class="st2" cx="187.5" cy="332.4" r="1.5"/>
			<circle class="st2" cx="168.5" cy="351.3" r="1.5"/>
			<circle class="st2" cx="187.5" cy="351.3" r="1.5"/>
			<circle class="st2" cx="187.5" cy="332.4" r="1.5"/>
			<circle class="st2" cx="206.4" cy="332.4" r="1.5"/>
			<circle class="st2" cx="187.5" cy="351.3" r="1.5"/>
			<circle class="st2" cx="206.4" cy="351.3" r="1.5"/>
			<circle class="st2" cx="206.4" cy="332.4" r="1.5"/>
			<circle class="st2" cx="225.4" cy="332.4" r="1.5"/>
			<circle class="st2" cx="206.4" cy="351.3" r="1.5"/>
			<circle class="st2" cx="225.4" cy="351.3" r="1.5"/>
			<circle class="st2" cx="225.4" cy="332.4" r="1.5"/>
			<circle class="st2" cx="225.4" cy="351.3" r="1.5"/>
			<circle class="st2" cx="168.5" cy="351.3" r="1.5"/>
			<circle class="st2" cx="187.5" cy="351.3" r="1.5"/>
			<circle class="st2" cx="187.5" cy="351.3" r="1.5"/>
			<circle class="st2" cx="206.4" cy="351.3" r="1.5"/>
			<circle class="st2" cx="206.4" cy="351.3" r="1.5"/>
			<circle class="st2" cx="225.4" cy="351.3" r="1.5"/>
			<circle class="st2" cx="225.4" cy="351.3" r="1.5"/>
			<circle class="st2" cx="168.5" cy="351.3" r="1.5"/>
			<circle class="st2" cx="187.5" cy="351.3" r="1.5"/>
			<circle class="st2" cx="187.5" cy="351.3" r="1.5"/>
			<circle class="st2" cx="206.4" cy="351.3" r="1.5"/>
			<circle class="st2" cx="206.4" cy="351.3" r="1.5"/>
			<circle class="st2" cx="225.4" cy="351.3" r="1.5"/>
			<circle class="st2" cx="225.4" cy="351.3" r="1.5"/>
			<circle class="st2" cx="244.3" cy="275.8" r="1.5"/>
			<circle class="st2" cx="244.3" cy="275.8" r="1.5"/>
			<circle class="st2" cx="244.3" cy="294.6" r="1.5"/>
			<circle class="st2" cx="244.3" cy="294.6" r="1.5"/>
			<circle class="st2" cx="244.3" cy="294.6" r="1.5"/>
			<circle class="st2" cx="244.3" cy="313.5" r="1.5"/>
			<circle class="st2" cx="244.3" cy="294.6" r="1.5"/>
			<circle class="st2" cx="244.3" cy="313.5" r="1.5"/>
			<circle class="st2" cx="244.3" cy="313.5" r="1.5"/>
			<circle class="st2" cx="244.3" cy="332.4" r="1.5"/>
			<circle class="st2" cx="244.3" cy="313.5" r="1.5"/>
			<circle class="st2" cx="244.3" cy="332.4" r="1.5"/>
			<circle class="st2" cx="244.3" cy="332.4" r="1.5"/>
			<circle class="st2" cx="244.3" cy="351.3" r="1.5"/>
			<circle class="st2" cx="244.3" cy="332.4" r="1.5"/>
			<circle class="st2" cx="244.3" cy="351.3" r="1.5"/>
			<circle class="st2" cx="244.3" cy="351.3" r="1.5"/>
			<circle class="st2" cx="244.3" cy="351.3" r="1.5"/>
			<circle class="st2" cx="244.3" cy="351.3" r="1.5"/>
			<circle class="st2" cx="244.3" cy="351.3" r="1.5"/>
		</g>
	</g>
	<g>
		<g>
			<rect x="244.8" y="200.7" class="st0" width="17.9" height="17.9"/>
			<g>
				<path class="st1" d="M262.2,201.2v16.9h-16.9v-16.9H262.2 M263.2,200.2h-18.9v18.9h18.9V200.2L263.2,200.2z"/>
			</g>
		</g>
		<g>
			<rect x="263.8" y="200.7" class="st0" width="17.9" height="17.9"/>
			<g>
				<path class="st1" d="M281.2,201.2v16.9h-16.9v-16.9H281.2 M282.2,200.2h-18.9v18.9h18.9V200.2L282.2,200.2z"/>
			</g>
		</g>
		<g>
			<rect x="282.7" y="200.7" class="st0" width="17.9" height="17.9"/>
			<g>
				<path class="st1" d="M300.1,201.2v16.9h-16.9v-16.9H300.1 M301.1,200.2h-18.9v18.9h18.9V200.2L301.1,200.2z"/>
			</g>
		</g>
		<g>
			<rect x="244.8" y="219.6" class="st0" width="17.9" height="17.9"/>
			<g>
				<path class="st1" d="M262.2,220.1V237h-16.9v-16.9H262.2 M263.2,219.1h-18.9V238h18.9V219.1L263.2,219.1z"/>
			</g>
		</g>
		<g>
			<rect x="263.8" y="219.6" class="st0" width="17.9" height="17.9"/>
			<g>
				<path class="st1" d="M281.2,220.1V237h-16.9v-16.9H281.2 M282.2,219.1h-18.9V238h18.9V219.1L282.2,219.1z"/>
			</g>
		</g>
		<g>
			<rect x="282.7" y="219.6" class="st0" width="17.9" height="17.9"/>
			<g>
				<path class="st1" d="M300.1,220.1V237h-16.9v-16.9H300.1 M301.1,219.1h-18.9V238h18.9V219.1L301.1,219.1z"/>
			</g>
		</g>
		<g>
			<rect x="244.8" y="238.5" class="st0" width="17.9" height="17.9"/>
			<g>
				<path class="st1" d="M262.2,239v16.9h-16.9V239H262.2 M263.2,238h-18.9v18.9h18.9V238L263.2,238z"/>
			</g>
		</g>
		<g>
			<rect x="263.8" y="238.5" class="st0" width="17.9" height="17.9"/>
			<g>
				<path class="st1" d="M281.2,239v16.9h-16.9V239H281.2 M282.2,238h-18.9v18.9h18.9V238L282.2,238z"/>
			</g>
		</g>
		<g>
			<rect x="282.7" y="238.5" class="st0" width="17.9" height="17.9"/>
			<g>
				<path class="st1" d="M300.1,239v16.9h-16.9V239H300.1 M301.1,238h-18.9v18.9h18.9V238L301.1,238z"/>
			</g>
		</g>
		<g>
			<rect x="244.8" y="257.4" class="st0" width="17.9" height="17.9"/>
			<g>
				<path class="st1" d="M262.2,257.9v16.9h-16.9v-16.9H262.2 M263.2,256.9h-18.9v18.9h18.9V256.9L263.2,256.9z"/>
			</g>
		</g>
		<g>
			<rect x="263.8" y="257.4" class="st0" width="17.9" height="17.9"/>
			<g>
				<path class="st1" d="M281.2,257.9v16.9h-16.9v-16.9H281.2 M282.2,256.9h-18.9v18.9h18.9V256.9L282.2,256.9z"/>
			</g>
		</g>
		<g>
			<rect x="282.7" y="257.4" class="st0" width="17.9" height="17.9"/>
			<g>
				<path class="st1" d="M300.1,257.9v16.9h-16.9v-16.9H300.1 M301.1,256.9h-18.9v18.9h18.9V256.9L301.1,256.9z"/>
			</g>
		</g>
		<g>
			<rect x="301.6" y="200.7" class="st0" width="17.9" height="17.9"/>
			<g>
				<path class="st1" d="M319,201.2v16.9h-16.9v-16.9H319 M320,200.2h-18.9v18.9H320V200.2L320,200.2z"/>
			</g>
		</g>
		<g>
			<rect x="301.6" y="219.6" class="st0" width="17.9" height="17.9"/>
			<g>
				<path class="st1" d="M319,220.1V237h-16.9v-16.9H319 M320,219.1h-18.9V238H320V219.1L320,219.1z"/>
			</g>
		</g>
		<g>
			<rect x="301.6" y="238.5" class="st0" width="17.9" height="17.9"/>
			<g>
				<path class="st1" d="M319,239v16.9h-16.9V239H319 M320,238h-18.9v18.9H320V238L320,238z"/>
			</g>
		</g>
		<g>
			<rect x="301.6" y="257.4" class="st0" width="17.9" height="17.9"/>
			<g>
				<path class="st1" d="M319,257.9v16.9h-16.9v-16.9H319 M320,256.9h-18.9v18.9H320V256.9L320,256.9z"/>
			</g>
		</g>
	</g>
	<g>
		<circle class="st2" cx="244.3" cy="200.2" r="1.5"/>
		<circle class="st2" cx="263.2" cy="200.2" r="1.5"/>
		<circle class="st2" cx="263.2" cy="200.2" r="1.5"/>
		<circle class="st2" cx="282.2" cy="200.2" r="1.5"/>
		<circle class="st2" cx="282.2" cy="200.2" r="1.5"/>
		<circle class="st2" cx="301.1" cy="200.2" r="1.5"/>
		<circle class="st2" cx="301.1" cy="200.2" r="1.5"/>
		<circle class="st2" cx="244.3" cy="219.1" r="1.5"/>
		<circle class="st2" cx="263.2" cy="219.1" r="1.5"/>
		<circle class="st2" cx="263.2" cy="219.1" r="1.5"/>
		<circle class="st2" cx="282.2" cy="219.1" r="1.5"/>
		<circle class="st2" cx="282.2" cy="219.1" r="1.5"/>
		<circle class="st2" cx="301.1" cy="219.1" r="1.5"/>
		<circle class="st2" cx="301.1" cy="219.1" r="1.5"/>
		<circle class="st2" cx="244.3" cy="219.1" r="1.5"/>
		<circle class="st2" cx="263.2" cy="219.1" r="1.5"/>
		<circle class="st2" cx="244.3" cy="238" r="1.5"/>
		<circle class="st2" cx="263.2" cy="238" r="1.5"/>
		<circle class="st2" cx="263.2" cy="219.1" r="1.5"/>
		<circle class="st2" cx="282.2" cy="219.1" r="1.5"/>
		<circle class="st2" cx="263.2" cy="238" r="1.5"/>
		<circle class="st2" cx="282.2" cy="238" r="1.5"/>
		<circle class="st2" cx="282.2" cy="219.1" r="1.5"/>
		<circle class="st2" cx="301.1" cy="219.1" r="1.5"/>
		<circle class="st2" cx="282.2" cy="238" r="1.5"/>
		<circle class="st2" cx="301.1" cy="238" r="1.5"/>
		<circle class="st2" cx="301.1" cy="219.1" r="1.5"/>
		<circle class="st2" cx="301.1" cy="238" r="1.5"/>
		<circle class="st2" cx="244.3" cy="238" r="1.5"/>
		<circle class="st2" cx="263.2" cy="238" r="1.5"/>
		<circle class="st2" cx="244.3" cy="256.9" r="1.5"/>
		<circle class="st2" cx="263.2" cy="256.9" r="1.5"/>
		<circle class="st2" cx="263.2" cy="238" r="1.5"/>
		<circle class="st2" cx="282.2" cy="238" r="1.5"/>
		<circle class="st2" cx="263.2" cy="256.9" r="1.5"/>
		<circle class="st2" cx="282.2" cy="256.9" r="1.5"/>
		<circle class="st2" cx="282.2" cy="238" r="1.5"/>
		<circle class="st2" cx="301.1" cy="238" r="1.5"/>
		<circle class="st2" cx="282.2" cy="256.9" r="1.5"/>
		<circle class="st2" cx="301.1" cy="256.9" r="1.5"/>
		<circle class="st2" cx="301.1" cy="238" r="1.5"/>
		<circle class="st2" cx="301.1" cy="256.9" r="1.5"/>
		<circle class="st2" cx="244.3" cy="256.9" r="1.5"/>
		<circle class="st2" cx="263.2" cy="256.9" r="1.5"/>
		<circle class="st2" cx="244.3" cy="275.8" r="1.5"/>
		<circle class="st2" cx="263.2" cy="275.8" r="1.5"/>
		<circle class="st2" cx="263.2" cy="256.9" r="1.5"/>
		<circle class="st2" cx="282.2" cy="256.9" r="1.5"/>
		<circle class="st2" cx="263.2" cy="275.8" r="1.5"/>
		<circle class="st2" cx="282.2" cy="275.8" r="1.5"/>
		<circle class="st2" cx="282.2" cy="256.9" r="1.5"/>
		<circle class="st2" cx="301.1" cy="256.9" r="1.5"/>
		<circle class="st2" cx="282.2" cy="275.8" r="1.5"/>
		<circle class="st2" cx="301.1" cy="275.8" r="1.5"/>
		<circle class="st2" cx="301.1" cy="256.9" r="1.5"/>
		<circle class="st2" cx="301.1" cy="275.8" r="1.5"/>
		<circle class="st2" cx="244.3" cy="275.8" r="1.5"/>
		<circle class="st2" cx="263.2" cy="275.8" r="1.5"/>
		<circle class="st2" cx="263.2" cy="275.8" r="1.5"/>
		<circle class="st2" cx="282.2" cy="275.8" r="1.5"/>
		<circle class="st2" cx="282.2" cy="275.8" r="1.5"/>
		<circle class="st2" cx="301.1" cy="275.8" r="1.5"/>
		<circle class="st2" cx="301.1" cy="275.8" r="1.5"/>
		<circle class="st2" cx="244.3" cy="275.8" r="1.5"/>
		<circle class="st2" cx="263.2" cy="275.8" r="1.5"/>
		<circle class="st2" cx="263.2" cy="275.8" r="1.5"/>
		<circle class="st2" cx="282.2" cy="275.8" r="1.5"/>
		<circle class="st2" cx="282.2" cy="275.8" r="1.5"/>
		<circle class="st2" cx="301.1" cy="275.8" r="1.5"/>
		<circle class="st2" cx="301.1" cy="275.8" r="1.5"/>
		<circle class="st2" cx="320" cy="200.2" r="1.5"/>
		<circle class="st2" cx="320" cy="200.2" r="1.5"/>
		<circle class="st2" cx="320" cy="219.1" r="1.5"/>
		<circle class="st2" cx="320" cy="219.1" r="1.5"/>
		<circle class="st2" cx="320" cy="219.1" r="1.5"/>
		<circle class="st2" cx="320" cy="238" r="1.5"/>
		<circle class="st2" cx="320" cy="219.1" r="1.5"/>
		<circle class="st2" cx="320" cy="238" r="1.5"/>
		<circle class="st2" cx="320" cy="238" r="1.5"/>
		<circle class="st2" cx="320" cy="256.9" r="1.5"/>
		<circle class="st2" cx="320" cy="238" r="1.5"/>
		<circle class="st2" cx="320" cy="256.9" r="1.5"/>
		<circle class="st2" cx="320" cy="256.9" r="1.5"/>
		<circle class="st2" cx="320" cy="275.8" r="1.5"/>
		<circle class="st2" cx="320" cy="256.9" r="1.5"/>
		<circle class="st2" cx="320" cy="275.8" r="1.5"/>
		<circle class="st2" cx="320" cy="275.8" r="1.5"/>
		<circle class="st2" cx="320" cy="275.8" r="1.5"/>
		<circle class="st2" cx="320" cy="275.8" r="1.5"/>
		<circle class="st2" cx="320" cy="275.8" r="1.5"/>
	</g>
	<g>
		<g>
			<g>
				<rect x="169.1" y="200.7" class="st0" width="17.9" height="17.9"/>
				<g>
					<path class="st1" d="M186.5,201.2v16.9h-16.9v-16.9H186.5 M187.5,200.2h-18.9v18.9h18.9V200.2L187.5,200.2z"/>
				</g>
			</g>
			<g>
				<rect x="188.1" y="200.7" class="st0" width="17.9" height="17.9"/>
				<g>
					<path class="st1" d="M205.4,201.2v16.9h-16.9v-16.9H205.4 M206.4,200.2h-18.9v18.9h18.9V200.2L206.4,200.2z"/>
				</g>
			</g>
			<g>
				<rect x="207" y="200.7" class="st0" width="17.9" height="17.9"/>
				<g>
					<path class="st1" d="M224.4,201.2v16.9h-16.9v-16.9H224.4 M225.4,200.2h-18.9v18.9h18.9V200.2L225.4,200.2z"/>
				</g>
			</g>
			<g>
				<rect x="169.1" y="219.6" class="st0" width="17.9" height="17.9"/>
				<g>
					<path class="st1" d="M186.5,220.1V237h-16.9v-16.9H186.5 M187.5,219.1h-18.9V238h18.9V219.1L187.5,219.1z"/>
				</g>
			</g>
			<g>
				<rect x="188.1" y="219.6" class="st0" width="17.9" height="17.9"/>
				<g>
					<path class="st1" d="M205.4,220.1V237h-16.9v-16.9H205.4 M206.4,219.1h-18.9V238h18.9V219.1L206.4,219.1z"/>
				</g>
			</g>
			<g>
				<rect x="207" y="219.6" class="st0" width="17.9" height="17.9"/>
				<g>
					<path class="st1" d="M224.4,220.1V237h-16.9v-16.9H224.4 M225.4,219.1h-18.9V238h18.9V219.1L225.4,219.1z"/>
				</g>
			</g>
			<g>
				<rect x="169.1" y="238.5" class="st0" width="17.9" height="17.9"/>
				<g>
					<path class="st1" d="M186.5,239v16.9h-16.9V239H186.5 M187.5,238h-18.9v18.9h18.9V238L187.5,238z"/>
				</g>
			</g>
			<g>
				<rect x="188.1" y="238.5" class="st0" width="17.9" height="17.9"/>
				<g>
					<path class="st1" d="M205.4,239v16.9h-16.9V239H205.4 M206.4,238h-18.9v18.9h18.9V238L206.4,238z"/>
				</g>
			</g>
			<g>
				<rect x="207" y="238.5" class="st0" width="17.9" height="17.9"/>
				<g>
					<path class="st1" d="M224.4,239v16.9h-16.9V239H224.4 M225.4,238h-18.9v18.9h18.9V238L225.4,238z"/>
				</g>
			</g>
			<g>
				<rect x="169.1" y="257.4" class="st0" width="17.9" height="17.9"/>
				<g>
					<path class="st1" d="M186.5,257.9v16.9h-16.9v-16.9H186.5 M187.5,256.9h-18.9v18.9h18.9V256.9L187.5,256.9z"/>
				</g>
			</g>
			<g>
				<rect x="188.1" y="257.4" class="st0" width="17.9" height="17.9"/>
				<g>
					<path class="st1" d="M205.4,257.9v16.9h-16.9v-16.9H205.4 M206.4,256.9h-18.9v18.9h18.9V256.9L206.4,256.9z"/>
				</g>
			</g>
			<g>
				<rect x="207" y="257.4" class="st0" width="17.9" height="17.9"/>
				<g>
					<path class="st1" d="M224.4,257.9v16.9h-16.9v-16.9H224.4 M225.4,256.9h-18.9v18.9h18.9V256.9L225.4,256.9z"/>
				</g>
			</g>
			<g>
				<rect x="225.9" y="200.7" class="st0" width="17.9" height="17.9"/>
				<g>
					<path class="st1" d="M243.3,201.2v16.9h-16.9v-16.9H243.3 M244.3,200.2h-18.9v18.9h18.9V200.2L244.3,200.2z"/>
				</g>
			</g>
			<g>
				<rect x="225.9" y="219.6" class="st0" width="17.9" height="17.9"/>
				<g>
					<path class="st1" d="M243.3,220.1V237h-16.9v-16.9H243.3 M244.3,219.1h-18.9V238h18.9V219.1L244.3,219.1z"/>
				</g>
			</g>
			<g>
				<rect x="225.9" y="238.5" class="st0" width="17.9" height="17.9"/>
				<g>
					<path class="st1" d="M243.3,239v16.9h-16.9V239H243.3 M244.3,238h-18.9v18.9h18.9V238L244.3,238z"/>
				</g>
			</g>
			<g>
				<rect x="225.9" y="257.4" class="st0" width="17.9" height="17.9"/>
				<g>
					<path class="st1" d="M243.3,257.9v16.9h-16.9v-16.9H243.3 M244.3,256.9h-18.9v18.9h18.9V256.9L244.3,256.9z"/>
				</g>
			</g>
		</g>
		<g>
			<circle class="st2" cx="168.5" cy="200.2" r="1.5"/>
			<circle class="st2" cx="187.5" cy="200.2" r="1.5"/>
			<circle class="st2" cx="187.5" cy="200.2" r="1.5"/>
			<circle class="st2" cx="206.4" cy="200.2" r="1.5"/>
			<circle class="st2" cx="206.4" cy="200.2" r="1.5"/>
			<circle class="st2" cx="225.4" cy="200.2" r="1.5"/>
			<circle class="st2" cx="225.4" cy="200.2" r="1.5"/>
			<circle class="st2" cx="168.5" cy="219.1" r="1.5"/>
			<circle class="st2" cx="187.5" cy="219.1" r="1.5"/>
			<circle class="st2" cx="187.5" cy="219.1" r="1.5"/>
			<circle class="st2" cx="206.4" cy="219.1" r="1.5"/>
			<circle class="st2" cx="206.4" cy="219.1" r="1.5"/>
			<circle class="st2" cx="225.4" cy="219.1" r="1.5"/>
			<circle class="st2" cx="225.4" cy="219.1" r="1.5"/>
			<circle class="st2" cx="168.5" cy="219.1" r="1.5"/>
			<circle class="st2" cx="187.5" cy="219.1" r="1.5"/>
			<circle class="st2" cx="168.5" cy="238" r="1.5"/>
			<circle class="st2" cx="187.5" cy="238" r="1.5"/>
			<circle class="st2" cx="187.5" cy="219.1" r="1.5"/>
			<circle class="st2" cx="206.4" cy="219.1" r="1.5"/>
			<circle class="st2" cx="187.5" cy="238" r="1.5"/>
			<circle class="st2" cx="206.4" cy="238" r="1.5"/>
			<circle class="st2" cx="206.4" cy="219.1" r="1.5"/>
			<circle class="st2" cx="225.4" cy="219.1" r="1.5"/>
			<circle class="st2" cx="206.4" cy="238" r="1.5"/>
			<circle class="st2" cx="225.4" cy="238" r="1.5"/>
			<circle class="st2" cx="225.4" cy="219.1" r="1.5"/>
			<circle class="st2" cx="225.4" cy="238" r="1.5"/>
			<circle class="st2" cx="168.5" cy="238" r="1.5"/>
			<circle class="st2" cx="187.5" cy="238" r="1.5"/>
			<circle class="st2" cx="168.5" cy="256.9" r="1.5"/>
			<circle class="st2" cx="187.5" cy="256.9" r="1.5"/>
			<circle class="st2" cx="187.5" cy="238" r="1.5"/>
			<circle class="st2" cx="206.4" cy="238" r="1.5"/>
			<circle class="st2" cx="187.5" cy="256.9" r="1.5"/>
			<circle class="st2" cx="206.4" cy="256.9" r="1.5"/>
			<circle class="st2" cx="206.4" cy="238" r="1.5"/>
			<circle class="st2" cx="225.4" cy="238" r="1.5"/>
			<circle class="st2" cx="206.4" cy="256.9" r="1.5"/>
			<circle class="st2" cx="225.4" cy="256.9" r="1.5"/>
			<circle class="st2" cx="225.4" cy="238" r="1.5"/>
			<circle class="st2" cx="225.4" cy="256.9" r="1.5"/>
			<circle class="st2" cx="168.5" cy="256.9" r="1.5"/>
			<circle class="st2" cx="187.5" cy="256.9" r="1.5"/>
			<circle class="st2" cx="168.5" cy="275.8" r="1.5"/>
			<circle class="st2" cx="187.5" cy="275.8" r="1.5"/>
			<circle class="st2" cx="187.5" cy="256.9" r="1.5"/>
			<circle class="st2" cx="206.4" cy="256.9" r="1.5"/>
			<circle class="st2" cx="187.5" cy="275.8" r="1.5"/>
			<circle class="st2" cx="206.4" cy="275.8" r="1.5"/>
			<circle class="st2" cx="206.4" cy="256.9" r="1.5"/>
			<circle class="st2" cx="225.4" cy="256.9" r="1.5"/>
			<circle class="st2" cx="206.4" cy="275.8" r="1.5"/>
			<circle class="st2" cx="225.4" cy="275.8" r="1.5"/>
			<circle class="st2" cx="225.4" cy="256.9" r="1.5"/>
			<circle class="st2" cx="225.4" cy="275.8" r="1.5"/>
			<circle class="st2" cx="168.5" cy="275.8" r="1.5"/>
			<circle class="st2" cx="187.5" cy="275.8" r="1.5"/>
			<circle class="st2" cx="187.5" cy="275.8" r="1.5"/>
			<circle class="st2" cx="206.4" cy="275.8" r="1.5"/>
			<circle class="st2" cx="206.4" cy="275.8" r="1.5"/>
			<circle class="st2" cx="225.4" cy="275.8" r="1.5"/>
			<circle class="st2" cx="225.4" cy="275.8" r="1.5"/>
			<circle class="st2" cx="168.5" cy="275.8" r="1.5"/>
			<circle class="st2" cx="187.5" cy="275.8" r="1.5"/>
			<circle class="st2" cx="187.5" cy="275.8" r="1.5"/>
			<circle class="st2" cx="206.4" cy="275.8" r="1.5"/>
			<circle class="st2" cx="206.4" cy="275.8" r="1.5"/>
			<circle class="st2" cx="225.4" cy="275.8" r="1.5"/>
			<circle class="st2" cx="225.4" cy="275.8" r="1.5"/>
			<circle class="st2" cx="244.3" cy="200.2" r="1.5"/>
			<circle class="st2" cx="244.3" cy="200.2" r="1.5"/>
			<circle class="st2" cx="244.3" cy="219.1" r="1.5"/>
			<circle class="st2" cx="244.3" cy="219.1" r="1.5"/>
			<circle class="st2" cx="244.3" cy="219.1" r="1.5"/>
			<circle class="st2" cx="244.3" cy="238" r="1.5"/>
			<circle class="st2" cx="244.3" cy="219.1" r="1.5"/>
			<circle class="st2" cx="244.3" cy="238" r="1.5"/>
			<circle class="st2" cx="244.3" cy="238" r="1.5"/>
			<circle class="st2" cx="244.3" cy="256.9" r="1.5"/>
			<circle class="st2" cx="244.3" cy="238" r="1.5"/>
			<circle class="st2" cx="244.3" cy="256.9" r="1.5"/>
			<circle class="st2" cx="244.3" cy="256.9" r="1.5"/>
			<circle class="st2" cx="244.3" cy="275.8" r="1.5"/>
			<circle class="st2" cx="244.3" cy="256.9" r="1.5"/>
			<circle class="st2" cx="244.3" cy="275.8" r="1.5"/>
			<circle class="st2" cx="244.3" cy="275.8" r="1.5"/>
			<circle class="st2" cx="244.3" cy="275.8" r="1.5"/>
			<circle class="st2" cx="244.3" cy="275.8" r="1.5"/>
			<circle class="st2" cx="244.3" cy="275.8" r="1.5"/>
		</g>
	</g>
</g>
<g>
	<polygon class="st3" points="264.4,238.2 281.4,238.2 281.4,255.9 246,273.5 	"/>
	<path class="st4" d="M280.7,238.9v16.5l-32.9,16.4l17.2-32.9H280.7 M282.2,237.4H264l-19.7,37.8l37.9-18.9V237.4L282.2,237.4z"/>
</g>
<polygon class="st5" points="244.3,275.2 225.4,237.4 206.5,237.4 206.5,256.3 "/>
<g>
	<polygon class="st3" points="207.2,312.3 207.2,294.6 242.6,276.9 224.9,312.3 	"/>
	<path class="st4" d="M240.9,278.6l-16.5,32.9h-16.5V295L240.9,278.6 M244.3,275.2l-37.8,18.9V313h18.9L244.3,275.2L244.3,275.2z"/>
</g>
<g>
	<polygon class="st3" points="263.6,312.3 246,276.9 281.4,294.6 281.4,312.3 	"/>
	<path class="st4" d="M247.6,278.6l33,16.5v16.5h-16.5L247.6,278.6 M244.3,275.2l18.9,37.8h18.9v-18.9L244.3,275.2L244.3,275.2z"/>
</g>
<g>
	<polygon class="st3" points="225,238.1 242.6,273.5 207.2,255.8 207.2,238.1 	"/>
	<path class="st4" d="M241,271.8l-33-16.5v-16.5h16.5L241,271.8 M244.3,275.2l-18.9-37.8h-18.9v18.9L244.3,275.2L244.3,275.2z"/>
</g>
</svg>
