<?xml version="1.0" encoding="utf-8"?>
<!-- Generator: Adobe Illustrator 22.1.0, SVG Export Plug-In . SVG Version: 6.00 Build 0)  -->
<svg version="1.1" id="Layer_1" xmlns="http://www.w3.org/2000/svg" xmlns:xlink="http://www.w3.org/1999/xlink" x="0px" y="0px"
	 viewBox="0 0 400 400" style="enable-background:new 0 0 400 400;" xml:space="preserve">
<style type="text/css">
	.st0{fill:#60025E;}
	.st1{fill:#FFFFFF;}
	.st2{opacity:0.1;}
	.st3{fill:#F86A00;}
	.st4{fill:#99360C;}
	.st5{fill:#A5D73C;}
	.st6{fill:#69941B;}
	.st7{fill:#FADC3C;}
	.st8{fill:#B0941D;}
	.st9{fill:#00CDC8;}
	.st10{fill:#1CA49D;}
	.st11{fill:#FC6A6C;}
	.st12{fill:#B3040F;}
	.st13{fill:#642057;}
	.st14{fill:#2F0026;}
	.st15{fill:#E6DACA;stroke:#1A1A1A;stroke-width:3.6869;stroke-miterlimit:10;}
</style>
<circle class="st0" cx="200" cy="340.1" r="37.7"/>
<g>
	<path class="st1" d="M197.2,350.6c-0.5-0.6-0.7-1.3-0.7-2.3c0-2.6,0.5-4.8,1.4-6.6c0.9-1.8,2.3-3.8,4.1-5.9
		c1.4-1.7,2.5-3.1,3.1-4.2c0.7-1.1,1-2.4,1-3.8c0-1.6-0.6-2.8-1.7-3.7c-1.2-0.9-2.7-1.4-4.7-1.4c-1.7,0-3.3,0.4-4.9,1.1
		c-1.6,0.7-3.4,1.8-5.5,3.2c-1.2,0.7-2.1,1-2.9,1c-0.8,0-1.5-0.4-2.1-1.1s-0.9-1.6-0.9-2.6c0-1.4,0.6-2.5,1.7-3.3c2-1.7,4.3-3,7-4
		s5.4-1.5,8.1-1.5c2.9,0,5.4,0.5,7.7,1.5c2.2,1,4,2.4,5.2,4.1c1.3,1.7,1.9,3.8,1.9,6c0,2.5-0.6,4.6-1.8,6.4s-2.9,3.9-5.2,6.1
		c-1.9,2-3.4,3.6-4.4,5s-1.6,2.9-1.8,4.6c-0.1,0.8-0.5,1.3-1,1.7c-0.5,0.4-1.1,0.6-1.9,0.6C198.3,351.4,197.7,351.2,197.2,350.6z
		 M195.5,364.8c-1-1-1.5-2.3-1.5-3.8s0.5-2.8,1.5-3.8s2.2-1.5,3.8-1.5c1.5,0,2.8,0.5,3.8,1.5s1.5,2.3,1.5,3.8s-0.5,2.8-1.5,3.8
		s-2.3,1.5-3.7,1.5C197.8,366.3,196.5,365.8,195.5,364.8z"/>
</g>
<g class="st2">
	<g>
		<g>
			<polygon class="st3" points="116.2,36 128.8,28.3 184.6,28.2 197.2,36 			"/>
			<path class="st4" d="M184.4,28.7l11,6.8H118l11-6.7L184.4,28.7 M184.7,27.7l-56,0.1l-14.3,8.7H199L184.7,27.7L184.7,27.7z"/>
		</g>
	</g>
</g>
<g>
	<g>
		<rect x="115.8" y="199.9" class="st5" width="79.3" height="79.3"/>
		<path class="st6" d="M194.6,200.4v78.3h-78.3v-78.3H194.6 M195.6,199.4h-80.3v80.3h80.3V199.4L195.6,199.4z"/>
	</g>
	<g>
		<polygon class="st7" points="35.5,198.9 35.3,119.6 114.7,119.5 114.8,198.9 		"/>
		<g>
			<path class="st8" d="M114.2,120l0.1,78.4H36l-0.2-78.3L114.2,120 M115.2,119l-80.4,0.1l0.2,80.3h80.3L115.2,119L115.2,119z"/>
		</g>
	</g>
	<g>
		<polygon class="st9" points="115.8,198.9 115.7,119.5 195,119.5 195.1,198.9 		"/>
		<path class="st10" d="M194.5,120l0.1,78.4h-78.3l-0.1-78.4H194.5 M195.5,119h-80.3l0.1,80.4h80.3L195.5,119L195.5,119z"/>
	</g>
	<g>
		<polygon class="st11" points="196.1,198.9 196,119.5 275.3,119.5 275.4,198.9 		"/>
		<path class="st12" d="M274.8,120l0.1,78.4h-78.3l-0.1-78.4H274.8 M275.8,119h-80.3l0.1,80.4h80.3L275.8,119L275.8,119z"/>
	</g>
	<g>
		
			<rect x="115.7" y="39.3" transform="matrix(1.028287e-03 -1 1 1.028287e-03 76.2935 234.2416)" class="st3" width="79.3" height="79.3"/>
		<path class="st4" d="M116.3,39.7l78.3,0.1l-0.1,78.3l-78.3-0.1L116.3,39.7 M115.3,38.7l-0.1,80.3l80.3,0.1l0.1-80.3L115.3,38.7
			L115.3,38.7z"/>
	</g>
	<g>
		<polygon class="st13" points="276.4,198.9 276.3,119.5 355.7,119.5 355.8,198.9 		"/>
		<path class="st14" d="M355.2,120l0.1,78.4h-78.4l-0.1-78.4H355.2 M356.2,119h-80.4l0.1,80.4h80.4L356.2,119L356.2,119z"/>
	</g>
	<g>
		<polygon class="st13" points="356.7,120.8 364.1,132.7 364.1,185.7 356.8,197.6 		"/>
		<path class="st14" d="M357.2,122.5l6.4,10.4v52.6l-6.3,10.3L357.2,122.5 M356.2,119l0.1,80.4l8.3-13.6v-53.2L356.2,119L356.2,119z
			"/>
	</g>
	<g>
		<polygon class="st11" points="197.3,118.5 209,111.2 261.9,111.2 274,118.5 		"/>
		<path class="st12" d="M261.7,111.7l10.5,6.3H199l10.2-6.3H261.7 M262,110.7h-53.1l-13.4,8.3h80.3L262,110.7L262,110.7z"/>
	</g>
	<g>
		<polygon class="st3" points="117.1,38.2 129,30.9 181.9,30.9 193.8,38.2 		"/>
		<path class="st4" d="M181.7,31.4l10.3,6.3h-73.2l10.3-6.3H181.7 M182,30.4h-53.1l-13.6,8.3h80.3L182,30.4L182,30.4z"/>
	</g>
	<g>
		<polygon class="st13" points="277.6,118.5 289.3,111.2 342.3,111.2 354.4,118.5 		"/>
		<path class="st14" d="M342.1,111.7l10.5,6.3h-73.3l10.2-6.3H342.1 M342.4,110.7h-53.2l-13.4,8.3h80.4L342.4,110.7L342.4,110.7z"/>
	</g>
	<g>
		<polygon class="st7" points="48.3,111.3 101.3,111.2 113.4,118.5 36.6,118.6 		"/>
		<path class="st8" d="M101.1,111.7l10.5,6.3l-73.3,0.1l10.2-6.3L101.1,111.7 M101.4,110.7l-53.2,0.1l-13.4,8.3l80.4-0.1
			L101.4,110.7L101.4,110.7z"/>
	</g>
	<g>
		<polygon class="st7" points="48.6,207.2 36.8,199.9 113.5,199.9 101.6,207.2 		"/>
		<path class="st8" d="M111.7,200.4l-10.3,6.3H48.8l-10.2-6.3H111.7 M115.3,199.4L115.3,199.4L115.3,199.4z M115.3,199.4H35
			l13.5,8.3h53.2L115.3,199.4L115.3,199.4z"/>
	</g>
	<g>
		<polygon class="st11" points="209.3,207.2 197.4,199.9 274.1,199.9 262.3,207.2 		"/>
		<path class="st12" d="M272.4,200.4l-10.2,6.3h-52.6l-10.3-6.3H272.4 M275.9,199.4h-80.3l13.6,8.3h53.2L275.9,199.4L275.9,199.4z"
			/>
	</g>
	<g>
		<polygon class="st5" points="107.4,266.3 107.4,213.3 114.8,201.2 114.8,278 		"/>
		<path class="st6" d="M114.3,203v73.3l-6.4-10.1v-52.6L114.3,203 M115.3,199.4l-8.4,13.8v53.2l8.4,13.3V199.4L115.3,199.4z"/>
	</g>
	<g>
		<polygon class="st5" points="196.1,201.2 203.4,213 203.4,266 196.1,277.9 		"/>
		<path class="st6" d="M196.6,202.9l6.3,10.2v52.6l-6.3,10.3V202.9 M195.6,199.4v80.3l8.3-13.6v-53.2L195.6,199.4L195.6,199.4z"/>
	</g>
	<g>
		<polygon class="st13" points="289.6,207.2 277.7,199.9 354.5,199.9 342.6,207.2 		"/>
		<path class="st14" d="M352.7,200.4l-10.3,6.3h-52.6l-10.3-6.3H352.7 M356.3,199.4h-80.4l13.6,8.3h53.2L356.3,199.4L356.3,199.4z"
			/>
	</g>
</g>
<path class="st15" d="M229.3,146.9"/>
<g>
	<g>
		<g>
			<polygon class="st9" points="-483.9,817.3 -424.2,781.1 -364.5,817.3 -424.2,853.5 			"/>
			<path class="st10" d="M-424.2,782.8l56.8,34.5l-56.8,34.5l-56.8-34.5L-424.2,782.8 M-424.2,779.3l-62.6,38l62.6,38l62.6-38
				L-424.2,779.3L-424.2,779.3z"/>
		</g>
		<g>
			<polygon class="st11" points="-422.7,856.1 -363.1,820 -363.1,879.5 -422.7,915.7 			"/>
			<path class="st12" d="M-364.6,822.6v56l-56.6,34.3v-56L-364.6,822.6 M-361.6,817.3l-62.6,38v63l62.6-38V817.3L-361.6,817.3z"/>
		</g>
		<g>
			<polygon class="st5" points="-485.3,879.5 -485.3,820 -425.7,856.1 -425.7,915.7 			"/>
			<path class="st6" d="M-483.8,822.6l56.6,34.3v56l-56.6-34.3V822.6 M-486.8,817.3v63l62.6,38v-63L-486.8,817.3L-486.8,817.3z"/>
		</g>
	</g>
</g>
<g>
	<g>
		<g>
			<polygon class="st9" points="-703.4,817.3 -643.7,781.1 -584,817.3 -643.7,853.5 			"/>
			<path class="st10" d="M-643.7,782.8l56.8,34.5l-56.8,34.5l-56.8-34.5L-643.7,782.8 M-643.7,779.3l-62.6,38l62.6,38l62.6-38
				L-643.7,779.3L-643.7,779.3z"/>
		</g>
		<g>
			<polygon class="st5" points="-642.2,856.1 -582.6,820 -582.6,879.5 -642.2,915.7 			"/>
			<path class="st6" d="M-584.1,822.6v56l-56.6,34.3v-56L-584.1,822.6 M-581.1,817.3l-62.6,38v63l62.6-38V817.3L-581.1,817.3z"/>
		</g>
		<g>
			<polygon class="st13" points="-704.8,879.5 -704.8,820 -645.2,856.1 -645.2,915.7 			"/>
			<path class="st14" d="M-703.3,822.6l56.6,34.3v56l-56.6-34.3V822.6 M-706.3,817.3v63l62.6,38v-63L-706.3,817.3L-706.3,817.3z"/>
		</g>
	</g>
</g>
<g>
	<g>
		<g>
			<g>
				<g>
					<polygon class="st9" points="-264.5,818.8 -204.8,782.6 -145,818.8 -204.8,855.1 					"/>
					<path class="st10" d="M-204.8,784.4l56.8,34.5l-56.8,34.5l-56.8-34.5L-204.8,784.4 M-204.8,780.8l-62.6,38l62.6,38l62.6-38
						L-204.8,780.8L-204.8,780.8z"/>
				</g>
				<g>
					<polygon class="st5" points="-203.3,857.7 -143.7,821.5 -143.7,881 -203.3,917.2 					"/>
					<path class="st6" d="M-145.2,824.2v56l-56.6,34.3v-56L-145.2,824.2 M-142.2,818.8l-62.6,38v63l62.6-38V818.8L-142.2,818.8z"/>
				</g>
				<g>
					<polygon class="st3" points="-265.8,881 -265.8,821.5 -206.3,857.7 -206.3,917.2 					"/>
					<path class="st4" d="M-264.3,824.2l56.6,34.3v56l-56.6-34.3V824.2 M-267.3,818.8v63l62.6,38v-63L-267.3,818.8L-267.3,818.8z"/>
				</g>
			</g>
		</g>
	</g>
</g>
</svg>
