<?xml version="1.0" encoding="utf-8"?>
<!-- Generator: Adobe Illustrator 22.1.0, SVG Export Plug-In . SVG Version: 6.00 Build 0)  -->
<svg version="1.1" id="Layer_1" xmlns="http://www.w3.org/2000/svg" xmlns:xlink="http://www.w3.org/1999/xlink" x="0px" y="0px"
	 viewBox="0 0 50 50" style="enable-background:new 0 0 50 50;" xml:space="preserve">
<style type="text/css">
	.st0{fill:#1F85A9;stroke:#FFFFFF;stroke-width:3;stroke-miterlimit:10;}
	.st1{fill:#FFFFFF;}
</style>
<g>
	<circle class="st0" cx="23.8" cy="25.2" r="22"/>
</g>
<g>
	<path class="st1" d="M29,34.6c0,1.2-0.7,1.8-2,1.8H14.1c-0.6,0-1-0.2-1.4-0.5c-0.3-0.3-0.5-0.8-0.5-1.3c0-0.7,0.3-1.3,0.8-1.8
		l7.7-8.3c0.9-1,1.6-2,2.1-2.9c0.4-0.9,0.7-1.7,0.7-2.6c0-1.1-0.3-1.9-0.9-2.4C22,16,21.1,15.8,20,15.8c-0.9,0-1.8,0.2-2.7,0.5
		c-0.9,0.3-1.7,0.8-2.6,1.4c-0.2,0.2-0.5,0.3-0.7,0.4s-0.5,0.2-0.7,0.2c-0.4,0-0.7-0.2-1-0.5s-0.4-0.8-0.4-1.3
		c0-0.3,0.1-0.6,0.2-0.9c0.1-0.2,0.3-0.5,0.6-0.7c1-0.8,2.2-1.4,3.5-1.9s2.7-0.7,4-0.7c2.3,0,4.2,0.6,5.6,1.8s2.1,2.7,2.1,4.7
		c0,1.4-0.3,2.7-0.9,3.9c-0.6,1.2-1.6,2.6-3,4l-6,6.2h8.9C28.3,32.9,29,33.5,29,34.6z"/>
	<path class="st1" d="M32.7,18.9c-0.6-0.6-0.9-1.3-0.9-2.2c0-0.9,0.3-1.6,0.9-2.2c0.6-0.6,1.4-0.9,2.3-0.9c0.9,0,1.6,0.3,2.3,0.9
		c0.6,0.6,0.9,1.3,0.9,2.2s-0.3,1.6-0.9,2.2s-1.4,0.9-2.3,0.9C34.1,19.8,33.3,19.5,32.7,18.9z M35.9,17.6c0.3-0.3,0.4-0.6,0.4-1
		s-0.1-0.7-0.4-1c-0.3-0.3-0.6-0.4-1-0.4s-0.7,0.1-1,0.4c-0.3,0.3-0.4,0.6-0.4,1s0.1,0.7,0.4,1c0.3,0.3,0.6,0.4,1,0.4
		C35.3,18.1,35.7,17.9,35.9,17.6z"/>
</g>
</svg>
