<?xml version="1.0" encoding="utf-8"?>
<!-- Generator: Adobe Illustrator 22.1.0, SVG Export Plug-In . SVG Version: 6.00 Build 0)  -->
<svg version="1.1" id="Layer_1" xmlns="http://www.w3.org/2000/svg" xmlns:xlink="http://www.w3.org/1999/xlink" x="0px" y="0px"
	 viewBox="0 0 50 50" style="enable-background:new 0 0 50 50;" xml:space="preserve">
<style type="text/css">
	.st0{fill:#2185AA;stroke:#FFFFFF;stroke-width:3;stroke-miterlimit:10;}
	.st1{fill:#FFFFFF;}
</style>
<g>
	<circle class="st0" cx="23.8" cy="25.2" r="22"/>
</g>
<g>
	<path class="st1" d="M32.7,18.9c-0.6-0.6-0.9-1.3-0.9-2.2c0-0.9,0.3-1.6,0.9-2.2c0.6-0.6,1.4-0.9,2.3-0.9c0.9,0,1.6,0.3,2.3,0.9
		c0.6,0.6,0.9,1.3,0.9,2.2s-0.3,1.6-0.9,2.2s-1.4,0.9-2.3,0.9C34.1,19.8,33.3,19.5,32.7,18.9z M35.9,17.6c0.3-0.3,0.4-0.6,0.4-1
		s-0.1-0.7-0.4-1c-0.3-0.3-0.6-0.4-1-0.4s-0.7,0.1-1,0.4c-0.3,0.3-0.4,0.6-0.4,1s0.1,0.7,0.4,1c0.3,0.3,0.6,0.4,1,0.4
		C35.3,18.1,35.7,17.9,35.9,17.6z"/>
</g>
<g>
	<path class="st1" d="M28.5,26.6c0.7,0.9,1.1,2.1,1.1,3.5c0,1.9-0.7,3.4-2.1,4.6c-1.4,1.1-3.3,1.7-5.7,1.7c-1.4,0-2.7-0.2-3.9-0.6
		c-1.3-0.4-2.3-1-3.2-1.8c-0.5-0.4-0.7-0.9-0.7-1.5c0-0.5,0.1-0.9,0.4-1.2c0.3-0.3,0.6-0.5,0.9-0.5c0.2,0,0.4,0,0.6,0.1
		c0.2,0.1,0.4,0.2,0.7,0.4c0.9,0.6,1.7,1,2.5,1.4c0.8,0.3,1.7,0.5,2.6,0.5c1.4,0,2.4-0.3,3.1-0.8c0.7-0.6,1-1.4,1-2.5
		c0-1.1-0.4-1.9-1.1-2.5c-0.7-0.5-1.8-0.8-3.3-0.8h-1.8c-0.5,0-0.9-0.2-1.1-0.5c-0.3-0.3-0.4-0.7-0.4-1.1c0-0.4,0.1-0.8,0.4-1.1
		c0.3-0.3,0.6-0.5,1.1-0.5h1.3c2.9,0,4.3-1.1,4.3-3.3c0-1-0.3-1.8-0.9-2.3c-0.6-0.5-1.5-0.8-2.5-0.8c-1.5,0-3.2,0.6-4.9,1.8
		C16.4,18.9,16.2,19,16,19c-0.2,0.1-0.4,0.1-0.6,0.1c-0.4,0-0.7-0.2-0.9-0.5c-0.3-0.3-0.4-0.7-0.4-1.2c0-0.3,0.1-0.6,0.2-0.8
		c0.1-0.2,0.3-0.4,0.6-0.7c0.9-0.7,1.9-1.3,3.2-1.8c1.2-0.4,2.5-0.6,3.8-0.6c2.2,0,3.9,0.5,5.2,1.6c1.3,1.1,1.9,2.5,1.9,4.3
		c0,1.2-0.3,2.3-1,3.2c-0.6,0.9-1.5,1.6-2.6,2C26.7,25.1,27.7,25.7,28.5,26.6z"/>
</g>
</svg>
