<?xml version="1.0" encoding="utf-8"?>
<!-- Generator: Adobe Illustrator 22.1.0, SVG Export Plug-In . SVG Version: 6.00 Build 0)  -->
<svg version="1.1" id="Layer_1" xmlns="http://www.w3.org/2000/svg" xmlns:xlink="http://www.w3.org/1999/xlink" x="0px" y="0px"
	 viewBox="0 0 50 50" style="enable-background:new 0 0 50 50;" xml:space="preserve">
<style type="text/css">
	.st0{fill:#1F85A9;stroke:#FFFFFF;stroke-width:3;stroke-miterlimit:10;}
	.st1{fill:#FFFFFF;}
</style>
<g>
	<circle class="st0" cx="23.8" cy="25.2" r="22"/>
</g>
<g>
	<path class="st1" d="M25.5,22.1c1.1,0.6,2,1.5,2.7,2.7s0.9,2.5,0.9,4c0,1.6-0.4,2.9-1.1,4.1s-1.7,2.1-3,2.8s-2.8,1-4.5,1
		c-1.4,0-2.8-0.2-4.1-0.7s-2.5-1.1-3.4-1.9c-0.5-0.5-0.8-1-0.8-1.6c0-0.5,0.1-0.9,0.4-1.3c0.3-0.3,0.6-0.5,1-0.5
		c0.2,0,0.4,0,0.6,0.1c0.2,0.1,0.4,0.2,0.7,0.4c0.9,0.6,1.8,1.1,2.6,1.5s1.8,0.5,2.7,0.5c1.5,0,2.6-0.4,3.4-1.1
		c0.8-0.7,1.2-1.8,1.2-3.2c0-1.3-0.4-2.4-1.2-3.2c-0.8-0.8-1.9-1.2-3.3-1.2c-0.9,0-1.7,0.1-2.3,0.4c-0.7,0.2-1.4,0.7-2.1,1.3
		c-0.4,0.3-0.9,0.4-1.3,0.4c-0.5,0-0.8-0.1-1.1-0.4c-0.3-0.2-0.5-0.6-0.5-1V14.6c0-0.6,0.2-1.1,0.5-1.5c0.4-0.4,0.9-0.5,1.5-0.5
		h11.3c1.4,0,2,0.6,2,1.7s-0.7,1.7-2,1.7h-9.1v6.4c1.1-0.8,2.6-1.2,4.2-1.2C23,21.2,24.3,21.5,25.5,22.1z"/>
	<path class="st1" d="M32.7,18.9c-0.6-0.6-0.9-1.3-0.9-2.2c0-0.9,0.3-1.6,0.9-2.2c0.6-0.6,1.4-0.9,2.3-0.9c0.9,0,1.6,0.3,2.3,0.9
		c0.6,0.6,0.9,1.3,0.9,2.2s-0.3,1.6-0.9,2.2s-1.4,0.9-2.3,0.9C34,19.8,33.3,19.5,32.7,18.9z M35.9,17.6c0.3-0.3,0.4-0.6,0.4-1
		s-0.1-0.7-0.4-1c-0.3-0.3-0.6-0.4-1-0.4s-0.7,0.1-1,0.4c-0.3,0.3-0.4,0.6-0.4,1s0.1,0.7,0.4,1c0.3,0.3,0.6,0.4,1,0.4
		C35.3,18.1,35.6,17.9,35.9,17.6z"/>
</g>
</svg>
