<?xml version="1.0" encoding="utf-8"?>
<!-- Generator: Adobe Illustrator 22.1.0, SVG Export Plug-In . SVG Version: 6.00 Build 0)  -->
<svg version="1.1" id="Layer_1" xmlns="http://www.w3.org/2000/svg" xmlns:xlink="http://www.w3.org/1999/xlink" x="0px" y="0px"
	 viewBox="0 0 50 50" style="enable-background:new 0 0 50 50;" xml:space="preserve">
<style type="text/css">
	.st0{fill:#1F85A9;stroke:#FFFFFF;stroke-width:3;stroke-miterlimit:10;}
	.st1{fill:#FFFFFF;}
</style>
<g>
	<circle class="st0" cx="23.8" cy="25.2" r="22"/>
</g>
<g>
	<path class="st1" d="M25.5,22.1c1.1,0.6,2,1.5,2.6,2.7s0.9,2.5,0.9,4s-0.3,2.9-1,4.1s-1.6,2.1-2.8,2.8c-1.2,0.7-2.6,1-4.1,1
		c-3,0-5.3-1-7-3.1c-1.6-2-2.4-5-2.4-8.7c0-2.6,0.4-4.8,1.1-6.7c0.8-1.9,1.9-3.4,3.3-4.4s3.1-1.5,5.1-1.5c1.3,0,2.6,0.2,3.9,0.7
		s2.4,1.1,3.3,1.9c0.3,0.2,0.5,0.5,0.6,0.7s0.2,0.5,0.2,0.9c0,0.5-0.1,0.9-0.4,1.3c-0.3,0.3-0.6,0.5-1,0.5c-0.2,0-0.4,0-0.6-0.1
		s-0.5-0.2-0.7-0.4c-1.9-1.3-3.5-2-5-2c-1.6,0-2.9,0.8-3.9,2.3c-0.9,1.5-1.4,3.7-1.5,6.4c0.5-1,1.3-1.8,2.3-2.4s2.2-0.9,3.5-0.9
		C23.1,21.1,24.4,21.5,25.5,22.1z M23.8,32.1c0.7-0.8,1.1-1.9,1.1-3.2s-0.4-2.4-1.1-3.1c-0.7-0.8-1.7-1.2-3-1.2s-2.3,0.4-3.1,1.2
		c-0.8,0.8-1.2,1.8-1.2,3.1c0,1.3,0.4,2.4,1.2,3.2c0.8,0.8,1.8,1.2,3.1,1.2S23,32.9,23.8,32.1z"/>
	<path class="st1" d="M32.7,18.9c-0.6-0.6-0.9-1.3-0.9-2.2c0-0.9,0.3-1.6,0.9-2.2c0.6-0.6,1.4-0.9,2.3-0.9c0.9,0,1.6,0.3,2.3,0.9
		c0.6,0.6,0.9,1.3,0.9,2.2s-0.3,1.6-0.9,2.2s-1.4,0.9-2.3,0.9C34,19.8,33.3,19.5,32.7,18.9z M35.9,17.6c0.3-0.3,0.4-0.6,0.4-1
		s-0.1-0.7-0.4-1c-0.3-0.3-0.6-0.4-1-0.4s-0.7,0.1-1,0.4c-0.3,0.3-0.4,0.6-0.4,1s0.1,0.7,0.4,1c0.3,0.3,0.6,0.4,1,0.4
		C35.3,18.1,35.6,17.9,35.9,17.6z"/>
</g>
</svg>
