<?xml version="1.0" encoding="utf-8"?>
<!-- Generator: Adobe Illustrator 22.1.0, SVG Export Plug-In . SVG Version: 6.00 Build 0)  -->
<svg version="1.1" id="Layer_1" xmlns="http://www.w3.org/2000/svg" xmlns:xlink="http://www.w3.org/1999/xlink" x="0px" y="0px"
	 viewBox="0 0 336.7 400" style="enable-background:new 0 0 336.7 400;" xml:space="preserve">
<style type="text/css">
	.st0{fill:#1F85A9;}
	.st1{enable-background:new    ;}
	.st2{fill:#FFFFFF;}
</style>
<g>
	<circle class="st0" cx="227.4" cy="49.8" r="22"/>
</g>
<g class="st1">
	<path class="st2" d="M230.9,50.8c0.8,1,1.1,2.2,1.1,3.7c0,2.1-0.8,3.7-2.3,4.9s-3.5,1.8-6.1,1.8c-1.5,0-2.9-0.2-4.2-0.7
		s-2.5-1.1-3.4-1.9c-0.5-0.5-0.8-1-0.8-1.6c0-0.5,0.1-0.9,0.4-1.3c0.3-0.3,0.6-0.5,1-0.5c0.2,0,0.4,0,0.6,0.1
		c0.2,0.1,0.4,0.2,0.7,0.4c0.9,0.6,1.8,1.1,2.7,1.5c0.9,0.3,1.8,0.5,2.8,0.5c1.5,0,2.6-0.3,3.3-0.9c0.7-0.6,1.1-1.5,1.1-2.7
		s-0.4-2.1-1.1-2.7c-0.8-0.6-1.9-0.9-3.5-0.9h-1.9c-0.5,0-0.9-0.2-1.2-0.5s-0.4-0.7-0.4-1.2s0.1-0.9,0.4-1.2
		c0.3-0.3,0.7-0.5,1.2-0.5h1.4c3.1,0,4.6-1.2,4.6-3.5c0-1.1-0.3-1.9-1-2.5s-1.6-0.9-2.7-0.9c-1.6,0-3.4,0.7-5.3,2
		c-0.3,0.2-0.6,0.3-0.7,0.4c-0.2,0.1-0.4,0.1-0.6,0.1c-0.4,0-0.7-0.2-1-0.5s-0.4-0.8-0.4-1.3c0-0.3,0.1-0.6,0.2-0.9
		c0.1-0.2,0.3-0.5,0.6-0.7c0.9-0.8,2.1-1.4,3.4-1.9c1.3-0.5,2.7-0.7,4-0.7c2.3,0,4.2,0.6,5.6,1.7c1.4,1.1,2.1,2.7,2.1,4.6
		c0,1.3-0.4,2.5-1,3.4c-0.7,1-1.6,1.7-2.8,2.1C229,49.1,230.1,49.8,230.9,50.8z"/>
</g>
<g class="st1">
	<path class="st2" d="M236,43.5c-0.6-0.6-0.9-1.3-0.9-2.2s0.3-1.6,0.9-2.2c0.6-0.6,1.4-0.9,2.3-0.9s1.6,0.3,2.3,0.9
		c0.6,0.6,0.9,1.3,0.9,2.2s-0.3,1.6-0.9,2.2c-0.6,0.6-1.4,0.9-2.3,0.9S236.6,44.1,236,43.5z M239.2,42.2c0.3-0.3,0.4-0.6,0.4-1
		c0-0.4-0.1-0.7-0.4-1c-0.3-0.3-0.6-0.4-1-0.4s-0.7,0.1-1,0.4c-0.3,0.3-0.4,0.6-0.4,1c0,0.4,0.1,0.7,0.4,1c0.3,0.3,0.6,0.4,1,0.4
		S239,42.5,239.2,42.2z"/>
</g>
</svg>
