<?xml version="1.0" encoding="utf-8"?>
<!-- Generator: Adobe Illustrator 22.1.0, SVG Export Plug-In . SVG Version: 6.00 Build 0)  -->
<svg version="1.1" id="Layer_1" xmlns="http://www.w3.org/2000/svg" xmlns:xlink="http://www.w3.org/1999/xlink" x="0px" y="0px"
	 viewBox="0 0 336.7 400" style="enable-background:new 0 0 336.7 400;" xml:space="preserve">
<style type="text/css">
	.st0{fill:#1F85A9;}
	.st1{enable-background:new    ;}
	.st2{fill:#FFFFFF;}
</style>
<g>
	<circle class="st0" cx="57.8" cy="343.6" r="22"/>
</g>
<g class="st1">
	<path class="st2" d="M59.6,340.5c1.1,0.6,2,1.5,2.7,2.7c0.6,1.1,0.9,2.5,0.9,4c0,1.6-0.4,2.9-1.1,4.1c-0.7,1.2-1.7,2.1-3,2.8
		c-1.3,0.7-2.8,1-4.5,1c-1.4,0-2.8-0.2-4.1-0.7c-1.3-0.5-2.5-1.1-3.4-1.9c-0.5-0.5-0.8-1-0.8-1.6c0-0.5,0.1-0.9,0.4-1.3
		c0.3-0.3,0.6-0.5,1-0.5c0.2,0,0.4,0,0.6,0.1c0.2,0.1,0.4,0.2,0.7,0.4c0.9,0.6,1.8,1.1,2.6,1.5s1.8,0.5,2.7,0.5
		c1.5,0,2.6-0.4,3.4-1.1c0.8-0.7,1.2-1.8,1.2-3.2c0-1.3-0.4-2.4-1.2-3.2c-0.8-0.8-1.9-1.2-3.3-1.2c-0.9,0-1.7,0.1-2.3,0.4
		c-0.7,0.2-1.4,0.7-2.1,1.3c-0.4,0.3-0.9,0.4-1.3,0.4c-0.5,0-0.8-0.1-1.1-0.4s-0.5-0.6-0.5-1.1V333c0-0.6,0.2-1.1,0.5-1.5
		c0.4-0.4,0.9-0.5,1.5-0.5h11.3c1.4,0,2,0.6,2,1.7c0,1.1-0.7,1.7-2,1.7h-9.1v6.4c1.1-0.8,2.6-1.2,4.2-1.2
		C57.2,339.6,58.5,339.9,59.6,340.5z"/>
</g>
<g class="st1">
	<path class="st2" d="M66.4,337.3c-0.6-0.6-0.9-1.3-0.9-2.2s0.3-1.6,0.9-2.2c0.6-0.6,1.4-0.9,2.3-0.9c0.9,0,1.6,0.3,2.3,0.9
		c0.6,0.6,0.9,1.3,0.9,2.2s-0.3,1.6-0.9,2.2c-0.6,0.6-1.4,0.9-2.3,0.9C67.8,338.2,67.1,337.9,66.4,337.3z M69.7,336
		c0.3-0.3,0.4-0.6,0.4-1c0-0.4-0.1-0.7-0.4-1c-0.3-0.3-0.6-0.4-1-0.4c-0.4,0-0.7,0.1-1,0.4c-0.3,0.3-0.4,0.6-0.4,1
		c0,0.4,0.1,0.7,0.4,1c0.3,0.3,0.6,0.4,1,0.4C69.1,336.4,69.4,336.3,69.7,336z"/>
</g>
</svg>
