<?xml version="1.0" encoding="utf-8"?>
<!-- Generator: Adobe Illustrator 22.1.0, SVG Export Plug-In . SVG Version: 6.00 Build 0)  -->
<svg version="1.1" id="Layer_1" xmlns="http://www.w3.org/2000/svg" xmlns:xlink="http://www.w3.org/1999/xlink" x="0px" y="0px"
	 viewBox="0 0 336.7 400" style="enable-background:new 0 0 336.7 400;" xml:space="preserve">
<style type="text/css">
	.st0{fill:#1F85A9;}
	.st1{enable-background:new    ;}
	.st2{fill:#FFFFFF;}
</style>
<g>
	<circle class="st0" cx="259.3" cy="357.5" r="22"/>
</g>
<g class="st1">
	<path class="st2" d="M261.1,354.4c1.1,0.6,2,1.5,2.6,2.7c0.6,1.2,0.9,2.5,0.9,4c0,1.5-0.3,2.9-1,4.1c-0.7,1.2-1.6,2.1-2.8,2.8
		s-2.6,1-4.1,1c-3,0-5.3-1-7-3.1c-1.6-2-2.4-5-2.4-8.7c0-2.6,0.4-4.8,1.1-6.7s1.9-3.4,3.3-4.4c1.4-1,3.1-1.5,5.1-1.5
		c1.3,0,2.6,0.2,3.9,0.7c1.3,0.5,2.4,1.1,3.3,1.9c0.3,0.2,0.5,0.5,0.6,0.7c0.1,0.2,0.2,0.5,0.2,0.9c0,0.5-0.1,0.9-0.4,1.3
		c-0.3,0.3-0.6,0.5-1,0.5c-0.2,0-0.4,0-0.6-0.1c-0.2-0.1-0.5-0.2-0.7-0.4c-1.9-1.3-3.5-2-5-2c-1.6,0-2.9,0.8-3.9,2.3
		c-0.9,1.5-1.4,3.7-1.5,6.4c0.5-1,1.3-1.8,2.3-2.4c1-0.6,2.2-0.9,3.5-0.9C258.8,353.5,260,353.8,261.1,354.4z M259.4,364.4
		c0.7-0.8,1.1-1.9,1.1-3.2s-0.4-2.4-1.1-3.1c-0.7-0.8-1.7-1.2-3-1.2c-1.3,0-2.3,0.4-3.1,1.2c-0.8,0.8-1.2,1.8-1.2,3.1
		c0,1.3,0.4,2.4,1.2,3.2s1.8,1.2,3.1,1.2C257.7,365.6,258.7,365.2,259.4,364.4z"/>
</g>
<g class="st1">
	<path class="st2" d="M267.9,351.2c-0.6-0.6-0.9-1.3-0.9-2.2s0.3-1.6,0.9-2.2s1.4-0.9,2.3-0.9s1.6,0.3,2.3,0.9
		c0.6,0.6,0.9,1.3,0.9,2.2s-0.3,1.6-0.9,2.2c-0.6,0.6-1.4,0.9-2.3,0.9S268.5,351.8,267.9,351.2z M271.1,350c0.3-0.3,0.4-0.6,0.4-1
		c0-0.4-0.1-0.7-0.4-1c-0.3-0.3-0.6-0.4-1-0.4s-0.7,0.1-1,0.4c-0.3,0.3-0.4,0.6-0.4,1c0,0.4,0.1,0.7,0.4,1c0.3,0.3,0.6,0.4,1,0.4
		S270.9,350.3,271.1,350z"/>
</g>
</svg>
