<?xml version="1.0" encoding="utf-8"?>
<!-- Generator: Adobe Illustrator 22.1.0, SVG Export Plug-In . SVG Version: 6.00 Build 0)  -->
<svg version="1.1" xmlns="http://www.w3.org/2000/svg" xmlns:xlink="http://www.w3.org/1999/xlink" x="0px" y="0px"
	 viewBox="0 0 336.7 400" style="enable-background:new 0 0 336.7 400;" xml:space="preserve">
<style type="text/css">
	.st0{clip-path:url(#SVGID_2_);}
	.st1{fill:#8ABB2A;stroke:#69941B;stroke-width:1.7538;stroke-miterlimit:10;}
	.st2{fill:#A5D73C;stroke:#69941B;stroke-width:1.5244;stroke-miterlimit:10;}
	.st3{fill:#A5D73C;stroke:#69941B;stroke-width:1.7538;stroke-miterlimit:10;}
	.st4{clip-path:url(#SVGID_4_);}
	.st5{clip-path:url(#SVGID_6_);}
	.st6{fill:#490A3D;}
	.st7{fill:#F0E6E1;}
	.st8{display:none;}
</style>
<g id="Layer_1">
	<g>
		<defs>
			<path id="SVGID_1_" d="M249.2,124.1c0-16,12.9-28.9,28.9-28.9c0.2,0,0.5,0,0.7,0c-8.4-3.2-79.2-29.7-79.2-29.7l-21.8,52.2
				l-1.1,34.2l50.5,21.9l50.8-20.9C262.2,153,249.2,140.1,249.2,124.1z"/>
		</defs>
		<clipPath id="SVGID_2_">
			<use xlink:href="#SVGID_1_"  style="overflow:visible;"/>
		</clipPath>
		<g class="st0">
			<polygon class="st1" points="226.2,132.6 242.8,135.1 250.8,153.1 257.9,153.1 253.1,148.4 254.2,137.8 257.9,135.1 263.9,140.3 
				283.8,142 287.3,140.3 287.3,136.6 283.2,132 282.5,124.1 291.2,110.1 278.2,107.4 263.1,101.1 219.1,95.5 200.9,114 
				200.9,121.2 205.4,130.5 211,134.4 211.4,144.9 215.7,150.9 223.2,150.7 217.4,146.1 217.4,138.7 220.3,134.9 			"/>
			<polygon class="st2" points="261.8,101 259.6,126.5 295,118.4 			"/>
			<polygon class="st2" points="206.3,107.4 204.5,98.7 210.3,89.4 213.7,89.4 214.4,94.5 211.6,94.7 209.1,98.4 213.8,101 			"/>
		</g>
	</g>
	<g>
		<polyline class="st2" points="144.3,94.4 153.2,104.1 153.2,124 149.5,124 151.5,104.8 144.3,94.4 		"/>
		<polygon class="st1" points="144.2,87.1 113.3,70.8 65.3,68.5 57.6,72.1 48.2,85.8 48.2,122.4 28.1,122.4 28.1,129.8 30.8,127.3 
			60.3,127.3 60.3,114.1 60.2,113.8 65.3,106 65.3,152.7 80.2,152.7 84.6,134.3 117.3,134.3 119.8,154.3 132.3,154.3 138.7,134.3 
			138.7,134.3 145.6,95.7 		"/>
		<polygon class="st3" points="87.8,78.5 65,68.5 57.4,72.4 65.3,106 		"/>
	</g>
	<g>
		<defs>
			<path id="SVGID_3_" d="M143.9,234.4l-59.2-1.8c0.8,2.7,1.3,5.6,1.3,8.5c0,15.3-11.8,27.8-26.8,28.8c0.6,13.7,1.5,31.2,2.1,31.9
				c1,1.2,75,7,75,7l24.8-39.2L143.9,234.4z"/>
		</defs>
		<clipPath id="SVGID_4_">
			<use xlink:href="#SVGID_3_"  style="overflow:visible;"/>
		</clipPath>
		<g class="st4">
			<g>
				<path class="st1" d="M70.9,297.7l2.9-28.3l-6.7-12.7l-19.7,6.7l-3.7-6.3l7.3-4.2l-1.8-3.6l10.3-9.3l0.3,0.2
					c0.7-2.3,2.4-3.8,4.5-3.8c2.3,0,4.2,2.1,4.7,4.8l0,0l0,0h0h1.9v0l55.3,0.6l25.2,23.6L137,297.7l-12.5-0.1l5.1-14.9l-29.1,0.2
					l-9.3-5.7l-11.7,20.6H70.9z"/>
			</g>
			<path class="st3" d="M56.4,243.2c0-2.7,2.2-4.9,4.9-4.9s4.9,2.2,4.9,4.9"/>
			<circle class="st3" cx="61.4" cy="243.2" r="4.9"/>
		</g>
	</g>
	<g>
		<defs>
			<path id="SVGID_5_" d="M284.8,245l-29.2,3.7l11.4-27.5l-24.6-5.5l-10.9,6.7c9.9,4.6,16.9,14.6,16.9,26.3
				c0,16-12.9,28.9-28.9,28.9c-1.8,0-3.5-0.2-5.1-0.5l-1.5,13.5c0,0,5.9,9.7,6.6,10.3c0.7,0.7,74.1,4.7,74.1,4.7L308,282L284.8,245z
				"/>
		</defs>
		<clipPath id="SVGID_6_">
			<use xlink:href="#SVGID_5_"  style="overflow:visible;"/>
		</clipPath>
		<g class="st5">
			<polyline class="st3" points="292,274.9 299.8,281.6 292,290.8 			"/>
			<polygon class="st1" points="245.1,251.8 251.2,256.2 276.9,251.8 287,256.2 292,269 292,297 249.5,299.7 258,288.2 252.6,285.9 
				243.1,296.3 229.3,299.7 236.7,286.9 220.2,289.9 226.9,279.1 222.5,272 212.4,271.4 205.3,263.8 205.3,261.2 203.3,261.2 
				206.7,251.8 227.4,241.3 230,242.8 239.4,224 242.6,224.6 244,230.9 246.8,243.7 			"/>
			<polygon class="st3" points="229.8,245 233.4,249.1 248.1,242.8 255.7,236.8 257.8,225.1 239.5,235.3 			"/>
		</g>
	</g>
	<g>
		<circle class="st6" cx="66.8" cy="92.3" r="27.4"/>
		<g>
			<g>
				<path class="st7" d="M65.8,82.8c-1,0-1.9,0.1-2.8,0.4c-0.9,0.2-1.8,0.6-2.9,1.2l-1.7-4.6c1.1-0.7,2.3-1.2,3.8-1.6
					c1.4-0.4,2.9-0.6,4.2-0.6c1.7,0,3.2,0.2,4.3,0.7c1.1,0.5,2,1,2.7,1.8c0.7,0.7,1.1,1.5,1.4,2.3c0.3,0.8,0.4,1.6,0.4,2.4
					c0,0.8-0.1,1.5-0.3,2.1c-0.2,0.6-0.5,1.2-0.9,1.8c-0.4,0.5-0.8,1.1-1.2,1.6c-0.5,0.5-0.9,1-1.3,1.4c-0.3,0.3-0.7,0.7-1,1
					c-0.4,0.4-0.7,0.8-1,1.2c-0.3,0.4-0.5,0.8-0.7,1.3c-0.2,0.4-0.3,0.9-0.3,1.4c0,0.1,0,0.3,0,0.5c0,0.2,0,0.4,0,0.6H63
					c-0.1-0.3-0.1-0.6-0.1-0.9c0-0.3,0-0.6,0-0.9c0-0.8,0.1-1.5,0.3-2.1c0.2-0.6,0.4-1.2,0.8-1.7c0.3-0.5,0.7-1,1.1-1.5
					c0.4-0.5,0.8-0.9,1.3-1.3c0.6-0.6,1.2-1.2,1.7-1.9c0.5-0.6,0.8-1.3,0.8-2.1c0-0.7-0.3-1.2-0.8-1.7C67.5,83,66.8,82.8,65.8,82.8z
					 M69.6,103.3c0,1.2-0.4,2.1-1.2,2.8c-0.8,0.7-1.7,1-2.6,1s-1.9-0.3-2.6-1c-0.8-0.7-1.2-1.6-1.2-2.8c0-1.2,0.4-2.1,1.2-2.8
					c0.8-0.7,1.7-1,2.6-1s1.9,0.3,2.6,1C69.2,101.2,69.6,102.1,69.6,103.3z"/>
			</g>
		</g>
	</g>
	<g>
		<circle class="st6" cx="276.5" cy="124" r="27.4"/>
		<g>
			<g>
				<path class="st7" d="M275.5,114.4c-1,0-1.9,0.1-2.8,0.4c-0.9,0.2-1.8,0.6-2.9,1.2l-1.7-4.6c1.1-0.7,2.3-1.2,3.8-1.6
					c1.4-0.4,2.9-0.6,4.2-0.6c1.7,0,3.2,0.2,4.3,0.7c1.1,0.5,2,1,2.7,1.8c0.7,0.7,1.1,1.5,1.4,2.3c0.3,0.8,0.4,1.6,0.4,2.4
					c0,0.8-0.1,1.5-0.3,2.1c-0.2,0.6-0.5,1.2-0.9,1.8c-0.4,0.5-0.8,1.1-1.2,1.6c-0.5,0.5-0.9,1-1.3,1.4c-0.3,0.3-0.7,0.7-1,1
					c-0.4,0.4-0.7,0.8-1,1.2c-0.3,0.4-0.5,0.8-0.7,1.3c-0.2,0.4-0.3,0.9-0.3,1.4c0,0.1,0,0.3,0,0.5c0,0.2,0,0.4,0,0.6h-5.4
					c-0.1-0.3-0.1-0.6-0.1-0.9c0-0.3,0-0.6,0-0.9c0-0.8,0.1-1.5,0.3-2.1c0.2-0.6,0.4-1.2,0.8-1.7c0.3-0.5,0.7-1,1.1-1.5
					c0.4-0.5,0.8-0.9,1.3-1.3c0.6-0.6,1.2-1.2,1.7-1.9c0.5-0.6,0.8-1.3,0.8-2.1c0-0.7-0.3-1.2-0.8-1.7
					C277.2,114.6,276.5,114.4,275.5,114.4z M279.3,135c0,1.2-0.4,2.1-1.2,2.8c-0.8,0.7-1.7,1-2.6,1c-1,0-1.9-0.3-2.6-1
					c-0.8-0.7-1.2-1.6-1.2-2.8c0-1.2,0.4-2.1,1.2-2.8c0.8-0.7,1.7-1,2.6-1c1,0,1.9,0.3,2.6,1C278.9,132.8,279.3,133.8,279.3,135z"/>
			</g>
		</g>
	</g>
	<g>
		<circle class="st6" cx="59.2" cy="243.4" r="27.4"/>
		<g>
			<g>
				<path class="st7" d="M58.3,233.8c-1,0-1.9,0.1-2.8,0.4c-0.9,0.2-1.8,0.6-2.9,1.2l-1.7-4.6c1.1-0.7,2.3-1.2,3.8-1.6
					c1.4-0.4,2.9-0.6,4.2-0.6c1.7,0,3.2,0.2,4.3,0.7c1.1,0.5,2,1,2.7,1.8c0.7,0.7,1.1,1.5,1.4,2.3c0.3,0.8,0.4,1.6,0.4,2.4
					c0,0.8-0.1,1.5-0.3,2.1c-0.2,0.6-0.5,1.2-0.9,1.8c-0.4,0.5-0.8,1.1-1.2,1.6c-0.5,0.5-0.9,1-1.3,1.4c-0.3,0.3-0.7,0.7-1,1
					c-0.4,0.4-0.7,0.8-1,1.2s-0.5,0.8-0.7,1.3c-0.2,0.4-0.3,0.9-0.3,1.4c0,0.1,0,0.3,0,0.5c0,0.2,0,0.4,0,0.6h-5.4
					c-0.1-0.3-0.1-0.6-0.1-0.9c0-0.3,0-0.6,0-0.9c0-0.8,0.1-1.5,0.3-2.1c0.2-0.6,0.4-1.2,0.8-1.7c0.3-0.5,0.7-1,1.1-1.5
					c0.4-0.5,0.8-0.9,1.3-1.3c0.6-0.6,1.2-1.2,1.7-1.9c0.5-0.6,0.8-1.3,0.8-2.1c0-0.7-0.3-1.2-0.8-1.7
					C60,234.1,59.2,233.8,58.3,233.8z M62.1,254.4c0,1.2-0.4,2.1-1.2,2.8c-0.8,0.7-1.7,1-2.6,1s-1.9-0.3-2.6-1
					c-0.8-0.7-1.2-1.6-1.2-2.8c0-1.2,0.4-2.1,1.2-2.8c0.8-0.7,1.7-1,2.6-1s1.9,0.3,2.6,1C61.7,252.3,62.1,253.2,62.1,254.4z"/>
			</g>
		</g>
	</g>
	<g>
		<circle class="st6" cx="222.9" cy="250" r="27.4"/>
		<g>
			<g>
				<path class="st7" d="M221.9,240.5c-1,0-1.9,0.1-2.8,0.4c-0.9,0.2-1.8,0.6-2.9,1.2l-1.7-4.6c1.1-0.7,2.3-1.2,3.8-1.6
					c1.4-0.4,2.9-0.6,4.2-0.6c1.7,0,3.2,0.2,4.3,0.7c1.1,0.5,2,1,2.7,1.8c0.7,0.7,1.1,1.5,1.4,2.3c0.3,0.8,0.4,1.6,0.4,2.4
					c0,0.8-0.1,1.5-0.3,2.1c-0.2,0.6-0.5,1.2-0.9,1.8c-0.4,0.5-0.8,1.1-1.2,1.6c-0.5,0.5-0.9,1-1.3,1.4c-0.3,0.3-0.7,0.7-1,1
					c-0.4,0.4-0.7,0.8-1,1.2s-0.5,0.8-0.7,1.3c-0.2,0.4-0.3,0.9-0.3,1.4c0,0.1,0,0.3,0,0.5c0,0.2,0,0.4,0,0.6h-5.4
					c-0.1-0.3-0.1-0.6-0.1-0.9c0-0.3,0-0.6,0-0.9c0-0.8,0.1-1.5,0.3-2.1c0.2-0.6,0.4-1.2,0.8-1.7c0.3-0.5,0.7-1,1.1-1.5
					c0.4-0.5,0.8-0.9,1.3-1.3c0.6-0.6,1.2-1.2,1.7-1.9c0.5-0.6,0.8-1.3,0.8-2.1c0-0.7-0.3-1.2-0.8-1.7
					C223.7,240.7,222.9,240.5,221.9,240.5z M225.7,261c0,1.2-0.4,2.1-1.2,2.8c-0.8,0.7-1.7,1-2.6,1s-1.9-0.3-2.6-1
					c-0.8-0.7-1.2-1.6-1.2-2.8c0-1.2,0.4-2.1,1.2-2.8c0.8-0.7,1.7-1,2.6-1s1.9,0.3,2.6,1C225.4,258.9,225.7,259.8,225.7,261z"/>
			</g>
		</g>
	</g>
</g>
<g id="Layer_2" class="st8">
</g>
</svg>
