<?xml version="1.0" encoding="utf-8"?>
<!-- Generator: Adobe Illustrator 22.1.0, SVG Export Plug-In . SVG Version: 6.00 Build 0)  -->
<svg version="1.1" id="Layer_1" xmlns="http://www.w3.org/2000/svg" xmlns:xlink="http://www.w3.org/1999/xlink" x="0px" y="0px"
	 viewBox="0 0 50 50" style="enable-background:new 0 0 50 50;" xml:space="preserve">
<style type="text/css">
	.st0{fill:#490A3D;}
	.st1{fill:#FFFFFF;}
	.st2{clip-path:url(#SVGID_2_);}
	.st3{fill:#A5D73C;stroke:#69941B;stroke-width:1.1082;stroke-miterlimit:10;}
	.st4{fill:#8ABB2A;stroke:#69941B;stroke-width:1.2749;stroke-miterlimit:10;}
	.st5{fill:#A5D73C;stroke:#69941B;stroke-width:1.2749;stroke-miterlimit:10;}
</style>
<g>
	<g>
		<path class="st0" d="M25,48.8C11.9,48.8,1.2,38.1,1.2,25S11.9,1.2,25,1.2S48.8,11.9,48.8,25S38.1,48.8,25,48.8z"/>
		<path class="st1" d="M25,2.2c12.6,0,22.8,10.2,22.8,22.8S37.6,47.8,25,47.8S2.2,37.6,2.2,25S12.4,2.2,25,2.2 M25,0.2
			C11.3,0.2,0.2,11.3,0.2,25S11.3,49.8,25,49.8S49.8,38.7,49.8,25S38.7,0.2,25,0.2L25,0.2z"/>
	</g>
	<g>
		<defs>
			<circle id="SVGID_1_" cx="25" cy="25.3" r="21"/>
		</defs>
		<use xlink:href="#SVGID_1_"  style="overflow:visible;fill:#490A3D;"/>
		<clipPath id="SVGID_2_">
			<use xlink:href="#SVGID_1_"  style="overflow:visible;"/>
		</clipPath>
		<g class="st2">
			<polyline class="st3" points="81.7,26.7 88.2,33.7 88.2,48.2 85.5,48.2 86.9,34.2 81.7,26.7 			"/>
			<polygon class="st4" points="81.6,21.4 59.1,9.5 24.3,7.9 18.7,10.5 11.8,20.4 11.8,47 -2.8,47 -2.8,52.4 -0.8,50.6 20.6,50.6 
				20.6,41 20.6,40.8 24.3,35.1 24.3,69.1 35.1,69.1 38.3,55.7 62.1,55.7 63.9,70.3 73,70.3 77.6,55.7 77.6,55.7 82.7,27.7 			"/>
			<polygon class="st5" points="40.6,15.2 24.1,7.9 18.5,10.7 24.3,35.1 			"/>
		</g>
	</g>
</g>
</svg>
