<?xml version="1.0" encoding="utf-8"?>
<!-- Generator: Adobe Illustrator 22.1.0, SVG Export Plug-In . SVG Version: 6.00 Build 0)  -->
<svg version="1.1" id="Layer_1" xmlns="http://www.w3.org/2000/svg" xmlns:xlink="http://www.w3.org/1999/xlink" x="0px" y="0px"
	 viewBox="0 0 50 50" style="enable-background:new 0 0 50 50;" xml:space="preserve">
<style type="text/css">
	.st0{fill:#490A3D;}
	.st1{fill:#FFFFFF;}
	.st2{clip-path:url(#SVGID_2_);}
	.st3{fill:#8ABB2A;stroke:#69941B;stroke-width:1.2749;stroke-miterlimit:10;}
	.st4{fill:#A5D73C;stroke:#69941B;stroke-width:1.1082;stroke-miterlimit:10;}
</style>
<g>
	<g>
		<path class="st0" d="M25,48.8C11.9,48.8,1.2,38.1,1.2,25S11.9,1.2,25,1.2S48.8,11.9,48.8,25S38.1,48.8,25,48.8z"/>
		<path class="st1" d="M25,2.2c12.6,0,22.8,10.2,22.8,22.8S37.6,47.8,25,47.8S2.2,37.6,2.2,25S12.4,2.2,25,2.2 M25,0.2
			C11.3,0.2,0.2,11.3,0.2,25S11.3,49.8,25,49.8S49.8,38.7,49.8,25S38.7,0.2,25,0.2L25,0.2z"/>
	</g>
	<g>
		<defs>
			<circle id="SVGID_1_" cx="25" cy="25" r="21"/>
		</defs>
		<clipPath id="SVGID_2_">
			<use xlink:href="#SVGID_1_"  style="overflow:visible;"/>
		</clipPath>
		<g class="st2">
			<polygon class="st3" points="-12.8,31.2 -0.7,33 5.1,46.1 10.3,46.1 6.8,42.7 7.6,35 10.3,33 14.6,36.8 29.1,38 31.6,36.8 
				31.6,34.1 28.6,30.8 28.2,25 34.5,14.8 25,12.8 14,8.3 -17.9,4.3 -31.1,17.7 -31.1,22.9 -27.9,29.7 -23.8,32.5 -23.6,40.1 
				-20.4,44.5 -14.9,44.4 -19.2,41 -19.2,35.6 -17.1,32.9 			"/>
			<polygon class="st4" points="13.1,8.2 11.5,26.7 37.3,20.9 			"/>
			<polygon class="st4" points="-27.2,12.8 -28.5,6.6 -24.4,-0.2 -21.9,-0.2 -21.4,3.5 -23.4,3.6 -25.2,6.3 -21.8,8.2 			"/>
		</g>
	</g>
</g>
</svg>
