<?xml version="1.0" encoding="utf-8"?>
<!-- Generator: Adobe Illustrator 22.1.0, SVG Export Plug-In . SVG Version: 6.00 Build 0)  -->
<svg version="1.1" id="Layer_1" xmlns="http://www.w3.org/2000/svg" xmlns:xlink="http://www.w3.org/1999/xlink" x="0px" y="0px"
	 viewBox="0 0 50 50" style="enable-background:new 0 0 50 50;" xml:space="preserve">
<style type="text/css">
	.st0{fill:#490A3D;}
	.st1{fill:#FFFFFF;}
	.st2{clip-path:url(#SVGID_2_);}
	.st3{fill:#8ABB2A;stroke:#69941B;stroke-width:1.2749;stroke-miterlimit:10;}
	.st4{fill:#A5D73C;stroke:#69941B;stroke-width:1.2749;stroke-miterlimit:10;}
</style>
<g>
	<path class="st0" d="M25,48.8C11.9,48.8,1.2,38.1,1.2,25S11.9,1.2,25,1.2S48.8,11.9,48.8,25S38.1,48.8,25,48.8z"/>
	<path class="st1" d="M25,2.2c12.6,0,22.8,10.2,22.8,22.8S37.6,47.8,25,47.8S2.2,37.6,2.2,25S12.4,2.2,25,2.2 M25,0.2
		C11.3,0.2,0.2,11.3,0.2,25S11.3,49.8,25,49.8S49.8,38.7,49.8,25S38.7,0.2,25,0.2L25,0.2z"/>
</g>
<g>
	<defs>
		<circle id="SVGID_1_" cx="25" cy="25" r="21"/>
	</defs>
	<clipPath id="SVGID_2_">
		<use xlink:href="#SVGID_1_"  style="overflow:visible;"/>
	</clipPath>
	<g class="st2">
		<g>
			<path class="st3" d="M35,66.1l2.1-20.6l-4.9-9.2l-14.3,4.9l-2.7-4.6l5.3-3L19.2,31l7.5-6.8l0.2,0.2c0.5-1.6,1.8-2.8,3.2-2.8
				c1.7,0,3.1,1.5,3.4,3.5l0,0l0,0h0H35v0l40.2,0.4l18.3,17.1L83.1,66.1L74,66l3.7-10.8l-21.2,0.1l-6.8-4.2l-8.5,14.9H35z"/>
		</g>
		<path class="st4" d="M24.5,26.5c0-2,1.6-3.6,3.6-3.6s3.6,1.6,3.6,3.6"/>
		<circle class="st4" cx="28.1" cy="26.5" r="3.6"/>
	</g>
</g>
</svg>
