<?xml version="1.0" encoding="utf-8"?>
<!-- Generator: Adobe Illustrator 22.1.0, SVG Export Plug-In . SVG Version: 6.00 Build 0)  -->
<svg version="1.1" id="Layer_1" xmlns="http://www.w3.org/2000/svg" xmlns:xlink="http://www.w3.org/1999/xlink" x="0px" y="0px"
	 viewBox="0 0 50 50" style="enable-background:new 0 0 50 50;" xml:space="preserve">
<style type="text/css">
	.st0{fill:#490A3D;}
	.st1{fill:#FFFFFF;}
	.st2{clip-path:url(#SVGID_2_);}
	.st3{fill:#A5D73C;stroke:#69941B;stroke-width:1.2749;stroke-miterlimit:10;}
	.st4{fill:#8ABB2A;stroke:#69941B;stroke-width:1.2749;stroke-miterlimit:10;}
</style>
<g>
	<path class="st0" d="M25,48.8C11.9,48.8,1.2,38.1,1.2,25S11.9,1.2,25,1.2S48.8,11.9,48.8,25S38.1,48.8,25,48.8z"/>
	<path class="st1" d="M25,2.2c12.6,0,22.8,10.2,22.8,22.8S37.6,47.8,25,47.8S2.2,37.6,2.2,25S12.4,2.2,25,2.2 M25,0.2
		C11.3,0.2,0.2,11.3,0.2,25S11.3,49.8,25,49.8S49.8,38.7,49.8,25S38.7,0.2,25,0.2L25,0.2z"/>
</g>
<g>
	<defs>
		<circle id="SVGID_1_" cx="25" cy="25" r="21"/>
	</defs>
	<clipPath id="SVGID_2_">
		<use xlink:href="#SVGID_1_"  style="overflow:visible;"/>
	</clipPath>
	<g class="st2">
		<polyline class="st3" points="77.8,44 83.4,48.9 77.8,55.5 		"/>
		<polygon class="st4" points="43.7,27.2 48.1,30.4 66.7,27.2 74.1,30.4 77.8,39.7 77.8,60 46.9,62 53,53.7 49.1,52 42.2,59.6 
			32.2,62 37.5,52.7 25.5,54.9 30.4,47 27.2,41.9 19.9,41.4 14.7,35.9 14.7,34 13.3,34 15.7,27.2 30.8,19.6 32.6,20.7 39.5,6.9 
			41.8,7.4 42.8,12 44.9,21.3 		"/>
		<polygon class="st3" points="32.6,22.3 35.1,25.2 45.8,20.7 51.3,16.3 52.9,7.8 39.5,15.2 		"/>
	</g>
</g>
</svg>
