<?xml version="1.0" encoding="utf-8"?>
<!-- Generator: Adobe Illustrator 22.1.0, SVG Export Plug-In . SVG Version: 6.00 Build 0)  -->
<svg version="1.1" id="Layer_1" xmlns="http://www.w3.org/2000/svg" xmlns:xlink="http://www.w3.org/1999/xlink" x="0px" y="0px"
	 viewBox="0 0 50 50" style="enable-background:new 0 0 50 50;" xml:space="preserve">
<style type="text/css">
	.st0{fill:#490A3D;}
	.st1{fill:#FFFFFF;}
	.st2{clip-path:url(#SVGID_2_);}
	.st3{fill:#A5D73C;stroke:#69941B;stroke-width:1.2749;stroke-miterlimit:10;}
	.st4{fill:#8ABB2A;stroke:#69941B;stroke-width:1.2749;stroke-miterlimit:10;}
</style>
<g>
	<path class="st0" d="M1.2,25C1.2,11.9,11.9,1.2,25,1.2S48.8,11.9,48.8,25S38.1,48.8,25,48.8S1.2,38.1,1.2,25z"/>
	<path class="st1" d="M25,2.2c12.6,0,22.8,10.2,22.8,22.8S37.6,47.8,25,47.8S2.2,37.6,2.2,25S12.4,2.2,25,2.2 M25,0.2
		C11.3,0.2,0.2,11.3,0.2,25S11.3,49.8,25,49.8S49.8,38.7,49.8,25S38.7,0.2,25,0.2L25,0.2z"/>
</g>
<g>
	<g>
		<defs>
			<circle id="SVGID_1_" cx="25" cy="25" r="21"/>
		</defs>
		<clipPath id="SVGID_2_">
			<use xlink:href="#SVGID_1_"  style="overflow:visible;"/>
		</clipPath>
		<g class="st2">
			<polyline class="st3" points="-27.8,55.5 -33.4,48.9 -27.8,44 			"/>
			<polygon class="st4" points="5.1,21.3 7.2,12 8.2,7.4 10.5,6.9 17.4,20.7 19.2,19.6 34.3,27.2 36.7,34 35.3,34 35.3,35.9 
				30.1,41.4 22.8,41.9 19.6,47 24.5,54.9 12.5,52.7 17.8,62 7.8,59.6 0.9,52 -3,53.7 3.1,62 -27.8,60 -27.8,39.7 -24.1,30.4 
				-16.7,27.2 1.9,30.4 6.3,27.2 			"/>
			<polygon class="st3" points="10.5,15.2 -2.9,7.8 -1.3,16.3 4.2,20.7 14.9,25.2 17.4,22.3 			"/>
		</g>
	</g>
</g>
</svg>
