<?xml version="1.0" encoding="utf-8"?>
<!-- Generator: Adobe Illustrator 22.1.0, SVG Export Plug-In . SVG Version: 6.00 Build 0)  -->
<svg version="1.1" id="Layer_1" xmlns="http://www.w3.org/2000/svg" xmlns:xlink="http://www.w3.org/1999/xlink" x="0px" y="0px"
	 viewBox="0 0 50 50" style="enable-background:new 0 0 50 50;" xml:space="preserve">
<style type="text/css">
	.st0{fill:#490A3D;}
	.st1{fill:#FFFFFF;}
	.st2{clip-path:url(#SVGID_2_);}
	.st3{fill:#8ABB2A;stroke:#69941B;stroke-width:1.2749;stroke-miterlimit:10;}
	.st4{fill:#A5D73C;stroke:#69941B;stroke-width:1.1082;stroke-miterlimit:10;}
</style>
<g>
	<g>
		<path class="st0" d="M1.2,25C1.2,11.9,11.9,1.2,25,1.2S48.8,11.9,48.8,25S38.1,48.8,25,48.8S1.2,38.1,1.2,25z"/>
		<path class="st1" d="M25,2.2c12.6,0,22.8,10.2,22.8,22.8S37.6,47.8,25,47.8S2.2,37.6,2.2,25S12.4,2.2,25,2.2 M25,0.2
			C11.3,0.2,0.2,11.3,0.2,25S11.3,49.8,25,49.8S49.8,38.7,49.8,25S38.7,0.2,25,0.2L25,0.2z"/>
	</g>
	<g>
		<g>
			<defs>
				<circle id="SVGID_1_" cx="25" cy="25" r="21"/>
			</defs>
			<clipPath id="SVGID_2_">
				<use xlink:href="#SVGID_1_"  style="overflow:visible;"/>
			</clipPath>
			<g class="st2">
				<polygon class="st3" points="67.1,32.9 69.2,35.6 69.2,41 64.9,44.4 70.4,44.5 73.6,40.1 73.8,32.5 77.9,29.7 81.1,22.9 
					81.1,17.7 67.9,4.3 36,8.3 25,12.8 15.5,14.8 21.8,25 21.4,30.8 18.4,34.1 18.4,36.8 20.9,38 35.4,36.8 39.7,33 42.4,35 
					43.2,42.7 39.7,46.1 44.9,46.1 50.7,33 62.8,31.2 				"/>
				<polygon class="st4" points="12.7,20.9 38.5,26.7 36.9,8.2 				"/>
				<polygon class="st4" points="71.8,8.2 75.2,6.3 73.4,3.6 71.4,3.5 71.9,-0.2 74.4,-0.2 78.5,6.6 77.2,12.8 				"/>
			</g>
		</g>
	</g>
</g>
</svg>
