<?xml version="1.0" encoding="utf-8"?>
<!-- Generator: Adobe Illustrator 22.1.0, SVG Export Plug-In . SVG Version: 6.00 Build 0)  -->
<svg version="1.1" id="Layer_1" xmlns="http://www.w3.org/2000/svg" xmlns:xlink="http://www.w3.org/1999/xlink" x="0px" y="0px"
	 viewBox="0 0 336.7 400" style="enable-background:new 0 0 336.7 400;" xml:space="preserve">
<style type="text/css">
	.st0{fill:#EFF4CF;}
	.st1{display:none;}
	.st2{display:inline;}
	.st3{fill:#8ABB2A;stroke:#69941B;stroke-width:1.7538;stroke-miterlimit:10;}
	.st4{fill:#A5D73C;stroke:#69941B;stroke-width:1.5244;stroke-miterlimit:10;}
	.st5{fill:#A5D73C;stroke:#69941B;stroke-width:1.7538;stroke-miterlimit:10;}
	.st6{fill:#A5D73C;stroke:#69941B;stroke-width:4;stroke-linecap:round;stroke-linejoin:round;stroke-miterlimit:10;}
	.st7{fill:#8ABB2A;}
	.st8{fill:#69941B;}
	.st9{fill:#A5D73C;}
</style>
<circle class="st0" cx="88.3" cy="111.1" r="75.7"/>
<g id="Layer_2_1_" class="st1">
	<g class="st2">
		<polygon class="st3" points="226.2,132.6 242.8,135.1 250.8,153.1 257.9,153.1 253.1,148.4 254.2,137.8 257.9,135.1 263.9,140.3 
			283.8,142 287.3,140.3 287.3,136.6 283.2,132 282.5,124.1 291.2,110.1 278.2,107.4 263.1,101.1 219.1,95.5 200.9,114 200.9,121.2 
			205.4,130.5 211,134.4 211.4,144.9 215.7,150.9 223.2,150.7 217.4,146.1 217.4,138.7 220.3,134.9 		"/>
		<polygon class="st4" points="261.8,101 259.6,126.5 295,118.4 		"/>
		<polygon class="st4" points="206.3,107.4 204.5,98.7 210.3,89.4 213.7,89.4 214.4,94.5 211.6,94.7 209.1,98.4 213.8,101 		"/>
	</g>
	<g class="st2">
		<polyline class="st4" points="144.3,94.4 153.2,104.1 153.2,124 149.5,124 151.5,104.8 144.3,94.4 		"/>
		<polygon class="st3" points="144.2,87.1 113.3,70.8 65.3,68.5 57.6,72.1 48.2,85.8 48.2,122.4 28.1,122.4 28.1,129.8 30.8,127.3 
			60.3,127.3 60.3,114.1 60.2,113.8 65.3,106 65.3,152.7 80.2,152.7 84.6,134.3 117.3,134.3 119.8,154.3 132.3,154.3 138.7,134.3 
			138.7,134.3 145.6,95.7 		"/>
		<polygon class="st5" points="87.8,78.5 65,68.5 57.4,72.4 65.3,106 		"/>
	</g>
	<g class="st2">
		<g>
			<path class="st3" d="M70.9,297.7l2.9-28.3l-6.7-12.7l-19.7,6.7l-3.7-6.3l7.3-4.2l-1.8-3.6l10.3-9.3l0.3,0.2
				c0.7-2.3,2.4-3.8,4.5-3.8c2.3,0,4.2,2.1,4.7,4.8l0,0l0,0l0,0h1.9l0,0l55.3,0.6l25.2,23.6L137,297.7l-12.5-0.1l5.1-14.9l-29.1,0.2
				l-9.3-5.7l-11.7,20.6h-8.6C70.9,297.8,70.9,297.7,70.9,297.7z"/>
		</g>
		<path class="st5" d="M56.4,243.2c0-2.7,2.2-4.9,4.9-4.9c2.7,0,4.9,2.2,4.9,4.9"/>
		<circle class="st5" cx="61.4" cy="243.2" r="4.9"/>
	</g>
	<g class="st2">
		<polyline class="st5" points="292,274.9 299.8,281.6 292,290.8 		"/>
		<polygon class="st3" points="245.1,251.8 251.2,256.2 276.9,251.8 287,256.2 292,269 292,297 249.5,299.7 258,288.2 252.6,285.9 
			243.1,296.3 229.3,299.7 236.7,286.9 220.2,289.9 226.9,279.1 222.5,272 212.4,271.4 205.3,263.8 205.3,261.2 203.3,261.2 
			206.7,251.8 227.4,241.3 230,242.8 239.4,224 242.6,224.6 244,230.9 246.8,243.7 		"/>
		<polygon class="st5" points="229.8,245 233.4,249.1 248.1,242.8 255.7,236.8 257.8,225.1 239.5,235.3 		"/>
	</g>
</g>
<g>
	<polyline class="st6" points="144.3,94.4 153.2,104.1 153.2,124 149.5,124 151.5,104.8 144.3,94.4 	"/>
	<g>
		<path class="st7" d="M119.8,156.3c-1,0-1.9-0.8-2-1.8l-2.3-18.3H86.2l-4,16.9c-0.2,0.9-1,1.5-1.9,1.5h-15c-1.1,0-2-0.9-2-2v-40
			l-1,1.5v13.1c0,1.1-0.9,2-2,2H31.6l-2.2,2c-0.4,0.3-0.8,0.5-1.3,0.5c-0.3,0-0.6-0.1-0.8-0.2c-0.7-0.3-1.2-1-1.2-1.8v-7.4
			c0-1.1,0.9-2,2-2h18.1V85.8c0-0.4,0.1-0.8,0.4-1.1L56,71c0.2-0.3,0.5-0.5,0.8-0.7l7.7-3.6c0.3-0.1,0.6-0.2,0.8-0.2l48,2.3
			c0.3,0,0.6,0.1,0.8,0.2L145,85.4c0.6,0.3,0.9,0.8,1,1.4l1.4,8.6c0,0.2,0,0.5,0,0.7l-7,38.5c0,0.1,0,0.2-0.1,0.2l-6.4,20.1
			c-0.3,0.8-1,1.4-1.9,1.4H119.8z"/>
		<path class="st8" d="M65.3,68.5l47.9,2.3l30.9,16.4l1.4,8.6l-7,38.5l0,0l-6.4,20.1h-12.5l-2.5-20.1H84.6l-4.4,18.4H65.3V106
			l-5.1,7.8l0.1,0.3v13.2H30.8l-2.8,2.5v-7.4h20.1V85.8l9.4-13.7L65.3,68.5 M65.3,64.5c-0.6,0-1.2,0.1-1.7,0.4l-7.7,3.6
			c-0.6,0.3-1.2,0.8-1.6,1.4l-9.4,13.7c-0.5,0.7-0.7,1.5-0.7,2.3v32.6H28.1c-2.2,0-4,1.8-4,4v7.4c0,1.6,0.9,3,2.4,3.6
			c0.5,0.2,1.1,0.4,1.6,0.4c1,0,1.9-0.3,2.7-1l1.6-1.4h28c0.4,0,0.7,0,1-0.1v21.5c0,2.2,1.8,4,4,4h14.9c1.9,0,3.5-1.3,3.9-3.1
			l3.6-15.4h26l2.1,16.6c0.3,2,2,3.5,4,3.5h12.5c1.7,0,3.3-1.1,3.8-2.8l6.4-20.1c0.1-0.2,0.1-0.3,0.1-0.5l7-38.5
			c0.1-0.5,0.1-0.9,0-1.4l-1.4-8.6c-0.2-1.2-1-2.3-2.1-2.9l-30.9-16.4c-0.5-0.3-1.1-0.4-1.7-0.5l-47.9-2.3
			C65.5,64.5,65.4,64.5,65.3,64.5L65.3,64.5z"/>
	</g>
	<g>
		<path class="st9" d="M65.3,108c-0.1,0-0.3,0-0.4-0.1c-0.7-0.2-1.3-0.7-1.5-1.5l-7.9-33.6c-0.2-0.9,0.2-1.8,1-2.2l7.6-3.9
			c0.3-0.1,0.6-0.2,0.9-0.2s0.5,0.1,0.8,0.2l22.7,10c0.6,0.3,1,0.8,1.1,1.4s0,1.2-0.4,1.7l-22.4,27.5C66.5,107.8,65.9,108,65.3,108z
			"/>
		<path class="st8" d="M65,68.5l22.7,10L65.3,106l-7.9-33.6L65,68.5 M65,64.5c-0.6,0-1.3,0.1-1.8,0.4l-7.6,3.9
			c-1.6,0.8-2.5,2.7-2.1,4.5l7.9,33.6c0.4,1.5,1.5,2.6,3,3c0.3,0.1,0.6,0.1,0.9,0.1c1.2,0,2.3-0.5,3.1-1.5L90.8,81
			c0.8-1,1.1-2.2,0.8-3.5c-0.3-1.2-1.1-2.2-2.3-2.7l-22.7-10C66.1,64.6,65.6,64.5,65,64.5L65,64.5z"/>
	</g>
</g>
</svg>
