<?xml version="1.0" encoding="utf-8"?>
<!-- Generator: Adobe Illustrator 22.1.0, SVG Export Plug-In . SVG Version: 6.00 Build 0)  -->
<svg version="1.1" id="Layer_1" xmlns="http://www.w3.org/2000/svg" xmlns:xlink="http://www.w3.org/1999/xlink" x="0px" y="0px"
	 viewBox="0 0 336.7 400" style="enable-background:new 0 0 336.7 400;" xml:space="preserve">
<style type="text/css">
	.st0{fill:#EFF4CF;}
	.st1{fill:#8ABB2A;}
	.st2{fill:#69941B;}
	.st3{fill:#A5D73C;}
</style>
<circle class="st0" cx="248.7" cy="111.1" r="75.7"/>
<g>
	<g>
		<path class="st1" d="M253.8,145.1c-0.8,0-1.5-0.5-1.8-1.2l-7.6-17l-15-2.3l-4.9,1.9l-2.1,2.8v5.8l5.1,4c0.7,0.5,0.9,1.4,0.7,2.2
			c-0.3,0.8-1,1.3-1.8,1.4l-7.6,0.2c-0.6,0-1.2-0.3-1.6-0.8l-4.4-6.1c-0.2-0.3-0.4-0.7-0.4-1.1l-0.3-9.5l-4.8-3.3
			c-0.3-0.2-0.5-0.5-0.7-0.8l-4.5-9.3c-0.1-0.3-0.2-0.6-0.2-0.9V104c0-0.5,0.2-1,0.6-1.4l18.2-18.4c0.4-0.4,0.9-0.6,1.4-0.6
			c0.1,0,0.2,0,0.3,0l43.9,5.6c0.2,0,0.3,0.1,0.5,0.1l14.9,6.1l12.9,2.7c0.6,0.1,1.2,0.6,1.4,1.2c0.3,0.6,0.2,1.3-0.1,1.8l-8.4,13.5
			l0.5,6.5l3.7,4.1c0.3,0.4,0.5,0.8,0.5,1.3v3.7c0,0.8-0.4,1.5-1.1,1.8l-3.5,1.7c-0.3,0.1-0.6,0.2-0.9,0.2c-0.1,0-0.1,0-0.2,0
			l-19.9-1.7c-0.4,0-0.8-0.2-1.1-0.5l-4.8-4.1l-1.7,1.2l-0.9,8.7l4.1,4.1c0.6,0.6,0.7,1.4,0.4,2.2c-0.3,0.7-1,1.2-1.8,1.2h-7V145.1z
			"/>
		<path class="st2" d="M222.1,85.5l43.9,5.6l15.1,6.2l13.1,2.7l-8.7,14.1l0.6,7.9l4.1,4.6v3.7l-3.5,1.7l-19.9-1.7l-6-5.2l-3.7,2.7
			l-1,10.6l4.8,4.8h-7l-8.1-18l-16.6-2.5l-5.9,2.3l-2.9,3.7v7.5l5.8,4.6l-7.5,0.2l-4.4-6.1l-0.4-10.5l-5.6-3.9l-4.5-9.3V104
			L222.1,85.5 M222.1,81.5c-1.1,0-2.1,0.4-2.8,1.2l-18.2,18.4c-0.7,0.7-1.2,1.8-1.2,2.8v7.3c0,0.6,0.1,1.2,0.4,1.7l4.5,9.3
			c0.3,0.6,0.8,1.2,1.3,1.6l4,2.7l0.3,8.5c0,0.8,0.3,1.5,0.7,2.2l4.4,6.1c0.8,1,2,1.7,3.2,1.7h0.1l7.5-0.2c1.7-0.1,3.2-1.2,3.7-2.7
			c0.5-1.6,0-3.4-1.3-4.4l-4.3-3.4V130l1.4-1.8l3.9-1.5l13.3,2l7.2,16c0.6,1.4,2.1,2.4,3.7,2.4h7c1.6,0,3.1-1,3.7-2.5
			s0.3-3.2-0.9-4.4l-3.4-3.4l0.6-6.5l3.4,2.9c0.6,0.6,1.4,0.9,2.3,1l19.9,1.7c0.1,0,0.2,0,0.3,0c0.6,0,1.2-0.1,1.7-0.4l3.5-1.7
			c1.4-0.7,2.3-2.1,2.3-3.6v-3.7c0-1-0.4-2-1-2.7l-3.2-3.5l-0.4-5.2l8-13c0.7-1.1,0.8-2.5,0.3-3.7s-1.6-2.1-2.9-2.3l-12.7-2.6
			l-14.8-6.1c-0.3-0.1-0.7-0.2-1-0.3l-43.9-5.6C222.5,81.6,222.3,81.5,222.1,81.5L222.1,81.5z"/>
	</g>
	<g>
		<path class="st3" d="M262.6,118.5c-0.5,0-0.9-0.2-1.3-0.5c-0.5-0.4-0.7-1-0.7-1.7l2.2-25.5c0.1-0.7,0.4-1.3,1-1.6
			c0.3-0.2,0.6-0.2,1-0.2c0.3,0,0.6,0.1,0.9,0.2l33.2,17.4c0.7,0.4,1.2,1.2,1.1,2s-0.7,1.5-1.5,1.7l-35.4,8.1
			C262.9,118.4,262.7,118.5,262.6,118.5z"/>
		<path class="st2" d="M264.8,91l33.2,17.4l-35.4,8.1L264.8,91 M264.8,87c-0.7,0-1.3,0.2-1.9,0.5c-1.2,0.6-1.9,1.8-2.1,3.2
			l-2.2,25.5c-0.1,1.3,0.4,2.5,1.4,3.4c0.7,0.6,1.7,1,2.6,1c0.3,0,0.6,0,0.9-0.1l35.4-8.1c1.6-0.4,2.9-1.7,3.1-3.4
			c0.2-1.7-0.6-3.3-2.1-4.1l-33.2-17.4C266.1,87.1,265.4,87,264.8,87L264.8,87z"/>
	</g>
	<g>
		<path class="st3" d="M209.3,99.4c-0.2,0-0.4,0-0.6-0.1c-0.7-0.2-1.2-0.8-1.3-1.5l-1.8-8.6c-0.1-0.5,0-1,0.3-1.5l5.7-9.3
			c0.4-0.6,1-1,1.7-1h3.4c1,0,1.8,0.7,2,1.7l0.7,5c0.1,0.5-0.1,1.1-0.4,1.5c-0.3,0.4-0.8,0.7-1.4,0.7l-1.8,0.2l-0.7,1.1l2.8,1.5
			c0.6,0.3,1,0.9,1,1.5s-0.2,1.3-0.7,1.7l-7.5,6.4C210.2,99.2,209.8,99.4,209.3,99.4z"/>
		<path class="st2" d="M216.7,79.4l0.7,5l-2.8,0.2l-2.5,3.7l4.7,2.6l-7.5,6.4l-1.8-8.6l5.7-9.3L216.7,79.4 M216.7,75.4h-3.4
			c-1.4,0-2.7,0.7-3.4,1.9l-5.7,9.3c-0.5,0.9-0.7,1.9-0.5,2.9l1.8,8.6c0.3,1.4,1.3,2.5,2.6,3c0.4,0.1,0.9,0.2,1.3,0.2
			c0.9,0,1.9-0.3,2.6-1l7.5-6.4c1-0.8,1.5-2.1,1.4-3.4c-0.1-1-0.6-2-1.4-2.7c0.4-0.2,0.8-0.6,1.1-1c0.7-0.9,1-2,0.8-3l-0.7-5
			C220.4,76.9,218.7,75.4,216.7,75.4L216.7,75.4z"/>
	</g>
</g>
</svg>
