<?xml version="1.0" encoding="utf-8"?>
<!-- Generator: Adobe Illustrator 22.1.0, SVG Export Plug-In . SVG Version: 6.00 Build 0)  -->
<svg version="1.1" id="Layer_1" xmlns="http://www.w3.org/2000/svg" xmlns:xlink="http://www.w3.org/1999/xlink" x="0px" y="0px"
	 viewBox="0 0 336.7 400" style="enable-background:new 0 0 336.7 400;" xml:space="preserve">
<style type="text/css">
	.st0{fill:#EFF4CF;}
	.st1{fill:#8ABB2A;}
	.st2{fill:#69941B;}
	.st3{fill:#A5D73C;stroke:#69941B;stroke-width:4;stroke-linecap:round;stroke-linejoin:round;stroke-miterlimit:10;}
	.st4{fill:#A5D73C;}
</style>
<circle class="st0" cx="88.3" cy="283" r="75.7"/>
<g>
	<g>
		<g>
			<path class="st1" d="M60.9,316.7c-0.6,0-1.1-0.2-1.5-0.7c-0.4-0.4-0.6-1-0.5-1.5l2.8-27.7L56,276.2l-18,6.1
				c-0.2,0.1-0.4,0.1-0.6,0.1c-0.7,0-1.4-0.4-1.7-1l-3.7-6.3c-0.3-0.5-0.3-1-0.2-1.5s0.5-1,0.9-1.2l5.7-3.2l-0.9-1.9
				c-0.4-0.8-0.2-1.8,0.4-2.4l10.3-9.3c0.1-0.1,0.2-0.2,0.3-0.2c1.2-2.4,3.4-3.9,5.8-3.9c2.7,0,5.1,1.9,6.2,4.8h0.4
				c0.1,0,0.2,0,0.3,0l55.1,0.6c0.5,0,1,0.2,1.3,0.5l25.2,23.6c0.6,0.6,0.8,1.5,0.5,2.3l-14.4,32.2c-0.3,0.7-1,1.2-1.8,1.2
				l-12.5-0.1c-0.6,0-1.2-0.3-1.6-0.8s-0.5-1.2-0.3-1.8l4.2-12.2L90.6,302c-0.4,0-0.7-0.1-1.1-0.3L82,297l-10.6,18.7
				c-0.4,0.6-1,1-1.7,1L60.9,316.7L60.9,316.7z"/>
			<path class="st2" d="M54.3,253.5c2.3,0,4.2,2.1,4.7,4.8l0,0h1.9l0,0l55.3,0.6l25.2,23.6L127,314.7l-12.5-0.1l5.1-14.9l-29.1,0.2
				l-9.3-5.7l-11.7,20.6h-8.6l2.9-28.3l-6.7-12.7l-19.7,6.7l-3.7-6.3L41,270l-1.8-3.6l10.3-9.3l0.3,0.2
				C50.6,255.1,52.3,253.5,54.3,253.5 M54.3,249.5c-3,0-5.7,1.7-7.3,4.5l-0.1,0.1l-10.3,9.3c-1.3,1.2-1.7,3.1-0.9,4.8l0.1,0.2
				l-4,2.3c-0.9,0.5-1.6,1.4-1.9,2.4c-0.3,1-0.1,2.1,0.4,3.1l3.7,6.3c0.7,1.3,2.1,2,3.5,2c0.4,0,0.9-0.1,1.3-0.2l16.5-5.6l4.6,8.6
				l-2.9,27c-0.1,1.1,0.3,2.2,1,3.1c0.8,0.8,1.8,1.3,3,1.3h8.6c1.4,0,2.8-0.8,3.5-2l9.6-16.9l5.8,3.6c0.6,0.4,1.4,0.6,2.1,0.6l0,0
				l23.5-0.2l-3.3,9.5c-0.4,1.2-0.2,2.6,0.5,3.6s1.9,1.7,3.2,1.7l12.5,0.1l0,0c1.6,0,3-0.9,3.7-2.4l14.4-32.2
				c0.7-1.6,0.3-3.4-0.9-4.6L119,255.9c-0.7-0.7-1.7-1.1-2.7-1.1l-54.5-0.6C60.3,251.4,57.5,249.5,54.3,249.5L54.3,249.5z"/>
		</g>
	</g>
	<path class="st3" d="M46.4,260.2c0-2.7,2.2-4.9,4.9-4.9c2.7,0,4.9,2.2,4.9,4.9"/>
	<g>
		<path class="st4" d="M51.4,267.2c-3.8,0-6.9-3.1-6.9-6.9s3.1-7,6.9-7s6.9,3.1,6.9,7C58.3,264.2,55.2,267.2,51.4,267.2z"/>
		<path class="st2" d="M51.4,255.3c2.7,0,4.9,2.2,4.9,4.9c0,2.7-2.2,4.9-4.9,4.9c-2.7,0-4.9-2.2-4.9-4.9
			C46.4,257.5,48.6,255.3,51.4,255.3 M51.4,251.3c-4.9,0-8.9,4-8.9,8.9c0,4.9,4,8.9,8.9,8.9s8.9-4,8.9-8.9
			C60.3,255.3,56.3,251.3,51.4,251.3L51.4,251.3z"/>
	</g>
</g>
</svg>
