<?xml version="1.0" encoding="utf-8"?>
<!-- Generator: Adobe Illustrator 22.1.0, SVG Export Plug-In . SVG Version: 6.00 Build 0)  -->
<svg version="1.1" id="Layer_1" xmlns="http://www.w3.org/2000/svg" xmlns:xlink="http://www.w3.org/1999/xlink" x="0px" y="0px"
	 viewBox="0 0 336.7 400" style="enable-background:new 0 0 336.7 400;" xml:space="preserve">
<style type="text/css">
	.st0{fill:#EFF4CF;}
	.st1{fill:#A5D73C;stroke:#69941B;stroke-width:4;stroke-linecap:round;stroke-linejoin:round;stroke-miterlimit:10;}
	.st2{fill:#8ABB2A;}
	.st3{fill:#69941B;}
	.st4{fill:#A5D73C;}
</style>
<circle class="st0" cx="248.7" cy="283" r="75.7"/>
<g>
	<polyline class="st1" points="292,294.9 299.8,301.6 292,310.8 	"/>
	<g>
		<path class="st2" d="M229.3,321.7c-0.6,0-1.2-0.3-1.6-0.8c-0.5-0.6-0.5-1.5-0.1-2.2l5.2-9.1l-12.3,2.3c-0.1,0-0.2,0-0.4,0
			c-0.7,0-1.3-0.3-1.7-0.9c-0.4-0.7-0.5-1.5,0-2.2l6.1-9.7l-3.2-5.2l-9.1-0.6c-0.5,0-1-0.3-1.3-0.6l-7.1-7.6
			c-0.3-0.4-0.5-0.9-0.5-1.4v-0.5l0,0c-0.7,0-1.3-0.3-1.6-0.8c-0.4-0.5-0.5-1.2-0.2-1.8l3.4-9.4c0.2-0.5,0.5-0.9,1-1.1l20.8-10.5
			c0.3-0.1,0.6-0.2,0.9-0.2c0.4,0,0.7,0.1,1,0.3l0.7,0.4l8.5-17c0.3-0.7,1-1.1,1.8-1.1c0.1,0,0.3,0,0.4,0l3.2,0.7
			c0.8,0.2,1.4,0.8,1.5,1.5l1.3,6.2l2.9,12.8c0.1,0.3,0.1,0.6,0,0.8l-1.4,6.8l4.3,3.2l24.8-4.3c0.1,0,0.2,0,0.3,0
			c0.3,0,0.5,0.1,0.8,0.2l10.1,4.4c0.5,0.2,0.9,0.6,1.1,1.1l5.1,12.8c0.1,0.2,0.1,0.5,0.1,0.7v28c0,1.1-0.8,1.9-1.9,2l-42.5,2.7
			h-0.1c-0.7,0-1.4-0.4-1.8-1c-0.4-0.7-0.3-1.5,0.1-2.1l7-9.5l-1.8-0.8l-8.5,9.4c-0.3,0.3-0.6,0.5-1,0.6l-13.8,3.4
			C229.6,321.7,229.4,321.7,229.3,321.7z"/>
		<path class="st3" d="M239.4,243.9l3.2,0.7l1.3,6.2l2.9,12.8l-1.7,8.1l6.1,4.4l25.6-4.4l10.1,4.4L292,289v28l-42.5,2.7l8.4-11.5
			l-5.4-2.4l-9.4,10.5l-13.8,3.4l7.4-12.8l-16.5,3l6.7-10.8l-4.4-7.1l-10.1-0.7l-7.1-7.6v-2.5h-2l3.4-9.4l20.8-10.5l2.5,1.5
			L239.4,243.9 M239.4,239.9c-1.5,0-2.9,0.8-3.6,2.2l-7.6,15.2c-0.3-0.1-0.5-0.1-0.8-0.1c-0.6,0-1.2,0.1-1.8,0.4l-20.8,10.5
			c-0.9,0.5-1.6,1.3-2,2.2l-3.4,9.4c-0.4,1.2-0.3,2.6,0.5,3.6c0.4,0.5,0.9,1,1.4,1.2c0.2,0.6,0.5,1.2,0.9,1.7l7.1,7.6
			c0.7,0.7,1.6,1.2,2.7,1.3l8.1,0.5l2,3.2l-5.4,8.7c-0.8,1.3-0.8,3.1,0.1,4.4c0.8,1.1,2,1.8,3.3,1.8c0.2,0,0.5,0,0.7-0.1l8-1.5
			l-3.1,5.3c-0.8,1.4-0.7,3.1,0.3,4.4c0.8,1,2,1.6,3.2,1.6c0.3,0,0.6,0,0.9-0.1l13.8-3.4c0.5-0.1,1-0.4,1.5-0.7
			c0,0.7,0.1,1.4,0.5,2.1c0.7,1.3,2.1,2.1,3.5,2.1c0.1,0,0.2,0,0.3,0l42.5-2.7c2.1-0.1,3.7-1.9,3.7-4v-28c0-0.5-0.1-1-0.3-1.5
			l-5.1-12.8c-0.4-1-1.1-1.8-2.1-2.2l-10.1-4.4c-0.5-0.2-1.1-0.3-1.6-0.3c-0.2,0-0.5,0-0.7,0.1l-24,4.1l-2.6-1.9l1.2-5.6
			c0.1-0.6,0.1-1.1,0-1.7l-2.9-12.8l-1.3-6.2c-0.3-1.5-1.5-2.7-3.1-3.1l-3.2-0.7C240,240,239.7,239.9,239.4,239.9L239.4,239.9z"/>
	</g>
	<g>
		<path class="st4" d="M233.4,271.1c-0.6,0-1.1-0.2-1.5-0.7l-3.5-4c-0.7-0.8-0.7-2,0.1-2.7l9.6-9.8c0.1-0.1,0.3-0.3,0.5-0.3
			l18.4-10.1c0.3-0.2,0.6-0.2,1-0.2s0.8,0.1,1.2,0.4c0.6,0.5,0.9,1.2,0.8,2l-2.2,11.6c-0.1,0.5-0.3,0.9-0.7,1.2l-7.6,6.1
			c-0.1,0.1-0.3,0.2-0.5,0.3l-14.7,6.2C233.9,271,233.7,271.1,233.4,271.1z"/>
		<path class="st3" d="M257.8,245.1L257.8,245.1 M257.8,245.1l-2.2,11.6l-7.6,6.1l-14.7,6.2l-3.5-4l9.6-9.8L257.8,245.1
			 M257.8,241.1h-0.1c-0.7,0-1.3,0.2-1.9,0.5l-18.3,10.1c-0.3,0.2-0.7,0.4-0.9,0.7l-9.6,9.8c-1.5,1.5-1.5,3.9-0.2,5.4l3.5,4
			c0.8,0.9,1.9,1.4,3,1.4c0.5,0,1.1-0.1,1.6-0.3l14.7-6.2c0.3-0.1,0.6-0.3,0.9-0.6l7.6-6.1c0.7-0.6,1.3-1.4,1.4-2.4l2.2-11.5
			c0.1-0.3,0.1-0.6,0.1-0.9C261.9,242.9,260.1,241.1,257.8,241.1C257.9,241.1,257.9,241.1,257.8,241.1L257.8,241.1z M257.8,249.1
			L257.8,249.1L257.8,249.1L257.8,249.1z"/>
	</g>
</g>
</svg>
