<?xml version="1.0" encoding="utf-8"?>
<!-- Generator: Adobe Illustrator 22.1.0, SVG Export Plug-In . SVG Version: 6.00 Build 0)  -->
<svg version="1.1" id="Layer_1" xmlns="http://www.w3.org/2000/svg" xmlns:xlink="http://www.w3.org/1999/xlink" x="0px" y="0px"
	 viewBox="0 0 336.7 400" style="enable-background:new 0 0 336.7 400;" xml:space="preserve">
<style type="text/css">
	.st0{fill:#F86A00;stroke:#C44412;stroke-width:2;stroke-linecap:round;stroke-linejoin:round;stroke-miterlimit:10;}
	.st1{fill:#FFFFFF;stroke:#CECECE;stroke-width:2;stroke-linecap:round;stroke-linejoin:round;stroke-miterlimit:10;}
	.st2{fill:#A5D73C;stroke:#69941B;stroke-width:2;stroke-linecap:round;stroke-linejoin:round;stroke-miterlimit:10;}
	.st3{fill:#00CDC8;stroke:#1CA49D;stroke-width:2;stroke-linecap:round;stroke-linejoin:round;stroke-miterlimit:10;}
	.st4{fill:#FADC3C;stroke:#E7C42A;stroke-width:2;stroke-linecap:round;stroke-linejoin:round;stroke-miterlimit:10;}
</style>
<g>
	<g>
		<rect x="11.4" y="147.7" class="st0" width="52.3" height="52.3"/>
		<rect x="63.7" y="147.7" class="st0" width="52.3" height="52.3"/>
		<rect x="116" y="147.7" class="st1" width="52.3" height="52.3"/>
		<rect x="11.4" y="95.4" class="st2" width="52.3" height="52.3"/>
		<rect x="63.7" y="95.4" class="st1" width="52.3" height="52.3"/>
		<rect x="116" y="95.4" class="st1" width="52.3" height="52.3"/>
		<rect x="11.4" y="43.1" class="st2" width="52.3" height="52.3"/>
		<rect x="63.7" y="43.1" class="st2" width="52.3" height="52.3"/>
		<rect x="116" y="43.1" class="st1" width="52.3" height="52.3"/>
	</g>
	<g>
		<rect x="168.3" y="147.7" class="st3" width="52.3" height="52.3"/>
		<rect x="220.6" y="147.7" class="st1" width="52.3" height="52.3"/>
		<rect x="272.9" y="147.7" class="st4" width="52.3" height="52.3"/>
		<rect x="168.3" y="95.4" class="st3" width="52.3" height="52.3"/>
		<rect x="220.6" y="95.4" class="st1" width="52.3" height="52.3"/>
		<rect x="272.9" y="95.4" class="st4" width="52.3" height="52.3"/>
		<rect x="168.3" y="43.1" class="st3" width="52.3" height="52.3"/>
		<rect x="220.6" y="43.1" class="st1" width="52.3" height="52.3"/>
		<rect x="272.9" y="43.1" class="st4" width="52.3" height="52.3"/>
	</g>
	<g>
		<rect x="11.4" y="304.6" class="st2" width="52.3" height="52.3"/>
		<rect x="63.7" y="304.6" class="st1" width="52.3" height="52.3"/>
		<rect x="116" y="304.6" class="st1" width="52.3" height="52.3"/>
		<rect x="11.4" y="252.3" class="st2" width="52.3" height="52.3"/>
		<rect x="63.7" y="252.3" class="st2" width="52.3" height="52.3"/>
		<rect x="116" y="252.3" class="st1" width="52.3" height="52.3"/>
		<rect x="11.4" y="200" class="st0" width="52.3" height="52.3"/>
		<rect x="63.7" y="200" class="st0" width="52.3" height="52.3"/>
		<rect x="116" y="200" class="st2" width="52.3" height="52.3"/>
	</g>
	<g>
		<rect x="168.3" y="304.6" class="st1" width="52.3" height="52.3"/>
		<rect x="220.6" y="304.6" class="st1" width="52.3" height="52.3"/>
		<rect x="272.9" y="304.6" class="st3" width="52.3" height="52.3"/>
		<rect x="168.3" y="252.3" class="st1" width="52.3" height="52.3"/>
		<rect x="220.6" y="252.3" class="st3" width="52.3" height="52.3"/>
		<rect x="272.9" y="252.3" class="st3" width="52.3" height="52.3"/>
		<rect x="168.3" y="200" class="st1" width="52.3" height="52.3"/>
		<rect x="220.6" y="200" class="st3" width="52.3" height="52.3"/>
		<rect x="272.9" y="200" class="st4" width="52.3" height="52.3"/>
	</g>
</g>
</svg>
