<?xml version="1.0" encoding="utf-8"?>
<!-- Generator: Adobe Illustrator 22.1.0, SVG Export Plug-In . SVG Version: 6.00 Build 0)  -->
<svg version="1.1" id="Layer_1" xmlns="http://www.w3.org/2000/svg" xmlns:xlink="http://www.w3.org/1999/xlink" x="0px" y="0px"
	 viewBox="0 0 50 50" style="enable-background:new 0 0 50 50;" xml:space="preserve">
<style type="text/css">
	.st0{fill:#FFFFFF;}
	.st1{fill:#CC0000;stroke:#8C0000;stroke-width:0.4981;stroke-linecap:round;stroke-linejoin:round;stroke-miterlimit:10;}
</style>
<g>
	<g>
		<path class="st0" d="M25,44.6c-0.8,0-1.5-0.7-1.5-1.5V31c0-0.8,0.7-1.5,1.5-1.5h12.1c0.8,0,1.5,0.7,1.5,1.5v12.1
			c0,0.8-0.7,1.5-1.5,1.5H25z"/>
		<path class="st0" d="M37.1,31v12.1H25V31H37.1 M37.1,28H25c-1.7,0-3,1.3-3,3v12.1c0,1.7,1.3,3,3,3h12.1c1.7,0,3-1.3,3-3V31
			C40.1,29.4,38.7,28,37.1,28L37.1,28z"/>
	</g>
	<g>
		<path class="st0" d="M25,32.5c-0.8,0-1.5-0.7-1.5-1.5V19c0-0.8,0.7-1.5,1.5-1.5h12.1c0.8,0,1.5,0.7,1.5,1.5V31
			c0,0.8-0.7,1.5-1.5,1.5H25z"/>
		<path class="st0" d="M37.1,19V31H25V19H37.1 M37.1,16H25c-1.7,0-3,1.3-3,3V31c0,1.7,1.3,3,3,3h12.1c1.7,0,3-1.3,3-3V19
			C40.1,17.3,38.7,16,37.1,16L37.1,16z"/>
	</g>
	<g>
		<path class="st0" d="M25,20.5c-0.8,0-1.5-0.7-1.5-1.5V6.9c0-0.8,0.7-1.5,1.5-1.5h12.1c0.8,0,1.5,0.7,1.5,1.5V19
			c0,0.8-0.7,1.5-1.5,1.5H25z"/>
		<path class="st0" d="M37.1,6.9V19H25V6.9H37.1 M37.1,3.9H25c-1.7,0-3,1.3-3,3V19c0,1.7,1.3,3,3,3h12.1c1.7,0,3-1.3,3-3V6.9
			C40.1,5.3,38.7,3.9,37.1,3.9L37.1,3.9z"/>
	</g>
	<g>
		<path class="st0" d="M12.9,32.5c-0.8,0-1.5-0.7-1.5-1.5V19c0-0.8,0.7-1.5,1.5-1.5H25c0.8,0,1.5,0.7,1.5,1.5V31
			c0,0.8-0.7,1.5-1.5,1.5H12.9z"/>
		<path class="st0" d="M25,19V31H12.9V19H25 M25,16H12.9c-1.7,0-3,1.3-3,3V31c0,1.7,1.3,3,3,3H25c1.7,0,3-1.3,3-3V19
			C28,17.3,26.7,16,25,16L25,16z"/>
	</g>
</g>
<g>
	<rect x="25" y="31" transform="matrix(6.123234e-17 -1 1 6.123234e-17 -6.0279 68.0837)" class="st1" width="12.1" height="12.1"/>
	<rect x="25" y="19" transform="matrix(6.123234e-17 -1 1 6.123234e-17 6.0279 56.0279)" class="st1" width="12.1" height="12.1"/>
	
		<rect x="25" y="6.9" transform="matrix(6.123234e-17 -1 1 6.123234e-17 18.0837 43.9721)" class="st1" width="12.1" height="12.1"/>
	
		<rect x="12.9" y="19" transform="matrix(6.123234e-17 -1 1 6.123234e-17 -6.0279 43.9721)" class="st1" width="12.1" height="12.1"/>
</g>
</svg>
