<?xml version="1.0" encoding="utf-8"?>
<!-- Generator: Adobe Illustrator 22.1.0, SVG Export Plug-In . SVG Version: 6.00 Build 0)  -->
<svg version="1.1" id="Layer_1" xmlns="http://www.w3.org/2000/svg" xmlns:xlink="http://www.w3.org/1999/xlink" x="0px" y="0px"
	 viewBox="0 0 50 50" style="enable-background:new 0 0 50 50;" xml:space="preserve">
<style type="text/css">
	.st0{fill:#FFFFFF;}
	.st1{fill:#F86A00;stroke:#C44412;stroke-width:0.4981;stroke-linecap:round;stroke-linejoin:round;stroke-miterlimit:10;}
</style>
<g>
	<g>
		<path class="st0" d="M19,20.5c-0.8,0-1.5-0.7-1.5-1.5V6.9c0-0.8,0.7-1.5,1.5-1.5H31c0.8,0,1.5,0.7,1.5,1.5V19
			c0,0.8-0.7,1.5-1.5,1.5H19z"/>
		<path class="st0" d="M31,6.9V19H19V6.9H31 M31,3.9H19c-1.7,0-3,1.3-3,3V19c0,1.7,1.3,3,3,3H31c1.7,0,3-1.3,3-3V6.9
			C34,5.3,32.7,3.9,31,3.9L31,3.9z"/>
	</g>
	<g>
		<path class="st0" d="M19,32.5c-0.8,0-1.5-0.7-1.5-1.5V19c0-0.8,0.7-1.5,1.5-1.5H31c0.8,0,1.5,0.7,1.5,1.5V31
			c0,0.8-0.7,1.5-1.5,1.5H19z"/>
		<path class="st0" d="M31,19V31H19V19H31 M31,16H19c-1.7,0-3,1.3-3,3V31c0,1.7,1.3,3,3,3H31c1.7,0,3-1.3,3-3V19
			C34,17.3,32.7,16,31,16L31,16z"/>
	</g>
	<g>
		<path class="st0" d="M19,44.6c-0.8,0-1.5-0.7-1.5-1.5V31c0-0.8,0.7-1.5,1.5-1.5H31c0.8,0,1.5,0.7,1.5,1.5v12.1
			c0,0.8-0.7,1.5-1.5,1.5H19z"/>
		<path class="st0" d="M31,31v12.1H19V31H31 M31,28H19c-1.7,0-3,1.3-3,3v12.1c0,1.7,1.3,3,3,3H31c1.7,0,3-1.3,3-3V31
			C34,29.4,32.7,28,31,28L31,28z"/>
	</g>
</g>
<g>
	
		<rect x="19" y="6.9" transform="matrix(-1.836970e-16 1 -1 -1.836970e-16 37.9442 -12.0558)" class="st1" width="12.1" height="12.1"/>
	
		<rect x="19" y="19" transform="matrix(-1.836970e-16 1 -1 -1.836970e-16 50 -1.360689e-12)" class="st1" width="12.1" height="12.1"/>
	
		<rect x="19" y="31" transform="matrix(-1.836970e-16 1 -1 -1.836970e-16 62.0558 12.0558)" class="st1" width="12.1" height="12.1"/>
</g>
</svg>
