<?xml version="1.0" encoding="utf-8"?>
<!-- Generator: Adobe Illustrator 22.1.0, SVG Export Plug-In . SVG Version: 6.00 Build 0)  -->
<svg version="1.1" id="Layer_1" xmlns="http://www.w3.org/2000/svg" xmlns:xlink="http://www.w3.org/1999/xlink" x="0px" y="0px"
	 viewBox="0 0 50 50" style="enable-background:new 0 0 50 50;" xml:space="preserve">
<style type="text/css">
	.st0{fill:#FFFFFF;}
	.st1{fill:#00CDC8;stroke:#1CA49D;stroke-width:0.6542;stroke-linecap:round;stroke-linejoin:round;stroke-miterlimit:10;}
</style>
<g>
	<g>
		<path class="st0" d="M9.2,42.3c-0.8,0-1.5-0.7-1.5-1.5V25c0-0.8,0.7-1.5,1.5-1.5H25c0.8,0,1.5,0.7,1.5,1.5v15.8
			c0,0.8-0.7,1.5-1.5,1.5H9.2z"/>
		<path class="st0" d="M25,25v15.8H9.2V25H25 M25,22H9.2c-1.7,0-3,1.3-3,3v15.8c0,1.7,1.3,3,3,3H25c1.7,0,3-1.3,3-3V25
			C28,23.3,26.7,22,25,22L25,22z"/>
	</g>
	<g>
		<path class="st0" d="M25,26.5c-0.8,0-1.5-0.7-1.5-1.5V9.2c0-0.8,0.7-1.5,1.5-1.5h15.8c0.8,0,1.5,0.7,1.5,1.5V25
			c0,0.8-0.7,1.5-1.5,1.5H25z"/>
		<path class="st0" d="M40.8,9.2V25H25V9.2H40.8 M40.8,6.2H25c-1.7,0-3,1.3-3,3V25c0,1.7,1.3,3,3,3h15.8c1.7,0,3-1.3,3-3V9.2
			C43.8,7.5,42.5,6.2,40.8,6.2L40.8,6.2z"/>
	</g>
	<g>
		<path class="st0" d="M25,42.3c-0.8,0-1.5-0.7-1.5-1.5V25c0-0.8,0.7-1.5,1.5-1.5h15.8c0.8,0,1.5,0.7,1.5,1.5v15.8
			c0,0.8-0.7,1.5-1.5,1.5H25z"/>
		<path class="st0" d="M40.8,25v15.8H25V25H40.8 M40.8,22H25c-1.7,0-3,1.3-3,3v15.8c0,1.7,1.3,3,3,3h15.8c1.7,0,3-1.3,3-3V25
			C43.8,23.3,42.5,22,40.8,22L40.8,22z"/>
	</g>
</g>
<g>
	<rect x="9.2" y="25" transform="matrix(-1.836970e-16 1 -1 -1.836970e-16 50 15.8333)" class="st1" width="15.8" height="15.8"/>
	<rect x="25" y="9.2" transform="matrix(-1.836970e-16 1 -1 -1.836970e-16 50 -15.8333)" class="st1" width="15.8" height="15.8"/>
	
		<rect x="25" y="25" transform="matrix(-1.836970e-16 1 -1 -1.836970e-16 65.8333 -6.172436e-07)" class="st1" width="15.8" height="15.8"/>
</g>
</svg>
