<?xml version="1.0" encoding="utf-8"?>
<!-- Generator: Adobe Illustrator 22.1.0, SVG Export Plug-In . SVG Version: 6.00 Build 0)  -->
<svg version="1.1" id="Layer_1" xmlns="http://www.w3.org/2000/svg" xmlns:xlink="http://www.w3.org/1999/xlink" x="0px" y="0px"
	 viewBox="0 0 50 50" style="enable-background:new 0 0 50 50;" xml:space="preserve">
<style type="text/css">
	.st0{fill:#FFFFFF;}
	.st1{fill:#FFFFFF;stroke:#FFFFFF;stroke-width:3;stroke-linejoin:round;stroke-miterlimit:10;}
	.st2{fill:#FADC3C;}
	.st3{fill:#E7C42A;}
</style>
<g>
	<g>
		<g>
			<g>
				<path class="st0" d="M11,6.2c0-0.8,0.7-1.5,1.5-1.5h12.3c0.8,0,1.5,0.7,1.5,1.5v12.3c0,0.8-0.7,1.5-1.5,1.5H12.5
					c-0.8,0-1.5-0.7-1.5-1.5V6.2z"/>
				<path class="st0" d="M24.8,18.5H12.5V6.2h12.3V18.5 M27.8,18.5V6.2c0-1.7-1.3-3-3-3H12.5c-1.7,0-3,1.3-3,3v12.3c0,1.7,1.3,3,3,3
					h12.3C26.5,21.5,27.8,20.2,27.8,18.5L27.8,18.5z"/>
			</g>
			<g>
				<path class="st1" d="M24.6,18.4H12.7v-12h11.9V18.4 M25,18.8V6.1H12.3v12.7H25L25,18.8z"/>
			</g>
		</g>
		<g>
			<g>
				<path class="st0" d="M11,18.9c0-0.8,0.7-1.5,1.5-1.5h12.3c0.8,0,1.5,0.7,1.5,1.5v12.3c0,0.8-0.7,1.5-1.5,1.5H12.5
					c-0.8,0-1.5-0.7-1.5-1.5V18.9z"/>
				<path class="st0" d="M24.8,31.2H12.5V18.9h12.3V31.2 M27.8,31.2V18.9c0-1.7-1.3-3-3-3H12.5c-1.7,0-3,1.3-3,3v12.3
					c0,1.7,1.3,3,3,3h12.3C26.5,34.1,27.8,32.8,27.8,31.2L27.8,31.2z"/>
			</g>
			<g>
				<path class="st1" d="M24.6,31.1H12.7v-12h11.9V31.1 M25,31.4V18.8H12.3v12.7H25V31.4z"/>
			</g>
		</g>
		<g>
			<g>
				<path class="st0" d="M11,31.6c0-0.8,0.7-1.5,1.5-1.5h12.3c0.8,0,1.5,0.7,1.5,1.5v12.3c0,0.8-0.7,1.5-1.5,1.5H12.5
					c-0.8,0-1.5-0.7-1.5-1.5V31.6z"/>
				<path class="st0" d="M24.8,43.8H12.5V31.6h12.3V43.8 M27.8,43.8V31.6c0-1.7-1.3-3-3-3H12.5c-1.7,0-3,1.3-3,3v12.3
					c0,1.7,1.3,3,3,3h12.3C26.5,46.8,27.8,45.5,27.8,43.8L27.8,43.8z"/>
			</g>
			<g>
				<path class="st1" d="M24.6,43.8H12.7v-12h11.9V43.8 M25,44V31.4H12.3V44H25L25,44z"/>
			</g>
		</g>
		<g>
			<g>
				<path class="st0" d="M23.7,31.6c0-0.8,0.7-1.5,1.5-1.5h12.3c0.8,0,1.5,0.7,1.5,1.5v12.3c0,0.8-0.7,1.5-1.5,1.5H25.2
					c-0.8,0-1.5-0.7-1.5-1.5V31.6z"/>
				<path class="st0" d="M37.5,43.8H25.2V31.6h12.3V43.8 M40.5,43.8V31.6c0-1.7-1.3-3-3-3H25.2c-1.7,0-3,1.3-3,3v12.3
					c0,1.7,1.3,3,3,3h12.3C39.2,46.8,40.5,45.5,40.5,43.8L40.5,43.8z"/>
			</g>
			<g>
				<path class="st1" d="M37.3,43.8H25.4v-12h11.9V43.8 M37.7,44V31.4H25V44H37.7L37.7,44z"/>
			</g>
		</g>
	</g>
	<g>
		<g>
			<rect x="12.5" y="6.2" class="st2" width="12.3" height="12.3"/>
			<g>
				<path class="st3" d="M24.6,18.4H12.7v-12h11.9V18.4 M25,18.8V6.1H12.3v12.7H25L25,18.8z"/>
			</g>
		</g>
		<g>
			<rect x="12.5" y="18.9" class="st2" width="12.3" height="12.3"/>
			<g>
				<path class="st3" d="M24.6,31.1H12.7v-12h11.9V31.1 M25,31.4V18.8H12.3v12.7H25V31.4z"/>
			</g>
		</g>
		<g>
			<rect x="12.5" y="31.6" class="st2" width="12.3" height="12.3"/>
			<g>
				<path class="st3" d="M24.6,43.8H12.7v-12h11.9V43.8 M25,44V31.4H12.3V44H25L25,44z"/>
			</g>
		</g>
		<g>
			<rect x="25.2" y="31.6" class="st2" width="12.3" height="12.3"/>
			<g>
				<path class="st3" d="M37.3,43.8H25.4v-12h11.9V43.8 M37.7,44V31.4H25V44H37.7L37.7,44z"/>
			</g>
		</g>
	</g>
</g>
</svg>
