<?xml version="1.0" encoding="utf-8"?>
<!-- Generator: Adobe Illustrator 22.1.0, SVG Export Plug-In . SVG Version: 6.00 Build 0)  -->
<svg version="1.1" id="Layer_1" xmlns="http://www.w3.org/2000/svg" xmlns:xlink="http://www.w3.org/1999/xlink" x="0px" y="0px"
	 viewBox="0 0 336.7 400" style="enable-background:new 0 0 336.7 400;" xml:space="preserve">
<style type="text/css">
	.st0{fill:#A5D73C;}
	.st1{fill:#69941B;}
	.st2{fill:#F24044;}
	.st3{fill:#B3040F;}
	.st4{fill:#FADC3C;}
	.st5{fill:#E7C42A;}
	.st6{fill:#490A3D;}
	.st7{fill:#2F0026;}
	.st8{fill:#00CDC8;}
	.st9{fill:#1CA49D;}
	.st10{fill:#F0E6E1;}
</style>
<g>
	<polygon class="st0" points="52,199 52,148.9 88.9,123.5 88.9,199 	"/>
	<path class="st1" d="M87.9,125.4V198H53v-48.6L87.9,125.4 M89.9,121.5L51,148.4V200h38.9V121.5L89.9,121.5z"/>
</g>
<g>
	<polygon class="st2" points="12.5,120.5 12.5,83.7 62.5,83.7 88,120.5 	"/>
	<path class="st3" d="M62,84.7l24.1,34.9H13.5V84.7H62 M63.1,82.7H11.5v38.9h78.5L63.1,82.7L63.1,82.7z"/>
</g>
<g>
	<polygon class="st4" points="90.9,44.1 127.8,44.1 127.8,94.2 90.9,119.6 	"/>
	<path class="st5" d="M126.8,45.1v48.6l-34.9,24.1V45.1H126.8 M128.8,43.1H89.9v78.4l38.9-26.8V43.1L128.8,43.1z"/>
</g>
<g>
	<polygon class="st6" points="117.3,159.4 91.8,122.5 167.4,122.5 167.4,159.4 	"/>
	<g>
		<path class="st7" d="M166.4,123.5v34.9h-48.6l-24.1-34.9H166.4 M168.4,121.5H89.9l26.8,38.9h51.6V121.5L168.4,121.5z"/>
	</g>
</g>
<g>
	<polygon class="st0" points="169.3,120.5 169.3,83.7 219.4,83.7 244.9,120.5 	"/>
	<path class="st1" d="M218.9,84.7l24.1,34.9h-72.6V84.7H218.9 M220,82.7h-51.6v38.9h78.4L220,82.7L220,82.7z"/>
</g>
<g>
	<polygon class="st6" points="247.8,44.1 284.7,44.1 284.7,94.2 247.8,119.6 	"/>
	<g>
		<path class="st7" d="M283.7,45.1v48.6l-34.9,24.1V45.1H283.7 M285.7,43.1h-38.9v78.4l38.9-26.8V43.1L285.7,43.1z"/>
	</g>
</g>
<g>
	<polygon class="st4" points="274.2,159.4 248.7,122.5 324.2,122.5 324.2,159.4 	"/>
	<path class="st5" d="M323.2,123.5v34.9h-48.6l-24.1-34.9H323.2 M325.2,121.5h-78.4l26.8,38.9h51.6V121.5L325.2,121.5z"/>
</g>
<g>
	<polygon class="st8" points="208.9,199 208.9,148.9 245.8,123.5 245.8,199 	"/>
	<path class="st9" d="M244.8,125.4V198h-34.9v-48.6L244.8,125.4 M246.8,121.5l-38.9,26.8V200h38.9V121.5L246.8,121.5z"/>
</g>
<g>
	<polygon class="st6" points="117.3,316.3 91.8,279.5 167.4,279.5 167.4,316.3 	"/>
	<g>
		<path class="st7" d="M166.4,280.5v34.9h-48.6l-24.1-34.9H166.4 M168.4,278.5H89.9l26.8,38.9h51.6V278.5L168.4,278.5z"/>
	</g>
</g>
<g>
	<polygon class="st2" points="52,355.9 52,305.8 88.9,280.4 88.9,355.9 	"/>
	<path class="st3" d="M87.9,282.3v72.6H53v-48.6L87.9,282.3 M89.9,278.5L51,305.3v51.6h38.9V278.5L89.9,278.5z"/>
</g>
<g>
	<polygon class="st4" points="12.5,277.5 12.5,240.6 62.5,240.6 88,277.5 	"/>
	<path class="st5" d="M62,241.6l24.1,34.9H13.5v-34.9H62 M63.1,239.6H11.5v38.9h78.5L63.1,239.6L63.1,239.6z"/>
</g>
<g>
	<polygon class="st8" points="90.9,201 127.8,201 127.8,251.1 90.9,276.5 	"/>
	<path class="st9" d="M126.8,202v48.6l-34.9,24.1V202H126.8 M128.8,200H89.9v78.5l38.9-26.8V200L128.8,200z"/>
</g>
<g>
	<polygon class="st0" points="247.8,201 284.7,201 284.7,251.1 247.8,276.5 	"/>
	<path class="st1" d="M283.7,202v48.6l-34.9,24.1V202H283.7 M285.7,200h-38.9v78.5l38.9-26.8V200L285.7,200z"/>
</g>
<g>
	<polygon class="st2" points="274.2,316.3 248.7,279.5 324.2,279.5 324.2,316.3 	"/>
	<path class="st3" d="M323.2,280.5v34.9h-48.6l-24.1-34.9H323.2 M325.2,278.5h-78.4l26.8,38.9h51.6V278.5L325.2,278.5z"/>
</g>
<g>
	<polygon class="st6" points="208.9,355.9 208.9,305.8 245.8,280.4 245.8,355.9 	"/>
	<g>
		<path class="st7" d="M244.8,282.3v72.6h-34.9v-48.6L244.8,282.3 M246.8,278.5l-38.9,26.8v51.6h38.9V278.5L246.8,278.5z"/>
	</g>
</g>
<g>
	<polygon class="st8" points="169.3,277.5 169.3,240.6 219.4,240.6 244.9,277.5 	"/>
	<path class="st9" d="M218.9,241.6l24.1,34.9h-72.6v-34.9H218.9 M220,239.6h-51.6v38.9h78.4L220,239.6L220,239.6z"/>
</g>
<g>
	<g>
		<path class="st10" d="M138.8,145.5c-0.2-0.3-0.3-0.6-0.3-1.1c0-1.2,0.2-2.2,0.6-3c0.4-0.8,1.1-1.7,1.9-2.7
			c0.6-0.8,1.1-1.4,1.4-1.9c0.3-0.5,0.5-1.1,0.5-1.7c0-0.7-0.3-1.3-0.8-1.7c-0.5-0.4-1.2-0.6-2.1-0.6c-0.8,0-1.5,0.2-2.2,0.5
			c-0.7,0.3-1.5,0.8-2.5,1.4c-0.5,0.3-1,0.5-1.3,0.5c-0.4,0-0.7-0.2-0.9-0.5c-0.3-0.3-0.4-0.7-0.4-1.2c0-0.6,0.3-1.1,0.8-1.5
			c0.9-0.8,2-1.4,3.2-1.8c1.2-0.4,2.5-0.7,3.7-0.7c1.3,0,2.5,0.2,3.5,0.7c1,0.5,1.8,1.1,2.4,1.9c0.6,0.8,0.9,1.7,0.9,2.7
			c0,1.1-0.3,2.1-0.8,2.9c-0.5,0.8-1.3,1.8-2.3,2.8c-0.9,0.9-1.5,1.7-2,2.3c-0.4,0.6-0.7,1.3-0.8,2.1c-0.1,0.3-0.2,0.6-0.4,0.8
			c-0.2,0.2-0.5,0.3-0.9,0.3C139.3,145.9,139,145.7,138.8,145.5z M138.1,151.9c-0.5-0.5-0.7-1-0.7-1.7c0-0.7,0.2-1.3,0.7-1.7
			c0.5-0.5,1-0.7,1.7-0.7c0.7,0,1.3,0.2,1.7,0.7c0.5,0.5,0.7,1,0.7,1.7c0,0.7-0.2,1.3-0.7,1.7c-0.5,0.5-1,0.7-1.7,0.7
			C139.1,152.6,138.5,152.4,138.1,151.9z"/>
	</g>
</g>
<g>
	<g>
		<path class="st10" d="M263.6,79.3c-0.2-0.3-0.3-0.6-0.3-1.1c0-1.2,0.2-2.2,0.6-3c0.4-0.8,1.1-1.7,1.9-2.7c0.6-0.8,1.1-1.4,1.4-1.9
			c0.3-0.5,0.5-1.1,0.5-1.7c0-0.7-0.3-1.3-0.8-1.7c-0.5-0.4-1.2-0.6-2.1-0.6c-0.8,0-1.5,0.2-2.2,0.5c-0.7,0.3-1.5,0.8-2.5,1.4
			c-0.5,0.3-1,0.5-1.3,0.5c-0.4,0-0.7-0.2-0.9-0.5c-0.3-0.3-0.4-0.7-0.4-1.2c0-0.6,0.3-1.1,0.8-1.5c0.9-0.8,2-1.4,3.2-1.8
			c1.2-0.4,2.5-0.7,3.7-0.7c1.3,0,2.5,0.2,3.5,0.7c1,0.5,1.8,1.1,2.4,1.9c0.6,0.8,0.9,1.7,0.9,2.7c0,1.1-0.3,2.1-0.8,2.9
			c-0.5,0.8-1.3,1.8-2.3,2.8c-0.9,0.9-1.5,1.7-2,2.3c-0.4,0.6-0.7,1.3-0.8,2.1c-0.1,0.3-0.2,0.6-0.4,0.8c-0.2,0.2-0.5,0.3-0.9,0.3
			C264.1,79.7,263.8,79.6,263.6,79.3z M262.8,85.8c-0.5-0.5-0.7-1-0.7-1.7c0-0.7,0.2-1.3,0.7-1.7c0.5-0.5,1-0.7,1.7-0.7
			c0.7,0,1.3,0.2,1.7,0.7c0.5,0.5,0.7,1,0.7,1.7c0,0.7-0.2,1.3-0.7,1.7c-0.5,0.5-1,0.7-1.7,0.7C263.8,86.5,263.3,86.2,262.8,85.8z"
			/>
	</g>
</g>
<g>
	<g>
		<path class="st10" d="M226.3,330.4c-0.2-0.3-0.3-0.6-0.3-1.1c0-1.2,0.2-2.2,0.6-3c0.4-0.8,1.1-1.7,1.9-2.7
			c0.6-0.8,1.1-1.4,1.4-1.9c0.3-0.5,0.5-1.1,0.5-1.7c0-0.7-0.3-1.3-0.8-1.7c-0.5-0.4-1.2-0.6-2.1-0.6c-0.8,0-1.5,0.2-2.2,0.5
			c-0.7,0.3-1.5,0.8-2.5,1.4c-0.5,0.3-1,0.5-1.3,0.5c-0.4,0-0.7-0.2-0.9-0.5c-0.3-0.3-0.4-0.7-0.4-1.2c0-0.6,0.3-1.1,0.8-1.5
			c0.9-0.8,2-1.4,3.2-1.8c1.2-0.4,2.5-0.7,3.7-0.7c1.3,0,2.5,0.2,3.5,0.7c1,0.5,1.8,1.1,2.4,1.9c0.6,0.8,0.9,1.7,0.9,2.7
			c0,1.1-0.3,2.1-0.8,2.9c-0.5,0.8-1.3,1.8-2.3,2.8c-0.9,0.9-1.5,1.7-2,2.3c-0.4,0.6-0.7,1.3-0.8,2.1c-0.1,0.3-0.2,0.6-0.4,0.8
			c-0.2,0.2-0.5,0.3-0.9,0.3C226.8,330.8,226.5,330.6,226.3,330.4z M225.5,336.8c-0.5-0.5-0.7-1-0.7-1.7c0-0.7,0.2-1.3,0.7-1.7
			c0.5-0.5,1-0.7,1.7-0.7c0.7,0,1.3,0.2,1.7,0.7c0.5,0.5,0.7,1,0.7,1.7c0,0.7-0.2,1.3-0.7,1.7c-0.5,0.5-1,0.7-1.7,0.7
			C226.5,337.5,225.9,337.3,225.5,336.8z"/>
	</g>
</g>
<g>
	<g>
		<path class="st10" d="M136.4,302.3c-0.2-0.3-0.3-0.6-0.3-1.1c0-1.2,0.2-2.2,0.6-3c0.4-0.8,1.1-1.7,1.9-2.7
			c0.6-0.8,1.1-1.4,1.4-1.9c0.3-0.5,0.5-1.1,0.5-1.7c0-0.7-0.3-1.3-0.8-1.7c-0.5-0.4-1.2-0.6-2.1-0.6c-0.8,0-1.5,0.2-2.2,0.5
			c-0.7,0.3-1.5,0.8-2.5,1.4c-0.5,0.3-1,0.5-1.3,0.5c-0.4,0-0.7-0.2-0.9-0.5c-0.3-0.3-0.4-0.7-0.4-1.2c0-0.6,0.3-1.1,0.8-1.5
			c0.9-0.8,2-1.4,3.2-1.8c1.2-0.4,2.5-0.7,3.7-0.7c1.3,0,2.5,0.2,3.5,0.7c1,0.5,1.8,1.1,2.4,1.9c0.6,0.8,0.9,1.7,0.9,2.7
			c0,1.1-0.3,2.1-0.8,2.9c-0.5,0.8-1.3,1.8-2.3,2.8c-0.9,0.9-1.5,1.7-2,2.3c-0.4,0.6-0.7,1.3-0.8,2.1c-0.1,0.3-0.2,0.6-0.4,0.8
			c-0.2,0.2-0.5,0.3-0.9,0.3C137,302.7,136.7,302.6,136.4,302.3z M135.7,308.8c-0.5-0.5-0.7-1-0.7-1.7c0-0.7,0.2-1.3,0.7-1.7
			c0.5-0.5,1-0.7,1.7-0.7c0.7,0,1.3,0.2,1.7,0.7c0.5,0.5,0.7,1,0.7,1.7c0,0.7-0.2,1.3-0.7,1.7c-0.5,0.5-1,0.7-1.7,0.7
			C136.7,309.5,136.1,309.2,135.7,308.8z"/>
	</g>
</g>
</svg>
